<?xml version="1.0" encoding="utf-8"?>
<!-- Generator: Adobe Illustrator 26.0.3, SVG Export Plug-In . SVG Version: 6.00 Build 0)  -->
<svg version="1.1" id="CACHE_x5F_MODULE" xmlns="http://www.w3.org/2000/svg" xmlns:xlink="http://www.w3.org/1999/xlink" x="0px"
	 y="0px" viewBox="0 0 378 256.8" style="enable-background:new 0 0 378 256.8;" xml:space="preserve">
<style type="text/css">
	.st0{fill:#D0D2D3;}
	.st1{fill:none;stroke:#231F20;stroke-width:0.5;stroke-linecap:round;stroke-linejoin:round;stroke-miterlimit:10;}
	.st2{fill:none;stroke:#231F20;stroke-width:0.5;stroke-linecap:round;stroke-linejoin:round;}
	.st3{fill:none;stroke:#231F20;stroke-width:0.4875;stroke-linecap:round;stroke-linejoin:round;stroke-miterlimit:10;}
	.st4{fill:none;stroke:#231F20;stroke-width:0.4505;stroke-linecap:round;stroke-linejoin:round;stroke-miterlimit:10;}
	.st5{fill:none;stroke:#231F20;stroke-width:0.4409;stroke-linecap:round;stroke-linejoin:round;stroke-miterlimit:10;}
	.st6{fill:none;stroke:#231F20;stroke-width:0.5145;stroke-linecap:round;stroke-linejoin:round;stroke-miterlimit:10;}
	.st7{fill:#231F20;}
	.st8{fill:none;stroke:#231F20;stroke-width:0.5286;stroke-linecap:round;stroke-linejoin:round;stroke-miterlimit:10;}
	.st9{fill:none;stroke:#231F20;stroke-width:0.5507;stroke-linecap:round;stroke-linejoin:round;stroke-miterlimit:10;}
	.st10{fill:none;stroke:#231F20;stroke-width:0.479;stroke-linecap:round;stroke-linejoin:round;stroke-miterlimit:10;}
	.st11{fill:none;stroke:#231F20;stroke-width:0.3566;stroke-linecap:round;stroke-linejoin:round;stroke-miterlimit:10;}
	.st12{fill:none;stroke:#231F20;stroke-width:0.4045;stroke-linecap:round;stroke-linejoin:round;stroke-miterlimit:10;}
	.st13{fill:none;stroke:#231F20;stroke-width:0.4035;stroke-linecap:round;stroke-linejoin:round;stroke-miterlimit:10;}
	.st14{fill:none;stroke:#231F20;stroke-width:0.583;stroke-linecap:round;stroke-linejoin:round;stroke-miterlimit:10;}
	.st15{fill:none;stroke:#231F20;stroke-width:0.5977;stroke-linecap:round;stroke-linejoin:round;stroke-miterlimit:10;}
	.st16{fill:none;stroke:#231F20;stroke-width:0.5471;stroke-linecap:round;stroke-linejoin:round;stroke-miterlimit:10;}
	.st17{fill:none;stroke:#231F20;stroke-width:0.5101;stroke-linecap:round;stroke-linejoin:round;stroke-miterlimit:10;}
	.st18{fill:none;stroke:#FFFFFF;stroke-width:3;stroke-linecap:round;stroke-linejoin:round;stroke-miterlimit:10;}
	.st19{fill:none;stroke:#231F20;stroke-linecap:round;stroke-linejoin:round;stroke-miterlimit:10;}
	.st20{fill:none;stroke:#231F20;stroke-width:0.75;stroke-linecap:round;stroke-linejoin:round;stroke-miterlimit:10;}
	.st21{fill:none;stroke:#231F20;stroke-width:0.5;stroke-miterlimit:10;}
	.st22{fill:none;stroke:#231F20;stroke-width:0.6099;stroke-linecap:round;stroke-linejoin:round;stroke-miterlimit:10;}
	.st23{fill:none;stroke:#EB008B;stroke-width:0.5;stroke-linecap:round;stroke-linejoin:round;stroke-miterlimit:10;}
	.st24{clip-path:url(#SVGID_00000038396837266069889670000009251967572542995853_);}
	.st25{fill:none;stroke:#231F20;stroke-width:0.6991;stroke-linecap:round;stroke-linejoin:round;stroke-miterlimit:10;}
	
		.st26{clip-path:url(#SVGID_00000038396837266069889670000009251967572542995853_);fill:#2D2A26;stroke:#FFFFFF;stroke-width:1.1252;stroke-linecap:round;stroke-linejoin:round;stroke-miterlimit:10;}
	.st27{fill:#2D2A26;stroke:#FFFFFF;stroke-width:0.6446;stroke-linecap:round;stroke-linejoin:round;stroke-miterlimit:10;}
	.st28{fill-rule:evenodd;clip-rule:evenodd;stroke:#FFFFFF;stroke-width:0.8;stroke-miterlimit:10;}
	.st29{fill:#FFFFFF;}
	.st30{font-family:'Helvetica';}
	.st31{font-size:16.7027px;}
	.st32{fill:#231F20;stroke:#FFFFFF;stroke-linecap:round;stroke-linejoin:round;stroke-miterlimit:10;}
</style>
<polygon class="st0" points="200,163.1 198,163.9 197.9,165.7 199.5,166.7 233.3,149.8 236.3,144.5 237,143.9 248.6,137.7 
	248.6,136.7 247.3,137.4 247.1,135.9 245.6,136.6 245.6,135.1 244.1,135.8 244,134.3 242.7,134.8 242.4,133.3 240.4,134.3 
	240.4,136 239.2,136.6 239.2,138.2 238.4,138.7 238.4,137.1 236.4,138 236.4,139.7 235.6,140.1 235.5,138.7 233.7,139.6 
	233.6,141.1 233,141.5 232.7,139.9 230.9,140.9 230.7,142.6 230,142.9 229.9,141.6 228.8,141.9 228.3,140.4 226.7,141.3 226.3,143 
	225.9,143.3 225.7,141.8 223.6,142.8 223.7,144.2 222.9,144.8 222.8,143.3 220.9,144.2 220.9,145.8 220.2,146.1 220.1,144.7 
	218,145.6 218,147 217.3,147.4 217.2,146 215.3,146.9 215.3,148.5 214.7,148.9 214.6,147.4 212.6,148.3 212.5,150 211.9,150.3 
	211.8,148.8 209.9,149.8 209.9,151.5 209,152 208.9,150.1 206.9,151.2 206.9,152.7 206.2,153.2 206.1,151.7 204.1,152.7 
	204.1,154.4 203.2,154.8 203.2,153.3 201.1,154.3 201,160.4 200.1,160.1 200,162.4 "/>
<g>
	<g>
		<path class="st1" d="M62.3,157.1c0,0,0-0.6,0-1.6c0-1.1,1.2-1.6,1.2-1.6s7-3.7,7.4-3.8c0.3-0.2,0.6-0.2,1.1-0.1s0.8-0.2,0.9-0.6
			s1.2-0.9,1.2-0.9l111.7-55.9c0,0,0.7-0.5,1.3-0.1c0.6,0.5,2.1,1.4,2.1,1.4s0.3,0.2,0.6-0.1c0.2-0.2,0.6-0.7,0.4-1.2l-0.7-0.5
			c0,0-0.2-0.6,0-1c0.2-0.4,0.5-0.8,0.9-0.8s3.1-0.2,3.1-0.2s0.7,0.2,0.8,0.6l0,3.3c0,0,0.1,0.5-0.4,0.8
			c-0.5,0.2-44.9,22.4-44.9,22.4"/>
		<path class="st1" d="M161.5,159.4c0,0-0.1-7.2,0-8.8c0.1-1.6,1.6-2.1,1.6-2.1l24.9-12.6l-6.9-3.5l6.1-3.1c0,0-22.9-11.4-23.9-12
			c-1-0.5-2.2,0-2.2,0l-6.1,3l-7.1-3.5l-23.3,11.7c0,0-2.2,0.9-2.2,2.5l0.1,1.1"/>
		<path class="st1" d="M162.7,148.3l-6.6-3.4l-6.8,3.4c0,0-1.1,0.6-1.1,1.8s0,3.1,0,3.1"/>
		<path class="st1" d="M123.6,129.3l6.6,3.3l-5.8,3.1l0,0.5c0,0-0.8,0.7-0.8,1.9c0,1,0.1,6.9,0.1,6.9"/>
		<line class="st1" x1="124.8" y1="135.6" x2="149.6" y2="148"/>
		<polyline class="st1" points="177.8,154.4 189.1,148.7 189.2,147.4 195.4,144.4 		"/>
		<path class="st1" d="M184.5,133.9c0.5-0.4,1.4-0.6,2.4-0.6c1.7,0,3,0.7,3,1.5c0,0.6-0.6,1.1-1.6,1.3"/>
		<path class="st1" d="M188.8,137.8c0.7-0.3,1.1-0.7,1.1-1.2V135"/>
		<path class="st1" d="M188.7,146.2V137c0,0,0.1-1-0.9-1.1"/>
		<path class="st1" d="M189.3,137.5c0.3,0.2,0.5,0.4,0.5,0.7c0,0.4-0.4,0.8-1.1,1"/>
		<path class="st1" d="M189.3,139.4c0.3,0.2,0.5,0.4,0.5,0.7c0,0.4-0.4,0.8-1.1,1"/>
		<path class="st1" d="M189.3,141.1c0.3,0.2,0.5,0.4,0.5,0.7c0,0.4-0.4,0.8-1.1,1"/>
		<g>
			<ellipse class="st1" cx="154.3" cy="148.9" rx="3" ry="1.5"/>
			<path class="st1" d="M151.3,148.9v1.7c0,0.8,1.4,1.5,3,1.5s3-0.7,3-1.5V149"/>
			<path class="st1" d="M156.9,151.4c0.3,0.3,0.4,0.6,0.4,0.9c-0.1,0.8-1.6,1.3-3.2,1.1s-2.9-1.1-2.8-1.9c0-0.1,0.1-0.2,0.1-0.4"/>
			<path class="st1" d="M157.3,158.2c0,0.1,0.1,0.2,0.1,0.3c0,0.8-1.4,1.5-3,1.5s-3-0.7-3-1.5c0-0.2,0.1-0.4,0.3-0.6"/>
			<path class="st1" d="M156.7,156.9c0.4,0.3,0.7,0.8,0.6,1.1c-0.1,0.8-1.6,1.3-3.2,1c-1.7-0.3-2.9-1.2-2.7-2
				c0.1-0.3,0.3-0.6,0.7-0.8"/>
			<path class="st1" d="M156.7,155c0.4,0.3,0.6,0.7,0.5,1.1c-0.1,0.8-1.6,1.3-3.2,1c-1.7-0.3-2.9-1.2-2.7-2c0-0.3,0.2-0.5,0.5-0.7"
				/>
			<path class="st1" d="M156.7,153.2c0.4,0.3,0.6,0.7,0.6,1.1c-0.1,0.8-1.6,1.3-3.2,1c-1.7-0.3-2.9-1.2-2.7-2c0-0.3,0.2-0.5,0.5-0.7
				"/>
		</g>
		<g>
			<path class="st1" d="M127.3,170.9c-1.1,0-2-0.4-2-1s0.9-1,2-1s2,0.4,2,1"/>
			<path class="st1" d="M125.3,169.9v1.1c0,0.5,0.9,1,2,1"/>
			<path class="st1" d="M127.2,172.7c-0.8-0.1-1.5-0.5-1.4-0.9"/>
			<path class="st1" d="M127.3,175.4c-0.8,0-1.5-0.3-1.5-0.7c0-0.1,0.1-0.2,0.1-0.3"/>
			<path class="st1" d="M127.1,174.4c-0.8-0.1-1.4-0.6-1.4-1c0-0.1,0.1-0.2,0.3-0.3"/>
			<path class="st1" d="M127.1,173.6c-0.8-0.1-1.4-0.6-1.4-1c0-0.1,0.1-0.2,0.3-0.3"/>
		</g>
		<g>
			<ellipse class="st1" cx="124" cy="133.7" rx="3" ry="1.5"/>
			<path class="st1" d="M121,133.7v1.7c0,0.8,1.3,1.5,2.8,1.5"/>
			<ellipse class="st1" cx="156.4" cy="117.4" rx="3" ry="1.5"/>
			<line class="st1" x1="153.4" y1="117.4" x2="153.4" y2="119.1"/>
			<path class="st1" d="M123.7,138.2c-1.6-0.3-2.8-1.1-2.7-1.9c0-0.1,0.1-0.2,0.1-0.4"/>
			<path class="st1" d="M123.7,144.8c-1.5-0.1-2.7-0.7-2.7-1.5c0-0.2,0.1-0.4,0.3-0.6"/>
			<path class="st1" d="M123.7,143.8c-1.7-0.3-2.9-1.2-2.7-2c0.1-0.3,0.3-0.6,0.7-0.8"/>
			<path class="st1" d="M123.7,141.8c-1.7-0.3-2.9-1.2-2.7-2c0-0.3,0.2-0.5,0.5-0.7"/>
			<path class="st1" d="M123.7,140.1c-1.7-0.3-2.9-1.2-2.7-2c0-0.3,0.2-0.5,0.5-0.7"/>
		</g>
		<polygon class="st1" points="104.4,154.7 123,164.2 127.1,162.2 130.9,164.1 150.3,154.4 131.6,145.1 127.7,147.1 123.8,145.1 		
			"/>
		<line class="st1" x1="104.4" y1="154.7" x2="104.4" y2="163.3"/>
		<line class="st1" x1="150.3" y1="154.4" x2="150.4" y2="160.4"/>
		<line class="st1" x1="123" y1="164.2" x2="123.1" y2="174.2"/>
		<line class="st1" x1="130.9" y1="164.1" x2="130.9" y2="169.5"/>
		<line class="st1" x1="127.1" y1="162.2" x2="127.1" y2="168.8"/>
		<polyline class="st1" points="87.8,159.6 92,157.5 105.5,164.2 101.2,166.3 		"/>
		<line class="st1" x1="105.5" y1="168.5" x2="105.5" y2="164.2"/>
		<line class="st1" x1="156.1" y1="144.9" x2="156.1" y2="147.5"/>
		<line class="st1" x1="157" y1="157.2" x2="161.5" y2="159.5"/>
		<line class="st1" x1="177.9" y1="113.7" x2="190.2" y2="107.4"/>
		<line class="st1" x1="193.6" y1="94.9" x2="193.7" y2="104.1"/>
		<polyline class="st1" points="222.3,108.2 203.4,98.8 197.6,101.7 197.2,102.4 190.2,105.9 190.2,112.5 195.9,115.3 196.6,114.9 
					"/>
		<polyline class="st1" points="195.8,115 195.8,108.8 203,105.1 204.2,104.9 209.8,102.1 		"/>
		<polyline class="st1" points="204.2,104.9 203.8,105.6 196.7,109.1 196.7,115.8 202.4,118.6 203.1,118.2 		"/>
		<polyline class="st1" points="216.5,105.3 210.6,108.3 209.6,108.4 202.4,112 202.3,118.5 		"/>
		<line class="st1" x1="196.9" y1="109.2" x2="202.4" y2="112"/>
		<line class="st1" x1="190.3" y1="105.9" x2="195.7" y2="108.6"/>
		<polyline class="st1" points="210.6,108.3 210.3,108.9 203.4,112.5 203.3,119 208.8,121.7 		"/>
		<line class="st1" x1="203.4" y1="112.5" x2="208.7" y2="115.1"/>
		<polyline class="st1" points="208.9,123.7 209,115.2 223.5,108 228.5,110.4 214,117.8 214,126 		"/>
		<line class="st1" x1="209" y1="115.2" x2="214" y2="117.8"/>
		<path class="st1" d="M228.5,110.4c0,0,0.8,0.3-0.8,3.6"/>
		<polyline class="st1" points="236.1,115.1 231,112.6 225.2,115.3 224.9,116 217.7,119.7 217.7,124.2 		"/>
		<polyline class="st1" points="243.7,121.2 243.6,117.2 237.9,114.5 223.8,121.5 223.7,126.4 		"/>
		<polyline class="st1" points="229.3,129.4 229.3,124.2 243.6,117.2 		"/>
		<line class="st1" x1="217.9" y1="119.8" x2="223.7" y2="122.6"/>
		<line class="st1" x1="223.8" y1="121.5" x2="229.3" y2="124.2"/>
		<line class="st1" x1="208.4" y1="123.6" x2="213.7" y2="126.3"/>
		<polygon class="st1" points="200.2,133.2 218.3,124 236.3,133 218.2,142.3 		"/>
		<polyline class="st1" points="200.2,133.2 200.2,144.9 209.5,149.6 		"/>
		<line class="st1" x1="218.2" y1="142.3" x2="218.3" y2="145.4"/>
		<line class="st1" x1="236.5" y1="133.1" x2="236.5" y2="137.7"/>
		<polyline class="st1" points="212.1,127.2 186.5,114.2 181.5,116.8 		"/>
		<polyline class="st1" points="206.8,129.5 178.9,115.7 169.5,120.4 		"/>
		<polyline class="st1" points="265.6,133.9 265.6,129.8 246,120.1 240.2,122.9 239.9,123.7 232.8,127.2 232.8,131 		"/>
		<polyline class="st1" points="236.6,135.7 238.3,136.4 238.4,129.9 232.8,127.2 		"/>
		<polyline class="st1" points="252.5,123.4 246.9,126.2 245.6,126.3 238.4,129.9 		"/>
		<polyline class="st1" points="246.7,126.2 246.5,126.8 239.3,130.4 239.3,136.4 		"/>
		<polyline class="st1" points="259,126.6 253.3,129.5 252,129.6 244.9,133.2 239.3,130.4 		"/>
		<line class="st1" x1="244.9" y1="135.3" x2="244.9" y2="133.2"/>
		<polyline class="st1" points="245.7,136 245.7,133.7 252.5,130.4 253.3,129.5 		"/>
		<polyline class="st1" points="245.7,133.7 251.5,136.4 258.6,132.9 259.9,132.7 265.3,129.9 		"/>
		<polyline class="st1" points="280,141.6 280,140.4 267.8,134 262.1,134 257,136.5 254.3,135.1 		"/>
		<path class="st1" d="M280,140.4l-21.2,11l-0.8-0.5l-10.8,5.4l-1.2-0.7c0,0-0.5-0.3-1.4,0.2c-1,0.6-10.8,5.4-10.8,5.4
			s-1.1,0.4-0.2,0.8c0.9,0.4,0.8,0.5,0.8,0.5s0.4,0.1,0.3,1.1l0,0.8"/>
		<path class="st1" d="M251.5,136.4l-15,7.7c0,0-0.6,0.5-1,1.4c-0.4,0.9-2,3.7-2,3.7s-0.1,0.3-1.2,0.9c-1,0.6-32.8,16.5-32.8,16.5
			l0.1,1.2c0,0,3.5,1.7,4.8,2.6c1.3,0.9,2.7-0.2,2.7-0.2l66.3-33.4"/>
		<line class="st1" x1="21.1" y1="179" x2="53.2" y2="163"/>
		<line class="st1" x1="29.8" y1="191.6" x2="54.2" y2="179.5"/>
		<polygon class="st1" points="107.5,177.3 115.1,173.6 71.6,151.7 64,155.5 		"/>
		<path class="st1" d="M63.7,157.3c0,0,0.4-0.8,1.3-0.3c0.9,0.5,41.5,20.8,41.5,20.8s1,0.5,1,2.1c0,1.7,0,14.5,0,14.5
			s-0.1,1.6-1.2,1.1c-1.1-0.5-41.5-20.7-41.5-20.7"/>
		<line class="st1" x1="140.5" y1="213.9" x2="64.2" y2="175.8"/>
		<line class="st1" x1="111.6" y1="228.3" x2="148.8" y2="209.8"/>
		<line class="st1" x1="149.4" y1="210.9" x2="111.8" y2="229.9"/>
		<line class="st1" x1="149.3" y1="226.1" x2="111.7" y2="245.2"/>
		<polyline class="st1" points="147.6,227 149.5,227.8 158.8,223 159.7,223.4 168.3,219 169.4,217 171.6,215.9 174.1,216.2 
			291.1,157.7 291.1,151.5 288.8,148.2 288.8,143.5 		"/>
		<path class="st1" d="M169.2,217.3v-4.9c0,0,0.4-2.9,2.4-3.6c0,0,1.7-0.5,1.8,1.1v6"/>
		<path class="st1" d="M149.5,227.6v-17.1c0,0-0.5-1.1-2.1-1.3v1.2"/>
		<path class="st1" d="M149.5,210.5l9.6-4.8c0,0-0.5-1.1-2.1-1.3l-9.6,4.8"/>
		<path class="st1" d="M160.1,223.1l-0.1-17.4l7.7-3.9c0,0,1.3-0.9,2.2-0.2c1,0.8,1.6,1.4,3,0.8s1.4-0.7,1.4-0.7"/>
		<path class="st1" d="M173.7,200.7c0.8,0.4,0.8,1.7,0.8,1.7v2.4c0,0,0.1,2.3,2.6,1.3c2.3-1,2.5-3.8,2.5-3.8s0-2.1,0-3
			c0-0.8-0.6-1.3-0.6-1.3c0-1.1-0.9-0.7-0.9-0.7l-3.6,1.9c0,0-0.6,0.3-0.7,1.4"/>
		<line class="st1" x1="160.1" y1="221.6" x2="160.1" y2="202.8"/>
		<path class="st1" d="M173.9,199.3"/>
		<path class="st1" d="M159.2,205.6v-2.7l8.6-4.1l0.6-1.1l67.4-33.6c0,0,0.7-0.1,0.8,0.5s0.3,4.5,0.3,4.5s0.9,0.6,0.8,1.5l11.6-5.7
			c0,0,0.6-0.7-0.1-1.6l0.1-4.9c0,0,0.2-1.1,1-1.5l32.8-16.3l2.7,1.8c0,0,1.2-0.1,0.9-1.4l-0.7-0.6c0,0-0.4-1.2,1-1.8l2.8-0.1
			c0,0,0.7,0,0.8,0.6l0,3.5l-41.2,20.7"/>
		<line class="st1" x1="179.8" y1="199.1" x2="237.3" y2="170.3"/>
		<line class="st1" x1="105.6" y1="165.5" x2="127.2" y2="176.4"/>
		<path class="st1" d="M127.2,177.5"/>
		<path class="st1" d="M105.7,166.9"/>
		<line class="st1" x1="123.5" y1="174.4" x2="125.7" y2="173.3"/>
		<line class="st1" x1="133.1" y1="179.9" x2="138.7" y2="177.1"/>
		<line class="st1" x1="126.7" y1="183.1" x2="128.3" y2="182.4"/>
		<path class="st1" d="M146.8,205.1"/>
		<polyline class="st1" points="157,204.3 157,201.9 159.5,200.6 161.5,201.6 		"/>
		<line class="st1" x1="159.2" y1="202.9" x2="157" y2="201.9"/>
		<line class="st1" x1="86.2" y1="159.1" x2="116.1" y2="144.4"/>
		<polyline class="st1" points="187.1,129.3 187.8,129.6 187.8,133.1 		"/>
		<polyline class="st1" points="189.8,140.1 195.4,142.8 175.1,153.1 		"/>
		<path class="st1" d="M195.6,144.8"/>
		<polygon class="st1" points="198.8,143.2 195.6,144.9 195.6,139.7 198.8,138.1 		"/>
		<line class="st1" x1="195.6" y1="139.7" x2="190.2" y2="137"/>
		<polyline class="st1" points="187.9,131.8 197.4,136.6 200.1,135.2 		"/>
		<polyline class="st1" points="187.9,133 197.4,137.8 200.1,136.5 		"/>
		<path class="st1" d="M52.5,162.8V162l10.3-4.9l1.4,0.6c0,0,0.5,0.3,0.5,1c0,0.6,0,2,0,2l-9.2,4.6l-0.9-0.1v-2c0,0-0.1-1-2.2-1.3"
			/>
		<path class="st1" d="M53.4,180.1l1.3,0.6l10-5.1l-0.1-2l-0.9-0.3l-8.3,4.1c0,0-1,0.5-0.9,1.3l0,1.7"/>
		<path class="st1" d="M10,179.8l5.5-2.7c0,0,9.3,1.1,13.7,13.5c0,0,3.8,10.4-2.9,16l-6.2,3c0,0-2,0.3-4.5-0.9l-5.4-2.5
			c0,0-0.8-0.9-0.8-1.9c0-1,0.1-3,0.1-3"/>
		<path class="st1" d="M9.5,185.6l-0.1-4.9c0,0,0.3-1.1,2.4-0.9c0,0,9.4,3.5,12.1,13.1c0,0,4.9,10.7-2.2,15.9"/>
		<path class="st1" d="M11.2,191.2v-5.5c0,0,0.5-3.5,3.4-2.8c0,0,7.1,2.5,9.4,15.2c0,0,1.5,8.2-4.8,10.1c0,0-1.7,0.6-3.8-0.2
			s-5.8-3-5.8-3l5.4-2.7"/>
		<line class="st1" x1="16.4" y1="183.9" x2="16.4" y2="188.7"/>
		<path class="st1" d="M10.1,192l8.2-4.1c0,0,1.2,0.3,1.1,1.6l-1.1,3.8l-5,2.7l-1.7-3.1C11.6,192.9,11.1,191.8,10.1,192z"/>
		<path class="st1" d="M10.1,192c0,0-1.7,5.1,0.7,9.9l1.3-0.6c0,0,0-3.3,3-4.2c0,0,1.8-0.6,1.7,1.8l1.3-0.5c0,0,1-3.4,1-7"/>
		<path class="st1" d="M11.2,186.5c0,0,0.5,0.3-2.1-0.8c0,0-4.5-0.2-5.9,6.3v8c0,0,0,3,2.9,3.2c0,0,2.5,0.1,4-2.7"/>
		<path class="st1" d="M15.1,197.2l0.2,5.3c0,0,0.4,0.6,0.9,0.8c0.5,0.2,3.8,1.8,3.8,1.8s1.8,0.6,2.6,0.5"/>
		<path class="st1" d="M11.3,188.9c0,0-1.1,0.2-2.4-0.8c0,0-2.8,0.6-3.3,3.8l0,7.6c0,0,0.2,1.6,1.5,1.1c1.3-0.5,1.5-1.1,1.5-1.1
			l1-1.3"/>
		<path class="st1" d="M23.6,181.3l11-5.5c0,0,1.4-0.5,1.5,1c0.1,1.5,0,7.1,0,7.1s0.1,1.1-1.2,2.1l-5.9,2.9"/>
		<path class="st1" d="M46.3,170.9l-0.9,0.4c0-1.2-1-1-1-1l-6.5,3.2c-1.1,0.8-0.9,2-0.9,2l0,8.8c0,0,0.3,1.1,1.3,0.6
			c1-0.5,6.2-3,6.2-3s1.1-0.7,0.9-2l16.5-8.2v-0.8c0,0,2.9-1,3.2-2.2l0.3-1l0-1.7c0,0-0.2-1.8-1.4-3.3v-1.6"/>
		<path class="st1" d="M59.9,172.7v-0.8c0,0,2.9-1,3.2-2.2l0.3-1l0-1.7c0,0-0.2-1.8-1.4-3.3v-1.6"/>
		<polyline class="st1" points="46.4,179.4 46.4,169.9 55.8,165.3 		"/>
		<line class="st1" x1="52.9" y1="176.1" x2="52.9" y2="166.8"/>
		<polyline class="st1" points="114.6,178 119.4,175.5 119.5,179.8 		"/>
		<polyline class="st1" points="114,172.9 114.5,172.7 119.4,175.2 		"/>
		<polyline class="st1" points="119.6,176.2 127.3,180.2 128.4,179.6 		"/>
		<path class="st1" d="M133.1,178.7c0,0.7-1,1.2-2.3,1.2c-1.3,0-2.3-0.5-2.3-1.2"/>
		<path class="st1" d="M130.8,185.7c1.3,0,2.3-0.5,2.3-1.2v-5.8"/>
		<line class="st1" x1="128.5" y1="178.7" x2="128.5" y2="184.5"/>
		<path class="st1" d="M121.9,145.9"/>
		<line class="st1" x1="120.8" y1="140.5" x2="116" y2="142.9"/>
		<polyline class="st1" points="116,142.9 116,144.5 120.5,146.7 		"/>
		<path class="st1" d="M60.3,163.5c0,0,3,2.7,0.1,8.2"/>
		<line class="st1" x1="63.7" y1="173.2" x2="63.7" y2="170.1"/>
		<g>
			<polygon class="st1" points="82.1,175 68.8,168.5 68.8,173.8 82.2,180.5 			"/>
			<polyline class="st1" points="82.2,180.5 83.5,179.8 83.4,174.4 70.1,167.8 68.8,168.5 			"/>
			<line class="st1" x1="68.8" y1="173.8" x2="74" y2="171.1"/>
			<polyline class="st1" points="75.4,171.8 75.4,177 80.6,174.4 			"/>
			<line class="st1" x1="82.1" y1="175" x2="83.4" y2="174.4"/>
		</g>
		<g>
			<polygon class="st1" points="94.4,180.4 84.6,175.5 84.6,181.8 94.5,186.9 			"/>
			<polyline class="st1" points="94.5,186.9 96.2,185.9 96.1,179.4 86.2,174.5 84.6,175.5 			"/>
			<line class="st1" x1="84.6" y1="181.6" x2="89.2" y2="179.6"/>
			<polyline class="st1" points="89.4,178.1 89.4,184.2 94,182.2 			"/>
			<line class="st1" x1="94.4" y1="180.4" x2="95.7" y2="179.8"/>
		</g>
		<g>
			<polygon class="st1" points="102.3,184.4 97.2,181.8 97.2,188.2 102.4,190.9 			"/>
			<polyline class="st1" points="102.4,190.9 104,189.9 103.9,183.4 98.8,180.8 97.2,181.8 			"/>
			<path class="st1" d="M97,183.6"/>
			<line class="st1" x1="97.2" y1="188.2" x2="101.9" y2="186.2"/>
			<line class="st1" x1="102.3" y1="184.4" x2="103.6" y2="183.8"/>
		</g>
		<path class="st1" d="M115.5,230.5l14.2-7c0,0,1.3-0.4,1.3,0.8c0,1.3,0.1,7,0.1,7s-0.4,1.6-1.3,2.2c-0.9,0.6-14.4,7.2-14.4,7.2
			s-1.2,0-1.2-1.3s0.1-6.7,0.1-6.7S114.4,231,115.5,230.5z"/>
		<path class="st1" d="M141.2,217.9l6.3-3.1c0,0,0.8-0.7,0.8,0.2c0.1,0.8,0,8.3,0,8.3s0.1,0.5-0.6,0.9s-6.5,3.3-6.5,3.3
			s-0.7,0-0.7-0.8s0.1-7.9,0.1-7.9S140.8,218,141.2,217.9z"/>
		<ellipse transform="matrix(0.498 -0.8672 0.8672 0.498 -125.3922 228.6588)" class="st1" cx="134.8" cy="222.6" rx="2" ry="1.4"/>
		<ellipse transform="matrix(0.498 -0.8672 0.8672 0.498 -98.6064 245.4034)" class="st1" cx="162.7" cy="207.9" rx="2" ry="1.4"/>
		<ellipse transform="matrix(0.498 -0.8672 0.8672 0.498 -99.9634 250.0335)" class="st1" cx="166" cy="211.4" rx="2" ry="1.4"/>
		<ellipse transform="matrix(0.498 -0.8672 0.8672 0.498 -107.5194 250.8861)" class="st1" cx="162.9" cy="218.3" rx="2" ry="1.4"/>
		<ellipse transform="matrix(0.498 -0.8672 0.8672 0.498 -94.7982 259.8622)" class="st1" cx="177.1" cy="211.8" rx="2" ry="1.4"/>
		
			<ellipse transform="matrix(0.498 -0.8672 0.8672 0.498 -109.6562 243.1393)" class="st1" cx="155.2" cy="216.3" rx="1.3" ry="0.9"/>
		<ellipse transform="matrix(0.498 -0.8672 0.8672 0.498 -131.1181 231.9734)" class="st1" cx="134.8" cy="229.2" rx="2" ry="1.4"/>
		<line class="st1" x1="106.5" y1="228.6" x2="111.4" y2="226.3"/>
		<path class="st1" d="M102.2,221.4c1.7-0.3,3,0.1,3,0.1s3.1,1.2,4.6,2.1c1.7,1,1.7,2.3,1.7,2.3v23.3c0,0,0.3,0.9-0.7,1.4
			c-1.2,0.6-4.7,2.4-4.7,2.4s-1.3,0.4-3.3-0.5c-1.9-0.9-9.4-4.8-12.1-17.3c0,0-1.7-10,5.9-12.4c0,0,4.9-0.5,5-2.1c0,0-0.5-0.9-5.3,2
			"/>
		<path class="st1" d="M106.4,252.7v-22.9c0,0,0.2-2.3-1-3.1l-5.7-2.6c0,0-1.7-0.6-4.4,0.4"/>
		<path class="st1" d="M97.6,247.3c0,0-4.4-3.8-5.8-12.6c0,0-0.9-8.7,5-9.9c0,0,2.1-0.9,8.4,3v24.3c0,0-1.6,0.2-4-1.6"/>
		<path class="st1" d="M105,233.4l-1.3-0.6c0,0-3.5-0.4-5.5,4.7c0,0-0.5,2.5-0.5,3.9c-0.1,1.5,0.1,6.6,0.1,6.6s1.3,3.7,4.7,2.1
			c0,0,2.5-1.7,2.7-3.1"/>
		<path class="st1" d="M98.3,224.9c0,0-2.9,5.3-0.1,12.6"/>
		<path class="st1" d="M105.1,234.6l-1.2-0.7c0,0-3.4,0.3-4.7,5.4v8.2c0,0-0.3,3.6,4.1,1.8"/>
		
			<ellipse transform="matrix(0.4022 -0.9156 0.9156 0.4022 -136.4389 141.8383)" class="st1" cx="40.4" cy="175.4" rx="1.6" ry="1.2"/>
		
			<ellipse transform="matrix(0.4022 -0.9156 0.9156 0.4022 -141.8409 145.3657)" class="st1" cx="40.4" cy="181.3" rx="1.6" ry="1.2"/>
		<ellipse class="st1" cx="78" cy="158.3" rx="2.1" ry="1"/>
		<ellipse class="st1" cx="101.8" cy="170.2" rx="2.1" ry="1"/>
		<path class="st1" d="M80.4,171v-2.3c0.1-0.9-0.8-1.5-0.8-1.5l-8.7-4.4c-1-0.4-0.9,0.7-0.9,0.7v2.4c0,0-0.1,0.7,0.7,1.1l9,4.6
			C79.7,171.5,80.3,171.9,80.4,171z"/>
		<path class="st1" d="M70.2,162.7l0.9-0.5c0,0,0.4-0.2,0.8,0l8.6,4.3c0,0,0.9,0.6,0.8,1.5v2.3c0,0.6-0.2,0.7-0.2,0.7l-1.2,0.6"/>
		<path class="st1" d="M84.4,171.4"/>
		<path class="st1" d="M234.4,162.6l-10.6,5.4c0,0,1.4,0.2,1.2,1.3"/>
		<polyline class="st1" points="224.5,168.6 220.6,170.5 219.9,170.1 205.6,177.3 205.6,179.1 		"/>
		<path class="st1" d="M205.6,177.3l-14.1-6.8l1.5-2.2l3.7-1.8c0,0,0.4-0.3,1,0c0.6,0.3,1.9,0.9,1.9,0.9"/>
		<line class="st1" x1="122.6" y1="130" x2="75.8" y2="153.5"/>
		<path class="st2" d="M281.9,147c0,0,1.2,0.9-0.1,2l-0.6,0.3l-12.9,6.4c0,0-0.5,0.4-0.5,1s0.1,3.7,0.1,3.7s-0.1,0.7,0.7,0.4
			c0.8-0.4,13.1-6.5,13.1-6.5s0.9-0.3,0.9,0.6s0,1.6,0,1.6s0.5,0.7,1-0.3c0,0,0.9-0.9-0.8-2.3s-1.3-1.4-1.3-1.4l0.1-3.2"/>
		<line class="st2" x1="283.9" y1="155.3" x2="291" y2="151.7"/>
		<path class="st2" d="M280.1,149.9l0,1.3c0,0,0.2,0.4-0.5,0.8c-0.2,0.1-0.5,0.2-0.7,0.3c-0.4,0.2-0.7,0.3-0.7,0.3l0,1.5l1.6-0.8"/>
		<path class="st2" d="M278.9,152.4l0.7,0.4c0,0,0.6,0.3,0.4,1.2l0,1.1"/>
		<path class="st1" d="M235.3,164.3c0,0,0-1.2,1-1.7s8.9-4.3,8.9-4.3s0.4-0.5,1.5,0.2"/>
		<path class="st1" d="M236.4,164.3c0,0,0-0.9,1.3-1.6c1.3-0.6,8-3.9,8-3.9s0.9-0.4,1.5-0.1"/>
		<path class="st1" d="M236.9,168.8l10.2-5.1c0,0,0.8-0.3,0.1-1.1l0-6.1"/>
		<line class="st1" x1="191.9" y1="170.7" x2="191.9" y2="175.9"/>
		<path class="st1" d="M191.7,174.7c0,0-0.9,1,0.6,1.6c0.4,0.1,0.9,0.4,1.5,0.7c0.8,0.4,1.7,0.8,2.5,1.2"/>
		<line class="st1" x1="138.9" y1="177.3" x2="138.8" y2="180.3"/>
		<polyline class="st1" points="138.8,179.9 138.1,180.3 140.5,181.4 		"/>
		<path class="st1" d="M115.1,173.6c0,0,0.9,0.5,0.9,1c0,0.8,0,0.9,0,0.9s0.1,0.8-0.9,1.4c-0.2,0.1-0.6,0.3-1,0.5"/>
		<path class="st1" d="M108.1,177.1c0,0,0.6,0.2,0.6,0.7"/>
		<polyline class="st1" points="119.4,176.6 118,177.3 118,179 		"/>
		<path class="st1" d="M143.5,169.5v-4c0,0-0.1-1.7,1.3-1.6c0,0,0.9,0.4,0.9,2.5"/>
		<path class="st1" d="M148.1,162.4c0,0,1,0.1,1,2.2"/>
		<path class="st1" d="M152.3,163.1c0-2-1-2.2-1-2.2v5.6"/>
		<line class="st1" x1="144.4" y1="163.9" x2="152.9" y2="159.8"/>
		<line class="st1" x1="148.1" y1="162.4" x2="148.1" y2="165.4"/>
		<path class="st1" d="M155.2,160c0.2,0.3,0.3,0.8,0.3,1.6"/>
		<line class="st1" x1="154.6" y1="162.2" x2="154.6" y2="160.2"/>
		<path class="st1" d="M191.9,172.5c-1.1-0.1-1.9-0.5-1.9-1v-1.3"/>
		<g>
			<polyline class="st1" points="203.1,154.5 203.1,153.2 201,154.2 201,160.5 200,160 200,161 			"/>
			<polyline class="st1" points="201.6,160.8 202.6,161.3 202.6,155 204.7,154 204.7,155.4 			"/>
			<polyline class="st1" points="203.1,161.7 204.1,162.2 204.1,155.9 206.2,154.9 206.2,156.2 			"/>
			<polyline class="st1" points="204.6,162.5 205.6,163 205.6,156.7 207.8,155.7 207.8,157.1 			"/>
			<polyline class="st1" points="207.2,162.7 207.2,157.6 209.3,156.5 209.3,158 			"/>
			<polyline class="st1" points="208.7,162.1 208.7,158.4 210.8,157.4 210.8,160.8 			"/>
		</g>
		<g>
			<polyline class="st1" points="203.9,154.3 203.9,152.7 206,151.7 206,153 			"/>
			<polyline class="st1" points="205.5,155.2 205.5,153.5 207.6,152.5 207.6,153.9 			"/>
			<polyline class="st1" points="207,156 207,154.4 209.1,153.4 209.1,154.7 			"/>
			<polyline class="st1" points="208.5,156.9 208.5,155.2 210.7,154.2 210.7,155.6 			"/>
			<polyline class="st1" points="210.1,157.8 210.1,156.1 212.2,155.1 212.2,156.5 			"/>
			<polyline class="st1" points="211.6,160.6 211.6,156.9 213.7,155.9 213.7,159.3 			"/>
		</g>
		<g>
			<polyline class="st1" points="206.8,152.9 206.8,151.2 208.9,150.2 209,151.5 			"/>
			<polyline class="st1" points="208.4,153.7 208.4,152 210.5,151 210.5,152.4 			"/>
			<polyline class="st1" points="209.9,154.6 209.9,152.9 212,151.9 212,153.2 			"/>
			<polyline class="st1" points="211.5,155.4 211.5,153.7 213.6,152.7 213.6,154.1 			"/>
			<polyline class="st1" points="213,156.3 213,154.6 215.1,153.6 215.1,155 			"/>
			<polyline class="st1" points="214.5,159.1 214.5,155.4 216.6,154.4 216.7,157.9 			"/>
		</g>
		<g>
			<polyline class="st1" points="209.7,151.4 209.7,149.7 211.8,148.7 211.8,150.1 			"/>
			<polyline class="st1" points="211.2,152.2 211.2,150.5 213.3,149.5 213.3,150.9 			"/>
			<polyline class="st1" points="212.8,153.1 212.8,151.4 214.9,150.4 214.9,151.7 			"/>
			<polyline class="st1" points="214.3,153.9 214.3,152.2 216.4,151.2 216.4,152.6 			"/>
			<polyline class="st1" points="215.9,154.8 215.9,153.1 218,152.1 218,153.5 			"/>
			<polyline class="st1" points="217.4,157.6 217.4,153.9 219.5,152.9 219.5,156.4 			"/>
		</g>
		<g>
			<polyline class="st1" points="212.4,150 212.4,148.4 214.5,147.3 214.5,148.7 			"/>
			<polyline class="st1" points="214,150.9 214,149.2 216.1,148.2 216.1,149.5 			"/>
			<polyline class="st1" points="215.5,151.7 215.5,150 217.6,149 217.6,150.4 			"/>
			<polyline class="st1" points="217,152.6 217,150.9 219.1,149.9 219.1,151.3 			"/>
			<polyline class="st1" points="218.6,153.4 218.6,151.7 220.7,150.7 220.7,152.2 			"/>
			<polyline class="st1" points="220.1,156.2 220.1,152.6 222.2,151.6 222.2,155 			"/>
		</g>
		<g>
			<polyline class="st1" points="215.2,148.6 215.2,147 217.3,145.9 217.3,147.3 			"/>
			<polyline class="st1" points="216.7,149.5 216.7,147.8 218.8,146.8 218.8,148.2 			"/>
			<polyline class="st1" points="218.3,150.3 218.3,148.7 220.4,147.6 220.4,149 			"/>
			<polyline class="st1" points="219.8,151.2 219.8,149.5 221.9,148.5 221.9,149.9 			"/>
			<polyline class="st1" points="221.4,152 221.4,150.3 223.5,149.3 223.5,150.8 			"/>
			<polyline class="st1" points="222.9,154.8 222.9,151.2 225,150.2 225,153.6 			"/>
		</g>
		<g>
			<polyline class="st1" points="218,147.2 218,145.6 220.1,144.6 220.1,145.9 			"/>
			<polyline class="st1" points="219.5,148.1 219.5,146.4 221.6,145.4 221.6,146.8 			"/>
			<polyline class="st1" points="221.1,148.9 221.1,147.3 223.2,146.2 223.2,147.6 			"/>
			<polyline class="st1" points="222.6,149.8 222.6,148.1 224.7,147.1 224.7,148.5 			"/>
			<polyline class="st1" points="224.1,150.6 224.1,149 226.2,147.9 226.2,149.4 			"/>
			<polyline class="st1" points="225.7,153.5 225.7,149.8 227.8,148.8 227.8,152.2 			"/>
		</g>
		<g>
			<polyline class="st1" points="220.8,145.8 220.8,144.2 222.9,143.2 222.9,144.5 			"/>
			<polyline class="st1" points="222.3,146.7 222.3,145 224.4,144 224.4,145.4 			"/>
			<polyline class="st1" points="223.8,147.5 223.8,145.9 225.9,144.9 225.9,146.2 			"/>
			<polyline class="st1" points="225.4,148.4 225.4,146.7 227.5,145.7 227.5,147.1 			"/>
			<polyline class="st1" points="226.9,149.2 226.9,147.6 229,146.5 229,148 			"/>
			<polyline class="st1" points="228.5,152.1 228.5,148.4 230.6,147.4 230.6,150.8 			"/>
		</g>
		<g>
			<polyline class="st1" points="223.5,144.5 223.5,142.8 225.6,141.8 225.7,143.1 			"/>
			<polyline class="st1" points="225.1,145.3 225.1,143.6 227.2,142.6 227.2,144 			"/>
			<polyline class="st1" points="226.6,146.2 226.6,144.5 228.7,143.5 228.7,144.8 			"/>
			<polyline class="st1" points="228.2,147 228.2,145.3 230.3,144.3 230.3,145.7 			"/>
			<polyline class="st1" points="229.7,147.9 229.7,146.2 231.8,145.2 231.8,146.6 			"/>
			<polyline class="st1" points="231.2,150.7 231.2,147 233.3,146 233.3,149.5 			"/>
		</g>
		<g>
			<polyline class="st1" points="240.4,136 240.4,134.3 242.5,133.3 242.5,134.7 			"/>
			<polyline class="st1" points="241.9,136.8 241.9,135.2 244,134.2 244,135.5 			"/>
			<polyline class="st1" points="243.4,137.7 243.4,136 245.5,135 245.5,136.4 			"/>
			<polyline class="st1" points="245,138.5 245,136.9 247.1,135.8 247.1,137.3 			"/>
			<polyline class="st1" points="246.5,138.7 246.5,137.7 248.6,136.7 248.6,137.8 			"/>
		</g>
		<g>
			<polyline class="st1" points="230.6,142.4 230.6,140.9 232.7,139.9 232.7,141.3 			"/>
			<polyline class="st1" points="232.2,143.3 232.2,141.8 234.3,140.8 234.3,142.2 			"/>
			<polyline class="st1" points="233.7,144.1 233.7,142.6 235.8,141.6 235.8,143.1 			"/>
			<polyline class="st1" points="235.2,145 235.2,143.5 237.3,142.5 237.3,143.6 			"/>
		</g>
		<g>
			<polyline class="st1" points="233.5,140.9 233.5,139.5 235.6,138.5 235.6,139.8 			"/>
			<polyline class="st1" points="235,141.9 235,140.3 237.1,139.3 237.1,140.7 			"/>
			<polyline class="st1" points="236.5,142.7 236.5,141.2 238.6,140.2 238.6,141.6 			"/>
			<polyline class="st1" points="238.1,143.3 238.1,142 240.2,141 240.2,142.2 			"/>
		</g>
		<g>
			<polyline class="st1" points="236.3,139.5 236.3,138.1 238.4,137 238.4,138.4 			"/>
			<polyline class="st1" points="237.8,140.4 237.8,138.9 239.9,137.9 239.9,139.3 			"/>
			<polyline class="st1" points="239.4,141.2 239.4,139.8 241.5,138.7 241.5,140.2 			"/>
			<polyline class="st1" points="240.9,141.8 240.9,140.6 243,139.6 243,140.8 			"/>
		</g>
		<g>
			<polyline class="st1" points="239.1,138.1 239.1,136.6 241.2,135.6 241.2,137 			"/>
			<polyline class="st1" points="240.7,139 240.7,137.5 242.8,136.5 242.8,137.9 			"/>
			<polyline class="st1" points="242.2,139.8 242.2,138.3 244.3,137.3 244.3,138.7 			"/>
			<polyline class="st1" points="243.7,140.4 243.7,139.2 245.9,138.1 245.9,139.3 			"/>
		</g>
		<g>
			<polyline class="st1" points="226.3,143.1 226.3,141.4 228.4,140.4 228.4,141.7 			"/>
			<polyline class="st1" points="227.9,143.9 227.9,142.2 230,141.2 230,142.6 			"/>
			<polyline class="st1" points="229.4,144.8 229.4,143.1 231.5,142.1 231.5,143.4 			"/>
			<polyline class="st1" points="230.9,145.6 230.9,143.9 233,142.9 233.1,144.3 			"/>
			<polyline class="st1" points="232.5,146.5 232.5,144.8 234.6,143.8 234.6,145.2 			"/>
			<polyline class="st1" points="234,148.1 234,145.6 236.1,144.6 			"/>
		</g>
		<polyline class="st1" points="197.5,164 197.8,163.8 198.4,164.1 201.6,162.4 		"/>
		<line class="st1" x1="199.5" y1="166.6" x2="197.9" y2="165.8"/>
		<line class="st1" x1="202" y1="165.4" x2="199" y2="163.8"/>
		<polyline class="st1" points="200,163.2 200,161 205.5,163.7 		"/>
		
			<ellipse transform="matrix(0.2857 -0.9583 0.9583 0.2857 -3.6096 349.7887)" class="st1" cx="232.8" cy="177.3" rx="1.9" ry="1.4"/>
		
			<ellipse transform="matrix(0.2857 -0.9583 0.9583 0.2857 22.4444 362.6631)" class="st1" cx="254.5" cy="166.3" rx="1.9" ry="1.4"/>
		<path class="st3" d="M272,136.2c0.2-0.8,0.8-1.5,1.7-1.7c1.2-0.2,2.3,0.5,2.6,1.6c0.2,0.8-0.1,1.5-0.7,2"/>
		<path class="st3" d="M270.4,135.2c0.2-0.8,0.8-1.5,1.7-1.7c0.8-0.2,1.7,0.1,2.1,0.7"/>
		<path class="st3" d="M268.7,134.2c0.2-0.8,0.8-1.5,1.7-1.7c0.8-0.2,1.7,0.1,2.1,0.7"/>
		<path class="st3" d="M266.9,133.3c0.2-0.8,0.8-1.5,1.7-1.7c0.8-0.2,1.7,0.1,2.1,0.7"/>
		<line class="st3" x1="258.6" y1="132.9" x2="258.6" y2="135.6"/>
		<line class="st3" x1="259.9" y1="132.7" x2="259.9" y2="134.9"/>
		<path class="st4" d="M170.1,119.6c-2.2-0.8-3-4.2-1.7-7.5c1.2-3.3,4-5.3,6.2-4.5c2.2,0.8,3,4.2,1.7,7.5c-0.2,0.5-0.4,1-0.7,1.4"/>
		<path class="st4" d="M168,110.2c1.3-2.3,3.5-3.7,5.3-3.2l1.4,0.6"/>
		<path class="st4" d="M169,119.1"/>
		<path class="st5" d="M173.1,106.9l0.9-0.5c0,0,3.4,0.7,3.7,4.8v4.7"/>
		<path class="st5" d="M164.2,117.8c0,0-0.3-6.4,1.9-7.4l1.3,0.6c0,0,0.4,0.7,0,1.7c-0.4,1-0.5,5.6-0.4,6.4"/>
		<path class="st5" d="M166.2,110.3l0.6-0.3l1.3,0.6c0,0,0.3,0.5,0.2,1.2c-0.1,0.7-1.5,6,0.7,7.3"/>
		<polyline class="st5" points="175.5,117.4 175.4,116.1 174.8,115.9 170.1,118.2 170.8,118.4 170.8,119.4 		"/>
		<g>
			<line class="st6" x1="172.6" y1="111.5" x2="172.7" y2="114.2"/>
			<line class="st6" x1="171.4" y1="113.4" x2="173.9" y2="112.4"/>
		</g>
		
			<ellipse transform="matrix(0.9011 -0.4336 0.4336 0.9011 -31.7656 103.7239)" class="st6" cx="211.5" cy="121.5" rx="1.4" ry="1.9"/>
		<g>
			<path class="st7" d="M237.8,167.6l-0.2-3.3l0.8-0.4c0.3-0.1,0.5-0.2,0.6-0.2c0.1,0,0.3,0,0.4,0.2c0.1,0.1,0.2,0.3,0.2,0.6
				c0,0.2,0,0.4,0,0.6c0,0.2-0.1,0.3-0.2,0.4s-0.2,0.2-0.2,0.3c-0.1,0.1-0.3,0.2-0.5,0.3l-0.3,0.2l0.1,1.3L237.8,167.6z
				 M238.1,164.5l0.1,0.9l0.3-0.1c0.2-0.1,0.3-0.2,0.4-0.2c0.1-0.1,0.1-0.1,0.1-0.2s0-0.2,0-0.3c0-0.1,0-0.2-0.1-0.3
				c-0.1-0.1-0.1-0.1-0.2-0.1c-0.1,0-0.2,0.1-0.4,0.1L238.1,164.5z"/>
			<path class="st7" d="M239.7,163.2l0.5-0.2l0.1,1.8c0,0.3,0,0.5,0.1,0.6c0,0.1,0.1,0.2,0.2,0.3c0.1,0,0.2,0,0.3,0
				c0.1-0.1,0.2-0.2,0.3-0.3c0.1-0.1,0.1-0.2,0.1-0.4s0-0.3,0-0.6l-0.1-1.8l0.5-0.2l0.1,1.8c0,0.4,0,0.7,0,0.9
				c0,0.2-0.1,0.3-0.1,0.5c-0.1,0.1-0.2,0.3-0.3,0.4c-0.1,0.1-0.3,0.2-0.5,0.3c-0.2,0.1-0.4,0.2-0.5,0.1c-0.1,0-0.2-0.1-0.3-0.1
				c-0.1-0.1-0.1-0.2-0.2-0.3c0-0.2-0.1-0.5-0.1-0.8L239.7,163.2z"/>
			<path class="st7" d="M242,164.4l0.5-0.3c0,0.2,0.1,0.3,0.2,0.4c0.1,0.1,0.2,0.1,0.4,0c0.2-0.1,0.3-0.2,0.4-0.3
				c0.1-0.1,0.1-0.3,0.1-0.4c0-0.1,0-0.1-0.1-0.2c0,0-0.1-0.1-0.2-0.1c-0.1,0-0.2,0-0.4,0c-0.3,0-0.5,0-0.6-0.1
				c-0.2-0.1-0.3-0.3-0.3-0.6c0-0.2,0-0.3,0.1-0.5c0.1-0.2,0.2-0.3,0.3-0.5c0.1-0.1,0.3-0.3,0.5-0.3c0.3-0.2,0.5-0.2,0.7-0.1
				c0.2,0.1,0.3,0.3,0.3,0.6l-0.5,0.3c0-0.2-0.1-0.3-0.2-0.3c-0.1,0-0.2,0-0.3,0c-0.1,0.1-0.3,0.2-0.3,0.3c0,0.1-0.1,0.2-0.1,0.2
				c0,0.1,0,0.1,0.1,0.2c0.1,0,0.2,0,0.5,0c0.2,0,0.4,0,0.6,0c0.1,0,0.2,0.1,0.3,0.2c0.1,0.1,0.1,0.3,0.1,0.5c0,0.2,0,0.4-0.1,0.6
				c-0.1,0.2-0.2,0.4-0.3,0.5c-0.1,0.2-0.3,0.3-0.5,0.4c-0.3,0.2-0.6,0.2-0.7,0.1C242.2,165,242.1,164.7,242,164.4z"/>
			<path class="st7" d="M244.3,164.4l-0.2-3.3l0.5-0.2l0.1,1.3l1-0.5l-0.1-1.3l0.5-0.2l0.2,3.3l-0.5,0.2l-0.1-1.5l-1,0.5l0.1,1.5
				L244.3,164.4z"/>
		</g>
	</g>
	<g>
		<g>
			<path class="st8" d="M140.9,213.6l-32.8-16.4c0,0-0.7,0.1-0.7-2.2c0-2.2,0-13.6,0-13.6s0.1-1.6,1.5-1.3l3.2,1.6v-1l42.3,21.1
				c0,0,1,0.5,1,1.5v1.8"/>
			<path class="st8" d="M148.4,208.5l-4.9-2.4c0,0-0.5-0.3-0.5,0.8c0.1,1.4,0,5.5,0,5.5"/>
			<g>
				<polygon class="st9" points="141.3,212.6 132.5,208.2 132.5,200.6 141.3,205 				"/>
				<polygon class="st9" points="119.3,199.1 110.6,194.7 110.6,189 119.3,193.4 				"/>
				<polygon class="st9" points="129.5,204.6 122.5,201.1 122.5,195.7 129.5,199.2 				"/>
				<g>
					<polyline class="st9" points="135.2,207.5 133.6,206.7 133.6,202.2 140.1,205.5 140.1,210 138.5,209.2 					"/>
					<polyline class="st9" points="138.5,209.2 138.5,210.1 135.2,208.5 135.2,207.5 					"/>
				</g>
			</g>
			<polygon class="st10" points="118.4,197.1 112.1,194 112.1,190.9 118.4,193.9 			"/>
			<path class="st9" d="M124.4,197.7l3.4,1.7c0,0,0.9,0.5,0.8,1.4c-0.1,0.9-0.2,1-0.9,1s-3.2-1.5-3.2-1.5s-0.8-0.8-0.8-1.6
				C123.6,197.7,124.4,197.7,124.4,197.7z"/>
			<polyline class="st10" points="150.2,207.9 124.1,194.9 124.1,189.5 150.8,202.8 150.8,207.6 			"/>
			<polyline class="st10" points="124.2,189.5 125.4,188.9 152,202.1 152,206.8 			"/>
			<line class="st10" x1="124.1" y1="194.9" x2="129.3" y2="192.3"/>
			<polyline class="st10" points="130.7,192.9 130.7,198.2 135.6,195.5 			"/>
			<polyline class="st10" points="137.4,196.2 137.4,201.4 142.5,198.8 			"/>
			<polyline class="st10" points="144,199.5 144,204.7 149.1,202.1 			"/>
			<line class="st10" x1="150.8" y1="202.8" x2="152" y2="202.1"/>
			<path class="st9" d="M159.4,200.4c0,0,0.1-0.8-0.7-1.1l-3,1.7l-43.1-21.4c-1.6,0.3-1.6,1.6-1.6,1.6"/>
			<path class="st9" d="M114.8,178.2c0,0-1.9-0.9-2.7-1.4c-0.6-0.3-1.2-0.1-1.2-0.1s-1.1,0.6-2.1,1c-0.2,0.1-0.4,0.2-0.6,0.3
				c-0.6,0.4-0.6,1.1-0.6,1.1v1.5"/>
			<line class="st9" x1="111.3" y1="180" x2="108.1" y2="178.3"/>
			<path class="st9" d="M112.7,179.6l2.5-1.2c0,0,0.5-0.2,1,0c0.2,0.1,7.2,3.6,15.4,7.7c12,6,27.2,13.3,27.2,13.3l14.3-7.7"/>
			<polyline class="st9" points="131.6,186.1 146.5,178.4 173.1,191.7 173.2,195 			"/>
			<path class="st9" d="M176.3,193.5v-3.6l8.8-4.4c0,0,1-0.5,1.8-0.1c0.8,0.4,2.6,1.4,2.6,1.4"/>
			<g>
				<ellipse class="st8" cx="130.8" cy="171.9" rx="3.7" ry="1.9"/>
				<path class="st8" d="M134.5,175.5c0,1.1-1.6,1.9-3.7,1.9s-3.7-0.9-3.7-1.9"/>
				<path class="st8" d="M127.2,171.9v4.9c0,1.1,1.6,1.9,3.7,1.9s3.7-0.9,3.7-1.9v-4.7"/>
				<line class="st9" x1="129.5" y1="171" x2="131.9" y2="172.3"/>
				<line class="st9" x1="129.2" y1="172.4" x2="132.1" y2="170.9"/>
			</g>
			<g>
				<ellipse class="st8" cx="192.4" cy="158.5" rx="3.7" ry="1.9"/>
				<path class="st8" d="M196.1,162.2c0,1.1-1.6,1.9-3.7,1.9s-3.7-0.9-3.7-1.9"/>
				<path class="st8" d="M188.8,158.5v4.9c0,1.1,1.6,1.9,3.7,1.9s3.7-0.9,3.7-1.9v-4.7"/>
				<line class="st9" x1="191.1" y1="157.7" x2="193.6" y2="159"/>
				<line class="st9" x1="190.9" y1="159.1" x2="193.7" y2="157.6"/>
			</g>
			<g>
				<ellipse class="st8" cx="195.1" cy="180.1" rx="3.7" ry="1.9"/>
				<line class="st8" x1="198.8" y1="182.1" x2="198.8" y2="180.3"/>
				<line class="st8" x1="191.5" y1="180.1" x2="191.5" y2="185.6"/>
				<line class="st9" x1="193.8" y1="179.2" x2="196.3" y2="180.5"/>
				<line class="st9" x1="193.6" y1="180.6" x2="196.4" y2="179.1"/>
			</g>
			<path class="st8" d="M161.3,159.4l11.8-5.9c0,0,1.2-0.8,2.3-0.3c1,0.5,13.3,6.8,13.3,6.8"/>
			<line class="st8" x1="134.8" y1="172.3" x2="143.2" y2="168.2"/>
			<ellipse class="st1" cx="140.8" cy="171.8" rx="2.1" ry="1.1"/>
			<path class="st11" d="M142.2,173.4c0.1,0.1,0.1,0.2,0.2,0.3c0.1,0.4-0.5,0.8-1.4,1s-1.5-0.1-1.6-0.6c0-0.2,0.1-0.4,0.3-0.6"/>
			<path class="st11" d="M142,174.4c0.2,0.1,0.3,0.2,0.4,0.4c0.1,0.4-0.5,0.8-1.4,1s-1.5-0.1-1.6-0.6c0-0.2,0.2-0.5,0.5-0.7"/>
			<path class="st1" d="M138.7,171.9v0.8c0,0.6,0.9,1.1,2.1,1.1s2.1-0.5,2.1-1.1v-0.9"/>
			<path class="st9" d="M183.9,171.8l14-7c0,0,0.2-0.5-0.3-0.7c-0.4-0.2-1.3-0.6-1.3-0.6"/>
			<ellipse class="st9" cx="182.4" cy="172.7" rx="1.9" ry="0.9"/>
			<path class="st12" d="M183.6,176.1c0.2,0.1,0.2,0.2,0.2,0.4c0,0.3-0.6,0.6-1.4,0.6"/>
			<path class="st9" d="M182.4,174.7c1.1,0,1.9-0.4,1.9-0.9v-1.1"/>
			<path class="st13" d="M183.6,174.5c0.1,0.1,0.2,0.2,0.2,0.3c0,0.3-0.6,0.7-1.3,0.8"/>
			<path class="st13" d="M183.5,175.3c0.2,0.1,0.3,0.2,0.4,0.3c0,0.3-0.6,0.7-1.3,0.8"/>
			<line class="st13" x1="184.6" y1="173" x2="192.1" y2="169"/>
			<line class="st13" x1="197.9" y1="164.8" x2="197.9" y2="165.9"/>
			<polyline class="st13" points="165.5,187.6 186,177.3 186,176.4 183.8,175.3 			"/>
			<line class="st13" x1="182.5" y1="178.1" x2="186" y2="176.4"/>
			<g>
				<polyline class="st14" points="159.8,185.1 159.8,182.4 162.3,181.2 162.3,183.6 				"/>
				<polyline class="st14" points="157.4,183.9 157.4,181.3 159.8,180.1 159.8,182.5 				"/>
				<polyline class="st14" points="154.8,182.6 154.8,180 157.3,178.8 157.3,181.2 				"/>
				<polyline class="st14" points="152.3,181.3 152.3,178.7 154.7,177.5 154.8,179.9 				"/>
				<polyline class="st14" points="149.8,180.1 149.8,177.5 152.3,176.3 152.3,178.6 				"/>
				<polyline class="st14" points="147.2,178.8 147.2,176.1 149.6,175 149.7,177.3 				"/>
				<polyline class="st14" points="144.7,179.1 144.7,174.9 147.2,173.7 147.2,176.1 				"/>
				<polyline class="st14" points="144.8,174.7 144.8,172.3 142.4,173.5 142.4,177.7 141.6,177.3 				"/>
				<polyline class="st15" points="162.3,186.3 162.3,183.7 164.8,182.5 164.8,187.4 				"/>
				<polyline class="st15" points="168.3,185.2 168.3,180.8 165.8,182 165.8,186 166.3,186.2 165,186.9 				"/>
				<polyline class="st15" points="165.9,181.8 165.9,179.5 163.3,180.7 163.3,183.2 				"/>
				<polyline class="st15" points="169.3,180.1 169.3,177.7 166.8,179 166.8,181.5 				"/>
				<polyline class="st15" points="172.8,178.3 172.8,175.9 170.3,177.2 170.3,179.7 				"/>
				<polyline class="st15" points="176.3,176.6 176.3,174.2 173.8,175.5 173.8,178 				"/>
				<polyline class="st15" points="179.8,174.9 179.8,172.5 177.3,173.7 177.3,176.2 				"/>
				<g>
					<polyline class="st15" points="163.3,180.6 163.3,178.2 160.8,179.4 160.8,181.9 					"/>
					<polyline class="st15" points="166.8,178.8 166.8,176.5 164.3,177.7 164.3,180.2 					"/>
					<polyline class="st15" points="170.3,177.1 170.3,174.7 167.8,175.9 167.8,178.4 					"/>
					<polyline class="st15" points="173.8,175.4 173.8,173 171.3,174.2 171.3,176.7 					"/>
					<polyline class="st15" points="177.3,173.6 177.3,171.3 174.8,172.5 174.8,175 					"/>
					<polyline class="st15" points="180.8,171.9 180.8,169.5 178.3,170.7 178.3,173.2 					"/>
				</g>
				<polyline class="st15" points="171.8,183.4 171.8,179 169.3,180.3 169.3,184.2 169.9,184.5 168.6,185.2 				"/>
				<polyline class="st15" points="175.4,181.7 175.4,177.3 172.8,178.5 172.8,182.4 173.4,182.7 172.1,183.4 				"/>
				<polyline class="st15" points="178.9,179.9 178.8,175.5 176.3,176.7 176.3,180.7 176.9,180.9 175.6,181.6 				"/>
				<polyline class="st15" points="182.3,178.2 182.3,173.8 179.8,175 179.8,179 180.3,179.2 179,179.9 				"/>
			</g>
			<g>
				<polyline class="st15" points="160.9,179.2 160.9,176.8 158.3,178.1 158.3,180.6 				"/>
				<polyline class="st15" points="164.3,177.5 164.3,175.1 161.8,176.3 161.8,178.8 				"/>
				<polyline class="st15" points="167.9,175.7 167.9,173.3 165.4,174.5 165.4,177.1 				"/>
				<polyline class="st15" points="171.4,174 171.4,171.6 168.9,172.8 168.9,175.3 				"/>
				<polyline class="st15" points="174.9,172.3 174.9,169.9 172.3,171.1 172.3,173.6 				"/>
				<polyline class="st15" points="178.4,170.5 178.4,168.1 175.9,169.3 175.9,171.8 				"/>
			</g>
			<g>
				<polyline class="st15" points="158.3,178 158.3,175.6 155.8,176.8 155.8,179.3 				"/>
				<polyline class="st15" points="161.8,176.2 161.8,173.9 159.2,175.1 159.2,177.6 				"/>
				<polyline class="st15" points="165.3,174.4 165.3,172.1 162.8,173.3 162.8,175.8 				"/>
				<polyline class="st15" points="168.8,172.7 168.8,170.4 166.3,171.6 166.3,174.1 				"/>
				<polyline class="st15" points="172.3,171 172.3,168.7 169.8,169.9 169.8,172.4 				"/>
				<polyline class="st15" points="175.8,169.2 175.8,166.9 173.3,168.1 173.3,170.6 				"/>
			</g>
			<g>
				<polyline class="st15" points="155.8,176.9 155.8,174.5 153.2,175.8 153.2,178.3 				"/>
				<polyline class="st15" points="159.2,175.2 159.2,172.8 156.7,174 156.7,176.5 				"/>
				<polyline class="st15" points="162.8,173.4 162.8,171 160.3,172.2 160.3,174.7 				"/>
				<polyline class="st15" points="166.3,171.7 166.3,169.3 163.7,170.5 163.7,173 				"/>
				<polyline class="st15" points="169.8,169.9 169.7,167.6 167.2,168.8 167.2,171.3 				"/>
				<polyline class="st15" points="173.3,168.2 173.3,165.8 170.7,167 170.7,169.5 				"/>
			</g>
			<g>
				<polyline class="st15" points="153.3,175.5 153.3,173.2 150.7,174.4 150.7,176.9 				"/>
				<polyline class="st15" points="156.7,173.8 156.7,171.4 154.2,172.6 154.2,175.1 				"/>
				<polyline class="st15" points="160.3,172 160.3,169.6 157.8,170.9 157.8,173.4 				"/>
				<polyline class="st15" points="163.8,170.3 163.8,167.9 161.3,169.2 161.3,171.7 				"/>
				<polyline class="st15" points="167.3,168.6 167.3,166.2 164.7,167.4 164.7,169.9 				"/>
				<polyline class="st15" points="170.8,166.8 170.8,164.4 168.3,165.6 168.3,168.2 				"/>
			</g>
			<g>
				<polyline class="st15" points="150.7,174.3 150.7,171.9 148.2,173.1 148.2,175.6 				"/>
				<polyline class="st15" points="154.2,172.5 154.2,170.2 151.6,171.4 151.6,173.9 				"/>
				<polyline class="st15" points="157.7,170.8 157.7,168.4 155.2,169.6 155.2,172.1 				"/>
				<polyline class="st15" points="161.2,169.1 161.2,166.7 158.7,167.9 158.7,170.4 				"/>
				<polyline class="st15" points="164.7,167.3 164.7,165 162.2,166.2 162.2,168.7 				"/>
				<polyline class="st15" points="168.2,165.5 168.2,163.2 165.7,164.4 165.7,166.9 				"/>
			</g>
			<g>
				<polyline class="st15" points="148.3,173 148.2,170.7 145.7,171.9 145.7,174.4 				"/>
				<polyline class="st15" points="151.7,171.3 151.7,168.9 149.2,170.2 149.2,172.7 				"/>
				<polyline class="st15" points="155.3,169.5 155.3,167.2 152.7,168.4 152.7,170.9 				"/>
				<polyline class="st15" points="158.8,167.8 158.8,165.5 156.2,166.7 156.2,169.2 				"/>
				<polyline class="st15" points="162.2,166.1 162.2,163.7 159.7,164.9 159.7,167.4 				"/>
				<polyline class="st15" points="165.8,164.3 165.7,161.9 163.2,163.2 163.2,165.7 				"/>
			</g>
			<g>
				<polyline class="st15" points="145.8,171.6 145.8,169.3 143.2,170.5 143.2,173 				"/>
				<polyline class="st15" points="149.2,169.9 149.2,167.6 146.7,168.8 146.7,171.3 				"/>
				<polyline class="st15" points="152.8,168.1 152.8,165.8 150.3,167 150.3,169.5 				"/>
				<polyline class="st15" points="156.3,166.4 156.3,164.1 153.7,165.3 153.7,167.8 				"/>
				<polyline class="st15" points="159.8,164.7 159.7,162.3 157.2,163.6 157.2,166.1 				"/>
				<polyline class="st15" points="163.3,162.9 163.3,160.6 160.7,161.8 160.7,164.3 				"/>
			</g>
			<g>
				<polyline class="st15" points="146.7,168.6 146.7,166.3 144.2,167.5 144.2,170 				"/>
				<polyline class="st15" points="150.2,166.8 150.2,164.5 147.7,165.7 147.7,168.2 				"/>
				<polyline class="st15" points="153.7,165.1 153.7,162.8 151.2,164 151.2,166.5 				"/>
				<polyline class="st15" points="157.2,163.4 157.2,161.1 154.7,162.3 154.7,164.8 				"/>
				<polyline class="st15" points="160.7,161.6 160.7,159.3 158.2,160.5 158.2,163 				"/>
			</g>
			<polyline class="st15" points="144,179.6 136.9,176.2 136.9,175.2 139.1,174.1 			"/>
			<polyline class="st15" points="137.3,175.4 140.7,177 142.4,176.1 			"/>
			<line class="st15" x1="185.1" y1="178" x2="191.3" y2="181.1"/>
		</g>
		<ellipse class="st16" cx="116" cy="179.7" rx="1.1" ry="0.5"/>
		<ellipse class="st17" cx="155.5" cy="199.3" rx="1" ry="0.5"/>
	</g>
	<line class="st9" x1="156.1" y1="204.7" x2="155.9" y2="201"/>
</g>
<line class="st18" x1="237.7" y1="90.5" x2="223.8" y2="145.9"/>
<line class="st19" x1="237.7" y1="90.5" x2="223.8" y2="145.9"/>
<line class="st20" x1="203.2" y1="68.6" x2="214.7" y2="80.4"/>
<g>
	<g>
		<g>
			<g>
				<polyline class="st1" points="334.7,25.7 344.7,31 344.6,32.9 342,34.6 341.9,40 				"/>
				<polyline class="st1" points="335.7,36.5 341.9,40 348.9,36.7 348.7,29.1 335,22.1 				"/>
				<line class="st1" x1="348.7" y1="29.1" x2="344.7" y2="31"/>
			</g>
		</g>
	</g>
	<line class="st1" x1="334.8" y1="27.7" x2="344.6" y2="32.9"/>
	<line class="st1" x1="342" y1="34.6" x2="334.8" y2="30.6"/>
</g>
<g>
	<path class="st21" d="M213.9,83l2.5-1.2c0,0,0.7-0.4,1.5-0.1c0,0,0.6,0.2,0.8,0.4c0,0,0.4,0.1,0.6,0"/>
	<path class="st21" d="M220,86.3l-6.8-3.4c0,0-0.5-0.1-0.7,0.4s-0.2,0.7-0.2,0.7l0,0.8c0,0,0,0.5,0.4,0.7c0.4,0.2,2.9,1.7,6.5,3.2"
		/>
	<path class="st21" d="M223.8,84.8c0,0,0.1,1,0.1,1.5c0,0.4-0.4,0.6-0.4,0.6s-3,1.5-3.3,1.7c-0.3,0.2-0.5,0.2-0.5,0.2
		c-0.5,0-0.4-0.4-0.4-0.4v-1.1c0-0.5,0.3-0.8,0.3-0.8c0.5-0.5,0.8,0,0.8,0s0.1,0.2,0.4,0.1c0.3-0.1,2.8-1.4,2.8-1.4s0.4-0.4-0.1-0.8
		"/>
	<path class="st21" d="M223.7,84.7l2.7-2.8c0,0,0.3-0.3,0.8-0.5c0.5-0.2,1.1-1.2,0.7-2"/>
	<path class="st21" d="M226.2,78.2c0,0,0.9,0.3,0.7,0.8c0,0-0.1,0.2-0.8,0.5c-0.6,0.3-1.1,0.5-1.3,0.5c-0.2,0.1-0.5,0.2-0.5,0.2
		l-1.2-0.6c-0.1-0.3,0.4-0.8,0.4-0.8"/>
	<path class="st21" d="M221.5,84.3c0,0,1.2-0.6,2.3-1.8l0.5-2.1"/>
	<line class="st21" x1="226.6" y1="79.3" x2="227.2" y2="80.4"/>
	<path class="st1" d="M223.8,82.4c0,0,0.8-0.5,1-0.7l0.5-0.4c2.1-0.9,2.4-1.3,2.4-1.3c0.5-0.5-0.2-1-0.2-1l-1-0.7c-1.2-0.4-2,0-2,0
		l-1.2,0.6c-2.2,1-3,2.3-3,2.3c-0.8,1-1.8,1.4-1.8,1.4l3.1,1.6l0.9-0.2c0.4,0,1.2,0.6,1.2,0.6c0.3,0.4-0.1,0.5-0.1,0.5"/>
	<path class="st1" d="M216.2,89l-1.5,0.8c0,0-1.9,1.2,0.5,2.4s4.4,0,4.4,0l5.8-2.9c0,0,0.5-0.2,0.5-0.8v-0.8c0,0-1.6,0.8-2.7,0.8
		c-1,0-1.9-0.5-1.9-0.5"/>
	<line class="st1" x1="218" y1="88.1" x2="217" y2="88.6"/>
	<path class="st1" d="M214.7,89.8c0,0-1.4,0.6-0.9,2.1c0,0,1.5,1.3,4.2,1.8c0,0,1,0,2.3-0.7c1.3-0.6,7.9-4,7.9-4s0.6-0.2,0.6-1.5
		s0-4.9,0-4.9"/>
	<path class="st1" d="M227.2,81.1"/>
	<path class="st1" d="M227.8,80.9c0.4,0.2,1.4,0.9,0.9,2c0,0-0.3,0.7-1.4,1l-1.1-0.5v-1"/>
	<line class="st1" x1="224.2" y1="84.2" x2="227" y2="85.6"/>
	<path class="st1" d="M227.5,81.5c0,0.3,0,0.8,0,0.8s-0.1,0.4-0.5,0.6c-0.4,0.2-0.8,0.5-0.8,0.5"/>
	<path class="st1" d="M227.1,83.8l0,1.7c0,0,0.1,0.3-0.3,0.5s-2.2,1.2-3.7,1.3l-0.2-0.1"/>
	<ellipse class="st22" cx="217.3" cy="89.4" rx="1.3" ry="0.6"/>
	<path class="st1" d="M215.9,89.6v1.3c0,0.4,0.6,0.7,1.4,0.7c0.7,0,1.4-0.3,1.4-0.7v-1.4"/>
	<path class="st1" d="M222.5,91.9v0.9c0,0,0.1,1.1,2.2,1.2l0,0v-0.4c0-0.4,0.6-0.3,0.6-0.3c2.6-0.2,2.3-1.5,2.3-1.5v-2.5"/>
	<path class="st1" d="M224.6,92.9"/>
	<path class="st1" d="M224.8,94c0,0,1.5,1,3.2,0.1c0,0,0.5-0.3,0.6-0.7c0.1-0.4,0-0.6,0-0.7c0-0.1-0.1-0.5-0.8-0.8"/>
	<path class="st1" d="M228.8,87c0,0,1.1-0.8,2.5-0.6c0,0,0.4,0.2,0.5-0.1c0.1-0.3,0.2-0.4,0.2-0.4s0-0.3-0.2-0.4
		c-0.3,0-1.3-0.2-2.6,0.4c0,0-0.3,0.1-0.3-0.1"/>
	<path class="st1" d="M228.8,84.1c0,0,1.5,0.6,3,1.4"/>
	<path class="st1" d="M226.1,82.4"/>
</g>
<path class="st23" d="M335.6,28.4"/>
<g>
	<g>
		<defs>
			<circle id="SVGID_1_" cx="165.3" cy="44.5" r="40.6"/>
		</defs>
		<clipPath id="SVGID_00000181804151741700906980000004386386532472916156_">
			<use xlink:href="#SVGID_1_"  style="overflow:visible;"/>
		</clipPath>
		<g style="clip-path:url(#SVGID_00000181804151741700906980000004386386532472916156_);">
			<path class="st21" d="M148,62.9l3.5-1.7c0,0,1-0.5,2.1-0.1c0,0,0.8,0.3,1.1,0.5c0,0,0.5,0.2,0.8,0.1"/>
			<path class="st21" d="M156.5,67.4l-9.5-4.8c0,0-0.7-0.1-1,0.6s-0.2,0.9-0.2,0.9l0,1.1c0,0,0,0.7,0.5,1c0.6,0.3,4.1,2.4,9,4.5"/>
			<path class="st21" d="M161.7,65.4c0,0,0.1,1.4,0.1,2c0,0.6-0.6,0.9-0.6,0.9s-4.2,2.1-4.7,2.4s-0.7,0.3-0.7,0.3
				c-0.6-0.1-0.5-0.6-0.5-0.6v-1.5c0-0.7,0.4-1.1,0.4-1.1c0.7-0.7,1.1,0,1.1,0s0.1,0.3,0.5,0.1s3.9-1.9,3.9-1.9s0.6-0.5-0.2-1.1"/>
			<path class="st21" d="M161.6,65.1l3.7-3.9c0,0,0.4-0.4,1.1-0.7c0.8-0.3,1.5-1.7,1-2.8"/>
			<path class="st21" d="M165.2,56.1c0,0,1.2,0.4,0.9,1.2c0,0-0.2,0.3-1.1,0.7c-0.9,0.4-1.5,0.7-1.8,0.7c-0.3,0.1-0.8,0.3-0.8,0.3
				l-1.7-0.8c-0.1-0.4,0.5-1.1,0.5-1.1"/>
			<path class="st21" d="M158.6,64.6c0,0,1.6-0.8,3.2-2.5l0.7-3"/>
			<line class="st21" x1="165.7" y1="57.7" x2="166.5" y2="59.1"/>
			<path class="st1" d="M161.8,62c0,0,1.1-0.7,1.4-1l0.8-0.5c2.9-1.3,3.4-1.9,3.4-1.9c0.7-0.8-0.3-1.5-0.3-1.5l-1.4-0.9
				c-1.6-0.6-2.8,0.1-2.8,0.1l-1.7,0.9c-3,1.5-4.2,3.2-4.2,3.2c-1.2,1.4-2.5,2-2.5,2l4.3,2.2l1.3-0.3c0.5,0.1,1.7,0.9,1.7,0.9
				c0.4,0.6-0.1,0.7-0.1,0.7"/>
			<path class="st1" d="M151.2,71.2l-2.1,1.1c0,0-2.6,1.7,0.7,3.3c3.3,1.6,6.2,0,6.2,0l8-4c0,0,0.7-0.3,0.7-1.2v-1.1
				c0,0-2.3,1.1-3.7,1.2c-1.5,0-2.6-0.7-2.6-0.7"/>
			<line class="st1" x1="153.6" y1="70" x2="152.2" y2="70.7"/>
			<path class="st1" d="M149,72.3c0,0-1.9,0.9-1.3,3c0,0,2.1,1.9,5.8,2.5c0,0,1.4-0.1,3.2-0.9c1.8-0.9,11.1-5.6,11.1-5.6
				s0.9-0.3,0.9-2.1s0.1-6.8,0.1-6.8"/>
			<path class="st1" d="M166.5,60.1"/>
			<path class="st1" d="M167.3,59.9c0.6,0.3,2,1.3,1.2,2.8c0,0-0.4,1-2,1.4l-1.5-0.7V62"/>
			<line class="st1" x1="162.3" y1="64.4" x2="166.2" y2="66.4"/>
			<path class="st1" d="M166.9,60.7c0,0.4,0,1.1,0,1.1s-0.1,0.6-0.7,0.9c-0.6,0.3-1.1,0.7-1.1,0.7"/>
			<path class="st1" d="M166.3,64l0,2.3c0,0,0.1,0.4-0.4,0.6s-3,1.7-5.2,1.8l-0.3-0.1"/>
			<ellipse class="st1" cx="152.7" cy="71.7" rx="1.8" ry="0.9"/>
			<path class="st1" d="M150.7,72v1.9c0,0.5,0.8,0.9,1.9,0.9s1.9-0.4,1.9-0.9v-2"/>
			<path class="st1" d="M159.9,75.3v1.2c0,0,0.2,1.6,3.1,1.7l0.1,0v-0.6c0-0.5,0.9-0.5,0.9-0.5c3.7-0.3,3.2-2,3.2-2v-3.5"/>
			<path class="st1" d="M162.9,76.6"/>
			<path class="st1" d="M163.1,78.2c0,0,2.1,1.4,4.5,0.1c0,0,0.7-0.4,0.8-1c0.1-0.6,0-0.8,0-1s-0.2-0.7-1.1-1.1"/>
			<path class="st1" d="M168.7,68.4c0,0,1.5-1.1,3.4-0.9c0,0,0.5,0.2,0.7-0.1s0.2-0.5,0.2-0.5s0-0.4-0.3-0.5c-0.4,0-1.8-0.2-3.6,0.6
				c0,0-0.4,0.2-0.5-0.1"/>
			<path class="st1" d="M168.7,64.3c0,0,2.1,0.8,4.2,2"/>
			<path class="st1" d="M165,62"/>
		</g>
		<g style="clip-path:url(#SVGID_00000181804151741700906980000004386386532472916156_);">
			<g>
				<polyline class="st25" points="178.7,49.9 172.5,52.2 145.2,34.3 				"/>
				<g>
					<path class="st1" d="M178.2,53.6l37.4-13.1l0.4-3.3c0,0,0.8-2,3.1-2.6c2.4-0.6,12-4.1,12-4.1s2.4-0.9,2.1,1.7s-0.4,1.8-0.4,1.8
						l27.2-9.5c0,0,0.9-0.2,1.1-2.4s1.3-2.9,2.4-3.3c1-0.4,13.4-4.9,13.4-4.9s1.7-0.2,1.5,1.5c-0.2,1.7-0.3,2.3-0.3,2.3l37.6-13.5
						l1.2-10.3c0,0-0.3-2.9-3-1.8c-2.7,1-4.4,2.9-4.8,5.2l-0.2,2.1l-1.3,0.5l1.3-11.3c0,0-0.5-2-2.2-1.5S288-6.1,288-6.1
						s-2.5,1.3-2.8,3.7s-1.3,10.7-1.3,10.7L282.6,9l0.4-3.3c0,0-0.6-2.3-2.5-1.5c-1.9,0.8-63.7,23.1-63.7,23.1s-1.8,0.5-2.8,2.8
						l-0.4,3.7l-1.8,0.7l1.3-11.1c0,0-0.3-2.4-2.1-1.8S193.1,28,193.1,28s-2.9,1.1-3.4,3.5l-0.5,4.4l-0.8,6.9l-1.4,0.5l0.4-3.1
						c0,0-0.5-2.1-2.6-1.2c0,0-3.3,0.2-4.8,3.2L178.2,53.6z"/>
					<polyline class="st1" points="189.1,35.9 179.2,39.6 152.1,21.9 152.1,21.9 162.7,18.3 					"/>
					<polyline class="st1" points="152.1,21.9 151.4,28 178.5,45.4 179.2,39.6 					"/>
					<polyline class="st1" points="153.6,29.6 145.2,32.5 145.2,33.9 					"/>
					<polygon class="st1" points="287.7,6.4 304.4,0.5 305.6,-9.7 289.1,-3.7 					"/>
					<polygon class="st1" points="191.7,41.1 208.4,35.2 209.7,25 193.1,31 					"/>
					<path class="st1" d="M172.1,6.1l-8,3c0,0-3,1.3-3.3,4.4c-0.4,3.1-0.5,5.4-0.5,5.4"/>
					<polyline class="st1" points="171.6,12.8 173.1,-0.1 178.1,-2.1 179.2,-0.8 179,1.4 					"/>
					<polyline class="st1" points="175.9,15.6 177.5,2.7 182.4,0.7 183.5,1.9 183.3,4.2 					"/>
					<polyline class="st1" points="180.1,18.3 181.6,5.4 186.6,3.4 187.7,4.6 187.4,6.9 					"/>
					<polyline class="st1" points="184.2,20.9 185.8,8.1 190.7,6.1 191.8,7.3 191.6,9.5 					"/>
					<polyline class="st1" points="188.4,23.6 189.9,10.7 194.9,8.7 196,9.9 195.7,12.6 					"/>
					<polyline class="st1" points="192.5,28 194.2,13.6 199.2,11.6 200.3,12.8 198.8,25.5 					"/>
					<g>
						<polyline class="st1" points="185.1,4 185.7,-0.3 190.6,-2.3 191.7,-1.1 191.5,1.2 						"/>
						<polyline class="st1" points="189.3,6.7 189.8,2.3 194.8,0.3 195.9,1.5 195.6,3.8 						"/>
						<polyline class="st1" points="193.5,9.2 194,4.9 198.9,2.9 200,4.1 199.7,6.9 						"/>
						<polyline class="st1" points="197.8,12.2 198.3,7.9 203.2,5.9 204.3,7.1 202.3,24.2 						"/>
					</g>
					<g>
						<polyline class="st1" points="193.5,1 194,-3.3 198.9,-5.3 200,-4.1 199.8,-1.8 						"/>
						<polyline class="st1" points="197.6,3.7 198.1,-0.6 203.1,-2.6 204.2,-1.4 203.9,0.9 						"/>
						<polyline class="st1" points="201.8,6.2 202.3,2 207.2,0 208.4,1.2 208,3.9 						"/>
						<polyline class="st1" points="204.4,23.4 206.6,4.9 211.5,2.9 212.7,4.1 210.6,21.3 						"/>
					</g>
					<g>
						<polyline class="st1" points="201.6,-2 202.1,-6.3 207.1,-8.3 208.2,-7.1 207.9,-4.8 						"/>
						<polyline class="st1" points="205.7,0.7 206.3,-3.6 211.2,-5.6 212.3,-4.4 212.1,-2.1 						"/>
						<polyline class="st1" points="209.9,3.2 210.4,-1 215.4,-3 216.5,-1.8 216.2,0.9 						"/>
						<polyline class="st1" points="218.8,18.3 220.8,1.1 219.7,-0.1 214.7,1.9 212.6,19.7 214.2,20.9 219.2,19.2 						"/>
					</g>
					<g>
						<polyline class="st1" points="210,-4.9 210.6,-9.2 215.5,-11.2 216.6,-10 216.4,-7.7 						"/>
						<polyline class="st1" points="214.2,-2.2 214.7,-6.5 219.7,-8.5 220.8,-7.3 220.5,-5 						"/>
						<polyline class="st1" points="218.4,0.3 218.9,-3.9 223.8,-5.9 224.9,-4.7 224.6,-2 						"/>
						<polyline class="st1" points="227.2,15.4 229.2,-1.8 228.1,-3 223.2,-1 221.1,16.6 222.8,17.9 227.4,16.3 						"/>
					</g>
					<g>
						<polyline class="st1" points="222.5,-5.1 223.1,-9.4 228,-11.4 229.1,-10.2 228.9,-7.9 						"/>
						<polyline class="st1" points="218.3,-7.9 218.8,-12.2 223.8,-14.2 224.9,-13 224.6,-10.7 						"/>
						<polyline class="st1" points="214.1,-10.7 214.6,-15 219.5,-17 220.6,-15.8 220.4,-13.5 						"/>
						<polyline class="st1" points="226.7,-2.4 227.2,-6.8 232.2,-8.8 233.3,-7.6 233,-5.3 						"/>
						<polyline class="st1" points="237.1,-2.2 237.4,-4.9 236.3,-6.1 231.4,-4.1 229.2,13.8 230.7,14.9 233.8,13.9 						"/>
						<polyline class="st1" points="239.7,15.1 241.7,-2 240.6,-3.2 235.7,-1.2 233.6,16.3 235.3,17.7 239.9,16.1 						"/>
					</g>
					<g>
						<polyline class="st1" points="178,19.3 178.3,17 177.2,15.8 172.2,17.8 171.2,26.2 172.7,27.3 175.6,26.3 						"/>
						<polyline class="st1" points="173.8,16.5 174.1,14.2 173,13 168,15 167,23.5 168.7,24.4 171.3,23.4 						"/>
						<polyline class="st1" points="169.6,13.7 169.8,11.4 168.7,10.2 163.7,12.2 162.7,20.7 164.3,21.8 167.2,20.8 						"/>
						<polyline class="st1" points="182.2,21.9 182.5,19.6 181.4,18.4 176.4,20.4 175.4,28.9 177,30 179.7,29.1 						"/>
						<polyline class="st1" points="186.3,25 186.6,22.3 185.5,21.1 180.5,23.1 179.5,31.7 181,32.9 184,31.8 						"/>
						<polyline class="st1" points="190.4,29.7 190.9,25.2 189.8,24 184.8,26 183.9,34.2 185.6,35.6 189.3,34.1 						"/>
					</g>
					<g>
						<polyline class="st1" points="230.8,-8.1 231.3,-12.4 236.3,-14.4 237.4,-13.2 237.1,-10.9 						"/>
						<polyline class="st1" points="226.5,-10.9 227,-15.2 232,-17.2 233.1,-16 232.9,-13.7 						"/>
						<polyline class="st1" points="222.3,-13.7 222.8,-18 227.8,-20 228.9,-18.8 228.6,-16.5 						"/>
						<polyline class="st1" points="234.9,-5.4 235.4,-9.8 240.4,-11.8 241.5,-10.6 241.3,-8.3 						"/>
						<line class="st1" x1="240.3" y1="11.5" x2="242" y2="10.9"/>
						<polyline class="st1" points="245.4,-5.2 245.7,-8 244.6,-9.2 239.6,-7.2 239.1,-2.8 						"/>
						<polyline class="st1" points="247.9,12.1 250,-5 248.9,-6.2 243.9,-4.2 241.8,13.3 243.6,14.7 248.1,13 						"/>
					</g>
					<g>
						<polyline class="st1" points="239.3,-11.1 239.8,-15.4 244.8,-17.4 245.9,-16.2 245.6,-13.9 						"/>
						<polyline class="st1" points="235,-13.9 235.5,-18.2 240.5,-20.2 241.6,-19 241.4,-16.7 						"/>
						<polyline class="st1" points="230.8,-16.7 231.3,-21 236.3,-23 237.4,-21.8 237.1,-19.5 						"/>
						<polyline class="st1" points="243.4,-8.4 243.9,-12.8 248.9,-14.8 250,-13.5 249.8,-11.3 						"/>
						<line class="st1" x1="248.8" y1="8.5" x2="250.5" y2="7.9"/>
						<polyline class="st1" points="253.9,-8.2 254.2,-10.9 253.1,-12.1 248.1,-10.1 247.6,-5.8 						"/>
						<polyline class="st1" points="256.4,9.2 258.5,-8 257.4,-9.2 252.4,-7.2 250.3,10.4 252.1,11.7 256.6,10.1 						"/>
					</g>
					<g>
						<polyline class="st1" points="247.4,-14.1 248,-18.4 252.9,-20.4 254,-19.2 253.8,-16.9 						"/>
						<polyline class="st1" points="243.2,-16.9 243.7,-21.2 248.7,-23.2 249.8,-22 249.5,-19.7 						"/>
						<polyline class="st1" points="239,-19.7 239.5,-24 244.4,-26 245.5,-24.8 245.3,-22.5 						"/>
						<polyline class="st1" points="251.6,-11.4 252.1,-15.7 257.1,-17.7 258.2,-16.5 257.9,-14.3 						"/>
						<line class="st1" x1="256.9" y1="5.5" x2="258.7" y2="4.9"/>
						<polyline class="st1" points="262,-11.2 262.3,-13.9 261.2,-15.1 256.3,-13.1 255.7,-8.8 						"/>
						<polyline class="st1" points="264.6,6.2 266.6,-11 265.5,-12.2 260.6,-10.2 258.5,7.4 260.2,8.7 264.8,7.1 						"/>
					</g>
					<g>
						<polyline class="st1" points="255.8,-17.1 256.3,-21.4 261.3,-23.4 262.4,-22.1 262.2,-19.9 						"/>
						<polyline class="st1" points="251.6,-19.8 252.1,-24.1 257.1,-26.1 258.2,-24.9 257.9,-22.6 						"/>
						<polyline class="st1" points="247.3,-22.6 247.9,-26.9 252.8,-28.9 253.9,-27.7 253.7,-25.4 						"/>
						<polyline class="st1" points="260,-14.4 260.5,-18.7 265.5,-20.7 266.6,-19.5 266.3,-17.2 						"/>
						<line class="st1" x1="265.3" y1="2.5" x2="267" y2="2"/>
						<polyline class="st1" points="270.4,-14.1 270.7,-16.9 269.6,-18.1 264.7,-16.1 264.1,-11.7 						"/>
						<polyline class="st1" points="273,3.2 275,-14 273.9,-15.2 269,-13.2 266.9,4.4 268.6,5.8 273.2,4.1 						"/>
					</g>
					<g>
						<polyline class="st1" points="264,-20 264.5,-24.3 269.5,-26.3 270.6,-25.1 270.3,-22.9 						"/>
						<polyline class="st1" points="259.8,-22.8 260.3,-27.1 265.2,-29.1 266.3,-27.9 266.1,-25.6 						"/>
						<polyline class="st1" points="255.5,-25.6 256,-29.9 261,-31.9 262.1,-30.7 261.8,-28.4 						"/>
						<polyline class="st1" points="268.2,-17.4 268.7,-21.7 273.6,-23.7 274.7,-22.5 274.5,-20.2 						"/>
						<line class="st1" x1="273.5" y1="-0.5" x2="275.2" y2="-1"/>
						<polyline class="st1" points="278.6,-17.1 278.9,-19.9 277.8,-21.1 272.8,-19.1 272.3,-14.7 						"/>
						<polyline class="st1" points="281.2,0.2 283.2,-16.9 282.1,-18.2 277.1,-16.2 275,1.4 276.8,2.8 281.3,1.1 						"/>
					</g>
					<g>
						<polyline class="st1" points="272.3,-22.9 272.8,-27.2 277.7,-29.2 278.9,-28 278.6,-25.7 						"/>
						<polyline class="st1" points="268,-25.7 268.5,-30 273.5,-32 274.6,-30.8 274.3,-28.5 						"/>
						<polyline class="st1" points="263.8,-28.5 264.3,-32.8 269.3,-34.8 270.4,-33.6 270.1,-31.3 						"/>
						<polyline class="st1" points="276.4,-20.2 276.9,-24.6 281.9,-26.6 283,-25.4 282.7,-23.1 						"/>
						<line class="st1" x1="281.8" y1="-3.3" x2="283.5" y2="-3.9"/>
						<polyline class="st1" points="286.8,-20 287.2,-22.7 286.1,-23.9 281.1,-21.9 280.6,-17.6 						"/>
						<polyline class="st1" points="289.9,-6.9 291.5,-19.8 290.4,-21 285.4,-19 283.3,-1.5 284.8,-0.4 						"/>
					</g>
					<g>
						<polyline class="st1" points="280.7,-26 281.2,-30.3 286.2,-32.3 287.3,-31.1 287,-28.8 						"/>
						<polyline class="st1" points="276.4,-28.8 276.9,-33.1 281.9,-35.1 283,-33.9 282.7,-31.6 						"/>
						<polyline class="st1" points="272.2,-31.6 272.7,-35.9 277.7,-37.9 278.8,-36.7 278.5,-34.4 						"/>
						<polyline class="st1" points="284.8,-23.3 285.3,-27.7 290.3,-29.7 291.4,-28.5 291.1,-26.2 						"/>
						<polyline class="st1" points="295.2,-23.1 295.6,-25.8 294.5,-27 289.5,-25 289,-20.7 						"/>
						<polyline class="st1" points="298.4,-10.2 299.9,-22.9 298.8,-24.1 293.8,-22.1 292.1,-7.7 						"/>
					</g>
					<g>
						<polyline class="st1" points="288.8,-29 289.3,-33.3 294.3,-35.3 295.4,-34.1 295.2,-31.8 						"/>
						<polyline class="st1" points="284.6,-31.8 285.1,-36.1 290.1,-38.1 291.2,-36.9 290.9,-34.6 						"/>
						<polyline class="st1" points="280.3,-34.6 280.9,-38.9 285.8,-40.9 286.9,-39.7 286.7,-37.4 						"/>
						<polyline class="st1" points="293,-26.3 293.5,-30.7 298.5,-32.7 299.6,-31.5 299.3,-29.2 						"/>
						<polyline class="st1" points="303.4,-26.1 303.7,-28.8 302.6,-30 297.7,-28 297.1,-23.7 						"/>
						<polyline class="st1" points="306.5,-13.1 308,-25.9 306.9,-27.1 302,-25.1 300.3,-10.8 						"/>
					</g>
					<g>
						<polyline class="st1" points="297.2,-31.8 297.7,-36.1 302.7,-38.1 303.8,-36.9 303.5,-34.7 						"/>
						<polyline class="st1" points="293,-34.6 293.5,-38.9 298.5,-40.9 299.6,-39.7 299.3,-37.4 						"/>
						<polyline class="st1" points="288.7,-37.4 289.2,-41.7 294.2,-43.7 295.3,-42.5 295,-40.2 						"/>
						<polyline class="st1" points="301.4,-29.2 301.9,-33.5 306.8,-35.5 308,-34.3 307.7,-32 						"/>
						<polyline class="st1" points="311.8,-28.9 312.1,-31.7 311,-32.9 306,-30.9 305.5,-26.5 						"/>
						<line class="st1" x1="309.8" y1="-9.2" x2="314.3" y2="-10.8"/>
						<polyline class="st1" points="314,-11.1 316.4,-28.7 315.3,-30 310.3,-28 308.5,-12.8 						"/>
					</g>
				</g>
			</g>
		</g>
		
			<path style="clip-path:url(#SVGID_00000181804151741700906980000004386386532472916156_);fill:#2D2A26;stroke:#FFFFFF;stroke-width:1.1252;stroke-linecap:round;stroke-linejoin:round;stroke-miterlimit:10;" d="
			M171.7,25.7l6.9,4.8l-5.2-17.6L156,16l5.9,3.7c0,0-6.8,5.9-3.6,18.7l10.3,6.8C168.6,45.2,166.8,31.2,171.7,25.7z"/>
	</g>
	<polygon class="st27" points="151.4,64.8 158.6,60.3 154.9,58.8 154.9,45 147.8,42.1 147.8,56 144.2,54.5 	"/>
	<circle class="st21" cx="165.3" cy="44.5" r="40.6"/>
</g>
<g>
	<circle class="st28" cx="128.7" cy="51.6" r="11.2"/>
	<g>
		<text transform="matrix(1 0 0 1 123.9936 57.0995)" class="st29 st30 st31">1</text>
	</g>
</g>
<g>
	<g>
		<polyline class="st1" points="235.9,73.8 231.5,75.4 212,62.6 		"/>
		<g>
			<path class="st1" d="M235.6,76.4l26.8-9.3l0.3-2.4c0,0,0.6-1.5,2.2-1.9c1.7-0.4,8.6-2.9,8.6-2.9s1.7-0.7,1.5,1.2
				c-0.2,1.9-0.3,1.3-0.3,1.3l19.4-6.8c0,0,0.6-0.2,0.8-1.7s1-2.1,1.7-2.3c0.7-0.3,9.6-3.5,9.6-3.5s1.2-0.2,1.1,1.1
				c-0.1,1.2-0.2,1.6-0.2,1.6l26.9-9.7l0.9-7.4c0,0-0.2-2-2.2-1.3c-2,0.7-3.2,2-3.4,3.7l-0.2,1.5l-1,0.4l1-8.1c0,0-0.3-1.5-1.6-1
				c-1.3,0.4-13.4,4.9-13.4,4.9s-1.8,1-2,2.6c-0.2,1.7-0.9,7.7-0.9,7.7l-1,0.4l0.3-2.4c0,0-0.4-1.7-1.8-1.1
				c-1.4,0.6-45.6,16.5-45.6,16.5s-1.3,0.4-2,2l-0.3,2.6l-1.3,0.5l0.9-7.9c0,0-0.2-1.7-1.5-1.3c-1.3,0.4-12.8,4.6-12.8,4.6
				s-2.1,0.8-2.5,2.5l-0.4,3.2l-0.6,5l-1,0.3l0.3-2.2c0,0-0.3-1.5-1.9-0.9c0,0-2.3,0.2-3.4,2.3L235.6,76.4z"/>
			<polyline class="st1" points="243.3,63.8 236.3,66.4 216.9,53.7 216.9,53.7 224.4,51.2 			"/>
			<polyline class="st1" points="216.9,53.7 216.4,58.1 235.8,70.6 236.3,66.4 			"/>
			<polyline class="st1" points="218,59.2 212,61.3 212,62.3 			"/>
			<polygon class="st1" points="313.9,42.7 325.8,38.5 326.7,31.2 314.9,35.4 			"/>
			<polygon class="st1" points="245.2,67.4 257.2,63.3 258.1,56 246.2,60.2 			"/>
			<path class="st1" d="M231.2,42.5l-5.7,2.2c0,0-2.1,0.9-2.4,3.1c-0.3,2.2-0.4,3.9-0.4,3.9"/>
			<polyline class="st1" points="230.9,47.2 232,38.1 235.5,36.6 236.3,37.5 236.1,39.1 			"/>
			<polyline class="st1" points="234,49.2 235,40 238.6,38.6 239.4,39.4 239.2,41.1 			"/>
			<polyline class="st1" points="236.9,51.2 238,42 241.6,40.5 242.4,41.4 242.2,43 			"/>
			<polyline class="st1" points="239.9,53 241,43.8 244.5,42.4 245.3,43.3 245.1,44.9 			"/>
			<polyline class="st1" points="242.9,54.9 243.9,45.7 247.5,44.3 248.3,45.2 248.1,47.1 			"/>
			<polyline class="st1" points="245.8,58.1 247,47.8 250.6,46.4 251.4,47.3 250.3,56.3 			"/>
			<g>
				<polyline class="st1" points="240.5,40.9 240.9,37.9 244.5,36.4 245.2,37.3 245.1,38.9 				"/>
				<polyline class="st1" points="243.5,42.8 243.9,39.7 247.4,38.3 248.2,39.2 248,40.8 				"/>
				<polyline class="st1" points="246.5,44.7 246.8,41.6 250.4,40.2 251.2,41.1 251,43 				"/>
				<polyline class="st1" points="249.6,46.8 249.9,43.7 253.5,42.3 254.3,43.1 252.8,55.4 				"/>
			</g>
			<g>
				<polyline class="st1" points="246.5,38.8 246.8,35.8 250.4,34.3 251.2,35.2 251,36.8 				"/>
				<polyline class="st1" points="249.4,40.8 249.8,37.6 253.4,36.2 254.2,37.1 254,38.7 				"/>
				<polyline class="st1" points="252.4,42.6 252.8,39.5 256.3,38.1 257.1,39 256.9,40.9 				"/>
				<polyline class="st1" points="254.3,54.8 255.9,41.6 259.4,40.2 260.2,41 258.8,53.3 				"/>
			</g>
			<g>
				<polyline class="st1" points="252.3,36.7 252.7,33.6 256.2,32.2 257,33 256.8,34.7 				"/>
				<polyline class="st1" points="255.3,38.6 255.6,35.5 259.2,34.1 260,34.9 259.8,36.6 				"/>
				<polyline class="st1" points="258.2,40.4 258.6,37.4 262.2,35.9 263,36.8 262.7,38.8 				"/>
				<polyline class="st1" points="264.6,51.2 266,38.9 265.2,38 261.7,39.5 260.2,52.2 261.3,53 264.9,51.8 				"/>
			</g>
			<g>
				<polyline class="st1" points="258.3,34.6 258.7,31.5 262.3,30.1 263.1,31 262.9,32.6 				"/>
				<polyline class="st1" points="261.3,36.5 261.7,33.4 265.2,32 266,32.8 265.8,34.5 				"/>
				<polyline class="st1" points="264.3,38.3 264.6,35.3 268.2,33.9 269,34.7 268.8,36.7 				"/>
				<polyline class="st1" points="270.6,49.1 272.1,36.8 271.3,36 267.7,37.4 266.2,49.9 267.5,50.9 270.7,49.7 				"/>
			</g>
			<g>
				<polyline class="st1" points="267.3,34.4 267.6,31.4 271.2,29.9 272,30.8 271.8,32.4 				"/>
				<polyline class="st1" points="264.2,32.4 264.6,29.4 268.2,27.9 269,28.8 268.8,30.4 				"/>
				<polyline class="st1" points="261.2,30.4 261.6,27.4 265.1,25.9 265.9,26.8 265.7,28.4 				"/>
				<polyline class="st1" points="270.2,36.4 270.6,33.2 274.2,31.8 275,32.7 274.8,34.3 				"/>
				<polyline class="st1" points="277.7,36.5 277.9,34.6 277.1,33.7 273.6,35.1 272.1,48 273.1,48.8 275.3,48 				"/>
				<polyline class="st1" points="279.6,48.9 281,36.6 280.2,35.8 276.7,37.2 275.2,49.8 276.4,50.7 279.7,49.6 				"/>
			</g>
			<g>
				<polyline class="st1" points="235.5,51.9 235.6,50.2 234.9,49.4 231.3,50.8 230.6,56.9 231.6,57.6 233.7,56.9 				"/>
				<polyline class="st1" points="232.4,49.9 232.6,48.2 231.8,47.4 228.3,48.8 227.5,54.9 228.7,55.5 230.7,54.8 				"/>
				<polyline class="st1" points="229.4,47.9 229.6,46.3 228.8,45.4 225.2,46.8 224.5,52.9 225.6,53.7 227.7,53 				"/>
				<polyline class="st1" points="238.4,53.8 238.6,52.1 237.8,51.3 234.3,52.7 233.6,58.8 234.7,59.6 236.6,58.9 				"/>
				<polyline class="st1" points="241.4,56 241.6,54 240.8,53.2 237.2,54.6 236.5,60.8 237.5,61.6 239.7,60.8 				"/>
				<polyline class="st1" points="244.3,59.3 244.7,56.1 243.9,55.2 240.3,56.7 239.6,62.6 240.9,63.5 243.5,62.5 				"/>
			</g>
			<g>
				<polyline class="st1" points="273.2,32.3 273.5,29.2 277.1,27.8 277.9,28.6 277.7,30.3 				"/>
				<polyline class="st1" points="270.1,30.3 270.5,27.2 274.1,25.8 274.8,26.6 274.7,28.3 				"/>
				<polyline class="st1" points="267.1,28.3 267.5,25.2 271,23.8 271.8,24.6 271.6,26.3 				"/>
				<polyline class="st1" points="276.1,34.2 276.5,31.1 280.1,29.6 280.9,30.5 280.7,32.1 				"/>
				<line class="st1" x1="280" y1="46.3" x2="281.2" y2="45.9"/>
				<polyline class="st1" points="283.6,34.3 283.8,32.4 283,31.5 279.5,33 279.1,36.1 				"/>
				<polyline class="st1" points="285.4,46.8 286.9,34.5 286.1,33.6 282.5,35.1 281.1,47.6 282.3,48.6 285.6,47.4 				"/>
			</g>
			<g>
				<polyline class="st1" points="279.2,30.2 279.6,27.1 283.2,25.7 284,26.5 283.8,28.1 				"/>
				<polyline class="st1" points="276.2,28.2 276.6,25.1 280.1,23.7 280.9,24.5 280.7,26.2 				"/>
				<polyline class="st1" points="273.2,26.2 273.5,23.1 277.1,21.7 277.9,22.5 277.7,24.2 				"/>
				<polyline class="st1" points="282.2,32.1 282.6,29 286.1,27.5 286.9,28.4 286.7,30 				"/>
				<line class="st1" x1="286" y1="44.2" x2="287.3" y2="43.8"/>
				<polyline class="st1" points="289.7,32.2 289.9,30.3 289.1,29.4 285.6,30.9 285.2,34 				"/>
				<polyline class="st1" points="291.5,44.6 293,32.4 292.2,31.5 288.6,32.9 287.1,45.5 288.4,46.5 291.6,45.3 				"/>
			</g>
			<g>
				<polyline class="st1" points="285.1,28 285.5,24.9 289,23.5 289.8,24.4 289.6,26 				"/>
				<polyline class="st1" points="282.1,26 282.4,22.9 286,21.5 286.8,22.4 286.6,24 				"/>
				<polyline class="st1" points="279,24 279.4,20.9 282.9,19.5 283.7,20.4 283.5,22 				"/>
				<polyline class="st1" points="288.1,29.9 288.4,26.8 292,25.4 292.8,26.3 292.6,27.9 				"/>
				<line class="st1" x1="291.9" y1="42" x2="293.1" y2="41.6"/>
				<polyline class="st1" points="295.5,30.1 295.7,28.1 295,27.3 291.4,28.7 291,31.8 				"/>
				<polyline class="st1" points="297.4,42.5 298.8,30.2 298,29.4 294.5,30.8 293,43.4 294.2,44.3 297.5,43.2 				"/>
			</g>
			<g>
				<polyline class="st1" points="291.1,25.9 291.5,22.8 295,21.4 295.8,22.2 295.6,23.9 				"/>
				<polyline class="st1" points="288.1,23.9 288.4,20.8 292,19.4 292.8,20.3 292.6,21.9 				"/>
				<polyline class="st1" points="285,21.9 285.4,18.8 288.9,17.4 289.7,18.3 289.5,19.9 				"/>
				<polyline class="st1" points="294.1,27.8 294.4,24.7 298,23.3 298.8,24.1 298.6,25.8 				"/>
				<line class="st1" x1="297.9" y1="39.9" x2="299.1" y2="39.5"/>
				<polyline class="st1" points="301.5,28 301.7,26 301,25.2 297.4,26.6 297,29.7 				"/>
				<polyline class="st1" points="303.4,40.4 304.8,28.1 304,27.2 300.5,28.7 299,41.2 300.2,42.2 303.5,41 				"/>
			</g>
			<g>
				<polyline class="st1" points="296.9,23.7 297.3,20.7 300.9,19.2 301.6,20.1 301.4,21.7 				"/>
				<polyline class="st1" points="293.9,21.8 294.3,18.7 297.8,17.2 298.6,18.1 298.4,19.7 				"/>
				<polyline class="st1" points="290.9,19.8 291.2,16.7 294.8,15.3 295.6,16.1 295.4,17.8 				"/>
				<polyline class="st1" points="299.9,25.7 300.3,22.6 303.8,21.1 304.6,22 304.4,23.6 				"/>
				<line class="st1" x1="303.7" y1="37.8" x2="304.9" y2="37.3"/>
				<polyline class="st1" points="307.4,25.8 307.6,23.9 306.8,23 303.2,24.4 302.9,27.6 				"/>
				<polyline class="st1" points="309.2,38.2 310.7,26 309.9,25.1 306.3,26.5 304.8,39.1 306.1,40.1 309.3,38.9 				"/>
			</g>
			<g>
				<polyline class="st1" points="302.8,21.7 303.2,18.6 306.8,17.2 307.6,18.1 307.4,19.7 				"/>
				<polyline class="st1" points="299.8,19.7 300.2,16.6 303.7,15.2 304.5,16.1 304.3,17.7 				"/>
				<polyline class="st1" points="296.8,17.7 297.1,14.6 300.7,13.2 301.5,14.1 301.3,15.7 				"/>
				<polyline class="st1" points="305.8,23.6 306.2,20.5 309.7,19.1 310.5,19.9 310.3,21.6 				"/>
				<line class="st1" x1="309.6" y1="35.7" x2="310.9" y2="35.3"/>
				<polyline class="st1" points="313.3,23.8 313.5,21.8 312.7,21 309.1,22.4 308.8,25.5 				"/>
				<polyline class="st1" points="315.5,33.2 316.6,23.9 315.8,23.1 312.2,24.5 310.7,37 311.8,37.8 				"/>
			</g>
			<g>
				<polyline class="st1" points="308.9,19.5 309.2,16.4 312.8,15 313.6,15.8 313.4,17.5 				"/>
				<polyline class="st1" points="305.8,17.5 306.2,14.4 309.7,13 310.5,13.9 310.3,15.5 				"/>
				<polyline class="st1" points="302.8,15.5 303.1,12.4 306.7,11 307.5,11.9 307.3,13.5 				"/>
				<polyline class="st1" points="311.8,21.4 312.2,18.3 315.7,16.9 316.5,17.7 316.3,19.4 				"/>
				<polyline class="st1" points="319.3,21.6 319.5,19.6 318.7,18.8 315.2,20.2 314.8,23.3 				"/>
				<polyline class="st1" points="321.5,30.8 322.6,21.7 321.8,20.8 318.2,22.3 317,32.5 				"/>
			</g>
			<g>
				<polyline class="st1" points="314.7,17.4 315.1,14.3 318.6,12.8 319.4,13.7 319.2,15.3 				"/>
				<polyline class="st1" points="311.7,15.4 312,12.3 315.6,10.9 316.4,11.7 316.2,13.3 				"/>
				<polyline class="st1" points="308.6,13.4 309,10.3 312.5,8.9 313.3,9.7 313.1,11.4 				"/>
				<polyline class="st1" points="317.7,19.3 318,16.2 321.6,14.7 322.4,15.6 322.2,17.2 				"/>
				<polyline class="st1" points="325.1,19.4 325.3,17.5 324.6,16.6 321,18 320.6,21.2 				"/>
				<polyline class="st1" points="327.3,28.7 328.4,19.6 327.6,18.7 324.1,20.1 322.9,30.4 				"/>
			</g>
			<g>
				<polyline class="st1" points="320.7,15.3 321,12.2 324.6,10.8 325.4,11.7 325.2,13.3 				"/>
				<polyline class="st1" points="317.6,13.3 318,10.2 321.6,8.8 322.4,9.7 322.2,11.3 				"/>
				<polyline class="st1" points="314.6,11.3 315,8.2 318.5,6.8 319.3,7.7 319.1,9.3 				"/>
				<polyline class="st1" points="323.7,17.2 324,14.1 327.6,12.7 328.4,13.6 328.2,15.2 				"/>
				<polyline class="st1" points="331.1,17.4 331.3,15.4 330.5,14.6 327,16 326.6,19.1 				"/>
				<line class="st1" x1="329.7" y1="31.5" x2="332.9" y2="30.4"/>
				<polyline class="st1" points="332.7,30.1 334.4,17.5 333.6,16.7 330.1,18.1 328.8,28.9 				"/>
			</g>
		</g>
	</g>
</g>
<g>
	<g>
		<g>
			<polygon class="st32" points="308.8,54.6 301.5,49.6 316.7,44.2 313.1,41.8 329.6,43.2 327.3,51.6 323.6,49.1 			"/>
		</g>
	</g>
	<g>
		<g>
			<polygon class="st32" points="300.2,50.1 307.5,55.1 292.3,60.5 296,62.9 279.5,61.5 281.8,53.1 285.4,55.6 			"/>
		</g>
	</g>
</g>
<polyline class="st1" points="212.3,61.5 231.9,74.3 236.2,72.6 "/>
<line class="st1" x1="231.8" y1="75.6" x2="231.9" y2="74.3"/>
</svg>
