<?xml version="1.0" encoding="utf-8"?>
<!-- Generator: Adobe Illustrator 26.0.3, SVG Export Plug-In . SVG Version: 6.00 Build 0)  -->
<svg version="1.1" id="EMPTY_x5F_RISER" xmlns="http://www.w3.org/2000/svg" xmlns:xlink="http://www.w3.org/1999/xlink" x="0px"
	 y="0px" viewBox="0 0 468 236.531" style="enable-background:new 0 0 468 236.531;" xml:space="preserve">
<style type="text/css">
	.st0{fill:none;stroke:#231F20;stroke-width:0.5;stroke-linecap:round;stroke-linejoin:round;stroke-miterlimit:10;}
	.st1{fill:#D2D3D4;}
	.st2{clip-path:url(#SVGID_00000134969108539204431240000017102336578961495430_);}
	
		.st3{clip-path:url(#SVGID_00000134969108539204431240000017102336578961495430_);fill:none;stroke:#231F20;stroke-width:0.5;stroke-miterlimit:10;}
	.st4{fill:none;stroke:#231F20;stroke-width:0.5;stroke-miterlimit:10;}
	.st5{clip-path:url(#SVGID_00000052100126872855638380000001745151017815626660_);}
	
		.st6{clip-path:url(#SVGID_00000052100126872855638380000001745151017815626660_);fill:none;stroke:#231F20;stroke-width:0.5;stroke-miterlimit:10;}
	.st7{fill:#231F20;stroke:#FFFFFF;stroke-width:1.5;stroke-miterlimit:10;}
	.st8{fill:#FFFFFF;}
	.st9{fill:#231F20;stroke:#FFFFFF;stroke-width:0.75;stroke-linecap:round;stroke-linejoin:round;stroke-miterlimit:10;}
	.st10{fill:none;stroke:#FFFFFF;stroke-miterlimit:10;}
	.st11{fill:#FFFFFF;stroke:#FFFFFF;stroke-width:2;stroke-linecap:round;stroke-linejoin:round;stroke-miterlimit:10;}
	.st12{fill:#FFFFFF;stroke:#231F20;stroke-width:0.5;stroke-miterlimit:10;}
	.st13{fill:none;stroke:#FFFFFF;stroke-width:2;stroke-linecap:round;stroke-linejoin:round;stroke-miterlimit:10;}
	
		.st14{fill:none;stroke:#231F20;stroke-width:0.5;stroke-linecap:round;stroke-linejoin:round;stroke-miterlimit:10;stroke-dasharray:2.0546;}
</style>
<g>
	<path class="st0" d="M166.471,95.477"/>
	<g>
		<path class="st0" d="M179.427,106.037"/>
	</g>
	<g>
		<path class="st0" d="M185.363,106.337"/>
		<path class="st0" d="M185.682,105.508"/>
		<path class="st0" d="M186,104.68"/>
	</g>
	<g>
		<path class="st0" d="M185.759,107.338"/>
	</g>
	<path class="st0" d="M205.976,113.328"/>
	<polygon class="st0" points="179.136,105.038 178.119,104.806 176.551,109.482 177.625,109.714 	"/>
	<polyline class="st0" points="176.551,109.685 176.609,111.08 177.734,111.326 177.654,109.773 	"/>
	<path class="st0" d="M177.826,111.234"/>
	<path class="st0" d="M206.718,116.687"/>
	<path class="st0" d="M209.868,112.034c0,0-1.135,0.077-1.368,0.903c0,0-0.335,0.852,0.852,0.723c0,0,1.187,0,1.548-0.877
		C210.9,112.782,211.055,111.853,209.868,112.034z"/>
	<path class="st0" d="M206.723,115.509l0.075,2.133c0,0,1.004,0.427,1.205-0.276l0.427-0.954l-0.025-1.686"/>
	<polyline class="st0" points="208.605,116.538 210.035,116.789 210.939,114.304 210.889,112.899 	"/>
	<polyline class="st0" points="209.533,113.752 209.559,115.936 210.261,116.061 	"/>
	<path class="st0" d="M209.634,111.882c0.108-0.888-0.173-0.953-0.173-0.953l-0.714-0.13l-0.123,1.505"/>
	<path class="st0" d="M208.695,113.696l-0.654,2.042c0,0-0.099,0.694-1.209,0.278"/>
	<path class="st0" d="M142.295,100.055c-1.14-0.534-0.675-1.443-0.675-1.443c0.442-0.885,1.629-0.279,1.629-0.279
		s1.304,0.349,0.954,1.536C144.204,99.869,144.134,100.916,142.295,100.055z"/>
	<polyline class="st0" points="144.379,98.92 144.741,97.977 146.101,98.226 146,99.831 144.409,104.783 	"/>
	<polyline class="st0" points="144.472,99.894 144.928,100.002 144.439,101.189 143.578,101.003 142.972,102.888 144.348,103.146 	
		"/>
	<polyline class="st0" points="143.809,101.195 141.987,100.856 142.003,102.129 141.6,102.049 141.584,102.774 142.793,103 	"/>
	<path class="st0" d="M143.373,101.452l-0.371,1.064c0,0-0.338,0.516,1.358,0.703l0.048,1.563l-1.052-0.107
		c0,0-0.435-0.016-0.435-0.435c0-0.419-0.032-1.434-0.032-1.434"/>
	<polygon class="st0" points="173.171,108.924 174.46,109.283 174.46,110.638 173.171,110.279 	"/>
	<polyline class="st0" points="173.203,108.826 174.933,104.125 176.157,104.436 174.46,109.283 	"/>
	<polyline class="st0" points="174.46,110.638 176.108,105.921 176.174,104.501 	"/>
	<polyline class="st0" points="179.136,105.038 179.299,106.632 177.826,111.234 	"/>
</g>
<path class="st1" d="M122.351,150.582l-0.304-8.369l-32.412-6.695l-5.394,12.306l0.349,2.359l-1.048-0.262l-13.805,37.482
	l-2.359-0.524c0,0-1.311-0.437-1.485,1.136s-0.786,2.971-0.786,2.971s0.349,2.621,4.019,2.883c0,0,0.699,1.922,1.747,1.922v1.223
	l25.862,5.242v-1.048c0,0,1.66,0.262,1.747-1.223l-0.786-0.437c0,0,6.897,3.286,8.032-1.17l15.82-44.438L122.351,150.582z"/>
<path class="st1" d="M125.684,143.234l33.292,6.482v1.031l0.147,8.544l3.241-8.839l33.881,6.924l-20.182,54.947l0.295,2.062
	l-1.473-0.147l-0.737,1.326l-2.504-0.737l0.518,3.908c0,0-1.554-0.518-1.761,2.279l-25.685-5.075l-0.207-1.036
	c0,0-2.071-1.761-1.45-5.8l-7.871-1.657l0.104,3.314c0,0,0.311,1.761-1.554,1.554l-0.104,1.139l-25.685-5.178l-0.414-0.932
	c0,0-1.45-1.036-1.45-3.003l-0.311-3.003l-1.45-0.414c0,0-3.003-0.829-1.761-4.35l0.725-1.761l1.036-0.207l1.864,0.414
	l11.082-28.171l-0.104-2.382l2.589-7.353l1.45,0.725L121,155.455L125.684,143.234z"/>
<g>
	<polyline class="st0" points="118.085,77.395 104.848,74.693 104.042,75.994 101.726,75.54 100.954,75.767 	"/>
	<line class="st0" x1="142.493" y1="82.378" x2="123.634" y2="78.528"/>
	<line class="st0" x1="148.582" y1="83.621" x2="145.433" y2="82.978"/>
	<line class="st0" x1="174.531" y1="88.919" x2="149.869" y2="83.884"/>
	<line class="st0" x1="201.041" y1="94.331" x2="176.491" y2="89.319"/>
	<line class="st0" x1="209.706" y1="96.1" x2="202.44" y2="94.617"/>
	<polyline class="st0" points="212.924,106.008 213.857,98.429 214.743,97.128 212.481,96.667 	"/>
	<polyline class="st0" points="98.816,79.646 98.176,80.605 85.412,115.11 85.431,117.483 85.463,119.461 85.321,120.049 
		82.136,128.84 81.941,123.848 	"/>
	<polyline class="st0" points="85.445,113.826 85.802,110.7 98.846,76.84 	"/>
	<path class="st0" d="M98.816,79.646"/>
	<path class="st0" d="M82.496,129.009"/>
	<line class="st0" x1="80.03" y1="130.594" x2="81.732" y2="130.886"/>
	<polyline class="st0" points="84.471,150.053 84.179,147.915 88.983,135.501 196.198,157.421 176.317,212.295 176.317,214.725 	"/>
	<path class="st0" d="M220.965,107.877l0.069-3.071c0,0-0.365-0.706-1.037-0.537l-0.227-9.387l-2.22,5.63l-0.051,1.108
		l-12.112,32.779c0,0-1.06,2.952-0.984,5.602c0.076,2.65,0.64,3.201,0.111,4.337c-0.53,1.136-3.448,8.337-3.448,8.337l-0.228-3.795
		c0,0-0.116-0.218-0.303-0.327c-0.264-0.155-0.668-0.092-1.08,1.115l-3.112,7.929"/>
	<polyline class="st0" points="220.827,105.06 218.684,110.606 218.632,108.677 219.339,106.799 219.356,106.058 220.08,104.231 	
		"/>
	<polyline class="st0" points="217.573,99.866 216.75,99.71 215.681,102.225 215.392,104.033 	"/>
	<line class="st0" x1="216.377" y1="104.361" x2="215.356" y2="104.106"/>
	<line class="st0" x1="178.242" y1="223.718" x2="220.906" y2="107.636"/>
	<polygon class="st0" points="177.088,218.464 177.756,216.082 177.756,215.038 174.874,214.411 170.738,222.892 170.362,229.868 
		173.829,230.662 174.999,228.448 175.166,223.852 176.503,220.385 	"/>
	<line class="st0" x1="171.402" y1="224.59" x2="173.598" y2="225.026"/>
	<line class="st0" x1="171.371" y1="225.353" x2="173.567" y2="225.79"/>
	<line class="st0" x1="171.34" y1="226.117" x2="173.536" y2="226.553"/>
	<line class="st0" x1="171.309" y1="226.88" x2="173.505" y2="227.316"/>
	<line class="st0" x1="171.278" y1="227.643" x2="173.474" y2="228.079"/>
	<line class="st0" x1="171.246" y1="228.406" x2="173.443" y2="228.843"/>
	<line class="st0" x1="171.215" y1="229.17" x2="173.412" y2="229.606"/>
	<path class="st0" d="M177.088,218.464c0,0,0.796-0.051,0.884,1.379c0.088,1.43,0.286,6.382,0.286,6.382l-2.223,5.854l-1.959-0.418
		l-0.022-1.276"/>
	<g>
		<g id="SPLINE_00000173133337100869247350000014163693547135675264_">
			<path class="st0" d="M159.93,170.182c-0.232,0.062-0.473,0.097-0.714,0.104c-0.241,0.007-0.484-0.013-0.719-0.061
				c-0.294-0.06-0.582-0.165-0.841-0.318c-0.121-0.072-0.236-0.154-0.342-0.247c-0.1-0.088-0.192-0.186-0.271-0.293
				c-0.076-0.102-0.14-0.212-0.19-0.329c-0.048-0.112-0.083-0.231-0.102-0.351c-0.019-0.119-0.022-0.241-0.009-0.361
				c0.013-0.122,0.041-0.241,0.083-0.356c0.044-0.119,0.103-0.232,0.173-0.338c0.074-0.111,0.16-0.213,0.256-0.306
				c0.101-0.098,0.211-0.186,0.329-0.263c0.123-0.081,0.254-0.151,0.389-0.21c0.284-0.124,0.588-0.2,0.898-0.231
				c0.314-0.031,0.633-0.016,0.941,0.047c0.208,0.043,0.413,0.107,0.607,0.196c0.183,0.083,0.356,0.188,0.512,0.315
				c0.145,0.118,0.275,0.255,0.379,0.41c0.098,0.145,0.173,0.305,0.217,0.474c0.043,0.163,0.056,0.335,0.039,0.503
				c-0.018,0.171-0.067,0.339-0.142,0.494c-0.079,0.165-0.187,0.315-0.312,0.448c-0.135,0.143-0.292,0.266-0.459,0.368
				c-0.044,0.027-0.088,0.052-0.134,0.076c-0.041,0.022-0.083,0.043-0.126,0.062c-0.13,0.06-0.265,0.11-0.403,0.15
				C159.969,170.172,159.95,170.177,159.93,170.182z"/>
		</g>
		<g id="SPLINE_00000049907803200387019850000011608570869778613929_">
			<path class="st0" d="M154.703,171.889c0.325-0.271,0.717-0.448,0.818-0.499c0.1-0.05,0.204-0.093,0.311-0.128
				c0.372-0.115,0.761-0.182,1.152-0.201c0.392-0.019,0.787,0.01,1.171,0.089c0.37,0.076,0.731,0.197,1.068,0.369
				c0.313,0.16,0.605,0.364,0.853,0.611c0.068,0.071,0.131,0.148,0.188,0.229c0.059,0.085,0.111,0.175,0.156,0.268
				c0.018,0.038,0.031,0.079,0.036,0.121c0.006,0.043,0.005,0.088,0.001,0.131v2.112"/>
		</g>
		<path class="st0" d="M159.882,164.992c0.025-0.059,0.047-0.119,0.067-0.18c0.024-0.072,0.045-0.145,0.064-0.219
			c0.041-0.158,0.06-0.228,0.099-0.391c0,0,0.2,0.043,0.237,0.051l3.178,0.65c0.089,0.018,0.176,0.045,0.26,0.081
			c0.079,0.034,0.156,0.076,0.225,0.127c0.066,0.047,0.126,0.102,0.177,0.165c0.048,0.059,0.127,0.189,0.127,0.189l-3.35,9.075
			c-0.039,0.106-0.108,0.201-0.19,0.28c-0.048,0.046-0.1,0.086-0.155,0.122c-0.06,0.039-0.123,0.072-0.188,0.1
			c-0.14,0.06-0.291,0.097-0.444,0.112c-0.156,0.015-0.315,0.007-0.467-0.024l-0.296-0.075l-4.666-1.143l0.001,0l-0.025-0.009
			l-0.038-0.035l-0.024-0.053l-0.015-0.077l-0.005-0.069v0l0.045-1.812"/>
		<g id="LINE_00000155104760788988697570000010936526743983421583_">
			<path class="st0" d="M163.403,167.787l-0.063-1.184l-0.045-0.304l0,0.001l-0.008-0.037l-0.056-0.117l-0.098-0.097l-0.131-0.068
				l-0.084-0.024l-5.726-1.171c-0.028-0.006-0.056,0.01-0.065,0.036l0,0l-2.59,6.981"/>
		</g>
	</g>
	<g>
		<g id="SPLINE_00000036210513665677808390000011767099729136867241_">
			<path class="st0" d="M122.634,162.788c-0.232,0.062-0.473,0.097-0.714,0.104c-0.241,0.007-0.484-0.013-0.719-0.061
				c-0.294-0.06-0.582-0.165-0.841-0.318c-0.121-0.072-0.236-0.154-0.342-0.247c-0.1-0.088-0.192-0.186-0.271-0.293
				c-0.076-0.102-0.14-0.212-0.19-0.329c-0.048-0.112-0.083-0.231-0.102-0.351c-0.019-0.119-0.022-0.241-0.009-0.361
				c0.013-0.122,0.041-0.241,0.083-0.356c0.044-0.119,0.103-0.232,0.173-0.338c0.074-0.111,0.16-0.213,0.256-0.306
				c0.101-0.098,0.211-0.186,0.329-0.263c0.123-0.081,0.254-0.151,0.389-0.21c0.284-0.124,0.588-0.2,0.898-0.231
				c0.314-0.031,0.633-0.016,0.941,0.047c0.208,0.043,0.413,0.107,0.607,0.196c0.183,0.083,0.356,0.188,0.512,0.315
				c0.145,0.118,0.275,0.255,0.379,0.41c0.098,0.145,0.173,0.305,0.217,0.474c0.043,0.163,0.056,0.335,0.039,0.503
				c-0.018,0.171-0.067,0.339-0.142,0.494c-0.079,0.165-0.187,0.315-0.312,0.448c-0.135,0.143-0.292,0.266-0.459,0.368
				c-0.044,0.027-0.088,0.052-0.134,0.076c-0.041,0.022-0.083,0.043-0.126,0.062c-0.13,0.06-0.265,0.11-0.403,0.15
				C122.674,162.777,122.654,162.783,122.634,162.788z"/>
		</g>
		<g id="SPLINE_00000031904058295122543280000001412688566704230809_">
			<path class="st0" d="M117.408,164.495c0.325-0.271,0.717-0.448,0.818-0.499c0.1-0.05,0.204-0.093,0.311-0.128
				c0.372-0.115,0.761-0.182,1.152-0.201c0.392-0.019,0.787,0.01,1.171,0.089c0.37,0.076,0.731,0.197,1.068,0.369
				c0.313,0.16,0.605,0.364,0.853,0.611c0.068,0.071,0.131,0.148,0.188,0.229c0.059,0.085,0.111,0.175,0.156,0.268
				c0.018,0.038,0.031,0.079,0.036,0.121c0.006,0.043,0.005,0.088,0.001,0.131v2.112"/>
		</g>
		<path class="st0" d="M122.586,157.598c0.025-0.059,0.047-0.119,0.067-0.18c0.024-0.072,0.045-0.145,0.064-0.219
			c0.041-0.158,0.06-0.228,0.099-0.391c0,0,0.2,0.043,0.237,0.051l3.178,0.65c0.089,0.018,0.176,0.045,0.26,0.081
			c0.079,0.034,0.156,0.076,0.225,0.127c0.066,0.047,0.126,0.102,0.177,0.165c0.048,0.059,0.127,0.189,0.127,0.189l-3.35,9.075
			c-0.039,0.106-0.108,0.201-0.19,0.28c-0.048,0.046-0.1,0.086-0.155,0.122c-0.06,0.039-0.123,0.072-0.188,0.1
			c-0.14,0.06-0.291,0.097-0.444,0.112c-0.156,0.015-0.315,0.007-0.467-0.024l-0.296-0.075l-4.666-1.143l0.001,0l-0.025-0.009
			l-0.038-0.035l-0.024-0.053l-0.015-0.077l-0.006-0.069l0,0l0.045-1.812"/>
		<g id="LINE_00000054261520637613997160000010377826707395499149_">
			<path class="st0" d="M126.108,160.393l-0.063-1.184L126,158.906l0,0.001l-0.008-0.037l-0.056-0.117l-0.098-0.097l-0.131-0.068
				l-0.084-0.024l-5.726-1.171c-0.028-0.006-0.056,0.01-0.065,0.036l0,0l-2.59,6.981"/>
		</g>
	</g>
	<g>
		<g id="SPLINE_00000052808296900607931130000004898405857025405327_">
			<path class="st0" d="M86.339,155.394c-0.232,0.062-0.473,0.097-0.714,0.104c-0.241,0.007-0.484-0.013-0.719-0.061
				c-0.294-0.06-0.582-0.165-0.841-0.318c-0.121-0.072-0.236-0.154-0.342-0.247c-0.1-0.088-0.192-0.186-0.271-0.293
				c-0.076-0.102-0.14-0.212-0.19-0.329c-0.048-0.112-0.083-0.231-0.102-0.351c-0.019-0.119-0.022-0.241-0.009-0.361
				c0.013-0.122,0.041-0.241,0.083-0.356c0.044-0.119,0.103-0.232,0.173-0.338c0.074-0.111,0.16-0.213,0.256-0.306
				c0.101-0.098,0.211-0.186,0.329-0.263c0.123-0.081,0.254-0.151,0.389-0.21c0.284-0.124,0.588-0.2,0.898-0.231
				c0.314-0.031,0.633-0.016,0.941,0.047c0.208,0.043,0.413,0.107,0.607,0.196c0.183,0.083,0.356,0.188,0.512,0.315
				c0.145,0.118,0.275,0.255,0.379,0.41c0.098,0.145,0.173,0.305,0.217,0.474c0.043,0.163,0.056,0.335,0.039,0.503
				c-0.018,0.171-0.067,0.339-0.142,0.494c-0.079,0.165-0.187,0.315-0.312,0.448c-0.135,0.143-0.292,0.266-0.459,0.368
				c-0.044,0.027-0.088,0.052-0.134,0.076c-0.041,0.022-0.083,0.043-0.126,0.062c-0.13,0.06-0.265,0.11-0.403,0.15
				C86.378,155.383,86.358,155.388,86.339,155.394z"/>
		</g>
		<g id="SPLINE_00000168828586316463455150000003408843308804027522_">
			<path class="st0" d="M81.112,157.1c0.325-0.271,0.717-0.448,0.818-0.499c0.1-0.05,0.204-0.093,0.311-0.128
				c0.372-0.115,0.761-0.182,1.152-0.201c0.392-0.019,0.787,0.01,1.171,0.089c0.37,0.076,0.731,0.197,1.068,0.369
				c0.313,0.16,0.605,0.364,0.853,0.611c0.068,0.071,0.131,0.148,0.188,0.229c0.059,0.085,0.111,0.175,0.156,0.268
				c0.018,0.038,0.031,0.079,0.036,0.121c0.006,0.043,0.005,0.088,0.001,0.131v2.112"/>
		</g>
		<path class="st0" d="M86.291,150.204c0.025-0.059,0.047-0.119,0.067-0.18c0.024-0.072,0.045-0.145,0.064-0.219
			c0.041-0.158,0.06-0.228,0.099-0.391c0,0,0.2,0.043,0.237,0.051l3.178,0.65c0.089,0.018,0.176,0.045,0.26,0.081
			c0.079,0.034,0.156,0.076,0.225,0.127c0.066,0.047,0.126,0.102,0.177,0.165c0.048,0.059,0.127,0.189,0.127,0.189l-3.35,9.075
			c-0.039,0.106-0.108,0.201-0.19,0.28c-0.048,0.046-0.1,0.086-0.155,0.122c-0.06,0.039-0.123,0.072-0.188,0.1
			c-0.14,0.06-0.291,0.097-0.444,0.112c-0.156,0.015-0.315,0.007-0.467-0.024l-0.296-0.075l-4.666-1.143l0.001,0l-0.025-0.009
			l-0.038-0.035l-0.024-0.053l-0.015-0.077l-0.006-0.069v0l0.045-1.812"/>
		<g id="LINE_00000162342255452338202280000011823139214613900705_">
			<path class="st0" d="M89.812,152.998l-0.063-1.184c0,0-0.045-0.304-0.045-0.304l0,0.001l-0.008-0.037l-0.056-0.117l-0.098-0.097
				l-0.131-0.068l-0.084-0.024c0,0-5.726-1.171-5.726-1.171c-0.028-0.006-0.056,0.01-0.065,0.036l0,0l-2.59,6.981l-11.228,30.386
				l-2.41-0.511c0,0-0.887-0.114-1.288,0.859"/>
		</g>
	</g>
	<polyline class="st0" points="125.533,143.085 121.031,155.531 121.14,157.707 	"/>
	<path class="st0" d="M104.007,191.864c0,0,2.72-7.615,3.209-8.648c0.49-1.033-0.326-1.74-0.326-1.74l-2.589-2.138l2.07-5.91
		c0,0,1.329-0.589,3.402-0.818c1.86-0.205,2.012-1.469,2.012-1.469l10.28-28.8l0.402,9.217"/>
	<polygon class="st0" points="97.805,139.175 109.404,141.578 104.963,153.544 93.52,151.088 	"/>
	<line class="st0" x1="162.331" y1="150.741" x2="158.013" y2="162.351"/>
	<polyline class="st0" points="139.469,202.032 143.386,202.809 154.942,170.709 	"/>
	<path class="st0" d="M140.194,202.213l-1.219,3.454c0,0-1.164,2.108,2.065,3.016"/>
	<line class="st0" x1="174.38" y1="215.4" x2="58.196" y2="191.62"/>
	<path class="st0" d="M159.114,159.383l-0.305-8.822l-3.192-0.658c0,0-0.721-0.219-1.159,0.94s-1.015,2.838-1.015,2.838
		s-0.533,1.065,0.345,2.225c0,0,0.971,1.003,0.564,2.131c-0.407,1.128-0.627,1.379-0.627,1.379s-0.313,0.815,1.065,1.128
		l-6.611,18.236c0,0-0.282,0.846-1.943,1.097s-2.413,0.501-2.413,0.501s-0.595,0-1.159,1.253c-0.564,1.253-1.598,4.167-1.598,4.167
		s-0.564,0.94,0.313,1.661c0.877,0.721,2.099,1.535,2.099,1.535s0.815,0.533,0.219,1.849c-0.595,1.316-1.911,4.857-1.911,4.857
		s-1.039-0.279-1.48,0.294c-0.441,0.573-0.617,1.763-0.617,1.763s-0.265,0.838,0.97,1.234l-2.601,6.304c0,0-1.146,2.381-4.232,1.719
		"/>
	<path class="st0" d="M57.679,190.408l-0.066-2.59l11.821-31.478l1.063-0.398l1.395-3.652l0.996,0.199l2.191-6.043l-1.992-0.398
		l7.882-21.727l0.698,0.161l0.204-0.487l0.958-2.286c0,0,0.886-0.994,0.929,0.951l0.089,1.399"/>
	<path class="st0" d="M70.393,156.292l-2.404,6.485l-0.056,4.976l6.933,1.454l0.224-0.503c0,0,1.156-0.093,1.707-0.699l-5.406-0.858
		l0.036-1.854l4.435,0.654"/>
	<line class="st0" x1="60.635" y1="186.207" x2="67.937" y2="166.17"/>
	<path class="st0" d="M66.09,187.441l-6.235-1.299c0,0-0.909,1.429,0.162,1.721c1.072,0.292,4.838,1.007,4.838,1.007
		S65.733,189.324,66.09,187.441z"/>
	<path class="st0" d="M58.373,190.686l-0.881,2.569l-0.073,2.569l-1.395,3.45l-0.037,4.734l-1.064,2.312l-3.707-0.734l0.697-7.193
		l2.312-4.478l1.692-3.821l7.584,1.631c0,0,0.973,0.401,1.316-0.658c0.343-1.059,1.202-3.32,1.202-3.32"/>
	<polyline class="st0" points="56.236,199.156 57.543,199.467 59.31,195.712 	"/>
	<polyline class="st0" points="57.481,196.106 57.543,207.716 55.52,207.374 55.458,205.319 	"/>
	<polyline class="st0" points="57.696,207.512 59.31,203.056 59.356,191.87 	"/>
	<polyline class="st0" points="59.518,195.34 100.738,203.92 101.867,204.586 101.996,212.476 	"/>
	<path class="st0" d="M65.106,190.245c0,0-0.441,2.325,2.365,3.247"/>
	<path class="st0" d="M96.501,199.378c4.672,0.501,5.478-3.142,5.478-3.142l1.669-4.728l0.834,0.25v0.695l-0.6,1.382l0.073,0.757"/>
	<path class="st0" d="M104.365,201.071c0,0-3.081-0.998-2.163-3.445l1.029-2.336c0,0,0.222-0.89,1.418-0.612
		c1.196,0.278,1.724,0.473,1.724,0.473l10.806-28.731"/>
	<polyline class="st0" points="114.651,162.915 114.835,165.849 119.833,153.102 119.971,151.176 121.3,147.874 120.192,147.649 	
		"/>
	<line class="st0" x1="117.269" y1="155.794" x2="117.417" y2="159.055"/>
	<polyline class="st0" points="121.409,154.432 121.227,150.609 121.513,150.089 121.3,147.874 	"/>
	<polyline class="st0" points="158.072,164.807 157.723,153.555 159.031,149.898 	"/>
	<line class="st0" x1="156.276" y1="153.057" x2="157.624" y2="153.325"/>
	<g id="SPLINE_00000058578943016872027370000017197326759267413671_">
		<path class="st0" d="M154.513,155.714l-0.404-0.946c-0.013-0.03-0.02-0.063-0.021-0.096c-0.001-0.033,0.005-0.066,0.016-0.097
			l0.794-2.152c0.016-0.044,0.044-0.083,0.077-0.116c0.037-0.037,0.082-0.065,0.129-0.085c0.051-0.022,0.106-0.036,0.162-0.042
			c0.057-0.006,0.114-0.003,0.17,0.008l0.553,0.113c0.041,0.008,0.081,0.022,0.119,0.04c0.035,0.017,0.069,0.039,0.098,0.065
			c0.027,0.024,0.05,0.053,0.068,0.085c0.016,0.03,0.027,0.063,0.031,0.096c0.004,0.03,0.002,0.061-0.005,0.091
			c-0.002,0.01-0.005,0.02-0.009,0.03l-0.292,0.791c-0.002,0.006-0.003,0.013-0.002,0.02c0.001,0.007,0.004,0.013,0.008,0.019
			c0.009,0.013,0.025,0.02,0.04,0.023l0.055,0.011c0.044,0.009,0.088,0.025,0.127,0.048c0.036,0.021,0.068,0.048,0.092,0.081
			c0.022,0.03,0.038,0.065,0.044,0.103c0.006,0.036,0.001,0.074-0.011,0.108l-0.682,1.847c-0.016,0.044-0.044,0.083-0.077,0.116
			c-0.037,0.037-0.082,0.065-0.129,0.085c-0.051,0.022-0.106,0.036-0.162,0.042c-0.057,0.006-0.114,0.003-0.17-0.008l-0.322-0.066
			c-0.065-0.013-0.129-0.039-0.184-0.078C154.578,155.814,154.537,155.768,154.513,155.714"/>
	</g>
	<ellipse class="st0" cx="156.206" cy="151.189" rx="0.84" ry="0.504"/>
	<g id="SPLINE_00000166655015672398347750000005487735434654730173_">
		<path class="st0" d="M95.384,191.348c0.173-0.091,0.335-0.21,0.469-0.353c0.063-0.067,0.119-0.139,0.168-0.217
			c0.047-0.074,0.086-0.153,0.117-0.235l9.376-25.401c0.033-0.089,0.055-0.183,0.065-0.278c0.01-0.094,0.007-0.188-0.007-0.281
			c-0.015-0.094-0.042-0.187-0.079-0.274c-0.039-0.091-0.089-0.177-0.148-0.256c-0.062-0.084-0.134-0.16-0.212-0.229
			c-0.082-0.073-0.172-0.137-0.267-0.192c-0.202-0.119-0.427-0.201-0.656-0.248l-14.747-3.016c-0.24-0.049-0.489-0.061-0.734-0.037
			c-0.241,0.024-0.479,0.084-0.7,0.18c-0.106,0.046-0.207,0.101-0.304,0.164c-0.092,0.06-0.178,0.129-0.256,0.205
			c-0.074,0.073-0.142,0.152-0.199,0.239c-0.055,0.082-0.101,0.171-0.135,0.263l-9.376,25.401c-0.027,0.073-0.047,0.149-0.058,0.226
			c-0.011,0.076-0.015,0.153-0.011,0.229c0.005,0.077,0.017,0.153,0.038,0.227c0.021,0.076,0.049,0.149,0.085,0.219
			c0.075,0.148,0.179,0.28,0.301,0.393c0.133,0.123,0.287,0.222,0.449,0.299c0.039,0.018,0.079,0.036,0.119,0.052
			c0.123,0.049,0.252,0.087,0.382,0.114l14.747,3.016c0.267,0.055,0.544,0.063,0.816,0.027
			C94.89,191.55,95.15,191.472,95.384,191.348"/>
	</g>
	<g id="SPLINE_00000124127472434297257380000004947326489543455927_">
		<path class="st0" d="M132.144,198.907c0.173-0.091,0.335-0.21,0.469-0.353c0.063-0.067,0.119-0.139,0.168-0.217
			c0.047-0.074,0.086-0.153,0.117-0.235l9.376-25.401c0.033-0.089,0.055-0.183,0.065-0.278c0.01-0.094,0.007-0.188-0.007-0.281
			c-0.015-0.094-0.042-0.187-0.079-0.274c-0.039-0.091-0.089-0.177-0.148-0.256c-0.062-0.084-0.134-0.16-0.212-0.229
			c-0.082-0.073-0.172-0.137-0.267-0.192c-0.202-0.119-0.427-0.201-0.656-0.248l-14.747-3.016c-0.24-0.049-0.489-0.061-0.734-0.037
			c-0.241,0.024-0.479,0.084-0.7,0.18c-0.106,0.046-0.207,0.101-0.304,0.164c-0.092,0.06-0.178,0.129-0.256,0.206
			c-0.074,0.073-0.142,0.152-0.199,0.239c-0.055,0.082-0.101,0.171-0.135,0.263l-9.376,25.401c-0.027,0.073-0.047,0.149-0.058,0.226
			c-0.011,0.076-0.015,0.153-0.011,0.229c0.005,0.077,0.017,0.153,0.038,0.227c0.021,0.076,0.049,0.149,0.085,0.219
			c0.075,0.148,0.179,0.28,0.301,0.393c0.133,0.123,0.287,0.222,0.449,0.299c0.039,0.018,0.079,0.036,0.119,0.052
			c0.123,0.049,0.252,0.087,0.382,0.114l14.747,3.016c0.267,0.055,0.544,0.063,0.816,0.027
			C131.65,199.109,131.91,199.031,132.144,198.907"/>
	</g>
	<g id="SPLINE_00000167374311143870386570000003421710411660195482_">
		<path class="st0" d="M169.008,206.362c0.173-0.091,0.335-0.21,0.469-0.353c0.063-0.067,0.119-0.139,0.168-0.217
			c0.047-0.074,0.086-0.153,0.117-0.235l9.376-25.401c0.033-0.089,0.055-0.183,0.065-0.278c0.01-0.094,0.007-0.188-0.007-0.281
			c-0.015-0.094-0.042-0.187-0.079-0.274c-0.039-0.091-0.089-0.177-0.148-0.256c-0.062-0.084-0.134-0.16-0.212-0.229
			c-0.082-0.073-0.172-0.137-0.267-0.192c-0.202-0.119-0.427-0.201-0.656-0.248l-14.747-3.016c-0.24-0.049-0.489-0.061-0.734-0.037
			c-0.241,0.024-0.479,0.084-0.7,0.18c-0.106,0.046-0.207,0.101-0.304,0.164c-0.092,0.06-0.178,0.129-0.256,0.206
			c-0.074,0.073-0.142,0.152-0.199,0.239c-0.055,0.082-0.101,0.171-0.135,0.263l-9.376,25.401c-0.027,0.073-0.047,0.149-0.058,0.226
			c-0.011,0.076-0.015,0.153-0.011,0.229c0.005,0.077,0.017,0.153,0.038,0.227c0.021,0.076,0.049,0.149,0.085,0.219
			c0.075,0.148,0.179,0.28,0.301,0.393c0.133,0.123,0.287,0.222,0.449,0.299c0.039,0.018,0.079,0.036,0.119,0.052
			c0.123,0.049,0.252,0.087,0.382,0.114l14.747,3.016c0.267,0.055,0.544,0.063,0.816,0.027
			C168.514,206.565,168.774,206.486,169.008,206.362"/>
	</g>
	<path class="st0" d="M195.772,157.854l-3.192-0.658c0,0-0.721-0.219-1.159,0.94s-1.015,2.838-1.015,2.838s-0.533,1.065,0.345,2.225
		c0,0,0.971,1.003,0.564,2.131c-0.407,1.128-0.627,1.379-0.627,1.379s-0.313,0.815,1.065,1.128l-6.611,18.236
		c0,0-0.282,0.846-1.943,1.097s-2.413,0.501-2.413,0.501s-0.595,0-1.159,1.253c-0.564,1.253-1.598,4.167-1.598,4.167
		s-0.564,0.94,0.313,1.661c0.877,0.721,2.099,1.535,2.099,1.535s0.815,0.533,0.219,1.849c-0.595,1.316-1.911,4.857-1.911,4.857
		s-1.039-0.279-1.48,0.294c-0.441,0.573-0.617,1.763-0.617,1.763s-0.265,0.838,0.97,1.234l-2.601,6.304c0,0-1.328,2.682-4.414,2.021
		"/>
	<line class="st0" x1="171.951" y1="214.93" x2="172.168" y2="219.821"/>
	<path class="st0" d="M143.123,209.043l0.087,3.852c0,0,0.173,1.299,1.515,1.688"/>
	<path class="st0" d="M143.72,209.099l0.143,3.848c0,0,1.14,0.057,0.998,0.57s-0.314,0.998-0.314,0.998l-0.029,1.226l25.884,5.302
		l0.2-1.34c0,0,0.029-1.34,1.397-1.112"/>
	<path class="st0" d="M107.008,201.723l0.103,3.776c0,0,1.098,0.069,0.995,0.652c-0.103,0.584-0.309,0.892-0.309,0.892l0.034,1.167
		l25.847,5.286l0.103-1.304c0,0,0-1.407,1.545-1.064"/>
	<path class="st0" d="M135.155,207.421l0.103,2.918c0,0,0.618,2.609-1.476,1.854"/>
	<path class="st0" d="M106.253,201.62v3.741c0,0-0.24,1.064,1.545,1.682"/>
	<path class="st0" d="M59.118,203.636c0,0-0.58,1.625,1.48,2.031c2.06,0.406,8.53,1.712,8.53,1.712s0.928,0.609,1.596-1.625
		l-0.087-8.036"/>
	<polyline class="st0" points="70.588,198.53 77.454,199.957 77.51,205.61 	"/>
	<line class="st0" x1="70.897" y1="205.77" x2="75.805" y2="206.783"/>
	<line class="st0" x1="70.845" y1="204.945" x2="76.153" y2="206.028"/>
	<polyline class="st0" points="77.501,205.59 78.658,205.835 78.884,203.58 79.091,202.781 79.451,202.858 79.529,205.693 
		79.216,206.31 79.268,207.496 78.929,208.461 77.625,208.174 	"/>
	<path class="st0" d="M77.562,208.695l-0.08-3.126l-1.03-0.207l-1.598,4.09l0.139,2.967c0,0,0.697,0.657,1.055,0.1L77.562,208.695z"
		/>
	<path class="st0" d="M76.452,205.362l-0.137-3.854c0,0-0.068-0.707-0.775-0.798c-0.707-0.091-2.304-0.479-2.304-0.479l-1.551,0.798
		l0.068,2.668l1.414,1.574"/>
	<polyline class="st0" points="91.087,208.685 90.506,209.489 90.422,210.819 81.5,208.962 81.528,207.438 81.888,206.69 	"/>
	<path class="st0" d="M80.807,199.901l0.194,6.65l-0.471,0.72l-0.055,1.635c0,0,0.194,0.942,1.136,1.108
		c0.942,0.166,8.978,1.773,8.978,1.773s1.053,0.111,1.469-1.635l-0.083-6.484l1.053-1.385"/>
	<line class="st0" x1="81.666" y1="207.993" x2="90.395" y2="209.711"/>
	<line class="st0" x1="79.268" y1="207.496" x2="80.4" y2="207.718"/>
	<polyline class="st0" points="92.407,203.041 98.767,204.3 98.807,209.66 100.027,209.828 100.286,207.544 100.722,207.068 
		100.762,210.006 100.544,210.721 100.553,212.13 170.389,226.617 	"/>
	<line class="st0" x1="92.052" y1="209.272" x2="97.454" y2="210.355"/>
	<line class="st0" x1="92.062" y1="210.128" x2="97.153" y2="211.146"/>
	<path class="st0" d="M94.928,209.676l-1.885-1.621l-0.057-2.677l1.508-0.792c0,0,1.49,0.377,2.244,0.434
		c0.754,0.057,0.886,0.716,0.886,0.716l0.113,3.978l-1.602,4.106l0.139,3.058c0.894,0.516,1.112,0,1.112,0l1.509-3.912l-0.118-3.276
		c0,0-0.22-0.02-0.895-0.1"/>
	<polyline class="st0" points="98.856,212.548 100.147,212.806 100.504,211.893 	"/>
	<g>
		<polygon class="st0" points="103.805,209.767 116.002,212.273 116.094,214.413 103.896,211.907 		"/>
		<line class="st0" x1="106.831" y1="210.592" x2="106.892" y2="212.396"/>
		<line class="st0" x1="109.857" y1="211.295" x2="109.919" y2="213.099"/>
		<line class="st0" x1="112.884" y1="211.998" x2="112.945" y2="213.538"/>
	</g>
	<g>
		<polygon class="st0" points="117.379,212.582 125.271,214.278 125.363,216.418 117.471,214.722 		"/>
		<line class="st0" x1="121.311" y1="213.626" x2="121.372" y2="215.43"/>
	</g>
	<g>
		<polygon class="st0" points="126.666,214.57 137.135,216.773 137.226,218.852 126.757,216.649 		"/>
		<line class="st0" x1="131.996" y1="215.799" x2="132.057" y2="217.551"/>
	</g>
	<polygon class="st0" points="138.905,214.157 142.401,214.856 142.497,216.858 138.905,216.159 	"/>
	<polygon class="st0" points="138.905,216.963 142.401,217.662 142.497,219.664 138.905,218.965 	"/>
	<line class="st0" x1="193.185" y1="160.37" x2="194.939" y2="160.739"/>
	<g id="SPLINE_00000175322790335976204890000015901879313268949916_">
		<path class="st0" d="M191.423,163.027l-0.404-0.946c-0.013-0.03-0.02-0.063-0.021-0.096c-0.001-0.033,0.005-0.066,0.016-0.097
			l0.794-2.152c0.016-0.044,0.044-0.083,0.077-0.116c0.037-0.037,0.082-0.065,0.129-0.085c0.051-0.022,0.106-0.036,0.162-0.042
			c0.057-0.006,0.114-0.003,0.17,0.008l0.553,0.113c0.041,0.008,0.081,0.022,0.119,0.04c0.035,0.017,0.069,0.039,0.098,0.065
			c0.027,0.024,0.05,0.053,0.068,0.085c0.016,0.03,0.027,0.063,0.031,0.096c0.004,0.03,0.002,0.061-0.005,0.091
			c-0.002,0.01-0.005,0.02-0.009,0.03l-0.292,0.791c-0.002,0.006-0.003,0.013-0.002,0.02c0.001,0.007,0.004,0.013,0.008,0.019
			c0.009,0.012,0.025,0.02,0.04,0.023l0.055,0.011c0.044,0.009,0.088,0.025,0.127,0.048c0.036,0.021,0.068,0.048,0.092,0.081
			c0.022,0.03,0.038,0.065,0.044,0.102c0.006,0.036,0.001,0.074-0.011,0.108l-0.682,1.847c-0.016,0.044-0.044,0.083-0.077,0.116
			c-0.037,0.037-0.082,0.065-0.129,0.085c-0.051,0.022-0.106,0.036-0.162,0.042c-0.057,0.006-0.114,0.003-0.17-0.008l-0.322-0.066
			c-0.065-0.013-0.129-0.039-0.184-0.078C191.487,163.127,191.446,163.081,191.423,163.027"/>
	</g>
	<ellipse class="st0" cx="193.116" cy="158.502" rx="0.84" ry="0.504"/>
	<path class="st0" d="M68.069,162.616l3.01,0.719l3.545,0.498l0.002,0.93c0.477,0.079,1.51,1.152,1.51,1.152l0.926-2.222"/>
	<path class="st0" d="M74.825,163.491l4.212-10.531c0,0-0.556-2.623,1.868-4.53l-0.079-0.795l2.861-7.272l-5.444-1.152l1.391-3.537
		l1.113,0.199l0.358-0.119l3.656,0.755l-1.351,3.576"/>
	<polyline class="st0" points="75.571,139.208 76.48,139.39 76.953,138.663 78.916,133.464 85.314,134.464 86.768,134.937 
		86.877,136.209 86.368,135.991 84.759,136.508 	"/>
	<path class="st0" d="M83.496,140.608c0,0,2.29,0.727,2.218,3.272"/>
	<path class="st0" d="M84.623,136.827c0,0,2.363,1.091,2.545,3.345"/>
	<polyline class="st0" points="85.314,142.353 82.769,149.551 82.297,149.405 79.534,157.149 79.57,158.167 77.244,164.092 	"/>
	<path class="st0" d="M75.208,162.275c0,0,2.363,0.909,2.363,3.381"/>
	<polyline class="st0" points="73.086,146.047 73.185,147.642 71.648,151.861 71.89,152.289 	"/>
	<polyline class="st0" points="69.433,156.34 70.864,152.735 71.617,152.796 	"/>
	<polyline class="st0" points="81.913,132.153 79.753,131.778 79.789,130.628 80.468,128.592 82.664,128.971 	"/>
	<path class="st0" d="M87.84,133.422l-0.001,0.145l0.192,1.655c0,0-0.114,0.739-1.108,0.71l0.057-0.426l0.811-1.962"/>
	<polyline class="st0" points="85.581,136.326 86.153,136.961 87.16,137.213 87.169,137.859 86.798,138.699 	"/>
	<line class="st0" x1="52.518" y1="200.243" x2="54.505" y2="200.65"/>
	<line class="st0" x1="52.518" y1="201.044" x2="54.505" y2="201.45"/>
	<line class="st0" x1="52.459" y1="201.785" x2="54.447" y2="202.191"/>
	<line class="st0" x1="52.401" y1="202.527" x2="54.388" y2="202.933"/>
	<line class="st0" x1="52.323" y1="203.288" x2="54.31" y2="203.694"/>
	<line class="st0" x1="52.245" y1="204.01" x2="54.232" y2="204.416"/>
	<line class="st0" x1="52.186" y1="204.732" x2="54.173" y2="205.138"/>
	<path class="st0" d="M67.74,198.256c-3.205-2.08-5.851-0.754-5.851-0.754l1.88,1.159c0,0,2.402-0.448,3.377,1.414l0.834-1.132
		L67.74,198.256z"/>
	<path class="st0" d="M61.299,201.647l-0.661-0.504c-0.464-2.46,0.856-3.051,0.856-3.051l1.501,0.898c0,0-1.455,0.276-1.137,1.631
		C61.858,200.62,61.279,201.071,61.299,201.647z"/>
	<polyline class="st0" points="60.326,201.982 60.249,203.259 60.191,204.68 69.156,206.537 69.185,203.946 69.816,203.14 	"/>
	<path class="st0" d="M67.689,203.611c0,0-2.459,0.952-5.662-1.06c0,0-0.3-0.486,0.343-1.341c0,0,1.2,1.347,3.129,1.371
		C65.498,202.581,66.005,203.285,67.689,203.611z"/>
	<line class="st0" x1="60.251" y1="203.482" x2="68.97" y2="205.335"/>
	<path class="st0" d="M66.512,202.357c0,0,1.14-0.136,1.08-1.596l0.658-0.764l0.338-0.533c0,0,0.871,1.91-0.232,3.504
		C68.356,202.969,66.939,202.832,66.512,202.357z"/>
	<g>
		<path class="st0" d="M89.297,202.905c-3.072-1.994-5.608-0.722-5.608-0.722l1.802,1.111c0,0,2.303-0.429,3.237,1.356l0.8-1.086
			L89.297,202.905z"/>
		<path class="st0" d="M83.123,206.155l-0.633-0.483c-0.445-2.358,0.82-2.925,0.82-2.925l1.439,0.861c0,0-1.395,0.265-1.09,1.563
			C83.658,205.171,83.104,205.603,83.123,206.155z"/>
		<path class="st0" d="M89.248,208.038c0,0-2.357,0.912-5.428-1.016c0,0-0.288-0.466,0.329-1.285c0,0,1.15,1.291,3,1.314
			C87.148,207.05,87.634,207.725,89.248,208.038z"/>
		<path class="st0" d="M88.119,206.836c0,0,1.092-0.13,1.035-1.53l0.631-0.732l0.324-0.511c0,0,0.835,1.831-0.222,3.359
			C89.887,207.422,88.529,207.292,88.119,206.836z"/>
	</g>
	<path class="st0" d="M69.56,193.964c0,0-0.274,1.503,1.248,1.741"/>
	<path class="st0" d="M98.402,199.864c0,0,0.402,1.566-1.365,1.265"/>
	<polyline class="st0" points="97.378,199.583 96.876,200.948 96.856,202.294 70.774,196.892 70.814,195.728 71.413,194.358 	"/>
	<polygon class="st0" points="147.374,217.756 148.99,218.102 149.059,220.571 147.413,220.216 	"/>
	<g>
		<polygon class="st0" points="153.115,220.352 157.014,221.155 160.956,221.967 160.956,223.738 153.115,222.123 		"/>
		<line class="st0" x1="157.049" y1="222.879" x2="157.014" y2="221.155"/>
	</g>
	<g>
		<polygon class="st0" points="162.034,222.17 165.933,222.973 169.875,223.785 169.875,225.556 162.034,223.941 		"/>
		<line class="st0" x1="165.968" y1="224.696" x2="165.933" y2="222.973"/>
	</g>
	<g id="SPLINE_00000052065063925864384640000016269182678134379422_">
		<path class="st0" d="M143.996,219.27c0.001-0.01,0.003-0.021,0.007-0.031c0.003-0.009,0.007-0.017,0.012-0.024
			c0.011-0.016,0.025-0.029,0.042-0.039c0.044-0.027,0.099-0.035,0.151-0.032c0.02,0.001,0.04,0.004,0.06,0.008l1.802,0.369
			c0.054,0.011,0.107,0.032,0.154,0.063c0.042,0.027,0.08,0.061,0.104,0.104c0.013,0.023,0.022,0.049,0.023,0.076l0.004,0.168
			l-0.006,0.034c-0.007,0.018-0.02,0.034-0.036,0.046c-0.006,0.004-0.012,0.008-0.019,0.011l-0.207,0.102
			c-0.027,0.013-0.057,0.019-0.087,0.019c-0.011,0-0.022,0-0.034-0.001c-0.012-0.001-0.025-0.003-0.037-0.005l-1.492-0.305
			c-0.012-0.003-0.025-0.006-0.037-0.01c-0.03-0.01-0.06-0.023-0.086-0.041c-0.013-0.008-0.025-0.017-0.036-0.027l-0.213-0.188
			c-0.013-0.011-0.025-0.024-0.035-0.038c-0.009-0.012-0.017-0.026-0.022-0.04c-0.005-0.013-0.008-0.026-0.008-0.039l-0.004-0.168
			L143.996,219.27z"/>
	</g>
	<polyline class="st0" points="213.015,104.254 211.902,104.639 105.319,82.919 	"/>
	<polyline class="st0" points="121.807,78.779 118.943,79.467 118.943,80.269 115.849,83.248 116.021,80.326 119.172,76.258 
		122.151,75.342 	"/>
	<path class="st0" d="M146.619,73.643l-1.549,11.791l-3.25,4.081c0,0-0.794,0.529-0.68-0.68s0.491-3.779,0.491-3.779l4.497-11.413
		H146.619z"/>
	<path class="st0" d="M125.288,66.529l-0.815,1.086l-2.127,6.924l-0.679,5.249c0,0,0.226,0.679,0.86-0.045
		c0.634-0.724,4.525-5.657,4.525-5.657l8.221-64.189l-0.532-0.887l-2.041,2.751l-0.266,3.372l-3.017,4.792l-1.154,10.916l1.952-2.13
		l-2.683,20.533h0.74l-0.542,4.439l-0.888,0.444L125.288,66.529z"/>
	<polygon class="st0" points="148.969,84.644 151.969,81.203 152.322,77.761 151.528,76.349 149.41,73.702 149.057,71.495 
		150.116,63.906 150.469,55.258 147.292,75.908 148.881,81.203 	"/>
	<polygon class="st0" points="175.039,84.876 174.405,91.459 179.56,85.431 187.888,21.745 184.795,31.58 184.001,38.797 
		183.446,39.669 182.653,45.459 182.125,46.237 180.115,64.256 179.481,64.969 177.895,77.58 177.339,78.373 	"/>
	<polyline class="st0" points="174.216,90.637 173.284,92.102 173.106,95.119 176.301,91.88 176.491,89.319 	"/>
	<polyline class="st0" points="202.294,79.305 201.764,82.685 202.228,84.739 203.752,86.395 	"/>
	<polyline class="st0" points="204.68,79.769 203.288,91.829 204.51,90.356 205.872,88.715 206.005,87.323 205.475,85.865 
		205.806,85.203 205.087,82.808 205.419,79.892 	"/>
	<polyline class="st0" points="204.494,91.807 201.326,95.486 201.479,92.113 199.844,86.697 200.61,82.405 200.917,81.689 
		205.822,44.336 203.881,46.482 204.545,39.993 205.924,38.102 207.049,28.854 209.859,25.174 135.274,9.897 	"/>
	<path class="st0" d="M227.136,28.691l-16.235-3.338l-0.051,0.961l-3.035,9.458l-0.708,7.182l-0.556,2.175l12.846,2.681
		c0,0,2.377-1.315,0-4.248l-9.963-2.023l0.506-0.759l1.72-12.644l1.696-2.136"/>
	<line class="st0" x1="225.408" y1="50.6" x2="219.771" y2="94.882"/>
	<path class="st0" d="M219.771,94.882"/>
	<polyline class="st0" points="216.76,103.368 214.7,96.184 217.429,73.888 218.027,73.089 219.758,60.511 219.292,60.178 
		222.197,38.489 222.716,38.517 224.843,32.325 228.335,27.605 226.969,38.339 224.538,41.435 223.03,53.117 225.969,49.017 
		227.13,38.688 	"/>
	<polyline class="st0" points="221.662,27.724 219.878,30.037 218.358,43.058 	"/>
	<polyline class="st0" points="222.42,27.97 222.327,29.001 219.702,37.953 220.546,38.085 219.936,40.062 219.398,43.561 	"/>
	<line class="st0" x1="205.25" y1="50.503" x2="220.096" y2="53.713"/>
	<line class="st0" x1="203.966" y1="61.176" x2="219.053" y2="64.226"/>
	<polyline class="st0" points="216.283,82.053 213.16,81.409 201.357,78.976 	"/>
	<polyline class="st0" points="213.16,81.409 211.709,93.403 214.246,90.867 214.412,89.412 213.373,85.129 213.747,81.595 	"/>
	<polyline class="st0" points="206.18,87.79 212.042,89.038 208.591,99.89 208.3,103.299 212.208,98.809 213.123,92.031 	"/>
	<line class="st0" x1="179.67" y1="84.975" x2="200.494" y2="89.197"/>
	<line class="st0" x1="180.672" y1="77.604" x2="200.917" y2="81.689"/>
	<line class="st0" x1="181.531" y1="70.09" x2="201.639" y2="74.383"/>
	<line class="st0" x1="182.747" y1="61.789" x2="202.928" y2="66.082"/>
	<line class="st0" x1="183.821" y1="53.488" x2="204.001" y2="57.781"/>
	<line class="st0" x1="184.823" y1="44.829" x2="205.217" y2="49.266"/>
	<line class="st0" x1="186.039" y1="36.17" x2="204.545" y2="39.993"/>
	<polyline class="st0" points="167.291,16.517 165.467,18.948 163.845,32.391 179.788,35.837 181.004,35.094 181.679,29.96 
		184.449,21.043 184.517,20.097 	"/>
	<line class="st0" x1="187.888" y1="21.745" x2="184.449" y2="21.043"/>
	<polyline class="st0" points="166.277,17.462 157.563,15.638 154.726,25.163 153.738,33.062 150.605,58.129 	"/>
	<line class="st0" x1="183.436" y1="39.079" x2="153.738" y2="33.062"/>
	<line class="st0" x1="152.902" y1="39.755" x2="182.085" y2="45.767"/>
	<line class="st0" x1="180.936" y1="56.44" x2="151.483" y2="50.361"/>
	<line class="st0" x1="150.116" y1="63.906" x2="178.481" y2="69.98"/>
	<line class="st0" x1="133.399" y1="25.7" x2="153.837" y2="29.907"/>
	<line class="st0" x1="132.398" y1="34.215" x2="152.735" y2="38.523"/>
	<line class="st0" x1="131.195" y1="42.631" x2="151.833" y2="47.039"/>
	<line class="st0" x1="129.693" y1="51.046" x2="150.469" y2="55.258"/>
	<line class="st0" x1="129.084" y1="59.503" x2="149.054" y2="63.639"/>
	<line class="st0" x1="128.105" y1="66.577" x2="148.02" y2="70.876"/>
	<line class="st0" x1="146.053" y1="78.421" x2="147.803" y2="78.82"/>
	<line class="st0" x1="127.053" y1="74.086" x2="144.24" y2="78.007"/>
	<line class="st0" x1="149.435" y1="72.073" x2="158.196" y2="73.869"/>
	<line class="st0" x1="159.88" y1="78.234" x2="174.193" y2="81.16"/>
	<line class="st0" x1="152.101" y1="76.644" x2="157.653" y2="77.779"/>
	<polyline class="st0" points="176.125,80.902 175.465,77.441 175.905,72.498 175.136,73.322 173.708,85.626 174.971,84.417 	"/>
	<polyline class="st0" points="158.602,70.355 157.174,82.055 159.756,79.419 159.371,76.727 159.811,76.178 158.877,73.047 
		159.206,70.191 158.273,69.861 158.932,69.092 162.063,69.751 162.502,69.202 164.699,69.696 164.699,70.301 170.192,71.399 
		170.522,70.905 172.719,71.344 172.609,72.003 175.411,72.608 	"/>
	<line class="st0" x1="125.228" y1="63.487" x2="111.856" y2="60.608"/>
	<line class="st0" x1="127.55" y1="45.75" x2="104.334" y2="41.014"/>
	<line class="st0" x1="129.129" y1="35.071" x2="105.82" y2="30.335"/>
	<line class="st0" x1="128.757" y1="25.32" x2="106.749" y2="21.049"/>
	<polyline class="st0" points="108.142,14.455 107.306,17.334 102.663,54.758 	"/>
	<path class="st0" d="M111.63,63.288l0.942-5.654c0,0,1.068-0.942-1.194-1.382c-2.262-0.44-8.105-1.508-8.105-1.508
		s-1.445-0.126-1.571,1.257c-0.126,1.382-0.434,3.773-0.434,3.773l0.129,0.027l9.715,2.016l0.65,1.95l13.525,2.763"/>
	<polyline class="st0" points="101.399,59.799 103.148,66.806 102.206,72.523 100.887,75.476 100.196,80.125 99.442,80.062 	"/>
	<path class="st0" d="M84.253,134.313l13.201-36.122l1.061,0.088l3.803-10.436l-0.973-0.442l0.884-2.476l2.476,0.442
		c0,0,0.177-2.034,0.884-2.83l-1.519-0.344l-1.299,1.263L99.63,82.89l-0.503-0.754l0.377-3.016l-1.948-7.288l7.162-53.528
		l4.021-5.529l2.262,0.377l1.131-1.319l5.026,1.068"/>
	<path class="st0" d="M120.947,5.508l0.085,2.394l-2.735,9.061l-0.94,1.111c0,0-0.769-0.085-0.513-1.881
		c0.256-1.795,0.855-6.497,0.855-6.497L120.947,5.508z"/>
	<line class="st0" x1="226.456" y1="27.276" x2="227.863" y2="27.571"/>
	<line class="st0" x1="200.758" y1="21.977" x2="223.606" y2="26.693"/>
	<line class="st0" x1="189.74" y1="19.716" x2="196.421" y2="21.082"/>
	<line class="st0" x1="164.004" y1="14.391" x2="186.623" y2="19.06"/>
	<line class="st0" x1="120.956" y1="5.507" x2="159.61" y2="13.484"/>
	<polyline class="st0" points="108.74,12.776 108.965,10.581 109.738,10.22 110.099,7.848 110.718,7.539 112.007,7.745 
		112.316,10.065 112.133,11.833 	"/>
	<polygon class="st0" points="149.072,11.045 150.154,10.22 151.598,10.529 152.423,11.612 152.216,12.591 148.969,11.869 	"/>
	<polygon class="st0" points="160.568,12.385 163.609,13.055 163.97,14.241 163.506,14.911 159.743,14.138 159.743,13.571 	"/>
	<polygon class="st0" points="186.877,18.85 187.977,18.07 188.985,18.208 189.673,19.124 189.518,20.135 186.808,19.582 	"/>
	<polygon class="st0" points="196.561,21.094 197.462,19.976 200.31,20.589 200.706,21.635 200.382,22.572 196.669,21.815 	"/>
	<polygon class="st0" points="223.644,27.169 223.799,26.294 224.829,25.573 225.859,25.753 226.503,26.706 226.297,27.736 	"/>
	<line class="st0" x1="103.148" y1="66.806" x2="123.365" y2="70.823"/>
	<path class="st0" d="M102.682,70.924l2.129,0.406c0,0,0.912,0,0.71,1.115c-0.203,1.115-1.45,9.747-1.45,9.747"/>
	<polyline class="st0" points="92.971,119.481 91.445,119.22 85.758,134.625 	"/>
	<polyline class="st0" points="91.819,136.003 97.677,120.286 95.427,119.901 	"/>
	<path class="st0" d="M93.185,117.367"/>
	<polyline class="st0" points="106.717,83.478 105.697,86.383 105.71,89.609 114.776,91.387 116.148,87.19 116.396,85.211 	"/>
	<polyline class="st0" points="106.02,86.383 114.575,88.199 115.745,85.132 	"/>
	<line class="st0" x1="114.776" y1="91.387" x2="114.575" y2="88.199"/>
	<line class="st0" x1="196.056" y1="102.72" x2="215.459" y2="106.721"/>
	<line class="st0" x1="137.89" y1="90.881" x2="161.91" y2="95.755"/>
	<path class="st0" d="M116.31,87.473c0,0,0.847,0.565,1.009-0.767l10.876,2.207"/>
	<polyline class="st0" points="186.525,99.498 185.799,101.072 185.758,105.168 194.273,106.804 	"/>
	<polyline class="st0" points="194.765,101.238 194.112,102.847 194.273,106.692 196.391,101.525 	"/>
	<line class="st0" x1="185.799" y1="101.072" x2="194.112" y2="102.847"/>
	<polyline class="st0" points="162.424,94.582 161.283,97.784 164.117,98.336 165.331,95.208 	"/>
	<polyline class="st0" points="161.306,97.829 161.283,100.869 164.117,101.421 166.244,95.444 	"/>
	<line class="st0" x1="166.09" y1="96.603" x2="185.92" y2="100.628"/>
	<path class="st0" d="M166.472,95.465"/>
	<polyline class="st0" points="128.63,87.681 128.096,89.148 127.957,89.532 127.889,93.2 136.268,94.882 138.354,89.633 	"/>
	<polyline class="st0" points="136.975,89.364 136.302,90.979 128.226,89.297 	"/>
	<line class="st0" x1="136.403" y1="94.411" x2="136.302" y2="90.979"/>
	<polyline class="st0" points="191.002,150.178 190.298,151.635 190.248,152.489 189.745,154.097 190.65,154.298 190.516,154.923 	
		"/>
	<polyline class="st0" points="193.323,155.536 193.166,154.8 192.431,154.59 192.956,153.068 192.903,152.122 193.638,151.02 
		193.486,147.588 203.683,121.022 204.066,120.883 204.48,120.524 206.559,120.951 206.616,122.084 	"/>
	<polyline class="st0" points="209.895,121.637 207.63,121.171 206.924,121.824 205.979,122.559 205.874,123.556 205.979,126.602 
		196.999,151.492 196.212,151.23 195.476,152.647 195.529,153.488 194.951,155.115 195.844,155.326 196.001,156.113 	"/>
	<polyline class="st0" points="190.516,154.923 192.522,155.355 192.749,154.805 	"/>
	<polyline class="st0" points="193.427,155.567 195.257,155.949 195.431,155.306 	"/>
	<line class="st0" x1="196.737" y1="156.271" x2="196.079" y2="156.128"/>
	<polyline class="st0" points="199.365,119.538 199.115,119.847 198.359,120.254 188.417,147.415 188.409,149.973 187.714,151.155 
		187.76,152.036 187.204,153.612 188.038,153.844 188.037,154.449 189.834,154.81 190.078,154.189 	"/>
	<polyline class="st0" points="198.442,119.283 197.038,118.994 196.378,119.627 195.725,122.089 195.976,124.752 186.68,149.475 
		185.826,149.223 185.123,150.63 185.173,151.384 184.62,153.092 185.525,153.293 185.525,153.846 187.227,154.261 187.511,153.702 
			"/>
	<polyline class="st0" points="201.504,121.354 201.352,119.881 199.235,119.446 	"/>
	<polyline class="st0" points="107.488,100.588 172.423,113.935 172.356,115.221 171.592,115.429 171.523,116.401 171.731,118.692 	
		"/>
	<polyline class="st0" points="204.034,120.378 202.356,120.054 202.059,120.595 201.68,120.973 201.031,122.894 200.841,125.275 
		191.319,149.975 	"/>
	<path class="st0" d="M200.535,148.552l0.91-2.329c0,0,0.645-1.176,0.835,0.228s0.228,2.58,0.228,2.58"/>
	<line class="st0" x1="202.306" y1="146.975" x2="204.414" y2="141.638"/>
	<polygon class="st0" points="169.179,118.221 173.083,119.049 174.267,115.914 187.695,118.694 186.63,121.77 190.476,122.599 
		188.05,129.402 184.146,128.455 183.022,131.531 186.985,132.36 184.501,139.103 180.419,138.216 179.236,141.47 165.866,138.689 
		167.049,135.554 162.967,134.785 165.689,127.982 169.475,128.751 170.599,125.734 166.576,124.906 	"/>
	<line class="st0" x1="187.695" y1="118.694" x2="187.838" y2="121.955"/>
	<line class="st0" x1="190.476" y1="122.599" x2="190.754" y2="132.508"/>
	<polyline class="st0" points="188.05,129.402 188.324,138.618 187.213,138.409 	"/>
	<line class="st0" x1="186.985" y1="132.36" x2="187.213" y2="141.811"/>
	<polyline class="st0" points="180.419,138.216 180.826,147.782 184.714,148.546 184.501,139.103 	"/>
	<polyline class="st0" points="179.236,141.47 179.576,150.906 180.826,147.782 	"/>
	<polyline class="st0" points="165.866,138.689 166.108,148.199 162.081,147.296 163.261,144.102 162.967,134.785 	"/>
	<line class="st0" x1="165.992" y1="144.663" x2="163.261" y2="144.102"/>
	<polyline class="st0" points="179.576,150.906 183.53,151.652 184.714,148.546 	"/>
	<polyline class="st0" points="190.76,129.14 191.536,129.295 191.794,130.174 183.621,152.678 162.12,148.202 162.081,147.296 	"/>
	<line class="st0" x1="205.979" y1="126.602" x2="208.009" y2="126.971"/>
	<polyline class="st0" points="134.599,143.601 132.905,143.233 132.758,142.496 131.911,142.312 132.574,140.654 132.5,139.77 
		133.2,138.408 134.084,138.592 143.402,113.436 143.328,111.042 143.991,109.016 144.654,108.317 	"/>
	<polyline class="st0" points="139.677,144.616 137.982,144.248 137.835,143.511 136.988,143.327 137.651,141.67 137.577,140.786 
		138.277,139.423 139.161,139.607 148.479,114.452 148.406,112.058 149.069,110.032 149.732,109.332 	"/>
	<polyline class="st0" points="145.063,145.64 143.369,145.272 143.221,144.535 142.374,144.351 143.037,142.694 142.963,141.81 
		143.663,140.447 144.547,140.631 153.469,115.475 153.395,113.081 154.058,111.056 154.721,110.356 	"/>
	<polyline class="st0" points="142.408,145.221 140.713,144.853 140.566,144.117 139.719,143.932 140.278,142.484 140.193,141.465 
		140.914,140.447 141.083,137.149 151.18,109.615 	"/>
	<polyline class="st0" points="147.624,146.2 145.93,145.831 145.783,145.095 144.936,144.911 145.494,143.462 145.41,142.443 
		146.131,141.425 146.3,138.127 156.32,110.727 	"/>
	<polyline class="st0" points="150.279,146.749 148.585,146.38 148.438,145.644 147.591,145.46 148.254,143.802 148.18,142.918 
		148.88,141.556 149.764,141.74 158.686,116.584 158.612,114.19 159.275,112.164 159.938,111.464 	"/>
	<polyline class="st0" points="152.841,147.308 151.147,146.94 150.999,146.203 150.152,146.019 150.711,144.57 150.626,143.552 
		151.347,142.534 151.516,139.235 161.613,111.702 	"/>
	<polyline class="st0" points="155.301,147.923 153.606,147.554 153.459,146.818 152.612,146.633 153.275,144.976 153.201,144.092 
		153.901,142.729 154.785,142.913 163.707,117.758 163.633,115.364 164.296,113.338 164.959,112.638 	"/>
	<polyline class="st0" points="162.82,136.075 160.002,144.022 159.118,143.838 158.418,145.201 158.491,146.085 157.829,147.742 
		158.676,147.926 158.823,148.663 160.517,149.031 163.198,142.093 	"/>
	<line class="st0" x1="166.805" y1="124.839" x2="165.502" y2="128.514"/>
	<polyline class="st0" points="170.175,113.747 169.513,114.447 168.85,116.472 168.923,118.866 	"/>
	<polyline class="st0" points="157.862,148.482 156.168,148.114 156.02,147.377 155.173,147.193 155.732,145.744 155.647,144.726 
		156.368,143.708 156.537,140.409 166.634,112.876 	"/>
	<polyline class="st0" points="146.113,108.802 135.911,136.757 135.741,139.292 135.115,140.544 135.152,141.354 134.526,142.827 
		135.373,143.012 135.52,143.748 137.214,144.117 	"/>
	<polyline class="st0" points="97.625,136.078 95.931,135.709 95.783,134.973 94.936,134.788 95.599,133.131 95.526,132.247 
		96.225,130.884 97.109,131.069 106.428,105.913 106.354,103.519 107.017,101.493 107.68,100.793 	"/>
	<polyline class="st0" points="109.139,101.278 98.936,129.233 98.767,131.768 98.141,133.021 98.177,133.831 97.551,135.304 
		98.398,135.488 98.546,136.225 100.24,136.593 	"/>
	<polyline class="st0" points="102.773,137.279 101.079,136.91 100.932,136.174 100.084,135.99 100.747,134.332 100.674,133.448 
		101.374,132.086 102.257,132.27 111.576,107.114 111.502,104.72 112.165,102.694 112.828,101.994 	"/>
	<polyline class="st0" points="117.472,102.866 116.809,103.566 116.146,105.591 116.33,107.552 107.314,133.201 106.549,132.957 
		105.849,134.32 105.923,135.204 105.26,136.861 106.107,137.045 106.254,137.782 107.948,138.15 110.607,131.082 	"/>
	<polyline class="st0" points="120.094,103.164 119.431,103.864 118.768,105.889 118.893,107.969 	"/>
	<polyline class="st0" points="114.287,102.48 104.085,130.435 103.915,132.97 103.289,134.222 103.326,135.032 102.699,136.505 
		103.547,136.689 103.694,137.426 105.388,137.794 	"/>
	<polyline class="st0" points="116.33,107.552 120.263,108.327 121.575,105.109 134.984,107.969 133.97,111.068 137.844,111.903 
		135.52,118.637 131.408,117.743 130.395,120.663 134.209,121.557 131.885,128.411 127.772,127.517 126.64,130.556 113.171,127.815 
		114.363,124.835 110.668,124.06 110.728,133.297 109.417,136.575 109.417,137.469 130.871,141.82 139.155,119.173 138.619,118.398 
			"/>
	<polyline class="st0" points="113.052,117.326 116.688,118.041 117.88,114.942 114.185,114.167 114.423,117.266 	"/>
	<line class="st0" x1="134.984" y1="107.969" x2="135.282" y2="111.366"/>
	<line class="st0" x1="137.844" y1="111.903" x2="138.202" y2="121.557"/>
	<polyline class="st0" points="135.52,118.637 135.758,128.113 134.709,127.902 	"/>
	<line class="st0" x1="134.209" y1="121.557" x2="134.566" y2="131.51"/>
	<line class="st0" x1="131.885" y1="128.411" x2="132.123" y2="138.184"/>
	<polyline class="st0" points="127.892,127.576 128.249,136.933 126.998,140.151 126.64,130.556 	"/>
	<line class="st0" x1="128.249" y1="136.933" x2="132.123" y2="137.767"/>
	<line class="st0" x1="126.998" y1="140.151" x2="131.16" y2="141.047"/>
	<polyline class="st0" points="109.417,136.575 113.446,137.325 113.171,127.815 	"/>
	<line class="st0" x1="110.689" y1="133.362" x2="113.343" y2="133.914"/>
	<path class="st0" d="M93.517,117.407c0,0,0.358-1.134,1.617-0.995c0,0,1.202,0.166,0.947,1.507l-0.42,1.259
		c0,0-0.343,1.394-1.637,1.042c0,0-1.067-0.017-0.974-1.182L93.517,117.407z"/>
	<path class="st0" d="M90.689,121.169l0.059-2.274c0,0-0.095-0.634,0.761-0.507c0.856,0.127,1.574,0.27,1.574,0.27"/>
	<path class="st0" d="M95.935,119.199l1.845,0.293c0,0,0.539-0.015,0.539,0.568c0,0.583-0.045,2.679-0.045,2.679l-1.28-0.256"/>
	<polyline class="st0" points="96.172,117.919 96.642,117.983 96.608,119.199 	"/>
	<line class="st0" x1="93.971" y1="118.265" x2="95.207" y2="118.504"/>
	<line class="st0" x1="94.144" y1="117.614" x2="95.38" y2="117.853"/>
	
		<ellipse transform="matrix(0.1987 -0.9801 0.9801 0.1987 -61.8057 185.6378)" class="st0" cx="82.619" cy="130.614" rx="1.756" ry="0.597"/>
	<circle class="st0" cx="204.059" cy="97.861" r="0.889"/>
	<circle class="st0" cx="172.547" cy="91.572" r="0.889"/>
	<path class="st0" d="M141.48,86.108c-0.491,0-0.889-0.398-0.889-0.889s0.398-0.889,0.889-0.889c0.123,0,0.24,0.025,0.346,0.07"/>
	<line class="st0" x1="74.224" y1="146.207" x2="76.683" y2="139.151"/>
</g>
<line class="st0" x1="164.117" y1="98.336" x2="164.117" y2="101.421"/>
<g>
	<g>
		<path class="st0" d="M18.922,118.398L8.533,146.935l-1.408-0.469c-1.408-0.352-2.229,0.704-2.229,0.704l-0.939,1.995
			c-0.587,2.816,1.76,3.403,1.76,3.403s24.874,5.045,29.45,5.867s5.28-1.525,5.28-1.525l5.867-15.37l-3.403-2.933l2.581-6.101
			c0,0,0,0,2.581-0.469c2.581-0.469,2.699-2.229,2.699-2.229l10.09-28.277l-33.322-6.805l-4.233,11.627l-1.048-0.255l-0.707,2.345"
			/>
		<path class="st0" d="M24.62,118.668l-0.1-0.707l2.631-8.013l-6.071-1.295l-2.833,7.649l0.052,1.507l4.999,1.123
			C23.299,118.932,24.158,119.329,24.62,118.668z"/>
		<path class="st0" d="M23.783,108.911c0.374-0.44,0.154-1.211,0.154-1.211l3.656,0.771c0,0,0.947,0.198,0.573,1.189
			c-0.374,0.991-3.194,9.074-3.194,9.074"/>
		<ellipse class="st0" cx="23.14" cy="112.274" rx="1.998" ry="1.438"/>
		<path class="st0" d="M18.612,116.082c0,0,0.586-1.305,3.489-0.879c0,0,2.53,0.506,2.797,2.637"/>
		<line class="st0" x1="19.438" y1="117.867" x2="19.411" y2="115.789"/>
		<line class="st0" x1="22.965" y1="108.998" x2="22.965" y2="106.322"/>
		<polyline class="st0" points="7.337,152.888 7.41,155.388 8.017,155.558 8.741,153.689 8.939,153.18 		"/>
		<path class="st0" d="M8.818,153.835l1.141,0.218c0,0-0.728,1.286-0.316,2.233l25.656,5.364c0,0,0.534-0.243,0.461-0.777
			c-0.073-0.534,0.097-2.185,2.063-2.257"/>
		<polygon class="st0" points="36.607,98.281 48.167,100.769 43.923,112.769 31.973,110.33 		"/>
		<path class="st0" d="M25.68,121.11c0,0,0.468-1.978,2.78-1.463c2.598,0.578,14.737,3.107,14.737,3.107s1.562,0.493,1.014,1.863
			c-0.505,1.262-9.214,24.931-9.214,24.931s-0.443,1.877-2.829,1.317c-2.571-0.603-14.731-3.073-14.731-3.073
			s-1.561-0.537-0.927-2.049C17.144,144.231,25.68,121.11,25.68,121.11z"/>
		<path class="st0" d="M53.455,122.422l0.069,2.45c0,0,0.414,0.276,0.725-0.552c0.311-0.828,0.759-2.036,0.759-2.036l0.138,3.692
			h0.449l1.104-2.899l0.345-0.311l1.07-3.037l0.587-0.345l1.035-2.83v-0.725l0.552-1.277l-0.138-3.899"/>
		<path class="st0" d="M56.112,115.245l0.138,2.208c0,0-0.035,1.553,0.656,0.069l1.587-4.451c0,0,0.345-1.277,0.38-1.863
			c0.035-0.587,0.035-1.07,0.345-1.76c0.179-0.399,0.474-1.131,0.691-1.679c0.159-0.4,0.275-0.702,0.275-0.702l-1.035-0.173"/>
		<polyline class="st0" points="60.11,107.523 60.133,109.335 59.775,110.252 60.714,110.341 61.117,109.424 60.863,101.528 		"/>
	</g>
</g>
<g>
	<g>
		<g>
			<path class="st0" d="M245.345,120.851l-10.389,28.537l-1.408-0.469c-1.408-0.352-2.229,0.704-2.229,0.704l-0.939,1.995
				c-0.587,2.816,1.76,3.403,1.76,3.403s24.874,5.045,29.45,5.867c4.576,0.821,5.28-1.525,5.28-1.525l5.867-15.37l-3.403-2.933
				l2.581-6.101c0,0,0,0,2.581-0.469c2.581-0.469,2.699-2.229,2.699-2.229l10.09-28.277l-33.322-6.805l-4.233,11.627l-1.048-0.255
				l-0.707,2.345"/>
			<path class="st0" d="M251.043,121.121l-0.1-0.707l2.631-8.013l-6.071-1.295l-2.833,7.649l0.052,1.507l4.999,1.123
				C249.722,121.385,250.581,121.782,251.043,121.121z"/>
			<path class="st0" d="M250.206,111.364c0.374-0.44,0.154-1.211,0.154-1.211l3.656,0.771c0,0,0.947,0.198,0.573,1.189
				c-0.374,0.991-3.194,9.074-3.194,9.074"/>
			<ellipse class="st0" cx="249.562" cy="114.727" rx="1.998" ry="1.438"/>
			<path class="st0" d="M245.035,118.536c0,0,0.586-1.305,3.489-0.879c0,0,2.53,0.506,2.797,2.637"/>
			<line class="st0" x1="245.86" y1="120.32" x2="245.834" y2="118.243"/>
			<line class="st0" x1="249.388" y1="111.451" x2="249.388" y2="108.776"/>
			<polyline class="st0" points="233.76,155.342 233.832,160.391 234.439,160.561 235.362,158.182 235.362,155.737 			"/>
			<polygon class="st0" points="263.029,100.734 274.59,103.222 270.346,115.222 258.395,112.783 			"/>
			<path class="st0" d="M252.103,123.563c0,0,0.468-1.978,2.78-1.463c2.598,0.578,14.737,3.107,14.737,3.107
				s1.562,0.493,1.014,1.863c-0.505,1.262-9.214,24.931-9.214,24.931s-0.443,1.877-2.829,1.317
				c-2.571-0.603-14.731-3.073-14.731-3.073s-1.561-0.537-0.927-2.049S252.103,123.563,252.103,123.563z"/>
		</g>
		<line class="st0" x1="235.362" y1="158.182" x2="263.869" y2="164.039"/>
		<polyline class="st0" points="234.861,159.965 236.613,160.291 236.246,161.187 236.246,162.613 261.995,167.951 262.362,167.502 
			262.443,166.565 262.851,165.547 263.869,165.669 		"/>
		<path class="st0" d="M263.91,160.943l0.081,5.296c0,0,0.285,0.652,1.589,0.448"/>
		<polyline class="st0" points="266.467,159.968 266.467,161.645 265.656,163.907 		"/>
		<path class="st0" d="M265.952,163.291c0,0,0.61,0.063,0.595,0.532l-0.966,2.865l-0.204-5.908"/>
		<line class="st0" x1="238.788" y1="156.419" x2="238.788" y2="158.73"/>
		<path class="st0" d="M287.061,104.674l-2.587-0.572c0,0-0.995-0.323-1.368,0.721c-0.373,1.045-1.293,3.557-1.293,3.557
			s-0.199,0.895,0.572,1.99s0.647,1.517,0.348,2.288c-0.298,0.771-1.219,1.716,0.622,2.313"/>
		<path class="st0" d="M287.286,103.981l0.342,8.441l-19.008,53.014l-0.484-3.187l1.296-3.631l-0.233-5.526
			c-1.245,0-1.044-0.924-1.044-0.924s0.281-1.205,0.683-1.847s1.245-0.161,1.245-0.161"/>
		<ellipse class="st0" cx="284.773" cy="105.744" rx="0.436" ry="0.311"/>
	</g>
</g>
<g>
	<g>
		<defs>
			<circle id="SVGID_1_" cx="278.693" cy="55.89" r="31.435"/>
		</defs>
		<clipPath id="SVGID_00000081650056560925070920000012158656396985338812_">
			<use xlink:href="#SVGID_1_"  style="overflow:visible;"/>
		</clipPath>
		<g style="clip-path:url(#SVGID_00000081650056560925070920000012158656396985338812_);">
			<path class="st0" d="M271.29,40.513l1.887-6.967l20.684,3.919c0,0,4.427,0.943,3.411,4.427l-7.374,19.588l-4.456,11.837
				c0,0-1.089,3.411-5.806,3.266l-19.813-3.556l-0.363-5.008c0,0,1.234-5.225,1.814-6.604s8.201-21.482,8.201-21.482l21.409,4.137
				c0,0,1.814,0.29,1.814,2.177c0,0,0.077,1.319-0.249,2.71s-2.695,12.921-2.695,12.921"/>
			<path class="st0" d="M292.605,45.602l-8.118,21.096c0,0-0.801,2.831-0.641,5.287l-0.427,0.855l-2.136-0.481
				c0,0,0.374-2.297,0.801-3.685c0,0,0.16-4.7-9.026-6.356c0,0-7.637-1.015-10.788,2.083l-0.641,4.219v4.54l2.777-6.142v-2.457"/>
			<line class="st0" x1="264.726" y1="73.855" x2="268.625" y2="63.601"/>
			<path class="st0" d="M262.162,65.524c0,0,3.899-2.51,10.201-1.816c6.302,0.694,9.72,4.967,9.72,4.967"/>
			<line class="st0" x1="281.46" y1="76.414" x2="281.283" y2="72.36"/>
			<line class="st0" x1="283.502" y1="75.671" x2="283.419" y2="72.841"/>
			<line class="st0" x1="259.5" y1="68.245" x2="261.628" y2="68.621"/>
			<line class="st0" x1="276.238" y1="34.241" x2="276.293" y2="41.151"/>
			<path class="st0" d="M276.625,35.623c0,0,0.719,0.332,1.437,0.332s1.161,0.442,1.161,1.88c0,1.437-0.055,4.036-0.055,4.036
				l1.493-3.483c0,0-0.774-1.99,0.166-3.372"/>
			<ellipse class="st0" cx="277.132" cy="52.83" rx="9.143" ry="6.422"/>
		</g>
		
			<line style="clip-path:url(#SVGID_00000081650056560925070920000012158656396985338812_);fill:none;stroke:#231F20;stroke-width:0.5;stroke-miterlimit:10;" x1="273.404" y1="33.405" x2="277.967" y2="20.155"/>
		
			<line style="clip-path:url(#SVGID_00000081650056560925070920000012158656396985338812_);fill:none;stroke:#231F20;stroke-width:0.5;stroke-miterlimit:10;" x1="255.041" y1="86.733" x2="259.694" y2="73.222"/>
	</g>
	<circle class="st4" cx="278.693" cy="55.89" r="31.435"/>
</g>
<g>
	<g>
		<defs>
			<circle id="SVGID_00000101795567154752990310000008861715324430153105_" cx="51.985" cy="53.463" r="31.435"/>
		</defs>
		<clipPath id="SVGID_00000121279398523064546290000009844548471784115880_">
			<use xlink:href="#SVGID_00000101795567154752990310000008861715324430153105_"  style="overflow:visible;"/>
		</clipPath>
		<g style="clip-path:url(#SVGID_00000121279398523064546290000009844548471784115880_);">
			<path class="st0" d="M44.582,38.086l1.887-6.967l20.684,3.919c0,0,4.427,0.943,3.411,4.427L63.19,59.053l-4.456,11.837
				c0,0-1.089,3.411-5.806,3.266l-19.813-3.556l-0.363-5.008c0,0,1.234-5.225,1.814-6.604s8.201-21.482,8.201-21.482l21.41,4.137
				c0,0,1.814,0.29,1.814,2.177c0,0,0.077,1.319-0.249,2.71s-2.695,12.921-2.695,12.921"/>
			<path class="st0" d="M65.897,43.175l-8.118,21.096c0,0-0.801,2.831-0.641,5.287l-0.427,0.855l-2.136-0.481
				c0,0,0.374-2.297,0.801-3.685c0,0,0.16-4.7-9.026-6.356c0,0-7.637-1.015-10.788,2.083l-0.641,4.219v4.54l2.777-6.142v-2.457"/>
			<line class="st0" x1="38.018" y1="71.428" x2="41.917" y2="61.174"/>
			<path class="st0" d="M35.454,63.096c0,0,3.899-2.51,10.201-1.816c6.302,0.694,9.72,4.967,9.72,4.967"/>
			<line class="st0" x1="54.752" y1="73.986" x2="54.574" y2="69.933"/>
			<line class="st0" x1="56.793" y1="73.244" x2="56.711" y2="70.413"/>
			<line class="st0" x1="32.792" y1="65.818" x2="34.92" y2="66.194"/>
			<line class="st0" x1="49.529" y1="31.813" x2="49.585" y2="38.724"/>
			<path class="st0" d="M49.916,33.195c0,0,0.719,0.332,1.437,0.332s1.161,0.442,1.161,1.88c0,1.437-0.055,4.036-0.055,4.036
				l1.493-3.483c0,0-0.774-1.99,0.166-3.372"/>
			<ellipse class="st0" cx="50.424" cy="50.403" rx="9.143" ry="6.422"/>
		</g>
		
			<line style="clip-path:url(#SVGID_00000121279398523064546290000009844548471784115880_);fill:none;stroke:#231F20;stroke-width:0.5;stroke-miterlimit:10;" x1="46.696" y1="30.978" x2="51.259" y2="17.727"/>
		
			<line style="clip-path:url(#SVGID_00000121279398523064546290000009844548471784115880_);fill:none;stroke:#231F20;stroke-width:0.5;stroke-miterlimit:10;" x1="28.333" y1="84.306" x2="32.985" y2="70.794"/>
	</g>
	<circle class="st4" cx="51.985" cy="53.463" r="31.435"/>
</g>
<g>
	<g>
		<path class="st7" d="M323.924,31.121c0,7.593-6.246,13.745-13.95,13.745c-7.707,0-13.953-6.152-13.953-13.745
			c0-7.596,6.246-13.755,13.953-13.755C317.679,17.366,323.924,23.525,323.924,31.121"/>
	</g>
	<g>
		<path class="st8" d="M311.571,38.163h-1.846V26.401c-0.444,0.424-1.027,0.848-1.749,1.271c-0.721,0.424-1.368,0.742-1.942,0.954
			v-1.784c1.032-0.485,1.935-1.073,2.707-1.764s1.319-1.36,1.641-2.01h1.189V38.163z"/>
	</g>
</g>
<polygon class="st8" points="6.053,138.505 7.082,136.764 10.242,146.675 "/>
<g>
	<path class="st9" d="M273.521,25.199c0,0-3.335,5.529-4.004,12.761c-0.61,6.584,2.413,12.751,2.413,12.751l13.021,2.797
		c0,0-3.295-6.789-2.685-13.368c0.669-7.233,4.405-12.356,4.405-12.356l5.992,1.299l-6.215-12.367l-19.397,7.051L273.521,25.199z"/>
</g>
<g>
	<g>
		<path class="st8" d="M59.02,38.83h-1.846V27.069c-0.444,0.424-1.027,0.848-1.749,1.271s-1.369,0.742-1.943,0.954V27.51
			c1.032-0.485,1.935-1.073,2.707-1.764s1.319-1.36,1.641-2.01h1.189V38.83z"/>
	</g>
</g>
<g id="LINE_00000092456494756321959540000010810039973132872878_">
	<g id="XMLID_00000173850219856359291190000015556114761417589929_">
		<g>
		</g>
		<g>
			<line class="st10" x1="49.824" y1="132.869" x2="47.118" y2="140.012"/>
		</g>
	</g>
</g>
<line class="st11" x1="272.587" y1="72.649" x2="253.067" y2="108.81"/>
<line class="st12" x1="272.587" y1="72.649" x2="253.067" y2="108.81"/>
<g>
	<g>
		<path class="st7" d="M38.927,31.789c0,7.593-6.246,13.745-13.95,13.745c-7.707,0-13.953-6.152-13.953-13.745
			c0-7.596,6.246-13.755,13.953-13.755C32.681,18.034,38.927,24.193,38.927,31.789"/>
	</g>
	<g>
		<path class="st8" d="M26.574,38.83h-1.846V27.069c-0.444,0.424-1.027,0.848-1.749,1.271s-1.369,0.742-1.943,0.954V27.51
			c1.032-0.485,1.935-1.073,2.707-1.764s1.319-1.36,1.641-2.01h1.189V38.83z"/>
	</g>
</g>
<g>
	<path class="st9" d="M46.813,22.772c0,0-3.335,5.529-4.004,12.761c-0.61,6.584,2.413,12.751,2.413,12.751l13.021,2.797
		c0,0-3.295-6.789-2.685-13.368c0.669-7.233,4.405-12.356,4.405-12.356l5.992,1.299l-6.215-12.367l-19.397,7.051L46.813,22.772z"/>
</g>
<line class="st11" x1="45.879" y1="70.222" x2="26.358" y2="106.383"/>
<line class="st12" x1="45.879" y1="70.222" x2="26.358" y2="106.383"/>
<g>
	<polyline class="st13" points="243.637,106.918 141.011,106.918 141.011,160.651 	"/>
	<line class="st13" x1="178.77" y1="161.218" x2="178.77" y2="107.485"/>
</g>
<g>
	<polyline class="st14" points="243.637,106.918 141.011,106.918 141.011,160.651 	"/>
	<line class="st14" x1="178.77" y1="161.218" x2="178.77" y2="107.485"/>
</g>
<g>
	<polyline class="st13" points="64.523,106.968 102.655,106.968 102.655,149.167 	"/>
</g>
<g>
	<polyline class="st14" points="64.523,106.968 102.655,106.968 102.655,149.167 	"/>
</g>
</svg>
