<?xml version="1.0" encoding="utf-8"?>
<!-- Generator: Adobe Illustrator 26.0.3, SVG Export Plug-In . SVG Version: 6.00 Build 0)  -->
<svg version="1.1" xmlns="http://www.w3.org/2000/svg" xmlns:xlink="http://www.w3.org/1999/xlink" x="0px" y="0px"
	 viewBox="0 0 171.4 147.2" style="enable-background:new 0 0 171.4 147.2;" xml:space="preserve">
<style type="text/css">
	.st0{clip-path:url(#SVGID_00000062889785144724890980000011207743462936915605_);fill:#E6E6E6;}
	.st1{clip-path:url(#SVGID_00000062889785144724890980000011207743462936915605_);fill:#808080;}
	.st2{clip-path:url(#SVGID_00000062889785144724890980000011207743462936915605_);}
	.st3{fill:#B3B3B3;}
	.st4{fill:#E6E6E6;}
	.st5{fill:#272626;}
	.st6{fill:none;stroke:#010101;stroke-width:0.5605;stroke-miterlimit:10;}
	.st7{fill:none;stroke:#E6E6E6;stroke-width:0.5605;stroke-miterlimit:10;}
	
		.st8{clip-path:url(#SVGID_00000062889785144724890980000011207743462936915605_);fill:none;stroke:#FFFFFF;stroke-width:2.242;stroke-linecap:round;stroke-linejoin:round;stroke-miterlimit:10;}
	
		.st9{clip-path:url(#SVGID_00000062889785144724890980000011207743462936915605_);fill:none;stroke:#B3B3B3;stroke-width:0.8407;stroke-linecap:round;stroke-linejoin:round;stroke-miterlimit:10;stroke-dasharray:1.6815;}
	.st10{fill:#404040;}
	.st11{fill:#FFFFFF;}
	.st12{fill-rule:evenodd;clip-rule:evenodd;fill:#FFFFFF;}
	.st13{fill:none;stroke:#4E4F4F;stroke-width:0.2802;stroke-miterlimit:10;}
	.st14{fill:#4E4F4F;}
	
		.st15{clip-path:url(#SVGID_00000062889785144724890980000011207743462936915605_);fill:none;stroke:#231F20;stroke-width:0.5605;stroke-linecap:round;stroke-linejoin:round;stroke-miterlimit:10;}
	.st16{fill:#FFFFFF;stroke:#FFFFFF;stroke-width:1.6815;stroke-linecap:round;stroke-linejoin:round;stroke-miterlimit:10;}
	.st17{fill:#EE7623;}
	.st18{fill-rule:evenodd;clip-rule:evenodd;fill:#DDDDDD;}
	.st19{fill:none;stroke:#8C8C8C;stroke-width:0;stroke-linecap:round;stroke-linejoin:round;stroke-miterlimit:10;}
	.st20{fill-rule:evenodd;clip-rule:evenodd;fill:none;}
	.st21{fill-rule:evenodd;clip-rule:evenodd;fill:#747474;}
	.st22{fill:none;stroke:#272626;stroke-width:0;stroke-linecap:round;stroke-linejoin:round;stroke-miterlimit:10;}
	.st23{fill-rule:evenodd;clip-rule:evenodd;fill:#4E4F4F;}
	.st24{fill:none;stroke:#606060;stroke-width:0;stroke-linecap:round;stroke-linejoin:round;stroke-miterlimit:10;}
	.st25{fill:none;stroke:#595A5A;stroke-width:0;stroke-linecap:round;stroke-linejoin:round;stroke-miterlimit:10;}
	.st26{fill:none;stroke:#333333;stroke-width:4.523504e-02;stroke-linecap:round;stroke-linejoin:round;stroke-miterlimit:10;}
	.st27{fill:none;stroke:#4E4F4F;stroke-width:0.2716;stroke-miterlimit:10;}
	.st28{fill:#99CA3C;}
	.st29{fill:none;}
	.st30{fill:#231F20;}
	.st31{font-family:'HelveticaNeue-Bold';}
	.st32{font-size:6px;}
	.st33{fill:none;stroke:#FFFFFF;stroke-width:1.6815;stroke-linecap:round;stroke-linejoin:round;stroke-miterlimit:10;}
	.st34{fill:none;stroke:#231F20;stroke-width:0.5605;stroke-linecap:round;stroke-linejoin:round;stroke-miterlimit:10;}
</style>
<g id="Layer_1_copy">
	<g>
		<g>
			<defs>
				<rect id="SVGID_1_" x="-20" y="-15.9" width="186.9" height="154.6"/>
			</defs>
			<clipPath id="SVGID_00000101795012348712197720000012640535141688509613_">
				<use xlink:href="#SVGID_1_"  style="overflow:visible;"/>
			</clipPath>
			
				<rect x="69.7" y="16.8" style="clip-path:url(#SVGID_00000101795012348712197720000012640535141688509613_);fill:#E6E6E6;" width="494.6" height="96.6"/>
			
				<rect x="71.1" y="20.9" style="clip-path:url(#SVGID_00000101795012348712197720000012640535141688509613_);fill:#808080;" width="488.5" height="88.6"/>
			<g style="clip-path:url(#SVGID_00000101795012348712197720000012640535141688509613_);">
				<rect x="75.1" y="22.8" class="st3" width="15.2" height="5.9"/>
				<path class="st4" d="M75.1,28c0,0,7.9-4.3,15.2,0v79.5H75L75.1,28z"/>
				<path class="st5" d="M82.6,81.3L82.6,81.3c-3.2,0-5.8-2.6-5.8-5.8V56.2c0-3.2,2.6-5.8,5.8-5.8h0c3.2,0,5.8,2.6,5.8,5.8v19.2
					C88.5,78.6,85.9,81.3,82.6,81.3z"/>
				<circle class="st5" cx="82.6" cy="35.8" r="2.4"/>
				<line class="st6" x1="75" y1="42.9" x2="90.3" y2="42.9"/>
				<line class="st7" x1="77.1" y1="56.2" x2="88.2" y2="56.2"/>
				<rect x="80.2" y="86.8" class="st3" width="4.9" height="13.3"/>
			</g>
			<g style="clip-path:url(#SVGID_00000101795012348712197720000012640535141688509613_);">
				<rect x="95.3" y="22.8" class="st3" width="15.2" height="5.9"/>
				<path class="st4" d="M95.2,28c0,0,7.9-4.3,15.2,0v79.5H95.2L95.2,28z"/>
				<path class="st5" d="M102.8,81.3L102.8,81.3c-3.2,0-5.8-2.6-5.8-5.8V56.2c0-3.2,2.6-5.8,5.8-5.8h0c3.2,0,5.8,2.6,5.8,5.8v19.2
					C108.7,78.6,106,81.3,102.8,81.3z"/>
				<circle class="st5" cx="102.8" cy="35.8" r="2.4"/>
				<line class="st6" x1="95.2" y1="42.9" x2="110.4" y2="42.9"/>
				<line class="st7" x1="97.3" y1="56.2" x2="108.4" y2="56.2"/>
				<rect x="100.4" y="86.8" class="st3" width="4.9" height="13.3"/>
			</g>
			<g style="clip-path:url(#SVGID_00000101795012348712197720000012640535141688509613_);">
				<rect x="115.4" y="22.8" class="st3" width="15.2" height="5.9"/>
				<path class="st4" d="M115.4,28c0,0,7.9-4.3,15.2,0v79.5h-15.3L115.4,28z"/>
				<path class="st5" d="M123,81.3L123,81.3c-3.2,0-5.8-2.6-5.8-5.8V56.2c0-3.2,2.6-5.8,5.8-5.8h0c3.2,0,5.8,2.6,5.8,5.8v19.2
					C128.8,78.6,126.2,81.3,123,81.3z"/>
				<circle class="st5" cx="123" cy="35.8" r="2.4"/>
				<line class="st6" x1="115.3" y1="42.9" x2="130.6" y2="42.9"/>
				<line class="st7" x1="117.4" y1="56.2" x2="128.5" y2="56.2"/>
				<rect x="120.5" y="86.8" class="st3" width="4.9" height="13.3"/>
			</g>
			<g style="clip-path:url(#SVGID_00000101795012348712197720000012640535141688509613_);">
				<rect x="135.6" y="22.8" class="st3" width="15.2" height="5.9"/>
				<path class="st4" d="M135.6,28c0,0,7.9-4.3,15.2,0v79.5h-15.3L135.6,28z"/>
				<path class="st5" d="M143.1,81.3L143.1,81.3c-3.2,0-5.8-2.6-5.8-5.8V56.2c0-3.2,2.6-5.8,5.8-5.8h0c3.2,0,5.8,2.6,5.8,5.8v19.2
					C149,78.6,146.3,81.3,143.1,81.3z"/>
				<circle class="st5" cx="143.1" cy="35.8" r="2.4"/>
				<line class="st6" x1="135.5" y1="42.9" x2="150.7" y2="42.9"/>
				<line class="st7" x1="137.6" y1="56.2" x2="148.7" y2="56.2"/>
				<rect x="140.7" y="86.8" class="st3" width="4.9" height="13.3"/>
			</g>
			<g style="clip-path:url(#SVGID_00000101795012348712197720000012640535141688509613_);">
				<rect x="155.7" y="22.8" class="st3" width="15.2" height="5.9"/>
				<path class="st4" d="M155.7,28c0,0,7.9-4.3,15.2,0v79.5h-15.3L155.7,28z"/>
				<path class="st5" d="M163.3,81.3L163.3,81.3c-3.2,0-5.8-2.6-5.8-5.8V56.2c0-3.2,2.6-5.8,5.8-5.8h0c3.2,0,5.8,2.6,5.8,5.8v19.2
					C169.1,78.6,166.5,81.3,163.3,81.3z"/>
				<circle class="st5" cx="163.3" cy="35.8" r="2.4"/>
				<line class="st6" x1="155.7" y1="42.9" x2="170.9" y2="42.9"/>
				<line class="st7" x1="157.7" y1="56.2" x2="168.8" y2="56.2"/>
				<rect x="160.8" y="86.8" class="st3" width="4.9" height="13.3"/>
			</g>
			<g style="clip-path:url(#SVGID_00000101795012348712197720000012640535141688509613_);">
				<rect x="175.9" y="22.8" class="st3" width="15.2" height="5.9"/>
				<path class="st4" d="M175.9,28c0,0,7.9-4.3,15.2,0v79.5h-15.3L175.9,28z"/>
				<path class="st5" d="M183.5,81.3L183.5,81.3c-3.2,0-5.8-2.6-5.8-5.8V56.2c0-3.2,2.6-5.8,5.8-5.8h0c3.2,0,5.8,2.6,5.8,5.8v19.2
					C189.3,78.6,186.7,81.3,183.5,81.3z"/>
				<circle class="st5" cx="183.5" cy="35.8" r="2.4"/>
				<line class="st6" x1="175.8" y1="42.9" x2="191.1" y2="42.9"/>
				<line class="st7" x1="177.9" y1="56.2" x2="189" y2="56.2"/>
				<rect x="181" y="86.8" class="st3" width="4.9" height="13.3"/>
			</g>
			<g style="clip-path:url(#SVGID_00000101795012348712197720000012640535141688509613_);">
				<rect x="196.1" y="22.8" class="st3" width="15.2" height="5.9"/>
				<path class="st4" d="M196,28c0,0,7.9-4.3,15.2,0v79.5H196L196,28z"/>
				<path class="st5" d="M203.6,81.3L203.6,81.3c-3.2,0-5.8-2.6-5.8-5.8V56.2c0-3.2,2.6-5.8,5.8-5.8h0c3.2,0,5.8,2.6,5.8,5.8v19.2
					C209.5,78.6,206.8,81.3,203.6,81.3z"/>
				<circle class="st5" cx="203.6" cy="35.8" r="2.4"/>
				<line class="st6" x1="196" y1="42.9" x2="211.2" y2="42.9"/>
				<line class="st7" x1="198.1" y1="56.2" x2="209.2" y2="56.2"/>
				<rect x="201.2" y="86.8" class="st3" width="4.9" height="13.3"/>
			</g>
			
				<path style="clip-path:url(#SVGID_00000101795012348712197720000012640535141688509613_);fill:none;stroke:#FFFFFF;stroke-width:2.242;stroke-linecap:round;stroke-linejoin:round;stroke-miterlimit:10;" d="
				M71.4,115.3h-26V14.8h26C71.4,14.8,76.6,59.6,71.4,115.3z"/>
			
				<path style="clip-path:url(#SVGID_00000101795012348712197720000012640535141688509613_);fill:none;stroke:#B3B3B3;stroke-width:0.8407;stroke-linecap:round;stroke-linejoin:round;stroke-miterlimit:10;stroke-dasharray:1.6815;" d="
				M71.4,115.3h-26V14.8h26C71.4,14.8,76.6,59.6,71.4,115.3z"/>
			<g style="clip-path:url(#SVGID_00000101795012348712197720000012640535141688509613_);">
				<path class="st5" d="M33.5,122.1H8.3V21.5h25.3C33.5,21.5,38.7,66.4,33.5,122.1z"/>
				<path class="st10" d="M32.8,122.1l-1.7,1l-23.5-1L5.1,22.6l2.5-1h25.3c0,0,0.2,1.5,0.4,4.2C34.3,38.1,37,76.4,32.8,122.1z"/>
				<polygon class="st11" points="30.5,82.4 15.5,82.4 15.5,73.4 22.9,73.4 30.5,73.4 				"/>
				<circle class="st11" cx="22.7" cy="48.4" r="2"/>
				<circle class="st11" cx="22.7" cy="55.2" r="2"/>
				<circle class="st11" cx="22.7" cy="62" r="2"/>
				<path class="st12" d="M28.8,53.4c0-0.3-0.2-0.4-0.4-0.4c-0.2,0-0.4,0.2-0.4,0.4l0.3,2.4c0,0.1,0.1,0.1,0.1,0.1
					c0.1,0,0.1-0.1,0.1-0.1L28.8,53.4 M28.8,56.9c0-0.3-0.2-0.5-0.5-0.5c-0.3,0-0.5,0.2-0.5,0.5c0,0.2,0.2,0.4,0.5,0.4
					C28.6,57.3,28.8,57.1,28.8,56.9z"/>
				<line class="st13" x1="23.2" y1="83.5" x2="23.2" y2="71.8"/>
				<path class="st12" d="M30.3,47.8c-0.3-1-1.4-1.6-2.4-1.4c-1.1,0.3-1.7,1.4-1.4,2.5c0.3,1,1.4,1.6,2.5,1.4
					C30,49.9,30.6,48.8,30.3,47.8 M30,48.2c0.1,0.8-0.5,1.7-1.4,1.8C27.9,50,27.2,49.7,27,49l1.1-1.1l0.5,1.8L30,48.2z M26.8,48.5
					c-0.1-0.9,0.5-1.8,1.4-1.8c0.7-0.1,1.4,0.3,1.7,0.9l-1.1,1.1L28.3,47L26.8,48.5z"/>
				<path class="st12" d="M30.4,62c0-1.1-0.9-2-2-2c-1.1,0-2,0.9-2,2c0,1.2,0.9,2,2,2C29.5,64,30.4,63.1,30.4,62z M29.9,62
					c0,0.9-0.7,1.5-1.5,1.5c-0.8,0-1.5-0.6-1.5-1.5c0-0.8,0.7-1.5,1.5-1.5C29.2,60.5,29.9,61.1,29.9,62z M28.7,61.6
					c0,0.2-0.1,0.3-0.3,0.3c-0.2,0-0.3-0.1-0.3-0.3c0-0.2,0.1-0.3,0.3-0.3C28.5,61.3,28.7,61.4,28.7,61.6z M27.7,62l0.6,1.2
					c0,0,0.1,0.1,0.1,0l0.6-1.2c0.2-0.4,0-0.8-0.3-1c-0.4-0.2-0.8-0.1-1,0.3C27.6,61.4,27.6,61.7,27.7,62z"/>
			</g>
			<g style="clip-path:url(#SVGID_00000101795012348712197720000012640535141688509613_);">
				<path class="st5" d="M31.1,123H5.8V22.5h25.3C31.1,22.5,36.3,67.4,31.1,123z"/>
				<path class="st14" d="M30.3,123H5.1V22.5h25.3C30.3,22.5,35.5,67.4,30.3,123z"/>
				<polygon class="st11" points="28.1,83.4 13,83.4 13,74.3 20.4,74.3 28.1,74.3 				"/>
				<circle class="st11" cx="15.9" cy="54.3" r="2"/>
				<circle class="st11" cx="15.9" cy="61.1" r="2"/>
				<circle class="st11" cx="15.9" cy="67.9" r="2"/>
				<path class="st12" d="M22,59.3c0-0.3-0.2-0.4-0.4-0.4c-0.2,0-0.4,0.2-0.4,0.4l0.3,2.4c0,0.1,0.1,0.1,0.1,0.1
					c0.1,0,0.1-0.1,0.1-0.1L22,59.3 M22.1,62.7c0-0.3-0.2-0.5-0.5-0.5c-0.3,0-0.5,0.2-0.5,0.5c0,0.2,0.2,0.4,0.5,0.4
					C21.9,63.1,22.1,62.9,22.1,62.7z"/>
				<line class="st13" x1="20.7" y1="84.4" x2="20.7" y2="72.8"/>
				<path class="st12" d="M23.5,53.6c-0.3-1-1.4-1.6-2.4-1.4c-1.1,0.3-1.7,1.4-1.4,2.5c0.3,1,1.4,1.6,2.5,1.4
					C23.2,55.8,23.8,54.7,23.5,53.6 M23.2,54c0.1,0.8-0.5,1.7-1.4,1.8c-0.7,0.1-1.4-0.3-1.6-0.9l1.1-1.1l0.5,1.8L23.2,54z M20,54.4
					c-0.1-0.9,0.5-1.8,1.4-1.8c0.7-0.1,1.4,0.3,1.7,0.9L22,54.6l-0.5-1.8L20,54.4z"/>
				<path class="st12" d="M23.6,67.8c0-1.1-0.9-2-2-2c-1.1,0-2,0.9-2,2c0,1.2,0.9,2,2,2C22.7,69.9,23.6,69,23.6,67.8z M23.1,67.8
					c0,0.9-0.7,1.5-1.5,1.5c-0.8,0-1.5-0.6-1.5-1.5c0-0.8,0.7-1.5,1.5-1.5C22.4,66.4,23.1,67,23.1,67.8z M21.9,67.4
					c0,0.2-0.1,0.3-0.3,0.3c-0.2,0-0.3-0.1-0.3-0.3s0.1-0.3,0.3-0.3C21.8,67.1,21.9,67.2,21.9,67.4z M20.9,67.8l0.6,1.2
					c0,0,0.1,0.1,0.1,0l0.6-1.2c0.2-0.4,0-0.8-0.3-1c-0.4-0.2-0.8-0.1-1,0.3C20.8,67.3,20.8,67.6,20.9,67.8z"/>
			</g>
			
				<line style="clip-path:url(#SVGID_00000101795012348712197720000012640535141688509613_);fill:none;stroke:#231F20;stroke-width:0.5605;stroke-linecap:round;stroke-linejoin:round;stroke-miterlimit:10;" x1="13.9" y1="11.9" x2="18.5" y2="19.8"/>
		</g>
	</g>
</g>
<g id="Layer_2">
	<g>
		<polygon class="st16" points="50.2,26.7 42.2,30.8 42.1,33.5 35.9,31.3 41.6,23.3 41.5,26.8 50.3,22 		"/>
		<polygon class="st17" points="50.2,26.7 42.2,30.8 42.1,33.5 35.9,31.3 41.6,23.3 41.5,26.8 50.3,22 		"/>
	</g>
	<g>
		<g>
			<path class="st18" d="M54.8,44.5c-1.9,0-3.5-1.6-3.5-3.5c0-1.9,1.6-3.5,3.5-3.5h4.3c1.9,0,3.5,1.6,3.5,3.5c0,1.9-1.6,3.5-3.5,3.5
				H54.8z"/>
			<path class="st4" d="M63.2,113.4h6.4V18.6H67V18c0-0.5-0.4-0.9-0.8-0.9H64c-0.5,0-0.9,0.4-0.9,0.9v2.4h-9.6V18
				c0-0.5-0.4-0.9-0.9-0.9h-4.3c-0.4,0-0.7,0.3-0.7,0.7v94.8c0,0.4,0.3,0.7,0.7,0.7h5.1v-2.1h9.6V113.4z"/>
			<g>
				
					<ellipse transform="matrix(0.2298 -0.9732 0.9732 0.2298 -43.3773 125.8039)" class="st11" cx="57.8" cy="90.3" rx="7.1" ry="7.1"/>
				<path class="st11" d="M54.8,44.5c-1.9,0-3.5-1.6-3.5-3.5c0-1.9,1.6-3.5,3.5-3.5h4.3c1.9,0,3.5,1.6,3.5,3.5
					c0,1.9-1.6,3.5-3.5,3.5H54.8z"/>
			</g>
			<path d="M56.2,30.7c0-1.3,1.1-2.4,2.5-2.4c1.4,0,2.4,1.1,2.4,2.4c0,1.4-1.1,2.5-2.4,2.5C57.3,33.2,56.2,32,56.2,30.7z"/>
			<path d="M56.2,103.7c0-1.4,1.1-2.4,2.5-2.4c1.4,0,2.4,1.1,2.4,2.4c0,1.4-1.1,2.4-2.4,2.4C57.3,106.1,56.2,105,56.2,103.7z"/>
			<path class="st19" d="M57.4,46.2C57.4,46.2,57.4,46.2,57.4,46.2C57.4,46.2,57.4,46.2,57.4,46.2"/>
			<path class="st19" d="M52.7,46.2C52.7,46.2,52.7,46.2,52.7,46.2L52.7,46.2"/>
			<path class="st20" d="M64.6,83.5c0-0.8,0.6-1.4,1.4-1.4c0.8,0,1.4,0.6,1.4,1.4c0,0.8-0.6,1.4-1.4,1.4
				C65.3,84.9,64.6,84.3,64.6,83.5"/>
			<path class="st20" d="M66,82.5l-0.2,0c-0.3,0.1-0.6,0.4-0.7,0.7v0.5h0v0.1h0V84h0l0,0v0.1h0l0.1,0.1l0.3,0.1l0.1,0l0.4,0v0l0.1,0
				l0.3-0.1l0.2-0.2l0.1-0.2l0-0.1l0-0.5h0v-0.1l0,0h0V83l0,0h0v-0.1l0,0l-0.1,0l-0.1-0.1l-0.1,0l-0.1,0l-0.2,0"/>
			<path class="st21" d="M52.5,79.2h14.9c0.2,0,0.4-0.2,0.4-0.4V68.6c0-0.2-0.2-0.4-0.4-0.4H52.5c-0.2,0-0.4,0.2-0.4,0.4v10.2
				C52.1,79,52.2,79.2,52.5,79.2"/>
			<path class="st22" d="M52.5,79.2h14.9c0.2,0,0.4-0.2,0.4-0.4V68.6c0-0.2-0.2-0.4-0.4-0.4H52.5c-0.2,0-0.4,0.2-0.4,0.4v10.2
				C52.1,79,52.2,79.2,52.5,79.2z"/>
			<path class="st23" d="M68.7,67.2V46.9c0-0.3-0.3-0.5-0.6-0.5H52c-0.4,0-0.6,0.2-0.6,0.5v20.4c0,0.3,0.3,0.5,0.6,0.5h16.1
				C68.5,67.7,68.7,67.5,68.7,67.2"/>
			<path class="st24" d="M68.7,67.2V46.9c0-0.3-0.3-0.5-0.6-0.5H52c-0.4,0-0.6,0.2-0.6,0.5v20.4c0,0.3,0.3,0.5,0.6,0.5h16.1
				C68.5,67.7,68.7,67.5,68.7,67.2z"/>
			<path class="st12" d="M62.4,48.7c-0.3-0.9-1.4-1.4-2.3-1.1C59.1,47.9,58.6,49,59,50c0.3,0.9,1.4,1.4,2.3,1.1
				c0.8-0.3,1.3-1,1.2-1.9C62.5,49.1,62.5,48.9,62.4,48.7 M59.4,50.1l0.9-1l0.5,1.5l1.2-1.4c0.1,0.8-0.4,1.5-1.2,1.6
				C60.3,50.9,59.7,50.6,59.4,50.1z M62,48.7l-0.9,1l-0.5-1.5l-1.2,1.4c-0.1-0.8,0.4-1.5,1.2-1.6C61.1,47.8,61.6,48.2,62,48.7z
				 M60.8,54.4c0-0.2-0.1-0.4-0.4-0.4c-0.2,0-0.4,0.2-0.4,0.4v0l0.2,2.3c0,0.1,0.1,0.2,0.2,0.1c0.1,0,0.1,0,0.2-0.1L60.8,54.4z
				 M60.9,57.4c0-0.2-0.2-0.4-0.4-0.4c-0.2,0-0.4,0.1-0.4,0.4c0,0.2,0.2,0.4,0.4,0.4C60.7,57.8,60.9,57.7,60.9,57.4z M62.5,62.5
				c0-1-0.9-1.9-1.9-1.9c-1,0-1.9,0.8-1.9,1.9c0,1,0.8,1.9,1.9,1.9C61.7,64.4,62.5,63.6,62.5,62.5z M62.3,62.5
				c0,0.9-0.7,1.7-1.6,1.7c-0.9,0-1.7-0.8-1.7-1.7c0-0.9,0.7-1.6,1.7-1.6C61.6,60.9,62.3,61.6,62.3,62.5z M60,62.5l0.6,1.1
				c0,0,0.1,0.1,0.1,0c0,0,0,0,0,0l0.6-1.1c0.2-0.4,0.1-0.8-0.3-1c-0.4-0.2-0.8-0.1-1,0.3C59.9,62,59.9,62.3,60,62.5z M61,62.1
				c0,0.2-0.1,0.4-0.3,0.4c-0.2,0-0.4-0.1-0.4-0.4c0-0.2,0.2-0.3,0.4-0.3C60.9,61.8,61,62,61,62.1z"/>
			<path class="st20" d="M57.7,48.6c0-1.4-1.2-2.6-2.6-2.6c-1.4,0-2.6,1.2-2.6,2.6c0,1.4,1.2,2.6,2.6,2.6
				C56.5,51.2,57.7,50,57.7,48.6"/>
			<path d="M56.9,49.4c0-1-0.8-1.8-1.8-1.8c-1,0-1.9,0.8-1.9,1.8c0,1,0.8,1.9,1.9,1.9C56.1,51.3,56.9,50.5,56.9,49.4z"/>
			<path d="M56.9,55.8c0-1-0.8-1.9-1.8-1.9c-1,0-1.9,0.9-1.9,1.9c0,1,0.8,1.9,1.9,1.9C56.1,57.7,56.9,56.8,56.9,55.8z"/>
			<path d="M56.9,62.3c0-1-0.8-1.9-1.8-1.9c-1,0-1.9,0.9-1.9,1.9c0,1,0.8,1.8,1.9,1.8C56.1,64.1,56.9,63.3,56.9,62.3z"/>
			<polygon class="st25" points="55,73.9 54.2,73.5 53.8,76.8 54.8,76 			"/>
			<polygon class="st25" points="58.3,76.9 57.6,76.1 54.9,76.1 53.9,76.9 			"/>
			<polygon class="st25" points="55.1,73.9 57.7,73.9 58.7,73.5 57.9,73.1 55.2,73.1 54.3,73.5 			"/>
			<polygon class="st25" points="54.6,70.1 55.4,70.9 58.1,70.9 59.1,70.1 			"/>
			<polyline class="st25" points="58.7,73.5 57.8,73.9 57.6,76 58.4,76.8 58.8,73.6 58.7,73.5 			"/>
			<polyline class="st25" points="54.2,73.4 55.1,73 55.3,70.9 54.5,70.1 54.2,73.4 54.2,73.4 			"/>
			<line class="st25" x1="54.2" y1="73.5" x2="54.2" y2="73.5"/>
			<polyline class="st25" points="58.8,73.4 59.1,70.2 58.2,70.9 57.9,73 58.7,73.5 58.8,73.4 			"/>
			<line class="st26" x1="54.2" y1="73.6" x2="54.2" y2="73.6"/>
		</g>
		<g>
			<line class="st27" x1="60" y1="78.9" x2="60" y2="68.4"/>
			<g>
				<path class="st28" d="M54.6,72.9l-0.5,0.5l-0.4-0.5v-2l0.4-0.5l0.5,0.5V72.9z M54.6,76l-0.5,0.5L53.7,76v-2l0.4-0.5l0.5,0.5V76z
					 M57.2,70.3l-0.5,0.5h-2.1l-0.5-0.5l0.5-0.5h2.1L57.2,70.3z M57.2,76.5l-0.5,0.5h-2.1l-0.5-0.5l0.5-0.5h2.1L57.2,76.5z
					 M57.8,72.9l-0.5,0.5l-0.5-0.5v-2l0.5-0.5l0.5,0.5V72.9z M57.8,76l-0.5,0.5L56.9,76v-2l0.5-0.5l0.5,0.5V76z"/>
			</g>
			<g>
				<path class="st28" d="M62.9,72.9l-0.5,0.5L62,72.9v-2l0.4-0.5l0.5,0.5V72.9z M62.9,76l-0.5,0.5L62,76v-2l0.4-0.5l0.5,0.5V76z
					 M65.5,70.3l-0.5,0.5H63l-0.5-0.5l0.5-0.5h2.1L65.5,70.3z M65.5,76.5l-0.5,0.5H63l-0.5-0.5L63,76h2.1L65.5,76.5z M66.1,72.9
					l-0.5,0.5l-0.5-0.5v-2l0.5-0.5l0.5,0.5V72.9z M66.1,76l-0.5,0.5L65.2,76v-2l0.5-0.5l0.5,0.5V76z"/>
			</g>
		</g>
	</g>
	<path class="st4" d="M65.2,49.9c0-0.5,0.4-1,1-1c0.5,0,0.9,0.5,0.9,1c0,0.5-0.4,1-0.9,1C65.6,50.9,65.2,50.4,65.2,49.9z"/>
</g>
<g id="Layer_5">
	<rect x="101.6" y="117.8" class="st29" width="71.6" height="17.8"/>
	<text transform="matrix(1 0 0 1 101.5697 122.1222)" class="st30 st31 st32">Shelf ID button</text>
	<g>
		<line class="st33" x1="58.5" y1="113.9" x2="65.7" y2="135.8"/>
		<line class="st34" x1="58.5" y1="113.9" x2="65.7" y2="135.8"/>
	</g>
	<g>
		<line class="st33" x1="62.1" y1="80.6" x2="83.3" y2="124.3"/>
		<line class="st34" x1="62.1" y1="80.6" x2="83.3" y2="124.3"/>
	</g>
	<g>
		<line class="st33" x1="67.7" y1="53" x2="99.4" y2="116.5"/>
		<line class="st34" x1="67.7" y1="53.1" x2="99.4" y2="116.5"/>
	</g>
	<rect x="56.8" y="137.9" class="st29" width="51.8" height="5.2"/>
	<text transform="matrix(1 0 0 1 56.7605 142.2297)" class="st30 st31 st32">Faceplate</text>
	<rect x="4.1" y="4.2" class="st29" width="51.8" height="5.2"/>
	<text transform="matrix(1 0 0 1 4.1438 8.4453)" class="st30 st31 st32">End cap</text>
	<rect x="80.4" y="126.9" class="st29" width="51.8" height="5.2"/>
	<text transform="matrix(1 0 0 1 80.4013 131.1522)" class="st30 st31 st32">Shelf ID number</text>
</g>
</svg>
