<?xml version="1.0" encoding="utf-8"?>
<!-- Generator: Adobe Illustrator 26.5.0, SVG Export Plug-In . SVG Version: 6.00 Build 0)  -->
<svg version="1.1" xmlns="http://www.w3.org/2000/svg" xmlns:xlink="http://www.w3.org/1999/xlink" x="0px" y="0px"
	 viewBox="0 0 303.8 245.5" style="enable-background:new 0 0 303.8 245.5;" xml:space="preserve">
<style type="text/css">
	.st0{fill:#D1D3D4;}
	.st1{fill:none;stroke:#000000;stroke-width:0.5;stroke-linecap:round;stroke-linejoin:round;stroke-miterlimit:10;}
	.st2{fill:none;stroke:#000000;stroke-width:0.5;stroke-linecap:round;stroke-linejoin:round;}
	.st3{fill:none;stroke:#000000;stroke-width:0.4875;stroke-linecap:round;stroke-linejoin:round;stroke-miterlimit:10;}
	.st4{fill:none;stroke:#000000;stroke-width:0.4505;stroke-linecap:round;stroke-linejoin:round;stroke-miterlimit:10;}
	.st5{fill:none;stroke:#000000;stroke-width:0.4409;stroke-linecap:round;stroke-linejoin:round;stroke-miterlimit:10;}
	.st6{fill:none;stroke:#000000;stroke-width:0.5145;stroke-linecap:round;stroke-linejoin:round;stroke-miterlimit:10;}
	.st7{font-family:'Arial-BoldMT';}
	.st8{font-size:4.6807px;}
	.st9{fill:none;stroke:#000000;stroke-width:0.5286;stroke-linecap:round;stroke-linejoin:round;stroke-miterlimit:10;}
	.st10{fill:none;stroke:#000000;stroke-width:0.5507;stroke-linecap:round;stroke-linejoin:round;stroke-miterlimit:10;}
	.st11{fill:none;stroke:#000000;stroke-width:0.479;stroke-linecap:round;stroke-linejoin:round;stroke-miterlimit:10;}
	.st12{fill:none;stroke:#000000;stroke-width:0.3566;stroke-linecap:round;stroke-linejoin:round;stroke-miterlimit:10;}
	.st13{fill:none;stroke:#000000;stroke-width:0.4045;stroke-linecap:round;stroke-linejoin:round;stroke-miterlimit:10;}
	.st14{fill:none;stroke:#000000;stroke-width:0.4035;stroke-linecap:round;stroke-linejoin:round;stroke-miterlimit:10;}
	.st15{fill:none;stroke:#000000;stroke-width:0.583;stroke-linecap:round;stroke-linejoin:round;stroke-miterlimit:10;}
	.st16{fill:none;stroke:#000000;stroke-width:0.5977;stroke-linecap:round;stroke-linejoin:round;stroke-miterlimit:10;}
	.st17{fill:none;stroke:#000000;stroke-width:0.5471;stroke-linecap:round;stroke-linejoin:round;stroke-miterlimit:10;}
	.st18{fill:none;stroke:#000000;stroke-width:0.5101;stroke-linecap:round;stroke-linejoin:round;stroke-miterlimit:10;}
	
		.st19{fill-rule:evenodd;clip-rule:evenodd;fill:#010101;stroke:#FFFFFF;stroke-width:3;stroke-linecap:round;stroke-linejoin:round;stroke-miterlimit:10;}
	
		.st20{fill-rule:evenodd;clip-rule:evenodd;fill:#010101;stroke:#000000;stroke-width:0.75;stroke-linecap:round;stroke-linejoin:round;stroke-miterlimit:10;}
	.st21{fill:none;stroke:#000000;stroke-width:0.2991;stroke-miterlimit:10;}
	.st22{fill:none;stroke:#000000;stroke-width:0.2991;stroke-linecap:round;stroke-linejoin:round;stroke-miterlimit:10;}
	.st23{fill:none;stroke:#000000;stroke-width:0.5982;stroke-linecap:round;stroke-linejoin:round;stroke-miterlimit:10;}
	.st24{fill:none;stroke:#000000;stroke-width:0.3151;stroke-linecap:round;stroke-linejoin:round;stroke-miterlimit:10;}
	.st25{fill:none;stroke:#000000;stroke-width:0.3729;stroke-linecap:round;stroke-linejoin:round;stroke-miterlimit:10;}
	.st26{stroke:#FFFFFF;stroke-width:0.8368;stroke-linecap:round;stroke-linejoin:round;stroke-miterlimit:10;}
	.st27{stroke:#FFFFFF;stroke-width:0.8534;stroke-linecap:round;stroke-linejoin:round;stroke-miterlimit:10;}
	.st28{fill-rule:evenodd;clip-rule:evenodd;fill:#010101;stroke:#FFFFFF;stroke-miterlimit:10;}
	.st29{fill:#FFFFFF;}
	.st30{font-family:'Helvetica';}
	.st31{font-size:16.7034px;}
	.st32{fill:#FFFFFF;stroke:#FFFFFF;stroke-width:2.2676;stroke-miterlimit:10;}
</style>
<g id="Gray">
	<polygon class="st0" points="217.4,111.4 191.5,98.4 186.4,101 184,99.7 174.4,104.5 193.2,113.8 193.1,117.5 195.1,118.5 
		195,119.7 195.3,121.2 194.7,121.8 195.1,122.4 194.6,123.3 195.2,124.3 200.8,127.2 201,129.1 203.9,127.6 203.8,121.3 
		205.5,120.4 205.5,117.5 	"/>
</g>
<g id="Unit">
	<g>
		<g>
			<path class="st1" d="M67.3,141.3c0,0,0-0.6,0-1.6c0-1.1,1.2-1.6,1.2-1.6s7-3.7,7.4-3.8s0.6-0.2,1.1-0.1c0.5,0.1,0.8-0.2,0.9-0.6
				s1.2-0.9,1.2-0.9l111.7-55.9c0,0,0.7-0.5,1.3-0.1c0.6,0.5,2.1,1.4,2.1,1.4s0.3,0.2,0.6-0.1c0.2-0.2,0.6-0.7,0.4-1.2l-0.7-0.5
				c0,0-0.2-0.6,0-1s0.5-0.8,0.9-0.8c0.4,0,3.1-0.2,3.1-0.2s0.7,0.2,0.8,0.6l0,3.3c0,0,0.1,0.5-0.4,0.8
				c-0.5,0.2-44.9,22.4-44.9,22.4"/>
			<path class="st1" d="M166.5,143.5c0,0-0.1-7.2,0-8.8c0.1-1.6,1.6-2.1,1.6-2.1l24.9-12.6l-6.9-3.5l6.1-3.1c0,0-22.9-11.4-23.9-12
				c-1-0.5-2.2,0-2.2,0l-6.1,3l-7.1-3.5l-23.3,11.7c0,0-2.2,0.9-2.2,2.5l0.1,1.1"/>
			<path class="st1" d="M167.6,132.4l-6.6-3.4l-6.8,3.4c0,0-1.1,0.6-1.1,1.8c0,1.1,0,3.1,0,3.1"/>
			<path class="st1" d="M128.6,113.4l6.6,3.3l-5.8,3.1l0,0.5c0,0-0.8,0.7-0.8,1.9c0,1,0.1,6.9,0.1,6.9"/>
			<line class="st1" x1="129.8" y1="119.7" x2="154.5" y2="132.2"/>
			<polyline class="st1" points="182.8,138.5 194.1,132.8 194.2,131.6 200.4,128.5 			"/>
			<path class="st1" d="M189.4,118c0.5-0.4,1.4-0.6,2.4-0.6c1.7,0,3,0.7,3,1.5c0,0.6-0.6,1.1-1.6,1.3"/>
			<path class="st1" d="M193.8,121.9c0.7-0.3,1.1-0.7,1.1-1.2v-1.6"/>
			<path class="st1" d="M193.7,130.3v-9.1c0,0,0.1-1-0.9-1.1"/>
			<path class="st1" d="M194.2,121.7c0.3,0.2,0.5,0.4,0.5,0.7c0,0.4-0.4,0.8-1.1,1"/>
			<path class="st1" d="M194.2,123.5c0.3,0.2,0.5,0.4,0.5,0.7c0,0.4-0.4,0.8-1.1,1"/>
			<path class="st1" d="M194.2,125.3c0.3,0.2,0.5,0.4,0.5,0.7c0,0.4-0.4,0.8-1.1,1"/>
			<g>
				<ellipse class="st1" cx="159.3" cy="133" rx="3" ry="1.5"/>
				<path class="st1" d="M156.3,133v1.7c0,0.8,1.4,1.5,3,1.5s3-0.7,3-1.5v-1.6"/>
				<path class="st1" d="M161.9,135.6c0.3,0.3,0.4,0.6,0.4,0.9c-0.1,0.8-1.6,1.3-3.2,1.1c-1.7-0.2-2.9-1.1-2.8-1.9
					c0-0.1,0.1-0.2,0.1-0.4"/>
				<path class="st1" d="M162.3,142.3c0,0.1,0.1,0.2,0.1,0.3c0,0.8-1.4,1.5-3,1.5s-3-0.7-3-1.5c0-0.2,0.1-0.4,0.3-0.6"/>
				<path class="st1" d="M161.6,141c0.4,0.3,0.7,0.8,0.6,1.1c-0.1,0.8-1.6,1.3-3.2,1s-2.9-1.2-2.7-2c0.1-0.3,0.3-0.6,0.7-0.8"/>
				<path class="st1" d="M161.7,139.1c0.4,0.3,0.6,0.7,0.5,1.1c-0.1,0.8-1.6,1.3-3.2,1c-1.7-0.3-2.9-1.2-2.7-2
					c0-0.3,0.2-0.5,0.5-0.7"/>
				<path class="st1" d="M161.7,137.3c0.4,0.3,0.6,0.7,0.6,1.1c-0.1,0.8-1.6,1.3-3.2,1s-2.9-1.2-2.7-2c0-0.3,0.2-0.5,0.5-0.7"/>
			</g>
			<g>
				<path class="st1" d="M132.3,155.1c-1.1,0-2-0.4-2-1c0-0.5,0.9-1,2-1c1.1,0,2,0.4,2,1"/>
				<path class="st1" d="M130.3,154.1v1.1c0,0.5,0.9,1,2,1"/>
				<path class="st1" d="M132.1,156.9c-0.8-0.1-1.5-0.5-1.4-0.9"/>
				<path class="st1" d="M132.3,159.5c-0.8,0-1.5-0.3-1.5-0.7c0-0.1,0.1-0.2,0.1-0.3"/>
				<path class="st1" d="M132.1,158.6c-0.8-0.1-1.4-0.6-1.4-1c0-0.1,0.1-0.2,0.3-0.3"/>
				<path class="st1" d="M132.1,157.7c-0.8-0.1-1.4-0.6-1.4-1c0-0.1,0.1-0.2,0.3-0.3"/>
			</g>
			<g>
				<ellipse class="st1" cx="129" cy="117.8" rx="3" ry="1.5"/>
				<path class="st1" d="M126,117.8v1.7c0,0.8,1.3,1.5,2.8,1.5"/>
				<ellipse class="st1" cx="161.4" cy="101.5" rx="3" ry="1.5"/>
				<line class="st1" x1="158.4" y1="101.5" x2="158.4" y2="103.3"/>
				<path class="st1" d="M128.7,122.3c-1.6-0.3-2.8-1.1-2.7-1.9c0-0.1,0.1-0.2,0.1-0.4"/>
				<path class="st1" d="M128.7,128.9c-1.5-0.1-2.7-0.7-2.7-1.5c0-0.2,0.1-0.4,0.3-0.6"/>
				<path class="st1" d="M128.7,127.9c-1.7-0.3-2.9-1.2-2.7-2c0.1-0.3,0.3-0.6,0.7-0.8"/>
				<path class="st1" d="M128.7,126c-1.7-0.3-2.9-1.2-2.7-2c0-0.3,0.2-0.5,0.5-0.7"/>
				<path class="st1" d="M128.7,124.2c-1.7-0.3-2.9-1.2-2.7-2c0-0.3,0.2-0.5,0.5-0.7"/>
			</g>
			<polygon class="st1" points="109.4,138.9 128,148.3 132.1,146.3 135.9,148.3 155.3,138.5 136.6,129.3 132.7,131.2 128.8,129.2 
							"/>
			<line class="st1" x1="109.4" y1="138.9" x2="109.3" y2="147.4"/>
			<line class="st1" x1="155.3" y1="138.5" x2="155.4" y2="144.6"/>
			<line class="st1" x1="128" y1="148.3" x2="128.1" y2="158.3"/>
			<line class="st1" x1="135.9" y1="148.3" x2="135.9" y2="153.6"/>
			<line class="st1" x1="132.1" y1="146.3" x2="132.1" y2="153"/>
			<polyline class="st1" points="92.8,143.7 97,141.6 110.5,148.3 106.1,150.4 			"/>
			<line class="st1" x1="110.5" y1="152.7" x2="110.5" y2="148.3"/>
			<line class="st1" x1="161.1" y1="129.1" x2="161.1" y2="131.7"/>
			<line class="st1" x1="162" y1="141.3" x2="166.5" y2="143.6"/>
			<line class="st1" x1="182.9" y1="97.8" x2="195.2" y2="91.6"/>
			<line class="st1" x1="198.6" y1="79.1" x2="198.6" y2="88.2"/>
			<polyline class="st1" points="227.3,92.3 208.4,82.9 202.6,85.8 202.2,86.5 195.2,90.1 195.2,96.6 200.8,99.4 201.6,99.1 			"/>
			<polyline class="st1" points="200.8,99.2 200.8,92.9 207.9,89.2 209.2,89.1 214.8,86.3 			"/>
			<polyline class="st1" points="209.2,89.1 208.8,89.7 201.7,93.3 201.6,100 207.4,102.7 208.1,102.3 			"/>
			<polyline class="st1" points="221.5,89.4 215.6,92.5 214.6,92.5 207.4,96.1 207.3,102.6 			"/>
			<line class="st1" x1="201.8" y1="93.3" x2="207.4" y2="96.1"/>
			<line class="st1" x1="195.3" y1="90.1" x2="200.7" y2="92.8"/>
			<polyline class="st1" points="215.6,92.5 215.3,93 208.4,96.6 208.3,103.2 213.8,105.9 			"/>
			<line class="st1" x1="208.4" y1="96.6" x2="213.7" y2="99.3"/>
			<polyline class="st1" points="213.9,107.9 214,99.4 228.5,92.1 233.5,94.6 219,101.9 219,110.1 			"/>
			<line class="st1" x1="214" y1="99.4" x2="219" y2="101.9"/>
			<path class="st1" d="M233.5,94.6c0,0,0.8,0.3-0.8,3.6"/>
			<polyline class="st1" points="241.1,99.3 236,96.7 230.1,99.5 229.9,100.2 222.7,103.8 222.6,108.3 			"/>
			<polyline class="st1" points="248.7,105.4 248.6,101.3 242.9,98.6 228.8,105.6 228.7,110.6 			"/>
			<polyline class="st1" points="234.2,113.6 234.3,108.4 248.6,101.3 			"/>
			<line class="st1" x1="222.9" y1="103.9" x2="228.7" y2="106.8"/>
			<line class="st1" x1="228.8" y1="105.6" x2="234.3" y2="108.4"/>
			<line class="st1" x1="213.3" y1="107.7" x2="218.7" y2="110.5"/>
			<polygon class="st1" points="205.2,117.3 223.3,108.2 241.3,117.2 223.2,126.4 			"/>
			<polyline class="st1" points="205.2,117.3 205.2,129.1 214.5,133.8 			"/>
			<line class="st1" x1="223.2" y1="126.4" x2="223.3" y2="129.6"/>
			<line class="st1" x1="241.4" y1="117.2" x2="241.5" y2="121.9"/>
			<polyline class="st1" points="217.1,111.3 191.5,98.4 186.5,100.9 			"/>
			<polyline class="st1" points="211.8,113.6 183.9,99.8 174.5,104.5 			"/>
			<polyline class="st1" points="270.6,118 270.6,114 251,104.2 245.2,107.1 244.9,107.8 237.7,111.4 237.7,115.1 			"/>
			<polyline class="st1" points="241.6,119.9 243.2,120.6 243.3,114 237.7,111.4 			"/>
			<polyline class="st1" points="257.5,107.5 251.9,110.3 250.6,110.5 243.3,114 			"/>
			<polyline class="st1" points="251.7,110.3 251.4,110.9 244.3,114.6 244.3,120.6 			"/>
			<polyline class="st1" points="264,110.7 258.3,113.6 257,113.7 249.9,117.4 244.3,114.6 			"/>
			<line class="st1" x1="249.9" y1="119.4" x2="249.9" y2="117.4"/>
			<polyline class="st1" points="250.7,120.1 250.7,117.8 257.5,114.5 258.3,113.6 			"/>
			<polyline class="st1" points="250.7,117.8 256.5,120.6 263.6,117 264.9,116.8 270.3,114 			"/>
			<polyline class="st1" points="284.9,125.8 284.9,124.6 272.8,118.1 267,118.2 261.9,120.6 259.3,119.2 			"/>
			<path class="st1" d="M284.9,124.6l-21.2,11l-0.8-0.5l-10.8,5.4l-1.2-0.7c0,0-0.5-0.3-1.4,0.2c-1,0.6-10.8,5.4-10.8,5.4
				s-1.1,0.4-0.2,0.8c0.9,0.4,0.8,0.5,0.8,0.5s0.4,0.1,0.3,1.1l0,0.8"/>
			<path class="st1" d="M256.5,120.6l-15,7.7c0,0-0.6,0.5-1,1.4c-0.4,0.9-2,3.7-2,3.7s-0.1,0.3-1.2,0.9s-32.8,16.5-32.8,16.5
				l0.1,1.2c0,0,3.5,1.7,4.8,2.6c1.3,0.9,2.7-0.2,2.7-0.2l66.3-33.4"/>
			<line class="st1" x1="26.1" y1="163.2" x2="58.2" y2="147.1"/>
			<line class="st1" x1="34.8" y1="175.7" x2="59.1" y2="163.7"/>
			<polygon class="st1" points="112.5,161.4 120.1,157.7 76.6,135.9 69,139.6 			"/>
			<path class="st1" d="M68.7,141.5c0,0,0.4-0.8,1.3-0.3s41.5,20.8,41.5,20.8s1,0.5,1,2.1s0,14.5,0,14.5s-0.1,1.6-1.2,1.1
				S69.9,159,69.9,159"/>
			<line class="st1" x1="145.5" y1="198" x2="69.2" y2="159.9"/>
			<line class="st1" x1="116.5" y1="212.5" x2="153.8" y2="194"/>
			<line class="st1" x1="154.4" y1="195.1" x2="116.7" y2="214.1"/>
			<line class="st1" x1="154.3" y1="210.3" x2="116.7" y2="229.3"/>
			<polyline class="st1" points="152.6,211.2 154.5,212 163.8,207.2 164.6,207.6 173.3,203.2 174.4,201.2 176.6,200.1 179,200.4 
				296,141.8 296,135.7 293.8,132.3 293.8,127.7 			"/>
			<path class="st1" d="M174.2,201.4v-4.9c0,0,0.4-2.9,2.4-3.6c0,0,1.7-0.5,1.8,1.1v6"/>
			<path class="st1" d="M154.5,211.7v-17.1c0,0-0.5-1.1-2.1-1.3v1.2"/>
			<path class="st1" d="M154.5,194.6l9.6-4.8c0,0-0.5-1.1-2.1-1.3l-9.6,4.8"/>
			<path class="st1" d="M165.1,207.2l-0.1-17.4l7.7-3.9c0,0,1.3-0.9,2.2-0.2c1,0.8,1.6,1.4,3,0.8c1.4-0.7,1.4-0.7,1.4-0.7"/>
			<path class="st1" d="M178.7,184.8c0.8,0.4,0.8,1.7,0.8,1.7v2.4c0,0,0.1,2.3,2.6,1.3c2.3-1,2.5-3.8,2.5-3.8s0-2.1,0-3
				c0-0.8-0.6-1.3-0.6-1.3c0-1.1-0.9-0.7-0.9-0.7l-3.6,1.9c0,0-0.6,0.3-0.7,1.4"/>
			<line class="st1" x1="165.1" y1="205.8" x2="165" y2="186.9"/>
			<path class="st1" d="M178.9,183.4"/>
			<path class="st1" d="M164.1,189.7v-2.7l8.6-4.1l0.6-1.1l67.4-33.6c0,0,0.7-0.1,0.8,0.5c0.1,0.6,0.3,4.5,0.3,4.5s0.9,0.6,0.8,1.5
				l11.6-5.7c0,0,0.6-0.7-0.1-1.6l0.1-4.9c0,0,0.2-1.1,1-1.5l32.8-16.3l2.7,1.8c0,0,1.2-0.1,0.9-1.4l-0.7-0.6c0,0-0.4-1.2,1-1.8
				l2.8-0.1c0,0,0.7,0,0.8,0.6l0,3.5l-41.2,20.7"/>
			<line class="st1" x1="184.8" y1="183.3" x2="242.3" y2="154.4"/>
			<line class="st1" x1="110.5" y1="149.7" x2="132.2" y2="160.6"/>
			<path class="st1" d="M132.2,161.6"/>
			<path class="st1" d="M110.7,151"/>
			<line class="st1" x1="128.5" y1="158.5" x2="130.7" y2="157.4"/>
			<line class="st1" x1="138.1" y1="164" x2="143.7" y2="161.2"/>
			<line class="st1" x1="131.7" y1="167.3" x2="133.3" y2="166.5"/>
			<path class="st1" d="M151.8,189.3"/>
			<polyline class="st1" points="162,188.4 162,186.1 164.5,184.7 166.5,185.7 			"/>
			<line class="st1" x1="164.1" y1="187.1" x2="162" y2="186.1"/>
			<line class="st1" x1="91.2" y1="143.2" x2="121.1" y2="128.6"/>
			<polyline class="st1" points="192.1,113.4 192.8,113.8 192.8,117.2 			"/>
			<polyline class="st1" points="194.7,124.2 200.4,126.9 180.1,137.2 			"/>
			<path class="st1" d="M200.6,128.9"/>
			<polygon class="st1" points="203.7,127.4 200.6,129 200.6,123.9 203.7,122.2 			"/>
			<line class="st1" x1="200.6" y1="123.9" x2="195.1" y2="121.1"/>
			<polyline class="st1" points="192.9,115.9 202.4,120.7 205.1,119.4 			"/>
			<polyline class="st1" points="192.9,117.2 202.4,122 205.1,120.6 			"/>
			<path class="st1" d="M57.5,147v-0.8l10.3-4.9l1.4,0.6c0,0,0.5,0.3,0.5,1c0,0.6,0,2,0,2l-9.2,4.6l-0.9-0.1v-2c0,0-0.1-1-2.2-1.3"
				/>
			<path class="st1" d="M58.3,164.2l1.3,0.6l10-5.1l-0.1-2l-0.9-0.3l-8.3,4.1c0,0-1,0.5-0.9,1.3l0,1.7"/>
			<path class="st1" d="M15,163.9l5.5-2.7c0,0,9.3,1.1,13.7,13.5c0,0,3.8,10.4-2.9,16l-6.2,3c0,0-2,0.3-4.5-0.9l-5.4-2.5
				c0,0-0.8-0.9-0.8-1.9c0-1,0.1-3,0.1-3"/>
			<path class="st1" d="M14.5,169.7l-0.1-4.9c0,0,0.3-1.1,2.4-0.9c0,0,9.4,3.5,12.1,13.1c0,0,4.9,10.7-2.2,15.9"/>
			<path class="st1" d="M16.2,175.4v-5.5c0,0,0.5-3.5,3.4-2.8c0,0,7.1,2.5,9.4,15.2c0,0,1.5,8.2-4.8,10.1c0,0-1.7,0.6-3.8-0.2
				s-5.8-3-5.8-3l5.4-2.7"/>
			<line class="st1" x1="21.4" y1="168" x2="21.4" y2="172.8"/>
			<path class="st1" d="M15.1,176.1l8.2-4.1c0,0,1.2,0.3,1.1,1.6l-1.1,3.8l-5,2.7l-1.7-3.1C16.6,177.1,16.1,176,15.1,176.1z"/>
			<path class="st1" d="M15.1,176.1c0,0-1.7,5.1,0.7,9.9l1.3-0.6c0,0,0-3.3,3-4.2c0,0,1.8-0.6,1.7,1.8l1.3-0.5c0,0,1-3.4,1-7"/>
			<path class="st1" d="M16.2,170.6c0,0,0.5,0.3-2.1-0.8c0,0-4.5-0.2-5.9,6.3v8c0,0,0,3,2.9,3.2c0,0,2.5,0.1,4-2.7"/>
			<path class="st1" d="M20.1,181.3l0.2,5.3c0,0,0.4,0.6,0.9,0.8c0.5,0.2,3.8,1.8,3.8,1.8s1.8,0.6,2.6,0.5"/>
			<path class="st1" d="M16.3,173.1c0,0-1.1,0.2-2.4-0.8c0,0-2.8,0.6-3.3,3.8l0,7.6c0,0,0.2,1.6,1.5,1.1c1.3-0.5,1.5-1.1,1.5-1.1
				l1-1.3"/>
			<path class="st1" d="M28.5,165.5l11-5.5c0,0,1.4-0.5,1.5,1c0.1,1.5,0,7.1,0,7.1s0.1,1.1-1.2,2.1l-5.9,2.9"/>
			<path class="st1" d="M51.3,155l-0.9,0.4c0-1.2-1-1-1-1l-6.5,3.2c-1.1,0.8-0.9,2-0.9,2l0,8.8c0,0,0.3,1.1,1.3,0.6s6.2-3,6.2-3
				s1.1-0.7,0.9-2l16.5-8.2v-0.8c0,0,2.9-1,3.2-2.2l0.3-1l0-1.7c0,0-0.2-1.8-1.4-3.3v-1.6"/>
			<path class="st1" d="M64.9,156.9V156c0,0,2.9-1,3.2-2.2l0.3-1l0-1.7c0,0-0.2-1.8-1.4-3.3v-1.6"/>
			<polyline class="st1" points="51.4,163.6 51.4,154 60.8,149.5 			"/>
			<line class="st1" x1="57.9" y1="160.2" x2="57.9" y2="150.9"/>
			<polyline class="st1" points="119.6,162.1 124.4,159.7 124.4,163.9 			"/>
			<polyline class="st1" points="119,157 119.4,156.8 124.4,159.4 			"/>
			<polyline class="st1" points="124.5,160.4 132.3,164.3 133.4,163.8 			"/>
			<path class="st1" d="M138.1,162.8c0,0.7-1,1.2-2.3,1.2c-1.3,0-2.3-0.5-2.3-1.2"/>
			<path class="st1" d="M135.8,169.8c1.3,0,2.3-0.5,2.3-1.2v-5.8"/>
			<line class="st1" x1="133.5" y1="162.8" x2="133.5" y2="168.7"/>
			<path class="st1" d="M126.8,130"/>
			<line class="st1" x1="125.8" y1="124.6" x2="121" y2="127.1"/>
			<polyline class="st1" points="121,127.1 121,128.6 125.5,130.9 			"/>
			<path class="st1" d="M65.3,147.6c0,0,3,2.7,0.1,8.2"/>
			<line class="st1" x1="68.7" y1="157.3" x2="68.7" y2="154.2"/>
			<g>
				<polygon class="st1" points="87.1,159.2 73.8,152.6 73.8,157.9 87.2,164.6 				"/>
				<polyline class="st1" points="87.2,164.6 88.5,164 88.4,158.5 75.1,152 73.8,152.6 				"/>
				<line class="st1" x1="73.8" y1="157.9" x2="79" y2="155.3"/>
				<polyline class="st1" points="80.4,156 80.4,161.2 85.6,158.5 				"/>
				<line class="st1" x1="87.1" y1="159.2" x2="88.4" y2="158.5"/>
			</g>
			<g>
				<polygon class="st1" points="99.4,164.6 89.6,159.6 89.6,166 99.5,171.1 				"/>
				<polyline class="st1" points="99.5,171.1 101.2,170 101.1,163.6 91.2,158.6 89.6,159.6 				"/>
				<line class="st1" x1="89.6" y1="165.8" x2="94.2" y2="163.7"/>
				<polyline class="st1" points="94.4,162.2 94.4,168.4 99,166.3 				"/>
				<line class="st1" x1="99.4" y1="164.6" x2="100.7" y2="163.9"/>
			</g>
			<g>
				<polygon class="st1" points="107.3,168.6 102.2,166 102.2,172.3 107.4,175 				"/>
				<polyline class="st1" points="107.4,175 109,174 108.9,167.5 103.8,164.9 102.2,166 				"/>
				<path class="st1" d="M102,167.7"/>
				<line class="st1" x1="102.2" y1="172.3" x2="106.9" y2="170.3"/>
				<line class="st1" x1="107.3" y1="168.6" x2="108.6" y2="167.9"/>
			</g>
			<path class="st1" d="M120.5,214.7l14.2-7c0,0,1.3-0.4,1.3,0.8c0,1.3,0.1,7,0.1,7s-0.4,1.6-1.3,2.2s-14.4,7.2-14.4,7.2
				s-1.2,0-1.2-1.3c0-1.3,0.1-6.7,0.1-6.7S119.4,215.1,120.5,214.7z"/>
			<path class="st1" d="M146.2,202.1l6.3-3.1c0,0,0.8-0.7,0.8,0.2s0,8.3,0,8.3s0.1,0.5-0.6,0.9c-0.7,0.4-6.5,3.3-6.5,3.3
				s-0.7,0-0.7-0.8c0-0.8,0.1-7.9,0.1-7.9S145.8,202.1,146.2,202.1z"/>
			
				<ellipse transform="matrix(0.498 -0.8672 0.8672 0.498 -109.1365 225.0196)" class="st1" cx="139.8" cy="206.8" rx="2" ry="1.4"/>
			<ellipse transform="matrix(0.498 -0.8672 0.8672 0.498 -82.3507 241.7642)" class="st1" cx="167.6" cy="192" rx="2" ry="1.4"/>
			<ellipse transform="matrix(0.498 -0.8672 0.8672 0.498 -83.7077 246.3943)" class="st1" cx="171" cy="195.5" rx="2" ry="1.4"/>
			<ellipse transform="matrix(0.498 -0.8672 0.8672 0.498 -91.2637 247.2469)" class="st1" cx="167.9" cy="202.5" rx="2" ry="1.4"/>
			<ellipse transform="matrix(0.498 -0.8672 0.8672 0.498 -78.5425 256.223)" class="st1" cx="182" cy="196" rx="2" ry="1.4"/>
			
				<ellipse transform="matrix(0.498 -0.8672 0.8672 0.498 -93.4004 239.5001)" class="st1" cx="160.2" cy="200.4" rx="1.3" ry="0.9"/>
			
				<ellipse transform="matrix(0.498 -0.8672 0.8672 0.498 -114.8623 228.3342)" class="st1" cx="139.8" cy="213.4" rx="2" ry="1.4"/>
			<line class="st1" x1="111.5" y1="212.8" x2="116.3" y2="210.4"/>
			<path class="st1" d="M107.2,205.6c1.7-0.3,3,0.1,3,0.1s3.1,1.2,4.6,2.1c1.7,1,1.7,2.3,1.7,2.3v23.3c0,0,0.3,0.9-0.7,1.4
				c-1.2,0.6-4.7,2.4-4.7,2.4s-1.3,0.4-3.3-0.5s-9.4-4.8-12.1-17.3c0,0-1.7-10,5.9-12.4c0,0,4.9-0.5,5-2.1c0,0-0.5-0.9-5.3,2"/>
			<path class="st1" d="M111.3,236.8v-22.9c0,0,0.2-2.3-1-3.1l-5.7-2.6c0,0-1.7-0.6-4.4,0.4"/>
			<path class="st1" d="M102.6,231.4c0,0-4.4-3.8-5.8-12.6c0,0-0.9-8.7,5-9.9c0,0,2.1-0.9,8.4,3v24.3c0,0-1.6,0.2-4-1.6"/>
			<path class="st1" d="M110,217.6l-1.3-0.6c0,0-3.5-0.4-5.5,4.7c0,0-0.5,2.5-0.5,3.9c-0.1,1.5,0.1,6.6,0.1,6.6s1.3,3.7,4.7,2.1
				c0,0,2.5-1.7,2.7-3.1"/>
			<path class="st1" d="M103.3,209c0,0-2.9,5.3-0.1,12.6"/>
			<path class="st1" d="M110.1,218.8l-1.2-0.7c0,0-3.4,0.3-4.7,5.4v8.2c0,0-0.3,3.6,4.1,1.8"/>
			
				<ellipse transform="matrix(0.4022 -0.9156 0.9156 0.4022 -118.9376 136.92)" class="st1" cx="45.4" cy="159.5" rx="1.6" ry="1.2"/>
			
				<ellipse transform="matrix(0.4022 -0.9156 0.9156 0.4022 -124.3396 140.4474)" class="st1" cx="45.4" cy="165.4" rx="1.6" ry="1.2"/>
			<ellipse class="st1" cx="83" cy="142.4" rx="2.1" ry="1"/>
			<ellipse class="st1" cx="106.8" cy="154.3" rx="2.1" ry="1"/>
			<path class="st1" d="M85.4,155.1v-2.3c0.1-0.9-0.8-1.5-0.8-1.5l-8.7-4.4c-1-0.4-0.9,0.7-0.9,0.7v2.4c0,0-0.1,0.7,0.7,1.1l9,4.6
				C84.7,155.6,85.3,156,85.4,155.1z"/>
			<path class="st1" d="M75.2,146.8l0.9-0.5c0,0,0.4-0.2,0.8,0l8.6,4.3c0,0,0.9,0.6,0.8,1.5v2.3c0,0.6-0.2,0.7-0.2,0.7l-1.2,0.6"/>
			<path class="st1" d="M89.4,155.6"/>
			<path class="st1" d="M239.4,146.8l-10.6,5.4c0,0,1.4,0.2,1.2,1.3"/>
			<polyline class="st1" points="229.5,152.7 225.6,154.7 224.8,154.3 210.6,161.5 210.6,163.2 			"/>
			<path class="st1" d="M210.6,161.5l-14.1-6.8l1.5-2.2l3.7-1.8c0,0,0.4-0.3,1,0c0.6,0.3,1.9,0.9,1.9,0.9"/>
			<line class="st1" x1="127.6" y1="114.1" x2="80.8" y2="137.7"/>
			<path class="st2" d="M286.9,131.1c0,0,1.2,0.9-0.1,2l-0.6,0.3l-12.9,6.4c0,0-0.5,0.4-0.5,1s0.1,3.7,0.1,3.7s-0.1,0.7,0.7,0.4
				c0.8-0.4,13.1-6.5,13.1-6.5s0.9-0.3,0.9,0.6s0,1.6,0,1.6s0.5,0.7,1-0.3c0,0,0.9-0.9-0.8-2.3c-1.7-1.4-1.3-1.4-1.3-1.4l0.1-3.2"/>
			<line class="st2" x1="288.9" y1="139.5" x2="296" y2="135.9"/>
			<path class="st2" d="M285.1,134l0,1.3c0,0,0.2,0.4-0.5,0.8c-0.2,0.1-0.5,0.2-0.7,0.3c-0.4,0.2-0.7,0.3-0.7,0.3l0,1.5l1.6-0.8"/>
			<path class="st2" d="M283.9,136.5l0.7,0.4c0,0,0.6,0.3,0.4,1.2l0,1.1"/>
			<path class="st1" d="M240.3,148.4c0,0,0-1.2,1-1.7c1-0.5,8.9-4.3,8.9-4.3s0.4-0.5,1.5,0.2"/>
			<path class="st1" d="M241.4,148.5c0,0,0-0.9,1.3-1.6c1.3-0.6,8-3.9,8-3.9s0.9-0.4,1.5-0.1"/>
			<path class="st1" d="M241.8,152.9l10.2-5.1c0,0,0.8-0.3,0.1-1.1l0-6.1"/>
			<line class="st1" x1="196.9" y1="154.9" x2="196.9" y2="160.1"/>
			<path class="st1" d="M196.7,158.9c0,0-0.9,1,0.6,1.6c0.4,0.1,0.9,0.4,1.5,0.7c0.8,0.4,1.7,0.8,2.5,1.2"/>
			<line class="st1" x1="143.9" y1="161.4" x2="143.8" y2="164.4"/>
			<polyline class="st1" points="143.8,164.1 143.1,164.5 145.5,165.6 			"/>
			<path class="st1" d="M120.1,157.7c0,0,0.9,0.5,0.9,1c0,0.8,0,0.9,0,0.9s0.1,0.8-0.9,1.4c-0.2,0.1-0.6,0.3-1,0.5"/>
			<path class="st1" d="M113.1,161.2c0,0,0.6,0.2,0.6,0.7"/>
			<polyline class="st1" points="124.4,160.7 123,161.5 123,163.2 			"/>
			<path class="st1" d="M148.5,153.6v-4c0,0-0.1-1.7,1.3-1.6c0,0,0.9,0.4,0.9,2.5"/>
			<path class="st1" d="M153,146.6c0,0,1,0.1,1,2.2"/>
			<path class="st1" d="M157.3,147.3c0-2-1-2.2-1-2.2v5.6"/>
			<line class="st1" x1="149.4" y1="148" x2="157.9" y2="144"/>
			<line class="st1" x1="153" y1="146.6" x2="153" y2="149.5"/>
			<path class="st1" d="M160.2,144.2c0.2,0.3,0.3,0.8,0.3,1.6"/>
			<line class="st1" x1="159.6" y1="146.3" x2="159.6" y2="144.3"/>
			<path class="st1" d="M196.9,156.6c-1.1-0.1-1.9-0.5-1.9-1v-1.3"/>
			<g>
				<polyline class="st1" points="208.1,138.7 208.1,137.3 206,138.3 206,144.6 205,144.1 205,145.1 				"/>
				<polyline class="st1" points="206.5,145 207.6,145.5 207.6,139.2 209.7,138.1 209.7,139.5 				"/>
				<polyline class="st1" points="208.1,145.8 209.1,146.3 209.1,140 211.2,139 211.2,140.4 				"/>
				<polyline class="st1" points="209.6,146.7 210.6,147.1 210.6,140.9 212.7,139.8 212.7,141.2 				"/>
				<polyline class="st1" points="212.2,146.9 212.2,141.7 214.3,140.7 214.3,142.1 				"/>
				<polyline class="st1" points="213.7,146.2 213.7,142.5 215.8,141.5 215.8,145 				"/>
			</g>
			<g>
				<polyline class="st1" points="208.9,138.5 208.9,136.8 211,135.8 211,137.2 				"/>
				<polyline class="st1" points="210.5,139.3 210.5,137.7 212.6,136.7 212.6,138 				"/>
				<polyline class="st1" points="212,140.2 212,138.5 214.1,137.5 214.1,138.9 				"/>
				<polyline class="st1" points="213.5,141 213.5,139.4 215.6,138.3 215.6,139.8 				"/>
				<polyline class="st1" points="215.1,141.9 215.1,140.2 217.2,139.2 217.2,140.6 				"/>
				<polyline class="st1" points="216.6,144.7 216.6,141.1 218.7,140 218.7,143.5 				"/>
			</g>
			<g>
				<polyline class="st1" points="211.8,137 211.8,135.3 213.9,134.3 213.9,135.7 				"/>
				<polyline class="st1" points="213.4,137.8 213.4,136.2 215.5,135.2 215.5,136.5 				"/>
				<polyline class="st1" points="214.9,138.7 214.9,137 217,136 217,137.4 				"/>
				<polyline class="st1" points="216.4,139.5 216.4,137.9 218.5,136.9 218.6,138.3 				"/>
				<polyline class="st1" points="218,140.4 218,138.7 220.1,137.7 220.1,139.1 				"/>
				<polyline class="st1" points="219.5,143.2 219.5,139.6 221.6,138.5 221.6,142 				"/>
			</g>
			<g>
				<polyline class="st1" points="214.7,135.5 214.7,133.8 216.8,132.8 216.8,134.2 				"/>
				<polyline class="st1" points="216.2,136.3 216.2,134.7 218.3,133.7 218.3,135 				"/>
				<polyline class="st1" points="217.8,137.2 217.8,135.5 219.9,134.5 219.9,135.9 				"/>
				<polyline class="st1" points="219.3,138.1 219.3,136.4 221.4,135.4 221.4,136.8 				"/>
				<polyline class="st1" points="220.8,138.9 220.8,137.2 222.9,136.2 223,137.7 				"/>
				<polyline class="st1" points="222.4,141.7 222.4,138.1 224.5,137.1 224.5,140.5 				"/>
			</g>
			<g>
				<polyline class="st1" points="217.4,134.2 217.4,132.5 219.5,131.5 219.5,132.8 				"/>
				<polyline class="st1" points="218.9,135 218.9,133.3 221,132.3 221,133.7 				"/>
				<polyline class="st1" points="220.5,135.9 220.5,134.2 222.6,133.2 222.6,134.5 				"/>
				<polyline class="st1" points="222,136.7 222,135 224.1,134 224.1,135.4 				"/>
				<polyline class="st1" points="223.6,137.6 223.6,135.9 225.7,134.9 225.7,136.3 				"/>
				<polyline class="st1" points="225.1,140.4 225.1,136.7 227.2,135.7 227.2,139.2 				"/>
			</g>
			<g>
				<polyline class="st1" points="220.2,132.8 220.2,131.1 222.3,130.1 222.3,131.5 				"/>
				<polyline class="st1" points="221.7,133.6 221.7,132 223.8,130.9 223.8,132.3 				"/>
				<polyline class="st1" points="223.3,134.5 223.3,132.8 225.4,131.8 225.4,133.1 				"/>
				<polyline class="st1" points="224.8,135.3 224.8,133.6 226.9,132.6 226.9,134 				"/>
				<polyline class="st1" points="226.3,136.2 226.3,134.5 228.4,133.5 228.4,134.9 				"/>
				<polyline class="st1" points="227.9,139 227.9,135.3 230,134.3 230,137.8 				"/>
			</g>
			<g>
				<polyline class="st1" points="223,131.4 223,129.7 225.1,128.7 225.1,130.1 				"/>
				<polyline class="st1" points="224.5,132.2 224.5,130.6 226.6,129.5 226.6,130.9 				"/>
				<polyline class="st1" points="226,133.1 226,131.4 228.1,130.4 228.2,131.8 				"/>
				<polyline class="st1" points="227.6,133.9 227.6,132.3 229.7,131.2 229.7,132.6 				"/>
				<polyline class="st1" points="229.1,134.8 229.1,133.1 231.2,132.1 231.2,133.5 				"/>
				<polyline class="st1" points="230.7,137.6 230.7,133.9 232.8,132.9 232.8,136.4 				"/>
			</g>
			<g>
				<polyline class="st1" points="225.7,130 225.7,128.3 227.8,127.3 227.9,128.7 				"/>
				<polyline class="st1" points="227.3,130.8 227.3,129.2 229.4,128.2 229.4,129.5 				"/>
				<polyline class="st1" points="228.8,131.7 228.8,130 230.9,129 230.9,130.4 				"/>
				<polyline class="st1" points="230.4,132.5 230.4,130.9 232.5,129.8 232.5,131.2 				"/>
				<polyline class="st1" points="231.9,133.4 231.9,131.7 234,130.7 234,132.1 				"/>
				<polyline class="st1" points="233.4,136.2 233.4,132.6 235.5,131.5 235.6,135 				"/>
			</g>
			<g>
				<polyline class="st1" points="228.5,128.6 228.5,126.9 230.6,125.9 230.6,127.3 				"/>
				<polyline class="st1" points="230.1,129.4 230.1,127.8 232.2,126.8 232.2,128.1 				"/>
				<polyline class="st1" points="231.6,130.3 231.6,128.6 233.7,127.6 233.7,129 				"/>
				<polyline class="st1" points="233.1,131.1 233.1,129.5 235.2,128.5 235.3,129.9 				"/>
				<polyline class="st1" points="234.7,132 234.7,130.3 236.8,129.3 236.8,130.7 				"/>
				<polyline class="st1" points="236.2,134.8 236.2,131.2 238.3,130.1 238.3,133.6 				"/>
			</g>
			<g>
				<polyline class="st1" points="245.3,120.1 245.3,118.5 247.4,117.4 247.5,118.8 				"/>
				<polyline class="st1" points="246.9,121 246.9,119.3 249,118.3 249,119.7 				"/>
				<polyline class="st1" points="248.4,121.8 248.4,120.2 250.5,119.1 250.5,120.5 				"/>
				<polyline class="st1" points="250,122.7 250,121 252.1,120 252.1,121.4 				"/>
				<polyline class="st1" points="251.5,122.9 251.5,121.8 253.6,120.8 253.6,121.9 				"/>
			</g>
			<g>
				<polyline class="st1" points="235.6,126.5 235.6,125.1 237.7,124.1 237.7,125.4 				"/>
				<polyline class="st1" points="237.1,127.4 237.1,125.9 239.2,124.9 239.2,126.3 				"/>
				<polyline class="st1" points="238.7,128.2 238.7,126.8 240.8,125.8 240.8,127.2 				"/>
				<polyline class="st1" points="240.2,129.1 240.2,127.6 242.3,126.6 242.3,127.8 				"/>
			</g>
			<g>
				<polyline class="st1" points="238.4,125.1 238.4,123.6 240.5,122.6 240.5,124 				"/>
				<polyline class="st1" points="240,126 240,124.5 242.1,123.5 242.1,124.9 				"/>
				<polyline class="st1" points="241.5,126.8 241.5,125.3 243.6,124.3 243.6,125.8 				"/>
				<polyline class="st1" points="243.1,127.4 243.1,126.2 245.2,125.2 245.2,126.3 				"/>
			</g>
			<g>
				<polyline class="st1" points="241.3,123.7 241.3,122.2 243.4,121.2 243.4,122.5 				"/>
				<polyline class="st1" points="242.8,124.6 242.8,123 244.9,122 244.9,123.4 				"/>
				<polyline class="st1" points="244.4,125.4 244.4,123.9 246.5,122.9 246.5,124.3 				"/>
				<polyline class="st1" points="245.9,126 245.9,124.7 248,123.7 248,124.9 				"/>
			</g>
			<g>
				<polyline class="st1" points="244.1,122.2 244.1,120.8 246.2,119.7 246.2,121.1 				"/>
				<polyline class="st1" points="245.7,123.1 245.7,121.6 247.8,120.6 247.8,122 				"/>
				<polyline class="st1" points="247.2,123.9 247.2,122.5 249.3,121.4 249.3,122.9 				"/>
				<polyline class="st1" points="248.7,124.5 248.7,123.3 250.8,122.3 250.8,123.5 				"/>
			</g>
			<g>
				<polyline class="st1" points="231.3,127.2 231.3,125.5 233.4,124.5 233.4,125.9 				"/>
				<polyline class="st1" points="232.8,128 232.8,126.4 234.9,125.4 235,126.7 				"/>
				<polyline class="st1" points="234.4,128.9 234.4,127.2 236.5,126.2 236.5,127.6 				"/>
				<polyline class="st1" points="235.9,129.8 235.9,128.1 238,127.1 238,128.5 				"/>
				<polyline class="st1" points="237.5,130.6 237.5,128.9 239.6,127.9 239.6,129.4 				"/>
				<polyline class="st1" points="239,132.2 239,129.8 241.1,128.8 				"/>
			</g>
			<polyline class="st1" points="202.4,148.1 202.8,147.9 203.3,148.2 206.6,146.5 			"/>
			<line class="st1" x1="204.5" y1="150.7" x2="202.9" y2="150"/>
			<line class="st1" x1="207" y1="149.6" x2="204" y2="148"/>
			<polyline class="st1" points="205,147.3 205,145.1 210.5,147.8 			"/>
			
				<ellipse transform="matrix(0.2857 -0.9583 0.9583 0.2857 15.1499 343.2368)" class="st1" cx="237.8" cy="161.5" rx="1.9" ry="1.4"/>
			
				<ellipse transform="matrix(0.2857 -0.9583 0.9583 0.2857 41.2039 356.1111)" class="st1" cx="259.5" cy="150.4" rx="1.9" ry="1.4"/>
			<path class="st3" d="M277,120.3c0.2-0.8,0.8-1.5,1.7-1.7c1.2-0.2,2.3,0.5,2.6,1.6c0.2,0.8-0.1,1.5-0.7,2"/>
			<path class="st3" d="M275.4,119.3c0.2-0.8,0.8-1.5,1.7-1.7c0.8-0.2,1.7,0.1,2.1,0.7"/>
			<path class="st3" d="M273.7,118.4c0.2-0.8,0.8-1.5,1.7-1.7c0.8-0.2,1.7,0.1,2.1,0.7"/>
			<path class="st3" d="M271.9,117.4c0.2-0.8,0.8-1.5,1.7-1.7c0.8-0.2,1.7,0.1,2.1,0.7"/>
			<line class="st3" x1="263.6" y1="117" x2="263.6" y2="119.7"/>
			<line class="st3" x1="264.9" y1="116.8" x2="264.9" y2="119"/>
			<path class="st4" d="M175.1,103.8c-2.2-0.8-3-4.2-1.7-7.5c1.2-3.3,4-5.3,6.2-4.5c2.2,0.8,3,4.2,1.7,7.5c-0.2,0.5-0.4,1-0.7,1.4"
				/>
			<path class="st4" d="M172.9,94.4c1.3-2.3,3.5-3.7,5.3-3.2l1.4,0.6"/>
			<path class="st4" d="M174,103.2"/>
			<path class="st5" d="M178.1,91l0.9-0.5c0,0,3.4,0.7,3.7,4.8v4.7"/>
			<path class="st5" d="M169.2,101.9c0,0-0.3-6.4,1.9-7.4l1.3,0.6c0,0,0.4,0.7,0,1.7c-0.4,1-0.5,5.6-0.4,6.4"/>
			<path class="st5" d="M171.2,94.5l0.6-0.3l1.3,0.6c0,0,0.3,0.5,0.2,1.2c-0.1,0.7-1.5,6,0.7,7.3"/>
			<polyline class="st5" points="180.5,101.6 180.4,100.2 179.8,100 175.1,102.3 175.8,102.5 175.8,103.6 			"/>
			<g>
				<line class="st6" x1="177.6" y1="95.6" x2="177.7" y2="98.3"/>
				<line class="st6" x1="176.4" y1="97.5" x2="178.9" y2="96.5"/>
			</g>
			
				<ellipse transform="matrix(0.9011 -0.4336 0.4336 0.9011 -24.3965 104.3169)" class="st6" cx="216.5" cy="105.6" rx="1.4" ry="1.9"/>
			<text transform="matrix(0.7325 -0.3565 6.281000e-02 0.998 242.5352 151.8134)" class="st7 st8">PUSH</text>
		</g>
		<g>
			<g>
				<path class="st9" d="M145.9,197.7l-32.8-16.4c0,0-0.7,0.1-0.7-2.2c0-2.2,0-13.6,0-13.6s0.1-1.6,1.5-1.3l3.2,1.6v-1l42.3,21.1
					c0,0,1,0.5,1,1.5v1.8"/>
				<path class="st9" d="M153.4,192.6l-4.9-2.4c0,0-0.5-0.3-0.5,0.8c0.1,1.4,0,5.5,0,5.5"/>
				<g>
					<polygon class="st10" points="146.2,196.8 137.5,192.4 137.5,184.7 146.2,189.1 					"/>
					<polygon class="st10" points="124.3,183.2 115.5,178.8 115.5,173.2 124.3,177.6 					"/>
					<polygon class="st10" points="134.5,188.7 127.5,185.2 127.5,179.8 134.5,183.3 					"/>
					<g>
						<polyline class="st10" points="140.2,191.6 138.6,190.8 138.6,186.3 145.1,189.6 145.1,194.1 143.5,193.3 						"/>
						<polyline class="st10" points="143.5,193.3 143.5,194.3 140.2,192.6 140.2,191.6 						"/>
					</g>
				</g>
				<polygon class="st11" points="123.4,181.2 117.1,178.2 117.1,175 123.4,178.1 				"/>
				<path class="st10" d="M129.4,181.8l3.4,1.7c0,0,0.9,0.5,0.8,1.4c-0.1,0.9-0.2,1-0.9,1s-3.2-1.5-3.2-1.5s-0.8-0.8-0.8-1.6
					C128.5,181.8,129.4,181.8,129.4,181.8z"/>
				<polyline class="st11" points="155.2,192 129.1,179 129.1,173.7 155.7,186.9 155.7,191.7 				"/>
				<polyline class="st11" points="129.1,173.6 130.3,173 157,186.3 157,190.9 				"/>
				<line class="st11" x1="129.1" y1="179" x2="134.3" y2="176.4"/>
				<polyline class="st11" points="135.7,177 135.7,182.3 140.6,179.6 				"/>
				<polyline class="st11" points="142.4,180.3 142.4,185.6 147.5,183 				"/>
				<polyline class="st11" points="149,183.6 149,188.8 154.1,186.2 				"/>
				<line class="st11" x1="155.7" y1="186.9" x2="157" y2="186.3"/>
				<path class="st10" d="M164.4,184.5c0,0,0.1-0.8-0.7-1.1l-3,1.7l-43.1-21.4c-1.6,0.3-1.6,1.6-1.6,1.6"/>
				<path class="st10" d="M119.7,162.4c0,0-1.9-0.9-2.7-1.4c-0.6-0.3-1.2-0.1-1.2-0.1s-1.1,0.6-2.1,1c-0.2,0.1-0.4,0.2-0.6,0.3
					c-0.6,0.4-0.6,1.1-0.6,1.1v1.5"/>
				<line class="st10" x1="116.3" y1="164.1" x2="113" y2="162.4"/>
				<path class="st10" d="M117.7,163.7l2.5-1.2c0,0,0.5-0.2,1,0c0.2,0.1,7.2,3.6,15.4,7.7c12,6,27.2,13.3,27.2,13.3l14.3-7.7"/>
				<polyline class="st10" points="136.6,170.2 151.5,162.5 178.1,175.8 178.2,179.1 				"/>
				<path class="st10" d="M181.3,177.6V174l8.8-4.4c0,0,1-0.5,1.8-0.1c0.8,0.4,2.6,1.4,2.6,1.4"/>
				<g>
					<ellipse class="st9" cx="135.8" cy="156" rx="3.7" ry="1.9"/>
					<path class="st9" d="M139.4,159.6c0,1.1-1.6,1.9-3.7,1.9s-3.7-0.9-3.7-1.9"/>
					<path class="st9" d="M132.1,156v4.9c0,1.1,1.6,1.9,3.7,1.9s3.7-0.9,3.7-1.9v-4.7"/>
					<line class="st10" x1="134.5" y1="155.1" x2="136.9" y2="156.5"/>
					<line class="st10" x1="134.2" y1="156.5" x2="137" y2="155"/>
				</g>
				<g>
					<ellipse class="st9" cx="197.4" cy="142.7" rx="3.7" ry="1.9"/>
					<path class="st9" d="M201.1,146.3c0,1.1-1.6,1.9-3.7,1.9s-3.7-0.9-3.7-1.9"/>
					<path class="st9" d="M193.8,142.7v4.9c0,1.1,1.6,1.9,3.7,1.9s3.7-0.9,3.7-1.9v-4.7"/>
					<line class="st10" x1="196.1" y1="141.8" x2="198.5" y2="143.1"/>
					<line class="st10" x1="195.8" y1="143.2" x2="198.7" y2="141.7"/>
				</g>
				<g>
					<ellipse class="st9" cx="200.1" cy="164.2" rx="3.7" ry="1.9"/>
					<line class="st9" x1="203.8" y1="166.2" x2="203.8" y2="164.4"/>
					<line class="st9" x1="196.5" y1="164.2" x2="196.5" y2="169.8"/>
					<line class="st10" x1="198.8" y1="163.3" x2="201.2" y2="164.7"/>
					<line class="st10" x1="198.6" y1="164.7" x2="201.4" y2="163.2"/>
				</g>
				<path class="st9" d="M166.3,143.5l11.8-5.9c0,0,1.2-0.8,2.3-0.3c1,0.5,13.3,6.8,13.3,6.8"/>
				<line class="st9" x1="139.8" y1="156.5" x2="148.1" y2="152.4"/>
				<ellipse class="st1" cx="145.8" cy="155.9" rx="2.1" ry="1.1"/>
				<path class="st12" d="M147.2,157.6c0.1,0.1,0.1,0.2,0.2,0.3c0.1,0.4-0.5,0.8-1.4,1s-1.5-0.1-1.6-0.6c0-0.2,0.1-0.4,0.3-0.6"/>
				<path class="st12" d="M147,158.6c0.2,0.1,0.3,0.2,0.4,0.4c0.1,0.4-0.5,0.8-1.4,1s-1.5-0.1-1.6-0.6c0-0.2,0.2-0.5,0.5-0.7"/>
				<path class="st1" d="M143.7,156.1v0.8c0,0.6,0.9,1.1,2.1,1.1s2.1-0.5,2.1-1.1v-0.9"/>
				<path class="st10" d="M188.9,156l14-7c0,0,0.2-0.5-0.3-0.7c-0.4-0.2-1.3-0.6-1.3-0.6"/>
				<ellipse class="st10" cx="187.4" cy="156.9" rx="1.9" ry="0.9"/>
				<path class="st13" d="M188.5,160.3c0.2,0.1,0.2,0.2,0.2,0.4c0,0.3-0.6,0.6-1.4,0.6"/>
				<path class="st10" d="M187.4,158.8c1.1,0,1.9-0.4,1.9-0.9v-1.1"/>
				<path class="st14" d="M188.6,158.6c0.1,0.1,0.2,0.2,0.2,0.3c0,0.3-0.6,0.7-1.3,0.8"/>
				<path class="st14" d="M188.4,159.4c0.2,0.1,0.3,0.2,0.4,0.3c0,0.3-0.6,0.7-1.3,0.8"/>
				<line class="st14" x1="189.6" y1="157.1" x2="197.1" y2="153.2"/>
				<line class="st14" x1="202.9" y1="149" x2="202.9" y2="150.1"/>
				<polyline class="st14" points="170.5,171.7 191,161.5 191,160.5 188.8,159.4 				"/>
				<line class="st14" x1="187.5" y1="162.3" x2="191" y2="160.5"/>
				<g>
					<polyline class="st15" points="164.8,169.2 164.8,166.6 167.3,165.4 167.3,167.7 					"/>
					<polyline class="st15" points="162.4,168.1 162.4,165.4 164.8,164.2 164.8,166.6 					"/>
					<polyline class="st15" points="159.8,166.8 159.8,164.1 162.3,162.9 162.3,165.3 					"/>
					<polyline class="st15" points="157.3,165.5 157.3,162.8 159.7,161.6 159.7,164 					"/>
					<polyline class="st15" points="154.8,164.3 154.8,161.6 157.2,160.4 157.2,162.8 					"/>
					<polyline class="st15" points="152.2,163 152.2,160.3 154.6,159.1 154.6,161.5 					"/>
					<polyline class="st15" points="149.7,163.2 149.7,159 152.2,157.9 152.2,160.2 					"/>
					<polyline class="st15" points="149.8,158.9 149.8,156.5 147.4,157.7 147.4,161.8 146.6,161.4 					"/>
					<polyline class="st16" points="167.3,170.5 167.3,167.9 169.8,166.7 169.8,171.5 					"/>
					<polyline class="st16" points="173.3,169.3 173.3,164.9 170.8,166.1 170.8,170.1 171.3,170.4 170,171 					"/>
					<polyline class="st16" points="170.8,166 170.8,163.6 168.3,164.8 168.3,167.3 					"/>
					<polyline class="st16" points="174.3,164.2 174.3,161.9 171.8,163.1 171.8,165.6 					"/>
					<polyline class="st16" points="177.8,162.4 177.8,160.1 175.3,161.3 175.3,163.8 					"/>
					<polyline class="st16" points="181.3,160.7 181.3,158.4 178.8,159.6 178.8,162.1 					"/>
					<polyline class="st16" points="184.8,159 184.8,156.7 182.3,157.9 182.3,160.4 					"/>
					<g>
						<polyline class="st16" points="168.3,164.7 168.3,162.4 165.8,163.6 165.8,166.1 						"/>
						<polyline class="st16" points="171.8,163 171.8,160.6 169.3,161.8 169.3,164.3 						"/>
						<polyline class="st16" points="175.3,161.2 175.3,158.8 172.8,160.1 172.8,162.6 						"/>
						<polyline class="st16" points="178.8,159.5 178.8,157.1 176.3,158.4 176.3,160.9 						"/>
						<polyline class="st16" points="182.3,157.8 182.3,155.4 179.8,156.6 179.8,159.1 						"/>
						<polyline class="st16" points="185.8,156 185.8,153.6 183.3,154.8 183.3,157.4 						"/>
					</g>
					<polyline class="st16" points="176.8,167.6 176.8,163.2 174.3,164.4 174.3,168.4 174.8,168.6 173.5,169.3 					"/>
					<polyline class="st16" points="180.3,165.8 180.3,161.4 177.8,162.6 177.8,166.6 178.4,166.8 177.1,167.5 					"/>
					<polyline class="st16" points="183.8,164 183.8,159.6 181.3,160.8 181.3,164.8 181.8,165.1 180.5,165.8 					"/>
					<polyline class="st16" points="187.3,162.3 187.3,157.9 184.8,159.1 184.8,163.1 185.3,163.4 184,164.1 					"/>
				</g>
				<g>
					<polyline class="st16" points="165.9,163.3 165.8,161 163.3,162.2 163.3,164.7 					"/>
					<polyline class="st16" points="169.3,161.6 169.3,159.3 166.8,160.5 166.8,163 					"/>
					<polyline class="st16" points="172.9,159.8 172.9,157.5 170.4,158.7 170.4,161.2 					"/>
					<polyline class="st16" points="176.4,158.1 176.4,155.8 173.8,157 173.8,159.5 					"/>
					<polyline class="st16" points="179.9,156.4 179.8,154 177.3,155.3 177.3,157.8 					"/>
					<polyline class="st16" points="183.4,154.6 183.4,152.3 180.8,153.5 180.8,156 					"/>
				</g>
				<g>
					<polyline class="st16" points="163.3,162.1 163.3,159.7 160.8,161 160.8,163.5 					"/>
					<polyline class="st16" points="166.7,160.4 166.7,158 164.2,159.2 164.2,161.7 					"/>
					<polyline class="st16" points="170.3,158.6 170.3,156.2 167.8,157.4 167.8,159.9 					"/>
					<polyline class="st16" points="173.8,156.9 173.8,154.5 171.3,155.7 171.3,158.2 					"/>
					<polyline class="st16" points="177.3,155.2 177.3,152.8 174.8,154 174.8,156.5 					"/>
					<polyline class="st16" points="180.8,153.4 180.8,151 178.3,152.2 178.3,154.7 					"/>
				</g>
				<g>
					<polyline class="st16" points="160.7,161 160.7,158.7 158.2,159.9 158.2,162.4 					"/>
					<polyline class="st16" points="164.2,159.3 164.2,156.9 161.7,158.2 161.7,160.7 					"/>
					<polyline class="st16" points="167.8,157.5 167.8,155.2 165.2,156.4 165.2,158.9 					"/>
					<polyline class="st16" points="171.3,155.8 171.2,153.5 168.7,154.7 168.7,157.2 					"/>
					<polyline class="st16" points="174.7,154.1 174.7,151.7 172.2,152.9 172.2,155.4 					"/>
					<polyline class="st16" points="178.3,152.3 178.2,150 175.7,151.2 175.7,153.7 					"/>
				</g>
				<g>
					<polyline class="st16" points="158.3,159.7 158.2,157.3 155.7,158.5 155.7,161 					"/>
					<polyline class="st16" points="161.7,157.9 161.7,155.6 159.2,156.8 159.2,159.3 					"/>
					<polyline class="st16" points="165.3,156.1 165.3,153.8 162.8,155 162.8,157.5 					"/>
					<polyline class="st16" points="168.8,154.4 168.8,152.1 166.2,153.3 166.2,155.8 					"/>
					<polyline class="st16" points="172.3,152.7 172.2,150.4 169.7,151.6 169.7,154.1 					"/>
					<polyline class="st16" points="175.8,150.9 175.8,148.6 173.2,149.8 173.2,152.3 					"/>
				</g>
				<g>
					<polyline class="st16" points="155.7,158.4 155.7,156.1 153.2,157.3 153.2,159.8 					"/>
					<polyline class="st16" points="159.1,156.7 159.1,154.3 156.6,155.5 156.6,158 					"/>
					<polyline class="st16" points="162.7,154.9 162.7,152.5 160.2,153.8 160.2,156.3 					"/>
					<polyline class="st16" points="166.2,153.2 166.2,150.8 163.7,152.1 163.7,154.6 					"/>
					<polyline class="st16" points="169.7,151.5 169.7,149.1 167.2,150.3 167.2,152.8 					"/>
					<polyline class="st16" points="173.2,149.7 173.2,147.3 170.7,148.5 170.7,151 					"/>
				</g>
				<g>
					<polyline class="st16" points="153.2,157.2 153.2,154.8 150.7,156 150.7,158.5 					"/>
					<polyline class="st16" points="156.7,155.4 156.7,153.1 154.2,154.3 154.2,156.8 					"/>
					<polyline class="st16" points="160.3,153.7 160.2,151.3 157.7,152.5 157.7,155 					"/>
					<polyline class="st16" points="163.7,151.9 163.7,149.6 161.2,150.8 161.2,153.3 					"/>
					<polyline class="st16" points="167.2,150.2 167.2,147.9 164.7,149.1 164.7,151.6 					"/>
					<polyline class="st16" points="170.7,148.4 170.7,146.1 168.2,147.3 168.2,149.8 					"/>
				</g>
				<g>
					<polyline class="st16" points="150.7,155.8 150.7,153.4 148.2,154.6 148.2,157.2 					"/>
					<polyline class="st16" points="154.2,154.1 154.2,151.7 151.7,152.9 151.7,155.4 					"/>
					<polyline class="st16" points="157.8,152.3 157.8,149.9 155.2,151.1 155.2,153.6 					"/>
					<polyline class="st16" points="161.3,150.6 161.2,148.2 158.7,149.4 158.7,151.9 					"/>
					<polyline class="st16" points="164.7,148.8 164.7,146.5 162.2,147.7 162.2,150.2 					"/>
					<polyline class="st16" points="168.3,147.1 168.2,144.7 165.7,145.9 165.7,148.4 					"/>
				</g>
				<g>
					<polyline class="st16" points="151.7,152.8 151.7,150.4 149.1,151.6 149.1,154.1 					"/>
					<polyline class="st16" points="155.2,151 155.2,148.6 152.7,149.8 152.7,152.3 					"/>
					<polyline class="st16" points="158.7,149.3 158.7,146.9 156.2,148.1 156.2,150.6 					"/>
					<polyline class="st16" points="162.2,147.5 162.2,145.2 159.7,146.4 159.7,148.9 					"/>
					<polyline class="st16" points="165.7,145.8 165.7,143.4 163.2,144.6 163.2,147.1 					"/>
				</g>
				<polyline class="st16" points="149,163.7 141.9,160.4 141.9,159.3 144.1,158.2 				"/>
				<polyline class="st16" points="142.3,159.5 145.7,161.1 147.4,160.3 				"/>
				<line class="st16" x1="190.1" y1="162.1" x2="196.3" y2="165.2"/>
			</g>
			<ellipse class="st17" cx="121" cy="163.9" rx="1.1" ry="0.5"/>
			<ellipse class="st18" cx="160.5" cy="183.5" rx="1" ry="0.5"/>
		</g>
		<line class="st10" x1="161.1" y1="188.8" x2="160.9" y2="185.2"/>
	</g>
</g>
<g id="Zoom_copy">
	<line class="st19" x1="125.1" y1="85.3" x2="190.9" y2="107.4"/>
	<line class="st20" x1="125.1" y1="85.3" x2="190.9" y2="107.4"/>
	<g>
		<g>
			<path class="st0" d="M58.9,41.9l9.6-8.6l0.3,0.3l1.2-0.8l-1.3-1.6l0.4-0.1c0,0,2.1,0.1,1.9-1l-1.5-0.3L57.3,40.9l0.2,0.3
				l-0.4,0.4L58.9,41.9z"/>
			<path class="st21" d="M68.8,31.1c2.4,0.2,2.1-0.8,2.1-0.8l-1.5-0.3l-2.6,2.5L68.8,31.1z"/>
			<polyline class="st21" points="66.9,32.3 68.9,33.7 70.1,32.7 68.7,31.2 			"/>
			<line class="st21" x1="59" y1="41.8" x2="68.4" y2="33.4"/>
			<line class="st22" x1="57.4" y1="40.9" x2="66.8" y2="32.4"/>
			<polyline class="st22" points="66.4,34.9 66.2,34 65.2,33.8 			"/>
			<line class="st22" x1="57.7" y1="41.9" x2="66.1" y2="34.2"/>
		</g>
		<line class="st1" x1="148.3" y1="60" x2="148.3" y2="61.2"/>
		<line class="st1" x1="147.5" y1="59.6" x2="147.5" y2="61"/>
		<path class="st22" d="M155.3,57.8l1.8,0.9l-7.1,3.5c0,0-0.9-0.8-2.2-0.4l-2.2,1.2"/>
		<polyline class="st22" points="157.1,58.8 157.1,60.1 150.1,63.6 150.1,62.2 		"/>
		<path class="st22" d="M146.4,63.9l1.4-0.7c0,0,1.1-0.4,2.2,0.5"/>
		<line class="st23" x1="51.1" y1="46.3" x2="51.1" y2="48.9"/>
		<g>
			<polygon class="st1" points="118.6,72.4 56.9,41.5 57.5,41.2 56.2,40.5 50.4,43.6 114.8,75.8 120.6,72.8 119.2,72.1 			"/>
			<polyline class="st1" points="120.7,72.8 120.7,75.6 121.2,75.3 121.2,76.5 120.3,77 120.3,79.4 121.2,78.9 121.2,82.2 
				114.9,85.2 114.9,81 115.6,80.5 115.6,77.4 114.9,77.8 114.9,76 			"/>
			<polyline class="st1" points="114.9,77.8 50.2,45.6 50.2,43.6 			"/>
			<path class="st1" d="M114.9,81.1L50.2,48.9c0,0-0.1,4,0,4.1l64.7,32.2"/>
			<path class="st22" d="M131.9,74.4l14.5-7.4l-0.1-2.8c0,0-0.3-1.2-1.9-1.2l-0.9,0.5l1,0.8l-1.1-0.1l-2.2,1.1l0.2,0.5l1.4-0.6
				l0.5,0.4l-15.6,8"/>
			<polyline class="st1" points="142.9,61.8 147.5,59.6 148.3,60 155.3,56.5 144.1,50.8 			"/>
			<line class="st1" x1="136" y1="66.5" x2="123.6" y2="72.7"/>
			<polyline class="st1" points="155.3,56.5 155.4,57.8 148.2,61.4 147.4,61 136.2,66.5 			"/>
			<polyline class="st1" points="135.1,57.8 142.9,61.5 142.9,63.1 			"/>
			<path class="st1" d="M142.7,61.5l-6.6,3.4c0,0-1.3-0.5-2-0.4l-14.9,7.6"/>
			<path class="st1" d="M136.2,64.8v1.7l-1-0.4c0,0-0.7-0.2-0.9-0.2c-0.2,0.1-13.4,6.7-13.4,6.7"/>
			<polyline class="st22" points="124.6,81 125.4,81.4 127.7,80.2 126.9,79.8 			"/>
			<polyline class="st22" points="127.8,80.2 127.7,80.9 125.4,82.1 124.6,81.7 124.3,80.9 126.7,79.7 131.7,77 131.7,71.7 			"/>
			<path class="st22" d="M126.2,72.8c0,0,1.7,0.2,1.4,1.9l-0.7,4.6"/>
			<path class="st22" d="M124.6,73.7c0,0,1.7,0.2,1.4,1.9l-0.7,4.6"/>
			<path class="st22" d="M123.9,74.1c0,0,1.7,0.2,1.4,1.9l-0.7,4.6"/>
			<path d="M121,73.7"/>
			<path class="st22" d="M121,73.7"/>
			<line class="st22" x1="132" y1="72.7" x2="145.5" y2="65.6"/>
		</g>
		<g>
			<path class="st0" d="M120.9,75.4l15.6-3l0.6-2.7c0,0,0.4-1.3-1.5-1.9l-1,0.3l0.5,1l-0.9-0.2l-2.5,0.5l0.1,0.5l1.6-0.2l0.5,0.5
				l-13,3"/>
			<path class="st24" d="M121.2,75.5l15.4-3.2l0.6-2.9c0,0,0-1.3-1.6-1.7l-1,0.3l0.8,1.1l-1.1-0.4l-2.5,0.6l0.1,0.6l1.6-0.2l0.4,0.5
				l-13,3"/>
			<line class="st24" x1="120.8" y1="74.2" x2="136.4" y2="70.5"/>
		</g>
		<g>
			<polyline class="st1" points="62.3,40.3 62.3,40.9 61.3,41.7 61.2,43.1 			"/>
			<polygon class="st1" points="62.3,40.3 80.3,27 79.7,26.3 87.8,20.2 144.5,48.2 136.8,54.9 136.1,54.5 119.3,69 			"/>
			<polyline class="st25" points="144.5,48.2 144.4,50.1 136.7,56.8 136,56.5 118.2,71.9 			"/>
			<line class="st25" x1="136.1" y1="54.5" x2="135.9" y2="56.5"/>
			<line class="st25" x1="136.8" y1="54.9" x2="136.7" y2="56.8"/>
			<polyline class="st25" points="119.3,69 119.3,69.7 118.2,70.6 118.2,71.7 			"/>
		</g>
		<g>
			<polygon class="st26" points="118.2,18.1 121.8,19.8 120.1,12.4 106.9,13.2 110.7,14.9 101.1,21.6 108.6,25 			"/>
			<polygon class="st26" points="91.3,28.8 87.7,27.1 89.4,34.5 102.6,33.7 98.8,32 108.4,25.3 101,21.9 			"/>
		</g>
		<line class="st22" x1="121.2" y1="82.2" x2="124.3" y2="80.9"/>
		<ellipse class="st1" cx="102.7" cy="52.2" rx="57" ry="46"/>
		<polygon class="st27" points="57.8,35.2 64.3,31.9 51.6,25 54.9,23.3 42.7,23.5 41.7,29.8 45.1,28.1 		"/>
		<polygon class="st27" points="133.4,75.9 139.8,72.5 152.6,78.9 155.7,77.1 154.9,83.4 142.9,84.2 146.2,82.4 		"/>
	</g>
</g>
<g id="Layer_4">
	<g>
		<circle class="st28" cx="66.8" cy="15.5" r="11.2"/>
		<g>
			<text transform="matrix(1 0 0 1 62.2891 20.6318)" class="st29 st30 st31">1</text>
		</g>
	</g>
	<g>
		<circle class="st28" cx="117.5" cy="52.9" r="11.2"/>
		<g>
			<text transform="matrix(1 0 0 1 113.0334 58.0477)" class="st29 st30 st31">2</text>
		</g>
	</g>
	<g>
		<path class="st32" d="M138.4,43.1c0-6.5-5.2-11.7-11.7-11.7c-2.2,0-4.2,0.6-6,1.6l-2.5-1.5L119,37l11,1.5l-4.1-2.5
			c1.7-1,2.8-2,5-2c6.5,0,12.7,5.6,12.7,12"/>
		<path d="M138.4,43.5c0-6.5-5.2-11.7-11.7-11.7c-2.2,0-4.2,0.6-6,1.6l-2.5-1.5l0.7,5.5l11,1.5l-4.1-2.5c1.7-1,2.8-2,5-2
			c6.5,0,12.7,5.6,12.7,12"/>
	</g>
</g>
</svg>
