<?xml version="1.0" encoding="utf-8"?>
<!-- Generator: Adobe Illustrator 26.5.0, SVG Export Plug-In . SVG Version: 6.00 Build 0)  -->
<svg version="1.1" xmlns="http://www.w3.org/2000/svg" xmlns:xlink="http://www.w3.org/1999/xlink" x="0px" y="0px"
	 viewBox="0 0 340.8 243" style="enable-background:new 0 0 340.8 243;" xml:space="preserve">
<style type="text/css">
	.st0{clip-path:url(#SVGID_00000036947578679446528870000005029096960455035786_);}
	.st1{fill:none;stroke:#000000;stroke-width:0.5;stroke-linecap:round;stroke-linejoin:round;stroke-miterlimit:10;}
	.st2{fill:none;stroke:#000000;stroke-width:0.5;stroke-linecap:round;stroke-linejoin:round;}
	.st3{font-family:'Arial-BoldMT';}
	.st4{font-size:4.6807px;}
	.st5{fill:none;stroke:#000000;stroke-width:0.5471;stroke-linecap:round;stroke-linejoin:round;stroke-miterlimit:10;}
	.st6{fill:none;stroke:#000000;stroke-width:0.5101;stroke-linecap:round;stroke-linejoin:round;stroke-miterlimit:10;}
	.st7{fill:none;stroke:#000000;stroke-width:0.5507;stroke-linecap:round;stroke-linejoin:round;stroke-miterlimit:10;}
	
		.st8{clip-path:url(#SVGID_00000036947578679446528870000005029096960455035786_);fill:none;stroke:#000000;stroke-width:0.5;stroke-linecap:round;stroke-linejoin:round;stroke-miterlimit:10;}
	.st9{fill:none;stroke:#000000;stroke-width:0.5;stroke-miterlimit:10;}
	.st10{stroke:#FFFFFF;stroke-width:0.7362;stroke-linecap:round;stroke-linejoin:round;stroke-miterlimit:10;}
	.st11{fill:none;stroke:#FFFFFF;stroke-width:3;stroke-linecap:round;stroke-linejoin:round;stroke-miterlimit:10;}
	.st12{stroke:#FFFFFF;stroke-width:0.7907;stroke-linecap:round;stroke-linejoin:round;stroke-miterlimit:10;}
	.st13{stroke:#FFFFFF;stroke-linecap:round;stroke-linejoin:round;stroke-miterlimit:10;}
	.st14{fill-rule:evenodd;clip-rule:evenodd;fill:#010101;stroke:#FFFFFF;stroke-miterlimit:10;}
	.st15{fill:#FFFFFF;}
	.st16{font-family:'Helvetica';}
	.st17{font-size:20.8793px;}
</style>
<g id="Unit">
	<g>
		<defs>
			<path id="SVGID_1_" d="M117.3,92.5l-8.1,0.1l0.3-1.2l-0.1,0c-3.6-0.6-5.7-2.4-6.9-4c-1.2-1.6-3.9-3.3-3.9-3.3l0.8-3
				c0,0,1.4-0.6,2.8-1.2L77.8,67.7l0.8-2.3l-4.9-2.3l11.9-2.4l-20.8-8H8v159.6h307.2v-130l-19.7,13.6l-63.5,11c0,0-1.7,0.5-1.7-1.4
				l0.3-2.3l-36.8,6.6l-1,3.9l-7.2,1.2c0,0-1.2,0-1.7-1.2s-1.5-1.8-2.2-1.6c-0.7,0.2-6.2,1.2-6.2,1.2l0,0l-4.3,0.7l-3.7-1.8
				l-1.3-2.9l-31-15.4c-0.2,0.4-0.8,1.1-2.5,1.1l-1-0.2l-6.3,0.2c0,0-1.8,0-3.1-0.5C121.1,94,117.3,92.5,117.3,92.5"/>
		</defs>
		<clipPath id="SVGID_00000181787088242912110330000007208183132353923217_">
			<use xlink:href="#SVGID_1_"  style="overflow:visible;"/>
		</clipPath>
		<g style="clip-path:url(#SVGID_00000181787088242912110330000007208183132353923217_);">
			<g>
				<path class="st1" d="M71.6,108.9c0,0,0-0.6,0-1.6c0-1.1,1.2-1.6,1.2-1.6s7-3.7,7.4-3.8c0.3-0.2,0.6-0.2,1.1-0.1s0.8-0.2,0.9-0.6
					c0.1-0.4,1.2-0.9,1.2-0.9L195,44.4c0,0,0.7-0.5,1.3-0.1c0.6,0.5,2.1,1.4,2.1,1.4s0.3,0.2,0.6-0.1c0.2-0.2,0.6-0.7,0.4-1.2
					l-0.7-0.5c0,0-0.2-0.6,0-1c0.2-0.4,0.5-0.8,0.9-0.8c0.4,0,3.1-0.2,3.1-0.2s0.7,0.2,0.8,0.6l0,3.3c0,0,0.1,0.5-0.4,0.8
					c-0.5,0.2-44.9,22.4-44.9,22.4"/>
				<path class="st1" d="M170.8,111.2c0,0-0.1-7.2,0-8.8c0.1-1.6,1.6-2.1,1.6-2.1l24.9-12.6l-6.9-3.5l6.1-3.1c0,0-22.9-11.4-23.9-12
					c-1-0.5-2.2,0-2.2,0l-6.1,3l-7.1-3.5l-23.3,11.7c0,0-2.2,0.9-2.2,2.5l0.1,1.1"/>
				<path class="st1" d="M172,100.1l-6.6-3.4l-6.8,3.4c0,0-1.1,0.6-1.1,1.8c0,1.1,0,3.1,0,3.1"/>
				<path class="st1" d="M132.9,81.1l6.6,3.3l-5.8,3.1l0,0.5c0,0-0.8,0.7-0.8,1.9c0,1,0.1,6.9,0.1,6.9"/>
				<line class="st1" x1="134.1" y1="87.4" x2="158.9" y2="99.8"/>
				<polyline class="st1" points="187.1,106.2 198.5,100.5 198.5,99.2 204.7,96.2 				"/>
				<path class="st1" d="M193.8,85.7c0.5-0.4,1.4-0.6,2.4-0.6c1.7,0,3,0.7,3,1.5c0,0.6-0.6,1.1-1.6,1.3"/>
				<path class="st1" d="M198.1,89.6c0.7-0.3,1.1-0.7,1.1-1.2v-1.6"/>
				<path class="st1" d="M198,98v-9.1c0,0,0.1-1-0.9-1.1"/>
				<path class="st1" d="M198.6,89.3c0.3,0.2,0.5,0.4,0.5,0.7c0,0.4-0.4,0.8-1.1,1"/>
				<path class="st1" d="M198.6,91.2c0.3,0.2,0.5,0.4,0.5,0.7c0,0.4-0.4,0.8-1.1,1"/>
				<path class="st1" d="M198.6,92.9c0.3,0.2,0.5,0.4,0.5,0.7c0,0.4-0.4,0.8-1.1,1"/>
				<g>
					<ellipse class="st1" cx="163.6" cy="100.7" rx="3" ry="1.5"/>
					<path class="st1" d="M160.6,100.7v1.7c0,0.8,1.4,1.5,3,1.5c1.7,0,3-0.7,3-1.5v-1.6"/>
					<path class="st1" d="M166.2,103.2c0.3,0.3,0.4,0.6,0.4,0.9c-0.1,0.8-1.6,1.3-3.2,1.1c-1.7-0.2-2.9-1.1-2.8-1.9
						c0-0.1,0.1-0.2,0.1-0.4"/>
					<path class="st1" d="M166.6,110c0,0.1,0.1,0.2,0.1,0.3c0,0.8-1.4,1.5-3,1.5c-1.7,0-3-0.7-3-1.5c0-0.2,0.1-0.4,0.3-0.6"/>
					<path class="st1" d="M166,108.7c0.4,0.3,0.7,0.8,0.6,1.1c-0.1,0.8-1.6,1.3-3.2,1c-1.7-0.3-2.9-1.2-2.7-2
						c0.1-0.3,0.3-0.6,0.7-0.8"/>
					<path class="st1" d="M166.1,106.8c0.4,0.3,0.6,0.7,0.5,1.1c-0.1,0.8-1.6,1.3-3.2,1c-1.7-0.3-2.9-1.2-2.7-2
						c0-0.3,0.2-0.5,0.5-0.7"/>
					<path class="st1" d="M166,105c0.4,0.3,0.6,0.7,0.6,1.1c-0.1,0.8-1.6,1.3-3.2,1s-2.9-1.2-2.7-2c0-0.3,0.2-0.5,0.5-0.7"/>
				</g>
				<g>
					<path class="st1" d="M136.6,122.7c-1.1,0-2-0.4-2-1c0-0.5,0.9-1,2-1c1.1,0,2,0.4,2,1"/>
					<path class="st1" d="M134.6,121.7v1.1c0,0.5,0.9,1,2,1"/>
					<path class="st1" d="M136.5,124.5c-0.8-0.1-1.5-0.5-1.4-0.9"/>
					<path class="st1" d="M136.6,127.2c-0.8,0-1.5-0.3-1.5-0.7c0-0.1,0.1-0.2,0.1-0.3"/>
					<path class="st1" d="M136.4,126.2c-0.8-0.1-1.4-0.6-1.4-1c0-0.1,0.1-0.2,0.3-0.3"/>
					<path class="st1" d="M136.4,125.4c-0.8-0.1-1.4-0.6-1.4-1c0-0.1,0.1-0.2,0.3-0.3"/>
				</g>
				<g>
					<ellipse class="st1" cx="133.4" cy="85.5" rx="3" ry="1.5"/>
					<path class="st1" d="M130.3,85.5v1.7c0,0.8,1.3,1.5,2.8,1.5"/>
					<ellipse class="st1" cx="165.7" cy="69.2" rx="3" ry="1.5"/>
					<line class="st1" x1="162.7" y1="69.2" x2="162.7" y2="70.9"/>
					<path class="st1" d="M133,90c-1.6-0.3-2.8-1.1-2.7-1.9c0-0.1,0.1-0.2,0.1-0.4"/>
					<path class="st1" d="M133,96.6c-1.5-0.1-2.7-0.7-2.7-1.5c0-0.2,0.1-0.4,0.3-0.6"/>
					<path class="st1" d="M133.1,95.6c-1.7-0.3-2.9-1.2-2.7-2c0.1-0.3,0.3-0.6,0.7-0.8"/>
					<path class="st1" d="M133.1,93.6c-1.7-0.3-2.9-1.2-2.7-2c0-0.3,0.2-0.5,0.5-0.7"/>
					<path class="st1" d="M133.1,91.9c-1.7-0.3-2.9-1.2-2.7-2c0-0.3,0.2-0.5,0.5-0.7"/>
				</g>
				<polygon class="st1" points="113.7,106.5 132.3,116 136.4,114 140.2,115.9 159.6,106.2 140.9,96.9 137,98.9 133.1,96.9 				"/>
				<line class="st1" x1="113.7" y1="106.5" x2="113.7" y2="115.1"/>
				<line class="st1" x1="159.6" y1="106.2" x2="159.7" y2="112.3"/>
				<line class="st1" x1="132.3" y1="116" x2="132.4" y2="126"/>
				<line class="st1" x1="140.2" y1="115.9" x2="140.2" y2="121.3"/>
				<line class="st1" x1="136.4" y1="114" x2="136.4" y2="120.6"/>
				<polyline class="st1" points="97.1,111.4 101.3,109.3 114.8,116 110.5,118.1 				"/>
				<line class="st1" x1="114.8" y1="120.3" x2="114.8" y2="116"/>
				<line class="st1" x1="165.4" y1="96.8" x2="165.4" y2="99.3"/>
				<line class="st1" x1="166.3" y1="109" x2="170.9" y2="111.3"/>
				<line class="st1" x1="187.2" y1="65.5" x2="199.5" y2="59.2"/>
				<line class="st1" x1="202.9" y1="46.7" x2="203" y2="55.9"/>
				<polyline class="st1" points="231.6,60 212.7,50.6 207,53.5 206.5,54.2 199.5,57.8 199.5,64.3 205.2,67.1 205.9,66.8 				"/>
				<polyline class="st1" points="205.1,66.8 205.1,60.6 212.3,56.9 213.5,56.7 219.1,53.9 				"/>
				<polyline class="st1" points="213.5,56.7 213.2,57.4 206,61 206,67.6 211.7,70.4 212.5,70 				"/>
				<polyline class="st1" points="225.8,57.1 219.9,60.1 218.9,60.2 211.7,63.8 211.7,70.3 				"/>
				<line class="st1" x1="206.2" y1="61" x2="211.7" y2="63.8"/>
				<line class="st1" x1="199.6" y1="57.7" x2="205" y2="60.4"/>
				<polyline class="st1" points="219.9,60.1 219.7,60.7 212.7,64.3 212.6,70.8 218.1,73.5 				"/>
				<line class="st1" x1="212.7" y1="64.3" x2="218" y2="67"/>
				<polyline class="st1" points="218.2,75.5 218.3,67 232.8,59.8 237.8,62.2 223.3,69.6 223.3,77.8 				"/>
				<line class="st1" x1="218.3" y1="67" x2="223.3" y2="69.6"/>
				<path class="st1" d="M237.8,62.2c0,0,0.8,0.3-0.8,3.6"/>
				<polyline class="st1" points="245.4,66.9 240.3,64.4 234.5,67.1 234.2,67.9 227,71.5 227,76 				"/>
				<polyline class="st1" points="253,73.1 252.9,69 247.2,66.3 233.1,73.3 233,78.3 				"/>
				<polyline class="st1" points="238.6,81.3 238.6,76.1 252.9,69 				"/>
				<line class="st1" x1="227.2" y1="71.6" x2="233.1" y2="74.4"/>
				<line class="st1" x1="233.1" y1="73.3" x2="238.6" y2="76.1"/>
				<line class="st1" x1="217.7" y1="75.4" x2="223" y2="78.1"/>
				<polygon class="st1" points="209.5,85 227.6,75.8 245.6,84.8 227.6,94.1 				"/>
				<polyline class="st1" points="209.5,85 209.6,96.7 218.8,101.5 				"/>
				<line class="st1" x1="227.6" y1="94.1" x2="227.6" y2="97.3"/>
				<line class="st1" x1="245.8" y1="84.9" x2="245.8" y2="89.5"/>
				<polyline class="st1" points="221.4,79 195.8,66 190.8,68.6 				"/>
				<polyline class="st1" points="216.1,81.3 188.2,67.5 178.8,72.2 				"/>
				<polyline class="st1" points="274.9,85.7 274.9,81.7 255.3,71.9 249.5,74.8 249.2,75.5 242.1,79 242.1,82.8 				"/>
				<polyline class="st1" points="245.9,87.5 247.6,88.3 247.7,81.7 242.1,79 				"/>
				<polyline class="st1" points="261.8,75.2 256.2,78 254.9,78.1 247.7,81.7 				"/>
				<polyline class="st1" points="256,78 255.8,78.6 248.6,82.3 248.6,88.2 				"/>
				<polyline class="st1" points="268.3,78.4 262.6,81.3 261.3,81.4 254.2,85 248.6,82.3 				"/>
				<line class="st1" x1="254.2" y1="87.1" x2="254.2" y2="85"/>
				<polyline class="st1" points="255,87.8 255,85.5 261.9,82.2 262.6,81.3 				"/>
				<polyline class="st1" points="255,85.5 260.8,88.3 267.9,84.7 269.2,84.5 274.6,81.7 				"/>
				<polyline class="st1" points="289.3,93.4 289.3,92.2 277.1,85.8 271.4,85.8 266.3,88.3 263.6,86.9 				"/>
				<path class="st1" d="M289.3,92.2l-21.2,11l-0.8-0.5l-10.8,5.4l-1.2-0.7c0,0-0.5-0.3-1.4,0.2c-1,0.6-10.8,5.4-10.8,5.4
					s-1.1,0.4-0.2,0.8c0.9,0.4,0.8,0.5,0.8,0.5s0.4,0.1,0.3,1.1l0,0.8"/>
				<path class="st1" d="M260.8,88.3l-15,7.7c0,0-0.6,0.5-1,1.4c-0.4,0.9-2,3.7-2,3.7s-0.1,0.3-1.2,0.9c-1,0.6-32.8,16.5-32.8,16.5
					l0.1,1.2c0,0,3.5,1.7,4.8,2.6c1.3,0.9,2.7-0.2,2.7-0.2l66.3-33.4"/>
				<line class="st1" x1="30.4" y1="130.9" x2="62.5" y2="114.8"/>
				<line class="st1" x1="39.1" y1="143.4" x2="63.5" y2="131.4"/>
				<polygon class="st1" points="116.8,129.1 124.4,125.4 80.9,103.6 73.3,107.3 				"/>
				<path class="st1" d="M73,109.1c0,0,0.4-0.8,1.3-0.3c0.9,0.5,41.5,20.8,41.5,20.8s1,0.5,1,2.1c0,1.7,0,14.5,0,14.5
					s-0.1,1.6-1.2,1.1s-41.5-20.7-41.5-20.7"/>
				<line class="st1" x1="149.8" y1="165.7" x2="73.5" y2="127.6"/>
				<line class="st1" x1="120.9" y1="180.1" x2="158.1" y2="161.7"/>
				<line class="st1" x1="158.7" y1="162.7" x2="121.1" y2="181.7"/>
				<line class="st1" x1="158.6" y1="177.9" x2="121" y2="197"/>
				<polyline class="st1" points="156.9,178.8 158.8,179.6 168.1,174.8 169,175.2 177.6,170.8 178.7,168.8 181,167.8 183.4,168 
					300.4,109.5 300.4,103.3 298.1,100 298.1,95.4 				"/>
				<path class="st1" d="M178.5,169.1v-4.9c0,0,0.4-2.9,2.4-3.6c0,0,1.7-0.5,1.8,1.1v6"/>
				<path class="st1" d="M158.8,179.4v-17.1c0,0-0.5-1.1-2.1-1.3v1.2"/>
				<path class="st1" d="M158.8,162.3l9.6-4.8c0,0-0.5-1.1-2.1-1.3l-9.6,4.8"/>
				<path class="st1" d="M169.4,174.9l-0.1-17.4l7.7-3.9c0,0,1.3-0.9,2.2-0.2c1,0.8,1.6,1.4,3,0.8c1.4-0.7,1.4-0.7,1.4-0.7"/>
				<path class="st1" d="M183,152.5c0.8,0.4,0.8,1.7,0.8,1.7v2.4c0,0,0.1,2.3,2.6,1.3c2.3-1,2.5-3.8,2.5-3.8s0-2.1,0-3
					c0-0.8-0.6-1.3-0.6-1.3c0-1.1-0.9-0.7-0.9-0.7l-3.6,1.9c0,0-0.6,0.3-0.7,1.4"/>
				<line class="st1" x1="169.4" y1="173.4" x2="169.4" y2="154.6"/>
				<path class="st1" d="M183.2,151.1"/>
				<path class="st1" d="M168.5,157.4v-2.7l8.6-4.1l0.6-1.1L245,116c0,0,0.7-0.1,0.8,0.5c0.1,0.6,0.3,4.5,0.3,4.5s0.9,0.6,0.8,1.5
					l11.6-5.7c0,0,0.6-0.7-0.1-1.6l0.1-4.9c0,0,0.2-1.1,1-1.5l32.8-16.3l2.7,1.8c0,0,1.2-0.1,0.9-1.4l-0.7-0.6c0,0-0.4-1.2,1-1.8
					l2.8-0.1c0,0,0.7,0,0.8,0.6l0,3.5l-41.2,20.7"/>
				<line class="st1" x1="189.1" y1="150.9" x2="246.6" y2="122.1"/>
				<line class="st1" x1="114.9" y1="117.3" x2="136.6" y2="128.2"/>
				<path class="st1" d="M136.6,129.3"/>
				<path class="st1" d="M115,118.7"/>
				<line class="st1" x1="132.8" y1="126.2" x2="135" y2="125.1"/>
				<line class="st1" x1="142.4" y1="131.7" x2="148" y2="128.9"/>
				<line class="st1" x1="136.1" y1="135" x2="137.6" y2="134.2"/>
				<path class="st1" d="M156.1,156.9"/>
				<polyline class="st1" points="166.3,156.1 166.3,153.7 168.8,152.4 170.8,153.4 				"/>
				<line class="st1" x1="168.5" y1="154.8" x2="166.3" y2="153.7"/>
				<line class="st1" x1="95.6" y1="110.9" x2="125.4" y2="96.2"/>
				<polyline class="st1" points="196.4,81.1 197.1,81.4 197.1,84.9 				"/>
				<polyline class="st1" points="199.1,91.9 204.7,94.6 184.4,104.9 				"/>
				<path class="st1" d="M204.9,96.6"/>
				<polygon class="st1" points="208.1,95.1 204.9,96.7 204.9,91.5 208.1,89.9 				"/>
				<line class="st1" x1="204.9" y1="91.5" x2="199.5" y2="88.8"/>
				<polyline class="st1" points="197.2,83.6 206.7,88.4 209.4,87 				"/>
				<polyline class="st1" points="197.2,84.8 206.7,89.6 209.4,88.3 				"/>
				<path class="st1" d="M61.8,114.6v-0.8l10.3-4.9l1.4,0.6c0,0,0.5,0.3,0.5,1s0,2,0,2l-9.2,4.6l-0.9-0.1v-2c0,0-0.1-1-2.2-1.3"/>
				<path class="st1" d="M62.7,131.9l1.3,0.6l10-5.1l-0.1-2l-0.9-0.3l-8.3,4.1c0,0-1,0.5-0.9,1.3l0,1.7"/>
				<path class="st1" d="M19.3,131.6l5.5-2.7c0,0,9.3,1.1,13.7,13.5c0,0,3.8,10.4-2.9,16l-6.2,3c0,0-2,0.3-4.5-0.9l-5.4-2.5
					c0,0-0.8-0.9-0.8-1.9c0-1,0.1-3,0.1-3"/>
				<path class="st1" d="M18.8,137.4l-0.1-4.9c0,0,0.3-1.1,2.4-0.9c0,0,9.4,3.5,12.1,13.1c0,0,4.9,10.7-2.2,15.9"/>
				<path class="st1" d="M20.6,143v-5.5c0,0,0.5-3.5,3.4-2.8c0,0,7.1,2.5,9.4,15.2c0,0,1.5,8.2-4.8,10.1c0,0-1.7,0.6-3.8-0.2
					c-2.1-0.9-5.8-3-5.8-3l5.4-2.7"/>
				<line class="st1" x1="25.7" y1="135.7" x2="25.7" y2="140.5"/>
				<path class="st1" d="M19.5,143.8l8.2-4.1c0,0,1.2,0.3,1.1,1.6l-1.1,3.8l-5,2.7l-1.7-3.1C20.9,144.7,20.4,143.6,19.5,143.8z"/>
				<path class="st1" d="M19.5,143.8c0,0-1.7,5.1,0.7,9.9l1.3-0.6c0,0,0-3.3,3-4.2c0,0,1.8-0.6,1.7,1.8l1.3-0.5c0,0,1-3.4,1-7"/>
				<path class="st1" d="M20.5,138.3c0,0,0.5,0.3-2.1-0.8c0,0-4.5-0.2-5.9,6.3v8c0,0,0,3,2.9,3.2c0,0,2.5,0.1,4-2.7"/>
				<path class="st1" d="M24.4,149l0.2,5.3c0,0,0.4,0.6,0.9,0.8c0.5,0.2,3.8,1.8,3.8,1.8s1.8,0.6,2.6,0.5"/>
				<path class="st1" d="M20.6,140.7c0,0-1.1,0.2-2.4-0.8c0,0-2.8,0.6-3.3,3.8l0,7.6c0,0,0.2,1.6,1.5,1.1c1.3-0.5,1.5-1.1,1.5-1.1
					l1-1.3"/>
				<path class="st1" d="M32.9,133.1l11-5.5c0,0,1.4-0.5,1.5,1c0.1,1.5,0,7.1,0,7.1s0.1,1.1-1.2,2.1l-5.9,2.9"/>
				<path class="st1" d="M55.6,122.7l-0.9,0.4c0-1.2-1-1-1-1l-6.5,3.2c-1.1,0.8-0.9,2-0.9,2l0,8.8c0,0,0.3,1.1,1.3,0.6s6.2-3,6.2-3
					s1.1-0.7,0.9-2l16.5-8.2v-0.8c0,0,2.9-1,3.2-2.2l0.3-1l0-1.7c0,0-0.2-1.8-1.4-3.3V113"/>
				<path class="st1" d="M69.2,124.5v-0.8c0,0,2.9-1,3.2-2.2l0.3-1l0-1.7c0,0-0.2-1.8-1.4-3.3V114"/>
				<polyline class="st1" points="55.8,131.3 55.8,121.7 65.1,117.1 				"/>
				<line class="st1" x1="62.2" y1="127.9" x2="62.2" y2="118.6"/>
				<polyline class="st1" points="123.9,129.8 128.7,127.4 128.8,131.6 				"/>
				<polyline class="st1" points="123.3,124.7 123.8,124.5 128.7,127.1 				"/>
				<polyline class="st1" points="128.9,128 136.6,132 137.7,131.4 				"/>
				<path class="st1" d="M142.4,130.5c0,0.7-1,1.2-2.3,1.2s-2.3-0.5-2.3-1.2"/>
				<path class="st1" d="M140.1,137.5c1.3,0,2.3-0.5,2.3-1.2v-5.8"/>
				<line class="st1" x1="137.8" y1="130.5" x2="137.8" y2="136.3"/>
				<path class="st1" d="M131.2,97.7"/>
				<line class="st1" x1="130.1" y1="92.3" x2="125.3" y2="94.7"/>
				<polyline class="st1" points="125.3,94.7 125.3,96.3 129.8,98.5 				"/>
				<path class="st1" d="M69.6,115.3c0,0,3,2.7,0.1,8.2"/>
				<line class="st1" x1="73.1" y1="125" x2="73.1" y2="121.9"/>
				<g>
					<polygon class="st1" points="91.4,126.8 78.1,120.3 78.1,125.6 91.5,132.3 					"/>
					<polyline class="st1" points="91.5,132.3 92.8,131.7 92.7,126.2 79.4,119.6 78.1,120.3 					"/>
					<line class="st1" x1="78.1" y1="125.6" x2="83.3" y2="122.9"/>
					<polyline class="st1" points="84.8,123.7 84.8,128.8 89.9,126.2 					"/>
					<line class="st1" x1="91.4" y1="126.8" x2="92.7" y2="126.2"/>
				</g>
				<g>
					<polygon class="st1" points="103.7,132.3 93.9,127.3 93.9,133.6 103.8,138.7 					"/>
					<polyline class="st1" points="103.8,138.7 105.5,137.7 105.4,131.2 95.6,126.3 93.9,127.3 					"/>
					<line class="st1" x1="93.9" y1="133.4" x2="98.5" y2="131.4"/>
					<polyline class="st1" points="98.7,129.9 98.7,136 103.3,134 					"/>
					<line class="st1" x1="103.7" y1="132.3" x2="105.1" y2="131.6"/>
				</g>
				<g>
					<polygon class="st1" points="111.6,136.2 106.5,133.6 106.5,140 111.7,142.7 					"/>
					<polyline class="st1" points="111.7,142.7 113.3,141.7 113.2,135.2 108.2,132.6 106.5,133.6 					"/>
					<path class="st1" d="M106.4,135.4"/>
					<line class="st1" x1="106.5" y1="140" x2="111.2" y2="138"/>
					<line class="st1" x1="111.6" y1="136.2" x2="112.9" y2="135.6"/>
				</g>
				<path class="st1" d="M124.8,182.3l14.2-7c0,0,1.3-0.4,1.3,0.8c0,1.3,0.1,7,0.1,7s-0.4,1.6-1.3,2.2s-14.4,7.2-14.4,7.2
					s-1.2,0-1.2-1.3c0-1.3,0.1-6.7,0.1-6.7S123.7,182.8,124.8,182.3z"/>
				<path class="st1" d="M150.5,169.7l6.3-3.1c0,0,0.8-0.7,0.8,0.2c0.1,0.8,0,8.3,0,8.3s0.1,0.5-0.6,0.9c-0.7,0.4-6.5,3.3-6.5,3.3
					s-0.7,0-0.7-0.8s0.1-7.9,0.1-7.9S150.1,169.8,150.5,169.7z"/>
				
					<ellipse transform="matrix(0.498 -0.8672 0.8672 0.498 -78.9316 212.5414)" class="st1" cx="144.1" cy="174.4" rx="2" ry="1.4"/>
				<ellipse transform="matrix(0.498 -0.8672 0.8672 0.498 -52.1458 229.286)" class="st1" cx="172" cy="159.7" rx="2" ry="1.4"/>
				
					<ellipse transform="matrix(0.498 -0.8672 0.8672 0.498 -53.5028 233.9161)" class="st1" cx="175.3" cy="163.2" rx="2" ry="1.4"/>
				
					<ellipse transform="matrix(0.498 -0.8672 0.8672 0.498 -61.0588 234.7687)" class="st1" cx="172.2" cy="170.1" rx="2" ry="1.4"/>
				
					<ellipse transform="matrix(0.498 -0.8672 0.8672 0.498 -48.3376 243.7448)" class="st1" cx="186.4" cy="163.6" rx="2" ry="1.4"/>
				
					<ellipse transform="matrix(0.498 -0.8672 0.8672 0.498 -63.1956 227.022)" class="st1" cx="164.5" cy="168.1" rx="1.3" ry="0.9"/>
				<ellipse transform="matrix(0.498 -0.8672 0.8672 0.498 -84.6575 215.856)" class="st1" cx="144.1" cy="181" rx="2" ry="1.4"/>
				<line class="st1" x1="115.8" y1="180.4" x2="120.7" y2="178.1"/>
				<path class="st1" d="M111.5,173.2c1.7-0.3,3,0.1,3,0.1s3.1,1.2,4.6,2.1c1.7,1,1.7,2.3,1.7,2.3v23.3c0,0,0.3,0.9-0.7,1.4
					c-1.2,0.6-4.7,2.4-4.7,2.4s-1.3,0.4-3.3-0.5s-9.4-4.8-12.1-17.3c0,0-1.7-10,5.9-12.4c0,0,4.9-0.5,5-2.1c0,0-0.5-0.9-5.3,2"/>
				<path class="st1" d="M115.7,204.5v-22.9c0,0,0.2-2.3-1-3.1l-5.7-2.6c0,0-1.7-0.6-4.4,0.4"/>
				<path class="st1" d="M106.9,199.1c0,0-4.4-3.8-5.8-12.6c0,0-0.9-8.7,5-9.9c0,0,2.1-0.9,8.4,3v24.3c0,0-1.6,0.2-4-1.6"/>
				<path class="st1" d="M114.3,185.2l-1.3-0.6c0,0-3.5-0.4-5.5,4.7c0,0-0.5,2.5-0.5,3.9c-0.1,1.5,0.1,6.6,0.1,6.6s1.3,3.7,4.7,2.1
					c0,0,2.5-1.7,2.7-3.1"/>
				<path class="st1" d="M107.6,176.7c0,0-2.9,5.3-0.1,12.6"/>
				<path class="st1" d="M114.4,186.5l-1.2-0.7c0,0-3.4,0.3-4.7,5.4v8.2c0,0-0.3,3.6,4.1,1.8"/>
				
					<ellipse transform="matrix(0.4022 -0.9156 0.9156 0.4022 -86.7534 121.5521)" class="st1" cx="49.7" cy="127.2" rx="1.6" ry="1.2"/>
				
					<ellipse transform="matrix(0.4022 -0.9156 0.9156 0.4022 -92.1554 125.0794)" class="st1" cx="49.7" cy="133.1" rx="1.6" ry="1.2"/>
				<ellipse class="st1" cx="87.3" cy="110.1" rx="2.1" ry="1"/>
				<ellipse class="st1" cx="111.1" cy="122" rx="2.1" ry="1"/>
				<path class="st1" d="M89.7,122.8v-2.3c0.1-0.9-0.8-1.5-0.8-1.5l-8.7-4.4c-1-0.4-0.9,0.7-0.9,0.7v2.4c0,0-0.1,0.7,0.7,1.1l9,4.6
					C89,123.3,89.6,123.7,89.7,122.8z"/>
				<path class="st1" d="M79.5,114.5l0.9-0.5c0,0,0.4-0.2,0.8,0l8.6,4.3c0,0,0.9,0.6,0.8,1.5v2.3c0,0.6-0.2,0.7-0.2,0.7l-1.2,0.6"/>
				<path class="st1" d="M93.7,123.3"/>
				<path class="st1" d="M243.7,114.4l-10.6,5.4c0,0,1.4,0.2,1.2,1.3"/>
				<polyline class="st1" points="233.8,120.4 229.9,122.3 229.2,121.9 214.9,129.1 214.9,130.9 				"/>
				<path class="st1" d="M214.9,129.1l-14.1-6.8l1.5-2.2l3.7-1.8c0,0,0.4-0.3,1,0c0.6,0.3,1.9,0.9,1.9,0.9"/>
				<line class="st1" x1="131.9" y1="81.8" x2="85.1" y2="105.3"/>
				<path class="st2" d="M291.2,98.8c0,0,1.2,0.9-0.1,2l-0.6,0.3l-12.9,6.4c0,0-0.5,0.4-0.5,1s0.1,3.7,0.1,3.7s-0.1,0.7,0.7,0.4
					s13.1-6.5,13.1-6.5s0.9-0.3,0.9,0.6c0,0.9,0,1.6,0,1.6s0.5,0.7,1-0.3c0,0,0.9-0.9-0.8-2.3c-1.7-1.4-1.3-1.4-1.3-1.4l0.1-3.2"/>
				<line class="st2" x1="293.2" y1="107.2" x2="300.3" y2="103.5"/>
				<path class="st2" d="M289.4,101.7l0,1.3c0,0,0.2,0.4-0.5,0.8c-0.2,0.1-0.5,0.2-0.7,0.3c-0.4,0.2-0.7,0.3-0.7,0.3l0,1.5l1.6-0.8"
					/>
				<path class="st2" d="M288.3,104.2l0.7,0.4c0,0,0.6,0.3,0.4,1.2l0,1.1"/>
				<path class="st1" d="M244.7,116.1c0,0,0-1.2,1-1.7s8.9-4.3,8.9-4.3s0.4-0.5,1.5,0.2"/>
				<path class="st1" d="M245.7,116.2c0,0,0-0.9,1.3-1.6c1.3-0.6,8-3.9,8-3.9s0.9-0.4,1.5-0.1"/>
				<path class="st1" d="M246.2,120.6l10.2-5.1c0,0,0.8-0.3,0.1-1.1l0-6.1"/>
				<line class="st1" x1="201.2" y1="122.6" x2="201.2" y2="127.7"/>
				<path class="st1" d="M201,126.5c0,0-0.9,1,0.6,1.6c0.4,0.1,0.9,0.4,1.5,0.7c0.8,0.4,1.7,0.8,2.5,1.2"/>
				<line class="st1" x1="148.2" y1="129.1" x2="148.1" y2="132.1"/>
				<polyline class="st1" points="148.1,131.7 147.4,132.1 149.8,133.3 				"/>
				<path class="st1" d="M124.4,125.4c0,0,0.9,0.5,0.9,1c0,0.8,0,0.9,0,0.9s0.1,0.8-0.9,1.4c-0.2,0.1-0.6,0.3-1,0.5"/>
				<path class="st1" d="M117.5,128.9c0,0,0.6,0.2,0.6,0.7"/>
				<polyline class="st1" points="128.7,128.4 127.3,129.1 127.3,130.8 				"/>
				<path class="st1" d="M152.9,121.3v-4c0,0-0.1-1.7,1.3-1.6c0,0,0.9,0.4,0.9,2.5"/>
				<path class="st1" d="M157.4,114.3c0,0,1,0.1,1,2.2"/>
				<path class="st1" d="M161.6,115c0-2-1-2.2-1-2.2v5.6"/>
				<line class="st1" x1="153.7" y1="115.7" x2="162.2" y2="111.7"/>
				<line class="st1" x1="157.4" y1="114.3" x2="157.4" y2="117.2"/>
				<path class="st1" d="M164.5,111.9c0.2,0.3,0.3,0.8,0.3,1.6"/>
				<line class="st1" x1="163.9" y1="114" x2="163.9" y2="112"/>
				<path class="st1" d="M201.2,124.3c-1.1-0.1-1.9-0.5-1.9-1V122"/>
				<g>
					<polyline class="st1" points="212.5,106.3 212.4,105 210.3,106 210.3,112.3 209.3,111.8 209.3,112.8 					"/>
					<polyline class="st1" points="210.9,112.6 211.9,113.1 211.9,106.8 214,105.8 214,107.2 					"/>
					<polyline class="st1" points="212.4,113.5 213.4,114 213.4,107.7 215.5,106.7 215.5,108 					"/>
					<polyline class="st1" points="213.9,114.3 215,114.8 215,108.5 217.1,107.5 217.1,108.9 					"/>
					<polyline class="st1" points="216.5,114.5 216.5,109.4 218.6,108.4 218.6,109.8 					"/>
					<polyline class="st1" points="218,113.9 218,110.2 220.1,109.2 220.2,112.6 					"/>
				</g>
				<g>
					<polyline class="st1" points="213.2,106.2 213.2,104.5 215.3,103.5 215.4,104.8 					"/>
					<polyline class="st1" points="214.8,107 214.8,105.3 216.9,104.3 216.9,105.7 					"/>
					<polyline class="st1" points="216.3,107.9 216.3,106.2 218.4,105.2 218.4,106.5 					"/>
					<polyline class="st1" points="217.9,108.7 217.9,107 220,106 220,107.4 					"/>
					<polyline class="st1" points="219.4,109.6 219.4,107.9 221.5,106.9 221.5,108.3 					"/>
					<polyline class="st1" points="220.9,112.4 220.9,108.7 223,107.7 223,111.2 					"/>
				</g>
				<g>
					<polyline class="st1" points="216.1,104.7 216.1,103 218.3,102 218.3,103.4 					"/>
					<polyline class="st1" points="217.7,105.5 217.7,103.9 219.8,102.8 219.8,104.2 					"/>
					<polyline class="st1" points="219.2,106.4 219.2,104.7 221.3,103.7 221.3,105 					"/>
					<polyline class="st1" points="220.8,107.2 220.8,105.5 222.9,104.5 222.9,105.9 					"/>
					<polyline class="st1" points="222.3,108.1 222.3,106.4 224.4,105.4 224.4,106.8 					"/>
					<polyline class="st1" points="223.8,110.9 223.8,107.2 226,106.2 226,109.7 					"/>
				</g>
				<g>
					<polyline class="st1" points="219,103.2 219,101.5 221.1,100.5 221.1,101.9 					"/>
					<polyline class="st1" points="220.5,104 220.5,102.4 222.6,101.3 222.7,102.7 					"/>
					<polyline class="st1" points="222.1,104.9 222.1,103.2 224.2,102.2 224.2,103.6 					"/>
					<polyline class="st1" points="223.6,105.7 223.6,104.1 225.7,103 225.7,104.4 					"/>
					<polyline class="st1" points="225.2,106.6 225.2,104.9 227.3,103.9 227.3,105.3 					"/>
					<polyline class="st1" points="226.7,109.4 226.7,105.7 228.8,104.7 228.8,108.2 					"/>
				</g>
				<g>
					<polyline class="st1" points="221.7,101.8 221.7,100.2 223.8,99.1 223.8,100.5 					"/>
					<polyline class="st1" points="223.3,102.7 223.3,101 225.4,100 225.4,101.4 					"/>
					<polyline class="st1" points="224.8,103.5 224.8,101.9 226.9,100.8 226.9,102.2 					"/>
					<polyline class="st1" points="226.3,104.4 226.3,102.7 228.4,101.7 228.5,103.1 					"/>
					<polyline class="st1" points="227.9,105.2 227.9,103.5 230,102.5 230,104 					"/>
					<polyline class="st1" points="229.4,108 229.4,104.4 231.5,103.4 231.5,106.8 					"/>
				</g>
				<g>
					<polyline class="st1" points="224.5,100.4 224.5,98.8 226.6,97.8 226.6,99.1 					"/>
					<polyline class="st1" points="226,101.3 226,99.6 228.1,98.6 228.2,100 					"/>
					<polyline class="st1" points="227.6,102.1 227.6,100.5 229.7,99.5 229.7,100.8 					"/>
					<polyline class="st1" points="229.1,103 229.1,101.3 231.2,100.3 231.2,101.7 					"/>
					<polyline class="st1" points="230.7,103.8 230.7,102.2 232.8,101.1 232.8,102.6 					"/>
					<polyline class="st1" points="232.2,106.7 232.2,103 234.3,102 234.3,105.4 					"/>
				</g>
				<g>
					<polyline class="st1" points="227.3,99 227.3,97.4 229.4,96.4 229.4,97.7 					"/>
					<polyline class="st1" points="228.8,99.9 228.8,98.2 230.9,97.2 230.9,98.6 					"/>
					<polyline class="st1" points="230.4,100.7 230.4,99.1 232.5,98.1 232.5,99.4 					"/>
					<polyline class="st1" points="231.9,101.6 231.9,99.9 234,98.9 234,100.3 					"/>
					<polyline class="st1" points="233.4,102.5 233.4,100.8 235.5,99.8 235.6,101.2 					"/>
					<polyline class="st1" points="235,105.3 235,101.6 237.1,100.6 237.1,104 					"/>
				</g>
				<g>
					<polyline class="st1" points="230.1,97.7 230.1,96 232.2,95 232.2,96.3 					"/>
					<polyline class="st1" points="231.6,98.5 231.6,96.8 233.7,95.8 233.7,97.2 					"/>
					<polyline class="st1" points="233.1,99.4 233.1,97.7 235.2,96.7 235.3,98 					"/>
					<polyline class="st1" points="234.7,100.2 234.7,98.5 236.8,97.5 236.8,98.9 					"/>
					<polyline class="st1" points="236.2,101.1 236.2,99.4 238.3,98.4 238.3,99.8 					"/>
					<polyline class="st1" points="237.8,103.9 237.8,100.2 239.9,99.2 239.9,102.7 					"/>
				</g>
				<g>
					<polyline class="st1" points="232.8,96.3 232.8,94.6 235,93.6 235,95 					"/>
					<polyline class="st1" points="234.4,97.1 234.4,95.5 236.5,94.4 236.5,95.8 					"/>
					<polyline class="st1" points="235.9,98 235.9,96.3 238,95.3 238,96.6 					"/>
					<polyline class="st1" points="237.5,98.8 237.5,97.1 239.6,96.1 239.6,97.5 					"/>
					<polyline class="st1" points="239,99.7 239,98 241.1,97 241.1,98.4 					"/>
					<polyline class="st1" points="240.5,102.5 240.5,98.8 242.6,97.8 242.7,101.3 					"/>
				</g>
				<g>
					<polyline class="st1" points="249.7,87.8 249.7,86.1 251.8,85.1 251.8,86.5 					"/>
					<polyline class="st1" points="251.2,88.7 251.2,87 253.3,86 253.3,87.3 					"/>
					<polyline class="st1" points="252.7,89.5 252.7,87.8 254.8,86.8 254.9,88.2 					"/>
					<polyline class="st1" points="254.3,90.4 254.3,88.7 256.4,87.7 256.4,89.1 					"/>
					<polyline class="st1" points="255.8,90.6 255.8,89.5 257.9,88.5 257.9,89.6 					"/>
				</g>
				<g>
					<polyline class="st1" points="239.9,94.2 239.9,92.7 242,91.7 242,93.1 					"/>
					<polyline class="st1" points="241.5,95.1 241.5,93.6 243.6,92.6 243.6,94 					"/>
					<polyline class="st1" points="243,95.9 243,94.4 245.1,93.4 245.1,94.9 					"/>
					<polyline class="st1" points="244.5,96.8 244.5,95.3 246.6,94.3 246.7,95.4 					"/>
				</g>
				<g>
					<polyline class="st1" points="242.8,92.8 242.8,91.3 244.9,90.3 244.9,91.7 					"/>
					<polyline class="st1" points="244.3,93.7 244.3,92.2 246.4,91.1 246.4,92.5 					"/>
					<polyline class="st1" points="245.8,94.5 245.8,93 247.9,92 248,93.4 					"/>
					<polyline class="st1" points="247.4,95.1 247.4,93.8 249.5,92.8 249.5,94 					"/>
				</g>
				<g>
					<polyline class="st1" points="245.6,91.3 245.6,89.9 247.7,88.9 247.7,90.2 					"/>
					<polyline class="st1" points="247.1,92.2 247.1,90.7 249.2,89.7 249.3,91.1 					"/>
					<polyline class="st1" points="248.7,93 248.7,91.6 250.8,90.5 250.8,92 					"/>
					<polyline class="st1" points="250.2,93.6 250.2,92.4 252.3,91.4 252.3,92.6 					"/>
				</g>
				<g>
					<polyline class="st1" points="248.4,89.9 248.4,88.4 250.5,87.4 250.6,88.8 					"/>
					<polyline class="st1" points="250,90.8 250,89.3 252.1,88.3 252.1,89.7 					"/>
					<polyline class="st1" points="251.5,91.6 251.5,90.1 253.6,89.1 253.6,90.6 					"/>
					<polyline class="st1" points="253.1,92.2 253.1,91 255.2,90 255.2,91.1 					"/>
				</g>
				<g>
					<polyline class="st1" points="235.6,94.9 235.6,93.2 237.7,92.2 237.7,93.6 					"/>
					<polyline class="st1" points="237.2,95.7 237.2,94.1 239.3,93 239.3,94.4 					"/>
					<polyline class="st1" points="238.7,96.6 238.7,94.9 240.8,93.9 240.8,95.3 					"/>
					<polyline class="st1" points="240.2,97.4 240.2,95.8 242.4,94.7 242.4,96.1 					"/>
					<polyline class="st1" points="241.8,98.3 241.8,96.6 243.9,95.6 243.9,97 					"/>
					<polyline class="st1" points="243.3,99.9 243.3,97.4 245.4,96.4 					"/>
				</g>
				<polyline class="st1" points="206.8,115.8 207.1,115.6 207.7,115.9 210.9,114.2 				"/>
				<line class="st1" x1="208.8" y1="118.4" x2="207.2" y2="117.6"/>
				<line class="st1" x1="211.3" y1="117.2" x2="208.3" y2="115.6"/>
				<polyline class="st1" points="209.3,115 209.3,112.8 214.8,115.5 				"/>
				
					<ellipse transform="matrix(0.2857 -0.9583 0.9583 0.2857 49.2193 324.2897)" class="st1" cx="242.2" cy="129.1" rx="1.9" ry="1.4"/>
				
					<ellipse transform="matrix(0.2857 -0.9583 0.9583 0.2857 75.2733 337.164)" class="st1" cx="263.8" cy="118.1" rx="1.9" ry="1.4"/>
				<path class="st1" d="M281.3,88c0.2-0.8,0.8-1.5,1.7-1.7c1.2-0.2,2.3,0.5,2.6,1.6c0.2,0.8-0.1,1.5-0.7,2"/>
				<path class="st1" d="M279.7,87c0.2-0.8,0.8-1.5,1.7-1.7c0.8-0.2,1.7,0.1,2.1,0.7"/>
				<path class="st1" d="M278,86c0.2-0.8,0.8-1.5,1.7-1.7c0.8-0.2,1.7,0.1,2.1,0.7"/>
				<path class="st1" d="M276.2,85.1c0.2-0.8,0.8-1.5,1.7-1.7c0.8-0.2,1.7,0.1,2.1,0.7"/>
				<line class="st1" x1="267.9" y1="84.7" x2="267.9" y2="87.4"/>
				<line class="st1" x1="269.2" y1="84.5" x2="269.2" y2="86.7"/>
				<path class="st1" d="M179.4,71.4c-2.2-0.8-3-4.2-1.7-7.5c1.2-3.3,4-5.3,6.2-4.5c2.2,0.8,3,4.2,1.7,7.5c-0.2,0.5-0.4,1-0.7,1.4"
					/>
				<path class="st1" d="M177.3,62c1.3-2.3,3.5-3.7,5.3-3.2l1.4,0.6"/>
				<path class="st1" d="M178.3,70.9"/>
				<path class="st1" d="M182.4,58.7l0.9-0.5c0,0,3.4,0.7,3.7,4.8v4.7"/>
				<path class="st1" d="M173.5,69.6c0,0-0.3-6.4,1.9-7.4l1.3,0.6c0,0,0.4,0.7,0,1.7c-0.4,1-0.5,5.6-0.4,6.4"/>
				<path class="st1" d="M175.5,62.2l0.6-0.3l1.3,0.6c0,0,0.3,0.5,0.2,1.2c-0.1,0.7-1.5,6,0.7,7.3"/>
				<polyline class="st1" points="184.8,69.2 184.7,67.9 184.1,67.7 179.4,70 180.1,70.2 180.2,71.2 				"/>
				<g>
					<line class="st1" x1="181.9" y1="63.3" x2="182" y2="66"/>
					<line class="st1" x1="180.8" y1="65.2" x2="183.2" y2="64.2"/>
				</g>
				
					<ellipse transform="matrix(0.9011 -0.4336 0.4336 0.9011 -9.9529 102.9954)" class="st1" cx="220.8" cy="73.3" rx="1.4" ry="1.9"/>
				<text transform="matrix(0.7325 -0.3565 6.281000e-02 0.998 246.8598 119.4852)" class="st3 st4">PUSH</text>
			</g>
			<g>
				<g>
					<path class="st1" d="M150.2,165.4l-32.8-16.4c0,0-0.7,0.1-0.7-2.2c0-2.2,0-13.6,0-13.6s0.1-1.6,1.5-1.3l3.2,1.6v-1l42.3,21.1
						c0,0,1,0.5,1,1.5v1.8"/>
					<path class="st1" d="M157.7,160.3l-4.9-2.4c0,0-0.5-0.3-0.5,0.8c0.1,1.4,0,5.5,0,5.5"/>
					<g>
						<polygon class="st1" points="150.6,164.5 141.8,160.1 141.8,152.4 150.6,156.8 						"/>
						<polygon class="st1" points="128.6,150.9 119.9,146.5 119.9,140.9 128.6,145.3 						"/>
						<polygon class="st1" points="138.8,156.4 131.8,152.9 131.8,147.5 138.8,151 						"/>
						<g>
							<polyline class="st1" points="144.5,159.3 142.9,158.5 142.9,154 149.4,157.3 149.4,161.8 147.8,161 							"/>
							<polyline class="st1" points="147.8,161 147.8,161.9 144.5,160.3 144.5,159.3 							"/>
						</g>
					</g>
					<polygon class="st1" points="127.7,148.9 121.4,145.8 121.4,142.7 127.7,145.7 					"/>
					<path class="st1" d="M133.7,149.5l3.4,1.7c0,0,0.9,0.5,0.8,1.4c-0.1,0.9-0.2,1-0.9,1c-0.7-0.1-3.2-1.5-3.2-1.5
						s-0.8-0.8-0.8-1.6C132.9,149.5,133.7,149.5,133.7,149.5z"/>
					<polyline class="st1" points="159.5,159.7 133.4,146.7 133.4,141.3 160.1,154.6 160.1,159.4 					"/>
					<polyline class="st1" points="133.5,141.3 134.7,140.7 161.4,154 161.4,158.6 					"/>
					<line class="st1" x1="133.4" y1="146.7" x2="138.6" y2="144.1"/>
					<polyline class="st1" points="140,144.7 140,150 144.9,147.3 					"/>
					<polyline class="st1" points="146.7,148 146.7,153.3 151.8,150.6 					"/>
					<polyline class="st1" points="153.3,151.3 153.3,156.5 158.4,153.9 					"/>
					<line class="st1" x1="160.1" y1="154.6" x2="161.4" y2="154"/>
					<path class="st1" d="M168.7,152.2c0,0,0.1-0.8-0.7-1.1l-3,1.7l-43.1-21.4c-1.6,0.3-1.6,1.6-1.6,1.6"/>
					<path class="st1" d="M124.1,130c0,0-1.9-0.9-2.7-1.4c-0.6-0.3-1.2-0.1-1.2-0.1s-1.1,0.6-2.1,1c-0.2,0.1-0.4,0.2-0.6,0.3
						c-0.6,0.4-0.6,1.1-0.6,1.1v1.5"/>
					<line class="st1" x1="120.7" y1="131.8" x2="117.4" y2="130.1"/>
					<path class="st1" d="M122,131.4l2.5-1.2c0,0,0.5-0.2,1,0c0.2,0.1,7.2,3.6,15.4,7.7c12,6,27.2,13.3,27.2,13.3l14.3-7.7"/>
					<polyline class="st1" points="140.9,137.9 155.8,130.2 182.4,143.5 182.5,146.8 					"/>
					<path class="st1" d="M185.6,145.3v-3.6l8.8-4.4c0,0,1-0.5,1.8-0.1c0.8,0.4,2.6,1.4,2.6,1.4"/>
					<g>
						<ellipse class="st1" cx="140.1" cy="123.7" rx="3.7" ry="1.9"/>
						<path class="st1" d="M143.8,127.3c0,1.1-1.6,1.9-3.7,1.9s-3.7-0.9-3.7-1.9"/>
						<path class="st1" d="M136.5,123.7v4.9c0,1.1,1.6,1.9,3.7,1.9s3.7-0.9,3.7-1.9v-4.7"/>
						<line class="st1" x1="138.8" y1="122.8" x2="141.2" y2="124.1"/>
						<line class="st1" x1="138.5" y1="124.2" x2="141.4" y2="122.7"/>
					</g>
					<g>
						<ellipse class="st1" cx="201.8" cy="110.3" rx="3.7" ry="1.9"/>
						<path class="st1" d="M205.4,114c0,1.1-1.6,1.9-3.7,1.9c-2,0-3.7-0.9-3.7-1.9"/>
						<path class="st1" d="M198.1,110.3v4.9c0,1.1,1.6,1.9,3.7,1.9c2,0,3.7-0.9,3.7-1.9v-4.7"/>
						<line class="st1" x1="200.4" y1="109.5" x2="202.9" y2="110.8"/>
						<line class="st1" x1="200.2" y1="110.9" x2="203" y2="109.4"/>
					</g>
					<g>
						<ellipse class="st1" cx="204.5" cy="131.9" rx="3.7" ry="1.9"/>
						<line class="st1" x1="208.1" y1="133.9" x2="208.1" y2="132.1"/>
						<line class="st1" x1="200.8" y1="131.9" x2="200.8" y2="137.5"/>
						<line class="st1" x1="203.1" y1="131" x2="205.6" y2="132.3"/>
						<line class="st1" x1="202.9" y1="132.4" x2="205.7" y2="130.9"/>
					</g>
					<path class="st1" d="M170.7,111.2l11.8-5.9c0,0,1.2-0.8,2.3-0.3c1,0.5,13.3,6.8,13.3,6.8"/>
					<line class="st1" x1="144.1" y1="124.1" x2="152.5" y2="120"/>
					<ellipse class="st1" cx="150.1" cy="123.6" rx="2.1" ry="1.1"/>
					<path class="st1" d="M151.5,125.2c0.1,0.1,0.1,0.2,0.2,0.3c0.1,0.4-0.5,0.8-1.4,1s-1.5-0.1-1.6-0.6c0-0.2,0.1-0.4,0.3-0.6"/>
					<path class="st1" d="M151.3,126.2c0.2,0.1,0.3,0.2,0.4,0.4c0.1,0.4-0.5,0.8-1.4,1s-1.5-0.1-1.6-0.6c0-0.2,0.2-0.5,0.5-0.7"/>
					<path class="st1" d="M148,123.7v0.8c0,0.6,0.9,1.1,2.1,1.1c1.1,0,2.1-0.5,2.1-1.1v-0.9"/>
					<path class="st1" d="M193.2,123.6l14-7c0,0,0.2-0.5-0.3-0.7c-0.4-0.2-1.3-0.6-1.3-0.6"/>
					<ellipse class="st1" cx="191.7" cy="124.5" rx="1.9" ry="0.9"/>
					<path class="st1" d="M192.9,127.9c0.2,0.1,0.2,0.2,0.2,0.4c0,0.3-0.6,0.6-1.4,0.6"/>
					<path class="st1" d="M191.7,126.5c1.1,0,1.9-0.4,1.9-0.9v-1.1"/>
					<path class="st1" d="M192.9,126.3c0.1,0.1,0.2,0.2,0.2,0.3c0,0.3-0.6,0.7-1.3,0.8"/>
					<path class="st1" d="M192.8,127.1c0.2,0.1,0.3,0.2,0.4,0.3c0,0.3-0.6,0.7-1.3,0.8"/>
					<line class="st1" x1="193.9" y1="124.8" x2="201.4" y2="120.8"/>
					<line class="st1" x1="207.2" y1="116.6" x2="207.2" y2="117.8"/>
					<polyline class="st1" points="174.8,139.4 195.3,129.1 195.3,128.2 193.1,127.1 					"/>
					<line class="st1" x1="191.8" y1="129.9" x2="195.3" y2="128.2"/>
					<g>
						<polyline class="st1" points="169.1,136.9 169.1,134.2 171.6,133 171.6,135.4 						"/>
						<polyline class="st1" points="166.7,135.8 166.7,133.1 169.1,131.9 169.1,134.3 						"/>
						<polyline class="st1" points="164.1,134.5 164.1,131.8 166.6,130.6 166.6,133 						"/>
						<polyline class="st1" points="161.6,133.2 161.6,130.5 164.1,129.3 164.1,131.7 						"/>
						<polyline class="st1" points="159.1,131.9 159.1,129.3 161.6,128.1 161.6,130.5 						"/>
						<polyline class="st1" points="156.5,130.6 156.5,128 159,126.8 159,129.2 						"/>
						<polyline class="st1" points="154,130.9 154,126.7 156.5,125.5 156.5,127.9 						"/>
						<polyline class="st1" points="154.1,126.5 154.1,124.1 151.7,125.3 151.7,129.5 150.9,129.1 						"/>
						<polyline class="st1" points="171.6,138.1 171.6,135.6 174.1,134.3 174.1,139.2 						"/>
						<polyline class="st1" points="177.6,137 177.6,132.6 175.1,133.8 175.1,137.8 175.7,138 174.3,138.7 						"/>
						<polyline class="st1" points="175.2,133.6 175.2,131.3 172.6,132.5 172.6,135 						"/>
						<polyline class="st1" points="178.7,131.9 178.6,129.5 176.1,130.8 176.1,133.3 						"/>
						<polyline class="st1" points="182.1,130.1 182.1,127.8 179.6,129 179.6,131.5 						"/>
						<polyline class="st1" points="185.6,128.4 185.6,126.1 183.1,127.3 183.1,129.8 						"/>
						<polyline class="st1" points="189.1,126.7 189.1,124.3 186.6,125.5 186.6,128 						"/>
						<g>
							<polyline class="st1" points="172.6,132.4 172.6,130 170.1,131.2 170.1,133.8 							"/>
							<polyline class="st1" points="176.1,130.7 176.1,128.3 173.6,129.5 173.6,132 							"/>
							<polyline class="st1" points="179.7,128.9 179.6,126.5 177.1,127.7 177.1,130.2 							"/>
							<polyline class="st1" points="183.1,127.2 183.1,124.8 180.6,126 180.6,128.5 							"/>
							<polyline class="st1" points="186.6,125.4 186.6,123.1 184.1,124.3 184.1,126.8 							"/>
							<polyline class="st1" points="190.1,123.7 190.1,121.3 187.6,122.5 187.6,125 							"/>
						</g>
						<polyline class="st1" points="181.2,135.3 181.1,130.9 178.6,132.1 178.6,136 179.2,136.3 177.9,137 						"/>
						<polyline class="st1" points="184.7,133.5 184.7,129.1 182.1,130.3 182.1,134.3 182.7,134.5 181.4,135.2 						"/>
						<polyline class="st1" points="188.2,131.7 188.1,127.3 185.6,128.5 185.6,132.5 186.2,132.8 184.9,133.4 						"/>
						<polyline class="st1" points="191.6,130 191.6,125.6 189.1,126.8 189.1,130.8 189.6,131.1 188.3,131.7 						"/>
					</g>
					<g>
						<polyline class="st1" points="170.2,131 170.2,128.7 167.7,129.9 167.7,132.4 						"/>
						<polyline class="st1" points="173.6,129.3 173.6,126.9 171.1,128.1 171.1,130.6 						"/>
						<polyline class="st1" points="177.2,127.5 177.2,125.1 174.7,126.4 174.7,128.9 						"/>
						<polyline class="st1" points="180.7,125.8 180.7,123.4 178.2,124.7 178.2,127.2 						"/>
						<polyline class="st1" points="184.2,124.1 184.2,121.7 181.7,122.9 181.7,125.4 						"/>
						<polyline class="st1" points="187.7,122.3 187.7,119.9 185.2,121.1 185.2,123.7 						"/>
					</g>
					<g>
						<polyline class="st1" points="167.6,129.8 167.6,127.4 165.1,128.6 165.1,131.1 						"/>
						<polyline class="st1" points="171.1,128 171.1,125.7 168.5,126.9 168.5,129.4 						"/>
						<polyline class="st1" points="174.6,126.3 174.6,123.9 172.1,125.1 172.1,127.6 						"/>
						<polyline class="st1" points="178.1,124.6 178.1,122.2 175.6,123.4 175.6,125.9 						"/>
						<polyline class="st1" points="181.6,122.8 181.6,120.5 179.1,121.7 179.1,124.2 						"/>
						<polyline class="st1" points="185.1,121 185.1,118.7 182.6,119.9 182.6,122.4 						"/>
					</g>
					<g>
						<polyline class="st1" points="165.1,128.7 165.1,126.3 162.5,127.6 162.5,130.1 						"/>
						<polyline class="st1" points="168.5,127 168.5,124.6 166,125.8 166,128.3 						"/>
						<polyline class="st1" points="172.1,125.2 172.1,122.8 169.6,124 169.6,126.6 						"/>
						<polyline class="st1" points="175.6,123.5 175.6,121.1 173.1,122.3 173.1,124.8 						"/>
						<polyline class="st1" points="179.1,121.8 179.1,119.4 176.5,120.6 176.5,123.1 						"/>
						<polyline class="st1" points="182.6,120 182.6,117.6 180.1,118.8 180.1,121.3 						"/>
					</g>
					<g>
						<polyline class="st1" points="162.6,127.3 162.6,125 160.1,126.2 160.1,128.7 						"/>
						<polyline class="st1" points="166,125.6 166,123.2 163.5,124.5 163.5,127 						"/>
						<polyline class="st1" points="169.6,123.8 169.6,121.5 167.1,122.7 167.1,125.2 						"/>
						<polyline class="st1" points="173.1,122.1 173.1,119.8 170.6,121 170.6,123.5 						"/>
						<polyline class="st1" points="176.6,120.4 176.6,118 174.1,119.2 174.1,121.7 						"/>
						<polyline class="st1" points="180.1,118.6 180.1,116.2 177.6,117.5 177.6,120 						"/>
					</g>
					<g>
						<polyline class="st1" points="160,126.1 160,123.7 157.5,124.9 157.5,127.4 						"/>
						<polyline class="st1" points="163.5,124.4 163.5,122 160.9,123.2 160.9,125.7 						"/>
						<polyline class="st1" points="167,122.6 167,120.2 164.5,121.4 164.5,123.9 						"/>
						<polyline class="st1" points="170.5,120.9 170.5,118.5 168,119.7 168,122.2 						"/>
						<polyline class="st1" points="174,119.1 174,116.8 171.5,118 171.5,120.5 						"/>
						<polyline class="st1" points="177.5,117.4 177.5,115 175,116.2 175,118.7 						"/>
					</g>
					<g>
						<polyline class="st1" points="157.6,124.8 157.5,122.5 155,123.7 155,126.2 						"/>
						<polyline class="st1" points="161,123.1 161,120.7 158.5,122 158.5,124.5 						"/>
						<polyline class="st1" points="164.6,121.3 164.6,119 162.1,120.2 162.1,122.7 						"/>
						<polyline class="st1" points="168.1,119.6 168.1,117.3 165.5,118.5 165.5,121 						"/>
						<polyline class="st1" points="171.6,117.9 171.5,115.5 169,116.7 169,119.3 						"/>
						<polyline class="st1" points="175.1,116.1 175.1,113.8 172.5,115 172.5,117.5 						"/>
					</g>
					<g>
						<polyline class="st1" points="155.1,123.5 155.1,121.1 152.5,122.3 152.5,124.8 						"/>
						<polyline class="st1" points="158.5,121.7 158.5,119.4 156,120.6 156,123.1 						"/>
						<polyline class="st1" points="162.1,119.9 162.1,117.6 159.6,118.8 159.6,121.3 						"/>
						<polyline class="st1" points="165.6,118.2 165.6,115.9 163.1,117.1 163.1,119.6 						"/>
						<polyline class="st1" points="169.1,116.5 169.1,114.2 166.5,115.4 166.5,117.9 						"/>
						<polyline class="st1" points="172.6,114.7 172.6,112.4 170.1,113.6 170.1,116.1 						"/>
					</g>
					<g>
						<polyline class="st1" points="156,120.4 156,118.1 153.5,119.3 153.5,121.8 						"/>
						<polyline class="st1" points="159.5,118.7 159.5,116.3 157,117.5 157,120 						"/>
						<polyline class="st1" points="163,117 163,114.6 160.5,115.8 160.5,118.3 						"/>
						<polyline class="st1" points="166.5,115.2 166.5,112.9 164,114.1 164,116.6 						"/>
						<polyline class="st1" points="170,113.4 170,111.1 167.5,112.3 167.5,114.8 						"/>
					</g>
					<polyline class="st1" points="153.3,131.4 146.2,128 146.2,127 148.4,125.9 					"/>
					<polyline class="st1" points="146.6,127.2 150,128.8 151.7,127.9 					"/>
					<line class="st1" x1="194.4" y1="129.8" x2="200.6" y2="132.9"/>
				</g>
				<ellipse class="st5" cx="125.3" cy="131.6" rx="1.1" ry="0.5"/>
				<ellipse class="st6" cx="164.9" cy="151.2" rx="1" ry="0.5"/>
			</g>
			<line class="st7" x1="165.4" y1="156.5" x2="165.2" y2="152.8"/>
		</g>
		
			<path style="clip-path:url(#SVGID_00000181787088242912110330000007208183132353923217_);fill:none;stroke:#000000;stroke-width:0.5;stroke-linecap:round;stroke-linejoin:round;stroke-miterlimit:10;" d="
			M78.8,65"/>
		
			<path style="clip-path:url(#SVGID_00000181787088242912110330000007208183132353923217_);fill:none;stroke:#000000;stroke-width:0.5;stroke-linecap:round;stroke-linejoin:round;stroke-miterlimit:10;" d="
			M175.2,111.3"/>
	</g>
</g>
<g id="Zooms_x2F_Numbers">
	<g>
		<path class="st9" d="M209.9,185.5l2.3-1.4c0,0,3.6-2.3,7,0.8l5.9,4.2c0,0,2.5,1.9,6.4-0.5l37.1-18.6c0,0,2.6-1.1,2.7-4.8
			c0.1-3.8-0.1-8.8-0.1-8.8"/>
		<path class="st1" d="M214.4,184.9c0,0,2.5,2.6,0.5,5.1l6.9,5c0,0,2.9,1.7,6.1,0.4c3.2-1.4,3.2-1.4,3.2-1.4s-0.6-4.1-2.8-4.3"/>
		<path class="st1" d="M266.6,170.8c0,0,2.6,1.3,2.6,4l-0.1,11.7c0,0-1.1,11.3-10.8,18.2l-15.2,7.9c0,0-6.4,3.2-9.9-1.3
			c0,0-2.3-2.8-2.2-7.7c0.1-4.9,0.2-9.8,0.2-9.8"/>
		<line class="st1" x1="235.9" y1="190.5" x2="264.8" y2="176"/>
		<path class="st1" d="M234.5,193.6l0.1,10.5c0,0,0.4,6.7,7.6,5.3l17-8.7c0,0,5.1-3.7,6.9-11.8l0.1-11.3"/>
		<path class="st1" d="M231.4,193.3c0,0,1-0.2,2,0.4c0,0,1.5-0.2,2.3-0.8l-0.1-3.2c0,0-0.7-1.7-2.3-2"/>
		<path class="st1" d="M262.7,172.9c0,0,1.9,0.2,2.4,1.9l0.3,3.3l1.3-0.6c0,0,1-4.4-2.2-5.4"/>
	</g>
</g>
<g id="Cover">
	<polyline class="st1" points="85.6,60.7 73.8,63.1 78,65.1 	"/>
	<path class="st1" d="M300.6,88.9l-0.8,4.2l-4.3,2.8l-63.5,11c0,0-1.7,0.5-1.7-1.4l0.3-2.3l-36.8,6.6l-1,3.9l-7.2,1.2
		c0,0-1.2,0-1.7-1.2s-1.5-1.8-2.2-1.6c-0.7,0.2-6.2,1.2-6.2,1.2l-0.2-2L300.6,88.9L203,39.8L91.4,59.7"/>
	<path class="st1" d="M142.3,64.3l72.3-12.6c0,0,1.7-0.6,4.1,0.6s52.2,26,52.2,26s2,0.8,0.5,1.5L198,92.6c0,0-2.2,0.5-5.1-1
		c-2.8-1.5-51.6-25.9-51.6-25.9S139.1,64.6,142.3,64.3z"/>
	<path class="st1" d="M181,108.5c0,0,1.1-2.5,2.9-1.9l1.7,1.1l-5.6,1.2L85.6,61.4"/>
	<path class="st1" d="M86.5,61.3c0,0,1.5-2.8,3.3-1.9c1.7,0.8,93.4,46.9,93.4,46.9"/>
	<polygon class="st1" points="103.3,61.9 119.1,59.1 202.6,101.1 187,103.9 	"/>
	<path class="st1" d="M101.7,79.6L77.8,67.7l0.9-2.7l1.8-0.4L125,86.8l2.6,1.3c0,0,1.3,0.8-0.3,1.1l-6.6,0.2l-1.1-0.6l-1.6,0.4
		l-0.6,3.3l-8.1,0.1l1.1-4.3l14-0.9l-1.8-0.8c0,0-5.2,0.1-9.5,0.3c-4.3,0.3-6.5-1.2-6.5-1.2l-7.1-4"/>
	<path class="st1" d="M78.8,65l25,12.7c0,0,1.7,0.6,0.9,1.1c-0.9,0.5-5.2,2.4-5.2,2.4l-0.2,0.6l-0.6,2.4c0,0,2.7,1.8,3.9,3.3
		c1.2,1.6,3.3,3.4,6.9,4"/>
	<path class="st1" d="M175.2,111.3"/>
	<path class="st1" d="M118.4,89.6l4.7,1.9c0,0,1.4,0.7,4.3,0.5c2.9-0.2,6.9-0.7,8,1.5c0,0,0,1.5-2.6,1.4l-1-0.2l-6.3,0.2
		c0,0-1.8,0-3.1-0.5c-1.3-0.5-5.1-2-5.1-2"/>
	<polyline class="st1" points="135.7,94.1 166.3,109.3 167.5,112.3 171.2,114.1 175.5,113.4 	"/>
	<ellipse transform="matrix(0.1664 -0.9861 0.9861 0.1664 9.9336 178.4032)" class="st1" cx="110.5" cy="83.3" rx="1.8" ry="6.4"/>
	<line class="st1" x1="175.3" y1="111.3" x2="78.3" y2="62.3"/>
	<polygon points="106.5,87.1 106.1,88.8 105.1,87.3 	"/>
	
		<ellipse transform="matrix(7.272829e-02 -0.9974 0.9974 7.272829e-02 37.8565 219.7749)" class="st9" cx="137.1" cy="89.5" rx="0.8" ry="2.1"/>
	
		<ellipse transform="matrix(7.272829e-02 -0.9974 0.9974 7.272829e-02 42.6621 236.759)" class="st9" cx="148.7" cy="95.4" rx="0.8" ry="2.1"/>
	
		<ellipse transform="matrix(7.272829e-02 -0.9974 0.9974 7.272829e-02 47.7222 254.1284)" class="st9" cx="160.5" cy="101.4" rx="0.8" ry="2.1"/>
	
		<ellipse transform="matrix(7.272829e-02 -0.9974 0.9974 7.272829e-02 52.9256 271.9862)" class="st9" cx="172.7" cy="107.5" rx="0.8" ry="2.1"/>
	<ellipse transform="matrix(0.3194 -0.9476 0.9476 0.3194 113.2387 343.231)" class="st1" cx="295.6" cy="92.8" rx="1.3" ry="0.8"/>
	<path class="st1" d="M123.4,90l5.9-0.1c0,0,0.6,0,1.3,0.4c0.6,0.3,1.4,0.7,0.4,0.8c-1,0.1-6,0.2-6,0.2s-0.8,0.1-2.1-0.6
		C122.9,90.6,122.2,90,123.4,90z"/>
</g>
<g id="Arrows">
	<g>
	</g>
	<g>
	</g>
	<g>
	</g>
	<g>
	</g>
	<path class="st10" d="M127.6,28l23.1,0.6l7.5,10.9l-9.3-3.4c0,0-17.9,13.5-12.3,28.8L123.8,60c0,0-5.6-15.9,13-28.6L127.6,28z"/>
	<path class="st10" d="M131.4,66.5l17,15.7l12.9-2.6l-9-4c0,0-3.4-22.2,11.3-29.2l-12.6-5.5c0,0-15,7.5-10.6,29.5L131.4,66.5z"/>
	<circle class="st1" cx="247.8" cy="186.6" r="38.2"/>
	<line class="st11" x1="233.9" y1="166" x2="186.4" y2="154.1"/>
	<line class="st1" x1="186.4" y1="154.1" x2="233.9" y2="166"/>
	<polygon class="st12" points="72.5,93.9 76.7,91.1 76.1,100.5 59.9,102 64.2,99.3 46.5,90.3 54.8,84.8 	"/>
	<polygon class="st13" points="252.9,199.6 246.3,204 247.1,189 272.8,186.3 266.1,190.8 294.4,204.9 281.3,213.6 	"/>
	<g>
		<circle class="st14" cx="288.4" cy="173.3" r="14"/>
		<g>
			<text transform="matrix(1 0 0 1 282.5132 180.1102)" class="st15 st16 st17">1</text>
		</g>
	</g>
</g>
</svg>
