<?xml version="1.0" encoding="utf-8"?>
<!-- Generator: Adobe Illustrator 26.0.3, SVG Export Plug-In . SVG Version: 6.00 Build 0)  -->
<svg version="1.1" id="BOOT_x5F_MEDIA" xmlns="http://www.w3.org/2000/svg" xmlns:xlink="http://www.w3.org/1999/xlink" x="0px"
	 y="0px" viewBox="0 0 378 269.9" style="enable-background:new 0 0 378 269.9;" xml:space="preserve">
<style type="text/css">
	.st0{fill:#D0D2D3;}
	.st1{fill:none;stroke:#231F20;stroke-width:0.5;stroke-linecap:round;stroke-linejoin:round;stroke-miterlimit:10;}
	.st2{fill:none;stroke:#231F20;stroke-width:0.5;stroke-linecap:round;stroke-linejoin:round;}
	.st3{fill:none;stroke:#231F20;stroke-width:0.25;stroke-linecap:round;stroke-linejoin:round;stroke-miterlimit:10;}
	.st4{fill:#231F20;stroke:#231F20;stroke-width:0.125;stroke-linecap:round;stroke-linejoin:round;stroke-miterlimit:10;}
	.st5{fill:none;stroke:#231F20;stroke-width:0.4875;stroke-linecap:round;stroke-linejoin:round;stroke-miterlimit:10;}
	.st6{fill:none;stroke:#231F20;stroke-width:0.4505;stroke-linecap:round;stroke-linejoin:round;stroke-miterlimit:10;}
	.st7{fill:none;stroke:#231F20;stroke-width:0.4409;stroke-linecap:round;stroke-linejoin:round;stroke-miterlimit:10;}
	.st8{fill:none;stroke:#231F20;stroke-width:0.5145;stroke-linecap:round;stroke-linejoin:round;stroke-miterlimit:10;}
	.st9{fill:#231F20;}
	.st10{font-family:'Arial-BoldMT';}
	.st11{font-size:4.6807px;}
	.st12{opacity:0.7;fill:#FFFFFF;}
	.st13{fill:#FFFFFF;}
	.st14{opacity:0.5;}
	.st15{fill:none;stroke:#231F20;stroke-width:0.4737;stroke-linecap:round;stroke-linejoin:round;stroke-miterlimit:10;}
	.st16{fill:none;stroke:#231F20;stroke-width:0.464;stroke-linecap:round;stroke-linejoin:round;stroke-miterlimit:10;}
	.st17{fill:none;stroke:#231F20;stroke-width:0.4068;stroke-linecap:round;stroke-linejoin:round;stroke-miterlimit:10;}
	.st18{fill:none;stroke:#231F20;stroke-width:0.4365;stroke-linecap:round;stroke-linejoin:round;stroke-miterlimit:10;}
	.st19{fill:none;stroke:#231F20;stroke-width:0.5012;stroke-linecap:round;stroke-linejoin:round;stroke-miterlimit:10;}
	.st20{fill:none;stroke:#231F20;stroke-width:0.3156;stroke-linecap:round;stroke-linejoin:round;stroke-miterlimit:10;}
	.st21{fill:none;stroke:#231F20;stroke-width:0.5359;stroke-linecap:round;stroke-linejoin:round;stroke-miterlimit:10;}
	.st22{fill:none;stroke:#231F20;stroke-width:0.4112;stroke-linecap:round;stroke-linejoin:round;stroke-miterlimit:10;}
	.st23{fill:none;stroke:#231F20;stroke-width:0.2051;stroke-linecap:round;stroke-linejoin:round;stroke-miterlimit:10;}
	.st24{fill:none;stroke:#231F20;stroke-width:0.259;stroke-linecap:round;stroke-linejoin:round;stroke-miterlimit:10;}
	.st25{fill:none;stroke:#231F20;stroke-width:0.3861;stroke-linecap:round;stroke-linejoin:round;stroke-miterlimit:10;}
	.st26{fill:none;stroke:#231F20;stroke-width:0.1926;stroke-linecap:round;stroke-linejoin:round;stroke-miterlimit:10;}
	.st27{fill:none;stroke:#231F20;stroke-width:0.2432;stroke-linecap:round;stroke-linejoin:round;stroke-miterlimit:10;}
	.st28{fill:none;stroke:#D0CFCD;stroke-width:0.25;stroke-linecap:round;stroke-linejoin:round;stroke-miterlimit:10;}
	.st29{fill:none;stroke:#D0CFCD;stroke-width:0.6349;stroke-linecap:round;stroke-linejoin:round;stroke-miterlimit:10;}
	.st30{fill:#FFFFFF;stroke:#FFFFFF;stroke-width:3;stroke-linecap:round;stroke-linejoin:round;stroke-miterlimit:10;}
	
		.st31{opacity:0.5;fill:#FFFFFF;stroke:#231F20;stroke-width:0.75;stroke-linecap:round;stroke-linejoin:round;stroke-miterlimit:10;stroke-dasharray:3;}
	.st32{fill:none;stroke:#231F20;stroke-width:0.4194;stroke-linecap:round;stroke-linejoin:round;stroke-miterlimit:10;}
	.st33{fill:#FFFFFF;stroke:#231F20;stroke-width:0.4194;stroke-linecap:round;stroke-linejoin:round;stroke-miterlimit:10;}
	.st34{fill:none;stroke:#231F20;stroke-width:0.6291;stroke-linecap:round;stroke-linejoin:round;stroke-miterlimit:10;}
	.st35{fill:#231F20;stroke:#FFFFFF;stroke-width:0.5;stroke-linecap:round;stroke-linejoin:round;stroke-miterlimit:10;}
	.st36{fill-rule:evenodd;clip-rule:evenodd;stroke:#FFFFFF;stroke-width:0.8;stroke-miterlimit:10;}
	.st37{font-family:'Helvetica';}
	.st38{font-size:16.7034px;}
	.st39{fill:#FFFFFF;stroke:#2D2A26;stroke-width:0.75;stroke-linecap:round;stroke-linejoin:round;stroke-miterlimit:10;}
	.st40{clip-path:url(#SVGID_00000147181194594992211020000008554801645155447681_);}
	.st41{fill:#FFFFFF;stroke:#231F20;stroke-width:0.5;stroke-linecap:round;stroke-linejoin:round;stroke-miterlimit:10;}
	.st42{fill:none;stroke:#231F20;stroke-width:0.75;stroke-linecap:round;stroke-linejoin:round;stroke-miterlimit:10;}
	.st43{fill:#FFFFFF;stroke:#FFFFFF;stroke-width:2.1802;stroke-linecap:round;stroke-linejoin:round;}
	.st44{fill:#231F20;stroke:#FFFFFF;stroke-width:0.7071;stroke-linecap:round;stroke-linejoin:round;stroke-miterlimit:10;}
	.st45{fill:none;stroke:#231F20;stroke-width:0.5;stroke-miterlimit:10;}
</style>
<polygon class="st0" points="185.3,158.9 152.5,142.5 151.5,142.9 150.9,141.9 149.2,141.2 139.2,146.1 139,150 142.3,151.7 
	142.5,152.2 141.8,152.5 169.8,166.2 "/>
<g>
	<path class="st1" d="M62.5,126.6c0,0,0-0.6,0-1.6c0-1.1,1.2-1.6,1.2-1.6s7-3.7,7.4-3.8c0.3-0.2,0.6-0.2,1.1-0.1
		c0.5,0.1,0.8-0.2,0.9-0.6c0.1-0.4,1.2-0.9,1.2-0.9l111.7-55.9c0,0,0.7-0.5,1.3-0.1c0.6,0.5,2.1,1.4,2.1,1.4s0.3,0.2,0.6-0.1
		c0.2-0.2,0.6-0.7,0.4-1.2l-0.7-0.5c0,0-0.2-0.6,0-1c0.2-0.4,0.5-0.8,0.9-0.8s3.1-0.2,3.1-0.2s0.7,0.2,0.8,0.6l0,3.3
		c0,0,0.1,0.5-0.4,0.8s-44.9,22.4-44.9,22.4"/>
	<path class="st1" d="M161.7,128.9c0,0-0.1-7.2,0-8.8c0.1-1.6,1.6-2.1,1.6-2.1l24.9-12.6l-6.9-3.5l6.1-3.1c0,0-22.9-11.4-23.9-12
		c-1-0.5-2.2,0-2.2,0l-6.1,3l-7.1-3.5L124.7,98c0,0-2.2,0.9-2.2,2.5l0.1,1.1"/>
	<path class="st1" d="M162.8,117.8l-6.6-3.4l-6.8,3.4c0,0-1.1,0.6-1.1,1.8s0,3.1,0,3.1"/>
	<path class="st1" d="M123.8,98.8l6.6,3.3l-5.8,3.1l0,0.5c0,0-0.8,0.7-0.8,1.9c0,1,0.1,6.9,0.1,6.9"/>
	<line class="st1" x1="125" y1="105.1" x2="149.7" y2="117.5"/>
	<path class="st1" d="M155.7,133.5c0,0,0,0.2,0.7-0.2c0.7-0.4,4.8-2.4,4.8-2.4s0.7-0.5,0.5,0.6l0,0.6l-1.2-0.6"/>
	<polyline class="st1" points="161.7,132.1 189.3,118.2 189.4,116.9 195.6,113.9 	"/>
	<path class="st1" d="M184.6,103.4c0.5-0.4,1.4-0.6,2.4-0.6c1.7,0,3,0.7,3,1.5c0,0.6-0.6,1.1-1.6,1.3"/>
	<path class="st1" d="M189,107.3c0.7-0.3,1.1-0.7,1.1-1.2v-1.6"/>
	<path class="st1" d="M188.8,115.7v-9.1c0,0,0.1-1-0.9-1.1"/>
	<path class="st1" d="M189.4,107c0.3,0.2,0.5,0.4,0.5,0.7c0,0.4-0.4,0.8-1.1,1"/>
	<path class="st1" d="M189.4,108.9c0.3,0.2,0.5,0.4,0.5,0.7c0,0.4-0.4,0.8-1.1,1"/>
	<path class="st1" d="M189.4,110.6c0.3,0.2,0.5,0.4,0.5,0.7c0,0.4-0.4,0.8-1.1,1"/>
	<g>
		<ellipse class="st1" cx="154.5" cy="118.4" rx="3" ry="1.5"/>
		<path class="st1" d="M151.5,118.4v1.7c0,0.8,1.4,1.5,3,1.5c1.7,0,3-0.7,3-1.5v-1.6"/>
		<path class="st1" d="M157.1,120.9c0.3,0.3,0.4,0.6,0.4,0.9c-0.1,0.8-1.6,1.3-3.2,1.1c-1.7-0.2-2.9-1.1-2.8-1.9
			c0-0.1,0.1-0.2,0.1-0.4"/>
		<path class="st1" d="M157.5,127.7c0,0.1,0.1,0.2,0.1,0.3c0,0.8-1.4,1.5-3,1.5c-1.7,0-3-0.7-3-1.5c0-0.2,0.1-0.4,0.3-0.6"/>
		<path class="st1" d="M156.8,126.4c0.4,0.3,0.7,0.8,0.6,1.1c-0.1,0.8-1.6,1.3-3.2,1s-2.9-1.2-2.7-2c0.1-0.3,0.3-0.6,0.7-0.8"/>
		<path class="st1" d="M156.9,124.5c0.4,0.3,0.6,0.7,0.5,1.1c-0.1,0.8-1.6,1.3-3.2,1c-1.7-0.3-2.9-1.2-2.7-2c0-0.3,0.2-0.5,0.5-0.7"
			/>
		<path class="st1" d="M156.9,122.7c0.4,0.3,0.6,0.7,0.6,1.1c-0.1,0.8-1.6,1.3-3.2,1c-1.7-0.3-2.9-1.2-2.7-2c0-0.3,0.2-0.5,0.5-0.7"
			/>
	</g>
	<g>
		<ellipse class="st1" cx="127.5" cy="139.4" rx="2" ry="1"/>
		<path class="st1" d="M125.5,139.4v1.1c0,0.5,0.9,1,2,1c1.1,0,2-0.4,2-1v-1"/>
		<path class="st1" d="M128.8,141.3c0.1,0.1,0.1,0.2,0.1,0.4c-0.1,0.4-0.8,0.6-1.6,0.5c-0.8-0.1-1.5-0.5-1.4-0.9"/>
		<path class="st1" d="M128.9,144c0,0.1,0,0.1,0,0.2c0,0.4-0.7,0.7-1.5,0.7c-0.8,0-1.5-0.3-1.5-0.7c0-0.1,0.1-0.2,0.1-0.3"/>
		<path class="st1" d="M128.7,143c0.2,0.2,0.3,0.3,0.3,0.5c-0.1,0.4-0.8,0.6-1.6,0.5c-0.8-0.1-1.4-0.6-1.4-1c0-0.1,0.1-0.2,0.3-0.3"
			/>
		<path class="st1" d="M128.6,142.1c0.2,0.2,0.3,0.4,0.3,0.5c-0.1,0.4-0.8,0.6-1.6,0.5c-0.8-0.1-1.4-0.6-1.4-1
			c0-0.1,0.1-0.2,0.3-0.3"/>
	</g>
	<g>
		<ellipse class="st1" cx="124.2" cy="103.2" rx="3" ry="1.5"/>
		<path class="st1" d="M121.2,103.2v1.7c0,0.8,1.3,1.5,2.8,1.5"/>
		<ellipse class="st1" cx="156.6" cy="86.9" rx="3" ry="1.5"/>
		<line class="st1" x1="153.6" y1="86.9" x2="153.6" y2="88.6"/>
		<path class="st1" d="M123.9,107.7c-1.6-0.3-2.8-1.1-2.7-1.9c0-0.1,0.1-0.2,0.1-0.4"/>
		<path class="st1" d="M123.9,114.3c-1.5-0.1-2.7-0.7-2.7-1.5c0-0.2,0.1-0.4,0.3-0.6"/>
		<path class="st1" d="M123.9,113.3c-1.7-0.3-2.9-1.2-2.7-2c0.1-0.3,0.3-0.6,0.7-0.8"/>
		<path class="st1" d="M123.9,111.3c-1.7-0.3-2.9-1.2-2.7-2c0-0.3,0.2-0.5,0.5-0.7"/>
		<path class="st1" d="M123.9,109.6c-1.7-0.3-2.9-1.2-2.7-2c0-0.3,0.2-0.5,0.5-0.7"/>
	</g>
	<polygon class="st1" points="104.6,124.2 123.2,133.7 127.3,131.7 131.1,133.6 150.5,123.9 131.8,114.6 127.9,116.6 124,114.6 	"/>
	<line class="st1" x1="104.6" y1="124.2" x2="104.5" y2="132.8"/>
	<line class="st1" x1="150.5" y1="123.9" x2="150.6" y2="129.9"/>
	<line class="st1" x1="123.2" y1="133.7" x2="123.3" y2="143.7"/>
	<line class="st1" x1="131.1" y1="133.6" x2="131.3" y2="143.8"/>
	<line class="st1" x1="127.3" y1="131.7" x2="127.3" y2="138.3"/>
	<polyline class="st1" points="88,129.1 92.2,127 105.7,133.7 101.3,135.8 	"/>
	<line class="st1" x1="105.7" y1="138" x2="105.7" y2="133.7"/>
	<line class="st1" x1="156.2" y1="114.4" x2="156.2" y2="117"/>
	<line class="st1" x1="157.2" y1="126.7" x2="161.7" y2="129"/>
	<line class="st1" x1="178" y1="83.2" x2="190.4" y2="76.9"/>
	<line class="st1" x1="193.8" y1="64.4" x2="193.8" y2="73.6"/>
	<polyline class="st1" points="222.5,77.7 203.6,68.3 197.8,71.2 197.4,71.9 190.4,75.4 190.4,82 196,84.8 196.8,84.4 	"/>
	<polyline class="st1" points="196,84.5 196,78.3 203.1,74.6 204.4,74.4 210,71.6 	"/>
	<polyline class="st1" points="204.4,74.4 204,75.1 196.9,78.6 196.8,85.3 202.5,88.1 203.3,87.7 	"/>
	<polyline class="st1" points="216.7,74.8 210.8,77.8 209.8,77.9 202.6,81.5 202.5,88 	"/>
	<line class="st1" x1="197" y1="78.7" x2="202.6" y2="81.5"/>
	<line class="st1" x1="190.5" y1="75.4" x2="195.9" y2="78.1"/>
	<polyline class="st1" points="210.8,77.8 210.5,78.4 203.6,82 203.5,88.5 209,91.2 	"/>
	<line class="st1" x1="203.6" y1="82" x2="208.9" y2="84.6"/>
	<polyline class="st1" points="209.1,93.2 209.2,84.7 223.7,77.5 228.7,79.9 214.2,87.3 214.2,95.5 	"/>
	<line class="st1" x1="209.2" y1="84.7" x2="214.2" y2="87.3"/>
	<path class="st1" d="M228.7,79.9c0,0,0.8,0.3-0.8,3.6"/>
	<polyline class="st1" points="236.3,84.6 231.2,82.1 225.3,84.8 225.1,85.5 217.9,89.2 217.8,93.7 	"/>
	<polyline class="st1" points="243.9,90.7 243.8,86.7 238.1,84 224,91 223.9,95.9 	"/>
	<polyline class="st1" points="229.4,98.9 229.5,93.7 243.8,86.7 	"/>
	<line class="st1" x1="218.1" y1="89.3" x2="223.9" y2="92.1"/>
	<line class="st1" x1="224" y1="91" x2="229.5" y2="93.7"/>
	<line class="st1" x1="208.5" y1="93.1" x2="213.9" y2="95.8"/>
	<polygon class="st1" points="200.4,102.7 218.5,93.5 236.5,102.5 218.4,111.8 	"/>
	<polyline class="st1" points="200.4,102.7 200.4,114.4 209.7,119.1 	"/>
	<line class="st1" x1="218.4" y1="111.8" x2="218.5" y2="114.9"/>
	<line class="st1" x1="236.6" y1="102.6" x2="236.7" y2="107.2"/>
	<polyline class="st1" points="212.3,96.7 186.7,83.7 181.7,86.3 	"/>
	<polyline class="st1" points="207,99 179.1,85.2 169.7,89.9 	"/>
	<polyline class="st1" points="265.8,103.4 265.8,99.3 246.2,89.6 240.4,92.5 240.1,93.2 232.9,96.7 232.9,100.5 	"/>
	<polyline class="st1" points="236.8,105.2 238.4,105.9 238.5,99.4 232.9,96.7 	"/>
	<polyline class="st1" points="252.7,92.9 247.1,95.7 245.8,95.8 238.5,99.4 	"/>
	<polyline class="st1" points="246.9,95.7 246.6,96.3 239.5,99.9 239.5,105.9 	"/>
	<polyline class="st1" points="259.2,96.1 253.5,99 252.2,99.1 245.1,102.7 239.5,99.9 	"/>
	<line class="st1" x1="245.1" y1="104.8" x2="245.1" y2="102.7"/>
	<polyline class="st1" points="245.9,105.5 245.9,103.2 252.7,99.9 253.5,99 	"/>
	<polyline class="st1" points="245.9,103.2 251.7,105.9 258.8,102.4 260.1,102.2 265.5,99.4 	"/>
	<polyline class="st1" points="280.1,111.1 280.1,109.9 268,103.5 262.2,103.5 257.1,106 254.5,104.6 	"/>
	<path class="st1" d="M280.1,109.9l-21.2,11l-0.8-0.5l-10.8,5.4l-1.2-0.7c0,0-0.5-0.3-1.4,0.2s-10.8,5.4-10.8,5.4s-1.1,0.4-0.2,0.8
		c0.9,0.4,0.8,0.5,0.8,0.5s0.4,0.1,0.3,1.1l0,0.8"/>
	<path class="st1" d="M251.7,105.9l-15,7.7c0,0-0.6,0.5-1,1.4c-0.4,0.9-2,3.7-2,3.7s-0.1,0.3-1.2,0.9c-1,0.6-32.8,16.5-32.8,16.5
		l0.1,1.2c0,0,3.5,1.7,4.8,2.6c1.3,0.9,2.7-0.2,2.7-0.2l66.3-33.4"/>
	<line class="st1" x1="21.3" y1="148.5" x2="53.4" y2="132.5"/>
	<line class="st1" x1="30" y1="161.1" x2="54.3" y2="149"/>
	<polygon class="st1" points="107.7,146.8 115.3,143.1 71.7,121.2 64.2,125 	"/>
	<path class="st1" d="M63.9,126.8c0,0,0.4-0.8,1.3-0.3c0.9,0.5,41.5,20.8,41.5,20.8s1,0.5,1,2.1s0,14.5,0,14.5s-0.1,1.6-1.2,1.1
		S65,144.4,65,144.4"/>
	<line class="st1" x1="140.7" y1="183.4" x2="64.4" y2="145.3"/>
	<line class="st1" x1="111.7" y1="197.8" x2="149" y2="179.3"/>
	<line class="st1" x1="149.6" y1="180.4" x2="111.9" y2="199.4"/>
	<line class="st1" x1="149.5" y1="195.6" x2="111.9" y2="214.7"/>
	<polyline class="st1" points="147.8,196.5 149.7,197.3 159,192.5 159.8,192.9 168.5,188.5 169.6,186.5 171.8,185.4 174.2,185.7 
		291.2,127.2 291.2,121 289,117.7 289,113 	"/>
	<path class="st1" d="M169.4,186.8v-4.9c0,0,0.4-2.9,2.4-3.6c0,0,1.7-0.5,1.8,1.1v6"/>
	<path class="st1" d="M149.7,197.1V180c0,0-0.5-1.1-2.1-1.3v1.2"/>
	<path class="st1" d="M149.7,180l9.6-4.8c0,0-0.5-1.1-2.1-1.3l-9.6,4.8"/>
	<path class="st1" d="M160.3,192.6l-0.1-17.4l7.7-3.9c0,0,1.3-0.9,2.2-0.2c1,0.8,1.6,1.4,3,0.8c1.4-0.7,1.4-0.7,1.4-0.7"/>
	<path class="st1" d="M173.9,170.2c0.8,0.4,0.8,1.7,0.8,1.7v2.4c0,0,0.1,2.3,2.6,1.3c2.3-1,2.5-3.8,2.5-3.8s0-2.1,0-3
		c0-0.8-0.6-1.3-0.6-1.3c0-1.1-0.9-0.7-0.9-0.7l-3.6,1.9c0,0-0.6,0.3-0.7,1.4"/>
	<line class="st1" x1="160.3" y1="191.1" x2="160.2" y2="172.2"/>
	<path class="st1" d="M174.1,168.8"/>
	<path class="st1" d="M159.3,175.1v-2.7l8.6-4.1l0.6-1.1l67.4-33.6c0,0,0.7-0.1,0.8,0.5c0.1,0.6,0.3,4.5,0.3,4.5s0.9,0.6,0.8,1.5
		l11.6-5.7c0,0,0.6-0.7-0.1-1.6l0.1-4.9c0,0,0.2-1.1,1-1.5l32.8-16.3l2.7,1.8c0,0,1.2-0.1,0.9-1.4l-0.7-0.6c0,0-0.4-1.2,1-1.8
		l2.8-0.1c0,0,0.7,0,0.8,0.6l0,3.5l-41.2,20.7"/>
	<line class="st1" x1="179.9" y1="168.6" x2="237.5" y2="139.8"/>
	<polyline class="st1" points="105.7,135 127.4,145.9 143.6,137.8 	"/>
	<polyline class="st1" points="105.9,136.4 127.4,147 143.3,139.2 	"/>
	<line class="st1" x1="123.7" y1="143.9" x2="125.9" y2="142.8"/>
	<line class="st1" x1="131.2" y1="143.8" x2="129" y2="142.8"/>
	<line class="st1" x1="133.3" y1="149.4" x2="138.9" y2="146.6"/>
	<line class="st1" x1="114.6" y1="158.9" x2="128.5" y2="151.9"/>
	<path class="st1" d="M107.7,148.6l5.6,2.7c0,0,1.3,0.6,1.3,1.7c-0.1,1.1-0.2,5.3-0.2,5.3s-0.2,1,0.7,1.4c0.9,0.4,4.4,2,4.4,2
		l1.1,1.6l28.4,14.4"/>
	<polyline class="st1" points="129.9,167.7 131.5,167 151.1,176.8 	"/>
	<polyline class="st1" points="136.3,169.3 145.2,164.8 153,168.7 144.1,173.1 	"/>
	<line class="st1" x1="153" y1="168.7" x2="153" y2="171.5"/>
	<polyline class="st1" points="147,174.6 155.5,170.2 157.4,171.1 	"/>
	<polyline class="st1" points="157.2,173.8 157.2,171.4 159.7,170.1 161.7,171.1 	"/>
	<line class="st1" x1="159.3" y1="172.4" x2="157.2" y2="171.4"/>
	<line class="st1" x1="86.4" y1="128.6" x2="116.2" y2="113.9"/>
	<polyline class="st1" points="187.3,98.8 188,99.1 188,102.6 	"/>
	<polyline class="st1" points="189.9,109.6 195.6,112.3 155.9,132.1 	"/>
	<path class="st1" d="M195.8,114.3"/>
	<polygon class="st1" points="198.9,112.7 195.8,114.4 195.8,109.2 198.9,107.6 	"/>
	<line class="st1" x1="195.8" y1="109.2" x2="190.3" y2="106.5"/>
	<line class="st1" x1="195.6" y1="110.2" x2="189.8" y2="107.3"/>
	<polyline class="st1" points="188.1,101.3 197.6,106.1 200.3,104.7 	"/>
	<polyline class="st1" points="188.1,102.5 197.6,107.3 200.3,106 	"/>
	<path class="st1" d="M52.6,132.3v-0.8l10.3-4.9l1.4,0.6c0,0,0.5,0.3,0.5,1c0,0.6,0,2,0,2l-9.2,4.6l-0.9-0.1v-2c0,0-0.1-1-2.2-1.3"
		/>
	<path class="st1" d="M53.5,149.6l1.3,0.6l10-5.1l-0.1-2l-0.9-0.3l-8.3,4.1c0,0-1,0.5-0.9,1.3l0,1.7"/>
	<path class="st1" d="M10.1,149.3l5.5-2.7c0,0,9.3,1.1,13.7,13.5c0,0,3.8,10.4-2.9,16l-6.2,3c0,0-2,0.3-4.5-0.9l-5.4-2.5
		c0,0-0.8-0.9-0.8-1.9s0.1-3,0.1-3"/>
	<path class="st1" d="M9.7,155.1l-0.1-4.9c0,0,0.3-1.1,2.4-0.9c0,0,9.4,3.5,12.1,13.1c0,0,4.9,10.7-2.2,15.9"/>
	<path class="st1" d="M11.4,160.7v-5.5c0,0,0.5-3.5,3.4-2.8c0,0,7.1,2.5,9.4,15.2c0,0,1.5,8.2-4.8,10.1c0,0-1.7,0.6-3.8-0.2
		s-5.8-3-5.8-3l5.4-2.7"/>
	<line class="st1" x1="16.6" y1="153.4" x2="16.6" y2="158.2"/>
	<path class="st1" d="M10.3,161.5l8.2-4.1c0,0,1.2,0.3,1.1,1.6l-1.1,3.8l-5,2.7l-1.7-3.1C11.8,162.4,11.3,161.3,10.3,161.5z"/>
	<path class="st1" d="M10.3,161.5c0,0-1.7,5.1,0.7,9.9l1.3-0.6c0,0,0-3.3,3-4.2c0,0,1.8-0.6,1.7,1.8l1.3-0.5c0,0,1-3.4,1-7"/>
	<path class="st1" d="M11.4,156c0,0,0.5,0.3-2.1-0.8c0,0-4.5-0.2-5.9,6.3v8c0,0,0,3,2.9,3.2c0,0,2.5,0.1,4-2.7"/>
	<path class="st1" d="M15.3,166.7l0.2,5.3c0,0,0.4,0.6,0.9,0.8c0.5,0.2,3.8,1.8,3.8,1.8s1.8,0.6,2.6,0.5"/>
	<path class="st1" d="M11.5,158.4c0,0-1.1,0.2-2.4-0.8c0,0-2.8,0.6-3.3,3.8l0,7.6c0,0,0.2,1.6,1.5,1.1c1.3-0.5,1.5-1.1,1.5-1.1
		l1-1.3"/>
	<path class="st1" d="M23.7,150.8l11-5.5c0,0,1.4-0.5,1.5,1c0.1,1.5,0,7.1,0,7.1s0.1,1.1-1.2,2.1l-5.9,2.9"/>
	<path class="st1" d="M46.5,140.4l-0.9,0.4c0-1.2-1-1-1-1l-6.5,3.2c-1.1,0.8-0.9,2-0.9,2l0,8.8c0,0,0.3,1.1,1.3,0.6s6.2-3,6.2-3
		s1.1-0.7,0.9-2l16.5-8.2v-0.8c0,0,2.9-1,3.2-2.2l0.3-1l0-1.7c0,0-0.2-1.8-1.4-3.3v-1.6"/>
	<path class="st1" d="M60.1,142.2v-0.8c0,0,2.9-1,3.2-2.2l0.3-1l0-1.7c0,0-0.2-1.8-1.4-3.3v-1.6"/>
	<polyline class="st1" points="46.6,148.9 46.6,139.4 56,134.8 	"/>
	<line class="st1" x1="53.1" y1="145.6" x2="53.1" y2="136.3"/>
	<polyline class="st1" points="110.3,149.7 119.6,145 119.6,151.9 114.8,154.4 	"/>
	<polyline class="st1" points="114.2,142.4 114.6,142.2 119.6,144.7 	"/>
	<polyline class="st1" points="119.7,145.7 127.5,149.7 128.6,149.1 	"/>
	<ellipse class="st1" cx="131" cy="148.2" rx="2.3" ry="1.2"/>
	<path class="st1" d="M128.7,148.2v5.8c0,0.7,1,1.2,2.3,1.2s2.3-0.5,2.3-1.2v-5.8"/>
	<polyline class="st1" points="121,110 116.2,112.4 122,115.4 	"/>
	<polyline class="st1" points="116.2,112.4 116.2,114 120.7,116.2 	"/>
	<path class="st1" d="M60.5,133c0,0,3,2.7,0.1,8.2"/>
	<line class="st1" x1="63.9" y1="142.7" x2="63.9" y2="139.6"/>
	<g>
		<polygon class="st1" points="82.3,144.5 69,138 69,143.3 82.4,150 		"/>
		<polyline class="st1" points="82.4,150 83.7,149.3 83.6,143.9 70.3,137.3 69,138 		"/>
		<line class="st1" x1="69" y1="143.3" x2="74.2" y2="140.6"/>
		<polyline class="st1" points="75.6,141.3 75.6,146.5 80.8,143.9 		"/>
		<line class="st1" x1="82.3" y1="144.5" x2="83.6" y2="143.9"/>
	</g>
	<g>
		<polygon class="st1" points="94.6,149.9 84.8,145 84.8,151.3 94.7,156.4 		"/>
		<polyline class="st1" points="94.7,156.4 96.4,155.4 96.3,148.9 86.4,144 84.8,145 		"/>
		<line class="st1" x1="84.8" y1="151.1" x2="89.4" y2="149.1"/>
		<polyline class="st1" points="89.6,147.6 89.6,153.7 94.2,151.7 		"/>
		<line class="st1" x1="94.6" y1="149.9" x2="95.9" y2="149.3"/>
	</g>
	<g>
		<polygon class="st1" points="102.5,153.9 97.4,151.3 97.4,157.7 102.6,160.4 		"/>
		<polyline class="st1" points="102.6,160.4 104.2,159.4 104.1,152.9 99,150.3 97.4,151.3 		"/>
		<path class="st1" d="M97.2,153.1"/>
		<line class="st1" x1="97.4" y1="157.7" x2="102" y2="155.7"/>
		<line class="st1" x1="102.5" y1="153.9" x2="103.8" y2="153.3"/>
	</g>
	<path class="st1" d="M115.7,200l14.2-7c0,0,1.3-0.4,1.3,0.8c0,1.3,0.1,7,0.1,7s-0.4,1.6-1.3,2.2c-0.9,0.6-14.4,7.2-14.4,7.2
		s-1.2,0-1.2-1.3s0.1-6.7,0.1-6.7S114.6,200.5,115.7,200z"/>
	<path class="st1" d="M141.4,187.4l6.3-3.1c0,0,0.8-0.7,0.8,0.2c0.1,0.8,0,8.3,0,8.3s0.1,0.5-0.6,0.9c-0.7,0.4-6.5,3.3-6.5,3.3
		s-0.7,0-0.7-0.8c0-0.8,0.1-7.9,0.1-7.9S141,187.5,141.4,187.4z"/>
	<ellipse transform="matrix(0.498 -0.8672 0.8672 0.498 -98.8542 213.505)" class="st1" cx="135" cy="192.1" rx="2" ry="1.4"/>
	<ellipse transform="matrix(0.498 -0.8672 0.8672 0.498 -72.0684 230.2496)" class="st1" cx="162.8" cy="177.4" rx="2" ry="1.4"/>
	<ellipse transform="matrix(0.498 -0.8672 0.8672 0.498 -73.4254 234.8796)" class="st1" cx="166.2" cy="180.9" rx="2" ry="1.4"/>
	<ellipse transform="matrix(0.498 -0.8672 0.8672 0.498 -80.9814 235.7322)" class="st1" cx="163.1" cy="187.8" rx="2" ry="1.4"/>
	<ellipse transform="matrix(0.498 -0.8672 0.8672 0.498 -68.2602 244.7084)" class="st1" cx="177.2" cy="181.3" rx="2" ry="1.4"/>
	<ellipse transform="matrix(0.498 -0.8672 0.8672 0.498 -83.1181 227.9855)" class="st1" cx="155.4" cy="185.8" rx="1.3" ry="0.9"/>
	<ellipse transform="matrix(0.498 -0.8672 0.8672 0.498 -104.58 216.8195)" class="st1" cx="135" cy="198.7" rx="2" ry="1.4"/>
	<line class="st1" x1="106.7" y1="198.1" x2="111.5" y2="195.8"/>
	<path class="st1" d="M102.4,190.9c1.7-0.3,3,0.1,3,0.1s3.1,1.2,4.6,2.1c1.7,1,1.7,2.3,1.7,2.3v23.3c0,0,0.3,0.9-0.7,1.4
		c-1.2,0.6-4.7,2.4-4.7,2.4s-1.3,0.4-3.3-0.5s-9.4-4.8-12.1-17.3c0,0-1.7-10,5.9-12.4c0,0,4.9-0.5,5-2.1c0,0-0.5-0.9-5.3,2"/>
	<path class="st1" d="M106.5,222.2v-22.9c0,0,0.2-2.3-1-3.1l-5.7-2.6c0,0-1.7-0.6-4.4,0.4"/>
	<path class="st1" d="M97.8,216.8c0,0-4.4-3.8-5.8-12.6c0,0-0.9-8.7,5-9.9c0,0,2.1-0.9,8.4,3v24.3c0,0-1.6,0.2-4-1.6"/>
	<path class="st1" d="M105.1,202.9l-1.3-0.6c0,0-3.5-0.4-5.5,4.7c0,0-0.5,2.5-0.5,3.9c-0.1,1.5,0.1,6.6,0.1,6.6s1.3,3.7,4.7,2.1
		c0,0,2.5-1.7,2.7-3.1"/>
	<path class="st1" d="M98.5,194.4c0,0-2.9,5.3-0.1,12.6"/>
	<path class="st1" d="M105.3,204.1l-1.2-0.7c0,0-3.4,0.3-4.7,5.4v8.2c0,0-0.3,3.6,4.1,1.8"/>
	
		<ellipse transform="matrix(0.4022 -0.9156 0.9156 0.4022 -108.4073 123.7695)" class="st1" cx="40.6" cy="144.9" rx="1.6" ry="1.2"/>
	
		<ellipse transform="matrix(0.4022 -0.9156 0.9156 0.4022 -113.8093 127.2969)" class="st1" cx="40.6" cy="150.8" rx="1.6" ry="1.2"/>
	<polygon class="st1" points="141,181.8 133.1,177.8 133.1,170.8 141,174.8 	"/>
	<g>
		<polyline class="st1" points="135.5,177.1 134.1,176.4 134.1,172.3 140,175.3 140,179.4 138.5,178.6 		"/>
		<polyline class="st1" points="138.5,178.6 138.5,179.5 135.5,178 135.5,177.1 		"/>
	</g>
	<ellipse class="st1" cx="78.1" cy="127.8" rx="2.1" ry="1"/>
	<ellipse class="st1" cx="102" cy="139.7" rx="2.1" ry="1"/>
	<path class="st1" d="M110.4,150.1v4.5c0,0-0.3,2.1,1.3,2.7l2.8,1.3"/>
	<polygon class="st1" points="118.8,166.6 112.2,163.4 112.2,160.1 118.8,163.3 	"/>
	<ellipse transform="matrix(0.9368 -0.35 0.35 0.9368 -49.4392 48.5671)" class="st1" cx="109.7" cy="161.1" rx="1" ry="1.4"/>
	<line class="st1" x1="143.8" y1="175.1" x2="143.8" y2="181.7"/>
	<path class="st1" d="M80.6,140.5v-2.3c0.1-0.9-0.8-1.5-0.8-1.5l-8.7-4.4c-1-0.4-0.9,0.7-0.9,0.7v2.4c0,0-0.1,0.7,0.7,1.1l9,4.6
		C79.9,141,80.5,141.4,80.6,140.5z"/>
	<path class="st1" d="M70.4,132.2l0.9-0.5c0,0,0.4-0.2,0.8,0l8.6,4.3c0,0,0.9,0.6,0.8,1.5v2.3c0,0.6-0.2,0.7-0.2,0.7l-1.2,0.6"/>
	<path class="st1" d="M84.6,140.9"/>
	<path class="st1" d="M234.6,132.1l-10.6,5.4c0,0,1.4,0.2,1.2,1.3"/>
	<polyline class="st1" points="224.7,138.1 220.8,140 220,139.6 205.8,146.8 205.8,148.6 	"/>
	<path class="st1" d="M200.3,151.3l-3.7-1.8c0,0-0.9-0.3-1.3,1.2l-0.1,3"/>
	<path class="st1" d="M205.8,146.8l-14.1-6.8l1.5-2.2l3.7-1.8c0,0,0.4-0.3,1,0c0.6,0.3,1.9,0.9,1.9,0.9"/>
	<line class="st1" x1="122.8" y1="99.5" x2="76" y2="123"/>
	<path class="st2" d="M282.1,116.5c0,0,1.2,0.9-0.1,2l-0.6,0.3l-12.9,6.4c0,0-0.5,0.4-0.5,1s0.1,3.7,0.1,3.7s-0.1,0.7,0.7,0.4
		c0.8-0.4,13.1-6.5,13.1-6.5s0.9-0.3,0.9,0.6s0,1.6,0,1.6s0.5,0.7,1-0.3c0,0,0.9-0.9-0.8-2.3c-1.7-1.4-1.3-1.4-1.3-1.4l0.1-3.2"/>
	<line class="st2" x1="284.1" y1="124.8" x2="291.2" y2="121.2"/>
	<path class="st2" d="M280.3,119.4l0,1.3c0,0,0.2,0.4-0.5,0.8c-0.2,0.1-0.5,0.2-0.7,0.3c-0.4,0.2-0.7,0.3-0.7,0.3l0,1.5l1.6-0.8"/>
	<path class="st2" d="M279.1,121.9l0.7,0.4c0,0,0.6,0.3,0.4,1.2l0,1.1"/>
	<path class="st1" d="M235.5,133.8c0,0,0-1.2,1-1.7s8.9-4.3,8.9-4.3s0.4-0.5,1.5,0.2"/>
	<path class="st1" d="M236.6,133.8c0,0,0-0.9,1.3-1.6s8-3.9,8-3.9s0.9-0.4,1.5-0.1"/>
	<path class="st1" d="M237,138.3l10.2-5.1c0,0,0.8-0.3,0.1-1.1l0-6.1"/>
	<line class="st1" x1="192.1" y1="140.2" x2="192.1" y2="145.4"/>
	<path class="st1" d="M191.9,144.2c0,0-0.9,1,0.6,1.6c0.4,0.1,0.9,0.4,1.5,0.7c1.8,0.8,4.3,2,4.3,2s0.7,0.1,0.2,1.8"/>
	<polyline class="st1" points="192,155.4 192.2,151.3 191.6,151 193,148.7 193.9,148.1 194,146.5 	"/>
	<polyline class="st1" points="150.8,141.8 149.3,141.1 139.1,146.2 139,149.8 	"/>
	<line class="st1" x1="139.1" y1="146.2" x2="142.3" y2="147.6"/>
	<polyline class="st1" points="139,149.4 138.3,149.8 142.4,151.7 142.4,149.8 	"/>
	<polyline class="st1" points="144.6,151.1 142,152.5 169.8,166.4 	"/>
	<polyline class="st1" points="185.2,158.8 152.6,142.4 142.4,147.5 175.1,163.8 	"/>
	<polyline class="st1" points="173.7,164.4 142.4,148.8 142.4,147.5 	"/>
	<polyline class="st1" points="172.9,165 142.4,149.8 142.4,148.5 	"/>
	<path class="st1" d="M152.1,139.2c0,0,1.5,0.5,0.5,1.9c-1,1.4-2.2,0.1-1.2,1.9"/>
	<path class="st1" d="M115.3,143.1c0,0,0.9,0.5,0.9,1c0,0.8,0,0.9,0,0.9s0.1,1-0.9,1.4c-1.1,0.4-5.6,2.7-5.6,2.7"/>
	<path class="st1" d="M108.2,146.5c0,0,0.7,0.3,0.8,0.8c0,0.5,0.1,1.8,0.1,1.8"/>
	<polyline class="st1" points="119.6,146.1 118.2,146.8 118.3,152.6 	"/>
	<polyline class="st1" points="120.5,155.9 127,159.2 127.1,163 124.1,164.7 	"/>
	<line class="st1" x1="120.4" y1="162.7" x2="127" y2="159.2"/>
	<polyline class="st1" points="126.8,166.4 130.2,164.6 133.5,166.2 131.9,167.1 	"/>
	<polyline class="st1" points="134.4,168.2 134.4,167.2 133.4,167.8 	"/>
	<line class="st1" x1="133.5" y1="166.2" x2="134.4" y2="167.2"/>
	<path class="st1" d="M125,167.3l3.1,1.5c0,0,0.8,0.4,0.7,1.3c-0.1,0.8-0.1,0.9-0.8,0.9c-0.7-0.1-2.9-1.4-2.9-1.4s-0.7-0.7-0.8-1.5
		S125,167.3,125,167.3z"/>
	<polyline class="st1" points="164.1,140.1 162.8,140.7 169.2,144 184.3,136.4 183.4,136 	"/>
	<polyline class="st3" points="165.1,138.1 164.3,138.5 164.2,138.9 169.2,141.4 169.9,141.4 183.4,134.6 183.4,134.2 182.6,133.9 	
		"/>
	<polyline class="st3" points="167,142.2 169.1,143.2 169.8,143 169.8,142.4 	"/>
	<polyline class="st3" points="164.2,138.9 164.3,140.8 165.9,141.6 	"/>
	<polyline class="st3" points="183.4,134.6 183.4,136.2 182.8,136.5 182.2,136.2 	"/>
	<polyline class="st3" points="183.2,135.6 170,142.3 169.2,142.3 	"/>
	<line class="st3" x1="169.9" y1="141.4" x2="169.9" y2="142.2"/>
	<line class="st3" x1="169.2" y1="141.4" x2="169.1" y2="143.2"/>
	<polyline class="st3" points="165.9,140.2 166,141.9 166.7,142.3 167.1,142.1 167,140.3 166.7,140.5 166,140.1 166.3,139.9 	"/>
	<line class="st3" x1="166.6" y1="140.6" x2="166.7" y2="142.3"/>
	<line class="st3" x1="182.8" y1="135.8" x2="182.8" y2="136.5"/>
	<g>
		<g>
			<polygon class="st4" points="166.8,137 166.3,136.8 166.7,136.6 167.1,136.8 			"/>
			<polygon class="st4" points="167.8,136.5 167.4,136.7 167,136.4 167.4,136.2 			"/>
			<polygon class="st4" points="168.5,136.1 168.1,136.3 167.7,136.1 168,135.9 			"/>
			<polygon class="st4" points="169.1,135.8 168.8,136 168.3,135.8 168.7,135.6 			"/>
			<polygon class="st4" points="169.8,135.5 169.4,135.7 169,135.4 169.4,135.2 			"/>
			<polygon class="st4" points="170.5,135.1 170.1,135.3 169.7,135.1 170,134.9 			"/>
			<polygon class="st4" points="171.1,134.8 170.8,135 170.3,134.8 170.7,134.6 			"/>
			<polygon class="st4" points="171.8,134.5 171.4,134.7 171,134.4 171.4,134.2 			"/>
			<polygon class="st4" points="172.5,134.1 172.1,134.3 171.7,134.1 172.1,133.9 			"/>
			<polygon class="st4" points="173.2,133.8 172.8,134 172.3,133.8 172.7,133.6 			"/>
			<polygon class="st4" points="173.8,133.5 173.4,133.7 173,133.4 173.4,133.2 			"/>
			<polygon class="st4" points="174.5,133.1 174.1,133.3 173.7,133.1 174.1,132.9 			"/>
			<polygon class="st4" points="175.2,132.8 174.8,133 174.3,132.8 174.7,132.6 			"/>
			<polygon class="st4" points="175.8,132.5 175.4,132.7 175,132.4 175.4,132.2 			"/>
			<polygon class="st4" points="176.5,132.1 176.1,132.3 175.7,132.1 176.1,131.9 			"/>
			<polygon class="st4" points="177.2,131.8 176.8,132 176.3,131.8 176.7,131.6 			"/>
			<polygon class="st4" points="177.4,131.7 177,131.4 177.4,131.2 177.8,131.5 			"/>
		</g>
	</g>
	<g>
		<g>
			<polygon class="st4" points="167.9,137.6 167.5,137.4 167.9,137.2 168.3,137.4 			"/>
			<polygon class="st4" points="169,137.1 168.6,137.3 168.2,137 168.6,136.8 			"/>
			<polygon class="st4" points="169.7,136.7 169.3,136.9 168.8,136.7 169.2,136.5 			"/>
			<polygon class="st4" points="170.3,136.4 169.9,136.6 169.5,136.4 169.9,136.2 			"/>
			<polygon class="st4" points="171,136.1 170.6,136.3 170.2,136 170.6,135.8 			"/>
			<polygon class="st4" points="171.7,135.7 171.3,135.9 170.8,135.7 171.2,135.5 			"/>
			<polygon class="st4" points="172.3,135.4 171.9,135.6 171.5,135.4 171.9,135.2 			"/>
			<polygon class="st4" points="173,135.1 172.6,135.3 172.2,135 172.6,134.8 			"/>
			<polygon class="st4" points="173.7,134.7 173.3,134.9 172.8,134.7 173.2,134.5 			"/>
			<polygon class="st4" points="174.3,134.4 173.9,134.6 173.5,134.4 173.9,134.2 			"/>
			<polygon class="st4" points="175,134.1 174.6,134.3 174.2,134 174.6,133.8 			"/>
			<polygon class="st4" points="175.7,133.7 175.3,133.9 174.8,133.7 175.2,133.5 			"/>
			<polygon class="st4" points="176.3,133.4 175.9,133.6 175.5,133.4 175.9,133.2 			"/>
			<polygon class="st4" points="177,133.1 176.6,133.3 176.2,133 176.6,132.8 			"/>
			<polygon class="st4" points="177.7,132.7 177.3,132.9 176.8,132.7 177.2,132.5 			"/>
			<polygon class="st4" points="178.3,132.4 177.9,132.6 177.5,132.4 177.9,132.2 			"/>
			<polygon class="st4" points="178.6,132.3 178.2,132 178.6,131.8 179,132.1 			"/>
		</g>
	</g>
	<g>
		<g>
			<polygon class="st4" points="169.1,138.2 168.7,137.9 169.1,137.7 169.5,138 			"/>
			<polygon class="st4" points="170.2,137.7 169.8,137.9 169.4,137.6 169.8,137.4 			"/>
			<polygon class="st4" points="170.9,137.3 170.5,137.5 170,137.3 170.4,137.1 			"/>
			<polygon class="st4" points="171.5,137 171.1,137.2 170.7,136.9 171.1,136.7 			"/>
			<polygon class="st4" points="172.2,136.7 171.8,136.9 171.4,136.6 171.8,136.4 			"/>
			<polygon class="st4" points="172.9,136.3 172.5,136.5 172,136.3 172.4,136.1 			"/>
			<polygon class="st4" points="173.5,136 173.1,136.2 172.7,135.9 173.1,135.7 			"/>
			<polygon class="st4" points="174.2,135.7 173.8,135.9 173.4,135.6 173.8,135.4 			"/>
			<polygon class="st4" points="174.9,135.3 174.5,135.5 174,135.3 174.4,135.1 			"/>
			<polygon class="st4" points="175.5,135 175.1,135.2 174.7,134.9 175.1,134.7 			"/>
			<polygon class="st4" points="176.2,134.7 175.8,134.9 175.4,134.6 175.8,134.4 			"/>
			<polygon class="st4" points="176.9,134.3 176.5,134.5 176,134.3 176.4,134.1 			"/>
			<polygon class="st4" points="177.5,134 177.1,134.2 176.7,133.9 177.1,133.7 			"/>
			<polygon class="st4" points="178.2,133.7 177.8,133.9 177.4,133.6 177.8,133.4 			"/>
			<polygon class="st4" points="178.9,133.3 178.5,133.5 178,133.3 178.4,133.1 			"/>
			<polygon class="st4" points="179.5,133 179.1,133.2 178.7,132.9 179.1,132.7 			"/>
			<polygon class="st4" points="179.8,132.9 179.4,132.6 179.8,132.4 180.2,132.7 			"/>
		</g>
	</g>
	<g>
		<g>
			<polygon class="st4" points="170.3,138.7 169.9,138.5 170.3,138.3 170.7,138.5 			"/>
			<polygon class="st4" points="171.4,138.2 171,138.4 170.5,138.2 170.9,138 			"/>
			<polygon class="st4" points="172,137.9 171.6,138.1 171.2,137.8 171.6,137.6 			"/>
			<polygon class="st4" points="172.7,137.5 172.3,137.7 171.9,137.5 172.3,137.3 			"/>
			<polygon class="st4" points="173.4,137.2 173,137.4 172.5,137.2 172.9,137 			"/>
			<polygon class="st4" points="174,136.9 173.6,137.1 173.2,136.8 173.6,136.6 			"/>
			<polygon class="st4" points="174.7,136.5 174.3,136.7 173.9,136.5 174.3,136.3 			"/>
			<polygon class="st4" points="175.4,136.2 175,136.4 174.5,136.2 174.9,136 			"/>
			<polygon class="st4" points="176,135.9 175.6,136.1 175.2,135.8 175.6,135.6 			"/>
			<polygon class="st4" points="176.7,135.5 176.3,135.7 175.9,135.5 176.3,135.3 			"/>
			<polygon class="st4" points="177.4,135.2 177,135.4 176.5,135.2 176.9,135 			"/>
			<polygon class="st4" points="178,134.9 177.6,135.1 177.2,134.8 177.6,134.6 			"/>
			<polygon class="st4" points="178.7,134.5 178.3,134.7 177.9,134.5 178.3,134.3 			"/>
			<polygon class="st4" points="179.4,134.2 179,134.4 178.5,134.2 178.9,134 			"/>
			<polygon class="st4" points="180,133.9 179.6,134.1 179.2,133.8 179.6,133.6 			"/>
			<polygon class="st4" points="180.7,133.5 180.3,133.7 179.9,133.5 180.3,133.3 			"/>
			<polygon class="st4" points="181,133.4 180.5,133.2 180.9,133 181.4,133.2 			"/>
		</g>
	</g>
	<polyline class="st3" points="166.3,139.5 165.1,138.8 165.1,137.4 166.1,136.9 166.5,137.1 166.2,137.3 166.8,137.6 167.2,137.4 
		167.7,137.7 167.4,137.9 	"/>
	<line class="st3" x1="166.5" y1="138.1" x2="165.1" y2="137.4"/>
	<polygon class="st3" points="168.4,138.1 167.7,138.4 167.6,138.7 167.6,140.1 169.2,140.9 169.2,139.3 170.1,138.9 169.6,138.6 
		169.2,138.8 168.6,138.5 168.9,138.3 	"/>
	<line class="st3" x1="167.7" y1="138.7" x2="169.1" y2="139.5"/>
	<polyline class="st3" points="166.4,139.9 166.4,138.3 167.1,137.8 167.7,138.4 	"/>
	<line class="st3" x1="167" y1="140.3" x2="167.1" y2="137.8"/>
	<polyline class="st3" points="166.5,138.3 167,138.6 167.5,138.4 	"/>
	<polygon class="st3" points="182.6,132.9 181.8,133.2 181.8,134.7 182.6,134.3 	"/>
	<polyline class="st3" points="169.2,140.9 170,140.5 170,139 	"/>
	<line class="st3" x1="170.2" y1="140.4" x2="181.6" y2="134.7"/>
	<polyline class="st3" points="177.6,131.1 178.4,130.7 182.5,132.8 	"/>
	<polyline class="st3" points="178.8,130.9 179.4,130.4 180.1,130.9 180.1,131.6 	"/>
	<polyline class="st3" points="181.2,132 181.8,131.6 182.4,132.1 182.5,132.7 	"/>
	<polyline class="st3" points="181.7,131.7 181.9,132.4 182.4,132.1 	"/>
	<polyline class="st3" points="179.4,130.5 179.5,131.2 180.1,130.9 	"/>
	<line class="st3" x1="178.1" y1="131.4" x2="178.8" y2="131"/>
	<line class="st3" x1="178.8" y1="131.6" x2="179.5" y2="131.3"/>
	<line class="st3" x1="180.5" y1="132.5" x2="181.2" y2="132.2"/>
	<line class="st3" x1="181.2" y1="132.9" x2="181.9" y2="132.5"/>
	<path class="st1" d="M143.6,139.5l2.1,1.1c0,0,0.7,0.5,2.1-0.1c1.4-0.6,7.9-4.2,7.9-4.2"/>
	<path class="st1" d="M143.7,139v-4c0,0-0.1-1.7,1.3-1.6c0,0,1,0.1,1,2.2v4.9"/>
	<path class="st1" d="M148.2,131.9c0,0,1,0.1,1,2.2v5.3"/>
	<path class="st1" d="M152.5,137.8v-5.1c0-2-1-2.2-1-2.2v5.6"/>
	<line class="st1" x1="144.6" y1="133.4" x2="153.1" y2="129.3"/>
	<line class="st1" x1="148.2" y1="131.9" x2="148.2" y2="137.9"/>
	<path class="st1" d="M155.4,129.5c0.2,0.3,0.3,0.8,0.3,1.6v4.9"/>
	<polyline class="st1" points="152.6,135.5 154.8,134.4 154.8,129.7 	"/>
	<line class="st1" x1="149.2" y1="137.2" x2="151.5" y2="136.1"/>
	<line class="st1" x1="146" y1="138.9" x2="148.2" y2="137.8"/>
	<path class="st1" d="M155.8,135c0,0,3.1-0.6,2.1-2.3"/>
	<ellipse class="st1" cx="192.5" cy="135.2" rx="2.4" ry="1.1"/>
	<path class="st1" d="M192.1,142c-1.1-0.1-1.9-0.5-1.9-1v-5.8"/>
	<line class="st1" x1="194.9" y1="135.2" x2="194.9" y2="136.7"/>
	<g>
		<polyline class="st1" points="203.3,124 203.3,122.7 201.2,123.7 201.2,130 200.2,129.5 200.2,130.5 		"/>
		<polyline class="st1" points="201.7,130.3 202.8,130.8 202.8,124.5 204.9,123.5 204.9,124.9 		"/>
		<polyline class="st1" points="203.3,131.2 204.3,131.7 204.3,125.4 206.4,124.4 206.4,125.7 		"/>
		<polyline class="st1" points="204.8,132 205.8,132.5 205.8,126.2 207.9,125.2 207.9,126.6 		"/>
		<polyline class="st1" points="207.4,132.2 207.4,127.1 209.5,126 209.5,127.5 		"/>
		<polyline class="st1" points="208.9,131.6 208.9,127.9 211,126.9 211,130.3 		"/>
	</g>
	<g>
		<polyline class="st1" points="204.1,123.8 204.1,122.2 206.2,121.2 206.2,122.5 		"/>
		<polyline class="st1" points="205.6,124.7 205.6,123 207.8,122 207.8,123.4 		"/>
		<polyline class="st1" points="207.2,125.5 207.2,123.9 209.3,122.9 209.3,124.2 		"/>
		<polyline class="st1" points="208.7,126.4 208.7,124.7 210.8,123.7 210.8,125.1 		"/>
		<polyline class="st1" points="210.3,127.3 210.3,125.6 212.4,124.6 212.4,126 		"/>
		<polyline class="st1" points="211.8,130.1 211.8,126.4 213.9,125.4 213.9,128.8 		"/>
	</g>
	<g>
		<polyline class="st1" points="207,122.4 207,120.7 209.1,119.7 209.1,121 		"/>
		<polyline class="st1" points="208.6,123.2 208.6,121.5 210.7,120.5 210.7,121.9 		"/>
		<polyline class="st1" points="210.1,124.1 210.1,122.4 212.2,121.4 212.2,122.7 		"/>
		<polyline class="st1" points="211.6,124.9 211.6,123.2 213.7,122.2 213.8,123.6 		"/>
		<polyline class="st1" points="213.2,125.8 213.2,124.1 215.3,123.1 215.3,124.5 		"/>
		<polyline class="st1" points="214.7,128.6 214.7,124.9 216.8,123.9 216.8,127.4 		"/>
	</g>
	<g>
		<polyline class="st1" points="209.9,120.9 209.9,119.2 212,118.2 212,119.6 		"/>
		<polyline class="st1" points="211.4,121.7 211.4,120.1 213.5,119 213.5,120.4 		"/>
		<polyline class="st1" points="213,122.6 213,120.9 215.1,119.9 215.1,121.2 		"/>
		<polyline class="st1" points="214.5,123.4 214.5,121.7 216.6,120.7 216.6,122.1 		"/>
		<polyline class="st1" points="216,124.3 216,122.6 218.1,121.6 218.1,123 		"/>
		<polyline class="st1" points="217.6,127.1 217.6,123.4 219.7,122.4 219.7,125.9 		"/>
	</g>
	<g>
		<polyline class="st1" points="212.6,119.5 212.6,117.9 214.7,116.8 214.7,118.2 		"/>
		<polyline class="st1" points="214.1,120.4 214.1,118.7 216.2,117.7 216.2,119 		"/>
		<polyline class="st1" points="215.7,121.2 215.7,119.5 217.8,118.5 217.8,119.9 		"/>
		<polyline class="st1" points="217.2,122.1 217.2,120.4 219.3,119.4 219.3,120.8 		"/>
		<polyline class="st1" points="218.7,122.9 218.7,121.2 220.9,120.2 220.9,121.7 		"/>
		<polyline class="st1" points="220.3,125.7 220.3,122.1 222.4,121.1 222.4,124.5 		"/>
	</g>
	<g>
		<polyline class="st1" points="215.4,118.1 215.4,116.5 217.5,115.4 217.5,116.8 		"/>
		<polyline class="st1" points="216.9,119 216.9,117.3 219,116.3 219,117.7 		"/>
		<polyline class="st1" points="218.5,119.8 218.5,118.2 220.6,117.1 220.6,118.5 		"/>
		<polyline class="st1" points="220,120.7 220,119 222.1,118 222.1,119.4 		"/>
		<polyline class="st1" points="221.5,121.5 221.5,119.9 223.6,118.8 223.6,120.3 		"/>
		<polyline class="st1" points="223.1,124.3 223.1,120.7 225.2,119.7 225.2,123.1 		"/>
	</g>
	<g>
		<polyline class="st1" points="218.2,116.7 218.2,115.1 220.3,114.1 220.3,115.4 		"/>
		<polyline class="st1" points="219.7,117.6 219.7,115.9 221.8,114.9 221.8,116.3 		"/>
		<polyline class="st1" points="221.2,118.4 221.2,116.8 223.3,115.8 223.3,117.1 		"/>
		<polyline class="st1" points="222.8,119.3 222.8,117.6 224.9,116.6 224.9,118 		"/>
		<polyline class="st1" points="224.3,120.1 224.3,118.5 226.4,117.4 226.4,118.9 		"/>
		<polyline class="st1" points="225.9,123 225.9,119.3 228,118.3 228,121.7 		"/>
	</g>
	<g>
		<polyline class="st1" points="220.9,115.3 220.9,113.7 223,112.7 223,114 		"/>
		<polyline class="st1" points="222.5,116.2 222.5,114.5 224.6,113.5 224.6,114.9 		"/>
		<polyline class="st1" points="224,117 224,115.4 226.1,114.4 226.1,115.7 		"/>
		<polyline class="st1" points="225.6,117.9 225.6,116.2 227.7,115.2 227.7,116.6 		"/>
		<polyline class="st1" points="227.1,118.8 227.1,117.1 229.2,116.1 229.2,117.5 		"/>
		<polyline class="st1" points="228.6,121.6 228.6,117.9 230.7,116.9 230.7,120.3 		"/>
	</g>
	<g>
		<polyline class="st1" points="223.7,114 223.7,112.3 225.8,111.3 225.8,112.6 		"/>
		<polyline class="st1" points="225.3,114.8 225.3,113.1 227.4,112.1 227.4,113.5 		"/>
		<polyline class="st1" points="226.8,115.7 226.8,114 228.9,113 228.9,114.3 		"/>
		<polyline class="st1" points="228.3,116.5 228.3,114.8 230.4,113.8 230.4,115.2 		"/>
		<polyline class="st1" points="229.9,117.4 229.9,115.7 232,114.7 232,116.1 		"/>
		<polyline class="st1" points="231.4,120.2 231.4,116.5 233.5,115.5 233.5,119 		"/>
	</g>
	<g>
		<polyline class="st1" points="240.5,105.5 240.5,103.8 242.6,102.8 242.6,104.2 		"/>
		<polyline class="st1" points="242.1,106.3 242.1,104.7 244.2,103.7 244.2,105 		"/>
		<polyline class="st1" points="243.6,107.2 243.6,105.5 245.7,104.5 245.7,105.9 		"/>
		<polyline class="st1" points="245.2,108 245.2,106.4 247.3,105.3 247.3,106.8 		"/>
		<polyline class="st1" points="246.7,108.2 246.7,107.2 248.8,106.2 248.8,107.3 		"/>
	</g>
	<g>
		<polyline class="st1" points="230.8,111.9 230.8,110.4 232.9,109.4 232.9,110.8 		"/>
		<polyline class="st1" points="232.3,112.8 232.3,111.3 234.4,110.3 234.4,111.7 		"/>
		<polyline class="st1" points="233.9,113.6 233.9,112.1 236,111.1 236,112.6 		"/>
		<polyline class="st1" points="235.4,114.5 235.4,113 237.5,112 237.5,113.1 		"/>
	</g>
	<g>
		<polyline class="st1" points="233.6,110.4 233.6,109 235.7,108 235.7,109.3 		"/>
		<polyline class="st1" points="235.2,111.4 235.2,109.8 237.3,108.8 237.3,110.2 		"/>
		<polyline class="st1" points="236.7,112.2 236.7,110.7 238.8,109.7 238.8,111.1 		"/>
		<polyline class="st1" points="238.3,112.8 238.3,111.5 240.4,110.5 240.4,111.7 		"/>
	</g>
	<g>
		<polyline class="st1" points="236.5,109 236.5,107.6 238.6,106.5 238.6,107.9 		"/>
		<polyline class="st1" points="238,109.9 238,108.4 240.1,107.4 240.1,108.8 		"/>
		<polyline class="st1" points="239.5,110.7 239.5,109.3 241.7,108.2 241.7,109.7 		"/>
		<polyline class="st1" points="241.1,111.3 241.1,110.1 243.2,109.1 243.2,110.3 		"/>
	</g>
	<g>
		<polyline class="st1" points="239.3,107.6 239.3,106.1 241.4,105.1 241.4,106.5 		"/>
		<polyline class="st1" points="240.8,108.5 240.8,107 243,106 243,107.4 		"/>
		<polyline class="st1" points="242.4,109.3 242.4,107.8 244.5,106.8 244.5,108.2 		"/>
		<polyline class="st1" points="243.9,109.9 243.9,108.7 246,107.6 246,108.8 		"/>
	</g>
	<g>
		<polyline class="st1" points="226.5,112.6 226.5,110.9 228.6,109.9 228.6,111.2 		"/>
		<polyline class="st1" points="228,113.4 228,111.7 230.1,110.7 230.2,112.1 		"/>
		<polyline class="st1" points="229.6,114.3 229.6,112.6 231.7,111.6 231.7,112.9 		"/>
		<polyline class="st1" points="231.1,115.1 231.1,113.4 233.2,112.4 233.2,113.8 		"/>
		<polyline class="st1" points="232.7,116 232.7,114.3 234.8,113.3 234.8,114.7 		"/>
		<polyline class="st1" points="234.2,117.6 234.2,115.1 236.3,114.1 		"/>
	</g>
	<polyline class="st1" points="199.7,136.1 196,134.3 198,133.3 198.5,133.6 201.8,131.9 	"/>
	<line class="st1" x1="202.2" y1="134.9" x2="199.2" y2="133.3"/>
	<polyline class="st1" points="200.2,132.7 200.2,130.5 205.7,133.2 	"/>
	<ellipse transform="matrix(0.2857 -0.9583 0.9583 0.2857 25.7464 328.1765)" class="st1" cx="233" cy="146.8" rx="1.9" ry="1.4"/>
	
		<ellipse transform="matrix(0.2857 -0.9583 0.9583 0.2857 51.8004 341.0509)" class="st1" cx="254.7" cy="135.8" rx="1.9" ry="1.4"/>
	<path class="st5" d="M272.2,105.7c0.2-0.8,0.8-1.5,1.7-1.7c1.2-0.2,2.3,0.5,2.6,1.6c0.2,0.8-0.1,1.5-0.7,2"/>
	<path class="st5" d="M270.6,104.7c0.2-0.8,0.8-1.5,1.7-1.7c0.8-0.2,1.7,0.1,2.1,0.7"/>
	<path class="st5" d="M268.9,103.7c0.2-0.8,0.8-1.5,1.7-1.7c0.8-0.2,1.7,0.1,2.1,0.7"/>
	<path class="st5" d="M267.1,102.8c0.2-0.8,0.8-1.5,1.7-1.7c0.8-0.2,1.7,0.1,2.1,0.7"/>
	<line class="st5" x1="258.8" y1="102.4" x2="258.8" y2="105.1"/>
	<line class="st5" x1="260.1" y1="102.2" x2="260.1" y2="104.4"/>
	<path class="st6" d="M170.3,89.1c-2.2-0.8-3-4.2-1.7-7.5c1.2-3.3,4-5.3,6.2-4.5c2.2,0.8,3,4.2,1.7,7.5c-0.2,0.5-0.4,1-0.7,1.4"/>
	<path class="st6" d="M168.1,79.7c1.3-2.3,3.5-3.7,5.3-3.2l1.4,0.6"/>
	<path class="st6" d="M169.2,88.6"/>
	<path class="st7" d="M173.3,76.4l0.9-0.5c0,0,3.4,0.7,3.7,4.8v4.7"/>
	<path class="st7" d="M164.4,87.3c0,0-0.3-6.4,1.9-7.4l1.3,0.6c0,0,0.4,0.7,0,1.7c-0.4,1-0.5,5.6-0.4,6.4"/>
	<path class="st7" d="M166.4,79.8l0.6-0.3l1.3,0.6c0,0,0.3,0.5,0.2,1.2c-0.1,0.7-1.5,6,0.7,7.3"/>
	<polyline class="st7" points="175.7,86.9 175.6,85.6 175,85.4 170.3,87.7 171,87.9 171,88.9 	"/>
	<g>
		<line class="st8" x1="172.8" y1="81" x2="172.9" y2="83.7"/>
		<line class="st8" x1="171.6" y1="82.9" x2="174.1" y2="81.9"/>
	</g>
	<ellipse transform="matrix(0.9011 -0.4336 0.4336 0.9011 -18.525 100.7865)" class="st8" cx="211.7" cy="91" rx="1.4" ry="1.9"/>
	<text transform="matrix(0.7325 -0.3565 6.281000e-02 0.998 237.7307 137.1749)" class="st9 st10 st11">PUSH</text>
</g>
<polygon class="st12" points="69.1,152.8 112.7,151.1 140.3,160.1 163.1,170.3 159.1,172.2 157.9,173.4 150.8,176.7 103.8,188.4 
	102.6,173.6 66.1,157.1 "/>
<polygon class="st12" points="115.1,148.2 115.4,38.8 161.1,60.6 208.6,40 208,144.5 189.2,156 159,139.9 151.4,142.2 149.8,140.1 
	138.6,146.1 136.4,160.1 125.4,158.8 "/>
<g>
	<path class="st13" d="M47.9,159.6l3.2-1.6l2.5,1.3l0.6,0.1l36.4,17.6l0.5,1.1l3.7-1.8l0.4,1.2l-1.1,0.5c0,0-1.6,0.9-1.1,2.5
		c0,0,0.8,1,1.8-0.3l0.4,0.3l0.2,0.9l-6.5,3.6h-0.5l-0.1,7.9c0,0,0,1.3-1.6,0.6c-1.6-0.8-38.3-19.1-38.3-19.1s-0.7-0.6-0.6-2.1
		c0.1-1.5-0.1-12.1-0.1-12.1L47.9,159.6z"/>
	<g class="st14">
		<path class="st15" d="M48,162.2c0-1.7,1.1-1.1,1.1-1.1l2.6,1.2c-0.1-0.9,0.5-0.7,0.5-0.7s32.6,16.3,34.3,17.1
			c1.7,0.8,1.3,1.8,1.3,1.8s0,10.7,0,12.2s-1.6,0.6-1.6,0.6s-36.6-18.2-37.4-18.7c-0.8-0.4-0.8-1.3-0.8-1.3v-13.1c0,0-0.1-0.6,0.7-1
			c0.8-0.4,2.1-1,2.1-1s0.5-0.3,1,0c0.5,0.2,2.1,1.2,2.1,1.2"/>
		<line class="st15" x1="48.3" y1="159.6" x2="51.4" y2="161.1"/>
		<path class="st15" d="M51.5,161.7c0,0-0.1-0.8,0.6-1.2c0,0,0.1,0,0.1-0.1c0.8-0.4,2.1-0.9,2.1-0.9l36.2,17.7c0,0,0.3,0.2,0.4,0.8"
			/>
		<line class="st15" x1="52.1" y1="160.7" x2="88" y2="178.6"/>
		<path class="st15" d="M86.4,193.5l1.2,0.6c0,0,0.7,0,0.7-1.1c0-1.1,0-7.8,0-7.8"/>
		<path class="st15" d="M87.6,179.6c0,0,0.1-0.9,0.7-1.2s2.3-1.1,2.3-1.1"/>
		<path class="st15" d="M87.8,179c0.4,0.4,1.1,0.2,1.1,0.2l5.8-2.9l0.5,0.1v0.9c0,0,0.3,0.3-0.5,0.6c0,0-1.8,0.1-1.8,2.6
			c0,0,0.5,1.6,1.9,0l0.5,0.1l0.1,0.8c0,0,0.1,0.4-0.6,0.8c-0.7,0.4-5.9,3-5.9,3s-0.8,0-1.1-0.2"/>
		<line class="st15" x1="88.7" y1="184.8" x2="88.7" y2="179.3"/>
		<ellipse transform="matrix(0.5 -0.866 0.866 0.5 -111.0154 168.7019)" class="st16" cx="90.6" cy="180.5" rx="1.5" ry="0.9"/>
		<ellipse class="st17" cx="54.7" cy="160.8" rx="0.9" ry="0.4"/>
		<ellipse class="st17" cx="87.8" cy="177.2" rx="0.9" ry="0.4"/>
		<polygon class="st18" points="74.5,186.7 67.6,183.2 67.6,177.2 74.5,180.6 		"/>
		<polygon class="st18" points="57.1,176 50.2,172.5 50.2,168 57.1,171.5 		"/>
		<polygon class="st18" points="65.2,180.3 59.7,177.6 59.7,173.3 65.2,176.1 		"/>
		<path class="st18" d="M76,182.4c0-0.9,0.4-0.7,0.4-0.7l6,3c0,0,0.7,0.3,0.7,1.1c0,0.8,0,4.4,0,4.4s0.2,0.9-0.7,0.5c-1-0.5-6-3-6-3
			c-0.1,0-0.2-0.1-0.2-0.2c-0.1-0.1-0.1-0.2-0.1-0.3L76,182.4z"/>
		<path class="st15" d="M62.2,167.9l20.5,10.2c0,0,0.7,0.4,0.7,1s0,3.4,0,3.4s0.1,0.9-0.6,0.6s-20.4-10.2-20.4-10.2
			s-0.7-0.5-0.8-1.3c-0.1-1.2,0-3.3,0-3.3S61.7,167.7,62.2,167.9z"/>
	</g>
</g>
<g>
	<g>
		<path class="st13" d="M116.4,36.1l18.6-9.2l0.1-3.7l1.4-0.5l-0.4-1.5l-1-1l0.3-1.2c0,0,1.4-1,2.3-1c0.9,0,2.6,0.1,2.6,1
			s0.2,1.6,0.2,1.6l-1,0.7V23c0,0,1.4,0.5,1.2,1.2l-0.1,1.9l1.4,1.1h4.1l-1.9-1.3v-1l2.8-1.4c0,0-1.5-2.3-0.3-2.6
			c1.3-0.4,2.7-0.6,3.1,0l0.9,1.4l0.3-4.6l1.8-0.7l0.2,2.1l1.2-0.5l0.1-2.3l1.8-1.2v1.4l1.6-0.4l-0.3-1.6l2.2-0.9v1.9l0.6-0.1
			l0.1-2.1l2.1-1.4l0.3,2l1.3-0.5l-0.2-2l2-1.2l0.1,1.1l15.6-7.9l23.8,12l0.1,1.2l-18.1,9.6l12.1,6c0,0,0.6-1.4,2-1.3l-0.6-1.3
			c0,0-2.2-2.4,0.5-3.3c0,0,2.4-0.2,2.7,0.5c0.3,0.6,1.6,0.6,0.5,2.3l-0.8,0.7l0.3,1.2c0,0,1,0.1,1,0.9v3.3l3.2,1.4l0.3,1.5
			l-6.9,3.4l-8.6-4.2l-8.6,4.5l-0.4,3.6l-3.1,1.8l2.6,1.8v1.3l-19.4,10.1l-4.1-2l-2.2,0.7l-26.5-13.2l-0.4-1.1l-14.6-7.4L116.4,36.1
			z"/>
		<g class="st14">
			<polyline class="st1" points="205,35.3 208.1,36.8 201.1,40.4 193,36.3 184,40.9 183.9,44.4 180.7,45.9 			"/>
			<polyline class="st1" points="202.1,13.8 205.2,15.4 185.4,25.4 199.3,32.4 			"/>
			<polyline class="st1" points="165.9,11.2 181.7,3.5 196.3,10.9 			"/>
			<polyline class="st1" points="130.7,43.6 116.5,36.4 135.2,26.8 			"/>
			<polyline class="st1" points="208.1,36.9 208.1,38.2 201.1,41.8 193,37.7 184,42.3 183.9,45.8 180.7,47.3 			"/>
			<polyline class="st1" points="205.2,15.4 205.2,16.8 186.8,26.2 			"/>
			<polyline class="st1" points="160.2,58.8 163.9,60.5 183.5,50.5 183.5,49.3 			"/>
			<polyline class="st1" points="130.7,45 116.5,37.8 116.5,36.3 			"/>
			<line class="st1" x1="163.9" y1="59.1" x2="163.9" y2="60.5"/>
			<line class="st1" x1="193" y1="36.3" x2="193" y2="37.7"/>
			<line class="st1" x1="201.1" y1="40.4" x2="201.1" y2="41.8"/>
			<polyline class="st1" points="140.5,26.2 142,27.1 145.9,27.1 			"/>
			<polyline class="st1" points="146.5,23.5 144,24.8 144,25.9 152.2,30 			"/>
			<path class="st1" d="M130.8,40.9L131,46l26.7,13.4c0,0,1.7,0.1,3.3-1.6l2.9,1.3l19.6-10l-2.9-1.4l-0.1-5l-26.8-13.4l-17.7,9
				l-0.6-0.1l-1.5,0.7l-1.1,0.2l-2.1,1.5l27,13.4l22.3-11"/>
			<line class="st1" x1="180.6" y1="47.9" x2="161" y2="57.8"/>
			<line class="st1" x1="160.5" y1="52.7" x2="160.6" y2="58"/>
			<line class="st1" x1="157.8" y1="54" x2="157.7" y2="59.4"/>
			<polyline class="st1" points="151,50.6 151,56 156.2,53.3 			"/>
			<polyline class="st1" points="144.3,47.4 144.3,52.4 149.5,50 			"/>
			<polyline class="st1" points="137.6,44 137.6,49 142.7,46.6 			"/>
			<line class="st1" x1="131" y1="46" x2="136.2" y2="43.3"/>
			<g>
				<ellipse class="st19" cx="137.8" cy="19.3" rx="2.6" ry="1.3"/>
				<path class="st3" d="M139.6,23.2c0.1,0.1,0.2,0.2,0.2,0.4c0,0.5-0.9,0.9-1.9,0.9s-1.9-0.4-1.9-0.9c0-0.1,0.1-0.3,0.2-0.4"/>
				<path class="st20" d="M139.4,21.6c-0.1,0.4-0.8,0.7-1.8,0.6c-0.9-0.1-1.6-0.6-1.5-1"/>
				<path class="st20" d="M139.2,22c0.2,0.2,0.2,0.3,0.2,0.5c-0.1,0.4-0.8,0.7-1.8,0.6c-0.9-0.1-1.6-0.6-1.5-1
					c0-0.1,0.1-0.2,0.2-0.3"/>
				<path class="st19" d="M139.4,22.7c0.6,0.2,1,0.6,1,1c0,0.7-1.2,1.3-2.6,1.3c-1.4,0-2.6-0.6-2.6-1.3c0-0.5,0.5-0.9,1.2-1.1"/>
				<path class="st19" d="M135.2,19.3v0.9c0,0.7,1.2,1.3,2.6,1.3c1.4,0,2.6-0.6,2.6-1.3v-0.9"/>
				<path class="st19" d="M135.2,23.5v4.7c0,0.7,1.2,1.3,2.6,1.3c1.4,0,2.6-0.6,2.6-1.3v-4.7"/>
				<path class="st20" d="M139.2,22.9c0.2,0.2,0.2,0.3,0.2,0.5c-0.1,0.4-0.8,0.7-1.8,0.6c-0.9-0.1-1.6-0.6-1.5-1
					c0-0.1,0.1-0.3,0.3-0.4"/>
				<line class="st3" x1="136.5" y1="19.8" x2="138.8" y2="18.6"/>
				<line class="st3" x1="138.6" y1="19.5" x2="137" y2="18.7"/>
			</g>
			<g>
				<ellipse class="st19" cx="199.2" cy="6.4" rx="2.6" ry="1.3"/>
				<path class="st3" d="M201,10.2c0.1,0.1,0.2,0.2,0.2,0.4c0,0.5-0.9,0.9-1.9,0.9c-1.1,0-1.9-0.4-1.9-0.9c0-0.1,0.1-0.3,0.2-0.4"/>
				<path class="st20" d="M200.9,8.7c-0.1,0.4-0.8,0.7-1.8,0.6c-0.9-0.1-1.6-0.6-1.5-1"/>
				<path class="st20" d="M200.6,9.1c0.2,0.2,0.2,0.3,0.2,0.5c-0.1,0.4-0.8,0.7-1.8,0.6c-0.9-0.1-1.6-0.6-1.5-1
					c0-0.1,0.1-0.2,0.2-0.3"/>
				<path class="st19" d="M200.8,9.8c0.6,0.2,1,0.6,1,1c0,0.7-1.2,1.3-2.6,1.3c-1.4,0-2.6-0.6-2.6-1.3c0-0.5,0.5-0.9,1.2-1.1"/>
				<path class="st19" d="M196.6,6.4v0.9c0,0.7,1.2,1.3,2.6,1.3c1.4,0,2.6-0.6,2.6-1.3V6.4"/>
				<path class="st19" d="M196.6,10.6v4.7c0,0.7,1.2,1.3,2.6,1.3c1.4,0,2.6-0.6,2.6-1.3v-4.7"/>
				<path class="st20" d="M200.6,10c0.2,0.2,0.2,0.3,0.2,0.5c-0.1,0.4-0.8,0.7-1.8,0.6c-0.9-0.1-1.6-0.6-1.5-1
					c0-0.1,0.1-0.3,0.3-0.4"/>
				<line class="st3" x1="197.9" y1="6.8" x2="200.2" y2="5.7"/>
				<line class="st3" x1="200" y1="6.6" x2="198.4" y2="5.8"/>
			</g>
			<g>
				<ellipse class="st19" cx="202.1" cy="27.6" rx="2.6" ry="1.3"/>
				<path class="st3" d="M203.9,31.4c0.1,0.1,0.2,0.2,0.2,0.4c0,0.5-0.9,0.9-1.9,0.9c-1.1,0-1.9-0.4-1.9-0.9c0-0.1,0.1-0.3,0.2-0.4"
					/>
				<path class="st20" d="M203.8,29.9c-0.1,0.4-0.8,0.7-1.8,0.6c-0.9-0.1-1.6-0.6-1.5-1"/>
				<path class="st20" d="M203.6,30.3c0.2,0.2,0.2,0.3,0.2,0.5c-0.1,0.4-0.8,0.7-1.8,0.6s-1.6-0.6-1.5-1c0-0.1,0.1-0.2,0.2-0.3"/>
				<path class="st19" d="M203.7,31c0.6,0.2,1,0.6,1,1c0,0.7-1.2,1.3-2.6,1.3c-1.4,0-2.6-0.6-2.6-1.3c0-0.5,0.5-0.9,1.2-1.1"/>
				<path class="st19" d="M199.5,27.6v0.9c0,0.7,1.2,1.3,2.6,1.3c1.4,0,2.6-0.6,2.6-1.3v-0.9"/>
				<path class="st19" d="M199.5,31.8v4.7c0,0.7,1.2,1.3,2.6,1.3c1.4,0,2.6-0.6,2.6-1.3v-4.7"/>
				<path class="st20" d="M203.6,31.2c0.2,0.2,0.2,0.3,0.2,0.5c-0.1,0.4-0.8,0.7-1.8,0.6s-1.6-0.6-1.5-1c0-0.1,0.1-0.3,0.3-0.4"/>
				<line class="st3" x1="200.8" y1="28" x2="203.1" y2="26.9"/>
				<line class="st3" x1="202.9" y1="27.8" x2="201.3" y2="27"/>
			</g>
			<g>
				<polyline class="st21" points="165.8,33.6 165.8,29.6 163.5,30.7 163.5,34.2 				"/>
				<polyline class="st21" points="169,32 169,28 166.8,29.1 166.8,32.7 167.3,32.9 166.1,33.5 				"/>
				<polyline class="st21" points="172.2,30.4 172.2,26.4 169.9,27.5 169.9,31.1 170.4,31.3 169.3,31.9 				"/>
				<polyline class="st21" points="175.4,28.8 175.4,24.8 173.1,25.9 173.1,29.5 173.6,29.7 172.4,30.3 				"/>
				<polyline class="st21" points="175.6,28.8 176.8,28.2 176.3,28 176.3,24.4 178.6,23.3 178.6,27.3 184.7,24.3 182.8,23.3 				"/>
			</g>
			<g>
				<polyline class="st21" points="163.6,30.6 163.6,28.6 161.4,29.7 161.4,33 				"/>
				<polyline class="st21" points="166.9,29 166.9,27 164.6,28.1 164.6,30.1 				"/>
				<polyline class="st21" points="170,27.4 170,25.4 167.8,26.5 167.8,28.6 				"/>
				<polyline class="st21" points="173.2,25.9 173.2,23.8 171,24.9 171,26.9 				"/>
				<polyline class="st21" points="176.4,24.3 176.4,22.3 174.2,23.4 174.2,25.4 				"/>
			</g>
			<g>
				<polyline class="st21" points="161.4,29.5 161.4,27.5 159.2,28.6 159.2,31.8 				"/>
				<polyline class="st21" points="164.7,27.9 164.7,25.9 162.4,27 162.4,29 				"/>
				<polyline class="st21" points="167.8,26.3 167.8,24.3 165.6,25.4 165.6,27.5 				"/>
				<polyline class="st21" points="171,24.7 171,22.7 168.8,23.8 168.8,25.8 				"/>
				<polyline class="st21" points="174.2,23.2 174.2,21.2 171.9,22.3 171.9,24.2 				"/>
				<polyline class="st21" points="177.3,23.8 177.2,19.6 175,20.7 175,22.7 				"/>
				<polyline class="st21" points="180.4,20.1 180.4,18.1 178.2,19.2 178.2,23.4 				"/>
			</g>
			<g>
				<polyline class="st21" points="159.4,28.4 159.4,26.3 157.1,27.4 157.1,30.7 				"/>
				<polyline class="st21" points="162.6,26.8 162.6,24.8 160.4,25.8 160.4,27.9 				"/>
				<polyline class="st21" points="165.8,25.2 165.8,23.2 163.5,24.2 163.5,26.3 				"/>
				<polyline class="st21" points="169,23.6 169,21.6 166.7,22.6 166.7,24.7 				"/>
				<polyline class="st21" points="172.2,22 172.2,20 169.9,21.1 169.9,23.1 				"/>
				<polyline class="st21" points="175.2,22.7 175.2,18.5 172.9,19.6 172.9,21.6 				"/>
				<polyline class="st21" points="178.4,18.9 178.4,17 176.1,18 176.1,20.2 				"/>
			</g>
			<g>
				<polyline class="st21" points="157.3,27.2 157.3,25.2 155,26.2 155,29.7 				"/>
				<polyline class="st21" points="160.5,25.6 160.5,23.6 158.3,24.6 158.3,26.7 				"/>
				<polyline class="st21" points="163.7,24 163.7,22 161.4,23 161.4,25.2 				"/>
				<polyline class="st21" points="166.9,22.4 166.9,20.4 164.6,21.4 164.6,23.5 				"/>
				<polyline class="st21" points="170.1,20.8 170.1,18.8 167.8,19.9 167.8,21.9 				"/>
				<polyline class="st21" points="173.1,21.5 173.1,17.3 170.9,18.4 170.9,20.4 				"/>
				<polyline class="st21" points="176.3,17.8 176.3,15.8 174,16.8 174,19.1 				"/>
			</g>
			<g>
				<polyline class="st21" points="155.1,26.1 155.1,24 152.8,25.1 152.8,29 151.4,28.3 				"/>
				<polyline class="st21" points="158.4,24.5 158.3,22.4 156.1,23.5 156.1,25.6 				"/>
				<polyline class="st21" points="161.5,22.8 161.5,20.8 159.2,21.9 159.2,24 				"/>
				<polyline class="st21" points="164.7,21.3 164.7,19.2 162.4,20.3 162.4,22.4 				"/>
				<polyline class="st21" points="167.9,19.7 167.9,17.7 165.6,18.8 165.6,20.8 				"/>
				<polyline class="st21" points="170.9,20.4 170.9,16.2 168.7,17.3 168.7,19.3 				"/>
				<polyline class="st21" points="174.1,16.6 174.1,14.6 171.8,15.7 171.8,17.8 				"/>
			</g>
			<g>
				<polyline class="st21" points="152.9,25.1 152.9,23.1 150.6,24.2 150.6,27.9 149.2,27.2 				"/>
				<polyline class="st21" points="156.1,23.5 156.1,21.5 153.9,22.6 153.9,24.6 				"/>
				<polyline class="st21" points="159.3,21.9 159.3,19.9 157,21 157,23.1 				"/>
				<polyline class="st21" points="162.5,20.4 162.5,18.3 160.2,19.4 160.2,21.5 				"/>
				<polyline class="st21" points="165.7,18.8 165.7,16.8 163.4,17.9 163.4,19.9 				"/>
				<polyline class="st21" points="168.7,19.5 168.7,15.3 166.5,16.4 166.5,18.3 				"/>
				<polyline class="st21" points="171.9,15.7 171.9,13.7 169.6,14.8 169.6,16.7 				"/>
			</g>
			<g>
				<polyline class="st21" points="150.8,24 150.8,22 148.6,23.1 148.5,26.8 144.4,24.9 				"/>
				<polyline class="st21" points="154.1,22.4 154.1,20.4 151.8,21.5 151.8,23.5 				"/>
				<polyline class="st21" points="157.2,20.8 157.2,18.8 155,19.9 155,22 				"/>
				<polyline class="st21" points="160.4,19.3 160.4,17.2 158.2,18.3 158.2,20.3 				"/>
				<polyline class="st21" points="163.6,17.7 163.6,15.7 161.4,16.8 161.4,18.8 				"/>
				<polyline class="st21" points="166.7,18.3 166.6,14.2 164.4,15.3 164.4,17.2 				"/>
				<polyline class="st21" points="169.8,14.6 169.8,12.6 167.6,13.7 167.6,15.8 				"/>
			</g>
			<g>
				<polyline class="st21" points="155,19.8 155,17.8 152.8,18.9 152.8,21 				"/>
				<polyline class="st21" points="158.2,18.2 158.2,16.2 156,17.3 156,19.3 				"/>
				<polyline class="st21" points="161.4,16.6 161.4,14.7 159.2,15.7 159.2,17.7 				"/>
				<polyline class="st21" points="164.5,17.3 164.5,13.1 162.2,14.2 162.2,16.2 				"/>
				<polyline class="st21" points="167.6,13.6 167.6,11.6 165.4,12.7 165.4,14.7 				"/>
			</g>
			<g>
				<polyline class="st21" points="153,18.6 153,16.6 150.7,17.7 150.7,21.7 				"/>
				<polyline class="st21" points="156.2,17 156.2,15 153.9,16.1 153.9,18.1 				"/>
				<polyline class="st21" points="159.4,15.5 159.3,13.5 157.1,14.6 157.1,16.5 				"/>
				<polyline class="st21" points="162.4,16.1 162.4,11.9 160.1,13 160.1,15 				"/>
				<polyline class="st21" points="165.6,12.4 165.6,10.4 163.3,11.5 163.3,13.5 				"/>
			</g>
			<polyline class="st21" points="165.4,35.2 184.8,25.4 184.8,24.3 			"/>
			<g>
				<ellipse class="st22" cx="181.2" cy="21.4" rx="2.2" ry="1.1"/>
				<path class="st23" d="M182.7,24.5c0.1,0.1,0.1,0.2,0.1,0.3c0,0.4-0.7,0.8-1.6,0.8c-0.9,0-1.6-0.3-1.6-0.8c0-0.1,0-0.2,0.1-0.3"
					/>
				<path class="st24" d="M182.5,23.3c-0.1,0.4-0.7,0.6-1.4,0.5c-0.7-0.1-1.3-0.5-1.2-0.9"/>
				<path class="st24" d="M182.4,23.6c0.1,0.1,0.2,0.3,0.2,0.4c-0.1,0.4-0.7,0.6-1.4,0.5c-0.7-0.1-1.3-0.5-1.2-0.9
					c0-0.1,0.1-0.2,0.1-0.2"/>
				<path class="st22" d="M179.1,21.4v0.8c0,0.6,1,1.1,2.2,1.1c1.2,0,2.2-0.5,2.2-1.1v-0.8"/>
				<path class="st24" d="M182.4,24.3c0.1,0.1,0.2,0.3,0.2,0.4c-0.1,0.4-0.7,0.6-1.4,0.5c-0.7-0.1-1.3-0.5-1.2-0.9
					c0-0.1,0.1-0.2,0.2-0.3"/>
				<line class="st23" x1="180.1" y1="21.7" x2="182" y2="20.8"/>
				<line class="st23" x1="181.8" y1="21.5" x2="180.5" y2="20.9"/>
			</g>
			<g>
				<ellipse class="st25" cx="148.1" cy="21.6" rx="2" ry="1"/>
				<path class="st26" d="M148.5,25.5c-0.1,0-0.3,0-0.5,0c-0.8,0-1.5-0.3-1.5-0.7c0-0.1,0-0.2,0.1-0.3"/>
				<path class="st27" d="M148.6,23.8c-0.2,0-0.4,0-0.6,0c-0.7-0.1-1.2-0.5-1.2-0.8"/>
				<path class="st27" d="M148.5,24.5c-0.2,0-0.3,0-0.5,0c-0.7-0.1-1.2-0.5-1.2-0.8c0-0.1,0.1-0.2,0.1-0.2"/>
				<path class="st25" d="M146.1,21.6v0.7c0,0.5,0.9,1,2,1"/>
				<path class="st27" d="M148.5,25.2c-0.2,0-0.3,0-0.5,0c-0.7-0.1-1.2-0.5-1.2-0.8c0-0.1,0.1-0.2,0.2-0.3"/>
				<line class="st26" x1="147.1" y1="21.9" x2="148.8" y2="21"/>
				<line class="st26" x1="148.7" y1="21.7" x2="147.4" y2="21.1"/>
			</g>
			<g>
				<path class="st28" d="M150.4,18.1C150.4,18.1,150.4,18.1,150.4,18.1c0-0.1,0-0.1,0.1-0.1"/>
				<path class="st29" d="M182.1,3.8c-0.1-0.1-0.3-0.1-0.5-0.1c-0.2,0-0.3,0-0.5,0.1"/>
			</g>
		</g>
	</g>
	<line class="st30" x1="115.5" y1="41.2" x2="115.5" y2="150"/>
	<line class="st30" x1="208.4" y1="40.7" x2="208.4" y2="142.7"/>
	<line class="st31" x1="115.5" y1="41.2" x2="115.5" y2="150"/>
	<line class="st31" x1="208.4" y1="40.7" x2="208.4" y2="142.7"/>
</g>
<g>
	<line class="st30" x1="61.5" y1="159.9" x2="110.2" y2="151.7"/>
	<line class="st31" x1="61.5" y1="159.9" x2="110.2" y2="151.7"/>
</g>
<line class="st30" x1="91.6" y1="187" x2="147.1" y2="176"/>
<line class="st31" x1="91.6" y1="187" x2="147.1" y2="176"/>
<g>
	<g>
		<polyline class="st32" points="176.9,212.7 180.8,214.7 182.3,213.8 183.6,214.5 203.4,204.7 		"/>
		<polyline class="st32" points="180.8,214.7 180.8,216 183.9,217.3 		"/>
		<polyline class="st32" points="204.9,205.3 202.3,203.8 203.9,203 199.7,201 176.4,212.6 176.4,220.9 184.1,224.7 184.2,215.6 
			207.3,204.2 207.2,208.1 		"/>
		<path class="st32" d="M278.7,248.3"/>
		<path class="st32" d="M280.3,250.6"/>
		<g>
			<path class="st32" d="M277.1,257.7l0.1-2.2l-2.6-3.3l-1-0.6l0.2,0.8l0.9,0.6l0,1.2l-0.9,0.5l0,2.1c0,0,3,1.7,4.4,1.5"/>
			<polyline class="st32" points="277.2,255.7 280.6,257.6 281.2,257.3 285,255.3 288.8,253.6 289.6,254.5 289.6,256.2 281.9,260 
				276,257.3 			"/>
			<polyline class="st32" points="282.1,259.8 282.1,258.1 281.2,257.3 			"/>
			<line class="st32" x1="281" y1="259.7" x2="281.1" y2="257.4"/>
			<path class="st32" d="M288.1,253.9l-2.8-1.3c-0.8-0.5-2.1-0.1-2.1-0.1l-0.8,0.5"/>
			<polyline class="st32" points="277.2,255.5 278.5,254.9 279.7,255.1 			"/>
			<path class="st32" d="M279.9,255l-3.4-2.2l-2.9-1.8l-0.4-0.4c-0.9-1,0.8-1.7,0.8-1.7c1.6-0.8,3,0.1,3,0.1l2.9,1.7l1,1.1l2.2,1.6
				L279.9,255z"/>
			<polyline class="st32" points="277.3,253.1 277.3,252.6 276.8,250.8 277.9,250.2 279.9,251.3 280.7,251.6 			"/>
			<path class="st32" d="M288.1,262l0,1.4c-1.3,1.3-3.5,1.9-4.1,1.9c-0.6,0-2.6-0.5-2.6-0.5l-8.4-4.2l-1.2-1.6l0-2.4l1.7-1"/>
			<path class="st32" d="M280,259.1l-1.3,0.4c0,0-0.1,0.3-1,0c-0.9-0.2-2.6-0.9-2.6-0.9l0,1.6l7.4,3.6c0,0,2,0.9,4.4-0.4
				c0,0,1.7-1.1,0.8-1.9l-0.8-0.7l-3.4-1.6"/>
			<path class="st32" d="M273.1,260.6l0,2.8l-0.9,0.5c0,0-0.8,2.3,3.2,2.2l0.9-0.4l1.4-0.3l0.9-0.9l0-1"/>
			<polyline class="st32" points="273,263.4 276.2,264.8 276.3,265.7 			"/>
			<path class="st32" d="M272.2,263.9c0,0,1.1,2,4,0.9"/>
			<g>
				<ellipse class="st32" cx="284.2" cy="261" rx="1.6" ry="0.8"/>
				<path class="st32" d="M282.7,261v1.7c0,0.4,0.7,0.8,1.6,0.8c0.9,0,1.6-0.3,1.6-0.8V261"/>
			</g>
		</g>
		<line class="st32" x1="184.1" y1="224.7" x2="190.1" y2="221.9"/>
	</g>
	<polyline class="st32" points="189.9,219.3 185.7,221.5 185.8,218.1 205.9,208 205.9,209 	"/>
	<g>
		<g>
			<path class="st33" d="M273.2,242.1c0.6-0.5,1.4-0.9,2.3-1.2c1.7-0.4,3.3,0,3.9,0.9l9-4.5l0-4.4"/>
			<polyline class="st33" points="189.9,219.9 189.9,221.6 265.5,248.9 273,245.1 			"/>
			<line class="st34" x1="288.5" y1="235.7" x2="279.5" y2="240.2"/>
			<polyline class="st32" points="273.3,240.5 265.5,244.4 189.9,217.2 212.8,205.7 288.5,232.9 279.8,237.2 			"/>
			<path class="st34" d="M279.1,240.1c-0.8-0.3-1.7-0.3-2.8-0.1c-2,0.5-3.4,1.9-3.1,3.1l-0.2,0.4l-7.6,3.7l-75.6-27.3"/>
			<path class="st32" d="M279.5,241.8l0.2-4.5c-0.6-1-2.2-1.4-4-1c-2,0.5-3.4,1.9-3.1,3.1c0.1,0.4,0.3,0.7,0.7,1l-0.2,4.7"/>
		</g>
		<line class="st32" x1="189.9" y1="217.1" x2="189.9" y2="219.9"/>
	</g>
</g>
<g>
	<g>
		<g>
			<polygon class="st35" points="229.2,225 236.5,220.1 221.3,214.7 224.9,212.2 208.4,213.7 210.8,222.1 214.4,219.6 			"/>
		</g>
	</g>
	<g>
		<g>
			<polygon class="st35" points="237.8,220.6 230.5,225.5 245.7,231 242,233.4 258.5,231.9 256.2,223.5 252.6,226.1 			"/>
		</g>
	</g>
</g>
<g>
	<circle class="st36" cx="306.1" cy="253.4" r="11.2"/>
	<g>
		<text transform="matrix(1 0 0 1 302.0196 258.9185)" class="st13 st37 st38">1</text>
	</g>
</g>
<line class="st30" x1="186.5" y1="202.4" x2="175.7" y2="158.8"/>
<line class="st39" x1="186.5" y1="202.4" x2="175.7" y2="158.8"/>
<g>
	<circle class="st13" cx="312.9" cy="204.3" r="33.6"/>
	<g>
		<defs>
			<circle id="SVGID_1_" cx="312.9" cy="204.3" r="33.6"/>
		</defs>
		<clipPath id="SVGID_00000166654627484647343020000000679316678410420909_">
			<use xlink:href="#SVGID_1_"  style="overflow:visible;"/>
		</clipPath>
		<g style="clip-path:url(#SVGID_00000166654627484647343020000000679316678410420909_);">
			<polyline class="st1" points="197.3,166 201.9,168.2 203.7,167.2 205.3,168 228.9,156.3 			"/>
			<polyline class="st1" points="201.9,168.2 201.9,169.8 205.6,171.4 			"/>
			<polyline class="st1" points="230.7,157.1 227.5,155.3 229.4,154.3 224.5,151.9 196.7,165.7 196.7,175.6 205.8,180.2 206,169.3 
				233.5,155.7 233.4,160.4 			"/>
			<path class="st1" d="M318.7,208.3"/>
			<path class="st1" d="M320.5,211.1"/>
			<g>
				<path class="st1" d="M316.7,219.6l0.1-2.6l-3.1-3.9l-1.2-0.7l0.2,1l1,0.8l0,1.4l-1,0.6l0,2.5c0,0,3.5,2,5.2,1.7"/>
				<polyline class="st1" points="316.9,217.2 320.9,219.4 321.6,219 326.2,216.7 330.7,214.7 331.6,215.7 331.6,217.8 322.4,222.3 
					315.4,219.1 				"/>
				<polyline class="st1" points="322.7,222.1 322.7,220.1 321.6,219 				"/>
				<line class="st1" x1="321.4" y1="221.9" x2="321.4" y2="219.2"/>
				<path class="st1" d="M329.9,215l-3.3-1.5c-1-0.6-2.5-0.1-2.5-0.1l-1,0.6"/>
				<polyline class="st1" points="316.9,216.9 318.4,216.2 319.9,216.4 				"/>
				<path class="st1" d="M320,216.3l-4.1-2.6l-3.4-2.2l-0.4-0.5c-1.1-1.2,0.9-2.1,0.9-2.1c1.9-0.9,3.5,0.2,3.5,0.2l3.4,2.1l1.2,1.3
					l2.6,2L320,216.3z"/>
				<polyline class="st1" points="317,214.1 317,213.5 316.3,211.4 317.7,210.6 320.1,211.9 321,212.3 				"/>
				<path class="st1" d="M329.8,224.7l0,1.6c-1.5,1.5-4.2,2.3-4.9,2.3s-3.1-0.6-3.1-0.6l-10-5l-1.4-1.9l0-2.8l2.1-1.1"/>
				<path class="st1" d="M320.1,221.3l-1.5,0.5c0,0-0.2,0.3-1.2,0c-1-0.2-3.1-1.1-3.1-1.1l0,1.8l8.8,4.3c0,0,2.4,1.1,5.2-0.5
					c0,0,2-1.3,1-2.2l-1-0.8l-4.1-1.9"/>
				<path class="st1" d="M311.9,223l0,3.4l-1,0.6c0,0-0.9,2.7,3.8,2.6l1.1-0.5l1.7-0.3l1.1-1.1l0-1.2"/>
				<polyline class="st1" points="311.9,226.4 315.6,228 315.7,229 				"/>
				<path class="st1" d="M310.8,226.9c0,0,1.3,2.4,4.8,1"/>
				<g>
					<ellipse class="st1" cx="325.2" cy="223.5" rx="1.9" ry="0.9"/>
					<path class="st1" d="M323.3,223.5v2.1c0,0.5,0.8,0.9,1.9,0.9s1.9-0.4,1.9-0.9v-2.1"/>
				</g>
			</g>
			<line class="st1" x1="205.8" y1="180.2" x2="213" y2="176.9"/>
		</g>
		<g style="clip-path:url(#SVGID_00000166654627484647343020000000679316678410420909_);">
			<g>
				<path class="st41" d="M312,201c0.7-0.6,1.6-1.1,2.8-1.4c2-0.5,3.9,0,4.7,1.1l10.8-5.4l0-5.3"/>
				<polyline class="st41" points="212.8,174.5 212.8,176.5 302.9,209 311.9,204.5 				"/>
				<line class="st42" x1="330.3" y1="193.3" x2="319.6" y2="198.7"/>
				<polyline class="st1" points="312.2,199 302.9,203.7 212.8,171.2 240.1,157.6 330.3,190 320,195.2 				"/>
				<path class="st42" d="M319.1,198.5c-0.9-0.3-2.1-0.4-3.3-0.1c-2.4,0.5-4.1,2.2-3.7,3.7l-0.2,0.4l-9.1,4.5l-90.1-32.5"/>
				<path class="st1" d="M319.6,200.6l0.2-5.4c-0.7-1.1-2.6-1.7-4.7-1.2c-2.4,0.5-4.1,2.2-3.7,3.7c0.1,0.5,0.4,0.9,0.8,1.2l-0.3,5.6
					"/>
			</g>
			<line class="st1" x1="212.8" y1="171.2" x2="212.7" y2="174.5"/>
		</g>
		<g style="clip-path:url(#SVGID_00000166654627484647343020000000679316678410420909_);">
			<g>
				<g>
					<g>
						<path class="st43" d="M316.4,190.9c0-4.4-2.7-8.2-6.5-9.7l3.5-1.6l-15.8-0.8l1.1,8.3l3.8-2c3.6,1.7,6.1,5.3,6.1,9.5
							L316.4,190.9z"/>
					</g>
				</g>
			</g>
			<g>
				<g>
					<g>
						<path class="st9" d="M316.4,190.9c0-4.4-2.7-8.2-6.5-9.7l3.5-1.6l-15.8-0.8l1.1,8.3l3.8-2c3.6,1.7,6.1,5.3,6.1,9.5"/>
					</g>
				</g>
			</g>
		</g>
	</g>
	<polygon class="st44" points="325.8,218.2 331.9,208.5 328.8,210.3 328.7,198.8 322.7,202.3 322.8,213.8 319.7,215.6 	"/>
	<circle class="st45" cx="312.9" cy="204.3" r="33.6"/>
</g>
<line class="st30" x1="285.6" y1="249.8" x2="300.7" y2="224.9"/>
<line class="st39" x1="285.6" y1="249.8" x2="300.7" y2="224.9"/>
</svg>
