<?xml version="1.0" encoding="utf-8"?>
<!-- Generator: Adobe Illustrator 26.0.3, SVG Export Plug-In . SVG Version: 6.00 Build 0)  -->
<svg version="1.1" id="BOOT_MEDIA" xmlns="http://www.w3.org/2000/svg" xmlns:xlink="http://www.w3.org/1999/xlink" x="0px" y="0px"
	 viewBox="0 0 306 234" style="enable-background:new 0 0 306 234;" xml:space="preserve">
<style type="text/css">
	.st0{fill:#D2D3D4;}
	.st1{fill:none;stroke:#231F20;stroke-width:0.5;stroke-linecap:round;stroke-linejoin:round;stroke-miterlimit:10;}
	.st2{clip-path:url(#SVGID_00000178163357479694512230000006175830501037112729_);}
	.st3{fill:none;stroke:#231F20;stroke-width:0.5;stroke-miterlimit:10;}
	.st4{fill:#231F20;stroke:#FFFFFF;stroke-width:1.5;stroke-miterlimit:10;}
	.st5{fill:#FFFFFF;}
	.st6{fill:#231F20;stroke:#FFFFFF;stroke-linecap:round;stroke-linejoin:round;stroke-miterlimit:10;}
	.st7{fill:#010101;}
	.st8{fill:none;stroke:#FFFFFF;stroke-width:2;stroke-linecap:round;stroke-linejoin:round;stroke-miterlimit:10;}
	
		.st9{fill:none;stroke:#231F20;stroke-width:0.5;stroke-linecap:round;stroke-linejoin:round;stroke-miterlimit:10;stroke-dasharray:2.0546;}
</style>
<path class="st0" d="M168.073,135.222l5.09-13.605l1.239,0.289l0.083-2.932c0,0-0.165-0.496-1.239-0.496h-0.372l-0.041-1.28
	l-0.578-0.124c0,0,0.083-1.445-1.074-1.487c-1.156-0.041-1.445,0.743-1.445,0.743l-0.454,1.404l-1.611-0.289
	c0,0-0.95-0.33-0.661,2.065l-0.124,0.743l-4.873,13.462l0.991,0.413l0.248,0.454l0.702-1.9l0.289,1.693l-0.206,0.372h1.239
	L168.073,135.222z"/>
<polyline class="st1" points="194.241,76.533 181.004,73.83 180.198,75.131 177.882,74.677 177.11,74.904 "/>
<line class="st1" x1="218.649" y1="81.516" x2="199.79" y2="77.666"/>
<line class="st1" x1="224.738" y1="82.759" x2="221.589" y2="82.116"/>
<line class="st1" x1="250.687" y1="88.056" x2="226.025" y2="83.022"/>
<line class="st1" x1="277.197" y1="93.469" x2="252.647" y2="88.457"/>
<line class="st1" x1="285.862" y1="95.238" x2="278.596" y2="93.754"/>
<polyline class="st1" points="289.08,105.146 290.013,97.566 290.899,96.266 288.637,95.804 "/>
<polyline class="st1" points="174.972,78.783 174.332,79.742 161.569,114.248 161.587,116.62 161.619,118.599 161.477,119.187 
	158.292,127.977 158.097,122.986 "/>
<polyline class="st1" points="161.601,112.964 161.958,109.837 175.002,75.978 "/>
<path class="st1" d="M174.972,78.783"/>
<path class="st1" d="M158.652,128.147"/>
<line class="st1" x1="156.186" y1="129.732" x2="157.888" y2="130.023"/>
<polyline class="st1" points="160.627,149.191 160.335,147.052 165.139,134.639 272.354,156.559 252.473,211.433 252.473,213.863 
	"/>
<path class="st1" d="M297.121,107.015l0.069-3.071c0,0-0.365-0.706-1.037-0.537l-0.227-9.387l-2.22,5.63l-0.051,1.108
	l-12.112,32.779c0,0-1.06,2.952-0.984,5.602c0.076,2.65,0.64,3.201,0.111,4.337c-0.53,1.136-3.448,8.337-3.448,8.337l-0.228-3.795
	c0,0-0.116-0.218-0.303-0.327c-0.264-0.155-0.668-0.092-1.08,1.115l-3.112,7.929"/>
<polyline class="st1" points="296.983,104.198 294.84,109.744 294.789,107.814 295.495,105.936 295.512,105.195 296.236,103.369 "/>
<polyline class="st1" points="293.729,99.004 292.906,98.848 291.838,101.363 291.548,103.171 "/>
<line class="st1" x1="292.533" y1="103.499" x2="291.512" y2="103.244"/>
<line class="st1" x1="254.398" y1="222.856" x2="297.062" y2="106.773"/>
<polygon class="st1" points="253.244,217.601 253.912,215.22 253.912,214.176 251.03,213.549 246.894,222.029 246.518,229.005 
	249.985,229.799 251.155,227.585 251.322,222.99 252.659,219.523 "/>
<line class="st1" x1="247.558" y1="223.728" x2="249.755" y2="224.164"/>
<line class="st1" x1="247.527" y1="224.491" x2="249.723" y2="224.927"/>
<line class="st1" x1="247.496" y1="225.254" x2="249.692" y2="225.69"/>
<line class="st1" x1="247.465" y1="226.017" x2="249.661" y2="226.454"/>
<line class="st1" x1="247.434" y1="226.781" x2="249.63" y2="227.217"/>
<line class="st1" x1="247.402" y1="227.544" x2="249.599" y2="227.98"/>
<line class="st1" x1="247.371" y1="228.307" x2="249.568" y2="228.743"/>
<path class="st1" d="M253.244,217.601c0,0,0.796-0.051,0.884,1.379s0.286,6.382,0.286,6.382l-2.223,5.854l-1.959-0.418l-0.022-1.276
	"/>
<g>
	<g id="SPLINE_00000120531315402509045530000009490754630484289445_">
		<path class="st1" d="M236.086,169.32c-0.232,0.062-0.473,0.097-0.714,0.104c-0.241,0.007-0.484-0.013-0.719-0.061
			c-0.294-0.06-0.582-0.165-0.841-0.318c-0.121-0.072-0.236-0.154-0.342-0.247c-0.1-0.088-0.192-0.186-0.271-0.293
			c-0.076-0.102-0.14-0.212-0.19-0.329c-0.048-0.112-0.083-0.231-0.102-0.351c-0.019-0.119-0.022-0.241-0.009-0.361
			c0.013-0.122,0.041-0.241,0.083-0.356c0.044-0.119,0.103-0.232,0.173-0.338c0.074-0.111,0.16-0.213,0.256-0.306
			c0.101-0.098,0.211-0.186,0.329-0.263c0.123-0.081,0.254-0.151,0.389-0.21c0.284-0.124,0.588-0.2,0.898-0.231
			c0.314-0.031,0.633-0.016,0.941,0.047c0.208,0.043,0.413,0.107,0.607,0.196c0.183,0.083,0.356,0.188,0.512,0.315
			c0.145,0.118,0.275,0.255,0.379,0.41c0.098,0.145,0.173,0.305,0.217,0.474c0.043,0.163,0.056,0.335,0.039,0.503
			c-0.018,0.171-0.067,0.339-0.142,0.494c-0.079,0.165-0.187,0.315-0.312,0.448c-0.135,0.143-0.292,0.266-0.459,0.368
			c-0.044,0.027-0.088,0.052-0.134,0.076c-0.041,0.022-0.083,0.043-0.126,0.062c-0.13,0.06-0.265,0.11-0.403,0.15
			C236.125,169.309,236.106,169.315,236.086,169.32z"/>
	</g>
	<g id="SPLINE_00000132076371734647536990000010428564701582502302_">
		<path class="st1" d="M230.86,171.027c0.325-0.271,0.717-0.448,0.818-0.499c0.1-0.05,0.204-0.093,0.311-0.128
			c0.372-0.115,0.761-0.182,1.152-0.201c0.392-0.019,0.787,0.01,1.171,0.089c0.37,0.076,0.731,0.197,1.068,0.369
			c0.313,0.16,0.605,0.364,0.853,0.611c0.068,0.071,0.131,0.148,0.188,0.229c0.059,0.085,0.111,0.175,0.156,0.268
			c0.018,0.038,0.031,0.079,0.036,0.121c0.006,0.043,0.005,0.088,0.001,0.131v2.112"/>
	</g>
	<path class="st1" d="M236.038,164.13c0.025-0.059,0.047-0.119,0.067-0.18c0.024-0.072,0.045-0.145,0.064-0.219
		c0.041-0.158,0.06-0.228,0.099-0.391c0,0,0.2,0.043,0.237,0.051l3.178,0.65c0.089,0.018,0.176,0.045,0.26,0.081
		c0.079,0.034,0.156,0.076,0.225,0.127c0.066,0.047,0.126,0.102,0.177,0.165c0.048,0.059,0.127,0.189,0.127,0.189l-3.35,9.075
		c-0.039,0.106-0.108,0.201-0.19,0.28c-0.048,0.046-0.1,0.087-0.155,0.122c-0.06,0.039-0.123,0.072-0.188,0.1
		c-0.141,0.06-0.291,0.097-0.444,0.112c-0.156,0.015-0.315,0.007-0.467-0.024l-0.296-0.075l-4.666-1.143l0.001,0l-0.025-0.009
		l-0.038-0.035l-0.024-0.053l-0.015-0.077l-0.006-0.069l0,0l0.045-1.812"/>
	<g id="LINE_00000132774237556418850920000016231359359849066377_">
		<path class="st1" d="M239.559,166.924l-0.063-1.184l-0.045-0.304l0,0.001l-0.008-0.037l-0.056-0.117l-0.098-0.097l-0.131-0.068
			l-0.084-0.024c0,0-5.726-1.171-5.726-1.171c-0.028-0.006-0.056,0.01-0.065,0.036l0,0l-2.59,6.981"/>
	</g>
</g>
<g>
	<g id="SPLINE_00000047047910864507400030000001323300355525417104_">
		<path class="st1" d="M198.79,161.926c-0.232,0.062-0.473,0.097-0.714,0.104c-0.241,0.007-0.484-0.013-0.719-0.061
			c-0.294-0.06-0.582-0.165-0.841-0.318c-0.121-0.072-0.236-0.154-0.342-0.247c-0.1-0.088-0.192-0.186-0.271-0.293
			c-0.076-0.102-0.14-0.212-0.19-0.329c-0.048-0.112-0.083-0.231-0.102-0.351c-0.019-0.119-0.022-0.241-0.009-0.361
			c0.013-0.122,0.041-0.241,0.083-0.356c0.044-0.119,0.103-0.232,0.173-0.338c0.074-0.111,0.16-0.213,0.256-0.306
			c0.101-0.098,0.211-0.186,0.329-0.263c0.123-0.081,0.254-0.151,0.389-0.21c0.284-0.124,0.588-0.2,0.898-0.231
			c0.314-0.031,0.633-0.016,0.941,0.047c0.208,0.043,0.413,0.107,0.607,0.196c0.183,0.083,0.356,0.188,0.512,0.315
			c0.145,0.118,0.275,0.255,0.379,0.41c0.098,0.145,0.173,0.305,0.217,0.474c0.043,0.163,0.056,0.335,0.039,0.503
			c-0.018,0.171-0.067,0.339-0.142,0.494c-0.079,0.165-0.187,0.315-0.312,0.448c-0.135,0.143-0.292,0.266-0.459,0.368
			c-0.044,0.027-0.088,0.052-0.134,0.076c-0.041,0.022-0.083,0.043-0.126,0.062c-0.13,0.06-0.265,0.11-0.403,0.15
			C198.83,161.915,198.81,161.92,198.79,161.926z"/>
	</g>
	<g id="SPLINE_00000124852494561706229100000001279712946092262316_">
		<path class="st1" d="M193.564,163.632c0.325-0.271,0.717-0.448,0.818-0.499c0.1-0.05,0.204-0.093,0.311-0.128
			c0.372-0.115,0.761-0.182,1.152-0.201c0.392-0.019,0.787,0.01,1.171,0.089c0.37,0.076,0.731,0.197,1.068,0.369
			c0.313,0.16,0.605,0.364,0.853,0.611c0.068,0.071,0.131,0.148,0.188,0.229c0.059,0.085,0.111,0.175,0.156,0.268
			c0.018,0.038,0.031,0.079,0.036,0.121c0.006,0.043,0.005,0.088,0.001,0.131v2.112"/>
	</g>
	<path class="st1" d="M198.742,156.735c0.025-0.059,0.047-0.119,0.067-0.18c0.024-0.072,0.045-0.145,0.064-0.219
		c0.041-0.158,0.06-0.228,0.099-0.391c0,0,0.2,0.043,0.237,0.051l3.178,0.65c0.089,0.018,0.176,0.045,0.26,0.081
		c0.079,0.034,0.156,0.076,0.225,0.127c0.066,0.047,0.126,0.102,0.177,0.165c0.048,0.059,0.127,0.189,0.127,0.189l-3.35,9.075
		c-0.039,0.106-0.108,0.201-0.19,0.28c-0.048,0.046-0.1,0.087-0.155,0.122c-0.06,0.039-0.123,0.072-0.188,0.1
		c-0.141,0.06-0.291,0.097-0.444,0.112c-0.156,0.015-0.315,0.007-0.467-0.024l-0.296-0.075l-4.666-1.143l0.001,0l-0.025-0.009
		l-0.038-0.035l-0.024-0.053l-0.015-0.077l-0.005-0.069v0l0.045-1.812"/>
	<g id="LINE_00000018221716033623663550000012456690497927957182_">
		<path class="st1" d="M202.264,159.53l-0.063-1.184l-0.045-0.304l0,0.001l-0.008-0.037l-0.056-0.117l-0.098-0.097l-0.131-0.068
			l-0.084-0.024l-5.726-1.171c-0.028-0.006-0.056,0.01-0.065,0.036l0,0l-2.59,6.981"/>
	</g>
</g>
<g>
	<g id="SPLINE_00000156554526088811315480000003999315500204260520_">
		<path class="st1" d="M162.495,154.531c-0.232,0.062-0.473,0.097-0.714,0.104c-0.241,0.007-0.484-0.013-0.719-0.061
			c-0.294-0.06-0.582-0.165-0.841-0.318c-0.121-0.072-0.236-0.154-0.342-0.247c-0.1-0.088-0.192-0.186-0.271-0.293
			c-0.076-0.102-0.14-0.212-0.19-0.329c-0.048-0.112-0.083-0.231-0.102-0.351c-0.019-0.119-0.022-0.241-0.009-0.361
			c0.013-0.122,0.041-0.241,0.083-0.356c0.044-0.119,0.103-0.232,0.173-0.338c0.074-0.111,0.16-0.213,0.256-0.306
			c0.101-0.098,0.211-0.186,0.329-0.263c0.123-0.081,0.254-0.151,0.389-0.21c0.284-0.124,0.588-0.2,0.898-0.231
			c0.314-0.031,0.633-0.016,0.941,0.047c0.208,0.043,0.413,0.107,0.607,0.196c0.183,0.083,0.356,0.188,0.512,0.315
			c0.145,0.118,0.275,0.255,0.379,0.41c0.098,0.145,0.173,0.305,0.217,0.474c0.043,0.163,0.056,0.335,0.039,0.503
			c-0.018,0.171-0.067,0.339-0.142,0.494c-0.079,0.165-0.187,0.315-0.312,0.448c-0.135,0.143-0.292,0.266-0.459,0.368
			c-0.044,0.027-0.088,0.052-0.134,0.076c-0.041,0.022-0.083,0.043-0.126,0.062c-0.13,0.06-0.266,0.11-0.403,0.15
			C162.534,154.52,162.515,154.526,162.495,154.531z"/>
	</g>
	<g id="SPLINE_00000007393493700872297450000001108538131417573774_">
		<path class="st1" d="M157.268,156.238c0.325-0.271,0.717-0.448,0.818-0.499c0.1-0.05,0.204-0.093,0.311-0.128
			c0.372-0.115,0.761-0.182,1.152-0.201c0.392-0.019,0.787,0.01,1.171,0.089c0.37,0.076,0.731,0.197,1.068,0.369
			c0.313,0.16,0.605,0.364,0.853,0.611c0.068,0.071,0.131,0.148,0.188,0.229c0.059,0.085,0.111,0.175,0.156,0.268
			c0.018,0.038,0.031,0.079,0.036,0.121c0.006,0.043,0.005,0.088,0.001,0.131v2.112"/>
	</g>
	<path class="st1" d="M162.447,149.341c0.025-0.059,0.047-0.119,0.067-0.18c0.024-0.072,0.045-0.145,0.064-0.219
		c0.041-0.158,0.06-0.228,0.099-0.391c0,0,0.2,0.043,0.237,0.051l3.178,0.65c0.089,0.018,0.176,0.045,0.26,0.081
		c0.079,0.034,0.156,0.076,0.225,0.127c0.066,0.047,0.126,0.102,0.177,0.165c0.048,0.059,0.127,0.189,0.127,0.189l-3.35,9.075
		c-0.039,0.106-0.108,0.201-0.19,0.28c-0.048,0.046-0.1,0.086-0.155,0.122c-0.06,0.039-0.123,0.072-0.188,0.1
		c-0.141,0.06-0.291,0.097-0.444,0.112c-0.156,0.015-0.315,0.007-0.467-0.024l-0.296-0.075l-4.666-1.143l0.001,0l-0.025-0.009
		l-0.038-0.035l-0.024-0.053l-0.015-0.077l-0.006-0.069l0,0l0.045-1.812"/>
	<g id="LINE_00000126308198014446817810000007175177234484898492_">
		<path class="st1" d="M165.968,152.136l-0.063-1.184l-0.045-0.304l0,0.001l-0.008-0.037l-0.056-0.117l-0.098-0.097l-0.131-0.068
			l-0.084-0.024c0,0-5.726-1.171-5.726-1.171c-0.028-0.006-0.056,0.01-0.065,0.036l0,0l-2.59,6.981l-11.228,30.386l-2.41-0.511
			c0,0-0.887-0.114-1.288,0.859"/>
	</g>
</g>
<polyline class="st1" points="201.689,142.222 197.188,154.669 197.296,156.844 "/>
<path class="st1" d="M180.163,191.001c0,0,2.72-7.615,3.209-8.648c0.49-1.033-0.326-1.74-0.326-1.74l-2.589-2.138l2.07-5.91
	c0,0,1.329-0.589,3.402-0.818c1.86-0.205,2.012-1.469,2.012-1.469l10.28-28.8l0.402,9.217"/>
<polygon class="st1" points="173.961,138.312 185.56,140.716 181.119,152.681 169.676,150.225 "/>
<line class="st1" x1="238.487" y1="149.878" x2="234.169" y2="161.488"/>
<polyline class="st1" points="215.625,201.17 219.542,201.946 231.098,169.847 "/>
<path class="st1" d="M216.35,201.35l-1.219,3.454c0,0-1.164,2.108,2.065,3.016"/>
<line class="st1" x1="250.536" y1="214.538" x2="134.352" y2="190.757"/>
<path class="st1" d="M235.27,158.52l-0.305-8.822l-3.192-0.658c0,0-0.721-0.219-1.159,0.94s-1.015,2.838-1.015,2.838
	s-0.533,1.065,0.345,2.225c0,0,0.971,1.003,0.564,2.131c-0.407,1.128-0.627,1.379-0.627,1.379s-0.313,0.815,1.065,1.128
	l-6.611,18.236c0,0-0.282,0.846-1.943,1.097s-2.413,0.501-2.413,0.501s-0.595,0-1.159,1.253c-0.564,1.253-1.598,4.167-1.598,4.167
	s-0.564,0.94,0.313,1.661c0.877,0.721,2.099,1.535,2.099,1.535s0.815,0.533,0.219,1.849c-0.595,1.316-1.911,4.857-1.911,4.857
	s-1.039-0.279-1.48,0.294c-0.441,0.573-0.617,1.763-0.617,1.763s-0.265,0.838,0.97,1.234l-2.601,6.304c0,0-1.146,2.381-4.232,1.719"
	/>
<path class="st1" d="M133.835,189.546l-0.066-2.59l11.821-31.478l1.063-0.398l1.395-3.652l0.996,0.199l2.191-6.043l-1.992-0.398
	l7.882-21.727l0.698,0.161l0.204-0.487l0.958-2.286c0,0,0.886-0.994,0.929,0.951l0.089,1.399"/>
<path class="st1" d="M146.549,155.429l-2.404,6.485l-0.056,4.976l6.933,1.454l0.224-0.503c0,0,1.156-0.093,1.707-0.699l-5.406-0.858
	l0.036-1.854l4.435,0.654"/>
<line class="st1" x1="136.791" y1="185.344" x2="144.094" y2="165.308"/>
<path class="st1" d="M142.246,186.578l-6.235-1.299c0,0-0.909,1.429,0.162,1.721s4.838,1.007,4.838,1.007
	S141.889,188.462,142.246,186.578z"/>
<path class="st1" d="M134.53,189.824l-0.881,2.569l-0.073,2.569l-1.395,3.45l-0.037,4.734l-1.064,2.312l-3.707-0.734l0.697-7.193
	l2.312-4.477l1.692-3.821l7.584,1.631c0,0,0.973,0.401,1.316-0.658c0.343-1.059,1.202-3.32,1.202-3.32"/>
<polyline class="st1" points="132.392,198.294 133.699,198.605 135.466,194.85 "/>
<polyline class="st1" points="133.637,195.243 133.699,206.854 131.676,206.511 131.614,204.457 "/>
<polyline class="st1" points="133.852,206.649 135.466,202.193 135.512,191.007 "/>
<polyline class="st1" points="135.674,194.478 176.894,203.058 178.023,203.723 178.152,211.614 "/>
<path class="st1" d="M141.262,189.383c0,0-0.441,2.325,2.365,3.247"/>
<path class="st1" d="M172.657,198.516c4.672,0.501,5.478-3.142,5.478-3.142l1.669-4.728l0.834,0.25v0.695l-0.6,1.382l0.073,0.757"/>
<path class="st1" d="M180.521,200.208c0,0-3.081-0.998-2.163-3.445l1.029-2.336c0,0,0.222-0.89,1.418-0.612
	c1.196,0.278,1.724,0.473,1.724,0.473l10.806-28.731"/>
<polyline class="st1" points="190.808,162.052 190.991,164.987 195.989,152.239 196.127,150.313 197.457,147.012 196.348,146.787 
	"/>
<line class="st1" x1="193.425" y1="154.932" x2="193.573" y2="158.193"/>
<polyline class="st1" points="197.565,153.57 197.383,149.746 197.669,149.226 197.457,147.012 "/>
<polyline class="st1" points="234.228,163.945 233.879,152.693 235.187,149.036 "/>
<line class="st1" x1="232.432" y1="152.195" x2="233.78" y2="152.462"/>
<g id="SPLINE_00000063617584716396189420000018093919420647651234_">
	<path class="st1" d="M230.669,154.851l-0.404-0.946c-0.013-0.03-0.02-0.063-0.021-0.096c-0.001-0.033,0.005-0.066,0.016-0.097
		l0.794-2.152c0.016-0.044,0.044-0.083,0.077-0.116c0.037-0.037,0.082-0.065,0.129-0.085c0.051-0.022,0.106-0.036,0.162-0.042
		c0.057-0.006,0.114-0.003,0.17,0.008l0.553,0.113c0.041,0.008,0.081,0.022,0.119,0.04c0.035,0.017,0.069,0.039,0.098,0.065
		c0.027,0.024,0.05,0.053,0.068,0.085c0.016,0.03,0.027,0.063,0.031,0.096c0.004,0.03,0.002,0.061-0.005,0.091
		c-0.002,0.01-0.005,0.02-0.009,0.03l-0.292,0.791c-0.002,0.006-0.003,0.013-0.002,0.02c0.001,0.007,0.004,0.013,0.008,0.019
		c0.009,0.012,0.025,0.02,0.04,0.023l0.055,0.011c0.044,0.009,0.088,0.025,0.127,0.048c0.036,0.021,0.068,0.048,0.092,0.081
		c0.022,0.03,0.038,0.065,0.044,0.102c0.006,0.036,0.001,0.074-0.011,0.108l-0.682,1.847c-0.016,0.044-0.044,0.083-0.077,0.116
		c-0.037,0.037-0.082,0.065-0.129,0.085c-0.051,0.022-0.106,0.036-0.162,0.042c-0.057,0.006-0.114,0.003-0.17-0.008l-0.322-0.066
		c-0.065-0.013-0.129-0.039-0.184-0.078C230.734,154.952,230.693,154.905,230.669,154.851"/>
</g>
<ellipse class="st1" cx="232.362" cy="150.327" rx="0.84" ry="0.504"/>
<g id="SPLINE_00000178198129915703622860000015633924950870893699_">
	<path class="st1" d="M171.54,190.485c0.173-0.091,0.335-0.21,0.469-0.353c0.063-0.067,0.119-0.139,0.168-0.217
		c0.047-0.074,0.086-0.153,0.117-0.235l9.376-25.401c0.033-0.089,0.055-0.183,0.065-0.278c0.01-0.094,0.007-0.188-0.007-0.281
		c-0.015-0.094-0.042-0.187-0.079-0.274c-0.039-0.091-0.089-0.177-0.148-0.256c-0.062-0.084-0.134-0.16-0.212-0.229
		c-0.082-0.073-0.172-0.137-0.267-0.192c-0.202-0.119-0.427-0.201-0.656-0.248l-14.747-3.016c-0.24-0.049-0.489-0.061-0.734-0.037
		c-0.241,0.024-0.479,0.084-0.7,0.18c-0.106,0.046-0.207,0.101-0.303,0.164c-0.092,0.06-0.178,0.129-0.256,0.205
		c-0.074,0.073-0.142,0.152-0.199,0.239c-0.055,0.082-0.101,0.171-0.135,0.264l-9.376,25.401c-0.027,0.073-0.047,0.149-0.058,0.226
		c-0.011,0.076-0.015,0.153-0.011,0.229c0.005,0.077,0.017,0.153,0.038,0.227c0.021,0.076,0.049,0.149,0.085,0.219
		c0.075,0.148,0.179,0.28,0.301,0.393c0.133,0.123,0.287,0.222,0.449,0.299c0.039,0.018,0.079,0.036,0.119,0.052
		c0.123,0.049,0.252,0.087,0.382,0.114l14.747,3.016c0.267,0.055,0.544,0.063,0.816,0.027
		C171.046,190.688,171.306,190.609,171.54,190.485"/>
</g>
<g id="SPLINE_00000172409709925994278870000000176666367343955365_">
	<path class="st1" d="M208.3,198.044c0.173-0.091,0.335-0.21,0.469-0.353c0.063-0.067,0.119-0.139,0.168-0.217
		c0.047-0.074,0.086-0.153,0.117-0.235l9.376-25.401c0.033-0.089,0.055-0.183,0.065-0.278c0.01-0.094,0.007-0.188-0.007-0.281
		c-0.015-0.094-0.042-0.187-0.079-0.274c-0.039-0.091-0.089-0.177-0.148-0.256c-0.062-0.084-0.134-0.16-0.212-0.229
		c-0.082-0.073-0.172-0.137-0.267-0.192c-0.202-0.119-0.427-0.201-0.656-0.248l-14.747-3.016c-0.24-0.049-0.489-0.061-0.734-0.037
		c-0.241,0.024-0.479,0.084-0.7,0.18c-0.106,0.046-0.207,0.101-0.303,0.164c-0.092,0.06-0.178,0.129-0.256,0.205
		c-0.074,0.073-0.142,0.152-0.199,0.239c-0.055,0.082-0.101,0.171-0.135,0.263l-9.376,25.401c-0.027,0.073-0.047,0.149-0.058,0.226
		c-0.011,0.076-0.015,0.153-0.011,0.229c0.005,0.077,0.017,0.153,0.038,0.227c0.021,0.076,0.049,0.149,0.085,0.219
		c0.075,0.148,0.179,0.28,0.301,0.393c0.133,0.123,0.287,0.222,0.449,0.299c0.039,0.018,0.079,0.036,0.119,0.052
		c0.123,0.049,0.252,0.087,0.382,0.114l14.747,3.016c0.267,0.055,0.544,0.064,0.816,0.027
		C207.806,198.247,208.066,198.168,208.3,198.044"/>
</g>
<g id="SPLINE_00000023971743145998556320000004770601547179508926_">
	<path class="st1" d="M245.164,205.5c0.173-0.091,0.335-0.21,0.469-0.353c0.063-0.067,0.119-0.139,0.168-0.217
		c0.047-0.074,0.086-0.153,0.117-0.235l9.376-25.401c0.033-0.089,0.055-0.183,0.065-0.278c0.01-0.094,0.007-0.188-0.007-0.281
		c-0.015-0.094-0.042-0.187-0.079-0.274c-0.039-0.091-0.089-0.177-0.148-0.256c-0.062-0.084-0.134-0.16-0.212-0.229
		c-0.082-0.073-0.172-0.137-0.267-0.192c-0.202-0.119-0.427-0.201-0.656-0.248l-14.747-3.016c-0.24-0.049-0.489-0.061-0.734-0.037
		c-0.241,0.024-0.479,0.084-0.7,0.18c-0.106,0.046-0.207,0.101-0.304,0.164c-0.092,0.06-0.178,0.129-0.256,0.205
		c-0.074,0.073-0.142,0.152-0.199,0.239c-0.055,0.082-0.101,0.171-0.135,0.263l-9.376,25.401c-0.027,0.073-0.047,0.149-0.058,0.226
		c-0.011,0.076-0.015,0.153-0.011,0.229c0.005,0.077,0.017,0.153,0.038,0.227c0.021,0.076,0.049,0.149,0.085,0.219
		c0.075,0.148,0.179,0.28,0.301,0.393c0.133,0.123,0.287,0.222,0.449,0.299c0.039,0.018,0.079,0.036,0.119,0.052
		c0.123,0.049,0.252,0.087,0.382,0.114l14.747,3.016c0.267,0.055,0.544,0.064,0.816,0.027
		C244.67,205.702,244.93,205.624,245.164,205.5"/>
</g>
<path class="st1" d="M271.928,156.992l-3.192-0.658c0,0-0.721-0.219-1.159,0.94c-0.439,1.159-1.015,2.838-1.015,2.838
	s-0.533,1.065,0.345,2.225c0,0,0.971,1.003,0.564,2.131c-0.407,1.128-0.627,1.379-0.627,1.379s-0.313,0.815,1.065,1.128
	l-6.611,18.236c0,0-0.282,0.846-1.943,1.097c-1.661,0.251-2.413,0.501-2.413,0.501s-0.595,0-1.159,1.253
	c-0.564,1.253-1.598,4.167-1.598,4.167s-0.564,0.94,0.313,1.661c0.877,0.721,2.099,1.535,2.099,1.535s0.815,0.533,0.219,1.849
	s-1.911,4.857-1.911,4.857s-1.039-0.279-1.48,0.294c-0.441,0.573-0.617,1.763-0.617,1.763s-0.265,0.838,0.97,1.234l-2.601,6.304
	c0,0-1.328,2.682-4.414,2.021"/>
<line class="st1" x1="248.107" y1="214.067" x2="248.324" y2="218.958"/>
<path class="st1" d="M219.279,208.18l0.087,3.852c0,0,0.173,1.299,1.515,1.688"/>
<path class="st1" d="M219.876,208.237l0.143,3.848c0,0,1.14,0.057,0.998,0.57s-0.314,0.998-0.314,0.998l-0.029,1.226l25.884,5.302
	l0.2-1.34c0,0,0.029-1.34,1.397-1.112"/>
<path class="st1" d="M183.164,200.861l0.103,3.776c0,0,1.098,0.069,0.995,0.652c-0.103,0.584-0.309,0.892-0.309,0.892l0.034,1.167
	l25.847,5.286l0.103-1.304c0,0,0-1.407,1.545-1.064"/>
<path class="st1" d="M211.311,206.559l0.103,2.918c0,0,0.618,2.609-1.476,1.854"/>
<path class="st1" d="M182.409,200.758v3.741c0,0-0.24,1.064,1.545,1.682"/>
<path class="st1" d="M135.274,202.773c0,0-0.58,1.625,1.48,2.031c2.06,0.406,8.53,1.712,8.53,1.712s0.928,0.609,1.596-1.625
	l-0.087-8.036"/>
<polyline class="st1" points="146.744,197.667 153.611,199.094 153.666,204.747 "/>
<line class="st1" x1="147.053" y1="204.907" x2="151.961" y2="205.92"/>
<line class="st1" x1="147.001" y1="204.083" x2="152.309" y2="205.165"/>
<polyline class="st1" points="153.657,204.727 154.815,204.972 155.04,202.717 155.247,201.919 155.607,201.996 155.685,204.83 
	155.372,205.447 155.424,206.634 155.085,207.599 153.782,207.312 "/>
<path class="st1" d="M153.718,207.833l-0.08-3.126l-1.03-0.207l-1.598,4.09l0.139,2.967c0,0,0.697,0.657,1.055,0.1L153.718,207.833z
	"/>
<path class="st1" d="M152.608,204.499l-0.137-3.854c0,0-0.068-0.707-0.775-0.798c-0.707-0.091-2.304-0.479-2.304-0.479l-1.551,0.798
	l0.068,2.668l1.414,1.574"/>
<polyline class="st1" points="167.244,207.823 166.662,208.626 166.578,209.956 157.656,208.1 157.684,206.576 158.044,205.828 "/>
<path class="st1" d="M156.963,199.039l0.194,6.65l-0.471,0.72l-0.055,1.635c0,0,0.194,0.942,1.136,1.108
	c0.942,0.166,8.978,1.773,8.978,1.773s1.053,0.111,1.469-1.635l-0.083-6.484l1.053-1.385"/>
<line class="st1" x1="157.822" y1="207.13" x2="166.551" y2="208.848"/>
<line class="st1" x1="155.424" y1="206.634" x2="156.556" y2="206.855"/>
<polyline class="st1" points="168.563,202.179 174.923,203.438 174.964,208.797 176.184,208.965 176.442,206.682 176.879,206.205 
	176.918,209.144 176.7,209.859 176.709,211.268 246.545,225.754 "/>
<line class="st1" x1="168.208" y1="208.41" x2="173.61" y2="209.492"/>
<line class="st1" x1="168.218" y1="209.266" x2="173.309" y2="210.284"/>
<path class="st1" d="M171.084,208.813l-1.885-1.621l-0.057-2.677l1.508-0.792c0,0,1.49,0.377,2.244,0.434
	c0.754,0.057,0.886,0.716,0.886,0.716l0.113,3.978l-1.602,4.106l0.139,3.058c0.894,0.516,1.112,0,1.112,0l1.509-3.912l-0.118-3.276
	c0,0-0.22-0.02-0.895-0.1"/>
<polyline class="st1" points="175.012,211.686 176.303,211.944 176.66,211.03 "/>
<g>
	<polygon class="st1" points="193.536,211.72 201.427,213.415 201.519,215.555 193.627,213.86 	"/>
	<line class="st1" x1="197.467" y1="212.764" x2="197.528" y2="214.567"/>
</g>
<g>
	<polygon class="st1" points="202.822,213.707 213.291,215.911 213.382,217.99 202.914,215.786 	"/>
	<line class="st1" x1="208.152" y1="214.936" x2="208.213" y2="216.688"/>
</g>
<polygon class="st1" points="215.061,213.294 218.558,213.993 218.653,215.996 215.061,215.297 "/>
<polygon class="st1" points="215.061,216.1 218.558,216.799 218.653,218.802 215.061,218.102 "/>
<line class="st1" x1="269.341" y1="159.508" x2="271.095" y2="159.876"/>
<g id="SPLINE_00000028291134310630862290000007265494848854084766_">
	<path class="st1" d="M267.579,162.164l-0.404-0.946c-0.013-0.03-0.02-0.063-0.021-0.096s0.005-0.066,0.016-0.097l0.794-2.152
		c0.016-0.044,0.044-0.083,0.077-0.116c0.037-0.037,0.082-0.065,0.129-0.085c0.051-0.022,0.106-0.036,0.162-0.042
		c0.057-0.006,0.114-0.003,0.17,0.008l0.553,0.113c0.041,0.008,0.081,0.022,0.119,0.04c0.035,0.017,0.069,0.039,0.098,0.065
		c0.027,0.024,0.05,0.053,0.068,0.085c0.016,0.03,0.027,0.063,0.031,0.096c0.004,0.03,0.002,0.061-0.005,0.091
		c-0.002,0.01-0.005,0.02-0.009,0.03l-0.292,0.791c-0.002,0.006-0.003,0.013-0.002,0.02c0.001,0.007,0.004,0.013,0.008,0.019
		c0.009,0.012,0.025,0.02,0.04,0.023l0.055,0.011c0.044,0.009,0.088,0.025,0.127,0.048c0.036,0.021,0.068,0.048,0.092,0.081
		c0.022,0.03,0.038,0.065,0.044,0.102c0.006,0.036,0.001,0.074-0.011,0.108l-0.682,1.847c-0.016,0.044-0.044,0.083-0.077,0.116
		c-0.037,0.037-0.082,0.065-0.129,0.085c-0.051,0.022-0.106,0.036-0.162,0.042c-0.057,0.006-0.114,0.003-0.17-0.008l-0.322-0.066
		c-0.065-0.013-0.129-0.039-0.184-0.078C267.643,162.265,267.602,162.218,267.579,162.164"/>
</g>
<ellipse class="st1" cx="269.272" cy="157.64" rx="0.84" ry="0.504"/>
<path class="st1" d="M144.225,161.754l3.01,0.719l3.545,0.498l0.002,0.93c0.477,0.079,1.51,1.152,1.51,1.152l0.926-2.222"/>
<path class="st1" d="M150.981,162.628l4.212-10.531c0,0-0.556-2.623,1.868-4.53l-0.079-0.795l2.861-7.272l-5.444-1.152l1.391-3.537
	l1.113,0.199l0.358-0.119l3.656,0.755l-1.351,3.576"/>
<polyline class="st1" points="151.727,138.346 152.636,138.527 153.109,137.8 155.072,132.602 161.47,133.601 162.924,134.074 
	163.033,135.346 162.525,135.128 160.915,135.646 "/>
<path class="st1" d="M159.653,139.745c0,0,2.29,0.727,2.218,3.272"/>
<path class="st1" d="M160.78,135.964c0,0,2.363,1.091,2.545,3.345"/>
<polyline class="st1" points="161.47,141.49 158.925,148.688 158.453,148.543 155.69,156.286 155.726,157.304 153.4,163.23 "/>
<path class="st1" d="M151.364,161.412c0,0,2.363,0.909,2.363,3.381"/>
<polyline class="st1" points="149.242,145.184 149.341,146.779 147.804,150.999 148.046,151.427 "/>
<polyline class="st1" points="145.589,155.478 147.02,151.873 147.774,151.933 "/>
<polyline class="st1" points="158.069,131.29 155.909,130.915 155.945,129.766 156.624,127.73 158.82,128.109 "/>
<path class="st1" d="M163.996,132.559l-0.001,0.145l0.192,1.655c0,0-0.114,0.739-1.108,0.71l0.057-0.426l0.811-1.962"/>
<polyline class="st1" points="161.738,135.464 162.309,136.098 163.316,136.35 163.325,136.997 162.955,137.837 "/>
<line class="st1" x1="128.674" y1="199.381" x2="130.661" y2="199.787"/>
<line class="st1" x1="128.674" y1="200.181" x2="130.661" y2="200.587"/>
<line class="st1" x1="128.615" y1="200.923" x2="130.603" y2="201.329"/>
<line class="st1" x1="128.557" y1="201.664" x2="130.544" y2="202.071"/>
<line class="st1" x1="128.479" y1="202.425" x2="130.466" y2="202.832"/>
<line class="st1" x1="128.401" y1="203.147" x2="130.388" y2="203.554"/>
<line class="st1" x1="128.342" y1="203.869" x2="130.33" y2="204.276"/>
<path class="st1" d="M143.896,197.394c-3.205-2.08-5.851-0.754-5.851-0.754l1.88,1.159c0,0,2.402-0.448,3.377,1.414l0.834-1.132
	L143.896,197.394z"/>
<path class="st1" d="M137.455,200.784l-0.661-0.504c-0.464-2.46,0.856-3.051,0.856-3.051l1.501,0.898c0,0-1.455,0.276-1.137,1.631
	C138.014,199.758,137.435,200.208,137.455,200.784z"/>
<polyline class="st1" points="136.482,201.12 136.405,202.396 136.347,203.818 145.312,205.675 145.341,203.083 145.972,202.278 "/>
<path class="st1" d="M143.845,202.748c0,0-2.459,0.952-5.662-1.06c0,0-0.3-0.486,0.343-1.341c0,0,1.2,1.347,3.129,1.371
	C141.654,201.718,142.161,202.422,143.845,202.748z"/>
<line class="st1" x1="136.407" y1="202.62" x2="145.126" y2="204.473"/>
<path class="st1" d="M142.668,201.495c0,0,1.14-0.136,1.08-1.596l0.658-0.764l0.338-0.533c0,0,0.871,1.91-0.232,3.504
	C144.512,202.106,143.095,201.97,142.668,201.495z"/>
<g>
	<path class="st1" d="M165.453,202.043c-3.072-1.994-5.608-0.722-5.608-0.722l1.802,1.111c0,0,2.303-0.429,3.237,1.356l0.8-1.086
		L165.453,202.043z"/>
	<path class="st1" d="M159.279,205.292l-0.633-0.483c-0.445-2.358,0.82-2.925,0.82-2.925l1.439,0.861c0,0-1.395,0.265-1.09,1.563
		C159.814,204.309,159.26,204.74,159.279,205.292z"/>
	<path class="st1" d="M165.404,207.175c0,0-2.357,0.912-5.428-1.016c0,0-0.288-0.466,0.329-1.286c0,0,1.15,1.291,3,1.314
		C163.304,206.188,163.79,206.863,165.404,207.175z"/>
	<path class="st1" d="M164.275,205.974c0,0,1.092-0.13,1.035-1.53l0.631-0.733l0.324-0.511c0,0,0.835,1.831-0.222,3.359
		C166.043,206.56,164.685,206.429,164.275,205.974z"/>
</g>
<path class="st1" d="M145.716,193.101c0,0-0.274,1.503,1.248,1.741"/>
<path class="st1" d="M174.559,199.002c0,0,0.402,1.566-1.365,1.265"/>
<polyline class="st1" points="173.534,198.72 173.033,200.086 173.012,201.431 146.93,196.03 146.97,194.865 147.569,193.495 "/>
<polygon class="st1" points="223.531,216.893 225.146,217.239 225.215,219.709 223.569,219.354 "/>
<g>
	<polygon class="st1" points="229.271,219.489 233.17,220.292 237.112,221.104 237.112,222.876 229.271,221.261 	"/>
	<line class="st1" x1="233.205" y1="222.016" x2="233.17" y2="220.292"/>
</g>
<g>
	<polygon class="st1" points="238.191,221.307 242.089,222.11 246.032,222.922 246.032,224.694 238.191,223.078 	"/>
	<line class="st1" x1="242.124" y1="223.834" x2="242.089" y2="222.11"/>
</g>
<g id="SPLINE_00000164506109352281748250000003391387992990172036_">
	<path class="st1" d="M220.152,218.408c0.001-0.01,0.003-0.021,0.007-0.031c0.003-0.008,0.007-0.017,0.012-0.024
		c0.011-0.016,0.025-0.029,0.042-0.039c0.044-0.027,0.099-0.035,0.151-0.032c0.02,0.001,0.04,0.004,0.06,0.008l1.802,0.369
		c0.054,0.011,0.107,0.032,0.154,0.063c0.042,0.027,0.08,0.061,0.104,0.104c0.013,0.023,0.022,0.049,0.023,0.076l0.004,0.168
		l-0.006,0.034c-0.007,0.018-0.02,0.034-0.036,0.046c-0.006,0.004-0.012,0.008-0.019,0.011l-0.207,0.102
		c-0.027,0.013-0.057,0.019-0.087,0.019c-0.011,0-0.022,0-0.034-0.001c-0.012-0.001-0.025-0.003-0.037-0.005l-1.492-0.305
		c-0.012-0.003-0.025-0.006-0.037-0.01c-0.03-0.01-0.06-0.023-0.086-0.041c-0.013-0.008-0.025-0.017-0.036-0.027l-0.213-0.188
		c-0.013-0.011-0.025-0.024-0.035-0.038c-0.009-0.012-0.017-0.026-0.022-0.04c-0.005-0.013-0.008-0.026-0.008-0.039l-0.004-0.168
		L220.152,218.408z"/>
</g>
<polyline class="st1" points="289.171,103.391 288.058,103.776 181.475,82.057 "/>
<polyline class="st1" points="197.963,77.917 195.099,78.604 195.099,79.407 192.005,82.386 192.177,79.464 195.328,75.396 
	198.307,74.479 "/>
<path class="st1" d="M222.775,72.78l-1.549,11.791l-3.25,4.081c0,0-0.794,0.529-0.68-0.68s0.491-3.779,0.491-3.779l4.497-11.413
	H222.775z"/>
<path class="st1" d="M201.444,65.666l-0.815,1.086l-2.127,6.924l-0.679,5.249c0,0,0.226,0.679,0.86-0.045
	c0.634-0.724,4.525-5.657,4.525-5.657l8.221-64.189l-0.532-0.887l-2.041,2.751l-0.266,3.372l-3.017,4.792l-1.154,10.916l1.952-2.13
	l-2.683,20.533h0.74l-0.542,4.439l-0.888,0.444L201.444,65.666z"/>
<polygon class="st1" points="225.125,83.782 228.125,80.34 228.478,76.898 227.684,75.486 225.566,72.839 225.213,70.633 
	226.272,63.044 226.625,54.396 223.448,75.045 225.037,80.34 "/>
<polygon class="st1" points="251.195,84.014 250.561,90.597 255.716,84.569 264.044,20.883 260.951,30.717 260.158,37.934 
	259.602,38.807 258.809,44.597 258.281,45.374 256.271,63.393 255.637,64.107 254.051,76.717 253.495,77.51 "/>
<polyline class="st1" points="250.372,89.775 249.44,91.239 249.262,94.257 252.457,91.017 252.647,88.457 "/>
<polyline class="st1" points="278.45,78.443 277.92,81.822 278.384,83.876 279.908,85.533 "/>
<polyline class="st1" points="280.836,78.907 279.444,90.966 280.666,89.493 282.029,87.852 282.161,86.461 281.631,85.003 
	281.962,84.34 281.243,81.945 281.575,79.03 "/>
<polyline class="st1" points="280.65,90.944 277.482,94.623 277.635,91.251 276,85.834 276.766,81.542 277.073,80.827 
	281.978,43.474 280.037,45.62 280.701,39.13 282.081,37.24 283.205,27.991 286.015,24.312 211.43,9.035 "/>
<path class="st1" d="M303.292,27.829l-16.235-3.338l-0.051,0.961l-3.035,9.458l-0.708,7.182l-0.556,2.175l12.846,2.681
	c0,0,2.377-1.315,0-4.248l-9.963-2.023l0.506-0.759l1.72-12.644l1.696-2.136"/>
<line class="st1" x1="301.564" y1="49.737" x2="295.927" y2="94.019"/>
<path class="st1" d="M295.927,94.019"/>
<polyline class="st1" points="292.916,102.505 290.856,95.321 293.585,73.026 294.184,72.227 295.914,59.648 295.448,59.315 
	298.354,37.627 298.872,37.654 300.999,31.462 304.491,26.743 303.125,37.477 300.694,40.572 299.186,52.254 302.126,48.154 
	303.286,37.826 "/>
<polyline class="st1" points="297.818,26.862 296.034,29.175 294.514,42.195 "/>
<polyline class="st1" points="298.576,27.108 298.483,28.139 295.858,37.091 296.702,37.223 296.093,39.2 295.554,42.698 "/>
<line class="st1" x1="281.406" y1="49.64" x2="296.252" y2="52.85"/>
<line class="st1" x1="280.122" y1="60.314" x2="295.209" y2="63.363"/>
<polyline class="st1" points="292.439,81.19 289.316,80.547 277.513,78.113 "/>
<polyline class="st1" points="289.316,80.547 287.866,92.541 290.402,90.005 290.568,88.549 289.529,84.267 289.903,80.733 "/>
<polyline class="st1" points="282.336,86.928 288.198,88.175 284.747,99.027 284.456,102.436 288.364,97.946 289.279,91.169 "/>
<line class="st1" x1="255.826" y1="84.112" x2="276.651" y2="88.334"/>
<line class="st1" x1="256.828" y1="76.741" x2="277.073" y2="80.827"/>
<line class="st1" x1="257.687" y1="69.227" x2="277.796" y2="73.521"/>
<line class="st1" x1="258.903" y1="60.926" x2="279.084" y2="65.22"/>
<line class="st1" x1="259.977" y1="52.625" x2="280.157" y2="56.919"/>
<line class="st1" x1="260.979" y1="43.966" x2="281.374" y2="48.403"/>
<line class="st1" x1="262.195" y1="35.307" x2="280.701" y2="39.13"/>
<polyline class="st1" points="243.447,15.654 241.623,18.086 240.002,31.529 255.944,34.974 257.16,34.231 257.836,29.097 
	260.605,20.18 260.673,19.234 "/>
<line class="st1" x1="264.044" y1="20.883" x2="260.605" y2="20.18"/>
<polyline class="st1" points="242.433,16.6 233.719,14.776 230.882,24.301 229.895,32.199 226.761,57.267 "/>
<line class="st1" x1="259.592" y1="38.217" x2="229.895" y2="32.199"/>
<line class="st1" x1="229.058" y1="38.892" x2="258.241" y2="44.904"/>
<line class="st1" x1="257.092" y1="55.578" x2="227.639" y2="49.498"/>
<line class="st1" x1="226.272" y1="63.044" x2="254.637" y2="69.118"/>
<line class="st1" x1="209.556" y1="24.837" x2="229.993" y2="29.045"/>
<line class="st1" x1="208.554" y1="33.353" x2="228.891" y2="37.661"/>
<line class="st1" x1="207.352" y1="41.768" x2="227.989" y2="46.176"/>
<line class="st1" x1="205.849" y1="50.183" x2="226.625" y2="54.396"/>
<line class="st1" x1="205.241" y1="58.641" x2="225.21" y2="62.776"/>
<line class="st1" x1="204.261" y1="65.715" x2="224.176" y2="70.013"/>
<line class="st1" x1="222.209" y1="77.559" x2="223.959" y2="77.958"/>
<line class="st1" x1="203.209" y1="73.224" x2="220.396" y2="77.145"/>
<line class="st1" x1="225.591" y1="71.211" x2="234.352" y2="73.006"/>
<line class="st1" x1="236.036" y1="77.371" x2="250.349" y2="80.298"/>
<line class="st1" x1="228.257" y1="75.781" x2="233.809" y2="76.916"/>
<polyline class="st1" points="252.281,80.039 251.622,76.579 252.061,71.635 251.292,72.459 249.864,84.763 251.127,83.555 "/>
<polyline class="st1" points="234.758,69.493 233.33,81.193 235.912,78.556 235.527,75.865 235.967,75.315 235.033,72.185 
	235.363,69.328 234.429,68.999 235.088,68.23 238.219,68.889 238.658,68.339 240.855,68.834 240.855,69.438 246.348,70.537 
	246.678,70.042 248.875,70.482 248.765,71.141 251.567,71.745 "/>
<line class="st1" x1="201.385" y1="62.625" x2="188.012" y2="59.746"/>
<line class="st1" x1="203.706" y1="44.888" x2="180.49" y2="40.152"/>
<line class="st1" x1="205.285" y1="34.209" x2="181.976" y2="29.473"/>
<line class="st1" x1="204.913" y1="24.458" x2="182.905" y2="20.186"/>
<polyline class="st1" points="184.298,13.593 183.462,16.472 178.819,53.895 "/>
<path class="st1" d="M187.786,62.425l0.942-5.654c0,0,1.068-0.942-1.194-1.382c-2.262-0.44-8.105-1.508-8.105-1.508
	s-1.445-0.126-1.571,1.257c-0.126,1.382-0.434,3.773-0.434,3.773l0.129,0.027l9.715,2.016l0.65,1.95l13.525,2.763"/>
<polyline class="st1" points="177.555,58.937 179.305,65.944 178.362,71.661 177.043,74.614 176.352,79.263 175.598,79.2 "/>
<path class="st1" d="M160.409,133.45l13.201-36.122l1.061,0.088l3.803-10.436l-0.973-0.442l0.884-2.476l2.476,0.442
	c0,0,0.177-2.034,0.884-2.83l-1.519-0.344l-1.299,1.263l-3.141-0.565l-0.503-0.754l0.377-3.016l-1.948-7.288l7.162-53.528
	l4.021-5.529l2.262,0.377l1.131-1.319l5.026,1.068"/>
<path class="st1" d="M197.103,4.645l0.085,2.394l-2.735,9.061l-0.94,1.111c0,0-0.769-0.085-0.513-1.881s0.855-6.497,0.855-6.497
	L197.103,4.645z"/>
<line class="st1" x1="302.612" y1="26.413" x2="304.019" y2="26.709"/>
<line class="st1" x1="276.914" y1="21.115" x2="299.762" y2="25.83"/>
<line class="st1" x1="265.896" y1="18.854" x2="272.577" y2="20.219"/>
<line class="st1" x1="240.16" y1="13.529" x2="262.779" y2="18.197"/>
<line class="st1" x1="197.112" y1="4.644" x2="235.766" y2="12.622"/>
<polyline class="st1" points="184.896,11.913 185.121,9.718 185.895,9.357 186.255,6.986 186.874,6.677 188.163,6.883 
	188.472,9.203 188.289,10.971 "/>
<polygon class="st1" points="225.228,10.182 226.31,9.357 227.754,9.667 228.579,10.749 228.372,11.729 225.125,11.007 "/>
<polygon class="st1" points="236.724,11.522 239.765,12.193 240.126,13.378 239.662,14.048 235.899,13.275 235.899,12.708 "/>
<polygon class="st1" points="263.033,17.987 264.133,17.208 265.142,17.345 265.829,18.262 265.674,19.273 262.964,18.72 "/>
<polygon class="st1" points="272.717,20.231 273.618,19.114 276.466,19.727 276.862,20.772 276.538,21.709 272.825,20.952 "/>
<polygon class="st1" points="299.8,26.307 299.955,25.431 300.985,24.71 302.015,24.89 302.659,25.843 302.453,26.873 "/>
<line class="st1" x1="179.305" y1="65.944" x2="199.521" y2="69.96"/>
<path class="st1" d="M178.838,70.062l2.129,0.406c0,0,0.912,0,0.71,1.115c-0.203,1.115-1.45,9.747-1.45,9.747"/>
<polyline class="st1" points="169.127,118.618 167.601,118.357 161.915,133.763 "/>
<polyline class="st1" points="167.975,135.141 173.833,119.424 171.583,119.039 "/>
<path class="st1" d="M169.341,116.504"/>
<polyline class="st1" points="182.873,82.616 181.853,85.521 181.866,88.747 190.932,90.524 192.305,86.328 192.552,84.348 "/>
<polyline class="st1" points="182.176,85.521 190.731,87.336 191.901,84.27 "/>
<line class="st1" x1="190.932" y1="90.524" x2="190.731" y2="87.336"/>
<line class="st1" x1="271.922" y1="101.783" x2="291.615" y2="105.859"/>
<line class="st1" x1="214.046" y1="90.018" x2="238.066" y2="94.893"/>
<path class="st1" d="M192.466,86.61c0,0,0.847,0.565,1.009-0.767l10.876,2.207"/>
<polyline class="st1" points="262.681,98.635 261.955,100.209 261.914,103.158 270.429,104.931 "/>
<polyline class="st1" points="271.034,100.25 270.268,101.985 270.429,104.931 272.245,100.532 "/>
<line class="st1" x1="261.955" y1="100.209" x2="270.268" y2="101.985"/>
<polyline class="st1" points="238.58,93.719 237.439,96.921 240.273,97.473 241.487,94.345 "/>
<polyline class="st1" points="237.445,96.939 237.439,99.971 240.273,100.523 240.279,97.452 "/>
<line class="st1" x1="242.246" y1="95.741" x2="262.076" y2="99.765"/>
<line class="st1" x1="240.265" y1="100.528" x2="242.587" y2="94.702"/>
<polyline class="st1" points="204.786,86.819 204.252,88.286 204.113,88.67 204.046,92.337 212.424,94.02 214.51,88.771 "/>
<polyline class="st1" points="213.131,88.501 212.458,90.117 204.382,88.434 "/>
<line class="st1" x1="212.559" y1="93.549" x2="212.458" y2="90.117"/>
<polyline class="st1" points="267.158,149.316 266.454,150.773 266.404,151.627 265.902,153.235 266.806,153.436 266.672,154.06 "/>
<polyline class="st1" points="269.48,154.673 269.322,153.938 268.587,153.728 269.112,152.205 269.059,151.26 269.795,150.157 
	269.642,146.726 279.839,120.159 280.222,120.02 280.636,119.661 282.715,120.089 282.772,121.221 "/>
<polyline class="st1" points="286.051,120.774 283.786,120.309 283.08,120.961 282.135,121.696 282.03,122.694 282.135,125.74 
	273.155,150.63 272.368,150.367 271.632,151.785 271.685,152.625 271.107,154.253 272,154.463 272.158,155.251 "/>
<polyline class="st1" points="266.672,154.06 268.678,154.493 268.905,153.942 "/>
<polyline class="st1" points="269.584,154.704 271.413,155.087 271.587,154.444 "/>
<line class="st1" x1="272.893" y1="155.408" x2="272.236" y2="155.265"/>
<polyline class="st1" points="275.521,118.675 275.272,118.984 274.515,119.392 264.573,146.552 264.565,149.111 263.87,150.293 
	263.916,151.173 263.36,152.749 264.194,152.981 264.193,153.587 265.99,153.948 266.234,153.326 "/>
<polyline class="st1" points="274.598,118.42 273.194,118.131 272.534,118.764 271.881,121.226 272.132,123.89 262.836,148.612 
	261.982,148.361 261.279,149.768 261.329,150.521 260.776,152.23 261.681,152.431 261.681,152.984 263.383,153.398 263.667,152.84 
	"/>
<polyline class="st1" points="277.66,120.492 277.508,119.018 275.391,118.583 "/>
<polyline class="st1" points="183.644,99.725 248.579,113.072 248.512,114.358 247.749,114.567 247.679,115.539 247.887,117.83 "/>
<polyline class="st1" points="280.19,119.516 278.512,119.191 278.215,119.732 277.836,120.111 277.187,122.032 276.997,124.412 
	267.475,149.112 "/>
<path class="st1" d="M276.691,147.69l0.91-2.329c0,0,0.645-1.176,0.835,0.228c0.19,1.404,0.228,2.58,0.228,2.58"/>
<line class="st1" x1="278.463" y1="146.113" x2="280.57" y2="140.776"/>
<polygon class="st1" points="245.335,117.358 249.239,118.187 250.423,115.051 263.851,117.832 262.786,120.908 266.632,121.736 
	264.206,128.539 260.302,127.593 259.178,130.669 263.141,131.497 260.657,138.241 256.575,137.354 255.392,140.607 
	242.022,137.827 243.205,134.692 239.124,133.923 241.845,127.119 245.631,127.888 246.755,124.871 242.732,124.043 "/>
<line class="st1" x1="263.851" y1="117.832" x2="263.994" y2="121.093"/>
<line class="st1" x1="266.632" y1="121.736" x2="266.91" y2="131.646"/>
<polyline class="st1" points="264.206,128.539 264.48,137.755 263.37,137.547 "/>
<line class="st1" x1="263.141" y1="131.497" x2="263.37" y2="140.949"/>
<polyline class="st1" points="256.575,137.354 256.982,146.919 260.87,147.683 260.657,138.241 "/>
<polyline class="st1" points="255.392,140.607 255.733,150.044 256.982,146.919 "/>
<polyline class="st1" points="242.022,137.827 242.264,147.336 238.237,146.433 239.417,143.24 239.124,133.923 "/>
<line class="st1" x1="242.148" y1="143.8" x2="239.417" y2="143.24"/>
<polyline class="st1" points="255.733,150.044 259.686,150.789 260.87,147.683 "/>
<polyline class="st1" points="266.916,128.277 267.692,128.432 267.951,129.312 259.777,151.815 238.276,147.34 238.237,146.433 "/>
<line class="st1" x1="282.135" y1="125.74" x2="284.165" y2="126.109"/>
<polyline class="st1" points="210.755,142.738 209.061,142.37 208.914,141.633 208.067,141.449 208.73,139.792 208.656,138.908 
	209.356,137.545 210.24,137.729 219.558,112.574 219.484,110.18 220.147,108.154 220.81,107.454 "/>
<polyline class="st1" points="215.833,143.754 214.139,143.386 213.991,142.649 213.144,142.465 213.807,140.807 213.733,139.923 
	214.433,138.561 215.317,138.745 224.635,113.589 224.562,111.195 225.225,109.169 225.888,108.47 "/>
<polyline class="st1" points="221.219,144.778 219.525,144.409 219.377,143.673 218.53,143.489 219.193,141.831 219.12,140.947 
	219.819,139.585 220.703,139.769 229.625,114.613 229.551,112.219 230.214,110.193 230.877,109.493 "/>
<polyline class="st1" points="218.564,144.359 216.869,143.991 216.722,143.254 215.875,143.07 216.434,141.621 216.349,140.603 
	217.07,139.585 217.239,136.286 227.336,108.753 "/>
<polyline class="st1" points="223.78,145.337 222.086,144.969 221.939,144.232 221.092,144.048 221.65,142.599 221.566,141.581 
	222.287,140.563 222.456,137.264 232.476,109.865 "/>
<polyline class="st1" points="226.436,145.886 224.741,145.518 224.594,144.781 223.747,144.597 224.41,142.94 224.336,142.056 
	225.036,140.693 225.92,140.877 234.842,115.721 234.768,113.327 235.431,111.302 236.094,110.602 "/>
<polyline class="st1" points="228.997,146.446 227.303,146.077 227.155,145.341 226.308,145.157 226.867,143.708 226.782,142.69 
	227.503,141.671 227.672,138.373 237.769,110.84 "/>
<polyline class="st1" points="231.457,147.06 229.762,146.692 229.615,145.955 228.768,145.771 229.431,144.114 229.357,143.23 
	230.057,141.867 230.941,142.051 239.863,116.895 239.789,114.501 240.452,112.475 241.115,111.776 "/>
<polyline class="st1" points="238.976,135.213 236.158,143.16 235.274,142.975 234.574,144.338 234.648,145.222 233.985,146.879 
	234.832,147.064 234.979,147.8 236.673,148.169 239.354,141.23 "/>
<line class="st1" x1="242.961" y1="123.976" x2="241.658" y2="127.651"/>
<polyline class="st1" points="246.332,112.884 245.669,113.584 245.006,115.61 245.079,118.004 "/>
<polyline class="st1" points="234.018,147.619 232.324,147.251 232.176,146.514 231.329,146.33 231.888,144.881 231.803,143.863 
	232.525,142.845 232.693,139.546 242.79,112.013 "/>
<polyline class="st1" points="222.269,107.939 212.067,135.894 211.897,138.429 211.271,139.681 211.308,140.492 210.682,141.965 
	211.529,142.149 211.676,142.886 213.37,143.254 "/>
<polyline class="st1" points="173.781,135.215 172.087,134.847 171.939,134.11 171.092,133.926 171.755,132.269 171.682,131.385 
	172.381,130.022 173.265,130.206 182.584,105.05 182.51,102.656 183.173,100.631 183.836,99.931 "/>
<polyline class="st1" points="185.295,100.416 175.092,128.371 174.923,130.906 174.297,132.158 174.334,132.968 173.707,134.442 
	174.555,134.626 174.702,135.362 176.396,135.731 "/>
<polyline class="st1" points="178.929,136.416 177.235,136.048 177.088,135.311 176.241,135.127 176.904,133.47 176.83,132.586 
	177.53,131.223 178.414,131.407 187.732,106.252 187.658,103.858 188.321,101.832 188.984,101.132 "/>
<polyline class="st1" points="193.628,102.003 192.965,102.703 192.302,104.729 192.486,106.69 183.47,132.338 182.705,132.095 
	182.005,133.457 182.079,134.341 181.416,135.999 182.263,136.183 182.41,136.919 184.105,137.288 186.764,130.219 "/>
<polyline class="st1" points="196.25,102.301 195.587,103.001 194.924,105.027 195.049,107.107 "/>
<polyline class="st1" points="190.443,101.617 180.241,129.572 180.071,132.107 179.445,133.359 179.482,134.17 178.856,135.643 
	179.703,135.827 179.85,136.564 181.544,136.932 "/>
<polyline class="st1" points="192.486,106.69 196.419,107.464 197.731,104.246 211.14,107.107 210.127,110.206 214,111.04 
	211.676,117.774 207.564,116.88 206.551,119.801 210.365,120.695 208.041,127.548 203.929,126.654 202.796,129.694 189.328,126.952 
	190.519,123.972 186.825,123.198 186.884,132.435 185.573,135.713 185.573,136.607 207.028,140.957 215.311,118.311 
	214.775,117.536 "/>
<polyline class="st1" points="189.208,116.463 192.844,117.178 194.036,114.079 190.341,113.305 190.579,116.404 "/>
<line class="st1" x1="211.14" y1="107.107" x2="211.438" y2="110.504"/>
<line class="st1" x1="214" y1="111.04" x2="214.358" y2="120.695"/>
<polyline class="st1" points="211.676,117.774 211.914,127.25 210.865,127.039 "/>
<line class="st1" x1="210.365" y1="120.695" x2="210.723" y2="130.647"/>
<line class="st1" x1="208.041" y1="127.548" x2="208.279" y2="137.322"/>
<polyline class="st1" points="204.048,126.714 204.405,136.07 203.154,139.289 202.796,129.694 "/>
<line class="st1" x1="204.405" y1="136.07" x2="208.279" y2="136.905"/>
<line class="st1" x1="203.154" y1="139.289" x2="207.316" y2="140.185"/>
<polyline class="st1" points="185.573,135.713 189.602,136.463 189.328,126.952 "/>
<line class="st1" x1="186.845" y1="132.5" x2="189.499" y2="133.051"/>
<path class="st1" d="M169.673,116.545c0,0,0.358-1.134,1.617-0.995c0,0,1.202,0.166,0.947,1.507l-0.42,1.259
	c0,0-0.343,1.394-1.637,1.042c0,0-1.067-0.017-0.974-1.182L169.673,116.545z"/>
<path class="st1" d="M166.845,120.307l0.059-2.274c0,0-0.095-0.634,0.761-0.507s1.574,0.27,1.574,0.27"/>
<path class="st1" d="M172.091,118.337l1.845,0.293c0,0,0.539-0.015,0.539,0.568s-0.045,2.679-0.045,2.679l-1.28-0.256"/>
<polyline class="st1" points="172.328,117.057 172.798,117.12 172.764,118.337 "/>
<line class="st1" x1="170.127" y1="117.403" x2="171.363" y2="117.641"/>
<line class="st1" x1="170.3" y1="116.752" x2="171.537" y2="116.99"/>
<ellipse transform="matrix(0.1987 -0.9801 0.9801 0.1987 0.066 259.5847)" class="st1" cx="158.775" cy="129.752" rx="1.756" ry="0.597"/>
<circle class="st1" cx="280.215" cy="96.999" r="0.889"/>
<circle class="st1" cx="248.703" cy="90.709" r="0.889"/>
<path class="st1" d="M217.636,85.246c-0.491,0-0.889-0.398-0.889-0.889s0.398-0.889,0.889-0.889c0.123,0,0.24,0.025,0.346,0.07"/>
<line class="st1" x1="150.38" y1="145.345" x2="152.839" y2="138.289"/>
<g>
	<path class="st1" d="M28.013,201.511l28.452-75.469l7.727,1.703c0,0-0.708,2.894,2.758,3.481c3.466,0.588,4.063-1.978,4.063-1.978
		l7.8,1.72L50.64,206.26"/>
	<path class="st1" d="M54.681,130.494l-1.171-3.6l0.911-2.255c0,0,0.564-1.084,2.082-0.954l7.026,1.475l0.477-1.518l-1.258-0.304
		l1.128-3.426"/>
	<polyline class="st1" points="53.987,126.981 54.768,127.068 55.679,127.978 	"/>
	<polyline class="st1" points="73.893,121.257 76.322,121.777 74.11,127.631 75.064,130.147 	"/>
	<polyline class="st1" points="61.707,127.198 61.1,124.856 63.355,119.001 64.602,119.268 	"/>
	<polyline class="st1" points="72.896,129.713 72.072,127.415 63.485,125.593 64.192,127.746 	"/>
	<path class="st1" d="M74.848,128.759l0.26-0.997l5.421,1.171c0,0,1.301,0.347,1.171,1.344c-0.13,0.997-0.824,2.429-0.824,2.429
		l-1.344-0.304l0.651-1.605"/>
	<path class="st1" d="M74.067,127.328l-1.821-0.347l1.128-4.814c0,0,0.911-1.128,0.737-2.559c-0.173-1.431-1.297-4.008-3.899-4.139"
		/>
	<path class="st1" d="M64.245,121.371l0.871-3.289c0,0,1.322-2.999,4.676-2.612c3.354,0.387,3.741,3.999,3.451,5.16l-0.774,2.806
		c0,0-1.516,3.193-4.902,2.419C67.566,125.854,64.374,125.338,64.245,121.371z"/>
	<path class="st1" d="M66.051,118.308c0,0,1.161-2.29,3.773-1.774c0,0,2.483,0.419,2.483,3.354l-0.645,2.773
		c0,0-1.032,2.709-3.805,2.29c0,0-2.548-0.484-2.58-3.16L66.051,118.308z"/>
	<polyline class="st1" points="76.322,121.777 77.777,125.561 78.277,124.482 79.048,126.678 78.432,128.297 	"/>
	<line class="st1" x1="67.336" y1="118.087" x2="71.304" y2="118.896"/>
	<line class="st1" x1="67.066" y1="119.32" x2="71.034" y2="120.129"/>
	<line class="st1" x1="66.797" y1="120.553" x2="70.765" y2="121.362"/>
	<line class="st1" x1="66.527" y1="121.786" x2="70.495" y2="122.595"/>
	<polyline class="st1" points="65.718,126.255 66.103,127.256 69.378,127.988 	"/>
	<path class="st1" d="M69.917,127.102c0,0-0.457,3.056-2.62,2.658c-1.888-0.347-1.194-2.504-1.194-2.504"/>
	<line class="st1" x1="70.495" y1="127.218" x2="71.304" y2="129.183"/>
	<path class="st1" d="M65.024,126.023c0,0-0.771,1.503-0.809,2.504"/>
	<polyline class="st1" points="81.7,130.277 83.479,135.039 82.515,137.774 78.47,136.888 	"/>
	<polyline class="st1" points="78.813,130.969 79.493,132.441 80.281,135.424 81.745,135.694 80.876,132.706 	"/>
	<polyline class="st1" points="51.127,206.419 49.697,210.232 51.257,214.912 53.554,209.365 52.357,205.611 79.555,133.431 	"/>
	<polyline class="st1" points="51.257,214.912 27.894,210.177 26.281,205.339 27.542,201.72 28.882,202.033 29.161,201.505 
		49.714,205.87 50.405,206.197 	"/>
	<line class="st1" x1="26.542" y1="205.36" x2="49.697" y2="210.232"/>
	<path class="st1" d="M29.03,199.156l3.113,0.769c0,0,1.614-0.846,2.498,0.423l15.528,3.421c0,0,0.538-0.384,1.384-0.269"/>
	<polyline class="st1" points="72.721,125.463 73.91,125.679 75.044,122.492 73.748,121.844 	"/>
	<polyline class="st1" points="82.12,137.645 81.528,136.42 82.035,135.153 82.88,136.589 	"/>
	<ellipse class="st1" cx="76.29" cy="126.936" rx="0.507" ry="0.993"/>
	<ellipse class="st1" cx="33.333" cy="201.007" rx="0.694" ry="0.595"/>
</g>
<g>
	<defs>
		<circle id="SVGID_1_" cx="40.624" cy="58.678" r="39.525"/>
	</defs>
	<clipPath id="SVGID_00000052101974899864898680000016972787621944854446_">
		<use xlink:href="#SVGID_1_"  style="overflow:visible;"/>
	</clipPath>
	<g style="clip-path:url(#SVGID_00000052101974899864898680000016972787621944854446_);">
		<path class="st1" d="M-42.146,207.907L16.173,53.214l15.839,3.492c0,0-1.452,5.932,5.653,7.136s8.327-4.054,8.327-4.054
			l15.989,3.525L4.233,217.642"/>
		<path class="st1" d="M12.517,62.339l-2.4-7.378l1.867-4.623c0,0,1.156-2.222,4.267-1.956l14.401,3.022l0.978-3.111l-2.578-0.622
			l2.311-7.023"/>
		<polyline class="st1" points="11.094,55.138 12.694,55.316 14.561,57.183 		"/>
		<polyline class="st1" points="51.897,43.405 56.875,44.471 52.342,56.472 54.297,61.628 		"/>
		<polyline class="st1" points="26.918,55.583 25.673,50.783 30.296,38.782 32.852,39.329 		"/>
		<polyline class="st1" points="49.852,60.739 48.163,56.027 30.562,52.294 32.011,56.706 		"/>
		<path class="st1" d="M53.853,58.783l0.533-2.045l11.112,2.4c0,0,2.667,0.711,2.4,2.756s-1.689,4.978-1.689,4.978l-2.756-0.622
			l1.333-3.289"/>
		<path class="st1" d="M52.253,55.85l-3.734-0.711l2.311-9.867c0,0,1.867-2.311,1.511-5.245c-0.356-2.934-2.659-8.216-7.993-8.483"
			/>
		<path class="st1" d="M32.12,43.64l1.785-6.742c0,0,2.71-6.148,9.585-5.354c6.875,0.793,7.668,8.197,7.073,10.576l-1.586,5.751
			c0,0-3.107,6.544-10.048,4.958C38.928,52.828,32.384,51.771,32.12,43.64z"/>
		<path class="st1" d="M35.822,37.36c0,0,2.38-4.693,7.734-3.636c0,0,5.09,0.859,5.09,6.875l-1.322,5.685c0,0-2.115,5.553-7.8,4.693
			c0,0-5.222-0.992-5.288-6.478L35.822,37.36z"/>
		<polyline class="st1" points="56.875,44.471 59.857,52.228 60.883,50.017 62.463,54.518 61.199,57.835 		"/>
		<line class="st1" x1="38.456" y1="36.908" x2="46.59" y2="38.567"/>
		<line class="st1" x1="37.903" y1="39.435" x2="46.037" y2="41.094"/>
		<line class="st1" x1="37.35" y1="41.962" x2="45.484" y2="43.621"/>
		<line class="st1" x1="36.797" y1="44.489" x2="44.931" y2="46.148"/>
		<polyline class="st1" points="35.139,53.65 35.929,55.703 42.641,57.203 		"/>
		<path class="st1" d="M43.747,55.387c0,0-0.937,6.263-5.37,5.449c-3.87-0.711-2.448-5.133-2.448-5.133"/>
		<line class="st1" x1="44.931" y1="55.624" x2="46.59" y2="59.651"/>
		<path class="st1" d="M33.718,53.176c0,0-1.579,3.08-1.658,5.133"/>
		<polyline class="st1" points="67.898,61.894 71.544,71.655 69.57,77.262 61.278,75.445 		"/>
		<polyline class="st1" points="61.98,63.313 63.374,66.331 64.99,72.445 67.991,72.997 66.209,66.873 		"/>
		<polyline class="st1" points="5.231,217.966 2.3,225.783 5.498,235.376 10.205,224.006 7.752,216.311 63.502,68.359 		"/>
		<polyline class="st1" points="5.498,235.376 -42.39,225.67 -45.696,215.753 -43.111,208.334 -40.365,208.977 -39.793,207.893 
			2.334,216.841 3.751,217.512 		"/>
		<line class="st1" x1="-45.161" y1="215.797" x2="2.3" y2="225.783"/>
		<path class="st1" d="M-40.062,203.079l6.382,1.576c0,0,3.309-1.733,5.121,0.867l31.829,7.012c0,0,1.103-0.788,2.836-0.551"/>
		<polyline class="st1" points="49.495,52.026 51.93,52.469 54.256,45.937 51.598,44.608 		"/>
		<polyline class="st1" points="68.759,76.998 67.546,74.487 68.586,71.889 70.317,74.833 		"/>
		<ellipse class="st1" cx="56.809" cy="55.047" rx="1.039" ry="2.035"/>
		<ellipse class="st1" cx="-31.242" cy="206.873" rx="1.422" ry="1.219"/>
	</g>
</g>
<circle class="st3" cx="40.624" cy="58.678" r="39.525"/>
<g>
	<g>
		<path class="st4" d="M36.171,150.377c0,7.593-6.246,13.745-13.95,13.745c-7.707,0-13.953-6.152-13.953-13.745
			c0-7.596,6.246-13.755,13.953-13.755C29.925,136.622,36.171,142.781,36.171,150.377"/>
	</g>
	<g>
		<path class="st5" d="M27.165,155.044v1.774h-9.936c-0.014-0.444,0.058-0.872,0.215-1.282c0.253-0.677,0.658-1.343,1.215-1.999
			c0.557-0.656,1.362-1.415,2.415-2.276c1.634-1.34,2.738-2.401,3.312-3.184c0.574-0.783,0.861-1.523,0.861-2.221
			c0-0.731-0.262-1.348-0.784-1.851c-0.523-0.502-1.205-0.754-2.046-0.754c-0.889,0-1.6,0.267-2.133,0.8s-0.803,1.271-0.81,2.215
			l-1.897-0.194c0.13-1.415,0.619-2.493,1.466-3.235c0.848-0.741,1.986-1.112,3.415-1.112c1.442,0,2.584,0.399,3.425,1.199
			s1.261,1.791,1.261,2.974c0,0.602-0.123,1.193-0.369,1.774s-0.655,1.192-1.225,1.835c-0.571,0.643-1.52,1.524-2.846,2.646
			c-1.107,0.93-1.818,1.561-2.133,1.893c-0.314,0.331-0.574,0.664-0.779,0.999H27.165z"/>
	</g>
</g>
<g>
	<g>
		<path class="st4" d="M31.279,16.627c0,7.593-6.246,13.745-13.95,13.745c-7.707,0-13.953-6.152-13.953-13.745
			c0-7.596,6.246-13.755,13.953-13.755C25.034,2.872,31.279,9.031,31.279,16.627"/>
	</g>
	<g>
		<path class="st5" d="M18.926,23.668h-1.846V11.907c-0.444,0.424-1.027,0.848-1.749,1.271s-1.369,0.742-1.943,0.954v-1.784
			c1.032-0.485,1.935-1.073,2.707-1.764s1.319-1.36,1.641-2.01h1.189V23.668z"/>
	</g>
</g>
<line class="st3" x1="213.829" y1="130.833" x2="180.544" y2="185.882"/>
<g>
	<path class="st6" d="M57.425,170.776c0,0,0.86,7.461-1.916,15.435c-2.53,7.26-8.699,12.327-8.699,12.327l-15.128-3.319
		c0,0,6.757-5.595,9.286-12.855c2.78-7.976,1.296-15.195,1.296-15.195l-6.967-1.515l12.538-10.088l17.126,16.813L57.425,170.776z"/>
</g>
<g>
	<polygon class="st6" points="41.978,39.503 29.423,26.153 35.69,27.263 35.479,6.235 47.837,8.42 48.048,29.45 54.315,30.558 	"/>
</g>
<g>
	<path class="st7" d="M79.382,183.608l1.217-0.191c0.068,0.487,0.259,0.861,0.571,1.121s0.749,0.39,1.309,0.39
		c0.565,0,0.984-0.115,1.258-0.346c0.273-0.229,0.41-0.5,0.41-0.81c0-0.278-0.121-0.497-0.362-0.656
		c-0.168-0.109-0.588-0.249-1.258-0.417c-0.902-0.229-1.528-0.425-1.876-0.592c-0.349-0.166-0.613-0.396-0.793-0.69
		s-0.27-0.618-0.27-0.974c0-0.324,0.074-0.623,0.222-0.899c0.148-0.275,0.35-0.505,0.605-0.687c0.191-0.142,0.452-0.261,0.783-0.359
		c0.331-0.098,0.685-0.146,1.063-0.146c0.57,0,1.07,0.082,1.5,0.246s0.749,0.386,0.954,0.666s0.346,0.655,0.424,1.125l-1.203,0.164
		c-0.055-0.374-0.213-0.666-0.475-0.875c-0.262-0.21-0.632-0.314-1.111-0.314c-0.565,0-0.968,0.093-1.21,0.28
		c-0.242,0.187-0.362,0.405-0.362,0.656c0,0.159,0.05,0.303,0.15,0.431c0.1,0.132,0.257,0.241,0.472,0.328
		c0.123,0.045,0.485,0.15,1.087,0.314c0.871,0.232,1.478,0.423,1.822,0.57c0.344,0.148,0.614,0.363,0.81,0.646
		c0.196,0.282,0.294,0.633,0.294,1.053c0,0.41-0.12,0.796-0.359,1.158s-0.584,0.643-1.036,0.841s-0.961,0.298-1.531,0.298
		c-0.943,0-1.662-0.196-2.157-0.588C79.834,184.958,79.518,184.377,79.382,183.608z"/>
	<path class="st7" d="M86.846,185.775v-10.021h1.23v10.021H86.846z"/>
	<path class="st7" d="M89.526,182.145c0-1.345,0.374-2.341,1.121-2.987c0.625-0.538,1.385-0.807,2.283-0.807
		c0.998,0,1.814,0.327,2.447,0.98c0.633,0.654,0.95,1.558,0.95,2.711c0,0.934-0.14,1.669-0.42,2.204
		c-0.28,0.536-0.688,0.951-1.224,1.248c-0.536,0.296-1.12,0.444-1.753,0.444c-1.016,0-1.838-0.326-2.464-0.978
		C89.84,184.309,89.526,183.37,89.526,182.145z M90.791,182.145c0,0.93,0.203,1.626,0.608,2.088
		c0.406,0.463,0.916,0.694,1.531,0.694c0.611,0,1.119-0.232,1.524-0.697s0.608-1.174,0.608-2.126c0-0.898-0.204-1.578-0.612-2.041
		c-0.408-0.462-0.915-0.693-1.521-0.693c-0.615,0-1.125,0.229-1.531,0.69C90.993,180.52,90.791,181.215,90.791,182.145z"/>
	<path class="st7" d="M100.457,184.674l0.178,1.087c-0.346,0.072-0.656,0.109-0.93,0.109c-0.447,0-0.793-0.071-1.039-0.212
		c-0.246-0.142-0.419-0.327-0.52-0.558c-0.1-0.229-0.15-0.714-0.15-1.452v-4.177h-0.902v-0.957h0.902v-1.798l1.224-0.738v2.536
		h1.237v0.957h-1.237v4.245c0,0.351,0.021,0.576,0.065,0.677c0.043,0.1,0.114,0.18,0.212,0.239c0.098,0.059,0.238,0.089,0.42,0.089
		C100.053,184.722,100.234,184.705,100.457,184.674z"/>
	<path class="st7" d="M105.208,180.832c0-1.186,0.122-2.139,0.366-2.861c0.244-0.722,0.606-1.279,1.087-1.671
		c0.481-0.393,1.086-0.588,1.815-0.588c0.538,0,1.009,0.108,1.415,0.324c0.406,0.217,0.741,0.529,1.005,0.937
		c0.264,0.408,0.472,0.905,0.622,1.49c0.15,0.586,0.226,1.375,0.226,2.369c0,1.176-0.121,2.125-0.362,2.847
		c-0.242,0.723-0.603,1.281-1.083,1.675c-0.481,0.395-1.088,0.592-1.822,0.592c-0.966,0-1.725-0.347-2.276-1.039
		C105.538,184.073,105.208,182.714,105.208,180.832z M106.472,180.832c0,1.645,0.192,2.74,0.578,3.284
		c0.385,0.545,0.86,0.817,1.425,0.817s1.04-0.273,1.425-0.82s0.578-1.641,0.578-3.281c0-1.65-0.192-2.746-0.578-3.288
		c-0.385-0.543-0.865-0.813-1.439-0.813c-0.565,0-1.016,0.239-1.354,0.718C106.684,178.059,106.472,179.187,106.472,180.832z"/>
	<path class="st7" d="M82.225,202.721c-0.679-0.857-1.253-1.859-1.723-3.008s-0.704-2.338-0.704-3.568
		c0-1.085,0.175-2.124,0.526-3.117c0.41-1.153,1.043-2.302,1.9-3.445h0.882c-0.551,0.947-0.916,1.624-1.094,2.03
		c-0.278,0.629-0.497,1.285-0.656,1.969c-0.196,0.852-0.294,1.709-0.294,2.57c0,2.191,0.681,4.382,2.044,6.569H82.225z"/>
	<path class="st7" d="M84.638,199.775v-10.021h3.76c0.766,0,1.38,0.102,1.842,0.304c0.462,0.203,0.825,0.516,1.087,0.937
		c0.262,0.422,0.393,0.862,0.393,1.323c0,0.428-0.116,0.831-0.349,1.21c-0.232,0.378-0.583,0.684-1.053,0.916
		c0.606,0.178,1.072,0.48,1.398,0.909c0.326,0.428,0.489,0.934,0.489,1.518c0,0.469-0.099,0.905-0.297,1.309
		s-0.443,0.715-0.735,0.934s-0.657,0.384-1.097,0.495c-0.44,0.112-0.979,0.168-1.617,0.168H84.638z M85.965,193.964h2.167
		c0.588,0,1.009-0.039,1.265-0.116c0.337-0.101,0.591-0.267,0.762-0.499s0.256-0.524,0.256-0.875c0-0.333-0.08-0.626-0.239-0.879
		s-0.387-0.426-0.684-0.52c-0.296-0.093-0.804-0.14-1.524-0.14h-2.003V193.964z M85.965,198.592h2.495
		c0.428,0,0.729-0.017,0.902-0.048c0.305-0.055,0.561-0.146,0.766-0.273c0.205-0.128,0.374-0.313,0.506-0.558
		c0.132-0.243,0.198-0.525,0.198-0.844c0-0.374-0.096-0.698-0.287-0.975c-0.191-0.275-0.457-0.469-0.796-0.581
		c-0.339-0.111-0.828-0.167-1.466-0.167h-2.317V198.592z"/>
	<path class="st7" d="M93.416,196.145c0-1.345,0.374-2.341,1.121-2.987c0.625-0.538,1.385-0.807,2.283-0.807
		c0.998,0,1.814,0.327,2.447,0.98c0.633,0.654,0.95,1.558,0.95,2.711c0,0.934-0.14,1.669-0.42,2.204
		c-0.28,0.536-0.688,0.951-1.224,1.248c-0.536,0.296-1.12,0.444-1.753,0.444c-1.016,0-1.838-0.326-2.464-0.978
		C93.729,198.309,93.416,197.37,93.416,196.145z M94.68,196.145c0,0.93,0.203,1.626,0.608,2.088
		c0.406,0.463,0.916,0.694,1.531,0.694c0.611,0,1.119-0.232,1.524-0.697s0.608-1.174,0.608-2.126c0-0.898-0.204-1.578-0.612-2.041
		c-0.408-0.462-0.915-0.693-1.521-0.693c-0.615,0-1.125,0.229-1.531,0.69C94.883,194.52,94.68,195.215,94.68,196.145z"/>
	<path class="st7" d="M101.202,196.145c0-1.345,0.374-2.341,1.121-2.987c0.625-0.538,1.385-0.807,2.283-0.807
		c0.998,0,1.814,0.327,2.447,0.98c0.633,0.654,0.95,1.558,0.95,2.711c0,0.934-0.14,1.669-0.42,2.204
		c-0.28,0.536-0.688,0.951-1.224,1.248c-0.536,0.296-1.12,0.444-1.753,0.444c-1.016,0-1.838-0.326-2.464-0.978
		C101.515,198.309,101.202,197.37,101.202,196.145z M102.466,196.145c0,0.93,0.203,1.626,0.608,2.088
		c0.406,0.463,0.916,0.694,1.531,0.694c0.611,0,1.119-0.232,1.524-0.697s0.608-1.174,0.608-2.126c0-0.898-0.204-1.578-0.612-2.041
		c-0.408-0.462-0.915-0.693-1.521-0.693c-0.615,0-1.125,0.229-1.531,0.69C102.669,194.52,102.466,195.215,102.466,196.145z"/>
	<path class="st7" d="M112.132,198.674l0.178,1.087c-0.346,0.072-0.656,0.109-0.93,0.109c-0.447,0-0.793-0.071-1.039-0.212
		c-0.246-0.142-0.419-0.327-0.52-0.558c-0.1-0.229-0.15-0.714-0.15-1.452v-4.177h-0.902v-0.957h0.902v-1.798l1.224-0.738v2.536
		h1.237v0.957h-1.237v4.245c0,0.351,0.021,0.576,0.065,0.677c0.043,0.1,0.114,0.18,0.212,0.239c0.098,0.059,0.238,0.089,0.42,0.089
		C111.729,198.722,111.909,198.705,112.132,198.674z"/>
	<path class="st7" d="M114.142,202.721h-0.882c1.363-2.188,2.044-4.378,2.044-6.569c0-0.857-0.098-1.707-0.294-2.55
		c-0.155-0.684-0.372-1.34-0.649-1.969c-0.178-0.41-0.544-1.094-1.101-2.051h0.882c0.857,1.144,1.49,2.292,1.9,3.445
		c0.351,0.993,0.526,2.032,0.526,3.117c0,1.23-0.236,2.42-0.708,3.568S114.817,201.864,114.142,202.721z"/>
</g>
<line class="st8" x1="76.054" y1="182.189" x2="57.66" y2="182.189"/>
<line class="st9" x1="76.054" y1="182.189" x2="57.66" y2="182.189"/>
<line class="st3" x1="46.941" y1="100.01" x2="62.529" y2="116.547"/>
<line class="st8" x1="77.887" y1="144.25" x2="165.925" y2="126.893"/>
<line class="st3" x1="78.39" y1="144.25" x2="166.428" y2="126.893"/>
<g>
	<path class="st1" d="M242.551,94.599"/>
	<g>
		<path class="st1" d="M255.507,105.16"/>
	</g>
	<g>
		<path class="st1" d="M261.443,105.459"/>
		<path class="st1" d="M261.762,104.631"/>
		<path class="st1" d="M262.08,103.802"/>
	</g>
	<g>
		<path class="st1" d="M261.839,106.461"/>
	</g>
	<path class="st1" d="M282.056,112.451"/>
	<polygon class="st1" points="255.216,104.161 254.199,103.929 252.631,108.605 253.705,108.837 	"/>
	<polyline class="st1" points="252.631,108.808 252.689,110.202 253.814,110.449 253.734,108.895 	"/>
	<path class="st1" d="M253.906,110.357"/>
	<path class="st1" d="M282.798,115.81"/>
	<path class="st1" d="M285.948,111.157c0,0-1.135,0.077-1.368,0.903c0,0-0.335,0.852,0.852,0.723c0,0,1.187,0,1.548-0.877
		C286.98,111.905,287.135,110.976,285.948,111.157z"/>
	<path class="st1" d="M282.803,114.632l0.075,2.133c0,0,1.004,0.427,1.205-0.276l0.427-0.954l-0.025-1.686"/>
	<polyline class="st1" points="284.685,115.661 286.115,115.912 287.019,113.427 286.969,112.022 	"/>
	<polyline class="st1" points="285.613,112.875 285.639,115.059 286.341,115.184 	"/>
	<path class="st1" d="M285.714,111.005c0.108-0.888-0.173-0.953-0.173-0.953l-0.714-0.13l-0.123,1.505"/>
	<path class="st1" d="M284.775,112.819l-0.654,2.042c0,0-0.099,0.694-1.209,0.278"/>
	<path class="st1" d="M218.375,99.178c-1.14-0.534-0.675-1.443-0.675-1.443c0.442-0.885,1.629-0.279,1.629-0.279
		s1.304,0.349,0.954,1.536C220.284,98.991,220.214,100.039,218.375,99.178z"/>
	<polyline class="st1" points="220.458,98.043 220.821,97.1 222.181,97.349 222.08,98.954 220.489,103.906 	"/>
	<polyline class="st1" points="220.552,99.017 221.008,99.125 220.519,100.312 219.658,100.126 219.052,102.011 220.428,102.269 	
		"/>
	<polyline class="st1" points="219.888,100.317 218.067,99.979 218.083,101.252 217.68,101.172 217.664,101.897 218.873,102.123 	
		"/>
	<path class="st1" d="M219.453,100.575l-0.371,1.064c0,0-0.338,0.516,1.358,0.703l0.048,1.563l-1.052-0.107
		c0,0-0.435-0.016-0.435-0.435s-0.032-1.434-0.032-1.434"/>
	<polygon class="st1" points="249.251,108.047 250.54,108.406 250.54,109.76 249.251,109.401 	"/>
	<polyline class="st1" points="249.283,107.949 251.013,103.248 252.237,103.558 250.54,108.406 	"/>
	<polyline class="st1" points="250.54,109.76 252.188,105.044 252.254,103.624 	"/>
	<polyline class="st1" points="255.216,104.161 255.379,105.755 253.906,110.357 	"/>
</g>
</svg>
