<?xml version="1.0" encoding="utf-8"?>
<!-- Generator: Adobe Illustrator 26.0.3, SVG Export Plug-In . SVG Version: 6.00 Build 0)  -->
<svg version="1.1" id="Layer_1" xmlns="http://www.w3.org/2000/svg" xmlns:xlink="http://www.w3.org/1999/xlink" x="0px" y="0px"
	 viewBox="0 0 361.3 293.7" style="enable-background:new 0 0 361.3 293.7;" xml:space="preserve">
<style type="text/css">
	.st0{fill:none;stroke:#1670B8;stroke-width:2.3914;stroke-miterlimit:10;}
	.st1{fill:none;stroke:#BBBDBF;stroke-width:2.3914;stroke-miterlimit:10;}
	.st2{fill:none;stroke:#FFFFFF;stroke-width:5.9784;stroke-miterlimit:10;}
	.st3{fill:none;stroke:#F5A800;stroke-width:2.3914;stroke-miterlimit:10;stroke-dasharray:2.3065;}
	.st4{fill:none;stroke:#FFFFFF;stroke-width:3.5871;stroke-miterlimit:10;}
	.st5{fill:none;stroke:#F5A800;stroke-width:2.3914;stroke-miterlimit:10;}
	.st6{fill:none;stroke:#1670B8;stroke-width:2.3914;stroke-miterlimit:10;stroke-dasharray:2.3065;}
	.st7{fill:#FFFFFF;stroke:#231F20;stroke-width:1.2745;stroke-miterlimit:10;}
	.st8{fill:#FFFFFF;stroke:#231F20;stroke-width:1.4842;stroke-miterlimit:10;}
	.st9{fill:#231F20;}
	.st10{fill:#FFFFFF;stroke:#231F20;stroke-width:1.3045;stroke-miterlimit:10;}
</style>
<line class="st0" x1="146.2" y1="59.4" x2="254" y2="59.4"/>
<path class="st1" d="M144.8,59.5"/>
<polyline class="st2" points="144.8,270.9 198.1,270.9 198.1,82.4 254,82.4 "/>
<polyline class="st3" points="144.8,270.9 198.1,270.9 198.1,82.4 254,82.4 "/>
<polyline class="st4" points="144.8,194.4 221.4,194.4 221.4,111.7 254,111.7 "/>
<polyline class="st5" points="144.8,194.4 221.4,194.4 221.4,111.7 254,111.7 "/>
<polyline class="st2" points="144.8,118.1 180.6,118.1 180.6,199.2 254,199.2 "/>
<polyline class="st0" points="144.8,118.1 180.6,118.1 180.6,199.2 254,199.2 "/>
<line class="st2" x1="144.8" y1="134.1" x2="254" y2="134.1"/>
<line class="st6" x1="144.8" y1="134.1" x2="254" y2="134.1"/>
<polyline class="st2" points="144.8,255.2 173.6,255.2 173.6,248.5 254,248.5 "/>
<polyline class="st5" points="144.8,255.2 173.6,255.2 173.6,248.5 254,248.5 "/>
<polyline class="st2" points="144.8,77.1 210.1,77.1 210.1,270.6 254,270.6 "/>
<polyline class="st6" points="144.8,76.8 210.1,76.8 210.1,270.6 254,270.6 "/>
<polyline class="st2" points="145.2,213 237.9,213 237.9,219.3 254,219.3 "/>
<polyline class="st3" points="145.2,213 237.9,213 237.9,219.3 254,219.3 "/>
<rect x="0.6" y="45" class="st7" width="144.1" height="104.2"/>
<g>
	<rect x="111.4" y="52.6" class="st8" width="33.4" height="15.8"/>
	<g>
		<path class="st9" d="M123.3,62.3l1,0.1c-0.2,0.6-0.4,1-0.9,1.3c-0.4,0.3-0.9,0.5-1.6,0.5c-0.8,0-1.5-0.3-1.9-0.8
			c-0.5-0.5-0.7-1.2-0.7-2.1c0-0.9,0.2-1.7,0.7-2.2s1.1-0.8,1.9-0.8c0.7,0,1.4,0.3,1.8,0.8c0.5,0.5,0.7,1.2,0.7,2.1
			c0,0.1,0,0.1,0,0.3h-4.2c0,0.6,0.2,1.1,0.5,1.4c0.3,0.3,0.7,0.5,1.2,0.5c0.3,0,0.6-0.1,0.9-0.3C123,63,123.2,62.7,123.3,62.3z
			 M120.2,60.7h3.1c0-0.5-0.2-0.8-0.4-1.1c-0.3-0.4-0.7-0.5-1.2-0.5c-0.4,0-0.8,0.1-1.1,0.4C120.4,59.9,120.3,60.3,120.2,60.7z"/>
		<path class="st9" d="M125.2,60.3c0-0.9,0.1-1.6,0.3-2.2c0.2-0.6,0.5-1,0.8-1.3s0.8-0.5,1.4-0.5c0.4,0,0.8,0.1,1.1,0.2
			c0.3,0.2,0.6,0.4,0.8,0.7s0.4,0.7,0.5,1.1c0.1,0.5,0.2,1.1,0.2,1.8c0,0.9-0.1,1.6-0.3,2.2s-0.5,1-0.8,1.3
			c-0.4,0.3-0.8,0.5-1.4,0.5c-0.7,0-1.3-0.3-1.8-0.8C125.5,62.8,125.2,61.7,125.2,60.3z M126.2,60.3c0,1.3,0.1,2.1,0.4,2.5
			c0.3,0.4,0.7,0.6,1.1,0.6c0.4,0,0.8-0.2,1.1-0.6s0.4-1.3,0.4-2.5c0-1.3-0.1-2.1-0.4-2.5c-0.3-0.4-0.7-0.6-1.1-0.6
			c-0.4,0-0.8,0.2-1,0.6C126.4,58.1,126.2,59,126.2,60.3z"/>
		<path class="st9" d="M135.1,62l0.9,0.1c-0.1,0.6-0.4,1.1-0.8,1.5c-0.4,0.4-0.9,0.5-1.5,0.5c-0.8,0-1.4-0.2-1.8-0.7
			c-0.5-0.5-0.7-1.2-0.7-2.1c0-0.6,0.1-1.1,0.3-1.6c0.2-0.5,0.5-0.8,0.9-1c0.4-0.2,0.9-0.3,1.3-0.3c0.6,0,1.1,0.2,1.5,0.5
			c0.4,0.3,0.6,0.7,0.7,1.3l-0.9,0.1c-0.1-0.4-0.2-0.7-0.5-0.8c-0.2-0.2-0.5-0.3-0.8-0.3c-0.5,0-0.9,0.2-1.2,0.5
			c-0.3,0.3-0.4,0.9-0.4,1.6c0,0.7,0.1,1.3,0.4,1.6s0.7,0.5,1.1,0.5c0.4,0,0.7-0.1,0.9-0.3C134.9,62.8,135.1,62.5,135.1,62z"/>
	</g>
	<rect x="97.4" y="52.6" class="st8" width="14.5" height="31.5"/>
</g>
<g>
	<rect x="112.1" y="68.4" class="st8" width="32.7" height="15.8"/>
	<rect x="111.4" y="109.8" class="st8" width="33.4" height="15.8"/>
	<rect x="97.4" y="109.8" class="st8" width="14.5" height="31.5"/>
	<rect x="112.1" y="125.6" class="st8" width="32.7" height="15.8"/>
	<g>
		<path class="st9" d="M123.3,78.2l1,0.1c-0.2,0.6-0.4,1-0.9,1.3c-0.4,0.3-0.9,0.5-1.6,0.5c-0.8,0-1.5-0.3-1.9-0.8
			c-0.5-0.5-0.7-1.2-0.7-2.1c0-0.9,0.2-1.7,0.7-2.2s1.1-0.8,1.9-0.8c0.7,0,1.4,0.3,1.8,0.8c0.5,0.5,0.7,1.2,0.7,2.1
			c0,0.1,0,0.1,0,0.3h-4.2c0,0.6,0.2,1.1,0.5,1.4c0.3,0.3,0.7,0.5,1.2,0.5c0.3,0,0.6-0.1,0.9-0.3C123,78.9,123.2,78.6,123.3,78.2z
			 M120.2,76.7h3.1c0-0.5-0.2-0.8-0.4-1.1c-0.3-0.4-0.7-0.5-1.2-0.5c-0.4,0-0.8,0.1-1.1,0.4C120.4,75.8,120.3,76.2,120.2,76.7z"/>
		<path class="st9" d="M125.2,76.2c0-0.9,0.1-1.6,0.3-2.2c0.2-0.6,0.5-1,0.8-1.3s0.8-0.5,1.4-0.5c0.4,0,0.8,0.1,1.1,0.2
			c0.3,0.2,0.6,0.4,0.8,0.7s0.4,0.7,0.5,1.1c0.1,0.5,0.2,1.1,0.2,1.8c0,0.9-0.1,1.6-0.3,2.2s-0.5,1-0.8,1.3
			c-0.4,0.3-0.8,0.5-1.4,0.5c-0.7,0-1.3-0.3-1.8-0.8C125.5,78.7,125.2,77.6,125.2,76.2z M126.2,76.2c0,1.3,0.1,2.1,0.4,2.5
			c0.3,0.4,0.7,0.6,1.1,0.6c0.4,0,0.8-0.2,1.1-0.6s0.4-1.3,0.4-2.5c0-1.3-0.1-2.1-0.4-2.5c-0.3-0.4-0.7-0.6-1.1-0.6
			c-0.4,0-0.8,0.2-1,0.6C126.4,74.1,126.2,74.9,126.2,76.2z"/>
		<path class="st9" d="M135.1,80v-0.7c-0.4,0.6-0.9,0.8-1.6,0.8c-0.4,0-0.9-0.1-1.2-0.4s-0.7-0.6-0.9-1c-0.2-0.4-0.3-0.9-0.3-1.5
			c0-0.6,0.1-1.1,0.3-1.5c0.2-0.5,0.5-0.8,0.8-1c0.4-0.2,0.8-0.4,1.2-0.4c0.3,0,0.6,0.1,0.9,0.2c0.3,0.1,0.5,0.3,0.6,0.6v-2.8h0.9
			V80H135.1z M132.1,77.2c0,0.7,0.2,1.2,0.5,1.6c0.3,0.4,0.7,0.5,1.1,0.5c0.4,0,0.8-0.2,1.1-0.5c0.3-0.3,0.4-0.9,0.4-1.5
			c0-0.8-0.1-1.3-0.4-1.7c-0.3-0.4-0.7-0.5-1.1-0.5c-0.4,0-0.8,0.2-1.1,0.5C132.3,75.9,132.1,76.5,132.1,77.2z"/>
	</g>
</g>
<g>
	<g>
		<path class="st9" d="M128.7,121.8h-0.9v-6c-0.2,0.2-0.5,0.4-0.9,0.7c-0.4,0.2-0.7,0.4-1,0.5V116c0.5-0.2,1-0.6,1.4-0.9
			c0.4-0.4,0.7-0.7,0.8-1h0.6V121.8z"/>
	</g>
</g>
<g>
	<g>
		<path class="st9" d="M130.1,136.2v0.9H125c0-0.2,0-0.4,0.1-0.7c0.1-0.3,0.3-0.7,0.6-1c0.3-0.3,0.7-0.7,1.2-1.2
			c0.8-0.7,1.4-1.2,1.7-1.6c0.3-0.4,0.4-0.8,0.4-1.1c0-0.4-0.1-0.7-0.4-0.9s-0.6-0.4-1-0.4c-0.5,0-0.8,0.1-1.1,0.4
			c-0.3,0.3-0.4,0.7-0.4,1.1l-1-0.1c0.1-0.7,0.3-1.3,0.8-1.7c0.4-0.4,1-0.6,1.7-0.6c0.7,0,1.3,0.2,1.8,0.6c0.4,0.4,0.6,0.9,0.6,1.5
			c0,0.3-0.1,0.6-0.2,0.9s-0.3,0.6-0.6,0.9c-0.3,0.3-0.8,0.8-1.5,1.4c-0.6,0.5-0.9,0.8-1.1,1s-0.3,0.3-0.4,0.5H130.1z"/>
	</g>
</g>
<g>
	<path class="st9" d="M37.6,97.1l1,0.3c-0.2,0.8-0.6,1.5-1.2,1.9c-0.6,0.4-1.2,0.7-2,0.7c-0.8,0-1.5-0.2-2-0.5
		c-0.5-0.3-0.9-0.8-1.2-1.5s-0.4-1.3-0.4-2.1c0-0.8,0.2-1.5,0.5-2.1s0.7-1.1,1.3-1.4c0.6-0.3,1.2-0.5,1.9-0.5c0.8,0,1.4,0.2,1.9,0.6
		c0.5,0.4,0.9,0.9,1.1,1.7l-1,0.2c-0.2-0.6-0.4-1-0.8-1.2s-0.8-0.4-1.3-0.4c-0.6,0-1.1,0.1-1.5,0.4s-0.7,0.7-0.8,1.1
		c-0.2,0.5-0.2,1-0.2,1.5c0,0.7,0.1,1.2,0.3,1.7c0.2,0.5,0.5,0.9,0.9,1.1s0.8,0.4,1.3,0.4c0.6,0,1.1-0.2,1.5-0.5
		C37.2,98.2,37.5,97.8,37.6,97.1z"/>
	<path class="st9" d="M39.4,97c0-1,0.3-1.8,0.9-2.3c0.5-0.4,1.1-0.6,1.8-0.6c0.8,0,1.4,0.3,1.9,0.8c0.5,0.5,0.7,1.2,0.7,2.1
		c0,0.7-0.1,1.3-0.3,1.7c-0.2,0.4-0.5,0.7-0.9,1s-0.9,0.3-1.3,0.3c-0.8,0-1.4-0.3-1.9-0.8C39.7,98.7,39.4,98,39.4,97z M40.4,97
		c0,0.7,0.2,1.2,0.5,1.6c0.3,0.4,0.7,0.5,1.2,0.5c0.5,0,0.9-0.2,1.2-0.5c0.3-0.4,0.5-0.9,0.5-1.6c0-0.7-0.2-1.2-0.5-1.6
		s-0.7-0.5-1.2-0.5c-0.5,0-0.9,0.2-1.2,0.5C40.5,95.8,40.4,96.3,40.4,97z"/>
	<path class="st9" d="M45.8,99.8v-5.6h0.9V95c0.4-0.6,1-0.9,1.8-0.9c0.3,0,0.6,0.1,0.9,0.2c0.3,0.1,0.5,0.3,0.6,0.5
		c0.1,0.2,0.2,0.4,0.3,0.7c0,0.2,0.1,0.5,0.1,0.9v3.4h-0.9v-3.4c0-0.4,0-0.7-0.1-0.9c-0.1-0.2-0.2-0.3-0.4-0.5s-0.4-0.2-0.7-0.2
		c-0.4,0-0.8,0.1-1,0.4c-0.3,0.3-0.4,0.7-0.4,1.5v3H45.8z"/>
	<path class="st9" d="M53.8,99l0.1,0.8c-0.3,0.1-0.5,0.1-0.7,0.1c-0.3,0-0.6-0.1-0.8-0.2c-0.2-0.1-0.3-0.3-0.4-0.4
		c-0.1-0.2-0.1-0.5-0.1-1.1V95h-0.7v-0.7h0.7v-1.4l0.9-0.6v1.9h1V95h-1v3.3c0,0.3,0,0.4,0,0.5c0,0.1,0.1,0.1,0.2,0.2
		s0.2,0.1,0.3,0.1C53.5,99,53.6,99,53.8,99z"/>
	<path class="st9" d="M54.7,99.8v-5.6h0.9v0.8c0.2-0.4,0.4-0.7,0.6-0.8c0.2-0.1,0.4-0.2,0.6-0.2c0.3,0,0.6,0.1,1,0.3l-0.3,0.9
		c-0.2-0.1-0.5-0.2-0.7-0.2c-0.2,0-0.4,0.1-0.6,0.2s-0.3,0.3-0.4,0.5c-0.1,0.3-0.2,0.7-0.2,1.1v2.9H54.7z"/>
	<path class="st9" d="M58,97c0-1,0.3-1.8,0.9-2.3c0.5-0.4,1.1-0.6,1.8-0.6c0.8,0,1.4,0.3,1.9,0.8c0.5,0.5,0.7,1.2,0.7,2.1
		c0,0.7-0.1,1.3-0.3,1.7c-0.2,0.4-0.5,0.7-0.9,1s-0.9,0.3-1.3,0.3c-0.8,0-1.4-0.3-1.9-0.8C58.2,98.7,58,98,58,97z M58.9,97
		c0,0.7,0.2,1.2,0.5,1.6c0.3,0.4,0.7,0.5,1.2,0.5c0.5,0,0.9-0.2,1.2-0.5c0.3-0.4,0.5-0.9,0.5-1.6c0-0.7-0.2-1.2-0.5-1.6
		s-0.7-0.5-1.2-0.5c-0.5,0-0.9,0.2-1.2,0.5C59.1,95.8,58.9,96.3,58.9,97z"/>
	<path class="st9" d="M64.3,99.8v-7.7h0.9v7.7H64.3z"/>
	<path class="st9" d="M66.7,99.8v-7.7h0.9v7.7H66.7z"/>
	<path class="st9" d="M72.9,98l1,0.1c-0.2,0.6-0.4,1-0.9,1.3c-0.4,0.3-0.9,0.5-1.6,0.5c-0.8,0-1.5-0.3-1.9-0.8
		c-0.5-0.5-0.7-1.2-0.7-2.1c0-0.9,0.2-1.7,0.7-2.2s1.1-0.8,1.9-0.8c0.7,0,1.4,0.3,1.8,0.8c0.5,0.5,0.7,1.2,0.7,2.1
		c0,0.1,0,0.1,0,0.3h-4.2c0,0.6,0.2,1.1,0.5,1.4c0.3,0.3,0.7,0.5,1.2,0.5c0.3,0,0.6-0.1,0.9-0.3C72.6,98.7,72.8,98.4,72.9,98z
		 M69.8,96.5h3.1c0-0.5-0.2-0.8-0.4-1.1c-0.3-0.4-0.7-0.5-1.2-0.5c-0.4,0-0.8,0.1-1.1,0.4C70,95.6,69.8,96,69.8,96.5z"/>
	<path class="st9" d="M75.1,99.8v-5.6h0.9v0.8c0.2-0.4,0.4-0.7,0.6-0.8c0.2-0.1,0.4-0.2,0.6-0.2c0.3,0,0.6,0.1,1,0.3l-0.3,0.9
		c-0.2-0.1-0.5-0.2-0.7-0.2c-0.2,0-0.4,0.1-0.6,0.2s-0.3,0.3-0.4,0.5c-0.1,0.3-0.2,0.7-0.2,1.1v2.9H75.1z"/>
	<path class="st9" d="M80.3,99.8l3-7.7h1.1l3.2,7.7h-1.2l-0.9-2.3h-3.2l-0.8,2.3H80.3z M82.5,96.6h2.6l-0.8-2.1
		c-0.2-0.6-0.4-1.2-0.5-1.6c-0.1,0.5-0.2,1-0.4,1.5L82.5,96.6z"/>
</g>
<g>
	<rect x="0.6" y="181.5" class="st7" width="144.1" height="104.2"/>
	<g>
		<g>
			<g>
				<path class="st9" d="M104.8,81.5c-1,0-1.7-0.2-2.2-0.7s-0.8-1.1-0.8-1.8c0-0.5,0.1-0.9,0.4-1.3c0.3-0.4,0.6-0.7,1.1-0.9
					c0.5-0.2,1-0.3,1.5-0.3c0.6,0,1.1,0.1,1.6,0.3s0.8,0.5,1,0.9s0.4,0.8,0.4,1.3c0,0.5-0.1,0.9-0.4,1.3s-0.6,0.7-1.1,0.9
					C105.7,81.4,105.3,81.5,104.8,81.5z M104.8,80.8c0.7,0,1.2-0.2,1.6-0.5s0.6-0.8,0.6-1.3c0-0.5-0.2-0.9-0.6-1.3
					c-0.4-0.3-1-0.5-1.7-0.5c-0.5,0-0.9,0.1-1.2,0.2c-0.3,0.1-0.6,0.3-0.8,0.6s-0.3,0.6-0.3,0.9c0,0.5,0.2,0.9,0.6,1.2
					S103.9,80.8,104.8,80.8z"/>
				<path class="st9" d="M107.5,75.9h-4.1v-0.6h0.6c-0.5-0.3-0.7-0.7-0.7-1.2c0-0.2,0-0.4,0.1-0.6c0.1-0.2,0.2-0.3,0.4-0.4
					s0.3-0.2,0.5-0.2c0.1,0,0.4,0,0.7,0h2.6v0.6H105c-0.3,0-0.5,0-0.6,0.1c-0.1,0-0.3,0.1-0.3,0.3s-0.1,0.3-0.1,0.4
					c0,0.3,0.1,0.5,0.3,0.7s0.6,0.3,1.1,0.3h2.3V75.9z"/>
				<path class="st9" d="M107.5,71.5v0.6h-5.7v-0.6h2c-0.4-0.3-0.6-0.6-0.6-1c0-0.2,0.1-0.4,0.2-0.7s0.2-0.4,0.4-0.5
					c0.2-0.1,0.4-0.2,0.7-0.3c0.3-0.1,0.5-0.1,0.8-0.1c0.7,0,1.3,0.2,1.6,0.5s0.6,0.7,0.6,1.1c0,0.4-0.2,0.8-0.6,1H107.5z
					 M105.4,71.5c0.5,0,0.9-0.1,1.1-0.2c0.4-0.2,0.5-0.5,0.5-0.8c0-0.3-0.1-0.5-0.4-0.7s-0.7-0.3-1.2-0.3c-0.5,0-0.9,0.1-1.2,0.3
					s-0.4,0.4-0.4,0.7c0,0.3,0.1,0.5,0.4,0.7S104.9,71.5,105.4,71.5z"/>
				<path class="st9" d="M105.5,68.5c-0.8,0-1.3-0.2-1.7-0.6c-0.3-0.3-0.5-0.7-0.5-1.2c0-0.5,0.2-0.9,0.6-1.3s0.9-0.5,1.5-0.5
					c0.5,0,1,0.1,1.3,0.2s0.5,0.4,0.7,0.6s0.3,0.6,0.3,0.9c0,0.5-0.2,0.9-0.6,1.3S106.2,68.5,105.5,68.5z M105.5,67.8
					c0.5,0,0.9-0.1,1.2-0.3c0.3-0.2,0.4-0.5,0.4-0.8c0-0.3-0.1-0.6-0.4-0.8s-0.7-0.3-1.2-0.3c-0.5,0-0.9,0.1-1.2,0.3
					c-0.3,0.2-0.4,0.5-0.4,0.8c0,0.3,0.1,0.6,0.4,0.8C104.5,67.7,104.9,67.8,105.5,67.8z"/>
				<path class="st9" d="M107,62c0.2,0.2,0.4,0.5,0.5,0.7s0.1,0.4,0.1,0.7c0,0.4-0.1,0.7-0.3,0.9c-0.2,0.2-0.5,0.3-0.9,0.3
					c-0.2,0-0.4,0-0.6-0.1c-0.2-0.1-0.3-0.2-0.4-0.3s-0.2-0.3-0.2-0.5c0-0.1-0.1-0.3-0.1-0.6c-0.1-0.5-0.1-0.9-0.2-1.1
					c-0.1,0-0.2,0-0.2,0c-0.3,0-0.5,0.1-0.6,0.2c-0.2,0.2-0.2,0.4-0.2,0.7c0,0.3,0.1,0.5,0.2,0.7c0.1,0.1,0.3,0.2,0.6,0.3l-0.1,0.6
					c-0.3-0.1-0.5-0.1-0.7-0.3s-0.3-0.3-0.4-0.6c-0.1-0.2-0.1-0.5-0.1-0.8c0-0.3,0-0.6,0.1-0.8s0.2-0.3,0.3-0.4s0.3-0.2,0.5-0.2
					c0.1,0,0.3,0,0.6,0h0.9c0.7,0,1.1,0,1.2,0s0.3-0.1,0.5-0.2v0.7C107.4,61.9,107.2,62,107,62z M105.5,62.1c0.1,0.2,0.2,0.6,0.3,1
					c0,0.3,0.1,0.4,0.1,0.6c0.1,0.1,0.1,0.2,0.2,0.2s0.2,0.1,0.3,0.1c0.2,0,0.3-0.1,0.5-0.2c0.1-0.1,0.2-0.3,0.2-0.6
					c0-0.2-0.1-0.5-0.2-0.7s-0.3-0.3-0.5-0.4c-0.2-0.1-0.4-0.1-0.7-0.1H105.5z"/>
				<path class="st9" d="M107.5,60.6h-4.1v-0.6h0.6c-0.3-0.1-0.5-0.3-0.6-0.4s-0.1-0.3-0.1-0.4c0-0.2,0.1-0.4,0.2-0.7l0.7,0.2
					c-0.1,0.2-0.2,0.3-0.2,0.5c0,0.1,0,0.3,0.1,0.4s0.2,0.2,0.4,0.2c0.2,0.1,0.5,0.1,0.8,0.1h2.2V60.6z"/>
				<path class="st9" d="M107.5,56H107c0.4,0.2,0.6,0.6,0.6,1c0,0.3-0.1,0.6-0.3,0.8s-0.4,0.4-0.8,0.6s-0.7,0.2-1.1,0.2
					c-0.4,0-0.8-0.1-1.1-0.2c-0.3-0.1-0.6-0.3-0.8-0.6c-0.2-0.2-0.3-0.5-0.3-0.8c0-0.2,0.1-0.4,0.2-0.6s0.2-0.3,0.4-0.4h-2.1v-0.6
					h5.7V56z M105.5,58c0.5,0,0.9-0.1,1.2-0.3s0.4-0.4,0.4-0.7c0-0.3-0.1-0.5-0.4-0.7S106,56,105.5,56c-0.6,0-1,0.1-1.2,0.3
					c-0.3,0.2-0.4,0.4-0.4,0.7c0,0.3,0.1,0.5,0.4,0.7C104.5,57.9,104.9,58,105.5,58z"/>
			</g>
		</g>
	</g>
</g>
<g>
	<path class="st9" d="M37,237l1,0.3c-0.2,0.8-0.6,1.5-1.2,1.9s-1.2,0.7-2,0.7c-0.8,0-1.5-0.2-2-0.5c-0.5-0.3-0.9-0.8-1.2-1.5
		c-0.3-0.6-0.4-1.3-0.4-2.1c0-0.8,0.2-1.5,0.5-2.1c0.3-0.6,0.7-1.1,1.3-1.4c0.6-0.3,1.2-0.5,1.9-0.5c0.8,0,1.4,0.2,1.9,0.6
		s0.9,0.9,1.1,1.7l-1,0.2c-0.2-0.6-0.4-1-0.8-1.2c-0.3-0.3-0.8-0.4-1.3-0.4c-0.6,0-1.1,0.1-1.5,0.4c-0.4,0.3-0.7,0.7-0.8,1.1
		c-0.2,0.5-0.2,1-0.2,1.5c0,0.7,0.1,1.2,0.3,1.7c0.2,0.5,0.5,0.9,0.9,1.1c0.4,0.2,0.8,0.4,1.3,0.4c0.6,0,1.1-0.2,1.5-0.5
		C36.6,238.1,36.9,237.6,37,237z"/>
	<path class="st9" d="M38.8,236.9c0-1,0.3-1.8,0.9-2.3c0.5-0.4,1.1-0.6,1.8-0.6c0.8,0,1.4,0.3,1.9,0.8s0.7,1.2,0.7,2.1
		c0,0.7-0.1,1.3-0.3,1.7c-0.2,0.4-0.5,0.7-0.9,1c-0.4,0.2-0.9,0.3-1.3,0.3c-0.8,0-1.4-0.2-1.9-0.8C39.1,238.5,38.8,237.8,38.8,236.9
		z M39.8,236.9c0,0.7,0.2,1.2,0.5,1.6c0.3,0.4,0.7,0.5,1.2,0.5c0.5,0,0.9-0.2,1.2-0.5c0.3-0.4,0.5-0.9,0.5-1.6
		c0-0.7-0.2-1.2-0.5-1.6c-0.3-0.4-0.7-0.5-1.2-0.5c-0.5,0-0.9,0.2-1.2,0.5C40,235.6,39.8,236.1,39.8,236.9z"/>
	<path class="st9" d="M45.2,239.7v-5.6H46v0.8c0.4-0.6,1-0.9,1.8-0.9c0.3,0,0.6,0.1,0.9,0.2c0.3,0.1,0.5,0.3,0.6,0.5
		s0.2,0.4,0.3,0.7c0,0.2,0.1,0.5,0.1,0.9v3.4h-0.9v-3.4c0-0.4,0-0.7-0.1-0.9c-0.1-0.2-0.2-0.3-0.4-0.5s-0.4-0.2-0.7-0.2
		c-0.4,0-0.8,0.1-1,0.4s-0.4,0.7-0.4,1.5v3H45.2z"/>
	<path class="st9" d="M53.2,238.8l0.1,0.8c-0.3,0.1-0.5,0.1-0.7,0.1c-0.3,0-0.6-0.1-0.8-0.2c-0.2-0.1-0.3-0.3-0.4-0.4
		c-0.1-0.2-0.1-0.5-0.1-1.1v-3.2h-0.7v-0.7h0.7v-1.4l0.9-0.6v1.9h1v0.7h-1v3.3c0,0.3,0,0.4,0,0.5s0.1,0.1,0.2,0.2
		c0.1,0,0.2,0.1,0.3,0.1C52.9,238.8,53,238.8,53.2,238.8z"/>
	<path class="st9" d="M54.1,239.7v-5.6H55v0.8c0.2-0.4,0.4-0.7,0.6-0.8c0.2-0.1,0.4-0.2,0.6-0.2c0.3,0,0.6,0.1,1,0.3l-0.3,0.9
		c-0.2-0.1-0.5-0.2-0.7-0.2c-0.2,0-0.4,0.1-0.6,0.2c-0.2,0.1-0.3,0.3-0.4,0.5c-0.1,0.3-0.2,0.7-0.2,1.1v2.9H54.1z"/>
	<path class="st9" d="M57.4,236.9c0-1,0.3-1.8,0.9-2.3c0.5-0.4,1.1-0.6,1.8-0.6c0.8,0,1.4,0.3,1.9,0.8s0.7,1.2,0.7,2.1
		c0,0.7-0.1,1.3-0.3,1.7c-0.2,0.4-0.5,0.7-0.9,1c-0.4,0.2-0.9,0.3-1.3,0.3c-0.8,0-1.4-0.2-1.9-0.8C57.6,238.5,57.4,237.8,57.4,236.9
		z M58.3,236.9c0,0.7,0.2,1.2,0.5,1.6c0.3,0.4,0.7,0.5,1.2,0.5c0.5,0,0.9-0.2,1.2-0.5c0.3-0.4,0.5-0.9,0.5-1.6
		c0-0.7-0.2-1.2-0.5-1.6c-0.3-0.4-0.7-0.5-1.2-0.5c-0.5,0-0.9,0.2-1.2,0.5C58.5,235.6,58.3,236.1,58.3,236.9z"/>
	<path class="st9" d="M63.7,239.7V232h0.9v7.7H63.7z"/>
	<path class="st9" d="M66.1,239.7V232H67v7.7H66.1z"/>
	<path class="st9" d="M72.3,237.9l1,0.1c-0.2,0.6-0.4,1-0.9,1.3c-0.4,0.3-0.9,0.5-1.6,0.5c-0.8,0-1.5-0.3-1.9-0.8s-0.7-1.2-0.7-2.1
		c0-0.9,0.2-1.7,0.7-2.2s1.1-0.8,1.9-0.8c0.7,0,1.4,0.3,1.8,0.8c0.5,0.5,0.7,1.2,0.7,2.1c0,0.1,0,0.1,0,0.3h-4.2
		c0,0.6,0.2,1.1,0.5,1.4c0.3,0.3,0.7,0.5,1.2,0.5c0.3,0,0.6-0.1,0.9-0.3C72,238.5,72.2,238.3,72.3,237.9z M69.2,236.3h3.1
		c0-0.5-0.2-0.8-0.4-1.1c-0.3-0.4-0.7-0.5-1.2-0.5c-0.4,0-0.8,0.1-1.1,0.4C69.4,235.5,69.2,235.8,69.2,236.3z"/>
	<path class="st9" d="M74.5,239.7v-5.6h0.9v0.8c0.2-0.4,0.4-0.7,0.6-0.8c0.2-0.1,0.4-0.2,0.6-0.2c0.3,0,0.6,0.1,1,0.3l-0.3,0.9
		c-0.2-0.1-0.5-0.2-0.7-0.2c-0.2,0-0.4,0.1-0.6,0.2c-0.2,0.1-0.3,0.3-0.4,0.5c-0.1,0.3-0.2,0.7-0.2,1.1v2.9H74.5z"/>
	<path class="st9" d="M81.1,239.7V232H84c0.6,0,1.1,0.1,1.4,0.2c0.4,0.2,0.6,0.4,0.8,0.7c0.2,0.3,0.3,0.7,0.3,1
		c0,0.3-0.1,0.6-0.3,0.9s-0.4,0.5-0.8,0.7c0.5,0.1,0.8,0.4,1.1,0.7s0.4,0.7,0.4,1.2c0,0.4-0.1,0.7-0.2,1c-0.2,0.3-0.3,0.5-0.6,0.7
		s-0.5,0.3-0.8,0.4c-0.3,0.1-0.8,0.1-1.2,0.1H81.1z M82.1,235.2h1.7c0.5,0,0.8,0,1-0.1c0.3-0.1,0.5-0.2,0.6-0.4s0.2-0.4,0.2-0.7
		c0-0.3-0.1-0.5-0.2-0.7s-0.3-0.3-0.5-0.4c-0.2-0.1-0.6-0.1-1.2-0.1h-1.5V235.2z M82.1,238.7h1.9c0.3,0,0.6,0,0.7,0
		c0.2,0,0.4-0.1,0.6-0.2c0.2-0.1,0.3-0.2,0.4-0.4s0.2-0.4,0.2-0.6c0-0.3-0.1-0.5-0.2-0.7s-0.4-0.4-0.6-0.4c-0.3-0.1-0.6-0.1-1.1-0.1
		h-1.8V238.7z"/>
</g>
<g>
	<rect x="254" y="181.8" class="st7" width="106.6" height="104.2"/>
	<g>
		<g>
			<g>
				<rect x="254" y="191.1" class="st10" width="33.4" height="12.2"/>
				<g>
					<path class="st9" d="M266.5,199.1l1,0.1c-0.2,0.6-0.4,1-0.9,1.3s-0.9,0.5-1.6,0.5c-0.8,0-1.5-0.3-1.9-0.8s-0.7-1.2-0.7-2.1
						c0-0.9,0.2-1.7,0.7-2.2s1.1-0.8,1.9-0.8c0.7,0,1.4,0.3,1.8,0.8s0.7,1.2,0.7,2.1c0,0.1,0,0.1,0,0.3h-4.2c0,0.6,0.2,1.1,0.5,1.4
						c0.3,0.3,0.7,0.5,1.2,0.5c0.3,0,0.6-0.1,0.9-0.3C266.2,199.8,266.4,199.5,266.5,199.1z M263.4,197.6h3.1c0-0.5-0.2-0.8-0.4-1.1
						c-0.3-0.4-0.7-0.5-1.2-0.5c-0.4,0-0.8,0.1-1.1,0.4C263.6,196.7,263.5,197.1,263.4,197.6z"/>
					<path class="st9" d="M268.4,197.1c0-0.9,0.1-1.6,0.3-2.2c0.2-0.6,0.5-1,0.8-1.3c0.4-0.3,0.8-0.5,1.4-0.5c0.4,0,0.8,0.1,1.1,0.2
						c0.3,0.2,0.6,0.4,0.8,0.7c0.2,0.3,0.4,0.7,0.5,1.1c0.1,0.5,0.2,1.1,0.2,1.8c0,0.9-0.1,1.6-0.3,2.2c-0.2,0.6-0.5,1-0.8,1.3
						c-0.4,0.3-0.8,0.5-1.4,0.5c-0.7,0-1.3-0.3-1.7-0.8C268.7,199.6,268.4,198.5,268.4,197.1z M269.4,197.1c0,1.3,0.1,2.1,0.4,2.5
						c0.3,0.4,0.7,0.6,1.1,0.6s0.8-0.2,1.1-0.6c0.3-0.4,0.4-1.3,0.4-2.5c0-1.3-0.1-2.1-0.4-2.5s-0.7-0.6-1.1-0.6
						c-0.4,0-0.8,0.2-1,0.6C269.6,195,269.4,195.8,269.4,197.1z"/>
					<path class="st9" d="M278.3,200.2c-0.4,0.3-0.7,0.5-1,0.6c-0.3,0.1-0.7,0.2-1,0.2c-0.6,0-1.1-0.1-1.4-0.4s-0.5-0.7-0.5-1.1
						c0-0.3,0.1-0.5,0.2-0.7c0.1-0.2,0.3-0.4,0.5-0.5c0.2-0.1,0.4-0.2,0.7-0.3c0.2,0,0.5-0.1,0.8-0.1c0.8-0.1,1.3-0.2,1.7-0.3
						c0-0.1,0-0.2,0-0.2c0-0.4-0.1-0.7-0.3-0.8c-0.2-0.2-0.6-0.3-1.1-0.3c-0.4,0-0.8,0.1-1,0.2c-0.2,0.2-0.4,0.4-0.5,0.8l-0.9-0.1
						c0.1-0.4,0.2-0.7,0.4-1c0.2-0.2,0.5-0.4,0.8-0.6c0.4-0.1,0.8-0.2,1.3-0.2c0.5,0,0.9,0.1,1.2,0.2s0.5,0.3,0.7,0.4
						c0.1,0.2,0.2,0.4,0.3,0.6c0,0.2,0,0.5,0,0.9v1.3c0,0.9,0,1.4,0.1,1.7c0,0.2,0.1,0.5,0.2,0.7h-1
						C278.4,200.7,278.4,200.5,278.3,200.2z M278.3,198.1c-0.3,0.1-0.9,0.3-1.5,0.4c-0.4,0.1-0.7,0.1-0.8,0.2s-0.3,0.2-0.4,0.3
						c-0.1,0.1-0.1,0.3-0.1,0.5c0,0.3,0.1,0.5,0.3,0.6c0.2,0.2,0.5,0.3,0.8,0.3c0.4,0,0.7-0.1,1-0.2c0.3-0.2,0.5-0.4,0.6-0.7
						c0.1-0.2,0.2-0.5,0.2-0.9V198.1z"/>
				</g>
			</g>
		</g>
		<g>
			<g>
				<rect x="254" y="213.1" class="st10" width="33.4" height="12.2"/>
				<g>
					<path class="st9" d="M266.5,221.2l1,0.1c-0.2,0.6-0.4,1-0.9,1.3s-0.9,0.5-1.6,0.5c-0.8,0-1.5-0.3-1.9-0.8s-0.7-1.2-0.7-2.1
						c0-0.9,0.2-1.7,0.7-2.2s1.1-0.8,1.9-0.8c0.7,0,1.4,0.3,1.8,0.8s0.7,1.2,0.7,2.1c0,0.1,0,0.1,0,0.3h-4.2c0,0.6,0.2,1.1,0.5,1.4
						c0.3,0.3,0.7,0.5,1.2,0.5c0.3,0,0.6-0.1,0.9-0.3C266.2,221.8,266.4,221.6,266.5,221.2z M263.4,219.6h3.1c0-0.5-0.2-0.8-0.4-1.1
						c-0.3-0.4-0.7-0.5-1.2-0.5c-0.4,0-0.8,0.1-1.1,0.4C263.6,218.8,263.5,219.1,263.4,219.6z"/>
					<path class="st9" d="M268.4,219.2c0-0.9,0.1-1.6,0.3-2.2c0.2-0.6,0.5-1,0.8-1.3c0.4-0.3,0.8-0.5,1.4-0.5c0.4,0,0.8,0.1,1.1,0.2
						c0.3,0.2,0.6,0.4,0.8,0.7c0.2,0.3,0.4,0.7,0.5,1.1c0.1,0.5,0.2,1.1,0.2,1.8c0,0.9-0.1,1.6-0.3,2.2c-0.2,0.6-0.5,1-0.8,1.3
						c-0.4,0.3-0.8,0.5-1.4,0.5c-0.7,0-1.3-0.3-1.7-0.8C268.7,221.6,268.4,220.6,268.4,219.2z M269.4,219.2c0,1.3,0.1,2.1,0.4,2.5
						c0.3,0.4,0.7,0.6,1.1,0.6s0.8-0.2,1.1-0.6c0.3-0.4,0.4-1.3,0.4-2.5c0-1.3-0.1-2.1-0.4-2.5s-0.7-0.6-1.1-0.6
						c-0.4,0-0.8,0.2-1,0.6C269.6,217,269.4,217.9,269.4,219.2z"/>
					<path class="st9" d="M275.6,223h-0.9v-7.7h0.9v2.7c0.4-0.5,0.9-0.8,1.5-0.8c0.3,0,0.7,0.1,1,0.2c0.3,0.1,0.6,0.3,0.8,0.6
						c0.2,0.3,0.4,0.6,0.5,0.9c0.1,0.4,0.2,0.7,0.2,1.1c0,1-0.2,1.7-0.7,2.2c-0.5,0.5-1,0.8-1.7,0.8c-0.7,0-1.2-0.3-1.5-0.8V223z
						 M275.6,220.1c0,0.7,0.1,1.2,0.3,1.5c0.3,0.5,0.7,0.7,1.2,0.7c0.4,0,0.8-0.2,1.1-0.5c0.3-0.4,0.5-0.9,0.5-1.6
						c0-0.7-0.1-1.3-0.4-1.6s-0.6-0.5-1-0.5c-0.4,0-0.8,0.2-1.1,0.5C275.7,218.9,275.6,219.4,275.6,220.1z"/>
				</g>
			</g>
		</g>
		<g>
			<g>
				<rect x="254" y="242.4" class="st10" width="33.4" height="12.2"/>
				<g>
					<path class="st9" d="M266.5,250.4l1,0.1c-0.2,0.6-0.4,1-0.9,1.3s-0.9,0.5-1.6,0.5c-0.8,0-1.5-0.3-1.9-0.8s-0.7-1.2-0.7-2.1
						c0-0.9,0.2-1.7,0.7-2.2s1.1-0.8,1.9-0.8c0.7,0,1.4,0.3,1.8,0.8s0.7,1.2,0.7,2.1c0,0.1,0,0.1,0,0.3h-4.2c0,0.6,0.2,1.1,0.5,1.4
						c0.3,0.3,0.7,0.5,1.2,0.5c0.3,0,0.6-0.1,0.9-0.3C266.2,251.1,266.4,250.8,266.5,250.4z M263.4,248.9h3.1c0-0.5-0.2-0.8-0.4-1.1
						c-0.3-0.4-0.7-0.5-1.2-0.5c-0.4,0-0.8,0.1-1.1,0.4C263.6,248,263.5,248.4,263.4,248.9z"/>
					<path class="st9" d="M268.4,248.4c0-0.9,0.1-1.6,0.3-2.2c0.2-0.6,0.5-1,0.8-1.3c0.4-0.3,0.8-0.5,1.4-0.5c0.4,0,0.8,0.1,1.1,0.2
						c0.3,0.2,0.6,0.4,0.8,0.7c0.2,0.3,0.4,0.7,0.5,1.1c0.1,0.5,0.2,1.1,0.2,1.8c0,0.9-0.1,1.6-0.3,2.2c-0.2,0.6-0.5,1-0.8,1.3
						c-0.4,0.3-0.8,0.5-1.4,0.5c-0.7,0-1.3-0.3-1.7-0.8C268.7,250.9,268.4,249.8,268.4,248.4z M269.4,248.4c0,1.3,0.1,2.1,0.4,2.5
						c0.3,0.4,0.7,0.6,1.1,0.6s0.8-0.2,1.1-0.6c0.3-0.4,0.4-1.3,0.4-2.5c0-1.3-0.1-2.1-0.4-2.5s-0.7-0.6-1.1-0.6
						c-0.4,0-0.8,0.2-1,0.6C269.6,246.3,269.4,247.1,269.4,248.4z"/>
					<path class="st9" d="M278.3,251.5c-0.4,0.3-0.7,0.5-1,0.6c-0.3,0.1-0.7,0.2-1,0.2c-0.6,0-1.1-0.1-1.4-0.4s-0.5-0.7-0.5-1.1
						c0-0.3,0.1-0.5,0.2-0.7c0.1-0.2,0.3-0.4,0.5-0.5c0.2-0.1,0.4-0.2,0.7-0.3c0.2,0,0.5-0.1,0.8-0.1c0.8-0.1,1.3-0.2,1.7-0.3
						c0-0.1,0-0.2,0-0.2c0-0.4-0.1-0.7-0.3-0.8c-0.2-0.2-0.6-0.3-1.1-0.3c-0.4,0-0.8,0.1-1,0.2c-0.2,0.2-0.4,0.4-0.5,0.8l-0.9-0.1
						c0.1-0.4,0.2-0.7,0.4-1c0.2-0.2,0.5-0.4,0.8-0.6c0.4-0.1,0.8-0.2,1.3-0.2c0.5,0,0.9,0.1,1.2,0.2s0.5,0.3,0.7,0.4
						c0.1,0.2,0.2,0.4,0.3,0.6c0,0.2,0,0.5,0,0.9v1.3c0,0.9,0,1.4,0.1,1.7c0,0.2,0.1,0.5,0.2,0.7h-1
						C278.4,252,278.4,251.8,278.3,251.5z M278.3,249.4c-0.3,0.1-0.9,0.3-1.5,0.4c-0.4,0.1-0.7,0.1-0.8,0.2s-0.3,0.2-0.4,0.3
						c-0.1,0.1-0.1,0.3-0.1,0.5c0,0.3,0.1,0.5,0.3,0.6c0.2,0.2,0.5,0.3,0.8,0.3c0.4,0,0.7-0.1,1-0.2c0.3-0.2,0.5-0.4,0.6-0.7
						c0.1-0.2,0.2-0.5,0.2-0.9V249.4z"/>
				</g>
			</g>
		</g>
		<g>
			<g>
				<rect x="254" y="264.4" class="st10" width="33.4" height="12.2"/>
				<g>
					<path class="st9" d="M266.5,272.5l1,0.1c-0.2,0.6-0.4,1-0.9,1.3s-0.9,0.5-1.6,0.5c-0.8,0-1.5-0.3-1.9-0.8s-0.7-1.2-0.7-2.1
						c0-0.9,0.2-1.7,0.7-2.2s1.1-0.8,1.9-0.8c0.7,0,1.4,0.3,1.8,0.8s0.7,1.2,0.7,2.1c0,0.1,0,0.1,0,0.3h-4.2c0,0.6,0.2,1.1,0.5,1.4
						c0.3,0.3,0.7,0.5,1.2,0.5c0.3,0,0.6-0.1,0.9-0.3C266.2,273.2,266.4,272.9,266.5,272.5z M263.4,270.9h3.1c0-0.5-0.2-0.8-0.4-1.1
						c-0.3-0.4-0.7-0.5-1.2-0.5c-0.4,0-0.8,0.1-1.1,0.4C263.6,270.1,263.5,270.4,263.4,270.9z"/>
					<path class="st9" d="M268.4,270.5c0-0.9,0.1-1.6,0.3-2.2c0.2-0.6,0.5-1,0.8-1.3c0.4-0.3,0.8-0.5,1.4-0.5c0.4,0,0.8,0.1,1.1,0.2
						c0.3,0.2,0.6,0.4,0.8,0.7c0.2,0.3,0.4,0.7,0.5,1.1c0.1,0.5,0.2,1.1,0.2,1.8c0,0.9-0.1,1.6-0.3,2.2c-0.2,0.6-0.5,1-0.8,1.3
						c-0.4,0.3-0.8,0.5-1.4,0.5c-0.7,0-1.3-0.3-1.7-0.8C268.7,273,268.4,271.9,268.4,270.5z M269.4,270.5c0,1.3,0.1,2.1,0.4,2.5
						c0.3,0.4,0.7,0.6,1.1,0.6s0.8-0.2,1.1-0.6c0.3-0.4,0.4-1.3,0.4-2.5c0-1.3-0.1-2.1-0.4-2.5s-0.7-0.6-1.1-0.6
						c-0.4,0-0.8,0.2-1,0.6C269.6,268.3,269.4,269.2,269.4,270.5z"/>
					<path class="st9" d="M275.6,274.3h-0.9v-7.7h0.9v2.7c0.4-0.5,0.9-0.8,1.5-0.8c0.3,0,0.7,0.1,1,0.2c0.3,0.1,0.6,0.3,0.8,0.6
						c0.2,0.3,0.4,0.6,0.5,0.9c0.1,0.4,0.2,0.7,0.2,1.1c0,1-0.2,1.7-0.7,2.2c-0.5,0.5-1,0.8-1.7,0.8c-0.7,0-1.2-0.3-1.5-0.8V274.3z
						 M275.6,271.4c0,0.7,0.1,1.2,0.3,1.5c0.3,0.5,0.7,0.7,1.2,0.7c0.4,0,0.8-0.2,1.1-0.5c0.3-0.4,0.5-0.9,0.5-1.6
						c0-0.7-0.1-1.3-0.4-1.6s-0.6-0.5-1-0.5c-0.4,0-0.8,0.2-1.1,0.5C275.7,270.2,275.6,270.7,275.6,271.4z"/>
				</g>
			</g>
		</g>
	</g>
	<line class="st10" x1="254" y1="233.9" x2="360.6" y2="233.9"/>
</g>
<g>
	<path class="st9" d="M291.1,173.1l1-0.1c0,0.4,0.2,0.7,0.3,0.9c0.2,0.2,0.4,0.4,0.8,0.6c0.3,0.2,0.7,0.2,1.2,0.2
		c0.4,0,0.7-0.1,1-0.2c0.3-0.1,0.5-0.3,0.7-0.5s0.2-0.4,0.2-0.7c0-0.2-0.1-0.5-0.2-0.6c-0.1-0.2-0.4-0.3-0.7-0.5
		c-0.2-0.1-0.7-0.2-1.4-0.4c-0.7-0.2-1.2-0.3-1.5-0.5c-0.4-0.2-0.6-0.4-0.8-0.7c-0.2-0.3-0.3-0.6-0.3-1c0-0.4,0.1-0.8,0.3-1.1
		s0.5-0.6,1-0.8c0.4-0.2,0.9-0.3,1.4-0.3c0.6,0,1.1,0.1,1.5,0.3c0.4,0.2,0.8,0.5,1,0.8s0.4,0.8,0.4,1.2l-1,0.1
		c-0.1-0.5-0.2-0.9-0.5-1.1c-0.3-0.2-0.8-0.4-1.3-0.4c-0.6,0-1.1,0.1-1.3,0.3c-0.3,0.2-0.4,0.5-0.4,0.8c0,0.3,0.1,0.5,0.3,0.7
		c0.2,0.2,0.7,0.4,1.5,0.5s1.4,0.4,1.7,0.5c0.4,0.2,0.8,0.5,1,0.8c0.2,0.3,0.3,0.7,0.3,1.1c0,0.4-0.1,0.8-0.4,1.2
		c-0.2,0.4-0.6,0.6-1,0.8s-0.9,0.3-1.5,0.3c-0.7,0-1.3-0.1-1.8-0.3c-0.5-0.2-0.8-0.5-1.1-0.9C291.2,174,291.1,173.6,291.1,173.1z"/>
	<path class="st9" d="M298.5,175.5v-7.7h0.9v2.8c0.4-0.5,1-0.8,1.7-0.8c0.4,0,0.8,0.1,1.1,0.2s0.5,0.4,0.7,0.7
		c0.1,0.3,0.2,0.7,0.2,1.3v3.5h-0.9V172c0-0.5-0.1-0.8-0.3-1c-0.2-0.2-0.5-0.3-0.9-0.3c-0.3,0-0.5,0.1-0.8,0.2s-0.4,0.3-0.5,0.6
		c-0.1,0.2-0.2,0.6-0.2,1v3.1H298.5z"/>
	<path class="st9" d="M308.3,173.8l1,0.1c-0.2,0.6-0.4,1-0.9,1.3s-0.9,0.5-1.6,0.5c-0.8,0-1.5-0.3-1.9-0.8s-0.7-1.2-0.7-2.1
		c0-0.9,0.2-1.7,0.7-2.2s1.1-0.8,1.9-0.8c0.7,0,1.4,0.3,1.8,0.8s0.7,1.2,0.7,2.1c0,0.1,0,0.1,0,0.3h-4.2c0,0.6,0.2,1.1,0.5,1.4
		c0.3,0.3,0.7,0.5,1.2,0.5c0.3,0,0.6-0.1,0.9-0.3C307.9,174.4,308.1,174.1,308.3,173.8z M305.2,172.2h3.1c0-0.5-0.2-0.8-0.4-1.1
		c-0.3-0.4-0.7-0.5-1.2-0.5c-0.4,0-0.8,0.1-1.1,0.4C305.4,171.3,305.2,171.7,305.2,172.2z"/>
	<path class="st9" d="M310.4,175.5v-7.7h0.9v7.7H310.4z"/>
	<path class="st9" d="M313,175.5v-4.8h-0.8V170h0.8v-0.6c0-0.4,0-0.7,0.1-0.8c0.1-0.2,0.3-0.4,0.5-0.6s0.6-0.2,1-0.2
		c0.3,0,0.6,0,0.9,0.1l-0.1,0.8c-0.2,0-0.4-0.1-0.6-0.1c-0.3,0-0.5,0.1-0.6,0.2c-0.1,0.1-0.2,0.4-0.2,0.7v0.5h1.1v0.7H314v4.8H313z"
		/>
	<path class="st9" d="M323.5,174.6v0.9h-5.1c0-0.2,0-0.4,0.1-0.7c0.1-0.3,0.3-0.7,0.6-1c0.3-0.3,0.7-0.7,1.2-1.2
		c0.8-0.7,1.4-1.2,1.7-1.6c0.3-0.4,0.4-0.8,0.4-1.1c0-0.4-0.1-0.7-0.4-0.9c-0.3-0.3-0.6-0.4-1-0.4c-0.5,0-0.8,0.1-1.1,0.4
		s-0.4,0.7-0.4,1.1l-1-0.1c0.1-0.7,0.3-1.3,0.8-1.7c0.4-0.4,1-0.6,1.8-0.6c0.7,0,1.3,0.2,1.8,0.6c0.4,0.4,0.6,0.9,0.6,1.5
		c0,0.3-0.1,0.6-0.2,0.9c-0.1,0.3-0.3,0.6-0.6,0.9c-0.3,0.3-0.8,0.8-1.5,1.4c-0.6,0.5-0.9,0.8-1.1,1s-0.3,0.3-0.4,0.5H323.5z"/>
</g>
<g>
	<path class="st9" d="M307.5,211.1v-7.7h1l4,6v-6h1v7.7h-1l-4-6.1v6.1H307.5z"/>
	<path class="st9" d="M315,208.6l1-0.1c0,0.4,0.2,0.7,0.3,0.9c0.2,0.2,0.4,0.4,0.8,0.6c0.3,0.2,0.7,0.2,1.2,0.2c0.4,0,0.7-0.1,1-0.2
		c0.3-0.1,0.5-0.3,0.7-0.5s0.2-0.4,0.2-0.7c0-0.2-0.1-0.5-0.2-0.6c-0.1-0.2-0.4-0.3-0.7-0.5c-0.2-0.1-0.7-0.2-1.4-0.4
		c-0.7-0.2-1.2-0.3-1.5-0.5c-0.4-0.2-0.6-0.4-0.8-0.7c-0.2-0.3-0.3-0.6-0.3-1c0-0.4,0.1-0.8,0.3-1.1s0.5-0.6,1-0.8
		c0.4-0.2,0.9-0.3,1.4-0.3c0.6,0,1.1,0.1,1.5,0.3c0.4,0.2,0.8,0.5,1,0.8s0.4,0.8,0.4,1.2l-1,0.1c-0.1-0.5-0.2-0.9-0.5-1.1
		c-0.3-0.2-0.8-0.4-1.3-0.4c-0.6,0-1.1,0.1-1.3,0.3c-0.3,0.2-0.4,0.5-0.4,0.8c0,0.3,0.1,0.5,0.3,0.7c0.2,0.2,0.7,0.4,1.5,0.5
		s1.4,0.4,1.7,0.5c0.4,0.2,0.8,0.5,1,0.8c0.2,0.3,0.3,0.7,0.3,1.1c0,0.4-0.1,0.8-0.4,1.2c-0.2,0.4-0.6,0.6-1,0.8s-0.9,0.3-1.5,0.3
		c-0.7,0-1.3-0.1-1.8-0.3c-0.5-0.2-0.8-0.5-1.1-0.9C315.1,209.6,315,209.1,315,208.6z"/>
	<path class="st9" d="M322.5,211.1v-7.7h1.5l1.8,5.5c0.2,0.5,0.3,0.9,0.4,1.1c0.1-0.3,0.2-0.7,0.4-1.2l1.8-5.4h1.4v7.7h-1v-6.4
		l-2.2,6.4h-0.9l-2.2-6.6v6.6H322.5z"/>
	<path class="st9" d="M333,211.1l3-7.7h1.1l3.2,7.7h-1.2l-0.9-2.3H335l-0.8,2.3H333z M335.2,207.9h2.6l-0.8-2.1
		c-0.2-0.6-0.4-1.2-0.5-1.6c-0.1,0.5-0.2,1-0.4,1.5L335.2,207.9z"/>
</g>
<g>
	<path class="st9" d="M307,263.3v-7.7h1l4,6v-6h1v7.7h-1l-4-6.1v6.1H307z"/>
	<path class="st9" d="M314.4,260.8l1-0.1c0,0.4,0.2,0.7,0.3,0.9c0.2,0.2,0.4,0.4,0.8,0.6c0.3,0.2,0.7,0.2,1.2,0.2
		c0.4,0,0.7-0.1,1-0.2c0.3-0.1,0.5-0.3,0.7-0.5s0.2-0.4,0.2-0.7c0-0.2-0.1-0.5-0.2-0.6c-0.1-0.2-0.4-0.3-0.7-0.5
		c-0.2-0.1-0.7-0.2-1.4-0.4c-0.7-0.2-1.2-0.3-1.5-0.5c-0.4-0.2-0.6-0.4-0.8-0.7c-0.2-0.3-0.3-0.6-0.3-1c0-0.4,0.1-0.8,0.3-1.1
		s0.5-0.6,1-0.8c0.4-0.2,0.9-0.3,1.4-0.3c0.6,0,1.1,0.1,1.5,0.3c0.4,0.2,0.8,0.5,1,0.8s0.4,0.8,0.4,1.2l-1,0.1
		c-0.1-0.5-0.2-0.9-0.5-1.1c-0.3-0.2-0.8-0.4-1.3-0.4c-0.6,0-1.1,0.1-1.3,0.3c-0.3,0.2-0.4,0.5-0.4,0.8c0,0.3,0.1,0.5,0.3,0.7
		c0.2,0.2,0.7,0.4,1.5,0.5s1.4,0.4,1.7,0.5c0.4,0.2,0.8,0.5,1,0.8c0.2,0.3,0.3,0.7,0.3,1.1c0,0.4-0.1,0.8-0.4,1.2
		c-0.2,0.4-0.6,0.6-1,0.8s-0.9,0.3-1.5,0.3c-0.7,0-1.3-0.1-1.8-0.3c-0.5-0.2-0.8-0.5-1.1-0.9C314.5,261.8,314.4,261.4,314.4,260.8z"
		/>
	<path class="st9" d="M321.9,263.3v-7.7h1.5l1.8,5.5c0.2,0.5,0.3,0.9,0.4,1.1c0.1-0.3,0.2-0.7,0.4-1.2l1.8-5.4h1.4v7.7h-1v-6.4
		l-2.2,6.4h-0.9l-2.2-6.6v6.6H321.9z"/>
	<path class="st9" d="M333.8,263.3v-7.7h2.9c0.6,0,1.1,0.1,1.4,0.2c0.4,0.2,0.6,0.4,0.8,0.7c0.2,0.3,0.3,0.7,0.3,1
		c0,0.3-0.1,0.6-0.3,0.9s-0.4,0.5-0.8,0.7c0.5,0.1,0.8,0.4,1.1,0.7c0.2,0.3,0.4,0.7,0.4,1.2c0,0.4-0.1,0.7-0.2,1
		c-0.2,0.3-0.3,0.5-0.6,0.7c-0.2,0.2-0.5,0.3-0.8,0.4s-0.8,0.1-1.2,0.1H333.8z M334.8,258.9h1.7c0.5,0,0.8,0,1-0.1
		c0.3-0.1,0.5-0.2,0.6-0.4c0.1-0.2,0.2-0.4,0.2-0.7c0-0.3-0.1-0.5-0.2-0.7c-0.1-0.2-0.3-0.3-0.5-0.4c-0.2-0.1-0.6-0.1-1.2-0.1h-1.5
		V258.9z M334.8,262.4h1.9c0.3,0,0.6,0,0.7,0c0.2,0,0.4-0.1,0.6-0.2c0.2-0.1,0.3-0.2,0.4-0.4s0.2-0.4,0.2-0.6c0-0.3-0.1-0.5-0.2-0.7
		s-0.4-0.4-0.6-0.4s-0.6-0.1-1.1-0.1h-1.8V262.4z"/>
</g>
<g>
	<rect x="254" y="45" class="st7" width="106.6" height="104.2"/>
	<g>
		<g>
			<g>
				<rect x="254" y="54.3" class="st10" width="33.4" height="12.2"/>
				<g>
					<path class="st9" d="M266.5,62.3l1,0.1c-0.2,0.6-0.4,1-0.9,1.3c-0.4,0.3-0.9,0.5-1.6,0.5c-0.8,0-1.5-0.3-1.9-0.8
						c-0.5-0.5-0.7-1.2-0.7-2.1c0-0.9,0.2-1.7,0.7-2.2s1.1-0.8,1.9-0.8c0.7,0,1.4,0.3,1.8,0.8s0.7,1.2,0.7,2.1c0,0.1,0,0.1,0,0.3
						h-4.2c0,0.6,0.2,1.1,0.5,1.4s0.7,0.5,1.2,0.5c0.3,0,0.6-0.1,0.9-0.3S266.4,62.7,266.5,62.3z M263.4,60.7h3.1
						c0-0.5-0.2-0.8-0.4-1.1c-0.3-0.4-0.7-0.5-1.2-0.5c-0.4,0-0.8,0.1-1.1,0.4C263.6,59.9,263.5,60.3,263.4,60.7z"/>
					<path class="st9" d="M268.4,60.3c0-0.9,0.1-1.6,0.3-2.2s0.5-1,0.8-1.3c0.4-0.3,0.8-0.5,1.4-0.5c0.4,0,0.8,0.1,1.1,0.2
						s0.6,0.4,0.8,0.7s0.4,0.7,0.5,1.1c0.1,0.5,0.2,1.1,0.2,1.8c0,0.9-0.1,1.6-0.3,2.2s-0.5,1-0.8,1.3c-0.4,0.3-0.8,0.5-1.4,0.5
						c-0.7,0-1.3-0.3-1.7-0.8C268.7,62.8,268.4,61.7,268.4,60.3z M269.4,60.3c0,1.3,0.1,2.1,0.4,2.5c0.3,0.4,0.7,0.6,1.1,0.6
						s0.8-0.2,1.1-0.6s0.4-1.3,0.4-2.5c0-1.3-0.1-2.1-0.4-2.5c-0.3-0.4-0.7-0.6-1.1-0.6c-0.4,0-0.8,0.2-1,0.6
						C269.6,58.1,269.4,59,269.4,60.3z"/>
					<path class="st9" d="M278.3,63.4c-0.4,0.3-0.7,0.5-1,0.6c-0.3,0.1-0.7,0.2-1,0.2c-0.6,0-1.1-0.1-1.4-0.4
						c-0.3-0.3-0.5-0.7-0.5-1.1c0-0.3,0.1-0.5,0.2-0.7c0.1-0.2,0.3-0.4,0.5-0.5c0.2-0.1,0.4-0.2,0.7-0.3c0.2,0,0.5-0.1,0.8-0.1
						c0.8-0.1,1.3-0.2,1.7-0.3c0-0.1,0-0.2,0-0.2c0-0.4-0.1-0.7-0.3-0.8c-0.2-0.2-0.6-0.3-1.1-0.3c-0.4,0-0.8,0.1-1,0.2
						c-0.2,0.2-0.4,0.4-0.5,0.8l-0.9-0.1c0.1-0.4,0.2-0.7,0.4-1c0.2-0.2,0.5-0.4,0.8-0.6c0.4-0.1,0.8-0.2,1.3-0.2
						c0.5,0,0.9,0.1,1.2,0.2c0.3,0.1,0.5,0.3,0.7,0.4c0.1,0.2,0.2,0.4,0.3,0.6c0,0.2,0,0.5,0,0.9v1.3c0,0.9,0,1.4,0.1,1.7
						c0,0.2,0.1,0.5,0.2,0.7h-1C278.4,63.9,278.4,63.6,278.3,63.4z M278.3,61.3c-0.3,0.1-0.9,0.3-1.5,0.4c-0.4,0.1-0.7,0.1-0.8,0.2
						c-0.2,0.1-0.3,0.2-0.4,0.3c-0.1,0.1-0.1,0.3-0.1,0.4c0,0.3,0.1,0.5,0.3,0.6c0.2,0.2,0.5,0.3,0.8,0.3c0.4,0,0.7-0.1,1-0.2
						c0.3-0.2,0.5-0.4,0.6-0.7c0.1-0.2,0.2-0.5,0.2-0.9V61.3z"/>
				</g>
			</g>
		</g>
		<g>
			<g>
				<rect x="254" y="76.3" class="st10" width="33.4" height="12.2"/>
				<g>
					<path class="st9" d="M266.5,84.3l1,0.1c-0.2,0.6-0.4,1-0.9,1.3c-0.4,0.3-0.9,0.5-1.6,0.5c-0.8,0-1.5-0.3-1.9-0.8
						c-0.5-0.5-0.7-1.2-0.7-2.1c0-0.9,0.2-1.7,0.7-2.2s1.1-0.8,1.9-0.8c0.7,0,1.4,0.3,1.8,0.8s0.7,1.2,0.7,2.1c0,0.1,0,0.1,0,0.3
						h-4.2c0,0.6,0.2,1.1,0.5,1.4s0.7,0.5,1.2,0.5c0.3,0,0.6-0.1,0.9-0.3S266.4,84.7,266.5,84.3z M263.4,82.8h3.1
						c0-0.5-0.2-0.8-0.4-1.1c-0.3-0.4-0.7-0.5-1.2-0.5c-0.4,0-0.8,0.1-1.1,0.4C263.6,81.9,263.5,82.3,263.4,82.8z"/>
					<path class="st9" d="M268.4,82.3c0-0.9,0.1-1.6,0.3-2.2s0.5-1,0.8-1.3c0.4-0.3,0.8-0.5,1.4-0.5c0.4,0,0.8,0.1,1.1,0.2
						s0.6,0.4,0.8,0.7s0.4,0.7,0.5,1.1c0.1,0.5,0.2,1.1,0.2,1.8c0,0.9-0.1,1.6-0.3,2.2s-0.5,1-0.8,1.3c-0.4,0.3-0.8,0.5-1.4,0.5
						c-0.7,0-1.3-0.3-1.7-0.8C268.7,84.8,268.4,83.8,268.4,82.3z M269.4,82.3c0,1.3,0.1,2.1,0.4,2.5c0.3,0.4,0.7,0.6,1.1,0.6
						s0.8-0.2,1.1-0.6s0.4-1.3,0.4-2.5c0-1.3-0.1-2.1-0.4-2.5c-0.3-0.4-0.7-0.6-1.1-0.6c-0.4,0-0.8,0.2-1,0.6
						C269.6,80.2,269.4,81.1,269.4,82.3z"/>
					<path class="st9" d="M275.6,86.1h-0.9v-7.7h0.9v2.7c0.4-0.5,0.9-0.8,1.5-0.8c0.3,0,0.7,0.1,1,0.2c0.3,0.1,0.6,0.3,0.8,0.6
						s0.4,0.6,0.5,0.9c0.1,0.4,0.2,0.7,0.2,1.1c0,1-0.2,1.7-0.7,2.2s-1,0.8-1.7,0.8c-0.7,0-1.2-0.3-1.5-0.8V86.1z M275.6,83.3
						c0,0.7,0.1,1.2,0.3,1.5c0.3,0.5,0.7,0.7,1.2,0.7c0.4,0,0.8-0.2,1.1-0.5c0.3-0.4,0.5-0.9,0.5-1.6c0-0.7-0.1-1.3-0.4-1.6
						c-0.3-0.3-0.6-0.5-1-0.5c-0.4,0-0.8,0.2-1.1,0.5C275.7,82.1,275.6,82.6,275.6,83.3z"/>
				</g>
			</g>
		</g>
		<g>
			<g>
				<rect x="254" y="105.6" class="st10" width="33.4" height="12.2"/>
				<g>
					<path class="st9" d="M266.5,113.6l1,0.1c-0.2,0.6-0.4,1-0.9,1.3c-0.4,0.3-0.9,0.5-1.6,0.5c-0.8,0-1.5-0.3-1.9-0.8
						c-0.5-0.5-0.7-1.2-0.7-2.1c0-0.9,0.2-1.7,0.7-2.2s1.1-0.8,1.9-0.8c0.7,0,1.4,0.3,1.8,0.8s0.7,1.2,0.7,2.1c0,0.1,0,0.1,0,0.3
						h-4.2c0,0.6,0.2,1.1,0.5,1.4s0.7,0.5,1.2,0.5c0.3,0,0.6-0.1,0.9-0.3S266.4,114,266.5,113.6z M263.4,112.1h3.1
						c0-0.5-0.2-0.8-0.4-1.1c-0.3-0.4-0.7-0.5-1.2-0.5c-0.4,0-0.8,0.1-1.1,0.4C263.6,111.2,263.5,111.6,263.4,112.1z"/>
					<path class="st9" d="M268.4,111.6c0-0.9,0.1-1.6,0.3-2.2s0.5-1,0.8-1.3c0.4-0.3,0.8-0.5,1.4-0.5c0.4,0,0.8,0.1,1.1,0.2
						s0.6,0.4,0.8,0.7s0.4,0.7,0.5,1.1c0.1,0.5,0.2,1.1,0.2,1.8c0,0.9-0.1,1.6-0.3,2.2s-0.5,1-0.8,1.3c-0.4,0.3-0.8,0.5-1.4,0.5
						c-0.7,0-1.3-0.3-1.7-0.8C268.7,114.1,268.4,113,268.4,111.6z M269.4,111.6c0,1.3,0.1,2.1,0.4,2.5c0.3,0.4,0.7,0.6,1.1,0.6
						s0.8-0.2,1.1-0.6s0.4-1.3,0.4-2.5c0-1.3-0.1-2.1-0.4-2.5c-0.3-0.4-0.7-0.6-1.1-0.6c-0.4,0-0.8,0.2-1,0.6
						C269.6,109.5,269.4,110.3,269.4,111.6z"/>
					<path class="st9" d="M278.3,114.7c-0.4,0.3-0.7,0.5-1,0.6c-0.3,0.1-0.7,0.2-1,0.2c-0.6,0-1.1-0.1-1.4-0.4
						c-0.3-0.3-0.5-0.7-0.5-1.1c0-0.3,0.1-0.5,0.2-0.7c0.1-0.2,0.3-0.4,0.5-0.5c0.2-0.1,0.4-0.2,0.7-0.3c0.2,0,0.5-0.1,0.8-0.1
						c0.8-0.1,1.3-0.2,1.7-0.3c0-0.1,0-0.2,0-0.2c0-0.4-0.1-0.7-0.3-0.8c-0.2-0.2-0.6-0.3-1.1-0.3c-0.4,0-0.8,0.1-1,0.2
						c-0.2,0.2-0.4,0.4-0.5,0.8l-0.9-0.1c0.1-0.4,0.2-0.7,0.4-1c0.2-0.2,0.5-0.4,0.8-0.6c0.4-0.1,0.8-0.2,1.3-0.2
						c0.5,0,0.9,0.1,1.2,0.2c0.3,0.1,0.5,0.3,0.7,0.4c0.1,0.2,0.2,0.4,0.3,0.6c0,0.2,0,0.5,0,0.9v1.3c0,0.9,0,1.4,0.1,1.7
						c0,0.2,0.1,0.5,0.2,0.7h-1C278.4,115.2,278.4,115,278.3,114.7z M278.3,112.6c-0.3,0.1-0.9,0.3-1.5,0.4
						c-0.4,0.1-0.7,0.1-0.8,0.2c-0.2,0.1-0.3,0.2-0.4,0.3c-0.1,0.1-0.1,0.3-0.1,0.4c0,0.3,0.1,0.5,0.3,0.6c0.2,0.2,0.5,0.3,0.8,0.3
						c0.4,0,0.7-0.1,1-0.2c0.3-0.2,0.5-0.4,0.6-0.7c0.1-0.2,0.2-0.5,0.2-0.9V112.6z"/>
				</g>
			</g>
		</g>
		<g>
			<g>
				<rect x="254" y="127.6" class="st10" width="33.4" height="12.2"/>
				<g>
					<path class="st9" d="M266.5,135.6l1,0.1c-0.2,0.6-0.4,1-0.9,1.3c-0.4,0.3-0.9,0.5-1.6,0.5c-0.8,0-1.5-0.3-1.9-0.8
						c-0.5-0.5-0.7-1.2-0.7-2.1c0-0.9,0.2-1.7,0.7-2.2s1.1-0.8,1.9-0.8c0.7,0,1.4,0.3,1.8,0.8s0.7,1.2,0.7,2.1c0,0.1,0,0.1,0,0.3
						h-4.2c0,0.6,0.2,1.1,0.5,1.4s0.7,0.5,1.2,0.5c0.3,0,0.6-0.1,0.9-0.3S266.4,136,266.5,135.6z M263.4,134.1h3.1
						c0-0.5-0.2-0.8-0.4-1.1c-0.3-0.4-0.7-0.5-1.2-0.5c-0.4,0-0.8,0.1-1.1,0.4C263.6,133.2,263.5,133.6,263.4,134.1z"/>
					<path class="st9" d="M268.4,133.6c0-0.9,0.1-1.6,0.3-2.2s0.5-1,0.8-1.3c0.4-0.3,0.8-0.5,1.4-0.5c0.4,0,0.8,0.1,1.1,0.2
						s0.6,0.4,0.8,0.7s0.4,0.7,0.5,1.1c0.1,0.5,0.2,1.1,0.2,1.8c0,0.9-0.1,1.6-0.3,2.2s-0.5,1-0.8,1.3c-0.4,0.3-0.8,0.5-1.4,0.5
						c-0.7,0-1.3-0.3-1.7-0.8C268.7,136.1,268.4,135.1,268.4,133.6z M269.4,133.6c0,1.3,0.1,2.1,0.4,2.5c0.3,0.4,0.7,0.6,1.1,0.6
						s0.8-0.2,1.1-0.6s0.4-1.3,0.4-2.5c0-1.3-0.1-2.1-0.4-2.5c-0.3-0.4-0.7-0.6-1.1-0.6c-0.4,0-0.8,0.2-1,0.6
						C269.6,131.5,269.4,132.4,269.4,133.6z"/>
					<path class="st9" d="M275.6,137.4h-0.9v-7.7h0.9v2.7c0.4-0.5,0.9-0.8,1.5-0.8c0.3,0,0.7,0.1,1,0.2c0.3,0.1,0.6,0.3,0.8,0.6
						s0.4,0.6,0.5,0.9c0.1,0.4,0.2,0.7,0.2,1.1c0,1-0.2,1.7-0.7,2.2s-1,0.8-1.7,0.8c-0.7,0-1.2-0.3-1.5-0.8V137.4z M275.6,134.6
						c0,0.7,0.1,1.2,0.3,1.5c0.3,0.5,0.7,0.7,1.2,0.7c0.4,0,0.8-0.2,1.1-0.5c0.3-0.4,0.5-0.9,0.5-1.6c0-0.7-0.1-1.3-0.4-1.6
						c-0.3-0.3-0.6-0.5-1-0.5c-0.4,0-0.8,0.2-1.1,0.5C275.7,133.4,275.6,133.9,275.6,134.6z"/>
				</g>
			</g>
		</g>
	</g>
	<line class="st10" x1="254" y1="97.1" x2="360.6" y2="97.1"/>
</g>
<g>
	<path class="st9" d="M291.1,36.3l1-0.1c0,0.4,0.2,0.7,0.3,0.9c0.2,0.2,0.4,0.4,0.8,0.6c0.3,0.2,0.7,0.2,1.2,0.2
		c0.4,0,0.7-0.1,1-0.2c0.3-0.1,0.5-0.3,0.7-0.5c0.1-0.2,0.2-0.4,0.2-0.7c0-0.2-0.1-0.5-0.2-0.6c-0.1-0.2-0.4-0.3-0.7-0.5
		c-0.2-0.1-0.7-0.2-1.4-0.4c-0.7-0.2-1.2-0.3-1.5-0.5c-0.4-0.2-0.6-0.4-0.8-0.7c-0.2-0.3-0.3-0.6-0.3-1c0-0.4,0.1-0.8,0.3-1.1
		c0.2-0.3,0.5-0.6,1-0.8s0.9-0.3,1.4-0.3c0.6,0,1.1,0.1,1.5,0.3c0.4,0.2,0.8,0.5,1,0.8c0.2,0.4,0.4,0.8,0.4,1.2l-1,0.1
		c-0.1-0.5-0.2-0.9-0.5-1.1c-0.3-0.2-0.8-0.4-1.3-0.4c-0.6,0-1.1,0.1-1.3,0.3c-0.3,0.2-0.4,0.5-0.4,0.8c0,0.3,0.1,0.5,0.3,0.7
		c0.2,0.2,0.7,0.4,1.5,0.5s1.4,0.4,1.7,0.5c0.4,0.2,0.8,0.5,1,0.8c0.2,0.3,0.3,0.7,0.3,1.1c0,0.4-0.1,0.8-0.4,1.2
		c-0.2,0.4-0.6,0.6-1,0.8c-0.4,0.2-0.9,0.3-1.5,0.3c-0.7,0-1.3-0.1-1.8-0.3c-0.5-0.2-0.8-0.5-1.1-0.9
		C291.2,37.2,291.1,36.8,291.1,36.3z"/>
	<path class="st9" d="M298.5,38.7V31h0.9v2.8c0.4-0.5,1-0.8,1.7-0.8c0.4,0,0.8,0.1,1.1,0.2c0.3,0.2,0.5,0.4,0.7,0.7
		c0.1,0.3,0.2,0.7,0.2,1.3v3.5h-0.9v-3.5c0-0.5-0.1-0.8-0.3-1s-0.5-0.3-0.9-0.3c-0.3,0-0.5,0.1-0.8,0.2s-0.4,0.3-0.5,0.6
		c-0.1,0.2-0.2,0.6-0.2,1v3.1H298.5z"/>
	<path class="st9" d="M308.3,36.9l1,0.1c-0.2,0.6-0.4,1-0.9,1.3c-0.4,0.3-0.9,0.5-1.6,0.5c-0.8,0-1.5-0.3-1.9-0.8
		c-0.5-0.5-0.7-1.2-0.7-2.1c0-0.9,0.2-1.7,0.7-2.2s1.1-0.8,1.9-0.8c0.7,0,1.4,0.3,1.8,0.8s0.7,1.2,0.7,2.1c0,0.1,0,0.1,0,0.3h-4.2
		c0,0.6,0.2,1.1,0.5,1.4s0.7,0.5,1.2,0.5c0.3,0,0.6-0.1,0.9-0.3S308.1,37.3,308.3,36.9z M305.2,35.4h3.1c0-0.5-0.2-0.8-0.4-1.1
		c-0.3-0.4-0.7-0.5-1.2-0.5c-0.4,0-0.8,0.1-1.1,0.4C305.4,34.5,305.2,34.9,305.2,35.4z"/>
	<path class="st9" d="M310.4,38.7V31h0.9v7.7H310.4z"/>
	<path class="st9" d="M313,38.7v-4.8h-0.8v-0.7h0.8v-0.6c0-0.4,0-0.7,0.1-0.8c0.1-0.2,0.3-0.4,0.5-0.6s0.6-0.2,1-0.2
		c0.3,0,0.6,0,0.9,0.1l-0.1,0.8c-0.2,0-0.4-0.1-0.6-0.1c-0.3,0-0.5,0.1-0.6,0.2c-0.1,0.1-0.2,0.4-0.2,0.7v0.5h1.1v0.7H314v4.8H313z"
		/>
	<path class="st9" d="M322.1,38.7h-0.9v-6c-0.2,0.2-0.5,0.4-0.9,0.7c-0.4,0.2-0.7,0.4-1,0.5v-0.9c0.5-0.2,1-0.6,1.4-0.9
		c0.4-0.4,0.7-0.7,0.8-1h0.6V38.7z"/>
</g>
<g>
	<path class="st9" d="M307.5,74.3v-7.7h1l4,6v-6h1v7.7h-1l-4-6.1v6.1H307.5z"/>
	<path class="st9" d="M315,71.8l1-0.1c0,0.4,0.2,0.7,0.3,0.9c0.2,0.2,0.4,0.4,0.8,0.6c0.3,0.2,0.7,0.2,1.2,0.2c0.4,0,0.7-0.1,1-0.2
		c0.3-0.1,0.5-0.3,0.7-0.5c0.1-0.2,0.2-0.4,0.2-0.7c0-0.2-0.1-0.5-0.2-0.6c-0.1-0.2-0.4-0.3-0.7-0.5c-0.2-0.1-0.7-0.2-1.4-0.4
		c-0.7-0.2-1.2-0.3-1.5-0.5c-0.4-0.2-0.6-0.4-0.8-0.7c-0.2-0.3-0.3-0.6-0.3-1c0-0.4,0.1-0.8,0.3-1.1c0.2-0.3,0.5-0.6,1-0.8
		s0.9-0.3,1.4-0.3c0.6,0,1.1,0.1,1.5,0.3c0.4,0.2,0.8,0.5,1,0.8c0.2,0.4,0.4,0.8,0.4,1.2l-1,0.1c-0.1-0.5-0.2-0.9-0.5-1.1
		c-0.3-0.2-0.8-0.4-1.3-0.4c-0.6,0-1.1,0.1-1.3,0.3c-0.3,0.2-0.4,0.5-0.4,0.8c0,0.3,0.1,0.5,0.3,0.7c0.2,0.2,0.7,0.4,1.5,0.5
		s1.4,0.4,1.7,0.5c0.4,0.2,0.8,0.5,1,0.8c0.2,0.3,0.3,0.7,0.3,1.1c0,0.4-0.1,0.8-0.4,1.2c-0.2,0.4-0.6,0.6-1,0.8
		c-0.4,0.2-0.9,0.3-1.5,0.3c-0.7,0-1.3-0.1-1.8-0.3c-0.5-0.2-0.8-0.5-1.1-0.9C315.1,72.8,315,72.3,315,71.8z"/>
	<path class="st9" d="M322.5,74.3v-7.7h1.5l1.8,5.5c0.2,0.5,0.3,0.9,0.4,1.1c0.1-0.3,0.2-0.7,0.4-1.2l1.8-5.4h1.4v7.7h-1v-6.4
		l-2.2,6.4h-0.9l-2.2-6.6v6.6H322.5z"/>
	<path class="st9" d="M333,74.3l3-7.7h1.1l3.2,7.7h-1.2l-0.9-2.3H335l-0.8,2.3H333z M335.2,71.1h2.6l-0.8-2.1
		c-0.2-0.6-0.4-1.2-0.5-1.6c-0.1,0.5-0.2,1-0.4,1.5L335.2,71.1z"/>
</g>
<g>
	<path class="st9" d="M307,126.5v-7.7h1l4,6v-6h1v7.7h-1l-4-6.1v6.1H307z"/>
	<path class="st9" d="M314.4,124l1-0.1c0,0.4,0.2,0.7,0.3,0.9c0.2,0.2,0.4,0.4,0.8,0.6c0.3,0.2,0.7,0.2,1.2,0.2c0.4,0,0.7-0.1,1-0.2
		c0.3-0.1,0.5-0.3,0.7-0.5c0.1-0.2,0.2-0.4,0.2-0.7c0-0.2-0.1-0.5-0.2-0.6c-0.1-0.2-0.4-0.3-0.7-0.5c-0.2-0.1-0.7-0.2-1.4-0.4
		c-0.7-0.2-1.2-0.3-1.5-0.5c-0.4-0.2-0.6-0.4-0.8-0.7c-0.2-0.3-0.3-0.6-0.3-1c0-0.4,0.1-0.8,0.3-1.1c0.2-0.3,0.5-0.6,1-0.8
		s0.9-0.3,1.4-0.3c0.6,0,1.1,0.1,1.5,0.3c0.4,0.2,0.8,0.5,1,0.8c0.2,0.4,0.4,0.8,0.4,1.2l-1,0.1c-0.1-0.5-0.2-0.9-0.5-1.1
		c-0.3-0.2-0.8-0.4-1.3-0.4c-0.6,0-1.1,0.1-1.3,0.3c-0.3,0.2-0.4,0.5-0.4,0.8c0,0.3,0.1,0.5,0.3,0.7c0.2,0.2,0.7,0.4,1.5,0.5
		s1.4,0.4,1.7,0.5c0.4,0.2,0.8,0.5,1,0.8c0.2,0.3,0.3,0.7,0.3,1.1c0,0.4-0.1,0.8-0.4,1.2c-0.2,0.4-0.6,0.6-1,0.8
		c-0.4,0.2-0.9,0.3-1.5,0.3c-0.7,0-1.3-0.1-1.8-0.3c-0.5-0.2-0.8-0.5-1.1-0.9C314.5,125,314.4,124.5,314.4,124z"/>
	<path class="st9" d="M321.9,126.5v-7.7h1.5l1.8,5.5c0.2,0.5,0.3,0.9,0.4,1.1c0.1-0.3,0.2-0.7,0.4-1.2l1.8-5.4h1.4v7.7h-1v-6.4
		l-2.2,6.4h-0.9l-2.2-6.6v6.6H321.9z"/>
	<path class="st9" d="M333.8,126.5v-7.7h2.9c0.6,0,1.1,0.1,1.4,0.2c0.4,0.2,0.6,0.4,0.8,0.7c0.2,0.3,0.3,0.7,0.3,1
		c0,0.3-0.1,0.6-0.3,0.9c-0.2,0.3-0.4,0.5-0.8,0.7c0.5,0.1,0.8,0.4,1.1,0.7c0.2,0.3,0.4,0.7,0.4,1.2c0,0.4-0.1,0.7-0.2,1
		s-0.3,0.5-0.6,0.7c-0.2,0.2-0.5,0.3-0.8,0.4c-0.3,0.1-0.8,0.1-1.2,0.1H333.8z M334.8,122h1.7c0.5,0,0.8,0,1-0.1
		c0.3-0.1,0.5-0.2,0.6-0.4c0.1-0.2,0.2-0.4,0.2-0.7c0-0.3-0.1-0.5-0.2-0.7c-0.1-0.2-0.3-0.3-0.5-0.4c-0.2-0.1-0.6-0.1-1.2-0.1h-1.5
		V122z M334.8,125.6h1.9c0.3,0,0.6,0,0.7,0c0.2,0,0.4-0.1,0.6-0.2c0.2-0.1,0.3-0.2,0.4-0.4c0.1-0.2,0.2-0.4,0.2-0.6
		c0-0.3-0.1-0.5-0.2-0.7s-0.4-0.4-0.6-0.4c-0.3-0.1-0.6-0.1-1.1-0.1h-1.8V125.6z"/>
</g>
<g>
	<path class="st9" d="M71.2,17.9l3.2-8.3h1.2l3.4,8.3h-1.2l-1-2.5h-3.5l-0.9,2.5H71.2z M73.6,14.5h2.8l-0.9-2.3
		c-0.3-0.7-0.5-1.3-0.6-1.7c-0.1,0.5-0.3,1.1-0.4,1.6L73.6,14.5z"/>
	<path class="st9" d="M79.9,17.9V9.6h5.6v1H81v2.6h3.9v1H81v3.8H79.9z"/>
	<path class="st9" d="M87,17.9V9.6h5.6v1h-4.5v2.6H92v1h-3.9v3.8H87z"/>
	<path class="st9" d="M95.7,17.9l3.2-8.3h1.2l3.4,8.3h-1.2l-1-2.5h-3.5l-0.9,2.5H95.7z M98.1,14.5h2.8l-0.9-2.3
		c-0.3-0.7-0.5-1.3-0.6-1.7c-0.1,0.5-0.3,1.1-0.4,1.6L98.1,14.5z"/>
	<path class="st9" d="M107.1,17.9v-2h-3.6V15l3.8-5.4h0.8V15h1.1v0.9h-1.1v2H107.1z M107.1,15v-3.7l-2.6,3.7H107.1z"/>
	<path class="st9" d="M110.3,13.8c0-1,0.1-1.8,0.3-2.4c0.2-0.6,0.5-1.1,0.9-1.4c0.4-0.3,0.9-0.5,1.5-0.5c0.4,0,0.8,0.1,1.2,0.3
		s0.6,0.4,0.8,0.8c0.2,0.3,0.4,0.7,0.5,1.2c0.1,0.5,0.2,1.1,0.2,2c0,1-0.1,1.8-0.3,2.4c-0.2,0.6-0.5,1.1-0.9,1.4
		c-0.4,0.3-0.9,0.5-1.5,0.5c-0.8,0-1.4-0.3-1.9-0.9C110.6,16.5,110.3,15.4,110.3,13.8z M111.4,13.8c0,1.4,0.2,2.3,0.5,2.7
		c0.3,0.5,0.7,0.7,1.2,0.7s0.9-0.2,1.2-0.7c0.3-0.5,0.5-1.4,0.5-2.7c0-1.4-0.2-2.3-0.5-2.7s-0.7-0.7-1.2-0.7c-0.5,0-0.8,0.2-1.1,0.6
		C111.5,11.5,111.4,12.5,111.4,13.8z"/>
	<path class="st9" d="M116.8,13.8c0-1,0.1-1.8,0.3-2.4c0.2-0.6,0.5-1.1,0.9-1.4c0.4-0.3,0.9-0.5,1.5-0.5c0.4,0,0.8,0.1,1.2,0.3
		s0.6,0.4,0.8,0.8c0.2,0.3,0.4,0.7,0.5,1.2c0.1,0.5,0.2,1.1,0.2,2c0,1-0.1,1.8-0.3,2.4c-0.2,0.6-0.5,1.1-0.9,1.4
		c-0.4,0.3-0.9,0.5-1.5,0.5c-0.8,0-1.4-0.3-1.9-0.9C117,16.5,116.8,15.4,116.8,13.8z M117.8,13.8c0,1.4,0.2,2.3,0.5,2.7
		c0.3,0.5,0.7,0.7,1.2,0.7s0.9-0.2,1.2-0.7c0.3-0.5,0.5-1.4,0.5-2.7c0-1.4-0.2-2.3-0.5-2.7s-0.7-0.7-1.2-0.7c-0.5,0-0.8,0.2-1.1,0.6
		C118,11.5,117.8,12.5,117.8,13.8z"/>
	<path class="st9" d="M126.9,17.9V9.6h1.1V13h4.3V9.6h1.1v8.3h-1.1V14H128v3.9H126.9z"/>
	<path class="st9" d="M134.3,17.9l3.2-8.3h1.2l3.4,8.3h-1.2l-1-2.5h-3.5l-0.9,2.5H134.3z M136.7,14.5h2.8l-0.9-2.3
		c-0.3-0.7-0.5-1.3-0.6-1.7c-0.1,0.5-0.3,1.1-0.4,1.6L136.7,14.5z"/>
	<path class="st9" d="M145.4,20.2v-8.3h0.9v0.8c0.2-0.3,0.5-0.5,0.7-0.7c0.3-0.2,0.6-0.2,1-0.2c0.5,0,1,0.1,1.4,0.4s0.7,0.6,0.9,1.1
		c0.2,0.5,0.3,1,0.3,1.6c0,0.6-0.1,1.2-0.3,1.7c-0.2,0.5-0.5,0.9-1,1.1c-0.4,0.3-0.9,0.4-1.3,0.4c-0.3,0-0.6-0.1-0.9-0.2
		s-0.5-0.3-0.7-0.5v2.9H145.4z M146.3,15c0,0.8,0.2,1.3,0.5,1.7c0.3,0.4,0.7,0.6,1.1,0.6c0.5,0,0.8-0.2,1.2-0.6
		c0.3-0.4,0.5-1,0.5-1.8c0-0.8-0.2-1.3-0.5-1.7c-0.3-0.4-0.7-0.6-1.1-0.6c-0.4,0-0.8,0.2-1.2,0.6S146.3,14.2,146.3,15z"/>
	<path class="st9" d="M155.7,17.2c-0.4,0.3-0.7,0.5-1.1,0.7s-0.7,0.2-1.1,0.2c-0.7,0-1.2-0.2-1.5-0.5c-0.4-0.3-0.5-0.7-0.5-1.2
		c0-0.3,0.1-0.6,0.2-0.8s0.3-0.4,0.5-0.6c0.2-0.1,0.5-0.3,0.7-0.3c0.2-0.1,0.5-0.1,0.9-0.2c0.8-0.1,1.4-0.2,1.8-0.4
		c0-0.1,0-0.2,0-0.3c0-0.4-0.1-0.7-0.3-0.9c-0.3-0.2-0.6-0.3-1.2-0.3c-0.5,0-0.8,0.1-1.1,0.3c-0.2,0.2-0.4,0.5-0.5,0.9l-1-0.1
		c0.1-0.4,0.2-0.8,0.4-1c0.2-0.3,0.5-0.5,0.9-0.6c0.4-0.1,0.8-0.2,1.4-0.2c0.5,0,0.9,0.1,1.2,0.2s0.6,0.3,0.7,0.5
		c0.2,0.2,0.3,0.4,0.3,0.7c0,0.2,0.1,0.5,0.1,0.9v1.4c0,0.9,0,1.5,0.1,1.8c0,0.3,0.1,0.5,0.3,0.7h-1.1
		C155.8,17.7,155.8,17.5,155.7,17.2z M155.6,14.9c-0.4,0.2-0.9,0.3-1.7,0.4c-0.4,0.1-0.7,0.1-0.9,0.2c-0.2,0.1-0.3,0.2-0.4,0.3
		s-0.1,0.3-0.1,0.5c0,0.3,0.1,0.5,0.3,0.7c0.2,0.2,0.5,0.3,0.9,0.3c0.4,0,0.7-0.1,1-0.3c0.3-0.2,0.5-0.4,0.7-0.7
		c0.1-0.2,0.2-0.6,0.2-1V14.9z"/>
	<path class="st9" d="M158.3,10.8V9.6h1v1.2H158.3z M158.3,17.9v-6h1v6H158.3z"/>
	<path class="st9" d="M160.8,17.9v-6h0.9v0.9c0.2-0.4,0.4-0.7,0.6-0.8c0.2-0.1,0.4-0.2,0.7-0.2c0.3,0,0.7,0.1,1,0.3l-0.4,0.9
		c-0.2-0.1-0.5-0.2-0.7-0.2c-0.2,0-0.4,0.1-0.6,0.2s-0.3,0.3-0.4,0.6c-0.1,0.4-0.2,0.8-0.2,1.2v3.1H160.8z"/>
	<path class="st9" d="M169,17.9l-1.8-6h1.1l1,3.5l0.4,1.3c0-0.1,0.1-0.5,0.3-1.2l1-3.5h1l0.9,3.5l0.3,1.1l0.3-1.2l1-3.5h1l-1.9,6
		h-1.1l-1-3.6l-0.2-1l-1.2,4.6H169z"/>
	<path class="st9" d="M176.3,10.8V9.6h1v1.2H176.3z M176.3,17.9v-6h1v6H176.3z"/>
	<path class="st9" d="M181.1,17l0.1,0.9c-0.3,0.1-0.5,0.1-0.8,0.1c-0.4,0-0.7-0.1-0.9-0.2s-0.3-0.3-0.4-0.5
		c-0.1-0.2-0.1-0.6-0.1-1.2v-3.5h-0.7v-0.8h0.7v-1.5l1-0.6v2.1h1v0.8h-1v3.5c0,0.3,0,0.5,0.1,0.6s0.1,0.1,0.2,0.2
		c0.1,0,0.2,0.1,0.3,0.1C180.7,17.1,180.9,17,181.1,17z"/>
	<path class="st9" d="M182,17.9V9.6h1v3c0.5-0.6,1.1-0.8,1.8-0.8c0.4,0,0.8,0.1,1.2,0.3c0.3,0.2,0.6,0.4,0.7,0.7
		c0.1,0.3,0.2,0.8,0.2,1.3v3.8h-1v-3.8c0-0.5-0.1-0.9-0.3-1.1c-0.2-0.2-0.5-0.3-0.9-0.3c-0.3,0-0.6,0.1-0.9,0.2
		c-0.3,0.2-0.5,0.4-0.6,0.6c-0.1,0.3-0.2,0.6-0.2,1.1v3.3H182z"/>
	<path class="st9" d="M193.9,17l0.1,0.9c-0.3,0.1-0.5,0.1-0.8,0.1c-0.4,0-0.7-0.1-0.9-0.2s-0.3-0.3-0.4-0.5
		c-0.1-0.2-0.1-0.6-0.1-1.2v-3.5h-0.7v-0.8h0.7v-1.5l1-0.6v2.1h1v0.8h-1v3.5c0,0.3,0,0.5,0.1,0.6s0.1,0.1,0.2,0.2
		c0.1,0,0.2,0.1,0.3,0.1C193.6,17.1,193.7,17,193.9,17z"/>
	<path class="st9" d="M196,17.9l-1.8-6h1.1l1,3.5l0.4,1.3c0-0.1,0.1-0.5,0.3-1.2l1-3.5h1l0.9,3.5l0.3,1.1l0.3-1.2l1-3.5h1l-1.9,6
		h-1.1l-1-3.6l-0.2-1l-1.2,4.6H196z"/>
	<path class="st9" d="M202.9,14.9c0-1.1,0.3-1.9,0.9-2.5c0.5-0.4,1.1-0.7,1.9-0.7c0.8,0,1.5,0.3,2,0.8c0.5,0.5,0.8,1.3,0.8,2.2
		c0,0.8-0.1,1.4-0.3,1.8c-0.2,0.4-0.6,0.8-1,1c-0.4,0.2-0.9,0.4-1.5,0.4c-0.8,0-1.5-0.3-2-0.8C203.2,16.7,202.9,15.9,202.9,14.9z
		 M203.9,14.9c0,0.8,0.2,1.3,0.5,1.7c0.3,0.4,0.8,0.6,1.3,0.6c0.5,0,0.9-0.2,1.3-0.6c0.3-0.4,0.5-1,0.5-1.8c0-0.7-0.2-1.3-0.5-1.7
		c-0.3-0.4-0.8-0.6-1.3-0.6c-0.5,0-0.9,0.2-1.3,0.6C204.1,13.6,203.9,14.2,203.9,14.9z"/>
	<path class="st9" d="M213.1,17.9V9.6h1.1l4.4,6.5V9.6h1.1v8.3h-1.1l-4.4-6.5v6.5H213.1z"/>
	<path class="st9" d="M221.1,15.3l1-0.1c0,0.4,0.2,0.8,0.3,1c0.2,0.3,0.5,0.5,0.8,0.6s0.8,0.2,1.3,0.2c0.4,0,0.8-0.1,1.1-0.2
		c0.3-0.1,0.6-0.3,0.7-0.5s0.2-0.5,0.2-0.7c0-0.3-0.1-0.5-0.2-0.7c-0.2-0.2-0.4-0.4-0.7-0.5c-0.2-0.1-0.7-0.2-1.5-0.4
		c-0.8-0.2-1.3-0.4-1.6-0.5c-0.4-0.2-0.7-0.5-0.9-0.8s-0.3-0.7-0.3-1c0-0.4,0.1-0.8,0.4-1.2c0.2-0.4,0.6-0.6,1-0.8s1-0.3,1.5-0.3
		c0.6,0,1.2,0.1,1.6,0.3c0.5,0.2,0.8,0.5,1.1,0.9c0.3,0.4,0.4,0.8,0.4,1.3l-1.1,0.1c-0.1-0.5-0.2-0.9-0.6-1.2s-0.8-0.4-1.4-0.4
		c-0.7,0-1.1,0.1-1.5,0.4c-0.3,0.2-0.5,0.5-0.5,0.9c0,0.3,0.1,0.5,0.3,0.7c0.2,0.2,0.8,0.4,1.7,0.6c0.9,0.2,1.5,0.4,1.8,0.5
		c0.5,0.2,0.8,0.5,1.1,0.8c0.2,0.3,0.3,0.7,0.3,1.2c0,0.4-0.1,0.9-0.4,1.2c-0.3,0.4-0.6,0.7-1.1,0.9c-0.5,0.2-1,0.3-1.6,0.3
		c-0.8,0-1.4-0.1-1.9-0.3c-0.5-0.2-0.9-0.5-1.2-1C221.2,16.3,221.1,15.8,221.1,15.3z"/>
	<path class="st9" d="M234.1,17v1h-5.5c0-0.2,0-0.5,0.1-0.7c0.1-0.4,0.4-0.7,0.7-1.1c0.3-0.4,0.8-0.8,1.3-1.3
		c0.9-0.7,1.5-1.3,1.8-1.8s0.5-0.8,0.5-1.2c0-0.4-0.1-0.7-0.4-1c-0.3-0.3-0.7-0.4-1.1-0.4c-0.5,0-0.9,0.1-1.2,0.4s-0.4,0.7-0.4,1.2
		l-1-0.1c0.1-0.8,0.3-1.4,0.8-1.8c0.5-0.4,1.1-0.6,1.9-0.6c0.8,0,1.4,0.2,1.9,0.7c0.5,0.4,0.7,1,0.7,1.6c0,0.3-0.1,0.7-0.2,1
		s-0.4,0.7-0.7,1c-0.3,0.4-0.8,0.8-1.6,1.5c-0.6,0.5-1,0.9-1.2,1c-0.2,0.2-0.3,0.4-0.4,0.6H234.1z"/>
	<path class="st9" d="M240.5,17v1H235c0-0.2,0-0.5,0.1-0.7c0.1-0.4,0.4-0.7,0.7-1.1c0.3-0.4,0.8-0.8,1.3-1.3
		c0.9-0.7,1.5-1.3,1.8-1.8s0.5-0.8,0.5-1.2c0-0.4-0.1-0.7-0.4-1c-0.3-0.3-0.7-0.4-1.1-0.4c-0.5,0-0.9,0.1-1.2,0.4s-0.4,0.7-0.4,1.2
		l-1-0.1c0.1-0.8,0.3-1.4,0.8-1.8c0.5-0.4,1.1-0.6,1.9-0.6c0.8,0,1.4,0.2,1.9,0.7c0.5,0.4,0.7,1,0.7,1.6c0,0.3-0.1,0.7-0.2,1
		s-0.4,0.7-0.7,1c-0.3,0.4-0.8,0.8-1.6,1.5c-0.6,0.5-1,0.9-1.2,1c-0.2,0.2-0.3,0.4-0.4,0.6H240.5z"/>
	<path class="st9" d="M244.9,17.9v-2h-3.6V15l3.8-5.4h0.8V15h1.1v0.9h-1.1v2H244.9z M244.9,15v-3.7l-2.6,3.7H244.9z"/>
	<path class="st9" d="M251.2,16.1l1-0.2c0.1,0.4,0.2,0.7,0.5,0.9c0.3,0.2,0.6,0.3,1.1,0.3c0.5,0,0.8-0.1,1-0.3
		c0.2-0.2,0.3-0.4,0.3-0.7c0-0.2-0.1-0.4-0.3-0.5c-0.1-0.1-0.5-0.2-1-0.3c-0.7-0.2-1.3-0.4-1.6-0.5c-0.3-0.1-0.5-0.3-0.7-0.6
		c-0.1-0.2-0.2-0.5-0.2-0.8c0-0.3,0.1-0.5,0.2-0.7c0.1-0.2,0.3-0.4,0.5-0.6c0.2-0.1,0.4-0.2,0.6-0.3s0.6-0.1,0.9-0.1
		c0.5,0,0.9,0.1,1.2,0.2s0.6,0.3,0.8,0.6c0.2,0.2,0.3,0.5,0.3,0.9l-1,0.1c0-0.3-0.2-0.6-0.4-0.7s-0.5-0.3-0.9-0.3
		c-0.5,0-0.8,0.1-1,0.2c-0.2,0.2-0.3,0.3-0.3,0.5c0,0.1,0,0.3,0.1,0.4c0.1,0.1,0.2,0.2,0.4,0.3c0.1,0,0.4,0.1,0.9,0.3
		c0.7,0.2,1.2,0.3,1.5,0.5s0.5,0.3,0.7,0.5c0.2,0.2,0.2,0.5,0.2,0.9c0,0.3-0.1,0.7-0.3,1s-0.5,0.5-0.9,0.7s-0.8,0.2-1.3,0.2
		c-0.8,0-1.4-0.2-1.8-0.5C251.5,17.3,251.3,16.8,251.2,16.1z"/>
	<path class="st9" d="M257.3,17.9V9.6h1v3c0.5-0.6,1.1-0.8,1.8-0.8c0.4,0,0.8,0.1,1.2,0.3c0.3,0.2,0.6,0.4,0.7,0.7
		c0.1,0.3,0.2,0.8,0.2,1.3v3.8h-1v-3.8c0-0.5-0.1-0.9-0.3-1.1c-0.2-0.2-0.5-0.3-0.9-0.3c-0.3,0-0.6,0.1-0.9,0.2
		c-0.3,0.2-0.5,0.4-0.6,0.6c-0.1,0.3-0.2,0.6-0.2,1.1v3.3H257.3z"/>
	<path class="st9" d="M267.9,16l1.1,0.1c-0.2,0.6-0.5,1.1-0.9,1.4c-0.4,0.3-1,0.5-1.7,0.5c-0.9,0-1.6-0.3-2.1-0.8
		c-0.5-0.5-0.8-1.3-0.8-2.3c0-1,0.3-1.8,0.8-2.4c0.5-0.6,1.2-0.8,2-0.8c0.8,0,1.5,0.3,2,0.8c0.5,0.5,0.8,1.3,0.8,2.3
		c0,0.1,0,0.2,0,0.3h-4.5c0,0.7,0.2,1.2,0.6,1.5c0.3,0.4,0.8,0.5,1.3,0.5c0.4,0,0.7-0.1,1-0.3C267.5,16.7,267.7,16.4,267.9,16z
		 M264.6,14.4h3.4c0-0.5-0.2-0.9-0.4-1.1c-0.3-0.4-0.7-0.6-1.3-0.6c-0.5,0-0.9,0.2-1.2,0.5S264.6,13.8,264.6,14.4z"/>
	<path class="st9" d="M270.2,17.9V9.6h1v8.3H270.2z"/>
	<path class="st9" d="M274.5,17.9l-2.3-6h1.1l1.3,3.6c0.1,0.4,0.3,0.8,0.4,1.2c0.1-0.3,0.2-0.7,0.4-1.1l1.3-3.7h1l-2.3,6H274.5z"/>
	<path class="st9" d="M282.7,16l1.1,0.1c-0.2,0.6-0.5,1.1-0.9,1.4c-0.4,0.3-1,0.5-1.7,0.5c-0.9,0-1.6-0.3-2.1-0.8
		c-0.5-0.5-0.8-1.3-0.8-2.3c0-1,0.3-1.8,0.8-2.4c0.5-0.6,1.2-0.8,2-0.8c0.8,0,1.5,0.3,2,0.8c0.5,0.5,0.8,1.3,0.8,2.3
		c0,0.1,0,0.2,0,0.3h-4.5c0,0.7,0.2,1.2,0.6,1.5c0.3,0.4,0.8,0.5,1.3,0.5c0.4,0,0.7-0.1,1-0.3C282.3,16.7,282.5,16.4,282.7,16z
		 M279.4,14.4h3.4c0-0.5-0.2-0.9-0.4-1.1c-0.3-0.4-0.7-0.6-1.3-0.6c-0.5,0-0.9,0.2-1.2,0.5S279.4,13.8,279.4,14.4z"/>
	<path class="st9" d="M284.6,16.1l1-0.2c0.1,0.4,0.2,0.7,0.5,0.9c0.3,0.2,0.6,0.3,1.1,0.3c0.5,0,0.8-0.1,1-0.3
		c0.2-0.2,0.3-0.4,0.3-0.7c0-0.2-0.1-0.4-0.3-0.5c-0.1-0.1-0.5-0.2-1-0.3c-0.7-0.2-1.3-0.4-1.6-0.5c-0.3-0.1-0.5-0.3-0.7-0.6
		c-0.1-0.2-0.2-0.5-0.2-0.8c0-0.3,0.1-0.5,0.2-0.7c0.1-0.2,0.3-0.4,0.5-0.6c0.2-0.1,0.4-0.2,0.6-0.3s0.6-0.1,0.9-0.1
		c0.5,0,0.9,0.1,1.2,0.2s0.6,0.3,0.8,0.6c0.2,0.2,0.3,0.5,0.3,0.9l-1,0.1c0-0.3-0.2-0.6-0.4-0.7s-0.5-0.3-0.9-0.3
		c-0.5,0-0.8,0.1-1,0.2c-0.2,0.2-0.3,0.3-0.3,0.5c0,0.1,0,0.3,0.1,0.4c0.1,0.1,0.2,0.2,0.4,0.3c0.1,0,0.4,0.1,0.9,0.3
		c0.7,0.2,1.2,0.3,1.5,0.5s0.5,0.3,0.7,0.5c0.2,0.2,0.2,0.5,0.2,0.9c0,0.3-0.1,0.7-0.3,1s-0.5,0.5-0.9,0.7s-0.8,0.2-1.3,0.2
		c-0.8,0-1.4-0.2-1.8-0.5C285,17.3,284.7,16.8,284.6,16.1z"/>
</g>
<g>
	<g>
		<path class="st9" d="M105.7,134.1l-0.1-0.6c0.3,0,0.5-0.1,0.7-0.2s0.3-0.3,0.4-0.5s0.2-0.5,0.2-0.8c0-0.3,0-0.5-0.1-0.7
			s-0.2-0.3-0.4-0.4c-0.1-0.1-0.3-0.1-0.5-0.1c-0.2,0-0.3,0-0.5,0.1s-0.2,0.2-0.3,0.5c-0.1,0.1-0.2,0.4-0.3,0.9
			c-0.1,0.5-0.2,0.8-0.4,1c-0.1,0.2-0.3,0.4-0.5,0.6c-0.2,0.1-0.5,0.2-0.7,0.2c-0.3,0-0.6-0.1-0.8-0.2c-0.3-0.1-0.4-0.4-0.6-0.6
			s-0.2-0.6-0.2-0.9c0-0.4,0.1-0.7,0.2-1c0.1-0.3,0.3-0.5,0.6-0.7c0.3-0.2,0.6-0.2,0.9-0.3l0.1,0.7c-0.4,0-0.6,0.2-0.8,0.4
			s-0.3,0.5-0.3,0.9c0,0.4,0.1,0.7,0.3,0.9c0.2,0.2,0.4,0.3,0.6,0.3c0.2,0,0.4-0.1,0.5-0.2c0.1-0.1,0.3-0.5,0.4-1
			c0.1-0.6,0.3-0.9,0.4-1.1c0.2-0.3,0.3-0.5,0.6-0.7c0.2-0.1,0.5-0.2,0.8-0.2c0.3,0,0.6,0.1,0.9,0.2c0.3,0.2,0.5,0.4,0.6,0.7
			c0.1,0.3,0.2,0.6,0.2,1c0,0.5-0.1,0.9-0.2,1.2c-0.2,0.3-0.4,0.6-0.7,0.7S106.1,134.1,105.7,134.1z"/>
		<path class="st9" d="M107.6,129.1h-5.7v-0.6h5.7V129.1z"/>
		<path class="st9" d="M105.5,127.8c-0.8,0-1.3-0.2-1.7-0.6c-0.3-0.3-0.5-0.7-0.5-1.2c0-0.5,0.2-0.9,0.6-1.3s0.9-0.5,1.5-0.5
			c0.5,0,1,0.1,1.3,0.2s0.5,0.4,0.7,0.6s0.3,0.6,0.3,0.9c0,0.5-0.2,0.9-0.6,1.3S106.2,127.8,105.5,127.8z M105.5,127.1
			c0.5,0,0.9-0.1,1.2-0.3c0.3-0.2,0.4-0.5,0.4-0.8c0-0.3-0.1-0.6-0.4-0.8s-0.7-0.3-1.2-0.3c-0.5,0-0.9,0.1-1.2,0.3
			c-0.3,0.2-0.4,0.5-0.4,0.8c0,0.3,0.1,0.6,0.4,0.8C104.6,127,105,127.1,105.5,127.1z"/>
		<path class="st9" d="M107,122.1l0.6-0.1c0,0.2,0.1,0.3,0.1,0.5c0,0.2,0,0.4-0.1,0.5s-0.2,0.2-0.3,0.3s-0.4,0.1-0.8,0.1H104v0.5
			h-0.5v-0.5h-1l-0.4-0.6h1.4v-0.6h0.5v0.6h2.4c0.2,0,0.3,0,0.4,0c0.1,0,0.1-0.1,0.1-0.1s0.1-0.1,0.1-0.2
			C107,122.3,107,122.3,107,122.1z"/>
		<path class="st9" d="M106.1,119.7L106,119c0.4,0,0.6-0.2,0.8-0.3s0.3-0.4,0.3-0.6c0-0.3-0.1-0.6-0.4-0.8s-0.6-0.3-1-0.3
			c-0.4,0-0.7,0.1-0.9,0.3c-0.2,0.2-0.3,0.5-0.3,0.8c0,0.2,0.1,0.4,0.2,0.6s0.2,0.3,0.4,0.4l-0.1,0.6l-2.9-0.5v-2.6h0.7v2.1l1.5,0.3
			c-0.2-0.3-0.4-0.6-0.4-1c0-0.5,0.2-0.8,0.5-1.1s0.8-0.5,1.3-0.5c0.5,0,1,0.1,1.3,0.4c0.5,0.3,0.7,0.8,0.7,1.4
			c0,0.5-0.1,0.9-0.4,1.1C107,119.5,106.6,119.7,106.1,119.7z"/>
	</g>
</g>
<g>
	<rect x="111.4" y="189.4" class="st8" width="33.4" height="15.8"/>
	<g>
		<path class="st9" d="M123.3,199.1l1,0.1c-0.2,0.6-0.4,1-0.9,1.3c-0.4,0.3-0.9,0.5-1.6,0.5c-0.8,0-1.5-0.3-1.9-0.8
			c-0.5-0.5-0.7-1.2-0.7-2.1c0-0.9,0.2-1.7,0.7-2.2s1.1-0.8,1.9-0.8c0.7,0,1.4,0.3,1.8,0.8c0.5,0.5,0.7,1.2,0.7,2.1
			c0,0.1,0,0.1,0,0.3h-4.2c0,0.6,0.2,1.1,0.5,1.4c0.3,0.3,0.7,0.5,1.2,0.5c0.3,0,0.6-0.1,0.9-0.3C123,199.8,123.2,199.5,123.3,199.1
			z M120.2,197.6h3.1c0-0.5-0.2-0.8-0.4-1.1c-0.3-0.4-0.7-0.5-1.2-0.5c-0.4,0-0.8,0.1-1.1,0.4C120.4,196.7,120.3,197.1,120.2,197.6z
			"/>
		<path class="st9" d="M125.2,197.1c0-0.9,0.1-1.6,0.3-2.2c0.2-0.6,0.5-1,0.8-1.3c0.4-0.3,0.8-0.5,1.4-0.5c0.4,0,0.8,0.1,1.1,0.2
			c0.3,0.2,0.6,0.4,0.8,0.7s0.4,0.7,0.5,1.1c0.1,0.5,0.2,1.1,0.2,1.8c0,0.9-0.1,1.6-0.3,2.2c-0.2,0.6-0.5,1-0.8,1.3
			c-0.4,0.3-0.8,0.5-1.4,0.5c-0.7,0-1.3-0.3-1.8-0.8C125.5,199.6,125.2,198.5,125.2,197.1z M126.2,197.1c0,1.3,0.1,2.1,0.4,2.5
			c0.3,0.4,0.7,0.6,1.1,0.6c0.4,0,0.8-0.2,1.1-0.6c0.3-0.4,0.4-1.3,0.4-2.5c0-1.3-0.1-2.1-0.4-2.5s-0.7-0.6-1.1-0.6
			c-0.4,0-0.8,0.2-1,0.6C126.4,195,126.2,195.8,126.2,197.1z"/>
		<path class="st9" d="M135.1,198.9l0.9,0.1c-0.1,0.6-0.4,1.1-0.8,1.5c-0.4,0.4-0.9,0.5-1.5,0.5c-0.8,0-1.4-0.2-1.8-0.7
			c-0.5-0.5-0.7-1.2-0.7-2.1c0-0.6,0.1-1.1,0.3-1.6s0.5-0.8,0.9-1c0.4-0.2,0.9-0.3,1.3-0.3c0.6,0,1.1,0.2,1.5,0.5
			c0.4,0.3,0.6,0.7,0.7,1.3l-0.9,0.1c-0.1-0.4-0.2-0.7-0.5-0.8c-0.2-0.2-0.5-0.3-0.8-0.3c-0.5,0-0.9,0.2-1.2,0.5
			c-0.3,0.3-0.4,0.9-0.4,1.6c0,0.7,0.1,1.3,0.4,1.6s0.7,0.5,1.1,0.5c0.4,0,0.7-0.1,0.9-0.3C134.9,199.7,135.1,199.3,135.1,198.9z"/>
	</g>
	<rect x="97.4" y="189.4" class="st8" width="14.5" height="31.5"/>
</g>
<g>
	<rect x="112.1" y="205.3" class="st8" width="32.7" height="15.8"/>
	<rect x="111.4" y="246.6" class="st8" width="33.4" height="15.8"/>
	<rect x="97.4" y="246.6" class="st8" width="14.5" height="31.5"/>
	<rect x="112.1" y="262.4" class="st8" width="32.7" height="15.8"/>
	<g>
		<path class="st9" d="M123.3,215l1,0.1c-0.2,0.6-0.4,1-0.9,1.3c-0.4,0.3-0.9,0.5-1.6,0.5c-0.8,0-1.5-0.3-1.9-0.8s-0.7-1.2-0.7-2.1
			c0-0.9,0.2-1.7,0.7-2.2s1.1-0.8,1.9-0.8c0.7,0,1.4,0.3,1.8,0.8c0.5,0.5,0.7,1.2,0.7,2.1c0,0.1,0,0.1,0,0.3h-4.2
			c0,0.6,0.2,1.1,0.5,1.4c0.3,0.3,0.7,0.5,1.2,0.5c0.3,0,0.6-0.1,0.9-0.3C123,215.7,123.2,215.4,123.3,215z M120.2,213.5h3.1
			c0-0.5-0.2-0.8-0.4-1.1c-0.3-0.4-0.7-0.5-1.2-0.5c-0.4,0-0.8,0.1-1.1,0.4C120.4,212.6,120.3,213,120.2,213.5z"/>
		<path class="st9" d="M125.2,213c0-0.9,0.1-1.6,0.3-2.2c0.2-0.6,0.5-1,0.8-1.3c0.4-0.3,0.8-0.5,1.4-0.5c0.4,0,0.8,0.1,1.1,0.2
			c0.3,0.2,0.6,0.4,0.8,0.7s0.4,0.7,0.5,1.1c0.1,0.5,0.2,1.1,0.2,1.8c0,0.9-0.1,1.6-0.3,2.2c-0.2,0.6-0.5,1-0.8,1.3
			s-0.8,0.5-1.4,0.5c-0.7,0-1.3-0.3-1.8-0.8C125.5,215.5,125.2,214.5,125.2,213z M126.2,213c0,1.3,0.1,2.1,0.4,2.5s0.7,0.6,1.1,0.6
			c0.4,0,0.8-0.2,1.1-0.6c0.3-0.4,0.4-1.3,0.4-2.5c0-1.3-0.1-2.1-0.4-2.5c-0.3-0.4-0.7-0.6-1.1-0.6c-0.4,0-0.8,0.2-1,0.6
			C126.4,210.9,126.2,211.8,126.2,213z"/>
		<path class="st9" d="M135.1,216.8v-0.7c-0.4,0.6-0.9,0.8-1.6,0.8c-0.4,0-0.9-0.1-1.2-0.4s-0.7-0.6-0.9-1c-0.2-0.4-0.3-0.9-0.3-1.5
			c0-0.6,0.1-1.1,0.3-1.5c0.2-0.5,0.5-0.8,0.8-1c0.4-0.2,0.8-0.4,1.2-0.4c0.3,0,0.6,0.1,0.9,0.2c0.3,0.1,0.5,0.3,0.6,0.6v-2.8h0.9
			v7.7H135.1z M132.1,214c0,0.7,0.2,1.2,0.5,1.6c0.3,0.4,0.7,0.5,1.1,0.5c0.4,0,0.8-0.2,1.1-0.5c0.3-0.3,0.4-0.9,0.4-1.5
			c0-0.8-0.1-1.3-0.4-1.7c-0.3-0.4-0.7-0.5-1.1-0.5c-0.4,0-0.8,0.2-1.1,0.5C132.3,212.8,132.1,213.3,132.1,214z"/>
	</g>
</g>
<g>
	<g>
		<path class="st9" d="M128.7,258.6h-0.9v-6c-0.2,0.2-0.5,0.4-0.9,0.7s-0.7,0.4-1,0.5v-0.9c0.5-0.2,1-0.5,1.4-0.9
			c0.4-0.4,0.7-0.7,0.8-1h0.6V258.6z"/>
	</g>
</g>
<g>
	<g>
		<path class="st9" d="M130.1,273v0.9H125c0-0.2,0-0.4,0.1-0.7c0.1-0.3,0.3-0.7,0.6-1c0.3-0.3,0.7-0.7,1.2-1.2
			c0.8-0.7,1.4-1.2,1.7-1.6c0.3-0.4,0.4-0.8,0.4-1.1c0-0.4-0.1-0.7-0.4-0.9c-0.3-0.3-0.6-0.4-1-0.4c-0.5,0-0.8,0.1-1.1,0.4
			c-0.3,0.3-0.4,0.7-0.4,1.1l-1-0.1c0.1-0.7,0.3-1.3,0.8-1.7c0.4-0.4,1-0.6,1.7-0.6c0.7,0,1.3,0.2,1.8,0.6c0.4,0.4,0.6,0.9,0.6,1.5
			c0,0.3-0.1,0.6-0.2,0.9s-0.3,0.6-0.6,0.9s-0.8,0.8-1.5,1.4c-0.6,0.5-0.9,0.8-1.1,1s-0.3,0.3-0.4,0.5H130.1z"/>
	</g>
</g>
<g>
	<g>
		<g>
			<path class="st9" d="M104.8,218.3c-1,0-1.7-0.2-2.2-0.7c-0.5-0.5-0.8-1.1-0.8-1.8c0-0.5,0.1-0.9,0.4-1.3c0.3-0.4,0.6-0.7,1.1-0.9
				c0.5-0.2,1-0.3,1.5-0.3c0.6,0,1.1,0.1,1.6,0.3s0.8,0.5,1,0.9s0.4,0.8,0.4,1.3c0,0.5-0.1,0.9-0.4,1.3c-0.3,0.4-0.6,0.7-1.1,0.9
				S105.3,218.3,104.8,218.3z M104.8,217.6c0.7,0,1.2-0.2,1.6-0.5s0.6-0.8,0.6-1.3c0-0.5-0.2-0.9-0.6-1.3s-1-0.5-1.7-0.5
				c-0.5,0-0.9,0.1-1.2,0.2c-0.3,0.1-0.6,0.3-0.8,0.6s-0.3,0.6-0.3,0.9c0,0.5,0.2,0.9,0.6,1.2C103.3,217.4,103.9,217.6,104.8,217.6z
				"/>
			<path class="st9" d="M107.5,212.7h-4.1v-0.6h0.6c-0.5-0.3-0.7-0.7-0.7-1.2c0-0.2,0-0.4,0.1-0.6c0.1-0.2,0.2-0.3,0.4-0.4
				s0.3-0.2,0.5-0.2c0.1,0,0.4,0,0.7,0h2.6v0.6H105c-0.3,0-0.5,0-0.6,0.1c-0.1,0-0.3,0.1-0.3,0.3s-0.1,0.3-0.1,0.4
				c0,0.3,0.1,0.5,0.3,0.7c0.2,0.2,0.6,0.3,1.1,0.3h2.3V212.7z"/>
			<path class="st9" d="M107.5,208.3v0.6h-5.7v-0.6h2c-0.4-0.3-0.6-0.6-0.6-1c0-0.2,0.1-0.4,0.2-0.7s0.2-0.4,0.4-0.5
				c0.2-0.1,0.4-0.2,0.7-0.3c0.3-0.1,0.5-0.1,0.8-0.1c0.7,0,1.3,0.2,1.6,0.5s0.6,0.7,0.6,1.1c0,0.4-0.2,0.8-0.6,1H107.5z
				 M105.4,208.3c0.5,0,0.9-0.1,1.1-0.2c0.4-0.2,0.5-0.5,0.5-0.8c0-0.3-0.1-0.5-0.4-0.7c-0.3-0.2-0.7-0.3-1.2-0.3
				c-0.5,0-0.9,0.1-1.2,0.3s-0.4,0.4-0.4,0.7c0,0.3,0.1,0.5,0.4,0.7C104.5,208.2,104.9,208.3,105.4,208.3z"/>
			<path class="st9" d="M105.5,205.3c-0.8,0-1.3-0.2-1.7-0.6c-0.3-0.3-0.5-0.7-0.5-1.2c0-0.5,0.2-0.9,0.6-1.3s0.9-0.5,1.5-0.5
				c0.5,0,1,0.1,1.3,0.2s0.5,0.4,0.7,0.6s0.3,0.6,0.3,0.9c0,0.5-0.2,0.9-0.6,1.3S106.2,205.3,105.5,205.3z M105.5,204.7
				c0.5,0,0.9-0.1,1.2-0.3s0.4-0.5,0.4-0.8c0-0.3-0.1-0.6-0.4-0.8s-0.7-0.3-1.2-0.3c-0.5,0-0.9,0.1-1.2,0.3s-0.4,0.5-0.4,0.8
				c0,0.3,0.1,0.6,0.4,0.8S104.9,204.7,105.5,204.7z"/>
			<path class="st9" d="M107,198.8c0.2,0.2,0.4,0.5,0.5,0.7s0.1,0.4,0.1,0.7c0,0.4-0.1,0.7-0.3,0.9c-0.2,0.2-0.5,0.3-0.9,0.3
				c-0.2,0-0.4,0-0.6-0.1c-0.2-0.1-0.3-0.2-0.4-0.3s-0.2-0.3-0.2-0.5c0-0.1-0.1-0.3-0.1-0.6c-0.1-0.5-0.1-0.9-0.2-1.1
				c-0.1,0-0.2,0-0.2,0c-0.3,0-0.5,0.1-0.6,0.2c-0.2,0.2-0.2,0.4-0.2,0.7c0,0.3,0.1,0.5,0.2,0.7c0.1,0.1,0.3,0.2,0.6,0.3l-0.1,0.6
				c-0.3-0.1-0.5-0.1-0.7-0.3s-0.3-0.3-0.4-0.6c-0.1-0.2-0.1-0.5-0.1-0.8c0-0.3,0-0.6,0.1-0.8s0.2-0.3,0.3-0.4s0.3-0.2,0.5-0.2
				c0.1,0,0.3,0,0.6,0h0.9c0.7,0,1.1,0,1.2,0s0.3-0.1,0.5-0.2v0.7C107.4,198.8,107.2,198.8,107,198.8z M105.5,198.9
				c0.1,0.2,0.2,0.6,0.3,1c0,0.3,0.1,0.4,0.1,0.6s0.1,0.2,0.2,0.2s0.2,0.1,0.3,0.1c0.2,0,0.3-0.1,0.5-0.2c0.1-0.1,0.2-0.3,0.2-0.6
				c0-0.2-0.1-0.5-0.2-0.7c-0.1-0.2-0.3-0.3-0.5-0.4c-0.2-0.1-0.4-0.1-0.7-0.1H105.5z"/>
			<path class="st9" d="M107.5,197.5h-4.1v-0.6h0.6c-0.3-0.1-0.5-0.3-0.6-0.4s-0.1-0.3-0.1-0.4c0-0.2,0.1-0.4,0.2-0.7l0.7,0.2
				c-0.1,0.2-0.2,0.3-0.2,0.5c0,0.1,0,0.3,0.1,0.4s0.2,0.2,0.4,0.2c0.2,0.1,0.5,0.1,0.8,0.1h2.2V197.5z"/>
			<path class="st9" d="M107.5,192.8H107c0.4,0.2,0.6,0.6,0.6,1c0,0.3-0.1,0.6-0.3,0.8s-0.4,0.4-0.8,0.6s-0.7,0.2-1.1,0.2
				c-0.4,0-0.8-0.1-1.1-0.2c-0.3-0.1-0.6-0.3-0.8-0.6c-0.2-0.2-0.3-0.5-0.3-0.8c0-0.2,0.1-0.4,0.2-0.6s0.2-0.3,0.4-0.4h-2.1v-0.6
				h5.7V192.8z M105.5,194.8c0.5,0,0.9-0.1,1.2-0.3s0.4-0.4,0.4-0.7c0-0.3-0.1-0.5-0.4-0.7s-0.6-0.3-1.2-0.3c-0.6,0-1,0.1-1.2,0.3
				s-0.4,0.4-0.4,0.7c0,0.3,0.1,0.5,0.4,0.7C104.5,194.7,104.9,194.8,105.5,194.8z"/>
		</g>
	</g>
</g>
<g>
	<g>
		<path class="st9" d="M105.7,270.9l-0.1-0.6c0.3,0,0.5-0.1,0.7-0.2s0.3-0.3,0.4-0.5s0.2-0.5,0.2-0.8c0-0.3,0-0.5-0.1-0.7
			s-0.2-0.3-0.4-0.4c-0.1-0.1-0.3-0.1-0.5-0.1c-0.2,0-0.3,0-0.5,0.1s-0.2,0.2-0.3,0.5c-0.1,0.1-0.2,0.4-0.3,0.9
			c-0.1,0.5-0.2,0.8-0.4,1c-0.1,0.2-0.3,0.4-0.5,0.5s-0.5,0.2-0.7,0.2c-0.3,0-0.6-0.1-0.8-0.2s-0.4-0.4-0.6-0.6
			c-0.1-0.3-0.2-0.6-0.2-0.9c0-0.4,0.1-0.7,0.2-1s0.3-0.5,0.6-0.7c0.3-0.2,0.6-0.2,0.9-0.3l0.1,0.7c-0.4,0-0.6,0.2-0.8,0.4
			c-0.2,0.2-0.3,0.5-0.3,0.9c0,0.4,0.1,0.7,0.3,0.9c0.2,0.2,0.4,0.3,0.6,0.3c0.2,0,0.4-0.1,0.5-0.2c0.1-0.1,0.3-0.5,0.4-1
			s0.3-0.9,0.4-1.1c0.2-0.3,0.3-0.5,0.6-0.7s0.5-0.2,0.8-0.2c0.3,0,0.6,0.1,0.9,0.2c0.3,0.2,0.5,0.4,0.6,0.7c0.1,0.3,0.2,0.6,0.2,1
			c0,0.5-0.1,0.9-0.2,1.2c-0.2,0.3-0.4,0.6-0.7,0.7C106.5,270.8,106.1,270.9,105.7,270.9z"/>
		<path class="st9" d="M107.6,266h-5.7v-0.6h5.7V266z"/>
		<path class="st9" d="M105.5,264.6c-0.8,0-1.3-0.2-1.7-0.6c-0.3-0.3-0.5-0.7-0.5-1.2c0-0.5,0.2-0.9,0.6-1.3
			c0.4-0.3,0.9-0.5,1.5-0.5c0.5,0,1,0.1,1.3,0.2c0.3,0.1,0.5,0.4,0.7,0.6s0.3,0.6,0.3,0.9c0,0.5-0.2,0.9-0.6,1.3
			S106.2,264.6,105.5,264.6z M105.5,263.9c0.5,0,0.9-0.1,1.2-0.3s0.4-0.5,0.4-0.8c0-0.3-0.1-0.6-0.4-0.8c-0.3-0.2-0.7-0.3-1.2-0.3
			c-0.5,0-0.9,0.1-1.2,0.3c-0.3,0.2-0.4,0.5-0.4,0.8c0,0.3,0.1,0.6,0.4,0.8S105,263.9,105.5,263.9z"/>
		<path class="st9" d="M107,259l0.6-0.1c0,0.2,0.1,0.3,0.1,0.5c0,0.2,0,0.4-0.1,0.5s-0.2,0.2-0.3,0.3c-0.1,0.1-0.4,0.1-0.8,0.1H104
			v0.5h-0.5v-0.5h-1l-0.4-0.6h1.4V259h0.5v0.6h2.4c0.2,0,0.3,0,0.4,0s0.1-0.1,0.1-0.1c0-0.1,0.1-0.1,0.1-0.2
			C107,259.2,107,259.1,107,259z"/>
		<path class="st9" d="M106.1,256.5l-0.1-0.7c0.4,0,0.6-0.2,0.8-0.3s0.3-0.4,0.3-0.6c0-0.3-0.1-0.6-0.4-0.8s-0.6-0.3-1-0.3
			c-0.4,0-0.7,0.1-0.9,0.3c-0.2,0.2-0.3,0.5-0.3,0.8c0,0.2,0.1,0.4,0.2,0.6s0.2,0.3,0.4,0.4l-0.1,0.6l-2.9-0.5v-2.6h0.7v2.1l1.5,0.3
			c-0.2-0.3-0.4-0.6-0.4-1c0-0.5,0.2-0.8,0.5-1.1c0.3-0.3,0.8-0.5,1.3-0.5c0.5,0,1,0.1,1.3,0.4c0.5,0.3,0.7,0.8,0.7,1.4
			c0,0.5-0.1,0.9-0.4,1.1C107,256.3,106.6,256.5,106.1,256.5z"/>
	</g>
</g>
</svg>
