<?xml version="1.0" encoding="utf-8"?>
<!-- Generator: Adobe Illustrator 26.0.3, SVG Export Plug-In . SVG Version: 6.00 Build 0)  -->
<svg version="1.1" xmlns="http://www.w3.org/2000/svg" xmlns:xlink="http://www.w3.org/1999/xlink" x="0px" y="0px"
	 viewBox="0 0 342 218.77623" style="enable-background:new 0 0 342 218.77623;" xml:space="preserve">
<style type="text/css">
	.st0{fill:#D1D3D4;}
	.st1{fill:none;stroke:#231F20;stroke-width:0.5;stroke-linecap:round;stroke-linejoin:round;stroke-miterlimit:10;}
	.st2{clip-path:url(#SVGID_00000013875779808493385120000014135022603911951761_);fill:#D1D3D4;}
	
		.st3{clip-path:url(#SVGID_00000013875779808493385120000014135022603911951761_);fill:none;stroke:#231F20;stroke-width:0.5;stroke-linecap:round;stroke-linejoin:round;stroke-miterlimit:10;}
	.st4{fill:none;stroke:#231F20;stroke-width:0.5;stroke-miterlimit:10;}
	.st5{clip-path:url(#SVGID_00000095318867275927362040000017109566963192081597_);fill:#D1D3D4;}
	
		.st6{clip-path:url(#SVGID_00000095318867275927362040000017109566963192081597_);fill:none;stroke:#231F20;stroke-width:0.5;stroke-linecap:round;stroke-linejoin:round;stroke-miterlimit:10;}
	.st7{fill:#2D2A26;stroke:#FFFFFF;stroke-miterlimit:10;}
	.st8{fill:#2D2A26;}
	.st9{fill:none;stroke:#FFFFFF;stroke-width:0.90129;stroke-miterlimit:10;}
	.st10{fill:none;stroke:#FFFFFF;stroke-width:0.93992;stroke-miterlimit:10;}
	.st11{fill:#231F20;stroke:#FFFFFF;stroke-width:1.5;stroke-miterlimit:10;}
	.st12{fill:#FFFFFF;}
</style>
<g id="gray">
	<polygon class="st0" points="123.81506,77.66928 123.56541,77.12006 125.5626,70.92879 128.10901,63.5392 129.45711,63.93864 
		129.15753,61.49208 130.25598,59.14539 129.76903,58.34132 144.97665,19.37296 147.63855,19.95164 147.9086,19.45012 
		258.38538,41.89269 259.97076,42.6854 262.74524,43.4781 261.358,46.45074 261.55618,48.23433 248.47655,82.12246 
		248.67473,90.04951 244.71121,97.97655 244.51303,95.00391 243.12579,94.60756 239.16228,103.72366 125.25758,80.1668 
		125.40643,78.03326 	"/>
</g>
<g id="BaseUnit_1_">
	<polyline class="st1" points="127.90836,72.29427 129.37474,68.03888 129.34264,63.87045 129.32437,61.49817 142.08812,26.99257 
		142.72763,26.03329 145.28569,26.67281 145.85693,25.07496 147.87415,19.43249 259.70047,42.17575 256.92725,50.64133 
		258.56808,51.12393 257.39349,54.36506 245.98383,85.84811 246.22697,87.71223 	"/>
	<line class="st1" x1="147.56966" y1="21.39566" x2="259.08148" y2="44.02816"/>
	<line class="st1" x1="257.70154" y1="47.8564" x2="145.85693" y2="25.07496"/>
	<polyline class="st1" points="129.35692,60.21388 129.71422,57.08757 144.80983,16.80282 144.94011,19.38677 147.67607,19.95133 	
		"/>
	<polyline class="st1" points="142.72763,26.03329 143.05101,24.42439 144.94011,19.38677 	"/>
	<polyline class="st1" points="164.89824,35.3308 140.98132,30.44659 138.27922,47.94595 147.05463,49.79882 148.85603,44.93503 
		160.53943,47.35406 	"/>
	<path class="st1" d="M134.55215,55.7592l1.85042-4.81112l-0.18503-5.59756l0.83269,0.09252l1.34157,3.93217
		c0,0,0.18504,1.01774,1.98921,1.38783s17.62535,3.46956,17.62535,3.46956"/>
	<path class="st1" d="M131.43394,64.29623l1.82291-4.88242l-0.23131-5.59755c0,0,1.01773,0.04626,1.20277,0.69391
		c0.18504,0.64765,0.87897,3.14573,0.87897,3.14573s0.27756,1.20278,1.80417,1.5266
		c1.5266,0.32383,17.85666,3.70086,17.85666,3.70086"/>
	<line class="st1" x1="133.41321" y1="67.60947" x2="151.75778" y2="71.31166"/>
	<path class="st1" d="M129.69102,72.58179l0.08626-1.40887c0,0-0.43129-2.12769,2.04143-3.45032l1.32262-2.99027"/>
	<polyline class="st1" points="167.0018,29.53148 164.89824,35.3308 147.63029,82.93688 125.58318,78.54886 125.35498,77.99706 
		123.65144,77.64051 123.61182,76.88778 128.1282,63.65558 133.14133,64.73233 133.63013,68.78645 132.45128,71.74797 
		130.86987,72.92683 131.23055,74.71872 126.4255,73.66618 126.39476,71.99907 130.54411,72.88822 	"/>
	<polyline class="st1" points="128.38255,96.44096 128.09096,94.3026 135.46182,75.63177 135.83873,79.80323 134.24928,80.0451 	"/>
	<line class="st1" x1="135.90784" y1="78.45567" x2="148.24324" y2="81.01259"/>
	<line class="st1" x1="135.35498" y1="75.58777" x2="131.23055" y2="74.71872"/>
	<path class="st1" d="M123.74495,76.51131l1.90046,0.32983l1.57063-2.92136c0,0,0.19501,3.28411-1.0704,4.64838"/>
	<g id="SPLINE_1133_">
		<path class="st1" d="M152.07442,79.53588c-0.0047-0.08964,0.04436-0.32646,0.0549-0.35503l15.65793-42.41884
			c0.05522-0.14959,0.14993-0.28562,0.26489-0.39833c0.12778-0.12526,0.28056-0.2217,0.44376-0.29277
			c0.1759-0.07661,0.36391-0.12373,0.55496-0.14285c0.19424-0.01943,0.39165-0.00991,0.58192,0.029l14.92361,3.0524
			c0.16418,0.03358,0.3251,0.08949,0.47321,0.16986c0.13626,0.07394,0.26169,0.16859,0.36449,0.28476
			c0.0936,0.10575,0.16844,0.22934,0.21089,0.36442c0.04037,0.12852,0.05144,0.26744,0.03094,0.39939
			c-0.00934,0.05986-0.02463,0.11863-0.04564,0.17546L169.93236,82.8222c-0.00528,0.01428-0.01089,0.02843-0.01685,0.04245
			c-0.01051,0.02471-0.02203,0.04898-0.03453,0.07278c-0.03876,0.07384-0.08676,0.14317-0.14117,0.20627
			c-0.18553,0.21515-0.44823,0.36373-0.72643,0.44574c-0.30269,0.08923-0.62372,0.09965-0.92656,0.0377l-14.92361-3.0524
			c-0.2151-0.044-0.42551-0.12547-0.60825-0.25274c-0.16205-0.11285-0.30232-0.2617-0.38812-0.43645"/>
	</g>
	<g id="SPLINE_1134_">
		<path class="st1" d="M204.58116,90.18193c-0.0047-0.08963,0.04436-0.32646,0.0549-0.35503l15.65793-42.41884
			c0.05521-0.14959,0.14992-0.28562,0.26489-0.39832c0.12778-0.12526,0.28056-0.2217,0.44376-0.29277
			c0.1759-0.07661,0.36391-0.12373,0.55496-0.14285c0.19424-0.01944,0.39165-0.00992,0.58192,0.029l14.9236,3.0524
			c0.1642,0.03358,0.3251,0.08949,0.47322,0.16986c0.13626,0.07394,0.26167,0.16859,0.36449,0.28476
			c0.0936,0.10575,0.16844,0.22934,0.21089,0.36441c0.04037,0.12852,0.05142,0.26744,0.03094,0.39939
			c-0.00934,0.05986-0.02464,0.11863-0.04564,0.17545L222.4391,93.46825c-0.00528,0.01429-0.01089,0.02844-0.01685,0.04246
			c-0.01051,0.0247-0.02205,0.04897-0.03453,0.07277c-0.03876,0.07384-0.08676,0.14317-0.14117,0.20627
			c-0.18553,0.21515-0.44823,0.36373-0.72643,0.44574c-0.30269,0.08923-0.62372,0.09965-0.92656,0.0377l-14.92361-3.0524
			c-0.2151-0.044-0.42551-0.12547-0.60825-0.25273c-0.16205-0.11285-0.30232-0.2617-0.38812-0.43646"/>
	</g>
	<polyline class="st1" points="133.08911,81.92756 240.11024,103.80886 220.22911,158.68298 220.22911,161.11288 	"/>
	<polyline class="st1" points="191.99069,34.51833 189.83557,40.03543 187.07703,42.44917 170.61192,87.96525 200.00774,93.82716 
		219.48999,40.12164 	"/>
	<polyline class="st1" points="217.33487,46.06976 190.18039,40.63887 187.77026,45.43481 186.88329,50.86746 184.88762,56.41098 	
		"/>
	<polygon class="st1" points="197.58229,45.54568 196.19641,53.25117 212.49437,56.46642 213.88025,48.92723 212.10632,48.59462 
		211.99545,49.42614 207.22803,48.42831 207.39433,47.54134 204.06822,46.87612 203.90192,47.70765 199.24535,46.76525 
		199.35622,45.87829 	"/>
	<line class="st1" x1="212.49297" y1="56.08523" x2="213.54764" y2="56.30011"/>
	<line class="st1" x1="186.88329" y1="50.86746" x2="196.12987" y2="52.75138"/>
	<path class="st1" d="M210.44327,64.72627l-23.67085-4.712c0,0-1.21957-0.77609-1.38588-1.55219
		c-0.16631-0.77609-0.88696-3.32611-0.88696-3.32611l-0.99783-0.22174l0.22174,5.59896l-1.71849,4.82287"/>
	<path class="st1" d="M207.3389,73.4296l-23.28281-4.712c0,0-1.66306-0.60979-1.77393-1.27501s-0.88696-3.60329-0.88696-3.60329
		l-1.05327-0.33261l0.22174,5.65439l-1.8848,4.76743"/>
	<path class="st1" d="M204.40083,82.02206l-24.11433-4.93374c0,0-1.16414-0.49892-1.21957-1.05327l-0.88696-3.65872
		l-1.05327-0.38805l0.27718,5.59896l-3.9359,9.64573l-2.55003,0.38805"/>
	<polyline class="st1" points="244.50665,45.31 242.52666,50.77851 239.60384,53.22992 223.104,98.5809 239.95517,102.04914 	"/>
	<polyline class="st1" points="257.39349,54.36506 242.66081,51.40223 240.22934,56.34622 239.58095,61.61441 237.47366,66.72051 	
		"/>
	<line class="st1" x1="242.26924" y1="62.15551" x2="239.58095" y2="61.61441"/>
	<line class="st1" x1="253.54507" y1="64.42508" x2="250.79706" y2="63.87197"/>
	<polygon class="st1" points="243.50883,55.01611 242.2095,62.6329 250.40875,64.38027 251.9321,56.62908 250.13992,56.27064 
		249.91589,57.07713 245.34583,56.13623 245.43544,55.32975 	"/>
	<path class="st1" d="M250.812,72.89315l-11.38037-2.06101c0,0-1.38895-0.8961-1.56816-1.83699s-0.80649-3.04671-0.80649-3.04671
		l-1.0753-0.26882l0.26883,5.73499l-1.79219,4.70448"/>
	<path class="st1" d="M247.58606,81.63004L236.2505,79.3002c0,0-1.25453-0.44804-1.52336-1.83698
		c-0.26883-1.38895-0.80649-2.82269-0.80649-2.82269l-1.0753-0.44804l0.31363,5.73499l-1.83699,4.70448"/>
	<path class="st1" d="M241.67186,89.78448l-8.37846-1.88179c0,0-1.70258-0.35844-1.83699-1.74738
		c-0.13441-1.38895-0.62726-3.00191-0.62726-3.00191l-1.12012-0.40324l0.13441,5.77979l-3.8532,9.63299l-2.59868,0.31363"/>
	<path class="st1" d="M239.82808,95.19685l0.33589-0.80097c0,0,1.42108-0.2067,1.93784-1.67945
		c0.51674-1.47275-0.49092-2.37706-0.49092-2.37706s0.6201-1.86031,0.85265-2.58377
		c0.23253-0.72346,0.90431-0.59427,0.90431-0.59427l2.5482,0.54465l0.83653,0.1788l0.15503,4.31489l-2.28529,6.13119
		l-0.17804-3.01144c0,0-0.1209-1.02758-1.30052-0.66113"/>
	<line class="st1" x1="245.91605" y1="87.70599" x2="239.41467" y2="103.51659"/>
	<path class="st1" d="M242.48936,95.71361l-2.6096-0.56844c0,0-0.7493-0.25837-0.7493,0.93016s0.18086,4.72829,0.18086,4.72829
		l1.11102,0.28422"/>
	<path class="st1" d="M264.87726,54.2648l0.06927-3.07066c0,0-0.36502-0.70551-1.03674-0.53746l-0.22711-9.38708l-2.2197,5.62975
		l-0.05139,1.10776l-12.11235,32.77908c0,0-1.05983,2.95239-0.98413,5.60197c0.0757,2.64958,0.37851,3.2552-0.15141,4.39073
		c-0.52991,1.13554-1.89255,4.46644-1.89255,4.46644"/>
	<polyline class="st1" points="264.73874,51.4481 262.5961,56.99395 262.5444,55.06425 263.25082,53.18623 263.26804,52.44536 
		263.9917,50.61903 	"/>
	<line class="st1" x1="259.45984" y1="42.7595" x2="262.64261" y2="43.42722"/>
	<polyline class="st1" points="261.48526,46.25388 260.66174,46.09808 259.59338,48.61314 259.3042,50.42089 258.56808,51.12393 	
		"/>
	<line class="st1" x1="260.28873" y1="50.74907" x2="259.26773" y2="50.49382"/>
	<line class="st1" x1="222.15387" y1="170.10593" x2="264.81784" y2="54.02357"/>
	<polygon class="st1" points="220.99962,164.85121 221.66801,162.47009 221.66801,161.42574 218.7856,160.79912 
		214.64996,169.27927 214.27399,176.25554 217.74124,177.04924 218.91092,174.83522 219.07802,170.24007 220.41478,166.77281 	"/>
	<line class="st1" x1="215.31409" y1="170.97784" x2="217.51042" y2="171.41399"/>
	<line class="st1" x1="215.28293" y1="171.7411" x2="217.47926" y2="172.17726"/>
	<line class="st1" x1="215.25179" y1="172.50438" x2="217.44812" y2="172.94052"/>
	<line class="st1" x1="215.22063" y1="173.26764" x2="217.41696" y2="173.70378"/>
	<line class="st1" x1="215.18947" y1="174.0309" x2="217.3858" y2="174.46706"/>
	<line class="st1" x1="215.15833" y1="174.79416" x2="217.35466" y2="175.23032"/>
	<line class="st1" x1="215.12717" y1="175.55743" x2="217.3235" y2="175.99358"/>
	<path class="st1" d="M220.99962,164.85121c0,0,0.79617-0.05112,0.8842,1.37929s0.28609,6.38181,0.28609,6.38181l-2.22264,5.85367
		l-1.95856-0.41812l-0.022-1.27637"/>
	<g>
		<g id="SPLINE_1136_">
			<path class="st1" d="M203.84192,116.57001c-0.23222,0.06217-0.47255,0.0967-0.71367,0.10388
				c-0.24139,0.00719-0.4836-0.01305-0.71939-0.06128c-0.29364-0.06006-0.58221-0.16498-0.84117-0.31763
				c-0.12143-0.07158-0.23634-0.15365-0.34193-0.24667c-0.10005-0.08814-0.19174-0.18613-0.27126-0.29333
				c-0.07556-0.10188-0.14011-0.2121-0.19012-0.3287c-0.04819-0.11235-0.08287-0.23064-0.10172-0.35145
				c-0.01857-0.11915-0.02174-0.24075-0.00937-0.36069c0.01253-0.12157,0.04102-0.24143,0.08331-0.35607
				c0.04388-0.11893,0.10263-0.23223,0.17279-0.33776c0.07382-0.11102,0.16025-0.21343,0.25566-0.30649
				c0.10068-0.09821,0.21133-0.18599,0.32867-0.26342c0.12318-0.08129,0.25372-0.15118,0.38905-0.21024
				c0.28371-0.12379,0.58849-0.20004,0.89777-0.23096c0.31438-0.03143,0.63339-0.01603,0.94112,0.04691
				c0.20844,0.04263,0.41325,0.10748,0.60742,0.19603c0.18295,0.08344,0.35643,0.18792,0.51247,0.3148
				c0.14488,0.11781,0.27472,0.25494,0.37918,0.40996c0.09761,0.14484,0.17307,0.3053,0.21733,0.47433
				c0.04282,0.16348,0.05646,0.33498,0.0392,0.5031c-0.01758,0.17126-0.06725,0.33903-0.14188,0.49409
				c-0.07927,0.16473-0.18674,0.31513-0.3123,0.44798c-0.13538,0.14322-0.29179,0.26604-0.4593,0.36825
				c-0.04382,0.02673-0.08846,0.05212-0.13383,0.07615c-0.04132,0.02189-0.08322,0.04266-0.12567,0.06233
				c-0.13023,0.06036-0.2655,0.11044-0.40331,0.1504C203.88135,116.55923,203.86166,116.56472,203.84192,116.57001z"/>
		</g>
		<g id="SPLINE_1135_">
			<path class="st1" d="M198.61545,118.27672c0.32478-0.27065,0.71718-0.44832,0.81821-0.49924
				c0.1001-0.05045,0.20419-0.09276,0.31056-0.12754c0.37234-0.11523,0.76128-0.18179,1.15196-0.20063
				c0.3924-0.01892,0.78658,0.01029,1.17104,0.08887c0.3698,0.07558,0.73061,0.19682,1.06761,0.36902
				c0.31285,0.15985,0.60519,0.3636,0.85251,0.61061c0.0685,0.07132,0.13144,0.14817,0.18796,0.22948
				c0.05917,0.08514,0.11128,0.17515,0.15636,0.26834c0.01839,0.03803,0.03056,0.07944,0.03619,0.12146
				c0.00581,0.04345,0.00464,0.08753,0.00089,0.13106v2.11234"/>
		</g>
		<path class="st1" d="M203.79391,111.37982c0.02545-0.05869,0.04732-0.11893,0.06726-0.17976
			c0.02367-0.07222,0.04462-0.14526,0.06366-0.21883c0.04099-0.15824,0.06039-0.22781,0.09854-0.39131
			c0,0,0.20036,0.04329,0.23692,0.05077l3.17818,0.65005c0.08888,0.01818,0.17633,0.04485,0.25998,0.08054
			c0.07947,0.03391,0.1555,0.07594,0.22548,0.12656c0.06558,0.04743,0.12585,0.10242,0.17747,0.16496
			c0.04836,0.05858,0.12691,0.18937,0.12691,0.18937l-3.3497,9.07468c-0.03908,0.10587-0.10794,0.20139-0.18971,0.28038
			c-0.04768,0.04606-0.09975,0.08649-0.15492,0.1223c-0.05968,0.03872-0.12297,0.07202-0.18848,0.10017
			c-0.1405,0.06036-0.29115,0.09698-0.44391,0.11175c-0.15617,0.01509-0.31453,0.00733-0.46736-0.02393l-0.29617-0.07533
			l-4.66563-1.1433l0.00072,0.00014l-0.02484-0.00887l-0.03796-0.03543l-0.02385-0.05268l-0.01534-0.07699l-0.00551-0.06867v0.00012
			l0.04468-1.8121"/>
		<g id="LINE_1731_">
			<path class="st1" d="M207.31522,114.17461l-0.06265-1.1835c-0.00002,0-0.04472-0.30357-0.04472-0.30357l0.00018,0.00124
				l-0.00754-0.03713l-0.05598-0.11694l-0.09842-0.09702l-0.13065-0.06796l-0.08426-0.02358
				c0,0.00001-5.72649-1.17126-5.72649-1.17126c-0.02782-0.00568-0.05562,0.0098-0.06541,0.03645l0.00003-0.00006l-2.58954,6.98055"
				/>
		</g>
	</g>
	<g>
		<g id="SPLINE_1138_">
			<path class="st1" d="M166.5463,109.1757c-0.23222,0.06217-0.47253,0.0967-0.71367,0.10388
				c-0.24139,0.00718-0.4836-0.01305-0.71939-0.06128c-0.29362-0.06006-0.58221-0.16498-0.84117-0.31763
				c-0.12143-0.07158-0.23634-0.15365-0.34193-0.24667c-0.10005-0.08815-0.19174-0.18613-0.27126-0.29333
				c-0.07556-0.10188-0.14011-0.2121-0.19012-0.3287c-0.04819-0.11235-0.08287-0.23064-0.10172-0.35146
				c-0.01857-0.11914-0.02173-0.24074-0.00937-0.36069c0.01253-0.12157,0.04102-0.24143,0.08331-0.35607
				c0.04388-0.11893,0.10263-0.23223,0.17279-0.33776c0.07382-0.11102,0.16026-0.21343,0.25566-0.30649
				c0.10068-0.09821,0.21133-0.18599,0.32867-0.26342c0.12318-0.08129,0.25372-0.15118,0.38907-0.21024
				c0.28369-0.12379,0.58847-0.20004,0.89775-0.23096c0.31438-0.03143,0.63339-0.01603,0.94112,0.04691
				c0.20844,0.04263,0.41325,0.10748,0.60742,0.19603c0.18295,0.08344,0.35643,0.18792,0.51247,0.3148
				c0.14488,0.11781,0.27472,0.25493,0.37918,0.40995c0.09761,0.14484,0.17307,0.30531,0.21733,0.47433
				c0.04282,0.16348,0.05647,0.33498,0.0392,0.5031c-0.01758,0.17126-0.06725,0.33903-0.14186,0.49409
				c-0.07928,0.16473-0.18674,0.31514-0.31232,0.44799c-0.13538,0.14322-0.29179,0.26604-0.4593,0.36825
				c-0.04382,0.02673-0.08846,0.05212-0.13382,0.07614c-0.04134,0.0219-0.08324,0.04266-0.12569,0.06233
				c-0.13023,0.06037-0.2655,0.11045-0.40331,0.15041C166.58572,109.16493,166.56604,109.17042,166.5463,109.1757z"/>
		</g>
		<g id="SPLINE_1137_">
			<path class="st1" d="M161.31982,110.88242c0.32478-0.27065,0.71718-0.44832,0.81822-0.49924
				c0.10008-0.05045,0.20418-0.09276,0.31055-0.12754c0.37236-0.11523,0.76128-0.18179,1.15196-0.20063
				c0.3924-0.01892,0.78658,0.01028,1.17104,0.08886c0.3698,0.07558,0.73061,0.19683,1.06761,0.36903
				c0.31287,0.15985,0.60519,0.3636,0.85252,0.61061c0.06848,0.07132,0.13142,0.14817,0.18794,0.22948
				c0.05917,0.08513,0.11128,0.17515,0.15636,0.26834c0.0184,0.03802,0.03056,0.07944,0.03619,0.12146
				c0.00581,0.04344,0.00464,0.08753,0.00089,0.13106v2.11233"/>
		</g>
		<path class="st1" d="M166.49829,103.98552c0.02545-0.05869,0.04732-0.11893,0.06726-0.17976
			c0.02367-0.07222,0.04462-0.14526,0.06366-0.21882c0.04099-0.15825,0.06039-0.22782,0.09854-0.39132
			c0,0,0.20036,0.0433,0.23692,0.05078l3.17818,0.65005c0.08888,0.01818,0.17633,0.04485,0.25998,0.08054
			c0.07947,0.0339,0.1555,0.07594,0.22549,0.12656c0.06557,0.04744,0.12584,0.10242,0.17746,0.16497
			c0.04836,0.05858,0.12691,0.18937,0.12691,0.18937l-3.3497,9.07468c-0.03908,0.10586-0.10794,0.20139-0.18971,0.28038
			c-0.04768,0.04606-0.09975,0.08649-0.15492,0.1223c-0.05968,0.03872-0.12297,0.07202-0.18848,0.10017
			c-0.1405,0.06036-0.29115,0.09698-0.44391,0.11174c-0.15617,0.01509-0.31453,0.00734-0.46736-0.02392l-0.29617-0.07533
			l-4.66563-1.1433l0.00072,0.00014l-0.02484-0.00887l-0.03796-0.03544l-0.02385-0.05267l-0.01534-0.07699l-0.00551-0.06867
			l0.00002,0.00012l0.04466-1.81211"/>
		<g id="LINE_1732_">
			<path class="st1" d="M170.01959,106.78031l-0.06265-1.1835c0,0-0.04472-0.30357-0.04472-0.30357l0.00018,0.00124
				l-0.00754-0.03713l-0.05598-0.11694l-0.09842-0.09702l-0.13065-0.06796l-0.08426-0.02358
				c0,0.00001-5.72649-1.17126-5.72649-1.17126c-0.02782-0.00569-0.05562,0.0098-0.06541,0.03645l0.00003-0.00007l-2.58954,6.98055"
				/>
		</g>
	</g>
	<g>
		<g id="SPLINE_1140_">
			<path class="st1" d="M130.25069,101.7814c-0.23222,0.06217-0.47255,0.0967-0.71367,0.10388
				c-0.24139,0.00718-0.48361-0.01305-0.71939-0.06128c-0.29364-0.06006-0.58223-0.16499-0.84118-0.31763
				c-0.12143-0.07158-0.23634-0.15365-0.34193-0.24667c-0.10006-0.08815-0.19175-0.18613-0.27126-0.29333
				c-0.07556-0.10188-0.14011-0.2121-0.19012-0.3287c-0.04819-0.11235-0.08288-0.23064-0.10172-0.35145
				c-0.01858-0.11914-0.02174-0.24075-0.00938-0.36069c0.01254-0.12157,0.04102-0.24144,0.08331-0.35607
				c0.04388-0.11893,0.10264-0.23223,0.1728-0.33777c0.07381-0.11101,0.16026-0.21342,0.25565-0.30648
				c0.10068-0.09821,0.21134-0.18599,0.32867-0.26342c0.12319-0.0813,0.25373-0.15118,0.38906-0.21024
				c0.28369-0.12379,0.58849-0.20004,0.89777-0.23096c0.31438-0.03143,0.63339-0.01603,0.94112,0.04691
				c0.20844,0.04264,0.41325,0.10749,0.60741,0.19604c0.18295,0.08344,0.35645,0.18792,0.51248,0.3148
				c0.14488,0.11781,0.2747,0.25494,0.37918,0.40996c0.0976,0.14484,0.17307,0.30531,0.21733,0.47433
				c0.04282,0.16348,0.05646,0.33498,0.0392,0.5031c-0.01759,0.17126-0.06725,0.33903-0.14188,0.49409
				c-0.07927,0.16473-0.18674,0.31513-0.3123,0.44799c-0.13538,0.14321-0.29179,0.26604-0.4593,0.36825
				c-0.04382,0.02673-0.08846,0.05212-0.13383,0.07614c-0.04132,0.02189-0.08324,0.04266-0.12567,0.06233
				c-0.13023,0.06037-0.2655,0.11044-0.40331,0.1504C130.29012,101.77062,130.27042,101.77612,130.25069,101.7814z"/>
		</g>
		<g id="SPLINE_1139_">
			<path class="st1" d="M125.02422,103.48811c0.32478-0.27065,0.71717-0.44833,0.81821-0.49924
				c0.1001-0.05044,0.20419-0.09275,0.31056-0.12753c0.37234-0.11523,0.76128-0.18179,1.15196-0.20063
				c0.3924-0.01892,0.78658,0.01028,1.17104,0.08886c0.3698,0.07558,0.73061,0.19683,1.06761,0.36903
				c0.31285,0.15985,0.60519,0.3636,0.85251,0.61061c0.06848,0.07132,0.13144,0.14817,0.18796,0.22948
				c0.05917,0.08513,0.11128,0.17514,0.15636,0.26833c0.01839,0.03803,0.03056,0.07945,0.03619,0.12147
				c0.00581,0.04344,0.00464,0.08753,0.00089,0.13106v2.11233"/>
		</g>
		<path class="st1" d="M130.20268,96.59122c0.02545-0.0587,0.04732-0.11894,0.06725-0.17976
			c0.02368-0.07222,0.04463-0.14526,0.06367-0.21882c0.04099-0.15825,0.06039-0.22782,0.09854-0.39132
			c0,0,0.20035,0.0433,0.23692,0.05077l3.17818,0.65005c0.08888,0.01817,0.17633,0.04485,0.25996,0.08054
			c0.07948,0.0339,0.15552,0.07594,0.22549,0.12656c0.06558,0.04744,0.12584,0.10242,0.17747,0.16496
			c0.04836,0.05859,0.12691,0.18938,0.12691,0.18938l-3.3497,9.07468c-0.03908,0.10586-0.10794,0.20139-0.18971,0.28038
			c-0.04768,0.04606-0.09975,0.08649-0.15494,0.1223c-0.05966,0.03872-0.12296,0.07202-0.18848,0.10017
			c-0.14049,0.06036-0.29114,0.09698-0.44391,0.11174c-0.15616,0.01509-0.31451,0.00733-0.46735-0.02393l-0.29617-0.07532
			l-4.66564-1.1433l0.00072,0.00014l-0.02484-0.00887l-0.03796-0.03544l-0.02386-0.05268l-0.01534-0.07698l-0.0055-0.06867v0.00011
			l0.04468-1.8121"/>
		<g id="LINE_1733_">
			<path class="st1" d="M133.72398,99.38601l-0.06267-1.18351l-0.04471-0.30356l0.00018,0.00124l-0.00755-0.03713l-0.05597-0.11694
				l-0.09842-0.09702l-0.13066-0.06795l-0.08424-0.02358c0,0-5.72649-1.17126-5.72649-1.17126
				c-0.02782-0.00569-0.05562,0.0098-0.06541,0.03645l0.00002-0.00007l-2.58953,6.98055l-11.22786,30.38605l-2.4099-0.51126
				c0,0-0.88718-0.11447-1.28785,0.85857"/>
		</g>
	</g>
	<polyline class="st1" points="169.44527,89.47237 164.94337,101.91888 165.05215,104.09448 	"/>
	<path class="st1" d="M147.91925,138.2515c0,0,2.71951-7.61462,3.20901-8.64804c0.48952-1.0334-0.32634-1.74048-0.32634-1.74048
		l-2.58862-2.13818l2.0697-5.90985c0,0,1.32948-0.58937,3.4016-0.81756c1.85991-0.20483,2.01244-1.46854,2.01244-1.46854
		l10.27974-28.80014l0.40205,9.21701"/>
	<polygon class="st1" points="141.71669,85.5624 153.31625,87.96591 148.87498,99.93123 137.43216,97.47546 	"/>
	<line class="st1" x1="206.24277" y1="97.12863" x2="201.92509" y2="108.73828"/>
	<polyline class="st1" points="183.38086,148.4201 187.2982,149.19652 198.85406,117.09688 	"/>
	<path class="st1" d="M184.10602,148.60025l-1.21902,3.45393c0,0-1.16438,2.10806,2.06532,3.01643"/>
	<line class="st1" x1="218.29167" y1="161.78807" x2="102.10801" y2="138.00755"/>
	<path class="st1" d="M203.02591,105.77032l-0.30489-8.82233l-3.19215-0.65817c0,0-0.72069-0.21934-1.15935,0.94001
		c-0.43867,1.15935-1.01501,2.83775-1.01501,2.83775s-0.53268,1.06535,0.34467,2.22469c0,0,0.97134,1.00269,0.56401,2.1307
		c-0.40735,1.12801-0.62668,1.37868-0.62668,1.37868s-0.31334,0.81468,1.06534,1.12802l-6.6114,18.23622
		c0,0-0.28201,0.84601-1.94269,1.09668c-1.66069,0.25067-2.4127,0.50134-2.4127,0.50134s-0.59534,0-1.15935,1.25335
		c-0.56401,1.25334-1.59802,4.16737-1.59802,4.16737s-0.564,0.94002,0.31334,1.66069
		c0.87735,0.72067,2.09937,1.53535,2.09937,1.53535s0.81467,0.53267,0.21933,1.84869
		c-0.59534,1.31601-1.91135,4.85672-1.91135,4.85672s-1.03902-0.2789-1.47987,0.29422s-0.6172,1.76344-0.6172,1.76344
		s-0.26451,0.83765,0.96989,1.23442l-2.60107,6.30431c0,0-1.14624,2.38065-4.23227,1.71936"/>
	<polyline class="st1" points="101.59074,136.79576 101.52433,134.20581 113.3451,102.72802 114.40764,102.32957 
		115.80223,98.67709 116.79836,98.87631 118.98985,92.83311 116.99759,92.43465 124.87952,70.70782 125.57769,70.86893 	"/>
	<path class="st1" d="M114.30451,102.67958l-2.40408,6.48543l-0.05591,4.97589l6.9327,1.45363l0.22363-0.50318
		c0,0,1.15618-0.09286,1.7073-0.6991l-5.40562-0.85838l0.03635-1.85406l4.43519,0.65437"/>
	<line class="st1" x1="104.54692" y1="132.59435" x2="111.84938" y2="112.5579"/>
	<path class="st1" d="M110.0023,133.82829l-6.23472-1.2989c0,0-0.90923,1.4288,0.16236,1.72105s4.8384,1.00664,4.8384,1.00664
		S109.6451,135.7117,110.0023,133.82829z"/>
	<path class="st1" d="M102.28537,137.07417l-0.88082,2.56906l-0.0734,2.56906l-1.39463,3.44987l-0.0367,4.73441l-1.06432,2.31215
		l-3.70678-0.73401l0.69731-7.19336l2.31215-4.47751l1.69227-3.82053l7.58401,1.63129c0,0,0.97305,0.40067,1.31647-0.65823
		c0.34343-1.05891,1.202-3.31981,1.202-3.31981"/>
	<polyline class="st1" points="100.14791,145.54388 101.45525,145.85516 103.22203,142.09987 	"/>
	<polyline class="st1" points="101.393,142.49342 101.45525,154.10387 99.43198,153.76146 99.36973,151.70706 	"/>
	<polyline class="st1" points="101.60784,153.8994 103.22203,149.44331 103.2675,138.25764 	"/>
	<polyline class="st1" points="103.43034,141.72778 144.64958,150.30794 145.77861,150.97353 145.90796,158.86383 	"/>
	<path class="st1" d="M109.01809,136.63284c0,0-0.44091,2.32477,2.36485,3.24666"/>
	<path class="st1" d="M140.41286,145.76585c4.67192,0.50056,5.47838-3.14241,5.47838-3.14241l1.66855-4.72752l0.83426,0.25027
		v0.69522l-0.60007,1.38193l0.07329,0.75728"/>
	<path class="st1" d="M148.27675,147.45863c0,0-3.08073-0.99754-2.16304-3.44473l1.02893-2.33597
		c0,0,0.22247-0.88988,1.41826-0.61179c1.19579,0.27808,1.72417,0.47275,1.72417,0.47275l10.8058-28.73114"/>
	<polyline class="st1" points="158.5634,109.30228 158.74683,112.23699 163.74501,99.48932 163.88257,97.56342 165.21237,94.26186 
		164.10359,94.03706 	"/>
	<line class="st1" x1="161.18068" y1="102.1818" x2="161.3289" y2="105.44295"/>
	<polyline class="st1" points="165.32065,100.82009 165.13858,96.99661 165.42468,96.47641 165.21237,94.26186 	"/>
	<polyline class="st1" points="201.98428,111.19489 201.63504,99.9427 202.94298,96.28606 	"/>
	<line class="st1" x1="200.18787" y1="99.4451" x2="201.5363" y2="99.71233"/>
	<g id="SPLINE_1141_">
		<path class="st1" d="M198.42535,102.10129l-0.40439-0.94584c-0.01285-0.03004-0.02032-0.06279-0.02116-0.09571
			c-0.00082-0.03291,0.00497-0.06599,0.0163-0.09664l0.79436-2.15201c0.01611-0.04365,0.04375-0.08334,0.07729-0.11622
			c0.03728-0.03654,0.08186-0.06468,0.12947-0.08541c0.05133-0.02235,0.10619-0.0361,0.16193-0.04168
			c0.05667-0.00566,0.11426-0.00289,0.16975,0.00847l0.55273,0.11305c0.04105,0.00839,0.08134,0.02157,0.11922,0.03989
			c0.03542,0.01714,0.0687,0.03877,0.09787,0.06517c0.02687,0.02431,0.05026,0.05267,0.06767,0.08457
			c0.01628,0.02985,0.02734,0.06281,0.03142,0.09635c0.00365,0.03017,0.00166,0.0614-0.00549,0.09103
			c-0.00244,0.01007-0.00546,0.01996-0.00905,0.02966l-0.29211,0.79139c-0.00227,0.00615-0.00301,0.01301-0.00201,0.01955
			c0.00102,0.00673,0.00391,0.01311,0.00797,0.01861c0.00925,0.0125,0.02466,0.02034,0.0397,0.02341l0.05528,0.01131
			c0.04425,0.00906,0.08757,0.02477,0.12677,0.04787c0.03561,0.021,0.06783,0.0481,0.09239,0.08139
			c0.02228,0.03016,0.03828,0.06538,0.04401,0.1025c0.00557,0.03613,0.00139,0.07407-0.01114,0.10802l-0.68163,1.84659
			c-0.01611,0.04365-0.04375,0.08333-0.0773,0.11621c-0.03728,0.03654-0.08185,0.06469-0.12947,0.08542
			c-0.05132,0.02235-0.10617,0.0361-0.16191,0.04167c-0.05667,0.00567-0.11426,0.00289-0.16977-0.00846l-0.32191-0.06584
			c-0.06538-0.01337-0.12938-0.03857-0.18419-0.07848C198.48964,102.20195,198.44847,102.15536,198.42535,102.10129"/>
	</g>
	<ellipse class="st1" cx="200.11806" cy="97.57699" rx="0.83982" ry="0.50389"/>
	<g id="SPLINE_1142_">
		<path class="st1" d="M139.29602,137.73543c0.17308-0.0914,0.33521-0.20953,0.46945-0.35269
			c0.06273-0.06689,0.11937-0.13925,0.16817-0.2168c0.04669-0.0742,0.08621-0.15315,0.11652-0.23524l9.37605-25.40065
			c0.03293-0.0892,0.05521-0.18288,0.065-0.27777c0.00966-0.09362,0.00717-0.18843-0.00732-0.28136
			c-0.01471-0.09423-0.04176-0.18652-0.07935-0.27416c-0.03902-0.09097-0.08937-0.17693-0.14832-0.25642
			c-0.06203-0.08362-0.13354-0.16005-0.21159-0.22881c-0.08238-0.07257-0.17203-0.13659-0.26675-0.19243
			c-0.202-0.11907-0.42712-0.20093-0.65617-0.24778l-14.74673-3.01622c-0.24005-0.0491-0.48891-0.06111-0.73415-0.03659
			c-0.24126,0.02412-0.47902,0.0836-0.70033,0.18016c-0.10558,0.04607-0.2074,0.10058-0.3035,0.164
			c-0.09154,0.06041-0.17787,0.1289-0.25641,0.20549c-0.0744,0.07257-0.14182,0.15241-0.19942,0.23907
			c-0.05476,0.08238-0.10065,0.17094-0.13481,0.26349l-9.37605,25.40065c-0.0269,0.07288-0.0467,0.14865-0.05835,0.22562
			c-0.01149,0.07582-0.01507,0.15282-0.01052,0.22934c0.00456,0.07677,0.0173,0.15305,0.0376,0.22722
			c0.02072,0.0757,0.04934,0.14919,0.08474,0.21928c0.07453,0.14757,0.17916,0.28009,0.30114,0.39275
			c0.13305,0.12289,0.28675,0.22215,0.44938,0.29919c0.03899,0.01848,0.07857,0.03569,0.11867,0.0517
			c0.12341,0.04927,0.25175,0.08702,0.38186,0.11363l14.74674,3.01622c0.26653,0.05452,0.54387,0.06351,0.81567,0.02705
			C138.80206,137.93787,139.06163,137.85922,139.29602,137.73543"/>
	</g>
	<g id="SPLINE_1143_">
		<path class="st1" d="M176.05618,145.29457c0.17308-0.09142,0.33521-0.20955,0.46945-0.35271
			c0.06273-0.06689,0.11937-0.13925,0.16817-0.2168c0.04669-0.0742,0.08621-0.15315,0.11652-0.23523l9.37605-25.40066
			c0.03293-0.08921,0.05521-0.18288,0.065-0.27777c0.00966-0.09363,0.00717-0.18844-0.00732-0.28136
			c-0.01471-0.09423-0.04176-0.18652-0.07935-0.27416c-0.03902-0.09097-0.08937-0.17694-0.14832-0.25642
			c-0.06203-0.08362-0.13354-0.16006-0.21159-0.22881c-0.08238-0.07257-0.17203-0.1366-0.26675-0.19243
			c-0.202-0.11907-0.42712-0.20093-0.65617-0.24778l-14.74673-3.01623c-0.24005-0.0491-0.48891-0.0611-0.73415-0.03659
			c-0.24126,0.02412-0.47902,0.0836-0.70033,0.18017c-0.10558,0.04607-0.20741,0.10058-0.3035,0.16399
			c-0.09154,0.06041-0.17787,0.12891-0.25641,0.2055c-0.0744,0.07257-0.14182,0.1524-0.19942,0.23907
			c-0.05476,0.08239-0.10065,0.17094-0.13481,0.2635l-9.37605,25.40064c-0.0269,0.07288-0.04669,0.14865-0.05835,0.22562
			c-0.01149,0.07584-0.01506,0.15283-0.01053,0.22935c0.00456,0.07675,0.0173,0.15305,0.0376,0.2272
			c0.02074,0.0757,0.04935,0.14919,0.08475,0.21928c0.07454,0.14757,0.17915,0.28011,0.30113,0.39276
			c0.13306,0.12289,0.28676,0.22214,0.44939,0.29918c0.03899,0.01848,0.07857,0.03571,0.11867,0.05171
			c0.12341,0.04927,0.25175,0.08701,0.38187,0.11362l14.74673,3.01624c0.26653,0.0545,0.54387,0.06349,0.81567,0.02704
			C175.56223,145.49699,175.82179,145.41835,176.05618,145.29457"/>
	</g>
	<g id="SPLINE_1144_">
		<path class="st1" d="M212.91989,152.75015c0.17308-0.09142,0.33522-0.20955,0.46945-0.35271
			c0.06273-0.06689,0.11937-0.13925,0.16817-0.2168c0.04669-0.0742,0.08621-0.15315,0.11652-0.23523l9.37605-25.40066
			c0.03294-0.08921,0.05521-0.18288,0.065-0.27777c0.00966-0.09363,0.00717-0.18844-0.00732-0.28136
			c-0.01471-0.09423-0.04175-0.18652-0.07935-0.27416c-0.03902-0.09097-0.08937-0.17694-0.14832-0.25642
			c-0.06203-0.08362-0.13354-0.16006-0.21159-0.22881c-0.08237-0.07257-0.17201-0.13659-0.26675-0.19243
			c-0.202-0.11907-0.42711-0.20093-0.65617-0.24778l-14.74673-3.01623c-0.24005-0.0491-0.48891-0.0611-0.73415-0.03659
			c-0.24126,0.02412-0.47902,0.0836-0.70033,0.18017c-0.10558,0.04607-0.2074,0.10058-0.3035,0.16399
			c-0.09154,0.06041-0.17786,0.12891-0.25639,0.2055c-0.07442,0.07257-0.14183,0.1524-0.19943,0.23907
			c-0.05475,0.08239-0.10063,0.17094-0.1348,0.2635l-9.37607,25.40066c-0.0269,0.07286-0.04669,0.14864-0.05835,0.2256
			c-0.01149,0.07584-0.01506,0.15283-0.01051,0.22935c0.00455,0.07675,0.01729,0.15305,0.0376,0.2272
			c0.02072,0.0757,0.04933,0.14919,0.08473,0.21928c0.07454,0.14757,0.17917,0.28011,0.30113,0.39276
			c0.13306,0.12289,0.28676,0.22214,0.44939,0.29918c0.039,0.01848,0.07857,0.03571,0.11867,0.05171
			c0.12341,0.04927,0.25175,0.08701,0.38187,0.11362l14.74673,3.01624c0.26653,0.0545,0.54388,0.06349,0.81567,0.02705
			C212.42593,152.95258,212.6855,152.87393,212.91989,152.75015"/>
	</g>
	<path class="st1" d="M239.68398,104.24216l-3.19215-0.65817c0,0-0.72069-0.21934-1.15935,0.94001
		c-0.43867,1.15935-1.01501,2.83776-1.01501,2.83776s-0.53268,1.06535,0.34467,2.22469c0,0,0.97134,1.00268,0.56401,2.13069
		c-0.40735,1.12801-0.62668,1.37868-0.62668,1.37868s-0.31334,0.81467,1.06535,1.12801l-6.61142,18.23622
		c0,0-0.28201,0.84601-1.94269,1.09668c-1.66069,0.25067-2.4127,0.50134-2.4127,0.50134s-0.59534,0-1.15935,1.25334
		c-0.56401,1.25336-1.59802,4.16739-1.59802,4.16739s-0.564,0.94002,0.31334,1.66069
		c0.87735,0.72067,2.09937,1.53535,2.09937,1.53535s0.81468,0.53267,0.21933,1.84868
		c-0.59534,1.31602-1.91135,4.85674-1.91135,4.85674s-1.03902-0.2789-1.47987,0.29422s-0.6172,1.76344-0.6172,1.76344
		s-0.26451,0.83763,0.96989,1.23441l-2.60107,6.30431c0,0-1.32784,2.68228-4.41386,2.02098"/>
	<line class="st1" x1="215.86325" y1="161.31725" x2="216.07968" y2="166.20848"/>
	<path class="st1" d="M187.03525,155.43045l0.08658,3.85239c0,0,0.17314,1.29855,1.51498,1.68813"/>
	<path class="st1" d="M187.6315,155.48709l0.14253,3.8484c0,0,1.14026,0.05702,0.99773,0.57014s-0.31357,0.99774-0.31357,0.99774
		l-0.0285,1.22578l25.88416,5.30226l0.19954-1.33981c0,0,0.0285-1.33983,1.39684-1.11177"/>
	<path class="st1" d="M150.91982,148.11081l0.10298,3.77582c0,0,1.09842,0.06865,0.99544,0.65219
		c-0.10298,0.58353-0.30893,0.89246-0.30893,0.89246l0.03432,1.16707l25.84717,5.28615l0.10298-1.30438
		c0,0,0-1.40735,1.54465-1.06409"/>
	<path class="st1" d="M179.06679,153.80885l0.10298,2.91768c0,0,0.61786,2.60875-1.476,1.85358"/>
	<path class="st1" d="M150.16466,148.00784v3.74149c0,0-0.24028,1.06409,1.54465,1.68195"/>
	<path class="st1" d="M103.02981,150.02348c0,0-0.58025,1.62469,1.47964,2.03087c2.05989,0.40617,8.52968,1.71175,8.52968,1.71175
		s0.9284,0.60925,1.59569-1.62471l-0.08704-8.03645"/>
	<polyline class="st1" points="114.49969,144.91737 121.36636,146.3446 121.42178,151.99731 	"/>
	<line class="st1" x1="114.80888" y1="152.15762" x2="119.71728" y2="153.17059"/>
	<line class="st1" x1="114.75735" y1="151.33311" x2="120.06515" y2="152.41528"/>
	<polyline class="st1" points="121.41328,151.97758 122.57037,152.22223 122.79635,149.96751 123.00247,149.16878 
		123.3632,149.24606 123.4405,152.08032 123.12797,152.69766 123.18012,153.88406 122.84115,154.84885 121.5374,154.56201 	"/>
	<path class="st1" d="M121.47353,155.08273l-0.07964-3.12589l-1.02974-0.20734l-1.59838,4.0898l0.13937,2.9666
		c0,0,0.69685,0.65703,1.05524,0.09955L121.47353,155.08273z"/>
	<path class="st1" d="M120.36415,151.74951l-0.13685-3.85443c0,0-0.06842-0.70703-0.77544-0.79826
		c-0.70703-0.09123-2.30354-0.47896-2.30354-0.47896l-1.5509,0.79826l0.06842,2.66846l1.41405,1.5737"/>
	<polyline class="st1" points="134.99937,155.07304 134.41747,155.87662 134.33435,157.20667 125.41193,155.35014 
		125.43964,153.82613 125.79986,153.07797 	"/>
	<path class="st1" d="M124.7192,146.28918l0.19396,6.65024l-0.47106,0.72044l-0.05541,1.63486c0,0,0.19396,0.94212,1.13608,1.10837
		c0.94212,0.16626,8.97783,1.77341,8.97783,1.77341s1.05296,0.11084,1.4686-1.63486l-0.08313-6.48399l1.05296-1.38547"/>
	<line class="st1" x1="125.57819" y1="154.38031" x2="134.30664" y2="156.0983"/>
	<line class="st1" x1="123.18012" y1="153.88406" x2="124.31165" y2="154.10548"/>
	<polyline class="st1" points="136.31906,149.42897 142.67897,150.68805 142.71936,156.0475 143.93941,156.21541 
		144.19756,153.93179 144.63441,153.4552 144.67413,156.39412 144.4557,157.10899 144.46484,158.51808 214.3006,173.00455 	"/>
	<line class="st1" x1="135.96394" y1="155.65974" x2="141.36629" y2="156.74228"/>
	<line class="st1" x1="135.97391" y1="156.51602" x2="141.06461" y2="157.53416"/>
	<path class="st1" d="M138.83978,156.06352l-1.88545-1.62149l-0.05656-2.67734l1.50836-0.79189c0,0,1.4895,0.37709,2.24368,0.43365
		s0.88617,0.71648,0.88617,0.71648l0.11311,3.97829l-1.60176,4.10553l0.13901,3.05806c0.89359,0.5163,1.11201,0,1.11201,0
		l1.50917-3.91193l-0.1176-3.27594c0,0-0.21997-0.02042-0.89513-0.09984"/>
	<polyline class="st1" points="142.76781,158.93588 144.05855,159.19403 144.41599,158.28058 	"/>
	<g>
		<polygon class="st1" points="161.29141,158.97011 169.18326,160.66565 169.27496,162.80557 161.38312,161.11003 		"/>
		<line class="st1" x1="165.2227" y1="160.0139" x2="165.28384" y2="161.81757"/>
	</g>
	<g>
		<polygon class="st1" points="170.57765,160.95764 181.04645,163.16115 181.13817,165.24004 170.66937,163.03653 		"/>
		<line class="st1" x1="175.90787" y1="162.18625" x2="175.96901" y2="163.93846"/>
	</g>
	<polygon class="st1" points="182.81734,160.54448 186.31337,161.24368 186.40872,163.24596 182.81734,162.54675 	"/>
	<polygon class="st1" points="182.81734,163.35039 186.31337,164.04959 186.40872,166.05186 182.81734,165.35266 	"/>
	<line class="st1" x1="237.09729" y1="106.75809" x2="238.85114" y2="107.12668"/>
	<g id="SPLINE_1145_">
		<path class="st1" d="M235.33479,109.41428l-0.40439-0.94584c-0.01285-0.03004-0.02032-0.0628-0.02116-0.09572
			c-0.00084-0.03291,0.00497-0.06599,0.0163-0.09663l0.79436-2.15202c0.01611-0.04364,0.04375-0.08333,0.07729-0.11621
			c0.03728-0.03654,0.08186-0.06468,0.12947-0.08542c0.05133-0.02235,0.10619-0.03609,0.16193-0.04167
			c0.05667-0.00567,0.11426-0.00289,0.16975,0.00846l0.55273,0.11305c0.04105,0.0084,0.08134,0.02158,0.11922,0.03989
			c0.0354,0.01714,0.0687,0.03878,0.09787,0.06517c0.02687,0.02431,0.05025,0.05267,0.06767,0.08457
			c0.01628,0.02985,0.02734,0.06282,0.03142,0.09635c0.00365,0.03018,0.00166,0.06141-0.00549,0.09103
			c-0.00244,0.01007-0.00546,0.01996-0.00905,0.02965l-0.29213,0.7914c-0.00226,0.00614-0.00299,0.01301-0.002,0.01954
			c0.00102,0.00674,0.00391,0.01312,0.00797,0.01861c0.00925,0.0125,0.02466,0.02034,0.0397,0.02342l0.05528,0.01131
			c0.04425,0.00905,0.08757,0.02476,0.12677,0.04787c0.03561,0.021,0.06781,0.0481,0.09239,0.08139
			c0.02228,0.03015,0.03828,0.06538,0.04401,0.10249c0.00557,0.03614,0.00139,0.07407-0.01114,0.10802l-0.68164,1.8466
			c-0.0161,0.04364-0.04373,0.08333-0.07729,0.11621c-0.03728,0.03654-0.08185,0.06468-0.12947,0.08542
			c-0.05132,0.02235-0.10617,0.03609-0.16191,0.04167c-0.05667,0.00567-0.11426,0.00289-0.16977-0.00846l-0.32191-0.06584
			c-0.06538-0.01337-0.12938-0.03857-0.18419-0.07849C235.39908,109.51495,235.35791,109.46835,235.33479,109.41428"/>
	</g>
	<ellipse class="st1" cx="237.0275" cy="104.88998" rx="0.83982" ry="0.50389"/>
	<path class="st1" d="M111.98097,109.00414l3.00977,0.7186l3.54508,0.49756l0.00198,0.92972
		c0.47686,0.07948,1.51006,1.15242,1.51006,1.15242l0.92588-2.22219"/>
	<path class="st1" d="M118.7365,109.87838l4.21227-10.53068c0,0-0.55634-2.62273,1.86771-4.53017l-0.07948-0.79477l2.86116-7.27213
		l-5.44416-1.15241l1.39085-3.53672l1.11267,0.19869l0.35765-0.11922l3.65594,0.75504L127.32,86.47246"/>
	<polyline class="st1" points="119.48325,85.59582 120.39209,85.77759 120.86469,85.05051 122.82781,79.85188 129.22612,80.85162 
		130.68027,81.32422 130.78934,82.59661 130.28038,82.37849 128.67111,82.896 	"/>
	<path class="st1" d="M127.40842,86.99545c0,0,2.2903,0.72708,2.21759,3.27186"/>
	<path class="st1" d="M128.53539,83.21463c0,0,2.36301,1.09062,2.54478,3.34457"/>
	<polyline class="st1" points="129.22612,88.74044 126.68134,95.93853 126.20873,95.79311 123.44583,103.53651 123.48219,104.55443 
		121.15553,110.48013 	"/>
	<path class="st1" d="M119.11971,108.66243c0,0,2.36301,0.90885,2.36301,3.38092"/>
	<polyline class="st1" points="116.99759,92.43465 117.0967,94.02933 115.55957,98.2489 115.80223,98.67709 	"/>
	<polyline class="st1" points="113.3451,102.72802 114.77593,99.12296 115.52943,99.18324 	"/>
	<line class="st1" x1="125.26376" y1="80.2378" x2="125.35498" y2="77.99706"/>
	<line class="st1" x1="128.16464" y1="80.70036" x2="128.76056" y2="79.23545"/>
	<line class="st1" x1="129.67041" y1="81.01288" x2="130.27455" y2="79.51627"/>
	<path class="st1" d="M131.75192,79.8093l-0.00058,0.14498l0.19191,1.65522c0,0-0.11363,0.73867-1.108,0.71026l0.05681-0.42616
		l0.81102-1.9622"/>
	<polyline class="st1" points="129.49338,82.71397 130.06522,83.34862 131.07156,83.6002 131.08055,84.24715 130.71039,85.08714 	
		"/>
	<line class="st1" x1="96.42973" y1="146.63106" x2="98.41714" y2="147.03743"/>
	<line class="st1" x1="96.42973" y1="147.4312" x2="98.41714" y2="147.83757"/>
	<line class="st1" x1="96.37118" y1="148.17279" x2="98.35859" y2="148.57916"/>
	<line class="st1" x1="96.31263" y1="148.91438" x2="98.30005" y2="149.32076"/>
	<line class="st1" x1="96.23457" y1="149.67549" x2="98.22198" y2="150.08186"/>
	<line class="st1" x1="96.15651" y1="150.39757" x2="98.14392" y2="150.80396"/>
	<line class="st1" x1="96.09796" y1="151.11966" x2="98.08537" y2="151.52603"/>
	<path class="st1" d="M111.65221,144.64403c-3.20525-2.08023-5.85059-0.75362-5.85059-0.75362l1.88025,1.15921
		c0,0,2.40231-0.44777,3.3766,1.41422l0.83444-1.13246L111.65221,144.64403z"/>
	<path class="st1" d="M105.21094,148.03438l-0.66075-0.50357c-0.46449-2.45981,0.85584-3.05132,0.85584-3.05132l1.50099,0.89795
		c0,0-1.45494,0.27609-1.13744,1.63072C105.76958,147.00816,105.19131,147.45853,105.21094,148.03438z"/>
	<polyline class="st1" points="104.23753,148.37015 104.1613,149.64632 104.10327,151.06793 113.06814,152.92473 
		113.09715,150.3336 113.72807,149.52803 	"/>
	<path class="st1" d="M111.60088,149.99854c0,0-2.45874,0.9518-5.6624-1.05981c0,0-0.30034-0.48584,0.34271-1.34106
		c0,0,1.2,1.34711,3.12917,1.37086C109.41035,148.96852,109.91721,149.67259,111.60088,149.99854z"/>
	<line class="st1" x1="104.16319" y1="149.86989" x2="112.88176" y2="151.72289"/>
	<path class="st1" d="M110.4236,148.74501c0,0,1.13963-0.13594,1.08002-1.59621l0.65803-0.76418l0.33773-0.53262
		c0,0,0.87106,1.91-0.2316,3.50439C112.26778,149.3564,110.85122,149.22014,110.4236,148.74501z"/>
	<g>
		<path class="st1" d="M133.20898,149.29274c-3.07245-1.99405-5.60818-0.7224-5.60818-0.7224l1.80235,1.11119
			c0,0,2.30278-0.42923,3.23669,1.35561l0.79987-1.08553L133.20898,149.29274z"/>
		<path class="st1" d="M127.0346,152.54262l-0.63337-0.48271c-0.44524-2.35789,0.82038-2.9249,0.82038-2.9249l1.4388,0.86075
			c0,0-1.39466,0.26465-1.09032,1.56316C127.57009,151.55891,127.01579,151.99062,127.0346,152.54262z"/>
		<path class="st1" d="M133.15979,154.42538c0,0-2.35687,0.91235-5.4278-1.0159c0,0-0.28789-0.46571,0.32852-1.28551
			c0,0,1.15028,1.29131,2.99951,1.31407C131.06003,153.43805,131.54588,154.11295,133.15979,154.42538z"/>
		<path class="st1" d="M132.0313,153.2238c0,0,1.09239-0.13031,1.03526-1.53008l0.63077-0.7325l0.32373-0.51056
			c0,0,0.83498,1.83087-0.222,3.35919C133.79906,153.80986,132.44119,153.67924,132.0313,153.2238z"/>
	</g>
	<path class="st1" d="M113.47226,140.35159c0,0-0.2738,1.50336,1.24827,1.74118"/>
	<path class="st1" d="M142.31436,146.25174c0,0,0.40157,1.56616-1.36537,1.26497"/>
	<polyline class="st1" points="141.29033,145.97064 140.78836,147.336 140.76828,148.68129 114.6858,143.28008 114.72596,142.11549 
		115.32485,140.74542 	"/>
	<polygon class="st1" points="191.28642,164.14325 192.9021,164.48947 192.97134,166.95915 191.32481,166.60406 	"/>
	<g>
		<polygon class="st1" points="197.02722,166.73956 200.92569,167.54256 204.86824,168.35464 204.86824,170.12604 
			197.02722,168.51094 		"/>
		<line class="st1" x1="200.96075" y1="169.26639" x2="200.92569" y2="167.54256"/>
	</g>
	<g>
		<polygon class="st1" points="205.94637,168.55721 209.84483,169.36021 213.78738,170.17229 213.78738,171.94368 
			205.94637,170.3286 		"/>
		<line class="st1" x1="209.8799" y1="171.08405" x2="209.84483" y2="169.36021"/>
	</g>
	<g id="SPLINE_1146_">
		<path class="st1" d="M187.90782,165.6579c0.00081-0.01048,0.00305-0.02095,0.00668-0.03081
			c0.00314-0.0085,0.00729-0.01659,0.01236-0.02411c0.0106-0.01572,0.02538-0.02893,0.04149-0.03894
			c0.04373-0.02715,0.09912-0.0345,0.15112-0.03169c0.02039,0.00111,0.04024,0.00377,0.06,0.00781l1.8019,0.36855
			c0.0544,0.01114,0.10698,0.03238,0.1543,0.06284c0.04181,0.0269,0.07951,0.06099,0.10373,0.10443
			c0.013,0.02332,0.02211,0.04932,0.02272,0.07562l0.00395,0.16774l-0.00557,0.03433
			c-0.00671,0.0182-0.0202,0.03424-0.03606,0.04573c-0.00592,0.00427-0.01216,0.00792-0.01866,0.01114l-0.2066,0.10242
			c-0.02658,0.01317-0.05704,0.0186-0.08685,0.01929c-0.01128,0.00026-0.02246-0.00017-0.03365-0.00119
			c-0.01236-0.00113-0.02464-0.00294-0.03679-0.00545l-1.49237-0.30524c-0.01245-0.00256-0.02478-0.00577-0.0369-0.00963
			c-0.0303-0.00963-0.05966-0.02322-0.08635-0.04051c-0.01268-0.00821-0.02484-0.0173-0.03616-0.0273l-0.21346-0.18832
			c-0.0128-0.01129-0.02467-0.02385-0.03479-0.03758c-0.00902-0.01225-0.01678-0.02563-0.02223-0.03984
			c-0.00479-0.01254-0.00786-0.02603-0.00818-0.03946L187.9075,165.67L187.90782,165.6579z"/>
	</g>
</g>
<g id="Zooms">
	<polyline class="st1" points="91.25502,69.68967 125.09146,62.52153 98.7748,80.96933 	"/>
	<g>
		<defs>
			<circle id="SVGID_1_" cx="56.91336" cy="101.20434" r="46.11982"/>
		</defs>
		<clipPath id="SVGID_00000094617781067366551640000005584099627366825144_">
			<use xlink:href="#SVGID_1_"  style="overflow:visible;"/>
		</clipPath>
		<path style="clip-path:url(#SVGID_00000094617781067366551640000005584099627366825144_);fill:#D1D3D4;" d="M68.09659,88.04247
			v45.62112c0,0-10.18718-8.74272-11.52684-8.9341c-1.33966-0.19138-2.10518-4.78449-2.8707-5.55001
			c-0.76552-0.76552-2.29656-9.37761-2.29656-9.37761s-0.76552-33.87423-0.38276-38.27596s3.25346-6.50691,3.25346-6.50691
			l4.21035-1.33966c3.06208-0.76552,4.40174,1.33966,4.40174,1.33966l40.10324,33.74709l-0.10686,2.13723L77.16475,78.44576
			c0,0-3.22739-2.5584-6.77921,0.28305C70.38554,78.72881,67.3073,81.57027,68.09659,88.04247z"/>
		
			<path style="clip-path:url(#SVGID_00000094617781067366551640000005584099627366825144_);fill:none;stroke:#231F20;stroke-width:0.5;stroke-linecap:round;stroke-linejoin:round;stroke-miterlimit:10;" d="
			M103.15656,99.02102L62.94049,64.85499c0,0-1.85936-1.81231-3.79461-1.24312c-1.93525,0.56919-5.31245,1.59374-5.31245,1.59374
			v53.60567v1.10592l0.78245,0.68464l1.85832,2.93419l0.16842,1.01962c0,0,12.17804,9.82286,13.9588,11.43127"/>
		
			<path style="clip-path:url(#SVGID_00000094617781067366551640000005584099627366825144_);fill:none;stroke:#231F20;stroke-width:0.5;stroke-linecap:round;stroke-linejoin:round;stroke-miterlimit:10;" d="
			M53.72043,65.39845c0,0-2.58611,1.87493-2.1903,6.3665c0.31773,3.60543,0,37.85534,0,37.85534s0.18343,3.90617,2.3033,9.19098"/>
		
			<path style="clip-path:url(#SVGID_00000094617781067366551640000005584099627366825144_);fill:none;stroke:#231F20;stroke-width:0.5;stroke-linecap:round;stroke-linejoin:round;stroke-miterlimit:10;" d="
			M54.20533,65.01054c0,0,2.3275-0.25861,2.42448,0.22628v59.31882"/>
		
			<polyline style="clip-path:url(#SVGID_00000094617781067366551640000005584099627366825144_);fill:none;stroke:#231F20;stroke-width:0.5;stroke-linecap:round;stroke-linejoin:round;stroke-miterlimit:10;" points="
			56.88842,65.56008 57.50262,65.49543 59.57151,67.11175 59.57151,126.78626 		"/>
		
			<polyline style="clip-path:url(#SVGID_00000094617781067366551640000005584099627366825144_);fill:none;stroke:#231F20;stroke-width:0.5;stroke-linecap:round;stroke-linejoin:round;stroke-miterlimit:10;" points="
			59.70082,67.62897 60.41199,67.7906 62.44856,69.53623 62.44856,129.27539 		"/>
		
			<polyline style="clip-path:url(#SVGID_00000094617781067366551640000005584099627366825144_);fill:none;stroke:#231F20;stroke-width:0.5;stroke-linecap:round;stroke-linejoin:round;stroke-miterlimit:10;" points="
			62.61019,70.08578 63.12741,70.08578 65.16398,71.79907 65.16398,131.47359 		"/>
		
			<polyline style="clip-path:url(#SVGID_00000094617781067366551640000005584099627366825144_);fill:none;stroke:#231F20;stroke-width:0.5;stroke-linecap:round;stroke-linejoin:round;stroke-miterlimit:10;" points="
			65.39026,72.41328 66.00446,72.47793 68.04102,74.22356 68.04102,133.63947 		"/>
		
			<polyline style="clip-path:url(#SVGID_00000094617781067366551640000005584099627366825144_);fill:none;stroke:#231F20;stroke-width:0.5;stroke-linecap:round;stroke-linejoin:round;stroke-miterlimit:10;" points="
			68.29999,74.79563 68.7556,74.75421 70.95081,76.53523 70.95081,78.15058 		"/>
		
			<path style="clip-path:url(#SVGID_00000094617781067366551640000005584099627366825144_);fill:none;stroke:#231F20;stroke-width:0.5;stroke-linecap:round;stroke-linejoin:round;stroke-miterlimit:10;" d="
			M68.17574,83.53506c0,0,0.74554-5.01171,4.18333-5.92293c3.43779-0.91122,5.05313,1.0769,5.05313,1.0769l25.58022,22.63015"/>
		
			<path style="clip-path:url(#SVGID_00000094617781067366551640000005584099627366825144_);fill:none;stroke:#231F20;stroke-width:0.5;stroke-linecap:round;stroke-linejoin:round;stroke-miterlimit:10;" d="
			M68.21716,90.5349c0,0-0.99406-10.06484,3.56204-9.65066c0,0,0.99406,0.08284,2.07095,1.03548
			c1.0769,0.95264,28.81395,24.98073,28.81395,24.98073"/>
		
			<path style="clip-path:url(#SVGID_00000094617781067366551640000005584099627366825144_);fill:none;stroke:#231F20;stroke-width:0.5;stroke-linecap:round;stroke-linejoin:round;stroke-miterlimit:10;" d="
			M73.89157,81.79546c0,0,0.28993-2.98218,3.52062-3.10643"/>
		
			<path style="clip-path:url(#SVGID_00000094617781067366551640000005584099627366825144_);fill:none;stroke:#231F20;stroke-width:0.5;stroke-linecap:round;stroke-linejoin:round;stroke-miterlimit:10;" d="
			M68.0398,98.85091l13.56806,11.88562c0,0,3.36488,3.14779,3.14779,10.69163c-0.21709,7.54385,0.16282,27.7331,0.16282,27.7331
			s0.21709,4.12469-2.71362,3.36488l-13.62233-11.55998"/>
		
			<path style="clip-path:url(#SVGID_00000094617781067366551640000005584099627366825144_);fill:none;stroke:#231F20;stroke-width:0.5;stroke-linecap:round;stroke-linejoin:round;stroke-miterlimit:10;" d="
			M71.07905,134.45349c0,0,0.37991,2.00807-0.65126,2.87642c-1.03117,0.86836-2.22517,1.79099-2.06235,5.10159
			s0.81408,9.60619-3.41915,9.87755c0,0-1.35681-0.37991-3.52769-2.38799c-2.17089-2.00807-39.95705-34.56979-39.95705-34.56979
			s-4.91115-4.00168-6.00252-14.6425l0.09095-45.29171c0,0,0.45474-7.91241-1.5461-11.3684"/>
		
			<path style="clip-path:url(#SVGID_00000094617781067366551640000005584099627366825144_);fill:none;stroke:#231F20;stroke-width:0.5;stroke-linecap:round;stroke-linejoin:round;stroke-miterlimit:10;" d="
			M19.52701,43.98355c0,0,1.65348,7.71624,1.19418,11.25285l0.06055,44.72703c0,0-0.91304,2.42097-5.32271,0.74534"/>
		
			<path style="clip-path:url(#SVGID_00000094617781067366551640000005584099627366825144_);fill:none;stroke:#231F20;stroke-width:0.5;stroke-linecap:round;stroke-linejoin:round;stroke-miterlimit:10;" d="
			M15.54998,55.41706c0,0,2.39132,1.82204,5.17121-0.18065"/>
		
			<path style="clip-path:url(#SVGID_00000094617781067366551640000005584099627366825144_);fill:none;stroke:#231F20;stroke-width:0.5;stroke-linecap:round;stroke-linejoin:round;stroke-miterlimit:10;" d="
			M17.99083,101.46622c0,0,1.00186,8.80208,5.86805,13.16734s41.43417,35.85237,41.43417,35.85237s1.07343,1.00186,1.71748,0.85873"
			/>
		
			<line style="clip-path:url(#SVGID_00000094617781067366551640000005584099627366825144_);fill:none;stroke:#231F20;stroke-width:0.5;stroke-linecap:round;stroke-linejoin:round;stroke-miterlimit:10;" x1="62.85996" y1="151.20154" x2="65.29305" y2="150.48593"/>
		
			<path style="clip-path:url(#SVGID_00000094617781067366551640000005584099627366825144_);fill:none;stroke:#231F20;stroke-width:0.5;stroke-linecap:round;stroke-linejoin:round;stroke-miterlimit:10;" d="
			M62.07595,129.09706l-15.90296,4.62102l-0.62446-68.85732c0,0-0.254-10.88663-6.95234-17.52656l-3.70514-3.22638"/>
		
			<path style="clip-path:url(#SVGID_00000094617781067366551640000005584099627366825144_);fill:none;stroke:#231F20;stroke-width:0.5;stroke-linecap:round;stroke-linejoin:round;stroke-miterlimit:10;" d="
			M40.80262,44.06618l2.33132,1.83176c0,0,6.32788,5.32874,7.11887,17.81797l0.97965,24.5809"/>
		
			<line style="clip-path:url(#SVGID_00000094617781067366551640000005584099627366825144_);fill:none;stroke:#231F20;stroke-width:0.5;stroke-linecap:round;stroke-linejoin:round;stroke-miterlimit:10;" x1="45.54853" y1="64.86076" x2="50.25137" y2="63.47985"/>
		
			<line style="clip-path:url(#SVGID_00000094617781067366551640000005584099627366825144_);fill:none;stroke:#231F20;stroke-width:0.5;stroke-linecap:round;stroke-linejoin:round;stroke-miterlimit:10;" x1="38.59618" y1="47.3342" x2="43.13394" y2="45.89794"/>
		
			<line style="clip-path:url(#SVGID_00000094617781067366551640000005584099627366825144_);fill:none;stroke:#231F20;stroke-width:0.5;stroke-linecap:round;stroke-linejoin:round;stroke-miterlimit:10;" x1="58.60574" y1="66.21454" x2="62.94049" y2="64.85499"/>
		
			<polyline style="clip-path:url(#SVGID_00000094617781067366551640000005584099627366825144_);fill:none;stroke:#231F20;stroke-width:0.5;stroke-linecap:round;stroke-linejoin:round;stroke-miterlimit:10;" points="
			71.18018,101.57152 71.18018,104.6153 71.18018,105.96735 69.05984,106.53622 		"/>
		
			<path style="clip-path:url(#SVGID_00000094617781067366551640000005584099627366825144_);fill:none;stroke:#231F20;stroke-width:0.5;stroke-linecap:round;stroke-linejoin:round;stroke-miterlimit:10;" d="
			M71.02579,104.60036c0,0-1.59065-0.07433-2.49551,1.06081c-0.1115,0.13987-0.21257,0.2981-0.29899,0.4771"/>
		
			<path style="clip-path:url(#SVGID_00000094617781067366551640000005584099627366825144_);fill:none;stroke:#231F20;stroke-width:0.5;stroke-linecap:round;stroke-linejoin:round;stroke-miterlimit:10;" d="
			M68.53028,105.66117c0.05517,1.22961,1.93286,2.42762,1.93286,2.42762s1.14406,1.18156,1.14406,3.52594
			s0.03751,21.23067,0.03751,21.23067s0.00732,0.85716-0.29854,1.34436c-0.18352,0.29231-0.47979,0.45145-0.95805,0.21231
			l-1.44414-1.20032l-0.86273-2.23184"/>
		
			<path style="clip-path:url(#SVGID_00000094617781067366551640000005584099627366825144_);fill:none;stroke:#231F20;stroke-width:0.5;stroke-linecap:round;stroke-linejoin:round;stroke-miterlimit:10;" d="
			M71.34134,134.4518l2.20679-0.7356c0,0,0.4904-0.42035,0.4904-1.7164s0-21.26228,0-21.26228s-0.14011-2.20679-1.12091-3.32771
			l-1.73743-1.44247"/>
		
			<line style="clip-path:url(#SVGID_00000094617781067366551640000005584099627366825144_);fill:none;stroke:#231F20;stroke-width:0.5;stroke-linecap:round;stroke-linejoin:round;stroke-miterlimit:10;" x1="71.83173" y1="111.47312" x2="74.03853" y2="110.73753"/>
		
			<path style="clip-path:url(#SVGID_00000094617781067366551640000005584099627366825144_);fill:none;stroke:#231F20;stroke-width:0.5;stroke-linecap:round;stroke-linejoin:round;stroke-miterlimit:10;" d="
			M74.79297,114.06793l-0.04041-1.8996c0,0,0.32333-1.6571,1.29334-0.84876s4.40546,3.88004,4.40546,3.88004
			s1.21251,1.33376,1.1721,3.39503c-0.04042,2.06127,0.04041,19.19811,0.04041,19.19811s0.08083,1.73793-1.21251,1.17209
			l-4.52671-3.79921c0,0-1.25293-1.455-1.25293-3.67795c0-1.26688-0.03938-3.36076-0.07326-4.92754
			c-0.02557-1.1824-0.048-2.06461-0.048-2.06461l6.8709,6.91132"/>
		
			<polyline style="clip-path:url(#SVGID_00000094617781067366551640000005584099627366825144_);fill:none;stroke:#231F20;stroke-width:0.5;stroke-linecap:round;stroke-linejoin:round;stroke-miterlimit:10;" points="
			81.46178,134.23605 78.47092,131.85144 75.39923,128.13307 74.71214,126.23347 		"/>
		
			<path style="clip-path:url(#SVGID_00000094617781067366551640000005584099627366825144_);fill:none;stroke:#231F20;stroke-width:0.5;stroke-linecap:round;stroke-linejoin:round;stroke-miterlimit:10;" d="
			M77.05633,130.3156c0,0-0.40417,2.70793,1.57626,4.44588c1.98044,1.73793,2.86961,2.50586,2.86961,2.50586"/>
		
			<line style="clip-path:url(#SVGID_00000094617781067366551640000005584099627366825144_);fill:none;stroke:#231F20;stroke-width:0.5;stroke-linecap:round;stroke-linejoin:round;stroke-miterlimit:10;" x1="76.20757" y1="135.40814" x2="78.63259" y2="134.76147"/>
		
			<line style="clip-path:url(#SVGID_00000094617781067366551640000005584099627366825144_);fill:none;stroke:#231F20;stroke-width:0.5;stroke-linecap:round;stroke-linejoin:round;stroke-miterlimit:10;" x1="74.67172" y1="131.85144" x2="76.97549" y2="131.20477"/>
		
			<polyline style="clip-path:url(#SVGID_00000094617781067366551640000005584099627366825144_);fill:none;stroke:#231F20;stroke-width:0.5;stroke-linecap:round;stroke-linejoin:round;stroke-miterlimit:10;" points="
			77.61145,112.77396 74.03428,114.57896 80.99171,116.25268 		"/>
		
			<path style="clip-path:url(#SVGID_00000094617781067366551640000005584099627366825144_);fill:none;stroke:#231F20;stroke-width:0.5;stroke-linecap:round;stroke-linejoin:round;stroke-miterlimit:10;" d="
			M81.0228,151.481c0,0,0.36548-1.25887,1.38069-2.47713c1.01522-1.21826,1.38069-2.3553,1.38069-2.3553"/>
		
			<line style="clip-path:url(#SVGID_00000094617781067366551640000005584099627366825144_);fill:none;stroke:#231F20;stroke-width:0.5;stroke-linecap:round;stroke-linejoin:round;stroke-miterlimit:10;" x1="71.27673" y1="136.04973" x2="84.7994" y2="147.62318"/>
		
			<path style="clip-path:url(#SVGID_00000094617781067366551640000005584099627366825144_);fill:none;stroke:#231F20;stroke-width:0.5;stroke-linecap:round;stroke-linejoin:round;stroke-miterlimit:10;" d="
			M70.74883,137.18677l12.66988,10.88312c0,0,0.4873,0.44669,1.46191,0.24364"/>
		
			<path style="clip-path:url(#SVGID_00000094617781067366551640000005584099627366825144_);fill:none;stroke:#231F20;stroke-width:0.5;stroke-linecap:round;stroke-linejoin:round;stroke-miterlimit:10;" d="
			M69.77422,137.75529L82.36288,148.679c0,0,1.13704,2.39592,2.3959,0.20305"/>
	</g>
	<circle class="st4" cx="56.91336" cy="101.20434" r="46.11982"/>
	<g>
		<defs>
			<circle id="SVGID_00000030474343054104706790000001640777557803518652_" cx="289.11014" cy="162.23903" r="49.48563"/>
		</defs>
		<clipPath id="SVGID_00000133509229706849160040000007560075947354534591_">
			<use xlink:href="#SVGID_00000030474343054104706790000001640777557803518652_"  style="overflow:visible;"/>
		</clipPath>
		<path style="clip-path:url(#SVGID_00000133509229706849160040000007560075947354534591_);fill:#D1D3D4;" d="M270.64081,194.49753
			c1.10764,0.33229,2.87985-2.10451,2.87985-2.10451l0.11075-24.70032c0,0-0.33228-1.43994-0.88611-2.32605
			c-0.5538-0.88611-2.10449-0.66458-2.10449-0.66458l-0.11078-2.87985l3.10138-2.10452l-0.44305-17.38991
			c0,0,0.33231-1.43993-2.4368-3.6552c-2.76907-2.21529-6.53506,0.33229-6.53506,0.33229l-11.74095,9.63644l0.20747-2.07175
			l26.30368-21.39364c0,0,1.92892-2.10429,4.20859-1.40286c2.27963,0.70143,3.85785,1.40286,3.85785,1.40286
			s4.5593-1.05215,3.33182,17.0097v25.07617c0,0-0.17535,14.37933-8.94327,20.51685l-10.57935,8.1588L270.64081,194.49753z"/>
		
			<path style="clip-path:url(#SVGID_00000133509229706849160040000007560075947354534591_);fill:none;stroke:#231F20;stroke-width:0.5;stroke-linecap:round;stroke-linejoin:round;stroke-miterlimit:10;" d="
			M252.55946,149.00589l11.91002-10.33855c0,0,6.69937-4.46625,9.0152,4.63167l0.0827,50.61751"/>
		
			<path style="clip-path:url(#SVGID_00000133509229706849160040000007560075947354534591_);fill:none;stroke:#231F20;stroke-width:0.5;stroke-linecap:round;stroke-linejoin:round;stroke-miterlimit:10;" d="
			M252.64218,155.29172l16.04541-13.895c0,0,3.8873-2.81207,4.54895,4.63167"/>
		
			<path style="clip-path:url(#SVGID_00000133509229706849160040000007560075947354534591_);fill:none;stroke:#231F20;stroke-width:0.5;stroke-linecap:round;stroke-linejoin:round;stroke-miterlimit:10;" d="
			M263.7251,139.24631c0,0,3.47375-1.65417,3.97,2.97749"/>
		
			<line style="clip-path:url(#SVGID_00000133509229706849160040000007560075947354534591_);fill:none;stroke:#231F20;stroke-width:0.5;stroke-linecap:round;stroke-linejoin:round;stroke-miterlimit:10;" x1="278.74619" y1="125.14775" x2="283.04047" y2="126.38954"/>
		
			<polyline style="clip-path:url(#SVGID_00000133509229706849160040000007560075947354534591_);fill:none;stroke:#231F20;stroke-width:0.5;stroke-linecap:round;stroke-linejoin:round;stroke-miterlimit:10;" points="
			269.44684,137.7057 270.0162,137.27867 270.87027,137.27867 270.87027,138.43596 		"/>
		
			<polyline style="clip-path:url(#SVGID_00000133509229706849160040000007560075947354534591_);fill:none;stroke:#231F20;stroke-width:0.5;stroke-linecap:round;stroke-linejoin:round;stroke-miterlimit:10;" points="
			270.7001,136.78677 272.91241,134.89624 273.63644,134.85602 273.63644,143.29901 		"/>
		
			<polyline style="clip-path:url(#SVGID_00000133509229706849160040000007560075947354534591_);fill:none;stroke:#231F20;stroke-width:0.5;stroke-linecap:round;stroke-linejoin:round;stroke-miterlimit:10;" points="
			273.61575,134.5983 273.64362,134.2639 275.70566,132.59198 276.52768,132.41086 276.52768,191.86102 		"/>
		
			<polyline style="clip-path:url(#SVGID_00000133509229706849160040000007560075947354534591_);fill:none;stroke:#231F20;stroke-width:0.5;stroke-linecap:round;stroke-linejoin:round;stroke-miterlimit:10;" points="
			276.42221,132.24254 276.42221,131.95659 278.53284,130.1864 279.3226,130.05023 279.3226,189.48158 		"/>
		
			<polyline style="clip-path:url(#SVGID_00000133509229706849160040000007560075947354534591_);fill:none;stroke:#231F20;stroke-width:0.5;stroke-linecap:round;stroke-linejoin:round;stroke-miterlimit:10;" points="
			279.24899,129.80231 279.26953,129.51459 281.34528,127.82934 282.14679,127.70602 282.14679,186.6116 		"/>
		
			<polyline style="clip-path:url(#SVGID_00000133509229706849160040000007560075947354534591_);fill:none;stroke:#231F20;stroke-width:0.5;stroke-linecap:round;stroke-linejoin:round;stroke-miterlimit:10;" points="
			282.04761,127.50056 282.10489,127.15687 284.22427,125.61028 285.00711,125.53391 285.00711,183.84581 		"/>
		
			<path style="clip-path:url(#SVGID_00000133509229706849160040000007560075947354534591_);fill:none;stroke:#231F20;stroke-width:0.5;stroke-linecap:round;stroke-linejoin:round;stroke-miterlimit:10;" d="
			M284.87921,125.37644c0,0,1.40186-0.6218,2.96204-0.07913v54.15108"/>
		
			<path style="clip-path:url(#SVGID_00000133509229706849160040000007560075947354534591_);fill:none;stroke:#231F20;stroke-width:0.5;stroke-linecap:round;stroke-linejoin:round;stroke-miterlimit:10;" d="
			M273.34659,159.44183l-13.25995,11.42041c0,0-3.98563,4.75214-3.21918,11.95695v26.6732c0,0,0.15329,5.3653,3.67908,2.52936
			c3.52576-2.83595,12.80005-11.26714,12.80005-11.26714"/>
		
			<path style="clip-path:url(#SVGID_00000133509229706849160040000007560075947354534591_);fill:none;stroke:#231F20;stroke-width:0.5;stroke-linecap:round;stroke-linejoin:round;stroke-miterlimit:10;" d="
			M257.21317,207.49973l13.07831-11.41757l0.68768-0.11746c7.76703-5.17801,15.53403-12.18356,17.05698-16.6001
			c1.52295-4.41655,2.13211-10.05144,2.13211-10.05144s0.15231-33.50479-0.15228-38.5305
			c-0.3046-5.02572-3.35046-5.93949-3.35046-5.93949s-2.13214-0.45688-3.95966-1.06606
			c-1.82755-0.60918-3.95966,1.37064-3.95966,1.37064l-26.19467,21.47353"/>
		
			<path style="clip-path:url(#SVGID_00000133509229706849160040000007560075947354534591_);fill:none;stroke:#231F20;stroke-width:0.5;stroke-linecap:round;stroke-linejoin:round;stroke-miterlimit:10;" d="
			M271.79303,198.17496l-12.61005,11.01509c0,0-1.98956,2.03728-2.34256-1.69463"/>
		
			<path style="clip-path:url(#SVGID_00000133509229706849160040000007560075947354534591_);fill:none;stroke:#231F20;stroke-width:0.5;stroke-linecap:round;stroke-linejoin:round;stroke-miterlimit:10;" d="
			M258.13617,206.74298c0,0-0.05096,1.3504,1.19751,2.24217s1.37589,2.9301,1.37589,2.9301"/>
		
			<path style="clip-path:url(#SVGID_00000133509229706849160040000007560075947354534591_);fill:none;stroke:#231F20;stroke-width:0.5;stroke-linecap:round;stroke-linejoin:round;stroke-miterlimit:10;" d="
			M274.50238,211.53363c0,0,1.10684-0.23718,2.84619-1.73935c1.73935-1.50215,41.58606-35.97273,41.58606-35.97273
			s4.27905-3.99658,4.74365-12.41257"/>
		
			<path style="clip-path:url(#SVGID_00000133509229706849160040000007560075947354534591_);fill:none;stroke:#231F20;stroke-width:0.5;stroke-linecap:round;stroke-linejoin:round;stroke-miterlimit:10;" d="
			M326.19101,160.60516c0,0-2.81485,1.94199-5.25574-0.4496l0.07397-46.59896c0,0,0.14792-6.2625,1.40536-10.28136"/>
		
			<path style="clip-path:url(#SVGID_00000133509229706849160040000007560075947354534591_);fill:none;stroke:#231F20;stroke-width:0.5;stroke-linecap:round;stroke-linejoin:round;stroke-miterlimit:10;" d="
			M321.02255,115.05046c0,0,2.04935,2.26693,5.12155,0.34824"/>
		
			<path style="clip-path:url(#SVGID_00000133509229706849160040000007560075947354534591_);fill:none;stroke:#231F20;stroke-width:0.5;stroke-linecap:round;stroke-linejoin:round;stroke-miterlimit:10;" d="
			M302.25754,103.4472c0,0-9.80478,4.11167-10.71408,20.55836l-1.24481,24.42135"/>
		
			<path style="clip-path:url(#SVGID_00000133509229706849160040000007560075947354534591_);fill:none;stroke:#231F20;stroke-width:0.5;stroke-linecap:round;stroke-linejoin:round;stroke-miterlimit:10;" d="
			M308.3598,103.26896c0,0-4.03195,2.52668-7.14996,6.39733c-3.11804,3.87066-5.37592,13.06346-4.83832,15.6439l-0.69888,68.59661
			l-15.80515-4.56953"/>
		
			<line style="clip-path:url(#SVGID_00000133509229706849160040000007560075947354534591_);fill:none;stroke:#231F20;stroke-width:0.5;stroke-linecap:round;stroke-linejoin:round;stroke-miterlimit:10;" x1="298.60571" y1="106.18071" x2="303.07822" y2="107.40048"/>
		
			<line style="clip-path:url(#SVGID_00000133509229706849160040000007560075947354534591_);fill:none;stroke:#231F20;stroke-width:0.5;stroke-linecap:round;stroke-linejoin:round;stroke-miterlimit:10;" x1="291.54346" y1="124.00556" x2="296.37152" y2="125.31019"/>
		
			<path style="clip-path:url(#SVGID_00000133509229706849160040000007560075947354534591_);fill:none;stroke:#231F20;stroke-width:0.5;stroke-linecap:round;stroke-linejoin:round;stroke-miterlimit:10;" d="
			M270.45978,161.70137v4.52867l-1.29391,1.17628c0,0-1.41153,1.35272-1.35272,3.64645l0.05881,21.52589
			c0,0-0.23526,1.35272,0.88223,1.58797c1.11746,0.23526,1.89224,0.44826,1.89224,0.44826v1.3504
			c0,0-0.20383,0.99368,0.71344,1.52875c0.91724,0.53506,2.11475,2.14026,2.01285,3.71996v6.16595c0,0,0,5.29967,3.49063,4.99393
			c0,0,0.99368-0.1274,2.54791-1.52875c1.55423-1.40137,40.84311-35.39056,40.84311-35.39056s5.67651-4.51443,5.93665-14.70148
			l-0.04691-45.35439c0,0,0.17767-9.73663,1.84781-11.97534"/>
		
			<path style="clip-path:url(#SVGID_00000133509229706849160040000007560075947354534591_);fill:none;stroke:#231F20;stroke-width:0.5;stroke-linecap:round;stroke-linejoin:round;stroke-miterlimit:10;" d="
			M270.61154,164.73349c0,0,2.45831-0.07893,2.86429,1.68024"/>
		
			<path style="clip-path:url(#SVGID_00000133509229706849160040000007560075947354534591_);fill:none;stroke:#231F20;stroke-width:0.5;stroke-linecap:round;stroke-linejoin:round;stroke-miterlimit:10;" d="
			M273.13751,165.91754c0,0,0.16916,0.57512-0.76682,1.3645c0,0-2.15726,1.26439-2.20032,4.19215
			c-0.04303,2.92775-0.04303,21.74294-0.04303,21.74294s0.25833,2.10971,1.50693,1.11945
			c1.2486-0.99028,1.78693-1.34915,1.91608-2.5547"/>
		
			<line style="clip-path:url(#SVGID_00000133509229706849160040000007560075947354534591_);fill:none;stroke:#231F20;stroke-width:0.5;stroke-linecap:round;stroke-linejoin:round;stroke-miterlimit:10;" x1="267.81314" y1="171.05278" x2="270.03577" y2="171.71404"/>
		
			<polyline style="clip-path:url(#SVGID_00000133509229706849160040000007560075947354534591_);fill:none;stroke:#231F20;stroke-width:0.5;stroke-linecap:round;stroke-linejoin:round;stroke-miterlimit:10;" points="
			264.22852,173.00044 266.965,174.29666 267.72021,174.6544 		"/>
		
			<path style="clip-path:url(#SVGID_00000133509229706849160040000007560075947354534591_);fill:none;stroke:#231F20;stroke-width:0.5;stroke-linecap:round;stroke-linejoin:round;stroke-miterlimit:10;" d="
			M266.965,174.29666l0.05688-1.84753c0,0,0.07352-1.65396-1.32318-0.91887l-4.37378,3.82248c0,0-1.1394,1.32317-1.1394,3.23442
			c0,1.91124,0,18.85513,0,18.85513s-0.14703,2.83011,1.50693,1.47018s4.26355-3.67548,4.26355-3.67548
			s1.10263-1.43343,1.10263-4.043c0-2.60959-0.07352-4.26355-0.07352-4.26355l0.80862-1.24965"/>
		
			<line style="clip-path:url(#SVGID_00000133509229706849160040000007560075947354534591_);fill:none;stroke:#231F20;stroke-width:0.5;stroke-linecap:round;stroke-linejoin:round;stroke-miterlimit:10;" x1="267.68347" y1="184.21062" x2="260.22226" y2="191.74532"/>
		
			<polyline style="clip-path:url(#SVGID_00000133509229706849160040000007560075947354534591_);fill:none;stroke:#231F20;stroke-width:0.5;stroke-linecap:round;stroke-linejoin:round;stroke-miterlimit:10;" points="
			260.22226,194.31815 263.12589,192.03935 266.91162,187.22449 		"/>
		
			<path style="clip-path:url(#SVGID_00000133509229706849160040000007560075947354534591_);fill:none;stroke:#231F20;stroke-width:0.5;stroke-linecap:round;stroke-linejoin:round;stroke-miterlimit:10;" d="
			M260.18552,197.44229l3.08737-2.68309c0,0,1.69073-1.43344,1.32318-4.59433"/>
		
			<line style="clip-path:url(#SVGID_00000133509229706849160040000007560075947354534591_);fill:none;stroke:#231F20;stroke-width:0.5;stroke-linecap:round;stroke-linejoin:round;stroke-miterlimit:10;" x1="260.70007" y1="176.34512" x2="267.72021" y2="175.02196"/>
		
			<line style="clip-path:url(#SVGID_00000133509229706849160040000007560075947354534591_);fill:none;stroke:#231F20;stroke-width:0.5;stroke-linecap:round;stroke-linejoin:round;stroke-miterlimit:10;" x1="263.27289" y1="194.7592" x2="265.58844" y2="195.38402"/>
	</g>
	<circle class="st4" cx="289.11014" cy="162.23903" r="49.48563"/>
</g>
<g id="Number_and_Arrows">
	<g>
		<g>
			<g>
				<polygon class="st7" points="189.43265,76.95374 176.28635,86.51955 180.62061,87.32272 173.94792,106.53484 
					183.73679,108.34955 190.40936,89.13791 194.74483,89.94229 				"/>
			</g>
			<g>
				<path class="st7" d="M174.28809,19.99802c0,0-4.99355,8.27736-5.99466,19.10689
					c-0.91275,9.8544,3.61046,19.08754,3.61046,19.08754l19.49164,4.18541c0,0-4.93307-10.16195-4.0164-20.01038
					c1.00107-10.82932,6.59369-18.50065,6.59369-18.50065l8.97581,1.94506l-9.30951-18.5179l-29.03664,10.56007L174.28809,19.99802z
					"/>
			</g>
		</g>
		<g id="LINE_1_">
			<g id="XMLID_1_">
				<g>
					<polygon class="st8" points="62.67729,94.45088 33.45033,88.91273 35.40955,94.07796 6.18259,99.62167 10.10104,109.95213 
						39.328,104.41399 41.28166,109.57922 					"/>
				</g>
				<g>
					<line class="st9" x1="10.10104" y1="109.95213" x2="6.18259" y2="99.62167"/>
					<line class="st9" x1="33.45033" y1="88.91273" x2="62.67729" y2="94.45088"/>
					<line class="st9" x1="41.28166" y1="109.57922" x2="39.328" y2="104.41399"/>
					<line class="st9" x1="35.40955" y1="94.07796" x2="33.45033" y2="88.91273"/>
					<line class="st9" x1="6.18259" y1="99.62167" x2="35.40955" y2="94.07796"/>
					<line class="st9" x1="39.328" y1="104.41399" x2="10.10104" y2="109.95213"/>
					<line class="st9" x1="62.67729" y1="94.45088" x2="41.28166" y2="109.57922"/>
				</g>
			</g>
		</g>
		<g id="LINE_3_">
			<g id="XMLID_2_">
				<g>
					<polygon class="st8" points="281.01694,158.2258 311.49667,152.45026 309.45349,157.8369 339.93323,163.61824 
						335.84683,174.39149 305.36707,168.61597 303.32965,174.00259 					"/>
				</g>
				<g>
					<line class="st10" x1="335.84683" y1="174.39149" x2="339.93323" y2="163.61824"/>
					<line class="st10" x1="311.49667" y1="152.45026" x2="281.01694" y2="158.2258"/>
					<line class="st10" x1="303.32965" y1="174.00259" x2="305.36707" y2="168.61597"/>
					<line class="st10" x1="309.45349" y1="157.8369" x2="311.49667" y2="152.45026"/>
					<line class="st10" x1="339.93323" y1="163.61824" x2="309.45349" y2="157.8369"/>
					<line class="st10" x1="305.36707" y1="168.61597" x2="335.84683" y2="174.39149"/>
					<line class="st10" x1="281.01694" y1="158.2258" x2="303.32965" y2="174.00259"/>
				</g>
			</g>
		</g>
	</g>
	<g>
		<g>
			<path class="st11" d="M235.76219,16.68452c0,7.59303-6.24554,13.7452-13.94989,13.7452
				c-7.70702,0-13.95256-6.15217-13.95256-13.7452c0-7.59569,6.24554-13.75471,13.95256-13.75471
				C229.51665,2.92981,235.76219,9.08883,235.76219,16.68452"/>
		</g>
		<g>
			<path class="st12" d="M216.87598,19.75764l1.8457-0.24609c0.21191,1.0459,0.57227,1.79932,1.08203,2.26123
				c0.50879,0.46094,1.12988,0.69189,1.86133,0.69189c0.86816,0,1.60059-0.30078,2.19922-0.90234
				c0.59766-0.60156,0.89746-1.34668,0.89746-2.23535c0-0.84766-0.27734-1.54639-0.83105-2.09717
				c-0.55371-0.5498-1.25781-0.8252-2.1123-0.8252c-0.34863,0-0.78223,0.06836-1.30176,0.20508l0.20508-1.62012
				c0.12305,0.01367,0.22168,0.02051,0.29688,0.02051c0.78613,0,1.49414-0.20508,2.12305-0.61523s0.94336-1.04248,0.94336-1.89697
				c0-0.67676-0.22949-1.2373-0.6875-1.68164s-1.04883-0.6665-1.77344-0.6665c-0.71777,0-1.31641,0.22559-1.79492,0.67676
				s-0.78613,1.12793-0.92285,2.03027l-1.8457-0.32812c0.22559-1.2373,0.73828-2.1958,1.53809-2.87598
				s1.79492-1.02051,2.98438-1.02051c0.82031,0,1.5752,0.17627,2.26562,0.52832s1.21875,0.83203,1.58398,1.44043
				c0.36621,0.6084,0.54883,1.25439,0.54883,1.93799c0,0.64941-0.17383,1.24072-0.52246,1.77393s-0.86523,0.95703-1.54883,1.27148
				c0.88867,0.20508,1.5791,0.63086,2.07129,1.27637c0.49219,0.64648,0.73828,1.45459,0.73828,2.42529
				c0,1.3125-0.47852,2.42529-1.43555,3.3374c-0.95703,0.91309-2.16699,1.36914-3.62988,1.36914
				c-1.31934,0-2.41504-0.39307-3.28613-1.1792C217.49609,22.02717,216.99902,21.00862,216.87598,19.75764z"/>
		</g>
	</g>
	<g>
		<g>
			<path class="st11" d="M173.08145,101.95587c0,7.59303-6.24556,13.7452-13.94991,13.7452
				c-7.70702,0-13.95256-6.15218-13.95256-13.7452c0-7.5957,6.24554-13.75471,13.95256-13.75471
				C166.83589,88.20116,173.08145,94.36018,173.08145,101.95587"/>
		</g>
		<g>
			<path class="st12" d="M164.07666,106.62337v1.77393h-9.93604c-0.01367-0.44434,0.05811-0.87158,0.21533-1.28174
				c0.25293-0.67676,0.65771-1.34326,1.21533-1.99951c0.55664-0.65625,1.36182-1.41504,2.41455-2.27637
				c1.63379-1.33984,2.73779-2.40088,3.31201-3.18359s0.86133-1.52295,0.86133-2.22021c0-0.73145-0.26172-1.34814-0.78418-1.85107
				c-0.52344-0.50195-1.20508-0.75342-2.0459-0.75342c-0.88867,0-1.59961,0.2666-2.13281,0.7998s-0.80322,1.27148-0.81006,2.21484
				l-1.89697-0.19482c0.12988-1.41504,0.61865-2.49316,1.46631-3.23535c0.84766-0.74121,1.98584-1.1123,3.41455-1.1123
				c1.44238,0,2.58398,0.3999,3.4248,1.19971s1.26123,1.79102,1.26123,2.97363c0,0.60156-0.12305,1.19287-0.36914,1.77393
				s-0.65479,1.19287-1.2251,1.83545c-0.57129,0.64258-1.51953,1.52441-2.8457,2.64551
				c-1.10742,0.92969-1.81836,1.56055-2.13281,1.89209s-0.57422,0.66455-0.7793,0.99951H164.07666z"/>
		</g>
	</g>
	<g>
		<g>
			<path class="st11" d="M334.22626,124.79223c0,7.59303-6.24554,13.7452-13.94989,13.7452
				c-7.707,0-13.95255-6.15218-13.95255-13.7452c0-7.5957,6.24554-13.75471,13.95255-13.75471
				C327.98071,111.03751,334.22626,117.19653,334.22626,124.79223"/>
		</g>
		<g>
			<path class="st12" d="M321.87305,131.83382h-1.8457v-11.76123c-0.44434,0.42383-1.02734,0.84766-1.74805,1.27148
				c-0.72168,0.42383-1.36914,0.7417-1.94336,0.95361v-1.78418c1.03223-0.48535,1.93457-1.07324,2.70703-1.76367
				s1.31934-1.36035,1.64062-2.00977h1.18945V131.83382z"/>
		</g>
	</g>
	<g>
		<g>
			<path class="st11" d="M40.68891,68.26983c0,7.59303-6.24555,13.7452-13.94989,13.7452
				c-7.70701,0-13.95256-6.15218-13.95256-13.7452c0-7.5957,6.24555-13.75472,13.95256-13.75472
				C34.44336,54.51511,40.68891,60.67413,40.68891,68.26983"/>
		</g>
		<g>
			<path class="st12" d="M28.33594,75.31136h-1.8457V63.55012c-0.44434,0.42383-1.02734,0.84766-1.74854,1.27149
				s-1.36865,0.7417-1.94287,0.95361v-1.78418c1.03223-0.48535,1.93457-1.07324,2.70703-1.76367s1.31934-1.36035,1.64062-2.00977
				h1.18945V75.31136z"/>
		</g>
	</g>
	<polyline class="st4" points="273.43582,115.23433 248.61325,94.78694 261.40308,121.04324 	"/>
</g>
</svg>
