<?xml version="1.0" encoding="utf-8"?>
<!-- Generator: Adobe Illustrator 26.0.3, SVG Export Plug-In . SVG Version: 6.00 Build 0)  -->
<svg version="1.1" id="Layer_2" xmlns="http://www.w3.org/2000/svg" xmlns:xlink="http://www.w3.org/1999/xlink" x="0px" y="0px"
	 viewBox="0 0 333 252" style="enable-background:new 0 0 333 252;" xml:space="preserve">
<style type="text/css">
	.st0{fill:#D1D2D3;}
	.st1{fill:none;stroke:#221F1F;stroke-width:0.5;stroke-linecap:round;stroke-linejoin:round;stroke-miterlimit:10;}
	.st2{fill:#FFFFFF;stroke:#221F1F;stroke-width:0.5;stroke-linecap:round;stroke-linejoin:round;stroke-miterlimit:10;}
	.st3{fill:none;stroke:#221F1F;stroke-width:0.5;stroke-miterlimit:10;}
	.st4{fill:#2D2A26;stroke:#FFFFFF;stroke-width:0.75;stroke-miterlimit:10;}
	.st5{fill:#2D2A26;stroke:#FFFFFF;stroke-width:0.5;stroke-miterlimit:10;}
	.st6{fill:none;stroke:#FFFFFF;stroke-width:3;stroke-linecap:round;stroke-linejoin:round;stroke-miterlimit:10;}
	
		.st7{fill:none;stroke:#221F1F;stroke-width:0.6164;stroke-linecap:round;stroke-linejoin:round;stroke-miterlimit:10;stroke-dasharray:2.0546;}
	
		.st8{fill:none;stroke:#FFFFFF;stroke-width:2;stroke-linecap:round;stroke-linejoin:round;stroke-miterlimit:10;stroke-dasharray:2.0546;}
	.st9{fill:#221F1F;stroke:#FFFFFF;stroke-width:1.5;stroke-miterlimit:10;}
	.st10{fill:#FFFFFF;}
	.st11{fill:#221F1F;}
	.st12{fill:none;stroke:#FFFFFF;stroke-width:2;stroke-linecap:round;stroke-linejoin:round;stroke-miterlimit:10;}
</style>
<g>
	<path class="st0" d="M138.103,196.984l-21.653-4.537c0,0-1.832-1.089-2.476,0.842l-1.882,5.15c0,0-0.495,0.99-1.387,0.792
		c0,0-1.684-0.743-2.03,0.297l-4.903,13.519c0,0,0.099,0.693,0.743,0.743c0,0,0.198,0.198,0,0.941s-1.337,4.407-1.337,4.407
		l25.156,5.299l0.05-0.792L138.103,196.984z"/>
	<path class="st0" d="M102.103,221.868l-0.621,1.967l0.052,0.673l2.536,0.569l-0.414,1.035l18.943,4.192
		c0,0,1.087-0.673,1.501-0.414l-0.052-3.468L102.103,221.868z"/>
	<g>
		<ellipse class="st0" cx="278.701" cy="152.27" rx="3.08" ry="2.299"/>
		<path class="st0" d="M275.493,152.135v3.693c0,1.27,1.379,2.299,3.08,2.299s3.08-1.029,3.08-2.299v-3.77"/>
	</g>
	<g>
		<ellipse class="st0" cx="287.762" cy="99.537" rx="11.833" ry="8.654"/>
		<path class="st0" d="M276.08,99.026v13.901c0,4.78,5.298,8.654,11.833,8.654c6.535,0,11.833-3.875,11.833-8.654V98.739"/>
	</g>
	<g>
		<ellipse class="st0" cx="274.956" cy="200.578" rx="3.08" ry="2.299"/>
		<path class="st0" d="M271.748,200.442v3.693c0,1.27,1.379,2.299,3.08,2.299s3.08-1.029,3.08-2.299v-3.77"/>
	</g>
	<g>
		<ellipse class="st0" cx="226.11" cy="202.106" rx="3.08" ry="2.299"/>
		<path class="st0" d="M222.903,201.97v3.693c0,1.27,1.379,2.299,3.08,2.299c1.701,0,3.08-1.029,3.08-2.299v-3.77"/>
	</g>
	<line class="st0" x1="281.857" y1="155.799" x2="281.857" y2="151.982"/>
	<g>
		<polyline class="st1" points="70.234,88.831 56.997,86.129 56.191,87.43 53.875,86.976 53.103,87.203 		"/>
		<line class="st1" x1="94.642" y1="93.814" x2="75.783" y2="89.964"/>
		<line class="st1" x1="100.731" y1="95.057" x2="97.582" y2="94.415"/>
		<line class="st1" x1="126.68" y1="100.355" x2="102.018" y2="95.32"/>
		<line class="st1" x1="153.191" y1="105.767" x2="128.64" y2="100.755"/>
		<line class="st1" x1="161.855" y1="107.536" x2="154.589" y2="106.053"/>
		<polyline class="st1" points="165.074,117.444 166.006,109.865 166.893,108.565 164.63,108.103 		"/>
		<polyline class="st1" points="50.965,91.082 50.325,92.041 37.562,126.547 37.58,128.919 37.612,130.897 37.47,131.485 
			34.285,140.276 34.09,135.285 		"/>
		<polyline class="st1" points="37.594,125.262 37.951,122.136 50.996,88.277 		"/>
		<path class="st1" d="M50.965,91.082"/>
		<path class="st1" d="M34.645,140.445"/>
		<line class="st1" x1="32.179" y1="142.03" x2="33.882" y2="142.322"/>
		<polyline class="st1" points="36.62,161.489 36.328,159.351 41.132,146.937 148.348,168.857 128.466,223.732 128.466,226.161 		
			"/>
		<path class="st1" d="M173.115,119.313l0.069-3.071c0,0-0.365-0.706-1.037-0.537l-0.227-9.387l-2.22,5.63l-0.051,1.108
			l-12.112,32.779c0,0-1.06,2.952-0.984,5.602c0.076,2.65,0.64,3.201,0.111,4.337c-0.53,1.136-3.448,8.337-3.448,8.337l-0.228-3.795
			c0,0-0.116-0.218-0.303-0.327c-0.264-0.155-0.668-0.092-1.08,1.115l-3.112,7.929"/>
		<polyline class="st1" points="172.976,116.497 170.833,122.042 170.782,120.113 171.488,118.235 171.505,117.494 172.229,115.668 
					"/>
		<polyline class="st1" points="169.723,111.302 168.899,111.147 167.831,113.662 167.541,115.469 		"/>
		<line class="st1" x1="168.526" y1="115.798" x2="167.505" y2="115.542"/>
		<line class="st1" x1="130.391" y1="235.154" x2="173.055" y2="119.072"/>
		<polygon class="st1" points="129.237,229.9 129.905,227.519 129.905,226.474 127.023,225.848 122.887,234.328 122.511,241.304 
			125.979,242.098 127.148,239.884 127.315,235.289 128.652,231.821 		"/>
		<line class="st1" x1="123.551" y1="236.026" x2="125.748" y2="236.463"/>
		<line class="st1" x1="123.52" y1="236.79" x2="125.717" y2="237.226"/>
		<line class="st1" x1="123.489" y1="237.553" x2="125.685" y2="237.989"/>
		<line class="st1" x1="123.458" y1="238.316" x2="125.654" y2="238.752"/>
		<line class="st1" x1="123.427" y1="239.079" x2="125.623" y2="239.516"/>
		<line class="st1" x1="123.396" y1="239.843" x2="125.592" y2="240.279"/>
		<line class="st1" x1="123.364" y1="240.606" x2="125.561" y2="241.042"/>
		<path class="st1" d="M129.237,229.9c0,0,0.796-0.051,0.884,1.379s0.286,6.382,0.286,6.382l-2.223,5.854l-1.959-0.418l-0.022-1.276
			"/>
		<g>
			<g id="SPLINE_18_">
				<path class="st1" d="M74.784,174.224c-0.232,0.062-0.473,0.097-0.714,0.104c-0.241,0.007-0.484-0.013-0.719-0.061
					c-0.294-0.06-0.582-0.165-0.841-0.318c-0.121-0.072-0.236-0.154-0.342-0.247c-0.1-0.088-0.192-0.186-0.271-0.293
					c-0.076-0.102-0.14-0.212-0.19-0.329c-0.048-0.112-0.083-0.231-0.102-0.351c-0.019-0.119-0.022-0.241-0.009-0.361
					c0.013-0.122,0.041-0.241,0.083-0.356c0.044-0.119,0.103-0.232,0.173-0.338c0.074-0.111,0.16-0.213,0.256-0.306
					c0.101-0.098,0.211-0.186,0.329-0.263c0.123-0.081,0.254-0.151,0.389-0.21c0.284-0.124,0.588-0.2,0.898-0.231
					c0.314-0.031,0.633-0.016,0.941,0.047c0.208,0.043,0.413,0.107,0.607,0.196c0.183,0.083,0.356,0.188,0.512,0.315
					c0.145,0.118,0.275,0.255,0.379,0.41c0.098,0.145,0.173,0.305,0.217,0.474c0.043,0.163,0.056,0.335,0.039,0.503
					c-0.018,0.171-0.067,0.339-0.142,0.494c-0.079,0.165-0.187,0.315-0.312,0.448c-0.135,0.143-0.292,0.266-0.459,0.368
					c-0.044,0.027-0.088,0.052-0.134,0.076c-0.041,0.022-0.083,0.043-0.126,0.062c-0.13,0.06-0.265,0.11-0.403,0.15
					C74.823,174.213,74.803,174.219,74.784,174.224z"/>
			</g>
			<g id="SPLINE_17_">
				<path class="st1" d="M69.557,175.931c0.325-0.271,0.717-0.448,0.818-0.499c0.1-0.05,0.204-0.093,0.311-0.128
					c0.372-0.115,0.761-0.182,1.152-0.201c0.392-0.019,0.787,0.01,1.171,0.089c0.37,0.076,0.731,0.197,1.068,0.369
					c0.313,0.16,0.605,0.364,0.853,0.611c0.068,0.071,0.131,0.148,0.188,0.229c0.059,0.085,0.111,0.175,0.156,0.268
					c0.018,0.038,0.031,0.079,0.036,0.121c0.006,0.043,0.005,0.088,0.001,0.131v2.112"/>
			</g>
			<path class="st1" d="M74.736,169.034c0.025-0.059,0.047-0.119,0.067-0.18c0.024-0.072,0.045-0.145,0.064-0.219
				c0.041-0.158,0.06-0.228,0.099-0.391c0,0,0.2,0.043,0.237,0.051l3.178,0.65c0.089,0.018,0.176,0.045,0.26,0.081
				c0.079,0.034,0.156,0.076,0.225,0.127c0.066,0.047,0.126,0.102,0.177,0.165c0.048,0.059,0.127,0.189,0.127,0.189l-3.35,9.075
				c-0.039,0.106-0.108,0.201-0.19,0.28c-0.048,0.046-0.1,0.087-0.155,0.122c-0.06,0.039-0.123,0.072-0.188,0.1
				c-0.14,0.06-0.291,0.097-0.444,0.112c-0.156,0.015-0.315,0.007-0.467-0.024l-0.296-0.075l-4.666-1.143l0.001,0l-0.025-0.009
				l-0.038-0.035l-0.024-0.053l-0.015-0.077l-0.006-0.069v0l0.045-1.812"/>
			<g id="LINE_4_">
				<path class="st1" d="M78.257,171.829l-0.063-1.184l-0.045-0.304l0,0.001l-0.008-0.037l-0.056-0.117l-0.098-0.097l-0.131-0.068
					L77.773,170l-5.726-1.171c-0.028-0.006-0.056,0.01-0.065,0.036l0,0l-2.59,6.981"/>
			</g>
		</g>
		<g>
			<g id="SPLINE_16_">
				<path class="st1" d="M38.488,166.83c-0.232,0.062-0.473,0.097-0.714,0.104c-0.241,0.007-0.484-0.013-0.719-0.061
					c-0.294-0.06-0.582-0.165-0.841-0.318c-0.121-0.072-0.236-0.154-0.342-0.247c-0.1-0.088-0.192-0.186-0.271-0.293
					c-0.076-0.102-0.14-0.212-0.19-0.329c-0.048-0.112-0.083-0.231-0.102-0.351c-0.019-0.119-0.022-0.241-0.009-0.361
					c0.013-0.122,0.041-0.241,0.083-0.356c0.044-0.119,0.103-0.232,0.173-0.338c0.074-0.111,0.16-0.213,0.256-0.306
					c0.101-0.098,0.211-0.186,0.329-0.263c0.123-0.081,0.254-0.151,0.389-0.21c0.284-0.124,0.588-0.2,0.898-0.231
					c0.314-0.031,0.633-0.016,0.941,0.047c0.208,0.043,0.413,0.107,0.607,0.196c0.183,0.083,0.356,0.188,0.512,0.315
					c0.145,0.118,0.275,0.255,0.379,0.41c0.098,0.145,0.173,0.305,0.217,0.474c0.043,0.163,0.056,0.335,0.039,0.503
					c-0.018,0.171-0.067,0.339-0.142,0.494c-0.079,0.165-0.187,0.315-0.312,0.448c-0.135,0.143-0.292,0.266-0.459,0.368
					c-0.044,0.027-0.088,0.052-0.134,0.076c-0.041,0.022-0.083,0.043-0.126,0.062c-0.13,0.06-0.265,0.11-0.403,0.15
					C38.527,166.819,38.508,166.825,38.488,166.83z"/>
			</g>
			<g id="SPLINE_15_">
				<path class="st1" d="M33.261,168.537c0.325-0.271,0.717-0.448,0.818-0.499c0.1-0.05,0.204-0.093,0.311-0.128
					c0.372-0.115,0.761-0.182,1.152-0.201c0.392-0.019,0.787,0.01,1.171,0.089c0.37,0.076,0.731,0.197,1.068,0.369
					c0.313,0.16,0.605,0.364,0.853,0.611c0.068,0.071,0.131,0.148,0.188,0.229c0.059,0.085,0.111,0.175,0.156,0.268
					c0.018,0.038,0.031,0.079,0.036,0.121c0.006,0.043,0.005,0.088,0.001,0.131v2.112"/>
			</g>
			<path class="st1" d="M38.44,161.64c0.025-0.059,0.047-0.119,0.067-0.18c0.024-0.072,0.045-0.145,0.064-0.219
				c0.041-0.158,0.06-0.228,0.099-0.391c0,0,0.2,0.043,0.237,0.051l3.178,0.65c0.089,0.018,0.176,0.045,0.26,0.081
				c0.079,0.034,0.156,0.076,0.225,0.127c0.066,0.047,0.126,0.102,0.177,0.165c0.048,0.059,0.127,0.189,0.127,0.189l-3.35,9.075
				c-0.039,0.106-0.108,0.201-0.19,0.28c-0.048,0.046-0.1,0.087-0.155,0.122c-0.06,0.039-0.123,0.072-0.188,0.1
				c-0.14,0.06-0.291,0.097-0.444,0.112c-0.156,0.015-0.315,0.007-0.467-0.024l-0.296-0.075l-4.666-1.143l0.001,0l-0.025-0.009
				l-0.038-0.035l-0.024-0.053l-0.015-0.077l-0.006-0.069l0,0l0.045-1.812"/>
			<g id="LINE_2_">
				<path class="st1" d="M41.961,164.435l-0.063-1.184l-0.045-0.304l0,0.001l-0.008-0.037l-0.056-0.117l-0.098-0.097l-0.131-0.068
					l-0.084-0.024l-5.726-1.171c-0.028-0.006-0.056,0.01-0.065,0.036l0,0l-2.59,6.981l-11.228,30.386l-2.41-0.511
					c0,0-0.887-0.114-1.288,0.859"/>
			</g>
		</g>
		<polyline class="st1" points="77.683,154.521 73.181,166.967 73.289,169.143 		"/>
		<path class="st1" d="M56.157,203.3c0,0,2.72-7.615,3.209-8.648c0.49-1.033-0.326-1.74-0.326-1.74l-2.589-2.138l2.07-5.91
			c0,0,1.329-0.589,3.402-0.818c1.86-0.205,2.012-1.469,2.012-1.469l10.28-28.8l0.402,9.217"/>
		<polygon class="st1" points="49.954,150.611 61.554,153.014 57.112,164.98 45.669,162.524 		"/>
		<polyline class="st1" points="91.618,213.469 95.535,214.245 103.21,192.617 104.219,191.271 108.639,179.246 108.639,177.695 
			114.48,162.177 		"/>
		<path class="st1" d="M92.343,213.649l-1.219,3.454c0,0-1.164,2.108,2.065,3.016"/>
		<line class="st1" x1="126.529" y1="226.837" x2="10.345" y2="203.056"/>
		<path class="st1" d="M111.263,170.819l-0.305-8.822l-3.192-0.658c0,0-0.721-0.219-1.159,0.94
			c-0.439,1.159-1.015,2.838-1.015,2.838s-0.533,1.065,0.345,2.225c0,0,0.971,1.003,0.564,2.131
			c-0.407,1.128-0.627,1.379-0.627,1.379s-0.313,0.815,1.065,1.128l-6.611,18.236c0,0-0.282,0.846-1.943,1.097
			c-1.661,0.251-2.413,0.501-2.413,0.501s-0.595,0-1.159,1.253c-0.564,1.253-1.598,4.167-1.598,4.167s-0.564,0.94,0.313,1.661
			c0.877,0.721,2.099,1.535,2.099,1.535s0.815,0.533,0.219,1.849c-0.595,1.316-1.911,4.857-1.911,4.857s-1.039-0.279-1.48,0.294
			c-0.441,0.573-0.617,1.763-0.617,1.763s-0.265,0.838,0.97,1.234l-2.601,6.304c0,0-1.146,2.381-4.232,1.719"/>
		<path class="st1" d="M9.828,201.844l-0.066-2.59l11.821-31.478l1.063-0.398l1.395-3.652l0.996,0.199l2.191-6.043l-1.992-0.398
			l7.882-21.727l0.698,0.161l0.204-0.487l0.958-2.286c0,0,0.886-0.994,0.929,0.951l0.089,1.399"/>
		<path class="st1" d="M22.542,167.728l-2.404,6.485l-0.056,4.976l6.933,1.454l0.224-0.503c0,0,1.156-0.093,1.707-0.699
			l-5.406-0.858l0.036-1.854l4.435,0.654"/>
		<line class="st1" x1="12.784" y1="197.643" x2="20.087" y2="177.606"/>
		<path class="st1" d="M18.24,198.877l-6.235-1.299c0,0-0.909,1.429,0.162,1.721s4.838,1.007,4.838,1.007
			S17.882,200.76,18.24,198.877z"/>
		<path class="st1" d="M10.523,202.123l-0.881,2.569l-0.073,2.569l-1.395,3.45l-0.037,4.734l-1.064,2.312l-3.707-0.734l0.697-7.193
			l2.312-4.477l1.692-3.821l7.584,1.631c0,0,0.973,0.401,1.316-0.658c0.343-1.059,1.202-3.32,1.202-3.32"/>
		<polyline class="st1" points="8.385,210.592 9.693,210.904 11.459,207.148 		"/>
		<polyline class="st1" points="9.63,207.542 9.693,219.152 7.669,218.81 7.607,216.756 		"/>
		<polyline class="st1" points="9.845,218.948 11.459,214.492 11.505,203.306 		"/>
		<polyline class="st1" points="11.668,206.776 52.887,215.356 54.016,216.022 54.145,223.912 		"/>
		<path class="st1" d="M17.255,201.681c0,0-0.441,2.325,2.365,3.247"/>
		<path class="st1" d="M48.65,210.814c4.672,0.501,5.478-3.142,5.478-3.142l1.669-4.728l0.834,0.25v0.695l-0.6,1.382l0.073,0.757"/>
		<path class="st1" d="M56.514,212.507c0,0-3.081-0.998-2.163-3.445l1.029-2.336c0,0,0.222-0.89,1.418-0.612
			c1.196,0.278,1.724,0.473,1.724,0.473l10.806-28.731"/>
		<polyline class="st1" points="66.801,174.351 66.984,177.286 71.982,164.538 72.12,162.612 73.45,159.31 72.341,159.086 		"/>
		<line class="st1" x1="69.418" y1="167.23" x2="69.566" y2="170.491"/>
		<polyline class="st1" points="73.558,165.869 73.376,162.045 73.662,161.525 73.45,159.31 		"/>
		<polyline class="st1" points="110.035,173.624 109.872,164.991 111.18,161.335 		"/>
		<line class="st1" x1="108.425" y1="164.494" x2="109.774" y2="164.761"/>
		<g id="SPLINE_14_">
			<path class="st1" d="M106.663,167.15l-0.404-0.946c-0.013-0.03-0.02-0.063-0.021-0.096c-0.001-0.033,0.005-0.066,0.016-0.097
				l0.794-2.152c0.016-0.044,0.044-0.083,0.077-0.116c0.037-0.037,0.082-0.065,0.129-0.085c0.051-0.022,0.106-0.036,0.162-0.042
				c0.057-0.006,0.114-0.003,0.17,0.008l0.553,0.113c0.041,0.008,0.081,0.022,0.119,0.04c0.035,0.017,0.069,0.039,0.098,0.065
				c0.027,0.024,0.05,0.053,0.068,0.085c0.016,0.03,0.027,0.063,0.031,0.096c0.004,0.03,0.002,0.061-0.005,0.091
				c-0.002,0.01-0.005,0.02-0.009,0.03l-0.292,0.791c-0.002,0.006-0.003,0.013-0.002,0.02c0.001,0.007,0.004,0.013,0.008,0.019
				c0.009,0.013,0.025,0.02,0.04,0.023l0.055,0.011c0.044,0.009,0.088,0.025,0.127,0.048c0.036,0.021,0.068,0.048,0.092,0.081
				c0.022,0.03,0.038,0.065,0.044,0.102c0.006,0.036,0.001,0.074-0.011,0.108l-0.682,1.847c-0.016,0.044-0.044,0.083-0.077,0.116
				c-0.037,0.037-0.082,0.065-0.129,0.085c-0.051,0.022-0.106,0.036-0.162,0.042c-0.057,0.006-0.114,0.003-0.17-0.008l-0.322-0.066
				c-0.065-0.013-0.129-0.039-0.184-0.078C106.727,167.25,106.686,167.204,106.663,167.15"/>
		</g>
		<ellipse class="st1" cx="108.355" cy="162.626" rx="0.84" ry="0.504"/>
		<g id="SPLINE_13_">
			<path class="st1" d="M47.533,202.784c0.173-0.091,0.335-0.21,0.469-0.353c0.063-0.067,0.119-0.139,0.168-0.217
				c0.047-0.074,0.086-0.153,0.117-0.235l9.376-25.401c0.033-0.089,0.055-0.183,0.065-0.278c0.01-0.094,0.007-0.188-0.007-0.281
				c-0.015-0.094-0.042-0.187-0.079-0.274c-0.039-0.091-0.089-0.177-0.148-0.256c-0.062-0.084-0.134-0.16-0.212-0.229
				c-0.082-0.073-0.172-0.137-0.267-0.192c-0.202-0.119-0.427-0.201-0.656-0.248l-14.747-3.016c-0.24-0.049-0.489-0.061-0.734-0.037
				c-0.241,0.024-0.479,0.084-0.7,0.18c-0.106,0.046-0.207,0.101-0.304,0.164c-0.092,0.06-0.178,0.129-0.256,0.205
				c-0.074,0.073-0.142,0.152-0.199,0.239c-0.055,0.082-0.101,0.171-0.135,0.263l-9.376,25.401
				c-0.027,0.073-0.047,0.149-0.058,0.226c-0.011,0.076-0.015,0.153-0.011,0.229c0.005,0.077,0.017,0.153,0.038,0.227
				c0.021,0.076,0.049,0.149,0.085,0.219c0.075,0.148,0.179,0.28,0.301,0.393c0.133,0.123,0.287,0.222,0.449,0.299
				c0.039,0.018,0.079,0.036,0.119,0.052c0.123,0.049,0.252,0.087,0.382,0.114l14.747,3.016c0.267,0.055,0.544,0.064,0.816,0.027
				C47.039,202.986,47.299,202.908,47.533,202.784"/>
		</g>
		<g id="SPLINE_10_">
			<path class="st1" d="M84.293,210.343c0.173-0.091,0.335-0.21,0.469-0.353c0.063-0.067,0.119-0.139,0.168-0.217
				c0.047-0.074,0.086-0.153,0.117-0.235l9.376-25.401c0.033-0.089,0.055-0.183,0.065-0.278c0.01-0.094,0.007-0.188-0.007-0.281
				c-0.015-0.094-0.042-0.187-0.079-0.274c-0.039-0.091-0.089-0.177-0.148-0.256c-0.062-0.084-0.134-0.16-0.212-0.229
				c-0.082-0.073-0.172-0.137-0.267-0.192c-0.202-0.119-0.427-0.201-0.656-0.248l-14.747-3.016c-0.24-0.049-0.489-0.061-0.734-0.037
				c-0.241,0.024-0.479,0.084-0.7,0.18c-0.106,0.046-0.207,0.101-0.304,0.164c-0.092,0.06-0.178,0.129-0.256,0.205
				c-0.074,0.073-0.142,0.152-0.199,0.239c-0.055,0.082-0.101,0.171-0.135,0.263l-9.376,25.401
				c-0.027,0.073-0.047,0.149-0.058,0.226c-0.011,0.076-0.015,0.153-0.011,0.229c0.005,0.077,0.017,0.153,0.038,0.227
				c0.021,0.076,0.049,0.149,0.085,0.219c0.075,0.148,0.179,0.28,0.301,0.393c0.133,0.123,0.287,0.222,0.449,0.299
				c0.039,0.018,0.079,0.036,0.119,0.052c0.123,0.049,0.252,0.087,0.382,0.114l14.747,3.016c0.267,0.055,0.544,0.063,0.816,0.027
				C83.8,210.546,84.059,210.467,84.293,210.343"/>
		</g>
		<path class="st1" d="M95.273,220.479l0.139,4.004c0,0,0.173,1.299,1.515,1.688l25.251,5.278c0,0,1.574,0.44,2.139-0.193
			l-0.216-4.891"/>
		<path class="st1" d="M95.869,220.536l0.143,3.848c0,0,1.14,0.057,0.998,0.57s-0.314,0.998-0.314,0.998l-0.029,1.226l25.884,5.302
			l0.2-1.34c0,0,0.029-1.34,1.397-1.112"/>
		<path class="st1" d="M59.157,213.159l0.103,3.776c0,0,1.098,0.069,0.995,0.652c-0.103,0.584-0.309,0.892-0.309,0.892l0.034,1.167
			l25.847,5.286l0.103-1.304c0,0,0-1.407,1.545-1.064"/>
		<path class="st1" d="M87.304,218.857l0.103,2.918c0,0,0.618,2.609-1.476,1.854"/>
		<path class="st1" d="M58.402,213.056v3.741c0,0-0.24,1.064,1.545,1.682"/>
		<path class="st1" d="M11.267,215.072c0,0-0.58,1.625,1.48,2.031s8.53,1.712,8.53,1.712s0.928,0.609,1.596-1.625l-0.087-8.036"/>
		<polyline class="st1" points="22.737,209.966 29.604,211.393 29.659,217.046 		"/>
		<line class="st1" x1="23.046" y1="217.206" x2="27.955" y2="218.219"/>
		<line class="st1" x1="22.995" y1="216.382" x2="28.302" y2="217.464"/>
		<polyline class="st1" points="29.651,217.026 30.808,217.271 31.034,215.016 31.24,214.217 31.6,214.295 31.678,217.129 
			31.365,217.746 31.417,218.933 31.078,219.897 29.775,219.611 		"/>
		<path class="st1" d="M29.711,220.131l-0.08-3.126l-1.03-0.207l-1.598,4.09l0.139,2.967c0,0,0.697,0.657,1.055,0.1L29.711,220.131z
			"/>
		<path class="st1" d="M28.601,216.798l-0.137-3.854c0,0-0.068-0.707-0.775-0.798s-2.304-0.479-2.304-0.479l-1.551,0.798
			l0.068,2.668l1.414,1.574"/>
		<polyline class="st1" points="43.237,220.122 42.655,220.925 42.572,222.255 33.649,220.399 33.677,218.875 34.037,218.126 		"/>
		<path class="st1" d="M32.956,211.338l0.194,6.65l-0.471,0.72l-0.055,1.635c0,0,0.194,0.942,1.136,1.108
			c0.942,0.166,8.978,1.773,8.978,1.773s1.053,0.111,1.469-1.635l-0.083-6.484l1.053-1.385"/>
		<line class="st1" x1="33.815" y1="219.429" x2="42.544" y2="221.147"/>
		<line class="st1" x1="31.417" y1="218.933" x2="32.549" y2="219.154"/>
		<polyline class="st1" points="44.556,214.477 50.916,215.737 50.957,221.096 52.177,221.264 52.435,218.98 52.872,218.504 
			52.911,221.443 52.693,222.158 52.702,223.567 122.538,238.053 		"/>
		<line class="st1" x1="44.201" y1="220.708" x2="49.604" y2="221.791"/>
		<line class="st1" x1="44.211" y1="221.565" x2="49.302" y2="222.583"/>
		<path class="st1" d="M47.077,221.112l-1.885-1.621l-0.057-2.677l1.508-0.792c0,0,1.49,0.377,2.244,0.434
			c0.754,0.057,0.886,0.716,0.886,0.716l0.113,3.978l-1.602,4.106l0.139,3.058c0.894,0.516,1.112,0,1.112,0l1.509-3.912
			l-0.118-3.276c0,0-0.22-0.02-0.895-0.1"/>
		<polyline class="st1" points="51.005,223.984 52.296,224.243 52.653,223.329 		"/>
		<g>
			<polygon class="st1" points="69.529,224.019 77.421,225.714 77.512,227.854 69.62,226.159 			"/>
			<line class="st1" x1="73.46" y1="225.062" x2="73.521" y2="226.866"/>
		</g>
		<g>
			<polygon class="st1" points="78.815,226.006 89.284,228.21 89.375,230.289 78.907,228.085 			"/>
			<line class="st1" x1="84.145" y1="227.235" x2="84.206" y2="228.987"/>
		</g>
		<polygon class="st1" points="91.055,225.593 94.551,226.292 94.646,228.294 91.055,227.595 		"/>
		<polygon class="st1" points="91.055,228.399 94.551,229.098 94.646,231.1 91.055,230.401 		"/>
		<path class="st1" d="M20.218,174.053l3.01,0.719l3.545,0.498l0.002,0.93c0.477,0.079,1.51,1.152,1.51,1.152l0.926-2.222"/>
		<path class="st1" d="M26.974,174.927l4.212-10.531c0,0-0.556-2.623,1.868-4.53l-0.079-0.795l2.861-7.272l-5.444-1.152l1.391-3.537
			l1.113,0.199l0.358-0.119l3.656,0.755l-1.351,3.576"/>
		<polyline class="st1" points="27.721,150.644 28.629,150.826 29.102,150.099 31.065,144.9 37.463,145.9 38.918,146.373 
			39.027,147.645 38.518,147.427 36.908,147.945 		"/>
		<path class="st1" d="M35.646,152.044c0,0,2.29,0.727,2.218,3.272"/>
		<path class="st1" d="M36.773,148.263c0,0,2.363,1.091,2.545,3.345"/>
		<polyline class="st1" points="37.463,153.789 34.919,160.987 34.446,160.842 31.683,168.585 31.719,169.603 29.393,175.529 		"/>
		<path class="st1" d="M27.357,173.711c0,0,2.363,0.909,2.363,3.381"/>
		<polyline class="st1" points="25.235,157.483 25.334,159.078 23.797,163.297 24.04,163.726 		"/>
		<polyline class="st1" points="21.582,167.777 23.013,164.171 23.767,164.232 		"/>
		<polyline class="st1" points="34.063,143.589 31.902,143.214 31.939,142.065 32.617,140.028 34.813,140.408 		"/>
		<path class="st1" d="M39.989,144.858l-0.001,0.145l0.192,1.655c0,0-0.114,0.739-1.108,0.71l0.057-0.426l0.811-1.962"/>
		<polyline class="st1" points="37.731,147.762 38.302,148.397 39.309,148.649 39.318,149.296 38.948,150.136 		"/>
		<line class="st1" x1="4.667" y1="211.68" x2="6.654" y2="212.086"/>
		<line class="st1" x1="4.667" y1="212.48" x2="6.654" y2="212.886"/>
		<line class="st1" x1="4.608" y1="213.221" x2="6.596" y2="213.628"/>
		<line class="st1" x1="4.55" y1="213.963" x2="6.537" y2="214.369"/>
		<line class="st1" x1="4.472" y1="214.724" x2="6.459" y2="215.13"/>
		<line class="st1" x1="4.394" y1="215.446" x2="6.381" y2="215.852"/>
		<line class="st1" x1="4.335" y1="216.168" x2="6.323" y2="216.575"/>
		<path class="st1" d="M19.889,209.693c-3.205-2.08-5.851-0.754-5.851-0.754l1.88,1.159c0,0,2.402-0.448,3.377,1.414l0.834-1.132
			L19.889,209.693z"/>
		<path class="st1" d="M13.448,213.083l-0.661-0.504c-0.464-2.46,0.856-3.051,0.856-3.051l1.501,0.898c0,0-1.455,0.276-1.137,1.631
			C14.007,212.057,13.429,212.507,13.448,213.083z"/>
		<polyline class="st1" points="12.475,213.419 12.399,214.695 12.341,216.116 21.305,217.973 21.334,215.382 21.965,214.577 		"/>
		<path class="st1" d="M19.838,215.047c0,0-2.459,0.952-5.662-1.06c0,0-0.3-0.486,0.343-1.341c0,0,1.2,1.347,3.129,1.371
			C17.648,214.017,18.154,214.721,19.838,215.047z"/>
		<line class="st1" x1="12.4" y1="214.918" x2="21.119" y2="216.771"/>
		<path class="st1" d="M18.661,213.794c0,0,1.14-0.136,1.08-1.596l0.658-0.764l0.338-0.533c0,0,0.871,1.91-0.232,3.504
			C20.505,214.405,19.088,214.269,18.661,213.794z"/>
		<g>
			<path class="st1" d="M41.446,214.341c-3.072-1.994-5.608-0.722-5.608-0.722l1.802,1.111c0,0,2.303-0.429,3.237,1.356l0.8-1.086
				L41.446,214.341z"/>
			<path class="st1" d="M35.272,217.591l-0.633-0.483c-0.445-2.358,0.82-2.925,0.82-2.925l1.439,0.861c0,0-1.395,0.265-1.09,1.563
				C35.807,216.607,35.253,217.039,35.272,217.591z"/>
			<path class="st1" d="M41.397,219.474c0,0-2.357,0.912-5.428-1.016c0,0-0.288-0.466,0.329-1.286c0,0,1.15,1.291,3,1.314
				C39.297,218.487,39.783,219.161,41.397,219.474z"/>
			<path class="st1" d="M40.269,218.272c0,0,1.092-0.13,1.035-1.53l0.631-0.732l0.324-0.511c0,0,0.835,1.831-0.222,3.359
				C42.036,218.858,40.678,218.728,40.269,218.272z"/>
		</g>
		<path class="st1" d="M21.71,205.4c0,0-0.274,1.503,1.248,1.741"/>
		<path class="st1" d="M50.552,211.3c0,0,0.402,1.566-1.365,1.265"/>
		<polyline class="st1" points="49.528,211.019 49.026,212.385 49.006,213.73 22.923,208.329 22.963,207.164 23.562,205.794 		"/>
		<polygon class="st1" points="99.524,229.192 101.139,229.538 101.209,232.008 99.562,231.653 		"/>
		<g>
			<polygon class="st1" points="105.265,231.788 109.163,232.591 113.106,233.403 113.106,235.175 105.265,233.559 			"/>
			<line class="st1" x1="109.198" y1="234.315" x2="109.163" y2="232.591"/>
		</g>
		<g>
			<polygon class="st1" points="114.184,233.606 118.082,234.409 122.025,235.221 122.025,236.992 114.184,235.377 			"/>
			<line class="st1" x1="118.117" y1="236.133" x2="118.082" y2="234.409"/>
		</g>
		<g id="SPLINE_4_">
			<path class="st1" d="M96.145,230.706c0.001-0.01,0.003-0.021,0.007-0.031c0.003-0.008,0.007-0.017,0.012-0.024
				c0.011-0.016,0.025-0.029,0.041-0.039c0.044-0.027,0.099-0.035,0.151-0.032c0.02,0.001,0.04,0.004,0.06,0.008l1.802,0.369
				c0.054,0.011,0.107,0.032,0.154,0.063c0.042,0.027,0.08,0.061,0.104,0.104c0.013,0.023,0.022,0.049,0.023,0.076l0.004,0.168
				l-0.006,0.034c-0.007,0.018-0.02,0.034-0.036,0.046c-0.006,0.004-0.012,0.008-0.019,0.011l-0.207,0.102
				c-0.027,0.013-0.057,0.019-0.087,0.019c-0.011,0-0.022,0-0.034-0.001c-0.012-0.001-0.025-0.003-0.037-0.005l-1.492-0.305
				c-0.012-0.003-0.025-0.006-0.037-0.01c-0.03-0.01-0.06-0.023-0.086-0.041c-0.013-0.008-0.025-0.017-0.036-0.027l-0.213-0.188
				c-0.013-0.011-0.025-0.024-0.035-0.038c-0.009-0.012-0.017-0.026-0.022-0.04c-0.005-0.013-0.008-0.026-0.008-0.039l-0.004-0.168
				L96.145,230.706z"/>
		</g>
		<polyline class="st1" points="165.165,115.69 164.052,116.075 57.468,94.355 		"/>
		<polyline class="st1" points="73.957,90.216 71.092,90.903 71.092,91.705 67.998,94.685 68.17,91.763 71.321,87.695 74.3,86.778 
					"/>
		<path class="st1" d="M98.768,85.079L97.219,96.87l-3.25,4.081c0,0-0.794,0.529-0.68-0.68c0.113-1.209,0.491-3.779,0.491-3.779
			l4.497-11.413H98.768z"/>
		<path class="st1" d="M77.437,77.965l-0.815,1.086l-2.127,6.924l-0.679,5.249c0,0,0.226,0.679,0.86-0.045
			c0.634-0.724,4.525-5.657,4.525-5.657l8.221-64.189l-0.532-0.887l-2.041,2.751l-0.266,3.372l-3.017,4.792l-1.154,10.916
			l1.952-2.13l-2.683,20.533h0.74l-0.542,4.439l-0.888,0.444L77.437,77.965z"/>
		<polygon class="st1" points="101.118,96.08 104.118,92.639 104.471,89.197 103.677,87.785 101.559,85.138 101.206,82.932 
			102.265,75.342 102.618,66.694 99.441,87.344 101.03,92.639 		"/>
		<polygon class="st1" points="127.189,96.313 126.554,102.895 131.709,96.868 140.037,33.181 136.944,43.016 136.151,50.233 
			135.596,51.106 134.802,56.895 134.274,57.673 132.264,75.692 131.63,76.406 130.044,89.016 129.489,89.809 		"/>
		<polyline class="st1" points="126.365,102.073 125.433,103.538 125.255,106.555 128.45,103.316 128.64,100.755 		"/>
		<polyline class="st1" points="154.444,90.742 153.913,94.121 154.377,96.175 155.901,97.832 		"/>
		<polyline class="st1" points="156.829,91.206 155.437,103.265 156.66,101.792 158.022,100.151 158.154,98.759 157.624,97.302 
			157.955,96.639 157.237,94.244 157.568,91.328 		"/>
		<polyline class="st1" points="156.643,103.243 153.475,106.922 153.628,103.549 151.993,98.133 152.759,93.841 153.066,93.125 
			157.971,55.773 156.03,57.919 156.694,51.429 158.074,49.539 159.198,40.29 162.008,36.611 87.423,21.334 		"/>
		<path class="st1" d="M179.285,40.128L163.05,36.79l-0.051,0.961l-3.035,9.458l-0.708,7.182l-0.556,2.175l12.846,2.681
			c0,0,2.377-1.315,0-4.248l-9.963-2.023l0.506-0.759l1.72-12.644l1.696-2.136"/>
		<line class="st1" x1="177.557" y1="62.036" x2="171.92" y2="106.318"/>
		<path class="st1" d="M171.92,106.318"/>
		<polyline class="st1" points="168.909,114.804 166.849,107.62 169.578,85.324 170.177,84.526 171.907,71.947 171.441,71.614 
			174.347,49.926 174.865,49.953 176.993,43.761 180.484,39.042 179.118,49.775 176.687,52.871 175.179,64.553 178.119,60.453 
			179.279,50.124 		"/>
		<polyline class="st1" points="173.811,39.16 172.027,41.474 170.507,54.494 		"/>
		<polyline class="st1" points="174.57,39.407 174.476,40.438 171.851,49.389 172.695,49.522 172.086,51.498 171.547,54.997 		"/>
		<line class="st1" x1="157.399" y1="61.939" x2="172.245" y2="65.149"/>
		<line class="st1" x1="156.115" y1="72.612" x2="171.202" y2="75.662"/>
		<polyline class="st1" points="168.432,93.489 165.309,92.845 153.506,90.412 		"/>
		<polyline class="st1" points="165.309,92.845 163.859,104.84 166.395,102.303 166.561,100.848 165.522,96.566 165.896,93.032 		
			"/>
		<polyline class="st1" points="158.329,99.227 164.191,100.474 160.74,111.326 160.449,114.735 164.358,110.245 165.272,103.468 		
			"/>
		<line class="st1" x1="131.819" y1="96.411" x2="152.644" y2="100.633"/>
		<line class="st1" x1="132.821" y1="89.04" x2="153.066" y2="93.125"/>
		<line class="st1" x1="133.68" y1="81.526" x2="153.789" y2="85.82"/>
		<line class="st1" x1="134.897" y1="73.225" x2="155.077" y2="77.519"/>
		<line class="st1" x1="135.97" y1="64.924" x2="156.15" y2="69.218"/>
		<line class="st1" x1="136.972" y1="56.265" x2="157.367" y2="60.702"/>
		<line class="st1" x1="138.188" y1="47.606" x2="156.694" y2="51.429"/>
		<polyline class="st1" points="119.44,27.953 117.616,30.385 115.995,43.828 131.937,47.273 133.153,46.53 133.829,41.396 
			136.598,32.479 136.666,31.533 		"/>
		<line class="st1" x1="140.037" y1="33.181" x2="136.598" y2="32.479"/>
		<polyline class="st1" points="118.427,28.899 109.712,27.075 106.875,36.6 105.888,44.498 102.754,69.565 		"/>
		<line class="st1" x1="135.585" y1="50.515" x2="105.888" y2="44.498"/>
		<line class="st1" x1="105.051" y1="51.191" x2="134.234" y2="57.203"/>
		<line class="st1" x1="133.086" y1="67.877" x2="103.632" y2="61.797"/>
		<line class="st1" x1="102.265" y1="75.342" x2="130.631" y2="81.416"/>
		<line class="st1" x1="85.549" y1="37.136" x2="105.986" y2="41.344"/>
		<line class="st1" x1="84.547" y1="45.651" x2="104.884" y2="49.959"/>
		<line class="st1" x1="83.345" y1="54.067" x2="103.982" y2="58.475"/>
		<line class="st1" x1="81.842" y1="62.482" x2="102.618" y2="66.694"/>
		<line class="st1" x1="81.234" y1="70.94" x2="101.203" y2="75.075"/>
		<line class="st1" x1="80.254" y1="78.013" x2="100.17" y2="82.312"/>
		<line class="st1" x1="98.202" y1="89.857" x2="99.952" y2="90.256"/>
		<line class="st1" x1="79.202" y1="85.523" x2="96.389" y2="89.444"/>
		<line class="st1" x1="101.584" y1="83.509" x2="110.345" y2="85.305"/>
		<line class="st1" x1="112.029" y1="89.67" x2="126.343" y2="92.596"/>
		<line class="st1" x1="104.251" y1="88.08" x2="109.802" y2="89.215"/>
		<polyline class="st1" points="128.274,92.338 127.615,88.878 128.054,83.934 127.285,84.758 125.857,97.062 127.12,95.854 		"/>
		<polyline class="st1" points="110.751,81.792 109.323,93.492 111.905,90.855 111.521,88.163 111.96,87.614 111.026,84.483 
			111.356,81.627 110.422,81.297 111.081,80.528 114.212,81.187 114.651,80.638 116.849,81.133 116.849,81.737 122.342,82.835 
			122.671,82.341 124.868,82.78 124.758,83.44 127.56,84.044 		"/>
		<line class="st1" x1="77.378" y1="74.923" x2="64.005" y2="72.045"/>
		<line class="st1" x1="79.699" y1="57.186" x2="56.484" y2="52.45"/>
		<line class="st1" x1="81.278" y1="46.507" x2="57.969" y2="41.771"/>
		<line class="st1" x1="80.906" y1="36.757" x2="58.898" y2="32.485"/>
		<polyline class="st1" points="60.291,25.892 59.455,28.77 54.812,66.194 		"/>
		<path class="st1" d="M63.779,74.724l0.942-5.654c0,0,1.068-0.942-1.194-1.382c-2.262-0.44-8.105-1.508-8.105-1.508
			s-1.445-0.126-1.571,1.257s-0.434,3.773-0.434,3.773l0.129,0.027l9.715,2.016l0.65,1.95l13.525,2.763"/>
		<polyline class="st1" points="53.548,71.235 55.298,78.242 54.355,83.959 53.036,86.912 52.345,91.561 51.591,91.499 		"/>
		<path class="st1" d="M36.402,145.749l13.2-36.122l1.061,0.088l3.803-10.436l-0.973-0.442l0.884-2.476l2.476,0.442
			c0,0,0.177-2.034,0.884-2.83l-1.519-0.344l-1.299,1.263l-3.141-0.565l-0.503-0.754l0.377-3.016l-1.948-7.288l7.162-53.528
			l4.021-5.529l2.262,0.377l1.131-1.319l5.026,1.068"/>
		<path class="st1" d="M73.096,16.944l0.085,2.394l-2.735,9.061l-0.94,1.111c0,0-0.769-0.085-0.513-1.881
			c0.256-1.795,0.855-6.497,0.855-6.497L73.096,16.944z"/>
		<line class="st1" x1="178.605" y1="38.712" x2="180.012" y2="39.007"/>
		<line class="st1" x1="152.907" y1="33.413" x2="175.755" y2="38.129"/>
		<line class="st1" x1="141.889" y1="31.153" x2="148.57" y2="32.518"/>
		<line class="st1" x1="116.153" y1="25.828" x2="138.772" y2="30.496"/>
		<line class="st1" x1="73.105" y1="16.943" x2="111.759" y2="24.921"/>
		<polyline class="st1" points="60.889,24.212 61.114,22.017 61.888,21.656 62.249,19.285 62.867,18.975 64.156,19.181 
			64.465,21.501 64.282,23.269 		"/>
		<polygon class="st1" points="101.221,22.481 102.304,21.656 103.747,21.965 104.572,23.048 104.366,24.027 101.118,23.306 		"/>
		<polygon class="st1" points="112.717,23.821 115.758,24.491 116.119,25.677 115.655,26.347 111.892,25.574 111.892,25.007 		"/>
		<polygon class="st1" points="139.027,30.286 140.126,29.507 141.135,29.644 141.822,30.561 141.668,31.571 138.957,31.019 		"/>
		<polygon class="st1" points="148.71,32.53 149.611,31.413 152.459,32.025 152.855,33.071 152.531,34.008 148.818,33.251 		"/>
		<polygon class="st1" points="175.794,38.606 175.948,37.73 176.978,37.009 178.008,37.189 178.652,38.142 178.446,39.172 		"/>
		<line class="st1" x1="55.298" y1="78.242" x2="75.514" y2="82.259"/>
		<path class="st1" d="M54.831,82.36l2.129,0.406c0,0,0.912,0,0.71,1.115c-0.203,1.115-1.45,9.747-1.45,9.747"/>
		<polyline class="st1" points="45.12,130.917 43.594,130.656 37.908,146.061 		"/>
		<polyline class="st1" points="43.968,147.439 49.826,131.723 47.577,131.337 		"/>
		<path class="st1" d="M45.334,128.803"/>
		<polyline class="st1" points="58.866,94.915 57.846,97.819 57.859,101.045 66.926,102.823 68.298,98.626 68.545,96.647 		"/>
		<polyline class="st1" points="58.169,97.819 66.724,99.635 67.894,96.568 		"/>
		<line class="st1" x1="66.926" y1="102.823" x2="66.724" y2="99.635"/>
		<line class="st1" x1="147.915" y1="114.082" x2="167.608" y2="118.157"/>
		<line class="st1" x1="90.039" y1="102.317" x2="114.059" y2="107.191"/>
		<path class="st1" d="M68.459,98.909c0,0,0.847,0.565,1.009-0.767l10.876,2.207"/>
		<polyline class="st1" points="138.674,110.934 137.948,112.508 138.106,115.471 146.422,117.229 		"/>
		<polyline class="st1" points="147.027,112.548 146.261,114.283 146.422,117.229 148.238,112.831 		"/>
		<line class="st1" x1="137.948" y1="112.508" x2="146.261" y2="114.283"/>
		<polyline class="st1" points="114.573,106.018 113.432,109.22 116.266,109.772 117.48,106.644 		"/>
		<polyline class="st1" points="113.443,109.281 113.432,112.227 116.266,112.779 116.255,109.771 		"/>
		<line class="st1" x1="118.239" y1="108.04" x2="138.069" y2="112.064"/>
		<path class="st1" d="M118.621,106.901"/>
		<line class="st1" x1="116.255" y1="112.811" x2="118.412" y2="106.993"/>
		<polyline class="st1" points="80.779,99.118 80.245,100.585 80.106,100.968 80.039,104.636 88.417,106.319 90.504,101.069 		"/>
		<polyline class="st1" points="89.124,100.8 88.451,102.415 80.375,100.733 		"/>
		<line class="st1" x1="88.552" y1="105.847" x2="88.451" y2="102.415"/>
		<polyline class="st1" points="143.151,161.614 142.447,163.071 142.397,163.926 141.895,165.534 142.799,165.735 142.665,166.359 
					"/>
		<polyline class="st1" points="145.473,166.972 145.315,166.237 144.58,166.027 145.105,164.504 145.053,163.559 145.788,162.456 
			145.635,159.024 155.832,132.458 156.216,132.319 156.629,131.96 158.708,132.387 158.766,133.52 		"/>
		<polyline class="st1" points="162.044,133.073 159.779,132.607 159.073,133.26 158.128,133.995 158.023,134.993 158.128,138.038 
			149.148,162.928 148.361,162.666 147.626,164.084 147.678,164.924 147.1,166.552 147.993,166.762 148.151,167.549 		"/>
		<polyline class="st1" points="142.665,166.359 144.671,166.792 144.898,166.241 		"/>
		<polyline class="st1" points="145.577,167.003 147.406,167.385 147.58,166.743 		"/>
		<line class="st1" x1="148.886" y1="167.707" x2="148.229" y2="167.564"/>
		<polyline class="st1" points="151.514,130.974 151.265,131.283 150.508,131.69 140.567,158.851 140.558,161.41 139.863,162.591 
			139.909,163.472 139.353,165.048 140.187,165.28 140.186,165.885 141.984,166.246 142.227,165.625 		"/>
		<polyline class="st1" points="150.591,130.719 149.187,130.43 148.527,131.063 147.874,133.525 148.125,136.188 138.829,160.911 
			137.975,160.659 137.272,162.066 137.322,162.82 136.769,164.529 137.674,164.73 137.674,165.282 139.376,165.697 139.66,165.139 
					"/>
		<polyline class="st1" points="153.653,132.79 153.502,131.317 151.384,130.882 		"/>
		<polyline class="st1" points="59.637,112.024 124.572,125.371 124.505,126.657 123.742,126.865 123.672,127.837 123.881,130.129 
					"/>
		<polyline class="st1" points="156.183,131.814 154.506,131.49 154.208,132.031 153.829,132.41 153.18,134.33 152.991,136.711 
			143.468,161.411 		"/>
		<path class="st1" d="M152.684,159.988l0.91-2.329c0,0,0.645-1.176,0.835,0.228s0.228,2.58,0.228,2.58"/>
		<line class="st1" x1="154.456" y1="158.411" x2="156.564" y2="153.074"/>
		<polygon class="st1" points="121.328,129.657 125.233,130.485 126.416,127.35 139.844,130.13 138.78,133.207 142.625,134.035 
			140.199,140.838 136.295,139.891 135.171,142.968 139.135,143.796 136.65,150.54 132.568,149.652 131.385,152.906 
			118.015,150.126 119.199,146.99 115.117,146.221 117.838,139.418 121.624,140.187 122.748,137.17 118.725,136.342 		"/>
		<line class="st1" x1="139.844" y1="130.13" x2="139.987" y2="133.392"/>
		<line class="st1" x1="142.625" y1="134.035" x2="142.903" y2="143.944"/>
		<polyline class="st1" points="140.199,140.838 140.473,150.054 139.363,149.846 		"/>
		<line class="st1" x1="139.135" y1="143.796" x2="139.363" y2="153.247"/>
		<polyline class="st1" points="132.568,149.652 132.975,159.218 136.863,159.982 136.65,150.54 		"/>
		<polyline class="st1" points="131.385,152.906 131.726,162.342 132.975,159.218 		"/>
		<polyline class="st1" points="118.015,150.126 118.257,159.635 114.23,158.732 115.411,155.539 115.117,146.221 		"/>
		<line class="st1" x1="118.141" y1="156.099" x2="115.411" y2="155.539"/>
		<polyline class="st1" points="131.726,162.342 135.679,163.088 136.863,159.982 		"/>
		<polyline class="st1" points="142.909,140.576 143.685,140.731 143.944,141.61 135.77,164.114 114.269,159.638 114.23,158.732 		
			"/>
		<line class="st1" x1="158.128" y1="138.038" x2="160.159" y2="138.408"/>
		<polyline class="st1" points="86.749,155.037 85.054,154.669 84.907,153.932 84.06,153.748 84.723,152.091 84.649,151.207 
			85.349,149.844 86.233,150.028 95.551,124.872 95.478,122.478 96.14,120.453 96.803,119.753 		"/>
		<polyline class="st1" points="91.826,156.053 90.132,155.684 89.984,154.948 89.137,154.764 89.8,153.106 89.727,152.222 
			90.426,150.859 91.31,151.044 100.629,125.888 100.555,123.494 101.218,121.468 101.881,120.768 		"/>
		<polyline class="st1" points="97.212,157.076 95.518,156.708 95.37,155.971 94.523,155.787 95.186,154.13 95.113,153.246 
			95.812,151.883 96.696,152.067 105.618,126.912 105.544,124.518 106.207,122.492 106.87,121.792 		"/>
		<polyline class="st1" points="94.557,156.658 92.863,156.289 92.715,155.553 91.868,155.369 92.427,153.92 92.342,152.902 
			93.063,151.883 93.232,148.585 103.329,121.052 		"/>
		<polyline class="st1" points="99.773,157.636 98.079,157.268 97.932,156.531 97.085,156.347 97.644,154.898 97.559,153.88 
			98.28,152.862 98.449,149.563 108.469,122.163 		"/>
		<polyline class="st1" points="102.429,158.185 100.734,157.817 100.587,157.08 99.74,156.896 100.403,155.238 100.329,154.355 
			101.029,152.992 101.913,153.176 110.835,128.02 110.761,125.626 111.424,123.6 112.087,122.901 		"/>
		<polyline class="st1" points="104.99,158.744 103.296,158.376 103.149,157.639 102.301,157.455 102.86,156.006 102.775,154.988 
			103.497,153.97 103.666,150.671 113.762,123.138 		"/>
		<polyline class="st1" points="107.45,159.359 105.756,158.99 105.608,158.254 104.761,158.07 105.424,156.412 105.35,155.528 
			106.05,154.166 106.934,154.35 115.856,129.194 115.782,126.8 116.445,124.774 117.108,124.074 		"/>
		<polyline class="st1" points="114.969,147.511 112.151,155.458 111.267,155.274 110.567,156.637 110.641,157.521 109.978,159.178 
			110.825,159.362 110.972,160.099 112.666,160.467 115.347,153.529 		"/>
		<line class="st1" x1="118.954" y1="136.275" x2="117.651" y2="139.95"/>
		<polyline class="st1" points="122.325,125.183 121.662,125.883 120.999,127.908 121.072,130.302 		"/>
		<polyline class="st1" points="110.011,159.918 108.317,159.55 108.17,158.813 107.322,158.629 107.881,157.18 107.796,156.162 
			108.518,155.144 108.687,151.845 118.783,124.312 		"/>
		<polyline class="st1" points="98.262,120.238 88.06,148.193 87.89,150.728 87.264,151.98 87.301,152.79 86.675,154.264 
			87.522,154.448 87.669,155.184 89.364,155.553 		"/>
		<polyline class="st1" points="49.774,147.514 48.08,147.145 47.933,146.409 47.086,146.225 47.748,144.567 47.675,143.683 
			48.375,142.321 49.259,142.505 58.577,117.349 58.503,114.955 59.166,112.929 59.829,112.229 		"/>
		<polyline class="st1" points="61.288,112.715 51.086,140.67 50.916,143.205 50.29,144.457 50.327,145.267 49.701,146.74 
			50.548,146.924 50.695,147.661 52.389,148.029 		"/>
		<polyline class="st1" points="54.922,148.715 53.228,148.347 53.081,147.61 52.234,147.426 52.897,145.769 52.823,144.885 
			53.523,143.522 54.407,143.706 63.725,118.55 63.651,116.156 64.314,114.131 64.977,113.431 		"/>
		<polyline class="st1" points="69.621,114.302 68.958,115.002 68.295,117.028 68.479,118.988 59.463,144.637 58.698,144.393 
			57.998,145.756 58.072,146.64 57.409,148.297 58.256,148.481 58.403,149.218 60.098,149.586 62.757,142.518 		"/>
		<polyline class="st1" points="72.243,114.6 71.58,115.3 70.917,117.326 71.042,119.405 		"/>
		<polyline class="st1" points="66.436,113.916 56.234,141.871 56.064,144.406 55.438,145.658 55.475,146.468 54.849,147.942 
			55.696,148.126 55.843,148.862 57.537,149.231 		"/>
		<polyline class="st1" points="68.479,118.988 72.413,119.763 73.724,116.545 87.133,119.405 86.12,122.504 89.993,123.339 
			87.669,130.073 83.557,129.179 82.544,132.099 86.358,132.993 84.034,139.847 79.922,138.953 78.789,141.992 65.321,139.251 
			66.513,136.271 62.818,135.496 62.877,144.734 61.566,148.011 61.566,148.905 83.021,153.256 91.305,130.609 90.768,129.835 		"/>
		<polyline class="st1" points="65.201,128.762 68.837,129.477 70.029,126.378 66.334,125.603 66.572,128.702 		"/>
		<line class="st1" x1="87.133" y1="119.405" x2="87.431" y2="122.802"/>
		<line class="st1" x1="89.993" y1="123.339" x2="90.351" y2="132.993"/>
		<polyline class="st1" points="87.669,130.073 87.908,139.549 86.858,139.338 		"/>
		<line class="st1" x1="86.358" y1="132.993" x2="86.716" y2="142.946"/>
		<line class="st1" x1="84.034" y1="139.847" x2="84.272" y2="149.621"/>
		<polyline class="st1" points="80.041,139.012 80.398,148.369 79.147,151.587 78.789,141.992 		"/>
		<line class="st1" x1="80.398" y1="148.369" x2="84.272" y2="149.203"/>
		<line class="st1" x1="79.147" y1="151.587" x2="83.309" y2="152.483"/>
		<polyline class="st1" points="61.566,148.011 65.595,148.762 65.321,139.251 		"/>
		<line class="st1" x1="62.838" y1="144.798" x2="65.492" y2="145.35"/>
		<path class="st1" d="M45.666,128.843c0,0,0.358-1.134,1.617-0.995c0,0,1.202,0.166,0.947,1.507l-0.42,1.259
			c0,0-0.343,1.394-1.637,1.042c0,0-1.067-0.017-0.974-1.182L45.666,128.843z"/>
		<path class="st1" d="M42.839,132.605l0.059-2.274c0,0-0.095-0.634,0.761-0.507s1.574,0.27,1.574,0.27"/>
		<path class="st1" d="M48.084,130.636l1.845,0.293c0,0,0.539-0.015,0.539,0.568s-0.045,2.679-0.045,2.679l-1.28-0.256"/>
		<polyline class="st1" points="48.321,129.355 48.791,129.419 48.757,130.636 		"/>
		<line class="st1" x1="46.12" y1="129.701" x2="47.356" y2="129.94"/>
		<line class="st1" x1="46.293" y1="129.051" x2="47.53" y2="129.289"/>
		
			<ellipse transform="matrix(0.1987 -0.9801 0.9801 0.1987 -111.3584 147.905)" class="st1" cx="34.768" cy="142.051" rx="1.756" ry="0.597"/>
		<g>
			<path class="st1" d="M131.577,117.462"/>
		</g>
		<g>
			<path class="st1" d="M137.513,117.761"/>
			<path class="st1" d="M137.832,116.933"/>
			<path class="st1" d="M138.15,116.104"/>
		</g>
		<g>
			<path class="st1" d="M137.909,118.763"/>
		</g>
		<g>
			<path class="st1" d="M144.428,117.443"/>
			<path class="st1" d="M144.746,116.614"/>
		</g>
		<g>
			<path class="st1" d="M145.269,117.584"/>
		</g>
		<path class="st1" d="M158.126,124.753"/>
		<polygon class="st1" points="131.286,116.463 130.269,116.231 128.701,120.907 129.775,121.139 		"/>
		<polyline class="st1" points="128.701,121.11 128.759,122.504 129.884,122.751 129.804,121.197 		"/>
		<path class="st1" d="M129.976,122.659"/>
		<path class="st1" d="M158.869,128.112"/>
		<path class="st1" d="M162.018,123.459c0,0-1.135,0.077-1.368,0.903c0,0-0.335,0.852,0.852,0.723c0,0,1.187,0,1.548-0.877
			C163.051,124.207,163.205,123.278,162.018,123.459z"/>
		<path class="st1" d="M158.873,126.934l0.075,2.133c0,0,1.004,0.427,1.205-0.276l0.427-0.954l-0.025-1.686"/>
		<polyline class="st1" points="160.755,127.963 162.186,128.214 163.089,125.729 163.039,124.324 		"/>
		<polyline class="st1" points="161.684,125.177 161.709,127.361 162.411,127.486 		"/>
		<path class="st1" d="M161.784,123.307c0.108-0.888-0.173-0.953-0.173-0.953l-0.714-0.13l-0.123,1.505"/>
		<path class="st1" d="M160.845,125.121l-0.654,2.042c0,0-0.099,0.694-1.209,0.278"/>
		<path class="st1" d="M94.445,111.48c-1.14-0.534-0.675-1.443-0.675-1.443c0.442-0.885,1.629-0.279,1.629-0.279
			s1.303,0.349,0.954,1.536C96.354,111.293,96.284,112.341,94.445,111.48z"/>
		<polyline class="st1" points="96.529,110.345 96.892,109.402 98.251,109.651 98.15,111.256 96.559,116.208 		"/>
		<polyline class="st1" points="96.622,111.319 97.078,111.427 96.589,112.614 95.728,112.428 95.123,114.313 96.498,114.571 		"/>
		<polyline class="st1" points="95.959,112.619 94.137,112.281 94.153,113.554 93.75,113.474 93.734,114.199 94.943,114.425 		"/>
		<path class="st1" d="M95.523,112.877l-0.371,1.064c0,0-0.338,0.516,1.358,0.703l0.048,1.563l-1.052-0.107
			c0,0-0.435-0.016-0.435-0.435s-0.032-1.434-0.032-1.434"/>
		<polygon class="st1" points="125.321,120.349 126.61,120.708 126.61,122.062 125.321,121.703 		"/>
		<polyline class="st1" points="125.353,120.251 127.083,115.55 128.308,115.86 126.61,120.708 		"/>
		<polyline class="st1" points="126.61,122.062 128.259,117.346 128.324,115.926 		"/>
		<circle class="st1" cx="156.208" cy="109.298" r="0.889"/>
		<circle class="st1" cx="124.696" cy="103.008" r="0.889"/>
		<path class="st1" d="M93.629,97.544c-0.491,0-0.889-0.398-0.889-0.889s0.398-0.889,0.889-0.889c0.123,0,0.24,0.025,0.346,0.07"/>
		<line class="st1" x1="26.374" y1="157.643" x2="28.832" y2="150.588"/>
	</g>
	<polyline class="st1" points="107.535,182.57 108.312,182.764 108.922,181.128 108.201,180.961 	"/>
	<path class="st1" d="M106.565,185.898l0.677-1.582l0.731,1.446C107.973,185.762,107.409,186.691,106.565,185.898z"/>
	<path class="st1" d="M106.481,186.092l0.055,4.992c0,0,0.629,0.829,1.414,0.111v-5.464"/>
	<path class="st1" d="M111.673,172.033l0.677-1.582l0.731,1.446C113.081,171.897,112.517,172.826,111.673,172.033z"/>
	<path class="st1" d="M111.59,172.227l0.055,3.613c0,0,0.629,0.829,1.414,0.111v-4.084"/>
	<path class="st1" d="M106.315,188.422l-0.915,2.579c0,0-0.555,1.609,1.304,1.997c1.858,0.388,2.357-0.915,2.357-0.915l5.242-14.588
		c0,0,0.277-1.137-1.082-1.664"/>
	<polyline class="st1" points="113.674,178.85 113.492,176.417 112.275,179.579 110.025,179.093 107.867,185.083 	"/>
	<line class="st1" x1="107.988" y1="188.519" x2="111.059" y2="180.4"/>
	<polyline class="st1" points="112.275,179.579 112.367,180.552 109.904,180.096 110.117,182.833 112.093,183.259 	"/>
	<line class="st1" x1="113.188" y1="180.492" x2="112.519" y2="180.34"/>
	<polyline class="st1" points="108.335,180.319 108.944,180.483 109.131,178.21 110.116,178.421 110.772,176.382 110.444,176.311 
		111.645,175.84 	"/>
	<polyline class="st1" points="111.182,186.501 111.215,188.287 119.136,189.938 119.068,187.613 111.384,186.062 	"/>
	<polyline class="st1" points="119.068,187.613 120.687,183.269 121.731,180.467 121.933,180.906 122.203,181.647 121.697,182.658 
		119.136,189.938 	"/>
	<line class="st1" x1="114.073" y1="181.824" x2="120.654" y2="183.14"/>
	<polyline class="st1" points="112.29,186.072 114.148,181.002 114.254,179.277 114.015,178.879 	"/>
	<polygon class="st1" points="120.811,182.356 114.705,181.082 114.652,180.047 115.104,178.932 121.182,180.259 120.758,181.4 	"/>
	<path class="st2" d="M124.739,175.826"/>
	<path class="st2" d="M118.899,176.861v3.494c-0.587,0.536-1.057-0.083-1.057-0.083l-0.041-3.412l0.514-0.584L118.899,176.861z"/>
	<line class="st2" x1="114.838" y1="180.153" x2="120.758" y2="181.4"/>
	<path class="st1" d="M116.532,192.493v-0.919c0,0,0.136-0.442-0.919-0.646c-1.055-0.204-2.041-0.408-2.041-0.408l-0.748,2.109
		l-0.068,0.851l-0.987,2.79l-0.34,0.136l-0.578,1.905l0.068,0.919"/>
	<path class="st1" d="M112.382,194.092l-2.347-0.51c0,0-0.987-0.034-1.225,0.714s-0.442,1.361-0.442,1.361s-0.204,0.816,0.748,1.021
		c0.953,0.204,2.143,0.442,2.143,0.442"/>
	<path class="st1" d="M110.851,198.311l-1.735-0.408c0,0-1.089-0.272-0.782-1.803"/>
	<path class="st1" d="M102.195,221.89c-0.488,1.396-0.702,2.014-0.702,2.014l2.4,0.509c0,0,0.545,0.109,0.4,0.618
		s-0.509,1.345-0.509,1.345"/>
	<path class="st1" d="M138.046,196.992l-22.425-4.648c0,0-0.991-0.513-1.405,0.676c-0.414,1.189-2.036,5.549-2.036,5.549
		s-0.018,1.045-1.675,0.613l-0.829-0.198c0,0-0.595-0.144-0.847,0.631c-0.252,0.775-4.972,13.458-4.972,13.458
		s-0.252,0.613,0.558,0.775c0,0,0.649,0.054,0.432,0.558c-0.13,0.303-0.842,2.401-1.678,4.788"/>
	<polygon class="st1" points="106.729,215.153 106.638,213.358 110.197,203.868 119.839,205.814 119.931,207.548 116.372,217.1 	"/>
	<polyline class="st1" points="134.197,207.852 124.585,205.906 121.056,215.426 121.087,217.191 130.151,219.077 	"/>
	<path class="st1" d="M112.004,195.527l-1.76-0.387c0,0-0.651-0.158-0.827,0.352c-0.176,0.511-0.158,0.528-0.158,0.528l2.13,0.458"
		/>
	<path class="st1" d="M91.124,217.103"/>
	<line class="st1" x1="97.009" y1="224.954" x2="122.957" y2="230.441"/>
	<polyline class="st1" points="91.333,216.783 94.016,217.34 128.457,224.483 	"/>
	<line class="st1" x1="95.228" y1="214.125" x2="94.083" y2="217.058"/>
	<ellipse class="st1" cx="126.541" cy="220.861" rx="1.292" ry="0.867"/>
	<path class="st1" d="M127.722,223.229c0,0.438-0.529,0.792-1.181,0.792c-0.652,0-1.181-0.355-1.181-0.792"/>
	<path class="st1" d="M127.833,220.861v1.481c0,0.479-0.578,0.867-1.292,0.867s-1.292-0.388-1.292-0.867v-1.481"/>
	<line class="st1" x1="126.672" y1="220.573" x2="126.449" y2="221.108"/>
	<line class="st1" x1="126.092" y1="220.729" x2="127.04" y2="220.941"/>
	<path class="st1" d="M107.298,223.978c0,0.438-0.529,0.792-1.181,0.792c-0.652,0-1.181-0.355-1.181-0.792"/>
	<path class="st1" d="M107.409,223.091c0,0.479-0.578,0.867-1.292,0.867c-0.714,0-1.292-0.388-1.292-0.867v-0.606"/>
	<ellipse class="st1" cx="128.055" cy="200.819" rx="1.356" ry="0.963"/>
	<path class="st1" d="M129.361,203.313c0,0.512-0.585,0.928-1.306,0.928c-0.721,0-1.306-0.415-1.306-0.928"/>
	<path class="st1" d="M126.699,200.635v1.559c0,0.532,0.607,0.963,1.356,0.963c0.749,0,1.356-0.431,1.356-0.963v-1.375"/>
	<g>
		<line class="st1" x1="127.936" y1="201.113" x2="128.194" y2="200.481"/>
		<line class="st1" x1="128.654" y1="200.912" x2="127.505" y2="200.653"/>
	</g>
	<polyline class="st1" points="101.493,223.905 101.493,224.579 104.22,225.173 	"/>
	<path class="st1" d="M102.154,221.925"/>
	<path class="st1" d="M103.131,219.202"/>
	<polyline class="st1" points="131.286,116.463 131.449,118.057 129.976,122.659 	"/>
	<g>
		<path class="st1" d="M207.838,53.136L197.5,81.552l-2.556-0.551c0,0-0.71,0.189-0.947,0.852s-0.994,2.604-0.994,2.604
			s-0.615,2.083,1.988,2.604c2.604,0.521,29.919,6.154,29.919,6.154s3.598,0.568,4.876-3.314
			c1.278-3.882,19.732-53.641,19.732-53.641l-33.008-6.961l-4.384,12.05"/>
		<polyline class="st1" points="212.021,43.585 212.001,41.534 211.085,41.375 210.528,43.346 		"/>
		<path class="st1" d="M208.836,50.652L208,52.762l-0.697-0.139l-0.02-1.573l2.787-7.645l6.032,1.354l-2.688,7.903l0.02,1.035
			c0,0,0.438-0.279,0.876-1.513s2.887-7.824,2.887-7.824s0.02-0.637-0.438-0.737c-0.458-0.1-3.783-0.796-3.783-0.796l-0.299,0.916"
			/>
		<path class="st1" d="M213.156,53.678c0,0-0.08,0.219-0.995,0.06c-0.916-0.159-4.141-0.836-4.141-0.836"/>
		<path class="st1" d="M207.383,50.991c0,0,0.779-1.639,3.749-1.035c2.837,0.577,2.229,2.429,2.229,2.429"/>
		<ellipse class="st1" cx="212.051" cy="47.118" rx="2.379" ry="1.819"/>
		<path class="st1" d="M216.911,54.336l15.039,3.102c0,0,1.695,0.325,1.19,1.767c-0.505,1.443-9.052,24.668-9.052,24.668
			s-0.325,2.128-2.921,1.587s-14.39-2.921-14.39-2.921s-1.875-0.325-1.262-2.164c0.613-1.839,9.16-24.56,9.16-24.56
			S215.151,54.107,216.911,54.336z"/>
		<path class="st1" d="M239.037,64.623c0,0-0.722,1.52-2.137,1.611l-1.78,0.411c0,0-1.232-0.046-1.734,1.369
			c-0.502,1.414-1.551,4.243-1.551,4.243s-0.502,0.913,0.502,1.688c1.004,0.776,2.555,1.916,2.555,2.145"/>
		<polyline class="st1" points="196.504,87.453 196.625,92.728 197.158,91.759 197.954,90.312 226.064,96.071 		"/>
		<polyline class="st1" points="197.552,91.842 199.203,92.205 198.599,93.292 198.679,94.54 224.453,99.816 224.493,98.688 
			225.178,97.44 226.265,97.641 		"/>
		<polyline class="st1" points="198.438,87.851 198.518,89.386 226.225,95.144 		"/>
		<line class="st1" x1="197.914" y1="90.392" x2="197.672" y2="87.694"/>
		<path class="st1" d="M226.211,93.225l0.151,4.905c0,0,0.878,0.999,1.847,0.273l-0.151-6.026"/>
		<path class="st1" d="M227.634,98.827c0,0,0.061,0.969,0.757,0.727c0.696-0.242,1.575-0.818,1.575-0.818l-0.212-8.599"/>
		<path class="st1" d="M230.221,97.542c0,0,0.669-1.03,0.669-1.493c0-0.463-0.154-2.626-0.154-2.626l1.442-3.399l-0.257-3.244
			l0.412-0.978l-0.824-0.772c0,0-1.236-0.206-0.618-1.802c0.618-1.596,1.493-0.978,1.493-0.978"/>
		<polyline class="st1" points="231.448,95.44 242.118,66.958 242.823,66.165 247.409,53.819 247.232,52.144 248.715,48.402 
			248.676,47.312 248.402,39.612 		"/>
		<polyline class="st1" points="248.871,47.119 249.81,44.523 249.518,36.26 		"/>
		<path class="st1" d="M249.117,36.83l-2.29-0.5c0,0-1.29-0.263-1.527,0.579c-0.237,0.842-1.185,3.37-1.185,3.37
			s-0.263,1.079,0.237,1.764s1.106,1.395,0.684,2.501c-0.421,1.106-1.158,2.132,0.263,2.448"/>
		<ellipse class="st1" cx="246.853" cy="37.896" rx="0.895" ry="0.698"/>
	</g>
	<g>
		<path class="st1" d="M218.535,217.482l2.433-6.713c0,0,0.755-1.259-1.343-1.678c-2.098-0.42-5.118-1.175-5.118-1.175l8.978-23.914
			l-1.93-0.503c0,0-1.51-0.252-0.671-2.433c0.839-2.182,11.999-32.388,11.999-32.388s0.503-1.007,1.762-0.671
			c1.259,0.336,3.608,0.839,3.608,0.839s1.846,0.336,2.368-1.75l5.295-14.373c0,0,0.284-1.513,2.175-1.04l62.41,12.86
			c0,0,2.364,0.095,1.608,2.459c-0.756,2.364-30.259,82.74-30.259,82.74l-1.418-0.473l-2.08,6.241l-7.187-1.702l0.189,6.808
			l-4.633-1.04"/>
		<path class="st1" d="M277.809,235.399l-0.146-3.876c0.585-1.902-0.878-2.121-0.878-2.121s-54.413-11.19-57.192-11.848
			c-2.779-0.658-2.779,1.755-2.779,1.755l0.219,3.437l6.143,1.316l0.219,4.096c0,0-1.024-0.146-0.731,2.34l1.609,0.293"/>
		<line class="st1" x1="217.107" y1="219.162" x2="277.663" y2="231.522"/>
		<polygon class="st1" points="224.425,227.699 224.534,231.932 243.856,235.949 243.694,231.661 		"/>
		<polyline class="st1" points="233.978,230.087 234.195,233.669 235.661,230.141 		"/>
		<line class="st1" x1="225.076" y1="232.041" x2="226.596" y2="228.187"/>
		<polygon class="st1" points="246.353,232.204 246.516,236.492 265.622,240.4 265.622,236.22 		"/>
		<polyline class="st1" points="255.96,234.646 256.232,238.066 257.643,234.755 		"/>
		<line class="st1" x1="246.896" y1="236.763" x2="248.307" y2="233.018"/>
		<polyline class="st1" points="224.766,227.632 224.626,226.371 224.953,225.67 244.754,229.967 245.034,234.216 243.856,235.949 
					"/>
		<polyline class="st1" points="246.353,232.204 246.248,230.994 246.715,230.2 266.702,234.543 266.982,238.466 265.908,240.334 		
			"/>
		<line class="st1" x1="243.694" y1="231.661" x2="244.707" y2="230.294"/>
		<line class="st1" x1="265.622" y1="236.22" x2="266.609" y2="235.057"/>
		<line class="st1" x1="244.66" y1="235.15" x2="246.201" y2="235.477"/>
		<polygon class="st1" points="227.647,182.267 235.993,159.868 258.989,164.552 259.244,168.81 250.727,191.38 227.817,186.695 		
			"/>
		<polygon class="st1" points="270.401,164.893 293.481,169.577 293.652,173.835 285.305,196.319 262.225,191.72 261.799,187.547 		
			"/>
		<g>
			<ellipse class="st1" cx="226.032" cy="202.248" rx="3.187" ry="2.318"/>
			<path class="st1" d="M229.145,207.54c0.049,0.162,0.075,0.33,0.075,0.503c0,1.28-1.427,2.318-3.188,2.318
				s-3.187-1.038-3.187-2.318c0-0.16,0.022-0.316,0.065-0.467"/>
			<path class="st1" d="M222.845,202.769v2.956c0,1.28,1.427,2.318,3.187,2.318s3.188-1.038,3.188-2.318v-3.477"/>
			<g>
				<line class="st1" x1="226.387" y1="201.149" x2="225.717" y2="203.141"/>
				<line class="st1" x1="224.811" y1="201.91" x2="227.347" y2="202.471"/>
			</g>
		</g>
		<g>
			<ellipse class="st1" cx="274.981" cy="200.783" rx="3.187" ry="2.318"/>
			<path class="st1" d="M278.093,206.076c0.049,0.162,0.075,0.33,0.075,0.503c0,1.28-1.427,2.318-3.188,2.318
				s-3.187-1.038-3.187-2.318c0-0.16,0.022-0.316,0.065-0.467"/>
			<path class="st1" d="M271.793,201.305v2.956c0,1.28,1.427,2.318,3.187,2.318s3.188-1.038,3.188-2.318v-3.477"/>
			<g>
				<line class="st1" x1="275.336" y1="199.685" x2="274.666" y2="201.677"/>
				<line class="st1" x1="273.76" y1="200.446" x2="276.295" y2="201.007"/>
			</g>
		</g>
		<g>
			<ellipse class="st1" cx="278.669" cy="152.322" rx="3.187" ry="2.318"/>
			<path class="st1" d="M281.782,157.615c0.049,0.162,0.075,0.33,0.075,0.503c0,1.28-1.427,2.318-3.187,2.318
				s-3.188-1.038-3.188-2.318c0-0.16,0.022-0.316,0.065-0.467"/>
			<path class="st1" d="M275.482,152.844v2.956c0,1.28,1.427,2.318,3.188,2.318s3.187-1.038,3.187-2.318v-3.477"/>
			<g>
				<line class="st1" x1="279.024" y1="151.224" x2="278.354" y2="153.216"/>
				<line class="st1" x1="277.449" y1="151.985" x2="279.984" y2="152.546"/>
			</g>
		</g>
	</g>
	<ellipse class="st3" cx="287.781" cy="100.244" rx="12.054" ry="9.356"/>
	<ellipse class="st3" cx="287.645" cy="100.076" rx="8.333" ry="6.343"/>
	<path class="st1" d="M298.719,117.913c0.65,1.124,1.011,2.371,1.011,3.684c0,4.975-5.196,9.008-11.606,9.008
		s-11.606-4.033-11.606-9.008c0-1.071,0.241-2.098,0.682-3.05"/>
	<path class="st1" d="M296.506,120.756c0,3.543-3.701,6.416-8.266,6.416s-8.266-2.872-8.266-6.416"/>
	<path class="st3" d="M275.727,100.244v12.054c0,5.167,5.397,9.356,12.054,9.356c6.657,0,12.054-4.189,12.054-9.356v-12.054"/>
	<line class="st1" x1="288.782" y1="96.472" x2="286.337" y2="103.707"/>
	<line class="st1" x1="283.013" y1="98.672" x2="292.301" y2="100.579"/>
	<line class="st1" x1="278.839" y1="108.121" x2="278.839" y2="116.317"/>
	<line class="st1" x1="280.31" y1="109.645" x2="280.31" y2="117.84"/>
	<line class="st1" x1="281.728" y1="110.433" x2="281.728" y2="118.628"/>
	<line class="st1" x1="283.146" y1="110.958" x2="283.146" y2="119.154"/>
	<line class="st1" x1="294.126" y1="110.223" x2="294.126" y2="118.418"/>
	<line class="st1" x1="295.545" y1="109.172" x2="295.545" y2="117.367"/>
	<line class="st1" x1="296.753" y1="108.541" x2="296.753" y2="116.737"/>
	<line class="st1" x1="297.856" y1="107.648" x2="297.856" y2="115.844"/>
	<g>
		<polygon class="st4" points="228.757,11.866 241.288,25.189 235.033,24.081 235.244,45.067 222.91,42.886 222.7,21.898 
			216.445,20.793 		"/>
	</g>
	<g>
		<polygon class="st5" points="253.285,115.713 265.815,129.036 259.561,127.928 259.771,148.914 247.438,146.733 247.227,125.745 
			240.973,124.64 		"/>
	</g>
	<polyline class="st6" points="133.845,187.212 133.845,138.074 207.777,138.074 207.777,99.418 	"/>
	<polyline class="st7" points="133.845,187.212 133.845,138.074 207.777,138.074 207.777,99.418 	"/>
	<g>
		<g>
			<path class="st5" d="M274.751,94.879c0,0,1.627-2.761,4.452-5.586c2.261-2.259,5.171-3.672,5.171-3.672s-1.742-1.08-4.346-4.31
				c-3.684-4.571-5.277-8.881-5.277-8.881v6.072c-3.604-1.685-4.803-4.535-4.803-4.535v9.892c0,3.937,4.803,6.485,4.803,6.485
				V94.879z"/>
			<path class="st5" d="M300.755,66.961c-1.136-1.099-2.677-2.043-4.478-2.789v11.726c1.003,0.409,1.918,0.875,2.721,1.393
				c0.632-0.461,1.228-0.959,1.758-1.489V66.961z"/>
			<path class="st5" d="M301.823,74.549c0.654-0.935,1.067-1.966,1.067-3.114c0-1.14-0.393-2.211-1.067-3.202V74.549z"/>
			<path class="st5" d="M295.209,75.492c-1.834-0.622-3.957-1.043-6.32-1.22V62.446c2.259,0.197,4.414,0.646,6.32,1.316V75.492z"/>
			<path class="st5" d="M287.821,74.212c-0.455-0.016-0.909-0.04-1.38-0.04c-3.576,0-6.694,0.578-9.258,1.541
				c-2.063-3.347-3.038-6.168-3.038-6.168v7.641c-0.056,0.036-0.12,0.068-0.177,0.104c-1.982-1.28-3.979-3.299-3.979-5.855
				c0-5.213,7.607-9.101,16.451-9.101c0.461,0,0.923,0.016,1.38,0.04V74.212z"/>
			<path class="st5" d="M299.491,77.76c-0.668,0.433-1.416,0.843-2.279,1.244v11.718c0.807-0.377,1.577-0.831,2.279-1.332V77.76z"/>
			<path class="st5" d="M300.579,88.526c1.621-1.441,2.681-3.158,2.681-4.828V73.482c-0.734,1.485-1.581,2.568-2.681,3.483V88.526z"
				/>
		</g>
	</g>
	<line class="st8" x1="129.366" y1="213.887" x2="217.322" y2="188.062"/>
	<line class="st1" x1="128.991" y1="213.887" x2="216.948" y2="188.062"/>
	<g>
		<g>
			<path class="st9" d="M214.592,19.57c0,7.593-6.246,13.745-13.95,13.745c-7.707,0-13.953-6.152-13.953-13.745
				c0-7.596,6.246-13.755,13.953-13.755C208.347,5.815,214.592,11.974,214.592,19.57"/>
		</g>
		<g>
			<path class="st10" d="M202.239,26.611h-1.846V14.85c-0.444,0.424-1.027,0.848-1.749,1.271c-0.721,0.424-1.369,0.742-1.943,0.954
				v-1.784c1.032-0.485,1.935-1.073,2.707-1.764s1.319-1.36,1.641-2.01h1.189V26.611z"/>
		</g>
	</g>
	<g>
		<g>
			<path class="st9" d="M330.223,58.558c0,7.593-6.246,13.745-13.95,13.745c-7.707,0-13.953-6.152-13.953-13.745
				c0-7.596,6.246-13.755,13.953-13.755C323.977,44.803,330.223,50.962,330.223,58.558"/>
		</g>
		<g>
			<path class="st10" d="M321.063,63.826V65.6h-9.936c-0.014-0.444,0.058-0.872,0.215-1.282c0.253-0.677,0.658-1.343,1.216-2
				c0.557-0.656,1.361-1.415,2.414-2.276c1.634-1.34,2.738-2.401,3.312-3.184s0.861-1.523,0.861-2.22
				c0-0.731-0.262-1.348-0.784-1.851c-0.523-0.502-1.205-0.753-2.046-0.753c-0.889,0-1.6,0.267-2.133,0.8s-0.804,1.271-0.811,2.215
				l-1.896-0.195c0.13-1.415,0.618-2.493,1.466-3.235c0.848-0.741,1.986-1.112,3.415-1.112c1.442,0,2.584,0.4,3.425,1.2
				s1.261,1.791,1.261,2.974c0,0.602-0.123,1.193-0.369,1.774s-0.654,1.193-1.225,1.835c-0.571,0.643-1.52,1.524-2.846,2.646
				c-1.107,0.93-1.818,1.561-2.133,1.892s-0.574,0.665-0.779,1H321.063z"/>
		</g>
	</g>
	<polygon class="st10" points="65.25,133.198 66.279,131.457 69.439,141.368 	"/>
	<g>
		<g>
			<path class="st9" d="M246.095,150.609c0,7.593-6.246,13.745-13.95,13.745c-7.707,0-13.953-6.152-13.953-13.745
				c0-7.596,6.246-13.755,13.953-13.755C239.849,136.854,246.095,143.013,246.095,150.609"/>
		</g>
		<g>
			<path class="st10" d="M227.401,153.637l1.846-0.246c0.212,1.046,0.572,1.799,1.082,2.261c0.509,0.461,1.129,0.692,1.861,0.692
				c0.868,0,1.601-0.301,2.2-0.902c0.598-0.602,0.897-1.347,0.897-2.235c0-0.848-0.277-1.547-0.831-2.098
				c-0.554-0.55-1.258-0.825-2.112-0.825c-0.349,0-0.783,0.068-1.302,0.205l0.205-1.62c0.123,0.014,0.222,0.021,0.297,0.021
				c0.786,0,1.494-0.205,2.123-0.615s0.943-1.042,0.943-1.896c0-0.677-0.229-1.237-0.687-1.682s-1.049-0.667-1.774-0.667
				c-0.718,0-1.316,0.226-1.794,0.677s-0.786,1.128-0.923,2.03l-1.846-0.328c0.226-1.237,0.738-2.195,1.538-2.876
				c0.8-0.68,1.794-1.021,2.984-1.021c0.82,0,1.576,0.177,2.266,0.528c0.69,0.353,1.218,0.832,1.584,1.44s0.549,1.255,0.549,1.938
				c0,0.649-0.175,1.24-0.523,1.773s-0.865,0.957-1.548,1.271c0.889,0.205,1.579,0.631,2.072,1.276
				c0.492,0.646,0.738,1.455,0.738,2.426c0,1.312-0.479,2.425-1.436,3.337c-0.957,0.913-2.167,1.369-3.63,1.369
				c-1.319,0-2.415-0.393-3.286-1.179C228.021,155.906,227.524,154.888,227.401,153.637z"/>
		</g>
	</g>
	<g>
		<path class="st11" d="M305.153,120.661l3.031-4.312l-2.805-3.984h1.758l1.273,1.945c0.239,0.37,0.432,0.68,0.578,0.93
			c0.229-0.344,0.439-0.648,0.633-0.914l1.398-1.961h1.68l-2.867,3.906l3.086,4.391h-1.727l-1.703-2.578l-0.453-0.695l-2.18,3.273
			H305.153z"/>
		<path class="st11" d="M314.953,117.638l1.406-0.188c0.161,0.797,0.436,1.371,0.824,1.723c0.388,0.352,0.86,0.527,1.418,0.527
			c0.661,0,1.22-0.229,1.676-0.688c0.455-0.458,0.684-1.026,0.684-1.703c0-0.646-0.211-1.178-0.633-1.598
			c-0.422-0.419-0.959-0.629-1.609-0.629c-0.266,0-0.597,0.052-0.992,0.156l0.156-1.234c0.094,0.011,0.169,0.016,0.227,0.016
			c0.599,0,1.138-0.156,1.617-0.469c0.479-0.312,0.719-0.794,0.719-1.445c0-0.516-0.175-0.942-0.523-1.281
			c-0.35-0.338-0.8-0.508-1.352-0.508c-0.547,0-1.003,0.172-1.367,0.516c-0.365,0.344-0.6,0.859-0.703,1.547l-1.406-0.25
			c0.172-0.942,0.562-1.673,1.172-2.191c0.609-0.518,1.367-0.777,2.273-0.777c0.625,0,1.2,0.134,1.727,0.402
			c0.525,0.269,0.928,0.634,1.207,1.098c0.278,0.464,0.418,0.956,0.418,1.477c0,0.495-0.133,0.945-0.398,1.352
			s-0.659,0.729-1.18,0.969c0.677,0.156,1.203,0.48,1.578,0.973s0.562,1.108,0.562,1.848c0,1-0.365,1.848-1.094,2.543
			c-0.729,0.695-1.651,1.043-2.766,1.043c-1.006,0-1.84-0.299-2.504-0.898C315.426,119.367,315.047,118.591,314.953,117.638z"/>
	</g>
	<line class="st12" x1="284.371" y1="132.543" x2="279.346" y2="147.618"/>
	<line class="st1" x1="284.371" y1="132.543" x2="279.346" y2="147.618"/>
	<line class="st12" x1="291.663" y1="132.226" x2="277.431" y2="195.871"/>
	<line class="st1" x1="291.663" y1="132.226" x2="277.431" y2="195.871"/>
	<line class="st12" x1="277.968" y1="130.078" x2="230.167" y2="199.631"/>
	<line class="st1" x1="277.968" y1="130.078" x2="230.167" y2="199.631"/>
</g>
</svg>
