<?xml version="1.0" encoding="utf-8"?>
<!-- Generator: Adobe Illustrator 26.5.0, SVG Export Plug-In . SVG Version: 6.00 Build 0)  -->
<svg version="1.1" xmlns="http://www.w3.org/2000/svg" xmlns:xlink="http://www.w3.org/1999/xlink" x="0px" y="0px"
	 viewBox="0 0 315.2 262.3" style="enable-background:new 0 0 315.2 262.3;" xml:space="preserve">
<style type="text/css">
	.st0{fill:none;stroke:#000000;stroke-width:0.5;stroke-linecap:round;stroke-linejoin:round;stroke-miterlimit:10;}
	.st1{fill:none;stroke:#000000;stroke-width:0.2946;stroke-linecap:round;stroke-linejoin:round;stroke-miterlimit:10;}
	.st2{fill:none;stroke:#000000;stroke-width:0.4208;stroke-linecap:round;stroke-linejoin:round;stroke-miterlimit:10;}
	.st3{fill:#DCDDDE;}
	.st4{fill:none;stroke:#000000;stroke-width:0.5551;stroke-linecap:round;stroke-linejoin:round;stroke-miterlimit:10;}
	.st5{stroke:#FFFFFF;stroke-width:0.5;stroke-linecap:round;stroke-linejoin:round;}
	.st6{fill:#FFFFFF;stroke:#FFFFFF;stroke-width:6;stroke-miterlimit:10;}
	.st7{clip-path:url(#SVGID_00000015330283394274105730000017131686308561103293_);}
	
		.st8{fill:none;stroke:#000000;stroke-width:0.5;stroke-linecap:round;stroke-linejoin:round;stroke-miterlimit:10;stroke-dasharray:1.1305,1.5073;}
	.st9{clip-path:url(#SVGID_00000015330283394274105730000017131686308561103293_);fill:#DCDDDE;}
	.st10{fill:none;stroke:#000000;stroke-width:0.5;stroke-miterlimit:10;}
	.st11{stroke:#FFFFFF;stroke-width:0.7536;stroke-miterlimit:10;}
	.st12{stroke:#FFFFFF;stroke-width:0.7536;stroke-linecap:round;stroke-linejoin:round;stroke-miterlimit:10;}
	.st13{fill:#FFFFFF;stroke:#FFFFFF;stroke-width:0.5;stroke-linecap:round;stroke-linejoin:round;stroke-miterlimit:10;}
	.st14{stroke:#FFFFFF;stroke-width:3;stroke-linecap:round;stroke-linejoin:round;stroke-miterlimit:10;}
	.st15{fill:#FFFFFF;stroke:#000000;stroke-width:0.75;stroke-linecap:round;stroke-linejoin:round;stroke-miterlimit:10;}
</style>
<g id="UnitWithoyt_Left">
	<g>
		<g>
			<path class="st0" d="M147.7,102.6c0,0,102.3,23.3,103.9,23.6s1,0.9,1,0.9S12.3,163.7,8.9,164.2S6,162.4,6,162.4l8.9-50.1
				L147.7,102.6z"/>
			<line class="st0" x1="6.4" y1="163.6" x2="12.1" y2="194"/>
			<polyline class="st0" points="14.8,180.7 12.1,167.3 13.3,163.6 			"/>
			<line class="st0" x1="142.4" y1="190.5" x2="143.3" y2="190.3"/>
			<path class="st0" d="M51.7,217l9.9-2c0,0,2.1-0.6,3,0.5c0,0,0.9,1.5,3.2,1.1s10.2-1.8,10.2-1.8l-0.1-2.9l-0.7-1.8l-1.7,0.5
				l-4.4-3.8"/>
			<line class="st0" x1="48.2" y1="211.9" x2="141.4" y2="190.3"/>
			<polyline class="st0" points="45.8,218.1 24.9,222.4 24.4,219.3 25.1,217.2 25.1,217.2 40.8,213.6 			"/>
			<path class="st0" d="M50.7,214.2l10.6-2.1c0,0,1.6-0.5,2.4,0.2s1.1,1,1.1,1s0.7,1,2.7,0.6c1.9-0.4,10.5-1.9,10.5-1.9"/>
			<line class="st0" x1="24.4" y1="219.3" x2="43.3" y2="215.6"/>
			<polyline class="st0" points="49.3,212.9 60.7,210.2 61.6,210.7 49.3,213.3 			"/>
			<polyline class="st0" points="42,214.8 34.1,216.4 42,214.6 			"/>
			<path class="st0" d="M49.3,213.3"/>
			<path class="st0" d="M64.3,209.8l5.3-1.2c0,0,0.4-0.4,1.1,0.2c0.7,0.6,2.8,2.4,2.8,2.4s0.5,0.4-0.1,0.6c-0.6,0.2-5.9,1.2-5.9,1.2
				s-0.7,0.1-1.2-0.4s-2.4-2.2-2.4-2.2S63.8,209.8,64.3,209.8z"/>
			<line class="st0" x1="75.4" y1="206.7" x2="75.6" y2="210.2"/>
			<line class="st0" x1="77.1" y1="208.3" x2="75.9" y2="210.3"/>
			<path class="st0" d="M77.6,210.2l1-0.4l0.3,2.5l4.8,4.3c0,0-0.3-2.5-0.3-3s-0.5-1.2-0.5-1.2l-2.3-2.1l-0.8-0.9L76,207
				c-1.1-0.5,0.7-1.2,0.7-1.2"/>
			<path class="st0" d="M144.9,191.4c0,0-25.9,7.8-26.9,8.1c-1,0.3-0.8,0.8-0.8,0.8s0.2,0.5,0.3,1.5c0.2,1-0.7,1.4-0.7,1.4
				l-16.4,5.1l-7.3,0.9c0,0-0.5,0.1-3,0.8c-2.5,0.7-3.9-0.2-3.9-0.2l-2.2-1.9c0,0-2.7-1.2-3.1-1.7c-0.4-0.5-1-0.2-1-0.2l-1.8,0.4
				c0,0-0.8,0.3-0.2,0.7c0.6,0.3,3.2,1.7,3.2,1.7l0.6,1.4l2.3,2.1c0,0,0.3,0.3,0.3,1c0.1,0.7,0.3,3.1,0.3,3.1l-0.8,0.2"/>
			<path class="st0" d="M98.5,206c-1.1-1.1-4.3-1.1-4.3-1.1l-0.2-2.2c3.8-0.1,4.9,1.6,4.9,1.6c0.8,1.6-1.1,3.1-1.1,3.1l-4.9,0.5
				c0,0-2,0.6-3.3,1.1s-2.1-0.2-2.1-0.2l-1.7-1.5c0,0-2.3-1.2-3-1.7c-0.7-0.4,0.6-0.6,0.6-0.6l4.5-1c0,0-2.3,1-2.4,2.7"/>
			<path class="st0" d="M86.8,207.6c0,0,0.7-0.9,1.5-1.1l-0.3-2.4"/>
			<line class="st0" x1="88.2" y1="204" x2="139.9" y2="191.8"/>
			<path class="st0" d="M82,209.5c0,0,3,2.4,4.2,3.9c0,0,0.8,1.7,3.4,1c2.6-0.7,27.4-8.5,27.4-8.5s0.9-0.3,0.9-1.3
				c0-1-0.4-2.6-0.4-2.6"/>
			<line class="st0" x1="155.8" y1="190.8" x2="161.5" y2="189.1"/>
			<line class="st0" x1="117.7" y1="202.1" x2="147.2" y2="193.3"/>
			<line class="st0" x1="87.1" y1="207.7" x2="96.7" y2="205.3"/>
			<line class="st0" x1="157.1" y1="166.9" x2="157.2" y2="183"/>
			<line class="st0" x1="161.6" y1="167.9" x2="161.7" y2="186.1"/>
			<line class="st0" x1="161.6" y1="141.3" x2="161.6" y2="150.7"/>
			<path class="st0" d="M151.2,192.3c0,1.6,0,2.9,0,2.9l-1,0.2"/>
			<path class="st0" d="M145.8,183.2v-3.5l1-0.2l4,3.1c0,0,0.4,0.3,0.4,1c0,0.3,0,2.2,0,4.4"/>
			<path class="st0" d="M145.8,179.7l4,3.1c0,0,0.4,0.3,0.4,1s0,11.6,0,11.6l-4-3.3"/>
			<polyline class="st0" points="142.2,180.4 149.2,186.6 145.6,187.4 142,183.9 			"/>
			<line class="st0" x1="145.6" y1="187.4" x2="145.6" y2="192"/>
			<path class="st0" d="M149.2,186.6v0.8l-2.7,0.6v3.1l2.7-0.6c0,0,0,0.8,0,0.7l-3.5,0.8l-3.3-3.1"/>
			<path class="st0" d="M150.4,188.6l16,13.8l1.3,1.9c0,0,0.9,1.7,0,1.7l-1.3-0.3l-16.1-14"/>
			<path class="st0" d="M150.4,187.5l16.6,14.3l1.3,1.9c0,0,0.5,2.1-0.4,2.2"/>
			<path class="st0" d="M139.9,175.6"/>
			<polyline class="st0" points="141.9,190.8 138.7,187.4 138.3,176.2 			"/>
			<path class="st0" d="M151.1,183.4c0.6-0.5,1.4-0.9,2.3-1c2.4-0.3,4.5,1.3,4.8,3.7c0.3,2.3-1.4,4.4-3.8,4.7"/>
			<path class="st0" d="M155.2,183.2c0.3,2.3-1.4,4.4-3.8,4.7"/>
			<path class="st0" d="M148.1,180.6c0.6-0.5,1.4-0.9,2.3-1c0.8-0.1,1.7,0,2.4,0.4l4.5,3.6"/>
			<path class="st0" d="M155.2,182.8"/>
			<line class="st0" x1="150.7" y1="179.3" x2="154.5" y2="182.4"/>
			<path class="st0" d="M143.4,181.3l0-7.5c0,0-0.1-0.6,0.7-0.8c0.8-0.2,10.8-2.2,10.8-2.2s0.7-0.2,0.8,0.3
				c0.1,0.5,0.2,10.8,0.2,10.8"/>
			<path class="st0" d="M142.4,180.7l0-7.5c0,0-0.1-0.6,0.7-0.8c0.8-0.2,10.8-2.2,10.8-2.2l1.5,0.4"/>
			<ellipse class="st0" cx="79.5" cy="190.6" rx="1.2" ry="1.2"/>
			<ellipse class="st0" cx="85.7" cy="189.3" rx="1.2" ry="1.2"/>
			<polyline class="st0" points="160.9,186.8 162.2,187.8 164.3,187.5 165.6,186.6 165.6,188 164.3,189.1 162.2,189.4 160.6,188.1 
				160.6,186.6 162.7,186.1 162.7,185.4 163.8,186.1 163.8,187.2 			"/>
			<path class="st0" d="M194.3,144.6v-3.9c0,0,0-0.3,0.6-0.4c0.5-0.1,4.8-0.7,4.8-0.7s0.7-0.2,0.7,0.4l-0.1,3.6c0,0,0.1,0.5-0.4,0.6
				s-4.8,0.8-4.8,0.8S194.4,145.4,194.3,144.6z"/>
			<path class="st0" d="M203.7,143.6v-3.9c0,0,0-0.3,0.6-0.4c0.5-0.1,6.5-1,6.5-1s0.7-0.2,0.7,0.4l-0.1,3.6c0,0,0.1,0.5-0.4,0.6
				c-0.4,0.1-6.5,1.1-6.5,1.1S203.8,144.3,203.7,143.6z"/>
			<path class="st0" d="M182.5,146.6v-6c0,0,0-0.3,0.6-0.4c0.5-0.1,6.9-1,6.9-1s0.7-0.2,0.7,0.4l-0.1,5.7c0,0,0.1,0.5-0.4,0.6
				c-0.4,0.1-6.9,1.1-6.9,1.1S182.6,147.4,182.5,146.6z"/>
			<path class="st0" d="M172,144.1v-1.7c0,0,0-0.3,0.6-0.4c0.5-0.1,6.9-1,6.9-1s0.7-0.2,0.7,0.4l-0.1,5.7c0,0,0.1,0.5-0.4,0.6
				c-0.2,0-1.1,0.2-2.2,0.4"/>
			<line class="st0" x1="165" y1="170.2" x2="165.1" y2="182.4"/>
			<g>
				<polygon class="st0" points="91.8,190.1 93.2,188.9 95,189.5 95.2,191.5 93.6,192.7 92,192 				"/>
				<polygon class="st0" points="96.1,189.2 97.5,188 99.3,188.6 99.5,190.6 97.9,191.8 96.3,191.1 				"/>
				<polygon class="st0" points="100.5,188.2 101.9,187 103.7,187.6 104,189.6 102.3,190.8 100.8,190.1 				"/>
				<polygon class="st0" points="105,187.2 106.4,186.1 108.2,186.6 108.4,188.6 106.8,189.8 105.2,189.2 				"/>
				<polygon class="st0" points="109.3,186.3 110.7,185.2 112.5,185.7 112.7,187.7 111,188.9 109.5,188.3 				"/>
				<polygon class="st0" points="113.5,185.3 114.9,184.2 116.7,184.7 116.9,186.7 115.3,188 113.7,187.3 				"/>
				<polygon class="st0" points="117.6,184.4 119.1,183.3 120.8,183.8 121.1,185.9 119.4,187.1 117.9,186.4 				"/>
				<polygon class="st0" points="121.7,183.5 123.1,182.4 124.9,182.9 125.1,184.9 123.5,186.2 121.9,185.5 				"/>
				<polyline class="st0" points="129.2,184 127.6,185.3 126,184.6 125.8,182.6 127.2,181.5 129,182 				"/>
				<polygon class="st0" points="124.3,186.5 125.7,185.4 127.5,185.9 127.7,187.9 126.1,189.2 124.5,188.5 				"/>
				<g>
					<polygon class="st0" points="94.4,193.1 95.8,191.9 97.6,192.5 97.8,194.5 96.2,195.7 94.6,195 					"/>
					<polygon class="st0" points="97,196.1 98.4,195 100.2,195.5 100.5,197.5 98.8,198.8 97.3,198.1 					"/>
					<polygon class="st0" points="101.3,195.1 102.7,194 104.5,194.5 104.8,196.5 103.1,197.7 101.6,197.1 					"/>
					<polygon class="st0" points="105.9,194 107.3,192.9 109.1,193.4 109.3,195.4 107.7,196.7 106.1,196 					"/>
					<polygon class="st0" points="110.2,193.1 111.6,192 113.4,192.5 113.7,194.5 112,195.8 110.5,195.1 					"/>
					<polygon class="st0" points="114.5,192.1 115.9,191 117.7,191.5 118,193.5 116.3,194.7 114.8,194.1 					"/>
					<polygon class="st0" points="118.7,191.2 120.1,190.1 121.9,190.6 122.1,192.6 120.5,193.9 118.9,193.2 					"/>
					<polygon class="st0" points="122.9,190.3 124.3,189.2 126.1,189.7 126.4,191.7 124.7,193 123.2,192.3 					"/>
					<polygon class="st0" points="98.7,192.1 100.1,191 101.9,191.5 102.2,193.5 100.5,194.8 99,194.1 					"/>
					<polygon class="st0" points="103.1,191.2 104.5,190 106.3,190.6 106.6,192.6 104.9,193.8 103.4,193.1 					"/>
					<polygon class="st0" points="107.6,190.2 109,189 110.8,189.6 111,191.6 109.4,192.8 107.8,192.1 					"/>
					<polygon class="st0" points="111.9,189.3 113.3,188.2 115.1,188.7 115.3,190.7 113.7,191.9 112.1,191.3 					"/>
					<polygon class="st0" points="116.1,188.3 117.5,187.2 119.3,187.7 119.5,189.7 117.9,190.9 116.3,190.3 					"/>
					<polygon class="st0" points="120.3,187.4 121.7,186.3 123.5,186.8 123.7,188.8 122.1,190.1 120.5,189.4 					"/>
				</g>
			</g>
			<g>
				<polyline class="st0" points="47,198.6 48.4,197.5 50.5,198.2 50.8,200.6 49.6,201.5 				"/>
				<polygon class="st0" points="51.8,197.7 53.5,196.3 55.6,197 55.9,199.4 53.9,200.9 52.1,200.1 				"/>
				<polygon class="st0" points="56.8,196.6 58.5,195.3 60.7,195.9 61,198.3 59,199.8 57.1,199 				"/>
				<polygon class="st0" points="61.7,195.5 63.4,194.2 65.6,194.8 65.9,197.2 63.9,198.7 62,197.9 				"/>
				<polygon class="st0" points="70.8,196.1 68.8,197.6 66.9,196.8 66.6,194.4 68.3,193.1 70.5,193.7 				"/>
				<polygon class="st0" points="64.9,199.2 66.6,197.8 68.7,198.4 69,200.9 67,202.3 65.2,201.5 				"/>
				<g>
					<polyline class="st0" points="35.9,211.4 36.1,212.5 34.1,214 32.2,213.1 31.9,210.8 32.4,210.4 					"/>
					<polyline class="st0" points="43.6,208 44.5,207.3 46.7,207.9 47,210.3 					"/>
					<polygon class="st0" points="53.1,205.9 54.8,204.5 56.9,205.2 57.2,207.6 55.2,209.1 53.4,208.3 					"/>
					<polygon class="st0" points="58.1,204.8 59.8,203.5 62,204.1 62.2,206.5 60.3,208 58.4,207.2 					"/>
					<polygon class="st0" points="63.2,203.7 64.9,202.4 67.1,203 67.4,205.4 65.4,206.9 63.5,206.1 					"/>
					<polyline class="st0" points="39.6,204.8 41.3,203.4 43.4,204.1 43.7,206.5 					"/>
					<polyline class="st0" points="50.1,202.3 51.6,201.1 53.7,201.8 54,204.2 52,205.7 					"/>
					<polygon class="st0" points="55,201.3 56.7,199.9 58.8,200.6 59.1,203 57.1,204.5 55.3,203.7 					"/>
					<polygon class="st0" points="60,200.2 61.7,198.9 63.9,199.5 64.2,201.9 62.2,203.4 60.3,202.6 					"/>
					<polyline class="st0" points="37,203.4 36.7,201.1 38.4,199.7 40.6,200.3 40.9,202.8 38.9,204.2 					"/>
					<polygon class="st0" points="41.8,200 43.5,198.6 45.6,199.3 45.9,201.7 43.9,203.2 42.1,202.4 					"/>
					<polygon class="st0" points="46.7,198.9 48.4,197.5 50.5,198.2 50.8,200.6 48.8,202.1 47,201.3 					"/>
					<polygon class="st0" points="49.8,202.5 51.5,201.2 53.7,201.8 54,204.2 52,205.7 50.1,204.9 					"/>
					<polygon class="st0" points="48,207.5 49.7,206.1 51.9,206.7 52.2,209.2 50.2,210.6 48.3,209.8 					"/>
					<polygon class="st0" points="44.7,203.7 46.4,202.4 48.6,203 48.9,205.4 46.9,206.9 45,206.1 					"/>
				</g>
			</g>
			<path class="st0" d="M24.4,190.6"/>
			<line class="st0" x1="19.3" y1="191.9" x2="16.6" y2="181.8"/>
			<line class="st0" x1="158.2" y1="166.9" x2="158.4" y2="186.5"/>
			<line class="st0" x1="157.9" y1="141.8" x2="158" y2="147.5"/>
		</g>
	</g>
	<line class="st0" x1="35.7" y1="191.8" x2="141.3" y2="171.2"/>
	<path class="st0" d="M163.2,151.1v-8.4c0,0,0.4-1.6,2.5-1.1l5.8,2.6c0,0,1,0.4,0.9,1.6"/>
	<path class="st0" d="M170,154.8v-9.1c0,0,0.4-1.2,1.2-0.4l29.1,13.9"/>
	<path class="st0" d="M200.1,170.8l0.5-13.5c0-2.9,2.9-3.6,2.9-3.6l5-1.2c0,0,3.9-0.6,9.1,2.6c0,0,6.1,2.5,7,10.3
		c0,0,1.3,10.5-8.4,18.5c0,0-3.5,2.9-10.8,5c0,0-1.2-0.3-1.2-1.5l1.6-28.2c0,0,0-2.1,1.5-2.6c1.5-0.5,5-1.6,5-1.6s3.9-0.8,7.4,2.4
		c0,0,4.6,4.5,4,10.1c-0.6,5.6-1.8,8.5-5,12.5c-3.2,4-7.4,6.3-13,7.6c0,0-0.9,0.1-1.3-1.1"/>
	<path class="st0" d="M207.5,164.5c0,0,2.7-1.7,5.1,1.1c2.4,2.7,2.4,5.6,2.4,5.6l-0.7,10.3c0,0-0.8,3.9-4.2,3.3
		c-3.4-0.6-3.4-2.7-3.4-2.7s-0.4-2.2-1.8-2.5"/>
	<path class="st0" d="M205.8,164.9c0,0,1.2,0.6,1.6-0.5c0.4-1.2,0.5-6.2,5.9-8c0,0,5-1.2,8.8,4.3"/>
	<path class="st0" d="M214.3,156.7c0,0,7.9,6,0.7,18.5"/>
	<path class="st0" d="M205.1,175.4l2.6,1.5c0,0,0.6-0.2,0.3-1l-0.4-0.6l0.1-3c0,0,1.2-0.8,0.2-1.3c-0.9-0.5-2.4-0.9-2.7-1.9"/>
	<path class="st0" d="M170.9,155.3v-4.8c0,0,0-1.1,0.6-0.8c0.6,0.3,3.8,1.9,3.8,1.9s0.8,0.3,0.8,1s0,5.2,0,5.2"/>
	<line class="st0" x1="201.9" y1="186.9" x2="204.7" y2="188.6"/>
	<path class="st0" d="M166.8,141.6l46.5-7.2c0,0,1.7-0.4,1.7,1c0,1.4-0.9,14.2-0.9,14.2s0.4,1.3-1.5,1.7s-20.3,3.9-20.3,3.9"/>
	<polyline class="st0" points="181,149.9 197.4,146.9 198.5,147.5 198.5,152.6 190.2,154.3 	"/>
	<line class="st0" x1="182.5" y1="150.4" x2="198.5" y2="147.5"/>
	<line class="st0" x1="192.1" y1="148.7" x2="192.1" y2="153.7"/>
	<line class="st0" x1="185.7" y1="150" x2="185.7" y2="151.9"/>
	<path class="st0" d="M249.2,129l-32.2,4.9c0,0-1.4,0.3-1.4,1.5s-0.6,12.8-0.6,12.8s-0.1,1.3,1.7,1l31.4-5.8"/>
	<g>
		<g>
			<path class="st1" d="M220.5,150.8l-0.8,0.2c0,0-0.9,0.2-0.3,0.3c0.6,0.2,1.4,0.3,1.4,0.3s1.3,0.4,1.6,0.8c0.3,0.3,1,0.3,1.3,0.2
				c0.3-0.1,2-0.4,2-0.4l3.8-0.2c0,0,0.9,0.1,0.8-0.5c-0.1-0.6-0.4-2-0.4-2s-0.1-0.4-0.8-0.3C228.5,149.2,220.5,150.8,220.5,150.8z"
				/>
			<path class="st1" d="M221.2,151.6c0,0,0-0.5,1.2-0.9l0.1,1.4l3.3-0.6c0,0,1.5-0.2,2.5,0.2"/>
			<path class="st1" d="M228.3,151.8c0.9-0.3,0.4-0.9,0.4-0.9c-0.6-0.8-3.2-0.8-3.2-0.8l0.2,1.3"/>
			<polyline class="st1" points="217.2,151.9 218.7,152.3 219.4,153.1 220.9,154.1 221,156.7 220.3,156.8 			"/>
			<path class="st1" d="M221,154.7l1.1,0.6c0,0,0.9,0.3,2,0.1c1-0.2,6.8-1.7,6.8-1.7s0.6-0.2,0.6-0.6s0-1.5,0-1.5"/>
			<path class="st1" d="M249.7,145.4l-0.8-0.7l-33.8,6.6l0.2,1.5l0.5,0.4l1.4-0.2l0.4,0.3l0.1,1.4l2.7,2l-0.1-2.6l-2.1-1.3
				c0,0-0.3-0.7-2.1-0.8c0,0-0.5-0.4,0.3-0.4c0.8-0.1,1.6-0.2,1.6-0.2l2.3,0.5l1.5,0.8c0,0,0.9,0.4,2.2,0.1c1.3-0.3,1.9-0.5,1.9-0.5
				l3.9-0.2l1.1-0.2c0,0,0.6-0.1,0.6-0.8c-0.1-0.7-0.4-1.9-0.4-1.9s-0.3-0.3,0.5-0.4C232.4,148.8,249.7,145.4,249.7,145.4l0,1.5
				l-18.1,3.6"/>
			<polyline class="st1" points="249.9,146.2 251.1,145.9 251.2,145.1 249.7,145.3 			"/>
			<line class="st1" x1="223.8" y1="153.1" x2="224.1" y2="155.5"/>
		</g>
		<polygon points="224.7,153.6 224.9,154.5 225.7,153.9 		"/>
	</g>
	<path class="st0" d="M214.1,149.6c0,0,2.3,1.2,4,0.9"/>
	<line class="st1" x1="252.1" y1="144.3" x2="251.9" y2="146.6"/>
	<polyline class="st1" points="222.8,176.1 225.8,175.1 226.1,172.8 223.7,173.5 	"/>
	<line class="st1" x1="226.1" y1="172.5" x2="224.4" y2="171.1"/>
	<line class="st0" x1="225.9" y1="172.2" x2="245.8" y2="165.8"/>
	<line class="st0" x1="224.5" y1="170.5" x2="244.4" y2="164.3"/>
	<path class="st0" d="M235,153.8l-1.2,11.9c0,0,0,0.6,0.7,0.5c0.7-0.2,4.4-1.2,4.4-1.2s0.8-0.3,0.9-1.1s1.1-11.3,1.1-11.3
		s0.1-0.7-0.5-0.6c-0.6,0.1-4.9,1-4.9,1S235,153.1,235,153.8z"/>
	<path class="st0" d="M240.9,152L239,151c0,0-0.7-0.4-1.3-0.3c-0.6,0.1-4.9,1-4.9,1s-0.7,0.1-0.7,0.8l-1.2,11.9c0,0-0.2,0.5,0.7,0.8
		l2.5,0.9"/>
	<line class="st0" x1="240" y1="164.3" x2="244" y2="163.2"/>
	<line class="st0" x1="224.8" y1="168" x2="233.2" y2="165.9"/>
	<line class="st0" x1="215.3" y1="170.3" x2="217.3" y2="169.8"/>
	<polyline class="st0" points="241.1,151.9 241.2,150.4 249.6,148.8 248.6,148.2 240.2,149.9 240,151.3 	"/>
	<line class="st0" x1="249.6" y1="148.8" x2="249" y2="154.6"/>
	<path class="st0" d="M249.9,148.5c0,0,0.1-0.6,0.6-1.1c0.1-0.2,0.3-0.3,0.6-0.4c0.9-0.3,1.4-0.4,1.4-0.4s2.1,0.2,2.9,1.4
		c0.8,1.2,5.2,9.1,5.2,9.1s1.2,1.8,1,3.4s-0.3,2.3-0.3,2.3l-1.8,0.4c0,0-0.4,0.3-1.4-0.1s-2.4-1-2.4-1"/>
	<path class="st0" d="M250.7,147.3c1.4,0.1,2.2,1.2,2.2,1.2l6.2,10.4c0,0,0.4,1,0.4,1.9c0,1-0.2,2.3-0.2,2.3"/>
	<path class="st0" d="M251.9,166.3l5.1,2c0,0,2.1,0.6,3-0.9"/>
	<path class="st0" d="M248.2,162.9l25.4,9.9l2.2,0.2c0,0,1.6-0.9,0.7-1.8s-1.8-1.3-1.8-1.3l-25-9.2"/>
	<polyline class="st0" points="249.7,163.9 247.6,164.4 248,160.7 250.2,160.2 246.4,158.7 244.1,159.1 243.6,162.9 247.5,164.5 	
		"/>
	<line class="st0" x1="244.1" y1="159.1" x2="247.9" y2="160.6"/>
	<path class="st0" d="M251.8,161.3l0.5-3.8c0,0,0-0.6-0.7-0.8c-0.7-0.2-5.2-1.8-5.2-1.8s-0.6,0-0.6,0.5l-0.5,3.4"/>
	<path class="st0" d="M244.7,163.5l-0.2,1.2c0,0-0.2,0.5,0.6,0.7s4.6,1.9,4.6,1.9s1.2,0.5,1.4-0.2l0.4-2.9"/>
	<path class="st0" d="M247.9,155.4c0,0,0.8-0.7,2-0.7l5,1.9"/>
	<path class="st0" d="M252.3,157.3c0,0,1.2-1.3,2.9-0.5c0,0,1.1,0.8,1,2.3c0,0,0.2,2.2-1,3.1"/>
	<path class="st0" d="M247.4,155.1l0.4-3.6c0,0,0.2-1-0.8-0.8c-1.1,0.2-3.1,0.7-3.1,0.7l-1.6,2.9l-0.3,5.4l0.8,2.3l1-0.2"/>
	<g>
		<path class="st0" d="M222.7,137.7c0,0,0.8-0.2,0.8,0.3s-0.2,4.5-0.2,4.5s0.1,0.6-0.3,0.6c-0.4,0-3.7,0.6-3.7,0.6s-0.5,0.1-0.5-0.5
			c0-0.7,0.3-4.3,0.3-4.3s0.1-0.7,0.6-0.7C220.4,138,222.7,137.7,222.7,137.7z"/>
		<path class="st0" d="M223.4,137.6l-1.4-0.6c-0.2-0.1-0.6,0-0.6,0s-2.3,0.3-2.9,0.4c-0.5,0.1-0.6,0.7-0.6,0.7s-0.3,3.7-0.3,4.3
			c0,0.2,0.1,0.4,0.1,0.5l1.4,0.7"/>
	</g>
	<g>
		<path class="st2" d="M245.3,133.4c0,0,0.7-0.2,0.7,0.3s-0.2,3.8-0.2,3.8s0.1,0.5-0.3,0.5s-10,1.6-10,1.6s-0.4,0.1-0.4-0.4
			c0-0.5,0.3-3.7,0.3-3.7s0.1-0.5,0.5-0.6C236.5,134.8,245.3,133.4,245.3,133.4z"/>
		<path class="st2" d="M245.8,133.3l-1.2-0.5c-0.2-0.1-7.3,1.1-7.3,1.1s-2,0.3-2.4,0.3c-0.4,0.1-0.5,0.6-0.5,0.6s-0.3,3.1-0.3,3.7
			c0,0.2,0,0.3,0.1,0.4l1.2,0.6"/>
	</g>
	<g>
		<path class="st0" d="M232.9,135.8c0,0,0.8-0.2,0.8,0.3c0,0.6-0.2,4.5-0.2,4.5s0.1,0.6-0.3,0.6c-0.4,0-7.8,1.4-7.8,1.4
			s-0.5,0.1-0.5-0.5c0-0.7,0.3-4.3,0.3-4.3s0.1-0.7,0.6-0.7C226.5,137.1,232.9,135.8,232.9,135.8z"/>
		<path class="st0" d="M233.5,135.8l-1.4-0.6c-0.2-0.1-0.6,0-0.6,0s-6.4,1.2-7,1.3c-0.5,0.1-0.6,0.7-0.6,0.7s-0.3,3.7-0.3,4.3
			c0,0.2,0.1,0.4,0.1,0.5l1.4,0.7"/>
	</g>
	<line class="st0" x1="229.7" y1="136.6" x2="229.3" y2="141.8"/>
	<line class="st2" x1="240.7" y1="134.2" x2="240.3" y2="138.6"/>
	<path class="st2" d="M250.7,128.3l8.3,1.8c0,0,0.4,0.1,0.4,0.7c0,0-0.9-0.2-1,0.2l-0.3,1.1c0,0-0.3,0.8-1.3,0.5
		c-0.9-0.3-6.8-1.7-6.8-1.7l-0.5-0.6l0.2-1.5C249.7,128.7,250,128.4,250.7,128.3z"/>
	<line class="st2" x1="259.4" y1="130.9" x2="290.8" y2="138.5"/>
	<line class="st2" x1="257.9" y1="132.6" x2="288.9" y2="140.3"/>
	<path class="st2" d="M250,130.9l-0.1,1.5c0,0-1.2,1.3-1.3,2.2l-0.2,2.4l0.6,1.4l-0.1,2.1"/>
	<path class="st2" d="M272.5,136.3c0,0,1.7,0.5,1.5,1.6l-1.4,8.4c0,0-0.2,1.1-1.1,0.8l-5.7-1.6c0,0-1.1-0.3-1-1.1v-0.5l-13.8-4
		l-0.1-0.2l-0.1-0.7l-0.8-1.5l0.4-2.7l1.1-1.6l0.1-0.8l14.1,3.6c0,0,0.5-1.2,2-1"/>
	<path class="st2" d="M252.6,132.8c0,0-2.8,3.3-0.6,7"/>
	<path class="st2" d="M305.4,136.5l-6.7-1.6c0,0-7.2-0.5-13,11.3c-5.8,11.8,2.4,15.9,2.4,15.9l5.5,1.7c0,0,3.6,0.9,7.1-2l1-4.6"/>
	<path class="st2" d="M249.5,141.2l6.8,1.8l-0.1,1.5l0.9,0.3l-0.1,0.6l-0.6,0.1l-7.9-2.4c0,0-1.1-1.7,0.5-2.1"/>
	<line class="st2" x1="257.7" y1="145" x2="283.4" y2="152.7"/>
	<line class="st2" x1="256.6" y1="143.3" x2="283.6" y2="151.4"/>
	<path class="st2" d="M288.4,141.3l-11.8-3c0,0-1.2-0.2-1.4,0.9c-0.2,1.2-1.2,6.3-1.2,6.3s0.1,1.3,1.2,1.6s9,2.5,9,2.5"/>
	<path class="st2" d="M292.7,137.4c0,0,2.2-1.2,3.7-0.2s0.1,1.9,0.1,1.9s-4.1,2.4-6.3,16.7c0,0,0,6.2,3.9,7.4c0,0,2,0.8,4-1.6"/>
	<path class="st2" d="M292.1,159c2.1-0.8,3.1-7.8,3.1-7.8l6.4,1.7l-0.8,3.2c-1.6,7-5.9,6.5-5.9,6.5c-5.6-1.7-3.5-10.9-3.5-10.9
		c1.4-5.5,3.7-9,5.8-11.1c2.7-2.7,5.1-3.2,5.1-3.2c3.5-1.2,2.9,0,2.9,0l-0.7,5.6v5.8c0,0-1,2.6-1.3,3.5c-0.3,0.9-1.2,0.8-1.2,0.8
		l-9.4-2.8c0,0,1-1.8,1.5-2.8s1.5-1.2,1.5-1.2l6.1,1.6c0,0-0.7,0.4-0.7,1c0.1,0.6,0.9,2.9,0.9,2.9l0.7-2.5l-1.3-0.4"/>
	<path class="st2" d="M297.3,140.6c1.2,5.6,4.6,2.9,4.3,3l-3.4-1.1"/>
	<path class="st2" d="M295.5,145.7c0,0,0.3-0.5,1.4-0.2c1.1,0.3,4.4,1.1,4.4,1.1s1.3,0.5,0.9,2.1"/>
	<path class="st2" d="M291.3,155.2c0,0,2,0.7,3.2-0.8"/>
	<path class="st2" d="M304.6,143c0,0,1.7-1.1,4.4,0.1s3.5,4.3,3.5,4.3l-2.1,9.8c0,0-2,2.7-5,1.9c-2.9-0.8-3-1.5-4.5-3"/>
	<path class="st2" d="M304.8,145.5c0,0,0.4-1.1,2.7-0.6s2.3,3.2,2.3,3.2l-1.7,8c0,0-1.3,2.1-4.5,0.8c0,0-1.7-2.7-2.1-2.7"/>
	<path class="st2" d="M253.3,133"/>
	<ellipse class="st2" cx="271.1" cy="138.4" rx="1.1" ry="1.2"/>
	<ellipse class="st2" cx="270.2" cy="144.4" rx="1.1" ry="1.2"/>
	<line class="st2" x1="195.4" y1="156.7" x2="200.6" y2="155.6"/>
	<polyline class="st1" points="251.1,144.9 250.2,144.5 248.9,144.7 	"/>
	<line class="st1" x1="165.2" y1="181.2" x2="178.5" y2="178.4"/>
	<line class="st1" x1="165.2" y1="182.3" x2="179.1" y2="179.7"/>
	<line class="st1" x1="166.5" y1="184.6" x2="181.7" y2="181.6"/>
	<path class="st0" d="M12.1,167.3"/>
	<line class="st0" x1="161.5" y1="154.9" x2="161.5" y2="163.5"/>
	<line class="st0" x1="25.1" y1="217.2" x2="23.4" y2="210.1"/>
</g>
<g id="Left_Unit">
	<path class="st3" d="M34.7,202.7l-0.4,0.5c13,3.5,17.3,14.2,17.3,14.2l1.1,6l0.6,6c0,0-0.9,11-9.3,18.3c-11.5,8.2-18,8.7-23,10.4
		c-5,1.7-5.8-1.6-5.8-1.6l0.1-1.2l-0.8-0.8l-2.1-5.8c0,0-1.8-6.8-2.9-12.5s-1.1-9.7-1.1-9.7l-3.2-12.9l0.5-6.2c0,0,1.2-1.8,4.8-2.5
		l0.7-15l-3.1-14.1l3.6-11.8l140.7-21.2l16.1,6.9l0.6,3.6l3.7,1.7l1.3,1.8l21.9,11.5l1.3,0.3l8.8-2.3l6.2,2.9l1,1.7l-0.1,6.6l0.4,1
		c0,0,3.5,0,5.2,4.7l0.5,3.3l-0.5,11.2c0,0-0.4,4.7-4.2,4.3l-2.8-1.3c0,0,0.4,4.1-2.2,5.2c-2.6,1.2-5.9,2.3-5.9,2.3s-7.3,1-13.4-4
		s-7-12.9-7-12.9s-0.9-4.5,1.3-9.3l-1.6-0.1l-8.9-5.8l-1.5-0.1c0,0-1.4-0.1-2.6-1.2c-1.3-1.1-2.6-2-2.6-2l0.3,3.5l-9.2,11.6l9.2,2.4
		c0,0,1.2,0.4,1.1,1.8s0.1,2.9,0.1,2.9l-1.8,4.8l0.1,4.1c0,0-0.2,1.4-1,1.4c-0.9-0.1-11.4-0.4-11.4-0.4l-0.9,1.4l-5.1-1.8l-6.1-0.5
		l-3.8-3.4l-3.2-1.9c0,0-1.5-1.3-0.2-2.8l14.2-15.6l-51.8,9.6l0.6,0.6l1.7-0.1l0.6,4l-8.3,1.3c0,0-2.2-0.4-3.5-1.2
		c-1.3-0.9-3.4-1.9-3.4-1.9L34.7,202.7 M18.9,212.4l-0.2,26.3c1.5,6.9-0.3,11.9-0.3,11.9c8.8-1,17-5.5,17-5.5
		c12.9-6.1,14.3-19.6,14.3-19.6l-0.3-2.2c-1.7-4.4-6.4-8-6.4-8c-12.1-8.7-23.3-4.1-23.3-4.1L18.9,212.4z"/>
	<g>
		<g>
			<line class="st4" x1="19" y1="223" x2="24.6" y2="221.7"/>
			<path class="st4" d="M8.1,205.3"/>
			<polyline class="st4" points="11.6,164.1 8.1,175.8 11.2,190.5 			"/>
			<line class="st4" x1="10.6" y1="204.3" x2="11.6" y2="182.7"/>
			<line class="st4" x1="9.7" y1="222.7" x2="10.2" y2="211.9"/>
			<line class="st4" x1="12.2" y1="204" x2="13.5" y2="182.4"/>
			<path class="st4" d="M10.2,182.3l0.6-6c0,0,1.1-0.9,3.4-0.6c0,0,0.7,0.2,0.9,0.8l0.4,2.8l0,5.3l-0.6-2.6c0,0-0.3-0.8-1.5-0.6
				l-2.2,0.1c0,0-1.4,0.4-1.2,1.6l0.9,4.1"/>
			<path class="st4" d="M15.1,255.7c0.4,3.3,4,2.8,4,2.8c15.6-3.2,24.7-10.5,24.7-10.5s11.8-10.9,9.2-22.8c-0.5-2.3-1.6-4.7-3.4-7
				C38.5,203.9,20,207.5,20,207.5s-7.4,2-10.8,3c-3.4,1-3.9,2.7-3.9,2.7l0.6-5.7c0,0,0.9-1.4,3.4-2.2s8.9-2.6,8.9-2.6
				s12.1-2.8,22.2,2.8c0,0,8.9,5,11.4,12.2l1.3,7.1"/>
			<path class="st4" d="M16.8,255.7c0,0,0.1,1.9,2,1.6c1.9-0.3,20.4-4.4,26.8-13.6c0,0,9.8-10.9,5.2-21.3c0,0-4.2-11.2-20.3-13.9
				c0,0-4.3-1.1-10.8,0.3L9,212c0,0-2.7,0.5-2,3.5c0.7,3,1.9,7.8,1.9,7.8"/>
			<line class="st4" x1="8.2" y1="225.8" x2="5.2" y2="213.2"/>
			<path class="st4" d="M8.2,212.5"/>
			<path class="st4" d="M12.5,223.9c0,0-3.5-3.4-4,2.6c0,0-0.9,6.9,5.6,26.9c0,0,1,3.6,3.8,1.4l1-5.5c0,0,0.9-5.5-0.2-10.6l0.4-27"
				/>
			<path class="st4" d="M11.1,222.6c0,0-1.2-13.2,14.5-14.2"/>
			<path class="st4" d="M12.7,223.6c0,0-1.4-14.6,15.7-13.8c0,0,20,0.4,22.9,20.1"/>
			<path class="st4" d="M18.9,211.5c0.9,3.4,1.6,6.4,1.6,6.4l1.3-0.4l-1.6-6.6"/>
			<line class="st4" x1="16.5" y1="200.3" x2="17" y2="193.3"/>
			<path class="st4" d="M19,250.6c0,0,16-2.5,24.5-11.6c0,0,5.9-6.3,6.2-14.8"/>
			<path class="st4" d="M34.4,202.8l51.4-9.9l4.4,2.4c0,0,1,1,3,0.6c2-0.3,7.9-1.2,7.9-1.2l-0.5-3.8"/>
			<path class="st4" d="M31.8,202.3l50.9-10.1l2.3-2.7l1-0.1l4,2.5c0,0,1.1,0.9,3,0.6c1.9-0.3,6.8-0.9,6.8-0.9s1,0,0.7-0.8l-1.7,0.1
				l-4.9-3c0,0-0.1-0.9,1.4-1.1l-10.8,1.9L82,191l-55.5,10.8"/>
			<path class="st4" d="M89.2,188.5l1.6-0.2c0,0,0.8-0.2,1.7,0.3c0.8,0.5,3.1,1.8,3.1,1.8s0.8,0.4,0.2,0.6c-0.6,0.2-2.9,0.5-2.9,0.5
				s-0.5,0.1-1.2-0.3c-0.8-0.4-3.3-2-3.3-2S87.9,188.7,89.2,188.5z"/>
			<path class="st4" d="M173.6,156.8l0-1.1c-2-0.3-1.9,1.1-1.9,1.1v1.8l-0.7,0.1c0,0-4.8-2.4-5.4-2.7s-0.7-1.7-0.7-1.7
				c-0.2-1.3,0.2-1.6,0.2-1.6c0.9-0.8,2-0.5,2-0.5l6.4,3.1"/>
			<path class="st4" d="M167.9,158.5l10.8,5.8c0,0,0.1-1.1,1.2-0.9"/>
			<polygon class="st4" points="167.3,159 166,160.9 166,164.6 167.7,166.1 167.7,167.4 167.2,167.3 167,166.6 166.1,166 
				164.5,164.1 164.5,160.4 165.9,158.2 			"/>
			<line class="st4" x1="200.2" y1="174.1" x2="202.3" y2="175.2"/>
			<line class="st4" x1="171.7" y1="158.7" x2="193.3" y2="170.4"/>
			<line class="st4" x1="172.4" y1="156.2" x2="196.7" y2="168.8"/>
			<path class="st4" d="M190.6,187l10.3,6.7c0,0,1.9,1.5,2.9,0"/>
			<path class="st4" d="M173.6,176c-1.7,0.6-2.3-0.2-2.3-0.2s-5.2-3.4-5.8-3.8c-0.6-0.4-0.5-0.8-0.5-0.8s0-0.9,0-1.4s1-0.6,1-0.6
				l5.4,3.6c0,0,0.4,0.4,0.4,1s0,1.4,0,1.4s0.2,0.4,0.9,0.3l11.2,7.2"/>
			<path class="st4" d="M191.5,185.3l9.8,6.2c0,0,1,0.8,1.1-2.4"/>
			<line class="st4" x1="171.8" y1="173" x2="184.8" y2="181.2"/>
			<path class="st4" d="M213,178c0,0,0.3-5.9,0.3-7s-1-1.7-1-1.7l-6.2-2.9c0,0-11.1,1.7-14.9,6.2c-3.8,4.5-9.2,10.9-8.3,19.4
				c0,0,0.8,7.8,9.2,13.6c0,0,7.1,4.2,12.5,2.2l5.6-2.2c0,0,1.7-0.4,1.5-5.3"/>
			<path class="st4" d="M211.7,178.3l0.5-7.1c0,0,0-1.3-1.7-0.8c0,0-13.3,0.9-18.8,13.6c0,0-4.5,8.3,0.3,17.9c0,0,3.1,5.1,10.6,4.5
				c0,0,6-0.8,6.9-9.8l0.2-2.2l0.5-0.3l0-1.1c0,0,2.1-6,1-13.8L211.7,178.3z"/>
			<path class="st4" d="M192.8,171.9c0,0,2.6-2.2,4.8-1.7c0,0,2,1,0.1,2.5c0,0-5.1,4.5-6.8,8.6c-1.7,4.2-4.3,9-1.2,19.2
				c0,0,2.2,5.5,9,6.6c0,0,9.9,2.2,11.3-9.4"/>
			<path class="st4" d="M203.8,190.2c0,0,1,5.9-2.1,9.4c0,0-3.4,5-9.3,2.4"/>
			<path class="st4" d="M174.1,157.3"/>
			<path class="st4" d="M203.3,172.3c0,0,1.8,1,2.3,3.2s2.8,2.9,2.8,2.9s0,2.2-2.2,0.6c0,0-1.8-1.4-2.1-4.6c0,0-1.7-1.1-1.9,1.5
				c-0.2,2.7-0.6,7.6-0.6,7.6l-1.4,3.2c0,0-0.1,1.2,1,1.7c1.1,0.4,6.8,4,6.8,4"/>
			<path class="st4" d="M202,182.8c0,0,0.6-0.9,2-0.6l4.9,2.6l0.2,1.4c0,0-0.9-0.1-1.3,0.4c-0.1,0.1-0.1,0.2-0.1,0.4l0.7,4.2
				c0,0,0.9,0.6,1-0.4s0.1-2.8,0.1-2.8s0.2-0.9-1.2-1"/>
			<path class="st4" d="M209.5,196.1l1.5,3.3c1.5,3.1,4.8,2.6,4.8,2.6c2.6-0.2,3.1-4.3,3.1-4.3l0.5-11.9c-0.6-6.2-5-7.4-5-7.4
				c-2.6-0.3-2.8,1-2.8,1s4.5,0.7,5.8,5.2c0,0,0.4,1.4,0.4,2.9c0,1.3-0.5,10.4-0.5,10.4s-1.3,2.6-4,1.2c0,0-1.3-0.8-2-2.6
				c-0.8-1.9-1.2-2.4-1.2-2.4"/>
			<path class="st4" d="M211.6,185.5l1.5,0.8c0,0,0.7,0.8-0.2,1l-1.3,0.1"/>
			<path class="st4" d="M210.8,191.5l1.8,0.1c0,0,1.5,0.9,0.1,1.2l-1.2-1"/>
			<path class="st4" d="M11.4,223.8c0,0-1,0.2-0.3,6.6c0.7,6.4,1.5,9.4,1.5,9.4l3.6,13.1c0,0,1,1.2,1.6,0"/>
			<polyline class="st4" points="15,233.6 13.3,234.7 14.7,239.9 16.2,239.2 			"/>
			<path class="st4" d="M150,184.9"/>
			<path class="st4" d="M167,192.9"/>
			<path class="st4" d="M82.5,189.4c0,0-53.9,10.3-56.3,10.8c-2.5,0.5-3-0.8-3-0.8s-4.1-18.6-4.6-20.9c-0.5-2.4,1-2.6,1-2.6l83-13
				c0,0,2.3-0.5,2.6,1.8l1.6,18.1c0,0,0.5,1.9-1.8,2.3c-2.3,0.4-9.3,1.6-9.3,1.6"/>
			<path class="st4" d="M27,176.3l14.8-2.5c0,0,1.2-0.1,1.4,1.2c0.2,1.2,1.3,7.3,1.3,7.3s0.2,1.3-1,1.5s-14.8,2.6-14.8,2.6
				s-1.1,0-1.3-1.2s-1.5-7.9-1.5-7.9S25.6,176.6,27,176.3z"/>
			<path class="st4" d="M28.9,189.3l47.1-8.5c0,0,1.2-0.1,1.4,1.2c0.2,1.2,0.6,5.3,0.6,5.3s0.2,1.3-1,1.5
				c-1.2,0.2-46.6,9.1-46.6,9.1s-1.1,0-1.3-1.2c-0.2-1.2-1.2-6.3-1.2-6.3S27.6,189.6,28.9,189.3z"/>
			<path class="st4" d="M47.2,173.1l13.5-2.3c0,0,1.1-0.1,1.3,1.1c0.2,1.2,1.2,7.1,1.2,7.1s0.2,1.3-0.9,1.4
				c-1.1,0.2-13.5,2.4-13.5,2.4s-1,0-1.2-1.2c-0.2-1.2-1.3-7.7-1.3-7.7S46,173.4,47.2,173.1z"/>
			<line class="st4" x1="40.9" y1="187.1" x2="42.5" y2="195"/>
			<line class="st4" x1="53.1" y1="185" x2="54.7" y2="192.9"/>
			<line class="st4" x1="65.3" y1="182.9" x2="66.9" y2="190.8"/>
			<path class="st4" d="M164.4,153.1l-56.6,8.7c0,0-1.7,0.5-1.4,2.8l0.6,9.3l1.1,1l0.4,6.1c0,0-0.1,2,1.8,2l55.2-10.5"/>
			<g>
				<path class="st4" d="M112.5,167.5l6.6-1c0,0,0.7-0.2,0.8,0.5c0.1,0.7,0.6,5.9,0.6,5.9s0.2,0.8-0.7,1c-0.9,0.2-6.2,1.1-6.2,1.1
					s-0.8,0-0.8-0.7s-0.5-6-0.5-6S112,167.7,112.5,167.5z"/>
				<path class="st4" d="M119.7,166.6l-1.3-1.2c-0.2,0-0.3,0-0.3,0l-6.6,1c-0.5,0.2-0.4,0.7-0.4,0.7s0.5,5.3,0.5,6
					c0,0.2,0.1,0.4,0.2,0.5l1,1.2"/>
			</g>
			<g>
				<path class="st4" d="M123,165.9l13.7-2.4c0,0,0.7-0.2,0.8,0.5s0.6,5.9,0.6,5.9s0.2,0.8-0.7,1c-0.9,0.2-13.4,2.4-13.4,2.4
					s-0.8,0-0.8-0.7c0-0.7-0.5-6-0.5-6S122.5,166,123,165.9z"/>
				<path class="st4" d="M139.7,161.5l17.7-3.1c0,0,0.7-0.2,0.8,0.5s0.2,5.5,0.2,5.5s0.2,0.8-0.7,1c-0.9,0.2-17.1,3.1-17.1,3.1
					s-0.8,0-0.8-0.7s-0.4-5.6-0.4-5.6S139.2,161.7,139.7,161.5z"/>
				<path class="st4" d="M137.4,163.6l-1.3-1.2c-0.2,0-0.3,0-0.3,0l-13.7,2.4c-0.5,0.2-0.4,0.7-0.4,0.7s0.5,5.3,0.5,6
					c0,0.2,0.1,0.4,0.2,0.5l1,1.2"/>
			</g>
			<path class="st4" d="M126.5,165.4"/>
			<path class="st4" d="M123,168.9"/>
			<line class="st4" x1="130.6" y1="171.8" x2="130.2" y2="164.7"/>
			<path class="st4" d="M69.5,172.4l9.6-1.6c0,0,0.7,0,0.8,0.7s0.6,4.8,0.6,4.8s0.2,0.7-0.7,0.8s-9.3,1.7-9.3,1.7s-1.1,0.2-1.2-0.7
				s-0.7-5-0.7-5S68.6,172.4,69.5,172.4z"/>
			<path class="st4" d="M86.7,169.9l12-2c0,0,0.7,0,0.8,0.7c0.2,0.8,0.6,4.8,0.6,4.8s0.2,0.7-0.7,0.8c-0.9,0.2-11.8,2.1-11.8,2.1
				s-1.1,0.2-1.2-0.7s-0.7-5-0.7-5S85.8,169.9,86.7,169.9z"/>
			<polyline class="st4" points="36.4,174.9 36.8,176.3 37.7,176.1 37.9,177.4 40.4,177 41.4,182.2 30.4,184.1 29.3,178.9 
				31.7,178.4 31.4,177.2 32.6,177 32.3,175.7 			"/>
			<polyline class="st4" points="56.1,171.9 56.5,173.3 57.4,173.2 57.6,174.4 60.1,174.1 61.1,179.2 50.1,181.1 49,175.9 
				51.4,175.5 51.1,174.2 52.3,174 52,172.7 			"/>
			<path class="st4" d="M71.6,173.9L77,173c0,0,1.1,0,1.2,1.2c0.1,1.2-0.9,1.2-0.9,1.2l-5.4,1c0,0-1,0.2-1.3-0.9
				C70.3,174.3,71.6,173.9,71.6,173.9z"/>
			<path class="st4" d="M88.5,170.9c0,0-1,0.2-0.9,1c0.1,0.8,0.3,2.2,0.3,2.2s0,0.7,0.9,0.6c0.8-0.1,8.4-1.5,8.4-1.5s0.8-0.3,0.7-1
				c0-0.8-0.3-2-0.3-2s0-0.8-1.1-0.6C95.7,169.7,88.5,170.9,88.5,170.9z"/>
			<line class="st4" x1="149.5" y1="159.8" x2="149.5" y2="166.9"/>
			<line class="st4" x1="165.7" y1="165.8" x2="165.7" y2="169"/>
			<line class="st4" x1="165.7" y1="156.2" x2="165.7" y2="158.2"/>
			<polyline class="st4" points="8.3,175.7 169,150.2 169,152.8 			"/>
			<path class="st4" d="M21.8,201.6"/>
			<line class="st4" x1="16.1" y1="203" x2="13.1" y2="191.8"/>
			<polyline class="st4" points="15.5,184.6 14.3,184.8 16.1,186.3 18.2,196.6 18.1,202.7 			"/>
			<path class="st4" d="M15.6,184.5c0,0,1.7,1.1,1.9,2.1c0.2,0.9,1.9,9.6,1.9,9.6l-0.1,6"/>
			<path class="st4" d="M170.1,153.8"/>
		</g>
	</g>
	<path class="st4" d="M111,183.6c0,0,1.4,0.9,4.7,0.2s36.1-6.9,36.1-6.9"/>
	<line class="st4" x1="96.4" y1="189" x2="150.3" y2="178.8"/>
	<line class="st4" x1="97.7" y1="190.3" x2="150.2" y2="180.2"/>
	<line class="st4" x1="168.9" y1="150.1" x2="152.2" y2="142.6"/>
	<path class="st4" d="M8.1,175.8"/>
	<path class="st4" d="M167.7,167.4l3.4,2.5l2.3,1.7l0.8-0.1l4.2,2.8c0,0,0.3,1.1,0.6,1.8s4.5,3.3,4.5,3.3s1.9,1.3,2-0.4
		c0,0,0.2-8.3,0.2-10.5s-1.2-2.8-1.2-2.8"/>
	
		<ellipse transform="matrix(0.995 -9.988263e-02 9.988263e-02 0.995 -15.9161 19.1079)" class="st4" cx="182.9" cy="168.5" rx="1" ry="1.6"/>
	
		<ellipse transform="matrix(0.995 -9.988263e-02 9.988263e-02 0.995 -16.6884 19.1466)" class="st4" cx="182.9" cy="176.2" rx="1" ry="1.6"/>
	<line class="st4" x1="174" y1="161.9" x2="174" y2="171.6"/>
	<path class="st4" d="M169.3,159.4l0,1.6l1.8,1.6c0,0,0.7,0.5,0.7,1c0,0.5,0,4.3,0,4.3s-0.9-0.7-1.5-0.2c0,0-1,0.2-1.6-0.6v-3.2
		c0,0,0.4-0.6,1.1-0.5l0.9-0.1"/>
	<g>
		<path class="st4" d="M164.5,174.4l-11,2.4l-17.7,19.5c0,0-1.3,1.6,0.6,2.8s3.6,1.9,3.6,1.9s1.1,0.6,2.5,0.1"/>
		<polyline class="st4" points="149.1,204.4 149.1,201.6 154,203.3 154,206.6 		"/>
		<polyline class="st4" points="154.9,204.9 154.9,201.5 149.1,201.5 		"/>
		<line class="st4" x1="154.1" y1="203" x2="154.7" y2="201.6"/>
		<path class="st4" d="M142.7,201.3l4,0c0,0,5.7-1,7.2-1.3c1.5-0.3,2.8-0.4,2.8-0.4l10.2,0l0.4,0.5c0,0,0.1,3.7,0.1,4.4
			c0,0.7-0.8,0.9-0.8,0.9l-8.6-0.2l-3.2-0.1l-0.6,1.5l-5.1-1.8l-6.3-0.5l-0.5-3.3l23.1-27.1l2.4-0.2c0,0-9.6,12-10.5,13
			s0.2,1.4,0.2,1.4s8.7,2.1,10.3,2.5c1.6,0.4,1.2,1.5,1.2,1.5s-1.4,2.8-2.1,4.1s-2.8,1.2-2.8,1.2l-7.1,0c0,0-8.6,1.3-9.8,1.9
			c-1.2,0.5,0.1,0.9,0.1,0.9l8.6-1.4l10.9,0l0.5,0.5"/>
		<polyline class="st4" points="158.7,188.1 167.9,176.5 167.9,173.8 		"/>
		<polyline class="st4" points="169.1,191.6 169.1,195.2 167.3,200.2 		"/>
		<path class="st4" d="M147.6,197l6.6-7.9c0,0,0.6-0.7,1.4-0.5c0.8,0.2,10.8,2.5,10.8,2.5s0.7,0.2,0.5,0.7c-0.2,0.5-2.5,4.4-2.5,4.4
			l-6.4,0l-9.8,1.5C148.2,197.7,146.8,198.1,147.6,197z"/>
		<path class="st4" d="M165.2,194.2c0,0-0.1-1.9-4.5-2.7c-4.4-0.8-8.9,1-8.9,1l0.1,2.9c0,0,6.4-3.1,12.4,0.3"/>
		<path class="st4" d="M149.6,195.1c0,0,0.3,1.5,1.8,1.9"/>
		<line class="st4" x1="152" y1="195.5" x2="151.1" y2="196.6"/>
		<line class="st4" x1="158.4" y1="199.8" x2="158.4" y2="205.1"/>
		<line class="st4" x1="159.8" y1="199.9" x2="159.8" y2="205.3"/>
		<line class="st4" x1="161.1" y1="200.1" x2="161.1" y2="205.4"/>
		<line class="st4" x1="162.5" y1="199.9" x2="162.5" y2="205.3"/>
		<line class="st4" x1="163.8" y1="200" x2="163.8" y2="205.3"/>
		<line class="st4" x1="165.2" y1="200.1" x2="165.2" y2="205.4"/>
		<line class="st4" x1="142.8" y1="204.4" x2="139.3" y2="200.9"/>
	</g>
	<path class="st4" d="M14,227.8c2.9,8.2,3.3,14.6,3.3,14.6s-0.5,2.4-0.2,4.5c0.3,2.1-0.2,1.7-0.2,1.7l-1.3-3.6
		c-4.1-10.9-2.8-17.6-2.8-17.6l0.8-0.5l-0.6-2.7l2.4-9.6"/>
</g>
<g id="CallOut">
	<g>
		<g>
			<polyline class="st5" points="107.6,200.7 85.1,194.8 84.9,192.4 93,193.3 85.1,183.5 84.9,181.2 99.3,180.9 107.4,190.9 
				115.2,187.2 115.2,189.4 107.6,200.7 			"/>
		</g>
		<g>
			<polyline class="st5" points="62.8,184.3 85.4,188.1 85.4,190.3 77.5,191.7 85.2,199.4 85.4,201.6 71.2,204.2 63.1,194.2 
				55.2,195.6 55.2,193.4 62.8,184.3 			"/>
		</g>
	</g>
	<g>
		<g>
			<polyline class="st5" points="107.6,198.4 115.2,187.1 107.4,188.6 99.3,178.6 85.1,181.2 93,191 85.1,192.5 107.6,198.4 
				107.6,200.7 			"/>
		</g>
		<g>
			<polyline class="st5" points="62.8,182 85.4,188 77.5,189.4 85.4,199.3 71.2,201.9 63.1,191.9 55.2,193.3 62.8,182 			"/>
		</g>
	</g>
	<g>
		<circle class="st6" cx="198.3" cy="76.6" r="72.8"/>
		<g>
			<path class="st3" d="M151.2,72.2l93.2-18.3v5.2l-51.4,11l0.2,5.9c0,0,0.3,2.7-4,3.2l-15.9,3.9c0,0-5.5,0.1-7.1-2.2v5.2l-1.8,0.2
				l-6.8-5.4v-4.2l-1.8-0.1l-2.8,0.7l-1.5-1.8L151.2,72.2z"/>
			<g>
				<g>
					<defs>
						<circle id="SVGID_1_" cx="198.3" cy="76.6" r="72.8"/>
					</defs>
					<clipPath id="SVGID_00000074401232966729830960000012440875148881830591_">
						<use xlink:href="#SVGID_1_"  style="overflow:visible;"/>
					</clipPath>
					<g style="clip-path:url(#SVGID_00000074401232966729830960000012440875148881830591_);">
						<g>
							<path class="st0" d="M235.5-34.4c0,0,154.2,35,156.6,35.6s1.5,1.4,1.5,1.4S31.4,57.8,26.3,58.5s-4.4-2.7-4.4-2.7l13.4-75.5
								L235.5-34.4z"/>
							<line class="st0" x1="21.8" y1="56.9" x2="30.2" y2="98.7"/>
							<line class="st0" x1="30.2" y1="58.5" x2="34.3" y2="78.6"/>
							<line class="st0" x1="33.6" y1="97.3" x2="35" y2="67.9"/>
							<line class="st0" x1="32.4" y1="122.3" x2="33.1" y2="107.6"/>
							<line class="st0" x1="35.8" y1="96.9" x2="37.6" y2="67.5"/>
							<path class="st0" d="M33.1,67.4l0.9-8.1c0,0,1.5-1.2,4.7-0.8c0,0,1,0.2,1.2,1l0.6,3.8l0,7.1L39.5,67c0,0-0.4-1.1-2-0.8
								l-2.9,0.2c0,0-1.9,0.6-1.6,2.2l1.2,5.6"/>
							<path class="st0" d="M39.8,167.1c0.6,4.5,5.5,3.8,5.5,3.8c21.2-4.3,33.5-14.3,33.5-14.3s16-14.8,12.4-31
								c-0.7-3.2-2.2-6.4-4.6-9.6c-15.1-19.4-40.2-14.4-40.2-14.4s-10.1,2.7-14.7,4s-5.3,3.6-5.3,3.6l0.8-7.8c0,0,1.2-1.9,4.6-2.9
								s12.1-3.5,12.1-3.5s16.4-3.8,30.2,3.8c0,0,12.1,6.8,15.4,16.6l1.7,9.6"/>
							<path class="st0" d="M42,167c0,0,0.1,2.5,2.7,2.2c2.6-0.4,27.7-6,36.3-18.4c0,0,13.3-14.8,7-28.9c0,0-5.7-15.2-27.5-18.8
								c0,0-5.8-1.4-14.7,0.4l-14.4,4.2c0,0-3.6,0.6-2.7,4.7c0.9,4,2.6,10.5,2.6,10.5"/>
							<line class="st0" x1="30.3" y1="126.5" x2="26.3" y2="109.3"/>
							<path class="st0" d="M30.4,108.4"/>
							<path class="st0" d="M36.2,123.9c0,0-4.7-4.6-5.4,3.5c0,0-1.2,9.4,7.6,36.5c0,0,1.4,4.8,5.1,1.9l1.4-7.4"/>
							<path class="st0" d="M34.3,122c0,0-1.6-17.9,19.7-19.3"/>
							<path class="st0" d="M36.4,123.5c0,0-2-19.9,21.4-18.8c0,0,27.1,0.6,31.1,27.2"/>
							<path class="st0" d="M46.7,141.1l1.4-0.5l-1.3-5.1c0,0-0.3-2.6-4.3-1.2c0,0-3.2,0.7-2.2,4.3c0.9,3.6,5.2,20.6,5.2,20.6
								l1.7-0.5l-5.1-20.7c0,0,0-2,3-2.1L46.7,141.1z"/>
							<path class="st0" d="M39.7,135l0.4-11.6c0,0,2.3-3.5,5.7-0.8l0.3,11.1"/>
							<line class="st0" x1="226.7" y1="93.5" x2="228.1" y2="93.1"/>
							<line class="st0" x1="91.4" y1="124.7" x2="211.8" y2="96.9"/>
							<polyline class="st0" points="44,108.1 49.8,134.4 86.7,125.8 							"/>
							<path class="st0" d="M45.1,160.1c0,0,21.7-3.4,33.2-15.8c0,0,8.1-8.5,8.4-20.1"/>
							<path class="st0" d="M91.8,132.9l13-2.6c0,0,3.1-0.9,4.5,0.8c0,0,1.3,2.3,4.8,1.6c3.5-0.6,15.3-2.7,15.3-2.7l-0.1-4.4l-1-2.7
								l-2.5,0.8l-6.6-5.7"/>
							<polyline class="st0" points="49.8,134.4 48.8,136.8 49.5,141.4 84.1,134.5 							"/>
							<path class="st0" d="M92,128.4l12.4-2.4c0,0,2.5-0.8,3.6,0.2c1.2,1,1.7,1.5,1.7,1.5s1.1,1.5,4,0.9s15.8-2.9,15.8-2.9"/>
							<line class="st0" x1="48.8" y1="136.8" x2="85.8" y2="129.6"/>
							<polyline class="st0" points="86.3,127.8 63.5,132.5 86.4,127.1 							"/>
							<polyline class="st0" points="91.4,126 103.6,123.1 104.8,124 91.5,126.7 							"/>
							<path class="st0" d="M109,122.5l7.9-1.9c0,0,0.6-0.6,1.6,0.2c1,0.8,4.2,3.5,4.2,3.5s0.8,0.6-0.1,0.8c-0.8,0.2-9,1.9-9,1.9
								s-1.1,0.1-1.9-0.5s-3.6-3.3-3.6-3.3S108.2,122.6,109,122.5z"/>
							<line class="st0" x1="125.7" y1="117.8" x2="126" y2="123.2"/>
							<line class="st0" x1="128.2" y1="120.2" x2="126.4" y2="123.3"/>
							<path class="st0" d="M129,123.1l1.5-0.5l0.5,3.7l7.2,6.4c0,0-0.4-3.8-0.4-4.6c0-0.8-0.8-1.8-0.8-1.8l-3.5-3.2l-1.2-1.4
								l-5.7-3.5c-1.6-0.8,1.1-1.7,1.1-1.7"/>
							<path class="st0" d="M230.4,94.8c0,0-39,11.7-40.6,12.2c-1.6,0.5-1.3,1.2-1.3,1.2s0.2,0.8,0.5,2.3c0.2,1.5-1,2.1-1,2.1
								l-24.7,7.6l-11,1.4c0,0-0.8,0.2-4.6,1.3s-5.9-0.3-5.9-0.3l-3.4-2.8c0,0-4-1.8-4.6-2.6c-0.6-0.8-1.4-0.3-1.4-0.3l-2.7,0.7
								c0,0-1.2,0.5-0.3,1s4.9,2.6,4.9,2.6l0.9,2.1l3.4,3.2c0,0,0.4,0.5,0.5,1.5c0.1,1,0.4,4.6,0.4,4.6l-1.1,0.3"/>
							<path class="st0" d="M160.5,116.8c-1.7-1.6-6.5-1.6-6.5-1.6l-0.3-3.3c5.7-0.2,7.4,2.4,7.4,2.4c1.2,2.5-1.7,4.7-1.7,4.7
								l-7.4,0.7c0,0-3,0.8-5,1.6s-3.1-0.3-3.1-0.3l-2.5-2.3c0,0-3.4-1.9-4.5-2.5c-1-0.6,0.8-0.8,0.8-0.8l6.8-1.5
								c0,0-3.4,1.4-3.6,4.1"/>
							<path class="st0" d="M142.8,119.3c0,0,1.1-1.3,2.3-1.7l-0.4-3.6"/>
							<line class="st0" x1="145" y1="113.7" x2="184.6" y2="104.4"/>
							<path class="st0" d="M135.7,122.1c0,0,4.5,3.6,6.3,5.9c0,0,1.2,2.6,5.1,1.5c3.9-1.1,41.3-12.9,41.3-12.9s1.4-0.4,1.3-1.9
								c-0.1-1.6-0.6-4-0.6-4"/>
							<line class="st0" x1="246.8" y1="93.9" x2="255.5" y2="91.3"/>
							<line class="st0" x1="189.5" y1="110.9" x2="233.9" y2="97.7"/>
							<line class="st0" x1="143.4" y1="119.4" x2="157.7" y2="115.8"/>
							<path class="st0" d="M65.9,95.2l69.8-13.4l6,3.2c0,0,1.4,1.3,4,0.9c2.7-0.5,10.7-1.6,10.7-1.6l-0.6-5.2"/>
							<path class="st0" d="M62.4,94.5l69.1-13.8l3.1-3.6l1.3-0.1l5.4,3.4c0,0,1.5,1.2,4.1,0.8c2.6-0.5,9.2-1.3,9.2-1.3
								s1.3-0.1,1-1.1l-2.3,0.1l-6.7-4.1c0,0-0.1-1.3,1.9-1.5l-14.7,2.5l-3.3,3.4L55.1,93.9"/>
							<path class="st0" d="M140.3,75.8l2.1-0.3c0,0,1.1-0.3,2.3,0.4c1.1,0.6,4.3,2.4,4.3,2.4s1.1,0.6,0.3,0.9s-4,0.7-4,0.7
								s-0.6,0.2-1.7-0.4s-4.5-2.7-4.5-2.7S138.6,76.1,140.3,75.8z"/>
							<path class="st0" d="M254.9,32.8l0-1.5c-2.7-0.4-2.6,1.5-2.6,1.5v2.5l-0.9,0.1c0,0-6.5-3.2-7.4-3.7s-1-2.3-1-2.3
								c-0.2-1.7,0.3-2.2,0.3-2.2c1.2-1.1,2.7-0.7,2.7-0.7l8.7,4.2"/>
							<path class="st0" d="M246.6,34.7l15.3,8.2c0,0,0.1-1.5,1.6-1.2"/>
							<polygon class="st0" points="246.4,35.7 244.6,38.3 244.7,43.3 247,45.4 247,47.2 246.2,47 246,46.1 244.7,45.2 242.6,42.7 
								242.6,37.6 244.5,34.7 							"/>
							<line class="st0" x1="291" y1="56.2" x2="294" y2="57.8"/>
							<line class="st0" x1="252.3" y1="35.3" x2="281.8" y2="51.2"/>
							<line class="st0" x1="253.3" y1="32" x2="286.3" y2="49.1"/>
							<path class="st0" d="M278.1,73.7l14,9.1c0,0,2.6,2,4-0.1"/>
							<path class="st0" d="M254.9,58.8c-2.3,0.8-3.1-0.3-3.1-0.3s-7.1-4.6-7.8-5.1c-0.8-0.5-0.7-1-0.7-1s0.1-1.2,0.1-1.9
								s1.3-0.8,1.3-0.8l7.3,4.9c0,0,0.6,0.6,0.6,1.3c0,0.7,0,1.8,0,1.8s0.3,0.5,1.2,0.4l15.2,9.8"/>
							<path class="st0" d="M279.3,71.5l13.3,8.4c0,0,1.4,1.2,1.5-3.2"/>
							<line class="st0" x1="252.5" y1="54.7" x2="270.2" y2="65.8"/>
							<path class="st0" d="M308.4,61.6c0,0,0.5-8.1,0.5-9.5s-1.3-2.3-1.3-2.3l-8.4-4c0,0-15,2.4-20.2,8.5s-12.5,14.8-11.2,26.3
								c0,0,1,10.5,12.5,18.5c0,0,9.7,5.7,16.9,3l7.6-2.9c0,0,2.3-0.6,2-7.2"/>
							<path class="st0" d="M306.7,61.9l0.7-9.7c0,0,0-1.8-2.4-1.1c0,0-18.1,1.2-25.6,18.5c0,0-6.1,11.2,0.4,24.3
								c0,0,4.3,6.9,14.3,6.1c0,0,8.2-1.1,9.3-13.3l0.2-3l0.7-0.4l0.1-1.5c0,0,2.9-8.2,1.4-18.7L306.7,61.9z"/>
							<path class="st0" d="M281.1,53.3c0,0,3.5-3,6.6-2.3c0,0,2.8,1.3,0.2,3.4c0,0-6.9,6.1-9.2,11.7c-2.4,5.7-5.8,12.3-1.6,26.1
								c0,0,3,7.5,12.2,9c0,0,13.4,2.9,15.3-12.7"/>
							<path class="st0" d="M296,78.1c0,0,1.3,7.9-2.8,12.8c0,0-4.6,6.8-12.7,3.2"/>
							<line class="st0" x1="248.8" y1="57.9" x2="248.9" y2="82.1"/>
							<line class="st0" x1="255.7" y1="59.4" x2="255.8" y2="86.7"/>
							<line class="st0" x1="255.6" y1="24" x2="255.6" y2="33.4"/>
							<path class="st0" d="M295.3,53.9c0,0,2.5,1.4,3.1,4.3c0.6,2.9,3.8,3.9,3.8,3.9s0,2.9-2.9,0.8c0,0-2.4-1.9-2.9-6.2
								c0,0-2.3-1.5-2.6,2.1c-0.3,3.6-0.8,10.3-0.8,10.3l-1.9,4.3c0,0-0.1,1.7,1.3,2.3s9.2,5.4,9.2,5.4"/>
							<path class="st0" d="M293.5,68.1c0,0,0.9-1.2,2.7-0.9l6.7,3.5l0.3,1.9c0,0-1.3-0.1-1.7,0.5c-0.1,0.1-0.2,0.3-0.2,0.5l1,5.7
								c0,0,1.3,0.8,1.3-0.5s0.2-3.8,0.2-3.8s0.3-1.2-1.7-1.4"/>
							<path class="st0" d="M303.7,86.2l2,4.5c2.1,4.2,6.5,3.5,6.5,3.5c3.5-0.3,4.1-5.8,4.1-5.8l0.7-16.1
								c-0.8-8.4-6.8-10.1-6.8-10.1c-3.5-0.5-3.7,1.4-3.7,1.4s6.1,1,7.9,7.1c0,0,0.5,1.9,0.5,3.9c0,1.8-0.7,14.1-0.7,14.1
								s-1.8,3.6-5.4,1.6c0,0-1.7-1-2.8-3.6c-1-2.5-1.7-3.3-1.7-3.3"/>
							<path class="st0" d="M306.6,71.7l2,1.1c0,0,0.9,1.1-0.3,1.4l-1.7,0.2"/>
							<path class="st0" d="M305.5,79.8l2.4,0.1c0,0,2,1.2,0.2,1.7l-1.7-1.3"/>
							<path class="st0" d="M34.7,123.7c0,0-1.4,0.3-0.4,9s2.1,12.7,2.1,12.7l4.8,17.8c0,0,1.4,1.6,2.2,0"/>
							<polyline class="st0" points="39.6,137 37.3,138.5 39.1,145.6 41.2,144.6 							"/>
							<line class="st0" x1="42.7" y1="120.9" x2="42.9" y2="108.3"/>
							<path class="st0" d="M239.9,96.2c0,2.5,0,4.3,0,4.3l-1.5,0.3"/>
							<path class="st0" d="M231.8,82.4v-5.3l1.5-0.3l6,4.7c0,0,0.5,0.5,0.5,1.4c0,0.4,0,3.3,0,6.6"/>
							<path class="st0" d="M231.8,77.2l6,4.7c0,0,0.5,0.5,0.5,1.4s0,17.5,0,17.5l-6-4.9"/>
							<polyline class="st0" points="226.4,78.2 236.9,87.6 231.6,88.7 226.1,83.5 							"/>
							<line class="st0" x1="231.6" y1="88.7" x2="231.6" y2="95.7"/>
							<path class="st0" d="M236.9,87.6v1.2l-4.1,0.9v4.6l4.1-0.9c0,0,0,1.2,0,1.1l-5.3,1.2l-5-4.7"/>
							<path class="st0" d="M238.7,90.5l24.2,20.7l2,2.9c0,0,1.3,2.5-0.1,2.6l-2-0.4l-24.2-21.2"/>
							<path class="st0" d="M238.8,89l25.1,21.6l2,2.9c0,0,0.8,3.1-0.6,3.3"/>
							<path class="st0" d="M222.8,70.9"/>
							<polyline class="st0" points="225.9,93.8 221.1,88.8 220.5,71.9 							"/>
							<line class="st0" x1="212.7" y1="90.6" x2="221.1" y2="88.8"/>
							<path class="st0" d="M239.8,82.7c1-0.8,2.2-1.4,3.5-1.5c3.6-0.4,6.8,2,7.3,5.5s-2.1,6.7-5.7,7.1"/>
							<path class="st0" d="M246,82.5c0.4,3.5-2.1,6.7-5.7,7.1"/>
							<path class="st0" d="M235.2,78.5c1-0.8,2.2-1.4,3.5-1.5c1.3-0.2,2.5,0.1,3.6,0.5l6.7,5.4"/>
							<path class="st0" d="M246,81.8"/>
							<line class="st0" x1="239.2" y1="76.5" x2="244.9" y2="81.2"/>
							<path class="st0" d="M228.2,79.5l-0.1-11.2c0,0-0.2-0.9,1-1.1c1.2-0.2,16.3-3.3,16.3-3.3s1.1-0.2,1.2,0.5
								c0.1,0.7,0.2,16.3,0.2,16.3"/>
							<path class="st0" d="M226.7,78.7l-0.1-11.2c0,0-0.2-0.9,1-1.1C228.9,66.1,244,63,244,63l2.3,0.7"/>
							<path class="st0" d="M164.4,69.1L162,43.4c-0.5-3.2-3.6-2.5-3.6-2.5L45.7,58.6c0,0-2.1,0.4-1.4,3.6
								c0.7,3.2,6.3,28.4,6.3,28.4s0.7,1.9,4.1,1.1S131.2,77,131.2,77"/>
							<path class="st0" d="M55.8,59.3l20.1-3.3c0,0,1.6-0.1,1.9,1.6s1.8,10,1.8,10s0.2,1.8-1.4,2S58.2,73,58.2,73s-1.4,0-1.8-1.7
								c-0.3-1.7-2-10.8-2-10.8S54,59.7,55.8,59.3z"/>
							<path class="st0" d="M58.5,76.9l64-11.5c0,0,1.6-0.1,1.9,1.6c0.3,1.7,0.8,7.1,0.8,7.1s0.2,1.8-1.4,2S60.6,88.5,60.6,88.5
								s-1.4,0-1.8-1.7c-0.3-1.7-1.6-8.6-1.6-8.6S56.7,77.3,58.5,76.9z"/>
							<path class="st0" d="M83.4,54.9l18.3-3.2c0,0,1.4-0.1,1.7,1.6c0.3,1.6,1.6,9.7,1.6,9.7s0.2,1.7-1.2,1.9s-18.3,3.3-18.3,3.3
								s-1.3,0-1.6-1.6c-0.3-1.6-1.8-10.4-1.8-10.4S81.7,55.2,83.4,54.9z"/>
							<line class="st0" x1="74.8" y1="74" x2="76.9" y2="84.7"/>
							<line class="st0" x1="91.4" y1="71.1" x2="93.5" y2="81.8"/>
							<line class="st0" x1="107.9" y1="68.1" x2="110.1" y2="78.8"/>
							<path class="st0" d="M242.4,27.7l-76.9,11.8c0,0-2.3,0.6-1.9,3.8l0.9,12.7l1.5,1.3l0.5,8.7c0,0-0.1,2.7,2.4,2.7"/>
							<g>
								<path class="st0" d="M172,47.3l8.9-1.4c0,0,0.9-0.2,1,0.7c0.1,0.9,0.8,8,0.8,8s0.3,1.1-0.9,1.4c-1.2,0.2-8.5,1.4-8.5,1.4
									s-1.1,0-1.1-0.9c0-1-0.7-8.2-0.7-8.2S171.3,47.5,172,47.3z"/>
								<path class="st0" d="M181.8,46.1l-1.8-1.7c-0.2-0.1-0.5,0-0.5,0l-8.9,1.4c-0.7,0.2-0.5,1-0.5,1s0.7,7.2,0.7,8.2
									c0,0.3,0.1,0.5,0.2,0.6l1.4,1.6"/>
							</g>
							<g>
								<path class="st0" d="M186.3,45l18.6-3.3c0,0,0.9-0.2,1,0.7c0.1,0.9,0.8,8,0.8,8s0.3,1.1-0.9,1.4s-18.1,3.3-18.1,3.3
									s-1.1,0-1.1-0.9c0-1-0.7-8.2-0.7-8.2S185.6,45.2,186.3,45z"/>
								<path class="st0" d="M208.9,39.2l24-4.2c0,0,0.9-0.2,1,0.7c0.1,0.9,0.3,7.5,0.3,7.5s0.3,1.1-0.9,1.4
									c-1.2,0.2-23.2,4.2-23.2,4.2s-1.1,0-1.1-0.9c0-1-0.6-7.6-0.6-7.6S208.2,39.4,208.9,39.2z"/>
								<path class="st0" d="M205.8,41.9l-1.8-1.7c-0.2-0.1-0.5,0-0.5,0l-18.6,3.3c-0.7,0.2-0.5,1-0.5,1s0.7,7.2,0.7,8.2
									c0,0.3,0.1,0.5,0.2,0.6l1.4,1.6"/>
							</g>
							<path class="st0" d="M190.9,44.4"/>
							<path class="st0" d="M186.3,49.2"/>
							<line class="st0" x1="196.6" y1="53.1" x2="196" y2="43.5"/>
							<path class="st0" d="M113.6,53.9l13-2.2c0,0,0.9-0.1,1.1,1c0.2,1,0.8,6.5,0.8,6.5s0.3,0.9-0.9,1.1s-12.7,2.2-12.7,2.2
								s-1.5,0.2-1.6-0.9c-0.1-1.1-1-6.7-1-6.7S112.4,54,113.6,53.9z"/>
							<path class="st0" d="M137,50.6l16.3-2.7c0,0,0.9-0.1,1.1,1c0.2,1,0.8,6.5,0.8,6.5s0.3,0.9-0.9,1.1s-16,2.8-16,2.8
								s-1.5,0.2-1.6-0.9c-0.1-1.1-1-6.7-1-6.7S135.8,50.6,137,50.6z"/>
							<polyline class="st0" points="68.7,57.3 69.1,59.2 70.4,59 70.7,60.7 74.1,60.2 75.4,67.2 60.5,69.8 59.1,62.7 62.3,62.1 
								61.9,60.4 63.4,60.2 63.1,58.4 							"/>
							<polyline class="st0" points="95.5,53.3 95.9,55.2 97.1,55 97.5,56.7 100.8,56.2 102.1,63.2 87.2,65.7 85.8,58.7 89,58.1 
								88.7,56.4 90.2,56.1 89.9,54.4 							"/>
							<path class="st0" d="M116.4,55.9l7.3-1.2c0,0,1.6,0,1.7,1.6c0.1,1.6-1.3,1.6-1.3,1.6l-7.3,1.3c0,0-1.3,0.2-1.7-1.3
								S116.4,55.9,116.4,55.9z"/>
							<path class="st0" d="M139.5,51.9c0,0-1.4,0.3-1.2,1.3c0.2,1,0.5,2.9,0.5,2.9s0.1,1,1.2,0.8c1.1-0.1,11.5-2.1,11.5-2.1
								s1.1-0.4,1-1.4s-0.4-2.7-0.4-2.7s-0.1-1-1.4-0.8C149.2,50.2,139.5,51.9,139.5,51.9z"/>
							<line class="st0" x1="222.2" y1="36.8" x2="222.2" y2="46.4"/>
							<ellipse class="st0" cx="131.9" cy="93.6" rx="1.8" ry="1.7"/>
							<ellipse class="st0" cx="141.2" cy="91.7" rx="1.8" ry="1.7"/>
							<line class="st0" x1="244.2" y1="44.9" x2="244.2" y2="49.3"/>
							<line class="st0" x1="244.2" y1="32" x2="244.2" y2="34.6"/>
							<line class="st0" x1="248.6" y1="24.8" x2="248.6" y2="27.3"/>
							<polyline class="st0" points="254.6,87.9 256.6,89.4 259.7,88.9 261.7,87.6 261.7,89.7 259.7,91.3 256.5,91.8 254.2,89.8 
								254.2,87.6 257.3,86.8 257.3,85.7 259,86.7 259,88.5 							"/>
							<line class="st0" x1="317.1" y1="71.5" x2="323.5" y2="70.3"/>
							<line class="st0" x1="276.9" y1="81" x2="285.7" y2="79"/>
							<line class="st0" x1="257.3" y1="85.7" x2="268.2" y2="83.1"/>
							<line class="st0" x1="317" y1="79.1" x2="325.2" y2="77.5"/>
							<line class="st0" x1="277.5" y1="86.8" x2="293.2" y2="83.7"/>
							<line class="st0" x1="261.7" y1="89.7" x2="270.4" y2="88.1"/>
							<line class="st0" x1="277" y1="83.5" x2="289.1" y2="81.3"/>
							<line class="st0" x1="259" y1="86.7" x2="268.8" y2="85"/>
							<line class="st0" x1="372.8" y1="58.9" x2="378.5" y2="57.5"/>
							<line class="st0" x1="350" y1="64.3" x2="363.2" y2="61.1"/>
							<path class="st0" d="M304.3,28.8V23c0,0,0-0.4,0.8-0.5c0.8-0.1,7.3-1,7.3-1s1.1-0.3,1.1,0.7l-0.1,5.4c0,0,0.1,0.7-0.5,0.8
								c-0.7,0.2-7.2,1.2-7.2,1.2S304.4,30,304.3,28.8z"/>
							<path class="st0" d="M318.4,27.3v-5.8c0,0,0-0.4,0.8-0.5s9.8-1.5,9.8-1.5s1.1-0.3,1.1,0.7l-0.1,5.4c0,0,0.1,0.7-0.5,0.8
								c-0.7,0.2-9.8,1.7-9.8,1.7S318.5,28.4,318.4,27.3z"/>
							<line class="st0" x1="260.8" y1="62.8" x2="260.8" y2="84.4"/>
							<g>
								<polygon class="st0" points="150.3,92.8 152.5,91.1 155.2,91.9 155.5,94.9 153,96.8 150.7,95.7 								"/>
								<polygon class="st0" points="156.9,91.4 159,89.7 161.7,90.5 162,93.5 159.6,95.4 157.2,94.4 								"/>
								<polygon class="st0" points="163.5,89.9 165.6,88.2 168.3,89 168.7,92 166.2,93.9 163.9,92.9 								"/>
								<polygon class="st0" points="170.3,88.4 172.4,86.7 175.1,87.5 175.4,90.6 173,92.4 170.6,91.4 								"/>
								<polygon class="st0" points="176.7,87.1 178.8,85.4 181.5,86.2 181.9,89.2 179.4,91.1 177.1,90.1 								"/>
								<polygon class="st0" points="183.1,85.6 185.2,83.9 187.9,84.7 188.3,87.8 185.8,89.6 183.4,88.6 								"/>
								<polygon class="st0" points="189.4,84.3 191.5,82.6 194.2,83.4 194.6,86.4 192.1,88.3 189.7,87.3 								"/>
								<polygon class="st0" points="195.5,82.9 197.6,81.3 200.3,82 200.7,85.1 198.2,86.9 195.8,85.9 								"/>
								<polyline class="st0" points="206.8,83.7 204.3,85.6 202,84.6 201.6,81.6 203.7,79.9 206.4,80.7 								"/>
								<polygon class="st0" points="199.4,87.5 201.5,85.8 204.2,86.6 204.6,89.6 202.1,91.4 199.8,90.4 								"/>
								<g>
									<polygon class="st0" points="154.3,97.3 156.4,95.6 159.1,96.4 159.5,99.4 157,101.3 154.7,100.2 									"/>
									<polygon class="st0" points="158.3,101.9 160.4,100.2 163.1,101 163.5,104.1 161,105.9 158.7,104.9 									"/>
									<polygon class="st0" points="164.7,100.4 166.9,98.7 169.6,99.5 169.9,102.5 167.4,104.4 165.1,103.4 									"/>
									<polygon class="st0" points="171.6,98.8 173.8,97.1 176.5,97.9 176.8,100.9 174.3,102.7 172,101.7 									"/>
									<polygon class="st0" points="178.2,97.4 180.3,95.7 183,96.5 183.3,99.5 180.9,101.4 178.5,100.4 									"/>
									<polygon class="st0" points="184.7,95.9 186.8,94.2 189.5,95 189.9,98 187.4,99.8 185,98.8 									"/>
									<polygon class="st0" points="190.9,94.6 193.1,92.9 195.8,93.7 196.1,96.7 193.6,98.5 191.3,97.5 									"/>
									<polygon class="st0" points="197.3,93.2 199.5,91.5 202.2,92.3 202.5,95.3 200,97.2 197.7,96.2 									"/>
									<polygon class="st0" points="160.8,95.9 162.9,94.2 165.6,95 166,98 163.5,99.9 161.2,98.9 									"/>
									<polygon class="st0" points="167.5,94.4 169.6,92.7 172.3,93.5 172.7,96.5 170.2,98.4 167.9,97.4 									"/>
									<polygon class="st0" points="174.2,92.9 176.3,91.2 179,92 179.4,95.1 176.9,96.9 174.6,95.9 									"/>
									<polygon class="st0" points="180.7,91.6 182.8,89.9 185.5,90.7 185.9,93.7 183.4,95.6 181.1,94.6 									"/>
									<polygon class="st0" points="187,90.1 189.2,88.4 191.9,89.2 192.2,92.3 189.7,94.1 187.4,93.1 									"/>
									<polygon class="st0" points="193.3,88.8 195.5,87.1 198.2,87.9 198.5,90.9 196,92.8 193.7,91.8 									"/>
								</g>
							</g>
							<g>
								<polyline class="st0" points="59.9,105.3 60.3,107.9 57.3,110.2 54.5,108.9 54,105.4 								"/>
								<polygon class="st0" points="50.5,112.9 53.1,110.9 56.3,111.8 56.8,115.5 53.8,117.7 51,116.5 								"/>
								<polygon class="st0" points="58.4,111.3 60.9,109.2 64.2,110.2 64.7,113.8 61.6,116.1 58.8,114.8 								"/>
								<polyline class="st0" points="72.3,108.8 72.7,112 69.7,114.3 66.9,113 66.4,109.5 69,107.4 								"/>
								<polyline class="st0" points="77.7,100.5 80.2,98.5 83.5,99.4 83.9,103.1 82,104.6 								"/>
								<polygon class="st0" points="85.3,99 87.9,96.9 91.1,97.9 91.6,101.5 88.6,103.8 85.8,102.5 								"/>
								<polygon class="st0" points="93,97.2 95.6,95.2 98.9,96.1 99.3,99.8 96.3,102 93.5,100.8 								"/>
								<polygon class="st0" points="100.7,95.6 103.2,93.6 106.5,94.5 106.9,98.2 103.9,100.4 101.1,99.2 								"/>
								<polygon class="st0" points="108.1,93.9 110.6,91.8 113.9,92.8 114.4,96.4 111.3,98.7 108.5,97.4 								"/>
								<polyline class="st0" points="82.9,105.6 84.9,104 88.2,105 88.7,108.6 86.8,110 								"/>
								<polygon class="st0" points="90.1,104.3 92.6,102.2 95.9,103.2 96.3,106.8 93.3,109.1 90.5,107.9 								"/>
								<polygon class="st0" points="97.7,102.7 100.2,100.6 103.5,101.6 104,105.2 100.9,107.5 98.1,106.3 								"/>
								<polygon class="st0" points="105.1,101 107.6,99 110.9,99.9 111.3,103.6 108.3,105.8 105.5,104.6 								"/>
								<polygon class="st0" points="118.7,101.9 115.7,104.2 112.9,103 112.5,99.4 115,97.3 118.3,98.3 								"/>
								<polygon class="st0" points="109.8,106.5 112.3,104.4 115.6,105.4 116.1,109 113.1,111.3 110.2,110.1 								"/>
								<g>
									<polygon class="st0" points="55.3,118.4 57.9,116.3 61.1,117.3 61.6,120.9 58.6,123.2 55.8,121.9 									"/>
									<polygon class="st0" points="60.1,124 62.7,121.9 65.9,122.9 66.4,126.5 63.4,128.8 60.6,127.6 									"/>
									<polygon class="st0" points="67.9,122.1 70.5,120.1 73.7,121 74.2,124.7 71.2,126.9 68.4,125.7 									"/>
									<polygon class="st0" points="76.2,120.2 78.8,118.1 82.1,119.1 82.5,122.7 79.5,125 76.7,123.7 									"/>
									<polygon class="st0" points="92,116.6 94.6,114.6 97.8,115.5 98.3,119.2 95.3,121.4 92.5,120.2 									"/>
									<polygon class="st0" points="99.6,115.1 102.1,113 105.4,114 105.9,117.6 102.9,119.9 100,118.6 									"/>
									<polygon class="st0" points="107.3,113.4 109.9,111.4 113.1,112.3 113.6,116 110.6,118.2 107.8,117 									"/>
									<polygon class="st0" points="63.2,116.7 65.7,114.6 69,115.6 69.5,119.3 66.4,121.5 63.6,120.3 									"/>
									<polygon class="st0" points="71.2,114.9 73.8,112.9 77.1,113.8 77.5,117.5 74.5,119.7 71.7,118.5 									"/>
									<polyline class="st0" points="87.6,111.2 89.7,109.5 93,110.4 93.5,114.1 90.4,116.3 									"/>
									<polygon class="st0" points="94.9,109.7 97.4,107.7 100.7,108.6 101.1,112.3 98.1,114.5 95.3,113.3 									"/>
									<polygon class="st0" points="102.5,108.1 105,106.1 108.3,107 108.8,110.7 105.7,112.9 102.9,111.7 									"/>
								</g>
							</g>
							<g>
								<path class="st8" d="M165.4,70.8l-2.1,0.4c0,0-2.2,0.4-0.7,0.9c1.6,0.4,3.5,0.8,3.5,0.8s3.4,1.1,4.1,2
									c0.7,0.9,2.5,0.7,3.3,0.5c0.8-0.2,5.2-1.1,5.2-1.1l9.8-0.6c0,0,2.3,0.2,2.2-1.3s-1-5-1-5s-0.3-1.1-2.2-0.7
									C185.7,66.9,165.4,70.8,165.4,70.8z"/>
								<path class="st8" d="M167.1,73.1c0,0-0.1-1.4,3-2.4l0.2,3.6l8.5-1.5c0,0,3.8-0.4,6.3,0.6"/>
								<path class="st8" d="M185.3,73.5c2.4-0.7,1.1-2.2,1.1-2.2c-1.6-1.9-8.2-2.1-8.2-2.1l0.4,3.3"/>
								<polyline class="st8" points="157,73.8 160.6,74.8 162.6,76.7 166.4,79.4 166.6,86.1 164.9,86.3 								"/>
								<path class="st8" d="M166.7,81l2.9,1.6c0,0,2.4,0.9,5.1,0.3c2.7-0.6,17.4-4.4,17.4-4.4s1.4-0.6,1.5-1.6
									c0.1-1-0.1-3.9-0.1-3.9"/>
								<path class="st8" d="M240,57.1l-2.1-1.7l-86.4,16.8l0.5,3.9l1.3,1.1l3.5-0.4l1,0.7l0.1,3.6l6.8,5.2l-0.2-6.7l-5.3-3.3
									c0,0-0.8-1.8-5.3-1.9c0,0-1.2-0.9,0.7-1c1.9-0.1,4-0.5,4-0.5l6,1.3l4,2c0,0,2.4,1.1,5.6,0.4c3.2-0.7,4.9-1.2,4.9-1.2l10-0.5
									l2.8-0.5c0,0,1.6-0.2,1.4-1.9s-1-4.9-1-4.9s-0.7-0.7,1.3-1.1C195.7,65.9,240,57.1,240,57.1l-0.1,3.8L193.6,70"/>
								<line class="st8" x1="240.1" y1="56.9" x2="246.6" y2="55.7"/>
								<line class="st8" x1="240.6" y1="59.1" x2="249.5" y2="57.3"/>
								<line class="st8" x1="173.7" y1="76.9" x2="174.6" y2="82.9"/>
							</g>
							<polygon points="176.1,78.2 176.6,80.5 178.5,78.9 							"/>
							<line class="st0" x1="40.8" y1="56.8" x2="48.8" y2="93.6"/>
							<line class="st0" x1="41.1" y1="95.5" x2="37" y2="80.3"/>
							<polyline class="st0" points="40.3,70.5 38.7,70.7 41.2,72.8 44,86.8 43.9,95.1 							"/>
							<path class="st0" d="M40.4,70.3c0,0,2.4,1.5,2.6,2.8c0.3,1.3,2.6,13,2.6,13l-0.1,8.1"/>
							<polyline class="st0" points="42,95.1 42.4,86.9 39.8,74.3 37.5,70 							"/>
						</g>
					</g>
					<path style="clip-path:url(#SVGID_00000074401232966729830960000012440875148881830591_);fill:#DCDDDE;" d="M203.6,86.1
						l24-26.3l15.6-3.3l0.7-0.6l3.2-0.2l0.2,3.8l-12.5,15.8l12.5,3.2c0,0,1.6,0.5,1.6,2.4s0.2,4,0.2,4l-2.5,6.5l0.2,5.6
						c0,0-0.2,2-1.4,1.9c-1.2-0.1-15.5-0.5-15.5-0.5l-1.3,1.9l-6.9-2.4l-8.2-0.7l-5.2-4.7l-4.3-2.6C203.9,90,201.9,88.2,203.6,86.1z
						"/>
					<g style="clip-path:url(#SVGID_00000074401232966729830960000012440875148881830591_);">
						<path class="st0" d="M243.8,56.2l-16.3,3.4l-24,26.8c0,0-1.7,2.2,0.8,3.8s4.9,2.6,4.9,2.6s1.4,0.8,3.3,0.1"/>
						<polyline class="st0" points="221.7,97.4 221.7,93.6 228.3,95.8 228.3,100.3 						"/>
						<polyline class="st0" points="229.5,98 229.5,93.5 221.7,93.4 						"/>
						<line class="st0" x1="228.4" y1="95.5" x2="229.3" y2="93.5"/>
						<path class="st0" d="M213,93.2l5.5,0c0,0,7.8-1.4,9.8-1.7c2-0.4,3.9-0.5,3.9-0.5l13.8,0l0.5,0.7c0,0,0.1,5,0.2,6
							s-1.1,1.2-1.1,1.2l-11.7-0.3l-4.4-0.2l-0.8,2.1l-6.9-2.5l-8.5-0.6l-0.6-4.5l31.4-36.7l3.2-0.6c0,0-13,16.6-14.3,17.9
							c-1.3,1.3,0.3,1.9,0.3,1.9s11.8,2.8,13.9,3.4c2.1,0.6,1.6,2,1.6,2s-2,3.8-2.9,5.6c-0.9,1.8-3.8,1.7-3.8,1.7l-9.6,0.1
							c0,0-11.7,1.8-13.2,2.5c-1.6,0.7,0.2,1.2,0.2,1.2l11.7-2l14.7,0.1l0.7,0.7"/>
						<polyline class="st0" points="234.7,75.2 247.3,59.5 247.2,55.8 						"/>
						<polyline class="st0" points="248.8,80.1 248.8,84.9 246.4,91.7 						"/>
						<path class="st0" d="M219.6,87.4l8.9-10.8c0,0,0.8-0.9,1.9-0.7c1.1,0.2,14.7,3.4,14.7,3.4s0.9,0.3,0.6,1
							c-0.3,0.7-3.3,5.9-3.3,5.9l-8.7,0l-13.3,2C220.4,88.3,218.5,88.8,219.6,87.4z"/>
						<path class="st0" d="M243.6,83.6c0,0-0.1-2.6-6.1-3.7c-6-1.1-12.1,1.4-12.1,1.4l0.1,4c0,0,8.7-4.2,16.8,0.4"/>
						<path class="st0" d="M222.4,84.7c0,0,0.4,2,2.4,2.6"/>
						<line class="st0" x1="225.6" y1="85.3" x2="224.4" y2="86.7"/>
						<line class="st0" x1="234.3" y1="91.1" x2="234.3" y2="98.3"/>
						<line class="st0" x1="236.1" y1="91.3" x2="236.1" y2="98.6"/>
						<line class="st0" x1="238" y1="91.5" x2="238" y2="98.8"/>
						<line class="st0" x1="239.9" y1="91.3" x2="239.9" y2="98.6"/>
						<line class="st0" x1="241.7" y1="91.4" x2="241.7" y2="98.6"/>
						<line class="st0" x1="243.6" y1="91.5" x2="243.6" y2="98.8"/>
						<line class="st0" x1="213.1" y1="97.3" x2="208.4" y2="92.6"/>
					</g>
				</g>
				<circle class="st10" cx="198.3" cy="76.6" r="72.8"/>
				<path class="st11" d="M205.5,81.3l7.9,4.7l-16.5,6.4l2.2-2.8c-14.2-1.4-19.3-8.9-19.3-8.9l8.6-2.1c0,0,4.9,4.4,15.2,5.1
					L205.5,81.3z"/>
				<path d="M142.2,85.9"/>
				<path d="M142.3,85.8"/>
				<g>
					<polyline class="st12" points="153.3,89.5 133.4,93.5 132.7,85.2 152.6,81.2 152.3,78.4 160.1,84.9 153.6,92.4 153.3,89.5 
											"/>
				</g>
			</g>
		</g>
	</g>
	<polyline class="st13" points="26,60.7 14.3,62.3 11.2,57.7 23,56.1 21.9,54.5 29.1,58.4 27.1,62.3 26,60.7 	"/>
	<line class="st14" x1="167.2" y1="132.5" x2="152.5" y2="183.1"/>
	<line class="st15" x1="167.2" y1="132.5" x2="152.5" y2="183.1"/>
	<line class="st5" x1="63.1" y1="191.9" x2="63.1" y2="194.2"/>
	<line class="st5" x1="71.2" y1="201.9" x2="71.2" y2="204.2"/>
</g>
</svg>
