<?xml version="1.0" encoding="utf-8"?>
<!-- Generator: Adobe Illustrator 26.5.0, SVG Export Plug-In . SVG Version: 6.00 Build 0)  -->
<svg version="1.1" xmlns="http://www.w3.org/2000/svg" xmlns:xlink="http://www.w3.org/1999/xlink" x="0px" y="0px"
	 viewBox="0 0 345.9 267" style="enable-background:new 0 0 345.9 267;" xml:space="preserve">
<style type="text/css">
	.st0{fill-rule:evenodd;clip-rule:evenodd;fill:#D1D3D4;}
	.st1{fill:none;stroke:#000000;stroke-width:0.5;stroke-linecap:round;stroke-linejoin:round;stroke-miterlimit:10;}
	.st2{fill:none;stroke:#000000;stroke-width:0.5;stroke-linecap:round;stroke-linejoin:round;}
	.st3{fill:none;stroke:#000000;stroke-width:0.4875;stroke-linecap:round;stroke-linejoin:round;stroke-miterlimit:10;}
	.st4{fill:none;stroke:#000000;stroke-width:0.4505;stroke-linecap:round;stroke-linejoin:round;stroke-miterlimit:10;}
	.st5{fill:none;stroke:#000000;stroke-width:0.4409;stroke-linecap:round;stroke-linejoin:round;stroke-miterlimit:10;}
	.st6{fill:none;stroke:#000000;stroke-width:0.5145;stroke-linecap:round;stroke-linejoin:round;stroke-miterlimit:10;}
	.st7{font-family:'Arial-BoldMT';}
	.st8{font-size:4.6807px;}
	.st9{fill:none;stroke:#000000;stroke-width:0.479;stroke-linecap:round;stroke-linejoin:round;stroke-miterlimit:10;}
	.st10{fill:none;stroke:#000000;stroke-width:0.5507;stroke-linecap:round;stroke-linejoin:round;stroke-miterlimit:10;}
	.st11{fill:none;stroke:#000000;stroke-width:0.5286;stroke-linecap:round;stroke-linejoin:round;stroke-miterlimit:10;}
	.st12{fill:none;stroke:#000000;stroke-width:0.3566;stroke-linecap:round;stroke-linejoin:round;stroke-miterlimit:10;}
	.st13{fill:none;stroke:#000000;stroke-width:0.4045;stroke-linecap:round;stroke-linejoin:round;stroke-miterlimit:10;}
	.st14{fill:none;stroke:#000000;stroke-width:0.4035;stroke-linecap:round;stroke-linejoin:round;stroke-miterlimit:10;}
	.st15{fill:none;stroke:#000000;stroke-width:0.583;stroke-linecap:round;stroke-linejoin:round;stroke-miterlimit:10;}
	.st16{fill:none;stroke:#000000;stroke-width:0.5977;stroke-linecap:round;stroke-linejoin:round;stroke-miterlimit:10;}
	.st17{fill:#FFFFFF;}
	.st18{fill:none;stroke:#000000;stroke-width:0.4737;stroke-linecap:round;stroke-linejoin:round;stroke-miterlimit:10;}
	.st19{fill:none;stroke:#000000;stroke-width:0.464;stroke-linecap:round;stroke-linejoin:round;stroke-miterlimit:10;}
	.st20{fill:none;stroke:#000000;stroke-width:0.4068;stroke-linecap:round;stroke-linejoin:round;stroke-miterlimit:10;}
	.st21{fill:none;stroke:#000000;stroke-width:0.4365;stroke-linecap:round;stroke-linejoin:round;stroke-miterlimit:10;}
	.st22{fill:#FFFFFF;stroke:#FFFFFF;stroke-width:3;stroke-linecap:round;stroke-linejoin:round;stroke-miterlimit:10;}
	
		.st23{fill:#FFFFFF;stroke:#000000;stroke-width:0.75;stroke-linecap:round;stroke-linejoin:round;stroke-miterlimit:10;stroke-dasharray:2;}
	.st24{fill-rule:evenodd;clip-rule:evenodd;fill:#010101;stroke:#FFFFFF;stroke-miterlimit:10;}
	.st25{font-family:'Helvetica';}
	.st26{font-size:20.8793px;}
	.st27{fill-rule:evenodd;clip-rule:evenodd;fill:#FFFFFF;stroke:#010101;stroke-width:0.5;stroke-miterlimit:10;}
	.st28{font-size:18px;}
	.st29{display:none;}
	.st30{display:inline;fill:#FFFFFF;}
	.st31{display:inline;}
	.st32{fill:none;stroke:#000000;stroke-width:0.5215;stroke-linecap:round;stroke-linejoin:round;stroke-miterlimit:10;}
	.st33{fill:none;stroke:#000000;stroke-width:0.5012;stroke-linecap:round;stroke-linejoin:round;stroke-miterlimit:10;}
	.st34{fill:none;stroke:#000000;stroke-width:0.25;stroke-linecap:round;stroke-linejoin:round;stroke-miterlimit:10;}
	.st35{fill:none;stroke:#000000;stroke-width:0.3156;stroke-linecap:round;stroke-linejoin:round;stroke-miterlimit:10;}
	.st36{fill:none;stroke:#000000;stroke-width:0.5359;stroke-linecap:round;stroke-linejoin:round;stroke-miterlimit:10;}
	.st37{fill:none;stroke:#000000;stroke-width:0.4112;stroke-linecap:round;stroke-linejoin:round;stroke-miterlimit:10;}
	.st38{fill:none;stroke:#000000;stroke-width:0.2051;stroke-linecap:round;stroke-linejoin:round;stroke-miterlimit:10;}
	.st39{fill:none;stroke:#000000;stroke-width:0.259;stroke-linecap:round;stroke-linejoin:round;stroke-miterlimit:10;}
	.st40{fill:none;stroke:#000000;stroke-width:0.3861;stroke-linecap:round;stroke-linejoin:round;stroke-miterlimit:10;}
	.st41{fill:none;stroke:#000000;stroke-width:0.1926;stroke-linecap:round;stroke-linejoin:round;stroke-miterlimit:10;}
	.st42{fill:none;stroke:#000000;stroke-width:0.2432;stroke-linecap:round;stroke-linejoin:round;stroke-miterlimit:10;}
	.st43{fill:none;stroke:#D0CFCD;stroke-width:0.6349;stroke-linecap:round;stroke-linejoin:round;stroke-miterlimit:10;}
	.st44{fill:none;stroke:#D0CFCD;stroke-width:0.25;stroke-linecap:round;stroke-linejoin:round;stroke-miterlimit:10;}
	.st45{stroke:#FFFFFF;stroke-width:0.7829;stroke-miterlimit:10;}
	.st46{opacity:0.7;fill:#FFFFFF;}
	.st47{clip-path:url(#SVGID_00000137843115127946796440000014763466261220339642_);}
	.st48{fill:none;stroke:#000000;stroke-width:0.5;stroke-miterlimit:10;}
	.st49{fill:none;stroke:#000000;stroke-width:0.25;stroke-miterlimit:10;}
	.st50{stroke:#FFFFFF;stroke-width:0.8527;stroke-miterlimit:10;}
	.st51{fill:none;stroke:#A7A9AC;stroke-linecap:round;stroke-linejoin:round;stroke-miterlimit:10;}
	.st52{enable-background:new    ;}
	.st53{font-size:14px;}
	.st54{letter-spacing:-2;}
	.st55{clip-path:url(#SVGID_00000026873760187501555350000004602618910887206063_);}
	.st56{clip-path:url(#SVGID_00000003099106423199079850000013651470704665511552_);}
	.st57{stroke:#FFFFFF;stroke-width:0.5;stroke-linecap:round;stroke-linejoin:round;stroke-miterlimit:10;}
	.st58{fill:#FFFFFF;stroke:#FFFFFF;stroke-linecap:round;stroke-linejoin:round;stroke-miterlimit:10;}
	.st59{fill:none;stroke:#FFFFFF;stroke-width:5;stroke-linecap:round;stroke-linejoin:round;stroke-miterlimit:10;}
	.st60{fill:none;stroke:#000000;stroke-linecap:round;stroke-linejoin:round;stroke-dasharray:5,3;}
	.st61{clip-path:url(#SVGID_00000144331352775342345050000008130652452242173085_);}
	.st62{fill:#FFFFFF;stroke:#000000;stroke-width:0.4175;stroke-miterlimit:10;}
	.st63{fill:#FFFFFF;stroke:#000000;stroke-width:0.4175;stroke-linecap:round;stroke-linejoin:round;stroke-miterlimit:10;}
	.st64{fill:none;stroke:#000000;stroke-width:0.4175;stroke-linecap:round;stroke-linejoin:round;stroke-miterlimit:10;}
	.st65{stroke:#FFFFFF;stroke-width:0.4175;stroke-linecap:round;stroke-linejoin:round;stroke-miterlimit:10;}
</style>
<g id="Gray">
	<path class="st0" d="M200.5,189.5l-9,4.5l-2.9-1.6c0,0-0.6-0.5-2.2,0.1l-8.4,4.3l-0.1,3.8l-3.1,1.5l0-3.5l-7.9-3.8l-18.8-9.3
		l-14.5,7.6l-5.4-2.7l2.1-1l0.1-3.9c0,0-1.6-0.4-1.4-2.7c0.2-2.3,0.1-4,0.1-4s0.8-1.8,3.4-1.7c2.6,0.1,3.5,1.2,3.7,2.1l-0.1,0.6
		l8.8-4.4h0.9l-0.1-0.6l2.6-1.3l0.1,2.2l0.9-0.4l0.1-2.5l2.3-1.1l0.1,2.2l1-0.5l0.1-2.3l2.3-1.1v2.3l1.1-0.5l0.2-2.6l2.3-1v2.2
		l1-0.4v-2.6l2.2-0.9l12.9-6.1c0,0,1.6-0.6,2.6,0.1c1,0.7,12.9,6.5,12.9,6.5l0.1-1.7c0,0,1.3-1.7,3.9-1.7c0,0,3.5,0.1,3.4,2.6v4.3
		l1.5,0.8l-0.3,1.9l-4.3,2l-1.3,2.3l0.2,0.4l-0.1,1.6c0,0-1.8-0.3-1.9-1.1l0-1.3l-5.6,2.9l-0.1,1.1l-0.6,0.3v0.9l2.1,1l0.1,1
		l-0.8,0.4l6.4,3.3l0-1.2c0,0,0.7-2,3.9-1.8c0,0,3.3,0,3.5,2.1L200.5,189.5z"/>
</g>
<g id="BaseUNit">
	<g>
		<path class="st1" d="M187.3,99.6c0,0,0.7-0.5,1.3-0.1c0.6,0.5,2.1,1.4,2.1,1.4s0.3,0.2,0.6-0.1c0.2-0.2,0.6-0.7,0.4-1.2l-0.7-0.5
			c0,0-0.2-0.6,0-1c0.2-0.4,0.5-0.8,0.9-0.8c0.4,0,3.1-0.2,3.1-0.2s0.7,0.2,0.8,0.6l0,3.3c0,0,0.1,0.5-0.4,0.8
			c-0.5,0.2-44.9,22.4-44.9,22.4"/>
		<path class="st1" d="M163.1,166.4c0,0-0.1-7.2,0-8.8c0.1-1.6,1.6-2.1,1.6-2.1l24.9-12.6l-6.9-3.5l6.1-3.1c0,0-22.9-11.4-23.9-12
			c-1-0.5-2.2,0-2.2,0l-6.1,3l-7.1-3.5l-23.3,11.7c0,0-2.2,0.9-2.2,2.5l0.1,1.1"/>
		<path class="st1" d="M164.3,155.3l-6.6-3.4l-6.8,3.4c0,0-1.1,0.6-1.1,1.8c0,1.1,0,3.1,0,3.1"/>
		<path class="st1" d="M125.2,136.3l6.6,3.3l-5.8,3.1l0,0.5c0,0-0.8,0.7-0.8,1.9c0,1,0.1,6.9,0.1,6.9"/>
		<line class="st1" x1="126.4" y1="142.6" x2="151.2" y2="155"/>
		<polyline class="st1" points="179.4,161.4 190.7,155.7 190.8,154.4 197,151.4 		"/>
		<path class="st1" d="M186.1,140.9c0.5-0.4,1.4-0.6,2.4-0.6c1.7,0,3,0.7,3,1.5c0,0.6-0.6,1.1-1.6,1.3"/>
		<path class="st1" d="M190.4,144.8c0.7-0.3,1.1-0.7,1.1-1.2V142"/>
		<path class="st1" d="M190.3,153.2v-9.1c0,0,0.1-1-0.9-1.1"/>
		<path class="st1" d="M190.9,144.5c0.3,0.2,0.5,0.4,0.5,0.7c0,0.4-0.4,0.8-1.1,1"/>
		<path class="st1" d="M190.9,146.4c0.3,0.2,0.5,0.4,0.5,0.7c0,0.4-0.4,0.8-1.1,1"/>
		<path class="st1" d="M190.9,148.1c0.3,0.2,0.5,0.4,0.5,0.7c0,0.4-0.4,0.8-1.1,1"/>
		<g>
			<ellipse class="st1" cx="155.9" cy="155.9" rx="3" ry="1.5"/>
			<path class="st1" d="M152.9,155.9v1.7c0,0.8,1.4,1.5,3,1.5s3-0.7,3-1.5V156"/>
			<path class="st1" d="M158.5,158.4c0.3,0.3,0.4,0.6,0.4,0.9c-0.1,0.8-1.6,1.3-3.2,1.1c-1.7-0.2-2.9-1.1-2.8-1.9
				c0-0.1,0.1-0.2,0.1-0.4"/>
			<path class="st1" d="M158.9,165.2c0,0.1,0.1,0.2,0.1,0.3c0,0.8-1.4,1.5-3,1.5s-3-0.7-3-1.5c0-0.2,0.1-0.4,0.3-0.6"/>
			<path class="st1" d="M158.3,163.9c0.4,0.3,0.7,0.8,0.6,1.1c-0.1,0.8-1.6,1.3-3.2,1s-2.9-1.2-2.7-2c0.1-0.3,0.3-0.6,0.7-0.8"/>
			<path class="st1" d="M158.3,162c0.4,0.3,0.6,0.7,0.5,1.1c-0.1,0.8-1.6,1.3-3.2,1s-2.9-1.2-2.7-2c0-0.3,0.2-0.5,0.5-0.7"/>
			<path class="st1" d="M158.3,160.2c0.4,0.3,0.6,0.7,0.6,1.1c-0.1,0.8-1.6,1.3-3.2,1c-1.7-0.3-2.9-1.2-2.7-2c0-0.3,0.2-0.5,0.5-0.7
				"/>
		</g>
		<g>
			<path class="st1" d="M128.9,177.9c-1.1,0-2-0.4-2-1c0-0.5,0.9-1,2-1s2,0.4,2,1"/>
			<path class="st1" d="M126.9,176.9v1.1c0,0.5,0.9,1,2,1"/>
			<path class="st1" d="M128.8,179.7c-0.8-0.1-1.5-0.5-1.4-0.9"/>
			<path class="st1" d="M128.9,182.4c-0.8,0-1.5-0.3-1.5-0.7c0-0.1,0.1-0.2,0.1-0.3"/>
			<path class="st1" d="M128.7,181.4c-0.8-0.1-1.4-0.6-1.4-1c0-0.1,0.1-0.2,0.3-0.3"/>
			<path class="st1" d="M128.7,180.6c-0.8-0.1-1.4-0.6-1.4-1c0-0.1,0.1-0.2,0.3-0.3"/>
		</g>
		<g>
			<ellipse class="st1" cx="125.6" cy="140.7" rx="3" ry="1.5"/>
			<path class="st1" d="M122.6,140.7v1.7c0,0.8,1.3,1.5,2.8,1.5"/>
			<ellipse class="st1" cx="158" cy="124.4" rx="3" ry="1.5"/>
			<line class="st1" x1="155" y1="124.4" x2="155" y2="126.1"/>
			<path class="st1" d="M125.3,145.2c-1.6-0.3-2.8-1.1-2.7-1.9c0-0.1,0.1-0.2,0.1-0.4"/>
			<path class="st1" d="M125.3,151.8c-1.5-0.1-2.7-0.7-2.7-1.5c0-0.2,0.1-0.4,0.3-0.6"/>
			<path class="st1" d="M125.3,150.8c-1.7-0.3-2.9-1.2-2.7-2c0.1-0.3,0.3-0.6,0.7-0.8"/>
			<path class="st1" d="M125.3,148.8c-1.7-0.3-2.9-1.2-2.7-2c0-0.3,0.2-0.5,0.5-0.7"/>
			<path class="st1" d="M125.3,147.1c-1.7-0.3-2.9-1.2-2.7-2c0-0.3,0.2-0.5,0.5-0.7"/>
		</g>
		<polygon class="st1" points="106,161.7 124.6,171.2 128.7,169.2 132.5,171.1 151.9,161.4 133.2,152.1 129.3,154.1 125.4,152.1 		
			"/>
		<line class="st1" x1="106" y1="161.7" x2="106" y2="170.3"/>
		<line class="st1" x1="151.9" y1="161.4" x2="152" y2="167.4"/>
		<line class="st1" x1="124.6" y1="171.2" x2="124.7" y2="181.2"/>
		<line class="st1" x1="132.5" y1="171.1" x2="132.5" y2="176.5"/>
		<line class="st1" x1="128.7" y1="169.2" x2="128.7" y2="175.8"/>
		<polyline class="st1" points="89.4,166.6 93.6,164.5 107.1,171.2 102.8,173.3 		"/>
		<line class="st1" x1="107.1" y1="175.5" x2="107.1" y2="171.2"/>
		<line class="st1" x1="157.7" y1="151.9" x2="157.7" y2="154.5"/>
		<line class="st1" x1="158.6" y1="164.2" x2="163.1" y2="166.5"/>
		<line class="st1" x1="179.5" y1="120.7" x2="191.8" y2="114.4"/>
		<line class="st1" x1="195.2" y1="101.9" x2="195.3" y2="111.1"/>
		<polyline class="st1" points="223.9,115.2 205,105.8 199.3,108.7 198.8,109.4 191.8,112.9 191.8,119.5 197.5,122.3 198.2,121.9 		
			"/>
		<polyline class="st1" points="197.4,122 197.4,115.8 204.6,112.1 205.8,111.9 211.4,109.1 		"/>
		<polyline class="st1" points="205.8,111.9 205.5,112.6 198.3,116.1 198.3,122.8 204,125.6 204.7,125.2 		"/>
		<polyline class="st1" points="218.1,112.3 212.2,115.3 211.2,115.4 204,119 203.9,125.5 		"/>
		<line class="st1" x1="198.5" y1="116.2" x2="204" y2="119"/>
		<line class="st1" x1="191.9" y1="112.9" x2="197.3" y2="115.6"/>
		<polyline class="st1" points="212.2,115.3 211.9,115.9 205,119.5 204.9,126 210.4,128.7 		"/>
		<line class="st1" x1="205" y1="119.5" x2="210.3" y2="122.1"/>
		<polyline class="st1" points="210.5,130.7 210.6,122.2 225.1,115 230.1,117.4 215.6,124.8 215.6,133 		"/>
		<line class="st1" x1="210.6" y1="122.2" x2="215.6" y2="124.8"/>
		<path class="st1" d="M230.1,117.4c0,0,0.8,0.3-0.8,3.6"/>
		<polyline class="st1" points="237.7,122.1 232.6,119.6 226.8,122.3 226.5,123 219.3,126.7 219.3,131.2 		"/>
		<polyline class="st1" points="245.3,128.2 245.2,124.2 239.5,121.5 225.4,128.5 225.3,133.4 		"/>
		<polyline class="st1" points="230.9,136.4 230.9,131.2 245.2,124.2 		"/>
		<line class="st1" x1="219.5" y1="126.8" x2="225.3" y2="129.6"/>
		<line class="st1" x1="225.4" y1="128.5" x2="230.9" y2="131.2"/>
		<line class="st1" x1="210" y1="130.6" x2="215.3" y2="133.3"/>
		<polygon class="st1" points="201.8,140.2 219.9,131 237.9,140 219.8,149.3 		"/>
		<polyline class="st1" points="201.8,140.2 201.8,151.9 211.1,156.6 		"/>
		<line class="st1" x1="219.8" y1="149.3" x2="219.9" y2="152.4"/>
		<line class="st1" x1="238.1" y1="140.1" x2="238.1" y2="144.7"/>
		<polyline class="st1" points="213.7,134.2 188.1,121.2 183.1,123.8 		"/>
		<polyline class="st1" points="208.4,136.5 180.5,122.7 171.1,127.4 		"/>
		<polyline class="st1" points="267.2,140.9 267.2,136.9 247.6,127.1 241.8,130 241.5,130.7 234.4,134.2 234.4,138 		"/>
		<polyline class="st1" points="238.2,142.7 239.9,143.4 240,136.9 234.4,134.2 		"/>
		<polyline class="st1" points="254.1,130.4 248.5,133.2 247.2,133.3 240,136.9 		"/>
		<polyline class="st1" points="248.3,133.2 248.1,133.8 240.9,137.4 240.9,143.4 		"/>
		<polyline class="st1" points="260.6,133.6 254.9,136.5 253.6,136.6 246.5,140.2 240.9,137.4 		"/>
		<line class="st1" x1="246.5" y1="142.3" x2="246.5" y2="140.2"/>
		<polyline class="st1" points="247.3,143 247.3,140.7 254.1,137.4 254.9,136.5 		"/>
		<polyline class="st1" points="247.3,140.7 253.1,143.4 260.2,139.9 261.5,139.7 266.9,136.9 		"/>
		<polyline class="st1" points="281.6,148.6 281.6,147.4 269.4,141 263.7,141 258.6,143.5 255.9,142.1 		"/>
		<path class="st1" d="M281.6,147.4l-21.2,11l-0.8-0.5l-10.8,5.4l-1.2-0.7c0,0-0.5-0.3-1.4,0.2c-1,0.6-10.8,5.4-10.8,5.4
			s-1.1,0.4-0.2,0.8c0.9,0.4,0.8,0.5,0.8,0.5s0.4,0.1,0.3,1.1l0,0.8"/>
		<path class="st1" d="M253.1,143.4l-15,7.7c0,0-0.6,0.5-1,1.4c-0.4,0.9-2,3.7-2,3.7s-0.1,0.3-1.2,0.9S201,173.7,201,173.7l0.1,1.2
			c0,0,3.5,1.7,4.8,2.6c1.3,0.9,2.7-0.2,2.7-0.2l66.3-33.4"/>
		<path class="st1" d="M142.1,220.9"/>
		<polyline class="st1" points="149.2,234 151.1,234.8 160.4,230 161.3,230.4 169.9,226 171,224 173.2,222.9 175.7,223.2 
			292.7,164.7 292.7,158.5 290.4,155.2 290.4,150.5 		"/>
		<path class="st1" d="M170.8,224.3v-4.9c0,0,0.4-2.9,2.4-3.6c0,0,1.7-0.5,1.8,1.1v6"/>
		<path class="st1" d="M151.1,234.6v-17.1c0,0-0.5-1.1-2.1-1.3v1.2"/>
		<path class="st1" d="M151.1,217.5l9.6-4.8c0,0-0.5-1.1-2.1-1.3l-9.6,4.8"/>
		<path class="st1" d="M161.7,230.1l-0.1-17.4l7.7-3.9c0,0,1.3-0.9,2.2-0.2c1,0.8,1.6,1.4,3,0.8c1.4-0.7,1.4-0.7,1.4-0.7"/>
		<path class="st1" d="M175.3,207.7c0.8,0.4,0.8,1.7,0.8,1.7v2.4c0,0,0.1,2.3,2.6,1.3c2.3-1,2.5-3.8,2.5-3.8s0-2.1,0-3
			c0-0.8-0.6-1.3-0.6-1.3c0-1.1-0.9-0.7-0.9-0.7l-3.6,1.9c0,0-0.6,0.3-0.7,1.4"/>
		<line class="st1" x1="161.7" y1="228.6" x2="161.7" y2="210"/>
		<path class="st1" d="M175.5,206.3"/>
		<path class="st1" d="M160.8,212.6v-2.7l8.6-4.1l0.6-1.1l67.4-33.6c0,0,0.7-0.1,0.8,0.5c0.1,0.6,0.3,4.5,0.3,4.5s0.9,0.6,0.8,1.5
			l11.6-5.7c0,0,0.6-0.7-0.1-1.6l0.1-4.9c0,0,0.2-1.1,1-1.5l32.8-16.3l2.7,1.8c0,0,1.2-0.1,0.9-1.4l-0.7-0.6c0,0-0.4-1.2,1-1.8
			l2.8-0.1c0,0,0.7,0,0.8,0.6l0,3.5l-41.2,20.7"/>
		<line class="st1" x1="181.4" y1="206.1" x2="238.9" y2="177.3"/>
		<line class="st1" x1="107.2" y1="172.5" x2="128.8" y2="183.4"/>
		<line class="st1" x1="125.1" y1="181.4" x2="127.3" y2="180.3"/>
		<line class="st1" x1="134.7" y1="186.9" x2="140.3" y2="184.1"/>
		<line class="st1" x1="116.1" y1="196.3" x2="129.9" y2="189.4"/>
		<path class="st1" d="M148.4,212.1"/>
		<polyline class="st1" points="158.6,211.3 158.6,208.9 161.1,207.6 163.1,208.6 		"/>
		<line class="st1" x1="160.8" y1="209.9" x2="158.6" y2="208.9"/>
		<line class="st1" x1="87.8" y1="166.1" x2="117.7" y2="151.4"/>
		<polyline class="st1" points="188.7,136.3 189.4,136.6 189.4,140.1 		"/>
		<polyline class="st1" points="191.4,147.1 197,149.8 176.7,160.1 		"/>
		<path class="st1" d="M197.2,151.8"/>
		<polygon class="st1" points="200.4,150.2 197.2,151.9 197.2,146.7 200.4,145.1 		"/>
		<line class="st1" x1="197.2" y1="146.7" x2="191.8" y2="144"/>
		<line class="st1" x1="197" y1="147.7" x2="191.2" y2="144.8"/>
		<polyline class="st1" points="189.5,138.8 199,143.6 201.7,142.2 		"/>
		<polyline class="st1" points="189.5,140 199,144.8 201.7,143.5 		"/>
		<polyline class="st1" points="121.2,183.2 128.9,187.2 130,186.6 		"/>
		<path class="st1" d="M134.7,185.7c0,0.7-1,1.2-2.3,1.2c-1.3,0-2.3-0.5-2.3-1.2"/>
		<path class="st1" d="M134.7,191.5c0,0.7-1,1.2-2.3,1.2c-1.3,0-2.3-0.5-2.3-1.2"/>
		<line class="st1" x1="134.7" y1="191.5" x2="134.7" y2="185.7"/>
		<path class="st1" d="M132.4,192.7"/>
		<line class="st1" x1="130.1" y1="185.7" x2="130.1" y2="191.5"/>
		<polyline class="st1" points="122.4,147.5 117.6,149.9 123.5,152.9 		"/>
		<polyline class="st1" points="117.6,149.9 117.6,151.5 122.1,153.7 		"/>
		<ellipse transform="matrix(0.498 -0.8672 0.8672 0.498 -103.8744 250.3079)" class="st1" cx="164.3" cy="214.9" rx="2" ry="1.4"/>
		<ellipse transform="matrix(0.498 -0.8672 0.8672 0.498 -105.2314 254.938)" class="st1" cx="167.6" cy="218.4" rx="2" ry="1.4"/>
		<ellipse transform="matrix(0.498 -0.8672 0.8672 0.498 -112.7874 255.7906)" class="st1" cx="164.5" cy="225.3" rx="2" ry="1.4"/>
		<ellipse transform="matrix(0.498 -0.8672 0.8672 0.498 -100.0662 264.7667)" class="st1" cx="178.7" cy="218.8" rx="2" ry="1.4"/>
		
			<ellipse transform="matrix(0.498 -0.8672 0.8672 0.498 -114.9241 248.0438)" class="st1" cx="156.8" cy="223.3" rx="1.3" ry="0.9"/>
		<path class="st1" d="M236,169.6l-10.6,5.4c0,0,1.4,0.2,1.2,1.3"/>
		<polyline class="st1" points="226.1,175.6 222.2,177.5 221.5,177.1 207.2,184.3 207.2,186.1 		"/>
		<path class="st1" d="M207.2,184.3l-14.1-6.8l1.5-2.2l3.7-1.8c0,0,0.4-0.3,1,0c0.6,0.3,1.9,0.9,1.9,0.9"/>
		<path class="st1" d="M124.2,137"/>
		<path class="st2" d="M283.5,154c0,0,1.2,0.9-0.1,2l-0.6,0.3l-12.9,6.4c0,0-0.5,0.4-0.5,1s0.1,3.7,0.1,3.7s-0.1,0.7,0.7,0.4
			s13.1-6.5,13.1-6.5s0.9-0.3,0.9,0.6s0,1.6,0,1.6s0.5,0.7,1-0.3c0,0,0.9-0.9-0.8-2.3c-1.7-1.4-1.3-1.4-1.3-1.4l0.1-3.2"/>
		<line class="st2" x1="285.5" y1="162.3" x2="292.6" y2="158.7"/>
		<path class="st2" d="M281.7,156.9l0,1.3c0,0,0.2,0.4-0.5,0.8c-0.2,0.1-0.5,0.2-0.7,0.3c-0.4,0.2-0.7,0.3-0.7,0.3l0,1.5l1.6-0.8"/>
		<path class="st2" d="M280.5,159.4l0.7,0.4c0,0,0.6,0.3,0.4,1.2l0,1.1"/>
		<path class="st1" d="M236.9,171.3c0,0,0-1.2,1-1.7s8.9-4.3,8.9-4.3s0.4-0.5,1.5,0.2"/>
		<path class="st1" d="M238,171.3c0,0,0-0.9,1.3-1.6c1.3-0.6,8-3.9,8-3.9s0.9-0.4,1.5-0.1"/>
		<path class="st1" d="M238.5,175.8l10.2-5.1c0,0,0.8-0.3,0.1-1.1l0-6.1"/>
		<line class="st1" x1="193.5" y1="177.7" x2="193.5" y2="182.9"/>
		<path class="st1" d="M193.3,181.7c0,0-0.9,1,0.6,1.6c0.4,0.1,0.9,0.4,1.5,0.7c0.8,0.4,1.7,0.8,2.5,1.2"/>
		<line class="st1" x1="140.5" y1="184.3" x2="140.4" y2="187.3"/>
		<polyline class="st1" points="140.4,186.9 139.7,187.3 142.1,188.4 		"/>
		<path class="st1" d="M145.1,176.5v-4c0,0-0.1-1.7,1.3-1.6c0,0,0.9,0.4,0.9,2.5"/>
		<path class="st1" d="M149.7,169.5c0,0,1,0.1,1,2.2"/>
		<path class="st1" d="M153.9,170.1c0-2-1-2.2-1-2.2v5.6"/>
		<line class="st1" x1="146" y1="170.9" x2="154.5" y2="166.8"/>
		<line class="st1" x1="149.7" y1="169.5" x2="149.7" y2="172.4"/>
		<path class="st1" d="M156.8,167c0.2,0.3,0.3,0.8,0.3,1.6"/>
		<line class="st1" x1="156.2" y1="169.2" x2="156.2" y2="167.2"/>
		<path class="st1" d="M193.5,179.5c-1.1-0.1-1.9-0.5-1.9-1v-1.3"/>
		<g>
			<polyline class="st1" points="204.7,161.5 204.7,160.2 202.6,161.2 202.6,167.5 201.6,167 201.6,168 			"/>
			<polyline class="st1" points="203.2,167.8 204.2,168.3 204.2,162 206.3,161 206.3,162.4 			"/>
			<polyline class="st1" points="204.7,168.7 205.7,169.2 205.7,162.9 207.8,161.9 207.8,163.2 			"/>
			<polyline class="st1" points="206.2,169.5 207.3,170 207.3,163.7 209.4,162.7 209.4,164.1 			"/>
			<polyline class="st1" points="208.8,169.7 208.8,164.6 210.9,163.5 210.9,165 			"/>
			<polyline class="st1" points="210.3,169.1 210.3,165.4 212.4,164.4 212.4,167.8 			"/>
		</g>
		<g>
			<polyline class="st1" points="205.5,161.3 205.5,159.7 207.6,158.7 207.6,160 			"/>
			<polyline class="st1" points="207.1,162.2 207.1,160.5 209.2,159.5 209.2,160.9 			"/>
			<polyline class="st1" points="208.6,163.1 208.6,161.4 210.7,160.4 210.7,161.7 			"/>
			<polyline class="st1" points="210.2,163.9 210.2,162.2 212.3,161.2 212.3,162.6 			"/>
			<polyline class="st1" points="211.7,164.8 211.7,163.1 213.8,162.1 213.8,163.5 			"/>
			<polyline class="st1" points="213.2,167.6 213.2,163.9 215.3,162.9 215.3,166.3 			"/>
		</g>
		<g>
			<polyline class="st1" points="208.4,159.9 208.4,158.2 210.5,157.2 210.6,158.5 			"/>
			<polyline class="st1" points="210,160.7 210,159 212.1,158 212.1,159.4 			"/>
			<polyline class="st1" points="211.5,161.6 211.5,159.9 213.6,158.9 213.6,160.2 			"/>
			<polyline class="st1" points="213.1,162.4 213.1,160.7 215.2,159.7 215.2,161.1 			"/>
			<polyline class="st1" points="214.6,163.3 214.6,161.6 216.7,160.6 216.7,162 			"/>
			<polyline class="st1" points="216.1,166.1 216.1,162.4 218.2,161.4 218.3,164.9 			"/>
		</g>
		<g>
			<polyline class="st1" points="211.3,158.4 211.3,156.7 213.4,155.7 213.4,157.1 			"/>
			<polyline class="st1" points="212.8,159.2 212.8,157.6 214.9,156.5 215,157.9 			"/>
			<polyline class="st1" points="214.4,160.1 214.4,158.4 216.5,157.4 216.5,158.7 			"/>
			<polyline class="st1" points="215.9,160.9 215.9,159.2 218,158.2 218,159.6 			"/>
			<polyline class="st1" points="217.5,161.8 217.5,160.1 219.6,159.1 219.6,160.5 			"/>
			<polyline class="st1" points="219,164.6 219,160.9 221.1,159.9 221.1,163.4 			"/>
		</g>
		<g>
			<polyline class="st1" points="214,157 214,155.4 216.1,154.3 216.1,155.7 			"/>
			<polyline class="st1" points="215.6,157.9 215.6,156.2 217.7,155.2 217.7,156.6 			"/>
			<polyline class="st1" points="217.1,158.7 217.1,157 219.2,156 219.2,157.4 			"/>
			<polyline class="st1" points="218.6,159.6 218.6,157.9 220.7,156.9 220.7,158.3 			"/>
			<polyline class="st1" points="220.2,160.4 220.2,158.7 222.3,157.7 222.3,159.2 			"/>
			<polyline class="st1" points="221.7,163.2 221.7,159.6 223.8,158.6 223.8,162 			"/>
		</g>
		<g>
			<polyline class="st1" points="216.8,155.6 216.8,154 218.9,153 218.9,154.3 			"/>
			<polyline class="st1" points="218.3,156.5 218.3,154.8 220.4,153.8 220.4,155.2 			"/>
			<polyline class="st1" points="219.9,157.3 219.9,155.7 222,154.6 222,156 			"/>
			<polyline class="st1" points="221.4,158.2 221.4,156.5 223.5,155.5 223.5,156.9 			"/>
			<polyline class="st1" points="223,159 223,157.4 225.1,156.3 225.1,157.8 			"/>
			<polyline class="st1" points="224.5,161.8 224.5,158.2 226.6,157.2 226.6,160.6 			"/>
		</g>
		<g>
			<polyline class="st1" points="219.6,154.2 219.6,152.6 221.7,151.6 221.7,152.9 			"/>
			<polyline class="st1" points="221.1,155.1 221.1,153.4 223.2,152.4 223.2,153.8 			"/>
			<polyline class="st1" points="222.7,155.9 222.7,154.3 224.8,153.3 224.8,154.6 			"/>
			<polyline class="st1" points="224.2,156.8 224.2,155.1 226.3,154.1 226.3,155.5 			"/>
			<polyline class="st1" points="225.7,157.6 225.7,156 227.8,154.9 227.8,156.4 			"/>
			<polyline class="st1" points="227.3,160.5 227.3,156.8 229.4,155.8 229.4,159.2 			"/>
		</g>
		<g>
			<polyline class="st1" points="222.4,152.8 222.4,151.2 224.5,150.2 224.5,151.5 			"/>
			<polyline class="st1" points="223.9,153.7 223.9,152 226,151 226,152.4 			"/>
			<polyline class="st1" points="225.4,154.5 225.4,152.9 227.5,151.9 227.6,153.2 			"/>
			<polyline class="st1" points="227,155.4 227,153.7 229.1,152.7 229.1,154.1 			"/>
			<polyline class="st1" points="228.5,156.3 228.5,154.6 230.6,153.6 230.6,155 			"/>
			<polyline class="st1" points="230.1,159.1 230.1,155.4 232.2,154.4 232.2,157.8 			"/>
		</g>
		<g>
			<polyline class="st1" points="225.1,151.5 225.1,149.8 227.2,148.8 227.3,150.1 			"/>
			<polyline class="st1" points="226.7,152.3 226.7,150.6 228.8,149.6 228.8,151 			"/>
			<polyline class="st1" points="228.2,153.2 228.2,151.5 230.3,150.5 230.3,151.8 			"/>
			<polyline class="st1" points="229.8,154 229.8,152.3 231.9,151.3 231.9,152.7 			"/>
			<polyline class="st1" points="231.3,154.9 231.3,153.2 233.4,152.2 233.4,153.6 			"/>
			<polyline class="st1" points="232.8,157.7 232.8,154 234.9,153 235,156.5 			"/>
		</g>
		<g>
			<polyline class="st1" points="242,143 242,141.3 244.1,140.3 244.1,141.7 			"/>
			<polyline class="st1" points="243.5,143.8 243.5,142.2 245.6,141.2 245.6,142.5 			"/>
			<polyline class="st1" points="245,144.7 245,143 247.1,142 247.1,143.4 			"/>
			<polyline class="st1" points="246.6,145.5 246.6,143.9 248.7,142.8 248.7,144.3 			"/>
			<polyline class="st1" points="248.1,145.7 248.1,144.7 250.2,143.7 250.2,144.8 			"/>
		</g>
		<g>
			<polyline class="st1" points="232.2,149.4 232.2,147.9 234.3,146.9 234.3,148.3 			"/>
			<polyline class="st1" points="233.8,150.3 233.8,148.8 235.9,147.8 235.9,149.2 			"/>
			<polyline class="st1" points="235.3,151.1 235.3,149.6 237.4,148.6 237.4,150.1 			"/>
			<polyline class="st1" points="236.8,152 236.8,150.5 238.9,149.5 238.9,150.6 			"/>
		</g>
		<g>
			<polyline class="st1" points="235.1,148 235.1,146.5 237.2,145.5 237.2,146.8 			"/>
			<polyline class="st1" points="236.6,148.9 236.6,147.3 238.7,146.3 238.7,147.7 			"/>
			<polyline class="st1" points="238.1,149.7 238.1,148.2 240.2,147.2 240.2,148.6 			"/>
			<polyline class="st1" points="239.7,150.3 239.7,149 241.8,148 241.8,149.2 			"/>
		</g>
		<g>
			<polyline class="st1" points="237.9,146.5 237.9,145.1 240,144 240,145.4 			"/>
			<polyline class="st1" points="239.4,147.4 239.4,145.9 241.5,144.9 241.5,146.3 			"/>
			<polyline class="st1" points="241,148.2 241,146.8 243.1,145.7 243.1,147.2 			"/>
			<polyline class="st1" points="242.5,148.8 242.5,147.6 244.6,146.6 244.6,147.8 			"/>
		</g>
		<g>
			<polyline class="st1" points="240.7,145.1 240.7,143.6 242.8,142.6 242.8,144 			"/>
			<polyline class="st1" points="242.3,146 242.3,144.5 244.4,143.5 244.4,144.9 			"/>
			<polyline class="st1" points="243.8,146.8 243.8,145.3 245.9,144.3 245.9,145.7 			"/>
			<polyline class="st1" points="245.4,147.4 245.4,146.2 247.5,145.1 247.5,146.3 			"/>
		</g>
		<g>
			<polyline class="st1" points="227.9,150.1 227.9,148.4 230,147.4 230,148.8 			"/>
			<polyline class="st1" points="229.5,150.9 229.5,149.2 231.6,148.2 231.6,149.6 			"/>
			<polyline class="st1" points="231,151.8 231,150.1 233.1,149.1 233.1,150.4 			"/>
			<polyline class="st1" points="232.5,152.6 232.5,150.9 234.6,149.9 234.7,151.3 			"/>
			<polyline class="st1" points="234.1,153.5 234.1,151.8 236.2,150.8 236.2,152.2 			"/>
			<polyline class="st1" points="235.6,155.1 235.6,152.6 237.7,151.6 			"/>
		</g>
		<polyline class="st1" points="199.1,171 199.4,170.8 200,171.1 203.2,169.4 		"/>
		<line class="st1" x1="201.1" y1="173.6" x2="199.5" y2="172.8"/>
		<line class="st1" x1="203.6" y1="172.4" x2="200.6" y2="170.8"/>
		<polyline class="st1" points="201.6,170.2 201.6,168 207.1,170.7 		"/>
		
			<ellipse transform="matrix(0.2857 -0.9583 0.9583 0.2857 -9.1757 356.3258)" class="st1" cx="234.4" cy="184.3" rx="1.9" ry="1.4"/>
		
			<ellipse transform="matrix(0.2857 -0.9583 0.9583 0.2857 16.8783 369.2001)" class="st1" cx="256.1" cy="173.3" rx="1.9" ry="1.4"/>
		<path class="st3" d="M273.6,143.2c0.2-0.8,0.8-1.5,1.7-1.7c1.2-0.2,2.3,0.5,2.6,1.6c0.2,0.8-0.1,1.5-0.7,2"/>
		<path class="st3" d="M272,142.2c0.2-0.8,0.8-1.5,1.7-1.7c0.8-0.2,1.7,0.1,2.1,0.7"/>
		<path class="st3" d="M270.3,141.2c0.2-0.8,0.8-1.5,1.7-1.7c0.8-0.2,1.7,0.1,2.1,0.7"/>
		<path class="st3" d="M268.5,140.3c0.2-0.8,0.8-1.5,1.7-1.7c0.8-0.2,1.7,0.1,2.1,0.7"/>
		<line class="st3" x1="260.2" y1="139.9" x2="260.2" y2="142.6"/>
		<line class="st3" x1="261.5" y1="139.7" x2="261.5" y2="141.9"/>
		<path class="st4" d="M171.7,126.6c-2.2-0.8-3-4.2-1.7-7.5c1.2-3.3,4-5.3,6.2-4.5c2.2,0.8,3,4.2,1.7,7.5c-0.2,0.5-0.4,1-0.7,1.4"/>
		<path class="st4" d="M169.6,117.2c1.3-2.3,3.5-3.7,5.3-3.2l1.4,0.6"/>
		<path class="st4" d="M170.6,126.1"/>
		<path class="st5" d="M174.7,113.9l0.9-0.5c0,0,3.4,0.7,3.7,4.8v4.7"/>
		<path class="st5" d="M165.8,124.8c0,0-0.3-6.4,1.9-7.4l1.3,0.6c0,0,0.4,0.7,0,1.7c-0.4,1-0.5,5.6-0.4,6.4"/>
		<path class="st5" d="M167.8,117.3l0.6-0.3l1.3,0.6c0,0,0.3,0.5,0.2,1.2c-0.1,0.7-1.5,6,0.7,7.3"/>
		<polyline class="st5" points="177.1,124.4 177,123.1 176.4,122.9 171.7,125.2 172.4,125.4 172.4,126.4 		"/>
		<g>
			<line class="st6" x1="174.2" y1="118.5" x2="174.3" y2="121.2"/>
			<line class="st6" x1="173" y1="120.4" x2="175.5" y2="119.4"/>
		</g>
		
			<ellipse transform="matrix(0.9011 -0.4336 0.4336 0.9011 -34.6431 105.1109)" class="st6" cx="213.1" cy="128.5" rx="1.4" ry="1.9"/>
		<text transform="matrix(0.7325 -0.3565 6.281000e-02 0.998 239.1529 174.6761)" class="st7 st8">PUSH</text>
	</g>
	<g>
		<g>
			<polyline class="st9" points="151.8,214.9 125.7,201.9 125.7,196.5 152.4,209.8 152.4,214.6 			"/>
			<polyline class="st9" points="125.8,196.5 127,195.9 153.6,209.1 153.6,213.8 			"/>
			<line class="st9" x1="125.7" y1="201.9" x2="130.9" y2="199.3"/>
			<polyline class="st9" points="132.3,199.9 132.3,205.2 137.2,202.5 			"/>
			<polyline class="st9" points="139,203.2 139,208.4 144.1,205.8 			"/>
			<polyline class="st9" points="145.6,206.5 145.6,211.7 150.7,209.1 			"/>
			<line class="st9" x1="152.4" y1="209.8" x2="153.6" y2="209.1"/>
			<line class="st10" x1="153.9" y1="209.2" x2="174.7" y2="198.7"/>
			<polyline class="st10" points="127.5,196 148.1,185.4 174.7,198.7 174.8,202 			"/>
			<path class="st10" d="M177.9,200.5v-3.6l8.8-4.4c0,0,1-0.5,1.8-0.1s2.6,1.4,2.6,1.4"/>
			<g>
				<ellipse class="st11" cx="132.4" cy="178.9" rx="3.7" ry="1.9"/>
				<path class="st11" d="M136.1,182.5c0,1.1-1.6,1.9-3.7,1.9s-3.7-0.9-3.7-1.9"/>
				<path class="st11" d="M128.8,178.9v4.9c0,1.1,1.6,1.9,3.7,1.9s3.7-0.9,3.7-1.9v-4.7"/>
				<line class="st10" x1="131.1" y1="178" x2="133.5" y2="179.3"/>
				<line class="st10" x1="130.8" y1="179.4" x2="133.7" y2="177.9"/>
			</g>
			<g>
				<ellipse class="st11" cx="194" cy="165.5" rx="3.7" ry="1.9"/>
				<path class="st11" d="M197.7,169.2c0,1.1-1.6,1.9-3.7,1.9s-3.7-0.9-3.7-1.9"/>
				<path class="st11" d="M190.4,165.5v4.9c0,1.1,1.6,1.9,3.7,1.9s3.7-0.9,3.7-1.9v-4.7"/>
				<line class="st10" x1="192.7" y1="164.7" x2="195.2" y2="166"/>
				<line class="st10" x1="192.5" y1="166.1" x2="195.3" y2="164.6"/>
			</g>
			<g>
				<ellipse class="st11" cx="196.7" cy="187.1" rx="3.7" ry="1.9"/>
				<line class="st11" x1="200.4" y1="189.1" x2="200.4" y2="187.3"/>
				<line class="st11" x1="193.1" y1="187.1" x2="193.1" y2="192.7"/>
				<line class="st10" x1="195.4" y1="186.2" x2="197.9" y2="187.5"/>
				<line class="st10" x1="195.2" y1="187.6" x2="198" y2="186.1"/>
			</g>
			<path class="st11" d="M162.9,166.4l11.8-5.9c0,0,1.2-0.8,2.3-0.3c1,0.5,13.3,6.8,13.3,6.8"/>
			<line class="st11" x1="136.4" y1="179.3" x2="144.8" y2="175.2"/>
			<ellipse class="st1" cx="142.4" cy="178.8" rx="2.1" ry="1.1"/>
			<path class="st12" d="M143.8,180.4c0.1,0.1,0.1,0.2,0.2,0.3c0.1,0.4-0.5,0.8-1.4,1s-1.5-0.1-1.6-0.6c0-0.2,0.1-0.4,0.3-0.6"/>
			<path class="st12" d="M143.6,181.4c0.2,0.1,0.3,0.2,0.4,0.4c0.1,0.4-0.5,0.8-1.4,1s-1.5-0.1-1.6-0.6c0-0.2,0.2-0.5,0.5-0.7"/>
			<path class="st1" d="M140.3,178.9v0.8c0,0.6,0.9,1.1,2.1,1.1s2.1-0.5,2.1-1.1v-0.9"/>
			<path class="st10" d="M185.5,178.8l14-7c0,0,0.2-0.5-0.3-0.7c-0.4-0.2-1.3-0.6-1.3-0.6"/>
			<ellipse class="st10" cx="184" cy="179.7" rx="1.9" ry="0.9"/>
			<path class="st13" d="M185.2,183.1c0.2,0.1,0.2,0.2,0.2,0.4c0,0.3-0.6,0.6-1.4,0.6"/>
			<path class="st10" d="M184,181.7c1.1,0,1.9-0.4,1.9-0.9v-1.1"/>
			<path class="st14" d="M185.2,181.5c0.1,0.1,0.2,0.2,0.2,0.3c0,0.3-0.6,0.7-1.3,0.8"/>
			<path class="st14" d="M185.1,182.3c0.2,0.1,0.3,0.2,0.4,0.3c0,0.3-0.6,0.7-1.3,0.8"/>
			<line class="st14" x1="186.2" y1="180" x2="193.7" y2="176"/>
			<line class="st14" x1="199.5" y1="171.8" x2="199.5" y2="172.9"/>
			<polyline class="st14" points="167.1,194.6 187.6,184.3 187.6,183.4 185.4,182.3 			"/>
			<line class="st14" x1="184.1" y1="185.1" x2="187.6" y2="183.4"/>
			<g>
				<polyline class="st15" points="161.4,192.1 161.4,189.4 163.9,188.2 163.9,190.6 				"/>
				<polyline class="st15" points="159,191 159,188.3 161.4,187.1 161.4,189.5 				"/>
				<polyline class="st15" points="156.4,189.6 156.4,187 158.9,185.8 158.9,188.2 				"/>
				<polyline class="st15" points="153.9,188.3 153.9,185.7 156.3,184.5 156.4,186.9 				"/>
				<polyline class="st15" points="151.4,187.1 151.4,184.5 153.9,183.3 153.9,185.6 				"/>
				<polyline class="st15" points="148.8,185.8 148.8,183.1 151.2,182 151.3,184.3 				"/>
				<polyline class="st15" points="146.3,186.1 146.3,181.9 148.8,180.7 148.8,183.1 				"/>
				<polyline class="st15" points="146.4,181.7 146.4,179.3 144,180.5 144,184.7 143.2,184.3 				"/>
				<polyline class="st16" points="163.9,193.3 163.9,190.7 166.4,189.5 166.4,194.4 				"/>
				<polyline class="st16" points="169.9,192.2 169.9,187.8 167.4,189 167.4,193 167.9,193.2 166.6,193.9 				"/>
				<polyline class="st16" points="167.5,188.8 167.5,186.5 164.9,187.7 164.9,190.2 				"/>
				<polyline class="st16" points="171,187.1 170.9,184.7 168.4,186 168.4,188.5 				"/>
				<polyline class="st16" points="174.4,185.3 174.4,183 171.9,184.2 171.9,186.7 				"/>
				<polyline class="st16" points="177.9,183.6 177.9,181.2 175.4,182.5 175.4,185 				"/>
				<polyline class="st16" points="181.4,181.9 181.4,179.5 178.9,180.7 178.9,183.2 				"/>
				<g>
					<polyline class="st16" points="164.9,187.6 164.9,185.2 162.4,186.4 162.4,188.9 					"/>
					<polyline class="st16" points="168.4,185.8 168.4,183.5 165.9,184.7 165.9,187.2 					"/>
					<polyline class="st16" points="172,184.1 171.9,181.7 169.4,182.9 169.4,185.4 					"/>
					<polyline class="st16" points="175.4,182.4 175.4,180 172.9,181.2 172.9,183.7 					"/>
					<polyline class="st16" points="178.9,180.6 178.9,178.3 176.4,179.5 176.4,182 					"/>
					<polyline class="st16" points="182.4,178.9 182.4,176.5 179.9,177.7 179.9,180.2 					"/>
				</g>
				<polyline class="st16" points="173.4,190.4 173.4,186 170.9,187.3 170.9,191.2 171.5,191.5 170.2,192.2 				"/>
				<polyline class="st16" points="177,188.7 177,184.3 174.4,185.5 174.4,189.4 175,189.7 173.7,190.4 				"/>
				<polyline class="st16" points="180.5,186.9 180.4,182.5 177.9,183.7 177.9,187.7 178.5,187.9 177.2,188.6 				"/>
				<polyline class="st16" points="183.9,185.2 183.9,180.8 181.4,182 181.4,186 181.9,186.2 180.6,186.9 				"/>
			</g>
			<g>
				<polyline class="st16" points="162.5,186.2 162.5,183.9 160,185.1 160,187.6 				"/>
				<polyline class="st16" points="165.9,184.5 165.9,182.1 163.4,183.3 163.4,185.8 				"/>
				<polyline class="st16" points="169.5,182.7 169.5,180.3 167,181.5 167,184.1 				"/>
				<polyline class="st16" points="173,181 173,178.6 170.5,179.8 170.5,182.4 				"/>
				<polyline class="st16" points="176.5,179.3 176.5,176.9 173.9,178.1 173.9,180.6 				"/>
				<polyline class="st16" points="180,177.5 180,175.1 177.5,176.3 177.5,178.8 				"/>
			</g>
			<g>
				<polyline class="st16" points="159.9,185 159.9,182.6 157.4,183.8 157.4,186.3 				"/>
				<polyline class="st16" points="163.4,183.2 163.4,180.9 160.8,182.1 160.8,184.6 				"/>
				<polyline class="st16" points="166.9,181.4 166.9,179.1 164.4,180.3 164.4,182.8 				"/>
				<polyline class="st16" points="170.4,179.7 170.4,177.4 167.9,178.6 167.9,181.1 				"/>
				<polyline class="st16" points="173.9,178 173.9,175.7 171.4,176.9 171.4,179.4 				"/>
				<polyline class="st16" points="177.4,176.2 177.4,173.9 174.9,175.1 174.9,177.6 				"/>
			</g>
			<g>
				<polyline class="st16" points="157.4,183.9 157.4,181.5 154.8,182.8 154.8,185.3 				"/>
				<polyline class="st16" points="160.8,182.2 160.8,179.8 158.3,181 158.3,183.5 				"/>
				<polyline class="st16" points="164.4,180.4 164.4,178 161.9,179.2 161.9,181.7 				"/>
				<polyline class="st16" points="167.9,178.7 167.9,176.3 165.3,177.5 165.3,180 				"/>
				<polyline class="st16" points="171.4,176.9 171.4,174.6 168.8,175.8 168.8,178.3 				"/>
				<polyline class="st16" points="174.9,175.2 174.9,172.8 172.3,174 172.3,176.5 				"/>
			</g>
			<g>
				<polyline class="st16" points="154.9,182.5 154.9,180.2 152.4,181.4 152.4,183.9 				"/>
				<polyline class="st16" points="158.3,180.8 158.3,178.4 155.8,179.6 155.8,182.1 				"/>
				<polyline class="st16" points="161.9,179 161.9,176.6 159.4,177.9 159.4,180.4 				"/>
				<polyline class="st16" points="165.4,177.3 165.4,174.9 162.9,176.2 162.9,178.7 				"/>
				<polyline class="st16" points="168.9,175.6 168.9,173.2 166.3,174.4 166.3,176.9 				"/>
				<polyline class="st16" points="172.4,173.8 172.4,171.4 169.9,172.7 169.9,175.2 				"/>
			</g>
			<g>
				<polyline class="st16" points="152.3,181.3 152.3,178.9 149.8,180.1 149.8,182.6 				"/>
				<polyline class="st16" points="155.8,179.5 155.8,177.2 153.2,178.4 153.2,180.9 				"/>
				<polyline class="st16" points="159.3,177.8 159.3,175.4 156.8,176.6 156.8,179.1 				"/>
				<polyline class="st16" points="162.8,176.1 162.8,173.7 160.3,174.9 160.3,177.4 				"/>
				<polyline class="st16" points="166.3,174.3 166.3,172 163.8,173.2 163.8,175.7 				"/>
				<polyline class="st16" points="169.8,172.5 169.8,170.2 167.3,171.4 167.3,173.9 				"/>
			</g>
			<g>
				<polyline class="st16" points="149.9,180 149.8,177.7 147.3,178.9 147.3,181.4 				"/>
				<polyline class="st16" points="153.3,178.3 153.3,175.9 150.8,177.2 150.8,179.7 				"/>
				<polyline class="st16" points="156.9,176.5 156.9,174.2 154.3,175.4 154.3,177.9 				"/>
				<polyline class="st16" points="160.4,174.8 160.4,172.5 157.8,173.7 157.8,176.2 				"/>
				<polyline class="st16" points="163.9,173.1 163.8,170.7 161.3,171.9 161.3,174.4 				"/>
				<polyline class="st16" points="167.4,171.3 167.4,168.9 164.8,170.2 164.8,172.7 				"/>
			</g>
			<g>
				<polyline class="st16" points="147.4,178.7 147.4,176.3 144.8,177.5 144.8,180 				"/>
				<polyline class="st16" points="150.8,176.9 150.8,174.6 148.3,175.8 148.3,178.3 				"/>
				<polyline class="st16" points="154.4,175.1 154.4,172.8 151.9,174 151.9,176.5 				"/>
				<polyline class="st16" points="157.9,173.4 157.9,171.1 155.3,172.3 155.3,174.8 				"/>
				<polyline class="st16" points="161.4,171.7 161.4,169.3 158.8,170.6 158.8,173.1 				"/>
				<polyline class="st16" points="164.9,169.9 164.9,167.6 162.3,168.8 162.3,171.3 				"/>
			</g>
			<g>
				<polyline class="st16" points="148.3,175.6 148.3,173.3 145.8,174.5 145.8,177 				"/>
				<polyline class="st16" points="151.8,173.8 151.8,171.5 149.3,172.7 149.3,175.2 				"/>
				<polyline class="st16" points="155.3,172.1 155.3,169.8 152.8,171 152.8,173.5 				"/>
				<polyline class="st16" points="158.8,170.4 158.8,168.1 156.3,169.3 156.3,171.8 				"/>
				<polyline class="st16" points="162.3,168.6 162.3,166.3 159.8,167.5 159.8,170 				"/>
			</g>
			<polyline class="st16" points="145.6,186.6 138.5,183.2 138.5,182.2 140.7,181.1 			"/>
			<polyline class="st16" points="138.9,182.4 142.3,184 144,183.1 			"/>
			<line class="st16" x1="186.7" y1="185" x2="192.9" y2="188.1"/>
		</g>
	</g>
	<line class="st10" x1="157.7" y1="211.7" x2="157.6" y2="207.5"/>
	<g>
		<line class="st1" x1="22.7" y1="186.2" x2="54.8" y2="170.1"/>
		<line class="st1" x1="31.4" y1="198.7" x2="55.8" y2="186.7"/>
		<polygon class="st1" points="109.1,184.4 116.7,180.7 73.2,158.9 65.6,162.6 		"/>
		<path class="st1" d="M65.4,164.4c0,0,0.4-0.8,1.3-0.3s41.5,20.8,41.5,20.8s1,0.5,1,2.1s0,14.5,0,14.5s-0.1,1.6-1.2,1.1
			S66.5,182,66.5,182"/>
		<line class="st1" x1="142.1" y1="221" x2="65.8" y2="182.9"/>
		<line class="st1" x1="113.2" y1="235.4" x2="150.5" y2="217"/>
		<line class="st1" x1="151.1" y1="218" x2="113.4" y2="237"/>
		<line class="st1" x1="150.9" y1="233.2" x2="113.3" y2="252.3"/>
		<path class="st1" d="M151.1,234.7v-17.1c0,0-0.5-1.1-2.1-1.3v1.2"/>
		<path class="st1" d="M109.2,186.2l5.6,2.7c0,0,1.3,0.6,1.3,1.7s-0.2,5.3-0.2,5.3s-0.2,1,0.7,1.4c0.9,0.4,4.4,2,4.4,2l1.1,1.6
			l28.4,14.4"/>
		<path class="st1" d="M54.1,169.9v-0.8l10.3-4.9l1.4,0.6c0,0,0.5,0.3,0.5,1s0,2,0,2l-9.2,4.6l-0.9-0.1v-2c0,0-0.1-1-2.2-1.3"/>
		<path class="st1" d="M55,187.2l1.3,0.6l10-5.1l-0.1-2l-0.9-0.3l-8.3,4.1c0,0-1,0.5-0.9,1.3l0,1.7"/>
		<path class="st1" d="M11.6,186.9l5.5-2.7c0,0,9.3,1.1,13.7,13.5c0,0,3.8,10.4-2.9,16l-6.2,3c0,0-2,0.3-4.5-0.9l-5.4-2.5
			c0,0-0.8-0.9-0.8-1.9c0-1,0.1-3,0.1-3"/>
		<path class="st1" d="M11.1,192.7l-0.1-4.9c0,0,0.3-1.1,2.4-0.9c0,0,9.4,3.5,12.1,13.1c0,0,4.9,10.7-2.2,15.9"/>
		<path class="st1" d="M12.9,198.3v-5.5c0,0,0.5-3.5,3.4-2.8c0,0,7.1,2.5,9.4,15.2c0,0,1.5,8.2-4.8,10.1c0,0-1.7,0.6-3.8-0.2
			s-5.8-3-5.8-3l5.4-2.7"/>
		<line class="st1" x1="18" y1="191" x2="18" y2="195.8"/>
		<path class="st1" d="M11.8,199.1l8.2-4.1c0,0,1.2,0.3,1.1,1.6l-1.1,3.8l-5,2.7l-1.7-3.1C13.2,200,12.7,198.9,11.8,199.1z"/>
		<path class="st1" d="M11.8,199.1c0,0-1.7,5.1,0.7,9.9l1.3-0.6c0,0,0-3.3,3-4.2c0,0,1.8-0.6,1.7,1.8l1.3-0.5c0,0,1-3.4,1-7"/>
		<path class="st1" d="M12.8,193.6c0,0,0.5,0.3-2.1-0.8c0,0-4.5-0.2-5.9,6.3v8c0,0,0,3,2.9,3.2c0,0,2.5,0.1,4-2.7"/>
		<path class="st1" d="M16.7,204.3l0.2,5.3c0,0,0.4,0.6,0.9,0.8s3.8,1.8,3.8,1.8s1.8,0.6,2.6,0.5"/>
		<path class="st1" d="M12.9,196c0,0-1.1,0.2-2.4-0.8c0,0-2.8,0.6-3.3,3.8l0,7.6c0,0,0.2,1.6,1.5,1.1s1.5-1.1,1.5-1.1l1-1.3"/>
		<path class="st1" d="M25.2,188.4l11-5.5c0,0,1.4-0.5,1.5,1c0.1,1.5,0,7.1,0,7.1s0.1,1.1-1.2,2.1l-5.9,2.9"/>
		<path class="st1" d="M47.9,178l-0.9,0.4c0-1.2-1-1-1-1l-6.5,3.2c-1.1,0.8-0.9,2-0.9,2l0,8.8c0,0,0.3,1.1,1.3,0.6
			c1-0.5,6.2-3,6.2-3s1.1-0.7,0.9-2l16.5-8.2V178c0,0,2.9-1,3.2-2.2l0.3-1l0-1.7c0,0-0.2-1.8-1.4-3.3v-1.6"/>
		<path class="st1" d="M61.5,179.8V179c0,0,2.9-1,3.2-2.2l0.3-1l0-1.7c0,0-0.2-1.8-1.4-3.3v-1.6"/>
		<polyline class="st1" points="48.1,186.6 48.1,177 57.5,172.4 		"/>
		<line class="st1" x1="54.5" y1="183.2" x2="54.5" y2="173.9"/>
		<polyline class="st1" points="111.7,187.3 121,182.7 121.1,189.5 116.2,192 		"/>
		<polyline class="st1" points="115.6,180 116.1,179.8 121,182.4 		"/>
		<path class="st1" d="M61.9,170.6c0,0,3,2.7,0.1,8.2"/>
		<line class="st1" x1="65.4" y1="180.3" x2="65.4" y2="177.2"/>
		<g>
			<polygon class="st1" points="83.7,182.1 70.4,175.6 70.4,180.9 83.8,187.6 			"/>
			<polyline class="st1" points="83.8,187.6 85.2,187 85.1,181.5 71.7,174.9 70.4,175.6 			"/>
			<line class="st1" x1="70.4" y1="180.9" x2="75.6" y2="178.2"/>
			<polyline class="st1" points="77.1,179 77.1,184.1 82.2,181.5 			"/>
			<line class="st1" x1="83.7" y1="182.1" x2="85.1" y2="181.5"/>
		</g>
		<g>
			<polygon class="st1" points="96.1,187.6 86.2,182.6 86.2,188.9 96.2,194 			"/>
			<polyline class="st1" points="96.2,194 97.8,193 97.7,186.5 87.9,181.6 86.2,182.6 			"/>
			<line class="st1" x1="86.2" y1="188.7" x2="90.8" y2="186.7"/>
			<polyline class="st1" points="91,185.2 91,191.3 95.6,189.3 			"/>
			<line class="st1" x1="96.1" y1="187.6" x2="97.4" y2="186.9"/>
		</g>
		<g>
			<polygon class="st1" points="103.9,191.5 98.8,188.9 98.8,195.3 104,198 			"/>
			<polyline class="st1" points="104,198 105.7,197 105.6,190.5 100.5,187.9 98.8,188.9 			"/>
			<path class="st1" d="M98.7,190.7"/>
			<line class="st1" x1="98.8" y1="195.3" x2="103.5" y2="193.3"/>
			<line class="st1" x1="103.9" y1="191.5" x2="105.2" y2="190.9"/>
		</g>
		<path class="st1" d="M117.1,237.6l14.2-7c0,0,1.3-0.4,1.3,0.8c0,1.3,0.1,7,0.1,7s-0.4,1.6-1.3,2.2c-0.9,0.6-14.4,7.2-14.4,7.2
			s-1.2,0-1.2-1.3s0.1-6.7,0.1-6.7S116,238.1,117.1,237.6z"/>
		<path class="st1" d="M142.8,225l6.3-3.1c0,0,0.8-0.7,0.8,0.2c0.1,0.8,0,8.3,0,8.3s0.1,0.5-0.6,0.9s-6.5,3.3-6.5,3.3
			s-0.7,0-0.7-0.8s0.1-7.9,0.1-7.9S142.4,225.1,142.8,225z"/>
		<ellipse transform="matrix(0.498 -0.8672 0.8672 0.498 -130.7465 233.6323)" class="st1" cx="136.4" cy="229.7" rx="2" ry="1.4"/>
		<ellipse transform="matrix(0.498 -0.8672 0.8672 0.498 -136.4724 236.9469)" class="st1" cx="136.4" cy="236.3" rx="2" ry="1.4"/>
		<line class="st1" x1="108.1" y1="235.7" x2="113" y2="233.4"/>
		<path class="st1" d="M103.8,228.5c1.7-0.3,3,0.1,3,0.1s3.1,1.2,4.6,2.1c1.7,1,1.7,2.3,1.7,2.3v23.3c0,0,0.3,0.9-0.7,1.4
			c-1.2,0.6-4.7,2.4-4.7,2.4s-1.3,0.4-3.3-0.5c-1.9-0.9-9.4-4.8-12.1-17.3c0,0-1.7-10,5.9-12.4c0,0,4.9-0.5,5-2.1c0,0-0.5-0.9-5.3,2
			"/>
		<path class="st1" d="M108,259.8v-22.9c0,0,0.2-2.3-1-3.1l-5.7-2.6c0,0-1.7-0.6-4.4,0.4"/>
		<path class="st1" d="M99.2,254.4c0,0-4.4-3.8-5.8-12.6c0,0-0.9-8.7,5-9.9c0,0,2.1-0.9,8.4,3v24.3c0,0-1.6,0.2-4-1.6"/>
		<path class="st1" d="M106.6,240.5l-1.3-0.6c0,0-3.5-0.4-5.5,4.7c0,0-0.5,2.5-0.5,3.9s0.1,6.6,0.1,6.6s1.3,3.7,4.7,2.1
			c0,0,2.5-1.7,2.7-3.1"/>
		<path class="st1" d="M99.9,232c0,0-2.9,5.3-0.1,12.6"/>
		<path class="st1" d="M106.7,241.8l-1.2-0.7c0,0-3.4,0.3-4.7,5.4v8.2c0,0-0.3,3.6,4.1,1.8"/>
		
			<ellipse transform="matrix(0.4022 -0.9156 0.9156 0.4022 -141.9822 147.5719)" class="st1" cx="42" cy="182.5" rx="1.6" ry="1.2"/>
		
			<ellipse transform="matrix(0.4022 -0.9156 0.9156 0.4022 -147.3842 151.0992)" class="st1" cx="42" cy="188.4" rx="1.6" ry="1.2"/>
		<polygon class="st1" points="142.5,219.4 134.5,215.4 134.5,208.4 142.5,212.4 		"/>
		<g>
			<polyline class="st1" points="136.9,214.7 135.5,214 135.5,209.9 141.4,212.9 141.4,217 139.9,216.2 			"/>
			<polyline class="st1" points="140,216.2 140,217.1 136.9,215.6 136.9,214.7 			"/>
		</g>
		<ellipse class="st1" cx="79.6" cy="165.4" rx="2.1" ry="1"/>
		<ellipse class="st1" cx="103.4" cy="177.3" rx="2.1" ry="1"/>
		<path class="st1" d="M111.8,187.7v4.5c0,0-0.3,2.1,1.3,2.7l2.8,1.3"/>
		<polygon class="st1" points="120.2,204.2 113.7,201 113.7,197.7 120.2,200.9 		"/>
		<ellipse transform="matrix(0.9368 -0.35 0.35 0.9368 -62.5103 51.4488)" class="st1" cx="111.1" cy="198.7" rx="1" ry="1.4"/>
		<line class="st1" x1="145.3" y1="212.7" x2="145.3" y2="219.3"/>
		<path class="st1" d="M82,178.1v-2.3c0.1-0.9-0.8-1.5-0.8-1.5l-8.7-4.4c-1-0.4-0.9,0.7-0.9,0.7v2.4c0,0-0.1,0.7,0.7,1.1l9,4.6
			C81.3,178.6,82,179,82,178.1z"/>
		<path class="st1" d="M71.8,169.8l0.9-0.5c0,0,0.4-0.2,0.8,0l8.6,4.3c0,0,0.9,0.6,0.8,1.5v2.3c0,0.6-0.2,0.7-0.2,0.7l-1.2,0.6"/>
		<path class="st1" d="M86,178.6"/>
		<path class="st1" d="M116.7,180.7c0,0,0.9,0.5,0.9,1c0,0.8,0,0.9,0,0.9s0.1,1-0.9,1.4c-1.1,0.4-5.6,2.7-5.6,2.7"/>
		<path class="st1" d="M109.6,184.1c0,0,0.7,0.3,0.8,0.8c0,0.5,0.1,1.8,0.1,1.8"/>
		<polyline class="st1" points="121,183.7 119.6,184.4 119.8,190.2 		"/>
		<path class="st1" d="M126.4,204.9l3.1,1.5c0,0,0.8,0.4,0.7,1.3c-0.1,0.8-0.1,0.9-0.8,0.9c-0.7-0.1-2.9-1.4-2.9-1.4
			s-0.7-0.7-0.8-1.5C125.7,205,126.4,204.9,126.4,204.9z"/>
	</g>
	<g>
		<path class="st17" d="M49.3,197.3l3.2-1.6l2.5,1.3l0.6,0.1L92,214.7l0.5,1.1l3.7-1.8l0.4,1.2l-1.1,0.5c0,0-1.6,0.9-1.1,2.5
			c0,0,0.8,1,1.8-0.3l0.4,0.3l0.2,0.9l-6.5,3.6h-0.5l-0.1,7.9c0,0,0,1.3-1.6,0.6c-1.6-0.8-38.3-19.1-38.3-19.1s-0.7-0.6-0.6-2.1
			c0.1-1.5-0.1-12.1-0.1-12.1L49.3,197.3z"/>
		<g>
			<path class="st18" d="M49.4,199.8c0-1.7,1.1-1.1,1.1-1.1l2.6,1.2c-0.1-0.9,0.5-0.7,0.5-0.7s32.6,16.3,34.3,17.1
				c1.7,0.8,1.3,1.8,1.3,1.8s0,10.7,0,12.2s-1.6,0.6-1.6,0.6S51,212.7,50.1,212.3c-0.8-0.4-0.8-1.3-0.8-1.3v-13.1c0,0-0.1-0.6,0.7-1
				c0.8-0.4,2.1-1,2.1-1s0.5-0.3,1,0c0.5,0.2,2.1,1.2,2.1,1.2"/>
			<line class="st18" x1="49.7" y1="197.2" x2="52.9" y2="198.7"/>
			<path class="st18" d="M53,199.3c0,0-0.1-0.8,0.6-1.2c0,0,0.1,0,0.1-0.1c0.8-0.4,2.1-0.9,2.1-0.9L92,214.8c0,0,0.3,0.2,0.4,0.8"/>
			<line class="st18" x1="53.5" y1="198.3" x2="89.4" y2="216.3"/>
			<path class="st18" d="M87.8,231.1l1.2,0.6c0,0,0.7,0,0.7-1.1c0-1.1,0-7.8,0-7.8"/>
			<path class="st18" d="M89,217.2c0,0,0.1-0.9,0.7-1.2s2.3-1.1,2.3-1.1"/>
			<path class="st18" d="M89.2,216.6c0.4,0.4,1.1,0.2,1.1,0.2l5.8-2.9l0.5,0.1v0.9c0,0,0.3,0.3-0.5,0.6c0,0-1.8,0.1-1.8,2.6
				c0,0,0.5,1.6,1.9,0l0.5,0.1l0.1,0.8c0,0,0.1,0.4-0.6,0.8s-5.9,3-5.9,3s-0.8,0-1.1-0.2"/>
			<line class="st18" x1="90.2" y1="222.4" x2="90.1" y2="216.9"/>
			<ellipse transform="matrix(0.5 -0.866 0.866 0.5 -142.8676 188.7529)" class="st19" cx="92" cy="218.1" rx="1.5" ry="0.9"/>
			<ellipse class="st20" cx="56.1" cy="198.4" rx="0.9" ry="0.4"/>
			<ellipse class="st20" cx="89.3" cy="214.8" rx="0.9" ry="0.4"/>
			<polygon class="st21" points="75.9,224.3 69,220.8 69,214.8 75.9,218.3 			"/>
			<polygon class="st21" points="58.5,213.6 51.6,210.1 51.6,205.6 58.5,209.1 			"/>
			<polygon class="st21" points="66.6,217.9 61.1,215.2 61.1,210.9 66.6,213.7 			"/>
			<path class="st21" d="M77.4,220c0-0.9,0.4-0.7,0.4-0.7l6,3c0,0,0.7,0.3,0.7,1.1c0,0.8,0,4.4,0,4.4s0.2,0.9-0.7,0.5
				c-1-0.5-6-3-6-3c-0.1,0-0.2-0.1-0.2-0.2c-0.1-0.1-0.1-0.2-0.1-0.3L77.4,220z"/>
			<path class="st18" d="M63.6,205.5l20.5,10.2c0,0,0.7,0.4,0.7,1s0,3.4,0,3.4s0.1,0.9-0.6,0.6s-20.4-10.2-20.4-10.2
				s-0.7-0.5-0.8-1.3c-0.1-1.2,0-3.3,0-3.3S63.1,205.3,63.6,205.5z"/>
			<g>
				<polygon points="69.2,225.4 59.7,220.6 42,232.2 37.3,229.8 39.1,239.6 56.3,239.3 51.4,236.9 				"/>
			</g>
		</g>
	</g>
	<g>
		<line class="st22" x1="62.9" y1="197.5" x2="111.7" y2="189.3"/>
		<line class="st23" x1="62.9" y1="197.5" x2="111.7" y2="189.3"/>
	</g>
	<line class="st22" x1="93" y1="224.6" x2="148.6" y2="213.6"/>
	<line class="st23" x1="93" y1="224.6" x2="148.6" y2="213.6"/>
	<g>
		<circle class="st24" cx="72.8" cy="247.8" r="14"/>
		<g>
			<text transform="matrix(1 0 0 1 67.085 255.0134)" class="st17 st25 st26">1</text>
		</g>
	</g>
	<g>
		<circle class="st24" cx="143.2" cy="27.6" r="14"/>
		<g>
			<text transform="matrix(1 0 0 1 137.437 34.8004)" class="st17 st25 st26">2</text>
		</g>
	</g>
	<g>
		<path class="st1" d="M63.8,164.2c0,0,0-0.6,0-1.6c0-1.1,1.2-1.6,1.2-1.6s7-3.7,7.4-3.8s0.6-0.2,1.1-0.1c0.5,0.1,0.8-0.2,0.9-0.6
			c0.1-0.4,1.2-0.9,1.2-0.9l111.7-55.9c0,0,0.7-0.5,1.3-0.1c0.6,0.5,2.1,1.4,2.1,1.4s0.3,0.2,0.6-0.1c0.2-0.2,0.6-0.7,0.4-1.2
			l-0.7-0.5c0,0-0.2-0.6,0-1s0.5-0.8,0.9-0.8c0.4,0,3.1-0.2,3.1-0.2s0.7,0.2,0.8,0.6l0,3.3c0,0,0.1,0.5-0.4,0.8
			s-44.9,22.4-44.9,22.4"/>
	</g>
	<g>
		<circle class="st27" cx="223.2" cy="184.7" r="11.3"/>
		<g>
			<text transform="matrix(1 0 0 1 218.4571 188.8875)" class="st25 st28">a</text>
		</g>
	</g>
</g>
<g id="Tilted_NVMEM" class="st29">
	<path class="st30" d="M243.1,174.3l7.2-2.6c0,0,0.4-0.1-0.1-1.2l0.4-6.2l13.5-7.2l1.9-0.8l17.1-8.5l0.7-5.4c0,0-0.1-1.2-1.9-1.5
		c-1.8-0.3-6.7-1.8-6.7-1.8l-0.8-1.4l-1.5,0.1l-0.8-1l-1.2,0.4l-0.8-1l-1.1,0.2l-1.4-1.1c0,0-2-0.1-2.1,2.1h-3.5c0,0,0.5-3.6-1.9-3
		l-19,7.7l-0.1,2.1l-34.6,14.8l1.5,2.1l-3.5-1.6l-4.5,1.7l-0.9,2.7l-0.6,6.3l1.2,0.7l-0.3,3.5l-1.3-0.1l-3.9,3.6l-1,5.1l11,4.6
		L237,171c0,0,1.5-0.6,1.5,1.5c0,0.4,0,2.2,0.3,3.4c0.1,0.5,0.7,0.5,0.8,1.2C239.5,177.1,243.1,173.6,243.1,174.3z"/>
	<g class="st31">
		<g>
			<path class="st32" d="M261.8,137.9c0,0,0.3-1.6,0.1-3.1c-0.3-1.5-2.3-0.5-2.3-0.5l-1.7,0.7l-17.2,7v1.9l-34.9,14.9l1.9,2.1
				l8.4,3.9l60-26.4l-5-2c0,0-1-0.1-1.8,0.4l-4.1,2c0,0-1,0.6-3.5-0.2c-2.4-0.8-3.7-1.5-3.7-1.5s-1.9-1.1-0.4-1.9"/>
			<path class="st32" d="M207.2,160.6l-3.2-1.5l-4.5,1.9l-0.9,2.4l19.4,9.5l15.5-7.4l1,0.6l4.4-1.7l-1.2-0.8l9.9-4.5l-3-1.4
				l12.3-5.4l3,1.1l8.4-4.2l1.2,0.6l3.4-1.4l-0.9-0.5l11.9-5.5c0,0,0.3-0.8-1.2-1.3c-1.5-0.5-6.6-2.5-6.6-2.5"/>
			<path class="st32" d="M198.7,163.5l-0.8,6.4l8,4.2c0,0,1.1,0.8,1,2c-0.1,1.2-1.3,5.9-1.3,5.9l-9-4.6l0.9-3.4l1.8,0.7
				c0,0,1.8,1.1,0.9,1.8c-0.9,0.7-0.9,0.7-0.9,0.7l6.5,3.1"/>
			<path class="st32" d="M211.2,183.8l2-9.9l2.9,1.3c0,0,2.2,1.3,2-2.2"/>
			<polyline class="st32" points="196.6,178.2 196.1,183.5 203.8,187.4 			"/>
			<line class="st32" x1="268.3" y1="155.3" x2="269.5" y2="149.7"/>
			<line class="st32" x1="283.9" y1="142.3" x2="283.1" y2="147.9"/>
			<line class="st32" x1="233.7" y1="165.6" x2="232" y2="173.5"/>
			<path class="st32" d="M218.9,182.9"/>
			<line class="st32" x1="227.1" y1="169.1" x2="225.5" y2="176.6"/>
			<path class="st32" d="M211,185"/>
			<path class="st32" d="M215.1,174.7c0,0,2.2,2.2,1.5,6.4"/>
			<line class="st32" x1="199.3" y1="170.8" x2="198.8" y2="174"/>
			<line class="st32" x1="247.7" y1="159.1" x2="244" y2="175.1"/>
			<path class="st32" d="M245.7,174.1l3.1-12.4c0,0,0.5-2.5,1.8-2.9s6.7-3.2,6.7-3.2s1-0.1,1,0.5c0,0.6-1.2,4.7-1.2,4.7"/>
			<path class="st32" d="M247.6,160.8c0,0,0.6-2.3,1.8-2.9c1.3-0.7,6.4-2.9,6.4-2.9s1.3-0.6,2.3,0.9"/>
			<path class="st32" d="M265.1,157l0.8-3c0,0,0.2-1.2-1-0.5c-1.2,0.7-3.2,5.3-3.2,5.3"/>
			<line class="st32" x1="260" y1="153.4" x2="258.1" y2="160.5"/>
			<line class="st32" x1="261.9" y1="137.2" x2="268.2" y2="137.1"/>
			<path class="st32" d="M265.2,137.1c0-0.4,0.1-0.8,0.3-1.2c0.5-1.3,1.6-2.1,2.5-1.8c0.3,0.1,0.5,0.4,0.7,0.7"/>
			<path class="st32" d="M267.5,137.2c0-0.2,0.1-0.3,0.2-0.5c0.5-1.3,1.6-2.1,2.5-1.8c0.4,0.2,0.6,0.5,0.7,1"/>
			<path class="st32" d="M270.6,136.3c0.5-0.5,1.1-0.7,1.7-0.5c0.4,0.2,0.6,0.5,0.8,1"/>
			<path class="st32" d="M273,137.2c0.5-0.5,1.1-0.7,1.7-0.5c0.6,0.2,0.8,0.9,0.8,1.7"/>
			<path class="st32" d="M267.6,157.4"/>
			<line class="st32" x1="249.1" y1="161.2" x2="257.9" y2="157"/>
			<line class="st32" x1="247.9" y1="165.9" x2="251.4" y2="164.3"/>
			<line class="st32" x1="247.8" y1="167" x2="250.8" y2="165.6"/>
			<line class="st32" x1="200.7" y1="174.5" x2="204.2" y2="176.4"/>
			<path class="st32" d="M242,170.9l0.1-2.1l1.6-5.2c1.9-1,1.7,0.1,1.7,0.1l-2.2,10.5c0,0-1.1,0.6-1.2-0.9
				C241.9,171.9,242,170.9,242,170.9z"/>
			<path class="st32" d="M237.9,171.2c0.2-1.1,1.4-6.7,1.4-6.7"/>
			<line class="st32" x1="234.7" y1="166.1" x2="233.2" y2="172.7"/>
		</g>
		<g>
			<path d="M248.8,164.8l0.8-3l0.7-0.3c0.3-0.1,0.4-0.2,0.5-0.2c0.1,0,0.2,0,0.2,0.1c0,0.1,0,0.3,0,0.5c-0.1,0.2-0.1,0.3-0.2,0.5
				c-0.1,0.1-0.2,0.3-0.3,0.4c-0.1,0.1-0.2,0.2-0.3,0.2c-0.1,0.1-0.3,0.2-0.5,0.3l-0.3,0.1l-0.3,1.1L248.8,164.8z M249.9,162.1
				l-0.2,0.8l0.2-0.1c0.2-0.1,0.3-0.1,0.4-0.2c0.1-0.1,0.1-0.1,0.2-0.2c0.1-0.1,0.1-0.2,0.1-0.3c0-0.1,0-0.2,0-0.2s-0.1-0.1-0.1-0.1
				c0,0-0.2,0.1-0.3,0.1L249.9,162.1z"/>
			<path d="M251.5,160.9l0.4-0.2l-0.5,1.6c-0.1,0.3-0.1,0.4-0.1,0.5c0,0.1,0,0.2,0,0.2c0,0,0.1,0,0.3,0c0.1-0.1,0.2-0.1,0.3-0.2
				c0.1-0.1,0.1-0.2,0.2-0.3c0-0.1,0.1-0.3,0.2-0.5l0.5-1.6l0.4-0.2l-0.4,1.6c-0.1,0.4-0.2,0.6-0.3,0.8c-0.1,0.2-0.1,0.3-0.2,0.4
				c-0.1,0.1-0.2,0.3-0.3,0.4c-0.1,0.1-0.3,0.2-0.4,0.3c-0.2,0.1-0.4,0.1-0.4,0.1c-0.1,0-0.1-0.1-0.2-0.1c0-0.1,0-0.2,0-0.3
				c0-0.2,0.1-0.4,0.2-0.7L251.5,160.9z"/>
			<path d="M252.8,162l0.4-0.3c0,0.2,0,0.3,0,0.4c0.1,0.1,0.1,0.1,0.3,0c0.1-0.1,0.3-0.2,0.4-0.3c0.1-0.1,0.2-0.2,0.2-0.3
				c0-0.1,0-0.1,0-0.2c0,0-0.1-0.1-0.1-0.1c0,0-0.1,0-0.3,0c-0.2,0-0.3,0-0.4-0.1c-0.1-0.1-0.1-0.3,0-0.5c0-0.2,0.1-0.3,0.2-0.5
				c0.1-0.2,0.2-0.3,0.4-0.4c0.1-0.1,0.3-0.2,0.5-0.3c0.3-0.1,0.4-0.1,0.5,0c0.1,0.1,0.1,0.3,0,0.6l-0.4,0.2c0-0.1,0-0.2,0-0.3
				c0,0-0.1,0-0.2,0c-0.1,0.1-0.2,0.1-0.3,0.2c-0.1,0.1-0.1,0.1-0.1,0.2c0,0.1,0,0.1,0,0.1c0,0,0.2,0,0.3,0c0.2,0,0.3,0,0.4,0
				c0.1,0,0.1,0.1,0.2,0.2c0,0.1,0,0.2,0,0.4c0,0.2-0.1,0.3-0.2,0.5c-0.1,0.2-0.2,0.3-0.4,0.5c-0.1,0.1-0.3,0.2-0.5,0.3
				c-0.3,0.1-0.5,0.1-0.5,0C252.8,162.5,252.8,162.3,252.8,162z"/>
			<path d="M254.5,162.1l0.8-3l0.4-0.2l-0.3,1.2l0.8-0.4l0.3-1.2l0.4-0.2l-0.8,3l-0.4,0.2l0.4-1.3l-0.8,0.4l-0.4,1.3L254.5,162.1z"
				/>
		</g>
	</g>
</g>
<g id="Push_Call_Out">
</g>
<g id="Bezekl_CallOUt">
</g>
<g id="HIC_x2F_Arrows">
	<g>
		<polyline class="st1" points="207.1,64.4 210.2,66 203.3,69.6 195.2,65.5 186.2,70 186,73.5 182.9,75.1 		"/>
		<polyline class="st1" points="204.2,42.9 207.3,44.5 187.6,54.6 201.4,61.6 		"/>
		<polyline class="st1" points="168,40.4 183.8,32.7 198.4,40 		"/>
		<polyline class="st1" points="132.9,72.8 118.6,65.5 137.3,56 		"/>
		<polyline class="st1" points="210.2,66 210.2,67.4 203.3,71 195.2,66.9 186.2,71.4 186,74.9 182.9,76.5 		"/>
		<polyline class="st1" points="207.4,44.6 207.3,45.9 188.9,55.3 		"/>
		<polyline class="st1" points="162.3,87.9 166,89.7 185.6,79.7 185.6,78.4 		"/>
		<polyline class="st1" points="132.9,74.2 118.6,66.9 118.6,65.5 		"/>
		<line class="st1" x1="195.2" y1="65.5" x2="195.2" y2="66.9"/>
		<line class="st1" x1="203.3" y1="69.6" x2="203.3" y2="71"/>
		<polyline class="st1" points="142.6,55.3 144.1,56.2 148,56.2 		"/>
		<polyline class="st1" points="148.6,52.7 146.2,54 146.2,55.1 154.3,59.1 		"/>
		<path class="st1" d="M132.9,70.1l0.2,5.1l26.7,13.4c0,0,1.7,0.1,3.3-1.6l2.9,1.3l19.6-10l-2.9-1.4l-0.1-5l-26.8-13.4l-17.7,9
			l-0.6-0.1l-1.5,0.7l-1.1,0.2l-2.1,1.5l27,13.4l22.3-11"/>
		<line class="st1" x1="182.7" y1="77" x2="163.1" y2="87"/>
		<line class="st1" x1="162.7" y1="81.9" x2="162.8" y2="87.1"/>
		<line class="st1" x1="159.9" y1="83.1" x2="159.8" y2="88.6"/>
		<polyline class="st1" points="153.1,79.8 153.1,85.1 158.3,82.5 		"/>
		<polyline class="st1" points="146.4,76.6 146.4,81.6 151.6,79.1 		"/>
		<polyline class="st1" points="139.7,73.2 139.7,78.2 144.8,75.8 		"/>
		<line class="st1" x1="133.2" y1="75.1" x2="138.3" y2="72.5"/>
		<g>
			<ellipse class="st33" cx="139.9" cy="48.5" rx="2.6" ry="1.3"/>
			<path class="st34" d="M141.7,52.3c0.1,0.1,0.2,0.2,0.2,0.4c0,0.5-0.9,0.9-1.9,0.9c-1.1,0-1.9-0.4-1.9-0.9c0-0.1,0.1-0.3,0.2-0.4"
				/>
			<path class="st35" d="M141.5,50.8c-0.1,0.4-0.8,0.7-1.8,0.6c-0.9-0.1-1.6-0.6-1.5-1"/>
			<path class="st35" d="M141.3,51.2c0.2,0.2,0.2,0.3,0.2,0.5c-0.1,0.4-0.8,0.7-1.8,0.6c-0.9-0.1-1.6-0.6-1.5-1
				c0-0.1,0.1-0.2,0.2-0.3"/>
			<path class="st33" d="M141.5,51.9c0.6,0.2,1,0.6,1,1c0,0.7-1.2,1.3-2.6,1.3c-1.4,0-2.6-0.6-2.6-1.3c0-0.5,0.5-0.9,1.2-1.1"/>
			<path class="st33" d="M137.3,48.5v0.9c0,0.7,1.2,1.3,2.6,1.3c1.4,0,2.6-0.6,2.6-1.3v-0.9"/>
			<path class="st33" d="M137.3,52.7v4.7c0,0.7,1.2,1.3,2.6,1.3c1.4,0,2.6-0.6,2.6-1.3v-4.7"/>
			<path class="st35" d="M141.3,52.1c0.2,0.2,0.2,0.3,0.2,0.5c-0.1,0.4-0.8,0.7-1.8,0.6c-0.9-0.1-1.6-0.6-1.5-1
				c0-0.1,0.1-0.3,0.3-0.4"/>
			<line class="st34" x1="138.6" y1="48.9" x2="140.9" y2="47.8"/>
			<line class="st34" x1="140.7" y1="48.7" x2="139.1" y2="47.9"/>
		</g>
		<g>
			<ellipse class="st33" cx="201.3" cy="35.5" rx="2.6" ry="1.3"/>
			<path class="st34" d="M203.1,39.4c0.1,0.1,0.2,0.2,0.2,0.4c0,0.5-0.9,0.9-1.9,0.9c-1.1,0-1.9-0.4-1.9-0.9c0-0.1,0.1-0.3,0.2-0.4"
				/>
			<path class="st35" d="M203,37.8c-0.1,0.4-0.8,0.7-1.8,0.6c-0.9-0.1-1.6-0.6-1.5-1"/>
			<path class="st35" d="M202.8,38.3c0.2,0.2,0.2,0.3,0.2,0.5c-0.1,0.4-0.8,0.7-1.8,0.6s-1.6-0.6-1.5-1c0-0.1,0.1-0.2,0.2-0.3"/>
			<path class="st33" d="M202.9,38.9c0.6,0.2,1,0.6,1,1c0,0.7-1.2,1.3-2.6,1.3c-1.4,0-2.6-0.6-2.6-1.3c0-0.5,0.5-0.9,1.2-1.1"/>
			<path class="st33" d="M198.7,35.5v0.9c0,0.7,1.2,1.3,2.6,1.3c1.4,0,2.6-0.6,2.6-1.3v-0.9"/>
			<path class="st33" d="M198.7,39.8v4.7c0,0.7,1.2,1.3,2.6,1.3c1.4,0,2.6-0.6,2.6-1.3v-4.7"/>
			<path class="st35" d="M202.8,39.2c0.2,0.2,0.2,0.3,0.2,0.5c-0.1,0.4-0.8,0.7-1.8,0.6c-0.9-0.1-1.6-0.6-1.5-1
				c0-0.1,0.1-0.3,0.3-0.4"/>
			<line class="st34" x1="200" y1="36" x2="202.3" y2="34.9"/>
			<line class="st34" x1="202.1" y1="35.7" x2="200.5" y2="35"/>
		</g>
		<g>
			<ellipse class="st33" cx="204.3" cy="56.8" rx="2.6" ry="1.3"/>
			<path class="st34" d="M206,60.6c0.1,0.1,0.2,0.2,0.2,0.4c0,0.5-0.9,0.9-1.9,0.9s-1.9-0.4-1.9-0.9c0-0.1,0.1-0.3,0.2-0.4"/>
			<path class="st35" d="M205.9,59.1c-0.1,0.4-0.8,0.7-1.8,0.6c-0.9-0.1-1.6-0.6-1.5-1"/>
			<path class="st35" d="M205.7,59.5c0.2,0.2,0.2,0.3,0.2,0.5c-0.1,0.4-0.8,0.7-1.8,0.6s-1.6-0.6-1.5-1c0-0.1,0.1-0.2,0.2-0.3"/>
			<path class="st33" d="M205.9,60.1c0.6,0.2,1,0.6,1,1c0,0.7-1.2,1.3-2.6,1.3c-1.4,0-2.6-0.6-2.6-1.3c0-0.5,0.5-0.9,1.2-1.1"/>
			<path class="st33" d="M201.6,56.8v0.9c0,0.7,1.2,1.3,2.6,1.3c1.4,0,2.6-0.6,2.6-1.3v-0.9"/>
			<path class="st33" d="M201.6,61v4.7c0,0.7,1.2,1.3,2.6,1.3c1.4,0,2.6-0.6,2.6-1.3V61"/>
			<path class="st35" d="M205.7,60.4c0.2,0.2,0.2,0.3,0.2,0.5c-0.1,0.4-0.8,0.7-1.8,0.6c-0.9-0.1-1.6-0.6-1.5-1
				c0-0.1,0.1-0.3,0.3-0.4"/>
			<line class="st34" x1="203" y1="57.2" x2="205.2" y2="56.1"/>
			<line class="st34" x1="205" y1="57" x2="203.4" y2="56.2"/>
		</g>
		<g>
			<polyline class="st36" points="167.9,62.7 167.9,58.8 165.7,59.9 165.7,63.3 			"/>
			<polyline class="st36" points="171.2,61.1 171.2,57.2 168.9,58.3 168.9,61.8 169.4,62.1 168.2,62.7 			"/>
			<polyline class="st36" points="174.3,59.5 174.3,55.6 172.1,56.7 172.1,60.3 172.5,60.5 171.4,61.1 			"/>
			<polyline class="st36" points="177.5,57.9 177.5,54 175.3,55.1 175.3,58.7 175.7,58.9 174.6,59.5 			"/>
			<polyline class="st36" points="177.8,58 178.9,57.4 178.5,57.1 178.5,53.6 180.7,52.5 180.7,56.4 186.8,53.4 184.9,52.4 			"/>
		</g>
		<g>
			<polyline class="st36" points="165.8,59.8 165.7,57.8 163.5,58.9 163.5,62.1 			"/>
			<polyline class="st36" points="169,58.2 169,56.2 166.7,57.3 166.7,59.3 			"/>
			<polyline class="st36" points="172.1,56.6 172.1,54.6 169.9,55.7 169.9,57.8 			"/>
			<polyline class="st36" points="175.3,55 175.3,53 173.1,54.1 173.1,56.1 			"/>
			<polyline class="st36" points="178.5,53.5 178.5,51.5 176.3,52.6 176.3,54.5 			"/>
		</g>
		<g>
			<polyline class="st36" points="163.5,58.7 163.5,56.6 161.3,57.7 161.3,61 			"/>
			<polyline class="st36" points="166.8,57 166.8,55 164.5,56.1 164.5,58.2 			"/>
			<polyline class="st36" points="169.9,55.4 169.9,53.4 167.7,54.5 167.7,56.6 			"/>
			<polyline class="st36" points="173.1,53.9 173.1,51.8 170.9,52.9 170.9,55 			"/>
			<polyline class="st36" points="176.3,52.3 176.3,50.3 174.1,51.4 174.1,53.4 			"/>
			<polyline class="st36" points="179.4,53 179.4,48.8 177.1,49.9 177.1,51.8 			"/>
			<polyline class="st36" points="182.5,49.2 182.5,47.2 180.3,48.3 180.3,52.6 			"/>
		</g>
		<g>
			<polyline class="st36" points="161.5,57.5 161.5,55.5 159.2,56.6 159.2,59.9 			"/>
			<polyline class="st36" points="164.7,55.9 164.7,53.9 162.5,55 162.5,57 			"/>
			<polyline class="st36" points="167.9,54.3 167.9,52.3 165.6,53.4 165.6,55.5 			"/>
			<polyline class="st36" points="171.1,52.8 171.1,50.7 168.8,51.8 168.8,53.8 			"/>
			<polyline class="st36" points="174.3,51.2 174.3,49.2 172,50.3 172,52.3 			"/>
			<polyline class="st36" points="177.3,51.8 177.3,47.7 175.1,48.8 175.1,50.7 			"/>
			<polyline class="st36" points="180.5,48.1 180.5,46.1 178.2,47.2 178.2,49.4 			"/>
		</g>
		<g>
			<polyline class="st36" points="159.4,56.3 159.4,54.3 157.2,55.4 157.2,58.9 			"/>
			<polyline class="st36" points="162.7,54.7 162.6,52.7 160.4,53.8 160.4,55.8 			"/>
			<polyline class="st36" points="165.8,53.1 165.8,51.1 163.5,52.2 163.5,54.3 			"/>
			<polyline class="st36" points="169,51.6 169,49.5 166.7,50.6 166.7,52.7 			"/>
			<polyline class="st36" points="172.2,50 172.2,48 169.9,49.1 169.9,51.1 			"/>
			<polyline class="st36" points="175.2,50.7 175.2,46.5 173,47.6 173,49.5 			"/>
			<polyline class="st36" points="178.4,46.9 178.4,44.9 176.1,46 176.1,48.2 			"/>
		</g>
		<g>
			<polyline class="st36" points="157.2,55.2 157.2,53.2 155,54.3 155,58.2 153.5,57.5 			"/>
			<polyline class="st36" points="160.5,53.6 160.5,51.6 158.2,52.7 158.2,54.7 			"/>
			<polyline class="st36" points="163.6,52 163.6,50 161.4,51.1 161.4,53.2 			"/>
			<polyline class="st36" points="166.8,50.5 166.8,48.4 164.6,49.5 164.6,51.5 			"/>
			<polyline class="st36" points="170,48.9 170,46.9 167.8,48 167.8,50 			"/>
			<polyline class="st36" points="173.1,49.5 173.1,45.4 170.8,46.5 170.8,48.4 			"/>
			<polyline class="st36" points="176.2,45.8 176.2,43.8 174,44.9 174,47 			"/>
		</g>
		<g>
			<polyline class="st36" points="155,54.3 155,52.3 152.8,53.4 152.7,57.1 151.3,56.4 			"/>
			<polyline class="st36" points="158.3,52.7 158.3,50.7 156,51.8 156,53.8 			"/>
			<polyline class="st36" points="161.4,51.1 161.4,49.1 159.2,50.2 159.2,52.3 			"/>
			<polyline class="st36" points="164.6,49.5 164.6,47.5 162.4,48.6 162.4,50.6 			"/>
			<polyline class="st36" points="167.8,48 167.8,46 165.6,47.1 165.6,49 			"/>
			<polyline class="st36" points="170.9,48.6 170.8,44.4 168.6,45.5 168.6,47.5 			"/>
			<polyline class="st36" points="174,44.9 174,42.9 171.8,44 171.8,45.9 			"/>
		</g>
		<g>
			<polyline class="st36" points="153,53.2 152.9,51.2 150.7,52.3 150.6,56 146.5,54 			"/>
			<polyline class="st36" points="156.2,51.6 156.2,49.6 153.9,50.7 153.9,52.7 			"/>
			<polyline class="st36" points="159.3,50 159.3,48 157.1,49.1 157.1,51.2 			"/>
			<polyline class="st36" points="162.5,48.4 162.5,46.4 160.3,47.5 160.3,49.5 			"/>
			<polyline class="st36" points="165.7,46.8 165.7,44.9 163.5,45.9 163.5,47.9 			"/>
			<polyline class="st36" points="168.8,47.5 168.8,43.3 166.5,44.4 166.5,46.4 			"/>
			<polyline class="st36" points="171.9,43.8 171.9,41.8 169.7,42.9 169.7,44.9 			"/>
		</g>
		<g>
			<polyline class="st36" points="157.2,48.9 157.2,46.9 154.9,48 154.9,50.1 			"/>
			<polyline class="st36" points="160.4,47.4 160.4,45.3 158.1,46.4 158.1,48.5 			"/>
			<polyline class="st36" points="163.6,45.8 163.5,43.8 161.3,44.9 161.3,46.9 			"/>
			<polyline class="st36" points="166.6,46.5 166.6,42.3 164.3,43.4 164.3,45.3 			"/>
			<polyline class="st36" points="169.8,42.7 169.8,40.7 167.5,41.8 167.5,43.9 			"/>
		</g>
		<g>
			<polyline class="st36" points="155.1,47.7 155.1,45.7 152.8,46.8 152.8,50.9 			"/>
			<polyline class="st36" points="158.3,46.2 158.3,44.1 156,45.2 156,47.3 			"/>
			<polyline class="st36" points="161.5,44.6 161.5,42.6 159.2,43.7 159.2,45.7 			"/>
			<polyline class="st36" points="164.5,45.3 164.5,41.1 162.3,42.2 162.3,44.1 			"/>
			<polyline class="st36" points="167.7,41.5 167.7,39.5 165.4,40.6 165.4,42.7 			"/>
		</g>
		<polyline class="st36" points="167.5,64.4 186.9,54.6 186.9,53.5 		"/>
		<g>
			<ellipse class="st37" cx="183.3" cy="50.5" rx="2.2" ry="1.1"/>
			<path class="st38" d="M184.8,53.7c0.1,0.1,0.1,0.2,0.1,0.3c0,0.4-0.7,0.8-1.6,0.8s-1.6-0.3-1.6-0.8c0-0.1,0-0.2,0.1-0.3"/>
			<path class="st39" d="M184.7,52.4c-0.1,0.4-0.7,0.6-1.4,0.5c-0.7-0.1-1.3-0.5-1.2-0.9"/>
			<path class="st39" d="M184.5,52.7c0.1,0.1,0.2,0.3,0.2,0.4c-0.1,0.4-0.7,0.6-1.4,0.5c-0.7-0.1-1.3-0.5-1.2-0.9
				c0-0.1,0.1-0.2,0.1-0.2"/>
			<path class="st37" d="M181.2,50.5v0.8c0,0.6,1,1.1,2.2,1.1s2.2-0.5,2.2-1.1v-0.8"/>
			<path class="st39" d="M184.5,53.5c0.1,0.1,0.2,0.3,0.2,0.4c-0.1,0.4-0.7,0.6-1.4,0.5c-0.7-0.1-1.3-0.5-1.2-0.9
				c0-0.1,0.1-0.2,0.2-0.3"/>
			<line class="st38" x1="182.3" y1="50.9" x2="184.1" y2="50"/>
			<line class="st38" x1="184" y1="50.7" x2="182.6" y2="50.1"/>
		</g>
		<g>
			<ellipse class="st40" cx="150.2" cy="50.7" rx="2" ry="1"/>
			<path class="st41" d="M150.7,54.7c-0.1,0-0.3,0-0.5,0c-0.8,0-1.5-0.3-1.5-0.7c0-0.1,0-0.2,0.1-0.3"/>
			<path class="st42" d="M150.7,53c-0.2,0-0.4,0-0.6,0c-0.7-0.1-1.2-0.5-1.2-0.8"/>
			<path class="st42" d="M150.6,53.7c-0.2,0-0.3,0-0.5,0c-0.7-0.1-1.2-0.5-1.2-0.8c0-0.1,0.1-0.2,0.1-0.2"/>
			<path class="st40" d="M148.2,50.7v0.7c0,0.5,0.9,1,2,1"/>
			<path class="st42" d="M150.6,54.4c-0.2,0-0.3,0-0.5,0c-0.7-0.1-1.2-0.5-1.2-0.8c0-0.1,0.1-0.2,0.2-0.3"/>
			<line class="st41" x1="149.2" y1="51.1" x2="151" y2="50.2"/>
			<line class="st41" x1="150.8" y1="50.9" x2="149.6" y2="50.3"/>
		</g>
		<g>
			<line class="st43" x1="210.1" y1="67.5" x2="210.1" y2="66.1"/>
			<path class="st44" d="M152.5,47.3C152.5,47.3,152.5,47.2,152.5,47.3c0-0.1,0-0.1,0.1-0.1"/>
			<path class="st43" d="M209.9,67.7C209.9,67.7,209.9,67.7,209.9,67.7c0.1-0.1,0.2-0.2,0.2-0.2"/>
			<path class="st43" d="M184.2,33c-0.1-0.1-0.3-0.1-0.5-0.1c-0.2,0-0.3,0-0.5,0.1"/>
			<path class="st43" d="M210.1,66.1C210.1,66.1,210.1,66.1,210.1,66.1c0-0.1-0.1-0.2-0.2-0.2"/>
			<path class="st43" d="M209.9,66.4C209.9,66.3,209.9,66.3,209.9,66.4c0.1-0.1,0.2-0.2,0.2-0.2"/>
			<g>
				<polygon class="st45" points="166.2,6.2 176.9,17.6 171.5,16.7 171.7,27.8 161.2,26 161,14.8 155.7,13.9 				"/>
			</g>
			<g>
				<polygon class="st45" points="166.6,48.5 156,37.1 161.3,38.1 161.1,26.9 171.6,28.8 171.8,39.9 177.2,40.9 				"/>
			</g>
		</g>
	</g>
	<polygon class="st46" points="557.1,94.1 557.4,-25.4 603,-3.5 650.6,-24.2 649.9,87.5 642.9,84.1 641.8,75.9 636.7,75.4 
		624.3,75.9 619.8,73.8 581.8,92 575.4,90.4 567.4,104.7 	"/>
	<line class="st22" x1="118.2" y1="69.9" x2="118.2" y2="183.1"/>
	<line class="st22" x1="174.2" y1="89.1" x2="174.2" y2="158.3"/>
	<line class="st23" x1="118.2" y1="69.9" x2="118.2" y2="183.1"/>
	<line class="st23" x1="174.2" y1="88.4" x2="174.2" y2="157.6"/>
	<g>
		<g>
			<defs>
				<circle id="SVGID_1_" cx="285.6" cy="60.7" r="56"/>
			</defs>
			<clipPath id="SVGID_00000035531944927408396130000002685432825016861861_">
				<use xlink:href="#SVGID_1_"  style="overflow:visible;"/>
			</clipPath>
			<g style="clip-path:url(#SVGID_00000035531944927408396130000002685432825016861861_);">
				<g>
					<g>
						<path class="st48" d="M225.6,45.6l11.4-1.5l-0.2-1l51-6.7l3.3,7.2c0,0,0.2,0.6-0.4,0.9s-4.6,1.4-4.6,1.4l-1,0.1l-5.2,0.6
							c0,0-1.2,0.3-1.5-0.9l0.2,4.2c0,0,0.6,0.9,1.5,0.8c1-0.1,3.2-0.3,3.2-0.3l0.6,3.8c0,0-0.1,0.7-1.5,0.8
							c-1.4,0.2-20.1,2.5-20.1,2.5s-1.8,0.3-1.5,2.4s1.9,1.8,1.9,1.8l20.7-2.7c0,0,0.6-0.1,0.7-0.5l0.4,4.7l-4.5,0.7l0.3,3
							c0,0,0.2,1.5,2,1.3s5.8-0.8,5.8-0.8l4.9-1.7l-0.5-6.9l-1.4-3.3l-0.3-4"/>
						<polyline class="st48" points="286.8,67.1 285.5,52.7 284.9,46.4 						"/>
						<path class="st48" d="M291.3,44.2l0.5,6.7c0,0-1.4,0.6-3.5,1.2c0,0-1.8,0.6-2.8,0.6"/>
						<path class="st48" d="M286.4,60.9c0,0,1.7-0.3,2.5-0.6s3.6-1.2,3.6-1.2"/>
						<path class="st48" d="M291.2,55.5c0,0-0.1,0.9-1.1,1.1l-1.7,2l-1.3,0.2l-0.6-6.1"/>
						<line class="st48" x1="287.8" y1="52.3" x2="288.3" y2="58.6"/>
						<polyline class="st48" points="225.5,48.4 277.8,41.8 279.4,45.1 278.7,45 277.2,42.1 						"/>
						<polyline class="st48" points="278.1,44.8 276,47.1 225.5,53.8 						"/>
						<path class="st48" d="M276,47.1l0.4,4.6l6.4-0.8c0,0,0.4-0.1,0.6-0.5"/>
						<path class="st48" d="M279.5,45.5l4.6-0.6c0,0,0.6,0.7,0.1,0.8l-4.3,0.5C279.8,46.2,279.5,46.1,279.5,45.5z"/>
						<line class="st48" x1="280.1" y1="66.6" x2="225.6" y2="73.8"/>
						<path class="st48" d="M260.8,59.3c0,0,0.1,1.4,1.9,1.2c1.8-0.2,20.1-2.6,20.1-2.6s1.3-0.3,1.2,0.7"/>
						<path class="st48" d="M228,56.4l7.9-1c0,0,1-0.2,1.1,0.6c0.1,0.8,0.3,2.5,0.3,2.5s0.3,0.9-0.9,1.1c-1.2,0.2-7.6,1.1-7.6,1.1
							s-1.1,0.2-1.2-0.9c-0.2-1.1-0.3-2.6-0.3-2.6S227.1,56.6,228,56.4z"/>
						<path class="st48" d="M243.2,54.3l7.9-1c0,0,1-0.2,1.1,0.6c0.1,0.8,0.3,2.5,0.3,2.5s0.3,0.9-0.9,1.1c-1.2,0.2-7.6,1.1-7.6,1.1
							s-1.1,0.2-1.2-0.9c-0.2-1.1-0.3-2.6-0.3-2.6S242.3,54.5,243.2,54.3z"/>
						<path class="st48" d="M228.9,65.8l7.9-1c0,0,1-0.2,1.1,0.6c0.1,0.8,0.3,2.5,0.3,2.5s0.3,0.9-0.9,1.1s-7.6,1.1-7.6,1.1
							s-1.1,0.2-1.2-0.9c-0.2-1.1-0.3-2.6-0.3-2.6S228,66.1,228.9,65.8z"/>
						<path class="st48" d="M244.2,63.7l7.9-1c0,0,1-0.2,1.1,0.6c0.1,0.8,0.3,2.5,0.3,2.5s0.3,0.9-0.9,1.1s-7.6,1.1-7.6,1.1
							s-1.1,0.2-1.2-0.9c-0.2-1.1-0.3-2.6-0.3-2.6S243.2,64,244.2,63.7z"/>
					</g>
					<line class="st48" x1="291.6" y1="50.3" x2="285.6" y2="51.4"/>
					<line class="st48" x1="293" y1="64.9" x2="287" y2="65.9"/>
				</g>
				<path class="st48" d="M293.2,63.2l47.8-0.9c0,0,1,0.1,1,1s0.5,1.3,1.1,1.3s3.6-0.1,3.6-0.1"/>
				<polygon class="st48" points="271.3,72.1 268.9,73.4 268.8,76 271.1,77.3 273.6,76 273.5,73.4 				"/>
				<polygon class="st48" points="277,72 274.6,73.3 274.6,75.9 276.8,77.2 279.3,75.9 279.2,73.3 				"/>
				<polygon class="st48" points="282.7,71.9 280.3,73.2 280.2,75.9 282.5,77.1 284.9,75.8 284.9,73.2 				"/>
				<polygon class="st48" points="288.3,71.8 285.9,73.1 285.9,75.8 288.1,77 290.6,75.7 290.5,73.1 				"/>
				<polyline class="st48" points="273.2,85.3 273.2,82.7 271,81.4 268.6,82.7 268.6,83.8 				"/>
				<polyline class="st48" points="278.9,85.2 278.9,82.6 276.7,81.3 274.3,82.6 274.2,85.2 				"/>
				<polyline class="st48" points="284.6,85.1 284.5,82.5 282.3,81.2 279.9,82.5 279.9,85.2 				"/>
				<polyline class="st48" points="290.2,85 290.2,82.4 288,81.1 285.6,82.4 285.5,85.1 				"/>
				<polygon class="st48" points="268.5,81.7 270.5,80.6 270.5,78 268.7,77 				"/>
				<polygon class="st48" points="274,76.6 271.6,77.9 271.5,80.6 273.8,81.8 276.2,80.5 276.2,77.9 				"/>
				<polygon class="st48" points="279.6,76.6 277.2,77.9 277.2,80.5 279.4,81.8 281.9,80.5 281.8,77.9 				"/>
				<polygon class="st48" points="285.3,76.5 282.9,77.8 282.8,80.5 285.1,81.7 287.5,80.4 287.5,77.8 				"/>
				<polyline class="st48" points="290.8,76.5 288.4,77.8 288.3,80.4 290.6,81.7 				"/>
				<polygon class="st48" points="294.7,65.1 299.4,65.1 299.4,67.6 297,69.1 294.6,67.8 				"/>
				<polyline class="st48" points="293.1,65.3 293.8,65.3 293.8,67.8 291.4,69.3 289,68 289,67.1 				"/>
				<polyline class="st48" points="281.8,68.2 280,69.3 277.7,68 277.7,67.1 				"/>
				<polyline class="st48" points="276.8,67 276.8,67.9 274.4,69.4 272,68.1 272,67.6 				"/>
				<polyline class="st48" points="271.1,67.7 271.1,68.1 269.1,69.3 				"/>
				<polyline class="st48" points="288.2,67.3 288.2,68 285.8,69.4 283.4,68.1 				"/>
				<polygon class="st48" points="300.3,65.1 305,65.1 305,67.6 302.6,69.1 300.2,67.8 				"/>
				<polygon class="st48" points="305.9,65.1 310.7,65.1 310.6,67.6 308.3,69.1 305.9,67.7 				"/>
				<polygon class="st48" points="311.7,65 316.5,65 316.4,67.5 314,69 311.7,67.7 				"/>
				<polygon class="st48" points="317.3,64.9 322,64.9 322,67.4 319.6,68.9 317.2,67.6 				"/>
				<polygon class="st48" points="322.9,64.7 327.7,64.7 327.7,67.3 325.3,68.7 322.9,67.4 				"/>
				<polygon class="st48" points="328.6,64.7 333.3,64.7 333.3,67.2 330.9,68.7 328.5,67.4 				"/>
				<line class="st48" x1="296" y1="77.3" x2="293.3" y2="77.3"/>
				<line class="st48" x1="344.6" y1="76.4" x2="301.3" y2="77.2"/>
				<path class="st48" d="M303,77v-2.5c0,0,0.1-1.4-1.4-1.4"/>
				<path class="st1" d="M295.7,73.2l-4.4,0l1.5,3.3c0,0,0.4,0.7,0.3,1.3c0,0,0.7,0.9,0.8,2.2c0.1,1.3-0.1,5.4-0.1,5.4h1.5"/>
				<polyline class="st1" points="291.1,73.4 290.6,82 292.3,86 292.5,86.5 295.8,86.5 				"/>
				<line class="st1" x1="293" y1="77.2" x2="292.5" y2="86.5"/>
				<path class="st1" d="M266,91.1c-1.9,0-3.1,0.1-3.1,0.1l1.3,3.6"/>
				<path class="st1" d="M294.2,81.9l3.6,8.2c0,0,0.5,0.4-0.3,0.4c-0.5,0-15.4,0.3-25.5,0.5"/>
				<polyline class="st1" points="337.2,70.2 329.3,70.3 311,70.6 				"/>
				<line class="st1" x1="301.7" y1="70.6" x2="305.3" y2="70.5"/>
				<line class="st1" x1="246.6" y1="71.2" x2="295.5" y2="70.6"/>
				<g>
					<g>
						<ellipse class="st48" cx="298.7" cy="70.6" rx="2.7" ry="0.9"/>
						<path class="st48" d="M296.1,73v6.2c0,0.5,1.2,0.9,2.7,0.9c1.5,0,2.7-0.4,2.7-0.9V73"/>
						<path class="st48" d="M294.9,86.5v2c0,0.5,1.2,0.9,2.7,0.9"/>
						<path class="st48" d="M301.3,78.2c0.7,0.2,1.1,0.6,1.1,1c0,0.8-1.7,1.4-3.7,1.4c-2.1,0-3.7-0.6-3.7-1.4c0-0.4,0.4-0.7,1-0.9"
							/>
						<path class="st48" d="M301.7,71v1.3c0,0.5-1.4,1-3,1c-1.7,0-3-0.4-3-1V71"/>
					</g>
					<line class="st49" x1="297.3" y1="69.9" x2="300.3" y2="71.3"/>
					<line class="st49" x1="296.7" y1="71.1" x2="300.5" y2="70"/>
				</g>
				<g>
					<g>
						<ellipse class="st48" cx="269" cy="84.7" rx="2.7" ry="0.9"/>
						<path class="st48" d="M266.4,87.1v6.2c0,0.5,1.2,0.9,2.7,0.9c1.5,0,2.7-0.4,2.7-0.9v-6.2"/>
						<path class="st48" d="M271.6,92.3c0.7,0.2,1.1,0.6,1.1,1c0,0.8-1.7,1.4-3.7,1.4c-2.1,0-3.7-0.6-3.7-1.4c0-0.4,0.4-0.7,1-0.9"
							/>
						<path class="st48" d="M272,85.2v1.3c0,0.5-1.4,1-3,1c-1.7,0-3-0.4-3-1v-1.3"/>
					</g>
					<line class="st49" x1="268.7" y1="83.9" x2="269.3" y2="85.6"/>
					<line class="st49" x1="266.4" y1="84.7" x2="271.7" y2="84.7"/>
				</g>
				<line class="st1" x1="305.7" y1="72.2" x2="305.7" y2="69.6"/>
				<polygon class="st1" points="302,81.7 328.2,81.4 330,83.5 335.6,83.4 340,91.8 313.4,92.1 312.2,90.1 305.9,90.2 				"/>
				<polyline class="st1" points="302.1,81.7 302,88.4 305.9,97 308.1,96.9 				"/>
				<line class="st1" x1="339.7" y1="98.6" x2="340" y2="91.8"/>
				<polyline class="st1" points="310.9,96.8 312.2,96.8 313.4,98.8 				"/>
				<ellipse class="st1" cx="332.3" cy="81.8" rx="2.4" ry="0.7"/>
				<ellipse class="st1" cx="309.6" cy="93.1" rx="2.4" ry="0.7"/>
				<path class="st1" d="M308.2,94.9v2c0,0.2,0.6,0.4,1.3,0.4s1.3-0.2,1.3-0.4v-2"/>
				<path class="st1" d="M307.2,93.1v1.1c0,0.4,1.1,0.7,2.4,0.7c1.3,0,2.4-0.3,2.4-0.7v-1.1"/>
				<line class="st1" x1="330" y1="83.4" x2="330" y2="81.8"/>
				<line class="st1" x1="334.7" y1="81.8" x2="334.7" y2="83.4"/>
				<polyline class="st1" points="231.4,73.4 237.5,73.5 237.3,72.4 				"/>
				<path class="st1" d="M256.6,71.4c0,0-0.2,1.3,1,1.4c1.2,0.1,6.2,0,6.2,0s1.7-0.4,1.7,0.8c0,1.2-0.2,9.5-0.2,9.5"/>
				<g>
					<ellipse class="st1" cx="246.4" cy="78.3" rx="4.5" ry="4.3"/>
					<ellipse class="st1" cx="246.4" cy="77.6" rx="3" ry="2.9"/>
				</g>
				<path class="st1" d="M262.6,76.4v4.7c0,0,0,1.9-2.3,1.9c-2.3,0-3.2,0-3.2,0s-0.9,0.1-1-1.5"/>
				<path class="st1" d="M258.2,82.9c0,0-0.1-0.8,0.4-0.9v-1.8c0,0,0-1.3,1.7-1.4l1.1,0c0,0,0.3-0.1,0.6-0.7c0,0,0.1-0.3,0.7-0.2"/>
				<path class="st1" d="M307.6,111.2l-4.8-11.5c-0.3-1-1.7-0.9-1.7-0.9L291,98.8l-1.5-3.5c-0.3-0.9-1.9-0.8-1.9-0.8l-44.8,0.7
					c0,0-2.1,0.1-2,2l0.4,2.2l-8.5,0.1c0,0-2.1,0-2,1.2"/>
				<line class="st1" x1="272.3" y1="85.2" x2="291.8" y2="84.9"/>
				<line class="st1" x1="234.6" y1="85.6" x2="265.6" y2="85.2"/>
				<ellipse class="st48" cx="295.8" cy="97.4" rx="3.7" ry="1.2"/>
				<line class="st48" x1="292.1" y1="97.4" x2="292.1" y2="98.7"/>
				<line class="st48" x1="299.5" y1="97.4" x2="299.5" y2="98.7"/>
				<g>
					<path class="st17" d="M360.2,45.3c0,0-1.9,0.2-7,0.8c-5.1,0.5-6.5,1.8-6.5,1.8c-3.6,3.8-11,7.4-15.5,8.3
						c-4.4,0.9-10.7,6.1-11.8,7.5c-1.2,1.4-4.5,4.3-5.7,5c-1.2,0.8-2.7,2-2.7,2s-1.4,1.5-3.1,3l-0.1,0.1c-1.6,1.5-3.3,2.9-3.6,2.9
						c-0.4,0.1-1.2-0.2-1.2-0.2l-0.5-0.2c-1.2-0.8-1.6-2-1.6-2c-0.7-4.5,5.3-11.1,6.5-12s2-1.6,2.9-2.7l0.7-0.8c0,0-2,0.1-4.1-0.7
						s-3.5-1.2-3.5-1.2c-2.4,0-4.2-1.5-4.2-1.5l0,0c-0.2,0.9-0.4,1.7-0.5,2.3c-0.4,1.9-1.3,3-1.3,3s1.3,1.2,0.6,6.7
						c0,0-1.1,5.6-4.8,4.8l-0.4,0.1c0,0-1-3.6-0.9-6.7l-0.2-0.4c0,0-1.1-3.6-0.5-5.5c0,0,0.1-4.6,1.1-8.2c0,0-0.9-2.6,0.6-5.4
						c0,0,10.4-10.8,10.9-11.8c0.5-1,2.8-5.1,4.3-5.7c1.5-0.6,4.1-0.9,6.5-0.5c2.3,0.4,14.3,1.2,16.4,0.9c2.1-0.3,17.4-1.5,25.2-1.8
						c7.8-0.3,13.1-1.1,13.1-1.1"/>
					<path class="st1" d="M291.7,65.4l1.9,4.5c0,0,0,1.1-0.4,1.8c-0.1,0.2-0.3,0.4-0.6,0.5C292.6,72.1,291.6,68.5,291.7,65.4z"/>
					<path class="st1" d="M294.8,60.3c0,0,1.6,0.5,2.4,0.3c0,0,1.3,1.2,0.6,6.7c0,0-1.1,5.6-4.8,4.8"/>
					<path class="st1" d="M291.6,65c0,0-1.1-3.6-0.5-5.5c0,0,0.1-4.6,1.1-8.2c0,0-0.9-2.6,0.6-5.4c0,0,10.4-10.8,10.9-11.8
						c0.5-1,2.8-5.1,4.3-5.7c1.5-0.6,4.1-0.9,6.5-0.5c2.3,0.4,14.3,1.2,16.4,0.9c2.1-0.3,17.4-1.5,25.2-1.8
						c7.8-0.3,13.1-1.1,13.1-1.1"/>
					<path class="st1" d="M297.2,60.6c0,0,0.9-1.1,1.3-3c0.4-1.9,1.4-6.1,2-6.7"/>
					<path class="st1" d="M298.4,49.5c0,0,1.9,1.7,2.8,1c0.9-0.7,5.1-4.4,6.3-6.4c0.1-0.2,0.2-0.4,0.2-0.5c0.5-1.8,0-3-0.6-3.6"/>
					<path class="st1" d="M313.9,42.2c0,0-1.6,3.8-6.4,1.8"/>
					<path class="st1" d="M299.1,55.4c0,0,1.9,1.4,4.3,1.4c0,0,1.3,0.4,3.5,1.2s4.1,0.7,4.1,0.7"/>
					<path class="st1" d="M307.6,44.7c0,0,1.5,1.4,1.4,2.8c-0.2,1.3-0.2,2.1-0.3,2.4c-0.1,0.3-1.5,0.3-3.7,1.3
						c-2.2,1.1-1.4,0.9-1.4,0.9"/>
					<path class="st1" d="M309.1,49.5c0,0,1.7-0.4,2.9,1.2c0,0-0.1,2.6,0.7,4.5"/>
					<path class="st1" d="M318.2,41c0,0,2.3,4.9-2.3,11.8s-4.6,5.6-5.5,6.7s-1.8,1.8-2.9,2.7s-7.1,7.5-6.5,12c0,0,0.3,1.3,1.5,2.1"
						/>
					<path class="st1" d="M307.9,70.3c0,0-1.5-1.2-3-0.7c0,0-2.5,1.4-3.4,3.6c0,0-0.5,2.6,1.5,3.2c0,0,0.8,0.4,1.2,0.3
						c0.3,0,2.3-1.4,3.7-3.3c0.3-0.5,0.6-0.9,0.9-1.4C308.9,71.9,309.4,70.7,307.9,70.3z"/>
					<path class="st1" d="M307.9,73.6c1.7-1.5,3.1-3,3.1-3s1.5-1.2,2.7-2c1.2-0.8,4.5-3.7,5.7-5c1.2-1.4,7.4-6.6,11.8-7.5
						c4.4-0.9,11.8-4.5,15.5-8.3c0,0,1.5-1.3,6.5-1.8c5.1-0.5,7-0.8,7-0.8"/>
					<path class="st1" d="M311.1,36.5c0,0,1.7,2.2,2.1,3.4c0.3,1.3,2.3,5.1,3.5,11"/>
					<path class="st1" d="M314.4,43.5c0,0-1.6,2.1-1.9,4c-0.3,1.9-0.9,0.7-0.9,0.7s-0.3-1-2.6-0.4"/>
				</g>
			</g>
		</g>
		<polygon class="st50" points="277.5,18.4 268.9,27.2 273.2,26.6 273,41 281.5,39.8 281.6,25.4 285.9,24.8 		"/>
		<circle class="st51" cx="285.6" cy="60.7" r="56"/>
	</g>
	<g>
		<polygon class="st17" points="201.6,165.5 207.8,168.8 225.4,159.9 236.4,146.8 219,144.4 200.8,148.8 		"/>
		<g>
			<path class="st17" d="M176.9,144.2c0,5.3,8.4,9.5,18.7,9.5s18.7-4.3,18.7-9.5v-15.4c0-5.3-8.4-9.5-18.7-9.5s-18.7,4.3-18.7,9.5
				V144.2z"/>
			<path class="st17" d="M194.4,177.5c0,1.5,1.1,2.7,2.5,2.7c1.4,0,2.5-1.2,2.5-2.7v-23.4c0-1.5-1.1-2.7-2.5-2.7
				c-1.4,0-2.5,1.2-2.5,2.7V177.5z"/>
		</g>
		<g>
			<text transform="matrix(1 0 0 1 204.2992 161.1016)" class="st52"><tspan x="0" y="0" class="st25 st53">x</tspan><tspan x="7" y="0" class="st25 st53 st54"> </tspan><tspan x="8.2" y="0" class="st25 st53">3</tspan></text>
		</g>
		<g>
			<g>
				<defs>
					<rect id="SVGID_00000134936969097447789110000018392580858905242263_" x="191.5" y="133.7" width="10.4" height="49.5"/>
				</defs>
				<clipPath id="SVGID_00000105398614463967983890000006245028720463611060_">
					<use xlink:href="#SVGID_00000134936969097447789110000018392580858905242263_"  style="overflow:visible;"/>
				</clipPath>
				<g style="clip-path:url(#SVGID_00000105398614463967983890000006245028720463611060_);">
					<defs>
						<rect id="SVGID_00000082365780573854322340000008939426043583146131_" x="191.5" y="133.7" width="10.4" height="49.5"/>
					</defs>
					<clipPath id="SVGID_00000111894430015755634520000013054397464699932058_">
						<use xlink:href="#SVGID_00000082365780573854322340000008939426043583146131_"  style="overflow:visible;"/>
					</clipPath>
					<path style="clip-path:url(#SVGID_00000111894430015755634520000013054397464699932058_);" d="M197.1,183.2
						c-0.9,0-0.9,0-0.9-0.9c-0.1-7.5-0.2-14.9-0.3-22.4c0-0.3-0.1-0.4-0.4-0.4c-1,0-2.1,0-3.1,0c-0.8,0-0.9-0.2-0.9-0.9
						c0-0.7,0-1.4,0-2c0-0.6,0.1-0.7,0.7-0.9c0.7-0.2,1.1-0.6,1.1-1.2c0-0.6-0.4-1-1.1-1.2c-0.6-0.1-0.7-0.3-0.7-0.9
						c0-4.4,0-8.8,0-13.3c0-2.1,0.9-3.8,2.8-4.8c2-1.1,4.5-0.7,6.3,1.1c0.9,0.9,1.3,2.2,1.3,3.6c0,4.5,0,8.9,0,13.4
						c0,0.6-0.1,0.7-0.7,0.9c-0.7,0.1-1.1,0.6-1.1,1.2c0,0.6,0.4,1,1.1,1.2c0.6,0.1,0.7,0.3,0.7,0.9c0,0.7,0,1.4,0,2.1
						c0,0.6-0.2,0.8-0.8,0.8c-1.1,0-2.1,0-3.2,0c-0.4,0-0.5,0.1-0.5,0.5c0.1,5.4,0.1,10.8,0.2,16.2c0,2.2,0,4.3,0.1,6.5
						C197.7,183.1,197.6,183.2,197.1,183.2 M192.7,157.9c-0.1,0.3,0.1,0.4,0.4,0.4c2.2,0,4.4,0,6.6,0c0.9,0,0.9,0,0.9-0.9
						c0-0.4-0.1-0.6-0.5-0.8c-0.9-0.4-1.3-1.2-1.3-2.1c0-1,0.5-1.7,1.4-2.2c0.4-0.2,0.5-0.4,0.5-0.8c0-2.1,0-4.2,0-6.4
						c0-2.2,0-4.4-0.1-6.7c-0.1-1.6-1-2.8-2.5-3.4c-1.6-0.6-3-0.2-4.1,0.7c-1,1-1.3,2-1.3,3.2c0,4.2,0,8.3,0,12.5
						c0,0.3,0.1,0.5,0.4,0.6c0.9,0.4,1.4,1.1,1.4,2.1c0,0.9-0.4,1.7-1.2,2.2c-0.5,0.2-0.7,0.5-0.6,1
						C192.7,157.7,192.7,157.8,192.7,157.9"/>
					<path style="clip-path:url(#SVGID_00000111894430015755634520000013054397464699932058_);" d="M194.6,151.4
						c-0.2,0.1-0.4,0-0.6-0.1c-0.2-0.2-0.2-0.4-0.2-0.6c0-3.9,0-7.8,0-11.8c0-0.5,0.2-0.8,0.6-0.7c0.4,0,0.6,0.3,0.6,0.7
						c0,3.9,0,7.9,0,11.8C195,151.1,194.9,151.3,194.6,151.4"/>
					<path style="clip-path:url(#SVGID_00000111894430015755634520000013054397464699932058_);" d="M196.5,151.5
						c-0.4,0-0.6-0.3-0.6-0.8c0-3.9,0-7.8,0-11.7c0-0.3,0-0.6,0.4-0.7c0.2-0.1,0.5,0,0.7,0.1c0.2,0.2,0.2,0.4,0.2,0.6
						c0,3.9,0,7.8,0,11.7C197.1,151.2,196.9,151.5,196.5,151.5"/>
					<path style="clip-path:url(#SVGID_00000111894430015755634520000013054397464699932058_);" d="M199,151.5
						c-0.4,0-0.6-0.3-0.6-0.8c0,0,0-0.1,0-0.1c0-2,0-4.1,0-6.1v-5.3c0-0.3,0-0.5,0.2-0.8c0.1-0.1,0.3-0.2,0.6-0.1
						c0.2,0.1,0.4,0.3,0.4,0.5c0,0.3,0,0.7,0,1c0,3.6,0,7.2,0,10.8C199.6,151.2,199.4,151.5,199,151.5"/>
				</g>
			</g>
			<path class="st57" d="M183.1,154.2c0,0,1.7-2.8,4.6-5.8c2.3-2.3,5.3-3.8,5.3-3.8s-1.8-1.1-4.5-4.4c-3.8-4.7-5.4-9.1-5.4-9.1v6.3
				c-3.7-1.7-4.9-4.7-4.9-4.7v10.2c0,4.1,4.9,6.7,4.9,6.7V154.2z"/>
			<path class="st57" d="M209.9,125.4c-1.2-1.1-2.8-2.1-4.6-2.9v12.1c1,0.4,2,0.9,2.8,1.4c0.6-0.5,1.3-1,1.8-1.5V125.4z"/>
			<path class="st57" d="M211,133.3c0.7-1,1.1-2,1.1-3.2c0-1.2-0.4-2.3-1.1-3.3V133.3z"/>
			<path class="st57" d="M204.2,134.2c-1.9-0.6-4.1-1.1-6.5-1.3v-12.2c2.3,0.2,4.5,0.7,6.5,1.4V134.2z"/>
			<path class="st57" d="M196.6,132.9c-0.5,0-0.9,0-1.4,0c-3.7,0-6.9,0.6-9.5,1.6c-2.1-3.4-3.1-6.4-3.1-6.4v7.9
				c-0.1,0-0.1,0.1-0.2,0.1c-2-1.3-4.1-3.4-4.1-6c0-5.4,7.8-9.4,16.9-9.4c0.5,0,1,0,1.4,0V132.9z"/>
			<path class="st57" d="M208.6,136.6c-0.7,0.4-1.5,0.9-2.3,1.3v12.1c0.8-0.4,1.6-0.9,2.3-1.4V136.6z"/>
			<path class="st57" d="M209.8,147.7c1.7-1.5,2.8-3.3,2.8-5v-10.5c-0.8,1.5-1.6,2.6-2.8,3.6V147.7z"/>
		</g>
	</g>
	<polygon class="st58" points="202.5,176 209.2,182.6 199.9,185.1 	"/>
	<polygon class="st58" points="296.3,88.6 290.3,84.1 298.3,81.6 	"/>
	<line class="st59" x1="297" y1="82.8" x2="201.1" y2="183.4"/>
	<g>
		<g>
			<line class="st60" x1="294.7" y1="85.3" x2="203.3" y2="181.4"/>
			<g>
				<polygon points="292.4,84.1 297.2,82.7 296,87.5 				"/>
			</g>
			<g>
				<polygon points="202,179.1 200.8,184 205.6,182.5 				"/>
			</g>
		</g>
	</g>
	<g>
		<circle class="st17" cx="290.3" cy="189.6" r="31.7"/>
		<g>
			<defs>
				<circle id="SVGID_00000182496254388071076750000001670382424620652687_" cx="290.3" cy="189.6" r="31.7"/>
			</defs>
			<clipPath id="SVGID_00000036223937831323050260000007335492745175012791_">
				<use xlink:href="#SVGID_00000182496254388071076750000001670382424620652687_"  style="overflow:visible;"/>
			</clipPath>
			<g style="clip-path:url(#SVGID_00000036223937831323050260000007335492745175012791_);">
				<line class="st62" x1="250.1" y1="191.3" x2="324.7" y2="154.1"/>
				<line class="st63" x1="306.5" y1="197.2" x2="324.7" y2="188.1"/>
				<line class="st63" x1="250.1" y1="225.4" x2="279.9" y2="210.4"/>
				<line class="st62" x1="250.1" y1="209.4" x2="275.3" y2="196.6"/>
				<line class="st62" x1="301.6" y1="179.5" x2="324.7" y2="168"/>
				<line class="st62" x1="250.1" y1="205.2" x2="273" y2="193.8"/>
				<line class="st62" x1="302.1" y1="181.4" x2="324.7" y2="170.1"/>
				<line class="st62" x1="250.1" y1="207.3" x2="273.9" y2="195.5"/>
				<path class="st64" d="M278.6,207.3l22.8-11.7l0.7-13.7c0.2-2-1.1-2.4-1.1-2.4s-1.4-0.8-2.4-1.2s-2,0.2-2,0.2l-26.2,13
					c0,0-0.9,0.4,0,0.9c0.9,0.5,2.8,1.4,2.8,1.4s0.6,0.4,0.5,1.1s0.1,1.1,0.1,1.1l0.8,0.8c0,0,0.7-0.4,1.3,0
					c0.6,0.3,1.6,0.4,1.7,1.8c0.1,1.4,0.8,9.8,0.8,9.8s1.7,1.2,1.6,3.3l26.2-12.9c0,0,0.8-1-0.5-2.6c-1.3-1.6-0.9-3.2-0.9-3.2
					l0.7-9.5c0,0,0-1.3,1.1-2.2l18.1-9"/>
				<path class="st64" d="M279.1,208.8l24-12c0,0,2.4-1.3,0-4.2l0.4-9.3c0,0,0-2.5,2.9-4.1"/>
				<path class="st64" d="M277.7,197.3l24.1-12.2c0,0-2.1-1.2-2.9-1.6c-0.8-0.4-1.5,0-1.5,0s-17.3,8.6-19.6,9.8s-2.8,3.1-2.8,3.1"/>
				<g>
					<path d="M281.4,204.2l-0.1-7l1.6-0.8c0.6-0.3,1-0.5,1.2-0.5c0.3,0,0.5,0.1,0.7,0.3c0.2,0.3,0.3,0.7,0.3,1.2
						c0,0.4,0,0.8-0.2,1.2c-0.1,0.3-0.2,0.6-0.4,0.9c-0.2,0.2-0.3,0.4-0.5,0.6c-0.2,0.2-0.6,0.4-1.1,0.6l-0.7,0.3l0,2.6L281.4,204.2
						z M282.3,197.9l0,2l0.6-0.3c0.4-0.2,0.7-0.4,0.8-0.5c0.1-0.1,0.2-0.3,0.3-0.5c0.1-0.2,0.1-0.4,0.1-0.6c0-0.3-0.1-0.4-0.2-0.5
						c-0.1-0.1-0.2-0.1-0.4-0.1c-0.1,0-0.4,0.1-0.7,0.3L282.3,197.9z"/>
					<path d="M285.6,195.1l1-0.5l0,3.8c0,0.6,0,1,0.1,1.1c0,0.3,0.2,0.4,0.3,0.5c0.2,0.1,0.4,0.1,0.7-0.1c0.3-0.1,0.5-0.3,0.6-0.6
						c0.1-0.2,0.2-0.5,0.3-0.7c0-0.3,0-0.7,0-1.2l0-3.9l1-0.5l0,3.7c0,0.8,0,1.4-0.1,1.8c-0.1,0.4-0.1,0.7-0.3,1
						c-0.1,0.3-0.3,0.6-0.6,0.9c-0.2,0.3-0.6,0.5-1,0.7c-0.5,0.2-0.8,0.3-1.1,0.3c-0.2,0-0.4-0.1-0.6-0.3c-0.1-0.2-0.2-0.4-0.3-0.6
						c-0.1-0.4-0.1-0.9-0.1-1.7L285.6,195.1z"/>
					<path d="M290.1,197.6l1-0.6c0.1,0.4,0.2,0.7,0.4,0.8c0.2,0.1,0.4,0.1,0.7,0c0.3-0.2,0.6-0.4,0.7-0.6c0.2-0.3,0.2-0.5,0.2-0.8
						c0-0.2,0-0.3-0.1-0.4c-0.1-0.1-0.2-0.1-0.4-0.1c-0.1,0-0.4,0-0.8,0.1c-0.5,0.1-0.9,0-1.2-0.1c-0.3-0.2-0.5-0.6-0.5-1.2
						c0-0.4,0.1-0.7,0.2-1.1c0.1-0.4,0.3-0.7,0.6-1c0.3-0.3,0.6-0.5,1-0.7c0.6-0.3,1.1-0.3,1.4-0.1c0.3,0.2,0.5,0.7,0.5,1.3l-1,0.6
						c0-0.3-0.1-0.5-0.3-0.6c-0.1-0.1-0.4-0.1-0.6,0.1c-0.3,0.1-0.5,0.3-0.7,0.6c-0.1,0.2-0.2,0.3-0.2,0.5c0,0.2,0.1,0.3,0.2,0.3
						c0.1,0.1,0.4,0.1,0.9,0c0.5-0.1,0.9-0.1,1.1,0c0.2,0.1,0.4,0.2,0.6,0.4c0.1,0.2,0.2,0.6,0.2,1c0,0.4-0.1,0.8-0.2,1.2
						c-0.2,0.4-0.4,0.8-0.7,1.1c-0.3,0.3-0.7,0.6-1.1,0.8c-0.6,0.3-1.1,0.3-1.5,0.1C290.4,198.9,290.2,198.4,290.1,197.6z"/>
					<path d="M294.8,197.6l-0.1-7l1-0.5l0,2.7l2-1l0-2.7l1-0.5l0.1,7l-1,0.5l0-3l-2,1l0,3L294.8,197.6z"/>
				</g>
				<polygon class="st65" points="305.6,209.1 310.9,204.9 298.3,200 301,197.8 290.2,199.9 290.4,206.3 293,204.2 				"/>
			</g>
			
				<use xlink:href="#SVGID_00000182496254388071076750000001670382424620652687_"  style="overflow:visible;fill:none;stroke:#A7A9AC;stroke-linecap:round;stroke-linejoin:round;stroke-miterlimit:10;"/>
		</g>
	</g>
	<g>
		<circle class="st27" cx="248.3" cy="100.9" r="11.3"/>
		<g>
			<text transform="matrix(1 0 0 1 244.1953 106.5882)" class="st25 st28">b</text>
		</g>
	</g>
</g>
</svg>
