<?xml version="1.0" encoding="utf-8"?>
<!-- Generator: Adobe Illustrator 26.0.3, SVG Export Plug-In . SVG Version: 6.00 Build 0)  -->
<svg version="1.1" id="RTC" xmlns="http://www.w3.org/2000/svg" xmlns:xlink="http://www.w3.org/1999/xlink" x="0px" y="0px"
	 viewBox="0 0 378 234.6" style="enable-background:new 0 0 378 234.6;" xml:space="preserve">
<style type="text/css">
	.st0{fill:#D0D2D3;}
	.st1{fill:none;stroke:#231F20;stroke-width:0.5;stroke-linecap:round;stroke-linejoin:round;stroke-miterlimit:10;}
	.st2{fill:none;stroke:#231F20;stroke-width:0.5;stroke-linecap:round;stroke-linejoin:round;}
	.st3{fill:#231F20;}
	.st4{font-family:'Arial-BoldMT';}
	.st5{font-size:4.6807px;}
	.st6{fill:none;stroke:#231F20;stroke-width:0.5471;stroke-linecap:round;stroke-linejoin:round;stroke-miterlimit:10;}
	.st7{fill:none;stroke:#231F20;stroke-width:0.5101;stroke-linecap:round;stroke-linejoin:round;stroke-miterlimit:10;}
	.st8{fill:none;stroke:#231F20;stroke-width:0.5507;stroke-linecap:round;stroke-linejoin:round;stroke-miterlimit:10;}
	.st9{fill:#FFFFFF;stroke:#231F20;stroke-width:0.371;stroke-linecap:round;stroke-linejoin:round;stroke-miterlimit:10;}
	.st10{fill:#FFFFFF;stroke:#231F20;stroke-width:0.5;stroke-linecap:round;stroke-linejoin:round;stroke-miterlimit:10;}
	.st11{fill:none;stroke:#FFFFFF;stroke-width:3;stroke-linecap:round;stroke-linejoin:round;stroke-miterlimit:10;}
	.st12{fill:none;stroke:#231F20;stroke-width:0.75;stroke-linecap:round;stroke-linejoin:round;stroke-miterlimit:10;}
	.st13{fill:none;stroke:#231F20;stroke-width:0.378;stroke-linecap:round;stroke-linejoin:round;stroke-miterlimit:10;}
	.st14{fill:#2D2A26;stroke:#FFFFFF;stroke-width:0.6297;stroke-linecap:round;stroke-linejoin:round;stroke-miterlimit:10;}
	.st15{fill:#2D2A26;stroke:#FFFFFF;stroke-width:0.5;stroke-linecap:round;stroke-linejoin:round;stroke-miterlimit:10;}
	.st16{fill:#2D2A26;}
</style>
<path class="st0" d="M176.4,94.7c0.4-0.8,0.7-1.7,0.9-2.7c0.6-3.5-1.2-6.7-3.9-7.2s-5.4,2.1-6,5.6c-0.5,3.2,0.9,6.2,3.3,7
	L176.4,94.7z"/>
<path class="st0" d="M168.2,88.4l-1.3-0.7c0,0-2.7,1.5-2.5,7.8l5.2,2.7l8.4-4c0,0,1.3-8.8-3.8-9.9l-1,0.7L168.2,88.4z"/>
<g>
	<g>
		<path class="st1" d="M62.5,134.9c0,0,0-0.6,0-1.6c0-1.1,1.2-1.6,1.2-1.6s7-3.7,7.4-3.8s0.6-0.2,1.1-0.1c0.5,0.1,0.8-0.2,0.9-0.6
			c0.1-0.4,1.2-0.9,1.2-0.9L186,70.4c0,0,0.7-0.5,1.3-0.1c0.6,0.5,2.1,1.4,2.1,1.4s0.3,0.2,0.6-0.1c0.2-0.2,0.6-0.7,0.4-1.2
			l-0.7-0.5c0,0-0.2-0.6,0-1c0.2-0.4,0.5-0.8,0.9-0.8s3.1-0.2,3.1-0.2s0.7,0.2,0.8,0.6l0,3.3c0,0,0.1,0.5-0.4,0.8
			s-44.9,22.4-44.9,22.4"/>
		<path class="st1" d="M161.8,137.1c0,0-0.1-7.2,0-8.8c0.1-1.6,1.6-2.1,1.6-2.1l24.9-12.6l-6.9-3.5l6.1-3.1c0,0-22.9-11.4-23.9-12
			c-1-0.5-2.2,0-2.2,0l-6.1,3l-7.1-3.5l-23.3,11.7c0,0-2.2,0.9-2.2,2.5l0.1,1.1"/>
		<path class="st1" d="M162.9,126.1l-6.6-3.4l-6.8,3.4c0,0-1.1,0.6-1.1,1.8c0,1.1,0,3.1,0,3.1"/>
		<path class="st1" d="M123.9,107l6.6,3.3l-5.8,3.1l0,0.5c0,0-0.8,0.7-0.8,1.9c0,1,0.1,6.9,0.1,6.9"/>
		<line class="st1" x1="125" y1="113.3" x2="149.8" y2="125.8"/>
		<polyline class="st1" points="178.1,132.2 189.4,126.5 189.5,125.2 195.6,122.2 		"/>
		<path class="st1" d="M184.7,111.7c0.5-0.4,1.4-0.6,2.4-0.6c1.7,0,3,0.7,3,1.5c0,0.6-0.6,1.1-1.6,1.3"/>
		<path class="st1" d="M189,115.6c0.7-0.3,1.1-0.7,1.1-1.2v-1.6"/>
		<path class="st1" d="M188.9,124v-9.1c0,0,0.1-1-0.9-1.1"/>
		<path class="st1" d="M189.5,115.3c0.3,0.2,0.5,0.4,0.5,0.7c0,0.4-0.4,0.8-1.1,1"/>
		<path class="st1" d="M189.5,117.1c0.3,0.2,0.5,0.4,0.5,0.7c0,0.4-0.4,0.8-1.1,1"/>
		<path class="st1" d="M189.5,118.9c0.3,0.2,0.5,0.4,0.5,0.7c0,0.4-0.4,0.8-1.1,1"/>
		<g>
			<ellipse class="st1" cx="154.6" cy="126.6" rx="3" ry="1.5"/>
			<path class="st1" d="M151.5,126.6v1.7c0,0.8,1.4,1.5,3,1.5c1.7,0,3-0.7,3-1.5v-1.6"/>
			<path class="st1" d="M157.2,129.2c0.3,0.3,0.4,0.6,0.4,0.9c-0.1,0.8-1.6,1.3-3.2,1.1c-1.7-0.2-2.9-1.1-2.8-1.9
				c0-0.1,0.1-0.2,0.1-0.4"/>
			<path class="st1" d="M157.5,135.9c0,0.1,0.1,0.2,0.1,0.3c0,0.8-1.4,1.5-3,1.5c-1.7,0-3-0.7-3-1.5c0-0.2,0.1-0.4,0.3-0.6"/>
			<path class="st1" d="M156.9,134.7c0.4,0.3,0.7,0.8,0.6,1.1c-0.1,0.8-1.6,1.3-3.2,1c-1.7-0.3-2.9-1.2-2.7-2
				c0.1-0.3,0.3-0.6,0.7-0.8"/>
			<path class="st1" d="M157,132.8c0.4,0.3,0.6,0.7,0.5,1.1c-0.1,0.8-1.6,1.3-3.2,1s-2.9-1.2-2.7-2c0-0.3,0.2-0.5,0.5-0.7"/>
			<path class="st1" d="M156.9,130.9c0.4,0.3,0.6,0.7,0.6,1.1c-0.1,0.8-1.6,1.3-3.2,1c-1.7-0.3-2.9-1.2-2.7-2c0-0.3,0.2-0.5,0.5-0.7
				"/>
		</g>
		<g>
			<path class="st1" d="M127.5,148.7c-1.1,0-2-0.4-2-1c0-0.5,0.9-1,2-1c1.1,0,2,0.4,2,1"/>
			<path class="st1" d="M125.6,147.7v1.1c0,0.5,0.9,1,2,1"/>
			<path class="st1" d="M127.4,150.5c-0.8-0.1-1.5-0.5-1.4-0.9"/>
			<path class="st1" d="M127.5,153.2c-0.8,0-1.5-0.3-1.5-0.7c0-0.1,0.1-0.2,0.1-0.3"/>
			<path class="st1" d="M127.4,152.2c-0.8-0.1-1.4-0.6-1.4-1c0-0.1,0.1-0.2,0.3-0.3"/>
			<path class="st1" d="M127.4,151.4c-0.8-0.1-1.4-0.6-1.4-1c0-0.1,0.1-0.2,0.3-0.3"/>
		</g>
		<g>
			<ellipse class="st1" cx="124.3" cy="111.4" rx="3" ry="1.5"/>
			<path class="st1" d="M121.3,111.4v1.7c0,0.8,1.3,1.5,2.8,1.5"/>
			<ellipse class="st1" cx="156.7" cy="95.2" rx="3" ry="1.5"/>
			<line class="st1" x1="153.7" y1="95.2" x2="153.7" y2="96.9"/>
			<path class="st1" d="M123.9,116c-1.6-0.3-2.8-1.1-2.7-1.9c0-0.1,0.1-0.2,0.1-0.4"/>
			<path class="st1" d="M123.9,122.6c-1.5-0.1-2.7-0.7-2.7-1.5c0-0.2,0.1-0.4,0.3-0.6"/>
			<path class="st1" d="M124,121.6c-1.7-0.3-2.9-1.2-2.7-2c0.1-0.3,0.3-0.6,0.7-0.8"/>
			<path class="st1" d="M124,119.6c-1.7-0.3-2.9-1.2-2.7-2c0-0.3,0.2-0.5,0.5-0.7"/>
			<path class="st1" d="M124,117.8c-1.7-0.3-2.9-1.2-2.7-2c0-0.3,0.2-0.5,0.5-0.7"/>
		</g>
		<polygon class="st1" points="104.7,132.5 123.3,142 127.4,139.9 131.2,141.9 150.5,132.1 131.8,122.9 128,124.8 124.1,122.9 		"/>
		<line class="st1" x1="104.7" y1="132.5" x2="104.6" y2="141.1"/>
		<line class="st1" x1="150.5" y1="132.1" x2="150.7" y2="138.2"/>
		<line class="st1" x1="123.3" y1="142" x2="123.3" y2="152"/>
		<line class="st1" x1="131.2" y1="141.9" x2="131.2" y2="147.2"/>
		<line class="st1" x1="127.4" y1="139.9" x2="127.4" y2="146.6"/>
		<polyline class="st1" points="88.1,137.4 92.3,135.3 105.7,141.9 101.4,144.1 		"/>
		<line class="st1" x1="105.7" y1="146.3" x2="105.7" y2="141.9"/>
		<line class="st1" x1="156.3" y1="122.7" x2="156.3" y2="125.3"/>
		<line class="st1" x1="157.3" y1="135" x2="161.8" y2="137.3"/>
		<line class="st1" x1="178.1" y1="91.4" x2="190.4" y2="85.2"/>
		<line class="st1" x1="193.9" y1="72.7" x2="193.9" y2="81.8"/>
		<polyline class="st1" points="222.6,85.9 203.6,76.6 197.9,79.4 197.5,80.2 190.5,83.7 190.4,90.2 196.1,93.1 196.8,92.7 		"/>
		<polyline class="st1" points="196.1,92.8 196.1,86.5 203.2,82.9 204.4,82.7 210.1,79.9 		"/>
		<polyline class="st1" points="204.4,82.7 204.1,83.4 197,86.9 196.9,93.6 202.6,96.4 203.4,95.9 		"/>
		<polyline class="st1" points="216.8,83.1 210.9,86.1 209.9,86.2 202.6,89.7 202.6,96.2 		"/>
		<line class="st1" x1="197.1" y1="86.9" x2="202.6" y2="89.7"/>
		<line class="st1" x1="190.6" y1="83.7" x2="196" y2="86.4"/>
		<polyline class="st1" points="210.9,86.1 210.6,86.6 203.7,90.2 203.5,96.8 209.1,99.5 		"/>
		<line class="st1" x1="203.7" y1="90.2" x2="208.9" y2="92.9"/>
		<polyline class="st1" points="209.2,101.5 209.3,93 223.8,85.8 228.8,88.2 214.3,95.6 214.3,103.7 		"/>
		<line class="st1" x1="209.3" y1="93" x2="214.3" y2="95.6"/>
		<path class="st1" d="M228.8,88.2c0,0,0.8,0.3-0.8,3.6"/>
		<polyline class="st1" points="236.4,92.9 231.3,90.3 225.4,93.1 225.2,93.8 218,97.4 217.9,102 		"/>
		<polyline class="st1" points="243.9,99 243.8,95 238.2,92.2 224.1,99.2 224,104.2 		"/>
		<polyline class="st1" points="229.5,107.2 229.6,102 243.8,95 		"/>
		<line class="st1" x1="218.1" y1="97.5" x2="224" y2="100.4"/>
		<line class="st1" x1="224.1" y1="99.2" x2="229.6" y2="102"/>
		<line class="st1" x1="208.6" y1="101.4" x2="214" y2="104.1"/>
		<polygon class="st1" points="200.4,111 218.6,101.8 236.6,110.8 218.5,120 		"/>
		<polyline class="st1" points="200.4,111 200.5,122.7 209.8,127.4 		"/>
		<line class="st1" x1="218.5" y1="120" x2="218.6" y2="123.2"/>
		<line class="st1" x1="236.7" y1="110.8" x2="236.8" y2="115.5"/>
		<polyline class="st1" points="212.4,104.9 186.7,92 181.8,94.5 		"/>
		<polyline class="st1" points="207.1,107.3 179.2,93.4 169.8,98.1 		"/>
		<polyline class="st1" points="265.9,111.6 265.9,107.6 246.3,97.8 240.5,100.7 240.1,101.4 233,105 233,108.7 		"/>
		<polyline class="st1" points="236.9,113.5 238.5,114.2 238.6,107.6 233,105 		"/>
		<polyline class="st1" points="252.8,101.1 247.2,103.9 245.8,104.1 238.6,107.6 		"/>
		<polyline class="st1" points="247,103.9 246.7,104.6 239.5,108.2 239.5,114.2 		"/>
		<polyline class="st1" points="259.3,104.4 253.6,107.2 252.3,107.4 245.2,111 239.5,108.2 		"/>
		<line class="st1" x1="245.1" y1="113.1" x2="245.1" y2="111"/>
		<polyline class="st1" points="246,113.7 246,111.4 252.8,108.1 253.6,107.2 		"/>
		<polyline class="st1" points="246,111.4 251.8,114.2 258.8,110.6 260.2,110.4 265.6,107.6 		"/>
		<polyline class="st1" points="280.2,119.4 280.2,118.2 268,111.7 262.3,111.8 257.2,114.2 254.6,112.8 		"/>
		<path class="st1" d="M280.2,118.2l-21.2,11l-0.8-0.5l-10.8,5.4l-1.2-0.7c0,0-0.5-0.3-1.4,0.2s-10.8,5.4-10.8,5.4s-1.1,0.4-0.2,0.8
			c0.9,0.4,0.8,0.5,0.8,0.5s0.4,0.1,0.3,1.1l0,0.8"/>
		<path class="st1" d="M251.8,114.2l-15,7.7c0,0-0.6,0.5-1,1.4s-2,3.7-2,3.7s-0.1,0.3-1.2,0.9c-1,0.6-32.8,16.5-32.8,16.5l0.1,1.2
			c0,0,3.5,1.7,4.8,2.6s2.7-0.2,2.7-0.2l66.3-33.4"/>
		<line class="st1" x1="21.3" y1="156.8" x2="53.5" y2="140.7"/>
		<line class="st1" x1="30" y1="169.4" x2="54.4" y2="157.3"/>
		<polygon class="st1" points="107.8,155.1 115.4,151.4 71.8,129.5 64.3,133.2 		"/>
		<path class="st1" d="M64,135.1c0,0,0.4-0.8,1.3-0.3s41.5,20.8,41.5,20.8s1,0.5,1,2.1s0,14.5,0,14.5s-0.1,1.6-1.2,1.1
			c-1.1-0.5-41.5-20.7-41.5-20.7"/>
		<line class="st1" x1="140.7" y1="191.6" x2="64.5" y2="153.6"/>
		<line class="st1" x1="111.8" y1="206.1" x2="149.1" y2="187.6"/>
		<line class="st1" x1="149.7" y1="188.7" x2="112" y2="207.7"/>
		<line class="st1" x1="149.5" y1="203.9" x2="112" y2="223"/>
		<polyline class="st1" points="147.8,204.8 149.7,205.6 159.1,200.8 159.9,201.2 168.6,196.8 169.7,194.8 171.9,193.7 174.3,194 
			291.3,135.5 291.3,129.3 289,125.9 289.1,121.3 		"/>
		<path class="st1" d="M169.5,195v-4.9c0,0,0.4-2.9,2.4-3.6c0,0,1.7-0.5,1.8,1.1v6"/>
		<path class="st1" d="M149.8,205.3v-17.1c0,0-0.5-1.1-2.1-1.3v1.2"/>
		<path class="st1" d="M149.8,188.2l9.6-4.8c0,0-0.5-1.1-2.1-1.3l-9.6,4.8"/>
		<path class="st1" d="M160.4,200.8l-0.1-17.4l7.7-3.9c0,0,1.3-0.9,2.2-0.2c1,0.8,1.6,1.4,3,0.8c1.4-0.7,1.4-0.7,1.4-0.7"/>
		<path class="st1" d="M174,178.4c0.8,0.4,0.8,1.7,0.8,1.7v2.4c0,0,0.1,2.3,2.6,1.3c2.3-1,2.5-3.8,2.5-3.8s0-2.1,0-3
			s-0.6-1.3-0.6-1.3c0-1.1-0.9-0.7-0.9-0.7l-3.6,1.9c0,0-0.6,0.3-0.7,1.4"/>
		<line class="st1" x1="160.4" y1="199.4" x2="160.3" y2="180.5"/>
		<path class="st1" d="M174.2,177.1"/>
		<path class="st1" d="M159.4,183.4v-2.7l8.6-4.1l0.6-1.1l67.4-33.6c0,0,0.7-0.1,0.8,0.5c0.1,0.6,0.3,4.5,0.3,4.5s0.9,0.6,0.8,1.5
			l11.6-5.7c0,0,0.6-0.7-0.1-1.6l0.1-4.9c0,0,0.2-1.1,1-1.5l32.8-16.3l2.7,1.8c0,0,1.2-0.1,0.9-1.4l-0.7-0.6c0,0-0.4-1.2,1-1.8
			l2.8-0.1c0,0,0.7,0,0.8,0.6l0,3.5l-41.2,20.7"/>
		<line class="st1" x1="180" y1="176.9" x2="237.6" y2="148"/>
		<line class="st1" x1="105.8" y1="143.3" x2="127.5" y2="154.2"/>
		<path class="st1" d="M127.5,155.3"/>
		<path class="st1" d="M105.9,144.6"/>
		<line class="st1" x1="123.8" y1="152.2" x2="126" y2="151"/>
		<line class="st1" x1="133.4" y1="157.7" x2="138.9" y2="154.8"/>
		<line class="st1" x1="127" y1="160.9" x2="128.6" y2="160.1"/>
		<path class="st1" d="M147.1,182.9"/>
		<polyline class="st1" points="157.3,182.1 157.3,179.7 159.7,178.4 161.8,179.3 		"/>
		<line class="st1" x1="159.4" y1="180.7" x2="157.3" y2="179.7"/>
		<line class="st1" x1="86.5" y1="136.9" x2="116.3" y2="122.2"/>
		<polyline class="st1" points="187.4,107.1 188.1,107.4 188.1,110.9 		"/>
		<polyline class="st1" points="190,117.9 195.7,120.6 175.3,130.8 		"/>
		<path class="st1" d="M195.9,122.6"/>
		<polygon class="st1" points="199,121 195.9,122.6 195.9,117.5 199,115.9 		"/>
		<line class="st1" x1="195.9" y1="117.5" x2="190.4" y2="114.8"/>
		<polyline class="st1" points="188.2,109.6 197.7,114.4 200.4,113 		"/>
		<polyline class="st1" points="188.2,110.8 197.7,115.6 200.4,114.2 		"/>
		<path class="st1" d="M52.7,140.6v-0.8l10.3-4.9l1.4,0.6c0,0,0.5,0.3,0.5,1s0,2,0,2l-9.2,4.6l-0.9-0.1v-2c0,0-0.1-1-2.2-1.3"/>
		<path class="st1" d="M53.6,157.9l1.3,0.6l10-5.1l-0.1-2l-0.9-0.3l-8.3,4.1c0,0-1,0.5-0.9,1.3l0,1.7"/>
		<path class="st1" d="M10.2,157.6l5.5-2.7c0,0,9.3,1.1,13.7,13.5c0,0,3.8,10.4-2.9,16l-6.2,3c0,0-2,0.3-4.5-0.9l-5.4-2.5
			c0,0-0.8-0.9-0.8-1.9c0-1,0.1-3,0.1-3"/>
		<path class="st1" d="M9.7,163.4l-0.1-4.9c0,0,0.3-1.1,2.4-0.9c0,0,9.4,3.5,12.1,13.1c0,0,4.9,10.7-2.2,15.9"/>
		<path class="st1" d="M11.5,169v-5.5c0,0,0.5-3.5,3.4-2.8c0,0,7.1,2.5,9.4,15.2c0,0,1.5,8.2-4.8,10.1c0,0-1.7,0.6-3.8-0.2
			s-5.8-3-5.8-3l5.4-2.7"/>
		<line class="st1" x1="16.7" y1="161.7" x2="16.7" y2="166.5"/>
		<path class="st1" d="M10.4,169.8l8.2-4.1c0,0,1.2,0.3,1.1,1.6l-1.1,3.8l-5,2.7l-1.7-3.1C11.9,170.7,11.4,169.6,10.4,169.8z"/>
		<path class="st1" d="M10.4,169.8c0,0-1.7,5.1,0.7,9.9l1.3-0.6c0,0,0-3.3,3-4.2c0,0,1.8-0.6,1.7,1.8l1.3-0.5c0,0,1-3.4,1-7"/>
		<path class="st1" d="M11.5,164.3c0,0,0.5,0.3-2.1-0.8c0,0-4.5-0.2-5.9,6.3v8c0,0,0,3,2.9,3.2c0,0,2.5,0.1,4-2.7"/>
		<path class="st1" d="M15.4,174.9l0.2,5.3c0,0,0.4,0.6,0.9,0.8c0.5,0.2,3.8,1.8,3.8,1.8s1.8,0.6,2.6,0.5"/>
		<path class="st1" d="M11.5,166.7c0,0-1.1,0.2-2.4-0.8c0,0-2.8,0.6-3.3,3.8l0,7.6c0,0,0.2,1.6,1.5,1.1s1.5-1.1,1.5-1.1l1-1.3"/>
		<path class="st1" d="M23.8,159.1l11-5.5c0,0,1.4-0.5,1.5,1s0,7.1,0,7.1s0.1,1.1-1.2,2.1l-5.9,2.9"/>
		<path class="st1" d="M46.6,148.6l-0.9,0.4c0-1.2-1-1-1-1l-6.5,3.2c-1.1,0.8-0.9,2-0.9,2l0,8.8c0,0,0.3,1.1,1.3,0.6
			c1-0.5,6.2-3,6.2-3s1.1-0.7,0.9-2l16.5-8.2v-0.8c0,0,2.9-1,3.2-2.2l0.3-1l0-1.7c0,0-0.2-1.8-1.4-3.3V139"/>
		<path class="st1" d="M60.2,150.5v-0.8c0,0,2.9-1,3.2-2.2l0.3-1l0-1.7c0,0-0.2-1.8-1.4-3.3V140"/>
		<polyline class="st1" points="46.7,157.2 46.7,147.6 56.1,143.1 		"/>
		<line class="st1" x1="53.2" y1="153.9" x2="53.2" y2="144.6"/>
		<polyline class="st1" points="114.8,155.8 119.7,153.3 119.7,157.5 		"/>
		<polyline class="st1" points="114.2,150.6 114.7,150.4 119.6,153 		"/>
		<polyline class="st1" points="119.8,154 127.5,157.9 128.7,157.4 		"/>
		<path class="st1" d="M133.4,156.5c0,0.7-1,1.2-2.3,1.2s-2.3-0.5-2.3-1.2"/>
		<path class="st1" d="M131.1,163.5c1.3,0,2.3-0.5,2.3-1.2v-5.8"/>
		<line class="st1" x1="128.8" y1="156.5" x2="128.8" y2="162.3"/>
		<path class="st1" d="M122.1,123.6"/>
		<line class="st1" x1="121.1" y1="118.2" x2="116.3" y2="120.7"/>
		<polyline class="st1" points="116.3,120.7 116.3,122.2 120.8,124.5 		"/>
		<path class="st1" d="M60.6,141.2c0,0,3,2.7,0.1,8.2"/>
		<line class="st1" x1="64" y1="150.9" x2="64" y2="147.8"/>
		<g>
			<polygon class="st1" points="82.4,152.8 69.1,146.2 69.1,151.6 82.5,158.3 			"/>
			<polyline class="st1" points="82.5,158.3 83.8,157.6 83.7,152.1 70.4,145.6 69.1,146.2 			"/>
			<line class="st1" x1="69.1" y1="151.6" x2="74.3" y2="148.9"/>
			<polyline class="st1" points="75.7,149.6 75.7,154.8 80.9,152.2 			"/>
			<line class="st1" x1="82.4" y1="152.8" x2="83.7" y2="152.1"/>
		</g>
		<g>
			<polygon class="st1" points="94.7,158.2 84.9,153.3 84.9,159.6 94.8,164.7 			"/>
			<polyline class="st1" points="94.8,164.7 96.4,163.7 96.3,157.2 86.5,152.2 84.9,153.3 			"/>
			<line class="st1" x1="84.9" y1="159.4" x2="89.5" y2="157.4"/>
			<polyline class="st1" points="89.6,155.9 89.6,162 94.3,160 			"/>
			<line class="st1" x1="94.7" y1="158.2" x2="96" y2="157.6"/>
		</g>
		<g>
			<polygon class="st1" points="102.5,162.2 97.5,159.6 97.5,165.9 102.6,168.7 			"/>
			<polyline class="st1" points="102.6,168.7 104.3,167.6 104.2,161.1 99.1,158.6 97.5,159.6 			"/>
			<path class="st1" d="M97.3,161.3"/>
			<line class="st1" x1="97.5" y1="166" x2="102.1" y2="163.9"/>
			<line class="st1" x1="102.5" y1="162.2" x2="103.9" y2="161.5"/>
		</g>
		<path class="st1" d="M115.8,208.3l14.2-7c0,0,1.3-0.4,1.3,0.8s0.1,7,0.1,7s-0.4,1.6-1.3,2.2c-0.9,0.6-14.4,7.2-14.4,7.2
			s-1.2,0-1.2-1.3s0.1-6.7,0.1-6.7S114.6,208.7,115.8,208.3z"/>
		<path class="st1" d="M141.5,195.7l6.3-3.1c0,0,0.8-0.7,0.8,0.2c0.1,0.8,0,8.3,0,8.3s0.1,0.5-0.6,0.9c-0.7,0.4-6.5,3.3-6.5,3.3
			s-0.7,0-0.7-0.8s0.1-7.9,0.1-7.9S141.1,195.7,141.5,195.7z"/>
		<ellipse transform="matrix(0.498 -0.8672 0.8672 0.498 -105.9816 217.725)" class="st1" cx="135.1" cy="200.4" rx="2" ry="1.4"/>
		<ellipse transform="matrix(0.498 -0.8672 0.8672 0.498 -79.1959 234.4696)" class="st1" cx="162.9" cy="185.6" rx="2" ry="1.4"/>
		<ellipse transform="matrix(0.498 -0.8672 0.8672 0.498 -80.5528 239.0996)" class="st1" cx="166.2" cy="189.1" rx="2" ry="1.4"/>
		<ellipse transform="matrix(0.498 -0.8672 0.8672 0.498 -88.1088 239.9522)" class="st1" cx="163.2" cy="196.1" rx="2" ry="1.4"/>
		<ellipse transform="matrix(0.498 -0.8672 0.8672 0.498 -75.3876 248.9284)" class="st1" cx="177.3" cy="189.6" rx="2" ry="1.4"/>
		
			<ellipse transform="matrix(0.498 -0.8672 0.8672 0.498 -90.2456 232.2055)" class="st1" cx="155.4" cy="194.1" rx="1.3" ry="0.9"/>
		<ellipse transform="matrix(0.498 -0.8672 0.8672 0.498 -111.7075 221.0395)" class="st1" cx="135.1" cy="207" rx="2" ry="1.4"/>
		<line class="st1" x1="106.8" y1="206.4" x2="111.6" y2="204.1"/>
		<path class="st1" d="M102.4,199.2c1.7-0.3,3,0.1,3,0.1s3.1,1.2,4.6,2.1c1.7,1,1.7,2.3,1.7,2.3v23.3c0,0,0.3,0.9-0.7,1.4
			c-1.2,0.6-4.7,2.4-4.7,2.4s-1.3,0.4-3.3-0.5c-1.9-0.9-9.4-4.8-12.1-17.3c0,0-1.7-10,5.9-12.4c0,0,4.9-0.5,5-2.1c0,0-0.5-0.9-5.3,2
			"/>
		<path class="st1" d="M106.6,230.5v-22.9c0,0,0.2-2.3-1-3.1l-5.7-2.6c0,0-1.7-0.6-4.4,0.4"/>
		<path class="st1" d="M97.9,225c0,0-4.4-3.8-5.8-12.6c0,0-0.9-8.7,5-9.9c0,0,2.1-0.9,8.4,3v24.3c0,0-1.6,0.2-4-1.6"/>
		<path class="st1" d="M105.2,211.2l-1.3-0.6c0,0-3.5-0.4-5.5,4.7c0,0-0.5,2.5-0.5,3.9c-0.1,1.5,0.1,6.6,0.1,6.6s1.3,3.7,4.7,2.1
			c0,0,2.5-1.7,2.7-3.1"/>
		<path class="st1" d="M98.6,202.7c0,0-2.9,5.3-0.1,12.6"/>
		<path class="st1" d="M105.3,212.4l-1.2-0.7c0,0-3.4,0.3-4.7,5.4v8.2c0,0-0.3,3.6,4.1,1.8"/>
		
			<ellipse transform="matrix(0.4022 -0.9156 0.9156 0.4022 -115.9271 128.7858)" class="st1" cx="40.7" cy="153.2" rx="1.6" ry="1.2"/>
		
			<ellipse transform="matrix(0.4022 -0.9156 0.9156 0.4022 -121.3291 132.3132)" class="st1" cx="40.7" cy="159.1" rx="1.6" ry="1.2"/>
		<ellipse class="st1" cx="78.2" cy="136.1" rx="2.1" ry="1"/>
		<ellipse class="st1" cx="102" cy="148" rx="2.1" ry="1"/>
		<path class="st1" d="M80.7,148.7v-2.3c0.1-0.9-0.8-1.5-0.8-1.5l-8.7-4.4c-1-0.4-0.9,0.7-0.9,0.7v2.4c0,0-0.1,0.7,0.7,1.1l9,4.6
			C80,149.2,80.6,149.6,80.7,148.7z"/>
		<path class="st1" d="M70.5,140.5l0.9-0.5c0,0,0.4-0.2,0.8,0l8.6,4.3c0,0,0.9,0.6,0.8,1.5v2.3c0,0.6-0.2,0.7-0.2,0.7l-1.2,0.6"/>
		<path class="st1" d="M84.7,149.2"/>
		<path class="st1" d="M234.7,140.4l-10.6,5.4c0,0,1.4,0.2,1.2,1.3"/>
		<polyline class="st1" points="224.8,146.3 220.9,148.3 220.1,147.9 205.8,155.1 205.8,156.9 		"/>
		<path class="st1" d="M205.8,155.1l-14.1-6.8l1.5-2.2l3.7-1.8c0,0,0.4-0.3,1,0c0.6,0.3,1.9,0.9,1.9,0.9"/>
		<line class="st1" x1="122.9" y1="107.7" x2="76" y2="131.3"/>
		<path class="st2" d="M282.2,124.7c0,0,1.2,0.9-0.1,2l-0.6,0.3l-12.9,6.4c0,0-0.5,0.4-0.5,1s0.1,3.7,0.1,3.7s-0.1,0.7,0.7,0.4
			s13.1-6.5,13.1-6.5s0.9-0.3,0.9,0.6s0,1.6,0,1.6s0.5,0.7,1-0.3c0,0,0.9-0.9-0.8-2.3s-1.3-1.4-1.3-1.4l0.1-3.2"/>
		<line class="st2" x1="284.2" y1="133.1" x2="291.3" y2="129.5"/>
		<path class="st2" d="M280.4,127.7l0,1.3c0,0,0.2,0.4-0.5,0.8c-0.2,0.1-0.5,0.2-0.7,0.3c-0.4,0.2-0.7,0.3-0.7,0.3l0,1.5l1.6-0.8"/>
		<path class="st2" d="M279.2,130.1l0.7,0.4c0,0,0.6,0.3,0.4,1.2l0,1.1"/>
		<path class="st1" d="M235.6,142.1c0,0,0-1.2,1-1.7s8.9-4.3,8.9-4.3s0.4-0.5,1.5,0.2"/>
		<path class="st1" d="M236.7,142.1c0,0,0-0.9,1.3-1.6c1.3-0.6,8-3.9,8-3.9s0.9-0.4,1.5-0.1"/>
		<path class="st1" d="M237.1,146.6l10.2-5.1c0,0,0.8-0.3,0.1-1.1l0-6.1"/>
		<line class="st1" x1="192.1" y1="148.5" x2="192.2" y2="153.7"/>
		<path class="st1" d="M192,152.5c0,0-0.9,1,0.6,1.6c0.4,0.1,0.9,0.4,1.5,0.7c0.8,0.4,1.7,0.8,2.5,1.2"/>
		<line class="st1" x1="139.1" y1="155" x2="139.1" y2="158.1"/>
		<polyline class="st1" points="139.1,157.7 138.4,158.1 140.8,159.2 		"/>
		<path class="st1" d="M115.4,151.4c0,0,0.9,0.5,0.9,1c0,0.8,0,0.9,0,0.9s0.1,0.8-0.9,1.4c-0.2,0.1-0.6,0.3-1,0.5"/>
		<path class="st1" d="M108.4,154.8c0,0,0.6,0.2,0.6,0.7"/>
		<polyline class="st1" points="119.6,154.4 118.2,155.1 118.3,156.8 		"/>
		<path class="st1" d="M143.8,147.3v-4c0,0-0.1-1.7,1.3-1.6c0,0,0.9,0.4,0.9,2.5"/>
		<path class="st1" d="M148.3,140.2c0,0,1,0.1,1,2.2"/>
		<path class="st1" d="M152.5,140.9c0-2-1-2.2-1-2.2v5.6"/>
		<line class="st1" x1="144.7" y1="141.6" x2="153.1" y2="137.6"/>
		<line class="st1" x1="148.3" y1="140.2" x2="148.3" y2="143.1"/>
		<path class="st1" d="M155.5,137.8c0.2,0.3,0.3,0.8,0.3,1.6"/>
		<line class="st1" x1="154.8" y1="139.9" x2="154.8" y2="137.9"/>
		<path class="st1" d="M192.1,150.2c-1.1-0.1-1.9-0.5-1.9-1v-1.3"/>
		<g>
			<polyline class="st1" points="203.4,132.3 203.4,130.9 201.3,131.9 201.3,138.2 200.3,137.8 200.3,138.7 			"/>
			<polyline class="st1" points="201.8,138.6 202.8,139.1 202.8,132.8 204.9,131.8 204.9,133.1 			"/>
			<polyline class="st1" points="203.4,139.4 204.4,139.9 204.4,133.6 206.5,132.6 206.5,134 			"/>
			<polyline class="st1" points="204.9,140.3 205.9,140.8 205.9,134.5 208,133.5 208,134.9 			"/>
			<polyline class="st1" points="207.5,140.5 207.5,135.3 209.6,134.3 209.6,135.8 			"/>
			<polyline class="st1" points="209,139.8 209,136.2 211.1,135.2 211.1,138.6 			"/>
		</g>
		<g>
			<polyline class="st1" points="204.2,132.1 204.2,130.5 206.3,129.4 206.3,130.8 			"/>
			<polyline class="st1" points="205.7,133 205.7,131.3 207.8,130.3 207.8,131.6 			"/>
			<polyline class="st1" points="207.3,133.8 207.3,132.1 209.4,131.1 209.4,132.5 			"/>
			<polyline class="st1" points="208.8,134.7 208.8,133 210.9,132 210.9,133.4 			"/>
			<polyline class="st1" points="210.3,135.5 210.3,133.8 212.5,132.8 212.5,134.3 			"/>
			<polyline class="st1" points="211.9,138.3 211.9,134.7 214,133.7 214,137.1 			"/>
		</g>
		<g>
			<polyline class="st1" points="207.1,130.6 207.1,129 209.2,127.9 209.2,129.3 			"/>
			<polyline class="st1" points="208.6,131.5 208.6,129.8 210.7,128.8 210.8,130.2 			"/>
			<polyline class="st1" points="210.2,132.3 210.2,130.7 212.3,129.6 212.3,131 			"/>
			<polyline class="st1" points="211.7,133.2 211.7,131.5 213.8,130.5 213.8,131.9 			"/>
			<polyline class="st1" points="213.3,134 213.3,132.3 215.4,131.3 215.4,132.8 			"/>
			<polyline class="st1" points="214.8,136.8 214.8,133.2 216.9,132.2 216.9,135.6 			"/>
		</g>
		<g>
			<polyline class="st1" points="210,129.1 210,127.5 212.1,126.5 212.1,127.8 			"/>
			<polyline class="st1" points="211.5,130 211.5,128.3 213.6,127.3 213.6,128.7 			"/>
			<polyline class="st1" points="213,130.8 213,129.2 215.1,128.1 215.2,129.5 			"/>
			<polyline class="st1" points="214.6,131.7 214.6,130 216.7,129 216.7,130.4 			"/>
			<polyline class="st1" points="216.1,132.5 216.1,130.9 218.2,129.8 218.2,131.3 			"/>
			<polyline class="st1" points="217.7,135.3 217.7,131.7 219.8,130.7 219.8,134.1 			"/>
		</g>
		<g>
			<polyline class="st1" points="212.7,127.8 212.7,126.1 214.8,125.1 214.8,126.5 			"/>
			<polyline class="st1" points="214.2,128.6 214.2,127 216.3,126 216.3,127.3 			"/>
			<polyline class="st1" points="215.8,129.5 215.8,127.8 217.9,126.8 217.9,128.2 			"/>
			<polyline class="st1" points="217.3,130.3 217.3,128.7 219.4,127.6 219.4,129 			"/>
			<polyline class="st1" points="218.8,131.2 218.8,129.5 220.9,128.5 220.9,129.9 			"/>
			<polyline class="st1" points="220.4,134 220.4,130.4 222.5,129.3 222.5,132.8 			"/>
		</g>
		<g>
			<polyline class="st1" points="215.5,126.4 215.5,124.7 217.6,123.7 217.6,125.1 			"/>
			<polyline class="st1" points="217,127.2 217,125.6 219.1,124.6 219.1,125.9 			"/>
			<polyline class="st1" points="218.5,128.1 218.5,126.4 220.6,125.4 220.6,126.8 			"/>
			<polyline class="st1" points="220.1,128.9 220.1,127.3 222.2,126.3 222.2,127.7 			"/>
			<polyline class="st1" points="221.6,129.8 221.6,128.1 223.7,127.1 223.7,128.5 			"/>
			<polyline class="st1" points="223.2,132.6 223.2,129 225.3,127.9 225.3,131.4 			"/>
		</g>
		<g>
			<polyline class="st1" points="218.2,125 218.2,123.3 220.3,122.3 220.3,123.7 			"/>
			<polyline class="st1" points="219.8,125.8 219.8,124.2 221.9,123.2 221.9,124.5 			"/>
			<polyline class="st1" points="221.3,126.7 221.3,125 223.4,124 223.4,125.4 			"/>
			<polyline class="st1" points="222.9,127.6 222.9,125.9 225,124.9 225,126.3 			"/>
			<polyline class="st1" points="224.4,128.4 224.4,126.7 226.5,125.7 226.5,127.2 			"/>
			<polyline class="st1" points="225.9,131.2 225.9,127.6 228,126.6 228,130 			"/>
		</g>
		<g>
			<polyline class="st1" points="221,123.6 221,121.9 223.1,120.9 223.1,122.3 			"/>
			<polyline class="st1" points="222.6,124.4 222.6,122.8 224.7,121.8 224.7,123.1 			"/>
			<polyline class="st1" points="224.1,125.3 224.1,123.6 226.2,122.6 226.2,124 			"/>
			<polyline class="st1" points="225.6,126.2 225.6,124.5 227.7,123.5 227.7,124.9 			"/>
			<polyline class="st1" points="227.2,127 227.2,125.3 229.3,124.3 229.3,125.8 			"/>
			<polyline class="st1" points="228.7,129.8 228.7,126.2 230.8,125.2 230.8,128.6 			"/>
		</g>
		<g>
			<polyline class="st1" points="223.8,122.2 223.8,120.6 225.9,119.5 225.9,120.9 			"/>
			<polyline class="st1" points="225.3,123.1 225.3,121.4 227.4,120.4 227.5,121.8 			"/>
			<polyline class="st1" points="226.9,123.9 226.9,122.3 229,121.2 229,122.6 			"/>
			<polyline class="st1" points="228.4,124.8 228.4,123.1 230.5,122.1 230.5,123.5 			"/>
			<polyline class="st1" points="230,125.6 230,123.9 232.1,122.9 232.1,124.4 			"/>
			<polyline class="st1" points="231.5,128.4 231.5,124.8 233.6,123.8 233.6,127.2 			"/>
		</g>
		<g>
			<polyline class="st1" points="240.6,113.7 240.6,112.1 242.7,111.1 242.7,112.4 			"/>
			<polyline class="st1" points="242.2,114.6 242.2,112.9 244.3,111.9 244.3,113.3 			"/>
			<polyline class="st1" points="243.7,115.5 243.7,113.8 245.8,112.8 245.8,114.2 			"/>
			<polyline class="st1" points="245.2,116.3 245.2,114.6 247.3,113.6 247.3,115.1 			"/>
			<polyline class="st1" points="246.8,116.5 246.8,115.5 248.9,114.5 248.9,115.5 			"/>
		</g>
		<g>
			<polyline class="st1" points="230.9,120.2 230.9,118.7 233,117.7 233,119.1 			"/>
			<polyline class="st1" points="232.4,121.1 232.4,119.6 234.5,118.5 234.5,119.9 			"/>
			<polyline class="st1" points="234,121.9 234,120.4 236.1,119.4 236.1,120.8 			"/>
			<polyline class="st1" points="235.5,122.7 235.5,121.2 237.6,120.2 237.6,121.4 			"/>
		</g>
		<g>
			<polyline class="st1" points="233.7,118.7 233.7,117.3 235.8,116.3 235.8,117.6 			"/>
			<polyline class="st1" points="235.3,119.6 235.3,118.1 237.4,117.1 237.4,118.5 			"/>
			<polyline class="st1" points="236.8,120.4 236.8,119 238.9,117.9 238.9,119.4 			"/>
			<polyline class="st1" points="238.3,121 238.3,119.8 240.4,118.8 240.4,120 			"/>
		</g>
		<g>
			<polyline class="st1" points="236.6,117.3 236.6,115.8 238.7,114.8 238.7,116.2 			"/>
			<polyline class="st1" points="238.1,118.2 238.1,116.7 240.2,115.7 240.2,117.1 			"/>
			<polyline class="st1" points="239.6,119 239.6,117.5 241.7,116.5 241.7,118 			"/>
			<polyline class="st1" points="241.2,119.6 241.2,118.4 243.3,117.4 243.3,118.5 			"/>
		</g>
		<g>
			<polyline class="st1" points="239.4,115.8 239.4,114.4 241.5,113.4 241.5,114.7 			"/>
			<polyline class="st1" points="240.9,116.8 240.9,115.2 243,114.2 243,115.6 			"/>
			<polyline class="st1" points="242.5,117.6 242.5,116.1 244.6,115.1 244.6,116.5 			"/>
			<polyline class="st1" points="244,118.1 244,116.9 246.1,115.9 246.1,117.1 			"/>
		</g>
		<g>
			<polyline class="st1" points="226.6,120.8 226.6,119.2 228.7,118.2 228.7,119.5 			"/>
			<polyline class="st1" points="228.1,121.7 228.1,120 230.2,119 230.2,120.4 			"/>
			<polyline class="st1" points="229.7,122.5 229.7,120.9 231.8,119.8 231.8,121.2 			"/>
			<polyline class="st1" points="231.2,123.4 231.2,121.7 233.3,120.7 233.3,122.1 			"/>
			<polyline class="st1" points="232.7,124.2 232.7,122.6 234.8,121.5 234.9,123 			"/>
			<polyline class="st1" points="234.3,125.9 234.3,123.4 236.4,122.4 			"/>
		</g>
		<polyline class="st1" points="197.7,141.7 198,141.6 198.6,141.9 201.9,140.2 		"/>
		<line class="st1" x1="199.8" y1="144.4" x2="198.1" y2="143.6"/>
		<line class="st1" x1="202.2" y1="143.2" x2="199.2" y2="141.6"/>
		<polyline class="st1" points="200.3,140.9 200.3,138.7 205.8,141.5 		"/>
		
			<ellipse transform="matrix(0.2857 -0.9583 0.9583 0.2857 17.8828 334.1588)" class="st1" cx="233.1" cy="155.1" rx="1.9" ry="1.4"/>
		<ellipse transform="matrix(0.2857 -0.9583 0.9583 0.2857 43.9368 347.0331)" class="st1" cx="254.8" cy="144" rx="1.9" ry="1.4"/>
		<path class="st1" d="M272.3,114c0.2-0.8,0.8-1.5,1.7-1.7c1.2-0.2,2.3,0.5,2.6,1.6c0.2,0.8-0.1,1.5-0.7,2"/>
		<path class="st1" d="M270.7,112.9c0.2-0.8,0.8-1.5,1.7-1.7c0.8-0.2,1.7,0.1,2.1,0.7"/>
		<path class="st1" d="M268.9,112c0.2-0.8,0.8-1.5,1.7-1.7c0.8-0.2,1.7,0.1,2.1,0.7"/>
		<path class="st1" d="M267.2,111.1c0.2-0.8,0.8-1.5,1.7-1.7c0.8-0.2,1.7,0.1,2.1,0.7"/>
		<line class="st1" x1="258.8" y1="110.6" x2="258.8" y2="113.4"/>
		<line class="st1" x1="260.2" y1="110.4" x2="260.2" y2="112.6"/>
		<path class="st1" d="M170.4,97.4c-2.2-0.8-3-4.2-1.7-7.5c1.2-3.3,4-5.3,6.2-4.5c2.2,0.8,3,4.2,1.7,7.5c-0.2,0.5-0.4,1-0.7,1.4"/>
		<path class="st1" d="M168.2,88c1.3-2.3,3.5-3.7,5.3-3.2l1.4,0.6"/>
		<path class="st1" d="M169.3,96.9"/>
		<path class="st1" d="M173.4,84.7l0.9-0.5c0,0,3.4,0.7,3.7,4.8v4.7"/>
		<path class="st1" d="M164.5,95.6c0,0-0.3-6.4,1.9-7.4l1.3,0.6c0,0,0.4,0.7,0,1.7c-0.4,1-0.5,5.6-0.4,6.4"/>
		<path class="st1" d="M166.4,88.1l0.6-0.3l1.3,0.6c0,0,0.3,0.5,0.2,1.2c-0.1,0.7-1.5,6,0.7,7.3"/>
		<polyline class="st1" points="175.8,95.2 175.7,93.9 175.1,93.6 170.4,95.9 171.1,96.1 171.1,97.2 		"/>
		<g>
			<line class="st1" x1="172.9" y1="89.2" x2="173" y2="92"/>
			<line class="st1" x1="171.7" y1="91.1" x2="174.1" y2="90.2"/>
		</g>
		
			<ellipse transform="matrix(0.9011 -0.4336 0.4336 0.9011 -22.1008 101.639)" class="st1" cx="211.8" cy="99.3" rx="1.4" ry="1.9"/>
		<text transform="matrix(0.7325 -0.3565 6.281000e-02 0.998 237.812 145.4411)" class="st3 st4 st5">PUSH</text>
	</g>
	<g>
		<g>
			<path class="st1" d="M141.2,191.4l-32.8-16.4c0,0-0.7,0.1-0.7-2.2c0-2.2,0-13.6,0-13.6s0.1-1.6,1.5-1.3l3.2,1.6v-1l42.3,21.1
				c0,0,1,0.5,1,1.5v1.8"/>
			<path class="st1" d="M148.7,186.3l-4.9-2.4c0,0-0.5-0.3-0.5,0.8c0.1,1.4,0,5.5,0,5.5"/>
			<g>
				<polygon class="st1" points="141.5,190.4 132.8,186 132.8,178.3 141.5,182.7 				"/>
				<polygon class="st1" points="119.5,176.8 110.8,172.4 110.8,166.8 119.5,171.2 				"/>
				<polygon class="st1" points="129.7,182.3 122.8,178.8 122.8,173.5 129.7,177 				"/>
				<g>
					<polyline class="st1" points="135.4,185.3 133.9,184.5 133.9,180 140.4,183.3 140.4,187.8 138.8,187 					"/>
					<polyline class="st1" points="138.8,186.9 138.8,187.9 135.4,186.2 135.4,185.3 					"/>
				</g>
			</g>
			<polygon class="st1" points="118.7,174.9 112.4,171.8 112.4,168.6 118.7,171.7 			"/>
			<path class="st1" d="M124.7,175.4l3.4,1.7c0,0,0.9,0.5,0.8,1.4s-0.2,1-0.9,1s-3.2-1.5-3.2-1.5s-0.8-0.8-0.8-1.6
				C123.8,175.5,124.7,175.4,124.7,175.4z"/>
			<polyline class="st1" points="150.4,185.6 124.3,172.7 124.3,167.3 151,180.5 151,185.3 			"/>
			<polyline class="st1" points="124.4,167.2 125.6,166.7 152.3,179.9 152.3,184.5 			"/>
			<line class="st1" x1="124.3" y1="172.7" x2="129.5" y2="170"/>
			<polyline class="st1" points="130.9,170.6 130.9,175.9 135.9,173.3 			"/>
			<polyline class="st1" points="137.7,174 137.7,179.2 142.8,176.6 			"/>
			<polyline class="st1" points="144.3,177.2 144.3,182.4 149.4,179.9 			"/>
			<line class="st1" x1="151" y1="180.5" x2="152.3" y2="179.9"/>
			<path class="st1" d="M159.6,178.1c0,0,0.1-0.8-0.7-1.1l-3,1.7l-43.1-21.4c-1.6,0.3-1.6,1.6-1.6,1.6"/>
			<path class="st1" d="M115,156c0,0-1.9-0.9-2.7-1.4c-0.6-0.3-1.2-0.1-1.2-0.1s-1.1,0.6-2.1,1c-0.2,0.1-0.4,0.2-0.6,0.3
				c-0.6,0.4-0.6,1.1-0.6,1.1v1.5"/>
			<line class="st1" x1="111.6" y1="157.7" x2="108.3" y2="156.1"/>
			<path class="st1" d="M113,157.3l2.5-1.2c0,0,0.5-0.2,1,0c0.2,0.1,7.2,3.6,15.4,7.7c12,6,27.2,13.3,27.2,13.3l14.3-7.7"/>
			<polyline class="st1" points="131.9,163.9 146.7,156.2 173.4,169.5 173.4,172.7 			"/>
			<path class="st1" d="M176.6,171.2v-3.6l8.8-4.4c0,0,1-0.5,1.8-0.1c0.8,0.4,2.6,1.4,2.6,1.4"/>
			<g>
				<ellipse class="st1" cx="131.1" cy="149.6" rx="3.7" ry="1.9"/>
				<path class="st1" d="M134.7,153.2c0,1.1-1.6,1.9-3.7,1.9c-2,0-3.7-0.9-3.7-1.9"/>
				<path class="st1" d="M127.4,149.6v4.9c0,1.1,1.6,1.9,3.7,1.9c2,0,3.7-0.9,3.7-1.9v-4.7"/>
				<line class="st1" x1="129.7" y1="148.7" x2="132.2" y2="150.1"/>
				<line class="st1" x1="129.5" y1="150.2" x2="132.3" y2="148.7"/>
			</g>
			<g>
				<ellipse class="st1" cx="192.7" cy="136.3" rx="3.7" ry="1.9"/>
				<path class="st1" d="M196.4,139.9c0,1.1-1.6,1.9-3.7,1.9s-3.7-0.9-3.7-1.9"/>
				<path class="st1" d="M189,136.3v4.9c0,1.1,1.6,1.9,3.7,1.9s3.7-0.9,3.7-1.9v-4.7"/>
				<line class="st1" x1="191.4" y1="135.4" x2="193.8" y2="136.8"/>
				<line class="st1" x1="191.1" y1="136.9" x2="193.9" y2="135.3"/>
			</g>
			<g>
				<ellipse class="st1" cx="195.4" cy="157.8" rx="3.7" ry="1.9"/>
				<line class="st1" x1="199.1" y1="159.8" x2="199.1" y2="158.1"/>
				<line class="st1" x1="191.7" y1="157.8" x2="191.7" y2="163.4"/>
				<line class="st1" x1="194.1" y1="156.9" x2="196.5" y2="158.3"/>
				<line class="st1" x1="193.8" y1="158.4" x2="196.7" y2="156.9"/>
			</g>
			<path class="st1" d="M161.6,137.2l11.8-5.9c0,0,1.2-0.8,2.3-0.3c1,0.5,13.3,6.8,13.3,6.8"/>
			<line class="st1" x1="135.1" y1="150.1" x2="143.4" y2="146"/>
			<ellipse class="st1" cx="141.1" cy="149.6" rx="2.1" ry="1.1"/>
			<path class="st1" d="M142.5,151.2c0.1,0.1,0.1,0.2,0.2,0.3c0.1,0.4-0.5,0.8-1.4,1s-1.5-0.1-1.6-0.6c0-0.2,0.1-0.4,0.3-0.6"/>
			<path class="st1" d="M142.3,152.2c0.2,0.1,0.3,0.2,0.4,0.4c0.1,0.4-0.5,0.8-1.4,1s-1.5-0.1-1.6-0.6c0-0.2,0.2-0.5,0.5-0.7"/>
			<path class="st1" d="M139,149.7v0.8c0,0.6,0.9,1.1,2.1,1.1s2.1-0.5,2.1-1.1v-0.9"/>
			<path class="st1" d="M184.1,149.6l14-7c0,0,0.2-0.5-0.3-0.7c-0.4-0.2-1.3-0.6-1.3-0.6"/>
			<ellipse class="st1" cx="182.6" cy="150.5" rx="1.9" ry="0.9"/>
			<path class="st1" d="M183.8,153.9c0.2,0.1,0.2,0.2,0.2,0.4c0,0.3-0.6,0.6-1.4,0.6"/>
			<path class="st1" d="M182.6,152.4c1.1,0,1.9-0.4,1.9-0.9v-1.1"/>
			<path class="st1" d="M183.9,152.2c0.1,0.1,0.2,0.2,0.2,0.3c0,0.3-0.6,0.7-1.3,0.8"/>
			<path class="st1" d="M183.7,153c0.2,0.1,0.3,0.2,0.4,0.3c0,0.3-0.6,0.7-1.3,0.8"/>
			<line class="st1" x1="184.8" y1="150.7" x2="192.4" y2="146.8"/>
			<line class="st1" x1="198.2" y1="142.6" x2="198.2" y2="143.7"/>
			<polyline class="st1" points="165.7,165.3 186.2,155.1 186.2,154.2 184.1,153 			"/>
			<line class="st1" x1="182.7" y1="155.9" x2="186.2" y2="154.2"/>
			<g>
				<polyline class="st1" points="160.1,162.9 160.1,160.2 162.6,159 162.6,161.4 				"/>
				<polyline class="st1" points="157.6,161.7 157.6,159 160.1,157.9 160.1,160.2 				"/>
				<polyline class="st1" points="155.1,160.4 155.1,157.7 157.5,156.6 157.5,158.9 				"/>
				<polyline class="st1" points="152.6,159.1 152.6,156.4 155,155.3 155,157.6 				"/>
				<polyline class="st1" points="150.1,157.9 150.1,155.2 152.5,154 152.5,156.4 				"/>
				<polyline class="st1" points="147.5,156.6 147.5,153.9 149.9,152.7 149.9,155.1 				"/>
				<polyline class="st1" points="145,156.8 145,152.7 147.4,151.5 147.4,153.9 				"/>
				<polyline class="st1" points="145.1,152.5 145.1,150.1 142.6,151.3 142.6,155.5 141.9,155.1 				"/>
				<polyline class="st1" points="162.6,164.1 162.6,161.5 165.1,160.3 165.1,165.2 				"/>
				<polyline class="st1" points="168.6,162.9 168.6,158.5 166.1,159.8 166.1,163.7 166.6,164 165.3,164.7 				"/>
				<polyline class="st1" points="166.1,159.6 166.1,157.2 163.6,158.4 163.6,161 				"/>
				<polyline class="st1" points="169.6,157.9 169.6,155.5 167.1,156.7 167.1,159.2 				"/>
				<polyline class="st1" points="173.1,156.1 173.1,153.7 170.6,154.9 170.6,157.4 				"/>
				<polyline class="st1" points="176.6,154.4 176.6,152 174.1,153.2 174.1,155.7 				"/>
				<polyline class="st1" points="180.1,152.6 180.1,150.3 177.6,151.5 177.6,154 				"/>
				<g>
					<polyline class="st1" points="163.6,158.3 163.6,156 161.1,157.2 161.1,159.7 					"/>
					<polyline class="st1" points="167.1,156.6 167,154.3 164.5,155.5 164.5,158 					"/>
					<polyline class="st1" points="170.6,154.8 170.6,152.5 168.1,153.7 168.1,156.2 					"/>
					<polyline class="st1" points="174.1,153.1 174.1,150.8 171.6,152 171.6,154.5 					"/>
					<polyline class="st1" points="177.6,151.4 177.6,149 175.1,150.3 175.1,152.8 					"/>
					<polyline class="st1" points="181.1,149.6 181.1,147.3 178.6,148.5 178.6,151 					"/>
				</g>
				<polyline class="st1" points="172.1,161.2 172.1,156.8 169.6,158 169.6,162 170.1,162.3 168.8,162.9 				"/>
				<polyline class="st1" points="175.6,159.4 175.6,155 173.1,156.2 173.1,160.2 173.6,160.5 172.3,161.1 				"/>
				<polyline class="st1" points="179.1,157.7 179.1,153.3 176.6,154.5 176.6,158.5 177.1,158.7 175.8,159.4 				"/>
				<polyline class="st1" points="182.6,156 182.6,151.6 180,152.8 180,156.8 180.6,157 179.3,157.7 				"/>
			</g>
			<g>
				<polyline class="st1" points="161.1,157 161.1,154.6 158.6,155.8 158.6,158.3 				"/>
				<polyline class="st1" points="164.6,155.2 164.6,152.9 162.1,154.1 162.1,156.6 				"/>
				<polyline class="st1" points="168.2,153.5 168.1,151.1 165.6,152.3 165.6,154.8 				"/>
				<polyline class="st1" points="171.6,151.8 171.6,149.4 169.1,150.6 169.1,153.1 				"/>
				<polyline class="st1" points="175.1,150 175.1,147.7 172.6,148.9 172.6,151.4 				"/>
				<polyline class="st1" points="178.6,148.2 178.6,145.9 176.1,147.1 176.1,149.6 				"/>
			</g>
			<g>
				<polyline class="st1" points="158.6,155.7 158.5,153.4 156,154.6 156,157.1 				"/>
				<polyline class="st1" points="162,154 162,151.6 159.5,152.9 159.5,155.4 				"/>
				<polyline class="st1" points="165.6,152.2 165.6,149.9 163.1,151.1 163.1,153.6 				"/>
				<polyline class="st1" points="169.1,150.5 169.1,148.2 166.5,149.4 166.5,151.9 				"/>
				<polyline class="st1" points="172.6,148.8 172.5,146.4 170,147.6 170,150.1 				"/>
				<polyline class="st1" points="176.1,147 176.1,144.6 173.5,145.9 173.5,148.4 				"/>
			</g>
			<g>
				<polyline class="st1" points="156,154.7 156,152.3 153.5,153.5 153.5,156 				"/>
				<polyline class="st1" points="159.5,152.9 159.5,150.6 157,151.8 157,154.3 				"/>
				<polyline class="st1" points="163,151.1 163,148.8 160.5,150 160.5,152.5 				"/>
				<polyline class="st1" points="166.5,149.4 166.5,147.1 164,148.3 164,150.8 				"/>
				<polyline class="st1" points="170,147.7 170,145.4 167.5,146.6 167.5,149.1 				"/>
				<polyline class="st1" points="173.5,145.9 173.5,143.6 171,144.8 171,147.3 				"/>
			</g>
			<g>
				<polyline class="st1" points="153.5,153.3 153.5,150.9 151,152.1 151,154.6 				"/>
				<polyline class="st1" points="157,151.6 157,149.2 154.5,150.4 154.5,152.9 				"/>
				<polyline class="st1" points="160.6,149.8 160.5,147.4 158,148.6 158,151.1 				"/>
				<polyline class="st1" points="164,148.1 164,145.7 161.5,146.9 161.5,149.4 				"/>
				<polyline class="st1" points="167.5,146.3 167.5,144 165,145.2 165,147.7 				"/>
				<polyline class="st1" points="171,144.6 171,142.2 168.5,143.4 168.5,145.9 				"/>
			</g>
			<g>
				<polyline class="st1" points="151,152 150.9,149.7 148.4,150.9 148.4,153.4 				"/>
				<polyline class="st1" points="154.4,150.3 154.4,147.9 151.9,149.2 151.9,151.7 				"/>
				<polyline class="st1" points="158,148.5 158,146.2 155.5,147.4 155.5,149.9 				"/>
				<polyline class="st1" points="161.5,146.8 161.5,144.5 158.9,145.7 158.9,148.2 				"/>
				<polyline class="st1" points="165,145.1 164.9,142.7 162.4,143.9 162.4,146.5 				"/>
				<polyline class="st1" points="168.5,143.3 168.5,141 165.9,142.2 165.9,144.7 				"/>
			</g>
			<g>
				<polyline class="st1" points="148.5,150.8 148.5,148.4 146,149.7 146,152.2 				"/>
				<polyline class="st1" points="152,149.1 152,146.7 149.5,147.9 149.5,150.4 				"/>
				<polyline class="st1" points="155.5,147.3 155.5,144.9 153,146.1 153,148.6 				"/>
				<polyline class="st1" points="159,145.6 159,143.2 156.5,144.4 156.5,146.9 				"/>
				<polyline class="st1" points="162.5,143.8 162.5,141.5 160,142.7 160,145.2 				"/>
				<polyline class="st1" points="166,142.1 166,139.7 163.5,140.9 163.5,143.4 				"/>
			</g>
			<g>
				<polyline class="st1" points="146,149.4 146,147.1 143.5,148.3 143.5,150.8 				"/>
				<polyline class="st1" points="149.5,147.7 149.5,145.3 147,146.5 147,149 				"/>
				<polyline class="st1" points="153,145.9 153,143.5 150.5,144.8 150.5,147.3 				"/>
				<polyline class="st1" points="156.5,144.2 156.5,141.8 154,143.1 154,145.6 				"/>
				<polyline class="st1" points="160,142.5 160,140.1 157.5,141.3 157.5,143.8 				"/>
				<polyline class="st1" points="163.5,140.7 163.5,138.3 161,139.5 161,142.1 				"/>
			</g>
			<g>
				<polyline class="st1" points="146.9,146.4 146.9,144 144.4,145.2 144.4,147.8 				"/>
				<polyline class="st1" points="150.5,144.6 150.5,142.3 148,143.5 148,146 				"/>
				<polyline class="st1" points="154,142.9 154,140.5 151.5,141.8 151.5,144.3 				"/>
				<polyline class="st1" points="157.5,141.2 157.5,138.8 154.9,140 154.9,142.5 				"/>
				<polyline class="st1" points="161,139.4 161,137 158.5,138.3 158.5,140.8 				"/>
			</g>
			<polyline class="st1" points="144.3,157.3 137.2,154 137.2,153 139.4,151.9 			"/>
			<polyline class="st1" points="137.6,153.1 141,154.7 142.6,153.9 			"/>
			<line class="st1" x1="185.3" y1="155.8" x2="191.6" y2="158.9"/>
		</g>
		<ellipse class="st6" cx="116.3" cy="157.5" rx="1.1" ry="0.5"/>
		<ellipse class="st7" cx="155.8" cy="177.1" rx="1" ry="0.5"/>
	</g>
	<line class="st8" x1="156.3" y1="182.4" x2="156.1" y2="178.8"/>
</g>
<g>
	<path class="st9" d="M143.9,45.9c0.8,0.7,1.9,1.4,3.1,1.9"/>
	<path class="st10" d="M167.2,17.7l-5-2.5c-4.3-0.8-10.4,2.7-15.7,10.3c-0.7,1-1.4,2.1-1.9,3.1"/>
	<path class="st10" d="M147,47.5c-3.9-2.7-2.4-11.5,3.3-19.6c5.7-8.1,13.4-12.6,17.2-9.9s2.4,11.5-3.3,19.6
		c-1.2,1.7-2.5,3.3-3.8,4.6"/>
</g>
<g>
	<path class="st1" d="M142.5,28.6c0,0-0.8-3-3.4-2.2c0,0-2.6,0.7-3.6,5c-1,4.4-1.2,6.9-1.2,6.9l-0.1,15.6l6.3,3.7l0.1-15.3
		c0,0-0.7-4.6,1.4-10.8C142.1,31.5,142.7,29.7,142.5,28.6z"/>
	<path class="st1" d="M139.1,26.4l1.8-0.6c2.6-0.8,3.4,2.2,3.4,2.2c0.3,1.1-0.4,2.9-0.4,2.9c-2.1,6.3-1.4,10.8-1.4,10.8
		s1,5.5,3.2,6.9l-0.1,2.9l1.3-0.5v-1.9l0.6-1.4l16-6.5l1,0.7v1.6l1.4-0.5v-3c0,0,2.8-5.4,2.8-9.6"/>
	<path class="st1" d="M140.7,57.6l30-12.4V29.7c0,0,0.1-2.1-0.9-4.7"/>
	<polygon class="st1" points="152.7,47.3 158.4,44.9 158.5,48 152.7,50.4 	"/>
</g>
<g>
	<path class="st1" d="M187.1,30.5c0,0-0.8-3-3.4-2.2c0,0-2.6,0.7-3.6,5s-1.2,6.9-1.2,6.9L179,55.8l6.3,3.7l0.1-15.3
		c0,0-0.7-4.6,1.4-10.8C186.7,33.3,187.4,31.6,187.1,30.5z"/>
	<path class="st1" d="M189.1,31"/>
	<path class="st1" d="M183.8,28.3l1.8-0.6c2.6-0.8,3.4,2.2,3.4,2.2c0.3,1.1-0.4,2.9-0.4,2.9c-2.1,6.3-1.4,10.8-1.4,10.8
		s1,5.5,3.2,6.9l-0.1,2.9l1.3-0.5V51l0.6-1.4l16-6.5l1,0.7v1.6l1.4-0.5v-3c0,0,2.3-4.7,2.4-8.9c0,0,0-1.4-0.5-3.1"/>
	<path class="st1" d="M185.3,59.5l30-12.4V31.6c0,0,0.1-2.3-1-5"/>
	<polygon class="st1" points="197.3,49.1 203.1,46.8 203.1,49.8 197.4,52.3 	"/>
	<path class="st1" d="M188,46.8l8.4-3.2l2.2,1.2l2-2.2l3-0.9l0.8-2.1c0,0,0.9-1.1,1.6-2.8"/>
	<line class="st1" x1="200.8" y1="43" x2="203.7" y2="44.6"/>
	<path class="st1" d="M203.6,41.7l2.8,1.6c0,0,1.2-1.8-1-4l2.3,1.2c0,0,0.5,1.2-0.2,2.5"/>
	<polyline class="st1" points="210.7,32 212.8,33.1 214.8,32.4 	"/>
	<polyline class="st1" points="189.5,48.9 190.8,48.9 190.9,46 192.7,47.1 192.8,49 	"/>
	<polyline class="st1" points="192.7,47.1 193.6,47.3 197.7,45.8 198.6,44.7 	"/>
	<polyline class="st1" points="179.4,41.2 185.4,44.2 187.2,43.6 	"/>
</g>
<line class="st11" x1="159.5" y1="53.2" x2="170.2" y2="81.6"/>
<line class="st12" x1="159.5" y1="53.2" x2="170.2" y2="81.6"/>
<line class="st1" x1="160.4" y1="25.6" x2="156.6" y2="38.6"/>
<line class="st1" x1="152.5" y1="34.1" x2="164.1" y2="30.1"/>
<g>
	<ellipse transform="matrix(0.5707 -0.8212 0.8212 0.5707 67.6853 179.0052)" class="st1" cx="205" cy="24.8" rx="18.3" ry="8.7"/>
	<path class="st13" d="M188.5,32.9c0.1,0.8,0.2,1.6,0.5,2.2c0,0,2.4,4.7,7.2,5.3"/>
	<path class="st1" d="M215.2,9.5L210.1,7c-4.4-0.9-10.6,2.7-16,10.5c-2.7,3.9-4.5,8-5.2,11.5"/>
</g>
<line class="st1" x1="208.1" y1="18" x2="204.4" y2="31"/>
<g>
	<polygon class="st14" points="210.4,13.7 202.6,19.4 205.6,18.7 202.9,24.8 208.9,23.4 211.5,17.3 214.6,16.6 	"/>
	<polygon class="st14" points="201.1,35.1 209,29.4 205.9,30.1 208.6,24 202.7,25.4 200,31.5 197,32.2 	"/>
</g>
<g>
	<g>
		<path class="st15" d="M156.7,10.6l-8.6,1.5c0,0-0.2-5.5,7.7-6.9c1.6-0.3,3.5,0.1,4.5,0.6C157.7,7.9,156.9,9.3,156.7,10.6"/>
		<path class="st15" d="M155.9,4.4l7.2-1.3c5.8-0.9,8.4,3.4,8.4,3.4l4.5-0.8l-4.7,8L157.6,9l5.1-0.9c0,0-4.1-4.7-10.6-1.6L155.9,4.4
			z"/>
	</g>
	<polygon class="st16" points="146.2,12 158.6,10 153.4,14.1 	"/>
</g>
</svg>
