<?xml version="1.0" encoding="utf-8"?>
<!-- Generator: Adobe Illustrator 26.0.3, SVG Export Plug-In . SVG Version: 6.00 Build 0)  -->
<svg version="1.1" id="Layer_2" xmlns="http://www.w3.org/2000/svg" xmlns:xlink="http://www.w3.org/1999/xlink" x="0px" y="0px"
	 viewBox="0 0 468 241.117" style="enable-background:new 0 0 468 241.117;" xml:space="preserve">
<style type="text/css">
	.st0{fill:#D2D3D4;}
	.st1{fill:none;stroke:#231F20;stroke-width:0.5;stroke-linecap:round;stroke-linejoin:round;stroke-miterlimit:10;}
	.st2{fill:#D0CFCD;}
	.st3{fill:none;stroke:#010101;stroke-width:0.5;stroke-linecap:round;stroke-linejoin:round;stroke-miterlimit:10;}
	
		.st4{clip-path:url(#SVGID_00000028291785157938239430000015483728115784260002_);fill:none;stroke:#231F20;stroke-width:0.5;stroke-miterlimit:10;}
	
		.st5{clip-path:url(#SVGID_00000028291785157938239430000015483728115784260002_);fill:none;stroke:#231F20;stroke-width:0.5;stroke-linecap:round;stroke-linejoin:round;stroke-miterlimit:10;}
	.st6{fill:none;stroke:#231F20;stroke-width:0.5;stroke-miterlimit:10;}
	
		.st7{clip-path:url(#SVGID_00000096764783912565292700000008206781730814972832_);fill:none;stroke:#231F20;stroke-width:0.5;stroke-linecap:round;stroke-linejoin:round;stroke-miterlimit:10;}
	.st8{clip-path:url(#SVGID_00000096764783912565292700000008206781730814972832_);}
	.st9{fill:#010101;}
	.st10{fill:#231F20;stroke:#FFFFFF;stroke-width:1.5;stroke-miterlimit:10;}
	.st11{fill:#FFFFFF;}
	.st12{fill:#231F20;stroke:#FFFFFF;stroke-linecap:round;stroke-linejoin:round;stroke-miterlimit:10;}
</style>
<polygon class="st0" points="159.754,172.831 166.052,174.313 168.407,173.112 178.804,144.793 178.464,143.508 178.924,142.271 
	177.897,141.92 177.254,141.164 178.739,140.882 178.615,139.954 177.442,139.586 170.589,138.475 170.126,139.215 168.274,144.309 
	165.983,151.184 164.914,151.131 164.57,153.569 159.662,167.645 "/>
<polyline class="st1" points="209.737,82.266 196.5,79.563 195.694,80.864 193.378,80.41 192.606,80.637 "/>
<line class="st1" x1="234.145" y1="87.249" x2="215.286" y2="83.398"/>
<line class="st1" x1="240.234" y1="88.492" x2="237.085" y2="87.849"/>
<line class="st1" x1="266.183" y1="93.789" x2="241.521" y2="88.754"/>
<line class="st1" x1="292.693" y1="99.201" x2="268.143" y2="94.189"/>
<line class="st1" x1="301.358" y1="100.97" x2="294.092" y2="99.487"/>
<polyline class="st1" points="304.577,110.878 305.509,103.299 306.395,101.999 304.133,101.537 "/>
<polyline class="st1" points="190.468,84.516 189.828,85.475 177.065,119.981 177.083,122.353 177.115,124.331 176.973,124.919 
	173.788,133.71 173.593,128.719 "/>
<polyline class="st1" points="177.097,118.696 177.454,115.57 190.498,81.711 "/>
<path class="st1" d="M190.468,84.516"/>
<path class="st1" d="M174.148,133.879"/>
<line class="st1" x1="171.682" y1="135.464" x2="173.384" y2="135.756"/>
<polyline class="st1" points="176.123,154.924 175.831,152.785 180.635,140.371 287.85,162.291 267.969,217.166 267.969,219.595 "/>
<path class="st1" d="M312.617,112.747l0.069-3.071c0,0-0.365-0.706-1.037-0.537l-0.227-9.387l-2.22,5.63l-0.051,1.108
	l-12.112,32.779c0,0-1.06,2.952-0.984,5.602s0.64,3.201,0.111,4.337c-0.53,1.136-3.448,8.337-3.448,8.337l-0.228-3.795
	c0,0-0.116-0.218-0.303-0.327c-0.264-0.155-0.668-0.092-1.08,1.115l-3.112,7.929"/>
<polyline class="st1" points="312.479,109.931 310.336,115.477 310.285,113.547 310.991,111.669 311.008,110.928 311.732,109.102 
	"/>
<polyline class="st1" points="309.225,104.736 308.402,104.581 307.334,107.096 307.044,108.903 "/>
<line class="st1" x1="308.029" y1="109.232" x2="307.008" y2="108.976"/>
<line class="st1" x1="269.894" y1="228.589" x2="312.558" y2="112.506"/>
<polygon class="st1" points="268.74,223.334 269.408,220.953 269.408,219.908 266.526,219.282 262.39,227.762 262.014,234.738 
	265.481,235.532 266.651,233.318 266.818,228.723 268.155,225.255 "/>
<line class="st1" x1="263.054" y1="229.46" x2="265.251" y2="229.897"/>
<line class="st1" x1="263.023" y1="230.224" x2="265.219" y2="230.66"/>
<line class="st1" x1="262.992" y1="230.987" x2="265.188" y2="231.423"/>
<line class="st1" x1="262.961" y1="231.75" x2="265.157" y2="232.186"/>
<line class="st1" x1="262.93" y1="232.514" x2="265.126" y2="232.95"/>
<line class="st1" x1="262.898" y1="233.277" x2="265.095" y2="233.713"/>
<line class="st1" x1="262.867" y1="234.04" x2="265.064" y2="234.476"/>
<path class="st1" d="M268.74,223.334c0,0,0.796-0.051,0.884,1.379c0.088,1.43,0.286,6.382,0.286,6.382l-2.223,5.854l-1.959-0.418
	l-0.022-1.276"/>
<g>
	<g id="SPLINE_00000054260069330728002970000005306418353149151387_">
		<path class="st1" d="M251.582,175.053c-0.232,0.062-0.473,0.097-0.714,0.104c-0.241,0.007-0.484-0.013-0.719-0.061
			c-0.294-0.06-0.582-0.165-0.841-0.318c-0.121-0.072-0.236-0.154-0.342-0.247c-0.1-0.088-0.192-0.186-0.271-0.293
			c-0.076-0.102-0.14-0.212-0.19-0.329c-0.048-0.112-0.083-0.231-0.102-0.351c-0.019-0.119-0.022-0.241-0.009-0.361
			c0.013-0.122,0.041-0.241,0.083-0.356c0.044-0.119,0.103-0.232,0.173-0.338c0.074-0.111,0.16-0.213,0.256-0.306
			c0.101-0.098,0.211-0.186,0.329-0.263c0.123-0.081,0.254-0.151,0.389-0.21c0.284-0.124,0.588-0.2,0.898-0.231
			c0.314-0.031,0.633-0.016,0.941,0.047c0.208,0.043,0.413,0.107,0.607,0.196c0.183,0.083,0.356,0.188,0.512,0.315
			c0.145,0.118,0.275,0.255,0.379,0.41c0.098,0.145,0.173,0.305,0.217,0.474c0.043,0.163,0.056,0.335,0.039,0.503
			c-0.018,0.171-0.067,0.339-0.142,0.494c-0.079,0.165-0.187,0.315-0.312,0.448c-0.135,0.143-0.292,0.266-0.459,0.368
			c-0.044,0.027-0.088,0.052-0.134,0.076c-0.041,0.022-0.083,0.043-0.126,0.062c-0.13,0.06-0.266,0.11-0.403,0.15
			C251.622,175.042,251.602,175.047,251.582,175.053z"/>
	</g>
	<g id="SPLINE_00000164494342375396701060000006432299505817737137_">
		<path class="st1" d="M246.356,176.759c0.325-0.271,0.717-0.448,0.818-0.499c0.1-0.05,0.204-0.093,0.311-0.128
			c0.372-0.115,0.761-0.182,1.152-0.201c0.392-0.019,0.787,0.01,1.171,0.089c0.37,0.076,0.731,0.197,1.068,0.369
			c0.313,0.16,0.605,0.364,0.853,0.611c0.068,0.071,0.131,0.148,0.188,0.229c0.059,0.085,0.111,0.175,0.156,0.268
			c0.018,0.038,0.031,0.079,0.036,0.121c0.006,0.043,0.005,0.088,0.001,0.131v2.112"/>
	</g>
	<path class="st1" d="M251.534,169.862c0.025-0.059,0.047-0.119,0.067-0.18c0.024-0.072,0.045-0.145,0.064-0.219
		c0.041-0.158,0.06-0.228,0.099-0.391c0,0,0.2,0.043,0.237,0.051l3.178,0.65c0.089,0.018,0.176,0.045,0.26,0.081
		c0.079,0.034,0.156,0.076,0.225,0.127c0.066,0.047,0.126,0.102,0.177,0.165c0.048,0.059,0.127,0.189,0.127,0.189l-3.35,9.075
		c-0.039,0.106-0.108,0.201-0.19,0.28c-0.048,0.046-0.1,0.086-0.155,0.122c-0.06,0.039-0.123,0.072-0.188,0.1
		c-0.141,0.06-0.291,0.097-0.444,0.112c-0.156,0.015-0.315,0.007-0.467-0.024l-0.296-0.075l-4.666-1.143l0.001,0l-0.025-0.009
		l-0.038-0.035l-0.024-0.053l-0.015-0.077l-0.006-0.069v0l0.045-1.812"/>
	<g id="LINE_00000088824907763401547950000013963680198623051445_">
		<path class="st1" d="M255.055,172.657l-0.063-1.184l-0.045-0.304l0,0.001l-0.008-0.037l-0.056-0.117l-0.098-0.097l-0.131-0.068
			l-0.084-0.024l-5.726-1.171c-0.028-0.006-0.056,0.01-0.065,0.036l0,0l-2.59,6.981"/>
	</g>
</g>
<g>
	<g id="SPLINE_00000042013611075316009200000014764128780084758191_">
		<path class="st1" d="M214.286,167.658c-0.232,0.062-0.473,0.097-0.714,0.104c-0.241,0.007-0.484-0.013-0.719-0.061
			c-0.294-0.06-0.582-0.165-0.841-0.318c-0.121-0.072-0.236-0.154-0.342-0.247c-0.1-0.088-0.192-0.186-0.271-0.293
			c-0.076-0.102-0.14-0.212-0.19-0.329c-0.048-0.112-0.083-0.231-0.102-0.351c-0.019-0.119-0.022-0.241-0.009-0.361
			c0.013-0.122,0.041-0.241,0.083-0.356c0.044-0.119,0.103-0.232,0.173-0.338c0.074-0.111,0.16-0.213,0.256-0.306
			c0.101-0.098,0.211-0.186,0.329-0.263c0.123-0.081,0.254-0.151,0.389-0.21c0.284-0.124,0.588-0.2,0.898-0.231
			c0.314-0.031,0.633-0.016,0.941,0.047c0.208,0.043,0.413,0.107,0.607,0.196c0.183,0.083,0.356,0.188,0.512,0.315
			c0.145,0.118,0.275,0.255,0.379,0.41c0.098,0.145,0.173,0.305,0.217,0.474c0.043,0.163,0.056,0.335,0.039,0.503
			c-0.018,0.171-0.067,0.339-0.142,0.494c-0.079,0.165-0.187,0.315-0.312,0.448c-0.135,0.143-0.292,0.266-0.459,0.368
			c-0.044,0.027-0.088,0.052-0.134,0.076c-0.041,0.022-0.083,0.043-0.126,0.062c-0.13,0.06-0.266,0.11-0.403,0.15
			C214.326,167.648,214.306,167.653,214.286,167.658z"/>
	</g>
	<g id="SPLINE_00000096748726018798735590000014167081149836869774_">
		<path class="st1" d="M209.06,169.365c0.325-0.271,0.717-0.448,0.818-0.499c0.1-0.05,0.204-0.093,0.311-0.128
			c0.372-0.115,0.761-0.182,1.152-0.201c0.392-0.019,0.787,0.01,1.171,0.089c0.37,0.076,0.731,0.197,1.068,0.369
			c0.313,0.16,0.605,0.364,0.853,0.611c0.068,0.071,0.131,0.148,0.188,0.229c0.059,0.085,0.111,0.175,0.156,0.268
			c0.018,0.038,0.031,0.079,0.036,0.121c0.006,0.043,0.005,0.088,0.001,0.131v2.112"/>
	</g>
	<path class="st1" d="M214.238,162.468c0.025-0.059,0.047-0.119,0.067-0.18c0.024-0.072,0.045-0.145,0.064-0.219
		c0.041-0.158,0.06-0.228,0.099-0.391c0,0,0.2,0.043,0.237,0.051l3.178,0.65c0.089,0.018,0.176,0.045,0.26,0.081
		c0.079,0.034,0.156,0.076,0.225,0.127c0.066,0.047,0.126,0.102,0.177,0.165c0.048,0.059,0.127,0.189,0.127,0.189l-3.35,9.075
		c-0.039,0.106-0.108,0.201-0.19,0.28c-0.048,0.046-0.1,0.086-0.155,0.122c-0.06,0.039-0.123,0.072-0.188,0.1
		c-0.141,0.06-0.291,0.097-0.444,0.112c-0.156,0.015-0.315,0.007-0.467-0.024l-0.296-0.075l-4.666-1.143l0.001,0l-0.025-0.009
		l-0.038-0.035l-0.024-0.053l-0.015-0.077l-0.006-0.069l0,0l0.045-1.812"/>
	<g id="LINE_00000029758687463130002130000015540957293289047195_">
		<path class="st1" d="M217.76,165.263l-0.063-1.184l-0.045-0.304l0,0.001l-0.008-0.037l-0.056-0.117l-0.098-0.097l-0.131-0.068
			l-0.084-0.024l-5.726-1.171c-0.028-0.006-0.056,0.01-0.065,0.036l0,0l-2.59,6.981"/>
	</g>
</g>
<g>
	<g id="SPLINE_00000039853365113125514180000011861650032333998234_">
		<path class="st1" d="M177.991,160.264c-0.232,0.062-0.473,0.097-0.714,0.104c-0.241,0.007-0.484-0.013-0.719-0.061
			c-0.294-0.06-0.582-0.165-0.841-0.318c-0.121-0.072-0.236-0.154-0.342-0.247c-0.1-0.088-0.192-0.186-0.271-0.293
			c-0.076-0.102-0.14-0.212-0.19-0.329c-0.048-0.112-0.083-0.231-0.102-0.351c-0.019-0.119-0.022-0.241-0.009-0.361
			c0.013-0.122,0.041-0.241,0.083-0.356c0.044-0.119,0.103-0.232,0.173-0.338c0.074-0.111,0.16-0.213,0.256-0.306
			c0.101-0.098,0.211-0.186,0.329-0.263c0.123-0.081,0.254-0.151,0.389-0.21c0.284-0.124,0.588-0.2,0.898-0.231
			c0.314-0.031,0.633-0.016,0.941,0.047c0.208,0.043,0.413,0.107,0.607,0.196c0.183,0.083,0.356,0.188,0.512,0.315
			c0.145,0.118,0.275,0.255,0.379,0.41c0.098,0.145,0.173,0.305,0.217,0.474c0.043,0.163,0.056,0.335,0.039,0.503
			c-0.018,0.171-0.067,0.339-0.142,0.494c-0.079,0.165-0.187,0.315-0.312,0.448c-0.135,0.143-0.292,0.266-0.459,0.368
			c-0.044,0.027-0.088,0.052-0.134,0.076c-0.041,0.022-0.083,0.043-0.126,0.062c-0.13,0.06-0.266,0.11-0.403,0.15
			C178.03,160.253,178.011,160.259,177.991,160.264z"/>
	</g>
	<g id="SPLINE_00000026159657631513172880000006918823352276281769_">
		<path class="st1" d="M172.764,161.971c0.325-0.271,0.717-0.448,0.818-0.499c0.1-0.05,0.204-0.093,0.311-0.128
			c0.372-0.115,0.761-0.182,1.152-0.201c0.392-0.019,0.787,0.01,1.171,0.089c0.37,0.076,0.731,0.197,1.068,0.369
			c0.313,0.16,0.605,0.364,0.853,0.611c0.068,0.071,0.131,0.148,0.188,0.229c0.059,0.085,0.111,0.175,0.156,0.268
			c0.018,0.038,0.031,0.079,0.036,0.121c0.006,0.043,0.005,0.088,0.001,0.131v2.112"/>
	</g>
	<path class="st1" d="M177.943,155.074c0.025-0.059,0.047-0.119,0.067-0.18c0.024-0.072,0.045-0.145,0.064-0.219
		c0.041-0.158,0.06-0.228,0.099-0.391c0,0,0.2,0.043,0.237,0.051l3.178,0.65c0.089,0.018,0.176,0.045,0.26,0.081
		c0.079,0.034,0.156,0.076,0.225,0.127c0.066,0.047,0.126,0.102,0.177,0.165c0.048,0.059,0.127,0.189,0.127,0.189l-3.35,9.075
		c-0.039,0.106-0.108,0.201-0.19,0.28c-0.048,0.046-0.1,0.087-0.155,0.122c-0.06,0.039-0.123,0.072-0.188,0.1
		c-0.14,0.06-0.291,0.097-0.444,0.112c-0.156,0.015-0.315,0.007-0.467-0.024l-0.296-0.075l-4.666-1.143l0.001,0l-0.025-0.009
		l-0.038-0.035l-0.024-0.053l-0.015-0.077l-0.005-0.069v0l0.045-1.812"/>
	<g id="LINE_00000149378295660323851660000008659034153822350480_">
		<path class="st1" d="M181.464,157.869l-0.063-1.184c0,0-0.045-0.304-0.045-0.304l0,0.001l-0.008-0.037l-0.056-0.117l-0.098-0.097
			l-0.131-0.068l-0.084-0.024c0,0-5.726-1.171-5.726-1.171c-0.028-0.006-0.056,0.01-0.065,0.036l0,0l-2.59,6.981l-11.228,30.386
			l-2.41-0.511c0,0-0.887-0.114-1.288,0.859"/>
	</g>
</g>
<polyline class="st1" points="217.185,147.955 212.684,160.401 212.792,162.577 "/>
<path class="st1" d="M195.659,196.734c0,0,2.72-7.615,3.209-8.648c0.49-1.033-0.326-1.74-0.326-1.74l-2.589-2.138l2.07-5.91
	c0,0,1.329-0.589,3.402-0.818c1.86-0.205,2.012-1.469,2.012-1.469l10.28-28.8l0.402,9.217"/>
<polygon class="st1" points="189.457,144.045 201.056,146.449 196.615,158.414 185.172,155.958 "/>
<line class="st1" x1="253.983" y1="155.611" x2="249.665" y2="167.221"/>
<polyline class="st1" points="231.121,206.903 235.038,207.679 246.594,175.579 "/>
<path class="st1" d="M231.846,207.083l-1.219,3.454c0,0-1.164,2.108,2.065,3.016"/>
<line class="st1" x1="266.032" y1="220.271" x2="149.848" y2="196.49"/>
<path class="st1" d="M250.766,164.253l-0.305-8.822l-3.192-0.658c0,0-0.721-0.219-1.159,0.94c-0.439,1.159-1.015,2.838-1.015,2.838
	s-0.533,1.065,0.345,2.225c0,0,0.971,1.003,0.564,2.131c-0.407,1.128-0.627,1.379-0.627,1.379s-0.313,0.815,1.065,1.128
	l-6.611,18.236c0,0-0.282,0.846-1.943,1.097c-1.661,0.251-2.413,0.501-2.413,0.501s-0.595,0-1.159,1.253
	c-0.564,1.253-1.598,4.167-1.598,4.167s-0.564,0.94,0.313,1.661c0.877,0.721,2.099,1.535,2.099,1.535s0.815,0.533,0.219,1.849
	c-0.595,1.316-1.911,4.857-1.911,4.857s-1.039-0.279-1.48,0.294s-0.617,1.763-0.617,1.763s-0.265,0.838,0.97,1.234l-2.601,6.304
	c0,0-1.146,2.381-4.232,1.719"/>
<path class="st1" d="M149.331,195.278l-0.066-2.59l11.821-31.478l1.063-0.398l1.395-3.652l0.996,0.199l2.191-6.043l-1.992-0.398
	l7.882-21.727l0.698,0.161l0.204-0.487l0.958-2.286c0,0,0.886-0.994,0.929,0.951l0.089,1.399"/>
<path class="st1" d="M162.045,161.162l-2.404,6.485l-0.056,4.976l6.933,1.454l0.224-0.503c0,0,1.156-0.093,1.707-0.699l-5.406-0.858
	l0.036-1.854l4.435,0.654"/>
<line class="st1" x1="152.287" y1="191.077" x2="159.59" y2="171.04"/>
<path class="st1" d="M157.742,192.311l-6.235-1.299c0,0-0.909,1.429,0.162,1.721s4.838,1.007,4.838,1.007
	S157.385,194.194,157.742,192.311z"/>
<path class="st1" d="M150.026,195.557l-0.881,2.569l-0.073,2.569l-1.395,3.45l-0.037,4.734l-1.064,2.312l-3.707-0.734l0.697-7.193
	l2.312-4.478l1.692-3.821l7.584,1.631c0,0,0.973,0.401,1.316-0.658c0.343-1.059,1.202-3.32,1.202-3.32"/>
<polyline class="st1" points="147.888,204.026 149.195,204.338 150.962,200.582 "/>
<polyline class="st1" points="149.133,200.976 149.195,212.586 147.172,212.244 147.11,210.19 "/>
<polyline class="st1" points="149.348,212.382 150.962,207.926 151.008,196.74 "/>
<polyline class="st1" points="151.171,200.21 192.39,208.791 193.519,209.456 193.648,217.346 "/>
<path class="st1" d="M156.758,195.115c0,0-0.441,2.325,2.365,3.247"/>
<path class="st1" d="M188.153,204.248c4.672,0.501,5.478-3.142,5.478-3.142l1.669-4.728l0.834,0.25v0.695l-0.6,1.382l0.073,0.757"/>
<path class="st1" d="M196.017,205.941c0,0-3.081-0.998-2.163-3.445l1.029-2.336c0,0,0.222-0.89,1.418-0.612
	c1.196,0.278,1.724,0.473,1.724,0.473l10.806-28.731"/>
<polyline class="st1" points="206.304,167.785 206.487,170.72 211.485,157.972 211.623,156.046 212.953,152.744 211.844,152.52 "/>
<line class="st1" x1="208.921" y1="160.664" x2="209.069" y2="163.926"/>
<polyline class="st1" points="213.061,159.303 212.879,155.479 213.165,154.959 212.953,152.744 "/>
<polyline class="st1" points="249.724,169.678 249.375,158.425 250.683,154.769 "/>
<line class="st1" x1="247.928" y1="157.928" x2="249.276" y2="158.195"/>
<g id="SPLINE_00000164483038663826391190000017124657414616540344_">
	<path class="st1" d="M246.166,160.584l-0.404-0.946c-0.013-0.03-0.02-0.063-0.021-0.096c-0.001-0.033,0.005-0.066,0.016-0.097
		l0.794-2.152c0.016-0.044,0.044-0.083,0.077-0.116c0.037-0.037,0.082-0.065,0.129-0.085c0.051-0.022,0.106-0.036,0.162-0.042
		c0.057-0.006,0.114-0.003,0.17,0.008l0.553,0.113c0.041,0.008,0.081,0.022,0.119,0.04c0.035,0.017,0.069,0.039,0.098,0.065
		c0.027,0.024,0.05,0.053,0.068,0.085c0.016,0.03,0.027,0.063,0.031,0.096c0.004,0.03,0.002,0.061-0.005,0.091
		c-0.002,0.01-0.005,0.02-0.009,0.03l-0.292,0.791c-0.002,0.006-0.003,0.013-0.002,0.02c0.001,0.007,0.004,0.013,0.008,0.019
		c0.009,0.013,0.025,0.02,0.04,0.023l0.055,0.011c0.044,0.009,0.088,0.025,0.127,0.048c0.036,0.021,0.068,0.048,0.092,0.081
		c0.022,0.03,0.038,0.065,0.044,0.102c0.006,0.036,0.001,0.074-0.011,0.108l-0.682,1.847c-0.016,0.044-0.044,0.083-0.077,0.116
		c-0.037,0.037-0.082,0.065-0.129,0.085c-0.051,0.022-0.106,0.036-0.162,0.042c-0.057,0.006-0.114,0.003-0.17-0.008l-0.322-0.066
		c-0.065-0.013-0.129-0.039-0.184-0.078C246.23,160.685,246.189,160.638,246.166,160.584"/>
</g>
<ellipse class="st1" cx="247.858" cy="156.06" rx="0.84" ry="0.504"/>
<g id="SPLINE_00000099648068825152717350000000165979170001098922_">
	<path class="st1" d="M187.036,196.218c0.173-0.091,0.335-0.21,0.469-0.353c0.063-0.067,0.119-0.139,0.168-0.217
		c0.047-0.074,0.086-0.153,0.117-0.235l9.376-25.401c0.033-0.089,0.055-0.183,0.065-0.278c0.01-0.094,0.007-0.188-0.007-0.281
		c-0.015-0.094-0.042-0.187-0.079-0.274c-0.039-0.091-0.089-0.177-0.148-0.256c-0.062-0.084-0.134-0.16-0.212-0.229
		c-0.082-0.073-0.172-0.137-0.267-0.192c-0.202-0.119-0.427-0.201-0.656-0.248l-14.747-3.016c-0.24-0.049-0.489-0.061-0.734-0.037
		c-0.241,0.024-0.479,0.084-0.7,0.18c-0.106,0.046-0.207,0.101-0.303,0.164c-0.092,0.06-0.178,0.129-0.256,0.205
		c-0.074,0.073-0.142,0.152-0.199,0.239c-0.055,0.082-0.101,0.171-0.135,0.263l-9.376,25.401c-0.027,0.073-0.047,0.149-0.058,0.226
		c-0.011,0.076-0.015,0.153-0.011,0.229c0.005,0.077,0.017,0.153,0.038,0.227c0.021,0.076,0.049,0.149,0.085,0.219
		c0.075,0.148,0.179,0.28,0.301,0.393c0.133,0.123,0.287,0.222,0.449,0.299c0.039,0.018,0.079,0.036,0.119,0.052
		c0.123,0.049,0.252,0.087,0.382,0.114l14.747,3.016c0.267,0.055,0.544,0.064,0.816,0.027
		C186.542,196.42,186.802,196.342,187.036,196.218"/>
</g>
<g id="SPLINE_00000134933505741954667640000010963131160605662857_">
	<path class="st1" d="M223.796,203.777c0.173-0.091,0.335-0.21,0.469-0.353c0.063-0.067,0.119-0.139,0.168-0.217
		c0.047-0.074,0.086-0.153,0.117-0.235l9.376-25.401c0.033-0.089,0.055-0.183,0.065-0.278c0.01-0.094,0.007-0.188-0.007-0.281
		c-0.015-0.094-0.042-0.187-0.079-0.274c-0.039-0.091-0.089-0.177-0.148-0.256c-0.062-0.084-0.134-0.16-0.212-0.229
		c-0.082-0.073-0.172-0.137-0.267-0.192c-0.202-0.119-0.427-0.201-0.656-0.248l-14.747-3.016c-0.24-0.049-0.489-0.061-0.734-0.037
		c-0.241,0.024-0.479,0.084-0.7,0.18c-0.106,0.046-0.207,0.101-0.303,0.164c-0.092,0.06-0.178,0.129-0.256,0.205
		c-0.074,0.073-0.142,0.152-0.199,0.239c-0.055,0.082-0.101,0.171-0.135,0.263l-9.376,25.401c-0.027,0.073-0.047,0.149-0.058,0.226
		c-0.011,0.076-0.015,0.153-0.011,0.229c0.005,0.077,0.017,0.153,0.038,0.227c0.021,0.076,0.049,0.149,0.085,0.219
		c0.075,0.148,0.179,0.28,0.301,0.393c0.133,0.123,0.287,0.222,0.449,0.299c0.039,0.018,0.079,0.036,0.119,0.052
		c0.123,0.049,0.252,0.087,0.382,0.114l14.747,3.016c0.267,0.055,0.544,0.063,0.816,0.027
		C223.302,203.98,223.562,203.901,223.796,203.777"/>
</g>
<g id="SPLINE_00000154408773732903427210000016225706128098530964_">
	<path class="st1" d="M260.66,211.233c0.173-0.091,0.335-0.21,0.469-0.353c0.063-0.067,0.119-0.139,0.168-0.217
		c0.047-0.074,0.086-0.153,0.117-0.235l9.376-25.401c0.033-0.089,0.055-0.183,0.065-0.278c0.01-0.094,0.007-0.188-0.007-0.281
		c-0.015-0.094-0.042-0.187-0.079-0.274c-0.039-0.091-0.089-0.177-0.148-0.256c-0.062-0.084-0.134-0.16-0.212-0.229
		c-0.082-0.073-0.172-0.137-0.267-0.192c-0.202-0.119-0.427-0.201-0.656-0.248l-14.747-3.016c-0.24-0.049-0.489-0.061-0.734-0.037
		c-0.241,0.024-0.479,0.084-0.7,0.18c-0.106,0.046-0.207,0.101-0.303,0.164c-0.092,0.06-0.178,0.129-0.256,0.205
		c-0.074,0.073-0.142,0.152-0.199,0.239c-0.055,0.082-0.101,0.171-0.135,0.263l-9.376,25.401c-0.027,0.073-0.047,0.149-0.058,0.226
		c-0.011,0.076-0.015,0.153-0.011,0.229c0.005,0.077,0.017,0.153,0.038,0.227c0.021,0.076,0.049,0.149,0.085,0.219
		c0.075,0.148,0.179,0.28,0.301,0.393c0.133,0.123,0.287,0.222,0.449,0.299c0.039,0.018,0.079,0.036,0.119,0.052
		c0.123,0.049,0.252,0.087,0.382,0.114l14.747,3.016c0.267,0.055,0.544,0.063,0.816,0.027
		C260.166,211.435,260.426,211.357,260.66,211.233"/>
</g>
<path class="st1" d="M287.424,162.725l-3.192-0.658c0,0-0.721-0.219-1.159,0.94c-0.439,1.159-1.015,2.838-1.015,2.838
	s-0.533,1.065,0.345,2.225c0,0,0.971,1.003,0.564,2.131c-0.407,1.128-0.627,1.379-0.627,1.379s-0.313,0.815,1.065,1.128
	l-6.611,18.236c0,0-0.282,0.846-1.943,1.097c-1.661,0.251-2.413,0.501-2.413,0.501s-0.595,0-1.159,1.253
	c-0.564,1.253-1.598,4.167-1.598,4.167s-0.564,0.94,0.313,1.661c0.877,0.721,2.099,1.535,2.099,1.535s0.815,0.533,0.219,1.849
	c-0.595,1.316-1.911,4.857-1.911,4.857s-1.039-0.279-1.48,0.294s-0.617,1.763-0.617,1.763s-0.265,0.838,0.97,1.234l-2.601,6.304
	c0,0-1.328,2.682-4.414,2.021"/>
<line class="st1" x1="263.603" y1="219.8" x2="263.82" y2="224.691"/>
<path class="st1" d="M234.775,213.913l0.087,3.852c0,0,0.173,1.299,1.515,1.688"/>
<path class="st1" d="M235.372,213.97l0.143,3.848c0,0,1.14,0.057,0.998,0.57s-0.314,0.998-0.314,0.998l-0.029,1.226l25.884,5.302
	l0.2-1.34c0,0,0.029-1.34,1.397-1.112"/>
<path class="st1" d="M198.66,206.593l0.103,3.776c0,0,1.098,0.069,0.995,0.652c-0.103,0.584-0.309,0.892-0.309,0.892l0.034,1.167
	l25.847,5.286l0.103-1.304c0,0,0-1.407,1.545-1.064"/>
<path class="st1" d="M226.807,212.291l0.103,2.918c0,0,0.618,2.609-1.476,1.854"/>
<path class="st1" d="M197.905,206.49v3.741c0,0-0.24,1.064,1.545,1.682"/>
<path class="st1" d="M150.77,208.506c0,0-0.58,1.625,1.48,2.031s8.53,1.712,8.53,1.712s0.928,0.609,1.596-1.625l-0.087-8.036"/>
<polyline class="st1" points="162.24,203.4 169.107,204.827 169.162,210.48 "/>
<line class="st1" x1="162.549" y1="210.64" x2="167.457" y2="211.653"/>
<line class="st1" x1="162.498" y1="209.816" x2="167.805" y2="210.898"/>
<polyline class="st1" points="169.153,210.46 170.311,210.705 170.537,208.45 170.743,207.651 171.103,207.729 171.181,210.563 
	170.868,211.18 170.92,212.367 170.581,213.331 169.278,213.045 "/>
<path class="st1" d="M169.214,213.565l-0.08-3.126l-1.03-0.207l-1.598,4.09l0.139,2.967c0,0,0.697,0.657,1.055,0.1L169.214,213.565z
	"/>
<path class="st1" d="M168.104,210.232l-0.137-3.854c0,0-0.068-0.707-0.775-0.798s-2.304-0.479-2.304-0.479l-1.551,0.798l0.068,2.668
	l1.414,1.574"/>
<polyline class="st1" points="182.74,213.556 182.158,214.359 182.075,215.689 173.152,213.833 173.18,212.309 173.54,211.561 "/>
<path class="st1" d="M172.459,204.772l0.194,6.65l-0.471,0.72l-0.055,1.635c0,0,0.194,0.942,1.136,1.108
	c0.942,0.166,8.978,1.773,8.978,1.773s1.053,0.111,1.469-1.635l-0.083-6.484l1.053-1.385"/>
<line class="st1" x1="173.318" y1="212.863" x2="182.047" y2="214.581"/>
<line class="st1" x1="170.92" y1="212.367" x2="172.052" y2="212.588"/>
<polyline class="st1" points="184.059,207.912 190.419,209.171 190.46,214.53 191.68,214.698 191.938,212.414 192.375,211.938 
	192.414,214.877 192.196,215.592 192.205,217.001 262.041,231.487 "/>
<line class="st1" x1="183.704" y1="214.142" x2="189.106" y2="215.225"/>
<line class="st1" x1="183.714" y1="214.999" x2="188.805" y2="216.017"/>
<path class="st1" d="M186.58,214.546l-1.885-1.621l-0.057-2.677l1.508-0.792c0,0,1.49,0.377,2.244,0.434s0.886,0.716,0.886,0.716
	l0.113,3.978l-1.602,4.106l0.139,3.058c0.894,0.516,1.112,0,1.112,0l1.509-3.912l-0.118-3.276c0,0-0.22-0.02-0.895-0.1"/>
<polyline class="st1" points="190.508,217.418 191.799,217.677 192.156,216.763 "/>
<g>
	<polygon class="st1" points="195.457,214.637 207.654,217.144 207.746,219.284 195.548,216.777 	"/>
	<line class="st1" x1="198.483" y1="215.462" x2="198.544" y2="217.266"/>
	<line class="st1" x1="201.51" y1="216.165" x2="201.571" y2="217.969"/>
	<line class="st1" x1="204.536" y1="216.869" x2="204.597" y2="218.408"/>
</g>
<g>
	<polygon class="st1" points="209.032,217.453 216.923,219.148 217.015,221.288 209.123,219.593 	"/>
	<line class="st1" x1="212.963" y1="218.497" x2="213.024" y2="220.3"/>
</g>
<g>
	<polygon class="st1" points="218.318,219.44 228.787,221.644 228.878,223.723 218.41,221.519 	"/>
	<line class="st1" x1="223.648" y1="220.669" x2="223.709" y2="222.421"/>
</g>
<polygon class="st1" points="230.558,219.027 234.054,219.726 234.149,221.729 230.558,221.029 "/>
<polygon class="st1" points="230.558,221.833 234.054,222.532 234.149,224.534 230.558,223.835 "/>
<line class="st1" x1="284.837" y1="165.241" x2="286.591" y2="165.609"/>
<g id="SPLINE_00000018231100706033093060000014274652602543138998_">
	<path class="st1" d="M283.075,167.897l-0.404-0.946c-0.013-0.03-0.02-0.063-0.021-0.096c-0.001-0.033,0.005-0.066,0.016-0.097
		l0.794-2.152c0.016-0.044,0.044-0.083,0.077-0.116c0.037-0.037,0.082-0.065,0.129-0.085c0.051-0.022,0.106-0.036,0.162-0.042
		c0.057-0.006,0.114-0.003,0.17,0.008l0.553,0.113c0.041,0.008,0.081,0.022,0.119,0.04c0.035,0.017,0.069,0.039,0.098,0.065
		c0.027,0.024,0.05,0.053,0.068,0.085c0.016,0.03,0.027,0.063,0.031,0.096c0.004,0.03,0.002,0.061-0.005,0.091
		c-0.002,0.01-0.005,0.02-0.009,0.03l-0.292,0.791c-0.002,0.006-0.003,0.013-0.002,0.02c0.001,0.007,0.004,0.013,0.008,0.019
		c0.009,0.012,0.025,0.02,0.04,0.023l0.055,0.011c0.044,0.009,0.088,0.025,0.127,0.048c0.036,0.021,0.068,0.048,0.092,0.081
		c0.022,0.03,0.038,0.065,0.044,0.103c0.006,0.036,0.001,0.074-0.011,0.108l-0.682,1.847c-0.016,0.044-0.044,0.083-0.077,0.116
		c-0.037,0.037-0.082,0.065-0.129,0.085c-0.051,0.022-0.106,0.036-0.162,0.042c-0.057,0.006-0.114,0.003-0.17-0.008l-0.322-0.066
		c-0.065-0.013-0.129-0.039-0.184-0.078C283.139,167.998,283.098,167.951,283.075,167.897"/>
</g>
<ellipse class="st1" cx="284.768" cy="163.373" rx="0.84" ry="0.504"/>
<path class="st1" d="M159.721,167.487l3.01,0.719l3.545,0.498l0.002,0.93c0.477,0.079,1.51,1.152,1.51,1.152l0.926-2.222"/>
<path class="st1" d="M166.477,168.361l4.212-10.531c0,0-0.556-2.623,1.868-4.53l-0.079-0.795l2.861-7.272l-5.444-1.152l1.391-3.537
	l1.113,0.199l0.358-0.119l3.656,0.755l-1.351,3.576"/>
<polyline class="st1" points="167.223,144.078 168.132,144.26 168.605,143.533 170.568,138.334 176.966,139.334 178.42,139.807 
	178.53,141.079 178.021,140.861 176.411,141.379 "/>
<path class="st1" d="M175.149,145.478c0,0,2.29,0.727,2.218,3.272"/>
<path class="st1" d="M176.276,141.697c0,0,2.363,1.091,2.545,3.345"/>
<polyline class="st1" points="176.966,147.223 174.422,154.421 173.949,154.276 171.186,162.019 171.222,163.037 168.896,168.963 
	"/>
<path class="st1" d="M166.86,167.145c0,0,2.363,0.909,2.363,3.381"/>
<polyline class="st1" points="164.738,150.917 164.837,152.512 163.3,156.732 163.542,157.16 "/>
<polyline class="st1" points="161.085,161.211 162.516,157.606 163.27,157.666 "/>
<polyline class="st1" points="173.565,137.023 171.405,136.648 171.441,135.499 172.12,133.462 174.316,133.842 "/>
<path class="st1" d="M179.492,138.292l-0.001,0.145l0.192,1.655c0,0-0.114,0.739-1.108,0.71l0.057-0.426l0.811-1.962"/>
<polyline class="st1" points="177.234,141.197 177.805,141.831 178.812,142.083 178.821,142.73 178.451,143.57 "/>
<line class="st1" x1="144.17" y1="205.114" x2="146.157" y2="205.52"/>
<line class="st1" x1="144.17" y1="205.914" x2="146.157" y2="206.32"/>
<line class="st1" x1="144.111" y1="206.655" x2="146.099" y2="207.062"/>
<line class="st1" x1="144.053" y1="207.397" x2="146.04" y2="207.803"/>
<line class="st1" x1="143.975" y1="208.158" x2="145.962" y2="208.564"/>
<line class="st1" x1="143.897" y1="208.88" x2="145.884" y2="209.287"/>
<line class="st1" x1="143.838" y1="209.602" x2="145.826" y2="210.009"/>
<path class="st1" d="M159.392,203.127c-3.205-2.08-5.851-0.754-5.851-0.754l1.88,1.159c0,0,2.402-0.448,3.377,1.414l0.834-1.132
	L159.392,203.127z"/>
<path class="st1" d="M152.951,206.517l-0.661-0.504c-0.464-2.46,0.856-3.051,0.856-3.051l1.501,0.898c0,0-1.455,0.276-1.137,1.631
	C153.51,205.491,152.932,205.941,152.951,206.517z"/>
<polyline class="st1" points="151.978,206.853 151.901,208.129 151.843,209.551 160.808,211.407 160.837,208.816 161.468,208.011 
	"/>
<path class="st1" d="M159.341,208.481c0,0-2.459,0.952-5.662-1.06c0,0-0.3-0.486,0.343-1.341c0,0,1.2,1.347,3.129,1.371
	C157.151,207.451,157.657,208.155,159.341,208.481z"/>
<line class="st1" x1="151.903" y1="208.352" x2="160.622" y2="210.205"/>
<path class="st1" d="M158.164,207.228c0,0,1.14-0.136,1.08-1.596l0.658-0.764l0.338-0.533c0,0,0.871,1.91-0.232,3.504
	C160.008,207.839,158.591,207.703,158.164,207.228z"/>
<g>
	<path class="st1" d="M180.949,207.775c-3.072-1.994-5.608-0.722-5.608-0.722l1.802,1.111c0,0,2.303-0.429,3.237,1.356l0.8-1.086
		L180.949,207.775z"/>
	<path class="st1" d="M174.775,211.025l-0.633-0.483c-0.445-2.358,0.82-2.925,0.82-2.925l1.439,0.861c0,0-1.395,0.265-1.09,1.563
		C175.31,210.042,174.756,210.473,174.775,211.025z"/>
	<path class="st1" d="M180.9,212.908c0,0-2.357,0.912-5.428-1.016c0,0-0.288-0.466,0.329-1.286c0,0,1.15,1.291,3,1.314
		C178.8,211.921,179.286,212.596,180.9,212.908z"/>
	<path class="st1" d="M179.771,211.706c0,0,1.092-0.13,1.035-1.53l0.631-0.732l0.324-0.511c0,0,0.835,1.831-0.222,3.359
		C181.539,212.292,180.181,212.162,179.771,211.706z"/>
</g>
<path class="st1" d="M161.212,198.834c0,0-0.274,1.503,1.248,1.741"/>
<path class="st1" d="M190.055,204.734c0,0,0.402,1.566-1.365,1.265"/>
<polyline class="st1" points="189.031,204.453 188.529,205.819 188.508,207.164 162.426,201.763 162.466,200.598 163.065,199.228 
	"/>
<polygon class="st1" points="239.027,222.626 240.642,222.972 240.712,225.442 239.065,225.087 "/>
<g>
	<polygon class="st1" points="244.767,225.222 248.666,226.025 252.608,226.837 252.608,228.609 244.767,226.994 	"/>
	<line class="st1" x1="248.701" y1="227.749" x2="248.666" y2="226.025"/>
</g>
<g>
	<polygon class="st1" points="253.687,227.04 257.585,227.843 261.528,228.655 261.528,230.426 253.687,228.811 	"/>
	<line class="st1" x1="257.62" y1="229.567" x2="257.585" y2="227.843"/>
</g>
<g id="SPLINE_00000124879306988595696710000016674386530324355502_">
	<path class="st1" d="M235.648,224.141c0.001-0.01,0.003-0.021,0.007-0.031c0.003-0.008,0.007-0.017,0.012-0.024
		c0.011-0.016,0.025-0.029,0.041-0.039c0.044-0.027,0.099-0.035,0.151-0.032c0.02,0.001,0.04,0.004,0.06,0.008l1.802,0.369
		c0.054,0.011,0.107,0.032,0.154,0.063c0.042,0.027,0.08,0.061,0.104,0.104c0.013,0.023,0.022,0.049,0.023,0.076l0.004,0.168
		l-0.006,0.034c-0.007,0.018-0.02,0.034-0.036,0.046c-0.006,0.004-0.012,0.008-0.019,0.011l-0.207,0.102
		c-0.027,0.013-0.057,0.019-0.087,0.019c-0.011,0-0.022,0-0.034-0.001c-0.012-0.001-0.025-0.003-0.037-0.005l-1.492-0.305
		c-0.012-0.003-0.025-0.006-0.037-0.01c-0.03-0.01-0.06-0.023-0.086-0.041c-0.013-0.008-0.025-0.017-0.036-0.027l-0.213-0.188
		c-0.013-0.011-0.025-0.024-0.035-0.038c-0.009-0.012-0.017-0.026-0.022-0.04c-0.005-0.013-0.008-0.026-0.008-0.039l-0.004-0.168
		L235.648,224.141z"/>
</g>
<polyline class="st1" points="304.667,109.124 303.555,109.509 196.971,87.789 "/>
<polyline class="st1" points="213.459,83.65 210.595,84.337 210.595,85.139 207.501,88.119 207.673,85.197 210.824,81.129 
	213.803,80.212 "/>
<path class="st1" d="M238.271,78.513l-1.549,11.791l-3.25,4.081c0,0-0.794,0.529-0.68-0.68s0.491-3.779,0.491-3.779l4.497-11.413
	H238.271z"/>
<path class="st1" d="M216.94,71.399l-0.815,1.086l-2.127,6.924l-0.679,5.249c0,0,0.226,0.679,0.86-0.045
	c0.634-0.724,4.525-5.657,4.525-5.657l8.221-64.189l-0.532-0.887l-2.041,2.751l-0.266,3.372l-3.017,4.792l-1.154,10.916l1.952-2.13
	l-2.683,20.533h0.74l-0.543,4.439l-0.888,0.444L216.94,71.399z"/>
<polygon class="st1" points="240.621,89.514 243.621,86.073 243.974,82.631 243.18,81.219 241.062,78.572 240.709,76.366 
	241.768,68.776 242.121,60.128 238.944,80.778 240.533,86.073 "/>
<polygon class="st1" points="266.692,89.747 266.057,96.329 271.212,90.302 279.54,26.615 276.447,36.45 275.654,43.667 
	275.098,44.54 274.305,50.329 273.777,51.107 271.767,69.126 271.133,69.84 269.547,82.45 268.992,83.243 "/>
<polyline class="st1" points="265.868,95.507 264.936,96.972 264.758,99.989 267.953,96.75 268.143,94.189 "/>
<polyline class="st1" points="293.946,84.176 293.416,87.555 293.88,89.609 295.404,91.266 "/>
<polyline class="st1" points="296.332,84.64 294.94,96.699 296.162,95.226 297.525,93.585 297.657,92.193 297.127,90.736 
	297.458,90.073 296.74,87.678 297.071,84.762 "/>
<polyline class="st1" points="296.146,96.677 292.978,100.356 293.131,96.983 291.496,91.567 292.262,87.275 292.569,86.559 
	297.474,49.207 295.533,51.353 296.197,44.863 297.577,42.973 298.701,33.724 301.511,30.045 226.926,14.768 "/>
<path class="st1" d="M318.788,33.562l-16.235-3.338l-0.051,0.961l-3.035,9.458l-0.708,7.182l-0.556,2.175l12.846,2.681
	c0,0,2.377-1.315,0-4.248l-9.963-2.023l0.506-0.759l1.72-12.644l1.696-2.136"/>
<line class="st1" x1="317.06" y1="55.47" x2="311.423" y2="99.752"/>
<path class="st1" d="M311.423,99.752"/>
<polyline class="st1" points="308.412,108.238 306.352,101.054 309.081,78.758 309.68,77.96 311.41,65.381 310.944,65.048 
	313.85,43.36 314.368,43.387 316.496,37.195 319.987,32.476 318.621,43.21 316.19,46.305 314.682,57.987 317.622,53.887 
	318.782,43.559 "/>
<polyline class="st1" points="313.314,32.595 311.53,34.908 310.01,47.928 "/>
<polyline class="st1" points="314.073,32.841 313.979,33.872 311.354,42.823 312.198,42.956 311.589,44.932 311.05,48.431 "/>
<line class="st1" x1="296.902" y1="55.373" x2="311.748" y2="58.583"/>
<line class="st1" x1="295.618" y1="66.046" x2="310.705" y2="69.096"/>
<polyline class="st1" points="307.935,86.923 304.812,86.279 293.009,83.846 "/>
<polyline class="st1" points="304.812,86.279 303.362,98.274 305.898,95.737 306.064,94.282 305.025,90 305.399,86.466 "/>
<polyline class="st1" points="297.832,92.661 303.694,93.908 300.243,104.76 299.952,108.169 303.86,103.679 304.775,96.902 "/>
<line class="st1" x1="271.322" y1="89.845" x2="292.147" y2="94.067"/>
<line class="st1" x1="272.324" y1="82.474" x2="292.569" y2="86.559"/>
<line class="st1" x1="273.183" y1="74.96" x2="293.292" y2="79.254"/>
<line class="st1" x1="274.399" y1="66.659" x2="294.58" y2="70.953"/>
<line class="st1" x1="275.473" y1="58.358" x2="295.653" y2="62.652"/>
<line class="st1" x1="276.475" y1="49.699" x2="296.87" y2="54.136"/>
<line class="st1" x1="277.691" y1="41.04" x2="296.197" y2="44.863"/>
<polyline class="st1" points="258.943,21.387 257.119,23.819 255.498,37.262 271.44,40.707 272.656,39.964 273.332,34.83 
	276.101,25.913 276.169,24.967 "/>
<line class="st1" x1="279.54" y1="26.615" x2="276.101" y2="25.913"/>
<polyline class="st1" points="257.93,22.333 249.215,20.509 246.378,30.034 245.391,37.932 242.257,62.999 "/>
<line class="st1" x1="275.088" y1="43.95" x2="245.391" y2="37.932"/>
<line class="st1" x1="244.554" y1="44.625" x2="273.737" y2="50.637"/>
<line class="st1" x1="272.588" y1="61.311" x2="243.135" y2="55.231"/>
<line class="st1" x1="241.768" y1="68.776" x2="270.134" y2="74.851"/>
<line class="st1" x1="225.052" y1="30.57" x2="245.489" y2="34.778"/>
<line class="st1" x1="224.05" y1="39.086" x2="244.387" y2="43.393"/>
<line class="st1" x1="222.848" y1="47.501" x2="243.485" y2="51.909"/>
<line class="st1" x1="221.345" y1="55.916" x2="242.121" y2="60.128"/>
<line class="st1" x1="220.737" y1="64.374" x2="240.706" y2="68.509"/>
<line class="st1" x1="219.757" y1="71.448" x2="239.673" y2="75.746"/>
<line class="st1" x1="237.705" y1="83.291" x2="239.455" y2="83.691"/>
<line class="st1" x1="218.705" y1="78.957" x2="235.892" y2="82.878"/>
<line class="st1" x1="241.087" y1="76.943" x2="249.848" y2="78.739"/>
<line class="st1" x1="251.532" y1="83.104" x2="265.845" y2="86.03"/>
<line class="st1" x1="243.754" y1="81.514" x2="249.305" y2="82.649"/>
<polyline class="st1" points="267.777,85.772 267.118,82.312 267.557,77.368 266.788,78.192 265.36,90.496 266.623,89.288 "/>
<polyline class="st1" points="250.254,75.226 248.826,86.926 251.408,84.289 251.023,81.598 251.463,81.048 250.529,77.917 
	250.859,75.061 249.925,74.731 250.584,73.962 253.715,74.622 254.154,74.072 256.352,74.567 256.352,75.171 261.844,76.269 
	262.174,75.775 264.371,76.215 264.261,76.874 267.063,77.478 "/>
<line class="st1" x1="216.881" y1="68.357" x2="203.508" y2="65.479"/>
<line class="st1" x1="219.202" y1="50.621" x2="195.986" y2="45.885"/>
<line class="st1" x1="220.781" y1="39.941" x2="197.472" y2="35.205"/>
<line class="st1" x1="220.409" y1="30.191" x2="198.401" y2="25.919"/>
<polyline class="st1" points="199.794,19.326 198.958,22.204 194.315,59.628 "/>
<path class="st1" d="M203.282,68.158l0.942-5.654c0,0,1.068-0.942-1.194-1.382c-2.262-0.44-8.105-1.508-8.105-1.508
	s-1.445-0.126-1.571,1.257c-0.126,1.382-0.434,3.773-0.434,3.773l0.129,0.027l9.715,2.016l0.65,1.95l13.525,2.763"/>
<polyline class="st1" points="193.051,64.67 194.801,71.676 193.858,77.394 192.539,80.346 191.848,84.996 191.094,84.933 "/>
<path class="st1" d="M175.905,139.183l13.201-36.122l1.061,0.088l3.803-10.436l-0.973-0.442l0.884-2.476l2.476,0.442
	c0,0,0.177-2.034,0.884-2.83l-1.519-0.344l-1.299,1.263l-3.141-0.565l-0.503-0.754l0.377-3.016l-1.948-7.288l7.162-53.528
	l4.021-5.529l2.262,0.377l1.131-1.319l5.026,1.068"/>
<path class="st1" d="M212.599,10.378l0.085,2.394l-2.735,9.061l-0.94,1.111c0,0-0.769-0.085-0.513-1.881
	c0.256-1.795,0.855-6.497,0.855-6.497L212.599,10.378z"/>
<line class="st1" x1="318.108" y1="32.146" x2="319.515" y2="32.441"/>
<line class="st1" x1="292.41" y1="26.847" x2="315.258" y2="31.563"/>
<line class="st1" x1="281.392" y1="24.587" x2="288.073" y2="25.952"/>
<line class="st1" x1="255.656" y1="19.262" x2="278.275" y2="23.93"/>
<line class="st1" x1="212.608" y1="10.377" x2="251.262" y2="18.355"/>
<polyline class="st1" points="200.392,17.646 200.617,15.451 201.391,15.09 201.751,12.719 202.37,12.409 203.659,12.616 
	203.968,14.935 203.785,16.704 "/>
<polygon class="st1" points="240.724,15.915 241.807,15.09 243.25,15.399 244.075,16.482 243.869,17.461 240.621,16.74 "/>
<polygon class="st1" points="252.22,17.255 255.261,17.925 255.622,19.111 255.158,19.781 251.395,19.008 251.395,18.441 "/>
<polygon class="st1" points="278.53,23.72 279.629,22.941 280.638,23.078 281.325,23.995 281.17,25.005 278.46,24.453 "/>
<polygon class="st1" points="288.213,25.964 289.114,24.847 291.962,25.46 292.358,26.505 292.034,27.442 288.321,26.685 "/>
<polygon class="st1" points="315.296,32.04 315.451,31.164 316.481,30.443 317.511,30.623 318.155,31.576 317.949,32.606 "/>
<line class="st1" x1="194.801" y1="71.676" x2="215.017" y2="75.693"/>
<path class="st1" d="M194.334,75.794l2.129,0.406c0,0,0.912,0,0.71,1.115c-0.203,1.115-1.45,9.747-1.45,9.747"/>
<polyline class="st1" points="184.623,124.351 183.097,124.09 177.411,139.495 "/>
<polyline class="st1" points="183.471,140.873 189.329,125.157 187.08,124.772 "/>
<path class="st1" d="M184.837,122.237"/>
<polyline class="st1" points="198.369,88.349 197.349,91.253 197.362,94.48 206.429,96.257 207.801,92.06 208.048,90.081 "/>
<polyline class="st1" points="197.672,91.253 206.227,93.069 207.397,90.002 "/>
<line class="st1" x1="206.429" y1="96.257" x2="206.227" y2="93.069"/>
<line class="st1" x1="287.418" y1="107.516" x2="307.111" y2="111.592"/>
<line class="st1" x1="229.542" y1="95.751" x2="253.562" y2="100.625"/>
<path class="st1" d="M207.962,92.343c0,0,0.847,0.565,1.009-0.767l10.876,2.207"/>
<polyline class="st1" points="278.177,104.368 277.451,105.942 277.41,108.818 285.925,110.663 "/>
<polyline class="st1" points="286.53,105.982 285.764,107.718 285.925,110.663 287.741,106.265 "/>
<line class="st1" x1="277.451" y1="105.942" x2="285.764" y2="107.718"/>
<polyline class="st1" points="254.076,99.452 252.935,102.654 255.769,103.206 256.983,100.078 "/>
<polyline class="st1" points="252.964,102.665 252.935,105.594 255.769,106.146 255.752,103.197 "/>
<line class="st1" x1="257.742" y1="101.474" x2="277.572" y2="105.498"/>
<line class="st1" x1="255.777" y1="106.061" x2="257.88" y2="100.384"/>
<polyline class="st1" points="220.282,92.552 219.748,94.019 219.609,94.402 219.542,98.07 227.92,99.753 230.006,94.503 "/>
<polyline class="st1" points="228.627,94.234 227.954,95.849 219.878,94.167 "/>
<line class="st1" x1="228.055" y1="99.282" x2="227.954" y2="95.849"/>
<polyline class="st1" points="282.654,155.048 281.95,156.505 281.9,157.36 281.398,158.968 282.302,159.169 282.168,159.793 "/>
<polyline class="st1" points="284.976,160.406 284.818,159.671 284.083,159.461 284.608,157.938 284.555,156.993 285.291,155.89 
	285.138,152.458 295.335,125.892 295.718,125.753 296.132,125.394 298.211,125.821 298.268,126.954 "/>
<polyline class="st1" points="301.547,126.507 299.282,126.041 298.576,126.694 297.631,127.429 297.526,128.427 297.631,131.472 
	288.651,156.363 287.864,156.1 287.129,157.518 287.181,158.358 286.603,159.986 287.496,160.196 287.654,160.983 "/>
<polyline class="st1" points="282.168,159.793 284.174,160.226 284.401,159.675 "/>
<polyline class="st1" points="285.08,160.437 286.909,160.819 287.083,160.177 "/>
<line class="st1" x1="288.389" y1="161.141" x2="287.732" y2="160.998"/>
<polyline class="st1" points="291.017,124.408 290.768,124.717 290.011,125.124 280.07,152.285 280.061,154.844 279.366,156.026 
	279.412,156.906 278.856,158.482 279.69,158.714 279.689,159.319 281.487,159.68 281.73,159.059 "/>
<polyline class="st1" points="290.094,124.153 288.69,123.864 288.03,124.497 287.377,126.959 287.628,129.622 278.332,154.345 
	277.478,154.094 276.775,155.501 276.825,156.254 276.272,157.963 277.177,158.164 277.177,158.716 278.879,159.131 
	279.163,158.573 "/>
<polyline class="st1" points="293.156,126.224 293.004,124.751 290.887,124.316 "/>
<polyline class="st1" points="199.14,105.458 264.075,118.805 264.008,120.091 263.245,120.3 263.175,121.272 263.383,123.563 "/>
<polyline class="st1" points="295.686,125.248 294.008,124.924 293.711,125.465 293.332,125.844 292.683,127.764 292.493,130.145 
	282.971,154.845 "/>
<path class="st1" d="M292.187,153.423l0.91-2.329c0,0,0.645-1.176,0.835,0.228s0.228,2.58,0.228,2.58"/>
<line class="st1" x1="293.959" y1="151.845" x2="296.067" y2="146.508"/>
<polygon class="st1" points="260.831,123.091 264.736,123.919 265.919,120.784 279.347,123.565 278.283,126.641 282.128,127.469 
	279.702,134.272 275.798,133.325 274.674,136.402 278.637,137.23 276.153,143.974 272.071,143.086 270.888,146.34 257.518,143.56 
	258.701,140.424 254.62,139.655 257.341,132.852 261.127,133.621 262.251,130.604 258.228,129.776 "/>
<line class="st1" x1="279.347" y1="123.565" x2="279.49" y2="126.826"/>
<line class="st1" x1="282.128" y1="127.469" x2="282.406" y2="137.378"/>
<polyline class="st1" points="279.702,134.272 279.976,143.488 278.866,143.28 "/>
<line class="st1" x1="278.637" y1="137.23" x2="278.866" y2="146.682"/>
<polyline class="st1" points="272.071,143.086 272.478,152.652 276.366,153.416 276.153,143.974 "/>
<polyline class="st1" points="270.888,146.34 271.229,155.776 272.478,152.652 "/>
<polyline class="st1" points="257.518,143.56 257.76,153.069 253.733,152.166 254.913,148.973 254.62,139.655 "/>
<line class="st1" x1="257.644" y1="149.533" x2="254.913" y2="148.973"/>
<polyline class="st1" points="271.229,155.776 275.182,156.522 276.366,153.416 "/>
<polyline class="st1" points="282.412,134.01 283.188,134.165 283.447,135.045 275.273,157.548 253.772,153.073 253.733,152.166 "/>
<line class="st1" x1="297.631" y1="131.472" x2="299.661" y2="131.842"/>
<polyline class="st1" points="226.251,148.471 224.557,148.103 224.41,147.366 223.563,147.182 224.226,145.525 224.152,144.641 
	224.852,143.278 225.736,143.462 235.054,118.306 234.98,115.912 235.643,113.887 236.306,113.187 "/>
<polyline class="st1" points="231.329,149.487 229.635,149.118 229.487,148.382 228.64,148.198 229.303,146.54 229.229,145.656 
	229.929,144.293 230.813,144.478 240.132,119.322 240.058,116.928 240.721,114.902 241.384,114.202 "/>
<polyline class="st1" points="236.715,150.51 235.021,150.142 234.873,149.406 234.026,149.221 234.689,147.564 234.616,146.68 
	235.315,145.317 236.199,145.501 245.121,120.346 245.047,117.952 245.71,115.926 246.373,115.226 "/>
<polyline class="st1" points="234.06,150.092 232.365,149.723 232.218,148.987 231.371,148.803 231.93,147.354 231.845,146.336 
	232.566,145.317 232.735,142.019 242.832,114.486 "/>
<polyline class="st1" points="239.276,151.07 237.582,150.702 237.435,149.965 236.588,149.781 237.146,148.332 237.062,147.314 
	237.783,146.296 237.952,142.997 247.972,115.597 "/>
<polyline class="st1" points="241.932,151.619 240.237,151.251 240.09,150.514 239.243,150.33 239.906,148.673 239.832,147.789 
	240.532,146.426 241.416,146.61 250.338,121.454 250.264,119.06 250.927,117.035 251.59,116.335 "/>
<polyline class="st1" points="244.493,152.178 242.799,151.81 242.651,151.074 241.804,150.889 242.363,149.44 242.278,148.422 
	243,147.404 243.168,144.105 253.265,116.572 "/>
<polyline class="st1" points="246.953,152.793 245.258,152.424 245.111,151.688 244.264,151.504 244.927,149.846 244.853,148.962 
	245.553,147.6 246.437,147.784 255.359,122.628 255.285,120.234 255.948,118.208 256.611,117.508 "/>
<polyline class="st1" points="254.472,140.945 251.654,148.892 250.77,148.708 250.07,150.071 250.144,150.955 249.481,152.612 
	250.328,152.796 250.475,153.533 252.169,153.901 254.85,146.963 "/>
<line class="st1" x1="258.457" y1="129.709" x2="257.154" y2="133.384"/>
<polyline class="st1" points="261.828,118.617 261.165,119.317 260.502,121.343 260.575,123.737 "/>
<polyline class="st1" points="249.514,153.352 247.82,152.984 247.672,152.247 246.825,152.063 247.384,150.614 247.299,149.596 
	248.021,148.578 248.189,145.279 258.286,117.746 "/>
<polyline class="st1" points="237.765,113.672 227.563,141.627 227.393,144.162 226.767,145.414 226.804,146.224 226.178,147.698 
	227.025,147.882 227.172,148.619 228.866,148.987 "/>
<polyline class="st1" points="189.277,140.948 187.583,140.58 187.436,139.843 186.588,139.659 187.251,138.001 187.178,137.117 
	187.878,135.755 188.761,135.939 198.08,110.783 198.006,108.389 198.669,106.363 199.332,105.664 "/>
<polyline class="st1" points="200.791,106.149 190.589,134.104 190.419,136.639 189.793,137.891 189.83,138.701 189.203,140.174 
	190.051,140.359 190.198,141.095 191.892,141.464 "/>
<polyline class="st1" points="194.425,142.149 192.731,141.781 192.584,141.044 191.737,140.86 192.4,139.203 192.326,138.319 
	193.026,136.956 193.91,137.14 203.228,111.984 203.154,109.59 203.817,107.565 204.48,106.865 "/>
<polyline class="st1" points="209.124,107.736 208.461,108.436 207.798,110.462 207.982,112.422 198.966,138.071 198.201,137.827 
	197.501,139.19 197.575,140.074 196.912,141.731 197.759,141.916 197.906,142.652 199.601,143.02 202.26,135.952 "/>
<polyline class="st1" points="211.746,108.034 211.083,108.734 210.42,110.76 210.545,112.839 "/>
<polyline class="st1" points="205.939,107.35 195.737,135.305 195.567,137.84 194.941,139.092 194.978,139.902 194.352,141.376 
	195.199,141.56 195.346,142.296 197.04,142.665 "/>
<polyline class="st1" points="207.982,112.422 211.916,113.197 213.227,109.979 226.636,112.839 225.623,115.938 229.496,116.773 
	227.172,123.507 223.06,122.613 222.047,125.533 225.861,126.427 223.537,133.281 219.425,132.387 218.292,135.426 204.824,132.685 
	206.016,129.705 202.321,128.93 202.38,138.168 201.069,141.446 201.069,142.339 222.524,146.69 230.807,124.044 230.271,123.269 
	"/>
<polyline class="st1" points="204.704,122.196 208.34,122.911 209.532,119.812 205.837,119.037 206.075,122.136 "/>
<line class="st1" x1="226.636" y1="112.839" x2="226.934" y2="116.236"/>
<line class="st1" x1="229.496" y1="116.773" x2="229.854" y2="126.427"/>
<polyline class="st1" points="227.172,123.507 227.41,132.983 226.361,132.772 "/>
<line class="st1" x1="225.861" y1="126.427" x2="226.219" y2="136.38"/>
<line class="st1" x1="223.537" y1="133.281" x2="223.775" y2="143.055"/>
<polyline class="st1" points="219.544,132.447 219.901,141.803 218.65,145.021 218.292,135.426 "/>
<line class="st1" x1="219.901" y1="141.803" x2="223.775" y2="142.637"/>
<line class="st1" x1="218.65" y1="145.021" x2="222.812" y2="145.918"/>
<polyline class="st1" points="201.069,141.446 205.098,142.196 204.824,132.685 "/>
<line class="st1" x1="202.341" y1="138.233" x2="204.995" y2="138.784"/>
<path class="st1" d="M185.169,122.277c0,0,0.358-1.134,1.617-0.995c0,0,1.202,0.166,0.947,1.507l-0.42,1.259
	c0,0-0.343,1.394-1.637,1.042c0,0-1.067-0.017-0.974-1.182L185.169,122.277z"/>
<path class="st1" d="M182.341,126.039l0.059-2.274c0,0-0.095-0.634,0.761-0.507s1.574,0.27,1.574,0.27"/>
<path class="st1" d="M187.587,124.07l1.845,0.293c0,0,0.539-0.015,0.539,0.568s-0.045,2.679-0.045,2.679l-1.28-0.256"/>
<polyline class="st1" points="187.824,122.789 188.294,122.853 188.26,124.07 "/>
<line class="st1" x1="185.623" y1="123.135" x2="186.859" y2="123.374"/>
<line class="st1" x1="185.796" y1="122.485" x2="187.033" y2="122.723"/>
<ellipse transform="matrix(0.1987 -0.9801 0.9801 0.1987 6.865 279.3658)" class="st1" cx="174.271" cy="135.485" rx="1.756" ry="0.597"/>
<circle class="st1" cx="295.711" cy="102.732" r="0.889"/>
<circle class="st1" cx="264.199" cy="96.442" r="0.889"/>
<path class="st1" d="M233.132,90.978c-0.491,0-0.889-0.398-0.889-0.889s0.398-0.889,0.889-0.889c0.123,0,0.24,0.025,0.346,0.07"/>
<line class="st1" x1="165.876" y1="151.077" x2="168.335" y2="144.022"/>
<path class="st0" d="M130.524,52.137l3.91-10.786c0,0-6.271-16.866-28.11-14.055c0,0,4.108-6.703,10.595-11.028
	c0,0,18.596,4.541,25.947,16.65l6.487,0.649l-1.297,4.108l0.649,3.027l-1.297,2.811l1.73,0.432l-0.216,2.811l0.432,6.271
	l-1.946,4.541l-1.73-0.216l-4.325,13.19l-10.163-1.297v-2.379l1.297-1.514l-0.649-6.054l-0.216-2.162l-0.005-4.426L130.524,52.137z"
	/>
<polygon class="st0" points="41.997,83.547 46.087,82.569 63.693,86.481 62.892,95.907 61.914,97.952 61.559,99.285 40.397,94.484 
	40.841,86.037 41.286,85.237 41.997,84.703 "/>
<polygon class="st0" points="94.953,154.945 94.265,152.882 93.028,153.02 88.215,165.945 88.628,167.045 90.415,167.458 "/>
<path class="st0" d="M133.866,91.969l5.5,1.238l1.65,5.913l-0.688,2.2l0.275,1.65l-0.963,2.613l-0.963-0.138l-2.338,7.425
	l-1.925-0.138l0.413-1.238l-1.513-2.75l-2.338-1.1l-0.825-3.025l-0.963-0.413l2.063-5.363c0,0-1.925-2.475-4.4-0.963
	c0,0-3.575,1.925-3.988,5.913c0,0-1.375,3.988,2.888,4.4l2.613,1.513l-0.963,3.575c0,0-6.738-1.513-8.113-5.363
	c0,0-1.925-2.063,1.375-8.525c0,0,2.888-7.288,8.8-5.775c0,0,2.75,0.55,3.025,1.375L133.866,91.969z"/>
<path class="st2" d="M126.13,6.65"/>
<g>
	<path class="st3" d="M101.928,200.903l28.161-75.744c0,0,0.09-1.712-5.773-4.771l-0.612-0.969l-9.993-1.988l-0.51,0.204
		l-2.804-0.459l-3.926,11.012l13.409,2.753l0.204,0.918l-7.036,19.934l-0.561,0.153l-0.714,2.141l0.255,1.122l-0.816,0.714
		c0,0-5.251,5.302-4.792,13.052c0,0,1.428,0.969-0.714,2.141l-9.217,26.123c0,0,6.073,2.263,6.192,6.073l-2.858,7.741
		c0,0-1.429,2.024-3.453,2.024l-8.812-1.31l-8.455-2.144l-2.977-9.884l9.289,2.977l8.693,0.953l2.276-6.029"/>
	<path class="st3" d="M101.962,205.333c0,0-0.51-1.744-1.531-2.509l-1.574,4.253c-1.914-2.041-4.763-2.637-4.763-2.637l-0.17-0.51"
		/>
	<path class="st3" d="M99.368,210.692l-12.078-1.701c0,0-0.383-0.043-0.595-1.021s-0.51-2.679-0.51-2.679l12.673,1.786"/>
	<polyline class="st3" points="76.265,199.192 80.586,188.04 79.123,187.692 81.632,181.001 82.747,181.21 87.974,166.853 
		90.553,167.271 96.616,150.335 94.107,149.499 98.637,137.163 98.01,135.072 100.519,128.311 101.773,128.381 102.261,127.405 
		105.119,127.963 105.746,125.733 102.68,125.105 102.889,125.872 102.68,126.848 	"/>
	<path class="st3" d="M103.516,124.827l2.161-5.576l-0.279-1.115l0.348-0.767l2.648,0.627l0.697-1.951l-2.858-0.558l1.255-3.345
		c0,0,0-0.836,1.394-0.488c1.394,0.348,16.239,3.345,16.239,3.345l0.697,0.906l-1.185,2.718l-0.318,1.764"/>
	<line class="st3" x1="109.161" y1="119.669" x2="105.916" y2="118.967"/>
	<path class="st3" d="M120.382,131.795c0,0,3.943,1.384,5.621,4.195"/>
	<path class="st3" d="M116.117,142.777l-1.674-0.515l-2.704,7.726c0,0,1.223-0.129,1.674,1.223"/>
	<polyline class="st3" points="88.473,166.983 88.013,166.017 92.89,152.72 94.362,152.72 94.869,154.008 	"/>
	<line class="st3" x1="94.107" y1="149.499" x2="95.375" y2="153.548"/>
	<polyline class="st3" points="104.77,173.597 103.348,173.271 100.592,180.975 102.044,181.39 	"/>
	<line class="st3" x1="119.275" y1="130.862" x2="123.309" y2="119.369"/>
	<path class="st3" d="M125.022,117.877c0,0,6.797,2.155,4.863,6.134"/>
	<polygon class="st3" points="117.341,122.297 116.126,125.834 118.557,126.331 119.718,122.794 	"/>
	<path class="st3" d="M109.992,111.798l0.276-1.216l15.306,2.266l3.536,0.939l0.387,1.16l1.824-0.774c0,0,0.608,3.26-2.376,5.636"/>
	<path class="st3" d="M125.174,117.312c0,0,2.995,1.274,3.305-1.205l0.654,0.069l2.1-0.998"/>
	<path class="st3" d="M131.322,114.174l1.827-5.629l-3.713-1.078l-1.917,5.63c-10.204-1.946-8.786-8.437-8.786-8.437
		s1.775-10.221,8.069-11.19s9.737,5.918,9.737,5.918c-3.335,3.82-5.38-0.592-5.38-0.592s-2.098-2.959-4.949-0.753
		s-3.443,6.725-3.443,6.725s-0.915,2.206,1.13,2.959c2.044,0.753,4.465,1.937,4.465,1.937"/>
	<polyline class="st3" points="132.735,94.427 133.63,91.837 139.422,93.061 138.198,97.77 137.35,97.535 136.22,100.596 
		137.021,100.831 135.467,105.211 129.297,103.987 131.159,98.797 	"/>
	<polyline class="st3" points="129.91,104.458 130.757,107.189 135.655,108.084 134.901,105.352 	"/>
	<polyline class="st3" points="134.289,112.558 136.361,112.84 135.372,109.685 136.079,106.907 137.586,102.904 	"/>
	<polygon class="st3" points="138.19,98.454 139.981,98.87 139.107,101.219 137.324,100.803 	"/>
	<polyline class="st3" points="139.743,100.117 140.553,102.954 139.589,105.482 138.508,101.931 139.107,101.219 	"/>
	<polyline class="st3" points="139.454,105.465 138.39,105.142 137.231,100.962 	"/>
	<polyline class="st3" points="138.998,98.512 140.005,95.814 139.359,93.478 	"/>
	<line class="st3" x1="136.319" y1="112.422" x2="138.795" y2="105.454"/>
	<polyline class="st3" points="140.245,101.14 140.881,99.478 141.164,98.735 140.245,95.87 	"/>
	<path class="st3" d="M133.148,108.546l1.284,2.999c0,0,0,2.344-2.617,1.406"/>
</g>
<g>
	<polyline class="st1" points="142.835,32.54 149.406,33.764 141.869,53.928 130.613,51.579 134.46,41.172 	"/>
	<g>
		<g>
			<defs>
				<circle id="SVGID_1_" cx="135.34" cy="44.73" r="33.93"/>
			</defs>
			<clipPath id="SVGID_00000173873323858152767250000002864642295497260467_">
				<use xlink:href="#SVGID_1_"  style="overflow:visible;"/>
			</clipPath>
			
				<path style="clip-path:url(#SVGID_00000173873323858152767250000002864642295497260467_);fill:none;stroke:#231F20;stroke-width:0.5;stroke-miterlimit:10;" d="
				M104.377,16.401c0,0,12.156-3.614,28.144,6.489s12.751,21.48,12.751,21.48s-5.296,5.395-10.495-2.648
				c0,0-6.676-18.453-30.308-14.222L104.377,16.401z"/>
			
				<polyline style="clip-path:url(#SVGID_00000173873323858152767250000002864642295497260467_);fill:none;stroke:#231F20;stroke-width:0.5;stroke-linecap:round;stroke-linejoin:round;stroke-miterlimit:10;" points="
				130.584,51.411 130.616,52.377 131.551,52.603 131.937,58.499 131.744,59.498 132.324,65.941 131.583,65.877 131.132,66.779 
				131.196,68.938 141.378,71 140.669,63.042 141.216,60.368 140.83,54.343 141.861,54.471 141.861,53.988 			"/>
			
				<polyline style="clip-path:url(#SVGID_00000173873323858152767250000002864642295497260467_);fill:none;stroke:#231F20;stroke-width:0.5;stroke-linecap:round;stroke-linejoin:round;stroke-miterlimit:10;" points="
				132.002,58.499 141.216,60.368 144.365,51.582 			"/>
			
				<polyline style="clip-path:url(#SVGID_00000173873323858152767250000002864642295497260467_);fill:none;stroke:#231F20;stroke-width:0.5;stroke-linecap:round;stroke-linejoin:round;stroke-miterlimit:10;" points="
				148.274,36.797 148.529,40.578 147.509,43.297 			"/>
			
				<path style="clip-path:url(#SVGID_00000173873323858152767250000002864642295497260467_);fill:none;stroke:#231F20;stroke-width:0.5;stroke-linecap:round;stroke-linejoin:round;stroke-miterlimit:10;" d="
				M149.463,43.892l-3.484-0.595L149.463,43.892z"/>
			
				<polyline style="clip-path:url(#SVGID_00000173873323858152767250000002864642295497260467_);fill:none;stroke:#231F20;stroke-width:0.5;stroke-linecap:round;stroke-linejoin:round;stroke-miterlimit:10;" points="
				149.463,43.892 149.676,44.571 148.444,48.055 144.492,47.333 			"/>
			
				<polyline style="clip-path:url(#SVGID_00000173873323858152767250000002864642295497260467_);fill:none;stroke:#231F20;stroke-width:0.5;stroke-linecap:round;stroke-linejoin:round;stroke-miterlimit:10;" points="
				148.444,48.055 148.486,48.778 146.957,49.202 147.594,57.487 149.336,52.729 149.038,46.441 			"/>
			
				<polyline style="clip-path:url(#SVGID_00000173873323858152767250000002864642295497260467_);fill:none;stroke:#231F20;stroke-width:0.5;stroke-linecap:round;stroke-linejoin:round;stroke-miterlimit:10;" points="
				144.875,47.46 145.045,51.497 143.218,51.199 			"/>
			
				<line style="clip-path:url(#SVGID_00000173873323858152767250000002864642295497260467_);fill:none;stroke:#231F20;stroke-width:0.5;stroke-linecap:round;stroke-linejoin:round;stroke-miterlimit:10;" x1="141.378" y1="71" x2="146.149" y2="57.19"/>
			
				<polyline style="clip-path:url(#SVGID_00000173873323858152767250000002864642295497260467_);fill:none;stroke:#231F20;stroke-width:0.5;stroke-linecap:round;stroke-linejoin:round;stroke-miterlimit:10;" points="
				147.594,57.487 145.555,57.19 145.385,52.134 145.045,51.497 			"/>
		</g>
		<circle class="st6" cx="135.34" cy="44.73" r="33.93"/>
	</g>
</g>
<g>
	<g>
		<defs>
			<circle id="SVGID_00000073002103946103314980000013176465933646839993_" cx="51.23" cy="97.507" r="33.93"/>
		</defs>
		<clipPath id="SVGID_00000175283744185548481480000013895868610982234520_">
			<use xlink:href="#SVGID_00000073002103946103314980000013176465933646839993_"  style="overflow:visible;"/>
		</clipPath>
		
			<line style="clip-path:url(#SVGID_00000175283744185548481480000013895868610982234520_);fill:none;stroke:#231F20;stroke-width:0.5;stroke-linecap:round;stroke-linejoin:round;stroke-miterlimit:10;" x1="11.416" y1="65.42" x2="92.662" y2="83.946"/>
		
			<line style="clip-path:url(#SVGID_00000175283744185548481480000013895868610982234520_);fill:none;stroke:#231F20;stroke-width:0.5;stroke-linecap:round;stroke-linejoin:round;stroke-miterlimit:10;" x1="11.193" y1="117.649" x2="92.662" y2="135.171"/>
		
			<line style="clip-path:url(#SVGID_00000175283744185548481480000013895868610982234520_);fill:none;stroke:#231F20;stroke-width:0.5;stroke-linecap:round;stroke-linejoin:round;stroke-miterlimit:10;" x1="62.083" y1="98.131" x2="92.773" y2="105.038"/>
		
			<line style="clip-path:url(#SVGID_00000175283744185548481480000013895868610982234520_);fill:none;stroke:#231F20;stroke-width:0.5;stroke-linecap:round;stroke-linejoin:round;stroke-miterlimit:10;" x1="11.527" y1="86.959" x2="38.727" y2="92.867"/>
		
			<polyline style="clip-path:url(#SVGID_00000175283744185548481480000013895868610982234520_);fill:none;stroke:#231F20;stroke-width:0.5;stroke-linecap:round;stroke-linejoin:round;stroke-miterlimit:10;" points="
			11.527,73.678 40.405,80.193 43.05,79.604 67.879,85.133 65.024,85.746 92.662,91.981 		"/>
		
			<path style="clip-path:url(#SVGID_00000175283744185548481480000013895868610982234520_);fill:none;stroke:#231F20;stroke-width:0.5;stroke-linecap:round;stroke-linejoin:round;stroke-miterlimit:10;" d="
			M38.364,79.797l0.908,1.392l0.363,9.681c0,0-1.21,1.089-0.787,3.146l22.811,5.204c0,0,0.363-2.481,1.392-3.086l0.847-9.015
			c0,0,0.135-1.474,1.126-1.372"/>
		
			<polyline style="clip-path:url(#SVGID_00000175283744185548481480000013895868610982234520_);fill:none;stroke:#231F20;stroke-width:0.5;stroke-linecap:round;stroke-linejoin:round;stroke-miterlimit:10;" points="
			43.05,79.604 42.971,81.761 63.986,86.597 		"/>
		
			<polyline style="clip-path:url(#SVGID_00000175283744185548481480000013895868610982234520_);fill:none;stroke:#231F20;stroke-width:0.5;stroke-linecap:round;stroke-linejoin:round;stroke-miterlimit:10;" points="
			46.195,82.597 43.144,83.285 41.956,83.552 41.956,84.567 		"/>
		
			<path style="clip-path:url(#SVGID_00000175283744185548481480000013895868610982234520_);fill:none;stroke:#231F20;stroke-width:0.5;stroke-linecap:round;stroke-linejoin:round;stroke-miterlimit:10;" d="
			M42.673,83.433l18.925,4.239c0,0,2.149,0.418,1.91,2.925"/>
		
			<line style="clip-path:url(#SVGID_00000175283744185548481480000013895868610982234520_);fill:none;stroke:#231F20;stroke-width:0.5;stroke-linecap:round;stroke-linejoin:round;stroke-miterlimit:10;" x1="40.822" y1="86" x2="61.836" y2="90.716"/>
		
			<line style="clip-path:url(#SVGID_00000175283744185548481480000013895868610982234520_);fill:none;stroke:#231F20;stroke-width:0.5;stroke-linecap:round;stroke-linejoin:round;stroke-miterlimit:10;" x1="41.479" y1="84.985" x2="61.06" y2="89.403"/>
		
			<path style="clip-path:url(#SVGID_00000175283744185548481480000013895868610982234520_);fill:none;stroke:#231F20;stroke-width:0.5;stroke-linecap:round;stroke-linejoin:round;stroke-miterlimit:10;" d="
			M40.583,93.104l21.253,4.763l0.179-6.434c0.119-2.209-2.03-3.164-2.03-3.164l-17.015-3.821c-2.269-0.179-2.328,2.09-2.328,2.09
			l-0.179,7.88"/>
		<g style="clip-path:url(#SVGID_00000175283744185548481480000013895868610982234520_);">
			<path class="st9" d="M43.143,92.968l-0.045-5.774l1.486,0.341c0.563,0.129,0.93,0.243,1.101,0.339
				c0.263,0.147,0.485,0.386,0.664,0.717c0.179,0.331,0.271,0.726,0.275,1.186c0.003,0.354-0.046,0.641-0.146,0.859
				c-0.101,0.218-0.229,0.378-0.385,0.48c-0.156,0.102-0.316,0.156-0.478,0.163c-0.221,0.004-0.541-0.042-0.959-0.138l-0.604-0.139
				l0.017,2.178L43.143,92.968z M44.032,88.383l0.013,1.639l0.507,0.116c0.365,0.084,0.609,0.109,0.731,0.077
				s0.218-0.104,0.287-0.217c0.069-0.113,0.103-0.254,0.101-0.425c-0.002-0.21-0.052-0.395-0.151-0.554
				c-0.099-0.159-0.224-0.273-0.374-0.342c-0.111-0.052-0.333-0.116-0.666-0.192L44.032,88.383z"/>
			<path class="st9" d="M47.044,88.1l0.926,0.213l0.024,3.128c0.004,0.496,0.018,0.82,0.042,0.973
				c0.041,0.245,0.137,0.456,0.287,0.634c0.151,0.178,0.355,0.296,0.613,0.355c0.263,0.06,0.46,0.039,0.593-0.066
				c0.132-0.105,0.211-0.252,0.237-0.443c0.026-0.191,0.037-0.515,0.033-0.972l-0.025-3.194l0.926,0.213l0.023,3.033
				c0.005,0.693-0.016,1.177-0.064,1.452c-0.048,0.275-0.138,0.495-0.271,0.661c-0.133,0.166-0.311,0.282-0.536,0.347
				c-0.224,0.065-0.518,0.056-0.881-0.027c-0.438-0.101-0.771-0.24-0.998-0.42c-0.227-0.179-0.408-0.386-0.54-0.619
				c-0.133-0.234-0.221-0.467-0.265-0.7c-0.063-0.345-0.097-0.84-0.102-1.486L47.044,88.1z"/>
			<path class="st9" d="M51.152,92.932l0.9,0.096c0.057,0.393,0.169,0.698,0.337,0.915c0.167,0.216,0.391,0.357,0.673,0.422
				c0.298,0.069,0.522,0.041,0.672-0.083c0.15-0.124,0.224-0.293,0.222-0.505c-0.001-0.137-0.034-0.26-0.098-0.37
				c-0.064-0.111-0.176-0.22-0.335-0.327c-0.109-0.072-0.357-0.213-0.743-0.422c-0.497-0.269-0.847-0.54-1.049-0.811
				c-0.284-0.382-0.428-0.802-0.431-1.259c-0.002-0.294,0.062-0.554,0.193-0.78c0.13-0.226,0.32-0.377,0.568-0.453
				c0.248-0.077,0.548-0.074,0.901,0.006c0.576,0.132,1.01,0.39,1.303,0.775c0.294,0.385,0.449,0.844,0.468,1.378l-0.925-0.162
				c-0.042-0.306-0.129-0.538-0.26-0.699c-0.131-0.16-0.327-0.27-0.588-0.329c-0.269-0.062-0.479-0.041-0.63,0.063
				c-0.097,0.067-0.145,0.175-0.144,0.325c0.001,0.136,0.048,0.264,0.14,0.382c0.118,0.15,0.402,0.344,0.854,0.582
				c0.452,0.237,0.786,0.452,1.003,0.645c0.217,0.192,0.387,0.427,0.511,0.703c0.124,0.276,0.187,0.597,0.19,0.962
				c0.003,0.33-0.068,0.624-0.212,0.879s-0.348,0.422-0.614,0.502c-0.266,0.079-0.598,0.073-0.996-0.019
				c-0.58-0.133-1.026-0.404-1.34-0.813C51.406,94.126,51.217,93.591,51.152,92.932z"/>
			<path class="st9" d="M55.356,95.773l-0.045-5.774l0.926,0.213l0.018,2.273l1.814,0.417l-0.018-2.272l0.926,0.213l0.045,5.774
				l-0.926-0.213l-0.019-2.525l-1.814-0.417l0.019,2.525L55.356,95.773z"/>
		</g>
	</g>
	<circle class="st6" cx="51.23" cy="97.507" r="33.93"/>
</g>
<g>
	<g>
		<path class="st10" d="M33.556,85.458c0,7.593-6.246,13.745-13.95,13.745c-7.707,0-13.953-6.152-13.953-13.745
			c0-7.596,6.246-13.755,13.953-13.755C27.311,71.703,33.556,77.862,33.556,85.458"/>
	</g>
	<g>
		<path class="st11" d="M24.552,90.125v1.774h-9.936c-0.014-0.444,0.058-0.872,0.215-1.282c0.253-0.677,0.658-1.343,1.215-2
			c0.557-0.656,1.362-1.415,2.415-2.276c1.634-1.34,2.738-2.401,3.312-3.184s0.861-1.523,0.861-2.22
			c0-0.731-0.262-1.348-0.784-1.851c-0.523-0.502-1.205-0.753-2.046-0.753c-0.889,0-1.6,0.267-2.133,0.8s-0.803,1.271-0.81,2.215
			l-1.897-0.195c0.13-1.415,0.619-2.493,1.466-3.235c0.848-0.741,1.986-1.112,3.415-1.112c1.442,0,2.584,0.4,3.425,1.2
			s1.261,1.791,1.261,2.974c0,0.602-0.123,1.193-0.369,1.774s-0.655,1.193-1.225,1.835c-0.571,0.643-1.52,1.524-2.846,2.646
			c-1.107,0.93-1.818,1.561-2.133,1.892s-0.574,0.665-0.779,1H24.552z"/>
	</g>
</g>
<g>
	<g>
		<path class="st10" d="M134.574,162.869c0,7.593-6.246,13.745-13.95,13.745c-7.707,0-13.953-6.152-13.953-13.745
			c0-7.596,6.246-13.755,13.953-13.755C128.328,149.114,134.574,155.273,134.574,162.869"/>
	</g>
	<g>
		<path class="st11" d="M115.879,165.343l1.846-0.246c0.212,1.046,0.572,1.799,1.082,2.261c0.509,0.461,1.129,0.692,1.861,0.692
			c0.868,0,1.601-0.301,2.2-0.902c0.598-0.602,0.897-1.347,0.897-2.235c0-0.848-0.277-1.547-0.831-2.098
			c-0.554-0.55-1.258-0.825-2.112-0.825c-0.349,0-0.783,0.068-1.302,0.205l0.205-1.62c0.123,0.014,0.222,0.021,0.297,0.021
			c0.786,0,1.494-0.205,2.123-0.615s0.943-1.042,0.943-1.896c0-0.677-0.229-1.237-0.687-1.682s-1.049-0.667-1.774-0.667
			c-0.718,0-1.316,0.226-1.794,0.677s-0.786,1.128-0.923,2.03l-1.846-0.328c0.226-1.237,0.738-2.195,1.538-2.876
			c0.8-0.68,1.794-1.021,2.984-1.021c0.82,0,1.576,0.177,2.266,0.528c0.69,0.353,1.218,0.832,1.584,1.44s0.549,1.255,0.549,1.938
			c0,0.649-0.174,1.24-0.523,1.773s-0.865,0.957-1.548,1.271c0.889,0.205,1.579,0.631,2.071,1.276
			c0.492,0.646,0.738,1.455,0.738,2.426c0,1.312-0.479,2.425-1.436,3.337c-0.957,0.913-2.167,1.369-3.63,1.369
			c-1.319,0-2.415-0.393-3.286-1.179C116.5,167.612,116.002,166.594,115.879,165.343z"/>
	</g>
</g>
<g>
	<g>
		<path class="st10" d="M173.812,18.328c0,7.593-6.246,13.745-13.95,13.745c-7.707,0-13.953-6.152-13.953-13.745
			c0-7.596,6.246-13.755,13.953-13.755C167.566,4.573,173.812,10.732,173.812,18.328"/>
	</g>
	<g>
		<path class="st11" d="M161.459,25.369h-1.846V13.608c-0.444,0.424-1.027,0.848-1.749,1.271s-1.369,0.742-1.943,0.954v-1.784
			c1.032-0.485,1.935-1.073,2.707-1.764s1.319-1.36,1.641-2.01h1.189V25.369z"/>
	</g>
</g>
<g>
	<polygon class="st12" points="162.284,34.397 174.859,47.767 168.582,46.656 168.794,67.715 156.417,65.527 156.205,44.465 
		149.929,43.356 	"/>
</g>
<g>
	<polygon class="st12" points="47.107,97.755 23.061,103.276 30.487,105.229 12.957,122.96 27.604,126.818 45.134,109.087 
		52.56,111.044 	"/>
</g>
<g>
	<polygon class="st12" points="103.637,118.559 116.212,131.929 109.936,130.817 110.147,151.877 97.77,149.688 97.559,128.627 
		91.282,127.517 	"/>
</g>
<polyline class="st6" points="66.2,128.049 88.747,157.97 75.028,121.716 "/>
<polygon class="st11" points="172.708,128.15 173.737,126.41 176.897,136.321 "/>
<polyline class="st6" points="156.446,71.454 177.384,137.786 147.597,76.431 "/>
<g>
	<g>
		<path class="st1" d="M271.041,110.779"/>
	</g>
	<g>
		<path class="st1" d="M277.373,112.08"/>
	</g>
	<path class="st1" d="M297.59,118.07"/>
	<polygon class="st1" points="270.75,109.78 269.733,109.548 268.165,114.224 269.24,114.456 	"/>
	<polyline class="st1" points="268.165,114.427 268.223,115.822 269.349,116.068 269.269,114.515 	"/>
	<path class="st1" d="M269.441,115.976"/>
	<path class="st1" d="M298.333,121.429"/>
	<path class="st1" d="M301.483,116.776c0,0-1.135,0.077-1.368,0.903c0,0-0.335,0.852,0.852,0.723c0,0,1.187,0,1.548-0.877
		C302.515,117.524,302.67,116.595,301.483,116.776z"/>
	<path class="st1" d="M298.337,120.251l0.075,2.133c0,0,1.004,0.427,1.205-0.276l0.427-0.954l-0.025-1.686"/>
	<polyline class="st1" points="300.219,121.28 301.65,121.531 302.553,119.046 302.503,117.641 	"/>
	<polyline class="st1" points="301.148,118.494 301.173,120.678 301.876,120.803 	"/>
	<path class="st1" d="M301.248,116.624c0.108-0.888-0.173-0.953-0.173-0.953l-0.714-0.13l-0.123,1.505"/>
	<path class="st1" d="M300.309,118.438l-0.654,2.042c0,0-0.099,0.694-1.209,0.278"/>
	<path class="st1" d="M233.909,104.797c-1.14-0.534-0.675-1.443-0.675-1.443c0.442-0.885,1.629-0.279,1.629-0.279
		s1.304,0.349,0.954,1.536C235.818,104.611,235.748,105.658,233.909,104.797z"/>
	<polyline class="st1" points="235.993,103.662 236.356,102.719 237.716,102.968 237.614,104.573 236.023,109.525 	"/>
	<polyline class="st1" points="236.087,104.636 236.542,104.744 236.053,105.931 235.192,105.745 234.587,107.63 235.963,107.888 	
		"/>
	<polyline class="st1" points="235.423,105.937 233.602,105.598 233.618,106.871 233.215,106.791 233.199,107.516 234.407,107.742 	
		"/>
	<path class="st1" d="M234.988,106.194l-0.371,1.064c0,0-0.338,0.516,1.358,0.703l0.048,1.563l-1.052-0.107
		c0,0-0.435-0.016-0.435-0.435s-0.032-1.434-0.032-1.434"/>
	<polygon class="st1" points="264.785,113.666 266.074,114.025 266.074,115.38 264.785,115.02 	"/>
	<polyline class="st1" points="264.818,113.568 266.548,108.867 267.772,109.177 266.074,114.025 	"/>
	<polyline class="st1" points="266.074,115.38 267.723,110.663 267.788,109.243 	"/>
	<polyline class="st1" points="270.75,109.78 270.913,111.374 269.441,115.976 	"/>
</g>
</svg>
