<?xml version="1.0" encoding="utf-8"?>
<!-- Generator: Adobe Illustrator 26.0.3, SVG Export Plug-In . SVG Version: 6.00 Build 0)  -->
<svg version="1.1" xmlns="http://www.w3.org/2000/svg" xmlns:xlink="http://www.w3.org/1999/xlink" x="0px" y="0px"
	 viewBox="0 0 378 239.8" style="enable-background:new 0 0 378 239.8;" xml:space="preserve">
<style type="text/css">
	.st0{fill:#D0D2D3;}
	
		.st1{fill-rule:evenodd;clip-rule:evenodd;stroke:#FFFFFF;stroke-width:3;stroke-linecap:round;stroke-linejoin:round;stroke-miterlimit:10;}
	
		.st2{fill-rule:evenodd;clip-rule:evenodd;stroke:#231F20;stroke-width:0.75;stroke-linecap:round;stroke-linejoin:round;stroke-miterlimit:10;}
	.st3{fill:none;stroke:#231F20;stroke-width:0.2991;stroke-miterlimit:10;}
	.st4{fill:none;stroke:#231F20;stroke-width:0.2991;stroke-linecap:round;stroke-linejoin:round;stroke-miterlimit:10;}
	.st5{fill:none;stroke:#231F20;stroke-width:0.5;stroke-linecap:round;stroke-linejoin:round;stroke-miterlimit:10;}
	.st6{fill:none;stroke:#231F20;stroke-width:0.5982;stroke-linecap:round;stroke-linejoin:round;stroke-miterlimit:10;}
	.st7{fill:#231F20;}
	.st8{fill:none;stroke:#231F20;stroke-width:0.3151;stroke-linecap:round;stroke-linejoin:round;stroke-miterlimit:10;}
	.st9{fill:none;stroke:#231F20;stroke-width:0.3729;stroke-linecap:round;stroke-linejoin:round;stroke-miterlimit:10;}
	.st10{fill:#231F20;stroke:#FFFFFF;stroke-width:0.8368;stroke-linecap:round;stroke-linejoin:round;stroke-miterlimit:10;}
	.st11{fill:#231F20;stroke:#FFFFFF;stroke-width:0.8534;stroke-linecap:round;stroke-linejoin:round;stroke-miterlimit:10;}
	.st12{fill-rule:evenodd;clip-rule:evenodd;stroke:#FFFFFF;stroke-miterlimit:10;}
	.st13{fill:#FFFFFF;}
	.st14{font-family:'Helvetica';}
	.st15{font-size:16.7034px;}
	.st16{fill:#FFFFFF;stroke:#FFFFFF;stroke-width:2.2676;stroke-miterlimit:10;}
	.st17{fill:none;stroke:#231F20;stroke-width:0.5;stroke-linecap:round;stroke-linejoin:round;}
	.st18{font-family:'Arial-BoldMT';}
	.st19{font-size:4.6807px;}
	.st20{fill:none;stroke:#231F20;stroke-width:0.5471;stroke-linecap:round;stroke-linejoin:round;stroke-miterlimit:10;}
	.st21{fill:none;stroke:#231F20;stroke-width:0.5101;stroke-linecap:round;stroke-linejoin:round;stroke-miterlimit:10;}
	.st22{fill:none;stroke:#231F20;stroke-width:0.5507;stroke-linecap:round;stroke-linejoin:round;stroke-miterlimit:10;}
	.st23{font-size:4.5605px;}
	.st24{fill:none;stroke:#231F20;stroke-width:0.4229;stroke-linecap:round;stroke-linejoin:round;stroke-miterlimit:10;}
	.st25{fill:none;stroke:#D0CFCD;stroke-width:0.5357;stroke-linecap:round;stroke-linejoin:round;stroke-miterlimit:10;}
	.st26{fill:#231F20;stroke:#FFFFFF;stroke-width:0.4229;stroke-linecap:round;stroke-linejoin:round;stroke-miterlimit:10;}
	.st27{fill:none;stroke:#231F20;stroke-width:0.5;stroke-miterlimit:10;}
	.st28{fill:#231F20;stroke:#FFFFFF;stroke-width:0.8457;stroke-linecap:round;stroke-linejoin:round;stroke-miterlimit:10;}
	.st29{clip-path:url(#SVGID_00000154396920653431221840000000583762641893805240_);}
	.st30{fill:#FFFFFF;stroke:#231F20;stroke-width:0.5;stroke-miterlimit:10;}
	.st31{fill:#FFFFFF;stroke:#231F20;stroke-width:0.5;stroke-linecap:round;stroke-linejoin:round;stroke-miterlimit:10;}
	.st32{font-size:13.0325px;}
	.st33{fill:#231F20;stroke:#FFFFFF;stroke-width:0.5;stroke-linecap:round;stroke-linejoin:round;stroke-miterlimit:10;}
	.st34{fill:#231F20;stroke:#FFFFFF;stroke-width:3;stroke-linecap:round;stroke-linejoin:round;stroke-miterlimit:10;}
	.st35{fill:#231F20;stroke:#231F20;stroke-width:0.75;stroke-linecap:round;stroke-linejoin:round;stroke-miterlimit:10;}
	.st36{fill:#231F20;stroke:#FFFFFF;stroke-width:1.5;stroke-linecap:round;stroke-linejoin:round;stroke-miterlimit:10;}
	.st37{fill-rule:evenodd;clip-rule:evenodd;stroke:#FFFFFF;stroke-width:0.8;stroke-miterlimit:10;}
	.st38{font-size:16.7027px;}
</style>
<g id="DIMMs">
	<polygon class="st0" points="212.7,110.3 186.8,97.2 181.7,99.9 179.3,98.6 169.7,103.4 188.5,112.7 188.4,116.4 190.4,117.4 
		190.3,118.5 190.6,120.1 190,120.6 190.4,121.3 189.9,122.2 190.5,123.2 196.1,126.1 196.3,127.9 199.2,126.5 199.1,120.2 
		200.8,119.3 200.8,116.4 	"/>
	<line class="st1" x1="120.4" y1="84.2" x2="186.2" y2="106.3"/>
	<line class="st2" x1="120.4" y1="84.2" x2="186.2" y2="106.3"/>
	<g>
		<g>
			<path class="st0" d="M54.2,40.8l9.6-8.6l0.3,0.3l1.2-0.8l-1.3-1.6l0.4-0.1c0,0,2.1,0.1,1.9-1l-1.5-0.3L52.6,39.8l0.2,0.3
				l-0.4,0.4L54.2,40.8z"/>
			<path class="st3" d="M64.1,29.9c2.4,0.2,2.1-0.8,2.1-0.8l-1.5-0.3l-2.6,2.5L64.1,29.9z"/>
			<polyline class="st3" points="62.2,31.1 64.2,32.6 65.4,31.6 64,30.1 			"/>
			<line class="st3" x1="54.3" y1="40.7" x2="63.7" y2="32.3"/>
			<line class="st4" x1="52.7" y1="39.8" x2="62.1" y2="31.2"/>
			<polyline class="st4" points="61.7,33.8 61.5,32.8 60.5,32.7 			"/>
			<line class="st4" x1="53" y1="40.7" x2="61.4" y2="33.1"/>
		</g>
		<line class="st5" x1="143.6" y1="58.9" x2="143.6" y2="60.1"/>
		<line class="st5" x1="142.8" y1="58.5" x2="142.8" y2="59.9"/>
		<path class="st4" d="M150.6,56.7l1.8,0.9l-7.1,3.5c0,0-0.9-0.8-2.2-0.4l-2.2,1.2"/>
		<polyline class="st4" points="152.4,57.7 152.4,59 145.4,62.5 145.4,61.1 		"/>
		<path class="st4" d="M141.7,62.8l1.4-0.7c0,0,1.1-0.4,2.2,0.5"/>
		<line class="st6" x1="46.4" y1="45.2" x2="46.4" y2="47.8"/>
		<g>
			<polygon class="st5" points="113.9,71.3 52.2,40.4 52.8,40.1 51.5,39.4 45.7,42.5 110.1,74.7 115.9,71.7 114.5,70.9 			"/>
			<polyline class="st5" points="116,71.7 116,74.4 116.5,74.2 116.5,75.4 115.6,75.8 115.6,78.3 116.5,77.8 116.5,81 110.2,84.1 
				110.2,79.9 110.9,79.4 110.9,76.3 110.2,76.6 110.2,74.9 			"/>
			<polyline class="st5" points="110.2,76.6 45.5,44.5 45.5,42.5 			"/>
			<path class="st5" d="M110.2,79.9L45.5,47.8c0,0-0.1,4,0,4.1L110.2,84"/>
			<path class="st4" d="M127.2,73.2l14.5-7.4l-0.1-2.8c0,0-0.3-1.2-1.9-1.2l-0.9,0.5l1,0.8l-1.1-0.1l-2.2,1.1l0.2,0.5l1.4-0.6
				l0.5,0.4l-15.6,8"/>
			<polyline class="st5" points="138.2,60.7 142.8,58.5 143.6,58.9 150.6,55.4 139.4,49.7 			"/>
			<line class="st5" x1="131.3" y1="65.4" x2="118.9" y2="71.6"/>
			<polyline class="st5" points="150.6,55.4 150.7,56.7 143.5,60.3 142.7,59.9 131.5,65.4 			"/>
			<polyline class="st5" points="130.4,56.6 138.2,60.3 138.2,62 			"/>
			<path class="st5" d="M138,60.3l-6.6,3.4c0,0-1.3-0.5-2-0.4l-14.9,7.6"/>
			<path class="st5" d="M131.5,63.7v1.7l-1-0.4c0,0-0.7-0.2-0.9-0.2s-13.4,6.7-13.4,6.7"/>
			<polyline class="st4" points="119.9,79.9 120.7,80.3 123,79.1 122.2,78.7 			"/>
			<polyline class="st4" points="123.1,79.1 123,79.8 120.7,81 119.9,80.6 119.6,79.8 122,78.5 127,75.9 127,70.6 			"/>
			<path class="st4" d="M121.5,71.7c0,0,1.7,0.2,1.4,1.9l-0.7,4.6"/>
			<path class="st4" d="M119.9,72.6c0,0,1.7,0.2,1.4,1.9l-0.7,4.6"/>
			<path class="st4" d="M119.2,73c0,0,1.7,0.2,1.4,1.9l-0.7,4.6"/>
			<path class="st7" d="M116.3,72.6"/>
			<path class="st4" d="M116.3,72.6"/>
			<line class="st4" x1="127.3" y1="71.5" x2="140.8" y2="64.5"/>
		</g>
		<g>
			<path class="st0" d="M116.2,74.3l15.6-3l0.6-2.7c0,0,0.4-1.3-1.5-1.9l-1,0.3l0.5,1l-0.9-0.2l-2.5,0.5l0.1,0.5l1.6-0.2l0.5,0.5
				l-13,3"/>
			<path class="st8" d="M116.5,74.4l15.4-3.2l0.6-2.9c0,0,0-1.3-1.6-1.7l-1,0.3l0.8,1.1l-1.1-0.4l-2.5,0.6l0.1,0.6l1.6-0.2l0.4,0.5
				l-13,3"/>
			<line class="st8" x1="116.1" y1="73" x2="131.7" y2="69.3"/>
		</g>
		<g>
			<polyline class="st5" points="57.6,39.2 57.6,39.8 56.6,40.6 56.5,42 			"/>
			<polygon class="st5" points="57.6,39.2 75.6,25.9 75,25.2 83.1,19.1 139.8,47 132.1,53.8 131.4,53.4 114.6,67.9 			"/>
			<polyline class="st9" points="139.8,47.1 139.7,49 132,55.7 131.3,55.4 113.5,70.8 			"/>
			<line class="st9" x1="131.4" y1="53.4" x2="131.2" y2="55.4"/>
			<line class="st9" x1="132.1" y1="53.8" x2="132" y2="55.7"/>
			<polyline class="st9" points="114.6,67.9 114.6,68.6 113.5,69.5 113.5,70.6 			"/>
		</g>
		<g>
			<polygon class="st10" points="113.5,17 117.1,18.7 115.4,11.3 102.2,12.1 106,13.8 96.4,20.5 103.9,23.9 			"/>
			<polygon class="st10" points="86.6,27.7 83,26 84.7,33.4 97.9,32.6 94.1,30.9 103.7,24.2 96.3,20.8 			"/>
		</g>
		<line class="st4" x1="116.5" y1="81" x2="119.6" y2="79.8"/>
		<ellipse class="st5" cx="98" cy="51" rx="57" ry="46"/>
		<polygon class="st11" points="53.1,34.1 59.6,30.8 46.9,23.8 50.2,22.2 38,22.4 37,28.7 40.4,27 		"/>
		<polygon class="st11" points="128.7,74.8 135.1,71.4 147.9,77.8 151,76 150.2,82.3 138.2,83.1 141.5,81.3 		"/>
	</g>
	<g>
		<circle class="st12" cx="62.1" cy="14.4" r="11.2"/>
		<g>
			<text transform="matrix(1 0 0 1 57.5893 19.5161)" class="st13 st14 st15">3</text>
		</g>
	</g>
	<g>
		<circle class="st12" cx="112.8" cy="51.8" r="11.2"/>
		<g>
			<text transform="matrix(1 0 0 1 107.8107 57.1936)" class="st13 st14 st15">4</text>
		</g>
	</g>
	<g>
		<path class="st16" d="M133.7,42c0-6.5-5.2-11.7-11.7-11.7c-2.2,0-4.2,0.6-6,1.6l-2.5-1.5l0.7,5.5l11,1.5l-4.1-2.5c1.7-1,2.8-2,5-2
			c6.5,0,12.7,5.6,12.7,12"/>
		<path class="st7" d="M133.7,42.4c0-6.5-5.2-11.7-11.7-11.7c-2.2,0-4.2,0.6-6,1.6l-2.5-1.5l0.7,5.5l11,1.5l-4.1-2.5
			c1.7-1,2.8-2,5-2c6.5,0,12.7,5.6,12.7,12"/>
	</g>
</g>
<g id="Layer_2">
	<g>
		<g>
			<g>
				<path class="st5" d="M62.6,140.2c0,0,0-0.6,0-1.6c0-1.1,1.2-1.6,1.2-1.6s7-3.7,7.4-3.8s0.6-0.2,1.1-0.1c0.5,0.1,0.8-0.2,0.9-0.6
					c0.1-0.4,1.2-0.9,1.2-0.9L186,75.6c0,0,0.7-0.5,1.3-0.1c0.6,0.5,2.1,1.4,2.1,1.4s0.3,0.2,0.6-0.1c0.2-0.2,0.6-0.7,0.4-1.2
					l-0.7-0.5c0,0-0.2-0.6,0-1s0.5-0.8,0.9-0.8s3.1-0.2,3.1-0.2s0.7,0.2,0.8,0.6l0,3.3c0,0,0.1,0.5-0.4,0.8
					c-0.5,0.2-44.9,22.4-44.9,22.4"/>
				<path class="st5" d="M161.8,142.4c0,0-0.1-7.2,0-8.8c0.1-1.6,1.6-2.1,1.6-2.1l24.9-12.6l-6.9-3.5l6.1-3.1c0,0-22.9-11.4-23.9-12
					c-1-0.5-2.2,0-2.2,0l-6.1,3l-7.1-3.5l-23.3,11.7c0,0-2.2,0.9-2.2,2.5l0.1,1.1"/>
				<path class="st5" d="M162.9,131.3l-6.6-3.4l-6.8,3.4c0,0-1.1,0.6-1.1,1.8c0,1.1,0,3.1,0,3.1"/>
				<path class="st5" d="M123.9,112.3l6.6,3.3l-5.8,3.1l0,0.5c0,0-0.8,0.7-0.8,1.9c0,1,0.1,6.9,0.1,6.9"/>
				<line class="st5" x1="125.1" y1="118.6" x2="149.8" y2="131"/>
				<polyline class="st5" points="178.1,137.4 189.4,131.7 189.5,130.5 195.7,127.4 				"/>
				<path class="st5" d="M184.7,116.9c0.5-0.4,1.4-0.6,2.4-0.6c1.7,0,3,0.7,3,1.5c0,0.6-0.6,1.1-1.6,1.3"/>
				<path class="st5" d="M189.1,120.8c0.7-0.3,1.1-0.7,1.1-1.2v-1.6"/>
				<path class="st5" d="M189,129.2v-9.1c0,0,0.1-1-0.9-1.1"/>
				<path class="st5" d="M189.5,120.5c0.3,0.2,0.5,0.4,0.5,0.7c0,0.4-0.4,0.8-1.1,1"/>
				<path class="st5" d="M189.5,122.4c0.3,0.2,0.5,0.4,0.5,0.7c0,0.4-0.4,0.8-1.1,1"/>
				<path class="st5" d="M189.5,124.2c0.3,0.2,0.5,0.4,0.5,0.7c0,0.4-0.4,0.8-1.1,1"/>
				<g>
					<ellipse class="st5" cx="154.6" cy="131.9" rx="3" ry="1.5"/>
					<path class="st5" d="M151.6,131.9v1.7c0,0.8,1.4,1.5,3,1.5s3-0.7,3-1.5V132"/>
					<path class="st5" d="M157.2,134.4c0.3,0.3,0.4,0.6,0.4,0.9c-0.1,0.8-1.6,1.3-3.2,1.1c-1.7-0.2-2.9-1.1-2.8-1.9
						c0-0.1,0.1-0.2,0.1-0.4"/>
					<path class="st5" d="M157.6,141.2c0,0.1,0.1,0.2,0.1,0.3c0,0.8-1.4,1.5-3,1.5s-3-0.7-3-1.5c0-0.2,0.1-0.4,0.3-0.6"/>
					<path class="st5" d="M156.9,139.9c0.4,0.3,0.7,0.8,0.6,1.1c-0.1,0.8-1.6,1.3-3.2,1s-2.9-1.2-2.7-2c0.1-0.3,0.3-0.6,0.7-0.8"/>
					<path class="st5" d="M157,138c0.4,0.3,0.6,0.7,0.5,1.1c-0.1,0.8-1.6,1.3-3.2,1c-1.7-0.3-2.9-1.2-2.7-2c0-0.3,0.2-0.5,0.5-0.7"
						/>
					<path class="st5" d="M157,136.2c0.4,0.3,0.6,0.7,0.6,1.1c-0.1,0.8-1.6,1.3-3.2,1s-2.9-1.2-2.7-2c0-0.3,0.2-0.5,0.5-0.7"/>
				</g>
				<g>
					<path class="st5" d="M127.6,153.9c-1.1,0-2-0.4-2-1c0-0.5,0.9-1,2-1c1.1,0,2,0.4,2,1"/>
					<path class="st5" d="M125.6,153v1.1c0,0.5,0.9,1,2,1"/>
					<path class="st5" d="M127.4,155.7c-0.8-0.1-1.5-0.5-1.4-0.9"/>
					<path class="st5" d="M127.6,158.4c-0.8,0-1.5-0.3-1.5-0.7c0-0.1,0.1-0.2,0.1-0.3"/>
					<path class="st5" d="M127.4,157.5c-0.8-0.1-1.4-0.6-1.4-1c0-0.1,0.1-0.2,0.3-0.3"/>
					<path class="st5" d="M127.4,156.6c-0.8-0.1-1.4-0.6-1.4-1c0-0.1,0.1-0.2,0.3-0.3"/>
				</g>
				<g>
					<ellipse class="st5" cx="124.3" cy="116.7" rx="3" ry="1.5"/>
					<path class="st5" d="M121.3,116.7v1.7c0,0.8,1.3,1.5,2.8,1.5"/>
					<ellipse class="st5" cx="156.7" cy="100.4" rx="3" ry="1.5"/>
					<line class="st5" x1="153.7" y1="100.4" x2="153.7" y2="102.1"/>
					<path class="st5" d="M124,121.2c-1.6-0.3-2.8-1.1-2.7-1.9c0-0.1,0.1-0.2,0.1-0.4"/>
					<path class="st5" d="M124,127.8c-1.5-0.1-2.7-0.7-2.7-1.5c0-0.2,0.1-0.4,0.3-0.6"/>
					<path class="st5" d="M124,126.8c-1.7-0.3-2.9-1.2-2.7-2c0.1-0.3,0.3-0.6,0.7-0.8"/>
					<path class="st5" d="M124,124.8c-1.7-0.3-2.9-1.2-2.7-2c0-0.3,0.2-0.5,0.5-0.7"/>
					<path class="st5" d="M124,123.1c-1.7-0.3-2.9-1.2-2.7-2c0-0.3,0.2-0.5,0.5-0.7"/>
				</g>
				<polygon class="st5" points="104.7,137.8 123.3,147.2 127.4,145.2 131.2,147.2 150.6,137.4 131.9,128.2 128,130.1 124.1,128.1 
									"/>
				<line class="st5" x1="104.7" y1="137.8" x2="104.6" y2="146.3"/>
				<line class="st5" x1="150.6" y1="137.4" x2="150.7" y2="143.5"/>
				<line class="st5" x1="123.3" y1="147.2" x2="123.4" y2="157.2"/>
				<line class="st5" x1="131.2" y1="147.2" x2="131.2" y2="152.5"/>
				<line class="st5" x1="127.4" y1="145.2" x2="127.4" y2="151.9"/>
				<polyline class="st5" points="88.1,142.6 92.3,140.5 105.8,147.2 101.4,149.3 				"/>
				<line class="st5" x1="105.8" y1="151.6" x2="105.8" y2="147.2"/>
				<line class="st5" x1="156.4" y1="128" x2="156.4" y2="130.5"/>
				<line class="st5" x1="157.3" y1="140.2" x2="161.8" y2="142.5"/>
				<line class="st5" x1="178.2" y1="96.7" x2="190.5" y2="90.5"/>
				<line class="st5" x1="193.9" y1="78" x2="193.9" y2="87.1"/>
				<polyline class="st5" points="222.6,91.2 203.7,81.8 197.9,84.7 197.5,85.4 190.5,89 190.5,95.5 196.1,98.3 196.9,98 				"/>
				<polyline class="st5" points="196.1,98 196.1,91.8 203.2,88.1 204.5,87.9 210.1,85.1 				"/>
				<polyline class="st5" points="204.5,87.9 204.1,88.6 197,92.2 196.9,98.8 202.7,101.6 203.4,101.2 				"/>
				<polyline class="st5" points="216.8,88.3 210.9,91.4 209.9,91.4 202.7,95 202.6,101.5 				"/>
				<line class="st5" x1="197.1" y1="92.2" x2="202.7" y2="95"/>
				<line class="st5" x1="190.6" y1="88.9" x2="196" y2="91.7"/>
				<polyline class="st5" points="210.9,91.4 210.6,91.9 203.7,95.5 203.6,102 209.1,104.7 				"/>
				<line class="st5" x1="203.7" y1="95.5" x2="209" y2="98.2"/>
				<polyline class="st5" points="209.2,106.8 209.3,98.3 223.8,91 228.8,93.4 214.3,100.8 214.3,109 				"/>
				<line class="st5" x1="209.3" y1="98.3" x2="214.3" y2="100.8"/>
				<path class="st5" d="M228.8,93.4c0,0,0.8,0.3-0.8,3.6"/>
				<polyline class="st5" points="236.4,98.1 231.3,95.6 225.4,98.4 225.2,99.1 218,102.7 217.9,107.2 				"/>
				<polyline class="st5" points="244,104.3 243.9,100.2 238.2,97.5 224.1,104.5 224,109.5 				"/>
				<polyline class="st5" points="229.5,112.5 229.6,107.3 243.9,100.2 				"/>
				<line class="st5" x1="218.2" y1="102.8" x2="224" y2="105.6"/>
				<line class="st5" x1="224.1" y1="104.5" x2="229.6" y2="107.3"/>
				<line class="st5" x1="208.6" y1="106.6" x2="214" y2="109.3"/>
				<polygon class="st5" points="200.5,116.2 218.6,107.1 236.6,116.1 218.5,125.3 				"/>
				<polyline class="st5" points="200.5,116.2 200.5,127.9 209.8,132.7 				"/>
				<line class="st5" x1="218.5" y1="125.3" x2="218.6" y2="128.5"/>
				<line class="st5" x1="236.7" y1="116.1" x2="236.8" y2="120.8"/>
				<polyline class="st5" points="212.4,110.2 186.8,97.2 181.8,99.8 				"/>
				<polyline class="st5" points="207.1,112.5 179.2,98.7 169.8,103.4 				"/>
				<polyline class="st5" points="265.9,116.9 265.9,112.9 246.3,103.1 240.5,106 240.2,106.7 233,110.2 233,114 				"/>
				<polyline class="st5" points="236.9,118.8 238.5,119.5 238.6,112.9 233,110.2 				"/>
				<polyline class="st5" points="252.8,106.4 247.2,109.2 245.9,109.3 238.6,112.9 				"/>
				<polyline class="st5" points="247,109.2 246.7,109.8 239.6,113.5 239.6,119.5 				"/>
				<polyline class="st5" points="259.3,109.6 253.6,112.5 252.3,112.6 245.2,116.3 239.6,113.5 				"/>
				<line class="st5" x1="245.2" y1="118.3" x2="245.2" y2="116.3"/>
				<polyline class="st5" points="246,119 246,116.7 252.8,113.4 253.6,112.5 				"/>
				<polyline class="st5" points="246,116.7 251.8,119.5 258.9,115.9 260.2,115.7 265.6,112.9 				"/>
				<polyline class="st5" points="280.2,124.7 280.2,123.5 268.1,117 262.3,117 257.2,119.5 254.6,118.1 				"/>
				<path class="st5" d="M280.2,123.5l-21.2,11l-0.8-0.5l-10.8,5.4l-1.2-0.7c0,0-0.5-0.3-1.4,0.2c-1,0.6-10.8,5.4-10.8,5.4
					s-1.1,0.4-0.2,0.8c0.9,0.4,0.8,0.5,0.8,0.5s0.4,0.1,0.3,1.1l0,0.8"/>
				<path class="st5" d="M251.8,119.5l-15,7.7c0,0-0.6,0.5-1,1.4c-0.4,0.9-2,3.7-2,3.7s-0.1,0.3-1.2,0.9c-1,0.6-32.8,16.5-32.8,16.5
					l0.1,1.2c0,0,3.5,1.7,4.8,2.6c1.3,0.9,2.7-0.2,2.7-0.2l66.3-33.4"/>
				<line class="st5" x1="21.4" y1="162.1" x2="53.5" y2="146"/>
				<line class="st5" x1="30.1" y1="174.6" x2="54.4" y2="162.6"/>
				<polygon class="st5" points="107.8,160.3 115.4,156.6 71.9,134.8 64.3,138.5 				"/>
				<path class="st5" d="M64,140.3c0,0,0.4-0.8,1.3-0.3c0.9,0.5,41.5,20.8,41.5,20.8s1,0.5,1,2.1s0,14.5,0,14.5s-0.1,1.6-1.2,1.1
					s-41.5-20.7-41.5-20.7"/>
				<line class="st5" x1="140.8" y1="196.9" x2="64.5" y2="158.8"/>
				<line class="st5" x1="111.8" y1="211.4" x2="149.1" y2="192.9"/>
				<line class="st5" x1="149.7" y1="194" x2="112" y2="212.9"/>
				<line class="st5" x1="149.6" y1="209.1" x2="112" y2="228.2"/>
				<polyline class="st5" points="147.9,210.1 149.8,210.8 159.1,206.1 159.9,206.4 168.6,202 169.7,200.1 171.9,199 174.3,199.2 
					291.4,140.7 291.4,134.5 289.1,131.2 289.1,126.6 				"/>
				<path class="st5" d="M169.5,200.3v-4.9c0,0,0.4-2.9,2.4-3.6c0,0,1.7-0.5,1.8,1.1v6"/>
				<path class="st5" d="M149.8,210.6v-17.1c0,0-0.5-1.1-2.1-1.3v1.2"/>
				<path class="st5" d="M149.8,193.5l9.6-4.8c0,0-0.5-1.1-2.1-1.3l-9.6,4.8"/>
				<path class="st5" d="M160.4,206.1l-0.1-17.4l7.7-3.9c0,0,1.3-0.9,2.2-0.2c1,0.8,1.6,1.4,3,0.8c1.4-0.7,1.4-0.7,1.4-0.7"/>
				<path class="st5" d="M174,183.7c0.8,0.4,0.8,1.7,0.8,1.7v2.4c0,0,0.1,2.3,2.6,1.3c2.3-1,2.5-3.8,2.5-3.8s0-2.1,0-3
					c0-0.8-0.6-1.3-0.6-1.3c0-1.1-0.9-0.7-0.9-0.7l-3.6,1.9c0,0-0.6,0.3-0.7,1.4"/>
				<line class="st5" x1="160.4" y1="204.7" x2="160.3" y2="185.8"/>
				<path class="st5" d="M174.2,182.3"/>
				<path class="st5" d="M159.4,188.6V186l8.6-4.1l0.6-1.1l67.4-33.6c0,0,0.7-0.1,0.8,0.5c0.1,0.6,0.3,4.5,0.3,4.5s0.9,0.6,0.8,1.5
					l11.6-5.7c0,0,0.6-0.7-0.1-1.6l0.1-4.9c0,0,0.2-1.1,1-1.5l32.8-16.3l2.7,1.8c0,0,1.2-0.1,0.9-1.4l-0.7-0.6c0,0-0.4-1.2,1-1.8
					l2.8-0.1c0,0,0.7,0,0.8,0.6l0,3.5l-41.2,20.7"/>
				<line class="st5" x1="180.1" y1="182.1" x2="237.6" y2="153.3"/>
				<line class="st5" x1="105.8" y1="148.6" x2="127.5" y2="159.4"/>
				<path class="st5" d="M127.5,160.5"/>
				<path class="st5" d="M106,149.9"/>
				<line class="st5" x1="123.8" y1="157.4" x2="126" y2="156.3"/>
				<line class="st5" x1="133.4" y1="162.9" x2="139" y2="160.1"/>
				<line class="st5" x1="127" y1="166.2" x2="128.6" y2="165.4"/>
				<path class="st5" d="M147.1,188.1"/>
				<polyline class="st5" points="157.3,187.3 157.3,184.9 159.8,183.6 161.8,184.6 				"/>
				<line class="st5" x1="159.4" y1="186" x2="157.3" y2="184.9"/>
				<line class="st5" x1="86.5" y1="142.1" x2="116.4" y2="127.4"/>
				<polyline class="st5" points="187.4,112.3 188.1,112.7 188.1,116.1 				"/>
				<polyline class="st5" points="190,123.1 195.7,125.8 175.4,136.1 				"/>
				<path class="st5" d="M195.9,127.8"/>
				<polygon class="st5" points="199,126.3 195.9,127.9 195.9,122.7 199,121.1 				"/>
				<line class="st5" x1="195.9" y1="122.7" x2="190.4" y2="120"/>
				<polyline class="st5" points="188.2,114.8 197.7,119.6 200.4,118.3 				"/>
				<polyline class="st5" points="188.2,116.1 197.7,120.8 200.4,119.5 				"/>
				<path class="st5" d="M52.8,145.8V145l10.3-4.9l1.4,0.6c0,0,0.5,0.3,0.5,1c0,0.6,0,2,0,2l-9.2,4.6l-0.9-0.1v-2c0,0-0.1-1-2.2-1.3
					"/>
				<path class="st5" d="M53.6,163.1l1.3,0.6l10-5.1l-0.1-2l-0.9-0.3l-8.3,4.1c0,0-1,0.5-0.9,1.3l0,1.7"/>
				<path class="st5" d="M10.3,162.8l5.5-2.7c0,0,9.3,1.1,13.7,13.5c0,0,3.8,10.4-2.9,16l-6.2,3c0,0-2,0.3-4.5-0.9l-5.4-2.5
					c0,0-0.8-0.9-0.8-1.9s0.1-3,0.1-3"/>
				<path class="st5" d="M9.8,168.6l-0.1-4.9c0,0,0.3-1.1,2.4-0.9c0,0,9.4,3.5,12.1,13.1c0,0,4.9,10.7-2.2,15.9"/>
				<path class="st5" d="M11.5,174.2v-5.5c0,0,0.5-3.5,3.4-2.8c0,0,7.1,2.5,9.4,15.2c0,0,1.5,8.2-4.8,10.1c0,0-1.7,0.6-3.8-0.2
					s-5.8-3-5.8-3l5.4-2.7"/>
				<line class="st5" x1="16.7" y1="166.9" x2="16.7" y2="171.7"/>
				<path class="st5" d="M10.4,175l8.2-4.1c0,0,1.2,0.3,1.1,1.6l-1.1,3.8l-5,2.7l-1.7-3.1C11.9,176,11.4,174.8,10.4,175z"/>
				<path class="st5" d="M10.4,175c0,0-1.7,5.1,0.7,9.9l1.3-0.6c0,0,0-3.3,3-4.2c0,0,1.8-0.6,1.7,1.8l1.3-0.5c0,0,1-3.4,1-7"/>
				<path class="st5" d="M11.5,169.5c0,0,0.5,0.3-2.1-0.8c0,0-4.5-0.2-5.9,6.3v8c0,0,0,3,2.9,3.2c0,0,2.5,0.1,4-2.7"/>
				<path class="st5" d="M15.4,180.2l0.2,5.3c0,0,0.4,0.6,0.9,0.8s3.8,1.8,3.8,1.8s1.8,0.6,2.6,0.5"/>
				<path class="st5" d="M11.6,172c0,0-1.1,0.2-2.4-0.8c0,0-2.8,0.6-3.3,3.8l0,7.6c0,0,0.2,1.6,1.5,1.1c1.3-0.5,1.5-1.1,1.5-1.1
					l1-1.3"/>
				<path class="st5" d="M23.8,164.3l11-5.5c0,0,1.4-0.5,1.5,1c0.1,1.5,0,7.1,0,7.1s0.1,1.1-1.2,2.1l-5.9,2.9"/>
				<path class="st5" d="M46.6,153.9l-0.9,0.4c0-1.2-1-1-1-1l-6.5,3.2c-1.1,0.8-0.9,2-0.9,2l0,8.8c0,0,0.3,1.1,1.3,0.6
					c1-0.5,6.2-3,6.2-3s1.1-0.7,0.9-2l16.5-8.2v-0.8c0,0,2.9-1,3.2-2.2l0.3-1l0-1.7c0,0-0.2-1.8-1.4-3.3v-1.6"/>
				<path class="st5" d="M60.2,155.7v-0.8c0,0,2.9-1,3.2-2.2l0.3-1l0-1.7c0,0-0.2-1.8-1.4-3.3v-1.6"/>
				<polyline class="st5" points="46.7,162.5 46.7,152.9 56.1,148.3 				"/>
				<line class="st5" x1="53.2" y1="159.1" x2="53.2" y2="149.8"/>
				<polyline class="st5" points="114.9,161 119.7,158.6 119.7,162.8 				"/>
				<polyline class="st5" points="114.3,155.9 114.7,155.7 119.7,158.3 				"/>
				<polyline class="st5" points="119.8,159.2 127.6,163.2 128.7,162.6 				"/>
				<path class="st5" d="M133.4,161.7c0,0.7-1,1.2-2.3,1.2s-2.3-0.5-2.3-1.2"/>
				<path class="st5" d="M131.1,168.7c1.3,0,2.3-0.5,2.3-1.2v-5.8"/>
				<line class="st5" x1="128.8" y1="161.7" x2="128.8" y2="167.5"/>
				<path class="st5" d="M122.1,128.9"/>
				<line class="st5" x1="121.1" y1="123.5" x2="116.3" y2="125.9"/>
				<polyline class="st5" points="116.3,125.9 116.3,127.5 120.8,129.8 				"/>
				<path class="st5" d="M60.6,146.5c0,0,3,2.7,0.1,8.2"/>
				<line class="st5" x1="64" y1="156.2" x2="64" y2="153.1"/>
				<g>
					<polygon class="st5" points="82.4,158 69.1,151.5 69.1,156.8 82.5,163.5 					"/>
					<polyline class="st5" points="82.5,163.5 83.8,162.9 83.7,157.4 70.4,150.8 69.1,151.5 					"/>
					<line class="st5" x1="69.1" y1="156.8" x2="74.3" y2="154.1"/>
					<polyline class="st5" points="75.7,154.9 75.7,160 80.9,157.4 					"/>
					<line class="st5" x1="82.4" y1="158" x2="83.7" y2="157.4"/>
				</g>
				<g>
					<polygon class="st5" points="94.7,163.5 84.9,158.5 84.9,164.9 94.8,170 					"/>
					<polyline class="st5" points="94.8,170 96.5,168.9 96.4,162.4 86.5,157.5 84.9,158.5 					"/>
					<line class="st5" x1="84.9" y1="164.6" x2="89.5" y2="162.6"/>
					<polyline class="st5" points="89.7,161.1 89.7,167.3 94.3,165.2 					"/>
					<line class="st5" x1="94.7" y1="163.5" x2="96" y2="162.8"/>
				</g>
				<g>
					<polygon class="st5" points="102.6,167.4 97.5,164.9 97.5,171.2 102.7,173.9 					"/>
					<polyline class="st5" points="102.7,173.9 104.3,172.9 104.2,166.4 99.1,163.8 97.5,164.9 					"/>
					<path class="st5" d="M97.3,166.6"/>
					<line class="st5" x1="97.5" y1="171.2" x2="102.2" y2="169.2"/>
					<line class="st5" x1="102.6" y1="167.4" x2="103.9" y2="166.8"/>
				</g>
				<path class="st5" d="M115.8,213.6l14.2-7c0,0,1.3-0.4,1.3,0.8c0,1.3,0.1,7,0.1,7s-0.4,1.6-1.3,2.2c-0.9,0.6-14.4,7.2-14.4,7.2
					s-1.2,0-1.2-1.3s0.1-6.7,0.1-6.7S114.7,214,115.8,213.6z"/>
				<path class="st5" d="M141.5,200.9l6.3-3.1c0,0,0.8-0.7,0.8,0.2c0.1,0.8,0,8.3,0,8.3s0.1,0.5-0.6,0.9c-0.7,0.4-6.5,3.3-6.5,3.3
					s-0.7,0-0.7-0.8c0-0.8,0.1-7.9,0.1-7.9S141.1,201,141.5,200.9z"/>
				
					<ellipse transform="matrix(0.498 -0.8672 0.8672 0.498 -110.5283 220.3841)" class="st5" cx="135.1" cy="205.7" rx="2" ry="1.4"/>
				
					<ellipse transform="matrix(0.498 -0.8672 0.8672 0.498 -83.7425 237.1287)" class="st5" cx="162.9" cy="190.9" rx="2" ry="1.4"/>
				
					<ellipse transform="matrix(0.498 -0.8672 0.8672 0.498 -85.0995 241.7587)" class="st5" cx="166.3" cy="194.4" rx="2" ry="1.4"/>
				
					<ellipse transform="matrix(0.498 -0.8672 0.8672 0.498 -92.6554 242.6114)" class="st5" cx="163.2" cy="201.3" rx="2" ry="1.4"/>
				
					<ellipse transform="matrix(0.498 -0.8672 0.8672 0.498 -79.9343 251.5875)" class="st5" cx="177.3" cy="194.8" rx="2" ry="1.4"/>
				
					<ellipse transform="matrix(0.498 -0.8672 0.8672 0.498 -94.7922 234.8646)" class="st5" cx="155.5" cy="199.3" rx="1.3" ry="0.9"/>
				
					<ellipse transform="matrix(0.498 -0.8672 0.8672 0.498 -116.2541 223.6987)" class="st5" cx="135.1" cy="212.3" rx="2" ry="1.4"/>
				<line class="st5" x1="106.8" y1="211.6" x2="111.6" y2="209.3"/>
				<path class="st5" d="M102.5,204.4c1.7-0.3,3,0.1,3,0.1s3.1,1.2,4.6,2.1c1.7,1,1.7,2.3,1.7,2.3v23.3c0,0,0.3,0.9-0.7,1.4
					c-1.2,0.6-4.7,2.4-4.7,2.4s-1.3,0.4-3.3-0.5s-9.4-4.8-12.1-17.3c0,0-1.7-10,5.9-12.4c0,0,4.9-0.5,5-2.1c0,0-0.5-0.9-5.3,2"/>
				<path class="st5" d="M106.6,235.7v-22.9c0,0,0.2-2.3-1-3.1l-5.7-2.6c0,0-1.7-0.6-4.4,0.4"/>
				<path class="st5" d="M97.9,230.3c0,0-4.4-3.8-5.8-12.6c0,0-0.9-8.7,5-9.9c0,0,2.1-0.9,8.4,3v24.3c0,0-1.6,0.2-4-1.6"/>
				<path class="st5" d="M105.3,216.5l-1.3-0.6c0,0-3.5-0.4-5.5,4.7c0,0-0.5,2.5-0.5,3.9c-0.1,1.5,0.1,6.6,0.1,6.6s1.3,3.7,4.7,2.1
					c0,0,2.5-1.7,2.7-3.1"/>
				<path class="st5" d="M98.6,207.9c0,0-2.9,5.3-0.1,12.6"/>
				<path class="st5" d="M105.4,217.7l-1.2-0.7c0,0-3.4,0.3-4.7,5.4v8.2c0,0-0.3,3.6,4.1,1.8"/>
				
					<ellipse transform="matrix(0.4022 -0.9156 0.9156 0.4022 -120.7259 131.95)" class="st5" cx="40.7" cy="158.4" rx="1.6" ry="1.2"/>
				
					<ellipse transform="matrix(0.4022 -0.9156 0.9156 0.4022 -126.1279 135.4774)" class="st5" cx="40.7" cy="164.3" rx="1.6" ry="1.2"/>
				<ellipse class="st5" cx="78.3" cy="141.3" rx="2.1" ry="1"/>
				<ellipse class="st5" cx="102.1" cy="153.2" rx="2.1" ry="1"/>
				<path class="st5" d="M80.7,154v-2.3c0.1-0.9-0.8-1.5-0.8-1.5l-8.7-4.4c-1-0.4-0.9,0.7-0.9,0.7v2.4c0,0-0.1,0.7,0.7,1.1l9,4.6
					C80,154.5,80.6,154.9,80.7,154z"/>
				<path class="st5" d="M70.5,145.7l0.9-0.5c0,0,0.4-0.2,0.8,0l8.6,4.3c0,0,0.9,0.6,0.8,1.5v2.3c0,0.6-0.2,0.7-0.2,0.7l-1.2,0.6"/>
				<path class="st5" d="M84.7,154.5"/>
				<path class="st5" d="M234.7,145.7l-10.6,5.4c0,0,1.4,0.2,1.2,1.3"/>
				<polyline class="st5" points="224.8,151.6 220.9,153.6 220.1,153.1 205.9,160.4 205.9,162.1 				"/>
				<path class="st5" d="M205.9,160.4l-14.1-6.8l1.5-2.2l3.7-1.8c0,0,0.4-0.3,1,0s1.9,0.9,1.9,0.9"/>
				<line class="st5" x1="122.9" y1="113" x2="76.1" y2="136.5"/>
				<path class="st17" d="M282.2,130c0,0,1.2,0.9-0.1,2l-0.6,0.3l-12.9,6.4c0,0-0.5,0.4-0.5,1s0.1,3.7,0.1,3.7s-0.1,0.7,0.7,0.4
					s13.1-6.5,13.1-6.5s0.9-0.3,0.9,0.6c0,0.9,0,1.6,0,1.6s0.5,0.7,1-0.3c0,0,0.9-0.9-0.8-2.3c-1.7-1.4-1.3-1.4-1.3-1.4l0.1-3.2"/>
				<line class="st17" x1="284.2" y1="138.4" x2="291.3" y2="134.7"/>
				<path class="st17" d="M280.4,132.9l0,1.3c0,0,0.2,0.4-0.5,0.8c-0.2,0.1-0.5,0.2-0.7,0.3c-0.4,0.2-0.7,0.3-0.7,0.3l0,1.5l1.6-0.8
					"/>
				<path class="st17" d="M279.2,135.4l0.7,0.4c0,0,0.6,0.3,0.4,1.2l0,1.1"/>
				<path class="st5" d="M235.6,147.3c0,0,0-1.2,1-1.7s8.9-4.3,8.9-4.3s0.4-0.5,1.5,0.2"/>
				<path class="st5" d="M236.7,147.4c0,0,0-0.9,1.3-1.6s8-3.9,8-3.9s0.9-0.4,1.5-0.1"/>
				<path class="st5" d="M237.1,151.8l10.2-5.1c0,0,0.8-0.3,0.1-1.1l0-6.1"/>
				<line class="st5" x1="192.2" y1="153.8" x2="192.2" y2="158.9"/>
				<path class="st5" d="M192,157.7c0,0-0.9,1,0.6,1.6c0.4,0.1,0.9,0.4,1.5,0.7c0.8,0.4,1.7,0.8,2.5,1.2"/>
				<line class="st5" x1="139.2" y1="160.3" x2="139.1" y2="163.3"/>
				<polyline class="st5" points="139.1,162.9 138.4,163.3 140.8,164.5 				"/>
				<path class="st5" d="M115.4,156.6c0,0,0.9,0.5,0.9,1c0,0.8,0,0.9,0,0.9s0.1,0.8-0.9,1.4c-0.2,0.1-0.6,0.3-1,0.5"/>
				<path class="st5" d="M108.4,160.1c0,0,0.6,0.2,0.6,0.7"/>
				<polyline class="st5" points="119.7,159.6 118.3,160.3 118.3,162.1 				"/>
				<path class="st5" d="M143.8,152.5v-4c0,0-0.1-1.7,1.3-1.6c0,0,0.9,0.4,0.9,2.5"/>
				<path class="st5" d="M148.3,145.5c0,0,1,0.1,1,2.2"/>
				<path class="st5" d="M152.6,146.2c0-2-1-2.2-1-2.2v5.6"/>
				<line class="st5" x1="144.7" y1="146.9" x2="153.2" y2="142.9"/>
				<line class="st5" x1="148.3" y1="145.5" x2="148.3" y2="148.4"/>
				<path class="st5" d="M155.5,143.1c0.2,0.3,0.3,0.8,0.3,1.6"/>
				<line class="st5" x1="154.9" y1="145.2" x2="154.9" y2="143.2"/>
				<path class="st5" d="M192.2,155.5c-1.1-0.1-1.9-0.5-1.9-1v-1.3"/>
				<g>
					<polyline class="st5" points="203.4,137.5 203.4,136.2 201.3,137.2 201.3,143.5 200.3,143 200.3,144 					"/>
					<polyline class="st5" points="201.8,143.9 202.9,144.3 202.9,138 205,137 205,138.4 					"/>
					<polyline class="st5" points="203.4,144.7 204.4,145.2 204.4,138.9 206.5,137.9 206.5,139.2 					"/>
					<polyline class="st5" points="204.9,145.6 205.9,146 205.9,139.7 208,138.7 208,140.1 					"/>
					<polyline class="st5" points="207.5,145.7 207.5,140.6 209.6,139.6 209.6,141 					"/>
					<polyline class="st5" points="209,145.1 209,141.4 211.1,140.4 211.1,143.9 					"/>
				</g>
				<g>
					<polyline class="st5" points="204.2,137.4 204.2,135.7 206.3,134.7 206.3,136.1 					"/>
					<polyline class="st5" points="205.8,138.2 205.8,136.6 207.9,135.5 207.9,136.9 					"/>
					<polyline class="st5" points="207.3,139.1 207.3,137.4 209.4,136.4 209.4,137.7 					"/>
					<polyline class="st5" points="208.8,139.9 208.8,138.2 210.9,137.2 210.9,138.6 					"/>
					<polyline class="st5" points="210.4,140.8 210.4,139.1 212.5,138.1 212.5,139.5 					"/>
					<polyline class="st5" points="211.9,143.6 211.9,139.9 214,138.9 214,142.4 					"/>
				</g>
				<g>
					<polyline class="st5" points="207.1,135.9 207.1,134.2 209.2,133.2 209.2,134.6 					"/>
					<polyline class="st5" points="208.7,136.7 208.7,135.1 210.8,134 210.8,135.4 					"/>
					<polyline class="st5" points="210.2,137.6 210.2,135.9 212.3,134.9 212.3,136.3 					"/>
					<polyline class="st5" points="211.7,138.4 211.7,136.8 213.8,135.7 213.9,137.1 					"/>
					<polyline class="st5" points="213.3,139.3 213.3,137.6 215.4,136.6 215.4,138 					"/>
					<polyline class="st5" points="214.8,142.1 214.8,138.4 216.9,137.4 216.9,140.9 					"/>
				</g>
				<g>
					<polyline class="st5" points="210,134.4 210,132.7 212.1,131.7 212.1,133.1 					"/>
					<polyline class="st5" points="211.5,135.2 211.5,133.6 213.6,132.6 213.6,133.9 					"/>
					<polyline class="st5" points="213.1,136.1 213.1,134.4 215.2,133.4 215.2,134.8 					"/>
					<polyline class="st5" points="214.6,136.9 214.6,135.3 216.7,134.2 216.7,135.7 					"/>
					<polyline class="st5" points="216.1,137.8 216.1,136.1 218.2,135.1 218.3,136.5 					"/>
					<polyline class="st5" points="217.7,140.6 217.7,137 219.8,135.9 219.8,139.4 					"/>
				</g>
				<g>
					<polyline class="st5" points="212.7,133 212.7,131.4 214.8,130.4 214.8,131.7 					"/>
					<polyline class="st5" points="214.2,133.9 214.2,132.2 216.3,131.2 216.3,132.6 					"/>
					<polyline class="st5" points="215.8,134.7 215.8,133.1 217.9,132.1 217.9,133.4 					"/>
					<polyline class="st5" points="217.3,135.6 217.3,133.9 219.4,132.9 219.4,134.3 					"/>
					<polyline class="st5" points="218.9,136.4 218.9,134.8 221,133.7 221,135.2 					"/>
					<polyline class="st5" points="220.4,139.3 220.4,135.6 222.5,134.6 222.5,138 					"/>
				</g>
				<g>
					<polyline class="st5" points="215.5,131.6 215.5,130 217.6,129 217.6,130.3 					"/>
					<polyline class="st5" points="217,132.5 217,130.8 219.1,129.8 219.1,131.2 					"/>
					<polyline class="st5" points="218.6,133.4 218.6,131.7 220.7,130.7 220.7,132 					"/>
					<polyline class="st5" points="220.1,134.2 220.1,132.5 222.2,131.5 222.2,132.9 					"/>
					<polyline class="st5" points="221.6,135.1 221.6,133.4 223.7,132.4 223.7,133.8 					"/>
					<polyline class="st5" points="223.2,137.9 223.2,134.2 225.3,133.2 225.3,136.6 					"/>
				</g>
				<g>
					<polyline class="st5" points="218.3,130.3 218.3,128.6 220.4,127.6 220.4,128.9 					"/>
					<polyline class="st5" points="219.8,131.1 219.8,129.4 221.9,128.4 221.9,129.8 					"/>
					<polyline class="st5" points="221.3,132 221.3,130.3 223.4,129.3 223.5,130.6 					"/>
					<polyline class="st5" points="222.9,132.8 222.9,131.1 225,130.1 225,131.5 					"/>
					<polyline class="st5" points="224.4,133.7 224.4,132 226.5,131 226.5,132.4 					"/>
					<polyline class="st5" points="226,136.5 226,132.8 228.1,131.8 228.1,135.3 					"/>
				</g>
				<g>
					<polyline class="st5" points="221,128.9 221,127.2 223.1,126.2 223.2,127.6 					"/>
					<polyline class="st5" points="222.6,129.7 222.6,128.1 224.7,127 224.7,128.4 					"/>
					<polyline class="st5" points="224.1,130.6 224.1,128.9 226.2,127.9 226.2,129.2 					"/>
					<polyline class="st5" points="225.7,131.4 225.7,129.7 227.8,128.7 227.8,130.1 					"/>
					<polyline class="st5" points="227.2,132.3 227.2,130.6 229.3,129.6 229.3,131 					"/>
					<polyline class="st5" points="228.7,135.1 228.7,131.4 230.8,130.4 230.9,133.9 					"/>
				</g>
				<g>
					<polyline class="st5" points="223.8,127.5 223.8,125.8 225.9,124.8 225.9,126.2 					"/>
					<polyline class="st5" points="225.4,128.3 225.4,126.7 227.5,125.6 227.5,127 					"/>
					<polyline class="st5" points="226.9,129.2 226.9,127.5 229,126.5 229,127.9 					"/>
					<polyline class="st5" points="228.4,130 228.4,128.4 230.5,127.3 230.6,128.7 					"/>
					<polyline class="st5" points="230,130.9 230,129.2 232.1,128.2 232.1,129.6 					"/>
					<polyline class="st5" points="231.5,133.7 231.5,130 233.6,129 233.6,132.5 					"/>
				</g>
				<g>
					<polyline class="st5" points="240.6,119 240.6,117.3 242.7,116.3 242.8,117.7 					"/>
					<polyline class="st5" points="242.2,119.9 242.2,118.2 244.3,117.2 244.3,118.5 					"/>
					<polyline class="st5" points="243.7,120.7 243.7,119 245.8,118 245.8,119.4 					"/>
					<polyline class="st5" points="245.3,121.6 245.3,119.9 247.4,118.9 247.4,120.3 					"/>
					<polyline class="st5" points="246.8,121.8 246.8,120.7 248.9,119.7 248.9,120.8 					"/>
				</g>
				<g>
					<polyline class="st5" points="230.9,125.4 230.9,124 233,122.9 233,124.3 					"/>
					<polyline class="st5" points="232.4,126.3 232.4,124.8 234.5,123.8 234.5,125.2 					"/>
					<polyline class="st5" points="234,127.1 234,125.7 236.1,124.6 236.1,126.1 					"/>
					<polyline class="st5" points="235.5,128 235.5,126.5 237.6,125.5 237.6,126.7 					"/>
				</g>
				<g>
					<polyline class="st5" points="233.7,124 233.7,122.5 235.8,121.5 235.8,122.9 					"/>
					<polyline class="st5" points="235.3,124.9 235.3,123.4 237.4,122.4 237.4,123.8 					"/>
					<polyline class="st5" points="236.8,125.7 236.8,124.2 238.9,123.2 238.9,124.6 					"/>
					<polyline class="st5" points="238.4,126.3 238.4,125.1 240.5,124 240.5,125.2 					"/>
				</g>
				<g>
					<polyline class="st5" points="236.6,122.5 236.6,121.1 238.7,120.1 238.7,121.4 					"/>
					<polyline class="st5" points="238.1,123.5 238.1,121.9 240.2,120.9 240.2,122.3 					"/>
					<polyline class="st5" points="239.7,124.3 239.7,122.8 241.8,121.8 241.8,123.2 					"/>
					<polyline class="st5" points="241.2,124.9 241.2,123.6 243.3,122.6 243.3,123.8 					"/>
				</g>
				<g>
					<polyline class="st5" points="239.4,121.1 239.4,119.6 241.5,118.6 241.5,120 					"/>
					<polyline class="st5" points="241,122 241,120.5 243.1,119.5 243.1,120.9 					"/>
					<polyline class="st5" points="242.5,122.8 242.5,121.3 244.6,120.3 244.6,121.8 					"/>
					<polyline class="st5" points="244,123.4 244,122.2 246.1,121.2 246.1,122.3 					"/>
				</g>
				<g>
					<polyline class="st5" points="226.6,126.1 226.6,124.4 228.7,123.4 228.7,124.8 					"/>
					<polyline class="st5" points="228.1,126.9 228.1,125.3 230.2,124.3 230.3,125.6 					"/>
					<polyline class="st5" points="229.7,127.8 229.7,126.1 231.8,125.1 231.8,126.5 					"/>
					<polyline class="st5" points="231.2,128.6 231.2,127 233.3,125.9 233.3,127.4 					"/>
					<polyline class="st5" points="232.8,129.5 232.8,127.8 234.9,126.8 234.9,128.2 					"/>
					<polyline class="st5" points="234.3,131.1 234.3,128.7 236.4,127.6 					"/>
				</g>
				<polyline class="st5" points="197.7,147 198.1,146.8 198.6,147.1 201.9,145.4 				"/>
				<line class="st5" x1="199.8" y1="149.6" x2="198.2" y2="148.8"/>
				<line class="st5" x1="202.3" y1="148.4" x2="199.3" y2="146.8"/>
				<polyline class="st5" points="200.3,146.2 200.3,144 205.8,146.7 				"/>
				
					<ellipse transform="matrix(0.2857 -0.9583 0.9583 0.2857 12.8621 337.9361)" class="st5" cx="233.1" cy="160.3" rx="1.9" ry="1.4"/>
				
					<ellipse transform="matrix(0.2857 -0.9583 0.9583 0.2857 38.9161 350.8104)" class="st5" cx="254.8" cy="149.3" rx="1.9" ry="1.4"/>
				<path class="st5" d="M272.3,119.2c0.2-0.8,0.8-1.5,1.7-1.7c1.2-0.2,2.3,0.5,2.6,1.6c0.2,0.8-0.1,1.5-0.7,2"/>
				<path class="st5" d="M270.7,118.2c0.2-0.8,0.8-1.5,1.7-1.7c0.8-0.2,1.7,0.1,2.1,0.7"/>
				<path class="st5" d="M269,117.3c0.2-0.8,0.8-1.5,1.7-1.7c0.8-0.2,1.7,0.1,2.1,0.7"/>
				<path class="st5" d="M267.2,116.3c0.2-0.8,0.8-1.5,1.7-1.7c0.8-0.2,1.7,0.1,2.1,0.7"/>
				<line class="st5" x1="258.9" y1="115.9" x2="258.9" y2="118.6"/>
				<line class="st5" x1="260.2" y1="115.7" x2="260.2" y2="117.9"/>
				<path class="st5" d="M170.4,102.6c-2.2-0.8-3-4.2-1.7-7.5c1.2-3.3,4-5.3,6.2-4.5c2.2,0.8,3,4.2,1.7,7.5c-0.2,0.5-0.4,1-0.7,1.4"
					/>
				<path class="st5" d="M168.2,93.3c1.3-2.3,3.5-3.7,5.3-3.2l1.4,0.6"/>
				<path class="st5" d="M169.3,102.1"/>
				<path class="st5" d="M173.4,89.9l0.9-0.5c0,0,3.4,0.7,3.7,4.8v4.7"/>
				<path class="st5" d="M164.5,100.8c0,0-0.3-6.4,1.9-7.4l1.3,0.6c0,0,0.4,0.7,0,1.7c-0.4,1-0.5,5.6-0.4,6.4"/>
				<path class="st5" d="M166.5,93.4l0.6-0.3l1.3,0.6c0,0,0.3,0.5,0.2,1.2c-0.1,0.7-1.5,6,0.7,7.3"/>
				<polyline class="st5" points="175.8,100.4 175.7,99.1 175.1,98.9 170.4,101.2 171.1,101.4 171.1,102.4 				"/>
				<g>
					<line class="st5" x1="172.9" y1="94.5" x2="173" y2="97.2"/>
					<line class="st5" x1="171.7" y1="96.4" x2="174.2" y2="95.4"/>
				</g>
				
					<ellipse transform="matrix(0.9011 -0.4336 0.4336 0.9011 -24.3775 102.169)" class="st5" cx="211.8" cy="104.5" rx="1.4" ry="1.9"/>
				<text transform="matrix(0.7325 -0.3565 6.281000e-02 0.998 237.8354 150.6978)" class="st7 st18 st19">PUSH</text>
			</g>
			<g>
				<g>
					<path class="st5" d="M141.2,196.6l-32.8-16.4c0,0-0.7,0.1-0.7-2.2c0-2.2,0-13.6,0-13.6s0.1-1.6,1.5-1.3l3.2,1.6v-1l42.3,21.1
						c0,0,1,0.5,1,1.5v1.8"/>
					<path class="st5" d="M148.7,191.5l-4.9-2.4c0,0-0.5-0.3-0.5,0.8c0.1,1.4,0,5.5,0,5.5"/>
					<g>
						<polygon class="st5" points="141.5,195.7 132.8,191.3 132.8,183.6 141.5,188 						"/>
						<polygon class="st5" points="119.6,182.1 110.9,177.7 110.9,172.1 119.6,176.5 						"/>
						<polygon class="st5" points="129.8,187.6 122.8,184.1 122.8,178.7 129.8,182.2 						"/>
						<g>
							<polyline class="st5" points="135.5,190.5 133.9,189.7 133.9,185.2 140.4,188.5 140.4,193 138.8,192.2 							"/>
							<polyline class="st5" points="138.8,192.2 138.8,193.1 135.5,191.5 135.5,190.5 							"/>
						</g>
					</g>
					<polygon class="st5" points="118.7,180.1 112.4,177 112.4,173.9 118.7,177 					"/>
					<path class="st5" d="M124.7,180.7l3.4,1.7c0,0,0.9,0.5,0.8,1.4c-0.1,0.9-0.2,1-0.9,1c-0.7-0.1-3.2-1.5-3.2-1.5
						s-0.8-0.8-0.8-1.6C123.8,180.7,124.7,180.7,124.7,180.7z"/>
					<polyline class="st5" points="150.5,190.9 124.4,177.9 124.4,172.6 151,185.8 151,190.6 					"/>
					<polyline class="st5" points="124.4,172.5 125.6,171.9 152.3,185.2 152.3,189.8 					"/>
					<line class="st5" x1="124.4" y1="177.9" x2="129.6" y2="175.3"/>
					<polyline class="st5" points="131,175.9 131,181.2 135.9,178.5 					"/>
					<polyline class="st5" points="137.7,179.2 137.7,184.5 142.8,181.8 					"/>
					<polyline class="st5" points="144.3,182.5 144.3,187.7 149.4,185.1 					"/>
					<line class="st5" x1="151" y1="185.8" x2="152.3" y2="185.2"/>
					<path class="st5" d="M159.7,183.4c0,0,0.1-0.8-0.7-1.1l-3,1.7l-43.1-21.4c-1.6,0.3-1.6,1.6-1.6,1.6"/>
					<path class="st5" d="M115,161.2c0,0-1.9-0.9-2.7-1.4c-0.6-0.3-1.2-0.1-1.2-0.1s-1.1,0.6-2.1,1c-0.2,0.1-0.4,0.2-0.6,0.3
						c-0.6,0.4-0.6,1.1-0.6,1.1v1.5"/>
					<line class="st5" x1="111.6" y1="163" x2="108.3" y2="161.3"/>
					<path class="st5" d="M113,162.6l2.5-1.2c0,0,0.5-0.2,1,0c0.2,0.1,7.2,3.6,15.4,7.7c12,6,27.2,13.3,27.2,13.3l14.3-7.7"/>
					<polyline class="st5" points="131.9,169.1 146.8,161.4 173.4,174.7 173.5,178 					"/>
					<path class="st5" d="M176.6,176.5v-3.6l8.8-4.4c0,0,1-0.5,1.8-0.1c0.8,0.4,2.6,1.4,2.6,1.4"/>
					<g>
						<ellipse class="st5" cx="131.1" cy="154.9" rx="3.7" ry="1.9"/>
						<path class="st5" d="M134.7,158.5c0,1.1-1.6,1.9-3.7,1.9s-3.7-0.9-3.7-1.9"/>
						<path class="st5" d="M127.4,154.9v4.9c0,1.1,1.6,1.9,3.7,1.9s3.7-0.9,3.7-1.9v-4.7"/>
						<line class="st5" x1="129.8" y1="154" x2="132.2" y2="155.3"/>
						<line class="st5" x1="129.5" y1="155.4" x2="132.3" y2="153.9"/>
					</g>
					<g>
						<ellipse class="st5" cx="192.7" cy="141.6" rx="3.7" ry="1.9"/>
						<path class="st5" d="M196.4,145.2c0,1.1-1.6,1.9-3.7,1.9c-2,0-3.7-0.9-3.7-1.9"/>
						<path class="st5" d="M189.1,141.6v4.9c0,1.1,1.6,1.9,3.7,1.9c2,0,3.7-0.9,3.7-1.9v-4.7"/>
						<line class="st5" x1="191.4" y1="140.7" x2="193.8" y2="142"/>
						<line class="st5" x1="191.1" y1="142.1" x2="194" y2="140.6"/>
					</g>
					<g>
						<ellipse class="st5" cx="195.4" cy="163.1" rx="3.7" ry="1.9"/>
						<line class="st5" x1="199.1" y1="165.1" x2="199.1" y2="163.3"/>
						<line class="st5" x1="191.8" y1="163.1" x2="191.8" y2="168.7"/>
						<line class="st5" x1="194.1" y1="162.2" x2="196.5" y2="163.5"/>
						<line class="st5" x1="193.9" y1="163.6" x2="196.7" y2="162.1"/>
					</g>
					<path class="st5" d="M161.6,142.4l11.8-5.9c0,0,1.2-0.8,2.3-0.3c1,0.5,13.3,6.8,13.3,6.8"/>
					<line class="st5" x1="135.1" y1="155.3" x2="143.4" y2="151.3"/>
					<ellipse class="st5" cx="141.1" cy="154.8" rx="2.1" ry="1.1"/>
					<path class="st5" d="M142.5,156.4c0.1,0.1,0.1,0.2,0.2,0.3c0.1,0.4-0.5,0.8-1.4,1s-1.5-0.1-1.6-0.6c0-0.2,0.1-0.4,0.3-0.6"/>
					<path class="st5" d="M142.3,157.5c0.2,0.1,0.3,0.2,0.4,0.4c0.1,0.4-0.5,0.8-1.4,1s-1.5-0.1-1.6-0.6c0-0.2,0.2-0.5,0.5-0.7"/>
					<path class="st5" d="M139,154.9v0.8c0,0.6,0.9,1.1,2.1,1.1s2.1-0.5,2.1-1.1v-0.9"/>
					<path class="st5" d="M184.2,154.9l14-7c0,0,0.2-0.5-0.3-0.7c-0.4-0.2-1.3-0.6-1.3-0.6"/>
					<ellipse class="st5" cx="182.7" cy="155.7" rx="1.9" ry="0.9"/>
					<path class="st5" d="M183.8,159.2c0.2,0.1,0.2,0.2,0.2,0.4c0,0.3-0.6,0.6-1.4,0.6"/>
					<path class="st5" d="M182.7,157.7c1.1,0,1.9-0.4,1.9-0.9v-1.1"/>
					<path class="st5" d="M183.9,157.5c0.1,0.1,0.2,0.2,0.2,0.3c0,0.3-0.6,0.7-1.3,0.8"/>
					<path class="st5" d="M183.7,158.3c0.2,0.1,0.3,0.2,0.4,0.3c0,0.3-0.6,0.7-1.3,0.8"/>
					<line class="st5" x1="184.9" y1="156" x2="192.4" y2="152"/>
					<line class="st5" x1="198.2" y1="147.8" x2="198.2" y2="149"/>
					<polyline class="st5" points="165.8,170.6 186.3,160.3 186.3,159.4 184.1,158.3 					"/>
					<line class="st5" x1="182.8" y1="161.1" x2="186.3" y2="159.4"/>
					<g>
						<polyline class="st5" points="160.1,168.1 160.1,165.4 162.6,164.3 162.6,166.6 						"/>
						<polyline class="st5" points="157.7,167 157.7,164.3 160.1,163.1 160.1,165.5 						"/>
						<polyline class="st5" points="155.1,165.7 155.1,163 157.6,161.8 157.6,164.2 						"/>
						<polyline class="st5" points="152.6,164.4 152.6,161.7 155,160.5 155,162.9 						"/>
						<polyline class="st5" points="150.1,163.1 150.1,160.5 152.5,159.3 152.5,161.7 						"/>
						<polyline class="st5" points="147.5,161.8 147.5,159.2 149.9,158 149.9,160.4 						"/>
						<polyline class="st5" points="145,162.1 145,157.9 147.5,156.7 147.5,159.1 						"/>
						<polyline class="st5" points="145.1,157.7 145.1,155.4 142.7,156.5 142.7,160.7 141.9,160.3 						"/>
						<polyline class="st5" points="162.6,169.3 162.6,166.8 165.1,165.6 165.1,170.4 						"/>
						<polyline class="st5" points="168.6,168.2 168.6,163.8 166.1,165 166.1,169 166.6,169.2 165.3,169.9 						"/>
						<polyline class="st5" points="166.1,164.8 166.1,162.5 163.6,163.7 163.6,166.2 						"/>
						<polyline class="st5" points="169.6,163.1 169.6,160.8 167.1,162 167.1,164.5 						"/>
						<polyline class="st5" points="173.1,161.3 173.1,159 170.6,160.2 170.6,162.7 						"/>
						<polyline class="st5" points="176.6,159.6 176.6,157.3 174.1,158.5 174.1,161 						"/>
						<polyline class="st5" points="180.1,157.9 180.1,155.5 177.6,156.8 177.6,159.3 						"/>
						<g>
							<polyline class="st5" points="163.6,163.6 163.6,161.2 161.1,162.5 161.1,165 							"/>
							<polyline class="st5" points="167.1,161.9 167.1,159.5 164.6,160.7 164.6,163.2 							"/>
							<polyline class="st5" points="170.6,160.1 170.6,157.7 168.1,158.9 168.1,161.4 							"/>
							<polyline class="st5" points="174.1,158.4 174.1,156 171.6,157.2 171.6,159.7 							"/>
							<polyline class="st5" points="177.6,156.7 177.6,154.3 175.1,155.5 175.1,158 							"/>
							<polyline class="st5" points="181.1,154.9 181.1,152.5 178.6,153.7 178.6,156.2 							"/>
						</g>
						<polyline class="st5" points="172.1,166.5 172.1,162.1 169.6,163.3 169.6,167.3 170.1,167.5 168.8,168.2 						"/>
						<polyline class="st5" points="175.6,164.7 175.6,160.3 173.1,161.5 173.1,165.5 173.7,165.7 172.4,166.4 						"/>
						<polyline class="st5" points="179.1,162.9 179.1,158.5 176.6,159.7 176.6,163.7 177.1,164 175.8,164.6 						"/>
						<polyline class="st5" points="182.6,161.2 182.6,156.8 180.1,158 180.1,162 180.6,162.3 179.3,162.9 						"/>
					</g>
					<g>
						<polyline class="st5" points="161.2,162.2 161.1,159.9 158.6,161.1 158.6,163.6 						"/>
						<polyline class="st5" points="164.6,160.5 164.6,158.1 162.1,159.4 162.1,161.9 						"/>
						<polyline class="st5" points="168.2,158.7 168.2,156.4 165.7,157.6 165.7,160.1 						"/>
						<polyline class="st5" points="171.7,157 171.7,154.7 169.1,155.9 169.1,158.4 						"/>
						<polyline class="st5" points="175.2,155.3 175.1,152.9 172.6,154.1 172.6,156.6 						"/>
						<polyline class="st5" points="178.7,153.5 178.7,151.1 176.1,152.4 176.1,154.9 						"/>
					</g>
					<g>
						<polyline class="st5" points="158.6,161 158.6,158.6 156.1,159.8 156.1,162.3 						"/>
						<polyline class="st5" points="162,159.3 162,156.9 159.5,158.1 159.5,160.6 						"/>
						<polyline class="st5" points="165.6,157.5 165.6,155.1 163.1,156.3 163.1,158.8 						"/>
						<polyline class="st5" points="169.1,155.8 169.1,153.4 166.6,154.6 166.6,157.1 						"/>
						<polyline class="st5" points="172.6,154 172.6,151.7 170.1,152.9 170.1,155.4 						"/>
						<polyline class="st5" points="176.1,152.3 176.1,149.9 173.6,151.1 173.6,153.6 						"/>
					</g>
					<g>
						<polyline class="st5" points="156,159.9 156,157.6 153.5,158.8 153.5,161.3 						"/>
						<polyline class="st5" points="159.5,158.2 159.5,155.8 157,157 157,159.5 						"/>
						<polyline class="st5" points="163.1,156.4 163.1,154 160.5,155.3 160.5,157.8 						"/>
						<polyline class="st5" points="166.6,154.7 166.5,152.3 164,153.6 164,156.1 						"/>
						<polyline class="st5" points="170,153 170,150.6 167.5,151.8 167.5,154.3 						"/>
						<polyline class="st5" points="173.6,151.2 173.5,148.8 171,150.1 171,152.6 						"/>
					</g>
					<g>
						<polyline class="st5" points="153.6,158.5 153.5,156.2 151,157.4 151,159.9 						"/>
						<polyline class="st5" points="157,156.8 157,154.5 154.5,155.7 154.5,158.2 						"/>
						<polyline class="st5" points="160.6,155 160.6,152.7 158.1,153.9 158.1,156.4 						"/>
						<polyline class="st5" points="164.1,153.3 164.1,151 161.5,152.2 161.5,154.7 						"/>
						<polyline class="st5" points="167.6,151.6 167.5,149.2 165,150.5 165,153 						"/>
						<polyline class="st5" points="171.1,149.8 171.1,147.5 168.5,148.7 168.5,151.2 						"/>
					</g>
					<g>
						<polyline class="st5" points="151,157.3 151,154.9 148.5,156.2 148.5,158.7 						"/>
						<polyline class="st5" points="154.4,155.6 154.4,153.2 151.9,154.4 151.9,156.9 						"/>
						<polyline class="st5" points="158,153.8 158,151.4 155.5,152.6 155.5,155.1 						"/>
						<polyline class="st5" points="161.5,152.1 161.5,149.7 159,150.9 159,153.4 						"/>
						<polyline class="st5" points="165,150.3 165,148 162.5,149.2 162.5,151.7 						"/>
						<polyline class="st5" points="168.5,148.6 168.5,146.2 166,147.4 166,149.9 						"/>
					</g>
					<g>
						<polyline class="st5" points="148.5,156.1 148.5,153.7 146,154.9 146,157.4 						"/>
						<polyline class="st5" points="152,154.3 152,152 149.5,153.2 149.5,155.7 						"/>
						<polyline class="st5" points="155.6,152.5 155.5,150.2 153,151.4 153,153.9 						"/>
						<polyline class="st5" points="159,150.8 159,148.5 156.5,149.7 156.5,152.2 						"/>
						<polyline class="st5" points="162.5,149.1 162.5,146.7 160,148 160,150.5 						"/>
						<polyline class="st5" points="166,147.3 166,145 163.5,146.2 163.5,148.7 						"/>
					</g>
					<g>
						<polyline class="st5" points="146,154.7 146,152.3 143.5,153.5 143.5,156 						"/>
						<polyline class="st5" points="149.5,152.9 149.5,150.6 147,151.8 147,154.3 						"/>
						<polyline class="st5" points="153.1,151.2 153.1,148.8 150.5,150 150.5,152.5 						"/>
						<polyline class="st5" points="156.6,149.5 156.5,147.1 154,148.3 154,150.8 						"/>
						<polyline class="st5" points="160,147.7 160,145.4 157.5,146.6 157.5,149.1 						"/>
						<polyline class="st5" points="163.6,145.9 163.5,143.6 161,144.8 161,147.3 						"/>
					</g>
					<g>
						<polyline class="st5" points="147,151.6 147,149.3 144.4,150.5 144.4,153 						"/>
						<polyline class="st5" points="150.5,149.9 150.5,147.5 148,148.7 148,151.2 						"/>
						<polyline class="st5" points="154,148.2 154,145.8 151.5,147 151.5,149.5 						"/>
						<polyline class="st5" points="157.5,146.4 157.5,144.1 155,145.3 155,147.8 						"/>
						<polyline class="st5" points="161,144.7 161,142.3 158.5,143.5 158.5,146 						"/>
					</g>
					<polyline class="st5" points="144.3,162.6 137.2,159.3 137.2,158.2 139.4,157.1 					"/>
					<polyline class="st5" points="137.6,158.4 141,160 142.7,159.2 					"/>
					<line class="st5" x1="185.4" y1="161" x2="191.6" y2="164.1"/>
				</g>
				<ellipse class="st20" cx="116.3" cy="162.8" rx="1.1" ry="0.5"/>
				<ellipse class="st21" cx="155.8" cy="182.4" rx="1" ry="0.5"/>
			</g>
			<line class="st22" x1="156.4" y1="187.7" x2="156.2" y2="184.1"/>
		</g>
		<path class="st0" d="M249.7,140.1l11.2-5.6l2.4-1.2l17.8-8.8l0.8-6.3c0,0,0.2-1.1-2-1.6c-1.6-0.4-6.7-2.8-6.7-2.8l-1-1.6l-1.6,0.3
			l-0.9-1.1l-1.5,0.1l-1-1l-1.2,0.1l-1.3-1c0,0-2.2,0.8-2.3,3.2h-3.7c0,0,0.5-3.8-2-3.2l-20.1,8.2l-0.1,2.3l-36.6,15.6l1.5,2.2
			l-3.7-1.7l-4.8,1.8l-0.9,2.8l-0.6,6.6l1.3,0.8l-0.5,3.6l-1.2,0l-1.1,3.4l-0.4,6.7l8.5,4.2l37.9-18.9c0,0,1.3-0.6,1.3,1.2
			c0,0.7,0.2,2.5,0.3,3.8c0,0,0.7,0.5,0.7,1.3l11.2-5.5c0,0,0.6-0.3-0.1-1.4C249.1,146.4,249.1,140.7,249.7,140.1"/>
		<g>
			<path class="st22" d="M258.6,113.5c0,0,0.4-1.7,0.1-3.3c-0.3-1.6-2.4-0.5-2.4-0.5l-1.8,0.7l-18.2,7.4v2l-36.9,15.7l2,2.3l8.9,4.1
				l63.3-27.8l-5.3-2.1c0,0-1.1-0.1-1.9,0.4l-4.4,2.1c0,0-1.1,0.6-3.7-0.2c-2.6-0.8-3.9-1.6-3.9-1.6s-2.1-1.2-0.4-2"/>
			<path class="st22" d="M201,137.5l-3.3-1.6l-4.7,2l-0.9,2.6l20.5,10.1l16.4-7.9l1,0.6l4.6-1.8l-1.3-0.8l10.4-4.8l-3.2-1.5l13-5.7
				l3.2,1.2l8.8-4.5l1.2,0.6l3.6-1.5l-1-0.6l12.6-5.8c0,0,0.3-0.9-1.2-1.4c-1.5-0.6-6.9-2.7-6.9-2.7"/>
			<path class="st22" d="M192,140.5l-0.8,6.7l8.4,4.4c0,0,1.2,0.8,1.1,2.1s-1.4,6.2-1.4,6.2l-9.5-4.8l0.9-3.6l1.9,0.7
				c0,0,1.9,1.2,0.9,1.9c-0.9,0.7-0.9,0.7-0.9,0.7l6.9,3.3"/>
			<path class="st22" d="M205.1,162.5l2.2-11l3.1,1.4c0,0,2.3,1.3,2.1-2.3"/>
			<polyline class="st22" points="189.7,156.1 189.2,161.6 197.6,166.1 			"/>
			<line class="st22" x1="265.4" y1="132.4" x2="266.8" y2="126"/>
			<line class="st22" x1="281.9" y1="118.1" x2="281.1" y2="124.4"/>
			<line class="st22" x1="228.9" y1="142.7" x2="226.9" y2="151.7"/>
			<path class="st22" d="M213.3,161"/>
			<line class="st22" x1="222" y1="146.5" x2="220.1" y2="155.1"/>
			<path class="st22" d="M205,163.2"/>
			<path class="st22" d="M209.3,152.4c0,0,2.3,2.6,1.6,7"/>
			<line class="st22" x1="192.6" y1="148.3" x2="192" y2="151.6"/>
			<line class="st22" x1="243.7" y1="135.9" x2="239.9" y2="152.7"/>
			<path class="st22" d="M241.6,151.7l3.3-13.1c0,0,0.5-2.6,1.8-3c1.3-0.4,7.1-3.3,7.1-3.3s1.1-0.1,1.1,0.6c0,0.6-1.4,5.5-1.4,5.5"
				/>
			<path class="st22" d="M243.6,137.6c0,0,0.6-2.4,1.9-3c1.4-0.7,6.7-3.1,6.7-3.1s1.4-0.7,2.4,0.9"/>
			<path class="st22" d="M262,133.7l0.8-3.2c0,0,0.2-1.3-1.1-0.6s-3.5,5.8-3.5,5.8"/>
			<line class="st22" x1="256.7" y1="129.9" x2="254.6" y2="137.9"/>
			<line class="st22" x1="258.7" y1="112.7" x2="265.4" y2="112.7"/>
			<path class="st22" d="M262.2,112.7c0-0.4,0.1-0.8,0.3-1.2c0.6-1.4,1.7-2.2,2.6-1.8c0.3,0.1,0.6,0.4,0.7,0.8"/>
			<path class="st22" d="M264.6,112.7c0-0.2,0.1-0.3,0.2-0.5c0.6-1.4,1.7-2.2,2.6-1.8c0.4,0.2,0.7,0.5,0.8,1"/>
			<path class="st22" d="M267.9,111.8c0.6-0.5,1.2-0.8,1.8-0.6c0.4,0.2,0.7,0.6,0.8,1.1"/>
			<path class="st22" d="M270.5,112.7c0.6-0.5,1.2-0.8,1.8-0.6c0.6,0.2,0.9,0.9,0.9,1.8"/>
			<path class="st22" d="M264.8,134.1"/>
			<line class="st22" x1="245.2" y1="138" x2="254.5" y2="133.6"/>
			<line class="st22" x1="244" y1="143.1" x2="249.9" y2="140.3"/>
			<line class="st22" x1="243.8" y1="144.3" x2="249.5" y2="141.5"/>
			<path class="st22" d="M249.3,144.5l-2.5,1.3c0,0,0.9-1.3,0.2-1.8l2.4-1.1"/>
			<line class="st22" x1="194.1" y1="152.2" x2="197.8" y2="154.1"/>
			<path class="st22" d="M237.7,148.3l0.1-2.2l1.7-5.4c2-1.1,1.8,0.2,1.8,0.2l-2.3,11.1c0,0-1.1,0.6-1.2-1
				C237.6,149.4,237.7,148.3,237.7,148.3z"/>
			<polyline class="st22" points="236.5,147.2 236.6,146 238.1,141.3 236.3,142 235.2,147.6 			"/>
			<path class="st22" d="M233.8,147.7c0.2-1.2,1.1-6.1,1.1-6.1"/>
			<line class="st22" x1="230" y1="143.3" x2="228.5" y2="150.3"/>
		</g>
		<text transform="matrix(0.6944 -0.3291 -0.2743 0.9616 244.6465 141.9735)" class="st7 st18 st23">PUSH</text>
		<g>
			<g>
				<polyline class="st24" points="326,97.8 342.4,106 344.7,110.4 344.5,122.7 356,117.1 354.4,116.5 				"/>
				<polyline class="st24" points="305.2,76.2 305.2,87.5 317.4,93.6 				"/>
				<polyline class="st24" points="344.6,122.9 344.6,125.6 342.3,124.3 342.3,120.9 305.3,102.4 305.3,105.8 302.8,104.6 303,89.3 
					305.2,87.5 				"/>
				<line class="st24" x1="305.5" y1="105" x2="342" y2="123.4"/>
				<polyline class="st24" points="354.4,117.7 354.4,105.3 352.8,100.9 342.4,106 				"/>
				<polyline class="st24" points="316.7,67.4 304,73.9 304,75.4 318.8,82.9 318.8,81.3 319.8,80.9 327.7,84.7 326.6,85.2 
					326.6,86.9 341.4,94.2 342.4,93.8 342.4,105.3 				"/>
				<polyline class="st24" points="352.8,100.9 352.8,88.9 353.7,88.4 353.7,86.5 341.3,92.4 341.3,93.9 				"/>
				<path class="st24" d="M317.6,90.1v16.8l5.7,2.9c0,0-0.2-17.3-0.1-17.4l-5.7-2.8l-1.5-1.2v-1.7"/>
				<polyline class="st24" points="323.6,109.9 324.4,109.4 325.8,106.8 326,97.6 327,97.2 327,94.5 325.6,93.6 				"/>
				<polygon class="st24" points="315.9,86.4 321.7,89.4 325.5,87.6 323.8,86.8 322.6,87.4 320.1,86.1 321.4,85.5 319.7,84.6 				
					"/>
				<line class="st24" x1="321.7" y1="89.4" x2="321.7" y2="91.4"/>
				<polyline class="st24" points="325.5,87.6 325.5,95.1 326.8,94.5 				"/>
				<polyline class="st24" points="344.6,125.6 347.8,124 347.8,123.1 348.8,122.6 348.8,120.8 				"/>
				<polyline class="st24" points="351.5,119.3 351.5,121 354.2,119.8 354.2,120.9 356,120.1 356,117.1 				"/>
				<polyline class="st24" points="344.7,110.4 348.1,108.7 348.1,115.2 348.9,114.9 348.9,118.8 350.7,117.9 350.7,113.9 
					351.5,113.6 351.5,106.8 354.3,105.4 				"/>
				<polyline class="st24" points="351.5,106.8 349.3,105.8 351.3,104.9 353.3,105.7 				"/>
				<line class="st24" x1="343.7" y1="105.4" x2="345.9" y2="109.7"/>
				<polyline class="st24" points="353.5,105.8 351.3,101.7 351.3,104.6 				"/>
				<polyline class="st24" points="345.2,107.9 346,107.5 348,108.6 				"/>
				<polyline class="st24" points="311.6,71.7 308.3,73.4 341.8,90.5 345.8,88.7 342.7,87.1 				"/>
				<path class="st24" d="M310.5,74l6.4-3.2c0,0-2-6.2,3.9-12.3s10.5-3.3,10.5-3.3l18.4,9.7c0,0,2.3,1,2.9,2.7s0.9,7.2,0.9,7.2"/>
				<path class="st24" d="M343.7,89.4L339,82c0,0-0.4-8.7,5-12.9c5.4-4.1,7.4,4.3,7.4,4.3s2.3,2.6,6.1,1.8"/>
				<path class="st24" d="M348.5,87.5c0,0-0.2-4.2-4.2-6.4l-2.5-1.3c0,0-1.7-7.3,4.6-8.8c0,0,2.3-0.5,1.4,5.5c0,0,5.1,2.8,9.6,2"/>
				<line class="st24" x1="345" y1="71.7" x2="345" y2="79.4"/>
				<line class="st25" x1="316.9" y1="67.5" x2="316.6" y2="70.9"/>
				<line class="st25" x1="316.5" y1="67.6" x2="316.8" y2="67.8"/>
				<line class="st25" x1="316.4" y1="70.9" x2="316.4" y2="70.9"/>
				<line class="st25" x1="316.4" y1="70.9" x2="316.4" y2="70.9"/>
				<polygon class="st26" points="320.4,93.8 307.2,92 311.2,93.9 301.1,97.9 308.9,101.8 319,97.9 322.9,99.8 				"/>
			</g>
			<circle class="st27" cx="331.5" cy="90.5" r="42.8"/>
			<polygon class="st28" points="321.8,42.5 329.6,54.5 325.6,52.6 325.4,64.9 317.6,61.2 317.8,48.9 313.8,47.1 			"/>
			<polygon class="st28" points="321.2,84.2 313.4,72.2 317.4,74.1 317.6,61.8 325.4,65.5 325.2,77.8 329.2,79.6 			"/>
		</g>
		<g>
			<g>
				<defs>
					<circle id="SVGID_1_" cx="315.2" cy="188.1" r="38.6"/>
				</defs>
				<use xlink:href="#SVGID_1_"  style="overflow:visible;fill:#FFFFFF;"/>
				<clipPath id="SVGID_00000111168317952208526110000016941846036484706983_">
					<use xlink:href="#SVGID_1_"  style="overflow:visible;"/>
				</clipPath>
				<g style="clip-path:url(#SVGID_00000111168317952208526110000016941846036484706983_);">
					<line class="st30" x1="256" y1="186.6" x2="355.7" y2="136.8"/>
					<line class="st31" x1="331.4" y1="194.4" x2="355.7" y2="182.3"/>
					<line class="st31" x1="256" y1="232.1" x2="295.8" y2="212.1"/>
					<line class="st30" x1="256" y1="210.7" x2="289.7" y2="193.6"/>
					<line class="st30" x1="324.8" y1="170.8" x2="355.7" y2="155.3"/>
					<line class="st30" x1="256" y1="205.1" x2="286.6" y2="189.8"/>
					<line class="st30" x1="325.5" y1="173.2" x2="355.7" y2="158.1"/>
					<line class="st30" x1="256" y1="207.9" x2="287.7" y2="192.2"/>
					<path class="st5" d="M294.1,207.9l30.4-15.6l0.9-18.3c0.2-2.6-1.4-3.3-1.4-3.3s-1.8-1-3.1-1.7c-1.3-0.7-2.6,0.2-2.6,0.2
						l-35,17.4c0,0-1.2,0.6,0,1.2s3.7,1.8,3.7,1.8s0.8,0.5,0.7,1.4c-0.1,0.9,0.1,1.5,0.1,1.5l1.1,1c0,0,0.9-0.5,1.8-0.1
						c0.8,0.4,2.1,0.5,2.3,2.4c0.2,1.8,1,13.1,1,13.1s2.3,1.7,2.1,4.5l35.1-17.3c0,0,1-1.4-0.7-3.4c-1.7-2.1-1.2-4.3-1.2-4.3
						l0.9-12.7c0,0,0-1.7,1.4-2.9l24.2-12.1"/>
					<path class="st5" d="M294.8,210l32.1-16.1c0,0,3.1-1.7-0.1-5.6l0.6-12.4c0,0-0.1-3.3,3.9-5.4"/>
					<path class="st5" d="M292.8,194.5l32.3-16.3c0,0-2.8-1.5-3.9-2.1c-1.1-0.6-2,0.1-2,0.1s-23.1,11.5-26.2,13.1s-3.7,4.2-3.7,4.2"
						/>
					<text transform="matrix(0.7225 -0.3514 1.224000e-02 0.9999 297.0442 204.0567)" class="st7 st18 st32">PUSH</text>
					<polygon class="st33" points="331.7,207.4 341.9,202.5 326,196.2 331.2,193.7 314,196 310.6,203.6 315.8,201.1 					"/>
				</g>
				<use xlink:href="#SVGID_1_"  style="overflow:visible;fill:none;stroke:#231F20;stroke-width:0.5;stroke-miterlimit:10;"/>
			</g>
		</g>
		<g>
			<line class="st34" x1="272.2" y1="108.7" x2="298.2" y2="91.9"/>
			<line class="st35" x1="272.2" y1="108.7" x2="298.2" y2="91.9"/>
			<line class="st34" x1="272.2" y1="108.7" x2="298.2" y2="91.9"/>
			<line class="st35" x1="272.2" y1="108.7" x2="298.2" y2="91.9"/>
		</g>
		<g>
			<line class="st34" x1="252.9" y1="142.3" x2="290.2" y2="175.2"/>
			<line class="st35" x1="252.9" y1="142.3" x2="290.2" y2="175.2"/>
			<line class="st34" x1="252.9" y1="142.3" x2="290.2" y2="175.2"/>
			<line class="st35" x1="252.9" y1="142.3" x2="290.2" y2="175.2"/>
		</g>
		<g>
			<polygon class="st36" points="219.3,70.5 206.4,89.2 212.7,86.1 211.9,104 224.3,98 225.1,80.1 231.3,77.1 			"/>
			<polygon class="st36" points="217.1,132.3 230,113.6 223.7,116.6 224.5,98.7 212.2,104.7 211.4,122.6 205.1,125.7 			"/>
		</g>
		<g>
			<circle class="st37" cx="349.1" cy="183.7" r="11.2"/>
			<g>
				<text transform="matrix(1 0 0 1 344.4542 189.178)" class="st13 st14 st38">1</text>
			</g>
		</g>
		<g>
			<circle class="st37" cx="297.9" cy="60.4" r="11.2"/>
			<g>
				<text transform="matrix(1 0 0 1 293.2225 65.8437)" class="st13 st14 st38">2</text>
			</g>
		</g>
	</g>
</g>
</svg>
