<?xml version="1.0" encoding="utf-8"?>
<!-- Generator: Adobe Illustrator 26.5.0, SVG Export Plug-In . SVG Version: 6.00 Build 0)  -->
<svg version="1.1" xmlns="http://www.w3.org/2000/svg" xmlns:xlink="http://www.w3.org/1999/xlink" x="0px" y="0px"
	 viewBox="0 0 303.8 243.2" style="enable-background:new 0 0 303.8 243.2;" xml:space="preserve">
<style type="text/css">
	.st0{fill:#D1D3D4;}
	.st1{fill:none;stroke:#000000;stroke-width:0.5;stroke-linecap:round;stroke-linejoin:round;stroke-miterlimit:10;}
	.st2{fill:none;stroke:#000000;stroke-width:0.5;stroke-linecap:round;stroke-linejoin:round;}
	.st3{font-family:'Arial-BoldMT';}
	.st4{font-size:4.6807px;}
	.st5{fill:none;stroke:#000000;stroke-width:0.5471;stroke-linecap:round;stroke-linejoin:round;stroke-miterlimit:10;}
	.st6{fill:none;stroke:#000000;stroke-width:0.5101;stroke-linecap:round;stroke-linejoin:round;stroke-miterlimit:10;}
	.st7{fill:none;stroke:#000000;stroke-width:0.5507;stroke-linecap:round;stroke-linejoin:round;stroke-miterlimit:10;}
	.st8{fill:#FFFFFF;stroke:#000000;stroke-width:0.371;stroke-linecap:round;stroke-linejoin:round;stroke-miterlimit:10;}
	.st9{fill:#FFFFFF;stroke:#000000;stroke-width:0.5;stroke-linecap:round;stroke-linejoin:round;stroke-miterlimit:10;}
	.st10{fill:none;stroke:#FFFFFF;stroke-width:3;stroke-linecap:round;stroke-linejoin:round;stroke-miterlimit:10;}
	.st11{fill:none;stroke:#000000;stroke-width:0.75;stroke-linecap:round;stroke-linejoin:round;stroke-miterlimit:10;}
	.st12{fill:none;stroke:#000000;stroke-width:0.378;stroke-linecap:round;stroke-linejoin:round;stroke-miterlimit:10;}
	.st13{fill:#2D2A26;stroke:#FFFFFF;stroke-width:0.6297;stroke-linecap:round;stroke-linejoin:round;stroke-miterlimit:10;}
	.st14{fill:#2D2A26;stroke:#FFFFFF;stroke-width:0.5;stroke-linecap:round;stroke-linejoin:round;stroke-miterlimit:10;}
	.st15{fill:#2D2A26;}
</style>
<g id="Gray">
	<path class="st0" d="M181.1,98.8c0.4-0.8,0.7-1.7,0.9-2.7c0.6-3.5-1.2-6.7-3.9-7.2c-2.7-0.4-5.4,2.1-6,5.6c-0.5,3.2,0.9,6.2,3.3,7
		L181.1,98.8z"/>
	<path class="st0" d="M172.9,92.4l-1.3-0.7c0,0-2.7,1.5-2.5,7.8l5.2,2.7l8.4-4c0,0,1.3-8.8-3.8-9.9l-1,0.7L172.9,92.4z"/>
</g>
<g id="Unit">
	<g>
		<g>
			<path class="st1" d="M67.3,139c0,0,0-0.6,0-1.6c0-1.1,1.2-1.6,1.2-1.6s7-3.7,7.4-3.8c0.3-0.2,0.6-0.2,1.1-0.1s0.8-0.2,0.9-0.6
				s1.2-0.9,1.2-0.9l111.7-55.9c0,0,0.7-0.5,1.3-0.1c0.6,0.5,2.1,1.4,2.1,1.4s0.3,0.2,0.6-0.1c0.2-0.2,0.6-0.7,0.4-1.2l-0.7-0.5
				c0,0-0.2-0.6,0-1s0.5-0.8,0.9-0.8c0.4,0,3.1-0.2,3.1-0.2s0.7,0.2,0.8,0.6l0,3.3c0,0,0.1,0.5-0.4,0.8
				c-0.5,0.2-44.9,22.4-44.9,22.4"/>
			<path class="st1" d="M166.5,141.2c0,0-0.1-7.2,0-8.8c0.1-1.6,1.6-2.1,1.6-2.1l24.9-12.6l-6.9-3.5l6.1-3.1c0,0-22.9-11.4-23.9-12
				s-2.2,0-2.2,0l-6.1,3l-7.1-3.5l-23.3,11.7c0,0-2.2,0.9-2.2,2.5l0.1,1.1"/>
			<path class="st1" d="M167.6,130.1l-6.6-3.4l-6.8,3.4c0,0-1.1,0.6-1.1,1.8c0,1.1,0,3.1,0,3.1"/>
			<path class="st1" d="M128.6,111.1l6.6,3.3l-5.8,3.1l0,0.5c0,0-0.8,0.7-0.8,1.9c0,1,0.1,6.9,0.1,6.9"/>
			<line class="st1" x1="129.8" y1="117.4" x2="154.5" y2="129.8"/>
			<polyline class="st1" points="182.8,136.2 194.1,130.5 194.2,129.3 200.4,126.2 			"/>
			<path class="st1" d="M189.4,115.7c0.5-0.4,1.4-0.6,2.4-0.6c1.7,0,3,0.7,3,1.5c0,0.6-0.6,1.1-1.6,1.3"/>
			<path class="st1" d="M193.8,119.6c0.7-0.3,1.1-0.7,1.1-1.2v-1.6"/>
			<path class="st1" d="M193.7,128v-9.1c0,0,0.1-1-0.9-1.1"/>
			<path class="st1" d="M194.2,119.3c0.3,0.2,0.5,0.4,0.5,0.7c0,0.4-0.4,0.8-1.1,1"/>
			<path class="st1" d="M194.2,121.2c0.3,0.2,0.5,0.4,0.5,0.7c0,0.4-0.4,0.8-1.1,1"/>
			<path class="st1" d="M194.2,123c0.3,0.2,0.5,0.4,0.5,0.7c0,0.4-0.4,0.8-1.1,1"/>
			<g>
				<ellipse class="st1" cx="159.3" cy="130.7" rx="3" ry="1.5"/>
				<path class="st1" d="M156.3,130.7v1.7c0,0.8,1.4,1.5,3,1.5s3-0.7,3-1.5v-1.6"/>
				<path class="st1" d="M161.9,133.2c0.3,0.3,0.4,0.6,0.4,0.9c-0.1,0.8-1.6,1.3-3.2,1.1c-1.7-0.2-2.9-1.1-2.8-1.9
					c0-0.1,0.1-0.2,0.1-0.4"/>
				<path class="st1" d="M162.3,140c0,0.1,0.1,0.2,0.1,0.3c0,0.8-1.4,1.5-3,1.5s-3-0.7-3-1.5c0-0.2,0.1-0.4,0.3-0.6"/>
				<path class="st1" d="M161.6,138.7c0.4,0.3,0.7,0.8,0.6,1.1c-0.1,0.8-1.6,1.3-3.2,1s-2.9-1.2-2.7-2c0.1-0.3,0.3-0.6,0.7-0.8"/>
				<path class="st1" d="M161.7,136.8c0.4,0.3,0.6,0.7,0.5,1.1c-0.1,0.8-1.6,1.3-3.2,1s-2.9-1.2-2.7-2c0-0.3,0.2-0.5,0.5-0.7"/>
				<path class="st1" d="M161.7,135c0.4,0.3,0.6,0.7,0.6,1.1c-0.1,0.8-1.6,1.3-3.2,1s-2.9-1.2-2.7-2c0-0.3,0.2-0.5,0.5-0.7"/>
			</g>
			<g>
				<path class="st1" d="M132.3,152.7c-1.1,0-2-0.4-2-1s0.9-1,2-1c1.1,0,2,0.4,2,1"/>
				<path class="st1" d="M130.3,151.8v1.1c0,0.5,0.9,1,2,1"/>
				<path class="st1" d="M132.1,154.5c-0.8-0.1-1.5-0.5-1.4-0.9"/>
				<path class="st1" d="M132.3,157.2c-0.8,0-1.5-0.3-1.5-0.7c0-0.1,0.1-0.2,0.1-0.3"/>
				<path class="st1" d="M132.1,156.3c-0.8-0.1-1.4-0.6-1.4-1c0-0.1,0.1-0.2,0.3-0.3"/>
				<path class="st1" d="M132.1,155.4c-0.8-0.1-1.4-0.6-1.4-1c0-0.1,0.1-0.2,0.3-0.3"/>
			</g>
			<g>
				<ellipse class="st1" cx="129" cy="115.5" rx="3" ry="1.5"/>
				<path class="st1" d="M126,115.5v1.7c0,0.8,1.3,1.5,2.8,1.5"/>
				<ellipse class="st1" cx="161.4" cy="99.2" rx="3" ry="1.5"/>
				<line class="st1" x1="158.4" y1="99.2" x2="158.4" y2="100.9"/>
				<path class="st1" d="M128.7,120c-1.6-0.3-2.8-1.1-2.7-1.9c0-0.1,0.1-0.2,0.1-0.4"/>
				<path class="st1" d="M128.7,126.6c-1.5-0.1-2.7-0.7-2.7-1.5c0-0.2,0.1-0.4,0.3-0.6"/>
				<path class="st1" d="M128.7,125.6c-1.7-0.3-2.9-1.2-2.7-2c0.1-0.3,0.3-0.6,0.7-0.8"/>
				<path class="st1" d="M128.7,123.6c-1.7-0.3-2.9-1.2-2.7-2c0-0.3,0.2-0.5,0.5-0.7"/>
				<path class="st1" d="M128.7,121.9c-1.7-0.3-2.9-1.2-2.7-2c0-0.3,0.2-0.5,0.5-0.7"/>
			</g>
			<polygon class="st1" points="109.4,136.6 128,146 132.1,144 135.9,145.9 155.3,136.2 136.6,127 132.7,128.9 128.8,126.9 			"/>
			<line class="st1" x1="109.4" y1="136.6" x2="109.3" y2="145.1"/>
			<line class="st1" x1="155.3" y1="136.2" x2="155.4" y2="142.3"/>
			<line class="st1" x1="128" y1="146" x2="128.1" y2="156"/>
			<line class="st1" x1="135.9" y1="145.9" x2="135.9" y2="151.3"/>
			<line class="st1" x1="132.1" y1="144" x2="132.1" y2="150.7"/>
			<polyline class="st1" points="92.8,141.4 97,139.3 110.5,146 106.1,148.1 			"/>
			<line class="st1" x1="110.5" y1="150.4" x2="110.5" y2="146"/>
			<line class="st1" x1="161.1" y1="126.8" x2="161.1" y2="129.3"/>
			<line class="st1" x1="162" y1="139" x2="166.5" y2="141.3"/>
			<line class="st1" x1="182.9" y1="95.5" x2="195.2" y2="89.3"/>
			<line class="st1" x1="198.6" y1="76.8" x2="198.6" y2="85.9"/>
			<polyline class="st1" points="227.3,90 208.4,80.6 202.6,83.5 202.2,84.2 195.2,87.8 195.2,94.3 200.8,97.1 201.6,96.8 			"/>
			<polyline class="st1" points="200.8,96.8 200.8,90.6 207.9,86.9 209.2,86.7 214.8,83.9 			"/>
			<polyline class="st1" points="209.2,86.7 208.8,87.4 201.7,91 201.6,97.6 207.4,100.4 208.1,100 			"/>
			<polyline class="st1" points="221.5,87.1 215.6,90.1 214.6,90.2 207.4,93.8 207.3,100.3 			"/>
			<line class="st1" x1="201.8" y1="91" x2="207.4" y2="93.8"/>
			<line class="st1" x1="195.3" y1="87.7" x2="200.7" y2="90.4"/>
			<polyline class="st1" points="215.6,90.1 215.3,90.7 208.4,94.3 208.3,100.8 213.8,103.5 			"/>
			<line class="st1" x1="208.4" y1="94.3" x2="213.7" y2="97"/>
			<polyline class="st1" points="213.9,105.6 214,97.1 228.5,89.8 233.5,92.2 219,99.6 219,107.8 			"/>
			<line class="st1" x1="214" y1="97.1" x2="219" y2="99.6"/>
			<path class="st1" d="M233.5,92.2c0,0,0.8,0.3-0.8,3.6"/>
			<polyline class="st1" points="241.1,96.9 236,94.4 230.1,97.2 229.9,97.9 222.7,101.5 222.6,106 			"/>
			<polyline class="st1" points="248.7,103.1 248.6,99 242.9,96.3 228.8,103.3 228.7,108.3 			"/>
			<polyline class="st1" points="234.2,111.3 234.3,106.1 248.6,99 			"/>
			<line class="st1" x1="222.9" y1="101.6" x2="228.7" y2="104.4"/>
			<line class="st1" x1="228.8" y1="103.3" x2="234.3" y2="106.1"/>
			<line class="st1" x1="213.3" y1="105.4" x2="218.7" y2="108.1"/>
			<polygon class="st1" points="205.2,115 223.3,105.9 241.3,114.9 223.2,124.1 			"/>
			<polyline class="st1" points="205.2,115 205.2,126.7 214.5,131.5 			"/>
			<line class="st1" x1="223.2" y1="124.1" x2="223.3" y2="127.3"/>
			<line class="st1" x1="241.4" y1="114.9" x2="241.5" y2="119.6"/>
			<polyline class="st1" points="217.1,109 191.5,96 186.5,98.6 			"/>
			<polyline class="st1" points="211.8,111.3 183.9,97.5 174.5,102.2 			"/>
			<polyline class="st1" points="270.6,115.7 270.6,111.7 251,101.9 245.2,104.8 244.9,105.5 237.7,109 237.7,112.8 			"/>
			<polyline class="st1" points="241.6,117.6 243.2,118.3 243.3,111.7 237.7,109 			"/>
			<polyline class="st1" points="257.5,105.2 251.9,108 250.6,108.1 243.3,111.7 			"/>
			<polyline class="st1" points="251.7,108 251.4,108.6 244.3,112.3 244.3,118.3 			"/>
			<polyline class="st1" points="264,108.4 258.3,111.3 257,111.4 249.9,115.1 244.3,112.3 			"/>
			<line class="st1" x1="249.9" y1="117.1" x2="249.9" y2="115.1"/>
			<polyline class="st1" points="250.7,117.8 250.7,115.5 257.5,112.2 258.3,111.3 			"/>
			<polyline class="st1" points="250.7,115.5 256.5,118.3 263.6,114.7 264.9,114.5 270.3,111.7 			"/>
			<polyline class="st1" points="284.9,123.5 284.9,122.3 272.8,115.8 267,115.8 261.9,118.3 259.3,116.9 			"/>
			<path class="st1" d="M284.9,122.3l-21.2,11l-0.8-0.5l-10.8,5.4l-1.2-0.7c0,0-0.5-0.3-1.4,0.2c-1,0.6-10.8,5.4-10.8,5.4
				s-1.1,0.4-0.2,0.8c0.9,0.4,0.8,0.5,0.8,0.5s0.4,0.1,0.3,1.1l0,0.8"/>
			<path class="st1" d="M256.5,118.3l-15,7.7c0,0-0.6,0.5-1,1.4c-0.4,0.9-2,3.7-2,3.7s-0.1,0.3-1.2,0.9s-32.8,16.5-32.8,16.5
				l0.1,1.2c0,0,3.5,1.7,4.8,2.6c1.3,0.9,2.7-0.2,2.7-0.2l66.3-33.4"/>
			<line class="st1" x1="26.1" y1="160.9" x2="58.2" y2="144.8"/>
			<line class="st1" x1="34.8" y1="173.4" x2="59.1" y2="161.4"/>
			<polygon class="st1" points="112.5,159.1 120.1,155.4 76.6,133.6 69,137.3 			"/>
			<path class="st1" d="M68.7,139.1c0,0,0.4-0.8,1.3-0.3c0.9,0.5,41.5,20.8,41.5,20.8s1,0.5,1,2.1c0,1.7,0,14.5,0,14.5
				s-0.1,1.6-1.2,1.1c-1.1-0.5-41.5-20.7-41.5-20.7"/>
			<line class="st1" x1="145.5" y1="195.7" x2="69.2" y2="157.6"/>
			<line class="st1" x1="116.5" y1="210.2" x2="153.8" y2="191.7"/>
			<line class="st1" x1="154.4" y1="192.8" x2="116.7" y2="211.7"/>
			<line class="st1" x1="154.3" y1="207.9" x2="116.7" y2="227"/>
			<polyline class="st1" points="152.6,208.9 154.5,209.6 163.8,204.9 164.6,205.2 173.3,200.8 174.4,198.9 176.6,197.8 179,198 
				296,139.5 296,133.3 293.8,130 293.8,125.4 			"/>
			<path class="st1" d="M174.2,199.1v-4.9c0,0,0.4-2.9,2.4-3.6c0,0,1.7-0.5,1.8,1.1v6"/>
			<path class="st1" d="M154.5,209.4v-17.1c0,0-0.5-1.1-2.1-1.3v1.2"/>
			<path class="st1" d="M154.5,192.3l9.6-4.8c0,0-0.5-1.1-2.1-1.3l-9.6,4.8"/>
			<path class="st1" d="M165.1,204.9l-0.1-17.4l7.7-3.9c0,0,1.3-0.9,2.2-0.2c1,0.8,1.6,1.4,3,0.8c1.4-0.7,1.4-0.7,1.4-0.7"/>
			<path class="st1" d="M178.7,182.5c0.8,0.4,0.8,1.7,0.8,1.7v2.4c0,0,0.1,2.3,2.6,1.3c2.3-1,2.5-3.8,2.5-3.8s0-2.1,0-3
				c0-0.8-0.6-1.3-0.6-1.3c0-1.1-0.9-0.7-0.9-0.7l-3.6,1.9c0,0-0.6,0.3-0.7,1.4"/>
			<line class="st1" x1="165.1" y1="203.5" x2="165" y2="184.6"/>
			<path class="st1" d="M178.9,181.1"/>
			<path class="st1" d="M164.1,187.4v-2.7l8.6-4.1l0.6-1.1l67.4-33.6c0,0,0.7-0.1,0.8,0.5c0.1,0.6,0.3,4.5,0.3,4.5s0.9,0.6,0.8,1.5
				l11.6-5.7c0,0,0.6-0.7-0.1-1.6l0.1-4.9c0,0,0.2-1.1,1-1.5l32.8-16.3l2.7,1.8c0,0,1.2-0.1,0.9-1.4l-0.7-0.6c0,0-0.4-1.2,1-1.8
				l2.8-0.1c0,0,0.7,0,0.8,0.6l0,3.5l-41.2,20.7"/>
			<line class="st1" x1="184.8" y1="180.9" x2="242.3" y2="152.1"/>
			<line class="st1" x1="110.5" y1="147.4" x2="132.2" y2="158.2"/>
			<path class="st1" d="M132.2,159.3"/>
			<path class="st1" d="M110.7,148.7"/>
			<line class="st1" x1="128.5" y1="156.2" x2="130.7" y2="155.1"/>
			<line class="st1" x1="138.1" y1="161.7" x2="143.7" y2="158.9"/>
			<line class="st1" x1="131.7" y1="165" x2="133.3" y2="164.2"/>
			<path class="st1" d="M151.8,186.9"/>
			<polyline class="st1" points="162,186.1 162,183.7 164.5,182.4 166.5,183.4 			"/>
			<line class="st1" x1="164.1" y1="184.8" x2="162" y2="183.7"/>
			<line class="st1" x1="91.2" y1="140.9" x2="121.1" y2="126.2"/>
			<polyline class="st1" points="192.1,111.1 192.8,111.5 192.8,114.9 			"/>
			<polyline class="st1" points="194.7,121.9 200.4,124.6 180.1,134.9 			"/>
			<path class="st1" d="M200.6,126.6"/>
			<polygon class="st1" points="203.7,125.1 200.6,126.7 200.6,121.5 203.7,119.9 			"/>
			<line class="st1" x1="200.6" y1="121.5" x2="195.1" y2="118.8"/>
			<polyline class="st1" points="192.9,113.6 202.4,118.4 205.1,117.1 			"/>
			<polyline class="st1" points="192.9,114.9 202.4,119.6 205.1,118.3 			"/>
			<path class="st1" d="M57.5,144.6v-0.8l10.3-4.9l1.4,0.6c0,0,0.5,0.3,0.5,1c0,0.6,0,2,0,2l-9.2,4.6l-0.9-0.1v-2c0,0-0.1-1-2.2-1.3
				"/>
			<path class="st1" d="M58.3,161.9l1.3,0.6l10-5.1l-0.1-2l-0.9-0.3l-8.3,4.1c0,0-1,0.5-0.9,1.3l0,1.7"/>
			<path class="st1" d="M15,161.6l5.5-2.7c0,0,9.3,1.1,13.7,13.5c0,0,3.8,10.4-2.9,16l-6.2,3c0,0-2,0.3-4.5-0.9l-5.4-2.5
				c0,0-0.8-0.9-0.8-1.9c0-1,0.1-3,0.1-3"/>
			<path class="st1" d="M14.5,167.4l-0.1-4.9c0,0,0.3-1.1,2.4-0.9c0,0,9.4,3.5,12.1,13.1c0,0,4.9,10.7-2.2,15.9"/>
			<path class="st1" d="M16.2,173v-5.5c0,0,0.5-3.5,3.4-2.8c0,0,7.1,2.5,9.4,15.2c0,0,1.5,8.2-4.8,10.1c0,0-1.7,0.6-3.8-0.2
				s-5.8-3-5.8-3l5.4-2.7"/>
			<line class="st1" x1="21.4" y1="165.7" x2="21.4" y2="170.5"/>
			<path class="st1" d="M15.1,173.8l8.2-4.1c0,0,1.2,0.3,1.1,1.6l-1.1,3.8l-5,2.7l-1.7-3.1C16.6,174.8,16.1,173.6,15.1,173.8z"/>
			<path class="st1" d="M15.1,173.8c0,0-1.7,5.1,0.7,9.9l1.3-0.6c0,0,0-3.3,3-4.2c0,0,1.8-0.6,1.7,1.8l1.3-0.5c0,0,1-3.4,1-7"/>
			<path class="st1" d="M16.2,168.3c0,0,0.5,0.3-2.1-0.8c0,0-4.5-0.2-5.9,6.3v8c0,0,0,3,2.9,3.2c0,0,2.5,0.1,4-2.7"/>
			<path class="st1" d="M20.1,179l0.2,5.3c0,0,0.4,0.6,0.9,0.8s3.8,1.8,3.8,1.8s1.8,0.6,2.6,0.5"/>
			<path class="st1" d="M16.3,170.8c0,0-1.1,0.2-2.4-0.8c0,0-2.8,0.6-3.3,3.8l0,7.6c0,0,0.2,1.6,1.5,1.1c1.3-0.5,1.5-1.1,1.5-1.1
				l1-1.3"/>
			<path class="st1" d="M28.5,163.1l11-5.5c0,0,1.4-0.5,1.5,1c0.1,1.5,0,7.1,0,7.1s0.1,1.1-1.2,2.1l-5.9,2.9"/>
			<path class="st1" d="M51.3,152.7l-0.9,0.4c0-1.2-1-1-1-1l-6.5,3.2c-1.1,0.8-0.9,2-0.9,2l0,8.8c0,0,0.3,1.1,1.3,0.6
				c1-0.5,6.2-3,6.2-3s1.1-0.7,0.9-2l16.5-8.2v-0.8c0,0,2.9-1,3.2-2.2l0.3-1l0-1.7c0,0-0.2-1.8-1.4-3.3V143"/>
			<path class="st1" d="M64.9,154.5v-0.8c0,0,2.9-1,3.2-2.2l0.3-1l0-1.7c0,0-0.2-1.8-1.4-3.3V144"/>
			<polyline class="st1" points="51.4,161.3 51.4,151.7 60.8,147.1 			"/>
			<line class="st1" x1="57.9" y1="157.9" x2="57.9" y2="148.6"/>
			<polyline class="st1" points="119.6,159.8 124.4,157.4 124.4,161.6 			"/>
			<polyline class="st1" points="119,154.7 119.4,154.5 124.4,157.1 			"/>
			<polyline class="st1" points="124.5,158 132.3,162 133.4,161.4 			"/>
			<path class="st1" d="M138.1,160.5c0,0.7-1,1.2-2.3,1.2c-1.3,0-2.3-0.5-2.3-1.2"/>
			<path class="st1" d="M135.8,167.5c1.3,0,2.3-0.5,2.3-1.2v-5.8"/>
			<line class="st1" x1="133.5" y1="160.5" x2="133.5" y2="166.3"/>
			<path class="st1" d="M126.8,127.7"/>
			<line class="st1" x1="125.8" y1="122.3" x2="121" y2="124.7"/>
			<polyline class="st1" points="121,124.7 121,126.3 125.5,128.6 			"/>
			<path class="st1" d="M65.3,145.3c0,0,3,2.7,0.1,8.2"/>
			<line class="st1" x1="68.7" y1="155" x2="68.7" y2="151.9"/>
			<g>
				<polygon class="st1" points="87.1,156.8 73.8,150.3 73.8,155.6 87.2,162.3 				"/>
				<polyline class="st1" points="87.2,162.3 88.5,161.7 88.4,156.2 75.1,149.6 73.8,150.3 				"/>
				<line class="st1" x1="73.8" y1="155.6" x2="79" y2="152.9"/>
				<polyline class="st1" points="80.4,153.7 80.4,158.8 85.6,156.2 				"/>
				<line class="st1" x1="87.1" y1="156.8" x2="88.4" y2="156.2"/>
			</g>
			<g>
				<polygon class="st1" points="99.4,162.3 89.6,157.3 89.6,163.7 99.5,168.8 				"/>
				<polyline class="st1" points="99.5,168.8 101.2,167.7 101.1,161.2 91.2,156.3 89.6,157.3 				"/>
				<line class="st1" x1="89.6" y1="163.4" x2="94.2" y2="161.4"/>
				<polyline class="st1" points="94.4,159.9 94.4,166.1 99,164 				"/>
				<line class="st1" x1="99.4" y1="162.3" x2="100.7" y2="161.6"/>
			</g>
			<g>
				<polygon class="st1" points="107.3,166.2 102.2,163.7 102.2,170 107.4,172.7 				"/>
				<polyline class="st1" points="107.4,172.7 109,171.7 108.9,165.2 103.8,162.6 102.2,163.7 				"/>
				<path class="st1" d="M102,165.4"/>
				<line class="st1" x1="102.2" y1="170" x2="106.9" y2="168"/>
				<line class="st1" x1="107.3" y1="166.2" x2="108.6" y2="165.6"/>
			</g>
			<path class="st1" d="M120.5,212.4l14.2-7c0,0,1.3-0.4,1.3,0.8c0,1.3,0.1,7,0.1,7s-0.4,1.6-1.3,2.2s-14.4,7.2-14.4,7.2
				s-1.2,0-1.2-1.3s0.1-6.7,0.1-6.7S119.4,212.8,120.5,212.4z"/>
			<path class="st1" d="M146.2,199.7l6.3-3.1c0,0,0.8-0.7,0.8,0.2c0.1,0.8,0,8.3,0,8.3s0.1,0.5-0.6,0.9c-0.7,0.4-6.5,3.3-6.5,3.3
				s-0.7,0-0.7-0.8s0.1-7.9,0.1-7.9S145.8,199.8,146.2,199.7z"/>
			
				<ellipse transform="matrix(0.498 -0.8672 0.8672 0.498 -107.1276 223.8567)" class="st1" cx="139.8" cy="204.5" rx="2" ry="1.4"/>
			<ellipse transform="matrix(0.498 -0.8672 0.8672 0.498 -80.3418 240.6013)" class="st1" cx="167.6" cy="189.7" rx="2" ry="1.4"/>
			<ellipse transform="matrix(0.498 -0.8672 0.8672 0.498 -81.6988 245.2313)" class="st1" cx="171" cy="193.2" rx="2" ry="1.4"/>
			<ellipse transform="matrix(0.498 -0.8672 0.8672 0.498 -89.2548 246.084)" class="st1" cx="167.9" cy="200.1" rx="2" ry="1.4"/>
			<ellipse transform="matrix(0.498 -0.8672 0.8672 0.498 -76.5336 255.0601)" class="st1" cx="182" cy="193.6" rx="2" ry="1.4"/>
			
				<ellipse transform="matrix(0.498 -0.8672 0.8672 0.498 -91.3915 238.3372)" class="st1" cx="160.2" cy="198.1" rx="1.3" ry="0.9"/>
			
				<ellipse transform="matrix(0.498 -0.8672 0.8672 0.498 -112.8534 227.1713)" class="st1" cx="139.8" cy="211.1" rx="2" ry="1.4"/>
			<line class="st1" x1="111.5" y1="210.4" x2="116.3" y2="208.1"/>
			<path class="st1" d="M107.2,203.2c1.7-0.3,3,0.1,3,0.1s3.1,1.2,4.6,2.1c1.7,1,1.7,2.3,1.7,2.3v23.3c0,0,0.3,0.9-0.7,1.4
				c-1.2,0.6-4.7,2.4-4.7,2.4s-1.3,0.4-3.3-0.5c-1.9-0.9-9.4-4.8-12.1-17.3c0,0-1.7-10,5.9-12.4c0,0,4.9-0.5,5-2.1
				c0,0-0.5-0.9-5.3,2"/>
			<path class="st1" d="M111.3,234.5v-22.9c0,0,0.2-2.3-1-3.1l-5.7-2.6c0,0-1.7-0.6-4.4,0.4"/>
			<path class="st1" d="M102.6,229.1c0,0-4.4-3.8-5.8-12.6c0,0-0.9-8.7,5-9.9c0,0,2.1-0.9,8.4,3v24.3c0,0-1.6,0.2-4-1.6"/>
			<path class="st1" d="M110,215.3l-1.3-0.6c0,0-3.5-0.4-5.5,4.7c0,0-0.5,2.5-0.5,3.9c-0.1,1.5,0.1,6.6,0.1,6.6s1.3,3.7,4.7,2.1
				c0,0,2.5-1.7,2.7-3.1"/>
			<path class="st1" d="M103.3,206.7c0,0-2.9,5.3-0.1,12.6"/>
			<path class="st1" d="M110.1,216.5l-1.2-0.7c0,0-3.4,0.3-4.7,5.4v8.2c0,0-0.3,3.6,4.1,1.8"/>
			
				<ellipse transform="matrix(0.4022 -0.9156 0.9156 0.4022 -116.8165 135.535)" class="st1" cx="45.4" cy="157.2" rx="1.6" ry="1.2"/>
			
				<ellipse transform="matrix(0.4022 -0.9156 0.9156 0.4022 -122.2185 139.0624)" class="st1" cx="45.4" cy="163.1" rx="1.6" ry="1.2"/>
			<ellipse class="st1" cx="83" cy="140.1" rx="2.1" ry="1"/>
			<ellipse class="st1" cx="106.8" cy="152" rx="2.1" ry="1"/>
			<path class="st1" d="M85.4,152.8v-2.3c0.1-0.9-0.8-1.5-0.8-1.5l-8.7-4.4c-1-0.4-0.9,0.7-0.9,0.7v2.4c0,0-0.1,0.7,0.7,1.1l9,4.6
				C84.7,153.3,85.3,153.7,85.4,152.8z"/>
			<path class="st1" d="M75.2,144.5l0.9-0.5c0,0,0.4-0.2,0.8,0l8.6,4.3c0,0,0.9,0.6,0.8,1.5v2.3c0,0.6-0.2,0.7-0.2,0.7l-1.2,0.6"/>
			<path class="st1" d="M89.4,153.3"/>
			<path class="st1" d="M239.4,144.5l-10.6,5.4c0,0,1.4,0.2,1.2,1.3"/>
			<polyline class="st1" points="229.5,150.4 225.6,152.3 224.8,151.9 210.6,159.2 210.6,160.9 			"/>
			<path class="st1" d="M210.6,159.2l-14.1-6.8l1.5-2.2l3.7-1.8c0,0,0.4-0.3,1,0c0.6,0.3,1.9,0.9,1.9,0.9"/>
			<line class="st1" x1="127.6" y1="111.8" x2="80.8" y2="135.3"/>
			<path class="st2" d="M286.9,128.8c0,0,1.2,0.9-0.1,2l-0.6,0.3l-12.9,6.4c0,0-0.5,0.4-0.5,1s0.1,3.7,0.1,3.7s-0.1,0.7,0.7,0.4
				s13.1-6.5,13.1-6.5s0.9-0.3,0.9,0.6s0,1.6,0,1.6s0.5,0.7,1-0.3c0,0,0.9-0.9-0.8-2.3s-1.3-1.4-1.3-1.4l0.1-3.2"/>
			<line class="st2" x1="288.9" y1="137.2" x2="296" y2="133.5"/>
			<path class="st2" d="M285.1,131.7l0,1.3c0,0,0.2,0.4-0.5,0.8c-0.2,0.1-0.5,0.2-0.7,0.3c-0.4,0.2-0.7,0.3-0.7,0.3l0,1.5l1.6-0.8"
				/>
			<path class="st2" d="M283.9,134.2l0.7,0.4c0,0,0.6,0.3,0.4,1.2l0,1.1"/>
			<path class="st1" d="M240.3,146.1c0,0,0-1.2,1-1.7c1-0.5,8.9-4.3,8.9-4.3s0.4-0.5,1.5,0.2"/>
			<path class="st1" d="M241.4,146.2c0,0,0-0.9,1.3-1.6c1.3-0.6,8-3.9,8-3.9s0.9-0.4,1.5-0.1"/>
			<path class="st1" d="M241.8,150.6l10.2-5.1c0,0,0.8-0.3,0.1-1.1l0-6.1"/>
			<line class="st1" x1="196.9" y1="152.6" x2="196.9" y2="157.7"/>
			<path class="st1" d="M196.7,156.5c0,0-0.9,1,0.6,1.6c0.4,0.1,0.9,0.4,1.5,0.7c0.8,0.4,1.7,0.8,2.5,1.2"/>
			<line class="st1" x1="143.9" y1="159.1" x2="143.8" y2="162.1"/>
			<polyline class="st1" points="143.8,161.7 143.1,162.1 145.5,163.3 			"/>
			<path class="st1" d="M120.1,155.4c0,0,0.9,0.5,0.9,1c0,0.8,0,0.9,0,0.9s0.1,0.8-0.9,1.4c-0.2,0.1-0.6,0.3-1,0.5"/>
			<path class="st1" d="M113.1,158.9c0,0,0.6,0.2,0.6,0.7"/>
			<polyline class="st1" points="124.4,158.4 123,159.1 123,160.9 			"/>
			<path class="st1" d="M148.5,151.3v-4c0,0-0.1-1.7,1.3-1.6c0,0,0.9,0.4,0.9,2.5"/>
			<path class="st1" d="M153,144.3c0,0,1,0.1,1,2.2"/>
			<path class="st1" d="M157.3,145c0-2-1-2.2-1-2.2v5.6"/>
			<line class="st1" x1="149.4" y1="145.7" x2="157.9" y2="141.7"/>
			<line class="st1" x1="153" y1="144.3" x2="153" y2="147.2"/>
			<path class="st1" d="M160.2,141.9c0.2,0.3,0.3,0.8,0.3,1.6"/>
			<line class="st1" x1="159.6" y1="144" x2="159.6" y2="142"/>
			<path class="st1" d="M196.9,154.3c-1.1-0.1-1.9-0.5-1.9-1V152"/>
			<g>
				<polyline class="st1" points="208.1,136.3 208.1,135 206,136 206,142.3 205,141.8 205,142.8 				"/>
				<polyline class="st1" points="206.5,142.7 207.6,143.1 207.6,136.8 209.7,135.8 209.7,137.2 				"/>
				<polyline class="st1" points="208.1,143.5 209.1,144 209.1,137.7 211.2,136.7 211.2,138 				"/>
				<polyline class="st1" points="209.6,144.3 210.6,144.8 210.6,138.5 212.7,137.5 212.7,138.9 				"/>
				<polyline class="st1" points="212.2,144.5 212.2,139.4 214.3,138.4 214.3,139.8 				"/>
				<polyline class="st1" points="213.7,143.9 213.7,140.2 215.8,139.2 215.8,142.7 				"/>
			</g>
			<g>
				<polyline class="st1" points="208.9,136.2 208.9,134.5 211,133.5 211,134.9 				"/>
				<polyline class="st1" points="210.5,137 210.5,135.4 212.6,134.3 212.6,135.7 				"/>
				<polyline class="st1" points="212,137.9 212,136.2 214.1,135.2 214.1,136.5 				"/>
				<polyline class="st1" points="213.5,138.7 213.5,137 215.6,136 215.6,137.4 				"/>
				<polyline class="st1" points="215.1,139.6 215.1,137.9 217.2,136.9 217.2,138.3 				"/>
				<polyline class="st1" points="216.6,142.4 216.6,138.7 218.7,137.7 218.7,141.2 				"/>
			</g>
			<g>
				<polyline class="st1" points="211.8,134.7 211.8,133 213.9,132 213.9,133.4 				"/>
				<polyline class="st1" points="213.4,135.5 213.4,133.9 215.5,132.8 215.5,134.2 				"/>
				<polyline class="st1" points="214.9,136.4 214.9,134.7 217,133.7 217,135.1 				"/>
				<polyline class="st1" points="216.4,137.2 216.4,135.6 218.5,134.5 218.6,135.9 				"/>
				<polyline class="st1" points="218,138.1 218,136.4 220.1,135.4 220.1,136.8 				"/>
				<polyline class="st1" points="219.5,140.9 219.5,137.2 221.6,136.2 221.6,139.7 				"/>
			</g>
			<g>
				<polyline class="st1" points="214.7,133.2 214.7,131.5 216.8,130.5 216.8,131.9 				"/>
				<polyline class="st1" points="216.2,134 216.2,132.4 218.3,131.4 218.3,132.7 				"/>
				<polyline class="st1" points="217.8,134.9 217.8,133.2 219.9,132.2 219.9,133.6 				"/>
				<polyline class="st1" points="219.3,135.7 219.3,134.1 221.4,133 221.4,134.5 				"/>
				<polyline class="st1" points="220.8,136.6 220.8,134.9 222.9,133.9 223,135.3 				"/>
				<polyline class="st1" points="222.4,139.4 222.4,135.8 224.5,134.7 224.5,138.2 				"/>
			</g>
			<g>
				<polyline class="st1" points="217.4,131.8 217.4,130.2 219.5,129.2 219.5,130.5 				"/>
				<polyline class="st1" points="218.9,132.7 218.9,131 221,130 221,131.4 				"/>
				<polyline class="st1" points="220.5,133.5 220.5,131.9 222.6,130.9 222.6,132.2 				"/>
				<polyline class="st1" points="222,134.4 222,132.7 224.1,131.7 224.1,133.1 				"/>
				<polyline class="st1" points="223.6,135.2 223.6,133.6 225.7,132.5 225.7,134 				"/>
				<polyline class="st1" points="225.1,138.1 225.1,134.4 227.2,133.4 227.2,136.8 				"/>
			</g>
			<g>
				<polyline class="st1" points="220.2,130.4 220.2,128.8 222.3,127.8 222.3,129.1 				"/>
				<polyline class="st1" points="221.7,131.3 221.7,129.6 223.8,128.6 223.8,130 				"/>
				<polyline class="st1" points="223.3,132.2 223.3,130.5 225.4,129.5 225.4,130.8 				"/>
				<polyline class="st1" points="224.8,133 224.8,131.3 226.9,130.3 226.9,131.7 				"/>
				<polyline class="st1" points="226.3,133.9 226.3,132.2 228.4,131.2 228.4,132.6 				"/>
				<polyline class="st1" points="227.9,136.7 227.9,133 230,132 230,135.4 				"/>
			</g>
			<g>
				<polyline class="st1" points="223,129.1 223,127.4 225.1,126.4 225.1,127.7 				"/>
				<polyline class="st1" points="224.5,129.9 224.5,128.2 226.6,127.2 226.6,128.6 				"/>
				<polyline class="st1" points="226,130.8 226,129.1 228.1,128.1 228.2,129.4 				"/>
				<polyline class="st1" points="227.6,131.6 227.6,129.9 229.7,128.9 229.7,130.3 				"/>
				<polyline class="st1" points="229.1,132.5 229.1,130.8 231.2,129.8 231.2,131.2 				"/>
				<polyline class="st1" points="230.7,135.3 230.7,131.6 232.8,130.6 232.8,134.1 				"/>
			</g>
			<g>
				<polyline class="st1" points="225.7,127.7 225.7,126 227.8,125 227.9,126.4 				"/>
				<polyline class="st1" points="227.3,128.5 227.3,126.9 229.4,125.8 229.4,127.2 				"/>
				<polyline class="st1" points="228.8,129.4 228.8,127.7 230.9,126.7 230.9,128 				"/>
				<polyline class="st1" points="230.4,130.2 230.4,128.5 232.5,127.5 232.5,128.9 				"/>
				<polyline class="st1" points="231.9,131.1 231.9,129.4 234,128.4 234,129.8 				"/>
				<polyline class="st1" points="233.4,133.9 233.4,130.2 235.5,129.2 235.6,132.7 				"/>
			</g>
			<g>
				<polyline class="st1" points="228.5,126.3 228.5,124.6 230.6,123.6 230.6,125 				"/>
				<polyline class="st1" points="230.1,127.1 230.1,125.5 232.2,124.4 232.2,125.8 				"/>
				<polyline class="st1" points="231.6,128 231.6,126.3 233.7,125.3 233.7,126.7 				"/>
				<polyline class="st1" points="233.1,128.8 233.1,127.2 235.2,126.1 235.3,127.5 				"/>
				<polyline class="st1" points="234.7,129.7 234.7,128 236.8,127 236.8,128.4 				"/>
				<polyline class="st1" points="236.2,132.5 236.2,128.8 238.3,127.8 238.3,131.3 				"/>
			</g>
			<g>
				<polyline class="st1" points="245.3,117.8 245.3,116.1 247.4,115.1 247.5,116.5 				"/>
				<polyline class="st1" points="246.9,118.7 246.9,117 249,116 249,117.3 				"/>
				<polyline class="st1" points="248.4,119.5 248.4,117.8 250.5,116.8 250.5,118.2 				"/>
				<polyline class="st1" points="250,120.4 250,118.7 252.1,117.7 252.1,119.1 				"/>
				<polyline class="st1" points="251.5,120.6 251.5,119.5 253.6,118.5 253.6,119.6 				"/>
			</g>
			<g>
				<polyline class="st1" points="235.6,124.2 235.6,122.8 237.7,121.7 237.7,123.1 				"/>
				<polyline class="st1" points="237.1,125.1 237.1,123.6 239.2,122.6 239.2,124 				"/>
				<polyline class="st1" points="238.7,125.9 238.7,124.5 240.8,123.4 240.8,124.9 				"/>
				<polyline class="st1" points="240.2,126.8 240.2,125.3 242.3,124.3 242.3,125.5 				"/>
			</g>
			<g>
				<polyline class="st1" points="238.4,122.8 238.4,121.3 240.5,120.3 240.5,121.7 				"/>
				<polyline class="st1" points="240,123.7 240,122.2 242.1,121.2 242.1,122.6 				"/>
				<polyline class="st1" points="241.5,124.5 241.5,123 243.6,122 243.6,123.4 				"/>
				<polyline class="st1" points="243.1,125.1 243.1,123.9 245.2,122.8 245.2,124 				"/>
			</g>
			<g>
				<polyline class="st1" points="241.3,121.3 241.3,119.9 243.4,118.9 243.4,120.2 				"/>
				<polyline class="st1" points="242.8,122.3 242.8,120.7 244.9,119.7 244.9,121.1 				"/>
				<polyline class="st1" points="244.4,123.1 244.4,121.6 246.5,120.6 246.5,122 				"/>
				<polyline class="st1" points="245.9,123.7 245.9,122.4 248,121.4 248,122.6 				"/>
			</g>
			<g>
				<polyline class="st1" points="244.1,119.9 244.1,118.4 246.2,117.4 246.2,118.8 				"/>
				<polyline class="st1" points="245.7,120.8 245.7,119.3 247.8,118.3 247.8,119.7 				"/>
				<polyline class="st1" points="247.2,121.6 247.2,120.1 249.3,119.1 249.3,120.6 				"/>
				<polyline class="st1" points="248.7,122.2 248.7,121 250.8,120 250.8,121.1 				"/>
			</g>
			<g>
				<polyline class="st1" points="231.3,124.9 231.3,123.2 233.4,122.2 233.4,123.6 				"/>
				<polyline class="st1" points="232.8,125.7 232.8,124.1 234.9,123.1 235,124.4 				"/>
				<polyline class="st1" points="234.4,126.6 234.4,124.9 236.5,123.9 236.5,125.3 				"/>
				<polyline class="st1" points="235.9,127.4 235.9,125.8 238,124.7 238,126.2 				"/>
				<polyline class="st1" points="237.5,128.3 237.5,126.6 239.6,125.6 239.6,127 				"/>
				<polyline class="st1" points="239,129.9 239,127.5 241.1,126.4 				"/>
			</g>
			<polyline class="st1" points="202.4,145.8 202.8,145.6 203.3,145.9 206.6,144.2 			"/>
			<line class="st1" x1="204.5" y1="148.4" x2="202.9" y2="147.6"/>
			<line class="st1" x1="207" y1="147.2" x2="204" y2="145.6"/>
			<polyline class="st1" points="205,145 205,142.8 210.5,145.5 			"/>
			<ellipse transform="matrix(0.2857 -0.9583 0.9583 0.2857 17.37 341.582)" class="st1" cx="237.8" cy="159.1" rx="1.9" ry="1.4"/>
			
				<ellipse transform="matrix(0.2857 -0.9583 0.9583 0.2857 43.4239 354.4564)" class="st1" cx="259.5" cy="148.1" rx="1.9" ry="1.4"/>
			<path class="st1" d="M277,118c0.2-0.8,0.8-1.5,1.7-1.7c1.2-0.2,2.3,0.5,2.6,1.6c0.2,0.8-0.1,1.5-0.7,2"/>
			<path class="st1" d="M275.4,117c0.2-0.8,0.8-1.5,1.7-1.7c0.8-0.2,1.7,0.1,2.1,0.7"/>
			<path class="st1" d="M273.7,116.1c0.2-0.8,0.8-1.5,1.7-1.7c0.8-0.2,1.7,0.1,2.1,0.7"/>
			<path class="st1" d="M271.9,115.1c0.2-0.8,0.8-1.5,1.7-1.7c0.8-0.2,1.7,0.1,2.1,0.7"/>
			<line class="st1" x1="263.6" y1="114.7" x2="263.6" y2="117.4"/>
			<line class="st1" x1="264.9" y1="114.5" x2="264.9" y2="116.7"/>
			<path class="st1" d="M175.1,101.4c-2.2-0.8-3-4.2-1.7-7.5c1.2-3.3,4-5.3,6.2-4.5c2.2,0.8,3,4.2,1.7,7.5c-0.2,0.5-0.4,1-0.7,1.4"
				/>
			<path class="st1" d="M172.9,92.1c1.3-2.3,3.5-3.7,5.3-3.2l1.4,0.6"/>
			<path class="st1" d="M174,100.9"/>
			<path class="st1" d="M178.1,88.7l0.9-0.5c0,0,3.4,0.7,3.7,4.8v4.7"/>
			<path class="st1" d="M169.2,99.6c0,0-0.3-6.4,1.9-7.4l1.3,0.6c0,0,0.4,0.7,0,1.7c-0.4,1-0.5,5.6-0.4,6.4"/>
			<path class="st1" d="M171.2,92.2l0.6-0.3l1.3,0.6c0,0,0.3,0.5,0.2,1.2c-0.1,0.7-1.5,6,0.7,7.3"/>
			<polyline class="st1" points="180.5,99.2 180.4,97.9 179.8,97.7 175.1,100 175.8,100.2 175.8,101.2 			"/>
			<g>
				<line class="st1" x1="177.6" y1="93.3" x2="177.7" y2="96"/>
				<line class="st1" x1="176.4" y1="95.2" x2="178.9" y2="94.2"/>
			</g>
			
				<ellipse transform="matrix(0.9011 -0.4336 0.4336 0.9011 -23.3921 104.0878)" class="st1" cx="216.5" cy="103.3" rx="1.4" ry="1.9"/>
			<text transform="matrix(0.7325 -0.3565 6.281000e-02 0.998 242.5352 149.4968)" class="st3 st4">PUSH</text>
		</g>
		<g>
			<g>
				<path class="st1" d="M145.9,195.4L113.1,179c0,0-0.7,0.1-0.7-2.2c0-2.2,0-13.6,0-13.6s0.1-1.6,1.5-1.3l3.2,1.6v-1l42.3,21.1
					c0,0,1,0.5,1,1.5v1.8"/>
				<path class="st1" d="M153.4,190.3l-4.9-2.4c0,0-0.5-0.3-0.5,0.8c0.1,1.4,0,5.5,0,5.5"/>
				<g>
					<polygon class="st1" points="146.2,194.5 137.5,190.1 137.5,182.4 146.2,186.8 					"/>
					<polygon class="st1" points="124.3,180.9 115.5,176.5 115.5,170.9 124.3,175.3 					"/>
					<polygon class="st1" points="134.5,186.4 127.5,182.9 127.5,177.5 134.5,181 					"/>
					<g>
						<polyline class="st1" points="140.2,189.3 138.6,188.5 138.6,184 145.1,187.3 145.1,191.8 143.5,191 						"/>
						<polyline class="st1" points="143.5,191 143.5,191.9 140.2,190.3 140.2,189.3 						"/>
					</g>
				</g>
				<polygon class="st1" points="123.4,178.9 117.1,175.8 117.1,172.7 123.4,175.8 				"/>
				<path class="st1" d="M129.4,179.5l3.4,1.7c0,0,0.9,0.5,0.8,1.4c-0.1,0.9-0.2,1-0.9,1c-0.7-0.1-3.2-1.5-3.2-1.5s-0.8-0.8-0.8-1.6
					S129.4,179.5,129.4,179.5z"/>
				<polyline class="st1" points="155.2,189.7 129.1,176.7 129.1,171.4 155.7,184.6 155.7,189.4 				"/>
				<polyline class="st1" points="129.1,171.3 130.3,170.7 157,184 157,188.6 				"/>
				<line class="st1" x1="129.1" y1="176.7" x2="134.3" y2="174.1"/>
				<polyline class="st1" points="135.7,174.7 135.7,180 140.6,177.3 				"/>
				<polyline class="st1" points="142.4,178 142.4,183.3 147.5,180.6 				"/>
				<polyline class="st1" points="149,181.3 149,186.5 154.1,183.9 				"/>
				<line class="st1" x1="155.7" y1="184.6" x2="157" y2="184"/>
				<path class="st1" d="M164.4,182.2c0,0,0.1-0.8-0.7-1.1l-3,1.7l-43.1-21.4c-1.6,0.3-1.6,1.6-1.6,1.6"/>
				<path class="st1" d="M119.7,160c0,0-1.9-0.9-2.7-1.4c-0.6-0.3-1.2-0.1-1.2-0.1s-1.1,0.6-2.1,1c-0.2,0.1-0.4,0.2-0.6,0.3
					c-0.6,0.4-0.6,1.1-0.6,1.1v1.5"/>
				<line class="st1" x1="116.3" y1="161.8" x2="113" y2="160.1"/>
				<path class="st1" d="M117.7,161.4l2.5-1.2c0,0,0.5-0.2,1,0c0.2,0.1,7.2,3.6,15.4,7.7c12,6,27.2,13.3,27.2,13.3l14.3-7.7"/>
				<polyline class="st1" points="136.6,167.9 151.5,160.2 178.1,173.5 178.2,176.8 				"/>
				<path class="st1" d="M181.3,175.3v-3.6l8.8-4.4c0,0,1-0.5,1.8-0.1c0.8,0.4,2.6,1.4,2.6,1.4"/>
				<g>
					<ellipse class="st1" cx="135.8" cy="153.7" rx="3.7" ry="1.9"/>
					<path class="st1" d="M139.4,157.3c0,1.1-1.6,1.9-3.7,1.9s-3.7-0.9-3.7-1.9"/>
					<path class="st1" d="M132.1,153.7v4.9c0,1.1,1.6,1.9,3.7,1.9s3.7-0.9,3.7-1.9v-4.7"/>
					<line class="st1" x1="134.5" y1="152.8" x2="136.9" y2="154.1"/>
					<line class="st1" x1="134.2" y1="154.2" x2="137" y2="152.7"/>
				</g>
				<g>
					<ellipse class="st1" cx="197.4" cy="140.4" rx="3.7" ry="1.9"/>
					<path class="st1" d="M201.1,144c0,1.1-1.6,1.9-3.7,1.9s-3.7-0.9-3.7-1.9"/>
					<path class="st1" d="M193.8,140.4v4.9c0,1.1,1.6,1.9,3.7,1.9s3.7-0.9,3.7-1.9v-4.7"/>
					<line class="st1" x1="196.1" y1="139.5" x2="198.5" y2="140.8"/>
					<line class="st1" x1="195.8" y1="140.9" x2="198.7" y2="139.4"/>
				</g>
				<g>
					<ellipse class="st1" cx="200.1" cy="161.9" rx="3.7" ry="1.9"/>
					<line class="st1" x1="203.8" y1="163.9" x2="203.8" y2="162.1"/>
					<line class="st1" x1="196.5" y1="161.9" x2="196.5" y2="167.5"/>
					<line class="st1" x1="198.8" y1="161" x2="201.2" y2="162.3"/>
					<line class="st1" x1="198.6" y1="162.4" x2="201.4" y2="160.9"/>
				</g>
				<path class="st1" d="M166.3,141.2l11.8-5.9c0,0,1.2-0.8,2.3-0.3c1,0.5,13.3,6.8,13.3,6.8"/>
				<line class="st1" x1="139.8" y1="154.1" x2="148.1" y2="150.1"/>
				<ellipse class="st1" cx="145.8" cy="153.6" rx="2.1" ry="1.1"/>
				<path class="st1" d="M147.2,155.2c0.1,0.1,0.1,0.2,0.2,0.3c0.1,0.4-0.5,0.8-1.4,1c-0.8,0.1-1.5-0.1-1.6-0.6
					c0-0.2,0.1-0.4,0.3-0.6"/>
				<path class="st1" d="M147,156.3c0.2,0.1,0.3,0.2,0.4,0.4c0.1,0.4-0.5,0.8-1.4,1c-0.8,0.1-1.5-0.1-1.6-0.6c0-0.2,0.2-0.5,0.5-0.7
					"/>
				<path class="st1" d="M143.7,153.7v0.8c0,0.6,0.9,1.1,2.1,1.1s2.1-0.5,2.1-1.1v-0.9"/>
				<path class="st1" d="M188.9,153.7l14-7c0,0,0.2-0.5-0.3-0.7c-0.4-0.2-1.3-0.6-1.3-0.6"/>
				<ellipse class="st1" cx="187.4" cy="154.5" rx="1.9" ry="0.9"/>
				<path class="st1" d="M188.5,158c0.2,0.1,0.2,0.2,0.2,0.4c0,0.3-0.6,0.6-1.4,0.6"/>
				<path class="st1" d="M187.4,156.5c1.1,0,1.9-0.4,1.9-0.9v-1.1"/>
				<path class="st1" d="M188.6,156.3c0.1,0.1,0.2,0.2,0.2,0.3c0,0.3-0.6,0.7-1.3,0.8"/>
				<path class="st1" d="M188.4,157.1c0.2,0.1,0.3,0.2,0.4,0.3c0,0.3-0.6,0.7-1.3,0.8"/>
				<line class="st1" x1="189.6" y1="154.8" x2="197.1" y2="150.8"/>
				<line class="st1" x1="202.9" y1="146.6" x2="202.9" y2="147.8"/>
				<polyline class="st1" points="170.5,169.4 191,159.1 191,158.2 188.8,157.1 				"/>
				<line class="st1" x1="187.5" y1="159.9" x2="191" y2="158.2"/>
				<g>
					<polyline class="st1" points="164.8,166.9 164.8,164.2 167.3,163.1 167.3,165.4 					"/>
					<polyline class="st1" points="162.4,165.8 162.4,163.1 164.8,161.9 164.8,164.3 					"/>
					<polyline class="st1" points="159.8,164.5 159.8,161.8 162.3,160.6 162.3,163 					"/>
					<polyline class="st1" points="157.3,163.2 157.3,160.5 159.7,159.3 159.7,161.7 					"/>
					<polyline class="st1" points="154.8,161.9 154.8,159.3 157.2,158.1 157.2,160.5 					"/>
					<polyline class="st1" points="152.2,160.6 152.2,158 154.6,156.8 154.6,159.2 					"/>
					<polyline class="st1" points="149.7,160.9 149.7,156.7 152.2,155.5 152.2,157.9 					"/>
					<polyline class="st1" points="149.8,156.5 149.8,154.2 147.4,155.3 147.4,159.5 146.6,159.1 					"/>
					<polyline class="st1" points="167.3,168.1 167.3,165.6 169.8,164.4 169.8,169.2 					"/>
					<polyline class="st1" points="173.3,167 173.3,162.6 170.8,163.8 170.8,167.8 171.3,168 170,168.7 					"/>
					<polyline class="st1" points="170.8,163.6 170.8,161.3 168.3,162.5 168.3,165 					"/>
					<polyline class="st1" points="174.3,161.9 174.3,159.6 171.8,160.8 171.8,163.3 					"/>
					<polyline class="st1" points="177.8,160.1 177.8,157.8 175.3,159 175.3,161.5 					"/>
					<polyline class="st1" points="181.3,158.4 181.3,156.1 178.8,157.3 178.8,159.8 					"/>
					<polyline class="st1" points="184.8,156.7 184.8,154.3 182.3,155.6 182.3,158.1 					"/>
					<g>
						<polyline class="st1" points="168.3,162.4 168.3,160 165.8,161.3 165.8,163.8 						"/>
						<polyline class="st1" points="171.8,160.7 171.8,158.3 169.3,159.5 169.3,162 						"/>
						<polyline class="st1" points="175.3,158.9 175.3,156.5 172.8,157.7 172.8,160.2 						"/>
						<polyline class="st1" points="178.8,157.2 178.8,154.8 176.3,156 176.3,158.5 						"/>
						<polyline class="st1" points="182.3,155.5 182.3,153.1 179.8,154.3 179.8,156.8 						"/>
						<polyline class="st1" points="185.8,153.7 185.8,151.3 183.3,152.5 183.3,155 						"/>
					</g>
					<polyline class="st1" points="176.8,165.3 176.8,160.9 174.3,162.1 174.3,166.1 174.8,166.3 173.5,167 					"/>
					<polyline class="st1" points="180.3,163.5 180.3,159.1 177.8,160.3 177.8,164.3 178.4,164.5 177.1,165.2 					"/>
					<polyline class="st1" points="183.8,161.7 183.8,157.3 181.3,158.5 181.3,162.5 181.8,162.8 180.5,163.4 					"/>
					<polyline class="st1" points="187.3,160 187.3,155.6 184.8,156.8 184.8,160.8 185.3,161.1 184,161.7 					"/>
				</g>
				<g>
					<polyline class="st1" points="165.9,161 165.8,158.7 163.3,159.9 163.3,162.4 					"/>
					<polyline class="st1" points="169.3,159.3 169.3,156.9 166.8,158.2 166.8,160.7 					"/>
					<polyline class="st1" points="172.9,157.5 172.9,155.2 170.4,156.4 170.4,158.9 					"/>
					<polyline class="st1" points="176.4,155.8 176.4,153.5 173.8,154.7 173.8,157.2 					"/>
					<polyline class="st1" points="179.9,154.1 179.8,151.7 177.3,152.9 177.3,155.4 					"/>
					<polyline class="st1" points="183.4,152.3 183.4,149.9 180.8,151.2 180.8,153.7 					"/>
				</g>
				<g>
					<polyline class="st1" points="163.3,159.8 163.3,157.4 160.8,158.6 160.8,161.1 					"/>
					<polyline class="st1" points="166.7,158.1 166.7,155.7 164.2,156.9 164.2,159.4 					"/>
					<polyline class="st1" points="170.3,156.3 170.3,153.9 167.8,155.1 167.8,157.6 					"/>
					<polyline class="st1" points="173.8,154.6 173.8,152.2 171.3,153.4 171.3,155.9 					"/>
					<polyline class="st1" points="177.3,152.8 177.3,150.5 174.8,151.7 174.8,154.2 					"/>
					<polyline class="st1" points="180.8,151.1 180.8,148.7 178.3,149.9 178.3,152.4 					"/>
				</g>
				<g>
					<polyline class="st1" points="160.7,158.7 160.7,156.4 158.2,157.6 158.2,160.1 					"/>
					<polyline class="st1" points="164.2,157 164.2,154.6 161.7,155.8 161.7,158.3 					"/>
					<polyline class="st1" points="167.8,155.2 167.8,152.8 165.2,154.1 165.2,156.6 					"/>
					<polyline class="st1" points="171.3,153.5 171.2,151.1 168.7,152.4 168.7,154.9 					"/>
					<polyline class="st1" points="174.7,151.8 174.7,149.4 172.2,150.6 172.2,153.1 					"/>
					<polyline class="st1" points="178.3,150 178.2,147.6 175.7,148.8 175.7,151.4 					"/>
				</g>
				<g>
					<polyline class="st1" points="158.3,157.3 158.2,155 155.7,156.2 155.7,158.7 					"/>
					<polyline class="st1" points="161.7,155.6 161.7,153.2 159.2,154.5 159.2,157 					"/>
					<polyline class="st1" points="165.3,153.8 165.3,151.5 162.8,152.7 162.8,155.2 					"/>
					<polyline class="st1" points="168.8,152.1 168.8,149.8 166.2,151 166.2,153.5 					"/>
					<polyline class="st1" points="172.3,150.4 172.2,148 169.7,149.2 169.7,151.8 					"/>
					<polyline class="st1" points="175.8,148.6 175.8,146.3 173.2,147.5 173.2,150 					"/>
				</g>
				<g>
					<polyline class="st1" points="155.7,156.1 155.7,153.7 153.2,155 153.2,157.5 					"/>
					<polyline class="st1" points="159.1,154.4 159.1,152 156.6,153.2 156.6,155.7 					"/>
					<polyline class="st1" points="162.7,152.6 162.7,150.2 160.2,151.4 160.2,153.9 					"/>
					<polyline class="st1" points="166.2,150.9 166.2,148.5 163.7,149.7 163.7,152.2 					"/>
					<polyline class="st1" points="169.7,149.1 169.7,146.8 167.2,148 167.2,150.5 					"/>
					<polyline class="st1" points="173.2,147.4 173.2,145 170.7,146.2 170.7,148.7 					"/>
				</g>
				<g>
					<polyline class="st1" points="153.2,154.9 153.2,152.5 150.7,153.7 150.7,156.2 					"/>
					<polyline class="st1" points="156.7,153.1 156.7,150.8 154.2,152 154.2,154.5 					"/>
					<polyline class="st1" points="160.3,151.3 160.2,149 157.7,150.2 157.7,152.7 					"/>
					<polyline class="st1" points="163.7,149.6 163.7,147.3 161.2,148.5 161.2,151 					"/>
					<polyline class="st1" points="167.2,147.9 167.2,145.5 164.7,146.8 164.7,149.3 					"/>
					<polyline class="st1" points="170.7,146.1 170.7,143.8 168.2,145 168.2,147.5 					"/>
				</g>
				<g>
					<polyline class="st1" points="150.7,153.5 150.7,151.1 148.2,152.3 148.2,154.8 					"/>
					<polyline class="st1" points="154.2,151.7 154.2,149.4 151.7,150.6 151.7,153.1 					"/>
					<polyline class="st1" points="157.8,150 157.8,147.6 155.2,148.8 155.2,151.3 					"/>
					<polyline class="st1" points="161.3,148.3 161.2,145.9 158.7,147.1 158.7,149.6 					"/>
					<polyline class="st1" points="164.7,146.5 164.7,144.2 162.2,145.4 162.2,147.9 					"/>
					<polyline class="st1" points="168.3,144.7 168.2,142.4 165.7,143.6 165.7,146.1 					"/>
				</g>
				<g>
					<polyline class="st1" points="151.7,150.4 151.7,148.1 149.1,149.3 149.1,151.8 					"/>
					<polyline class="st1" points="155.2,148.7 155.2,146.3 152.7,147.5 152.7,150 					"/>
					<polyline class="st1" points="158.7,147 158.7,144.6 156.2,145.8 156.2,148.3 					"/>
					<polyline class="st1" points="162.2,145.2 162.2,142.9 159.7,144.1 159.7,146.6 					"/>
					<polyline class="st1" points="165.7,143.5 165.7,141.1 163.2,142.3 163.2,144.8 					"/>
				</g>
				<polyline class="st1" points="149,161.4 141.9,158.1 141.9,157 144.1,155.9 				"/>
				<polyline class="st1" points="142.3,157.2 145.7,158.8 147.4,158 				"/>
				<line class="st1" x1="190.1" y1="159.8" x2="196.3" y2="162.9"/>
			</g>
			<ellipse class="st5" cx="121" cy="161.6" rx="1.1" ry="0.5"/>
			<ellipse class="st6" cx="160.5" cy="181.2" rx="1" ry="0.5"/>
		</g>
		<line class="st7" x1="161.1" y1="186.5" x2="160.9" y2="182.9"/>
	</g>
</g>
<g id="Call_out_copy">
	<g>
		<path class="st8" d="M148.6,49.9c0.8,0.7,1.9,1.4,3.1,1.9"/>
		<path class="st9" d="M172,21.8l-5-2.5c-4.3-0.8-10.4,2.7-15.7,10.3c-0.7,1-1.4,2.1-1.9,3.1"/>
		<path class="st9" d="M151.7,51.5c-3.9-2.7-2.4-11.5,3.3-19.6c5.7-8.1,13.4-12.6,17.2-9.9s2.4,11.5-3.3,19.6
			c-1.2,1.7-2.5,3.3-3.8,4.6"/>
	</g>
	<g>
		<path class="st1" d="M147.2,32.7c0,0-0.8-3-3.4-2.2c0,0-2.6,0.7-3.6,5s-1.2,6.9-1.2,6.9L139.1,58l6.3,3.7l0.1-15.3
			c0,0-0.7-4.6,1.4-10.8C146.8,35.6,147.4,33.8,147.2,32.7z"/>
		<path class="st1" d="M143.8,30.5l1.8-0.6c2.6-0.8,3.4,2.2,3.4,2.2c0.3,1.1-0.4,2.9-0.4,2.9c-2.1,6.3-1.4,10.8-1.4,10.8
			s1,5.5,3.2,6.9l-0.1,2.9l1.3-0.5v-1.9l0.6-1.4l16-6.5l1,0.7v1.6l1.4-0.5v-3c0,0,2.8-5.4,2.8-9.6"/>
		<path class="st1" d="M145.4,61.7l30-12.4V33.8c0,0,0.1-2.1-0.9-4.7"/>
		<polygon class="st1" points="157.4,51.3 163.1,49 163.2,52.1 157.4,54.5 		"/>
	</g>
	<g>
		<path class="st1" d="M191.8,34.5c0,0-0.8-3-3.4-2.2c0,0-2.6,0.7-3.6,5s-1.2,6.9-1.2,6.9l-0.1,15.6l6.3,3.7l0.1-15.3
			c0,0-0.7-4.6,1.4-10.8C191.4,37.4,192.1,35.6,191.8,34.5z"/>
		<path class="st1" d="M193.8,35.1"/>
		<path class="st1" d="M188.5,32.3l1.8-0.6c2.6-0.8,3.4,2.2,3.4,2.2c0.3,1.1-0.4,2.9-0.4,2.9c-2.1,6.3-1.4,10.8-1.4,10.8
			s1,5.5,3.2,6.9l-0.1,2.9l1.3-0.5v-1.9l0.6-1.4l16-6.5l1,0.7v1.6l1.4-0.5v-3c0,0,2.3-4.7,2.4-8.9c0,0,0-1.4-0.5-3.1"/>
		<path class="st1" d="M190,63.5l30-12.4V35.6c0,0,0.1-2.3-1-5"/>
		<polygon class="st1" points="202,53.2 207.8,50.8 207.8,53.9 202.1,56.3 		"/>
		<path class="st1" d="M192.7,50.8l8.4-3.2l2.2,1.2l2-2.2l3-0.9l0.8-2.1c0,0,0.9-1.1,1.6-2.8"/>
		<line class="st1" x1="205.5" y1="47" x2="208.4" y2="48.6"/>
		<path class="st1" d="M208.3,45.8l2.8,1.6c0,0,1.2-1.8-1-4l2.3,1.2c0,0,0.5,1.2-0.2,2.5"/>
		<polyline class="st1" points="215.4,36 217.5,37.2 219.5,36.5 		"/>
		<polyline class="st1" points="194.2,53 195.6,53 195.6,50 197.5,51.2 197.5,53 		"/>
		<polyline class="st1" points="197.5,51.2 198.4,51.4 202.4,49.8 203.3,48.8 		"/>
		<polyline class="st1" points="184.1,45.2 190.1,48.2 191.9,47.6 		"/>
	</g>
	<line class="st10" x1="164.2" y1="57.3" x2="175" y2="85.7"/>
	<line class="st11" x1="164.2" y1="57.3" x2="175" y2="85.7"/>
	<line class="st1" x1="165.1" y1="29.7" x2="161.4" y2="42.7"/>
	<line class="st1" x1="157.2" y1="38.2" x2="168.8" y2="34.1"/>
	<g>
		
			<ellipse transform="matrix(0.5707 -0.8212 0.8212 0.5707 66.3826 184.6248)" class="st1" cx="209.8" cy="28.8" rx="18.3" ry="8.7"/>
		<path class="st12" d="M193.3,37c0.1,0.8,0.2,1.6,0.5,2.2c0,0,2.4,4.7,7.2,5.3"/>
		<path class="st1" d="M219.9,13.5l-5.1-2.5c-4.4-0.9-10.6,2.7-16,10.5c-2.7,3.9-4.5,8-5.2,11.5"/>
	</g>
	<line class="st1" x1="212.8" y1="22" x2="209.1" y2="35"/>
	<g>
		<polygon class="st13" points="215.2,17.8 207.3,23.5 210.3,22.8 207.6,28.9 213.6,27.5 216.3,21.4 219.3,20.7 		"/>
		<polygon class="st13" points="205.8,39.2 213.7,33.4 210.7,34.1 213.4,28.1 207.4,29.4 204.7,35.5 201.7,36.2 		"/>
	</g>
	<g>
		<g>
			<path class="st14" d="M161.5,14.7l-8.6,1.5c0,0-0.2-5.5,7.7-6.9c1.6-0.3,3.5,0.1,4.5,0.6C162.5,12,161.6,13.3,161.5,14.7"/>
			<path class="st14" d="M160.6,8.5l7.2-1.3c5.8-0.9,8.4,3.4,8.4,3.4l4.5-0.8l-4.7,8L162.3,13l5.1-0.9c0,0-4.1-4.7-10.6-1.6
				L160.6,8.5z"/>
		</g>
		<polygon class="st15" points="151,16.1 163.3,14 158.2,18.1 		"/>
	</g>
</g>
<g id="Layer_5">
</g>
</svg>
