<?xml version="1.0" encoding="utf-8"?>
<!-- Generator: Adobe Illustrator 26.0.3, SVG Export Plug-In . SVG Version: 6.00 Build 0)  -->
<svg version="1.1" id="PCIE_x5F_CARDS" xmlns="http://www.w3.org/2000/svg" xmlns:xlink="http://www.w3.org/1999/xlink" x="0px"
	 y="0px" viewBox="0 0 468 274.241" style="enable-background:new 0 0 468 274.241;" xml:space="preserve">
<style type="text/css">
	.st0{fill:none;stroke:#231F20;stroke-width:0.5;stroke-linecap:round;stroke-linejoin:round;stroke-miterlimit:10;}
	.st1{fill:#D2D3D4;}
	.st2{fill:none;stroke:#231F20;stroke-width:0.5;stroke-miterlimit:10;}
	.st3{clip-path:url(#SVGID_00000080887416846856728960000016129918023118803132_);}
	.st4{clip-path:url(#SVGID_00000083049604680291620210000005150940138809605518_);}
	
		.st5{clip-path:url(#SVGID_00000083049604680291620210000005150940138809605518_);fill:none;stroke:#231F20;stroke-width:0.5;stroke-miterlimit:10;}
	.st6{clip-path:url(#SVGID_00000003816289692935752940000017961657712072529334_);}
	
		.st7{clip-path:url(#SVGID_00000003816289692935752940000017961657712072529334_);fill:none;stroke:#231F20;stroke-width:0.5;stroke-miterlimit:10;}
	.st8{fill:#2D2A26;stroke:#FFFFFF;stroke-width:0.5;stroke-linecap:round;stroke-linejoin:round;stroke-miterlimit:10;}
	.st9{clip-path:url(#SVGID_00000144327555468800818360000009635799764796627097_);}
	.st10{fill:#231F20;}
	.st11{fill:none;stroke:#FFFFFF;stroke-width:0.5;stroke-linecap:round;stroke-linejoin:round;}
	.st12{fill:#231F20;stroke:#FFFFFF;stroke-width:1.5;stroke-miterlimit:10;}
	.st13{fill:#FFFFFF;}
	.st14{fill:#231F20;stroke:#FFFFFF;stroke-width:0.75;stroke-linecap:round;stroke-linejoin:round;stroke-miterlimit:10;}
	.st15{fill:#2D2A26;}
	.st16{fill:none;stroke:#FFFFFF;stroke-miterlimit:10;}
	.st17{fill:#FFFFFF;stroke:#231F20;stroke-width:0.5;stroke-miterlimit:10;}
	.st18{fill:#FFFFFF;stroke:#FFFFFF;stroke-width:2;stroke-linecap:round;stroke-linejoin:round;stroke-miterlimit:10;}
	.st19{fill:none;stroke:#FFFFFF;stroke-width:2;stroke-linecap:round;stroke-linejoin:round;stroke-miterlimit:10;}
	
		.st20{fill:none;stroke:#231F20;stroke-width:0.5;stroke-linecap:round;stroke-linejoin:round;stroke-miterlimit:10;stroke-dasharray:2.0546;}
</style>
<g>
	<path class="st0" d="M242.433,103.247"/>
	<g>
		<path class="st0" d="M255.389,113.807"/>
	</g>
	<g>
		<path class="st0" d="M261.325,114.107"/>
		<path class="st0" d="M261.643,113.278"/>
		<path class="st0" d="M261.962,112.45"/>
	</g>
	<g>
		<path class="st0" d="M261.72,115.109"/>
	</g>
	<path class="st0" d="M281.938,121.098"/>
	<polygon class="st0" points="255.097,112.808 254.081,112.576 252.512,117.252 253.587,117.485 	"/>
	<polyline class="st0" points="252.512,117.456 252.57,118.85 253.696,119.096 253.616,117.543 	"/>
	<path class="st0" d="M253.788,119.004"/>
	<path class="st0" d="M282.68,124.458"/>
	<path class="st0" d="M285.83,119.804c0,0-1.135,0.077-1.368,0.903c0,0-0.335,0.852,0.852,0.723c0,0,1.187,0,1.548-0.877
		C286.862,120.553,287.017,119.624,285.83,119.804z"/>
	<path class="st0" d="M282.684,123.279l0.075,2.133c0,0,1.004,0.427,1.205-0.276l0.427-0.954l-0.025-1.686"/>
	<polyline class="st0" points="284.567,124.308 285.997,124.559 286.901,122.075 286.85,120.669 	"/>
	<polyline class="st0" points="285.495,121.523 285.52,123.706 286.223,123.832 	"/>
	<path class="st0" d="M285.596,119.652c0.108-0.888-0.173-0.953-0.173-0.953l-0.714-0.13l-0.123,1.505"/>
	<path class="st0" d="M284.657,121.466l-0.654,2.042c0,0-0.099,0.694-1.209,0.278"/>
	<path class="st0" d="M218.257,107.825c-1.14-0.534-0.675-1.443-0.675-1.443c0.442-0.885,1.629-0.279,1.629-0.279
		s1.303,0.349,0.954,1.536C220.165,107.639,220.096,108.686,218.257,107.825z"/>
	<polyline class="st0" points="220.34,106.691 220.703,105.747 222.063,105.996 221.961,107.602 220.371,112.553 	"/>
	<polyline class="st0" points="220.434,107.664 220.889,107.772 220.401,108.959 219.539,108.773 218.934,110.658 220.31,110.916 	
		"/>
	<polyline class="st0" points="219.77,108.965 217.949,108.626 217.965,109.9 217.562,109.819 217.546,110.544 218.755,110.77 	"/>
	<path class="st0" d="M219.335,109.223l-0.371,1.064c0,0-0.338,0.516,1.358,0.703l0.048,1.563l-1.052-0.107
		c0,0-0.435-0.016-0.435-0.435s-0.032-1.434-0.032-1.434"/>
	<polygon class="st0" points="249.132,116.694 250.422,117.053 250.422,118.408 249.132,118.049 	"/>
	<polyline class="st0" points="249.165,116.596 250.895,111.896 252.119,112.206 250.422,117.053 	"/>
	<polyline class="st0" points="250.422,118.408 252.07,113.691 252.136,112.271 	"/>
	<polyline class="st0" points="255.097,112.808 255.261,114.403 253.788,119.004 	"/>
</g>
<path class="st1" d="M198.307,158.383l-0.304-8.369l-32.412-6.695l-5.394,12.306l0.349,2.359l-1.048-0.262l-13.805,37.482
	l-2.359-0.524c0,0-1.311-0.437-1.485,1.136c-0.175,1.573-0.786,2.971-0.786,2.971s0.349,2.621,4.019,2.883
	c0,0,0.699,1.922,1.747,1.922v1.223l25.862,5.242v-1.048c0,0,1.66,0.262,1.747-1.223l-0.786-0.437c0,0,6.897,3.286,8.032-1.17
	l15.82-44.438L198.307,158.383z"/>
<path class="st1" d="M201.64,151.035l33.292,6.482v1.031l0.147,8.544l3.241-8.839l33.881,6.924l-20.182,54.947l0.295,2.062
	l-1.473-0.147l-0.737,1.326l-2.504-0.737l0.518,3.908c0,0-1.554-0.518-1.761,2.279l-25.685-5.075l-0.207-1.036
	c0,0-2.071-1.761-1.45-5.8l-7.871-1.657l0.104,3.314c0,0,0.311,1.761-1.554,1.554l-0.104,1.139l-25.685-5.178l-0.414-0.932
	c0,0-1.45-1.036-1.45-3.003l-0.311-3.003l-1.45-0.414c0,0-3.003-0.829-1.761-4.35l0.725-1.761l1.036-0.207l1.864,0.414
	l11.082-28.171l-0.104-2.382l2.589-7.353l1.45,0.725l-0.207-2.382L201.64,151.035z"/>
<g>
	<polyline class="st0" points="194.041,85.196 180.804,82.493 179.998,83.794 177.682,83.34 176.909,83.567 	"/>
	<line class="st0" x1="218.449" y1="90.179" x2="199.589" y2="86.329"/>
	<line class="st0" x1="224.537" y1="91.422" x2="221.389" y2="90.779"/>
	<line class="st0" x1="250.487" y1="96.719" x2="225.825" y2="91.685"/>
	<line class="st0" x1="276.997" y1="102.132" x2="252.446" y2="97.12"/>
	<line class="st0" x1="285.662" y1="103.901" x2="278.396" y2="102.417"/>
	<polyline class="st0" points="288.88,113.809 289.813,106.229 290.699,104.929 288.437,104.467 	"/>
	<polyline class="st0" points="174.771,87.446 174.132,88.406 161.368,122.911 161.386,125.283 161.419,127.262 161.277,127.85 
		158.091,136.641 157.897,131.649 	"/>
	<polyline class="st0" points="161.401,121.627 161.758,118.501 174.802,84.641 	"/>
	<path class="st0" d="M174.771,87.446"/>
	<path class="st0" d="M158.452,136.81"/>
	<line class="st0" x1="155.986" y1="138.395" x2="157.688" y2="138.686"/>
	<polyline class="st0" points="160.426,157.854 160.135,155.716 164.939,143.302 272.154,165.222 252.273,220.096 252.273,222.526 	
		"/>
	<path class="st0" d="M296.921,115.678l0.069-3.071c0,0-0.365-0.706-1.037-0.537l-0.227-9.387l-2.22,5.63l-0.051,1.108
		l-12.112,32.779c0,0-1.06,2.952-0.984,5.602c0.076,2.65,0.64,3.201,0.111,4.337c-0.53,1.136-3.448,8.337-3.448,8.337l-0.228-3.795
		c0,0-0.116-0.218-0.303-0.327c-0.264-0.155-0.668-0.092-1.08,1.115l-3.112,7.929"/>
	<polyline class="st0" points="296.783,112.861 294.64,118.407 294.588,116.477 295.295,114.599 295.312,113.858 296.035,112.032 	
		"/>
	<polyline class="st0" points="293.529,107.667 292.706,107.511 291.637,110.026 291.348,111.834 	"/>
	<line class="st0" x1="292.333" y1="112.162" x2="291.312" y2="111.907"/>
	<line class="st0" x1="254.198" y1="231.519" x2="296.862" y2="115.437"/>
	<polygon class="st0" points="253.043,226.264 253.712,223.883 253.712,222.839 250.829,222.212 246.694,230.692 246.318,237.668 
		249.785,238.462 250.955,236.248 251.122,231.653 252.459,228.186 	"/>
	<line class="st0" x1="247.358" y1="232.391" x2="249.554" y2="232.827"/>
	<line class="st0" x1="247.327" y1="233.154" x2="249.523" y2="233.59"/>
	<line class="st0" x1="247.296" y1="233.917" x2="249.492" y2="234.353"/>
	<line class="st0" x1="247.264" y1="234.681" x2="249.461" y2="235.117"/>
	<line class="st0" x1="247.233" y1="235.444" x2="249.43" y2="235.88"/>
	<line class="st0" x1="247.202" y1="236.207" x2="249.398" y2="236.643"/>
	<line class="st0" x1="247.171" y1="236.97" x2="249.367" y2="237.407"/>
	<path class="st0" d="M253.043,226.264c0,0,0.796-0.051,0.884,1.379s0.286,6.382,0.286,6.382l-2.223,5.854l-1.959-0.418
		l-0.022-1.276"/>
	<g>
		<g id="SPLINE_20_">
			<path class="st0" d="M235.886,177.983c-0.232,0.062-0.473,0.097-0.714,0.104c-0.241,0.007-0.484-0.013-0.719-0.061
				c-0.294-0.06-0.582-0.165-0.841-0.318c-0.121-0.072-0.236-0.154-0.342-0.247c-0.1-0.088-0.192-0.186-0.271-0.293
				c-0.076-0.102-0.14-0.212-0.19-0.329c-0.048-0.112-0.083-0.231-0.102-0.351c-0.019-0.119-0.022-0.241-0.009-0.361
				c0.013-0.122,0.041-0.241,0.083-0.356c0.044-0.119,0.103-0.232,0.173-0.338c0.074-0.111,0.16-0.213,0.256-0.306
				c0.101-0.098,0.211-0.186,0.329-0.263c0.123-0.081,0.254-0.151,0.389-0.21c0.284-0.124,0.588-0.2,0.898-0.231
				c0.314-0.031,0.633-0.016,0.941,0.047c0.208,0.043,0.413,0.107,0.607,0.196c0.183,0.083,0.356,0.188,0.512,0.315
				c0.145,0.118,0.275,0.255,0.379,0.41c0.098,0.145,0.173,0.305,0.217,0.474c0.043,0.163,0.056,0.335,0.039,0.503
				c-0.018,0.171-0.067,0.339-0.142,0.494c-0.079,0.165-0.187,0.315-0.312,0.448c-0.135,0.143-0.292,0.266-0.459,0.368
				c-0.044,0.027-0.088,0.052-0.134,0.076c-0.041,0.022-0.083,0.043-0.126,0.062c-0.13,0.06-0.266,0.11-0.403,0.15
				C235.925,177.972,235.905,177.978,235.886,177.983z"/>
		</g>
		<g id="SPLINE_19_">
			<path class="st0" d="M230.659,179.69c0.325-0.271,0.717-0.448,0.818-0.499c0.1-0.05,0.204-0.093,0.311-0.128
				c0.372-0.115,0.761-0.182,1.152-0.201c0.392-0.019,0.787,0.01,1.171,0.089c0.37,0.076,0.731,0.197,1.068,0.369
				c0.313,0.16,0.605,0.364,0.853,0.611c0.068,0.071,0.131,0.148,0.188,0.229c0.059,0.085,0.111,0.175,0.156,0.268
				c0.018,0.038,0.031,0.079,0.036,0.121c0.006,0.043,0.005,0.088,0.001,0.131v2.112"/>
		</g>
		<path class="st0" d="M235.838,172.793c0.025-0.059,0.047-0.119,0.067-0.18c0.024-0.072,0.045-0.145,0.064-0.219
			c0.041-0.158,0.06-0.228,0.099-0.391c0,0,0.2,0.043,0.237,0.051l3.178,0.65c0.089,0.018,0.176,0.045,0.26,0.081
			c0.079,0.034,0.156,0.076,0.225,0.127c0.066,0.047,0.126,0.102,0.177,0.165c0.048,0.059,0.127,0.189,0.127,0.189l-3.35,9.075
			c-0.039,0.106-0.108,0.201-0.19,0.28c-0.048,0.046-0.1,0.087-0.155,0.122c-0.06,0.039-0.123,0.072-0.188,0.1
			c-0.141,0.06-0.291,0.097-0.444,0.112c-0.156,0.015-0.315,0.007-0.467-0.024l-0.296-0.075l-4.666-1.143l0.001,0l-0.025-0.009
			l-0.038-0.035l-0.024-0.053l-0.015-0.077l-0.006-0.069l0,0l0.045-1.812"/>
		<g id="LINE_5_">
			<path class="st0" d="M239.359,175.588l-0.063-1.184l-0.045-0.304l0,0.001l-0.008-0.037l-0.056-0.117l-0.098-0.097l-0.131-0.068
				l-0.084-0.024l-5.726-1.171c-0.028-0.006-0.056,0.01-0.065,0.036l0,0l-2.59,6.981"/>
		</g>
	</g>
	<g>
		<g id="SPLINE_18_">
			<path class="st0" d="M198.59,170.589c-0.232,0.062-0.473,0.097-0.714,0.104c-0.241,0.007-0.484-0.013-0.719-0.061
				c-0.294-0.06-0.582-0.165-0.841-0.318c-0.121-0.072-0.236-0.154-0.342-0.247c-0.1-0.088-0.192-0.186-0.271-0.293
				c-0.076-0.102-0.14-0.212-0.19-0.329c-0.048-0.112-0.083-0.231-0.102-0.351c-0.019-0.119-0.022-0.241-0.009-0.361
				c0.013-0.122,0.041-0.241,0.083-0.356c0.044-0.119,0.103-0.232,0.173-0.338c0.074-0.111,0.16-0.213,0.256-0.306
				c0.101-0.098,0.211-0.186,0.329-0.263c0.123-0.081,0.254-0.151,0.389-0.21c0.284-0.124,0.588-0.2,0.898-0.231
				c0.314-0.031,0.633-0.016,0.941,0.047c0.208,0.043,0.413,0.107,0.607,0.196c0.183,0.083,0.356,0.188,0.512,0.315
				c0.145,0.118,0.275,0.255,0.379,0.41c0.098,0.145,0.173,0.305,0.217,0.474c0.043,0.163,0.056,0.335,0.039,0.503
				c-0.018,0.171-0.067,0.339-0.142,0.494c-0.079,0.165-0.187,0.315-0.312,0.448c-0.135,0.143-0.292,0.266-0.459,0.368
				c-0.044,0.027-0.088,0.052-0.134,0.076c-0.041,0.022-0.083,0.043-0.126,0.062c-0.13,0.06-0.265,0.11-0.403,0.15
				C198.63,170.578,198.61,170.583,198.59,170.589z"/>
		</g>
		<g id="SPLINE_17_">
			<path class="st0" d="M193.364,172.295c0.325-0.271,0.717-0.448,0.818-0.499c0.1-0.05,0.204-0.093,0.311-0.128
				c0.372-0.115,0.761-0.182,1.152-0.201c0.392-0.019,0.787,0.01,1.171,0.089c0.37,0.076,0.731,0.197,1.068,0.369
				c0.313,0.16,0.605,0.364,0.853,0.611c0.068,0.071,0.131,0.148,0.188,0.229c0.059,0.085,0.111,0.175,0.156,0.268
				c0.018,0.038,0.031,0.079,0.036,0.121c0.006,0.043,0.005,0.088,0.001,0.131v2.112"/>
		</g>
		<path class="st0" d="M198.542,165.398c0.025-0.059,0.047-0.119,0.067-0.18c0.024-0.072,0.045-0.145,0.064-0.219
			c0.041-0.158,0.06-0.228,0.099-0.391c0,0,0.2,0.043,0.237,0.051l3.178,0.65c0.089,0.018,0.176,0.045,0.26,0.081
			c0.079,0.034,0.156,0.076,0.225,0.127c0.066,0.047,0.126,0.102,0.177,0.165c0.048,0.059,0.127,0.189,0.127,0.189l-3.35,9.075
			c-0.039,0.106-0.108,0.201-0.19,0.28c-0.048,0.046-0.1,0.087-0.155,0.122c-0.06,0.039-0.123,0.072-0.188,0.1
			c-0.141,0.06-0.291,0.097-0.444,0.112c-0.156,0.015-0.315,0.007-0.467-0.024l-0.296-0.075l-4.666-1.143l0.001,0l-0.025-0.009
			l-0.038-0.035l-0.024-0.053l-0.015-0.077l-0.006-0.069l0,0l0.045-1.812"/>
		<g id="LINE_4_">
			<path class="st0" d="M202.063,168.193l-0.063-1.184l-0.045-0.304l0,0.001l-0.008-0.037l-0.056-0.117l-0.098-0.097l-0.131-0.068
				l-0.084-0.024l-5.726-1.171c-0.028-0.006-0.056,0.01-0.065,0.036l0,0l-2.59,6.981"/>
		</g>
	</g>
	<g>
		<g id="SPLINE_16_">
			<path class="st0" d="M162.294,163.194c-0.232,0.062-0.473,0.097-0.714,0.104c-0.241,0.007-0.484-0.013-0.719-0.061
				c-0.294-0.06-0.582-0.165-0.841-0.318c-0.121-0.072-0.236-0.154-0.342-0.247c-0.1-0.088-0.192-0.186-0.271-0.293
				c-0.076-0.102-0.14-0.212-0.19-0.329c-0.048-0.112-0.083-0.231-0.102-0.351c-0.019-0.119-0.022-0.241-0.009-0.361
				c0.013-0.122,0.041-0.241,0.083-0.356c0.044-0.119,0.103-0.232,0.173-0.338c0.074-0.111,0.16-0.213,0.256-0.306
				c0.101-0.098,0.211-0.186,0.329-0.263c0.123-0.081,0.254-0.151,0.389-0.21c0.284-0.124,0.588-0.2,0.898-0.231
				c0.314-0.031,0.633-0.016,0.941,0.047c0.208,0.043,0.413,0.107,0.607,0.196c0.183,0.083,0.356,0.188,0.512,0.315
				c0.145,0.118,0.275,0.255,0.379,0.41c0.098,0.145,0.173,0.305,0.217,0.474c0.043,0.163,0.056,0.335,0.039,0.503
				c-0.018,0.171-0.067,0.339-0.142,0.494c-0.079,0.165-0.187,0.315-0.312,0.448c-0.135,0.143-0.292,0.266-0.459,0.368
				c-0.044,0.027-0.088,0.052-0.134,0.076c-0.041,0.022-0.083,0.043-0.126,0.062c-0.13,0.06-0.266,0.11-0.403,0.15
				C162.334,163.184,162.314,163.189,162.294,163.194z"/>
		</g>
		<g id="SPLINE_15_">
			<path class="st0" d="M157.068,164.901c0.325-0.271,0.717-0.448,0.818-0.499c0.1-0.05,0.204-0.093,0.311-0.128
				c0.372-0.115,0.761-0.182,1.152-0.201c0.392-0.019,0.787,0.01,1.171,0.089c0.37,0.076,0.731,0.197,1.068,0.369
				c0.313,0.16,0.605,0.364,0.853,0.611c0.068,0.071,0.131,0.148,0.188,0.229c0.059,0.085,0.111,0.175,0.156,0.268
				c0.018,0.038,0.031,0.079,0.036,0.121c0.006,0.043,0.005,0.088,0.001,0.131v2.112"/>
		</g>
		<path class="st0" d="M162.246,158.004c0.025-0.059,0.047-0.119,0.067-0.18c0.024-0.072,0.045-0.145,0.064-0.219
			c0.041-0.158,0.06-0.228,0.099-0.391c0,0,0.2,0.043,0.237,0.051l3.178,0.65c0.089,0.018,0.176,0.045,0.26,0.081
			c0.079,0.034,0.156,0.076,0.225,0.127c0.066,0.047,0.126,0.102,0.177,0.165c0.048,0.059,0.127,0.189,0.127,0.189l-3.35,9.075
			c-0.039,0.106-0.108,0.201-0.19,0.28c-0.048,0.046-0.1,0.087-0.155,0.122c-0.06,0.039-0.123,0.072-0.188,0.1
			c-0.14,0.06-0.291,0.097-0.444,0.112c-0.156,0.015-0.315,0.007-0.467-0.024l-0.296-0.075l-4.666-1.143l0.001,0l-0.025-0.009
			l-0.038-0.035l-0.024-0.053l-0.015-0.077l-0.006-0.069v0l0.045-1.812"/>
		<g id="LINE_2_">
			<path class="st0" d="M165.768,160.799l-0.063-1.184l-0.045-0.304l0,0.001l-0.008-0.037l-0.056-0.117l-0.098-0.097l-0.131-0.068
				l-0.084-0.024c0,0-5.726-1.171-5.726-1.171c-0.028-0.006-0.056,0.01-0.065,0.036l0,0l-2.59,6.981l-11.228,30.386l-2.41-0.511
				c0,0-0.887-0.114-1.288,0.859"/>
		</g>
	</g>
	<polyline class="st0" points="201.489,150.885 196.987,163.332 197.096,165.507 	"/>
	<path class="st0" d="M179.963,199.664c0,0,2.72-7.615,3.209-8.648c0.49-1.033-0.326-1.74-0.326-1.74l-2.589-2.138l2.07-5.91
		c0,0,1.329-0.589,3.402-0.818c1.86-0.205,2.012-1.469,2.012-1.469l10.28-28.8l0.402,9.217"/>
	<polygon class="st0" points="173.76,146.975 185.36,149.379 180.919,161.344 169.476,158.888 	"/>
	<line class="st0" x1="238.287" y1="158.542" x2="233.969" y2="170.151"/>
	<polyline class="st0" points="215.425,209.833 219.342,210.609 230.898,178.51 	"/>
	<path class="st0" d="M216.15,210.013l-1.219,3.454c0,0-1.164,2.108,2.065,3.016"/>
	<line class="st0" x1="250.335" y1="223.201" x2="134.152" y2="199.421"/>
	<path class="st0" d="M235.07,167.183l-0.305-8.822l-3.192-0.658c0,0-0.721-0.219-1.159,0.94c-0.439,1.159-1.015,2.838-1.015,2.838
		s-0.533,1.065,0.345,2.225c0,0,0.971,1.003,0.564,2.131c-0.407,1.128-0.627,1.379-0.627,1.379s-0.313,0.815,1.065,1.128
		l-6.611,18.236c0,0-0.282,0.846-1.943,1.097s-2.413,0.501-2.413,0.501s-0.595,0-1.159,1.253c-0.564,1.253-1.598,4.167-1.598,4.167
		s-0.564,0.94,0.313,1.661c0.877,0.721,2.099,1.535,2.099,1.535s0.815,0.533,0.219,1.849c-0.595,1.316-1.911,4.857-1.911,4.857
		s-1.039-0.279-1.48,0.294c-0.441,0.573-0.617,1.763-0.617,1.763s-0.265,0.838,0.97,1.234l-2.601,6.304c0,0-1.146,2.381-4.232,1.719
		"/>
	<path class="st0" d="M133.635,198.209l-0.066-2.59l11.821-31.478l1.063-0.398l1.395-3.652l0.996,0.199l2.191-6.043l-1.992-0.398
		l7.882-21.727l0.698,0.161l0.204-0.487l0.958-2.286c0,0,0.886-0.994,0.929,0.951l0.089,1.399"/>
	<path class="st0" d="M146.348,164.093l-2.404,6.485l-0.056,4.976l6.933,1.454l0.224-0.503c0,0,1.156-0.093,1.707-0.699
		l-5.406-0.858l0.036-1.854l4.435,0.654"/>
	<line class="st0" x1="136.591" y1="194.007" x2="143.893" y2="173.971"/>
	<path class="st0" d="M142.046,195.241l-6.235-1.299c0,0-0.909,1.429,0.162,1.721c1.072,0.292,4.838,1.007,4.838,1.007
		S141.689,197.125,142.046,195.241z"/>
	<path class="st0" d="M134.329,198.487l-0.881,2.569l-0.073,2.569l-1.395,3.45l-0.037,4.734l-1.064,2.312l-3.707-0.734l0.697-7.193
		l2.312-4.477l1.692-3.821l7.584,1.631c0,0,0.973,0.401,1.316-0.658s1.202-3.32,1.202-3.32"/>
	<polyline class="st0" points="132.192,206.957 133.499,207.268 135.266,203.513 	"/>
	<polyline class="st0" points="133.437,203.906 133.499,215.517 131.476,215.174 131.414,213.12 	"/>
	<polyline class="st0" points="133.652,215.312 135.266,210.856 135.311,199.671 	"/>
	<polyline class="st0" points="135.474,203.141 176.693,211.721 177.822,212.386 177.952,220.277 	"/>
	<path class="st0" d="M141.062,198.046c0,0-0.441,2.325,2.365,3.247"/>
	<path class="st0" d="M172.457,207.179c4.672,0.501,5.478-3.142,5.478-3.142l1.669-4.728l0.834,0.25v0.695l-0.6,1.382l0.073,0.757"
		/>
	<path class="st0" d="M180.321,208.872c0,0-3.081-0.998-2.163-3.445l1.029-2.336c0,0,0.222-0.89,1.418-0.612
		s1.724,0.473,1.724,0.473l10.806-28.731"/>
	<polyline class="st0" points="190.607,170.715 190.791,173.65 195.789,160.902 195.926,158.976 197.256,155.675 196.147,155.45 	
		"/>
	<line class="st0" x1="193.224" y1="163.595" x2="193.373" y2="166.856"/>
	<polyline class="st0" points="197.364,162.233 197.182,158.41 197.468,157.889 197.256,155.675 	"/>
	<polyline class="st0" points="234.028,172.608 233.679,161.356 234.987,157.699 	"/>
	<line class="st0" x1="232.232" y1="160.858" x2="233.58" y2="161.125"/>
	<g id="SPLINE_14_">
		<path class="st0" d="M230.469,163.514l-0.404-0.946c-0.013-0.03-0.02-0.063-0.021-0.096c-0.001-0.033,0.005-0.066,0.016-0.097
			l0.794-2.152c0.016-0.044,0.044-0.083,0.077-0.116c0.037-0.037,0.082-0.065,0.129-0.085c0.051-0.022,0.106-0.036,0.162-0.042
			c0.057-0.006,0.114-0.003,0.17,0.008l0.553,0.113c0.041,0.008,0.081,0.022,0.119,0.04c0.035,0.017,0.069,0.039,0.098,0.065
			c0.027,0.024,0.05,0.053,0.068,0.085c0.016,0.03,0.027,0.063,0.031,0.096c0.004,0.03,0.002,0.061-0.005,0.091
			c-0.002,0.01-0.005,0.02-0.009,0.03l-0.292,0.791c-0.002,0.006-0.003,0.013-0.002,0.02c0.001,0.007,0.004,0.013,0.008,0.019
			c0.009,0.012,0.025,0.02,0.04,0.023l0.055,0.011c0.044,0.009,0.088,0.025,0.127,0.048c0.036,0.021,0.068,0.048,0.092,0.081
			c0.022,0.03,0.038,0.065,0.044,0.102c0.006,0.036,0.001,0.074-0.011,0.108l-0.682,1.847c-0.016,0.044-0.044,0.083-0.077,0.116
			c-0.037,0.037-0.082,0.065-0.129,0.085c-0.051,0.022-0.106,0.036-0.162,0.042c-0.057,0.006-0.114,0.003-0.17-0.008l-0.322-0.066
			c-0.065-0.013-0.129-0.039-0.184-0.078C230.533,163.615,230.492,163.568,230.469,163.514"/>
	</g>
	<ellipse class="st0" cx="232.162" cy="158.99" rx="0.84" ry="0.504"/>
	<g id="SPLINE_13_">
		<path class="st0" d="M171.34,199.148c0.173-0.091,0.335-0.21,0.469-0.353c0.063-0.067,0.119-0.139,0.168-0.217
			c0.047-0.074,0.086-0.153,0.117-0.235l9.376-25.401c0.033-0.089,0.055-0.183,0.065-0.278c0.01-0.094,0.007-0.188-0.007-0.281
			c-0.015-0.094-0.042-0.187-0.079-0.274c-0.039-0.091-0.089-0.177-0.148-0.256c-0.062-0.084-0.134-0.16-0.212-0.229
			c-0.082-0.073-0.172-0.137-0.267-0.192c-0.202-0.119-0.427-0.201-0.656-0.248l-14.747-3.016c-0.24-0.049-0.489-0.061-0.734-0.037
			c-0.241,0.024-0.479,0.084-0.7,0.18c-0.106,0.046-0.207,0.101-0.303,0.164c-0.092,0.06-0.178,0.129-0.256,0.205
			c-0.074,0.073-0.142,0.152-0.199,0.239c-0.055,0.082-0.101,0.171-0.135,0.263l-9.376,25.401c-0.027,0.073-0.047,0.149-0.058,0.226
			c-0.011,0.076-0.015,0.153-0.011,0.229c0.005,0.077,0.017,0.153,0.038,0.227c0.021,0.076,0.049,0.149,0.085,0.219
			c0.075,0.148,0.179,0.28,0.301,0.393c0.133,0.123,0.287,0.222,0.449,0.299c0.039,0.018,0.079,0.036,0.119,0.052
			c0.123,0.049,0.252,0.087,0.382,0.114l14.747,3.016c0.267,0.055,0.544,0.063,0.816,0.027
			C170.846,199.351,171.105,199.272,171.34,199.148"/>
	</g>
	<g id="SPLINE_10_">
		<path class="st0" d="M208.1,206.708c0.173-0.091,0.335-0.21,0.469-0.353c0.063-0.067,0.119-0.139,0.168-0.217
			c0.047-0.074,0.086-0.153,0.117-0.235l9.376-25.401c0.033-0.089,0.055-0.183,0.065-0.278c0.01-0.094,0.007-0.188-0.007-0.281
			c-0.015-0.094-0.042-0.187-0.079-0.274c-0.039-0.091-0.089-0.177-0.148-0.256c-0.062-0.084-0.134-0.16-0.212-0.229
			c-0.082-0.073-0.172-0.137-0.267-0.192c-0.202-0.119-0.427-0.201-0.656-0.248l-14.747-3.016c-0.24-0.049-0.489-0.061-0.734-0.037
			c-0.241,0.024-0.479,0.084-0.7,0.18c-0.106,0.046-0.207,0.101-0.303,0.164c-0.092,0.06-0.178,0.129-0.256,0.205
			c-0.074,0.073-0.142,0.152-0.199,0.239c-0.055,0.082-0.101,0.171-0.135,0.263l-9.376,25.401c-0.027,0.073-0.047,0.149-0.058,0.226
			c-0.011,0.076-0.015,0.153-0.011,0.229c0.005,0.077,0.017,0.153,0.038,0.227c0.021,0.076,0.049,0.149,0.085,0.219
			c0.075,0.148,0.179,0.28,0.301,0.393c0.133,0.123,0.287,0.222,0.449,0.299c0.039,0.018,0.079,0.036,0.119,0.052
			c0.123,0.049,0.252,0.087,0.382,0.114l14.747,3.016c0.267,0.055,0.544,0.064,0.816,0.027
			C207.606,206.91,207.866,206.831,208.1,206.708"/>
	</g>
	<g id="SPLINE_9_">
		<path class="st0" d="M244.964,214.163c0.173-0.091,0.335-0.21,0.469-0.353c0.063-0.067,0.119-0.139,0.168-0.217
			c0.047-0.074,0.086-0.153,0.117-0.235l9.376-25.401c0.033-0.089,0.055-0.183,0.065-0.278c0.01-0.094,0.007-0.188-0.007-0.281
			c-0.015-0.094-0.042-0.187-0.079-0.274c-0.039-0.091-0.089-0.177-0.148-0.256c-0.062-0.084-0.134-0.16-0.212-0.229
			c-0.082-0.073-0.172-0.137-0.267-0.192c-0.202-0.119-0.427-0.201-0.656-0.248l-14.747-3.016c-0.24-0.049-0.489-0.061-0.734-0.037
			c-0.241,0.024-0.479,0.084-0.7,0.18c-0.106,0.046-0.207,0.101-0.303,0.164c-0.092,0.06-0.178,0.129-0.256,0.205
			c-0.074,0.073-0.142,0.152-0.199,0.239c-0.055,0.082-0.101,0.171-0.135,0.263l-9.376,25.401c-0.027,0.073-0.047,0.149-0.058,0.226
			c-0.011,0.076-0.015,0.153-0.011,0.229c0.005,0.077,0.017,0.153,0.038,0.227c0.021,0.076,0.049,0.149,0.085,0.219
			c0.075,0.148,0.179,0.28,0.301,0.393c0.133,0.123,0.287,0.222,0.449,0.299c0.039,0.018,0.079,0.036,0.119,0.052
			c0.123,0.049,0.252,0.087,0.382,0.114l14.747,3.016c0.267,0.055,0.544,0.064,0.816,0.027
			C244.47,214.366,244.729,214.287,244.964,214.163"/>
	</g>
	<path class="st0" d="M271.728,165.655l-3.192-0.658c0,0-0.721-0.219-1.159,0.94c-0.439,1.159-1.015,2.838-1.015,2.838
		s-0.533,1.065,0.345,2.225c0,0,0.971,1.003,0.564,2.131c-0.407,1.128-0.627,1.379-0.627,1.379s-0.313,0.815,1.065,1.128
		l-6.611,18.236c0,0-0.282,0.846-1.943,1.097c-1.661,0.251-2.413,0.501-2.413,0.501s-0.595,0-1.159,1.253
		c-0.564,1.253-1.598,4.167-1.598,4.167s-0.564,0.94,0.313,1.661c0.877,0.721,2.099,1.535,2.099,1.535s0.815,0.533,0.219,1.849
		c-0.595,1.316-1.911,4.857-1.911,4.857s-1.039-0.279-1.48,0.294c-0.441,0.573-0.617,1.763-0.617,1.763s-0.265,0.838,0.97,1.234
		l-2.601,6.304c0,0-1.328,2.682-4.414,2.021"/>
	<line class="st0" x1="247.907" y1="222.73" x2="248.123" y2="227.621"/>
	<path class="st0" d="M219.079,216.843l0.087,3.852c0,0,0.173,1.299,1.515,1.688"/>
	<path class="st0" d="M219.675,216.9l0.143,3.848c0,0,1.14,0.057,0.998,0.57c-0.143,0.513-0.314,0.998-0.314,0.998l-0.029,1.226
		l25.884,5.302l0.2-1.34c0,0,0.029-1.34,1.397-1.112"/>
	<path class="st0" d="M182.964,209.524l0.103,3.776c0,0,1.098,0.069,0.995,0.652c-0.103,0.584-0.309,0.892-0.309,0.892l0.034,1.167
		l25.847,5.286l0.103-1.304c0,0,0-1.407,1.545-1.064"/>
	<path class="st0" d="M211.111,215.222l0.103,2.918c0,0,0.618,2.609-1.476,1.854"/>
	<path class="st0" d="M182.208,209.421v3.742c0,0-0.24,1.064,1.545,1.682"/>
	<path class="st0" d="M135.074,211.436c0,0-0.58,1.625,1.48,2.031s8.53,1.712,8.53,1.712s0.928,0.609,1.596-1.625l-0.087-8.036"/>
	<polyline class="st0" points="146.543,206.33 153.41,207.758 153.466,213.41 	"/>
	<line class="st0" x1="146.853" y1="213.571" x2="151.761" y2="214.584"/>
	<line class="st0" x1="146.801" y1="212.746" x2="152.109" y2="213.828"/>
	<polyline class="st0" points="153.457,213.391 154.614,213.635 154.84,211.38 155.046,210.582 155.407,210.659 155.484,213.493 
		155.172,214.111 155.224,215.297 154.885,216.262 153.581,215.975 	"/>
	<path class="st0" d="M153.517,216.496l-0.08-3.126l-1.03-0.207l-1.598,4.09l0.139,2.967c0,0,0.697,0.657,1.055,0.1L153.517,216.496
		z"/>
	<path class="st0" d="M152.408,213.162l-0.137-3.854c0,0-0.068-0.707-0.775-0.798s-2.304-0.479-2.304-0.479l-1.551,0.798
		l0.068,2.668l1.414,1.574"/>
	<polyline class="st0" points="167.043,216.486 166.461,217.29 166.378,218.62 157.456,216.763 157.483,215.239 157.844,214.491 	
		"/>
	<path class="st0" d="M156.763,207.702l0.194,6.65l-0.471,0.72l-0.055,1.635c0,0,0.194,0.942,1.136,1.108
		c0.942,0.166,8.978,1.773,8.978,1.773s1.053,0.111,1.469-1.635l-0.083-6.484l1.053-1.385"/>
	<line class="st0" x1="157.622" y1="215.793" x2="166.35" y2="217.511"/>
	<line class="st0" x1="155.224" y1="215.297" x2="156.355" y2="215.518"/>
	<polyline class="st0" points="168.363,210.842 174.723,212.101 174.763,217.46 175.983,217.628 176.241,215.345 176.678,214.868 
		176.718,217.807 176.499,218.522 176.509,219.931 246.344,234.417 	"/>
	<line class="st0" x1="168.008" y1="217.073" x2="173.41" y2="218.155"/>
	<line class="st0" x1="168.018" y1="217.929" x2="173.108" y2="218.947"/>
	<path class="st0" d="M170.884,217.476l-1.885-1.621l-0.057-2.677l1.508-0.792c0,0,1.49,0.377,2.244,0.434s0.886,0.716,0.886,0.716
		l0.113,3.978l-1.602,4.106l0.139,3.058c0.894,0.516,1.112,0,1.112,0l1.509-3.912l-0.118-3.276c0,0-0.22-0.02-0.895-0.1"/>
	<polyline class="st0" points="174.812,220.349 176.102,220.607 176.46,219.694 	"/>
	<g>
		<polygon class="st0" points="179.76,217.567 191.958,220.074 192.05,222.214 179.852,219.707 		"/>
		<line class="st0" x1="182.787" y1="218.393" x2="182.848" y2="220.196"/>
		<line class="st0" x1="185.813" y1="219.096" x2="185.874" y2="220.899"/>
		<line class="st0" x1="188.84" y1="219.799" x2="188.901" y2="221.339"/>
	</g>
	<g>
		<polygon class="st0" points="193.335,220.383 201.227,222.079 201.319,224.219 193.427,222.523 		"/>
		<line class="st0" x1="197.266" y1="221.427" x2="197.328" y2="223.23"/>
	</g>
	<g>
		<polygon class="st0" points="202.621,222.371 213.09,224.574 213.182,226.653 202.713,224.449 		"/>
		<line class="st0" x1="207.952" y1="223.599" x2="208.013" y2="225.351"/>
	</g>
	<polygon class="st0" points="214.861,221.957 218.357,222.657 218.453,224.659 214.861,223.96 	"/>
	<polygon class="st0" points="214.861,224.763 218.357,225.463 218.453,227.465 214.861,226.766 	"/>
	<line class="st0" x1="269.141" y1="168.171" x2="270.895" y2="168.54"/>
	<g id="SPLINE_6_">
		<path class="st0" d="M267.379,170.827l-0.404-0.946c-0.013-0.03-0.02-0.063-0.021-0.096s0.005-0.066,0.016-0.097l0.794-2.152
			c0.016-0.044,0.044-0.083,0.077-0.116c0.037-0.037,0.082-0.065,0.129-0.085c0.051-0.022,0.106-0.036,0.162-0.042
			c0.057-0.006,0.114-0.003,0.17,0.008l0.553,0.113c0.041,0.008,0.081,0.022,0.119,0.04c0.035,0.017,0.069,0.039,0.098,0.065
			c0.027,0.024,0.05,0.053,0.068,0.085c0.016,0.03,0.027,0.063,0.031,0.096c0.004,0.03,0.002,0.061-0.005,0.091
			c-0.002,0.01-0.005,0.02-0.009,0.03l-0.292,0.791c-0.002,0.006-0.003,0.013-0.002,0.02c0.001,0.007,0.004,0.013,0.008,0.019
			c0.009,0.013,0.025,0.02,0.04,0.023l0.055,0.011c0.044,0.009,0.088,0.025,0.127,0.048c0.036,0.021,0.068,0.048,0.092,0.081
			c0.022,0.03,0.038,0.065,0.044,0.102c0.006,0.036,0.001,0.074-0.011,0.108l-0.682,1.847c-0.016,0.044-0.044,0.083-0.077,0.116
			c-0.037,0.037-0.082,0.065-0.129,0.085c-0.051,0.022-0.106,0.036-0.162,0.042c-0.057,0.006-0.114,0.003-0.17-0.008l-0.322-0.066
			c-0.065-0.013-0.129-0.039-0.184-0.078C267.443,170.928,267.402,170.881,267.379,170.827"/>
	</g>
	<ellipse class="st0" cx="269.071" cy="166.303" rx="0.84" ry="0.504"/>
	<path class="st0" d="M144.025,170.417l3.01,0.719l3.545,0.498l0.002,0.93c0.477,0.079,1.51,1.152,1.51,1.152l0.926-2.222"/>
	<path class="st0" d="M150.78,171.291l4.212-10.531c0,0-0.556-2.623,1.868-4.53l-0.079-0.795l2.861-7.272l-5.444-1.152l1.391-3.537
		l1.113,0.199l0.358-0.119l3.656,0.755l-1.351,3.576"/>
	<polyline class="st0" points="151.527,147.009 152.436,147.191 152.908,146.463 154.872,141.265 161.27,142.265 162.724,142.737 
		162.833,144.01 162.324,143.791 160.715,144.309 	"/>
	<path class="st0" d="M159.452,148.408c0,0,2.29,0.727,2.218,3.272"/>
	<path class="st0" d="M160.579,144.628c0,0,2.363,1.091,2.545,3.345"/>
	<polyline class="st0" points="161.27,150.153 158.725,157.351 158.253,157.206 155.49,164.949 155.526,165.967 153.199,171.893 	
		"/>
	<path class="st0" d="M151.163,170.075c0,0,2.363,0.909,2.363,3.381"/>
	<polyline class="st0" points="149.041,153.848 149.141,155.442 147.603,159.662 147.846,160.09 	"/>
	<polyline class="st0" points="145.389,164.141 146.82,160.536 147.573,160.596 	"/>
	<polyline class="st0" points="157.869,139.953 155.709,139.578 155.745,138.429 156.424,136.393 158.62,136.772 	"/>
	<path class="st0" d="M163.796,141.222l-0.001,0.145l0.192,1.655c0,0-0.114,0.739-1.108,0.71l0.057-0.426l0.811-1.962"/>
	<polyline class="st0" points="161.537,144.127 162.109,144.762 163.115,145.013 163.124,145.66 162.754,146.5 	"/>
	<line class="st0" x1="128.474" y1="208.044" x2="130.461" y2="208.45"/>
	<line class="st0" x1="128.474" y1="208.844" x2="130.461" y2="209.251"/>
	<line class="st0" x1="128.415" y1="209.586" x2="130.402" y2="209.992"/>
	<line class="st0" x1="128.356" y1="210.327" x2="130.344" y2="210.734"/>
	<line class="st0" x1="128.278" y1="211.088" x2="130.266" y2="211.495"/>
	<line class="st0" x1="128.2" y1="211.811" x2="130.188" y2="212.217"/>
	<line class="st0" x1="128.142" y1="212.533" x2="130.129" y2="212.939"/>
	<path class="st0" d="M143.696,206.057c-3.205-2.08-5.851-0.754-5.851-0.754l1.88,1.159c0,0,2.402-0.448,3.377,1.414l0.834-1.132
		L143.696,206.057z"/>
	<path class="st0" d="M137.255,209.447l-0.661-0.504c-0.464-2.46,0.856-3.051,0.856-3.051l1.501,0.898c0,0-1.455,0.276-1.137,1.631
		C137.813,208.421,137.235,208.871,137.255,209.447z"/>
	<polyline class="st0" points="136.281,209.783 136.205,211.059 136.147,212.481 145.112,214.338 145.141,211.747 145.772,210.941 	
		"/>
	<path class="st0" d="M143.645,211.411c0,0-2.459,0.952-5.662-1.06c0,0-0.3-0.486,0.343-1.341c0,0,1.2,1.347,3.129,1.371
		C141.454,210.381,141.961,211.086,143.645,211.411z"/>
	<line class="st0" x1="136.207" y1="211.283" x2="144.926" y2="213.136"/>
	<path class="st0" d="M142.467,210.158c0,0,1.14-0.136,1.08-1.596l0.658-0.764l0.338-0.533c0,0,0.871,1.91-0.232,3.504
		C144.312,210.769,142.895,210.633,142.467,210.158z"/>
	<g>
		<path class="st0" d="M165.253,210.706c-3.072-1.994-5.608-0.722-5.608-0.722l1.802,1.111c0,0,2.303-0.429,3.237,1.356l0.8-1.086
			L165.253,210.706z"/>
		<path class="st0" d="M159.078,213.956l-0.633-0.483c-0.445-2.358,0.82-2.925,0.82-2.925l1.439,0.861c0,0-1.395,0.265-1.09,1.563
			C159.614,212.972,159.06,213.404,159.078,213.956z"/>
		<path class="st0" d="M165.204,215.838c0,0-2.357,0.912-5.428-1.016c0,0-0.288-0.466,0.329-1.286c0,0,1.15,1.291,3,1.314
			C163.104,214.851,163.59,215.526,165.204,215.838z"/>
		<path class="st0" d="M164.075,214.637c0,0,1.092-0.13,1.035-1.53l0.631-0.733l0.324-0.511c0,0,0.835,1.831-0.222,3.359
			C165.843,215.223,164.485,215.092,164.075,214.637z"/>
	</g>
	<path class="st0" d="M145.516,201.765c0,0-0.274,1.503,1.248,1.741"/>
	<path class="st0" d="M174.358,207.665c0,0,0.402,1.566-1.365,1.265"/>
	<polyline class="st0" points="173.334,207.384 172.832,208.749 172.812,210.094 146.73,204.693 146.77,203.528 147.369,202.158 	
		"/>
	<polygon class="st0" points="223.33,225.556 224.946,225.902 225.015,228.372 223.369,228.017 	"/>
	<g>
		<polygon class="st0" points="229.071,228.152 232.969,228.956 236.912,229.768 236.912,231.539 229.071,229.924 		"/>
		<line class="st0" x1="233.005" y1="230.679" x2="232.969" y2="228.956"/>
	</g>
	<g>
		<polygon class="st0" points="237.99,229.97 241.889,230.773 245.831,231.585 245.831,233.357 237.99,231.742 		"/>
		<line class="st0" x1="241.924" y1="232.497" x2="241.889" y2="230.773"/>
	</g>
	<g id="SPLINE_4_">
		<path class="st0" d="M219.952,227.071c0.001-0.01,0.003-0.021,0.007-0.031c0.003-0.008,0.007-0.017,0.012-0.024
			c0.011-0.016,0.025-0.029,0.041-0.039c0.044-0.027,0.099-0.035,0.151-0.032c0.02,0.001,0.04,0.004,0.06,0.008l1.802,0.369
			c0.054,0.011,0.107,0.032,0.154,0.063c0.042,0.027,0.08,0.061,0.104,0.104c0.013,0.023,0.022,0.049,0.023,0.076l0.004,0.168
			l-0.006,0.034c-0.007,0.018-0.02,0.034-0.036,0.046c-0.006,0.004-0.012,0.008-0.019,0.011l-0.207,0.102
			c-0.027,0.013-0.057,0.019-0.087,0.019c-0.011,0-0.022,0-0.034-0.001c-0.012-0.001-0.025-0.003-0.037-0.005l-1.492-0.305
			c-0.012-0.003-0.025-0.006-0.037-0.01c-0.03-0.01-0.06-0.023-0.086-0.041c-0.013-0.008-0.025-0.017-0.036-0.027l-0.213-0.188
			c-0.013-0.011-0.025-0.024-0.035-0.038c-0.009-0.012-0.017-0.026-0.022-0.04c-0.005-0.013-0.008-0.026-0.008-0.039l-0.004-0.168
			L219.952,227.071z"/>
	</g>
	<polyline class="st0" points="288.971,112.054 287.858,112.439 181.275,90.72 	"/>
	<polyline class="st0" points="197.763,86.58 194.898,87.268 194.898,88.07 191.804,91.049 191.976,88.127 195.127,84.059 
		198.107,83.142 	"/>
	<path class="st0" d="M222.575,81.443l-1.549,11.791l-3.25,4.081c0,0-0.794,0.529-0.68-0.68s0.491-3.779,0.491-3.779l4.497-11.413
		H222.575z"/>
	<path class="st0" d="M201.244,74.33l-0.815,1.086l-2.127,6.924l-0.679,5.249c0,0,0.226,0.679,0.86-0.045
		c0.634-0.724,4.525-5.657,4.525-5.657l8.221-64.189l-0.532-0.887l-2.041,2.751l-0.266,3.372l-3.017,4.792l-1.154,10.916l1.952-2.13
		l-2.683,20.533h0.74l-0.543,4.439l-0.888,0.444L201.244,74.33z"/>
	<polygon class="st0" points="224.925,92.445 227.925,89.003 228.278,85.562 227.484,84.15 225.366,81.502 225.013,79.296 
		226.072,71.707 226.425,63.059 223.248,83.708 224.836,89.003 	"/>
	<polygon class="st0" points="250.995,92.677 250.361,99.26 255.516,93.232 263.843,29.546 260.75,39.38 259.957,46.598 
		259.402,47.47 258.609,53.26 258.08,54.037 256.071,72.056 255.437,72.77 253.85,85.38 253.295,86.174 	"/>
	<polyline class="st0" points="250.171,98.438 249.239,99.902 249.062,102.92 252.257,99.68 252.446,97.12 	"/>
	<polyline class="st0" points="278.25,87.106 277.72,90.485 278.184,92.539 279.708,94.196 	"/>
	<polyline class="st0" points="280.635,87.57 279.244,99.629 280.466,98.157 281.828,96.515 281.961,95.124 281.431,93.666 
		281.762,93.003 281.043,90.608 281.374,87.693 	"/>
	<polyline class="st0" points="280.449,99.607 277.281,103.286 277.435,99.914 275.8,94.497 276.566,90.205 276.873,89.49 
		281.778,52.137 279.836,54.283 280.501,47.794 281.88,45.903 283.004,36.654 285.815,32.975 211.23,17.698 	"/>
	<path class="st0" d="M303.091,36.492l-16.235-3.338l-0.051,0.961l-3.035,9.458l-0.708,7.182l-0.556,2.175l12.846,2.681
		c0,0,2.377-1.315,0-4.248l-9.963-2.023l0.506-0.759l1.72-12.644l1.696-2.136"/>
	<line class="st0" x1="301.364" y1="58.401" x2="295.726" y2="102.683"/>
	<path class="st0" d="M295.726,102.683"/>
	<polyline class="st0" points="292.716,111.169 290.656,103.984 293.384,81.689 293.983,80.89 295.714,68.311 295.248,67.979 
		298.153,46.29 298.671,46.317 300.799,40.125 304.291,35.406 302.924,46.14 300.494,49.235 298.985,60.918 301.925,56.817 
		303.086,46.489 	"/>
	<polyline class="st0" points="297.618,35.525 295.833,37.838 294.313,50.858 	"/>
	<polyline class="st0" points="298.376,35.771 298.282,36.802 295.658,45.754 296.502,45.886 295.892,47.863 295.353,51.361 	"/>
	<line class="st0" x1="281.206" y1="58.304" x2="296.052" y2="61.514"/>
	<line class="st0" x1="279.922" y1="68.977" x2="295.009" y2="72.026"/>
	<polyline class="st0" points="292.239,89.853 289.116,89.21 277.312,86.777 	"/>
	<polyline class="st0" points="289.116,89.21 287.665,101.204 290.201,98.668 290.368,97.213 289.328,92.93 289.702,89.396 	"/>
	<polyline class="st0" points="282.135,95.591 287.998,96.838 284.547,107.69 284.256,111.1 288.164,106.609 289.079,99.832 	"/>
	<line class="st0" x1="255.626" y1="92.775" x2="276.45" y2="96.997"/>
	<line class="st0" x1="256.628" y1="85.404" x2="276.873" y2="89.49"/>
	<line class="st0" x1="257.487" y1="77.89" x2="277.595" y2="82.184"/>
	<line class="st0" x1="258.703" y1="69.589" x2="278.883" y2="73.883"/>
	<line class="st0" x1="259.776" y1="61.288" x2="279.957" y2="65.582"/>
	<line class="st0" x1="260.778" y1="52.629" x2="281.173" y2="57.066"/>
	<line class="st0" x1="261.995" y1="43.971" x2="280.501" y2="47.794"/>
	<polyline class="st0" points="243.246,24.317 241.422,26.749 239.801,40.192 255.744,43.637 256.96,42.894 257.635,37.76 
		260.405,28.843 260.472,27.898 	"/>
	<line class="st0" x1="263.843" y1="29.546" x2="260.405" y2="28.843"/>
	<polyline class="st0" points="242.233,25.263 233.519,23.439 230.682,32.964 229.694,40.862 226.561,65.93 	"/>
	<line class="st0" x1="259.392" y1="46.88" x2="229.694" y2="40.862"/>
	<line class="st0" x1="228.858" y1="47.555" x2="258.04" y2="53.568"/>
	<line class="st0" x1="256.892" y1="64.241" x2="227.439" y2="58.161"/>
	<line class="st0" x1="226.072" y1="71.707" x2="254.437" y2="77.781"/>
	<line class="st0" x1="209.355" y1="33.5" x2="229.792" y2="37.708"/>
	<line class="st0" x1="208.353" y1="42.016" x2="228.69" y2="46.324"/>
	<line class="st0" x1="207.151" y1="50.431" x2="227.789" y2="54.839"/>
	<line class="st0" x1="205.648" y1="58.846" x2="226.425" y2="63.059"/>
	<line class="st0" x1="205.04" y1="67.304" x2="225.01" y2="71.44"/>
	<line class="st0" x1="204.061" y1="74.378" x2="223.976" y2="78.677"/>
	<line class="st0" x1="222.009" y1="86.222" x2="223.758" y2="86.621"/>
	<line class="st0" x1="203.009" y1="81.887" x2="220.196" y2="85.808"/>
	<line class="st0" x1="225.391" y1="79.874" x2="234.151" y2="81.669"/>
	<line class="st0" x1="235.836" y1="86.035" x2="250.149" y2="88.961"/>
	<line class="st0" x1="228.057" y1="84.444" x2="233.609" y2="85.579"/>
	<polyline class="st0" points="252.08,88.702 251.421,85.242 251.861,80.298 251.092,81.122 249.663,93.426 250.927,92.218 	"/>
	<polyline class="st0" points="234.558,78.156 233.13,89.856 235.712,87.219 235.327,84.528 235.766,83.979 234.833,80.848 
		235.162,77.991 234.228,77.662 234.888,76.893 238.019,77.552 238.458,77.003 240.655,77.497 240.655,78.101 246.148,79.2 
		246.478,78.705 248.675,79.145 248.565,79.804 251.366,80.408 	"/>
	<line class="st0" x1="201.184" y1="71.288" x2="187.812" y2="68.409"/>
	<line class="st0" x1="203.506" y1="53.551" x2="180.29" y2="48.815"/>
	<line class="st0" x1="205.084" y1="42.872" x2="181.776" y2="38.136"/>
	<line class="st0" x1="204.713" y1="33.121" x2="182.704" y2="28.849"/>
	<polyline class="st0" points="184.097,22.256 183.262,25.135 178.619,62.559 	"/>
	<path class="st0" d="M187.586,71.088l0.942-5.654c0,0,1.068-0.942-1.194-1.382c-2.262-0.44-8.105-1.508-8.105-1.508
		s-1.445-0.126-1.571,1.257c-0.126,1.382-0.434,3.773-0.434,3.773l0.129,0.027l9.715,2.016l0.65,1.95l13.525,2.763"/>
	<polyline class="st0" points="177.354,67.6 179.104,74.607 178.162,80.324 176.842,83.277 176.151,87.926 175.397,87.863 	"/>
	<path class="st0" d="M160.208,142.113l13.201-36.122l1.061,0.088l3.803-10.436l-0.973-0.442l0.884-2.476l2.476,0.442
		c0,0,0.177-2.034,0.884-2.83l-1.519-0.344l-1.299,1.263l-3.141-0.565l-0.503-0.754l0.377-3.016l-1.948-7.288l7.162-53.528
		l4.021-5.529l2.262,0.377l1.131-1.319l5.026,1.068"/>
	<path class="st0" d="M196.903,13.308l0.085,2.394l-2.735,9.061l-0.94,1.111c0,0-0.769-0.085-0.513-1.881
		c0.256-1.795,0.855-6.497,0.855-6.497L196.903,13.308z"/>
	<line class="st0" x1="302.411" y1="35.076" x2="303.818" y2="35.372"/>
	<line class="st0" x1="276.714" y1="29.778" x2="299.562" y2="34.493"/>
	<line class="st0" x1="265.695" y1="27.517" x2="272.377" y2="28.882"/>
	<line class="st0" x1="239.96" y1="22.192" x2="262.578" y2="26.86"/>
	<line class="st0" x1="196.911" y1="13.307" x2="235.565" y2="21.285"/>
	<polyline class="st0" points="184.696,20.576 184.921,18.381 185.694,18.02 186.055,15.649 186.674,15.34 187.962,15.546 
		188.272,17.866 188.088,19.634 	"/>
	<polygon class="st0" points="225.028,18.845 226.11,18.02 227.554,18.33 228.378,19.412 228.172,20.392 224.924,19.67 	"/>
	<polygon class="st0" points="236.523,20.185 239.565,20.856 239.926,22.041 239.462,22.711 235.699,21.938 235.699,21.371 	"/>
	<polygon class="st0" points="262.833,26.65 263.933,25.871 264.941,26.009 265.629,26.925 265.474,27.936 262.764,27.383 	"/>
	<polygon class="st0" points="272.516,28.895 273.417,27.777 276.265,28.39 276.662,29.435 276.337,30.373 272.624,29.616 	"/>
	<polygon class="st0" points="299.6,34.97 299.755,34.094 300.785,33.373 301.815,33.554 302.459,34.506 302.253,35.537 	"/>
	<line class="st0" x1="179.104" y1="74.607" x2="199.321" y2="78.623"/>
	<path class="st0" d="M178.638,78.725l2.129,0.406c0,0,0.912,0,0.71,1.115c-0.203,1.115-1.45,9.747-1.45,9.747"/>
	<polyline class="st0" points="168.927,127.281 167.4,127.02 161.714,142.426 	"/>
	<polyline class="st0" points="167.775,143.804 173.633,128.087 171.383,127.702 	"/>
	<path class="st0" d="M169.141,125.167"/>
	<polyline class="st0" points="182.673,91.279 181.653,94.184 181.666,97.41 190.732,99.187 192.104,94.991 192.352,93.011 	"/>
	<polyline class="st0" points="181.975,94.184 190.53,96 191.701,92.933 	"/>
	<line class="st0" x1="190.732" y1="99.187" x2="190.53" y2="96"/>
	<line class="st0" x1="271.722" y1="110.446" x2="291.414" y2="114.522"/>
	<line class="st0" x1="213.845" y1="98.681" x2="237.865" y2="103.556"/>
	<path class="st0" d="M192.266,95.273c0,0,0.847,0.565,1.009-0.767l10.876,2.207"/>
	<polyline class="st0" points="262.481,107.299 261.754,108.872 261.714,111.746 270.229,113.594 	"/>
	<polyline class="st0" points="270.834,108.913 270.067,110.648 270.229,113.594 272.045,109.195 	"/>
	<line class="st0" x1="261.754" y1="108.872" x2="270.067" y2="110.648"/>
	<polyline class="st0" points="238.38,102.383 237.239,105.584 240.073,106.136 241.287,103.008 	"/>
	<polyline class="st0" points="237.227,105.631 237.239,108.635 240.073,109.187 240.095,106.113 	"/>
	<line class="st0" x1="242.045" y1="104.404" x2="261.875" y2="108.428"/>
	<line class="st0" x1="240.118" y1="109.164" x2="242.343" y2="103.383"/>
	<polyline class="st0" points="204.585,95.482 204.052,96.949 203.913,97.333 203.845,101 212.224,102.683 214.31,97.434 	"/>
	<polyline class="st0" points="212.93,97.164 212.257,98.78 204.182,97.097 	"/>
	<line class="st0" x1="212.358" y1="102.212" x2="212.257" y2="98.78"/>
	<polyline class="st0" points="266.957,157.979 266.254,159.436 266.204,160.29 265.701,161.898 266.606,162.099 266.472,162.723 	
		"/>
	<polyline class="st0" points="269.279,163.336 269.122,162.601 268.386,162.391 268.912,160.868 268.859,159.923 269.594,158.82 
		269.441,155.389 279.638,128.822 280.022,128.684 280.436,128.324 282.515,128.752 282.572,129.884 	"/>
	<polyline class="st0" points="285.851,129.437 283.586,128.972 282.879,129.624 281.934,130.359 281.829,131.357 281.934,134.403 
		272.955,159.293 272.167,159.03 271.432,160.448 271.485,161.288 270.907,162.916 271.8,163.126 271.957,163.914 	"/>
	<polyline class="st0" points="266.472,162.723 268.478,163.156 268.705,162.605 	"/>
	<polyline class="st0" points="269.383,163.367 271.213,163.75 271.386,163.107 	"/>
	<line class="st0" x1="272.692" y1="164.071" x2="272.035" y2="163.928"/>
	<polyline class="st0" points="275.321,127.338 275.071,127.647 274.315,128.055 264.373,155.215 264.365,157.774 263.669,158.956 
		263.716,159.837 263.16,161.412 263.994,161.644 263.993,162.25 265.79,162.611 266.033,161.989 	"/>
	<polyline class="st0" points="274.398,127.083 272.993,126.795 272.334,127.427 271.681,129.89 271.932,132.553 262.636,157.275 
		261.782,157.024 261.078,158.431 261.129,159.185 260.576,160.893 261.48,161.094 261.48,161.647 263.183,162.061 263.467,161.503 
			"/>
	<polyline class="st0" points="277.46,129.155 277.308,127.681 275.191,127.246 	"/>
	<polyline class="st0" points="183.444,108.389 248.379,121.735 248.312,123.022 247.548,123.23 247.479,124.202 247.687,126.493 	
		"/>
	<polyline class="st0" points="279.989,128.179 278.312,127.854 278.014,128.395 277.636,128.774 276.986,130.695 276.797,133.076 
		267.274,157.775 	"/>
	<path class="st0" d="M276.491,156.353l0.91-2.329c0,0,0.645-1.176,0.835,0.228c0.19,1.404,0.228,2.58,0.228,2.58"/>
	<line class="st0" x1="278.262" y1="154.776" x2="280.37" y2="149.439"/>
	<polygon class="st0" points="245.135,126.022 249.039,126.85 250.222,123.714 263.651,126.495 262.586,129.571 266.431,130.399 
		264.006,137.202 260.102,136.256 258.978,139.332 262.941,140.16 260.456,146.904 256.375,146.017 255.191,149.27 241.822,146.49 
		243.005,143.355 238.923,142.586 241.644,135.783 245.431,136.552 246.555,133.535 242.532,132.706 	"/>
	<line class="st0" x1="263.651" y1="126.495" x2="263.794" y2="129.756"/>
	<line class="st0" x1="266.431" y1="130.399" x2="266.71" y2="140.309"/>
	<polyline class="st0" points="264.006,137.202 264.28,146.418 263.169,146.21 	"/>
	<line class="st0" x1="262.941" y1="140.16" x2="263.169" y2="149.612"/>
	<polyline class="st0" points="256.375,146.017 256.782,155.583 260.67,156.346 260.456,146.904 	"/>
	<polyline class="st0" points="255.191,149.27 255.532,158.707 256.782,155.583 	"/>
	<polyline class="st0" points="241.822,146.49 242.064,155.999 238.037,155.097 239.217,151.903 238.923,142.586 	"/>
	<line class="st0" x1="241.948" y1="152.463" x2="239.217" y2="151.903"/>
	<polyline class="st0" points="255.532,158.707 259.485,159.452 260.67,156.346 	"/>
	<polyline class="st0" points="266.716,136.94 267.491,137.095 267.75,137.975 259.577,160.478 238.076,156.003 238.037,155.097 	
		"/>
	<line class="st0" x1="281.934" y1="134.403" x2="283.965" y2="134.772"/>
	<polyline class="st0" points="210.555,151.402 208.861,151.033 208.713,150.297 207.866,150.112 208.529,148.455 208.456,147.571 
		209.155,146.208 210.039,146.392 219.358,121.237 219.284,118.843 219.947,116.817 220.61,116.117 	"/>
	<polyline class="st0" points="215.632,152.417 213.938,152.049 213.791,151.312 212.944,151.128 213.607,149.471 213.533,148.587 
		214.233,147.224 215.117,147.408 224.435,122.252 224.361,119.858 225.024,117.832 225.687,117.133 	"/>
	<polyline class="st0" points="221.019,153.441 219.324,153.073 219.177,152.336 218.33,152.152 218.993,150.494 218.919,149.61 
		219.619,148.248 220.503,148.432 229.425,123.276 229.351,120.882 230.014,118.856 230.677,118.157 	"/>
	<polyline class="st0" points="218.363,153.022 216.669,152.654 216.522,151.917 215.675,151.733 216.233,150.284 216.149,149.266 
		216.87,148.248 217.039,144.949 227.136,117.416 	"/>
	<polyline class="st0" points="223.58,154 221.886,153.632 221.738,152.895 220.891,152.711 221.45,151.262 221.365,150.244 
		222.086,149.226 222.255,145.927 232.275,118.528 	"/>
	<polyline class="st0" points="226.235,154.549 224.541,154.181 224.394,153.444 223.547,153.26 224.21,151.603 224.136,150.719 
		224.836,149.356 225.72,149.54 234.641,124.385 234.568,121.991 235.231,119.965 235.894,119.265 	"/>
	<polyline class="st0" points="228.797,155.109 227.102,154.74 226.955,154.004 226.108,153.82 226.667,152.371 226.582,151.353 
		227.303,150.334 227.472,147.036 237.569,119.503 	"/>
	<polyline class="st0" points="231.256,155.723 229.562,155.355 229.415,154.618 228.568,154.434 229.231,152.777 229.157,151.893 
		229.857,150.53 230.741,150.714 239.662,125.558 239.589,123.164 240.252,121.139 240.915,120.439 	"/>
	<polyline class="st0" points="238.776,143.876 235.957,151.823 235.073,151.638 234.374,153.001 234.447,153.885 233.784,155.543 
		234.631,155.727 234.779,156.463 236.473,156.832 239.154,149.893 	"/>
	<line class="st0" x1="242.761" y1="132.639" x2="241.457" y2="136.315"/>
	<polyline class="st0" points="246.131,121.547 245.468,122.247 244.805,124.273 244.879,126.667 	"/>
	<polyline class="st0" points="233.818,156.283 232.123,155.914 231.976,155.178 231.129,154.993 231.688,153.545 231.603,152.526 
		232.324,151.508 232.493,148.21 242.59,120.676 	"/>
	<polyline class="st0" points="222.069,116.602 211.866,144.557 211.697,147.092 211.071,148.345 211.108,149.155 210.481,150.628 
		211.329,150.812 211.476,151.549 213.17,151.917 	"/>
	<polyline class="st0" points="173.581,143.878 171.886,143.51 171.739,142.773 170.892,142.589 171.555,140.932 171.481,140.048 
		172.181,138.685 173.065,138.869 182.383,113.713 182.31,111.319 182.973,109.294 183.636,108.594 	"/>
	<polyline class="st0" points="185.094,109.079 174.892,137.034 174.722,139.569 174.096,140.821 174.133,141.632 173.507,143.105 
		174.354,143.289 174.501,144.026 176.196,144.394 	"/>
	<polyline class="st0" points="178.729,145.079 177.035,144.711 176.887,143.975 176.04,143.79 176.703,142.133 176.629,141.249 
		177.329,139.886 178.213,140.07 187.532,114.915 187.458,112.521 188.121,110.495 188.784,109.795 	"/>
	<polyline class="st0" points="193.427,110.667 192.764,111.366 192.102,113.392 192.286,115.353 183.269,141.001 182.505,140.758 
		181.805,142.12 181.878,143.004 181.215,144.662 182.063,144.846 182.21,145.583 183.904,145.951 186.563,138.883 	"/>
	<polyline class="st0" points="196.05,110.965 195.387,111.664 194.724,113.69 194.848,115.77 	"/>
	<polyline class="st0" points="190.243,110.28 180.04,138.235 179.871,140.77 179.245,142.022 179.281,142.833 178.655,144.306 
		179.502,144.49 179.65,145.227 181.344,145.595 	"/>
	<polyline class="st0" points="192.286,115.353 196.219,116.127 197.53,112.909 210.939,115.77 209.926,118.869 213.8,119.703 
		211.476,126.437 207.364,125.544 206.35,128.464 210.165,129.358 207.84,136.211 203.728,135.317 202.596,138.357 189.127,135.615 
		190.319,132.635 186.624,131.861 186.684,141.098 185.373,144.376 185.373,145.27 206.827,149.62 215.111,126.974 214.575,126.199 
			"/>
	<polyline class="st0" points="189.008,125.126 192.643,125.842 193.835,122.743 190.14,121.968 190.379,125.067 	"/>
	<line class="st0" x1="210.939" y1="115.77" x2="211.237" y2="119.167"/>
	<line class="st0" x1="213.8" y1="119.703" x2="214.158" y2="129.358"/>
	<polyline class="st0" points="211.476,126.437 211.714,135.913 210.664,135.703 	"/>
	<line class="st0" x1="210.165" y1="129.358" x2="210.522" y2="139.31"/>
	<line class="st0" x1="207.84" y1="136.211" x2="208.079" y2="145.985"/>
	<polyline class="st0" points="203.847,135.377 204.205,144.733 202.953,147.952 202.596,138.357 	"/>
	<line class="st0" x1="204.205" y1="144.733" x2="208.079" y2="145.568"/>
	<line class="st0" x1="202.953" y1="147.952" x2="207.115" y2="148.848"/>
	<polyline class="st0" points="185.373,144.376 189.402,145.126 189.127,135.615 	"/>
	<line class="st0" x1="186.645" y1="141.163" x2="189.299" y2="141.714"/>
	<path class="st0" d="M169.472,125.208c0,0,0.358-1.134,1.617-0.995c0,0,1.202,0.166,0.947,1.507l-0.42,1.259
		c0,0-0.343,1.394-1.637,1.042c0,0-1.067-0.017-0.974-1.182L169.472,125.208z"/>
	<path class="st0" d="M166.645,128.97l0.059-2.274c0,0-0.095-0.634,0.761-0.507s1.574,0.27,1.574,0.27"/>
	<path class="st0" d="M171.89,127l1.845,0.293c0,0,0.539-0.015,0.539,0.568s-0.045,2.679-0.045,2.679l-1.28-0.256"/>
	<polyline class="st0" points="172.128,125.72 172.598,125.783 172.564,127 	"/>
	<line class="st0" x1="169.926" y1="126.066" x2="171.163" y2="126.304"/>
	<line class="st0" x1="170.1" y1="125.415" x2="171.336" y2="125.654"/>
	
		<ellipse transform="matrix(0.1987 -0.9801 0.9801 0.1987 -8.585 266.3304)" class="st0" cx="158.575" cy="138.415" rx="1.756" ry="0.597"/>
	<circle class="st0" cx="280.015" cy="105.662" r="0.889"/>
	<circle class="st0" cx="248.503" cy="99.372" r="0.889"/>
	<path class="st0" d="M217.436,93.909c-0.491,0-0.889-0.398-0.889-0.889s0.398-0.889,0.889-0.889c0.123,0,0.24,0.025,0.346,0.07"/>
	<line class="st0" x1="150.18" y1="154.008" x2="152.639" y2="146.952"/>
</g>
<g>
	<g>
		<path class="st0" d="M104.961,153.549l1.4,0.329l11.717-32.074l-18.676-3.506l-1.646,4.508l-7.442-1.431l-3.363,8.944
			l-3.435-0.644l-2.651,7.051l1.887,0.368c0,0,0.829,0.51-0.191,0.701l-1.968-0.345l-0.655,1.742l2.745,0.518
			c0,0,0.579,0.183,0.518,0.579c-0.061,0.396-0.549,0.335-0.732,0.274l-1.479-0.271c0,0-0.262-0.067-0.39,0.269
			c-0.128,0.336-0.35,1.003-0.35,1.003s-0.215,0.518,0.336,0.626s1.346,0.256,1.346,0.256s0.35,0.04,0.215,0.363
			c-0.135,0.323-1.023,2.611-1.023,2.611s-0.128,0.283-0.538,0.188c-0.41-0.094-1.514-0.323-1.514-0.323s-0.262-0.013-0.377,0.323
			c-0.114,0.336-0.906,2.501-0.906,2.501"/>
		<polygon class="st0" points="103.046,152.836 76.159,147.725 74.913,148.283 72.422,147.982 72.336,149.915 74.913,150.388 
			75.514,151.032 77.061,151.461 102.445,156.401 103.562,156.401 103.648,158.334 104.807,156.53 104.764,152.75 103.691,152.32 		
			"/>
	</g>
	<g>
		<path class="st0" d="M43.448,110.208L33.06,138.744l-1.408-0.469c-1.408-0.352-2.229,0.704-2.229,0.704l-0.939,1.995
			c-0.587,2.816,1.76,3.403,1.76,3.403s24.874,5.045,29.45,5.867c4.576,0.821,5.28-1.525,5.28-1.525l5.867-15.37l-3.403-2.933
			l2.581-6.101c0,0,0,0,2.581-0.469c2.581-0.469,2.699-2.229,2.699-2.229l10.09-28.277l-33.322-6.805l-4.233,11.627l-1.048-0.255
			l-0.707,2.345"/>
		<path class="st0" d="M49.147,110.478l-0.1-0.707l2.631-8.013l-6.071-1.295l-2.833,7.649l0.052,1.507l4.999,1.123
			C47.825,110.742,48.684,111.138,49.147,110.478z"/>
		<path class="st0" d="M48.31,100.721c0.374-0.44,0.154-1.211,0.154-1.211l3.656,0.771c0,0,0.947,0.198,0.573,1.189
			s-3.194,9.074-3.194,9.074"/>
		<ellipse class="st0" cx="47.666" cy="104.083" rx="1.998" ry="1.438"/>
		<path class="st0" d="M43.138,107.892c0,0,0.586-1.305,3.489-0.879c0,0,2.53,0.506,2.797,2.637"/>
		<line class="st0" x1="43.964" y1="109.676" x2="43.937" y2="107.599"/>
		<line class="st0" x1="47.492" y1="100.808" x2="47.492" y2="98.132"/>
		<polyline class="st0" points="31.863,144.698 31.936,147.198 32.543,147.368 33.267,145.499 33.465,144.989 		"/>
		<path class="st0" d="M33.344,145.645l1.141,0.218c0,0-0.728,1.286-0.316,2.233l25.656,5.364c0,0,0.534-0.243,0.461-0.777
			c-0.073-0.534,0.097-2.185,2.063-2.257"/>
		<polygon class="st0" points="61.133,90.091 72.693,92.579 68.45,104.578 56.499,102.139 		"/>
		<path class="st0" d="M50.206,112.919c0,0,0.468-1.978,2.78-1.463c2.598,0.578,14.737,3.107,14.737,3.107s1.562,0.493,1.014,1.863
			c-0.505,1.262-9.214,24.931-9.214,24.931s-0.443,1.877-2.829,1.317c-2.571-0.603-14.731-3.073-14.731-3.073
			s-1.561-0.537-0.927-2.049C41.67,136.041,50.206,112.919,50.206,112.919z"/>
		<path class="st0" d="M77.981,114.232l0.069,2.45c0,0,0.414,0.276,0.725-0.552c0.311-0.828,0.759-2.036,0.759-2.036l0.138,3.692
			h0.449l1.104-2.899l0.345-0.311l1.07-3.037l0.587-0.345l1.035-2.83v-0.725l0.552-1.277l-0.138-3.899"/>
		<path class="st0" d="M80.638,107.055l0.138,2.208c0,0-0.035,1.553,0.656,0.069l1.587-4.451c0,0,0.345-1.277,0.38-1.863
			s0.035-1.07,0.345-1.76c0.179-0.399,0.474-1.131,0.691-1.679c0.159-0.4,0.275-0.702,0.275-0.702l-1.035-0.173"/>
		<polyline class="st0" points="84.637,99.332 84.659,101.144 84.301,102.062 85.241,102.151 85.643,101.234 85.389,93.337 		"/>
	</g>
</g>
<path class="st0" d="M62.084,150.612l0.081,5.296c0,0,0.285,0.652,1.589,0.448"/>
<path class="st0" d="M63.144,156.56l-1.059,0.407l0.121,7.672c0,0-0.218,0.626,0.653,0.49c0,0,1.032,0.139,1.101-0.624
	l-0.407-14.056"/>
<polyline class="st0" points="64.066,164.464 64.917,162.616 65.597,162.736 66.676,160.137 66.636,159.537 65.437,159.317 "/>
<polyline class="st0" points="65.777,162.156 64.837,161.996 64.817,160.557 65.877,157.638 64.337,157.298 64.337,158.937 
	64.757,158.197 64.757,160.377 "/>
<path class="st0" d="M63.849,156.121l0.867-2.45c0,0,0.716-0.151,0.867,0.471l-1.112,3.167"/>
<polyline class="st0" points="64.641,149.637 64.641,151.314 63.83,153.576 "/>
<path class="st0" d="M64.754,151.578c0,0,0.773,0.49-0.226,0.49"/>
<g>
	<g>
		<path class="st0" d="M433.029,178.245l1.4,0.329l11.717-32.074l-18.676-3.506l-1.646,4.508l-7.442-1.431l-3.363,8.944
			l-3.435-0.644l-2.651,7.051l1.887,0.368c0,0,0.829,0.51-0.191,0.701l-1.968-0.345l-0.655,1.742l2.745,0.518
			c0,0,0.579,0.183,0.518,0.579c-0.061,0.396-0.549,0.335-0.732,0.274l-1.479-0.271c0,0-0.262-0.067-0.39,0.269
			c-0.128,0.336-0.35,1.003-0.35,1.003s-0.215,0.518,0.336,0.626c0.552,0.108,1.346,0.256,1.346,0.256s0.35,0.04,0.215,0.363
			c-0.135,0.323-1.023,2.611-1.023,2.611s-0.128,0.283-0.538,0.188c-0.41-0.094-1.514-0.323-1.514-0.323s-0.262-0.013-0.377,0.323
			c-0.114,0.336-0.906,2.501-0.906,2.501"/>
		<polygon class="st0" points="431.114,177.532 404.226,172.421 402.981,172.979 400.49,172.678 400.404,174.611 402.981,175.084 
			403.582,175.728 405.128,176.157 430.513,181.097 431.63,181.097 431.716,183.03 432.875,181.226 432.832,177.446 
			431.759,177.017 		"/>
	</g>
	<g>
		<g>
			<polyline class="st0" points="369.298,94.573 369.73,93.363 336.408,86.558 332.175,98.185 331.128,97.93 330.421,100.275 			"/>
			<path class="st0" d="M327.789,110.234L317.4,138.77l-1.408-0.469c-1.408-0.352-2.229,0.704-2.229,0.704L312.825,141
				c-0.587,2.816,1.76,3.403,1.76,3.403s24.874,5.045,29.45,5.867c4.576,0.821,5.28-1.525,5.28-1.525l5.867-15.37l-3.403-2.933
				l2.581-6.101c0,0,0,0,2.581-0.469c2.581-0.469,2.699-2.229,2.699-2.229l8.962-25.113"/>
			<path class="st0" d="M333.487,110.504l-0.1-0.707l2.631-8.013l-6.071-1.295l-2.833,7.649l0.052,1.507l4.999,1.123
				C332.166,110.768,333.025,111.164,333.487,110.504z"/>
			<path class="st0" d="M332.65,100.747c0.374-0.44,0.154-1.211,0.154-1.211l3.656,0.771c0,0,0.947,0.198,0.573,1.189
				c-0.374,0.991-3.194,9.074-3.194,9.074"/>
			<ellipse class="st0" cx="332.007" cy="104.109" rx="1.998" ry="1.438"/>
			<path class="st0" d="M327.479,107.918c0,0,0.586-1.305,3.489-0.879c0,0,2.53,0.506,2.797,2.637"/>
			<line class="st0" x1="328.305" y1="109.702" x2="328.278" y2="107.625"/>
			<line class="st0" x1="331.832" y1="100.834" x2="331.832" y2="98.158"/>
			<polyline class="st0" points="316.204,144.724 316.277,149.773 316.883,149.943 317.806,147.564 317.806,145.119 			"/>
			<polygon class="st0" points="345.473,90.117 357.034,92.605 352.79,104.604 340.839,102.165 			"/>
			<path class="st0" d="M334.547,112.945c0,0,0.468-1.978,2.78-1.463c2.598,0.578,14.737,3.107,14.737,3.107
				s1.562,0.493,1.014,1.863c-0.505,1.262-9.214,24.931-9.214,24.931s-0.443,1.877-2.829,1.317
				c-2.571-0.603-14.731-3.073-14.731-3.073s-1.561-0.537-0.927-2.049S334.547,112.945,334.547,112.945z"/>
		</g>
		<line class="st0" x1="317.806" y1="147.564" x2="346.313" y2="153.422"/>
		<polyline class="st0" points="317.305,149.348 319.057,149.673 318.69,150.57 318.69,151.996 344.439,157.333 344.806,156.885 
			344.887,155.948 345.295,154.929 346.313,155.051 		"/>
		<path class="st0" d="M346.354,150.325l0.081,5.296c0,0,0.285,0.652,1.589,0.448"/>
		<path class="st0" d="M347.413,156.274l-1.059,0.407l0.121,7.672c0,0-0.218,0.626,0.653,0.49c0,0,1.032,0.139,1.101-0.624
			l-0.407-14.056"/>
		<polyline class="st0" points="348.336,164.178 349.187,162.329 349.867,162.449 350.946,159.85 350.906,159.25 349.707,159.03 		
			"/>
		<polyline class="st0" points="350.047,161.869 349.107,161.709 349.087,160.27 350.147,157.351 348.607,157.011 348.607,158.65 
			349.027,157.911 349.027,160.09 		"/>
		<path class="st0" d="M348.119,155.834l0.867-2.45c0,0,0.716-0.151,0.867,0.471l-1.112,3.167"/>
		<path class="st0" d="M348.854,154.138c0,0,0.396,0,0.641,0.358"/>
		<path class="st0" d="M348.345,155.514c0,0,0.339-0.038,0.773,0.415"/>
		<polyline class="st0" points="348.911,149.35 348.911,151.028 348.1,153.29 		"/>
		<path class="st0" d="M349.024,151.292c0,0,0.773,0.49-0.226,0.49"/>
		<path class="st0" d="M348.396,152.673c0,0,0.61,0.063,0.595,0.532"/>
		<line class="st0" x1="321.232" y1="145.802" x2="321.232" y2="148.112"/>
		<path class="st0" d="M352.528,139.542c0,0-0.843-0.482-1.245,0.161s-0.683,1.847-0.683,1.847s-0.201,0.924,1.044,0.924"/>
		<path class="st0" d="M369.505,94.056l-2.587-0.572c0,0-0.995-0.323-1.368,0.721c-0.373,1.045-1.293,3.557-1.293,3.557
			s-0.199,0.895,0.572,1.99s0.647,1.517,0.348,2.288c-0.298,0.771-1.219,1.716,0.622,2.313"/>
		<path class="st0" d="M369.878,94.653l-2.835-0.522c0,0-1.02,0.05-1.144,0.721c-0.124,0.672,0.075,0.92,0.696,1.119
			c0.622,0.199,4.154,0.87,4.154,0.87s1.045,0.249,2.039-0.174c0.995-0.423,1.84-0.846,3.109-0.547s2.164,0.448,2.164,0.448
			s0.597,0.149,0.721-0.771l-8.605-1.84L369.878,94.653z"/>
		<path class="st0" d="M369.846,102.455l5.162,1.106l0.316,1.422l-0.369,0.895l15.906,3.371l3.476-0.527l37.237,7.637
			c0,0,0.614-1.197,1.072-1.368l-0.086-1.745l0.343-0.915l-3.118-0.572c0,0-0.83,0.172-0.772-1.058
			c0.057-1.23-0.086-4.691-0.086-4.691l-3.003-0.601c0,0-0.629,0.687,0.686,0.944c1.316,0.257,1.316,0.257,1.316,0.257
			s0.706,0.121,0.942-0.257"/>
		<line class="st0" x1="378.939" y1="96.232" x2="425.426" y2="105.589"/>
		<path class="st0" d="M379.587,96.576c0,0-0.639,0.639,0.527,0.903s43.968,9.027,43.968,9.027s0.414,0.15,0.677-0.376
			c0.263-0.527,0.263-0.527,0.263-0.527"/>
		<path class="st0" d="M432.665,113.312l1.258,0.255c0,0,0.272,0.068,0.272,0.374c0,0.306-0.34,0.425-0.34,0.425l0.391,0.306
			l0.017,0.697l-1.02-0.085l-0.289,0.952l-0.544,0.306l-0.17-0.969"/>
		<path class="st0" d="M369.922,96.793l0.15,5.011l-0.827,2.155c0,0-0.175,0.676-1.077,0.601c-0.902-0.075-2.18-0.426-2.18-0.426"/>
		<path class="st0" d="M365.759,104.932l6.291,1.308c0,0,1.536,0.54,1.931-0.685c0.395-1.225,0.706-2.035,0.706-2.035"/>
		<path class="st0" d="M369.663,103.188l3.052,0.602c0,0,0.934,0.145,0.789,0.581c-0.145,0.436-0.353,0.976-0.353,0.976
			s-0.062,0.498-0.83,0.353c-0.768-0.145-3.26-0.664-3.26-0.664s-0.581-0.042-0.581-0.436"/>
		<ellipse class="st0" cx="367.399" cy="103.271" rx="0.436" ry="0.311"/>
		<ellipse class="st0" cx="367.217" cy="95.127" rx="0.436" ry="0.311"/>
	</g>
	<g>
		<path class="st0" d="M364.989,160.514l1.06-2.682l2.183,0.405l1.31-3.368l-2.214-0.53l0.499-1.466l1.84,0.374
			c0,0,1.06-0.062,0.281-0.748l-2.994-0.53l0.78-2.089l1.965,0.374c0,0,0.842-0.062,0.156-0.686l-1.777-0.343l2.588-6.892
			l3.337,0.546l10.478-27.286l23.295,4.397c0,0,0.437,0.094,0.249,0.624s-0.187,0.53-0.187,0.53"/>
		<path class="st0" d="M395.971,157.832l11.061-29.222c0.636,0.185,0.492,0.472,0.492,0.472l0.082,2.483
			c0,0-10.835,28.566-11.102,29.263c-0.267,0.698-0.534,0.513-0.534,0.513l-0.103-2.032c0,0-0.657,1.601-0.78,1.888
			c-0.123,0.287-0.103,0.657-0.103,0.657l-0.021,1.888c0,0.534-0.554,0.369-0.554,0.369c-0.616-0.021-0.595-0.513-0.595-0.513
			s0.021-1.129-0.021-1.724c-0.041-0.595,0.164-1.026,0.164-1.026l0.8-2.073l0.965,0.164c0.595,0.041,0.657-0.226,0.657-0.554
			s-0.575-0.328-0.575-0.328s-2.237-0.493-3.345-0.698s-0.657-0.821-0.657-0.821s0.349-0.985,0.636-1.354
			c0.287-0.369,0.78-0.164,0.78-0.164l1.395,0.287l4.88-12.728l-1.587-0.33c-0.723-0.157-0.33-1.351,0-1.681s0.77-0.157,0.77-0.157
			l1.383,0.267l6.559-16.838c0,0-0.694-0.065-1.541-0.304c-0.846-0.239-0.499-0.912-0.499-0.912s0.13-0.369,0.326-0.738
			c0.195-0.369,0.76-0.174,0.76-0.174l1.563,0.326l0.195-0.434c0.282-0.477,0.998-0.347,0.933-0.347l1.137,0.211
			c0,0,0.677,0.226,0.513,0.944l-2.011,5.438c0,0-0.246,0.657-0.903,0.595"/>
		<polyline class="st0" points="393.816,157.772 393.653,158.181 394.007,158.344 394.062,158.835 391.609,165.185 		"/>
		<path class="st0" d="M364.588,160.808l-1.861-0.363l-1.157,0.545l-1.566-0.227c0,0-0.477,0.068-0.454,0.431
			c0.023,0.363,0.023,1.135,0.023,1.135s0.045,0.477,0.635,0.499s1.271,0.136,1.271,0.136l0.749,0.658l1.884,0.34l0.25,0.25
			l25.349,4.788l0.295-0.113l0.681,0.091l0.045-1.157c0,0,0.068-1.475,0.59-1.203l0.023,0.976l0.34-0.703v-0.976l0.204-0.681
			l-0.703-0.182l-0.136,0.34l-0.068,0.658l-2.406-0.431c0,0,0.159-0.25-0.59-0.386c-0.749-0.136-20.243-3.858-20.243-3.858
			s-0.272-0.045-0.318,0.318c0,0-0.318,0.113-0.182-0.522l-2.042-0.386C365.201,160.786,365.133,161.739,364.588,160.808z"/>
		<polyline class="st0" points="390.686,168.978 391.122,168.792 390.734,169.425 390.816,170.896 391.204,170.916 391.98,168.996 
			391.889,165.233 		"/>
		<g>
			<polygon class="st0" points="367.998,162.28 373.244,163.266 388.326,166.101 388.362,168.047 368.061,164.152 			"/>
			<line class="st0" x1="373.233" y1="164.995" x2="373.244" y2="163.266"/>
			<line class="st0" x1="383.38" y1="166.959" x2="383.391" y2="165.23"/>
			<line class="st0" x1="378.298" y1="165.98" x2="378.315" y2="164.326"/>
		</g>
		<ellipse class="st2" cx="366.967" cy="159.471" rx="0.553" ry="0.357"/>
		<ellipse class="st2" cx="390.162" cy="164.145" rx="0.553" ry="0.357"/>
		<ellipse class="st2" cx="385.674" cy="116.987" rx="0.553" ry="0.357"/>
		<ellipse class="st2" cx="406.532" cy="120.808" rx="0.553" ry="0.357"/>
		<ellipse class="st2" cx="405.937" cy="122.646" rx="0.681" ry="0.498"/>
		<ellipse class="st2" cx="398.888" cy="141.385" rx="0.681" ry="0.498"/>
		<ellipse class="st2" cx="393.242" cy="156.178" rx="0.681" ry="0.498"/>
	</g>
</g>
<g>
	<g>
		<defs>
			<circle id="SVGID_1_" cx="320.416" cy="204.664" r="26.945"/>
		</defs>
		<clipPath id="SVGID_00000043443325226217438820000013946947860829353383_">
			<use xlink:href="#SVGID_1_"  style="overflow:visible;"/>
		</clipPath>
		<g style="clip-path:url(#SVGID_00000043443325226217438820000013946947860829353383_);">
			<polyline class="st0" points="317.172,197.497 321.963,199.994 322.097,203.165 320.681,204.042 			"/>
			<polyline class="st0" points="320.748,201.613 316.497,203.84 316.43,220.842 			"/>
			<polyline class="st0" points="315.148,204.447 307.726,208.293 307.659,225.092 			"/>
			<polyline class="st0" points="335.726,194.056 338.695,195.608 338.627,211.396 321.828,220.167 321.153,219.83 321.085,218.75 
				320.816,218.008 			"/>
			<polyline class="st0" points="310.223,207.146 310.358,218.885 307.659,220.235 			"/>
			<path class="st0" d="M315.148,222.596l-7.017,3.508c0,0-0.54-0.202-0.54,1.282s0,3.711,0,3.711"/>
			<line class="st0" x1="310.223" y1="231.03" x2="310.358" y2="225.227"/>
			<path class="st0" d="M320.653,219.847l-3.917,1.959c0,0-0.48,0.24-0.48,1.399c0,1.159,0.12,7.834,0.12,7.834"/>
			<line class="st0" x1="321.972" y1="231.039" x2="322.132" y2="220.167"/>
			<polyline class="st0" points="314.364,190.192 314.432,189.345 325.218,184.005 322.598,184.393 308.331,191.963 
				314.834,195.263 298.626,203.513 298.529,231.076 			"/>
			<path class="st0" d="M325.479,184.059l13.352,5.93c0,0,0.915,0.068,0.813,1.118c-0.102,1.051-0.542,1.152-0.949,1.457
				c-0.407,0.305-11.624,5.795-11.624,5.795s-0.983,0.847-2.813,0.068c-1.83-0.779-3.423-1.559-3.423-1.559
				s-0.441-0.305-0.271-1.627c0,0,0.136-0.508,0.712-0.712c0.576-0.203,1.762-0.881,1.762-0.881"/>
			<polyline class="st0" points="312.094,189.989 313.958,190.938 314.161,191.785 			"/>
			<line class="st0" x1="314.534" y1="190.938" x2="321.921" y2="194.157"/>
			<polyline class="st0" points="312.873,192.124 320.091,195.716 320.261,199.037 			"/>
			<path class="st0" d="M322.904,191.073l1.559,0.576l6.269-3.118l-0.034-1.118c0,0-0.237-0.576-0.576-0.339
				c-0.339,0.237-5.964,3.05-5.964,3.05L322.904,191.073z"/>
			<path class="st0" d="M324.395,190.091c0,0,0.136,0.949,0.068,1.559"/>
			<line class="st0" x1="315.431" y1="193.39" x2="317.485" y2="192.348"/>
			<polyline class="st0" points="308.071,191.918 308.132,195.69 311.015,197.224 			"/>
		</g>
	</g>
	<circle class="st2" cx="320.416" cy="204.664" r="26.945"/>
</g>
<g>
	<g>
		<defs>
			<circle id="SVGID_00000158726129279061048850000013807239337757491602_" cx="361.137" cy="45.272" r="31.435"/>
		</defs>
		<clipPath id="SVGID_00000081648248227123679710000008845333658979772048_">
			<use xlink:href="#SVGID_00000158726129279061048850000013807239337757491602_"  style="overflow:visible;"/>
		</clipPath>
		<g style="clip-path:url(#SVGID_00000081648248227123679710000008845333658979772048_);">
			<path class="st0" d="M353.734,29.895l1.887-6.967l20.684,3.919c0,0,4.427,0.943,3.411,4.427l-7.374,19.588l-4.456,11.837
				c0,0-1.089,3.411-5.806,3.266l-19.813-3.556l-0.363-5.008c0,0,1.234-5.225,1.814-6.604c0.581-1.379,8.201-21.482,8.201-21.482
				l21.409,4.137c0,0,1.814,0.29,1.814,2.177c0,0,0.077,1.319-0.249,2.711S372.2,51.26,372.2,51.26"/>
			<path class="st0" d="M375.049,34.985l-8.118,21.096c0,0-0.801,2.831-0.641,5.287l-0.427,0.855l-2.136-0.481
				c0,0,0.374-2.297,0.801-3.685c0,0,0.16-4.7-9.026-6.356c0,0-7.637-1.015-10.788,2.083l-0.641,4.219v4.54l2.777-6.142v-2.457"/>
			<line class="st0" x1="347.17" y1="63.238" x2="351.069" y2="52.983"/>
			<path class="st0" d="M344.607,54.906c0,0,3.899-2.51,10.201-1.816c6.302,0.694,9.72,4.967,9.72,4.967"/>
			<line class="st0" x1="363.904" y1="65.796" x2="363.727" y2="61.742"/>
			<line class="st0" x1="365.946" y1="65.054" x2="365.863" y2="62.223"/>
			<line class="st0" x1="341.944" y1="57.628" x2="344.072" y2="58.004"/>
			<line class="st0" x1="358.682" y1="23.623" x2="358.737" y2="30.533"/>
			<path class="st0" d="M359.069,25.005c0,0,0.719,0.332,1.437,0.332s1.161,0.442,1.161,1.88c0,1.437-0.055,4.036-0.055,4.036
				l1.493-3.483c0,0-0.774-1.99,0.166-3.372"/>
			<ellipse class="st0" cx="359.576" cy="42.213" rx="9.143" ry="6.422"/>
		</g>
		
			<line style="clip-path:url(#SVGID_00000081648248227123679710000008845333658979772048_);fill:none;stroke:#231F20;stroke-width:0.5;stroke-miterlimit:10;" x1="355.848" y1="22.788" x2="360.411" y2="9.537"/>
		
			<line style="clip-path:url(#SVGID_00000081648248227123679710000008845333658979772048_);fill:none;stroke:#231F20;stroke-width:0.5;stroke-miterlimit:10;" x1="337.485" y1="76.116" x2="342.138" y2="62.604"/>
	</g>
	<circle class="st2" cx="361.137" cy="45.272" r="31.435"/>
</g>
<g>
	<g>
		<defs>
			<circle id="SVGID_00000139276110299507064650000013848733875079102392_" cx="76.511" cy="45.272" r="31.435"/>
		</defs>
		<clipPath id="SVGID_00000054228622030161940210000003132037825962908042_">
			<use xlink:href="#SVGID_00000139276110299507064650000013848733875079102392_"  style="overflow:visible;"/>
		</clipPath>
		<g style="clip-path:url(#SVGID_00000054228622030161940210000003132037825962908042_);">
			<path class="st0" d="M69.108,29.895l1.887-6.967l20.684,3.919c0,0,4.427,0.943,3.411,4.427l-7.374,19.588L83.26,62.699
				c0,0-1.089,3.411-5.806,3.266l-19.813-3.556l-0.363-5.008c0,0,1.234-5.225,1.814-6.604c0.581-1.379,8.201-21.482,8.201-21.482
				l21.41,4.137c0,0,1.814,0.29,1.814,2.177c0,0,0.077,1.319-0.249,2.711c-0.326,1.391-2.695,12.921-2.695,12.921"/>
			<path class="st0" d="M90.423,34.985l-8.118,21.096c0,0-0.801,2.831-0.641,5.287l-0.427,0.855l-2.136-0.481
				c0,0,0.374-2.297,0.801-3.685c0,0,0.16-4.7-9.026-6.356c0,0-7.637-1.015-10.788,2.083l-0.641,4.219v4.54l2.777-6.142v-2.457"/>
			<line class="st0" x1="62.544" y1="63.238" x2="66.443" y2="52.983"/>
			<path class="st0" d="M59.98,54.906c0,0,3.899-2.51,10.201-1.816c6.302,0.694,9.72,4.967,9.72,4.967"/>
			<line class="st0" x1="79.278" y1="65.796" x2="79.101" y2="61.742"/>
			<line class="st0" x1="81.32" y1="65.054" x2="81.237" y2="62.223"/>
			<line class="st0" x1="57.318" y1="57.628" x2="59.446" y2="58.004"/>
			<line class="st0" x1="74.056" y1="23.623" x2="74.111" y2="30.533"/>
			<path class="st0" d="M74.443,25.005c0,0,0.719,0.332,1.437,0.332c0.719,0,1.161,0.442,1.161,1.88
				c0,1.437-0.055,4.036-0.055,4.036l1.493-3.483c0,0-0.774-1.99,0.166-3.372"/>
			<ellipse class="st0" cx="74.95" cy="42.213" rx="9.143" ry="6.422"/>
		</g>
		
			<line style="clip-path:url(#SVGID_00000054228622030161940210000003132037825962908042_);fill:none;stroke:#231F20;stroke-width:0.5;stroke-miterlimit:10;" x1="71.222" y1="22.788" x2="75.785" y2="9.537"/>
		
			<line style="clip-path:url(#SVGID_00000054228622030161940210000003132037825962908042_);fill:none;stroke:#231F20;stroke-width:0.5;stroke-miterlimit:10;" x1="52.859" y1="76.116" x2="57.512" y2="62.604"/>
	</g>
	<circle class="st2" cx="76.511" cy="45.272" r="31.435"/>
</g>
<g>
	<path class="st8" d="M345.186,188.299l-14.475,5.241c0,0-2.056-9.494,11.305-14.356c2.739-0.995,6.215-0.838,8.076-0.278
		C346.109,183.255,345.108,185.866,345.186,188.299"/>
	<path class="st8" d="M341.585,179.324l12.08-4.399c9.804-3.287,15.575,3.295,15.575,3.295l7.536-2.743l-5.73,15.432l-25.027-4.173
		l8.528-3.102c0,0-8.618-6.84-18.859,0.415L341.585,179.324z"/>
</g>
<g>
	<g>
		<defs>
			<circle id="SVGID_00000014617042418490920570000002829599447278529697_" cx="36.225" cy="204.664" r="26.945"/>
		</defs>
		<clipPath id="SVGID_00000065783199470905317850000015105153833200437420_">
			<use xlink:href="#SVGID_00000014617042418490920570000002829599447278529697_"  style="overflow:visible;"/>
		</clipPath>
		<g style="clip-path:url(#SVGID_00000065783199470905317850000015105153833200437420_);">
			<polyline class="st0" points="32.981,197.497 37.772,199.994 37.907,203.165 36.49,204.042 			"/>
			<polyline class="st0" points="36.557,201.613 32.307,203.84 32.239,220.842 			"/>
			<polyline class="st0" points="30.957,204.447 23.536,208.293 23.468,225.092 			"/>
			<polyline class="st0" points="51.535,194.056 54.504,195.608 54.437,211.396 37.637,220.167 36.962,219.83 36.895,218.75 
				36.625,218.008 			"/>
			<polyline class="st0" points="26.032,207.146 26.167,218.885 23.468,220.235 			"/>
			<path class="st0" d="M30.957,222.596l-7.017,3.508c0,0-0.54-0.202-0.54,1.282s0,3.711,0,3.711"/>
			<line class="st0" x1="26.032" y1="231.03" x2="26.167" y2="225.227"/>
			<path class="st0" d="M36.462,219.847l-3.917,1.959c0,0-0.48,0.24-0.48,1.399c0,1.159,0.12,7.834,0.12,7.834"/>
			<line class="st0" x1="37.781" y1="231.039" x2="37.941" y2="220.167"/>
			<polyline class="st0" points="30.173,190.192 30.241,189.345 41.028,184.005 38.407,184.393 24.14,191.963 30.643,195.263 
				14.435,203.513 14.338,231.076 			"/>
			<path class="st0" d="M41.289,184.059l13.352,5.93c0,0,0.915,0.068,0.813,1.118c-0.102,1.051-0.542,1.152-0.949,1.457
				c-0.407,0.305-11.623,5.795-11.623,5.795s-0.983,0.847-2.813,0.068s-3.423-1.559-3.423-1.559s-0.441-0.305-0.271-1.627
				c0,0,0.136-0.508,0.712-0.712s1.762-0.881,1.762-0.881"/>
			<polyline class="st0" points="27.903,189.989 29.767,190.938 29.97,191.785 			"/>
			<line class="st0" x1="30.343" y1="190.938" x2="37.73" y2="194.157"/>
			<polyline class="st0" points="28.682,192.124 35.9,195.716 36.07,199.037 			"/>
			<path class="st0" d="M38.713,191.073l1.559,0.576l6.269-3.118l-0.034-1.118c0,0-0.237-0.576-0.576-0.339s-5.964,3.05-5.964,3.05
				L38.713,191.073z"/>
			<path class="st0" d="M40.204,190.091c0,0,0.136,0.949,0.068,1.559"/>
			<line class="st0" x1="31.24" y1="193.39" x2="33.294" y2="192.348"/>
			<polyline class="st0" points="23.88,191.918 23.941,195.69 26.824,197.224 			"/>
		</g>
	</g>
	<circle class="st2" cx="36.225" cy="204.664" r="26.945"/>
</g>
<g>
	<path class="st8" d="M60.995,188.299l-14.475,5.241c0,0-2.056-9.494,11.305-14.356c2.739-0.995,6.215-0.838,8.076-0.278
		C61.918,183.255,60.917,185.866,60.995,188.299"/>
	<path class="st8" d="M57.394,179.324l12.08-4.399c9.804-3.287,15.575,3.295,15.575,3.295l7.536-2.743l-5.73,15.432l-25.027-4.173
		l8.528-3.102c0,0-8.618-6.84-18.859,0.415L57.394,179.324z"/>
</g>
<g id="XMLID_10_">
	<g>
		<path class="st10" d="M450.455,127.323c-1.546,1.721-3.281,3.252-5.162,4.55c-1.269,0.89-2.581,1.677-3.937,2.362l-0.7,0.321
			l-6.767-10.325l0.569-0.219c2.231-0.919,4.215-2.173,5.862-3.704l0.365-0.365l10.077,7.015L450.455,127.323z"/>
		<path class="st10" d="M452.627,124.567l-0.656,0.89l-10.442-6.417l0.919-1.152c1.152-1.59,1.969-3.398,2.421-5.367
			c0.175-0.787,0.277-1.59,0.321-2.392l0.029-0.671l12.133,0.962c0.044,1.181-0.481,4.156-0.481,4.156
			c-0.394,1.969-1.021,3.879-1.837,5.717C454.363,121.781,453.546,123.21,452.627,124.567z"/>
		<path class="st10" d="M439.094,135.241l-0.554,0.233c-0.481,0.19-0.992,0.379-1.473,0.54c-1.998,0.685-4.04,1.181-6.11,1.502
			l-0.787,0.087l-2.844-11.914l0.437-0.029c1.677-0.16,3.296-0.496,4.827-0.977l0.292-0.088L439.094,135.241z"/>
		<path class="st10" d="M457.367,109.094l-12.177-0.51l-0.073-0.831c-0.875-7.962-8.152-15.298-18.2-17.558l-0.044,0.219
			l-1.108,4.987l-6.869-13.11l11.842-9.158l-1.167,5.192l0.89,0.219c5.206,1.298,10.164,3.631,14.408,6.883
			c2.494,1.94,4.754,4.2,6.635,6.752c1.152,1.56,2.187,3.237,3.019,5.002c0.86,1.765,1.546,3.617,2.012,5.542
			c0.496,1.925,0.773,3.894,0.817,5.892L457.367,109.094z"/>
		<path class="st10" d="M428.463,137.794l-0.423,0.044c-1.925,0.146-3.865,0.131-5.804,0h-0.058l0.35-12.192l0.335,0.044
			c0.948,0.102,1.881,0.131,2.8,0.088l0.627-0.015L428.463,137.794z"/>
		<path class="st10" d="M421.551,125.544l-1.021,12.133l-0.365-0.044c-1.065-0.131-2.1-0.321-3.135-0.54l-0.525-0.117l2.64-11.856
			l0.335,0.073c0.598,0.131,1.196,0.233,1.779,0.321L421.551,125.544z"/>
	</g>
	<g>
		<path class="st11" d="M440.655,134.556l-6.767-10.325l0.569-0.219c2.231-0.919,4.215-2.173,5.862-3.704l0.365-0.365l10.077,7.015
			l-0.306,0.365c-1.546,1.721-3.281,3.252-5.162,4.55c-1.269,0.89-2.581,1.677-3.937,2.362L440.655,134.556z"/>
		<path class="st11" d="M430.169,137.604l-2.844-11.914l0.437-0.029c1.677-0.16,3.296-0.496,4.827-0.977l0.292-0.088l6.212,10.646
			l-0.554,0.233c-0.481,0.19-0.992,0.379-1.473,0.54c-1.998,0.685-4.04,1.181-6.11,1.502L430.169,137.604z"/>
		<path class="st11" d="M422.236,137.837c1.94,0.131,3.879,0.146,5.804,0l0.423-0.044l-2.173-12.031l-0.627,0.015
			c-0.919,0.044-1.852,0.015-2.8-0.088l-0.335-0.044l-0.35,12.192H422.236z"/>
		<path class="st11" d="M416.505,136.977l2.64-11.856l0.335,0.073c0.598,0.131,1.196,0.233,1.779,0.321l0.292,0.029l-1.021,12.133
			l-0.365-0.044c-1.065-0.131-2.1-0.321-3.135-0.54L416.505,136.977z"/>
		<path class="st11" d="M457.352,108.613c-0.044-1.998-0.321-3.967-0.817-5.892c-0.467-1.925-1.152-3.777-2.012-5.542
			c-0.831-1.765-1.867-3.442-3.019-5.002c-1.881-2.552-4.142-4.812-6.635-6.752c-4.244-3.252-9.202-5.585-14.408-6.883l-0.89-0.219
			l1.167-5.192l-11.842,9.158l6.869,13.11l1.108-4.987l0.044-0.219c10.048,2.26,17.325,9.596,18.2,17.558l0.073,0.831l12.177,0.51
			L457.352,108.613z"/>
		<path class="st11" d="M442.448,117.887c1.152-1.59,1.969-3.398,2.421-5.367c0.175-0.787,0.277-1.59,0.321-2.392l0.029-0.671
			l12.133,0.962c0.044,1.181-0.481,4.156-0.481,4.156c-0.394,1.969-1.021,3.879-1.837,5.717c-0.671,1.487-1.487,2.917-2.406,4.273
			l-0.656,0.89l-10.442-6.417L442.448,117.887z"/>
	</g>
</g>
<g>
	<g>
		<path class="st12" d="M348.079,23.599c0,7.593-6.246,13.745-13.95,13.745c-7.707,0-13.953-6.152-13.953-13.745
			c0-7.596,6.246-13.755,13.953-13.755C341.833,9.844,348.079,16.003,348.079,23.599"/>
	</g>
	<g>
		<path class="st13" d="M335.726,30.64h-1.846V18.879c-0.444,0.424-1.027,0.848-1.748,1.271c-0.722,0.424-1.369,0.742-1.943,0.954
			V19.32c1.032-0.485,1.935-1.073,2.707-1.764s1.319-1.36,1.641-2.01h1.189V30.64z"/>
	</g>
</g>
<g>
	<g>
		<path class="st12" d="M362.845,223.661c0,7.593-6.246,13.745-13.95,13.745c-7.707,0-13.953-6.152-13.953-13.745
			c0-7.596,6.246-13.755,13.953-13.755C356.6,209.906,362.845,216.065,362.845,223.661"/>
	</g>
	<g>
		<path class="st13" d="M353.686,228.929v1.773h-9.937c-0.014-0.444,0.059-0.871,0.216-1.281c0.253-0.677,0.657-1.344,1.215-2
			c0.557-0.656,1.362-1.415,2.415-2.276c1.634-1.34,2.737-2.4,3.312-3.184c0.574-0.782,0.861-1.522,0.861-2.22
			c0-0.731-0.262-1.349-0.784-1.852c-0.523-0.502-1.205-0.753-2.046-0.753c-0.889,0-1.6,0.267-2.133,0.8s-0.803,1.271-0.81,2.215
			l-1.897-0.195c0.13-1.415,0.619-2.493,1.467-3.235c0.848-0.741,1.985-1.112,3.414-1.112c1.442,0,2.584,0.4,3.425,1.2
			s1.262,1.791,1.262,2.974c0,0.602-0.123,1.192-0.369,1.773s-0.655,1.193-1.226,1.836c-0.571,0.643-1.52,1.524-2.846,2.646
			c-1.107,0.93-1.818,1.561-2.133,1.892c-0.314,0.332-0.574,0.665-0.779,1H353.686z"/>
	</g>
</g>
<g>
	<g>
		<path class="st12" d="M419.811,94.517c0,7.593-6.246,13.745-13.95,13.745c-7.707,0-13.953-6.152-13.953-13.745
			c0-7.596,6.246-13.755,13.953-13.755C413.566,80.762,419.811,86.921,419.811,94.517"/>
	</g>
	<g>
		<path class="st13" d="M400.962,97.591l1.846-0.246c0.212,1.046,0.572,1.799,1.082,2.261c0.509,0.461,1.129,0.692,1.86,0.692
			c0.868,0,1.602-0.301,2.2-0.902c0.598-0.602,0.896-1.347,0.896-2.235c0-0.848-0.276-1.546-0.83-2.097
			c-0.554-0.55-1.258-0.825-2.112-0.825c-0.349,0-0.783,0.068-1.303,0.205l0.205-1.62c0.123,0.014,0.223,0.021,0.298,0.021
			c0.786,0,1.493-0.205,2.122-0.615s0.943-1.042,0.943-1.897c0-0.677-0.229-1.237-0.687-1.682s-1.05-0.667-1.774-0.667
			c-0.718,0-1.315,0.226-1.794,0.677s-0.786,1.128-0.923,2.03l-1.846-0.328c0.226-1.237,0.738-2.196,1.538-2.876
			s1.794-1.021,2.983-1.021c0.82,0,1.576,0.176,2.267,0.528s1.218,0.832,1.584,1.44c0.365,0.608,0.549,1.254,0.549,1.938
			c0,0.649-0.175,1.241-0.523,1.774s-0.864,0.957-1.548,1.271c0.889,0.205,1.579,0.631,2.071,1.276
			c0.492,0.646,0.738,1.455,0.738,2.425c0,1.312-0.479,2.425-1.436,3.337c-0.957,0.913-2.167,1.369-3.63,1.369
			c-1.319,0-2.415-0.393-3.286-1.179C401.582,99.86,401.085,98.842,400.962,97.591z"/>
	</g>
</g>
<g>
	<g>
		<path class="st12" d="M139.35,121.234c0,7.593-6.246,13.745-13.95,13.745c-7.707,0-13.953-6.152-13.953-13.745
			c0-7.596,6.246-13.755,13.953-13.755C133.105,107.479,139.35,113.638,139.35,121.234"/>
	</g>
	<g>
		<path class="st13" d="M120.501,124.307l1.846-0.246c0.212,1.046,0.572,1.799,1.082,2.261c0.509,0.461,1.129,0.692,1.861,0.692
			c0.868,0,1.601-0.301,2.2-0.902c0.598-0.602,0.897-1.347,0.897-2.235c0-0.848-0.277-1.546-0.831-2.097
			c-0.554-0.55-1.258-0.825-2.112-0.825c-0.349,0-0.783,0.068-1.302,0.205l0.205-1.62c0.123,0.014,0.222,0.021,0.297,0.021
			c0.786,0,1.494-0.205,2.123-0.615s0.943-1.042,0.943-1.897c0-0.677-0.229-1.237-0.687-1.682s-1.049-0.667-1.774-0.667
			c-0.718,0-1.316,0.226-1.794,0.677s-0.786,1.128-0.923,2.03l-1.846-0.328c0.226-1.237,0.738-2.196,1.538-2.876
			s1.794-1.021,2.984-1.021c0.82,0,1.576,0.176,2.266,0.528c0.69,0.352,1.218,0.832,1.584,1.44s0.549,1.254,0.549,1.938
			c0,0.649-0.174,1.241-0.523,1.774s-0.865,0.957-1.548,1.271c0.889,0.205,1.579,0.631,2.071,1.276
			c0.492,0.646,0.738,1.455,0.738,2.425c0,1.312-0.479,2.425-1.436,3.337c-0.957,0.913-2.167,1.369-3.63,1.369
			c-1.319,0-2.415-0.393-3.286-1.179C121.121,126.577,120.624,125.558,120.501,124.307z"/>
	</g>
</g>
<g>
	<g>
		<path class="st12" d="M464.693,185.555c0,7.593-6.246,13.745-13.95,13.745c-7.707,0-13.953-6.152-13.953-13.745
			c0-7.596,6.246-13.755,13.953-13.755C458.447,171.8,464.693,177.959,464.693,185.555"/>
	</g>
	<g>
		<path class="st13" d="M451.171,192.308v-3.6h-6.521v-1.691l6.86-9.741h1.507v9.741h2.03v1.691h-2.03v3.6H451.171z
			 M451.171,187.017v-6.778l-4.706,6.778H451.171z"/>
	</g>
</g>
<polygon class="st13" points="30.58,130.314 31.608,128.574 34.768,138.485 "/>
<g>
	<path class="st14" d="M355.965,14.582c0,0-3.335,5.529-4.004,12.761c-0.61,6.584,2.413,12.751,2.413,12.751l13.021,2.797
		c0,0-3.295-6.789-2.685-13.368c0.669-7.233,4.405-12.356,4.405-12.356l5.992,1.299l-6.215-12.367l-19.397,7.051L355.965,14.582z"/>
</g>
<g>
	<g>
		<path class="st13" d="M83.546,30.64h-1.846V18.879c-0.444,0.424-1.027,0.848-1.749,1.271s-1.369,0.742-1.943,0.954V19.32
			c1.032-0.485,1.935-1.073,2.707-1.764s1.319-1.36,1.641-2.01h1.189V30.64z"/>
	</g>
</g>
<g id="LINE_1_">
	<g id="XMLID_9_">
		<g>
			<polygon class="st15" points="396.656,137.457 376.442,141.287 377.8,137.715 357.59,133.882 360.296,126.738 380.506,130.568 
				381.861,126.996 			"/>
		</g>
		<g>
			<line class="st16" x1="360.296" y1="126.738" x2="357.59" y2="133.882"/>
			<line class="st16" x1="376.442" y1="141.287" x2="396.656" y2="137.457"/>
			<line class="st16" x1="381.861" y1="126.996" x2="380.506" y2="130.568"/>
			<line class="st16" x1="377.8" y1="137.715" x2="376.442" y2="141.287"/>
			<line class="st16" x1="357.59" y1="133.882" x2="377.8" y2="137.715"/>
			<line class="st16" x1="380.506" y1="130.568" x2="360.296" y2="126.738"/>
			<line class="st16" x1="396.656" y1="137.457" x2="381.861" y2="126.996"/>
		</g>
	</g>
</g>
<g id="LINE_5335_">
	<g id="XMLID_36_">
		<g>
			<polygon class="st15" points="110.713,135.395 90.499,139.225 91.857,135.653 71.647,131.82 74.353,124.676 94.563,128.506 
				95.918,124.934 			"/>
		</g>
		<g>
			<line class="st16" x1="74.353" y1="124.676" x2="71.647" y2="131.82"/>
			<line class="st16" x1="90.499" y1="139.225" x2="110.713" y2="135.395"/>
			<line class="st16" x1="95.918" y1="124.934" x2="94.563" y2="128.506"/>
			<line class="st16" x1="91.857" y1="135.653" x2="90.499" y2="139.225"/>
			<line class="st16" x1="71.647" y1="131.82" x2="91.857" y2="135.653"/>
			<line class="st16" x1="94.563" y1="128.506" x2="74.353" y2="124.676"/>
			<line class="st16" x1="110.713" y1="135.395" x2="95.918" y2="124.934"/>
		</g>
	</g>
</g>
<g id="LINE_3_">
	<g id="XMLID_77_">
		<g>
			<polygon class="st15" points="435.185,160.343 414.97,164.172 416.329,160.6 396.118,156.767 398.824,149.623 419.035,153.453 
				420.389,149.881 			"/>
		</g>
		<g>
			<line class="st16" x1="398.824" y1="149.623" x2="396.118" y2="156.767"/>
			<line class="st16" x1="414.97" y1="164.172" x2="435.185" y2="160.343"/>
			<line class="st16" x1="420.389" y1="149.881" x2="419.035" y2="153.453"/>
			<line class="st16" x1="416.329" y1="160.6" x2="414.97" y2="164.172"/>
			<line class="st16" x1="396.118" y1="156.767" x2="416.329" y2="160.6"/>
			<line class="st16" x1="419.035" y1="153.453" x2="398.824" y2="149.623"/>
			<line class="st16" x1="435.185" y1="160.343" x2="420.389" y2="149.881"/>
		</g>
	</g>
</g>
<line class="st17" x1="327.831" y1="176.275" x2="343.831" y2="161.875"/>
<g>
	<g>
		<path class="st12" d="M78.654,223.661c0,7.593-6.246,13.745-13.95,13.745c-7.707,0-13.953-6.152-13.953-13.745
			c0-7.596,6.246-13.755,13.953-13.755C72.409,209.906,78.654,216.065,78.654,223.661"/>
	</g>
	<g>
		<path class="st13" d="M69.495,228.929v1.773h-9.936c-0.014-0.444,0.058-0.871,0.215-1.281c0.253-0.677,0.658-1.344,1.215-2
			c0.557-0.656,1.362-1.415,2.415-2.276c1.634-1.34,2.738-2.4,3.312-3.184c0.574-0.782,0.861-1.522,0.861-2.22
			c0-0.731-0.262-1.349-0.784-1.852c-0.523-0.502-1.205-0.753-2.046-0.753c-0.889,0-1.6,0.267-2.133,0.8s-0.803,1.271-0.81,2.215
			l-1.897-0.195c0.13-1.415,0.619-2.493,1.466-3.235c0.848-0.741,1.986-1.112,3.415-1.112c1.442,0,2.584,0.4,3.425,1.2
			s1.261,1.791,1.261,2.974c0,0.602-0.123,1.192-0.369,1.773s-0.655,1.193-1.225,1.836c-0.571,0.643-1.52,1.524-2.846,2.646
			c-1.107,0.93-1.818,1.561-2.133,1.892c-0.314,0.332-0.574,0.665-0.779,1H69.495z"/>
	</g>
</g>
<line class="st17" x1="43.64" y1="176.275" x2="59.64" y2="161.875"/>
<line class="st18" x1="355.031" y1="62.032" x2="335.511" y2="98.193"/>
<line class="st17" x1="355.031" y1="62.032" x2="335.511" y2="98.193"/>
<g>
	<g>
		<path class="st12" d="M63.453,23.599c0,7.593-6.246,13.745-13.95,13.745c-7.707,0-13.953-6.152-13.953-13.745
			c0-7.596,6.246-13.755,13.953-13.755C57.207,9.844,63.453,16.003,63.453,23.599"/>
	</g>
	<g>
		<path class="st13" d="M51.1,30.64h-1.846V18.879c-0.444,0.424-1.027,0.848-1.749,1.271s-1.369,0.742-1.943,0.954V19.32
			c1.032-0.485,1.935-1.073,2.707-1.764s1.319-1.36,1.641-2.01H51.1V30.64z"/>
	</g>
</g>
<g>
	<path class="st14" d="M71.339,14.582c0,0-3.335,5.529-4.004,12.761c-0.61,6.584,2.413,12.751,2.413,12.751l13.021,2.797
		c0,0-3.295-6.789-2.685-13.368c0.669-7.233,4.405-12.356,4.405-12.356l5.992,1.299L84.265,6.097l-19.397,7.051L71.339,14.582z"/>
</g>
<line class="st18" x1="70.405" y1="62.032" x2="50.885" y2="98.193"/>
<line class="st17" x1="70.405" y1="62.032" x2="50.885" y2="98.193"/>
<g>
	<polyline class="st19" points="319.593,114.718 216.967,114.718 216.967,168.452 	"/>
	<line class="st19" x1="254.726" y1="169.019" x2="254.726" y2="115.285"/>
</g>
<g>
	<polyline class="st20" points="319.593,114.718 216.967,114.718 216.967,168.452 	"/>
	<line class="st20" x1="254.726" y1="169.019" x2="254.726" y2="115.285"/>
</g>
<g>
	<polyline class="st19" points="75.984,103.234 178.611,103.234 178.611,156.967 	"/>
</g>
<g>
	<polyline class="st20" points="75.984,103.234 178.611,103.234 178.611,156.967 	"/>
</g>
<g>
	<path class="st10" d="M217.801,267.474v-11.453h4.32c0.76,0,1.341,0.036,1.742,0.109c0.562,0.094,1.034,0.272,1.414,0.535
		c0.38,0.263,0.686,0.632,0.918,1.105c0.231,0.474,0.348,0.995,0.348,1.562c0,0.974-0.31,1.798-0.93,2.473
		c-0.62,0.675-1.74,1.012-3.359,1.012h-2.938v4.656H217.801z M219.317,261.466h2.961c0.979,0,1.674-0.183,2.086-0.547
		c0.411-0.364,0.617-0.878,0.617-1.539c0-0.479-0.121-0.89-0.363-1.23s-0.562-0.566-0.957-0.676
		c-0.255-0.067-0.727-0.102-1.414-0.102h-2.93V261.466z"/>
	<path class="st10" d="M235.845,263.458l1.516,0.383c-0.318,1.245-0.89,2.194-1.715,2.848c-0.826,0.653-1.835,0.98-3.027,0.98
		c-1.234,0-2.238-0.251-3.012-0.754s-1.362-1.23-1.766-2.184c-0.404-0.953-0.605-1.977-0.605-3.07c0-1.192,0.228-2.233,0.684-3.121
		c0.456-0.888,1.104-1.562,1.945-2.023c0.841-0.461,1.767-0.691,2.777-0.691c1.146,0,2.109,0.292,2.891,0.875
		s1.325,1.403,1.633,2.461l-1.492,0.352c-0.266-0.833-0.651-1.44-1.156-1.82c-0.505-0.38-1.141-0.57-1.906-0.57
		c-0.88,0-1.616,0.211-2.207,0.633c-0.591,0.422-1.007,0.988-1.246,1.699c-0.24,0.711-0.359,1.444-0.359,2.199
		c0,0.974,0.142,1.824,0.426,2.551c0.284,0.727,0.725,1.27,1.324,1.629c0.599,0.359,1.247,0.539,1.945,0.539
		c0.849,0,1.567-0.245,2.156-0.734C235.238,265.149,235.637,264.422,235.845,263.458z"/>
	<path class="st10" d="M238.686,267.474v-11.453h1.516v11.453H238.686z"/>
	<path class="st10" d="M247.573,264.802l1.453,0.18c-0.229,0.849-0.654,1.508-1.273,1.977c-0.62,0.469-1.412,0.703-2.375,0.703
		c-1.214,0-2.176-0.374-2.887-1.121s-1.066-1.796-1.066-3.145c0-1.396,0.359-2.479,1.078-3.25s1.65-1.156,2.797-1.156
		c1.109,0,2.016,0.378,2.719,1.133s1.055,1.817,1.055,3.188c0,0.083-0.003,0.208-0.008,0.375h-6.188
		c0.052,0.911,0.31,1.609,0.773,2.094c0.463,0.484,1.041,0.727,1.734,0.727c0.516,0,0.955-0.136,1.32-0.406
		C247.07,265.829,247.359,265.396,247.573,264.802z M242.956,262.529h4.633c-0.062-0.698-0.24-1.222-0.531-1.57
		c-0.448-0.542-1.029-0.812-1.742-0.812c-0.646,0-1.189,0.216-1.629,0.648C243.246,261.227,243.003,261.805,242.956,262.529z"/>
	<path class="st10" d="M257.754,267.474v-2.742h-4.969v-1.289l5.227-7.422h1.148v7.422h1.547v1.289h-1.547v2.742H257.754z
		 M257.754,263.443v-5.164l-3.586,5.164H257.754z"/>
	<path class="st10" d="M261.189,264.037v-1.414h4.32v1.414H261.189z"/>
	<path class="st10" d="M265.873,264.474l1.477-0.125c0.109,0.719,0.363,1.259,0.762,1.621s0.879,0.543,1.441,0.543
		c0.677,0,1.25-0.255,1.719-0.766s0.703-1.188,0.703-2.031c0-0.802-0.226-1.435-0.676-1.898c-0.451-0.464-1.041-0.695-1.77-0.695
		c-0.453,0-0.862,0.103-1.227,0.309c-0.365,0.206-0.651,0.473-0.859,0.801l-1.32-0.172l1.109-5.883h5.695v1.344h-4.57l-0.617,3.078
		c0.688-0.479,1.408-0.719,2.164-0.719c1,0,1.844,0.347,2.531,1.039s1.031,1.583,1.031,2.672c0,1.036-0.303,1.933-0.906,2.688
		c-0.734,0.927-1.737,1.391-3.008,1.391c-1.042,0-1.893-0.292-2.551-0.875C266.343,266.211,265.967,265.438,265.873,264.474z"/>
</g>
<g>
	<path class="st10" d="M149.582,267.474v-11.453h4.32c0.76,0,1.341,0.036,1.742,0.109c0.562,0.094,1.034,0.272,1.414,0.535
		c0.38,0.263,0.686,0.632,0.918,1.105c0.231,0.474,0.348,0.995,0.348,1.562c0,0.974-0.31,1.798-0.93,2.473
		c-0.62,0.675-1.74,1.012-3.359,1.012h-2.938v4.656H149.582z M151.098,261.466h2.961c0.979,0,1.674-0.183,2.086-0.547
		c0.411-0.364,0.617-0.878,0.617-1.539c0-0.479-0.121-0.89-0.363-1.23s-0.562-0.566-0.957-0.676
		c-0.255-0.067-0.727-0.102-1.414-0.102h-2.93V261.466z"/>
	<path class="st10" d="M167.626,263.458l1.516,0.383c-0.318,1.245-0.89,2.194-1.715,2.848c-0.826,0.653-1.835,0.98-3.027,0.98
		c-1.234,0-2.238-0.251-3.012-0.754s-1.362-1.23-1.766-2.184c-0.404-0.953-0.605-1.977-0.605-3.07c0-1.192,0.228-2.233,0.684-3.121
		c0.456-0.888,1.104-1.562,1.945-2.023c0.841-0.461,1.767-0.691,2.777-0.691c1.146,0,2.109,0.292,2.891,0.875
		s1.325,1.403,1.633,2.461l-1.492,0.352c-0.266-0.833-0.651-1.44-1.156-1.82c-0.505-0.38-1.141-0.57-1.906-0.57
		c-0.88,0-1.616,0.211-2.207,0.633c-0.591,0.422-1.007,0.988-1.246,1.699c-0.24,0.711-0.359,1.444-0.359,2.199
		c0,0.974,0.142,1.824,0.426,2.551c0.284,0.727,0.725,1.27,1.324,1.629c0.599,0.359,1.247,0.539,1.945,0.539
		c0.849,0,1.567-0.245,2.156-0.734C167.019,265.149,167.418,264.422,167.626,263.458z"/>
	<path class="st10" d="M170.466,267.474v-11.453h1.516v11.453H170.466z"/>
	<path class="st10" d="M179.354,264.802l1.453,0.18c-0.229,0.849-0.654,1.508-1.273,1.977c-0.62,0.469-1.412,0.703-2.375,0.703
		c-1.214,0-2.176-0.374-2.887-1.121s-1.066-1.796-1.066-3.145c0-1.396,0.359-2.479,1.078-3.25s1.651-1.156,2.797-1.156
		c1.109,0,2.016,0.378,2.719,1.133s1.055,1.817,1.055,3.188c0,0.083-0.003,0.208-0.008,0.375h-6.188
		c0.052,0.911,0.31,1.609,0.773,2.094c0.463,0.484,1.042,0.727,1.734,0.727c0.516,0,0.956-0.136,1.32-0.406
		C178.851,265.829,179.14,265.396,179.354,264.802z M174.737,262.529h4.633c-0.062-0.698-0.24-1.222-0.531-1.57
		c-0.448-0.542-1.029-0.812-1.742-0.812c-0.646,0-1.189,0.216-1.629,0.648C175.027,261.227,174.784,261.805,174.737,262.529z"/>
	<path class="st10" d="M192.418,266.122v1.352h-7.57c-0.011-0.339,0.044-0.664,0.164-0.977c0.192-0.516,0.501-1.023,0.926-1.523
		c0.424-0.5,1.038-1.078,1.84-1.734c1.245-1.021,2.086-1.829,2.523-2.426s0.656-1.16,0.656-1.691c0-0.558-0.199-1.027-0.598-1.41
		s-0.918-0.574-1.559-0.574c-0.677,0-1.219,0.203-1.625,0.609s-0.612,0.969-0.617,1.688l-1.445-0.148
		c0.099-1.078,0.471-1.899,1.117-2.465c0.646-0.565,1.513-0.848,2.602-0.848c1.099,0,1.969,0.305,2.609,0.914
		s0.961,1.364,0.961,2.266c0,0.458-0.094,0.909-0.281,1.352s-0.499,0.909-0.934,1.398c-0.435,0.489-1.158,1.161-2.168,2.016
		c-0.844,0.708-1.386,1.188-1.625,1.441c-0.24,0.253-0.438,0.507-0.594,0.762H192.418z"/>
	<path class="st10" d="M192.97,264.037v-1.414h4.32v1.414H192.97z"/>
	<path class="st10" d="M197.662,264.451l1.406-0.188c0.161,0.797,0.436,1.371,0.824,1.723c0.388,0.352,0.86,0.527,1.418,0.527
		c0.661,0,1.22-0.229,1.676-0.688c0.456-0.458,0.684-1.026,0.684-1.703c0-0.646-0.211-1.179-0.633-1.598s-0.958-0.629-1.609-0.629
		c-0.266,0-0.597,0.052-0.992,0.156l0.156-1.234c0.094,0.011,0.169,0.016,0.227,0.016c0.599,0,1.138-0.156,1.617-0.469
		c0.479-0.312,0.719-0.794,0.719-1.445c0-0.516-0.175-0.942-0.523-1.281c-0.349-0.339-0.8-0.508-1.352-0.508
		c-0.547,0-1.003,0.172-1.367,0.516c-0.365,0.344-0.599,0.859-0.703,1.547l-1.406-0.25c0.172-0.942,0.562-1.673,1.172-2.191
		s1.367-0.777,2.273-0.777c0.625,0,1.2,0.134,1.727,0.402c0.526,0.269,0.928,0.634,1.207,1.098c0.278,0.464,0.418,0.956,0.418,1.477
		c0,0.495-0.133,0.945-0.398,1.352s-0.659,0.729-1.18,0.969c0.677,0.156,1.203,0.48,1.578,0.973s0.562,1.108,0.562,1.848
		c0,1-0.365,1.848-1.094,2.543c-0.729,0.695-1.651,1.043-2.766,1.043c-1.005,0-1.84-0.3-2.504-0.898
		S197.755,265.404,197.662,264.451z"/>
</g>
<line class="st19" x1="232.071" y1="251.133" x2="232.071" y2="223.061"/>
<line class="st20" x1="232.071" y1="251.133" x2="232.071" y2="223.061"/>
<line class="st19" x1="194.553" y1="251.133" x2="194.553" y2="215.289"/>
<line class="st20" x1="194.553" y1="251.133" x2="194.553" y2="215.289"/>
</svg>
