<?xml version="1.0" encoding="utf-8"?>
<!-- Generator: Adobe Illustrator 26.0.3, SVG Export Plug-In . SVG Version: 6.00 Build 0)  -->
<svg version="1.1" id="Layer_1" xmlns="http://www.w3.org/2000/svg" xmlns:xlink="http://www.w3.org/1999/xlink" x="0px" y="0px"
	 viewBox="0 0 230.39999 144.4176" style="enable-background:new 0 0 230.39999 144.4176;" xml:space="preserve">
<style type="text/css">
	.st0{fill:#929497;}
	.st1{fill:#1E4A93;}
	.st2{fill:#26A9E0;}
	.st3{fill:#FFFFFF;}
	.st4{fill:none;stroke:#1E4A93;stroke-width:2.01079;stroke-miterlimit:10;}
	.st5{fill:none;stroke:#26A9E0;stroke-width:2.01079;stroke-miterlimit:10;}
	.st6{fill:#6D6E70;}
</style>
<g>
	<g>
		<rect x="49.91187" y="11.87496" class="st0" width="39.49714" height="6.59852"/>
		<rect x="143.75331" y="11.87496" class="st0" width="39.49714" height="6.59852"/>
		<rect x="49.91187" y="3.60179" class="st0" width="39.49714" height="6.59852"/>
		<rect x="143.75331" y="3.60179" class="st0" width="39.49714" height="6.59852"/>
		<rect x="49.91187" y="20.30119" class="st0" width="39.49714" height="6.59852"/>
		<rect x="143.75331" y="20.30119" class="st0" width="39.49714" height="6.59852"/>
		<rect x="49.91187" y="28.72742" class="st0" width="39.49714" height="6.59852"/>
		<rect x="143.75331" y="28.72742" class="st0" width="39.49714" height="6.59852"/>
		<rect x="49.91187" y="37.15365" class="st0" width="39.49714" height="6.59852"/>
		<rect x="143.75331" y="37.15365" class="st0" width="39.49714" height="6.59852"/>
		<rect x="49.91187" y="62.43235" class="st0" width="39.49714" height="6.59852"/>
		<rect x="143.75331" y="62.43235" class="st0" width="39.49714" height="6.59852"/>
		<rect x="143.75331" y="45.57989" class="st0" width="39.49714" height="15.02475"/>
		<rect x="49.91187" y="45.57989" class="st0" width="39.49714" height="15.02475"/>
		<rect x="49.91187" y="70.85858" class="st0" width="39.49714" height="6.59852"/>
		<rect x="143.75331" y="70.85858" class="st0" width="39.49714" height="6.59852"/>
		<rect x="49.91187" y="79.28481" class="st0" width="39.49714" height="6.59852"/>
		<rect x="143.75331" y="79.28481" class="st0" width="39.49714" height="6.59852"/>
		<rect x="49.91187" y="87.71104" class="st0" width="39.49714" height="6.59852"/>
		<rect x="143.75331" y="87.71104" class="st0" width="39.49714" height="6.59852"/>
		<rect x="49.91187" y="96.13728" class="st0" width="39.49714" height="6.59852"/>
		<rect x="143.75331" y="96.13728" class="st0" width="39.49714" height="6.59852"/>
		<rect x="47.63377" y="105.26195" class="st1" width="33.43312" height="14.06637"/>
		<rect x="81.88234" y="105.26195" class="st2" width="33.43312" height="14.06637"/>
		<rect x="151.1949" y="105.26195" class="st2" width="33.43312" height="14.06637"/>
		<rect x="116.74249" y="105.26195" class="st1" width="33.43312" height="14.06637"/>
		<g>
			<rect x="92.89081" y="3.60179" class="st1" width="22.95396" height="99.134"/>
			<g>
				<path class="st3" d="M105.46074,46.15907l2.69824,7.21533h-1.64746l-0.54541-1.60693h-2.69824l-0.56592,1.60693h-1.59668
					l2.72852-7.21533H105.46074z M105.55156,50.58534l-0.90918-2.64795h-0.02051l-0.93994,2.64795H105.55156z"/>
			</g>
		</g>
		<g>
			<path class="st3" d="M54.44902,109.15565c0.40723,0,0.75391,0.05957,1.03955,0.17773
				c0.28564,0.11914,0.51855,0.27539,0.69775,0.46973c0.1792,0.19531,0.31006,0.41699,0.39209,0.66602
				c0.08252,0.25,0.12354,0.50781,0.12354,0.77539c0,0.26172-0.04102,0.51855-0.12354,0.77051
				c-0.08203,0.25293-0.21289,0.47656-0.39209,0.6709s-0.41211,0.35059-0.69775,0.46973
				c-0.28564,0.11816-0.63232,0.17773-1.03955,0.17773h-1.50488v2.33496h-1.43213v-6.5127H54.44902z M54.05693,112.22108
				c0.16406,0,0.32178-0.0127,0.47412-0.03711c0.15186-0.02441,0.28564-0.07129,0.40137-0.1416
				c0.11523-0.06934,0.20801-0.16797,0.27832-0.2959c0.06982-0.12793,0.10449-0.29492,0.10449-0.50195
				c0-0.20605-0.03467-0.37402-0.10449-0.50195c-0.07031-0.12695-0.16309-0.22559-0.27832-0.2959
				c-0.11572-0.07031-0.24951-0.11719-0.40137-0.1416c-0.15234-0.02441-0.31006-0.03613-0.47412-0.03613h-1.11279v1.95215H54.05693z
				"/>
			<path class="st3" d="M58.68975,114.06288c0.0791,0.15234,0.18408,0.27539,0.31494,0.36914
				c0.13086,0.09473,0.28418,0.16504,0.46045,0.20996c0.17627,0.0459,0.35889,0.06836,0.54736,0.06836
				c0.12793,0,0.26465-0.00977,0.41064-0.03125c0.14551-0.02148,0.28271-0.0625,0.41016-0.12305
				c0.12793-0.06152,0.23389-0.14453,0.31934-0.25098c0.08496-0.10645,0.12744-0.24219,0.12744-0.40625
				c0-0.17578-0.05615-0.31934-0.16846-0.42871c-0.11279-0.10938-0.25977-0.2002-0.44238-0.27344s-0.38916-0.13672-0.62012-0.19141
				c-0.23145-0.05469-0.46533-0.11523-0.70264-0.18262c-0.24316-0.06055-0.48047-0.13574-0.71143-0.22363
				s-0.4375-0.20215-0.62012-0.3418c-0.18213-0.13965-0.33008-0.31445-0.44238-0.52441s-0.16846-0.46387-0.16846-0.76172
				c0-0.33398,0.07129-0.625,0.21436-0.87109c0.14258-0.24609,0.32959-0.45117,0.56055-0.61523
				c0.23145-0.16504,0.49268-0.28613,0.78467-0.36523s0.5835-0.11816,0.87549-0.11816c0.34033,0,0.66748,0.03809,0.98047,0.11328
				c0.31299,0.07617,0.59131,0.19922,0.83447,0.37012c0.24316,0.16992,0.43652,0.3877,0.57959,0.65137
				c0.14258,0.26465,0.21387,0.58594,0.21387,0.96289h-1.38623c-0.01221-0.19434-0.05322-0.35645-0.12305-0.4834
				c-0.06982-0.12793-0.1626-0.22852-0.27832-0.30078c-0.11523-0.07324-0.24756-0.125-0.39648-0.15527
				c-0.14941-0.03027-0.31201-0.0459-0.48828-0.0459c-0.11523,0-0.23096,0.0127-0.34619,0.03613
				c-0.11572,0.02441-0.2207,0.06738-0.31494,0.12793s-0.17188,0.13672-0.23242,0.22852
				c-0.06104,0.09082-0.09131,0.20605-0.09131,0.34668c0,0.12695,0.02441,0.23047,0.07275,0.30957
				c0.04883,0.0791,0.14453,0.15234,0.2876,0.21875c0.14258,0.06738,0.34033,0.13379,0.59277,0.20117
				c0.25244,0.06641,0.58203,0.15137,0.98975,0.25488c0.12158,0.02441,0.29004,0.06836,0.50586,0.13281
				c0.21582,0.06348,0.43018,0.16504,0.64307,0.30566c0.21289,0.13965,0.39697,0.32617,0.55176,0.56055
				c0.15527,0.23438,0.23291,0.5332,0.23291,0.89844c0,0.29785-0.05811,0.57422-0.17334,0.83008
				c-0.11572,0.25488-0.2876,0.47559-0.51562,0.66113s-0.51074,0.33008-0.84814,0.43359
				c-0.3374,0.10254-0.72803,0.1543-1.17188,0.1543c-0.35889,0-0.70703-0.04395-1.04443-0.13184s-0.63525-0.22656-0.89355-0.41504
				c-0.25879-0.18848-0.46387-0.42871-0.61572-0.7207c-0.15234-0.29199-0.2251-0.63867-0.21924-1.04004h1.38672
				C58.57158,113.72597,58.61065,113.91151,58.68975,114.06288z"/>
			<path class="st3" d="M68.30351,115.17128c-0.49268,0.42871-1.17383,0.64258-2.04346,0.64258
				c-0.88135,0-1.56396-0.21191-2.04736-0.6377c-0.48339-0.42578-0.72509-1.08301-0.72509-1.9707v-4.0498h1.43213v4.0498
				c0,0.17676,0.01514,0.34961,0.04541,0.52051c0.03027,0.16992,0.09424,0.32031,0.19141,0.45117s0.23291,0.2373,0.40576,0.31934
				c0.17334,0.08203,0.40625,0.12305,0.69775,0.12305c0.51123,0,0.86377-0.11426,1.05811-0.3418
				c0.19482-0.22852,0.29199-0.58594,0.29199-1.07227v-4.0498h1.43213v4.0498
				C69.04228,114.0873,68.7957,114.74257,68.30351,115.17128z"/>
			<path class="st3" d="M74.45976,115.66835v-4.14062h-1.60547v-0.97656c0.2251,0.00684,0.44238-0.00977,0.65234-0.0498
				c0.20996-0.03906,0.39795-0.10938,0.56543-0.20996c0.16699-0.10059,0.30859-0.23242,0.42432-0.39648
				c0.11523-0.16406,0.19141-0.36816,0.22803-0.61133h1.03027v6.38477H74.45976z"/>
		</g>
		<g>
			<path class="st3" d="M88.74883,109.15565c0.40723,0,0.75391,0.05957,1.03955,0.17773
				c0.28564,0.11914,0.51855,0.27539,0.69775,0.46973c0.1792,0.19531,0.31006,0.41699,0.39209,0.66602
				c0.08252,0.25,0.12354,0.50781,0.12354,0.77539c0,0.26172-0.04102,0.51855-0.12354,0.77051
				c-0.08203,0.25293-0.21289,0.47656-0.39209,0.6709s-0.41211,0.35059-0.69775,0.46973
				c-0.28564,0.11816-0.63232,0.17773-1.03955,0.17773h-1.50488v2.33496h-1.43213v-6.5127H88.74883z M88.35674,112.22108
				c0.16406,0,0.32178-0.0127,0.47412-0.03711c0.15186-0.02441,0.28564-0.07129,0.40137-0.1416
				c0.11523-0.06934,0.20801-0.16797,0.27832-0.2959c0.06982-0.12793,0.10449-0.29492,0.10449-0.50195
				c0-0.20605-0.03467-0.37402-0.10449-0.50195c-0.07031-0.12695-0.16309-0.22559-0.27832-0.2959
				c-0.11572-0.07031-0.24951-0.11719-0.40137-0.1416c-0.15234-0.02441-0.31006-0.03613-0.47412-0.03613h-1.11279v1.95215H88.35674z
				"/>
			<path class="st3" d="M92.98955,114.06288c0.0791,0.15234,0.18408,0.27539,0.31494,0.36914
				c0.13086,0.09473,0.28418,0.16504,0.46045,0.20996c0.17627,0.0459,0.35889,0.06836,0.54736,0.06836
				c0.12793,0,0.26465-0.00977,0.41064-0.03125c0.14551-0.02148,0.28271-0.0625,0.41016-0.12305
				c0.12793-0.06152,0.23389-0.14453,0.31934-0.25098c0.08496-0.10645,0.12744-0.24219,0.12744-0.40625
				c0-0.17578-0.05615-0.31934-0.16846-0.42871c-0.11279-0.10938-0.25977-0.2002-0.44238-0.27344s-0.38916-0.13672-0.62012-0.19141
				c-0.23145-0.05469-0.46533-0.11523-0.70264-0.18262c-0.24316-0.06055-0.48047-0.13574-0.71143-0.22363
				s-0.4375-0.20215-0.62012-0.3418c-0.18213-0.13965-0.33008-0.31445-0.44238-0.52441s-0.16846-0.46387-0.16846-0.76172
				c0-0.33398,0.07129-0.625,0.21436-0.87109c0.14258-0.24609,0.32959-0.45117,0.56055-0.61523
				c0.23145-0.16504,0.49268-0.28613,0.78467-0.36523s0.5835-0.11816,0.87549-0.11816c0.34033,0,0.66748,0.03809,0.98047,0.11328
				c0.31299,0.07617,0.59131,0.19922,0.83447,0.37012c0.24316,0.16992,0.43652,0.3877,0.57959,0.65137
				c0.14258,0.26465,0.21387,0.58594,0.21387,0.96289h-1.38623c-0.01221-0.19434-0.05322-0.35645-0.12305-0.4834
				c-0.06982-0.12793-0.1626-0.22852-0.27832-0.30078c-0.11523-0.07324-0.24756-0.125-0.39648-0.15527
				c-0.14941-0.03027-0.31201-0.0459-0.48828-0.0459c-0.11523,0-0.23096,0.0127-0.34619,0.03613
				c-0.11572,0.02441-0.2207,0.06738-0.31494,0.12793s-0.17188,0.13672-0.23242,0.22852
				c-0.06104,0.09082-0.09131,0.20605-0.09131,0.34668c0,0.12695,0.02441,0.23047,0.07275,0.30957
				c0.04883,0.0791,0.14453,0.15234,0.2876,0.21875c0.14258,0.06738,0.34033,0.13379,0.59277,0.20117
				c0.25244,0.06641,0.58203,0.15137,0.98975,0.25488c0.12158,0.02441,0.29004,0.06836,0.50586,0.13281
				c0.21582,0.06348,0.43018,0.16504,0.64307,0.30566c0.21289,0.13965,0.39697,0.32617,0.55176,0.56055
				c0.15527,0.23438,0.23291,0.5332,0.23291,0.89844c0,0.29785-0.05811,0.57422-0.17334,0.83008
				c-0.11572,0.25488-0.2876,0.47559-0.51562,0.66113s-0.51074,0.33008-0.84814,0.43359
				c-0.3374,0.10254-0.72803,0.1543-1.17188,0.1543c-0.35889,0-0.70703-0.04395-1.04443-0.13184s-0.63525-0.22656-0.89355-0.41504
				c-0.25879-0.18848-0.46387-0.42871-0.61572-0.7207c-0.15234-0.29199-0.2251-0.63867-0.21924-1.04004h1.38672
				C92.87138,113.72597,92.91045,113.91151,92.98955,114.06288z"/>
			<path class="st3" d="M102.60332,115.17128c-0.49268,0.42871-1.17383,0.64258-2.04346,0.64258
				c-0.88135,0-1.56396-0.21191-2.04736-0.6377s-0.7251-1.08301-0.7251-1.9707v-4.0498h1.43213v4.0498
				c0,0.17676,0.01514,0.34961,0.04541,0.52051c0.03027,0.16992,0.09424,0.32031,0.19141,0.45117s0.23291,0.2373,0.40576,0.31934
				c0.17334,0.08203,0.40625,0.12305,0.69775,0.12305c0.51123,0,0.86377-0.11426,1.05811-0.3418
				c0.19482-0.22852,0.29199-0.58594,0.29199-1.07227v-4.0498h1.43213v4.0498
				C103.34209,114.0873,103.0955,114.74257,102.60332,115.17128z"/>
			<path class="st3" d="M106.94463,110.72011c0.09717-0.3125,0.24316-0.58691,0.4375-0.82031
				c0.19482-0.23438,0.43945-0.41699,0.73438-0.54785s0.63379-0.19629,1.01709-0.19629c0.29199,0,0.56982,0.0459,0.83447,0.13672
				c0.26465,0.0918,0.49707,0.22266,0.69775,0.39258s0.36035,0.37988,0.479,0.62988
				c0.11816,0.24902,0.17773,0.52832,0.17773,0.83887c0,0.32227-0.05176,0.59863-0.15527,0.83008
				c-0.10352,0.23047-0.24023,0.43652-0.41016,0.61523c-0.17041,0.17969-0.36377,0.3418-0.5791,0.48828
				c-0.21631,0.14551-0.43359,0.29004-0.65234,0.43262c-0.21875,0.14355-0.43164,0.29688-0.63867,0.46094
				c-0.20654,0.16406-0.38916,0.35547-0.54688,0.5752h3.01904v1.1123h-4.68848c0-0.37109,0.05322-0.69336,0.15967-0.9668
				s0.25098-0.51855,0.43311-0.73438c0.18262-0.21582,0.39697-0.41504,0.64307-0.59766
				c0.24658-0.18164,0.50635-0.36719,0.77979-0.55566c0.14014-0.09766,0.28906-0.19629,0.44727-0.29688
				c0.15771-0.10059,0.30225-0.21094,0.43311-0.33301c0.13086-0.12109,0.24023-0.25781,0.32861-0.41016
				c0.08789-0.15234,0.13184-0.3252,0.13184-0.51953c0-0.31055-0.08936-0.55273-0.26904-0.72559
				c-0.1792-0.17285-0.40869-0.25977-0.68848-0.25977c-0.18848,0-0.34814,0.04395-0.479,0.13184
				c-0.13086,0.08887-0.23535,0.2041-0.31445,0.34668c-0.0791,0.14355-0.13525,0.30078-0.16895,0.47461
				c-0.0332,0.17285-0.0498,0.34473-0.0498,0.51562h-1.24072C106.80449,111.37245,106.84697,111.03358,106.94463,110.72011z"/>
		</g>
		<g>
			<path class="st3" d="M123.69853,109.15565c0.40723,0,0.75391,0.05957,1.03955,0.17773
				c0.28564,0.11914,0.51855,0.27539,0.69775,0.46973c0.1792,0.19531,0.31006,0.41699,0.39209,0.66602
				c0.08252,0.25,0.12354,0.50781,0.12354,0.77539c0,0.26172-0.04102,0.51855-0.12354,0.77051
				c-0.08203,0.25293-0.21289,0.47656-0.39209,0.6709s-0.41211,0.35059-0.69775,0.46973
				c-0.28564,0.11816-0.63232,0.17773-1.03955,0.17773h-1.50488v2.33496h-1.43213v-6.5127H123.69853z M123.30644,112.22108
				c0.16406,0,0.32178-0.0127,0.47412-0.03711c0.15186-0.02441,0.28564-0.07129,0.40137-0.1416
				c0.11523-0.06934,0.20801-0.16797,0.27832-0.2959c0.06982-0.12793,0.10449-0.29492,0.10449-0.50195
				c0-0.20605-0.03467-0.37402-0.10449-0.50195c-0.07031-0.12695-0.16309-0.22559-0.27832-0.2959
				c-0.11572-0.07031-0.24951-0.11719-0.40137-0.1416c-0.15234-0.02441-0.31006-0.03613-0.47412-0.03613h-1.11279v1.95215H123.30644
				z"/>
			<path class="st3" d="M127.93925,114.06288c0.0791,0.15234,0.18408,0.27539,0.31494,0.36914
				c0.13086,0.09473,0.28418,0.16504,0.46045,0.20996c0.17627,0.0459,0.35889,0.06836,0.54736,0.06836
				c0.12793,0,0.26465-0.00977,0.41064-0.03125c0.14551-0.02148,0.28271-0.0625,0.41016-0.12305
				c0.12793-0.06152,0.23438-0.14453,0.31934-0.25098s0.12793-0.24219,0.12793-0.40625c0-0.17578-0.05664-0.31934-0.16895-0.42871
				s-0.25977-0.2002-0.44238-0.27344s-0.38916-0.13672-0.62012-0.19141c-0.23145-0.05469-0.46533-0.11523-0.70264-0.18262
				c-0.24316-0.06055-0.48047-0.13574-0.71143-0.22363s-0.4375-0.20215-0.62012-0.3418
				c-0.18213-0.13965-0.33008-0.31445-0.44238-0.52441s-0.16846-0.46387-0.16846-0.76172c0-0.33398,0.07129-0.625,0.21436-0.87109
				c0.14258-0.24609,0.32959-0.45117,0.56055-0.61523c0.23145-0.16504,0.49268-0.28613,0.78467-0.36523
				s0.5835-0.11816,0.87549-0.11816c0.34033,0,0.66748,0.03809,0.98047,0.11328c0.31348,0.07617,0.5918,0.19922,0.83496,0.37012
				c0.24316,0.16992,0.43555,0.3877,0.5791,0.65137c0.14258,0.26465,0.21387,0.58594,0.21387,0.96289h-1.38574
				c-0.0127-0.19434-0.05371-0.35645-0.12402-0.4834c-0.06934-0.12793-0.16211-0.22852-0.27783-0.30078
				c-0.11523-0.07324-0.24756-0.125-0.39648-0.15527c-0.14941-0.03027-0.31201-0.0459-0.48828-0.0459
				c-0.11523,0-0.23096,0.0127-0.34619,0.03613c-0.11572,0.02441-0.2207,0.06738-0.31494,0.12793s-0.17188,0.13672-0.23242,0.22852
				c-0.06104,0.09082-0.09131,0.20605-0.09131,0.34668c0,0.12695,0.02441,0.23047,0.07275,0.30957
				c0.04883,0.0791,0.14453,0.15234,0.2876,0.21875c0.14258,0.06738,0.34033,0.13379,0.59277,0.20117
				c0.25244,0.06641,0.58203,0.15137,0.98975,0.25488c0.12158,0.02441,0.29053,0.06836,0.50635,0.13281
				c0.21582,0.06348,0.42969,0.16504,0.64258,0.30566c0.21289,0.13965,0.39648,0.32617,0.55176,0.56055
				s0.23242,0.5332,0.23242,0.89844c0,0.29785-0.05762,0.57422-0.17285,0.83008c-0.11523,0.25488-0.28711,0.47559-0.51562,0.66113
				c-0.22754,0.18555-0.51074,0.33008-0.84766,0.43359c-0.33789,0.10254-0.72852,0.1543-1.17236,0.1543
				c-0.35889,0-0.70703-0.04395-1.04443-0.13184s-0.63525-0.22656-0.89355-0.41504c-0.25879-0.18848-0.46387-0.42871-0.61572-0.7207
				c-0.15234-0.29199-0.2251-0.63867-0.21924-1.04004h1.38672C127.82109,113.72597,127.86015,113.91151,127.93925,114.06288z"/>
			<path class="st3" d="M137.55254,115.17128c-0.49219,0.42871-1.17383,0.64258-2.04297,0.64258
				c-0.88184,0-1.56445-0.21191-2.04785-0.6377s-0.72559-1.08301-0.72559-1.9707v-4.0498h1.43262v4.0498
				c0,0.17676,0.01465,0.34961,0.04492,0.52051c0.03125,0.16992,0.09473,0.32031,0.19238,0.45117
				c0.09668,0.13086,0.23242,0.2373,0.40527,0.31934c0.17383,0.08203,0.40625,0.12305,0.69824,0.12305
				c0.51074,0,0.86328-0.11426,1.05762-0.3418c0.19434-0.22852,0.29199-0.58594,0.29199-1.07227v-4.0498h1.43164v4.0498
				C138.29082,114.0873,138.04472,114.74257,137.55254,115.17128z"/>
			<path class="st3" d="M143.95586,111.86464c0.1582-0.01172,0.30566-0.04688,0.44238-0.10449s0.24902-0.1416,0.33789-0.25098
				c0.08789-0.10938,0.13184-0.25488,0.13184-0.4375c0-0.27344-0.09082-0.4834-0.27344-0.62988
				c-0.18262-0.14551-0.39258-0.21875-0.62988-0.21875c-0.32812,0-0.57617,0.1084-0.74316,0.32422s-0.24805,0.4873-0.24121,0.81641
				h-1.23145c0.01172-0.3291,0.07129-0.62793,0.17773-0.89844s0.25586-0.50391,0.44727-0.69824s0.4209-0.34473,0.68848-0.45117
				s0.56543-0.16016,0.89355-0.16016c0.25586,0,0.51074,0.03809,0.7666,0.11426c0.25488,0.07617,0.48438,0.19043,0.68848,0.3418
				c0.20312,0.15234,0.36914,0.33789,0.49707,0.55664s0.19141,0.47168,0.19141,0.75684c0,0.31055-0.07422,0.58398-0.22363,0.82129
				c-0.14844,0.2373-0.37207,0.39844-0.66992,0.4834v0.01855c0.35254,0.0791,0.62891,0.24902,0.83008,0.51074
				c0.2002,0.26074,0.30078,0.57422,0.30078,0.93945c0,0.33398-0.06543,0.63184-0.19629,0.89355s-0.30566,0.48047-0.52441,0.65625
				c-0.21875,0.17676-0.47168,0.31055-0.75684,0.40137c-0.28613,0.0918-0.58398,0.13672-0.89453,0.13672
				c-0.3584,0-0.68555-0.05176-0.98047-0.1543c-0.29492-0.10352-0.54492-0.25391-0.75195-0.45215
				c-0.20703-0.19727-0.36621-0.43848-0.47852-0.72461c-0.11328-0.28613-0.16602-0.61426-0.16016-0.98535h1.23145
				c0.00586,0.16992,0.0332,0.33301,0.08203,0.48828s0.11816,0.28906,0.20996,0.40137
				c0.09082,0.1123,0.20508,0.20215,0.3418,0.26855c0.13672,0.06738,0.2998,0.10059,0.48828,0.10059
				c0.29199,0,0.53809-0.08984,0.73828-0.26953c0.20117-0.17871,0.30176-0.42383,0.30176-0.7334
				c0-0.24316-0.04785-0.42871-0.1416-0.55664c-0.09473-0.12793-0.21484-0.2207-0.36035-0.27832
				c-0.14648-0.05762-0.30566-0.09082-0.47852-0.10059c-0.17383-0.00879-0.33984-0.01367-0.49805-0.01367v-0.91211
				C143.64922,111.87733,143.79765,111.87733,143.95586,111.86464z"/>
		</g>
		<g>
			<path class="st3" d="M158.2625,109.15565c0.40723,0,0.75391,0.05957,1.04004,0.17773
				c0.28516,0.11914,0.51758,0.27539,0.69727,0.46973c0.17969,0.19531,0.31055,0.41699,0.39258,0.66602
				c0.08203,0.25,0.12305,0.50781,0.12305,0.77539c0,0.26172-0.04102,0.51855-0.12305,0.77051
				c-0.08203,0.25293-0.21289,0.47656-0.39258,0.6709s-0.41211,0.35059-0.69727,0.46973
				c-0.28613,0.11816-0.63281,0.17773-1.04004,0.17773h-1.50488v2.33496H155.325v-6.5127H158.2625z M157.86992,112.22108
				c0.16406,0,0.32227-0.0127,0.47461-0.03711c0.15137-0.02441,0.28613-0.07129,0.40137-0.1416
				c0.11523-0.06934,0.20801-0.16797,0.27832-0.2959c0.06934-0.12793,0.10449-0.29492,0.10449-0.50195
				c0-0.20605-0.03516-0.37402-0.10449-0.50195c-0.07031-0.12695-0.16309-0.22559-0.27832-0.2959s-0.25-0.11719-0.40137-0.1416
				c-0.15234-0.02441-0.31055-0.03613-0.47461-0.03613h-1.1123v1.95215H157.86992z"/>
			<path class="st3" d="M162.50371,114.06288c0.0791,0.15234,0.18359,0.27539,0.31445,0.36914
				c0.13086,0.09473,0.28418,0.16504,0.46094,0.20996c0.17676,0.0459,0.3584,0.06836,0.54785,0.06836
				c0.12695,0,0.26367-0.00977,0.41016-0.03125c0.14551-0.02148,0.28223-0.0625,0.41016-0.12305
				c0.12793-0.06152,0.23438-0.14453,0.31934-0.25098s0.12793-0.24219,0.12793-0.40625c0-0.17578-0.05664-0.31934-0.16895-0.42871
				s-0.25977-0.2002-0.44238-0.27344s-0.38965-0.13672-0.62012-0.19141c-0.23145-0.05469-0.46484-0.11523-0.70215-0.18262
				c-0.24316-0.06055-0.48047-0.13574-0.71191-0.22363s-0.4375-0.20215-0.62012-0.3418s-0.33008-0.31445-0.44238-0.52441
				s-0.16895-0.46387-0.16895-0.76172c0-0.33398,0.07129-0.625,0.21484-0.87109c0.14258-0.24609,0.3291-0.45117,0.56055-0.61523
				c0.23145-0.16504,0.49316-0.28613,0.78418-0.36523c0.29199-0.0791,0.58398-0.11816,0.87598-0.11816
				c0.34082,0,0.66699,0.03809,0.98047,0.11328c0.31348,0.07617,0.5918,0.19922,0.83496,0.37012
				c0.24316,0.16992,0.43555,0.3877,0.5791,0.65137c0.14258,0.26465,0.21387,0.58594,0.21387,0.96289h-1.38574
				c-0.0127-0.19434-0.05371-0.35645-0.12402-0.4834c-0.06934-0.12793-0.16211-0.22852-0.27734-0.30078
				c-0.11621-0.07324-0.24805-0.125-0.39746-0.15527c-0.14844-0.03027-0.31152-0.0459-0.4873-0.0459
				c-0.11621,0-0.23145,0.0127-0.34668,0.03613c-0.11621,0.02441-0.2207,0.06738-0.31445,0.12793
				c-0.09473,0.06055-0.17188,0.13672-0.2334,0.22852c-0.06055,0.09082-0.09082,0.20605-0.09082,0.34668
				c0,0.12695,0.02441,0.23047,0.07324,0.30957c0.04785,0.0791,0.14453,0.15234,0.28711,0.21875
				c0.14258,0.06738,0.34082,0.13379,0.59277,0.20117c0.25195,0.06641,0.58203,0.15137,0.98926,0.25488
				c0.12207,0.02441,0.29102,0.06836,0.50684,0.13281c0.21582,0.06348,0.42969,0.16504,0.64258,0.30566
				c0.21289,0.13965,0.39648,0.32617,0.55176,0.56055s0.23242,0.5332,0.23242,0.89844c0,0.29785-0.05762,0.57422-0.17285,0.83008
				c-0.11523,0.25488-0.28711,0.47559-0.51562,0.66113c-0.22754,0.18555-0.51074,0.33008-0.84766,0.43359
				c-0.33789,0.10254-0.72852,0.1543-1.17285,0.1543c-0.3584,0-0.70605-0.04395-1.04395-0.13184s-0.63574-0.22656-0.89355-0.41504
				c-0.25879-0.18848-0.46387-0.42871-0.61621-0.7207c-0.15137-0.29199-0.22461-0.63867-0.21875-1.04004h1.38672
				C162.38554,113.72597,162.42461,113.91151,162.50371,114.06288z"/>
			<path class="st3" d="M172.11699,115.17128c-0.49219,0.42871-1.17383,0.64258-2.04297,0.64258
				c-0.88184,0-1.56445-0.21191-2.04785-0.6377s-0.72559-1.08301-0.72559-1.9707v-4.0498h1.43262v4.0498
				c0,0.17676,0.01465,0.34961,0.04492,0.52051c0.03125,0.16992,0.09473,0.32031,0.19238,0.45117
				c0.09668,0.13086,0.23242,0.2373,0.40527,0.31934c0.17383,0.08203,0.40625,0.12305,0.69824,0.12305
				c0.51074,0,0.86328-0.11426,1.05762-0.3418c0.19434-0.22852,0.29199-0.58594,0.29199-1.07227v-4.0498h1.43164v4.0498
				C172.85527,114.0873,172.60918,114.74257,172.11699,115.17128z"/>
			<path class="st3" d="M176.13847,114.19081v-1.18555l2.77344-3.72168h1.1582v3.83984h0.84863v1.06738h-0.84863v1.47754h-1.23145
				v-1.47754H176.13847z M178.81133,110.90761l-1.65137,2.21582h1.67871v-2.21582H178.81133z"/>
		</g>
		<g>
			<rect x="117.0968" y="3.60179" class="st2" width="22.95396" height="99.134"/>
			<g>
				<path class="st3" d="M128.96465,46.15907c0.34375,0,0.65674,0.03027,0.93994,0.09082
					c0.28271,0.06055,0.5249,0.16016,0.72803,0.29834c0.20117,0.13818,0.3584,0.32178,0.46973,0.55078
					s0.16602,0.51172,0.16602,0.84863c0,0.36377-0.08203,0.66699-0.24707,0.90967c-0.16504,0.24219-0.40918,0.44141-0.73242,0.59619
					c0.44434,0.12793,0.77637,0.35205,0.99512,0.67188c0.21875,0.32031,0.32812,0.70605,0.32812,1.15723
					c0,0.36377-0.07031,0.67871-0.21191,0.94482s-0.33203,0.4834-0.57031,0.65186c-0.24023,0.16846-0.5127,0.29297-0.81934,0.37402
					c-0.30664,0.08057-0.62158,0.12109-0.94482,0.12109h-3.49658v-7.21533H128.96465z M128.7625,49.07948
					c0.2832,0,0.51562-0.06738,0.69727-0.20215c0.18213-0.13477,0.27295-0.35352,0.27295-0.65674
					c0-0.16846-0.03027-0.30664-0.09082-0.41455c-0.06055-0.10742-0.1416-0.19189-0.24268-0.25244s-0.21729-0.10254-0.34863-0.12646
					c-0.13135-0.02344-0.26758-0.03516-0.40918-0.03516h-1.48584v1.6875H128.7625z M128.85332,52.14149
					c0.15527,0,0.30322-0.01514,0.44482-0.04541s0.26611-0.08105,0.37402-0.15186c0.10742-0.07031,0.19336-0.1665,0.25781-0.2876
					c0.06396-0.12158,0.0957-0.27637,0.0957-0.46484c0-0.37061-0.10449-0.63525-0.31299-0.79346
					c-0.20898-0.1582-0.48535-0.2373-0.8291-0.2373h-1.72803v1.98047H128.85332z"/>
			</g>
		</g>
	</g>
	<polyline class="st4" points="64.38564,119.68139 64.38564,127.78861 42.84628,127.78861 	"/>
	<polyline class="st5" points="99.87182,119.68139 99.87182,134.64499 42.84628,134.64499 	"/>
	<polyline class="st5" points="170.40071,119.68139 170.40071,127.78861 188.50204,127.78861 	"/>
	<polyline class="st4" points="134.04634,119.68139 134.04634,134.64499 188.50204,134.64499 	"/>
	<g>
		<path class="st6" d="M193.93144,115.19374c0.09766-0.3125,0.24316-0.58691,0.43848-0.82031
			c0.19434-0.23438,0.43848-0.41699,0.7334-0.54785s0.63477-0.19629,1.01758-0.19629c0.29199,0,0.57031,0.0459,0.83398,0.13672
			c0.26465,0.0918,0.49805,0.22266,0.69824,0.39258s0.36035,0.37988,0.47852,0.62988
			c0.11914,0.24902,0.17773,0.52832,0.17773,0.83887c0,0.32227-0.05176,0.59863-0.1543,0.83008
			c-0.10352,0.23047-0.24023,0.43652-0.41113,0.61523c-0.16992,0.17969-0.36328,0.3418-0.5791,0.48828
			c-0.21582,0.14551-0.43262,0.29004-0.65137,0.43262c-0.21973,0.14355-0.43262,0.29688-0.63867,0.46094
			c-0.20703,0.16406-0.38965,0.35547-0.54785,0.5752h3.01953v1.1123H193.658c0-0.37109,0.05371-0.69336,0.16016-0.9668
			c0.10547-0.27344,0.25-0.51855,0.43262-0.73438s0.39746-0.41504,0.64355-0.59766c0.24609-0.18164,0.50586-0.36719,0.7793-0.55566
			c0.13965-0.09766,0.28906-0.19629,0.44727-0.29688s0.30273-0.21094,0.43359-0.33301
			c0.12988-0.12109,0.23926-0.25781,0.32812-0.41016c0.08789-0.15234,0.13184-0.3252,0.13184-0.51953
			c0-0.31055-0.08984-0.55273-0.26855-0.72559c-0.17969-0.17285-0.40918-0.25977-0.68848-0.25977
			c-0.18945,0-0.34863,0.04395-0.47949,0.13184c-0.13086,0.08887-0.23535,0.2041-0.31445,0.34668
			c-0.0791,0.14355-0.13574,0.30078-0.16895,0.47461c-0.0332,0.17285-0.0498,0.34473-0.0498,0.51562h-1.24023
			C193.79179,115.84608,193.83476,115.50722,193.93144,115.19374z"/>
		<path class="st6" d="M200.26152,115.42616v0.65723h0.02734c0.16406-0.27344,0.37695-0.47266,0.63867-0.59766
			s0.5293-0.18652,0.80273-0.18652c0.34668,0,0.63086,0.04688,0.85254,0.14062c0.22168,0.09473,0.39648,0.22559,0.52441,0.39258
			s0.21777,0.37109,0.26953,0.61133s0.07715,0.50586,0.07715,0.79785v2.90039h-1.29492v-2.66309
			c0-0.38965-0.06055-0.67969-0.18262-0.87109s-0.33691-0.28711-0.64746-0.28711c-0.35254,0-0.6084,0.10449-0.7666,0.31445
			s-0.23633,0.55469-0.23633,1.03516v2.47168h-1.2959v-4.71582H200.26152z"/>
		<path class="st6" d="M207.78593,119.54042c-0.15234,0.25488-0.35156,0.43848-0.59766,0.55176
			c-0.24609,0.1123-0.52441,0.16797-0.83398,0.16797c-0.35254,0-0.66309-0.06836-0.93066-0.20508s-0.48828-0.32227-0.66113-0.55566
			c-0.17383-0.23438-0.30469-0.50391-0.39258-0.80762s-0.13184-0.62012-0.13184-0.94824c0-0.31641,0.04395-0.62207,0.13184-0.91699
			s0.21875-0.55469,0.39258-0.78027c0.17285-0.22461,0.39062-0.40527,0.65234-0.54199
			c0.26074-0.13672,0.56543-0.20508,0.91211-0.20508c0.2793,0,0.54492,0.05859,0.79785,0.17773
			c0.25195,0.11816,0.45117,0.29297,0.59766,0.52441h0.01758v-2.37207h1.2959v6.5127h-1.23145v-0.60156H207.78593z
			 M207.73125,117.20937c-0.03613-0.17871-0.09863-0.33691-0.18652-0.47363c-0.08887-0.1377-0.20312-0.24805-0.34277-0.33301
			s-0.31641-0.12793-0.52832-0.12793c-0.21289,0-0.39258,0.04297-0.53809,0.12793c-0.14648,0.08496-0.26367,0.19727-0.35156,0.33691
			c-0.08789,0.14062-0.15234,0.2998-0.19141,0.47949c-0.04004,0.17871-0.05957,0.36621-0.05957,0.56055
			c0,0.18262,0.02148,0.36523,0.06445,0.54688c0.04199,0.18262,0.11035,0.3457,0.20508,0.48828
			c0.09375,0.14258,0.21289,0.25879,0.35547,0.34668s0.31445,0.13184,0.51562,0.13184c0.21191,0,0.39062-0.04199,0.5332-0.12695
			s0.25684-0.19922,0.3418-0.34277c0.08496-0.14258,0.14648-0.30469,0.18262-0.4873s0.05469-0.37109,0.05469-0.56543
			C207.78593,117.57558,207.76738,117.38905,207.73125,117.20937z"/>
		<path class="st6" d="M195.19023,123.56972v0.60254h0.01855c0.1582-0.25586,0.3584-0.44141,0.60156-0.55664
			s0.51074-0.17285,0.80273-0.17285c0.37109,0,0.69043,0.06934,0.95801,0.20898c0.26758,0.14062,0.48926,0.32617,0.66602,0.55664
			c0.17578,0.23145,0.30664,0.5,0.3916,0.80762c0.08496,0.30664,0.12793,0.62793,0.12793,0.96191
			c0,0.31641-0.04297,0.62012-0.12793,0.91211s-0.21387,0.55078-0.3877,0.77539c-0.17285,0.22461-0.38867,0.4043-0.64746,0.53809
			c-0.25781,0.13379-0.56055,0.2002-0.90723,0.2002c-0.29199,0-0.56055-0.05859-0.80762-0.17773
			c-0.24609-0.11816-0.44824-0.29297-0.60645-0.52441h-0.01758v2.23535h-1.2959v-6.36719H195.19023z M196.87285,127.30995
			c0.14355-0.08496,0.25879-0.19629,0.34668-0.33301c0.08887-0.13672,0.15039-0.29688,0.1875-0.47949
			c0.03613-0.18164,0.05469-0.36719,0.05469-0.55566s-0.01953-0.37402-0.05957-0.55664
			c-0.03906-0.18262-0.10449-0.34473-0.19629-0.48828c-0.09082-0.14258-0.20801-0.25781-0.35059-0.34668
			c-0.14355-0.08789-0.31836-0.13184-0.52441-0.13184c-0.21289,0-0.39062,0.04395-0.53418,0.13184
			c-0.14258,0.08887-0.25781,0.20215-0.34668,0.34277c-0.08789,0.13965-0.15039,0.30078-0.18652,0.4834
			c-0.03613,0.18164-0.05469,0.37012-0.05469,0.56543c0,0.18848,0.01953,0.37402,0.05957,0.55566
			c0.03906,0.18262,0.10254,0.34277,0.19141,0.47949c0.08789,0.13672,0.20508,0.24805,0.35059,0.33301
			c0.14648,0.08496,0.32227,0.12695,0.5293,0.12695C196.55254,127.4369,196.73027,127.39491,196.87285,127.30995z"/>
		<path class="st6" d="M199.55937,124.90663c0.11621-0.30762,0.28027-0.56934,0.49316-0.78516s0.46777-0.38281,0.76562-0.50098
			c0.29785-0.11914,0.63281-0.17773,1.00391-0.17773c0.37012,0,0.70605,0.05859,1.00781,0.17773
			c0.30078,0.11816,0.55762,0.28516,0.77051,0.50098s0.37695,0.47754,0.49219,0.78516
			c0.11523,0.30664,0.17383,0.64844,0.17383,1.02539s-0.05859,0.71777-0.17383,1.02148
			c-0.11523,0.30469-0.2793,0.56445-0.49219,0.78027s-0.46973,0.38184-0.77051,0.49707
			c-0.30176,0.11523-0.6377,0.17285-1.00781,0.17285c-0.37109,0-0.70605-0.05762-1.00391-0.17285s-0.55273-0.28125-0.76562-0.49707
			s-0.37695-0.47559-0.49316-0.78027c-0.11523-0.30371-0.17285-0.64453-0.17285-1.02148S199.44414,125.21327,199.55937,124.90663z
			 M200.73613,126.48378c0.03711,0.17969,0.09863,0.34082,0.1875,0.4834c0.08789,0.14355,0.20508,0.25781,0.35059,0.34277
			c0.14648,0.08496,0.32812,0.12695,0.54785,0.12695c0.21875,0,0.40234-0.04199,0.55176-0.12695
			c0.14844-0.08496,0.26758-0.19922,0.35547-0.34277c0.08789-0.14258,0.15039-0.30371,0.18652-0.4834
			c0.03711-0.17871,0.05469-0.36328,0.05469-0.55176s-0.01758-0.37402-0.05469-0.55566
			c-0.03613-0.18262-0.09863-0.34375-0.18652-0.4834c-0.08789-0.14062-0.20703-0.25391-0.35547-0.34277
			c-0.14941-0.08789-0.33301-0.13184-0.55176-0.13184c-0.21973,0-0.40137,0.04395-0.54785,0.13184
			c-0.14551,0.08887-0.2627,0.20215-0.35059,0.34277c-0.08887,0.13965-0.15039,0.30078-0.1875,0.4834
			c-0.03613,0.18164-0.05469,0.36719-0.05469,0.55566S200.7,126.30507,200.73613,126.48378z"/>
		<path class="st6" d="M209.16386,128.28554l-0.83984-3.16504h-0.01758l-0.80273,3.16504h-1.34082l-1.49609-4.71582h1.36816
			l0.86621,3.20215h0.01855l0.78418-3.20215h1.25879l0.80273,3.19238h0.01855l0.86621-3.19238h1.33203l-1.4873,4.71582H209.16386z"
			/>
		<path class="st6" d="M213.91582,127.15468c0.19434,0.18848,0.47461,0.28223,0.83887,0.28223
			c0.26172,0,0.48633-0.06445,0.6748-0.19531s0.30469-0.26953,0.34668-0.41504h1.14062
			c-0.18262,0.56543-0.46191,0.96973-0.83887,1.21289c-0.37793,0.24316-0.83398,0.36426-1.36816,0.36426
			c-0.37109,0-0.70605-0.05859-1.00391-0.17773c-0.29785-0.11816-0.5498-0.28711-0.75684-0.50586s-0.36621-0.48047-0.47852-0.78418
			c-0.11328-0.30469-0.16895-0.63867-0.16895-1.00391c0-0.35254,0.05762-0.68066,0.17285-0.98438
			c0.11621-0.30469,0.28027-0.56738,0.49316-0.78906s0.46582-0.39746,0.76172-0.52441
			c0.29395-0.12793,0.62109-0.19141,0.98047-0.19141c0.40137,0,0.75098,0.07715,1.04883,0.23242
			c0.29785,0.1543,0.54199,0.36328,0.73438,0.62402c0.19141,0.26172,0.3291,0.55957,0.41406,0.89453
			c0.08594,0.33398,0.11621,0.68359,0.0918,1.04883h-3.40234C213.61504,126.66249,213.72148,126.9662,213.91582,127.15468z
			 M215.37968,124.67323c-0.15527-0.16992-0.39062-0.25488-0.70703-0.25488c-0.20703,0-0.37793,0.03516-0.51465,0.10449
			c-0.1377,0.07031-0.24707,0.15723-0.3291,0.26074c-0.08203,0.10254-0.13965,0.21289-0.17285,0.32812
			s-0.05371,0.21875-0.05957,0.30957h2.10742C215.64238,125.09315,215.53496,124.84413,215.37968,124.67323z"/>
		<path class="st6" d="M218.9959,123.56972v0.87598h0.01855c0.06055-0.14648,0.14258-0.28125,0.24609-0.40625
			c0.10352-0.12402,0.22168-0.23047,0.35547-0.31934c0.13379-0.08789,0.27734-0.15625,0.42871-0.20508
			c0.15234-0.04785,0.31055-0.07227,0.47461-0.07227c0.08496,0,0.17969,0.01465,0.2832,0.04492v1.2041
			c-0.06152-0.01172-0.13477-0.02246-0.21973-0.03223c-0.08496-0.00879-0.16699-0.01367-0.24609-0.01367
			c-0.2373,0-0.4375,0.04004-0.60156,0.11914s-0.29688,0.18652-0.39746,0.32324c-0.09961,0.13672-0.17188,0.29688-0.21387,0.47949
			c-0.04297,0.18262-0.06348,0.37988-0.06348,0.59277v2.125h-1.2959v-4.71582H218.9959z"/>
		<path class="st6" d="M195.04863,135.25722c0.05859,0.10059,0.13281,0.18262,0.22363,0.24609
			c0.0918,0.06348,0.19629,0.11133,0.31543,0.1416c0.11816,0.03027,0.24121,0.04492,0.36914,0.04492
			c0.09082,0,0.18652-0.00977,0.28711-0.03125s0.19141-0.05469,0.27344-0.10059s0.15039-0.10645,0.20508-0.18262
			s0.08203-0.17188,0.08203-0.28711c0-0.19434-0.12891-0.34082-0.3877-0.4375c-0.25781-0.09766-0.61816-0.19434-1.08008-0.29199
			c-0.18848-0.04297-0.37305-0.09277-0.55176-0.15039c-0.17969-0.05762-0.33984-0.13379-0.47949-0.22852
			c-0.13965-0.09375-0.25195-0.21289-0.33691-0.35547c-0.08594-0.14258-0.12793-0.31738-0.12793-0.52441
			c0-0.30371,0.05957-0.55371,0.17773-0.74805s0.27539-0.34766,0.46973-0.46094c0.19434-0.1123,0.41309-0.19141,0.65723-0.23633
			c0.24219-0.0459,0.49219-0.06836,0.74707-0.06836c0.25586,0,0.50391,0.02441,0.74414,0.07227
			c0.23926,0.04883,0.4541,0.13086,0.64258,0.24609c0.18848,0.11621,0.34473,0.26953,0.46973,0.46094
			s0.19922,0.43359,0.22363,0.72559h-1.23145c-0.01855-0.25-0.1123-0.41797-0.2832-0.50684
			c-0.16992-0.08789-0.37012-0.13184-0.60156-0.13184c-0.07324,0-0.15234,0.00488-0.2373,0.01367s-0.16211,0.02832-0.23242,0.05957
			c-0.07031,0.03027-0.12891,0.07422-0.17773,0.13184s-0.07324,0.13574-0.07324,0.23242c0,0.11523,0.04297,0.20996,0.12793,0.2832
			c0.08496,0.07227,0.19629,0.13184,0.33301,0.17773s0.29297,0.08691,0.46973,0.12305
			c0.17578,0.03613,0.35547,0.07617,0.53809,0.11816c0.18848,0.04297,0.37207,0.09473,0.55176,0.15527
			s0.33887,0.1416,0.47852,0.24219c0.13965,0.09961,0.25293,0.22461,0.33789,0.37402
			c0.08496,0.14844,0.12793,0.33203,0.12793,0.55176c0,0.30957-0.0625,0.56934-0.1875,0.7793s-0.28711,0.37891-0.48828,0.50684
			c-0.2002,0.12695-0.42969,0.2168-0.68848,0.26855c-0.25781,0.05176-0.52148,0.07715-0.78906,0.07715
			c-0.27344,0-0.54102-0.02734-0.80176-0.08203c-0.26172-0.05469-0.49414-0.14551-0.69824-0.27344s-0.37109-0.2959-0.50195-0.50586
			s-0.20215-0.47266-0.21387-0.78906h1.23145C194.96269,135.03651,194.99101,135.15663,195.04863,135.25722z"/>
		<path class="st6" d="M198.88359,133.05019c0.11621-0.30762,0.28027-0.56934,0.49316-0.78516s0.46777-0.38281,0.76562-0.50098
			c0.29785-0.11914,0.63281-0.17773,1.00391-0.17773c0.37012,0,0.70605,0.05859,1.00781,0.17773
			c0.30078,0.11816,0.55762,0.28516,0.77051,0.50098s0.37695,0.47754,0.49219,0.78516
			c0.11523,0.30664,0.17383,0.64844,0.17383,1.02539s-0.05859,0.71777-0.17383,1.02148
			c-0.11523,0.30469-0.2793,0.56445-0.49219,0.78027s-0.46973,0.38184-0.77051,0.49707
			c-0.30176,0.11523-0.6377,0.17285-1.00781,0.17285c-0.37109,0-0.70605-0.05762-1.00391-0.17285s-0.55273-0.28125-0.76562-0.49707
			s-0.37695-0.47559-0.49316-0.78027c-0.11523-0.30371-0.17285-0.64453-0.17285-1.02148S198.76836,133.35683,198.88359,133.05019z
			 M200.06035,134.62733c0.03711,0.17969,0.09863,0.34082,0.1875,0.4834c0.08789,0.14355,0.20508,0.25781,0.35059,0.34277
			c0.14648,0.08496,0.32812,0.12695,0.54785,0.12695c0.21875,0,0.40234-0.04199,0.55176-0.12695
			c0.14844-0.08496,0.26758-0.19922,0.35547-0.34277c0.08789-0.14258,0.15039-0.30371,0.18652-0.4834
			c0.03711-0.17871,0.05469-0.36328,0.05469-0.55176s-0.01758-0.37402-0.05469-0.55566
			c-0.03613-0.18262-0.09863-0.34375-0.18652-0.4834c-0.08789-0.14062-0.20703-0.25391-0.35547-0.34277
			c-0.14941-0.08789-0.33301-0.13184-0.55176-0.13184c-0.21973,0-0.40137,0.04395-0.54785,0.13184
			c-0.14551,0.08887-0.2627,0.20215-0.35059,0.34277c-0.08887,0.13965-0.15039,0.30078-0.1875,0.4834
			c-0.03613,0.18164-0.05469,0.36719-0.05469,0.55566S200.02422,134.44862,200.06035,134.62733z"/>
		<path class="st6" d="M207.62187,136.42909v-0.65625h-0.02734c-0.16406,0.27344-0.37695,0.4707-0.63867,0.59277
			c-0.26074,0.12109-0.52832,0.18164-0.80176,0.18164c-0.34668,0-0.63086-0.04492-0.85352-0.13672
			c-0.22168-0.09082-0.39648-0.21973-0.52441-0.3877c-0.12695-0.16699-0.2168-0.37012-0.26855-0.61035
			s-0.07812-0.50684-0.07812-0.79883v-2.90039h1.2959v2.66406c0,0.38867,0.06055,0.67871,0.18164,0.87012
			c0.12207,0.19238,0.33789,0.28809,0.64844,0.28809c0.35254,0,0.60742-0.10547,0.76562-0.31543
			c0.1582-0.20898,0.2373-0.55469,0.2373-1.03516v-2.47168h1.29492v4.71582H207.62187z"/>
		<path class="st6" d="M211.06914,131.71327v0.87598h0.01855c0.06055-0.14648,0.14258-0.28125,0.24609-0.40625
			c0.10352-0.12402,0.22168-0.23047,0.35547-0.31934c0.13379-0.08789,0.27734-0.15625,0.42871-0.20508
			c0.15234-0.04785,0.31055-0.07227,0.47461-0.07227c0.08496,0,0.17969,0.01465,0.2832,0.04492v1.2041
			c-0.06152-0.01172-0.13477-0.02246-0.21973-0.03223c-0.08496-0.00879-0.16699-0.01367-0.24609-0.01367
			c-0.2373,0-0.4375,0.04004-0.60156,0.11914s-0.29688,0.18652-0.39746,0.32324c-0.09961,0.13672-0.17188,0.29688-0.21387,0.47949
			c-0.04297,0.18262-0.06348,0.37988-0.06348,0.59277v2.125h-1.2959v-4.71582H211.06914z"/>
		<path class="st6" d="M215.47441,132.5619c-0.20605,0-0.37988,0.04688-0.51953,0.1416
			c-0.13965,0.09375-0.25391,0.21582-0.3418,0.36426c-0.08887,0.14941-0.15039,0.31348-0.1875,0.49316
			c-0.03613,0.17871-0.05469,0.35645-0.05469,0.5332c0,0.16992,0.01855,0.34375,0.05469,0.51953
			c0.03711,0.17676,0.0957,0.33594,0.17773,0.47949c0.08203,0.14258,0.19336,0.25977,0.33301,0.35059
			c0.13965,0.0918,0.31055,0.13672,0.51074,0.13672c0.31055,0,0.54883-0.08594,0.71582-0.25977
			c0.16797-0.17285,0.27246-0.40527,0.31543-0.69727h1.24902c-0.08496,0.62598-0.32812,1.10352-0.72949,1.43164
			s-0.91504,0.49219-1.54102,0.49219c-0.35352,0-0.67676-0.05859-0.97168-0.17773c-0.29492-0.11816-0.5459-0.28418-0.75293-0.49707
			c-0.20605-0.21289-0.36719-0.4668-0.4834-0.76172c-0.11523-0.29492-0.17285-0.61816-0.17285-0.9707
			c0-0.36523,0.05273-0.7041,0.15918-1.01758c0.10645-0.3125,0.26367-0.58301,0.46973-0.81152
			c0.20703-0.22754,0.45898-0.40625,0.75781-0.5332c0.29785-0.12793,0.6377-0.19141,1.02148-0.19141
			c0.2793,0,0.54785,0.03613,0.80664,0.10938c0.25879,0.07227,0.48926,0.18359,0.69336,0.33301
			c0.2041,0.14844,0.36914,0.33398,0.49707,0.55566c0.12793,0.22266,0.20117,0.48535,0.21875,0.78906h-1.26758
			C216.34746,132.83241,216.02812,132.5619,215.47441,132.5619z"/>
		<path class="st6" d="M219.84355,135.29823c0.19434,0.18848,0.47461,0.28223,0.83887,0.28223
			c0.26172,0,0.48633-0.06445,0.6748-0.19531s0.30469-0.26953,0.34668-0.41504h1.14062
			c-0.18262,0.56543-0.46191,0.96973-0.83887,1.21289c-0.37793,0.24316-0.83398,0.36426-1.36816,0.36426
			c-0.37109,0-0.70605-0.05859-1.00391-0.17773c-0.29785-0.11816-0.5498-0.28711-0.75684-0.50586s-0.36621-0.48047-0.47852-0.78418
			c-0.11328-0.30469-0.16895-0.63867-0.16895-1.00391c0-0.35254,0.05762-0.68066,0.17285-0.98438
			c0.11621-0.30469,0.28027-0.56738,0.49316-0.78906s0.46582-0.39746,0.76172-0.52441
			c0.29395-0.12793,0.62109-0.19141,0.98047-0.19141c0.40137,0,0.75098,0.07715,1.04883,0.23242
			c0.29785,0.1543,0.54199,0.36328,0.73438,0.62402c0.19141,0.26172,0.3291,0.55957,0.41406,0.89453
			c0.08594,0.33398,0.11621,0.68359,0.0918,1.04883h-3.40234C219.54277,134.80605,219.64922,135.10976,219.84355,135.29823z
			 M221.30742,132.81679c-0.15527-0.16992-0.39062-0.25488-0.70703-0.25488c-0.20703,0-0.37793,0.03516-0.51465,0.10449
			c-0.1377,0.07031-0.24707,0.15723-0.3291,0.26074c-0.08203,0.10254-0.13965,0.21289-0.17285,0.32812
			s-0.05371,0.21875-0.05957,0.30957h2.10742C221.57011,133.23671,221.46269,132.98769,221.30742,132.81679z"/>
	</g>
	<g>
		<path class="st6" d="M26.03447,120.14198v-4.14062H24.429v-0.97656c0.2251,0.00684,0.44238-0.00977,0.65234-0.0498
			c0.20996-0.03906,0.39795-0.10938,0.56543-0.20996c0.16699-0.10059,0.30859-0.23242,0.42432-0.39648
			c0.11523-0.16406,0.19141-0.36816,0.22803-0.61133h1.03027v6.38477H26.03447z"/>
		<path class="st6" d="M30.40801,118.97011c0.05762,0.10059,0.13232,0.18262,0.22363,0.24609
			c0.09082,0.06348,0.1958,0.11133,0.31445,0.1416s0.2417,0.04492,0.36963,0.04492c0.09082,0,0.18652-0.00977,0.28711-0.03125
			c0.1001-0.02148,0.19141-0.05469,0.27344-0.10059s0.15088-0.10645,0.20557-0.18262s0.08203-0.17188,0.08203-0.28711
			c0-0.19434-0.12939-0.34082-0.3877-0.4375c-0.25879-0.09766-0.61865-0.19434-1.08105-0.29199
			c-0.18848-0.04297-0.37256-0.09277-0.55176-0.15039s-0.33887-0.13379-0.47852-0.22852
			c-0.14014-0.09375-0.25244-0.21289-0.33789-0.35547c-0.08496-0.14258-0.12744-0.31738-0.12744-0.52441
			c0-0.30371,0.05908-0.55371,0.17773-0.74805s0.2749-0.34766,0.46973-0.46094c0.19482-0.1123,0.41357-0.19141,0.65674-0.23633
			c0.24316-0.0459,0.49268-0.06836,0.74805-0.06836s0.50293,0.02441,0.74316,0.07227
			c0.24023,0.04883,0.45459,0.13086,0.64307,0.24609c0.18848,0.11621,0.34521,0.26953,0.46973,0.46094
			s0.19922,0.43359,0.22363,0.72559H32.0999c-0.01807-0.25-0.11279-0.41797-0.28271-0.50684
			c-0.17041-0.08789-0.37109-0.13184-0.60205-0.13184c-0.07275,0-0.15186,0.00488-0.2373,0.01367
			c-0.08496,0.00879-0.1626,0.02832-0.23242,0.05957c-0.06982,0.03027-0.12939,0.07422-0.17773,0.13184
			c-0.04883,0.05762-0.07324,0.13574-0.07324,0.23242c0,0.11523,0.04248,0.20996,0.12793,0.2832
			c0.08496,0.07227,0.19629,0.13184,0.33301,0.17773s0.29297,0.08691,0.46973,0.12305
			c0.17627,0.03613,0.35547,0.07617,0.53809,0.11816c0.18848,0.04297,0.37207,0.09473,0.55176,0.15527
			c0.1792,0.06055,0.33887,0.1416,0.479,0.24219c0.13965,0.09961,0.25195,0.22461,0.3374,0.37402
			c0.08496,0.14844,0.12744,0.33203,0.12744,0.55176c0,0.30957-0.0625,0.56934-0.18701,0.7793s-0.28711,0.37891-0.48779,0.50684
			c-0.20068,0.12695-0.43018,0.2168-0.68848,0.26855c-0.25879,0.05176-0.52148,0.07715-0.78906,0.07715
			c-0.27393,0-0.5415-0.02734-0.80273-0.08203c-0.26172-0.05469-0.49414-0.14551-0.69775-0.27344s-0.37109-0.2959-0.50146-0.50586
			c-0.13086-0.20996-0.20215-0.47266-0.21436-0.78906h1.23096C30.32109,118.7494,30.3499,118.86952,30.40801,118.97011z"/>
		<path class="st6" d="M36.80645,115.42616v0.86719h-0.94873v2.33496c0,0.21875,0.03662,0.36426,0.10938,0.4375
			c0.07324,0.07324,0.21924,0.10938,0.43799,0.10938c0.07275,0,0.14258-0.00293,0.20947-0.00879s0.13086-0.01562,0.19189-0.02734
			v1.00293c-0.10938,0.01855-0.23145,0.03027-0.36475,0.03613c-0.13428,0.00586-0.26465,0.00977-0.39258,0.00977
			c-0.20068,0-0.39062-0.01367-0.56982-0.04102c-0.17969-0.02734-0.3374-0.08105-0.47461-0.16016
			c-0.13672-0.0791-0.24463-0.19141-0.32373-0.33691c-0.0791-0.14648-0.11816-0.33789-0.11816-0.5752v-2.78125h-0.78467v-0.86719
			h0.78467v-1.41309h1.29492v1.41309H36.80645z"/>
		<path class="st6" d="M11.30449,123.56972v0.60254h0.01855c0.15771-0.25586,0.3584-0.44141,0.60205-0.55664
			c0.24316-0.11523,0.51074-0.17285,0.80225-0.17285c0.37109,0,0.69043,0.06934,0.95801,0.20898
			c0.26758,0.14062,0.48926,0.32617,0.66553,0.55664c0.17676,0.23145,0.30713,0.5,0.39258,0.80762
			c0.08496,0.30664,0.12744,0.62793,0.12744,0.96191c0,0.31641-0.04248,0.62012-0.12744,0.91211
			c-0.08545,0.29199-0.21436,0.55078-0.3877,0.77539s-0.38916,0.4043-0.64746,0.53809
			c-0.25879,0.13379-0.56104,0.2002-0.90771,0.2002c-0.29199,0-0.56104-0.05859-0.80713-0.17773
			c-0.24658-0.11816-0.44873-0.29297-0.60645-0.52441h-0.01855v2.23535h-1.29492v-6.36719H11.30449z M12.9876,127.30995
			c0.14258-0.08496,0.2583-0.19629,0.34668-0.33301c0.08789-0.13672,0.15039-0.29688,0.18701-0.47949
			c0.03613-0.18164,0.05469-0.36719,0.05469-0.55566s-0.02002-0.37402-0.05957-0.55664s-0.10498-0.34473-0.1958-0.48828
			c-0.09131-0.14258-0.2085-0.25781-0.35156-0.34668c-0.14258-0.08789-0.31738-0.13184-0.52441-0.13184
			c-0.21289,0-0.39062,0.04395-0.5332,0.13184c-0.14307,0.08887-0.25879,0.20215-0.34668,0.34277
			c-0.08838,0.13965-0.15039,0.30078-0.18701,0.4834c-0.03662,0.18164-0.05469,0.37012-0.05469,0.56543
			c0,0.18848,0.01953,0.37402,0.05908,0.55566c0.03955,0.18262,0.10352,0.34277,0.19189,0.47949
			c0.08789,0.13672,0.20508,0.24805,0.35107,0.33301s0.32227,0.12695,0.52881,0.12695
			C12.6668,127.4369,12.84453,127.39491,12.9876,127.30995z"/>
		<path class="st6" d="M15.67363,124.90663c0.11523-0.30762,0.2793-0.56934,0.49219-0.78516
			c0.21289-0.21582,0.46826-0.38281,0.7666-0.50098c0.29785-0.11914,0.63232-0.17773,1.00293-0.17773
			c0.37109,0,0.70703,0.05859,1.00781,0.17773c0.30127,0.11816,0.55811,0.28516,0.771,0.50098s0.37695,0.47754,0.49268,0.78516
			c0.11523,0.30664,0.17285,0.64844,0.17285,1.02539s-0.05762,0.71777-0.17285,1.02148
			c-0.11572,0.30469-0.27979,0.56445-0.49268,0.78027s-0.46973,0.38184-0.771,0.49707
			c-0.30078,0.11523-0.63672,0.17285-1.00781,0.17285c-0.37061,0-0.70508-0.05762-1.00293-0.17285
			c-0.29834-0.11523-0.55371-0.28125-0.7666-0.49707c-0.21289-0.21582-0.37695-0.47559-0.49219-0.78027
			c-0.11572-0.30371-0.17334-0.64453-0.17334-1.02148S15.55791,125.21327,15.67363,124.90663z M16.8499,126.48378
			c0.03662,0.17969,0.09912,0.34082,0.18701,0.4834c0.08838,0.14355,0.20557,0.25781,0.35156,0.34277
			c0.14551,0.08496,0.32812,0.12695,0.54688,0.12695c0.21924,0,0.40283-0.04199,0.55176-0.12695s0.26758-0.19922,0.35596-0.34277
			c0.08789-0.14258,0.15039-0.30371,0.18701-0.4834c0.03662-0.17871,0.05469-0.36328,0.05469-0.55176
			s-0.01807-0.37402-0.05469-0.55566c-0.03662-0.18262-0.09912-0.34375-0.18701-0.4834
			c-0.08838-0.14062-0.20703-0.25391-0.35596-0.34277c-0.14893-0.08789-0.33252-0.13184-0.55176-0.13184
			c-0.21875,0-0.40137,0.04395-0.54688,0.13184c-0.146,0.08887-0.26318,0.20215-0.35156,0.34277
			c-0.08789,0.13965-0.15039,0.30078-0.18701,0.4834c-0.03613,0.18164-0.05469,0.36719-0.05469,0.55566
			S16.81377,126.30507,16.8499,126.48378z"/>
		<path class="st6" d="M25.27764,128.28554l-0.83887-3.16504h-0.01855l-0.80273,3.16504h-1.34033l-1.49609-4.71582h1.36816
			l0.8667,3.20215h0.01807l0.78418-3.20215h1.25879l0.80273,3.19238h0.01807l0.8667-3.19238H28.096l-1.48682,4.71582H25.27764z"/>
		<path class="st6" d="M30.02959,127.15468c0.19434,0.18848,0.47412,0.28223,0.83936,0.28223
			c0.26123,0,0.48633-0.06445,0.6748-0.19531s0.30371-0.26953,0.34668-0.41504h1.14014
			c-0.18262,0.56543-0.4624,0.96973-0.83936,1.21289s-0.83301,0.36426-1.36816,0.36426c-0.37109,0-0.70557-0.05859-1.00342-0.17773
			c-0.29785-0.11816-0.55029-0.28711-0.75684-0.50586c-0.20703-0.21875-0.36621-0.48047-0.479-0.78418
			c-0.1123-0.30469-0.16846-0.63867-0.16846-1.00391c0-0.35254,0.05762-0.68066,0.17334-0.98438
			c0.11523-0.30469,0.2793-0.56738,0.49219-0.78906s0.4668-0.39746,0.76172-0.52441
			c0.29492-0.12793,0.62158-0.19141,0.98047-0.19141c0.40137,0,0.75098,0.07715,1.04883,0.23242
			c0.29785,0.1543,0.54297,0.36328,0.73438,0.62402c0.19141,0.26172,0.32959,0.55957,0.41504,0.89453
			c0.08496,0.33398,0.11523,0.68359,0.09131,1.04883h-3.40234C29.72881,126.66249,29.83477,126.9662,30.02959,127.15468z
			 M31.49346,124.67323c-0.15479-0.16992-0.39062-0.25488-0.70703-0.25488c-0.20654,0-0.37842,0.03516-0.51514,0.10449
			c-0.13672,0.07031-0.24609,0.15723-0.32812,0.26074c-0.08252,0.10254-0.14014,0.21289-0.17334,0.32812
			c-0.03369,0.11523-0.05371,0.21875-0.05957,0.30957h2.10693C31.75664,125.09315,31.64873,124.84413,31.49346,124.67323z"/>
		<path class="st6" d="M35.10967,123.56972v0.87598h0.01855c0.06055-0.14648,0.14258-0.28125,0.24609-0.40625
			c0.10352-0.12402,0.22217-0.23047,0.35596-0.31934c0.1333-0.08789,0.27637-0.15625,0.42871-0.20508
			c0.15186-0.04785,0.31006-0.07227,0.47412-0.07227c0.08496,0,0.1792,0.01465,0.28271,0.04492v1.2041
			c-0.06104-0.01172-0.13379-0.02246-0.21875-0.03223c-0.08545-0.00879-0.16748-0.01367-0.24658-0.01367
			c-0.23682,0-0.4375,0.04004-0.60156,0.11914c-0.16455,0.0791-0.29688,0.18652-0.39697,0.32324
			c-0.10059,0.13672-0.17188,0.29688-0.21436,0.47949s-0.06396,0.37988-0.06396,0.59277v2.125h-1.29492v-4.71582H35.10967z"/>
		<path class="st6" d="M8.78252,135.25722c0.05762,0.10059,0.13232,0.18262,0.22363,0.24609
			c0.09082,0.06348,0.1958,0.11133,0.31445,0.1416s0.2417,0.04492,0.36963,0.04492c0.09082,0,0.18652-0.00977,0.28711-0.03125
			c0.1001-0.02148,0.19141-0.05469,0.27344-0.10059s0.15088-0.10645,0.20557-0.18262s0.08203-0.17188,0.08203-0.28711
			c0-0.19434-0.12939-0.34082-0.3877-0.4375c-0.25879-0.09766-0.61865-0.19434-1.08105-0.29199
			c-0.18848-0.04297-0.37256-0.09277-0.55176-0.15039s-0.33887-0.13379-0.47852-0.22852
			c-0.14014-0.09375-0.25244-0.21289-0.33789-0.35547c-0.08496-0.14258-0.12744-0.31738-0.12744-0.52441
			c0-0.30371,0.05908-0.55371,0.17773-0.74805s0.2749-0.34766,0.46973-0.46094c0.19482-0.1123,0.41357-0.19141,0.65674-0.23633
			c0.24316-0.0459,0.49268-0.06836,0.74805-0.06836s0.50293,0.02441,0.74316,0.07227
			c0.24023,0.04883,0.45459,0.13086,0.64307,0.24609c0.18848,0.11621,0.34521,0.26953,0.46973,0.46094
			s0.19922,0.43359,0.22363,0.72559h-1.23145c-0.01807-0.25-0.11279-0.41797-0.28271-0.50684
			c-0.17041-0.08789-0.37109-0.13184-0.60205-0.13184c-0.07275,0-0.15186,0.00488-0.2373,0.01367
			c-0.08496,0.00879-0.1626,0.02832-0.23242,0.05957c-0.06982,0.03027-0.12939,0.07422-0.17773,0.13184
			c-0.04883,0.05762-0.07324,0.13574-0.07324,0.23242c0,0.11523,0.04248,0.20996,0.12793,0.2832
			c0.08496,0.07227,0.19629,0.13184,0.33301,0.17773s0.29297,0.08691,0.46973,0.12305
			c0.17627,0.03613,0.35547,0.07617,0.53809,0.11816c0.18848,0.04297,0.37207,0.09473,0.55176,0.15527
			c0.1792,0.06055,0.33887,0.1416,0.479,0.24219c0.13965,0.09961,0.25195,0.22461,0.3374,0.37402
			c0.08496,0.14844,0.12744,0.33203,0.12744,0.55176c0,0.30957-0.0625,0.56934-0.18701,0.7793s-0.28711,0.37891-0.48779,0.50684
			c-0.20068,0.12695-0.43018,0.2168-0.68848,0.26855c-0.25879,0.05176-0.52148,0.07715-0.78906,0.07715
			c-0.27393,0-0.5415-0.02734-0.80273-0.08203c-0.26172-0.05469-0.49414-0.14551-0.69775-0.27344s-0.37109-0.2959-0.50146-0.50586
			c-0.13086-0.20996-0.20215-0.47266-0.21436-0.78906h1.23096C8.69561,135.03651,8.72441,135.15663,8.78252,135.25722z"/>
		<path class="st6" d="M12.61797,133.05019c0.11523-0.30762,0.2793-0.56934,0.49219-0.78516s0.46826-0.38281,0.7666-0.50098
			c0.29785-0.11914,0.63232-0.17773,1.00293-0.17773c0.37109,0,0.70703,0.05859,1.00781,0.17773
			c0.30127,0.11816,0.55811,0.28516,0.771,0.50098s0.37695,0.47754,0.49268,0.78516
			c0.11523,0.30664,0.17285,0.64844,0.17285,1.02539s-0.05762,0.71777-0.17285,1.02148
			c-0.11572,0.30469-0.27979,0.56445-0.49268,0.78027s-0.46973,0.38184-0.771,0.49707
			c-0.30078,0.11523-0.63672,0.17285-1.00781,0.17285c-0.37061,0-0.70508-0.05762-1.00293-0.17285
			c-0.29834-0.11523-0.55371-0.28125-0.7666-0.49707s-0.37695-0.47559-0.49219-0.78027
			c-0.11572-0.30371-0.17334-0.64453-0.17334-1.02148S12.50225,133.35683,12.61797,133.05019z M13.79424,134.62733
			c0.03662,0.17969,0.09912,0.34082,0.18701,0.4834c0.08838,0.14355,0.20557,0.25781,0.35156,0.34277
			c0.14551,0.08496,0.32812,0.12695,0.54688,0.12695c0.21924,0,0.40283-0.04199,0.55176-0.12695s0.26758-0.19922,0.35596-0.34277
			c0.08789-0.14258,0.15039-0.30371,0.18701-0.4834c0.03662-0.17871,0.05469-0.36328,0.05469-0.55176
			s-0.01807-0.37402-0.05469-0.55566c-0.03662-0.18262-0.09912-0.34375-0.18701-0.4834
			c-0.08838-0.14062-0.20703-0.25391-0.35596-0.34277c-0.14893-0.08789-0.33252-0.13184-0.55176-0.13184
			c-0.21875,0-0.40137,0.04395-0.54688,0.13184c-0.146,0.08887-0.26318,0.20215-0.35156,0.34277
			c-0.08789,0.13965-0.15039,0.30078-0.18701,0.4834c-0.03613,0.18164-0.05469,0.36719-0.05469,0.55566
			S13.75811,134.44862,13.79424,134.62733z"/>
		<path class="st6" d="M21.35576,136.42909v-0.65625h-0.02734c-0.16455,0.27344-0.37744,0.4707-0.63867,0.59277
			c-0.26172,0.12109-0.52881,0.18164-0.80273,0.18164c-0.34668,0-0.63086-0.04492-0.85254-0.13672
			c-0.22217-0.09082-0.39697-0.21973-0.52441-0.3877c-0.12793-0.16699-0.21777-0.37012-0.26953-0.61035
			c-0.05127-0.24023-0.07715-0.50684-0.07715-0.79883v-2.90039h1.29492v2.66406c0,0.38867,0.06104,0.67871,0.18262,0.87012
			c0.12158,0.19238,0.3374,0.28809,0.64746,0.28809c0.35254,0,0.60791-0.10547,0.76611-0.31543
			c0.1582-0.20898,0.2373-0.55469,0.2373-1.03516v-2.47168h1.29492v4.71582H21.35576z"/>
		<path class="st6" d="M24.80303,131.71327v0.87598h0.01855c0.06055-0.14648,0.14258-0.28125,0.24609-0.40625
			c0.10352-0.12402,0.22217-0.23047,0.35596-0.31934c0.1333-0.08789,0.27637-0.15625,0.42871-0.20508
			c0.15186-0.04785,0.31006-0.07227,0.47412-0.07227c0.08496,0,0.1792,0.01465,0.28271,0.04492v1.2041
			c-0.06104-0.01172-0.13379-0.02246-0.21875-0.03223c-0.08545-0.00879-0.16748-0.01367-0.24658-0.01367
			c-0.23682,0-0.4375,0.04004-0.60156,0.11914c-0.16455,0.0791-0.29688,0.18652-0.39697,0.32324
			c-0.10059,0.13672-0.17188,0.29688-0.21436,0.47949s-0.06396,0.37988-0.06396,0.59277v2.125h-1.29492v-4.71582H24.80303z"/>
		<path class="st6" d="M29.20879,132.5619c-0.20703,0-0.38037,0.04688-0.52002,0.1416
			c-0.14014,0.09375-0.25391,0.21582-0.34229,0.36426c-0.08789,0.14941-0.15039,0.31348-0.18701,0.49316
			c-0.03613,0.17871-0.05469,0.35645-0.05469,0.5332c0,0.16992,0.01855,0.34375,0.05469,0.51953
			c0.03662,0.17676,0.09619,0.33594,0.17822,0.47949c0.08203,0.14258,0.19287,0.25977,0.33252,0.35059
			c0.14014,0.0918,0.31055,0.13672,0.51123,0.13672c0.31006,0,0.54834-0.08594,0.71582-0.25977
			c0.16699-0.17285,0.27197-0.40527,0.31445-0.69727h1.24951c-0.08496,0.62598-0.32812,1.10352-0.72949,1.43164
			s-0.91504,0.49219-1.5415,0.49219c-0.35254,0-0.67627-0.05859-0.97119-0.17773c-0.29492-0.11816-0.5459-0.28418-0.75244-0.49707
			c-0.20703-0.21289-0.36816-0.4668-0.4834-0.76172c-0.11572-0.29492-0.17334-0.61816-0.17334-0.9707
			c0-0.36523,0.05322-0.7041,0.15967-1.01758c0.10596-0.3125,0.2627-0.58301,0.46973-0.81152
			c0.20654-0.22754,0.45898-0.40625,0.75684-0.5332c0.29785-0.12793,0.63867-0.19141,1.02148-0.19141
			c0.27979,0,0.54883,0.03613,0.80713,0.10938c0.25879,0.07227,0.48975,0.18359,0.69336,0.33301
			c0.20361,0.14844,0.36963,0.33398,0.49707,0.55566c0.12793,0.22266,0.20068,0.48535,0.21875,0.78906h-1.26758
			C30.08086,132.83241,29.76201,132.5619,29.20879,132.5619z"/>
		<path class="st6" d="M33.57744,135.29823c0.19434,0.18848,0.47412,0.28223,0.83936,0.28223
			c0.26123,0,0.48633-0.06445,0.6748-0.19531s0.30371-0.26953,0.34668-0.41504h1.14014
			c-0.18262,0.56543-0.4624,0.96973-0.83936,1.21289s-0.83301,0.36426-1.36816,0.36426c-0.37109,0-0.70557-0.05859-1.00342-0.17773
			c-0.29785-0.11816-0.55029-0.28711-0.75684-0.50586c-0.20703-0.21875-0.36621-0.48047-0.479-0.78418
			c-0.1123-0.30469-0.16846-0.63867-0.16846-1.00391c0-0.35254,0.05762-0.68066,0.17334-0.98438
			c0.11523-0.30469,0.2793-0.56738,0.49219-0.78906s0.4668-0.39746,0.76172-0.52441
			c0.29492-0.12793,0.62158-0.19141,0.98047-0.19141c0.40137,0,0.75098,0.07715,1.04883,0.23242
			c0.29785,0.1543,0.54297,0.36328,0.73438,0.62402c0.19141,0.26172,0.32959,0.55957,0.41504,0.89453
			c0.08496,0.33398,0.11523,0.68359,0.09131,1.04883h-3.40234C33.27666,134.80605,33.38262,135.10976,33.57744,135.29823z
			 M35.04131,132.81679c-0.15479-0.16992-0.39062-0.25488-0.70703-0.25488c-0.20654,0-0.37842,0.03516-0.51514,0.10449
			c-0.13672,0.07031-0.24609,0.15723-0.32812,0.26074c-0.08252,0.10254-0.14014,0.21289-0.17334,0.32812
			c-0.03369,0.11523-0.05371,0.21875-0.05957,0.30957h2.10693C35.30449,133.23671,35.19658,132.98769,35.04131,132.81679z"/>
	</g>
</g>
</svg>
