<?xml version="1.0" encoding="utf-8"?>
<!-- Generator: Adobe Illustrator 26.0.3, SVG Export Plug-In . SVG Version: 6.00 Build 0)  -->
<svg version="1.1" id="Layer_1" xmlns="http://www.w3.org/2000/svg" xmlns:xlink="http://www.w3.org/1999/xlink" x="0px" y="0px"
	 viewBox="0 0 302.85751 135.8192" style="enable-background:new 0 0 302.85751 135.8192;" xml:space="preserve">
<style type="text/css">
	.st0{fill:#FFFFFF;}
	.st1{fill:none;stroke:#919395;stroke-width:0.36575;stroke-miterlimit:10;}
	.st2{fill:none;stroke:#919395;stroke-width:0.53298;stroke-linecap:round;stroke-linejoin:round;stroke-miterlimit:10;}
	.st3{fill:#E5E6E6;stroke:#221F1F;stroke-width:0.53298;stroke-miterlimit:10;}
	.st4{fill:#E5E6E6;stroke:#221F1F;stroke-width:0.53298;stroke-linecap:round;stroke-linejoin:round;stroke-miterlimit:10;}
	.st5{fill:none;stroke:#919395;stroke-width:0.53298;stroke-miterlimit:10;}
	.st6{fill:#A6A7AA;}
	.st7{fill:none;stroke:#919395;stroke-width:0.50993;stroke-miterlimit:10;}
	.st8{fill:none;stroke:#221F1F;stroke-width:0.36575;stroke-miterlimit:10;}
	.st9{fill:none;stroke:#919395;stroke-width:0.37258;stroke-miterlimit:10;}
	.st10{fill:none;stroke:#919395;stroke-width:0.51945;stroke-miterlimit:10;}
	.st11{fill:#919395;}
	.st12{fill:none;stroke:#A01D26;stroke-width:0.37258;stroke-miterlimit:10;}
	.st13{fill:none;stroke:#A01D26;stroke-width:0.36575;stroke-miterlimit:10;}
	.st14{fill:#E5E6E6;}
	.st15{fill:none;stroke:#221F1F;stroke-width:0.53298;stroke-miterlimit:10;}
	.st16{fill:none;stroke:#221F1F;stroke-width:0.38646;stroke-linecap:round;stroke-linejoin:round;stroke-miterlimit:10;}
	.st17{fill:none;stroke:#221F1F;stroke-width:0.38646;stroke-miterlimit:10;}
	.st18{fill:none;stroke:#221F1F;stroke-width:0.53298;stroke-linecap:round;stroke-linejoin:round;stroke-miterlimit:10;}
	.st19{fill:#E5E6E6;stroke:#221F1F;stroke-width:0.38392;stroke-linecap:round;stroke-linejoin:round;stroke-miterlimit:10;}
	.st20{fill:#E5E6E6;stroke:#221F1F;stroke-width:0.39085;stroke-linecap:round;stroke-linejoin:round;stroke-miterlimit:10;}
	.st21{fill:#E5E6E6;stroke:#221F1F;stroke-width:0.40994;stroke-linecap:round;stroke-linejoin:round;stroke-miterlimit:10;}
	.st22{fill:#E5E6E6;stroke:#221F1F;stroke-width:0.44575;stroke-linecap:round;stroke-linejoin:round;stroke-miterlimit:10;}
	.st23{fill:#E5E6E6;stroke:#221F1F;stroke-width:0.36575;stroke-linecap:round;stroke-linejoin:round;stroke-miterlimit:10;}
	
		.st24{fill:none;stroke:#FFFFFF;stroke-width:1.86288;stroke-linecap:round;stroke-linejoin:round;stroke-miterlimit:10;stroke-dasharray:0.78725;}
	
		.st25{fill:none;stroke:#221F1F;stroke-width:0.74515;stroke-linecap:round;stroke-linejoin:round;stroke-miterlimit:10;stroke-dasharray:0.78725,1.86288;}
	.st26{fill:#010101;}
</style>
<g>
	<g>
		<g>
			<path class="st0" d="M39.98874,101.24448l224.51889,28.74828l4.94446-11.49516l3.16556,1.1912l16.5087-22.19102l2.12399-36.06261
				l-135.69066-8.41092l-98.48732,5.05444l0.21804,3.19839l-5.82447-0.76713L49.14115,74.2374l9.00181,1.16142l-0.29648,2.1144
				l-15.15021,2.04533c0,0-5.05268,0.85886-4.07854,6.74581S39.98874,101.24448,39.98874,101.24448z"/>
			<g>
				<line class="st1" x1="265.60471" y1="118.65459" x2="60.63023" y2="96.3353"/>
				<polyline class="st2" points="57.35778,61.35783 57.31519,58.52296 276.91318,72.83297 272.07065,119.35282 
					269.81815,119.15887 				"/>
				<line class="st2" x1="57.57895" y1="77.34356" x2="57.46221" y2="67.62757"/>
				<path class="st3" d="M62.64603,76.66903l-20.61714,2.91456c0,0-3.50403,0.85784-3.33775,6.48699
					c0.16628,5.62916,0.77571,15.02451,0.77571,15.02451l1.5057-0.36747l21.7708-5.31323"/>
				<path class="st4" d="M265.24112,129.14876l6.25864-14.19768l-0.83008,0.50191l-0.69495-0.61774l0.50192-5.15423
					l1.45557-13.82095l-0.03766-0.79131l-1.11896-0.14264l-3.20526,4.82786c0,0-1.15979,1.21333-1.06796,2.87145l-1.27893,26.29784
					c-0.28662,1.49095-2.62534,0.91463-2.62534,0.91463l-223.0495-28.61897l14.40117-3.5721l211.60197,24.51233"/>
				<path class="st2" d="M62.5858,62.06377l-10.62246-1.09064c0,0-0.94783-0.03833-1.04793,1.15584
					c-0.1001,1.19417-1.93298,10.82974-1.93298,10.82974s-0.3092,1.3923,0.96527,1.65043
					c1.27447,0.25813,7.41478,0.50643,7.41478,0.50643"/>
				<path class="st2" d="M55.30196,75.03225c-1.56172-0.35238-1.03915-2.23187-1.03915-2.23187l1.68084-10.50939
					c0,0,0.13522-0.77957,0.83579-0.75124"/>
				<path class="st5" d="M276.48538,76.39523l-7.70102-0.61739l-0.99518,0.18923l-1.46445,16.46299
					c0,0-0.26495,1.17233,0.97485,1.1868c1.8374,0.02144,7.16583,0.67223,7.16583,0.67223"/>
				<path class="st5" d="M273.46912,94.46739l-1.95193,20.3469c0,0-0.67908,1.24915-1.55624-0.06293l2.14337-20.52828"/>
				<polyline class="st5" points="271.98547,95.09618 267.21542,94.67985 267.29959,93.61686 				"/>
				<line class="st1" x1="269.2337" y1="73.59442" x2="269.043" y2="75.72177"/>
				<line class="st5" x1="272.61996" y1="73.85443" x2="272.42926" y2="75.98179"/>
				<line class="st2" x1="68.00441" y1="60.30564" x2="68.08949" y2="97.00632"/>
				<polyline class="st1" points="68.25548,77.47275 129.49191,82.81876 129.18565,103.56231 				"/>
				<line class="st1" x1="96.61514" y1="99.61819" x2="96.90522" y2="79.96962"/>
				<polygon class="st6" points="162.24986,102.91476 155.53983,102.18295 155.60268,97.92613 162.31271,98.65794 				"/>
				<polygon class="st6" points="169.47658,103.66747 162.76654,102.93565 162.82939,98.67884 169.53943,99.41066 				"/>
				<polygon class="st6" points="180.60797,105.42483 171.67699,104.56569 171.74495,99.96204 180.67593,100.82118 				"/>
				<polygon class="st6" points="190.04088,106.3631 181.10989,105.50395 181.17786,100.90031 190.10884,101.75945 				"/>
				<polygon class="st6" points="159.30336,69.46046 148.80646,68.64617 148.80287,73.11542 159.18285,73.98952 				"/>
				<polygon class="st6" points="160.03185,74.06101 169.80852,74.88431 169.87648,70.28066 160.21162,69.53092 				"/>
				<polygon class="st6" points="228.07451,111.1981 220.64674,110.46829 220.71471,105.86465 228.14247,106.59445 				"/>
				<polygon class="st6" points="225.08873,74.45021 217.90454,73.85838 217.97368,78.19983 225.02296,78.81232 				"/>
				<polygon class="st6" points="234.40938,75.21805 226.88756,74.5984 226.88878,78.96083 234.27531,79.61624 				"/>
				<polygon class="st6" points="244.11742,76.01781 236.67035,75.40431 236.39969,79.80082 243.85345,80.44846 				"/>
				<polygon class="st6" points="246.38394,76.20452 254.19952,76.84837 253.89937,81.32133 246.0442,80.63881 				"/>
				<polygon class="st6" points="236.06726,111.99736 228.6395,111.26756 228.70747,106.66392 236.13524,107.39371 				"/>
				<polygon class="st6" points="246.51344,113.01153 239.08693,112.19724 239.15489,107.5936 246.58142,108.40788 				"/>
				<polygon class="st6" points="254.47362,113.84064 247.0471,113.02634 247.11507,108.4227 254.54158,109.23699 				"/>
				<path class="st1" d="M84.40664,73.41163l38.69932,3.53612c2.31161-0.10184,2.18407-2.30376,2.18407-2.30376l0.11745-9.31275
					l-43.34553-3.10371l-0.11597,7.85564C81.94598,70.08316,81.56417,72.71264,84.40664,73.41163z"/>
				<path class="st7" d="M140.58987,86.10602l44.47328,4.1285c2.04382,0.42764,1.95479-1.51635,1.95479-1.51635l0.7865-19.17697
					l-48.59879-3.22154l-0.26912,18.22865C138.93654,84.54831,138.6563,86.092,140.58987,86.10602z"/>
				<path class="st7" d="M206.43871,92.85599l50.28136,4.95597c0,0,3.0946,0.32883,3.51761-2.64993l1.79346-20.4996
					l-57.92404-3.98811l-0.6714,19.15401C203.43568,89.82833,203.01962,92.87604,206.43871,92.85599z"/>
				<line class="st2" x1="62.50924" y1="68.08289" x2="57.54024" y2="67.70392"/>
				<line class="st1" x1="125.78454" y1="67.62484" x2="82.01951" y2="64.21016"/>
				<line class="st1" x1="125.27763" y1="73.00294" x2="82.06537" y2="69.31247"/>
				<line class="st1" x1="261.17252" y1="84.22118" x2="204.06198" y2="79.23416"/>
				<line class="st1" x1="260.57416" y1="88.55148" x2="204.13541" y2="83.31026"/>
				<polyline class="st1" points="129.62547,90.70026 155.7612,93.47456 155.74312,94.69967 192.69794,98.43951 				"/>
				<polyline class="st1" points="202.38,96.95802 260.1738,102.84908 259.19476,116.39259 201.47997,110.15549 				"/>
				<polygon class="st6" points="212.22646,108.14203 209.02194,107.8089 209.36743,100.98031 212.57195,101.31343 				"/>
				<polygon class="st1" points="192.98758,93.2524 202.33949,94.09762 201.55139,109.37309 192.32782,108.72413 				"/>
				<path class="st8" d="M265.22345,128.92328"/>
				<path class="st8" d="M271.51718,114.81429"/>
				<path class="st6" d="M203.79501,105.91769l3.27446,0.27951c0,0,0.82776,0.27864,0.6702,1.00776s-1.09183,1.03456-1.38525,1.0227
					s-1.90584-0.17513-1.90584-0.17513s-1.1212-0.2905-1.35487-1.03545
					C202.86003,106.27214,203.79501,105.91769,203.79501,105.91769z"/>
				<polyline class="st2" points="272.07065,119.35282 291.20001,86.16586 293.603,50.13133 				"/>
			</g>
		</g>
		<g>
			<path class="st0" d="M39.89663,62.81271l17.69209-5.83646l216.47751,13.94857l3.24484,1.08162l16.49463-23.25472l1.62244-36.7749
				L129.12486,6.92329L56.66166,18.1961l0.2704,3.24484l-5.94888-0.54081l-2.16323,14.06099l9.19373,0.81121l-0.2704,2.16323
				l-15.41301,2.70404c0,0-5.13767,1.08162-4.05605,7.03049C39.35582,53.61899,39.89663,62.81271,39.89663,62.81271z"/>
			<g>
				<line class="st9" x1="276.80463" y1="71.57526" x2="57.57981" y2="56.69165"/>
				<polyline class="st2" points="57.00197,21.52034 56.91589,18.63811 280.98468,24.16197 276.74841,71.68715 				"/>
				<line class="st2" x1="57.46801" y1="56.55772" x2="57.20279" y2="27.89444"/>
				<path class="st5" d="M62.34193,22.02345L51.49721,21.3509c0,0-0.96678,0-1.05085,1.21898s-1.80745,11.09692-1.80745,11.09692
					s-0.29424,1.42915,1.00881,1.63932c1.30305,0.21017,7.56608,0.21017,7.56608,0.21017"/>
				<path class="st5" d="M55.11211,35.5163c-1.59729-0.29424-1.09288-2.22779-1.09288-2.22779l1.55525-10.76065
					c0,0,0.1261-0.79864,0.84068-0.79864"/>
				<path class="st5" d="M280.6022,27.80355l-7.85956-0.31127l-1.01163,0.23345l-1.24506,16.80852
					c0,0-0.25244,1.20354,1.01163,1.16726c1.87329-0.05378,7.31479,0.38909,7.31479,0.38909"/>
				<path class="st5" d="M277.79944,46.31297l-1.68353,20.77978c0,0-0.67343,1.29874-1.58734,0l1.87595-20.97218"/>
				<polyline class="st5" points="276.29654,47.01368 271.42776,46.78638 271.49759,45.7015 				"/>
				<line class="st5" x1="273.16782" y1="25.25254" x2="273.00546" y2="27.4246"/>
				<line class="st5" x1="276.62363" y1="25.37775" x2="276.46124" y2="27.54981"/>
				<line class="st2" x1="67.83908" y1="20.01193" x2="68.47815" y2="57.34507"/>
				<polyline class="st9" points="68.35337,37.46619 130.8569,40.3856 130.8569,61.50121 				"/>
				<line class="st9" x1="97.59588" y1="58.82868" x2="97.59588" y2="38.82769"/>
				<polygon class="st6" points="164.55211,59.4822 157.70102,59.01375 157.70102,54.68058 164.55211,55.14904 				"/>
				<polygon class="st6" points="171.93019,59.95065 165.0791,59.4822 165.0791,55.14904 171.93019,55.61749 				"/>
				<polygon class="st6" points="183.30373,61.28053 174.18675,60.77391 174.18675,56.08769 183.30373,56.59431 				"/>
				<polygon class="st6" points="192.93355,61.84698 183.81657,61.34037 183.81657,56.65415 192.93355,57.16077 				"/>
				<polygon class="st6" points="161.04503,25.56941 150.33246,25.17285 150.39606,29.71968 160.99033,30.1819 				"/>
				<polygon class="st6" points="161.85686,30.21971 171.83537,30.65507 171.83537,25.96885 161.97194,25.60372 				"/>
				<polygon class="st6" points="231.77698,65.20109 224.19429,64.76421 224.19429,60.07799 231.77698,60.51487 				"/>
				<polygon class="st6" points="228.18028,27.93925 220.84798,27.63271 220.9838,32.04655 228.17891,32.37966 				"/>
				<polygon class="st6" points="237.6931,28.33695 230.0162,28.01601 230.0831,32.45399 237.62263,32.81687 				"/>
				<polygon class="st6" points="247.6013,28.75118 240.00069,28.43343 239.79095,32.91726 247.39891,33.26948 				"/>
				<polygon class="st6" points="249.91457,28.84789 257.8913,29.18138 257.65262,33.74419 249.63498,33.373 				"/>
				<polygon class="st6" points="239.93665,65.68539 232.35396,65.24851 232.35396,60.56229 239.93665,60.99917 				"/>
				<polygon class="st6" points="250.60051,66.28738 243.01784,65.7645 243.01784,61.07829 250.60051,61.60117 				"/>
				<polygon class="st6" points="258.72742,66.80338 251.14473,66.2805 251.14473,61.59428 258.72742,62.11716 				"/>
				<path class="st9" d="M84.75639,32.67025l39.50246,2.00532c2.35487-0.19871,2.19173-2.43353,2.19173-2.43353l-0.02044-9.47896
					L82.19795,21.3888v7.99653C82.19795,29.38533,81.84833,32.07608,84.75639,32.67025z"/>
				<path class="st10" d="M142.21941,43.27327l45.39723,2.37045c2.08987,0.35096,1.96985-1.62305,1.96985-1.62305l0.51312-19.54163
					l-49.58902-1.27805v18.5556C140.51059,41.75658,140.24815,43.33855,142.21941,43.27327z"/>
				<path class="st10" d="M209.44586,47.43122l51.33029,2.97331c0,0,3.15955,0.20721,3.5459-2.84056l1.51971-20.9286
					l-59.10654-1.67425l-0.39615,19.51353C206.33908,44.47464,205.96083,47.59228,209.44586,47.43122z"/>
				<line class="st5" x1="62.35447" y1="27.9664" x2="57.28347" y2="27.78529"/>
				<line class="st9" x1="126.84904" y1="25.08092" x2="82.18452" y2="23.40753"/>
				<line class="st9" x1="126.41324" y1="30.57308" x2="82.30807" y2="28.59638"/>
				<line class="st9" x1="265.11038" y1="36.39507" x2="206.81807" y2="33.67113"/>
				<line class="st9" x1="264.56558" y1="40.82502" x2="206.95427" y2="37.81483"/>
				<polyline class="st9" points="131.11168,48.39819 157.79562,50.14535 157.79562,51.39243 195.52286,53.67679 				"/>
				<polyline class="st9" points="205.37025,51.77131 264.37262,55.38684 263.57846,69.20532 204.65138,65.2345 				"/>
				<polygon class="st11" points="215.57582,62.74404 212.3042,62.53698 212.5536,55.57584 215.82523,55.7829 				"/>
				<polygon class="st9" points="195.74005,48.38787 205.28589,48.86301 204.71242,64.43559 195.30034,64.15485 				"/>
				<path class="st2" d="M56.91589,18.63811l73.00678-11.52076l165.81747,4.6575l-14.93848,13.63489L65.59328,19.86619
					l-1.10764,0.40973c-2.09123,0-1.9632,2.26195-1.9632,2.26195l0.5975,34.38192"/>
				<path class="st9" d="M276.11591,67.09274"/>
				<path class="st11" d="M206.94753,60.82802l3.34212,0.14965c0,0,0.84799,0.24941,0.69835,0.99765
					c-0.14966,0.74823-1.09741,1.09741-1.39671,1.09741c-0.29929,0-1.9454-0.09977-1.9454-0.09977s-1.14729-0.24941-1.39671-0.99765
					C205.99976,61.22708,206.94753,60.82802,206.94753,60.82802z"/>
				<polyline class="st2" points="276.74841,71.68715 293.61081,49.87743 295.74014,11.77485 				"/>
			</g>
		</g>
		<line class="st9" x1="190.15195" y1="32.52686" x2="140.42795" y2="30.32735"/>
		<line class="st9" x1="189.60716" y1="36.95681" x2="140.58548" y2="34.58042"/>
		<line class="st12" x1="188.15468" y1="81.55684" x2="139.51164" y2="79.25181"/>
		<path class="st13" d="M268.37268,79.64876"/>
		<path class="st13" d="M45.22551,61.14951"/>
		<line class="st2" x1="63.2631" y1="96.6977" x2="62.98385" y2="66.14513"/>
		<line class="st5" x1="276.9144" y1="72.83113" x2="293.52109" y2="51.49141"/>
	</g>
	<g>
		<g>
			<g>
				<path class="st14" d="M39.82603,40.81511c0,0,1.72589,0.60914,0.81218,2.84265c0,0-2.6396,1.3198-0.30457,2.33503
					c0,0,1.01523,0.71066,0.71066,2.84265l-0.81219,1.01523v2.33503l1.11676,0.91371c0,0,0.50761,2.53808-0.50761,3.55331
					c0,0-1.82742,0.30457-1.62437,1.52285c0,0,0.10152,0.50761,1.21828,0.40609c0,0,1.42132,0.10152,1.42132,1.3198
					c0,0,0.30457,1.42133-1.92894,1.92894c-2.23351,0.50762-30.86303,8.12185-30.86303,8.12185l-1.3198-19.18787
					c0,0-0.30457-3.85788,4.06093-4.77159C16.17114,45.07907,39.82603,40.81511,39.82603,40.81511z"/>
				<polygon class="st0" points="30.91533,49.57526 31.11463,57.24832 39.23611,55.20549 39.18629,53.36197 36.42833,54.0013 
					36.34626,50.32264 39.07381,49.68714 39.00031,47.84963 				"/>
				<ellipse class="st0" cx="27.16679" cy="51.45879" rx="0.56587" ry="0.89348"/>
				<ellipse class="st0" cx="27.16679" cy="57.35579" rx="0.56587" ry="0.89348"/>
				<polygon class="st0" points="37.03215,50.93847 37.11968,53.08286 39.53217,52.55091 39.51386,50.35769 				"/>
				<path class="st14" d="M261.20654,89.76637c-0.18713,2.15197-2.52621,1.77772-2.52621,1.77772L9.16075,71.1666l-0.09622-1.21435
					l14.78576-3.93167l235.29785,18.0384l0.30551-4.38036l1.30438-9.81725l0.61786,0.06865l0.26242,0.01711
					c0.27304-3.77598,0.39682-0.84834,0.48962-1.91309c0.29013-3.32864,0.92099-6.35489,0.92099-6.35489l8.42715-12.47953
					l-0.27631,2.80904l-1.33545,19.89357L261.20654,89.76637"/>
			</g>
			<g>
				<path class="st15" d="M39.82603,40.81511c0,0,1.72589,0.60914,0.81218,2.84265c0,0-2.6396,1.3198-0.30457,2.33503
					c0,0,1.01523,0.71066,0.71066,2.84265l-0.81219,1.01523v2.33503l1.11676,0.91371c0,0,0.50761,2.53808-0.50761,3.55331
					c0,0-1.82742,0.30457-1.62437,1.52285c0,0,0.10152,0.50761,1.21828,0.40609c0,0,1.42132,0.10152,1.42132,1.3198
					c0,0,0.30457,1.42133-1.92894,1.92894c-2.23351,0.50762-30.86303,8.12185-30.86303,8.12185l-1.3198-19.18787
					c0,0-0.30457-3.85788,4.06093-4.77159C16.17114,45.07907,39.82603,40.81511,39.82603,40.81511z"/>
				<polygon class="st16" points="30.91533,49.57526 31.11463,57.24832 39.23611,55.20549 39.18629,53.36197 36.42833,54.0013 
					36.34626,50.32264 39.07381,49.68714 39.00031,47.84963 				"/>
				<ellipse class="st17" cx="27.16679" cy="51.45879" rx="0.56587" ry="0.89348"/>
				<ellipse class="st17" cx="27.16679" cy="57.35579" rx="0.56587" ry="0.89348"/>
				<polygon class="st16" points="37.03215,50.93847 37.11968,53.08286 39.53217,52.55091 39.51386,50.35769 				"/>
				<line class="st15" x1="23.85028" y1="66.02058" x2="259.14813" y2="84.05898"/>
				<path class="st15" d="M271.01199,51.12435l-7.27536,11.27855l-2.52621,27.1216
					c-0.18713,2.15197-2.52621,1.77772-2.52621,1.77772L9.16462,70.92472l-0.09623-1.21435"/>
				<path class="st18" d="M261.20654,89.76637l8.62329-17.79794c0,0,0.7276-2.70252,0.26602-3.70965
					c-0.46161-1.00713-0.16788-2.6437-0.16788-2.6437s0.67142-2.72763,0.41965-3.52494
					c-0.25177-0.79731-0.04196-3.77671-0.04196-3.77671s0.75534-2.93745,0.58749-3.98653s0.37207-4.8932,0.37207-4.8932
					l-8.3302,12.6619c0,0-0.40915,0.73649-0.69928,4.06513c-0.29257,3.35687-1.96484,23.04427-1.96484,23.04427
					s-0.09357,0.65495-0.93564,1.0292L9.81569,69.8567"/>
				<polyline class="st17" points="261.37589,69.93002 260.75803,69.86137 259.45364,79.67861 258.83575,89.97643 				"/>
				<path class="st18" d="M19.98699,70.49664l6.67675-2.12248c0,0,0.89012-0.47929,3.62894-0.27389
					c2.73883,0.20541,215.35663,16.10811,215.35663,16.10811s2.19106,0.34235,2.05411,1.36942
					c-0.13693,1.02705-1.58966,2.95309-1.58966,2.95309"/>
			</g>
		</g>
	</g>
	<g>
		<path class="st19" d="M113.37819,68.52583c-4.70921,4.13022-2.02695,8.16922-2.02695,8.16922l1.61166,0.46168
			c0,0-2.10169-2.73435-1.30724-4.69194c0,0,1.66274-4.39831,7.45964-5.63437c0,0,6.02584-1.40959,10.64828,3.68061
			c0,0,3.81194,3.88772,3.20094,8.02774l2.36929-1.63634c0.34334-2.59148-0.79265-4.69196-1.43021-5.78041
			c-0.29041-0.49577-2.67847-4.3718-7.55256-5.4464c-4.02892-0.88826-7.36823,0.37275-7.36823,0.37275
			S114.4115,67.61957,113.37819,68.52583z"/>
		<path class="st19" d="M117.48663,67.31063c0,0-5.63045,4.18661-1.90705,8.36157l-2.41347,1.60971l-0.76216-0.77707
			c0,0-1.49454-2.70856-0.53904-4.4713C111.86491,72.03355,113.8243,68.45852,117.48663,67.31063z"/>
	</g>
	<g>
		<path class="st20" d="M145.98109,71.06125c-4.88144,4.1311-2.10226,8.16961-2.10226,8.16961l1.67026,0.46138
			c0,0-2.17772-2.73398-1.35397-4.6917c0,0,1.72411-4.39863,7.7323-5.63577c0,0,6.24551-1.41071,11.03534,3.67864
			c0,0,3.95001,3.88702,3.31599,8.02716l2.45589-1.63678c0.35631-2.59155-0.82066-4.69182-1.48123-5.78015
			c-0.30089-0.49572-2.77518-4.37132-7.82655-5.44501c-4.17546-0.88752-7.6366,0.37411-7.6366,0.37411
			S147.0522,70.15479,145.98109,71.06125z"/>
		<path class="st19" d="M150.23935,69.84528c0,0-5.83623,4.18766-1.97803,8.36193l-2.50165,1.61017l-0.78976-0.77693
			c0,0-1.54846-2.70829-0.55785-4.47121C144.41206,74.56924,146.44347,70.99385,150.23935,69.84528z"/>
	</g>
	<g>
		<path class="st21" d="M181.16354,73.52747c-5.27071,4.17593-2.39642,8.40965-2.39642,8.40965l1.76634,0.5108
			c0,0-2.26077-2.87206-1.34639-4.88091c0,0,1.91978-4.516,8.33093-5.67542c0,0,6.66684-1.33424,11.65762,4.02694
			c0,0,4.12187,4.10046,3.36597,8.3709l2.64297-1.64409c0.43007-2.67392-0.77946-4.87033-1.4601-6.0095
			c-0.31003-0.51888-2.86346-4.57794-8.21176-5.78999c-4.4209-1.00188-8.12503,0.23394-8.12503,0.23394
			S182.32005,72.61117,181.16354,73.52747z"/>
		<path class="st19" d="M185.7141,72.35487c0,0-6.28676,4.2153-2.26817,8.61111l-2.6911,1.61563l-0.82413-0.8196
			c0,0-1.59239-2.83288-0.50447-4.63683C179.42622,77.12518,181.65637,73.467,185.7141,72.35487z"/>
	</g>
	<g>
		<path class="st22" d="M219.17696,75.90128c-5.83051,4.43661-2.72078,9.02928-2.72078,9.02928l1.93344,0.57045
			c0,0-2.45087-3.11914-1.42558-5.27206c0,0,2.15581-4.84145,9.20583-6.01626c0,0,7.3326-1.36014,12.75351,4.47112
			c0,0,4.48065,4.46352,3.60507,9.05391l2.91887-1.74018c0.50076-2.87476-0.80339-5.25414-1.53831-6.48882
			c-0.33475-0.56238-3.09415-4.96325-8.95203-6.33018c-4.84213-1.12991-8.92145,0.15837-8.92145,0.15837
			S220.4563,74.92778,219.17696,75.90128z"/>
		<path class="st19" d="M224.18472,74.69084c0,0-6.94626,4.46732-2.58215,9.24772l-2.97139,1.70898l-0.89587-0.89217
			c0,0-1.71759-3.06924-0.50401-4.9995C217.23129,79.75587,219.71858,75.84184,224.18472,74.69084z"/>
	</g>
	<g>
		<g>
			<path class="st23" d="M124.38306,102.11509c-4.71407,3.83781-2.25665,7.85036-2.25665,7.85036l1.54655,0.50513
				c0,0-1.94086-2.72663-1.10069-4.59681c0,0,1.76916-4.20628,7.43501-5.19859c0,0,5.89409-1.15245,10.19568,3.94865
				c0,0,3.55838,3.90607,2.81842,7.89931l2.35602-1.50256c0.42526-2.501-0.60164-4.57851-1.18118-5.65679
				c-0.26398-0.49114-2.44191-4.33517-7.13055-5.55089c-3.87563-1.00491-7.159,0.09911-7.159,0.09911
				S125.41744,101.27299,124.38306,102.11509z"/>
			<path class="st23" d="M128.41071,101.08289c0,0-5.6095,3.85969-2.14721,8.04116l-2.39791,1.47517l-0.71148-0.78075
				c0,0-1.35296-2.67999-0.36353-4.35548C122.79057,105.46299,124.81811,102.06569,128.41071,101.08289z"/>
		</g>
		<g>
			<path class="st23" d="M155.91118,105.73492c-4.88113,3.83252-2.3297,7.84805-2.3297,7.84805l1.60339,0.50693
				c0,0-2.0146-2.72897-1.14603-4.59824c0,0,1.82867-4.20441,7.69951-5.19023c0,0,6.10715-1.14571,10.57109,3.96053
				c0,0,3.69232,3.9103,2.93004,7.90284l2.43999-1.4999c0.43785-2.5006-0.62878-4.57936-1.23067-5.65836
				c-0.27414-0.49146-2.53571-4.33813-7.39632-5.55929c-4.01776-1.00941-7.41931,0.09087-7.41931,0.09087
				S156.98221,104.89398,155.91118,105.73492z"/>
			<path class="st23" d="M160.08415,104.70731c0,0-5.80913,3.85338-2.21606,8.03899l-2.48344,1.47246l-0.73827-0.78159
				c0,0-1.40526-2.68164-0.38177-4.35605C154.2646,109.08112,156.362,105.68602,160.08415,104.70731z"/>
		</g>
		<g>
			<path class="st23" d="M189.94341,109.3795c-5.26025,3.86214-2.62352,8.07037-2.62352,8.07037l1.69481,0.55827
				c0,0-2.09023-2.86584-1.13193-4.78146c0,0,2.02263-4.31126,8.28146-5.20737c0,0,6.51305-1.05653,11.1622,4.32046
				c0,0,3.85139,4.12343,2.96625,8.23799l2.6217-1.50032c0.5123-2.57786-0.58249-4.75102-1.20201-5.88003
				c-0.28218-0.51424-2.61397-4.54166-7.75761-5.90757c-4.25172-1.12906-7.888-0.06245-7.888-0.06245
				S191.09761,108.53206,189.94341,109.3795z"/>
			<path class="st23" d="M194.3983,108.40436c0,0-6.24702,3.86414-2.50632,8.27031l-2.66737,1.47102l-0.77007-0.8242
				c0,0-1.44342-2.80404-0.32411-4.51478C188.13043,112.80671,190.42351,109.33842,194.3983,108.40436z"/>
		</g>
		<g>
			<path class="st23" d="M226.7244,113.03528c-5.81242,4.09502-2.96014,8.65974-2.96014,8.65974l1.85474,0.62208
				c0,0-2.26578-3.11223-1.19479-5.16362c0,0,2.26311-4.61848,9.14207-5.50677c0,0,7.15961-1.05795,12.20918,4.79025
				c0,0,4.18639,4.48829,3.1738,8.90888l2.89268-1.58369c0.58801-2.77012-0.59203-5.12409-1.26079-6.34766
				c-0.30461-0.55732-2.82397-4.92355-8.45628-6.4578c-4.65569-1.26821-8.65768-0.1641-8.65768-0.1641
				S227.99977,112.13674,226.7244,113.03528z"/>
			<path class="st23" d="M231.62405,112.03972c0,0-6.89558,4.08507-2.8335,8.87652l-2.9425,1.55156l-0.83707-0.89713
				c0,0-1.55643-3.03773-0.31076-4.86648C224.70023,116.70419,227.25179,112.99693,231.62405,112.03972z"/>
		</g>
	</g>
	<line class="st24" x1="41.91856" y1="40.95153" x2="62.47068" y2="36.78889"/>
	<line class="st25" x1="41.91856" y1="40.95153" x2="62.47068" y2="36.78889"/>
	<line class="st24" x1="42.92842" y1="60.28315" x2="62.47068" y2="55.64532"/>
	<line class="st25" x1="42.92842" y1="60.28315" x2="62.47068" y2="55.64532"/>
	<polyline class="st16" points="270.08005,64.82191 267.62427,69.0679 267.62427,64.24005 270.11578,60.09641 	"/>
	<line class="st24" x1="272.13248" y1="52.28831" x2="276.42642" y2="47.24203"/>
	<line class="st25" x1="272.13248" y1="52.28831" x2="276.42642" y2="47.24203"/>
	<line class="st24" x1="271.38821" y1="68.99297" x2="275.68216" y2="63.94669"/>
	<line class="st25" x1="271.38821" y1="68.99297" x2="275.68216" y2="63.94669"/>
	<g>
		<polygon class="st26" points="38.50142,36.55833 44.34329,31.39258 38.24244,28.13768 38.23112,30.159 27.63692,32.10808 
			27.76458,36.31884 38.43626,34.43283 		"/>
		<polygon class="st26" points="26.35928,30.08608 20.51822,35.25107 26.61916,38.50522 26.63119,36.48387 37.22538,34.53479 
			37.09566,30.32335 26.42596,32.21078 		"/>
	</g>
</g>
</svg>
