<?xml version="1.0" encoding="utf-8"?>
<!-- Generator: Adobe Illustrator 26.0.3, SVG Export Plug-In . SVG Version: 6.00 Build 0)  -->
<svg version="1.1" id="PCM_x5F_Replace" xmlns="http://www.w3.org/2000/svg" xmlns:xlink="http://www.w3.org/1999/xlink" x="0px"
	 y="0px" viewBox="0 0 378 236.9" style="enable-background:new 0 0 378 236.9;" xml:space="preserve">
<style type="text/css">
	.st0{fill:none;stroke:#231F20;stroke-width:0.5;stroke-linecap:round;stroke-linejoin:round;stroke-miterlimit:10;}
	.st1{fill:none;stroke:#231F20;stroke-width:0.5;stroke-linecap:round;stroke-linejoin:round;}
	.st2{fill:none;stroke:#231F20;stroke-width:0.25;stroke-linecap:round;stroke-linejoin:round;stroke-miterlimit:10;}
	.st3{fill:#231F20;stroke:#231F20;stroke-width:0.125;stroke-linecap:round;stroke-linejoin:round;stroke-miterlimit:10;}
	.st4{fill:none;stroke:#231F20;stroke-width:0.4875;stroke-linecap:round;stroke-linejoin:round;stroke-miterlimit:10;}
	.st5{fill:none;stroke:#231F20;stroke-width:0.4505;stroke-linecap:round;stroke-linejoin:round;stroke-miterlimit:10;}
	.st6{fill:none;stroke:#231F20;stroke-width:0.4409;stroke-linecap:round;stroke-linejoin:round;stroke-miterlimit:10;}
	.st7{fill:none;stroke:#231F20;stroke-width:0.5145;stroke-linecap:round;stroke-linejoin:round;stroke-miterlimit:10;}
	.st8{fill:#231F20;}
	.st9{font-family:'Arial-BoldMT';}
	.st10{font-size:4.6807px;}
	.st11{fill:#FFFFFF;}
	.st12{fill:none;stroke:#231F20;stroke-width:0.4737;stroke-linecap:round;stroke-linejoin:round;stroke-miterlimit:10;}
	.st13{fill:none;stroke:#231F20;stroke-width:0.464;stroke-linecap:round;stroke-linejoin:round;stroke-miterlimit:10;}
	.st14{fill:none;stroke:#231F20;stroke-width:0.4068;stroke-linecap:round;stroke-linejoin:round;stroke-miterlimit:10;}
	.st15{fill:none;stroke:#231F20;stroke-width:0.4365;stroke-linecap:round;stroke-linejoin:round;stroke-miterlimit:10;}
	.st16{fill:#FFFFFF;stroke:#FFFFFF;stroke-width:3;stroke-linecap:round;stroke-linejoin:round;stroke-miterlimit:10;}
	.st17{fill:#FFFFFF;stroke:#231F20;stroke-linecap:round;stroke-linejoin:round;stroke-miterlimit:10;stroke-dasharray:3;}
	.st18{fill:none;stroke:#231F20;stroke-width:0.5012;stroke-linecap:round;stroke-linejoin:round;stroke-miterlimit:10;}
	.st19{fill:none;stroke:#231F20;stroke-width:0.3156;stroke-linecap:round;stroke-linejoin:round;stroke-miterlimit:10;}
	.st20{fill:none;stroke:#231F20;stroke-width:0.5359;stroke-linecap:round;stroke-linejoin:round;stroke-miterlimit:10;}
	.st21{fill:none;stroke:#231F20;stroke-width:0.4112;stroke-linecap:round;stroke-linejoin:round;stroke-miterlimit:10;}
	.st22{fill:none;stroke:#231F20;stroke-width:0.2051;stroke-linecap:round;stroke-linejoin:round;stroke-miterlimit:10;}
	.st23{fill:none;stroke:#231F20;stroke-width:0.259;stroke-linecap:round;stroke-linejoin:round;stroke-miterlimit:10;}
	.st24{fill:none;stroke:#231F20;stroke-width:0.3861;stroke-linecap:round;stroke-linejoin:round;stroke-miterlimit:10;}
	.st25{fill:none;stroke:#231F20;stroke-width:0.1926;stroke-linecap:round;stroke-linejoin:round;stroke-miterlimit:10;}
	.st26{fill:none;stroke:#231F20;stroke-width:0.2432;stroke-linecap:round;stroke-linejoin:round;stroke-miterlimit:10;}
	.st27{fill:#231F20;stroke:#2D2A26;stroke-linecap:round;stroke-linejoin:round;stroke-miterlimit:10;}
	
		.st28{fill-rule:evenodd;clip-rule:evenodd;stroke:#FFFFFF;stroke-width:4;stroke-linecap:round;stroke-linejoin:round;stroke-miterlimit:10;}
	.st29{fill-rule:evenodd;clip-rule:evenodd;stroke:#231F20;stroke-linecap:round;stroke-linejoin:round;stroke-miterlimit:10;}
	.st30{fill:none;stroke:#FFFFFF;stroke-width:4;stroke-linecap:round;stroke-linejoin:round;stroke-miterlimit:10;}
	.st31{fill:none;stroke:#231F20;stroke-linecap:round;stroke-linejoin:round;stroke-miterlimit:10;}
	.st32{fill:#FFFFFF;stroke:#FFFFFF;stroke-width:4;stroke-linecap:round;stroke-linejoin:round;stroke-miterlimit:10;}
	.st33{fill:#FFFFFF;stroke:#2D2A26;stroke-linecap:round;stroke-linejoin:round;stroke-miterlimit:10;}
	.st34{fill-rule:evenodd;clip-rule:evenodd;}
	.st35{font-family:'Helvetica';}
	.st36{font-size:16.7034px;}
</style>
<g>
	<g>
		<path class="st0" d="M62.6,137.1c0,0,0-0.6,0-1.6c0-1.1,1.2-1.6,1.2-1.6s7-3.7,7.4-3.8c0.3-0.2,0.6-0.2,1.1-0.1
			c0.5,0.1,0.8-0.2,0.9-0.6c0.1-0.4,1.2-0.9,1.2-0.9L186,72.6c0,0,0.7-0.5,1.3-0.1c0.6,0.5,2.1,1.4,2.1,1.4s0.3,0.2,0.6-0.1
			c0.2-0.2,0.6-0.7,0.4-1.2l-0.7-0.5c0,0-0.2-0.6,0-1s0.5-0.8,0.9-0.8c0.4,0,3.1-0.2,3.1-0.2s0.7,0.2,0.8,0.6l0,3.3
			c0,0,0.1,0.5-0.4,0.8s-44.9,22.4-44.9,22.4"/>
		<path class="st0" d="M161.8,139.4c0,0-0.1-7.2,0-8.8c0.1-1.6,1.6-2.1,1.6-2.1l24.9-12.6l-6.9-3.5l6.1-3.1c0,0-22.9-11.4-23.9-12
			c-1-0.5-2.2,0-2.2,0l-6.1,3l-7.1-3.5l-23.3,11.7c0,0-2.2,0.9-2.2,2.5l0.1,1.1"/>
		<path class="st0" d="M163,128.3l-6.6-3.4l-6.8,3.4c0,0-1.1,0.6-1.1,1.8s0,3.1,0,3.1"/>
		<path class="st0" d="M123.9,109.3l6.6,3.3l-5.8,3.1l0,0.5c0,0-0.8,0.7-0.8,1.9c0,1,0.1,6.9,0.1,6.9"/>
		<line class="st0" x1="125.1" y1="115.6" x2="149.9" y2="128"/>
		<path class="st0" d="M155.9,144c0,0,0,0.2,0.7-0.2c0.7-0.4,4.8-2.4,4.8-2.4s0.7-0.5,0.5,0.6l0,0.6l-1.2-0.6"/>
		<polyline class="st0" points="161.9,142.6 189.5,128.7 189.5,127.4 195.7,124.4 		"/>
		<path class="st0" d="M184.8,113.9c0.5-0.4,1.4-0.6,2.4-0.6c1.7,0,3,0.7,3,1.5c0,0.6-0.6,1.1-1.6,1.3"/>
		<path class="st0" d="M189.1,117.8c0.7-0.3,1.1-0.7,1.1-1.2v-1.6"/>
		<path class="st0" d="M189,126.2v-9.1c0,0,0.1-1-0.9-1.1"/>
		<path class="st0" d="M189.6,117.5c0.3,0.2,0.5,0.4,0.5,0.7c0,0.4-0.4,0.8-1.1,1"/>
		<path class="st0" d="M189.6,119.4c0.3,0.2,0.5,0.4,0.5,0.7c0,0.4-0.4,0.8-1.1,1"/>
		<path class="st0" d="M189.6,121.1c0.3,0.2,0.5,0.4,0.5,0.7c0,0.4-0.4,0.8-1.1,1"/>
		<g>
			<ellipse class="st0" cx="154.6" cy="128.9" rx="3" ry="1.5"/>
			<path class="st0" d="M151.6,128.9v1.7c0,0.8,1.4,1.5,3,1.5s3-0.7,3-1.5V129"/>
			<path class="st0" d="M157.2,131.4c0.3,0.3,0.4,0.6,0.4,0.9c-0.1,0.8-1.6,1.3-3.2,1.1c-1.7-0.2-2.9-1.1-2.8-1.9
				c0-0.1,0.1-0.2,0.1-0.4"/>
			<path class="st0" d="M157.6,138.2c0,0.1,0.1,0.2,0.1,0.3c0,0.8-1.4,1.5-3,1.5s-3-0.7-3-1.5c0-0.2,0.1-0.4,0.3-0.6"/>
			<path class="st0" d="M157,136.9c0.4,0.3,0.7,0.8,0.6,1.1c-0.1,0.8-1.6,1.3-3.2,1c-1.7-0.3-2.9-1.2-2.7-2c0.1-0.3,0.3-0.6,0.7-0.8
				"/>
			<path class="st0" d="M157.1,135c0.4,0.3,0.6,0.7,0.5,1.1c-0.1,0.8-1.6,1.3-3.2,1s-2.9-1.2-2.7-2c0-0.3,0.2-0.5,0.5-0.7"/>
			<path class="st0" d="M157,133.2c0.4,0.3,0.6,0.7,0.6,1.1c-0.1,0.8-1.6,1.3-3.2,1c-1.7-0.3-2.9-1.2-2.7-2c0-0.3,0.2-0.5,0.5-0.7"
				/>
		</g>
		<g>
			<ellipse class="st0" cx="127.6" cy="149.9" rx="2" ry="1"/>
			<path class="st0" d="M125.6,149.9v1.1c0,0.5,0.9,1,2,1c1.1,0,2-0.4,2-1v-1"/>
			<path class="st0" d="M129,151.8c0.1,0.1,0.1,0.2,0.1,0.4c-0.1,0.4-0.8,0.6-1.6,0.5s-1.5-0.5-1.4-0.9"/>
			<path class="st0" d="M129.1,154.5c0,0.1,0,0.1,0,0.2c0,0.4-0.7,0.7-1.5,0.7s-1.5-0.3-1.5-0.7c0-0.1,0.1-0.2,0.1-0.3"/>
			<path class="st0" d="M128.8,153.5c0.2,0.2,0.3,0.3,0.3,0.5c-0.1,0.4-0.8,0.6-1.6,0.5c-0.8-0.1-1.4-0.6-1.4-1
				c0-0.1,0.1-0.2,0.3-0.3"/>
			<path class="st0" d="M128.8,152.6c0.2,0.2,0.3,0.4,0.3,0.5c-0.1,0.4-0.8,0.6-1.6,0.5c-0.8-0.1-1.4-0.6-1.4-1
				c0-0.1,0.1-0.2,0.3-0.3"/>
		</g>
		<g>
			<ellipse class="st0" cx="124.4" cy="113.7" rx="3" ry="1.5"/>
			<path class="st0" d="M121.3,113.7v1.7c0,0.8,1.3,1.5,2.8,1.5"/>
			<ellipse class="st0" cx="156.7" cy="97.4" rx="3" ry="1.5"/>
			<line class="st0" x1="153.7" y1="97.4" x2="153.7" y2="99.1"/>
			<path class="st0" d="M124,118.2c-1.6-0.3-2.8-1.1-2.7-1.9c0-0.1,0.1-0.2,0.1-0.4"/>
			<path class="st0" d="M124,124.8c-1.5-0.1-2.7-0.7-2.7-1.5c0-0.2,0.1-0.4,0.3-0.6"/>
			<path class="st0" d="M124.1,123.8c-1.7-0.3-2.9-1.2-2.7-2c0.1-0.3,0.3-0.6,0.7-0.8"/>
			<path class="st0" d="M124.1,121.8c-1.7-0.3-2.9-1.2-2.7-2c0-0.3,0.2-0.5,0.5-0.7"/>
			<path class="st0" d="M124.1,120.1c-1.7-0.3-2.9-1.2-2.7-2c0-0.3,0.2-0.5,0.5-0.7"/>
		</g>
		<polygon class="st0" points="104.8,134.7 123.3,144.2 127.4,142.2 131.2,144.1 150.6,134.4 131.9,125.1 128,127.1 124.1,125.1 		
			"/>
		<line class="st0" x1="104.8" y1="134.7" x2="104.7" y2="143.3"/>
		<line class="st0" x1="150.6" y1="134.4" x2="150.7" y2="140.5"/>
		<line class="st0" x1="123.3" y1="144.2" x2="123.4" y2="154.2"/>
		<line class="st0" x1="131.2" y1="144.1" x2="131.4" y2="154.3"/>
		<line class="st0" x1="127.4" y1="142.2" x2="127.4" y2="148.8"/>
		<polyline class="st0" points="88.1,139.6 92.3,137.5 105.8,144.2 101.5,146.3 		"/>
		<line class="st0" x1="105.8" y1="148.5" x2="105.8" y2="144.2"/>
		<line class="st0" x1="156.4" y1="125" x2="156.4" y2="127.5"/>
		<line class="st0" x1="157.3" y1="137.2" x2="161.9" y2="139.5"/>
		<line class="st0" x1="178.2" y1="93.7" x2="190.5" y2="87.4"/>
		<line class="st0" x1="194" y1="74.9" x2="194" y2="84.1"/>
		<polyline class="st0" points="222.6,88.2 203.7,78.8 198,81.7 197.5,82.4 190.5,86 190.5,92.5 196.2,95.3 196.9,95 		"/>
		<polyline class="st0" points="196.2,95 196.2,88.8 203.3,85.1 204.5,84.9 210.1,82.1 		"/>
		<polyline class="st0" points="204.5,84.9 204.2,85.6 197,89.2 197,95.8 202.7,98.6 203.5,98.2 		"/>
		<polyline class="st0" points="216.8,85.3 210.9,88.3 209.9,88.4 202.7,92 202.7,98.5 		"/>
		<line class="st0" x1="197.2" y1="89.2" x2="202.7" y2="92"/>
		<line class="st0" x1="190.6" y1="85.9" x2="196" y2="88.6"/>
		<polyline class="st0" points="210.9,88.3 210.7,88.9 203.7,92.5 203.6,99 209.1,101.7 		"/>
		<line class="st0" x1="203.7" y1="92.5" x2="209" y2="95.1"/>
		<polyline class="st0" points="209.2,103.7 209.3,95.2 223.8,88 228.8,90.4 214.3,97.8 214.3,106 		"/>
		<line class="st0" x1="209.3" y1="95.2" x2="214.3" y2="97.8"/>
		<path class="st0" d="M228.8,90.4c0,0,0.8,0.3-0.8,3.6"/>
		<polyline class="st0" points="236.4,95.1 231.3,92.6 225.5,95.3 225.3,96.1 218,99.7 218,104.2 		"/>
		<polyline class="st0" points="244,101.3 243.9,97.2 238.3,94.5 224.1,101.5 224,106.5 		"/>
		<polyline class="st0" points="229.6,109.5 229.6,104.3 243.9,97.2 		"/>
		<line class="st0" x1="218.2" y1="99.8" x2="224.1" y2="102.6"/>
		<line class="st0" x1="224.1" y1="101.5" x2="229.6" y2="104.3"/>
		<line class="st0" x1="208.7" y1="103.6" x2="214" y2="106.3"/>
		<polygon class="st0" points="200.5,113.2 218.6,104 236.6,113 218.6,122.3 		"/>
		<polyline class="st0" points="200.5,113.2 200.6,124.9 209.9,129.7 		"/>
		<line class="st0" x1="218.6" y1="122.3" x2="218.6" y2="125.5"/>
		<line class="st0" x1="236.8" y1="113.1" x2="236.8" y2="117.7"/>
		<polyline class="st0" points="212.5,107.2 186.8,94.2 181.8,96.8 		"/>
		<polyline class="st0" points="207.1,109.5 179.2,95.7 169.8,100.4 		"/>
		<polyline class="st0" points="265.9,113.9 266,109.9 246.3,100.1 240.5,103 240.2,103.7 233.1,107.2 233.1,111 		"/>
		<polyline class="st0" points="236.9,115.7 238.6,116.5 238.7,109.9 233.1,107.2 		"/>
		<polyline class="st0" points="252.8,103.4 247.2,106.2 245.9,106.3 238.7,109.9 		"/>
		<polyline class="st0" points="247.1,106.2 246.8,106.8 239.6,110.5 239.6,116.4 		"/>
		<polyline class="st0" points="259.3,106.6 253.6,109.5 252.3,109.6 245.2,113.2 239.6,110.5 		"/>
		<line class="st0" x1="245.2" y1="115.3" x2="245.2" y2="113.2"/>
		<polyline class="st0" points="246,116 246,113.7 252.9,110.4 253.6,109.5 		"/>
		<polyline class="st0" points="246,113.7 251.8,116.5 258.9,112.9 260.2,112.7 265.6,109.9 		"/>
		<polyline class="st0" points="280.3,121.6 280.3,120.4 268.1,114 262.4,114 257.3,116.5 254.6,115.1 		"/>
		<path class="st0" d="M280.3,120.4l-21.2,11l-0.8-0.5l-10.8,5.4l-1.2-0.7c0,0-0.5-0.3-1.4,0.2c-1,0.6-10.8,5.4-10.8,5.4
			s-1.1,0.4-0.2,0.8c0.9,0.4,0.8,0.5,0.8,0.5s0.4,0.1,0.3,1.1l0,0.8"/>
		<path class="st0" d="M251.8,116.5l-15,7.7c0,0-0.6,0.5-1,1.4c-0.4,0.9-2,3.7-2,3.7s-0.1,0.3-1.2,0.9c-1,0.6-32.8,16.5-32.8,16.5
			l0.1,1.2c0,0,3.5,1.7,4.8,2.6s2.7-0.2,2.7-0.2l66.3-33.4"/>
		<line class="st0" x1="21.4" y1="159.1" x2="53.5" y2="143"/>
		<line class="st0" x1="30.1" y1="171.6" x2="54.5" y2="159.6"/>
		<polygon class="st0" points="107.8,157.3 115.4,153.6 71.9,131.8 64.3,135.5 		"/>
		<path class="st0" d="M64.1,137.3c0,0,0.4-0.8,1.3-0.3c0.9,0.5,41.5,20.8,41.5,20.8s1,0.5,1,2.1c0,1.7,0,14.5,0,14.5
			s-0.1,1.6-1.2,1.1c-1.1-0.5-41.5-20.7-41.5-20.7"/>
		<line class="st0" x1="140.8" y1="193.9" x2="64.5" y2="155.8"/>
		<line class="st0" x1="111.9" y1="208.3" x2="149.2" y2="189.8"/>
		<line class="st0" x1="149.7" y1="190.9" x2="112.1" y2="209.9"/>
		<line class="st0" x1="149.6" y1="206.1" x2="112" y2="225.2"/>
		<polyline class="st0" points="147.9,207 149.8,207.8 159.1,203 160,203.4 168.6,199 169.7,197 172,196 174.4,196.2 291.4,137.7 
			291.4,131.5 289.1,128.2 289.1,123.6 		"/>
		<path class="st0" d="M169.5,197.3v-4.9c0,0,0.4-2.9,2.4-3.6c0,0,1.7-0.5,1.8,1.1v6"/>
		<path class="st0" d="M149.8,207.6v-17.1c0,0-0.5-1.1-2.1-1.3v1.2"/>
		<path class="st0" d="M149.8,190.5l9.6-4.8c0,0-0.5-1.1-2.1-1.3l-9.6,4.8"/>
		<path class="st0" d="M160.4,203.1l-0.1-17.4l7.7-3.9c0,0,1.3-0.9,2.2-0.2c1,0.8,1.6,1.4,3,0.8s1.4-0.7,1.4-0.7"/>
		<path class="st0" d="M174,180.7c0.8,0.4,0.8,1.7,0.8,1.7v2.4c0,0,0.1,2.3,2.6,1.3c2.3-1,2.5-3.8,2.5-3.8s0-2.1,0-3
			s-0.6-1.3-0.6-1.3c0-1.1-0.9-0.7-0.9-0.7l-3.6,1.9c0,0-0.6,0.3-0.7,1.4"/>
		<line class="st0" x1="160.4" y1="201.6" x2="160.4" y2="182.7"/>
		<path class="st0" d="M174.2,179.3"/>
		<path class="st0" d="M159.5,185.6V183l8.6-4.1l0.6-1.1l67.4-33.6c0,0,0.7-0.1,0.8,0.5c0.1,0.6,0.3,4.5,0.3,4.5s0.9,0.6,0.8,1.5
			l11.6-5.7c0,0,0.6-0.7-0.1-1.6l0.1-4.9c0,0,0.2-1.1,1-1.5l32.8-16.3l2.7,1.8c0,0,1.2-0.1,0.9-1.4l-0.7-0.6c0,0-0.4-1.2,1-1.8
			l2.8-0.1c0,0,0.7,0,0.8,0.6l0,3.5l-41.2,20.7"/>
		<line class="st0" x1="180.1" y1="179.1" x2="237.6" y2="150.3"/>
		<polyline class="st0" points="105.9,145.5 127.6,156.4 143.8,148.4 		"/>
		<polyline class="st0" points="106,146.9 127.6,157.5 143.5,149.7 		"/>
		<line class="st0" x1="123.8" y1="154.4" x2="126" y2="153.3"/>
		<line class="st0" x1="131.3" y1="154.3" x2="129.2" y2="153.3"/>
		<line class="st0" x1="133.5" y1="159.9" x2="139" y2="157.1"/>
		<line class="st0" x1="114.8" y1="169.4" x2="128.6" y2="162.4"/>
		<path class="st0" d="M107.9,159.1l5.6,2.7c0,0,1.3,0.6,1.3,1.7c-0.1,1.1-0.2,5.3-0.2,5.3s-0.2,1,0.7,1.4c0.9,0.4,4.4,2,4.4,2
			l1.1,1.6l28.4,14.4"/>
		<polyline class="st0" points="130.1,178.2 131.7,177.5 151.2,187.3 		"/>
		<polyline class="st0" points="136.4,179.8 145.4,175.3 153.1,179.2 144.2,183.6 		"/>
		<line class="st0" x1="153.1" y1="179.2" x2="153.1" y2="182"/>
		<polyline class="st0" points="147.1,185.1 155.6,180.7 157.5,181.6 		"/>
		<polyline class="st0" points="157.4,184.3 157.3,181.9 159.8,180.6 161.8,181.6 		"/>
		<line class="st0" x1="159.5" y1="183" x2="157.3" y2="181.9"/>
		<line class="st0" x1="86.6" y1="139.1" x2="116.4" y2="124.4"/>
		<polyline class="st0" points="187.4,109.3 188.1,109.6 188.1,113.1 		"/>
		<polyline class="st0" points="190.1,120.1 195.7,122.8 156,142.6 		"/>
		<path class="st0" d="M195.9,124.8"/>
		<polygon class="st0" points="199.1,123.3 195.9,124.9 195.9,119.7 199.1,118.1 		"/>
		<line class="st0" x1="195.9" y1="119.7" x2="190.5" y2="117"/>
		<line class="st0" x1="195.7" y1="120.7" x2="190" y2="117.8"/>
		<polyline class="st0" points="188.2,111.8 197.7,116.6 200.4,115.2 		"/>
		<polyline class="st0" points="188.2,113 197.7,117.8 200.4,116.5 		"/>
		<path class="st0" d="M52.8,142.8V142l10.3-4.9l1.4,0.6c0,0,0.5,0.3,0.5,1c0,0.6,0,2,0,2l-9.2,4.6l-0.9-0.1v-2c0,0-0.1-1-2.2-1.3"
			/>
		<path class="st0" d="M53.7,160.1l1.3,0.6l10-5.1l-0.1-2l-0.9-0.3l-8.3,4.1c0,0-1,0.5-0.9,1.3l0,1.7"/>
		<path class="st0" d="M10.3,159.8l5.5-2.7c0,0,9.3,1.1,13.7,13.5c0,0,3.8,10.4-2.9,16l-6.2,3c0,0-2,0.3-4.5-0.9l-5.4-2.5
			c0,0-0.8-0.9-0.8-1.9c0-1,0.1-3,0.1-3"/>
		<path class="st0" d="M9.8,165.6l-0.1-4.9c0,0,0.3-1.1,2.4-0.9c0,0,9.4,3.5,12.1,13.1c0,0,4.9,10.7-2.2,15.9"/>
		<path class="st0" d="M11.6,171.2v-5.5c0,0,0.5-3.5,3.4-2.8c0,0,7.1,2.5,9.4,15.2c0,0,1.5,8.2-4.8,10.1c0,0-1.7,0.6-3.8-0.2
			s-5.8-3-5.8-3l5.4-2.7"/>
		<line class="st0" x1="16.7" y1="163.9" x2="16.7" y2="168.7"/>
		<path class="st0" d="M10.5,172l8.2-4.1c0,0,1.2,0.3,1.1,1.6l-1.1,3.8l-5,2.7l-1.7-3.1C11.9,172.9,11.4,171.8,10.5,172z"/>
		<path class="st0" d="M10.5,172c0,0-1.7,5.1,0.7,9.9l1.3-0.6c0,0,0-3.3,3-4.2c0,0,1.8-0.6,1.7,1.8l1.3-0.5c0,0,1-3.4,1-7"/>
		<path class="st0" d="M11.5,166.5c0,0,0.5,0.3-2.1-0.8c0,0-4.5-0.2-5.9,6.3v8c0,0,0,3,2.9,3.2c0,0,2.5,0.1,4-2.7"/>
		<path class="st0" d="M15.4,177.2l0.2,5.3c0,0,0.4,0.6,0.9,0.8s3.8,1.8,3.8,1.8s1.8,0.6,2.6,0.5"/>
		<path class="st0" d="M11.6,168.9c0,0-1.1,0.2-2.4-0.8c0,0-2.8,0.6-3.3,3.8l0,7.6c0,0,0.2,1.6,1.5,1.1s1.5-1.1,1.5-1.1l1-1.3"/>
		<path class="st0" d="M23.9,161.3l11-5.5c0,0,1.4-0.5,1.5,1c0.1,1.5,0,7.1,0,7.1s0.1,1.1-1.2,2.1l-5.9,2.9"/>
		<path class="st0" d="M46.6,150.9l-0.9,0.4c0-1.2-1-1-1-1l-6.5,3.2c-1.1,0.8-0.9,2-0.9,2l0,8.8c0,0,0.3,1.1,1.3,0.6
			c1-0.5,6.2-3,6.2-3s1.1-0.7,0.9-2l16.5-8.2v-0.8c0,0,2.9-1,3.2-2.2l0.3-1l0-1.7c0,0-0.2-1.8-1.4-3.3v-1.6"/>
		<path class="st0" d="M60.2,152.7v-0.8c0,0,2.9-1,3.2-2.2l0.3-1l0-1.7c0,0-0.2-1.8-1.4-3.3v-1.6"/>
		<polyline class="st0" points="46.8,159.5 46.8,149.9 56.1,145.3 		"/>
		<line class="st0" x1="53.2" y1="156.1" x2="53.2" y2="146.8"/>
		<polyline class="st0" points="110.4,160.2 119.7,155.5 119.8,162.4 114.9,164.9 		"/>
		<polyline class="st0" points="114.3,152.9 114.8,152.7 119.7,155.2 		"/>
		<polyline class="st0" points="119.9,156.2 127.6,160.2 128.7,159.6 		"/>
		<ellipse class="st0" cx="131.1" cy="158.7" rx="2.3" ry="1.2"/>
		<path class="st0" d="M128.8,158.7v5.8c0,0.7,1,1.2,2.3,1.2s2.3-0.5,2.3-1.2v-5.8"/>
		<polyline class="st0" points="121.1,120.5 116.3,122.9 122.2,125.9 		"/>
		<polyline class="st0" points="116.3,122.9 116.3,124.5 120.8,126.7 		"/>
		<path class="st0" d="M60.6,143.5c0,0,3,2.7,0.1,8.2"/>
		<line class="st0" x1="64.1" y1="153.2" x2="64.1" y2="150.1"/>
		<g>
			<polygon class="st0" points="82.4,155 69.1,148.5 69.1,153.8 82.5,160.5 			"/>
			<polyline class="st0" points="82.5,160.5 83.8,159.9 83.7,154.4 70.4,147.8 69.1,148.5 			"/>
			<line class="st0" x1="69.1" y1="153.8" x2="74.3" y2="151.1"/>
			<polyline class="st0" points="75.8,151.9 75.8,157 80.9,154.4 			"/>
			<line class="st0" x1="82.4" y1="155" x2="83.7" y2="154.4"/>
		</g>
		<g>
			<polygon class="st0" points="94.7,160.5 84.9,155.5 84.9,161.8 94.8,166.9 			"/>
			<polyline class="st0" points="94.8,166.9 96.5,165.9 96.4,159.4 86.6,154.5 84.9,155.5 			"/>
			<line class="st0" x1="84.9" y1="161.6" x2="89.5" y2="159.6"/>
			<polyline class="st0" points="89.7,158.1 89.7,164.2 94.3,162.2 			"/>
			<line class="st0" x1="94.7" y1="160.5" x2="96.1" y2="159.8"/>
		</g>
		<g>
			<polygon class="st0" points="102.6,164.4 97.5,161.8 97.5,168.2 102.7,170.9 			"/>
			<polyline class="st0" points="102.7,170.9 104.3,169.9 104.2,163.4 99.2,160.8 97.5,161.8 			"/>
			<path class="st0" d="M97.4,163.6"/>
			<line class="st0" x1="97.5" y1="168.2" x2="102.2" y2="166.2"/>
			<line class="st0" x1="102.6" y1="164.4" x2="103.9" y2="163.8"/>
		</g>
		<path class="st0" d="M115.8,210.5l14.2-7c0,0,1.3-0.4,1.3,0.8s0.1,7,0.1,7s-0.4,1.6-1.3,2.2s-14.4,7.2-14.4,7.2s-1.2,0-1.2-1.3
			s0.1-6.7,0.1-6.7S114.7,211,115.8,210.5z"/>
		<path class="st0" d="M141.5,197.9l6.3-3.1c0,0,0.8-0.7,0.8,0.2c0.1,0.8,0,8.3,0,8.3s0.1,0.5-0.6,0.9c-0.7,0.4-6.5,3.3-6.5,3.3
			s-0.7,0-0.7-0.8s0.1-7.9,0.1-7.9S141.1,198,141.5,197.9z"/>
		<ellipse transform="matrix(0.498 -0.8672 0.8672 0.498 -107.8996 218.8965)" class="st0" cx="135.1" cy="202.6" rx="2" ry="1.4"/>
		<ellipse transform="matrix(0.498 -0.8672 0.8672 0.498 -81.1138 235.6411)" class="st0" cx="163" cy="187.9" rx="2" ry="1.4"/>
		<ellipse transform="matrix(0.498 -0.8672 0.8672 0.498 -82.4708 240.2712)" class="st0" cx="166.3" cy="191.4" rx="2" ry="1.4"/>
		<ellipse transform="matrix(0.498 -0.8672 0.8672 0.498 -90.0268 241.1238)" class="st0" cx="163.3" cy="198.3" rx="2" ry="1.4"/>
		<ellipse transform="matrix(0.498 -0.8672 0.8672 0.498 -77.3056 250.0999)" class="st0" cx="177.4" cy="191.8" rx="2" ry="1.4"/>
		<ellipse transform="matrix(0.498 -0.8672 0.8672 0.498 -92.1635 233.377)" class="st0" cx="155.5" cy="196.3" rx="1.3" ry="0.9"/>
		<ellipse transform="matrix(0.498 -0.8672 0.8672 0.498 -113.6254 222.2111)" class="st0" cx="135.1" cy="209.2" rx="2" ry="1.4"/>
		<line class="st0" x1="106.8" y1="208.6" x2="111.7" y2="206.3"/>
		<path class="st0" d="M102.5,201.4c1.7-0.3,3,0.1,3,0.1s3.1,1.2,4.6,2.1c1.7,1,1.7,2.3,1.7,2.3v23.3c0,0,0.3,0.9-0.7,1.4
			c-1.2,0.6-4.7,2.4-4.7,2.4s-1.3,0.4-3.3-0.5c-1.9-0.9-9.4-4.8-12.1-17.3c0,0-1.7-10,5.9-12.4c0,0,4.9-0.5,5-2.1c0,0-0.5-0.9-5.3,2
			"/>
		<path class="st0" d="M106.7,232.7v-22.9c0,0,0.2-2.3-1-3.1l-5.7-2.6c0,0-1.7-0.6-4.4,0.4"/>
		<path class="st0" d="M97.9,227.3c0,0-4.4-3.8-5.8-12.6c0,0-0.9-8.7,5-9.9c0,0,2.1-0.9,8.4,3v24.3c0,0-1.6,0.2-4-1.6"/>
		<path class="st0" d="M105.3,213.4l-1.3-0.6c0,0-3.5-0.4-5.5,4.7c0,0-0.5,2.5-0.5,3.9c-0.1,1.5,0.1,6.6,0.1,6.6s1.3,3.7,4.7,2.1
			c0,0,2.5-1.7,2.7-3.1"/>
		<path class="st0" d="M98.6,204.9c0,0-2.9,5.3-0.1,12.6"/>
		<path class="st0" d="M105.4,214.7l-1.2-0.7c0,0-3.4,0.3-4.7,5.4v8.2c0,0-0.3,3.6,4.1,1.8"/>
		
			<ellipse transform="matrix(0.4022 -0.9156 0.9156 0.4022 -117.9485 130.1749)" class="st0" cx="40.7" cy="155.4" rx="1.6" ry="1.2"/>
		
			<ellipse transform="matrix(0.4022 -0.9156 0.9156 0.4022 -123.3505 133.7023)" class="st0" cx="40.7" cy="161.3" rx="1.6" ry="1.2"/>
		<polygon class="st0" points="141.1,192.3 133.2,188.3 133.2,181.3 141.1,185.3 		"/>
		<g>
			<polyline class="st0" points="135.6,187.6 134.2,186.9 134.2,182.8 140.1,185.8 140.1,189.9 138.6,189.1 			"/>
			<polyline class="st0" points="138.7,189.1 138.7,190 135.6,188.5 135.6,187.6 			"/>
		</g>
		<ellipse class="st0" cx="78.3" cy="138.3" rx="2.1" ry="1"/>
		<ellipse class="st0" cx="102.1" cy="150.2" rx="2.1" ry="1"/>
		<path class="st0" d="M110.5,160.6v4.5c0,0-0.3,2.1,1.3,2.7l2.8,1.3"/>
		<polygon class="st0" points="118.9,177.1 112.4,173.9 112.4,170.6 118.9,173.8 		"/>
		<ellipse transform="matrix(0.9368 -0.35 0.35 0.9368 -53.1083 49.2786)" class="st0" cx="109.8" cy="171.6" rx="1" ry="1.4"/>
		<line class="st0" x1="144" y1="185.6" x2="144" y2="192.2"/>
		<path class="st0" d="M80.7,151v-2.3c0.1-0.9-0.8-1.5-0.8-1.5l-8.7-4.4c-1-0.4-0.9,0.7-0.9,0.7v2.4c0,0-0.1,0.7,0.7,1.1l9,4.6
			C80,151.5,80.7,151.9,80.7,151z"/>
		<path class="st0" d="M70.5,142.7l0.9-0.5c0,0,0.4-0.2,0.8,0l8.6,4.3c0,0,0.9,0.6,0.8,1.5v2.3c0,0.6-0.2,0.7-0.2,0.7l-1.2,0.6"/>
		<path class="st0" d="M84.7,151.5"/>
		<path class="st0" d="M234.7,142.6l-10.6,5.4c0,0,1.4,0.2,1.2,1.3"/>
		<polyline class="st0" points="224.8,148.6 220.9,150.5 220.2,150.1 205.9,157.3 205.9,159.1 		"/>
		<path class="st0" d="M200.4,161.9l-3.7-1.8c0,0-0.9-0.3-1.3,1.2l-0.1,3"/>
		<path class="st0" d="M205.9,157.3l-14.1-6.8l1.5-2.2l3.7-1.8c0,0,0.4-0.3,1,0s1.9,0.9,1.9,0.9"/>
		<line class="st0" x1="122.9" y1="110" x2="76.1" y2="133.5"/>
		<path class="st1" d="M282.2,127c0,0,1.2,0.9-0.1,2l-0.6,0.3l-12.9,6.4c0,0-0.5,0.4-0.5,1s0.1,3.7,0.1,3.7s-0.1,0.7,0.7,0.4
			s13.1-6.5,13.1-6.5s0.9-0.3,0.9,0.6s0,1.6,0,1.6s0.5,0.7,1-0.3c0,0,0.9-0.9-0.8-2.3s-1.3-1.4-1.3-1.4l0.1-3.2"/>
		<line class="st1" x1="284.2" y1="135.4" x2="291.3" y2="131.7"/>
		<path class="st1" d="M280.4,129.9l0,1.3c0,0,0.2,0.4-0.5,0.8c-0.2,0.1-0.5,0.2-0.7,0.3c-0.4,0.2-0.7,0.3-0.7,0.3l0,1.5l1.6-0.8"/>
		<path class="st1" d="M279.3,132.4l0.7,0.4c0,0,0.6,0.3,0.4,1.2l0,1.1"/>
		<path class="st0" d="M235.7,144.3c0,0,0-1.2,1-1.7s8.9-4.3,8.9-4.3s0.4-0.5,1.5,0.2"/>
		<path class="st0" d="M236.7,144.4c0,0,0-0.9,1.3-1.6c1.3-0.6,8-3.9,8-3.9s0.9-0.4,1.5-0.1"/>
		<path class="st0" d="M237.2,148.8l10.2-5.1c0,0,0.8-0.3,0.1-1.1l0-6.1"/>
		<line class="st0" x1="192.2" y1="150.7" x2="192.2" y2="155.9"/>
		<path class="st0" d="M192,154.7c0,0-0.9,1,0.6,1.6c0.4,0.1,0.9,0.4,1.5,0.7c1.8,0.8,4.3,2,4.3,2s0.7,0.1,0.2,1.8"/>
		<polyline class="st0" points="192.1,165.9 192.3,161.8 191.8,161.5 193.2,159.2 194.1,158.6 194.2,157 		"/>
		<polyline class="st0" points="150.9,152.3 149.4,151.6 139.2,156.7 139.1,160.3 		"/>
		<line class="st0" x1="139.2" y1="156.7" x2="142.4" y2="158.1"/>
		<polyline class="st0" points="139.1,159.9 138.4,160.3 142.5,162.2 142.6,160.3 		"/>
		<polyline class="st0" points="144.7,161.6 142.1,163 169.9,176.9 		"/>
		<polyline class="st0" points="185.3,169.3 152.8,153 142.6,158 175.2,174.3 		"/>
		<polyline class="st0" points="173.9,174.9 142.6,159.3 142.6,158 		"/>
		<polyline class="st0" points="173,175.5 142.6,160.3 142.6,159 		"/>
		<path class="st0" d="M152.3,149.7c0,0,1.5,0.5,0.5,1.9s-2.2,0.1-1.2,1.9"/>
		<path class="st0" d="M115.4,153.6c0,0,0.9,0.5,0.9,1c0,0.8,0,0.9,0,0.9s0.1,1-0.9,1.4c-1.1,0.4-5.6,2.7-5.6,2.7"/>
		<path class="st0" d="M108.3,157c0,0,0.7,0.3,0.8,0.8c0,0.5,0.1,1.8,0.1,1.8"/>
		<polyline class="st0" points="119.7,156.6 118.3,157.3 118.4,163.1 		"/>
		<polyline class="st0" points="120.6,166.5 127.1,169.7 127.2,173.5 124.2,175.2 		"/>
		<line class="st0" x1="120.5" y1="173.2" x2="127.1" y2="169.7"/>
		<polyline class="st0" points="126.9,176.9 130.3,175.1 133.7,176.7 132,177.6 		"/>
		<polyline class="st0" points="134.5,178.7 134.5,177.7 133.5,178.3 		"/>
		<line class="st0" x1="133.7" y1="176.7" x2="134.5" y2="177.7"/>
		<path class="st0" d="M125.1,177.8l3.1,1.5c0,0,0.8,0.4,0.7,1.3s-0.1,0.9-0.8,0.9c-0.7-0.1-2.9-1.4-2.9-1.4s-0.7-0.7-0.8-1.5
			C124.4,177.9,125.1,177.8,125.1,177.8z"/>
		<polyline class="st0" points="164.2,150.6 162.9,151.2 169.3,154.5 184.4,146.9 183.6,146.5 		"/>
		<polyline class="st2" points="165.2,148.6 164.4,149 164.4,149.4 169.3,151.9 170.1,151.9 183.5,145.1 183.5,144.8 182.8,144.4 		
			"/>
		<polyline class="st2" points="167.2,152.7 169.3,153.7 169.9,153.5 169.9,152.9 		"/>
		<polyline class="st2" points="164.4,149.4 164.4,151.3 166,152.1 		"/>
		<polyline class="st2" points="183.5,145.1 183.5,146.7 183,147 182.3,146.7 		"/>
		<polyline class="st2" points="183.3,146.1 170.1,152.8 169.4,152.8 		"/>
		<line class="st2" x1="170.1" y1="151.9" x2="170.1" y2="152.7"/>
		<line class="st2" x1="169.3" y1="151.9" x2="169.3" y2="153.7"/>
		<polyline class="st2" points="166.1,150.7 166.1,152.4 166.8,152.8 167.2,152.6 167.2,150.8 166.8,151 166.1,150.7 166.4,150.4 		
			"/>
		<line class="st2" x1="166.8" y1="151.1" x2="166.8" y2="152.8"/>
		<line class="st2" x1="183" y1="146.3" x2="183" y2="147"/>
		<g>
			<g>
				<polygon class="st3" points="166.9,147.5 166.5,147.3 166.8,147.1 167.3,147.3 				"/>
				<polygon class="st3" points="167.9,147 167.6,147.2 167.1,146.9 167.5,146.7 				"/>
				<polygon class="st3" points="168.6,146.7 168.2,146.9 167.8,146.6 168.2,146.4 				"/>
				<polygon class="st3" points="169.3,146.3 168.9,146.5 168.5,146.3 168.8,146.1 				"/>
				<polygon class="st3" points="169.9,146 169.6,146.2 169.1,145.9 169.5,145.7 				"/>
				<polygon class="st3" points="170.6,145.7 170.2,145.9 169.8,145.6 170.2,145.4 				"/>
				<polygon class="st3" points="171.3,145.3 170.9,145.5 170.5,145.3 170.9,145.1 				"/>
				<polygon class="st3" points="172,145 171.6,145.2 171.1,144.9 171.5,144.7 				"/>
				<polygon class="st3" points="172.6,144.7 172.2,144.9 171.8,144.6 172.2,144.4 				"/>
				<polygon class="st3" points="173.3,144.3 172.9,144.5 172.5,144.3 172.9,144.1 				"/>
				<polygon class="st3" points="174,144 173.6,144.2 173.1,143.9 173.5,143.7 				"/>
				<polygon class="st3" points="174.6,143.7 174.2,143.9 173.8,143.6 174.2,143.4 				"/>
				<polygon class="st3" points="175.3,143.3 174.9,143.5 174.5,143.3 174.9,143.1 				"/>
				<polygon class="st3" points="176,143 175.6,143.2 175.1,142.9 175.5,142.7 				"/>
				<polygon class="st3" points="176.6,142.7 176.2,142.9 175.8,142.6 176.2,142.4 				"/>
				<polygon class="st3" points="177.3,142.3 176.9,142.5 176.5,142.3 176.9,142.1 				"/>
				<polygon class="st3" points="177.6,142.2 177.1,141.9 177.5,141.7 178,142 				"/>
			</g>
		</g>
		<g>
			<g>
				<polygon class="st3" points="168.1,148.1 167.6,147.9 168,147.7 168.5,147.9 				"/>
				<polygon class="st3" points="169.1,147.6 168.7,147.8 168.3,147.5 168.7,147.3 				"/>
				<polygon class="st3" points="169.8,147.2 169.4,147.4 169,147.2 169.4,147 				"/>
				<polygon class="st3" points="170.5,146.9 170.1,147.1 169.6,146.9 170,146.7 				"/>
				<polygon class="st3" points="171.1,146.6 170.7,146.8 170.3,146.5 170.7,146.3 				"/>
				<polygon class="st3" points="171.8,146.2 171.4,146.4 171,146.2 171.4,146 				"/>
				<polygon class="st3" points="172.5,145.9 172.1,146.1 171.6,145.9 172,145.7 				"/>
				<polygon class="st3" points="173.1,145.6 172.7,145.8 172.3,145.5 172.7,145.3 				"/>
				<polygon class="st3" points="173.8,145.2 173.4,145.4 173,145.2 173.4,145 				"/>
				<polygon class="st3" points="174.5,144.9 174.1,145.1 173.6,144.9 174,144.7 				"/>
				<polygon class="st3" points="175.1,144.6 174.7,144.8 174.3,144.5 174.7,144.3 				"/>
				<polygon class="st3" points="175.8,144.2 175.4,144.4 175,144.2 175.4,144 				"/>
				<polygon class="st3" points="176.5,143.9 176.1,144.1 175.6,143.9 176,143.7 				"/>
				<polygon class="st3" points="177.1,143.6 176.7,143.8 176.3,143.5 176.7,143.3 				"/>
				<polygon class="st3" points="177.8,143.2 177.4,143.4 177,143.2 177.4,143 				"/>
				<polygon class="st3" points="178.5,142.9 178.1,143.1 177.6,142.9 178,142.7 				"/>
				<polygon class="st3" points="178.7,142.8 178.3,142.5 178.7,142.3 179.1,142.6 				"/>
			</g>
		</g>
		<g>
			<g>
				<polygon class="st3" points="169.3,148.7 168.8,148.5 169.2,148.3 169.7,148.5 				"/>
				<polygon class="st3" points="170.3,148.2 169.9,148.4 169.5,148.1 169.9,147.9 				"/>
				<polygon class="st3" points="171,147.8 170.6,148 170.2,147.8 170.6,147.6 				"/>
				<polygon class="st3" points="171.7,147.5 171.3,147.7 170.8,147.5 171.2,147.3 				"/>
				<polygon class="st3" points="172.3,147.2 171.9,147.4 171.5,147.1 171.9,146.9 				"/>
				<polygon class="st3" points="173,146.8 172.6,147 172.2,146.8 172.6,146.6 				"/>
				<polygon class="st3" points="173.7,146.5 173.3,146.7 172.8,146.5 173.2,146.3 				"/>
				<polygon class="st3" points="174.3,146.2 173.9,146.4 173.5,146.1 173.9,145.9 				"/>
				<polygon class="st3" points="175,145.8 174.6,146 174.2,145.8 174.6,145.6 				"/>
				<polygon class="st3" points="175.7,145.5 175.3,145.7 174.8,145.5 175.2,145.3 				"/>
				<polygon class="st3" points="176.3,145.2 175.9,145.4 175.5,145.1 175.9,144.9 				"/>
				<polygon class="st3" points="177,144.8 176.6,145 176.2,144.8 176.6,144.6 				"/>
				<polygon class="st3" points="177.7,144.5 177.3,144.7 176.8,144.5 177.2,144.3 				"/>
				<polygon class="st3" points="178.3,144.2 177.9,144.4 177.5,144.1 177.9,143.9 				"/>
				<polygon class="st3" points="179,143.8 178.6,144 178.2,143.8 178.6,143.6 				"/>
				<polygon class="st3" points="179.7,143.5 179.3,143.7 178.8,143.5 179.2,143.3 				"/>
				<polygon class="st3" points="179.9,143.4 179.5,143.1 179.9,142.9 180.3,143.2 				"/>
			</g>
		</g>
		<g>
			<g>
				<polygon class="st3" points="170.4,149.3 170,149 170.4,148.8 170.8,149.1 				"/>
				<polygon class="st3" points="171.5,148.7 171.1,148.9 170.7,148.7 171.1,148.5 				"/>
				<polygon class="st3" points="172.2,148.4 171.8,148.6 171.3,148.3 171.7,148.1 				"/>
				<polygon class="st3" points="172.8,148.1 172.4,148.3 172,148 172.4,147.8 				"/>
				<polygon class="st3" points="173.5,147.7 173.1,147.9 172.7,147.7 173.1,147.5 				"/>
				<polygon class="st3" points="174.2,147.4 173.8,147.6 173.3,147.3 173.7,147.1 				"/>
				<polygon class="st3" points="174.8,147.1 174.4,147.3 174,147 174.4,146.8 				"/>
				<polygon class="st3" points="175.5,146.7 175.1,146.9 174.7,146.7 175.1,146.5 				"/>
				<polygon class="st3" points="176.2,146.4 175.8,146.6 175.3,146.3 175.7,146.1 				"/>
				<polygon class="st3" points="176.8,146.1 176.4,146.3 176,146 176.4,145.8 				"/>
				<polygon class="st3" points="177.5,145.7 177.1,145.9 176.7,145.7 177.1,145.5 				"/>
				<polygon class="st3" points="178.2,145.4 177.8,145.6 177.3,145.3 177.7,145.1 				"/>
				<polygon class="st3" points="178.8,145.1 178.4,145.3 178,145 178.4,144.8 				"/>
				<polygon class="st3" points="179.5,144.7 179.1,144.9 178.7,144.7 179.1,144.5 				"/>
				<polygon class="st3" points="180.2,144.4 179.8,144.6 179.3,144.3 179.7,144.1 				"/>
				<polygon class="st3" points="180.8,144.1 180.4,144.3 180,144 180.4,143.8 				"/>
				<polygon class="st3" points="181.1,143.9 180.7,143.7 181.1,143.5 181.5,143.7 				"/>
			</g>
		</g>
		<polyline class="st2" points="166.5,150 165.2,149.4 165.2,147.9 166.2,147.4 166.7,147.6 166.3,147.8 167,148.1 167.4,147.9 
			167.8,148.2 167.5,148.4 		"/>
		<line class="st2" x1="166.6" y1="148.6" x2="165.2" y2="147.9"/>
		<polygon class="st2" points="168.5,148.6 167.8,148.9 167.7,149.2 167.7,150.6 169.4,151.4 169.4,149.8 170.2,149.4 169.7,149.1 
			169.4,149.3 168.7,149 169,148.8 		"/>
		<line class="st2" x1="167.8" y1="149.2" x2="169.3" y2="150"/>
		<polyline class="st2" points="166.5,150.5 166.5,148.8 167.2,148.3 167.8,148.9 		"/>
		<line class="st2" x1="167.2" y1="150.8" x2="167.2" y2="148.3"/>
		<polyline class="st2" points="166.6,148.8 167.1,149.1 167.7,148.9 		"/>
		<polygon class="st2" points="182.7,143.4 181.9,143.7 181.9,145.2 182.7,144.8 		"/>
		<polyline class="st2" points="169.4,151.4 170.2,151.1 170.2,149.5 		"/>
		<line class="st2" x1="170.3" y1="150.9" x2="181.7" y2="145.2"/>
		<polyline class="st2" points="177.7,141.6 178.5,141.2 182.7,143.3 		"/>
		<polyline class="st2" points="178.9,141.4 179.5,140.9 180.2,141.4 180.2,142.1 		"/>
		<polyline class="st2" points="181.3,142.5 181.9,142.1 182.6,142.6 182.6,143.2 		"/>
		<polyline class="st2" points="181.9,142.3 182,142.9 182.6,142.6 		"/>
		<polyline class="st2" points="179.5,141 179.7,141.7 180.2,141.4 		"/>
		<line class="st2" x1="178.2" y1="141.9" x2="178.9" y2="141.5"/>
		<line class="st2" x1="179" y1="142.2" x2="179.6" y2="141.8"/>
		<line class="st2" x1="180.6" y1="143" x2="181.3" y2="142.7"/>
		<line class="st2" x1="181.3" y1="143.4" x2="182" y2="143"/>
		<path class="st0" d="M143.7,150l2.1,1.1c0,0,0.7,0.5,2.1-0.1c1.4-0.6,7.9-4.2,7.9-4.2"/>
		<path class="st0" d="M143.9,149.5v-4c0,0-0.1-1.7,1.3-1.6c0,0,1,0.1,1,2.2v4.9"/>
		<path class="st0" d="M148.4,142.5c0,0,1,0.1,1,2.2v5.3"/>
		<path class="st0" d="M152.6,148.3v-5.1c0-2-1-2.2-1-2.2v5.6"/>
		<line class="st0" x1="144.7" y1="143.9" x2="153.2" y2="139.9"/>
		<line class="st0" x1="148.4" y1="142.5" x2="148.4" y2="148.4"/>
		<path class="st0" d="M155.6,140.1c0.2,0.3,0.3,0.8,0.3,1.6v4.9"/>
		<polyline class="st0" points="152.7,146 154.9,144.9 154.9,140.2 		"/>
		<line class="st0" x1="149.4" y1="147.7" x2="151.6" y2="146.6"/>
		<line class="st0" x1="146.2" y1="149.4" x2="148.3" y2="148.3"/>
		<path class="st0" d="M156,145.5c0,0,3.1-0.6,2.1-2.3"/>
		<ellipse class="st0" cx="192.7" cy="145.7" rx="2.4" ry="1.1"/>
		<path class="st0" d="M192.2,152.5c-1.1-0.1-1.9-0.5-1.9-1v-5.8"/>
		<line class="st0" x1="195" y1="145.7" x2="195" y2="147.2"/>
		<g>
			<polyline class="st0" points="203.5,134.5 203.4,133.2 201.3,134.2 201.3,140.5 200.3,140 200.3,141 			"/>
			<polyline class="st0" points="201.9,140.8 202.9,141.3 202.9,135 205,134 205,135.4 			"/>
			<polyline class="st0" points="203.4,141.7 204.4,142.2 204.4,135.9 206.5,134.9 206.5,136.2 			"/>
			<polyline class="st0" points="204.9,142.5 206,143 206,136.7 208.1,135.7 208.1,137.1 			"/>
			<polyline class="st0" points="207.5,142.7 207.5,137.6 209.6,136.6 209.6,138 			"/>
			<polyline class="st0" points="209,142.1 209,138.4 211.1,137.4 211.2,140.8 			"/>
		</g>
		<g>
			<polyline class="st0" points="204.2,134.4 204.2,132.7 206.3,131.7 206.4,133 			"/>
			<polyline class="st0" points="205.8,135.2 205.8,133.5 207.9,132.5 207.9,133.9 			"/>
			<polyline class="st0" points="207.3,136.1 207.3,134.4 209.4,133.4 209.4,134.7 			"/>
			<polyline class="st0" points="208.9,136.9 208.9,135.2 211,134.2 211,135.6 			"/>
			<polyline class="st0" points="210.4,137.8 210.4,136.1 212.5,135.1 212.5,136.5 			"/>
			<polyline class="st0" points="211.9,140.6 211.9,136.9 214,135.9 214.1,139.4 			"/>
		</g>
		<g>
			<polyline class="st0" points="207.2,132.9 207.2,131.2 209.3,130.2 209.3,131.6 			"/>
			<polyline class="st0" points="208.7,133.7 208.7,132 210.8,131 210.8,132.4 			"/>
			<polyline class="st0" points="210.2,134.6 210.2,132.9 212.3,131.9 212.3,133.2 			"/>
			<polyline class="st0" points="211.8,135.4 211.8,133.7 213.9,132.7 213.9,134.1 			"/>
			<polyline class="st0" points="213.3,136.3 213.3,134.6 215.4,133.6 215.4,135 			"/>
			<polyline class="st0" points="214.9,139.1 214.9,135.4 217,134.4 217,137.9 			"/>
		</g>
		<g>
			<polyline class="st0" points="210,131.4 210,129.7 212.1,128.7 212.1,130.1 			"/>
			<polyline class="st0" points="211.6,132.2 211.6,130.6 213.7,129.5 213.7,130.9 			"/>
			<polyline class="st0" points="213.1,133.1 213.1,131.4 215.2,130.4 215.2,131.8 			"/>
			<polyline class="st0" points="214.6,133.9 214.6,132.3 216.7,131.2 216.7,132.6 			"/>
			<polyline class="st0" points="216.2,134.8 216.2,133.1 218.3,132.1 218.3,133.5 			"/>
			<polyline class="st0" points="217.7,137.6 217.7,133.9 219.8,132.9 219.8,136.4 			"/>
		</g>
		<g>
			<polyline class="st0" points="212.7,130 212.7,128.4 214.8,127.3 214.8,128.7 			"/>
			<polyline class="st0" points="214.3,130.9 214.3,129.2 216.4,128.2 216.4,129.6 			"/>
			<polyline class="st0" points="215.8,131.7 215.8,130.1 217.9,129 217.9,130.4 			"/>
			<polyline class="st0" points="217.3,132.6 217.3,130.9 219.4,129.9 219.5,131.3 			"/>
			<polyline class="st0" points="218.9,133.4 218.9,131.7 221,130.7 221,132.2 			"/>
			<polyline class="st0" points="220.4,136.2 220.4,132.6 222.5,131.6 222.5,135 			"/>
		</g>
		<g>
			<polyline class="st0" points="215.5,128.6 215.5,127 217.6,126 217.6,127.3 			"/>
			<polyline class="st0" points="217,129.5 217,127.8 219.2,126.8 219.2,128.2 			"/>
			<polyline class="st0" points="218.6,130.3 218.6,128.7 220.7,127.7 220.7,129 			"/>
			<polyline class="st0" points="220.1,131.2 220.1,129.5 222.2,128.5 222.2,129.9 			"/>
			<polyline class="st0" points="221.7,132 221.7,130.4 223.8,129.3 223.8,130.8 			"/>
			<polyline class="st0" points="223.2,134.9 223.2,131.2 225.3,130.2 225.3,133.6 			"/>
		</g>
		<g>
			<polyline class="st0" points="218.3,127.2 218.3,125.6 220.4,124.6 220.4,125.9 			"/>
			<polyline class="st0" points="219.8,128.1 219.8,126.4 221.9,125.4 221.9,126.8 			"/>
			<polyline class="st0" points="221.4,128.9 221.4,127.3 223.5,126.3 223.5,127.6 			"/>
			<polyline class="st0" points="222.9,129.8 222.9,128.1 225,127.1 225,128.5 			"/>
			<polyline class="st0" points="224.4,130.7 224.4,129 226.6,128 226.6,129.4 			"/>
			<polyline class="st0" points="226,133.5 226,129.8 228.1,128.8 228.1,132.2 			"/>
		</g>
		<g>
			<polyline class="st0" points="221.1,125.9 221.1,124.2 223.2,123.2 223.2,124.5 			"/>
			<polyline class="st0" points="222.6,126.7 222.6,125 224.7,124 224.7,125.4 			"/>
			<polyline class="st0" points="224.1,127.6 224.1,125.9 226.3,124.9 226.3,126.2 			"/>
			<polyline class="st0" points="225.7,128.4 225.7,126.7 227.8,125.7 227.8,127.1 			"/>
			<polyline class="st0" points="227.2,129.3 227.2,127.6 229.3,126.6 229.3,128 			"/>
			<polyline class="st0" points="228.8,132.1 228.8,128.4 230.9,127.4 230.9,130.8 			"/>
		</g>
		<g>
			<polyline class="st0" points="223.9,124.5 223.9,122.8 226,121.8 226,123.1 			"/>
			<polyline class="st0" points="225.4,125.3 225.4,123.6 227.5,122.6 227.5,124 			"/>
			<polyline class="st0" points="226.9,126.2 226.9,124.5 229,123.5 229,124.8 			"/>
			<polyline class="st0" points="228.5,127 228.5,125.3 230.6,124.3 230.6,125.7 			"/>
			<polyline class="st0" points="230,127.9 230,126.2 232.1,125.2 232.1,126.6 			"/>
			<polyline class="st0" points="231.5,130.7 231.5,127 233.7,126 233.7,129.5 			"/>
		</g>
		<g>
			<polyline class="st0" points="240.7,116 240.7,114.3 242.8,113.3 242.8,114.7 			"/>
			<polyline class="st0" points="242.2,116.9 242.2,115.2 244.3,114.2 244.3,115.5 			"/>
			<polyline class="st0" points="243.7,117.7 243.7,116 245.9,115 245.9,116.4 			"/>
			<polyline class="st0" points="245.3,118.6 245.3,116.9 247.4,115.9 247.4,117.3 			"/>
			<polyline class="st0" points="246.8,118.8 246.8,117.7 248.9,116.7 248.9,117.8 			"/>
		</g>
		<g>
			<polyline class="st0" points="230.9,122.4 230.9,120.9 233,119.9 233,121.3 			"/>
			<polyline class="st0" points="232.5,123.3 232.5,121.8 234.6,120.8 234.6,122.2 			"/>
			<polyline class="st0" points="234,124.1 234,122.6 236.1,121.6 236.1,123.1 			"/>
			<polyline class="st0" points="235.5,125 235.5,123.5 237.6,122.5 237.7,123.6 			"/>
		</g>
		<g>
			<polyline class="st0" points="233.8,121 233.8,119.5 235.9,118.5 235.9,119.9 			"/>
			<polyline class="st0" points="235.3,121.9 235.3,120.4 237.4,119.3 237.4,120.7 			"/>
			<polyline class="st0" points="236.8,122.7 236.8,121.2 238.9,120.2 239,121.6 			"/>
			<polyline class="st0" points="238.4,123.3 238.4,122 240.5,121 240.5,122.2 			"/>
		</g>
		<g>
			<polyline class="st0" points="236.6,119.5 236.6,118.1 238.7,117.1 238.7,118.4 			"/>
			<polyline class="st0" points="238.1,120.4 238.1,118.9 240.2,117.9 240.3,119.3 			"/>
			<polyline class="st0" points="239.7,121.2 239.7,119.8 241.8,118.7 241.8,120.2 			"/>
			<polyline class="st0" points="241.2,121.8 241.2,120.6 243.3,119.6 243.3,120.8 			"/>
		</g>
		<g>
			<polyline class="st0" points="239.4,118.1 239.4,116.6 241.5,115.6 241.6,117 			"/>
			<polyline class="st0" points="241,119 241,117.5 243.1,116.5 243.1,117.9 			"/>
			<polyline class="st0" points="242.5,119.8 242.5,118.3 244.6,117.3 244.6,118.8 			"/>
			<polyline class="st0" points="244.1,120.4 244.1,119.2 246.2,118.2 246.2,119.3 			"/>
		</g>
		<g>
			<polyline class="st0" points="226.6,123.1 226.6,121.4 228.7,120.4 228.7,121.8 			"/>
			<polyline class="st0" points="228.2,123.9 228.2,122.3 230.3,121.2 230.3,122.6 			"/>
			<polyline class="st0" points="229.7,124.8 229.7,123.1 231.8,122.1 231.8,123.5 			"/>
			<polyline class="st0" points="231.3,125.6 231.3,123.9 233.4,122.9 233.4,124.3 			"/>
			<polyline class="st0" points="232.8,126.5 232.8,124.8 234.9,123.8 234.9,125.2 			"/>
			<polyline class="st0" points="234.3,128.1 234.3,125.6 236.4,124.6 			"/>
		</g>
		<polyline class="st0" points="199.8,146.6 196.1,144.8 198.1,143.8 198.7,144.1 201.9,142.4 		"/>
		<line class="st0" x1="202.3" y1="145.4" x2="199.3" y2="143.8"/>
		<polyline class="st0" points="200.3,143.2 200.3,141 205.8,143.7 		"/>
		
			<ellipse transform="matrix(0.2857 -0.9583 0.9583 0.2857 15.7717 335.8112)" class="st0" cx="233.2" cy="157.3" rx="1.9" ry="1.4"/>
		
			<ellipse transform="matrix(0.2857 -0.9583 0.9583 0.2857 41.8257 348.6856)" class="st0" cx="254.8" cy="146.3" rx="1.9" ry="1.4"/>
		<path class="st4" d="M272.3,116.2c0.2-0.8,0.8-1.5,1.7-1.7c1.2-0.2,2.3,0.5,2.6,1.6c0.2,0.8-0.1,1.5-0.7,2"/>
		<path class="st4" d="M270.8,115.2c0.2-0.8,0.8-1.5,1.7-1.7c0.8-0.2,1.7,0.1,2.1,0.7"/>
		<path class="st4" d="M269,114.2c0.2-0.8,0.8-1.5,1.7-1.7c0.8-0.2,1.7,0.1,2.1,0.7"/>
		<path class="st4" d="M267.2,113.3c0.2-0.8,0.8-1.5,1.7-1.7c0.8-0.2,1.7,0.1,2.1,0.7"/>
		<line class="st4" x1="258.9" y1="112.9" x2="258.9" y2="115.6"/>
		<line class="st4" x1="260.2" y1="112.7" x2="260.2" y2="114.9"/>
		<path class="st5" d="M170.4,99.6c-2.2-0.8-3-4.2-1.7-7.5c1.2-3.3,4-5.3,6.2-4.5c2.2,0.8,3,4.2,1.7,7.5c-0.2,0.5-0.4,1-0.7,1.4"/>
		<path class="st5" d="M168.3,90.2c1.3-2.3,3.5-3.7,5.3-3.2l1.4,0.6"/>
		<path class="st5" d="M169.4,99.1"/>
		<path class="st6" d="M173.4,86.9l0.9-0.5c0,0,3.4,0.7,3.7,4.8v4.7"/>
		<path class="st6" d="M164.5,97.8c0,0-0.3-6.4,1.9-7.4l1.3,0.6c0,0,0.4,0.7,0,1.7c-0.4,1-0.5,5.6-0.4,6.4"/>
		<path class="st6" d="M166.5,90.4l0.6-0.3l1.3,0.6c0,0,0.3,0.5,0.2,1.2c-0.1,0.7-1.5,6,0.7,7.3"/>
		<polyline class="st6" points="175.8,97.4 175.7,96.1 175.1,95.9 170.4,98.2 171.1,98.4 171.2,99.4 		"/>
		<g>
			<line class="st7" x1="172.9" y1="91.5" x2="173" y2="94.2"/>
			<line class="st7" x1="171.8" y1="93.4" x2="174.2" y2="92.4"/>
		</g>
		
			<ellipse transform="matrix(0.9011 -0.4336 0.4336 0.9011 -23.0677 101.8837)" class="st7" cx="211.8" cy="101.5" rx="1.4" ry="1.9"/>
		<text transform="matrix(0.7325 -0.3565 6.281000e-02 0.998 237.865 147.6835)" class="st8 st9 st10">PUSH</text>
	</g>
	<g>
		<path class="st11" d="M48,170.2l3.2-1.6l2.5,1.3l0.6,0.1l36.4,17.6l0.5,1.1l3.7-1.8l0.4,1.2l-1.1,0.5c0,0-1.6,0.9-1.1,2.5
			c0,0,0.8,1,1.8-0.3l0.4,0.3l0.2,0.9l-6.5,3.6h-0.5l-0.1,7.9c0,0,0,1.3-1.6,0.6s-38.3-19.1-38.3-19.1s-0.7-0.6-0.6-2.1
			c0.1-1.5-0.1-12.1-0.1-12.1L48,170.2z"/>
		<g>
			<path class="st12" d="M48.1,172.7c0-1.7,1.1-1.1,1.1-1.1l2.6,1.2c-0.1-0.9,0.5-0.7,0.5-0.7s32.6,16.3,34.3,17.1
				c1.7,0.8,1.3,1.8,1.3,1.8s0,10.7,0,12.2c0,1.4-1.6,0.6-1.6,0.6s-36.6-18.2-37.4-18.7c-0.8-0.4-0.8-1.3-0.8-1.3v-13.1
				c0,0-0.1-0.6,0.7-1c0.8-0.4,2.1-1,2.1-1s0.5-0.3,1,0c0.5,0.2,2.1,1.2,2.1,1.2"/>
			<line class="st12" x1="48.4" y1="170.1" x2="51.6" y2="171.6"/>
			<path class="st12" d="M51.7,172.2c0,0-0.1-0.8,0.6-1.2c0,0,0.1,0,0.1-0.1c0.8-0.4,2.1-0.9,2.1-0.9l36.2,17.7c0,0,0.3,0.2,0.4,0.8
				"/>
			<line class="st12" x1="52.2" y1="171.2" x2="88.1" y2="189.2"/>
			<path class="st12" d="M86.5,204l1.2,0.6c0,0,0.7,0,0.7-1.1c0-1.1,0-7.8,0-7.8"/>
			<path class="st12" d="M87.7,190.1c0,0,0.1-0.9,0.7-1.2c0.6-0.3,2.3-1.1,2.3-1.1"/>
			<path class="st12" d="M87.9,189.5c0.4,0.4,1.1,0.2,1.1,0.2l5.8-2.9l0.5,0.1v0.9c0,0,0.3,0.3-0.5,0.6c0,0-1.8,0.1-1.8,2.6
				c0,0,0.5,1.6,1.9,0l0.5,0.1l0.1,0.8c0,0,0.1,0.4-0.6,0.8c-0.7,0.4-5.9,3-5.9,3s-0.8,0-1.1-0.2"/>
			<line class="st12" x1="88.9" y1="195.3" x2="88.8" y2="189.8"/>
			<ellipse transform="matrix(0.5 -0.866 0.866 0.5 -120.049 174.0725)" class="st13" cx="90.7" cy="191" rx="1.5" ry="0.9"/>
			<ellipse class="st14" cx="54.8" cy="171.3" rx="0.9" ry="0.4"/>
			<ellipse class="st14" cx="88" cy="187.7" rx="0.9" ry="0.4"/>
			<polygon class="st15" points="74.6,197.2 67.7,193.7 67.7,187.7 74.6,191.2 			"/>
			<polygon class="st15" points="57.2,186.5 50.3,183 50.3,178.5 57.2,182 			"/>
			<polygon class="st15" points="65.3,190.8 59.8,188.1 59.8,183.8 65.3,186.6 			"/>
			<path class="st15" d="M76.1,192.9c0-0.9,0.4-0.7,0.4-0.7l6,3c0,0,0.7,0.3,0.7,1.1c0,0.8,0,4.4,0,4.4s0.2,0.9-0.7,0.5
				c-1-0.5-6-3-6-3c-0.1,0-0.2-0.1-0.2-0.2c-0.1-0.1-0.1-0.2-0.1-0.3L76.1,192.9z"/>
			<path class="st12" d="M62.3,178.4l20.5,10.2c0,0,0.7,0.4,0.7,1s0,3.4,0,3.4s0.1,0.9-0.6,0.6s-20.4-10.2-20.4-10.2
				s-0.7-0.5-0.8-1.3c-0.1-1.2,0-3.3,0-3.3S61.8,178.2,62.3,178.4z"/>
		</g>
	</g>
	<g>
		<line class="st16" x1="61.6" y1="170.4" x2="110.4" y2="162.2"/>
		<line class="st17" x1="61.6" y1="170.4" x2="110.4" y2="162.2"/>
	</g>
	<line class="st16" x1="91.7" y1="197.5" x2="147.3" y2="186.5"/>
	<line class="st17" x1="91.7" y1="197.5" x2="147.3" y2="186.5"/>
</g>
<g>
	<g>
		<path class="st11" d="M113.7,49.3l18.6-9.2l0.1-3.7l1.4-0.5l-0.4-1.5l-1-1l0.3-1.2c0,0,1.4-1,2.3-1c0.9,0,2.6,0.1,2.6,1
			c0,0.9,0.2,1.6,0.2,1.6l-1,0.7v1.6c0,0,1.4,0.5,1.2,1.2l-0.1,1.9l1.4,1.1h4.1l-1.9-1.3v-1l2.8-1.4c0,0-1.5-2.3-0.3-2.6
			s2.7-0.6,3.1,0l0.9,1.4l0.3-4.6l1.8-0.7l0.2,2.1l1.2-0.5l0.1-2.3l1.8-1.2v1.4l1.6-0.4l-0.3-1.6l2.2-0.9v1.9l0.6-0.1l0.1-2.1
			l2.1-1.4l0.3,2l1.3-0.5l-0.2-2l2-1.2l0.1,1.1l15.6-7.9l23.8,12l0.1,1.2l-18.1,9.6l12.1,6c0,0,0.6-1.4,2-1.3l-0.6-1.3
			c0,0-2.2-2.4,0.5-3.3c0,0,2.4-0.2,2.7,0.5c0.3,0.6,1.6,0.6,0.5,2.3l-0.8,0.7l0.3,1.2c0,0,1,0.1,1,0.9v3.3l3.2,1.4l0.3,1.5
			l-6.9,3.4l-8.6-4.2l-8.6,4.5l-0.4,3.6l-3.1,1.8l2.6,1.8v1.3l-19.4,10.1l-4.1-2l-2.2,0.7l-26.5-13.2l-0.4-1.1l-14.6-7.4L113.7,49.3
			z"/>
		<g>
			<polyline class="st0" points="202.2,48.5 205.3,50.1 198.4,53.6 190.3,49.6 181.3,54.1 181.1,57.6 178,59.2 			"/>
			<polyline class="st0" points="199.3,27 202.4,28.6 182.7,38.7 196.5,45.7 			"/>
			<polyline class="st0" points="163.1,24.5 179,16.8 193.5,24.1 			"/>
			<polyline class="st0" points="128,56.9 113.7,49.6 132.4,40.1 			"/>
			<polyline class="st0" points="205.3,50.1 205.3,51.5 198.4,55 190.3,51 181.3,55.5 181.1,59 178,60.6 			"/>
			<polyline class="st0" points="202.5,28.7 202.4,30 184,39.4 			"/>
			<polyline class="st0" points="157.4,72 161.1,73.8 180.8,63.8 180.7,62.5 			"/>
			<polyline class="st0" points="128,58.3 113.7,51 113.7,49.6 			"/>
			<line class="st0" x1="161.1" y1="72.4" x2="161.1" y2="73.8"/>
			<line class="st0" x1="190.3" y1="49.6" x2="190.3" y2="51"/>
			<line class="st0" x1="198.4" y1="53.6" x2="198.4" y2="55"/>
			<polyline class="st0" points="137.7,39.4 139.3,40.3 143.1,40.3 			"/>
			<polyline class="st0" points="143.7,36.8 141.3,38.1 141.3,39.2 149.4,43.2 			"/>
			<path class="st0" d="M128.1,54.2l0.2,5.1l26.7,13.4c0,0,1.7,0.1,3.3-1.6l2.9,1.3l19.6-10l-2.9-1.4l-0.1-5l-26.8-13.4l-17.7,9
				l-0.6-0.1l-1.5,0.7l-1.1,0.2l-2.1,1.5l27,13.4l22.3-11"/>
			<line class="st0" x1="177.9" y1="61.1" x2="158.2" y2="71.1"/>
			<line class="st0" x1="157.8" y1="66" x2="157.9" y2="71.2"/>
			<line class="st0" x1="155" y1="67.2" x2="154.9" y2="72.6"/>
			<polyline class="st0" points="148.2,63.8 148.2,69.2 153.5,66.5 			"/>
			<polyline class="st0" points="141.6,60.7 141.6,65.7 146.7,63.2 			"/>
			<polyline class="st0" points="134.9,57.3 134.9,62.3 139.9,59.8 			"/>
			<line class="st0" x1="128.3" y1="59.2" x2="133.4" y2="56.6"/>
			<g>
				<ellipse class="st18" cx="135" cy="32.6" rx="2.6" ry="1.3"/>
				<path class="st2" d="M136.8,36.4c0.1,0.1,0.2,0.2,0.2,0.4c0,0.5-0.9,0.9-1.9,0.9s-1.9-0.4-1.9-0.9c0-0.1,0.1-0.3,0.2-0.4"/>
				<path class="st19" d="M136.7,34.9c-0.1,0.4-0.8,0.7-1.8,0.6c-0.9-0.1-1.6-0.6-1.5-1"/>
				<path class="st19" d="M136.5,35.3c0.2,0.2,0.2,0.3,0.2,0.5c-0.1,0.4-0.8,0.7-1.8,0.6c-0.9-0.1-1.6-0.6-1.5-1
					c0-0.1,0.1-0.2,0.2-0.3"/>
				<path class="st18" d="M136.6,35.9c0.6,0.2,1,0.6,1,1c0,0.7-1.2,1.3-2.6,1.3c-1.4,0-2.6-0.6-2.6-1.3c0-0.5,0.5-0.9,1.2-1.1"/>
				<path class="st18" d="M132.4,32.6v0.9c0,0.7,1.2,1.3,2.6,1.3c1.4,0,2.6-0.6,2.6-1.3v-0.9"/>
				<path class="st18" d="M132.4,36.8v4.7c0,0.7,1.2,1.3,2.6,1.3c1.4,0,2.6-0.6,2.6-1.3v-4.7"/>
				<path class="st19" d="M136.5,36.2c0.2,0.2,0.2,0.3,0.2,0.5c-0.1,0.4-0.8,0.7-1.8,0.6s-1.6-0.6-1.5-1c0-0.1,0.1-0.3,0.3-0.4"/>
				<line class="st2" x1="133.7" y1="33" x2="136" y2="31.9"/>
				<line class="st2" x1="135.8" y1="32.8" x2="134.2" y2="32"/>
			</g>
			<g>
				<ellipse class="st18" cx="196.5" cy="19.6" rx="2.6" ry="1.3"/>
				<path class="st2" d="M198.2,23.5c0.1,0.1,0.2,0.2,0.2,0.4c0,0.5-0.9,0.9-1.9,0.9c-1.1,0-1.9-0.4-1.9-0.9c0-0.1,0.1-0.3,0.2-0.4"
					/>
				<path class="st19" d="M198.1,21.9c-0.1,0.4-0.8,0.7-1.8,0.6s-1.6-0.6-1.5-1"/>
				<path class="st19" d="M197.9,22.3c0.2,0.2,0.2,0.3,0.2,0.5c-0.1,0.4-0.8,0.7-1.8,0.6c-0.9-0.1-1.6-0.6-1.5-1
					c0-0.1,0.1-0.2,0.2-0.3"/>
				<path class="st18" d="M198.1,23c0.6,0.2,1,0.6,1,1c0,0.7-1.2,1.3-2.6,1.3c-1.4,0-2.6-0.6-2.6-1.3c0-0.5,0.5-0.9,1.2-1.1"/>
				<path class="st18" d="M193.8,19.6v0.9c0,0.7,1.2,1.3,2.6,1.3c1.4,0,2.6-0.6,2.6-1.3v-0.9"/>
				<path class="st18" d="M193.8,23.9v4.7c0,0.7,1.2,1.3,2.6,1.3c1.4,0,2.6-0.6,2.6-1.3v-4.7"/>
				<path class="st19" d="M197.9,23.2c0.2,0.2,0.2,0.3,0.2,0.5c-0.1,0.4-0.8,0.7-1.8,0.6c-0.9-0.1-1.6-0.6-1.5-1
					c0-0.1,0.1-0.3,0.3-0.4"/>
				<line class="st2" x1="195.2" y1="20.1" x2="197.4" y2="18.9"/>
				<line class="st2" x1="197.2" y1="19.8" x2="195.6" y2="19.1"/>
			</g>
			<g>
				<ellipse class="st18" cx="199.4" cy="40.8" rx="2.6" ry="1.3"/>
				<path class="st2" d="M201.2,44.7c0.1,0.1,0.2,0.2,0.2,0.4c0,0.5-0.9,0.9-1.9,0.9c-1.1,0-1.9-0.4-1.9-0.9c0-0.1,0.1-0.3,0.2-0.4"
					/>
				<path class="st19" d="M201,43.1c-0.1,0.4-0.8,0.7-1.8,0.6s-1.6-0.6-1.5-1"/>
				<path class="st19" d="M200.8,43.6c0.2,0.2,0.2,0.3,0.2,0.5c-0.1,0.4-0.8,0.7-1.8,0.6c-0.9-0.1-1.6-0.6-1.5-1
					c0-0.1,0.1-0.2,0.2-0.3"/>
				<path class="st18" d="M201,44.2c0.6,0.2,1,0.6,1,1c0,0.7-1.2,1.3-2.6,1.3c-1.4,0-2.6-0.6-2.6-1.3c0-0.5,0.5-0.9,1.2-1.1"/>
				<path class="st18" d="M196.8,40.8v0.9c0,0.7,1.2,1.3,2.6,1.3c1.4,0,2.6-0.6,2.6-1.3v-0.9"/>
				<path class="st18" d="M196.8,45.1v4.7c0,0.7,1.2,1.3,2.6,1.3c1.4,0,2.6-0.6,2.6-1.3v-4.7"/>
				<path class="st19" d="M200.8,44.5c0.2,0.2,0.2,0.3,0.2,0.5c-0.1,0.4-0.8,0.7-1.8,0.6c-0.9-0.1-1.6-0.6-1.5-1
					c0-0.1,0.1-0.3,0.3-0.4"/>
				<line class="st2" x1="198.1" y1="41.3" x2="200.4" y2="40.2"/>
				<line class="st2" x1="200.2" y1="41" x2="198.6" y2="40.3"/>
			</g>
			<g>
				<polyline class="st20" points="163,46.8 163,42.9 160.8,44 160.8,47.4 				"/>
				<polyline class="st20" points="166.3,45.2 166.3,41.3 164,42.4 164,45.9 164.5,46.2 163.3,46.8 				"/>
				<polyline class="st20" points="169.4,43.6 169.4,39.7 167.2,40.8 167.2,44.3 167.7,44.6 166.5,45.2 				"/>
				<polyline class="st20" points="172.6,42 172.6,38.1 170.4,39.2 170.4,42.7 170.9,43 169.7,43.6 				"/>
				<polyline class="st20" points="172.9,42.1 174.1,41.5 173.6,41.2 173.6,37.7 175.8,36.6 175.8,40.5 181.9,37.5 180,36.5 				"/>
			</g>
			<g>
				<polyline class="st20" points="160.9,43.9 160.9,41.9 158.6,42.9 158.6,46.2 				"/>
				<polyline class="st20" points="164.1,42.3 164.1,40.3 161.9,41.3 161.9,43.4 				"/>
				<polyline class="st20" points="167.3,40.7 167.3,38.7 165,39.7 165,41.9 				"/>
				<polyline class="st20" points="170.5,39.1 170.5,37.1 168.2,38.1 168.2,40.2 				"/>
				<polyline class="st20" points="173.7,37.5 173.7,35.5 171.4,36.6 171.4,38.6 				"/>
			</g>
			<g>
				<polyline class="st20" points="158.7,42.7 158.7,40.7 156.4,41.8 156.4,45.1 				"/>
				<polyline class="st20" points="161.9,41.1 161.9,39.1 159.6,40.2 159.6,42.2 				"/>
				<polyline class="st20" points="165.1,39.5 165.1,37.5 162.8,38.6 162.8,40.7 				"/>
				<polyline class="st20" points="168.3,38 168.2,35.9 166,37 166,39 				"/>
				<polyline class="st20" points="171.5,36.4 171.4,34.4 169.2,35.5 169.2,37.5 				"/>
				<polyline class="st20" points="174.5,37 174.5,32.9 172.2,34 172.2,35.9 				"/>
				<polyline class="st20" points="177.7,33.3 177.7,31.3 175.4,32.4 175.4,36.7 				"/>
			</g>
			<g>
				<polyline class="st20" points="156.6,41.6 156.6,39.6 154.4,40.7 154.4,44 				"/>
				<polyline class="st20" points="159.9,40 159.8,38 157.6,39.1 157.6,41.1 				"/>
				<polyline class="st20" points="163,38.4 163,36.4 160.7,37.5 160.7,39.6 				"/>
				<polyline class="st20" points="166.2,36.9 166.2,34.8 163.9,35.9 163.9,37.9 				"/>
				<polyline class="st20" points="169.4,35.3 169.4,33.3 167.1,34.4 167.1,36.3 				"/>
				<polyline class="st20" points="172.4,35.9 172.4,31.8 170.2,32.8 170.2,34.8 				"/>
				<polyline class="st20" points="175.6,32.2 175.6,30.2 173.3,31.3 173.3,33.4 				"/>
			</g>
			<g>
				<polyline class="st20" points="154.5,40.4 154.5,38.4 152.3,39.5 152.3,43 				"/>
				<polyline class="st20" points="157.8,38.8 157.8,36.8 155.5,37.9 155.5,39.9 				"/>
				<polyline class="st20" points="160.9,37.2 160.9,35.2 158.7,36.3 158.7,38.4 				"/>
				<polyline class="st20" points="164.1,35.7 164.1,33.6 161.9,34.7 161.9,36.7 				"/>
				<polyline class="st20" points="167.3,34.1 167.3,32.1 165.1,33.2 165.1,35.2 				"/>
				<polyline class="st20" points="170.4,34.7 170.4,30.6 168.1,31.7 168.1,33.6 				"/>
				<polyline class="st20" points="173.5,31 173.5,29 171.3,30.1 171.3,32.3 				"/>
			</g>
			<g>
				<polyline class="st20" points="152.4,39.3 152.3,37.3 150.1,38.4 150.1,42.3 148.6,41.6 				"/>
				<polyline class="st20" points="155.6,37.7 155.6,35.7 153.3,36.8 153.3,38.8 				"/>
				<polyline class="st20" points="158.8,36.1 158.7,34.1 156.5,35.2 156.5,37.3 				"/>
				<polyline class="st20" points="161.9,34.6 161.9,32.5 159.7,33.6 159.7,35.6 				"/>
				<polyline class="st20" points="165.1,33 165.1,31 162.9,32.1 162.9,34 				"/>
				<polyline class="st20" points="168.2,33.6 168.2,29.4 165.9,30.5 165.9,32.5 				"/>
				<polyline class="st20" points="171.4,29.9 171.3,27.9 169.1,29 169.1,31.1 				"/>
			</g>
			<g>
				<polyline class="st20" points="150.1,38.4 150.1,36.4 147.9,37.5 147.8,41.1 146.4,40.4 				"/>
				<polyline class="st20" points="153.4,36.8 153.4,34.8 151.1,35.9 151.1,37.9 				"/>
				<polyline class="st20" points="156.5,35.2 156.5,33.2 154.3,34.3 154.3,36.4 				"/>
				<polyline class="st20" points="159.7,33.6 159.7,31.6 157.5,32.7 157.5,34.7 				"/>
				<polyline class="st20" points="162.9,32 162.9,30.1 160.7,31.1 160.7,33.1 				"/>
				<polyline class="st20" points="166,32.7 166,28.5 163.7,29.6 163.7,31.6 				"/>
				<polyline class="st20" points="169.1,29 169.1,27 166.9,28.1 166.9,29.9 				"/>
			</g>
			<g>
				<polyline class="st20" points="148.1,37.3 148.1,35.2 145.8,36.3 145.7,40.1 141.6,38.1 				"/>
				<polyline class="st20" points="151.3,35.7 151.3,33.6 149,34.7 149,36.8 				"/>
				<polyline class="st20" points="154.5,34 154.5,32 152.2,33.1 152.2,35.2 				"/>
				<polyline class="st20" points="157.7,32.5 157.7,30.5 155.4,31.5 155.4,33.6 				"/>
				<polyline class="st20" points="160.9,30.9 160.9,28.9 158.6,30 158.6,32 				"/>
				<polyline class="st20" points="163.9,31.6 163.9,27.4 161.6,28.5 161.6,30.5 				"/>
				<polyline class="st20" points="167.1,27.8 167.1,25.9 164.8,26.9 164.8,29 				"/>
			</g>
			<g>
				<polyline class="st20" points="152.3,33 152.3,31 150,32.1 150,34.2 				"/>
				<polyline class="st20" points="155.5,31.5 155.5,29.4 153.2,30.5 153.2,32.5 				"/>
				<polyline class="st20" points="158.7,29.9 158.7,27.9 156.4,29 156.4,31 				"/>
				<polyline class="st20" points="161.7,30.5 161.7,26.4 159.5,27.5 159.5,29.4 				"/>
				<polyline class="st20" points="164.9,26.8 164.9,24.8 162.6,25.9 162.6,28 				"/>
			</g>
			<g>
				<polyline class="st20" points="150.2,31.8 150.2,29.8 147.9,30.9 147.9,34.9 				"/>
				<polyline class="st20" points="153.4,30.3 153.4,28.2 151.1,29.3 151.1,31.3 				"/>
				<polyline class="st20" points="156.6,28.7 156.6,26.7 154.3,27.8 154.3,29.8 				"/>
				<polyline class="st20" points="159.6,29.3 159.6,25.2 157.4,26.3 157.4,28.2 				"/>
				<polyline class="st20" points="162.8,25.6 162.8,23.6 160.5,24.7 160.5,26.8 				"/>
			</g>
			<polyline class="st20" points="162.6,48.5 182,38.7 182.1,37.6 			"/>
			<g>
				<ellipse class="st21" cx="178.5" cy="34.6" rx="2.2" ry="1.1"/>
				<path class="st22" d="M179.9,37.8c0.1,0.1,0.1,0.2,0.1,0.3c0,0.4-0.7,0.8-1.6,0.8c-0.9,0-1.6-0.3-1.6-0.8c0-0.1,0-0.2,0.1-0.3"
					/>
				<path class="st23" d="M179.8,36.5c-0.1,0.4-0.7,0.6-1.4,0.5c-0.7-0.1-1.3-0.5-1.2-0.9"/>
				<path class="st23" d="M179.6,36.8c0.1,0.1,0.2,0.3,0.2,0.4c-0.1,0.4-0.7,0.6-1.4,0.5c-0.7-0.1-1.3-0.5-1.2-0.9
					c0-0.1,0.1-0.2,0.1-0.2"/>
				<path class="st21" d="M176.3,34.6v0.8c0,0.6,1,1.1,2.2,1.1c1.2,0,2.2-0.5,2.2-1.1v-0.8"/>
				<path class="st23" d="M179.6,37.6c0.1,0.1,0.2,0.3,0.2,0.4c-0.1,0.4-0.7,0.6-1.4,0.5c-0.7-0.1-1.3-0.5-1.2-0.9
					c0-0.1,0.1-0.2,0.2-0.3"/>
				<line class="st22" x1="177.4" y1="35" x2="179.3" y2="34"/>
				<line class="st22" x1="179.1" y1="34.8" x2="177.8" y2="34.1"/>
			</g>
			<g>
				<ellipse class="st24" cx="145.3" cy="34.8" rx="2" ry="1"/>
				<path class="st25" d="M145.8,38.8c-0.1,0-0.3,0-0.5,0c-0.8,0-1.5-0.3-1.5-0.7c0-0.1,0-0.2,0.1-0.3"/>
				<path class="st26" d="M145.8,37c-0.2,0-0.4,0-0.6,0c-0.7-0.1-1.2-0.5-1.2-0.8"/>
				<path class="st26" d="M145.7,37.7c-0.2,0-0.3,0-0.5,0c-0.7-0.1-1.2-0.5-1.2-0.8c0-0.1,0.1-0.2,0.1-0.2"/>
				<path class="st24" d="M143.3,34.8v0.7c0,0.5,0.9,1,2,1"/>
				<path class="st26" d="M145.7,38.4c-0.2,0-0.3,0-0.5,0c-0.7-0.1-1.2-0.5-1.2-0.8c0-0.1,0.1-0.2,0.2-0.3"/>
				<line class="st25" x1="144.3" y1="35.2" x2="146.1" y2="34.3"/>
				<line class="st25" x1="145.9" y1="35" x2="144.7" y2="34.4"/>
			</g>
		</g>
	</g>
	<line class="st16" x1="112.7" y1="54.4" x2="112.7" y2="150.7"/>
	<line class="st16" x1="205.6" y1="54" x2="205.6" y2="157.9"/>
	<line class="st17" x1="112.7" y1="54.4" x2="112.7" y2="150.8"/>
	<line class="st17" x1="205.6" y1="54" x2="205.6" y2="157.9"/>
</g>
<line class="st16" x1="316.7" y1="152.5" x2="248.7" y2="132.7"/>
<line class="st27" x1="316.7" y1="152.5" x2="248.7" y2="132.7"/>
<line class="st28" x1="232.7" y1="27.2" x2="193.4" y2="98.5"/>
<line class="st29" x1="232.7" y1="27.2" x2="193.4" y2="98.5"/>
<g>
	<line class="st30" x1="280.2" y1="56.3" x2="245.7" y2="116.3"/>
	<line class="st31" x1="280.2" y1="56.3" x2="245.7" y2="116.3"/>
</g>
<line class="st32" x1="215.9" y1="203.5" x2="175.3" y2="169.4"/>
<line class="st33" x1="215.9" y1="203.5" x2="175.3" y2="169.4"/>
<g>
	<circle class="st34" cx="118" cy="25.3" r="11.2"/>
	<g>
		<text transform="matrix(1 0 0 1 113.1636 30.4808)" class="st11 st35 st36">2</text>
	</g>
</g>
<g>
	<circle class="st34" cx="61.4" cy="210.2" r="11.2"/>
	<g>
		<text transform="matrix(1 0 0 1 56.5964 215.7244)" class="st11 st35 st36">1</text>
	</g>
</g>
<g>
	<circle class="st34" cx="242.2" cy="14.4" r="11.2"/>
	<g>
		<text transform="matrix(1 0 0 1 237.9794 19.9898)" class="st11 st35 st36">3</text>
	</g>
</g>
<g>
	<circle class="st34" cx="292.1" cy="45.1" r="11.2"/>
	<g>
		<text transform="matrix(1 0 0 1 287.1246 50.7821)" class="st11 st35 st36">4</text>
	</g>
</g>
<g>
	<circle class="st34" cx="332.6" cy="154.6" r="11.2"/>
	<g>
		<text transform="matrix(1 0 0 1 328.1402 160.2398)" class="st11 st35 st36">5</text>
	</g>
</g>
<g>
	<circle class="st34" cx="226.9" cy="214.4" r="11.2"/>
	<g>
		<text transform="matrix(1 0 0 1 222.3735 219.9184)" class="st11 st35 st36">6</text>
	</g>
</g>
</svg>
