<?xml version="1.0" encoding="utf-8"?>
<!-- Generator: Adobe Illustrator 26.5.0, SVG Export Plug-In . SVG Version: 6.00 Build 0)  -->
<svg version="1.1" xmlns="http://www.w3.org/2000/svg" xmlns:xlink="http://www.w3.org/1999/xlink" x="0px" y="0px"
	 viewBox="0 0 347.8 239.4" style="enable-background:new 0 0 347.8 239.4;" xml:space="preserve">
<style type="text/css">
	.st0{fill:none;stroke:#000000;stroke-width:0.5;stroke-linecap:round;stroke-linejoin:round;stroke-miterlimit:10;}
	.st1{fill:none;stroke:#000000;stroke-width:0.5;stroke-linecap:round;stroke-linejoin:round;}
	.st2{fill:none;stroke:#000000;stroke-width:0.25;stroke-linecap:round;stroke-linejoin:round;stroke-miterlimit:10;}
	.st3{stroke:#000000;stroke-width:0.125;stroke-linecap:round;stroke-linejoin:round;stroke-miterlimit:10;}
	.st4{fill:none;stroke:#000000;stroke-width:0.4875;stroke-linecap:round;stroke-linejoin:round;stroke-miterlimit:10;}
	.st5{fill:none;stroke:#000000;stroke-width:0.4505;stroke-linecap:round;stroke-linejoin:round;stroke-miterlimit:10;}
	.st6{fill:none;stroke:#000000;stroke-width:0.4409;stroke-linecap:round;stroke-linejoin:round;stroke-miterlimit:10;}
	.st7{fill:none;stroke:#000000;stroke-width:0.5145;stroke-linecap:round;stroke-linejoin:round;stroke-miterlimit:10;}
	.st8{font-family:'Arial-BoldMT';}
	.st9{font-size:4.6807px;}
	.st10{fill:#FFFFFF;}
	.st11{fill:none;stroke:#000000;stroke-width:0.4737;stroke-linecap:round;stroke-linejoin:round;stroke-miterlimit:10;}
	.st12{fill:none;stroke:#000000;stroke-width:0.464;stroke-linecap:round;stroke-linejoin:round;stroke-miterlimit:10;}
	.st13{fill:none;stroke:#000000;stroke-width:0.4068;stroke-linecap:round;stroke-linejoin:round;stroke-miterlimit:10;}
	.st14{fill:none;stroke:#000000;stroke-width:0.4365;stroke-linecap:round;stroke-linejoin:round;stroke-miterlimit:10;}
	.st15{fill:#FFFFFF;stroke:#FFFFFF;stroke-width:3;stroke-linecap:round;stroke-linejoin:round;stroke-miterlimit:10;}
	.st16{fill:#FFFFFF;stroke:#000000;stroke-linecap:round;stroke-linejoin:round;stroke-miterlimit:10;stroke-dasharray:3;}
	.st17{fill:none;stroke:#000000;stroke-width:0.5012;stroke-linecap:round;stroke-linejoin:round;stroke-miterlimit:10;}
	.st18{fill:none;stroke:#000000;stroke-width:0.3156;stroke-linecap:round;stroke-linejoin:round;stroke-miterlimit:10;}
	.st19{fill:none;stroke:#000000;stroke-width:0.5359;stroke-linecap:round;stroke-linejoin:round;stroke-miterlimit:10;}
	.st20{fill:none;stroke:#000000;stroke-width:0.4112;stroke-linecap:round;stroke-linejoin:round;stroke-miterlimit:10;}
	.st21{fill:none;stroke:#000000;stroke-width:0.2051;stroke-linecap:round;stroke-linejoin:round;stroke-miterlimit:10;}
	.st22{fill:none;stroke:#000000;stroke-width:0.259;stroke-linecap:round;stroke-linejoin:round;stroke-miterlimit:10;}
	.st23{fill:none;stroke:#000000;stroke-width:0.3861;stroke-linecap:round;stroke-linejoin:round;stroke-miterlimit:10;}
	.st24{fill:none;stroke:#000000;stroke-width:0.1926;stroke-linecap:round;stroke-linejoin:round;stroke-miterlimit:10;}
	.st25{fill:none;stroke:#000000;stroke-width:0.2432;stroke-linecap:round;stroke-linejoin:round;stroke-miterlimit:10;}
	.st26{fill:#FFFFFF;stroke:#2D2A26;stroke-linecap:round;stroke-linejoin:round;stroke-miterlimit:10;}
	
		.st27{fill-rule:evenodd;clip-rule:evenodd;fill:#010101;stroke:#FFFFFF;stroke-width:4;stroke-linecap:round;stroke-linejoin:round;stroke-miterlimit:10;}
	
		.st28{fill-rule:evenodd;clip-rule:evenodd;fill:#010101;stroke:#000000;stroke-linecap:round;stroke-linejoin:round;stroke-miterlimit:10;}
	.st29{fill:none;stroke:#FFFFFF;stroke-width:4;stroke-linecap:round;stroke-linejoin:round;stroke-miterlimit:10;}
	.st30{fill:none;stroke:#000000;stroke-linecap:round;stroke-linejoin:round;stroke-miterlimit:10;}
	.st31{fill:#FFFFFF;stroke:#FFFFFF;stroke-width:4;stroke-linecap:round;stroke-linejoin:round;stroke-miterlimit:10;}
	.st32{fill-rule:evenodd;clip-rule:evenodd;fill:#010101;}
	.st33{font-family:'Helvetica';}
	.st34{font-size:16.7034px;}
</style>
<g id="Layer_4">
	<g>
		<g>
			<path class="st0" d="M62,138.3c0,0,0-0.6,0-1.6c0-1.1,1.2-1.6,1.2-1.6s7-3.7,7.4-3.8c0.3-0.2,0.6-0.2,1.1-0.1
				c0.5,0.1,0.8-0.2,0.9-0.6s1.2-0.9,1.2-0.9l111.7-55.9c0,0,0.7-0.5,1.3-0.1c0.6,0.5,2.1,1.4,2.1,1.4s0.3,0.2,0.6-0.1
				c0.2-0.2,0.6-0.7,0.4-1.2l-0.7-0.5c0,0-0.2-0.6,0-1s0.5-0.8,0.9-0.8s3.1-0.2,3.1-0.2s0.7,0.2,0.8,0.6l0,3.3c0,0,0.1,0.5-0.4,0.8
				c-0.5,0.2-44.9,22.4-44.9,22.4"/>
			<path class="st0" d="M161.2,140.6c0,0-0.1-7.2,0-8.8c0.1-1.6,1.6-2.1,1.6-2.1l24.9-12.6l-6.9-3.5l6.1-3.1c0,0-22.9-11.4-23.9-12
				c-1-0.5-2.2,0-2.2,0l-6.1,3l-7.1-3.5l-23.3,11.7c0,0-2.2,0.9-2.2,2.5l0.1,1.1"/>
			<path class="st0" d="M162.4,129.5l-6.6-3.4l-6.8,3.4c0,0-1.1,0.6-1.1,1.8s0,3.1,0,3.1"/>
			<path class="st0" d="M123.3,110.5l6.6,3.3l-5.8,3.1l0,0.5c0,0-0.8,0.7-0.8,1.9c0,1,0.1,6.9,0.1,6.9"/>
			<line class="st0" x1="124.5" y1="116.8" x2="149.3" y2="129.2"/>
			<path class="st0" d="M155.2,145.2c0,0,0,0.2,0.7-0.2c0.7-0.4,4.8-2.4,4.8-2.4s0.7-0.5,0.5,0.6l0,0.6l-1.2-0.6"/>
			<polyline class="st0" points="161.3,143.7 188.9,129.9 188.9,128.6 195.1,125.6 			"/>
			<path class="st0" d="M184.2,115.1c0.5-0.4,1.4-0.6,2.4-0.6c1.7,0,3,0.7,3,1.5c0,0.6-0.6,1.1-1.6,1.3"/>
			<path class="st0" d="M188.5,119c0.7-0.3,1.1-0.7,1.1-1.2v-1.6"/>
			<path class="st0" d="M188.4,127.4v-9.1c0,0,0.1-1-0.9-1.1"/>
			<path class="st0" d="M189,118.7c0.3,0.2,0.5,0.4,0.5,0.7c0,0.4-0.4,0.8-1.1,1"/>
			<path class="st0" d="M189,120.6c0.3,0.2,0.5,0.4,0.5,0.7c0,0.4-0.4,0.8-1.1,1"/>
			<path class="st0" d="M189,122.3c0.3,0.2,0.5,0.4,0.5,0.7c0,0.4-0.4,0.8-1.1,1"/>
			<g>
				<ellipse class="st0" cx="154" cy="130.1" rx="3" ry="1.5"/>
				<path class="st0" d="M151,130.1v1.7c0,0.8,1.4,1.5,3,1.5c1.7,0,3-0.7,3-1.5v-1.6"/>
				<path class="st0" d="M156.6,132.6c0.3,0.3,0.4,0.6,0.4,0.9c-0.1,0.8-1.6,1.3-3.2,1.1c-1.7-0.2-2.9-1.1-2.8-1.9
					c0-0.1,0.1-0.2,0.1-0.4"/>
				<path class="st0" d="M157,139.4c0,0.1,0.1,0.2,0.1,0.3c0,0.8-1.4,1.5-3,1.5c-1.7,0-3-0.7-3-1.5c0-0.2,0.1-0.4,0.3-0.6"/>
				<path class="st0" d="M156.4,138.1c0.4,0.3,0.7,0.8,0.6,1.1c-0.1,0.8-1.6,1.3-3.2,1c-1.7-0.3-2.9-1.2-2.7-2
					c0.1-0.3,0.3-0.6,0.7-0.8"/>
				<path class="st0" d="M156.4,136.2c0.4,0.3,0.6,0.7,0.5,1.1c-0.1,0.8-1.6,1.3-3.2,1s-2.9-1.2-2.7-2c0-0.3,0.2-0.5,0.5-0.7"/>
				<path class="st0" d="M156.4,134.4c0.4,0.3,0.6,0.7,0.6,1.1c-0.1,0.8-1.6,1.3-3.2,1s-2.9-1.2-2.7-2c0-0.3,0.2-0.5,0.5-0.7"/>
			</g>
			<g>
				<ellipse class="st0" cx="127" cy="151.1" rx="2" ry="1"/>
				<path class="st0" d="M125,151.1v1.1c0,0.5,0.9,1,2,1c1.1,0,2-0.4,2-1v-1"/>
				<path class="st0" d="M128.4,153c0.1,0.1,0.1,0.2,0.1,0.4c-0.1,0.4-0.8,0.6-1.6,0.5s-1.5-0.5-1.4-0.9"/>
				<path class="st0" d="M128.5,155.7c0,0.1,0,0.1,0,0.2c0,0.4-0.7,0.7-1.5,0.7c-0.8,0-1.5-0.3-1.5-0.7c0-0.1,0.1-0.2,0.1-0.3"/>
				<path class="st0" d="M128.2,154.6c0.2,0.2,0.3,0.3,0.3,0.5c-0.1,0.4-0.8,0.6-1.6,0.5c-0.8-0.1-1.4-0.6-1.4-1
					c0-0.1,0.1-0.2,0.3-0.3"/>
				<path class="st0" d="M128.2,153.8c0.2,0.2,0.3,0.4,0.3,0.5c-0.1,0.4-0.8,0.6-1.6,0.5c-0.8-0.1-1.4-0.6-1.4-1
					c0-0.1,0.1-0.2,0.3-0.3"/>
			</g>
			<g>
				<ellipse class="st0" cx="123.8" cy="114.8" rx="3" ry="1.5"/>
				<path class="st0" d="M120.7,114.8v1.7c0,0.8,1.3,1.5,2.8,1.5"/>
				<ellipse class="st0" cx="156.1" cy="98.6" rx="3" ry="1.5"/>
				<line class="st0" x1="153.1" y1="98.6" x2="153.1" y2="100.3"/>
				<path class="st0" d="M123.4,119.4c-1.6-0.3-2.8-1.1-2.7-1.9c0-0.1,0.1-0.2,0.1-0.4"/>
				<path class="st0" d="M123.4,126c-1.5-0.1-2.7-0.7-2.7-1.5c0-0.2,0.1-0.4,0.3-0.6"/>
				<path class="st0" d="M123.4,125c-1.7-0.3-2.9-1.2-2.7-2c0.1-0.3,0.3-0.6,0.7-0.8"/>
				<path class="st0" d="M123.4,123c-1.7-0.3-2.9-1.2-2.7-2c0-0.3,0.2-0.5,0.5-0.7"/>
				<path class="st0" d="M123.4,121.3c-1.7-0.3-2.9-1.2-2.7-2c0-0.3,0.2-0.5,0.5-0.7"/>
			</g>
			<polygon class="st0" points="104.1,135.9 122.7,145.4 126.8,143.4 130.6,145.3 150,135.5 131.3,126.3 127.4,128.2 123.5,126.3 
							"/>
			<line class="st0" x1="104.1" y1="135.9" x2="104.1" y2="144.5"/>
			<line class="st0" x1="150" y1="135.5" x2="150.1" y2="141.6"/>
			<line class="st0" x1="122.7" y1="145.4" x2="122.8" y2="155.4"/>
			<line class="st0" x1="130.6" y1="145.3" x2="130.8" y2="155.5"/>
			<line class="st0" x1="126.8" y1="143.4" x2="126.8" y2="150"/>
			<polyline class="st0" points="87.5,140.8 91.7,138.7 105.2,145.3 100.9,147.5 			"/>
			<line class="st0" x1="105.2" y1="149.7" x2="105.2" y2="145.3"/>
			<line class="st0" x1="155.8" y1="126.1" x2="155.8" y2="128.7"/>
			<line class="st0" x1="156.7" y1="138.4" x2="161.3" y2="140.7"/>
			<line class="st0" x1="177.6" y1="94.9" x2="189.9" y2="88.6"/>
			<line class="st0" x1="193.3" y1="76.1" x2="193.4" y2="85.3"/>
			<polyline class="st0" points="222,89.4 203.1,80 197.4,82.8 196.9,83.6 189.9,87.1 189.9,93.6 195.6,96.5 196.3,96.1 			"/>
			<polyline class="st0" points="195.5,96.2 195.5,89.9 202.7,86.3 203.9,86.1 209.5,83.3 			"/>
			<polyline class="st0" points="203.9,86.1 203.6,86.8 196.4,90.3 196.4,97 202.1,99.8 202.8,99.4 			"/>
			<polyline class="st0" points="216.2,86.5 210.3,89.5 209.3,89.6 202.1,93.2 202,99.6 			"/>
			<line class="st0" x1="196.6" y1="90.4" x2="202.1" y2="93.2"/>
			<line class="st0" x1="190" y1="87.1" x2="195.4" y2="89.8"/>
			<polyline class="st0" points="210.3,89.5 210,90 203.1,93.7 203,100.2 208.5,102.9 			"/>
			<line class="st0" x1="203.1" y1="93.7" x2="208.4" y2="96.3"/>
			<polyline class="st0" points="208.6,104.9 208.7,96.4 223.2,89.2 228.2,91.6 213.7,99 213.7,107.1 			"/>
			<line class="st0" x1="208.7" y1="96.4" x2="213.7" y2="99"/>
			<path class="st0" d="M228.2,91.6c0,0,0.8,0.3-0.8,3.6"/>
			<polyline class="st0" points="235.8,96.3 230.7,93.8 224.9,96.5 224.6,97.2 217.4,100.8 217.4,105.4 			"/>
			<polyline class="st0" points="243.4,102.4 243.3,98.4 237.6,95.6 223.5,102.7 223.4,107.6 			"/>
			<polyline class="st0" points="229,110.6 229,105.4 243.3,98.4 			"/>
			<line class="st0" x1="217.6" y1="101" x2="223.5" y2="103.8"/>
			<line class="st0" x1="223.5" y1="102.7" x2="229" y2="105.4"/>
			<line class="st0" x1="208.1" y1="104.8" x2="213.4" y2="107.5"/>
			<polygon class="st0" points="199.9,114.4 218,105.2 236,114.2 218,123.5 			"/>
			<polyline class="st0" points="199.9,114.4 200,126.1 209.2,130.8 			"/>
			<line class="st0" x1="218" y1="123.5" x2="218" y2="126.6"/>
			<line class="st0" x1="236.2" y1="114.3" x2="236.2" y2="118.9"/>
			<polyline class="st0" points="211.8,108.4 186.2,95.4 181.2,98 			"/>
			<polyline class="st0" points="206.5,110.7 178.6,96.9 169.2,101.5 			"/>
			<polyline class="st0" points="265.3,115.1 265.3,111 245.7,101.3 239.9,104.1 239.6,104.9 232.5,108.4 232.5,112.1 			"/>
			<polyline class="st0" points="236.3,116.9 238,117.6 238.1,111.1 232.5,108.4 			"/>
			<polyline class="st0" points="252.2,104.6 246.6,107.4 245.3,107.5 238.1,111.1 			"/>
			<polyline class="st0" points="246.4,107.4 246.2,108 239,111.6 239,117.6 			"/>
			<polyline class="st0" points="258.7,107.8 253,110.7 251.7,110.8 244.6,114.4 239,111.6 			"/>
			<line class="st0" x1="244.6" y1="116.5" x2="244.6" y2="114.4"/>
			<polyline class="st0" points="245.4,117.2 245.4,114.9 252.2,111.6 253,110.7 			"/>
			<polyline class="st0" points="245.4,114.9 251.2,117.6 258.3,114.1 259.6,113.9 265,111.1 			"/>
			<polyline class="st0" points="279.7,122.8 279.7,121.6 267.5,115.2 261.8,115.2 256.7,117.7 254,116.2 			"/>
			<path class="st0" d="M279.7,121.6l-21.2,11l-0.8-0.5l-10.8,5.4l-1.2-0.7c0,0-0.5-0.3-1.4,0.2c-1,0.6-10.8,5.4-10.8,5.4
				s-1.1,0.4-0.2,0.8c0.9,0.4,0.8,0.5,0.8,0.5s0.4,0.1,0.3,1.1l0,0.8"/>
			<path class="st0" d="M251.2,117.6l-15,7.7c0,0-0.6,0.5-1,1.4c-0.4,0.9-2,3.7-2,3.7s-0.1,0.3-1.2,0.9c-1,0.6-32.8,16.5-32.8,16.5
				l0.1,1.2c0,0,3.5,1.7,4.8,2.6c1.3,0.9,2.7-0.2,2.7-0.2l66.3-33.4"/>
			<line class="st0" x1="20.8" y1="160.2" x2="52.9" y2="144.2"/>
			<line class="st0" x1="29.5" y1="172.8" x2="53.9" y2="160.7"/>
			<polygon class="st0" points="107.2,158.5 114.8,154.8 71.3,132.9 63.7,136.7 			"/>
			<path class="st0" d="M63.4,138.5c0,0,0.4-0.8,1.3-0.3c0.9,0.5,41.5,20.8,41.5,20.8s1,0.5,1,2.1c0,1.7,0,14.5,0,14.5
				s-0.1,1.6-1.2,1.1c-1.1-0.5-41.5-20.7-41.5-20.7"/>
			<line class="st0" x1="140.2" y1="195" x2="63.9" y2="157"/>
			<line class="st0" x1="111.3" y1="209.5" x2="148.5" y2="191"/>
			<line class="st0" x1="149.1" y1="192.1" x2="111.5" y2="211.1"/>
			<line class="st0" x1="149" y1="207.3" x2="111.4" y2="226.4"/>
			<polyline class="st0" points="147.3,208.2 149.2,209 158.5,204.2 159.4,204.6 168,200.2 169.1,198.2 171.4,197.1 173.8,197.4 
				290.8,138.9 290.8,132.7 288.5,129.4 288.5,124.7 			"/>
			<path class="st0" d="M168.9,198.5v-4.9c0,0,0.4-2.9,2.4-3.6c0,0,1.7-0.5,1.8,1.1v6"/>
			<path class="st0" d="M149.2,208.8v-17.1c0,0-0.5-1.1-2.1-1.3v1.2"/>
			<path class="st0" d="M149.2,191.6l9.6-4.8c0,0-0.5-1.1-2.1-1.3l-9.6,4.8"/>
			<path class="st0" d="M159.8,204.3l-0.1-17.4l7.7-3.9c0,0,1.3-0.9,2.2-0.2c1,0.8,1.6,1.4,3,0.8c1.4-0.7,1.4-0.7,1.4-0.7"/>
			<path class="st0" d="M173.4,181.9c0.8,0.4,0.8,1.7,0.8,1.7v2.4c0,0,0.1,2.3,2.6,1.3c2.3-1,2.5-3.8,2.5-3.8s0-2.1,0-3
				c0-0.8-0.6-1.3-0.6-1.3c0-1.1-0.9-0.7-0.9-0.7l-3.6,1.9c0,0-0.6,0.3-0.7,1.4"/>
			<line class="st0" x1="159.8" y1="202.8" x2="159.8" y2="183.9"/>
			<path class="st0" d="M173.6,180.5"/>
			<path class="st0" d="M158.9,186.8v-2.7l8.6-4.1l0.6-1.1l67.4-33.6c0,0,0.7-0.1,0.8,0.5c0.1,0.6,0.3,4.5,0.3,4.5s0.9,0.6,0.8,1.5
				l11.6-5.7c0,0,0.6-0.7-0.1-1.6l0.1-4.9c0,0,0.2-1.1,1-1.5l32.8-16.3l2.7,1.8c0,0,1.2-0.1,0.9-1.4l-0.7-0.6c0,0-0.4-1.2,1-1.8
				l2.8-0.1c0,0,0.7,0,0.8,0.6l0,3.5L249,144.5"/>
			<line class="st0" x1="179.5" y1="180.3" x2="237" y2="151.5"/>
			<polyline class="st0" points="105.3,146.7 127,157.6 143.1,149.5 			"/>
			<polyline class="st0" points="105.4,148 127,158.7 142.8,150.9 			"/>
			<line class="st0" x1="123.2" y1="155.6" x2="125.4" y2="154.4"/>
			<line class="st0" x1="130.7" y1="155.5" x2="128.6" y2="154.5"/>
			<line class="st0" x1="132.8" y1="161.1" x2="138.4" y2="158.2"/>
			<line class="st0" x1="114.2" y1="170.6" x2="128" y2="163.5"/>
			<path class="st0" d="M107.3,160.3l5.6,2.7c0,0,1.3,0.6,1.3,1.7s-0.2,5.3-0.2,5.3s-0.2,1,0.7,1.4c0.9,0.4,4.4,2,4.4,2l1.1,1.6
				l28.4,14.4"/>
			<polyline class="st0" points="129.5,179.4 131.1,178.6 150.6,188.5 			"/>
			<polyline class="st0" points="135.8,181 144.7,176.5 152.5,180.3 143.6,184.8 			"/>
			<line class="st0" x1="152.5" y1="180.3" x2="152.5" y2="183.2"/>
			<polyline class="st0" points="146.5,186.3 155,181.9 156.9,182.8 			"/>
			<polyline class="st0" points="156.7,185.5 156.7,183.1 159.2,181.8 161.2,182.7 			"/>
			<line class="st0" x1="158.9" y1="184.1" x2="156.7" y2="183.1"/>
			<line class="st0" x1="86" y1="140.3" x2="115.8" y2="125.6"/>
			<polyline class="st0" points="186.8,110.5 187.5,110.8 187.5,114.3 			"/>
			<polyline class="st0" points="189.5,121.3 195.1,124 155.4,143.8 			"/>
			<path class="st0" d="M195.3,126"/>
			<polygon class="st0" points="198.5,124.4 195.3,126.1 195.3,120.9 198.5,119.3 			"/>
			<line class="st0" x1="195.3" y1="120.9" x2="189.9" y2="118.2"/>
			<line class="st0" x1="195.1" y1="121.9" x2="189.3" y2="119"/>
			<polyline class="st0" points="187.6,113 197.1,117.8 199.8,116.4 			"/>
			<polyline class="st0" points="187.6,114.2 197.1,119 199.8,117.7 			"/>
			<path class="st0" d="M52.2,144v-0.8l10.3-4.9l1.4,0.6c0,0,0.5,0.3,0.5,1c0,0.6,0,2,0,2l-9.2,4.6l-0.9-0.1v-2c0,0-0.1-1-2.2-1.3"
				/>
			<path class="st0" d="M53.1,161.3l1.3,0.6l10-5.1l-0.1-2l-0.9-0.3l-8.3,4.1c0,0-1,0.5-0.9,1.3l0,1.7"/>
			<path class="st0" d="M9.7,161l5.5-2.7c0,0,9.3,1.1,13.7,13.5c0,0,3.8,10.4-2.9,16l-6.2,3c0,0-2,0.3-4.5-0.9l-5.4-2.5
				c0,0-0.8-0.9-0.8-1.9c0-1,0.1-3,0.1-3"/>
			<path class="st0" d="M9.2,166.8l-0.1-4.9c0,0,0.3-1.1,2.4-0.9c0,0,9.4,3.5,12.1,13.1c0,0,4.9,10.7-2.2,15.9"/>
			<path class="st0" d="M11,172.4v-5.5c0,0,0.5-3.5,3.4-2.8c0,0,7.1,2.5,9.4,15.2c0,0,1.5,8.2-4.8,10.1c0,0-1.7,0.6-3.8-0.2
				s-5.8-3-5.8-3l5.4-2.7"/>
			<line class="st0" x1="16.1" y1="165.1" x2="16.1" y2="169.9"/>
			<path class="st0" d="M9.8,173.2l8.2-4.1c0,0,1.2,0.3,1.1,1.6l-1.1,3.8l-5,2.7l-1.7-3.1C11.3,174.1,10.8,173,9.8,173.2z"/>
			<path class="st0" d="M9.8,173.2c0,0-1.7,5.1,0.7,9.9l1.3-0.6c0,0,0-3.3,3-4.2c0,0,1.8-0.6,1.7,1.8l1.3-0.5c0,0,1-3.4,1-7"/>
			<path class="st0" d="M10.9,167.7c0,0,0.5,0.3-2.1-0.8c0,0-4.5-0.2-5.9,6.3v8c0,0,0,3,2.9,3.2c0,0,2.5,0.1,4-2.7"/>
			<path class="st0" d="M14.8,178.3l0.2,5.3c0,0,0.4,0.6,0.9,0.8s3.8,1.8,3.8,1.8s1.8,0.6,2.6,0.5"/>
			<path class="st0" d="M11,170.1c0,0-1.1,0.2-2.4-0.8c0,0-2.8,0.6-3.3,3.8l0,7.6c0,0,0.2,1.6,1.5,1.1s1.5-1.1,1.5-1.1l1-1.3"/>
			<path class="st0" d="M23.3,162.5l11-5.5c0,0,1.4-0.5,1.5,1c0.1,1.5,0,7.1,0,7.1s0.1,1.1-1.2,2.1l-5.9,2.9"/>
			<path class="st0" d="M46,152l-0.9,0.4c0-1.2-1-1-1-1l-6.5,3.2c-1.1,0.8-0.9,2-0.9,2l0,8.8c0,0,0.3,1.1,1.3,0.6c1-0.5,6.2-3,6.2-3
				s1.1-0.7,0.9-2l16.5-8.2v-0.8c0,0,2.9-1,3.2-2.2l0.3-1l0-1.7c0,0-0.2-1.8-1.4-3.3v-1.6"/>
			<path class="st0" d="M59.6,153.9v-0.8c0,0,2.9-1,3.2-2.2l0.3-1l0-1.7c0,0-0.2-1.8-1.4-3.3v-1.6"/>
			<polyline class="st0" points="46.2,160.6 46.2,151 55.5,146.5 			"/>
			<line class="st0" x1="52.6" y1="157.3" x2="52.6" y2="148"/>
			<polyline class="st0" points="109.8,161.4 119.1,156.7 119.2,163.6 114.3,166.1 			"/>
			<polyline class="st0" points="113.7,154.1 114.2,153.9 119.1,156.4 			"/>
			<polyline class="st0" points="119.3,157.4 127,161.4 128.1,160.8 			"/>
			<ellipse class="st0" cx="130.5" cy="159.9" rx="2.3" ry="1.2"/>
			<path class="st0" d="M128.2,159.9v5.8c0,0.7,1,1.2,2.3,1.2s2.3-0.5,2.3-1.2v-5.8"/>
			<polyline class="st0" points="120.5,121.7 115.7,124.1 121.6,127 			"/>
			<polyline class="st0" points="115.7,124.1 115.7,125.7 120.2,127.9 			"/>
			<path class="st0" d="M60,144.6c0,0,3,2.7,0.1,8.2"/>
			<line class="st0" x1="63.4" y1="154.4" x2="63.4" y2="151.3"/>
			<g>
				<polygon class="st0" points="81.8,156.2 68.5,149.7 68.5,155 81.9,161.7 				"/>
				<polyline class="st0" points="81.9,161.7 83.2,161 83.1,155.6 69.8,149 68.5,149.7 				"/>
				<line class="st0" x1="68.5" y1="155" x2="73.7" y2="152.3"/>
				<polyline class="st0" points="75.1,153 75.1,158.2 80.3,155.6 				"/>
				<line class="st0" x1="81.8" y1="156.2" x2="83.1" y2="155.6"/>
			</g>
			<g>
				<polygon class="st0" points="94.1,161.6 84.3,156.7 84.3,163 94.2,168.1 				"/>
				<polyline class="st0" points="94.2,168.1 95.9,167.1 95.8,160.6 85.9,155.7 84.3,156.7 				"/>
				<line class="st0" x1="84.3" y1="162.8" x2="88.9" y2="160.8"/>
				<polyline class="st0" points="89.1,159.3 89.1,165.4 93.7,163.4 				"/>
				<line class="st0" x1="94.1" y1="161.6" x2="95.4" y2="161"/>
			</g>
			<g>
				<polygon class="st0" points="102,165.6 96.9,163 96.9,169.4 102.1,172.1 				"/>
				<polyline class="st0" points="102.1,172.1 103.7,171.1 103.6,164.6 98.6,162 96.9,163 				"/>
				<path class="st0" d="M96.8,164.8"/>
				<line class="st0" x1="96.9" y1="169.4" x2="101.6" y2="167.4"/>
				<line class="st0" x1="102" y1="165.6" x2="103.3" y2="165"/>
			</g>
			<path class="st0" d="M115.2,211.7l14.2-7c0,0,1.3-0.4,1.3,0.8c0,1.3,0.1,7,0.1,7s-0.4,1.6-1.3,2.2S115,222,115,222
				s-1.2,0-1.2-1.3s0.1-6.7,0.1-6.7S114.1,212.2,115.2,211.7z"/>
			<path class="st0" d="M140.9,199.1l6.3-3.1c0,0,0.8-0.7,0.8,0.2c0.1,0.8,0,8.3,0,8.3s0.1,0.5-0.6,0.9c-0.7,0.4-6.5,3.3-6.5,3.3
				s-0.7,0-0.7-0.8s0.1-7.9,0.1-7.9S140.5,199.2,140.9,199.1z"/>
			<ellipse transform="matrix(0.498 -0.8672 0.8672 0.498 -109.2297 218.963)" class="st0" cx="134.5" cy="203.8" rx="2" ry="1.4"/>
			<ellipse transform="matrix(0.498 -0.8672 0.8672 0.498 -82.444 235.7076)" class="st0" cx="162.4" cy="189.1" rx="2" ry="1.4"/>
			<ellipse transform="matrix(0.498 -0.8672 0.8672 0.498 -83.801 240.3376)" class="st0" cx="165.7" cy="192.6" rx="2" ry="1.4"/>
			<ellipse transform="matrix(0.498 -0.8672 0.8672 0.498 -91.3569 241.1902)" class="st0" cx="162.6" cy="199.5" rx="2" ry="1.4"/>
			<ellipse transform="matrix(0.498 -0.8672 0.8672 0.498 -78.6358 250.1664)" class="st0" cx="176.8" cy="193" rx="2" ry="1.4"/>
			
				<ellipse transform="matrix(0.498 -0.8672 0.8672 0.498 -93.4937 233.4435)" class="st0" cx="154.9" cy="197.5" rx="1.3" ry="0.9"/>
			
				<ellipse transform="matrix(0.498 -0.8672 0.8672 0.498 -114.9556 222.2775)" class="st0" cx="134.5" cy="210.4" rx="2" ry="1.4"/>
			<line class="st0" x1="106.2" y1="209.8" x2="111.1" y2="207.5"/>
			<path class="st0" d="M101.9,202.6c1.7-0.3,3,0.1,3,0.1s3.1,1.2,4.6,2.1c1.7,1,1.7,2.3,1.7,2.3v23.3c0,0,0.3,0.9-0.7,1.4
				c-1.2,0.6-4.7,2.4-4.7,2.4s-1.3,0.4-3.3-0.5c-1.9-0.9-9.4-4.8-12.1-17.3c0,0-1.7-10,5.9-12.4c0,0,4.9-0.5,5-2.1
				c0,0-0.5-0.9-5.3,2"/>
			<path class="st0" d="M106.1,233.9V211c0,0,0.2-2.3-1-3.1l-5.7-2.6c0,0-1.7-0.6-4.4,0.4"/>
			<path class="st0" d="M97.3,228.5c0,0-4.4-3.8-5.8-12.6c0,0-0.9-8.7,5-9.9c0,0,2.1-0.9,8.4,3v24.3c0,0-1.6,0.2-4-1.6"/>
			<path class="st0" d="M104.7,214.6l-1.3-0.6c0,0-3.5-0.4-5.5,4.7c0,0-0.5,2.5-0.5,3.9c-0.1,1.5,0.1,6.6,0.1,6.6s1.3,3.7,4.7,2.1
				c0,0,2.5-1.7,2.7-3.1"/>
			<path class="st0" d="M98,206.1c0,0-2.9,5.3-0.1,12.6"/>
			<path class="st0" d="M104.8,215.8l-1.2-0.7c0,0-3.4,0.3-4.7,5.4v8.2c0,0-0.3,3.6,4.1,1.8"/>
			
				<ellipse transform="matrix(0.4022 -0.9156 0.9156 0.4022 -119.3941 130.3253)" class="st0" cx="40.1" cy="156.6" rx="1.6" ry="1.2"/>
			
				<ellipse transform="matrix(0.4022 -0.9156 0.9156 0.4022 -124.7961 133.8526)" class="st0" cx="40.1" cy="162.5" rx="1.6" ry="1.2"/>
			<polygon class="st0" points="140.5,193.5 132.6,189.5 132.6,182.5 140.5,186.5 			"/>
			<g>
				<polyline class="st0" points="135,188.8 133.6,188.1 133.6,184 139.5,187 139.5,191.1 138,190.3 				"/>
				<polyline class="st0" points="138,190.3 138,191.2 135,189.7 135,188.8 				"/>
			</g>
			<ellipse class="st0" cx="77.7" cy="139.5" rx="2.1" ry="1"/>
			<ellipse class="st0" cx="101.5" cy="151.4" rx="2.1" ry="1"/>
			<path class="st0" d="M109.9,161.8v4.5c0,0-0.3,2.1,1.3,2.7l2.8,1.3"/>
			<polygon class="st0" points="118.3,178.3 111.8,175.1 111.8,171.8 118.3,175 			"/>
			<ellipse transform="matrix(0.9368 -0.35 0.35 0.9368 -53.5604 49.1407)" class="st0" cx="109.2" cy="172.8" rx="1" ry="1.4"/>
			<line class="st0" x1="143.4" y1="186.8" x2="143.4" y2="193.4"/>
			<path class="st0" d="M80.1,152.1v-2.3c0.1-0.9-0.8-1.5-0.8-1.5l-8.7-4.4c-1-0.4-0.9,0.7-0.9,0.7v2.4c0,0-0.1,0.7,0.7,1.1l9,4.6
				C79.4,152.7,80,153.1,80.1,152.1z"/>
			<path class="st0" d="M69.9,143.9l0.9-0.5c0,0,0.4-0.2,0.8,0l8.6,4.3c0,0,0.9,0.6,0.8,1.5v2.3c0,0.6-0.2,0.7-0.2,0.7l-1.2,0.6"/>
			<path class="st0" d="M84.1,152.6"/>
			<path class="st0" d="M234.1,143.8l-10.6,5.4c0,0,1.4,0.2,1.2,1.3"/>
			<polyline class="st0" points="224.2,149.8 220.3,151.7 219.6,151.3 205.3,158.5 205.3,160.3 			"/>
			<path class="st0" d="M199.8,163l-3.7-1.8c0,0-0.9-0.3-1.3,1.2l-0.1,3"/>
			<path class="st0" d="M205.3,158.5l-14.1-6.8l1.5-2.2l3.7-1.8c0,0,0.4-0.3,1,0s1.9,0.9,1.9,0.9"/>
			<line class="st0" x1="122.3" y1="111.2" x2="75.5" y2="134.7"/>
			<path class="st1" d="M281.6,128.2c0,0,1.2,0.9-0.1,2l-0.6,0.3l-12.9,6.4c0,0-0.5,0.4-0.5,1s0.1,3.7,0.1,3.7s-0.1,0.7,0.7,0.4
				s13.1-6.5,13.1-6.5s0.9-0.3,0.9,0.6s0,1.6,0,1.6s0.5,0.7,1-0.3c0,0,0.9-0.9-0.8-2.3c-1.7-1.4-1.3-1.4-1.3-1.4l0.1-3.2"/>
			<line class="st1" x1="283.6" y1="136.5" x2="290.7" y2="132.9"/>
			<path class="st1" d="M279.8,131.1l0,1.3c0,0,0.2,0.4-0.5,0.8c-0.2,0.1-0.5,0.2-0.7,0.3c-0.4,0.2-0.7,0.3-0.7,0.3l0,1.5l1.6-0.8"
				/>
			<path class="st1" d="M278.7,133.5l0.7,0.4c0,0,0.6,0.3,0.4,1.2l0,1.1"/>
			<path class="st0" d="M235.1,145.5c0,0,0-1.2,1-1.7s8.9-4.3,8.9-4.3s0.4-0.5,1.5,0.2"/>
			<path class="st0" d="M236.1,145.5c0,0,0-0.9,1.3-1.6c1.3-0.6,8-3.9,8-3.9s0.9-0.4,1.5-0.1"/>
			<path class="st0" d="M236.6,150l10.2-5.1c0,0,0.8-0.3,0.1-1.1l0-6.1"/>
			<line class="st0" x1="191.6" y1="151.9" x2="191.6" y2="157.1"/>
			<path class="st0" d="M191.4,155.9c0,0-0.9,1,0.6,1.6c0.4,0.1,0.9,0.4,1.5,0.7c1.8,0.8,4.3,2,4.3,2s0.7,0.1,0.2,1.8"/>
			<polyline class="st0" points="191.5,167.1 191.7,163 191.1,162.6 192.6,160.4 193.4,159.8 193.6,158.2 			"/>
			<polyline class="st0" points="150.3,153.5 148.8,152.8 138.6,157.9 138.5,161.5 			"/>
			<line class="st0" x1="138.6" y1="157.9" x2="141.8" y2="159.3"/>
			<polyline class="st0" points="138.5,161.1 137.8,161.5 141.9,163.4 142,161.5 			"/>
			<polyline class="st0" points="144.1,162.8 141.5,164.2 169.3,178.1 			"/>
			<polyline class="st0" points="184.7,170.5 152.2,154.1 142,159.2 174.6,175.5 			"/>
			<polyline class="st0" points="173.2,176.1 142,160.5 142,159.2 			"/>
			<polyline class="st0" points="172.4,176.7 142,161.5 142,160.2 			"/>
			<path class="st0" d="M151.7,150.9c0,0,1.5,0.5,0.5,1.9s-2.2,0.1-1.2,1.9"/>
			<path class="st0" d="M114.8,154.8c0,0,0.9,0.5,0.9,1c0,0.8,0,0.9,0,0.9s0.1,1-0.9,1.4c-1.1,0.4-5.6,2.7-5.6,2.7"/>
			<path class="st0" d="M107.7,158.2c0,0,0.7,0.3,0.8,0.8c0,0.5,0.1,1.8,0.1,1.8"/>
			<polyline class="st0" points="119.1,157.8 117.7,158.5 117.8,164.2 			"/>
			<polyline class="st0" points="120,167.6 126.5,170.9 126.6,174.7 123.6,176.4 			"/>
			<line class="st0" x1="119.9" y1="174.4" x2="126.5" y2="170.9"/>
			<polyline class="st0" points="126.3,178 129.7,176.3 133,177.9 131.4,178.8 			"/>
			<polyline class="st0" points="133.9,179.9 133.9,178.9 132.9,179.5 			"/>
			<line class="st0" x1="133" y1="177.9" x2="133.9" y2="178.9"/>
			<path class="st0" d="M124.5,179l3.1,1.5c0,0,0.8,0.4,0.7,1.3s-0.1,0.9-0.8,0.9s-2.9-1.4-2.9-1.4s-0.7-0.7-0.8-1.5
				C123.8,179,124.5,179,124.5,179z"/>
			<polyline class="st0" points="163.6,151.8 162.3,152.4 168.7,155.7 183.8,148.1 183,147.7 			"/>
			<polyline class="st2" points="164.6,149.8 163.8,150.2 163.8,150.6 168.7,153 169.5,153.1 182.9,146.3 182.9,145.9 182.2,145.5 
							"/>
			<polyline class="st2" points="166.6,153.9 168.7,154.9 169.3,154.7 169.3,154.1 			"/>
			<polyline class="st2" points="163.8,150.6 163.8,152.5 165.4,153.3 			"/>
			<polyline class="st2" points="182.9,146.3 182.9,147.9 182.4,148.2 181.7,147.9 			"/>
			<polyline class="st2" points="182.7,147.3 169.5,154 168.8,154 			"/>
			<line class="st2" x1="169.5" y1="153.1" x2="169.5" y2="153.9"/>
			<line class="st2" x1="168.7" y1="153" x2="168.7" y2="154.9"/>
			<polyline class="st2" points="165.5,151.9 165.5,153.6 166.2,154 166.6,153.8 166.6,152 166.2,152.2 165.5,151.8 165.8,151.6 			
				"/>
			<line class="st2" x1="166.2" y1="152.3" x2="166.2" y2="154"/>
			<line class="st2" x1="182.4" y1="147.5" x2="182.4" y2="148.2"/>
			<g>
				<g>
					<polygon class="st3" points="166.3,148.7 165.8,148.5 166.2,148.3 166.7,148.5 					"/>
					<polygon class="st3" points="167.3,148.2 166.9,148.4 166.5,148.1 166.9,147.9 					"/>
					<polygon class="st3" points="168,147.8 167.6,148 167.2,147.8 167.6,147.6 					"/>
					<polygon class="st3" points="168.7,147.5 168.3,147.7 167.8,147.5 168.2,147.3 					"/>
					<polygon class="st3" points="169.3,147.2 168.9,147.4 168.5,147.1 168.9,146.9 					"/>
					<polygon class="st3" points="170,146.8 169.6,147 169.2,146.8 169.6,146.6 					"/>
					<polygon class="st3" points="170.7,146.5 170.3,146.7 169.8,146.5 170.2,146.3 					"/>
					<polygon class="st3" points="171.3,146.2 170.9,146.4 170.5,146.1 170.9,145.9 					"/>
					<polygon class="st3" points="172,145.8 171.6,146 171.2,145.8 171.6,145.6 					"/>
					<polygon class="st3" points="172.7,145.5 172.3,145.7 171.9,145.5 172.2,145.3 					"/>
					<polygon class="st3" points="173.3,145.2 173,145.4 172.5,145.1 172.9,144.9 					"/>
					<polygon class="st3" points="174,144.8 173.6,145 173.2,144.8 173.6,144.6 					"/>
					<polygon class="st3" points="174.7,144.5 174.3,144.7 173.9,144.5 174.2,144.3 					"/>
					<polygon class="st3" points="175.3,144.2 175,144.4 174.5,144.1 174.9,143.9 					"/>
					<polygon class="st3" points="176,143.8 175.6,144 175.2,143.8 175.6,143.6 					"/>
					<polygon class="st3" points="176.7,143.5 176.3,143.7 175.9,143.5 176.2,143.3 					"/>
					<polygon class="st3" points="177,143.4 176.5,143.1 176.9,142.9 177.3,143.2 					"/>
				</g>
			</g>
			<g>
				<g>
					<polygon class="st3" points="167.5,149.3 167,149 167.4,148.8 167.9,149.1 					"/>
					<polygon class="st3" points="168.5,148.8 168.1,149 167.7,148.7 168.1,148.5 					"/>
					<polygon class="st3" points="169.2,148.4 168.8,148.6 168.4,148.4 168.8,148.2 					"/>
					<polygon class="st3" points="169.9,148.1 169.5,148.3 169,148 169.4,147.8 					"/>
					<polygon class="st3" points="170.5,147.8 170.1,148 169.7,147.7 170.1,147.5 					"/>
					<polygon class="st3" points="171.2,147.4 170.8,147.6 170.4,147.4 170.8,147.2 					"/>
					<polygon class="st3" points="171.9,147.1 171.5,147.3 171,147 171.4,146.8 					"/>
					<polygon class="st3" points="172.5,146.8 172.1,147 171.7,146.7 172.1,146.5 					"/>
					<polygon class="st3" points="173.2,146.4 172.8,146.6 172.4,146.4 172.8,146.2 					"/>
					<polygon class="st3" points="173.9,146.1 173.5,146.3 173,146 173.4,145.8 					"/>
					<polygon class="st3" points="174.5,145.8 174.1,146 173.7,145.7 174.1,145.5 					"/>
					<polygon class="st3" points="175.2,145.4 174.8,145.6 174.4,145.4 174.8,145.2 					"/>
					<polygon class="st3" points="175.9,145.1 175.5,145.3 175,145 175.4,144.8 					"/>
					<polygon class="st3" points="176.5,144.8 176.1,145 175.7,144.7 176.1,144.5 					"/>
					<polygon class="st3" points="177.2,144.4 176.8,144.6 176.4,144.4 176.8,144.2 					"/>
					<polygon class="st3" points="177.9,144.1 177.5,144.3 177,144 177.4,143.8 					"/>
					<polygon class="st3" points="178.1,144 177.7,143.7 178.1,143.5 178.5,143.8 					"/>
				</g>
			</g>
			<g>
				<g>
					<polygon class="st3" points="168.7,149.9 168.2,149.6 168.6,149.4 169,149.7 					"/>
					<polygon class="st3" points="169.7,149.4 169.3,149.6 168.9,149.3 169.3,149.1 					"/>
					<polygon class="st3" points="170.4,149 170,149.2 169.6,149 169.9,148.8 					"/>
					<polygon class="st3" points="171,148.7 170.7,148.9 170.2,148.6 170.6,148.4 					"/>
					<polygon class="st3" points="171.7,148.4 171.3,148.6 170.9,148.3 171.3,148.1 					"/>
					<polygon class="st3" points="172.4,148 172,148.2 171.6,148 171.9,147.8 					"/>
					<polygon class="st3" points="173,147.7 172.7,147.9 172.2,147.6 172.6,147.4 					"/>
					<polygon class="st3" points="173.7,147.4 173.3,147.6 172.9,147.3 173.3,147.1 					"/>
					<polygon class="st3" points="174.4,147 174,147.2 173.6,147 173.9,146.8 					"/>
					<polygon class="st3" points="175,146.7 174.7,146.9 174.2,146.6 174.6,146.4 					"/>
					<polygon class="st3" points="175.7,146.4 175.3,146.6 174.9,146.3 175.3,146.1 					"/>
					<polygon class="st3" points="176.4,146 176,146.2 175.6,146 176,145.8 					"/>
					<polygon class="st3" points="177,145.7 176.7,145.9 176.2,145.6 176.6,145.4 					"/>
					<polygon class="st3" points="177.7,145.4 177.3,145.6 176.9,145.3 177.3,145.1 					"/>
					<polygon class="st3" points="178.4,145 178,145.2 177.6,145 178,144.8 					"/>
					<polygon class="st3" points="179.1,144.7 178.7,144.9 178.2,144.6 178.6,144.4 					"/>
					<polygon class="st3" points="179.3,144.6 178.9,144.3 179.3,144.1 179.7,144.4 					"/>
				</g>
			</g>
			<g>
				<g>
					<polygon class="st3" points="169.8,150.4 169.4,150.2 169.8,150 170.2,150.2 					"/>
					<polygon class="st3" points="170.9,149.9 170.5,150.1 170.1,149.8 170.5,149.6 					"/>
					<polygon class="st3" points="171.6,149.6 171.2,149.8 170.7,149.5 171.1,149.3 					"/>
					<polygon class="st3" points="172.2,149.2 171.8,149.4 171.4,149.2 171.8,149 					"/>
					<polygon class="st3" points="172.9,148.9 172.5,149.1 172.1,148.8 172.5,148.6 					"/>
					<polygon class="st3" points="173.6,148.6 173.2,148.8 172.7,148.5 173.1,148.3 					"/>
					<polygon class="st3" points="174.2,148.2 173.8,148.4 173.4,148.2 173.8,148 					"/>
					<polygon class="st3" points="174.9,147.9 174.5,148.1 174.1,147.8 174.5,147.6 					"/>
					<polygon class="st3" points="175.6,147.6 175.2,147.8 174.7,147.5 175.1,147.3 					"/>
					<polygon class="st3" points="176.2,147.2 175.8,147.4 175.4,147.2 175.8,147 					"/>
					<polygon class="st3" points="176.9,146.9 176.5,147.1 176.1,146.8 176.5,146.6 					"/>
					<polygon class="st3" points="177.6,146.6 177.2,146.8 176.7,146.5 177.1,146.3 					"/>
					<polygon class="st3" points="178.2,146.2 177.8,146.4 177.4,146.2 177.8,146 					"/>
					<polygon class="st3" points="178.9,145.9 178.5,146.1 178.1,145.8 178.5,145.6 					"/>
					<polygon class="st3" points="179.6,145.6 179.2,145.8 178.7,145.5 179.1,145.3 					"/>
					<polygon class="st3" points="180.2,145.2 179.8,145.4 179.4,145.2 179.8,145 					"/>
					<polygon class="st3" points="180.5,145.1 180.1,144.8 180.5,144.6 180.9,144.9 					"/>
				</g>
			</g>
			<polyline class="st2" points="165.9,151.2 164.6,150.5 164.6,149.1 165.6,148.6 166,148.8 165.7,149 166.4,149.3 166.7,149.1 
				167.2,149.4 166.9,149.6 			"/>
			<line class="st2" x1="166" y1="149.8" x2="164.6" y2="149.1"/>
			<polygon class="st2" points="167.9,149.7 167.2,150.1 167.1,150.4 167.1,151.8 168.8,152.6 168.8,151 169.6,150.6 169.1,150.3 
				168.8,150.5 168.1,150.2 168.4,150 			"/>
			<line class="st2" x1="167.2" y1="150.4" x2="168.7" y2="151.2"/>
			<polyline class="st2" points="165.9,151.6 165.9,150 166.6,149.4 167.2,150.1 			"/>
			<line class="st2" x1="166.6" y1="152" x2="166.6" y2="149.5"/>
			<polyline class="st2" points="166,150 166.5,150.3 167.1,150.1 			"/>
			<polygon class="st2" points="182.1,144.6 181.3,144.9 181.3,146.3 182.1,146 			"/>
			<polyline class="st2" points="168.8,152.6 169.5,152.2 169.6,150.7 			"/>
			<line class="st2" x1="169.7" y1="152.1" x2="181.1" y2="146.3"/>
			<polyline class="st2" points="177.1,142.8 177.9,142.4 182.1,144.5 			"/>
			<polyline class="st2" points="178.3,142.5 178.9,142.1 179.6,142.6 179.6,143.3 			"/>
			<polyline class="st2" points="180.7,143.7 181.3,143.3 182,143.8 182,144.4 			"/>
			<polyline class="st2" points="181.3,143.4 181.4,144.1 182,143.8 			"/>
			<polyline class="st2" points="178.9,142.2 179.1,142.9 179.6,142.6 			"/>
			<line class="st2" x1="177.6" y1="143" x2="178.3" y2="142.7"/>
			<line class="st2" x1="178.4" y1="143.3" x2="179" y2="143"/>
			<line class="st2" x1="180" y1="144.2" x2="180.7" y2="143.8"/>
			<line class="st2" x1="180.7" y1="144.6" x2="181.4" y2="144.2"/>
			<path class="st0" d="M143.1,151.1l2.1,1.1c0,0,0.7,0.5,2.1-0.1c1.4-0.6,7.9-4.2,7.9-4.2"/>
			<path class="st0" d="M143.2,150.7v-4c0,0-0.1-1.7,1.3-1.6c0,0,1,0.1,1,2.2v4.9"/>
			<path class="st0" d="M147.8,143.6c0,0,1,0.1,1,2.2v5.3"/>
			<path class="st0" d="M152,149.5v-5.1c0-2-1-2.2-1-2.2v5.6"/>
			<line class="st0" x1="144.1" y1="145" x2="152.6" y2="141"/>
			<line class="st0" x1="147.8" y1="143.6" x2="147.8" y2="149.6"/>
			<path class="st0" d="M154.9,141.2c0.2,0.3,0.3,0.8,0.3,1.6v4.9"/>
			<polyline class="st0" points="152.1,147.2 154.3,146 154.3,141.4 			"/>
			<line class="st0" x1="148.8" y1="148.9" x2="151" y2="147.7"/>
			<line class="st0" x1="145.6" y1="150.6" x2="147.7" y2="149.5"/>
			<path class="st0" d="M155.4,146.7c0,0,3.1-0.6,2.1-2.3"/>
			<ellipse class="st0" cx="192.1" cy="146.8" rx="2.4" ry="1.1"/>
			<path class="st0" d="M191.6,153.7c-1.1-0.1-1.9-0.5-1.9-1v-5.8"/>
			<line class="st0" x1="194.4" y1="146.8" x2="194.4" y2="148.4"/>
			<g>
				<polyline class="st0" points="202.9,135.7 202.8,134.4 200.7,135.4 200.7,141.7 199.7,141.2 199.7,142.1 				"/>
				<polyline class="st0" points="201.3,142 202.3,142.5 202.3,136.2 204.4,135.2 204.4,136.6 				"/>
				<polyline class="st0" points="202.8,142.9 203.8,143.3 203.8,137.1 205.9,136 205.9,137.4 				"/>
				<polyline class="st0" points="204.3,143.7 205.4,144.2 205.4,137.9 207.5,136.9 207.5,138.3 				"/>
				<polyline class="st0" points="206.9,143.9 206.9,138.8 209,137.7 209,139.2 				"/>
				<polyline class="st0" points="208.4,143.2 208.4,139.6 210.5,138.6 210.5,142 				"/>
			</g>
			<g>
				<polyline class="st0" points="203.6,135.5 203.6,133.9 205.7,132.9 205.7,134.2 				"/>
				<polyline class="st0" points="205.2,136.4 205.2,134.7 207.3,133.7 207.3,135.1 				"/>
				<polyline class="st0" points="206.7,137.2 206.7,135.6 208.8,134.6 208.8,135.9 				"/>
				<polyline class="st0" points="208.3,138.1 208.3,136.4 210.4,135.4 210.4,136.8 				"/>
				<polyline class="st0" points="209.8,138.9 209.8,137.3 211.9,136.2 211.9,137.7 				"/>
				<polyline class="st0" points="211.3,141.8 211.3,138.1 213.4,137.1 213.4,140.5 				"/>
			</g>
			<g>
				<polyline class="st0" points="206.5,134 206.5,132.4 208.7,131.4 208.7,132.7 				"/>
				<polyline class="st0" points="208.1,134.9 208.1,133.2 210.2,132.2 210.2,133.6 				"/>
				<polyline class="st0" points="209.6,135.7 209.6,134.1 211.7,133.1 211.7,134.4 				"/>
				<polyline class="st0" points="211.2,136.6 211.2,134.9 213.3,133.9 213.3,135.3 				"/>
				<polyline class="st0" points="212.7,137.5 212.7,135.8 214.8,134.8 214.8,136.2 				"/>
				<polyline class="st0" points="214.2,140.3 214.2,136.6 216.3,135.6 216.4,139 				"/>
			</g>
			<g>
				<polyline class="st0" points="209.4,132.6 209.4,130.9 211.5,129.9 211.5,131.2 				"/>
				<polyline class="st0" points="210.9,133.4 210.9,131.7 213,130.7 213.1,132.1 				"/>
				<polyline class="st0" points="212.5,134.3 212.5,132.6 214.6,131.6 214.6,132.9 				"/>
				<polyline class="st0" points="214,135.1 214,133.4 216.1,132.4 216.1,133.8 				"/>
				<polyline class="st0" points="215.6,136 215.6,134.3 217.7,133.3 217.7,134.7 				"/>
				<polyline class="st0" points="217.1,138.8 217.1,135.1 219.2,134.1 219.2,137.6 				"/>
			</g>
			<g>
				<polyline class="st0" points="212.1,131.2 212.1,129.5 214.2,128.5 214.2,129.9 				"/>
				<polyline class="st0" points="213.7,132 213.7,130.4 215.8,129.4 215.8,130.7 				"/>
				<polyline class="st0" points="215.2,132.9 215.2,131.2 217.3,130.2 217.3,131.6 				"/>
				<polyline class="st0" points="216.7,133.8 216.7,132.1 218.8,131.1 218.8,132.5 				"/>
				<polyline class="st0" points="218.3,134.6 218.3,132.9 220.4,131.9 220.4,133.4 				"/>
				<polyline class="st0" points="219.8,137.4 219.8,133.8 221.9,132.8 221.9,136.2 				"/>
			</g>
			<g>
				<polyline class="st0" points="214.9,129.8 214.9,128.2 217,127.1 217,128.5 				"/>
				<polyline class="st0" points="216.4,130.7 216.4,129 218.5,128 218.6,129.4 				"/>
				<polyline class="st0" points="218,131.5 218,129.8 220.1,128.8 220.1,130.2 				"/>
				<polyline class="st0" points="219.5,132.4 219.5,130.7 221.6,129.7 221.6,131.1 				"/>
				<polyline class="st0" points="221.1,133.2 221.1,131.5 223.2,130.5 223.2,132 				"/>
				<polyline class="st0" points="222.6,136 222.6,132.4 224.7,131.4 224.7,134.8 				"/>
			</g>
			<g>
				<polyline class="st0" points="217.7,128.4 217.7,126.8 219.8,125.7 219.8,127.1 				"/>
				<polyline class="st0" points="219.2,129.3 219.2,127.6 221.3,126.6 221.3,128 				"/>
				<polyline class="st0" points="220.8,130.1 220.8,128.5 222.9,127.4 222.9,128.8 				"/>
				<polyline class="st0" points="222.3,131 222.3,129.3 224.4,128.3 224.4,129.7 				"/>
				<polyline class="st0" points="223.8,131.8 223.8,130.1 225.9,129.1 226,130.6 				"/>
				<polyline class="st0" points="225.4,134.6 225.4,131 227.5,130 227.5,133.4 				"/>
			</g>
			<g>
				<polyline class="st0" points="220.5,127 220.5,125.4 222.6,124.4 222.6,125.7 				"/>
				<polyline class="st0" points="222,127.9 222,126.2 224.1,125.2 224.1,126.6 				"/>
				<polyline class="st0" points="223.5,128.7 223.5,127.1 225.6,126 225.7,127.4 				"/>
				<polyline class="st0" points="225.1,129.6 225.1,127.9 227.2,126.9 227.2,128.3 				"/>
				<polyline class="st0" points="226.6,130.4 226.6,128.8 228.7,127.7 228.7,129.2 				"/>
				<polyline class="st0" points="228.2,133.3 228.2,129.6 230.3,128.6 230.3,132 				"/>
			</g>
			<g>
				<polyline class="st0" points="223.2,125.6 223.2,124 225.3,123 225.4,124.3 				"/>
				<polyline class="st0" points="224.8,126.5 224.8,124.8 226.9,123.8 226.9,125.2 				"/>
				<polyline class="st0" points="226.3,127.3 226.3,125.7 228.4,124.7 228.4,126 				"/>
				<polyline class="st0" points="227.9,128.2 227.9,126.5 230,125.5 230,126.9 				"/>
				<polyline class="st0" points="229.4,129.1 229.4,127.4 231.5,126.4 231.5,127.8 				"/>
				<polyline class="st0" points="230.9,131.9 230.9,128.2 233,127.2 233.1,130.6 				"/>
			</g>
			<g>
				<polyline class="st0" points="240.1,117.2 240.1,115.5 242.2,114.5 242.2,115.9 				"/>
				<polyline class="st0" points="241.6,118 241.6,116.4 243.7,115.3 243.7,116.7 				"/>
				<polyline class="st0" points="243.1,118.9 243.1,117.2 245.2,116.2 245.3,117.6 				"/>
				<polyline class="st0" points="244.7,119.7 244.7,118.1 246.8,117 246.8,118.5 				"/>
				<polyline class="st0" points="246.2,119.9 246.2,118.9 248.3,117.9 248.3,118.9 				"/>
			</g>
			<g>
				<polyline class="st0" points="230.3,123.6 230.3,122.1 232.4,121.1 232.4,122.5 				"/>
				<polyline class="st0" points="231.9,124.5 231.9,123 234,122 234,123.4 				"/>
				<polyline class="st0" points="233.4,125.3 233.4,123.8 235.5,122.8 235.5,124.3 				"/>
				<polyline class="st0" points="234.9,126.1 234.9,124.7 237,123.7 237.1,124.8 				"/>
			</g>
			<g>
				<polyline class="st0" points="233.2,122.1 233.2,120.7 235.3,119.7 235.3,121 				"/>
				<polyline class="st0" points="234.7,123.1 234.7,121.5 236.8,120.5 236.8,121.9 				"/>
				<polyline class="st0" points="236.2,123.9 236.2,122.4 238.3,121.4 238.3,122.8 				"/>
				<polyline class="st0" points="237.8,124.4 237.8,123.2 239.9,122.2 239.9,123.4 				"/>
			</g>
			<g>
				<polyline class="st0" points="236,120.7 236,119.3 238.1,118.2 238.1,119.6 				"/>
				<polyline class="st0" points="237.5,121.6 237.5,120.1 239.6,119.1 239.6,120.5 				"/>
				<polyline class="st0" points="239.1,122.4 239.1,120.9 241.2,119.9 241.2,121.4 				"/>
				<polyline class="st0" points="240.6,123 240.6,121.8 242.7,120.8 242.7,121.9 				"/>
			</g>
			<g>
				<polyline class="st0" points="238.8,119.3 238.8,117.8 240.9,116.8 240.9,118.2 				"/>
				<polyline class="st0" points="240.4,120.2 240.4,118.7 242.5,117.6 242.5,119.1 				"/>
				<polyline class="st0" points="241.9,121 241.9,119.5 244,118.5 244,119.9 				"/>
				<polyline class="st0" points="243.5,121.6 243.5,120.4 245.6,119.3 245.6,120.5 				"/>
			</g>
			<g>
				<polyline class="st0" points="226,124.3 226,122.6 228.1,121.6 228.1,122.9 				"/>
				<polyline class="st0" points="227.6,125.1 227.6,123.4 229.7,122.4 229.7,123.8 				"/>
				<polyline class="st0" points="229.1,126 229.1,124.3 231.2,123.3 231.2,124.6 				"/>
				<polyline class="st0" points="230.6,126.8 230.6,125.1 232.7,124.1 232.8,125.5 				"/>
				<polyline class="st0" points="232.2,127.7 232.2,126 234.3,125 234.3,126.4 				"/>
				<polyline class="st0" points="233.7,129.3 233.7,126.8 235.8,125.8 				"/>
			</g>
			<polyline class="st0" points="199.2,147.8 195.5,146 197.5,145 198.1,145.3 201.3,143.6 			"/>
			<line class="st0" x1="201.7" y1="146.6" x2="198.7" y2="145"/>
			<polyline class="st0" points="199.7,144.4 199.7,142.1 205.2,144.9 			"/>
			
				<ellipse transform="matrix(0.2857 -0.9583 0.9583 0.2857 14.2048 336.0732)" class="st0" cx="232.5" cy="158.5" rx="1.9" ry="1.4"/>
			
				<ellipse transform="matrix(0.2857 -0.9583 0.9583 0.2857 40.2588 348.9476)" class="st0" cx="254.2" cy="147.5" rx="1.9" ry="1.4"/>
			<path class="st4" d="M271.7,117.4c0.2-0.8,0.8-1.5,1.7-1.7c1.2-0.2,2.3,0.5,2.6,1.6c0.2,0.8-0.1,1.5-0.7,2"/>
			<path class="st4" d="M270.1,116.4c0.2-0.8,0.8-1.5,1.7-1.7c0.8-0.2,1.7,0.1,2.1,0.7"/>
			<path class="st4" d="M268.4,115.4c0.2-0.8,0.8-1.5,1.7-1.7c0.8-0.2,1.7,0.1,2.1,0.7"/>
			<path class="st4" d="M266.6,114.5c0.2-0.8,0.8-1.5,1.7-1.7c0.8-0.2,1.7,0.1,2.1,0.7"/>
			<line class="st4" x1="258.3" y1="114.1" x2="258.3" y2="116.8"/>
			<line class="st4" x1="259.6" y1="113.9" x2="259.6" y2="116.1"/>
			<path class="st5" d="M169.8,100.8c-2.2-0.8-3-4.2-1.7-7.5c1.2-3.3,4-5.3,6.2-4.5c2.2,0.8,3,4.2,1.7,7.5c-0.2,0.5-0.4,1-0.7,1.4"
				/>
			<path class="st5" d="M167.7,91.4c1.3-2.3,3.5-3.7,5.3-3.2l1.4,0.6"/>
			<path class="st5" d="M168.7,100.3"/>
			<path class="st6" d="M172.8,88.1l0.9-0.5c0,0,3.4,0.7,3.7,4.8v4.7"/>
			<path class="st6" d="M163.9,99c0,0-0.3-6.4,1.9-7.4l1.3,0.6c0,0,0.4,0.7,0,1.7c-0.4,1-0.5,5.6-0.4,6.4"/>
			<path class="st6" d="M165.9,91.5l0.6-0.3l1.3,0.6c0,0,0.3,0.5,0.2,1.2c-0.1,0.7-1.5,6,0.7,7.3"/>
			<polyline class="st6" points="175.2,98.6 175.1,97.3 174.5,97.1 169.8,99.4 170.5,99.6 170.6,100.6 			"/>
			<g>
				<line class="st7" x1="172.3" y1="92.7" x2="172.4" y2="95.4"/>
				<line class="st7" x1="171.2" y1="94.6" x2="173.6" y2="93.6"/>
			</g>
			
				<ellipse transform="matrix(0.9011 -0.4336 0.4336 0.9011 -23.6403 101.7371)" class="st7" cx="211.2" cy="102.7" rx="1.4" ry="1.9"/>
			<text transform="matrix(0.7325 -0.3565 6.281000e-02 0.998 237.2572 148.8656)" class="st8 st9">PUSH</text>
		</g>
		<g>
			<path class="st10" d="M47.4,171.3l3.2-1.6l2.5,1.3l0.6,0.1l36.4,17.6l0.5,1.1l3.7-1.8l0.4,1.2l-1.1,0.5c0,0-1.6,0.9-1.1,2.5
				c0,0,0.8,1,1.8-0.3l0.4,0.3l0.2,0.9l-6.5,3.6h-0.5l-0.1,7.9c0,0,0,1.3-1.6,0.6s-38.3-19.1-38.3-19.1s-0.7-0.6-0.6-2.1
				c0.1-1.5-0.1-12.1-0.1-12.1L47.4,171.3z"/>
			<g>
				<path class="st11" d="M47.5,173.9c0-1.7,1.1-1.1,1.1-1.1l2.6,1.2c-0.1-0.9,0.5-0.7,0.5-0.7s32.6,16.3,34.3,17.1
					c1.7,0.8,1.3,1.8,1.3,1.8s0,10.7,0,12.2c0,1.4-1.6,0.6-1.6,0.6s-36.6-18.2-37.4-18.7c-0.8-0.4-0.8-1.3-0.8-1.3V172
					c0,0-0.1-0.6,0.7-1c0.8-0.4,2.1-1,2.1-1s0.5-0.3,1,0c0.5,0.2,2.1,1.2,2.1,1.2"/>
				<line class="st11" x1="47.8" y1="171.3" x2="51" y2="172.8"/>
				<path class="st11" d="M51.1,173.4c0,0-0.1-0.8,0.6-1.2c0,0,0.1,0,0.1-0.1c0.8-0.4,2.1-0.9,2.1-0.9l36.2,17.7
					c0,0,0.3,0.2,0.4,0.8"/>
				<line class="st11" x1="51.6" y1="172.4" x2="87.5" y2="190.3"/>
				<path class="st11" d="M85.9,205.2l1.2,0.6c0,0,0.7,0,0.7-1.1c0-1.1,0-7.8,0-7.8"/>
				<path class="st11" d="M87.1,191.3c0,0,0.1-0.9,0.7-1.2c0.6-0.3,2.3-1.1,2.3-1.1"/>
				<path class="st11" d="M87.3,190.7c0.4,0.4,1.1,0.2,1.1,0.2l5.8-2.9l0.5,0.1v0.9c0,0,0.3,0.3-0.5,0.6c0,0-1.8,0.1-1.8,2.6
					c0,0,0.5,1.6,1.9,0l0.5,0.1l0.1,0.8c0,0,0.1,0.4-0.6,0.8c-0.7,0.4-5.9,3-5.9,3s-0.8,0-1.1-0.2"/>
				<line class="st11" x1="88.3" y1="196.4" x2="88.2" y2="191"/>
				<ellipse transform="matrix(0.5 -0.866 0.866 0.5 -121.3766 174.1372)" class="st12" cx="90.1" cy="192.2" rx="1.5" ry="0.9"/>
				<ellipse class="st13" cx="54.2" cy="172.5" rx="0.9" ry="0.4"/>
				<ellipse class="st13" cx="87.4" cy="188.9" rx="0.9" ry="0.4"/>
				<polygon class="st14" points="74,198.4 67.1,194.9 67.1,188.8 74,192.3 				"/>
				<polygon class="st14" points="56.6,187.7 49.7,184.2 49.7,179.7 56.6,183.2 				"/>
				<polygon class="st14" points="64.7,192 59.2,189.2 59.2,185 64.7,187.8 				"/>
				<path class="st14" d="M75.5,194.1c0-0.9,0.4-0.7,0.4-0.7l6,3c0,0,0.7,0.3,0.7,1.1s0,4.4,0,4.4s0.2,0.9-0.7,0.5c-1-0.5-6-3-6-3
					c-0.1,0-0.2-0.1-0.2-0.2c-0.1-0.1-0.1-0.2-0.1-0.3L75.5,194.1z"/>
				<path class="st11" d="M61.7,179.6l20.5,10.2c0,0,0.7,0.4,0.7,1s0,3.4,0,3.4s0.1,0.9-0.6,0.6s-20.4-10.2-20.4-10.2
					s-0.7-0.5-0.8-1.3c-0.1-1.2,0-3.3,0-3.3S61.2,179.4,61.7,179.6z"/>
			</g>
		</g>
		<g>
			<line class="st15" x1="61" y1="171.6" x2="109.8" y2="163.4"/>
			<line class="st16" x1="61" y1="171.6" x2="109.8" y2="163.4"/>
		</g>
		<line class="st15" x1="91.1" y1="198.6" x2="146.7" y2="187.6"/>
		<line class="st16" x1="91.1" y1="198.6" x2="146.7" y2="187.6"/>
	</g>
</g>
<g id="HIC_Up">
	<g>
		<g>
			<path class="st10" d="M113.1,50.5l18.6-9.2l0.1-3.7l1.4-0.5l-0.4-1.5l-1-1l0.3-1.2c0,0,1.4-1,2.3-1c0.9,0,2.6,0.1,2.6,1
				c0,0.9,0.2,1.6,0.2,1.6l-1,0.7v1.6c0,0,1.4,0.5,1.2,1.2l-0.1,1.9l1.4,1.1h4.1l-1.9-1.3v-1l2.8-1.4c0,0-1.5-2.3-0.3-2.6
				c1.3-0.4,2.7-0.6,3.1,0l0.9,1.4l0.3-4.6l1.8-0.7l0.2,2.1l1.2-0.5l0.1-2.3l1.8-1.2v1.4l1.6-0.4l-0.3-1.6L156,28v1.9l0.6-0.1
				l0.1-2.1l2.1-1.4l0.3,2l1.3-0.5l-0.2-2l2-1.2l0.1,1.1l15.6-7.9l23.8,12l0.1,1.2l-18.1,9.6l12.1,6c0,0,0.6-1.4,2-1.3l-0.6-1.3
				c0,0-2.2-2.4,0.5-3.3c0,0,2.4-0.2,2.7,0.5c0.3,0.6,1.6,0.6,0.5,2.3l-0.8,0.7l0.3,1.2c0,0,1,0.1,1,0.9v3.3l3.2,1.4l0.3,1.5
				l-6.9,3.4l-8.6-4.2l-8.6,4.5l-0.4,3.6l-3.1,1.8l2.6,1.8v1.3l-19.4,10.1l-4.1-2l-2.2,0.7l-26.5-13.2l-0.4-1.1l-14.6-7.4
				L113.1,50.5z"/>
			<g>
				<polyline class="st0" points="201.6,49.7 204.7,51.3 197.8,54.8 189.7,50.8 180.7,55.3 180.5,58.8 177.4,60.4 				"/>
				<polyline class="st0" points="198.7,28.2 201.8,29.8 182.1,39.9 195.9,46.8 				"/>
				<polyline class="st0" points="162.5,25.7 178.4,18 192.9,25.3 				"/>
				<polyline class="st0" points="127.4,58.1 113.1,50.8 131.8,41.3 				"/>
				<polyline class="st0" points="204.7,51.3 204.7,52.7 197.8,56.2 189.7,52.2 180.7,56.7 180.5,60.2 177.4,61.8 				"/>
				<polyline class="st0" points="201.9,29.9 201.8,31.2 183.4,40.6 				"/>
				<polyline class="st0" points="156.8,73.2 160.5,75 180.2,64.9 180.1,63.7 				"/>
				<polyline class="st0" points="127.4,59.5 113.1,52.2 113.1,50.8 				"/>
				<line class="st0" x1="160.5" y1="73.6" x2="160.5" y2="75"/>
				<line class="st0" x1="189.7" y1="50.8" x2="189.7" y2="52.2"/>
				<line class="st0" x1="197.8" y1="54.8" x2="197.8" y2="56.2"/>
				<polyline class="st0" points="137.1,40.6 138.6,41.5 142.5,41.5 				"/>
				<polyline class="st0" points="143.1,38 140.7,39.3 140.7,40.4 148.8,44.4 				"/>
				<path class="st0" d="M127.5,55.3l0.2,5.1l26.7,13.4c0,0,1.7,0.1,3.3-1.6l2.9,1.3l19.6-10l-2.9-1.4l-0.1-5l-26.8-13.4l-17.7,9
					l-0.6-0.1l-1.5,0.7l-1.1,0.2l-2.1,1.5l27,13.4l22.3-11"/>
				<line class="st0" x1="177.2" y1="62.3" x2="157.6" y2="72.3"/>
				<line class="st0" x1="157.2" y1="67.1" x2="157.3" y2="72.4"/>
				<line class="st0" x1="154.4" y1="68.4" x2="154.3" y2="73.8"/>
				<polyline class="st0" points="147.6,65 147.6,70.4 152.9,67.7 				"/>
				<polyline class="st0" points="140.9,61.9 140.9,66.9 146.1,64.4 				"/>
				<polyline class="st0" points="134.3,58.4 134.3,63.5 139.3,61 				"/>
				<line class="st0" x1="127.7" y1="60.4" x2="132.8" y2="57.8"/>
				<g>
					<ellipse class="st17" cx="134.4" cy="33.7" rx="2.6" ry="1.3"/>
					<path class="st2" d="M136.2,37.6c0.1,0.1,0.2,0.2,0.2,0.4c0,0.5-0.9,0.9-1.9,0.9s-1.9-0.4-1.9-0.9c0-0.1,0.1-0.3,0.2-0.4"/>
					<path class="st18" d="M136.1,36c-0.1,0.4-0.8,0.7-1.8,0.6c-0.9-0.1-1.6-0.6-1.5-1"/>
					<path class="st18" d="M135.8,36.5c0.2,0.2,0.2,0.3,0.2,0.5c-0.1,0.4-0.8,0.7-1.8,0.6s-1.6-0.6-1.5-1c0-0.1,0.1-0.2,0.2-0.3"/>
					<path class="st17" d="M136,37.1c0.6,0.2,1,0.6,1,1c0,0.7-1.2,1.3-2.6,1.3c-1.4,0-2.6-0.6-2.6-1.3c0-0.5,0.5-0.9,1.2-1.1"/>
					<path class="st17" d="M131.8,33.7v0.9c0,0.7,1.2,1.3,2.6,1.3c1.4,0,2.6-0.6,2.6-1.3v-0.9"/>
					<path class="st17" d="M131.8,38v4.7c0,0.7,1.2,1.3,2.6,1.3c1.4,0,2.6-0.6,2.6-1.3V38"/>
					<path class="st18" d="M135.8,37.4c0.2,0.2,0.2,0.3,0.2,0.5c-0.1,0.4-0.8,0.7-1.8,0.6c-0.9-0.1-1.6-0.6-1.5-1
						c0-0.1,0.1-0.3,0.3-0.4"/>
					<line class="st2" x1="133.1" y1="34.2" x2="135.4" y2="33.1"/>
					<line class="st2" x1="135.2" y1="33.9" x2="133.6" y2="33.2"/>
				</g>
				<g>
					<ellipse class="st17" cx="195.9" cy="20.8" rx="2.6" ry="1.3"/>
					<path class="st2" d="M197.6,24.7c0.1,0.1,0.2,0.2,0.2,0.4c0,0.5-0.9,0.9-1.9,0.9c-1.1,0-1.9-0.4-1.9-0.9c0-0.1,0.1-0.3,0.2-0.4
						"/>
					<path class="st18" d="M197.5,23.1c-0.1,0.4-0.8,0.7-1.8,0.6s-1.6-0.6-1.5-1"/>
					<path class="st18" d="M197.3,23.5c0.2,0.2,0.2,0.3,0.2,0.5c-0.1,0.4-0.8,0.7-1.8,0.6c-0.9-0.1-1.6-0.6-1.5-1
						c0-0.1,0.1-0.2,0.2-0.3"/>
					<path class="st17" d="M197.4,24.2c0.6,0.2,1,0.6,1,1c0,0.7-1.2,1.3-2.6,1.3c-1.4,0-2.6-0.6-2.6-1.3c0-0.5,0.5-0.9,1.2-1.1"/>
					<path class="st17" d="M193.2,20.8v0.9c0,0.7,1.2,1.3,2.6,1.3c1.4,0,2.6-0.6,2.6-1.3v-0.9"/>
					<path class="st17" d="M193.2,25v4.7c0,0.7,1.2,1.3,2.6,1.3c1.4,0,2.6-0.6,2.6-1.3V25"/>
					<path class="st18" d="M197.3,24.4c0.2,0.2,0.2,0.3,0.2,0.5c-0.1,0.4-0.8,0.7-1.8,0.6c-0.9-0.1-1.6-0.6-1.5-1
						c0-0.1,0.1-0.3,0.3-0.4"/>
					<line class="st2" x1="194.5" y1="21.3" x2="196.8" y2="20.1"/>
					<line class="st2" x1="196.6" y1="21" x2="195" y2="20.2"/>
				</g>
				<g>
					<ellipse class="st17" cx="198.8" cy="42" rx="2.6" ry="1.3"/>
					<path class="st2" d="M200.6,45.9c0.1,0.1,0.2,0.2,0.2,0.4c0,0.5-0.9,0.9-1.9,0.9c-1.1,0-1.9-0.4-1.9-0.9c0-0.1,0.1-0.3,0.2-0.4
						"/>
					<path class="st18" d="M200.4,44.3c-0.1,0.4-0.8,0.7-1.8,0.6c-0.9-0.1-1.6-0.6-1.5-1"/>
					<path class="st18" d="M200.2,44.7c0.2,0.2,0.2,0.3,0.2,0.5c-0.1,0.4-0.8,0.7-1.8,0.6s-1.6-0.6-1.5-1c0-0.1,0.1-0.2,0.2-0.3"/>
					<path class="st17" d="M200.4,45.4c0.6,0.2,1,0.6,1,1c0,0.7-1.2,1.3-2.6,1.3c-1.4,0-2.6-0.6-2.6-1.3c0-0.5,0.5-0.9,1.2-1.1"/>
					<path class="st17" d="M196.2,42v0.9c0,0.7,1.2,1.3,2.6,1.3c1.4,0,2.6-0.6,2.6-1.3V42"/>
					<path class="st17" d="M196.2,46.3v4.7c0,0.7,1.2,1.3,2.6,1.3c1.4,0,2.6-0.6,2.6-1.3v-4.7"/>
					<path class="st18" d="M200.2,45.6c0.2,0.2,0.2,0.3,0.2,0.5c-0.1,0.4-0.8,0.7-1.8,0.6c-0.9-0.1-1.6-0.6-1.5-1
						c0-0.1,0.1-0.3,0.3-0.4"/>
					<line class="st2" x1="197.5" y1="42.5" x2="199.8" y2="41.3"/>
					<line class="st2" x1="199.6" y1="42.2" x2="197.9" y2="41.5"/>
				</g>
				<g>
					<polyline class="st19" points="162.4,48 162.4,44.1 160.2,45.1 160.2,48.6 					"/>
					<polyline class="st19" points="165.7,46.4 165.7,42.5 163.4,43.5 163.4,47.1 163.9,47.3 162.7,48 					"/>
					<polyline class="st19" points="168.8,44.8 168.8,40.9 166.6,42 166.6,45.5 167.1,45.7 165.9,46.4 					"/>
					<polyline class="st19" points="172,43.2 172,39.3 169.8,40.4 169.8,43.9 170.3,44.1 169.1,44.8 					"/>
					<polyline class="st19" points="172.3,43.2 173.5,42.6 173,42.4 173,38.8 175.2,37.8 175.2,41.7 181.3,38.7 179.4,37.7 					"/>
				</g>
				<g>
					<polyline class="st19" points="160.3,45.1 160.3,43 158,44.1 158,47.4 					"/>
					<polyline class="st19" points="163.5,43.5 163.5,41.4 161.2,42.5 161.2,44.6 					"/>
					<polyline class="st19" points="166.7,41.8 166.7,39.8 164.4,40.9 164.4,43 					"/>
					<polyline class="st19" points="169.9,40.3 169.8,38.2 167.6,39.3 167.6,41.4 					"/>
					<polyline class="st19" points="173.1,38.7 173,36.7 170.8,37.8 170.8,39.8 					"/>
				</g>
				<g>
					<polyline class="st19" points="158.1,43.9 158,41.9 155.8,43 155.8,46.3 					"/>
					<polyline class="st19" points="161.3,42.3 161.3,40.3 159,41.4 159,43.4 					"/>
					<polyline class="st19" points="164.5,40.7 164.4,38.7 162.2,39.8 162.2,41.9 					"/>
					<polyline class="st19" points="167.7,39.2 167.6,37.1 165.4,38.2 165.4,40.2 					"/>
					<polyline class="st19" points="170.8,37.6 170.8,35.6 168.6,36.7 168.6,38.6 					"/>
					<polyline class="st19" points="173.9,38.2 173.9,34.1 171.6,35.1 171.6,37.1 					"/>
					<polyline class="st19" points="177.1,34.5 177,32.5 174.8,33.6 174.8,37.9 					"/>
				</g>
				<g>
					<polyline class="st19" points="156,42.8 156,40.8 153.7,41.9 153.7,45.1 					"/>
					<polyline class="st19" points="159.2,41.2 159.2,39.2 157,40.3 157,42.3 					"/>
					<polyline class="st19" points="162.4,39.6 162.4,37.6 160.1,38.7 160.1,40.8 					"/>
					<polyline class="st19" points="165.6,38 165.6,36 163.3,37.1 163.3,39.1 					"/>
					<polyline class="st19" points="168.8,36.5 168.8,34.5 166.5,35.6 166.5,37.5 					"/>
					<polyline class="st19" points="171.8,37.1 171.8,32.9 169.6,34 169.6,36 					"/>
					<polyline class="st19" points="175,33.4 175,31.4 172.7,32.5 172.7,34.6 					"/>
				</g>
				<g>
					<polyline class="st19" points="153.9,41.6 153.9,39.6 151.7,40.7 151.7,44.2 					"/>
					<polyline class="st19" points="157.2,40 157.2,38 154.9,39.1 154.9,41.1 					"/>
					<polyline class="st19" points="160.3,38.4 160.3,36.4 158.1,37.5 158.1,39.6 					"/>
					<polyline class="st19" points="163.5,36.9 163.5,34.8 161.3,35.9 161.3,37.9 					"/>
					<polyline class="st19" points="166.7,35.3 166.7,33.3 164.5,34.4 164.5,36.3 					"/>
					<polyline class="st19" points="169.8,35.9 169.7,31.7 167.5,32.8 167.5,34.8 					"/>
					<polyline class="st19" points="172.9,32.2 172.9,30.2 170.7,31.3 170.7,33.5 					"/>
				</g>
				<g>
					<polyline class="st19" points="151.7,40.5 151.7,38.5 149.5,39.6 149.5,43.5 148,42.7 					"/>
					<polyline class="st19" points="155,38.9 155,36.9 152.7,38 152.7,40 					"/>
					<polyline class="st19" points="158.1,37.3 158.1,35.3 155.9,36.4 155.9,38.5 					"/>
					<polyline class="st19" points="161.3,35.7 161.3,33.7 159.1,34.8 159.1,36.8 					"/>
					<polyline class="st19" points="164.5,34.2 164.5,32.2 162.3,33.3 162.3,35.2 					"/>
					<polyline class="st19" points="167.6,34.8 167.6,30.6 165.3,31.7 165.3,33.7 					"/>
					<polyline class="st19" points="170.7,31.1 170.7,29.1 168.5,30.2 168.5,32.3 					"/>
				</g>
				<g>
					<polyline class="st19" points="149.5,39.6 149.5,37.5 147.3,38.6 147.2,42.3 145.8,41.6 					"/>
					<polyline class="st19" points="152.8,38 152.8,35.9 150.5,37 150.5,39.1 					"/>
					<polyline class="st19" points="155.9,36.3 155.9,34.3 153.7,35.4 153.7,37.5 					"/>
					<polyline class="st19" points="159.1,34.8 159.1,32.7 156.9,33.8 156.9,35.9 					"/>
					<polyline class="st19" points="162.3,33.2 162.3,31.2 160.1,32.3 160.1,34.3 					"/>
					<polyline class="st19" points="165.4,33.9 165.4,29.7 163.1,30.8 163.1,32.8 					"/>
					<polyline class="st19" points="168.5,30.1 168.5,28.1 166.3,29.2 166.3,31.1 					"/>
				</g>
				<g>
					<polyline class="st19" points="147.5,38.5 147.5,36.4 145.2,37.5 145.1,41.3 141,39.3 					"/>
					<polyline class="st19" points="150.7,36.8 150.7,34.8 148.4,35.9 148.4,38 					"/>
					<polyline class="st19" points="153.9,35.2 153.8,33.2 151.6,34.3 151.6,36.4 					"/>
					<polyline class="st19" points="157.1,33.7 157,31.6 154.8,32.7 154.8,34.8 					"/>
					<polyline class="st19" points="160.3,32.1 160.2,30.1 158,31.2 158,33.2 					"/>
					<polyline class="st19" points="163.3,32.8 163.3,28.6 161,29.7 161,31.6 					"/>
					<polyline class="st19" points="166.5,29 166.4,27 164.2,28.1 164.2,30.2 					"/>
				</g>
				<g>
					<polyline class="st19" points="151.7,34.2 151.7,32.2 149.4,33.3 149.4,35.4 					"/>
					<polyline class="st19" points="154.9,32.7 154.9,30.6 152.6,31.7 152.6,33.7 					"/>
					<polyline class="st19" points="158.1,31.1 158.1,29.1 155.8,30.2 155.8,32.1 					"/>
					<polyline class="st19" points="161.1,31.7 161.1,27.6 158.8,28.6 158.8,30.6 					"/>
					<polyline class="st19" points="164.3,28 164.3,26 162,27.1 162,29.2 					"/>
				</g>
				<g>
					<polyline class="st19" points="149.6,33 149.6,31 147.3,32.1 147.3,36.1 					"/>
					<polyline class="st19" points="152.8,31.5 152.8,29.4 150.5,30.5 150.5,32.5 					"/>
					<polyline class="st19" points="156,29.9 156,27.9 153.7,29 153.7,30.9 					"/>
					<polyline class="st19" points="159,30.5 159,26.4 156.8,27.4 156.8,29.4 					"/>
					<polyline class="st19" points="162.2,26.8 162.2,24.8 159.9,25.9 159.9,27.9 					"/>
				</g>
				<polyline class="st19" points="162,49.7 181.4,39.8 181.5,38.8 				"/>
				<g>
					<ellipse class="st20" cx="177.8" cy="35.8" rx="2.2" ry="1.1"/>
					<path class="st21" d="M179.3,38.9c0.1,0.1,0.1,0.2,0.1,0.3c0,0.4-0.7,0.8-1.6,0.8c-0.9,0-1.6-0.3-1.6-0.8c0-0.1,0-0.2,0.1-0.3"
						/>
					<path class="st22" d="M179.2,37.7c-0.1,0.4-0.7,0.6-1.4,0.5c-0.7-0.1-1.3-0.5-1.2-0.9"/>
					<path class="st22" d="M179,38c0.1,0.1,0.2,0.3,0.2,0.4c-0.1,0.4-0.7,0.6-1.4,0.5c-0.7-0.1-1.3-0.5-1.2-0.9
						c0-0.1,0.1-0.2,0.1-0.2"/>
					<path class="st20" d="M175.7,35.8v0.8c0,0.6,1,1.1,2.2,1.1c1.2,0,2.2-0.5,2.2-1.1v-0.8"/>
					<path class="st22" d="M179,38.8c0.1,0.1,0.2,0.3,0.2,0.4c-0.1,0.4-0.7,0.6-1.4,0.5c-0.7-0.1-1.3-0.5-1.2-0.9
						c0-0.1,0.1-0.2,0.2-0.3"/>
					<line class="st21" x1="176.8" y1="36.2" x2="178.6" y2="35.2"/>
					<line class="st21" x1="178.5" y1="36" x2="177.2" y2="35.3"/>
				</g>
				<g>
					<ellipse class="st23" cx="144.7" cy="36" rx="2" ry="1"/>
					<path class="st24" d="M145.2,39.9c-0.1,0-0.3,0-0.5,0c-0.8,0-1.5-0.3-1.5-0.7c0-0.1,0-0.2,0.1-0.3"/>
					<path class="st25" d="M145.2,38.2c-0.2,0-0.4,0-0.6,0c-0.7-0.1-1.2-0.5-1.2-0.8"/>
					<path class="st25" d="M145.1,38.9c-0.2,0-0.3,0-0.5,0c-0.7-0.1-1.2-0.5-1.2-0.8c0-0.1,0.1-0.2,0.1-0.2"/>
					<path class="st23" d="M142.7,36v0.7c0,0.5,0.9,1,2,1"/>
					<path class="st25" d="M145.1,39.6c-0.2,0-0.3,0-0.5,0c-0.7-0.1-1.2-0.5-1.2-0.8c0-0.1,0.1-0.2,0.2-0.3"/>
					<line class="st24" x1="143.7" y1="36.4" x2="145.5" y2="35.5"/>
					<line class="st24" x1="145.3" y1="36.2" x2="144.1" y2="35.6"/>
				</g>
			</g>
		</g>
		<line class="st15" x1="112.1" y1="55.6" x2="112.1" y2="151.8"/>
		<line class="st15" x1="205" y1="55.1" x2="205" y2="159.1"/>
		<line class="st16" x1="112.1" y1="55.6" x2="112.1" y2="152"/>
		<line class="st16" x1="205" y1="55.1" x2="205" y2="159.1"/>
	</g>
</g>
<g id="Lines_x2F_Numbers">
	<line class="st15" x1="316.1" y1="153.6" x2="248.1" y2="133.8"/>
	<line class="st26" x1="316.1" y1="153.6" x2="248.1" y2="133.8"/>
	<line class="st27" x1="232.1" y1="28.3" x2="192.8" y2="99.7"/>
	<line class="st28" x1="232.1" y1="28.3" x2="192.8" y2="99.7"/>
	<g>
		<line class="st29" x1="279.6" y1="57.5" x2="245.1" y2="117.4"/>
		<line class="st30" x1="279.6" y1="57.5" x2="245.1" y2="117.4"/>
	</g>
	<line class="st31" x1="215.3" y1="204.7" x2="174.7" y2="170.6"/>
	<line class="st26" x1="215.3" y1="204.7" x2="174.7" y2="170.6"/>
	<g>
		<circle class="st32" cx="117.4" cy="26.5" r="11.2"/>
		<g>
			<text transform="matrix(1 0 0 1 112.5558 31.663)" class="st10 st33 st34">2</text>
		</g>
	</g>
	<g>
		<circle class="st32" cx="60.8" cy="211.4" r="11.2"/>
		<g>
			<text transform="matrix(1 0 0 1 55.9887 216.9066)" class="st10 st33 st34">1</text>
		</g>
	</g>
	<g>
		<circle class="st32" cx="241.6" cy="15.5" r="11.2"/>
		<g>
			<text transform="matrix(1 0 0 1 237.3717 21.172)" class="st10 st33 st34">3</text>
		</g>
	</g>
	<g>
		<circle class="st32" cx="291.5" cy="46.3" r="11.2"/>
		<g>
			<text transform="matrix(1 0 0 1 286.5168 51.9643)" class="st10 st33 st34">4</text>
		</g>
	</g>
	<g>
		<circle class="st32" cx="332" cy="155.8" r="11.2"/>
		<g>
			<text transform="matrix(1 0 0 1 327.5325 161.422)" class="st10 st33 st34">5</text>
		</g>
	</g>
	<g>
		<circle class="st32" cx="226.3" cy="215.6" r="11.2"/>
		<g>
			<text transform="matrix(1 0 0 1 221.7658 221.1006)" class="st10 st33 st34">6</text>
		</g>
	</g>
</g>
</svg>
