<?xml version="1.0" encoding="utf-8"?>
<!-- Generator: Adobe Illustrator 26.0.3, SVG Export Plug-In . SVG Version: 6.00 Build 0)  -->
<svg version="1.1" id="Layer_2_00000167363444302865072190000009925460616078146179_"
	 xmlns="http://www.w3.org/2000/svg" xmlns:xlink="http://www.w3.org/1999/xlink" x="0px" y="0px" viewBox="0 0 324 234"
	 style="enable-background:new 0 0 324 234;" xml:space="preserve">
<style type="text/css">
	.st0{fill:#D1D2D3;}
	.st1{fill:none;stroke:#221F1F;stroke-width:0.5;stroke-linecap:round;stroke-linejoin:round;stroke-miterlimit:10;}
	.st2{fill:none;stroke:#221F1F;stroke-width:0.5;stroke-linecap:round;stroke-linejoin:round;stroke-miterlimit:10.0004;}
	.st3{fill:#D0CFCD;}
	.st4{fill:none;stroke:#000000;stroke-width:0.5;stroke-linecap:round;stroke-linejoin:round;stroke-miterlimit:10;}
	
		.st5{clip-path:url(#SVGID_00000064333971488620007310000011717304693058185891_);fill:none;stroke:#221F1F;stroke-width:0.5;stroke-miterlimit:10;}
	
		.st6{clip-path:url(#SVGID_00000130606311696019402350000010501180704248267947_);fill:none;stroke:#221F1F;stroke-width:0.5;stroke-linecap:round;stroke-linejoin:round;stroke-miterlimit:10;}
	
		.st7{clip-path:url(#SVGID_00000076578143877577742080000009843594518518395283_);fill:none;stroke:#221F1F;stroke-width:0.5;stroke-linecap:round;stroke-linejoin:round;stroke-miterlimit:10;}
	
		.st8{clip-path:url(#SVGID_00000007389399827714399060000018020387845064410533_);fill:none;stroke:#221F1F;stroke-width:0.5;stroke-linecap:round;stroke-linejoin:round;stroke-miterlimit:10;}
	
		.st9{clip-path:url(#SVGID_00000111162851759966705440000012300427706055112889_);fill:none;stroke:#221F1F;stroke-width:0.5;stroke-linecap:round;stroke-linejoin:round;stroke-miterlimit:10;}
	
		.st10{clip-path:url(#SVGID_00000009585038359820235530000006153089470814435220_);fill:none;stroke:#221F1F;stroke-width:0.5;stroke-linecap:round;stroke-linejoin:round;stroke-miterlimit:10;}
	
		.st11{clip-path:url(#SVGID_00000093160879286003312720000016023593926166220475_);fill:none;stroke:#221F1F;stroke-width:0.5;stroke-linecap:round;stroke-linejoin:round;stroke-miterlimit:10;}
	
		.st12{clip-path:url(#SVGID_00000033337156553837330140000018212698118674970537_);fill:none;stroke:#221F1F;stroke-width:0.5;stroke-linecap:round;stroke-linejoin:round;stroke-miterlimit:10;}
	
		.st13{clip-path:url(#SVGID_00000026851267190050736470000004443761926566454422_);fill:none;stroke:#221F1F;stroke-width:0.5;stroke-linecap:round;stroke-linejoin:round;stroke-miterlimit:10;}
	
		.st14{clip-path:url(#SVGID_00000010994924239698607640000002969875822792234665_);fill:none;stroke:#221F1F;stroke-width:0.5;stroke-linecap:round;stroke-linejoin:round;stroke-miterlimit:10;}
	.st15{fill:none;stroke:#221F1F;stroke-width:0.5;stroke-miterlimit:10;}
	
		.st16{clip-path:url(#SVGID_00000083780375706294081650000003634235244222781341_);fill:none;stroke:#221F1F;stroke-width:0.5;stroke-linecap:round;stroke-linejoin:round;stroke-miterlimit:10;}
	
		.st17{clip-path:url(#SVGID_00000011721880607821956060000016964973989666790036_);fill:none;stroke:#221F1F;stroke-width:0.5;stroke-linecap:round;stroke-linejoin:round;stroke-miterlimit:10;}
	
		.st18{clip-path:url(#SVGID_00000101089949821780561040000006468458103805743501_);fill:none;stroke:#221F1F;stroke-width:0.5;stroke-linecap:round;stroke-linejoin:round;stroke-miterlimit:10;}
	
		.st19{clip-path:url(#SVGID_00000124856403331872370780000011238693503832635265_);fill:none;stroke:#221F1F;stroke-width:0.5;stroke-linecap:round;stroke-linejoin:round;stroke-miterlimit:10;}
	
		.st20{clip-path:url(#SVGID_00000154417200909518889950000005134636342140089235_);fill:none;stroke:#221F1F;stroke-width:0.5;stroke-linecap:round;stroke-linejoin:round;stroke-miterlimit:10;}
	
		.st21{clip-path:url(#SVGID_00000037655601237218113310000002915139135132279697_);fill:none;stroke:#221F1F;stroke-width:0.5;stroke-linecap:round;stroke-linejoin:round;stroke-miterlimit:10;}
	
		.st22{clip-path:url(#SVGID_00000159462610170110998230000002718298233900558746_);fill:none;stroke:#221F1F;stroke-width:0.5;stroke-linecap:round;stroke-linejoin:round;stroke-miterlimit:10;}
	
		.st23{clip-path:url(#SVGID_00000018947679158620508000000012895683166041101705_);fill:none;stroke:#221F1F;stroke-width:0.5;stroke-linecap:round;stroke-linejoin:round;stroke-miterlimit:10;}
	
		.st24{clip-path:url(#SVGID_00000054986555150634793740000013644841475078793917_);fill:none;stroke:#221F1F;stroke-width:0.5;stroke-linecap:round;stroke-linejoin:round;stroke-miterlimit:10;}
	
		.st25{clip-path:url(#SVGID_00000124121134327491480030000005948722329573040021_);fill:none;stroke:#221F1F;stroke-width:0.5;stroke-linecap:round;stroke-linejoin:round;stroke-miterlimit:10;}
	
		.st26{clip-path:url(#SVGID_00000034768180653210664570000011021144006937865613_);fill:none;stroke:#221F1F;stroke-width:0.5;stroke-linecap:round;stroke-linejoin:round;stroke-miterlimit:10;}
	
		.st27{clip-path:url(#SVGID_00000147914019042907326980000006309828643900402595_);fill:none;stroke:#221F1F;stroke-width:0.5;stroke-linecap:round;stroke-linejoin:round;stroke-miterlimit:10;}
	.st28{clip-path:url(#SVGID_00000131354948635010870410000016345966989544911747_);}
	.st29{fill:#221F1F;stroke:#FFFFFF;stroke-width:1.5;stroke-miterlimit:10;}
	.st30{fill:#FFFFFF;}
	.st31{fill:#221F1F;stroke:#FFFFFF;stroke-linecap:round;stroke-linejoin:round;stroke-miterlimit:10;}
</style>
<polygon class="st0" points="158.772,168.272 165.07,169.754 167.425,168.553 177.822,140.234 177.482,138.949 177.942,137.712 
	176.915,137.361 176.272,136.604 177.757,136.323 177.633,135.395 176.46,135.026 169.607,133.915 169.144,134.656 167.292,139.749 
	165.001,146.625 163.932,146.571 163.588,149.01 158.68,163.086 "/>
<polyline class="st1" points="208.755,77.706 195.518,75.004 194.712,76.305 192.396,75.851 191.624,76.078 "/>
<line class="st1" x1="233.163" y1="82.689" x2="214.304" y2="78.839"/>
<line class="st1" x1="239.252" y1="83.932" x2="236.103" y2="83.289"/>
<line class="st1" x1="265.201" y1="89.23" x2="240.539" y2="84.195"/>
<line class="st1" x1="291.712" y1="94.642" x2="267.161" y2="89.63"/>
<line class="st1" x1="300.376" y1="96.411" x2="293.11" y2="94.928"/>
<polyline class="st1" points="303.595,106.319 304.527,98.739 305.414,97.439 303.151,96.977 "/>
<polyline class="st1" points="189.486,79.956 188.846,80.916 176.083,115.421 176.101,117.794 176.133,119.772 175.991,120.36 
	172.806,129.151 172.611,124.159 "/>
<polyline class="st1" points="176.115,114.137 176.473,111.011 189.517,77.151 "/>
<path class="st1" d="M189.486,79.956"/>
<path class="st1" d="M173.166,129.32"/>
<line class="st1" x1="170.7" y1="130.905" x2="172.403" y2="131.197"/>
<polyline class="st1" points="175.141,150.364 174.849,148.226 179.653,135.812 286.869,157.732 266.987,212.606 266.987,215.036 
	"/>
<path class="st1" d="M311.636,108.188l0.069-3.071c0,0-0.365-0.706-1.037-0.537l-0.227-9.387l-2.22,5.63l-0.051,1.108
	l-12.112,32.779c0,0-1.06,2.952-0.984,5.602c0.076,2.65,0.64,3.201,0.111,4.337c-0.53,1.136-3.448,8.337-3.448,8.337l-0.228-3.795
	c0,0-0.116-0.218-0.303-0.327c-0.264-0.155-0.668-0.092-1.08,1.115l-3.112,7.929"/>
<polyline class="st1" points="311.497,105.371 309.354,110.917 309.303,108.987 310.009,107.109 310.026,106.369 310.75,104.542 "/>
<polyline class="st1" points="308.244,100.177 307.42,100.021 306.352,102.536 306.063,104.344 "/>
<line class="st1" x1="307.047" y1="104.672" x2="306.026" y2="104.417"/>
<line class="st1" x1="268.912" y1="224.029" x2="311.576" y2="107.947"/>
<polygon class="st1" points="267.758,218.774 268.426,216.393 268.426,215.349 265.544,214.722 261.408,223.202 261.032,230.179 
	264.5,230.972 265.669,228.758 265.836,224.163 267.173,220.696 "/>
<line class="st1" x1="262.072" y1="224.901" x2="264.269" y2="225.337"/>
<line class="st1" x1="262.041" y1="225.664" x2="264.238" y2="226.1"/>
<line class="st1" x1="262.01" y1="226.428" x2="264.206" y2="226.864"/>
<line class="st1" x1="261.979" y1="227.191" x2="264.175" y2="227.627"/>
<line class="st1" x1="261.948" y1="227.954" x2="264.144" y2="228.39"/>
<line class="st1" x1="261.917" y1="228.717" x2="264.113" y2="229.154"/>
<line class="st1" x1="261.885" y1="229.481" x2="264.082" y2="229.917"/>
<path class="st1" d="M267.758,218.774c0,0,0.796-0.051,0.884,1.379s0.286,6.382,0.286,6.382l-2.223,5.854l-1.959-0.418l-0.022-1.276
	"/>
<g>
	<g id="SPLINE_00000054260069330728002970000005306418353149151387_">
		<path class="st1" d="M250.6,170.493c-0.232,0.062-0.473,0.097-0.714,0.104s-0.484-0.013-0.719-0.061
			c-0.294-0.06-0.582-0.165-0.841-0.318c-0.121-0.072-0.236-0.154-0.342-0.247c-0.1-0.088-0.192-0.186-0.271-0.293
			c-0.076-0.102-0.14-0.212-0.19-0.329c-0.048-0.112-0.083-0.231-0.102-0.351c-0.019-0.119-0.022-0.241-0.009-0.361
			c0.013-0.122,0.041-0.241,0.083-0.356c0.044-0.119,0.103-0.232,0.173-0.338c0.074-0.111,0.16-0.213,0.256-0.306
			c0.101-0.098,0.211-0.186,0.329-0.263c0.123-0.081,0.254-0.151,0.389-0.21c0.284-0.124,0.588-0.2,0.898-0.231
			c0.314-0.031,0.633-0.016,0.941,0.047c0.208,0.043,0.413,0.107,0.607,0.196c0.183,0.083,0.356,0.188,0.512,0.315
			c0.145,0.118,0.275,0.255,0.379,0.41c0.098,0.145,0.173,0.305,0.217,0.474c0.043,0.163,0.056,0.335,0.039,0.503
			c-0.018,0.171-0.067,0.339-0.142,0.494c-0.079,0.165-0.187,0.315-0.312,0.448c-0.135,0.143-0.292,0.266-0.459,0.368
			c-0.044,0.027-0.088,0.052-0.134,0.076c-0.041,0.022-0.083,0.043-0.126,0.062c-0.13,0.06-0.266,0.11-0.403,0.15
			C250.64,170.482,250.62,170.488,250.6,170.493z"/>
	</g>
	<g id="SPLINE_00000164494342375396701060000006432299505817737137_">
		<path class="st1" d="M245.374,172.2c0.325-0.271,0.717-0.448,0.818-0.499c0.1-0.05,0.204-0.093,0.311-0.128
			c0.372-0.115,0.761-0.182,1.152-0.201c0.392-0.019,0.787,0.01,1.171,0.089c0.37,0.076,0.731,0.197,1.068,0.369
			c0.313,0.16,0.605,0.364,0.853,0.611c0.068,0.071,0.131,0.148,0.188,0.229c0.059,0.085,0.111,0.175,0.156,0.268
			c0.018,0.038,0.031,0.079,0.036,0.121c0.006,0.043,0.005,0.088,0.001,0.131v2.112"/>
	</g>
	<path class="st1" d="M250.552,165.303c0.025-0.059,0.047-0.119,0.067-0.18c0.024-0.072,0.045-0.145,0.064-0.219
		c0.041-0.158,0.06-0.228,0.099-0.391c0,0,0.2,0.043,0.237,0.051l3.178,0.65c0.089,0.018,0.176,0.045,0.26,0.081
		c0.079,0.034,0.156,0.076,0.225,0.127c0.066,0.047,0.126,0.102,0.177,0.165c0.048,0.059,0.127,0.189,0.127,0.189l-3.35,9.075
		c-0.039,0.106-0.108,0.201-0.19,0.28c-0.048,0.046-0.1,0.087-0.155,0.122c-0.06,0.039-0.123,0.072-0.188,0.1
		c-0.14,0.06-0.291,0.097-0.444,0.112c-0.156,0.015-0.315,0.007-0.467-0.024l-0.296-0.075l-4.666-1.143h0.001l-0.025-0.009
		l-0.038-0.035l-0.024-0.053l-0.015-0.077l-0.005-0.069l0,0l0.045-1.812"/>
	<g id="LINE_00000088824907763401547950000013963680198623051445_">
		<path class="st1" d="M254.074,168.098l-0.063-1.184l-0.045-0.304v0.001l-0.008-0.037l-0.056-0.117l-0.098-0.097l-0.131-0.068
			l-0.084-0.024l-5.726-1.171c-0.028-0.006-0.056,0.01-0.065,0.036l0,0l-2.59,6.981"/>
	</g>
</g>
<g>
	<g id="SPLINE_00000042013611075316009200000014764128780084758191_">
		<path class="st1" d="M213.305,163.099c-0.232,0.062-0.473,0.097-0.714,0.104s-0.484-0.013-0.719-0.061
			c-0.294-0.06-0.582-0.165-0.841-0.318c-0.121-0.072-0.236-0.154-0.342-0.247c-0.1-0.088-0.192-0.186-0.271-0.293
			c-0.076-0.102-0.14-0.212-0.19-0.329c-0.048-0.112-0.083-0.231-0.102-0.351c-0.019-0.119-0.022-0.241-0.009-0.361
			c0.013-0.122,0.041-0.241,0.083-0.356c0.044-0.119,0.103-0.232,0.173-0.338c0.074-0.111,0.16-0.213,0.256-0.306
			c0.101-0.098,0.211-0.186,0.329-0.263c0.123-0.081,0.254-0.151,0.389-0.21c0.284-0.124,0.588-0.2,0.898-0.231
			c0.314-0.031,0.633-0.016,0.941,0.047c0.208,0.043,0.413,0.107,0.607,0.196c0.183,0.083,0.356,0.188,0.512,0.315
			c0.145,0.118,0.275,0.255,0.379,0.41c0.098,0.145,0.173,0.305,0.217,0.474c0.043,0.163,0.056,0.335,0.039,0.503
			c-0.018,0.171-0.067,0.339-0.142,0.494c-0.079,0.165-0.187,0.315-0.312,0.448c-0.135,0.143-0.292,0.266-0.459,0.368
			c-0.044,0.027-0.088,0.052-0.134,0.076c-0.041,0.022-0.083,0.043-0.126,0.062c-0.13,0.06-0.266,0.11-0.403,0.15
			C213.344,163.088,213.324,163.094,213.305,163.099z"/>
	</g>
	<g id="SPLINE_00000096748726018798735590000014167081149836869774_">
		<path class="st1" d="M208.078,164.806c0.325-0.271,0.717-0.448,0.818-0.499c0.1-0.05,0.204-0.093,0.311-0.128
			c0.372-0.115,0.761-0.182,1.152-0.201c0.392-0.019,0.787,0.01,1.171,0.089c0.37,0.076,0.731,0.197,1.068,0.369
			c0.313,0.16,0.605,0.364,0.853,0.611c0.068,0.071,0.131,0.148,0.188,0.229c0.059,0.085,0.111,0.175,0.156,0.268
			c0.018,0.038,0.031,0.079,0.036,0.121c0.006,0.043,0.005,0.088,0.001,0.131v2.112"/>
	</g>
	<path class="st1" d="M213.257,157.909c0.025-0.059,0.047-0.119,0.067-0.18c0.024-0.072,0.045-0.145,0.064-0.219
		c0.041-0.158,0.06-0.228,0.099-0.391c0,0,0.2,0.043,0.237,0.051l3.178,0.65c0.089,0.018,0.176,0.045,0.26,0.081
		c0.079,0.034,0.156,0.076,0.225,0.127c0.066,0.047,0.126,0.102,0.177,0.165c0.048,0.059,0.127,0.189,0.127,0.189l-3.35,9.075
		c-0.039,0.106-0.108,0.201-0.19,0.28c-0.048,0.046-0.1,0.087-0.155,0.122c-0.06,0.039-0.123,0.072-0.188,0.1
		c-0.14,0.06-0.291,0.097-0.444,0.112c-0.156,0.015-0.315,0.007-0.467-0.024l-0.296-0.075l-4.666-1.143h0.001l-0.025-0.009
		l-0.038-0.035l-0.024-0.053l-0.015-0.077l-0.005-0.069l0,0l0.045-1.812"/>
	<g id="LINE_00000029758687463130002130000015540957293289047195_">
		<path class="st1" d="M216.778,160.704l-0.063-1.184l-0.045-0.304v0.001l-0.008-0.037l-0.056-0.117l-0.098-0.097l-0.131-0.068
			l-0.084-0.024l-5.726-1.171c-0.028-0.006-0.056,0.01-0.065,0.036l0,0l-2.59,6.981"/>
	</g>
</g>
<g>
	<g id="SPLINE_00000039853365113125514180000011861650032333998234_">
		<path class="st1" d="M177.009,155.705c-0.232,0.062-0.473,0.097-0.714,0.104s-0.484-0.013-0.719-0.061
			c-0.294-0.06-0.582-0.165-0.841-0.318c-0.121-0.072-0.236-0.154-0.342-0.247c-0.1-0.088-0.192-0.186-0.271-0.293
			c-0.076-0.102-0.14-0.212-0.19-0.329c-0.048-0.112-0.083-0.231-0.102-0.351c-0.019-0.119-0.022-0.241-0.009-0.361
			c0.013-0.122,0.041-0.241,0.083-0.356c0.044-0.119,0.103-0.232,0.173-0.338c0.074-0.111,0.16-0.213,0.256-0.306
			c0.101-0.098,0.211-0.186,0.329-0.263c0.123-0.081,0.254-0.151,0.389-0.21c0.284-0.124,0.588-0.2,0.898-0.231
			c0.314-0.031,0.633-0.016,0.941,0.047c0.208,0.043,0.413,0.107,0.607,0.196c0.183,0.083,0.356,0.188,0.512,0.315
			c0.145,0.118,0.275,0.255,0.379,0.41c0.098,0.145,0.173,0.305,0.217,0.474c0.043,0.163,0.056,0.335,0.039,0.503
			c-0.018,0.171-0.067,0.339-0.142,0.494c-0.079,0.165-0.187,0.315-0.312,0.448c-0.135,0.143-0.292,0.266-0.459,0.368
			c-0.044,0.027-0.088,0.052-0.134,0.076c-0.041,0.022-0.083,0.043-0.126,0.062c-0.13,0.06-0.265,0.11-0.403,0.15
			C177.048,155.694,177.029,155.699,177.009,155.705z"/>
	</g>
	<g id="SPLINE_00000026159657631513172880000006918823352276281769_">
		<path class="st1" d="M171.783,157.411c0.325-0.271,0.717-0.448,0.818-0.499c0.1-0.05,0.204-0.093,0.311-0.128
			c0.372-0.115,0.761-0.182,1.152-0.201c0.392-0.019,0.787,0.01,1.171,0.089c0.37,0.076,0.731,0.197,1.068,0.369
			c0.313,0.16,0.605,0.364,0.853,0.611c0.068,0.071,0.131,0.148,0.188,0.229c0.059,0.085,0.111,0.175,0.156,0.268
			c0.018,0.038,0.031,0.079,0.036,0.121c0.006,0.043,0.005,0.088,0.001,0.131v2.112"/>
	</g>
	<path class="st1" d="M176.961,150.514c0.025-0.059,0.047-0.119,0.067-0.18c0.024-0.072,0.045-0.145,0.064-0.219
		c0.041-0.158,0.06-0.228,0.099-0.391c0,0,0.2,0.043,0.237,0.051l3.178,0.65c0.089,0.018,0.176,0.045,0.26,0.081
		c0.079,0.034,0.156,0.076,0.225,0.127c0.066,0.047,0.126,0.102,0.177,0.165c0.048,0.059,0.127,0.189,0.127,0.189l-3.35,9.075
		c-0.039,0.106-0.108,0.201-0.19,0.28c-0.048,0.046-0.1,0.087-0.155,0.122c-0.06,0.039-0.123,0.072-0.188,0.1
		c-0.14,0.06-0.291,0.097-0.444,0.112c-0.156,0.015-0.315,0.007-0.467-0.024l-0.296-0.075l-4.666-1.143h0.001l-0.025-0.009
		l-0.038-0.035l-0.024-0.053l-0.015-0.077l-0.005-0.069l0,0l0.045-1.812"/>
	<g id="LINE_00000149378295660323851660000008659034153822350480_">
		<path class="st1" d="M180.482,153.309l-0.063-1.184l-0.045-0.304v0.001l-0.008-0.037l-0.056-0.117l-0.098-0.097l-0.131-0.068
			l-0.084-0.024l-5.726-1.171c-0.028-0.006-0.056,0.01-0.065,0.036l0,0l-2.59,6.981l-11.228,30.386l-2.41-0.511
			c0,0-0.887-0.114-1.288,0.859"/>
	</g>
</g>
<polyline class="st1" points="216.204,143.396 211.702,155.842 211.81,158.018 "/>
<path class="st1" d="M194.678,192.175c0,0,2.719-7.615,3.209-8.648s-0.326-1.74-0.326-1.74l-2.589-2.138l2.07-5.91
	c0,0,1.329-0.589,3.402-0.818c1.86-0.205,2.012-1.469,2.012-1.469l10.28-28.8l0.402,9.217"/>
<polygon class="st1" points="188.475,139.486 200.075,141.889 195.633,153.854 184.19,151.399 "/>
<line class="st1" x1="253.001" y1="151.052" x2="248.683" y2="162.661"/>
<polyline class="st1" points="230.139,202.343 234.057,203.12 245.612,171.02 "/>
<path class="st1" d="M230.864,202.523l-1.219,3.454c0,0-1.164,2.108,2.065,3.016"/>
<line class="st1" x1="265.05" y1="215.711" x2="148.866" y2="191.931"/>
<path class="st1" d="M249.784,159.694l-0.305-8.822l-3.192-0.658c0,0-0.721-0.219-1.159,0.94s-1.015,2.838-1.015,2.838
	s-0.533,1.065,0.345,2.225c0,0,0.971,1.003,0.564,2.131c-0.407,1.128-0.627,1.379-0.627,1.379s-0.313,0.815,1.065,1.128
	l-6.611,18.236c0,0-0.282,0.846-1.943,1.097s-2.413,0.501-2.413,0.501s-0.595,0-1.159,1.253s-1.598,4.167-1.598,4.167
	s-0.564,0.94,0.313,1.661s2.099,1.535,2.099,1.535s0.815,0.533,0.219,1.849c-0.595,1.316-1.911,4.857-1.911,4.857
	s-1.039-0.279-1.48,0.294s-0.617,1.763-0.617,1.763s-0.265,0.838,0.97,1.234l-2.601,6.304c0,0-1.146,2.381-4.232,1.719"/>
<path class="st1" d="M148.349,190.719l-0.066-2.59l11.821-31.478l1.063-0.398l1.395-3.652l0.996,0.199l2.191-6.043l-1.992-0.398
	l7.882-21.727l0.698,0.161l0.204-0.487l0.958-2.286c0,0,0.886-0.994,0.929,0.951l0.089,1.399"/>
<path class="st1" d="M161.063,156.603l-2.404,6.485l-0.056,4.976l6.933,1.454l0.224-0.503c0,0,1.156-0.093,1.707-0.699l-5.406-0.858
	l0.036-1.854l4.435,0.654"/>
<line class="st1" x1="151.305" y1="186.518" x2="158.608" y2="166.481"/>
<path class="st1" d="M156.761,187.751l-6.235-1.299c0,0-0.909,1.429,0.162,1.721s4.838,1.007,4.838,1.007
	S156.403,189.635,156.761,187.751z"/>
<path class="st1" d="M149.044,190.997l-0.881,2.569l-0.073,2.569l-1.395,3.45l-0.037,4.734l-1.064,2.312l-3.707-0.734l0.697-7.193
	l2.312-4.477l1.692-3.821l7.584,1.631c0,0,0.973,0.401,1.316-0.658s1.202-3.32,1.202-3.32"/>
<polyline class="st1" points="146.906,199.467 148.214,199.778 149.98,196.023 "/>
<polyline class="st1" points="148.151,196.417 148.214,208.027 146.19,207.685 146.128,205.63 "/>
<polyline class="st1" points="148.366,207.823 149.98,203.367 150.026,192.181 "/>
<polyline class="st1" points="150.189,195.651 191.408,204.231 192.537,204.897 192.666,212.787 "/>
<path class="st1" d="M155.776,190.556c0,0-0.441,2.325,2.365,3.247"/>
<path class="st1" d="M187.171,199.689c4.672,0.501,5.478-3.142,5.478-3.142l1.669-4.728l0.834,0.25v0.695l-0.6,1.382l0.073,0.757"/>
<path class="st1" d="M195.035,201.382c0,0-3.081-0.998-2.163-3.445l1.029-2.336c0,0,0.222-0.89,1.418-0.612s1.724,0.473,1.724,0.473
	l10.806-28.731"/>
<polyline class="st1" points="205.322,163.225 205.505,166.16 210.503,153.413 210.641,151.487 211.971,148.185 210.862,147.96 "/>
<line class="st1" x1="207.939" y1="156.105" x2="208.087" y2="159.366"/>
<polyline class="st1" points="212.079,154.743 211.897,150.92 212.183,150.4 211.971,148.185 "/>
<polyline class="st1" points="248.743,165.118 248.393,153.866 249.701,150.209 "/>
<line class="st1" x1="246.946" y1="153.368" x2="248.295" y2="153.636"/>
<g id="SPLINE_00000164483038663826391190000017124657414616540344_">
	<path class="st1" d="M245.184,156.024l-0.404-0.946c-0.013-0.03-0.02-0.063-0.021-0.096c-0.001-0.033,0.005-0.066,0.016-0.097
		l0.794-2.152c0.016-0.044,0.044-0.083,0.077-0.116c0.037-0.037,0.082-0.065,0.129-0.085c0.051-0.022,0.106-0.036,0.162-0.042
		c0.057-0.006,0.114-0.003,0.17,0.008l0.553,0.113c0.041,0.008,0.081,0.022,0.119,0.04c0.035,0.017,0.069,0.039,0.098,0.065
		c0.027,0.024,0.05,0.053,0.068,0.085c0.016,0.03,0.027,0.063,0.031,0.096c0.004,0.03,0.002,0.061-0.005,0.091
		c-0.002,0.01-0.005,0.02-0.009,0.03l-0.292,0.791c-0.002,0.006-0.003,0.013-0.002,0.02s0.004,0.013,0.008,0.019
		c0.009,0.012,0.025,0.02,0.04,0.023l0.055,0.011c0.044,0.009,0.088,0.025,0.127,0.048c0.036,0.021,0.068,0.048,0.092,0.081
		c0.022,0.03,0.038,0.065,0.044,0.102c0.006,0.036,0.001,0.074-0.011,0.108l-0.682,1.847c-0.016,0.044-0.044,0.083-0.077,0.116
		c-0.037,0.037-0.082,0.065-0.129,0.085c-0.051,0.022-0.106,0.036-0.162,0.042c-0.057,0.006-0.114,0.003-0.17-0.008l-0.322-0.066
		c-0.065-0.013-0.129-0.039-0.184-0.078C245.248,156.125,245.207,156.079,245.184,156.024"/>
</g>
<ellipse class="st1" cx="246.876" cy="151.5" rx="0.84" ry="0.504"/>
<g id="SPLINE_00000099648068825152717350000000165979170001098922_">
	<path class="st1" d="M186.054,191.659c0.173-0.091,0.335-0.21,0.469-0.353c0.063-0.067,0.119-0.139,0.168-0.217
		c0.047-0.074,0.086-0.153,0.117-0.235l9.376-25.401c0.033-0.089,0.055-0.183,0.065-0.278c0.01-0.094,0.007-0.188-0.007-0.281
		c-0.015-0.094-0.042-0.187-0.079-0.274c-0.039-0.091-0.089-0.177-0.148-0.256c-0.062-0.084-0.134-0.16-0.212-0.229
		c-0.082-0.073-0.172-0.137-0.267-0.192c-0.202-0.119-0.427-0.201-0.656-0.248l-14.747-3.016c-0.24-0.049-0.489-0.061-0.734-0.037
		c-0.241,0.024-0.479,0.084-0.7,0.18c-0.106,0.046-0.207,0.101-0.304,0.164c-0.092,0.06-0.178,0.129-0.256,0.205
		c-0.074,0.073-0.142,0.152-0.199,0.239c-0.055,0.082-0.101,0.171-0.135,0.264l-9.376,25.401c-0.027,0.073-0.047,0.149-0.058,0.226
		c-0.011,0.076-0.015,0.153-0.011,0.229c0.005,0.077,0.017,0.153,0.038,0.227c0.021,0.076,0.049,0.149,0.085,0.219
		c0.075,0.148,0.179,0.28,0.301,0.393c0.133,0.123,0.287,0.222,0.449,0.299c0.039,0.018,0.079,0.036,0.119,0.052
		c0.123,0.049,0.252,0.087,0.382,0.114l14.747,3.016c0.267,0.055,0.544,0.063,0.816,0.027
		C185.56,191.861,185.82,191.782,186.054,191.659"/>
</g>
<g id="SPLINE_00000134933505741954667640000010963131160605662857_">
	<path class="st1" d="M222.814,199.218c0.173-0.091,0.335-0.21,0.469-0.353c0.063-0.067,0.119-0.139,0.168-0.217
		c0.047-0.074,0.086-0.153,0.117-0.235l9.376-25.401c0.033-0.089,0.055-0.183,0.065-0.278c0.01-0.094,0.007-0.188-0.007-0.281
		c-0.015-0.094-0.042-0.187-0.079-0.274c-0.039-0.091-0.089-0.177-0.148-0.256c-0.062-0.084-0.134-0.16-0.212-0.229
		c-0.082-0.073-0.172-0.137-0.267-0.192c-0.202-0.119-0.427-0.201-0.656-0.248l-14.747-3.016c-0.24-0.049-0.489-0.061-0.734-0.037
		c-0.241,0.024-0.479,0.084-0.7,0.18c-0.106,0.046-0.207,0.101-0.304,0.164c-0.092,0.06-0.178,0.129-0.256,0.205
		c-0.074,0.073-0.142,0.152-0.199,0.239c-0.055,0.082-0.101,0.171-0.135,0.263l-9.376,25.401c-0.027,0.073-0.047,0.149-0.058,0.226
		c-0.011,0.076-0.015,0.153-0.011,0.229c0.005,0.077,0.017,0.153,0.038,0.227c0.021,0.076,0.049,0.149,0.085,0.219
		c0.075,0.148,0.179,0.28,0.301,0.393c0.133,0.123,0.287,0.222,0.449,0.299c0.039,0.018,0.079,0.036,0.119,0.052
		c0.123,0.049,0.252,0.087,0.382,0.114l14.747,3.016c0.267,0.055,0.544,0.064,0.816,0.027
		C222.321,199.42,222.58,199.342,222.814,199.218"/>
</g>
<g id="SPLINE_00000154408773732903427210000016225706128098530964_">
	<path class="st1" d="M259.678,206.673c0.173-0.091,0.335-0.21,0.469-0.353c0.063-0.067,0.119-0.139,0.168-0.217
		c0.047-0.074,0.086-0.153,0.117-0.235l9.376-25.401c0.033-0.089,0.055-0.183,0.065-0.278c0.01-0.094,0.007-0.188-0.007-0.281
		c-0.015-0.094-0.042-0.187-0.079-0.274c-0.039-0.091-0.089-0.177-0.148-0.256c-0.062-0.084-0.134-0.16-0.212-0.229
		c-0.082-0.073-0.172-0.137-0.267-0.192c-0.202-0.119-0.427-0.201-0.656-0.248l-14.747-3.016c-0.24-0.049-0.489-0.061-0.734-0.037
		c-0.241,0.024-0.479,0.084-0.7,0.18c-0.106,0.046-0.207,0.101-0.304,0.164c-0.092,0.06-0.178,0.129-0.256,0.205
		c-0.074,0.073-0.142,0.152-0.199,0.239c-0.055,0.082-0.101,0.171-0.135,0.263l-9.376,25.401c-0.027,0.073-0.047,0.149-0.058,0.226
		c-0.011,0.076-0.015,0.153-0.011,0.229c0.005,0.077,0.017,0.153,0.038,0.227c0.021,0.076,0.049,0.149,0.085,0.219
		c0.075,0.148,0.179,0.28,0.301,0.393c0.133,0.123,0.287,0.222,0.449,0.299c0.039,0.018,0.079,0.036,0.119,0.052
		c0.123,0.049,0.252,0.087,0.382,0.114l14.747,3.016c0.267,0.055,0.544,0.064,0.816,0.027
		C259.184,206.876,259.444,206.797,259.678,206.673"/>
</g>
<path class="st1" d="M286.442,158.165l-3.192-0.658c0,0-0.721-0.219-1.159,0.94c-0.439,1.159-1.015,2.838-1.015,2.838
	s-0.533,1.065,0.345,2.225c0,0,0.971,1.003,0.564,2.131c-0.407,1.128-0.627,1.379-0.627,1.379s-0.313,0.815,1.065,1.128
	l-6.611,18.236c0,0-0.282,0.846-1.943,1.097c-1.661,0.251-2.413,0.501-2.413,0.501s-0.595,0-1.159,1.253s-1.598,4.167-1.598,4.167
	s-0.564,0.94,0.313,1.661c0.877,0.721,2.099,1.535,2.099,1.535s0.815,0.533,0.219,1.849c-0.595,1.316-1.911,4.857-1.911,4.857
	s-1.039-0.279-1.48,0.294c-0.441,0.573-0.617,1.763-0.617,1.763s-0.264,0.838,0.97,1.234l-2.601,6.304c0,0-1.328,2.682-4.414,2.021"
	/>
<line class="st1" x1="262.622" y1="215.24" x2="262.838" y2="220.132"/>
<path class="st1" d="M233.794,209.354l0.087,3.852c0,0,0.173,1.299,1.515,1.688"/>
<path class="st1" d="M234.39,209.41l0.143,3.848c0,0,1.14,0.057,0.998,0.57c-0.143,0.513-0.314,0.998-0.314,0.998l-0.029,1.226
	l25.884,5.302l0.2-1.34c0,0,0.029-1.34,1.397-1.112"/>
<path class="st1" d="M197.678,202.034l0.103,3.776c0,0,1.098,0.069,0.995,0.652c-0.103,0.584-0.309,0.892-0.309,0.892l0.034,1.167
	l25.847,5.286l0.103-1.304c0,0,0-1.407,1.545-1.064"/>
<path class="st1" d="M225.825,207.732l0.103,2.918c0,0,0.618,2.609-1.476,1.854"/>
<path class="st1" d="M196.923,201.931v3.741c0,0-0.24,1.064,1.545,1.682"/>
<path class="st1" d="M149.788,203.947c0,0-0.58,1.625,1.48,2.031s8.53,1.712,8.53,1.712s0.928,0.609,1.596-1.625l-0.087-8.036"/>
<polyline class="st1" points="161.258,198.841 168.125,200.268 168.18,205.921 "/>
<line class="st1" x1="161.567" y1="206.081" x2="166.476" y2="207.094"/>
<line class="st1" x1="161.516" y1="205.256" x2="166.823" y2="206.338"/>
<polyline class="st1" points="168.172,205.901 169.329,206.145 169.555,203.891 169.761,203.092 170.122,203.169 170.199,206.004 
	169.886,206.621 169.938,207.807 169.599,208.772 168.296,208.485 "/>
<path class="st1" d="M168.232,209.006l-0.08-3.126l-1.03-0.207l-1.598,4.09l0.139,2.967c0,0,0.697,0.657,1.055,0.1L168.232,209.006z
	"/>
<path class="st1" d="M167.122,205.673l-0.137-3.854c0,0-0.068-0.707-0.775-0.798s-2.304-0.479-2.304-0.479l-1.551,0.798l0.068,2.668
	l1.414,1.574"/>
<polyline class="st1" points="181.758,208.996 181.176,209.8 181.093,211.13 172.17,209.273 172.198,207.749 172.558,207.001 "/>
<path class="st1" d="M171.478,200.212l0.194,6.65l-0.471,0.72l-0.055,1.635c0,0,0.194,0.942,1.136,1.108s8.978,1.773,8.978,1.773
	s1.053,0.111,1.469-1.635l-0.083-6.484l1.053-1.385"/>
<line class="st1" x1="172.337" y1="208.304" x2="181.065" y2="210.021"/>
<line class="st1" x1="169.938" y1="207.807" x2="171.07" y2="208.029"/>
<polyline class="st1" points="183.077,203.352 189.437,204.611 189.478,209.971 190.698,210.139 190.956,207.855 191.393,207.378 
	191.432,210.317 191.214,211.032 191.223,212.441 261.059,226.928 "/>
<line class="st1" x1="182.722" y1="209.583" x2="188.125" y2="210.665"/>
<line class="st1" x1="182.732" y1="210.439" x2="187.823" y2="211.457"/>
<path class="st1" d="M185.598,209.987l-1.885-1.621l-0.057-2.677l1.508-0.792c0,0,1.49,0.377,2.244,0.434s0.886,0.716,0.886,0.716
	l0.113,3.978l-1.602,4.106l0.139,3.058c0.894,0.516,1.112,0,1.112,0l1.509-3.912L189.448,210c0,0-0.22-0.02-0.895-0.1"/>
<polyline class="st1" points="189.526,212.859 190.817,213.117 191.174,212.204 "/>
<g>
	<polygon class="st1" points="208.05,212.893 215.942,214.589 216.033,216.729 208.141,215.033 	"/>
	<line class="st1" x1="211.981" y1="213.937" x2="212.042" y2="215.741"/>
</g>
<g>
	<polygon class="st1" points="217.336,214.881 227.805,217.084 227.896,219.163 217.428,216.96 	"/>
	<line class="st1" x1="222.666" y1="216.109" x2="222.727" y2="217.862"/>
</g>
<polygon class="st1" points="229.576,214.468 233.072,215.167 233.167,217.169 229.576,216.47 "/>
<polygon class="st1" points="229.576,217.274 233.072,217.973 233.167,219.975 229.576,219.276 "/>
<line class="st1" x1="283.856" y1="160.681" x2="285.609" y2="161.05"/>
<g id="SPLINE_00000018231100706033093060000014274652602543138998_">
	<path class="st1" d="M282.093,163.337l-0.404-0.946c-0.013-0.03-0.02-0.063-0.021-0.096c-0.001-0.033,0.005-0.066,0.016-0.097
		l0.794-2.152c0.016-0.044,0.044-0.083,0.077-0.116c0.037-0.037,0.082-0.065,0.129-0.085c0.051-0.022,0.106-0.036,0.162-0.042
		c0.057-0.006,0.114-0.003,0.17,0.008l0.553,0.113c0.041,0.008,0.081,0.022,0.119,0.04c0.035,0.017,0.069,0.039,0.098,0.065
		c0.027,0.024,0.05,0.053,0.068,0.085c0.016,0.03,0.027,0.063,0.031,0.096c0.004,0.03,0.002,0.061-0.005,0.091
		c-0.002,0.01-0.005,0.02-0.009,0.03l-0.292,0.791c-0.002,0.006-0.003,0.013-0.002,0.02c0.001,0.007,0.004,0.013,0.008,0.019
		c0.009,0.013,0.025,0.02,0.04,0.023l0.055,0.011c0.044,0.009,0.088,0.025,0.127,0.048c0.036,0.021,0.068,0.048,0.092,0.081
		c0.022,0.03,0.038,0.065,0.044,0.102c0.006,0.036,0.001,0.074-0.011,0.108l-0.682,1.847c-0.016,0.044-0.044,0.083-0.077,0.116
		c-0.037,0.037-0.082,0.065-0.129,0.085c-0.051,0.022-0.106,0.036-0.162,0.042c-0.057,0.006-0.114,0.003-0.17-0.008l-0.322-0.066
		c-0.065-0.013-0.129-0.039-0.184-0.078C282.157,163.438,282.116,163.392,282.093,163.337"/>
</g>
<ellipse class="st1" cx="283.786" cy="158.813" rx="0.84" ry="0.504"/>
<path class="st1" d="M158.739,162.927l3.01,0.719l3.545,0.498l0.002,0.93c0.477,0.079,1.51,1.152,1.51,1.152l0.926-2.222"/>
<path class="st1" d="M165.495,163.802l4.212-10.531c0,0-0.556-2.623,1.868-4.53l-0.079-0.795l2.861-7.272l-5.444-1.152l1.391-3.537
	l1.113,0.199l0.358-0.119l3.656,0.755l-1.351,3.576"/>
<polyline class="st1" points="166.242,139.519 167.15,139.701 167.623,138.974 169.586,133.775 175.984,134.775 177.439,135.247 
	177.548,136.52 177.039,136.302 175.429,136.819 "/>
<path class="st1" d="M174.167,140.919c0,0,2.29,0.727,2.218,3.272"/>
<path class="st1" d="M175.294,137.138c0,0,2.363,1.091,2.545,3.345"/>
<polyline class="st1" points="175.984,142.664 173.44,149.862 172.967,149.716 170.204,157.46 170.24,158.478 167.914,164.403 "/>
<path class="st1" d="M165.878,162.586c0,0,2.363,0.909,2.363,3.381"/>
<polyline class="st1" points="163.756,146.358 163.855,147.953 162.318,152.172 162.561,152.6 "/>
<polyline class="st1" points="160.103,156.651 161.534,153.046 162.288,153.106 "/>
<polyline class="st1" points="172.584,132.464 170.423,132.089 170.46,130.939 171.138,128.903 173.334,129.282 "/>
<path class="st1" d="M178.51,133.732l-0.001,0.145l0.192,1.655c0,0-0.114,0.739-1.108,0.71l0.057-0.426l0.811-1.962"/>
<polyline class="st1" points="176.252,136.637 176.824,137.272 177.83,137.523 177.839,138.17 177.469,139.01 "/>
<line class="st1" x1="143.188" y1="200.554" x2="145.175" y2="200.961"/>
<line class="st1" x1="143.188" y1="201.354" x2="145.175" y2="201.761"/>
<line class="st1" x1="143.129" y1="202.096" x2="145.117" y2="202.502"/>
<line class="st1" x1="143.071" y1="202.838" x2="145.058" y2="203.244"/>
<line class="st1" x1="142.993" y1="203.599" x2="144.98" y2="204.005"/>
<line class="st1" x1="142.915" y1="204.321" x2="144.902" y2="204.727"/>
<line class="st1" x1="142.856" y1="205.043" x2="144.844" y2="205.449"/>
<path class="st1" d="M158.411,198.567c-3.205-2.08-5.851-0.754-5.851-0.754l1.88,1.159c0,0,2.402-0.448,3.377,1.414l0.834-1.132
	L158.411,198.567z"/>
<path class="st1" d="M151.969,201.958l-0.661-0.504c-0.464-2.46,0.856-3.051,0.856-3.051l1.501,0.898c0,0-1.455,0.276-1.137,1.631
	C152.528,200.931,151.95,201.382,151.969,201.958z"/>
<polyline class="st1" points="150.996,202.293 150.92,203.57 150.862,204.991 159.826,206.848 159.855,204.257 160.486,203.451 "/>
<path class="st1" d="M158.359,203.922c0,0-2.459,0.952-5.662-1.06c0,0-0.3-0.486,0.343-1.341c0,0,1.2,1.347,3.129,1.371
	C156.169,202.892,156.676,203.596,158.359,203.922z"/>
<line class="st1" x1="150.921" y1="203.793" x2="159.64" y2="205.646"/>
<path class="st1" d="M157.182,202.668c0,0,1.14-0.136,1.08-1.596l0.658-0.764l0.338-0.533c0,0,0.871,1.91-0.232,3.504
	C159.026,203.28,157.61,203.143,157.182,202.668z"/>
<g>
	<path class="st1" d="M179.967,203.216c-3.072-1.994-5.608-0.722-5.608-0.722l1.802,1.111c0,0,2.303-0.429,3.237,1.356l0.8-1.086
		L179.967,203.216z"/>
	<path class="st1" d="M173.793,206.466l-0.633-0.483c-0.445-2.358,0.82-2.925,0.82-2.925l1.439,0.861c0,0-1.395,0.265-1.09,1.563
		C174.328,205.482,173.774,205.914,173.793,206.466z"/>
	<path class="st1" d="M179.918,208.349c0,0-2.357,0.912-5.428-1.016c0,0-0.288-0.466,0.329-1.286c0,0,1.15,1.291,2.999,1.314
		C177.818,207.361,178.304,208.036,179.918,208.349z"/>
	<path class="st1" d="M178.79,207.147c0,0,1.092-0.13,1.035-1.53l0.631-0.733l0.324-0.511c0,0,0.835,1.831-0.222,3.359
		C180.557,207.733,179.199,207.602,178.79,207.147z"/>
</g>
<path class="st1" d="M160.231,194.275c0,0-0.274,1.503,1.248,1.741"/>
<path class="st1" d="M189.073,200.175c0,0,0.402,1.566-1.365,1.265"/>
<polyline class="st1" points="188.049,199.894 187.547,201.259 187.527,202.604 161.444,197.203 161.484,196.039 162.083,194.669 
	"/>
<polygon class="st1" points="238.045,218.066 239.66,218.413 239.73,220.882 238.083,220.527 "/>
<g>
	<polygon class="st1" points="243.786,220.663 247.684,221.466 251.627,222.278 251.627,224.049 243.786,222.434 	"/>
	<line class="st1" x1="247.719" y1="223.19" x2="247.684" y2="221.466"/>
</g>
<g>
	<polygon class="st1" points="252.705,222.48 256.603,223.283 260.546,224.095 260.546,225.867 252.705,224.252 	"/>
	<line class="st1" x1="256.638" y1="225.007" x2="256.603" y2="223.283"/>
</g>
<g id="SPLINE_00000124879306988595696710000016674386530324355502_">
	<path class="st1" d="M234.666,219.581c0.001-0.01,0.003-0.021,0.007-0.031c0.003-0.008,0.007-0.017,0.012-0.024
		c0.011-0.016,0.025-0.029,0.041-0.039c0.044-0.027,0.099-0.035,0.151-0.032c0.02,0.001,0.04,0.004,0.06,0.008l1.802,0.369
		c0.054,0.011,0.107,0.032,0.154,0.063c0.042,0.027,0.08,0.061,0.104,0.104c0.013,0.023,0.022,0.049,0.023,0.076l0.004,0.168
		l-0.006,0.034c-0.007,0.018-0.02,0.034-0.036,0.046c-0.006,0.004-0.012,0.008-0.019,0.011l-0.207,0.102
		c-0.027,0.013-0.057,0.019-0.087,0.019c-0.011,0-0.022,0-0.034-0.001s-0.025-0.003-0.037-0.005l-1.492-0.305
		c-0.012-0.003-0.025-0.006-0.037-0.01c-0.03-0.01-0.06-0.023-0.086-0.041c-0.013-0.008-0.025-0.017-0.036-0.027l-0.213-0.188
		c-0.013-0.011-0.025-0.024-0.035-0.038c-0.009-0.012-0.017-0.026-0.022-0.04c-0.005-0.013-0.008-0.026-0.008-0.039l-0.004-0.168
		L234.666,219.581z"/>
</g>
<polyline class="st1" points="303.686,104.565 302.573,104.95 195.989,83.23 "/>
<polyline class="st1" points="212.478,79.09 209.613,79.778 209.613,80.58 206.519,83.559 206.691,80.637 209.842,76.569 
	212.821,75.653 "/>
<path class="st1" d="M237.289,73.954l-1.549,11.791l-3.25,4.081c0,0-0.794,0.529-0.68-0.68s0.491-3.779,0.491-3.779l4.497-11.413
	H237.289z"/>
<path class="st1" d="M215.958,66.84l-0.815,1.086l-2.127,6.924l-0.679,5.249c0,0,0.226,0.679,0.86-0.045s4.525-5.657,4.525-5.657
	l8.221-64.189l-0.532-0.887l-2.041,2.751l-0.266,3.372l-3.017,4.792l-1.154,10.916l1.952-2.13l-2.683,20.533h0.74l-0.542,4.439
	l-0.888,0.444L215.958,66.84z"/>
<polygon class="st1" points="239.639,84.955 242.639,81.513 242.992,78.072 242.198,76.66 240.08,74.012 239.727,71.806 
	240.786,64.217 241.139,55.569 237.962,76.219 239.551,81.513 "/>
<polygon class="st1" points="265.71,85.187 265.075,91.77 270.23,85.742 278.558,22.056 275.465,31.891 274.672,39.108 
	274.117,39.98 273.323,45.77 272.795,46.548 270.786,64.566 270.151,65.28 268.565,77.891 268.01,78.684 "/>
<polyline class="st1" points="264.886,90.948 263.954,92.412 263.776,95.43 266.971,92.191 267.161,89.63 "/>
<polyline class="st1" points="292.965,79.616 292.435,82.996 292.898,85.05 294.422,86.706 "/>
<polyline class="st1" points="295.35,80.08 293.958,92.14 295.181,90.667 296.543,89.025 296.675,87.634 296.145,86.176 
	296.476,85.514 295.758,83.119 296.089,80.203 "/>
<polyline class="st1" points="295.164,92.118 291.996,95.797 292.149,92.424 290.514,87.008 291.281,82.715 291.587,82 
	296.493,44.647 294.551,46.793 295.215,40.304 296.595,38.413 297.719,29.164 300.529,25.485 225.944,10.208 "/>
<path class="st1" d="M317.806,29.002l-16.235-3.338l-0.051,0.961l-3.035,9.458l-0.708,7.182l-0.556,2.175l12.846,2.681
	c0,0,2.377-1.315,0-4.248l-9.963-2.023l0.506-0.759l1.72-12.644l1.696-2.136"/>
<line class="st1" x1="316.078" y1="50.911" x2="310.441" y2="95.193"/>
<path class="st1" d="M310.441,95.193"/>
<polyline class="st1" points="307.43,103.679 305.37,96.494 308.099,74.199 308.698,73.4 310.428,60.822 309.962,60.489 
	312.868,38.8 313.386,38.828 315.514,32.636 319.005,27.916 317.639,38.65 315.208,41.746 313.7,53.428 316.64,49.327 317.8,38.999 
	"/>
<polyline class="st1" points="312.332,28.035 310.548,30.348 309.028,43.368 "/>
<polyline class="st1" points="313.091,28.281 312.997,29.312 310.372,38.264 311.216,38.396 310.607,40.373 310.068,43.871 "/>
<line class="st1" x1="295.92" y1="50.814" x2="310.766" y2="54.024"/>
<line class="st1" x1="294.636" y1="61.487" x2="309.723" y2="64.536"/>
<polyline class="st1" points="306.953,82.364 303.83,81.72 292.027,79.287 "/>
<polyline class="st1" points="303.83,81.72 302.38,93.714 304.916,91.178 305.082,89.723 304.043,85.44 304.417,81.906 "/>
<polyline class="st1" points="296.85,88.101 302.712,89.349 299.261,100.2 298.97,103.61 302.879,99.119 303.793,92.342 "/>
<line class="st1" x1="270.34" y1="85.285" x2="291.165" y2="89.508"/>
<line class="st1" x1="271.342" y1="77.915" x2="291.587" y2="82"/>
<line class="st1" x1="272.201" y1="70.401" x2="292.31" y2="74.694"/>
<line class="st1" x1="273.418" y1="62.1" x2="293.598" y2="66.393"/>
<line class="st1" x1="274.491" y1="53.799" x2="294.671" y2="58.092"/>
<line class="st1" x1="275.493" y1="45.14" x2="295.888" y2="49.576"/>
<line class="st1" x1="276.709" y1="36.481" x2="295.215" y2="40.304"/>
<polyline class="st1" points="257.961,16.827 256.137,19.259 254.516,32.702 270.458,36.148 271.674,35.405 272.35,30.27 
	275.119,21.354 275.187,20.408 "/>
<line class="st1" x1="278.558" y1="22.056" x2="275.119" y2="21.354"/>
<polyline class="st1" points="256.948,17.773 248.233,15.949 245.396,25.474 244.409,33.373 241.275,58.44 "/>
<line class="st1" x1="274.106" y1="39.39" x2="244.409" y2="33.373"/>
<line class="st1" x1="243.572" y1="40.066" x2="272.755" y2="46.078"/>
<line class="st1" x1="271.607" y1="56.751" x2="242.154" y2="50.671"/>
<line class="st1" x1="240.786" y1="64.217" x2="269.152" y2="70.291"/>
<line class="st1" x1="224.07" y1="26.011" x2="244.507" y2="30.218"/>
<line class="st1" x1="223.068" y1="34.526" x2="243.405" y2="38.834"/>
<line class="st1" x1="221.866" y1="42.941" x2="242.503" y2="47.349"/>
<line class="st1" x1="220.363" y1="51.357" x2="241.139" y2="55.569"/>
<line class="st1" x1="219.755" y1="59.814" x2="239.724" y2="63.95"/>
<line class="st1" x1="218.775" y1="66.888" x2="238.691" y2="71.187"/>
<line class="st1" x1="236.723" y1="78.732" x2="238.473" y2="79.131"/>
<line class="st1" x1="217.723" y1="74.397" x2="234.91" y2="78.318"/>
<line class="st1" x1="240.105" y1="72.384" x2="248.866" y2="74.18"/>
<line class="st1" x1="250.55" y1="78.545" x2="264.864" y2="81.471"/>
<line class="st1" x1="242.772" y1="76.955" x2="248.323" y2="78.09"/>
<polyline class="st1" points="266.795,81.213 266.136,77.752 266.575,72.809 265.806,73.633 264.378,85.937 265.641,84.728 "/>
<polyline class="st1" points="249.273,70.666 247.844,82.366 250.426,79.73 250.042,77.038 250.481,76.489 249.547,73.358 
	249.877,70.502 248.943,70.172 249.602,69.403 252.733,70.062 253.172,69.513 255.37,70.007 255.37,70.611 260.863,71.71 
	261.192,71.216 263.389,71.655 263.279,72.314 266.081,72.918 "/>
<line class="st1" x1="215.899" y1="63.798" x2="202.526" y2="60.919"/>
<line class="st1" x1="218.22" y1="46.061" x2="195.005" y2="41.325"/>
<line class="st1" x1="219.799" y1="35.382" x2="196.49" y2="30.646"/>
<line class="st1" x1="219.428" y1="25.631" x2="197.419" y2="21.36"/>
<polyline class="st1" points="198.812,14.766 197.976,17.645 193.333,55.069 "/>
<path class="st1" d="M202.3,63.599l0.942-5.654c0,0,1.068-0.942-1.194-1.382s-8.105-1.508-8.105-1.508s-1.445-0.126-1.571,1.257
	s-0.434,3.773-0.434,3.773l0.129,0.027l9.715,2.016l0.65,1.95l13.525,2.763"/>
<polyline class="st1" points="192.069,60.11 193.819,67.117 192.876,72.834 191.557,75.787 190.866,80.436 190.112,80.373 "/>
<path class="st1" d="M174.923,134.624l13.201-36.122l1.061,0.088l3.803-10.436l-0.973-0.442l0.884-2.476l2.476,0.442
	c0,0,0.177-2.034,0.884-2.83l-1.519-0.344l-1.299,1.263L190.3,83.2l-0.503-0.754l0.377-3.016l-1.948-7.288l7.162-53.528l4.021-5.529
	l2.262,0.377l1.131-1.319l5.026,1.068"/>
<path class="st1" d="M211.617,5.819l0.085,2.394l-2.735,9.061l-0.94,1.111c0,0-0.769-0.085-0.513-1.881
	c0.256-1.795,0.855-6.497,0.855-6.497L211.617,5.819z"/>
<line class="st1" x1="317.126" y1="27.586" x2="318.533" y2="27.882"/>
<line class="st1" x1="291.428" y1="22.288" x2="314.276" y2="27.004"/>
<line class="st1" x1="280.41" y1="20.027" x2="287.091" y2="21.393"/>
<line class="st1" x1="254.674" y1="14.702" x2="277.293" y2="19.37"/>
<line class="st1" x1="211.626" y1="5.817" x2="250.28" y2="13.795"/>
<polyline class="st1" points="199.41,13.087 199.635,10.891 200.409,10.531 200.77,8.159 201.388,7.85 202.677,8.056 
	202.986,10.376 202.803,12.144 "/>
<polygon class="st1" points="239.742,11.355 240.825,10.531 242.268,10.84 243.093,11.922 242.887,12.902 239.639,12.18 "/>
<polygon class="st1" points="251.238,12.696 254.279,13.366 254.64,14.552 254.176,15.222 250.413,14.448 250.413,13.881 "/>
<polygon class="st1" points="277.548,19.16 278.647,18.381 279.656,18.519 280.343,19.435 280.189,20.446 277.478,19.893 "/>
<polygon class="st1" points="287.231,21.405 288.132,20.287 290.98,20.9 291.376,21.946 291.052,22.883 287.339,22.126 "/>
<polygon class="st1" points="314.315,27.48 314.469,26.605 315.499,25.884 316.529,26.064 317.173,27.017 316.967,28.047 "/>
<line class="st1" x1="193.819" y1="67.117" x2="214.035" y2="71.134"/>
<path class="st1" d="M193.352,71.235l2.129,0.406c0,0,0.912,0,0.71,1.115c-0.203,1.115-1.45,9.747-1.45,9.747"/>
<polyline class="st1" points="183.641,119.792 182.115,119.53 176.429,134.936 "/>
<polyline class="st1" points="182.489,136.314 188.347,120.597 186.098,120.212 "/>
<path class="st1" d="M183.855,117.677"/>
<polyline class="st1" points="197.387,83.789 196.367,86.694 196.381,89.92 205.447,91.698 206.819,87.501 207.066,85.522 "/>
<polyline class="st1" points="196.69,86.694 205.245,88.51 206.415,85.443 "/>
<line class="st1" x1="205.447" y1="91.698" x2="205.245" y2="88.51"/>
<line class="st1" x1="286.436" y1="102.956" x2="306.129" y2="107.032"/>
<line class="st1" x1="228.56" y1="91.191" x2="252.58" y2="96.066"/>
<path class="st1" d="M206.98,87.783c0,0,0.847,0.565,1.009-0.767l10.876,2.207"/>
<polyline class="st1" points="277.195,99.809 276.469,101.383 276.429,104.259 284.943,106.104 "/>
<polyline class="st1" points="285.549,101.423 284.782,103.158 284.943,106.104 286.759,101.705 "/>
<line class="st1" x1="276.469" y1="101.383" x2="284.782" y2="103.158"/>
<polyline class="st1" points="253.094,94.893 251.953,98.094 254.787,98.646 256.001,95.518 "/>
<polyline class="st1" points="251.982,98.105 251.953,101.034 254.787,101.586 254.77,98.638 "/>
<line class="st1" x1="256.76" y1="96.914" x2="276.59" y2="100.939"/>
<line class="st1" x1="254.795" y1="101.501" x2="256.898" y2="95.825"/>
<polyline class="st1" points="219.3,87.992 218.767,89.459 218.627,89.843 218.56,93.511 226.938,95.193 229.025,89.944 "/>
<polyline class="st1" points="227.645,89.675 226.972,91.29 218.896,89.607 "/>
<line class="st1" x1="227.073" y1="94.722" x2="226.972" y2="91.29"/>
<polyline class="st1" points="281.672,150.489 280.968,151.946 280.918,152.8 280.416,154.408 281.32,154.609 281.186,155.234 "/>
<polyline class="st1" points="283.994,155.846 283.836,155.111 283.101,154.901 283.626,153.378 283.574,152.433 284.309,151.331 
	284.156,147.899 294.353,121.333 294.737,121.194 295.15,120.835 297.229,121.262 297.287,122.395 "/>
<polyline class="st1" points="300.565,121.948 298.3,121.482 297.594,122.135 296.649,122.87 296.544,123.867 296.649,126.913 
	287.669,151.803 286.882,151.541 286.147,152.958 286.199,153.799 285.622,155.426 286.514,155.636 286.672,156.424 "/>
<polyline class="st1" points="281.186,155.234 283.192,155.666 283.419,155.116 "/>
<polyline class="st1" points="284.098,155.877 285.927,156.26 286.101,155.617 "/>
<line class="st1" x1="287.407" y1="156.582" x2="286.75" y2="156.439"/>
<polyline class="st1" points="290.035,119.849 289.786,120.158 289.029,120.565 279.088,147.725 279.079,150.284 278.384,151.466 
	278.43,152.347 277.874,153.923 278.708,154.154 278.707,154.76 280.505,155.121 280.748,154.5 "/>
<polyline class="st1" points="289.113,119.594 287.708,119.305 287.049,119.938 286.395,122.4 286.647,125.063 277.35,149.785 
	276.496,149.534 275.793,150.941 275.843,151.695 275.29,153.403 276.195,153.604 276.195,154.157 277.897,154.572 278.181,154.013 
	"/>
<polyline class="st1" points="292.174,121.665 292.023,120.192 289.906,119.757 "/>
<polyline class="st1" points="198.158,100.899 263.093,114.246 263.026,115.532 262.263,115.74 262.193,116.712 262.402,119.003 "/>
<polyline class="st1" points="294.704,120.689 293.027,120.364 292.729,120.906 292.35,121.284 291.701,123.205 291.512,125.586 
	281.989,150.286 "/>
<path class="st1" d="M291.205,148.863l0.91-2.329c0,0,0.645-1.176,0.835,0.228c0.19,1.404,0.228,2.58,0.228,2.58"/>
<line class="st1" x1="292.977" y1="147.286" x2="295.085" y2="141.949"/>
<polygon class="st1" points="259.849,118.532 263.754,119.36 264.937,116.225 278.365,119.005 277.301,122.081 281.146,122.909 
	278.72,129.713 274.816,128.766 273.692,131.842 277.656,132.67 275.171,139.414 271.089,138.527 269.906,141.781 256.536,139 
	257.72,135.865 253.638,135.096 256.359,128.293 260.145,129.062 261.269,126.045 257.246,125.217 "/>
<line class="st1" x1="278.365" y1="119.005" x2="278.509" y2="122.266"/>
<line class="st1" x1="281.146" y1="122.909" x2="281.424" y2="132.819"/>
<polyline class="st1" points="278.72,129.713 278.994,138.929 277.884,138.72 "/>
<line class="st1" x1="277.656" y1="132.67" x2="277.884" y2="142.122"/>
<polyline class="st1" points="271.089,138.527 271.496,148.093 275.384,148.857 275.171,139.414 "/>
<polyline class="st1" points="269.906,141.781 270.247,151.217 271.496,148.093 "/>
<polyline class="st1" points="256.536,139 256.778,148.509 252.751,147.607 253.932,144.413 253.638,135.096 "/>
<line class="st1" x1="256.662" y1="144.974" x2="253.932" y2="144.413"/>
<polyline class="st1" points="270.247,151.217 274.2,151.963 275.384,148.857 "/>
<polyline class="st1" points="281.43,129.45 282.206,129.606 282.465,130.485 274.291,152.988 252.79,148.513 252.751,147.607 "/>
<line class="st1" x1="296.649" y1="126.913" x2="298.68" y2="127.282"/>
<polyline class="st1" points="225.27,143.912 223.575,143.543 223.428,142.807 222.581,142.623 223.244,140.965 223.17,140.081 
	223.87,138.719 224.754,138.903 234.072,113.747 233.999,111.353 234.662,109.327 235.324,108.627 "/>
<polyline class="st1" points="230.347,144.927 228.653,144.559 228.505,143.822 227.658,143.638 228.321,141.981 228.248,141.097 
	228.947,139.734 229.831,139.918 239.15,114.762 239.076,112.368 239.739,110.343 240.402,109.643 "/>
<polyline class="st1" points="235.733,145.951 234.039,145.583 233.892,144.846 233.044,144.662 233.707,143.005 233.634,142.121 
	234.333,140.758 235.217,140.942 244.139,115.786 244.065,113.392 244.728,111.367 245.391,110.667 "/>
<polyline class="st1" points="233.078,145.532 231.384,145.164 231.236,144.427 230.389,144.243 230.948,142.794 230.863,141.776 
	231.584,140.758 231.753,137.459 241.85,109.926 "/>
<polyline class="st1" points="238.294,146.51 236.6,146.142 236.453,145.406 235.606,145.221 236.165,143.773 236.08,142.754 
	236.801,141.736 236.97,138.438 246.99,111.038 "/>
<polyline class="st1" points="240.95,147.06 239.256,146.691 239.108,145.955 238.261,145.771 238.924,144.113 238.85,143.229 
	239.55,141.866 240.434,142.051 249.356,116.895 249.282,114.501 249.945,112.475 250.608,111.775 "/>
<polyline class="st1" points="243.511,147.619 241.817,147.251 241.67,146.514 240.822,146.33 241.381,144.881 241.296,143.863 
	242.018,142.845 242.187,139.546 252.283,112.013 "/>
<polyline class="st1" points="245.971,148.233 244.277,147.865 244.129,147.128 243.282,146.944 243.945,145.287 243.871,144.403 
	244.571,143.04 245.455,143.224 254.377,118.069 254.303,115.675 254.966,113.649 255.629,112.949 "/>
<polyline class="st1" points="253.49,136.386 250.672,144.333 249.788,144.149 249.088,145.511 249.162,146.395 248.499,148.053 
	249.346,148.237 249.493,148.974 251.187,149.342 253.868,142.404 "/>
<line class="st1" x1="257.475" y1="125.15" x2="256.172" y2="128.825"/>
<polyline class="st1" points="260.846,114.058 260.183,114.757 259.52,116.783 259.593,119.177 "/>
<polyline class="st1" points="248.532,148.793 246.838,148.424 246.691,147.688 245.843,147.504 246.402,146.055 246.317,145.037 
	247.039,144.018 247.208,140.72 257.304,113.187 "/>
<polyline class="st1" points="236.783,109.113 226.581,137.068 226.411,139.603 225.785,140.855 225.822,141.665 225.196,143.138 
	226.043,143.322 226.19,144.059 227.885,144.427 "/>
<polyline class="st1" points="188.295,136.388 186.601,136.02 186.454,135.284 185.607,135.099 186.27,133.442 186.196,132.558 
	186.896,131.195 187.78,131.379 197.098,106.224 197.024,103.83 197.687,101.804 198.35,101.104 "/>
<polyline class="st1" points="199.809,101.589 189.607,129.544 189.437,132.079 188.811,133.331 188.848,134.142 188.222,135.615 
	189.069,135.799 189.216,136.536 190.91,136.904 "/>
<polyline class="st1" points="193.443,137.59 191.749,137.221 191.602,136.485 190.755,136.301 191.418,134.643 191.344,133.759 
	192.044,132.396 192.928,132.581 202.246,107.425 202.172,105.031 202.835,103.005 203.498,102.305 "/>
<polyline class="st1" points="208.142,103.177 207.479,103.877 206.816,105.902 207,107.863 197.984,133.512 197.219,133.268 
	196.519,134.631 196.593,135.515 195.93,137.172 196.777,137.356 196.924,138.093 198.619,138.461 201.278,131.393 "/>
<polyline class="st1" points="210.764,103.475 210.101,104.175 209.438,106.2 209.563,108.28 "/>
<polyline class="st1" points="204.957,102.791 194.755,130.745 194.585,133.28 193.959,134.533 193.996,135.343 193.37,136.816 
	194.217,137 194.364,137.737 196.058,138.105 "/>
<polyline class="st1" points="207,107.863 210.934,108.638 212.245,105.419 225.654,108.28 224.641,111.379 228.514,112.213 
	226.19,118.948 222.078,118.054 221.065,120.974 224.879,121.868 222.555,128.721 218.443,127.828 217.31,130.867 203.842,128.126 
	205.034,125.146 201.339,124.371 201.398,133.608 200.087,136.886 200.087,137.78 221.542,142.131 229.826,119.484 229.289,118.709 
	"/>
<polyline class="st1" points="203.723,117.637 207.358,118.352 208.55,115.253 204.855,114.478 205.093,117.577 "/>
<line class="st1" x1="225.654" y1="108.28" x2="225.952" y2="111.677"/>
<line class="st1" x1="228.514" y1="112.213" x2="228.872" y2="121.868"/>
<polyline class="st1" points="226.19,118.948 226.429,128.423 225.379,128.213 "/>
<line class="st1" x1="224.879" y1="121.868" x2="225.237" y2="131.82"/>
<line class="st1" x1="222.555" y1="128.721" x2="222.793" y2="138.495"/>
<polyline class="st1" points="218.562,127.887 218.92,137.244 217.668,140.462 217.31,130.867 "/>
<line class="st1" x1="218.92" y1="137.244" x2="222.793" y2="138.078"/>
<line class="st1" x1="217.668" y1="140.462" x2="221.83" y2="141.358"/>
<polyline class="st1" points="200.087,136.886 204.116,137.636 203.842,128.126 "/>
<line class="st1" x1="201.359" y1="133.673" x2="204.013" y2="134.225"/>
<path class="st1" d="M184.187,117.718c0,0,0.358-1.134,1.617-0.995c0,0,1.202,0.166,0.947,1.507l-0.42,1.259
	c0,0-0.343,1.394-1.637,1.042c0,0-1.067-0.017-0.974-1.182L184.187,117.718z"/>
<path class="st1" d="M181.36,121.48l0.059-2.274c0,0-0.095-0.634,0.761-0.507s1.574,0.27,1.574,0.27"/>
<path class="st1" d="M186.605,119.51l1.845,0.293c0,0,0.539-0.015,0.539,0.568s-0.045,2.679-0.045,2.679l-1.28-0.256"/>
<polyline class="st1" points="186.842,118.23 187.313,118.293 187.278,119.51 "/>
<line class="st1" x1="184.641" y1="118.576" x2="185.877" y2="118.814"/>
<line class="st1" x1="184.814" y1="117.925" x2="186.051" y2="118.164"/>
<ellipse transform="matrix(0.1987 -0.9801 0.9801 0.1987 10.5519 274.7541)" class="st2" cx="173.299" cy="130.924" rx="1.756" ry="0.597"/>
<circle class="st1" cx="294.729" cy="98.172" r="0.889"/>
<circle class="st1" cx="263.217" cy="91.883" r="0.889"/>
<path class="st1" d="M232.151,86.419c-0.491,0-0.889-0.398-0.889-0.889s0.398-0.889,0.889-0.889c0.123,0,0.24,0.025,0.346,0.07"/>
<line class="st1" x1="164.895" y1="146.518" x2="167.353" y2="139.462"/>
<path class="st0" d="M129.542,47.578l3.91-10.786c0,0-6.271-16.866-28.11-14.055c0,0,4.108-6.703,10.595-11.028
	c0,0,18.596,4.541,25.948,16.65l6.487,0.649l-1.297,4.108l0.649,3.027l-1.297,2.811l1.73,0.432l-0.216,2.811l0.432,6.271
	l-1.946,4.541l-1.73-0.216l-4.325,13.19l-10.163-1.297v-2.379l1.297-1.514l-0.649-6.054l-0.216-2.162l-0.005-4.426L129.542,47.578z"
	/>
<polygon class="st0" points="41.015,78.988 45.106,78.01 62.711,81.922 61.911,91.347 60.933,93.392 60.577,94.726 39.415,89.924 
	39.86,81.478 40.304,80.677 41.015,80.144 "/>
<polygon class="st0" points="93.971,150.386 93.284,148.323 92.046,148.46 87.233,161.386 87.646,162.486 89.433,162.898 "/>
<path class="st0" d="M132.884,87.409l5.5,1.238l1.65,5.913l-0.688,2.2l0.275,1.65l-0.963,2.613l-0.963-0.138l-2.338,7.425
	l-1.925-0.138l0.413-1.238l-1.513-2.75l-2.338-1.1l-0.825-3.025l-0.963-0.413l2.063-5.363c0,0-1.925-2.475-4.4-0.963
	c0,0-3.575,1.925-3.988,5.913c0,0-1.375,3.988,2.888,4.4l2.613,1.513l-0.963,3.575c0,0-6.738-1.513-8.113-5.363
	c0,0-1.925-2.063,1.375-8.525c0,0,2.888-7.288,8.8-5.775c0,0,2.75,0.55,3.025,1.375L132.884,87.409z"/>
<path class="st3" d="M125.148,2.091"/>
<g>
	<path class="st4" d="M100.946,196.344l28.161-75.744c0,0,0.09-1.712-5.773-4.771l-0.612-0.969l-9.993-1.988l-0.51,0.204
		l-2.804-0.459l-3.926,11.012l13.409,2.753l0.204,0.918l-7.036,19.934l-0.561,0.153l-0.714,2.141l0.255,1.122l-0.816,0.714
		c0,0-5.251,5.302-4.792,13.052c0,0,1.428,0.969-0.714,2.141l-9.217,26.123c0,0,6.073,2.263,6.192,6.073l-2.858,7.741
		c0,0-1.429,2.024-3.453,2.024l-8.812-1.31l-8.455-2.144l-2.977-9.884l9.289,2.977l8.693,0.953l2.276-6.029"/>
	<path class="st4" d="M100.98,200.774c0,0-0.51-1.744-1.531-2.509l-1.574,4.253c-1.914-2.041-4.763-2.637-4.763-2.637l-0.17-0.51"/>
	<path class="st4" d="M98.386,206.132l-12.078-1.701c0,0-0.383-0.043-0.595-1.021c-0.213-0.978-0.51-2.679-0.51-2.679l12.673,1.786"
		/>
	<polyline class="st4" points="75.283,194.632 79.604,183.481 78.141,183.132 80.65,176.442 81.765,176.651 86.992,162.294 
		89.571,162.712 95.634,145.776 93.125,144.939 97.655,132.603 97.028,130.512 99.537,123.752 100.792,123.822 101.279,122.846 
		104.137,123.404 104.764,121.173 101.698,120.546 101.907,121.313 101.698,122.288 	"/>
	<path class="st4" d="M102.534,120.267l2.161-5.576l-0.279-1.115l0.348-0.767l2.648,0.627l0.697-1.951l-2.858-0.558l1.255-3.345
		c0,0,0-0.836,1.394-0.488s16.239,3.345,16.239,3.345l0.697,0.906l-1.185,2.718l-0.318,1.764"/>
	<line class="st4" x1="108.179" y1="115.11" x2="104.934" y2="114.407"/>
	<path class="st4" d="M119.4,127.236c0,0,3.943,1.384,5.621,4.195"/>
	<path class="st4" d="M115.135,138.217l-1.674-0.515l-2.704,7.726c0,0,1.223-0.129,1.674,1.223"/>
	<polyline class="st4" points="87.491,162.424 87.031,161.458 91.908,148.16 93.381,148.16 93.887,149.449 	"/>
	<line class="st4" x1="93.125" y1="144.939" x2="94.393" y2="148.988"/>
	<polyline class="st4" points="103.788,169.038 102.366,168.712 99.61,176.415 101.062,176.83 	"/>
	<line class="st4" x1="118.294" y1="126.303" x2="122.327" y2="114.809"/>
	<path class="st4" d="M124.04,113.317c0,0,6.797,2.155,4.863,6.134"/>
	<polygon class="st4" points="116.36,117.738 115.144,121.274 117.575,121.772 118.736,118.235 	"/>
	<path class="st4" d="M109.01,107.239l0.276-1.216l15.306,2.266l3.536,0.939l0.387,1.16l1.824-0.774c0,0,0.608,3.26-2.376,5.636"/>
	<path class="st4" d="M124.192,112.753c0,0,2.995,1.274,3.305-1.205l0.654,0.069l2.1-0.998"/>
	<path class="st4" d="M130.34,109.615l1.827-5.629l-3.713-1.078l-1.917,5.63c-10.204-1.946-8.786-8.437-8.786-8.437
		s1.775-10.221,8.069-11.19c6.294-0.968,9.737,5.918,9.737,5.918c-3.335,3.82-5.38-0.592-5.38-0.592s-2.098-2.959-4.949-0.753
		c-2.851,2.206-3.443,6.725-3.443,6.725s-0.915,2.206,1.13,2.959c2.044,0.753,4.465,1.937,4.465,1.937"/>
	<polyline class="st4" points="131.753,89.867 132.648,87.277 138.441,88.502 137.216,93.211 136.368,92.976 135.238,96.037 
		136.039,96.272 134.485,100.652 128.316,99.427 130.177,94.238 	"/>
	<polyline class="st4" points="128.928,99.898 129.775,102.63 134.673,103.524 133.92,100.793 	"/>
	<polyline class="st4" points="133.307,107.998 135.38,108.281 134.391,105.126 135.097,102.347 136.604,98.344 	"/>
	<polygon class="st4" points="137.208,93.895 138.999,94.311 138.125,96.659 136.342,96.244 	"/>
	<polyline class="st4" points="138.761,95.558 139.572,98.395 138.607,100.922 137.526,97.372 138.125,96.659 	"/>
	<polyline class="st4" points="138.472,100.905 137.408,100.582 136.249,96.403 	"/>
	<polyline class="st4" points="138.016,93.952 139.023,91.255 138.377,88.918 	"/>
	<line class="st4" x1="135.337" y1="107.862" x2="137.813" y2="100.895"/>
	<polyline class="st4" points="139.263,96.58 139.899,94.918 140.182,94.176 139.263,91.311 	"/>
	<path class="st4" d="M132.167,103.986l1.284,2.999c0,0,0,2.344-2.617,1.406"/>
</g>
<g>
	<polyline class="st1" points="141.853,27.98 148.424,29.204 140.887,49.369 129.631,47.02 133.478,36.613 	"/>
	<g>
		<g>
			<g>
				<defs>
					<circle id="SVGID_1_" cx="134.358" cy="40.171" r="33.93"/>
				</defs>
				<clipPath id="SVGID_00000119084073819667022590000016407603383132716425_">
					<use xlink:href="#SVGID_1_"  style="overflow:visible;"/>
				</clipPath>
				
					<path style="clip-path:url(#SVGID_00000119084073819667022590000016407603383132716425_);fill:none;stroke:#221F1F;stroke-width:0.5;stroke-miterlimit:10;" d="
					M103.395,11.842c0,0,12.156-3.614,28.144,6.489s12.751,21.48,12.751,21.48s-5.296,5.395-10.495-2.648
					c0,0-6.676-18.453-30.308-14.222L103.395,11.842z"/>
			</g>
			<g>
				<defs>
					<circle id="SVGID_00000123413192632599338740000003806184149259321239_" cx="134.358" cy="40.171" r="33.93"/>
				</defs>
				<clipPath id="SVGID_00000063623211792120118560000004464462188791208590_">
					<use xlink:href="#SVGID_00000123413192632599338740000003806184149259321239_"  style="overflow:visible;"/>
				</clipPath>
				
					<polyline style="clip-path:url(#SVGID_00000063623211792120118560000004464462188791208590_);fill:none;stroke:#221F1F;stroke-width:0.5;stroke-linecap:round;stroke-linejoin:round;stroke-miterlimit:10;" points="
					129.602,46.851 129.635,47.818 130.569,48.043 130.956,53.939 130.762,54.938 131.342,61.382 130.601,61.318 130.15,62.22 
					130.215,64.378 140.396,66.44 139.687,58.482 140.235,55.808 139.848,49.783 140.879,49.912 140.879,49.429 				"/>
			</g>
			<g>
				<defs>
					<circle id="SVGID_00000157275690275857491080000006440852297483535026_" cx="134.358" cy="40.171" r="33.93"/>
				</defs>
				<clipPath id="SVGID_00000180335750468419664930000011361589009462382245_">
					<use xlink:href="#SVGID_00000157275690275857491080000006440852297483535026_"  style="overflow:visible;"/>
				</clipPath>
				
					<polyline style="clip-path:url(#SVGID_00000180335750468419664930000011361589009462382245_);fill:none;stroke:#221F1F;stroke-width:0.5;stroke-linecap:round;stroke-linejoin:round;stroke-miterlimit:10;" points="
					131.02,53.939 140.235,55.808 143.383,47.022 				"/>
			</g>
			<g>
				<defs>
					<circle id="SVGID_00000137097706296301117390000001738894305907843719_" cx="134.358" cy="40.171" r="33.93"/>
				</defs>
				<clipPath id="SVGID_00000009553742299512740160000014923008203525341883_">
					<use xlink:href="#SVGID_00000137097706296301117390000001738894305907843719_"  style="overflow:visible;"/>
				</clipPath>
				
					<polyline style="clip-path:url(#SVGID_00000009553742299512740160000014923008203525341883_);fill:none;stroke:#221F1F;stroke-width:0.5;stroke-linecap:round;stroke-linejoin:round;stroke-miterlimit:10;" points="
					147.292,32.237 147.547,36.018 146.527,38.737 				"/>
			</g>
			<g>
				<defs>
					<circle id="SVGID_00000152241922898947937740000002107838230550948023_" cx="134.358" cy="40.171" r="33.93"/>
				</defs>
				<clipPath id="SVGID_00000127749906556024596390000004449291125749276093_">
					<use xlink:href="#SVGID_00000152241922898947937740000002107838230550948023_"  style="overflow:visible;"/>
				</clipPath>
				
					<path style="clip-path:url(#SVGID_00000127749906556024596390000004449291125749276093_);fill:none;stroke:#221F1F;stroke-width:0.5;stroke-linecap:round;stroke-linejoin:round;stroke-miterlimit:10;" d="
					M148.481,39.332l-3.484-0.595L148.481,39.332z"/>
			</g>
			<g>
				<defs>
					<circle id="SVGID_00000096028725661854005460000005305318329302563461_" cx="134.358" cy="40.171" r="33.93"/>
				</defs>
				<clipPath id="SVGID_00000160905320305602685890000000682648737466247327_">
					<use xlink:href="#SVGID_00000096028725661854005460000005305318329302563461_"  style="overflow:visible;"/>
				</clipPath>
				
					<polyline style="clip-path:url(#SVGID_00000160905320305602685890000000682648737466247327_);fill:none;stroke:#221F1F;stroke-width:0.5;stroke-linecap:round;stroke-linejoin:round;stroke-miterlimit:10;" points="
					148.481,39.332 148.694,40.012 147.462,43.496 143.51,42.774 				"/>
			</g>
			<g>
				<defs>
					<circle id="SVGID_00000093144330783366050460000011618150290535538827_" cx="134.358" cy="40.171" r="33.93"/>
				</defs>
				<clipPath id="SVGID_00000093176891677020804700000017443338725717847454_">
					<use xlink:href="#SVGID_00000093144330783366050460000011618150290535538827_"  style="overflow:visible;"/>
				</clipPath>
				
					<polyline style="clip-path:url(#SVGID_00000093176891677020804700000017443338725717847454_);fill:none;stroke:#221F1F;stroke-width:0.5;stroke-linecap:round;stroke-linejoin:round;stroke-miterlimit:10;" points="
					147.462,43.496 147.504,44.218 145.975,44.643 146.612,52.928 148.354,48.169 148.056,41.881 				"/>
			</g>
			<g>
				<defs>
					<circle id="SVGID_00000052802823423093762550000004298807235827773320_" cx="134.358" cy="40.171" r="33.93"/>
				</defs>
				<clipPath id="SVGID_00000106835229436827413490000009766768968113139364_">
					<use xlink:href="#SVGID_00000052802823423093762550000004298807235827773320_"  style="overflow:visible;"/>
				</clipPath>
				
					<polyline style="clip-path:url(#SVGID_00000106835229436827413490000009766768968113139364_);fill:none;stroke:#221F1F;stroke-width:0.5;stroke-linecap:round;stroke-linejoin:round;stroke-miterlimit:10;" points="
					143.893,42.901 144.063,46.937 142.236,46.64 				"/>
			</g>
			<g>
				<defs>
					<circle id="SVGID_00000118382330006017392330000010316083258599952781_" cx="134.358" cy="40.171" r="33.93"/>
				</defs>
				<clipPath id="SVGID_00000176044594779797982010000004946906385909179822_">
					<use xlink:href="#SVGID_00000118382330006017392330000010316083258599952781_"  style="overflow:visible;"/>
				</clipPath>
				
					<line style="clip-path:url(#SVGID_00000176044594779797982010000004946906385909179822_);fill:none;stroke:#221F1F;stroke-width:0.5;stroke-linecap:round;stroke-linejoin:round;stroke-miterlimit:10;" x1="140.396" y1="66.44" x2="145.167" y2="52.63"/>
			</g>
			<g>
				<defs>
					<circle id="SVGID_00000007422459168653033380000009494822839537075374_" cx="134.358" cy="40.171" r="33.93"/>
				</defs>
				<clipPath id="SVGID_00000085940544036046716580000008870086391225097631_">
					<use xlink:href="#SVGID_00000007422459168653033380000009494822839537075374_"  style="overflow:visible;"/>
				</clipPath>
				
					<polyline style="clip-path:url(#SVGID_00000085940544036046716580000008870086391225097631_);fill:none;stroke:#221F1F;stroke-width:0.5;stroke-linecap:round;stroke-linejoin:round;stroke-miterlimit:10;" points="
					146.612,52.928 144.573,52.63 144.403,47.574 144.063,46.937 				"/>
			</g>
		</g>
		<circle class="st15" cx="134.358" cy="40.171" r="33.93"/>
	</g>
</g>
<g>
	<g>
		<g>
			<defs>
				<circle id="SVGID_00000003821234154501531410000001041471809345972916_" cx="50.248" cy="92.947" r="33.93"/>
			</defs>
			<clipPath id="SVGID_00000092415787712842070180000015390886361067009214_">
				<use xlink:href="#SVGID_00000003821234154501531410000001041471809345972916_"  style="overflow:visible;"/>
			</clipPath>
			
				<line style="clip-path:url(#SVGID_00000092415787712842070180000015390886361067009214_);fill:none;stroke:#221F1F;stroke-width:0.5;stroke-linecap:round;stroke-linejoin:round;stroke-miterlimit:10;" x1="10.434" y1="60.861" x2="91.68" y2="79.386"/>
		</g>
		<g>
			<defs>
				<circle id="SVGID_00000158744302835629338200000004695497372641871250_" cx="50.248" cy="92.947" r="33.93"/>
			</defs>
			<clipPath id="SVGID_00000135655490684324390960000015714874502878195076_">
				<use xlink:href="#SVGID_00000158744302835629338200000004695497372641871250_"  style="overflow:visible;"/>
			</clipPath>
			
				<line style="clip-path:url(#SVGID_00000135655490684324390960000015714874502878195076_);fill:none;stroke:#221F1F;stroke-width:0.5;stroke-linecap:round;stroke-linejoin:round;stroke-miterlimit:10;" x1="10.211" y1="113.09" x2="91.68" y2="130.611"/>
		</g>
		<g>
			<defs>
				<circle id="SVGID_00000008869281299019231320000004279801750769554571_" cx="50.248" cy="92.947" r="33.93"/>
			</defs>
			<clipPath id="SVGID_00000078764129926984650140000016446744536685640325_">
				<use xlink:href="#SVGID_00000008869281299019231320000004279801750769554571_"  style="overflow:visible;"/>
			</clipPath>
			
				<line style="clip-path:url(#SVGID_00000078764129926984650140000016446744536685640325_);fill:none;stroke:#221F1F;stroke-width:0.5;stroke-linecap:round;stroke-linejoin:round;stroke-miterlimit:10;" x1="61.101" y1="93.571" x2="91.791" y2="100.479"/>
		</g>
		<g>
			<defs>
				<circle id="SVGID_00000070082282414890596750000000926449293778277802_" cx="50.248" cy="92.947" r="33.93"/>
			</defs>
			<clipPath id="SVGID_00000011738540940124808960000009043467598459783068_">
				<use xlink:href="#SVGID_00000070082282414890596750000000926449293778277802_"  style="overflow:visible;"/>
			</clipPath>
			
				<line style="clip-path:url(#SVGID_00000011738540940124808960000009043467598459783068_);fill:none;stroke:#221F1F;stroke-width:0.5;stroke-linecap:round;stroke-linejoin:round;stroke-miterlimit:10;" x1="10.546" y1="82.4" x2="37.745" y2="88.307"/>
		</g>
		<g>
			<defs>
				<circle id="SVGID_00000023994473579313694470000009084096413710504359_" cx="50.248" cy="92.947" r="33.93"/>
			</defs>
			<clipPath id="SVGID_00000060750664779390897470000010512827393880156592_">
				<use xlink:href="#SVGID_00000023994473579313694470000009084096413710504359_"  style="overflow:visible;"/>
			</clipPath>
			
				<polyline style="clip-path:url(#SVGID_00000060750664779390897470000010512827393880156592_);fill:none;stroke:#221F1F;stroke-width:0.5;stroke-linecap:round;stroke-linejoin:round;stroke-miterlimit:10;" points="
				10.546,69.119 39.423,75.633 42.068,75.044 66.898,80.573 64.042,81.187 91.68,87.422 			"/>
		</g>
		<g>
			<defs>
				<circle id="SVGID_00000170248248792254236450000012131623539792004995_" cx="50.248" cy="92.947" r="33.93"/>
			</defs>
			<clipPath id="SVGID_00000080185324857440512990000012493701567477428633_">
				<use xlink:href="#SVGID_00000170248248792254236450000012131623539792004995_"  style="overflow:visible;"/>
			</clipPath>
			
				<path style="clip-path:url(#SVGID_00000080185324857440512990000012493701567477428633_);fill:none;stroke:#221F1F;stroke-width:0.5;stroke-linecap:round;stroke-linejoin:round;stroke-miterlimit:10;" d="
				M37.382,75.238l0.908,1.392l0.363,9.681c0,0-1.21,1.089-0.787,3.146l22.811,5.204c0,0,0.363-2.481,1.392-3.086l0.847-9.015
				c0,0,0.135-1.474,1.126-1.372"/>
		</g>
		<g>
			<defs>
				<circle id="SVGID_00000019645093274399347200000011934686102069049743_" cx="50.248" cy="92.947" r="33.93"/>
			</defs>
			<clipPath id="SVGID_00000022550973456104403840000001670807510219628426_">
				<use xlink:href="#SVGID_00000019645093274399347200000011934686102069049743_"  style="overflow:visible;"/>
			</clipPath>
			
				<polyline style="clip-path:url(#SVGID_00000022550973456104403840000001670807510219628426_);fill:none;stroke:#221F1F;stroke-width:0.5;stroke-linecap:round;stroke-linejoin:round;stroke-miterlimit:10;" points="
				42.068,75.044 41.989,77.202 63.004,82.038 			"/>
		</g>
		<g>
			<defs>
				<circle id="SVGID_00000112611709408527331630000008024575229771959951_" cx="50.248" cy="92.947" r="33.93"/>
			</defs>
			<clipPath id="SVGID_00000078759097453570937680000006878870756855210648_">
				<use xlink:href="#SVGID_00000112611709408527331630000008024575229771959951_"  style="overflow:visible;"/>
			</clipPath>
			
				<polyline style="clip-path:url(#SVGID_00000078759097453570937680000006878870756855210648_);fill:none;stroke:#221F1F;stroke-width:0.5;stroke-linecap:round;stroke-linejoin:round;stroke-miterlimit:10;" points="
				45.213,78.038 42.162,78.725 40.974,78.993 40.974,80.008 			"/>
		</g>
		<g>
			<defs>
				<circle id="SVGID_00000099663554893779765760000015124584838543167933_" cx="50.248" cy="92.947" r="33.93"/>
			</defs>
			<clipPath id="SVGID_00000015330292363596401020000008923961187387967112_">
				<use xlink:href="#SVGID_00000099663554893779765760000015124584838543167933_"  style="overflow:visible;"/>
			</clipPath>
			
				<path style="clip-path:url(#SVGID_00000015330292363596401020000008923961187387967112_);fill:none;stroke:#221F1F;stroke-width:0.5;stroke-linecap:round;stroke-linejoin:round;stroke-miterlimit:10;" d="
				M41.691,78.873l18.925,4.239c0,0,2.149,0.418,1.91,2.925"/>
		</g>
		<g>
			<defs>
				<circle id="SVGID_00000145773394214735357120000004186276924926147237_" cx="50.248" cy="92.947" r="33.93"/>
			</defs>
			<clipPath id="SVGID_00000082361629667348896330000005432791295944881040_">
				<use xlink:href="#SVGID_00000145773394214735357120000004186276924926147237_"  style="overflow:visible;"/>
			</clipPath>
			
				<line style="clip-path:url(#SVGID_00000082361629667348896330000005432791295944881040_);fill:none;stroke:#221F1F;stroke-width:0.5;stroke-linecap:round;stroke-linejoin:round;stroke-miterlimit:10;" x1="39.84" y1="81.441" x2="60.855" y2="86.157"/>
		</g>
		<g>
			<defs>
				<circle id="SVGID_00000071554044838171352830000004543004515783130004_" cx="50.248" cy="92.947" r="33.93"/>
			</defs>
			<clipPath id="SVGID_00000177471249851340062950000006698948686130656405_">
				<use xlink:href="#SVGID_00000071554044838171352830000004543004515783130004_"  style="overflow:visible;"/>
			</clipPath>
			
				<line style="clip-path:url(#SVGID_00000177471249851340062950000006698948686130656405_);fill:none;stroke:#221F1F;stroke-width:0.5;stroke-linecap:round;stroke-linejoin:round;stroke-miterlimit:10;" x1="40.497" y1="80.426" x2="60.079" y2="84.844"/>
		</g>
		<g>
			<defs>
				<circle id="SVGID_00000158018525657900838100000005418539723535234209_" cx="50.248" cy="92.947" r="33.93"/>
			</defs>
			<clipPath id="SVGID_00000114757201754804976010000002626861653755131275_">
				<use xlink:href="#SVGID_00000158018525657900838100000005418539723535234209_"  style="overflow:visible;"/>
			</clipPath>
			
				<path style="clip-path:url(#SVGID_00000114757201754804976010000002626861653755131275_);fill:none;stroke:#221F1F;stroke-width:0.5;stroke-linecap:round;stroke-linejoin:round;stroke-miterlimit:10;" d="
				M39.601,88.545l21.253,4.763l0.179-6.434c0.119-2.209-2.03-3.164-2.03-3.164l-17.015-3.821c-2.269-0.179-2.328,2.09-2.328,2.09
				l-0.179,7.88"/>
		</g>
		<g>
			<defs>
				<circle id="SVGID_00000052100089806996902390000013279963222687323018_" cx="50.248" cy="92.947" r="33.93"/>
			</defs>
			<clipPath id="SVGID_00000183935796302371695940000010425053023038274750_">
				<use xlink:href="#SVGID_00000052100089806996902390000013279963222687323018_"  style="overflow:visible;"/>
			</clipPath>
			<g style="clip-path:url(#SVGID_00000183935796302371695940000010425053023038274750_);">
				<path d="M42.161,88.409l-0.045-5.774l1.486,0.341c0.563,0.129,0.93,0.243,1.101,0.339c0.263,0.147,0.485,0.386,0.664,0.717
					s0.271,0.726,0.275,1.186c0.003,0.354-0.046,0.641-0.146,0.859c-0.101,0.218-0.229,0.378-0.385,0.48
					c-0.156,0.102-0.316,0.156-0.478,0.163c-0.221,0.004-0.541-0.042-0.959-0.138l-0.604-0.139l0.017,2.178L42.161,88.409z
					 M43.05,83.823l0.013,1.639l0.507,0.116c0.365,0.084,0.609,0.109,0.731,0.077c0.122-0.032,0.218-0.104,0.287-0.217
					c0.069-0.113,0.103-0.254,0.101-0.425c-0.002-0.21-0.052-0.395-0.151-0.554c-0.099-0.159-0.224-0.273-0.374-0.342
					c-0.111-0.052-0.333-0.116-0.666-0.192L43.05,83.823z"/>
				<path d="M46.062,83.54l0.926,0.213l0.024,3.128c0.004,0.496,0.018,0.82,0.042,0.973c0.041,0.245,0.137,0.456,0.287,0.634
					c0.151,0.178,0.355,0.296,0.613,0.355c0.263,0.06,0.46,0.039,0.593-0.066c0.132-0.105,0.211-0.252,0.237-0.443
					s0.037-0.515,0.033-0.972l-0.025-3.194l0.926,0.213l0.023,3.033c0.005,0.693-0.016,1.177-0.064,1.452s-0.138,0.495-0.271,0.661
					s-0.311,0.282-0.536,0.347c-0.224,0.065-0.518,0.056-0.881-0.027c-0.438-0.101-0.771-0.24-0.998-0.42
					c-0.227-0.179-0.408-0.386-0.54-0.619c-0.133-0.234-0.221-0.467-0.265-0.7c-0.063-0.345-0.097-0.84-0.102-1.486L46.062,83.54z"
					/>
				<path d="M50.17,88.372l0.9,0.096c0.057,0.393,0.169,0.698,0.337,0.915c0.167,0.216,0.391,0.357,0.673,0.422
					c0.298,0.069,0.522,0.041,0.672-0.083s0.224-0.293,0.222-0.505c-0.001-0.137-0.034-0.26-0.098-0.37
					c-0.064-0.111-0.176-0.22-0.335-0.327c-0.109-0.072-0.357-0.213-0.743-0.422c-0.497-0.269-0.847-0.54-1.049-0.811
					c-0.284-0.382-0.428-0.802-0.431-1.259c-0.002-0.294,0.062-0.554,0.193-0.78c0.13-0.226,0.32-0.377,0.568-0.453
					c0.248-0.077,0.548-0.074,0.901,0.006c0.576,0.132,1.01,0.39,1.303,0.775c0.294,0.385,0.449,0.844,0.468,1.378l-0.925-0.162
					c-0.042-0.306-0.129-0.538-0.26-0.699c-0.131-0.16-0.327-0.27-0.588-0.329c-0.269-0.062-0.479-0.041-0.63,0.063
					c-0.097,0.067-0.145,0.175-0.144,0.325c0.001,0.136,0.048,0.264,0.14,0.382c0.118,0.15,0.402,0.344,0.854,0.582
					c0.452,0.237,0.786,0.452,1.003,0.645c0.217,0.192,0.387,0.427,0.511,0.703s0.187,0.597,0.19,0.962
					c0.003,0.33-0.068,0.624-0.212,0.879s-0.348,0.422-0.614,0.502c-0.266,0.079-0.598,0.073-0.996-0.019
					c-0.58-0.133-1.026-0.404-1.34-0.813C50.424,89.566,50.235,89.032,50.17,88.372z"/>
				<path d="M54.374,91.213l-0.045-5.774l0.926,0.213l0.018,2.273l1.814,0.417l-0.018-2.273l0.926,0.213l0.045,5.774l-0.926-0.213
					l-0.019-2.525l-1.814-0.417l0.019,2.525L54.374,91.213z"/>
			</g>
		</g>
	</g>
	<circle class="st15" cx="50.248" cy="92.947" r="33.93"/>
</g>
<g>
	<g>
		<path class="st29" d="M32.574,80.898c0,7.593-6.246,13.745-13.95,13.745c-7.707,0-13.953-6.152-13.953-13.745
			c0-7.596,6.246-13.755,13.953-13.755C26.329,67.144,32.574,73.303,32.574,80.898"/>
	</g>
	<g>
		<path class="st30" d="M23.28,85.855v1.774h-9.936c-0.014-0.444,0.058-0.872,0.215-1.282c0.253-0.677,0.658-1.343,1.215-2
			c0.557-0.656,1.362-1.415,2.415-2.276c1.634-1.34,2.738-2.401,3.312-3.184s0.861-1.523,0.861-2.22
			c0-0.731-0.262-1.348-0.784-1.851c-0.523-0.502-1.205-0.753-2.046-0.753c-0.889,0-1.6,0.267-2.133,0.8s-0.803,1.271-0.81,2.215
			l-1.897-0.195c0.13-1.415,0.619-2.493,1.466-3.235c0.848-0.741,1.986-1.112,3.415-1.112c1.442,0,2.584,0.4,3.425,1.2
			s1.261,1.791,1.261,2.974c0,0.602-0.123,1.193-0.369,1.774s-0.655,1.193-1.225,1.835c-0.571,0.643-1.52,1.524-2.846,2.646
			c-1.107,0.93-1.818,1.561-2.133,1.892s-0.574,0.665-0.779,1h7.373V85.855z"/>
	</g>
</g>
<g>
	<g>
		<path class="st29" d="M133.592,158.31c0,7.593-6.246,13.745-13.95,13.745c-7.707,0-13.953-6.152-13.953-13.745
			c0-7.596,6.246-13.755,13.953-13.755C127.346,144.555,133.592,150.714,133.592,158.31"/>
	</g>
	<g>
		<path class="st30" d="M114.897,161.59l1.846-0.246c0.212,1.046,0.572,1.799,1.082,2.261c0.509,0.461,1.129,0.692,1.861,0.692
			c0.868,0,1.601-0.301,2.2-0.902c0.598-0.602,0.897-1.347,0.897-2.235c0-0.848-0.277-1.547-0.831-2.098
			c-0.554-0.55-1.258-0.825-2.112-0.825c-0.349,0-0.783,0.068-1.302,0.205l0.205-1.62c0.123,0.014,0.222,0.021,0.297,0.021
			c0.786,0,1.494-0.205,2.123-0.615s0.943-1.042,0.943-1.896c0-0.677-0.229-1.237-0.687-1.682s-1.049-0.667-1.774-0.667
			c-0.718,0-1.316,0.226-1.794,0.677s-0.786,1.128-0.923,2.03l-1.846-0.328c0.226-1.237,0.738-2.195,1.538-2.876
			c0.8-0.68,1.794-1.021,2.984-1.021c0.82,0,1.576,0.177,2.266,0.528c0.69,0.353,1.218,0.832,1.584,1.44s0.549,1.255,0.549,1.938
			c0,0.649-0.174,1.24-0.523,1.773s-0.865,0.957-1.548,1.271c0.889,0.205,1.579,0.631,2.071,1.276
			c0.492,0.646,0.738,1.455,0.738,2.426c0,1.312-0.479,2.425-1.436,3.337c-0.957,0.913-2.167,1.369-3.63,1.369
			c-1.319,0-2.415-0.393-3.286-1.179C115.517,163.86,115.02,162.841,114.897,161.59z"/>
	</g>
</g>
<g>
	<g>
		<path class="st29" d="M172.83,15.77c0,7.593-6.246,13.745-13.95,13.745c-7.707,0-13.953-6.152-13.953-13.745
			c0-7.596,6.246-13.755,13.953-13.755C166.584,2.016,172.83,8.175,172.83,15.77"/>
	</g>
	<g>
		<path class="st30" d="M160.477,22.812h-1.846V11.051c-0.444,0.424-1.027,0.848-1.749,1.271s-1.369,0.742-1.943,0.954v-1.784
			c1.032-0.485,1.935-1.073,2.707-1.764s1.319-1.36,1.641-2.01h1.189L160.477,22.812L160.477,22.812z"/>
	</g>
</g>
<g>
	<polygon class="st31" points="161.302,30.839 173.877,44.208 167.601,43.097 167.812,64.157 155.435,61.968 155.223,40.906 
		148.947,39.797 	"/>
</g>
<g>
	<polygon class="st31" points="46.125,93.195 22.079,98.716 29.505,100.67 11.975,118.401 26.622,122.259 44.152,104.528 
		51.578,106.485 	"/>
</g>
<g>
	<polygon class="st31" points="102.656,114 115.23,127.369 108.954,126.258 109.165,147.318 96.788,145.129 96.577,124.067 
		90.301,122.958 	"/>
</g>
<polyline class="st15" points="65.218,123.49 87.766,153.411 74.046,117.157 "/>
<polygon class="st30" points="171.727,123.591 172.755,121.851 175.915,131.761 "/>
<polyline class="st15" points="155.464,66.894 176.402,133.226 146.615,71.871 "/>
<g>
	<g>
		<path class="st1" d="M270.059,106.22"/>
	</g>
	<g>
		<path class="st1" d="M276.391,107.521"/>
	</g>
	<path class="st1" d="M296.608,113.51"/>
	<polygon class="st1" points="269.768,105.221 268.752,104.988 267.183,109.665 268.258,109.897 	"/>
	<polyline class="st1" points="267.183,109.868 267.241,111.262 268.367,111.508 268.287,109.955 	"/>
	<path class="st1" d="M268.459,111.416"/>
	<path class="st1" d="M297.351,116.87"/>
	<path class="st1" d="M300.501,112.217c0,0-1.135,0.077-1.368,0.903c0,0-0.335,0.852,0.852,0.723c0,0,1.187,0,1.548-0.877
		C301.533,112.965,301.688,112.036,300.501,112.217z"/>
	<path class="st1" d="M297.355,115.692l0.075,2.133c0,0,1.004,0.427,1.205-0.276l0.427-0.954l-0.025-1.686"/>
	<polyline class="st1" points="299.237,116.721 300.668,116.972 301.571,114.487 301.521,113.082 	"/>
	<polyline class="st1" points="300.166,113.935 300.191,116.118 300.894,116.244 	"/>
	<path class="st1" d="M300.266,112.064c0.108-0.888-0.173-0.953-0.173-0.953l-0.714-0.13l-0.123,1.505"/>
	<path class="st1" d="M299.327,113.879l-0.654,2.042c0,0-0.099,0.694-1.209,0.278"/>
	<path class="st1" d="M232.928,100.237c-1.14-0.534-0.675-1.443-0.675-1.443c0.442-0.885,1.629-0.279,1.629-0.279
		s1.303,0.349,0.954,1.536C234.836,100.051,234.766,101.099,232.928,100.237z"/>
	<polyline class="st1" points="235.011,99.103 235.374,98.159 236.734,98.408 236.632,100.014 235.042,104.966 	"/>
	<polyline class="st1" points="235.105,100.077 235.56,100.184 235.071,101.372 234.21,101.185 233.605,103.071 234.981,103.329 	
		"/>
	<polyline class="st1" points="234.441,101.377 232.62,101.039 232.636,102.312 232.233,102.231 232.217,102.957 233.426,103.182 	
		"/>
	<path class="st1" d="M234.006,101.635l-0.371,1.064c0,0-0.338,0.516,1.358,0.703l0.048,1.563l-1.052-0.107
		c0,0-0.435-0.016-0.435-0.435s-0.032-1.434-0.032-1.434"/>
	<polygon class="st1" points="263.803,109.106 265.093,109.465 265.093,110.82 263.803,110.461 	"/>
	<polyline class="st1" points="263.836,109.008 265.566,104.308 266.79,104.618 265.093,109.465 	"/>
	<polyline class="st1" points="265.093,110.82 266.741,106.103 266.806,104.683 	"/>
	<polyline class="st1" points="269.768,105.221 269.931,106.815 268.459,111.416 	"/>
</g>
</svg>
