<?xml version="1.0" encoding="utf-8"?>
<!-- Generator: Adobe Illustrator 26.0.3, SVG Export Plug-In . SVG Version: 6.00 Build 0)  -->
<svg version="1.1" id="RTC_x5F_BATTERY" xmlns="http://www.w3.org/2000/svg" xmlns:xlink="http://www.w3.org/1999/xlink" x="0px"
	 y="0px" viewBox="0 0 468 235.512" style="enable-background:new 0 0 468 235.512;" xml:space="preserve">
<style type="text/css">
	.st0{fill:#D2D3D4;}
	.st1{fill:none;stroke:#231F20;stroke-width:0.5;stroke-linecap:round;stroke-linejoin:round;stroke-miterlimit:10;}
	.st2{fill:none;stroke:#231F20;stroke-width:0.4;stroke-linecap:round;stroke-linejoin:round;stroke-miterlimit:10;}
	.st3{fill:#D2D3D4;stroke:#231F20;stroke-width:0.4;stroke-miterlimit:10;}
	.st4{fill:#231F20;stroke:#231F20;stroke-width:0.5219;stroke-linecap:round;stroke-linejoin:round;stroke-miterlimit:10;}
	.st5{fill:#FFFFFF;stroke:#231F20;stroke-width:0.38;stroke-linecap:round;stroke-linejoin:round;stroke-miterlimit:10;}
	.st6{fill:#FFFFFF;stroke:#231F20;stroke-width:0.5182;stroke-linecap:round;stroke-linejoin:round;stroke-miterlimit:10;}
	.st7{fill:#FFFFFF;stroke:#231F20;stroke-width:0.4642;stroke-linecap:round;stroke-linejoin:round;stroke-miterlimit:10;}
	.st8{fill:none;stroke:#231F20;stroke-width:0.4642;stroke-linecap:round;stroke-linejoin:round;stroke-miterlimit:10;}
	.st9{fill:#FFFFFF;stroke:#231F20;stroke-width:0.75;stroke-linecap:round;stroke-linejoin:round;stroke-miterlimit:10;}
	.st10{fill:none;stroke:#FFFFFF;stroke-width:2;stroke-linecap:round;stroke-linejoin:round;stroke-miterlimit:10;}
	
		.st11{fill:none;stroke:#231F20;stroke-width:0.5;stroke-linecap:round;stroke-linejoin:round;stroke-miterlimit:10;stroke-dasharray:2.0562;}
	.st12{fill:#FFFFFF;stroke:#231F20;stroke-width:0.5;stroke-miterlimit:10;}
	.st13{fill:#231F20;stroke:#FFFFFF;stroke-width:1.5;stroke-miterlimit:10;}
	.st14{fill:#FFFFFF;}
	.st15{fill:#231F20;stroke:#FFFFFF;stroke-linecap:round;stroke-linejoin:round;stroke-miterlimit:10;}
	.st16{fill:#231F20;}
	.st17{fill:#231F20;stroke:#FFFFFF;stroke-width:0.5;stroke-linecap:round;stroke-linejoin:round;stroke-miterlimit:10;}
	.st18{fill:#231F20;stroke:#FFFFFF;stroke-width:0.7495;stroke-linecap:round;stroke-linejoin:round;stroke-miterlimit:10;}
	.st19{fill:none;stroke:#231F20;stroke-width:0.6906;stroke-miterlimit:10;}
</style>
<path class="st0" d="M119.343,150.473l0.16,3.325l1.722,0.24l2.203-5.287c0,0,0.721-3.164-1.642-3.204l-0.32,1.081
	c0,0-1.122,0.801-1.081,2.924C120.385,149.551,119.864,149.391,119.343,150.473z"/>
<polyline class="st1" points="112.292,77.385 99.055,74.683 98.249,75.984 95.933,75.53 95.161,75.757 "/>
<line class="st1" x1="136.7" y1="82.368" x2="117.84" y2="78.518"/>
<line class="st1" x1="142.788" y1="83.611" x2="139.64" y2="82.968"/>
<line class="st1" x1="168.738" y1="88.909" x2="144.076" y2="83.874"/>
<line class="st1" x1="195.248" y1="94.321" x2="170.698" y2="89.309"/>
<line class="st1" x1="203.913" y1="96.09" x2="196.647" y2="94.607"/>
<polyline class="st1" points="207.131,105.998 208.064,98.419 208.95,97.118 206.688,96.657 "/>
<polyline class="st1" points="93.023,79.636 92.383,80.595 79.619,115.1 79.638,117.473 79.67,119.451 79.528,120.039 
	76.343,128.83 76.148,123.838 "/>
<polyline class="st1" points="79.652,113.816 80.009,110.69 93.053,76.83 "/>
<path class="st1" d="M93.023,79.636"/>
<path class="st1" d="M76.703,128.999"/>
<line class="st1" x1="74.237" y1="130.584" x2="75.939" y2="130.876"/>
<polyline class="st1" points="78.677,150.043 78.386,147.905 83.19,135.491 190.405,157.411 170.524,212.285 170.524,214.715 "/>
<path class="st1" d="M215.172,107.867l0.069-3.071c0,0-0.365-0.706-1.037-0.537l-0.227-9.387l-2.22,5.63l-0.051,1.108
	l-12.112,32.779c0,0-1.06,2.952-0.984,5.602c0.076,2.65,0.64,3.201,0.111,4.337c-0.53,1.136-3.448,8.337-3.448,8.337l-0.228-3.795
	c0,0-0.116-0.218-0.303-0.327c-0.264-0.155-0.668-0.092-1.08,1.115l-3.112,7.929"/>
<polyline class="st1" points="215.034,105.05 212.891,110.596 212.839,108.667 213.546,106.789 213.563,106.048 214.287,104.221 "/>
<polyline class="st1" points="211.78,99.856 210.957,99.7 209.888,102.215 209.599,104.023 "/>
<line class="st1" x1="210.584" y1="104.351" x2="209.563" y2="104.096"/>
<line class="st1" x1="172.449" y1="223.708" x2="215.113" y2="107.626"/>
<polygon class="st1" points="171.295,218.453 171.963,216.072 171.963,215.028 169.081,214.401 164.945,222.882 164.569,229.858 
	168.036,230.652 169.206,228.438 169.373,223.842 170.71,220.375 "/>
<line class="st1" x1="165.609" y1="224.58" x2="167.805" y2="225.016"/>
<line class="st1" x1="165.578" y1="225.343" x2="167.774" y2="225.78"/>
<line class="st1" x1="165.547" y1="226.107" x2="167.743" y2="226.543"/>
<line class="st1" x1="165.516" y1="226.87" x2="167.712" y2="227.306"/>
<line class="st1" x1="165.484" y1="227.633" x2="167.681" y2="228.069"/>
<line class="st1" x1="165.453" y1="228.396" x2="167.65" y2="228.833"/>
<line class="st1" x1="165.422" y1="229.16" x2="167.618" y2="229.596"/>
<path class="st1" d="M171.295,218.453c0,0,0.796-0.051,0.884,1.379s0.286,6.382,0.286,6.382l-2.223,5.854l-1.959-0.418l-0.022-1.276
	"/>
<g>
	<g id="SPLINE_00000166649589365213189610000009356520820659864235_">
		<path class="st1" d="M154.137,170.172c-0.232,0.062-0.473,0.097-0.714,0.104c-0.241,0.007-0.484-0.013-0.719-0.061
			c-0.294-0.06-0.582-0.165-0.841-0.318c-0.121-0.072-0.236-0.154-0.342-0.247c-0.1-0.088-0.192-0.186-0.271-0.293
			c-0.076-0.102-0.14-0.212-0.19-0.329c-0.048-0.112-0.083-0.231-0.102-0.351c-0.019-0.119-0.022-0.241-0.009-0.361
			c0.013-0.122,0.041-0.241,0.083-0.356c0.044-0.119,0.103-0.232,0.173-0.338c0.074-0.111,0.16-0.213,0.256-0.306
			c0.101-0.098,0.211-0.186,0.329-0.263c0.123-0.081,0.254-0.151,0.389-0.21c0.284-0.124,0.588-0.2,0.898-0.231
			c0.314-0.031,0.633-0.016,0.941,0.047c0.208,0.043,0.413,0.107,0.607,0.196c0.183,0.083,0.356,0.188,0.512,0.315
			c0.145,0.118,0.275,0.255,0.379,0.41c0.098,0.145,0.173,0.305,0.217,0.474c0.043,0.163,0.056,0.335,0.039,0.503
			c-0.018,0.171-0.067,0.339-0.142,0.494c-0.079,0.165-0.187,0.315-0.312,0.448c-0.135,0.143-0.292,0.266-0.459,0.368
			c-0.044,0.027-0.088,0.052-0.134,0.076c-0.041,0.022-0.083,0.043-0.126,0.062c-0.13,0.06-0.266,0.11-0.403,0.15
			C154.176,170.162,154.157,170.167,154.137,170.172z"/>
	</g>
	<g id="SPLINE_00000136394596850340750290000000117965243930414267_">
		<path class="st1" d="M148.91,171.879c0.325-0.271,0.717-0.448,0.818-0.499c0.1-0.05,0.204-0.093,0.311-0.128
			c0.372-0.115,0.761-0.182,1.152-0.201c0.392-0.019,0.787,0.01,1.171,0.089c0.37,0.076,0.731,0.197,1.068,0.369
			c0.313,0.16,0.605,0.364,0.853,0.611c0.068,0.071,0.131,0.148,0.188,0.229c0.059,0.085,0.111,0.175,0.156,0.268
			c0.018,0.038,0.031,0.079,0.036,0.121c0.006,0.043,0.005,0.088,0.001,0.131v2.112"/>
	</g>
	<path class="st1" d="M154.089,164.982c0.025-0.059,0.047-0.119,0.067-0.18c0.024-0.072,0.045-0.145,0.064-0.219
		c0.041-0.158,0.06-0.228,0.099-0.391c0,0,0.2,0.043,0.237,0.051l3.178,0.65c0.089,0.018,0.176,0.045,0.26,0.081
		c0.079,0.034,0.156,0.076,0.225,0.127c0.066,0.047,0.126,0.102,0.177,0.165c0.048,0.059,0.127,0.189,0.127,0.189l-3.35,9.075
		c-0.039,0.106-0.108,0.201-0.19,0.28c-0.048,0.046-0.1,0.086-0.155,0.122c-0.06,0.039-0.123,0.072-0.188,0.1
		c-0.14,0.06-0.291,0.097-0.444,0.112c-0.156,0.015-0.315,0.007-0.467-0.024l-0.296-0.075l-4.666-1.143l0.001,0l-0.025-0.009
		l-0.038-0.035l-0.024-0.053l-0.015-0.077l-0.005-0.069v0l0.045-1.812"/>
	<g id="LINE_00000106837602081338163520000017296948775960650124_">
		<path class="st1" d="M157.61,167.777l-0.063-1.184c0,0-0.045-0.304-0.045-0.304l0,0.001l-0.008-0.037l-0.056-0.117l-0.098-0.097
			l-0.131-0.068l-0.084-0.024c0,0-5.726-1.171-5.726-1.171c-0.028-0.006-0.056,0.01-0.065,0.036l0,0l-2.59,6.981"/>
	</g>
</g>
<g>
	<g id="SPLINE_00000084488628877599611130000000714008362729558152_">
		<path class="st1" d="M80.546,155.384c-0.232,0.062-0.473,0.097-0.714,0.104c-0.241,0.007-0.484-0.013-0.719-0.061
			c-0.294-0.06-0.582-0.165-0.841-0.318c-0.121-0.072-0.236-0.154-0.342-0.247c-0.1-0.088-0.192-0.186-0.271-0.293
			c-0.076-0.102-0.14-0.212-0.19-0.329c-0.048-0.112-0.083-0.231-0.102-0.351c-0.019-0.119-0.022-0.241-0.009-0.361
			c0.013-0.122,0.041-0.241,0.083-0.356c0.044-0.119,0.103-0.232,0.173-0.338c0.074-0.111,0.16-0.213,0.256-0.306
			c0.101-0.098,0.211-0.186,0.329-0.263c0.123-0.081,0.254-0.151,0.389-0.21c0.284-0.124,0.588-0.2,0.898-0.231
			c0.314-0.031,0.633-0.016,0.941,0.047c0.208,0.043,0.413,0.107,0.607,0.196c0.183,0.083,0.356,0.188,0.512,0.315
			c0.145,0.118,0.275,0.255,0.379,0.41c0.098,0.145,0.173,0.305,0.217,0.474c0.043,0.163,0.056,0.335,0.039,0.503
			c-0.018,0.171-0.067,0.339-0.142,0.494c-0.079,0.165-0.187,0.315-0.312,0.448c-0.135,0.143-0.292,0.266-0.459,0.368
			c-0.044,0.027-0.088,0.052-0.134,0.076c-0.041,0.022-0.083,0.043-0.126,0.062c-0.13,0.06-0.265,0.11-0.403,0.15
			C80.585,155.373,80.565,155.378,80.546,155.384z"/>
	</g>
	<g id="SPLINE_00000106836396543227072530000002127444573203988898_">
		<path class="st1" d="M75.319,157.09c0.325-0.271,0.717-0.448,0.818-0.499c0.1-0.05,0.204-0.093,0.311-0.128
			c0.372-0.115,0.761-0.182,1.152-0.201c0.392-0.019,0.787,0.01,1.171,0.089c0.37,0.076,0.731,0.197,1.068,0.369
			c0.313,0.16,0.605,0.364,0.853,0.611c0.068,0.071,0.131,0.148,0.188,0.229c0.059,0.085,0.111,0.175,0.156,0.268
			c0.018,0.038,0.031,0.079,0.036,0.121c0.006,0.043,0.005,0.088,0.001,0.131v2.112"/>
	</g>
	<path class="st1" d="M80.498,150.193c0.025-0.059,0.047-0.119,0.067-0.18c0.024-0.072,0.045-0.145,0.064-0.219
		c0.041-0.158,0.06-0.228,0.099-0.391c0,0,0.2,0.043,0.237,0.051l3.178,0.65c0.089,0.018,0.176,0.045,0.26,0.081
		c0.079,0.034,0.156,0.076,0.225,0.127c0.066,0.047,0.126,0.102,0.177,0.165c0.048,0.059,0.127,0.189,0.127,0.189l-3.35,9.075
		c-0.039,0.106-0.108,0.201-0.19,0.28c-0.048,0.046-0.1,0.087-0.155,0.122c-0.06,0.039-0.123,0.072-0.188,0.1
		c-0.14,0.06-0.291,0.097-0.444,0.112c-0.156,0.015-0.315,0.007-0.467-0.024l-0.296-0.075l-4.666-1.143l0.001,0l-0.025-0.009
		l-0.038-0.035l-0.024-0.053l-0.015-0.077l-0.005-0.069v0l0.045-1.812"/>
	<g id="LINE_00000150088402332993702460000016710744440380007815_">
		<path class="st1" d="M84.019,152.988l-0.063-1.184l-0.045-0.304l0,0.001l-0.008-0.037l-0.056-0.117l-0.098-0.097l-0.131-0.068
			l-0.084-0.024l-5.726-1.171c-0.028-0.006-0.056,0.01-0.065,0.036l0,0l-2.59,6.981l-11.228,30.386l-2.41-0.511
			c0,0-0.887-0.114-1.288,0.859"/>
	</g>
</g>
<path class="st1" d="M115.507,147.864l0.365,2.293l-0.142,0.638c0.284,1.064,1.511,0.114,1.511,0.114l-0.164-8.41l-0.806-0.169
	l-10.28,28.8c0,0-0.153,1.264-2.012,1.469c-2.072,0.228-3.402,0.818-3.402,0.818l-2.07,5.91l2.589,2.138c0,0,0.735,0.672,0.326,1.74
	c-0.425,1.113-5.051,13.487-5.051,13.487s-0.993,3.176-5.665,2.675"/>
<polygon class="st1" points="92.012,139.165 103.611,141.568 99.17,153.534 87.727,151.078 "/>
<polyline class="st1" points="156.538,150.731 152.22,162.341 152.64,164.83 "/>
<polyline class="st1" points="133.676,202.022 137.593,202.799 149.149,170.699 "/>
<path class="st1" d="M134.401,202.203l-1.219,3.454c0,0-1.164,2.108,2.065,3.016"/>
<polyline class="st1" points="168.587,215.39 99.65,201.28 52.403,191.61 "/>
<path class="st1" d="M51.886,190.398l-0.066-2.59L63.64,156.33l1.063-0.398l1.395-3.652l0.996,0.199l2.191-6.043l-1.992-0.398
	l7.882-21.727l0.698,0.161l0.204-0.487l0.958-2.286c0,0,0.886-0.994,0.929,0.951l0.089,1.399"/>
<path class="st1" d="M64.599,156.282l-2.404,6.485l-0.056,4.976l6.933,1.454l0.224-0.503c0,0,1.156-0.093,1.707-0.699l-5.406-0.858
	l0.036-1.854l4.435,0.654"/>
<line class="st1" x1="54.842" y1="186.197" x2="62.144" y2="166.16"/>
<path class="st1" d="M60.297,187.431l-6.235-1.299c0,0-0.909,1.429,0.162,1.721c1.072,0.292,4.838,1.007,4.838,1.007
	S59.94,189.314,60.297,187.431z"/>
<path class="st1" d="M52.58,190.676l-0.881,2.569l-0.073,2.569l-1.395,3.45l-0.037,4.734l-1.064,2.312l-3.707-0.734l0.697-7.193
	l2.312-4.477l1.692-3.821l7.584,1.631c0,0,0.973,0.401,1.316-0.658c0.343-1.059,1.202-3.32,1.202-3.32"/>
<polyline class="st1" points="50.443,199.146 51.75,199.457 53.517,195.702 "/>
<polyline class="st1" points="51.688,196.096 51.75,207.706 49.727,207.364 49.665,205.309 "/>
<polyline class="st1" points="51.903,207.502 53.517,203.046 53.562,191.86 "/>
<polyline class="st1" points="53.725,195.33 94.944,203.91 96.074,204.576 96.203,212.466 "/>
<path class="st1" d="M59.313,190.235c0,0-0.441,2.325,2.365,3.247"/>
<path class="st1" d="M98.572,201.061c0,0-3.081-0.998-2.163-3.445"/>
<polyline class="st1" points="108.858,162.905 109.042,165.839 114.04,153.092 114.177,151.166 115.507,147.864 114.398,147.639 "/>
<line class="st1" x1="111.476" y1="155.784" x2="111.624" y2="159.045"/>
<g id="SPLINE_00000135689268625351075460000007567284869151352231_">
	<path class="st1" d="M89.591,191.338c0.173-0.091,0.335-0.21,0.469-0.353c0.063-0.067,0.119-0.139,0.168-0.217
		c0.047-0.074,0.086-0.153,0.117-0.235l9.376-25.401c0.033-0.089,0.055-0.183,0.065-0.278c0.01-0.094,0.007-0.188-0.007-0.281
		c-0.015-0.094-0.042-0.187-0.079-0.274c-0.039-0.091-0.089-0.177-0.148-0.256c-0.062-0.084-0.134-0.16-0.212-0.229
		c-0.082-0.073-0.172-0.137-0.267-0.192c-0.202-0.119-0.427-0.201-0.656-0.248l-14.747-3.016c-0.24-0.049-0.489-0.061-0.734-0.037
		c-0.241,0.024-0.479,0.084-0.7,0.18c-0.106,0.046-0.207,0.101-0.304,0.164c-0.092,0.06-0.178,0.129-0.256,0.205
		c-0.074,0.073-0.142,0.152-0.199,0.239c-0.055,0.082-0.101,0.171-0.135,0.263l-9.376,25.401c-0.027,0.073-0.047,0.149-0.058,0.226
		c-0.011,0.076-0.015,0.153-0.011,0.229c0.005,0.077,0.017,0.153,0.038,0.227c0.021,0.076,0.049,0.149,0.085,0.219
		c0.075,0.148,0.179,0.28,0.301,0.393c0.133,0.123,0.287,0.222,0.449,0.299c0.039,0.018,0.079,0.036,0.119,0.052
		c0.123,0.049,0.252,0.087,0.382,0.114l14.747,3.016c0.267,0.055,0.544,0.064,0.816,0.027
		C89.097,191.54,89.357,191.462,89.591,191.338"/>
</g>
<g id="SPLINE_00000071529450039146648890000014729464777888435376_">
	<path class="st1" d="M163.215,206.352c0.173-0.091,0.335-0.21,0.469-0.353c0.063-0.067,0.119-0.139,0.168-0.217
		c0.047-0.074,0.086-0.153,0.117-0.235l9.376-25.401c0.033-0.089,0.055-0.183,0.065-0.278c0.01-0.094,0.007-0.188-0.007-0.281
		c-0.015-0.094-0.042-0.187-0.079-0.274c-0.039-0.091-0.089-0.177-0.148-0.256c-0.062-0.084-0.134-0.16-0.212-0.229
		c-0.082-0.073-0.172-0.137-0.267-0.192c-0.202-0.119-0.427-0.201-0.656-0.248l-14.747-3.016c-0.24-0.049-0.489-0.061-0.734-0.037
		c-0.241,0.024-0.479,0.084-0.7,0.18c-0.106,0.046-0.207,0.101-0.303,0.164c-0.092,0.06-0.178,0.129-0.256,0.205
		c-0.074,0.073-0.142,0.152-0.199,0.239c-0.055,0.082-0.101,0.171-0.135,0.263l-9.376,25.401c-0.027,0.073-0.047,0.149-0.058,0.226
		c-0.011,0.076-0.015,0.153-0.011,0.229c0.005,0.077,0.017,0.153,0.038,0.227c0.021,0.076,0.049,0.149,0.085,0.219
		c0.075,0.148,0.179,0.28,0.301,0.393c0.133,0.123,0.287,0.222,0.449,0.299c0.039,0.018,0.079,0.036,0.119,0.052
		c0.123,0.049,0.252,0.087,0.382,0.114l14.747,3.016c0.267,0.055,0.544,0.063,0.816,0.027
		C162.721,206.555,162.98,206.476,163.215,206.352"/>
</g>
<path class="st1" d="M189.979,157.844l-3.192-0.658c0,0-0.721-0.219-1.159,0.94c-0.439,1.159-1.015,2.838-1.015,2.838
	s-0.533,1.065,0.345,2.225c0,0,0.971,1.003,0.564,2.131c-0.407,1.128-0.627,1.379-0.627,1.379s-0.313,0.815,1.065,1.128
	l-6.611,18.236c0,0-0.282,0.846-1.943,1.097c-1.661,0.251-2.413,0.501-2.413,0.501s-0.595,0-1.159,1.253
	c-0.564,1.253-1.598,4.167-1.598,4.167s-0.564,0.94,0.313,1.661s2.099,1.535,2.099,1.535s0.815,0.533,0.219,1.849
	c-0.595,1.316-1.911,4.857-1.911,4.857s-1.039-0.279-1.48,0.294s-0.617,1.763-0.617,1.763s-0.265,0.838,0.97,1.234l-2.601,6.304
	c0,0-1.328,2.682-4.414,2.021"/>
<line class="st1" x1="166.158" y1="214.92" x2="166.375" y2="219.811"/>
<path class="st1" d="M137.33,209.033l0.087,3.852c0,0,0.173,1.299,1.515,1.688"/>
<path class="st1" d="M137.926,209.089l0.143,3.848c0,0,1.14,0.057,0.998,0.57s-0.314,0.998-0.314,0.998l-0.029,1.226l25.884,5.302
	l0.2-1.34c0,0,0.029-1.34,1.397-1.112"/>
<path class="st1" d="M101.215,201.713l0.103,3.776c0,0,1.098,0.069,0.995,0.652c-0.103,0.584-0.309,0.892-0.309,0.892l0.034,1.167
	l25.847,5.286l0.103-1.304c0,0,0-1.407,1.545-1.064"/>
<path class="st1" d="M100.46,201.61v3.741c0,0-0.24,1.064,1.545,1.682l25.984,5.149c2.094,0.755,1.476-1.854,1.476-1.854
	l-0.103-2.918"/>
<path class="st1" d="M53.325,203.626c0,0-0.58,1.625,1.48,2.031s8.53,1.712,8.53,1.712s0.928,0.609,1.596-1.625l-0.087-8.036"/>
<polyline class="st1" points="64.795,198.52 71.661,199.947 71.717,205.6 "/>
<line class="st1" x1="65.104" y1="205.76" x2="70.012" y2="206.773"/>
<line class="st1" x1="65.052" y1="204.935" x2="70.36" y2="206.018"/>
<polyline class="st1" points="71.708,205.58 72.865,205.825 73.091,203.57 73.297,202.771 73.658,202.848 73.735,205.683 
	73.423,206.3 73.475,207.486 73.136,208.451 71.832,208.164 "/>
<path class="st1" d="M71.768,208.685l-0.08-3.126l-1.03-0.207l-1.598,4.09l0.139,2.967c0,0,0.697,0.657,1.055,0.1L71.768,208.685z"
	/>
<path class="st1" d="M70.659,205.352l-0.137-3.854c0,0-0.068-0.707-0.775-0.798c-0.707-0.091-2.304-0.479-2.304-0.479l-1.551,0.798
	l0.068,2.668l1.414,1.574"/>
<polyline class="st1" points="85.294,208.675 84.712,209.479 84.629,210.809 75.707,208.952 75.735,207.428 76.095,206.68 "/>
<path class="st1" d="M75.014,199.891l0.194,6.65l-0.471,0.72l-0.055,1.635c0,0,0.194,0.942,1.136,1.108
	c0.942,0.166,8.978,1.773,8.978,1.773s1.053,0.111,1.469-1.635l-0.083-6.484l1.053-1.385"/>
<line class="st1" x1="75.873" y1="207.983" x2="84.602" y2="209.701"/>
<line class="st1" x1="73.475" y1="207.486" x2="74.607" y2="207.708"/>
<polyline class="st1" points="86.614,203.031 92.974,204.29 93.014,209.65 94.234,209.818 94.492,207.534 94.929,207.057 
	94.969,209.996 94.751,210.711 94.76,212.12 164.596,226.607 "/>
<line class="st1" x1="86.259" y1="209.262" x2="91.661" y2="210.345"/>
<line class="st1" x1="86.269" y1="210.118" x2="91.36" y2="211.136"/>
<path class="st1" d="M89.135,209.666l-1.885-1.621l-0.057-2.677l1.508-0.792c0,0,1.49,0.377,2.244,0.434s0.886,0.716,0.886,0.716
	l0.113,3.978l-1.602,4.106l0.139,3.058c0.894,0.516,1.112,0,1.112,0l1.509-3.912l-0.118-3.276c0,0-0.22-0.02-0.895-0.1"/>
<polyline class="st1" points="93.063,212.538 94.353,212.796 94.711,211.883 "/>
<g>
	<polygon class="st1" points="98.011,209.757 110.209,212.263 110.301,214.403 98.103,211.896 	"/>
	<line class="st1" x1="101.038" y1="210.582" x2="101.099" y2="212.386"/>
	<line class="st1" x1="104.064" y1="211.285" x2="104.125" y2="213.089"/>
	<line class="st1" x1="107.091" y1="211.988" x2="107.152" y2="213.528"/>
</g>
<g>
	<polygon class="st1" points="111.586,212.572 119.478,214.268 119.57,216.408 111.678,214.712 	"/>
	<line class="st1" x1="115.518" y1="213.616" x2="115.579" y2="215.42"/>
</g>
<g>
	<polygon class="st1" points="120.873,214.56 131.341,216.763 131.433,218.842 120.964,216.639 	"/>
	<line class="st1" x1="126.203" y1="215.789" x2="126.264" y2="217.541"/>
</g>
<polygon class="st1" points="133.112,214.147 136.608,214.846 136.704,216.848 133.112,216.149 "/>
<polygon class="st1" points="133.112,216.953 136.608,217.652 136.704,219.654 133.112,218.955 "/>
<line class="st1" x1="187.392" y1="160.36" x2="189.146" y2="160.729"/>
<g id="SPLINE_00000039856657052725330450000012417618900523967394_">
	<path class="st1" d="M185.63,163.017l-0.404-0.946c-0.013-0.03-0.02-0.063-0.021-0.096c-0.001-0.033,0.005-0.066,0.016-0.097
		l0.794-2.152c0.016-0.044,0.044-0.083,0.077-0.116c0.037-0.037,0.082-0.065,0.129-0.085c0.051-0.022,0.106-0.036,0.162-0.042
		c0.057-0.006,0.114-0.003,0.17,0.008l0.553,0.113c0.041,0.008,0.081,0.022,0.119,0.04c0.035,0.017,0.069,0.039,0.098,0.065
		c0.027,0.024,0.05,0.053,0.068,0.085c0.016,0.03,0.027,0.063,0.031,0.096c0.004,0.03,0.002,0.061-0.005,0.091
		c-0.002,0.01-0.005,0.02-0.009,0.03l-0.292,0.791c-0.002,0.006-0.003,0.013-0.002,0.02c0.001,0.007,0.004,0.013,0.008,0.019
		c0.009,0.013,0.025,0.02,0.04,0.023l0.055,0.011c0.044,0.009,0.088,0.025,0.127,0.048c0.036,0.021,0.068,0.048,0.092,0.081
		c0.022,0.03,0.038,0.065,0.044,0.103c0.006,0.036,0.001,0.074-0.011,0.108l-0.682,1.847c-0.016,0.044-0.044,0.083-0.077,0.116
		c-0.037,0.037-0.082,0.065-0.129,0.085c-0.051,0.022-0.106,0.036-0.162,0.042c-0.057,0.006-0.114,0.003-0.17-0.008l-0.322-0.066
		c-0.065-0.013-0.129-0.039-0.184-0.078C185.694,163.117,185.653,163.071,185.63,163.017"/>
</g>
<ellipse class="st1" cx="187.322" cy="158.492" rx="0.84" ry="0.504"/>
<path class="st1" d="M62.276,162.606l3.01,0.719l3.545,0.498l0.002,0.93c0.477,0.079,1.51,1.152,1.51,1.152l0.926-2.222"/>
<path class="st1" d="M69.031,163.481l4.212-10.531c0,0-0.556-2.623,1.868-4.53l-0.079-0.795l2.861-7.272l-5.444-1.152l1.391-3.537
	l1.113,0.199l0.358-0.119l3.656,0.755l-1.351,3.576"/>
<polyline class="st1" points="69.778,139.198 70.687,139.38 71.16,138.653 73.123,133.454 79.521,134.454 80.975,134.926 
	81.084,136.199 80.575,135.981 78.966,136.498 "/>
<path class="st1" d="M77.703,140.598c0,0,2.29,0.727,2.218,3.272"/>
<path class="st1" d="M78.83,136.817c0,0,2.363,1.091,2.545,3.345"/>
<polyline class="st1" points="79.521,142.343 76.976,149.541 76.504,149.395 73.741,157.139 73.777,158.157 71.45,164.082 "/>
<path class="st1" d="M69.415,162.265c0,0,2.363,0.909,2.363,3.381"/>
<polyline class="st1" points="67.292,146.037 67.392,147.632 65.854,151.851 66.097,152.279 "/>
<polyline class="st1" points="63.64,156.33 65.071,152.725 65.824,152.786 "/>
<polyline class="st1" points="76.12,132.143 73.96,131.768 73.996,130.618 74.675,128.582 76.871,128.961 "/>
<path class="st1" d="M82.047,133.412l-0.001,0.145l0.192,1.655c0,0-0.114,0.739-1.108,0.71l0.057-0.426l0.811-1.962"/>
<polyline class="st1" points="79.788,136.316 80.36,136.951 81.366,137.202 81.375,137.849 81.005,138.689 "/>
<line class="st1" x1="46.725" y1="200.233" x2="48.712" y2="200.64"/>
<line class="st1" x1="46.725" y1="201.033" x2="48.712" y2="201.44"/>
<line class="st1" x1="46.666" y1="201.775" x2="48.653" y2="202.181"/>
<line class="st1" x1="46.608" y1="202.517" x2="48.595" y2="202.923"/>
<line class="st1" x1="46.529" y1="203.278" x2="48.517" y2="203.684"/>
<line class="st1" x1="46.451" y1="204" x2="48.439" y2="204.406"/>
<line class="st1" x1="46.393" y1="204.722" x2="48.38" y2="205.128"/>
<path class="st1" d="M61.947,198.246c-3.205-2.08-5.851-0.754-5.851-0.754l1.88,1.159c0,0,2.402-0.448,3.377,1.414l0.834-1.132
	L61.947,198.246z"/>
<path class="st1" d="M55.506,201.637l-0.661-0.504c-0.464-2.46,0.856-3.051,0.856-3.051l1.501,0.898c0,0-1.455,0.276-1.137,1.631
	C56.064,200.61,55.486,201.061,55.506,201.637z"/>
<polyline class="st1" points="54.532,201.972 54.456,203.249 54.398,204.67 63.363,206.527 63.392,203.936 64.023,203.13 "/>
<path class="st1" d="M61.896,203.601c0,0-2.459,0.952-5.662-1.06c0,0-0.3-0.486,0.343-1.341c0,0,1.2,1.347,3.129,1.371
	C59.705,202.571,60.212,203.275,61.896,203.601z"/>
<line class="st1" x1="54.458" y1="203.472" x2="63.177" y2="205.325"/>
<path class="st1" d="M60.719,202.347c0,0,1.14-0.136,1.08-1.596l0.658-0.764l0.338-0.533c0,0,0.871,1.91-0.232,3.504
	C62.563,202.959,61.146,202.822,60.719,202.347z"/>
<g>
	<path class="st1" d="M83.504,202.895c-3.072-1.994-5.608-0.722-5.608-0.722l1.802,1.111c0,0,2.303-0.429,3.237,1.356l0.8-1.086
		L83.504,202.895z"/>
	<path class="st1" d="M77.33,206.145l-0.633-0.483c-0.445-2.358,0.82-2.925,0.82-2.925l1.439,0.861c0,0-1.395,0.265-1.09,1.563
		C77.865,205.161,77.311,205.593,77.33,206.145z"/>
	<path class="st1" d="M83.455,208.028c0,0-2.357,0.912-5.428-1.016c0,0-0.288-0.466,0.329-1.286c0,0,1.15,1.291,3,1.314
		C81.355,207.04,81.841,207.715,83.455,208.028z"/>
	<path class="st1" d="M82.326,206.826c0,0,1.092-0.13,1.035-1.53l0.631-0.732l0.324-0.511c0,0,0.835,1.831-0.222,3.359
		C84.094,207.412,82.736,207.282,82.326,206.826z"/>
</g>
<path class="st1" d="M63.767,193.954c0,0-0.274,1.503,1.248,1.741"/>
<path class="st1" d="M92.609,199.854c0,0,0.402,1.566-1.365,1.265"/>
<polyline class="st1" points="91.585,199.573 91.083,200.938 91.063,202.284 64.981,196.882 65.021,195.718 65.62,194.348 "/>
<polygon class="st1" points="141.581,217.746 143.197,218.092 143.266,220.561 141.62,220.206 "/>
<g>
	<polygon class="st1" points="147.322,220.342 151.221,221.145 155.163,221.957 155.163,223.728 147.322,222.113 	"/>
	<line class="st1" x1="151.256" y1="222.869" x2="151.221" y2="221.145"/>
</g>
<g>
	<polygon class="st1" points="156.241,222.159 160.14,222.962 164.082,223.775 164.082,225.546 156.241,223.931 	"/>
	<line class="st1" x1="160.175" y1="224.686" x2="160.14" y2="222.962"/>
</g>
<g id="SPLINE_00000162328647985575507090000018112420147184351896_">
	<path class="st1" d="M138.203,219.26c0.001-0.01,0.003-0.021,0.007-0.031c0.003-0.008,0.007-0.017,0.012-0.024
		c0.011-0.016,0.025-0.029,0.041-0.039c0.044-0.027,0.099-0.035,0.151-0.032c0.02,0.001,0.04,0.004,0.06,0.008l1.802,0.369
		c0.054,0.011,0.107,0.032,0.154,0.063c0.042,0.027,0.08,0.061,0.104,0.104c0.013,0.023,0.022,0.049,0.023,0.076l0.004,0.168
		l-0.006,0.034c-0.007,0.018-0.02,0.034-0.036,0.046c-0.006,0.004-0.012,0.008-0.019,0.011l-0.207,0.102
		c-0.027,0.013-0.057,0.019-0.087,0.019c-0.011,0-0.022,0-0.034-0.001c-0.012-0.001-0.025-0.003-0.037-0.005l-1.492-0.305
		c-0.012-0.003-0.025-0.006-0.037-0.01c-0.03-0.01-0.06-0.023-0.086-0.041c-0.013-0.008-0.025-0.017-0.036-0.027l-0.213-0.188
		c-0.013-0.011-0.025-0.024-0.035-0.038c-0.009-0.012-0.017-0.026-0.022-0.04c-0.005-0.013-0.008-0.026-0.008-0.039l-0.004-0.168
		L138.203,219.26z"/>
</g>
<polyline class="st1" points="207.222,104.244 206.109,104.629 99.526,82.909 "/>
<polyline class="st1" points="116.014,78.769 113.149,79.457 113.149,80.259 110.055,83.238 110.227,80.316 113.379,76.248 
	116.358,75.332 "/>
<path class="st1" d="M140.826,73.633l-1.549,11.791l-3.25,4.081c0,0-0.794,0.529-0.68-0.68c0.113-1.209,0.491-3.779,0.491-3.779
	l4.497-11.413H140.826z"/>
<path class="st1" d="M119.495,66.519l-0.815,1.086l-2.127,6.924l-0.679,5.249c0,0,0.226,0.679,0.86-0.045
	c0.634-0.724,4.525-5.657,4.525-5.657l8.221-64.189L128.948,9l-2.041,2.751l-0.266,3.372l-3.017,4.792l-1.154,10.916l1.952-2.13
	l-2.683,20.533h0.74l-0.543,4.439l-0.888,0.444L119.495,66.519z"/>
<polygon class="st1" points="143.176,84.634 146.176,81.193 146.529,77.751 145.735,76.339 143.617,73.692 143.264,71.485 
	144.323,63.896 144.676,55.248 141.499,75.898 143.087,81.193 "/>
<polygon class="st1" points="169.246,84.866 168.612,91.449 173.767,85.421 182.095,21.735 179.001,31.57 178.208,38.787 
	177.653,39.659 176.86,45.449 176.332,46.227 174.322,64.246 173.688,64.959 172.101,77.57 171.546,78.363 "/>
<polyline class="st1" points="168.422,90.627 167.491,92.092 167.313,95.109 170.508,91.87 170.698,89.309 "/>
<polyline class="st1" points="196.501,79.295 195.971,82.675 196.435,84.729 197.959,86.385 "/>
<polyline class="st1" points="198.887,79.759 197.495,91.819 198.717,90.346 200.079,88.704 200.212,87.313 199.682,85.855 
	200.013,85.193 199.294,82.798 199.626,79.882 "/>
<polyline class="st1" points="198.701,91.797 195.532,95.476 195.686,92.103 194.051,86.687 194.817,82.395 195.124,81.679 
	200.029,44.326 198.087,46.472 198.752,39.983 200.131,38.092 201.255,28.844 204.066,25.164 129.481,9.887 "/>
<path class="st1" d="M221.342,28.681l-16.235-3.338l-0.051,0.961l-3.035,9.458l-0.708,7.182l-0.556,2.175l12.846,2.681
	c0,0,2.377-1.315,0-4.248l-9.963-2.023l0.506-0.759l1.72-12.644l1.696-2.136"/>
<line class="st1" x1="219.615" y1="50.59" x2="213.978" y2="94.872"/>
<path class="st1" d="M213.978,94.872"/>
<polyline class="st1" points="210.967,103.358 208.907,96.174 211.635,73.878 212.234,73.079 213.965,60.501 213.499,60.168 
	216.404,38.479 216.923,38.507 219.05,32.315 222.542,27.595 221.175,38.329 218.745,41.425 217.236,53.107 220.176,49.007 
	221.337,38.678 "/>
<polyline class="st1" points="215.869,27.714 214.084,30.027 212.564,43.047 "/>
<polyline class="st1" points="216.627,27.96 216.534,28.991 213.909,37.943 214.753,38.075 214.143,40.052 213.604,43.551 "/>
<line class="st1" x1="199.457" y1="50.493" x2="214.303" y2="53.703"/>
<line class="st1" x1="198.173" y1="61.166" x2="213.26" y2="64.215"/>
<polyline class="st1" points="210.49,82.043 207.367,81.399 195.563,78.966 "/>
<polyline class="st1" points="207.367,81.399 205.916,93.393 208.452,90.857 208.619,89.402 207.579,85.119 207.954,81.585 "/>
<polyline class="st1" points="200.386,87.78 206.249,89.028 202.798,99.88 202.507,103.289 206.415,98.798 207.33,92.021 "/>
<line class="st1" x1="173.877" y1="84.964" x2="194.701" y2="89.187"/>
<line class="st1" x1="174.879" y1="77.594" x2="195.124" y2="81.679"/>
<line class="st1" x1="175.738" y1="70.08" x2="195.846" y2="74.373"/>
<line class="st1" x1="176.954" y1="61.779" x2="197.134" y2="66.072"/>
<line class="st1" x1="178.028" y1="53.478" x2="198.208" y2="57.771"/>
<line class="st1" x1="179.029" y1="44.819" x2="199.424" y2="49.256"/>
<line class="st1" x1="180.246" y1="36.16" x2="198.752" y2="39.983"/>
<polyline class="st1" points="161.497,16.507 159.674,18.938 158.052,32.381 173.995,35.827 175.211,35.084 175.886,29.95 
	178.656,21.033 178.723,20.087 "/>
<line class="st1" x1="182.095" y1="21.735" x2="178.656" y2="21.033"/>
<polyline class="st1" points="160.484,17.452 151.77,15.628 148.933,25.153 147.945,33.052 144.812,58.119 "/>
<line class="st1" x1="177.643" y1="39.069" x2="147.945" y2="33.052"/>
<line class="st1" x1="147.109" y1="39.745" x2="176.292" y2="45.757"/>
<line class="st1" x1="175.143" y1="56.43" x2="145.69" y2="50.351"/>
<line class="st1" x1="144.323" y1="63.896" x2="172.688" y2="69.97"/>
<line class="st1" x1="127.606" y1="25.69" x2="148.043" y2="29.897"/>
<line class="st1" x1="126.605" y1="34.205" x2="146.941" y2="38.513"/>
<line class="st1" x1="125.402" y1="42.621" x2="146.04" y2="47.029"/>
<line class="st1" x1="123.9" y1="51.036" x2="144.676" y2="55.248"/>
<line class="st1" x1="123.291" y1="59.493" x2="143.261" y2="63.629"/>
<line class="st1" x1="122.312" y1="66.567" x2="142.227" y2="70.866"/>
<line class="st1" x1="140.26" y1="78.411" x2="142.01" y2="78.81"/>
<line class="st1" x1="121.26" y1="74.076" x2="138.447" y2="77.997"/>
<line class="st1" x1="143.642" y1="72.063" x2="152.403" y2="73.859"/>
<line class="st1" x1="154.087" y1="78.224" x2="168.4" y2="81.15"/>
<line class="st1" x1="146.308" y1="76.634" x2="151.86" y2="77.769"/>
<polyline class="st1" points="170.331,80.892 169.672,77.431 170.112,72.488 169.343,73.312 167.915,85.616 169.178,84.407 "/>
<polyline class="st1" points="152.809,70.345 151.381,82.045 153.963,79.409 153.578,76.717 154.018,76.168 153.084,73.037 
	153.413,70.181 152.48,69.851 153.139,69.082 156.27,69.741 156.709,69.192 158.906,69.686 158.906,70.291 164.399,71.389 
	164.729,70.895 166.926,71.334 166.816,71.993 169.617,72.598 "/>
<line class="st1" x1="119.435" y1="63.477" x2="106.063" y2="60.598"/>
<line class="st1" x1="121.757" y1="45.74" x2="98.541" y2="41.004"/>
<line class="st1" x1="123.336" y1="35.061" x2="100.027" y2="30.325"/>
<line class="st1" x1="122.964" y1="25.31" x2="100.956" y2="21.039"/>
<polyline class="st1" points="102.349,14.445 101.513,17.324 96.87,54.748 "/>
<path class="st1" d="M105.837,63.278l0.942-5.654c0,0,1.068-0.942-1.194-1.382c-2.262-0.44-8.105-1.508-8.105-1.508
	s-1.445-0.126-1.571,1.257c-0.126,1.382-0.434,3.773-0.434,3.773l0.129,0.027l9.715,2.016l0.65,1.95l13.525,2.763"/>
<polyline class="st1" points="95.605,59.789 97.355,66.796 96.413,72.513 95.094,75.466 94.402,80.115 93.649,80.052 "/>
<path class="st1" d="M78.46,134.303l13.2-36.122l1.061,0.088l3.803-10.436l-0.973-0.442l0.884-2.476l2.476,0.442
	c0,0,0.177-2.034,0.884-2.83l-1.519-0.344l-1.299,1.263l-3.141-0.565l-0.503-0.754l0.377-3.016l-1.948-7.288l7.162-53.528
	l4.021-5.529l2.262,0.377l1.131-1.319l5.026,1.068"/>
<path class="st1" d="M115.154,5.498l0.085,2.394l-2.735,9.061l-0.94,1.111c0,0-0.769-0.085-0.513-1.881
	c0.256-1.795,0.855-6.497,0.855-6.497L115.154,5.498z"/>
<line class="st1" x1="220.662" y1="27.266" x2="222.069" y2="27.561"/>
<line class="st1" x1="194.965" y1="21.967" x2="217.813" y2="26.683"/>
<line class="st1" x1="183.946" y1="19.706" x2="190.628" y2="21.072"/>
<line class="st1" x1="158.211" y1="14.381" x2="180.829" y2="19.05"/>
<line class="st1" x1="115.162" y1="5.497" x2="153.816" y2="13.474"/>
<polyline class="st1" points="102.947,12.766 103.172,10.571 103.945,10.21 104.306,7.838 104.925,7.529 106.214,7.735 
	106.523,10.055 106.339,11.823 "/>
<polygon class="st1" points="143.279,11.035 144.361,10.21 145.805,10.519 146.629,11.602 146.423,12.581 143.176,11.859 "/>
<polygon class="st1" points="154.775,12.375 157.816,13.045 158.177,14.231 157.713,14.901 153.95,14.128 153.95,13.561 "/>
<polygon class="st1" points="181.084,18.839 182.184,18.06 183.192,18.198 183.88,19.114 183.725,20.125 181.015,19.572 "/>
<polygon class="st1" points="190.767,21.084 191.669,19.966 194.516,20.579 194.913,21.625 194.588,22.562 190.876,21.805 "/>
<polygon class="st1" points="217.851,27.159 218.006,26.284 219.036,25.563 220.066,25.743 220.71,26.696 220.504,27.726 "/>
<line class="st1" x1="97.355" y1="66.796" x2="117.572" y2="70.813"/>
<path class="st1" d="M96.889,70.914l2.129,0.406c0,0,0.912,0,0.71,1.115c-0.203,1.115-1.45,9.747-1.45,9.747"/>
<polyline class="st1" points="87.178,119.471 85.651,119.209 79.965,134.615 "/>
<polyline class="st1" points="86.026,135.993 91.884,120.276 89.634,119.891 "/>
<path class="st1" d="M87.392,117.357"/>
<polyline class="st1" points="100.924,83.468 99.904,86.373 99.917,89.599 108.983,91.377 110.355,87.18 110.603,85.201 "/>
<polyline class="st1" points="100.227,86.373 108.781,88.189 109.952,85.122 "/>
<line class="st1" x1="108.983" y1="91.377" x2="108.781" y2="88.189"/>
<line class="st1" x1="189.973" y1="102.635" x2="209.665" y2="106.711"/>
<line class="st1" x1="132.096" y1="90.87" x2="156.117" y2="95.745"/>
<path class="st1" d="M110.517,87.463c0,0,0.847,0.565,1.009-0.767l10.876,2.207"/>
<polyline class="st1" points="180.732,99.488 180.006,101.062 179.965,103.981 188.48,105.783 "/>
<polyline class="st1" points="189.085,101.102 188.318,102.837 188.48,105.783 190.296,101.385 "/>
<line class="st1" x1="180.006" y1="101.062" x2="188.318" y2="102.837"/>
<polyline class="st1" points="156.631,94.572 155.49,97.774 158.324,98.326 159.538,95.198 "/>
<polyline class="st1" points="155.495,97.803 155.49,100.751 158.324,101.303 158.326,98.323 "/>
<line class="st1" x1="160.296" y1="96.593" x2="180.127" y2="100.618"/>
<line class="st1" x1="158.354" y1="101.284" x2="160.521" y2="95.536"/>
<polyline class="st1" points="122.837,87.671 122.303,89.138 122.164,89.522 122.096,93.19 130.475,94.872 132.561,89.623 "/>
<polyline class="st1" points="131.182,89.354 130.509,90.969 122.433,89.287 "/>
<line class="st1" x1="130.61" y1="94.401" x2="130.509" y2="90.969"/>
<polyline class="st1" points="185.208,150.168 184.505,151.625 184.455,152.479 183.952,154.087 184.857,154.288 184.723,154.913 
	"/>
<polyline class="st1" points="187.53,155.526 187.373,154.79 186.638,154.58 187.163,153.058 187.11,152.112 187.845,151.01 
	187.692,147.578 197.89,121.012 198.273,120.873 198.687,120.514 200.766,120.941 200.823,122.074 "/>
<polyline class="st1" points="204.102,121.627 201.837,121.161 201.131,121.814 200.185,122.549 200.08,123.546 200.185,126.592 
	191.206,151.482 190.418,151.22 189.683,152.637 189.736,153.478 189.158,155.105 190.051,155.315 190.208,156.103 "/>
<polyline class="st1" points="184.723,154.913 186.729,155.345 186.956,154.795 "/>
<polyline class="st1" points="187.634,155.557 189.464,155.939 189.637,155.296 "/>
<line class="st1" x1="190.943" y1="156.261" x2="190.286" y2="156.118"/>
<polyline class="st1" points="193.572,119.528 193.322,119.837 192.566,120.244 182.624,147.404 182.616,149.963 181.92,151.145 
	181.967,152.026 181.411,153.602 182.245,153.833 182.244,154.439 184.041,154.8 184.284,154.179 "/>
<polyline class="st1" points="192.649,119.273 191.244,118.984 190.585,119.617 189.932,122.079 190.183,124.742 180.887,149.464 
	180.033,149.213 179.329,150.62 179.38,151.374 178.827,153.082 179.731,153.283 179.731,153.836 181.434,154.251 181.718,153.692 
	"/>
<polyline class="st1" points="195.711,121.344 195.559,119.871 193.442,119.436 "/>
<polyline class="st1" points="101.695,100.578 166.63,113.925 166.563,115.211 165.799,115.419 165.73,116.391 165.938,118.682 "/>
<polyline class="st1" points="198.24,120.368 196.563,120.044 196.266,120.585 195.887,120.963 195.238,122.884 195.048,125.265 
	185.525,149.965 "/>
<path class="st1" d="M194.742,148.542l0.91-2.329c0,0,0.645-1.176,0.835,0.228c0.19,1.404,0.228,2.58,0.228,2.58"/>
<line class="st1" x1="196.513" y1="146.965" x2="198.621" y2="141.628"/>
<polygon class="st1" points="163.386,118.211 167.29,119.039 168.473,115.904 181.902,118.684 180.837,121.76 184.682,122.589 
	182.257,129.392 178.353,128.445 177.229,131.521 181.192,132.35 178.708,139.093 174.626,138.206 173.443,141.46 160.073,138.679 
	161.256,135.544 157.174,134.775 159.896,127.972 163.682,128.741 164.806,125.724 160.783,124.896 "/>
<line class="st1" x1="181.902" y1="118.684" x2="182.045" y2="121.945"/>
<line class="st1" x1="184.682" y1="122.589" x2="184.961" y2="132.498"/>
<polyline class="st1" points="182.257,129.392 182.531,138.608 181.42,138.399 "/>
<line class="st1" x1="181.192" y1="132.35" x2="181.42" y2="141.801"/>
<polyline class="st1" points="174.626,138.206 175.033,147.772 178.921,148.536 178.708,139.093 "/>
<polyline class="st1" points="173.443,141.46 173.783,150.896 175.033,147.772 "/>
<polyline class="st1" points="160.073,138.679 160.315,148.188 156.288,147.286 157.468,144.092 157.174,134.775 "/>
<line class="st1" x1="160.199" y1="144.653" x2="157.468" y2="144.092"/>
<polyline class="st1" points="173.783,150.896 177.736,151.642 178.921,148.536 "/>
<polyline class="st1" points="184.967,129.13 185.743,129.285 186.001,130.164 177.828,152.668 156.327,148.192 156.288,147.286 "/>
<line class="st1" x1="200.185" y1="126.592" x2="202.216" y2="126.961"/>
<polyline class="st1" points="128.806,143.591 127.112,143.223 126.965,142.486 126.117,142.302 126.78,140.644 126.707,139.76 
	127.407,138.398 128.291,138.582 137.609,113.426 137.535,111.032 138.198,109.006 138.861,108.307 "/>
<polyline class="st1" points="133.884,144.606 132.189,144.238 132.042,143.501 131.195,143.317 131.858,141.66 131.784,140.776 
	132.484,139.413 133.368,139.597 142.686,114.442 142.613,112.048 143.276,110.022 143.938,109.322 "/>
<polyline class="st1" points="139.27,145.63 137.575,145.262 137.428,144.525 136.581,144.341 137.244,142.684 137.17,141.8 
	137.87,140.437 138.754,140.621 147.676,115.465 147.602,113.071 148.265,111.046 148.928,110.346 "/>
<polyline class="st1" points="136.614,145.211 134.92,144.843 134.773,144.107 133.926,143.922 134.485,142.473 134.4,141.455 
	135.121,140.437 135.29,137.138 145.387,109.605 "/>
<polyline class="st1" points="141.831,146.19 140.137,145.821 139.989,145.085 139.142,144.9 139.701,143.452 139.616,142.433 
	140.338,141.415 140.506,138.117 150.527,110.717 "/>
<polyline class="st1" points="144.486,146.739 142.792,146.37 142.645,145.634 141.798,145.45 142.461,143.792 142.387,142.908 
	143.087,141.546 143.971,141.73 152.892,116.574 152.819,114.18 153.482,112.154 154.145,111.454 "/>
<polyline class="st1" points="147.048,147.298 145.353,146.93 145.206,146.193 144.359,146.009 144.918,144.56 144.833,143.542 
	145.554,142.524 145.723,139.225 155.82,111.692 "/>
<polyline class="st1" points="149.507,147.912 147.813,147.544 147.666,146.808 146.819,146.623 147.482,144.966 147.408,144.082 
	148.108,142.719 148.992,142.903 157.913,117.748 157.84,115.354 158.503,113.328 159.166,112.628 "/>
<polyline class="st1" points="157.027,136.065 154.208,144.012 153.324,143.828 152.625,145.191 152.698,146.075 152.035,147.732 
	152.882,147.916 153.03,148.653 154.724,149.021 157.405,142.083 "/>
<line class="st1" x1="161.012" y1="124.829" x2="159.708" y2="128.504"/>
<polyline class="st1" points="164.382,113.737 163.719,114.436 163.056,116.462 163.13,118.856 "/>
<polyline class="st1" points="152.069,148.472 150.375,148.104 150.227,147.367 149.38,147.183 149.939,145.734 149.854,144.716 
	150.575,143.698 150.744,140.399 160.841,112.866 "/>
<polyline class="st1" points="140.32,108.792 130.118,136.747 129.948,139.282 129.322,140.534 129.359,141.344 128.732,142.817 
	129.58,143.002 129.727,143.738 131.421,144.107 "/>
<polyline class="st1" points="91.832,136.068 90.138,135.699 89.99,134.963 89.143,134.778 89.806,133.121 89.732,132.237 
	90.432,130.874 91.316,131.058 100.634,105.903 100.561,103.509 101.224,101.483 101.887,100.783 "/>
<polyline class="st1" points="103.345,101.268 93.143,129.223 92.974,131.758 92.347,133.011 92.384,133.821 91.758,135.294 
	92.605,135.478 92.753,136.215 94.447,136.583 "/>
<polyline class="st1" points="96.98,137.269 95.286,136.9 95.138,136.164 94.291,135.98 94.954,134.322 94.881,133.438 
	95.58,132.076 96.464,132.26 105.783,107.104 105.709,104.71 106.372,102.684 107.035,101.984 "/>
<polyline class="st1" points="111.679,102.856 111.016,103.556 110.353,105.581 110.537,107.542 101.52,133.191 100.756,132.947 
	100.056,134.31 100.13,135.194 99.467,136.851 100.314,137.035 100.461,137.772 102.155,138.14 104.814,131.072 "/>
<polyline class="st1" points="114.301,103.154 113.638,103.854 112.975,105.879 113.1,107.959 "/>
<polyline class="st1" points="108.494,102.47 98.291,130.424 98.122,132.96 97.496,134.212 97.532,135.022 96.906,136.495 
	97.753,136.679 97.901,137.416 99.595,137.784 "/>
<polyline class="st1" points="110.537,107.542 114.47,108.317 115.781,105.099 129.19,107.959 128.177,111.058 132.051,111.892 
	129.727,118.627 125.615,117.733 124.602,120.653 128.416,121.547 126.091,128.401 121.979,127.507 120.847,130.546 
	107.378,127.805 108.57,124.825 104.875,124.05 104.935,133.287 103.624,136.565 103.624,137.459 125.078,141.81 133.362,119.163 
	132.826,118.388 "/>
<polyline class="st1" points="107.259,117.316 110.894,118.031 112.086,114.932 108.391,114.157 108.63,117.256 "/>
<line class="st1" x1="129.19" y1="107.959" x2="129.488" y2="111.356"/>
<line class="st1" x1="132.051" y1="111.892" x2="132.409" y2="121.547"/>
<polyline class="st1" points="129.727,118.627 129.965,128.103 128.916,127.892 "/>
<line class="st1" x1="128.416" y1="121.547" x2="128.773" y2="131.5"/>
<line class="st1" x1="126.091" y1="128.401" x2="126.33" y2="138.174"/>
<polyline class="st1" points="122.099,127.566 122.456,136.923 121.205,140.141 120.847,130.546 "/>
<line class="st1" x1="122.456" y1="136.923" x2="126.33" y2="137.757"/>
<line class="st1" x1="121.205" y1="140.141" x2="125.366" y2="141.037"/>
<polyline class="st1" points="103.624,136.565 107.653,137.315 107.378,127.805 "/>
<line class="st1" x1="104.896" y1="133.352" x2="107.55" y2="133.904"/>
<path class="st1" d="M87.724,117.397c0,0,0.358-1.134,1.617-0.995c0,0,1.202,0.166,0.947,1.507l-0.42,1.259
	c0,0-0.343,1.394-1.637,1.042c0,0-1.067-0.017-0.974-1.182L87.724,117.397z"/>
<path class="st1" d="M84.896,121.159l0.059-2.274c0,0-0.095-0.634,0.761-0.507c0.856,0.127,1.574,0.27,1.574,0.27"/>
<path class="st1" d="M90.141,119.189l1.845,0.293c0,0,0.539-0.015,0.539,0.568c0,0.583-0.045,2.679-0.045,2.679l-1.28-0.256"/>
<polyline class="st1" points="90.379,117.909 90.849,117.973 90.815,119.189 "/>
<line class="st1" x1="88.177" y1="118.255" x2="89.414" y2="118.494"/>
<line class="st1" x1="88.351" y1="117.604" x2="89.587" y2="117.843"/>
<ellipse transform="matrix(0.1987 -0.9801 0.9801 0.1987 -66.4381 179.9521)" class="st1" cx="76.826" cy="130.604" rx="1.756" ry="0.597"/>
<circle class="st1" cx="198.266" cy="97.851" r="0.889"/>
<circle class="st1" cx="166.754" cy="91.562" r="0.889"/>
<path class="st1" d="M135.687,86.098c-0.491,0-0.889-0.398-0.889-0.889s0.398-0.889,0.889-0.889c0.123,0,0.24,0.025,0.346,0.07"/>
<line class="st1" x1="68.431" y1="146.197" x2="70.89" y2="139.141"/>
<polyline class="st1" points="116.368,151.717 116.368,155.546 115.801,156.751 115.801,157.531 111.618,166.678 111.21,163.278 
	109.899,166.284 109.643,164.622 "/>
<path class="st2" d="M121.14,154.04l-1.687-0.303v-2.824c0,0-0.022-1.557,0.973-1.406c0,0,0.67,0.022,0.67,1.384L121.14,154.04z"/>
<path class="st2" d="M120.383,149.335c0,0,0.281-3.568,1.925-2.833"/>
<ellipse transform="matrix(0.1793 -0.9838 0.9838 0.1793 -46.4756 242.1278)" class="st3" cx="121.885" cy="148.92" rx="2.465" ry="0.613"/>
<path class="st4" d="M121.245,154.008l2.012-5.171v-0.542c0.339-2.415-0.903-2.505-0.903-2.505c-0.7-0.158-1.261,0.231-1.261,0.231
	l0.194-0.708l1.609,0.342c0,0,0.844,0.719,0.396,3.088"/>
<path class="st2" d="M119.242,156.831c0,0,1.281,0.5,1,1.656l-5.123,14.213c0,0-0.25,1.531-2.343,1.249c0,0-1.905-0.469-1.406-1.937
	s4.717-11.964,4.717-11.964l2.249,0.469l1.238-3.289l0.114,2.465l0.477,0.375l0.102,0.386l-0.193,1.295l0.25,0.114l-1.922,5.413"/>
<polygon class="st2" points="117.217,167.116 125.096,168.814 125.096,170.959 117.217,169.262 "/>
<polyline class="st2" points="125.128,168.525 127.786,161.511 128.024,163.071 125.096,170.959 "/>
<line class="st2" x1="120.163" y1="162.861" x2="126.631" y2="164.216"/>
<polyline class="st2" points="122.453,161.564 126.746,162.423 126.746,163.3 120.621,162.041 120.621,161.163 121.464,161.337 "/>
<polyline class="st2" points="126.746,162.423 127.204,161.202 121.041,159.942 120.621,161.163 "/>
<ellipse class="st5" cx="122.129" cy="161.049" rx="0.668" ry="0.439"/>
<path class="st5" d="M123.868,160.705l-0.09-3.177l0.496-0.451l0.518,0.383l0.135,3.447c0,0,0.045,0.519-0.563,0.518
	C123.854,161.426,123.868,160.705,123.868,160.705z"/>
<path class="st6" d="M112.623,171.508l-0.112-4.745l0.617-1.47l0.645,1.369l0.168,5.149c0,0,0.056,0.775-0.701,0.774
	C112.605,172.584,112.623,171.508,112.623,171.508z"/>
<path class="st6" d="M117.71,156.458l0.004-3.491l0.617-1.47l0.645,1.369l0.052,3.594c0,0,0.056,0.775-0.701,0.774
	C117.692,157.235,117.71,156.458,117.71,156.458z"/>
<path class="st6" d="M117.81,157.349l-1.458-0.3l0.343,0.429l-0.515,1.544c0,0-0.021,0.515-1.008,0.15"/>
<polyline class="st6" points="113.95,169.637 116.159,163.847 116.194,161.685 116.43,161.235 118.26,161.573 118.244,160.521 "/>
<line class="st6" x1="117.971" y1="164.281" x2="116.361" y2="163.951"/>
<line class="st6" x1="119.021" y1="161.38" x2="118.381" y2="161.24"/>
<line class="st6" x1="114.351" y1="164.078" x2="113.15" y2="163.807"/>
<line class="st6" x1="115.216" y1="161.876" x2="114.035" y2="161.625"/>
<line class="st1" x1="96.599" y1="197.494" x2="133.279" y2="204.972"/>
<path class="st1" d="M98.42,191.567l0.921,0.149c0,0,0.505,0.089,0.297,0.683s-0.624,1.723-0.624,1.723s-0.178,0.416-0.802,0.327
	c-0.624-0.089-0.624-0.089-0.624-0.089"/>
<polyline class="st1" points="97.945,194.538 97.975,197.687 99.104,194.686 99.087,194.018 "/>
<polyline class="st1" points="126.005,203.519 126.428,202.46 133.838,204.013 "/>
<polyline class="st1" points="102.313,206.141 103.069,206.271 103.422,205.706 105.327,206.059 106.174,205.777 127.063,210.223 
	128.334,210.999 "/>
<line class="st1" x1="114.604" y1="207.565" x2="115.703" y2="204.679"/>
<line class="st1" x1="122.39" y1="209.259" x2="123.489" y2="206.282"/>
<line class="st1" x1="123.581" y1="209.488" x2="124.863" y2="206.557"/>
<polyline class="st1" points="113.963,207.336 113.917,205.321 101.918,202.847 101.963,205.504 "/>
<path class="st1" d="M23.915,77.411l4.741-12.233l32.887,6.93l-20.084,54.38c0,0-0.47,3.289-5.638,2.349
	c-5.168-0.94-28.071-5.638-28.071-5.638s-4.253-0.836-2.936-3.993c1.133-2.717,1.403-2.508,1.403-2.508l3.061,0.629l11.69-31.567"/>
<path class="st1" d="M26.663,91.681l-9.267,24.803c0,0-0.545,1.545,1.545,1.999s14.537,2.907,14.537,2.907s1.454,0.545,2.271-1.272
	c0.818-1.817,9.267-24.985,9.267-24.985s1.181-1.635-1.817-2.18s-14.264-2.816-14.264-2.816S26.935,90.046,26.663,91.681z"/>
<path class="st1" d="M51.182,100.028c0,0-0.299,1.709-1.709,2.008c-1.41,0.299-3.034,0.598-3.034,0.598s-0.812-0.085-1.196,1.111
	c-0.385,1.196-1.624,4.529-1.624,4.529s-0.342,0.855,0.214,1.239c0.555,0.385,2.222,1.709,2.222,1.709s0.812,0.427,0.513,1.367"/>
<path class="st1" d="M21.925,79.259l5.578,1.208c0,0,0.782-0.107,0.497,0.782s-2.593,7.887-2.593,7.887s0.604-2.949-2.736-3.624
	s-3.624,2.345-3.624,2.345l0.071-1.599L21.925,79.259z"/>
<path class="st1" d="M19.047,87.856c0,0,0.036,0.888,0.959,0.853l5.649,1.172c0,0,3.517-9.45,3.517-9.912s-1.03-0.711-1.03-0.711
	l-3.268-0.639l-0.355,0.995"/>
<ellipse class="st1" cx="23.932" cy="82.971" rx="2.327" ry="1.865"/>
<polyline class="st1" points="22.351,79.33 23.062,77.34 23.808,77.483 23.95,79.543 "/>
<path class="st1" d="M6.955,122.967c0,0,0.132,1.453,1.409,0.352l0.044,4.756l0.528,0.044l0.881-2.026l-0.044-2.466"/>
<line class="st1" x1="9.817" y1="126.093" x2="38.087" y2="131.862"/>
<path class="st1" d="M9.112,127.767l1.189,0.22c0,0,0.705-0.132,0.572,0.528c-0.132,0.661-0.352,0.749-0.352,0.749l0.044,1.233
	l26.024,5.328l-0.132-1.189l0.616-1.277l0.793,0.088"/>
<path class="st1" d="M38.043,128.956l0.264,5.02c0,0,0.088,1.057,1.849,0.396l-0.176-5.812"/>
<line class="st1" x1="13.032" y1="124.332" x2="13.12" y2="126.842"/>
<path class="st1" d="M41.654,125.961l0.176,8.719l-1.277,0.661c0,0-1.233,0.44-1.233-0.705"/>
<polyline class="st1" points="42.006,133.755 42.71,132.126 42.666,129.44 44.031,126.137 43.855,120.633 42.226,120.237 
	43.195,117.815 44.384,118.079 "/>
<polyline class="st1" points="42.71,132.126 53.879,102.747 54.691,101.845 59.292,89.485 59.202,87.59 60.736,83.981 60.465,75.41 
	"/>
<polyline class="st1" points="61.542,72.108 61.784,80.208 60.795,83.174 "/>
<path class="st1" d="M57.371,82.783c-1.554-0.278-0.694-1.693-0.694-1.693s1.027-1.027,0.056-2.415
	c-0.972-1.388-0.805-2.276-0.805-2.276l1.138-3.192c0,0,0.416-1.083,1.277-1.055c0.861,0.028,1.221,0.305,1.221,0.305
	s0.833,0.583,0.472,1.527s-0.638,1.693-0.638,1.693l0.749,0.139"/>
<ellipse class="st1" cx="58.634" cy="73.637" rx="0.736" ry="0.541"/>
<g>
	<path class="st0" d="M291.215,176.659c6.224,3.08,14.922-1.805,19.427-10.91c4.505-9.105,3.111-18.983-3.113-22.062l-1.516-1.348
		c0,0-6.216-4.645-16.189,4.235c0,0-8.265,7.65-7.514,17.008c0,0-0.068,3.757,0.82,6.557l1.025,0.546l0.615,2.186
		c0,0,3.055,3.017,5.854,3.901L291.215,176.659z"/>
	<polygon class="st1" points="276.4,168.536 282.133,171.94 282.312,190.3 283.924,194.152 283.745,211.886 276.311,207.497 	"/>
	<path class="st1" d="M283.745,211.886l3.672-1.523l-0.09-1.791l26.78-11.196l0.179,1.881l3.762-1.612l-0.179-39.05
		c0,0-5.016,1.791-3.762,7.165c0,0,4.837,8.24-2.239,19.704l0.09,6.18l-22.033,9.404l-0.09-5.822l-4.568-6.001l-2.956,1.075
		l1.497-1.878"/>
	<line class="st1" x1="283.924" y1="194.152" x2="287.775" y2="192.629"/>
	<path class="st1" d="M276.4,168.536c0,0,1.523-0.806,2.777-0.358l4.766,2.617"/>
	<path class="st1" d="M282.133,171.94c0,0,0.922-1.76,1.913-1.111c0,0,1.196,1.299,0.068,5.297c0,0-1.215,7.827-0.304,12.296
		l1.458,0.803"/>
	<line class="st1" x1="317.869" y1="158.594" x2="313.606" y2="155.918"/>
	<polyline class="st1" points="311.868,185.464 309.761,184.281 309.82,190.509 311.958,191.644 	"/>
	<polyline class="st1" points="289.954,198.905 291.863,198.095 291.748,195.259 288.796,193.755 	"/>
	<line class="st1" x1="311.654" y1="164.503" x2="314.236" y2="166.132"/>
	<path class="st1" d="M308.537,144.091l-2.6-1.841c-2.523-1.166-5.768-1.738-9.403-0.18c-7.839,3.359-12.153,11.806-12.153,11.806
		s-4.179,8.326-1.251,16.454"/>
	<polygon class="st7" points="293.758,197.934 295.777,180.965 296.042,179.721 296.819,178.555 300.22,177.195 299.832,178.847 
		305.418,193.173 	"/>
	<line class="st8" x1="296.189" y1="179.909" x2="299.788" y2="178.48"/>
	<line class="st8" x1="290.858" y1="194.615" x2="303.841" y2="189.166"/>
	<line class="st7" x1="314.286" y1="199.257" x2="312.633" y2="198.174"/>
	<g>
		
			<ellipse transform="matrix(0.4435 -0.8963 0.8963 0.4435 23.1876 357.5503)" class="st8" cx="299.509" cy="160.103" rx="18.394" ry="12.574"/>
		<line class="st9" x1="299.856" y1="144.732" x2="299.502" y2="158.165"/>
		<line class="st9" x1="293.636" y1="153.914" x2="305.495" y2="149.435"/>
	</g>
	<path class="st1" d="M284.797,172.832c0,0,3.884,4.441,9.872,4.707"/>
	<polyline class="st8" points="295.084,186.949 293.515,187.646 292.688,179.544 298.046,177.279 	"/>
	<polyline class="st8" points="290.989,193.962 286.067,182.549 285.936,176.102 284.411,175.188 	"/>
	<line class="st8" x1="284.107" y1="177.148" x2="287.853" y2="175.58"/>
	<line class="st8" x1="284.324" y1="175.362" x2="286.459" y2="174.491"/>
	<polyline class="st8" points="303.795,174.316 303.752,175.101 301.4,182.767 	"/>
	<path class="st8" d="M301.966,184.379c0,0,5.184-5.162,5.881-13.808"/>
	<path class="st8" d="M310.199,167.02l0.653,0.392c0,0,1.742,10.541-7.405,20.473"/>
	<path class="st1" d="M309.761,184.281c0,0-2.211,3.665-3.936,5.421l0.04,2.421l3.955-1.614"/>
	<line class="st1" x1="303.534" y1="188.234" x2="305.825" y2="189.702"/>
</g>
<polyline class="st10" points="23.873,134.745 24.655,155.881 120.42,172.581 120.681,187.455 "/>
<polyline class="st11" points="23.873,134.745 24.655,155.881 120.42,172.581 120.681,187.455 "/>
<polyline class="st12" points="219.816,129.319 125.288,148.763 213.848,140.292 "/>
<g>
	<g>
		<path class="st13" d="M54.134,47.223c0,7.593-6.246,13.745-13.95,13.745c-7.707,0-13.953-6.152-13.953-13.745
			c0-7.596,6.246-13.755,13.953-13.755C47.888,33.468,54.134,39.627,54.134,47.223"/>
	</g>
	<g>
		<path class="st14" d="M41.781,54.264h-1.846V42.503c-0.444,0.424-1.027,0.848-1.749,1.271s-1.369,0.742-1.943,0.954v-1.784
			c1.032-0.485,1.935-1.073,2.707-1.764s1.319-1.36,1.641-2.01h1.189V54.264z"/>
	</g>
</g>
<g>
	<polygon class="st15" points="40.653,61.718 53.228,75.088 46.951,73.976 47.163,95.036 34.785,92.847 34.574,71.785 
		28.298,70.676 	"/>
</g>
<polygon class="st14" points="75.263,123.929 76.291,122.189 79.452,132.099 "/>
<g>
	<path class="st0" d="M238.858,175.765c6.224,3.08,14.922-1.805,19.427-10.91c3.747-7.572,3.413-15.679-0.385-19.965
		c0,0-1.387-2.346-4.383-3.544c0,0-5.393-3.52-13.707,2.547c0,0-5.019,3.97-7.565,9.138c0,0-0.113,3.091-0.709,4.283
		c0,0-1.009,9.401-0.183,12.152l1.422,0.871l3.393,4.586L238.858,175.765z"/>
	<polygon class="st1" points="223.863,149.629 229.595,153.033 229.775,171.394 231.387,175.245 231.208,192.979 223.774,188.59 	
		"/>
	<path class="st1" d="M231.208,192.979l3.672-1.523l-0.09-1.791l26.78-11.196l0.179,1.881l3.762-1.612l-0.179-39.05
		c0,0-5.016,1.791-3.762,7.165c0,0,4.837,8.24-2.239,19.704l0.09,6.18l-22.033,9.404l-0.09-5.822l-4.568-6.001l-2.956,1.075
		l1.497-1.878"/>
	<line class="st1" x1="231.387" y1="175.245" x2="235.238" y2="173.722"/>
	<path class="st1" d="M223.863,149.629c0,0,1.523-0.806,2.777-0.358l4.766,2.617"/>
	<path class="st1" d="M229.595,153.033c0,0,0.922-1.76,1.913-1.111c0,0,1.196,1.299,0.068,5.297c0,0-1.215,7.827-0.304,12.296
		l1.458,0.803"/>
	<path class="st1" d="M265.332,139.688l-7.11-4.464c0,0-4.701,1.94-4.253,6.343"/>
	<polyline class="st1" points="259.331,166.557 257.224,165.374 257.283,171.602 259.421,172.737 	"/>
	<polyline class="st1" points="253.288,170.795 253.328,173.216 257.283,171.602 	"/>
	<polyline class="st1" points="237.416,179.999 239.326,179.189 239.21,176.353 236.259,174.848 	"/>
	<path class="st1" d="M232.092,153.03c0,0,4.314-8.447,12.153-11.806c8.507-3.646,14.872,4.372,14.872,4.372l2.581,1.63"/>
	
		<ellipse transform="matrix(0.4435 -0.8963 0.8963 0.4435 -5.3826 310.3306)" class="st8" cx="247.201" cy="159.5" rx="18.394" ry="12.574"/>
	<polygon class="st7" points="241.22,179.028 244.843,162.003 245.107,160.759 245.885,159.593 249.286,158.233 248.897,159.885 
		252.881,174.266 	"/>
	<line class="st8" x1="245.133" y1="161.09" x2="248.732" y2="159.661"/>
	<line class="st8" x1="242.38" y1="174.481" x2="251.696" y2="170.564"/>
	<line class="st7" x1="261.749" y1="180.35" x2="260.096" y2="179.267"/>
	<line class="st9" x1="247.547" y1="144.128" x2="247.193" y2="157.561"/>
	<line class="st9" x1="241.328" y1="153.31" x2="253.187" y2="148.831"/>
	<g>
		<polygon class="st16" points="242.42,129.627 235.686,130.493 229.619,133.96 229.352,135.627 238.687,133.527 242.554,130.627 		
			"/>
		<g>
			<path class="st17" d="M241.512,131.297c-2.296,2.87-2.915,4.807-2.856,6.633l-12.988,4.702c0,0-1.845-8.519,10.143-12.881
				l3.998-1.47l6.455-2.35c8.797-2.949,13.975,2.957,13.975,2.957l6.763-2.461l-5.141,13.847l-22.456-3.744l7.651-2.783
				c0,0-7.733-6.137-16.922,0.372"/>
		</g>
	</g>
</g>
<g>
	<polygon class="st18" points="296.447,112.121 286.532,126.75 291.381,124.152 290.841,142.004 300.402,136.881 300.944,119.026 
		305.791,116.428 	"/>
</g>
<circle class="st19" cx="273.439" cy="163.491" r="63.455"/>
<g>
	<g>
		<path class="st13" d="M267.092,108.674c0,7.593-6.246,13.745-13.95,13.745c-7.707,0-13.953-6.152-13.953-13.745
			c0-7.596,6.246-13.755,13.953-13.755C260.846,94.919,267.092,101.078,267.092,108.674"/>
	</g>
	<g>
		<path class="st14" d="M258.087,113.341v1.774h-9.936c-0.014-0.444,0.058-0.872,0.215-1.282c0.253-0.677,0.658-1.343,1.216-2
			c0.557-0.656,1.361-1.415,2.414-2.276c1.634-1.34,2.738-2.401,3.312-3.184s0.861-1.523,0.861-2.22
			c0-0.731-0.262-1.348-0.784-1.851c-0.523-0.502-1.205-0.753-2.046-0.753c-0.889,0-1.6,0.267-2.133,0.8s-0.804,1.271-0.811,2.215
			l-1.896-0.195c0.13-1.415,0.618-2.493,1.466-3.235c0.848-0.741,1.986-1.112,3.415-1.112c1.442,0,2.584,0.4,3.425,1.2
			c0.841,0.8,1.261,1.791,1.261,2.974c0,0.602-0.123,1.193-0.369,1.774s-0.654,1.193-1.225,1.835
			c-0.571,0.643-1.52,1.524-2.846,2.646c-1.107,0.93-1.818,1.561-2.133,1.892s-0.574,0.665-0.779,1H258.087z"/>
	</g>
</g>
<g>
	<g>
		<path class="st13" d="M332.348,128.467c0,7.593-6.246,13.745-13.95,13.745c-7.707,0-13.953-6.152-13.953-13.745
			c0-7.596,6.246-13.755,13.953-13.755C326.102,114.712,332.348,120.871,332.348,128.467"/>
	</g>
	<g>
		<path class="st14" d="M313.653,130.94l1.846-0.246c0.212,1.046,0.572,1.799,1.082,2.261c0.509,0.461,1.129,0.692,1.86,0.692
			c0.868,0,1.602-0.301,2.2-0.902c0.598-0.602,0.896-1.347,0.896-2.235c0-0.848-0.276-1.547-0.83-2.098
			c-0.554-0.55-1.258-0.825-2.112-0.825c-0.349,0-0.783,0.068-1.303,0.205l0.205-1.62c0.123,0.014,0.223,0.021,0.298,0.021
			c0.786,0,1.493-0.205,2.122-0.615s0.943-1.042,0.943-1.896c0-0.677-0.229-1.237-0.687-1.682s-1.05-0.667-1.774-0.667
			c-0.718,0-1.315,0.226-1.794,0.677s-0.786,1.127-0.923,2.03l-1.846-0.328c0.226-1.237,0.738-2.195,1.538-2.875
			s1.794-1.021,2.983-1.021c0.82,0,1.576,0.176,2.267,0.528s1.218,0.832,1.584,1.44c0.365,0.608,0.549,1.254,0.549,1.938
			c0,0.649-0.175,1.24-0.523,1.773s-0.864,0.957-1.548,1.271c0.889,0.205,1.579,0.631,2.071,1.276
			c0.492,0.646,0.738,1.455,0.738,2.426c0,1.312-0.479,2.425-1.436,3.337c-0.957,0.913-2.167,1.369-3.63,1.369
			c-1.319,0-2.415-0.393-3.286-1.179C314.273,133.21,313.776,132.191,313.653,130.94z"/>
	</g>
</g>
<g>
	<path class="st1" d="M160.66,95.461"/>
	<g>
		<path class="st1" d="M173.616,106.022"/>
	</g>
	<g>
		<path class="st1" d="M179.552,106.321"/>
		<path class="st1" d="M179.871,105.493"/>
		<path class="st1" d="M180.19,104.664"/>
	</g>
	<g>
		<path class="st1" d="M179.948,107.323"/>
	</g>
	<path class="st1" d="M200.165,113.312"/>
	<polygon class="st1" points="173.325,105.022 172.308,104.79 170.74,109.467 171.815,109.699 	"/>
	<polyline class="st1" points="170.74,109.67 170.798,111.064 171.924,111.31 171.844,109.757 	"/>
	<path class="st1" d="M172.016,111.218"/>
	<path class="st1" d="M200.908,116.672"/>
	<path class="st1" d="M204.057,112.019c0,0-1.135,0.077-1.368,0.903c0,0-0.335,0.852,0.852,0.723c0,0,1.187,0,1.548-0.877
		C205.09,112.767,205.245,111.838,204.057,112.019z"/>
	<path class="st1" d="M200.912,115.494l0.075,2.133c0,0,1.004,0.427,1.205-0.276l0.427-0.954l-0.025-1.686"/>
	<polyline class="st1" points="202.794,116.523 204.225,116.773 205.128,114.289 205.078,112.883 	"/>
	<polyline class="st1" points="203.723,113.737 203.748,115.92 204.451,116.046 	"/>
	<path class="st1" d="M203.823,111.866c0.108-0.888-0.173-0.953-0.173-0.953l-0.714-0.13l-0.123,1.505"/>
	<path class="st1" d="M202.884,113.681l-0.654,2.042c0,0-0.099,0.694-1.209,0.278"/>
	<path class="st1" d="M136.484,100.039c-1.14-0.534-0.675-1.443-0.675-1.443c0.442-0.885,1.629-0.279,1.629-0.279
		s1.303,0.349,0.954,1.536C138.393,99.853,138.323,100.901,136.484,100.039z"/>
	<polyline class="st1" points="138.568,98.905 138.931,97.961 140.291,98.21 140.189,99.816 138.598,104.767 	"/>
	<polyline class="st1" points="138.662,99.878 139.117,99.986 138.628,101.173 137.767,100.987 137.162,102.873 138.537,103.13 	"/>
	<polyline class="st1" points="137.998,101.179 136.176,100.841 136.193,102.114 135.79,102.033 135.774,102.759 136.982,102.984 	
		"/>
	<path class="st1" d="M137.563,101.437l-0.371,1.064c0,0-0.338,0.516,1.358,0.703l0.048,1.563l-1.052-0.107
		c0,0-0.435-0.016-0.435-0.435s-0.032-1.434-0.032-1.434"/>
	<polygon class="st1" points="167.36,108.908 168.649,109.267 168.649,110.622 167.36,110.263 	"/>
	<polyline class="st1" points="167.393,108.81 169.123,104.11 170.347,104.42 168.649,109.267 	"/>
	<polyline class="st1" points="168.649,110.622 170.298,105.905 170.363,104.485 	"/>
	<polyline class="st1" points="173.325,105.022 173.488,106.617 172.016,111.218 	"/>
</g>
</svg>
