<?xml version="1.0" encoding="iso-8859-1"?>
<!-- Generator: Adobe Illustrator 26.0.3, SVG Export Plug-In . SVG Version: 6.00 Build 0)  -->
<svg version="1.1" id="Layer_1" xmlns="http://www.w3.org/2000/svg" xmlns:xlink="http://www.w3.org/1999/xlink" x="0px" y="0px"
	 viewBox="0 0 288 151.246" style="enable-background:new 0 0 288 151.246;" xml:space="preserve">
<g>
	<g>
		<g>
			<path style="fill-rule:evenodd;clip-rule:evenodd;fill:#1A1A1A;" d="M233.428,22.219v-0.391c0-0.078,0-0.078,0-0.156
				c-0.028-0.078-0.028-0.078-0.056-0.156c0,0-0.028-0.078-0.056-0.078c0,0-0.028-0.078-0.056-0.078H5.812
				c-0.028,0-0.028,0.078-0.056,0.078s-0.056,0.078-0.056,0.078c-0.028,0.078-0.028,0.078-0.028,0.156
				c-0.028,0.078-0.028,0.156-0.028,0.156v121.121c0,0.234,0.028,0.391,0.028,0.547c0.028,0.156,0.056,0.313,0.083,0.469
				c0.028,0.078,0.083,0.234,0.111,0.313c0.056,0.156,0.111,0.234,0.167,0.313c0.028,0,0.056,0.078,0.111,0.078
				c0.028,0.078,0.083,0.078,0.111,0.078h226.561c0.056,0,0.111-0.078,0.167-0.078c0.056-0.078,0.111-0.156,0.167-0.234
				c0.055-0.078,0.083-0.234,0.139-0.313c0.028-0.156,0.055-0.313,0.083-0.469c0.028-0.078,0.028-0.156,0.056-0.313
				c0-0.078,0-0.234,0-0.391V22.219"/>
			<g>
				<g>
					<path style="fill-rule:evenodd;clip-rule:evenodd;fill:#E5E5E4;" d="M17.524,22.796h-6.067c-1.756,0-3.353,1.437-3.353,3.353
						v116.714h2.714V26.149c0-0.479,0.319-0.798,0.639-0.798h6.067V22.796z M136.153,25.351h91.806c0.479,0,0.798,0.319,0.798,0.798
						v116.714h2.555V26.149c0-1.916-1.437-3.353-3.353-3.353h-91.806V25.351z"/>
					<path style="fill:none;stroke:#808081;stroke-width:0;stroke-linecap:round;stroke-linejoin:round;stroke-miterlimit:10;" d="
						M17.524,22.796h-6.067c-1.756,0-3.353,1.437-3.353,3.353v116.714h2.714V26.149c0-0.479,0.319-0.798,0.639-0.798h6.067V22.796z"
						/>
				</g>
			</g>
			<path style="fill-rule:evenodd;clip-rule:evenodd;fill:#CBCBCA;" d="M11.457,142.544h213.629c1.597,0,2.874-1.437,2.874-3.034
				V29.023c0-1.597-1.277-2.874-2.874-2.874H14.49c-1.597,0-3.034,1.277-3.034,2.874V142.544"/>
			<path style="fill-rule:evenodd;clip-rule:evenodd;fill:#1A1A1A;" d="M14.171,139.829h210.915c0.16,0,0.319-0.16,0.319-0.319
				V29.023c0-0.16-0.16-0.319-0.319-0.319H14.49c-0.16,0-0.319,0.16-0.319,0.319V139.829"/>
			<path style="fill-rule:evenodd;clip-rule:evenodd;fill:#676767;" d="M29.818,142.544h94.042c6.546,0,11.815-5.269,11.815-11.815
				V36.687c0-6.387-5.269-11.655-11.815-11.655H29.818c-6.546,0-11.815,5.269-11.815,11.655v94.042
				C18.003,137.275,23.272,142.544,29.818,142.544"/>
			<path style="fill:none;stroke:#333333;stroke-width:0;stroke-linecap:round;stroke-linejoin:round;stroke-miterlimit:10;" d="
				M29.818,142.544h94.042c6.546,0,11.815-5.269,11.815-11.815V36.687c0-6.387-5.269-11.655-11.815-11.655H29.818
				c-6.546,0-11.815,5.269-11.815,11.655v94.042C18.003,137.275,23.272,142.544,29.818,142.544z"/>
			<path style="fill-rule:evenodd;clip-rule:evenodd;fill:#1A1A1A;" d="M133.758,73.729V62.872
				c-6.067-16.765-19.319-29.857-35.924-36.084H75.481c-0.639,0-1.118,0.479-1.118,1.118c0,0.319,0.16,0.639,0.319,0.798
				c7.185,7.025,12.933,15.487,16.765,24.748c14.849,7.185,22.353,24.109,17.563,39.916
				C118.59,88.737,127.053,82.031,133.758,73.729 M86.818,140.628h11.017c16.605-6.067,29.857-19.319,35.924-35.924V82.351
				c0-0.639-0.479-1.118-1.118-1.118c-0.319,0-0.639,0.16-0.798,0.319c-7.025,7.185-15.487,12.933-24.748,16.765
				c-7.185,14.849-24.109,22.353-39.916,17.563C71.809,125.46,78.515,133.922,86.818,140.628z M19.919,93.687v11.017
				c6.067,16.605,19.319,29.857,35.924,35.924h22.353c0.639,0,1.118-0.479,1.118-1.118c0-0.319-0.16-0.639-0.319-0.798
				c-7.185-7.025-12.933-15.487-16.765-24.748c-14.849-7.185-22.353-24.109-17.563-39.916
				C35.087,78.678,26.625,85.384,19.919,93.687z M66.86,26.788H55.843c-16.605,6.227-29.857,19.319-35.924,36.084v22.193
				c0,0.639,0.479,1.118,1.118,1.118c0.319,0,0.639,0,0.798-0.319c7.025-7.185,15.487-12.933,24.748-16.765
				c7.185-14.849,24.109-22.353,39.916-17.563C81.868,41.956,75.162,33.494,66.86,26.788z"/>
			<path style="fill-rule:evenodd;clip-rule:evenodd;fill:#E5E5E4;" d="M114.918,46.746c2.555,2.235,5.748,3.353,9.101,3.353
				c3.992,5.748,7.025,12.294,8.781,19v29.218c-1.756,6.865-4.79,13.252-8.781,19h-13.731c-1.277,0-2.555-0.319-3.672-0.798
				l-14.529-6.227c12.773-7.344,18.361-22.512,13.731-36.403l7.983-18.042c0.798-1.756,1.118-3.672,1.118-5.588V46.746
				 M38.759,120.67c-2.395-2.076-5.748-3.353-8.941-3.353c-4.151-5.748-7.185-12.134-8.941-19V69.099
				c1.756-6.706,4.79-13.252,8.941-19h13.571c1.277,0,2.555,0.319,3.832,0.798l14.37,6.387
				C48.977,64.468,43.229,79.796,47.86,93.527l-7.983,18.042c-0.639,1.756-1.118,3.672-1.118,5.588V120.67z M114.599,142.544
				h106.336v-5.588c0-0.639,0.479-1.118,1.118-1.118h3.353v-23.95H208.64V73.09h16.765V28.704h-36.403v8.781h-1.756v-8.781h-26.504
				v8.781h-1.756v-8.781h-23.311v-0.798c0-1.597-1.437-2.874-3.034-2.874h-18.042c-2.395,0-4.151,1.756-4.151,3.992v21.235
				c0,1.277-0.319,2.555-0.798,3.832l-6.227,14.37C96.078,55.847,80.91,50.099,67.019,54.729l-18.042-7.824
				c-1.756-0.798-3.672-1.277-5.588-1.277h-3.513c2.235-2.395,3.353-5.588,3.353-8.941v-7.664c0-2.235-1.756-3.992-4.151-3.992
				H21.036c-1.597,0-3.034,1.277-3.034,2.874v3.353h-3.832v111.285h24.907c2.395,0,4.151-1.916,4.151-4.151v-21.235
				c0-1.277,0.319-2.555,0.798-3.672l6.387-14.37c7.185,12.613,22.353,18.361,36.244,13.571l18.042,7.983
				c1.756,0.798,3.672,1.118,5.588,1.118h3.513c-2.076,2.555-3.353,5.748-3.353,9.101v7.504
				C110.448,140.628,112.204,142.544,114.599,142.544z"/>
			<path style="fill-rule:evenodd;clip-rule:evenodd;fill:#1A1A1A;" d="M178.784,132.006c0-3.992-3.353-7.344-7.504-7.344
				s-7.504,3.353-7.504,7.344c0,4.151,3.353,7.504,7.504,7.504S178.784,136.157,178.784,132.006"/>
			<path style="fill-rule:evenodd;clip-rule:evenodd;fill:#545454;" d="M137.431,38.284v80.47c0,2.714,2.235,4.79,4.79,4.79h58.277
				c2.555,0,4.63-2.076,4.63-4.79v-80.47c0-2.555-2.076-4.63-4.63-4.63h-58.277C139.666,33.653,137.431,35.729,137.431,38.284"/>
			<path style="fill-rule:evenodd;clip-rule:evenodd;fill:#292929;" d="M144.296,60.477V96.72c0,2.076,0.798,3.992,2.235,5.429
				l14.689,13.891c1.437,1.437,3.193,2.076,5.109,2.076h24.588c4.151,0,7.504-3.193,7.504-7.344V46.426
				c0-4.151-3.353-7.504-7.504-7.504H166.33c-1.916,0-3.672,0.798-5.109,2.076l-14.689,14.05
				C145.095,56.485,144.296,58.401,144.296,60.477"/>
			
				<path style="fill:none;stroke:#333333;stroke-width:0.0027;stroke-linecap:round;stroke-linejoin:round;stroke-miterlimit:10;" d="
				M144.296,60.477V96.72c0,2.076,0.798,3.992,2.235,5.429l14.689,13.891c1.437,1.437,3.193,2.076,5.109,2.076h24.588
				c4.151,0,7.504-3.193,7.504-7.344V46.426c0-4.151-3.353-7.504-7.504-7.504H166.33c-1.916,0-3.672,0.798-5.109,2.076
				l-14.689,14.05C145.095,56.485,144.296,58.401,144.296,60.477z"/>
			<path style="fill-rule:evenodd;clip-rule:evenodd;fill:#999999;" d="M171.918,102.149h14.849v-4.471h-14.849V102.149z
				 M155.952,80.914H170.8v-4.471h-14.849V80.914z M171.918,59.519h14.849v-4.47h-14.849V59.519z"/>
			<path style="fill-rule:evenodd;clip-rule:evenodd;fill:#DCDCDC;stroke:#6D6E70;stroke-width:0.3657;stroke-miterlimit:10;" d="
				M38.28,36.687c0-4.63-3.832-8.302-8.462-8.302s-8.462,3.672-8.462,8.302c0,4.63,3.832,8.462,8.462,8.462
				S38.28,41.317,38.28,36.687 M38.28,130.728c0-4.63-3.832-8.302-8.462-8.302s-8.462,3.672-8.462,8.302
				c0,4.63,3.832,8.462,8.462,8.462S38.28,135.359,38.28,130.728z M132.321,130.728c0-4.63-3.832-8.302-8.462-8.302
				c-4.63,0-8.302,3.672-8.302,8.302c0,4.63,3.672,8.462,8.302,8.462C128.49,139.191,132.321,135.359,132.321,130.728z
				 M132.321,36.687c0-4.63-3.832-8.302-8.462-8.302c-4.63,0-8.302,3.672-8.302,8.302c0,4.63,3.672,8.462,8.302,8.462
				C128.49,45.149,132.321,41.317,132.321,36.687z"/>
			<path style="fill-rule:evenodd;clip-rule:evenodd;fill:#676767;" d="M26.465,128.653l0.639,0.639
				c0.798,0.798,0.798,2.076,0,2.874l-0.639,0.639c-0.319,0.16-0.319,0.639,0,0.958l0.319,0.319c0.319,0.319,0.798,0.319,0.958,0
				l0.639-0.479c0.798-0.798,2.076-0.798,2.874,0l0.639,0.479c0.16,0.319,0.639,0.319,0.958,0l0.319-0.319
				c0.319-0.319,0.319-0.639,0-0.958l-0.639-0.639c-0.798-0.798-0.798-2.076,0-2.874l0.639-0.479c0.319-0.319,0.319-0.798,0-0.958
				l-0.319-0.479c-0.319-0.319-0.798-0.319-0.958,0l-0.639,0.639c-0.798,0.798-2.076,0.798-2.874,0l-0.639-0.639
				c-0.16-0.319-0.639-0.319-0.958,0l-0.319,0.479C26.146,128.014,26.146,128.493,26.465,128.653 M120.506,128.653l0.639,0.639
				c0.798,0.798,0.798,2.076,0,2.874l-0.639,0.639c-0.319,0.16-0.319,0.639,0,0.958l0.479,0.319c0.16,0.319,0.639,0.319,0.958,0
				l0.479-0.479c0.798-0.798,2.076-0.798,2.874,0l0.639,0.479c0.319,0.319,0.639,0.319,0.958,0l0.319-0.319
				c0.319-0.319,0.319-0.639,0-0.958l-0.479-0.639c-0.798-0.798-0.798-2.076,0-2.874l0.479-0.479c0.319-0.319,0.319-0.798,0-0.958
				l-0.319-0.479c-0.319-0.319-0.798-0.319-0.958,0l-0.639,0.639c-0.798,0.798-2.076,0.798-2.874,0l-0.639-0.639
				c-0.16-0.319-0.639-0.319-0.958,0l-0.319,0.479C120.187,128.014,120.187,128.493,120.506,128.653z M120.506,34.771l0.639,0.479
				c0.798,0.798,0.798,2.076,0,2.874l-0.639,0.639c-0.319,0.16-0.319,0.639,0,0.958l0.479,0.319c0.16,0.319,0.639,0.319,0.958,0
				l0.479-0.479c0.798-0.798,2.076-0.798,2.874,0l0.639,0.479c0.319,0.319,0.639,0.319,0.958,0l0.319-0.319
				c0.319-0.319,0.319-0.639,0-0.958l-0.479-0.639c-0.798-0.798-0.798-2.076,0-2.874l0.479-0.479c0.319-0.319,0.319-0.798,0-0.958
				l-0.319-0.479c-0.319-0.16-0.798-0.16-0.958,0l-0.639,0.639c-0.798,0.798-2.076,0.798-2.874,0l-0.639-0.639
				c-0.16-0.319-0.639-0.319-0.958,0l-0.319,0.479C120.187,33.973,120.187,34.452,120.506,34.771z M26.465,34.771l0.639,0.479
				c0.798,0.798,0.798,2.076,0,2.874l-0.639,0.639c-0.319,0.16-0.319,0.639,0,0.958l0.319,0.319c0.319,0.319,0.798,0.319,0.958,0
				l0.639-0.479c0.798-0.798,2.076-0.798,2.874,0l0.639,0.479c0.16,0.319,0.639,0.319,0.958,0l0.319-0.319
				c0.319-0.319,0.319-0.639,0-0.958l-0.639-0.639c-0.798-0.798-0.798-2.076,0-2.874l0.639-0.479c0.319-0.319,0.319-0.798,0-0.958
				l-0.319-0.479c-0.319-0.16-0.798-0.16-0.958,0l-0.639,0.639c-0.798,0.798-2.076,0.798-2.874,0l-0.639-0.639
				c-0.16-0.319-0.639-0.319-0.958,0l-0.319,0.479C26.146,33.973,26.146,34.452,26.465,34.771z"/>
			<path style="fill:none;stroke:#A1A0A0;stroke-width:0;stroke-linecap:round;stroke-linejoin:round;stroke-miterlimit:10;" d="
				M26.465,34.771l0.639,0.479c0.798,0.798,0.798,2.076,0,2.874l-0.639,0.639c-0.319,0.16-0.319,0.639,0,0.958l0.319,0.319
				c0.319,0.319,0.798,0.319,0.958,0l0.639-0.479c0.798-0.798,2.076-0.798,2.874,0l0.639,0.479c0.16,0.319,0.639,0.319,0.958,0
				l0.319-0.319c0.319-0.319,0.319-0.639,0-0.958l-0.639-0.639c-0.798-0.798-0.798-2.076,0-2.874l0.639-0.479
				c0.319-0.319,0.319-0.798,0-0.958l-0.319-0.479c-0.319-0.16-0.798-0.16-0.958,0l-0.639,0.639c-0.798,0.798-2.076,0.798-2.874,0
				l-0.639-0.639c-0.16-0.319-0.639-0.319-0.958,0l-0.319,0.479C26.146,33.973,26.146,34.452,26.465,34.771z"/>
			<path style="fill:none;stroke:#A1A0A0;stroke-width:0;stroke-linecap:round;stroke-linejoin:round;stroke-miterlimit:10;" d="
				M120.506,34.771l0.639,0.479c0.798,0.798,0.798,2.076,0,2.874l-0.639,0.639c-0.319,0.16-0.319,0.639,0,0.958l0.479,0.319
				c0.16,0.319,0.639,0.319,0.958,0l0.479-0.479c0.798-0.798,2.076-0.798,2.874,0l0.639,0.479c0.319,0.319,0.639,0.319,0.958,0
				l0.319-0.319c0.319-0.319,0.319-0.639,0-0.958l-0.479-0.639c-0.798-0.798-0.798-2.076,0-2.874l0.479-0.479
				c0.319-0.319,0.319-0.798,0-0.958l-0.319-0.479c-0.319-0.16-0.798-0.16-0.958,0l-0.639,0.639c-0.798,0.798-2.076,0.798-2.874,0
				l-0.639-0.639c-0.16-0.319-0.639-0.319-0.958,0l-0.319,0.479C120.187,33.973,120.187,34.452,120.506,34.771z"/>
			<path style="fill:none;stroke:#A1A0A0;stroke-width:0;stroke-linecap:round;stroke-linejoin:round;stroke-miterlimit:10;" d="
				M120.506,128.653l0.639,0.639c0.798,0.798,0.798,2.076,0,2.874l-0.639,0.639c-0.319,0.16-0.319,0.639,0,0.958l0.479,0.319
				c0.16,0.319,0.639,0.319,0.958,0l0.479-0.479c0.798-0.798,2.076-0.798,2.874,0l0.639,0.479c0.319,0.319,0.639,0.319,0.958,0
				l0.319-0.319c0.319-0.319,0.319-0.639,0-0.958l-0.479-0.639c-0.798-0.798-0.798-2.076,0-2.874l0.479-0.479
				c0.319-0.319,0.319-0.798,0-0.958l-0.319-0.479c-0.319-0.319-0.798-0.319-0.958,0l-0.639,0.639c-0.798,0.798-2.076,0.798-2.874,0
				l-0.639-0.639c-0.16-0.319-0.639-0.319-0.958,0l-0.319,0.479C120.187,128.014,120.187,128.493,120.506,128.653z"/>
			<path style="fill:none;stroke:#A1A0A0;stroke-width:0;stroke-linecap:round;stroke-linejoin:round;stroke-miterlimit:10;" d="
				M26.465,128.653l0.639,0.639c0.798,0.798,0.798,2.076,0,2.874l-0.639,0.639c-0.319,0.16-0.319,0.639,0,0.958l0.319,0.319
				c0.319,0.319,0.798,0.319,0.958,0l0.639-0.479c0.798-0.798,2.076-0.798,2.874,0l0.639,0.479c0.16,0.319,0.639,0.319,0.958,0
				l0.319-0.319c0.319-0.319,0.319-0.639,0-0.958l-0.639-0.639c-0.798-0.798-0.798-2.076,0-2.874l0.639-0.479
				c0.319-0.319,0.319-0.798,0-0.958l-0.319-0.479c-0.319-0.319-0.798-0.319-0.958,0l-0.639,0.639c-0.798,0.798-2.076,0.798-2.874,0
				l-0.639-0.639c-0.16-0.319-0.639-0.319-0.958,0l-0.319,0.479C26.146,128.014,26.146,128.493,26.465,128.653z"/>
			<g>
				<defs>
					<path id="SVGID_1_" d="M20.877,97.199h2.235V70.376h-2.235V97.199z M130.565,97.199h2.235V70.376h-2.235V97.199z"/>
				</defs>
				<clipPath id="SVGID_00000078723585151525624870000004409863291365474479_">
					<use xlink:href="#SVGID_1_"  style="overflow:visible;"/>
				</clipPath>
				<g style="clip-path:url(#SVGID_00000078723585151525624870000004409863291365474479_);">
					<defs>
						
							<rect id="SVGID_00000170251469396391195300000001439555499346864513_" x="-199.139" y="-962.405" width="1628.564" height="2107.554"/>
					</defs>
					<clipPath id="SVGID_00000137111709385491504570000001037943232430965681_">
						<use xlink:href="#SVGID_00000170251469396391195300000001439555499346864513_"  style="overflow:visible;"/>
					</clipPath>
					
						<rect x="20.877" y="70.296" style="clip-path:url(#SVGID_00000137111709385491504570000001037943232430965681_);fill:#676767;" width="111.924" height="26.903"/>
				</g>
			</g>
			
				<rect x="130.565" y="70.376" style="fill:none;stroke:#808081;stroke-width:0;stroke-linecap:round;stroke-linejoin:round;stroke-miterlimit:10;" width="2.235" height="26.823"/>
			
				<rect x="20.877" y="70.376" style="fill:none;stroke:#808081;stroke-width:0;stroke-linecap:round;stroke-linejoin:round;stroke-miterlimit:10;" width="2.235" height="26.823"/>
			<path style="fill-rule:evenodd;clip-rule:evenodd;fill:#E9E9E9;stroke:#808081;stroke-width:0.2926;stroke-miterlimit:10;" d="
				M23.112,68.62h3.672v29.538c0,0.639-0.16,1.437-0.479,2.076l-1.597,3.513c-0.16,0.16-0.16,0.319-0.16,0.479v9.899h-3.672v-9.899
				c0-0.639,0.16-1.277,0.479-2.076l1.597-3.513c0.16-0.16,0.16-0.319,0.16-0.479V68.62 M130.565,68.62h-3.672v29.538
				c0,0.639,0.16,1.437,0.479,2.076l1.597,3.513c0.16,0.16,0.16,0.319,0.16,0.479v9.899h3.672v-9.899
				c0-0.639-0.16-1.277-0.479-2.076l-1.597-3.513c-0.16-0.16-0.16-0.319-0.16-0.479V68.62z M222.851,92.409h2.555V73.888h-2.555
				V92.409z M209.598,137.434h15.807V92.409h-15.807V137.434z"/>
			
				<rect x="209.598" y="92.409" style="fill:none;stroke:#808081;stroke-width:0;stroke-linecap:round;stroke-linejoin:round;stroke-miterlimit:10;" width="15.807" height="45.025"/>
			
				<rect x="222.851" y="73.888" style="fill:none;stroke:#808081;stroke-width:0;stroke-linecap:round;stroke-linejoin:round;stroke-miterlimit:10;" width="2.555" height="18.521"/>
			
				<path style="fill:none;stroke:#808081;stroke-width:0.3657;stroke-linecap:round;stroke-linejoin:round;stroke-miterlimit:10;" d="
				M130.565,68.62h-3.672v29.538c0,0.639,0.16,1.437,0.479,2.076l1.597,3.513c0.16,0.16,0.16,0.319,0.16,0.479v9.899h3.672v-9.899
				c0-0.639-0.16-1.277-0.479-2.076l-1.597-3.513c-0.16-0.16-0.16-0.319-0.16-0.479V68.62z"/>
			
				<path style="fill:none;stroke:#808081;stroke-width:0.3657;stroke-linecap:round;stroke-linejoin:round;stroke-miterlimit:10;" d="
				M23.112,68.62h3.672v29.538c0,0.639-0.16,1.437-0.479,2.076l-1.597,3.513c-0.16,0.16-0.16,0.319-0.16,0.479v9.899h-3.672v-9.899
				c0-0.639,0.16-1.277,0.479-2.076l1.597-3.513c0.16-0.16,0.16-0.319,0.16-0.479V68.62z"/>
			<path style="fill-rule:evenodd;clip-rule:evenodd;fill:#8BBBE4;" d="M200.657,140.947h5.908c1.756,0,3.034-1.277,3.034-2.874
				V91.771c0-1.597-1.277-3.034-3.034-3.034h-5.908c-1.597,0-3.034,1.437-3.034,3.034v46.302
				C197.624,139.67,199.061,140.947,200.657,140.947"/>
			<path style="fill-rule:evenodd;clip-rule:evenodd;fill:#333333;" d="M225.086,53.771c0-4.79-3.832-8.622-8.622-8.622
				s-8.622,3.832-8.622,8.622c0,4.63,3.832,8.462,8.622,8.462S225.086,58.401,225.086,53.771 M29.179,142.544h95.319
				c6.067,0,11.176-5.109,11.176-11.176v-16.126c0-0.639-0.479-1.118-1.118-1.118h-7.185c-0.639,0-1.118,0.479-1.118,1.118v16.126
				c0,0.958-0.798,1.756-1.756,1.756H29.179c-0.958,0-1.756-0.798-1.756-1.756v-16.126c0-0.639-0.479-1.118-1.118-1.118H19.12
				c-0.639,0-1.118,0.479-1.118,1.118v16.126C18.003,137.434,23.112,142.544,29.179,142.544z"/>
			<g>
				<defs>
					<path id="SVGID_00000031889389758223809150000000981673315363684522_" d="M215.346,49.3l-0.479,0.16
						c-1.506,0.522-2.616,1.969-2.874,3.513v1.597h0.16v0.479h0.16v0.479h0.16v0.319h0.16v0.319h0.16l0.319,0.319v0.319h0.16
						l0.16,0.16l0.319,0.16l0.16,0.16l0.319,0.16l0.16,0.16l0.319,0.16l0.479,0.16l0.958,0.16l0.639,0.16v-0.16l0.958-0.16
						c1.477-0.354,2.81-1.871,3.034-3.353l0.16-1.756h-0.16v-0.479h-0.16v-0.479h-0.16v-0.319h-0.16v-0.319l-1.277-1.277
						l-0.958-0.479l-0.479-0.16"/>
				</defs>
				<clipPath id="SVGID_00000162317300824196814920000009088757602660785536_">
					<use xlink:href="#SVGID_00000031889389758223809150000000981673315363684522_"  style="overflow:visible;"/>
				</clipPath>
				<g style="clip-path:url(#SVGID_00000162317300824196814920000009088757602660785536_);">
					<defs>
						<path id="SVGID_00000116200146485863230610000017768374083431871903_" d="M222.851,53.771c0-3.672-2.874-6.386-6.387-6.386
							s-6.387,2.714-6.387,6.386c0,3.513,2.874,6.387,6.387,6.387S222.851,57.283,222.851,53.771"/>
					</defs>
					<clipPath id="SVGID_00000090288987321497650640000006257695551406846093_">
						<use xlink:href="#SVGID_00000116200146485863230610000017768374083431871903_"  style="overflow:visible;"/>
					</clipPath>
					<g style="clip-path:url(#SVGID_00000090288987321497650640000006257695551406846093_);">
						<defs>
							
								<rect id="SVGID_00000107580521392970312900000002298243275408734905_" x="-199.139" y="-962.405" width="1628.564" height="2107.554"/>
						</defs>
						<clipPath id="SVGID_00000142865086097384025090000001943405231188078781_">
							<use xlink:href="#SVGID_00000107580521392970312900000002298243275408734905_"  style="overflow:visible;"/>
						</clipPath>
						<g style="clip-path:url(#SVGID_00000142865086097384025090000001943405231188078781_);">
							<defs>
								
									<rect id="SVGID_00000168819289535070818990000005476989013161173930_" x="211.674" y="48.821" width="9.58" height="9.739"/>
							</defs>
							<clipPath id="SVGID_00000051370507802031822690000014704194206364427948_">
								<use xlink:href="#SVGID_00000168819289535070818990000005476989013161173930_"  style="overflow:visible;"/>
							</clipPath>
						</g>
					</g>
				</g>
			</g>
		</g>
	</g>
	
		<radialGradient id="SVGID_00000137827992924849518390000006049109646521028517_" cx="216.3979" cy="53.7218" r="4.6139" gradientUnits="userSpaceOnUse">
		<stop  offset="0" style="stop-color:#FFFFFF"/>
		<stop  offset="1" style="stop-color:#000000"/>
	</radialGradient>
	<circle style="fill:url(#SVGID_00000137827992924849518390000006049109646521028517_);" cx="216.398" cy="53.722" r="4.614"/>
</g>
<g>
	<g>
		<path style="fill:#221F1F;stroke:#FFFFFF;stroke-width:1.5;stroke-miterlimit:10;" d="M285.532,18.938
			c0,7.593-6.246,13.745-13.95,13.745c-7.707,0-13.953-6.152-13.953-13.745c0-7.596,6.246-13.755,13.953-13.755
			C279.286,5.183,285.532,11.342,285.532,18.938"/>
	</g>
	<g>
		<path style="fill:#FFFFFF;" d="M273.179,25.979h-1.846V14.218c-0.444,0.424-1.027,0.848-1.748,1.271
			c-0.722,0.424-1.369,0.742-1.943,0.954v-1.784c1.032-0.485,1.935-1.073,2.707-1.764s1.319-1.36,1.641-2.01h1.189V25.979z"/>
	</g>
</g>
<g>
	
		<line style="fill:none;stroke:#FFFFFF;stroke-width:2;stroke-linecap:round;stroke-linejoin:round;stroke-miterlimit:10;" x1="222.712" y1="51.601" x2="259.218" y2="29.534"/>
</g>
<g>
	
		<line style="fill:none;stroke:#221F1F;stroke-width:0.5;stroke-linecap:round;stroke-linejoin:round;stroke-miterlimit:10;" x1="222.712" y1="51.601" x2="259.218" y2="29.534"/>
</g>
<g>
</g>
<g>
</g>
<g>
</g>
<g>
</g>
<g>
</g>
<g>
</g>
</svg>
