<?xml version="1.0" encoding="utf-8"?>
<!-- Generator: Adobe Illustrator 26.5.0, SVG Export Plug-In . SVG Version: 6.00 Build 0)  -->
<svg version="1.1" xmlns="http://www.w3.org/2000/svg" xmlns:xlink="http://www.w3.org/1999/xlink" x="0px" y="0px"
	 viewBox="0 0 315.4 246.4" style="enable-background:new 0 0 315.4 246.4;" xml:space="preserve">
<style type="text/css">
	.st0{fill:#DCDDDE;}
	.st1{fill:#FFFFFF;}
	.st2{fill:none;stroke:#000000;stroke-width:0.5;stroke-linecap:round;stroke-linejoin:round;stroke-miterlimit:10;}
	.st3{fill:none;stroke:#000000;stroke-width:0.2946;stroke-linecap:round;stroke-linejoin:round;stroke-miterlimit:10;}
	.st4{fill:none;stroke:#000000;stroke-width:0.4208;stroke-linecap:round;stroke-linejoin:round;stroke-miterlimit:10;}
	.st5{stroke:#FFFFFF;stroke-width:0.5;stroke-linecap:round;stroke-linejoin:round;}
	.st6{fill:#FFFFFF;stroke:#FFFFFF;stroke-width:4;stroke-miterlimit:10;}
	.st7{clip-path:url(#SVGID_00000159457765916949990950000014745596972564722850_);}
	
		.st8{fill:none;stroke:#000000;stroke-width:0.5;stroke-linecap:round;stroke-linejoin:round;stroke-miterlimit:10;stroke-dasharray:1.1305,1.5073;}
	.st9{fill:none;stroke:#000000;stroke-width:0.5;stroke-miterlimit:10;}
	.st10{stroke:#FFFFFF;stroke-width:0.8296;stroke-miterlimit:10;}
	.st11{stroke:#FFFFFF;stroke-linecap:round;stroke-linejoin:round;stroke-miterlimit:10;}
	.st12{stroke:#FFFFFF;stroke-width:3;stroke-linecap:round;stroke-linejoin:round;stroke-miterlimit:10;}
	.st13{fill:#FFFFFF;stroke:#000000;stroke-width:0.75;stroke-linecap:round;stroke-linejoin:round;stroke-miterlimit:10;}
</style>
<g id="Gray_Under">
	<path class="st0" d="M168.4,157l-15-10.7l-3,0.2l-0.2,1.3l-30.8,6l-0.2,5.1l-11.8,3.4l-3,0.2l-2.8-1.4l-0.1,3.4l-1.1,0.1l-4.5-3.4
		l-0.2-2.5l-0.7-0.5l-2.4,0.2l-0.8-0.7L90,158l2.7,1.7l1.6,0l0.3,3.7l-8,1.2l-5.6-2.8l-56.6,11.4l-1.3,23.6l4.6,22l-0.4,2.4l0.5,3.1
		l40.6-9.1c0,0,2.7-0.1,3.4,1.4l1.4,0.6l13-2.2l-0.2-3l-0.5-2.1l-2,0.6l-2.3-2.1l72.4-18.5L122.7,232c0,0-1.6,2.1,1.6,3.6l1.5,0.8
		l2.9,3.1l5.7,0.5l4.7,1.4l0.9-1.2l10.7,0.5c0,0,0.4-0.4,0.4-1.2s-0.1-4-0.1-4l7.2-15.2l-0.2-3c0,0,0.1-1.2-1.9-1.6
		c-1.9-0.3-5.8-1.4-5.8-1.4l14.9-22.4l1.3-0.1l0.2-3l16.4,14.4c0,0,1.7,0.8,2.3,0.2c0.6-0.5,0.2-2-0.2-2.8c-0.4-0.8-1.2-2-1.2-2
		l-14.3-12c0,0,3.2,0.2,4.9-4.1c0,0-0.4-2.8-1.5-3.7v-8.9C173.2,169.9,167.9,164.7,168.4,157z"/>
	<path class="st1" d="M136.3,232.5l3.4-4.2c0,0,5.3-2.7,10.7,0.1l0.1,0.8l-2.2,2.9l-5.9,0.1l-5.7,0.8L136.3,232.5z"/>
	<path class="st1" d="M70.7,210.1l2.9,2.6c0,0,1.1,0.4,2.3,0s5.5-1.3,5.5-1.3s0-0.3-0.9-1.1s-2.9-2.3-2.9-2.3l-6.8,1.7L70.7,210.1z"
		/>
	<path class="st1" d="M26.2,212.3c0,0,20.6-3.9,22.3-22.7c0,0-6.2-14.9-24.4-12.2l-0.3-5.1L35,171c0,0,11.6,3.2,15.2,13l1.6,8.7
		c0,0,0.9,20-24.7,26.5L26.2,212.3z"/>
</g>
<g id="BaseUnit">
	<g>
		<g>
			<path class="st2" d="M147.2,84.6c0,0,102.3,23.3,103.9,23.6s1,0.9,1,0.9S11.8,145.8,8.4,146.2c-3.4,0.5-2.9-1.8-2.9-1.8l8.9-50.1
				L147.2,84.6z"/>
			<line class="st2" x1="5.4" y1="145.2" x2="11" y2="172.9"/>
			<line class="st2" x1="11" y1="146.2" x2="13.7" y2="159.6"/>
			<line class="st2" x1="13.3" y1="172" x2="14.2" y2="152.5"/>
			<line class="st2" x1="12.5" y1="188.6" x2="12.9" y2="178.8"/>
			<line class="st2" x1="14.7" y1="171.7" x2="15.9" y2="152.2"/>
			<path class="st2" d="M12.9,152.1l0.6-5.4c0,0,1-0.8,3.1-0.5c0,0,0.7,0.1,0.8,0.7l0.4,2.5l0,4.7l-0.5-2.3c0,0-0.3-0.8-1.3-0.5
				l-2,0.1c0,0-1.3,0.4-1.1,1.4l0.8,3.7"/>
			<path class="st2" d="M17.3,218.3c0.4,3,3.6,2.5,3.6,2.5c14.1-2.9,22.2-9.5,22.2-9.5s10.6-9.8,8.2-20.5c-0.5-2.1-1.4-4.2-3.1-6.3
				c-10-12.8-26.7-9.5-26.7-9.5s-6.7,1.8-9.7,2.7c-3,0.9-3.5,2.4-3.5,2.4l0.5-5.2c0,0,0.8-1.2,3.1-1.9s8.1-2.3,8.1-2.3
				s10.9-2.5,20,2.5c0,0,8,4.5,10.2,11l1.2,6.4"/>
			<path class="st2" d="M18.8,218.2c0,0,0,1.7,1.8,1.4c1.7-0.2,18.3-4,24.1-12.2c0,0,8.8-9.8,4.6-19.2c0,0-3.8-10.1-18.3-12.5
				c0,0-3.8-1-9.7,0.3l-9.6,2.8c0,0-2.4,0.4-1.8,3.1c0.6,2.7,1.7,7,1.7,7"/>
			<line class="st2" x1="11.1" y1="191.3" x2="8.4" y2="179.9"/>
			<path class="st2" d="M11.1,179.3"/>
			<path class="st2" d="M15,189.6c0,0-3.1-3.1-3.6,2.3c0,0-0.8,6.2,5.1,24.2c0,0,0.9,3.2,3.4,1.2l0.9-4.9"/>
			<path class="st2" d="M13.7,188.4c0,0-1-11.9,13.1-12.8"/>
			<path class="st2" d="M15.1,189.4c0,0-1.3-13.2,14.2-12.5c0,0,18,0.4,20.7,18.1"/>
			<path class="st2" d="M22,201l0.9-0.3l-0.9-3.4c0,0-0.2-1.7-2.8-0.8c0,0-2.1,0.5-1.5,2.8c0.6,2.4,3.5,13.7,3.5,13.7l1.2-0.3
				l-3.4-13.8c0,0,0-1.3,2-1.4L22,201z"/>
			<path class="st2" d="M17.3,197l0.2-7.7c0,0,1.5-2.3,3.8-0.6l0.2,7.4"/>
			<path class="st2" d="M20.9,213.7c0,0,14.4-2.2,22.1-10.5c0,0,5.3-5.7,5.6-13.3"/>
			<path class="st2" d="M34.7,170.6l46.3-8.9l4,2.1c0,0,0.9,0.9,2.7,0.6c1.8-0.3,7.1-1.1,7.1-1.1l-0.4-3.4"/>
			<path class="st2" d="M32.3,170.1l45.9-9.1l2-2.4l0.9-0.1l3.6,2.3c0,0,1,0.8,2.7,0.5s6.1-0.9,6.1-0.9s0.9,0,0.7-0.7l-1.5,0.1
				l-4.4-2.7c0,0-0.1-0.9,1.2-1l-9.7,1.7l-2.2,2.3l-50,9.8"/>
			<path class="st2" d="M84,157.7l1.4-0.2c0,0,0.8-0.2,1.5,0.2c0.8,0.4,2.8,1.6,2.8,1.6s0.7,0.4,0.2,0.6c-0.5,0.2-2.6,0.5-2.6,0.5
				s-0.4,0.1-1.1-0.3c-0.7-0.4-3-1.8-3-1.8S82.9,157.9,84,157.7z"/>
			<path class="st2" d="M160.1,129.2l0-1c-1.8-0.3-1.7,1-1.7,1v1.7l-0.6,0.1c0,0-4.3-2.1-4.9-2.4c-0.6-0.3-0.7-1.5-0.7-1.5
				c-0.1-1.1,0.2-1.5,0.2-1.5c0.8-0.8,1.8-0.4,1.8-0.4l5.8,2.8"/>
			<path class="st2" d="M154.5,130.4l10.2,5.4c0,0,0.1-1,1.1-0.8"/>
			<polygon class="st2" points="154.4,131.1 153.2,132.8 153.3,136.1 154.8,137.6 154.8,138.7 154.3,138.6 154.2,138 153.3,137.4 
				151.9,135.8 151.9,132.4 153.2,130.5 			"/>
			<line class="st2" x1="184.1" y1="144.7" x2="186" y2="145.7"/>
			<line class="st2" x1="158.4" y1="130.8" x2="177.9" y2="141.4"/>
			<line class="st2" x1="159" y1="128.7" x2="180.9" y2="140"/>
			<path class="st2" d="M175.4,156.3l9.3,6c0,0,1.7,1.3,2.6,0"/>
			<path class="st2" d="M160.1,146.4c-1.5,0.5-2-0.2-2-0.2s-4.7-3.1-5.2-3.4c-0.5-0.3-0.5-0.7-0.5-0.7s0-0.8,0-1.3
				c0-0.5,0.9-0.5,0.9-0.5l4.8,3.2c0,0,0.4,0.4,0.4,0.9c0,0.5,0,1.2,0,1.2s0.2,0.3,0.8,0.3l10.1,6.5"/>
			<path class="st2" d="M176.2,154.9l8.8,5.5c0,0,0.9,0.8,1-2.1"/>
			<line class="st2" x1="158.5" y1="143.7" x2="170.2" y2="151.1"/>
			<path class="st2" d="M195.6,148.3c0,0,0.3-5.4,0.3-6.3c0-0.9-0.9-1.5-0.9-1.5l-5.5-2.6c0,0-10,1.6-13.4,5.6
				c-3.5,4-8.3,9.8-7.4,17.5c0,0,0.7,7,8.3,12.3c0,0,6.4,3.8,11.2,2l5-2c0,0,1.5-0.4,1.3-4.8"/>
			<path class="st2" d="M194.5,148.5l0.4-6.4c0,0,0-1.2-1.6-0.8c0,0-12,0.8-17,12.3c0,0-4,7.4,0.3,16.1c0,0,2.8,4.6,9.5,4
				c0,0,5.4-0.8,6.2-8.8l0.1-2l0.5-0.3l0-1c0,0,1.9-5.4,0.9-12.4L194.5,148.5z"/>
			<path class="st2" d="M177.4,142.8c0,0,2.3-2,4.3-1.5c0,0,1.8,0.9,0.1,2.3c0,0-4.6,4.1-6.1,7.8c-1.6,3.8-3.8,8.1-1.1,17.3
				c0,0,2,5,8.1,6c0,0,8.9,2,10.1-8.4"/>
			<path class="st2" d="M187.3,159.3c0,0,0.9,5.3-1.9,8.5c0,0-3.1,4.5-8.4,2.1"/>
			<line class="st2" x1="156" y1="145.9" x2="156" y2="148.3"/>
			<line class="st2" x1="160.6" y1="146.8" x2="160.6" y2="151.6"/>
			<line class="st2" x1="160.5" y1="123.4" x2="160.5" y2="129.6"/>
			<path class="st2" d="M186.9,143.2c0,0,1.6,0.9,2,2.9c0.4,2,2.5,2.6,2.5,2.6s0,2-2,0.5c0,0-1.6-1.3-1.9-4.1c0,0-1.5-1-1.7,1.4
				c-0.2,2.4-0.5,6.8-0.5,6.8l-1.2,2.9c0,0-0.1,1.1,0.9,1.5s6.1,3.6,6.1,3.6"/>
			<path class="st2" d="M185.7,152.6c0,0,0.6-0.8,1.8-0.6l4.4,2.3l0.2,1.2c0,0-0.8-0.1-1.1,0.3c-0.1,0.1-0.1,0.2-0.1,0.4l0.7,3.8
				c0,0,0.8,0.5,0.9-0.4c0-0.9,0.1-2.5,0.1-2.5s0.2-0.8-1.1-0.9"/>
			<path class="st2" d="M192.5,164.6l1.3,3c1.4,2.8,4.3,2.4,4.3,2.4c2.4-0.2,2.8-3.9,2.8-3.9l0.5-10.7c-0.5-5.5-4.5-6.7-4.5-6.7
				c-2.4-0.3-2.5,0.9-2.5,0.9s4.1,0.6,5.2,4.7c0,0,0.3,1.2,0.3,2.6c0,1.2-0.5,9.4-0.5,9.4s-1.2,2.4-3.6,1.1c0,0-1.1-0.7-1.8-2.4
				s-1.1-2.2-1.1-2.2"/>
			<path class="st2" d="M194.4,155l1.3,0.8c0,0,0.6,0.8-0.2,0.9l-1.2,0.1"/>
			<path class="st2" d="M193.6,160.4l1.6,0.1c0,0,1.3,0.8,0.1,1.1l-1.1-0.9"/>
			<path class="st2" d="M14,189.5c0,0-0.9,0.2-0.3,6s1.4,8.4,1.4,8.4l3.2,11.8c0,0,0.9,1,1.5,0"/>
			<polyline class="st2" points="17.3,198.3 15.7,199.3 16.9,204 18.3,203.3 			"/>
			<line class="st2" x1="19.3" y1="187.7" x2="19.4" y2="179.3"/>
			<path class="st2" d="M138.8,154.5"/>
			<path class="st2" d="M154.1,161.7"/>
			<path class="st2" d="M100.1,153.3l-1.6-17.1c-0.3-2.1-2.4-1.6-2.4-1.6l-74.8,11.7c0,0-1.4,0.2-0.9,2.4c0.5,2.1,4.2,18.9,4.2,18.9
				s0.5,1.2,2.7,0.7c2.2-0.5,50.7-9.8,50.7-9.8"/>
			<path class="st2" d="M28,146.7l13.3-2.2c0,0,1.1-0.1,1.3,1.1c0.2,1.1,1.2,6.6,1.2,6.6s0.2,1.2-0.9,1.3
				c-1.1,0.2-13.3,2.3-13.3,2.3s-1,0-1.2-1.1s-1.3-7.1-1.3-7.1S26.8,147,28,146.7z"/>
			<path class="st2" d="M29.8,158.5l42.5-7.6c0,0,1.1-0.1,1.3,1.1c0.2,1.1,0.5,4.7,0.5,4.7s0.2,1.2-0.9,1.3c-1.1,0.2-42,8.2-42,8.2
				s-1,0-1.2-1.1s-1.1-5.7-1.1-5.7S28.6,158.7,29.8,158.5z"/>
			<path class="st2" d="M46.3,143.8l12.1-2.1c0,0,1,0,1.1,1s1.1,6.4,1.1,6.4s0.1,1.1-0.8,1.3c-1,0.1-12.1,2.2-12.1,2.2
				s-0.9,0-1.1-1.1s-1.2-6.9-1.2-6.9S45.2,144.1,46.3,143.8z"/>
			<line class="st2" x1="40.6" y1="156.5" x2="42" y2="163.6"/>
			<line class="st2" x1="51.6" y1="154.6" x2="53" y2="161.7"/>
			<line class="st2" x1="62.6" y1="152.6" x2="64" y2="159.7"/>
			<path class="st2" d="M151.8,125.8l-51,7.8c0,0-1.6,0.4-1.3,2.5l0.6,8.4l1,0.9l0.4,5.8c0,0-0.1,1.8,1.6,1.8"/>
			<g>
				<path class="st2" d="M105.1,138.8l5.9-0.9c0,0,0.6-0.2,0.7,0.4c0.1,0.6,0.5,5.3,0.5,5.3s0.2,0.8-0.6,0.9c-0.8,0.2-5.6,1-5.6,1
					s-0.7,0-0.8-0.6c0-0.7-0.5-5.4-0.5-5.4S104.6,139,105.1,138.8z"/>
				<path class="st2" d="M111.6,138l-1.2-1.1c-0.2,0-0.3,0-0.3,0l-5.9,0.9c-0.5,0.1-0.4,0.7-0.4,0.7s0.4,4.8,0.5,5.4
					c0,0.2,0.1,0.3,0.2,0.4l0.9,1.1"/>
			</g>
			<g>
				<path class="st2" d="M114.6,137.3l12.3-2.2c0,0,0.6-0.2,0.7,0.4c0.1,0.6,0.5,5.3,0.5,5.3s0.2,0.8-0.6,0.9
					c-0.8,0.2-12,2.2-12,2.2s-0.7,0-0.8-0.6c0-0.7-0.5-5.4-0.5-5.4S114.1,137.4,114.6,137.3z"/>
				<path class="st2" d="M129.6,133.4l15.9-2.8c0,0,0.6-0.2,0.7,0.4c0.1,0.6,0.2,4.9,0.2,4.9s0.2,0.8-0.6,0.9s-15.4,2.8-15.4,2.8
					s-0.7,0-0.8-0.6c0-0.7-0.4-5-0.4-5S129.1,133.6,129.6,133.4z"/>
				<path class="st2" d="M127.5,135.2l-1.2-1.1c-0.2,0-0.3,0-0.3,0l-12.3,2.2c-0.5,0.1-0.4,0.7-0.4,0.7s0.4,4.8,0.5,5.4
					c0,0.2,0.1,0.3,0.2,0.4l0.9,1.1"/>
			</g>
			<path class="st2" d="M117.6,136.9"/>
			<path class="st2" d="M114.5,140.1"/>
			<line class="st2" x1="121.4" y1="142.7" x2="121" y2="136.3"/>
			<path class="st2" d="M66.3,143.2l8.6-1.5c0,0,0.6,0,0.8,0.7s0.6,4.3,0.6,4.3s0.2,0.6-0.6,0.8c-0.8,0.2-8.4,1.5-8.4,1.5
				s-1,0.1-1-0.6c-0.1-0.7-0.7-4.5-0.7-4.5S65.5,143.3,66.3,143.2z"/>
			<path class="st2" d="M81.8,141l10.8-1.8c0,0,0.6,0,0.8,0.7s0.6,4.3,0.6,4.3s0.2,0.6-0.6,0.8c-0.8,0.2-10.6,1.9-10.6,1.9
				s-1,0.1-1-0.6c-0.1-0.7-0.7-4.5-0.7-4.5S81,141,81.8,141z"/>
			<polyline class="st2" points="36.6,145.5 36.8,146.7 37.6,146.6 37.9,147.7 40.1,147.4 41,152 31.1,153.7 30.2,149 32.3,148.7 
				32.1,147.5 33.1,147.4 32.8,146.2 			"/>
			<polyline class="st2" points="54.3,142.8 54.6,144 55.4,143.9 55.6,145.1 57.9,144.7 58.7,149.3 48.8,151 47.9,146.4 50,146 
				49.8,144.8 50.8,144.7 50.6,143.5 			"/>
			<path class="st2" d="M68.2,144.5l4.9-0.8c0,0,1,0,1.1,1.1s-0.8,1.1-0.8,1.1l-4.8,0.9c0,0-0.9,0.2-1.1-0.8
				C67.1,144.9,68.2,144.5,68.2,144.5z"/>
			<path class="st2" d="M83.5,141.9c0,0-0.9,0.2-0.8,0.9c0.1,0.7,0.3,2,0.3,2s0,0.6,0.8,0.6c0.7-0.1,7.6-1.4,7.6-1.4
				s0.7-0.2,0.7-0.9c0-0.7-0.2-1.8-0.2-1.8s0-0.7-1-0.6C90,140.7,83.5,141.9,83.5,141.9z"/>
			<line class="st2" x1="138.4" y1="131.9" x2="138.4" y2="138.2"/>
			<line class="st2" x1="153" y1="137.3" x2="153" y2="140.1"/>
			<line class="st2" x1="153" y1="128.7" x2="153" y2="130.4"/>
			<line class="st2" x1="155.9" y1="123.9" x2="155.9" y2="125.5"/>
			<line class="st2" x1="174.7" y1="161.2" x2="180.4" y2="159.9"/>
			<line class="st2" x1="175" y1="165" x2="185.7" y2="163"/>
			<line class="st2" x1="174.7" y1="162.8" x2="182.8" y2="161.4"/>
			<path class="st2" d="M161.9,129.9v-5.4c0,0,0.6-1.4,2.5-0.8l5.6,2.5c0,0,0.8,0.4,0.7,1.4"/>
			<path class="st2" d="M168.5,133.3v-6c0,0-0.3-1,1.7-0.8"/>
			<path class="st2" d="M169.1,127l28.7,14c0,0,1.3,0.5,1.2,1.2"/>
			<path class="st2" d="M195.7,141l1.7,0.8c0,0,1.3,0.5,1.2,1.2"/>
			<line class="st2" x1="168.6" y1="127.8" x2="188.9" y2="137.7"/>
			<path class="st2" d="M198.6,149.5l0.4-10c0,0,0.2-2.7,2.1-3.4c1.9-0.7,5.4-1.5,5.4-1.5s9.4-0.2,14.9,7.5c0,0,2.6,4.2,1.5,10.5
				c-0.4,2-1.1,4.2-2.4,6.5c0,0-4.6,9.7-15.9,11.5c0,0-0.8,0.2-1.7-0.4l-2.5-1.5"/>
			<path class="st2" d="M217.8,139.9c-2.4-1.9-6-2.2-6-2.2s-4.4,1.2-5.5,1.6s-1.1,2.1-1.1,2.1s-1.8,26.1-1.8,27.3c0,1.2,1,1.2,1,1.2
				c1.3-0.3,5.7-2.1,5.7-2.1c10-4.7,11.9-16.6,11.9-16.6c0.4-8-3-10.4-5.3-12.4c-2.4-2-5-2-5-2s-4.3,1.2-5.9,1.8s-1.6,3.7-1.6,3.7
				l-1.8,27.3"/>
			<path class="st2" d="M205.5,146.7c0,0,0.2-6.9,5.9-8.9"/>
			<path class="st2" d="M206.3,146.4c0,0,1-8.1,7.6-8.2"/>
			<path class="st2" d="M204.9,147.7c0,0,1.4-1.9,2.9-1.6c0,0,4.9,0.7,5.2,5.8l-0.5,11.7c0,0-1,4.6-5,2.8c0,0-2.1-0.1-3.6-5"/>
			<path class="st2" d="M204.7,151.9l2.3,1.3l-0.7,1l-0.1,3.1c0,0,1.1,0.9,0.5,1.4l-0.5,0.1l-1.8-1.1"/>
			<path class="st2" d="M213,158.4c0,0,7.5-13.4-0.2-19.9"/>
			<line class="st2" x1="203.9" y1="165.5" x2="205.4" y2="164.9"/>
			<line class="st2" x1="239.4" y1="146.3" x2="243.2" y2="145.4"/>
			<line class="st2" x1="223.1" y1="150.1" x2="231.9" y2="148"/>
			<line class="st2" x1="213.4" y1="152.4" x2="215.3" y2="151.9"/>
			<line class="st2" x1="242.8" y1="146.3" x2="223.2" y2="152.5"/>
			<line class="st2" x1="243.6" y1="148" x2="224.4" y2="154.1"/>
			<polyline class="st2" points="223.1,153.2 224.7,154.8 224.5,156.8 221.3,158 			"/>
			<line class="st2" x1="222.2" y1="155.7" x2="224.7" y2="154.8"/>
			<path class="st2" d="M165.2,123.6l47.1-6.9c0,0,1.1-0.3,1.1,1.3l-0.5,12.8c0,0-0.1,1.5-1.9,2l-20.5,4.1"/>
			<path class="st2" d="M169.7,125.9v-1.2c0,0,0-0.4,0.8-0.5s7.1-1.1,7.1-1.1s1.1-0.3,1,0.6v5.4c0,0,0.1,0.7-0.5,0.8
				s-1.8,0.3-1.8,0.3"/>
			<path class="st2" d="M180.7,128.6v-5.7c0,0,0-0.4,0.8-0.5s7.1-1,7.1-1s1.1-0.3,1,0.6l-0.1,5.3c0,0,0.1,0.7-0.5,0.8
				c-0.6,0.2-7.1,1.2-7.1,1.2S180.8,129.8,180.7,128.6z"/>
			<path class="st2" d="M192.8,126.6v-3.9c0,0,0-0.3,0.6-0.4c0.5-0.1,4.8-0.7,4.8-0.7s0.7-0.2,0.7,0.4l-0.1,3.6c0,0,0.1,0.5-0.4,0.6
				c-0.4,0.1-4.8,0.8-4.8,0.8S192.9,127.3,192.8,126.6z"/>
			<path class="st2" d="M202.2,125.5v-3.9c0,0,0-0.3,0.6-0.4c0.5-0.1,6.5-1,6.5-1s0.7-0.2,0.7,0.4l-0.1,3.6c0,0,0.1,0.5-0.4,0.6
				c-0.4,0.1-6.5,1.1-6.5,1.1S202.3,126.3,202.2,125.5z"/>
			<path class="st2" d="M179.7,131.9c0.8-0.1,16.3-2.8,16.3-2.8s1.1-0.3,1,0.6l-0.1,4.3c0,0,0.1,0.7-0.5,0.8c-0.3,0.1-4.5,0.8-8,1.5
				"/>
			<line class="st2" x1="190.6" y1="130.2" x2="190.6" y2="135.7"/>
			<line class="st2" x1="184.2" y1="131.3" x2="184.2" y2="134.3"/>
			<line class="st2" x1="164" y1="149.1" x2="164" y2="153.9"/>
			<g>
				<path class="st2" d="M100.7,154.4l-1.4,0.3c0,0-1.5,0.3-0.4,0.6c1,0.3,2.3,0.5,2.3,0.5s2.2,0.7,2.7,1.3c0.5,0.6,1.7,0.5,2.2,0.3
					s3.4-0.7,3.4-0.7l6.5-0.4c0,0,1.5,0.2,1.4-0.8c-0.1-1-0.7-3.3-0.7-3.3s-0.2-0.7-1.4-0.5C114.2,151.8,100.7,154.4,100.7,154.4z"
					/>
				<path class="st2" d="M101.8,155.9c0,0-0.1-0.9,2-1.6l0.1,2.4l5.6-1c0,0,2.5-0.3,4.2,0.4"/>
				<path class="st2" d="M113.9,156.2c1.6-0.5,0.7-1.5,0.7-1.5c-1-1.3-5.4-1.4-5.4-1.4l0.3,2.2"/>
				<polyline class="st2" points="95.1,156.4 97.5,157 98.8,158.3 101.4,160.1 101.5,164.5 100.4,164.7 				"/>
				<path class="st2" d="M101.6,161.2l1.9,1.1c0,0,1.6,0.6,3.4,0.2c1.8-0.4,11.6-2.9,11.6-2.9s0.9-0.4,1-1.1c0-0.7-0.1-2.6-0.1-2.6"
					/>
				<path class="st2" d="M150.2,145.3l-1.4-1.1l-57.3,11.1l0.3,2.6l0.8,0.7l2.3-0.3l0.6,0.5l0.1,2.4l4.5,3.4l-0.1-4.4l-3.5-2.2
					c0,0-0.5-1.2-3.5-1.3c0,0-0.8-0.6,0.5-0.7c1.3-0.1,2.7-0.3,2.7-0.3l4,0.9l2.6,1.3c0,0,1.6,0.7,3.7,0.2c2.1-0.5,3.3-0.8,3.3-0.8
					l6.6-0.3l1.8-0.3c0,0,1-0.1,0.9-1.3c-0.1-1.1-0.6-3.2-0.6-3.2s-0.4-0.4,0.8-0.7S150.2,145.3,150.2,145.3l0,2.5l-30.8,6.1"/>
				<line class="st2" x1="150.2" y1="145.2" x2="154.6" y2="144.4"/>
				<line class="st2" x1="150.6" y1="146.6" x2="156.5" y2="145.4"/>
				<line class="st2" x1="106.2" y1="158.4" x2="106.8" y2="162.5"/>
			</g>
			<polygon points="107.8,159.3 108.1,160.9 109.4,159.8 			"/>
			<line class="st2" x1="18" y1="145.1" x2="23.4" y2="169.6"/>
			<line class="st2" x1="18.2" y1="170.8" x2="15.5" y2="160.7"/>
			<polyline class="st2" points="17.7,154.2 16.6,154.3 18.3,155.7 20.1,165 20.1,170.5 			"/>
			<path class="st2" d="M17.8,154.1c0,0,1.6,1,1.8,1.9c0.2,0.8,1.8,8.6,1.8,8.6l-0.1,5.4"/>
			<polyline class="st2" points="18.9,170.5 19.1,165.1 17.4,156.7 15.8,153.9 			"/>
		</g>
	</g>
	<line class="st2" x1="90" y1="158" x2="91.8" y2="157.7"/>
</g>
<g id="Layer_5">
	<path class="st2" d="M248.6,111.1l-32.2,4.9c0,0-1.4,0.3-1.4,1.5s-0.6,12.8-0.6,12.8s-0.1,1.3,1.7,1l31.4-5.8"/>
	<g>
		<g>
			<path class="st3" d="M219.9,132.9l-0.8,0.2c0,0-0.9,0.2-0.3,0.3c0.6,0.2,1.4,0.3,1.4,0.3s1.3,0.4,1.6,0.8c0.3,0.3,1,0.3,1.3,0.2
				c0.3-0.1,2-0.4,2-0.4l3.8-0.2c0,0,0.9,0.1,0.8-0.5c-0.1-0.6-0.4-2-0.4-2s-0.1-0.4-0.8-0.3C227.8,131.4,219.9,132.9,219.9,132.9z"
				/>
			<path class="st3" d="M220.5,133.8c0,0,0-0.5,1.2-0.9l0.1,1.4l3.3-0.6c0,0,1.5-0.2,2.5,0.2"/>
			<path class="st3" d="M227.7,134c0.9-0.3,0.4-0.9,0.4-0.9c-0.6-0.8-3.2-0.8-3.2-0.8l0.2,1.3"/>
			<polyline class="st3" points="216.6,134.1 218,134.5 218.8,135.2 220.3,136.3 220.4,138.9 219.7,139 			"/>
			<path class="st3" d="M220.4,136.9l1.1,0.6c0,0,0.9,0.3,2,0.1c1-0.2,6.8-1.7,6.8-1.7s0.6-0.2,0.6-0.6c0-0.4,0-1.5,0-1.5"/>
			<path class="st3" d="M249.1,127.6l-0.8-0.7l-33.8,6.6l0.2,1.5l0.5,0.4l1.4-0.2l0.4,0.3l0.1,1.4l2.7,2l-0.1-2.6l-2.1-1.3
				c0,0-0.3-0.7-2.1-0.8c0,0-0.5-0.4,0.3-0.4c0.8-0.1,1.6-0.2,1.6-0.2l2.3,0.5l1.5,0.8c0,0,0.9,0.4,2.2,0.1c1.3-0.3,1.9-0.5,1.9-0.5
				l3.9-0.2l1.1-0.2c0,0,0.6-0.1,0.6-0.8c-0.1-0.7-0.4-1.9-0.4-1.9s-0.3-0.3,0.5-0.4C231.7,131,249.1,127.6,249.1,127.6l0,1.5
				l-18.1,3.6"/>
			<polyline class="st3" points="249.3,128.3 250.5,128.1 250.5,127.3 249.1,127.5 			"/>
			<line class="st3" x1="223.2" y1="135.3" x2="223.5" y2="137.7"/>
		</g>
		<polygon points="224.1,135.8 224.3,136.7 225,136.1 		"/>
	</g>
	<path class="st2" d="M213.5,131.7c0,0,2.3,1.2,4,0.9"/>
	<line class="st3" x1="251.5" y1="126.5" x2="251.3" y2="128.7"/>
	<path class="st2" d="M234.4,135.9l-1.2,11.9c0,0,0,0.6,0.7,0.5s4.4-1.2,4.4-1.2s0.8-0.3,0.9-1.1c0.1-0.8,1.1-11.3,1.1-11.3
		s0.1-0.7-0.5-0.6c-0.6,0.1-4.9,1-4.9,1S234.3,135.3,234.4,135.9z"/>
	<path class="st2" d="M240.2,134.1l-1.9-0.9c0,0-0.7-0.4-1.3-0.3c-0.6,0.1-4.9,1-4.9,1s-0.7,0.1-0.7,0.8l-1.2,11.9
		c0,0-0.2,0.5,0.7,0.8l2.5,0.9"/>
	<polyline class="st2" points="240.4,134.1 240.6,132.6 248.9,130.9 247.9,130.4 239.5,132.1 239.3,133.5 	"/>
	<line class="st2" x1="248.9" y1="130.9" x2="248.4" y2="136.8"/>
	<path class="st2" d="M249.3,130.7c0,0,0.1-0.6,0.6-1.1c0.1-0.2,0.3-0.3,0.6-0.4c0.9-0.3,1.4-0.4,1.4-0.4s2.1,0.2,2.9,1.4
		c0.8,1.2,5.2,9.1,5.2,9.1s1.2,1.8,1,3.4s-0.3,2.3-0.3,2.3l-1.8,0.4c0,0-0.4,0.3-1.4-0.1s-2.4-1-2.4-1"/>
	<path class="st2" d="M250.1,129.5c1.4,0.1,2.2,1.2,2.2,1.2l6.2,10.4c0,0,0.4,1,0.4,1.9c0,1-0.2,2.3-0.2,2.3"/>
	<path class="st2" d="M251.2,148.5l5.1,2c0,0,2.1,0.6,3-0.9"/>
	<path class="st2" d="M247.6,145l25.4,9.9l2.2,0.2c0,0,1.6-0.9,0.7-1.8c-1-0.9-1.8-1.3-1.8-1.3l-25-9.2"/>
	<polyline class="st2" points="249.1,146.1 247,146.6 247.4,142.8 249.6,142.4 245.8,140.9 243.5,141.3 243,145.1 246.9,146.7 	"/>
	<line class="st2" x1="243.5" y1="141.3" x2="247.3" y2="142.8"/>
	<path class="st2" d="M251.2,143.5l0.5-3.8c0,0,0-0.6-0.7-0.8s-5.2-1.8-5.2-1.8s-0.6,0-0.6,0.5l-0.5,3.4"/>
	<path class="st2" d="M244.1,145.6l-0.2,1.2c0,0-0.2,0.5,0.6,0.7c0.8,0.3,4.6,1.9,4.6,1.9s1.2,0.5,1.4-0.2l0.4-2.9"/>
	<path class="st2" d="M247.3,137.6c0,0,0.8-0.7,2-0.7l5,1.9"/>
	<path class="st2" d="M251.7,139.5c0,0,1.2-1.3,2.9-0.5c0,0,1.1,0.8,1,2.3c0,0,0.2,2.2-1,3.1"/>
	<path class="st2" d="M246.8,137.3l0.4-3.6c0,0,0.2-1-0.8-0.8c-1.1,0.2-3.1,0.7-3.1,0.7l-1.6,2.9l-0.3,5.4l0.8,2.3l1-0.2"/>
	<g>
		<path class="st2" d="M222.1,119.8c0,0,0.8-0.2,0.8,0.3s-0.2,4.5-0.2,4.5s0.1,0.6-0.3,0.6c-0.4,0-3.7,0.6-3.7,0.6s-0.5,0.1-0.5-0.5
			c0-0.7,0.3-4.3,0.3-4.3s0.1-0.7,0.6-0.7C219.8,120.2,222.1,119.8,222.1,119.8z"/>
		<path class="st2" d="M222.7,119.8l-1.4-0.6c-0.2-0.1-0.6,0-0.6,0s-2.3,0.3-2.9,0.4c-0.5,0.1-0.6,0.7-0.6,0.7s-0.3,3.7-0.3,4.3
			c0,0.2,0.1,0.4,0.1,0.5l1.4,0.7"/>
	</g>
	<g>
		<path class="st4" d="M244.7,115.6c0,0,0.7-0.2,0.7,0.3s-0.2,3.8-0.2,3.8s0.1,0.5-0.3,0.5s-10,1.6-10,1.6s-0.4,0.1-0.4-0.4
			s0.3-3.7,0.3-3.7s0.1-0.5,0.5-0.6S244.7,115.6,244.7,115.6z"/>
		<path class="st4" d="M245.2,115.5L244,115c-0.2-0.1-7.3,1.1-7.3,1.1s-2,0.3-2.4,0.3s-0.5,0.6-0.5,0.6s-0.3,3.1-0.3,3.7
			c0,0.2,0,0.3,0.1,0.4l1.2,0.6"/>
	</g>
	<g>
		<path class="st2" d="M232.2,118c0,0,0.8-0.2,0.8,0.3c0,0.6-0.2,4.5-0.2,4.5s0.1,0.6-0.3,0.6c-0.4,0-7.8,1.4-7.8,1.4
			s-0.5,0.1-0.5-0.5c0-0.7,0.3-4.3,0.3-4.3s0.1-0.7,0.6-0.7C225.8,119.2,232.2,118,232.2,118z"/>
		<path class="st2" d="M232.9,117.9l-1.4-0.6c-0.2-0.1-0.6,0-0.6,0s-6.4,1.2-7,1.3c-0.5,0.1-0.6,0.7-0.6,0.7s-0.3,3.7-0.3,4.3
			c0,0.2,0.1,0.4,0.1,0.5l1.4,0.7"/>
	</g>
	<line class="st2" x1="229.1" y1="118.8" x2="228.7" y2="124"/>
	<line class="st4" x1="240" y1="116.3" x2="239.7" y2="120.8"/>
	<path class="st4" d="M250,110.4l8.3,1.8c0,0,0.4,0.1,0.4,0.7c0,0-0.9-0.2-1,0.2l-0.3,1.1c0,0-0.3,0.8-1.3,0.5
		c-0.9-0.3-6.8-1.7-6.8-1.7l-0.5-0.6l0.2-1.5C249,110.9,249.3,110.5,250,110.4z"/>
	<line class="st4" x1="258.8" y1="113" x2="290.2" y2="120.7"/>
	<line class="st4" x1="257.3" y1="114.8" x2="288.3" y2="122.5"/>
	<path class="st4" d="M249.3,113.1l-0.1,1.5c0,0-1.2,1.3-1.3,2.2l-0.2,2.4l0.6,1.4l-0.1,2.1"/>
	<path class="st4" d="M271.9,118.5c0,0,1.7,0.5,1.5,1.6l-1.4,8.4c0,0-0.2,1.1-1.1,0.8l-5.7-1.6c0,0-1.1-0.3-1-1.1V126l-13.8-4
		l-0.1-0.2l-0.1-0.7l-0.8-1.5l0.4-2.7l1.1-1.6l0.1-0.8l14.1,3.6c0,0,0.5-1.2,2-1"/>
	<path class="st4" d="M252,115c0,0-2.8,3.3-0.6,7"/>
	<path class="st4" d="M304.7,118.7l-6.7-1.6c0,0-7.2-0.5-13,11.3c-5.8,11.8,2.4,15.9,2.4,15.9l5.5,1.7c0,0,3.6,0.9,7.1-2l1-4.6"/>
	<path class="st4" d="M248.9,123.4l6.8,1.8l-0.1,1.5l0.9,0.3l-0.1,0.6l-0.6,0.1l-7.9-2.4c0,0-1.1-1.7,0.5-2.1"/>
	<line class="st4" x1="257.1" y1="127.2" x2="282.8" y2="134.9"/>
	<line class="st4" x1="255.9" y1="125.5" x2="283" y2="133.6"/>
	<path class="st4" d="M287.7,123.5l-11.8-3c0,0-1.2-0.2-1.4,0.9s-1.2,6.3-1.2,6.3s0.1,1.3,1.2,1.6s9,2.5,9,2.5"/>
	<path class="st4" d="M292.1,119.6c0,0,2.2-1.2,3.7-0.2c1.5,0.9,0.1,1.9,0.1,1.9s-4.1,2.4-6.3,16.7c0,0,0,6.2,3.9,7.4
		c0,0,2,0.8,4-1.6"/>
	<path class="st4" d="M291.4,141.2c2.1-0.8,3.1-7.8,3.1-7.8l6.4,1.7l-0.8,3.2c-1.6,7-5.9,6.5-5.9,6.5c-5.6-1.7-3.5-10.9-3.5-10.9
		c1.4-5.5,3.7-9,5.8-11.1c2.7-2.7,5.1-3.2,5.1-3.2c3.5-1.2,2.9,0,2.9,0l-0.7,5.6v5.8c0,0-1,2.6-1.3,3.5c-0.3,0.9-1.2,0.8-1.2,0.8
		l-9.4-2.8c0,0,1-1.8,1.5-2.8c0.4-1,1.5-1.2,1.5-1.2l6.1,1.6c0,0-0.7,0.4-0.7,1c0.1,0.6,0.9,2.9,0.9,2.9l0.7-2.5l-1.3-0.4"/>
	<path class="st4" d="M296.6,122.8c1.2,5.6,4.6,2.9,4.3,3l-3.4-1.1"/>
	<path class="st4" d="M294.8,127.8c0,0,0.3-0.5,1.4-0.2s4.4,1.1,4.4,1.1s1.3,0.5,0.9,2.1"/>
	<path class="st4" d="M290.7,137.4c0,0,2,0.7,3.2-0.8"/>
	<path class="st4" d="M303.9,125.2c0,0,1.7-1.1,4.4,0.1s3.5,4.3,3.5,4.3l-2.1,9.8c0,0-2,2.7-5,1.9c-2.9-0.8-3-1.5-4.5-3"/>
	<path class="st4" d="M304.2,127.7c0,0,0.4-1.1,2.7-0.6c2.3,0.5,2.3,3.2,2.3,3.2l-1.7,8c0,0-1.3,2.1-4.5,0.8c0,0-1.7-2.7-2.1-2.7"/>
	<path class="st4" d="M252.7,115.2"/>
	<ellipse class="st4" cx="270.4" cy="120.6" rx="1.1" ry="1.2"/>
	<ellipse class="st4" cx="269.5" cy="126.6" rx="1.1" ry="1.2"/>
	<polyline class="st3" points="250.5,127.1 249.6,126.7 248.3,126.9 	"/>
</g>
<g id="PSU_Pulled">
	<g>
		<g>
			<line class="st2" x1="157" y1="186.8" x2="158.1" y2="186.5"/>
			<line class="st2" x1="173.2" y1="170.1" x2="173.3" y2="178.1"/>
			<line class="st2" x1="51.3" y1="188.5" x2="168.6" y2="161.3"/>
			<polyline class="st2" points="26.4,212.4 22.9,196.8 33.1,194.3 35,192.3 48.1,189.2 			"/>
			<line class="st2" x1="146.2" y1="189.5" x2="27.9" y2="219.1"/>
			<path class="st2" d="M78.7,206.3l4.8,4.1l1.8-0.6l0.8,2l0.1,3.2c0,0-8.7,1.7-11.2,2.2s-3.5-1.2-3.5-1.2c-1.1-1.3-3.3-0.6-3.3-0.6
				l-40.4,8.9l-0.5-3.4l0.7-1.8"/>
			<path class="st2" d="M86.1,211.8c0,0-9.4,1.9-11.5,2.3c-2.1,0.4-2.9-0.6-2.9-0.6s-0.4-0.3-1.2-1.1s-2.6-0.1-2.6-0.1l-40.6,8.6"/>
			<polygon class="st2" points="37.9,217.5 68.1,210.7 67.2,210.1 			"/>
			<path class="st2" d="M71.2,209.6l5.8-1.5c0,0,0.7-0.2,1.4,0.4s2.8,2.3,2.8,2.3s0.6,0.4-0.1,0.6c-0.6,0.2-6.5,1.5-6.5,1.5
				s-0.8,0.1-1.4-0.4s-2.7-2.4-2.7-2.4S70.5,209.7,71.2,209.6z"/>
			<path class="st2" d="M166.7,188.6c0,1.8,0,3.2,0,3.2l-1.1,0.3"/>
			<path class="st2" d="M160.8,178.6l0-3.9l1.1-0.2l4.4,3.4c0,0,0.4,0.3,0.4,1.1c0,0.3,0,2.4,0,4.9"/>
			<path class="st2" d="M160.8,174.7l4.4,3.4c0,0,0.4,0.3,0.4,1.1c0,0.7,0,12.9,0,12.9l-4.4-3.6"/>
			<polyline class="st2" points="156.9,175.5 164.5,182.3 160.6,183.2 156.6,179.4 			"/>
			<line class="st2" x1="160.6" y1="183.2" x2="160.6" y2="188.4"/>
			<path class="st2" d="M164.5,182.3l0,0.9l-3,0.7l0,3.4l3-0.7c0,0,0,0.9,0,0.8l-3.8,0.9l-3.6-3.4"/>
			<path class="st2" d="M165.8,184.5l17.7,15l1.4,2.1c0,0,1,1.8,0,1.9l-1.4-0.3L165.7,188"/>
			<path class="st2" d="M165.9,183.3l18.4,15.6l1.4,2.1c0,0,0.6,2.3-0.4,2.4"/>
			<path class="st2" d="M147,171.9c0,0-1.1,0-1.1,0.8l0.9,16.3c0,0,0,1.1,1.2,0.8c1.2-0.3,8.4-2.2,8.4-2.2s0.7-0.1,0.6-1.9
				c-0.1-1.8-0.5-14.7-0.5-14.7s0-1.5-1.1-1.1C154.2,170.4,147,171.9,147,171.9z"/>
			<path class="st2" d="M156.2,170.3l-2.2-2.1c-0.2-0.2-0.4-0.3-0.8-0.2c-1.1,0.3-8.3,1.8-8.3,1.8s-1.1,0-1.1,0.8l0.9,16.3
				c0,0,0,0.3,0.1,0.5l2.2,2.2"/>
			<path class="st2" d="M154.2,170.2"/>
			<polyline class="st2" points="156.5,187.1 152.9,183.4 152.5,171 			"/>
			<line class="st2" x1="146.8" y1="184.8" x2="152.9" y2="183.4"/>
			<path class="st2" d="M166.6,178.7c0.7-0.6,1.6-1,2.6-1.2c2.6-0.4,5,1.4,5.3,4c0.3,2.6-1.6,4.9-4.2,5.3"/>
			<path class="st2" d="M171.1,178.4c0.3,2.6-1.6,4.9-4.2,5.3"/>
			<path class="st2" d="M163.3,175.6c0.7-0.6,1.6-1,2.6-1.2c0.9-0.1,1.8,0,2.6,0.4l4.9,3.9"/>
			<path class="st2" d="M171.1,177.9"/>
			<line class="st2" x1="166.2" y1="174.1" x2="170.3" y2="177.5"/>
			<path class="st2" d="M171.7,168.2c0.1,3.6,0.1,8.8,0.1,8.8"/>
			<path class="st2" d="M158.2,176.5l-0.1-8.3c0,0-0.1-0.7,0.8-0.9c0.7-0.1,8.1-1.8,10.9-2.4"/>
			<path class="st2" d="M157.1,175.9l-0.1-8.3c0,0-0.1-0.7,0.8-0.9c0.9-0.2,11.7-2.6,11.7-2.6"/>
			<path class="st2" d="M165.1,174.4l0-6.4l3.3-0.7l1.3,0.8l0,6.8l0,5.1c0,0-0.4,1.1-2.6,1.4"/>
			<ellipse transform="matrix(0.9094 -0.416 0.416 0.9094 -70.2375 53.5576)" class="st2" cx="87.8" cy="188" rx="1.3" ry="1.3"/>
			<ellipse transform="matrix(0.9094 -0.416 0.416 0.9094 -68.9859 56.2604)" class="st2" cx="94.6" cy="186.4" rx="1.3" ry="1.3"/>
			<g>
				<polygon class="st2" points="99.6,186.8 101.2,185.4 103.3,186 103.5,188.3 101.7,189.8 99.9,189.1 				"/>
				<polygon class="st2" points="104.5,185.6 106.2,184.3 108.2,184.9 108.5,187.2 106.6,188.7 104.8,187.9 				"/>
				<polygon class="st2" points="109.6,184.4 111.2,183.1 113.3,183.7 113.6,186 111.7,187.4 109.9,186.7 				"/>
				<polygon class="st2" points="114.7,183.2 116.3,181.9 118.4,182.4 118.7,184.8 116.8,186.2 115,185.5 				"/>
				<polygon class="st2" points="119.6,182.1 121.2,180.8 123.3,181.4 123.6,183.7 121.7,185.1 119.9,184.4 				"/>
				<polygon class="st2" points="124.5,180.9 126.1,179.6 128.1,180.1 128.4,182.5 126.5,183.9 124.8,183.2 				"/>
				<polygon class="st2" points="129.3,179.8 130.9,178.5 132.9,179 133.2,181.4 131.3,182.8 129.5,182.1 				"/>
				<polygon class="st2" points="133.9,178.7 135.5,177.3 137.6,177.9 137.8,180.2 136,181.7 134.2,180.9 				"/>
				<polygon class="st2" points="142.5,179.1 140.6,180.6 138.8,179.8 138.6,177.6 140.2,176.2 142.2,176.8 				"/>
				<polygon class="st2" points="136.9,182.1 138.5,180.8 140.5,181.3 140.8,183.7 138.9,185.1 137.2,184.4 				"/>
				<g>
					<polygon class="st2" points="102.6,190.2 104.2,188.9 106.3,189.4 106.6,191.8 104.7,193.2 102.9,192.5 					"/>
					<polygon class="st2" points="105.6,193.7 107.3,192.4 109.3,193 109.6,195.3 107.7,196.7 105.9,196 					"/>
					<polygon class="st2" points="110.6,192.5 112.2,191.1 114.2,191.7 114.5,194 112.6,195.5 110.8,194.7 					"/>
					<polygon class="st2" points="115.8,191.1 117.4,189.8 119.5,190.4 119.7,192.7 117.9,194.1 116.1,193.4 					"/>
					<polygon class="st2" points="120.8,190 122.4,188.7 124.4,189.2 124.7,191.6 122.8,193 121,192.3 					"/>
					<polygon class="st2" points="125.7,188.7 127.3,187.4 129.4,188 129.7,190.3 127.8,191.7 126,191 					"/>
					<polygon class="st2" points="130.5,187.6 132.1,186.3 134.1,186.9 134.4,189.2 132.5,190.7 130.8,189.9 					"/>
					<polygon class="st2" points="135.3,186.5 136.9,185.2 139,185.8 139.3,188.1 137.4,189.5 135.6,188.8 					"/>
					<polygon class="st2" points="107.6,189.1 109.2,187.7 111.2,188.3 111.5,190.6 109.6,192.1 107.9,191.3 					"/>
					<polygon class="st2" points="112.6,187.8 114.2,186.5 116.3,187.1 116.6,189.4 114.7,190.9 112.9,190.1 					"/>
					<polygon class="st2" points="117.8,186.6 119.4,185.3 121.4,185.9 121.7,188.2 119.8,189.6 118,188.9 					"/>
					<polygon class="st2" points="122.7,185.5 124.3,184.2 126.3,184.8 126.6,187.1 124.7,188.5 123,187.8 					"/>
					<polygon class="st2" points="127.5,184.3 129.1,183 131.2,183.5 131.4,185.9 129.6,187.3 127.8,186.6 					"/>
					<polygon class="st2" points="132.3,183.2 133.9,181.9 135.9,182.5 136.2,184.8 134.3,186.2 132.6,185.5 					"/>
					<polygon class="st2" points="135.7,173.8 137.3,172.4 139.3,173 139.6,175.3 137.7,176.8 136,176 					"/>
					<polygon class="st2" points="101.4,181.9 103,180.5 105.1,181.1 105.4,183.4 103.5,184.9 101.7,184.1 					"/>
					<polygon class="st2" points="106.4,180.7 108,179.4 110,180 110.3,182.3 108.4,183.8 106.6,183 					"/>
					<polygon class="st2" points="111.4,179.5 113,178.2 115.1,178.8 115.4,181.1 113.5,182.5 111.7,181.8 					"/>
					<polygon class="st2" points="116.5,178.3 118.2,177 120.2,177.5 120.5,179.9 118.6,181.3 116.8,180.6 					"/>
					<polygon class="st2" points="121.5,177.2 123.1,175.9 125.1,176.4 125.4,178.8 123.5,180.2 121.7,179.5 					"/>
					<polygon class="st2" points="126.3,176 127.9,174.6 129.9,175.2 130.2,177.5 128.3,179 126.6,178.3 					"/>
					<polygon class="st2" points="131.1,174.9 132.7,173.6 134.7,174.1 135,176.4 133.1,177.9 131.4,177.2 					"/>
				</g>
			</g>
			<g>
				<polyline class="st2" points="35.2,197.5 35.5,199.4 33.3,201.1 31.3,200.2 31,197.6 				"/>
				<polygon class="st2" points="28.4,203.2 30.3,201.7 32.6,202.3 33,205 30.8,206.7 28.7,205.8 				"/>
				<polygon class="st2" points="34.1,201.9 36,200.3 38.4,201 38.7,203.7 36.5,205.4 34.5,204.5 				"/>
				<polygon class="st2" points="30.9,197.6 32.8,196 35.2,196.7 35.5,199.4 33.3,201.1 31.3,200.2 				"/>
				<polygon class="st2" points="36.3,196.3 38.2,194.7 40.5,195.4 40.9,198.1 38.7,199.8 36.6,198.9 				"/>
				<polyline class="st2" points="42.2,203.8 40.4,203.1 40,200.5 41.9,198.9 44.3,199.9 44.5,201.3 				"/>
				<polyline class="st2" points="51.9,192.7 52.5,192.9 52.8,195.6 51.7,196.4 				"/>
				<polygon class="st2" points="53.8,192.5 55.7,190.9 58.1,191.6 58.4,194.3 56.2,196 54.1,195.1 				"/>
				<polygon class="st2" points="41.9,195 43.8,193.5 46.2,194.1 46.5,196.8 44.3,198.5 42.3,197.6 				"/>
				<polygon class="st2" points="59.4,191.1 61.3,189.6 63.7,190.2 64,192.9 61.8,194.6 59.8,193.7 				"/>
				<polygon class="st2" points="65,189.8 66.9,188.3 69.3,189 69.6,191.7 67.4,193.4 65.3,192.5 				"/>
				<polygon class="st2" points="70.4,188.5 72.3,186.9 74.7,187.6 75,190.3 72.8,192 70.8,191.1 				"/>
				<polygon class="st2" points="57.3,196.4 59.1,194.8 61.5,195.5 61.9,198.2 59.7,199.9 57.6,199 				"/>
				<polygon class="st2" points="62.8,195.1 64.7,193.5 67.1,194.2 67.4,196.9 65.2,198.6 63.2,197.7 				"/>
				<polygon class="st2" points="68.2,193.8 70.1,192.2 72.5,192.9 72.8,195.6 70.6,197.3 68.6,196.4 				"/>
				<polygon class="st2" points="78.2,194.3 76,196 74,195.1 73.6,192.5 75.5,190.9 77.9,191.6 				"/>
				<polygon class="st2" points="71.7,197.8 73.6,196.2 75.9,196.9 76.3,199.6 74.1,201.3 72,200.4 				"/>
				<g>
					<polyline class="st2" points="32.8,210 32.2,209.8 31.9,207.2 33.8,205.6 36.2,206.3 36.4,208.1 					"/>
					<polyline class="st2" points="45.4,208.9 45.7,211.6 43.5,213.3 41.5,212.4 					"/>
					<polygon class="st2" points="47.2,208.3 49.1,206.7 51.5,207.4 51.8,210.1 49.6,211.8 47.5,210.9 					"/>
					<polygon class="st2" points="58.7,205.5 60.6,203.9 63,204.6 63.3,207.3 61.1,209 59,208.1 					"/>
					<polygon class="st2" points="53.1,207.1 54.9,205.6 57.3,206.3 57.6,208.9 55.5,210.6 53.4,209.8 					"/>
					<polygon class="st2" points="51.7,197.8 53.5,196.2 55.9,196.9 56.3,199.6 54.1,201.3 52,200.4 					"/>
					<polygon class="st2" points="64.2,204.2 66.1,202.7 68.5,203.3 68.8,206 66.6,207.7 64.6,206.9 					"/>
					<polygon class="st2" points="69.9,202.9 71.8,201.4 74.1,202 74.5,204.7 72.3,206.4 70.2,205.5 					"/>
					<polyline class="st2" points="37.8,207.3 37.7,205.8 39.5,204.3 41.2,204.8 					"/>
					<polyline class="st2" points="55.5,201.5 57.1,200.2 59.4,200.9 59.8,203.6 57.6,205.2 					"/>
					<polygon class="st2" points="60.8,200.3 62.7,198.8 65,199.5 65.4,202.1 63.2,203.8 61.1,203 					"/>
					<polygon class="st2" points="55.2,201.7 57,200.2 59.4,200.9 59.7,203.5 57.6,205.2 55.5,204.4 					"/>
					<polygon class="st2" points="49.5,203.1 51.4,201.6 53.8,202.3 54.1,205 51.9,206.6 49.9,205.8 					"/>
					<polygon class="st2" points="66.4,199.1 68.2,197.5 70.6,198.2 70.9,200.9 68.7,202.6 66.7,201.7 					"/>
				</g>
			</g>
		</g>
	</g>
	<line class="st2" x1="153.5" y1="146.7" x2="168.4" y2="157"/>
	<line class="st2" x1="22.9" y1="196.6" x2="24.2" y2="177.7"/>
	<g>
		<path class="st2" d="M153.6,189.8l-31.2,42.4c0,0-1.1,1.5,0.5,2.5c1.6,1.1,3.2,1.7,3.2,1.7s1,0.5,2.2,0.1"/>
		<polyline class="st2" points="134.5,239.6 134.5,237 138.9,238.5 138.9,241.5 		"/>
		<polyline class="st2" points="139.7,240 139.7,236.9 134.5,236.9 		"/>
		<line class="st2" x1="139" y1="238.3" x2="139.6" y2="237"/>
		<path class="st2" d="M164.2,190.9c0,0-13.9,21.1-14.7,22c-0.9,0.9,0.2,1.2,0.2,1.2s5.8,1.5,7.2,1.9c1.4,0.4,1.1,1.3,1.1,1.3
			s-6.8,13.6-7.4,14.8c-0.6,1.2-2.5,1.1-2.5,1.1l-6.4,0c0,0-7.7,1.2-8.8,1.7c-1,0.5,0.1,0.8,0.1,0.8l7.8-1.3l9.8,0l0.5,0.4"/>
		<path class="st2" d="M128.7,236.7l3.6,0c0,0,5.2-0.9,6.5-1.2c1.3-0.3,2.6-0.3,2.6-0.3l9.2,0l0.4,0.5c0,0,0.1,3.3,0.1,4
			c0,0.7-0.7,0.8-0.7,0.8l-7.8-0.2l-2.9-0.1l-0.5,1.4l-4.6-1.6l-5.7-0.4l-0.4-3l34.3-46.7"/>
		<path class="st2" d="M165.6,189"/>
		<line class="st2" x1="150.3" y1="214.2" x2="165.2" y2="191.8"/>
		<polyline class="st2" points="158,216.9 158,220.1 150.9,235.7 		"/>
		<path class="st2" d="M151.6,227.3c-0.2,0.5-3.3,4.8-3.3,4.8l-5.8,0l-8.8,1.3c0,0-1.3,0.4-0.6-0.6l6.3-7.2"/>
		<path class="st2" d="M151.6,227.3c0,0-0.1-1.7-4-2.5c-4-0.8-8,0.9-8,0.9l0.1,2.6c0,0,5.7-2.8,11.2,0.3"/>
		<path class="st2" d="M135,231.1c0,0,0.3,1.3,1.6,1.7"/>
		<line class="st2" x1="139.7" y1="228.3" x2="136.3" y2="232.5"/>
		<line class="st2" x1="142.9" y1="235.4" x2="142.9" y2="240.2"/>
		<line class="st2" x1="144.1" y1="235.5" x2="144.1" y2="240.3"/>
		<line class="st2" x1="145.3" y1="235.7" x2="145.3" y2="240.5"/>
		<line class="st2" x1="146.6" y1="235.5" x2="146.6" y2="240.3"/>
		<line class="st2" x1="147.8" y1="235.6" x2="147.8" y2="240.4"/>
		<line class="st2" x1="149" y1="235.7" x2="149" y2="240.5"/>
		<line class="st2" x1="128.8" y1="239.5" x2="125.7" y2="236.4"/>
	</g>
	<line class="st2" x1="81.4" y1="208.3" x2="159.7" y2="188.2"/>
</g>
<g id="Top_Pull_Out">
	<g>
		<g>
			<g>
				<polyline class="st5" points="112.2,191.7 89.6,185.7 89.5,183.3 97.5,184.3 89.6,174.4 89.5,172.1 103.8,171.8 111.9,181.8 
					119.8,178.2 119.8,180.4 112.2,191.7 				"/>
			</g>
			<g>
				<polyline class="st5" points="67.4,175.3 90,179 89.9,181.2 82.1,182.7 89.7,190.3 89.9,192.5 75.7,195.1 67.6,185.2 
					59.8,186.6 59.8,184.3 67.4,175.3 				"/>
			</g>
		</g>
		<g>
			<g>
				<polyline class="st5" points="112.2,189.4 119.8,178.1 111.9,179.5 103.8,169.5 89.6,172.1 97.5,182 89.6,183.4 112.2,189.4 
					112.2,191.7 				"/>
			</g>
			<g>
				<polyline class="st5" points="67.4,173 89.9,178.9 82.1,180.4 89.9,190.2 75.7,192.8 67.6,182.8 59.8,184.3 67.4,173 				"/>
			</g>
		</g>
		<line class="st5" x1="67.6" y1="182.8" x2="67.6" y2="185.2"/>
		<line class="st5" x1="75.7" y1="192.8" x2="75.7" y2="195.1"/>
	</g>
	<g>
		<circle class="st6" cx="173.8" cy="78.5" r="72.8"/>
		<path class="st0" d="M238.9,66.6l-44.5,13.2l-0.3,0.1c0.2,0.7,0.5,2.4,0.5,3.6c0.1,1.5-1.3,1.9-1.3,1.9S156,97.2,152,98.4
			c-3.9,1.1-5.1-1.5-5.1-1.5c-1.7-2.3-6.3-5.9-6.3-5.9l-1-0.2L140,92l2.6,2.3c0,0,1.5,1.4,1.4,3c-0.1,1.7,0.3,3.5,0.3,3.5
			s0,0.7-1.5,0.5l-6.7-5.8c0,0-0.5-0.6-0.5-1.1s0-3.2,0-3.2l-3,0.7l-2.4,0.8l0-7l103.2-24L238.9,66.6z"/>
		<path class="st1" d="M147.2,88.6l15.6-4.2c0,0,3,0.9,2.8,1.9c0,0-1.1,2.4-4.9,1.8c0,0-4.1,0.4-7.4,1.6c0,0-2.4,1.5-4.5,0.2
			C146.6,88.6,147.2,88.6,147.2,88.6z"/>
		<g>
			<g>
				<g>
					<defs>
						<circle id="SVGID_1_" cx="173.8" cy="78.5" r="72.8"/>
					</defs>
					<clipPath id="SVGID_00000061471059329668210700000017975682087376207275_">
						<use xlink:href="#SVGID_1_"  style="overflow:visible;"/>
					</clipPath>
					<g style="clip-path:url(#SVGID_00000061471059329668210700000017975682087376207275_);">
						<g>
							<path class="st2" d="M240.3-65.6c0,0,154.2,35,156.6,35.6s1.5,1.4,1.5,1.4S36.2,26.6,31.1,27.4s-4.4-2.7-4.4-2.7l13.4-75.5
								L240.3-65.6z"/>
							<line class="st2" x1="26.5" y1="25.8" x2="35" y2="67.5"/>
							<line class="st2" x1="35" y1="27.4" x2="39.1" y2="47.5"/>
							<line class="st2" x1="38.4" y1="66.1" x2="39.8" y2="36.7"/>
							<line class="st2" x1="37.2" y1="91.2" x2="37.9" y2="76.5"/>
							<line class="st2" x1="40.6" y1="65.8" x2="42.3" y2="36.4"/>
							<path class="st2" d="M37.9,36.2l0.9-8.1c0,0,1.5-1.2,4.7-0.8c0,0,1,0.2,1.2,1l0.6,3.8l0,7.1l-0.8-3.5c0,0-0.4-1.1-2-0.8
								l-2.9,0.2c0,0-1.9,0.6-1.6,2.2l1.2,5.6"/>
							<path class="st2" d="M44.5,135.9c0.6,4.5,5.5,3.8,5.5,3.8c21.2-4.3,33.5-14.3,33.5-14.3s16-14.8,12.4-31
								c-0.7-3.2-2.2-6.4-4.6-9.6C76.2,65.5,51.1,70.5,51.1,70.5s-10.1,2.7-14.7,4c-4.5,1.3-5.3,3.6-5.3,3.6l0.8-7.8
								c0,0,1.2-1.9,4.6-2.9C40,66.4,48.7,64,48.7,64s16.4-3.8,30.2,3.8c0,0,12.1,6.8,15.4,16.6L96,94"/>
							<path class="st2" d="M46.8,135.9c0,0,0.1,2.5,2.7,2.2c2.6-0.4,27.7-6,36.3-18.4c0,0,13.3-14.8,7-28.9c0,0-5.7-15.2-27.5-18.8
								c0,0-5.8-1.4-14.7,0.4l-14.4,4.2c0,0-3.6,0.6-2.7,4.7c0.9,4,2.6,10.5,2.6,10.5"/>
							<line class="st2" x1="35.1" y1="95.3" x2="31.1" y2="78.2"/>
							<path class="st2" d="M35.2,77.3"/>
							<path class="st2" d="M40.9,92.8c0,0-4.7-4.6-5.4,3.5c0,0-1.2,9.4,7.6,36.5c0,0,1.4,4.8,5.1,1.9l1.4-7.4"/>
							<path class="st2" d="M39.1,90.9c0,0-1.6-17.9,19.7-19.3"/>
							<path class="st2" d="M41.2,92.4c0,0-2-19.9,21.4-18.8c0,0,27.1,0.6,31.1,27.2"/>
							<path class="st2" d="M51.5,110l1.4-0.5l-1.3-5.1c0,0-0.3-2.6-4.3-1.2c0,0-3.2,0.7-2.2,4.3c0.9,3.6,5.2,20.6,5.2,20.6l1.7-0.5
								l-5.1-20.7c0,0,0-2,3-2.1L51.5,110z"/>
							<path class="st2" d="M44.5,103.9l0.4-11.6c0,0,2.3-3.5,5.7-0.8l0.3,11.1"/>
							<line class="st2" x1="231.4" y1="62.3" x2="232.9" y2="62"/>
							<line class="st2" x1="96.2" y1="93.6" x2="216.6" y2="65.8"/>
							<polyline class="st2" points="48.8,77 54.5,103.3 91.5,94.7 							"/>
							<path class="st2" d="M49.8,129c0,0,21.7-3.4,33.2-15.8c0,0,8.1-8.5,8.4-20.1"/>
							<path class="st2" d="M96.6,101.8l13-2.6c0,0,3.1-0.9,4.5,0.8c0,0,1.3,2.3,4.8,1.6s15.3-2.7,15.3-2.7l-0.1-4.4l-1-2.7
								l-2.5,0.8l-6.6-5.7"/>
							<polyline class="st2" points="54.5,103.3 53.6,105.7 54.3,110.3 88.9,103.4 							"/>
							<path class="st2" d="M96.8,97.3l12.4-2.4c0,0,2.5-0.8,3.6,0.2s1.7,1.5,1.7,1.5s1.1,1.5,4,0.9s15.8-2.9,15.8-2.9"/>
							<line class="st2" x1="53.6" y1="105.7" x2="90.6" y2="98.5"/>
							<polyline class="st2" points="91.1,96.7 68.3,101.4 91.2,96 							"/>
							<polyline class="st2" points="96.1,94.8 108.4,92 109.6,92.8 96.3,95.6 							"/>
							<path class="st2" d="M113.8,91.4l7.9-1.9c0,0,0.6-0.6,1.6,0.2c1,0.8,4.2,3.5,4.2,3.5s0.8,0.6-0.1,0.8c-0.8,0.2-9,1.9-9,1.9
								s-1.1,0.1-1.9-0.5c-0.8-0.6-3.6-3.3-3.6-3.3S113,91.4,113.8,91.4z"/>
							<line class="st2" x1="130.5" y1="86.7" x2="130.7" y2="92.1"/>
							<line class="st8" x1="133" y1="89.1" x2="131.2" y2="92.2"/>
							<path class="st8" d="M133.8,92l1.5-0.5l0.5,3.7l7.2,6.4c0,0-0.4-3.8-0.4-4.6c0-0.8-0.8-1.8-0.8-1.8l-3.5-3.2l-1.2-1.4
								l-5.7-3.5c-1.6-0.8,1.1-1.7,1.1-1.7"/>
							<path class="st8" d="M143.2,101.7l1.1-0.3c0,0-0.3-3.6-0.4-4.6c-0.1-1-0.5-1.5-0.5-1.5L140,92l-0.9-2.1c0,0-3.9-2.1-4.9-2.6
								c-0.9-0.5,0.3-1,0.3-1l2.7-0.7c0,0,0.9-0.5,1.4,0.3c0.6,0.8,4.6,2.6,4.6,2.6l3.4,2.8c0,0,2.1,1.4,5.9,0.3s4.6-1.3,4.6-1.3
								l11-1.4l24.7-7.6c0,0,1.2-0.6,1-2.1c-0.2-1.5-0.5-2.3-0.5-2.3s-0.3-0.7,1.3-1.2c1.6-0.5,40.6-12.2,40.6-12.2"/>
							<path class="st8" d="M165.3,85.7c-1.7-1.6-6.5-1.6-6.5-1.6l-0.3-3.3c5.7-0.2,7.4,2.4,7.4,2.4c1.2,2.5-1.7,4.7-1.7,4.7
								l-7.4,0.7c0,0-3,0.8-5,1.6s-3.1-0.3-3.1-0.3l-2.5-2.3c0,0-3.4-1.9-4.5-2.5c-1-0.6,0.8-0.8,0.8-0.8l6.8-1.5
								c0,0-3.4,1.4-3.6,4.1"/>
							<path class="st2" d="M147.6,88.2c0,0,1.1-1.3,2.3-1.7l-0.4-3.6"/>
							<line class="st8" x1="149.8" y1="82.6" x2="234.4" y2="63"/>
							<path class="st8" d="M140.5,91c0,0,4.5,3.6,6.3,5.9c0,0,1.2,2.6,5.1,1.5s41.3-12.9,41.3-12.9s1.4-0.4,1.3-1.9
								c-0.1-1.6-0.6-4-0.6-4"/>
							<line class="st2" x1="251.6" y1="62.8" x2="260.2" y2="60.2"/>
							<line class="st8" x1="194.2" y1="79.8" x2="238.7" y2="66.6"/>
							<line class="st8" x1="148.1" y1="88.3" x2="162.5" y2="84.7"/>
							<path class="st2" d="M70.7,64.1l69.8-13.4l6,3.2c0,0,1.4,1.3,4,0.9c2.7-0.5,10.7-1.6,10.7-1.6l-0.6-5.2"/>
							<path class="st2" d="M67.2,63.4l69.1-13.8l3.1-3.6l1.3-0.1l5.4,3.4c0,0,1.5,1.2,4.1,0.8c2.6-0.5,9.2-1.3,9.2-1.3
								s1.3-0.1,1-1.1l-2.3,0.1l-6.7-4.1c0,0-0.1-1.3,1.9-1.5l-14.7,2.5l-3.3,3.4L59.9,62.8"/>
							<path class="st2" d="M145.1,44.7l2.1-0.3c0,0,1.1-0.3,2.3,0.4s4.3,2.4,4.3,2.4s1.1,0.6,0.3,0.9s-4,0.7-4,0.7
								s-0.6,0.2-1.7-0.4s-4.5-2.7-4.5-2.7S143.4,45,145.1,44.7z"/>
							<path class="st2" d="M259.7,1.6l0-1.5c-2.7-0.4-2.6,1.5-2.6,1.5v2.5l-0.9,0.1c0,0-6.5-3.2-7.4-3.7s-1-2.3-1-2.3
								c-0.2-1.7,0.3-2.2,0.3-2.2c1.2-1.1,2.7-0.7,2.7-0.7l8.7,4.2"/>
							<path class="st2" d="M251.3,3.5l15.3,8.2c0,0,0.1-1.5,1.6-1.2"/>
							<polygon class="st2" points="251.2,4.6 249.4,7.2 249.4,12.2 251.8,14.3 251.8,16.1 251,15.9 250.8,14.9 249.5,14.1 
								247.3,11.6 247.3,6.5 249.3,3.6 							"/>
							<line class="st2" x1="295.8" y1="25.1" x2="298.7" y2="26.6"/>
							<line class="st2" x1="257.1" y1="4.2" x2="286.5" y2="20"/>
							<line class="st2" x1="258.1" y1="0.9" x2="291.1" y2="18"/>
							<path class="st2" d="M282.9,42.6l14,9.1c0,0,2.6,2,4-0.1"/>
							<path class="st2" d="M259.7,27.7c-2.3,0.8-3.1-0.3-3.1-0.3s-7.1-4.6-7.8-5.1c-0.8-0.5-0.7-1-0.7-1s0.1-1.2,0.1-1.9
								s1.3-0.8,1.3-0.8l7.3,4.9c0,0,0.6,0.6,0.6,1.3c0,0.7,0,1.8,0,1.8s0.3,0.5,1.2,0.4l15.2,9.8"/>
							<path class="st2" d="M284.1,40.4l13.3,8.4c0,0,1.4,1.2,1.5-3.2"/>
							<line class="st2" x1="257.3" y1="23.6" x2="275" y2="34.7"/>
							<path class="st2" d="M313.2,30.4c0,0,0.5-8.1,0.5-9.5s-1.3-2.3-1.3-2.3l-8.4-4c0,0-15,2.4-20.2,8.5
								c-5.2,6.1-12.5,14.8-11.2,26.3c0,0,1,10.5,12.5,18.5c0,0,9.7,5.7,16.9,3l7.6-2.9c0,0,2.3-0.6,2-7.2"/>
							<path class="st2" d="M311.5,30.8l0.7-9.7c0,0,0-1.8-2.4-1.1c0,0-18.1,1.2-25.6,18.5c0,0-6.1,11.2,0.4,24.3
								c0,0,4.3,6.9,14.3,6.1c0,0,8.2-1.1,9.3-13.3l0.2-3l0.7-0.4l0.1-1.5c0,0,2.9-8.2,1.4-18.7L311.5,30.8z"/>
							<path class="st2" d="M285.9,22.2c0,0,3.5-3,6.6-2.3c0,0,2.8,1.3,0.2,3.4c0,0-6.9,6.1-9.2,11.7c-2.4,5.7-5.8,12.3-1.6,26.1
								c0,0,3,7.5,12.2,9c0,0,13.4,2.9,15.3-12.7"/>
							<path class="st2" d="M300.8,47c0,0,1.3,7.9-2.8,12.8c0,0-4.6,6.8-12.7,3.2"/>
							<line class="st2" x1="253.5" y1="26.8" x2="253.7" y2="51"/>
							<line class="st2" x1="260.5" y1="28.2" x2="260.6" y2="55.6"/>
							<line class="st2" x1="260.4" y1="-7.1" x2="260.4" y2="2.3"/>
							<path class="st2" d="M300.1,22.7c0,0,2.5,1.4,3.1,4.3S307,31,307,31s0,2.9-2.9,0.8c0,0-2.4-1.9-2.9-6.2c0,0-2.3-1.5-2.6,2.1
								S297.7,38,297.7,38l-1.9,4.3c0,0-0.1,1.7,1.3,2.3c1.5,0.6,9.2,5.4,9.2,5.4"/>
							<path class="st2" d="M298.3,37c0,0,0.9-1.2,2.7-0.9l6.7,3.5l0.3,1.9c0,0-1.3-0.1-1.7,0.5c-0.1,0.1-0.2,0.3-0.2,0.5l1,5.7
								c0,0,1.3,0.8,1.3-0.5c0.1-1.3,0.2-3.8,0.2-3.8s0.3-1.2-1.7-1.4"/>
							<path class="st2" d="M308.5,55.1l2,4.5c2.1,4.2,6.5,3.5,6.5,3.5c3.5-0.3,4.1-5.8,4.1-5.8l0.7-16.1
								c-0.8-8.4-6.8-10.1-6.8-10.1c-3.5-0.5-3.7,1.4-3.7,1.4s6.1,1,7.9,7.1c0,0,0.5,1.9,0.5,3.9c0,1.8-0.7,14.1-0.7,14.1
								s-1.8,3.6-5.4,1.6c0,0-1.7-1-2.8-3.6s-1.7-3.3-1.7-3.3"/>
							<path class="st2" d="M311.4,40.6l2,1.1c0,0,0.9,1.1-0.3,1.4l-1.7,0.2"/>
							<path class="st2" d="M310.2,48.7l2.4,0.1c0,0,2,1.2,0.2,1.7l-1.7-1.3"/>
							<path class="st2" d="M39.5,92.6c0,0-1.4,0.3-0.4,9s2.1,12.7,2.1,12.7l4.8,17.8c0,0,1.4,1.6,2.2,0"/>
							<polyline class="st2" points="44.4,105.8 42.1,107.4 43.9,114.4 46,113.4 							"/>
							<line class="st2" x1="47.4" y1="89.8" x2="47.7" y2="77.2"/>
							<path class="st2" d="M244.7,65c0,2.5,0,4.3,0,4.3l-1.5,0.3"/>
							<path class="st2" d="M236.6,51.3V46l1.5-0.3l6,4.7c0,0,0.5,0.5,0.5,1.4c0,0.4,0,3.3,0,6.6"/>
							<path class="st2" d="M236.6,46l6,4.7c0,0,0.5,0.5,0.5,1.4s0,17.5,0,17.5l-6-4.9"/>
							<polyline class="st2" points="231.2,47.1 241.6,56.5 236.3,57.6 230.9,52.4 							"/>
							<line class="st2" x1="236.3" y1="57.6" x2="236.3" y2="64.6"/>
							<path class="st2" d="M241.6,56.5v1.2l-4.1,0.9v4.6l4.1-0.9c0,0,0,1.2,0,1.1l-5.3,1.2l-5-4.7"/>
							<path class="st2" d="M243.4,59.4l24.2,20.7l2,2.9c0,0,1.3,2.5-0.1,2.6l-2-0.4l-24.2-21.2"/>
							<path class="st2" d="M243.5,57.8l25.1,21.6l2,2.9c0,0,0.8,3.1-0.6,3.3"/>
							<path class="st2" d="M227.6,39.8"/>
							<polyline class="st2" points="230.7,62.7 225.8,57.7 225.3,40.8 							"/>
							<line class="st2" x1="217.4" y1="59.5" x2="225.8" y2="57.7"/>
							<path class="st2" d="M244.5,51.6c1-0.8,2.2-1.4,3.5-1.5c3.6-0.4,6.8,2,7.3,5.5c0.4,3.5-2.1,6.7-5.7,7.1"/>
							<path class="st2" d="M250.8,51.3c0.4,3.5-2.1,6.7-5.7,7.1"/>
							<path class="st2" d="M240,47.3c1-0.8,2.2-1.4,3.5-1.5c1.3-0.2,2.5,0.1,3.6,0.5l6.7,5.4"/>
							<path class="st2" d="M250.7,50.7"/>
							<line class="st2" x1="244" y1="45.4" x2="249.6" y2="50.1"/>
							<path class="st2" d="M233,48.4l-0.1-11.2c0,0-0.2-0.9,1-1.1c1.2-0.2,16.3-3.3,16.3-3.3s1.1-0.2,1.2,0.5
								c0.1,0.7,0.2,16.3,0.2,16.3"/>
							<path class="st2" d="M231.5,47.6l-0.1-11.2c0,0-0.2-0.9,1-1.1c1.2-0.2,16.3-3.3,16.3-3.3l2.3,0.7"/>
							<path class="st2" d="M169.2,38l-2.5-25.7c-0.5-3.2-3.6-2.5-3.6-2.5L50.5,27.5c0,0-2.1,0.4-1.4,3.6c0.7,3.2,6.3,28.4,6.3,28.4
								s0.7,1.9,4.1,1.1c3.3-0.7,76.5-14.7,76.5-14.7"/>
							<path class="st2" d="M60.6,28.1l20.1-3.3c0,0,1.6-0.1,1.9,1.6s1.8,10,1.8,10s0.2,1.8-1.4,2C81.5,38.6,63,41.8,63,41.8
								s-1.4,0-1.8-1.7c-0.3-1.7-2-10.8-2-10.8S58.8,28.5,60.6,28.1z"/>
							<path class="st2" d="M63.3,45.8l64-11.5c0,0,1.6-0.1,1.9,1.6c0.3,1.7,0.8,7.1,0.8,7.1s0.2,1.8-1.4,2
								c-1.6,0.2-63.3,12.3-63.3,12.3s-1.4,0-1.8-1.7S62,47.1,62,47.1S61.5,46.2,63.3,45.8z"/>
							<path class="st2" d="M88.2,23.7l18.3-3.2c0,0,1.4-0.1,1.7,1.6c0.3,1.6,1.6,9.7,1.6,9.7s0.2,1.7-1.2,1.9
								c-1.5,0.2-18.3,3.3-18.3,3.3s-1.3,0-1.6-1.6C88.4,33.8,86.9,25,86.9,25S86.5,24.1,88.2,23.7z"/>
							<line class="st2" x1="79.5" y1="42.8" x2="81.7" y2="53.5"/>
							<line class="st2" x1="96.2" y1="40" x2="98.3" y2="50.7"/>
							<line class="st2" x1="112.7" y1="37" x2="114.8" y2="47.7"/>
							<path class="st2" d="M247.2-3.4L170.3,8.4c0,0-2.3,0.6-1.9,3.8l0.9,12.7l1.5,1.3l0.5,8.7c0,0-0.1,2.7,2.4,2.7"/>
							<g>
								<path class="st2" d="M176.8,16.2l8.9-1.4c0,0,0.9-0.2,1,0.7c0.1,0.9,0.8,8,0.8,8s0.3,1.1-0.9,1.4s-8.5,1.4-8.5,1.4
									s-1.1,0-1.1-0.9c0-1-0.7-8.2-0.7-8.2S176.1,16.4,176.8,16.2z"/>
								<path class="st2" d="M186.6,15l-1.8-1.7c-0.2-0.1-0.5,0-0.5,0l-8.9,1.4c-0.7,0.2-0.5,1-0.5,1s0.7,7.2,0.7,8.2
									c0,0.3,0.1,0.5,0.2,0.6l1.4,1.6"/>
							</g>
							<g>
								<path class="st2" d="M191.1,13.9l18.6-3.3c0,0,0.9-0.2,1,0.7c0.1,0.9,0.8,8,0.8,8s0.3,1.1-0.9,1.4S192.4,24,192.4,24
									s-1.1,0-1.1-0.9c0-1-0.7-8.2-0.7-8.2S190.4,14.1,191.1,13.9z"/>
								<path class="st2" d="M213.7,8.1l24-4.2c0,0,0.9-0.2,1,0.7c0.1,0.9,0.3,7.5,0.3,7.5s0.3,1.1-0.9,1.4s-23.2,4.2-23.2,4.2
									s-1.1,0-1.1-0.9c0-1-0.6-7.6-0.6-7.6S213,8.3,213.7,8.1z"/>
								<path class="st2" d="M210.6,10.8l-1.8-1.7c-0.2-0.1-0.5,0-0.5,0l-18.6,3.3c-0.7,0.2-0.5,1-0.5,1s0.7,7.2,0.7,8.2
									c0,0.3,0.1,0.5,0.2,0.6l1.4,1.6"/>
							</g>
							<path class="st2" d="M195.7,13.3"/>
							<path class="st2" d="M191.1,18.1"/>
							<line class="st2" x1="201.4" y1="22" x2="200.7" y2="12.4"/>
							<path class="st2" d="M118.3,22.8l13-2.2c0,0,0.9-0.1,1.1,1s0.8,6.5,0.8,6.5s0.3,0.9-0.9,1.1c-1.3,0.3-12.7,2.2-12.7,2.2
								s-1.5,0.2-1.6-0.9s-1-6.7-1-6.7S117.1,22.9,118.3,22.8z"/>
							<path class="st2" d="M141.7,19.4l16.3-2.7c0,0,0.9-0.1,1.1,1c0.2,1,0.8,6.5,0.8,6.5s0.3,0.9-0.9,1.1c-1.3,0.3-16,2.8-16,2.8
								s-1.5,0.2-1.6-0.9s-1-6.7-1-6.7S140.5,19.5,141.7,19.4z"/>
							<polyline class="st2" points="73.5,26.2 73.9,28.1 75.1,27.9 75.5,29.6 78.9,29.1 80.2,36.1 65.2,38.7 63.9,31.6 67.1,31 
								66.7,29.3 68.2,29 67.9,27.3 							"/>
							<polyline class="st2" points="100.2,22.2 100.7,24.1 101.9,23.9 102.3,25.6 105.6,25.1 106.9,32.1 92,34.6 90.6,27.6 
								93.8,27 93.5,25.3 95,25 94.6,23.2 							"/>
							<path class="st2" d="M121.2,24.8l7.3-1.2c0,0,1.6,0,1.7,1.6c0.1,1.6-1.3,1.6-1.3,1.6l-7.3,1.3c0,0-1.3,0.2-1.7-1.3
								C119.5,25.4,121.2,24.8,121.2,24.8z"/>
							<path class="st2" d="M144.2,20.8c0,0-1.4,0.3-1.2,1.3c0.2,1,0.5,2.9,0.5,2.9s0.1,1,1.2,0.8s11.5-2.1,11.5-2.1s1.1-0.4,1-1.4
								c-0.1-1-0.4-2.7-0.4-2.7s-0.1-1-1.4-0.8C154,19.1,144.2,20.8,144.2,20.8z"/>
							<line class="st2" x1="227" y1="5.7" x2="227" y2="15.3"/>
							<ellipse class="st2" cx="136.6" cy="62.5" rx="1.8" ry="1.7"/>
							<ellipse class="st2" cx="146" cy="60.5" rx="1.8" ry="1.7"/>
							<line class="st2" x1="249" y1="13.8" x2="249" y2="18.2"/>
							<line class="st2" x1="249" y1="0.9" x2="249" y2="3.5"/>
							<line class="st2" x1="253.4" y1="-6.3" x2="253.4" y2="-3.8"/>
							<polyline class="st2" points="259.4,56.8 261.4,58.2 264.5,57.8 266.5,56.5 266.5,58.6 264.5,60.1 261.3,60.7 258.9,58.7 
								258.9,56.5 262,55.7 262,54.6 263.7,55.6 263.7,57.4 							"/>
							<line class="st2" x1="321.9" y1="40.4" x2="328.3" y2="39.1"/>
							<line class="st2" x1="281.7" y1="49.9" x2="290.5" y2="47.8"/>
							<line class="st2" x1="262" y1="54.6" x2="273" y2="52"/>
							<line class="st2" x1="321.8" y1="48" x2="329.9" y2="46.4"/>
							<line class="st2" x1="282.3" y1="55.7" x2="298" y2="52.6"/>
							<line class="st2" x1="266.5" y1="58.6" x2="275.2" y2="57"/>
							<line class="st2" x1="281.8" y1="52.4" x2="293.9" y2="50.2"/>
							<line class="st2" x1="263.7" y1="55.6" x2="273.6" y2="53.8"/>
							<line class="st2" x1="377.5" y1="27.8" x2="383.2" y2="26.4"/>
							<line class="st2" x1="354.7" y1="33.2" x2="368" y2="30"/>
							<path class="st2" d="M309.1-2.3v-5.8c0,0,0-0.4,0.8-0.5c0.8-0.1,7.3-1,7.3-1s1.1-0.3,1.1,0.7l-0.1,5.4c0,0,0.1,0.7-0.5,0.8
								c-0.7,0.2-7.2,1.2-7.2,1.2S309.2-1.1,309.1-2.3z"/>
							<path class="st2" d="M323.2-3.9v-5.8c0,0,0-0.4,0.8-0.5c0.8-0.1,9.8-1.5,9.8-1.5s1.1-0.3,1.1,0.7l-0.1,5.4
								c0,0,0.1,0.7-0.5,0.8c-0.7,0.2-9.8,1.7-9.8,1.7S323.3-2.7,323.2-3.9z"/>
							<line class="st2" x1="265.6" y1="31.7" x2="265.6" y2="53.2"/>
							<g>
								<polygon class="st2" points="155.1,61.7 157.2,60 159.9,60.8 160.3,63.8 157.8,65.6 155.5,64.6 								"/>
								<polygon class="st2" points="161.6,60.3 163.8,58.6 166.5,59.4 166.8,62.4 164.3,64.3 162,63.2 								"/>
								<polygon class="st2" points="168.3,58.8 170.4,57.1 173.1,57.9 173.5,60.9 171,62.8 168.7,61.8 								"/>
								<polygon class="st2" points="175,57.3 177.2,55.6 179.9,56.4 180.2,59.4 177.7,61.3 175.4,60.3 								"/>
								<polygon class="st2" points="181.5,56 183.6,54.3 186.3,55.1 186.7,58.1 184.2,60 181.9,59 								"/>
								<polygon class="st2" points="187.8,54.5 190,52.8 192.7,53.6 193,56.6 190.5,58.5 188.2,57.5 								"/>
								<polygon class="st2" points="194.1,53.2 196.3,51.5 199,52.3 199.3,55.3 196.8,57.2 194.5,56.2 								"/>
								<polygon class="st2" points="200.2,51.8 202.4,50.1 205.1,50.9 205.4,53.9 202.9,55.8 200.6,54.8 								"/>
								<polyline class="st2" points="211.6,52.6 209.1,54.4 206.7,53.4 206.4,50.5 208.5,48.8 211.2,49.6 								"/>
								<polygon class="st2" points="204.2,56.3 206.3,54.7 209,55.4 209.3,58.5 206.9,60.3 204.5,59.3 								"/>
								<g>
									<polygon class="st2" points="159.1,66.2 161.2,64.5 163.9,65.3 164.3,68.3 161.8,70.1 159.5,69.1 									"/>
									<polygon class="st2" points="163.1,70.8 165.2,69.1 167.9,69.9 168.3,72.9 165.8,74.8 163.4,73.8 									"/>
									<polygon class="st2" points="169.5,69.3 171.6,67.6 174.3,68.4 174.7,71.4 172.2,73.2 169.9,72.2 									"/>
									<polygon class="st2" points="176.4,67.7 178.5,66 181.2,66.8 181.6,69.8 179.1,71.6 176.8,70.6 									"/>
									<polygon class="st2" points="182.9,66.3 185.1,64.6 187.8,65.4 188.1,68.4 185.6,70.3 183.3,69.3 									"/>
									<polygon class="st2" points="189.5,64.7 191.6,63 194.3,63.8 194.6,66.9 192.2,68.7 189.8,67.7 									"/>
									<polygon class="st2" points="195.7,63.4 197.8,61.7 200.5,62.5 200.9,65.5 198.4,67.4 196.1,66.4 									"/>
									<polygon class="st2" points="202.1,62.1 204.2,60.4 206.9,61.2 207.3,64.2 204.8,66 202.5,65 									"/>
									<polygon class="st2" points="165.6,64.8 167.7,63.1 170.4,63.9 170.8,66.9 168.3,68.8 166,67.7 									"/>
									<polygon class="st2" points="172.3,63.3 174.4,61.6 177.1,62.4 177.5,65.4 175,67.3 172.7,66.3 									"/>
									<polygon class="st2" points="179,61.8 181.1,60.1 183.8,60.9 184.2,63.9 181.7,65.8 179.4,64.8 									"/>
									<polygon class="st2" points="185.5,60.5 187.6,58.8 190.3,59.6 190.7,62.6 188.2,64.5 185.8,63.5 									"/>
									<polygon class="st2" points="191.8,59 193.9,57.3 196.6,58.1 197,61.1 194.5,63 192.2,62 									"/>
									<polygon class="st2" points="198.1,57.7 200.2,56 202.9,56.8 203.3,59.8 200.8,61.7 198.5,60.7 									"/>
								</g>
							</g>
							<g>
								<polyline class="st2" points="64.6,74.2 65.1,76.8 62.1,79 59.3,77.8 58.8,74.2 								"/>
								<polygon class="st2" points="55.3,81.8 57.8,79.7 61.1,80.7 61.6,84.4 58.6,86.6 55.7,85.4 								"/>
								<polygon class="st2" points="63.2,80.1 65.7,78.1 69,79 69.4,82.7 66.4,84.9 63.6,83.7 								"/>
								<polyline class="st2" points="77.1,77.7 77.5,80.9 74.5,83.1 71.7,81.9 71.2,78.3 73.8,76.3 								"/>
								<polyline class="st2" points="82.5,69.4 85,67.4 88.3,68.3 88.7,72 86.8,73.4 								"/>
								<polygon class="st2" points="90.1,67.8 92.7,65.8 95.9,66.7 96.4,70.4 93.4,72.6 90.6,71.4 								"/>
								<polygon class="st2" points="97.8,66.1 100.4,64 103.6,65 104.1,68.6 101.1,70.9 98.3,69.7 								"/>
								<polygon class="st2" points="105.5,64.5 108,62.5 111.3,63.4 111.7,67.1 108.7,69.3 105.9,68.1 								"/>
								<polygon class="st2" points="112.9,62.7 115.4,60.7 118.7,61.7 119.1,65.3 116.1,67.5 113.3,66.3 								"/>
								<polyline class="st2" points="87.7,74.5 89.7,72.9 93,73.9 93.4,77.5 91.6,78.9 								"/>
								<polygon class="st2" points="94.8,73.2 97.4,71.1 100.7,72.1 101.1,75.7 98.1,78 95.3,76.7 								"/>
								<polygon class="st2" points="102.5,71.6 105,69.5 108.3,70.5 108.7,74.1 105.7,76.4 102.9,75.1 								"/>
								<polygon class="st2" points="109.8,69.9 112.4,67.9 115.7,68.8 116.1,72.5 113.1,74.7 110.3,73.5 								"/>
								<polygon class="st2" points="123.5,70.8 120.5,73.1 117.7,71.8 117.2,68.3 119.8,66.2 123.1,67.2 								"/>
								<polygon class="st2" points="114.6,75.4 117.1,73.3 120.4,74.3 120.8,77.9 117.8,80.2 115,79 								"/>
								<g>
									<polygon class="st2" points="60.1,87.2 62.6,85.2 65.9,86.1 66.4,89.8 63.4,92 60.5,90.8 									"/>
									<polygon class="st2" points="64.9,92.9 67.5,90.8 70.7,91.8 71.2,95.4 68.2,97.7 65.3,96.4 									"/>
									<polygon class="st2" points="72.7,91 75.3,88.9 78.5,89.9 79,93.5 76,95.8 73.1,94.6 									"/>
									<polygon class="st2" points="81,89 83.6,87 86.9,87.9 87.3,91.6 84.3,93.8 81.5,92.6 									"/>
									<polygon class="st2" points="96.8,85.5 99.3,83.5 102.6,84.4 103.1,88.1 100.1,90.3 97.2,89.1 									"/>
									<polygon class="st2" points="104.4,83.9 106.9,81.9 110.2,82.8 110.6,86.5 107.6,88.7 104.8,87.5 									"/>
									<polygon class="st2" points="112.1,82.3 114.7,80.2 117.9,81.2 118.4,84.8 115.4,87.1 112.5,85.9 									"/>
									<polygon class="st2" points="68,85.6 70.5,83.5 73.8,84.5 74.2,88.1 71.2,90.4 68.4,89.2 									"/>
									<polygon class="st2" points="76,83.8 78.6,81.7 81.9,82.7 82.3,86.3 79.3,88.6 76.5,87.4 									"/>
									<polyline class="st2" points="92.4,80.1 94.5,78.3 97.8,79.3 98.2,82.9 95.2,85.2 									"/>
									<polygon class="st2" points="99.6,78.6 102.2,76.5 105.5,77.5 105.9,81.2 102.9,83.4 100.1,82.2 									"/>
									<polygon class="st2" points="107.3,77 109.8,74.9 113.1,75.9 113.5,79.6 110.5,81.8 107.7,80.6 									"/>
								</g>
							</g>
							<g>
								<path class="st2" d="M170.2,39.7l-2.1,0.4c0,0-2.2,0.4-0.7,0.9c1.6,0.4,3.5,0.8,3.5,0.8s3.4,1.1,4.1,2
									c0.7,0.9,2.5,0.7,3.3,0.5c0.8-0.2,5.2-1.1,5.2-1.1l9.8-0.6c0,0,2.3,0.2,2.2-1.3s-1-5-1-5s-0.3-1.1-2.2-0.7
									C190.5,35.8,170.2,39.7,170.2,39.7z"/>
								<path class="st2" d="M171.8,41.9c0,0-0.1-1.4,3-2.4l0.2,3.6l8.5-1.5c0,0,3.8-0.4,6.3,0.6"/>
								<path class="st2" d="M190.1,42.4c2.4-0.7,1.1-2.2,1.1-2.2c-1.6-1.9-8.2-2.1-8.2-2.1l0.4,3.3"/>
								<polyline class="st2" points="161.8,42.6 165.4,43.7 167.4,45.6 171.2,48.3 171.4,54.9 169.7,55.2 								"/>
								<path class="st2" d="M171.5,49.9l2.9,1.6c0,0,2.4,0.9,5.1,0.3c2.7-0.6,17.4-4.4,17.4-4.4s1.4-0.6,1.5-1.6
									c0.1-1-0.1-3.9-0.1-3.9"/>
								<path class="st2" d="M244.8,26l-2.1-1.7L156.3,41l0.5,3.9l1.3,1.1l3.5-0.4l1,0.7l0.1,3.6l6.8,5.2l-0.2-6.7l-5.3-3.3
									c0,0-0.8-1.8-5.3-1.9c0,0-1.2-0.9,0.7-1c1.9-0.1,4-0.5,4-0.5l6,1.3l4,2c0,0,2.4,1.1,5.6,0.4c3.2-0.7,4.9-1.2,4.9-1.2l10-0.5
									l2.8-0.5c0,0,1.6-0.2,1.4-1.9c-0.1-1.7-1-4.9-1-4.9s-0.7-0.7,1.3-1.1C200.5,34.8,244.8,26,244.8,26l-0.1,3.8l-46.4,9.1"/>
								<line class="st2" x1="244.8" y1="25.8" x2="251.4" y2="24.6"/>
								<line class="st2" x1="245.4" y1="27.9" x2="254.2" y2="26.2"/>
								<line class="st2" x1="178.5" y1="45.7" x2="179.4" y2="51.8"/>
							</g>
							<polygon points="180.9,47.1 181.3,49.4 183.3,47.8 							"/>
							<line class="st2" x1="45.5" y1="25.7" x2="53.6" y2="62.5"/>
							<line class="st2" x1="45.9" y1="64.4" x2="41.8" y2="49.2"/>
							<polyline class="st2" points="45.1,39.4 43.5,39.6 45.9,41.7 48.7,55.7 48.7,64 							"/>
							<path class="st2" d="M45.2,39.2c0,0,2.4,1.5,2.6,2.8c0.3,1.3,2.6,13,2.6,13l-0.1,8.1"/>
							<polyline class="st2" points="46.8,64 47.2,55.8 44.6,43.2 42.3,38.9 							"/>
						</g>
					</g>
				</g>
				<circle class="st9" cx="173.8" cy="78.5" r="72.8"/>
				<path class="st10" d="M180.9,102.1l8.6,5.1l-18.2,7.1l2.4-3.1c-15.6-1.5-21.2-9.8-21.2-9.8l9.5-2.3c0,0,5.4,4.9,16.8,5.6
					L180.9,102.1z"/>
				<path d="M147,54.8"/>
				<path d="M147.1,54.6"/>
				<g>
					<polyline class="st11" points="131.3,103.7 111.5,107.7 110.7,99.4 130.6,95.4 130.3,92.6 138.1,99.1 131.6,106.6 131.3,103.7 
											"/>
				</g>
			</g>
		</g>
		<path class="st2" d="M217.9,42.4c0,0-1.5,0-1.5,1.1l1.1,21.2c0,0-0.1,1.4,1.5,1.1S230,63,230,63s0.9-0.1,0.8-2.4
			c-0.1-2.3-0.6-19.1-0.6-19.1s0.1-1.9-1.4-1.5C227.2,40.4,217.9,42.4,217.9,42.4z"/>
		<path class="st2" d="M229.9,40.3l-2.9-2.7c-0.2-0.3-0.5-0.4-1.1-0.3c-1.5,0.4-10.8,2.4-10.8,2.4s-1.5,0-1.5,1.1l1.1,21.2
			c0,0,0,0.4,0.2,0.7l2.9,2.9"/>
		<path class="st1" d="M224.2,64.5l-38.5,52.3c0,0-2.1,2.4,1.3,4l2.9,1.5l3.6,4.3l7.6,0.5l5.8,2.2l1.4-1.8l12.6,0.4
			c0,0,1.8,0.2,1.8-1.8s-0.3-5-0.3-5l9.5-19.8l-0.1-4.1c0,0,0.2-1-2.3-1.6c-2.4-0.6-7.9-2.2-7.9-2.2l18.1-26.3l-6.4-5L224.2,64.5z"
			/>
		<g>
			<path class="st2" d="M224.1,64.6l-38.5,52.5c0,0-1.5,1.9,0.7,3.3c2.1,1.4,4.2,2.2,4.2,2.2s1.2,0.7,2.9,0.1"/>
			<polyline class="st2" points="201.2,126.7 201.2,123.3 206.9,125.3 206.9,129.1 			"/>
			<polyline class="st2" points="208,127.2 208,123.2 201.2,123.2 			"/>
			<line class="st2" x1="207" y1="125" x2="207.8" y2="123.3"/>
			<path class="st2" d="M238.3,65.7c-4.5,6.9-16.6,25.2-17.5,26.1c-1.1,1.1,0.3,1.6,0.3,1.6s7.5,1.9,9.4,2.4
				c1.8,0.5,1.4,1.7,1.4,1.7s-8.9,17.8-9.7,19.3c-0.8,1.6-3.3,1.5-3.3,1.5l-8.3,0c0,0-10.1,1.6-11.5,2.2s0.1,1.1,0.1,1.1l10.2-1.7
				l12.8,0.1l0.6,0.6"/>
			<path class="st2" d="M193.7,122.9l4.7,0c0,0,6.7-1.2,8.5-1.5s3.3-0.4,3.3-0.4l11.9,0l0.5,0.6c0,0,0.1,4.3,0.2,5.2
				c0,0.9-0.9,1-0.9,1l-10.2-0.3l-3.8-0.1l-0.7,1.8l-6-2.1l-7.4-0.6l-0.6-3.9l43-58.5"/>
			<path class="st2" d="M241.8,60.6"/>
			<line class="st2" x1="221.8" y1="93.5" x2="239.6" y2="66.7"/>
			<polyline class="st2" points="231.9,97.1 231.9,101.3 222.6,121.6 			"/>
			<path class="st2" d="M223.5,110.7c-0.3,0.6-4.3,6.2-4.3,6.2l-7.5,0l-11.5,1.7c0,0-1.7,0.5-0.7-0.8l8.2-9.4"/>
			<path class="st2" d="M223.5,110.6c0,0-0.1-2.2-5.2-3.2c-5.2-1-10.5,1.2-10.5,1.2l0.1,3.5c0,0,7.5-3.7,14.6,0.4"/>
			<path class="st2" d="M201.8,115.6c0,0,0.4,1.7,2.1,2.2"/>
			<line class="st2" x1="208" y1="112" x2="203.5" y2="117.4"/>
			<line class="st2" x1="212.1" y1="121.2" x2="212.1" y2="127.4"/>
			<line class="st2" x1="213.7" y1="121.3" x2="213.7" y2="127.6"/>
			<line class="st2" x1="215.3" y1="121.5" x2="215.3" y2="127.8"/>
			<line class="st2" x1="216.9" y1="121.3" x2="216.9" y2="127.6"/>
			<line class="st2" x1="218.5" y1="121.4" x2="218.5" y2="127.7"/>
			<line class="st2" x1="220.1" y1="121.5" x2="220.1" y2="127.8"/>
			<line class="st2" x1="193.8" y1="126.6" x2="189.7" y2="122.5"/>
		</g>
	</g>
	<line class="st12" x1="160.8" y1="125.1" x2="135.6" y2="218.7"/>
	<line class="st13" x1="160.8" y1="125.1" x2="135.6" y2="218.7"/>
</g>
</svg>
