<?xml version="1.0" encoding="utf-8"?>
<!-- Generator: Adobe Illustrator 26.5.0, SVG Export Plug-In . SVG Version: 6.00 Build 0)  -->
<svg version="1.1" xmlns="http://www.w3.org/2000/svg" xmlns:xlink="http://www.w3.org/1999/xlink" x="0px" y="0px"
	 viewBox="0 0 464.4 165" style="enable-background:new 0 0 464.4 165;" xml:space="preserve">
<style type="text/css">
	.st0{clip-path:url(#SVGID_00000096755316393715708560000016549048174427319977_);fill:#E6E6E6;}
	.st1{clip-path:url(#SVGID_00000096755316393715708560000016549048174427319977_);fill:#808080;}
	.st2{clip-path:url(#SVGID_00000096755316393715708560000016549048174427319977_);}
	.st3{fill:#B3B3B3;}
	.st4{fill:#E6E6E6;}
	.st5{fill:#272626;}
	.st6{fill:none;stroke:#010101;stroke-width:0.5605;stroke-miterlimit:10;}
	.st7{fill:none;stroke:#E6E6E6;stroke-width:0.5605;stroke-miterlimit:10;}
	
		.st8{clip-path:url(#SVGID_00000096755316393715708560000016549048174427319977_);fill:none;stroke:#FFFFFF;stroke-width:2.242;stroke-linecap:round;stroke-linejoin:round;stroke-miterlimit:10;}
	
		.st9{clip-path:url(#SVGID_00000096755316393715708560000016549048174427319977_);fill:none;stroke:#B3B3B3;stroke-width:0.8407;stroke-linecap:round;stroke-linejoin:round;stroke-miterlimit:10;stroke-dasharray:1.6815;}
	.st10{fill:#404040;}
	.st11{fill:#FFFFFF;}
	.st12{fill-rule:evenodd;clip-rule:evenodd;fill:#FFFFFF;}
	.st13{fill:none;stroke:#4E4F4F;stroke-width:0.2802;stroke-miterlimit:10;}
	.st14{fill:#4E4F4F;}
	
		.st15{clip-path:url(#SVGID_00000096755316393715708560000016549048174427319977_);fill:none;stroke:#231F20;stroke-width:0.5605;stroke-linecap:round;stroke-linejoin:round;stroke-miterlimit:10;}
	.st16{fill:#0A78BE;}
	.st17{fill:none;}
	.st18{font-family:'Gotham-Medium';}
	.st19{font-size:10.2746px;}
	.st20{clip-path:url(#SVGID_00000172418819054635242310000002053210668432849317_);fill:#E6E6E6;}
	.st21{clip-path:url(#SVGID_00000172418819054635242310000002053210668432849317_);fill:#808080;}
	.st22{clip-path:url(#SVGID_00000172418819054635242310000002053210668432849317_);}
	.st23{clip-path:url(#SVGID_00000029028650870636538750000000326613653836608182_);fill:#E6E6E6;}
	.st24{clip-path:url(#SVGID_00000029028650870636538750000000326613653836608182_);fill:#808080;}
	.st25{clip-path:url(#SVGID_00000029028650870636538750000000326613653836608182_);}
	.st26{clip-path:url(#SVGID_00000029028650870636538750000000326613653836608182_);fill:#010101;}
	.st27{clip-path:url(#SVGID_00000029028650870636538750000000326613653836608182_);fill:#EE7623;}
	.st28{clip-path:url(#SVGID_00000029028650870636538750000000326613653836608182_);fill:#B3B3B3;}
	
		.st29{clip-path:url(#SVGID_00000029028650870636538750000000326613653836608182_);fill-rule:evenodd;clip-rule:evenodd;fill:#FFFFFF;}
	
		.st30{clip-path:url(#SVGID_00000029028650870636538750000000326613653836608182_);fill:none;stroke:#4E4F4F;stroke-width:0.2802;stroke-miterlimit:10;}
	.st31{fill:#010101;}
	.st32{fill:#EE7623;}
	.st33{fill:#38B34A;}
	.st34{fill:none;stroke:#231F20;stroke-width:0.5605;stroke-linecap:round;stroke-linejoin:round;stroke-miterlimit:10;}
	
		.st35{fill:none;stroke:#6E6F71;stroke-width:0.9785;stroke-linecap:round;stroke-linejoin:round;stroke-miterlimit:10;stroke-dasharray:0.2446,2.9356;}
	.st36{fill:#747474;}
	.st37{fill:none;stroke:#FFFFFF;stroke-width:1.6815;stroke-linecap:round;stroke-linejoin:round;stroke-miterlimit:10;}
	.st38{fill:#FFFFFF;stroke:#FFFFFF;stroke-width:1.6815;stroke-linecap:round;stroke-linejoin:round;stroke-miterlimit:10;}
	.st39{fill-rule:evenodd;clip-rule:evenodd;fill:#DDDDDD;}
	.st40{fill:none;stroke:#8C8C8C;stroke-width:0;stroke-linecap:round;stroke-linejoin:round;stroke-miterlimit:10;}
	.st41{fill-rule:evenodd;clip-rule:evenodd;fill:none;}
	.st42{fill-rule:evenodd;clip-rule:evenodd;fill:#747474;}
	.st43{fill:none;stroke:#272626;stroke-width:0;stroke-linecap:round;stroke-linejoin:round;stroke-miterlimit:10;}
	.st44{fill-rule:evenodd;clip-rule:evenodd;fill:#4E4F4F;}
	.st45{fill:none;stroke:#606060;stroke-width:0;stroke-linecap:round;stroke-linejoin:round;stroke-miterlimit:10;}
	.st46{fill:none;stroke:#595A5A;stroke-width:0;stroke-linecap:round;stroke-linejoin:round;stroke-miterlimit:10;}
	.st47{fill:none;stroke:#333333;stroke-width:4.523504e-02;stroke-linecap:round;stroke-linejoin:round;stroke-miterlimit:10;}
	.st48{fill:none;stroke:#4E4F4F;stroke-width:0.2716;stroke-miterlimit:10;}
	.st49{fill:#99CA3C;}
	.st50{fill:#231F20;}
	.st51{font-family:'HelveticaNeue-Bold';}
	.st52{font-size:6px;}
</style>
<g id="Layer_1_copy">
	<g>
		<g>
			<defs>
				<rect id="SVGID_1_" x="-8.7" y="-3.8" width="186.9" height="154.6"/>
			</defs>
			<clipPath id="SVGID_00000165192765209347413820000005009218327384723104_">
				<use xlink:href="#SVGID_1_"  style="overflow:visible;"/>
			</clipPath>
			
				<rect x="81.1" y="28.8" style="clip-path:url(#SVGID_00000165192765209347413820000005009218327384723104_);fill:#E6E6E6;" width="494.6" height="96.6"/>
			
				<rect x="82.4" y="33" style="clip-path:url(#SVGID_00000165192765209347413820000005009218327384723104_);fill:#808080;" width="488.5" height="88.6"/>
			<g style="clip-path:url(#SVGID_00000165192765209347413820000005009218327384723104_);">
				<rect x="86.4" y="34.8" class="st3" width="15.2" height="5.9"/>
				<path class="st4" d="M86.4,40.1c0,0,7.9-4.3,15.2,0v79.5H86.3L86.4,40.1z"/>
				<path class="st5" d="M94,93.4L94,93.4c-3.2,0-5.8-2.6-5.8-5.8V68.3c0-3.2,2.6-5.8,5.8-5.8h0c3.2,0,5.8,2.6,5.8,5.8v19.2
					C99.8,90.7,97.2,93.4,94,93.4z"/>
				<circle class="st5" cx="94" cy="47.8" r="2.4"/>
				<line class="st6" x1="86.3" y1="55" x2="101.6" y2="55"/>
				<line class="st7" x1="88.4" y1="68.3" x2="99.5" y2="68.3"/>
				<rect x="91.5" y="98.9" class="st3" width="4.9" height="13.3"/>
			</g>
			<g style="clip-path:url(#SVGID_00000165192765209347413820000005009218327384723104_);">
				<rect x="106.6" y="34.8" class="st3" width="15.2" height="5.9"/>
				<path class="st4" d="M106.5,40.1c0,0,7.9-4.3,15.2,0v79.5h-15.3L106.5,40.1z"/>
				<path class="st5" d="M114.1,93.4L114.1,93.4c-3.2,0-5.8-2.6-5.8-5.8V68.3c0-3.2,2.6-5.8,5.8-5.8h0c3.2,0,5.8,2.6,5.8,5.8v19.2
					C120,90.7,117.3,93.4,114.1,93.4z"/>
				<circle class="st5" cx="114.1" cy="47.8" r="2.4"/>
				<line class="st6" x1="106.5" y1="55" x2="121.7" y2="55"/>
				<line class="st7" x1="108.6" y1="68.3" x2="119.7" y2="68.3"/>
				<rect x="111.7" y="98.9" class="st3" width="4.9" height="13.3"/>
			</g>
			<g style="clip-path:url(#SVGID_00000165192765209347413820000005009218327384723104_);">
				<rect x="126.7" y="34.8" class="st3" width="15.2" height="5.9"/>
				<path class="st4" d="M126.7,40.1c0,0,7.9-4.3,15.2,0v79.5h-15.3L126.7,40.1z"/>
				<path class="st5" d="M134.3,93.4L134.3,93.4c-3.2,0-5.8-2.6-5.8-5.8V68.3c0-3.2,2.6-5.8,5.8-5.8h0c3.2,0,5.8,2.6,5.8,5.8v19.2
					C140.1,90.7,137.5,93.4,134.3,93.4z"/>
				<circle class="st5" cx="134.3" cy="47.8" r="2.4"/>
				<line class="st6" x1="126.6" y1="55" x2="141.9" y2="55"/>
				<line class="st7" x1="128.7" y1="68.3" x2="139.8" y2="68.3"/>
				<rect x="131.8" y="98.9" class="st3" width="4.9" height="13.3"/>
			</g>
			<g style="clip-path:url(#SVGID_00000165192765209347413820000005009218327384723104_);">
				<rect x="146.9" y="34.8" class="st3" width="15.2" height="5.9"/>
				<path class="st4" d="M146.9,40.1c0,0,7.9-4.3,15.2,0v79.5h-15.3L146.9,40.1z"/>
				<path class="st5" d="M154.4,93.4L154.4,93.4c-3.2,0-5.8-2.6-5.8-5.8V68.3c0-3.2,2.6-5.8,5.8-5.8l0,0c3.2,0,5.8,2.6,5.8,5.8v19.2
					C160.3,90.7,157.7,93.4,154.4,93.4z"/>
				<circle class="st5" cx="154.4" cy="47.8" r="2.4"/>
				<line class="st6" x1="146.8" y1="55" x2="162" y2="55"/>
				<line class="st7" x1="148.9" y1="68.3" x2="160" y2="68.3"/>
				<rect x="152" y="98.9" class="st3" width="4.9" height="13.3"/>
			</g>
			<g style="clip-path:url(#SVGID_00000165192765209347413820000005009218327384723104_);">
				<rect x="167" y="34.8" class="st3" width="15.2" height="5.9"/>
				<path class="st4" d="M167,40.1c0,0,7.9-4.3,15.2,0v79.5H167L167,40.1z"/>
				<path class="st5" d="M174.6,93.4L174.6,93.4c-3.2,0-5.8-2.6-5.8-5.8V68.3c0-3.2,2.6-5.8,5.8-5.8l0,0c3.2,0,5.8,2.6,5.8,5.8v19.2
					C180.4,90.7,177.8,93.4,174.6,93.4z"/>
				<circle class="st5" cx="174.6" cy="47.8" r="2.4"/>
				<line class="st6" x1="167" y1="55" x2="182.2" y2="55"/>
				<line class="st7" x1="169.1" y1="68.3" x2="180.2" y2="68.3"/>
				<rect x="172.1" y="98.9" class="st3" width="4.9" height="13.3"/>
			</g>
			<g style="clip-path:url(#SVGID_00000165192765209347413820000005009218327384723104_);">
				<rect x="187.2" y="34.8" class="st3" width="15.2" height="5.9"/>
				<path class="st4" d="M187.2,40.1c0,0,7.9-4.3,15.2,0v79.5h-15.3L187.2,40.1z"/>
				<path class="st5" d="M194.8,93.4L194.8,93.4c-3.2,0-5.8-2.6-5.8-5.8V68.3c0-3.2,2.6-5.8,5.8-5.8h0c3.2,0,5.8,2.6,5.8,5.8v19.2
					C200.6,90.7,198,93.4,194.8,93.4z"/>
				<circle class="st5" cx="194.8" cy="47.8" r="2.4"/>
				<line class="st6" x1="187.1" y1="55" x2="202.4" y2="55"/>
				<line class="st7" x1="189.2" y1="68.3" x2="200.3" y2="68.3"/>
				<rect x="192.3" y="98.9" class="st3" width="4.9" height="13.3"/>
			</g>
			<g style="clip-path:url(#SVGID_00000165192765209347413820000005009218327384723104_);">
				<rect x="207.4" y="34.8" class="st3" width="15.2" height="5.9"/>
				<path class="st4" d="M207.3,40.1c0,0,7.9-4.3,15.2,0v79.5h-15.3L207.3,40.1z"/>
				<path class="st5" d="M214.9,93.4L214.9,93.4c-3.2,0-5.8-2.6-5.8-5.8V68.3c0-3.2,2.6-5.8,5.8-5.8h0c3.2,0,5.8,2.6,5.8,5.8v19.2
					C220.8,90.7,218.1,93.4,214.9,93.4z"/>
				<circle class="st5" cx="214.9" cy="47.8" r="2.4"/>
				<line class="st6" x1="207.3" y1="55" x2="222.5" y2="55"/>
				<line class="st7" x1="209.4" y1="68.3" x2="220.5" y2="68.3"/>
				<rect x="212.5" y="98.9" class="st3" width="4.9" height="13.3"/>
			</g>
			
				<path style="clip-path:url(#SVGID_00000165192765209347413820000005009218327384723104_);fill:none;stroke:#FFFFFF;stroke-width:2.242;stroke-linecap:round;stroke-linejoin:round;stroke-miterlimit:10;" d="
				M82.7,127.4h-26V26.9h26C82.7,26.9,87.9,71.7,82.7,127.4z"/>
			
				<path style="clip-path:url(#SVGID_00000165192765209347413820000005009218327384723104_);fill:none;stroke:#B3B3B3;stroke-width:0.8407;stroke-linecap:round;stroke-linejoin:round;stroke-miterlimit:10;stroke-dasharray:1.6815;" d="
				M82.7,127.4h-26V26.9h26C82.7,26.9,87.9,71.7,82.7,127.4z"/>
			<g style="clip-path:url(#SVGID_00000165192765209347413820000005009218327384723104_);">
				<path class="st5" d="M44.8,134.1H19.6V33.6h25.3C44.8,33.6,50,78.5,44.8,134.1z"/>
				<path class="st10" d="M44.1,134.1l-1.7,1l-23.5-1l-2.5-99.5l2.5-1h25.3c0,0,0.2,1.5,0.4,4.2C45.6,50.1,48.3,88.5,44.1,134.1z"/>
				<polygon class="st11" points="41.9,94.5 26.8,94.5 26.8,85.4 34.2,85.4 41.9,85.4 				"/>
				<circle class="st11" cx="34" cy="60.5" r="2"/>
				<circle class="st11" cx="34" cy="67.3" r="2"/>
				<circle class="st11" cx="34" cy="74.1" r="2"/>
				<path class="st12" d="M40.1,65.5c0-0.3-0.2-0.4-0.4-0.4c-0.2,0-0.4,0.2-0.4,0.4l0.3,2.4c0,0.1,0.1,0.1,0.1,0.1
					c0.1,0,0.1-0.1,0.1-0.1L40.1,65.5 M40.2,69c0-0.3-0.2-0.5-0.5-0.5c-0.3,0-0.5,0.2-0.5,0.5c0,0.2,0.2,0.4,0.5,0.4
					C40,69.3,40.2,69.1,40.2,69z"/>
				<line class="st13" x1="34.5" y1="95.5" x2="34.5" y2="83.9"/>
				<path class="st12" d="M41.6,59.8c-0.3-1-1.4-1.6-2.4-1.4c-1.1,0.3-1.7,1.4-1.4,2.5c0.3,1,1.4,1.6,2.5,1.4
					C41.3,62,41.9,60.9,41.6,59.8 M41.3,60.2c0.1,0.8-0.5,1.7-1.4,1.8c-0.7,0.1-1.4-0.3-1.6-0.9l1.1-1.1l0.5,1.8L41.3,60.2z
					 M38.1,60.6c-0.1-0.9,0.5-1.8,1.4-1.8c0.7-0.1,1.4,0.3,1.7,0.9l-1.1,1.1l-0.5-1.8L38.1,60.6z"/>
				<path class="st12" d="M41.7,74c0-1.1-0.9-2-2-2c-1.1,0-2,0.9-2,2c0,1.2,0.9,2,2,2C40.8,76.1,41.7,75.2,41.7,74z M41.2,74
					c0,0.9-0.7,1.5-1.5,1.5c-0.8,0-1.5-0.6-1.5-1.5c0-0.8,0.7-1.5,1.5-1.5C40.5,72.6,41.2,73.2,41.2,74z M40,73.6
					c0,0.2-0.1,0.3-0.3,0.3c-0.2,0-0.3-0.1-0.3-0.3s0.1-0.3,0.3-0.3C39.9,73.3,40,73.5,40,73.6z M39,74l0.6,1.2c0,0,0.1,0.1,0.1,0
					l0.6-1.2c0.2-0.4,0-0.8-0.3-1c-0.4-0.2-0.8-0.1-1,0.3C38.9,73.5,38.9,73.8,39,74z"/>
			</g>
			<g style="clip-path:url(#SVGID_00000165192765209347413820000005009218327384723104_);">
				<path class="st5" d="M42.4,135.1H17.1V34.6h25.3C42.4,34.6,47.6,79.4,42.4,135.1z"/>
				<path class="st14" d="M41.6,135.1H16.4V34.6h25.3C41.6,34.6,46.8,79.4,41.6,135.1z"/>
				<polygon class="st11" points="39.4,95.5 24.3,95.5 24.3,86.4 31.7,86.4 39.4,86.4 				"/>
				<circle class="st11" cx="27.2" cy="66.3" r="2"/>
				<circle class="st11" cx="27.2" cy="73.2" r="2"/>
				<circle class="st11" cx="27.2" cy="80" r="2"/>
				<path class="st12" d="M33.3,71.4c0-0.3-0.2-0.4-0.4-0.4c-0.2,0-0.4,0.2-0.4,0.4l0.3,2.4c0,0.1,0.1,0.1,0.1,0.1
					c0.1,0,0.1-0.1,0.1-0.1L33.3,71.4 M33.4,74.8c0-0.3-0.2-0.5-0.5-0.5c-0.3,0-0.5,0.2-0.5,0.5c0,0.2,0.2,0.4,0.5,0.4
					C33.2,75.2,33.4,75,33.4,74.8z"/>
				<line class="st13" x1="32" y1="96.5" x2="32" y2="84.8"/>
				<path class="st12" d="M34.8,65.7c-0.3-1-1.4-1.6-2.4-1.4c-1.1,0.3-1.7,1.4-1.4,2.5c0.3,1,1.4,1.6,2.5,1.4
					C34.5,67.9,35.1,66.8,34.8,65.7 M34.5,66.1c0.1,0.8-0.5,1.7-1.4,1.8c-0.7,0.1-1.4-0.3-1.6-0.9l1.1-1.1l0.5,1.8L34.5,66.1z
					 M31.3,66.5c-0.1-0.9,0.5-1.8,1.4-1.8c0.7-0.1,1.4,0.3,1.7,0.9l-1.1,1.1l-0.5-1.8L31.3,66.5z"/>
				<path class="st12" d="M34.9,79.9c0-1.1-0.9-2-2-2c-1.1,0-2,0.9-2,2c0,1.2,0.9,2,2,2C34,82,34.9,81.1,34.9,79.9z M34.4,79.9
					c0,0.9-0.7,1.5-1.5,1.5c-0.8,0-1.5-0.6-1.5-1.5c0-0.8,0.7-1.5,1.5-1.5C33.7,78.4,34.4,79.1,34.4,79.9z M33.2,79.5
					c0,0.2-0.1,0.3-0.3,0.3c-0.2,0-0.3-0.1-0.3-0.3s0.1-0.3,0.3-0.3C33.1,79.2,33.2,79.3,33.2,79.5z M32.2,79.9l0.6,1.2
					c0,0,0.1,0.1,0.1,0l0.6-1.2c0.2-0.4,0-0.8-0.3-1c-0.4-0.2-0.8-0.1-1,0.3C32.1,79.4,32.1,79.6,32.2,79.9z"/>
			</g>
			
				<line style="clip-path:url(#SVGID_00000165192765209347413820000005009218327384723104_);fill:none;stroke:#231F20;stroke-width:0.5605;stroke-linecap:round;stroke-linejoin:round;stroke-miterlimit:10;" x1="25.2" y1="24" x2="29.8" y2="31.9"/>
		</g>
		<g>
			<circle class="st16" cx="20" cy="13.7" r="8"/>
			<rect x="11.5" y="9.7" class="st17" width="16.7" height="8.1"/>
			<text transform="matrix(1 0 0 1 17.8307 17.188)" class="st11 st18 st19">1</text>
		</g>
	</g>
	<g>
		<g>
			<defs>
				<rect id="SVGID_00000015315573784912426250000007513431486436213183_" x="191.1" y="25.5" width="136" height="134.5"/>
			</defs>
			<clipPath id="SVGID_00000110440488963260300720000014730256485083181723_">
				<use xlink:href="#SVGID_00000015315573784912426250000007513431486436213183_"  style="overflow:visible;"/>
			</clipPath>
			
				<rect x="231.3" y="29.4" style="clip-path:url(#SVGID_00000110440488963260300720000014730256485083181723_);fill:#E6E6E6;" width="493.1" height="96.6"/>
			
				<rect x="231.2" y="33.6" style="clip-path:url(#SVGID_00000110440488963260300720000014730256485083181723_);fill:#808080;" width="488.5" height="88.6"/>
			<g style="clip-path:url(#SVGID_00000110440488963260300720000014730256485083181723_);">
				<rect x="235.2" y="35.4" class="st3" width="15.2" height="5.9"/>
				<path class="st4" d="M235.1,40.7c0,0,7.9-4.3,15.2,0v79.5h-15.3L235.1,40.7z"/>
				<path class="st5" d="M242.7,93.9L242.7,93.9c-3.2,0-5.8-2.6-5.8-5.8V68.9c0-3.2,2.6-5.8,5.8-5.8l0,0c3.2,0,5.8,2.6,5.8,5.8v19.2
					C248.6,91.3,245.9,93.9,242.7,93.9z"/>
				<circle class="st5" cx="242.7" cy="48.4" r="2.4"/>
				<line class="st6" x1="235.1" y1="55.6" x2="250.3" y2="55.6"/>
				<line class="st7" x1="237.2" y1="68.9" x2="248.3" y2="68.9"/>
				<rect x="240.3" y="99.5" class="st3" width="4.9" height="13.3"/>
			</g>
			<g style="clip-path:url(#SVGID_00000110440488963260300720000014730256485083181723_);">
				<rect x="255.3" y="35.4" class="st3" width="15.2" height="5.9"/>
				<path class="st4" d="M255.3,40.7c0,0,7.9-4.3,15.2,0v79.5h-15.3L255.3,40.7z"/>
				<path class="st5" d="M262.9,93.9L262.9,93.9c-3.2,0-5.8-2.6-5.8-5.8V68.9c0-3.2,2.6-5.8,5.8-5.8l0,0c3.2,0,5.8,2.6,5.8,5.8v19.2
					C268.7,91.3,266.1,93.9,262.9,93.9z"/>
				<circle class="st5" cx="262.9" cy="48.4" r="2.4"/>
				<line class="st6" x1="255.3" y1="55.6" x2="270.5" y2="55.6"/>
				<line class="st7" x1="257.3" y1="68.9" x2="268.4" y2="68.9"/>
				<rect x="260.4" y="99.5" class="st3" width="4.9" height="13.3"/>
			</g>
			<g style="clip-path:url(#SVGID_00000110440488963260300720000014730256485083181723_);">
				<rect x="275.5" y="35.4" class="st3" width="15.2" height="5.9"/>
				<path class="st4" d="M275.5,40.7c0,0,7.9-4.3,15.2,0v79.5h-15.3L275.5,40.7z"/>
				<path class="st5" d="M283,93.9L283,93.9c-3.2,0-5.8-2.6-5.8-5.8V68.9c0-3.2,2.6-5.8,5.8-5.8l0,0c3.2,0,5.8,2.6,5.8,5.8v19.2
					C288.9,91.3,286.3,93.9,283,93.9z"/>
				<circle class="st5" cx="283" cy="48.4" r="2.4"/>
				<line class="st6" x1="275.4" y1="55.6" x2="290.7" y2="55.6"/>
				<line class="st7" x1="277.5" y1="68.9" x2="288.6" y2="68.9"/>
				<rect x="280.6" y="99.5" class="st3" width="4.9" height="13.3"/>
			</g>
			<g style="clip-path:url(#SVGID_00000110440488963260300720000014730256485083181723_);">
				<rect x="295.7" y="35.4" class="st3" width="15.2" height="5.9"/>
				<path class="st4" d="M295.6,40.7c0,0,7.9-4.3,15.2,0v79.5h-15.3L295.6,40.7z"/>
				<path class="st5" d="M303.2,93.9L303.2,93.9c-3.2,0-5.8-2.6-5.8-5.8V68.9c0-3.2,2.6-5.8,5.8-5.8l0,0c3.2,0,5.8,2.6,5.8,5.8v19.2
					C309.1,91.3,306.4,93.9,303.2,93.9z"/>
				<circle class="st5" cx="303.2" cy="48.4" r="2.4"/>
				<line class="st6" x1="295.6" y1="55.6" x2="310.8" y2="55.6"/>
				<line class="st7" x1="297.7" y1="68.9" x2="308.8" y2="68.9"/>
				<rect x="300.8" y="99.5" class="st3" width="4.9" height="13.3"/>
			</g>
			<g style="clip-path:url(#SVGID_00000110440488963260300720000014730256485083181723_);">
				<rect x="315.8" y="35.4" class="st3" width="15.2" height="5.9"/>
				<path class="st4" d="M315.8,40.7c0,0,7.9-4.3,15.2,0v79.5h-15.3L315.8,40.7z"/>
				<path class="st5" d="M323.4,93.9L323.4,93.9c-3.2,0-5.8-2.6-5.8-5.8V68.9c0-3.2,2.6-5.8,5.8-5.8l0,0c3.2,0,5.8,2.6,5.8,5.8v19.2
					C329.2,91.3,326.6,93.9,323.4,93.9z"/>
				<circle class="st5" cx="323.4" cy="48.4" r="2.4"/>
				<line class="st6" x1="315.7" y1="55.6" x2="331" y2="55.6"/>
				<line class="st7" x1="317.8" y1="68.9" x2="328.9" y2="68.9"/>
				<rect x="320.9" y="99.5" class="st3" width="4.9" height="13.3"/>
			</g>
			<g style="clip-path:url(#SVGID_00000110440488963260300720000014730256485083181723_);">
				<rect x="336" y="35.4" class="st3" width="15.2" height="5.9"/>
				<path class="st4" d="M336,40.7c0,0,7.9-4.3,15.2,0v79.5h-15.3L336,40.7z"/>
				<path class="st5" d="M343.5,93.9L343.5,93.9c-3.2,0-5.8-2.6-5.8-5.8V68.9c0-3.2,2.6-5.8,5.8-5.8l0,0c3.2,0,5.8,2.6,5.8,5.8v19.2
					C349.4,91.3,346.8,93.9,343.5,93.9z"/>
				<circle class="st5" cx="343.5" cy="48.4" r="2.4"/>
				<line class="st6" x1="335.9" y1="55.6" x2="351.1" y2="55.6"/>
				<line class="st7" x1="338" y1="68.9" x2="349.1" y2="68.9"/>
				<rect x="341.1" y="99.5" class="st3" width="4.9" height="13.3"/>
			</g>
			<g style="clip-path:url(#SVGID_00000110440488963260300720000014730256485083181723_);">
				<rect x="356.1" y="35.4" class="st3" width="15.2" height="5.9"/>
				<path class="st4" d="M356.1,40.7c0,0,7.9-4.3,15.2,0v79.5h-15.3L356.1,40.7z"/>
				<path class="st5" d="M363.7,93.9L363.7,93.9c-3.2,0-5.8-2.6-5.8-5.8V68.9c0-3.2,2.6-5.8,5.8-5.8l0,0c3.2,0,5.8,2.6,5.8,5.8v19.2
					C369.5,91.3,366.9,93.9,363.7,93.9z"/>
				<circle class="st5" cx="363.7" cy="48.4" r="2.4"/>
				<line class="st6" x1="356.1" y1="55.6" x2="371.3" y2="55.6"/>
				<line class="st7" x1="358.1" y1="68.9" x2="369.2" y2="68.9"/>
				<rect x="361.2" y="99.5" class="st3" width="4.9" height="13.3"/>
			</g>
		</g>
	</g>
	<g>
		<g>
			<defs>
				<rect id="SVGID_00000052102482910309343670000012030572087366284181_" x="348.7" y="4.1" width="108.8" height="181.2"/>
			</defs>
			<clipPath id="SVGID_00000109031510397721258370000004158033738391259581_">
				<use xlink:href="#SVGID_00000052102482910309343670000012030572087366284181_"  style="overflow:visible;"/>
			</clipPath>
			
				<rect x="391.8" y="28.7" style="clip-path:url(#SVGID_00000109031510397721258370000004158033738391259581_);fill:#E6E6E6;" width="506.4" height="96.6"/>
			
				<rect x="404.9" y="32.8" style="clip-path:url(#SVGID_00000109031510397721258370000004158033738391259581_);fill:#808080;" width="488.5" height="88.6"/>
			<g style="clip-path:url(#SVGID_00000109031510397721258370000004158033738391259581_);">
				<rect x="408.9" y="34.7" class="st3" width="15.2" height="5.9"/>
				<path class="st4" d="M408.9,40c0,0,7.9-4.3,15.2,0v79.5h-15.3L408.9,40z"/>
				<path class="st5" d="M416.5,93.2L416.5,93.2c-3.2,0-5.8-2.6-5.8-5.8V68.1c0-3.2,2.6-5.8,5.8-5.8h0c3.2,0,5.8,2.6,5.8,5.8v19.2
					C422.3,90.6,419.7,93.2,416.5,93.2z"/>
				<circle class="st5" cx="416.5" cy="47.7" r="2.4"/>
				<line class="st6" x1="408.9" y1="54.8" x2="424.1" y2="54.8"/>
				<line class="st7" x1="410.9" y1="68.1" x2="422" y2="68.1"/>
				<rect x="414" y="98.8" class="st3" width="4.9" height="13.3"/>
			</g>
			<g style="clip-path:url(#SVGID_00000109031510397721258370000004158033738391259581_);">
				<rect x="429.1" y="34.7" class="st3" width="15.2" height="5.9"/>
				<path class="st4" d="M429.1,40c0,0,7.9-4.3,15.2,0v79.5H429L429.1,40z"/>
				<path class="st5" d="M436.6,93.2L436.6,93.2c-3.2,0-5.8-2.6-5.8-5.8V68.1c0-3.2,2.6-5.8,5.8-5.8h0c3.2,0,5.8,2.6,5.8,5.8v19.2
					C442.5,90.6,439.9,93.2,436.6,93.2z"/>
				<circle class="st5" cx="436.6" cy="47.7" r="2.4"/>
				<line class="st6" x1="429" y1="54.8" x2="444.3" y2="54.8"/>
				<line class="st7" x1="431.1" y1="68.1" x2="442.2" y2="68.1"/>
				<rect x="434.2" y="98.8" class="st3" width="4.9" height="13.3"/>
			</g>
			<g style="clip-path:url(#SVGID_00000109031510397721258370000004158033738391259581_);">
				<rect x="449.3" y="34.7" class="st3" width="15.2" height="5.9"/>
				<path class="st4" d="M449.2,40c0,0,7.9-4.3,15.2,0v79.5h-15.3L449.2,40z"/>
				<path class="st5" d="M456.8,93.2L456.8,93.2c-3.2,0-5.8-2.6-5.8-5.8V68.1c0-3.2,2.6-5.8,5.8-5.8h0c3.2,0,5.8,2.6,5.8,5.8v19.2
					C462.7,90.6,460,93.2,456.8,93.2z"/>
				<circle class="st5" cx="456.8" cy="47.7" r="2.4"/>
				<line class="st6" x1="449.2" y1="54.8" x2="464.4" y2="54.8"/>
				<line class="st7" x1="451.3" y1="68.1" x2="462.4" y2="68.1"/>
				<rect x="454.4" y="98.8" class="st3" width="4.9" height="13.3"/>
			</g>
			<g style="clip-path:url(#SVGID_00000109031510397721258370000004158033738391259581_);">
				<rect x="469.4" y="34.7" class="st3" width="15.2" height="5.9"/>
				<path class="st4" d="M469.4,40c0,0,7.9-4.3,15.2,0v79.5h-15.3L469.4,40z"/>
				<path class="st5" d="M477,93.2L477,93.2c-3.2,0-5.8-2.6-5.8-5.8V68.1c0-3.2,2.6-5.8,5.8-5.8h0c3.2,0,5.8,2.6,5.8,5.8v19.2
					C482.8,90.6,480.2,93.2,477,93.2z"/>
				<circle class="st5" cx="477" cy="47.7" r="2.4"/>
				<line class="st6" x1="469.3" y1="54.8" x2="484.6" y2="54.8"/>
				<line class="st7" x1="471.4" y1="68.1" x2="482.5" y2="68.1"/>
				<rect x="474.5" y="98.8" class="st3" width="4.9" height="13.3"/>
			</g>
			<g style="clip-path:url(#SVGID_00000109031510397721258370000004158033738391259581_);">
				<rect x="489.6" y="34.7" class="st3" width="15.2" height="5.9"/>
				<path class="st4" d="M489.6,40c0,0,7.9-4.3,15.2,0v79.5h-15.3L489.6,40z"/>
				<path class="st5" d="M497.1,93.2L497.1,93.2c-3.2,0-5.8-2.6-5.8-5.8V68.1c0-3.2,2.6-5.8,5.8-5.8h0c3.2,0,5.8,2.6,5.8,5.8v19.2
					C503,90.6,500.4,93.2,497.1,93.2z"/>
				<circle class="st5" cx="497.1" cy="47.7" r="2.4"/>
				<line class="st6" x1="489.5" y1="54.8" x2="504.7" y2="54.8"/>
				<line class="st7" x1="491.6" y1="68.1" x2="502.7" y2="68.1"/>
				<rect x="494.7" y="98.8" class="st3" width="4.9" height="13.3"/>
			</g>
			<g style="clip-path:url(#SVGID_00000109031510397721258370000004158033738391259581_);">
				<rect x="509.7" y="34.7" class="st3" width="15.2" height="5.9"/>
				<path class="st4" d="M509.7,40c0,0,7.9-4.3,15.2,0v79.5h-15.3L509.7,40z"/>
				<path class="st5" d="M517.3,93.2L517.3,93.2c-3.2,0-5.8-2.6-5.8-5.8V68.1c0-3.2,2.6-5.8,5.8-5.8l0,0c3.2,0,5.8,2.6,5.8,5.8v19.2
					C523.1,90.6,520.5,93.2,517.3,93.2z"/>
				<circle class="st5" cx="517.3" cy="47.7" r="2.4"/>
				<line class="st6" x1="509.7" y1="54.8" x2="524.9" y2="54.8"/>
				<line class="st7" x1="511.7" y1="68.1" x2="522.8" y2="68.1"/>
				<rect x="514.8" y="98.8" class="st3" width="4.9" height="13.3"/>
			</g>
			<g style="clip-path:url(#SVGID_00000109031510397721258370000004158033738391259581_);">
				<rect x="529.9" y="34.7" class="st3" width="15.2" height="5.9"/>
				<path class="st4" d="M529.9,40c0,0,7.9-4.3,15.2,0v79.5h-15.3L529.9,40z"/>
				<path class="st5" d="M537.5,93.2L537.5,93.2c-3.2,0-5.8-2.6-5.8-5.8V68.1c0-3.2,2.6-5.8,5.8-5.8l0,0c3.2,0,5.8,2.6,5.8,5.8v19.2
					C543.3,90.6,540.7,93.2,537.5,93.2z"/>
				<circle class="st5" cx="537.5" cy="47.7" r="2.4"/>
				<line class="st6" x1="529.8" y1="54.8" x2="545.1" y2="54.8"/>
				<line class="st7" x1="531.9" y1="68.1" x2="543" y2="68.1"/>
				<rect x="535" y="98.8" class="st3" width="4.9" height="13.3"/>
			</g>
			
				<circle style="clip-path:url(#SVGID_00000109031510397721258370000004158033738391259581_);fill:#010101;" cx="394.4" cy="53.6" r="2"/>
			
				<circle style="clip-path:url(#SVGID_00000109031510397721258370000004158033738391259581_);fill:#010101;" cx="394.4" cy="60.4" r="2"/>
			
				<circle style="clip-path:url(#SVGID_00000109031510397721258370000004158033738391259581_);fill:#010101;" cx="394.4" cy="67.2" r="2"/>
			
				<circle style="clip-path:url(#SVGID_00000109031510397721258370000004158033738391259581_);fill:#EE7623;" cx="396.1" cy="108.8" r="2"/>
			
				<circle style="clip-path:url(#SVGID_00000109031510397721258370000004158033738391259581_);fill:#B3B3B3;" cx="397.2" cy="96.4" r="2"/>
			
				<circle style="clip-path:url(#SVGID_00000109031510397721258370000004158033738391259581_);fill:#B3B3B3;" cx="397.2" cy="40.3" r="2"/>
			
				<path style="clip-path:url(#SVGID_00000109031510397721258370000004158033738391259581_);fill-rule:evenodd;clip-rule:evenodd;fill:#FFFFFF;" d="
				M400.5,58.6c0-0.3-0.2-0.4-0.4-0.4c-0.2,0-0.4,0.2-0.4,0.4L400,61c0,0.1,0.1,0.1,0.1,0.1c0.1,0,0.1-0.1,0.1-0.1L400.5,58.6
				 M400.6,62.1c0-0.3-0.2-0.5-0.5-0.5c-0.3,0-0.5,0.2-0.5,0.5c0,0.2,0.2,0.4,0.5,0.4C400.4,62.5,400.6,62.3,400.6,62.1z"/>
			
				<line style="clip-path:url(#SVGID_00000109031510397721258370000004158033738391259581_);fill:none;stroke:#4E4F4F;stroke-width:0.2802;stroke-miterlimit:10;" x1="394.9" y1="88.6" x2="394.9" y2="77"/>
			
				<path style="clip-path:url(#SVGID_00000109031510397721258370000004158033738391259581_);fill-rule:evenodd;clip-rule:evenodd;fill:#FFFFFF;" d="
				M402,53c-0.3-1-1.4-1.6-2.4-1.4c-1.1,0.3-1.7,1.4-1.4,2.5c0.3,1,1.4,1.6,2.5,1.4C401.8,55.1,402.3,54,402,53 M401.8,53.4
				c0.1,0.8-0.5,1.7-1.4,1.8c-0.7,0.1-1.4-0.3-1.6-0.9l1.1-1.1l0.5,1.8L401.8,53.4z M398.5,53.7c-0.1-0.9,0.5-1.8,1.4-1.8
				c0.7-0.1,1.4,0.3,1.7,0.9l-1.1,1.1l-0.5-1.8L398.5,53.7z"/>
			
				<path style="clip-path:url(#SVGID_00000109031510397721258370000004158033738391259581_);fill-rule:evenodd;clip-rule:evenodd;fill:#FFFFFF;" d="
				M402.1,67.1c0-1.1-0.9-2-2-2c-1.1,0-2,0.9-2,2c0,1.2,0.9,2,2,2C401.3,69.2,402.1,68.3,402.1,67.1z M401.6,67.1
				c0,0.9-0.7,1.5-1.5,1.5c-0.8,0-1.5-0.6-1.5-1.5c0-0.8,0.7-1.5,1.5-1.5C400.9,65.7,401.6,66.3,401.6,67.1z M400.4,66.8
				c0,0.2-0.1,0.3-0.3,0.3c-0.2,0-0.3-0.1-0.3-0.3s0.1-0.3,0.3-0.3C400.3,66.4,400.4,66.6,400.4,66.8z M399.5,67.1l0.6,1.2
				c0,0,0.1,0.1,0.1,0l0.6-1.2c0.2-0.4,0-0.8-0.3-1c-0.4-0.2-0.8-0.1-1,0.3C399.3,66.6,399.3,66.9,399.5,67.1z"/>
			<g style="clip-path:url(#SVGID_00000109031510397721258370000004158033738391259581_);">
				<circle class="st11" cx="394.9" cy="53" r="2"/>
				<circle class="st11" cx="394.9" cy="59.8" r="2"/>
				<circle class="st11" cx="394.9" cy="66.6" r="2"/>
				<path class="st12" d="M401,58c0-0.3-0.2-0.4-0.4-0.4c-0.2,0-0.4,0.2-0.4,0.4l0.3,2.4c0,0.1,0.1,0.1,0.1,0.1
					c0.1,0,0.1-0.1,0.1-0.1L401,58 M401,61.5c0-0.3-0.2-0.5-0.5-0.5c-0.3,0-0.5,0.2-0.5,0.5c0,0.2,0.2,0.4,0.5,0.4
					C400.8,61.9,401,61.7,401,61.5z"/>
				<line class="st13" x1="395.3" y1="88.1" x2="395.3" y2="76.4"/>
				<path class="st12" d="M402.5,52.4c-0.3-1-1.4-1.6-2.4-1.4c-1.1,0.3-1.7,1.4-1.4,2.5c0.3,1,1.4,1.6,2.5,1.4
					C402.2,54.5,402.8,53.4,402.5,52.4 M402.2,52.8c0.1,0.8-0.5,1.7-1.4,1.8c-0.7,0.1-1.4-0.3-1.6-0.9l1.1-1.1l0.5,1.8L402.2,52.8z
					 M398.9,53.2c-0.1-0.9,0.5-1.8,1.4-1.8c0.7-0.1,1.4,0.3,1.7,0.9l-1.1,1.1l-0.5-1.8L398.9,53.2z"/>
				<path class="st12" d="M402.6,66.6c0-1.1-0.9-2-2-2c-1.1,0-2,0.9-2,2c0,1.2,0.9,2,2,2C401.7,68.6,402.6,67.7,402.6,66.6z
					 M402.1,66.6c0,0.9-0.7,1.5-1.5,1.5c-0.8,0-1.5-0.6-1.5-1.5c0-0.8,0.7-1.5,1.5-1.5C401.4,65.1,402.1,65.7,402.1,66.6z
					 M400.9,66.2c0,0.2-0.1,0.3-0.3,0.3c-0.2,0-0.3-0.1-0.3-0.3c0-0.2,0.1-0.3,0.3-0.3C400.7,65.9,400.9,66,400.9,66.2z M399.9,66.6
					l0.6,1.2c0,0,0.1,0.1,0.1,0l0.6-1.2c0.2-0.4,0-0.8-0.3-1c-0.4-0.2-0.8-0.1-1,0.3C399.8,66.1,399.8,66.3,399.9,66.6z"/>
			</g>
			<g style="clip-path:url(#SVGID_00000109031510397721258370000004158033738391259581_);">
				<circle class="st31" cx="392.4" cy="54" r="2"/>
				<circle class="st32" cx="392.4" cy="60.8" r="2"/>
				<circle class="st31" cx="392.4" cy="67.6" r="2"/>
				<path class="st12" d="M398.5,59c0-0.3-0.2-0.4-0.4-0.4c-0.2,0-0.4,0.2-0.4,0.4l0.3,2.4c0,0.1,0.1,0.1,0.1,0.1
					c0.1,0,0.1-0.1,0.1-0.1L398.5,59 M398.6,62.5c0-0.3-0.2-0.5-0.5-0.5c-0.3,0-0.5,0.2-0.5,0.5c0,0.2,0.2,0.4,0.5,0.4
					C398.4,62.9,398.6,62.7,398.6,62.5z"/>
				<line class="st13" x1="392.9" y1="89" x2="392.9" y2="77.4"/>
				<path class="st12" d="M400,53.4c-0.3-1-1.4-1.6-2.4-1.4c-1.1,0.3-1.7,1.4-1.4,2.5c0.3,1,1.4,1.6,2.5,1.4
					C399.7,55.5,400.3,54.4,400,53.4 M399.7,53.8c0.1,0.8-0.5,1.7-1.4,1.8c-0.7,0.1-1.4-0.3-1.6-0.9l1.1-1.1l0.5,1.8L399.7,53.8z
					 M396.5,54.1c-0.1-0.9,0.5-1.8,1.4-1.8c0.7-0.1,1.4,0.3,1.7,0.9l-1.1,1.1l-0.5-1.8L396.5,54.1z"/>
				<path class="st12" d="M400.1,67.6c0-1.1-0.9-2-2-2c-1.1,0-2,0.9-2,2c0,1.2,0.9,2,2,2C399.2,69.6,400.1,68.7,400.1,67.6z
					 M399.6,67.6c0,0.9-0.7,1.5-1.5,1.5c-0.8,0-1.5-0.6-1.5-1.5c0-0.8,0.7-1.5,1.5-1.5C398.9,66.1,399.6,66.7,399.6,67.6z
					 M398.4,67.2c0,0.2-0.1,0.3-0.3,0.3c-0.2,0-0.3-0.1-0.3-0.3s0.1-0.3,0.3-0.3C398.3,66.8,398.4,67,398.4,67.2z M397.4,67.6
					l0.6,1.2c0,0,0.1,0.1,0.1,0l0.6-1.2c0.2-0.4,0-0.8-0.3-1c-0.4-0.2-0.8-0.1-1,0.3C397.3,67,397.3,67.3,397.4,67.6z"/>
			</g>
		</g>
		<g>
			<path class="st33" d="M390.7,82.9l-0.4,0.4l-0.4-0.4V81l0.4-0.4l0.4,0.4V82.9z M390.7,85.9l-0.4,0.4l-0.4-0.4v-1.9l0.4-0.4
				l0.4,0.4V85.9z"/>
		</g>
		<g>
			<path class="st33" d="M395.6,82.9l-0.4,0.4l-0.4-0.4V81l0.4-0.4l0.4,0.4V82.9z M398.1,80.5l-0.4,0.4h-2l-0.4-0.4l0.4-0.4h2
				L398.1,80.5z M398.1,83.4l-0.4,0.4h-2l-0.4-0.4l0.4-0.4h2L398.1,83.4z M398.1,86.4l-0.4,0.4h-2l-0.4-0.4l0.4-0.4h2L398.1,86.4z
				 M398.6,81v2.4h-0.4l-0.5-0.5V81l0.4-0.4L398.6,81z M398.6,85.9l-0.4,0.4l-0.4-0.4v-1.9l0.5-0.5h0.4V85.9z"/>
		</g>
		<line class="st34" x1="369.8" y1="25.3" x2="374.4" y2="33.2"/>
		<g>
			<circle class="st16" cx="364.1" cy="15.2" r="8"/>
			<rect x="355.4" y="11.3" class="st17" width="16.7" height="8.1"/>
			<text transform="matrix(1 0 0 1 360.2122 18.7701)" class="st11 st18 st19">4</text>
		</g>
	</g>
	<line class="st35" x1="190.7" y1="6.7" x2="190.7" y2="161"/>
	<line class="st35" x1="341.4" y1="6.7" x2="341.4" y2="161"/>
	<g>
		<g>
			<circle class="st16" cx="56.4" cy="141.6" r="8"/>
			<rect x="48.2" y="137.8" class="st17" width="16.7" height="8.1"/>
			<text transform="matrix(1 0 0 1 53.4004 145.3372)" class="st11 st18 st19">2</text>
		</g>
	</g>
	<g>
		<g>
			<g>
				<path class="st5" d="M405.6,126.9h-25.3V26.4h25.3C405.6,26.4,410.8,71.2,405.6,126.9z"/>
				<path class="st10" d="M404.8,126.9l-1.7,1l-23.5-1l-2.5-99.5l2.5-1h25.3c0,0,0.2,1.5,0.4,4.2C406.4,42.9,409.1,81.3,404.8,126.9
					z"/>
				<polygon class="st11" points="402.6,87.3 387.6,87.3 387.6,78.2 395,78.2 402.6,78.2 				"/>
				<circle class="st11" cx="394.8" cy="53.3" r="2"/>
				<circle class="st11" cx="394.8" cy="60.1" r="2"/>
				<circle class="st11" cx="394.8" cy="66.9" r="2"/>
				<path class="st12" d="M400.8,58.3c0-0.3-0.2-0.4-0.4-0.4s-0.4,0.2-0.4,0.4l0.3,2.4c0,0.1,0.1,0.1,0.1,0.1s0.1-0.1,0.1-0.1
					L400.8,58.3 M400.9,61.7c0-0.3-0.2-0.5-0.5-0.5s-0.5,0.2-0.5,0.5c0,0.2,0.2,0.4,0.5,0.4S400.9,61.9,400.9,61.7z"/>
				<line class="st13" x1="395.2" y1="88.3" x2="395.2" y2="76.6"/>
				<path class="st12" d="M402.3,52.6c-0.3-1-1.4-1.6-2.4-1.4c-1.1,0.3-1.7,1.4-1.4,2.5c0.3,1,1.4,1.6,2.5,1.4
					C402.1,54.8,402.7,53.7,402.3,52.6 M402.1,53c0.1,0.8-0.5,1.7-1.4,1.8c-0.7,0.1-1.4-0.3-1.6-0.9l1.1-1.1l0.5,1.8L402.1,53z
					 M398.8,53.4c-0.1-0.9,0.5-1.8,1.4-1.8c0.7-0.1,1.4,0.3,1.7,0.9l-1.1,1.1l-0.5-1.8L398.8,53.4z"/>
				<path class="st12" d="M402.5,66.8c0-1.1-0.9-2-2-2c-1.1,0-2,0.9-2,2c0,1.2,0.9,2,2,2C401.6,68.9,402.5,68,402.5,66.8z M402,66.8
					c0,0.9-0.7,1.5-1.5,1.5s-1.5-0.6-1.5-1.5c0-0.8,0.7-1.5,1.5-1.5S402,66,402,66.8z M400.7,66.4c0,0.2-0.1,0.3-0.3,0.3
					c-0.2,0-0.3-0.1-0.3-0.3c0-0.2,0.1-0.3,0.3-0.3C400.6,66.1,400.7,66.2,400.7,66.4z M399.8,66.8l0.6,1.2c0,0,0.1,0.1,0.1,0
					l0.6-1.2c0.2-0.4,0-0.8-0.3-1c-0.4-0.2-0.8-0.1-1,0.3C399.7,66.3,399.7,66.6,399.8,66.8z"/>
			</g>
			<g>
				<path class="st5" d="M403.1,127.9h-25.3V27.4h25.3C403.1,27.4,408.3,72.2,403.1,127.9z"/>
				<path class="st14" d="M402.4,127.9h-25.3V27.4h25.3C402.4,27.4,407.6,72.2,402.4,127.9z"/>
				<polygon class="st36" points="400.2,88.2 385.1,88.2 385.1,79.2 392.5,79.2 400.2,79.2 				"/>
				<circle class="st11" cx="388" cy="59.1" r="2"/>
				<circle class="st32" cx="388" cy="65.9" r="2"/>
				<circle class="st11" cx="388" cy="72.8" r="2"/>
				<path class="st12" d="M394.1,64.1c0-0.3-0.2-0.4-0.4-0.4c-0.2,0-0.4,0.2-0.4,0.4l0.3,2.4c0,0.1,0.1,0.1,0.1,0.1
					c0.1,0,0.1-0.1,0.1-0.1L394.1,64.1 M394.1,67.6c0-0.3-0.2-0.5-0.5-0.5c-0.3,0-0.5,0.2-0.5,0.5c0,0.2,0.2,0.4,0.5,0.4
					C393.9,68,394.1,67.8,394.1,67.6z"/>
				<line class="st13" x1="392.8" y1="89.3" x2="392.8" y2="77.6"/>
				<path class="st12" d="M395.6,58.5c-0.3-1-1.4-1.6-2.4-1.4c-1.1,0.3-1.7,1.4-1.4,2.5c0.3,1,1.4,1.6,2.5,1.4
					C395.3,60.7,395.9,59.5,395.6,58.5 M395.3,58.9c0.1,0.8-0.5,1.7-1.4,1.8c-0.7,0.1-1.4-0.3-1.6-0.9l1.1-1.1l0.5,1.8L395.3,58.9z
					 M392,59.3c-0.1-0.9,0.5-1.8,1.4-1.8c0.7-0.1,1.4,0.3,1.7,0.9l-1.1,1.1l-0.5-1.8L392,59.3z"/>
				<path class="st12" d="M395.7,72.7c0-1.1-0.9-2-2-2c-1.1,0-2,0.9-2,2c0,1.2,0.9,2,2,2C394.8,74.7,395.7,73.8,395.7,72.7z
					 M395.2,72.7c0,0.9-0.7,1.5-1.5,1.5c-0.8,0-1.5-0.6-1.5-1.5c0-0.8,0.7-1.5,1.5-1.5C394.5,71.2,395.2,71.9,395.2,72.7z M394,72.3
					c0,0.2-0.1,0.3-0.3,0.3c-0.2,0-0.3-0.1-0.3-0.3c0-0.2,0.1-0.3,0.3-0.3C393.8,72,394,72.1,394,72.3z M393,72.7l0.6,1.2
					c0,0,0.1,0.1,0.1,0l0.6-1.2c0.2-0.4,0-0.8-0.3-1c-0.4-0.2-0.8-0.1-1,0.3C392.9,72.2,392.9,72.4,393,72.7z"/>
			</g>
		</g>
		<g>
			<path class="st33" d="M387.5,83.3l-0.4,0.4l-0.4-0.4v-1.9l0.4-0.4l0.4,0.4V83.3z M387.5,86.2l-0.4,0.4l-0.4-0.4v-1.9l0.4-0.4
				l0.4,0.4V86.2z M390,80.8l-0.4,0.4h-2l-0.4-0.4l0.4-0.4h2L390,80.8z M390,86.7l-0.4,0.4h-2l-0.4-0.4l0.4-0.4h2L390,86.7z
				 M390.5,83.3l-0.4,0.4l-0.4-0.4v-1.9l0.4-0.4l0.4,0.4V83.3z M390.5,86.2l-0.4,0.4l-0.4-0.4v-1.9l0.4-0.4l0.4,0.4V86.2z"/>
		</g>
		<g>
			<path class="st33" d="M395.4,83.3l-0.4,0.4l-0.4-0.4v-1.9l0.4-0.4l0.4,0.4V83.3z M397.9,80.8l-0.4,0.4h-2l-0.4-0.4l0.4-0.4h2
				L397.9,80.8z M397.9,83.8l-0.4,0.4h-2l-0.4-0.4l0.4-0.4h2L397.9,83.8z M397.9,86.7l-0.4,0.4h-2l-0.4-0.4l0.4-0.4h2L397.9,86.7z
				 M398.4,81.3v2.4h-0.4l-0.5-0.5v-1.9l0.4-0.4L398.4,81.3z M398.4,86.2l-0.4,0.4l-0.4-0.4v-1.9l0.5-0.5h0.4V86.2z"/>
		</g>
	</g>
	<g>
		<line class="st37" x1="361" y1="129" x2="386.4" y2="69.8"/>
		<line class="st34" x1="361" y1="129" x2="386.4" y2="69.8"/>
	</g>
	<g>
		<circle class="st16" cx="362.2" cy="139.2" r="8"/>
		<rect x="353.8" y="135.5" class="st17" width="16.7" height="8.1"/>
		<text transform="matrix(1 0 0 1 358.9091 143.0303)" class="st11 st18 st19">5</text>
	</g>
</g>
<g id="Layer_2">
	<g>
		<polygon class="st38" points="61.5,38.8 53.5,42.8 53.4,45.6 47.2,43.4 52.9,35.3 52.8,38.9 61.6,34 		"/>
		<polygon class="st32" points="61.5,38.8 53.5,42.8 53.4,45.6 47.2,43.4 52.9,35.3 52.8,38.9 61.6,34 		"/>
	</g>
	<g>
		<g>
			<path class="st39" d="M66.1,56.6c-1.9,0-3.5-1.6-3.5-3.5c0-1.9,1.6-3.5,3.5-3.5h4.3c1.9,0,3.5,1.6,3.5,3.5c0,1.9-1.6,3.5-3.5,3.5
				H66.1z"/>
			<path class="st4" d="M74.5,125.5h6.4V30.6h-2.6v-0.5c0-0.5-0.4-0.9-0.8-0.9h-2.1c-0.5,0-0.9,0.4-0.9,0.9v2.4h-9.6v-2.4
				c0-0.5-0.4-0.9-0.9-0.9h-4.3c-0.4,0-0.7,0.3-0.7,0.7v94.8c0,0.4,0.3,0.7,0.7,0.7h5.1v-2.1h9.6V125.5z"/>
			<g>
				
					<ellipse transform="matrix(0.2298 -0.9732 0.9732 0.2298 -46.4231 146.1107)" class="st11" cx="69.1" cy="102.4" rx="7.1" ry="7.1"/>
				<path class="st11" d="M66.1,56.6c-1.9,0-3.5-1.6-3.5-3.5c0-1.9,1.6-3.5,3.5-3.5h4.3c1.9,0,3.5,1.6,3.5,3.5
					c0,1.9-1.6,3.5-3.5,3.5H66.1z"/>
			</g>
			<path d="M67.5,42.8c0-1.3,1.1-2.4,2.5-2.4s2.4,1.1,2.4,2.4c0,1.4-1.1,2.5-2.4,2.5S67.5,44.1,67.5,42.8z"/>
			<path d="M67.5,115.7c0-1.4,1.1-2.4,2.5-2.4s2.4,1.1,2.4,2.4c0,1.4-1.1,2.4-2.4,2.4S67.5,117.1,67.5,115.7z"/>
			<path class="st40" d="M68.7,58.3C68.7,58.3,68.7,58.3,68.7,58.3C68.7,58.3,68.7,58.3,68.7,58.3"/>
			<path class="st40" d="M64,58.3C64,58.3,64,58.3,64,58.3L64,58.3"/>
			<path class="st41" d="M75.9,95.6c0-0.8,0.6-1.4,1.4-1.4c0.8,0,1.4,0.6,1.4,1.4c0,0.8-0.6,1.4-1.4,1.4
				C76.6,97,75.9,96.4,75.9,95.6"/>
			<path class="st41" d="M77.3,94.6l-0.2,0c-0.3,0.1-0.6,0.4-0.7,0.7v0.5h0V96h0v0.1h0l0,0v0.1h0l0.1,0.1l0.3,0.1l0.1,0l0.4,0v0
				l0.1,0l0.3-0.1l0.2-0.2l0.1-0.2l0-0.1l0-0.5h0v-0.1l0,0h0v-0.1l0,0h0v-0.1l0,0l-0.1,0l-0.1-0.1l-0.1,0l-0.1,0l-0.2,0"/>
			<path d="M76.4,95.6c0-0.5,0.4-1,1-1c0.5,0,0.9,0.5,0.9,1c0,0.5-0.4,1-0.9,1C76.8,96.6,76.4,96.1,76.4,95.6z"/>
			<path class="st42" d="M63.8,91.3h14.9c0.2,0,0.4-0.2,0.4-0.4V80.7c0-0.2-0.2-0.4-0.4-0.4H63.8c-0.2,0-0.4,0.2-0.4,0.4v10.2
				C63.4,91.1,63.5,91.3,63.8,91.3"/>
			<path class="st43" d="M63.8,91.3h14.9c0.2,0,0.4-0.2,0.4-0.4V80.7c0-0.2-0.2-0.4-0.4-0.4H63.8c-0.2,0-0.4,0.2-0.4,0.4v10.2
				C63.4,91.1,63.5,91.3,63.8,91.3z"/>
			<path class="st44" d="M80,79.3V59c0-0.3-0.3-0.5-0.6-0.5H63.3c-0.4,0-0.6,0.2-0.6,0.5v20.4c0,0.3,0.3,0.5,0.6,0.5h16.1
				C79.8,79.8,80,79.6,80,79.3"/>
			<path class="st45" d="M80,79.3V59c0-0.3-0.3-0.5-0.6-0.5H63.3c-0.4,0-0.6,0.2-0.6,0.5v20.4c0,0.3,0.3,0.5,0.6,0.5h16.1
				C79.8,79.8,80,79.6,80,79.3z"/>
			<path class="st12" d="M73.7,60.8c-0.3-0.9-1.4-1.4-2.3-1.1s-1.5,1.4-1.1,2.4c0.3,0.9,1.4,1.4,2.3,1.1c0.8-0.3,1.3-1,1.2-1.9
				C73.8,61.1,73.8,61,73.7,60.8 M70.7,62.1l0.9-1l0.5,1.5l1.2-1.4c0.1,0.8-0.4,1.5-1.2,1.6C71.6,62.9,71,62.6,70.7,62.1z
				 M73.3,60.8l-0.9,1l-0.5-1.5l-1.2,1.4c-0.1-0.8,0.4-1.5,1.2-1.6C72.4,59.9,72.9,60.2,73.3,60.8z M72.1,66.5
				c0-0.2-0.1-0.4-0.4-0.4c-0.2,0-0.4,0.2-0.4,0.4v0l0.2,2.3c0,0.1,0.1,0.2,0.2,0.1c0.1,0,0.1,0,0.2-0.1L72.1,66.5z M72.2,69.5
				c0-0.2-0.2-0.4-0.4-0.4c-0.2,0-0.4,0.1-0.4,0.4c0,0.2,0.2,0.4,0.4,0.4C72,69.9,72.2,69.7,72.2,69.5z M73.8,74.6
				c0-1-0.9-1.9-1.9-1.9c-1,0-1.9,0.8-1.9,1.9s0.8,1.9,1.9,1.9C73,76.5,73.8,75.7,73.8,74.6z M73.6,74.6c0,0.9-0.7,1.7-1.6,1.7
				c-0.9,0-1.7-0.8-1.7-1.7c0-0.9,0.7-1.6,1.7-1.6C72.9,73,73.6,73.7,73.6,74.6z M71.3,74.6l0.6,1.1c0,0,0.1,0.1,0.1,0c0,0,0,0,0,0
				l0.6-1.1c0.2-0.4,0.1-0.8-0.3-1c-0.4-0.2-0.8-0.1-1,0.3C71.2,74.1,71.2,74.3,71.3,74.6z M72.3,74.2c0,0.2-0.1,0.4-0.3,0.4
				s-0.4-0.1-0.4-0.4c0-0.2,0.2-0.3,0.4-0.3S72.3,74,72.3,74.2z"/>
			<path class="st41" d="M69,60.6c0-1.4-1.2-2.6-2.6-2.6c-1.4,0-2.6,1.2-2.6,2.6c0,1.4,1.2,2.6,2.6,2.6C67.8,63.3,69,62.1,69,60.6"
				/>
			<path d="M68.2,61.5c0-1-0.8-1.8-1.8-1.8c-1,0-1.9,0.8-1.9,1.8c0,1,0.8,1.9,1.9,1.9C67.4,63.4,68.2,62.5,68.2,61.5z"/>
			<path d="M68.2,67.9c0-1-0.8-1.9-1.8-1.9c-1,0-1.9,0.9-1.9,1.9c0,1,0.8,1.9,1.9,1.9C67.4,69.8,68.2,68.9,68.2,67.9z"/>
			<path d="M68.2,74.3c0-1-0.8-1.9-1.8-1.9c-1,0-1.9,0.9-1.9,1.9c0,1,0.8,1.8,1.9,1.8C67.4,76.2,68.2,75.3,68.2,74.3z"/>
			<polygon class="st46" points="66.3,86 65.5,85.6 65.1,88.9 66.1,88.1 			"/>
			<polygon class="st46" points="69.6,88.9 68.9,88.1 66.2,88.1 65.2,88.9 			"/>
			<polygon class="st46" points="66.4,86 69.1,86 70,85.6 69.2,85.1 66.5,85.1 65.6,85.6 			"/>
			<polygon class="st46" points="65.9,82.2 66.7,83 69.4,83 70.4,82.2 			"/>
			<polyline class="st46" points="70,85.6 69.1,86 68.9,88 69.7,88.9 70.1,85.6 70,85.6 			"/>
			<polyline class="st46" points="65.5,85.5 66.4,85.1 66.7,83 65.8,82.2 65.5,85.5 65.5,85.5 			"/>
			<line class="st46" x1="65.5" y1="85.6" x2="65.5" y2="85.6"/>
			<polyline class="st46" points="70.1,85.5 70.5,82.3 69.5,83 69.2,85.1 70,85.6 70.1,85.5 			"/>
			<line class="st47" x1="65.5" y1="85.6" x2="65.5" y2="85.6"/>
		</g>
		<g>
			<line class="st48" x1="71.3" y1="91" x2="71.3" y2="80.5"/>
			<g>
				<path class="st49" d="M65.9,85l-0.5,0.5L65,85v-2l0.4-0.5l0.5,0.5V85z M65.9,88l-0.5,0.5L65,88v-2l0.4-0.5l0.5,0.5V88z
					 M68.5,82.4l-0.5,0.5H66l-0.5-0.5L66,82h2.1L68.5,82.4z M68.5,88.6L68.1,89H66l-0.5-0.5l0.5-0.5h2.1L68.5,88.6z M69.1,85
					l-0.5,0.5L68.2,85v-2l0.5-0.5l0.5,0.5V85z M69.1,88l-0.5,0.5L68.2,88v-2l0.5-0.5l0.5,0.5V88z"/>
			</g>
			<g>
				<path class="st49" d="M74.2,85l-0.5,0.5L73.3,85v-2l0.4-0.5l0.5,0.5V85z M74.2,88l-0.5,0.5L73.3,88v-2l0.4-0.5l0.5,0.5V88z
					 M76.9,82.4l-0.5,0.5h-2.1l-0.5-0.5l0.5-0.5h2.1L76.9,82.4z M76.9,88.6L76.4,89h-2.1l-0.5-0.5l0.5-0.5h2.1L76.9,88.6z M77.4,85
					l-0.5,0.5L76.5,85v-2l0.5-0.5l0.5,0.5V85z M77.4,88l-0.5,0.5L76.5,88v-2l0.5-0.5l0.5,0.5V88z"/>
			</g>
		</g>
	</g>
	<g>
		<g>
			<path class="st39" d="M215.7,56.6c-1.9,0-3.5-1.6-3.5-3.5c0-1.9,1.6-3.5,3.5-3.5h4.3c1.9,0,3.5,1.6,3.5,3.5
				c0,1.9-1.6,3.5-3.5,3.5H215.7z"/>
			<path class="st4" d="M224.1,125.5h6.4V30.6h-2.6v-0.5c0-0.5-0.4-0.9-0.8-0.9h-2.1c-0.5,0-0.9,0.4-0.9,0.9v2.4h-9.6v-2.4
				c0-0.5-0.4-0.9-0.9-0.9h-4.3c-0.4,0-0.7,0.3-0.7,0.7v94.8c0,0.4,0.3,0.7,0.7,0.7h5.1v-2.1h9.6V125.5z"/>
			<g>
				
					<ellipse transform="matrix(0.2298 -0.9732 0.9732 0.2298 68.8006 291.7021)" class="st11" cx="218.7" cy="102.4" rx="7.1" ry="7.1"/>
				<path class="st11" d="M215.7,56.6c-1.9,0-3.5-1.6-3.5-3.5c0-1.9,1.6-3.5,3.5-3.5h4.3c1.9,0,3.5,1.6,3.5,3.5
					c0,1.9-1.6,3.5-3.5,3.5H215.7z"/>
			</g>
			<path d="M217.1,42.8c0-1.3,1.1-2.4,2.5-2.4c1.4,0,2.4,1.1,2.4,2.4c0,1.4-1.1,2.5-2.4,2.5C218.2,45.3,217.1,44.1,217.1,42.8z"/>
			<path d="M217.1,115.7c0-1.4,1.1-2.4,2.5-2.4c1.4,0,2.4,1.1,2.4,2.4c0,1.4-1.1,2.4-2.4,2.4C218.2,118.2,217.1,117.1,217.1,115.7z"
				/>
			<path class="st40" d="M218.3,58.3C218.3,58.3,218.3,58.3,218.3,58.3C218.3,58.3,218.3,58.3,218.3,58.3"/>
			<path class="st40" d="M213.6,58.3C213.6,58.3,213.6,58.3,213.6,58.3L213.6,58.3"/>
			<path class="st41" d="M225.5,95.6c0-0.8,0.6-1.4,1.4-1.4c0.8,0,1.4,0.6,1.4,1.4c0,0.8-0.6,1.4-1.4,1.4
				C226.2,97,225.5,96.4,225.5,95.6"/>
			<path class="st41" d="M226.9,94.6l-0.2,0c-0.3,0.1-0.6,0.4-0.7,0.7v0.5h0V96h0v0.1h0l0,0v0.1h0l0.1,0.1l0.3,0.1l0.1,0l0.4,0v0
				l0.1,0l0.3-0.1l0.2-0.2l0.1-0.2l0-0.1l0-0.5h0v-0.1l0,0h0v-0.1l0,0h0v-0.1l0,0l-0.1,0l-0.1-0.1l-0.1,0l-0.1,0l-0.2,0"/>
			<path d="M226,95.6c0-0.5,0.4-1,1-1c0.5,0,0.9,0.5,0.9,1c0,0.5-0.4,1-0.9,1C226.4,96.6,226,96.1,226,95.6z"/>
			<path class="st42" d="M213.4,91.3h14.9c0.2,0,0.4-0.2,0.4-0.4V80.7c0-0.2-0.2-0.4-0.4-0.4h-14.9c-0.2,0-0.4,0.2-0.4,0.4v10.2
				C213,91.1,213.1,91.3,213.4,91.3"/>
			<path class="st43" d="M213.4,91.3h14.9c0.2,0,0.4-0.2,0.4-0.4V80.7c0-0.2-0.2-0.4-0.4-0.4h-14.9c-0.2,0-0.4,0.2-0.4,0.4v10.2
				C213,91.1,213.1,91.3,213.4,91.3z"/>
			<path class="st44" d="M229.6,79.3V59c0-0.3-0.3-0.5-0.6-0.5h-16.1c-0.4,0-0.6,0.2-0.6,0.5v20.4c0,0.3,0.3,0.5,0.6,0.5H229
				C229.4,79.8,229.6,79.6,229.6,79.3"/>
			<path class="st45" d="M229.6,79.3V59c0-0.3-0.3-0.5-0.6-0.5h-16.1c-0.4,0-0.6,0.2-0.6,0.5v20.4c0,0.3,0.3,0.5,0.6,0.5H229
				C229.4,79.8,229.6,79.6,229.6,79.3z"/>
			<path class="st12" d="M223.3,60.8c-0.3-0.9-1.4-1.4-2.3-1.1s-1.5,1.4-1.1,2.4c0.3,0.9,1.4,1.4,2.3,1.1c0.8-0.3,1.3-1,1.2-1.9
				C223.4,61.1,223.4,61,223.3,60.8 M220.3,62.1l0.9-1l0.5,1.5l1.2-1.4c0.1,0.8-0.4,1.5-1.2,1.6C221.2,62.9,220.6,62.6,220.3,62.1z
				 M222.9,60.8l-0.9,1l-0.5-1.5l-1.2,1.4c-0.1-0.8,0.4-1.5,1.2-1.6C222,59.9,222.5,60.2,222.9,60.8z M221.7,66.5
				c0-0.2-0.1-0.4-0.4-0.4c-0.2,0-0.4,0.2-0.4,0.4v0l0.2,2.3c0,0.1,0.1,0.2,0.2,0.1c0.1,0,0.1,0,0.2-0.1L221.7,66.5z M221.8,69.5
				c0-0.2-0.2-0.4-0.4-0.4c-0.2,0-0.4,0.1-0.4,0.4c0,0.2,0.2,0.4,0.4,0.4C221.6,69.9,221.8,69.7,221.8,69.5z M223.4,74.6
				c0-1-0.9-1.9-1.9-1.9c-1,0-1.9,0.8-1.9,1.9s0.8,1.9,1.9,1.9C222.6,76.5,223.4,75.7,223.4,74.6z M223.2,74.6
				c0,0.9-0.7,1.7-1.6,1.7c-0.9,0-1.7-0.8-1.7-1.7c0-0.9,0.7-1.6,1.7-1.6C222.5,73,223.2,73.7,223.2,74.6z M220.9,74.6l0.6,1.1
				c0,0,0.1,0.1,0.1,0c0,0,0,0,0,0l0.6-1.1c0.2-0.4,0.1-0.8-0.3-1c-0.4-0.2-0.8-0.1-1,0.3C220.8,74.1,220.8,74.3,220.9,74.6z
				 M221.9,74.2c0,0.2-0.1,0.4-0.3,0.4s-0.4-0.1-0.4-0.4c0-0.2,0.2-0.3,0.4-0.3S221.9,74,221.9,74.2z"/>
			<path class="st41" d="M218.6,60.6c0-1.4-1.2-2.6-2.6-2.6c-1.4,0-2.6,1.2-2.6,2.6c0,1.4,1.2,2.6,2.6,2.6
				C217.4,63.3,218.6,62.1,218.6,60.6"/>
			<path d="M217.8,61.5c0-1-0.8-1.8-1.8-1.8c-1,0-1.9,0.8-1.9,1.8c0,1,0.8,1.9,1.9,1.9C217,63.4,217.8,62.5,217.8,61.5z"/>
			<path d="M217.8,67.9c0-1-0.8-1.9-1.8-1.9c-1,0-1.9,0.9-1.9,1.9c0,1,0.8,1.9,1.9,1.9C217,69.8,217.8,68.9,217.8,67.9z"/>
			<path d="M217.8,74.3c0-1-0.8-1.9-1.8-1.9c-1,0-1.9,0.9-1.9,1.9c0,1,0.8,1.8,1.9,1.8C217,76.2,217.8,75.3,217.8,74.3z"/>
			<polygon class="st46" points="215.9,86 215.1,85.6 214.7,88.9 215.7,88.1 			"/>
			<polygon class="st46" points="219.2,88.9 218.5,88.1 215.8,88.1 214.8,88.9 			"/>
			<polygon class="st46" points="216,86 218.6,86 219.6,85.6 218.8,85.1 216.1,85.1 215.2,85.6 			"/>
			<polygon class="st46" points="215.5,82.2 216.3,83 219,83 220,82.2 			"/>
			<polyline class="st46" points="219.6,85.6 218.7,86 218.5,88 219.3,88.9 219.7,85.6 219.6,85.6 			"/>
			<polyline class="st46" points="215.1,85.5 216,85.1 216.2,83 215.4,82.2 215.1,85.5 215.1,85.5 			"/>
			<line class="st46" x1="215.1" y1="85.6" x2="215.1" y2="85.6"/>
			<polyline class="st46" points="219.7,85.5 220,82.3 219.1,83 218.8,85.1 219.6,85.6 219.7,85.5 			"/>
			<line class="st47" x1="215.1" y1="85.6" x2="215.1" y2="85.6"/>
		</g>
		<g>
			<line class="st48" x1="220.9" y1="91" x2="220.9" y2="80.5"/>
			<g>
				<path class="st49" d="M215.5,85l-0.5,0.5l-0.4-0.5v-2l0.4-0.5l0.5,0.5V85z M215.5,88l-0.5,0.5l-0.4-0.5v-2l0.4-0.5l0.5,0.5V88z
					 M218.1,82.4l-0.5,0.5h-2.1l-0.5-0.5l0.5-0.5h2.1L218.1,82.4z M218.1,88.6l-0.5,0.5h-2.1l-0.5-0.5l0.5-0.5h2.1L218.1,88.6z
					 M218.7,85l-0.5,0.5l-0.5-0.5v-2l0.5-0.5l0.5,0.5V85z M218.7,88l-0.5,0.5l-0.5-0.5v-2l0.5-0.5l0.5,0.5V88z"/>
			</g>
		</g>
	</g>
	<g>
		<path class="st49" d="M223.6,84.8l-0.4,0.4l-0.4-0.4v-1.9l0.4-0.4l0.4,0.4V84.8z M226.1,82.4l-0.4,0.4h-2l-0.4-0.4l0.4-0.4h2
			L226.1,82.4z M226.1,85.3l-0.4,0.4h-2l-0.4-0.4l0.4-0.4h2L226.1,85.3z M226.1,88.3l-0.4,0.4h-2l-0.4-0.4l0.4-0.4h2L226.1,88.3z
			 M226.6,82.9v2.4h-0.4l-0.5-0.5v-1.9l0.4-0.4L226.6,82.9z M226.6,87.8l-0.4,0.4l-0.4-0.4v-1.9l0.5-0.5h0.4V87.8z"/>
	</g>
	<g>
		<g>
			<rect x="234.3" y="131.1" class="st17" width="71.6" height="7.6"/>
			<text transform="matrix(1 0 0 1 234.2741 135.365)" class="st50 st51 st52">Shelf ID number</text>
		</g>
		<g>
			<line class="st37" x1="226.1" y1="98.4" x2="219.3" y2="131.1"/>
			<line class="st34" x1="226.1" y1="98.4" x2="219.3" y2="131.1"/>
		</g>
		<g>
			<line class="st37" x1="229.8" y1="88.3" x2="248.8" y2="128.6"/>
			<line class="st34" x1="229.8" y1="88.3" x2="248.8" y2="128.6"/>
		</g>
		<g>
			<circle class="st16" cx="219.2" cy="141.3" r="8"/>
			<rect x="210.9" y="137.7" class="st17" width="16.7" height="8.1"/>
			<text transform="matrix(1 0 0 1 216.0031 145.19)" class="st11 st18 st19">3</text>
		</g>
	</g>
</g>
<g id="Layer_5">
	<g>
		<rect x="113.9" y="128.7" class="st17" width="71.6" height="17.8"/>
		<text transform="matrix(1 0 0 1 113.8549 133.0267)" class="st50 st51 st52">Shelf ID number</text>
		<g>
			<line class="st37" x1="69.9" y1="125.9" x2="77" y2="147.8"/>
			<line class="st34" x1="69.9" y1="125.9" x2="77" y2="147.8"/>
		</g>
		<g>
			<line class="st37" x1="78.6" y1="97.8" x2="94.6" y2="136.4"/>
			<line class="st34" x1="78.6" y1="97.8" x2="94.6" y2="136.4"/>
		</g>
		<g>
			<line class="st37" x1="78.6" y1="89.1" x2="110.7" y2="128.6"/>
			<line class="st34" x1="78.7" y1="89.1" x2="110.7" y2="128.6"/>
		</g>
		<rect x="68.1" y="150" class="st17" width="51.8" height="5.2"/>
		<text transform="matrix(1 0 0 1 68.067 154.3073)" class="st50 st51 st52">Faceplate</text>
		<rect x="91.7" y="138.9" class="st17" width="51.8" height="5.2"/>
		<text transform="matrix(1 0 0 1 91.7078 143.2298)" class="st50 st51 st52">Shelf ID button</text>
	</g>
</g>
</svg>
