<?xml version="1.0" encoding="utf-8"?>
<!-- Generator: Adobe Illustrator 26.0.3, SVG Export Plug-In . SVG Version: 6.00 Build 0)  -->
<svg version="1.1" xmlns="http://www.w3.org/2000/svg" xmlns:xlink="http://www.w3.org/1999/xlink" x="0px" y="0px"
	 viewBox="0 0 324 234" style="enable-background:new 0 0 324 234;" xml:space="preserve">
<style type="text/css">
	.st0{fill:none;stroke:#221F1F;stroke-width:0.5;stroke-linecap:round;stroke-linejoin:round;stroke-miterlimit:10;}
	.st1{fill:#D1D2D3;}
	.st2{clip-path:url(#SVGID_00000125579941032845499040000004058786493259672448_);}
	
		.st3{clip-path:url(#SVGID_00000125579941032845499040000004058786493259672448_);fill:none;stroke:#221F1F;stroke-width:0.5;stroke-miterlimit:10;}
	.st4{fill:none;stroke:#221F1F;stroke-width:0.5;stroke-miterlimit:10;}
	.st5{clip-path:url(#SVGID_00000180333443747597157770000015819843410125833870_);}
	
		.st6{clip-path:url(#SVGID_00000180333443747597157770000015819843410125833870_);fill:none;stroke:#221F1F;stroke-width:0.5;stroke-miterlimit:10;}
	.st7{fill:#221F1F;stroke:#FFFFFF;stroke-width:1.5;stroke-miterlimit:10;}
	.st8{fill:#FFFFFF;}
	.st9{fill:#221F1F;stroke:#FFFFFF;stroke-width:0.75;stroke-linecap:round;stroke-linejoin:round;stroke-miterlimit:10;}
	.st10{fill:none;stroke:#FFFFFF;stroke-miterlimit:10;}
	.st11{fill:#FFFFFF;stroke:#FFFFFF;stroke-width:2;stroke-linecap:round;stroke-linejoin:round;stroke-miterlimit:10;}
	.st12{fill:#FFFFFF;stroke:#221F1F;stroke-width:0.5;stroke-miterlimit:10;}
	.st13{fill:none;stroke:#FFFFFF;stroke-width:2;stroke-linecap:round;stroke-linejoin:round;stroke-miterlimit:10;}
	
		.st14{fill:none;stroke:#221F1F;stroke-width:0.5;stroke-linecap:round;stroke-linejoin:round;stroke-miterlimit:10;stroke-dasharray:2.0546;}
</style>
<g id="Layer_2">
	<g>
		<path class="st0" d="M164.974,94.211"/>
		<g>
			<path class="st0" d="M177.929,104.772"/>
		</g>
		<g>
			<path class="st0" d="M183.866,105.071"/>
			<path class="st0" d="M184.184,104.243"/>
			<path class="st0" d="M184.503,103.414"/>
		</g>
		<g>
			<path class="st0" d="M184.261,106.073"/>
		</g>
		<path class="st0" d="M204.478,112.062"/>
		<polygon class="st0" points="177.638,103.773 176.622,103.54 175.053,108.217 176.128,108.449 		"/>
		<polyline class="st0" points="175.053,108.42 175.111,109.814 176.237,110.06 176.157,108.507 		"/>
		<path class="st0" d="M176.329,109.968"/>
		<path class="st0" d="M205.221,115.422"/>
		<path class="st0" d="M208.371,110.769c0,0-1.135,0.077-1.368,0.903c0,0-0.335,0.852,0.852,0.723c0,0,1.187,0,1.548-0.877
			C209.403,111.517,209.558,110.588,208.371,110.769z"/>
		<path class="st0" d="M205.225,114.244l0.075,2.133c0,0,1.004,0.427,1.205-0.276l0.427-0.954l-0.025-1.686"/>
		<polyline class="st0" points="207.107,115.273 208.538,115.524 209.441,113.039 209.391,111.634 		"/>
		<polyline class="st0" points="208.036,112.487 208.061,114.67 208.764,114.796 		"/>
		<path class="st0" d="M208.136,110.617c0.108-0.888-0.173-0.953-0.173-0.953l-0.714-0.13l-0.123,1.505"/>
		<path class="st0" d="M207.197,112.431l-0.654,2.042c0,0-0.099,0.694-1.209,0.278"/>
		<path class="st0" d="M140.798,98.789c-1.14-0.534-0.675-1.443-0.675-1.443c0.442-0.885,1.629-0.279,1.629-0.279
			s1.303,0.349,0.954,1.536C142.706,98.603,142.636,99.651,140.798,98.789z"/>
		<polyline class="st0" points="142.881,97.655 143.244,96.711 144.604,96.96 144.502,98.566 142.912,103.518 		"/>
		<polyline class="st0" points="142.975,98.629 143.43,98.736 142.941,99.924 142.08,99.737 141.475,101.623 142.851,101.881 		"/>
		<polyline class="st0" points="142.311,99.929 140.49,99.591 140.506,100.864 140.103,100.783 140.087,101.509 141.296,101.734 		
			"/>
		<path class="st0" d="M141.876,100.187l-0.371,1.064c0,0-0.338,0.516,1.358,0.703l0.048,1.563l-1.052-0.107
			c0,0-0.435-0.016-0.435-0.435s-0.032-1.434-0.032-1.434"/>
		<polygon class="st0" points="171.673,107.658 172.963,108.017 172.963,109.372 171.673,109.013 		"/>
		<polyline class="st0" points="171.706,107.56 173.436,102.86 174.66,103.17 172.963,108.017 		"/>
		<polyline class="st0" points="172.963,109.372 174.611,104.655 174.676,103.235 		"/>
		<polyline class="st0" points="177.638,103.773 177.801,105.367 176.329,109.968 		"/>
	</g>
</g>
<g id="EMPTY_x5F_RISER">
	<path class="st1" d="M120.854,149.317l-0.304-8.369l-32.412-6.695l-5.394,12.306l0.349,2.359l-1.048-0.262L68.24,186.137
		l-2.359-0.524c0,0-1.311-0.437-1.485,1.136s-0.786,2.971-0.786,2.971s0.349,2.621,4.019,2.883c0,0,0.699,1.922,1.747,1.922v1.223
		l25.862,5.242v-1.048c0,0,1.66,0.262,1.747-1.223l-0.786-0.437c0,0,6.897,3.286,8.032-1.17l15.82-44.438L120.854,149.317z"/>
	<path class="st1" d="M124.186,141.969l33.292,6.482v1.031l0.147,8.544l3.241-8.839l33.881,6.924l-20.182,54.947l0.295,2.062
		l-1.473-0.147l-0.737,1.326l-2.504-0.737l0.518,3.908c0,0-1.554-0.518-1.761,2.279l-25.685-5.075l-0.207-1.036
		c0,0-2.071-1.761-1.45-5.8l-7.871-1.657l0.104,3.314c0,0,0.311,1.761-1.554,1.554l-0.104,1.139l-25.685-5.178l-0.414-0.932
		c0,0-1.45-1.036-1.45-3.003l-0.311-3.003l-1.45-0.414c0,0-3.003-0.829-1.761-4.35l0.725-1.761l1.036-0.207l1.864,0.414
		l11.082-28.171l-0.104-2.382l2.589-7.353l1.45,0.725l-0.207-2.382L124.186,141.969z"/>
	<g>
		<polyline class="st0" points="116.587,76.13 103.35,73.427 102.544,74.728 100.228,74.274 99.456,74.501 		"/>
		<line class="st0" x1="140.996" y1="81.113" x2="122.136" y2="77.263"/>
		<line class="st0" x1="147.084" y1="82.356" x2="143.935" y2="81.713"/>
		<line class="st0" x1="173.033" y1="87.653" x2="148.372" y2="82.619"/>
		<line class="st0" x1="199.544" y1="93.066" x2="174.993" y2="88.054"/>
		<line class="st0" x1="208.209" y1="94.835" x2="200.942" y2="93.351"/>
		<polyline class="st0" points="211.427,104.743 212.359,97.163 213.246,95.863 210.983,95.401 		"/>
		<polyline class="st0" points="97.318,78.38 96.679,79.339 83.915,113.845 83.933,116.217 83.965,118.196 83.823,118.784 
			80.638,127.574 80.444,122.583 		"/>
		<polyline class="st0" points="83.947,112.561 84.305,109.434 97.349,75.575 		"/>
		<path class="st0" d="M97.318,78.38"/>
		<path class="st0" d="M80.999,127.744"/>
		<line class="st0" x1="78.532" y1="129.329" x2="80.235" y2="129.62"/>
		<polyline class="st0" points="82.973,148.788 82.681,146.649 87.485,134.236 194.701,156.156 174.82,211.03 174.82,213.46 		"/>
		<path class="st0" d="M219.468,106.612l0.069-3.071c0,0-0.365-0.706-1.037-0.537l-0.227-9.387l-2.22,5.63l-0.051,1.108
			l-12.112,32.779c0,0-1.06,2.952-0.984,5.602s0.64,3.201,0.111,4.337c-0.53,1.136-3.448,8.337-3.448,8.337l-0.228-3.795
			c0,0-0.116-0.218-0.303-0.327c-0.264-0.155-0.668-0.092-1.08,1.115l-3.112,7.929"/>
		<polyline class="st0" points="219.329,103.795 217.187,109.341 217.135,107.411 217.841,105.533 217.859,104.792 218.582,102.966 
					"/>
		<polyline class="st0" points="216.076,98.601 215.252,98.445 214.184,100.96 213.895,102.768 		"/>
		<line class="st0" x1="214.879" y1="103.096" x2="213.858" y2="102.841"/>
		<line class="st0" x1="176.744" y1="222.453" x2="219.408" y2="106.37"/>
		<polygon class="st0" points="175.59,217.198 176.259,214.817 176.259,213.773 173.376,213.146 169.24,221.626 168.865,228.602 
			172.332,229.396 173.501,227.182 173.669,222.587 175.005,219.12 		"/>
		<line class="st0" x1="169.905" y1="223.325" x2="172.101" y2="223.761"/>
		<line class="st0" x1="169.873" y1="224.088" x2="172.07" y2="224.524"/>
		<line class="st0" x1="169.842" y1="224.851" x2="172.039" y2="225.287"/>
		<line class="st0" x1="169.811" y1="225.615" x2="172.007" y2="226.051"/>
		<line class="st0" x1="169.78" y1="226.378" x2="171.976" y2="226.814"/>
		<line class="st0" x1="169.749" y1="227.141" x2="171.945" y2="227.577"/>
		<line class="st0" x1="169.718" y1="227.904" x2="171.914" y2="228.34"/>
		<path class="st0" d="M175.59,217.198c0,0,0.796-0.051,0.884,1.379s0.286,6.382,0.286,6.382l-2.223,5.854l-1.959-0.418
			l-0.022-1.276"/>
		<g>
			<g id="SPLINE_00000173133337100869247350000014163693547135675264_">
				<path class="st0" d="M158.432,168.917c-0.232,0.062-0.473,0.097-0.714,0.104c-0.241,0.007-0.484-0.013-0.719-0.061
					c-0.294-0.06-0.582-0.165-0.841-0.318c-0.121-0.072-0.236-0.154-0.342-0.247c-0.1-0.088-0.192-0.186-0.271-0.293
					c-0.076-0.102-0.14-0.212-0.19-0.329c-0.048-0.112-0.083-0.231-0.102-0.351c-0.019-0.119-0.022-0.241-0.009-0.361
					c0.013-0.122,0.041-0.241,0.083-0.356c0.044-0.119,0.103-0.232,0.173-0.338c0.074-0.111,0.16-0.213,0.256-0.306
					c0.101-0.098,0.211-0.186,0.329-0.263c0.123-0.081,0.254-0.151,0.389-0.21c0.284-0.124,0.588-0.2,0.898-0.231
					c0.314-0.031,0.633-0.016,0.941,0.047c0.208,0.043,0.413,0.107,0.607,0.196c0.183,0.083,0.356,0.188,0.512,0.315
					c0.145,0.118,0.275,0.255,0.379,0.41c0.098,0.145,0.173,0.305,0.217,0.474c0.043,0.163,0.056,0.335,0.039,0.503
					c-0.018,0.171-0.067,0.339-0.142,0.494c-0.079,0.165-0.187,0.315-0.312,0.448c-0.135,0.143-0.292,0.266-0.459,0.368
					c-0.044,0.027-0.088,0.052-0.134,0.076c-0.041,0.022-0.083,0.043-0.126,0.062c-0.13,0.06-0.265,0.11-0.403,0.15
					C158.472,168.906,158.452,168.912,158.432,168.917z"/>
			</g>
			<g id="SPLINE_00000049907803200387019850000011608570869778613929_">
				<path class="st0" d="M153.206,170.624c0.325-0.271,0.717-0.448,0.818-0.499c0.1-0.05,0.204-0.093,0.311-0.128
					c0.372-0.115,0.761-0.182,1.152-0.201c0.392-0.019,0.787,0.01,1.171,0.089c0.37,0.076,0.731,0.197,1.068,0.369
					c0.313,0.16,0.605,0.364,0.853,0.611c0.068,0.071,0.131,0.148,0.188,0.229c0.059,0.085,0.111,0.175,0.156,0.268
					c0.018,0.038,0.031,0.079,0.036,0.121c0.006,0.043,0.005,0.088,0.001,0.131v2.112"/>
			</g>
			<path class="st0" d="M158.384,163.727c0.025-0.059,0.047-0.119,0.067-0.18c0.024-0.072,0.045-0.145,0.064-0.219
				c0.041-0.158,0.06-0.228,0.099-0.391c0,0,0.2,0.043,0.237,0.051l3.178,0.65c0.089,0.018,0.176,0.045,0.26,0.081
				c0.079,0.034,0.156,0.076,0.225,0.127c0.066,0.047,0.126,0.102,0.177,0.165c0.048,0.059,0.127,0.189,0.127,0.189l-3.35,9.075
				c-0.039,0.106-0.108,0.201-0.19,0.28c-0.048,0.046-0.1,0.086-0.155,0.122c-0.06,0.039-0.123,0.072-0.188,0.1
				c-0.141,0.06-0.291,0.097-0.444,0.112c-0.156,0.015-0.315,0.007-0.467-0.024l-0.296-0.075l-4.666-1.143l0.001,0l-0.025-0.009
				l-0.038-0.035l-0.024-0.053l-0.015-0.077l-0.006-0.069l0,0l0.045-1.812"/>
			<g id="LINE_00000155104760788988697570000010936526743983421583_">
				<path class="st0" d="M161.906,166.521l-0.063-1.184l-0.045-0.304l0,0.001l-0.008-0.037l-0.056-0.117l-0.098-0.097l-0.131-0.068
					l-0.084-0.024l-5.726-1.171c-0.028-0.006-0.056,0.01-0.065,0.036l0,0l-2.59,6.981"/>
			</g>
		</g>
		<g>
			<g id="SPLINE_00000036210513665677808390000011767099729136867241_">
				<path class="st0" d="M121.137,161.523c-0.232,0.062-0.473,0.097-0.714,0.104c-0.241,0.007-0.484-0.013-0.719-0.061
					c-0.294-0.06-0.582-0.165-0.841-0.318c-0.121-0.072-0.236-0.154-0.342-0.247c-0.1-0.088-0.192-0.186-0.271-0.293
					c-0.076-0.102-0.14-0.212-0.19-0.329c-0.048-0.112-0.083-0.231-0.102-0.351c-0.019-0.119-0.022-0.241-0.009-0.361
					c0.013-0.122,0.041-0.241,0.083-0.356c0.044-0.119,0.103-0.232,0.173-0.338c0.074-0.111,0.16-0.213,0.256-0.306
					c0.101-0.098,0.211-0.186,0.329-0.263c0.123-0.081,0.254-0.151,0.389-0.21c0.284-0.124,0.588-0.2,0.898-0.231
					c0.314-0.031,0.633-0.016,0.941,0.047c0.208,0.043,0.413,0.107,0.607,0.196c0.183,0.083,0.356,0.188,0.512,0.315
					c0.145,0.118,0.275,0.255,0.379,0.41c0.098,0.145,0.173,0.305,0.217,0.474c0.043,0.163,0.056,0.335,0.039,0.503
					c-0.018,0.171-0.067,0.339-0.142,0.494c-0.079,0.165-0.187,0.315-0.312,0.448c-0.135,0.143-0.292,0.266-0.459,0.368
					c-0.044,0.027-0.088,0.052-0.134,0.076c-0.041,0.022-0.083,0.043-0.126,0.062c-0.13,0.06-0.266,0.11-0.403,0.15
					C121.176,161.512,121.157,161.517,121.137,161.523z"/>
			</g>
			<g id="SPLINE_00000031904058295122543280000001412688566704230809_">
				<path class="st0" d="M115.91,163.229c0.325-0.271,0.717-0.448,0.818-0.499c0.1-0.05,0.204-0.093,0.311-0.128
					c0.372-0.115,0.761-0.182,1.152-0.201c0.392-0.019,0.787,0.01,1.171,0.089c0.37,0.076,0.731,0.197,1.068,0.369
					c0.313,0.16,0.605,0.364,0.853,0.611c0.068,0.071,0.131,0.148,0.188,0.229c0.059,0.085,0.111,0.175,0.156,0.268
					c0.018,0.038,0.031,0.079,0.036,0.121c0.006,0.043,0.005,0.088,0.001,0.131v2.112"/>
			</g>
			<path class="st0" d="M121.089,156.332c0.025-0.059,0.047-0.119,0.067-0.18c0.024-0.072,0.045-0.145,0.064-0.219
				c0.041-0.158,0.06-0.228,0.099-0.391c0,0,0.2,0.043,0.237,0.051l3.178,0.65c0.089,0.018,0.176,0.045,0.26,0.081
				c0.079,0.034,0.156,0.076,0.225,0.127c0.066,0.047,0.126,0.102,0.177,0.165c0.048,0.059,0.127,0.189,0.127,0.189l-3.35,9.075
				c-0.039,0.106-0.108,0.201-0.19,0.28c-0.048,0.046-0.1,0.086-0.155,0.122c-0.06,0.039-0.123,0.072-0.188,0.1
				c-0.14,0.06-0.291,0.097-0.444,0.112c-0.156,0.015-0.315,0.007-0.467-0.024l-0.296-0.075l-4.666-1.143l0.001,0l-0.025-0.009
				l-0.038-0.035l-0.024-0.053l-0.015-0.077l-0.006-0.069l0,0l0.045-1.812"/>
			<g id="LINE_00000054261520637613997160000010377826707395499149_">
				<path class="st0" d="M124.61,159.127l-0.063-1.184l-0.045-0.304l0,0.001l-0.008-0.037l-0.056-0.117l-0.098-0.097l-0.131-0.068
					l-0.084-0.024l-5.726-1.171c-0.028-0.006-0.056,0.01-0.065,0.036l0,0l-2.59,6.981"/>
			</g>
		</g>
		<g>
			<g id="SPLINE_00000052808296900607931130000004898405857025405327_">
				<path class="st0" d="M84.841,154.128c-0.232,0.062-0.473,0.097-0.714,0.104c-0.241,0.007-0.484-0.013-0.719-0.061
					c-0.294-0.06-0.582-0.165-0.841-0.318c-0.121-0.072-0.236-0.154-0.342-0.247c-0.1-0.088-0.192-0.186-0.271-0.293
					c-0.076-0.102-0.14-0.212-0.19-0.329c-0.048-0.112-0.083-0.231-0.102-0.351c-0.019-0.119-0.022-0.241-0.009-0.361
					c0.013-0.122,0.041-0.241,0.083-0.356c0.044-0.119,0.103-0.232,0.173-0.338c0.074-0.111,0.16-0.213,0.256-0.306
					c0.101-0.098,0.211-0.186,0.329-0.263c0.123-0.081,0.254-0.151,0.389-0.21c0.284-0.124,0.588-0.2,0.898-0.231
					c0.314-0.031,0.633-0.016,0.941,0.047c0.208,0.043,0.413,0.107,0.607,0.196c0.183,0.083,0.356,0.188,0.512,0.315
					c0.145,0.118,0.275,0.255,0.379,0.41c0.098,0.145,0.173,0.305,0.217,0.474c0.043,0.163,0.056,0.335,0.039,0.503
					c-0.018,0.171-0.067,0.339-0.142,0.494c-0.079,0.165-0.187,0.315-0.312,0.448c-0.135,0.143-0.292,0.266-0.459,0.368
					c-0.044,0.027-0.088,0.052-0.134,0.076c-0.041,0.022-0.083,0.043-0.126,0.062c-0.13,0.06-0.265,0.11-0.403,0.15
					C84.881,154.118,84.861,154.123,84.841,154.128z"/>
			</g>
			<g id="SPLINE_00000168828586316463455150000003408843308804027522_">
				<path class="st0" d="M79.615,155.835c0.325-0.271,0.717-0.448,0.818-0.499c0.1-0.05,0.204-0.093,0.311-0.128
					c0.372-0.115,0.761-0.182,1.152-0.201c0.392-0.019,0.787,0.01,1.171,0.089c0.37,0.076,0.731,0.197,1.068,0.369
					c0.313,0.16,0.605,0.364,0.853,0.611c0.068,0.071,0.131,0.148,0.188,0.229c0.059,0.085,0.111,0.175,0.156,0.268
					c0.018,0.038,0.031,0.079,0.036,0.121c0.006,0.043,0.005,0.088,0.001,0.131v2.112"/>
			</g>
			<path class="st0" d="M84.793,148.938c0.025-0.059,0.047-0.119,0.067-0.18c0.024-0.072,0.045-0.145,0.064-0.219
				c0.041-0.158,0.06-0.228,0.099-0.391c0,0,0.2,0.043,0.237,0.051l3.178,0.65c0.089,0.018,0.176,0.045,0.26,0.081
				c0.079,0.034,0.156,0.076,0.225,0.127c0.066,0.047,0.126,0.102,0.177,0.165c0.048,0.059,0.127,0.189,0.127,0.189l-3.35,9.075
				c-0.039,0.106-0.108,0.201-0.19,0.28c-0.048,0.046-0.1,0.087-0.155,0.122c-0.06,0.039-0.123,0.072-0.188,0.1
				c-0.14,0.06-0.291,0.097-0.444,0.112c-0.156,0.015-0.315,0.007-0.467-0.024L84.137,159l-4.666-1.143l0.001,0l-0.025-0.009
				l-0.038-0.035l-0.024-0.053l-0.015-0.077l-0.006-0.069l0,0l0.045-1.812"/>
			<g id="LINE_00000162342255452338202280000011823139214613900705_">
				<path class="st0" d="M88.315,151.733l-0.063-1.184c0,0-0.045-0.304-0.045-0.304l0,0.001L88.2,150.21l-0.056-0.117l-0.098-0.097
					l-0.131-0.068l-0.084-0.024c0,0-5.726-1.171-5.726-1.171c-0.028-0.006-0.056,0.01-0.065,0.036l0,0l-2.59,6.981l-11.228,30.386
					l-2.41-0.511c0,0-0.887-0.114-1.288,0.859"/>
			</g>
		</g>
		<polyline class="st0" points="124.036,141.819 119.534,154.266 119.643,156.441 		"/>
		<path class="st0" d="M102.51,190.598c0,0,2.72-7.615,3.209-8.648c0.49-1.033-0.326-1.74-0.326-1.74l-2.589-2.138l2.07-5.91
			c0,0,1.329-0.589,3.402-0.818c1.86-0.205,2.012-1.469,2.012-1.469l10.28-28.8l0.402,9.217"/>
		<polygon class="st0" points="96.307,137.909 107.907,140.313 103.466,152.278 92.023,149.822 		"/>
		<line class="st0" x1="160.833" y1="149.476" x2="156.516" y2="161.085"/>
		<polyline class="st0" points="137.971,200.767 141.889,201.543 153.445,169.444 		"/>
		<path class="st0" d="M138.697,200.947l-1.219,3.454c0,0-1.164,2.108,2.065,3.016"/>
		<line class="st0" x1="172.882" y1="214.135" x2="56.699" y2="190.354"/>
		<path class="st0" d="M157.616,158.117l-0.305-8.822l-3.192-0.658c0,0-0.721-0.219-1.159,0.94s-1.015,2.838-1.015,2.838
			s-0.533,1.065,0.345,2.225c0,0,0.971,1.003,0.564,2.131c-0.407,1.128-0.627,1.379-0.627,1.379s-0.313,0.815,1.065,1.128
			l-6.611,18.236c0,0-0.282,0.846-1.943,1.097c-1.661,0.251-2.413,0.501-2.413,0.501s-0.595,0-1.159,1.253
			c-0.564,1.253-1.598,4.167-1.598,4.167s-0.564,0.94,0.313,1.661c0.877,0.721,2.099,1.535,2.099,1.535s0.815,0.533,0.219,1.849
			c-0.595,1.316-1.911,4.857-1.911,4.857s-1.039-0.279-1.48,0.294c-0.441,0.573-0.617,1.763-0.617,1.763s-0.265,0.838,0.97,1.234
			l-2.601,6.304c0,0-1.146,2.381-4.232,1.719"/>
		<path class="st0" d="M56.181,189.143l-0.066-2.59l11.821-31.478l1.063-0.398l1.395-3.652l0.996,0.199l2.191-6.043l-1.992-0.398
			l7.882-21.727l0.698,0.161l0.204-0.487l0.958-2.286c0,0,0.886-0.994,0.929,0.951l0.089,1.399"/>
		<path class="st0" d="M68.895,155.026l-2.404,6.485l-0.056,4.976l6.933,1.454l0.224-0.503c0,0,1.156-0.093,1.707-0.699
			l-5.406-0.858l0.036-1.854l4.435,0.654"/>
		<line class="st0" x1="59.137" y1="184.941" x2="66.44" y2="164.905"/>
		<path class="st0" d="M64.593,186.175l-6.235-1.299c0,0-0.909,1.429,0.162,1.721c1.072,0.292,4.838,1.007,4.838,1.007
			S64.236,188.059,64.593,186.175z"/>
		<path class="st0" d="M56.876,189.421l-0.881,2.569l-0.073,2.569l-1.395,3.45l-0.037,4.734l-1.064,2.312l-3.707-0.734l0.697-7.193
			l2.312-4.478l1.692-3.821l7.584,1.631c0,0,0.973,0.401,1.316-0.658c0.343-1.059,1.202-3.32,1.202-3.32"/>
		<polyline class="st0" points="54.738,197.891 56.046,198.202 57.813,194.447 		"/>
		<polyline class="st0" points="55.984,194.84 56.046,206.451 54.023,206.108 53.96,204.054 		"/>
		<polyline class="st0" points="56.198,206.246 57.813,201.79 57.858,190.605 		"/>
		<polyline class="st0" points="58.021,194.075 99.24,202.655 100.369,203.32 100.498,211.211 		"/>
		<path class="st0" d="M63.609,188.98c0,0-0.441,2.325,2.365,3.247"/>
		<path class="st0" d="M95.003,198.113c4.672,0.501,5.478-3.142,5.478-3.142l1.669-4.728l0.834,0.25v0.695l-0.6,1.382l0.073,0.757"
			/>
		<path class="st0" d="M102.867,199.806c0,0-3.081-0.998-2.163-3.445l1.029-2.336c0,0,0.222-0.89,1.418-0.612
			c1.196,0.278,1.724,0.473,1.724,0.473l10.806-28.731"/>
		<polyline class="st0" points="113.154,161.649 113.337,164.584 118.336,151.836 118.473,149.91 119.803,146.609 118.694,146.384 
					"/>
		<line class="st0" x1="115.771" y1="154.529" x2="115.919" y2="157.79"/>
		<polyline class="st0" points="119.911,153.167 119.729,149.343 120.015,148.823 119.803,146.609 		"/>
		<polyline class="st0" points="156.575,163.542 156.226,152.29 157.534,148.633 		"/>
		<line class="st0" x1="154.778" y1="151.792" x2="156.127" y2="152.059"/>
		<g id="SPLINE_00000058578943016872027370000017197326759267413671_">
			<path class="st0" d="M153.016,154.448l-0.404-0.946c-0.013-0.03-0.02-0.063-0.021-0.096c-0.001-0.033,0.005-0.066,0.016-0.097
				l0.794-2.152c0.016-0.044,0.044-0.083,0.077-0.116c0.037-0.037,0.082-0.065,0.129-0.085c0.051-0.022,0.106-0.036,0.162-0.042
				c0.057-0.006,0.114-0.003,0.17,0.008l0.553,0.113c0.041,0.008,0.081,0.022,0.119,0.04c0.035,0.017,0.069,0.039,0.098,0.065
				c0.027,0.024,0.05,0.053,0.068,0.085c0.016,0.03,0.027,0.063,0.031,0.096c0.004,0.03,0.002,0.061-0.005,0.091
				c-0.002,0.01-0.005,0.02-0.009,0.03l-0.292,0.791c-0.002,0.006-0.003,0.013-0.002,0.02c0.001,0.007,0.004,0.013,0.008,0.019
				c0.009,0.013,0.025,0.02,0.04,0.023l0.055,0.011c0.044,0.009,0.088,0.025,0.127,0.048c0.036,0.021,0.068,0.048,0.092,0.081
				c0.022,0.03,0.038,0.065,0.044,0.102c0.006,0.036,0.001,0.074-0.011,0.108l-0.682,1.847c-0.016,0.044-0.044,0.083-0.077,0.116
				c-0.037,0.037-0.082,0.065-0.129,0.085c-0.051,0.022-0.106,0.036-0.162,0.042c-0.057,0.006-0.114,0.003-0.17-0.008l-0.322-0.066
				c-0.065-0.013-0.129-0.039-0.184-0.078C153.08,154.549,153.039,154.502,153.016,154.448"/>
		</g>
		<ellipse class="st0" cx="154.709" cy="149.924" rx="0.84" ry="0.504"/>
		<g id="SPLINE_00000166655015672398347750000005487735434654730173_">
			<path class="st0" d="M93.887,190.082c0.173-0.091,0.335-0.21,0.469-0.353c0.063-0.067,0.119-0.139,0.168-0.217
				c0.047-0.074,0.086-0.153,0.117-0.235l9.376-25.401c0.033-0.089,0.055-0.183,0.065-0.278c0.01-0.094,0.007-0.188-0.007-0.281
				c-0.015-0.094-0.042-0.187-0.079-0.274c-0.039-0.091-0.089-0.177-0.148-0.256c-0.062-0.084-0.134-0.16-0.212-0.229
				c-0.082-0.073-0.172-0.137-0.267-0.192c-0.202-0.119-0.427-0.201-0.656-0.248l-14.747-3.016c-0.24-0.049-0.489-0.061-0.734-0.037
				c-0.241,0.024-0.479,0.084-0.7,0.18c-0.106,0.046-0.207,0.101-0.304,0.164c-0.092,0.06-0.178,0.129-0.256,0.205
				c-0.074,0.073-0.142,0.152-0.199,0.239c-0.055,0.082-0.101,0.171-0.135,0.263l-9.376,25.401
				c-0.027,0.073-0.047,0.149-0.058,0.226c-0.011,0.076-0.015,0.153-0.011,0.229c0.005,0.077,0.017,0.153,0.038,0.227
				c0.021,0.076,0.049,0.149,0.085,0.219c0.075,0.148,0.179,0.28,0.301,0.393c0.133,0.123,0.287,0.222,0.449,0.299
				c0.039,0.018,0.079,0.036,0.119,0.052c0.123,0.049,0.252,0.087,0.382,0.114l14.747,3.016c0.267,0.055,0.544,0.064,0.816,0.027
				C93.393,190.285,93.652,190.206,93.887,190.082"/>
		</g>
		<g id="SPLINE_00000124127472434297257380000004947326489543455927_">
			<path class="st0" d="M130.647,197.641c0.173-0.091,0.335-0.21,0.469-0.353c0.063-0.067,0.119-0.139,0.168-0.217
				c0.047-0.074,0.086-0.153,0.117-0.235l9.376-25.401c0.033-0.089,0.055-0.183,0.065-0.278c0.01-0.094,0.007-0.188-0.007-0.281
				c-0.015-0.094-0.042-0.187-0.079-0.274c-0.039-0.091-0.089-0.177-0.148-0.256c-0.062-0.084-0.134-0.16-0.212-0.229
				c-0.082-0.073-0.172-0.137-0.267-0.192c-0.202-0.119-0.427-0.201-0.656-0.248l-14.747-3.016c-0.24-0.049-0.489-0.061-0.734-0.037
				c-0.241,0.024-0.479,0.084-0.7,0.18c-0.106,0.046-0.207,0.101-0.304,0.164c-0.092,0.06-0.178,0.129-0.256,0.205
				c-0.074,0.073-0.142,0.152-0.199,0.239c-0.055,0.082-0.101,0.171-0.135,0.263l-9.376,25.401
				c-0.027,0.073-0.047,0.149-0.058,0.226c-0.011,0.076-0.015,0.153-0.011,0.229c0.005,0.077,0.017,0.153,0.038,0.227
				c0.021,0.076,0.049,0.149,0.085,0.219c0.075,0.148,0.179,0.28,0.301,0.393c0.133,0.123,0.287,0.222,0.449,0.299
				c0.039,0.018,0.079,0.036,0.119,0.052c0.123,0.049,0.252,0.087,0.382,0.114l14.747,3.016c0.267,0.055,0.544,0.063,0.816,0.027
				C130.153,197.844,130.412,197.765,130.647,197.641"/>
		</g>
		<g id="SPLINE_00000167374311143870386570000003421710411660195482_">
			<path class="st0" d="M167.51,205.097c0.173-0.091,0.335-0.21,0.469-0.353c0.063-0.067,0.119-0.139,0.168-0.217
				c0.047-0.074,0.086-0.153,0.117-0.235l9.376-25.401c0.033-0.089,0.055-0.183,0.065-0.278c0.01-0.094,0.007-0.188-0.007-0.281
				c-0.015-0.094-0.042-0.187-0.079-0.274c-0.039-0.091-0.089-0.177-0.148-0.256c-0.062-0.084-0.134-0.16-0.212-0.229
				c-0.082-0.073-0.172-0.137-0.267-0.192c-0.202-0.119-0.427-0.201-0.656-0.248l-14.747-3.016c-0.24-0.049-0.489-0.061-0.734-0.037
				c-0.241,0.024-0.479,0.084-0.7,0.18c-0.106,0.046-0.207,0.101-0.304,0.164c-0.092,0.06-0.178,0.129-0.256,0.205
				c-0.074,0.073-0.142,0.152-0.199,0.239c-0.055,0.082-0.101,0.171-0.135,0.263l-9.376,25.401
				c-0.027,0.073-0.047,0.149-0.058,0.226c-0.011,0.076-0.015,0.153-0.011,0.229c0.005,0.077,0.017,0.153,0.038,0.227
				c0.021,0.076,0.049,0.149,0.085,0.219c0.075,0.148,0.179,0.28,0.301,0.393c0.133,0.123,0.287,0.222,0.449,0.299
				c0.039,0.018,0.079,0.036,0.119,0.052c0.123,0.049,0.252,0.087,0.382,0.114l14.747,3.016c0.267,0.055,0.544,0.063,0.816,0.027
				C167.016,205.299,167.276,205.221,167.51,205.097"/>
		</g>
		<path class="st0" d="M194.275,156.589l-3.192-0.658c0,0-0.721-0.219-1.159,0.94s-1.015,2.838-1.015,2.838
			s-0.533,1.065,0.345,2.225c0,0,0.971,1.003,0.564,2.131c-0.407,1.128-0.627,1.379-0.627,1.379s-0.313,0.815,1.065,1.128
			l-6.611,18.236c0,0-0.282,0.846-1.943,1.097s-2.413,0.501-2.413,0.501s-0.595,0-1.159,1.253c-0.564,1.253-1.598,4.167-1.598,4.167
			s-0.564,0.94,0.313,1.661c0.877,0.721,2.099,1.535,2.099,1.535s0.815,0.533,0.219,1.849c-0.595,1.316-1.911,4.857-1.911,4.857
			s-1.039-0.279-1.48,0.294c-0.441,0.573-0.617,1.763-0.617,1.763s-0.265,0.838,0.97,1.234l-2.601,6.304
			c0,0-1.328,2.682-4.414,2.021"/>
		<line class="st0" x1="170.454" y1="213.664" x2="170.67" y2="218.555"/>
		<path class="st0" d="M141.626,207.777l0.087,3.852c0,0,0.173,1.299,1.515,1.688"/>
		<path class="st0" d="M142.222,207.834l0.143,3.848c0,0,1.14,0.057,0.998,0.57s-0.314,0.998-0.314,0.998l-0.029,1.226l25.884,5.302
			l0.2-1.34c0,0,0.029-1.34,1.397-1.112"/>
		<path class="st0" d="M105.51,200.458l0.103,3.776c0,0,1.098,0.069,0.995,0.652c-0.103,0.584-0.309,0.892-0.309,0.892l0.034,1.167
			l25.847,5.286l0.103-1.304c0,0,0-1.407,1.545-1.064"/>
		<path class="st0" d="M133.657,206.156l0.103,2.918c0,0,0.618,2.609-1.476,1.854"/>
		<path class="st0" d="M104.755,200.355v3.741c0,0-0.24,1.064,1.545,1.682"/>
		<path class="st0" d="M57.62,202.37c0,0-0.58,1.625,1.48,2.031c2.06,0.406,8.53,1.712,8.53,1.712s0.928,0.609,1.596-1.625
			l-0.087-8.036"/>
		<polyline class="st0" points="69.09,197.264 75.957,198.691 76.012,204.344 		"/>
		<line class="st0" x1="69.399" y1="204.505" x2="74.308" y2="205.517"/>
		<line class="st0" x1="69.348" y1="203.68" x2="74.656" y2="204.762"/>
		<polyline class="st0" points="76.004,204.324 77.161,204.569 77.387,202.314 77.593,201.516 77.954,201.593 78.031,204.427 
			77.719,205.045 77.771,206.231 77.432,207.196 76.128,206.909 		"/>
		<path class="st0" d="M76.064,207.43l-0.08-3.126l-1.03-0.207l-1.598,4.09l0.139,2.967c0,0,0.697,0.657,1.055,0.1L76.064,207.43z"
			/>
		<path class="st0" d="M74.955,204.096l-0.137-3.854c0,0-0.068-0.707-0.775-0.798c-0.707-0.091-2.304-0.479-2.304-0.479
			l-1.551,0.798l0.068,2.668l1.414,1.574"/>
		<polyline class="st0" points="89.59,207.42 89.008,208.223 88.925,209.554 80.002,207.697 80.03,206.173 80.39,205.425 		"/>
		<path class="st0" d="M79.31,198.636l0.194,6.65l-0.471,0.72l-0.055,1.635c0,0,0.194,0.942,1.136,1.108
			c0.942,0.166,8.978,1.773,8.978,1.773s1.053,0.111,1.469-1.635l-0.083-6.484l1.053-1.385"/>
		<line class="st0" x1="80.169" y1="206.727" x2="88.897" y2="208.445"/>
		<line class="st0" x1="77.771" y1="206.231" x2="78.902" y2="206.452"/>
		<polyline class="st0" points="90.91,201.776 97.27,203.035 97.31,208.394 98.53,208.562 98.788,206.279 99.225,205.802 
			99.265,208.741 99.046,209.456 99.055,210.865 168.891,225.351 		"/>
		<line class="st0" x1="90.554" y1="208.007" x2="95.957" y2="209.089"/>
		<line class="st0" x1="90.564" y1="208.863" x2="95.655" y2="209.881"/>
		<path class="st0" d="M93.43,208.41l-1.885-1.621l-0.057-2.677l1.508-0.792c0,0,1.49,0.377,2.244,0.434s0.886,0.716,0.886,0.716
			l0.113,3.978l-1.602,4.106l0.139,3.058c0.894,0.516,1.112,0,1.112,0l1.509-3.912l-0.118-3.276c0,0-0.22-0.02-0.895-0.1"/>
		<polyline class="st0" points="97.358,211.283 98.649,211.541 99.007,210.627 		"/>
		<g>
			<polygon class="st0" points="115.882,211.317 123.774,213.013 123.866,215.152 115.974,213.457 			"/>
			<line class="st0" x1="119.813" y1="212.361" x2="119.874" y2="214.164"/>
		</g>
		<g>
			<polygon class="st0" points="125.168,213.305 135.637,215.508 135.729,217.587 125.26,215.383 			"/>
			<line class="st0" x1="130.498" y1="214.533" x2="130.56" y2="216.285"/>
		</g>
		<polygon class="st0" points="137.408,212.891 140.904,213.591 140.999,215.593 137.408,214.894 		"/>
		<polygon class="st0" points="137.408,215.697 140.904,216.396 140.999,218.399 137.408,217.7 		"/>
		<line class="st0" x1="191.688" y1="159.105" x2="193.442" y2="159.474"/>
		<g id="SPLINE_00000175322790335976204890000015901879313268949916_">
			<path class="st0" d="M189.925,161.761l-0.404-0.946c-0.013-0.03-0.02-0.063-0.021-0.096c-0.001-0.033,0.005-0.066,0.016-0.097
				l0.794-2.152c0.016-0.044,0.044-0.083,0.077-0.116c0.037-0.037,0.082-0.065,0.129-0.085c0.051-0.022,0.106-0.036,0.162-0.042
				c0.057-0.006,0.114-0.003,0.17,0.008l0.553,0.113c0.041,0.008,0.081,0.022,0.119,0.04c0.035,0.017,0.069,0.039,0.098,0.065
				c0.027,0.024,0.05,0.053,0.068,0.085c0.016,0.03,0.027,0.063,0.031,0.096c0.004,0.03,0.002,0.061-0.005,0.091
				c-0.002,0.01-0.005,0.02-0.009,0.03l-0.292,0.791c-0.002,0.006-0.003,0.013-0.002,0.02c0.001,0.007,0.004,0.013,0.008,0.019
				c0.009,0.012,0.025,0.02,0.04,0.023l0.055,0.011c0.044,0.009,0.088,0.025,0.127,0.048c0.036,0.021,0.068,0.048,0.092,0.081
				c0.022,0.03,0.038,0.065,0.044,0.103c0.006,0.036,0.001,0.074-0.011,0.108l-0.682,1.847c-0.016,0.044-0.044,0.083-0.077,0.116
				c-0.037,0.037-0.082,0.065-0.129,0.085c-0.051,0.022-0.106,0.036-0.162,0.042c-0.057,0.006-0.114,0.003-0.17-0.008l-0.322-0.066
				c-0.065-0.013-0.129-0.039-0.184-0.078C189.99,161.862,189.948,161.815,189.925,161.761"/>
		</g>
		<ellipse class="st0" cx="191.618" cy="157.237" rx="0.84" ry="0.504"/>
		<path class="st0" d="M66.572,161.351l3.01,0.719l3.545,0.498l0.002,0.93c0.477,0.079,1.51,1.152,1.51,1.152l0.926-2.222"/>
		<path class="st0" d="M73.327,162.225l4.212-10.531c0,0-0.556-2.623,1.868-4.53l-0.079-0.795l2.861-7.272l-5.444-1.152l1.391-3.537
			l1.113,0.199l0.358-0.119l3.656,0.755l-1.351,3.576"/>
		<polyline class="st0" points="74.074,137.943 74.983,138.124 75.455,137.397 77.418,132.199 83.817,133.199 85.271,133.671 
			85.38,134.943 84.871,134.725 83.262,135.243 		"/>
		<path class="st0" d="M81.999,139.342c0,0,2.29,0.727,2.218,3.272"/>
		<path class="st0" d="M83.126,135.562c0,0,2.363,1.091,2.545,3.345"/>
		<polyline class="st0" points="83.817,141.087 81.272,148.285 80.799,148.14 78.036,155.883 78.073,156.901 75.746,162.827 		"/>
		<path class="st0" d="M73.71,161.009c0,0,2.363,0.909,2.363,3.381"/>
		<polyline class="st0" points="71.588,144.782 71.687,146.376 70.15,150.596 70.393,151.024 		"/>
		<polyline class="st0" points="67.936,155.075 69.366,151.47 70.12,151.53 		"/>
		<polyline class="st0" points="80.416,130.887 78.256,130.512 78.292,129.363 78.971,127.327 81.166,127.706 		"/>
		<path class="st0" d="M86.342,132.156l-0.001,0.145l0.192,1.655c0,0-0.114,0.739-1.108,0.71l0.057-0.426l0.811-1.962"/>
		<polyline class="st0" points="84.084,135.061 84.656,135.695 85.662,135.947 85.671,136.594 85.301,137.434 		"/>
		<line class="st0" x1="51.02" y1="198.978" x2="53.008" y2="199.384"/>
		<line class="st0" x1="51.02" y1="199.778" x2="53.008" y2="200.184"/>
		<line class="st0" x1="50.962" y1="200.52" x2="52.949" y2="200.926"/>
		<line class="st0" x1="50.903" y1="201.261" x2="52.891" y2="201.668"/>
		<line class="st0" x1="50.825" y1="202.022" x2="52.813" y2="202.429"/>
		<line class="st0" x1="50.747" y1="202.744" x2="52.734" y2="203.151"/>
		<line class="st0" x1="50.688" y1="203.467" x2="52.676" y2="203.873"/>
		<path class="st0" d="M66.243,196.991c-3.205-2.08-5.851-0.754-5.851-0.754l1.88,1.159c0,0,2.402-0.448,3.377,1.414l0.834-1.132
			L66.243,196.991z"/>
		<path class="st0" d="M59.801,200.381l-0.661-0.504c-0.464-2.46,0.856-3.051,0.856-3.051l1.501,0.898c0,0-1.455,0.276-1.137,1.631
			C60.36,199.355,59.782,199.805,59.801,200.381z"/>
		<polyline class="st0" points="58.828,200.717 58.752,201.993 58.694,203.415 67.659,205.272 67.688,202.68 68.319,201.875 		"/>
		<path class="st0" d="M66.191,202.345c0,0-2.459,0.952-5.662-1.06c0,0-0.3-0.486,0.343-1.341c0,0,1.2,1.347,3.129,1.371
			C64.001,201.315,64.508,202.019,66.191,202.345z"/>
		<line class="st0" x1="58.754" y1="202.217" x2="67.472" y2="204.07"/>
		<path class="st0" d="M65.014,201.092c0,0,1.14-0.136,1.08-1.596l0.658-0.764l0.338-0.533c0,0,0.871,1.91-0.232,3.504
			C66.858,201.703,65.442,201.567,65.014,201.092z"/>
		<g>
			<path class="st0" d="M87.8,201.64c-3.072-1.994-5.608-0.722-5.608-0.722l1.802,1.111c0,0,2.303-0.429,3.237,1.356l0.8-1.086
				L87.8,201.64z"/>
			<path class="st0" d="M81.625,204.889l-0.633-0.483c-0.445-2.358,0.82-2.925,0.82-2.925l1.439,0.861c0,0-1.395,0.265-1.09,1.563
				C82.161,203.906,81.606,204.337,81.625,204.889z"/>
			<path class="st0" d="M87.75,206.772c0,0-2.357,0.912-5.428-1.016c0,0-0.288-0.466,0.329-1.286c0,0,1.15,1.291,3,1.314
				C85.651,205.785,86.136,206.46,87.75,206.772z"/>
			<path class="st0" d="M86.622,205.571c0,0,1.092-0.13,1.035-1.53l0.631-0.732l0.324-0.511c0,0,0.835,1.831-0.222,3.359
				C88.39,206.157,87.032,206.026,86.622,205.571z"/>
		</g>
		<path class="st0" d="M68.063,192.698c0,0-0.274,1.503,1.248,1.741"/>
		<path class="st0" d="M96.905,198.599c0,0,0.402,1.566-1.365,1.265"/>
		<polyline class="st0" points="95.881,198.318 95.379,199.683 95.359,201.028 69.276,195.627 69.316,194.462 69.915,193.092 		"/>
		<polygon class="st0" points="145.877,216.49 147.493,216.836 147.562,219.306 145.915,218.951 		"/>
		<g>
			<polygon class="st0" points="151.618,219.086 155.516,219.889 159.459,220.702 159.459,222.473 151.618,220.858 			"/>
			<line class="st0" x1="155.551" y1="221.613" x2="155.516" y2="219.889"/>
		</g>
		<g>
			<polygon class="st0" points="160.537,220.904 164.435,221.707 168.378,222.519 168.378,224.291 160.537,222.675 			"/>
			<line class="st0" x1="164.47" y1="223.431" x2="164.435" y2="221.707"/>
		</g>
		<g id="SPLINE_00000052065063925864384640000016269182678134379422_">
			<path class="st0" d="M142.498,218.005c0.001-0.01,0.003-0.021,0.007-0.031c0.003-0.008,0.007-0.017,0.012-0.024
				c0.011-0.016,0.025-0.029,0.042-0.039c0.044-0.027,0.099-0.035,0.151-0.032c0.02,0.001,0.04,0.004,0.06,0.008l1.802,0.369
				c0.054,0.011,0.107,0.032,0.154,0.063c0.042,0.027,0.08,0.061,0.104,0.104c0.013,0.023,0.022,0.049,0.023,0.076l0.004,0.168
				l-0.006,0.034c-0.007,0.018-0.02,0.034-0.036,0.046c-0.006,0.004-0.012,0.008-0.019,0.011l-0.207,0.102
				c-0.027,0.013-0.057,0.019-0.087,0.019c-0.011,0-0.022,0-0.034-0.001c-0.012-0.001-0.025-0.003-0.037-0.005l-1.492-0.305
				c-0.012-0.003-0.025-0.006-0.037-0.01c-0.03-0.01-0.06-0.023-0.086-0.041c-0.013-0.008-0.025-0.017-0.036-0.027l-0.213-0.188
				c-0.013-0.011-0.025-0.024-0.035-0.038c-0.009-0.012-0.017-0.026-0.022-0.04c-0.005-0.013-0.008-0.026-0.008-0.039l-0.004-0.168
				L142.498,218.005z"/>
		</g>
		<polyline class="st0" points="211.518,102.988 210.405,103.373 103.821,81.654 		"/>
		<polyline class="st0" points="120.31,77.514 117.445,78.201 117.445,79.004 114.351,81.983 114.523,79.061 117.674,74.993 
			120.654,74.076 		"/>
		<path class="st0" d="M145.121,72.377l-1.549,11.791l-3.25,4.081c0,0-0.794,0.529-0.68-0.68s0.491-3.779,0.491-3.779l4.497-11.413
			H145.121z"/>
		<path class="st0" d="M123.791,65.264l-0.815,1.086l-2.127,6.924l-0.679,5.249c0,0,0.226,0.679,0.86-0.045
			c0.634-0.724,4.525-5.657,4.525-5.657l8.221-64.189l-0.532-0.887l-2.041,2.751l-0.266,3.372l-3.017,4.792l-1.154,10.916
			l1.952-2.13l-2.683,20.533h0.74l-0.542,4.439l-0.888,0.444L123.791,65.264z"/>
		<polygon class="st0" points="147.471,83.379 150.472,79.937 150.825,76.495 150.03,75.084 147.913,72.436 147.56,70.23 
			148.618,62.641 148.971,53.993 145.795,74.642 147.383,79.937 		"/>
		<polygon class="st0" points="173.542,83.611 172.907,90.194 178.063,84.166 186.39,20.48 183.297,30.314 182.504,37.532 
			181.949,38.404 181.156,44.194 180.627,44.971 178.618,62.99 177.983,63.704 176.397,76.314 175.842,77.107 		"/>
		<polyline class="st0" points="172.718,89.372 171.786,90.836 171.609,93.854 174.804,90.614 174.993,88.054 		"/>
		<polyline class="st0" points="200.797,78.04 200.267,81.419 200.731,83.473 202.255,85.13 		"/>
		<polyline class="st0" points="203.182,78.504 201.791,90.563 203.013,89.091 204.375,87.449 204.507,86.058 203.977,84.6 
			204.309,83.937 203.59,81.542 203.921,78.627 		"/>
		<polyline class="st0" points="202.996,90.541 199.828,94.22 199.981,90.848 198.346,85.431 199.113,81.139 199.419,80.424 
			204.325,43.071 202.383,45.217 203.047,38.728 204.427,36.837 205.551,27.588 208.362,23.909 133.777,8.632 		"/>
		<path class="st0" d="M225.638,27.426l-16.235-3.338l-0.051,0.961l-3.035,9.458l-0.708,7.182l-0.556,2.175l12.846,2.681
			c0,0,2.377-1.315,0-4.248l-9.963-2.023l0.506-0.759l1.72-12.644l1.696-2.136"/>
		<line class="st0" x1="223.91" y1="49.335" x2="218.273" y2="93.616"/>
		<path class="st0" d="M218.273,93.616"/>
		<polyline class="st0" points="215.262,102.103 213.202,94.918 215.931,72.623 216.53,71.824 218.26,59.245 217.795,58.912 
			220.7,37.224 221.218,37.251 223.346,31.059 226.837,26.34 225.471,37.074 223.041,40.169 221.532,51.851 224.472,47.751 
			225.632,37.423 		"/>
		<polyline class="st0" points="220.165,26.459 218.38,28.772 216.86,41.792 		"/>
		<polyline class="st0" points="220.923,26.705 220.829,27.736 218.205,36.688 219.048,36.82 218.439,38.797 217.9,42.295 		"/>
		<line class="st0" x1="203.753" y1="49.237" x2="218.599" y2="52.447"/>
		<line class="st0" x1="202.469" y1="59.911" x2="217.555" y2="62.96"/>
		<polyline class="st0" points="214.785,80.787 211.663,80.144 199.859,77.71 		"/>
		<polyline class="st0" points="211.663,80.144 210.212,92.138 212.748,89.602 212.914,88.147 211.875,83.864 212.249,80.33 		"/>
		<polyline class="st0" points="204.682,86.525 210.545,87.772 207.094,98.624 206.803,102.033 210.711,97.543 211.626,90.766 		"/>
		<line class="st0" x1="178.173" y1="83.709" x2="198.997" y2="87.931"/>
		<line class="st0" x1="179.175" y1="76.338" x2="199.419" y2="80.424"/>
		<line class="st0" x1="180.033" y1="68.824" x2="200.142" y2="73.118"/>
		<line class="st0" x1="181.25" y1="60.523" x2="201.43" y2="64.817"/>
		<line class="st0" x1="182.323" y1="52.222" x2="202.503" y2="56.516"/>
		<line class="st0" x1="183.325" y1="43.563" x2="203.72" y2="48"/>
		<line class="st0" x1="184.542" y1="34.904" x2="203.047" y2="38.728"/>
		<polyline class="st0" points="165.793,15.251 163.969,17.683 162.348,31.126 178.29,34.571 179.506,33.828 180.182,28.694 
			182.952,19.777 183.019,18.831 		"/>
		<line class="st0" x1="186.39" y1="20.48" x2="182.952" y2="19.777"/>
		<polyline class="st0" points="164.78,16.197 156.066,14.373 153.228,23.898 152.241,31.796 149.108,56.864 		"/>
		<line class="st0" x1="181.938" y1="37.814" x2="152.241" y2="31.796"/>
		<line class="st0" x1="151.404" y1="38.489" x2="180.587" y2="44.502"/>
		<line class="st0" x1="179.439" y1="55.175" x2="149.986" y2="49.095"/>
		<line class="st0" x1="148.618" y1="62.641" x2="176.984" y2="68.715"/>
		<line class="st0" x1="131.902" y1="24.434" x2="152.339" y2="28.642"/>
		<line class="st0" x1="130.9" y1="32.95" x2="151.237" y2="37.258"/>
		<line class="st0" x1="129.698" y1="41.365" x2="150.335" y2="45.773"/>
		<line class="st0" x1="128.195" y1="49.78" x2="148.971" y2="53.993"/>
		<line class="st0" x1="127.587" y1="58.238" x2="147.557" y2="62.373"/>
		<line class="st0" x1="126.607" y1="65.312" x2="146.523" y2="69.61"/>
		<line class="st0" x1="144.556" y1="77.156" x2="146.305" y2="77.555"/>
		<line class="st0" x1="125.556" y1="72.821" x2="142.743" y2="76.742"/>
		<line class="st0" x1="147.938" y1="70.808" x2="156.698" y2="72.603"/>
		<line class="st0" x1="158.383" y1="76.969" x2="172.696" y2="79.895"/>
		<line class="st0" x1="150.604" y1="75.378" x2="156.156" y2="76.513"/>
		<polyline class="st0" points="174.627,79.636 173.968,76.176 174.407,71.232 173.638,72.056 172.21,84.36 173.474,83.152 		"/>
		<polyline class="st0" points="157.105,69.09 155.677,80.79 158.258,78.153 157.874,75.462 158.313,74.913 157.379,71.782 
			157.709,68.925 156.775,68.596 157.434,67.827 160.565,68.486 161.005,67.937 163.202,68.431 163.202,69.035 168.695,70.134 
			169.024,69.639 171.222,70.079 171.112,70.738 173.913,71.342 		"/>
		<line class="st0" x1="123.731" y1="62.222" x2="110.359" y2="59.343"/>
		<line class="st0" x1="126.053" y1="44.485" x2="102.837" y2="39.749"/>
		<line class="st0" x1="127.631" y1="33.806" x2="104.323" y2="29.07"/>
		<line class="st0" x1="127.26" y1="24.055" x2="105.251" y2="19.783"/>
		<polyline class="st0" points="106.644,13.19 105.808,16.069 101.165,53.493 		"/>
		<path class="st0" d="M110.132,62.022l0.942-5.654c0,0,1.068-0.942-1.194-1.382c-2.262-0.44-8.105-1.508-8.105-1.508
			s-1.445-0.126-1.571,1.257c-0.126,1.382-0.434,3.773-0.434,3.773l0.129,0.027l9.715,2.016l0.65,1.95l13.525,2.763"/>
		<polyline class="st0" points="99.901,58.534 101.651,65.541 100.709,71.258 99.389,74.211 98.698,78.86 97.944,78.797 		"/>
		<path class="st0" d="M82.755,133.047l13.2-36.122l1.061,0.088l3.803-10.436l-0.973-0.442l0.884-2.476l2.476,0.442
			c0,0,0.177-2.034,0.884-2.83l-1.519-0.344l-1.299,1.263l-3.141-0.565L97.63,80.87l0.377-3.016l-1.948-7.288l7.162-53.528
			l4.021-5.529l2.262,0.377l1.131-1.319l5.026,1.068"/>
		<path class="st0" d="M119.449,4.242l0.085,2.394l-2.735,9.061l-0.94,1.111c0,0-0.769-0.085-0.513-1.881
			c0.256-1.795,0.855-6.497,0.855-6.497L119.449,4.242z"/>
		<line class="st0" x1="224.958" y1="26.01" x2="226.365" y2="26.306"/>
		<line class="st0" x1="199.261" y1="20.712" x2="222.109" y2="25.427"/>
		<line class="st0" x1="188.242" y1="18.451" x2="194.923" y2="19.816"/>
		<line class="st0" x1="162.507" y1="13.126" x2="185.125" y2="17.794"/>
		<line class="st0" x1="119.458" y1="4.241" x2="158.112" y2="12.219"/>
		<polyline class="st0" points="107.242,11.51 107.468,9.315 108.241,8.954 108.602,6.583 109.22,6.274 110.509,6.48 110.818,8.8 
			110.635,10.568 		"/>
		<polygon class="st0" points="147.574,9.779 148.657,8.954 150.1,9.264 150.925,10.346 150.719,11.326 147.471,10.604 		"/>
		<polygon class="st0" points="159.07,11.119 162.112,11.79 162.473,12.975 162.009,13.645 158.245,12.872 158.245,12.305 		"/>
		<polygon class="st0" points="185.38,17.584 186.48,16.805 187.488,16.942 188.175,17.859 188.021,18.87 185.31,18.317 		"/>
		<polygon class="st0" points="195.063,19.829 195.964,18.711 198.812,19.324 199.209,20.369 198.884,21.306 195.171,20.549 		"/>
		<polygon class="st0" points="222.147,25.904 222.301,25.028 223.331,24.307 224.362,24.488 225.005,25.44 224.799,26.471 		"/>
		<line class="st0" x1="101.651" y1="65.541" x2="121.867" y2="69.557"/>
		<path class="st0" d="M101.185,69.659l2.129,0.406c0,0,0.912,0,0.71,1.115c-0.203,1.115-1.45,9.747-1.45,9.747"/>
		<polyline class="st0" points="91.474,118.215 89.947,117.954 84.261,133.36 		"/>
		<polyline class="st0" points="90.322,134.738 96.18,119.021 93.93,118.636 		"/>
		<path class="st0" d="M91.688,116.101"/>
		<polyline class="st0" points="105.219,82.213 104.199,85.118 104.213,88.344 113.279,90.121 114.651,85.925 114.899,83.945 		"/>
		<polyline class="st0" points="104.522,85.118 113.077,86.933 114.247,83.867 		"/>
		<line class="st0" x1="113.279" y1="90.121" x2="113.077" y2="86.933"/>
		<line class="st0" x1="194.559" y1="101.454" x2="213.961" y2="105.456"/>
		<line class="st0" x1="136.392" y1="89.615" x2="160.412" y2="94.49"/>
		<path class="st0" d="M114.812,86.207c0,0,0.847,0.565,1.009-0.767l10.876,2.207"/>
		<polyline class="st0" points="185.028,98.232 184.301,99.806 184.261,103.902 192.775,105.538 		"/>
		<polyline class="st0" points="193.268,99.972 192.614,101.582 192.775,105.427 194.893,100.259 		"/>
		<line class="st0" x1="184.301" y1="99.806" x2="192.614" y2="101.582"/>
		<polyline class="st0" points="160.926,93.317 159.786,96.518 162.619,97.07 163.834,93.942 		"/>
		<polyline class="st0" points="159.809,96.564 159.786,99.603 162.619,100.155 164.746,94.179 		"/>
		<line class="st0" x1="164.592" y1="95.338" x2="184.422" y2="99.362"/>
		<path class="st0" d="M164.974,94.2"/>
		<polyline class="st0" points="127.132,86.416 126.599,87.883 126.459,88.267 126.392,91.934 134.771,93.617 136.857,88.368 		"/>
		<polyline class="st0" points="135.477,88.098 134.804,89.714 126.728,88.031 		"/>
		<line class="st0" x1="134.905" y1="93.146" x2="134.804" y2="89.714"/>
		<polyline class="st0" points="189.504,148.913 188.801,150.37 188.75,151.224 188.248,152.832 189.152,153.033 189.019,153.657 		
			"/>
		<polyline class="st0" points="191.826,154.27 191.668,153.535 190.933,153.325 191.458,151.802 191.406,150.857 192.141,149.754 
			191.988,146.323 202.185,119.756 202.569,119.618 202.983,119.258 205.062,119.686 205.119,120.818 		"/>
		<polyline class="st0" points="208.398,120.371 206.132,119.906 205.426,120.558 204.481,121.293 204.376,122.291 204.481,125.337 
			195.502,150.227 194.714,149.964 193.979,151.382 194.031,152.222 193.454,153.85 194.346,154.06 194.504,154.848 		"/>
		<polyline class="st0" points="189.019,153.657 191.024,154.09 191.251,153.539 		"/>
		<polyline class="st0" points="191.93,154.301 193.76,154.684 193.933,154.041 		"/>
		<line class="st0" x1="195.239" y1="155.005" x2="194.582" y2="154.862"/>
		<polyline class="st0" points="197.867,118.272 197.618,118.581 196.862,118.989 186.92,146.149 186.911,148.708 186.216,149.89 
			186.262,150.77 185.706,152.346 186.541,152.578 186.539,153.184 188.337,153.545 188.58,152.923 		"/>
		<polyline class="st0" points="196.945,118.017 195.54,117.729 194.881,118.361 194.228,120.823 194.479,123.487 185.183,148.209 
			184.329,147.958 183.625,149.365 183.675,150.119 183.123,151.827 184.027,152.028 184.027,152.581 185.729,152.995 
			186.014,152.437 		"/>
		<polyline class="st0" points="200.007,120.089 199.855,118.615 197.738,118.18 		"/>
		<polyline class="st0" points="105.991,99.323 170.925,112.669 170.859,113.956 170.095,114.164 170.026,115.136 170.234,117.427 
					"/>
		<polyline class="st0" points="202.536,119.113 200.859,118.788 200.561,119.329 200.182,119.708 199.533,121.629 199.344,124.009 
			189.821,148.709 		"/>
		<path class="st0" d="M199.037,147.287l0.91-2.329c0,0,0.645-1.176,0.835,0.228s0.228,2.58,0.228,2.58"/>
		<line class="st0" x1="200.809" y1="145.71" x2="202.917" y2="140.373"/>
		<polygon class="st0" points="167.681,116.956 171.586,117.784 172.769,114.648 186.198,117.429 185.133,120.505 188.978,121.333 
			186.553,128.136 182.648,127.19 181.524,130.266 185.488,131.094 183.003,137.838 178.921,136.951 177.738,140.204 
			164.369,137.424 165.552,134.289 161.47,133.52 164.191,126.716 167.977,127.486 169.101,124.469 165.079,123.64 		"/>
		<line class="st0" x1="186.198" y1="117.429" x2="186.341" y2="120.69"/>
		<line class="st0" x1="188.978" y1="121.333" x2="189.257" y2="131.243"/>
		<polyline class="st0" points="186.553,128.136 186.827,137.352 185.716,137.144 		"/>
		<line class="st0" x1="185.488" y1="131.094" x2="185.716" y2="140.546"/>
		<polyline class="st0" points="178.921,136.951 179.329,146.517 183.217,147.28 183.003,137.838 		"/>
		<polyline class="st0" points="177.738,140.204 178.079,149.641 179.329,146.517 		"/>
		<polyline class="st0" points="164.369,137.424 164.61,146.933 160.584,146.031 161.764,142.837 161.47,133.52 		"/>
		<line class="st0" x1="164.495" y1="143.397" x2="161.764" y2="142.837"/>
		<polyline class="st0" points="178.079,149.641 182.032,150.386 183.217,147.28 		"/>
		<polyline class="st0" points="189.262,127.874 190.038,128.029 190.297,128.909 182.123,151.412 160.623,146.937 160.584,146.031 
					"/>
		<line class="st0" x1="204.481" y1="125.337" x2="206.512" y2="125.706"/>
		<polyline class="st0" points="133.102,142.335 131.408,141.967 131.26,141.231 130.413,141.046 131.076,139.389 131.002,138.505 
			131.702,137.142 132.586,137.326 141.904,112.171 141.831,109.777 142.494,107.751 143.157,107.051 		"/>
		<polyline class="st0" points="138.179,143.351 136.485,142.983 136.338,142.246 135.491,142.062 136.153,140.404 136.08,139.52 
			136.78,138.158 137.664,138.342 146.982,113.186 146.908,110.792 147.571,108.766 148.234,108.067 		"/>
		<polyline class="st0" points="143.565,144.375 141.871,144.006 141.724,143.27 140.877,143.086 141.54,141.428 141.466,140.544 
			142.166,139.182 143.05,139.366 151.971,114.21 151.898,111.816 152.561,109.79 153.224,109.09 		"/>
		<polyline class="st0" points="140.91,143.956 139.216,143.588 139.068,142.851 138.221,142.667 138.78,141.218 138.695,140.2 
			139.417,139.182 139.585,135.883 149.682,108.35 		"/>
		<polyline class="st0" points="146.127,144.934 144.432,144.566 144.285,143.829 143.438,143.645 143.997,142.196 143.912,141.178 
			144.633,140.16 144.802,136.861 154.822,109.462 		"/>
		<polyline class="st0" points="148.782,145.483 147.088,145.115 146.94,144.378 146.093,144.194 146.756,142.537 146.683,141.653 
			147.382,140.29 148.266,140.474 157.188,115.319 157.114,112.925 157.777,110.899 158.44,110.199 		"/>
		<polyline class="st0" points="151.343,146.043 149.649,145.674 149.502,144.938 148.655,144.754 149.214,143.305 149.129,142.287 
			149.85,141.268 150.019,137.97 160.116,110.437 		"/>
		<polyline class="st0" points="153.803,146.657 152.109,146.289 151.961,145.552 151.114,145.368 151.777,143.711 151.704,142.827 
			152.403,141.464 153.287,141.648 162.209,116.492 162.135,114.098 162.798,112.073 163.461,111.373 		"/>
		<polyline class="st0" points="161.322,134.81 158.504,142.757 157.62,142.572 156.92,143.935 156.994,144.819 156.331,146.477 
			157.178,146.661 157.325,147.397 159.02,147.766 161.701,140.827 		"/>
		<line class="st0" x1="165.307" y1="123.573" x2="164.004" y2="127.248"/>
		<polyline class="st0" points="168.678,112.481 168.015,113.181 167.352,115.207 167.426,117.601 		"/>
		<polyline class="st0" points="156.364,147.216 154.67,146.848 154.523,146.112 153.676,145.927 154.235,144.479 154.15,143.46 
			154.871,142.442 155.04,139.144 165.137,111.61 		"/>
		<polyline class="st0" points="144.615,107.536 134.413,135.491 134.244,138.026 133.617,139.278 133.654,140.089 133.028,141.562 
			133.875,141.746 134.023,142.483 135.717,142.851 		"/>
		<polyline class="st0" points="96.127,134.812 94.433,134.444 94.286,133.707 93.439,133.523 94.102,131.866 94.028,130.982 
			94.728,129.619 95.612,129.803 104.93,104.647 104.856,102.253 105.519,100.228 106.182,99.528 		"/>
		<polyline class="st0" points="107.641,100.013 97.439,127.968 97.269,130.503 96.643,131.755 96.68,132.565 96.054,134.039 
			96.901,134.223 97.048,134.959 98.742,135.328 		"/>
		<polyline class="st0" points="101.276,136.013 99.581,135.645 99.434,134.908 98.587,134.724 99.25,133.067 99.176,132.183 
			99.876,130.82 100.76,131.004 110.078,105.849 110.005,103.455 110.668,101.429 111.331,100.729 		"/>
		<polyline class="st0" points="115.974,101.6 115.311,102.3 114.648,104.326 114.833,106.287 105.816,131.935 105.051,131.692 
			104.352,133.054 104.425,133.938 103.762,135.596 104.609,135.78 104.757,136.516 106.451,136.885 109.11,129.816 		"/>
		<polyline class="st0" points="118.596,101.898 117.933,102.598 117.27,104.624 117.395,106.704 		"/>
		<polyline class="st0" points="112.789,101.214 102.587,129.169 102.417,131.704 101.791,132.956 101.828,133.767 101.202,135.24 
			102.049,135.424 102.196,136.161 103.891,136.529 		"/>
		<polyline class="st0" points="114.833,106.287 118.766,107.061 120.077,103.843 133.486,106.704 132.473,109.803 136.347,110.637 
			134.022,117.371 129.91,116.477 128.897,119.398 132.711,120.292 130.387,127.145 126.275,126.251 125.143,129.291 
			111.674,126.549 112.866,123.569 109.171,122.795 109.231,132.032 107.919,135.31 107.919,136.204 129.374,140.554 
			137.658,117.908 137.121,117.133 		"/>
		<polyline class="st0" points="111.555,116.06 115.19,116.775 116.382,113.676 112.687,112.902 112.925,116.001 		"/>
		<line class="st0" x1="133.486" y1="106.704" x2="133.784" y2="110.101"/>
		<line class="st0" x1="136.347" y1="110.637" x2="136.704" y2="120.292"/>
		<polyline class="st0" points="134.022,117.371 134.261,126.847 133.211,126.637 		"/>
		<line class="st0" x1="132.711" y1="120.292" x2="133.069" y2="130.244"/>
		<line class="st0" x1="130.387" y1="127.145" x2="130.625" y2="136.919"/>
		<polyline class="st0" points="126.394,126.311 126.752,135.667 125.5,138.886 125.143,129.291 		"/>
		<line class="st0" x1="126.752" y1="135.667" x2="130.625" y2="136.502"/>
		<line class="st0" x1="125.5" y1="138.886" x2="129.662" y2="139.782"/>
		<polyline class="st0" points="107.919,135.31 111.949,136.06 111.674,126.549 		"/>
		<line class="st0" x1="109.192" y1="132.097" x2="111.845" y2="132.648"/>
		<path class="st0" d="M92.019,116.142c0,0,0.358-1.134,1.617-0.995c0,0,1.202,0.166,0.947,1.507l-0.42,1.259
			c0,0-0.343,1.394-1.637,1.042c0,0-1.067-0.017-0.974-1.182L92.019,116.142z"/>
		<path class="st0" d="M89.192,119.904l0.059-2.274c0,0-0.095-0.634,0.761-0.507c0.856,0.127,1.574,0.27,1.574,0.27"/>
		<path class="st0" d="M94.437,117.934l1.845,0.293c0,0,0.539-0.015,0.539,0.568s-0.045,2.679-0.045,2.679l-1.28-0.256"/>
		<polyline class="st0" points="94.675,116.654 95.145,116.717 95.11,117.934 		"/>
		<line class="st0" x1="92.473" y1="117" x2="93.709" y2="117.238"/>
		<line class="st0" x1="92.647" y1="116.349" x2="93.883" y2="116.588"/>
		
			<ellipse transform="matrix(0.1987 -0.9801 0.9801 0.1987 -61.7655 183.1561)" class="st0" cx="81.121" cy="129.349" rx="1.756" ry="0.597"/>
		<circle class="st0" cx="202.561" cy="96.596" r="0.889"/>
		<circle class="st0" cx="171.05" cy="90.306" r="0.889"/>
		<path class="st0" d="M139.983,84.843c-0.491,0-0.889-0.398-0.889-0.889s0.398-0.889,0.889-0.889c0.123,0,0.24,0.025,0.346,0.07"/>
		<line class="st0" x1="72.727" y1="144.942" x2="75.186" y2="137.886"/>
	</g>
	<line class="st0" x1="162.619" y1="97.07" x2="162.619" y2="100.155"/>
	<g>
		<g>
			<path class="st0" d="M17.425,117.133L7.036,145.669L5.628,145.2c-1.408-0.352-2.229,0.704-2.229,0.704l-0.939,1.995
				c-0.587,2.816,1.76,3.403,1.76,3.403s24.874,5.045,29.45,5.867s5.28-1.525,5.28-1.525l5.867-15.37l-3.403-2.933l2.581-6.101
				c0,0,0,0,2.581-0.469c2.581-0.469,2.699-2.229,2.699-2.229l10.09-28.277l-33.322-6.805l-4.233,11.627l-1.048-0.255l-0.707,2.345"
				/>
			<path class="st0" d="M23.123,117.402l-0.1-0.707l2.631-8.013l-6.071-1.295l-2.833,7.649l0.052,1.507l4.999,1.123
				C21.801,117.667,22.66,118.063,23.123,117.402z"/>
			<path class="st0" d="M22.286,107.646c0.374-0.44,0.154-1.211,0.154-1.211l3.656,0.771c0,0,0.947,0.198,0.573,1.189
				s-3.194,9.074-3.194,9.074"/>
			<ellipse class="st0" cx="21.642" cy="111.008" rx="1.998" ry="1.438"/>
			<path class="st0" d="M17.114,114.817c0,0,0.586-1.305,3.489-0.879c0,0,2.53,0.506,2.797,2.637"/>
			<line class="st0" x1="17.94" y1="116.601" x2="17.913" y2="114.524"/>
			<line class="st0" x1="21.468" y1="107.732" x2="21.468" y2="105.057"/>
			<polyline class="st0" points="5.839,151.623 5.912,154.123 6.519,154.293 7.244,152.424 7.441,151.914 			"/>
			<path class="st0" d="M7.32,152.57l1.141,0.218c0,0-0.728,1.286-0.316,2.233l25.656,5.364c0,0,0.534-0.243,0.461-0.777
				c-0.073-0.534,0.097-2.185,2.063-2.257"/>
			<polygon class="st0" points="35.109,97.016 46.67,99.503 42.426,111.503 30.475,109.064 			"/>
			<path class="st0" d="M24.182,119.844c0,0,0.468-1.978,2.78-1.463c2.598,0.578,14.737,3.107,14.737,3.107s1.562,0.493,1.014,1.863
				c-0.505,1.262-9.214,24.931-9.214,24.931s-0.443,1.877-2.829,1.317c-2.571-0.603-14.731-3.073-14.731-3.073
				s-1.561-0.537-0.927-2.049C15.646,142.966,24.182,119.844,24.182,119.844z"/>
			<path class="st0" d="M51.957,121.157l0.069,2.45c0,0,0.414,0.276,0.725-0.552c0.311-0.828,0.759-2.036,0.759-2.036l0.138,3.692
				h0.449l1.104-2.899l0.345-0.311l1.07-3.037l0.587-0.345l1.035-2.83v-0.725l0.552-1.277l-0.138-3.899"/>
			<path class="st0" d="M54.614,113.979l0.138,2.208c0,0-0.035,1.553,0.656,0.069l1.587-4.451c0,0,0.345-1.277,0.38-1.863
				c0.035-0.587,0.035-1.07,0.345-1.76c0.179-0.399,0.474-1.131,0.691-1.679c0.159-0.4,0.275-0.702,0.275-0.702l-1.035-0.173"/>
			<polyline class="st0" points="58.613,106.257 58.635,108.069 58.277,108.986 59.217,109.076 59.619,108.159 59.366,100.262 			
				"/>
		</g>
	</g>
	<g>
		<g>
			<g>
				<path class="st0" d="M243.847,119.586l-10.389,28.537l-1.408-0.469c-1.408-0.352-2.229,0.704-2.229,0.704l-0.939,1.995
					c-0.587,2.816,1.76,3.403,1.76,3.403s24.874,5.045,29.45,5.867c4.576,0.821,5.28-1.525,5.28-1.525l5.867-15.37l-3.403-2.933
					l2.581-6.101c0,0,0,0,2.581-0.469c2.581-0.469,2.699-2.229,2.699-2.229l10.09-28.277l-33.322-6.805l-4.233,11.627l-1.048-0.255
					l-0.707,2.345"/>
				<path class="st0" d="M249.546,119.856l-0.1-0.707l2.631-8.013l-6.071-1.295l-2.833,7.649l0.052,1.507l4.999,1.123
					C248.224,120.12,249.083,120.516,249.546,119.856z"/>
				<path class="st0" d="M248.709,110.099c0.374-0.44,0.154-1.211,0.154-1.211l3.656,0.771c0,0,0.947,0.198,0.573,1.189
					s-3.194,9.074-3.194,9.074"/>
				<ellipse class="st0" cx="248.065" cy="113.462" rx="1.998" ry="1.438"/>
				<path class="st0" d="M243.537,117.27c0,0,0.586-1.305,3.489-0.879c0,0,2.53,0.506,2.797,2.637"/>
				<line class="st0" x1="244.363" y1="119.055" x2="244.336" y2="116.977"/>
				<line class="st0" x1="247.891" y1="110.186" x2="247.891" y2="107.51"/>
				<polyline class="st0" points="232.262,154.076 232.335,159.125 232.942,159.295 233.864,156.917 233.864,154.472 				"/>
				<polygon class="st0" points="261.532,99.469 273.092,101.957 268.849,113.956 256.898,111.517 				"/>
				<path class="st0" d="M250.605,122.298c0,0,0.468-1.978,2.78-1.463c2.598,0.578,14.737,3.107,14.737,3.107
					s1.562,0.493,1.014,1.863c-0.505,1.262-9.214,24.931-9.214,24.931s-0.443,1.877-2.829,1.317
					c-2.571-0.603-14.731-3.073-14.731-3.073s-1.561-0.537-0.927-2.049C242.069,145.419,250.605,122.298,250.605,122.298z"/>
			</g>
			<line class="st0" x1="233.864" y1="156.917" x2="262.372" y2="162.774"/>
			<polyline class="st0" points="233.364,158.7 235.115,159.026 234.749,159.922 234.749,161.348 260.498,166.685 260.864,166.237 
				260.946,165.3 261.353,164.281 262.372,164.404 			"/>
			<path class="st0" d="M262.412,159.678l0.081,5.296c0,0,0.285,0.652,1.589,0.448"/>
			<polyline class="st0" points="264.969,158.702 264.969,160.38 264.159,162.642 			"/>
			<path class="st0" d="M264.454,162.026c0,0,0.61,0.063,0.595,0.532l-0.966,2.865l-0.204-5.908"/>
			<line class="st0" x1="237.291" y1="155.154" x2="237.291" y2="157.464"/>
			<path class="st0" d="M285.563,103.408l-2.587-0.572c0,0-0.995-0.323-1.368,0.721c-0.373,1.045-1.293,3.557-1.293,3.557
				s-0.199,0.895,0.572,1.99c0.771,1.094,0.647,1.517,0.348,2.288c-0.298,0.771-1.219,1.716,0.622,2.313"/>
			<path class="st0" d="M285.788,102.715l0.342,8.441l-19.008,53.014l-0.484-3.187l1.296-3.631l-0.233-5.526
				c-1.245,0-1.044-0.924-1.044-0.924s0.281-1.205,0.683-1.847s1.245-0.161,1.245-0.161"/>
			<ellipse class="st0" cx="283.275" cy="104.479" rx="0.436" ry="0.311"/>
		</g>
	</g>
	<g>
		<g>
			<defs>
				<circle id="SVGID_1_" cx="277.196" cy="54.625" r="31.435"/>
			</defs>
			<clipPath id="SVGID_00000180327479812581867320000004671793798956659354_">
				<use xlink:href="#SVGID_1_"  style="overflow:visible;"/>
			</clipPath>
			<g style="clip-path:url(#SVGID_00000180327479812581867320000004671793798956659354_);">
				<path class="st0" d="M269.792,39.248l1.887-6.967l20.684,3.919c0,0,4.427,0.943,3.411,4.427L288.4,60.215l-4.456,11.837
					c0,0-1.089,3.411-5.806,3.266l-19.813-3.556l-0.363-5.008c0,0,1.234-5.225,1.814-6.604s8.201-21.482,8.201-21.482l21.41,4.137
					c0,0,1.814,0.29,1.814,2.177c0,0,0.077,1.319-0.249,2.711s-2.695,12.921-2.695,12.921"/>
				<path class="st0" d="M291.108,44.337l-8.118,21.096c0,0-0.801,2.831-0.641,5.287l-0.427,0.855l-2.136-0.481
					c0,0,0.374-2.297,0.801-3.685c0,0,0.16-4.7-9.026-6.356c0,0-7.637-1.015-10.788,2.083l-0.641,4.219v4.54l2.777-6.142v-2.457"/>
				<line class="st0" x1="263.228" y1="72.59" x2="267.127" y2="62.336"/>
				<path class="st0" d="M260.665,64.258c0,0,3.899-2.51,10.201-1.816c6.302,0.694,9.72,4.967,9.72,4.967"/>
				<line class="st0" x1="279.963" y1="75.148" x2="279.785" y2="71.095"/>
				<line class="st0" x1="282.004" y1="74.406" x2="281.921" y2="71.575"/>
				<line class="st0" x1="258.003" y1="66.98" x2="260.131" y2="67.356"/>
				<line class="st0" x1="274.74" y1="32.975" x2="274.795" y2="39.886"/>
				<path class="st0" d="M275.127,34.357c0,0,0.719,0.332,1.437,0.332s1.161,0.442,1.161,1.88s-0.055,4.036-0.055,4.036l1.493-3.483
					c0,0-0.774-1.99,0.166-3.372"/>
				<ellipse class="st0" cx="275.634" cy="51.565" rx="9.143" ry="6.422"/>
			</g>
			
				<line style="clip-path:url(#SVGID_00000180327479812581867320000004671793798956659354_);fill:none;stroke:#221F1F;stroke-width:0.5;stroke-miterlimit:10;" x1="271.907" y1="32.14" x2="276.469" y2="18.889"/>
			
				<line style="clip-path:url(#SVGID_00000180327479812581867320000004671793798956659354_);fill:none;stroke:#221F1F;stroke-width:0.5;stroke-miterlimit:10;" x1="253.544" y1="85.468" x2="258.196" y2="71.956"/>
		</g>
		<circle class="st4" cx="277.196" cy="54.625" r="31.435"/>
	</g>
	<g>
		<g>
			<defs>
				<circle id="SVGID_00000089574678844696401400000009658350576422410893_" cx="50.487" cy="52.197" r="31.435"/>
			</defs>
			<clipPath id="SVGID_00000142163573508693822530000008397502972359867042_">
				<use xlink:href="#SVGID_00000089574678844696401400000009658350576422410893_"  style="overflow:visible;"/>
			</clipPath>
			<g style="clip-path:url(#SVGID_00000142163573508693822530000008397502972359867042_);">
				<path class="st0" d="M43.084,36.82l1.887-6.967l20.684,3.919c0,0,4.427,0.943,3.411,4.427l-7.374,19.588l-4.456,11.837
					c0,0-1.089,3.411-5.806,3.266l-19.813-3.556l-0.363-5.008c0,0,1.234-5.225,1.814-6.604C33.65,56.343,41.27,36.24,41.27,36.24
					l21.41,4.137c0,0,1.814,0.29,1.814,2.177c0,0,0.077,1.319-0.249,2.711c-0.326,1.391-2.695,12.921-2.695,12.921"/>
				<path class="st0" d="M64.399,41.91l-8.118,21.096c0,0-0.801,2.831-0.641,5.287l-0.427,0.855l-2.136-0.481
					c0,0,0.374-2.297,0.801-3.685c0,0,0.16-4.7-9.026-6.356c0,0-7.637-1.015-10.788,2.083l-0.641,4.219v4.54l2.777-6.142V60.87"/>
				<line class="st0" x1="36.52" y1="70.163" x2="40.419" y2="59.908"/>
				<path class="st0" d="M33.957,61.831c0,0,3.899-2.51,10.201-1.816c6.302,0.694,9.72,4.967,9.72,4.967"/>
				<line class="st0" x1="53.254" y1="72.721" x2="53.077" y2="68.667"/>
				<line class="st0" x1="55.296" y1="71.979" x2="55.213" y2="69.148"/>
				<line class="st0" x1="31.295" y1="64.552" x2="33.423" y2="64.929"/>
				<line class="st0" x1="48.032" y1="30.548" x2="48.087" y2="37.458"/>
				<path class="st0" d="M48.419,31.93c0,0,0.719,0.332,1.437,0.332s1.161,0.442,1.161,1.88s-0.055,4.036-0.055,4.036l1.493-3.483
					c0,0-0.774-1.99,0.166-3.372"/>
				<ellipse class="st0" cx="48.926" cy="49.138" rx="9.143" ry="6.422"/>
			</g>
			
				<line style="clip-path:url(#SVGID_00000142163573508693822530000008397502972359867042_);fill:none;stroke:#221F1F;stroke-width:0.5;stroke-miterlimit:10;" x1="45.198" y1="29.713" x2="49.761" y2="16.462"/>
			
				<line style="clip-path:url(#SVGID_00000142163573508693822530000008397502972359867042_);fill:none;stroke:#221F1F;stroke-width:0.5;stroke-miterlimit:10;" x1="26.835" y1="83.041" x2="31.488" y2="69.529"/>
		</g>
		<circle class="st4" cx="50.487" cy="52.197" r="31.435"/>
	</g>
	<g>
		<g>
			<path class="st7" d="M322.427,29.856c0,7.593-6.246,13.745-13.95,13.745c-7.707,0-13.953-6.152-13.953-13.745
				c0-7.596,6.246-13.755,13.953-13.755C316.181,16.101,322.427,22.26,322.427,29.856"/>
		</g>
		<g>
			<path class="st8" d="M310.074,36.897h-1.846V25.136c-0.444,0.424-1.027,0.848-1.749,1.271c-0.721,0.424-1.368,0.742-1.942,0.954
				v-1.784c1.032-0.485,1.935-1.073,2.707-1.764s1.319-1.36,1.641-2.01h1.189V36.897z"/>
		</g>
	</g>
	<polygon class="st8" points="4.556,137.239 5.584,135.499 8.744,145.409 	"/>
	<g>
		<path class="st9" d="M272.023,23.934c0,0-3.335,5.529-4.004,12.761c-0.61,6.584,2.413,12.751,2.413,12.751l13.021,2.797
			c0,0-3.295-6.789-2.685-13.368c0.669-7.233,4.405-12.356,4.405-12.356l5.992,1.299L284.95,15.45l-19.397,7.051L272.023,23.934z"/>
	</g>
	<g>
		<g>
			<path class="st8" d="M57.523,37.565h-1.846V25.803c-0.444,0.424-1.027,0.848-1.749,1.271s-1.369,0.742-1.943,0.954v-1.784
				c1.032-0.485,1.935-1.073,2.707-1.764s1.319-1.36,1.641-2.01h1.189V37.565z"/>
		</g>
	</g>
	<g id="LINE_00000092456494756321959540000010810039973132872878_">
		<g id="XMLID_00000173850219856359291190000015556114761417589929_">
			<g>
			</g>
			<g>
				<line class="st10" x1="48.326" y1="131.603" x2="45.621" y2="138.747"/>
			</g>
		</g>
	</g>
	<line class="st11" x1="271.09" y1="71.384" x2="251.569" y2="107.545"/>
	<line class="st12" x1="271.09" y1="71.384" x2="251.569" y2="107.545"/>
	<g>
		<g>
			<path class="st7" d="M37.429,30.523c0,7.593-6.246,13.745-13.95,13.745c-7.707,0-13.953-6.152-13.953-13.745
				c0-7.596,6.246-13.755,13.953-13.755C31.184,16.769,37.429,22.928,37.429,30.523"/>
		</g>
		<g>
			<path class="st8" d="M25.076,37.565h-1.846V25.803c-0.444,0.424-1.027,0.848-1.749,1.271s-1.369,0.742-1.943,0.954v-1.784
				c1.032-0.485,1.935-1.073,2.707-1.764s1.319-1.36,1.641-2.01h1.189V37.565z"/>
		</g>
	</g>
	<g>
		<path class="st9" d="M45.315,21.506c0,0-3.335,5.529-4.004,12.761c-0.61,6.584,2.413,12.751,2.413,12.751l13.021,2.797
			c0,0-3.295-6.789-2.685-13.368c0.669-7.233,4.405-12.356,4.405-12.356l5.992,1.299l-6.215-12.367l-19.397,7.051L45.315,21.506z"/>
	</g>
	<line class="st11" x1="44.382" y1="68.956" x2="24.861" y2="105.118"/>
	<line class="st12" x1="44.382" y1="68.956" x2="24.861" y2="105.118"/>
	<g>
		<polyline class="st13" points="242.14,105.652 139.514,105.652 139.514,159.386 		"/>
		<line class="st13" x1="177.272" y1="159.953" x2="177.272" y2="106.219"/>
	</g>
	<g>
		<polyline class="st14" points="242.14,105.652 139.514,105.652 139.514,159.386 		"/>
		<line class="st14" x1="177.272" y1="159.953" x2="177.272" y2="106.219"/>
	</g>
	<g>
		<polyline class="st13" points="63.025,105.703 101.157,105.703 101.157,147.901 		"/>
	</g>
	<g>
		<polyline class="st14" points="63.025,105.703 101.157,105.703 101.157,147.901 		"/>
	</g>
</g>
</svg>
