<?xml version="1.0" encoding="iso-8859-1"?>
<!-- Generator: Adobe Illustrator 26.0.3, SVG Export Plug-In . SVG Version: 6.00 Build 0)  -->
<svg version="1.1" id="Layer_1" xmlns="http://www.w3.org/2000/svg" xmlns:xlink="http://www.w3.org/1999/xlink" x="0px" y="0px"
	 viewBox="0 0 432 136.581" style="enable-background:new 0 0 432 136.581;" xml:space="preserve">
<g id="Layer_1_00000078018870982862210450000012295149376517253768_">
	<g>
		<g>
			<g>
				<g>
					<path style="fill-rule:evenodd;clip-rule:evenodd;fill:#1A1A1A;" d="M424.463,39.586v-0.167c0-0.033,0-0.033,0-0.067
						c-0.05-0.033-0.05-0.033-0.101-0.067c0,0-0.05-0.033-0.101-0.033c0,0-0.05-0.033-0.101-0.033H10.766
						c-0.05,0-0.05,0.033-0.101,0.033s-0.101,0.033-0.101,0.033c-0.05,0.033-0.05,0.033-0.05,0.067
						c-0.05,0.033-0.05,0.067-0.05,0.067V91.2c0,0.1,0.05,0.167,0.05,0.234c0.05,0.067,0.101,0.134,0.151,0.2
						c0.05,0.033,0.151,0.1,0.202,0.134c0.101,0.067,0.202,0.1,0.303,0.134c0.05,0,0.101,0.033,0.202,0.033
						c0.05,0.033,0.151,0.033,0.202,0.033h411.78c0.101,0,0.202-0.033,0.303-0.033c0.101-0.033,0.202-0.067,0.303-0.1
						c0.101-0.033,0.151-0.1,0.252-0.134c0.05-0.067,0.101-0.134,0.151-0.2c0.05-0.033,0.05-0.067,0.101-0.134
						c0-0.033,0-0.1,0-0.167V39.586"/>
					<g>
						<g>
							<defs>
								<rect id="SVGID_1_" x="11.688" y="40.739" width="411.62" height="49.791"/>
							</defs>
							<clipPath id="SVGID_00000011749211844521165370000004958471020652842384_">
								<use xlink:href="#SVGID_1_"  style="overflow:visible;"/>
							</clipPath>
							<g style="clip-path:url(#SVGID_00000011749211844521165370000004958471020652842384_);">
								<g>
									<defs>
										
											<rect id="SVGID_00000000214212829822128810000009844652835521742504_" x="-167.731" y="-369.584" width="678.056" height="877.484"/>
									</defs>
									<clipPath id="SVGID_00000115516651126137987820000012128091650440514719_">
										<use xlink:href="#SVGID_00000000214212829822128810000009844652835521742504_"  style="overflow:visible;"/>
									</clipPath>
									
										<polyline style="clip-path:url(#SVGID_00000115516651126137987820000012128091650440514719_);fill-rule:evenodd;clip-rule:evenodd;fill:#E5E5E4;" points="
										12.951,42.002 11.688,42.002 11.688,89.2 12.951,89.2 12.951,90.397 421.978,90.397 421.978,87.937 423.241,87.937 
										423.241,42.002 421.978,42.002 421.978,40.739 12.951,40.739 12.951,42.002 									"/>
								</g>
								<g>
									<defs>
										
											<rect id="SVGID_00000063621560884500028910000013303320919089886592_" x="-167.731" y="-369.584" width="678.056" height="877.484"/>
									</defs>
									<clipPath id="SVGID_00000021111335917292192710000002948086195322263729_">
										<use xlink:href="#SVGID_00000063621560884500028910000013303320919089886592_"  style="overflow:visible;"/>
									</clipPath>
									<polygon style="clip-path:url(#SVGID_00000021111335917292192710000002948086195322263729_);fill:none;" points="
										12.951,42.002 11.688,42.002 11.688,89.2 12.951,89.2 12.951,90.397 421.978,90.397 421.978,87.937 423.241,87.937 
										423.241,42.002 421.978,42.002 421.978,40.739 12.951,40.739 									"/>
								</g>
							</g>
						</g>
					</g>
					<path style="fill-rule:evenodd;clip-rule:evenodd;fill:#1A1A1A;" d="M210.119,70.986h3.723v-3.723h-3.723V70.986z
						 M210.119,76.504h3.723v-3.723h-3.723V76.504z M210.119,82.021h3.723v-3.723h-3.723V82.021z M210.119,87.472h3.723v-3.723
						h-3.723V87.472z M204.601,65.469h3.723v-3.723h-3.723V65.469z M199.084,65.469h3.723v-3.723h-3.723V65.469z M193.566,65.469
						h3.723v-3.723h-3.723V65.469z M188.049,54.5h3.723v-3.723h-3.723V54.5z M188.049,60.018h3.723v-3.723h-3.723V60.018z
						 M188.049,65.469h3.723v-3.723h-3.723V65.469z M204.601,60.018h3.723v-3.723h-3.723V60.018z M199.084,54.5h3.723v-3.723h-3.723
						V54.5z M199.084,60.018h3.723v-3.723h-3.723V60.018z M193.566,54.5h3.723v-3.723h-3.723V54.5z M193.566,60.018h3.723v-3.723
						h-3.723V60.018z M204.601,82.021h3.723v-3.723h-3.723V82.021z M204.601,87.472h3.723v-3.723h-3.723V87.472z M199.084,82.021
						h3.723v-3.723h-3.723V82.021z M199.084,87.472h3.723v-3.723h-3.723V87.472z M193.566,82.021h3.723v-3.723h-3.723V82.021z
						 M193.566,87.472h3.723v-3.723h-3.723V87.472z M188.049,70.986h3.723v-3.723h-3.723V70.986z M188.049,76.504h3.723v-3.723
						h-3.723V76.504z M188.049,82.021h3.723v-3.723h-3.723V82.021z M188.049,87.472h3.723v-3.723h-3.723V87.472z M204.601,70.986
						h3.723v-3.723h-3.723V70.986z M204.601,76.504h3.723v-3.723h-3.723V76.504z M199.084,70.986h3.723v-3.723h-3.723V70.986z
						 M199.084,76.504h3.723v-3.723h-3.723V76.504z M193.566,70.986h3.723v-3.723h-3.723V70.986z M193.566,76.504h3.723v-3.723
						h-3.723V76.504z M210.119,65.469h3.723v-3.723h-3.723V65.469z M182.531,87.472h3.723v-3.723h-3.723V87.472z M177.014,87.472
						h3.723v-3.723h-3.723V87.472z M171.563,87.472h3.723v-3.723h-3.723V87.472z M166.045,87.472h3.723v-3.723h-3.723V87.472z
						 M160.528,87.472h3.723v-3.723h-3.723V87.472z M155.01,76.504h3.723v-3.723h-3.723V76.504z M155.01,82.021h3.723v-3.723h-3.723
						V82.021z M155.01,87.472h3.723v-3.723h-3.723V87.472z M182.531,82.021h3.723v-3.723h-3.723V82.021z M177.014,82.021h3.723
						v-3.723h-3.723V82.021z M171.563,82.021h3.723v-3.723h-3.723V82.021z M166.045,76.504h3.723v-3.723h-3.723V76.504z
						 M160.528,76.504h3.723v-3.723h-3.723V76.504z M166.045,82.021h3.723v-3.723h-3.723V82.021z M160.528,82.021h3.723v-3.723
						h-3.723V82.021z M182.531,76.504h3.723v-3.723h-3.723V76.504z M177.014,76.504h3.723v-3.723h-3.723V76.504z M171.563,76.504
						h3.723v-3.723h-3.723V76.504z M182.531,70.986h3.723v-3.723h-3.723V70.986z M177.014,70.986h3.723v-3.723h-3.723V70.986z
						 M171.563,70.986h3.723v-3.723h-3.723V70.986z M166.045,70.986h3.723v-3.723h-3.723V70.986z M160.528,65.469h3.723v-3.723
						h-3.723V65.469z M155.01,65.469h3.723v-3.723h-3.723V65.469z M160.528,70.986h3.723v-3.723h-3.723V70.986z M155.01,70.986
						h3.723v-3.723h-3.723V70.986z M182.531,65.469h3.723v-3.723h-3.723V65.469z M177.014,65.469h3.723v-3.723h-3.723V65.469z
						 M171.563,65.469h3.723v-3.723h-3.723V65.469z M166.045,65.469h3.723v-3.723h-3.723V65.469z M182.531,60.018h3.723v-3.723
						h-3.723V60.018z M177.014,60.018h3.723v-3.723h-3.723V60.018z M171.563,60.018h3.723v-3.723h-3.723V60.018z M166.045,60.018
						h3.723v-3.723h-3.723V60.018z M160.528,60.018h3.723v-3.723h-3.723V60.018z M155.01,60.018h3.723v-3.723h-3.723V60.018z
						 M182.531,54.5h3.723v-3.723h-3.723V54.5z M177.014,54.5h3.723v-3.723h-3.723V54.5z M171.563,54.5h3.723v-3.723h-3.723V54.5z
						 M166.045,54.5h3.723v-3.723h-3.723V54.5z M160.528,54.5h3.723v-3.723h-3.723V54.5z M155.01,54.5h3.723v-3.723h-3.723V54.5z
						 M149.493,65.469h3.723v-3.723h-3.723V65.469z M143.975,65.469h3.723v-3.723h-3.723V65.469z M138.458,60.018h3.789v-3.723
						h-3.789V60.018z M133.007,60.018h3.723v-3.723h-3.723V60.018z M138.458,65.469h3.789v-3.723h-3.789V65.469z M133.007,65.469
						h3.723v-3.723h-3.723V65.469z M149.493,60.018h3.723v-3.723h-3.723V60.018z M143.975,60.018h3.723v-3.723h-3.723V60.018z
						 M127.489,54.5h3.723v-3.723h-3.723C127.489,50.777,127.489,54.5,127.489,54.5z M127.489,60.018h3.723v-3.723h-3.723
						C127.489,56.295,127.489,60.018,127.489,60.018z M127.489,65.469h3.723v-3.723h-3.723
						C127.489,61.746,127.489,65.469,127.489,65.469z M149.493,54.5h3.723v-3.723h-3.723V54.5z M143.975,54.5h3.723v-3.723h-3.723
						V54.5z M138.458,54.5h3.789v-3.723h-3.789V54.5z M133.007,54.5h3.723v-3.723h-3.723V54.5z M121.972,65.469h3.723v-3.723h-3.723
						V65.469z M116.454,65.469h3.723v-3.723h-3.723V65.469z M110.937,65.469h3.723v-3.723h-3.723V65.469z M121.972,60.018h3.723
						v-3.723h-3.723V60.018z M116.454,60.018h3.723v-3.723h-3.723V60.018z M110.937,60.018h3.723v-3.723h-3.723V60.018z
						 M121.972,54.5h3.723v-3.723h-3.723V54.5z M116.454,54.5h3.723v-3.723h-3.723V54.5z M110.937,54.5h3.723v-3.723h-3.723V54.5z
						 M105.419,82.021h3.723v-3.723h-3.723V82.021z M105.419,87.472h3.723v-3.723h-3.723V87.472z M99.902,82.021h3.789v-3.723
						h-3.789V82.021z M99.902,87.472h3.789v-3.723h-3.789V87.472z M94.451,82.021h3.723v-3.723h-3.723V82.021z M94.451,87.472h3.723
						v-3.723h-3.723V87.472z M105.419,70.986h3.723v-3.723h-3.723V70.986z M105.419,76.504h3.723v-3.723h-3.723V76.504z
						 M99.902,70.986h3.789v-3.723h-3.789V70.986z M99.902,76.504h3.789v-3.723h-3.789V76.504z M94.451,70.986h3.723v-3.723h-3.723
						V70.986z M94.451,76.504h3.723v-3.723h-3.723V76.504z M105.419,65.469h3.723v-3.723h-3.723V65.469z M99.902,65.469h3.789
						v-3.723h-3.789V65.469z M94.451,65.469h3.723v-3.723h-3.723V65.469z M105.419,60.018h3.723v-3.723h-3.723V60.018z
						 M99.902,60.018h3.789v-3.723h-3.789V60.018z M94.451,60.018h3.723v-3.723h-3.723V60.018z M105.419,54.5h3.723v-3.723h-3.723
						V54.5z M99.902,54.5h3.789v-3.723h-3.789V54.5z M94.451,54.5h3.723v-3.723h-3.723V54.5z M88.933,87.472h3.723v-3.723h-3.723
						V87.472z M83.415,82.021h3.723v-3.723h-3.723V82.021z M77.898,82.021h3.723v-3.723h-3.723
						C77.898,78.298,77.898,82.021,77.898,82.021z M83.415,87.472h3.723v-3.723h-3.723V87.472z M77.898,87.472h3.723v-3.723h-3.723
						C77.898,83.749,77.898,87.472,77.898,87.472z M88.933,82.021h3.723v-3.723h-3.723V82.021z M72.38,70.986h3.723v-3.723H72.38
						C72.38,67.263,72.38,70.986,72.38,70.986z M72.38,76.504h3.723v-3.723H72.38C72.38,72.781,72.38,76.504,72.38,76.504z
						 M72.38,82.021h3.723v-3.723H72.38C72.38,78.298,72.38,82.021,72.38,82.021z M72.38,87.472h3.723v-3.723H72.38
						C72.38,83.749,72.38,87.472,72.38,87.472z M88.933,76.504h3.723v-3.723h-3.723V76.504z M83.415,70.986h3.723v-3.723h-3.723
						V70.986z M77.898,70.986h3.723v-3.723h-3.723C77.898,67.263,77.898,70.986,77.898,70.986z M83.415,76.504h3.723v-3.723h-3.723
						V76.504z M77.898,76.504h3.723v-3.723h-3.723C77.898,72.781,77.898,76.504,77.898,76.504z M88.933,70.986h3.723v-3.723h-3.723
						V70.986z M66.863,54.5h3.723v-3.723h-3.723C66.863,50.777,66.863,54.5,66.863,54.5z M66.863,60.018h3.723v-3.723h-3.723
						C66.863,56.295,66.863,60.018,66.863,60.018z M66.863,65.469h3.723v-3.723h-3.723C66.863,61.746,66.863,65.469,66.863,65.469z
						 M61.345,54.5h3.789v-3.723h-3.789V54.5z M61.345,60.018h3.789v-3.723h-3.789V60.018z M61.345,65.469h3.789v-3.723h-3.789
						V65.469z M66.863,70.986h3.723v-3.723h-3.723C66.863,67.263,66.863,70.986,66.863,70.986z M66.863,76.504h3.723v-3.723h-3.723
						C66.863,72.781,66.863,76.504,66.863,76.504z M66.863,82.021h3.723v-3.723h-3.723C66.863,78.298,66.863,82.021,66.863,82.021z
						 M66.863,87.472h3.723v-3.723h-3.723C66.863,83.749,66.863,87.472,66.863,87.472z M61.345,70.986h3.789v-3.723h-3.789V70.986z
						 M61.345,76.504h3.789v-3.723h-3.789V76.504z M61.345,82.021h3.789v-3.723h-3.789V82.021z M61.345,87.472h3.789v-3.723h-3.789
						V87.472z M88.933,60.018h3.723v-3.723h-3.723V60.018z M83.415,60.018h3.723v-3.723h-3.723V60.018z M88.933,65.469h3.723v-3.723
						h-3.723V65.469z M83.415,65.469h3.723v-3.723h-3.723V65.469z M77.898,54.5h3.723v-3.723h-3.723
						C77.898,50.777,77.898,54.5,77.898,54.5z M72.38,54.5h3.723v-3.723H72.38C72.38,50.777,72.38,54.5,72.38,54.5z M77.898,60.018
						h3.723v-3.723h-3.723C77.898,56.295,77.898,60.018,77.898,60.018z M77.898,65.469h3.723v-3.723h-3.723
						C77.898,61.746,77.898,65.469,77.898,65.469z M72.38,60.018h3.723v-3.723H72.38C72.38,56.295,72.38,60.018,72.38,60.018z
						 M72.38,65.469h3.723v-3.723H72.38C72.38,61.746,72.38,65.469,72.38,65.469z M88.933,54.5h3.723v-3.723h-3.723V54.5z
						 M83.415,54.5h3.723v-3.723h-3.723V54.5z M33.824,54.5h3.723v-3.723h-3.723V54.5z M33.824,60.018h3.723v-3.723h-3.723V60.018z
						 M33.824,65.469h3.723v-3.723h-3.723V65.469z M33.824,70.986h3.723v-3.723h-3.723V70.986z M33.824,76.504h3.723v-3.723h-3.723
						V76.504z M33.824,82.021h3.723v-3.723h-3.723V82.021z M33.824,87.472h3.723v-3.723h-3.723V87.472z M28.307,54.5h3.723v-3.723
						h-3.723V54.5z M28.307,60.018h3.723v-3.723h-3.723V60.018z M28.307,65.469h3.723v-3.723h-3.723V65.469z M28.307,70.986h3.723
						v-3.723h-3.723V70.986z M28.307,76.504h3.723v-3.723h-3.723V76.504z M28.307,82.021h3.723v-3.723h-3.723V82.021z
						 M28.307,87.472h3.723v-3.723h-3.723V87.472z M22.789,54.5h3.789v-3.723h-3.789V54.5z M22.789,60.018h3.789v-3.723h-3.789
						V60.018z M22.789,65.469h3.789v-3.723h-3.789V65.469z M22.789,70.986h3.789v-3.723h-3.789V70.986z M22.789,76.504h3.789v-3.723
						h-3.789V76.504z M22.789,82.021h3.789v-3.723h-3.789V82.021z M22.789,87.472h3.789v-3.723h-3.789V87.472z M17.338,54.5h3.723
						v-3.723h-3.723V54.5z M17.338,60.018h3.723v-3.723h-3.723V60.018z M17.338,65.469h3.723v-3.723h-3.723V65.469z M17.338,70.986
						h3.723v-3.723h-3.723V70.986z M17.338,76.504h3.723v-3.723h-3.723V76.504z M17.338,82.021h3.723v-3.723h-3.723V82.021z
						 M17.338,87.472h3.723v-3.723h-3.723V87.472z"/>
					<path style="fill-rule:evenodd;clip-rule:evenodd;fill:#1A1A1A;" d="M243.157,87.472h3.723v-3.723h-3.723V87.472z
						 M237.64,87.472h3.723v-3.723h-3.723V87.472z M232.122,87.472h3.723v-3.723h-3.723V87.472z M226.605,87.472h3.723v-3.723
						h-3.723V87.472z M265.161,87.472h3.723v-3.723h-3.723V87.472z M259.644,87.472h3.723v-3.723h-3.723V87.472z M254.126,87.472
						h3.723v-3.723h-3.723V87.472z M248.608,87.472h3.789v-3.723h-3.789V87.472z M292.682,87.472h3.723v-3.723h-3.723V87.472z
						 M287.165,87.472h3.789v-3.723h-3.789V87.472z M281.714,87.472h3.723v-3.723h-3.723V87.472z M276.196,87.472h3.723v-3.723
						h-3.723V87.472z M270.679,87.472h3.723v-3.723h-3.723V87.472z M364.277,87.472h3.789v-3.723h-3.789V87.472z M358.826,87.472
						h3.723v-3.723h-3.723V87.472z M353.308,87.472h3.723v-3.723h-3.723V87.472z M347.791,87.472h3.723v-3.723h-3.723V87.472z
						 M386.347,87.472h3.723v-3.723h-3.723V87.472z M380.829,87.472h3.723v-3.723h-3.723V87.472z M375.312,87.472h3.723v-3.723
						h-3.723V87.472z M369.794,87.472h3.723v-3.723h-3.723V87.472z M413.868,87.472h3.723v-3.723h-3.723V87.472z M408.35,87.472
						h3.723v-3.723h-3.723V87.472z M402.833,87.472h3.789v-3.723h-3.789V87.472z M397.382,87.472h3.723v-3.723h-3.723V87.472z
						 M391.864,87.472h3.723v-3.723h-3.723V87.472z M221.087,82.021h3.723v-3.723h-3.723V82.021z M215.57,82.021h3.723v-3.723
						h-3.723V82.021z M221.087,87.472h3.723v-3.723h-3.723V87.472z M215.57,87.472h3.723v-3.723h-3.723V87.472z M243.157,82.021
						h3.723v-3.723h-3.723V82.021z M237.64,82.021h3.723v-3.723h-3.723V82.021z M232.122,82.021h3.723v-3.723h-3.723V82.021z
						 M226.605,82.021h3.723v-3.723h-3.723V82.021z M265.161,82.021h3.723v-3.723h-3.723V82.021z M259.644,82.021h3.723v-3.723
						h-3.723V82.021z M254.126,82.021h3.723v-3.723h-3.723V82.021z M248.608,82.021h3.789v-3.723h-3.789V82.021z M292.682,82.021
						h3.723v-3.723h-3.723V82.021z M287.165,82.021h3.789v-3.723h-3.789V82.021z M281.714,82.021h3.723v-3.723h-3.723V82.021z
						 M276.196,82.021h3.723v-3.723h-3.723V82.021z M270.679,82.021h3.723v-3.723h-3.723V82.021z M364.277,82.021h3.789v-3.723
						h-3.789V82.021z M358.826,82.021h3.723v-3.723h-3.723V82.021z M353.308,82.021h3.723v-3.723h-3.723V82.021z M347.791,82.021
						h3.723v-3.723h-3.723V82.021z M386.347,82.021h3.723v-3.723h-3.723V82.021z M380.829,82.021h3.723v-3.723h-3.723V82.021z
						 M375.312,82.021h3.723v-3.723h-3.723V82.021z M369.794,82.021h3.723v-3.723h-3.723V82.021z M413.868,82.021h3.723v-3.723
						h-3.723V82.021z M408.35,82.021h3.723v-3.723h-3.723V82.021z M402.833,82.021h3.789v-3.723h-3.789V82.021z M397.382,82.021
						h3.723v-3.723h-3.723V82.021z M391.864,82.021h3.723v-3.723h-3.723V82.021z M243.157,76.504h3.723v-3.723h-3.723V76.504z
						 M237.64,76.504h3.723v-3.723h-3.723V76.504z M232.122,76.504h3.723v-3.723h-3.723V76.504z M226.605,76.504h3.723v-3.723
						h-3.723V76.504z M265.161,76.504h3.723v-3.723h-3.723V76.504z M259.644,76.504h3.723v-3.723h-3.723V76.504z M254.126,76.504
						h3.723v-3.723h-3.723V76.504z M248.608,76.504h3.789v-3.723h-3.789V76.504z M292.682,76.504h3.723v-3.723h-3.723V76.504z
						 M287.165,76.504h3.789v-3.723h-3.789V76.504z M281.714,76.504h3.723v-3.723h-3.723V76.504z M276.196,76.504h3.723v-3.723
						h-3.723V76.504z M270.679,76.504h3.723v-3.723h-3.723V76.504z M364.277,76.504h3.789v-3.723h-3.789V76.504z M358.826,76.504
						h3.723v-3.723h-3.723V76.504z M353.308,76.504h3.723v-3.723h-3.723V76.504z M347.791,76.504h3.723v-3.723h-3.723V76.504z
						 M386.347,76.504h3.723v-3.723h-3.723V76.504z M380.829,76.504h3.723v-3.723h-3.723V76.504z M375.312,76.504h3.723v-3.723
						h-3.723V76.504z M369.794,76.504h3.723v-3.723h-3.723V76.504z M413.868,76.504h3.723v-3.723h-3.723V76.504z M408.35,76.504
						h3.723v-3.723h-3.723V76.504z M402.833,76.504h3.789v-3.723h-3.789V76.504z M397.382,76.504h3.723v-3.723h-3.723V76.504z
						 M391.864,76.504h3.723v-3.723h-3.723V76.504z M221.087,70.986h3.723v-3.723h-3.723V70.986z M215.57,70.986h3.723v-3.723
						h-3.723V70.986z M221.087,76.504h3.723v-3.723h-3.723V76.504z M215.57,76.504h3.723v-3.723h-3.723V76.504z M243.157,70.986
						h3.723v-3.723h-3.723V70.986z M237.64,70.986h3.723v-3.723h-3.723V70.986z M232.122,70.986h3.723v-3.723h-3.723V70.986z
						 M226.605,70.986h3.723v-3.723h-3.723V70.986z M265.161,70.986h3.723v-3.723h-3.723V70.986z M259.644,70.986h3.723v-3.723
						h-3.723V70.986z M254.126,70.986h3.723v-3.723h-3.723V70.986z M248.608,70.986h3.789v-3.723h-3.789V70.986z M292.682,70.986
						h3.723v-3.723h-3.723V70.986z M287.165,70.986h3.789v-3.723h-3.789V70.986z M281.714,70.986h3.723v-3.723h-3.723V70.986z
						 M276.196,70.986h3.723v-3.723h-3.723V70.986z M270.679,70.986h3.723v-3.723h-3.723V70.986z M364.277,70.986h3.789v-3.723
						h-3.789V70.986z M358.826,70.986h3.723v-3.723h-3.723V70.986z M353.308,70.986h3.723v-3.723h-3.723V70.986z M347.791,70.986
						h3.723v-3.723h-3.723V70.986z M386.347,70.986h3.723v-3.723h-3.723V70.986z M380.829,70.986h3.723v-3.723h-3.723V70.986z
						 M375.312,70.986h3.723v-3.723h-3.723V70.986z M369.794,70.986h3.723v-3.723h-3.723V70.986z M413.868,70.986h3.723v-3.723
						h-3.723V70.986z M408.35,70.986h3.723v-3.723h-3.723V70.986z M402.833,70.986h3.789v-3.723h-3.789V70.986z M397.382,70.986
						h3.723v-3.723h-3.723V70.986z M391.864,70.986h3.723v-3.723h-3.723V70.986z M254.126,65.469h3.723v-3.723h-3.723V65.469z
						 M248.608,65.469h3.789v-3.723h-3.789V65.469z M243.157,65.469h3.723v-3.723h-3.723V65.469z M237.64,65.469h3.723v-3.723
						h-3.723V65.469z M276.196,65.469h3.723v-3.723h-3.723V65.469z M270.679,65.469h3.723v-3.723h-3.723V65.469z M265.161,65.469
						h3.723v-3.723h-3.723V65.469z M259.644,65.469h3.723v-3.723h-3.723V65.469z M298.2,65.469h3.723v-3.723H298.2V65.469z
						 M292.682,65.469h3.723v-3.723h-3.723V65.469z M287.165,65.469h3.789v-3.723h-3.789V65.469z M281.714,65.469h3.723v-3.723
						h-3.723V65.469z M320.27,65.469h3.723v-3.723h-3.723V65.469z M314.752,65.469h3.723v-3.723h-3.723V65.469z M309.235,65.469
						h3.723v-3.723h-3.723V65.469z M303.717,65.469h3.723v-3.723h-3.723V65.469z M342.273,65.469h3.723v-3.723h-3.723V65.469z
						 M336.756,65.469h3.723v-3.723h-3.723V65.469z M331.238,65.469h3.723v-3.723h-3.723V65.469z M325.721,65.469h3.789v-3.723
						h-3.789V65.469z M364.277,65.469h3.789v-3.723h-3.789V65.469z M358.826,65.469h3.723v-3.723h-3.723V65.469z M353.308,65.469
						h3.723v-3.723h-3.723V65.469z M347.791,65.469h3.723v-3.723h-3.723V65.469z M386.347,65.469h3.723v-3.723h-3.723V65.469z
						 M380.829,65.469h3.723v-3.723h-3.723V65.469z M375.312,65.469h3.723v-3.723h-3.723V65.469z M369.794,65.469h3.723v-3.723
						h-3.723V65.469z M413.868,65.469h3.723v-3.723h-3.723V65.469z M408.35,65.469h3.723v-3.723h-3.723V65.469z M402.833,65.469
						h3.789v-3.723h-3.789V65.469z M397.382,65.469h3.723v-3.723h-3.723V65.469z M391.864,65.469h3.723v-3.723h-3.723V65.469z
						 M232.122,54.5h3.723v-3.723h-3.723V54.5z M232.122,60.018h3.723v-3.723h-3.723V60.018z M226.605,60.018h3.723v-3.723h-3.723
						V60.018z M232.122,65.469h3.723v-3.723h-3.723V65.469z M226.605,65.469h3.723v-3.723h-3.723V65.469z M221.087,65.469h3.723
						v-3.723h-3.723V65.469z M215.57,65.469h3.723v-3.723h-3.723V65.469z M276.196,60.018h3.723v-3.723h-3.723V60.018z
						 M270.679,60.018h3.723v-3.723h-3.723V60.018z M265.161,60.018h3.723v-3.723h-3.723V60.018z M259.644,60.018h3.723v-3.723
						h-3.723V60.018z M298.2,60.018h3.723v-3.723H298.2V60.018z M292.682,60.018h3.723v-3.723h-3.723V60.018z M287.165,60.018h3.789
						v-3.723h-3.789V60.018z M281.714,60.018h3.723v-3.723h-3.723V60.018z M320.27,60.018h3.723v-3.723h-3.723V60.018z
						 M314.752,60.018h3.723v-3.723h-3.723V60.018z M309.235,60.018h3.723v-3.723h-3.723V60.018z M303.717,60.018h3.723v-3.723
						h-3.723V60.018z M342.273,60.018h3.723v-3.723h-3.723V60.018z M336.756,60.018h3.723v-3.723h-3.723V60.018z M331.238,60.018
						h3.723v-3.723h-3.723V60.018z M325.721,60.018h3.789v-3.723h-3.789V60.018z M364.277,60.018h3.789v-3.723h-3.789V60.018z
						 M358.826,60.018h3.723v-3.723h-3.723V60.018z M353.308,60.018h3.723v-3.723h-3.723V60.018z M347.791,60.018h3.723v-3.723
						h-3.723V60.018z M386.347,60.018h3.723v-3.723h-3.723V60.018z M380.829,60.018h3.723v-3.723h-3.723V60.018z M375.312,60.018
						h3.723v-3.723h-3.723V60.018z M369.794,60.018h3.723v-3.723h-3.723V60.018z M413.868,60.018h3.723v-3.723h-3.723V60.018z
						 M408.35,60.018h3.723v-3.723h-3.723V60.018z M402.833,60.018h3.789v-3.723h-3.789V60.018z M397.382,60.018h3.723v-3.723
						h-3.723V60.018z M391.864,60.018h3.723v-3.723h-3.723V60.018z M254.126,54.5h3.723v-3.723h-3.723V54.5z M248.608,54.5h3.789
						v-3.723h-3.789V54.5z M243.157,54.5h3.723v-3.723h-3.723V54.5z M237.64,54.5h3.723v-3.723h-3.723V54.5z M254.126,60.018h3.723
						v-3.723h-3.723V60.018z M248.608,60.018h3.789v-3.723h-3.789V60.018z M243.157,60.018h3.723v-3.723h-3.723V60.018z
						 M237.64,60.018h3.723v-3.723h-3.723V60.018z M303.717,54.5h3.723v-3.723h-3.723V54.5z M298.2,54.5h3.723v-3.723H298.2V54.5z
						 M292.682,54.5h3.723v-3.723h-3.723V54.5z M287.165,54.5h3.789v-3.723h-3.789V54.5z M325.721,54.5h3.789v-3.723h-3.789V54.5z
						 M320.27,54.5h3.723v-3.723h-3.723V54.5z M314.752,54.5h3.723v-3.723h-3.723V54.5z M309.235,54.5h3.723v-3.723h-3.723V54.5z
						 M347.791,54.5h3.723v-3.723h-3.723V54.5z M342.273,54.5h3.723v-3.723h-3.723V54.5z M336.756,54.5h3.723v-3.723h-3.723V54.5z
						 M331.238,54.5h3.723v-3.723h-3.723V54.5z M369.794,54.5h3.723v-3.723h-3.723V54.5z M364.277,54.5h3.789v-3.723h-3.789V54.5z
						 M358.826,54.5h3.723v-3.723h-3.723V54.5z M353.308,54.5h3.723v-3.723h-3.723V54.5z M413.868,54.5h3.723v-3.723h-3.723V54.5z
						 M408.35,54.5h3.723v-3.723h-3.723V54.5z M402.833,54.5h3.789v-3.723h-3.789V54.5z M397.382,54.5h3.723v-3.723h-3.723V54.5z
						 M391.864,54.5h3.723v-3.723h-3.723V54.5z M386.347,54.5h3.723v-3.723h-3.723V54.5z M380.829,54.5h3.723v-3.723h-3.723V54.5z
						 M375.312,54.5h3.723v-3.723h-3.723V54.5z M281.714,54.5h3.723v-3.723h-3.723V54.5z M276.196,54.5h3.723v-3.723h-3.723V54.5z
						 M270.679,54.5h3.723v-3.723h-3.723V54.5z M265.161,54.5h3.723v-3.723h-3.723V54.5z M259.644,54.5h3.723v-3.723h-3.723V54.5z"
						/>
					<path style="fill-rule:evenodd;clip-rule:evenodd;fill:#333333;" d="M38.744,88.27h19.544V50.977H38.744V88.27z M299.529,88.07
						H344.6V66.665h-45.071V88.07z M109.939,88.07h43.475V66.665h-43.475C109.939,66.665,109.939,88.07,109.939,88.07z"/>
					<path style="fill-rule:evenodd;clip-rule:evenodd;fill:#E5E5E4;" d="M115.523,83.882h24.862V71.186h-24.862V83.882z
						 M314.154,83.882h24.862V71.186h-24.862V83.882z"/>
					<path style="fill-rule:evenodd;clip-rule:evenodd;fill:#1A1A1A;" d="M314.42,83.617h24.264V71.451H314.42V83.617z
						 M115.789,83.617h24.264V71.451h-24.264V83.617z"/>
					<path style="fill-rule:evenodd;clip-rule:evenodd;fill:#D8D8D7;" d="M338.218,71.85h-23.333v11.367h23.333V71.85z
						 M139.588,71.85h-23.267v11.367h23.267V71.85z"/>
					<rect x="116.321" y="71.85" style="fill:none;" width="23.267" height="11.367"/>
					<path style="fill:none;" d="M116.321,71.85"/>
					<rect x="314.885" y="71.85" style="fill:none;" width="23.333" height="11.367"/>
					<path style="fill:none;" d="M314.885,71.85"/>
					<path style="fill-rule:evenodd;clip-rule:evenodd;fill:#272626;" d="M139.322,72.05h-22.735v10.969h22.735V72.05z
						 M337.886,72.05h-22.668v10.969h22.668V72.05z"/>
					<rect x="315.218" y="72.05" style="fill:none;" width="22.668" height="10.969"/>
					<path style="fill:none;" d="M315.218,72.05"/>
					<rect x="116.587" y="72.05" style="fill:none;" width="22.735" height="10.969"/>
					<path style="fill:none;" d="M116.587,72.05"/>
					<path style="fill-rule:evenodd;clip-rule:evenodd;fill:#FFFFFF;" d="M48.25,87.206h0.598v-0.532H48.25V87.206z M48.383,86.209
						h0.332l0.133-2.26v-0.931h-0.665v0.931L48.383,86.209z M50.643,68.659c0-1.13-0.931-2.061-2.127-2.061
						c-1.13,0-2.061,0.931-2.061,2.061c0,1.197,0.931,2.127,2.061,2.127C49.712,70.787,50.643,69.856,50.643,68.659z M50.111,68.659
						c0,0.931-0.731,1.595-1.595,1.595c-0.864,0-1.595-0.665-1.595-1.595c0-0.864,0.731-1.529,1.595-1.529
						C49.38,67.13,50.111,67.795,50.111,68.659z M48.848,68.261c0,0.199-0.133,0.332-0.332,0.332c-0.199,0-0.332-0.133-0.332-0.332
						c0-0.199,0.133-0.332,0.332-0.332C48.715,67.928,48.848,68.061,48.848,68.261z M47.851,68.659l0.598,1.197
						c0,0,0.066,0.066,0.133,0l0.665-1.197c0.199-0.399,0-0.864-0.332-1.064c-0.399-0.199-0.864-0.066-1.064,0.332
						C47.718,68.128,47.718,68.393,47.851,68.659z M147.232,87.206h0.598v-0.532h-0.598V87.206z M147.365,86.209h0.332l0.133-2.26
						v-0.931h-0.598v0.931L147.365,86.209z M127.423,68.925v-0.399h-1.13v0.931h1.13v-0.332h0.399v1.595h0.199v-0.399h0.465v0.399
						h1.064v-0.997h-1.064v0.399h-0.465v-2.26h0.465v0.399h1.064v-0.997h-1.064v0.399h-0.465v-0.399h-0.199v1.662L127.423,68.925
						L127.423,68.925z M306.709,87.206h0.532v-0.532h-0.532V87.206z M306.841,86.209h0.332l0.133-2.26v-0.931h-0.665v0.931
						L306.841,86.209z M326.053,68.925v-0.399h-1.13v0.931h1.13v-0.332h0.399v1.595h0.199v-0.399h0.399v0.399h1.13v-0.997h-1.13
						v0.399h-0.399v-2.26h0.399v0.399h1.13v-0.997h-1.13v0.399h-0.399v-0.399h-0.199v1.662L326.053,68.925L326.053,68.925z"/>
					<g>
						<g>
							<defs>
								
									<rect id="SVGID_00000179632989839056965930000009862966946096500406_" x="11.688" y="40.739" width="411.62" height="49.791"/>
							</defs>
							<clipPath id="SVGID_00000085212366489983497180000002598734810679957182_">
								<use xlink:href="#SVGID_00000179632989839056965930000009862966946096500406_"  style="overflow:visible;"/>
							</clipPath>
							<g style="clip-path:url(#SVGID_00000085212366489983497180000002598734810679957182_);">
								<g>
									<defs>
										
											<rect id="SVGID_00000007387659294501126970000016292844206697020563_" x="-167.731" y="-369.584" width="678.056" height="877.484"/>
									</defs>
									<clipPath id="SVGID_00000010288566953244394380000016300477493542093488_">
										<use xlink:href="#SVGID_00000007387659294501126970000016292844206697020563_"  style="overflow:visible;"/>
									</clipPath>
									
										<path style="clip-path:url(#SVGID_00000010288566953244394380000016300477493542093488_);fill-rule:evenodd;clip-rule:evenodd;fill:#F2F2F2;" d="
										M423.241,40.739H11.688v7.113c0,1.396,1.13,2.526,2.46,2.526h184.604c2.061,0,3.989,1.064,5.052,2.925l2.194,3.789
										c0.997,1.795,2.925,2.925,5.052,2.925h13.162c2.061,0,3.989-1.13,5.052-2.925l2.194-3.789
										c1.064-1.861,2.991-2.925,5.052-2.925h184.205c1.396,0,2.526-1.13,2.526-2.526V40.739"/>
								</g>
							</g>
						</g>
					</g>
					<path style="fill:#7697B4;" d="M225.275,50.91h0.066c0.133,0,0.199-0.133,0.133-0.199v-0.133c0-0.133-0.066-0.199-0.133-0.199
						h-0.133c0-0.066,0-0.199,0-0.266h0.066c0.066-0.066,0.133-0.133,0.133-0.266l-0.066-0.133c0-0.066-0.066-0.133-0.199-0.133
						h-0.066c0-0.066-0.066-0.133-0.066-0.266h0.066c0.066-0.066,0.133-0.133,0.066-0.266v-0.133
						c-0.066-0.066-0.133-0.133-0.199-0.133l-0.133,0.066c0-0.133-0.066-0.199-0.066-0.266l0.066-0.066
						c0.066,0,0.133-0.133,0.066-0.199l-0.066-0.133c0-0.133-0.133-0.133-0.199-0.133l-0.066,0.066
						c-0.066-0.133-0.133-0.199-0.133-0.266l0.066-0.066c0.066-0.066,0.066-0.133,0-0.266v-0.066
						c-0.066-0.133-0.199-0.133-0.266-0.133l-0.066,0.066c-0.066-0.066-0.133-0.133-0.133-0.266h0.066
						c0.066-0.066,0.066-0.199,0-0.266l-0.066-0.133c-0.066-0.066-0.199-0.066-0.266-0.066l-0.066,0.066
						c-0.066-0.066-0.133-0.133-0.199-0.199l0.066-0.066c0.066-0.066,0.066-0.199,0-0.266l-0.066-0.066
						c-0.066-0.066-0.199-0.133-0.266-0.066l-0.066,0.066c-0.066-0.066-0.133-0.133-0.199-0.199l0.066-0.066
						c0.066-0.066,0-0.199-0.066-0.266l-0.066-0.066c-0.066-0.066-0.199-0.066-0.266,0l-0.066,0.066
						c-0.066-0.066-0.133-0.133-0.199-0.199l0.066-0.066c0-0.066,0-0.199-0.066-0.266l-0.133-0.066
						c-0.066-0.066-0.199-0.066-0.266,0v0.066c-0.133,0-0.199-0.066-0.266-0.133l0.066-0.066c0-0.066,0-0.199-0.133-0.266h-0.066
						c-0.133-0.066-0.266-0.066-0.266,0l-0.066,0.066c-0.066,0-0.133-0.066-0.266-0.133l0.066-0.066c0-0.066,0-0.199-0.133-0.199
						l-0.133-0.066c-0.066-0.066-0.199,0-0.199,0.066l-0.066,0.066c-0.066,0-0.133-0.066-0.266-0.066l0.066-0.133
						c0-0.066-0.066-0.133-0.133-0.199h-0.133c-0.133-0.066-0.199,0-0.266,0.066v0.066c-0.133,0-0.199-0.066-0.266-0.066V43.93
						c0-0.133-0.066-0.199-0.199-0.199l-0.066-0.066c-0.133,0-0.199,0.066-0.266,0.133v0.066c-0.066,0-0.199,0-0.266,0v-0.133
						c0-0.066-0.066-0.133-0.199-0.133h-0.133c-0.066-0.066-0.199,0-0.199,0.133v0.066c-0.066,0-0.199,0-0.266,0v-0.133
						c0-0.066-0.133-0.133-0.199-0.133h-0.133c-0.133,0-0.199,0.066-0.199,0.133v0.133c-0.133,0-0.199,0-0.266,0l-0.066-0.066
						c0-0.133-0.066-0.199-0.199-0.133H216.7c-0.066,0-0.133,0.066-0.133,0.133v0.133c-0.133,0-0.199,0-0.266,0l-0.066-0.066
						c0-0.066-0.133-0.133-0.199-0.133l-0.133,0.066c-0.133,0-0.199,0.066-0.133,0.199v0.066c-0.066,0-0.199,0.066-0.266,0.066
						l-0.066-0.066c0-0.066-0.133-0.133-0.199-0.066h-0.133c-0.133,0.066-0.133,0.133-0.133,0.199v0.133
						c-0.066,0-0.133,0.066-0.266,0.066v-0.066c-0.066-0.066-0.133-0.133-0.266-0.066l-0.133,0.066
						c-0.066,0-0.133,0.133-0.066,0.199v0.066c-0.066,0.066-0.133,0.133-0.266,0.133v-0.066c-0.066-0.066-0.199-0.066-0.266,0
						h-0.133c-0.066,0.066-0.133,0.199-0.066,0.266l0.066,0.066c-0.133,0.066-0.199,0.133-0.266,0.133l-0.066-0.066
						c-0.066-0.066-0.133-0.066-0.266,0l-0.066,0.066c-0.066,0.066-0.133,0.199-0.066,0.266l0.066,0.066
						c-0.066,0.066-0.199,0.133-0.266,0.199l-0.066-0.066c0-0.066-0.133-0.066-0.199,0l-0.133,0.066
						c-0.066,0.066-0.066,0.199,0,0.266l0.066,0.066c-0.066,0.066-0.199,0.133-0.266,0.199l-0.066-0.066
						c0-0.066-0.133,0-0.199,0.066l-0.133,0.066c-0.066,0.066-0.066,0.199,0,0.266l0.066,0.066
						c-0.066,0.066-0.133,0.133-0.133,0.199l-0.133-0.066c-0.066,0-0.133,0-0.199,0.066l-0.066,0.133
						c-0.066,0.066-0.066,0.199,0,0.266h0.066c-0.066,0.133-0.133,0.199-0.133,0.266l-0.133-0.066c-0.066,0-0.133,0-0.199,0.133
						l-0.066,0.066c-0.066,0.133-0.066,0.199,0.066,0.266l0.066,0.066c-0.066,0.066-0.133,0.133-0.133,0.266l-0.066-0.066
						c-0.133,0-0.199,0-0.266,0.133l-0.066,0.133c0,0.066,0,0.199,0.066,0.199l0.133,0.066c-0.066,0.066-0.066,0.133-0.133,0.266
						l-0.066-0.066c-0.066,0-0.199,0.066-0.199,0.133l-0.066,0.133c0,0.133,0,0.199,0.066,0.266h0.133
						c-0.066,0.133-0.066,0.199-0.066,0.266h-0.133c-0.066,0-0.133,0.066-0.199,0.133v0.133c0,0.133,0,0.199,0.133,0.266h0.066
						c0,0.066-0.066,0.199-0.066,0.266h-0.066c-0.066,0-0.199,0.066-0.199,0.199v0.133c0,0.066,0.066,0.199,0.133,0.199h0.066
						c0,0.066,0,0.199,0,0.266h-0.066c-0.066,0-0.133,0.133-0.133,0.199v0.133c0,0.133,0.066,0.199,0.133,0.199h0.066
						c0,0.066,0,0.199,0,0.266h-0.066c-0.066,0.066-0.133,0.133-0.133,0.266v0.133c0,0.066,0.133,0.133,0.199,0.133h0.066
						c0,0.066,0.066,0.199,0.066,0.266l-0.066,0.066c-0.133,0-0.133,0.066-0.133,0.199v0.133c0.066,0.066,0.133,0.133,0.199,0.133
						h0.133c0,0.066,0,0.199,0.066,0.266l-0.133,0.066c-0.066,0-0.066,0.066-0.066,0.199l0.066,0.133
						c0,0.066,0.133,0.133,0.199,0.133h0.066c0.066,0.066,0.066,0.133,0.133,0.266h-0.133c-0.066,0.066-0.066,0.133-0.066,0.266
						l0.066,0.066c0.066,0.133,0.133,0.199,0.266,0.133h0.066c0,0.066,0.066,0.133,0.133,0.199l-0.066,0.066
						c-0.133,0.066-0.133,0.133-0.066,0.266l0.066,0.133c0.066,0.066,0.133,0.133,0.199,0.066l0.133-0.066
						c0,0.066,0.066,0.199,0.133,0.266l-0.066,0.066c-0.066,0-0.066,0.133,0,0.199l0.066,0.133c0.066,0.066,0.133,0.133,0.199,0.066
						l0.133-0.066c0,0.066,0.066,0.133,0.133,0.199l-0.066,0.066c-0.066,0.066-0.066,0.199,0,0.266l0.133,0.133
						c0.066,0.066,0.199,0.066,0.199,0l0.066-0.066c0.066,0.066,0.199,0.133,0.266,0.199l-0.066,0.066
						c-0.066,0.066-0.066,0.199,0,0.266l0.133,0.066c0.066,0.066,0.199,0.066,0.199,0.066l0.066-0.066
						c0.066,0,0.199,0.066,0.266,0.133l-0.066,0.066c-0.066,0.066,0,0.199,0.066,0.266l0.066,0.066c0.133,0.066,0.199,0.066,0.266,0
						l0.066-0.066c0.066,0.066,0.133,0.066,0.266,0.133l-0.066,0.066c-0.066,0.066,0,0.199,0.066,0.266l0.133,0.066
						c0.066,0.066,0.199,0,0.266-0.066v-0.066c0.133,0.066,0.199,0.066,0.266,0.133v0.066c-0.066,0.066,0,0.199,0.066,0.266h0.133
						c0.133,0.066,0.199,0.066,0.266-0.066v-0.066c0.133,0.066,0.199,0.066,0.266,0.133v0.066c0,0.066,0,0.199,0.133,0.199
						l0.133,0.066c0.066,0,0.199,0,0.199-0.133l0.066-0.066c0.066,0.066,0.199,0.066,0.266,0.066v0.133
						c-0.066,0.066,0,0.133,0.133,0.133l0.133,0.066c0.066,0,0.199-0.066,0.199-0.133l0.066-0.066c0.066,0,0.133,0,0.266,0.066
						v0.066c0,0.066,0.066,0.133,0.133,0.199h0.133c0.133,0,0.199-0.066,0.199-0.133l0.066-0.133c0.066,0,0.133,0.066,0.266,0.066
						v0.066c0,0.066,0.066,0.133,0.199,0.133h0.133c0.066,0,0.199-0.066,0.199-0.133v-0.066c0.066,0,0.199-0.066,0.266-0.066v0.133
						c0,0.066,0.133,0.133,0.199,0.133h0.133c0.133-0.066,0.199-0.133,0.199-0.199v-0.066c0.066-0.066,0.199-0.066,0.266-0.066
						v0.066c0.066,0.066,0.133,0.133,0.266,0.133l0.066-0.066c0.133,0,0.199-0.066,0.199-0.133v-0.133c0.066,0,0.133,0,0.266-0.066
						v0.066c0.066,0.133,0.133,0.133,0.266,0.133l0.133-0.066c0.066,0,0.133-0.133,0.133-0.199l-0.066-0.066
						c0.133-0.066,0.199-0.066,0.266-0.133l0.066,0.066c0,0.133,0.133,0.133,0.199,0.066h0.133c0.133-0.066,0.133-0.199,0.133-0.266
						l-0.066-0.066c0.133-0.066,0.199-0.066,0.266-0.133l0.066,0.066c0,0.066,0.133,0.133,0.266,0.066l0.066-0.066
						c0.133-0.066,0.133-0.199,0.133-0.266l-0.066-0.066c0.066-0.066,0.133-0.066,0.266-0.133v0.066
						c0.066,0.066,0.199,0.066,0.266,0l0.133-0.066c0.066-0.066,0.066-0.199,0.066-0.266l-0.066-0.066
						c0.066-0.066,0.133-0.133,0.199-0.133l0.066,0.066c0.066,0,0.199,0,0.266-0.066l0.066-0.066
						c0.066-0.066,0.133-0.199,0.066-0.266l-0.066-0.066c0.066-0.066,0.133-0.133,0.199-0.199l0.066,0.066
						c0.066,0.066,0.199,0.066,0.266,0l0.066-0.133c0.066-0.066,0.066-0.199,0-0.266l-0.066-0.066
						c0.066-0.066,0.133-0.133,0.199-0.199l0.066,0.066c0.066,0.066,0.199,0,0.266-0.066l0.066-0.133
						c0.066-0.066,0.066-0.199,0-0.199l-0.066-0.066c0-0.066,0.066-0.199,0.133-0.266l0.066,0.066c0.066,0.066,0.199,0,0.266-0.066
						v-0.133c0.066-0.133,0.066-0.199,0-0.266l-0.066-0.066c0-0.066,0.066-0.133,0.133-0.199h0.066c0.066,0.066,0.199,0,0.199-0.133
						l0.066-0.066c0.066-0.133,0-0.199-0.066-0.266h-0.066c0-0.133,0.066-0.199,0.066-0.266h0.133c0.066,0,0.133-0.066,0.199-0.133
						v-0.133c0.066-0.133,0-0.199-0.066-0.199l-0.066-0.066c0-0.066,0.066-0.199,0.066-0.266h0.066c0.133,0,0.199-0.066,0.199-0.133
						l0.066-0.133c0-0.133-0.066-0.199-0.133-0.199l-0.066-0.066c0-0.066,0-0.199,0-0.266h0.133c0.066,0,0.133-0.066,0.133-0.133
						V52.24c0.066-0.133,0-0.199-0.133-0.266h-0.066c0-0.066,0-0.199,0-0.266h0.133c0.066,0,0.133-0.066,0.133-0.199v-0.133
						c0-0.066-0.066-0.199-0.133-0.199h-0.133C225.275,51.11,225.275,50.977,225.275,50.91z"/>
					<path style="fill-rule:evenodd;clip-rule:evenodd;fill:#8BBBE4;" d="M224.677,51.442c0-3.922-3.124-7.046-7.046-7.046
						c-3.922,0-7.113,3.124-7.113,7.046c0,3.922,3.191,7.113,7.113,7.113C221.553,58.555,224.677,55.364,224.677,51.442"/>
					<path style="fill-rule:evenodd;clip-rule:evenodd;fill:#DCDCDC;stroke:#808184;stroke-width:0.3045;stroke-miterlimit:10;" d="
						M221.752,51.442c0-2.26-1.861-4.122-4.122-4.122c-2.26,0-4.122,1.861-4.122,4.122c0,2.26,1.861,4.122,4.122,4.122
						C219.891,55.564,221.752,53.702,221.752,51.442 M221.752,51.442c0,2.26-1.861,4.122-4.122,4.122
						c-2.26,0-4.122-1.861-4.122-4.122c0-2.26,1.861-4.122,4.122-4.122C219.891,47.321,221.752,49.182,221.752,51.442z
						 M222.949,51.442c0-2.925-2.393-5.318-5.318-5.318c-2.991,0-5.385,2.393-5.385,5.318c0,2.991,2.393,5.385,5.385,5.385
						C220.556,56.827,222.949,54.434,222.949,51.442z"/>
					
						<ellipse transform="matrix(0.2297 -0.9732 0.9732 0.2297 117.564 251.4316)" style="fill:none;" cx="217.63" cy="51.442" rx="4.122" ry="4.122"/>
					
						<ellipse transform="matrix(0.7071 -0.7071 0.7071 0.7071 27.3681 168.9556)" style="fill:none;" cx="217.632" cy="51.442" rx="4.122" ry="4.122"/>
					<path style="fill-rule:evenodd;clip-rule:evenodd;fill:#C0BFBF;" d="M215.769,50.312l0.332,0.332
						c0.399,0.465,0.399,1.13,0,1.595l-0.332,0.332c-0.133,0.133-0.133,0.399,0,0.532l0.199,0.199c0.133,0.133,0.399,0.133,0.532,0
						l0.332-0.332c0.399-0.399,1.13-0.399,1.595,0l0.332,0.332c0.133,0.133,0.332,0.133,0.532,0l0.199-0.199
						c0.133-0.133,0.133-0.399,0-0.532l-0.332-0.332c-0.465-0.465-0.465-1.13,0-1.595l0.332-0.332c0.133-0.133,0.133-0.332,0-0.532
						l-0.266-0.199c-0.133-0.133-0.332-0.133-0.465,0l-0.332,0.332c-0.465,0.465-1.197,0.465-1.595,0l-0.332-0.332
						c-0.133-0.133-0.399-0.133-0.532,0l-0.199,0.199C215.57,49.98,215.57,50.179,215.769,50.312"/>
					<path style="fill-rule:evenodd;clip-rule:evenodd;fill:#C0BEBE;" d="M50.111,80.492c0-0.864-0.731-1.529-1.595-1.529
						c-0.864,0-1.529,0.665-1.529,1.529c0,0.864,0.665,1.529,1.529,1.529C49.38,82.021,50.111,81.356,50.111,80.492 M50.111,74.243
						c0-0.798-0.731-1.529-1.595-1.529c-0.864,0-1.529,0.731-1.529,1.529c0,0.864,0.665,1.595,1.529,1.595
						C49.38,75.839,50.111,75.108,50.111,74.243z M149.094,80.492c0-0.864-0.731-1.529-1.595-1.529
						c-0.864,0-1.529,0.665-1.529,1.529c0,0.864,0.665,1.529,1.529,1.529C148.363,82.021,149.094,81.356,149.094,80.492z
						 M149.094,74.243c0-0.798-0.731-1.529-1.595-1.529c-0.864,0-1.529,0.731-1.529,1.529c0,0.864,0.665,1.595,1.529,1.595
						C148.363,75.839,149.094,75.108,149.094,74.243z M308.503,80.492c0-0.864-0.665-1.529-1.529-1.529s-1.529,0.665-1.529,1.529
						c0,0.864,0.665,1.529,1.529,1.529S308.503,81.356,308.503,80.492z M308.503,74.243c0-0.798-0.665-1.529-1.529-1.529
						s-1.529,0.731-1.529,1.529c0,0.864,0.665,1.595,1.529,1.595S308.503,75.108,308.503,74.243z"/>
					<path style="fill:#00FF00;" d="M308.503,74.243c0-0.798-0.665-1.529-1.529-1.529s-1.529,0.731-1.529,1.529
						c0,0.864,0.665,1.595,1.529,1.595S308.503,75.108,308.503,74.243z"/>
					<path style="fill:#FF7500;" d="M308.503,80.492c0-0.864-0.665-1.529-1.529-1.529s-1.529,0.665-1.529,1.529
						s0.665,1.529,1.529,1.529S308.503,81.356,308.503,80.492z"/>
					<path style="fill:#00FF00;" d="M149.094,74.243c0-0.798-0.731-1.529-1.595-1.529c-0.864,0-1.529,0.731-1.529,1.529
						c0,0.864,0.665,1.595,1.529,1.595C148.363,75.839,149.094,75.108,149.094,74.243z"/>
					<path style="fill:#FF7500;" d="M149.094,80.492c0-0.864-0.731-1.529-1.595-1.529c-0.864,0-1.529,0.665-1.529,1.529
						s0.665,1.529,1.529,1.529C148.363,82.021,149.094,81.356,149.094,80.492z"/>
					<path style="fill:#149FF4;" d="M50.111,74.243c0-0.798-0.731-1.529-1.595-1.529s-1.529,0.731-1.529,1.529
						c0,0.864,0.665,1.595,1.529,1.595C49.38,75.839,50.111,75.108,50.111,74.243z"/>
					<path style="fill:#FF7500;" d="M50.111,80.492c0-0.864-0.731-1.529-1.595-1.529s-1.529,0.665-1.529,1.529
						s0.665,1.529,1.529,1.529C49.38,82.021,50.111,81.356,50.111,80.492z"/>
					<rect x="38.744" y="50.977" style="fill:#FFFFFF;" width="19.61" height="10.171"/>
					<rect x="38.744" y="50.977" style="fill:none;" width="19.61" height="10.171"/>
				</g>
			</g>
		</g>
		<g>
			<path d="M43.987,57.698v-3.002h0.59l1.229,2.005v-2.005h0.563v3.002h-0.608l-1.21-1.958v1.958H43.987z"/>
			<path d="M46.857,56.722l0.589-0.058c0.036,0.198,0.108,0.343,0.216,0.437c0.108,0.093,0.255,0.139,0.439,0.139
				c0.196,0,0.343-0.042,0.441-0.124c0.099-0.082,0.149-0.179,0.149-0.29c0-0.071-0.021-0.131-0.062-0.181
				c-0.042-0.049-0.114-0.093-0.218-0.13c-0.071-0.025-0.233-0.068-0.485-0.131c-0.325-0.08-0.553-0.179-0.684-0.297
				c-0.184-0.165-0.277-0.366-0.277-0.604c0-0.153,0.043-0.296,0.13-0.429s0.212-0.234,0.375-0.304s0.36-0.105,0.591-0.105
				c0.377,0,0.661,0.083,0.851,0.248c0.19,0.165,0.29,0.385,0.3,0.661l-0.607,0.027c-0.026-0.155-0.081-0.265-0.167-0.333
				c-0.086-0.068-0.214-0.101-0.384-0.101c-0.176,0-0.314,0.036-0.413,0.108c-0.064,0.046-0.096,0.109-0.096,0.186
				c0,0.071,0.03,0.132,0.09,0.183c0.077,0.064,0.262,0.131,0.557,0.2c0.295,0.07,0.513,0.142,0.654,0.216
				c0.142,0.074,0.252,0.176,0.332,0.305c0.08,0.129,0.12,0.288,0.12,0.478c0,0.172-0.048,0.333-0.143,0.483
				c-0.096,0.15-0.231,0.262-0.406,0.335c-0.174,0.073-0.393,0.11-0.653,0.11c-0.379,0-0.671-0.088-0.874-0.263
				S46.896,57.057,46.857,56.722z"/>
			<path d="M49.8,57.698v-3.002h0.908l0.545,2.048l0.538-2.048H52.7v3.002h-0.563v-2.364l-0.596,2.364h-0.583l-0.594-2.364v2.364
				H49.8z"/>
		</g>
		<g>
			<path style="fill:#FFFFFF;" d="M125.696,86.906l0.666,0.112c-0.086,0.244-0.221,0.429-0.406,0.558
				c-0.185,0.127-0.416,0.192-0.693,0.192c-0.44,0-0.764-0.144-0.975-0.431c-0.167-0.231-0.25-0.521-0.25-0.871
				c0-0.419,0.109-0.747,0.328-0.984c0.219-0.238,0.495-0.356,0.83-0.356c0.376,0,0.673,0.124,0.89,0.372
				c0.217,0.247,0.321,0.628,0.312,1.141h-1.675c0.005,0.197,0.059,0.352,0.162,0.463c0.103,0.109,0.231,0.165,0.385,0.165
				c0.105,0,0.193-0.029,0.264-0.086C125.606,87.125,125.66,87.032,125.696,86.906z M125.734,86.23
				c-0.005-0.194-0.055-0.341-0.15-0.441c-0.095-0.101-0.211-0.151-0.347-0.151c-0.146,0-0.266,0.052-0.362,0.159
				c-0.095,0.106-0.142,0.25-0.14,0.433C124.735,86.23,125.734,86.23,125.734,86.23z"/>
			<path style="fill:#FFFFFF;" d="M127.93,84.208c0.338,0,0.602,0.12,0.792,0.362c0.227,0.285,0.34,0.759,0.34,1.42
				c0,0.659-0.114,1.134-0.343,1.423c-0.189,0.238-0.452,0.357-0.79,0.357c-0.34,0-0.613-0.131-0.821-0.391
				c-0.208-0.262-0.312-0.727-0.312-1.395c0-0.657,0.114-1.13,0.343-1.418C127.329,84.327,127.592,84.208,127.93,84.208z
				 M127.93,84.763c-0.081,0-0.153,0.025-0.216,0.077c-0.064,0.051-0.112,0.144-0.147,0.277c-0.046,0.172-0.069,0.464-0.069,0.873
				s0.021,0.69,0.062,0.843c0.041,0.152,0.093,0.255,0.156,0.306c0.062,0.05,0.134,0.076,0.215,0.076
				c0.081,0,0.153-0.026,0.216-0.077c0.064-0.052,0.112-0.144,0.147-0.277c0.046-0.171,0.069-0.462,0.069-0.871
				c0-0.409-0.021-0.691-0.062-0.843c-0.041-0.153-0.093-0.256-0.156-0.307C128.083,84.788,128.011,84.763,127.93,84.763z"/>
			<path style="fill:#FFFFFF;" d="M130.152,85.955l-0.607-0.109c0.068-0.245,0.186-0.426,0.352-0.542
				c0.167-0.118,0.414-0.176,0.742-0.176c0.298,0,0.52,0.035,0.666,0.106c0.146,0.07,0.249,0.159,0.308,0.269
				c0.059,0.108,0.089,0.308,0.089,0.598l-0.007,0.78c0,0.221,0.011,0.385,0.032,0.491c0.021,0.105,0.061,0.218,0.12,0.339h-0.661
				c-0.017-0.045-0.039-0.111-0.064-0.197c-0.011-0.04-0.019-0.067-0.024-0.079c-0.114,0.111-0.236,0.194-0.366,0.25
				c-0.13,0.055-0.269,0.083-0.416,0.083c-0.26,0-0.465-0.071-0.615-0.212c-0.15-0.142-0.225-0.32-0.225-0.535
				c0-0.143,0.034-0.27,0.102-0.382c0.068-0.112,0.164-0.197,0.287-0.257c0.123-0.059,0.3-0.112,0.532-0.156
				c0.312-0.059,0.529-0.114,0.649-0.164v-0.067c0-0.128-0.032-0.22-0.095-0.275s-0.183-0.082-0.359-0.082
				c-0.119,0-0.212,0.023-0.278,0.07C130.247,85.755,130.193,85.837,130.152,85.955z M131.047,86.497
				c-0.086,0.029-0.221,0.062-0.407,0.102c-0.186,0.039-0.307,0.079-0.364,0.117c-0.087,0.062-0.131,0.14-0.131,0.236
				c0,0.093,0.035,0.174,0.105,0.243c0.07,0.068,0.159,0.102,0.266,0.102c0.121,0,0.236-0.04,0.345-0.119
				c0.081-0.061,0.134-0.134,0.159-0.221c0.017-0.057,0.026-0.167,0.026-0.326V86.497z"/>
		</g>
		<g>
			<g>
				<path style="fill:#FFFFFF;" d="M144.222,71.303v-2.594h0.528v2.154h1.313v0.44H144.222z"/>
				<path style="fill:#FFFFFF;" d="M146.446,71.303v-2.615h0.514l1.071,1.747v-1.747h0.491v2.615h-0.53l-1.055-1.705v1.705
					C146.936,71.303,146.446,71.303,146.446,71.303z"/>
				<path style="fill:#FFFFFF;" d="M149.086,71.303v-2.615h0.528v1.162l1.067-1.162h0.71l-0.985,1.019l1.038,1.596h-0.683
					l-0.719-1.227l-0.428,0.437v0.79C149.615,71.303,149.086,71.303,149.086,71.303z"/>
			</g>
		</g>
		<g>
			<path style="fill:#FFFFFF;" d="M323.477,86.906l0.666,0.112c-0.086,0.244-0.221,0.429-0.406,0.558
				c-0.186,0.127-0.416,0.192-0.694,0.192c-0.44,0-0.765-0.144-0.975-0.431c-0.167-0.231-0.25-0.521-0.25-0.871
				c0-0.419,0.109-0.747,0.328-0.984c0.219-0.238,0.495-0.356,0.83-0.356c0.376,0,0.672,0.124,0.89,0.372
				c0.216,0.247,0.321,0.628,0.312,1.141h-1.675c0.005,0.197,0.058,0.352,0.162,0.463c0.102,0.109,0.231,0.165,0.385,0.165
				c0.105,0,0.193-0.029,0.264-0.086S323.44,87.032,323.477,86.906z M323.515,86.23c-0.005-0.194-0.055-0.341-0.15-0.441
				c-0.095-0.101-0.212-0.151-0.347-0.151c-0.146,0-0.266,0.052-0.362,0.159c-0.095,0.106-0.143,0.25-0.14,0.433
				C322.516,86.23,323.515,86.23,323.515,86.23z"/>
			<path style="fill:#FFFFFF;" d="M325.711,84.208c0.338,0,0.602,0.12,0.792,0.362c0.226,0.285,0.34,0.759,0.34,1.42
				c0,0.659-0.114,1.134-0.343,1.423c-0.189,0.238-0.452,0.357-0.79,0.357c-0.34,0-0.614-0.131-0.821-0.391
				c-0.208-0.262-0.312-0.727-0.312-1.395c0-0.657,0.114-1.13,0.343-1.418C325.109,84.327,325.373,84.208,325.711,84.208z
				 M325.711,84.763c-0.081,0-0.153,0.025-0.216,0.077c-0.064,0.051-0.113,0.144-0.147,0.277c-0.046,0.172-0.069,0.464-0.069,0.873
				s0.02,0.69,0.062,0.843c0.04,0.152,0.093,0.255,0.156,0.306c0.062,0.05,0.134,0.076,0.215,0.076c0.081,0,0.152-0.026,0.216-0.077
				c0.063-0.052,0.112-0.144,0.148-0.277c0.045-0.171,0.069-0.462,0.069-0.871c0-0.409-0.021-0.691-0.062-0.843
				c-0.042-0.153-0.094-0.256-0.156-0.307C325.863,84.788,325.792,84.763,325.711,84.763z"/>
			<path style="fill:#FFFFFF;" d="M327.405,87.71v-3.488h0.669v1.256c0.206-0.236,0.45-0.352,0.733-0.352
				c0.307,0,0.561,0.111,0.764,0.334c0.201,0.222,0.302,0.542,0.302,0.96c0,0.431-0.103,0.764-0.308,0.997
				c-0.206,0.233-0.456,0.35-0.748,0.35c-0.145,0-0.287-0.037-0.427-0.108c-0.14-0.073-0.262-0.18-0.363-0.32v0.371H327.405z
				 M328.068,86.392c0,0.262,0.04,0.454,0.124,0.58c0.115,0.177,0.269,0.266,0.462,0.266c0.148,0,0.272-0.063,0.377-0.189
				c0.103-0.126,0.156-0.325,0.156-0.596c0-0.289-0.052-0.497-0.157-0.624c-0.105-0.128-0.239-0.192-0.402-0.192
				c-0.161,0-0.294,0.062-0.4,0.187C328.121,85.949,328.068,86.138,328.068,86.392z"/>
		</g>
		<g>
			<g>
				<path style="fill:#FFFFFF;" d="M303.484,71.303v-2.594h0.528v2.154h1.313v0.44H303.484z"/>
				<path style="fill:#FFFFFF;" d="M305.708,71.303v-2.615h0.514l1.071,1.747v-1.747h0.49v2.615h-0.529l-1.055-1.705v1.705
					C306.198,71.303,305.708,71.303,305.708,71.303z"/>
				<path style="fill:#FFFFFF;" d="M308.348,71.303v-2.615h0.528v1.162l1.067-1.162h0.71l-0.985,1.019l1.038,1.596h-0.684
					l-0.718-1.227l-0.428,0.437v0.79C308.877,71.303,308.348,71.303,308.348,71.303z"/>
			</g>
		</g>
	</g>
	<g>
		<g>
			<path style="fill:#221F1F;stroke:#FFFFFF;stroke-width:1.2;stroke-miterlimit:10;" d="M42.991,16.639
				c0,6.074-4.996,10.996-11.16,10.996c-6.166,0-11.162-4.922-11.162-10.996c0-6.077,4.996-11.004,11.162-11.004
				C37.995,5.635,42.991,10.562,42.991,16.639"/>
		</g>
		<rect x="20.63" y="10.243" style="fill:none;" width="21.783" height="15.642"/>
		<g style="enable-background:new    ;">
			<path style="fill:#FFFFFF;" d="M33.108,22.272h-1.477v-9.409c-0.355,0.339-0.821,0.679-1.398,1.018s-1.095,0.593-1.555,0.763
				v-1.428c0.826-0.388,1.548-0.858,2.166-1.41c0.618-0.553,1.055-1.089,1.312-1.608h0.951V22.272z"/>
		</g>
	</g>
	<g>
		<g>
			<path style="fill:#221F1F;stroke:#FFFFFF;stroke-width:1.2;stroke-miterlimit:10;" d="M42.991,120.901
				c0,6.074-4.996,10.996-11.16,10.996c-6.166,0-11.162-4.922-11.162-10.996c0-6.077,4.996-11.004,11.162-11.004
				C37.995,109.897,42.991,114.825,42.991,120.901"/>
		</g>
		<rect x="20.997" y="114.384" style="fill:none;" width="21.783" height="13.877"/>
		<g style="enable-background:new    ;">
			<path style="fill:#FFFFFF;" d="M35.674,124.993v1.419h-7.949c-0.011-0.355,0.046-0.697,0.172-1.025
				c0.203-0.541,0.526-1.074,0.972-1.6s1.09-1.132,1.932-1.821c1.307-1.071,2.19-1.921,2.649-2.547s0.689-1.218,0.689-1.776
				c0-0.585-0.209-1.078-0.627-1.48c-0.418-0.401-0.964-0.603-1.637-0.603c-0.711,0-1.279,0.213-1.706,0.64
				s-0.643,1.018-0.648,1.771l-1.518-0.155c0.104-1.132,0.495-1.995,1.173-2.588c0.678-0.594,1.589-0.891,2.732-0.891
				c1.154,0,2.067,0.32,2.74,0.96c0.672,0.64,1.009,1.433,1.009,2.379c0,0.481-0.098,0.954-0.295,1.419
				c-0.197,0.465-0.523,0.954-0.98,1.469c-0.457,0.514-1.215,1.22-2.276,2.116c-0.886,0.744-1.455,1.248-1.707,1.514
				c-0.251,0.265-0.459,0.531-0.623,0.8H35.674z"/>
		</g>
	</g>
	<g>
		<g>
			<path style="fill:#221F1F;stroke:#FFFFFF;stroke-width:1.2;stroke-miterlimit:10;" d="M214.734,107.631
				c0,6.074-4.996,10.996-11.16,10.996c-6.166,0-11.162-4.922-11.162-10.996c0-6.077,4.996-11.004,11.162-11.004
				C209.738,96.627,214.734,101.554,214.734,107.631"/>
		</g>
		<rect x="192.373" y="101.236" style="fill:none;" width="21.783" height="15.642"/>
		<g style="enable-background:new    ;">
			<path style="fill:#FFFFFF;" d="M199.298,110.09l1.477-0.196c0.169,0.836,0.458,1.439,0.865,1.809s0.904,0.554,1.489,0.554
				c0.695,0,1.281-0.241,1.76-0.722c0.479-0.481,0.718-1.078,0.718-1.789c0-0.678-0.222-1.237-0.665-1.677
				c-0.443-0.44-1.006-0.661-1.69-0.661c-0.279,0-0.626,0.055-1.042,0.164l0.164-1.296c0.098,0.011,0.178,0.017,0.238,0.017
				c0.629,0,1.195-0.164,1.698-0.492c0.503-0.328,0.754-0.834,0.754-1.518c0-0.541-0.183-0.99-0.549-1.346
				c-0.367-0.355-0.84-0.533-1.419-0.533c-0.574,0-1.053,0.181-1.436,0.542c-0.383,0.36-0.629,0.902-0.738,1.624l-1.477-0.263
				c0.181-0.989,0.591-1.757,1.23-2.301c0.64-0.544,1.436-0.816,2.387-0.816c0.656,0,1.26,0.141,1.813,0.423
				c0.552,0.281,0.975,0.666,1.267,1.152s0.439,1.004,0.439,1.551c0,0.52-0.139,0.992-0.418,1.419
				c-0.279,0.427-0.692,0.766-1.238,1.017c0.71,0.164,1.263,0.505,1.657,1.021c0.394,0.517,0.591,1.164,0.591,1.94
				c0,1.05-0.383,1.939-1.148,2.67s-1.734,1.095-2.904,1.095c-1.056,0-1.932-0.314-2.629-0.943S199.396,111.091,199.298,110.09z"/>
		</g>
	</g>
	<g>
		<g>
			<path style="fill:#221F1F;stroke:#FFFFFF;stroke-width:1.2;stroke-miterlimit:10;" d="M266.118,120.901
				c0,6.074-4.996,10.996-11.16,10.996c-6.166,0-11.162-4.922-11.162-10.996c0-6.077,4.996-11.004,11.162-11.004
				C261.121,109.897,266.118,114.825,266.118,120.901"/>
		</g>
		<rect x="243.757" y="114.506" style="fill:none;" width="21.783" height="13.877"/>
		<g style="enable-background:new    ;">
			<path style="fill:#FFFFFF;" d="M255.407,126.535v-2.879h-5.218v-1.354l5.488-7.793h1.206v7.793h1.624v1.354h-1.624v2.879H255.407
				z M255.407,122.303v-5.424l-3.766,5.424H255.407z"/>
		</g>
	</g>
</g>
<g id="Layer_2_00000153700550316983413060000008583700808913940391_">
	<g>
		
			<polyline style="fill:none;stroke:#FFFFFF;stroke-width:2;stroke-linecap:round;stroke-linejoin:round;stroke-miterlimit:10;" points="
			43.646,74.232 31.891,74.232 31.891,29.609 		"/>
		
			<polyline style="fill:none;stroke:#221F1F;stroke-width:0.5;stroke-linecap:round;stroke-linejoin:round;stroke-miterlimit:10;" points="
			43.646,74.232 31.891,74.232 31.891,29.609 		"/>
	</g>
	<g>
		
			<polyline style="fill:none;stroke:#FFFFFF;stroke-width:2;stroke-linecap:round;stroke-linejoin:round;stroke-miterlimit:10;" points="
			43.646,80.926 31.891,80.926 31.891,108.965 		"/>
		
			<polyline style="fill:none;stroke:#221F1F;stroke-width:0.5;stroke-linecap:round;stroke-linejoin:round;stroke-miterlimit:10;" points="
			43.646,80.926 31.891,80.926 31.891,108.965 		"/>
	</g>
	<g>
		
			<polyline style="fill:none;stroke:#FFFFFF;stroke-width:2;stroke-linecap:round;stroke-linejoin:round;stroke-miterlimit:10;" points="
			301.639,74.232 281.608,74.232 281.608,107.119 216.49,107.119 		"/>
		
			<polyline style="fill:none;stroke:#221F1F;stroke-width:0.5;stroke-linecap:round;stroke-linejoin:round;stroke-miterlimit:10;" points="
			301.639,74.232 281.608,74.232 281.608,107.119 216.49,107.119 		"/>
	</g>
	<g>
		
			<polyline style="fill:none;stroke:#FFFFFF;stroke-width:2;stroke-linecap:round;stroke-linejoin:round;stroke-miterlimit:10;" points="
			301.639,80.926 289.884,80.926 289.884,121.292 267.874,121.292 		"/>
		
			<polyline style="fill:none;stroke:#221F1F;stroke-width:0.5;stroke-linecap:round;stroke-linejoin:round;stroke-miterlimit:10;" points="
			301.639,80.926 289.884,80.926 289.884,121.292 267.874,121.292 		"/>
	</g>
	<g>
		
			<polyline style="fill:none;stroke:#FFFFFF;stroke-width:2;stroke-linecap:round;stroke-linejoin:round;stroke-miterlimit:10;" points="
			151.384,74.232 175.899,74.232 175.899,107.119 189.513,107.119 		"/>
		
			<polyline style="fill:none;stroke:#221F1F;stroke-width:0.5;stroke-linecap:round;stroke-linejoin:round;stroke-miterlimit:10;" points="
			151.384,74.232 175.899,74.232 175.899,107.119 189.513,107.119 		"/>
	</g>
	<g>
		
			<polyline style="fill:none;stroke:#FFFFFF;stroke-width:2;stroke-linecap:round;stroke-linejoin:round;stroke-miterlimit:10;" points="
			151.384,80.926 163.139,80.926 163.139,121.292 240.897,121.292 		"/>
		
			<polyline style="fill:none;stroke:#221F1F;stroke-width:0.5;stroke-linecap:round;stroke-linejoin:round;stroke-miterlimit:10;" points="
			151.384,80.926 163.139,80.926 163.139,121.292 240.897,121.292 		"/>
	</g>
</g>
</svg>
