<?xml version="1.0" encoding="utf-8"?>
<!-- Generator: Adobe Illustrator 26.0.3, SVG Export Plug-In . SVG Version: 6.00 Build 0)  -->
<svg version="1.1" xmlns="http://www.w3.org/2000/svg" xmlns:xlink="http://www.w3.org/1999/xlink" x="0px" y="0px"
	 viewBox="0 0 288 236.9" style="enable-background:new 0 0 288 236.9;" xml:space="preserve">
<style type="text/css">
	.st0{fill:#DBDCDD;}
	.st1{clip-path:url(#SVGID_00000116224814705843888870000003562133648648187786_);}
	.st2{fill:none;stroke:#231F20;stroke-width:0.5;stroke-miterlimit:10;}
	.st3{fill:none;stroke:#231F20;stroke-width:0.5;stroke-linecap:round;stroke-linejoin:round;stroke-miterlimit:10;}
	.st4{fill:#FFFFFF;}
</style>
<g id="Gray">
	<path class="st0" d="M130.7,41.7l17-8.5l25.8,9.3l-8.8,4.6l0.5,13.4l2.6,2.1v3.1l-2.3,2.3l2.1,14.7l2.3,1l3.4,47.4l-0.3,32.2
		l-0.5,10.3l-10.3,7l-20.9-9c0,0-1.8-4.6-1.8-7.5s0-8.2,0-8.2l2.6-3.4l-6.4-62.6l1-8.5l-2.8-3.6l-1.5-15.2l1.3-5.9
		C133.6,56.6,130.2,54.3,130.7,41.7z"/>
</g>
<g id="Art">
	<g>
		<defs>
			<rect id="SVGID_1_" x="8.4" y="12.4" width="270" height="216"/>
		</defs>
		<clipPath id="SVGID_00000095314819195580253020000001456531085247616128_">
			<use xlink:href="#SVGID_1_"  style="overflow:visible;"/>
		</clipPath>
		<g style="clip-path:url(#SVGID_00000095314819195580253020000001456531085247616128_);">
			<line class="st2" x1="-9.3" y1="-24.7" x2="293.9" y2="86.5"/>
		</g>
		<g style="clip-path:url(#SVGID_00000095314819195580253020000001456531085247616128_);">
			<g>
				<g>
					<g>
						<path class="st2" d="M23.1,7.4c-2.1,1.3-4.7,0.8-4.7,0.8l-15.8-6C-0.6,1-1.8-4-1.8-4l-0.9-8.6c0-3.7,2.8-2.6,2.8-2.6l18.4,6.5
							c0,0,2.9,0.5,2.8,4.9l0.3,5.3c0,0-0.1,3.2,2.1,6.1c0,0,2.2,1.1,2.5,5.8l1.4,15.8c0,0-0.1,1-0.4,1.8"/>
						<path class="st2" d="M31.1,91.2c0,0-3.5-29.7-5.3-52.9c0,0-0.2-4.4-2.9-5.1L4.3,25.4c-1.9,0-1.7,4.8-1.7,4.8
							c0.2,2.1,5.7,60.3,5.7,60.3"/>
						<polygon class="st3" points="6.4,-6.4 2.9,-7.5 2.9,-10 6.4,-8.9 						"/>
						<polygon class="st3" points="13.1,-3.9 9.7,-5 9.6,-7.5 13.2,-6.4 						"/>
						<path class="st3" d="M1.2,5.9l17.8,6.6c0,0,1.8,1,1.8,3.6l0.7,13.7L0.4,21.2L-1.3,7.5C-1.3,7.5-1.8,4.3,1.2,5.9z"/>
						<path class="st3" d="M0.2,5.4c0.2-0.6,0.9-1.1,2.4-0.2l17.8,6.6c0,0,1.8,1,1.8,3.6L23,29"/>
						<line class="st3" x1="21.6" y1="29.8" x2="27.1" y2="26.8"/>
						<polygon class="st3" points="15.7,36.8 17.8,33.8 21.9,38.3 19.9,49.5 						"/>
						<polygon class="st3" points="5.9,32.8 8,29.8 12.1,34.3 10.1,45.5 						"/>
						<polygon class="st3" points="18.5,65.9 20.6,62.9 24.8,67.5 22.7,78.7 						"/>
						<polygon class="st3" points="18.2,56.6 16,59.5 12,54.8 14.5,43.7 						"/>
						<polygon class="st3" points="20.7,86.5 18.5,89.4 14.5,84.7 17,73.6 						"/>
						<polygon class="st3" points="8.7,61.9 10.8,58.9 15,63.4 12.9,74.7 						"/>
					</g>
					<g>
						<path class="st2" d="M50.9,17.7c-2.1,1.3-4.7,0.8-4.7,0.8l-15.8-6C27.3,11.3,26,6.4,26,6.4l-0.9-8.6c0-3.7,2.8-2.6,2.8-2.6
							l18.4,6.5c0,0,2.9,0.5,2.8,4.9l0.3,5.3c0,0-0.1,3.2,2.1,6.1c0,0,2.2,1.1,2.5,5.8l1.4,15.8c0,0-0.1,1-0.4,1.8"/>
						<path class="st2" d="M58.9,101.5c0,0-3.5-29.7-5.3-52.9c0,0-0.2-4.4-2.9-5.1l-18.6-7.7c-1.9,0-1.7,4.8-1.7,4.8
							c0.2,2.1,5.7,60.3,5.7,60.3"/>
						<polygon class="st3" points="34.2,3.9 30.7,2.8 30.7,0.3 34.3,1.4 						"/>
						<polygon class="st3" points="41,6.4 37.5,5.3 37.5,2.8 41,3.9 						"/>
						<path class="st3" d="M29.1,16.2l17.8,6.6c0,0,1.8,1,1.8,3.6l0.7,13.7l-21.2-8.6l-1.7-13.6C26.5,17.8,26,14.6,29.1,16.2z"/>
						<path class="st3" d="M28,15.7c0.2-0.6,0.9-1.1,2.4-0.2L48.3,22c0,0,1.8,1,1.8,3.6l0.7,13.7"/>
						<line class="st3" x1="49.4" y1="40.1" x2="55" y2="37.1"/>
						<polygon class="st3" points="43.5,47.1 45.6,44.1 49.8,48.6 47.7,59.9 						"/>
						<polygon class="st3" points="33.7,43.1 35.9,40.1 40,44.6 37.9,55.8 						"/>
						<polygon class="st3" points="46.4,76.2 48.5,73.2 52.6,77.8 50.5,89 						"/>
						<polygon class="st3" points="46,66.9 43.8,69.8 39.9,65.1 42.3,54 						"/>
						<polygon class="st3" points="48.5,96.8 46.3,99.7 42.3,95 44.8,83.9 						"/>
						<polygon class="st3" points="36.6,72.2 38.7,69.2 42.8,73.7 40.7,85 						"/>
					</g>
					<g>
						<path class="st2" d="M78.7,28c-2.1,1.3-4.7,0.8-4.7,0.8l-15.8-6c-3.1-1.1-4.4-6.1-4.4-6.1L52.9,8c0-3.7,2.8-2.6,2.8-2.6
							l18.4,6.5c0,0,2.9,0.5,2.8,4.9l0.3,5.3c0,0-0.1,3.2,2.1,6.1c0,0,2.2,1.1,2.5,5.8l1.4,15.8c0,0-0.1,1-0.4,1.8"/>
						<path class="st2" d="M86.7,111.8c0,0-3.5-29.7-5.3-52.9c0,0-0.2-4.4-2.9-5.1L59.9,46c-1.9,0-1.7,4.8-1.7,4.8
							c0.2,2.1,5.7,60.3,5.7,60.3"/>
						<polygon class="st3" points="62,14.2 58.6,13.1 58.5,10.6 62.1,11.7 						"/>
						<polygon class="st3" points="68.8,16.7 65.3,15.6 65.3,13.1 68.8,14.2 						"/>
						<path class="st3" d="M56.9,26.5l17.8,6.6c0,0,1.8,1,1.8,3.6l0.7,13.7L56,41.8l-1.7-13.6C54.4,28.1,53.8,24.9,56.9,26.5z"/>
						<path class="st3" d="M55.8,26c0.2-0.6,0.9-1.1,2.4-0.2l17.8,6.6c0,0,1.8,1,1.8,3.6l0.7,13.7"/>
						<line class="st3" x1="77.2" y1="50.4" x2="82.8" y2="47.4"/>
						<polygon class="st3" points="71.4,57.4 73.5,54.4 77.6,58.9 75.5,70.2 						"/>
						<polygon class="st3" points="61.6,53.4 63.7,50.4 67.8,54.9 65.7,66.1 						"/>
						<polygon class="st3" points="74.2,86.5 76.3,83.5 80.4,88.1 78.3,99.3 						"/>
						<polygon class="st3" points="73.9,77.2 71.6,80.1 67.7,75.4 70.1,64.3 						"/>
						<polygon class="st3" points="76.3,107.1 74.1,110 70.2,105.3 72.6,94.2 						"/>
						<polygon class="st3" points="64.4,82.5 66.5,79.5 70.6,84 68.5,95.3 						"/>
					</g>
					<g>
						<path class="st2" d="M106.5,38.3c-2.1,1.3-4.7,0.8-4.7,0.8l-15.8-6c-3.1-1.1-4.4-6.1-4.4-6.1l-0.9-8.6c0-3.7,2.8-2.6,2.8-2.6
							l18.4,6.5c0,0,2.9,0.5,2.8,4.9l0.3,5.3c0,0-0.1,3.2,2.1,6.1c0,0,2.2,1.1,2.5,5.8L111,60c0,0-0.1,1-0.4,1.8"/>
						<path class="st2" d="M114.5,122.1c0,0-3.5-29.7-5.3-52.9c0,0-0.2-4.4-2.9-5.1l-18.6-7.7c-1.9,0-1.7,4.8-1.7,4.8
							c0.2,2.1,5.7,60.3,5.7,60.3"/>
						<polygon class="st3" points="89.9,24.5 86.4,23.4 86.3,20.9 89.9,22 						"/>
						<polygon class="st3" points="96.6,27 93.1,25.9 93.1,23.4 96.7,24.5 						"/>
						<path class="st3" d="M84.7,36.8l17.8,6.6c0,0,1.8,1,1.8,3.6l0.7,13.7l-21.2-8.6l-1.7-13.6C82.2,38.4,81.6,35.2,84.7,36.8z"/>
						<path class="st3" d="M83.7,36.3c0.2-0.6,0.9-1.1,2.4-0.2l17.8,6.6c0,0,1.8,1,1.8,3.6l0.7,13.7"/>
						<line class="st3" x1="105.1" y1="60.7" x2="110.6" y2="57.7"/>
						<polygon class="st3" points="99.2,67.7 101.3,64.7 105.4,69.2 103.3,80.5 						"/>
						<polygon class="st3" points="89.4,63.7 91.5,60.7 95.6,65.2 93.5,76.4 						"/>
						<polygon class="st3" points="102,96.8 104.1,93.8 108.2,98.4 106.1,109.6 						"/>
						<polygon class="st3" points="101.7,87.5 99.5,90.4 95.5,85.8 98,74.6 						"/>
						<polygon class="st3" points="104.2,117.4 101.9,120.3 98,115.6 100.4,104.5 						"/>
						<polygon class="st3" points="92.2,92.8 94.3,89.8 98.4,94.3 96.4,105.6 						"/>
					</g>
					<g>
						<path class="st2" d="M132.9,40.9l-0.3-3.5c0.1-4.4-2.8-4.9-2.8-4.9L111.3,26c0,0-2.8-1-2.8,2.6l0.9,8.6c0,0,1.3,5,4.4,6.1
							l15.8,6c0,0,0.8,0.5,1.4,0.1"/>
						<path class="st2" d="M132.9,73.9l-17.3-7.2c-1.9,0-1.7,4.8-1.7,4.8c0.2,2.1,5.7,60.3,5.7,60.3"/>
						<path class="st2" d="M142.4,132.4"/>
						<polygon class="st3" points="117.7,34.8 114.2,33.7 114.2,31.2 117.7,32.3 						"/>
						<polygon class="st3" points="124.4,37.3 121,36.2 120.9,33.7 124.5,34.8 						"/>
						<path class="st3" d="M132.4,70.8l-20.8-8.4L110,48.7c0,0-0.5-3.2,2.5-1.6l17.8,6.6c0,0,1.8,1,1.8,3.6l0.2,4.4"/>
						<path class="st3" d="M133.6,56.5l0.2,4.3"/>
						<path class="st3" d="M111.5,46.6c0.2-0.6,0.9-1.1,2.4-0.2l17.8,6.6"/>
						<path class="st3" d="M132.9,71"/>
						<polygon class="st3" points="127,78 129.1,75 133.2,79.5 131.1,90.8 						"/>
						<polygon class="st3" points="117.2,74 119.3,71 123.4,75.5 121.4,86.7 						"/>
						<polygon class="st3" points="129.8,107.1 131.9,104.1 136,108.7 134,119.9 						"/>
						<polygon class="st3" points="129.5,97.8 127.3,100.7 123.3,96.1 125.8,84.9 						"/>
						<polygon class="st3" points="132,127.7 129.8,130.6 125.8,125.9 128.3,114.8 						"/>
						<polygon class="st3" points="120,103.1 122.1,100.1 126.3,104.7 124.2,115.9 						"/>
					</g>
					<g>
						<path class="st2" d="M190,69.2c-2.1,1.3-4.7,0.8-4.7,0.8l-15.8-6c-3.1-1.1-4.4-6.1-4.4-6.1l-0.9-8.6c0-3.7,2.8-2.6,2.8-2.6
							l18.4,6.5c0,0,2.9,0.5,2.8,4.9l0.3,5.3c0,0-0.1,3.2,2.1,6.1c0,0,2.2,1.1,2.5,5.8l1.4,15.8c0,0-0.1,1-0.4,1.8"/>
						<path class="st2" d="M198,153c0,0-3.5-29.7-5.3-52.9c0,0-0.2-4.4-2.9-5.1l-18.6-7.7c-1.9,0-1.7,4.8-1.7,4.8
							c0.2,2.1,5.7,60.3,5.7,60.3"/>
						<polygon class="st3" points="173.3,55.4 169.9,54.3 169.8,51.8 173.4,52.9 						"/>
						<polygon class="st3" points="180.1,57.9 176.6,56.8 176.6,54.3 180.1,55.4 						"/>
						<path class="st3" d="M168.2,67.7l17.8,6.6c0,0,1.8,1,1.8,3.6l0.7,13.7L167.3,83l-1.7-13.6C165.6,69.3,165.1,66.1,168.2,67.7z"
							/>
						<path class="st3" d="M167.1,67.2c0.2-0.6,0.9-1.1,2.4-0.2l17.8,6.6c0,0,1.8,1,1.8,3.6l0.7,13.7"/>
						<line class="st3" x1="188.5" y1="91.6" x2="194.1" y2="88.6"/>
						<polygon class="st3" points="182.6,98.6 184.7,95.6 188.9,100.1 186.8,111.4 						"/>
						<polygon class="st3" points="172.8,94.6 175,91.6 179.1,96.1 177,107.3 						"/>
						<polygon class="st3" points="185.5,127.7 187.6,124.7 191.7,129.3 189.6,140.5 						"/>
						<polygon class="st3" points="185.1,118.4 182.9,121.3 179,116.7 181.4,105.5 						"/>
						<polygon class="st3" points="187.6,148.3 185.4,151.2 181.4,146.6 183.9,135.4 						"/>
						<polygon class="st3" points="175.7,123.7 177.8,120.7 181.9,125.3 179.8,136.5 						"/>
					</g>
					<g>
						<path class="st2" d="M217.8,79.5c-2.1,1.3-4.7,0.8-4.7,0.8l-15.8-6c-3.1-1.1-4.4-6.1-4.4-6.1l-0.9-8.6c0-3.7,2.8-2.6,2.8-2.6
							l18.4,6.5c0,0,2.9,0.5,2.8,4.9l0.3,5.3c0,0-0.1,3.2,2.1,6.1c0,0,2.2,1.1,2.5,5.8l1.4,15.8c0,0-0.1,1-0.4,1.8"/>
						<path class="st2" d="M225.8,163.3c0,0-3.5-29.7-5.3-52.9c0,0-0.2-4.4-2.9-5.1L199,97.6c-1.9,0-1.7,4.8-1.7,4.8
							c0.2,2.1,5.7,60.3,5.7,60.3"/>
						<polygon class="st3" points="201.1,65.7 197.7,64.6 197.6,62.1 201.2,63.2 						"/>
						<polygon class="st3" points="207.9,68.2 204.4,67.1 204.4,64.6 207.9,65.7 						"/>
						<path class="st3" d="M196,78l17.8,6.6c0,0,1.8,1,1.8,3.6l0.7,13.7l-21.2-8.6l-1.7-13.6C193.5,79.6,192.9,76.4,196,78z"/>
						<path class="st3" d="M194.9,77.5c0.2-0.6,0.9-1.1,2.4-0.2l17.8,6.6c0,0,1.8,1,1.8,3.6l0.7,13.7"/>
						<line class="st3" x1="216.3" y1="101.9" x2="221.9" y2="98.9"/>
						<polygon class="st3" points="210.5,108.9 212.6,105.9 216.7,110.5 214.6,121.7 						"/>
						<polygon class="st3" points="200.7,104.9 202.8,101.9 206.9,106.4 204.8,117.7 						"/>
						<polygon class="st3" points="213.3,138 215.4,135 219.5,139.6 217.4,150.8 						"/>
						<polygon class="st3" points="213,128.7 210.8,131.6 206.8,127 209.2,115.8 						"/>
						<polygon class="st3" points="215.4,158.6 213.2,161.5 209.3,156.9 211.7,145.7 						"/>
						<polygon class="st3" points="203.5,134 205.6,131 209.7,135.6 207.6,146.8 						"/>
					</g>
					<g>
						<path class="st2" d="M245.6,89.8c-2.1,1.3-4.7,0.8-4.7,0.8l-15.8-6c-3.1-1.1-4.4-6.1-4.4-6.1l-0.9-8.6c0-3.7,2.8-2.6,2.8-2.6
							l18.4,6.5c0,0,2.9,0.5,2.8,4.9l0.3,5.3c0,0-0.1,3.2,2.1,6.1c0,0,2.2,1.1,2.5,5.8l1.4,15.8c0,0-0.1,1-0.4,1.8"/>
						<path class="st2" d="M253.6,173.6c0,0-3.5-29.7-5.3-52.9c0,0-0.2-4.4-2.9-5.1l-18.6-7.7c-1.9,0-1.7,4.8-1.7,4.8
							c0.2,2.1,5.7,60.3,5.7,60.3"/>
						<polygon class="st3" points="229,76 225.5,74.9 225.5,72.4 229,73.5 						"/>
						<polygon class="st3" points="235.7,78.6 232.3,77.4 232.2,74.9 235.8,76 						"/>
						<path class="st3" d="M223.8,88.3l17.8,6.6c0,0,1.8,1,1.8,3.6l0.7,13.7l-21.2-8.6l-1.7-13.6C221.3,89.9,220.7,86.7,223.8,88.3z
							"/>
						<path class="st3" d="M222.8,87.8c0.2-0.6,0.9-1.1,2.4-0.2l17.8,6.6c0,0,1.8,1,1.8,3.6l0.7,13.7"/>
						<line class="st3" x1="244.2" y1="112.2" x2="249.7" y2="109.2"/>
						<polygon class="st3" points="238.3,119.2 240.4,116.2 244.5,120.8 242.4,132 						"/>
						<polygon class="st3" points="228.5,115.2 230.6,112.2 234.7,116.7 232.6,128 						"/>
						<polygon class="st3" points="241.1,148.3 243.2,145.3 247.3,149.9 245.3,161.1 						"/>
						<polygon class="st3" points="240.8,139 238.6,141.9 234.6,137.3 237.1,126.1 						"/>
						<polygon class="st3" points="243.3,168.9 241.1,171.8 237.1,167.2 239.5,156 						"/>
						<polygon class="st3" points="231.3,144.3 233.4,141.3 237.5,145.9 235.5,157.1 						"/>
					</g>
					<g>
						<path class="st2" d="M273.4,100.1c-2.1,1.3-4.7,0.8-4.7,0.8l-15.8-6c-3.1-1.1-4.4-6.1-4.4-6.1l-0.9-8.6c0-3.7,2.8-2.6,2.8-2.6
							l18.4,6.5c0,0,2.9,0.5,2.8,4.9l0.3,5.3c0,0-0.1,3.2,2.1,6.1c0,0,2.2,1.1,2.5,5.8l1.4,15.8c0,0-0.1,1-0.4,1.8"/>
						<path class="st2" d="M281.5,183.9c0,0-3.5-29.7-5.3-52.9c0,0-0.2-4.4-2.9-5.1l-18.6-7.7c-1.9,0-1.7,4.8-1.7,4.8
							c0.2,2.1,5.7,60.3,5.7,60.3"/>
						<polygon class="st3" points="256.8,86.4 253.3,85.2 253.3,82.7 256.8,83.8 						"/>
						<polygon class="st3" points="263.5,88.9 260.1,87.7 260,85.2 263.6,86.3 						"/>
						<path class="st3" d="M251.6,98.6l17.8,6.6c0,0,1.8,1,1.8,3.6l0.7,13.7l-21.2-8.6l-1.7-13.6C249.1,100.3,248.6,97,251.6,98.6z"
							/>
						<path class="st3" d="M250.6,98.1c0.2-0.6,0.9-1.1,2.4-0.2l17.8,6.6c0,0,1.8,1,1.8,3.6l0.7,13.7"/>
						<line class="st3" x1="272" y1="122.5" x2="277.5" y2="119.5"/>
						<polygon class="st3" points="266.1,129.5 268.2,126.5 272.3,131.1 270.3,142.3 						"/>
						<polygon class="st3" points="256.3,125.5 258.4,122.5 262.5,127 260.5,138.3 						"/>
						<polygon class="st3" points="268.9,158.7 271,155.7 275.2,160.2 273.1,171.4 						"/>
						<polygon class="st3" points="268.6,149.3 266.4,152.3 262.4,147.6 264.9,136.4 						"/>
						<polygon class="st3" points="271.1,179.2 268.9,182.1 264.9,177.5 267.4,166.3 						"/>
						<polygon class="st3" points="259.1,154.6 261.2,151.6 265.4,156.2 263.3,167.4 						"/>
					</g>
					<g>
						<path class="st2" d="M301.3,110.4c-2.1,1.3-4.7,0.8-4.7,0.8l-15.8-6c-3.1-1.1-4.4-6.1-4.4-6.1l-0.9-8.6c0-3.7,2.8-2.6,2.8-2.6
							l18.4,6.5c0,0,2.9,0.5,2.8,4.9l0.3,5.3c0,0-0.1,3.2,2.1,6.1c0,0,2.2,1.1,2.5,5.8l1.4,15.8c0,0-0.1,1-0.4,1.8"/>
						<path class="st2" d="M309.3,194.2c0,0-3.5-29.7-5.3-52.9c0,0-0.2-4.4-2.9-5.1l-18.6-7.7c-1.9,0-1.7,4.8-1.7,4.8
							c0.2,2.1,5.7,60.3,5.7,60.3"/>
						<polygon class="st3" points="284.6,96.7 281.1,95.5 281.1,93 284.6,94.1 						"/>
						<polygon class="st3" points="291.4,99.2 287.9,98 287.9,95.5 291.4,96.6 						"/>
						<path class="st3" d="M279.5,108.9l17.8,6.6c0,0,1.8,1,1.8,3.6l0.7,13.7l-21.2-8.6l-1.7-13.6
							C276.9,110.6,276.4,107.3,279.5,108.9z"/>
						<path class="st3" d="M278.4,108.4c0.2-0.6,0.9-1.1,2.4-0.2l17.8,6.6c0,0,1.8,1,1.8,3.6l0.7,13.7"/>
						<line class="st3" x1="299.8" y1="132.8" x2="305.4" y2="129.8"/>
						<polygon class="st3" points="293.9,139.8 296,136.8 300.2,141.4 298.1,152.6 						"/>
						<polygon class="st3" points="284.1,135.8 286.2,132.8 290.4,137.3 288.3,148.6 						"/>
						<polygon class="st3" points="296.7,169 298.9,166 303,170.5 300.9,181.7 						"/>
						<polygon class="st3" points="296.4,159.6 294.2,162.6 290.3,157.9 292.7,146.7 						"/>
						<polygon class="st3" points="298.9,189.5 296.7,192.4 292.7,187.8 295.2,176.6 						"/>
						<polygon class="st3" points="287,164.9 289.1,161.9 293.2,166.5 291.1,177.7 						"/>
					</g>
				</g>
				<g>
					<path class="st3" d="M195.3,175.8l1,9.6c-0.6,3.5-3.7,1.8-3.7,1.8s-17.3-6.4-19-9.1c-1.7-2.7-1.4-12.7-1.4-12.7
						c-0.7-4.3,4.5-5.8,4.5-5.8l19.5,7.7C196.2,167.2,194.5,169,195.3,175.8z"/>
					<path class="st3" d="M139.6,163.7c0,0-17.3-6.4-19-9.1s-1.4-12.7-1.4-12.7c-0.7-4.3,4.5-5.8,4.5-5.8l19.5,7.7
						c0,0-1.8,1.7-0.9,8.5"/>
					<path class="st3" d="M115.7,140.6l1,9.6c-0.6,3.5-3.7,1.8-3.7,1.8s-17.3-6.4-19-9.1c-1.7-2.7-1.4-12.7-1.4-12.7
						c-0.7-4.3,4.5-5.8,4.5-5.8l19.5,7.7C116.6,132.1,114.9,133.8,115.7,140.6z"/>
					<path class="st3" d="M89.2,128.9l1,9.6c-0.6,3.5-3.7,1.8-3.7,1.8s-17.3-6.4-19-9.1c-1.7-2.7-1.4-12.7-1.4-12.7
						c-0.7-4.3,4.5-5.8,4.5-5.8l19.5,7.7C90.1,120.3,88.4,122.1,89.2,128.9z"/>
					<path class="st3" d="M62.7,117.1l1,9.6c-0.6,3.5-3.7,1.8-3.7,1.8s-17.3-6.4-19-9.1c-1.7-2.7-1.4-12.7-1.4-12.7
						c-0.7-4.3,4.5-5.8,4.5-5.8l19.5,7.7C63.6,108.6,61.8,110.3,62.7,117.1z"/>
					<path class="st3" d="M36.1,105.4l1,9.6c-0.6,3.5-3.7,1.8-3.7,1.8s-17.3-6.4-19-9.1C12.7,105,13.1,95,13.1,95
						c-0.7-4.3,4.5-5.8,4.5-5.8l19.5,7.7C37.1,96.9,35.3,98.6,36.1,105.4z"/>
				</g>
			</g>
			<line class="st2" x1="-3.3" y1="-29.4" x2="299.9" y2="81.8"/>
		</g>
		<g style="clip-path:url(#SVGID_00000095314819195580253020000001456531085247616128_);">
			<line class="st2" x1="-1.9" y1="-15.3" x2="5.7" y2="-19"/>
			<line class="st2" x1="20.8" y1="-7.7" x2="28.3" y2="-11.4"/>
		</g>
		<g style="clip-path:url(#SVGID_00000095314819195580253020000001456531085247616128_);">
			<line class="st2" x1="26" y1="-4.9" x2="33.6" y2="-8.6"/>
			<line class="st2" x1="48.7" y1="2.6" x2="56.2" y2="-1.1"/>
		</g>
		<g style="clip-path:url(#SVGID_00000095314819195580253020000001456531085247616128_);">
			<line class="st2" x1="53.9" y1="5.5" x2="61.5" y2="1.8"/>
			<line class="st2" x1="76.6" y1="13" x2="84.1" y2="9.3"/>
		</g>
		<g style="clip-path:url(#SVGID_00000095314819195580253020000001456531085247616128_);">
			<line class="st2" x1="81.8" y1="15.8" x2="89.3" y2="12.1"/>
			<line class="st2" x1="104.4" y1="23.4" x2="112" y2="19.7"/>
		</g>
		<g style="clip-path:url(#SVGID_00000095314819195580253020000001456531085247616128_);">
			<line class="st2" x1="109.7" y1="26.2" x2="117.2" y2="22.5"/>
			<line class="st2" x1="132.3" y1="33.8" x2="139.9" y2="30.1"/>
		</g>
		<g style="clip-path:url(#SVGID_00000095314819195580253020000001456531085247616128_);">
			<line class="st2" x1="165.4" y1="46.5" x2="173.8" y2="42.5"/>
			<line class="st2" x1="188.1" y1="54.1" x2="195.6" y2="50.4"/>
		</g>
		<g style="clip-path:url(#SVGID_00000095314819195580253020000001456531085247616128_);">
			<line class="st2" x1="193" y1="57.1" x2="201.3" y2="53"/>
			<line class="st2" x1="215.6" y1="64.7" x2="223.1" y2="61"/>
		</g>
		<g style="clip-path:url(#SVGID_00000095314819195580253020000001456531085247616128_);">
			<line class="st2" x1="220.8" y1="67.2" x2="229.2" y2="63.1"/>
			<line class="st2" x1="243.5" y1="74.7" x2="251" y2="71"/>
		</g>
		<g style="clip-path:url(#SVGID_00000095314819195580253020000001456531085247616128_);">
			<line class="st2" x1="248.7" y1="77.4" x2="257.1" y2="73.3"/>
			<line class="st2" x1="271.3" y1="85" x2="278.9" y2="81.3"/>
		</g>
		<g style="clip-path:url(#SVGID_00000095314819195580253020000001456531085247616128_);">
			<g>
				<g>
					<g>
						<g>
							<path class="st3" d="M156.1,63.5c-2.1,1.3-4.7,0.8-4.7,0.8l-15.8-6c-3.1-1.1-4.4-6.1-4.4-6.1l-0.9-8.6c0-3.7,2.8-2.6,2.8-2.6
								l18.4,6.5c0,0,2.9,0.5,2.8,4.9l0.3,5.3c0,0-0.1,3.2,2.1,6.1c0,0,2.2,1.1,2.5,5.8l1.4,15.8c0,0-0.4,0.6-0.4,1.8
								c0,0,0.6,0.5,0.7,2.2c0.2,1.6,4.8,48,4.8,48"/>
							<path class="st2" d="M164.1,147.3c0,0-3.5-29.7-5.3-52.9c0,0-0.2-4.4-2.9-5.1l-18.6-7.7c-1.9,0-1.7,4.8-1.7,4.8
								c0.2,2.1,5.7,60.3,5.7,60.3"/>
							<polygon class="st3" points="139.5,49.8 136,48.6 136,46.2 139.5,47.3 							"/>
							<polygon class="st3" points="146.2,52.3 142.8,51.1 142.7,48.7 146.3,49.8 							"/>
							<path class="st3" d="M134.3,62.1l17.8,6.6c0,0,1.8,1,1.8,3.6l0.7,13.7l-21.2-8.6l-1.7-13.6C131.8,63.7,131.2,60.5,134.3,62.1
								z"/>
							<path class="st3" d="M133.3,61.5c0.2-0.6,0.9-1.1,2.4-0.2l17.8,6.6c0,0,1.8,1,1.8,3.6l0.7,13.7"/>
							<line class="st3" x1="154.7" y1="86" x2="160.2" y2="83"/>
							<polygon class="st3" points="148.8,93 150.9,90 155,94.5 152.9,105.7 							"/>
							<polygon class="st3" points="139,88.9 141.1,85.9 145.2,90.5 143.1,101.7 							"/>
							<polygon class="st3" points="151.6,122.1 153.7,119.1 157.8,123.6 155.8,134.9 							"/>
							<polygon class="st3" points="151.3,112.8 149.1,115.7 145.1,111 147.6,99.9 							"/>
							<polygon class="st3" points="153.8,142.7 151.6,145.6 147.6,140.9 150,129.8 							"/>
							<polygon class="st3" points="141.8,118.1 143.9,115.1 148,119.6 146,130.8 							"/>
						</g>
					</g>
					<g>
						<path class="st3" d="M162.7,168.7l1,9.6c-0.6,3.5-3.7,1.8-3.7,1.8s-17.3-6.4-19-9.1s-1.4-12.7-1.4-12.7
							c-0.7-4.3,4.5-5.8,4.5-5.8l19.5,7.7C163.7,160.2,161.9,161.9,162.7,168.7z"/>
					</g>
				</g>
			</g>
			<line class="st3" x1="147.4" y1="33.3" x2="131.2" y2="41.4"/>
			<line class="st2" x1="153.8" y1="48.7" x2="168.7" y2="40.9"/>
			<line class="st3" x1="165.8" y1="177.1" x2="172.1" y2="173.8"/>
			<line class="st3" x1="156.8" y1="63.7" x2="164.8" y2="60"/>
		</g>
		<g style="clip-path:url(#SVGID_00000095314819195580253020000001456531085247616128_);">
			<g>
				<path class="st4" d="M-67.2,179.2c0,0,10.9-1.9,22.4-2.9S2.4,159.1,17.8,153s49.6-15.3,90.2-6.1c0,0,8.3,2.9,26.5,4.5l5.8,0.4
					c0,0,2.1,0.6,3.1-3.6c1-4.2,0.4-11.9,0.4-11.9l-0.5-2.5c0,0-2.9-14.1-24.2-21.9s-33.8-7.6-33.8-7.6l-32-0.6
					c0,0-18.4-7.3-23-15.8c-3.8-7.1-21.2-50.5-4.6-81.9C25.7,6.1-89.9,9.4-67.2,179.2z"/>
				<path class="st4" d="M296.9,41.2c-7.8,4.3-48.1,76.8-50.8,81.8c-2.8,5-5,13.8-18.9,34c-2.9,4.2-6,9-9,13.9l-0.6-1.6
					c-8.1-26.8-31.1-34.2-31.1-34.2c-20.4-8-25.5,0.9-25.5,0.9l-2.4-0.9c0,0-3.3-0.2-5.6,5.1c-2.4,5.2,0.5,9.6,4.5,13.9
					c4,4.3,15.9,10.5,15.9,10.5s7,9.2,7.3,27.8c0,0-1.5,10.6-0.5,17.1s-2.3,24.2-3.8,29.7c-1.5,5.5-12.3,47.6-10.6,54.4l147.3,13.9
					L296.9,41.2z"/>
			</g>
			<g>
				<path class="st2" d="M143.1,133.8c0,0-2.6-14.1-23.9-21.9s-33.8-7.6-33.8-7.6l-32-0.6c0,0-18.4-7.3-23-15.8
					c-3.8-7.1-21.2-50.5-4.6-81.9"/>
				<path class="st2" d="M-67.2,179.2c0,0,10.9-1.9,22.4-2.9S2.4,159.1,17.8,153s49.6-15.3,90.2-6.1c0,0,8.3,2.9,26.5,4.5"/>
				<path class="st2" d="M143.8,136.3c0,0-1.5-5.4-8.8-7.1c-7.3-1.7-15-1-15-1s-13.6,2.7-3.3,17.6c0,0,4.6,3.8,23.6,6.1
					c0,0,2.1,0.6,3.1-3.6C144.4,144,143.8,136.3,143.8,136.3z"/>
				<path class="st3" d="M80.9,122.6c0,0-4.5,12.2,2.2,17.5"/>
				<path class="st3" d="M84.6,132.3c0,0-1.8-12.6,8.3-16.3"/>
				<path class="st3" d="M89.1,125c0,0,5.4,6.6,2.2,14.1"/>
				<path class="st3" d="M160.9,136c0,0,5.1-8.9,25.5-0.9c0,0,23,7.4,31.1,34.2"/>
				<path class="st3" d="M158.6,135.1c0,0,11.2,5.2,13,10.9c1.8,5.6,4.3,15.9,1.8,18.6c0,0-11.9-6.2-15.9-10.5
					c-4-4.3-6.9-8.7-4.5-13.9C155.3,134.9,158.6,135.1,158.6,135.1z"/>
				<path class="st3" d="M173.4,164.6c0,0,7,9.2,7.3,27.8c0,0-1.5,10.6-0.5,17.1s-2.3,24.2-3.8,29.7c-1.5,5.5-12.3,47.6-10.6,54.4"
					/>
				<path class="st3" d="M195.8,209.5c0,0,17.6-32.5,31.5-52.6s16.1-28.9,18.9-34c2.8-5,43-77.5,50.8-81.8"/>
				<path class="st3" d="M178.2,167.9c0,0,2.4-14,8.2-16.9"/>
				<path class="st3" d="M181.5,167.6c0,0,4.7-3.5,7.5-9.6"/>
			</g>
		</g>
	</g>
</g>
</svg>
