<?xml version="1.0" encoding="utf-8"?>
<!-- Generator: Adobe Illustrator 26.0.3, SVG Export Plug-In . SVG Version: 6.00 Build 0)  -->
<svg version="1.1" id="Open_x5F_Controller" xmlns="http://www.w3.org/2000/svg" xmlns:xlink="http://www.w3.org/1999/xlink"
	 x="0px" y="0px" viewBox="0 0 378 202" style="enable-background:new 0 0 378 202;" xml:space="preserve">
<style type="text/css">
	.st0{clip-path:url(#SVGID_00000122695707476733934270000013844403956607519931_);}
	.st1{fill:none;stroke:#231F20;stroke-width:0.5;stroke-linecap:round;stroke-linejoin:round;stroke-miterlimit:10;}
	.st2{fill:none;stroke:#231F20;stroke-width:0.5;stroke-linecap:round;stroke-linejoin:round;}
	.st3{fill:#231F20;}
	.st4{font-family:'Arial-BoldMT';}
	.st5{font-size:4.6807px;}
	.st6{fill:none;stroke:#231F20;stroke-width:0.5471;stroke-linecap:round;stroke-linejoin:round;stroke-miterlimit:10;}
	.st7{fill:none;stroke:#231F20;stroke-width:0.5101;stroke-linecap:round;stroke-linejoin:round;stroke-miterlimit:10;}
	.st8{fill:none;stroke:#231F20;stroke-width:0.5507;stroke-linecap:round;stroke-linejoin:round;stroke-miterlimit:10;}
	
		.st9{clip-path:url(#SVGID_00000122695707476733934270000013844403956607519931_);fill:none;stroke:#231F20;stroke-width:0.5;stroke-linecap:round;stroke-linejoin:round;stroke-miterlimit:10;}
	.st10{fill:none;stroke:#231F20;stroke-width:0.5;stroke-miterlimit:10;}
	.st11{fill:#231F20;stroke:#FFFFFF;stroke-width:0.7362;stroke-linecap:round;stroke-linejoin:round;stroke-miterlimit:10;}
	.st12{fill:none;stroke:#FFFFFF;stroke-width:3;stroke-linecap:round;stroke-linejoin:round;stroke-miterlimit:10;}
	.st13{fill:#231F20;stroke:#FFFFFF;stroke-width:0.7907;stroke-linecap:round;stroke-linejoin:round;stroke-miterlimit:10;}
	.st14{fill:#231F20;stroke:#FFFFFF;stroke-linecap:round;stroke-linejoin:round;stroke-miterlimit:10;}
	.st15{fill-rule:evenodd;clip-rule:evenodd;stroke:#FFFFFF;stroke-width:0.8;stroke-miterlimit:10;}
	.st16{fill:#FFFFFF;}
	.st17{font-family:'Helvetica';}
	.st18{font-size:16.7027px;}
</style>
<g>
	<defs>
		<path id="SVGID_1_" d="M108.4,68.1l-8.1,0.1l0.3-1.2l-0.1,0c-3.6-0.6-5.7-2.4-6.9-4c-1.2-1.6-3.9-3.3-3.9-3.3l0.8-3
			c0,0,1.4-0.6,2.8-1.2L68.9,43.2l0.8-2.3l-4.9-2.3l11.9-2.4l-20.8-8H-0.9v159.6h307.2v-130l-19.7,13.6l-63.5,11
			c0,0-1.7,0.5-1.7-1.4l0.3-2.3l-36.8,6.6l-1,3.9l-7.2,1.2c0,0-1.2,0-1.7-1.2c-0.5-1.2-1.5-1.8-2.2-1.6c-0.7,0.2-6.2,1.2-6.2,1.2
			l0,0l-4.3,0.7l-3.7-1.8l-1.3-2.9l-31-15.4c-0.2,0.4-0.8,1.1-2.5,1.1l-1-0.2l-6.3,0.2c0,0-1.8,0-3.1-0.5
			C112.2,69.5,108.4,68.1,108.4,68.1"/>
	</defs>
	<clipPath id="SVGID_00000028285891662643723250000001345417698470763167_">
		<use xlink:href="#SVGID_1_"  style="overflow:visible;"/>
	</clipPath>
	<g style="clip-path:url(#SVGID_00000028285891662643723250000001345417698470763167_);">
		<g>
			<path class="st1" d="M62.7,84.5c0,0,0-0.6,0-1.6c0-1.1,1.2-1.6,1.2-1.6s7-3.7,7.4-3.8s0.6-0.2,1.1-0.1s0.8-0.2,0.9-0.6
				c0.1-0.4,1.2-0.9,1.2-0.9l111.7-55.9c0,0,0.7-0.5,1.3-0.1c0.6,0.5,2.1,1.4,2.1,1.4s0.3,0.2,0.6-0.1c0.2-0.2,0.6-0.7,0.4-1.2
				l-0.7-0.5c0,0-0.2-0.6,0-1s0.5-0.8,0.9-0.8s3.1-0.2,3.1-0.2s0.7,0.2,0.8,0.6l0,3.3c0,0,0.1,0.5-0.4,0.8s-44.9,22.4-44.9,22.4"/>
			<path class="st1" d="M161.9,86.7c0,0-0.1-7.2,0-8.8c0.1-1.6,1.6-2.1,1.6-2.1l24.9-12.6l-6.9-3.5l6.1-3.1c0,0-22.9-11.4-23.9-12
				s-2.2,0-2.2,0l-6.1,3l-7.1-3.5L125,55.9c0,0-2.2,0.9-2.2,2.5l0.1,1.1"/>
			<path class="st1" d="M163.1,75.6l-6.6-3.4l-6.8,3.4c0,0-1.1,0.6-1.1,1.8s0,3.1,0,3.1"/>
			<path class="st1" d="M124,56.6l6.6,3.3l-5.8,3.1l0,0.5c0,0-0.8,0.7-0.8,1.9c0,1,0.1,6.9,0.1,6.9"/>
			<line class="st1" x1="125.2" y1="62.9" x2="150" y2="75.4"/>
			<polyline class="st1" points="178.2,81.7 189.6,76 189.6,74.8 195.8,71.7 			"/>
			<path class="st1" d="M184.9,61.2c0.5-0.4,1.4-0.6,2.4-0.6c1.7,0,3,0.7,3,1.5c0,0.6-0.6,1.1-1.6,1.3"/>
			<path class="st1" d="M189.2,65.1c0.7-0.3,1.1-0.7,1.1-1.2v-1.6"/>
			<path class="st1" d="M189.1,73.5v-9.1c0,0,0.1-1-0.9-1.1"/>
			<path class="st1" d="M189.7,64.8c0.3,0.2,0.5,0.4,0.5,0.7c0,0.4-0.4,0.8-1.1,1"/>
			<path class="st1" d="M189.7,66.7c0.3,0.2,0.5,0.4,0.5,0.7c0,0.4-0.4,0.8-1.1,1"/>
			<path class="st1" d="M189.7,68.5c0.3,0.2,0.5,0.4,0.5,0.7c0,0.4-0.4,0.8-1.1,1"/>
			<g>
				<ellipse class="st1" cx="154.7" cy="76.2" rx="3" ry="1.5"/>
				<path class="st1" d="M151.7,76.2v1.7c0,0.8,1.4,1.5,3,1.5s3-0.7,3-1.5v-1.6"/>
				<path class="st1" d="M157.3,78.8c0.3,0.3,0.4,0.6,0.4,0.9c-0.1,0.8-1.6,1.3-3.2,1.1c-1.7-0.2-2.9-1.1-2.8-1.9
					c0-0.1,0.1-0.2,0.1-0.4"/>
				<path class="st1" d="M157.7,85.5c0,0.1,0.1,0.2,0.1,0.3c0,0.8-1.4,1.5-3,1.5s-3-0.7-3-1.5c0-0.2,0.1-0.4,0.3-0.6"/>
				<path class="st1" d="M157.1,84.2c0.4,0.3,0.7,0.8,0.6,1.1c-0.1,0.8-1.6,1.3-3.2,1c-1.7-0.3-2.9-1.2-2.7-2
					c0.1-0.3,0.3-0.6,0.7-0.8"/>
				<path class="st1" d="M157.2,82.3c0.4,0.3,0.6,0.7,0.5,1.1c-0.1,0.8-1.6,1.3-3.2,1c-1.7-0.3-2.9-1.2-2.7-2c0-0.3,0.2-0.5,0.5-0.7
					"/>
				<path class="st1" d="M157.1,80.5c0.4,0.3,0.6,0.7,0.6,1.1c-0.1,0.8-1.6,1.3-3.2,1c-1.7-0.3-2.9-1.2-2.7-2c0-0.3,0.2-0.5,0.5-0.7
					"/>
			</g>
			<g>
				<path class="st1" d="M127.7,98.2c-1.1,0-2-0.4-2-1s0.9-1,2-1s2,0.4,2,1"/>
				<path class="st1" d="M125.7,97.3v1.1c0,0.5,0.9,1,2,1"/>
				<path class="st1" d="M127.6,100c-0.8-0.1-1.5-0.5-1.4-0.9"/>
				<path class="st1" d="M127.7,102.7c-0.8,0-1.5-0.3-1.5-0.7c0-0.1,0.1-0.2,0.1-0.3"/>
				<path class="st1" d="M127.5,101.8c-0.8-0.1-1.4-0.6-1.4-1c0-0.1,0.1-0.2,0.3-0.3"/>
				<path class="st1" d="M127.5,100.9c-0.8-0.1-1.4-0.6-1.4-1c0-0.1,0.1-0.2,0.3-0.3"/>
			</g>
			<g>
				<ellipse class="st1" cx="124.5" cy="61" rx="3" ry="1.5"/>
				<path class="st1" d="M121.4,61v1.7c0,0.8,1.3,1.5,2.8,1.5"/>
				<ellipse class="st1" cx="156.9" cy="44.7" rx="3" ry="1.5"/>
				<line class="st1" x1="153.8" y1="44.7" x2="153.8" y2="46.4"/>
				<path class="st1" d="M124.1,65.5c-1.6-0.3-2.8-1.1-2.7-1.9c0-0.1,0.1-0.2,0.1-0.4"/>
				<path class="st1" d="M124.1,72.1c-1.5-0.1-2.7-0.7-2.7-1.5c0-0.2,0.1-0.4,0.3-0.6"/>
				<path class="st1" d="M124.2,71.1c-1.7-0.3-2.9-1.2-2.7-2c0.1-0.3,0.3-0.6,0.7-0.8"/>
				<path class="st1" d="M124.2,69.2c-1.7-0.3-2.9-1.2-2.7-2c0-0.3,0.2-0.5,0.5-0.7"/>
				<path class="st1" d="M124.2,67.4c-1.7-0.3-2.9-1.2-2.7-2c0-0.3,0.2-0.5,0.5-0.7"/>
			</g>
			<polygon class="st1" points="104.9,82.1 123.4,91.5 127.6,89.5 131.3,91.5 150.7,81.7 132,72.5 128.1,74.4 124.2,72.4 			"/>
			<line class="st1" x1="104.9" y1="82.1" x2="104.8" y2="90.6"/>
			<line class="st1" x1="150.7" y1="81.7" x2="150.8" y2="87.8"/>
			<line class="st1" x1="123.4" y1="91.5" x2="123.5" y2="101.5"/>
			<line class="st1" x1="131.3" y1="91.5" x2="131.4" y2="96.8"/>
			<line class="st1" x1="127.6" y1="89.5" x2="127.5" y2="96.2"/>
			<polyline class="st1" points="88.2,86.9 92.5,84.8 105.9,91.5 101.6,93.6 			"/>
			<line class="st1" x1="105.9" y1="95.9" x2="105.9" y2="91.5"/>
			<line class="st1" x1="156.5" y1="72.3" x2="156.5" y2="74.8"/>
			<line class="st1" x1="157.4" y1="84.5" x2="162" y2="86.8"/>
			<line class="st1" x1="178.3" y1="41" x2="190.6" y2="34.8"/>
			<line class="st1" x1="194.1" y1="22.3" x2="194.1" y2="31.4"/>
			<polyline class="st1" points="222.7,35.5 203.8,26.1 198.1,29 197.6,29.7 190.6,33.3 190.6,39.8 196.3,42.6 197,42.3 			"/>
			<polyline class="st1" points="196.3,42.4 196.3,36.1 203.4,32.4 204.6,32.2 210.2,29.5 			"/>
			<polyline class="st1" points="204.6,32.2 204.3,32.9 197.1,36.5 197.1,43.1 202.8,45.9 203.6,45.5 			"/>
			<polyline class="st1" points="216.9,32.6 211.1,35.7 210,35.7 202.8,39.3 202.8,45.8 			"/>
			<line class="st1" x1="197.3" y1="36.5" x2="202.8" y2="39.3"/>
			<line class="st1" x1="190.7" y1="33.2" x2="196.1" y2="36"/>
			<polyline class="st1" points="211.1,35.7 210.8,36.2 203.8,39.8 203.7,46.4 209.2,49 			"/>
			<line class="st1" x1="203.8" y1="39.8" x2="209.1" y2="42.5"/>
			<polyline class="st1" points="209.4,51.1 209.4,42.6 223.9,35.3 229,37.8 214.4,45.1 214.4,53.3 			"/>
			<line class="st1" x1="209.4" y1="42.6" x2="214.4" y2="45.1"/>
			<path class="st1" d="M229,37.8c0,0,0.8,0.3-0.8,3.6"/>
			<polyline class="st1" points="236.5,42.4 231.4,39.9 225.6,42.7 225.4,43.4 218.1,47 218.1,51.5 			"/>
			<polyline class="st1" points="244.1,48.6 244,44.5 238.4,41.8 224.2,48.8 224.1,53.8 			"/>
			<polyline class="st1" points="229.7,56.8 229.7,51.6 244,44.5 			"/>
			<line class="st1" x1="218.3" y1="47.1" x2="224.2" y2="49.9"/>
			<line class="st1" x1="224.2" y1="48.8" x2="229.7" y2="51.6"/>
			<line class="st1" x1="208.8" y1="50.9" x2="214.1" y2="53.7"/>
			<polygon class="st1" points="200.6,60.5 218.7,51.4 236.7,60.4 218.7,69.6 			"/>
			<polyline class="st1" points="200.6,60.5 200.7,72.3 210,77 			"/>
			<line class="st1" x1="218.7" y1="69.6" x2="218.7" y2="72.8"/>
			<line class="st1" x1="236.9" y1="60.4" x2="236.9" y2="65.1"/>
			<polyline class="st1" points="212.6,54.5 186.9,41.5 181.9,44.1 			"/>
			<polyline class="st1" points="207.2,56.8 179.3,43 169.9,47.7 			"/>
			<polyline class="st1" points="266,61.2 266.1,57.2 246.4,47.4 240.6,50.3 240.3,51 233.2,54.5 233.2,58.3 			"/>
			<polyline class="st1" points="237,63.1 238.7,63.8 238.8,57.2 233.2,54.5 			"/>
			<polyline class="st1" points="252.9,50.7 247.4,53.5 246,53.6 238.8,57.2 			"/>
			<polyline class="st1" points="247.2,53.5 246.9,54.1 239.7,57.8 239.7,63.8 			"/>
			<polyline class="st1" points="259.4,53.9 253.7,56.8 252.4,56.9 245.3,60.6 239.7,57.8 			"/>
			<line class="st1" x1="245.3" y1="62.6" x2="245.3" y2="60.6"/>
			<polyline class="st1" points="246.2,63.3 246.2,61 253,57.7 253.7,56.8 			"/>
			<polyline class="st1" points="246.2,61 251.9,63.8 259,60.2 260.3,60 265.7,57.2 			"/>
			<polyline class="st1" points="280.4,69 280.4,67.8 268.2,61.3 262.5,61.4 257.4,63.8 254.8,62.4 			"/>
			<path class="st1" d="M280.4,67.8l-21.2,11l-0.8-0.5l-10.8,5.4l-1.2-0.7c0,0-0.5-0.3-1.4,0.2c-1,0.6-10.8,5.4-10.8,5.4
				s-1.1,0.4-0.2,0.8c0.9,0.4,0.8,0.5,0.8,0.5s0.4,0.1,0.3,1.1l0,0.8"/>
			<path class="st1" d="M251.9,63.8l-15,7.7c0,0-0.6,0.5-1,1.4c-0.4,0.9-2,3.7-2,3.7s-0.1,0.3-1.2,0.9c-1,0.6-32.8,16.5-32.8,16.5
				l0.1,1.2c0,0,3.5,1.7,4.8,2.6c1.3,0.9,2.7-0.2,2.7-0.2l66.3-33.4"/>
			<line class="st1" x1="21.5" y1="106.4" x2="53.7" y2="90.3"/>
			<line class="st1" x1="30.2" y1="118.9" x2="54.6" y2="106.9"/>
			<polygon class="st1" points="107.9,104.6 115.5,100.9 72,79.1 64.4,82.8 			"/>
			<path class="st1" d="M64.2,84.6c0,0,0.4-0.8,1.3-0.3c0.9,0.5,41.5,20.8,41.5,20.8s1,0.5,1,2.1c0,1.7,0,14.5,0,14.5
				s-0.1,1.6-1.2,1.1c-1.1-0.5-41.5-20.7-41.5-20.7"/>
			<line class="st1" x1="140.9" y1="141.2" x2="64.6" y2="103.1"/>
			<line class="st1" x1="112" y1="155.7" x2="149.3" y2="137.2"/>
			<line class="st1" x1="149.9" y1="138.3" x2="112.2" y2="157.3"/>
			<line class="st1" x1="149.7" y1="153.5" x2="112.1" y2="172.5"/>
			<polyline class="st1" points="148,154.4 149.9,155.1 159.3,150.4 160.1,150.7 168.7,146.3 169.8,144.4 172.1,143.3 174.5,143.5 
				291.5,85 291.5,78.8 289.2,75.5 289.2,70.9 			"/>
			<path class="st1" d="M169.6,144.6v-4.9c0,0,0.4-2.9,2.4-3.6c0,0,1.7-0.5,1.8,1.1v6"/>
			<path class="st1" d="M150,154.9v-17.1c0,0-0.5-1.1-2.1-1.3v1.2"/>
			<path class="st1" d="M150,137.8l9.6-4.8c0,0-0.5-1.1-2.1-1.3l-9.6,4.8"/>
			<path class="st1" d="M160.5,150.4l-0.1-17.4l7.7-3.9c0,0,1.3-0.9,2.2-0.2c1,0.8,1.6,1.4,3,0.8s1.4-0.7,1.4-0.7"/>
			<path class="st1" d="M174.1,128c0.8,0.4,0.8,1.7,0.8,1.7v2.4c0,0,0.1,2.3,2.6,1.3c2.3-1,2.5-3.8,2.5-3.8s0-2.1,0-3
				c0-0.8-0.6-1.3-0.6-1.3c0-1.1-0.9-0.7-0.9-0.7l-3.6,1.9c0,0-0.6,0.3-0.7,1.4"/>
			<line class="st1" x1="160.5" y1="149" x2="160.5" y2="130.1"/>
			<path class="st1" d="M174.3,126.6"/>
			<path class="st1" d="M159.6,132.9v-2.7l8.6-4.1l0.6-1.1l67.4-33.6c0,0,0.7-0.1,0.8,0.5c0.1,0.6,0.3,4.5,0.3,4.5s0.9,0.6,0.8,1.5
				l11.6-5.7c0,0,0.6-0.7-0.1-1.6l0.1-4.9c0,0,0.2-1.1,1-1.5l32.8-16.3l2.7,1.8c0,0,1.2-0.1,0.9-1.4l-0.7-0.6c0,0-0.4-1.2,1-1.8
				l2.8-0.1c0,0,0.7,0,0.8,0.6l0,3.5l-41.2,20.7"/>
			<line class="st1" x1="180.2" y1="126.4" x2="237.7" y2="97.6"/>
			<line class="st1" x1="106" y1="92.9" x2="127.7" y2="103.7"/>
			<path class="st1" d="M127.7,104.8"/>
			<path class="st1" d="M106.1,94.2"/>
			<line class="st1" x1="123.9" y1="101.7" x2="126.1" y2="100.6"/>
			<line class="st1" x1="133.6" y1="107.2" x2="139.1" y2="104.4"/>
			<line class="st1" x1="127.2" y1="110.5" x2="128.7" y2="109.7"/>
			<path class="st1" d="M147.3,132.4"/>
			<polyline class="st1" points="157.5,131.6 157.4,129.2 159.9,127.9 161.9,128.9 			"/>
			<line class="st1" x1="159.6" y1="130.3" x2="157.4" y2="129.2"/>
			<line class="st1" x1="86.7" y1="86.4" x2="116.5" y2="71.7"/>
			<polyline class="st1" points="187.6,56.6 188.2,57 188.2,60.4 			"/>
			<polyline class="st1" points="190.2,67.4 195.8,70.1 175.5,80.4 			"/>
			<path class="st1" d="M196.1,72.1"/>
			<polygon class="st1" points="199.2,70.6 196.1,72.2 196.1,67 199.2,65.4 			"/>
			<line class="st1" x1="196.1" y1="67" x2="190.6" y2="64.3"/>
			<polyline class="st1" points="188.3,59.1 197.8,63.9 200.5,62.6 			"/>
			<polyline class="st1" points="188.3,60.4 197.8,65.2 200.5,63.8 			"/>
			<path class="st1" d="M52.9,90.1v-0.8l10.3-4.9l1.4,0.6c0,0,0.5,0.3,0.5,1c0,0.6,0,2,0,2L56,92.8l-0.9-0.1v-2c0,0-0.1-1-2.2-1.3"
				/>
			<path class="st1" d="M53.8,107.4l1.3,0.6l10-5.1l-0.1-2l-0.9-0.3l-8.3,4.1c0,0-1,0.5-0.9,1.3l0,1.7"/>
			<path class="st1" d="M10.4,107.1l5.5-2.7c0,0,9.3,1.1,13.7,13.5c0,0,3.8,10.4-2.9,16l-6.2,3c0,0-2,0.3-4.5-0.9l-5.4-2.5
				c0,0-0.8-0.9-0.8-1.9c0-1,0.1-3,0.1-3"/>
			<path class="st1" d="M9.9,112.9L9.8,108c0,0,0.3-1.1,2.4-0.9c0,0,9.4,3.5,12.1,13.1c0,0,4.9,10.7-2.2,15.9"/>
			<path class="st1" d="M11.7,118.5V113c0,0,0.5-3.5,3.4-2.8c0,0,7.1,2.5,9.4,15.2c0,0,1.5,8.2-4.8,10.1c0,0-1.7,0.6-3.8-0.2
				s-5.8-3-5.8-3l5.4-2.7"/>
			<line class="st1" x1="16.8" y1="111.2" x2="16.8" y2="116"/>
			<path class="st1" d="M10.6,119.3l8.2-4.1c0,0,1.2,0.3,1.1,1.6l-1.1,3.8l-5,2.7l-1.7-3.1C12,120.3,11.5,119.1,10.6,119.3z"/>
			<path class="st1" d="M10.6,119.3c0,0-1.7,5.1,0.7,9.9l1.3-0.6c0,0,0-3.3,3-4.2c0,0,1.8-0.6,1.7,1.8l1.3-0.5c0,0,1-3.4,1-7"/>
			<path class="st1" d="M11.6,113.8c0,0,0.5,0.3-2.1-0.8c0,0-4.5-0.2-5.9,6.3v8c0,0,0,3,2.9,3.2c0,0,2.5,0.1,4-2.7"/>
			<path class="st1" d="M15.5,124.5l0.2,5.3c0,0,0.4,0.6,0.9,0.8c0.5,0.2,3.8,1.8,3.8,1.8s1.8,0.6,2.6,0.5"/>
			<path class="st1" d="M11.7,116.3c0,0-1.1,0.2-2.4-0.8c0,0-2.8,0.6-3.3,3.8l0,7.6c0,0,0.2,1.6,1.5,1.1c1.3-0.5,1.5-1.1,1.5-1.1
				l1-1.3"/>
			<path class="st1" d="M24,108.6l11-5.5c0,0,1.4-0.5,1.5,1s0,7.1,0,7.1s0.1,1.1-1.2,2.1l-5.9,2.9"/>
			<path class="st1" d="M46.7,98.2l-0.9,0.4c0-1.2-1-1-1-1l-6.5,3.2c-1.1,0.8-0.9,2-0.9,2l0,8.8c0,0,0.3,1.1,1.3,0.6
				c1-0.5,6.2-3,6.2-3s1.1-0.7,0.9-2l16.5-8.2v-0.8c0,0,2.9-1,3.2-2.2l0.3-1l0-1.7c0,0-0.2-1.8-1.4-3.3v-1.6"/>
			<path class="st1" d="M60.3,100.1v-0.8c0,0,2.9-1,3.2-2.2l0.3-1l0-1.7c0,0-0.2-1.8-1.4-3.3v-1.6"/>
			<polyline class="st1" points="46.9,106.8 46.9,97.2 56.3,92.7 			"/>
			<line class="st1" x1="53.3" y1="103.4" x2="53.3" y2="94.1"/>
			<polyline class="st1" points="115,105.3 119.8,102.9 119.9,107.1 			"/>
			<polyline class="st1" points="114.4,100.2 114.9,100 119.8,102.6 			"/>
			<polyline class="st1" points="120,103.6 127.7,107.5 128.9,106.9 			"/>
			<path class="st1" d="M133.6,106c0,0.7-1,1.2-2.3,1.2s-2.3-0.5-2.3-1.2"/>
			<path class="st1" d="M131.3,113c1.3,0,2.3-0.5,2.3-1.2V106"/>
			<line class="st1" x1="128.9" y1="106" x2="128.9" y2="111.9"/>
			<path class="st1" d="M122.3,73.2"/>
			<line class="st1" x1="121.2" y1="67.8" x2="116.4" y2="70.3"/>
			<polyline class="st1" points="116.4,70.3 116.4,71.8 120.9,74.1 			"/>
			<path class="st1" d="M60.7,90.8c0,0,3,2.7,0.1,8.2"/>
			<line class="st1" x1="64.2" y1="100.5" x2="64.2" y2="97.4"/>
			<g>
				<polygon class="st1" points="82.5,102.3 69.2,95.8 69.2,101.1 82.6,107.8 				"/>
				<polyline class="st1" points="82.6,107.8 84,107.2 83.9,101.7 70.5,95.1 69.2,95.8 				"/>
				<line class="st1" x1="69.2" y1="101.1" x2="74.5" y2="98.5"/>
				<polyline class="st1" points="75.9,99.2 75.9,104.3 81,101.7 				"/>
				<line class="st1" x1="82.5" y1="102.3" x2="83.9" y2="101.7"/>
			</g>
			<g>
				<polygon class="st1" points="94.9,107.8 85,102.8 85,109.2 95,114.3 				"/>
				<polyline class="st1" points="95,114.3 96.6,113.2 96.5,106.7 86.7,101.8 85,102.8 				"/>
				<line class="st1" x1="85" y1="109" x2="89.6" y2="106.9"/>
				<polyline class="st1" points="89.8,105.4 89.8,111.6 94.4,109.5 				"/>
				<line class="st1" x1="94.9" y1="107.8" x2="96.2" y2="107.1"/>
			</g>
			<g>
				<polygon class="st1" points="102.7,111.7 97.6,109.2 97.6,115.5 102.8,118.2 				"/>
				<polyline class="st1" points="102.8,118.2 104.5,117.2 104.4,110.7 99.3,108.1 97.6,109.2 				"/>
				<path class="st1" d="M97.5,110.9"/>
				<line class="st1" x1="97.6" y1="115.5" x2="102.3" y2="113.5"/>
				<line class="st1" x1="102.7" y1="111.7" x2="104" y2="111.1"/>
			</g>
			<path class="st1" d="M115.9,157.9l14.2-7c0,0,1.3-0.4,1.3,0.8c0,1.3,0.1,7,0.1,7s-0.4,1.6-1.3,2.2s-14.4,7.2-14.4,7.2
				s-1.2,0-1.2-1.3s0.1-6.7,0.1-6.7S114.8,158.3,115.9,157.9z"/>
			<path class="st1" d="M141.7,145.3l6.3-3.1c0,0,0.8-0.7,0.8,0.2c0.1,0.8,0,8.3,0,8.3s0.1,0.5-0.6,0.9c-0.7,0.4-6.5,3.3-6.5,3.3
				s-0.7,0-0.7-0.8s0.1-7.9,0.1-7.9S141.2,145.3,141.7,145.3z"/>
			<ellipse transform="matrix(0.498 -0.8672 0.8672 0.498 -62.1626 192.5461)" class="st1" cx="135.2" cy="150" rx="2" ry="1.4"/>
			<ellipse transform="matrix(0.498 -0.8672 0.8672 0.498 -35.3768 209.2907)" class="st1" cx="163.1" cy="135.2" rx="2" ry="1.4"/>
			<ellipse transform="matrix(0.498 -0.8672 0.8672 0.498 -36.7338 213.9208)" class="st1" cx="166.4" cy="138.7" rx="2" ry="1.4"/>
			<ellipse transform="matrix(0.498 -0.8672 0.8672 0.498 -44.2898 214.7734)" class="st1" cx="163.4" cy="145.6" rx="2" ry="1.4"/>
			<ellipse transform="matrix(0.498 -0.8672 0.8672 0.498 -31.5686 223.7496)" class="st1" cx="177.5" cy="139.1" rx="2" ry="1.4"/>
			
				<ellipse transform="matrix(0.498 -0.8672 0.8672 0.498 -46.4265 207.0267)" class="st1" cx="155.6" cy="143.6" rx="1.3" ry="0.9"/>
			<ellipse transform="matrix(0.498 -0.8672 0.8672 0.498 -67.8884 195.8607)" class="st1" cx="135.2" cy="156.6" rx="2" ry="1.4"/>
			<line class="st1" x1="107" y1="156" x2="111.8" y2="153.6"/>
			<path class="st1" d="M102.6,148.8c1.7-0.3,3,0.1,3,0.1s3.1,1.2,4.6,2.1c1.7,1,1.7,2.3,1.7,2.3v23.3c0,0,0.3,0.9-0.7,1.4
				c-1.2,0.6-4.7,2.4-4.7,2.4s-1.3,0.4-3.3-0.5c-1.9-0.9-9.4-4.8-12.1-17.3c0,0-1.7-10,5.9-12.4c0,0,4.9-0.5,5-2.1
				c0,0-0.5-0.9-5.3,2"/>
			<path class="st1" d="M106.8,180v-22.9c0,0,0.2-2.3-1-3.1l-5.7-2.6c0,0-1.7-0.6-4.4,0.4"/>
			<path class="st1" d="M98,174.6c0,0-4.4-3.8-5.8-12.6c0,0-0.9-8.7,5-9.9c0,0,2.1-0.9,8.4,3v24.3c0,0-1.6,0.2-4-1.6"/>
			<path class="st1" d="M105.4,160.8l-1.3-0.6c0,0-3.5-0.4-5.5,4.7c0,0-0.5,2.5-0.5,3.9s0.1,6.6,0.1,6.6s1.3,3.7,4.7,2.1
				c0,0,2.5-1.7,2.7-3.1"/>
			<path class="st1" d="M98.7,152.2c0,0-2.9,5.3-0.1,12.6"/>
			<path class="st1" d="M105.5,162l-1.2-0.7c0,0-3.4,0.3-4.7,5.4v8.2c0,0-0.3,3.6,4.1,1.8"/>
			
				<ellipse transform="matrix(0.4022 -0.9156 0.9156 0.4022 -69.6512 98.7798)" class="st1" cx="40.8" cy="102.7" rx="1.6" ry="1.2"/>
			
				<ellipse transform="matrix(0.4022 -0.9156 0.9156 0.4022 -75.0532 102.3072)" class="st1" cx="40.8" cy="108.6" rx="1.6" ry="1.2"/>
			<ellipse class="st1" cx="78.4" cy="85.6" rx="2.1" ry="1"/>
			<ellipse class="st1" cx="102.2" cy="97.5" rx="2.1" ry="1"/>
			<path class="st1" d="M80.8,98.3V96c0.1-0.9-0.8-1.5-0.8-1.5l-8.7-4.4c-1-0.4-0.9,0.7-0.9,0.7v2.4c0,0-0.1,0.7,0.7,1.1l9,4.6
				C80.1,98.8,80.8,99.2,80.8,98.3z"/>
			<path class="st1" d="M70.7,90l0.9-0.5c0,0,0.4-0.2,0.8,0l8.6,4.3c0,0,0.9,0.6,0.8,1.5v2.3c0,0.6-0.2,0.7-0.2,0.7l-1.2,0.6"/>
			<path class="st1" d="M84.8,98.8"/>
			<path class="st1" d="M234.8,90l-10.6,5.4c0,0,1.4,0.2,1.2,1.3"/>
			<polyline class="st1" points="224.9,95.9 221,97.9 220.3,97.5 206,104.7 206,106.4 			"/>
			<path class="st1" d="M206,104.7l-14.1-6.8l1.5-2.2l3.7-1.8c0,0,0.4-0.3,1,0s1.9,0.9,1.9,0.9"/>
			<line class="st1" x1="123" y1="57.3" x2="76.2" y2="80.8"/>
			<path class="st2" d="M282.3,74.3c0,0,1.2,0.9-0.1,2l-0.6,0.3l-12.9,6.4c0,0-0.5,0.4-0.5,1s0.1,3.7,0.1,3.7s-0.1,0.7,0.7,0.4
				c0.8-0.4,13.1-6.5,13.1-6.5s0.9-0.3,0.9,0.6s0,1.6,0,1.6s0.5,0.7,1-0.3c0,0,0.9-0.9-0.8-2.3c-1.7-1.4-1.3-1.4-1.3-1.4l0.1-3.2"/>
			<line class="st2" x1="284.3" y1="82.7" x2="291.4" y2="79.1"/>
			<path class="st2" d="M280.5,77.2l0,1.3c0,0,0.2,0.4-0.5,0.8c-0.2,0.1-0.5,0.2-0.7,0.3c-0.4,0.2-0.7,0.3-0.7,0.3l0,1.5l1.6-0.8"/>
			<path class="st2" d="M279.4,79.7L280,80c0,0,0.6,0.3,0.4,1.2l0,1.1"/>
			<path class="st1" d="M235.8,91.6c0,0,0-1.2,1-1.7c1-0.5,8.9-4.3,8.9-4.3s0.4-0.5,1.5,0.2"/>
			<path class="st1" d="M236.8,91.7c0,0,0-0.9,1.3-1.6s8-3.9,8-3.9s0.9-0.4,1.5-0.1"/>
			<path class="st1" d="M237.3,96.1l10.2-5.1c0,0,0.8-0.3,0.1-1.1l0-6.1"/>
			<line class="st1" x1="192.3" y1="98.1" x2="192.4" y2="103.2"/>
			<path class="st1" d="M192.1,102.1c0,0-0.9,1,0.6,1.6c0.4,0.1,0.9,0.4,1.5,0.7c0.8,0.4,1.7,0.8,2.5,1.2"/>
			<line class="st1" x1="139.3" y1="104.6" x2="139.3" y2="107.6"/>
			<polyline class="st1" points="139.2,107.2 138.5,107.6 140.9,108.8 			"/>
			<path class="st1" d="M115.5,100.9c0,0,0.9,0.5,0.9,1c0,0.8,0,0.9,0,0.9s0.1,0.8-0.9,1.4c-0.2,0.1-0.6,0.3-1,0.5"/>
			<path class="st1" d="M108.6,104.4c0,0,0.6,0.2,0.6,0.7"/>
			<polyline class="st1" points="119.8,103.9 118.4,104.7 118.4,106.4 			"/>
			<path class="st1" d="M144,96.8v-4c0,0-0.1-1.7,1.3-1.6c0,0,0.9,0.4,0.9,2.5"/>
			<path class="st1" d="M148.5,89.8c0,0,1,0.1,1,2.2"/>
			<path class="st1" d="M152.7,90.5c0-2-1-2.2-1-2.2v5.6"/>
			<line class="st1" x1="144.8" y1="91.2" x2="153.3" y2="87.2"/>
			<line class="st1" x1="148.5" y1="89.8" x2="148.5" y2="92.7"/>
			<path class="st1" d="M155.7,87.4c0.2,0.3,0.3,0.8,0.3,1.6"/>
			<line class="st1" x1="155" y1="89.5" x2="155" y2="87.5"/>
			<path class="st1" d="M192.3,99.8c-1.1-0.1-1.9-0.5-1.9-1v-1.3"/>
			<g>
				<polyline class="st1" points="203.6,81.9 203.6,80.5 201.5,81.5 201.5,87.8 200.4,87.3 200.4,88.3 				"/>
				<polyline class="st1" points="202,88.2 203,88.6 203,82.4 205.1,81.3 205.1,82.7 				"/>
				<polyline class="st1" points="203.5,89 204.5,89.5 204.5,83.2 206.6,82.2 206.6,83.5 				"/>
				<polyline class="st1" points="205.1,89.9 206.1,90.3 206.1,84 208.2,83 208.2,84.4 				"/>
				<polyline class="st1" points="207.6,90.1 207.6,84.9 209.7,83.9 209.7,85.3 				"/>
				<polyline class="st1" points="209.2,89.4 209.2,85.7 211.3,84.7 211.3,88.2 				"/>
			</g>
			<g>
				<polyline class="st1" points="204.4,81.7 204.4,80 206.5,79 206.5,80.4 				"/>
				<polyline class="st1" points="205.9,82.5 205.9,80.9 208,79.8 208,81.2 				"/>
				<polyline class="st1" points="207.4,83.4 207.4,81.7 209.5,80.7 209.5,82.1 				"/>
				<polyline class="st1" points="209,84.2 209,82.6 211.1,81.5 211.1,82.9 				"/>
				<polyline class="st1" points="210.5,85.1 210.5,83.4 212.6,82.4 212.6,83.8 				"/>
				<polyline class="st1" points="212.1,87.9 212.1,84.2 214.2,83.2 214.2,86.7 				"/>
			</g>
			<g>
				<polyline class="st1" points="207.3,80.2 207.3,78.5 209.4,77.5 209.4,78.9 				"/>
				<polyline class="st1" points="208.8,81 208.8,79.4 210.9,78.4 210.9,79.7 				"/>
				<polyline class="st1" points="210.3,81.9 210.3,80.2 212.4,79.2 212.5,80.6 				"/>
				<polyline class="st1" points="211.9,82.7 211.9,81.1 214,80 214,81.5 				"/>
				<polyline class="st1" points="213.4,83.6 213.4,81.9 215.5,80.9 215.5,82.3 				"/>
				<polyline class="st1" points="215,86.4 215,82.8 217.1,81.7 217.1,85.2 				"/>
			</g>
			<g>
				<polyline class="st1" points="210.1,78.7 210.1,77 212.2,76 212.2,77.4 				"/>
				<polyline class="st1" points="211.7,79.5 211.7,77.9 213.8,76.9 213.8,78.2 				"/>
				<polyline class="st1" points="213.2,80.4 213.2,78.7 215.3,77.7 215.3,79.1 				"/>
				<polyline class="st1" points="214.7,81.2 214.7,79.6 216.8,78.6 216.9,80 				"/>
				<polyline class="st1" points="216.3,82.1 216.3,80.4 218.4,79.4 218.4,80.8 				"/>
				<polyline class="st1" points="217.8,84.9 217.8,81.3 219.9,80.2 219.9,83.7 				"/>
			</g>
			<g>
				<polyline class="st1" points="212.8,77.3 212.8,75.7 214.9,74.7 214.9,76 				"/>
				<polyline class="st1" points="214.4,78.2 214.4,76.5 216.5,75.5 216.5,76.9 				"/>
				<polyline class="st1" points="215.9,79 215.9,77.4 218,76.4 218,77.7 				"/>
				<polyline class="st1" points="217.5,79.9 217.5,78.2 219.6,77.2 219.6,78.6 				"/>
				<polyline class="st1" points="219,80.8 219,79.1 221.1,78.1 221.1,79.5 				"/>
				<polyline class="st1" points="220.5,83.6 220.5,79.9 222.6,78.9 222.6,82.3 				"/>
			</g>
			<g>
				<polyline class="st1" points="215.6,76 215.6,74.3 217.7,73.3 217.7,74.6 				"/>
				<polyline class="st1" points="217.2,76.8 217.2,75.1 219.3,74.1 219.3,75.5 				"/>
				<polyline class="st1" points="218.7,77.7 218.7,76 220.8,75 220.8,76.3 				"/>
				<polyline class="st1" points="220.2,78.5 220.2,76.8 222.3,75.8 222.3,77.2 				"/>
				<polyline class="st1" points="221.8,79.4 221.8,77.7 223.9,76.7 223.9,78.1 				"/>
				<polyline class="st1" points="223.3,82.2 223.3,78.5 225.4,77.5 225.4,81 				"/>
			</g>
			<g>
				<polyline class="st1" points="218.4,74.6 218.4,72.9 220.5,71.9 220.5,73.3 				"/>
				<polyline class="st1" points="219.9,75.4 219.9,73.7 222,72.7 222.1,74.1 				"/>
				<polyline class="st1" points="221.5,76.3 221.5,74.6 223.6,73.6 223.6,74.9 				"/>
				<polyline class="st1" points="223,77.1 223,75.4 225.1,74.4 225.1,75.8 				"/>
				<polyline class="st1" points="224.6,78 224.6,76.3 226.7,75.3 226.7,76.7 				"/>
				<polyline class="st1" points="226.1,80.8 226.1,77.1 228.2,76.1 228.2,79.6 				"/>
			</g>
			<g>
				<polyline class="st1" points="221.2,73.2 221.2,71.5 223.3,70.5 223.3,71.9 				"/>
				<polyline class="st1" points="222.7,74 222.7,72.4 224.8,71.3 224.8,72.7 				"/>
				<polyline class="st1" points="224.3,74.9 224.3,73.2 226.4,72.2 226.4,73.6 				"/>
				<polyline class="st1" points="225.8,75.7 225.8,74 227.9,73 227.9,74.4 				"/>
				<polyline class="st1" points="227.3,76.6 227.3,74.9 229.4,73.9 229.5,75.3 				"/>
				<polyline class="st1" points="228.9,79.4 228.9,75.7 231,74.7 231,78.2 				"/>
			</g>
			<g>
				<polyline class="st1" points="224,71.8 224,70.1 226.1,69.1 226.1,70.5 				"/>
				<polyline class="st1" points="225.5,72.6 225.5,71 227.6,70 227.6,71.3 				"/>
				<polyline class="st1" points="227,73.5 227,71.8 229.1,70.8 229.2,72.2 				"/>
				<polyline class="st1" points="228.6,74.3 228.6,72.7 230.7,71.6 230.7,73 				"/>
				<polyline class="st1" points="230.1,75.2 230.1,73.5 232.2,72.5 232.2,73.9 				"/>
				<polyline class="st1" points="231.7,78 231.7,74.4 233.8,73.3 233.8,76.8 				"/>
			</g>
			<g>
				<polyline class="st1" points="240.8,63.3 240.8,61.7 242.9,60.6 242.9,62 				"/>
				<polyline class="st1" points="242.3,64.2 242.3,62.5 244.4,61.5 244.4,62.8 				"/>
				<polyline class="st1" points="243.9,65 243.9,63.3 246,62.3 246,63.7 				"/>
				<polyline class="st1" points="245.4,65.9 245.4,64.2 247.5,63.2 247.5,64.6 				"/>
				<polyline class="st1" points="246.9,66.1 246.9,65 249,64 249,65.1 				"/>
			</g>
			<g>
				<polyline class="st1" points="231,69.7 231,68.3 233.1,67.3 233.1,68.6 				"/>
				<polyline class="st1" points="232.6,70.6 232.6,69.1 234.7,68.1 234.7,69.5 				"/>
				<polyline class="st1" points="234.1,71.4 234.1,70 236.2,68.9 236.2,70.4 				"/>
				<polyline class="st1" points="235.7,72.3 235.7,70.8 237.8,69.8 237.8,71 				"/>
			</g>
			<g>
				<polyline class="st1" points="233.9,68.3 233.9,66.8 236,65.8 236,67.2 				"/>
				<polyline class="st1" points="235.4,69.2 235.4,67.7 237.5,66.7 237.5,68.1 				"/>
				<polyline class="st1" points="237,70 237,68.5 239.1,67.5 239.1,69 				"/>
				<polyline class="st1" points="238.5,70.6 238.5,69.4 240.6,68.4 240.6,69.5 				"/>
			</g>
			<g>
				<polyline class="st1" points="236.7,66.8 236.7,65.4 238.8,64.4 238.8,65.7 				"/>
				<polyline class="st1" points="238.3,67.8 238.3,66.2 240.4,65.2 240.4,66.6 				"/>
				<polyline class="st1" points="239.8,68.6 239.8,67.1 241.9,66.1 241.9,67.5 				"/>
				<polyline class="st1" points="241.3,69.2 241.3,67.9 243.4,66.9 243.4,68.1 				"/>
			</g>
			<g>
				<polyline class="st1" points="239.6,65.4 239.6,64 241.7,62.9 241.7,64.3 				"/>
				<polyline class="st1" points="241.1,66.3 241.1,64.8 243.2,63.8 243.2,65.2 				"/>
				<polyline class="st1" points="242.6,67.1 242.6,65.6 244.7,64.6 244.7,66.1 				"/>
				<polyline class="st1" points="244.2,67.7 244.2,66.5 246.3,65.5 246.3,66.6 				"/>
			</g>
			<g>
				<polyline class="st1" points="226.7,70.4 226.7,68.7 228.8,67.7 228.9,69.1 				"/>
				<polyline class="st1" points="228.3,71.2 228.3,69.6 230.4,68.6 230.4,69.9 				"/>
				<polyline class="st1" points="229.8,72.1 229.8,70.4 231.9,69.4 231.9,70.8 				"/>
				<polyline class="st1" points="231.4,72.9 231.4,71.3 233.5,70.3 233.5,71.7 				"/>
				<polyline class="st1" points="232.9,73.8 232.9,72.1 235,71.1 235,72.5 				"/>
				<polyline class="st1" points="234.4,75.4 234.4,73 236.5,71.9 				"/>
			</g>
			<polyline class="st1" points="197.9,91.3 198.2,91.1 198.8,91.4 202,89.7 			"/>
			<line class="st1" x1="199.9" y1="93.9" x2="198.3" y2="93.2"/>
			<line class="st1" x1="202.4" y1="92.7" x2="199.4" y2="91.2"/>
			<polyline class="st1" points="200.4,90.5 200.4,88.3 205.9,91 			"/>
			
				<ellipse transform="matrix(0.2857 -0.9583 0.9583 0.2857 66.3333 298.2871)" class="st1" cx="233.3" cy="104.6" rx="1.9" ry="1.4"/>
			
				<ellipse transform="matrix(0.2857 -0.9583 0.9583 0.2857 92.3872 311.1614)" class="st1" cx="254.9" cy="93.6" rx="1.9" ry="1.4"/>
			<path class="st1" d="M272.5,63.5c0.2-0.8,0.8-1.5,1.7-1.7c1.2-0.2,2.3,0.5,2.6,1.6c0.2,0.8-0.1,1.5-0.7,2"/>
			<path class="st1" d="M270.9,62.5c0.2-0.8,0.8-1.5,1.7-1.7c0.8-0.2,1.7,0.1,2.1,0.7"/>
			<path class="st1" d="M269.1,61.6c0.2-0.8,0.8-1.5,1.7-1.7c0.8-0.2,1.7,0.1,2.1,0.7"/>
			<path class="st1" d="M267.4,60.6c0.2-0.8,0.8-1.5,1.7-1.7c0.8-0.2,1.7,0.1,2.1,0.7"/>
			<line class="st1" x1="259" y1="60.2" x2="259" y2="62.9"/>
			<line class="st1" x1="260.3" y1="60" x2="260.3" y2="62.2"/>
			<path class="st1" d="M170.5,46.9c-2.2-0.8-3-4.2-1.7-7.5c1.2-3.3,4-5.3,6.2-4.5c2.2,0.8,3,4.2,1.7,7.5c-0.2,0.5-0.4,1-0.7,1.4"/>
			<path class="st1" d="M168.4,37.6c1.3-2.3,3.5-3.7,5.3-3.2L175,35"/>
			<path class="st1" d="M169.5,46.4"/>
			<path class="st1" d="M173.6,34.2l0.9-0.5c0,0,3.4,0.7,3.7,4.8v4.7"/>
			<path class="st1" d="M164.6,45.1c0,0-0.3-6.4,1.9-7.4l1.3,0.6c0,0,0.4,0.7,0,1.7c-0.4,1-0.5,5.6-0.4,6.4"/>
			<path class="st1" d="M166.6,37.7l0.6-0.3l1.3,0.6c0,0,0.3,0.5,0.2,1.2c-0.1,0.7-1.5,6,0.7,7.3"/>
			<polyline class="st1" points="175.9,44.7 175.9,43.4 175.2,43.2 170.5,45.5 171.2,45.7 171.3,46.7 			"/>
			<g>
				<line class="st1" x1="173" y1="38.8" x2="173.1" y2="41.5"/>
				<line class="st1" x1="171.9" y1="40.7" x2="174.3" y2="39.7"/>
			</g>
			<ellipse transform="matrix(0.9011 -0.4336 0.4336 0.9011 -0.2174 96.7222)" class="st1" cx="212" cy="48.8" rx="1.4" ry="1.9"/>
			<text transform="matrix(0.7325 -0.3565 6.281000e-02 0.998 237.9736 95.0035)" class="st3 st4 st5">PUSH</text>
		</g>
		<g>
			<g>
				<path class="st1" d="M141.3,140.9l-32.8-16.4c0,0-0.7,0.1-0.7-2.2s0-13.6,0-13.6s0.1-1.6,1.5-1.3l3.2,1.6v-1l42.3,21.1
					c0,0,1,0.5,1,1.5v1.8"/>
				<path class="st1" d="M148.8,135.8l-4.9-2.4c0,0-0.5-0.3-0.5,0.8c0.1,1.4,0,5.5,0,5.5"/>
				<g>
					<polygon class="st1" points="141.7,140 133,135.6 133,127.9 141.7,132.3 					"/>
					<polygon class="st1" points="119.7,126.4 111,122 111,116.4 119.7,120.8 					"/>
					<polygon class="st1" points="129.9,131.9 122.9,128.4 122.9,123 129.9,126.5 					"/>
					<g>
						<polyline class="st1" points="135.6,134.8 134,134 134,129.5 140.5,132.8 140.5,137.3 138.9,136.5 						"/>
						<polyline class="st1" points="138.9,136.5 138.9,137.4 135.6,135.8 135.6,134.8 						"/>
					</g>
				</g>
				<polygon class="st1" points="118.8,124.4 112.5,121.3 112.5,118.2 118.8,121.3 				"/>
				<path class="st1" d="M124.8,125l3.4,1.7c0,0,0.9,0.5,0.8,1.4c-0.1,0.9-0.2,1-0.9,1c-0.7-0.1-3.2-1.5-3.2-1.5s-0.8-0.8-0.8-1.6
					C124,125,124.8,125,124.8,125z"/>
				<polyline class="st1" points="150.6,135.2 124.5,122.2 124.5,116.9 151.2,130.1 151.2,134.9 				"/>
				<polyline class="st1" points="124.6,116.8 125.8,116.2 152.5,129.5 152.5,134.1 				"/>
				<line class="st1" x1="124.5" y1="122.2" x2="129.7" y2="119.6"/>
				<polyline class="st1" points="131.1,120.2 131.1,125.5 136.1,122.8 				"/>
				<polyline class="st1" points="137.8,123.5 137.8,128.8 142.9,126.1 				"/>
				<polyline class="st1" points="144.5,126.8 144.5,132 149.6,129.4 				"/>
				<line class="st1" x1="151.2" y1="130.1" x2="152.5" y2="129.5"/>
				<path class="st1" d="M159.8,127.7c0,0,0.1-0.8-0.7-1.1l-3,1.7L113,106.9c-1.6,0.3-1.6,1.6-1.6,1.6"/>
				<path class="st1" d="M115.2,105.5c0,0-1.9-0.9-2.7-1.4c-0.6-0.3-1.2-0.1-1.2-0.1s-1.1,0.6-2.1,1c-0.2,0.1-0.4,0.2-0.6,0.3
					c-0.6,0.4-0.6,1.1-0.6,1.1v1.5"/>
				<line class="st1" x1="111.8" y1="107.3" x2="108.5" y2="105.6"/>
				<path class="st1" d="M113.1,106.9l2.5-1.2c0,0,0.5-0.2,1,0c0.2,0.1,7.2,3.6,15.4,7.7c12,6,27.2,13.3,27.2,13.3l14.3-7.7"/>
				<polyline class="st1" points="132.1,113.4 146.9,105.7 173.5,119 173.6,122.3 				"/>
				<path class="st1" d="M176.7,120.8v-3.6l8.8-4.4c0,0,1-0.5,1.8-0.1c0.8,0.4,2.6,1.4,2.6,1.4"/>
				<g>
					<ellipse class="st1" cx="131.2" cy="99.2" rx="3.7" ry="1.9"/>
					<path class="st1" d="M134.9,102.8c0,1.1-1.6,1.9-3.7,1.9s-3.7-0.9-3.7-1.9"/>
					<path class="st1" d="M127.6,99.2v4.9c0,1.1,1.6,1.9,3.7,1.9s3.7-0.9,3.7-1.9v-4.7"/>
					<line class="st1" x1="129.9" y1="98.3" x2="132.4" y2="99.6"/>
					<line class="st1" x1="129.7" y1="99.7" x2="132.5" y2="98.2"/>
				</g>
				<g>
					<ellipse class="st1" cx="192.9" cy="85.9" rx="3.7" ry="1.9"/>
					<path class="st1" d="M196.5,89.5c0,1.1-1.6,1.9-3.7,1.9c-2,0-3.7-0.9-3.7-1.9"/>
					<path class="st1" d="M189.2,85.9v4.9c0,1.1,1.6,1.9,3.7,1.9c2,0,3.7-0.9,3.7-1.9v-4.7"/>
					<line class="st1" x1="191.5" y1="85" x2="194" y2="86.3"/>
					<line class="st1" x1="191.3" y1="86.4" x2="194.1" y2="84.9"/>
				</g>
				<g>
					<ellipse class="st1" cx="195.6" cy="107.4" rx="3.7" ry="1.9"/>
					<line class="st1" x1="199.2" y1="109.4" x2="199.2" y2="107.6"/>
					<line class="st1" x1="191.9" y1="107.4" x2="191.9" y2="113"/>
					<line class="st1" x1="194.2" y1="106.5" x2="196.7" y2="107.9"/>
					<line class="st1" x1="194" y1="107.9" x2="196.8" y2="106.4"/>
				</g>
				<path class="st1" d="M161.8,86.7l11.8-5.9c0,0,1.2-0.8,2.3-0.3c1,0.5,13.3,6.8,13.3,6.8"/>
				<line class="st1" x1="135.2" y1="99.7" x2="143.6" y2="95.6"/>
				<ellipse class="st1" cx="141.2" cy="99.1" rx="2.1" ry="1.1"/>
				<path class="st1" d="M142.6,100.8c0.1,0.1,0.1,0.2,0.2,0.3c0.1,0.4-0.5,0.8-1.4,1s-1.5-0.1-1.6-0.6c0-0.2,0.1-0.4,0.3-0.6"/>
				<path class="st1" d="M142.4,101.8c0.2,0.1,0.3,0.2,0.4,0.4c0.1,0.4-0.5,0.8-1.4,1s-1.5-0.1-1.6-0.6c0-0.2,0.2-0.5,0.5-0.7"/>
				<path class="st1" d="M139.2,99.2v0.8c0,0.6,0.9,1.1,2.1,1.1s2.1-0.5,2.1-1.1v-0.9"/>
				<path class="st1" d="M184.3,99.2l14-7c0,0,0.2-0.5-0.3-0.7c-0.4-0.2-1.3-0.6-1.3-0.6"/>
				<ellipse class="st1" cx="182.8" cy="100.1" rx="1.9" ry="0.9"/>
				<path class="st1" d="M184,103.5c0.2,0.1,0.2,0.2,0.2,0.4c0,0.3-0.6,0.6-1.4,0.6"/>
				<path class="st1" d="M182.8,102c1.1,0,1.9-0.4,1.9-0.9v-1.1"/>
				<path class="st1" d="M184,101.8c0.1,0.1,0.2,0.2,0.2,0.3c0,0.3-0.6,0.7-1.3,0.8"/>
				<path class="st1" d="M183.9,102.6c0.2,0.1,0.3,0.2,0.4,0.3c0,0.3-0.6,0.7-1.3,0.8"/>
				<line class="st1" x1="185" y1="100.3" x2="192.5" y2="96.4"/>
				<line class="st1" x1="198.3" y1="92.2" x2="198.3" y2="93.3"/>
				<polyline class="st1" points="165.9,114.9 186.4,104.6 186.4,103.7 184.2,102.6 				"/>
				<line class="st1" x1="182.9" y1="105.5" x2="186.4" y2="103.7"/>
				<g>
					<polyline class="st1" points="160.3,112.4 160.3,109.7 162.7,108.6 162.7,110.9 					"/>
					<polyline class="st1" points="157.8,111.3 157.8,108.6 160.2,107.4 160.3,109.8 					"/>
					<polyline class="st1" points="155.2,110 155.2,107.3 157.7,106.1 157.7,108.5 					"/>
					<polyline class="st1" points="152.7,108.7 152.7,106 155.2,104.8 155.2,107.2 					"/>
					<polyline class="st1" points="150.2,107.5 150.2,104.8 152.7,103.6 152.7,106 					"/>
					<polyline class="st1" points="147.6,106.1 147.6,103.5 150.1,102.3 150.1,104.7 					"/>
					<polyline class="st1" points="145.1,106.4 145.1,102.2 147.6,101 147.6,103.4 					"/>
					<polyline class="st1" points="145.3,102 145.2,99.7 142.8,100.9 142.8,105 142.1,104.6 					"/>
					<polyline class="st1" points="162.7,113.6 162.7,111.1 165.3,109.9 165.3,114.7 					"/>
					<polyline class="st1" points="168.8,112.5 168.7,108.1 166.2,109.3 166.2,113.3 166.8,113.5 165.5,114.2 					"/>
					<polyline class="st1" points="166.3,109.2 166.3,106.8 163.8,108 163.8,110.5 					"/>
					<polyline class="st1" points="169.8,107.4 169.8,105.1 167.2,106.3 167.2,108.8 					"/>
					<polyline class="st1" points="173.3,105.6 173.2,103.3 170.7,104.5 170.7,107 					"/>
					<polyline class="st1" points="176.7,103.9 176.7,101.6 174.2,102.8 174.2,105.3 					"/>
					<polyline class="st1" points="180.2,102.2 180.2,99.8 177.7,101.1 177.7,103.6 					"/>
					<g>
						<polyline class="st1" points="163.8,107.9 163.7,105.6 161.2,106.8 161.2,109.3 						"/>
						<polyline class="st1" points="167.2,106.2 167.2,103.8 164.7,105 164.7,107.5 						"/>
						<polyline class="st1" points="170.8,104.4 170.8,102 168.2,103.2 168.2,105.8 						"/>
						<polyline class="st1" points="174.3,102.7 174.2,100.3 171.7,101.5 171.7,104.1 						"/>
						<polyline class="st1" points="177.7,101 177.7,98.6 175.2,99.8 175.2,102.3 						"/>
						<polyline class="st1" points="181.3,99.2 181.2,96.8 178.7,98 178.7,100.5 						"/>
					</g>
					<polyline class="st1" points="172.3,110.8 172.3,106.4 169.7,107.6 169.7,111.6 170.3,111.8 169,112.5 					"/>
					<polyline class="st1" points="175.8,109 175.8,104.6 173.3,105.8 173.3,109.8 173.8,110 172.5,110.7 					"/>
					<polyline class="st1" points="179.3,107.2 179.3,102.8 176.7,104 176.7,108 177.3,108.3 176,109 					"/>
					<polyline class="st1" points="182.7,105.5 182.7,101.1 180.2,102.3 180.2,106.3 180.7,106.6 179.4,107.3 					"/>
				</g>
				<g>
					<polyline class="st1" points="161.3,106.5 161.3,104.2 158.8,105.4 158.8,107.9 					"/>
					<polyline class="st1" points="164.8,104.8 164.8,102.4 162.2,103.7 162.2,106.2 					"/>
					<polyline class="st1" points="168.3,103 168.3,100.7 165.8,101.9 165.8,104.4 					"/>
					<polyline class="st1" points="171.8,101.3 171.8,99 169.3,100.2 169.3,102.7 					"/>
					<polyline class="st1" points="175.3,99.6 175.3,97.2 172.8,98.4 172.8,100.9 					"/>
					<polyline class="st1" points="178.8,97.8 178.8,95.5 176.3,96.7 176.3,99.2 					"/>
				</g>
				<g>
					<polyline class="st1" points="158.7,105.3 158.7,102.9 156.2,104.1 156.2,106.7 					"/>
					<polyline class="st1" points="162.2,103.6 162.2,101.2 159.7,102.4 159.7,104.9 					"/>
					<polyline class="st1" points="165.7,101.8 165.7,99.4 163.2,100.6 163.2,103.1 					"/>
					<polyline class="st1" points="169.2,100.1 169.2,97.7 166.7,98.9 166.7,101.4 					"/>
					<polyline class="st1" points="172.7,98.3 172.7,96 170.2,97.2 170.2,99.7 					"/>
					<polyline class="st1" points="176.2,96.6 176.2,94.2 173.7,95.4 173.7,97.9 					"/>
				</g>
				<g>
					<polyline class="st1" points="156.2,104.2 156.2,101.9 153.7,103.1 153.7,105.6 					"/>
					<polyline class="st1" points="159.7,102.5 159.6,100.1 157.1,101.3 157.1,103.9 					"/>
					<polyline class="st1" points="163.2,100.7 163.2,98.4 160.7,99.6 160.7,102.1 					"/>
					<polyline class="st1" points="166.7,99 166.7,96.6 164.2,97.9 164.2,100.4 					"/>
					<polyline class="st1" points="170.2,97.3 170.2,94.9 167.7,96.1 167.7,98.6 					"/>
					<polyline class="st1" points="173.7,95.5 173.7,93.1 171.2,94.4 171.2,96.9 					"/>
				</g>
				<g>
					<polyline class="st1" points="153.7,102.8 153.7,100.5 151.2,101.7 151.2,104.2 					"/>
					<polyline class="st1" points="157.2,101.1 157.2,98.8 154.6,100 154.6,102.5 					"/>
					<polyline class="st1" points="160.7,99.3 160.7,97 158.2,98.2 158.2,100.7 					"/>
					<polyline class="st1" points="164.2,97.6 164.2,95.3 161.7,96.5 161.7,99 					"/>
					<polyline class="st1" points="167.7,95.9 167.7,93.5 165.2,94.8 165.2,97.3 					"/>
					<polyline class="st1" points="171.2,94.1 171.2,91.8 168.7,93 168.7,95.5 					"/>
				</g>
				<g>
					<polyline class="st1" points="151.1,101.6 151.1,99.2 148.6,100.5 148.6,103 					"/>
					<polyline class="st1" points="154.6,99.9 154.6,97.5 152.1,98.7 152.1,101.2 					"/>
					<polyline class="st1" points="158.1,98.1 158.1,95.7 155.6,96.9 155.6,99.4 					"/>
					<polyline class="st1" points="161.6,96.4 161.6,94 159.1,95.2 159.1,97.7 					"/>
					<polyline class="st1" points="165.1,94.7 165.1,92.3 162.6,93.5 162.6,96 					"/>
					<polyline class="st1" points="168.6,92.9 168.6,90.5 166.1,91.7 166.1,94.2 					"/>
				</g>
				<g>
					<polyline class="st1" points="148.7,100.4 148.7,98 146.1,99.2 146.1,101.7 					"/>
					<polyline class="st1" points="152.1,98.6 152.1,96.3 149.6,97.5 149.6,100 					"/>
					<polyline class="st1" points="155.7,96.8 155.7,94.5 153.2,95.7 153.2,98.2 					"/>
					<polyline class="st1" points="159.2,95.1 159.2,92.8 156.7,94 156.7,96.5 					"/>
					<polyline class="st1" points="162.7,93.4 162.7,91.1 160.1,92.3 160.1,94.8 					"/>
					<polyline class="st1" points="166.2,91.6 166.2,89.3 163.7,90.5 163.7,93 					"/>
				</g>
				<g>
					<polyline class="st1" points="146.2,99 146.2,96.6 143.7,97.8 143.7,100.3 					"/>
					<polyline class="st1" points="149.7,97.2 149.6,94.9 147.1,96.1 147.1,98.6 					"/>
					<polyline class="st1" points="153.2,95.5 153.2,93.1 150.7,94.3 150.7,96.8 					"/>
					<polyline class="st1" points="156.7,93.8 156.7,91.4 154.2,92.6 154.2,95.1 					"/>
					<polyline class="st1" points="160.2,92 160.2,89.7 157.7,90.9 157.7,93.4 					"/>
					<polyline class="st1" points="163.7,90.3 163.7,87.9 161.2,89.1 161.2,91.6 					"/>
				</g>
				<g>
					<polyline class="st1" points="147.1,96 147.1,93.6 144.6,94.8 144.6,97.3 					"/>
					<polyline class="st1" points="150.7,94.2 150.6,91.8 148.1,93 148.1,95.5 					"/>
					<polyline class="st1" points="154.1,92.5 154.1,90.1 151.6,91.3 151.6,93.8 					"/>
					<polyline class="st1" points="157.6,90.7 157.6,88.4 155.1,89.6 155.1,92.1 					"/>
					<polyline class="st1" points="161.1,89 161.1,86.6 158.6,87.8 158.6,90.3 					"/>
				</g>
				<polyline class="st1" points="144.4,106.9 137.3,103.6 137.3,102.5 139.5,101.4 				"/>
				<polyline class="st1" points="137.7,102.7 141.1,104.3 142.8,103.5 				"/>
				<line class="st1" x1="185.5" y1="105.3" x2="191.7" y2="108.4"/>
			</g>
			<ellipse class="st6" cx="116.4" cy="107.1" rx="1.1" ry="0.5"/>
			<ellipse class="st7" cx="156" cy="126.7" rx="1" ry="0.5"/>
		</g>
		<line class="st8" x1="156.5" y1="132" x2="156.3" y2="128.4"/>
	</g>
	
		<path style="clip-path:url(#SVGID_00000028285891662643723250000001345417698470763167_);fill:none;stroke:#231F20;stroke-width:0.5;stroke-linecap:round;stroke-linejoin:round;stroke-miterlimit:10;" d="
		M69.9,40.5"/>
	
		<path style="clip-path:url(#SVGID_00000028285891662643723250000001345417698470763167_);fill:none;stroke:#231F20;stroke-width:0.5;stroke-linecap:round;stroke-linejoin:round;stroke-miterlimit:10;" d="
		M166.4,86.8"/>
</g>
<g>
	<path class="st10" d="M201,161l2.3-1.4c0,0,3.6-2.3,7,0.8l5.9,4.2c0,0,2.5,1.9,6.4-0.5l37.1-18.6c0,0,2.6-1.1,2.7-4.8
		c0.1-3.8-0.1-8.8-0.1-8.8"/>
	<path class="st1" d="M205.5,160.4c0,0,2.5,2.6,0.5,5.1l6.9,5c0,0,2.9,1.7,6.1,0.4c3.2-1.4,3.2-1.4,3.2-1.4s-0.6-4.1-2.8-4.3"/>
	<path class="st1" d="M257.7,146.3c0,0,2.6,1.3,2.6,4l-0.1,11.7c0,0-1.1,11.3-10.8,18.2l-15.2,7.9c0,0-6.4,3.2-9.9-1.3
		c0,0-2.3-2.8-2.2-7.7c0.1-4.9,0.2-9.8,0.2-9.8"/>
	<line class="st1" x1="227" y1="166" x2="256" y2="151.5"/>
	<path class="st1" d="M225.6,169.2l0.1,10.5c0,0,0.4,6.7,7.6,5.3l17-8.7c0,0,5.1-3.7,6.9-11.8l0.1-11.3"/>
	<path class="st1" d="M222.5,168.8c0,0,1-0.2,2,0.4c0,0,1.5-0.2,2.3-0.8l-0.1-3.2c0,0-0.7-1.7-2.3-2"/>
	<path class="st1" d="M253.8,148.4c0,0,1.9,0.2,2.4,1.9l0.3,3.3l1.3-0.6c0,0,1-4.4-2.2-5.4"/>
</g>
<polyline class="st1" points="76.7,36.2 64.9,38.6 69.1,40.6 "/>
<path class="st1" d="M291.7,64.5l-0.8,4.2l-4.3,2.8l-63.5,11c0,0-1.7,0.5-1.7-1.4l0.3-2.3l-36.8,6.6l-1,3.9l-7.2,1.2
	c0,0-1.2,0-1.7-1.2c-0.5-1.2-1.5-1.8-2.2-1.6c-0.7,0.2-6.2,1.2-6.2,1.2l-0.2-2L291.7,64.5l-97.6-49.1L82.5,35.2"/>
<path class="st1" d="M133.4,39.8l72.3-12.6c0,0,1.7-0.6,4.1,0.6s52.2,26,52.2,26s2,0.8,0.5,1.5l-73.5,12.9c0,0-2.2,0.5-5.1-1
	c-2.8-1.5-51.6-25.9-51.6-25.9S130.3,40.1,133.4,39.8z"/>
<path class="st1" d="M172.2,84c0,0,1.1-2.5,2.9-1.9l1.7,1.1l-5.6,1.2L76.7,37"/>
<path class="st1" d="M77.6,36.8c0,0,1.5-2.8,3.3-1.9c1.7,0.8,93.4,46.9,93.4,46.9"/>
<polygon class="st1" points="94.4,37.4 110.2,34.6 193.8,76.6 178.1,79.4 "/>
<path class="st1" d="M92.8,55.2L68.9,43.2l0.9-2.7l1.8-0.4l44.4,22.2l2.6,1.3c0,0,1.3,0.8-0.3,1.1l-6.6,0.2l-1.1-0.6l-1.6,0.4
	l-0.6,3.3l-8.1,0.1l1.1-4.3l14-0.9l-1.8-0.8c0,0-5.2,0.1-9.5,0.3c-4.3,0.3-6.5-1.2-6.5-1.2l-7.1-4"/>
<path class="st1" d="M69.9,40.5l25,12.7c0,0,1.7,0.6,0.9,1.1c-0.9,0.5-5.2,2.4-5.2,2.4l-0.2,0.6l-0.6,2.4c0,0,2.7,1.8,3.9,3.3
	c1.2,1.6,3.3,3.4,6.9,4"/>
<path class="st1" d="M166.4,86.8"/>
<path class="st1" d="M109.5,65.1l4.7,1.9c0,0,1.4,0.7,4.3,0.5s6.9-0.7,8,1.5c0,0,0,1.5-2.6,1.4l-1-0.2l-6.3,0.2c0,0-1.8,0-3.1-0.5
	c-1.3-0.5-5.1-2-5.1-2"/>
<polyline class="st1" points="126.8,69.7 157.4,84.9 158.7,87.8 162.3,89.6 166.6,88.9 "/>
<ellipse transform="matrix(0.1664 -0.9861 0.9861 0.1664 26.6664 149.2324)" class="st1" cx="101.6" cy="58.8" rx="1.8" ry="6.4"/>
<line class="st1" x1="166.4" y1="86.8" x2="69.4" y2="37.8"/>
<polygon class="st3" points="97.6,62.7 97.2,64.4 96.2,62.8 "/>
<ellipse transform="matrix(7.272829e-02 -0.9974 0.9974 7.272829e-02 54.0334 188.2111)" class="st10" cx="128.2" cy="65" rx="0.8" ry="2.1"/>
<ellipse transform="matrix(7.272829e-02 -0.9974 0.9974 7.272829e-02 58.839 205.1952)" class="st10" cx="139.8" cy="71" rx="0.8" ry="2.1"/>
<ellipse transform="matrix(7.272829e-02 -0.9974 0.9974 7.272829e-02 63.8991 222.5645)" class="st10" cx="151.6" cy="76.9" rx="0.8" ry="2.1"/>
<ellipse transform="matrix(7.272829e-02 -0.9974 0.9974 7.272829e-02 69.1025 240.4224)" class="st10" cx="163.8" cy="83" rx="0.8" ry="2.1"/>
<ellipse transform="matrix(0.3194 -0.9476 0.9476 0.3194 130.3902 318.1489)" class="st1" cx="286.7" cy="68.3" rx="1.3" ry="0.8"/>
<path class="st1" d="M114.5,65.6l5.9-0.1c0,0,0.6,0,1.3,0.4c0.6,0.3,1.4,0.7,0.4,0.8c-1,0.1-6,0.2-6,0.2s-0.8,0.1-2.1-0.6
	C114,66.1,113.3,65.6,114.5,65.6z"/>
<path class="st11" d="M118.7,3.5l23.1,0.6l7.5,10.9l-9.3-3.4c0,0-17.9,13.5-12.3,28.8l-12.9-4.8c0,0-5.6-15.9,13-28.6L118.7,3.5z"/>
<path class="st11" d="M122.5,42l17,15.7l12.9-2.6l-9-4c0,0-3.4-22.2,11.3-29.2L142,16.3c0,0-15,7.5-10.6,29.5L122.5,42z"/>
<circle class="st1" cx="238.9" cy="162.1" r="38.2"/>
<line class="st12" x1="225" y1="141.5" x2="177.5" y2="129.6"/>
<line class="st1" x1="177.5" y1="129.6" x2="225" y2="141.5"/>
<polygon class="st13" points="63.6,69.4 67.8,66.7 67.2,76.1 51.1,77.6 55.3,74.8 37.6,65.8 45.9,60.4 "/>
<polygon class="st14" points="244,175.1 237.4,179.5 238.3,164.5 263.9,161.9 257.2,166.3 285.6,180.4 272.4,189.1 "/>
<g>
	<circle class="st15" cx="276.4" cy="152.7" r="11.2"/>
	<g>
		<text transform="matrix(1 0 0 1 271.6733 158.1986)" class="st16 st17 st18">1</text>
	</g>
</g>
</svg>
