<?xml version="1.0" encoding="utf-8"?>
<!-- Generator: Adobe Illustrator 26.0.3, SVG Export Plug-In . SVG Version: 6.00 Build 0)  -->
<svg version="1.1" id="Layer_1" xmlns="http://www.w3.org/2000/svg" xmlns:xlink="http://www.w3.org/1999/xlink" x="0px" y="0px"
	 viewBox="0 0 299.756 105.954" style="enable-background:new 0 0 299.756 105.954;" xml:space="preserve">
<style type="text/css">
	.st0{fill:none;stroke:#CCCCCC;stroke-width:0.6715;stroke-linecap:round;stroke-linejoin:round;stroke-miterlimit:10;}
	.st1{fill:#E6E6E6;}
	.st2{fill:#CCCCCC;}
	.st3{fill-rule:evenodd;clip-rule:evenodd;fill:#E6E6E6;}
	.st4{fill-rule:evenodd;clip-rule:evenodd;fill:#262626;}
	.st5{fill:#595A5A;}
	.st6{fill:#D9D9D9;}
	.st7{fill:#6A6A6A;}
	.st8{fill-rule:evenodd;clip-rule:evenodd;fill:#FFFFFF;}
	.st9{fill:#292929;}
	.st10{fill-rule:evenodd;clip-rule:evenodd;fill:#B3B3B3;}
	.st11{fill-rule:evenodd;clip-rule:evenodd;fill:#D66927;}
	.st12{fill-rule:evenodd;clip-rule:evenodd;fill:#333333;}
	.st13{fill:#FFFFFF;}
	.st14{fill-rule:evenodd;clip-rule:evenodd;fill:#999999;}
	.st15{fill:#2762AC;}
	.st16{fill:#F5F6F6;}
	.st17{fill-rule:evenodd;clip-rule:evenodd;fill:#F5F6F6;}
	.st18{fill:#231F20;stroke:#2762AC;stroke-width:0.2857;stroke-miterlimit:10;}
	.st19{fill:#262626;}
	.st20{fill:#A25EB5;}
	.st21{fill-rule:evenodd;clip-rule:evenodd;fill:#1A1A1A;}
	.st22{fill-rule:evenodd;clip-rule:evenodd;fill:#F2F2F2;}
	.st23{fill:#4D4E4E;}
	.st24{fill:none;stroke:#FFFFFF;stroke-width:0.1222;stroke-miterlimit:10;}
	.st25{fill:none;stroke:#A25EB5;stroke-width:1.75;stroke-linecap:round;stroke-linejoin:round;stroke-miterlimit:10;}
</style>
<g>
	<g>
		<g>
			<g>
				<rect x="7.173" y="41.598" class="st0" width="288" height="60.189"/>
				<rect x="10.101" y="44.583" class="st1" width="282.145" height="54.219"/>
				<g>
					<rect x="14.987" y="72.637" class="st2" width="131.612" height="24.126"/>
					<g>
						<path class="st3" d="M56.824,93.688h20.568c0.293,0,0.549-0.22,0.549-0.549V74.511c0-0.329-0.256-0.549-0.549-0.549H56.824
							c-0.293,0-0.549,0.22-0.549,0.549v18.628C56.275,93.469,56.531,93.688,56.824,93.688"/>
						<path class="st4" d="M70.475,74.987c0-0.146-0.11-0.22-0.22-0.22c-0.11,0-0.22,0.11-0.22,0.22l0.146,1.354
							c0,0.073,0.037,0.073,0.073,0.073c0.037,0,0.073-0.037,0.073-0.073L70.475,74.987 M70.511,76.927
							c0-0.146-0.11-0.256-0.256-0.256c-0.146,0-0.256,0.11-0.256,0.256c0,0.11,0.11,0.22,0.256,0.22
							C70.401,77.146,70.511,77.036,70.511,76.927z"/>
						<path class="st4" d="M65.424,75.719c-0.146-0.586-0.769-0.915-1.354-0.769c-0.622,0.183-0.952,0.805-0.769,1.391
							c0.183,0.586,0.805,0.915,1.391,0.769C65.278,76.927,65.607,76.304,65.424,75.719 M65.278,75.938
							c0.073,0.476-0.293,0.952-0.805,0.988c-0.366,0.073-0.769-0.146-0.915-0.512l0.622-0.622l0.256,0.988L65.278,75.938z
							 M63.448,76.158c-0.037-0.512,0.293-0.988,0.805-1.025c0.403-0.073,0.769,0.146,0.952,0.512l-0.622,0.622l-0.256-0.988
							L63.448,76.158z"/>
					</g>
					<circle class="st4" cx="64.419" cy="79.236" r="1.232"/>
					<circle class="st4" cx="70.293" cy="79.236" r="1.232"/>
					<g>
						<path class="st5" d="M117.136,92.444h9.296c0.403,0,0.732-0.329,0.732-0.695V74.877c0-0.366-0.329-0.695-0.732-0.695h-9.296
							c-0.366,0-0.695,0.329-0.695,0.695v16.871C116.441,92.114,116.77,92.444,117.136,92.444z"/>
						<path class="st6" d="M117.868,89.699h7.868c0.293,0,0.549-0.256,0.549-0.549V77.475c0-0.293-0.256-0.549-0.549-0.549h-7.868
							c-0.329,0-0.549,0.256-0.549,0.549V89.15C117.319,89.443,117.539,89.699,117.868,89.699z"/>
						<path class="st5" d="M125.115,80.403v-1.72c0-0.183-0.146-0.329-0.329-0.329h-5.965c-0.183,0-0.329,0.146-0.329,0.329v1.72
							H125.115z"/>
						<path class="st7" d="M125.115,80.403h-6.624v7.393c0,0.183,0.146,0.329,0.329,0.329h5.965c0.183,0,0.329-0.146,0.329-0.329
							V80.403z"/>
						<path class="st8" d="M121.784,83.294c0.11,0,0.22-0.073,0.22-0.183v-1.574c0-0.11-0.11-0.183-0.22-0.183
							c-0.11,0-0.183,0.073-0.183,0.183v1.574C121.601,83.221,121.675,83.294,121.784,83.294 M122.516,86.003
							c0-0.403-0.329-0.695-0.732-0.695c-0.366,0-0.695,0.293-0.695,0.695c0,0.403,0.329,0.695,0.695,0.695
							C122.187,86.698,122.516,86.405,122.516,86.003z M122.919,86.003c0-0.622-0.512-1.098-1.135-1.098
							c-0.586,0-1.098,0.476-1.098,1.098c0,0.622,0.512,1.098,1.098,1.098C122.406,87.101,122.919,86.625,122.919,86.003z"/>
						<path class="st5" d="M129.653,74.987v16.981c0,0.549,0.439,0.988,0.988,0.988h12.297c0.549,0,0.988-0.439,0.988-0.988V74.987
							c0-0.549-0.439-0.988-0.988-0.988h-12.297C130.092,73.999,129.653,74.438,129.653,74.987z"/>
						<path class="st9" d="M131.08,79.635v7.685c0,0.403,0.183,0.805,0.512,1.135l3.074,2.928c0.293,0.293,0.695,0.439,1.098,0.439
							h5.16c0.878,0,1.574-0.695,1.574-1.574V76.707c0-0.878-0.695-1.574-1.574-1.574h-5.16c-0.403,0-0.805,0.146-1.098,0.439
							l-3.074,2.928C131.263,78.83,131.08,79.232,131.08,79.635z"/>
						<path class="st10" d="M136.899,88.455h3.147v-0.952h-3.147V88.455z M133.532,83.953h3.147v-0.952h-3.147V83.953z
							 M136.899,79.452h3.147v-0.915h-3.147V79.452z"/>
					</g>
					<g>
						<rect x="101.122" y="93.47" class="st5" width="45.199" height="3.293"/>
						<rect x="66.071" y="91.823" class="st5" width="3.293" height="4.939"/>
						<rect x="15.723" y="93.47" class="st5" width="34" height="3.293"/>
						<path class="st7" d="M82.841,93.47c-0.689,0-1.34-0.077-1.991-0.23l-4.671-1.149c-0.651-0.191-1.302-0.268-1.991-0.268h-4.977
							c-0.191,0-0.345,0.153-0.345,0.345v4.288c0,0.153,0.153,0.306,0.345,0.306h31.893V93.47H82.841z"/>
						<path class="st11" d="M71.508,96.265h27.797v-2.297H82.841c-0.727,0-1.417-0.077-2.106-0.268l-4.671-1.149
							c-0.613-0.153-1.225-0.23-1.876-0.23h-2.68V96.265"/>
						<path class="st7" d="M61.285,93.47H49.684v3.293h16.578c0.153,0,0.306-0.153,0.306-0.306v-4.288
							c0-0.191-0.153-0.345-0.306-0.345h-2.297c-0.191,0-0.345,0.077-0.498,0.191l-1.685,1.302
							C61.63,93.431,61.438,93.47,61.285,93.47z"/>
						<rect x="13.273" y="94.542" class="st5" width="4.939" height="2.221"/>
					</g>
				</g>
				<g>
					<rect x="156.551" y="72.637" class="st2" width="131.612" height="24.126"/>
					<g>
						<path class="st3" d="M198.388,93.688h20.568c0.293,0,0.549-0.22,0.549-0.549V74.511c0-0.329-0.256-0.549-0.549-0.549h-20.568
							c-0.293,0-0.549,0.22-0.549,0.549v18.628C197.839,93.469,198.095,93.688,198.388,93.688"/>
						<path class="st4" d="M212.039,74.987c0-0.146-0.11-0.22-0.22-0.22s-0.22,0.11-0.22,0.22l0.146,1.354
							c0,0.073,0.037,0.073,0.073,0.073s0.073-0.037,0.073-0.073L212.039,74.987 M212.076,76.927c0-0.146-0.11-0.256-0.256-0.256
							s-0.256,0.11-0.256,0.256c0,0.11,0.11,0.22,0.256,0.22S212.076,77.036,212.076,76.927z"/>
						<path class="st4" d="M206.989,75.719c-0.146-0.586-0.769-0.915-1.354-0.769c-0.622,0.183-0.952,0.805-0.769,1.391
							c0.183,0.586,0.805,0.915,1.391,0.769C206.842,76.927,207.172,76.304,206.989,75.719 M206.842,75.938
							c0.073,0.476-0.293,0.952-0.805,0.988c-0.366,0.073-0.769-0.146-0.915-0.512l0.622-0.622l0.256,0.988L206.842,75.938z
							 M205.012,76.158c-0.037-0.512,0.293-0.988,0.805-1.025c0.403-0.073,0.769,0.146,0.952,0.512l-0.622,0.622l-0.256-0.988
							L205.012,76.158z"/>
					</g>
					<circle class="st4" cx="205.983" cy="79.236" r="1.232"/>
					<circle class="st4" cx="211.858" cy="79.236" r="1.232"/>
					<g>
						<path class="st5" d="M258.701,92.444h9.296c0.403,0,0.732-0.329,0.732-0.695V74.877c0-0.366-0.329-0.695-0.732-0.695h-9.296
							c-0.366,0-0.695,0.329-0.695,0.695v16.871C258.006,92.114,258.335,92.444,258.701,92.444z"/>
						<path class="st6" d="M259.433,89.699h7.868c0.293,0,0.549-0.256,0.549-0.549V77.475c0-0.293-0.256-0.549-0.549-0.549h-7.868
							c-0.329,0-0.549,0.256-0.549,0.549V89.15C258.884,89.443,259.103,89.699,259.433,89.699z"/>
						<path class="st5" d="M266.679,80.403v-1.72c0-0.183-0.146-0.329-0.329-0.329h-5.965c-0.183,0-0.329,0.146-0.329,0.329v1.72
							H266.679z"/>
						<path class="st7" d="M266.679,80.403h-6.624v7.393c0,0.183,0.146,0.329,0.329,0.329h5.965c0.183,0,0.329-0.146,0.329-0.329
							V80.403z"/>
						<path class="st8" d="M263.349,83.294c0.11,0,0.22-0.073,0.22-0.183v-1.574c0-0.11-0.11-0.183-0.22-0.183
							c-0.11,0-0.183,0.073-0.183,0.183v1.574C263.166,83.221,263.239,83.294,263.349,83.294 M264.081,86.003
							c0-0.403-0.329-0.695-0.732-0.695c-0.366,0-0.695,0.293-0.695,0.695c0,0.403,0.329,0.695,0.695,0.695
							C263.751,86.698,264.081,86.405,264.081,86.003z M264.483,86.003c0-0.622-0.512-1.098-1.135-1.098
							c-0.586,0-1.098,0.476-1.098,1.098c0,0.622,0.512,1.098,1.098,1.098C263.971,87.101,264.483,86.625,264.483,86.003z"/>
						<path class="st5" d="M271.217,74.987v16.981c0,0.549,0.439,0.988,0.988,0.988h12.297c0.549,0,0.988-0.439,0.988-0.988V74.987
							c0-0.549-0.439-0.988-0.988-0.988h-12.297C271.656,73.999,271.217,74.438,271.217,74.987z"/>
						<path class="st9" d="M272.645,79.635v7.685c0,0.403,0.183,0.805,0.512,1.135l3.074,2.928c0.293,0.293,0.695,0.439,1.098,0.439
							h5.16c0.878,0,1.574-0.695,1.574-1.574V76.707c0-0.878-0.695-1.574-1.574-1.574h-5.16c-0.403,0-0.805,0.146-1.098,0.439
							l-3.074,2.928C272.827,78.83,272.645,79.232,272.645,79.635z"/>
						<path class="st10" d="M278.464,88.455h3.147v-0.952h-3.147V88.455z M275.097,83.953h3.147v-0.952h-3.147V83.953z
							 M278.464,79.452h3.147v-0.915h-3.147V79.452z"/>
					</g>
					<g>
						<rect x="243.806" y="93.545" class="st5" width="44.162" height="3.217"/>
						<rect x="209.56" y="91.937" class="st5" width="3.217" height="4.826"/>
						<rect x="160.368" y="93.545" class="st5" width="33.22" height="3.217"/>
						<path class="st7" d="M225.944,93.545c-0.673,0-1.309-0.075-1.945-0.224l-4.564-1.122c-0.636-0.187-1.272-0.262-1.945-0.262
							h-4.863c-0.187,0-0.337,0.15-0.337,0.337v4.19c0,0.15,0.15,0.299,0.337,0.299h31.161v-3.217H225.944z"/>
						<path class="st11" d="M214.872,96.276h27.158v-2.244h-16.086c-0.711,0-1.384-0.075-2.057-0.262l-4.564-1.122
							c-0.599-0.15-1.197-0.224-1.833-0.224h-2.619V96.276"/>
						<path class="st7" d="M204.884,93.545h-11.335v3.217h16.198c0.15,0,0.299-0.15,0.299-0.299v-4.19
							c0-0.187-0.15-0.337-0.299-0.337h-2.244c-0.187,0-0.337,0.075-0.486,0.187l-1.646,1.272
							C205.22,93.508,205.033,93.545,204.884,93.545z"/>
						<rect x="157.974" y="94.593" class="st5" width="4.826" height="2.17"/>
					</g>
				</g>
				<g>
					<path class="st12" d="M150.969,80.009h3.001v-3.623h-3.001l-1.391,1.793L150.969,80.009z M152.579,91.354l1.391-1.83
						l-1.391-1.83h-3.001v3.66H152.579z"/>
					<path class="st8" d="M151.81,89.525c0-0.512-0.439-0.952-0.988-0.952c-0.549,0-0.988,0.439-0.988,0.952
						c0,0.549,0.439,0.988,0.988,0.988C151.371,90.513,151.81,90.074,151.81,89.525 M151.627,89.671
						c-0.073,0.439-0.476,0.732-0.915,0.659c-0.366-0.037-0.622-0.293-0.695-0.622l-0.037-0.037l0.695-0.403v0.915l0.915-0.549
						L151.627,89.671z M150.017,89.415c0.037-0.439,0.476-0.732,0.915-0.695c0.329,0.073,0.622,0.329,0.659,0.659l-0.695,0.403
						v-0.915l-0.915,0.549H150.017z M152.506,78.179c0-0.512-0.439-0.952-0.988-0.952c-0.549,0-0.988,0.439-0.988,0.952
						c0,0.549,0.439,0.988,0.988,0.988C152.067,79.168,152.506,78.728,152.506,78.179z M152.323,78.326
						c-0.037,0.439-0.476,0.732-0.915,0.659c-0.329-0.037-0.622-0.293-0.659-0.622l-0.037-0.037l0.695-0.403v0.915l0.915-0.549
						V78.326z M150.713,78.07c0.073-0.439,0.476-0.732,0.915-0.659c0.366,0.037,0.622,0.293,0.695,0.622l-0.695,0.403v-0.915
						L150.713,78.07z"/>
					<g>
						<path class="st13" d="M153.507,78.983h-0.192v-1.229c-0.047,0.044-0.107,0.088-0.183,0.133
							c-0.076,0.044-0.144,0.077-0.203,0.1V77.8c0.107-0.051,0.202-0.112,0.282-0.185c0.081-0.072,0.138-0.142,0.172-0.21h0.124
							V78.983z"/>
					</g>
					<g>
						<path class="st13" d="M153.062,90.145v0.186h-1.038c-0.001-0.047,0.006-0.091,0.022-0.134
							c0.026-0.071,0.068-0.141,0.127-0.209s0.143-0.147,0.252-0.238c0.171-0.14,0.286-0.25,0.347-0.332
							c0.06-0.082,0.09-0.159,0.09-0.232c0-0.076-0.027-0.141-0.082-0.193c-0.055-0.052-0.126-0.078-0.214-0.078
							c-0.093,0-0.167,0.027-0.223,0.083s-0.084,0.133-0.085,0.231l-0.198-0.021c0.014-0.147,0.064-0.26,0.153-0.338
							c0.089-0.077,0.208-0.116,0.356-0.116c0.151,0,0.271,0.042,0.358,0.126c0.088,0.083,0.132,0.187,0.132,0.311
							c0,0.062-0.013,0.124-0.039,0.185c-0.025,0.062-0.068,0.125-0.128,0.192s-0.158,0.159-0.297,0.276
							c-0.116,0.097-0.19,0.163-0.223,0.197c-0.033,0.035-0.061,0.069-0.082,0.104H153.062z"/>
					</g>
				</g>
				<rect x="14.987" y="46.713" class="st1" width="131.612" height="24.126"/>
				<g>
					<g>
						<polyline class="st12" points="150.969,54.638 153.97,54.638 153.97,51.015 150.969,51.015 149.578,52.808 150.969,54.638 
													"/>
						<polygon class="st12" points="152.579,65.983 153.97,64.153 152.579,62.36 149.578,62.36 149.578,65.983 						"/>
						<g>
							<path class="st13" d="M153.482,53.795h-0.413l-0.165-0.428h-0.753l-0.156,0.428h-0.403l0.734-1.885h0.402L153.482,53.795z
								 M152.782,53.05l-0.26-0.699l-0.255,0.699H152.782z"/>
						</g>
						<g>
							<path class="st13" d="M150.393,63.257h0.754c0.149,0,0.26,0.007,0.333,0.019c0.074,0.013,0.14,0.039,0.197,0.078
								s0.105,0.092,0.145,0.157c0.038,0.065,0.058,0.14,0.058,0.221c0,0.088-0.023,0.169-0.071,0.243
								c-0.048,0.073-0.112,0.129-0.193,0.166c0.115,0.033,0.203,0.09,0.265,0.171c0.062,0.08,0.093,0.175,0.093,0.284
								c0,0.085-0.02,0.169-0.06,0.25s-0.095,0.146-0.163,0.193c-0.069,0.049-0.154,0.078-0.256,0.09
								c-0.063,0.007-0.216,0.011-0.459,0.013h-0.642V63.257z M150.774,63.571v0.437h0.249c0.148,0,0.241-0.003,0.277-0.007
								c0.064-0.008,0.116-0.03,0.153-0.067s0.056-0.086,0.056-0.147c0-0.058-0.016-0.105-0.048-0.142
								c-0.032-0.037-0.08-0.059-0.144-0.066c-0.038-0.004-0.146-0.007-0.325-0.007H150.774z M150.774,64.321v0.504h0.353
								c0.137,0,0.224-0.004,0.261-0.012c0.057-0.011,0.103-0.035,0.139-0.075c0.035-0.04,0.053-0.093,0.053-0.16
								c0-0.057-0.014-0.104-0.041-0.144c-0.027-0.04-0.067-0.068-0.119-0.087c-0.052-0.018-0.164-0.026-0.337-0.026H150.774z"/>
						</g>
					</g>
				</g>
				<g>
					<rect x="156.551" y="46.713" class="st1" width="131.612" height="24.126"/>
				</g>
			</g>
			<g>
				<rect x="87.235" y="46.861" class="st14" width="59.068" height="19.631"/>
				<rect x="116.769" y="46.861" class="st15" width="21.542" height="15.201"/>
				<rect x="87.203" y="46.861" class="st16" width="29.393" height="15.201"/>
			</g>
			<rect x="15.214" y="46.878" class="st14" width="69.425" height="22.239"/>
			<path class="st17" d="M67.866,57.104h11.451c0.284,0,0.461-0.177,0.461-0.461V51.29c0-0.284-0.177-0.496-0.461-0.496H67.866
				c-0.248,0-0.461,0.213-0.461,0.496v5.353C67.405,56.927,67.617,57.104,67.866,57.104z"/>
			<path class="st17" d="M53.756,56.413h8.438c0.248,0,0.461-0.213,0.461-0.461v-5.141c0-0.248-0.213-0.461-0.461-0.461h-8.438
				c-0.248,0-0.461,0.213-0.461,0.461v5.141C53.295,56.201,53.508,56.413,53.756,56.413z"/>
			<path class="st17" d="M21.579,56.596h11.522c0.248,0,0.461-0.213,0.461-0.461V48.3c0-0.248-0.213-0.461-0.461-0.461H21.579
				c-0.248,0-0.461,0.213-0.461,0.461v7.835C21.118,56.383,21.331,56.596,21.579,56.596z"/>
			<path class="st17" d="M36.566,56.596h11.522c0.248,0,0.461-0.213,0.461-0.461V48.3c0-0.248-0.213-0.461-0.461-0.461H36.566
				c-0.248,0-0.461,0.213-0.461,0.461v7.835C36.105,56.383,36.318,56.596,36.566,56.596z"/>
			<rect x="15.809" y="57.05" class="st15" width="46.673" height="10.806"/>
			<rect x="21.003" y="59.908" class="st18" width="9.139" height="5.927"/>
			<rect x="30.467" y="59.908" class="st18" width="9.139" height="5.927"/>
			<rect x="39.931" y="59.908" class="st18" width="9.139" height="5.927"/>
			<rect x="49.395" y="59.908" class="st18" width="9.139" height="5.927"/>
			<circle class="st19" cx="23.659" cy="58.388" r="0.621"/>
			<circle class="st19" cx="27.617" cy="58.388" r="0.621"/>
			<circle class="st19" cx="33.094" cy="58.388" r="0.621"/>
			<circle class="st19" cx="37.052" cy="58.388" r="0.621"/>
			<circle class="st19" cx="42.529" cy="58.388" r="0.621"/>
			<circle class="st19" cx="46.487" cy="58.388" r="0.621"/>
			<circle class="st19" cx="51.963" cy="58.388" r="0.621"/>
			<circle class="st19" cx="55.921" cy="58.388" r="0.621"/>
			<polygon class="st20" points="23.275,53.451 23.275,55.33 31.358,55.33 31.358,53.451 31.181,53.451 31.181,52.175 
				31.358,52.175 31.358,50.331 29.586,50.331 29.586,49.161 28.806,49.161 28.806,48.594 25.792,48.594 25.792,49.161 
				25.048,49.161 25.048,50.331 23.275,50.331 23.275,52.175 23.417,52.175 23.417,53.451 			"/>
			<polygon class="st19" points="38.236,53.451 38.236,55.33 46.319,55.33 46.319,53.451 46.142,53.451 46.142,52.175 
				46.319,52.175 46.319,50.331 44.547,50.331 44.547,49.161 43.767,49.161 43.767,48.594 40.753,48.594 40.753,49.161 
				40.009,49.161 40.009,50.331 38.236,50.331 38.236,52.175 38.378,52.175 38.378,53.451 			"/>
			<path class="st21" d="M55.822,54.794h4.396c0.603,0,1.099-0.496,1.099-1.099V53.34c0-0.603-0.496-1.064-1.099-1.064h-4.396
				c-0.603,0-1.064,0.461-1.064,1.064v0.355C54.759,54.298,55.219,54.794,55.822,54.794z"/>
			<path class="st19" d="M77.611,52.155H69.74c-0.106,0-0.213,0.071-0.213,0.177v3.014c0,0.106,0.106,0.177,0.213,0.177h7.871
				c0.106,0,0.213-0.071,0.213-0.177v-3.014C77.823,52.226,77.717,52.155,77.611,52.155z"/>
			<polygon class="st8" points="17.957,62.984 18.408,62.984 18.408,64.405 18.61,64.405 18.61,63.864 19.016,63.864 19.016,64.247 
				19.783,64.247 19.783,63.232 19.016,63.232 19.016,63.593 18.61,63.593 18.61,62.15 19.016,62.15 19.016,62.488 19.783,62.488 
				19.783,61.496 19.016,61.496 19.016,61.879 18.61,61.879 18.61,61.383 18.408,61.383 18.408,62.714 17.957,62.714 17.934,62.308 
				17.145,62.308 17.145,63.368 17.934,63.368 			"/>
			<path class="st22" d="M82.277,52.402v2.375l-0.532-0.532v-0.461c0.142-0.071,0.177-0.213,0.142-0.355
				c-0.071-0.106-0.213-0.177-0.355-0.142c-0.106,0.071-0.177,0.213-0.142,0.355c0.035,0.071,0.106,0.106,0.142,0.142v0.567
				l0.745,0.709v0.248c-0.213,0.035-0.355,0.248-0.284,0.461c0.035,0.213,0.248,0.355,0.461,0.284
				c0.213-0.035,0.355-0.248,0.284-0.461c-0.035-0.142-0.142-0.248-0.284-0.284v-0.922l0.709-0.709v-0.461h0.177v-0.532h-0.532
				v0.532h0.177v0.355l-0.532,0.532v-1.702h0.177l-0.284-0.532L82.1,52.402H82.277z"/>
			<path class="st22" d="M19.378,52.186H17.64c-0.142-0.39-0.532-0.567-0.922-0.461c-0.071,0.035-0.142,0.071-0.213,0.142v0.106
				h0.39l0.248,0.461l-0.248,0.425h-0.39v0.106c0.319,0.248,0.745,0.213,0.993-0.106c0.071-0.035,0.106-0.142,0.142-0.213h1.737
				c0.106,0.355,0.496,0.496,0.815,0.39c0.071-0.035,0.142-0.071,0.177-0.106v-0.106h-0.355l-0.213-0.39l0.213-0.425h0.355v-0.071
				c-0.284-0.248-0.674-0.213-0.886,0.071C19.413,52.044,19.378,52.115,19.378,52.186z"/>
			<path class="st4" d="M91.153,58.938h6.807c0.071,0,0.142-0.071,0.142-0.142V51.99c0-0.071-0.071-0.177-0.142-0.177h-6.807
				c-0.106,0-0.177,0.106-0.177,0.177v6.807C90.976,58.867,91.047,58.938,91.153,58.938"/>
			<path class="st4" d="M100.677,58.938h6.807c0.071,0,0.142-0.071,0.142-0.142V51.99c0-0.071-0.071-0.177-0.142-0.177h-6.807
				c-0.106,0-0.177,0.106-0.177,0.177v6.807C100.5,58.867,100.571,58.938,100.677,58.938"/>
			<path class="st4" d="M108.399,58.938h6.807c0.071,0,0.142-0.071,0.142-0.142V51.99c0-0.071-0.071-0.177-0.142-0.177h-6.807
				c-0.106,0-0.177,0.106-0.177,0.177v6.807C108.222,58.867,108.293,58.938,108.399,58.938"/>
			<g>
				<rect x="118.09" y="51.704" class="st18" width="9.139" height="5.927"/>
				<rect x="127.55" y="51.704" class="st18" width="9.139" height="5.927"/>
			</g>
			<circle class="st19" cx="93.022" cy="49.087" r="0.804"/>
			<circle class="st19" cx="96.001" cy="49.087" r="0.804"/>
			<circle class="st19" cx="102.811" cy="49.087" r="0.804"/>
			<circle class="st19" cx="105.791" cy="49.087" r="0.804"/>
			<circle class="st19" cx="109.94" cy="49.087" r="0.804"/>
			<circle class="st19" cx="112.92" cy="49.087" r="0.804"/>
			<g>
				<circle class="st19" cx="120.652" cy="49.087" r="0.804"/>
				<circle class="st19" cx="125.228" cy="49.087" r="0.804"/>
			</g>
			<g>
				<circle class="st19" cx="129.98" cy="49.087" r="0.804"/>
				<circle class="st19" cx="134.556" cy="49.087" r="0.804"/>
			</g>
			<g>
				<path class="st23" d="M81.838,66.338v2.707H18.574v0.981h63.264v0.812h64.478v-3.214H88.012V66H82.15
					C81.977,66,81.838,66.135,81.838,66.338z"/>
				<path class="st23" d="M85.549,67.624H71.606c-0.139,0-0.312,0.068-0.416,0.169l-1.942,1.895
					c-0.139,0.102-0.277,0.169-0.451,0.169H21.869c-0.139,0-0.312-0.068-0.416-0.169l-1.942-1.895
					c-0.139-0.102-0.277-0.169-0.451-0.169h-3.295v1.015h-2.463v2.199h72.247V67.624z"/>
				<path class="st7" d="M95.607,66H85.549v4.839h20.984v-3.214h-2.22c-0.416,0-0.832-0.068-1.249-0.135l-6.243-1.353
					C96.44,66.067,96.024,66,95.607,66z"/>
				<path class="st11" d="M104.417,68.131h-2.254c-0.659,0-1.318-0.068-1.977-0.203l-4.336-0.981
					c-0.555-0.135-1.145-0.203-1.734-0.203h-2.532v3.35h12.833V68.131"/>
			</g>
			<g>
				<rect x="52.611" y="52.456" class="st13" width="0.116" height="1.157"/>
				<path class="st24" d="M52.264,53.035c0,0.251-0.212,0.463-0.463,0.463c-0.251,0-0.463-0.212-0.463-0.463
					c0-0.251,0.212-0.463,0.463-0.463C52.052,52.572,52.264,52.784,52.264,53.035z"/>
				<rect x="50.875" y="52.456" class="st13" width="0.135" height="1.157"/>
				<path class="st24" d="M50.528,53.035c0,0.251-0.193,0.463-0.463,0.463c-0.251,0-0.463-0.212-0.463-0.463
					c0-0.251,0.212-0.463,0.463-0.463C50.335,52.572,50.528,52.784,50.528,53.035z"/>
				<rect x="49.139" y="52.456" class="st13" width="0.135" height="1.157"/>
			</g>
			<g>
				<rect x="229.1" y="46.861" class="st14" width="59.068" height="19.631"/>
				<rect x="258.633" y="46.861" class="st15" width="21.542" height="15.201"/>
				<rect x="229.067" y="46.861" class="st16" width="29.393" height="15.201"/>
			</g>
			<rect x="157.079" y="46.878" class="st14" width="69.425" height="22.239"/>
			<path class="st17" d="M209.73,57.104h11.451c0.284,0,0.461-0.177,0.461-0.461V51.29c0-0.284-0.177-0.496-0.461-0.496H209.73
				c-0.248,0-0.461,0.213-0.461,0.496v5.353C209.269,56.927,209.482,57.104,209.73,57.104z"/>
			<path class="st17" d="M195.62,56.413h8.438c0.248,0,0.461-0.213,0.461-0.461v-5.141c0-0.248-0.213-0.461-0.461-0.461h-8.438
				c-0.248,0-0.461,0.213-0.461,0.461v5.141C195.159,56.201,195.372,56.413,195.62,56.413z"/>
			<path class="st17" d="M163.443,56.596h11.522c0.248,0,0.461-0.213,0.461-0.461V48.3c0-0.248-0.213-0.461-0.461-0.461h-11.522
				c-0.248,0-0.461,0.213-0.461,0.461v7.835C162.982,56.383,163.195,56.596,163.443,56.596z"/>
			<path class="st17" d="M178.43,56.596h11.522c0.248,0,0.461-0.213,0.461-0.461V48.3c0-0.248-0.213-0.461-0.461-0.461H178.43
				c-0.248,0-0.461,0.213-0.461,0.461v7.835C177.969,56.383,178.182,56.596,178.43,56.596z"/>
			<rect x="157.673" y="57.05" class="st15" width="46.673" height="10.806"/>
			<rect x="162.867" y="59.908" class="st18" width="9.139" height="5.927"/>
			<rect x="172.331" y="59.908" class="st18" width="9.139" height="5.927"/>
			<rect x="181.795" y="59.908" class="st18" width="9.139" height="5.927"/>
			<rect x="191.259" y="59.908" class="st18" width="9.139" height="5.927"/>
			<circle class="st19" cx="169.482" cy="58.388" r="0.621"/>
			<circle class="st19" cx="174.958" cy="58.388" r="0.621"/>
			<circle class="st19" cx="178.916" cy="58.388" r="0.621"/>
			<circle class="st19" cx="184.393" cy="58.388" r="0.621"/>
			<circle class="st19" cx="188.351" cy="58.388" r="0.621"/>
			<circle class="st19" cx="193.827" cy="58.388" r="0.621"/>
			<circle class="st19" cx="197.785" cy="58.388" r="0.621"/>
			<polygon class="st20" points="165.139,53.451 165.139,55.33 173.222,55.33 173.222,53.451 173.045,53.451 173.045,52.175 
				173.222,52.175 173.222,50.331 171.45,50.331 171.45,49.161 170.67,49.161 170.67,48.594 167.656,48.594 167.656,49.161 
				166.912,49.161 166.912,50.331 165.139,50.331 165.139,52.175 165.281,52.175 165.281,53.451 			"/>
			<polygon class="st19" points="180.1,53.451 180.1,55.33 188.183,55.33 188.183,53.451 188.006,53.451 188.006,52.175 
				188.183,52.175 188.183,50.331 186.411,50.331 186.411,49.161 185.631,49.161 185.631,48.594 182.617,48.594 182.617,49.161 
				181.873,49.161 181.873,50.331 180.1,50.331 180.1,52.175 180.242,52.175 180.242,53.451 			"/>
			<path class="st21" d="M197.686,54.794h4.396c0.603,0,1.099-0.496,1.099-1.099V53.34c0-0.603-0.496-1.064-1.099-1.064h-4.396
				c-0.603,0-1.064,0.461-1.064,1.064v0.355C196.623,54.298,197.084,54.794,197.686,54.794z"/>
			<path class="st19" d="M219.475,52.155h-7.871c-0.106,0-0.213,0.071-0.213,0.177v3.014c0,0.106,0.106,0.177,0.213,0.177h7.871
				c0.106,0,0.213-0.071,0.213-0.177v-3.014C219.688,52.226,219.581,52.155,219.475,52.155z"/>
			<path class="st22" d="M224.142,52.402v2.375l-0.532-0.532v-0.461c0.142-0.071,0.177-0.213,0.142-0.355
				c-0.071-0.106-0.213-0.177-0.355-0.142c-0.106,0.071-0.177,0.213-0.142,0.355c0.035,0.071,0.106,0.106,0.142,0.142v0.567
				l0.745,0.709v0.248c-0.213,0.035-0.355,0.248-0.284,0.461c0.035,0.213,0.248,0.355,0.461,0.284
				c0.213-0.035,0.355-0.248,0.284-0.461c-0.035-0.142-0.142-0.248-0.284-0.284v-0.922l0.709-0.709v-0.461h0.177v-0.532h-0.532
				v0.532h0.177v0.355l-0.532,0.532v-1.702h0.177l-0.284-0.532l-0.248,0.532H224.142z"/>
			<path class="st4" d="M233.017,58.938h6.807c0.071,0,0.142-0.071,0.142-0.142V51.99c0-0.071-0.071-0.177-0.142-0.177h-6.807
				c-0.106,0-0.177,0.106-0.177,0.177v6.807C232.84,58.867,232.911,58.938,233.017,58.938"/>
			<path class="st4" d="M242.541,58.938h6.807c0.071,0,0.142-0.071,0.142-0.142V51.99c0-0.071-0.071-0.177-0.142-0.177h-6.807
				c-0.106,0-0.177,0.106-0.177,0.177v6.807C242.364,58.867,242.435,58.938,242.541,58.938"/>
			<path class="st4" d="M250.263,58.938h6.807c0.071,0,0.142-0.071,0.142-0.142V51.99c0-0.071-0.071-0.177-0.142-0.177h-6.807
				c-0.106,0-0.177,0.106-0.177,0.177v6.807C250.086,58.867,250.157,58.938,250.263,58.938"/>
			<g>
				<rect x="259.955" y="51.704" class="st18" width="9.139" height="5.927"/>
				<rect x="269.414" y="51.704" class="st18" width="9.139" height="5.927"/>
			</g>
			<circle class="st19" cx="234.886" cy="49.087" r="0.804"/>
			<circle class="st19" cx="237.865" cy="49.087" r="0.804"/>
			<circle class="st19" cx="244.675" cy="49.087" r="0.804"/>
			<circle class="st19" cx="247.655" cy="49.087" r="0.804"/>
			<circle class="st19" cx="251.805" cy="49.087" r="0.804"/>
			<circle class="st19" cx="254.784" cy="49.087" r="0.804"/>
			<g>
				<circle class="st19" cx="262.516" cy="49.087" r="0.804"/>
				<circle class="st19" cx="267.092" cy="49.087" r="0.804"/>
			</g>
			<g>
				<circle class="st19" cx="271.845" cy="49.087" r="0.804"/>
				<circle class="st19" cx="276.42" cy="49.087" r="0.804"/>
			</g>
			<g>
				<path class="st23" d="M223.702,66.338v2.707h-63.264v0.981h63.264v0.812h64.478v-3.214h-58.304V66h-5.862
					C223.841,66,223.702,66.135,223.702,66.338z"/>
				<path class="st23" d="M227.413,67.624H213.47c-0.139,0-0.312,0.068-0.416,0.169l-1.942,1.895
					c-0.139,0.102-0.277,0.169-0.451,0.169h-46.928c-0.139,0-0.312-0.068-0.416-0.169l-1.942-1.895
					c-0.139-0.102-0.277-0.169-0.451-0.169h-3.295v1.015h-2.463v2.199h72.247V67.624z"/>
				<path class="st7" d="M237.472,66h-10.058v4.839h20.984v-3.214h-2.22c-0.416,0-0.832-0.068-1.249-0.135l-6.243-1.353
					C238.304,66.067,237.888,66,237.472,66z"/>
				<path class="st11" d="M246.281,68.131h-2.254c-0.659,0-1.318-0.068-1.977-0.203l-4.336-0.981
					c-0.555-0.135-1.145-0.203-1.734-0.203h-2.532v3.35h12.833V68.131"/>
			</g>
			<g>
				<rect x="194.475" y="52.456" class="st13" width="0.116" height="1.157"/>
				<path class="st24" d="M194.128,53.035c0,0.251-0.212,0.463-0.463,0.463c-0.251,0-0.463-0.212-0.463-0.463
					c0-0.251,0.212-0.463,0.463-0.463C193.916,52.572,194.128,52.784,194.128,53.035z"/>
				<rect x="192.739" y="52.456" class="st13" width="0.135" height="1.157"/>
				<path class="st24" d="M192.392,53.035c0,0.251-0.193,0.463-0.463,0.463c-0.251,0-0.463-0.212-0.463-0.463
					c0-0.251,0.212-0.463,0.463-0.463C192.199,52.572,192.392,52.784,192.392,53.035z"/>
				<rect x="191.003" y="52.456" class="st13" width="0.135" height="1.157"/>
			</g>
			<path class="st22" d="M160.761,52.186h-1.737c-0.142-0.39-0.532-0.567-0.922-0.461c-0.071,0.035-0.142,0.071-0.213,0.142v0.106
				h0.39l0.248,0.461l-0.248,0.425h-0.39v0.106c0.319,0.248,0.745,0.213,0.993-0.106c0.071-0.035,0.106-0.142,0.142-0.213h1.737
				c0.106,0.355,0.496,0.496,0.815,0.39c0.071-0.035,0.142-0.071,0.177-0.106v-0.106H161.4l-0.213-0.39l0.213-0.425h0.355v-0.071
				c-0.284-0.248-0.674-0.213-0.886,0.071C160.797,52.044,160.761,52.115,160.761,52.186z"/>
			<polygon class="st8" points="159.778,62.984 160.229,62.984 160.229,64.405 160.432,64.405 160.432,63.864 160.838,63.864 
				160.838,64.247 161.604,64.247 161.604,63.232 160.838,63.232 160.838,63.593 160.432,63.593 160.432,62.15 160.838,62.15 
				160.838,62.488 161.604,62.488 161.604,61.496 160.838,61.496 160.838,61.879 160.432,61.879 160.432,61.383 160.229,61.383 
				160.229,62.714 159.778,62.714 159.755,62.308 158.966,62.308 158.966,63.368 159.755,63.368 			"/>
		</g>
	</g>
	<g>
		<g>
			<line class="st25" x1="27.346" y1="53.366" x2="27.346" y2="25.104"/>
		</g>
		<circle class="st20" cx="27.346" cy="23.287" r="1.935"/>
		<circle class="st20" cx="35.561" cy="23.287" r="1.935"/>
	</g>
	<g>
		<g>
			<polyline class="st25" points="169.164,53.536 169.164,36.115 35.456,36.115 35.456,23.779 			"/>
		</g>
	</g>
	<g>
		<g>
			<g>
				<path class="st20" d="M23.635,16.949h16.348V6.401c0-0.128-0.105-0.227-0.236-0.227H23.869c-0.129,0-0.234,0.1-0.234,0.227
					V16.949z"/>
			</g>
			<g>
				<path class="st13" d="M29.394,13.615l2.144-1.757c0.8-0.663,1.113-1.012,1.113-1.546c0-0.543-0.359-0.837-0.865-0.837
					c-0.497,0-0.837,0.276-1.316,0.865l-0.994-0.801c0.635-0.865,1.251-1.334,2.401-1.334c1.334,0,2.217,0.782,2.217,1.987v0.019
					c0,1.077-0.552,1.61-1.693,2.494l-1.049,0.81h2.806v1.224h-4.766V13.615z"/>
			</g>
		</g>
		<g>
			<g>
				<g>
					<g>
						<g>
							<path class="st20" d="M44.068,7.369V6.577h3.51v0.792h-1.284v3.492h-0.942V7.369H44.068z"/>
							<path class="st20" d="M47.331,8.639c0.076-0.202,0.184-0.374,0.324-0.516c0.14-0.142,0.308-0.252,0.504-0.33
								c0.196-0.078,0.416-0.117,0.66-0.117c0.244,0,0.465,0.039,0.663,0.117c0.198,0.078,0.367,0.188,0.507,0.33
								c0.14,0.142,0.248,0.314,0.324,0.516c0.076,0.202,0.114,0.427,0.114,0.675s-0.038,0.472-0.114,0.672
								c-0.076,0.2-0.184,0.371-0.324,0.513c-0.14,0.142-0.309,0.251-0.507,0.327c-0.198,0.076-0.419,0.114-0.663,0.114
								c-0.244,0-0.464-0.038-0.66-0.114c-0.196-0.076-0.364-0.185-0.504-0.327c-0.14-0.142-0.248-0.313-0.324-0.513
								c-0.076-0.2-0.114-0.424-0.114-0.672S47.256,8.841,47.331,8.639z M48.106,9.677c0.024,0.118,0.065,0.224,0.123,0.318
								c0.058,0.094,0.135,0.169,0.231,0.225c0.096,0.056,0.216,0.084,0.36,0.084s0.265-0.028,0.363-0.084
								c0.098-0.056,0.176-0.131,0.234-0.225c0.058-0.094,0.099-0.2,0.123-0.318c0.024-0.118,0.036-0.239,0.036-0.363
								s-0.012-0.246-0.036-0.366c-0.024-0.12-0.065-0.226-0.123-0.318c-0.058-0.092-0.136-0.167-0.234-0.225
								s-0.219-0.087-0.363-0.087s-0.264,0.029-0.36,0.087c-0.096,0.058-0.173,0.133-0.231,0.225
								c-0.058,0.092-0.099,0.198-0.123,0.318c-0.024,0.12-0.036,0.242-0.036,0.366S48.081,9.559,48.106,9.677z"/>
							<path class="st20" d="M53.476,7.76v0.42h0.012c0.112-0.16,0.247-0.284,0.405-0.372c0.158-0.088,0.339-0.132,0.543-0.132
								c0.196,0,0.375,0.038,0.537,0.114c0.162,0.076,0.285,0.21,0.369,0.402c0.092-0.136,0.217-0.256,0.375-0.36
								c0.158-0.104,0.345-0.156,0.561-0.156c0.164,0,0.316,0.02,0.456,0.06c0.14,0.04,0.26,0.104,0.36,0.192
								s0.178,0.203,0.234,0.345s0.084,0.313,0.084,0.513v2.076h-0.852V9.104c0-0.104-0.004-0.202-0.012-0.294
								c-0.008-0.092-0.03-0.172-0.066-0.24c-0.036-0.068-0.089-0.122-0.159-0.162s-0.165-0.06-0.285-0.06
								c-0.12,0-0.217,0.023-0.291,0.069c-0.074,0.046-0.132,0.106-0.174,0.18c-0.042,0.074-0.07,0.158-0.084,0.252
								c-0.014,0.094-0.021,0.189-0.021,0.285v1.728h-0.852v-1.74c0-0.092-0.002-0.183-0.006-0.273
								c-0.004-0.09-0.021-0.173-0.051-0.249c-0.03-0.076-0.08-0.137-0.15-0.183S54.236,8.347,54.1,8.347
								c-0.04,0-0.093,0.009-0.159,0.027c-0.066,0.018-0.13,0.052-0.192,0.102c-0.062,0.05-0.115,0.122-0.159,0.216
								s-0.066,0.217-0.066,0.369v1.8h-0.852V7.76H53.476z"/>
							<path class="st20" d="M58.048,8.714c0.012-0.2,0.062-0.366,0.15-0.498s0.2-0.238,0.336-0.318
								c0.136-0.08,0.289-0.137,0.459-0.171c0.17-0.034,0.341-0.051,0.513-0.051c0.156,0,0.314,0.011,0.474,0.033
								c0.16,0.022,0.306,0.065,0.438,0.129c0.132,0.064,0.24,0.153,0.324,0.267c0.084,0.114,0.126,0.265,0.126,0.453v1.614
								c0,0.14,0.008,0.274,0.024,0.402c0.016,0.128,0.044,0.224,0.084,0.288h-0.864c-0.016-0.048-0.029-0.097-0.039-0.147
								c-0.01-0.05-0.017-0.101-0.021-0.153c-0.136,0.14-0.296,0.238-0.48,0.294c-0.184,0.056-0.372,0.084-0.564,0.084
								c-0.148,0-0.286-0.018-0.414-0.054s-0.24-0.092-0.336-0.168c-0.096-0.076-0.171-0.172-0.225-0.288
								c-0.054-0.116-0.081-0.254-0.081-0.414c0-0.176,0.031-0.321,0.093-0.435c0.062-0.114,0.142-0.205,0.24-0.273
								c0.098-0.068,0.21-0.119,0.336-0.153c0.126-0.034,0.253-0.061,0.381-0.081c0.128-0.02,0.254-0.036,0.378-0.048
								c0.124-0.012,0.234-0.03,0.33-0.054c0.096-0.024,0.172-0.059,0.228-0.105c0.056-0.046,0.082-0.113,0.078-0.201
								c0-0.092-0.015-0.165-0.045-0.219c-0.03-0.054-0.07-0.096-0.12-0.126c-0.05-0.03-0.108-0.05-0.174-0.06
								c-0.066-0.01-0.137-0.015-0.213-0.015c-0.168,0-0.3,0.036-0.396,0.108c-0.096,0.072-0.152,0.192-0.168,0.36H58.048z
								 M60.016,9.344c-0.036,0.032-0.081,0.057-0.135,0.075c-0.054,0.018-0.112,0.033-0.174,0.045
								c-0.062,0.012-0.127,0.022-0.195,0.03c-0.068,0.008-0.136,0.018-0.204,0.03c-0.064,0.012-0.127,0.028-0.189,0.048
								s-0.116,0.047-0.162,0.081c-0.046,0.034-0.083,0.077-0.111,0.129C58.818,9.834,58.804,9.9,58.804,9.98
								c0,0.076,0.014,0.14,0.042,0.192s0.066,0.093,0.114,0.123c0.048,0.03,0.104,0.051,0.168,0.063
								c0.064,0.012,0.13,0.018,0.198,0.018c0.168,0,0.298-0.028,0.39-0.084c0.092-0.056,0.16-0.123,0.204-0.201
								c0.044-0.078,0.071-0.157,0.081-0.237c0.01-0.08,0.015-0.144,0.015-0.192V9.344z"/>
							<path class="st20" d="M62.337,7.76v0.432h0.018c0.108-0.18,0.248-0.311,0.42-0.393c0.172-0.082,0.348-0.123,0.528-0.123
								c0.228,0,0.415,0.031,0.561,0.093c0.146,0.062,0.261,0.148,0.345,0.258s0.143,0.244,0.177,0.402
								c0.034,0.158,0.051,0.333,0.051,0.525v1.908h-0.852V9.11c0-0.256-0.04-0.447-0.12-0.573c-0.08-0.126-0.222-0.189-0.426-0.189
								c-0.232,0-0.4,0.069-0.504,0.207c-0.104,0.138-0.156,0.365-0.156,0.681v1.626h-0.852V7.76H62.337z"/>
							<path class="st20" d="M65.05,8.714c0.012-0.2,0.062-0.366,0.15-0.498s0.2-0.238,0.336-0.318
								c0.136-0.08,0.289-0.137,0.459-0.171c0.17-0.034,0.341-0.051,0.513-0.051c0.156,0,0.314,0.011,0.474,0.033
								c0.16,0.022,0.306,0.065,0.438,0.129c0.132,0.064,0.24,0.153,0.324,0.267c0.084,0.114,0.126,0.265,0.126,0.453v1.614
								c0,0.14,0.008,0.274,0.024,0.402c0.016,0.128,0.044,0.224,0.084,0.288h-0.864c-0.016-0.048-0.029-0.097-0.039-0.147
								c-0.01-0.05-0.017-0.101-0.021-0.153c-0.136,0.14-0.296,0.238-0.48,0.294c-0.184,0.056-0.372,0.084-0.564,0.084
								c-0.148,0-0.286-0.018-0.414-0.054s-0.24-0.092-0.336-0.168c-0.096-0.076-0.171-0.172-0.225-0.288
								c-0.054-0.116-0.081-0.254-0.081-0.414c0-0.176,0.031-0.321,0.093-0.435c0.062-0.114,0.142-0.205,0.24-0.273
								c0.098-0.068,0.21-0.119,0.336-0.153c0.126-0.034,0.253-0.061,0.381-0.081c0.128-0.02,0.254-0.036,0.378-0.048
								c0.124-0.012,0.234-0.03,0.33-0.054c0.096-0.024,0.172-0.059,0.228-0.105c0.056-0.046,0.082-0.113,0.078-0.201
								c0-0.092-0.015-0.165-0.045-0.219c-0.03-0.054-0.07-0.096-0.12-0.126c-0.05-0.03-0.108-0.05-0.174-0.06
								c-0.066-0.01-0.137-0.015-0.213-0.015c-0.168,0-0.3,0.036-0.396,0.108c-0.096,0.072-0.152,0.192-0.168,0.36H65.05z
								 M67.017,9.344c-0.036,0.032-0.081,0.057-0.135,0.075c-0.054,0.018-0.112,0.033-0.174,0.045
								c-0.062,0.012-0.127,0.022-0.195,0.03c-0.068,0.008-0.136,0.018-0.204,0.03c-0.064,0.012-0.127,0.028-0.189,0.048
								s-0.116,0.047-0.162,0.081c-0.046,0.034-0.083,0.077-0.111,0.129C65.82,9.834,65.806,9.9,65.806,9.98
								c0,0.076,0.014,0.14,0.042,0.192s0.066,0.093,0.114,0.123c0.048,0.03,0.104,0.051,0.168,0.063
								c0.064,0.012,0.13,0.018,0.198,0.018c0.168,0,0.298-0.028,0.39-0.084c0.092-0.056,0.16-0.123,0.204-0.201
								c0.044-0.078,0.071-0.157,0.081-0.237c0.01-0.08,0.015-0.144,0.015-0.192V9.344z"/>
							<path class="st20" d="M71.46,11.09c-0.034,0.16-0.107,0.309-0.219,0.447c-0.112,0.138-0.274,0.255-0.486,0.351
								c-0.212,0.096-0.496,0.144-0.852,0.144c-0.152,0-0.307-0.019-0.465-0.057s-0.302-0.097-0.432-0.177
								c-0.13-0.08-0.238-0.183-0.324-0.309s-0.135-0.277-0.147-0.453h0.846c0.04,0.16,0.118,0.271,0.234,0.333
								c0.116,0.062,0.25,0.093,0.402,0.093c0.24,0,0.415-0.072,0.525-0.216c0.11-0.144,0.163-0.326,0.159-0.546v-0.408h-0.012
								c-0.092,0.164-0.223,0.285-0.393,0.363s-0.349,0.117-0.537,0.117c-0.232,0-0.432-0.041-0.6-0.123s-0.306-0.194-0.414-0.336
								s-0.187-0.308-0.237-0.498c-0.05-0.19-0.075-0.391-0.075-0.603c0-0.2,0.029-0.393,0.087-0.579s0.143-0.35,0.255-0.492
								c0.112-0.142,0.251-0.255,0.417-0.339s0.357-0.126,0.573-0.126c0.204,0,0.383,0.038,0.537,0.114
								c0.154,0.076,0.283,0.204,0.387,0.384h0.012V7.76h0.81v2.904C71.512,10.788,71.495,10.93,71.46,11.09z M70.293,10.057
								c0.092-0.048,0.168-0.112,0.228-0.192s0.105-0.171,0.135-0.273c0.03-0.102,0.045-0.209,0.045-0.321
								c0-0.128-0.012-0.249-0.036-0.363c-0.024-0.114-0.064-0.215-0.12-0.303c-0.056-0.088-0.13-0.158-0.222-0.21
								c-0.092-0.052-0.208-0.078-0.348-0.078c-0.12,0-0.223,0.024-0.309,0.072c-0.086,0.048-0.158,0.113-0.216,0.195
								c-0.058,0.082-0.1,0.176-0.126,0.282c-0.026,0.106-0.039,0.217-0.039,0.333c0,0.112,0.011,0.223,0.033,0.333
								c0.022,0.11,0.06,0.209,0.114,0.297c0.054,0.088,0.125,0.16,0.213,0.216s0.198,0.084,0.33,0.084
								C70.096,10.13,70.202,10.106,70.293,10.057z"/>
							<path class="st20" d="M73.107,10.118c0.128,0.124,0.312,0.186,0.552,0.186c0.172,0,0.32-0.043,0.444-0.129
								s0.2-0.177,0.228-0.273h0.75c-0.12,0.372-0.304,0.638-0.552,0.798c-0.248,0.16-0.548,0.24-0.9,0.24
								c-0.244,0-0.464-0.039-0.66-0.117c-0.196-0.078-0.362-0.189-0.498-0.333c-0.136-0.144-0.241-0.316-0.315-0.516
								c-0.074-0.2-0.111-0.42-0.111-0.66c0-0.232,0.038-0.448,0.114-0.648c0.076-0.2,0.184-0.373,0.324-0.519
								c0.14-0.146,0.307-0.261,0.501-0.345c0.194-0.084,0.409-0.126,0.645-0.126c0.264,0,0.494,0.051,0.69,0.153
								c0.196,0.102,0.357,0.239,0.483,0.411s0.217,0.368,0.273,0.588c0.056,0.22,0.076,0.45,0.06,0.69h-2.238
								C72.91,9.794,72.979,9.993,73.107,10.118z M74.071,8.486c-0.102-0.112-0.257-0.168-0.465-0.168
								c-0.136,0-0.249,0.023-0.339,0.069s-0.162,0.103-0.216,0.171c-0.054,0.068-0.092,0.14-0.114,0.216
								c-0.022,0.076-0.035,0.144-0.039,0.204h1.386C74.244,8.762,74.172,8.597,74.071,8.486z"/>
							<path class="st20" d="M76.467,7.76v0.42h0.012c0.112-0.16,0.247-0.284,0.405-0.372c0.158-0.088,0.339-0.132,0.543-0.132
								c0.196,0,0.375,0.038,0.537,0.114c0.162,0.076,0.285,0.21,0.369,0.402c0.092-0.136,0.217-0.256,0.375-0.36
								c0.158-0.104,0.345-0.156,0.561-0.156c0.164,0,0.316,0.02,0.456,0.06c0.14,0.04,0.26,0.104,0.36,0.192
								s0.178,0.203,0.234,0.345s0.084,0.313,0.084,0.513v2.076h-0.852V9.104c0-0.104-0.004-0.202-0.012-0.294
								c-0.008-0.092-0.03-0.172-0.066-0.24c-0.036-0.068-0.089-0.122-0.159-0.162s-0.165-0.06-0.285-0.06
								c-0.12,0-0.217,0.023-0.291,0.069c-0.074,0.046-0.132,0.106-0.174,0.18c-0.042,0.074-0.07,0.158-0.084,0.252
								c-0.014,0.094-0.021,0.189-0.021,0.285v1.728h-0.852v-1.74c0-0.092-0.002-0.183-0.006-0.273
								c-0.004-0.09-0.021-0.173-0.051-0.249c-0.03-0.076-0.08-0.137-0.15-0.183s-0.173-0.069-0.309-0.069
								c-0.04,0-0.093,0.009-0.159,0.027c-0.066,0.018-0.13,0.052-0.192,0.102c-0.062,0.05-0.115,0.122-0.159,0.216
								s-0.066,0.217-0.066,0.369v1.8h-0.852V7.76H76.467z"/>
							<path class="st20" d="M81.987,10.118c0.128,0.124,0.312,0.186,0.552,0.186c0.172,0,0.32-0.043,0.444-0.129
								s0.2-0.177,0.228-0.273h0.75c-0.12,0.372-0.304,0.638-0.552,0.798c-0.248,0.16-0.548,0.24-0.9,0.24
								c-0.244,0-0.464-0.039-0.66-0.117c-0.196-0.078-0.362-0.189-0.498-0.333c-0.136-0.144-0.241-0.316-0.315-0.516
								c-0.074-0.2-0.111-0.42-0.111-0.66c0-0.232,0.038-0.448,0.114-0.648c0.076-0.2,0.184-0.373,0.324-0.519
								c0.14-0.146,0.307-0.261,0.501-0.345c0.194-0.084,0.409-0.126,0.645-0.126c0.264,0,0.494,0.051,0.69,0.153
								c0.196,0.102,0.357,0.239,0.483,0.411s0.217,0.368,0.273,0.588c0.056,0.22,0.076,0.45,0.06,0.69h-2.238
								C81.789,9.794,81.859,9.993,81.987,10.118z M82.951,8.486c-0.102-0.112-0.257-0.168-0.465-0.168
								c-0.136,0-0.249,0.023-0.339,0.069s-0.162,0.103-0.216,0.171c-0.054,0.068-0.092,0.14-0.114,0.216
								c-0.022,0.076-0.035,0.144-0.039,0.204h1.386C83.123,8.762,83.052,8.597,82.951,8.486z"/>
							<path class="st20" d="M85.329,7.76v0.432h0.018c0.108-0.18,0.248-0.311,0.42-0.393c0.172-0.082,0.348-0.123,0.528-0.123
								c0.228,0,0.415,0.031,0.561,0.093s0.261,0.148,0.345,0.258s0.143,0.244,0.177,0.402c0.034,0.158,0.051,0.333,0.051,0.525
								v1.908h-0.852V9.11c0-0.256-0.04-0.447-0.12-0.573c-0.08-0.126-0.222-0.189-0.426-0.189c-0.232,0-0.4,0.069-0.504,0.207
								c-0.104,0.138-0.156,0.365-0.156,0.681v1.626h-0.852V7.76H85.329z"/>
							<path class="st20" d="M89.781,7.76v0.57h-0.624v1.536c0,0.144,0.024,0.24,0.072,0.288s0.144,0.072,0.288,0.072
								c0.048,0,0.094-0.002,0.138-0.006s0.086-0.01,0.126-0.018v0.66c-0.072,0.012-0.152,0.02-0.24,0.024s-0.174,0.006-0.258,0.006
								c-0.132,0-0.257-0.009-0.375-0.027c-0.118-0.018-0.222-0.053-0.312-0.105c-0.09-0.052-0.161-0.126-0.213-0.222
								c-0.052-0.096-0.078-0.222-0.078-0.378v-1.83h-0.516V7.76h0.516v-0.93h0.852v0.93H89.781z"/>
							<path class="st20" d="M45.123,14.191v0.432h0.018c0.108-0.18,0.248-0.311,0.42-0.393c0.172-0.082,0.348-0.123,0.528-0.123
								c0.228,0,0.415,0.031,0.561,0.093s0.261,0.148,0.345,0.258s0.143,0.244,0.177,0.402c0.034,0.158,0.051,0.333,0.051,0.525
								v1.908h-0.852v-1.752c0-0.256-0.04-0.447-0.12-0.573c-0.08-0.126-0.222-0.189-0.426-0.189c-0.232,0-0.4,0.069-0.504,0.207
								c-0.104,0.138-0.156,0.365-0.156,0.681v1.626h-0.852v-3.102H45.123z"/>
							<path class="st20" d="M48.784,16.549c0.128,0.124,0.312,0.186,0.552,0.186c0.172,0,0.32-0.043,0.444-0.129
								s0.2-0.177,0.228-0.273h0.75c-0.12,0.372-0.304,0.638-0.552,0.798c-0.248,0.16-0.548,0.24-0.9,0.24
								c-0.244,0-0.464-0.039-0.66-0.117c-0.196-0.078-0.362-0.189-0.498-0.333c-0.136-0.144-0.241-0.316-0.315-0.516
								c-0.074-0.2-0.111-0.42-0.111-0.66c0-0.232,0.038-0.448,0.114-0.648c0.076-0.2,0.184-0.373,0.324-0.519
								c0.14-0.146,0.307-0.261,0.501-0.345c0.194-0.084,0.409-0.126,0.645-0.126c0.264,0,0.494,0.051,0.69,0.153
								c0.196,0.102,0.357,0.239,0.483,0.411s0.217,0.368,0.273,0.588c0.056,0.22,0.076,0.45,0.06,0.69h-2.238
								C48.586,16.225,48.656,16.425,48.784,16.549z M49.747,14.917c-0.102-0.112-0.257-0.168-0.465-0.168
								c-0.136,0-0.249,0.023-0.339,0.069s-0.162,0.103-0.216,0.171c-0.054,0.068-0.092,0.14-0.114,0.216
								c-0.022,0.076-0.035,0.144-0.039,0.204h1.386C49.92,15.193,49.849,15.029,49.747,14.917z"/>
							<path class="st20" d="M53.019,14.191v0.57h-0.624v1.536c0,0.144,0.024,0.24,0.072,0.288s0.144,0.072,0.288,0.072
								c0.048,0,0.094-0.002,0.138-0.006s0.086-0.01,0.126-0.018v0.66c-0.072,0.012-0.152,0.02-0.24,0.024s-0.174,0.006-0.258,0.006
								c-0.132,0-0.257-0.009-0.375-0.027c-0.118-0.018-0.222-0.053-0.312-0.105c-0.09-0.052-0.161-0.126-0.213-0.222
								c-0.052-0.096-0.078-0.222-0.078-0.378v-1.83h-0.516v-0.57h0.516v-0.93h0.852v0.93H53.019z"/>
							<path class="st20" d="M56.098,17.293l-0.552-2.082h-0.012l-0.528,2.082h-0.882l-0.984-3.102h0.9l0.57,2.106h0.012
								l0.516-2.106h0.828l0.528,2.1h0.012l0.57-2.1h0.876l-0.978,3.102H56.098z"/>
							<path class="st20" d="M58.329,15.07c0.076-0.202,0.184-0.374,0.324-0.516c0.14-0.142,0.308-0.252,0.504-0.33
								c0.196-0.078,0.416-0.117,0.66-0.117c0.244,0,0.465,0.039,0.663,0.117c0.198,0.078,0.367,0.188,0.507,0.33
								c0.14,0.142,0.248,0.314,0.324,0.516c0.076,0.202,0.114,0.427,0.114,0.675s-0.038,0.472-0.114,0.672
								c-0.076,0.2-0.184,0.371-0.324,0.513c-0.14,0.142-0.309,0.251-0.507,0.327c-0.198,0.076-0.419,0.114-0.663,0.114
								c-0.244,0-0.464-0.038-0.66-0.114c-0.196-0.076-0.364-0.185-0.504-0.327c-0.14-0.142-0.248-0.313-0.324-0.513
								c-0.076-0.2-0.114-0.424-0.114-0.672S58.253,15.272,58.329,15.07z M59.103,16.108c0.024,0.118,0.065,0.224,0.123,0.318
								c0.058,0.094,0.135,0.169,0.231,0.225c0.096,0.056,0.216,0.084,0.36,0.084s0.265-0.028,0.363-0.084
								c0.098-0.056,0.176-0.131,0.234-0.225c0.058-0.094,0.099-0.2,0.123-0.318c0.024-0.118,0.036-0.239,0.036-0.363
								s-0.012-0.246-0.036-0.366c-0.024-0.12-0.065-0.226-0.123-0.318c-0.058-0.092-0.136-0.167-0.234-0.225
								s-0.219-0.087-0.363-0.087s-0.264,0.029-0.36,0.087c-0.096,0.058-0.173,0.133-0.231,0.225
								c-0.058,0.092-0.099,0.198-0.123,0.318c-0.024,0.12-0.036,0.242-0.036,0.366S59.079,15.99,59.103,16.108z"/>
							<path class="st20" d="M62.787,14.191v0.576h0.012c0.04-0.096,0.094-0.185,0.162-0.267c0.068-0.082,0.146-0.152,0.234-0.21
								s0.182-0.103,0.282-0.135c0.1-0.032,0.204-0.048,0.312-0.048c0.056,0,0.118,0.01,0.186,0.03v0.792
								c-0.04-0.008-0.088-0.015-0.144-0.021c-0.056-0.006-0.11-0.009-0.162-0.009c-0.156,0-0.288,0.026-0.396,0.078
								c-0.108,0.052-0.195,0.123-0.261,0.213s-0.113,0.195-0.141,0.315c-0.028,0.12-0.042,0.25-0.042,0.39v1.398h-0.852v-3.102
								H62.787z"/>
							<path class="st20" d="M65.241,13.009v2.298l1.074-1.116h1.008l-1.17,1.14l1.302,1.962h-1.032l-0.852-1.386l-0.33,0.318v1.068
								h-0.852v-4.284H65.241z"/>
							<path class="st20" d="M70.14,16.522c0.038,0.066,0.087,0.12,0.147,0.162s0.129,0.073,0.207,0.093s0.159,0.03,0.243,0.03
								c0.06,0,0.123-0.007,0.189-0.021c0.066-0.014,0.126-0.036,0.18-0.066c0.054-0.03,0.099-0.07,0.135-0.12
								c0.036-0.05,0.054-0.113,0.054-0.189c0-0.128-0.085-0.224-0.255-0.288s-0.407-0.128-0.711-0.192
								c-0.124-0.028-0.245-0.061-0.363-0.099c-0.118-0.038-0.223-0.088-0.315-0.15c-0.092-0.062-0.166-0.14-0.222-0.234
								c-0.056-0.094-0.084-0.209-0.084-0.345c0-0.2,0.039-0.364,0.117-0.492c0.078-0.128,0.181-0.229,0.309-0.303
								c0.128-0.074,0.272-0.126,0.432-0.156c0.16-0.03,0.324-0.045,0.492-0.045s0.331,0.016,0.489,0.048
								c0.158,0.032,0.299,0.086,0.423,0.162c0.124,0.076,0.227,0.177,0.309,0.303s0.131,0.285,0.147,0.477h-0.81
								c-0.012-0.164-0.074-0.275-0.186-0.333c-0.112-0.058-0.244-0.087-0.396-0.087c-0.048,0-0.1,0.003-0.156,0.009
								s-0.107,0.019-0.153,0.039c-0.046,0.02-0.085,0.049-0.117,0.087c-0.032,0.038-0.048,0.089-0.048,0.153
								c0,0.076,0.028,0.138,0.084,0.186c0.056,0.048,0.129,0.087,0.219,0.117c0.09,0.03,0.193,0.057,0.309,0.081
								s0.234,0.05,0.354,0.078c0.124,0.028,0.245,0.062,0.363,0.102c0.118,0.04,0.223,0.093,0.315,0.159
								c0.092,0.066,0.166,0.148,0.222,0.246c0.056,0.098,0.084,0.219,0.084,0.363c0,0.204-0.041,0.375-0.123,0.513
								c-0.082,0.138-0.189,0.249-0.321,0.333s-0.283,0.143-0.453,0.177c-0.17,0.034-0.343,0.051-0.519,0.051
								c-0.18,0-0.356-0.018-0.528-0.054s-0.325-0.096-0.459-0.18c-0.134-0.084-0.244-0.195-0.33-0.333
								c-0.086-0.138-0.133-0.311-0.141-0.519h0.81C70.083,16.377,70.102,16.456,70.14,16.522z"/>
							<path class="st20" d="M75.315,17.293l-0.552-2.082h-0.012l-0.528,2.082h-0.882l-0.984-3.102h0.9l0.57,2.106h0.012
								l0.516-2.106h0.828l0.528,2.1h0.012l0.57-2.1h0.876l-0.978,3.102H75.315z"/>
							<path class="st20" d="M77.553,13.711v-0.702h0.852v0.702H77.553z M78.405,14.191v3.102h-0.852v-3.102H78.405z"/>
							<path class="st20" d="M80.78,14.191v0.57h-0.624v1.536c0,0.144,0.024,0.24,0.072,0.288s0.144,0.072,0.288,0.072
								c0.048,0,0.094-0.002,0.138-0.006s0.086-0.01,0.126-0.018v0.66c-0.072,0.012-0.152,0.02-0.24,0.024s-0.174,0.006-0.258,0.006
								c-0.132,0-0.257-0.009-0.375-0.027c-0.118-0.018-0.222-0.053-0.312-0.105c-0.09-0.052-0.161-0.126-0.213-0.222
								c-0.052-0.096-0.078-0.222-0.078-0.378v-1.83h-0.516v-0.57h0.516v-0.93h0.852v0.93H80.78z"/>
							<path class="st20" d="M82.67,14.749c-0.136,0-0.25,0.031-0.342,0.093c-0.092,0.062-0.167,0.142-0.225,0.24
								c-0.058,0.098-0.099,0.206-0.123,0.324c-0.024,0.118-0.036,0.235-0.036,0.351c0,0.112,0.012,0.226,0.036,0.342
								c0.024,0.116,0.063,0.221,0.117,0.315c0.054,0.094,0.127,0.171,0.219,0.231c0.092,0.06,0.204,0.09,0.336,0.09
								c0.204,0,0.361-0.057,0.471-0.171c0.11-0.114,0.179-0.267,0.207-0.459h0.822c-0.056,0.412-0.216,0.726-0.48,0.942
								c-0.264,0.216-0.602,0.324-1.014,0.324c-0.232,0-0.445-0.039-0.639-0.117c-0.194-0.078-0.359-0.187-0.495-0.327
								c-0.136-0.14-0.242-0.307-0.318-0.501c-0.076-0.194-0.114-0.407-0.114-0.639c0-0.24,0.035-0.463,0.105-0.669
								s0.173-0.384,0.309-0.534c0.136-0.15,0.302-0.267,0.498-0.351c0.196-0.084,0.42-0.126,0.672-0.126
								c0.184,0,0.361,0.024,0.531,0.072c0.17,0.048,0.322,0.121,0.456,0.219c0.134,0.098,0.243,0.22,0.327,0.366
								s0.132,0.319,0.144,0.519H83.3C83.244,14.927,83.034,14.749,82.67,14.749z"/>
							<path class="st20" d="M85.484,13.009v1.614h0.018c0.108-0.18,0.246-0.311,0.414-0.393s0.332-0.123,0.492-0.123
								c0.228,0,0.415,0.031,0.561,0.093s0.261,0.148,0.345,0.258s0.143,0.244,0.177,0.402c0.034,0.158,0.051,0.333,0.051,0.525
								v1.908H86.69v-1.752c0-0.256-0.04-0.447-0.12-0.573c-0.08-0.126-0.222-0.189-0.426-0.189c-0.232,0-0.4,0.069-0.504,0.207
								c-0.104,0.138-0.156,0.365-0.156,0.681v1.626h-0.852v-4.284H85.484z"/>
							<path class="st20" d="M89.102,16.549c0.128,0.124,0.312,0.186,0.552,0.186c0.172,0,0.32-0.043,0.444-0.129
								s0.2-0.177,0.228-0.273h0.75c-0.12,0.372-0.304,0.638-0.552,0.798c-0.248,0.16-0.548,0.24-0.9,0.24
								c-0.244,0-0.464-0.039-0.66-0.117c-0.196-0.078-0.362-0.189-0.498-0.333c-0.136-0.144-0.241-0.316-0.315-0.516
								c-0.074-0.2-0.111-0.42-0.111-0.66c0-0.232,0.038-0.448,0.114-0.648c0.076-0.2,0.184-0.373,0.324-0.519
								c0.14-0.146,0.307-0.261,0.501-0.345c0.194-0.084,0.409-0.126,0.645-0.126c0.264,0,0.494,0.051,0.69,0.153
								c0.196,0.102,0.357,0.239,0.483,0.411s0.217,0.368,0.273,0.588c0.056,0.22,0.076,0.45,0.06,0.69h-2.238
								C88.904,16.225,88.974,16.425,89.102,16.549z M90.065,14.917c-0.102-0.112-0.257-0.168-0.465-0.168
								c-0.136,0-0.249,0.023-0.339,0.069s-0.162,0.103-0.216,0.171c-0.054,0.068-0.092,0.14-0.114,0.216
								c-0.022,0.076-0.035,0.144-0.039,0.204h1.386C90.238,15.193,90.167,15.029,90.065,14.917z"/>
							<path class="st20" d="M92.351,16.522c0.038,0.066,0.087,0.12,0.147,0.162s0.129,0.073,0.207,0.093s0.159,0.03,0.243,0.03
								c0.06,0,0.123-0.007,0.189-0.021c0.066-0.014,0.126-0.036,0.18-0.066c0.054-0.03,0.099-0.07,0.135-0.12
								c0.036-0.05,0.054-0.113,0.054-0.189c0-0.128-0.085-0.224-0.255-0.288s-0.407-0.128-0.711-0.192
								c-0.124-0.028-0.245-0.061-0.363-0.099c-0.118-0.038-0.223-0.088-0.315-0.15c-0.092-0.062-0.166-0.14-0.222-0.234
								c-0.056-0.094-0.084-0.209-0.084-0.345c0-0.2,0.039-0.364,0.117-0.492c0.078-0.128,0.181-0.229,0.309-0.303
								c0.128-0.074,0.272-0.126,0.432-0.156c0.16-0.03,0.324-0.045,0.492-0.045s0.331,0.016,0.489,0.048
								c0.158,0.032,0.299,0.086,0.423,0.162c0.124,0.076,0.227,0.177,0.309,0.303s0.131,0.285,0.147,0.477h-0.81
								c-0.012-0.164-0.074-0.275-0.186-0.333c-0.112-0.058-0.244-0.087-0.396-0.087c-0.048,0-0.1,0.003-0.156,0.009
								s-0.107,0.019-0.153,0.039c-0.046,0.02-0.085,0.049-0.117,0.087c-0.032,0.038-0.048,0.089-0.048,0.153
								c0,0.076,0.028,0.138,0.084,0.186c0.056,0.048,0.129,0.087,0.219,0.117c0.09,0.03,0.193,0.057,0.309,0.081
								s0.234,0.05,0.354,0.078c0.124,0.028,0.245,0.062,0.363,0.102c0.118,0.04,0.223,0.093,0.315,0.159
								c0.092,0.066,0.166,0.148,0.222,0.246c0.056,0.098,0.084,0.219,0.084,0.363c0,0.204-0.041,0.375-0.123,0.513
								c-0.082,0.138-0.189,0.249-0.321,0.333s-0.283,0.143-0.453,0.177c-0.17,0.034-0.343,0.051-0.519,0.051
								c-0.18,0-0.356-0.018-0.528-0.054s-0.325-0.096-0.459-0.18c-0.134-0.084-0.244-0.195-0.33-0.333
								c-0.086-0.138-0.133-0.311-0.141-0.519h0.81C92.294,16.377,92.313,16.456,92.351,16.522z"/>
						</g>
					</g>
				</g>
			</g>
		</g>
	</g>
</g>
</svg>
