<?xml version="1.0" encoding="utf-8"?>
<!-- Generator: Adobe Illustrator 26.5.0, SVG Export Plug-In . SVG Version: 6.00 Build 0)  -->
<svg version="1.1" xmlns="http://www.w3.org/2000/svg" xmlns:xlink="http://www.w3.org/1999/xlink" x="0px" y="0px"
	 viewBox="0 0 363.1 259.5" style="enable-background:new 0 0 363.1 259.5;" xml:space="preserve">
<style type="text/css">
	.st0{fill:#D1D3D4;}
	.st1{fill:none;stroke:#000000;stroke-width:0.5;stroke-linecap:round;stroke-linejoin:round;stroke-miterlimit:10;}
	.st2{fill:none;stroke:#000000;stroke-width:0.5;stroke-linecap:round;stroke-linejoin:round;}
	.st3{fill:none;stroke:#000000;stroke-width:0.4875;stroke-linecap:round;stroke-linejoin:round;stroke-miterlimit:10;}
	.st4{fill:none;stroke:#000000;stroke-width:0.4505;stroke-linecap:round;stroke-linejoin:round;stroke-miterlimit:10;}
	.st5{fill:none;stroke:#000000;stroke-width:0.4409;stroke-linecap:round;stroke-linejoin:round;stroke-miterlimit:10;}
	.st6{fill:none;stroke:#000000;stroke-width:0.5145;stroke-linecap:round;stroke-linejoin:round;stroke-miterlimit:10;}
	.st7{fill:none;stroke:#000000;stroke-width:0.5286;stroke-linecap:round;stroke-linejoin:round;stroke-miterlimit:10;}
	.st8{fill:none;stroke:#000000;stroke-width:0.5507;stroke-linecap:round;stroke-linejoin:round;stroke-miterlimit:10;}
	.st9{fill:none;stroke:#000000;stroke-width:0.479;stroke-linecap:round;stroke-linejoin:round;stroke-miterlimit:10;}
	.st10{fill:none;stroke:#000000;stroke-width:0.3566;stroke-linecap:round;stroke-linejoin:round;stroke-miterlimit:10;}
	.st11{fill:none;stroke:#000000;stroke-width:0.4045;stroke-linecap:round;stroke-linejoin:round;stroke-miterlimit:10;}
	.st12{fill:none;stroke:#000000;stroke-width:0.4035;stroke-linecap:round;stroke-linejoin:round;stroke-miterlimit:10;}
	.st13{fill:none;stroke:#000000;stroke-width:0.583;stroke-linecap:round;stroke-linejoin:round;stroke-miterlimit:10;}
	.st14{fill:none;stroke:#000000;stroke-width:0.5977;stroke-linecap:round;stroke-linejoin:round;stroke-miterlimit:10;}
	.st15{fill:none;stroke:#000000;stroke-width:0.5471;stroke-linecap:round;stroke-linejoin:round;stroke-miterlimit:10;}
	.st16{fill:none;stroke:#000000;stroke-width:0.5101;stroke-linecap:round;stroke-linejoin:round;stroke-miterlimit:10;}
	.st17{fill:none;stroke:#FFFFFF;stroke-width:3;stroke-linecap:round;stroke-linejoin:round;stroke-miterlimit:10;}
	.st18{fill:none;stroke:#000000;stroke-linecap:round;stroke-linejoin:round;stroke-miterlimit:10;}
	.st19{fill:none;stroke:#000000;stroke-width:0.75;stroke-linecap:round;stroke-linejoin:round;stroke-miterlimit:10;}
	.st20{fill:none;stroke:#000000;stroke-width:0.5;stroke-miterlimit:10;}
	.st21{fill:none;stroke:#000000;stroke-width:0.6099;stroke-linecap:round;stroke-linejoin:round;stroke-miterlimit:10;}
	.st22{fill:none;stroke:#EC008C;stroke-width:0.5;stroke-linecap:round;stroke-linejoin:round;stroke-miterlimit:10;}
	.st23{clip-path:url(#SVGID_00000158714720056583515960000014388923766898057901_);}
	.st24{fill:none;stroke:#000000;stroke-width:0.6991;stroke-linecap:round;stroke-linejoin:round;stroke-miterlimit:10;}
	
		.st25{clip-path:url(#SVGID_00000158714720056583515960000014388923766898057901_);fill:#2D2A26;stroke:#FFFFFF;stroke-width:1.1252;stroke-linecap:round;stroke-linejoin:round;stroke-miterlimit:10;}
	.st26{fill:#2D2A26;stroke:#FFFFFF;stroke-width:0.6446;stroke-linecap:round;stroke-linejoin:round;stroke-miterlimit:10;}
	.st27{fill-rule:evenodd;clip-rule:evenodd;fill:#010101;stroke:#FFFFFF;stroke-miterlimit:10;}
	.st28{fill:#FFFFFF;}
	.st29{font-family:'Helvetica';}
	.st30{font-size:20.8793px;}
	.st31{stroke:#FFFFFF;stroke-linecap:round;stroke-linejoin:round;stroke-miterlimit:10;}
</style>
<g id="GRAY">
	<polygon class="st0" points="209.6,164.3 207.6,165 207.5,166.8 209.1,167.9 242.9,150.9 245.9,145.6 246.6,145 258.2,138.9 
		258.2,137.9 256.9,138.5 256.7,137.1 255.2,137.7 255.1,136.2 253.7,136.9 253.6,135.4 252.3,135.9 252,134.4 250,135.4 250,137.1 
		248.8,137.7 248.8,139.4 248,139.8 248,138.2 246,139.2 246,140.8 245.2,141.2 245.1,139.8 243.3,140.7 243.2,142.2 242.6,142.6 
		242.3,141 240.5,142.1 240.3,143.7 239.6,144 239.5,142.7 238.4,143 237.9,141.5 236.3,142.4 235.9,144.1 235.5,144.5 235.3,142.9 
		233.2,143.9 233.3,145.3 232.5,145.9 232.4,144.4 230.5,145.3 230.5,146.9 229.8,147.2 229.7,145.8 227.6,146.7 227.6,148.2 
		226.9,148.5 226.8,147.2 224.9,148.1 224.9,149.6 224.3,150 224.2,148.6 222.2,149.5 222.1,151.1 221.5,151.4 221.4,149.9 
		219.5,150.9 219.5,152.6 218.6,153.1 218.5,151.3 216.5,152.3 216.5,153.8 215.8,154.3 215.6,152.9 213.7,153.8 213.6,155.6 
		212.8,155.9 212.8,154.4 210.6,155.4 210.6,161.5 209.6,161.2 209.6,163.5 	"/>
</g>
<g id="Unit">
	<g>
		<g>
			<path class="st1" d="M71.9,158.3c0,0,0-0.6,0-1.6c0-1.1,1.2-1.6,1.2-1.6s7-3.7,7.4-3.8c0.3-0.2,0.6-0.2,1.1-0.1
				c0.5,0.1,0.8-0.2,0.9-0.6c0.1-0.4,1.2-0.9,1.2-0.9l111.7-55.9c0,0,0.7-0.5,1.3-0.1c0.6,0.5,2.1,1.4,2.1,1.4s0.3,0.2,0.6-0.1
				c0.2-0.2,0.6-0.7,0.4-1.2l-0.7-0.5c0,0-0.2-0.6,0-1c0.2-0.4,0.5-0.8,0.9-0.8c0.4,0,3.1-0.2,3.1-0.2s0.7,0.2,0.8,0.6l0,3.3
				c0,0,0.1,0.5-0.4,0.8s-44.9,22.4-44.9,22.4"/>
			<path class="st1" d="M171.1,160.5c0,0-0.1-7.2,0-8.8c0.1-1.6,1.6-2.1,1.6-2.1l24.9-12.6l-6.9-3.5l6.1-3.1c0,0-22.9-11.4-23.9-12
				c-1-0.5-2.2,0-2.2,0l-6.1,3l-7.1-3.5l-23.3,11.7c0,0-2.2,0.9-2.2,2.5l0.1,1.1"/>
			<path class="st1" d="M172.2,149.4l-6.6-3.4l-6.8,3.4c0,0-1.1,0.6-1.1,1.8c0,1.1,0,3.1,0,3.1"/>
			<path class="st1" d="M133.2,130.4l6.6,3.3l-5.8,3.1l0,0.5c0,0-0.8,0.7-0.8,1.9c0,1,0.1,6.9,0.1,6.9"/>
			<line class="st1" x1="134.4" y1="136.7" x2="159.2" y2="149.1"/>
			<polyline class="st1" points="187.4,155.5 198.7,149.8 198.8,148.6 205,145.5 			"/>
			<path class="st1" d="M194.1,135c0.5-0.4,1.4-0.6,2.4-0.6c1.7,0,3,0.7,3,1.5c0,0.6-0.6,1.1-1.6,1.3"/>
			<path class="st1" d="M198.4,138.9c0.7-0.3,1.1-0.7,1.1-1.2v-1.6"/>
			<path class="st1" d="M198.3,147.3v-9.1c0,0,0.1-1-0.9-1.1"/>
			<path class="st1" d="M198.8,138.6c0.3,0.2,0.5,0.4,0.5,0.7c0,0.4-0.4,0.8-1.1,1"/>
			<path class="st1" d="M198.8,140.5c0.3,0.2,0.5,0.4,0.5,0.7c0,0.4-0.4,0.8-1.1,1"/>
			<path class="st1" d="M198.8,142.3c0.3,0.2,0.5,0.4,0.5,0.7c0,0.4-0.4,0.8-1.1,1"/>
			<g>
				<ellipse class="st1" cx="163.9" cy="150" rx="3" ry="1.5"/>
				<path class="st1" d="M160.9,150v1.7c0,0.8,1.4,1.5,3,1.5s3-0.7,3-1.5v-1.6"/>
				<path class="st1" d="M166.5,152.5c0.3,0.3,0.4,0.6,0.4,0.9c-0.1,0.8-1.6,1.3-3.2,1.1s-2.9-1.1-2.8-1.9c0-0.1,0.1-0.2,0.1-0.4"/>
				<path class="st1" d="M166.9,159.3c0,0.1,0.1,0.2,0.1,0.3c0,0.8-1.4,1.5-3,1.5s-3-0.7-3-1.5c0-0.2,0.1-0.4,0.3-0.6"/>
				<path class="st1" d="M166.3,158c0.4,0.3,0.7,0.8,0.6,1.1c-0.1,0.8-1.6,1.3-3.2,1c-1.7-0.3-2.9-1.2-2.7-2
					c0.1-0.3,0.3-0.6,0.7-0.8"/>
				<path class="st1" d="M166.3,156.1c0.4,0.3,0.6,0.7,0.5,1.1c-0.1,0.8-1.6,1.3-3.2,1c-1.7-0.3-2.9-1.2-2.7-2
					c0-0.3,0.2-0.5,0.5-0.7"/>
				<path class="st1" d="M166.3,154.3c0.4,0.3,0.6,0.7,0.6,1.1c-0.1,0.8-1.6,1.3-3.2,1c-1.7-0.3-2.9-1.2-2.7-2
					c0-0.3,0.2-0.5,0.5-0.7"/>
			</g>
			<g>
				<path class="st1" d="M136.9,172c-1.1,0-2-0.4-2-1c0-0.5,0.9-1,2-1s2,0.4,2,1"/>
				<path class="st1" d="M134.9,171.1v1.1c0,0.5,0.9,1,2,1"/>
				<path class="st1" d="M136.8,173.8c-0.8-0.1-1.5-0.5-1.4-0.9"/>
				<path class="st1" d="M136.9,176.5c-0.8,0-1.5-0.3-1.5-0.7c0-0.1,0.1-0.2,0.1-0.3"/>
				<path class="st1" d="M136.7,175.6c-0.8-0.1-1.4-0.6-1.4-1c0-0.1,0.1-0.2,0.3-0.3"/>
				<path class="st1" d="M136.7,174.7c-0.8-0.1-1.4-0.6-1.4-1c0-0.1,0.1-0.2,0.3-0.3"/>
			</g>
			<g>
				<ellipse class="st1" cx="133.6" cy="134.8" rx="3" ry="1.5"/>
				<path class="st1" d="M130.6,134.8v1.7c0,0.8,1.3,1.5,2.8,1.5"/>
				<ellipse class="st1" cx="166" cy="118.5" rx="3" ry="1.5"/>
				<line class="st1" x1="163" y1="118.5" x2="163" y2="120.2"/>
				<path class="st1" d="M133.3,139.3c-1.6-0.3-2.8-1.1-2.7-1.9c0-0.1,0.1-0.2,0.1-0.4"/>
				<path class="st1" d="M133.3,145.9c-1.5-0.1-2.7-0.7-2.7-1.5c0-0.2,0.1-0.4,0.3-0.6"/>
				<path class="st1" d="M133.3,144.9c-1.7-0.3-2.9-1.2-2.7-2c0.1-0.3,0.3-0.6,0.7-0.8"/>
				<path class="st1" d="M133.3,142.9c-1.7-0.3-2.9-1.2-2.7-2c0-0.3,0.2-0.5,0.5-0.7"/>
				<path class="st1" d="M133.3,141.2c-1.7-0.3-2.9-1.2-2.7-2c0-0.3,0.2-0.5,0.5-0.7"/>
			</g>
			<polygon class="st1" points="114,155.9 132.6,165.3 136.7,163.3 140.5,165.2 159.9,155.5 141.2,146.3 137.3,148.2 133.4,146.2 
							"/>
			<line class="st1" x1="114" y1="155.9" x2="114" y2="164.4"/>
			<line class="st1" x1="159.9" y1="155.5" x2="160" y2="161.6"/>
			<line class="st1" x1="132.6" y1="165.3" x2="132.7" y2="175.3"/>
			<line class="st1" x1="140.5" y1="165.2" x2="140.5" y2="170.6"/>
			<line class="st1" x1="136.7" y1="163.3" x2="136.7" y2="170"/>
			<polyline class="st1" points="97.4,160.7 101.6,158.6 115.1,165.3 110.8,167.4 			"/>
			<line class="st1" x1="115.1" y1="169.7" x2="115.1" y2="165.3"/>
			<line class="st1" x1="165.7" y1="146.1" x2="165.7" y2="148.6"/>
			<line class="st1" x1="166.6" y1="158.3" x2="171.1" y2="160.6"/>
			<line class="st1" x1="187.5" y1="114.8" x2="199.8" y2="108.6"/>
			<line class="st1" x1="203.2" y1="96.1" x2="203.2" y2="105.2"/>
			<polyline class="st1" points="231.9,109.3 213,99.9 207.2,102.8 206.8,103.5 199.8,107.1 199.8,113.6 205.5,116.4 206.2,116.1 
							"/>
			<polyline class="st1" points="205.4,116.1 205.4,109.9 212.6,106.2 213.8,106 219.4,103.2 			"/>
			<polyline class="st1" points="213.8,106 213.4,106.7 206.3,110.3 206.3,116.9 212,119.7 212.7,119.3 			"/>
			<polyline class="st1" points="226.1,106.4 220.2,109.5 219.2,109.5 212,113.1 211.9,119.6 			"/>
			<line class="st1" x1="206.4" y1="110.3" x2="212" y2="113.1"/>
			<line class="st1" x1="199.9" y1="107" x2="205.3" y2="109.7"/>
			<polyline class="st1" points="220.2,109.5 219.9,110 213,113.6 212.9,120.1 218.4,122.8 			"/>
			<line class="st1" x1="213" y1="113.6" x2="218.3" y2="116.3"/>
			<polyline class="st1" points="218.5,124.9 218.6,116.4 233.1,109.1 238.1,111.5 223.6,118.9 223.6,127.1 			"/>
			<line class="st1" x1="218.6" y1="116.4" x2="223.6" y2="118.9"/>
			<path class="st1" d="M238.1,111.5c0,0,0.8,0.3-0.8,3.6"/>
			<polyline class="st1" points="245.7,116.2 240.6,113.7 234.8,116.5 234.5,117.2 227.3,120.8 227.3,125.3 			"/>
			<polyline class="st1" points="253.3,122.4 253.2,118.3 247.5,115.6 233.4,122.6 233.3,127.6 			"/>
			<polyline class="st1" points="238.9,130.6 238.9,125.4 253.2,118.3 			"/>
			<line class="st1" x1="227.5" y1="120.9" x2="233.3" y2="123.7"/>
			<line class="st1" x1="233.4" y1="122.6" x2="238.9" y2="125.4"/>
			<line class="st1" x1="218" y1="124.7" x2="223.3" y2="127.4"/>
			<polygon class="st1" points="209.8,134.3 227.9,125.2 245.9,134.2 227.8,143.4 			"/>
			<polyline class="st1" points="209.8,134.3 209.8,146 219.1,150.8 			"/>
			<line class="st1" x1="227.8" y1="143.4" x2="227.9" y2="146.6"/>
			<line class="st1" x1="246.1" y1="134.2" x2="246.1" y2="138.9"/>
			<polyline class="st1" points="221.7,128.3 196.1,115.3 191.1,117.9 			"/>
			<polyline class="st1" points="216.4,130.6 188.5,116.8 179.1,121.5 			"/>
			<polyline class="st1" points="275.2,135 275.2,131 255.6,121.2 249.8,124.1 249.5,124.8 242.3,128.3 242.3,132.1 			"/>
			<polyline class="st1" points="246.2,136.9 247.9,137.6 247.9,131 242.3,128.3 			"/>
			<polyline class="st1" points="262.1,124.5 256.5,127.3 255.2,127.4 247.9,131 			"/>
			<polyline class="st1" points="256.3,127.3 256,127.9 248.9,131.6 248.9,137.6 			"/>
			<polyline class="st1" points="268.6,127.7 262.9,130.6 261.6,130.7 254.5,134.4 248.9,131.6 			"/>
			<line class="st1" x1="254.5" y1="136.4" x2="254.5" y2="134.4"/>
			<polyline class="st1" points="255.3,137.1 255.3,134.8 262.1,131.5 262.9,130.6 			"/>
			<polyline class="st1" points="255.3,134.8 261.1,137.6 268.2,134 269.5,133.8 274.9,131 			"/>
			<polyline class="st1" points="289.6,142.8 289.6,141.6 277.4,135.1 271.6,135.1 266.6,137.6 263.9,136.2 			"/>
			<path class="st1" d="M289.6,141.6l-21.2,11l-0.8-0.5l-10.8,5.4l-1.2-0.7c0,0-0.5-0.3-1.4,0.2c-1,0.6-10.8,5.4-10.8,5.4
				s-1.1,0.4-0.2,0.8c0.9,0.4,0.8,0.5,0.8,0.5s0.4,0.1,0.3,1.1l0,0.8"/>
			<path class="st1" d="M261.1,137.6l-15,7.7c0,0-0.6,0.5-1,1.4c-0.4,0.9-2,3.7-2,3.7s-0.1,0.3-1.2,0.9c-1,0.6-32.8,16.5-32.8,16.5
				l0.1,1.2c0,0,3.5,1.7,4.8,2.6s2.7-0.2,2.7-0.2l66.3-33.4"/>
			<line class="st1" x1="30.7" y1="180.2" x2="62.8" y2="164.1"/>
			<line class="st1" x1="39.4" y1="192.7" x2="63.7" y2="180.7"/>
			<polygon class="st1" points="117.1,178.4 124.7,174.7 81.2,152.9 73.6,156.6 			"/>
			<path class="st1" d="M73.3,158.4c0,0,0.4-0.8,1.3-0.3c0.9,0.5,41.5,20.8,41.5,20.8s1,0.5,1,2.1s0,14.5,0,14.5s-0.1,1.6-1.2,1.1
				c-1.1-0.5-41.5-20.7-41.5-20.7"/>
			<line class="st1" x1="150.1" y1="215" x2="73.8" y2="176.9"/>
			<line class="st1" x1="121.1" y1="229.5" x2="158.4" y2="211"/>
			<line class="st1" x1="159" y1="212.1" x2="121.3" y2="231"/>
			<line class="st1" x1="158.9" y1="227.2" x2="121.3" y2="246.3"/>
			<polyline class="st1" points="157.2,228.2 159.1,228.9 168.4,224.2 169.2,224.5 177.9,220.1 179,218.2 181.2,217.1 183.7,217.3 
				300.7,158.8 300.7,152.6 298.4,149.3 298.4,144.7 			"/>
			<path class="st1" d="M178.8,218.4v-4.9c0,0,0.4-2.9,2.4-3.6c0,0,1.7-0.5,1.8,1.1v6"/>
			<path class="st1" d="M159.1,228.7v-17.1c0,0-0.5-1.1-2.1-1.3v1.2"/>
			<path class="st1" d="M159.1,211.6l9.6-4.8c0,0-0.5-1.1-2.1-1.3l-9.6,4.8"/>
			<path class="st1" d="M169.7,224.2l-0.1-17.4l7.7-3.9c0,0,1.3-0.9,2.2-0.2c1,0.8,1.6,1.4,3,0.8c1.4-0.7,1.4-0.7,1.4-0.7"/>
			<path class="st1" d="M183.3,201.8c0.8,0.4,0.8,1.7,0.8,1.7v2.4c0,0,0.1,2.3,2.6,1.3c2.3-1,2.5-3.8,2.5-3.8s0-2.1,0-3
				s-0.6-1.3-0.6-1.3c0-1.1-0.9-0.7-0.9-0.7l-3.6,1.9c0,0-0.6,0.3-0.7,1.4"/>
			<line class="st1" x1="169.7" y1="222.8" x2="169.6" y2="203.9"/>
			<path class="st1" d="M183.5,200.4"/>
			<path class="st1" d="M168.8,206.7v-2.7l8.6-4.1l0.6-1.1l67.4-33.6c0,0,0.7-0.1,0.8,0.5c0.1,0.6,0.3,4.5,0.3,4.5s0.9,0.6,0.8,1.5
				l11.6-5.7c0,0,0.6-0.7-0.1-1.6l0.1-4.9c0,0,0.2-1.1,1-1.5l32.8-16.3l2.7,1.8c0,0,1.2-0.1,0.9-1.4l-0.7-0.6c0,0-0.4-1.2,1-1.8
				l2.8-0.1c0,0,0.7,0,0.8,0.6l0,3.5l-41.2,20.7"/>
			<line class="st1" x1="189.4" y1="200.2" x2="246.9" y2="171.4"/>
			<line class="st1" x1="115.2" y1="166.7" x2="136.8" y2="177.5"/>
			<path class="st1" d="M136.8,178.6"/>
			<path class="st1" d="M115.3,168"/>
			<line class="st1" x1="133.1" y1="175.5" x2="135.3" y2="174.4"/>
			<line class="st1" x1="142.7" y1="181" x2="148.3" y2="178.2"/>
			<line class="st1" x1="136.3" y1="184.3" x2="137.9" y2="183.5"/>
			<path class="st1" d="M156.4,206.2"/>
			<polyline class="st1" points="166.6,205.4 166.6,203 169.1,201.7 171.1,202.7 			"/>
			<line class="st1" x1="168.8" y1="204.1" x2="166.6" y2="203"/>
			<line class="st1" x1="95.8" y1="160.2" x2="125.7" y2="145.5"/>
			<polyline class="st1" points="196.7,130.4 197.4,130.8 197.4,134.2 			"/>
			<polyline class="st1" points="199.4,141.2 205,143.9 184.7,154.2 			"/>
			<path class="st1" d="M205.2,145.9"/>
			<polygon class="st1" points="208.4,144.4 205.2,146 205.2,140.8 208.4,139.2 			"/>
			<line class="st1" x1="205.2" y1="140.8" x2="199.8" y2="138.1"/>
			<polyline class="st1" points="197.5,132.9 207,137.7 209.7,136.4 			"/>
			<polyline class="st1" points="197.5,134.2 207,138.9 209.7,137.6 			"/>
			<path class="st1" d="M62.1,163.9v-0.8l10.3-4.9l1.4,0.6c0,0,0.5,0.3,0.5,1s0,2,0,2l-9.2,4.6l-0.9-0.1v-2c0,0-0.1-1-2.2-1.3"/>
			<path class="st1" d="M63,181.2l1.3,0.6l10-5.1l-0.1-2l-0.9-0.3l-8.3,4.1c0,0-1,0.5-0.9,1.3l0,1.7"/>
			<path class="st1" d="M19.6,180.9l5.5-2.7c0,0,9.3,1.1,13.7,13.5c0,0,3.8,10.4-2.9,16l-6.2,3c0,0-2,0.3-4.5-0.9l-5.4-2.5
				c0,0-0.8-0.9-0.8-1.9c0-1,0.1-3,0.1-3"/>
			<path class="st1" d="M19.1,186.7l-0.1-4.9c0,0,0.3-1.1,2.4-0.9c0,0,9.4,3.5,12.1,13.1c0,0,4.9,10.7-2.2,15.9"/>
			<path class="st1" d="M20.8,192.3v-5.5c0,0,0.5-3.5,3.4-2.8c0,0,7.1,2.5,9.4,15.2c0,0,1.5,8.2-4.8,10.1c0,0-1.7,0.6-3.8-0.2
				s-5.8-3-5.8-3l5.4-2.7"/>
			<line class="st1" x1="26" y1="185" x2="26" y2="189.8"/>
			<path class="st1" d="M19.7,193.1l8.2-4.1c0,0,1.2,0.3,1.1,1.6l-1.1,3.8l-5,2.7l-1.7-3.1C21.2,194.1,20.7,192.9,19.7,193.1z"/>
			<path class="st1" d="M19.7,193.1c0,0-1.7,5.1,0.7,9.9l1.3-0.6c0,0,0-3.3,3-4.2c0,0,1.8-0.6,1.7,1.8l1.3-0.5c0,0,1-3.4,1-7"/>
			<path class="st1" d="M20.8,187.6c0,0,0.5,0.3-2.1-0.8c0,0-4.5-0.2-5.9,6.3v8c0,0,0,3,2.9,3.2c0,0,2.5,0.1,4-2.7"/>
			<path class="st1" d="M24.7,198.3l0.2,5.3c0,0,0.4,0.6,0.9,0.8s3.8,1.8,3.8,1.8s1.8,0.6,2.6,0.5"/>
			<path class="st1" d="M20.9,190.1c0,0-1.1,0.2-2.4-0.8c0,0-2.8,0.6-3.3,3.8l0,7.6c0,0,0.2,1.6,1.5,1.1s1.5-1.1,1.5-1.1l1-1.3"/>
			<path class="st1" d="M33.1,182.4l11-5.5c0,0,1.4-0.5,1.5,1s0,7.1,0,7.1s0.1,1.1-1.2,2.1l-5.9,2.9"/>
			<path class="st1" d="M55.9,172l-0.9,0.4c0-1.2-1-1-1-1l-6.5,3.2c-1.1,0.8-0.9,2-0.9,2l0,8.8c0,0,0.3,1.1,1.3,0.6
				c1-0.5,6.2-3,6.2-3s1.1-0.7,0.9-2l16.5-8.2V172c0,0,2.9-1,3.2-2.2l0.3-1l0-1.7c0,0-0.2-1.8-1.4-3.3v-1.6"/>
			<path class="st1" d="M69.5,173.8V173c0,0,2.9-1,3.2-2.2l0.3-1l0-1.7c0,0-0.2-1.8-1.4-3.3v-1.6"/>
			<polyline class="st1" points="56,180.6 56,171 65.4,166.4 			"/>
			<line class="st1" x1="62.5" y1="177.2" x2="62.5" y2="167.9"/>
			<polyline class="st1" points="124.2,179.1 129,176.7 129,180.9 			"/>
			<polyline class="st1" points="123.6,174 124,173.8 129,176.4 			"/>
			<polyline class="st1" points="129.2,177.3 136.9,181.3 138,180.7 			"/>
			<path class="st1" d="M142.7,179.8c0,0.7-1,1.2-2.3,1.2c-1.3,0-2.3-0.5-2.3-1.2"/>
			<path class="st1" d="M140.4,186.8c1.3,0,2.3-0.5,2.3-1.2v-5.8"/>
			<line class="st1" x1="138.1" y1="179.8" x2="138.1" y2="185.6"/>
			<path class="st1" d="M131.5,147"/>
			<line class="st1" x1="130.4" y1="141.6" x2="125.6" y2="144"/>
			<polyline class="st1" points="125.6,144 125.6,145.6 130.1,147.9 			"/>
			<path class="st1" d="M69.9,164.6c0,0,3,2.7,0.1,8.2"/>
			<line class="st1" x1="73.3" y1="174.3" x2="73.3" y2="171.2"/>
			<g>
				<polygon class="st1" points="91.7,176.1 78.4,169.6 78.4,174.9 91.8,181.6 				"/>
				<polyline class="st1" points="91.8,181.6 93.1,181 93,175.5 79.7,168.9 78.4,169.6 				"/>
				<line class="st1" x1="78.4" y1="174.9" x2="83.6" y2="172.2"/>
				<polyline class="st1" points="85,173 85,178.1 90.2,175.5 				"/>
				<line class="st1" x1="91.7" y1="176.1" x2="93" y2="175.5"/>
			</g>
			<g>
				<polygon class="st1" points="104,181.6 94.2,176.6 94.2,183 104.1,188.1 				"/>
				<polyline class="st1" points="104.1,188.1 105.8,187 105.7,180.5 95.8,175.6 94.2,176.6 				"/>
				<line class="st1" x1="94.2" y1="182.7" x2="98.8" y2="180.7"/>
				<polyline class="st1" points="99,179.2 99,185.4 103.6,183.3 				"/>
				<line class="st1" x1="104" y1="181.6" x2="105.3" y2="180.9"/>
			</g>
			<g>
				<polygon class="st1" points="111.9,185.5 106.8,183 106.8,189.3 112,192 				"/>
				<polyline class="st1" points="112,192 113.6,191 113.5,184.5 108.4,181.9 106.8,183 				"/>
				<path class="st1" d="M106.6,184.7"/>
				<line class="st1" x1="106.8" y1="189.3" x2="111.5" y2="187.3"/>
				<line class="st1" x1="111.9" y1="185.5" x2="113.2" y2="184.9"/>
			</g>
			<path class="st1" d="M125.1,231.7l14.2-7c0,0,1.3-0.4,1.3,0.8s0.1,7,0.1,7s-0.4,1.6-1.3,2.2c-0.9,0.6-14.4,7.2-14.4,7.2
				s-1.2,0-1.2-1.3s0.1-6.7,0.1-6.7S124,232.1,125.1,231.7z"/>
			<path class="st1" d="M150.8,219l6.3-3.1c0,0,0.8-0.7,0.8,0.2s0,8.3,0,8.3s0.1,0.5-0.6,0.9s-6.5,3.3-6.5,3.3s-0.7,0-0.7-0.8
				s0.1-7.9,0.1-7.9S150.4,219.1,150.8,219z"/>
			
				<ellipse transform="matrix(0.498 -0.8672 0.8672 0.498 -121.5494 237.5439)" class="st1" cx="144.4" cy="223.8" rx="2" ry="1.4"/>
			<ellipse transform="matrix(0.498 -0.8672 0.8672 0.498 -94.7636 254.2885)" class="st1" cx="172.3" cy="209" rx="2" ry="1.4"/>
			<ellipse transform="matrix(0.498 -0.8672 0.8672 0.498 -96.1206 258.9185)" class="st1" cx="175.6" cy="212.5" rx="2" ry="1.4"/>
			
				<ellipse transform="matrix(0.498 -0.8672 0.8672 0.498 -103.6766 259.7711)" class="st1" cx="172.5" cy="219.4" rx="2" ry="1.4"/>
			<ellipse transform="matrix(0.498 -0.8672 0.8672 0.498 -90.9554 268.7473)" class="st1" cx="186.6" cy="212.9" rx="2" ry="1.4"/>
			
				<ellipse transform="matrix(0.498 -0.8672 0.8672 0.498 -105.8133 252.0244)" class="st1" cx="164.8" cy="217.4" rx="1.3" ry="0.9"/>
			
				<ellipse transform="matrix(0.498 -0.8672 0.8672 0.498 -127.2752 240.8584)" class="st1" cx="144.4" cy="230.4" rx="2" ry="1.4"/>
			<line class="st1" x1="116.1" y1="229.7" x2="121" y2="227.4"/>
			<path class="st1" d="M111.8,222.5c1.7-0.3,3,0.1,3,0.1s3.1,1.2,4.6,2.1c1.7,1,1.7,2.3,1.7,2.3v23.3c0,0,0.3,0.9-0.7,1.4
				c-1.2,0.6-4.7,2.4-4.7,2.4s-1.3,0.4-3.3-0.5c-1.9-0.9-9.4-4.8-12.1-17.3c0,0-1.7-10,5.9-12.4c0,0,4.9-0.5,5-2.1
				c0,0-0.5-0.9-5.3,2"/>
			<path class="st1" d="M115.9,253.8v-22.9c0,0,0.2-2.3-1-3.1l-5.7-2.6c0,0-1.7-0.6-4.4,0.4"/>
			<path class="st1" d="M107.2,248.4c0,0-4.4-3.8-5.8-12.6c0,0-0.9-8.7,5-9.9c0,0,2.1-0.9,8.4,3v24.3c0,0-1.6,0.2-4-1.6"/>
			<path class="st1" d="M114.6,234.6l-1.3-0.6c0,0-3.5-0.4-5.5,4.7c0,0-0.5,2.5-0.5,3.9c-0.1,1.5,0.1,6.6,0.1,6.6s1.3,3.7,4.7,2.1
				c0,0,2.5-1.7,2.7-3.1"/>
			<path class="st1" d="M107.9,226c0,0-2.9,5.3-0.1,12.6"/>
			<path class="st1" d="M114.7,235.8l-1.2-0.7c0,0-3.4,0.3-4.7,5.4v8.2c0,0-0.3,3.6,4.1,1.8"/>
			
				<ellipse transform="matrix(0.4022 -0.9156 0.9156 0.4022 -131.7305 151.2955)" class="st1" cx="50" cy="176.5" rx="1.6" ry="1.2"/>
			
				<ellipse transform="matrix(0.4022 -0.9156 0.9156 0.4022 -137.1325 154.8229)" class="st1" cx="50" cy="182.4" rx="1.6" ry="1.2"/>
			<ellipse class="st1" cx="87.6" cy="159.4" rx="2.1" ry="1"/>
			<ellipse class="st1" cx="111.4" cy="171.3" rx="2.1" ry="1"/>
			<path class="st1" d="M90,172.1v-2.3c0.1-0.9-0.8-1.5-0.8-1.5l-8.7-4.4c-1-0.4-0.9,0.7-0.9,0.7v2.4c0,0-0.1,0.7,0.7,1.1l9,4.6
				C89.3,172.6,89.9,173,90,172.1z"/>
			<path class="st1" d="M79.8,163.8l0.9-0.5c0,0,0.4-0.2,0.8,0l8.6,4.3c0,0,0.9,0.6,0.8,1.5v2.3c0,0.6-0.2,0.7-0.2,0.7l-1.2,0.6"/>
			<path class="st1" d="M94,172.6"/>
			<path class="st1" d="M244,163.8l-10.6,5.4c0,0,1.4,0.2,1.2,1.3"/>
			<polyline class="st1" points="234.1,169.7 230.2,171.7 229.5,171.2 215.2,178.5 215.2,180.2 			"/>
			<path class="st1" d="M215.2,178.5l-14.1-6.8l1.5-2.2l3.7-1.8c0,0,0.4-0.3,1,0c0.6,0.3,1.9,0.9,1.9,0.9"/>
			<line class="st1" x1="132.2" y1="131.1" x2="85.4" y2="154.6"/>
			<path class="st2" d="M291.5,148.1c0,0,1.2,0.9-0.1,2l-0.6,0.3l-12.9,6.4c0,0-0.5,0.4-0.5,1s0.1,3.7,0.1,3.7s-0.1,0.7,0.7,0.4
				s13.1-6.5,13.1-6.5s0.9-0.3,0.9,0.6s0,1.6,0,1.6s0.5,0.7,1-0.3c0,0,0.9-0.9-0.8-2.3c-1.7-1.4-1.3-1.4-1.3-1.4l0.1-3.2"/>
			<line class="st2" x1="293.5" y1="156.5" x2="300.6" y2="152.8"/>
			<path class="st2" d="M289.7,151l0,1.3c0,0,0.2,0.4-0.5,0.8c-0.2,0.1-0.5,0.2-0.7,0.3c-0.4,0.2-0.7,0.3-0.7,0.3l0,1.5l1.6-0.8"/>
			<path class="st2" d="M288.5,153.5l0.7,0.4c0,0,0.6,0.3,0.4,1.2l0,1.1"/>
			<path class="st1" d="M244.9,165.4c0,0,0-1.2,1-1.7s8.9-4.3,8.9-4.3s0.4-0.5,1.5,0.2"/>
			<path class="st1" d="M246,165.5c0,0,0-0.9,1.3-1.6c1.3-0.6,8-3.9,8-3.9s0.9-0.4,1.5-0.1"/>
			<path class="st1" d="M246.5,169.9l10.2-5.1c0,0,0.8-0.3,0.1-1.1l0-6.1"/>
			<line class="st1" x1="201.5" y1="171.9" x2="201.5" y2="177"/>
			<path class="st1" d="M201.3,175.8c0,0-0.9,1,0.6,1.6c0.4,0.1,0.9,0.4,1.5,0.7c0.8,0.4,1.7,0.8,2.5,1.2"/>
			<line class="st1" x1="148.5" y1="178.4" x2="148.4" y2="181.4"/>
			<polyline class="st1" points="148.4,181 147.7,181.4 150.1,182.6 			"/>
			<path class="st1" d="M124.7,174.7c0,0,0.9,0.5,0.9,1c0,0.8,0,0.9,0,0.9s0.1,0.8-0.9,1.4c-0.2,0.1-0.6,0.3-1,0.5"/>
			<path class="st1" d="M117.7,178.2c0,0,0.6,0.2,0.6,0.7"/>
			<polyline class="st1" points="129,177.7 127.6,178.4 127.6,180.2 			"/>
			<path class="st1" d="M153.1,170.6v-4c0,0-0.1-1.7,1.3-1.6c0,0,0.9,0.4,0.9,2.5"/>
			<path class="st1" d="M157.7,163.6c0,0,1,0.1,1,2.2"/>
			<path class="st1" d="M161.9,164.3c0-2-1-2.2-1-2.2v5.6"/>
			<line class="st1" x1="154" y1="165" x2="162.5" y2="161"/>
			<line class="st1" x1="157.7" y1="163.6" x2="157.7" y2="166.5"/>
			<path class="st1" d="M164.8,161.2c0.2,0.3,0.3,0.8,0.3,1.6"/>
			<line class="st1" x1="164.2" y1="163.3" x2="164.2" y2="161.3"/>
			<path class="st1" d="M201.5,173.6c-1.1-0.1-1.9-0.5-1.9-1v-1.3"/>
			<g>
				<polyline class="st1" points="212.7,155.6 212.7,154.3 210.6,155.3 210.6,161.6 209.6,161.1 209.6,162.1 				"/>
				<polyline class="st1" points="211.1,162 212.2,162.4 212.2,156.1 214.3,155.1 214.3,156.5 				"/>
				<polyline class="st1" points="212.7,162.8 213.7,163.3 213.7,157 215.8,156 215.8,157.3 				"/>
				<polyline class="st1" points="214.2,163.7 215.2,164.1 215.2,157.8 217.3,156.8 217.4,158.2 				"/>
				<polyline class="st1" points="216.8,163.8 216.8,158.7 218.9,157.7 218.9,159.1 				"/>
				<polyline class="st1" points="218.3,163.2 218.3,159.5 220.4,158.5 220.4,162 				"/>
			</g>
			<g>
				<polyline class="st1" points="213.5,155.5 213.5,153.8 215.6,152.8 215.6,154.2 				"/>
				<polyline class="st1" points="215.1,156.3 215.1,154.7 217.2,153.6 217.2,155 				"/>
				<polyline class="st1" points="216.6,157.2 216.6,155.5 218.7,154.5 218.7,155.8 				"/>
				<polyline class="st1" points="218.1,158 218.1,156.3 220.2,155.3 220.3,156.7 				"/>
				<polyline class="st1" points="219.7,158.9 219.7,157.2 221.8,156.2 221.8,157.6 				"/>
				<polyline class="st1" points="221.2,161.7 221.2,158 223.3,157 223.3,160.5 				"/>
			</g>
			<g>
				<polyline class="st1" points="216.4,154 216.4,152.3 218.5,151.3 218.5,152.7 				"/>
				<polyline class="st1" points="218,154.8 218,153.2 220.1,152.1 220.1,153.5 				"/>
				<polyline class="st1" points="219.5,155.7 219.5,154 221.6,153 221.6,154.4 				"/>
				<polyline class="st1" points="221.1,156.5 221.1,154.9 223.2,153.8 223.2,155.2 				"/>
				<polyline class="st1" points="222.6,157.4 222.6,155.7 224.7,154.7 224.7,156.1 				"/>
				<polyline class="st1" points="224.1,160.2 224.1,156.5 226.2,155.5 226.2,159 				"/>
			</g>
			<g>
				<polyline class="st1" points="219.3,152.5 219.3,150.8 221.4,149.8 221.4,151.2 				"/>
				<polyline class="st1" points="220.8,153.3 220.8,151.7 222.9,150.7 222.9,152 				"/>
				<polyline class="st1" points="222.4,154.2 222.4,152.5 224.5,151.5 224.5,152.9 				"/>
				<polyline class="st1" points="223.9,155 223.9,153.4 226,152.3 226,153.8 				"/>
				<polyline class="st1" points="225.5,155.9 225.5,154.2 227.6,153.2 227.6,154.6 				"/>
				<polyline class="st1" points="227,158.7 227,155.1 229.1,154 229.1,157.5 				"/>
			</g>
			<g>
				<polyline class="st1" points="222,151.1 222,149.5 224.1,148.5 224.1,149.8 				"/>
				<polyline class="st1" points="223.5,152 223.5,150.3 225.7,149.3 225.7,150.7 				"/>
				<polyline class="st1" points="225.1,152.8 225.1,151.2 227.2,150.2 227.2,151.5 				"/>
				<polyline class="st1" points="226.6,153.7 226.6,152 228.7,151 228.7,152.4 				"/>
				<polyline class="st1" points="228.2,154.5 228.2,152.9 230.3,151.8 230.3,153.3 				"/>
				<polyline class="st1" points="229.7,157.4 229.7,153.7 231.8,152.7 231.8,156.1 				"/>
			</g>
			<g>
				<polyline class="st1" points="224.8,149.7 224.8,148.1 226.9,147.1 226.9,148.4 				"/>
				<polyline class="st1" points="226.3,150.6 226.3,148.9 228.4,147.9 228.4,149.3 				"/>
				<polyline class="st1" points="227.9,151.5 227.9,149.8 230,148.8 230,150.1 				"/>
				<polyline class="st1" points="229.4,152.3 229.4,150.6 231.5,149.6 231.5,151 				"/>
				<polyline class="st1" points="230.9,153.2 230.9,151.5 233.1,150.5 233.1,151.9 				"/>
				<polyline class="st1" points="232.5,156 232.5,152.3 234.6,151.3 234.6,154.7 				"/>
			</g>
			<g>
				<polyline class="st1" points="227.6,148.4 227.6,146.7 229.7,145.7 229.7,147 				"/>
				<polyline class="st1" points="229.1,149.2 229.1,147.5 231.2,146.5 231.2,147.9 				"/>
				<polyline class="st1" points="230.6,150.1 230.6,148.4 232.8,147.4 232.8,148.7 				"/>
				<polyline class="st1" points="232.2,150.9 232.2,149.2 234.3,148.2 234.3,149.6 				"/>
				<polyline class="st1" points="233.7,151.8 233.7,150.1 235.8,149.1 235.8,150.5 				"/>
				<polyline class="st1" points="235.3,154.6 235.3,150.9 237.4,149.9 237.4,153.4 				"/>
			</g>
			<g>
				<polyline class="st1" points="230.4,147 230.4,145.3 232.5,144.3 232.5,145.7 				"/>
				<polyline class="st1" points="231.9,147.8 231.9,146.2 234,145.1 234,146.5 				"/>
				<polyline class="st1" points="233.4,148.7 233.4,147 235.5,146 235.5,147.3 				"/>
				<polyline class="st1" points="235,149.5 235,147.8 237.1,146.8 237.1,148.2 				"/>
				<polyline class="st1" points="236.5,150.4 236.5,148.7 238.6,147.7 238.6,149.1 				"/>
				<polyline class="st1" points="238,153.2 238,149.5 240.2,148.5 240.2,152 				"/>
			</g>
			<g>
				<polyline class="st1" points="233.1,145.6 233.1,143.9 235.2,142.9 235.2,144.3 				"/>
				<polyline class="st1" points="234.7,146.4 234.7,144.8 236.8,143.7 236.8,145.1 				"/>
				<polyline class="st1" points="236.2,147.3 236.2,145.6 238.3,144.6 238.3,146 				"/>
				<polyline class="st1" points="237.8,148.1 237.8,146.5 239.9,145.4 239.9,146.8 				"/>
				<polyline class="st1" points="239.3,149 239.3,147.3 241.4,146.3 241.4,147.7 				"/>
				<polyline class="st1" points="240.8,151.8 240.8,148.1 242.9,147.1 242.9,150.6 				"/>
			</g>
			<g>
				<polyline class="st1" points="250,137.1 250,135.4 252.1,134.4 252.1,135.8 				"/>
				<polyline class="st1" points="251.5,138 251.5,136.3 253.6,135.3 253.6,136.6 				"/>
				<polyline class="st1" points="253,138.8 253,137.1 255.1,136.1 255.1,137.5 				"/>
				<polyline class="st1" points="254.6,139.7 254.6,138 256.7,137 256.7,138.4 				"/>
				<polyline class="st1" points="256.1,139.9 256.1,138.8 258.2,137.8 258.2,138.9 				"/>
			</g>
			<g>
				<polyline class="st1" points="240.2,143.5 240.2,142.1 242.3,141 242.3,142.4 				"/>
				<polyline class="st1" points="241.7,144.4 241.7,142.9 243.9,141.9 243.9,143.3 				"/>
				<polyline class="st1" points="243.3,145.2 243.3,143.8 245.4,142.7 245.4,144.2 				"/>
				<polyline class="st1" points="244.8,146.1 244.8,144.6 246.9,143.6 246.9,144.8 				"/>
			</g>
			<g>
				<polyline class="st1" points="243,142.1 243,140.6 245.2,139.6 245.2,141 				"/>
				<polyline class="st1" points="244.6,143 244.6,141.5 246.7,140.5 246.7,141.9 				"/>
				<polyline class="st1" points="246.1,143.8 246.1,142.3 248.2,141.3 248.2,142.7 				"/>
				<polyline class="st1" points="247.7,144.4 247.7,143.2 249.8,142.1 249.8,143.3 				"/>
			</g>
			<g>
				<polyline class="st1" points="245.9,140.6 245.9,139.2 248,138.2 248,139.5 				"/>
				<polyline class="st1" points="247.4,141.6 247.4,140 249.5,139 249.5,140.4 				"/>
				<polyline class="st1" points="249,142.4 249,140.9 251.1,139.9 251.1,141.3 				"/>
				<polyline class="st1" points="250.5,143 250.5,141.7 252.6,140.7 252.6,141.9 				"/>
			</g>
			<g>
				<polyline class="st1" points="248.7,139.2 248.7,137.7 250.8,136.7 250.8,138.1 				"/>
				<polyline class="st1" points="250.3,140.1 250.3,138.6 252.4,137.6 252.4,139 				"/>
				<polyline class="st1" points="251.8,140.9 251.8,139.4 253.9,138.4 253.9,139.9 				"/>
				<polyline class="st1" points="253.3,141.5 253.3,140.3 255.4,139.3 255.5,140.4 				"/>
			</g>
			<g>
				<polyline class="st1" points="235.9,144.2 235.9,142.5 238,141.5 238,142.9 				"/>
				<polyline class="st1" points="237.5,145 237.5,143.4 239.6,142.4 239.6,143.7 				"/>
				<polyline class="st1" points="239,145.9 239,144.2 241.1,143.2 241.1,144.6 				"/>
				<polyline class="st1" points="240.5,146.7 240.5,145.1 242.6,144 242.6,145.5 				"/>
				<polyline class="st1" points="242.1,147.6 242.1,145.9 244.2,144.9 244.2,146.3 				"/>
				<polyline class="st1" points="243.6,149.2 243.6,146.8 245.7,145.7 				"/>
			</g>
			<polyline class="st1" points="207.1,165.1 207.4,164.9 208,165.2 211.2,163.5 			"/>
			<line class="st1" x1="209.1" y1="167.7" x2="207.5" y2="166.9"/>
			<line class="st1" x1="211.6" y1="166.5" x2="208.6" y2="164.9"/>
			<polyline class="st1" points="209.6,164.3 209.6,162.1 215.1,164.8 			"/>
			
				<ellipse transform="matrix(0.2857 -0.9583 0.9583 0.2857 2.1679 359.7868)" class="st1" cx="242.4" cy="178.4" rx="1.9" ry="1.4"/>
			
				<ellipse transform="matrix(0.2857 -0.9583 0.9583 0.2857 28.2219 372.6611)" class="st1" cx="264.1" cy="167.4" rx="1.9" ry="1.4"/>
			<path class="st3" d="M281.6,137.3c0.2-0.8,0.8-1.5,1.7-1.7c1.2-0.2,2.3,0.5,2.6,1.6c0.2,0.8-0.1,1.5-0.7,2"/>
			<path class="st3" d="M280,136.3c0.2-0.8,0.8-1.5,1.7-1.7c0.8-0.2,1.7,0.1,2.1,0.7"/>
			<path class="st3" d="M278.3,135.4c0.2-0.8,0.8-1.5,1.7-1.7c0.8-0.2,1.7,0.1,2.1,0.7"/>
			<path class="st3" d="M276.5,134.4c0.2-0.8,0.8-1.5,1.7-1.7c0.8-0.2,1.7,0.1,2.1,0.7"/>
			<line class="st3" x1="268.2" y1="134" x2="268.2" y2="136.7"/>
			<line class="st3" x1="269.5" y1="133.8" x2="269.5" y2="136"/>
			<path class="st4" d="M179.7,120.7c-2.2-0.8-3-4.2-1.7-7.5c1.2-3.3,4-5.3,6.2-4.5c2.2,0.8,3,4.2,1.7,7.5c-0.2,0.5-0.4,1-0.7,1.4"
				/>
			<path class="st4" d="M177.6,111.4c1.3-2.3,3.5-3.7,5.3-3.2l1.4,0.6"/>
			<path class="st4" d="M178.6,120.2"/>
			<path class="st5" d="M182.7,108l0.9-0.5c0,0,3.4,0.7,3.7,4.8v4.7"/>
			<path class="st5" d="M173.8,118.9c0,0-0.3-6.4,1.9-7.4l1.3,0.6c0,0,0.4,0.7,0,1.7c-0.4,1-0.5,5.6-0.4,6.4"/>
			<path class="st5" d="M175.8,111.5l0.6-0.3l1.3,0.6c0,0,0.3,0.5,0.2,1.2c-0.1,0.7-1.5,6,0.7,7.3"/>
			<polyline class="st5" points="185.1,118.5 185,117.2 184.4,117 179.7,119.3 180.4,119.5 180.4,120.5 			"/>
			<g>
				<line class="st6" x1="182.2" y1="112.6" x2="182.3" y2="115.3"/>
				<line class="st6" x1="181" y1="114.5" x2="183.5" y2="113.5"/>
			</g>
			
				<ellipse transform="matrix(0.9011 -0.4336 0.4336 0.9011 -31.3039 107.9953)" class="st6" cx="221.1" cy="122.6" rx="1.4" ry="1.9"/>
			<g>
				<path d="M247.4,168.7l-0.2-3.3l0.8-0.4c0.3-0.1,0.5-0.2,0.6-0.2c0.1,0,0.3,0,0.4,0.2c0.1,0.1,0.2,0.3,0.2,0.6c0,0.2,0,0.4,0,0.6
					c0,0.2-0.1,0.3-0.2,0.4s-0.2,0.2-0.2,0.3c-0.1,0.1-0.3,0.2-0.5,0.3l-0.3,0.2l0.1,1.3L247.4,168.7z M247.7,165.7l0.1,0.9l0.3-0.1
					c0.2-0.1,0.3-0.2,0.4-0.2c0.1-0.1,0.1-0.1,0.1-0.2s0-0.2,0-0.3c0-0.1,0-0.2-0.1-0.3c-0.1-0.1-0.1-0.1-0.2-0.1
					c-0.1,0-0.2,0.1-0.4,0.1L247.7,165.7z"/>
				<path d="M249.3,164.3l0.5-0.2l0.1,1.8c0,0.3,0,0.5,0.1,0.6c0,0.1,0.1,0.2,0.2,0.3c0.1,0,0.2,0,0.3,0c0.1-0.1,0.2-0.2,0.3-0.3
					c0.1-0.1,0.1-0.2,0.1-0.4s0-0.3,0-0.6l-0.1-1.8l0.5-0.2l0.1,1.8c0,0.4,0,0.7,0,0.9c0,0.2-0.1,0.3-0.1,0.5
					c-0.1,0.1-0.2,0.3-0.3,0.4c-0.1,0.1-0.3,0.2-0.5,0.3c-0.2,0.1-0.4,0.2-0.5,0.1c-0.1,0-0.2-0.1-0.3-0.1c-0.1-0.1-0.1-0.2-0.2-0.3
					c0-0.2-0.1-0.5-0.1-0.8L249.3,164.3z"/>
				<path d="M251.6,165.5l0.5-0.3c0,0.2,0.1,0.3,0.2,0.4c0.1,0.1,0.2,0.1,0.4,0c0.2-0.1,0.3-0.2,0.4-0.3c0.1-0.1,0.1-0.3,0.1-0.4
					c0-0.1,0-0.1-0.1-0.2c0,0-0.1-0.1-0.2-0.1c-0.1,0-0.2,0-0.4,0c-0.3,0-0.5,0-0.6-0.1c-0.2-0.1-0.3-0.3-0.3-0.6
					c0-0.2,0-0.3,0.1-0.5c0.1-0.2,0.2-0.3,0.3-0.5c0.1-0.1,0.3-0.3,0.5-0.3c0.3-0.2,0.5-0.2,0.7-0.1c0.2,0.1,0.3,0.3,0.3,0.6
					l-0.5,0.3c0-0.2-0.1-0.3-0.2-0.3c-0.1,0-0.2,0-0.3,0c-0.1,0.1-0.3,0.2-0.3,0.3c0,0.1-0.1,0.2-0.1,0.2c0,0.1,0,0.1,0.1,0.2
					c0.1,0,0.2,0,0.5,0c0.2,0,0.4,0,0.6,0c0.1,0,0.2,0.1,0.3,0.2c0.1,0.1,0.1,0.3,0.1,0.5c0,0.2,0,0.4-0.1,0.6
					c-0.1,0.2-0.2,0.4-0.3,0.5c-0.1,0.2-0.3,0.3-0.5,0.4c-0.3,0.2-0.6,0.2-0.7,0.1C251.8,166.1,251.7,165.9,251.6,165.5z"/>
				<path d="M253.9,165.5l-0.2-3.3l0.5-0.2l0.1,1.3l1-0.5l-0.1-1.3l0.5-0.2l0.2,3.3l-0.5,0.2l-0.1-1.5l-1,0.5l0.1,1.5L253.9,165.5z"
					/>
			</g>
		</g>
		<g>
			<g>
				<path class="st7" d="M150.5,214.7l-32.8-16.4c0,0-0.7,0.1-0.7-2.2c0-2.2,0-13.6,0-13.6s0.1-1.6,1.5-1.3l3.2,1.6v-1l42.3,21.1
					c0,0,1,0.5,1,1.5v1.8"/>
				<path class="st7" d="M158,209.6l-4.9-2.4c0,0-0.5-0.3-0.5,0.8c0.1,1.4,0,5.5,0,5.5"/>
				<g>
					<polygon class="st8" points="150.8,213.8 142.1,209.4 142.1,201.7 150.8,206.1 					"/>
					<polygon class="st8" points="128.9,200.2 120.2,195.8 120.2,190.2 128.9,194.6 					"/>
					<polygon class="st8" points="139.1,205.7 132.1,202.2 132.1,196.8 139.1,200.3 					"/>
					<g>
						<polyline class="st8" points="144.8,208.6 143.2,207.8 143.2,203.3 149.7,206.6 149.7,211.1 148.1,210.3 						"/>
						<polyline class="st8" points="148.1,210.3 148.1,211.2 144.8,209.6 144.8,208.6 						"/>
					</g>
				</g>
				<polygon class="st9" points="128,198.2 121.7,195.1 121.7,192 128,195.1 				"/>
				<path class="st8" d="M134,198.8l3.4,1.7c0,0,0.9,0.5,0.8,1.4c-0.1,0.9-0.2,1-0.9,1s-3.2-1.5-3.2-1.5s-0.8-0.8-0.8-1.6
					C133.2,198.8,134,198.8,134,198.8z"/>
				<polyline class="st9" points="159.8,209 133.7,196 133.7,190.7 160.4,203.9 160.4,208.7 				"/>
				<polyline class="st9" points="133.7,190.6 135,190 161.6,203.3 161.6,207.9 				"/>
				<line class="st9" x1="133.7" y1="196" x2="138.9" y2="193.4"/>
				<polyline class="st9" points="140.3,194 140.3,199.3 145.2,196.6 				"/>
				<polyline class="st9" points="147,197.3 147,202.6 152.1,199.9 				"/>
				<polyline class="st9" points="153.6,200.6 153.6,205.8 158.7,203.2 				"/>
				<line class="st9" x1="160.4" y1="203.9" x2="161.6" y2="203.3"/>
				<path class="st8" d="M169,201.5c0,0,0.1-0.8-0.7-1.1l-3,1.7l-43.1-21.4c-1.6,0.3-1.6,1.6-1.6,1.6"/>
				<path class="st8" d="M124.4,179.3c0,0-1.9-0.9-2.7-1.4c-0.6-0.3-1.2-0.1-1.2-0.1s-1.1,0.6-2.1,1c-0.2,0.1-0.4,0.2-0.6,0.3
					c-0.6,0.4-0.6,1.1-0.6,1.1v1.5"/>
				<line class="st8" x1="120.9" y1="181.1" x2="117.6" y2="179.4"/>
				<path class="st8" d="M122.3,180.7l2.5-1.2c0,0,0.5-0.2,1,0c0.2,0.1,7.2,3.6,15.4,7.7c12,6,27.2,13.3,27.2,13.3l14.3-7.7"/>
				<polyline class="st8" points="141.2,187.2 156.1,179.5 182.7,192.8 182.8,196.1 				"/>
				<path class="st8" d="M185.9,194.6V191l8.8-4.4c0,0,1-0.5,1.8-0.1c0.8,0.4,2.6,1.4,2.6,1.4"/>
				<g>
					<ellipse class="st7" cx="140.4" cy="173" rx="3.7" ry="1.9"/>
					<path class="st7" d="M144.1,176.6c0,1.1-1.6,1.9-3.7,1.9s-3.7-0.9-3.7-1.9"/>
					<path class="st7" d="M136.7,173v4.9c0,1.1,1.6,1.9,3.7,1.9s3.7-0.9,3.7-1.9v-4.7"/>
					<line class="st8" x1="139.1" y1="172.1" x2="141.5" y2="173.4"/>
					<line class="st8" x1="138.8" y1="173.5" x2="141.7" y2="172"/>
				</g>
				<g>
					<ellipse class="st7" cx="202" cy="159.7" rx="3.7" ry="1.9"/>
					<path class="st7" d="M205.7,163.3c0,1.1-1.6,1.9-3.7,1.9s-3.7-0.9-3.7-1.9"/>
					<path class="st7" d="M198.4,159.7v4.9c0,1.1,1.6,1.9,3.7,1.9s3.7-0.9,3.7-1.9v-4.7"/>
					<line class="st8" x1="200.7" y1="158.8" x2="203.2" y2="160.1"/>
					<line class="st8" x1="200.5" y1="160.2" x2="203.3" y2="158.7"/>
				</g>
				<g>
					<ellipse class="st7" cx="204.7" cy="181.2" rx="3.7" ry="1.9"/>
					<line class="st7" x1="208.4" y1="183.2" x2="208.4" y2="181.4"/>
					<line class="st7" x1="201.1" y1="181.2" x2="201.1" y2="186.8"/>
					<line class="st8" x1="203.4" y1="180.3" x2="205.9" y2="181.6"/>
					<line class="st8" x1="203.2" y1="181.7" x2="206" y2="180.2"/>
				</g>
				<path class="st7" d="M170.9,160.5l11.8-5.9c0,0,1.2-0.8,2.3-0.3c1,0.5,13.3,6.8,13.3,6.8"/>
				<line class="st7" x1="144.4" y1="173.4" x2="152.8" y2="169.4"/>
				<ellipse class="st1" cx="150.4" cy="172.9" rx="2.1" ry="1.1"/>
				<path class="st10" d="M151.8,174.5c0.1,0.1,0.1,0.2,0.2,0.3c0.1,0.4-0.5,0.8-1.4,1s-1.5-0.1-1.6-0.6c0-0.2,0.1-0.4,0.3-0.6"/>
				<path class="st10" d="M151.6,175.6c0.2,0.1,0.3,0.2,0.4,0.4c0.1,0.4-0.5,0.8-1.4,1s-1.5-0.1-1.6-0.6c0-0.2,0.2-0.5,0.5-0.7"/>
				<path class="st1" d="M148.3,173v0.8c0,0.6,0.9,1.1,2.1,1.1s2.1-0.5,2.1-1.1v-0.9"/>
				<path class="st8" d="M193.5,173l14-7c0,0,0.2-0.5-0.3-0.7c-0.4-0.2-1.3-0.6-1.3-0.6"/>
				<ellipse class="st8" cx="192" cy="173.8" rx="1.9" ry="0.9"/>
				<path class="st11" d="M193.1,177.3c0.2,0.1,0.2,0.2,0.2,0.4c0,0.3-0.6,0.6-1.4,0.6"/>
				<path class="st8" d="M192,175.8c1.1,0,1.9-0.4,1.9-0.9v-1.1"/>
				<path class="st12" d="M193.2,175.6c0.1,0.1,0.2,0.2,0.2,0.3c0,0.3-0.6,0.7-1.3,0.8"/>
				<path class="st12" d="M193,176.4c0.2,0.1,0.3,0.2,0.4,0.3c0,0.3-0.6,0.7-1.3,0.8"/>
				<line class="st12" x1="194.2" y1="174.1" x2="201.7" y2="170.1"/>
				<line class="st12" x1="207.5" y1="165.9" x2="207.5" y2="167.1"/>
				<polyline class="st12" points="175.1,188.7 195.6,178.4 195.6,177.5 193.4,176.4 				"/>
				<line class="st12" x1="192.1" y1="179.2" x2="195.6" y2="177.5"/>
				<g>
					<polyline class="st13" points="169.4,186.2 169.4,183.5 171.9,182.4 171.9,184.7 					"/>
					<polyline class="st13" points="167,185.1 167,182.4 169.4,181.2 169.4,183.6 					"/>
					<polyline class="st13" points="164.4,183.8 164.4,181.1 166.9,179.9 166.9,182.3 					"/>
					<polyline class="st13" points="161.9,182.5 161.9,179.8 164.3,178.6 164.4,181 					"/>
					<polyline class="st13" points="159.4,181.2 159.4,178.6 161.8,177.4 161.9,179.8 					"/>
					<polyline class="st13" points="156.8,179.9 156.8,177.3 159.2,176.1 159.2,178.5 					"/>
					<polyline class="st13" points="154.3,180.2 154.3,176 156.8,174.8 156.8,177.2 					"/>
					<polyline class="st13" points="154.4,175.8 154.4,173.5 152,174.6 152,178.8 151.2,178.4 					"/>
					<polyline class="st14" points="171.9,187.4 171.9,184.9 174.4,183.7 174.4,188.5 					"/>
					<polyline class="st14" points="177.9,186.3 177.9,181.9 175.4,183.1 175.4,187.1 175.9,187.3 174.6,188 					"/>
					<polyline class="st14" points="175.5,182.9 175.4,180.6 172.9,181.8 172.9,184.3 					"/>
					<polyline class="st14" points="178.9,181.2 178.9,178.9 176.4,180.1 176.4,182.6 					"/>
					<polyline class="st14" points="182.4,179.4 182.4,177.1 179.9,178.3 179.9,180.8 					"/>
					<polyline class="st14" points="185.9,177.7 185.9,175.4 183.4,176.6 183.4,179.1 					"/>
					<polyline class="st14" points="189.4,176 189.4,173.6 186.9,174.9 186.9,177.4 					"/>
					<g>
						<polyline class="st14" points="172.9,181.7 172.9,179.3 170.4,180.6 170.4,183.1 						"/>
						<polyline class="st14" points="176.4,180 176.4,177.6 173.9,178.8 173.9,181.3 						"/>
						<polyline class="st14" points="179.9,178.2 179.9,175.8 177.4,177 177.4,179.5 						"/>
						<polyline class="st14" points="183.4,176.5 183.4,174.1 180.9,175.3 180.9,177.8 						"/>
						<polyline class="st14" points="186.9,174.8 186.9,172.4 184.4,173.6 184.4,176.1 						"/>
						<polyline class="st14" points="190.4,173 190.4,170.6 187.9,171.8 187.9,174.3 						"/>
					</g>
					<polyline class="st14" points="181.4,184.6 181.4,180.2 178.9,181.4 178.9,185.4 179.5,185.6 178.2,186.3 					"/>
					<polyline class="st14" points="185,182.8 184.9,178.4 182.4,179.6 182.4,183.6 183,183.8 181.7,184.5 					"/>
					<polyline class="st14" points="188.4,181 188.4,176.6 185.9,177.8 185.9,181.8 186.5,182.1 185.2,182.7 					"/>
					<polyline class="st14" points="191.9,179.3 191.9,174.9 189.4,176.1 189.4,180.1 189.9,180.4 188.6,181 					"/>
				</g>
				<g>
					<polyline class="st14" points="170.5,180.3 170.5,178 167.9,179.2 167.9,181.7 					"/>
					<polyline class="st14" points="173.9,178.6 173.9,176.2 171.4,177.5 171.4,180 					"/>
					<polyline class="st14" points="177.5,176.8 177.5,174.5 175,175.7 175,178.2 					"/>
					<polyline class="st14" points="181,175.1 181,172.8 178.5,174 178.5,176.5 					"/>
					<polyline class="st14" points="184.5,173.4 184.5,171 181.9,172.2 181.9,174.7 					"/>
					<polyline class="st14" points="188,171.6 188,169.2 185.5,170.5 185.5,173 					"/>
				</g>
				<g>
					<polyline class="st14" points="167.9,179.1 167.9,176.7 165.4,177.9 165.4,180.4 					"/>
					<polyline class="st14" points="171.4,177.4 171.3,175 168.8,176.2 168.8,178.7 					"/>
					<polyline class="st14" points="174.9,175.6 174.9,173.2 172.4,174.4 172.4,176.9 					"/>
					<polyline class="st14" points="178.4,173.9 178.4,171.5 175.9,172.7 175.9,175.2 					"/>
					<polyline class="st14" points="181.9,172.1 181.9,169.8 179.4,171 179.4,173.5 					"/>
					<polyline class="st14" points="185.4,170.4 185.4,168 182.9,169.2 182.9,171.7 					"/>
				</g>
				<g>
					<polyline class="st14" points="165.4,178 165.3,175.7 162.8,176.9 162.8,179.4 					"/>
					<polyline class="st14" points="168.8,176.3 168.8,173.9 166.3,175.1 166.3,177.6 					"/>
					<polyline class="st14" points="172.4,174.5 172.4,172.1 169.9,173.4 169.9,175.9 					"/>
					<polyline class="st14" points="175.9,172.8 175.9,170.4 173.3,171.7 173.3,174.2 					"/>
					<polyline class="st14" points="179.4,171.1 179.3,168.7 176.8,169.9 176.8,172.4 					"/>
					<polyline class="st14" points="182.9,169.3 182.9,166.9 180.3,168.1 180.3,170.7 					"/>
				</g>
				<g>
					<polyline class="st14" points="162.9,176.6 162.9,174.3 160.3,175.5 160.3,178 					"/>
					<polyline class="st14" points="166.3,174.9 166.3,172.5 163.8,173.8 163.8,176.3 					"/>
					<polyline class="st14" points="169.9,173.1 169.9,170.8 167.4,172 167.4,174.5 					"/>
					<polyline class="st14" points="173.4,171.4 173.4,169.1 170.9,170.3 170.9,172.8 					"/>
					<polyline class="st14" points="176.9,169.7 176.9,167.3 174.3,168.5 174.3,171.1 					"/>
					<polyline class="st14" points="180.4,167.9 180.4,165.6 177.9,166.8 177.9,169.3 					"/>
				</g>
				<g>
					<polyline class="st14" points="160.3,175.4 160.3,173 157.8,174.3 157.8,176.8 					"/>
					<polyline class="st14" points="163.8,173.7 163.7,171.3 161.2,172.5 161.2,175 					"/>
					<polyline class="st14" points="167.3,171.9 167.3,169.5 164.8,170.7 164.8,173.2 					"/>
					<polyline class="st14" points="170.8,170.2 170.8,167.8 168.3,169 168.3,171.5 					"/>
					<polyline class="st14" points="174.3,168.4 174.3,166.1 171.8,167.3 171.8,169.8 					"/>
					<polyline class="st14" points="177.8,166.7 177.8,164.3 175.3,165.5 175.3,168 					"/>
				</g>
				<g>
					<polyline class="st14" points="157.8,174.2 157.8,171.8 155.3,173 155.3,175.5 					"/>
					<polyline class="st14" points="161.3,172.4 161.3,170.1 158.8,171.3 158.8,173.8 					"/>
					<polyline class="st14" points="164.9,170.6 164.9,168.3 162.3,169.5 162.3,172 					"/>
					<polyline class="st14" points="168.4,168.9 168.3,166.6 165.8,167.8 165.8,170.3 					"/>
					<polyline class="st14" points="171.8,167.2 171.8,164.8 169.3,166.1 169.3,168.6 					"/>
					<polyline class="st14" points="175.4,165.4 175.3,163.1 172.8,164.3 172.8,166.8 					"/>
				</g>
				<g>
					<polyline class="st14" points="155.4,172.8 155.3,170.4 152.8,171.6 152.8,174.1 					"/>
					<polyline class="st14" points="158.8,171 158.8,168.7 156.3,169.9 156.3,172.4 					"/>
					<polyline class="st14" points="162.4,169.3 162.4,166.9 159.9,168.1 159.9,170.6 					"/>
					<polyline class="st14" points="165.9,167.6 165.9,165.2 163.3,166.4 163.3,168.9 					"/>
					<polyline class="st14" points="169.4,165.8 169.3,163.5 166.8,164.7 166.8,167.2 					"/>
					<polyline class="st14" points="172.9,164 172.9,161.7 170.3,162.9 170.3,165.4 					"/>
				</g>
				<g>
					<polyline class="st14" points="156.3,169.7 156.3,167.4 153.7,168.6 153.7,171.1 					"/>
					<polyline class="st14" points="159.8,168 159.8,165.6 157.3,166.8 157.3,169.3 					"/>
					<polyline class="st14" points="163.3,166.3 163.3,163.9 160.8,165.1 160.8,167.6 					"/>
					<polyline class="st14" points="166.8,164.5 166.8,162.2 164.3,163.4 164.3,165.9 					"/>
					<polyline class="st14" points="170.3,162.8 170.3,160.4 167.8,161.6 167.8,164.1 					"/>
				</g>
				<polyline class="st14" points="153.6,180.7 146.5,177.4 146.5,176.3 148.7,175.2 				"/>
				<polyline class="st14" points="146.9,176.5 150.3,178.1 152,177.3 				"/>
				<line class="st14" x1="194.7" y1="179.1" x2="200.9" y2="182.2"/>
			</g>
			<ellipse class="st15" cx="125.6" cy="180.9" rx="1.1" ry="0.5"/>
			<ellipse class="st16" cx="165.1" cy="200.5" rx="1" ry="0.5"/>
		</g>
		<line class="st8" x1="165.7" y1="205.8" x2="165.5" y2="202.2"/>
	</g>
</g>
<g id="Cache_Connections_copy">
	<line class="st17" x1="247.3" y1="91.6" x2="233.4" y2="147"/>
	<line class="st18" x1="247.3" y1="91.6" x2="233.4" y2="147"/>
	<line class="st19" x1="212.7" y1="69.8" x2="224.3" y2="81.5"/>
	<g>
		<g>
			<g>
				<g>
					<polyline class="st1" points="344.3,26.8 354.3,32.1 354.2,34 351.6,35.7 351.5,41.2 					"/>
					<polyline class="st1" points="345.3,37.6 351.5,41.2 358.5,37.9 358.3,30.2 344.6,23.2 					"/>
					<line class="st1" x1="358.3" y1="30.2" x2="354.3" y2="32.1"/>
				</g>
			</g>
		</g>
		<line class="st1" x1="344.4" y1="28.8" x2="354.2" y2="34"/>
		<line class="st1" x1="351.6" y1="35.7" x2="344.4" y2="31.8"/>
	</g>
	<g>
		<path class="st20" d="M223.5,84.2L226,83c0,0,0.7-0.4,1.5-0.1c0,0,0.6,0.2,0.8,0.4c0,0,0.4,0.1,0.6,0"/>
		<path class="st20" d="M229.6,87.4l-6.8-3.4c0,0-0.5-0.1-0.7,0.4c-0.2,0.5-0.2,0.7-0.2,0.7l0,0.8c0,0,0,0.5,0.4,0.7
			c0.4,0.2,2.9,1.7,6.5,3.2"/>
		<path class="st20" d="M233.4,86c0,0,0.1,1,0.1,1.5c0,0.4-0.4,0.6-0.4,0.6s-3,1.5-3.3,1.7c-0.3,0.2-0.5,0.2-0.5,0.2
			c-0.5,0-0.4-0.4-0.4-0.4v-1.1c0-0.5,0.3-0.8,0.3-0.8c0.5-0.5,0.8,0,0.8,0s0.1,0.2,0.4,0.1c0.3-0.1,2.8-1.4,2.8-1.4
			s0.4-0.4-0.1-0.8"/>
		<path class="st20" d="M233.3,85.8L236,83c0,0,0.3-0.3,0.8-0.5c0.5-0.2,1.1-1.2,0.7-2"/>
		<path class="st20" d="M235.8,79.4c0,0,0.9,0.3,0.7,0.8c0,0-0.1,0.2-0.8,0.5c-0.6,0.3-1.1,0.5-1.3,0.5c-0.2,0.1-0.5,0.2-0.5,0.2
			l-1.2-0.6c-0.1-0.3,0.4-0.8,0.4-0.8"/>
		<path class="st20" d="M231.1,85.4c0,0,1.2-0.6,2.3-1.8l0.5-2.1"/>
		<line class="st20" x1="236.2" y1="80.5" x2="236.8" y2="81.5"/>
		<path class="st1" d="M233.4,83.6c0,0,0.8-0.5,1-0.7l0.5-0.4c2.1-0.9,2.4-1.3,2.4-1.3c0.5-0.5-0.2-1-0.2-1l-1-0.7c-1.2-0.4-2,0-2,0
			l-1.2,0.6c-2.2,1-3,2.3-3,2.3c-0.8,1-1.8,1.4-1.8,1.4l3.1,1.6l0.9-0.2c0.4,0,1.2,0.6,1.2,0.6c0.3,0.4-0.1,0.5-0.1,0.5"/>
		<path class="st1" d="M225.8,90.1l-1.5,0.8c0,0-1.9,1.2,0.5,2.4s4.4,0,4.4,0l5.8-2.9c0,0,0.5-0.2,0.5-0.8v-0.8c0,0-1.6,0.8-2.7,0.8
			c-1,0-1.9-0.5-1.9-0.5"/>
		<line class="st1" x1="227.6" y1="89.2" x2="226.6" y2="89.8"/>
		<path class="st1" d="M224.3,90.9c0,0-1.4,0.6-0.9,2.1c0,0,1.5,1.3,4.2,1.8c0,0,1,0,2.3-0.7c1.3-0.6,7.9-4,7.9-4s0.6-0.2,0.6-1.5
			c0-1.3,0-4.9,0-4.9"/>
		<path class="st1" d="M236.8,82.2"/>
		<path class="st1" d="M237.4,82.1c0.4,0.2,1.4,0.9,0.9,2c0,0-0.3,0.7-1.4,1l-1.1-0.5v-1"/>
		<line class="st1" x1="233.8" y1="85.3" x2="236.6" y2="86.7"/>
		<path class="st1" d="M237.1,82.6c0,0.3,0,0.8,0,0.8s-0.1,0.4-0.5,0.6c-0.4,0.2-0.8,0.5-0.8,0.5"/>
		<path class="st1" d="M236.7,85l0,1.7c0,0,0.1,0.3-0.3,0.5c-0.3,0.2-2.2,1.2-3.7,1.3l-0.2-0.1"/>
		<ellipse class="st21" cx="226.9" cy="90.5" rx="1.3" ry="0.6"/>
		<path class="st1" d="M225.5,90.7v1.3c0,0.4,0.6,0.7,1.4,0.7c0.7,0,1.4-0.3,1.4-0.7v-1.4"/>
		<path class="st1" d="M232.1,93v0.9c0,0,0.1,1.1,2.2,1.2l0,0v-0.4c0-0.4,0.6-0.3,0.6-0.3c2.6-0.2,2.3-1.5,2.3-1.5v-2.5"/>
		<path class="st1" d="M234.2,94"/>
		<path class="st1" d="M234.4,95.1c0,0,1.5,1,3.2,0.1c0,0,0.5-0.3,0.6-0.7c0.1-0.4,0-0.6,0-0.7c0-0.1-0.1-0.5-0.8-0.8"/>
		<path class="st1" d="M238.4,88.1c0,0,1.1-0.8,2.5-0.6c0,0,0.4,0.2,0.5-0.1c0.1-0.3,0.2-0.4,0.2-0.4s0-0.3-0.2-0.4
			c-0.3,0-1.3-0.2-2.6,0.4c0,0-0.3,0.1-0.3-0.1"/>
		<path class="st1" d="M238.4,85.2c0,0,1.5,0.6,3,1.4"/>
		<path class="st1" d="M235.7,83.5"/>
	</g>
	<path class="st22" d="M345.2,29.5"/>
	<g>
		<g>
			<defs>
				<circle id="SVGID_1_" cx="174.9" cy="45.7" r="40.6"/>
			</defs>
			<clipPath id="SVGID_00000075120135126151191800000006263642882046089638_">
				<use xlink:href="#SVGID_1_"  style="overflow:visible;"/>
			</clipPath>
			<g style="clip-path:url(#SVGID_00000075120135126151191800000006263642882046089638_);">
				<path class="st20" d="M157.6,64l3.5-1.7c0,0,1-0.5,2.1-0.1c0,0,0.8,0.3,1.1,0.5c0,0,0.5,0.2,0.8,0.1"/>
				<path class="st20" d="M166.1,68.5l-9.5-4.8c0,0-0.7-0.1-1,0.6c-0.3,0.6-0.2,0.9-0.2,0.9l0,1.1c0,0,0,0.7,0.5,1
					c0.6,0.3,4.1,2.4,9,4.5"/>
				<path class="st20" d="M171.3,66.5c0,0,0.1,1.4,0.1,2c0,0.6-0.6,0.9-0.6,0.9s-4.2,2.1-4.7,2.4s-0.7,0.3-0.7,0.3
					c-0.6-0.1-0.5-0.6-0.5-0.6v-1.5c0-0.7,0.4-1.1,0.4-1.1c0.7-0.7,1.1,0,1.1,0s0.1,0.3,0.5,0.1s3.9-1.9,3.9-1.9s0.6-0.5-0.2-1.1"/>
				<path class="st20" d="M171.2,66.3l3.7-3.9c0,0,0.4-0.4,1.1-0.7c0.8-0.3,1.5-1.7,1-2.8"/>
				<path class="st20" d="M174.8,57.3c0,0,1.2,0.4,0.9,1.2c0,0-0.2,0.3-1.1,0.7c-0.9,0.4-1.5,0.7-1.8,0.7c-0.3,0.1-0.8,0.3-0.8,0.3
					l-1.7-0.8c-0.1-0.4,0.5-1.1,0.5-1.1"/>
				<path class="st20" d="M168.2,65.7c0,0,1.6-0.8,3.2-2.5l0.7-3"/>
				<line class="st20" x1="175.3" y1="58.8" x2="176.1" y2="60.3"/>
				<path class="st1" d="M171.4,63.1c0,0,1.1-0.7,1.4-1l0.8-0.5c2.9-1.3,3.4-1.9,3.4-1.9c0.7-0.8-0.3-1.5-0.3-1.5l-1.4-0.9
					c-1.6-0.6-2.8,0.1-2.8,0.1l-1.7,0.9c-3,1.5-4.2,3.2-4.2,3.2c-1.2,1.4-2.5,2-2.5,2l4.3,2.2l1.3-0.3c0.5,0.1,1.7,0.9,1.7,0.9
					c0.4,0.6-0.1,0.7-0.1,0.7"/>
				<path class="st1" d="M160.8,72.3l-2.1,1.1c0,0-2.6,1.7,0.7,3.3c3.3,1.6,6.2,0,6.2,0l8-4c0,0,0.7-0.3,0.7-1.2v-1.1
					c0,0-2.3,1.1-3.7,1.2c-1.5,0-2.6-0.7-2.6-0.7"/>
				<line class="st1" x1="163.2" y1="71.1" x2="161.8" y2="71.8"/>
				<path class="st1" d="M158.6,73.4c0,0-1.9,0.9-1.3,3c0,0,2.1,1.9,5.8,2.5c0,0,1.4-0.1,3.2-0.9c1.8-0.9,11.1-5.6,11.1-5.6
					s0.9-0.3,0.9-2.1s0.1-6.8,0.1-6.8"/>
				<path class="st1" d="M176.1,61.2"/>
				<path class="st1" d="M176.9,61c0.6,0.3,2,1.3,1.2,2.8c0,0-0.4,1-2,1.4l-1.5-0.7v-1.4"/>
				<line class="st1" x1="171.9" y1="65.5" x2="175.8" y2="67.6"/>
				<path class="st1" d="M176.5,61.9c0,0.4,0,1.1,0,1.1s-0.1,0.6-0.7,0.9c-0.6,0.3-1.1,0.7-1.1,0.7"/>
				<path class="st1" d="M175.9,65.1l0,2.3c0,0,0.1,0.4-0.4,0.6s-3,1.7-5.2,1.8l-0.3-0.1"/>
				<ellipse class="st1" cx="162.3" cy="72.8" rx="1.8" ry="0.9"/>
				<path class="st1" d="M160.3,73.1V75c0,0.5,0.8,0.9,1.9,0.9c1,0,1.9-0.4,1.9-0.9v-2"/>
				<path class="st1" d="M169.5,76.4v1.2c0,0,0.2,1.6,3.1,1.7l0.1,0v-0.6c0-0.5,0.9-0.5,0.9-0.5c3.7-0.3,3.2-2,3.2-2v-3.5"/>
				<path class="st1" d="M172.5,77.8"/>
				<path class="st1" d="M172.7,79.3c0,0,2.1,1.4,4.5,0.1c0,0,0.7-0.4,0.8-1c0.1-0.6,0-0.8,0-1s-0.2-0.7-1.1-1.1"/>
				<path class="st1" d="M178.3,69.5c0,0,1.5-1.1,3.4-0.9c0,0,0.5,0.2,0.7-0.1c0.2-0.4,0.2-0.5,0.2-0.5s0-0.4-0.3-0.5
					s-1.8-0.2-3.6,0.6c0,0-0.4,0.2-0.5-0.1"/>
				<path class="st1" d="M178.3,65.5c0,0,2.1,0.8,4.2,2"/>
				<path class="st1" d="M174.6,63.1"/>
			</g>
			<g style="clip-path:url(#SVGID_00000075120135126151191800000006263642882046089638_);">
				<g>
					<polyline class="st24" points="188.3,51 182.1,53.3 154.8,35.4 					"/>
					<g>
						<path class="st1" d="M187.8,54.7l37.4-13.1l0.4-3.3c0,0,0.8-2,3.1-2.6c2.4-0.6,12-4.1,12-4.1s2.4-0.9,2.1,1.7
							s-0.4,1.8-0.4,1.8l27.2-9.5c0,0,0.9-0.2,1.1-2.4c0.2-2.2,1.3-2.9,2.4-3.3c1-0.4,13.4-4.9,13.4-4.9s1.7-0.2,1.5,1.5
							c-0.2,1.7-0.3,2.3-0.3,2.3l37.6-13.5L326.5-5c0,0-0.3-2.9-3-1.8c-2.7,1-4.4,2.9-4.8,5.2l-0.2,2.1L317.1,1l1.3-11.3
							c0,0-0.5-2-2.2-1.5S297.6-5,297.6-5s-2.5,1.3-2.8,3.7s-1.3,10.7-1.3,10.7l-1.3,0.6l0.4-3.3c0,0-0.6-2.3-2.5-1.5
							c-1.9,0.8-63.7,23.1-63.7,23.1s-1.8,0.5-2.8,2.8l-0.4,3.7l-1.8,0.7l1.3-11.1c0,0-0.3-2.4-2.1-1.8s-17.9,6.5-17.9,6.5
							s-2.9,1.1-3.4,3.5l-0.5,4.4l-0.8,6.9l-1.4,0.5l0.4-3.1c0,0-0.5-2.1-2.6-1.2c0,0-3.3,0.2-4.8,3.2L187.8,54.7z"/>
						<polyline class="st1" points="198.7,37 188.8,40.7 161.7,23 161.7,23 172.2,19.4 						"/>
						<polyline class="st1" points="161.7,23 161,29.1 188.1,46.6 188.8,40.7 						"/>
						<polyline class="st1" points="163.2,30.7 154.8,33.6 154.8,35 						"/>
						<polygon class="st1" points="297.3,7.5 314,1.7 315.2,-8.5 298.7,-2.6 						"/>
						<polygon class="st1" points="201.3,42.2 218,36.3 219.2,26.1 202.7,32.1 						"/>
						<path class="st1" d="M181.7,7.3l-8,3c0,0-3,1.3-3.3,4.4c-0.4,3.1-0.5,5.4-0.5,5.4"/>
						<polyline class="st1" points="181.2,13.9 182.7,1.1 187.7,-0.9 188.8,0.3 188.6,2.6 						"/>
						<polyline class="st1" points="185.5,16.7 187.1,3.8 192,1.8 193.1,3 192.9,5.3 						"/>
						<polyline class="st1" points="189.7,19.4 191.2,6.5 196.2,4.5 197.3,5.7 197,8 						"/>
						<polyline class="st1" points="193.8,22 195.4,9.2 200.3,7.2 201.4,8.4 201.2,10.7 						"/>
						<polyline class="st1" points="198,24.7 199.5,11.8 204.5,9.8 205.6,11 205.3,13.7 						"/>
						<polyline class="st1" points="202.1,29.1 203.8,14.7 208.8,12.7 209.9,13.9 208.4,26.6 						"/>
						<g>
							<polyline class="st1" points="194.7,5.1 195.3,0.8 200.2,-1.2 201.3,0 201.1,2.3 							"/>
							<polyline class="st1" points="198.9,7.8 199.4,3.4 204.4,1.4 205.5,2.6 205.2,4.9 							"/>
							<polyline class="st1" points="203.1,10.3 203.6,6.1 208.5,4.1 209.6,5.3 209.3,8 							"/>
							<polyline class="st1" points="207.4,13.3 207.9,9 212.8,7 213.9,8.2 211.9,25.3 							"/>
						</g>
						<g>
							<polyline class="st1" points="203.1,2.2 203.6,-2.1 208.5,-4.1 209.6,-2.9 209.4,-0.6 							"/>
							<polyline class="st1" points="207.2,4.9 207.7,0.5 212.7,-1.5 213.8,-0.3 213.5,2 							"/>
							<polyline class="st1" points="211.4,7.4 211.9,3.1 216.8,1.1 218,2.3 217.6,5.1 							"/>
							<polyline class="st1" points="214,24.5 216.2,6.1 221.1,4.1 222.3,5.3 220.2,22.4 							"/>
						</g>
						<g>
							<polyline class="st1" points="211.2,-0.8 211.7,-5.1 216.7,-7.1 217.8,-5.9 217.5,-3.6 							"/>
							<polyline class="st1" points="215.3,1.9 215.9,-2.5 220.8,-4.5 221.9,-3.3 221.7,-1 							"/>
							<polyline class="st1" points="219.5,4.4 220,0.1 225,-1.9 226.1,-0.7 225.8,2.1 							"/>
							<polyline class="st1" points="228.4,19.4 230.4,2.3 229.3,1.1 224.3,3.1 222.2,20.8 223.8,22 228.8,20.3 							"/>
						</g>
						<g>
							<polyline class="st1" points="219.6,-3.8 220.1,-8.1 225.1,-10.1 226.2,-8.9 226,-6.6 							"/>
							<polyline class="st1" points="223.8,-1.1 224.3,-5.4 229.3,-7.4 230.4,-6.2 230.1,-3.9 							"/>
							<polyline class="st1" points="228,1.5 228.5,-2.8 233.4,-4.8 234.5,-3.6 234.2,-0.8 							"/>
							<polyline class="st1" points="236.8,16.5 238.8,-0.7 237.7,-1.9 232.8,0.1 230.7,17.7 232.4,19.1 237,17.4 							"/>
						</g>
						<g>
							<polyline class="st1" points="232.1,-4 232.6,-8.3 237.6,-10.3 238.7,-9.1 238.5,-6.8 							"/>
							<polyline class="st1" points="227.9,-6.8 228.4,-11.1 233.4,-13.1 234.5,-11.9 234.2,-9.6 							"/>
							<polyline class="st1" points="223.6,-9.6 224.2,-13.9 229.1,-15.9 230.2,-14.7 230,-12.4 							"/>
							<polyline class="st1" points="236.3,-1.3 236.8,-5.7 241.8,-7.7 242.9,-6.4 242.6,-4.2 							"/>
							<polyline class="st1" points="246.7,-1.1 247,-3.8 245.9,-5 241,-3 238.8,14.9 240.3,16.1 243.3,15 							"/>
							<polyline class="st1" points="249.3,16.3 251.3,-0.9 250.2,-2.1 245.3,-0.1 243.2,17.5 244.9,18.8 249.5,17.2 							"/>
						</g>
						<g>
							<polyline class="st1" points="187.6,20.4 187.9,18.1 186.8,16.9 181.8,18.9 180.8,27.4 182.3,28.4 185.2,27.4 							"/>
							<polyline class="st1" points="183.4,17.6 183.7,15.3 182.6,14.1 177.6,16.1 176.6,24.6 178.3,25.5 180.9,24.6 							"/>
							<polyline class="st1" points="179.2,14.8 179.4,12.5 178.3,11.3 173.3,13.3 172.3,21.8 173.9,22.9 176.8,21.9 							"/>
							<polyline class="st1" points="191.8,23.1 192.1,20.8 191,19.6 186,21.6 185,30 186.6,31.2 189.3,30.2 							"/>
							<polyline class="st1" points="195.9,26.1 196.2,23.4 195.1,22.2 190.1,24.2 189.1,32.8 190.6,34 193.6,32.9 							"/>
							<polyline class="st1" points="200,30.8 200.5,26.3 199.4,25.1 194.4,27.1 193.5,35.4 195.2,36.7 198.9,35.2 							"/>
						</g>
						<g>
							<polyline class="st1" points="240.4,-7 240.9,-11.3 245.9,-13.3 247,-12.1 246.7,-9.8 							"/>
							<polyline class="st1" points="236.1,-9.8 236.6,-14.1 241.6,-16.1 242.7,-14.9 242.4,-12.6 							"/>
							<polyline class="st1" points="231.9,-12.6 232.4,-16.9 237.4,-18.9 238.5,-17.7 238.2,-15.4 							"/>
							<polyline class="st1" points="244.5,-4.3 245,-8.7 250,-10.7 251.1,-9.5 250.8,-7.2 							"/>
							<line class="st1" x1="249.9" y1="12.6" x2="251.6" y2="12"/>
							<polyline class="st1" points="254.9,-4.1 255.3,-6.8 254.2,-8 249.2,-6 248.7,-1.7 							"/>
							<polyline class="st1" points="257.5,13.2 259.6,-3.9 258.5,-5.1 253.5,-3.1 251.4,14.4 253.2,15.8 257.7,14.2 							"/>
						</g>
						<g>
							<polyline class="st1" points="248.9,-10 249.4,-14.3 254.4,-16.3 255.5,-15.1 255.2,-12.8 							"/>
							<polyline class="st1" points="244.6,-12.8 245.1,-17.1 250.1,-19.1 251.2,-17.9 250.9,-15.6 							"/>
							<polyline class="st1" points="240.4,-15.6 240.9,-19.8 245.9,-21.8 247,-20.6 246.7,-18.4 							"/>
							<polyline class="st1" points="253,-7.3 253.5,-11.6 258.5,-13.6 259.6,-12.4 259.3,-10.1 							"/>
							<line class="st1" x1="258.4" y1="9.6" x2="260.1" y2="9"/>
							<polyline class="st1" points="263.4,-7.1 263.8,-9.8 262.7,-11 257.7,-9 257.2,-4.6 							"/>
							<polyline class="st1" points="266,10.3 268.1,-6.9 267,-8.1 262,-6.1 259.9,11.5 261.7,12.8 266.2,11.2 							"/>
						</g>
						<g>
							<polyline class="st1" points="257,-13 257.6,-17.3 262.5,-19.3 263.6,-18.1 263.4,-15.8 							"/>
							<polyline class="st1" points="252.8,-15.8 253.3,-20 258.3,-22.1 259.4,-20.8 259.1,-18.6 							"/>
							<polyline class="st1" points="248.6,-18.5 249.1,-22.8 254,-24.8 255.1,-23.6 254.9,-21.3 							"/>
							<polyline class="st1" points="261.2,-10.3 261.7,-14.6 266.7,-16.6 267.8,-15.4 267.5,-13.1 							"/>
							<line class="st1" x1="266.5" y1="6.6" x2="268.3" y2="6.1"/>
							<polyline class="st1" points="271.6,-10.1 271.9,-12.8 270.8,-14 265.9,-12 265.3,-7.6 							"/>
							<polyline class="st1" points="274.2,7.3 276.2,-9.9 275.1,-11.1 270.2,-9.1 268.1,8.5 269.8,9.8 274.4,8.2 							"/>
						</g>
						<g>
							<polyline class="st1" points="265.4,-15.9 265.9,-20.2 270.9,-22.2 272,-21 271.7,-18.7 							"/>
							<polyline class="st1" points="261.2,-18.7 261.7,-23 266.7,-25 267.8,-23.8 267.5,-21.5 							"/>
							<polyline class="st1" points="256.9,-21.5 257.5,-25.8 262.4,-27.8 263.5,-26.6 263.3,-24.3 							"/>
							<polyline class="st1" points="269.6,-13.2 270.1,-17.6 275.1,-19.6 276.2,-18.4 275.9,-16.1 							"/>
							<line class="st1" x1="274.9" y1="3.7" x2="276.6" y2="3.1"/>
							<polyline class="st1" points="280,-13 280.3,-15.8 279.2,-17 274.2,-15 273.7,-10.6 							"/>
							<polyline class="st1" points="282.6,4.3 284.6,-12.8 283.5,-14 278.5,-12 276.5,5.5 278.2,6.9 282.8,5.2 							"/>
						</g>
						<g>
							<polyline class="st1" points="273.6,-18.9 274.1,-23.2 279.1,-25.2 280.2,-24 279.9,-21.7 							"/>
							<polyline class="st1" points="269.4,-21.7 269.9,-26 274.8,-28 275.9,-26.8 275.7,-24.5 							"/>
							<polyline class="st1" points="265.1,-24.5 265.6,-28.8 270.6,-30.8 271.7,-29.6 271.4,-27.3 							"/>
							<polyline class="st1" points="277.7,-16.2 278.3,-20.6 283.2,-22.6 284.3,-21.4 284.1,-19.1 							"/>
							<line class="st1" x1="283.1" y1="0.7" x2="284.8" y2="0.1"/>
							<polyline class="st1" points="288.2,-16 288.5,-18.7 287.4,-20 282.4,-17.9 281.9,-13.6 							"/>
							<polyline class="st1" points="290.8,1.3 292.8,-15.8 291.7,-17 286.7,-15 284.6,2.5 286.4,3.9 290.9,2.2 							"/>
						</g>
						<g>
							<polyline class="st1" points="281.9,-21.8 282.4,-26.1 287.3,-28.1 288.5,-26.9 288.2,-24.6 							"/>
							<polyline class="st1" points="277.6,-24.6 278.1,-28.9 283.1,-30.9 284.2,-29.7 283.9,-27.4 							"/>
							<polyline class="st1" points="273.4,-27.4 273.9,-31.7 278.9,-33.7 280,-32.5 279.7,-30.2 							"/>
							<polyline class="st1" points="286,-19.1 286.5,-23.5 291.5,-25.5 292.6,-24.3 292.3,-22 							"/>
							<line class="st1" x1="291.4" y1="-2.2" x2="293.1" y2="-2.8"/>
							<polyline class="st1" points="296.4,-18.9 296.8,-21.6 295.7,-22.8 290.7,-20.8 290.2,-16.5 							"/>
							<polyline class="st1" points="299.5,-5.8 301.1,-18.7 300,-19.9 295,-17.9 292.9,-0.3 294.4,0.8 							"/>
						</g>
						<g>
							<polyline class="st1" points="290.3,-24.9 290.8,-29.2 295.7,-31.2 296.9,-30 296.6,-27.7 							"/>
							<polyline class="st1" points="286,-27.7 286.5,-32 291.5,-34 292.6,-32.8 292.3,-30.5 							"/>
							<polyline class="st1" points="281.8,-30.5 282.3,-34.8 287.3,-36.8 288.4,-35.6 288.1,-33.3 							"/>
							<polyline class="st1" points="294.4,-22.2 294.9,-26.5 299.9,-28.5 301,-27.3 300.7,-25 							"/>
							<polyline class="st1" points="304.8,-22 305.2,-24.7 304.1,-25.9 299.1,-23.9 298.6,-19.6 							"/>
							<polyline class="st1" points="308,-9.1 309.5,-21.8 308.4,-23 303.4,-21 301.7,-6.6 							"/>
						</g>
						<g>
							<polyline class="st1" points="298.4,-27.9 298.9,-32.2 303.9,-34.2 305,-33 304.8,-30.7 							"/>
							<polyline class="st1" points="294.2,-30.7 294.7,-35 299.7,-37 300.8,-35.8 300.5,-33.5 							"/>
							<polyline class="st1" points="289.9,-33.5 290.5,-37.7 295.4,-39.7 296.5,-38.5 296.3,-36.3 							"/>
							<polyline class="st1" points="302.6,-25.2 303.1,-29.5 308.1,-31.5 309.2,-30.3 308.9,-28 							"/>
							<polyline class="st1" points="313,-25 313.3,-27.7 312.2,-28.9 307.3,-26.9 306.7,-22.5 							"/>
							<polyline class="st1" points="316.1,-12 317.6,-24.8 316.5,-26 311.6,-24 309.9,-9.6 							"/>
						</g>
						<g>
							<polyline class="st1" points="306.8,-30.7 307.3,-35 312.3,-37 313.4,-35.8 313.1,-33.5 							"/>
							<polyline class="st1" points="302.6,-33.5 303.1,-37.8 308,-39.8 309.2,-38.6 308.9,-36.3 							"/>
							<polyline class="st1" points="298.3,-36.3 298.8,-40.6 303.8,-42.6 304.9,-41.4 304.6,-39.1 							"/>
							<polyline class="st1" points="311,-28 311.5,-32.4 316.4,-34.4 317.6,-33.2 317.3,-30.9 							"/>
							<polyline class="st1" points="321.4,-27.8 321.7,-30.5 320.6,-31.8 315.6,-29.7 315.1,-25.4 							"/>
							<line class="st1" x1="319.4" y1="-8" x2="323.9" y2="-9.7"/>
							<polyline class="st1" points="323.6,-10 326,-27.6 324.9,-28.8 319.9,-26.8 318.1,-11.7 							"/>
						</g>
					</g>
				</g>
			</g>
			
				<path style="clip-path:url(#SVGID_00000075120135126151191800000006263642882046089638_);fill:#2D2A26;stroke:#FFFFFF;stroke-width:1.1252;stroke-linecap:round;stroke-linejoin:round;stroke-miterlimit:10;" d="
				M181.2,26.8l6.9,4.8L182.9,14l-17.3,3.1l5.9,3.7c0,0-6.8,5.9-3.6,18.7l10.3,6.8C178.2,46.3,176.4,32.3,181.2,26.8z"/>
		</g>
		<polygon class="st26" points="161,65.9 168.1,61.4 164.5,60 164.5,46.1 157.4,43.2 157.4,57.1 153.8,55.6 		"/>
		<circle class="st20" cx="174.9" cy="45.7" r="40.6"/>
	</g>
	<g>
		<circle class="st27" cx="135.7" cy="55.9" r="14"/>
		<g>
			<text transform="matrix(1 0 0 1 129.8671 62.6946)" class="st28 st29 st30">1</text>
		</g>
	</g>
</g>
<g id="Cache_Callout">
	<g>
		<g>
			<polyline class="st1" points="245.5,74.9 241.1,76.5 221.6,63.7 			"/>
			<g>
				<path class="st1" d="M245.2,77.5l26.8-9.3l0.3-2.4c0,0,0.6-1.5,2.2-1.9c1.7-0.4,8.6-2.9,8.6-2.9s1.7-0.7,1.5,1.2
					c-0.2,1.9-0.3,1.3-0.3,1.3l19.4-6.8c0,0,0.6-0.2,0.8-1.7s1-2.1,1.7-2.3c0.7-0.3,9.6-3.5,9.6-3.5s1.2-0.2,1.1,1.1
					c-0.1,1.2-0.2,1.6-0.2,1.6l26.9-9.7l0.9-7.4c0,0-0.2-2-2.2-1.3s-3.2,2-3.4,3.7l-0.2,1.5l-1,0.4l1-8.1c0,0-0.3-1.5-1.6-1
					c-1.3,0.4-13.4,4.9-13.4,4.9s-1.8,1-2,2.6c-0.2,1.7-0.9,7.7-0.9,7.7l-1,0.4l0.3-2.4c0,0-0.4-1.7-1.8-1.1
					c-1.4,0.6-45.6,16.5-45.6,16.5s-1.3,0.4-2,2l-0.3,2.6l-1.3,0.5l0.9-7.9c0,0-0.2-1.7-1.5-1.3c-1.3,0.4-12.8,4.6-12.8,4.6
					s-2.1,0.8-2.5,2.5l-0.4,3.2l-0.6,5l-1,0.3l0.3-2.2c0,0-0.3-1.5-1.9-0.9c0,0-2.3,0.2-3.4,2.3L245.2,77.5z"/>
				<polyline class="st1" points="252.9,64.9 245.8,67.5 226.5,54.9 226.5,54.9 234,52.3 				"/>
				<polyline class="st1" points="226.5,54.9 226,59.2 245.4,71.7 245.9,67.5 				"/>
				<polyline class="st1" points="227.6,60.4 221.6,62.4 221.6,63.5 				"/>
				<polygon class="st1" points="323.5,43.8 335.4,39.6 336.3,32.3 324.5,36.6 				"/>
				<polygon class="st1" points="254.8,68.6 266.8,64.4 267.7,57.1 255.8,61.3 				"/>
				<path class="st1" d="M240.8,43.6l-5.7,2.2c0,0-2.1,0.9-2.4,3.1c-0.3,2.2-0.4,3.9-0.4,3.9"/>
				<polyline class="st1" points="240.5,48.4 241.5,39.2 245.1,37.7 245.9,38.6 245.7,40.2 				"/>
				<polyline class="st1" points="243.5,50.3 244.6,41.1 248.2,39.7 249,40.6 248.8,42.2 				"/>
				<polyline class="st1" points="246.5,52.3 247.6,43.1 251.2,41.7 251.9,42.5 251.8,44.2 				"/>
				<polyline class="st1" points="249.5,54.2 250.6,45 254.1,43.5 254.9,44.4 254.7,46 				"/>
				<polyline class="st1" points="252.5,56.1 253.5,46.9 257.1,45.4 257.9,46.3 257.7,48.2 				"/>
				<polyline class="st1" points="255.4,59.2 256.6,48.9 260.2,47.5 261,48.4 259.9,57.4 				"/>
				<g>
					<polyline class="st1" points="250.1,42 250.5,39 254,37.5 254.8,38.4 254.6,40 					"/>
					<polyline class="st1" points="253.1,44 253.5,40.9 257,39.4 257.8,40.3 257.6,41.9 					"/>
					<polyline class="st1" points="256.1,45.8 256.4,42.7 260,41.3 260.8,42.2 260.6,44.1 					"/>
					<polyline class="st1" points="259.1,47.9 259.5,44.8 263.1,43.4 263.9,44.3 262.4,56.5 					"/>
				</g>
				<g>
					<polyline class="st1" points="256.1,40 256.4,36.9 260,35.4 260.8,36.3 260.6,37.9 					"/>
					<polyline class="st1" points="259,41.9 259.4,38.8 263,37.3 263.8,38.2 263.6,39.8 					"/>
					<polyline class="st1" points="262,43.7 262.4,40.7 265.9,39.2 266.7,40.1 266.5,42 					"/>
					<polyline class="st1" points="263.9,56 265.5,42.7 269,41.3 269.8,42.2 268.3,54.4 					"/>
				</g>
				<g>
					<polyline class="st1" points="261.9,37.8 262.3,34.7 265.8,33.3 266.6,34.2 266.4,35.8 					"/>
					<polyline class="st1" points="264.9,39.7 265.2,36.6 268.8,35.2 269.6,36 269.4,37.7 					"/>
					<polyline class="st1" points="267.8,41.5 268.2,38.5 271.8,37.1 272.5,37.9 272.3,39.9 					"/>
					<polyline class="st1" points="274.2,52.3 275.6,40 274.8,39.2 271.3,40.6 269.8,53.3 270.9,54.2 274.5,53 					"/>
				</g>
				<g>
					<polyline class="st1" points="267.9,35.7 268.3,32.6 271.9,31.2 272.6,32.1 272.5,33.7 					"/>
					<polyline class="st1" points="270.9,37.6 271.3,34.5 274.8,33.1 275.6,34 275.4,35.6 					"/>
					<polyline class="st1" points="273.9,39.4 274.2,36.4 277.8,35 278.6,35.8 278.4,37.8 					"/>
					<polyline class="st1" points="280.2,50.2 281.7,37.9 280.9,37.1 277.3,38.5 275.8,51.1 277.1,52 280.3,50.9 					"/>
				</g>
				<g>
					<polyline class="st1" points="276.9,35.6 277.2,32.5 280.8,31 281.6,31.9 281.4,33.5 					"/>
					<polyline class="st1" points="273.8,33.6 274.2,30.5 277.8,29.1 278.5,29.9 278.4,31.6 					"/>
					<polyline class="st1" points="270.8,31.6 271.2,28.5 274.7,27.1 275.5,27.9 275.3,29.6 					"/>
					<polyline class="st1" points="279.8,37.5 280.2,34.4 283.8,32.9 284.6,33.8 284.4,35.4 					"/>
					<polyline class="st1" points="287.3,37.6 287.5,35.7 286.7,34.8 283.2,36.3 281.7,49.1 282.7,49.9 284.9,49.2 					"/>
					<polyline class="st1" points="289.1,50 290.6,37.8 289.8,36.9 286.3,38.3 284.8,50.9 286,51.9 289.3,50.7 					"/>
				</g>
				<g>
					<polyline class="st1" points="245.1,53 245.2,51.4 244.5,50.5 240.9,51.9 240.2,58 241.2,58.7 243.3,58 					"/>
					<polyline class="st1" points="242,51 242.2,49.4 241.4,48.5 237.9,49.9 237.1,56 238.3,56.7 240.3,56 					"/>
					<polyline class="st1" points="239,49 239.2,47.4 238.4,46.5 234.8,47.9 234.1,54 235.2,54.8 237.3,54.1 					"/>
					<polyline class="st1" points="248,54.9 248.2,53.3 247.4,52.4 243.9,53.8 243.1,59.9 244.3,60.7 246.2,60 					"/>
					<polyline class="st1" points="251,57.1 251.2,55.1 250.4,54.3 246.8,55.7 246.1,61.9 247.1,62.7 249.3,62 					"/>
					<polyline class="st1" points="253.9,60.4 254.3,57.2 253.5,56.4 249.9,57.8 249.2,63.7 250.5,64.7 253.1,63.6 					"/>
				</g>
				<g>
					<polyline class="st1" points="282.8,33.4 283.1,30.3 286.7,28.9 287.5,29.7 287.3,31.4 					"/>
					<polyline class="st1" points="279.7,31.4 280.1,28.3 283.6,26.9 284.4,27.8 284.2,29.4 					"/>
					<polyline class="st1" points="276.7,29.4 277.1,26.3 280.6,24.9 281.4,25.8 281.2,27.4 					"/>
					<polyline class="st1" points="285.7,35.3 286.1,32.2 289.7,30.8 290.4,31.6 290.3,33.3 					"/>
					<line class="st1" x1="289.5" y1="47.4" x2="290.8" y2="47"/>
					<polyline class="st1" points="293.2,35.5 293.4,33.5 292.6,32.7 289.1,34.1 288.7,37.2 					"/>
					<polyline class="st1" points="295,47.9 296.5,35.6 295.7,34.7 292.1,36.2 290.7,48.7 291.9,49.7 295.2,48.5 					"/>
				</g>
				<g>
					<polyline class="st1" points="288.8,31.3 289.2,28.2 292.8,26.8 293.6,27.6 293.4,29.3 					"/>
					<polyline class="st1" points="285.8,29.3 286.2,26.2 289.7,24.8 290.5,25.6 290.3,27.3 					"/>
					<polyline class="st1" points="282.8,27.3 283.1,24.2 286.7,22.8 287.5,23.6 287.3,25.3 					"/>
					<polyline class="st1" points="291.8,33.2 292.2,30.1 295.7,28.7 296.5,29.5 296.3,31.2 					"/>
					<line class="st1" x1="295.6" y1="45.3" x2="296.9" y2="44.9"/>
					<polyline class="st1" points="299.3,33.4 299.5,31.4 298.7,30.5 295.2,32 294.8,35.1 					"/>
					<polyline class="st1" points="301.1,45.8 302.6,33.5 301.8,32.6 298.2,34.1 296.7,46.6 298,47.6 301.2,46.4 					"/>
				</g>
				<g>
					<polyline class="st1" points="294.7,29.1 295,26.1 298.6,24.6 299.4,25.5 299.2,27.1 					"/>
					<polyline class="st1" points="291.6,27.1 292,24.1 295.6,22.6 296.4,23.5 296.2,25.1 					"/>
					<polyline class="st1" points="288.6,25.1 289,22.1 292.5,20.6 293.3,21.5 293.1,23.1 					"/>
					<polyline class="st1" points="297.7,31.1 298,27.9 301.6,26.5 302.4,27.4 302.2,29 					"/>
					<line class="st1" x1="301.5" y1="43.2" x2="302.7" y2="42.7"/>
					<polyline class="st1" points="305.1,31.2 305.3,29.3 304.5,28.4 301,29.8 300.6,32.9 					"/>
					<polyline class="st1" points="307,43.6 308.4,31.4 307.6,30.5 304.1,31.9 302.6,44.5 303.8,45.4 307.1,44.3 					"/>
				</g>
				<g>
					<polyline class="st1" points="300.7,27 301,23.9 304.6,22.5 305.4,23.4 305.2,25 					"/>
					<polyline class="st1" points="297.6,25 298,21.9 301.6,20.5 302.4,21.4 302.2,23 					"/>
					<polyline class="st1" points="294.6,23 295,19.9 298.5,18.5 299.3,19.4 299.1,21 					"/>
					<polyline class="st1" points="303.7,28.9 304,25.8 307.6,24.4 308.4,25.3 308.2,26.9 					"/>
					<line class="st1" x1="307.5" y1="41" x2="308.7" y2="40.6"/>
					<polyline class="st1" points="311.1,29.1 311.3,27.1 310.5,26.3 307,27.7 306.6,30.8 					"/>
					<polyline class="st1" points="313,41.5 314.4,29.2 313.6,28.4 310.1,29.8 308.6,42.4 309.8,43.3 313.1,42.2 					"/>
				</g>
				<g>
					<polyline class="st1" points="306.5,24.9 306.9,21.8 310.4,20.4 311.2,21.2 311,22.9 					"/>
					<polyline class="st1" points="303.5,22.9 303.9,19.8 307.4,18.4 308.2,19.2 308,20.9 					"/>
					<polyline class="st1" points="300.5,20.9 300.8,17.8 304.4,16.4 305.2,17.2 305,18.9 					"/>
					<polyline class="st1" points="309.5,26.8 309.9,23.7 313.4,22.3 314.2,23.1 314,24.8 					"/>
					<line class="st1" x1="313.3" y1="38.9" x2="314.5" y2="38.5"/>
					<polyline class="st1" points="316.9,27 317.2,25 316.4,24.1 312.8,25.6 312.5,28.7 					"/>
					<polyline class="st1" points="318.8,39.4 320.3,27.1 319.5,26.2 315.9,27.7 314.4,40.2 315.7,41.2 318.9,40 					"/>
				</g>
				<g>
					<polyline class="st1" points="312.4,22.8 312.8,19.7 316.4,18.3 317.2,19.2 317,20.8 					"/>
					<polyline class="st1" points="309.4,20.8 309.8,17.8 313.3,16.3 314.1,17.2 313.9,18.8 					"/>
					<polyline class="st1" points="306.4,18.8 306.7,15.8 310.3,14.3 311.1,15.2 310.9,16.8 					"/>
					<polyline class="st1" points="315.4,24.7 315.8,21.6 319.3,20.2 320.1,21.1 319.9,22.7 					"/>
					<line class="st1" x1="319.2" y1="36.8" x2="320.5" y2="36.4"/>
					<polyline class="st1" points="322.9,24.9 323.1,22.9 322.3,22.1 318.7,23.5 318.4,26.6 					"/>
					<polyline class="st1" points="325.1,34.3 326.2,25 325.4,24.2 321.8,25.6 320.3,38.2 321.4,38.9 					"/>
				</g>
				<g>
					<polyline class="st1" points="318.4,20.6 318.8,17.5 322.4,16.1 323.2,17 323,18.6 					"/>
					<polyline class="st1" points="315.4,18.6 315.8,15.5 319.3,14.1 320.1,15 319.9,16.6 					"/>
					<polyline class="st1" points="312.4,16.6 312.7,13.6 316.3,12.1 317.1,13 316.9,14.6 					"/>
					<polyline class="st1" points="321.4,22.5 321.8,19.4 325.3,18 326.1,18.9 325.9,20.5 					"/>
					<polyline class="st1" points="328.9,22.7 329.1,20.7 328.3,19.9 324.8,21.3 324.4,24.4 					"/>
					<polyline class="st1" points="331.1,31.9 332.2,22.8 331.4,22 327.8,23.4 326.6,33.7 					"/>
				</g>
				<g>
					<polyline class="st1" points="324.3,18.5 324.7,15.4 328.2,14 329,14.8 328.8,16.5 					"/>
					<polyline class="st1" points="321.3,16.5 321.6,13.4 325.2,12 326,12.8 325.8,14.5 					"/>
					<polyline class="st1" points="318.2,14.5 318.6,11.4 322.1,10 322.9,10.8 322.7,12.5 					"/>
					<polyline class="st1" points="327.3,20.4 327.6,17.3 331.2,15.9 332,16.7 331.8,18.4 					"/>
					<polyline class="st1" points="334.7,20.6 334.9,18.6 334.2,17.7 330.6,19.2 330.2,22.3 					"/>
					<polyline class="st1" points="336.9,29.8 338,20.7 337.2,19.8 333.7,21.3 332.5,31.5 					"/>
				</g>
				<g>
					<polyline class="st1" points="330.3,16.4 330.6,13.4 334.2,11.9 335,12.8 334.8,14.4 					"/>
					<polyline class="st1" points="327.2,14.4 327.6,11.4 331.2,9.9 332,10.8 331.8,12.4 					"/>
					<polyline class="st1" points="324.2,12.4 324.6,9.4 328.1,7.9 328.9,8.8 328.7,10.4 					"/>
					<polyline class="st1" points="333.2,18.4 333.6,15.2 337.2,13.8 338,14.7 337.8,16.3 					"/>
					<polyline class="st1" points="340.7,18.5 340.9,16.6 340.1,15.7 336.6,17.1 336.2,20.2 					"/>
					<line class="st1" x1="339.3" y1="32.7" x2="342.5" y2="31.5"/>
					<polyline class="st1" points="342.3,31.2 344,18.6 343.2,17.8 339.7,19.2 338.4,30 					"/>
				</g>
			</g>
		</g>
	</g>
	<g>
		<g>
			<g>
				<polygon class="st31" points="318.4,55.7 311.1,50.8 326.3,45.3 322.7,42.9 339.2,44.3 336.9,52.7 333.2,50.2 				"/>
			</g>
		</g>
		<g>
			<g>
				<polygon class="st31" points="309.8,51.3 317.1,56.2 301.9,61.6 305.6,64 289.1,62.6 291.4,54.2 295,56.7 				"/>
			</g>
		</g>
	</g>
	<polyline class="st1" points="221.9,62.6 241.5,75.4 245.8,73.8 	"/>
	<line class="st1" x1="241.4" y1="76.7" x2="241.5" y2="75.4"/>
</g>
</svg>
