<?xml version="1.0" encoding="utf-8"?>
<!-- Generator: Adobe Illustrator 26.0.3, SVG Export Plug-In . SVG Version: 6.00 Build 0)  -->
<svg version="1.1" id="Layer_1" xmlns="http://www.w3.org/2000/svg" xmlns:xlink="http://www.w3.org/1999/xlink" x="0px" y="0px"
	 viewBox="0 0 299.756 99.229" style="enable-background:new 0 0 299.756 99.229;" xml:space="preserve">
<style type="text/css">
	.st0{fill:none;stroke:#CCCCCC;stroke-width:0.6715;stroke-linecap:round;stroke-linejoin:round;stroke-miterlimit:10;}
	.st1{fill:#E6E6E6;}
	.st2{fill:#CCCCCC;}
	.st3{fill-rule:evenodd;clip-rule:evenodd;fill:#E6E6E6;}
	.st4{fill-rule:evenodd;clip-rule:evenodd;fill:#262626;}
	.st5{fill:#595A5A;}
	.st6{fill:#D9D9D9;}
	.st7{fill:#6A6A6A;}
	.st8{fill-rule:evenodd;clip-rule:evenodd;fill:#FFFFFF;}
	.st9{fill:#292929;}
	.st10{fill-rule:evenodd;clip-rule:evenodd;fill:#B3B3B3;}
	.st11{fill-rule:evenodd;clip-rule:evenodd;fill:#D66927;}
	.st12{fill-rule:evenodd;clip-rule:evenodd;fill:#333333;}
	.st13{fill:#FFFFFF;}
	.st14{fill-rule:evenodd;clip-rule:evenodd;fill:#999999;}
	.st15{fill:#2762AC;}
	.st16{fill:#F5F6F6;}
	.st17{fill-rule:evenodd;clip-rule:evenodd;fill:#F5F6F6;}
	.st18{fill:#EE7623;stroke:#2762AC;stroke-width:0.2857;stroke-miterlimit:10;}
	.st19{fill:#262626;}
	.st20{fill-rule:evenodd;clip-rule:evenodd;fill:#1A1A1A;}
	.st21{fill-rule:evenodd;clip-rule:evenodd;fill:#F2F2F2;}
	.st22{fill:#4D4E4E;}
	.st23{fill:none;stroke:#FFFFFF;stroke-width:0.1222;stroke-miterlimit:10;}
	.st24{fill:none;stroke:#EE7623;stroke-width:1.75;stroke-linecap:round;stroke-linejoin:round;stroke-miterlimit:10;}
	.st25{fill:#EE7623;}
</style>
<g>
	<g>
		<g>
			<g>
				<rect x="6.172" y="5.622" class="st0" width="288" height="60.189"/>
				<rect x="9.1" y="8.607" class="st1" width="282.145" height="54.219"/>
				<g>
					<rect x="13.986" y="36.661" class="st2" width="131.612" height="24.126"/>
					<g>
						<path class="st3" d="M55.823,57.713h20.568c0.293,0,0.549-0.22,0.549-0.549V38.536c0-0.329-0.256-0.549-0.549-0.549H55.823
							c-0.293,0-0.549,0.22-0.549,0.549v18.628C55.274,57.493,55.53,57.713,55.823,57.713"/>
						<path class="st4" d="M69.474,39.011c0-0.146-0.11-0.22-0.22-0.22s-0.22,0.11-0.22,0.22l0.146,1.354
							c0,0.073,0.037,0.073,0.073,0.073c0.037,0,0.073-0.037,0.073-0.073L69.474,39.011 M69.51,40.951
							c0-0.146-0.11-0.256-0.256-0.256c-0.146,0-0.256,0.11-0.256,0.256c0,0.11,0.11,0.22,0.256,0.22
							C69.401,41.171,69.51,41.061,69.51,40.951z"/>
						<path class="st4" d="M64.423,39.743c-0.146-0.586-0.769-0.915-1.354-0.769c-0.622,0.183-0.952,0.805-0.769,1.391
							c0.183,0.586,0.805,0.915,1.391,0.769C64.277,40.951,64.606,40.329,64.423,39.743 M64.277,39.963
							c0.073,0.476-0.293,0.952-0.805,0.988c-0.366,0.073-0.769-0.146-0.915-0.512l0.622-0.622l0.256,0.988L64.277,39.963z
							 M62.447,40.182c-0.037-0.512,0.293-0.988,0.805-1.025c0.403-0.073,0.769,0.146,0.952,0.512l-0.622,0.622l-0.256-0.988
							L62.447,40.182z"/>
					</g>
					<circle class="st4" cx="63.418" cy="43.26" r="1.232"/>
					<circle class="st4" cx="69.292" cy="43.26" r="1.232"/>
					<g>
						<path class="st5" d="M116.136,56.468h9.296c0.403,0,0.732-0.329,0.732-0.695V38.902c0-0.366-0.329-0.695-0.732-0.695h-9.296
							c-0.366,0-0.695,0.329-0.695,0.695v16.871C115.44,56.139,115.77,56.468,116.136,56.468z"/>
						<path class="st6" d="M116.868,53.724h7.868c0.293,0,0.549-0.256,0.549-0.549V41.5c0-0.293-0.256-0.549-0.549-0.549h-7.868
							c-0.329,0-0.549,0.256-0.549,0.549v11.675C116.319,53.467,116.538,53.724,116.868,53.724z"/>
						<path class="st5" d="M124.114,44.428v-1.72c0-0.183-0.146-0.329-0.329-0.329h-5.965c-0.183,0-0.329,0.146-0.329,0.329v1.72
							H124.114z"/>
						<path class="st7" d="M124.114,44.428h-6.624v7.393c0,0.183,0.146,0.329,0.329,0.329h5.965c0.183,0,0.329-0.146,0.329-0.329
							V44.428z"/>
						<path class="st8" d="M120.784,47.319c0.11,0,0.22-0.073,0.22-0.183v-1.574c0-0.11-0.11-0.183-0.22-0.183
							c-0.11,0-0.183,0.073-0.183,0.183v1.574C120.601,47.246,120.674,47.319,120.784,47.319 M121.515,50.027
							c0-0.403-0.329-0.695-0.732-0.695c-0.366,0-0.695,0.293-0.695,0.695c0,0.403,0.329,0.695,0.695,0.695
							C121.186,50.723,121.515,50.43,121.515,50.027z M121.918,50.027c0-0.622-0.512-1.098-1.135-1.098
							c-0.586,0-1.098,0.476-1.098,1.098c0,0.622,0.512,1.098,1.098,1.098C121.406,51.125,121.918,50.649,121.918,50.027z"/>
						<path class="st5" d="M128.652,39.011v16.981c0,0.549,0.439,0.988,0.988,0.988h12.297c0.549,0,0.988-0.439,0.988-0.988V39.011
							c0-0.549-0.439-0.988-0.988-0.988H129.64C129.091,38.023,128.652,38.462,128.652,39.011z"/>
						<path class="st9" d="M130.079,43.659v7.685c0,0.403,0.183,0.805,0.512,1.135l3.074,2.928c0.293,0.293,0.695,0.439,1.098,0.439
							h5.16c0.878,0,1.574-0.695,1.574-1.574V40.731c0-0.878-0.695-1.574-1.574-1.574h-5.16c-0.403,0-0.805,0.146-1.098,0.439
							l-3.074,2.928C130.262,42.854,130.079,43.257,130.079,43.659z"/>
						<path class="st10" d="M135.898,52.479h3.147v-0.952h-3.147V52.479z M132.531,47.978h3.147v-0.952h-3.147V47.978z
							 M135.898,43.476h3.147v-0.915h-3.147V43.476z"/>
					</g>
					<g>
						<rect x="100.121" y="57.494" class="st5" width="45.199" height="3.293"/>
						<rect x="65.07" y="55.848" class="st5" width="3.293" height="4.939"/>
						<rect x="14.722" y="57.494" class="st5" width="34" height="3.293"/>
						<path class="st7" d="M81.84,57.494c-0.689,0-1.34-0.077-1.991-0.23l-4.671-1.149c-0.651-0.191-1.302-0.268-1.991-0.268H68.21
							c-0.191,0-0.345,0.153-0.345,0.345v4.288c0,0.153,0.153,0.306,0.345,0.306h31.893v-3.293H81.84z"/>
						<path class="st11" d="M70.507,60.289h27.797v-2.297H81.84c-0.727,0-1.417-0.077-2.106-0.268l-4.671-1.149
							c-0.613-0.153-1.225-0.23-1.876-0.23h-2.68V60.289"/>
						<path class="st7" d="M60.284,57.494H48.683v3.293h16.578c0.153,0,0.306-0.153,0.306-0.306v-4.288
							c0-0.191-0.153-0.345-0.306-0.345h-2.297c-0.191,0-0.345,0.077-0.498,0.191l-1.685,1.302
							C60.629,57.456,60.437,57.494,60.284,57.494z"/>
						<rect x="12.272" y="58.566" class="st5" width="4.939" height="2.221"/>
					</g>
				</g>
				<g>
					<rect x="155.551" y="36.661" class="st2" width="131.612" height="24.126"/>
					<g>
						<path class="st3" d="M197.387,57.713h20.568c0.293,0,0.549-0.22,0.549-0.549V38.536c0-0.329-0.256-0.549-0.549-0.549h-20.568
							c-0.293,0-0.549,0.22-0.549,0.549v18.628C196.839,57.493,197.095,57.713,197.387,57.713"/>
						<path class="st4" d="M211.038,39.011c0-0.146-0.11-0.22-0.22-0.22c-0.11,0-0.22,0.11-0.22,0.22l0.146,1.354
							c0,0.073,0.037,0.073,0.073,0.073c0.037,0,0.073-0.037,0.073-0.073L211.038,39.011 M211.075,40.951
							c0-0.146-0.11-0.256-0.256-0.256c-0.146,0-0.256,0.11-0.256,0.256c0,0.11,0.11,0.22,0.256,0.22
							C210.965,41.171,211.075,41.061,211.075,40.951z"/>
						<path class="st4" d="M205.988,39.743c-0.146-0.586-0.769-0.915-1.354-0.769c-0.622,0.183-0.952,0.805-0.769,1.391
							c0.183,0.586,0.805,0.915,1.391,0.769C205.841,40.951,206.171,40.329,205.988,39.743 M205.841,39.963
							c0.073,0.476-0.293,0.952-0.805,0.988c-0.366,0.073-0.769-0.146-0.915-0.512l0.622-0.622L205,40.805L205.841,39.963z
							 M204.012,40.182c-0.037-0.512,0.293-0.988,0.805-1.025c0.403-0.073,0.769,0.146,0.952,0.512l-0.622,0.622l-0.256-0.988
							L204.012,40.182z"/>
					</g>
					<circle class="st4" cx="204.982" cy="43.26" r="1.232"/>
					<circle class="st4" cx="210.857" cy="43.26" r="1.232"/>
					<g>
						<path class="st5" d="M257.7,56.468h9.296c0.403,0,0.732-0.329,0.732-0.695V38.902c0-0.366-0.329-0.695-0.732-0.695H257.7
							c-0.366,0-0.695,0.329-0.695,0.695v16.871C257.005,56.139,257.334,56.468,257.7,56.468z"/>
						<path class="st6" d="M258.432,53.724h7.868c0.293,0,0.549-0.256,0.549-0.549V41.5c0-0.293-0.256-0.549-0.549-0.549h-7.868
							c-0.329,0-0.549,0.256-0.549,0.549v11.675C257.883,53.467,258.103,53.724,258.432,53.724z"/>
						<path class="st5" d="M265.678,44.428v-1.72c0-0.183-0.146-0.329-0.329-0.329h-5.965c-0.183,0-0.329,0.146-0.329,0.329v1.72
							H265.678z"/>
						<path class="st7" d="M265.678,44.428h-6.624v7.393c0,0.183,0.146,0.329,0.329,0.329h5.965c0.183,0,0.329-0.146,0.329-0.329
							V44.428z"/>
						<path class="st8" d="M262.348,47.319c0.11,0,0.22-0.073,0.22-0.183v-1.574c0-0.11-0.11-0.183-0.22-0.183
							c-0.11,0-0.183,0.073-0.183,0.183v1.574C262.165,47.246,262.238,47.319,262.348,47.319 M263.08,50.027
							c0-0.403-0.329-0.695-0.732-0.695c-0.366,0-0.695,0.293-0.695,0.695c0,0.403,0.329,0.695,0.695,0.695
							C262.751,50.723,263.08,50.43,263.08,50.027z M263.482,50.027c0-0.622-0.512-1.098-1.135-1.098
							c-0.586,0-1.098,0.476-1.098,1.098c0,0.622,0.512,1.098,1.098,1.098C262.97,51.125,263.482,50.649,263.482,50.027z"/>
						<path class="st5" d="M270.216,39.011v16.981c0,0.549,0.439,0.988,0.988,0.988h12.297c0.549,0,0.988-0.439,0.988-0.988V39.011
							c0-0.549-0.439-0.988-0.988-0.988h-12.297C270.656,38.023,270.216,38.462,270.216,39.011z"/>
						<path class="st9" d="M271.644,43.659v7.685c0,0.403,0.183,0.805,0.512,1.135l3.074,2.928c0.293,0.293,0.695,0.439,1.098,0.439
							h5.16c0.878,0,1.574-0.695,1.574-1.574V40.731c0-0.878-0.695-1.574-1.574-1.574h-5.16c-0.403,0-0.805,0.146-1.098,0.439
							l-3.074,2.928C271.827,42.854,271.644,43.257,271.644,43.659z"/>
						<path class="st10" d="M277.463,52.479h3.147v-0.952h-3.147V52.479z M274.096,47.978h3.147v-0.952h-3.147V47.978z
							 M277.463,43.476h3.147v-0.915h-3.147V43.476z"/>
					</g>
					<g>
						<rect x="242.805" y="57.57" class="st5" width="44.162" height="3.217"/>
						<rect x="208.559" y="55.961" class="st5" width="3.217" height="4.826"/>
						<rect x="159.367" y="57.57" class="st5" width="33.22" height="3.217"/>
						<path class="st7" d="M224.944,57.57c-0.673,0-1.309-0.075-1.945-0.224l-4.564-1.122c-0.636-0.187-1.272-0.262-1.945-0.262
							h-4.863c-0.187,0-0.337,0.15-0.337,0.337v4.19c0,0.15,0.15,0.299,0.337,0.299h31.161V57.57H224.944z"/>
						<path class="st11" d="M213.871,60.301h27.158v-2.244h-16.086c-0.711,0-1.384-0.075-2.057-0.262l-4.564-1.122
							c-0.599-0.15-1.197-0.224-1.833-0.224h-2.619V60.301"/>
						<path class="st7" d="M203.883,57.57h-11.335v3.217h16.198c0.15,0,0.299-0.15,0.299-0.299v-4.19
							c0-0.187-0.15-0.337-0.299-0.337h-2.244c-0.187,0-0.337,0.075-0.486,0.187l-1.646,1.272
							C204.219,57.532,204.032,57.57,203.883,57.57z"/>
						<rect x="156.973" y="58.617" class="st5" width="4.826" height="2.17"/>
					</g>
				</g>
				<g>
					<path class="st12" d="M149.968,44.034h3.001v-3.623h-3.001l-1.391,1.793L149.968,44.034z M151.578,55.379l1.391-1.83
						l-1.391-1.83h-3.001v3.66H151.578z"/>
					<path class="st8" d="M150.81,53.549c0-0.512-0.439-0.952-0.988-0.952s-0.988,0.439-0.988,0.952
						c0,0.549,0.439,0.988,0.988,0.988S150.81,54.098,150.81,53.549 M150.627,53.696c-0.073,0.439-0.476,0.732-0.915,0.659
						c-0.366-0.037-0.622-0.293-0.695-0.622l-0.037-0.037l0.695-0.403v0.915l0.915-0.549L150.627,53.696z M149.016,53.439
						c0.037-0.439,0.476-0.732,0.915-0.695c0.329,0.073,0.622,0.329,0.659,0.659l-0.695,0.403V52.89l-0.915,0.549H149.016z
						 M151.505,42.204c0-0.512-0.439-0.952-0.988-0.952c-0.549,0-0.988,0.439-0.988,0.952c0,0.549,0.439,0.988,0.988,0.988
						C151.066,43.192,151.505,42.753,151.505,42.204z M151.322,42.35c-0.037,0.439-0.476,0.732-0.915,0.659
						c-0.329-0.037-0.622-0.293-0.659-0.622l-0.037-0.037l0.695-0.403v0.915l0.915-0.549V42.35z M149.712,42.094
						c0.073-0.439,0.476-0.732,0.915-0.659c0.366,0.037,0.622,0.293,0.695,0.622l-0.695,0.403v-0.915L149.712,42.094z"/>
					<g>
						<path class="st13" d="M152.506,43.007h-0.192v-1.229c-0.047,0.044-0.107,0.088-0.183,0.133
							c-0.076,0.044-0.144,0.077-0.203,0.1v-0.187c0.107-0.051,0.202-0.112,0.282-0.185c0.081-0.072,0.138-0.142,0.172-0.21h0.124
							V43.007z"/>
					</g>
					<g>
						<path class="st13" d="M152.061,54.169v0.186h-1.038c-0.001-0.047,0.006-0.091,0.022-0.134
							c0.026-0.071,0.068-0.141,0.127-0.209s0.143-0.147,0.252-0.238c0.171-0.14,0.286-0.25,0.347-0.332
							c0.06-0.082,0.09-0.159,0.09-0.232c0-0.076-0.027-0.141-0.082-0.193c-0.055-0.052-0.126-0.078-0.214-0.078
							c-0.093,0-0.167,0.027-0.223,0.083s-0.084,0.133-0.085,0.231l-0.198-0.021c0.014-0.147,0.064-0.26,0.153-0.338
							c0.089-0.077,0.208-0.116,0.356-0.116c0.151,0,0.271,0.042,0.358,0.126c0.088,0.083,0.132,0.187,0.132,0.311
							c0,0.062-0.013,0.124-0.039,0.185c-0.025,0.062-0.068,0.125-0.128,0.192s-0.158,0.159-0.297,0.276
							c-0.116,0.097-0.19,0.163-0.223,0.197c-0.033,0.035-0.061,0.069-0.082,0.104H152.061z"/>
					</g>
				</g>
				<rect x="13.986" y="10.737" class="st1" width="131.612" height="24.126"/>
				<g>
					<g>
						<polyline class="st12" points="149.968,18.663 152.969,18.663 152.969,15.039 149.968,15.039 148.577,16.833 149.968,18.663 
													"/>
						<polygon class="st12" points="151.578,30.008 152.969,28.178 151.578,26.385 148.577,26.385 148.577,30.008 						"/>
						<g>
							<path class="st13" d="M152.481,17.82h-0.413l-0.165-0.428h-0.753l-0.156,0.428h-0.403l0.734-1.885h0.402L152.481,17.82z
								 M151.781,17.074l-0.26-0.699l-0.255,0.699H151.781z"/>
						</g>
						<g>
							<path class="st13" d="M149.392,27.282h0.754c0.149,0,0.26,0.007,0.333,0.019c0.074,0.013,0.14,0.039,0.197,0.078
								s0.105,0.092,0.145,0.157c0.038,0.065,0.058,0.14,0.058,0.221c0,0.088-0.023,0.169-0.071,0.243
								c-0.048,0.073-0.112,0.129-0.193,0.166c0.115,0.033,0.203,0.09,0.265,0.171c0.062,0.08,0.093,0.175,0.093,0.284
								c0,0.085-0.02,0.169-0.06,0.25s-0.095,0.146-0.163,0.193c-0.069,0.049-0.154,0.078-0.256,0.09
								c-0.063,0.007-0.216,0.011-0.459,0.013h-0.642V27.282z M149.773,27.595v0.437h0.249c0.148,0,0.241-0.003,0.277-0.007
								c0.064-0.008,0.116-0.03,0.153-0.067s0.056-0.086,0.056-0.147c0-0.058-0.016-0.105-0.048-0.142
								c-0.032-0.037-0.08-0.059-0.144-0.066c-0.038-0.004-0.146-0.007-0.325-0.007H149.773z M149.773,28.345v0.504h0.353
								c0.137,0,0.224-0.004,0.261-0.012c0.057-0.011,0.103-0.035,0.139-0.075c0.035-0.04,0.053-0.093,0.053-0.16
								c0-0.057-0.014-0.104-0.041-0.144c-0.027-0.04-0.067-0.068-0.119-0.087c-0.052-0.018-0.164-0.026-0.337-0.026H149.773z"/>
						</g>
					</g>
				</g>
				<g>
					<rect x="155.551" y="10.737" class="st1" width="131.612" height="24.126"/>
				</g>
			</g>
			<g>
				<rect x="86.235" y="10.885" class="st14" width="59.068" height="19.631"/>
				<rect x="115.769" y="10.885" class="st15" width="21.542" height="15.201"/>
				<rect x="86.202" y="10.885" class="st16" width="29.393" height="15.201"/>
			</g>
			<rect x="14.214" y="10.902" class="st14" width="69.425" height="22.239"/>
			<path class="st17" d="M66.865,21.129h11.451c0.284,0,0.461-0.177,0.461-0.461v-5.353c0-0.284-0.177-0.496-0.461-0.496H66.865
				c-0.248,0-0.461,0.213-0.461,0.496v5.353C66.404,20.951,66.617,21.129,66.865,21.129z"/>
			<path class="st17" d="M52.755,20.438h8.438c0.248,0,0.461-0.213,0.461-0.461v-5.141c0-0.248-0.213-0.461-0.461-0.461h-8.438
				c-0.248,0-0.461,0.213-0.461,0.461v5.141C52.294,20.225,52.507,20.438,52.755,20.438z"/>
			<path class="st17" d="M20.578,20.62H32.1c0.248,0,0.461-0.213,0.461-0.461v-7.835c0-0.248-0.213-0.461-0.461-0.461H20.578
				c-0.248,0-0.461,0.213-0.461,0.461v7.835C20.117,20.407,20.33,20.62,20.578,20.62z"/>
			<path class="st17" d="M35.565,20.62h11.522c0.248,0,0.461-0.213,0.461-0.461v-7.835c0-0.248-0.213-0.461-0.461-0.461H35.565
				c-0.248,0-0.461,0.213-0.461,0.461v7.835C35.104,20.407,35.317,20.62,35.565,20.62z"/>
			<rect x="14.808" y="21.075" class="st15" width="46.673" height="10.806"/>
			<rect x="20.002" y="23.932" class="st18" width="9.139" height="5.927"/>
			<rect x="29.466" y="23.932" class="st18" width="9.139" height="5.927"/>
			<rect x="38.93" y="23.932" class="st18" width="9.139" height="5.927"/>
			<rect x="48.394" y="23.932" class="st18" width="9.139" height="5.927"/>
			<circle class="st19" cx="22.659" cy="22.413" r="0.621"/>
			<circle class="st19" cx="26.617" cy="22.413" r="0.621"/>
			<circle class="st19" cx="32.093" cy="22.413" r="0.621"/>
			<circle class="st19" cx="36.051" cy="22.413" r="0.621"/>
			<circle class="st19" cx="41.528" cy="22.413" r="0.621"/>
			<circle class="st19" cx="45.486" cy="22.413" r="0.621"/>
			<circle class="st19" cx="50.962" cy="22.413" r="0.621"/>
			<circle class="st19" cx="54.92" cy="22.413" r="0.621"/>
			<polygon class="st19" points="22.274,17.476 22.274,19.355 30.357,19.355 30.357,17.476 30.18,17.476 30.18,16.199 
				30.357,16.199 30.357,14.356 28.585,14.356 28.585,13.186 27.805,13.186 27.805,12.619 24.791,12.619 24.791,13.186 
				24.047,13.186 24.047,14.356 22.274,14.356 22.274,16.199 22.416,16.199 22.416,17.476 			"/>
			<polygon class="st19" points="37.235,17.476 37.235,19.355 45.318,19.355 45.318,17.476 45.141,17.476 45.141,16.199 
				45.318,16.199 45.318,14.356 43.546,14.356 43.546,13.186 42.766,13.186 42.766,12.619 39.752,12.619 39.752,13.186 
				39.008,13.186 39.008,14.356 37.235,14.356 37.235,16.199 37.377,16.199 37.377,17.476 			"/>
			<path class="st20" d="M54.821,18.819h4.396c0.603,0,1.099-0.496,1.099-1.099v-0.355c0-0.603-0.496-1.064-1.099-1.064h-4.396
				c-0.603,0-1.064,0.461-1.064,1.064v0.355C53.758,18.322,54.219,18.819,54.821,18.819z"/>
			<path class="st19" d="M76.61,16.18h-7.871c-0.106,0-0.213,0.071-0.213,0.177v3.014c0,0.106,0.106,0.177,0.213,0.177h7.871
				c0.106,0,0.213-0.071,0.213-0.177v-3.014C76.823,16.251,76.716,16.18,76.61,16.18z"/>
			<polygon class="st8" points="16.956,27.009 17.407,27.009 17.407,28.43 17.61,28.43 17.61,27.888 18.016,27.888 18.016,28.272 
				18.782,28.272 18.782,27.257 18.016,27.257 18.016,27.618 17.61,27.618 17.61,26.174 18.016,26.174 18.016,26.513 18.782,26.513 
				18.782,25.52 18.016,25.52 18.016,25.904 17.61,25.904 17.61,25.408 17.407,25.408 17.407,26.738 16.956,26.738 16.933,26.332 
				16.144,26.332 16.144,27.392 16.933,27.392 			"/>
			<path class="st21" d="M81.277,16.426v2.375l-0.532-0.532v-0.461c0.142-0.071,0.177-0.213,0.142-0.355
				c-0.071-0.106-0.213-0.177-0.355-0.142c-0.106,0.071-0.177,0.213-0.142,0.355c0.035,0.071,0.106,0.106,0.142,0.142v0.567
				l0.745,0.709v0.248c-0.213,0.035-0.355,0.248-0.284,0.461c0.035,0.213,0.248,0.355,0.461,0.284
				c0.213-0.035,0.355-0.248,0.284-0.461c-0.035-0.142-0.142-0.248-0.284-0.284v-0.922l0.709-0.709v-0.461h0.177V16.71h-0.532v0.532
				h0.177v0.355l-0.532,0.532v-1.702h0.177l-0.284-0.532l-0.248,0.532H81.277z"/>
			<path class="st21" d="M18.377,16.21H16.64c-0.142-0.39-0.532-0.567-0.922-0.461c-0.071,0.035-0.142,0.071-0.213,0.142v0.106h0.39
				l0.248,0.461l-0.248,0.425h-0.39v0.106c0.319,0.248,0.745,0.213,0.993-0.106c0.071-0.035,0.106-0.142,0.142-0.213h1.737
				c0.106,0.355,0.496,0.496,0.815,0.39c0.071-0.035,0.142-0.071,0.177-0.106v-0.106h-0.355l-0.213-0.39l0.213-0.425h0.355v-0.071
				c-0.284-0.248-0.674-0.213-0.886,0.071C18.412,16.068,18.377,16.139,18.377,16.21z"/>
			<path class="st4" d="M90.152,22.963h6.807c0.071,0,0.142-0.071,0.142-0.142v-6.807c0-0.071-0.071-0.177-0.142-0.177h-6.807
				c-0.106,0-0.177,0.106-0.177,0.177v6.807C89.975,22.892,90.046,22.963,90.152,22.963"/>
			<path class="st4" d="M99.676,22.963h6.807c0.071,0,0.142-0.071,0.142-0.142v-6.807c0-0.071-0.071-0.177-0.142-0.177h-6.807
				c-0.106,0-0.177,0.106-0.177,0.177v6.807C99.499,22.892,99.57,22.963,99.676,22.963"/>
			<path class="st4" d="M107.398,22.963h6.807c0.071,0,0.142-0.071,0.142-0.142v-6.807c0-0.071-0.071-0.177-0.142-0.177h-6.807
				c-0.106,0-0.177,0.106-0.177,0.177v6.807C107.221,22.892,107.292,22.963,107.398,22.963"/>
			<g>
				<rect x="117.09" y="15.728" class="st19" width="9.139" height="5.927"/>
				<rect x="126.549" y="15.728" class="st19" width="9.139" height="5.927"/>
			</g>
			<circle class="st19" cx="92.021" cy="13.111" r="0.804"/>
			<circle class="st19" cx="95" cy="13.111" r="0.804"/>
			<circle class="st19" cx="101.81" cy="13.111" r="0.804"/>
			<circle class="st19" cx="104.79" cy="13.111" r="0.804"/>
			<circle class="st19" cx="108.94" cy="13.111" r="0.804"/>
			<circle class="st19" cx="111.919" cy="13.111" r="0.804"/>
			<g>
				<circle class="st19" cx="119.651" cy="13.111" r="0.804"/>
				<circle class="st19" cx="124.227" cy="13.111" r="0.804"/>
			</g>
			<g>
				<circle class="st19" cx="128.98" cy="13.111" r="0.804"/>
				<circle class="st19" cx="133.555" cy="13.111" r="0.804"/>
			</g>
			<g>
				<path class="st22" d="M80.837,30.362v2.707H17.573v0.981h63.264v0.812h64.478v-3.214H87.011v-1.624h-5.862
					C80.976,30.024,80.837,30.159,80.837,30.362z"/>
				<path class="st22" d="M84.548,31.648H70.605c-0.139,0-0.312,0.068-0.416,0.169l-1.942,1.895
					c-0.139,0.102-0.277,0.169-0.451,0.169H20.868c-0.139,0-0.312-0.068-0.416-0.169l-1.942-1.895
					c-0.139-0.101-0.277-0.169-0.451-0.169h-3.295v1.015h-2.463v2.199h72.247V31.648z"/>
				<path class="st7" d="M94.607,30.024H84.548v4.839h20.984v-3.214h-2.22c-0.416,0-0.832-0.068-1.249-0.135l-6.243-1.353
					C95.439,30.092,95.023,30.024,94.607,30.024z"/>
				<path class="st11" d="M103.416,32.156h-2.254c-0.659,0-1.318-0.068-1.977-0.203l-4.336-0.981
					c-0.555-0.135-1.145-0.203-1.734-0.203h-2.532v3.35h12.833V32.156"/>
			</g>
			<g>
				<rect x="51.61" y="16.481" class="st13" width="0.116" height="1.157"/>
				<path class="st23" d="M51.263,17.059c0,0.251-0.212,0.463-0.463,0.463c-0.251,0-0.463-0.212-0.463-0.463
					c0-0.251,0.212-0.463,0.463-0.463C51.051,16.596,51.263,16.809,51.263,17.059z"/>
				<rect x="49.874" y="16.481" class="st13" width="0.135" height="1.157"/>
				<path class="st23" d="M49.527,17.059c0,0.251-0.193,0.463-0.463,0.463c-0.251,0-0.463-0.212-0.463-0.463
					c0-0.251,0.212-0.463,0.463-0.463C49.334,16.596,49.527,16.809,49.527,17.059z"/>
				<rect x="48.138" y="16.481" class="st13" width="0.135" height="1.157"/>
			</g>
			<g>
				<rect x="228.099" y="10.885" class="st14" width="59.068" height="19.631"/>
				<rect x="257.633" y="10.885" class="st15" width="21.542" height="15.201"/>
				<rect x="228.066" y="10.885" class="st16" width="29.393" height="15.201"/>
			</g>
			<rect x="156.078" y="10.902" class="st14" width="69.425" height="22.239"/>
			<path class="st17" d="M208.729,21.129h11.451c0.284,0,0.461-0.177,0.461-0.461v-5.353c0-0.284-0.177-0.496-0.461-0.496h-11.451
				c-0.248,0-0.461,0.213-0.461,0.496v5.353C208.268,20.951,208.481,21.129,208.729,21.129z"/>
			<path class="st17" d="M194.619,20.438h8.438c0.248,0,0.461-0.213,0.461-0.461v-5.141c0-0.248-0.213-0.461-0.461-0.461h-8.438
				c-0.248,0-0.461,0.213-0.461,0.461v5.141C194.158,20.225,194.371,20.438,194.619,20.438z"/>
			<path class="st17" d="M162.442,20.62h11.522c0.248,0,0.461-0.213,0.461-0.461v-7.835c0-0.248-0.213-0.461-0.461-0.461h-11.522
				c-0.248,0-0.461,0.213-0.461,0.461v7.835C161.981,20.407,162.194,20.62,162.442,20.62z"/>
			<path class="st17" d="M177.429,20.62h11.522c0.248,0,0.461-0.213,0.461-0.461v-7.835c0-0.248-0.213-0.461-0.461-0.461h-11.522
				c-0.248,0-0.461,0.213-0.461,0.461v7.835C176.968,20.407,177.181,20.62,177.429,20.62z"/>
			<rect x="156.673" y="21.075" class="st15" width="46.673" height="10.806"/>
			<rect x="161.866" y="23.932" class="st18" width="9.139" height="5.927"/>
			<rect x="171.33" y="23.932" class="st18" width="9.139" height="5.927"/>
			<rect x="180.794" y="23.932" class="st18" width="9.139" height="5.927"/>
			<rect x="190.258" y="23.932" class="st18" width="9.139" height="5.927"/>
			<circle class="st19" cx="168.481" cy="22.413" r="0.621"/>
			<circle class="st19" cx="173.957" cy="22.413" r="0.621"/>
			<circle class="st19" cx="177.915" cy="22.413" r="0.621"/>
			<circle class="st19" cx="183.392" cy="22.413" r="0.621"/>
			<circle class="st19" cx="187.35" cy="22.413" r="0.621"/>
			<circle class="st19" cx="192.827" cy="22.413" r="0.621"/>
			<circle class="st19" cx="196.785" cy="22.413" r="0.621"/>
			<polygon class="st19" points="164.138,17.476 164.138,19.355 172.222,19.355 172.222,17.476 172.044,17.476 172.044,16.199 
				172.222,16.199 172.222,14.356 170.449,14.356 170.449,13.186 169.669,13.186 169.669,12.619 166.655,12.619 166.655,13.186 
				165.911,13.186 165.911,14.356 164.138,14.356 164.138,16.199 164.28,16.199 164.28,17.476 			"/>
			<polygon class="st19" points="179.099,17.476 179.099,19.355 187.183,19.355 187.183,17.476 187.005,17.476 187.005,16.199 
				187.183,16.199 187.183,14.356 185.41,14.356 185.41,13.186 184.63,13.186 184.63,12.619 181.617,12.619 181.617,13.186 
				180.872,13.186 180.872,14.356 179.099,14.356 179.099,16.199 179.241,16.199 179.241,17.476 			"/>
			<path class="st20" d="M196.685,18.819h4.396c0.603,0,1.099-0.496,1.099-1.099v-0.355c0-0.603-0.496-1.064-1.099-1.064h-4.396
				c-0.603,0-1.064,0.461-1.064,1.064v0.355C195.622,18.322,196.083,18.819,196.685,18.819z"/>
			<path class="st19" d="M218.474,16.18h-7.871c-0.106,0-0.213,0.071-0.213,0.177v3.014c0,0.106,0.106,0.177,0.213,0.177h7.871
				c0.106,0,0.213-0.071,0.213-0.177v-3.014C218.687,16.251,218.58,16.18,218.474,16.18z"/>
			<path class="st21" d="M223.141,16.426v2.375l-0.532-0.532v-0.461c0.142-0.071,0.177-0.213,0.142-0.355
				c-0.071-0.106-0.213-0.177-0.355-0.142c-0.106,0.071-0.177,0.213-0.142,0.355c0.035,0.071,0.106,0.106,0.142,0.142v0.567
				l0.745,0.709v0.248c-0.213,0.035-0.355,0.248-0.284,0.461c0.035,0.213,0.248,0.355,0.461,0.284
				c0.213-0.035,0.355-0.248,0.284-0.461c-0.035-0.142-0.142-0.248-0.284-0.284v-0.922l0.709-0.709v-0.461h0.177V16.71h-0.532v0.532
				h0.177v0.355l-0.532,0.532v-1.702h0.177l-0.284-0.532l-0.248,0.532H223.141z"/>
			<path class="st4" d="M232.017,22.963h6.807c0.071,0,0.142-0.071,0.142-0.142v-6.807c0-0.071-0.071-0.177-0.142-0.177h-6.807
				c-0.106,0-0.177,0.106-0.177,0.177v6.807C231.839,22.892,231.91,22.963,232.017,22.963"/>
			<path class="st4" d="M241.54,22.963h6.807c0.071,0,0.142-0.071,0.142-0.142v-6.807c0-0.071-0.071-0.177-0.142-0.177h-6.807
				c-0.106,0-0.177,0.106-0.177,0.177v6.807C241.363,22.892,241.434,22.963,241.54,22.963"/>
			<path class="st4" d="M249.262,22.963h6.807c0.071,0,0.142-0.071,0.142-0.142v-6.807c0-0.071-0.071-0.177-0.142-0.177h-6.807
				c-0.106,0-0.177,0.106-0.177,0.177v6.807C249.085,22.892,249.156,22.963,249.262,22.963"/>
			<g>
				<rect x="258.954" y="15.728" class="st19" width="9.139" height="5.927"/>
				<rect x="268.413" y="15.728" class="st19" width="9.139" height="5.927"/>
			</g>
			<circle class="st19" cx="233.885" cy="13.111" r="0.804"/>
			<circle class="st19" cx="236.864" cy="13.111" r="0.804"/>
			<circle class="st19" cx="243.674" cy="13.111" r="0.804"/>
			<circle class="st19" cx="246.654" cy="13.111" r="0.804"/>
			<circle class="st19" cx="250.804" cy="13.111" r="0.804"/>
			<circle class="st19" cx="253.783" cy="13.111" r="0.804"/>
			<g>
				<circle class="st19" cx="261.515" cy="13.111" r="0.804"/>
				<circle class="st19" cx="266.091" cy="13.111" r="0.804"/>
			</g>
			<g>
				<circle class="st19" cx="270.844" cy="13.111" r="0.804"/>
				<circle class="st19" cx="275.419" cy="13.111" r="0.804"/>
			</g>
			<g>
				<path class="st22" d="M222.701,30.362v2.707h-63.264v0.981h63.264v0.812h64.478v-3.214h-58.304v-1.624h-5.862
					C222.84,30.024,222.701,30.159,222.701,30.362z"/>
				<path class="st22" d="M226.412,31.648h-13.943c-0.139,0-0.312,0.068-0.416,0.169l-1.942,1.895
					c-0.139,0.102-0.277,0.169-0.451,0.169h-46.928c-0.139,0-0.312-0.068-0.416-0.169l-1.942-1.895
					c-0.139-0.101-0.277-0.169-0.451-0.169h-3.295v1.015h-2.463v2.199h72.247V31.648z"/>
				<path class="st7" d="M236.471,30.024h-10.058v4.839h20.984v-3.214h-2.22c-0.416,0-0.832-0.068-1.249-0.135l-6.243-1.353
					C237.303,30.092,236.887,30.024,236.471,30.024z"/>
				<path class="st11" d="M245.281,32.156h-2.254c-0.659,0-1.318-0.068-1.977-0.203l-4.336-0.981
					c-0.555-0.135-1.145-0.203-1.734-0.203h-2.532v3.35h12.833V32.156"/>
			</g>
			<g>
				<rect x="193.475" y="16.481" class="st13" width="0.116" height="1.157"/>
				<path class="st23" d="M193.127,17.059c0,0.251-0.212,0.463-0.463,0.463s-0.463-0.212-0.463-0.463
					c0-0.251,0.212-0.463,0.463-0.463S193.127,16.809,193.127,17.059z"/>
				<rect x="191.738" y="16.481" class="st13" width="0.135" height="1.157"/>
				<path class="st23" d="M191.391,17.059c0,0.251-0.193,0.463-0.463,0.463c-0.251,0-0.463-0.212-0.463-0.463
					c0-0.251,0.212-0.463,0.463-0.463C191.198,16.596,191.391,16.809,191.391,17.059z"/>
				<rect x="190.002" y="16.481" class="st13" width="0.135" height="1.157"/>
			</g>
			<path class="st21" d="M159.761,16.21h-1.737c-0.142-0.39-0.532-0.567-0.922-0.461c-0.071,0.035-0.142,0.071-0.213,0.142v0.106
				h0.39l0.248,0.461l-0.248,0.425h-0.39v0.106c0.319,0.248,0.745,0.213,0.993-0.106c0.071-0.035,0.106-0.142,0.142-0.213h1.737
				c0.106,0.355,0.496,0.496,0.815,0.39c0.071-0.035,0.142-0.071,0.177-0.106v-0.106h-0.355l-0.213-0.39l0.213-0.425h0.355v-0.071
				c-0.284-0.248-0.674-0.213-0.886,0.071C159.796,16.068,159.761,16.139,159.761,16.21z"/>
			<polygon class="st8" points="158.777,27.009 159.228,27.009 159.228,28.43 159.431,28.43 159.431,27.888 159.837,27.888 
				159.837,28.272 160.604,28.272 160.604,27.257 159.837,27.257 159.837,27.618 159.431,27.618 159.431,26.174 159.837,26.174 
				159.837,26.513 160.604,26.513 160.604,25.52 159.837,25.52 159.837,25.904 159.431,25.904 159.431,25.408 159.228,25.408 
				159.228,26.738 158.777,26.738 158.754,26.332 157.965,26.332 157.965,27.392 158.754,27.392 			"/>
		</g>
	</g>
	<g>
		<g>
			<g>
				<polyline class="st24" points="24.641,28.433 24.641,90.897 70.151,90.897 				"/>
			</g>
		</g>
		<g>
			<g>
				<polyline class="st24" points="34.11,28.433 34.11,85.3 70.151,85.3 				"/>
			</g>
		</g>
		<g>
			<g>
				<polyline class="st24" points="43.578,28.433 43.578,79.45 70.151,79.45 				"/>
			</g>
		</g>
		<g>
			<g>
				<polyline class="st24" points="53.047,28.433 53.047,73.822 70.151,73.822 				"/>
			</g>
			<circle class="st25" cx="70.245" cy="73.769" r="1.935"/>
			<circle class="st25" cx="70.245" cy="79.402" r="1.935"/>
			<circle class="st25" cx="70.245" cy="85.272" r="1.935"/>
			<circle class="st25" cx="70.245" cy="90.845" r="1.935"/>
		</g>
	</g>
	<g>
		<g>
			<g>
				<polyline class="st24" points="194.882,28.433 194.882,90.897 150.041,90.897 				"/>
			</g>
		</g>
		<g>
			<g>
				<polyline class="st24" points="185.413,28.433 185.413,85.3 150.041,85.3 				"/>
			</g>
		</g>
		<g>
			<g>
				<polyline class="st24" points="175.944,28.433 175.944,79.45 150.041,79.45 				"/>
			</g>
		</g>
		<g>
			<g>
				<polyline class="st24" points="166.476,28.433 166.476,73.822 150.041,73.822 				"/>
			</g>
			<circle class="st25" cx="149.947" cy="73.769" r="1.935"/>
			<circle class="st25" cx="149.947" cy="79.402" r="1.935"/>
			<circle class="st25" cx="149.947" cy="85.272" r="1.935"/>
			<circle class="st25" cx="149.947" cy="90.845" r="1.935"/>
		</g>
	</g>
	<g>
		<g>
			<g>
				<g>
					<path class="st25" d="M75.65,83.525h16.347V72.977c0-0.128-0.105-0.226-0.236-0.226H75.884c-0.129,0-0.234,0.098-0.234,0.226
						V83.525z"/>
				</g>
				<g>
					<path class="st13" d="M81.319,80.31l0.975-0.93c0.442,0.497,0.902,0.773,1.555,0.773c0.534,0,0.911-0.304,0.911-0.782v-0.019
						c0-0.524-0.469-0.818-1.261-0.818h-0.589l-0.221-0.902l1.537-1.546h-2.53v-1.214h4.352v1.067l-1.629,1.555
						c0.875,0.147,1.73,0.607,1.73,1.804v0.018c0,1.215-0.883,2.107-2.319,2.107C82.672,81.423,81.871,80.963,81.319,80.31z"/>
				</g>
			</g>
		</g>
		<g>
			<g>
				<g>
					<g>
						<path class="st25" d="M96.535,74.436v-0.792h3.51v0.792h-1.284v3.492h-0.942v-3.492H96.535z"/>
						<path class="st25" d="M99.798,75.706c0.076-0.202,0.184-0.374,0.324-0.517c0.14-0.142,0.308-0.252,0.504-0.33
							s0.416-0.116,0.66-0.116c0.244,0,0.465,0.038,0.663,0.116c0.198,0.078,0.367,0.188,0.507,0.33
							c0.14,0.143,0.248,0.314,0.324,0.517c0.076,0.202,0.114,0.427,0.114,0.675s-0.038,0.472-0.114,0.672
							c-0.076,0.2-0.184,0.371-0.324,0.513c-0.14,0.143-0.309,0.251-0.507,0.327c-0.198,0.076-0.419,0.114-0.663,0.114
							c-0.244,0-0.464-0.038-0.66-0.114s-0.364-0.185-0.504-0.327c-0.14-0.142-0.248-0.312-0.324-0.513
							c-0.076-0.2-0.114-0.424-0.114-0.672S99.723,75.908,99.798,75.706z M100.573,76.744c0.024,0.117,0.065,0.224,0.123,0.317
							c0.058,0.094,0.135,0.169,0.231,0.226c0.096,0.056,0.216,0.084,0.36,0.084s0.265-0.028,0.363-0.084
							c0.098-0.057,0.176-0.132,0.234-0.226c0.058-0.094,0.099-0.2,0.123-0.317c0.024-0.118,0.036-0.239,0.036-0.363
							s-0.012-0.246-0.036-0.366c-0.024-0.12-0.065-0.226-0.123-0.318c-0.058-0.092-0.136-0.167-0.234-0.225
							s-0.219-0.087-0.363-0.087s-0.264,0.029-0.36,0.087c-0.096,0.058-0.173,0.133-0.231,0.225
							c-0.058,0.093-0.099,0.198-0.123,0.318c-0.024,0.12-0.036,0.242-0.036,0.366S100.548,76.625,100.573,76.744z"/>
						<path class="st25" d="M107.316,77.532c-0.1,0.169-0.231,0.289-0.393,0.363c-0.162,0.074-0.345,0.111-0.549,0.111
							c-0.232,0-0.436-0.045-0.612-0.135c-0.176-0.091-0.321-0.212-0.435-0.366c-0.114-0.154-0.2-0.331-0.258-0.531
							c-0.058-0.2-0.087-0.408-0.087-0.624c0-0.208,0.029-0.409,0.087-0.603c0.058-0.194,0.144-0.365,0.258-0.514
							c0.114-0.147,0.257-0.267,0.429-0.356s0.372-0.135,0.6-0.135c0.184,0,0.359,0.038,0.525,0.116s0.297,0.193,0.393,0.346h0.012
							v-1.561h0.852v4.284h-0.81v-0.396H107.316z M107.281,75.999c-0.024-0.118-0.065-0.223-0.123-0.312
							c-0.058-0.09-0.133-0.163-0.225-0.219c-0.092-0.056-0.208-0.084-0.348-0.084s-0.258,0.028-0.354,0.084
							c-0.096,0.056-0.173,0.13-0.231,0.222c-0.058,0.093-0.1,0.197-0.126,0.315s-0.039,0.241-0.039,0.369
							c0,0.12,0.014,0.239,0.042,0.359s0.073,0.228,0.135,0.321s0.14,0.17,0.234,0.229c0.094,0.058,0.207,0.087,0.339,0.087
							c0.14,0,0.257-0.028,0.351-0.084c0.094-0.057,0.169-0.132,0.225-0.226c0.056-0.094,0.096-0.201,0.12-0.321
							c0.024-0.119,0.036-0.243,0.036-0.371S107.305,76.118,107.281,75.999z"/>
						<path class="st25" d="M108.745,75.78c0.012-0.199,0.062-0.365,0.15-0.498c0.088-0.132,0.2-0.237,0.336-0.317
							c0.136-0.08,0.289-0.137,0.459-0.171s0.341-0.051,0.513-0.051c0.156,0,0.314,0.011,0.474,0.032
							c0.16,0.022,0.306,0.065,0.438,0.129c0.132,0.064,0.24,0.153,0.324,0.268s0.126,0.265,0.126,0.453v1.613
							c0,0.141,0.008,0.274,0.024,0.402c0.016,0.128,0.044,0.225,0.084,0.288h-0.864c-0.016-0.048-0.029-0.097-0.039-0.147
							c-0.01-0.05-0.017-0.101-0.021-0.152c-0.136,0.14-0.296,0.238-0.48,0.294s-0.372,0.084-0.564,0.084
							c-0.148,0-0.286-0.019-0.414-0.054c-0.128-0.036-0.24-0.093-0.336-0.168c-0.096-0.076-0.171-0.173-0.225-0.288
							c-0.054-0.116-0.081-0.254-0.081-0.414c0-0.176,0.031-0.321,0.093-0.436c0.062-0.113,0.142-0.205,0.24-0.272
							c0.098-0.068,0.21-0.119,0.336-0.153s0.253-0.061,0.381-0.081c0.128-0.02,0.254-0.036,0.378-0.048s0.234-0.03,0.33-0.054
							c0.096-0.024,0.172-0.06,0.228-0.105c0.056-0.046,0.082-0.113,0.078-0.201c0-0.092-0.015-0.165-0.045-0.219
							c-0.03-0.054-0.07-0.096-0.12-0.126c-0.05-0.03-0.108-0.05-0.174-0.06c-0.066-0.011-0.137-0.016-0.213-0.016
							c-0.168,0-0.3,0.036-0.396,0.108c-0.096,0.072-0.152,0.191-0.168,0.359H108.745z M110.712,76.411
							c-0.036,0.031-0.081,0.057-0.135,0.074c-0.054,0.019-0.112,0.033-0.174,0.045c-0.062,0.013-0.127,0.022-0.195,0.03
							s-0.136,0.019-0.204,0.03c-0.064,0.012-0.127,0.028-0.189,0.048c-0.062,0.021-0.116,0.047-0.162,0.081
							c-0.046,0.034-0.083,0.077-0.111,0.129s-0.042,0.118-0.042,0.198c0,0.076,0.014,0.14,0.042,0.191
							c0.028,0.053,0.066,0.094,0.114,0.123c0.048,0.03,0.104,0.052,0.168,0.063s0.13,0.018,0.198,0.018
							c0.168,0,0.298-0.027,0.39-0.084c0.092-0.056,0.16-0.123,0.204-0.201c0.044-0.077,0.071-0.156,0.081-0.236
							c0.01-0.08,0.015-0.145,0.015-0.192V76.411z"/>
						<path class="st25" d="M113.928,74.827v0.569h-0.624v1.536c0,0.145,0.024,0.24,0.072,0.288s0.144,0.072,0.288,0.072
							c0.048,0,0.094-0.002,0.138-0.006s0.086-0.011,0.126-0.019v0.66c-0.072,0.012-0.152,0.02-0.24,0.024
							c-0.088,0.004-0.174,0.006-0.258,0.006c-0.132,0-0.257-0.009-0.375-0.027c-0.118-0.018-0.222-0.053-0.312-0.104
							c-0.09-0.053-0.161-0.126-0.213-0.223c-0.052-0.096-0.078-0.222-0.078-0.378v-1.83h-0.516v-0.569h0.516v-0.931h0.852v0.931
							H113.928z"/>
						<path class="st25" d="M114.3,75.78c0.012-0.199,0.062-0.365,0.15-0.498c0.088-0.132,0.2-0.237,0.336-0.317
							c0.136-0.08,0.289-0.137,0.459-0.171s0.341-0.051,0.513-0.051c0.156,0,0.314,0.011,0.474,0.032
							c0.16,0.022,0.306,0.065,0.438,0.129c0.132,0.064,0.24,0.153,0.324,0.268s0.126,0.265,0.126,0.453v1.613
							c0,0.141,0.008,0.274,0.024,0.402c0.016,0.128,0.044,0.225,0.084,0.288h-0.864c-0.016-0.048-0.029-0.097-0.039-0.147
							c-0.01-0.05-0.017-0.101-0.021-0.152c-0.136,0.14-0.296,0.238-0.48,0.294s-0.372,0.084-0.564,0.084
							c-0.148,0-0.286-0.019-0.414-0.054c-0.128-0.036-0.24-0.093-0.336-0.168c-0.096-0.076-0.171-0.173-0.225-0.288
							c-0.054-0.116-0.081-0.254-0.081-0.414c0-0.176,0.031-0.321,0.093-0.436c0.062-0.113,0.142-0.205,0.24-0.272
							c0.098-0.068,0.21-0.119,0.336-0.153s0.253-0.061,0.381-0.081c0.128-0.02,0.254-0.036,0.378-0.048s0.234-0.03,0.33-0.054
							c0.096-0.024,0.172-0.06,0.228-0.105c0.056-0.046,0.082-0.113,0.078-0.201c0-0.092-0.015-0.165-0.045-0.219
							c-0.03-0.054-0.07-0.096-0.12-0.126c-0.05-0.03-0.108-0.05-0.174-0.06c-0.066-0.011-0.137-0.016-0.213-0.016
							c-0.168,0-0.3,0.036-0.396,0.108c-0.096,0.072-0.152,0.191-0.168,0.359H114.3z M116.268,76.411
							c-0.036,0.031-0.081,0.057-0.135,0.074c-0.054,0.019-0.112,0.033-0.174,0.045c-0.062,0.013-0.127,0.022-0.195,0.03
							s-0.136,0.019-0.204,0.03c-0.064,0.012-0.127,0.028-0.189,0.048c-0.062,0.021-0.116,0.047-0.162,0.081
							c-0.046,0.034-0.083,0.077-0.111,0.129s-0.042,0.118-0.042,0.198c0,0.076,0.014,0.14,0.042,0.191
							c0.028,0.053,0.066,0.094,0.114,0.123c0.048,0.03,0.104,0.052,0.168,0.063s0.13,0.018,0.198,0.018
							c0.168,0,0.298-0.027,0.39-0.084c0.092-0.056,0.16-0.123,0.204-0.201c0.044-0.077,0.071-0.156,0.081-0.236
							c0.01-0.08,0.015-0.145,0.015-0.192V76.411z"/>
						<path class="st25" d="M120.258,74.827v0.432h0.018c0.108-0.18,0.248-0.312,0.42-0.394c0.172-0.081,0.348-0.122,0.528-0.122
							c0.228,0,0.415,0.03,0.561,0.093c0.146,0.062,0.261,0.147,0.345,0.258s0.143,0.244,0.177,0.402
							c0.034,0.157,0.051,0.333,0.051,0.524v1.908h-0.852v-1.752c0-0.256-0.04-0.447-0.12-0.573
							c-0.08-0.126-0.222-0.188-0.426-0.188c-0.232,0-0.4,0.068-0.504,0.207c-0.104,0.138-0.156,0.364-0.156,0.681v1.626h-0.852
							v-3.102H120.258z"/>
						<path class="st25" d="M123.918,77.184c0.128,0.124,0.312,0.187,0.552,0.187c0.172,0,0.32-0.043,0.444-0.129
							c0.124-0.087,0.2-0.178,0.228-0.273h0.75c-0.12,0.372-0.304,0.638-0.552,0.798c-0.248,0.16-0.548,0.24-0.9,0.24
							c-0.244,0-0.464-0.039-0.66-0.117c-0.196-0.078-0.362-0.188-0.498-0.333c-0.136-0.144-0.241-0.315-0.315-0.516
							c-0.074-0.2-0.111-0.42-0.111-0.66c0-0.232,0.038-0.448,0.114-0.648c0.076-0.199,0.184-0.373,0.324-0.519
							c0.14-0.146,0.307-0.261,0.501-0.345c0.194-0.084,0.409-0.126,0.645-0.126c0.264,0,0.494,0.051,0.69,0.152
							c0.196,0.103,0.357,0.239,0.483,0.411s0.217,0.368,0.273,0.588c0.056,0.22,0.076,0.45,0.06,0.69h-2.238
							C123.72,76.86,123.79,77.06,123.918,77.184z M124.881,75.552c-0.102-0.112-0.257-0.168-0.465-0.168
							c-0.136,0-0.249,0.023-0.339,0.069s-0.162,0.103-0.216,0.171c-0.054,0.067-0.092,0.14-0.114,0.216s-0.035,0.144-0.039,0.204
							h1.386C125.054,75.829,124.983,75.665,124.881,75.552z"/>
						<path class="st25" d="M128.154,74.827v0.569h-0.624v1.536c0,0.145,0.024,0.24,0.072,0.288s0.144,0.072,0.288,0.072
							c0.048,0,0.094-0.002,0.138-0.006c0.044-0.004,0.086-0.011,0.126-0.019v0.66c-0.072,0.012-0.152,0.02-0.24,0.024
							c-0.088,0.004-0.174,0.006-0.258,0.006c-0.132,0-0.257-0.009-0.375-0.027c-0.118-0.018-0.222-0.053-0.312-0.104
							c-0.09-0.053-0.161-0.126-0.213-0.223c-0.052-0.096-0.078-0.222-0.078-0.378v-1.83h-0.516v-0.569h0.516v-0.931h0.852v0.931
							H128.154z"/>
						<path class="st25" d="M131.232,77.928l-0.552-2.082h-0.012l-0.528,2.082h-0.882l-0.984-3.102h0.9l0.57,2.105h0.012
							l0.516-2.105h0.828l0.528,2.1h0.012l0.57-2.1h0.876l-0.978,3.102H131.232z"/>
						<path class="st25" d="M133.463,75.706c0.076-0.202,0.184-0.374,0.324-0.517c0.141-0.142,0.309-0.252,0.504-0.33
							c0.196-0.078,0.416-0.116,0.66-0.116s0.465,0.038,0.663,0.116s0.367,0.188,0.507,0.33c0.14,0.143,0.248,0.314,0.324,0.517
							s0.114,0.427,0.114,0.675s-0.038,0.472-0.114,0.672s-0.185,0.371-0.324,0.513c-0.14,0.143-0.309,0.251-0.507,0.327
							s-0.419,0.114-0.663,0.114s-0.464-0.038-0.66-0.114c-0.195-0.076-0.363-0.185-0.504-0.327
							c-0.141-0.142-0.248-0.312-0.324-0.513s-0.113-0.424-0.113-0.672S133.387,75.908,133.463,75.706z M134.238,76.744
							c0.023,0.117,0.064,0.224,0.123,0.317c0.058,0.094,0.135,0.169,0.23,0.226c0.097,0.056,0.216,0.084,0.36,0.084
							c0.144,0,0.265-0.028,0.363-0.084c0.098-0.057,0.176-0.132,0.233-0.226c0.059-0.094,0.1-0.2,0.123-0.317
							c0.024-0.118,0.036-0.239,0.036-0.363s-0.012-0.246-0.036-0.366c-0.023-0.12-0.064-0.226-0.123-0.318
							c-0.058-0.092-0.136-0.167-0.233-0.225c-0.099-0.058-0.22-0.087-0.363-0.087c-0.145,0-0.264,0.029-0.36,0.087
							c-0.096,0.058-0.173,0.133-0.23,0.225c-0.059,0.093-0.1,0.198-0.123,0.318c-0.024,0.12-0.036,0.242-0.036,0.366
							S134.213,76.625,134.238,76.744z"/>
						<path class="st25" d="M137.921,74.827v0.575h0.013c0.039-0.096,0.094-0.185,0.161-0.267c0.068-0.082,0.146-0.152,0.234-0.21
							s0.182-0.103,0.282-0.135c0.1-0.032,0.204-0.048,0.312-0.048c0.057,0,0.118,0.01,0.187,0.029v0.792
							c-0.04-0.008-0.088-0.015-0.145-0.021c-0.056-0.006-0.109-0.009-0.162-0.009c-0.155,0-0.288,0.025-0.396,0.077
							c-0.108,0.053-0.195,0.123-0.261,0.214c-0.066,0.09-0.113,0.194-0.142,0.314c-0.027,0.12-0.042,0.25-0.042,0.39v1.398h-0.852
							v-3.102H137.921z"/>
						<path class="st25" d="M140.375,73.644v2.298l1.074-1.115h1.008l-1.17,1.14l1.302,1.962h-1.032l-0.852-1.386l-0.33,0.317v1.068
							h-0.852v-4.284H140.375z"/>
						<path class="st25" d="M143.873,77.004v0.924c0,0.136-0.024,0.261-0.074,0.375c-0.051,0.114-0.117,0.213-0.201,0.297
							s-0.184,0.153-0.297,0.207c-0.114,0.054-0.235,0.091-0.363,0.111v-0.433c0.06-0.012,0.117-0.035,0.171-0.071
							s0.101-0.079,0.141-0.129c0.04-0.051,0.07-0.106,0.091-0.168c0.02-0.062,0.027-0.126,0.023-0.189h-0.432v-0.924H143.873z"/>
						<path class="st25" d="M97.608,80.725v0.42h0.012c0.112-0.16,0.247-0.284,0.405-0.372c0.158-0.088,0.339-0.132,0.543-0.132
							c0.196,0,0.375,0.038,0.537,0.113c0.162,0.076,0.285,0.21,0.369,0.402c0.092-0.136,0.217-0.256,0.375-0.36
							c0.158-0.104,0.345-0.155,0.561-0.155c0.164,0,0.316,0.02,0.456,0.06c0.14,0.04,0.26,0.104,0.36,0.192
							s0.178,0.203,0.234,0.345s0.084,0.312,0.084,0.513v2.076h-0.852v-1.758c0-0.104-0.004-0.202-0.012-0.294
							c-0.008-0.092-0.03-0.172-0.066-0.24c-0.036-0.068-0.089-0.122-0.159-0.162s-0.165-0.06-0.285-0.06
							c-0.12,0-0.217,0.022-0.291,0.068c-0.074,0.046-0.132,0.106-0.174,0.181c-0.042,0.073-0.07,0.157-0.084,0.252
							c-0.014,0.094-0.021,0.188-0.021,0.285v1.728h-0.852v-1.74c0-0.092-0.002-0.183-0.006-0.272
							c-0.004-0.09-0.021-0.173-0.051-0.249c-0.03-0.076-0.08-0.138-0.15-0.184s-0.173-0.068-0.309-0.068
							c-0.04,0-0.093,0.009-0.159,0.026c-0.066,0.019-0.13,0.053-0.192,0.103s-0.115,0.122-0.159,0.216s-0.066,0.217-0.066,0.369
							v1.8h-0.852v-3.102H97.608z"/>
						<path class="st25" d="M103.128,83.082c0.128,0.124,0.312,0.187,0.552,0.187c0.172,0,0.32-0.043,0.444-0.129
							c0.124-0.087,0.2-0.178,0.228-0.273h0.75c-0.12,0.372-0.304,0.638-0.552,0.798c-0.248,0.16-0.548,0.24-0.9,0.24
							c-0.244,0-0.464-0.039-0.66-0.117c-0.196-0.078-0.362-0.188-0.498-0.333c-0.136-0.144-0.241-0.315-0.315-0.516
							c-0.074-0.2-0.111-0.42-0.111-0.66c0-0.232,0.038-0.448,0.114-0.648c0.076-0.199,0.184-0.373,0.324-0.519
							c0.14-0.146,0.307-0.261,0.501-0.345c0.194-0.084,0.409-0.126,0.645-0.126c0.264,0,0.494,0.051,0.69,0.152
							c0.196,0.103,0.357,0.239,0.483,0.411s0.217,0.368,0.273,0.588c0.056,0.22,0.076,0.45,0.06,0.69h-2.238
							C102.931,82.758,103,82.958,103.128,83.082z M104.092,81.451c-0.102-0.112-0.257-0.168-0.465-0.168
							c-0.136,0-0.249,0.023-0.339,0.069s-0.162,0.103-0.216,0.171c-0.054,0.067-0.092,0.14-0.114,0.216s-0.035,0.144-0.039,0.204
							h1.386C104.265,81.727,104.193,81.563,104.092,81.451z"/>
						<path class="st25" d="M107.082,81.367h-1.494v-0.642h2.616v0.642l-1.614,1.818h1.728v0.642h-2.85v-0.642L107.082,81.367z"/>
						<path class="st25" d="M110.196,81.367h-1.494v-0.642h2.616v0.642l-1.614,1.818h1.728v0.642h-2.85v-0.642L110.196,81.367z"/>
						<path class="st25" d="M111.852,81.678c0.012-0.199,0.062-0.365,0.15-0.498c0.088-0.132,0.2-0.237,0.336-0.317
							c0.136-0.08,0.289-0.137,0.459-0.171s0.341-0.051,0.513-0.051c0.156,0,0.314,0.011,0.474,0.032
							c0.16,0.022,0.306,0.065,0.438,0.129c0.132,0.064,0.24,0.153,0.324,0.268s0.126,0.265,0.126,0.453v1.613
							c0,0.141,0.008,0.274,0.024,0.402c0.016,0.128,0.044,0.225,0.084,0.288h-0.864c-0.016-0.048-0.029-0.097-0.039-0.147
							c-0.01-0.05-0.017-0.101-0.021-0.152c-0.136,0.14-0.296,0.238-0.48,0.294s-0.372,0.084-0.564,0.084
							c-0.148,0-0.286-0.019-0.414-0.054c-0.128-0.036-0.24-0.093-0.336-0.168c-0.096-0.076-0.171-0.173-0.225-0.288
							c-0.054-0.116-0.081-0.254-0.081-0.414c0-0.176,0.031-0.321,0.093-0.436c0.062-0.113,0.142-0.205,0.24-0.272
							c0.098-0.068,0.21-0.119,0.336-0.153s0.253-0.061,0.381-0.081c0.128-0.02,0.254-0.036,0.378-0.048s0.234-0.03,0.33-0.054
							c0.096-0.024,0.172-0.06,0.228-0.105c0.056-0.046,0.082-0.113,0.078-0.201c0-0.092-0.015-0.165-0.045-0.219
							c-0.03-0.054-0.07-0.096-0.12-0.126c-0.05-0.03-0.108-0.05-0.174-0.06c-0.066-0.011-0.137-0.016-0.213-0.016
							c-0.168,0-0.3,0.036-0.396,0.108c-0.096,0.072-0.152,0.191-0.168,0.359H111.852z M113.82,82.309
							c-0.036,0.031-0.081,0.057-0.135,0.074c-0.054,0.019-0.112,0.033-0.174,0.045c-0.062,0.013-0.127,0.022-0.195,0.03
							s-0.136,0.019-0.204,0.03c-0.064,0.012-0.127,0.028-0.189,0.048c-0.062,0.021-0.116,0.047-0.162,0.081
							c-0.046,0.034-0.083,0.077-0.111,0.129s-0.042,0.118-0.042,0.198c0,0.076,0.014,0.14,0.042,0.191
							c0.028,0.053,0.066,0.094,0.114,0.123c0.048,0.03,0.104,0.052,0.168,0.063s0.13,0.018,0.198,0.018
							c0.168,0,0.298-0.027,0.39-0.084c0.092-0.056,0.16-0.123,0.204-0.201c0.044-0.077,0.071-0.156,0.081-0.236
							c0.01-0.08,0.015-0.145,0.015-0.192V82.309z"/>
						<path class="st25" d="M116.142,80.725v0.432h0.018c0.108-0.18,0.248-0.312,0.42-0.394c0.172-0.081,0.348-0.122,0.528-0.122
							c0.228,0,0.415,0.03,0.561,0.093c0.146,0.062,0.261,0.147,0.345,0.258s0.143,0.244,0.177,0.402
							c0.034,0.157,0.051,0.333,0.051,0.524v1.908h-0.852v-1.752c0-0.256-0.04-0.447-0.12-0.573
							c-0.08-0.126-0.222-0.188-0.426-0.188c-0.232,0-0.4,0.068-0.504,0.207c-0.104,0.138-0.156,0.364-0.156,0.681v1.626h-0.852
							v-3.102H116.142z"/>
						<path class="st25" d="M118.914,80.245v-0.702h0.852v0.702H118.914z M119.766,80.725v3.102h-0.852v-3.102H119.766z"/>
						<path class="st25" d="M121.247,80.725v0.432h0.018c0.108-0.18,0.248-0.312,0.42-0.394c0.172-0.081,0.348-0.122,0.528-0.122
							c0.228,0,0.415,0.03,0.561,0.093c0.146,0.062,0.261,0.147,0.345,0.258s0.143,0.244,0.177,0.402
							c0.034,0.157,0.051,0.333,0.051,0.524v1.908h-0.852v-1.752c0-0.256-0.04-0.447-0.12-0.573
							c-0.08-0.126-0.222-0.188-0.426-0.188c-0.232,0-0.4,0.068-0.504,0.207c-0.104,0.138-0.156,0.364-0.156,0.681v1.626h-0.852
							v-3.102H121.247z"/>
						<path class="st25" d="M124.908,83.082c0.128,0.124,0.312,0.187,0.552,0.187c0.172,0,0.32-0.043,0.444-0.129
							c0.124-0.087,0.2-0.178,0.228-0.273h0.75c-0.12,0.372-0.304,0.638-0.552,0.798c-0.248,0.16-0.548,0.24-0.9,0.24
							c-0.244,0-0.464-0.039-0.66-0.117c-0.196-0.078-0.362-0.188-0.498-0.333c-0.136-0.144-0.241-0.315-0.315-0.516
							c-0.074-0.2-0.111-0.42-0.111-0.66c0-0.232,0.038-0.448,0.114-0.648c0.076-0.199,0.184-0.373,0.324-0.519
							c0.14-0.146,0.307-0.261,0.501-0.345c0.194-0.084,0.409-0.126,0.645-0.126c0.264,0,0.494,0.051,0.69,0.152
							c0.196,0.103,0.357,0.239,0.483,0.411s0.217,0.368,0.273,0.588c0.056,0.22,0.076,0.45,0.06,0.69h-2.238
							C124.71,82.758,124.78,82.958,124.908,83.082z M125.871,81.451c-0.102-0.112-0.257-0.168-0.465-0.168
							c-0.136,0-0.249,0.023-0.339,0.069s-0.162,0.103-0.216,0.171c-0.054,0.067-0.092,0.14-0.114,0.216s-0.035,0.144-0.039,0.204
							h1.386C126.044,81.727,125.973,81.563,125.871,81.451z"/>
						<path class="st25" d="M130.59,81.283c-0.136,0-0.25,0.031-0.342,0.093c-0.092,0.062-0.167,0.143-0.225,0.24
							c-0.058,0.098-0.099,0.206-0.123,0.324c-0.024,0.118-0.036,0.234-0.036,0.351c0,0.112,0.012,0.227,0.036,0.342
							c0.024,0.116,0.063,0.222,0.117,0.315c0.054,0.094,0.127,0.171,0.219,0.23c0.092,0.061,0.204,0.091,0.336,0.091
							c0.204,0,0.361-0.058,0.471-0.171c0.11-0.114,0.179-0.268,0.207-0.46h0.822c-0.056,0.412-0.216,0.727-0.48,0.942
							c-0.264,0.216-0.602,0.324-1.014,0.324c-0.232,0-0.445-0.039-0.639-0.117c-0.194-0.078-0.359-0.187-0.495-0.327
							c-0.136-0.14-0.242-0.307-0.318-0.501c-0.076-0.193-0.114-0.407-0.114-0.639c0-0.24,0.035-0.463,0.105-0.669
							s0.173-0.384,0.309-0.534c0.136-0.15,0.302-0.267,0.498-0.351c0.196-0.084,0.42-0.126,0.672-0.126
							c0.184,0,0.361,0.023,0.531,0.071c0.17,0.048,0.322,0.121,0.456,0.22c0.134,0.098,0.243,0.22,0.327,0.365
							c0.084,0.146,0.132,0.319,0.144,0.52h-0.834C131.163,81.46,130.954,81.283,130.59,81.283z"/>
						<path class="st25" d="M132.516,81.678c0.012-0.199,0.062-0.365,0.15-0.498c0.088-0.132,0.2-0.237,0.336-0.317
							c0.136-0.08,0.288-0.137,0.46-0.171c0.17-0.034,0.34-0.051,0.512-0.051c0.156,0,0.314,0.011,0.475,0.032
							c0.16,0.022,0.307,0.065,0.438,0.129c0.133,0.064,0.24,0.153,0.324,0.268s0.127,0.265,0.127,0.453v1.613
							c0,0.141,0.008,0.274,0.023,0.402s0.043,0.225,0.084,0.288h-0.865c-0.016-0.048-0.027-0.097-0.037-0.147
							c-0.012-0.05-0.018-0.101-0.021-0.152c-0.137,0.14-0.297,0.238-0.48,0.294s-0.371,0.084-0.564,0.084
							c-0.148,0-0.285-0.019-0.414-0.054c-0.128-0.036-0.24-0.093-0.336-0.168c-0.096-0.076-0.171-0.173-0.225-0.288
							c-0.054-0.116-0.081-0.254-0.081-0.414c0-0.176,0.031-0.321,0.093-0.436c0.062-0.113,0.142-0.205,0.24-0.272
							c0.098-0.068,0.21-0.119,0.336-0.153s0.254-0.061,0.381-0.081c0.129-0.02,0.254-0.036,0.379-0.048
							c0.123-0.012,0.232-0.03,0.33-0.054c0.096-0.024,0.172-0.06,0.227-0.105c0.057-0.046,0.082-0.113,0.078-0.201
							c0-0.092-0.014-0.165-0.045-0.219c-0.029-0.054-0.07-0.096-0.119-0.126c-0.051-0.03-0.107-0.05-0.174-0.06
							c-0.066-0.011-0.137-0.016-0.213-0.016c-0.168,0-0.301,0.036-0.396,0.108s-0.152,0.191-0.168,0.359H132.516z M134.483,82.309
							c-0.035,0.031-0.08,0.057-0.135,0.074c-0.053,0.019-0.111,0.033-0.174,0.045c-0.062,0.013-0.127,0.022-0.195,0.03
							s-0.135,0.019-0.203,0.03c-0.064,0.012-0.127,0.028-0.189,0.048c-0.062,0.021-0.115,0.047-0.162,0.081
							c-0.045,0.034-0.082,0.077-0.111,0.129c-0.027,0.052-0.041,0.118-0.041,0.198c0,0.076,0.014,0.14,0.041,0.191
							c0.029,0.053,0.066,0.094,0.115,0.123c0.047,0.03,0.104,0.052,0.168,0.063c0.062,0.012,0.129,0.018,0.197,0.018
							c0.168,0,0.299-0.027,0.391-0.084c0.092-0.056,0.16-0.123,0.203-0.201c0.045-0.077,0.072-0.156,0.082-0.236
							s0.014-0.145,0.014-0.192V82.309z"/>
						<path class="st25" d="M136.805,80.725V81.3h0.013c0.039-0.096,0.094-0.185,0.161-0.267c0.068-0.082,0.146-0.152,0.234-0.21
							s0.182-0.103,0.282-0.135c0.1-0.032,0.204-0.048,0.312-0.048c0.057,0,0.118,0.01,0.187,0.029v0.792
							c-0.04-0.008-0.088-0.015-0.145-0.021c-0.056-0.006-0.109-0.009-0.162-0.009c-0.155,0-0.288,0.025-0.396,0.077
							c-0.108,0.053-0.195,0.123-0.261,0.214c-0.066,0.09-0.113,0.194-0.142,0.314c-0.027,0.12-0.042,0.25-0.042,0.39v1.398h-0.852
							v-3.102H136.805z"/>
						<path class="st25" d="M140.423,83.43c-0.101,0.169-0.231,0.289-0.394,0.363s-0.345,0.111-0.549,0.111
							c-0.232,0-0.436-0.045-0.612-0.135c-0.176-0.091-0.32-0.212-0.435-0.366s-0.2-0.331-0.258-0.531
							c-0.059-0.2-0.087-0.408-0.087-0.624c0-0.208,0.028-0.409,0.087-0.603c0.058-0.194,0.144-0.365,0.258-0.514
							c0.114-0.147,0.257-0.267,0.429-0.356s0.372-0.135,0.601-0.135c0.184,0,0.358,0.038,0.524,0.116s0.297,0.193,0.394,0.346
							h0.012v-1.561h0.852v4.284h-0.81V83.43H140.423z M140.387,81.898c-0.024-0.118-0.065-0.223-0.123-0.312
							c-0.059-0.09-0.133-0.163-0.226-0.219c-0.092-0.056-0.208-0.084-0.348-0.084s-0.258,0.028-0.354,0.084
							c-0.097,0.056-0.174,0.13-0.231,0.222c-0.058,0.093-0.1,0.197-0.126,0.315s-0.039,0.241-0.039,0.369
							c0,0.12,0.014,0.239,0.042,0.359s0.073,0.228,0.135,0.321c0.062,0.094,0.141,0.17,0.234,0.229
							c0.094,0.058,0.207,0.087,0.339,0.087c0.14,0,0.257-0.028,0.351-0.084c0.095-0.057,0.169-0.132,0.226-0.226
							c0.056-0.094,0.096-0.201,0.12-0.321c0.023-0.119,0.036-0.243,0.036-0.371S140.411,82.016,140.387,81.898z"/>
						<path class="st25" d="M98.982,89.328c-0.1,0.169-0.231,0.289-0.393,0.363c-0.162,0.074-0.345,0.111-0.549,0.111
							c-0.232,0-0.436-0.045-0.612-0.135c-0.176-0.091-0.321-0.212-0.435-0.366c-0.114-0.154-0.2-0.331-0.258-0.531
							c-0.058-0.2-0.087-0.408-0.087-0.624c0-0.208,0.029-0.409,0.087-0.603c0.058-0.194,0.144-0.365,0.258-0.514
							c0.114-0.147,0.257-0.267,0.429-0.356s0.372-0.135,0.6-0.135c0.184,0,0.359,0.038,0.525,0.116S98.845,86.848,98.94,87h0.012
							V85.44h0.852v4.284h-0.81v-0.396H98.982z M98.947,87.795c-0.024-0.118-0.065-0.223-0.123-0.312
							c-0.058-0.09-0.133-0.163-0.225-0.219c-0.092-0.056-0.208-0.084-0.348-0.084s-0.258,0.028-0.354,0.084
							c-0.096,0.056-0.173,0.13-0.231,0.222c-0.058,0.093-0.1,0.197-0.126,0.315S97.5,88.042,97.5,88.17
							c0,0.12,0.014,0.239,0.042,0.359s0.073,0.228,0.135,0.321s0.14,0.17,0.234,0.229c0.094,0.058,0.207,0.087,0.339,0.087
							c0.14,0,0.257-0.028,0.351-0.084c0.094-0.057,0.169-0.132,0.225-0.226c0.056-0.094,0.096-0.201,0.12-0.321
							c0.024-0.119,0.036-0.243,0.036-0.371S98.971,87.914,98.947,87.795z"/>
						<path class="st25" d="M101.358,88.98c0.128,0.124,0.312,0.187,0.552,0.187c0.172,0,0.32-0.043,0.444-0.129
							c0.124-0.087,0.2-0.178,0.228-0.273h0.75c-0.12,0.372-0.304,0.638-0.552,0.798c-0.248,0.16-0.548,0.24-0.9,0.24
							c-0.244,0-0.464-0.039-0.66-0.117c-0.196-0.078-0.362-0.188-0.498-0.333c-0.136-0.144-0.241-0.315-0.315-0.516
							c-0.074-0.2-0.111-0.42-0.111-0.66c0-0.232,0.038-0.448,0.114-0.648c0.076-0.199,0.184-0.373,0.324-0.519
							c0.14-0.146,0.307-0.261,0.501-0.345c0.194-0.084,0.409-0.126,0.645-0.126c0.264,0,0.494,0.051,0.69,0.152
							c0.196,0.103,0.357,0.239,0.483,0.411s0.217,0.368,0.273,0.588c0.056,0.22,0.076,0.45,0.06,0.69h-2.238
							C101.161,88.656,101.23,88.856,101.358,88.98z M102.322,87.348c-0.102-0.112-0.257-0.168-0.465-0.168
							c-0.136,0-0.249,0.023-0.339,0.069s-0.162,0.103-0.216,0.171c-0.054,0.067-0.092,0.14-0.114,0.216s-0.035,0.144-0.039,0.204
							h1.386C102.495,87.624,102.423,87.46,102.322,87.348z"/>
						<path class="st25" d="M104.7,86.623v0.396h0.012c0.104-0.168,0.236-0.29,0.396-0.366c0.16-0.075,0.336-0.113,0.528-0.113
							c0.244,0,0.454,0.046,0.63,0.138c0.176,0.092,0.322,0.214,0.438,0.366c0.116,0.151,0.202,0.329,0.258,0.53
							c0.056,0.202,0.084,0.413,0.084,0.634c0,0.208-0.028,0.407-0.084,0.6s-0.141,0.362-0.255,0.51
							c-0.114,0.148-0.256,0.267-0.426,0.354s-0.369,0.132-0.597,0.132c-0.192,0-0.369-0.039-0.531-0.117s-0.295-0.193-0.399-0.345
							h-0.012v1.47h-0.852v-4.188H104.7z M105.808,89.082c0.094-0.057,0.17-0.13,0.228-0.22c0.058-0.09,0.099-0.194,0.123-0.314
							c0.024-0.12,0.036-0.242,0.036-0.366s-0.013-0.246-0.039-0.366s-0.069-0.227-0.129-0.32c-0.06-0.095-0.137-0.171-0.231-0.229
							c-0.094-0.058-0.209-0.087-0.345-0.087c-0.14,0-0.257,0.029-0.351,0.087c-0.094,0.058-0.17,0.133-0.228,0.225
							c-0.058,0.093-0.099,0.198-0.123,0.318s-0.036,0.244-0.036,0.372c0,0.124,0.013,0.246,0.039,0.366s0.068,0.225,0.126,0.314
							s0.135,0.163,0.231,0.22c0.096,0.056,0.212,0.084,0.348,0.084C105.596,89.166,105.713,89.138,105.808,89.082z"/>
						<path class="st25" d="M108.468,88.98c0.128,0.124,0.312,0.187,0.552,0.187c0.172,0,0.32-0.043,0.444-0.129
							c0.124-0.087,0.2-0.178,0.228-0.273h0.75c-0.12,0.372-0.304,0.638-0.552,0.798c-0.248,0.16-0.548,0.24-0.9,0.24
							c-0.244,0-0.464-0.039-0.66-0.117c-0.196-0.078-0.362-0.188-0.498-0.333c-0.136-0.144-0.241-0.315-0.315-0.516
							c-0.074-0.2-0.111-0.42-0.111-0.66c0-0.232,0.038-0.448,0.114-0.648c0.076-0.199,0.184-0.373,0.324-0.519
							c0.14-0.146,0.307-0.261,0.501-0.345c0.194-0.084,0.409-0.126,0.645-0.126c0.264,0,0.494,0.051,0.69,0.152
							c0.196,0.103,0.357,0.239,0.483,0.411s0.217,0.368,0.273,0.588c0.056,0.22,0.076,0.45,0.06,0.69h-2.238
							C108.27,88.656,108.34,88.856,108.468,88.98z M109.432,87.348c-0.102-0.112-0.257-0.168-0.465-0.168
							c-0.136,0-0.249,0.023-0.339,0.069s-0.162,0.103-0.216,0.171c-0.054,0.067-0.092,0.14-0.114,0.216s-0.035,0.144-0.039,0.204
							h1.386C109.604,87.624,109.533,87.46,109.432,87.348z"/>
						<path class="st25" d="M111.81,86.623v0.432h0.018c0.108-0.18,0.248-0.312,0.42-0.394c0.172-0.081,0.348-0.122,0.528-0.122
							c0.228,0,0.415,0.03,0.561,0.093c0.146,0.062,0.261,0.147,0.345,0.258s0.143,0.244,0.177,0.402
							c0.034,0.157,0.051,0.333,0.051,0.524v1.908h-0.852v-1.752c0-0.256-0.04-0.447-0.12-0.573
							c-0.08-0.126-0.222-0.188-0.426-0.188c-0.232,0-0.4,0.068-0.504,0.207c-0.104,0.138-0.156,0.364-0.156,0.681v1.626H111v-3.102
							H111.81z"/>
						<path class="st25" d="M116.76,89.328c-0.1,0.169-0.231,0.289-0.393,0.363c-0.162,0.074-0.345,0.111-0.549,0.111
							c-0.232,0-0.436-0.045-0.612-0.135c-0.176-0.091-0.321-0.212-0.435-0.366c-0.114-0.154-0.2-0.331-0.258-0.531
							c-0.058-0.2-0.087-0.408-0.087-0.624c0-0.208,0.029-0.409,0.087-0.603c0.058-0.194,0.144-0.365,0.258-0.514
							c0.114-0.147,0.257-0.267,0.429-0.356s0.372-0.135,0.6-0.135c0.184,0,0.359,0.038,0.525,0.116s0.297,0.193,0.393,0.346h0.012
							V85.44h0.852v4.284h-0.81v-0.396H116.76z M116.725,87.795c-0.024-0.118-0.065-0.223-0.123-0.312
							c-0.058-0.09-0.133-0.163-0.225-0.219c-0.092-0.056-0.208-0.084-0.348-0.084s-0.258,0.028-0.354,0.084
							c-0.096,0.056-0.173,0.13-0.231,0.222c-0.058,0.093-0.1,0.197-0.126,0.315s-0.039,0.241-0.039,0.369
							c0,0.12,0.014,0.239,0.042,0.359s0.073,0.228,0.135,0.321s0.14,0.17,0.234,0.229c0.094,0.058,0.207,0.087,0.339,0.087
							c0.14,0,0.257-0.028,0.351-0.084c0.094-0.057,0.169-0.132,0.225-0.226c0.056-0.094,0.096-0.201,0.12-0.321
							c0.024-0.119,0.036-0.243,0.036-0.371S116.748,87.914,116.725,87.795z"/>
						<path class="st25" d="M119.136,88.98c0.128,0.124,0.312,0.187,0.552,0.187c0.172,0,0.32-0.043,0.444-0.129
							c0.124-0.087,0.2-0.178,0.228-0.273h0.75c-0.12,0.372-0.304,0.638-0.552,0.798c-0.248,0.16-0.548,0.24-0.9,0.24
							c-0.244,0-0.464-0.039-0.66-0.117c-0.196-0.078-0.362-0.188-0.498-0.333c-0.136-0.144-0.241-0.315-0.315-0.516
							c-0.074-0.2-0.111-0.42-0.111-0.66c0-0.232,0.038-0.448,0.114-0.648c0.076-0.199,0.184-0.373,0.324-0.519
							c0.14-0.146,0.307-0.261,0.501-0.345c0.194-0.084,0.409-0.126,0.645-0.126c0.264,0,0.494,0.051,0.69,0.152
							c0.196,0.103,0.357,0.239,0.483,0.411s0.217,0.368,0.273,0.588c0.056,0.22,0.076,0.45,0.06,0.69h-2.238
							C118.938,88.656,119.008,88.856,119.136,88.98z M120.1,87.348c-0.102-0.112-0.257-0.168-0.465-0.168
							c-0.136,0-0.249,0.023-0.339,0.069s-0.162,0.103-0.216,0.171c-0.054,0.067-0.092,0.14-0.114,0.216s-0.035,0.144-0.039,0.204
							h1.386C120.272,87.624,120.201,87.46,120.1,87.348z"/>
						<path class="st25" d="M122.478,86.623v0.432h0.018c0.108-0.18,0.248-0.312,0.42-0.394c0.172-0.081,0.348-0.122,0.528-0.122
							c0.228,0,0.415,0.03,0.561,0.093c0.146,0.062,0.261,0.147,0.345,0.258s0.143,0.244,0.177,0.402
							c0.034,0.157,0.051,0.333,0.051,0.524v1.908h-0.852v-1.752c0-0.256-0.04-0.447-0.12-0.573
							c-0.08-0.126-0.222-0.188-0.426-0.188c-0.232,0-0.4,0.068-0.504,0.207c-0.104,0.138-0.156,0.364-0.156,0.681v1.626h-0.852
							v-3.102H122.478z"/>
						<path class="st25" d="M126.93,86.623v0.569h-0.624v1.536c0,0.145,0.024,0.24,0.072,0.288s0.144,0.072,0.288,0.072
							c0.048,0,0.094-0.002,0.138-0.006s0.086-0.011,0.126-0.019v0.66c-0.072,0.012-0.152,0.02-0.24,0.024
							c-0.088,0.004-0.174,0.006-0.258,0.006c-0.132,0-0.257-0.009-0.375-0.027c-0.118-0.018-0.222-0.053-0.312-0.104
							c-0.09-0.053-0.161-0.126-0.213-0.223c-0.052-0.096-0.078-0.222-0.078-0.378v-1.83h-0.516v-0.569h0.516v-0.931h0.852v0.931
							H126.93z"/>
					</g>
				</g>
			</g>
		</g>
	</g>
</g>
<g>
	<g>
		<g>
			<g>
				<path class="st13" d="M163.887,27.624c0.085,0.083,0.208,0.124,0.367,0.124c0.115,0,0.214-0.028,0.296-0.086
					c0.083-0.058,0.134-0.118,0.152-0.182h0.5c-0.08,0.248-0.202,0.425-0.368,0.531c-0.165,0.107-0.365,0.16-0.6,0.16
					c-0.163,0-0.31-0.025-0.44-0.078c-0.131-0.052-0.241-0.126-0.332-0.222s-0.16-0.211-0.21-0.344
					c-0.049-0.134-0.073-0.28-0.073-0.44c0-0.154,0.024-0.299,0.075-0.432c0.051-0.134,0.123-0.249,0.217-0.346
					c0.093-0.098,0.204-0.175,0.334-0.23c0.129-0.056,0.272-0.084,0.43-0.084c0.176,0,0.329,0.034,0.46,0.102
					c0.131,0.068,0.238,0.16,0.322,0.274s0.145,0.245,0.182,0.392c0.037,0.147,0.051,0.301,0.04,0.46h-1.492
					C163.754,27.409,163.801,27.541,163.887,27.624z M164.529,26.537c-0.068-0.074-0.172-0.112-0.311-0.112
					c-0.09,0-0.165,0.016-0.226,0.046c-0.06,0.031-0.108,0.069-0.144,0.114c-0.036,0.046-0.062,0.094-0.076,0.145
					c-0.015,0.05-0.023,0.096-0.026,0.136h0.924C164.644,26.72,164.597,26.611,164.529,26.537z"/>
				<path class="st13" d="M166.359,28.121v-1.816h-0.704v-0.428c0.099,0.003,0.194-0.005,0.286-0.021
					c0.092-0.018,0.175-0.049,0.248-0.093s0.135-0.102,0.186-0.174c0.051-0.071,0.084-0.161,0.101-0.268h0.451v2.8H166.359z"/>
				<path class="st13" d="M167.775,26.689c0.008-0.134,0.041-0.244,0.1-0.332s0.134-0.159,0.225-0.212
					c0.09-0.054,0.192-0.092,0.306-0.114s0.228-0.034,0.342-0.034c0.104,0,0.21,0.008,0.316,0.022s0.204,0.043,0.292,0.086
					c0.088,0.042,0.16,0.102,0.216,0.178s0.084,0.177,0.084,0.302v1.076c0,0.094,0.005,0.183,0.016,0.268
					c0.011,0.086,0.029,0.149,0.057,0.192h-0.576c-0.011-0.032-0.02-0.064-0.026-0.098s-0.011-0.067-0.014-0.103
					c-0.091,0.094-0.197,0.159-0.32,0.196c-0.122,0.037-0.248,0.056-0.376,0.056c-0.099,0-0.19-0.012-0.275-0.036
					c-0.086-0.023-0.16-0.061-0.225-0.111c-0.063-0.051-0.114-0.115-0.149-0.192c-0.036-0.077-0.055-0.169-0.055-0.276
					c0-0.117,0.021-0.214,0.062-0.289c0.041-0.076,0.095-0.137,0.16-0.183c0.065-0.045,0.14-0.079,0.224-0.102
					s0.169-0.041,0.254-0.055c0.085-0.013,0.169-0.023,0.252-0.031c0.083-0.009,0.156-0.021,0.22-0.036
					c0.064-0.017,0.115-0.039,0.152-0.07c0.037-0.03,0.055-0.075,0.052-0.134c0-0.062-0.01-0.11-0.029-0.146
					c-0.021-0.036-0.047-0.063-0.08-0.084c-0.033-0.02-0.072-0.033-0.116-0.04c-0.044-0.006-0.092-0.01-0.142-0.01
					c-0.112,0-0.2,0.024-0.265,0.072c-0.063,0.048-0.102,0.128-0.112,0.24H167.775z M169.086,27.109
					c-0.023,0.021-0.054,0.038-0.09,0.05s-0.074,0.021-0.116,0.03c-0.041,0.008-0.084,0.015-0.13,0.02
					c-0.045,0.006-0.091,0.012-0.136,0.021c-0.043,0.008-0.085,0.019-0.126,0.031c-0.041,0.014-0.077,0.031-0.108,0.055
					c-0.03,0.022-0.055,0.051-0.073,0.086c-0.02,0.034-0.028,0.078-0.028,0.132c0,0.051,0.009,0.094,0.028,0.128
					c0.019,0.034,0.044,0.062,0.075,0.082c0.032,0.02,0.069,0.034,0.112,0.042s0.087,0.012,0.132,0.012
					c0.112,0,0.199-0.019,0.261-0.056c0.061-0.037,0.106-0.082,0.136-0.134c0.029-0.053,0.047-0.104,0.054-0.158
					s0.01-0.096,0.01-0.128V27.109z"/>
			</g>
		</g>
	</g>
</g>
<g>
	<g>
		<g>
			<g>
				<path class="st13" d="M173.22,27.624c0.085,0.083,0.208,0.124,0.367,0.124c0.115,0,0.214-0.028,0.296-0.086
					c0.083-0.058,0.134-0.118,0.152-0.182h0.5c-0.08,0.248-0.202,0.425-0.368,0.531c-0.165,0.107-0.365,0.16-0.6,0.16
					c-0.163,0-0.31-0.025-0.44-0.078c-0.131-0.052-0.241-0.126-0.332-0.222s-0.16-0.211-0.21-0.344
					c-0.049-0.134-0.073-0.28-0.073-0.44c0-0.154,0.024-0.299,0.075-0.432c0.051-0.134,0.123-0.249,0.217-0.346
					c0.093-0.098,0.204-0.175,0.334-0.23c0.129-0.056,0.272-0.084,0.43-0.084c0.176,0,0.329,0.034,0.46,0.102
					c0.131,0.068,0.238,0.16,0.322,0.274s0.145,0.245,0.182,0.392c0.037,0.147,0.051,0.301,0.04,0.46h-1.492
					C173.087,27.409,173.134,27.541,173.22,27.624z M173.862,26.537c-0.068-0.074-0.172-0.112-0.311-0.112
					c-0.09,0-0.165,0.016-0.226,0.046c-0.06,0.031-0.108,0.069-0.144,0.114c-0.036,0.046-0.062,0.094-0.076,0.145
					c-0.015,0.05-0.023,0.096-0.026,0.136h0.924C173.977,26.72,173.93,26.611,173.862,26.537z"/>
				<path class="st13" d="M175.692,28.121v-1.816h-0.704v-0.428c0.099,0.003,0.194-0.005,0.286-0.021
					c0.092-0.018,0.175-0.049,0.248-0.093s0.135-0.102,0.186-0.174c0.051-0.071,0.084-0.161,0.101-0.268h0.451v2.8H175.692z"/>
				<path class="st13" d="M177.7,25.264v1.04h0.008c0.069-0.106,0.163-0.185,0.282-0.233c0.118-0.05,0.242-0.074,0.37-0.074
					c0.104,0,0.206,0.021,0.308,0.064c0.102,0.042,0.193,0.107,0.274,0.195s0.147,0.201,0.198,0.338
					c0.05,0.138,0.075,0.301,0.075,0.49s-0.025,0.353-0.075,0.49c-0.051,0.138-0.117,0.25-0.198,0.338s-0.173,0.153-0.274,0.196
					c-0.102,0.042-0.204,0.063-0.308,0.063c-0.152,0-0.288-0.023-0.408-0.071c-0.12-0.049-0.211-0.13-0.271-0.244h-0.009v0.264
					h-0.54v-2.856H177.7z M178.62,26.836c-0.019-0.08-0.048-0.15-0.088-0.212s-0.09-0.11-0.15-0.146
					c-0.06-0.036-0.132-0.055-0.218-0.055c-0.082,0-0.154,0.019-0.216,0.055c-0.062,0.035-0.112,0.084-0.152,0.146
					s-0.069,0.132-0.088,0.212S177.68,27,177.68,27.088c0,0.086,0.009,0.168,0.027,0.248s0.048,0.15,0.088,0.212
					s0.091,0.11,0.152,0.146s0.134,0.054,0.216,0.054c0.086,0,0.158-0.018,0.218-0.054c0.061-0.036,0.11-0.085,0.15-0.146
					s0.069-0.132,0.088-0.212s0.028-0.162,0.028-0.248C178.648,27,178.638,26.916,178.62,26.836z"/>
			</g>
		</g>
	</g>
</g>
<g>
	<g>
		<g>
			<g>
				<path class="st13" d="M182.789,27.624c0.085,0.083,0.208,0.124,0.368,0.124c0.114,0,0.213-0.028,0.296-0.086
					s0.133-0.118,0.152-0.182h0.5c-0.08,0.248-0.203,0.425-0.368,0.531c-0.166,0.107-0.365,0.16-0.601,0.16
					c-0.162,0-0.309-0.025-0.439-0.078c-0.131-0.052-0.241-0.126-0.332-0.222s-0.161-0.211-0.21-0.344
					c-0.05-0.134-0.074-0.28-0.074-0.44c0-0.154,0.025-0.299,0.076-0.432c0.051-0.134,0.122-0.249,0.216-0.346
					c0.094-0.098,0.205-0.175,0.334-0.23s0.272-0.084,0.43-0.084c0.177,0,0.33,0.034,0.46,0.102c0.131,0.068,0.238,0.16,0.322,0.274
					s0.145,0.245,0.183,0.392c0.037,0.147,0.05,0.301,0.039,0.46h-1.491C182.658,27.409,182.705,27.541,182.789,27.624z
					 M183.431,26.537c-0.067-0.074-0.171-0.112-0.31-0.112c-0.091,0-0.166,0.016-0.226,0.046c-0.061,0.031-0.108,0.069-0.145,0.114
					c-0.036,0.046-0.062,0.094-0.076,0.145c-0.015,0.05-0.023,0.096-0.025,0.136h0.924C183.547,26.72,183.499,26.611,183.431,26.537
					z"/>
				<path class="st13" d="M185.261,28.121v-1.816h-0.704v-0.428c0.099,0.003,0.194-0.005,0.286-0.021
					c0.092-0.018,0.175-0.049,0.248-0.093s0.136-0.102,0.187-0.174c0.05-0.071,0.084-0.161,0.1-0.268h0.452v2.8H185.261z"/>
				<path class="st13" d="M187.69,26.424c-0.091,0-0.167,0.021-0.229,0.062c-0.062,0.041-0.111,0.095-0.149,0.16
					c-0.039,0.065-0.066,0.137-0.082,0.216c-0.017,0.078-0.024,0.156-0.024,0.233c0,0.075,0.008,0.151,0.024,0.229
					c0.016,0.077,0.042,0.147,0.077,0.21c0.036,0.062,0.085,0.114,0.146,0.154s0.136,0.06,0.224,0.06
					c0.137,0,0.241-0.038,0.314-0.114c0.073-0.075,0.119-0.178,0.138-0.306h0.548c-0.037,0.274-0.144,0.484-0.319,0.628
					c-0.177,0.145-0.401,0.216-0.677,0.216c-0.154,0-0.296-0.025-0.426-0.078c-0.129-0.052-0.239-0.124-0.33-0.218
					c-0.091-0.093-0.161-0.204-0.212-0.334c-0.051-0.129-0.076-0.271-0.076-0.426c0-0.16,0.023-0.309,0.07-0.446
					c0.047-0.137,0.115-0.256,0.206-0.355c0.091-0.101,0.201-0.179,0.332-0.234s0.28-0.084,0.448-0.084
					c0.122,0,0.24,0.016,0.354,0.048s0.215,0.081,0.305,0.146c0.089,0.065,0.161,0.146,0.218,0.244
					c0.056,0.097,0.088,0.212,0.096,0.346h-0.556C188.072,26.543,187.932,26.424,187.69,26.424z"/>
			</g>
		</g>
	</g>
</g>
<g>
	<g>
		<g>
			<g>
				<path class="st13" d="M192.078,27.624c0.085,0.083,0.208,0.124,0.367,0.124c0.115,0,0.214-0.028,0.296-0.086
					c0.083-0.058,0.134-0.118,0.152-0.182h0.5c-0.08,0.248-0.202,0.425-0.368,0.531c-0.165,0.107-0.365,0.16-0.6,0.16
					c-0.163,0-0.31-0.025-0.44-0.078c-0.131-0.052-0.241-0.126-0.332-0.222s-0.16-0.211-0.21-0.344
					c-0.049-0.134-0.073-0.28-0.073-0.44c0-0.154,0.024-0.299,0.075-0.432c0.051-0.134,0.123-0.249,0.217-0.346
					c0.093-0.098,0.204-0.175,0.334-0.23c0.129-0.056,0.272-0.084,0.43-0.084c0.176,0,0.329,0.034,0.46,0.102
					c0.131,0.068,0.238,0.16,0.322,0.274s0.145,0.245,0.182,0.392c0.037,0.147,0.051,0.301,0.04,0.46h-1.492
					C191.945,27.409,191.992,27.541,192.078,27.624z M192.719,26.537c-0.068-0.074-0.172-0.112-0.311-0.112
					c-0.09,0-0.165,0.016-0.226,0.046c-0.06,0.031-0.108,0.069-0.144,0.114c-0.036,0.046-0.062,0.094-0.076,0.145
					c-0.015,0.05-0.023,0.096-0.026,0.136h0.924C192.834,26.72,192.788,26.611,192.719,26.537z"/>
				<path class="st13" d="M194.549,28.121v-1.816h-0.704v-0.428c0.099,0.003,0.194-0.005,0.286-0.021
					c0.092-0.018,0.175-0.049,0.248-0.093s0.135-0.102,0.186-0.174c0.051-0.071,0.084-0.161,0.101-0.268h0.451v2.8H194.549z"/>
				<path class="st13" d="M197.457,27.857c-0.067,0.111-0.154,0.192-0.263,0.241c-0.107,0.05-0.229,0.074-0.365,0.074
					c-0.155,0-0.291-0.029-0.408-0.09c-0.117-0.06-0.214-0.142-0.29-0.244s-0.134-0.221-0.172-0.354
					c-0.039-0.134-0.059-0.272-0.059-0.416c0-0.139,0.02-0.272,0.059-0.402c0.038-0.129,0.096-0.243,0.172-0.342
					s0.171-0.178,0.286-0.238c0.114-0.06,0.248-0.09,0.399-0.09c0.123,0,0.239,0.026,0.351,0.078
					c0.11,0.052,0.197,0.129,0.262,0.229h0.008v-1.04h0.568v2.856h-0.54v-0.264H197.457z M197.433,26.834
					c-0.016-0.078-0.043-0.147-0.082-0.208c-0.038-0.06-0.089-0.108-0.149-0.146c-0.062-0.038-0.139-0.057-0.232-0.057
					s-0.172,0.019-0.236,0.057c-0.063,0.037-0.115,0.086-0.153,0.147c-0.039,0.062-0.067,0.132-0.084,0.21
					c-0.018,0.079-0.026,0.161-0.026,0.246c0,0.08,0.009,0.16,0.028,0.24c0.019,0.08,0.048,0.151,0.09,0.214
					c0.041,0.062,0.093,0.113,0.156,0.152c0.062,0.038,0.138,0.058,0.226,0.058c0.094,0,0.171-0.019,0.234-0.056
					c0.062-0.037,0.112-0.088,0.149-0.15s0.064-0.134,0.08-0.214s0.024-0.163,0.024-0.248S197.449,26.914,197.433,26.834z"/>
			</g>
		</g>
	</g>
</g>
<g>
	<g>
		<g>
			<g>
				<path class="st13" d="M21.911,27.515c0.085,0.083,0.208,0.124,0.368,0.124c0.115,0,0.213-0.028,0.296-0.086
					c0.083-0.058,0.133-0.118,0.152-0.182h0.5c-0.08,0.248-0.203,0.425-0.368,0.531c-0.166,0.107-0.365,0.16-0.6,0.16
					c-0.163,0-0.309-0.025-0.44-0.078c-0.131-0.052-0.241-0.126-0.332-0.222s-0.161-0.211-0.21-0.344
					c-0.049-0.134-0.074-0.28-0.074-0.44c0-0.154,0.025-0.299,0.076-0.432c0.051-0.134,0.123-0.249,0.216-0.346
					c0.093-0.098,0.205-0.175,0.334-0.23c0.129-0.056,0.272-0.084,0.43-0.084c0.176,0,0.33,0.034,0.46,0.102
					c0.131,0.068,0.238,0.16,0.322,0.274s0.145,0.245,0.182,0.392c0.037,0.147,0.05,0.301,0.04,0.46H21.77
					C21.778,27.299,21.825,27.432,21.911,27.515z M22.552,26.427c-0.068-0.074-0.171-0.112-0.31-0.112
					c-0.09,0-0.166,0.016-0.226,0.046c-0.06,0.031-0.108,0.069-0.144,0.114c-0.036,0.046-0.062,0.094-0.076,0.145
					c-0.015,0.05-0.023,0.096-0.026,0.136h0.924C22.668,26.611,22.621,26.501,22.552,26.427z"/>
				<path class="st13" d="M24.382,28.011v-1.816h-0.704v-0.428c0.099,0.003,0.194-0.005,0.286-0.021
					c0.092-0.018,0.175-0.049,0.248-0.093s0.135-0.102,0.186-0.174c0.05-0.071,0.084-0.161,0.1-0.268h0.452v2.8H24.382z"/>
				<path class="st13" d="M25.798,26.58c0.008-0.134,0.042-0.244,0.1-0.332s0.133-0.159,0.224-0.212
					c0.09-0.054,0.192-0.092,0.306-0.114c0.114-0.022,0.228-0.034,0.342-0.034c0.104,0,0.209,0.008,0.316,0.022
					s0.204,0.043,0.292,0.086c0.088,0.042,0.16,0.102,0.216,0.178c0.056,0.076,0.084,0.177,0.084,0.302v1.076
					c0,0.094,0.005,0.183,0.016,0.268c0.011,0.086,0.029,0.149,0.056,0.192h-0.576c-0.011-0.032-0.019-0.064-0.026-0.098
					s-0.011-0.067-0.014-0.103c-0.09,0.094-0.197,0.159-0.32,0.196s-0.248,0.056-0.376,0.056c-0.099,0-0.191-0.012-0.276-0.036
					c-0.085-0.023-0.16-0.061-0.224-0.111s-0.114-0.115-0.15-0.192c-0.036-0.077-0.054-0.169-0.054-0.276
					c0-0.117,0.021-0.214,0.062-0.289c0.042-0.076,0.095-0.137,0.16-0.183c0.065-0.045,0.14-0.079,0.224-0.102
					s0.168-0.041,0.254-0.055c0.085-0.013,0.169-0.023,0.252-0.031c0.083-0.009,0.156-0.021,0.22-0.036
					c0.064-0.017,0.115-0.039,0.152-0.07c0.037-0.03,0.055-0.075,0.052-0.134c0-0.062-0.01-0.11-0.03-0.146s-0.047-0.063-0.08-0.084
					c-0.033-0.02-0.072-0.033-0.116-0.04c-0.044-0.006-0.091-0.01-0.142-0.01c-0.112,0-0.2,0.024-0.264,0.072
					s-0.102,0.128-0.112,0.24H25.798z M27.11,26.999c-0.024,0.021-0.054,0.038-0.09,0.05s-0.075,0.021-0.116,0.03
					c-0.041,0.008-0.084,0.015-0.13,0.02c-0.045,0.006-0.091,0.012-0.136,0.021c-0.043,0.008-0.085,0.019-0.126,0.031
					c-0.041,0.014-0.077,0.031-0.108,0.055c-0.031,0.022-0.055,0.051-0.074,0.086c-0.019,0.034-0.028,0.078-0.028,0.132
					c0,0.051,0.009,0.094,0.028,0.128c0.019,0.034,0.044,0.062,0.076,0.082c0.032,0.02,0.069,0.034,0.112,0.042
					c0.042,0.008,0.086,0.012,0.132,0.012c0.112,0,0.199-0.019,0.26-0.056c0.061-0.037,0.106-0.082,0.136-0.134
					c0.029-0.053,0.047-0.104,0.054-0.158c0.006-0.054,0.01-0.096,0.01-0.128V26.999z"/>
			</g>
		</g>
	</g>
</g>
<g>
	<g>
		<g>
			<g>
				<path class="st13" d="M31.353,27.624c0.085,0.083,0.208,0.124,0.368,0.124c0.115,0,0.213-0.028,0.296-0.086
					c0.083-0.058,0.133-0.118,0.152-0.182h0.5c-0.08,0.248-0.203,0.425-0.368,0.531c-0.166,0.107-0.365,0.16-0.6,0.16
					c-0.163,0-0.309-0.025-0.44-0.078c-0.131-0.052-0.241-0.126-0.332-0.222s-0.161-0.211-0.21-0.344
					c-0.049-0.134-0.074-0.28-0.074-0.44c0-0.154,0.025-0.299,0.076-0.432c0.051-0.134,0.123-0.249,0.216-0.346
					c0.093-0.098,0.205-0.175,0.334-0.23c0.129-0.056,0.272-0.084,0.43-0.084c0.176,0,0.33,0.034,0.46,0.102
					c0.131,0.068,0.238,0.16,0.322,0.274s0.145,0.245,0.182,0.392c0.037,0.147,0.05,0.301,0.04,0.46h-1.492
					C31.221,27.409,31.267,27.541,31.353,27.624z M31.995,26.537c-0.068-0.074-0.171-0.112-0.31-0.112
					c-0.09,0-0.166,0.016-0.226,0.046c-0.06,0.031-0.108,0.069-0.144,0.114c-0.036,0.046-0.062,0.094-0.076,0.145
					c-0.015,0.05-0.023,0.096-0.026,0.136h0.924C32.11,26.72,32.063,26.611,31.995,26.537z"/>
				<path class="st13" d="M33.825,28.121v-1.816h-0.704v-0.428c0.099,0.003,0.194-0.005,0.286-0.021
					c0.092-0.018,0.175-0.049,0.248-0.093s0.135-0.102,0.186-0.174c0.05-0.071,0.084-0.161,0.1-0.268h0.452v2.8H33.825z"/>
				<path class="st13" d="M35.833,25.264v1.04h0.008c0.069-0.106,0.163-0.185,0.282-0.233c0.118-0.05,0.242-0.074,0.37-0.074
					c0.104,0,0.207,0.021,0.308,0.064c0.102,0.042,0.193,0.107,0.274,0.195c0.082,0.088,0.147,0.201,0.198,0.338
					c0.05,0.138,0.076,0.301,0.076,0.49s-0.025,0.353-0.076,0.49c-0.051,0.138-0.117,0.25-0.198,0.338
					c-0.081,0.088-0.172,0.153-0.274,0.196c-0.102,0.042-0.204,0.063-0.308,0.063c-0.152,0-0.288-0.023-0.408-0.071
					c-0.12-0.049-0.211-0.13-0.272-0.244h-0.008v0.264h-0.54v-2.856H35.833z M36.753,26.836c-0.019-0.08-0.048-0.15-0.088-0.212
					c-0.04-0.062-0.09-0.11-0.15-0.146c-0.06-0.036-0.132-0.055-0.218-0.055c-0.083,0-0.155,0.019-0.216,0.055
					c-0.062,0.035-0.112,0.084-0.152,0.146s-0.069,0.132-0.088,0.212S35.813,27,35.813,27.088c0,0.086,0.009,0.168,0.028,0.248
					s0.048,0.15,0.088,0.212s0.091,0.11,0.152,0.146c0.061,0.036,0.133,0.054,0.216,0.054c0.085,0,0.158-0.018,0.218-0.054
					s0.11-0.085,0.15-0.146c0.04-0.062,0.069-0.132,0.088-0.212s0.028-0.162,0.028-0.248C36.781,27,36.771,26.916,36.753,26.836z"/>
			</g>
		</g>
	</g>
</g>
<g>
	<g>
		<g>
			<g>
				<path class="st13" d="M40.923,27.624c0.085,0.083,0.208,0.124,0.368,0.124c0.115,0,0.213-0.028,0.296-0.086
					c0.083-0.058,0.133-0.118,0.152-0.182h0.5c-0.08,0.248-0.203,0.425-0.368,0.531c-0.166,0.107-0.365,0.16-0.6,0.16
					c-0.163,0-0.309-0.025-0.44-0.078c-0.131-0.052-0.241-0.126-0.332-0.222s-0.161-0.211-0.21-0.344
					c-0.049-0.134-0.074-0.28-0.074-0.44c0-0.154,0.025-0.299,0.076-0.432c0.051-0.134,0.123-0.249,0.216-0.346
					c0.093-0.098,0.205-0.175,0.334-0.23c0.129-0.056,0.272-0.084,0.43-0.084c0.176,0,0.33,0.034,0.46,0.102
					c0.131,0.068,0.238,0.16,0.322,0.274s0.145,0.245,0.182,0.392c0.037,0.147,0.05,0.301,0.04,0.46h-1.492
					C40.791,27.409,40.838,27.541,40.923,27.624z M41.565,26.537c-0.068-0.074-0.171-0.112-0.31-0.112
					c-0.09,0-0.166,0.016-0.226,0.046c-0.06,0.031-0.108,0.069-0.144,0.114c-0.036,0.046-0.062,0.094-0.076,0.145
					c-0.015,0.05-0.023,0.096-0.026,0.136h0.924C41.681,26.72,41.633,26.611,41.565,26.537z"/>
				<path class="st13" d="M43.395,28.121v-1.816h-0.704v-0.428c0.099,0.003,0.194-0.005,0.286-0.021
					c0.092-0.018,0.175-0.049,0.248-0.093s0.135-0.102,0.186-0.174c0.05-0.071,0.084-0.161,0.1-0.268h0.452v2.8H43.395z"/>
				<path class="st13" d="M45.823,26.424c-0.091,0-0.167,0.021-0.228,0.062c-0.062,0.041-0.111,0.095-0.15,0.16
					c-0.039,0.065-0.066,0.137-0.082,0.216c-0.016,0.078-0.024,0.156-0.024,0.233c0,0.075,0.008,0.151,0.024,0.229
					c0.016,0.077,0.042,0.147,0.078,0.21c0.036,0.062,0.085,0.114,0.146,0.154c0.062,0.04,0.136,0.06,0.224,0.06
					c0.136,0,0.241-0.038,0.314-0.114c0.073-0.075,0.12-0.178,0.138-0.306h0.548c-0.037,0.274-0.144,0.484-0.32,0.628
					c-0.176,0.145-0.401,0.216-0.676,0.216c-0.154,0-0.296-0.025-0.426-0.078c-0.129-0.052-0.239-0.124-0.33-0.218
					c-0.091-0.093-0.161-0.204-0.212-0.334c-0.051-0.129-0.076-0.271-0.076-0.426c0-0.16,0.023-0.309,0.07-0.446
					c0.046-0.137,0.115-0.256,0.206-0.355c0.09-0.101,0.201-0.179,0.332-0.234c0.131-0.056,0.28-0.084,0.448-0.084
					c0.123,0,0.241,0.016,0.354,0.048s0.215,0.081,0.304,0.146c0.089,0.065,0.162,0.146,0.218,0.244
					c0.056,0.097,0.088,0.212,0.096,0.346h-0.556C46.205,26.543,46.066,26.424,45.823,26.424z"/>
			</g>
		</g>
	</g>
</g>
<g>
	<g>
		<g>
			<g>
				<path class="st13" d="M50.211,27.624c0.085,0.083,0.208,0.124,0.368,0.124c0.115,0,0.213-0.028,0.296-0.086
					c0.083-0.058,0.133-0.118,0.152-0.182h0.5c-0.08,0.248-0.203,0.425-0.368,0.531c-0.166,0.107-0.365,0.16-0.6,0.16
					c-0.163,0-0.309-0.025-0.44-0.078c-0.131-0.052-0.241-0.126-0.332-0.222s-0.161-0.211-0.21-0.344
					c-0.049-0.134-0.074-0.28-0.074-0.44c0-0.154,0.025-0.299,0.076-0.432c0.051-0.134,0.123-0.249,0.216-0.346
					c0.093-0.098,0.205-0.175,0.334-0.23c0.129-0.056,0.272-0.084,0.43-0.084c0.176,0,0.33,0.034,0.46,0.102
					c0.131,0.068,0.238,0.16,0.322,0.274s0.145,0.245,0.182,0.392c0.037,0.147,0.05,0.301,0.04,0.46h-1.492
					C50.079,27.409,50.125,27.541,50.211,27.624z M50.852,26.537c-0.068-0.074-0.171-0.112-0.31-0.112
					c-0.09,0-0.166,0.016-0.226,0.046c-0.06,0.031-0.108,0.069-0.144,0.114c-0.036,0.046-0.062,0.094-0.076,0.145
					c-0.015,0.05-0.023,0.096-0.026,0.136h0.924C50.968,26.72,50.921,26.611,50.852,26.537z"/>
				<path class="st13" d="M52.683,28.121v-1.816h-0.704v-0.428c0.099,0.003,0.194-0.005,0.286-0.021
					c0.092-0.018,0.175-0.049,0.248-0.093s0.135-0.102,0.186-0.174c0.05-0.071,0.084-0.161,0.1-0.268h0.452v2.8H52.683z"/>
				<path class="st13" d="M55.591,27.857c-0.067,0.111-0.154,0.192-0.262,0.241c-0.108,0.05-0.23,0.074-0.366,0.074
					c-0.155,0-0.291-0.029-0.408-0.09c-0.117-0.06-0.214-0.142-0.29-0.244c-0.076-0.103-0.133-0.221-0.172-0.354
					c-0.039-0.134-0.058-0.272-0.058-0.416c0-0.139,0.02-0.272,0.058-0.402c0.039-0.129,0.096-0.243,0.172-0.342
					c0.076-0.099,0.171-0.178,0.286-0.238c0.115-0.06,0.248-0.09,0.4-0.09c0.123,0,0.239,0.026,0.35,0.078
					c0.11,0.052,0.198,0.129,0.262,0.229h0.008v-1.04h0.568v2.856h-0.54v-0.264H55.591z M55.567,26.834
					c-0.016-0.078-0.043-0.147-0.082-0.208c-0.039-0.06-0.089-0.108-0.15-0.146c-0.062-0.038-0.139-0.057-0.232-0.057
					c-0.093,0-0.172,0.019-0.236,0.057c-0.064,0.037-0.115,0.086-0.154,0.147c-0.039,0.062-0.067,0.132-0.084,0.21
					c-0.018,0.079-0.026,0.161-0.026,0.246c0,0.08,0.009,0.16,0.028,0.24c0.019,0.08,0.048,0.151,0.09,0.214
					s0.093,0.113,0.156,0.152c0.062,0.038,0.138,0.058,0.226,0.058c0.094,0,0.171-0.019,0.234-0.056
					c0.062-0.037,0.112-0.088,0.15-0.15c0.037-0.062,0.064-0.134,0.08-0.214c0.016-0.08,0.024-0.163,0.024-0.248
					S55.582,26.914,55.567,26.834z"/>
			</g>
		</g>
	</g>
</g>
</svg>
