<?xml version="1.0" encoding="utf-8"?>
<!-- Generator: Adobe Illustrator 26.0.3, SVG Export Plug-In . SVG Version: 6.00 Build 0)  -->
<svg version="1.1" id="Layer_1" xmlns="http://www.w3.org/2000/svg" xmlns:xlink="http://www.w3.org/1999/xlink" x="0px" y="0px"
	 viewBox="0 0 299.8 135.2" style="enable-background:new 0 0 299.8 135.2;" xml:space="preserve">
<style type="text/css">
	.st0{fill:none;stroke:#CCCCCC;stroke-width:0.6715;stroke-linecap:round;stroke-linejoin:round;stroke-miterlimit:10;}
	.st1{fill:#E6E6E6;}
	.st2{fill:#CCCCCC;}
	.st3{fill-rule:evenodd;clip-rule:evenodd;fill:#E6E6E6;}
	.st4{fill-rule:evenodd;clip-rule:evenodd;fill:#262626;}
	.st5{fill:#595A5A;}
	.st6{fill:#D9D9D9;}
	.st7{fill:#6A6A6A;}
	.st8{fill-rule:evenodd;clip-rule:evenodd;fill:#FFFFFF;}
	.st9{fill:#292929;}
	.st10{fill-rule:evenodd;clip-rule:evenodd;fill:#B3B3B3;}
	.st11{fill-rule:evenodd;clip-rule:evenodd;fill:#D66927;}
	.st12{fill-rule:evenodd;clip-rule:evenodd;fill:#333333;}
	.st13{fill:#FFFFFF;}
	.st14{fill-rule:evenodd;clip-rule:evenodd;fill:#999999;}
	.st15{fill:#2762AC;}
	.st16{fill:#F5F6F6;}
	.st17{fill-rule:evenodd;clip-rule:evenodd;fill:#F5F6F6;}
	.st18{fill:#EE7623;stroke:#2762AC;stroke-width:0.2857;stroke-miterlimit:10;}
	.st19{fill:#262626;}
	.st20{fill:#A25EB5;}
	.st21{fill-rule:evenodd;clip-rule:evenodd;fill:#1A1A1A;}
	.st22{fill-rule:evenodd;clip-rule:evenodd;fill:#F2F2F2;}
	.st23{fill:#638C1C;stroke:#2762AC;stroke-width:0.2857;stroke-miterlimit:10;}
	.st24{fill:#4D4E4E;}
	.st25{fill:none;stroke:#FFFFFF;stroke-width:0.1222;stroke-miterlimit:10;}
	.st26{fill:none;stroke:#EE7623;stroke-width:1.75;stroke-linecap:round;stroke-linejoin:round;stroke-miterlimit:10;}
	.st27{fill:#EE7623;}
	.st28{fill:none;stroke:#638C1C;stroke-width:1.75;stroke-linecap:round;stroke-linejoin:round;stroke-miterlimit:10;}
	.st29{fill:none;stroke:#A25EB5;stroke-width:1.75;stroke-linecap:round;stroke-linejoin:round;stroke-miterlimit:10;}
	.st30{fill:#638C1C;}
</style>
<g>
	<g>
		<g>
			<g>
				<rect x="7.2" y="41.6" class="st0" width="288" height="60.2"/>
				<rect x="10.1" y="44.6" class="st1" width="282.1" height="54.2"/>
				<g>
					<rect x="15" y="72.6" class="st2" width="131.6" height="24.1"/>
					<g>
						<path class="st3" d="M56.8,93.7h20.6c0.3,0,0.5-0.2,0.5-0.5V74.5c0-0.3-0.3-0.5-0.5-0.5H56.8c-0.3,0-0.5,0.2-0.5,0.5v18.6
							C56.3,93.5,56.5,93.7,56.8,93.7"/>
						<path class="st4" d="M70.5,75c0-0.1-0.1-0.2-0.2-0.2c-0.1,0-0.2,0.1-0.2,0.2l0.1,1.4c0,0.1,0,0.1,0.1,0.1c0,0,0.1,0,0.1-0.1
							L70.5,75 M70.5,76.9c0-0.1-0.1-0.3-0.3-0.3c-0.1,0-0.3,0.1-0.3,0.3c0,0.1,0.1,0.2,0.3,0.2C70.4,77.1,70.5,77,70.5,76.9z"/>
						<path class="st4" d="M65.4,75.7c-0.1-0.6-0.8-0.9-1.4-0.8c-0.6,0.2-1,0.8-0.8,1.4c0.2,0.6,0.8,0.9,1.4,0.8
							C65.3,76.9,65.6,76.3,65.4,75.7 M65.3,75.9c0.1,0.5-0.3,1-0.8,1c-0.4,0.1-0.8-0.1-0.9-0.5l0.6-0.6l0.3,1L65.3,75.9z
							 M63.4,76.2c0-0.5,0.3-1,0.8-1c0.4-0.1,0.8,0.1,1,0.5l-0.6,0.6l-0.3-1L63.4,76.2z"/>
					</g>
					<circle class="st4" cx="64.4" cy="79.2" r="1.2"/>
					<circle class="st4" cx="70.3" cy="79.2" r="1.2"/>
					<g>
						<path class="st5" d="M117.1,92.4h9.3c0.4,0,0.7-0.3,0.7-0.7V74.9c0-0.4-0.3-0.7-0.7-0.7h-9.3c-0.4,0-0.7,0.3-0.7,0.7v16.9
							C116.4,92.1,116.8,92.4,117.1,92.4z"/>
						<path class="st6" d="M117.9,89.7h7.9c0.3,0,0.5-0.3,0.5-0.5V77.5c0-0.3-0.3-0.5-0.5-0.5h-7.9c-0.3,0-0.5,0.3-0.5,0.5v11.7
							C117.3,89.4,117.5,89.7,117.9,89.7z"/>
						<path class="st5" d="M125.1,80.4v-1.7c0-0.2-0.1-0.3-0.3-0.3h-6c-0.2,0-0.3,0.1-0.3,0.3v1.7H125.1z"/>
						<path class="st7" d="M125.1,80.4h-6.6v7.4c0,0.2,0.1,0.3,0.3,0.3h6c0.2,0,0.3-0.1,0.3-0.3V80.4z"/>
						<path class="st8" d="M121.8,83.3c0.1,0,0.2-0.1,0.2-0.2v-1.6c0-0.1-0.1-0.2-0.2-0.2c-0.1,0-0.2,0.1-0.2,0.2v1.6
							C121.6,83.2,121.7,83.3,121.8,83.3 M122.5,86c0-0.4-0.3-0.7-0.7-0.7c-0.4,0-0.7,0.3-0.7,0.7c0,0.4,0.3,0.7,0.7,0.7
							C122.2,86.7,122.5,86.4,122.5,86z M122.9,86c0-0.6-0.5-1.1-1.1-1.1c-0.6,0-1.1,0.5-1.1,1.1c0,0.6,0.5,1.1,1.1,1.1
							C122.4,87.1,122.9,86.6,122.9,86z"/>
						<path class="st5" d="M129.7,75v17c0,0.5,0.4,1,1,1h12.3c0.5,0,1-0.4,1-1V75c0-0.5-0.4-1-1-1h-12.3
							C130.1,74,129.7,74.4,129.7,75z"/>
						<path class="st9" d="M131.1,79.6v7.7c0,0.4,0.2,0.8,0.5,1.1l3.1,2.9c0.3,0.3,0.7,0.4,1.1,0.4h5.2c0.9,0,1.6-0.7,1.6-1.6V76.7
							c0-0.9-0.7-1.6-1.6-1.6h-5.2c-0.4,0-0.8,0.1-1.1,0.4l-3.1,2.9C131.3,78.8,131.1,79.2,131.1,79.6z"/>
						<path class="st10" d="M136.9,88.5h3.1v-1h-3.1V88.5z M133.5,84h3.1v-1h-3.1V84z M136.9,79.5h3.1v-0.9h-3.1V79.5z"/>
					</g>
					<g>
						<rect x="101.1" y="93.5" class="st5" width="45.2" height="3.3"/>
						<rect x="66.1" y="91.8" class="st5" width="3.3" height="4.9"/>
						<rect x="15.7" y="93.5" class="st5" width="34" height="3.3"/>
						<path class="st7" d="M82.8,93.5c-0.7,0-1.3-0.1-2-0.2l-4.7-1.1c-0.7-0.2-1.3-0.3-2-0.3h-5c-0.2,0-0.3,0.2-0.3,0.3v4.3
							c0,0.2,0.2,0.3,0.3,0.3h31.9v-3.3H82.8z"/>
						<path class="st11" d="M71.5,96.3h27.8V94H82.8c-0.7,0-1.4-0.1-2.1-0.3l-4.7-1.1c-0.6-0.2-1.2-0.2-1.9-0.2h-2.7V96.3"/>
						<path class="st7" d="M61.3,93.5H49.7v3.3h16.6c0.2,0,0.3-0.2,0.3-0.3v-4.3c0-0.2-0.2-0.3-0.3-0.3H64c-0.2,0-0.3,0.1-0.5,0.2
							l-1.7,1.3C61.6,93.4,61.4,93.5,61.3,93.5z"/>
						<rect x="13.3" y="94.5" class="st5" width="4.9" height="2.2"/>
					</g>
				</g>
				<g>
					<rect x="156.6" y="72.6" class="st2" width="131.6" height="24.1"/>
					<g>
						<path class="st3" d="M198.4,93.7H219c0.3,0,0.5-0.2,0.5-0.5V74.5c0-0.3-0.3-0.5-0.5-0.5h-20.6c-0.3,0-0.5,0.2-0.5,0.5v18.6
							C197.8,93.5,198.1,93.7,198.4,93.7"/>
						<path class="st4" d="M212,75c0-0.1-0.1-0.2-0.2-0.2s-0.2,0.1-0.2,0.2l0.1,1.4c0,0.1,0,0.1,0.1,0.1s0.1,0,0.1-0.1L212,75
							 M212.1,76.9c0-0.1-0.1-0.3-0.3-0.3s-0.3,0.1-0.3,0.3c0,0.1,0.1,0.2,0.3,0.2S212.1,77,212.1,76.9z"/>
						<path class="st4" d="M207,75.7c-0.1-0.6-0.8-0.9-1.4-0.8c-0.6,0.2-1,0.8-0.8,1.4c0.2,0.6,0.8,0.9,1.4,0.8
							C206.8,76.9,207.2,76.3,207,75.7 M206.8,75.9c0.1,0.5-0.3,1-0.8,1c-0.4,0.1-0.8-0.1-0.9-0.5l0.6-0.6l0.3,1L206.8,75.9z
							 M205,76.2c0-0.5,0.3-1,0.8-1c0.4-0.1,0.8,0.1,1,0.5l-0.6,0.6l-0.3-1L205,76.2z"/>
					</g>
					<circle class="st4" cx="206" cy="79.2" r="1.2"/>
					<circle class="st4" cx="211.9" cy="79.2" r="1.2"/>
					<g>
						<path class="st5" d="M258.7,92.4h9.3c0.4,0,0.7-0.3,0.7-0.7V74.9c0-0.4-0.3-0.7-0.7-0.7h-9.3c-0.4,0-0.7,0.3-0.7,0.7v16.9
							C258,92.1,258.3,92.4,258.7,92.4z"/>
						<path class="st6" d="M259.4,89.7h7.9c0.3,0,0.5-0.3,0.5-0.5V77.5c0-0.3-0.3-0.5-0.5-0.5h-7.9c-0.3,0-0.5,0.3-0.5,0.5v11.7
							C258.9,89.4,259.1,89.7,259.4,89.7z"/>
						<path class="st5" d="M266.7,80.4v-1.7c0-0.2-0.1-0.3-0.3-0.3h-6c-0.2,0-0.3,0.1-0.3,0.3v1.7H266.7z"/>
						<path class="st7" d="M266.7,80.4h-6.6v7.4c0,0.2,0.1,0.3,0.3,0.3h6c0.2,0,0.3-0.1,0.3-0.3V80.4z"/>
						<path class="st8" d="M263.3,83.3c0.1,0,0.2-0.1,0.2-0.2v-1.6c0-0.1-0.1-0.2-0.2-0.2c-0.1,0-0.2,0.1-0.2,0.2v1.6
							C263.2,83.2,263.2,83.3,263.3,83.3 M264.1,86c0-0.4-0.3-0.7-0.7-0.7c-0.4,0-0.7,0.3-0.7,0.7c0,0.4,0.3,0.7,0.7,0.7
							C263.8,86.7,264.1,86.4,264.1,86z M264.5,86c0-0.6-0.5-1.1-1.1-1.1c-0.6,0-1.1,0.5-1.1,1.1c0,0.6,0.5,1.1,1.1,1.1
							C264,87.1,264.5,86.6,264.5,86z"/>
						<path class="st5" d="M271.2,75v17c0,0.5,0.4,1,1,1h12.3c0.5,0,1-0.4,1-1V75c0-0.5-0.4-1-1-1h-12.3
							C271.7,74,271.2,74.4,271.2,75z"/>
						<path class="st9" d="M272.6,79.6v7.7c0,0.4,0.2,0.8,0.5,1.1l3.1,2.9c0.3,0.3,0.7,0.4,1.1,0.4h5.2c0.9,0,1.6-0.7,1.6-1.6V76.7
							c0-0.9-0.7-1.6-1.6-1.6h-5.2c-0.4,0-0.8,0.1-1.1,0.4l-3.1,2.9C272.8,78.8,272.6,79.2,272.6,79.6z"/>
						<path class="st10" d="M278.5,88.5h3.1v-1h-3.1V88.5z M275.1,84h3.1v-1h-3.1V84z M278.5,79.5h3.1v-0.9h-3.1V79.5z"/>
					</g>
					<g>
						<rect x="243.8" y="93.5" class="st5" width="44.2" height="3.2"/>
						<rect x="209.6" y="91.9" class="st5" width="3.2" height="4.8"/>
						<rect x="160.4" y="93.5" class="st5" width="33.2" height="3.2"/>
						<path class="st7" d="M225.9,93.5c-0.7,0-1.3-0.1-1.9-0.2l-4.6-1.1c-0.6-0.2-1.3-0.3-1.9-0.3h-4.9c-0.2,0-0.3,0.1-0.3,0.3v4.2
							c0,0.1,0.1,0.3,0.3,0.3h31.2v-3.2H225.9z"/>
						<path class="st11" d="M214.9,96.3H242V94h-16.1c-0.7,0-1.4-0.1-2.1-0.3l-4.6-1.1c-0.6-0.1-1.2-0.2-1.8-0.2h-2.6V96.3"/>
						<path class="st7" d="M204.9,93.5h-11.3v3.2h16.2c0.1,0,0.3-0.1,0.3-0.3v-4.2c0-0.2-0.1-0.3-0.3-0.3h-2.2
							c-0.2,0-0.3,0.1-0.5,0.2l-1.6,1.3C205.2,93.5,205,93.5,204.9,93.5z"/>
						<rect x="158" y="94.6" class="st5" width="4.8" height="2.2"/>
					</g>
				</g>
				<g>
					<path class="st12" d="M151,80h3v-3.6h-3l-1.4,1.8L151,80z M152.6,91.4l1.4-1.8l-1.4-1.8h-3v3.7H152.6z"/>
					<path class="st8" d="M151.8,89.5c0-0.5-0.4-1-1-1c-0.5,0-1,0.4-1,1c0,0.5,0.4,1,1,1C151.4,90.5,151.8,90.1,151.8,89.5
						 M151.6,89.7c-0.1,0.4-0.5,0.7-0.9,0.7c-0.4,0-0.6-0.3-0.7-0.6l0,0l0.7-0.4v0.9L151.6,89.7L151.6,89.7z M150,89.4
						c0-0.4,0.5-0.7,0.9-0.7c0.3,0.1,0.6,0.3,0.7,0.7l-0.7,0.4v-0.9L150,89.4L150,89.4z M152.5,78.2c0-0.5-0.4-1-1-1
						c-0.5,0-1,0.4-1,1c0,0.5,0.4,1,1,1C152.1,79.2,152.5,78.7,152.5,78.2z M152.3,78.3c0,0.4-0.5,0.7-0.9,0.7
						c-0.3,0-0.6-0.3-0.7-0.6l0,0l0.7-0.4v0.9L152.3,78.3L152.3,78.3z M150.7,78.1c0.1-0.4,0.5-0.7,0.9-0.7c0.4,0,0.6,0.3,0.7,0.6
						l-0.7,0.4v-0.9L150.7,78.1z"/>
					<g>
						<path class="st13" d="M153.5,79h-0.2v-1.2c0,0-0.1,0.1-0.2,0.1c-0.1,0-0.1,0.1-0.2,0.1v-0.2c0.1-0.1,0.2-0.1,0.3-0.2
							c0.1-0.1,0.1-0.1,0.2-0.2h0.1V79z"/>
					</g>
					<g>
						<path class="st13" d="M153.1,90.1v0.2h-1c0,0,0-0.1,0-0.1c0-0.1,0.1-0.1,0.1-0.2s0.1-0.1,0.3-0.2c0.2-0.1,0.3-0.2,0.3-0.3
							c0.1-0.1,0.1-0.2,0.1-0.2c0-0.1,0-0.1-0.1-0.2c-0.1-0.1-0.1-0.1-0.2-0.1c-0.1,0-0.2,0-0.2,0.1s-0.1,0.1-0.1,0.2l-0.2,0
							c0-0.1,0.1-0.3,0.2-0.3c0.1-0.1,0.2-0.1,0.4-0.1c0.2,0,0.3,0,0.4,0.1c0.1,0.1,0.1,0.2,0.1,0.3c0,0.1,0,0.1,0,0.2
							c0,0.1-0.1,0.1-0.1,0.2s-0.2,0.2-0.3,0.3c-0.1,0.1-0.2,0.2-0.2,0.2c0,0-0.1,0.1-0.1,0.1H153.1z"/>
					</g>
				</g>
				<rect x="15" y="46.7" class="st1" width="131.6" height="24.1"/>
				<g>
					<g>
						<polyline class="st12" points="151,54.6 154,54.6 154,51 151,51 149.6,52.8 151,54.6 						"/>
						<polygon class="st12" points="152.6,66 154,64.2 152.6,62.4 149.6,62.4 149.6,66 						"/>
						<g>
							<path class="st13" d="M153.5,53.8h-0.4l-0.2-0.4h-0.8l-0.2,0.4h-0.4l0.7-1.9h0.4L153.5,53.8z M152.8,53l-0.3-0.7l-0.3,0.7
								H152.8z"/>
						</g>
						<g>
							<path class="st13" d="M150.4,63.3h0.8c0.1,0,0.3,0,0.3,0c0.1,0,0.1,0,0.2,0.1s0.1,0.1,0.1,0.2c0,0.1,0.1,0.1,0.1,0.2
								c0,0.1,0,0.2-0.1,0.2c0,0.1-0.1,0.1-0.2,0.2c0.1,0,0.2,0.1,0.3,0.2c0.1,0.1,0.1,0.2,0.1,0.3c0,0.1,0,0.2-0.1,0.2
								s-0.1,0.1-0.2,0.2c-0.1,0-0.2,0.1-0.3,0.1c-0.1,0-0.2,0-0.5,0h-0.6V63.3z M150.8,63.6V64h0.2c0.1,0,0.2,0,0.3,0
								c0.1,0,0.1,0,0.2-0.1s0.1-0.1,0.1-0.1c0-0.1,0-0.1,0-0.1c0,0-0.1-0.1-0.1-0.1c0,0-0.1,0-0.3,0H150.8z M150.8,64.3v0.5h0.4
								c0.1,0,0.2,0,0.3,0c0.1,0,0.1,0,0.1-0.1c0,0,0.1-0.1,0.1-0.2c0-0.1,0-0.1,0-0.1c0,0-0.1-0.1-0.1-0.1c-0.1,0-0.2,0-0.3,0
								H150.8z"/>
						</g>
					</g>
				</g>
				<g>
					<rect x="156.6" y="46.7" class="st1" width="131.6" height="24.1"/>
				</g>
			</g>
			<g>
				<rect x="87.2" y="46.9" class="st14" width="59.1" height="19.6"/>
				<rect x="116.8" y="46.9" class="st15" width="21.5" height="15.2"/>
				<rect x="87.2" y="46.9" class="st16" width="29.4" height="15.2"/>
			</g>
			<rect x="15.2" y="46.9" class="st14" width="69.4" height="22.2"/>
			<path class="st17" d="M67.9,57.1h11.5c0.3,0,0.5-0.2,0.5-0.5v-5.4c0-0.3-0.2-0.5-0.5-0.5H67.9c-0.2,0-0.5,0.2-0.5,0.5v5.4
				C67.4,56.9,67.6,57.1,67.9,57.1z"/>
			<path class="st17" d="M53.8,56.4h8.4c0.2,0,0.5-0.2,0.5-0.5v-5.1c0-0.2-0.2-0.5-0.5-0.5h-8.4c-0.2,0-0.5,0.2-0.5,0.5V56
				C53.3,56.2,53.5,56.4,53.8,56.4z"/>
			<path class="st17" d="M21.6,56.6h11.5c0.2,0,0.5-0.2,0.5-0.5v-7.8c0-0.2-0.2-0.5-0.5-0.5H21.6c-0.2,0-0.5,0.2-0.5,0.5v7.8
				C21.1,56.4,21.3,56.6,21.6,56.6z"/>
			<path class="st17" d="M36.6,56.6h11.5c0.2,0,0.5-0.2,0.5-0.5v-7.8c0-0.2-0.2-0.5-0.5-0.5H36.6c-0.2,0-0.5,0.2-0.5,0.5v7.8
				C36.1,56.4,36.3,56.6,36.6,56.6z"/>
			<rect x="15.8" y="57.1" class="st15" width="46.7" height="10.8"/>
			<rect x="21" y="59.9" class="st18" width="9.1" height="5.9"/>
			<rect x="30.5" y="59.9" class="st18" width="9.1" height="5.9"/>
			<rect x="39.9" y="59.9" class="st18" width="9.1" height="5.9"/>
			<rect x="49.4" y="59.9" class="st18" width="9.1" height="5.9"/>
			<circle class="st19" cx="23.7" cy="58.4" r="0.6"/>
			<circle class="st19" cx="27.6" cy="58.4" r="0.6"/>
			<circle class="st19" cx="33.1" cy="58.4" r="0.6"/>
			<circle class="st19" cx="37.1" cy="58.4" r="0.6"/>
			<circle class="st19" cx="42.5" cy="58.4" r="0.6"/>
			<circle class="st19" cx="46.5" cy="58.4" r="0.6"/>
			<circle class="st19" cx="52" cy="58.4" r="0.6"/>
			<circle class="st19" cx="55.9" cy="58.4" r="0.6"/>
			<polygon class="st20" points="23.3,53.5 23.3,55.3 31.4,55.3 31.4,53.5 31.2,53.5 31.2,52.2 31.4,52.2 31.4,50.3 29.6,50.3 
				29.6,49.2 28.8,49.2 28.8,48.6 25.8,48.6 25.8,49.2 25,49.2 25,50.3 23.3,50.3 23.3,52.2 23.4,52.2 23.4,53.5 			"/>
			<polygon class="st19" points="38.2,53.5 38.2,55.3 46.3,55.3 46.3,53.5 46.1,53.5 46.1,52.2 46.3,52.2 46.3,50.3 44.5,50.3 
				44.5,49.2 43.8,49.2 43.8,48.6 40.8,48.6 40.8,49.2 40,49.2 40,50.3 38.2,50.3 38.2,52.2 38.4,52.2 38.4,53.5 			"/>
			<path class="st21" d="M55.8,54.8h4.4c0.6,0,1.1-0.5,1.1-1.1v-0.4c0-0.6-0.5-1.1-1.1-1.1h-4.4c-0.6,0-1.1,0.5-1.1,1.1v0.4
				C54.8,54.3,55.2,54.8,55.8,54.8z"/>
			<path class="st19" d="M77.6,52.2h-7.9c-0.1,0-0.2,0.1-0.2,0.2v3c0,0.1,0.1,0.2,0.2,0.2h7.9c0.1,0,0.2-0.1,0.2-0.2v-3
				C77.8,52.2,77.7,52.2,77.6,52.2z"/>
			<polygon class="st8" points="18,63 18.4,63 18.4,64.4 18.6,64.4 18.6,63.9 19,63.9 19,64.2 19.8,64.2 19.8,63.2 19,63.2 19,63.6 
				18.6,63.6 18.6,62.1 19,62.1 19,62.5 19.8,62.5 19.8,61.5 19,61.5 19,61.9 18.6,61.9 18.6,61.4 18.4,61.4 18.4,62.7 18,62.7 
				17.9,62.3 17.1,62.3 17.1,63.4 17.9,63.4 			"/>
			<path class="st22" d="M82.3,52.4v2.4l-0.5-0.5v-0.5c0.1-0.1,0.2-0.2,0.1-0.4c-0.1-0.1-0.2-0.2-0.4-0.1c-0.1,0.1-0.2,0.2-0.1,0.4
				c0,0.1,0.1,0.1,0.1,0.1v0.6l0.7,0.7v0.2c-0.2,0-0.4,0.2-0.3,0.5c0,0.2,0.2,0.4,0.5,0.3c0.2,0,0.4-0.2,0.3-0.5
				c0-0.1-0.1-0.2-0.3-0.3v-0.9l0.7-0.7v-0.5h0.2v-0.5h-0.5v0.5H83v0.4l-0.5,0.5v-1.7h0.2l-0.3-0.5l-0.2,0.5H82.3z"/>
			<path class="st22" d="M19.4,52.2h-1.7c-0.1-0.4-0.5-0.6-0.9-0.5c-0.1,0-0.1,0.1-0.2,0.1V52h0.4l0.2,0.5l-0.2,0.4h-0.4V53
				c0.3,0.2,0.7,0.2,1-0.1c0.1,0,0.1-0.1,0.1-0.2h1.7c0.1,0.4,0.5,0.5,0.8,0.4c0.1,0,0.1-0.1,0.2-0.1v-0.1H20l-0.2-0.4L20,52h0.4
				v-0.1c-0.3-0.2-0.7-0.2-0.9,0.1C19.4,52,19.4,52.1,19.4,52.2z"/>
			<path class="st4" d="M91.2,58.9H98c0.1,0,0.1-0.1,0.1-0.1V52c0-0.1-0.1-0.2-0.1-0.2h-6.8C91,51.8,91,51.9,91,52v6.8
				C91,58.9,91,58.9,91.2,58.9"/>
			<path class="st4" d="M100.7,58.9h6.8c0.1,0,0.1-0.1,0.1-0.1V52c0-0.1-0.1-0.2-0.1-0.2h-6.8c-0.1,0-0.2,0.1-0.2,0.2v6.8
				C100.5,58.9,100.6,58.9,100.7,58.9"/>
			<path class="st4" d="M108.4,58.9h6.8c0.1,0,0.1-0.1,0.1-0.1V52c0-0.1-0.1-0.2-0.1-0.2h-6.8c-0.1,0-0.2,0.1-0.2,0.2v6.8
				C108.2,58.9,108.3,58.9,108.4,58.9"/>
			<g>
				<rect x="118.1" y="51.7" class="st23" width="9.1" height="5.9"/>
				<rect x="127.5" y="51.7" class="st23" width="9.1" height="5.9"/>
			</g>
			<circle class="st19" cx="93" cy="49.1" r="0.8"/>
			<circle class="st19" cx="96" cy="49.1" r="0.8"/>
			<circle class="st19" cx="102.8" cy="49.1" r="0.8"/>
			<circle class="st19" cx="105.8" cy="49.1" r="0.8"/>
			<circle class="st19" cx="109.9" cy="49.1" r="0.8"/>
			<circle class="st19" cx="112.9" cy="49.1" r="0.8"/>
			<g>
				<circle class="st19" cx="120.7" cy="49.1" r="0.8"/>
				<circle class="st19" cx="125.2" cy="49.1" r="0.8"/>
			</g>
			<g>
				<circle class="st19" cx="130" cy="49.1" r="0.8"/>
				<circle class="st19" cx="134.6" cy="49.1" r="0.8"/>
			</g>
			<g>
				<path class="st24" d="M81.8,66.3V69H18.6v1h63.3v0.8h64.5v-3.2H88V66h-5.9C82,66,81.8,66.1,81.8,66.3z"/>
				<path class="st24" d="M85.5,67.6H71.6c-0.1,0-0.3,0.1-0.4,0.2l-1.9,1.9c-0.1,0.1-0.3,0.2-0.5,0.2H21.9c-0.1,0-0.3-0.1-0.4-0.2
					l-1.9-1.9c-0.1-0.1-0.3-0.2-0.5-0.2h-3.3v1h-2.5v2.2h72.2V67.6z"/>
				<path class="st7" d="M95.6,66H85.5v4.8h21v-3.2h-2.2c-0.4,0-0.8-0.1-1.2-0.1l-6.2-1.4C96.4,66.1,96,66,95.6,66z"/>
				<path class="st11" d="M104.4,68.1h-2.3c-0.7,0-1.3-0.1-2-0.2l-4.3-1c-0.6-0.1-1.1-0.2-1.7-0.2h-2.5v3.3h12.8V68.1"/>
			</g>
			<g>
				<rect x="52.6" y="52.5" class="st13" width="0.1" height="1.2"/>
				<path class="st25" d="M52.3,53c0,0.3-0.2,0.5-0.5,0.5c-0.3,0-0.5-0.2-0.5-0.5c0-0.3,0.2-0.5,0.5-0.5
					C52.1,52.6,52.3,52.8,52.3,53z"/>
				<rect x="50.9" y="52.5" class="st13" width="0.1" height="1.2"/>
				<path class="st25" d="M50.5,53c0,0.3-0.2,0.5-0.5,0.5c-0.3,0-0.5-0.2-0.5-0.5c0-0.3,0.2-0.5,0.5-0.5
					C50.3,52.6,50.5,52.8,50.5,53z"/>
				<rect x="49.1" y="52.5" class="st13" width="0.1" height="1.2"/>
			</g>
			<g>
				<rect x="229.1" y="46.9" class="st14" width="59.1" height="19.6"/>
				<rect x="258.6" y="46.9" class="st15" width="21.5" height="15.2"/>
				<rect x="229.1" y="46.9" class="st16" width="29.4" height="15.2"/>
			</g>
			<rect x="157.1" y="46.9" class="st14" width="69.4" height="22.2"/>
			<path class="st17" d="M209.7,57.1h11.5c0.3,0,0.5-0.2,0.5-0.5v-5.4c0-0.3-0.2-0.5-0.5-0.5h-11.5c-0.2,0-0.5,0.2-0.5,0.5v5.4
				C209.3,56.9,209.5,57.1,209.7,57.1z"/>
			<path class="st17" d="M195.6,56.4h8.4c0.2,0,0.5-0.2,0.5-0.5v-5.1c0-0.2-0.2-0.5-0.5-0.5h-8.4c-0.2,0-0.5,0.2-0.5,0.5V56
				C195.2,56.2,195.4,56.4,195.6,56.4z"/>
			<path class="st17" d="M163.4,56.6H175c0.2,0,0.5-0.2,0.5-0.5v-7.8c0-0.2-0.2-0.5-0.5-0.5h-11.5c-0.2,0-0.5,0.2-0.5,0.5v7.8
				C163,56.4,163.2,56.6,163.4,56.6z"/>
			<path class="st17" d="M178.4,56.6H190c0.2,0,0.5-0.2,0.5-0.5v-7.8c0-0.2-0.2-0.5-0.5-0.5h-11.5c-0.2,0-0.5,0.2-0.5,0.5v7.8
				C178,56.4,178.2,56.6,178.4,56.6z"/>
			<rect x="157.7" y="57.1" class="st15" width="46.7" height="10.8"/>
			<rect x="162.9" y="59.9" class="st18" width="9.1" height="5.9"/>
			<rect x="172.3" y="59.9" class="st18" width="9.1" height="5.9"/>
			<rect x="181.8" y="59.9" class="st18" width="9.1" height="5.9"/>
			<rect x="191.3" y="59.9" class="st18" width="9.1" height="5.9"/>
			<circle class="st19" cx="169.5" cy="58.4" r="0.6"/>
			<circle class="st19" cx="175" cy="58.4" r="0.6"/>
			<circle class="st19" cx="178.9" cy="58.4" r="0.6"/>
			<circle class="st19" cx="184.4" cy="58.4" r="0.6"/>
			<circle class="st19" cx="188.4" cy="58.4" r="0.6"/>
			<circle class="st19" cx="193.8" cy="58.4" r="0.6"/>
			<circle class="st19" cx="197.8" cy="58.4" r="0.6"/>
			<polygon class="st20" points="165.1,53.5 165.1,55.3 173.2,55.3 173.2,53.5 173,53.5 173,52.2 173.2,52.2 173.2,50.3 171.4,50.3 
				171.4,49.2 170.7,49.2 170.7,48.6 167.7,48.6 167.7,49.2 166.9,49.2 166.9,50.3 165.1,50.3 165.1,52.2 165.3,52.2 165.3,53.5 			
				"/>
			<polygon class="st19" points="180.1,53.5 180.1,55.3 188.2,55.3 188.2,53.5 188,53.5 188,52.2 188.2,52.2 188.2,50.3 186.4,50.3 
				186.4,49.2 185.6,49.2 185.6,48.6 182.6,48.6 182.6,49.2 181.9,49.2 181.9,50.3 180.1,50.3 180.1,52.2 180.2,52.2 180.2,53.5 			
				"/>
			<path class="st21" d="M197.7,54.8h4.4c0.6,0,1.1-0.5,1.1-1.1v-0.4c0-0.6-0.5-1.1-1.1-1.1h-4.4c-0.6,0-1.1,0.5-1.1,1.1v0.4
				C196.6,54.3,197.1,54.8,197.7,54.8z"/>
			<path class="st19" d="M219.5,52.2h-7.9c-0.1,0-0.2,0.1-0.2,0.2v3c0,0.1,0.1,0.2,0.2,0.2h7.9c0.1,0,0.2-0.1,0.2-0.2v-3
				C219.7,52.2,219.6,52.2,219.5,52.2z"/>
			<path class="st22" d="M224.1,52.4v2.4l-0.5-0.5v-0.5c0.1-0.1,0.2-0.2,0.1-0.4c-0.1-0.1-0.2-0.2-0.4-0.1c-0.1,0.1-0.2,0.2-0.1,0.4
				c0,0.1,0.1,0.1,0.1,0.1v0.6l0.7,0.7v0.2c-0.2,0-0.4,0.2-0.3,0.5c0,0.2,0.2,0.4,0.5,0.3c0.2,0,0.4-0.2,0.3-0.5
				c0-0.1-0.1-0.2-0.3-0.3v-0.9l0.7-0.7v-0.5h0.2v-0.5h-0.5v0.5h0.2v0.4l-0.5,0.5v-1.7h0.2l-0.3-0.5l-0.2,0.5H224.1z"/>
			<path class="st4" d="M233,58.9h6.8c0.1,0,0.1-0.1,0.1-0.1V52c0-0.1-0.1-0.2-0.1-0.2H233c-0.1,0-0.2,0.1-0.2,0.2v6.8
				C232.8,58.9,232.9,58.9,233,58.9"/>
			<path class="st4" d="M242.5,58.9h6.8c0.1,0,0.1-0.1,0.1-0.1V52c0-0.1-0.1-0.2-0.1-0.2h-6.8c-0.1,0-0.2,0.1-0.2,0.2v6.8
				C242.4,58.9,242.4,58.9,242.5,58.9"/>
			<path class="st4" d="M250.3,58.9h6.8c0.1,0,0.1-0.1,0.1-0.1V52c0-0.1-0.1-0.2-0.1-0.2h-6.8c-0.1,0-0.2,0.1-0.2,0.2v6.8
				C250.1,58.9,250.2,58.9,250.3,58.9"/>
			<g>
				<rect x="260" y="51.7" class="st23" width="9.1" height="5.9"/>
				<rect x="269.4" y="51.7" class="st23" width="9.1" height="5.9"/>
			</g>
			<circle class="st19" cx="234.9" cy="49.1" r="0.8"/>
			<circle class="st19" cx="237.9" cy="49.1" r="0.8"/>
			<circle class="st19" cx="244.7" cy="49.1" r="0.8"/>
			<circle class="st19" cx="247.7" cy="49.1" r="0.8"/>
			<circle class="st19" cx="251.8" cy="49.1" r="0.8"/>
			<circle class="st19" cx="254.8" cy="49.1" r="0.8"/>
			<g>
				<circle class="st19" cx="262.5" cy="49.1" r="0.8"/>
				<circle class="st19" cx="267.1" cy="49.1" r="0.8"/>
			</g>
			<g>
				<circle class="st19" cx="271.8" cy="49.1" r="0.8"/>
				<circle class="st19" cx="276.4" cy="49.1" r="0.8"/>
			</g>
			<g>
				<path class="st24" d="M223.7,66.3V69h-63.3v1h63.3v0.8h64.5v-3.2h-58.3V66H224C223.8,66,223.7,66.1,223.7,66.3z"/>
				<path class="st24" d="M227.4,67.6h-13.9c-0.1,0-0.3,0.1-0.4,0.2l-1.9,1.9c-0.1,0.1-0.3,0.2-0.5,0.2h-46.9
					c-0.1,0-0.3-0.1-0.4-0.2l-1.9-1.9c-0.1-0.1-0.3-0.2-0.5-0.2h-3.3v1h-2.5v2.2h72.2V67.6z"/>
				<path class="st7" d="M237.5,66h-10.1v4.8h21v-3.2h-2.2c-0.4,0-0.8-0.1-1.2-0.1l-6.2-1.4C238.3,66.1,237.9,66,237.5,66z"/>
				<path class="st11" d="M246.3,68.1H244c-0.7,0-1.3-0.1-2-0.2l-4.3-1c-0.6-0.1-1.1-0.2-1.7-0.2h-2.5v3.3h12.8V68.1"/>
			</g>
			<g>
				<rect x="194.5" y="52.5" class="st13" width="0.1" height="1.2"/>
				<path class="st25" d="M194.1,53c0,0.3-0.2,0.5-0.5,0.5c-0.3,0-0.5-0.2-0.5-0.5c0-0.3,0.2-0.5,0.5-0.5
					C193.9,52.6,194.1,52.8,194.1,53z"/>
				<rect x="192.7" y="52.5" class="st13" width="0.1" height="1.2"/>
				<path class="st25" d="M192.4,53c0,0.3-0.2,0.5-0.5,0.5c-0.3,0-0.5-0.2-0.5-0.5c0-0.3,0.2-0.5,0.5-0.5
					C192.2,52.6,192.4,52.8,192.4,53z"/>
				<rect x="191" y="52.5" class="st13" width="0.1" height="1.2"/>
			</g>
			<path class="st22" d="M160.8,52.2H159c-0.1-0.4-0.5-0.6-0.9-0.5c-0.1,0-0.1,0.1-0.2,0.1V52h0.4l0.2,0.5l-0.2,0.4h-0.4V53
				c0.3,0.2,0.7,0.2,1-0.1c0.1,0,0.1-0.1,0.1-0.2h1.7c0.1,0.4,0.5,0.5,0.8,0.4c0.1,0,0.1-0.1,0.2-0.1v-0.1h-0.4l-0.2-0.4l0.2-0.4
				h0.4v-0.1c-0.3-0.2-0.7-0.2-0.9,0.1C160.8,52,160.8,52.1,160.8,52.2z"/>
			<polygon class="st8" points="159.8,63 160.2,63 160.2,64.4 160.4,64.4 160.4,63.9 160.8,63.9 160.8,64.2 161.6,64.2 161.6,63.2 
				160.8,63.2 160.8,63.6 160.4,63.6 160.4,62.1 160.8,62.1 160.8,62.5 161.6,62.5 161.6,61.5 160.8,61.5 160.8,61.9 160.4,61.9 
				160.4,61.4 160.2,61.4 160.2,62.7 159.8,62.7 159.8,62.3 159,62.3 159,63.4 159.8,63.4 			"/>
		</g>
	</g>
	<g>
		<g>
			<g>
				<polyline class="st26" points="25.6,64.4 25.6,126.9 71.2,126.9 				"/>
			</g>
		</g>
		<g>
			<g>
				<polyline class="st26" points="35.1,64.4 35.1,121.3 71.2,121.3 				"/>
			</g>
		</g>
		<g>
			<g>
				<polyline class="st26" points="44.6,64.4 44.6,115.4 71.2,115.4 				"/>
			</g>
		</g>
		<g>
			<g>
				<polyline class="st26" points="54,64.4 54,109.8 71.2,109.8 				"/>
			</g>
			<circle class="st27" cx="71.2" cy="109.7" r="1.9"/>
			<circle class="st27" cx="71.2" cy="115.4" r="1.9"/>
			<circle class="st27" cx="71.2" cy="121.2" r="1.9"/>
			<circle class="st27" cx="71.2" cy="126.8" r="1.9"/>
		</g>
	</g>
	<g>
		<g>
			<g>
				<polyline class="st26" points="195.9,64.4 195.9,126.9 151,126.9 				"/>
			</g>
		</g>
		<g>
			<g>
				<polyline class="st26" points="186.4,64.4 186.4,121.3 151,121.3 				"/>
			</g>
		</g>
		<g>
			<g>
				<polyline class="st26" points="176.9,64.4 176.9,115.4 151,115.4 				"/>
			</g>
		</g>
		<g>
			<g>
				<polyline class="st26" points="167.5,64.4 167.5,109.8 151,109.8 				"/>
			</g>
			<circle class="st27" cx="150.9" cy="109.7" r="1.9"/>
			<circle class="st27" cx="150.9" cy="115.4" r="1.9"/>
			<circle class="st27" cx="150.9" cy="121.2" r="1.9"/>
			<circle class="st27" cx="150.9" cy="126.8" r="1.9"/>
		</g>
	</g>
	<g>
		<g>
			<polyline class="st28" points="264.4,54.8 264.4,21.8 246.2,21.8 			"/>
			<polyline class="st28" points="122.7,54.8 122.7,21.8 176.6,21.8 			"/>
		</g>
	</g>
	<g>
		<g>
			<line class="st29" x1="27.3" y1="53.4" x2="27.3" y2="25.1"/>
		</g>
		<circle class="st20" cx="27.3" cy="23.3" r="1.9"/>
		<circle class="st20" cx="35.6" cy="23.3" r="1.9"/>
		<circle class="st30" cx="177.6" cy="21.5" r="1.9"/>
		<circle class="st30" cx="177.6" cy="27" r="1.9"/>
		<circle class="st30" cx="245.6" cy="21.5" r="1.9"/>
		<circle class="st30" cx="245.6" cy="27" r="1.9"/>
	</g>
	<g>
		<g>
			<polyline class="st29" points="169.2,53.5 169.2,36.1 35.5,36.1 35.5,23.8 			"/>
		</g>
	</g>
	<g>
		<polyline class="st28" points="273.8,54.8 273.8,27.1 245.6,27.1 		"/>
		<polyline class="st28" points="132.1,54.8 132.1,27.1 177.6,27.1 		"/>
	</g>
	<g>
		<g>
			<g>
				<path class="st30" d="M183.5,29.5h16.3V19c0-0.1-0.1-0.2-0.2-0.2h-15.9c-0.1,0-0.2,0.1-0.2,0.2V29.5z"/>
			</g>
			<g>
				<path class="st13" d="M191.4,22.3l-1.1,0.3l-0.3-1.2l1.8-0.6h1v6.5h-1.4V22.3z"/>
			</g>
		</g>
	</g>
	<g>
		<g>
			<g>
				<path class="st20" d="M23.6,16.9H40V6.4c0-0.1-0.1-0.2-0.2-0.2H23.9c-0.1,0-0.2,0.1-0.2,0.2V16.9z"/>
			</g>
			<g>
				<path class="st13" d="M29.4,13.6l2.1-1.8c0.8-0.7,1.1-1,1.1-1.5c0-0.5-0.4-0.8-0.9-0.8c-0.5,0-0.8,0.3-1.3,0.9l-1-0.8
					c0.6-0.9,1.3-1.3,2.4-1.3c1.3,0,2.2,0.8,2.2,2v0c0,1.1-0.6,1.6-1.7,2.5l-1,0.8h2.8v1.2h-4.8V13.6z"/>
			</g>
		</g>
		<g>
			<g>
				<g>
					<g>
						<g>
							<path class="st20" d="M44.1,7.4V6.6h3.5v0.8h-1.3v3.5h-0.9V7.4H44.1z"/>
							<path class="st20" d="M47.3,8.6c0.1-0.2,0.2-0.4,0.3-0.5C47.8,8,48,7.9,48.2,7.8c0.2-0.1,0.4-0.1,0.7-0.1
								c0.2,0,0.5,0,0.7,0.1C49.7,7.9,49.8,8,50,8.1c0.1,0.1,0.2,0.3,0.3,0.5c0.1,0.2,0.1,0.4,0.1,0.7s0,0.5-0.1,0.7
								c-0.1,0.2-0.2,0.4-0.3,0.5c-0.1,0.1-0.3,0.3-0.5,0.3c-0.2,0.1-0.4,0.1-0.7,0.1c-0.2,0-0.5,0-0.7-0.1
								c-0.2-0.1-0.4-0.2-0.5-0.3c-0.1-0.1-0.2-0.3-0.3-0.5c-0.1-0.2-0.1-0.4-0.1-0.7S47.3,8.8,47.3,8.6z M48.1,9.7
								c0,0.1,0.1,0.2,0.1,0.3c0.1,0.1,0.1,0.2,0.2,0.2c0.1,0.1,0.2,0.1,0.4,0.1s0.3,0,0.4-0.1c0.1-0.1,0.2-0.1,0.2-0.2
								c0.1-0.1,0.1-0.2,0.1-0.3c0-0.1,0-0.2,0-0.4s0-0.2,0-0.4c0-0.1-0.1-0.2-0.1-0.3c-0.1-0.1-0.1-0.2-0.2-0.2S49,8.3,48.8,8.3
								s-0.3,0-0.4,0.1c-0.1,0.1-0.2,0.1-0.2,0.2c-0.1,0.1-0.1,0.2-0.1,0.3c0,0.1,0,0.2,0,0.4S48.1,9.6,48.1,9.7z"/>
							<path class="st20" d="M53.5,7.8v0.4h0c0.1-0.2,0.2-0.3,0.4-0.4c0.2-0.1,0.3-0.1,0.5-0.1c0.2,0,0.4,0,0.5,0.1
								c0.2,0.1,0.3,0.2,0.4,0.4c0.1-0.1,0.2-0.3,0.4-0.4c0.2-0.1,0.3-0.2,0.6-0.2c0.2,0,0.3,0,0.5,0.1c0.1,0,0.3,0.1,0.4,0.2
								s0.2,0.2,0.2,0.3s0.1,0.3,0.1,0.5v2.1h-0.9V9.1c0-0.1,0-0.2,0-0.3c0-0.1,0-0.2-0.1-0.2c0-0.1-0.1-0.1-0.2-0.2
								S56.2,8.3,56,8.3c-0.1,0-0.2,0-0.3,0.1c-0.1,0-0.1,0.1-0.2,0.2c0,0.1-0.1,0.2-0.1,0.3c0,0.1,0,0.2,0,0.3v1.7h-0.9V9.1
								c0-0.1,0-0.2,0-0.3c0-0.1,0-0.2-0.1-0.2c0-0.1-0.1-0.1-0.1-0.2s-0.2-0.1-0.3-0.1c0,0-0.1,0-0.2,0c-0.1,0-0.1,0.1-0.2,0.1
								c-0.1,0-0.1,0.1-0.2,0.2s-0.1,0.2-0.1,0.4v1.8h-0.9V7.8H53.5z"/>
							<path class="st20" d="M58,8.7c0-0.2,0.1-0.4,0.1-0.5s0.2-0.2,0.3-0.3c0.1-0.1,0.3-0.1,0.5-0.2c0.2,0,0.3-0.1,0.5-0.1
								c0.2,0,0.3,0,0.5,0c0.2,0,0.3,0.1,0.4,0.1c0.1,0.1,0.2,0.2,0.3,0.3c0.1,0.1,0.1,0.3,0.1,0.5v1.6c0,0.1,0,0.3,0,0.4
								c0,0.1,0,0.2,0.1,0.3h-0.9c0,0,0-0.1,0-0.1c0,0,0-0.1,0-0.2c-0.1,0.1-0.3,0.2-0.5,0.3c-0.2,0.1-0.4,0.1-0.6,0.1
								c-0.1,0-0.3,0-0.4-0.1s-0.2-0.1-0.3-0.2c-0.1-0.1-0.2-0.2-0.2-0.3C58,10.3,58,10.2,58,10c0-0.2,0-0.3,0.1-0.4
								c0.1-0.1,0.1-0.2,0.2-0.3c0.1-0.1,0.2-0.1,0.3-0.2c0.1,0,0.3-0.1,0.4-0.1c0.1,0,0.3,0,0.4,0c0.1,0,0.2,0,0.3-0.1
								c0.1,0,0.2-0.1,0.2-0.1C60,8.8,60,8.8,60,8.7c0-0.1,0-0.2,0-0.2c0-0.1-0.1-0.1-0.1-0.1c0,0-0.1,0-0.2-0.1c-0.1,0-0.1,0-0.2,0
								c-0.2,0-0.3,0-0.4,0.1c-0.1,0.1-0.2,0.2-0.2,0.4H58z M60,9.3c0,0-0.1,0.1-0.1,0.1c-0.1,0-0.1,0-0.2,0c-0.1,0-0.1,0-0.2,0
								c-0.1,0-0.1,0-0.2,0c-0.1,0-0.1,0-0.2,0S59,9.6,59,9.7c0,0-0.1,0.1-0.1,0.1c0,0.1,0,0.1,0,0.2c0,0.1,0,0.1,0,0.2
								s0.1,0.1,0.1,0.1c0,0,0.1,0.1,0.2,0.1c0.1,0,0.1,0,0.2,0c0.2,0,0.3,0,0.4-0.1c0.1-0.1,0.2-0.1,0.2-0.2C60,10,60,9.9,60,9.9
								c0-0.1,0-0.1,0-0.2V9.3z"/>
							<path class="st20" d="M62.3,7.8v0.4h0c0.1-0.2,0.2-0.3,0.4-0.4c0.2-0.1,0.3-0.1,0.5-0.1c0.2,0,0.4,0,0.6,0.1
								C64,7.8,64.1,7.9,64.2,8s0.1,0.2,0.2,0.4c0,0.2,0.1,0.3,0.1,0.5v1.9h-0.9V9.1c0-0.3,0-0.4-0.1-0.6c-0.1-0.1-0.2-0.2-0.4-0.2
								c-0.2,0-0.4,0.1-0.5,0.2c-0.1,0.1-0.2,0.4-0.2,0.7v1.6h-0.9V7.8H62.3z"/>
							<path class="st20" d="M65,8.7c0-0.2,0.1-0.4,0.1-0.5s0.2-0.2,0.3-0.3c0.1-0.1,0.3-0.1,0.5-0.2c0.2,0,0.3-0.1,0.5-0.1
								c0.2,0,0.3,0,0.5,0c0.2,0,0.3,0.1,0.4,0.1c0.1,0.1,0.2,0.2,0.3,0.3c0.1,0.1,0.1,0.3,0.1,0.5v1.6c0,0.1,0,0.3,0,0.4
								c0,0.1,0,0.2,0.1,0.3h-0.9c0,0,0-0.1,0-0.1c0,0,0-0.1,0-0.2c-0.1,0.1-0.3,0.2-0.5,0.3c-0.2,0.1-0.4,0.1-0.6,0.1
								c-0.1,0-0.3,0-0.4-0.1s-0.2-0.1-0.3-0.2c-0.1-0.1-0.2-0.2-0.2-0.3C65,10.3,65,10.2,65,10c0-0.2,0-0.3,0.1-0.4
								c0.1-0.1,0.1-0.2,0.2-0.3c0.1-0.1,0.2-0.1,0.3-0.2c0.1,0,0.3-0.1,0.4-0.1c0.1,0,0.3,0,0.4,0c0.1,0,0.2,0,0.3-0.1
								c0.1,0,0.2-0.1,0.2-0.1C67,8.8,67,8.8,67,8.7c0-0.1,0-0.2,0-0.2c0-0.1-0.1-0.1-0.1-0.1c0,0-0.1,0-0.2-0.1c-0.1,0-0.1,0-0.2,0
								c-0.2,0-0.3,0-0.4,0.1c-0.1,0.1-0.2,0.2-0.2,0.4H65z M67,9.3c0,0-0.1,0.1-0.1,0.1c-0.1,0-0.1,0-0.2,0c-0.1,0-0.1,0-0.2,0
								c-0.1,0-0.1,0-0.2,0c-0.1,0-0.1,0-0.2,0S66,9.6,66,9.7c0,0-0.1,0.1-0.1,0.1c0,0.1,0,0.1,0,0.2c0,0.1,0,0.1,0,0.2
								s0.1,0.1,0.1,0.1c0,0,0.1,0.1,0.2,0.1c0.1,0,0.1,0,0.2,0c0.2,0,0.3,0,0.4-0.1c0.1-0.1,0.2-0.1,0.2-0.2C67,10,67,9.9,67,9.9
								c0-0.1,0-0.1,0-0.2V9.3z"/>
							<path class="st20" d="M71.5,11.1c0,0.2-0.1,0.3-0.2,0.4c-0.1,0.1-0.3,0.3-0.5,0.4C70.5,12,70.3,12,69.9,12
								c-0.2,0-0.3,0-0.5-0.1s-0.3-0.1-0.4-0.2c-0.1-0.1-0.2-0.2-0.3-0.3s-0.1-0.3-0.1-0.5h0.8c0,0.2,0.1,0.3,0.2,0.3
								c0.1,0.1,0.2,0.1,0.4,0.1c0.2,0,0.4-0.1,0.5-0.2c0.1-0.1,0.2-0.3,0.2-0.5v-0.4h0c-0.1,0.2-0.2,0.3-0.4,0.4s-0.3,0.1-0.5,0.1
								c-0.2,0-0.4,0-0.6-0.1s-0.3-0.2-0.4-0.3s-0.2-0.3-0.2-0.5c-0.1-0.2-0.1-0.4-0.1-0.6c0-0.2,0-0.4,0.1-0.6s0.1-0.4,0.3-0.5
								C68.9,8,69,7.9,69.2,7.8s0.4-0.1,0.6-0.1c0.2,0,0.4,0,0.5,0.1c0.2,0.1,0.3,0.2,0.4,0.4h0V7.8h0.8v2.9
								C71.5,10.8,71.5,10.9,71.5,11.1z M70.3,10.1c0.1,0,0.2-0.1,0.2-0.2s0.1-0.2,0.1-0.3c0-0.1,0-0.2,0-0.3c0-0.1,0-0.2,0-0.4
								c0-0.1-0.1-0.2-0.1-0.3c-0.1-0.1-0.1-0.2-0.2-0.2c-0.1-0.1-0.2-0.1-0.3-0.1c-0.1,0-0.2,0-0.3,0.1c-0.1,0-0.2,0.1-0.2,0.2
								c-0.1,0.1-0.1,0.2-0.1,0.3c0,0.1,0,0.2,0,0.3c0,0.1,0,0.2,0,0.3c0,0.1,0.1,0.2,0.1,0.3c0.1,0.1,0.1,0.2,0.2,0.2
								s0.2,0.1,0.3,0.1C70.1,10.1,70.2,10.1,70.3,10.1z"/>
							<path class="st20" d="M73.1,10.1c0.1,0.1,0.3,0.2,0.6,0.2c0.2,0,0.3,0,0.4-0.1s0.2-0.2,0.2-0.3h0.8c-0.1,0.4-0.3,0.6-0.6,0.8
								c-0.2,0.2-0.5,0.2-0.9,0.2c-0.2,0-0.5,0-0.7-0.1c-0.2-0.1-0.4-0.2-0.5-0.3c-0.1-0.1-0.2-0.3-0.3-0.5C72.1,9.8,72,9.6,72,9.3
								c0-0.2,0-0.4,0.1-0.6c0.1-0.2,0.2-0.4,0.3-0.5C72.6,8,72.8,7.9,73,7.8c0.2-0.1,0.4-0.1,0.6-0.1c0.3,0,0.5,0.1,0.7,0.2
								c0.2,0.1,0.4,0.2,0.5,0.4s0.2,0.4,0.3,0.6c0.1,0.2,0.1,0.5,0.1,0.7h-2.2C72.9,9.8,73,10,73.1,10.1z M74.1,8.5
								c-0.1-0.1-0.3-0.2-0.5-0.2c-0.1,0-0.2,0-0.3,0.1s-0.2,0.1-0.2,0.2C73,8.6,73,8.7,72.9,8.8c0,0.1,0,0.1,0,0.2h1.4
								C74.2,8.8,74.2,8.6,74.1,8.5z"/>
							<path class="st20" d="M76.5,7.8v0.4h0c0.1-0.2,0.2-0.3,0.4-0.4c0.2-0.1,0.3-0.1,0.5-0.1c0.2,0,0.4,0,0.5,0.1
								c0.2,0.1,0.3,0.2,0.4,0.4c0.1-0.1,0.2-0.3,0.4-0.4c0.2-0.1,0.3-0.2,0.6-0.2c0.2,0,0.3,0,0.5,0.1c0.1,0,0.3,0.1,0.4,0.2
								s0.2,0.2,0.2,0.3s0.1,0.3,0.1,0.5v2.1h-0.9V9.1c0-0.1,0-0.2,0-0.3c0-0.1,0-0.2-0.1-0.2c0-0.1-0.1-0.1-0.2-0.2
								S79.1,8.3,79,8.3c-0.1,0-0.2,0-0.3,0.1c-0.1,0-0.1,0.1-0.2,0.2c0,0.1-0.1,0.2-0.1,0.3c0,0.1,0,0.2,0,0.3v1.7h-0.9V9.1
								c0-0.1,0-0.2,0-0.3c0-0.1,0-0.2-0.1-0.2c0-0.1-0.1-0.1-0.1-0.2s-0.2-0.1-0.3-0.1c0,0-0.1,0-0.2,0c-0.1,0-0.1,0.1-0.2,0.1
								c-0.1,0-0.1,0.1-0.2,0.2s-0.1,0.2-0.1,0.4v1.8h-0.9V7.8H76.5z"/>
							<path class="st20" d="M82,10.1c0.1,0.1,0.3,0.2,0.6,0.2c0.2,0,0.3,0,0.4-0.1s0.2-0.2,0.2-0.3H84c-0.1,0.4-0.3,0.6-0.6,0.8
								c-0.2,0.2-0.5,0.2-0.9,0.2c-0.2,0-0.5,0-0.7-0.1c-0.2-0.1-0.4-0.2-0.5-0.3c-0.1-0.1-0.2-0.3-0.3-0.5
								c-0.1-0.2-0.1-0.4-0.1-0.7c0-0.2,0-0.4,0.1-0.6c0.1-0.2,0.2-0.4,0.3-0.5c0.1-0.1,0.3-0.3,0.5-0.3c0.2-0.1,0.4-0.1,0.6-0.1
								c0.3,0,0.5,0.1,0.7,0.2c0.2,0.1,0.4,0.2,0.5,0.4s0.2,0.4,0.3,0.6C84,9,84,9.3,84,9.5h-2.2C81.8,9.8,81.9,10,82,10.1z M83,8.5
								c-0.1-0.1-0.3-0.2-0.5-0.2c-0.1,0-0.2,0-0.3,0.1S82,8.5,81.9,8.6c-0.1,0.1-0.1,0.1-0.1,0.2c0,0.1,0,0.1,0,0.2h1.4
								C83.1,8.8,83.1,8.6,83,8.5z"/>
							<path class="st20" d="M85.3,7.8v0.4h0c0.1-0.2,0.2-0.3,0.4-0.4c0.2-0.1,0.3-0.1,0.5-0.1c0.2,0,0.4,0,0.6,0.1s0.3,0.1,0.3,0.3
								s0.1,0.2,0.2,0.4c0,0.2,0.1,0.3,0.1,0.5v1.9h-0.9V9.1c0-0.3,0-0.4-0.1-0.6c-0.1-0.1-0.2-0.2-0.4-0.2c-0.2,0-0.4,0.1-0.5,0.2
								c-0.1,0.1-0.2,0.4-0.2,0.7v1.6h-0.9V7.8H85.3z"/>
							<path class="st20" d="M89.8,7.8v0.6h-0.6v1.5c0,0.1,0,0.2,0.1,0.3s0.1,0.1,0.3,0.1c0,0,0.1,0,0.1,0s0.1,0,0.1,0v0.7
								c-0.1,0-0.2,0-0.2,0s-0.2,0-0.3,0c-0.1,0-0.3,0-0.4,0c-0.1,0-0.2-0.1-0.3-0.1c-0.1-0.1-0.2-0.1-0.2-0.2
								c-0.1-0.1-0.1-0.2-0.1-0.4V8.3h-0.5V7.8h0.5V6.8h0.9v0.9H89.8z"/>
							<path class="st20" d="M45.1,14.2v0.4h0c0.1-0.2,0.2-0.3,0.4-0.4c0.2-0.1,0.3-0.1,0.5-0.1c0.2,0,0.4,0,0.6,0.1
								s0.3,0.1,0.3,0.3s0.1,0.2,0.2,0.4c0,0.2,0.1,0.3,0.1,0.5v1.9h-0.9v-1.8c0-0.3,0-0.4-0.1-0.6c-0.1-0.1-0.2-0.2-0.4-0.2
								c-0.2,0-0.4,0.1-0.5,0.2c-0.1,0.1-0.2,0.4-0.2,0.7v1.6h-0.9v-3.1H45.1z"/>
							<path class="st20" d="M48.8,16.5c0.1,0.1,0.3,0.2,0.6,0.2c0.2,0,0.3,0,0.4-0.1s0.2-0.2,0.2-0.3h0.8c-0.1,0.4-0.3,0.6-0.6,0.8
								c-0.2,0.2-0.5,0.2-0.9,0.2c-0.2,0-0.5,0-0.7-0.1c-0.2-0.1-0.4-0.2-0.5-0.3c-0.1-0.1-0.2-0.3-0.3-0.5
								c-0.1-0.2-0.1-0.4-0.1-0.7c0-0.2,0-0.4,0.1-0.6c0.1-0.2,0.2-0.4,0.3-0.5c0.1-0.1,0.3-0.3,0.5-0.3c0.2-0.1,0.4-0.1,0.6-0.1
								c0.3,0,0.5,0.1,0.7,0.2c0.2,0.1,0.4,0.2,0.5,0.4s0.2,0.4,0.3,0.6c0.1,0.2,0.1,0.5,0.1,0.7h-2.2
								C48.6,16.2,48.7,16.4,48.8,16.5z M49.7,14.9c-0.1-0.1-0.3-0.2-0.5-0.2c-0.1,0-0.2,0-0.3,0.1s-0.2,0.1-0.2,0.2
								c-0.1,0.1-0.1,0.1-0.1,0.2c0,0.1,0,0.1,0,0.2H50C49.9,15.2,49.8,15,49.7,14.9z"/>
							<path class="st20" d="M53,14.2v0.6h-0.6v1.5c0,0.1,0,0.2,0.1,0.3s0.1,0.1,0.3,0.1c0,0,0.1,0,0.1,0s0.1,0,0.1,0v0.7
								c-0.1,0-0.2,0-0.2,0s-0.2,0-0.3,0c-0.1,0-0.3,0-0.4,0c-0.1,0-0.2-0.1-0.3-0.1c-0.1-0.1-0.2-0.1-0.2-0.2
								c-0.1-0.1-0.1-0.2-0.1-0.4v-1.8H51v-0.6h0.5v-0.9h0.9v0.9H53z"/>
							<path class="st20" d="M56.1,17.3l-0.6-2.1h0L55,17.3h-0.9l-1-3.1H54l0.6,2.1h0l0.5-2.1H56l0.5,2.1h0l0.6-2.1H58l-1,3.1H56.1z
								"/>
							<path class="st20" d="M58.3,15.1c0.1-0.2,0.2-0.4,0.3-0.5c0.1-0.1,0.3-0.3,0.5-0.3c0.2-0.1,0.4-0.1,0.7-0.1
								c0.2,0,0.5,0,0.7,0.1c0.2,0.1,0.4,0.2,0.5,0.3c0.1,0.1,0.2,0.3,0.3,0.5c0.1,0.2,0.1,0.4,0.1,0.7s0,0.5-0.1,0.7
								c-0.1,0.2-0.2,0.4-0.3,0.5c-0.1,0.1-0.3,0.3-0.5,0.3c-0.2,0.1-0.4,0.1-0.7,0.1c-0.2,0-0.5,0-0.7-0.1
								c-0.2-0.1-0.4-0.2-0.5-0.3c-0.1-0.1-0.2-0.3-0.3-0.5c-0.1-0.2-0.1-0.4-0.1-0.7S58.3,15.3,58.3,15.1z M59.1,16.1
								c0,0.1,0.1,0.2,0.1,0.3c0.1,0.1,0.1,0.2,0.2,0.2c0.1,0.1,0.2,0.1,0.4,0.1s0.3,0,0.4-0.1c0.1-0.1,0.2-0.1,0.2-0.2
								c0.1-0.1,0.1-0.2,0.1-0.3c0-0.1,0-0.2,0-0.4s0-0.2,0-0.4c0-0.1-0.1-0.2-0.1-0.3c-0.1-0.1-0.1-0.2-0.2-0.2s-0.2-0.1-0.4-0.1
								s-0.3,0-0.4,0.1c-0.1,0.1-0.2,0.1-0.2,0.2c-0.1,0.1-0.1,0.2-0.1,0.3c0,0.1,0,0.2,0,0.4S59.1,16,59.1,16.1z"/>
							<path class="st20" d="M62.8,14.2v0.6h0c0-0.1,0.1-0.2,0.2-0.3c0.1-0.1,0.1-0.2,0.2-0.2s0.2-0.1,0.3-0.1c0.1,0,0.2,0,0.3,0
								c0.1,0,0.1,0,0.2,0v0.8c0,0-0.1,0-0.1,0c-0.1,0-0.1,0-0.2,0c-0.2,0-0.3,0-0.4,0.1c-0.1,0.1-0.2,0.1-0.3,0.2s-0.1,0.2-0.1,0.3
								c0,0.1,0,0.2,0,0.4v1.4H62v-3.1H62.8z"/>
							<path class="st20" d="M65.2,13v2.3l1.1-1.1h1l-1.2,1.1l1.3,2h-1l-0.9-1.4l-0.3,0.3v1.1h-0.9V13H65.2z"/>
							<path class="st20" d="M70.1,16.5c0,0.1,0.1,0.1,0.1,0.2s0.1,0.1,0.2,0.1s0.2,0,0.2,0c0.1,0,0.1,0,0.2,0c0.1,0,0.1,0,0.2-0.1
								c0.1,0,0.1-0.1,0.1-0.1c0-0.1,0.1-0.1,0.1-0.2c0-0.1-0.1-0.2-0.3-0.3s-0.4-0.1-0.7-0.2c-0.1,0-0.2-0.1-0.4-0.1
								c-0.1,0-0.2-0.1-0.3-0.1c-0.1-0.1-0.2-0.1-0.2-0.2c-0.1-0.1-0.1-0.2-0.1-0.3c0-0.2,0-0.4,0.1-0.5c0.1-0.1,0.2-0.2,0.3-0.3
								c0.1-0.1,0.3-0.1,0.4-0.2c0.2,0,0.3,0,0.5,0s0.3,0,0.5,0c0.2,0,0.3,0.1,0.4,0.2c0.1,0.1,0.2,0.2,0.3,0.3s0.1,0.3,0.1,0.5
								h-0.8c0-0.2-0.1-0.3-0.2-0.3c-0.1-0.1-0.2-0.1-0.4-0.1c0,0-0.1,0-0.2,0s-0.1,0-0.2,0c0,0-0.1,0-0.1,0.1c0,0,0,0.1,0,0.2
								c0,0.1,0,0.1,0.1,0.2c0.1,0,0.1,0.1,0.2,0.1c0.1,0,0.2,0.1,0.3,0.1s0.2,0,0.4,0.1c0.1,0,0.2,0.1,0.4,0.1
								c0.1,0,0.2,0.1,0.3,0.2c0.1,0.1,0.2,0.1,0.2,0.2c0.1,0.1,0.1,0.2,0.1,0.4c0,0.2,0,0.4-0.1,0.5c-0.1,0.1-0.2,0.2-0.3,0.3
								s-0.3,0.1-0.5,0.2c-0.2,0-0.3,0.1-0.5,0.1c-0.2,0-0.4,0-0.5-0.1s-0.3-0.1-0.5-0.2c-0.1-0.1-0.2-0.2-0.3-0.3
								c-0.1-0.1-0.1-0.3-0.1-0.5h0.8C70.1,16.4,70.1,16.5,70.1,16.5z"/>
							<path class="st20" d="M75.3,17.3l-0.6-2.1h0l-0.5,2.1h-0.9l-1-3.1h0.9l0.6,2.1h0l0.5-2.1h0.8l0.5,2.1h0l0.6-2.1h0.9l-1,3.1
								H75.3z"/>
							<path class="st20" d="M77.6,13.7V13h0.9v0.7H77.6z M78.4,14.2v3.1h-0.9v-3.1H78.4z"/>
							<path class="st20" d="M80.8,14.2v0.6h-0.6v1.5c0,0.1,0,0.2,0.1,0.3s0.1,0.1,0.3,0.1c0,0,0.1,0,0.1,0s0.1,0,0.1,0v0.7
								c-0.1,0-0.2,0-0.2,0s-0.2,0-0.3,0c-0.1,0-0.3,0-0.4,0c-0.1,0-0.2-0.1-0.3-0.1c-0.1-0.1-0.2-0.1-0.2-0.2
								c-0.1-0.1-0.1-0.2-0.1-0.4v-1.8h-0.5v-0.6h0.5v-0.9h0.9v0.9H80.8z"/>
							<path class="st20" d="M82.7,14.7c-0.1,0-0.2,0-0.3,0.1c-0.1,0.1-0.2,0.1-0.2,0.2C82,15.2,82,15.3,82,15.4c0,0.1,0,0.2,0,0.4
								c0,0.1,0,0.2,0,0.3c0,0.1,0.1,0.2,0.1,0.3c0.1,0.1,0.1,0.2,0.2,0.2c0.1,0.1,0.2,0.1,0.3,0.1c0.2,0,0.4-0.1,0.5-0.2
								c0.1-0.1,0.2-0.3,0.2-0.5h0.8c-0.1,0.4-0.2,0.7-0.5,0.9c-0.3,0.2-0.6,0.3-1,0.3c-0.2,0-0.4,0-0.6-0.1
								c-0.2-0.1-0.4-0.2-0.5-0.3c-0.1-0.1-0.2-0.3-0.3-0.5c-0.1-0.2-0.1-0.4-0.1-0.6c0-0.2,0-0.5,0.1-0.7s0.2-0.4,0.3-0.5
								c0.1-0.1,0.3-0.3,0.5-0.4c0.2-0.1,0.4-0.1,0.7-0.1c0.2,0,0.4,0,0.5,0.1c0.2,0,0.3,0.1,0.5,0.2c0.1,0.1,0.2,0.2,0.3,0.4
								s0.1,0.3,0.1,0.5h-0.8C83.2,14.9,83,14.7,82.7,14.7z"/>
							<path class="st20" d="M85.5,13v1.6h0c0.1-0.2,0.2-0.3,0.4-0.4s0.3-0.1,0.5-0.1c0.2,0,0.4,0,0.6,0.1s0.3,0.1,0.3,0.3
								s0.1,0.2,0.2,0.4c0,0.2,0.1,0.3,0.1,0.5v1.9h-0.9v-1.8c0-0.3,0-0.4-0.1-0.6c-0.1-0.1-0.2-0.2-0.4-0.2c-0.2,0-0.4,0.1-0.5,0.2
								c-0.1,0.1-0.2,0.4-0.2,0.7v1.6h-0.9V13H85.5z"/>
							<path class="st20" d="M89.1,16.5c0.1,0.1,0.3,0.2,0.6,0.2c0.2,0,0.3,0,0.4-0.1s0.2-0.2,0.2-0.3h0.8c-0.1,0.4-0.3,0.6-0.6,0.8
								c-0.2,0.2-0.5,0.2-0.9,0.2c-0.2,0-0.5,0-0.7-0.1c-0.2-0.1-0.4-0.2-0.5-0.3c-0.1-0.1-0.2-0.3-0.3-0.5C88.1,16.2,88,16,88,15.7
								c0-0.2,0-0.4,0.1-0.6c0.1-0.2,0.2-0.4,0.3-0.5c0.1-0.1,0.3-0.3,0.5-0.3c0.2-0.1,0.4-0.1,0.6-0.1c0.3,0,0.5,0.1,0.7,0.2
								c0.2,0.1,0.4,0.2,0.5,0.4s0.2,0.4,0.3,0.6c0.1,0.2,0.1,0.5,0.1,0.7h-2.2C88.9,16.2,89,16.4,89.1,16.5z M90.1,14.9
								c-0.1-0.1-0.3-0.2-0.5-0.2c-0.1,0-0.2,0-0.3,0.1S89.1,14.9,89,15c-0.1,0.1-0.1,0.1-0.1,0.2c0,0.1,0,0.1,0,0.2h1.4
								C90.2,15.2,90.2,15,90.1,14.9z"/>
							<path class="st20" d="M92.4,16.5c0,0.1,0.1,0.1,0.1,0.2s0.1,0.1,0.2,0.1s0.2,0,0.2,0c0.1,0,0.1,0,0.2,0c0.1,0,0.1,0,0.2-0.1
								c0.1,0,0.1-0.1,0.1-0.1c0-0.1,0.1-0.1,0.1-0.2c0-0.1-0.1-0.2-0.3-0.3s-0.4-0.1-0.7-0.2c-0.1,0-0.2-0.1-0.4-0.1
								c-0.1,0-0.2-0.1-0.3-0.1c-0.1-0.1-0.2-0.1-0.2-0.2c-0.1-0.1-0.1-0.2-0.1-0.3c0-0.2,0-0.4,0.1-0.5c0.1-0.1,0.2-0.2,0.3-0.3
								c0.1-0.1,0.3-0.1,0.4-0.2c0.2,0,0.3,0,0.5,0s0.3,0,0.5,0c0.2,0,0.3,0.1,0.4,0.2c0.1,0.1,0.2,0.2,0.3,0.3s0.1,0.3,0.1,0.5
								h-0.8c0-0.2-0.1-0.3-0.2-0.3c-0.1-0.1-0.2-0.1-0.4-0.1c0,0-0.1,0-0.2,0s-0.1,0-0.2,0c0,0-0.1,0-0.1,0.1c0,0,0,0.1,0,0.2
								c0,0.1,0,0.1,0.1,0.2c0.1,0,0.1,0.1,0.2,0.1c0.1,0,0.2,0.1,0.3,0.1s0.2,0,0.4,0.1c0.1,0,0.2,0.1,0.4,0.1
								c0.1,0,0.2,0.1,0.3,0.2c0.1,0.1,0.2,0.1,0.2,0.2c0.1,0.1,0.1,0.2,0.1,0.4c0,0.2,0,0.4-0.1,0.5c-0.1,0.1-0.2,0.2-0.3,0.3
								s-0.3,0.1-0.5,0.2c-0.2,0-0.3,0.1-0.5,0.1c-0.2,0-0.4,0-0.5-0.1s-0.3-0.1-0.5-0.2c-0.1-0.1-0.2-0.2-0.3-0.3
								c-0.1-0.1-0.1-0.3-0.1-0.5h0.8C92.3,16.4,92.3,16.5,92.4,16.5z"/>
						</g>
					</g>
				</g>
			</g>
		</g>
	</g>
	<g>
		<g>
			<g>
				<g>
					<path class="st27" d="M76.7,119.5H93V109c0-0.1-0.1-0.2-0.2-0.2H76.9c-0.1,0-0.2,0.1-0.2,0.2V119.5z"/>
				</g>
				<g>
					<path class="st13" d="M82.3,116.3l1-0.9c0.4,0.5,0.9,0.8,1.6,0.8c0.5,0,0.9-0.3,0.9-0.8v0c0-0.5-0.5-0.8-1.3-0.8h-0.6l-0.2-0.9
						l1.5-1.5h-2.5v-1.2H87v1.1l-1.6,1.6c0.9,0.1,1.7,0.6,1.7,1.8v0c0,1.2-0.9,2.1-2.3,2.1C83.7,117.4,82.9,116.9,82.3,116.3z"/>
				</g>
			</g>
		</g>
		<g>
			<g>
				<g>
					<g>
						<path class="st27" d="M97.5,110.4v-0.8h3.5v0.8h-1.3v3.5h-0.9v-3.5H97.5z"/>
						<path class="st27" d="M100.8,111.7c0.1-0.2,0.2-0.4,0.3-0.5c0.1-0.1,0.3-0.3,0.5-0.3s0.4-0.1,0.7-0.1c0.2,0,0.5,0,0.7,0.1
							c0.2,0.1,0.4,0.2,0.5,0.3c0.1,0.1,0.2,0.3,0.3,0.5c0.1,0.2,0.1,0.4,0.1,0.7s0,0.5-0.1,0.7c-0.1,0.2-0.2,0.4-0.3,0.5
							c-0.1,0.1-0.3,0.3-0.5,0.3c-0.2,0.1-0.4,0.1-0.7,0.1c-0.2,0-0.5,0-0.7-0.1s-0.4-0.2-0.5-0.3c-0.1-0.1-0.2-0.3-0.3-0.5
							c-0.1-0.2-0.1-0.4-0.1-0.7S100.7,111.9,100.8,111.7z M101.6,112.7c0,0.1,0.1,0.2,0.1,0.3c0.1,0.1,0.1,0.2,0.2,0.2
							c0.1,0.1,0.2,0.1,0.4,0.1s0.3,0,0.4-0.1c0.1-0.1,0.2-0.1,0.2-0.2c0.1-0.1,0.1-0.2,0.1-0.3c0-0.1,0-0.2,0-0.4s0-0.2,0-0.4
							c0-0.1-0.1-0.2-0.1-0.3c-0.1-0.1-0.1-0.2-0.2-0.2s-0.2-0.1-0.4-0.1s-0.3,0-0.4,0.1c-0.1,0.1-0.2,0.1-0.2,0.2
							c-0.1,0.1-0.1,0.2-0.1,0.3c0,0.1,0,0.2,0,0.4S101.5,112.6,101.6,112.7z"/>
						<path class="st27" d="M108.3,113.5c-0.1,0.2-0.2,0.3-0.4,0.4c-0.2,0.1-0.3,0.1-0.5,0.1c-0.2,0-0.4,0-0.6-0.1
							c-0.2-0.1-0.3-0.2-0.4-0.4c-0.1-0.2-0.2-0.3-0.3-0.5c-0.1-0.2-0.1-0.4-0.1-0.6c0-0.2,0-0.4,0.1-0.6c0.1-0.2,0.1-0.4,0.3-0.5
							c0.1-0.1,0.3-0.3,0.4-0.4s0.4-0.1,0.6-0.1c0.2,0,0.4,0,0.5,0.1s0.3,0.2,0.4,0.3h0v-1.6h0.9v4.3h-0.8L108.3,113.5L108.3,113.5z
							 M108.3,112c0-0.1-0.1-0.2-0.1-0.3c-0.1-0.1-0.1-0.2-0.2-0.2c-0.1-0.1-0.2-0.1-0.3-0.1s-0.3,0-0.4,0.1
							c-0.1,0.1-0.2,0.1-0.2,0.2c-0.1,0.1-0.1,0.2-0.1,0.3s0,0.2,0,0.4c0,0.1,0,0.2,0,0.4s0.1,0.2,0.1,0.3s0.1,0.2,0.2,0.2
							c0.1,0.1,0.2,0.1,0.3,0.1c0.1,0,0.3,0,0.4-0.1c0.1-0.1,0.2-0.1,0.2-0.2c0.1-0.1,0.1-0.2,0.1-0.3c0-0.1,0-0.2,0-0.4
							S108.3,112.1,108.3,112z"/>
						<path class="st27" d="M109.7,111.8c0-0.2,0.1-0.4,0.1-0.5c0.1-0.1,0.2-0.2,0.3-0.3c0.1-0.1,0.3-0.1,0.5-0.2s0.3-0.1,0.5-0.1
							c0.2,0,0.3,0,0.5,0c0.2,0,0.3,0.1,0.4,0.1c0.1,0.1,0.2,0.2,0.3,0.3s0.1,0.3,0.1,0.5v1.6c0,0.1,0,0.3,0,0.4
							c0,0.1,0,0.2,0.1,0.3h-0.9c0,0,0-0.1,0-0.1c0,0,0-0.1,0-0.2c-0.1,0.1-0.3,0.2-0.5,0.3s-0.4,0.1-0.6,0.1c-0.1,0-0.3,0-0.4-0.1
							c-0.1,0-0.2-0.1-0.3-0.2c-0.1-0.1-0.2-0.2-0.2-0.3c-0.1-0.1-0.1-0.3-0.1-0.4c0-0.2,0-0.3,0.1-0.4c0.1-0.1,0.1-0.2,0.2-0.3
							c0.1-0.1,0.2-0.1,0.3-0.2s0.3-0.1,0.4-0.1c0.1,0,0.3,0,0.4,0s0.2,0,0.3-0.1c0.1,0,0.2-0.1,0.2-0.1c0.1,0,0.1-0.1,0.1-0.2
							c0-0.1,0-0.2,0-0.2c0-0.1-0.1-0.1-0.1-0.1c0,0-0.1,0-0.2-0.1c-0.1,0-0.1,0-0.2,0c-0.2,0-0.3,0-0.4,0.1
							c-0.1,0.1-0.2,0.2-0.2,0.4H109.7z M111.7,112.4c0,0-0.1,0.1-0.1,0.1c-0.1,0-0.1,0-0.2,0c-0.1,0-0.1,0-0.2,0s-0.1,0-0.2,0
							c-0.1,0-0.1,0-0.2,0c-0.1,0-0.1,0-0.2,0.1c0,0-0.1,0.1-0.1,0.1s0,0.1,0,0.2c0,0.1,0,0.1,0,0.2c0,0.1,0.1,0.1,0.1,0.1
							c0,0,0.1,0.1,0.2,0.1s0.1,0,0.2,0c0.2,0,0.3,0,0.4-0.1c0.1-0.1,0.2-0.1,0.2-0.2c0-0.1,0.1-0.2,0.1-0.2c0-0.1,0-0.1,0-0.2
							V112.4z"/>
						<path class="st27" d="M114.9,110.8v0.6h-0.6v1.5c0,0.1,0,0.2,0.1,0.3s0.1,0.1,0.3,0.1c0,0,0.1,0,0.1,0s0.1,0,0.1,0v0.7
							c-0.1,0-0.2,0-0.2,0c-0.1,0-0.2,0-0.3,0c-0.1,0-0.3,0-0.4,0c-0.1,0-0.2-0.1-0.3-0.1c-0.1-0.1-0.2-0.1-0.2-0.2
							c-0.1-0.1-0.1-0.2-0.1-0.4v-1.8h-0.5v-0.6h0.5v-0.9h0.9v0.9H114.9z"/>
						<path class="st27" d="M115.3,111.8c0-0.2,0.1-0.4,0.1-0.5c0.1-0.1,0.2-0.2,0.3-0.3c0.1-0.1,0.3-0.1,0.5-0.2s0.3-0.1,0.5-0.1
							c0.2,0,0.3,0,0.5,0c0.2,0,0.3,0.1,0.4,0.1c0.1,0.1,0.2,0.2,0.3,0.3s0.1,0.3,0.1,0.5v1.6c0,0.1,0,0.3,0,0.4
							c0,0.1,0,0.2,0.1,0.3h-0.9c0,0,0-0.1,0-0.1c0,0,0-0.1,0-0.2c-0.1,0.1-0.3,0.2-0.5,0.3s-0.4,0.1-0.6,0.1c-0.1,0-0.3,0-0.4-0.1
							c-0.1,0-0.2-0.1-0.3-0.2c-0.1-0.1-0.2-0.2-0.2-0.3c-0.1-0.1-0.1-0.3-0.1-0.4c0-0.2,0-0.3,0.1-0.4c0.1-0.1,0.1-0.2,0.2-0.3
							c0.1-0.1,0.2-0.1,0.3-0.2s0.3-0.1,0.4-0.1c0.1,0,0.3,0,0.4,0s0.2,0,0.3-0.1c0.1,0,0.2-0.1,0.2-0.1c0.1,0,0.1-0.1,0.1-0.2
							c0-0.1,0-0.2,0-0.2c0-0.1-0.1-0.1-0.1-0.1c0,0-0.1,0-0.2-0.1c-0.1,0-0.1,0-0.2,0c-0.2,0-0.3,0-0.4,0.1
							c-0.1,0.1-0.2,0.2-0.2,0.4H115.3z M117.3,112.4c0,0-0.1,0.1-0.1,0.1c-0.1,0-0.1,0-0.2,0c-0.1,0-0.1,0-0.2,0s-0.1,0-0.2,0
							c-0.1,0-0.1,0-0.2,0c-0.1,0-0.1,0-0.2,0.1c0,0-0.1,0.1-0.1,0.1s0,0.1,0,0.2c0,0.1,0,0.1,0,0.2c0,0.1,0.1,0.1,0.1,0.1
							c0,0,0.1,0.1,0.2,0.1s0.1,0,0.2,0c0.2,0,0.3,0,0.4-0.1c0.1-0.1,0.2-0.1,0.2-0.2c0-0.1,0.1-0.2,0.1-0.2c0-0.1,0-0.1,0-0.2
							V112.4z"/>
						<path class="st27" d="M121.3,110.8v0.4h0c0.1-0.2,0.2-0.3,0.4-0.4c0.2-0.1,0.3-0.1,0.5-0.1c0.2,0,0.4,0,0.6,0.1
							c0.1,0.1,0.3,0.1,0.3,0.3s0.1,0.2,0.2,0.4c0,0.2,0.1,0.3,0.1,0.5v1.9h-0.9v-1.8c0-0.3,0-0.4-0.1-0.6c-0.1-0.1-0.2-0.2-0.4-0.2
							c-0.2,0-0.4,0.1-0.5,0.2c-0.1,0.1-0.2,0.4-0.2,0.7v1.6h-0.9v-3.1H121.3z"/>
						<path class="st27" d="M124.9,113.2c0.1,0.1,0.3,0.2,0.6,0.2c0.2,0,0.3,0,0.4-0.1c0.1-0.1,0.2-0.2,0.2-0.3h0.8
							c-0.1,0.4-0.3,0.6-0.6,0.8c-0.2,0.2-0.5,0.2-0.9,0.2c-0.2,0-0.5,0-0.7-0.1c-0.2-0.1-0.4-0.2-0.5-0.3c-0.1-0.1-0.2-0.3-0.3-0.5
							c-0.1-0.2-0.1-0.4-0.1-0.7c0-0.2,0-0.4,0.1-0.6c0.1-0.2,0.2-0.4,0.3-0.5c0.1-0.1,0.3-0.3,0.5-0.3c0.2-0.1,0.4-0.1,0.6-0.1
							c0.3,0,0.5,0.1,0.7,0.2c0.2,0.1,0.4,0.2,0.5,0.4s0.2,0.4,0.3,0.6c0.1,0.2,0.1,0.5,0.1,0.7h-2.2
							C124.7,112.8,124.8,113,124.9,113.2z M125.9,111.5c-0.1-0.1-0.3-0.2-0.5-0.2c-0.1,0-0.2,0-0.3,0.1s-0.2,0.1-0.2,0.2
							c-0.1,0.1-0.1,0.1-0.1,0.2s0,0.1,0,0.2h1.4C126.1,111.8,126,111.6,125.9,111.5z"/>
						<path class="st27" d="M129.2,110.8v0.6h-0.6v1.5c0,0.1,0,0.2,0.1,0.3s0.1,0.1,0.3,0.1c0,0,0.1,0,0.1,0s0.1,0,0.1,0v0.7
							c-0.1,0-0.2,0-0.2,0c-0.1,0-0.2,0-0.3,0c-0.1,0-0.3,0-0.4,0c-0.1,0-0.2-0.1-0.3-0.1c-0.1-0.1-0.2-0.1-0.2-0.2
							c-0.1-0.1-0.1-0.2-0.1-0.4v-1.8h-0.5v-0.6h0.5v-0.9h0.9v0.9H129.2z"/>
						<path class="st27" d="M132.2,113.9l-0.6-2.1h0l-0.5,2.1h-0.9l-1-3.1h0.9l0.6,2.1h0l0.5-2.1h0.8l0.5,2.1h0l0.6-2.1h0.9l-1,3.1
							H132.2z"/>
						<path class="st27" d="M134.5,111.7c0.1-0.2,0.2-0.4,0.3-0.5c0.1-0.1,0.3-0.3,0.5-0.3c0.2-0.1,0.4-0.1,0.7-0.1s0.5,0,0.7,0.1
							s0.4,0.2,0.5,0.3c0.1,0.1,0.2,0.3,0.3,0.5s0.1,0.4,0.1,0.7s0,0.5-0.1,0.7s-0.2,0.4-0.3,0.5c-0.1,0.1-0.3,0.3-0.5,0.3
							s-0.4,0.1-0.7,0.1s-0.5,0-0.7-0.1c-0.2-0.1-0.4-0.2-0.5-0.3c-0.1-0.1-0.2-0.3-0.3-0.5s-0.1-0.4-0.1-0.7
							S134.4,111.9,134.5,111.7z M135.2,112.7c0,0.1,0.1,0.2,0.1,0.3c0.1,0.1,0.1,0.2,0.2,0.2c0.1,0.1,0.2,0.1,0.4,0.1
							c0.1,0,0.3,0,0.4-0.1c0.1-0.1,0.2-0.1,0.2-0.2c0.1-0.1,0.1-0.2,0.1-0.3c0-0.1,0-0.2,0-0.4s0-0.2,0-0.4c0-0.1-0.1-0.2-0.1-0.3
							c-0.1-0.1-0.1-0.2-0.2-0.2c-0.1-0.1-0.2-0.1-0.4-0.1c-0.1,0-0.3,0-0.4,0.1c-0.1,0.1-0.2,0.1-0.2,0.2c-0.1,0.1-0.1,0.2-0.1,0.3
							c0,0.1,0,0.2,0,0.4S135.2,112.6,135.2,112.7z"/>
						<path class="st27" d="M138.9,110.8v0.6h0c0-0.1,0.1-0.2,0.2-0.3c0.1-0.1,0.1-0.2,0.2-0.2s0.2-0.1,0.3-0.1c0.1,0,0.2,0,0.3,0
							c0.1,0,0.1,0,0.2,0v0.8c0,0-0.1,0-0.1,0c-0.1,0-0.1,0-0.2,0c-0.2,0-0.3,0-0.4,0.1c-0.1,0.1-0.2,0.1-0.3,0.2
							c-0.1,0.1-0.1,0.2-0.1,0.3c0,0.1,0,0.2,0,0.4v1.4h-0.9v-3.1H138.9z"/>
						<path class="st27" d="M141.4,109.6v2.3l1.1-1.1h1l-1.2,1.1l1.3,2h-1l-0.9-1.4l-0.3,0.3v1.1h-0.9v-4.3H141.4z"/>
						<path class="st27" d="M144.9,113v0.9c0,0.1,0,0.3-0.1,0.4c-0.1,0.1-0.1,0.2-0.2,0.3s-0.2,0.2-0.3,0.2
							c-0.1,0.1-0.2,0.1-0.4,0.1v-0.4c0.1,0,0.1,0,0.2-0.1s0.1-0.1,0.1-0.1c0-0.1,0.1-0.1,0.1-0.2c0-0.1,0-0.1,0-0.2h-0.4V113H144.9
							z"/>
						<path class="st27" d="M98.6,116.7v0.4h0c0.1-0.2,0.2-0.3,0.4-0.4c0.2-0.1,0.3-0.1,0.5-0.1c0.2,0,0.4,0,0.5,0.1
							c0.2,0.1,0.3,0.2,0.4,0.4c0.1-0.1,0.2-0.3,0.4-0.4c0.2-0.1,0.3-0.2,0.6-0.2c0.2,0,0.3,0,0.5,0.1c0.1,0,0.3,0.1,0.4,0.2
							s0.2,0.2,0.2,0.3s0.1,0.3,0.1,0.5v2.1h-0.9V118c0-0.1,0-0.2,0-0.3c0-0.1,0-0.2-0.1-0.2c0-0.1-0.1-0.1-0.2-0.2
							s-0.2-0.1-0.3-0.1c-0.1,0-0.2,0-0.3,0.1c-0.1,0-0.1,0.1-0.2,0.2c0,0.1-0.1,0.2-0.1,0.3c0,0.1,0,0.2,0,0.3v1.7h-0.9v-1.7
							c0-0.1,0-0.2,0-0.3c0-0.1,0-0.2-0.1-0.2c0-0.1-0.1-0.1-0.1-0.2s-0.2-0.1-0.3-0.1c0,0-0.1,0-0.2,0c-0.1,0-0.1,0.1-0.2,0.1
							s-0.1,0.1-0.2,0.2s-0.1,0.2-0.1,0.4v1.8h-0.9v-3.1H98.6z"/>
						<path class="st27" d="M104.1,119.1c0.1,0.1,0.3,0.2,0.6,0.2c0.2,0,0.3,0,0.4-0.1c0.1-0.1,0.2-0.2,0.2-0.3h0.8
							c-0.1,0.4-0.3,0.6-0.6,0.8c-0.2,0.2-0.5,0.2-0.9,0.2c-0.2,0-0.5,0-0.7-0.1c-0.2-0.1-0.4-0.2-0.5-0.3c-0.1-0.1-0.2-0.3-0.3-0.5
							c-0.1-0.2-0.1-0.4-0.1-0.7c0-0.2,0-0.4,0.1-0.6c0.1-0.2,0.2-0.4,0.3-0.5c0.1-0.1,0.3-0.3,0.5-0.3c0.2-0.1,0.4-0.1,0.6-0.1
							c0.3,0,0.5,0.1,0.7,0.2c0.2,0.1,0.4,0.2,0.5,0.4s0.2,0.4,0.3,0.6c0.1,0.2,0.1,0.5,0.1,0.7h-2.2
							C103.9,118.7,104,118.9,104.1,119.1z M105.1,117.4c-0.1-0.1-0.3-0.2-0.5-0.2c-0.1,0-0.2,0-0.3,0.1s-0.2,0.1-0.2,0.2
							c-0.1,0.1-0.1,0.1-0.1,0.2s0,0.1,0,0.2h1.4C105.3,117.7,105.2,117.5,105.1,117.4z"/>
						<path class="st27" d="M108.1,117.3h-1.5v-0.6h2.6v0.6l-1.6,1.8h1.7v0.6h-2.9v-0.6L108.1,117.3z"/>
						<path class="st27" d="M111.2,117.3h-1.5v-0.6h2.6v0.6l-1.6,1.8h1.7v0.6h-2.9v-0.6L111.2,117.3z"/>
						<path class="st27" d="M112.9,117.7c0-0.2,0.1-0.4,0.1-0.5c0.1-0.1,0.2-0.2,0.3-0.3c0.1-0.1,0.3-0.1,0.5-0.2s0.3-0.1,0.5-0.1
							c0.2,0,0.3,0,0.5,0c0.2,0,0.3,0.1,0.4,0.1c0.1,0.1,0.2,0.2,0.3,0.3s0.1,0.3,0.1,0.5v1.6c0,0.1,0,0.3,0,0.4
							c0,0.1,0,0.2,0.1,0.3h-0.9c0,0,0-0.1,0-0.1c0,0,0-0.1,0-0.2c-0.1,0.1-0.3,0.2-0.5,0.3s-0.4,0.1-0.6,0.1c-0.1,0-0.3,0-0.4-0.1
							c-0.1,0-0.2-0.1-0.3-0.2c-0.1-0.1-0.2-0.2-0.2-0.3c-0.1-0.1-0.1-0.3-0.1-0.4c0-0.2,0-0.3,0.1-0.4c0.1-0.1,0.1-0.2,0.2-0.3
							c0.1-0.1,0.2-0.1,0.3-0.2s0.3-0.1,0.4-0.1c0.1,0,0.3,0,0.4,0s0.2,0,0.3-0.1c0.1,0,0.2-0.1,0.2-0.1c0.1,0,0.1-0.1,0.1-0.2
							c0-0.1,0-0.2,0-0.2c0-0.1-0.1-0.1-0.1-0.1c0,0-0.1,0-0.2-0.1c-0.1,0-0.1,0-0.2,0c-0.2,0-0.3,0-0.4,0.1
							c-0.1,0.1-0.2,0.2-0.2,0.4H112.9z M114.8,118.3c0,0-0.1,0.1-0.1,0.1c-0.1,0-0.1,0-0.2,0c-0.1,0-0.1,0-0.2,0s-0.1,0-0.2,0
							c-0.1,0-0.1,0-0.2,0c-0.1,0-0.1,0-0.2,0.1c0,0-0.1,0.1-0.1,0.1s0,0.1,0,0.2c0,0.1,0,0.1,0,0.2c0,0.1,0.1,0.1,0.1,0.1
							c0,0,0.1,0.1,0.2,0.1s0.1,0,0.2,0c0.2,0,0.3,0,0.4-0.1c0.1-0.1,0.2-0.1,0.2-0.2c0-0.1,0.1-0.2,0.1-0.2c0-0.1,0-0.1,0-0.2
							V118.3z"/>
						<path class="st27" d="M117.1,116.7v0.4h0c0.1-0.2,0.2-0.3,0.4-0.4c0.2-0.1,0.3-0.1,0.5-0.1c0.2,0,0.4,0,0.6,0.1
							c0.1,0.1,0.3,0.1,0.3,0.3s0.1,0.2,0.2,0.4c0,0.2,0.1,0.3,0.1,0.5v1.9h-0.9v-1.8c0-0.3,0-0.4-0.1-0.6c-0.1-0.1-0.2-0.2-0.4-0.2
							c-0.2,0-0.4,0.1-0.5,0.2c-0.1,0.1-0.2,0.4-0.2,0.7v1.6h-0.9v-3.1H117.1z"/>
						<path class="st27" d="M119.9,116.2v-0.7h0.9v0.7H119.9z M120.8,116.7v3.1h-0.9v-3.1H120.8z"/>
						<path class="st27" d="M122.2,116.7v0.4h0c0.1-0.2,0.2-0.3,0.4-0.4c0.2-0.1,0.3-0.1,0.5-0.1c0.2,0,0.4,0,0.6,0.1
							c0.1,0.1,0.3,0.1,0.3,0.3s0.1,0.2,0.2,0.4c0,0.2,0.1,0.3,0.1,0.5v1.9h-0.9v-1.8c0-0.3,0-0.4-0.1-0.6c-0.1-0.1-0.2-0.2-0.4-0.2
							c-0.2,0-0.4,0.1-0.5,0.2c-0.1,0.1-0.2,0.4-0.2,0.7v1.6h-0.9v-3.1H122.2z"/>
						<path class="st27" d="M125.9,119.1c0.1,0.1,0.3,0.2,0.6,0.2c0.2,0,0.3,0,0.4-0.1c0.1-0.1,0.2-0.2,0.2-0.3h0.8
							c-0.1,0.4-0.3,0.6-0.6,0.8c-0.2,0.2-0.5,0.2-0.9,0.2c-0.2,0-0.5,0-0.7-0.1c-0.2-0.1-0.4-0.2-0.5-0.3c-0.1-0.1-0.2-0.3-0.3-0.5
							c-0.1-0.2-0.1-0.4-0.1-0.7c0-0.2,0-0.4,0.1-0.6c0.1-0.2,0.2-0.4,0.3-0.5c0.1-0.1,0.3-0.3,0.5-0.3c0.2-0.1,0.4-0.1,0.6-0.1
							c0.3,0,0.5,0.1,0.7,0.2c0.2,0.1,0.4,0.2,0.5,0.4s0.2,0.4,0.3,0.6c0.1,0.2,0.1,0.5,0.1,0.7h-2.2
							C125.7,118.7,125.8,118.9,125.9,119.1z M126.9,117.4c-0.1-0.1-0.3-0.2-0.5-0.2c-0.1,0-0.2,0-0.3,0.1s-0.2,0.1-0.2,0.2
							c-0.1,0.1-0.1,0.1-0.1,0.2s0,0.1,0,0.2h1.4C127,117.7,127,117.5,126.9,117.4z"/>
						<path class="st27" d="M131.6,117.3c-0.1,0-0.2,0-0.3,0.1c-0.1,0.1-0.2,0.1-0.2,0.2c-0.1,0.1-0.1,0.2-0.1,0.3
							c0,0.1,0,0.2,0,0.4c0,0.1,0,0.2,0,0.3c0,0.1,0.1,0.2,0.1,0.3c0.1,0.1,0.1,0.2,0.2,0.2c0.1,0.1,0.2,0.1,0.3,0.1
							c0.2,0,0.4-0.1,0.5-0.2c0.1-0.1,0.2-0.3,0.2-0.5h0.8c-0.1,0.4-0.2,0.7-0.5,0.9c-0.3,0.2-0.6,0.3-1,0.3c-0.2,0-0.4,0-0.6-0.1
							c-0.2-0.1-0.4-0.2-0.5-0.3c-0.1-0.1-0.2-0.3-0.3-0.5c-0.1-0.2-0.1-0.4-0.1-0.6c0-0.2,0-0.5,0.1-0.7s0.2-0.4,0.3-0.5
							c0.1-0.2,0.3-0.3,0.5-0.4c0.2-0.1,0.4-0.1,0.7-0.1c0.2,0,0.4,0,0.5,0.1c0.2,0,0.3,0.1,0.5,0.2c0.1,0.1,0.2,0.2,0.3,0.4
							c0.1,0.1,0.1,0.3,0.1,0.5h-0.8C132.2,117.4,132,117.3,131.6,117.3z"/>
						<path class="st27" d="M133.5,117.7c0-0.2,0.1-0.4,0.1-0.5c0.1-0.1,0.2-0.2,0.3-0.3c0.1-0.1,0.3-0.1,0.5-0.2
							c0.2,0,0.3-0.1,0.5-0.1c0.2,0,0.3,0,0.5,0c0.2,0,0.3,0.1,0.4,0.1c0.1,0.1,0.2,0.2,0.3,0.3s0.1,0.3,0.1,0.5v1.6
							c0,0.1,0,0.3,0,0.4s0,0.2,0.1,0.3h-0.9c0,0,0-0.1,0-0.1c0,0,0-0.1,0-0.2c-0.1,0.1-0.3,0.2-0.5,0.3s-0.4,0.1-0.6,0.1
							c-0.1,0-0.3,0-0.4-0.1c-0.1,0-0.2-0.1-0.3-0.2c-0.1-0.1-0.2-0.2-0.2-0.3c-0.1-0.1-0.1-0.3-0.1-0.4c0-0.2,0-0.3,0.1-0.4
							c0.1-0.1,0.1-0.2,0.2-0.3c0.1-0.1,0.2-0.1,0.3-0.2s0.3-0.1,0.4-0.1c0.1,0,0.3,0,0.4,0c0.1,0,0.2,0,0.3-0.1
							c0.1,0,0.2-0.1,0.2-0.1c0.1,0,0.1-0.1,0.1-0.2c0-0.1,0-0.2,0-0.2c0-0.1-0.1-0.1-0.1-0.1c-0.1,0-0.1,0-0.2-0.1
							c-0.1,0-0.1,0-0.2,0c-0.2,0-0.3,0-0.4,0.1s-0.2,0.2-0.2,0.4H133.5z M135.5,118.3c0,0-0.1,0.1-0.1,0.1c-0.1,0-0.1,0-0.2,0
							c-0.1,0-0.1,0-0.2,0s-0.1,0-0.2,0c-0.1,0-0.1,0-0.2,0c-0.1,0-0.1,0-0.2,0.1c0,0-0.1,0.1-0.1,0.1c0,0.1,0,0.1,0,0.2
							c0,0.1,0,0.1,0,0.2c0,0.1,0.1,0.1,0.1,0.1c0,0,0.1,0.1,0.2,0.1c0.1,0,0.1,0,0.2,0c0.2,0,0.3,0,0.4-0.1
							c0.1-0.1,0.2-0.1,0.2-0.2c0-0.1,0.1-0.2,0.1-0.2s0-0.1,0-0.2V118.3z"/>
						<path class="st27" d="M137.8,116.7v0.6h0c0-0.1,0.1-0.2,0.2-0.3c0.1-0.1,0.1-0.2,0.2-0.2s0.2-0.1,0.3-0.1c0.1,0,0.2,0,0.3,0
							c0.1,0,0.1,0,0.2,0v0.8c0,0-0.1,0-0.1,0c-0.1,0-0.1,0-0.2,0c-0.2,0-0.3,0-0.4,0.1c-0.1,0.1-0.2,0.1-0.3,0.2
							c-0.1,0.1-0.1,0.2-0.1,0.3c0,0.1,0,0.2,0,0.4v1.4H137v-3.1H137.8z"/>
						<path class="st27" d="M141.4,119.4c-0.1,0.2-0.2,0.3-0.4,0.4s-0.3,0.1-0.5,0.1c-0.2,0-0.4,0-0.6-0.1c-0.2-0.1-0.3-0.2-0.4-0.4
							s-0.2-0.3-0.3-0.5c-0.1-0.2-0.1-0.4-0.1-0.6c0-0.2,0-0.4,0.1-0.6c0.1-0.2,0.1-0.4,0.3-0.5c0.1-0.1,0.3-0.3,0.4-0.4
							s0.4-0.1,0.6-0.1c0.2,0,0.4,0,0.5,0.1s0.3,0.2,0.4,0.3h0v-1.6h0.9v4.3h-0.8L141.4,119.4L141.4,119.4z M141.4,117.9
							c0-0.1-0.1-0.2-0.1-0.3c-0.1-0.1-0.1-0.2-0.2-0.2c-0.1-0.1-0.2-0.1-0.3-0.1s-0.3,0-0.4,0.1c-0.1,0.1-0.2,0.1-0.2,0.2
							c-0.1,0.1-0.1,0.2-0.1,0.3s0,0.2,0,0.4c0,0.1,0,0.2,0,0.4s0.1,0.2,0.1,0.3c0.1,0.1,0.1,0.2,0.2,0.2c0.1,0.1,0.2,0.1,0.3,0.1
							c0.1,0,0.3,0,0.4-0.1c0.1-0.1,0.2-0.1,0.2-0.2c0.1-0.1,0.1-0.2,0.1-0.3c0-0.1,0-0.2,0-0.4S141.4,118,141.4,117.9z"/>
						<path class="st27" d="M100,125.3c-0.1,0.2-0.2,0.3-0.4,0.4c-0.2,0.1-0.3,0.1-0.5,0.1c-0.2,0-0.4,0-0.6-0.1
							c-0.2-0.1-0.3-0.2-0.4-0.4c-0.1-0.2-0.2-0.3-0.3-0.5c-0.1-0.2-0.1-0.4-0.1-0.6c0-0.2,0-0.4,0.1-0.6c0.1-0.2,0.1-0.4,0.3-0.5
							c0.1-0.1,0.3-0.3,0.4-0.4s0.4-0.1,0.6-0.1c0.2,0,0.4,0,0.5,0.1s0.3,0.2,0.4,0.3h0v-1.6h0.9v4.3H100L100,125.3L100,125.3z
							 M99.9,123.8c0-0.1-0.1-0.2-0.1-0.3c-0.1-0.1-0.1-0.2-0.2-0.2c-0.1-0.1-0.2-0.1-0.3-0.1s-0.3,0-0.4,0.1
							c-0.1,0.1-0.2,0.1-0.2,0.2c-0.1,0.1-0.1,0.2-0.1,0.3s0,0.2,0,0.4c0,0.1,0,0.2,0,0.4s0.1,0.2,0.1,0.3s0.1,0.2,0.2,0.2
							c0.1,0.1,0.2,0.1,0.3,0.1c0.1,0,0.3,0,0.4-0.1c0.1-0.1,0.2-0.1,0.2-0.2c0.1-0.1,0.1-0.2,0.1-0.3c0-0.1,0-0.2,0-0.4
							S100,123.9,99.9,123.8z"/>
						<path class="st27" d="M102.4,125c0.1,0.1,0.3,0.2,0.6,0.2c0.2,0,0.3,0,0.4-0.1c0.1-0.1,0.2-0.2,0.2-0.3h0.8
							c-0.1,0.4-0.3,0.6-0.6,0.8c-0.2,0.2-0.5,0.2-0.9,0.2c-0.2,0-0.5,0-0.7-0.1c-0.2-0.1-0.4-0.2-0.5-0.3c-0.1-0.1-0.2-0.3-0.3-0.5
							c-0.1-0.2-0.1-0.4-0.1-0.7c0-0.2,0-0.4,0.1-0.6c0.1-0.2,0.2-0.4,0.3-0.5c0.1-0.1,0.3-0.3,0.5-0.3c0.2-0.1,0.4-0.1,0.6-0.1
							c0.3,0,0.5,0.1,0.7,0.2c0.2,0.1,0.4,0.2,0.5,0.4s0.2,0.4,0.3,0.6c0.1,0.2,0.1,0.5,0.1,0.7h-2.2
							C102.2,124.6,102.2,124.8,102.4,125z M103.3,123.3c-0.1-0.1-0.3-0.2-0.5-0.2c-0.1,0-0.2,0-0.3,0.1s-0.2,0.1-0.2,0.2
							c-0.1,0.1-0.1,0.1-0.1,0.2s0,0.1,0,0.2h1.4C103.5,123.6,103.4,123.4,103.3,123.3z"/>
						<path class="st27" d="M105.7,122.6v0.4h0c0.1-0.2,0.2-0.3,0.4-0.4c0.2-0.1,0.3-0.1,0.5-0.1c0.2,0,0.5,0,0.6,0.1
							c0.2,0.1,0.3,0.2,0.4,0.4c0.1,0.2,0.2,0.3,0.3,0.5c0.1,0.2,0.1,0.4,0.1,0.6c0,0.2,0,0.4-0.1,0.6s-0.1,0.4-0.3,0.5
							c-0.1,0.1-0.3,0.3-0.4,0.4s-0.4,0.1-0.6,0.1c-0.2,0-0.4,0-0.5-0.1s-0.3-0.2-0.4-0.3h0v1.5h-0.9v-4.2H105.7z M106.8,125.1
							c0.1-0.1,0.2-0.1,0.2-0.2c0.1-0.1,0.1-0.2,0.1-0.3c0-0.1,0-0.2,0-0.4s0-0.2,0-0.4s-0.1-0.2-0.1-0.3c-0.1-0.1-0.1-0.2-0.2-0.2
							c-0.1-0.1-0.2-0.1-0.3-0.1c-0.1,0-0.3,0-0.4,0.1c-0.1,0.1-0.2,0.1-0.2,0.2c-0.1,0.1-0.1,0.2-0.1,0.3s0,0.2,0,0.4
							c0,0.1,0,0.2,0,0.4s0.1,0.2,0.1,0.3s0.1,0.2,0.2,0.2c0.1,0.1,0.2,0.1,0.3,0.1C106.6,125.1,106.7,125.1,106.8,125.1z"/>
						<path class="st27" d="M109.5,125c0.1,0.1,0.3,0.2,0.6,0.2c0.2,0,0.3,0,0.4-0.1c0.1-0.1,0.2-0.2,0.2-0.3h0.8
							c-0.1,0.4-0.3,0.6-0.6,0.8c-0.2,0.2-0.5,0.2-0.9,0.2c-0.2,0-0.5,0-0.7-0.1c-0.2-0.1-0.4-0.2-0.5-0.3c-0.1-0.1-0.2-0.3-0.3-0.5
							c-0.1-0.2-0.1-0.4-0.1-0.7c0-0.2,0-0.4,0.1-0.6c0.1-0.2,0.2-0.4,0.3-0.5c0.1-0.1,0.3-0.3,0.5-0.3c0.2-0.1,0.4-0.1,0.6-0.1
							c0.3,0,0.5,0.1,0.7,0.2c0.2,0.1,0.4,0.2,0.5,0.4s0.2,0.4,0.3,0.6c0.1,0.2,0.1,0.5,0.1,0.7h-2.2
							C109.3,124.6,109.3,124.8,109.5,125z M110.4,123.3c-0.1-0.1-0.3-0.2-0.5-0.2c-0.1,0-0.2,0-0.3,0.1s-0.2,0.1-0.2,0.2
							c-0.1,0.1-0.1,0.1-0.1,0.2s0,0.1,0,0.2h1.4C110.6,123.6,110.5,123.4,110.4,123.3z"/>
						<path class="st27" d="M112.8,122.6v0.4h0c0.1-0.2,0.2-0.3,0.4-0.4c0.2-0.1,0.3-0.1,0.5-0.1c0.2,0,0.4,0,0.6,0.1
							c0.1,0.1,0.3,0.1,0.3,0.3s0.1,0.2,0.2,0.4c0,0.2,0.1,0.3,0.1,0.5v1.9h-0.9v-1.8c0-0.3,0-0.4-0.1-0.6c-0.1-0.1-0.2-0.2-0.4-0.2
							c-0.2,0-0.4,0.1-0.5,0.2c-0.1,0.1-0.2,0.4-0.2,0.7v1.6H112v-3.1H112.8z"/>
						<path class="st27" d="M117.8,125.3c-0.1,0.2-0.2,0.3-0.4,0.4c-0.2,0.1-0.3,0.1-0.5,0.1c-0.2,0-0.4,0-0.6-0.1
							c-0.2-0.1-0.3-0.2-0.4-0.4c-0.1-0.2-0.2-0.3-0.3-0.5c-0.1-0.2-0.1-0.4-0.1-0.6c0-0.2,0-0.4,0.1-0.6c0.1-0.2,0.1-0.4,0.3-0.5
							c0.1-0.1,0.3-0.3,0.4-0.4s0.4-0.1,0.6-0.1c0.2,0,0.4,0,0.5,0.1s0.3,0.2,0.4,0.3h0v-1.6h0.9v4.3h-0.8L117.8,125.3L117.8,125.3z
							 M117.7,123.8c0-0.1-0.1-0.2-0.1-0.3c-0.1-0.1-0.1-0.2-0.2-0.2c-0.1-0.1-0.2-0.1-0.3-0.1s-0.3,0-0.4,0.1
							c-0.1,0.1-0.2,0.1-0.2,0.2c-0.1,0.1-0.1,0.2-0.1,0.3s0,0.2,0,0.4c0,0.1,0,0.2,0,0.4s0.1,0.2,0.1,0.3s0.1,0.2,0.2,0.2
							c0.1,0.1,0.2,0.1,0.3,0.1c0.1,0,0.3,0,0.4-0.1c0.1-0.1,0.2-0.1,0.2-0.2c0.1-0.1,0.1-0.2,0.1-0.3c0-0.1,0-0.2,0-0.4
							S117.7,123.9,117.7,123.8z"/>
						<path class="st27" d="M120.1,125c0.1,0.1,0.3,0.2,0.6,0.2c0.2,0,0.3,0,0.4-0.1c0.1-0.1,0.2-0.2,0.2-0.3h0.8
							c-0.1,0.4-0.3,0.6-0.6,0.8c-0.2,0.2-0.5,0.2-0.9,0.2c-0.2,0-0.5,0-0.7-0.1c-0.2-0.1-0.4-0.2-0.5-0.3c-0.1-0.1-0.2-0.3-0.3-0.5
							c-0.1-0.2-0.1-0.4-0.1-0.7c0-0.2,0-0.4,0.1-0.6c0.1-0.2,0.2-0.4,0.3-0.5c0.1-0.1,0.3-0.3,0.5-0.3c0.2-0.1,0.4-0.1,0.6-0.1
							c0.3,0,0.5,0.1,0.7,0.2c0.2,0.1,0.4,0.2,0.5,0.4s0.2,0.4,0.3,0.6c0.1,0.2,0.1,0.5,0.1,0.7h-2.2
							C119.9,124.6,120,124.8,120.1,125z M121.1,123.3c-0.1-0.1-0.3-0.2-0.5-0.2c-0.1,0-0.2,0-0.3,0.1s-0.2,0.1-0.2,0.2
							c-0.1,0.1-0.1,0.1-0.1,0.2s0,0.1,0,0.2h1.4C121.3,123.6,121.2,123.4,121.1,123.3z"/>
						<path class="st27" d="M123.5,122.6v0.4h0c0.1-0.2,0.2-0.3,0.4-0.4c0.2-0.1,0.3-0.1,0.5-0.1c0.2,0,0.4,0,0.6,0.1
							c0.1,0.1,0.3,0.1,0.3,0.3s0.1,0.2,0.2,0.4c0,0.2,0.1,0.3,0.1,0.5v1.9h-0.9v-1.8c0-0.3,0-0.4-0.1-0.6c-0.1-0.1-0.2-0.2-0.4-0.2
							c-0.2,0-0.4,0.1-0.5,0.2c-0.1,0.1-0.2,0.4-0.2,0.7v1.6h-0.9v-3.1H123.5z"/>
						<path class="st27" d="M127.9,122.6v0.6h-0.6v1.5c0,0.1,0,0.2,0.1,0.3s0.1,0.1,0.3,0.1c0,0,0.1,0,0.1,0s0.1,0,0.1,0v0.7
							c-0.1,0-0.2,0-0.2,0c-0.1,0-0.2,0-0.3,0c-0.1,0-0.3,0-0.4,0c-0.1,0-0.2-0.1-0.3-0.1c-0.1-0.1-0.2-0.1-0.2-0.2
							c-0.1-0.1-0.1-0.2-0.1-0.4v-1.8h-0.5v-0.6h0.5v-0.9h0.9v0.9H127.9z"/>
					</g>
				</g>
			</g>
		</g>
	</g>
</g>
<g>
	<g>
		<g>
			<g>
				<path class="st13" d="M120.1,55.5c0.1,0.1,0.2,0.1,0.4,0.1c0.1,0,0.2,0,0.3-0.1c0.1-0.1,0.1-0.1,0.2-0.2h0.5
					c-0.1,0.2-0.2,0.4-0.4,0.5c-0.2,0.1-0.4,0.2-0.6,0.2c-0.2,0-0.3,0-0.4-0.1c-0.1-0.1-0.2-0.1-0.3-0.2s-0.2-0.2-0.2-0.3
					c0-0.1-0.1-0.3-0.1-0.4c0-0.2,0-0.3,0.1-0.4c0.1-0.1,0.1-0.2,0.2-0.3c0.1-0.1,0.2-0.2,0.3-0.2c0.1-0.1,0.3-0.1,0.4-0.1
					c0.2,0,0.3,0,0.5,0.1c0.1,0.1,0.2,0.2,0.3,0.3s0.1,0.2,0.2,0.4c0,0.1,0.1,0.3,0,0.5H120C120,55.3,120,55.4,120.1,55.5z
					 M120.8,54.4c-0.1-0.1-0.2-0.1-0.3-0.1c-0.1,0-0.2,0-0.2,0c-0.1,0-0.1,0.1-0.1,0.1c0,0-0.1,0.1-0.1,0.1c0,0,0,0.1,0,0.1h0.9
					C120.9,54.6,120.8,54.5,120.8,54.4z"/>
				<path class="st13" d="M121.7,53.9c0.1-0.2,0.1-0.3,0.2-0.4c0.1-0.1,0.2-0.2,0.3-0.2s0.3-0.1,0.4-0.1c0.1,0,0.3,0,0.4,0.1
					s0.2,0.1,0.3,0.2s0.2,0.3,0.2,0.4c0.1,0.2,0.1,0.4,0.1,0.7c0,0.3,0,0.5-0.1,0.7c-0.1,0.2-0.1,0.3-0.2,0.5
					c-0.1,0.1-0.2,0.2-0.3,0.2c-0.1,0-0.3,0.1-0.4,0.1c-0.1,0-0.3,0-0.4-0.1c-0.1,0-0.2-0.1-0.3-0.2c-0.1-0.1-0.2-0.3-0.2-0.5
					c-0.1-0.2-0.1-0.4-0.1-0.7C121.7,54.3,121.7,54.1,121.7,53.9z M122.2,54.9c0,0.1,0,0.2,0,0.3s0.1,0.2,0.1,0.3
					c0.1,0.1,0.1,0.1,0.3,0.1c0.1,0,0.2,0,0.3-0.1c0.1-0.1,0.1-0.2,0.1-0.3c0-0.1,0-0.2,0-0.3s0-0.2,0-0.3c0,0,0-0.1,0-0.2
					c0-0.1,0-0.1,0-0.2c0-0.1,0-0.1,0-0.2c0-0.1,0-0.1-0.1-0.2c0-0.1-0.1-0.1-0.1-0.1c-0.1,0-0.1-0.1-0.2-0.1c-0.1,0-0.1,0-0.2,0.1
					c-0.1,0-0.1,0.1-0.1,0.1c0,0.1-0.1,0.1-0.1,0.2c0,0.1,0,0.1,0,0.2s0,0.1,0,0.2c0,0.1,0,0.1,0,0.2
					C122.2,54.7,122.2,54.8,122.2,54.9z"/>
				<path class="st13" d="M124,54.6c0-0.1,0-0.2,0.1-0.3s0.1-0.2,0.2-0.2c0.1-0.1,0.2-0.1,0.3-0.1c0.1,0,0.2,0,0.3,0
					c0.1,0,0.2,0,0.3,0s0.2,0,0.3,0.1c0.1,0,0.2,0.1,0.2,0.2c0.1,0.1,0.1,0.2,0.1,0.3v1.1c0,0.1,0,0.2,0,0.3c0,0.1,0,0.1,0.1,0.2
					h-0.6c0,0,0-0.1,0-0.1s0-0.1,0-0.1c-0.1,0.1-0.2,0.2-0.3,0.2s-0.2,0.1-0.4,0.1c-0.1,0-0.2,0-0.3,0c-0.1,0-0.2-0.1-0.2-0.1
					s-0.1-0.1-0.1-0.2c0-0.1-0.1-0.2-0.1-0.3c0-0.1,0-0.2,0.1-0.3c0-0.1,0.1-0.1,0.2-0.2c0.1,0,0.1-0.1,0.2-0.1s0.2,0,0.3-0.1
					c0.1,0,0.2,0,0.3,0c0.1,0,0.2,0,0.2,0c0.1,0,0.1,0,0.2-0.1c0,0,0.1-0.1,0.1-0.1c0-0.1,0-0.1,0-0.1s0-0.1-0.1-0.1
					c0,0-0.1,0-0.1,0c0,0-0.1,0-0.1,0c-0.1,0-0.2,0-0.3,0.1s-0.1,0.1-0.1,0.2H124z M125.3,55C125.3,55,125.3,55.1,125.3,55
					c-0.1,0.1-0.2,0.1-0.2,0.1c0,0-0.1,0-0.1,0c0,0-0.1,0-0.1,0c0,0-0.1,0-0.1,0c0,0-0.1,0-0.1,0.1c0,0-0.1,0.1-0.1,0.1
					c0,0,0,0.1,0,0.1c0,0.1,0,0.1,0,0.1c0,0,0,0.1,0.1,0.1c0,0,0.1,0,0.1,0c0,0,0.1,0,0.1,0c0.1,0,0.2,0,0.3-0.1
					c0.1,0,0.1-0.1,0.1-0.1c0-0.1,0-0.1,0.1-0.2c0-0.1,0-0.1,0-0.1V55z"/>
			</g>
		</g>
	</g>
</g>
<g>
	<g>
		<g>
			<g>
				<path class="st13" d="M129.4,55.5c0.1,0.1,0.2,0.1,0.4,0.1c0.1,0,0.2,0,0.3-0.1c0.1-0.1,0.1-0.1,0.2-0.2h0.5
					c-0.1,0.2-0.2,0.4-0.4,0.5c-0.2,0.1-0.4,0.2-0.6,0.2c-0.2,0-0.3,0-0.4-0.1c-0.1-0.1-0.2-0.1-0.3-0.2s-0.2-0.2-0.2-0.3
					c0-0.1-0.1-0.3-0.1-0.4c0-0.2,0-0.3,0.1-0.4c0.1-0.1,0.1-0.2,0.2-0.3c0.1-0.1,0.2-0.2,0.3-0.2c0.1-0.1,0.3-0.1,0.4-0.1
					c0.2,0,0.3,0,0.5,0.1c0.1,0.1,0.2,0.2,0.3,0.3s0.1,0.2,0.2,0.4c0,0.1,0.1,0.3,0,0.5h-1.5C129.3,55.3,129.3,55.4,129.4,55.5z
					 M130.1,54.4c-0.1-0.1-0.2-0.1-0.3-0.1c-0.1,0-0.2,0-0.2,0c-0.1,0-0.1,0.1-0.1,0.1c0,0-0.1,0.1-0.1,0.1c0,0,0,0.1,0,0.1h0.9
					C130.2,54.6,130.1,54.5,130.1,54.4z"/>
				<path class="st13" d="M131.1,53.9c0.1-0.2,0.1-0.3,0.2-0.4c0.1-0.1,0.2-0.2,0.3-0.2s0.3-0.1,0.4-0.1c0.1,0,0.3,0,0.4,0.1
					s0.2,0.1,0.3,0.2s0.2,0.3,0.2,0.4c0.1,0.2,0.1,0.4,0.1,0.7c0,0.3,0,0.5-0.1,0.7c-0.1,0.2-0.1,0.3-0.2,0.5
					c-0.1,0.1-0.2,0.2-0.3,0.2c-0.1,0-0.3,0.1-0.4,0.1c-0.1,0-0.3,0-0.4-0.1c-0.1,0-0.2-0.1-0.3-0.2c-0.1-0.1-0.2-0.3-0.2-0.5
					c-0.1-0.2-0.1-0.4-0.1-0.7C131,54.3,131,54.1,131.1,53.9z M131.6,54.9c0,0.1,0,0.2,0,0.3s0.1,0.2,0.1,0.3
					c0.1,0.1,0.1,0.1,0.3,0.1c0.1,0,0.2,0,0.3-0.1c0.1-0.1,0.1-0.2,0.1-0.3c0-0.1,0-0.2,0-0.3s0-0.2,0-0.3c0,0,0-0.1,0-0.2
					c0-0.1,0-0.1,0-0.2c0-0.1,0-0.1,0-0.2c0-0.1,0-0.1-0.1-0.2c0-0.1-0.1-0.1-0.1-0.1c-0.1,0-0.1-0.1-0.2-0.1c-0.1,0-0.1,0-0.2,0.1
					c-0.1,0-0.1,0.1-0.1,0.1c0,0.1-0.1,0.1-0.1,0.2c0,0.1,0,0.1,0,0.2s0,0.1,0,0.2c0,0.1,0,0.1,0,0.2
					C131.5,54.7,131.6,54.8,131.6,54.9z"/>
				<path class="st13" d="M133.9,53.2v1h0c0.1-0.1,0.2-0.2,0.3-0.2c0.1,0,0.2-0.1,0.4-0.1c0.1,0,0.2,0,0.3,0.1
					c0.1,0,0.2,0.1,0.3,0.2c0.1,0.1,0.1,0.2,0.2,0.3c0.1,0.1,0.1,0.3,0.1,0.5s0,0.4-0.1,0.5s-0.1,0.2-0.2,0.3
					c-0.1,0.1-0.2,0.2-0.3,0.2c-0.1,0-0.2,0.1-0.3,0.1c-0.2,0-0.3,0-0.4-0.1c-0.1,0-0.2-0.1-0.3-0.2h0V56h-0.5v-2.9H133.9z
					 M134.8,54.7c0-0.1,0-0.2-0.1-0.2c0-0.1-0.1-0.1-0.2-0.1c-0.1,0-0.1-0.1-0.2-0.1c-0.1,0-0.2,0-0.2,0.1c-0.1,0-0.1,0.1-0.2,0.1
					s-0.1,0.1-0.1,0.2s0,0.2,0,0.3c0,0.1,0,0.2,0,0.2s0,0.2,0.1,0.2s0.1,0.1,0.2,0.1c0.1,0,0.1,0.1,0.2,0.1c0.1,0,0.2,0,0.2-0.1
					c0.1,0,0.1-0.1,0.2-0.1c0-0.1,0.1-0.1,0.1-0.2s0-0.2,0-0.2C134.9,54.9,134.8,54.8,134.8,54.7z"/>
			</g>
		</g>
	</g>
</g>
<g>
	<g>
		<g>
			<g>
				<path class="st13" d="M262.1,55.5c0.1,0.1,0.2,0.1,0.4,0.1c0.1,0,0.2,0,0.3-0.1s0.1-0.1,0.2-0.2h0.5c-0.1,0.2-0.2,0.4-0.4,0.5
					c-0.2,0.1-0.4,0.2-0.6,0.2c-0.2,0-0.3,0-0.4-0.1c-0.1-0.1-0.2-0.1-0.3-0.2s-0.2-0.2-0.2-0.3c0-0.1-0.1-0.3-0.1-0.4
					c0-0.2,0-0.3,0.1-0.4c0.1-0.1,0.1-0.2,0.2-0.3c0.1-0.1,0.2-0.2,0.3-0.2c0.1-0.1,0.3-0.1,0.4-0.1c0.2,0,0.3,0,0.5,0.1
					c0.1,0.1,0.2,0.2,0.3,0.3s0.1,0.2,0.2,0.4c0,0.1,0,0.3,0,0.5h-1.5C261.9,55.3,262,55.4,262.1,55.5z M262.7,54.4
					c-0.1-0.1-0.2-0.1-0.3-0.1c-0.1,0-0.2,0-0.2,0c-0.1,0-0.1,0.1-0.1,0.1c0,0-0.1,0.1-0.1,0.1c0,0,0,0.1,0,0.1h0.9
					C262.8,54.6,262.8,54.5,262.7,54.4z"/>
				<path class="st13" d="M263.7,53.9c0.1-0.2,0.1-0.3,0.2-0.4s0.2-0.2,0.3-0.2c0.1,0,0.3-0.1,0.4-0.1c0.1,0,0.3,0,0.4,0.1
					c0.1,0,0.2,0.1,0.3,0.2c0.1,0.1,0.2,0.3,0.2,0.4c0.1,0.2,0.1,0.4,0.1,0.7c0,0.3,0,0.5-0.1,0.7c-0.1,0.2-0.1,0.3-0.2,0.5
					c-0.1,0.1-0.2,0.2-0.3,0.2c-0.1,0-0.3,0.1-0.4,0.1c-0.1,0-0.3,0-0.4-0.1c-0.1,0-0.2-0.1-0.3-0.2c-0.1-0.1-0.2-0.3-0.2-0.5
					c-0.1-0.2-0.1-0.4-0.1-0.7C263.6,54.3,263.6,54.1,263.7,53.9z M264.2,54.9c0,0.1,0,0.2,0.1,0.3c0,0.1,0.1,0.2,0.1,0.3
					c0.1,0.1,0.1,0.1,0.3,0.1c0.1,0,0.2,0,0.3-0.1c0.1-0.1,0.1-0.2,0.1-0.3s0-0.2,0-0.3s0-0.2,0-0.3c0,0,0-0.1,0-0.2
					c0-0.1,0-0.1,0-0.2s0-0.1,0-0.2c0-0.1,0-0.1-0.1-0.2c0-0.1-0.1-0.1-0.1-0.1c-0.1,0-0.1-0.1-0.2-0.1s-0.1,0-0.2,0.1
					c-0.1,0-0.1,0.1-0.1,0.1c0,0.1-0.1,0.1-0.1,0.2c0,0.1,0,0.1,0,0.2s0,0.1,0,0.2c0,0.1,0,0.1,0,0.2
					C264.2,54.7,264.2,54.8,264.2,54.9z"/>
				<path class="st13" d="M265.9,54.6c0-0.1,0-0.2,0.1-0.3s0.1-0.2,0.2-0.2c0.1-0.1,0.2-0.1,0.3-0.1s0.2,0,0.3,0c0.1,0,0.2,0,0.3,0
					c0.1,0,0.2,0,0.3,0.1c0.1,0,0.2,0.1,0.2,0.2c0.1,0.1,0.1,0.2,0.1,0.3v1.1c0,0.1,0,0.2,0,0.3c0,0.1,0,0.1,0.1,0.2h-0.6
					c0,0,0-0.1,0-0.1s0-0.1,0-0.1c-0.1,0.1-0.2,0.2-0.3,0.2s-0.2,0.1-0.4,0.1c-0.1,0-0.2,0-0.3,0c-0.1,0-0.2-0.1-0.2-0.1
					s-0.1-0.1-0.2-0.2c0-0.1-0.1-0.2-0.1-0.3c0-0.1,0-0.2,0.1-0.3c0-0.1,0.1-0.1,0.2-0.2c0.1,0,0.1-0.1,0.2-0.1s0.2,0,0.3-0.1
					c0.1,0,0.2,0,0.3,0c0.1,0,0.2,0,0.2,0c0.1,0,0.1,0,0.2-0.1c0,0,0.1-0.1,0.1-0.1c0-0.1,0-0.1,0-0.1c0,0,0-0.1-0.1-0.1
					c0,0-0.1,0-0.1,0c0,0-0.1,0-0.1,0c-0.1,0-0.2,0-0.3,0.1s-0.1,0.1-0.1,0.2H265.9z M267.3,55C267.2,55,267.2,55.1,267.3,55
					c-0.1,0.1-0.2,0.1-0.2,0.1c0,0-0.1,0-0.1,0c0,0-0.1,0-0.1,0c0,0-0.1,0-0.1,0c0,0-0.1,0-0.1,0.1c0,0-0.1,0.1-0.1,0.1
					c0,0,0,0.1,0,0.1c0,0.1,0,0.1,0,0.1c0,0,0,0.1,0.1,0.1c0,0,0.1,0,0.1,0s0.1,0,0.1,0c0.1,0,0.2,0,0.3-0.1c0.1,0,0.1-0.1,0.1-0.1
					c0-0.1,0-0.1,0.1-0.2c0-0.1,0-0.1,0-0.1V55z"/>
			</g>
		</g>
	</g>
</g>
<g>
	<g>
		<g>
			<g>
				<path class="st13" d="M164.9,63.6c0.1,0.1,0.2,0.1,0.4,0.1c0.1,0,0.2,0,0.3-0.1c0.1-0.1,0.1-0.1,0.2-0.2h0.5
					c-0.1,0.2-0.2,0.4-0.4,0.5c-0.2,0.1-0.4,0.2-0.6,0.2c-0.2,0-0.3,0-0.4-0.1c-0.1-0.1-0.2-0.1-0.3-0.2s-0.2-0.2-0.2-0.3
					c0-0.1-0.1-0.3-0.1-0.4c0-0.2,0-0.3,0.1-0.4c0.1-0.1,0.1-0.2,0.2-0.3c0.1-0.1,0.2-0.2,0.3-0.2c0.1-0.1,0.3-0.1,0.4-0.1
					c0.2,0,0.3,0,0.5,0.1c0.1,0.1,0.2,0.2,0.3,0.3s0.1,0.2,0.2,0.4c0,0.1,0.1,0.3,0,0.5h-1.5C164.8,63.4,164.8,63.5,164.9,63.6z
					 M165.5,62.5c-0.1-0.1-0.2-0.1-0.3-0.1c-0.1,0-0.2,0-0.2,0c-0.1,0-0.1,0.1-0.1,0.1c0,0-0.1,0.1-0.1,0.1c0,0,0,0.1,0,0.1h0.9
					C165.6,62.7,165.6,62.6,165.5,62.5z"/>
				<path class="st13" d="M167.4,64.1v-1.8h-0.7v-0.4c0.1,0,0.2,0,0.3,0c0.1,0,0.2,0,0.2-0.1s0.1-0.1,0.2-0.2
					c0.1-0.1,0.1-0.2,0.1-0.3h0.5v2.8H167.4z"/>
				<path class="st13" d="M168.8,62.7c0-0.1,0-0.2,0.1-0.3s0.1-0.2,0.2-0.2c0.1-0.1,0.2-0.1,0.3-0.1s0.2,0,0.3,0c0.1,0,0.2,0,0.3,0
					s0.2,0,0.3,0.1c0.1,0,0.2,0.1,0.2,0.2s0.1,0.2,0.1,0.3v1.1c0,0.1,0,0.2,0,0.3c0,0.1,0,0.1,0.1,0.2h-0.6c0,0,0-0.1,0-0.1
					c0,0,0-0.1,0-0.1c-0.1,0.1-0.2,0.2-0.3,0.2c-0.1,0-0.2,0.1-0.4,0.1c-0.1,0-0.2,0-0.3,0c-0.1,0-0.2-0.1-0.2-0.1
					c-0.1-0.1-0.1-0.1-0.1-0.2c0-0.1-0.1-0.2-0.1-0.3c0-0.1,0-0.2,0.1-0.3c0-0.1,0.1-0.1,0.2-0.2c0.1,0,0.1-0.1,0.2-0.1
					s0.2,0,0.3-0.1c0.1,0,0.2,0,0.3,0c0.1,0,0.2,0,0.2,0c0.1,0,0.1,0,0.2-0.1c0,0,0.1-0.1,0.1-0.1c0-0.1,0-0.1,0-0.1
					c0,0,0-0.1-0.1-0.1c0,0-0.1,0-0.1,0c0,0-0.1,0-0.1,0c-0.1,0-0.2,0-0.3,0.1c-0.1,0-0.1,0.1-0.1,0.2H168.8z M170.1,63.1
					C170.1,63.1,170,63.1,170.1,63.1c-0.1,0.1-0.2,0.1-0.2,0.1c0,0-0.1,0-0.1,0c0,0-0.1,0-0.1,0c0,0-0.1,0-0.1,0c0,0-0.1,0-0.1,0.1
					c0,0-0.1,0.1-0.1,0.1c0,0,0,0.1,0,0.1c0,0.1,0,0.1,0,0.1c0,0,0,0.1,0.1,0.1c0,0,0.1,0,0.1,0s0.1,0,0.1,0c0.1,0,0.2,0,0.3-0.1
					c0.1,0,0.1-0.1,0.1-0.1c0-0.1,0-0.1,0.1-0.2s0-0.1,0-0.1V63.1z"/>
			</g>
		</g>
	</g>
</g>
<g>
	<g>
		<g>
			<g>
				<path class="st13" d="M174.2,63.6c0.1,0.1,0.2,0.1,0.4,0.1c0.1,0,0.2,0,0.3-0.1s0.1-0.1,0.2-0.2h0.5c-0.1,0.2-0.2,0.4-0.4,0.5
					c-0.2,0.1-0.4,0.2-0.6,0.2c-0.2,0-0.3,0-0.4-0.1c-0.1-0.1-0.2-0.1-0.3-0.2s-0.2-0.2-0.2-0.3c0-0.1-0.1-0.3-0.1-0.4
					c0-0.2,0-0.3,0.1-0.4c0.1-0.1,0.1-0.2,0.2-0.3c0.1-0.1,0.2-0.2,0.3-0.2s0.3-0.1,0.4-0.1c0.2,0,0.3,0,0.5,0.1
					c0.1,0.1,0.2,0.2,0.3,0.3s0.1,0.2,0.2,0.4c0,0.1,0,0.3,0,0.5h-1.5C174.1,63.4,174.1,63.5,174.2,63.6z M174.9,62.5
					c-0.1-0.1-0.2-0.1-0.3-0.1c-0.1,0-0.2,0-0.2,0c-0.1,0-0.1,0.1-0.1,0.1c0,0-0.1,0.1-0.1,0.1c0,0,0,0.1,0,0.1h0.9
					C175,62.7,174.9,62.6,174.9,62.5z"/>
				<path class="st13" d="M176.7,64.1v-1.8H176v-0.4c0.1,0,0.2,0,0.3,0c0.1,0,0.2,0,0.2-0.1s0.1-0.1,0.2-0.2c0-0.1,0.1-0.2,0.1-0.3
					h0.5v2.8H176.7z"/>
				<path class="st13" d="M178.7,61.2v1h0c0.1-0.1,0.2-0.2,0.3-0.2c0.1,0,0.2-0.1,0.4-0.1c0.1,0,0.2,0,0.3,0.1
					c0.1,0,0.2,0.1,0.3,0.2c0.1,0.1,0.1,0.2,0.2,0.3c0.1,0.1,0.1,0.3,0.1,0.5s0,0.4-0.1,0.5s-0.1,0.2-0.2,0.3
					c-0.1,0.1-0.2,0.2-0.3,0.2c-0.1,0-0.2,0.1-0.3,0.1c-0.2,0-0.3,0-0.4-0.1c-0.1,0-0.2-0.1-0.3-0.2h0v0.3h-0.5v-2.9H178.7z
					 M179.6,62.8c0-0.1,0-0.2-0.1-0.2c0-0.1-0.1-0.1-0.2-0.1c-0.1,0-0.1-0.1-0.2-0.1c-0.1,0-0.2,0-0.2,0.1c-0.1,0-0.1,0.1-0.2,0.1
					s-0.1,0.1-0.1,0.2s0,0.2,0,0.3c0,0.1,0,0.2,0,0.2s0,0.2,0.1,0.2s0.1,0.1,0.2,0.1c0.1,0,0.1,0.1,0.2,0.1c0.1,0,0.2,0,0.2-0.1
					c0.1,0,0.1-0.1,0.2-0.1c0-0.1,0.1-0.1,0.1-0.2s0-0.2,0-0.2C179.6,63,179.6,62.9,179.6,62.8z"/>
			</g>
		</g>
	</g>
</g>
<g>
	<g>
		<g>
			<g>
				<path class="st13" d="M183.8,63.6c0.1,0.1,0.2,0.1,0.4,0.1c0.1,0,0.2,0,0.3-0.1s0.1-0.1,0.2-0.2h0.5c-0.1,0.2-0.2,0.4-0.4,0.5
					c-0.2,0.1-0.4,0.2-0.6,0.2c-0.2,0-0.3,0-0.4-0.1c-0.1-0.1-0.2-0.1-0.3-0.2s-0.2-0.2-0.2-0.3c0-0.1-0.1-0.3-0.1-0.4
					c0-0.2,0-0.3,0.1-0.4c0.1-0.1,0.1-0.2,0.2-0.3c0.1-0.1,0.2-0.2,0.3-0.2s0.3-0.1,0.4-0.1c0.2,0,0.3,0,0.5,0.1
					c0.1,0.1,0.2,0.2,0.3,0.3s0.1,0.2,0.2,0.4c0,0.1,0,0.3,0,0.5h-1.5C183.7,63.4,183.7,63.5,183.8,63.6z M184.4,62.5
					c-0.1-0.1-0.2-0.1-0.3-0.1c-0.1,0-0.2,0-0.2,0c-0.1,0-0.1,0.1-0.1,0.1c0,0-0.1,0.1-0.1,0.1c0,0,0,0.1,0,0.1h0.9
					C184.5,62.7,184.5,62.6,184.4,62.5z"/>
				<path class="st13" d="M186.3,64.1v-1.8h-0.7v-0.4c0.1,0,0.2,0,0.3,0c0.1,0,0.2,0,0.2-0.1s0.1-0.1,0.2-0.2c0-0.1,0.1-0.2,0.1-0.3
					h0.5v2.8H186.3z"/>
				<path class="st13" d="M188.7,62.4c-0.1,0-0.2,0-0.2,0.1c-0.1,0-0.1,0.1-0.1,0.2c0,0.1-0.1,0.1-0.1,0.2c0,0.1,0,0.2,0,0.2
					c0,0.1,0,0.2,0,0.2c0,0.1,0,0.1,0.1,0.2c0,0.1,0.1,0.1,0.1,0.2s0.1,0.1,0.2,0.1c0.1,0,0.2,0,0.3-0.1c0.1-0.1,0.1-0.2,0.1-0.3
					h0.5c0,0.3-0.1,0.5-0.3,0.6c-0.2,0.1-0.4,0.2-0.7,0.2c-0.2,0-0.3,0-0.4-0.1c-0.1-0.1-0.2-0.1-0.3-0.2c-0.1-0.1-0.2-0.2-0.2-0.3
					c-0.1-0.1-0.1-0.3-0.1-0.4c0-0.2,0-0.3,0.1-0.4c0-0.1,0.1-0.3,0.2-0.4c0.1-0.1,0.2-0.2,0.3-0.2s0.3-0.1,0.4-0.1
					c0.1,0,0.2,0,0.4,0s0.2,0.1,0.3,0.1c0.1,0.1,0.2,0.1,0.2,0.2c0.1,0.1,0.1,0.2,0.1,0.3h-0.6C189.1,62.5,188.9,62.4,188.7,62.4z"
					/>
			</g>
		</g>
	</g>
</g>
<g>
	<g>
		<g>
			<g>
				<path class="st13" d="M193.1,63.6c0.1,0.1,0.2,0.1,0.4,0.1c0.1,0,0.2,0,0.3-0.1c0.1-0.1,0.1-0.1,0.2-0.2h0.5
					c-0.1,0.2-0.2,0.4-0.4,0.5c-0.2,0.1-0.4,0.2-0.6,0.2c-0.2,0-0.3,0-0.4-0.1c-0.1-0.1-0.2-0.1-0.3-0.2s-0.2-0.2-0.2-0.3
					c0-0.1-0.1-0.3-0.1-0.4c0-0.2,0-0.3,0.1-0.4c0.1-0.1,0.1-0.2,0.2-0.3c0.1-0.1,0.2-0.2,0.3-0.2c0.1-0.1,0.3-0.1,0.4-0.1
					c0.2,0,0.3,0,0.5,0.1c0.1,0.1,0.2,0.2,0.3,0.3s0.1,0.2,0.2,0.4c0,0.1,0.1,0.3,0,0.5h-1.5C192.9,63.4,193,63.5,193.1,63.6z
					 M193.7,62.5c-0.1-0.1-0.2-0.1-0.3-0.1c-0.1,0-0.2,0-0.2,0c-0.1,0-0.1,0.1-0.1,0.1c0,0-0.1,0.1-0.1,0.1c0,0,0,0.1,0,0.1h0.9
					C193.8,62.7,193.8,62.6,193.7,62.5z"/>
				<path class="st13" d="M195.6,64.1v-1.8h-0.7v-0.4c0.1,0,0.2,0,0.3,0c0.1,0,0.2,0,0.2-0.1s0.1-0.1,0.2-0.2
					c0.1-0.1,0.1-0.2,0.1-0.3h0.5v2.8H195.6z"/>
				<path class="st13" d="M198.5,63.8c-0.1,0.1-0.2,0.2-0.3,0.2c-0.1,0-0.2,0.1-0.4,0.1c-0.2,0-0.3,0-0.4-0.1
					c-0.1-0.1-0.2-0.1-0.3-0.2s-0.1-0.2-0.2-0.4c0-0.1-0.1-0.3-0.1-0.4c0-0.1,0-0.3,0.1-0.4c0-0.1,0.1-0.2,0.2-0.3s0.2-0.2,0.3-0.2
					c0.1-0.1,0.2-0.1,0.4-0.1c0.1,0,0.2,0,0.4,0.1c0.1,0.1,0.2,0.1,0.3,0.2h0v-1h0.6v2.9h-0.5L198.5,63.8L198.5,63.8z M198.4,62.8
					c0-0.1,0-0.1-0.1-0.2c0-0.1-0.1-0.1-0.1-0.1c-0.1,0-0.1-0.1-0.2-0.1s-0.2,0-0.2,0.1c-0.1,0-0.1,0.1-0.2,0.1
					c0,0.1-0.1,0.1-0.1,0.2c0,0.1,0,0.2,0,0.2c0,0.1,0,0.2,0,0.2c0,0.1,0,0.2,0.1,0.2c0,0.1,0.1,0.1,0.2,0.2c0.1,0,0.1,0.1,0.2,0.1
					c0.1,0,0.2,0,0.2-0.1c0.1,0,0.1-0.1,0.1-0.2s0.1-0.1,0.1-0.2s0-0.2,0-0.2S198.4,62.9,198.4,62.8z"/>
			</g>
		</g>
	</g>
</g>
<g>
	<g>
		<g>
			<g>
				<path class="st13" d="M22.9,63.5c0.1,0.1,0.2,0.1,0.4,0.1c0.1,0,0.2,0,0.3-0.1c0.1-0.1,0.1-0.1,0.2-0.2h0.5
					c-0.1,0.2-0.2,0.4-0.4,0.5C23.7,64,23.5,64,23.3,64c-0.2,0-0.3,0-0.4-0.1c-0.1-0.1-0.2-0.1-0.3-0.2s-0.2-0.2-0.2-0.3
					c0-0.1-0.1-0.3-0.1-0.4c0-0.2,0-0.3,0.1-0.4c0.1-0.1,0.1-0.2,0.2-0.3c0.1-0.1,0.2-0.2,0.3-0.2c0.1-0.1,0.3-0.1,0.4-0.1
					c0.2,0,0.3,0,0.5,0.1c0.1,0.1,0.2,0.2,0.3,0.3s0.1,0.2,0.2,0.4c0,0.1,0.1,0.3,0,0.5h-1.5C22.8,63.3,22.8,63.4,22.9,63.5z
					 M23.6,62.4c-0.1-0.1-0.2-0.1-0.3-0.1c-0.1,0-0.2,0-0.2,0c-0.1,0-0.1,0.1-0.1,0.1c0,0-0.1,0.1-0.1,0.1c0,0,0,0.1,0,0.1h0.9
					C23.7,62.6,23.6,62.5,23.6,62.4z"/>
				<path class="st13" d="M25.4,64v-1.8h-0.7v-0.4c0.1,0,0.2,0,0.3,0c0.1,0,0.2,0,0.2-0.1s0.1-0.1,0.2-0.2c0.1-0.1,0.1-0.2,0.1-0.3
					H26V64H25.4z"/>
				<path class="st13" d="M26.8,62.6c0-0.1,0-0.2,0.1-0.3s0.1-0.2,0.2-0.2c0.1-0.1,0.2-0.1,0.3-0.1c0.1,0,0.2,0,0.3,0
					c0.1,0,0.2,0,0.3,0s0.2,0,0.3,0.1c0.1,0,0.2,0.1,0.2,0.2c0.1,0.1,0.1,0.2,0.1,0.3v1.1c0,0.1,0,0.2,0,0.3c0,0.1,0,0.1,0.1,0.2
					h-0.6c0,0,0-0.1,0-0.1s0-0.1,0-0.1c-0.1,0.1-0.2,0.2-0.3,0.2c-0.1,0-0.2,0.1-0.4,0.1c-0.1,0-0.2,0-0.3,0c-0.1,0-0.2-0.1-0.2-0.1
					s-0.1-0.1-0.1-0.2c0-0.1-0.1-0.2-0.1-0.3c0-0.1,0-0.2,0.1-0.3c0-0.1,0.1-0.1,0.2-0.2c0.1,0,0.1-0.1,0.2-0.1s0.2,0,0.3-0.1
					c0.1,0,0.2,0,0.3,0c0.1,0,0.2,0,0.2,0c0.1,0,0.1,0,0.2-0.1c0,0,0.1-0.1,0.1-0.1c0-0.1,0-0.1,0-0.1s0-0.1-0.1-0.1
					c0,0-0.1,0-0.1,0c0,0-0.1,0-0.1,0c-0.1,0-0.2,0-0.3,0.1s-0.1,0.1-0.1,0.2H26.8z M28.1,63C28.1,63,28.1,63,28.1,63
					C28,63,27.9,63,27.9,63.1c0,0-0.1,0-0.1,0c0,0-0.1,0-0.1,0c0,0-0.1,0-0.1,0c0,0-0.1,0-0.1,0.1c0,0-0.1,0.1-0.1,0.1
					c0,0,0,0.1,0,0.1c0,0.1,0,0.1,0,0.1c0,0,0,0.1,0.1,0.1c0,0,0.1,0,0.1,0c0,0,0.1,0,0.1,0c0.1,0,0.2,0,0.3-0.1
					c0.1,0,0.1-0.1,0.1-0.1c0-0.1,0-0.1,0.1-0.2c0-0.1,0-0.1,0-0.1V63z"/>
			</g>
		</g>
	</g>
</g>
<g>
	<g>
		<g>
			<g>
				<path class="st13" d="M32.4,63.6c0.1,0.1,0.2,0.1,0.4,0.1c0.1,0,0.2,0,0.3-0.1c0.1-0.1,0.1-0.1,0.2-0.2h0.5
					c-0.1,0.2-0.2,0.4-0.4,0.5c-0.2,0.1-0.4,0.2-0.6,0.2c-0.2,0-0.3,0-0.4-0.1c-0.1-0.1-0.2-0.1-0.3-0.2s-0.2-0.2-0.2-0.3
					c0-0.1-0.1-0.3-0.1-0.4c0-0.2,0-0.3,0.1-0.4c0.1-0.1,0.1-0.2,0.2-0.3c0.1-0.1,0.2-0.2,0.3-0.2c0.1-0.1,0.3-0.1,0.4-0.1
					c0.2,0,0.3,0,0.5,0.1c0.1,0.1,0.2,0.2,0.3,0.3s0.1,0.2,0.2,0.4c0,0.1,0.1,0.3,0,0.5h-1.5C32.2,63.4,32.3,63.5,32.4,63.6z
					 M33,62.5c-0.1-0.1-0.2-0.1-0.3-0.1c-0.1,0-0.2,0-0.2,0c-0.1,0-0.1,0.1-0.1,0.1c0,0-0.1,0.1-0.1,0.1c0,0,0,0.1,0,0.1h0.9
					C33.1,62.7,33.1,62.6,33,62.5z"/>
				<path class="st13" d="M34.8,64.1v-1.8h-0.7v-0.4c0.1,0,0.2,0,0.3,0c0.1,0,0.2,0,0.2-0.1s0.1-0.1,0.2-0.2
					c0.1-0.1,0.1-0.2,0.1-0.3h0.5v2.8H34.8z"/>
				<path class="st13" d="M36.8,61.2v1h0c0.1-0.1,0.2-0.2,0.3-0.2c0.1,0,0.2-0.1,0.4-0.1c0.1,0,0.2,0,0.3,0.1c0.1,0,0.2,0.1,0.3,0.2
					c0.1,0.1,0.1,0.2,0.2,0.3c0.1,0.1,0.1,0.3,0.1,0.5s0,0.4-0.1,0.5c-0.1,0.1-0.1,0.2-0.2,0.3C38,64,37.9,64,37.8,64.1
					c-0.1,0-0.2,0.1-0.3,0.1c-0.2,0-0.3,0-0.4-0.1c-0.1,0-0.2-0.1-0.3-0.2h0v0.3h-0.5v-2.9H36.8z M37.8,62.8c0-0.1,0-0.2-0.1-0.2
					c0-0.1-0.1-0.1-0.2-0.1c-0.1,0-0.1-0.1-0.2-0.1c-0.1,0-0.2,0-0.2,0.1c-0.1,0-0.1,0.1-0.2,0.1s-0.1,0.1-0.1,0.2s0,0.2,0,0.3
					c0,0.1,0,0.2,0,0.2s0,0.2,0.1,0.2s0.1,0.1,0.2,0.1c0.1,0,0.1,0.1,0.2,0.1c0.1,0,0.2,0,0.2-0.1s0.1-0.1,0.2-0.1
					c0-0.1,0.1-0.1,0.1-0.2s0-0.2,0-0.2C37.8,63,37.8,62.9,37.8,62.8z"/>
			</g>
		</g>
	</g>
</g>
<g>
	<g>
		<g>
			<g>
				<path class="st13" d="M41.9,63.6c0.1,0.1,0.2,0.1,0.4,0.1c0.1,0,0.2,0,0.3-0.1c0.1-0.1,0.1-0.1,0.2-0.2h0.5
					c-0.1,0.2-0.2,0.4-0.4,0.5c-0.2,0.1-0.4,0.2-0.6,0.2c-0.2,0-0.3,0-0.4-0.1c-0.1-0.1-0.2-0.1-0.3-0.2s-0.2-0.2-0.2-0.3
					c0-0.1-0.1-0.3-0.1-0.4c0-0.2,0-0.3,0.1-0.4c0.1-0.1,0.1-0.2,0.2-0.3c0.1-0.1,0.2-0.2,0.3-0.2C42,62,42.1,62,42.3,62
					c0.2,0,0.3,0,0.5,0.1c0.1,0.1,0.2,0.2,0.3,0.3s0.1,0.2,0.2,0.4c0,0.1,0.1,0.3,0,0.5h-1.5C41.8,63.4,41.8,63.5,41.9,63.6z
					 M42.6,62.5c-0.1-0.1-0.2-0.1-0.3-0.1c-0.1,0-0.2,0-0.2,0c-0.1,0-0.1,0.1-0.1,0.1c0,0-0.1,0.1-0.1,0.1c0,0,0,0.1,0,0.1h0.9
					C42.7,62.7,42.6,62.6,42.6,62.5z"/>
				<path class="st13" d="M44.4,64.1v-1.8h-0.7v-0.4c0.1,0,0.2,0,0.3,0c0.1,0,0.2,0,0.2-0.1s0.1-0.1,0.2-0.2
					c0.1-0.1,0.1-0.2,0.1-0.3H45v2.8H44.4z"/>
				<path class="st13" d="M46.8,62.4c-0.1,0-0.2,0-0.2,0.1c-0.1,0-0.1,0.1-0.1,0.2c0,0.1-0.1,0.1-0.1,0.2c0,0.1,0,0.2,0,0.2
					c0,0.1,0,0.2,0,0.2c0,0.1,0,0.1,0.1,0.2c0,0.1,0.1,0.1,0.1,0.2c0.1,0,0.1,0.1,0.2,0.1c0.1,0,0.2,0,0.3-0.1
					c0.1-0.1,0.1-0.2,0.1-0.3h0.5c0,0.3-0.1,0.5-0.3,0.6c-0.2,0.1-0.4,0.2-0.7,0.2c-0.2,0-0.3,0-0.4-0.1c-0.1-0.1-0.2-0.1-0.3-0.2
					c-0.1-0.1-0.2-0.2-0.2-0.3c-0.1-0.1-0.1-0.3-0.1-0.4c0-0.2,0-0.3,0.1-0.4c0-0.1,0.1-0.3,0.2-0.4c0.1-0.1,0.2-0.2,0.3-0.2
					c0.1-0.1,0.3-0.1,0.4-0.1c0.1,0,0.2,0,0.4,0s0.2,0.1,0.3,0.1c0.1,0.1,0.2,0.1,0.2,0.2c0.1,0.1,0.1,0.2,0.1,0.3h-0.6
					C47.2,62.5,47.1,62.4,46.8,62.4z"/>
			</g>
		</g>
	</g>
</g>
<g>
	<g>
		<g>
			<g>
				<path class="st13" d="M51.2,63.6c0.1,0.1,0.2,0.1,0.4,0.1c0.1,0,0.2,0,0.3-0.1c0.1-0.1,0.1-0.1,0.2-0.2h0.5
					c-0.1,0.2-0.2,0.4-0.4,0.5c-0.2,0.1-0.4,0.2-0.6,0.2c-0.2,0-0.3,0-0.4-0.1c-0.1-0.1-0.2-0.1-0.3-0.2s-0.2-0.2-0.2-0.3
					c0-0.1-0.1-0.3-0.1-0.4c0-0.2,0-0.3,0.1-0.4c0.1-0.1,0.1-0.2,0.2-0.3c0.1-0.1,0.2-0.2,0.3-0.2c0.1-0.1,0.3-0.1,0.4-0.1
					c0.2,0,0.3,0,0.5,0.1c0.1,0.1,0.2,0.2,0.3,0.3s0.1,0.2,0.2,0.4c0,0.1,0.1,0.3,0,0.5h-1.5C51.1,63.4,51.1,63.5,51.2,63.6z
					 M51.9,62.5c-0.1-0.1-0.2-0.1-0.3-0.1c-0.1,0-0.2,0-0.2,0c-0.1,0-0.1,0.1-0.1,0.1c0,0-0.1,0.1-0.1,0.1c0,0,0,0.1,0,0.1H52
					C52,62.7,51.9,62.6,51.9,62.5z"/>
				<path class="st13" d="M53.7,64.1v-1.8H53v-0.4c0.1,0,0.2,0,0.3,0c0.1,0,0.2,0,0.2-0.1s0.1-0.1,0.2-0.2c0.1-0.1,0.1-0.2,0.1-0.3
					h0.5v2.8H53.7z"/>
				<path class="st13" d="M56.6,63.8c-0.1,0.1-0.2,0.2-0.3,0.2c-0.1,0-0.2,0.1-0.4,0.1c-0.2,0-0.3,0-0.4-0.1
					c-0.1-0.1-0.2-0.1-0.3-0.2c-0.1-0.1-0.1-0.2-0.2-0.4c0-0.1-0.1-0.3-0.1-0.4c0-0.1,0-0.3,0.1-0.4c0-0.1,0.1-0.2,0.2-0.3
					c0.1-0.1,0.2-0.2,0.3-0.2C55.7,62,55.8,62,56,62c0.1,0,0.2,0,0.4,0.1c0.1,0.1,0.2,0.1,0.3,0.2h0v-1h0.6v2.9h-0.5L56.6,63.8
					L56.6,63.8z M56.6,62.8c0-0.1,0-0.1-0.1-0.2c0-0.1-0.1-0.1-0.1-0.1c-0.1,0-0.1-0.1-0.2-0.1c-0.1,0-0.2,0-0.2,0.1
					c-0.1,0-0.1,0.1-0.2,0.1c0,0.1-0.1,0.1-0.1,0.2c0,0.1,0,0.2,0,0.2c0,0.1,0,0.2,0,0.2c0,0.1,0,0.2,0.1,0.2s0.1,0.1,0.2,0.2
					c0.1,0,0.1,0.1,0.2,0.1c0.1,0,0.2,0,0.2-0.1c0.1,0,0.1-0.1,0.1-0.2c0-0.1,0.1-0.1,0.1-0.2c0-0.1,0-0.2,0-0.2
					S56.6,62.9,56.6,62.8z"/>
			</g>
		</g>
	</g>
</g>
<g>
	<g>
		<g>
			<g>
				<path class="st13" d="M271.4,55.5c0.1,0.1,0.2,0.1,0.4,0.1c0.1,0,0.2,0,0.3-0.1c0.1-0.1,0.1-0.1,0.2-0.2h0.5
					c-0.1,0.2-0.2,0.4-0.4,0.5c-0.2,0.1-0.4,0.2-0.6,0.2c-0.2,0-0.3,0-0.4-0.1c-0.1-0.1-0.2-0.1-0.3-0.2s-0.2-0.2-0.2-0.3
					c0-0.1-0.1-0.3-0.1-0.4c0-0.2,0-0.3,0.1-0.4c0.1-0.1,0.1-0.2,0.2-0.3c0.1-0.1,0.2-0.2,0.3-0.2c0.1-0.1,0.3-0.1,0.4-0.1
					c0.2,0,0.3,0,0.5,0.1c0.1,0.1,0.2,0.2,0.3,0.3s0.1,0.2,0.2,0.4c0,0.1,0.1,0.3,0,0.5h-1.5C271.2,55.3,271.3,55.4,271.4,55.5z
					 M272,54.4c-0.1-0.1-0.2-0.1-0.3-0.1c-0.1,0-0.2,0-0.2,0c-0.1,0-0.1,0.1-0.1,0.1c0,0-0.1,0.1-0.1,0.1c0,0,0,0.1,0,0.1h0.9
					C272.1,54.6,272.1,54.5,272,54.4z"/>
				<path class="st13" d="M273,53.9c0.1-0.2,0.1-0.3,0.2-0.4s0.2-0.2,0.3-0.2s0.3-0.1,0.4-0.1c0.1,0,0.3,0,0.4,0.1s0.2,0.1,0.3,0.2
					s0.2,0.3,0.2,0.4c0.1,0.2,0.1,0.4,0.1,0.7c0,0.3,0,0.5-0.1,0.7c-0.1,0.2-0.1,0.3-0.2,0.5c-0.1,0.1-0.2,0.2-0.3,0.2
					c-0.1,0-0.3,0.1-0.4,0.1c-0.1,0-0.3,0-0.4-0.1c-0.1,0-0.2-0.1-0.3-0.2c-0.1-0.1-0.2-0.3-0.2-0.5c-0.1-0.2-0.1-0.4-0.1-0.7
					C272.9,54.3,272.9,54.1,273,53.9z M273.5,54.9c0,0.1,0,0.2,0,0.3c0,0.1,0.1,0.2,0.1,0.3c0.1,0.1,0.1,0.1,0.3,0.1
					c0.1,0,0.2,0,0.3-0.1c0.1-0.1,0.1-0.2,0.1-0.3s0-0.2,0-0.3c0-0.1,0-0.2,0-0.3c0,0,0-0.1,0-0.2c0-0.1,0-0.1,0-0.2s0-0.1,0-0.2
					c0-0.1,0-0.1-0.1-0.2c0-0.1-0.1-0.1-0.1-0.1c-0.1,0-0.1-0.1-0.2-0.1c-0.1,0-0.1,0-0.2,0.1c-0.1,0-0.1,0.1-0.1,0.1
					c0,0.1-0.1,0.1-0.1,0.2c0,0.1,0,0.1,0,0.2s0,0.1,0,0.2c0,0.1,0,0.1,0,0.2C273.5,54.7,273.5,54.8,273.5,54.9z"/>
				<path class="st13" d="M275.8,53.2v1h0c0.1-0.1,0.2-0.2,0.3-0.2c0.1,0,0.2-0.1,0.4-0.1c0.1,0,0.2,0,0.3,0.1
					c0.1,0,0.2,0.1,0.3,0.2s0.1,0.2,0.2,0.3c0,0.1,0.1,0.3,0.1,0.5s0,0.4-0.1,0.5c-0.1,0.1-0.1,0.2-0.2,0.3s-0.2,0.2-0.3,0.2
					c-0.1,0-0.2,0.1-0.3,0.1c-0.2,0-0.3,0-0.4-0.1c-0.1,0-0.2-0.1-0.3-0.2h0V56h-0.5v-2.9H275.8z M276.8,54.7c0-0.1,0-0.2-0.1-0.2
					s-0.1-0.1-0.2-0.1c-0.1,0-0.1-0.1-0.2-0.1c-0.1,0-0.2,0-0.2,0.1c-0.1,0-0.1,0.1-0.2,0.1s-0.1,0.1-0.1,0.2s0,0.2,0,0.3
					c0,0.1,0,0.2,0,0.2s0,0.2,0.1,0.2s0.1,0.1,0.2,0.1s0.1,0.1,0.2,0.1c0.1,0,0.2,0,0.2-0.1c0.1,0,0.1-0.1,0.2-0.1s0.1-0.1,0.1-0.2
					s0-0.2,0-0.2C276.8,54.9,276.8,54.8,276.8,54.7z"/>
			</g>
		</g>
	</g>
</g>
<g>
	<g>
		<g>
			<g>
				<g>
					<path class="st30" d="M203.4,19.4v-0.8h3.5v0.8h-1.3v3.5h-0.9v-3.5H203.4z"/>
					<path class="st30" d="M206.6,20.7c0.1-0.2,0.2-0.4,0.3-0.5c0.1-0.1,0.3-0.3,0.5-0.3c0.2-0.1,0.4-0.1,0.7-0.1s0.5,0,0.7,0.1
						c0.2,0.1,0.4,0.2,0.5,0.3c0.1,0.1,0.2,0.3,0.3,0.5c0.1,0.2,0.1,0.4,0.1,0.7s0,0.5-0.1,0.7s-0.2,0.4-0.3,0.5
						c-0.1,0.1-0.3,0.3-0.5,0.3c-0.2,0.1-0.4,0.1-0.7,0.1s-0.5,0-0.7-0.1c-0.2-0.1-0.4-0.2-0.5-0.3c-0.1-0.1-0.2-0.3-0.3-0.5
						s-0.1-0.4-0.1-0.7S206.6,20.9,206.6,20.7z M207.4,21.7c0,0.1,0.1,0.2,0.1,0.3c0.1,0.1,0.1,0.2,0.2,0.2c0.1,0.1,0.2,0.1,0.4,0.1
						c0.1,0,0.3,0,0.4-0.1c0.1-0.1,0.2-0.1,0.2-0.2c0.1-0.1,0.1-0.2,0.1-0.3c0-0.1,0-0.2,0-0.4s0-0.2,0-0.4c0-0.1-0.1-0.2-0.1-0.3
						c-0.1-0.1-0.1-0.2-0.2-0.2c-0.1-0.1-0.2-0.1-0.4-0.1c-0.1,0-0.3,0-0.4,0.1c-0.1,0.1-0.2,0.1-0.2,0.2c-0.1,0.1-0.1,0.2-0.1,0.3
						c0,0.1,0,0.2,0,0.4S207.4,21.6,207.4,21.7z"/>
					<path class="st30" d="M213.4,20.3c-0.1,0-0.2,0-0.3,0.1s-0.2,0.1-0.2,0.2c-0.1,0.1-0.1,0.2-0.1,0.3c0,0.1,0,0.2,0,0.4
						c0,0.1,0,0.2,0,0.3c0,0.1,0.1,0.2,0.1,0.3c0.1,0.1,0.1,0.2,0.2,0.2s0.2,0.1,0.3,0.1c0.2,0,0.4-0.1,0.5-0.2
						c0.1-0.1,0.2-0.3,0.2-0.5h0.8c-0.1,0.4-0.2,0.7-0.5,0.9c-0.3,0.2-0.6,0.3-1,0.3c-0.2,0-0.4,0-0.6-0.1c-0.2-0.1-0.4-0.2-0.5-0.3
						c-0.1-0.1-0.2-0.3-0.3-0.5c-0.1-0.2-0.1-0.4-0.1-0.6c0-0.2,0-0.5,0.1-0.7s0.2-0.4,0.3-0.5c0.1-0.1,0.3-0.3,0.5-0.4
						c0.2-0.1,0.4-0.1,0.7-0.1c0.2,0,0.4,0,0.5,0.1c0.2,0,0.3,0.1,0.5,0.2s0.2,0.2,0.3,0.4s0.1,0.3,0.1,0.5h-0.8
						C214,20.5,213.8,20.3,213.4,20.3z"/>
					<path class="st30" d="M216.3,18.6v4.3h-0.9v-4.3H216.3z"/>
					<path class="st30" d="M219,22.9v-0.4h0c-0.1,0.2-0.2,0.3-0.4,0.4s-0.3,0.1-0.5,0.1c-0.2,0-0.4,0-0.6-0.1
						c-0.1-0.1-0.3-0.1-0.3-0.3c-0.1-0.1-0.1-0.2-0.2-0.4s-0.1-0.3-0.1-0.5v-1.9h0.9v1.8c0,0.3,0,0.4,0.1,0.6s0.2,0.2,0.4,0.2
						c0.2,0,0.4-0.1,0.5-0.2c0.1-0.1,0.2-0.4,0.2-0.7v-1.6h0.9v3.1H219z"/>
					<path class="st30" d="M221.2,22.1c0,0.1,0.1,0.1,0.1,0.2c0.1,0,0.1,0.1,0.2,0.1c0.1,0,0.2,0,0.2,0c0.1,0,0.1,0,0.2,0
						c0.1,0,0.1,0,0.2-0.1c0.1,0,0.1-0.1,0.1-0.1c0-0.1,0.1-0.1,0.1-0.2c0-0.1-0.1-0.2-0.3-0.3c-0.2-0.1-0.4-0.1-0.7-0.2
						c-0.1,0-0.2-0.1-0.4-0.1s-0.2-0.1-0.3-0.1s-0.2-0.1-0.2-0.2c-0.1-0.1-0.1-0.2-0.1-0.3c0-0.2,0-0.4,0.1-0.5
						c0.1-0.1,0.2-0.2,0.3-0.3c0.1-0.1,0.3-0.1,0.4-0.2c0.2,0,0.3,0,0.5,0s0.3,0,0.5,0c0.2,0,0.3,0.1,0.4,0.2
						c0.1,0.1,0.2,0.2,0.3,0.3s0.1,0.3,0.1,0.5h-0.8c0-0.2-0.1-0.3-0.2-0.3c-0.1-0.1-0.2-0.1-0.4-0.1c0,0-0.1,0-0.2,0s-0.1,0-0.2,0
						s-0.1,0-0.1,0.1c0,0,0,0.1,0,0.2c0,0.1,0,0.1,0.1,0.2c0.1,0,0.1,0.1,0.2,0.1c0.1,0,0.2,0.1,0.3,0.1s0.2,0,0.4,0.1
						c0.1,0,0.2,0.1,0.4,0.1c0.1,0,0.2,0.1,0.3,0.2s0.2,0.1,0.2,0.2s0.1,0.2,0.1,0.4c0,0.2,0,0.4-0.1,0.5c-0.1,0.1-0.2,0.2-0.3,0.3
						c-0.1,0.1-0.3,0.1-0.5,0.2c-0.2,0-0.3,0.1-0.5,0.1c-0.2,0-0.4,0-0.5-0.1c-0.2,0-0.3-0.1-0.5-0.2c-0.1-0.1-0.2-0.2-0.3-0.3
						c-0.1-0.1-0.1-0.3-0.1-0.5h0.8C221.2,22,221.2,22,221.2,22.1z"/>
					<path class="st30" d="M225.4,19.8v0.6h-0.6v1.5c0,0.1,0,0.2,0.1,0.3c0,0,0.1,0.1,0.3,0.1c0,0,0.1,0,0.1,0s0.1,0,0.1,0v0.7
						c-0.1,0-0.2,0-0.2,0s-0.2,0-0.3,0c-0.1,0-0.3,0-0.4,0c-0.1,0-0.2-0.1-0.3-0.1c-0.1-0.1-0.2-0.1-0.2-0.2
						c-0.1-0.1-0.1-0.2-0.1-0.4v-1.8h-0.5v-0.6h0.5v-0.9h0.9v0.9H225.4z"/>
					<path class="st30" d="M226.7,22.1c0.1,0.1,0.3,0.2,0.6,0.2c0.2,0,0.3,0,0.4-0.1c0.1-0.1,0.2-0.2,0.2-0.3h0.8
						c-0.1,0.4-0.3,0.6-0.6,0.8c-0.2,0.2-0.5,0.2-0.9,0.2c-0.2,0-0.5,0-0.7-0.1c-0.2-0.1-0.4-0.2-0.5-0.3c-0.1-0.1-0.2-0.3-0.3-0.5
						c-0.1-0.2-0.1-0.4-0.1-0.7c0-0.2,0-0.4,0.1-0.6c0.1-0.2,0.2-0.4,0.3-0.5c0.1-0.1,0.3-0.3,0.5-0.3c0.2-0.1,0.4-0.1,0.6-0.1
						c0.3,0,0.5,0.1,0.7,0.2c0.2,0.1,0.4,0.2,0.5,0.4s0.2,0.4,0.3,0.6c0.1,0.2,0.1,0.5,0.1,0.7h-2.2C226.5,21.8,226.6,22,226.7,22.1
						z M227.7,20.5c-0.1-0.1-0.3-0.2-0.5-0.2c-0.1,0-0.2,0-0.3,0.1c-0.1,0-0.2,0.1-0.2,0.2c-0.1,0.1-0.1,0.1-0.1,0.2
						c0,0.1,0,0.1,0,0.2h1.4C227.9,20.8,227.8,20.6,227.7,20.5z"/>
					<path class="st30" d="M230.1,19.8v0.6h0c0-0.1,0.1-0.2,0.2-0.3c0.1-0.1,0.1-0.2,0.2-0.2s0.2-0.1,0.3-0.1c0.1,0,0.2,0,0.3,0
						c0.1,0,0.1,0,0.2,0v0.8c0,0-0.1,0-0.1,0c-0.1,0-0.1,0-0.2,0c-0.2,0-0.3,0-0.4,0.1c-0.1,0.1-0.2,0.1-0.3,0.2
						c-0.1,0.1-0.1,0.2-0.1,0.3c0,0.1,0,0.2,0,0.4v1.4h-0.9v-3.1H230.1z"/>
					<path class="st30" d="M203.6,25.6v-0.7h0.9v0.7H203.6z M204.5,26v3.1h-0.9V26H204.5z"/>
					<path class="st30" d="M206,26v0.4h0c0.1-0.2,0.2-0.3,0.4-0.4s0.3-0.1,0.5-0.1c0.2,0,0.4,0,0.6,0.1c0.1,0.1,0.3,0.1,0.3,0.3
						s0.1,0.2,0.2,0.4c0,0.2,0.1,0.3,0.1,0.5v1.9h-0.9v-1.8c0-0.3,0-0.4-0.1-0.6s-0.2-0.2-0.4-0.2c-0.2,0-0.4,0.1-0.5,0.2
						c-0.1,0.1-0.2,0.4-0.2,0.7v1.6h-0.9V26H206z"/>
					<path class="st30" d="M210.4,26v0.6h-0.6v1.5c0,0.1,0,0.2,0.1,0.3c0,0,0.1,0.1,0.3,0.1c0,0,0.1,0,0.1,0s0.1,0,0.1,0v0.7
						c-0.1,0-0.2,0-0.2,0s-0.2,0-0.3,0c-0.1,0-0.3,0-0.4,0c-0.1,0-0.2-0.1-0.3-0.1c-0.1-0.1-0.2-0.1-0.2-0.2
						c-0.1-0.1-0.1-0.2-0.1-0.4v-1.8h-0.5V26h0.5v-0.9h0.9V26H210.4z"/>
					<path class="st30" d="M211.7,28.4c0.1,0.1,0.3,0.2,0.6,0.2c0.2,0,0.3,0,0.4-0.1c0.1-0.1,0.2-0.2,0.2-0.3h0.8
						c-0.1,0.4-0.3,0.6-0.6,0.8c-0.2,0.2-0.5,0.2-0.9,0.2c-0.2,0-0.5,0-0.7-0.1c-0.2-0.1-0.4-0.2-0.5-0.3c-0.1-0.1-0.2-0.3-0.3-0.5
						c-0.1-0.2-0.1-0.4-0.1-0.7c0-0.2,0-0.4,0.1-0.6c0.1-0.2,0.2-0.4,0.3-0.5c0.1-0.1,0.3-0.3,0.5-0.3c0.2-0.1,0.4-0.1,0.6-0.1
						c0.3,0,0.5,0.1,0.7,0.2c0.2,0.1,0.4,0.2,0.5,0.4s0.2,0.4,0.3,0.6c0.1,0.2,0.1,0.5,0.1,0.7h-2.2
						C211.5,28.1,211.6,28.3,211.7,28.4z M212.7,26.8c-0.1-0.1-0.3-0.2-0.5-0.2c-0.1,0-0.2,0-0.3,0.1c-0.1,0-0.2,0.1-0.2,0.2
						c-0.1,0.1-0.1,0.1-0.1,0.2c0,0.1,0,0.1,0,0.2h1.4C212.9,27,212.8,26.9,212.7,26.8z"/>
					<path class="st30" d="M215.1,26v0.6h0c0-0.1,0.1-0.2,0.2-0.3c0.1-0.1,0.1-0.2,0.2-0.2s0.2-0.1,0.3-0.1c0.1,0,0.2,0,0.3,0
						c0.1,0,0.1,0,0.2,0v0.8c0,0-0.1,0-0.1,0c-0.1,0-0.1,0-0.2,0c-0.2,0-0.3,0-0.4,0.1c-0.1,0.1-0.2,0.1-0.3,0.2
						c-0.1,0.1-0.1,0.2-0.1,0.3c0,0.1,0,0.2,0,0.4v1.4h-0.9V26H215.1z"/>
					<path class="st30" d="M218,26.6c-0.1,0-0.2,0-0.3,0.1s-0.2,0.1-0.2,0.2c-0.1,0.1-0.1,0.2-0.1,0.3c0,0.1,0,0.2,0,0.4
						c0,0.1,0,0.2,0,0.3c0,0.1,0.1,0.2,0.1,0.3c0.1,0.1,0.1,0.2,0.2,0.2s0.2,0.1,0.3,0.1c0.2,0,0.4-0.1,0.5-0.2
						c0.1-0.1,0.2-0.3,0.2-0.5h0.8c-0.1,0.4-0.2,0.7-0.5,0.9c-0.3,0.2-0.6,0.3-1,0.3c-0.2,0-0.4,0-0.6-0.1c-0.2-0.1-0.4-0.2-0.5-0.3
						c-0.1-0.1-0.2-0.3-0.3-0.5c-0.1-0.2-0.1-0.4-0.1-0.6c0-0.2,0-0.5,0.1-0.7s0.2-0.4,0.3-0.5c0.1-0.1,0.3-0.3,0.5-0.4
						c0.2-0.1,0.4-0.1,0.7-0.1c0.2,0,0.4,0,0.5,0.1c0.2,0,0.3,0.1,0.5,0.2s0.2,0.2,0.3,0.4s0.1,0.3,0.1,0.5h-0.8
						C218.6,26.8,218.3,26.6,218,26.6z"/>
					<path class="st30" d="M220,26.9c0.1-0.2,0.2-0.4,0.3-0.5c0.1-0.1,0.3-0.3,0.5-0.3c0.2-0.1,0.4-0.1,0.7-0.1s0.5,0,0.7,0.1
						c0.2,0.1,0.4,0.2,0.5,0.3c0.1,0.1,0.2,0.3,0.3,0.5c0.1,0.2,0.1,0.4,0.1,0.7s0,0.5-0.1,0.7s-0.2,0.4-0.3,0.5
						c-0.1,0.1-0.3,0.3-0.5,0.3c-0.2,0.1-0.4,0.1-0.7,0.1s-0.5,0-0.7-0.1c-0.2-0.1-0.4-0.2-0.5-0.3c-0.1-0.1-0.2-0.3-0.3-0.5
						s-0.1-0.4-0.1-0.7S219.9,27.1,220,26.9z M220.7,27.9c0,0.1,0.1,0.2,0.1,0.3c0.1,0.1,0.1,0.2,0.2,0.2c0.1,0.1,0.2,0.1,0.4,0.1
						c0.1,0,0.3,0,0.4-0.1c0.1-0.1,0.2-0.1,0.2-0.2c0.1-0.1,0.1-0.2,0.1-0.3c0-0.1,0-0.2,0-0.4s0-0.2,0-0.4c0-0.1-0.1-0.2-0.1-0.3
						c-0.1-0.1-0.1-0.2-0.2-0.2c-0.1-0.1-0.2-0.1-0.4-0.1c-0.1,0-0.3,0-0.4,0.1c-0.1,0.1-0.2,0.1-0.2,0.2c-0.1,0.1-0.1,0.2-0.1,0.3
						c0,0.1,0,0.2,0,0.4S220.7,27.8,220.7,27.9z"/>
					<path class="st30" d="M224.4,26v0.4h0c0.1-0.2,0.2-0.3,0.4-0.4s0.3-0.1,0.5-0.1c0.2,0,0.4,0,0.6,0.1c0.1,0.1,0.3,0.1,0.3,0.3
						s0.1,0.2,0.2,0.4c0,0.2,0.1,0.3,0.1,0.5v1.9h-0.9v-1.8c0-0.3,0-0.4-0.1-0.6s-0.2-0.2-0.4-0.2c-0.2,0-0.4,0.1-0.5,0.2
						c-0.1,0.1-0.2,0.4-0.2,0.7v1.6h-0.9V26H224.4z"/>
					<path class="st30" d="M228,26v0.4h0c0.1-0.2,0.2-0.3,0.4-0.4s0.3-0.1,0.5-0.1c0.2,0,0.4,0,0.6,0.1c0.1,0.1,0.3,0.1,0.3,0.3
						s0.1,0.2,0.2,0.4c0,0.2,0.1,0.3,0.1,0.5v1.9h-0.9v-1.8c0-0.3,0-0.4-0.1-0.6s-0.2-0.2-0.4-0.2c-0.2,0-0.4,0.1-0.5,0.2
						c-0.1,0.1-0.2,0.4-0.2,0.7v1.6h-0.9V26H228z"/>
					<path class="st30" d="M231.6,28.4c0.1,0.1,0.3,0.2,0.6,0.2c0.2,0,0.3,0,0.4-0.1c0.1-0.1,0.2-0.2,0.2-0.3h0.8
						c-0.1,0.4-0.3,0.6-0.6,0.8c-0.2,0.2-0.5,0.2-0.9,0.2c-0.2,0-0.5,0-0.7-0.1c-0.2-0.1-0.4-0.2-0.5-0.3c-0.1-0.1-0.2-0.3-0.3-0.5
						c-0.1-0.2-0.1-0.4-0.1-0.7c0-0.2,0-0.4,0.1-0.6c0.1-0.2,0.2-0.4,0.3-0.5c0.1-0.1,0.3-0.3,0.5-0.3c0.2-0.1,0.4-0.1,0.6-0.1
						c0.3,0,0.5,0.1,0.7,0.2c0.2,0.1,0.4,0.2,0.5,0.4s0.2,0.4,0.3,0.6c0.1,0.2,0.1,0.5,0.1,0.7h-2.2
						C231.4,28.1,231.5,28.3,231.6,28.4z M232.6,26.8c-0.1-0.1-0.3-0.2-0.5-0.2c-0.1,0-0.2,0-0.3,0.1c-0.1,0-0.2,0.1-0.2,0.2
						c-0.1,0.1-0.1,0.1-0.1,0.2c0,0.1,0,0.1,0,0.2h1.4C232.8,27,232.7,26.9,232.6,26.8z"/>
					<path class="st30" d="M235.7,26.6c-0.1,0-0.2,0-0.3,0.1s-0.2,0.1-0.2,0.2c-0.1,0.1-0.1,0.2-0.1,0.3c0,0.1,0,0.2,0,0.4
						c0,0.1,0,0.2,0,0.3c0,0.1,0.1,0.2,0.1,0.3c0.1,0.1,0.1,0.2,0.2,0.2s0.2,0.1,0.3,0.1c0.2,0,0.4-0.1,0.5-0.2
						c0.1-0.1,0.2-0.3,0.2-0.5h0.8c-0.1,0.4-0.2,0.7-0.5,0.9c-0.3,0.2-0.6,0.3-1,0.3c-0.2,0-0.4,0-0.6-0.1c-0.2-0.1-0.4-0.2-0.5-0.3
						c-0.1-0.1-0.2-0.3-0.3-0.5c-0.1-0.2-0.1-0.4-0.1-0.6c0-0.2,0-0.5,0.1-0.7s0.2-0.4,0.3-0.5c0.1-0.1,0.3-0.3,0.5-0.4
						c0.2-0.1,0.4-0.1,0.7-0.1c0.2,0,0.4,0,0.5,0.1c0.2,0,0.3,0.1,0.5,0.2s0.2,0.2,0.3,0.4s0.1,0.3,0.1,0.5h-0.8
						C236.2,26.8,236,26.6,235.7,26.6z"/>
					<path class="st30" d="M239.3,26v0.6h-0.6v1.5c0,0.1,0,0.2,0.1,0.3c0,0,0.1,0.1,0.3,0.1c0,0,0.1,0,0.1,0s0.1,0,0.1,0v0.7
						c-0.1,0-0.2,0-0.2,0s-0.2,0-0.3,0c-0.1,0-0.3,0-0.4,0c-0.1,0-0.2-0.1-0.3-0.1c-0.1-0.1-0.2-0.1-0.2-0.2
						c-0.1-0.1-0.1-0.2-0.1-0.4v-1.8h-0.5V26h0.5v-0.9h0.9V26H239.3z"/>
					<path class="st30" d="M204.3,34.6c0,0.1,0.1,0.1,0.1,0.2c0.1,0,0.1,0.1,0.2,0.1c0.1,0,0.2,0,0.2,0c0.1,0,0.1,0,0.2,0
						c0.1,0,0.1,0,0.2-0.1c0.1,0,0.1-0.1,0.1-0.1c0-0.1,0.1-0.1,0.1-0.2c0-0.1-0.1-0.2-0.3-0.3c-0.2-0.1-0.4-0.1-0.7-0.2
						c-0.1,0-0.2-0.1-0.4-0.1s-0.2-0.1-0.3-0.1s-0.2-0.1-0.2-0.2c-0.1-0.1-0.1-0.2-0.1-0.3c0-0.2,0-0.4,0.1-0.5
						c0.1-0.1,0.2-0.2,0.3-0.3c0.1-0.1,0.3-0.1,0.4-0.2c0.2,0,0.3,0,0.5,0s0.3,0,0.5,0c0.2,0,0.3,0.1,0.4,0.2
						c0.1,0.1,0.2,0.2,0.3,0.3s0.1,0.3,0.1,0.5h-0.8c0-0.2-0.1-0.3-0.2-0.3c-0.1-0.1-0.2-0.1-0.4-0.1c0,0-0.1,0-0.2,0s-0.1,0-0.2,0
						s-0.1,0-0.1,0.1c0,0,0,0.1,0,0.2c0,0.1,0,0.1,0.1,0.2c0.1,0,0.1,0.1,0.2,0.1c0.1,0,0.2,0.1,0.3,0.1s0.2,0,0.4,0.1
						c0.1,0,0.2,0.1,0.4,0.1c0.1,0,0.2,0.1,0.3,0.2s0.2,0.1,0.2,0.2s0.1,0.2,0.1,0.4c0,0.2,0,0.4-0.1,0.5c-0.1,0.1-0.2,0.2-0.3,0.3
						c-0.1,0.1-0.3,0.1-0.5,0.2c-0.2,0-0.3,0.1-0.5,0.1c-0.2,0-0.4,0-0.5-0.1c-0.2,0-0.3-0.1-0.5-0.2c-0.1-0.1-0.2-0.2-0.3-0.3
						c-0.1-0.1-0.1-0.3-0.1-0.5h0.8C204.3,34.5,204.3,34.5,204.3,34.6z"/>
					<path class="st30" d="M209.5,35.4l-0.6-2.1h0l-0.5,2.1h-0.9l-1-3.1h0.9l0.6,2.1h0l0.5-2.1h0.8l0.5,2.1h0l0.6-2.1h0.9l-1,3.1
						H209.5z"/>
					<path class="st30" d="M211.7,31.8v-0.7h0.9v0.7H211.7z M212.6,32.3v3.1h-0.9v-3.1H212.6z"/>
					<path class="st30" d="M215,32.3v0.6h-0.6v1.5c0,0.1,0,0.2,0.1,0.3c0,0,0.1,0.1,0.3,0.1c0,0,0.1,0,0.1,0s0.1,0,0.1,0v0.7
						c-0.1,0-0.2,0-0.2,0s-0.2,0-0.3,0c-0.1,0-0.3,0-0.4,0c-0.1,0-0.2-0.1-0.3-0.1c-0.1-0.1-0.2-0.1-0.2-0.2
						c-0.1-0.1-0.1-0.2-0.1-0.4v-1.8H213v-0.6h0.5v-0.9h0.9v0.9H215z"/>
					<path class="st30" d="M216.9,32.8c-0.1,0-0.2,0-0.3,0.1s-0.2,0.1-0.2,0.2c-0.1,0.1-0.1,0.2-0.1,0.3c0,0.1,0,0.2,0,0.4
						c0,0.1,0,0.2,0,0.3c0,0.1,0.1,0.2,0.1,0.3c0.1,0.1,0.1,0.2,0.2,0.2s0.2,0.1,0.3,0.1c0.2,0,0.4-0.1,0.5-0.2
						c0.1-0.1,0.2-0.3,0.2-0.5h0.8c-0.1,0.4-0.2,0.7-0.5,0.9c-0.3,0.2-0.6,0.3-1,0.3c-0.2,0-0.4,0-0.6-0.1c-0.2-0.1-0.4-0.2-0.5-0.3
						c-0.1-0.1-0.2-0.3-0.3-0.5c-0.1-0.2-0.1-0.4-0.1-0.6c0-0.2,0-0.5,0.1-0.7s0.2-0.4,0.3-0.5c0.1-0.1,0.3-0.3,0.5-0.4
						c0.2-0.1,0.4-0.1,0.7-0.1c0.2,0,0.4,0,0.5,0.1c0.2,0,0.3,0.1,0.5,0.2s0.2,0.2,0.3,0.4s0.1,0.3,0.1,0.5h-0.8
						C217.4,33,217.2,32.8,216.9,32.8z"/>
					<path class="st30" d="M219.7,31.1v1.6h0c0.1-0.2,0.2-0.3,0.4-0.4s0.3-0.1,0.5-0.1c0.2,0,0.4,0,0.6,0.1c0.1,0.1,0.3,0.1,0.3,0.3
						s0.1,0.2,0.2,0.4c0,0.2,0.1,0.3,0.1,0.5v1.9h-0.9v-1.8c0-0.3,0-0.4-0.1-0.6s-0.2-0.2-0.4-0.2c-0.2,0-0.4,0.1-0.5,0.2
						c-0.1,0.1-0.2,0.4-0.2,0.7v1.6h-0.9v-4.3H219.7z"/>
					<path class="st30" d="M223.3,34.6c0.1,0.1,0.3,0.2,0.6,0.2c0.2,0,0.3,0,0.4-0.1c0.1-0.1,0.2-0.2,0.2-0.3h0.8
						c-0.1,0.4-0.3,0.6-0.6,0.8c-0.2,0.2-0.5,0.2-0.9,0.2c-0.2,0-0.5,0-0.7-0.1c-0.2-0.1-0.4-0.2-0.5-0.3c-0.1-0.1-0.2-0.3-0.3-0.5
						c-0.1-0.2-0.1-0.4-0.1-0.7c0-0.2,0-0.4,0.1-0.6c0.1-0.2,0.2-0.4,0.3-0.5c0.1-0.1,0.3-0.3,0.5-0.3c0.2-0.1,0.4-0.1,0.6-0.1
						c0.3,0,0.5,0.1,0.7,0.2c0.2,0.1,0.4,0.2,0.5,0.4s0.2,0.4,0.3,0.6c0.1,0.2,0.1,0.5,0.1,0.7h-2.2
						C223.1,34.3,223.2,34.5,223.3,34.6z M224.3,33c-0.1-0.1-0.3-0.2-0.5-0.2c-0.1,0-0.2,0-0.3,0.1c-0.1,0-0.2,0.1-0.2,0.2
						c-0.1,0.1-0.1,0.1-0.1,0.2c0,0.1,0,0.1,0,0.2h1.4C224.4,33.3,224.4,33.1,224.3,33z"/>
					<path class="st30" d="M226.5,34.6c0,0.1,0.1,0.1,0.1,0.2c0.1,0,0.1,0.1,0.2,0.1c0.1,0,0.2,0,0.2,0c0.1,0,0.1,0,0.2,0
						c0.1,0,0.1,0,0.2-0.1c0.1,0,0.1-0.1,0.1-0.1c0-0.1,0.1-0.1,0.1-0.2c0-0.1-0.1-0.2-0.3-0.3c-0.2-0.1-0.4-0.1-0.7-0.2
						c-0.1,0-0.2-0.1-0.4-0.1s-0.2-0.1-0.3-0.1s-0.2-0.1-0.2-0.2c-0.1-0.1-0.1-0.2-0.1-0.3c0-0.2,0-0.4,0.1-0.5
						c0.1-0.1,0.2-0.2,0.3-0.3c0.1-0.1,0.3-0.1,0.4-0.2c0.2,0,0.3,0,0.5,0s0.3,0,0.5,0c0.2,0,0.3,0.1,0.4,0.2
						c0.1,0.1,0.2,0.2,0.3,0.3s0.1,0.3,0.1,0.5h-0.8c0-0.2-0.1-0.3-0.2-0.3c-0.1-0.1-0.2-0.1-0.4-0.1c0,0-0.1,0-0.2,0s-0.1,0-0.2,0
						s-0.1,0-0.1,0.1c0,0,0,0.1,0,0.2c0,0.1,0,0.1,0.1,0.2c0.1,0,0.1,0.1,0.2,0.1c0.1,0,0.2,0.1,0.3,0.1s0.2,0,0.4,0.1
						c0.1,0,0.2,0.1,0.4,0.1c0.1,0,0.2,0.1,0.3,0.2s0.2,0.1,0.2,0.2s0.1,0.2,0.1,0.4c0,0.2,0,0.4-0.1,0.5c-0.1,0.1-0.2,0.2-0.3,0.3
						c-0.1,0.1-0.3,0.1-0.5,0.2c-0.2,0-0.3,0.1-0.5,0.1c-0.2,0-0.4,0-0.5-0.1c-0.2,0-0.3-0.1-0.5-0.2c-0.1-0.1-0.2-0.2-0.3-0.3
						c-0.1-0.1-0.1-0.3-0.1-0.5h0.8C226.5,34.5,226.5,34.5,226.5,34.6z"/>
				</g>
			</g>
		</g>
	</g>
</g>
</svg>
