<?xml version="1.0" encoding="utf-8"?>
<!-- Generator: Adobe Illustrator 26.0.3, SVG Export Plug-In . SVG Version: 6.00 Build 0)  -->
<svg version="1.1" id="Layer_1" xmlns="http://www.w3.org/2000/svg" xmlns:xlink="http://www.w3.org/1999/xlink" x="0px" y="0px"
	 viewBox="0 0 67.67568 195.75398" style="enable-background:new 0 0 67.67568 195.75398;" xml:space="preserve">
<style type="text/css">
	.st0{fill:#262626;}
	.st1{fill:#404040;}
	.st2{fill:#FFFFFF;}
	.st3{fill:none;stroke:#4D4E4E;stroke-width:0.49932;stroke-miterlimit:10;}
	.st4{fill:#4D4E4E;}
	.st5{fill:#00FF00;}
	.st6{fill:#FF7500;}
	.st7{fill:#149FF4;}
	.st8{fill-rule:evenodd;clip-rule:evenodd;fill:#FFFFFF;}
	.st9{fill:#37B34A;}
</style>
<g>
	<g>
		<path class="st0" d="M57.08394,186.65927H12.07827V7.55692h45.00567C57.08394,7.55692,66.31204,87.43336,57.08394,186.65927z"/>
		<path class="st1" d="M55.7276,186.65927l-3.0709,1.85065l-41.93477-1.85065L6.34891,9.35818l4.37302-1.80126H55.7276
			c0,0,0.29983,2.59524,0.73735,7.43125C58.45471,36.98135,63.29232,105.31902,55.7276,186.65927z"/>
		<polygon class="st2" points="51.77279,115.98123 24.93654,115.98123 24.93654,99.87949 38.13174,99.87949 51.77279,99.87949 		"/>
		<line class="st3" x1="38.60423" y1="117.8621" x2="38.60423" y2="97.05462"/>
	</g>
	<g>
		<path class="st0" d="M52.70569,188.41057H7.70002V9.30822h45.00566C52.70569,9.30822,61.93379,89.18466,52.70569,188.41057z"/>
		<path class="st4" d="M51.34935,188.41057H6.34368V9.30822h45.00567C51.34935,9.30822,60.57745,89.18466,51.34935,188.41057z"/>
		<polygon class="st2" points="47.39454,117.73254 20.55829,117.73254 20.55829,101.63078 33.75349,101.63078 47.39454,101.63078 		
			"/>
		<circle class="st5" cx="25.70814" cy="65.84271" r="3.53109"/>
		<circle class="st6" cx="25.70814" cy="77.98965" r="3.53109"/>
		<circle class="st7" cx="25.70814" cy="90.13658" r="3.53109"/>
		<path class="st8" d="M36.53509,74.80034c0-0.46479-0.34859-0.69724-0.69718-0.69724c-0.34862,0-0.69721,0.34868-0.69721,0.69724
			l0.46479,4.29943c0,0.23244,0.1162,0.23244,0.23242,0.23244c0.1162,0,0.2324-0.11623,0.2324-0.23244L36.53509,74.80034
			 M36.65131,80.95892c0-0.46478-0.34862-0.81335-0.81341-0.81335c-0.46482,0-0.81341,0.34856-0.81341,0.81335
			c0,0.34868,0.34859,0.69724,0.81341,0.69724C36.3027,81.65616,36.65131,81.30759,36.65131,80.95892z"/>
		<line class="st3" x1="34.22598" y1="119.6134" x2="34.22598" y2="98.80592"/>
		<path class="st8" d="M39.20735,64.73525c-0.46479-1.85915-2.44022-2.90506-4.29943-2.44017
			c-1.97541,0.58102-3.02124,2.55639-2.44022,4.41555c0.58101,1.85926,2.55642,2.90507,4.41563,2.44028
			C38.74257,68.56989,39.78836,66.59452,39.20735,64.73525 M38.74257,65.4325c0.2324,1.51058-0.92963,3.02117-2.55645,3.1374
			c-1.162,0.23245-2.44022-0.46478-2.90501-1.62682l1.97541-1.97537l0.8134,3.13741L38.74257,65.4325z M32.93252,66.12962
			c-0.11623-1.6267,0.9296-3.1374,2.55642-3.25351c1.27819-0.23245,2.44022,0.46479,3.02121,1.62681l-1.97541,1.97538
			l-0.81341-3.13741L32.93252,66.12962z"/>
		<path class="st8" d="M39.43271,90.01582c0-1.94002-1.59769-3.5377-3.65185-3.5377c-1.94007,0-3.53776,1.59769-3.53776,3.5377
			c0,2.05416,1.59769,3.65185,3.53776,3.65185C37.83502,93.66766,39.43271,92.06998,39.43271,90.01582z M38.51978,90.01582
			c0,1.59769-1.25537,2.73891-2.73891,2.73891c-1.4836,0-2.73891-1.14123-2.73891-2.73891
			c0-1.48355,1.25531-2.62477,2.73891-2.62477C37.26441,87.39104,38.51978,88.53226,38.51978,90.01582z M36.35147,89.33112
			c0,0.34238-0.22829,0.57061-0.57061,0.57061c-0.34238,0-0.57061-0.22823-0.57061-0.57061
			c0-0.34238,0.22823-0.57062,0.57061-0.57062C36.12318,88.7605,36.35147,88.98873,36.35147,89.33112z M34.63964,90.01582
			l1.02708,2.05416c0,0,0.11414,0.11414,0.22823,0l1.14122-2.05416c0.34238-0.6847,0-1.48355-0.57061-1.82593
			c-0.6847-0.34238-1.48355-0.11409-1.82593,0.57061C34.4114,89.10288,34.4114,89.55935,34.63964,90.01582z"/>
	</g>
</g>
<g>
	<path class="st9" d="M25.23177,108.73114l-0.87274,0.77197l-0.83907-0.77197v-3.42969l0.83907-0.75732l0.87274,0.75732V108.73114z
		 M25.23177,113.91229l-0.87274,0.75732l-0.83907-0.75732v-3.42969l0.83907-0.77197l0.87274,0.77197V113.91229z M30.2336,104.42548
		l-0.85618,0.77197h-4.01151l-0.8893-0.77197l0.87274-0.75732h4.02807L30.2336,104.42548z M30.2336,114.78827l-0.85618,0.75732
		h-4.01151l-0.8893-0.75732l0.87274-0.77197h4.02807L30.2336,114.78827z M31.22392,108.73114l-0.87274,0.77197l-0.85618-0.77197
		v-3.42969l0.85618-0.75732l0.87274,0.75732V108.73114z M31.22392,113.91229l-0.87274,0.75732l-0.85618-0.75732v-3.42969
		l0.85618-0.77197l0.87274,0.77197V113.91229z"/>
</g>
<g>
	<path class="st9" d="M38.96671,108.73114l-0.87274,0.77197l-0.83907-0.77197v-3.42969l0.83907-0.75732l0.87274,0.75732V108.73114z
		 M38.96671,113.91229l-0.87274,0.75732l-0.83907-0.75732v-3.42969l0.83907-0.77197l0.87274,0.77197V113.91229z M43.96853,104.42548
		l-0.85618,0.77197h-4.01151l-0.8893-0.77197l0.87274-0.75732h4.02807L43.96853,104.42548z M43.96853,114.78827l-0.85618,0.75732
		h-4.01151l-0.8893-0.75732l0.87274-0.77197h4.02807L43.96853,114.78827z M44.95885,108.73114l-0.87274,0.77197l-0.85618-0.77197
		v-3.42969l0.85618-0.75732l0.87274,0.75732V108.73114z M44.95885,113.91229l-0.87274,0.75732l-0.85618-0.75732v-3.42969
		l0.85618-0.77197l0.87274,0.77197V113.91229z"/>
</g>
</svg>
