<?xml version="1.0" encoding="UTF-8"?><svg id="a" xmlns="http://www.w3.org/2000/svg" width="4.01in" height="1.71in" viewBox="0 0 288.53 123.36"><path d="m32.52,94.39l224.52,28.75,4.94-11.5,3.17,1.19,16.51-22.19,2.12-36.06-135.69-8.41-98.49,5.05.22,3.2-5.82-.77-2.32,13.73,9,1.16-.3,2.11-15.15,2.05s-5.05.86-4.08,6.75,1.37,14.94,1.37,14.94Z" fill="#fff" stroke-width="0"/><line x1="258.13" y1="111.8" x2="53.16" y2="89.48" fill="none" stroke="#919395" stroke-miterlimit="10" stroke-width=".37"/><polyline points="49.88 54.51 49.84 51.67 269.44 65.98 264.6 112.5 262.34 112.31" fill="none" stroke="#919395" stroke-linecap="round" stroke-linejoin="round" stroke-width=".53"/><line x1="50.11" y1="70.49" x2="49.99" y2="60.78" fill="none" stroke="#919395" stroke-linecap="round" stroke-linejoin="round" stroke-width=".53"/><path d="m55.17,69.82l-20.62,2.91s-3.5.86-3.34,6.49c.17,5.63.78,15.02.78,15.02l1.51-.37,21.77-5.31" fill="#e5e6e6" stroke="#221f1f" stroke-miterlimit="10" stroke-width=".53"/><path d="m257.77,122.3l6.26-14.2-.83.5-.69-.62.5-5.15,1.46-13.82-.04-.79-1.12-.14-3.21,4.83s-1.16,1.21-1.07,2.87l-1.28,26.3c-.29,1.49-2.63.91-2.63.91l-223.05-28.62,14.4-3.57,211.6,24.51" fill="#e5e6e6" stroke="#221f1f" stroke-linecap="round" stroke-linejoin="round" stroke-width=".53"/><path d="m55.11,55.21l-10.62-1.09s-.95-.04-1.05,1.16-1.93,10.83-1.93,10.83c0,0-.31,1.39.97,1.65,1.27.26,7.41.51,7.41.51" fill="none" stroke="#919395" stroke-linecap="round" stroke-linejoin="round" stroke-width=".53"/><path d="m47.83,68.18c-1.56-.35-1.04-2.23-1.04-2.23l1.68-10.51s.14-.78.84-.75" fill="none" stroke="#919395" stroke-linecap="round" stroke-linejoin="round" stroke-width=".53"/><path d="m269.01,69.54l-7.7-.62-1,.19-1.46,16.46s-.26,1.17.97,1.19c1.84.02,7.17.67,7.17.67" fill="none" stroke="#919395" stroke-miterlimit="10" stroke-width=".53"/><path d="m266,87.62l-1.95,20.35s-.68,1.25-1.56-.06l2.14-20.53" fill="none" stroke="#919395" stroke-miterlimit="10" stroke-width=".53"/><polyline points="264.51 88.25 259.74 87.83 259.83 86.77" fill="none" stroke="#919395" stroke-miterlimit="10" stroke-width=".53"/><line x1="261.76" y1="66.74" x2="261.57" y2="68.87" fill="none" stroke="#919395" stroke-miterlimit="10" stroke-width=".37"/><line x1="265.15" y1="67" x2="264.96" y2="69.13" fill="none" stroke="#919395" stroke-miterlimit="10" stroke-width=".53"/><line x1="60.53" y1="53.45" x2="60.62" y2="90.16" fill="none" stroke="#919395" stroke-linecap="round" stroke-linejoin="round" stroke-width=".53"/><line x1="55.04" y1="61.23" x2="50.07" y2="60.85" fill="none" stroke="#919395" stroke-linecap="round" stroke-linejoin="round" stroke-width=".53"/><line x1="253.7" y1="77.37" x2="196.59" y2="72.38" fill="none" stroke="#919395" stroke-miterlimit="10" stroke-width=".37"/><line x1="253.1" y1="81.7" x2="196.66" y2="76.46" fill="none" stroke="#919395" stroke-miterlimit="10" stroke-width=".37"/><polyline points="264.6 112.5 283.73 79.32 286.13 43.28" fill="none" stroke="#919395" stroke-linecap="round" stroke-linejoin="round" stroke-width=".53"/><path d="m32.42,55.96l17.69-5.84,216.48,13.95,3.24,1.08,16.49-23.25,1.62-36.77L121.65.07,49.19,11.35l.27,3.24-5.95-.54-2.16,14.06,9.19.81-.27,2.16-15.41,2.7s-5.14,1.08-4.06,7.03c1.08,5.95,1.62,15.14,1.62,15.14Z" fill="#fff" stroke-width="0"/><line x1="269.33" y1="64.72" x2="50.11" y2="49.84" fill="none" stroke="#919395" stroke-miterlimit="10" stroke-width=".37"/><polyline points="49.53 14.67 49.44 11.79 273.51 17.31 269.27 64.84" fill="none" stroke="#919395" stroke-linecap="round" stroke-linejoin="round" stroke-width=".53"/><line x1="49.99" y1="49.71" x2="49.73" y2="21.04" fill="none" stroke="#919395" stroke-linecap="round" stroke-linejoin="round" stroke-width=".53"/><path d="m54.87,15.17l-10.84-.67s-.97,0-1.05,1.22-1.81,11.1-1.81,11.1c0,0-.29,1.43,1.01,1.64,1.3.21,7.57.21,7.57.21" fill="none" stroke="#919395" stroke-miterlimit="10" stroke-width=".53"/><path d="m47.64,28.67c-1.6-.29-1.09-2.23-1.09-2.23l1.56-10.76s.13-.8.84-.8" fill="none" stroke="#919395" stroke-miterlimit="10" stroke-width=".53"/><path d="m273.13,20.95l-7.86-.31-1.01.23-1.25,16.81s-.25,1.2,1.01,1.17c1.87-.05,7.31.39,7.31.39" fill="none" stroke="#919395" stroke-miterlimit="10" stroke-width=".53"/><path d="m270.33,39.46l-1.68,20.78s-.67,1.3-1.59,0l1.88-20.97" fill="none" stroke="#919395" stroke-miterlimit="10" stroke-width=".53"/><polyline points="268.82 40.16 263.95 39.94 264.02 38.85" fill="none" stroke="#919395" stroke-miterlimit="10" stroke-width=".53"/><line x1="265.69" y1="18.4" x2="265.53" y2="20.57" fill="none" stroke="#919395" stroke-miterlimit="10" stroke-width=".53"/><line x1="269.15" y1="18.53" x2="268.99" y2="20.7" fill="none" stroke="#919395" stroke-miterlimit="10" stroke-width=".53"/><line x1="60.37" y1="13.16" x2="61" y2="50.49" fill="none" stroke="#919395" stroke-linecap="round" stroke-linejoin="round" stroke-width=".53"/><line x1="54.88" y1="21.12" x2="49.81" y2="20.93" fill="none" stroke="#919395" stroke-miterlimit="10" stroke-width=".53"/><path d="m49.44,11.79L122.45.27l165.82,4.66-14.94,13.63L58.12,13.02l-1.11.41c-2.09,0-1.96,2.26-1.96,2.26l.6,34.38" fill="none" stroke="#919395" stroke-linecap="round" stroke-linejoin="round" stroke-width=".53"/><polyline points="269.27 64.84 286.14 43.03 288.27 4.92" fill="none" stroke="#919395" stroke-linecap="round" stroke-linejoin="round" stroke-width=".53"/><line x1="180.68" y1="74.71" x2="132.04" y2="72.4" fill="none" stroke="#a01d26" stroke-miterlimit="10" stroke-width=".37"/><line x1="55.79" y1="89.85" x2="55.51" y2="59.29" fill="none" stroke="#919395" stroke-linecap="round" stroke-linejoin="round" stroke-width=".53"/><line x1="269.44" y1="65.98" x2="286.05" y2="44.64" fill="none" stroke="#919395" stroke-miterlimit="10" stroke-width=".53"/><path d="m32.35,33.96s1.73.61.81,2.84c0,0-2.64,1.32-.3,2.34,0,0,1.02.71.71,2.84l-.81,1.02v2.34l1.12.91s.51,2.54-.51,3.55c0,0-1.83.3-1.62,1.52,0,0,.1.51,1.22.41,0,0,1.42.1,1.42,1.32,0,0,.3,1.42-1.93,1.93-2.23.51-30.86,8.12-30.86,8.12L.27,43.91s-.3-3.86,4.06-4.77c4.37-.91,28.02-5.18,28.02-5.18Z" fill="#e5e6e6" stroke-width="0"/><polygon points="23.44 42.72 23.64 50.4 31.76 48.35 31.71 46.51 28.95 47.15 28.87 43.47 31.6 42.84 31.53 41 23.44 42.72" fill="#fff" stroke-width="0"/><ellipse cx="19.69" cy="44.61" rx=".57" ry=".89" fill="#fff" stroke-width="0"/><ellipse cx="19.69" cy="50.5" rx=".57" ry=".89" fill="#fff" stroke-width="0"/><polygon points="29.56 44.09 29.65 46.23 32.06 45.7 32.04 43.51 29.56 44.09" fill="#fff" stroke-width="0"/><path d="m253.73,82.92c-.19,2.15-2.53,1.78-2.53,1.78L1.69,64.32l-.1-1.21,14.79-3.93,235.3,18.04.31-4.38,1.3-9.82.62.07.26.02c.27-3.78.4-.85.49-1.91.29-3.33.92-6.35.92-6.35l8.43-12.48-.28,2.81-1.34,19.89-8.66,17.86" fill="#e5e6e6" stroke-width="0"/><path d="m32.35,33.96s1.73.61.81,2.84c0,0-2.64,1.32-.3,2.34,0,0,1.02.71.71,2.84l-.81,1.02v2.34l1.12.91s.51,2.54-.51,3.55c0,0-1.83.3-1.62,1.52,0,0,.1.51,1.22.41,0,0,1.42.1,1.42,1.32,0,0,.3,1.42-1.93,1.93-2.23.51-30.86,8.12-30.86,8.12L.27,43.91s-.3-3.86,4.06-4.77c4.37-.91,28.02-5.18,28.02-5.18Z" fill="none" stroke="#221f1f" stroke-miterlimit="10" stroke-width=".53"/><polygon points="23.44 42.72 23.64 50.4 31.76 48.35 31.71 46.51 28.95 47.15 28.87 43.47 31.6 42.84 31.53 41 23.44 42.72" fill="none" stroke="#221f1f" stroke-linecap="round" stroke-linejoin="round" stroke-width=".39"/><ellipse cx="19.69" cy="44.61" rx=".57" ry=".89" fill="none" stroke="#221f1f" stroke-miterlimit="10" stroke-width=".39"/><ellipse cx="19.69" cy="50.5" rx=".57" ry=".89" fill="none" stroke="#221f1f" stroke-miterlimit="10" stroke-width=".39"/><polygon points="29.56 44.09 29.65 46.23 32.06 45.7 32.04 43.51 29.56 44.09" fill="none" stroke="#221f1f" stroke-linecap="round" stroke-linejoin="round" stroke-width=".39"/><line x1="16.38" y1="59.17" x2="251.67" y2="77.21" fill="none" stroke="#221f1f" stroke-miterlimit="10" stroke-width=".53"/><path d="m263.54,44.27l-7.28,11.28-2.53,27.12c-.19,2.15-2.53,1.78-2.53,1.78L1.69,64.07l-.1-1.21" fill="none" stroke="#221f1f" stroke-miterlimit="10" stroke-width=".53"/><path d="m253.73,82.92l8.62-17.8s.73-2.7.27-3.71c-.46-1.01-.17-2.64-.17-2.64,0,0,.67-2.73.42-3.52s-.04-3.78-.04-3.78c0,0,.76-2.94.59-3.99s.37-4.89.37-4.89l-8.33,12.66s-.41.74-.7,4.07c-.29,3.36-1.96,23.04-1.96,23.04,0,0-.09.65-.94,1.03L2.34,63.01" fill="none" stroke="#221f1f" stroke-linecap="round" stroke-linejoin="round" stroke-width=".53"/><polyline points="253.9 63.08 253.28 63.01 251.98 72.83 251.36 83.13" fill="none" stroke="#221f1f" stroke-miterlimit="10" stroke-width=".39"/><path d="m12.51,63.65l6.68-2.12s.89-.48,3.63-.27c2.74.21,215.36,16.11,215.36,16.11,0,0,2.19.34,2.05,1.37-.14,1.03-1.59,2.95-1.59,2.95" fill="none" stroke="#221f1f" stroke-linecap="round" stroke-linejoin="round" stroke-width=".53"/><path d="m105.9,61.67c-4.71,4.13-2.03,8.17-2.03,8.17l1.61.46s-2.1-2.73-1.31-4.69c0,0,1.66-4.4,7.46-5.63,0,0,6.03-1.41,10.65,3.68,0,0,3.81,3.89,3.2,8.03l2.37-1.64c.34-2.59-.79-4.69-1.43-5.78-.29-.5-2.68-4.37-7.55-5.45-4.03-.89-7.37.37-7.37.37,0,0-4.57,1.57-5.6,2.48Z" fill="#e5e6e6" stroke="#221f1f" stroke-linecap="round" stroke-linejoin="round" stroke-width=".38"/><path d="m110.01,60.46s-5.63,4.19-1.91,8.36l-2.41,1.61-.76-.78s-1.49-2.71-.54-4.47c0,0,1.96-3.58,5.62-4.72Z" fill="#e5e6e6" stroke="#221f1f" stroke-linecap="round" stroke-linejoin="round" stroke-width=".38"/><path d="m138.51,64.21c-4.88,4.13-2.1,8.17-2.1,8.17l1.67.46s-2.18-2.73-1.35-4.69c0,0,1.72-4.4,7.73-5.64,0,0,6.25-1.41,11.04,3.68,0,0,3.95,3.89,3.32,8.03l2.46-1.64c.36-2.59-.82-4.69-1.48-5.78-.3-.5-2.78-4.37-7.83-5.45-4.18-.89-7.64.37-7.64.37,0,0-4.74,1.57-5.81,2.48Z" fill="#e5e6e6" stroke="#221f1f" stroke-linecap="round" stroke-linejoin="round" stroke-width=".39"/><path d="m142.77,62.99s-5.84,4.19-1.98,8.36l-2.5,1.61-.79-.78s-1.55-2.71-.56-4.47c0,0,2.03-3.58,5.83-4.72Z" fill="#e5e6e6" stroke="#221f1f" stroke-linecap="round" stroke-linejoin="round" stroke-width=".38"/><path d="m173.69,66.68c-5.27,4.18-2.4,8.41-2.4,8.41l1.77.51s-2.26-2.87-1.35-4.88c0,0,1.92-4.52,8.33-5.68,0,0,6.67-1.33,11.66,4.03,0,0,4.12,4.1,3.37,8.37l2.64-1.64c.43-2.67-.78-4.87-1.46-6.01-.31-.52-2.86-4.58-8.21-5.79-4.42-1-8.13.23-8.13.23,0,0-5.07,1.53-6.22,2.45Z" fill="#e5e6e6" stroke="#221f1f" stroke-linecap="round" stroke-linejoin="round" stroke-width=".41"/><path d="m178.24,65.5s-6.29,4.22-2.27,8.61l-2.69,1.62-.82-.82s-1.59-2.83-.5-4.64c0,0,2.23-3.66,6.29-4.77Z" fill="#e5e6e6" stroke="#221f1f" stroke-linecap="round" stroke-linejoin="round" stroke-width=".38"/><path d="m211.7,69.05c-5.83,4.44-2.72,9.03-2.72,9.03l1.93.57s-2.45-3.12-1.43-5.27c0,0,2.16-4.84,9.21-6.02,0,0,7.33-1.36,12.75,4.47,0,0,4.48,4.46,3.61,9.05l2.92-1.74c.5-2.87-.8-5.25-1.54-6.49-.33-.56-3.09-4.96-8.95-6.33-4.84-1.13-8.92.16-8.92.16,0,0-5.58,1.59-6.86,2.56Z" fill="#e5e6e6" stroke="#221f1f" stroke-linecap="round" stroke-linejoin="round" stroke-width=".45"/><path d="m216.71,67.84s-6.95,4.47-2.58,9.25l-2.97,1.71-.9-.89s-1.72-3.07-.5-5c0,0,2.49-3.91,6.95-5.07Z" fill="#e5e6e6" stroke="#221f1f" stroke-linecap="round" stroke-linejoin="round" stroke-width=".38"/><path d="m116.91,95.26c-4.71,3.84-2.26,7.85-2.26,7.85l1.55.51s-1.94-2.73-1.1-4.6c0,0,1.77-4.21,7.44-5.2,0,0,5.89-1.15,10.2,3.95,0,0,3.56,3.91,2.82,7.9l2.36-1.5c.43-2.5-.6-4.58-1.18-5.66-.26-.49-2.44-4.34-7.13-5.55-3.88-1-7.16.1-7.16.1,0,0-4.49,1.36-5.52,2.2Z" fill="#e5e6e6" stroke="#221f1f" stroke-linecap="round" stroke-linejoin="round" stroke-width=".37"/><path d="m120.94,94.23s-5.61,3.86-2.15,8.04l-2.4,1.48-.71-.78s-1.35-2.68-.36-4.36c0,0,2.03-3.4,5.62-4.38Z" fill="#e5e6e6" stroke="#221f1f" stroke-linecap="round" stroke-linejoin="round" stroke-width=".37"/><path d="m148.44,98.88c-4.88,3.83-2.33,7.85-2.33,7.85l1.6.51s-2.01-2.73-1.15-4.6c0,0,1.83-4.2,7.7-5.19,0,0,6.11-1.15,10.57,3.96,0,0,3.69,3.91,2.93,7.9l2.44-1.5c.44-2.5-.63-4.58-1.23-5.66-.27-.49-2.54-4.34-7.4-5.56-4.02-1.01-7.42.09-7.42.09,0,0-4.65,1.36-5.72,2.2Z" fill="#e5e6e6" stroke="#221f1f" stroke-linecap="round" stroke-linejoin="round" stroke-width=".37"/><path d="m152.61,97.86s-5.81,3.85-2.22,8.04l-2.48,1.47-.74-.78s-1.41-2.68-.38-4.36c0,0,2.1-3.4,5.82-4.37Z" fill="#e5e6e6" stroke="#221f1f" stroke-linecap="round" stroke-linejoin="round" stroke-width=".37"/><path d="m182.47,102.53c-5.26,3.86-2.62,8.07-2.62,8.07l1.69.56s-2.09-2.87-1.13-4.78c0,0,2.02-4.31,8.28-5.21,0,0,6.51-1.06,11.16,4.32,0,0,3.85,4.12,2.97,8.24l2.62-1.5c.51-2.58-.58-4.75-1.2-5.88-.28-.51-2.61-4.54-7.76-5.91-4.25-1.13-7.89-.06-7.89-.06,0,0-4.97,1.3-6.12,2.15Z" fill="#e5e6e6" stroke="#221f1f" stroke-linecap="round" stroke-linejoin="round" stroke-width=".37"/><path d="m186.92,101.55s-6.25,3.86-2.51,8.27l-2.67,1.47-.77-.82s-1.44-2.8-.32-4.51c0,0,2.29-3.47,6.27-4.4Z" fill="#e5e6e6" stroke="#221f1f" stroke-linecap="round" stroke-linejoin="round" stroke-width=".37"/><path d="m219.25,106.18c-5.81,4.1-2.96,8.66-2.96,8.66l1.85.62s-2.27-3.11-1.19-5.16c0,0,2.26-4.62,9.14-5.51,0,0,7.16-1.06,12.21,4.79,0,0,4.19,4.49,3.17,8.91l2.89-1.58c.59-2.77-.59-5.12-1.26-6.35-.3-.56-2.82-4.92-8.46-6.46-4.66-1.27-8.66-.16-8.66-.16,0,0-5.47,1.34-6.74,2.24Z" fill="#e5e6e6" stroke="#221f1f" stroke-linecap="round" stroke-linejoin="round" stroke-width=".37"/><path d="m224.15,105.19s-6.9,4.09-2.83,8.88l-2.94,1.55-.84-.9s-1.56-3.04-.31-4.87c0,0,2.55-3.71,6.92-4.66Z" fill="#e5e6e6" stroke="#221f1f" stroke-linecap="round" stroke-linejoin="round" stroke-width=".37"/><line x1="34.44" y1="34.1" x2="55" y2="29.94" fill="none" stroke="#fff" stroke-dasharray="0 .79" stroke-linecap="round" stroke-linejoin="round" stroke-width="1.86"/><line x1="34.44" y1="34.1" x2="55" y2="29.94" fill="none" stroke="#221f1f" stroke-dasharray="0 0 .79 1.86" stroke-linecap="round" stroke-linejoin="round" stroke-width=".75"/><line x1="35.45" y1="53.43" x2="55" y2="48.79" fill="none" stroke="#fff" stroke-dasharray="0 .79" stroke-linecap="round" stroke-linejoin="round" stroke-width="1.86"/><line x1="35.45" y1="53.43" x2="55" y2="48.79" fill="none" stroke="#221f1f" stroke-dasharray="0 0 .79 1.86" stroke-linecap="round" stroke-linejoin="round" stroke-width=".75"/><polyline points="262.61 57.97 260.15 62.22 260.15 57.39 262.64 53.25" fill="none" stroke="#221f1f" stroke-linecap="round" stroke-linejoin="round" stroke-width=".39"/><line x1="264.66" y1="45.44" x2="268.95" y2="40.39" fill="none" stroke="#fff" stroke-dasharray="0 .79" stroke-linecap="round" stroke-linejoin="round" stroke-width="1.86"/><line x1="264.66" y1="45.44" x2="268.95" y2="40.39" fill="none" stroke="#221f1f" stroke-dasharray="0 0 .79 1.86" stroke-linecap="round" stroke-linejoin="round" stroke-width=".75"/><line x1="263.91" y1="62.14" x2="268.21" y2="57.1" fill="none" stroke="#fff" stroke-dasharray="0 .79" stroke-linecap="round" stroke-linejoin="round" stroke-width="1.86"/><line x1="263.91" y1="62.14" x2="268.21" y2="57.1" fill="none" stroke="#221f1f" stroke-dasharray="0 0 .79 1.86" stroke-linecap="round" stroke-linejoin="round" stroke-width=".75"/><polygon points="31.03 29.71 36.87 24.54 30.77 21.29 30.76 23.31 20.16 25.26 20.29 29.47 30.96 27.58 31.03 29.71" fill="#010101" stroke-width="0"/><polygon points="18.89 23.24 13.04 28.4 19.15 31.65 19.16 29.63 29.75 27.68 29.62 23.47 18.95 25.36 18.89 23.24" fill="#010101" stroke-width="0"/></svg>