<?xml version="1.0" encoding="UTF-8"?><svg xmlns="http://www.w3.org/2000/svg" width="4in" height="1.804in" xmlns:xlink="http://www.w3.org/1999/xlink" viewBox="0 0 288 129.872"><defs><clipPath id="c"><rect x="117.292" y=".385" width="139.745" height="66.929" fill="none" stroke="#231f20" stroke-miterlimit="10" stroke-width=".77"/></clipPath></defs><g id="a"><path d="M5.198,81.375v.715c0,.357.071.715.214,1l1.358,2.787c.071.071.071.214.071.286v36.942h278.318v-36.942c0-.071,0-.214.071-.286l1.358-2.787c.214-.286.286-.643.286-1v-.715c0-1.286-1.072-2.358-2.358-2.358H7.556c-1.286,0-2.358,1.072-2.358,2.358Z" fill="#ccc" fill-rule="evenodd" stroke-width="0"/><polygon points="283.424 123.072 8.442 123.072 8.536 127.911 283.424 127.911 283.424 123.072" fill="#e6e6e6" fill-rule="evenodd" stroke-width="0"/><path d="M6.709,81.393c0-.387.357-.696.715-.696h2.599v40.18h-1.598v-34.304c0-.387-.071-.773-.214-1.16l-1.429-2.938c0-.155-.071-.232-.071-.309v-.773" fill="#231f20" fill-rule="evenodd" stroke-width="0"/><path d="M282.617,80.697h1.767c.357,0,.643.309.643.696v.773c0,.077,0,.155-.071.309l-1.358,2.938c-.214.387-.286.773-.286,1.16v34.633h-1.423l.728-40.509Z" fill="#231f20" fill-rule="evenodd" stroke-width="0"/><path d="M156.44,102.822c0,.429.214.857.572,1.072l.429.214c.429.286.643.643.643,1.143v13.291c0,1.358,1.143,2.501,2.572,2.501h114.185c1.429,0,2.572-1.143,2.572-2.501v-34.942c0-1.358-1.143-2.501-2.572-2.501h-115.9c-1.358,0-2.501,1.143-2.501,2.501v19.221" fill="#333" fill-rule="evenodd" stroke-width="0"/><path d="M286.849,85.822v37.258h-2.644c-.429,0-.786-.5-.786-1.215v-34.829c0-.715.357-1.215.786-1.215h2.644Z" fill="#e6e6e6" fill-rule="evenodd" stroke-width="0"/><path d="M7.771,85.822c.429,0,.786.5.786,1.215v34.829c0,.715-.357,1.215-.786,1.215h-2.644v-37.258h2.644Z" fill="#e6e6e6" fill-rule="evenodd" stroke-width="0"/><rect x="274.188" y="123.091" width="10.057" height="3.04" fill="#e6e6e6" stroke-width="0"/><rect x="274.188" y="126.187" width="13.812" height="2.314" fill="#d9d9d9" stroke-width="0"/><rect x="274.188" y="128.56" width="12.579" height="1.275" fill="#ccc" stroke-width="0"/><path d="M158.078,111.885h59.594v-30.797h-58.736c-1.358,0-2.501,1.143-2.501,2.501v19.221c0,.429.214.857.572,1.072l.429.214c.429.286.643.643.643,1.143v6.645" fill="#f2f2f2" fill-rule="evenodd" stroke-width="0"/><rect x="217.672" y="81.088" width="42.73" height="30.797" fill="#095fbd" stroke-width="0"/><rect x="14.655" y="81.031" width="138.623" height="42.516" rx="2.715" ry="2.715" fill="#333" stroke-width="0"/><path d="M17.388,123.551h91.034v-22.437H14.672v19.722c0,1.501,1.215,2.715,2.715,2.715" fill="#095fbd" fill-rule="evenodd" stroke-width="0"/><polyline points="24.176 106.544 24.176 119.692 101.133 119.692 101.133 106.544 24.176 106.544" fill="#1a1a1a" fill-rule="evenodd" stroke-width="0"/><rect x="81.561" y="107.554" width="18.554" height="11.061" fill="none" stroke="#d9d9d9" stroke-linecap="round" stroke-linejoin="round" stroke-width=".734"/><rect x="62.796" y="107.554" width="18.554" height="11.061" fill="none" stroke="#d9d9d9" stroke-linecap="round" stroke-linejoin="round" stroke-width=".734"/><rect x="44.03" y="107.554" width="18.554" height="11.061" fill="none" stroke="#d9d9d9" stroke-linecap="round" stroke-linejoin="round" stroke-width=".734"/><rect x="25.265" y="107.554" width="18.554" height="11.061" fill="none" stroke="#d9d9d9" stroke-linecap="round" stroke-linejoin="round" stroke-width=".734"/><path d="M39.497,104.256c0-.786-.643-1.358-1.358-1.358-.786,0-1.358.572-1.358,1.358,0,.715.572,1.358,1.358,1.358.715,0,1.358-.643,1.358-1.358" fill="#38b254" fill-rule="evenodd" stroke-width="0"/><path d="M31.494,104.256c0-.786-.643-1.358-1.358-1.358-.786,0-1.358.572-1.358,1.358,0,.715.572,1.358,1.358,1.358.715,0,1.358-.643,1.358-1.358Z" fill="#38b254" fill-rule="evenodd" stroke-width="0"/><path d="M58.504,104.256c0-.786-.643-1.358-1.358-1.358-.786,0-1.358.572-1.358,1.358,0,.715.572,1.358,1.358,1.358.715,0,1.358-.643,1.358-1.358Z" fill="#38b254" fill-rule="evenodd" stroke-width="0"/><path d="M50.501,104.256c0-.786-.643-1.358-1.358-1.358-.786,0-1.358.572-1.358,1.358,0,.715.572,1.358,1.358,1.358.715,0,1.358-.643,1.358-1.358Z" fill="#38b254" fill-rule="evenodd" stroke-width="0"/><path d="M77.511,104.256c0-.786-.643-1.358-1.358-1.358-.786,0-1.358.572-1.358,1.358,0,.715.572,1.358,1.358,1.358.715,0,1.358-.643,1.358-1.358Z" fill="#38b254" fill-rule="evenodd" stroke-width="0"/><path d="M69.508,104.256c0-.786-.643-1.358-1.358-1.358-.786,0-1.358.572-1.358,1.358,0,.715.572,1.358,1.358,1.358.715,0,1.358-.643,1.358-1.358Z" fill="#38b254" fill-rule="evenodd" stroke-width="0"/><path d="M96.446,104.256c0-.786-.572-1.358-1.358-1.358-.715,0-1.358.572-1.358,1.358,0,.715.643,1.358,1.358,1.358.786,0,1.358-.643,1.358-1.358Z" fill="#38b254" fill-rule="evenodd" stroke-width="0"/><path d="M88.515,104.256c0-.786-.643-1.358-1.358-1.358-.786,0-1.358.572-1.358,1.358,0,.715.572,1.358,1.358,1.358.715,0,1.358-.643,1.358-1.358Z" fill="#38b254" fill-rule="evenodd" stroke-width="0"/><rect x="24.977" y="82.838" width="25.152" height="17.649" rx=".929" ry=".929" fill="#e6e6e6" stroke-width="0"/><path d="M26.337,99.845h22.487c.286,0,.5-.286.5-.5v-15.291c0-.286-.214-.5-.5-.5h-22.487c-.286,0-.5.214-.5.5v15.291c0,.214.214.5.5.5Z" fill="none" stroke="#231f20" stroke-miterlimit="10" stroke-width=".385"/><polygon points="29.407 93.994 29.407 97.781 45.699 97.781 45.699 93.994 45.413 93.994 45.413 91.493 45.699 91.493 45.699 87.706 42.126 87.706 42.126 85.419 40.625 85.419 40.625 84.205 34.48 84.205 34.48 85.419 32.98 85.419 32.98 87.706 29.407 87.706 29.407 91.493 29.764 91.493 29.764 93.994 29.407 93.994" fill="#231f20" stroke-width="0"/><rect x="28.549" y="85.062" width="3.43" height="2.001" fill="#38b254" stroke-width="0"/><rect x="43.126" y="85.062" width="3.43" height="2.001" fill="#38b254" stroke-width="0"/><rect x="33.98" y="92.708" width=".357" height="4.716" fill="#ddd873" stroke-width="0"/><rect x="35.338" y="92.708" width=".357" height="4.716" fill="#ddd873" stroke-width="0"/><rect x="36.695" y="92.708" width=".357" height="4.716" fill="#ddd873" stroke-width="0"/><rect x="38.053" y="92.708" width=".357" height="4.716" fill="#ddd873" stroke-width="0"/><rect x="39.411" y="92.708" width=".357" height="4.716" fill="#ddd873" stroke-width="0"/><rect x="40.768" y="92.708" width=".357" height="4.716" fill="#ddd873" stroke-width="0"/><rect x="42.126" y="92.708" width=".429" height="4.716" fill="#ddd873" stroke-width="0"/><rect x="32.622" y="92.708" width=".357" height="4.716" fill="#ddd873" stroke-width="0"/><rect x="55.305" y="82.838" width="25.152" height="17.649" rx=".929" ry=".929" fill="#e6e6e6" stroke-width="0"/><path d="M56.665,99.845h22.487c.286,0,.5-.286.5-.5v-15.291c0-.286-.214-.5-.5-.5h-22.487c-.286,0-.5.214-.5.5v15.291c0,.214.214.5.5.5Z" fill="none" stroke="#231f20" stroke-miterlimit="10" stroke-width=".385"/><polygon points="59.735 93.994 59.735 97.781 76.027 97.781 76.027 93.994 75.741 93.994 75.741 91.493 76.027 91.493 76.027 87.706 72.454 87.706 72.454 85.419 70.954 85.419 70.954 84.205 64.808 84.205 64.808 85.419 63.308 85.419 63.308 87.706 59.735 87.706 59.735 91.493 60.092 91.493 60.092 93.994 59.735 93.994" fill="#231f20" stroke-width="0"/><rect x="64.308" y="92.708" width=".357" height="4.716" fill="#ddd873" stroke-width="0"/><rect x="65.666" y="92.708" width=".357" height="4.716" fill="#ddd873" stroke-width="0"/><rect x="67.023" y="92.708" width=".357" height="4.716" fill="#ddd873" stroke-width="0"/><rect x="68.381" y="92.708" width=".357" height="4.716" fill="#ddd873" stroke-width="0"/><rect x="69.739" y="92.708" width=".357" height="4.716" fill="#ddd873" stroke-width="0"/><rect x="71.096" y="92.708" width=".357" height="4.716" fill="#ddd873" stroke-width="0"/><rect x="72.454" y="92.708" width=".429" height="4.716" fill="#ddd873" stroke-width="0"/><rect x="62.951" y="92.708" width=".357" height="4.716" fill="#ddd873" stroke-width="0"/><path d="M90.855,100.288h16.935c.572,0,.929-.429.929-.929v-10.361c0-.5-.357-.929-.929-.929h-16.935c-.5,0-.929.429-.929.929v10.361c0,.5.429.929.929.929Z" fill="#e6e6e6" fill-rule="evenodd" stroke-width="0"/><rect x="92.713" y="91.642" width="13.219" height="5.073" rx="2.215" ry="2.215" fill="none" stroke="#1a1a1a" stroke-miterlimit="10" stroke-width=".77"/><path d="M94.999,95.858h8.646c.715,0,1.286-.572,1.286-1.215v-.929c0-.715-.572-1.215-1.286-1.215h-8.646c-.643,0-1.215.5-1.215,1.215v.929c0,.643.572,1.215,1.215,1.215Z" fill="#231f20" stroke-width="0"/><rect x="94.856" y="93.714" width="8.932" height=".929" fill="#6d6e71" stroke-width="0"/><rect x="118.455" y="88.826" width="24.938" height="12.719" rx=".929" ry=".929" fill="#e6e6e6" stroke-width="0"/><path d="M122.242,99.259h17.292c.286,0,.572-.286.572-.572v-7.074c0-.286-.286-.5-.572-.5h-17.292c-.286,0-.5.214-.5.5v7.074c0,.286.214.572.5.572Z" fill="#1a1a1a" fill-rule="evenodd" stroke-width="0"/><rect x="134.889" y="94.471" width="1.358" height=".715" fill="#ecc17d" stroke-width="0"/><rect x="131.602" y="94.471" width="1.286" height=".715" fill="#ecc17d" stroke-width="0"/><rect x="128.887" y="94.471" width="1.358" height=".715" fill="#ecc17d" stroke-width="0"/><rect x="125.6" y="94.471" width="1.286" height=".715" fill="#ecc17d" stroke-width="0"/><path d="M124.314,97.615h13.219c.429,0,.786-.357.786-.786v-1.643h-14.791v1.643c0,.429.357.786.786.786Z" fill="#0070c0" stroke-width="0"/><path d="M14.226,116.332v4.573c0,.286-.214.5-.5.5h-3.073c-.286,0-.5-.214-.5-.5v-38.3c0-.286.214-.5.5-.5h3.073c.286,0,.5.214.5.5v4.573h1.715v-4.573c0-1.215-1-2.215-2.215-2.215h-3.073c-1.215,0-2.215,1-2.215,2.215v38.3c0,1.215,1,2.215,2.215,2.215h3.073c1.215,0,2.215-1,2.215-2.215v-4.573h-1.715" fill="gray" fill-rule="evenodd" stroke-width="0"/><path d="M277.736,116.332h-1.715s0,4.573,0,4.573c0,1.215,1,2.215,2.215,2.215h3.073c1.215,0,2.215-1,2.215-2.215v-38.3c0-1.215-1-2.215-2.215-2.215h-3.073c-1.215,0-2.215,1-2.215,2.215v4.573s1.715,0,1.715,0v-4.573c0-.286.214-.5.5-.5h3.073c.286,0,.5.214.5.5v38.3c0,.286-.214.5-.5.5h-3.073c-.286,0-.5-.214-.5-.5v-4.573" fill="gray" fill-rule="evenodd" stroke-width="0"/><path d="M171.649,86.462c0-.929-.715-1.643-1.643-1.643-1,0-1.715.715-1.715,1.643s.715,1.715,1.715,1.715c.929,0,1.643-.786,1.643-1.715ZM177.58,86.462c0-.929-.715-1.643-1.643-1.643s-1.715.715-1.715,1.643.786,1.715,1.715,1.715,1.643-.786,1.643-1.715ZM191.442,86.462c0-.929-.786-1.643-1.715-1.643s-1.715.715-1.715,1.643.786,1.715,1.715,1.715,1.715-.786,1.715-1.715ZM197.373,86.462c0-.929-.786-1.643-1.715-1.643s-1.643.715-1.643,1.643.715,1.715,1.643,1.715,1.715-.786,1.715-1.715ZM205.948,86.462c0-.929-.786-1.643-1.715-1.643s-1.643.715-1.643,1.643.715,1.715,1.643,1.715,1.715-.786,1.715-1.715ZM211.878,86.462c0-.929-.786-1.643-1.715-1.643s-1.643.715-1.643,1.643.715,1.715,1.643,1.715,1.715-.786,1.715-1.715ZM227.384,86.391c0-.929-.715-1.715-1.643-1.715s-1.715.786-1.715,1.715.786,1.715,1.715,1.715,1.643-.786,1.643-1.715ZM236.602,86.391c0-.929-.786-1.715-1.715-1.715s-1.715.786-1.715,1.715.786,1.715,1.715,1.715,1.715-.786,1.715-1.715ZM246.177,86.391c0-.929-.786-1.715-1.715-1.715s-1.715.786-1.715,1.715.786,1.715,1.715,1.715,1.715-.786,1.715-1.715ZM255.323,86.391c0-.929-.786-1.715-1.715-1.715s-1.643.786-1.643,1.715.715,1.715,1.643,1.715,1.715-.786,1.715-1.715Z" fill="#38b254" fill-rule="evenodd" stroke-width="0"/><path d="M165.939,106.131h14.22c.5,0,.857-.429.857-.857v-14.22c0-.5-.357-.857-.857-.857h-14.22c-.5,0-.857.357-.857.857v14.22c0,.429.357.857.857.857Z" fill="#1a1a1a" fill-rule="evenodd" stroke-width="0"/><path d="M166.153,105.345h13.719c.214,0,.357-.143.357-.357v-13.719c0-.143-.143-.286-.357-.286h-13.719c-.143,0-.286.143-.286.286v13.719c0,.214.143.357.286.357" fill="none" fill-rule="evenodd" stroke="#e6e6e6" stroke-miterlimit="10" stroke-width=".385"/><rect x="167.082" y="92.911" width="11.933" height="10.647" fill="#595959" stroke-width="0"/><path d="M167.797,101.7h10.504v-1.643h-10.504v1.643ZM167.797,96.341h10.504v-1.572h-10.504v1.572Z" fill="#262626" fill-rule="evenodd" stroke-width="0"/><path d="M175.943,102.058h.214v-.857h-.214v.857ZM174.871,102.058h.286v-.857h-.286v.857ZM173.871,102.058h.286v-.857h-.286v.857ZM172.87,102.058h.286v-.857h-.286v.857ZM171.87,102.058h.286v-.857h-.286v.857ZM170.869,102.058h.286v-.857h-.286v.857ZM169.869,102.058h.286v-.857h-.286v.857ZM176.943,102.058h.214v-.857h-.214v.857ZM168.869,102.058h.286v-.857h-.286v.857ZM175.943,100.557h.214v-.857h-.214v.857ZM174.871,100.557h.286v-.857h-.286v.857ZM173.871,100.557h.286v-.857h-.286v.857ZM172.87,100.557h.286v-.857h-.286v.857ZM171.87,100.557h.286v-.857h-.286v.857ZM170.869,100.557h.286v-.857h-.286v.857ZM169.869,100.557h.286v-.857h-.286v.857ZM176.943,100.557h.214v-.857h-.214v.857ZM168.869,100.557h.286v-.857h-.286v.857ZM175.943,96.77h.214v-.857h-.214v.857ZM174.871,96.77h.286v-.857h-.286v.857ZM173.871,96.77h.286v-.857h-.286v.857ZM172.87,96.77h.286v-.857h-.286v.857ZM171.87,96.77h.286v-.857h-.286v.857ZM170.869,96.77h.286v-.857h-.286v.857ZM169.869,96.77h.286v-.857h-.286v.857ZM176.943,96.77h.214v-.857h-.214v.857ZM168.869,96.77h.286v-.857h-.286v.857ZM175.943,95.198h.214v-.857h-.214v.857ZM174.871,95.198h.286v-.857h-.286v.857ZM173.871,95.198h.286v-.857h-.286v.857ZM172.87,95.198h.286v-.857h-.286v.857ZM171.87,95.198h.286v-.857h-.286v.857ZM170.869,95.198h.286v-.857h-.286v.857ZM169.869,95.198h.286v-.857h-.286v.857ZM176.943,95.198h.214v-.857h-.214v.857ZM168.869,95.198h.286v-.857h-.286v.857Z" fill="#ddd873" fill-rule="evenodd" stroke-width="0"/><path d="M185.681,106.2h28.868c.429,0,.857-.357.857-.857v-14.434c0-.429-.429-.857-.857-.857h-28.868c-.5,0-.857.429-.857.857v14.434c0,.5.357.857.857.857Z" fill="#1a1a1a" fill-rule="evenodd" stroke-width="0"/><rect x="186.95" y="92.804" width="11.933" height="10.647" fill="#595959" stroke-width="0"/><path d="M187.665,101.593h10.504v-1.643h-10.504v1.643ZM187.665,96.234h10.504v-1.572h-10.504v1.572Z" fill="#262626" fill-rule="evenodd" stroke-width="0"/><path d="M195.811,101.95h.214v-.857h-.214v.857ZM194.739,101.95h.286v-.857h-.286v.857ZM193.739,101.95h.286v-.857h-.286v.857ZM192.738,101.95h.286v-.857h-.286v.857ZM191.738,101.95h.286v-.857h-.286v.857ZM190.737,101.95h.286v-.857h-.286v.857ZM189.737,101.95h.286v-.857h-.286v.857ZM196.811,101.95h.214v-.857h-.214v.857ZM188.737,101.95h.286v-.857h-.286v.857ZM195.811,100.45h.214v-.857h-.214v.857ZM194.739,100.45h.286v-.857h-.286v.857ZM193.739,100.45h.286v-.857h-.286v.857ZM192.738,100.45h.286v-.857h-.286v.857ZM191.738,100.45h.286v-.857h-.286v.857ZM190.737,100.45h.286v-.857h-.286v.857ZM189.737,100.45h.286v-.857h-.286v.857ZM196.811,100.45h.214v-.857h-.214v.857ZM188.737,100.45h.286v-.857h-.286v.857ZM195.811,96.663h.214v-.857h-.214v.857ZM194.739,96.663h.286v-.857h-.286v.857ZM193.739,96.663h.286v-.857h-.286v.857ZM192.738,96.663h.286v-.857h-.286v.857ZM191.738,96.663h.286v-.857h-.286v.857ZM190.737,96.663h.286v-.857h-.286v.857ZM189.737,96.663h.286v-.857h-.286v.857ZM196.811,96.663h.214v-.857h-.214v.857ZM188.737,96.663h.286v-.857h-.286v.857ZM195.811,95.091h.214v-.857h-.214v.857ZM194.739,95.091h.286v-.857h-.286v.857ZM193.739,95.091h.286v-.857h-.286v.857ZM192.738,95.091h.286v-.857h-.286v.857ZM191.738,95.091h.286v-.857h-.286v.857ZM190.737,95.091h.286v-.857h-.286v.857ZM189.737,95.091h.286v-.857h-.286v.857ZM196.811,95.091h.214v-.857h-.214v.857ZM188.737,95.091h.286v-.857h-.286v.857Z" fill="#ddd873" fill-rule="evenodd" stroke-width="0"/><path d="M186.021,105.237h28.112c.214,0,.357-.143.357-.357v-13.719c0-.143-.143-.286-.357-.286h-28.112c-.143,0-.286.143-.286.286v13.719c0,.214.143.357.286.357" fill="none" fill-rule="evenodd" stroke="#e6e6e6" stroke-miterlimit="10" stroke-width=".385"/><rect x="201.343" y="92.804" width="11.933" height="10.647" fill="#595959" stroke-width="0"/><path d="M202.058,101.593h10.504v-1.643h-10.504v1.643ZM202.058,96.234h10.504v-1.572h-10.504v1.572Z" fill="#262626" fill-rule="evenodd" stroke-width="0"/><path d="M210.204,101.95h.214v-.857h-.214v.857ZM209.132,101.95h.286v-.857h-.286v.857ZM208.131,101.95h.286v-.857h-.286v.857ZM207.131,101.95h.286v-.857h-.286v.857ZM206.131,101.95h.286v-.857h-.286v.857ZM205.13,101.95h.286v-.857h-.286v.857ZM204.13,101.95h.286v-.857h-.286v.857ZM211.204,101.95h.214v-.857h-.214v.857ZM203.13,101.95h.286v-.857h-.286v.857ZM210.204,100.45h.214v-.857h-.214v.857ZM209.132,100.45h.286v-.857h-.286v.857ZM208.131,100.45h.286v-.857h-.286v.857ZM207.131,100.45h.286v-.857h-.286v.857ZM206.131,100.45h.286v-.857h-.286v.857ZM205.13,100.45h.286v-.857h-.286v.857ZM204.13,100.45h.286v-.857h-.286v.857ZM211.204,100.45h.214v-.857h-.214v.857ZM203.13,100.45h.286v-.857h-.286v.857ZM210.204,96.663h.214v-.857h-.214v.857ZM209.132,96.663h.286v-.857h-.286v.857ZM208.131,96.663h.286v-.857h-.286v.857ZM207.131,96.663h.286v-.857h-.286v.857ZM206.131,96.663h.286v-.857h-.286v.857ZM205.13,96.663h.286v-.857h-.286v.857ZM204.13,96.663h.286v-.857h-.286v.857ZM211.204,96.663h.214v-.857h-.214v.857ZM203.13,96.663h.286v-.857h-.286v.857ZM210.204,95.091h.214v-.857h-.214v.857ZM209.132,95.091h.286v-.857h-.286v.857ZM208.131,95.091h.286v-.857h-.286v.857ZM207.131,95.091h.286v-.857h-.286v.857ZM206.131,95.091h.286v-.857h-.286v.857ZM205.13,95.091h.286v-.857h-.286v.857ZM204.13,95.091h.286v-.857h-.286v.857ZM211.204,95.091h.214v-.857h-.214v.857ZM203.13,95.091h.286v-.857h-.286v.857Z" fill="#ddd873" fill-rule="evenodd" stroke-width="0"/><line x1="200.087" y1="90.887" x2="200.087" y2="105.268" fill="none" stroke="#e6e6e6" stroke-miterlimit="10" stroke-width=".385"/><path d="M220.107,105.284h37.8c.572,0,1-.5,1-1.072v-12.29c0-.572-.429-1.072-1-1.072h-37.8c-.572,0-1.072.5-1.072,1.072v12.29c0,.572.5,1.072,1.072,1.072Z" fill="#231f20" fill-rule="evenodd" stroke="#e6e6e6" stroke-miterlimit="10" stroke-width=".77"/><rect x="220.284" y="92.018" width="37.39" height="12.042" fill="none" stroke="#e6e6e6" stroke-linecap="round" stroke-linejoin="round" stroke-width=".384"/><line x1="239.085" y1="92.047" x2="239.085" y2="104.061" fill="none" stroke="#e6e6e6" stroke-miterlimit="10" stroke-width=".385"/><path d="M161.715,99.302c0-.071-.071-.143-.143-.143s-.143.071-.143.143.071.143.143.143.143-.071.143-.143M161.286,99.159c0-.071,0-.143-.071-.143s-.143.071-.143.143c0,0,.071.071.143.071s.071-.071.071-.071ZM160.929,98.945c0-.071-.071-.143-.143-.143s-.071.071-.071.143,0,.143.071.143.143-.071.143-.143ZM160.643,98.088c0-.071-.071-.071-.143-.071s-.143,0-.143.071.071.143.143.143.143-.071.143-.143ZM160.572,97.444c0-.071-.071-.143-.143-.143s-.143.071-.143.143.071.071.143.071.143,0,.143-.071ZM160.214,98.088c0-.071-.071-.071-.143-.071s-.071,0-.071.071,0,.143.071.143.143-.071.143-.143ZM160.143,97.587q0-.071-.071-.071c-.071,0-.143,0-.143.071s.071.143.143.143.071-.071.071-.143ZM160.572,98.802c0-.071-.071-.143-.143-.143s-.143.071-.143.143c0,0,.071.071.143.071s.143-.071.143-.071ZM160.143,98.588c0-.071,0-.143-.071-.143s-.143.071-.143.143.071.143.143.143.071-.071.071-.143ZM158.071,97.802v-.929h1.429v2.429h-1.429v-.857h.715v-.643h-.715ZM159.714,98.302v-.071s.071-.071.071-.143-.071-.071-.071-.071v-.143s.071-.071.071-.143l-.071-.071v-.286l.929-.715.071.143.572-.643-.857.286.143.071-.857.643v-.429h-1.786v1.072h-.715v.643h.715v1h1.786v-.429l.857.643-.143.071.857.357-.572-.715v.143l-1-.715v-.286s.071-.071.071-.143l-.071-.071ZM161.715,96.873c0-.071-.071-.071-.143-.071s-.143,0-.143.071.071.143.143.143.143-.071.143-.143ZM161.501,98.088c0-.071-.071-.071-.143-.071s-.143,0-.143.071.071.143.143.143.143-.071.143-.143ZM161.286,97.087c0-.071,0-.143-.071-.143s-.143.071-.143.143.071.071.143.071.071,0,.071-.071ZM161.072,98.088c0-.071-.071-.071-.143-.071s-.143,0-.143.071.071.143.143.143.143-.071.143-.143ZM160.929,97.23c0-.071-.071-.071-.143-.071s-.071,0-.071.071,0,.143.071.143.143-.071.143-.143ZM162.715,98.088q0-.071-.071-.071c-.071,0-.143,0-.143.071s.071.143.143.143.071-.071.071-.143ZM162.287,98.088q0-.071-.071-.071c-.071,0-.143,0-.143.071s.071.143.143.143.071-.071.071-.143ZM162.072,96.73c0-.071-.071-.143-.143-.143,0,0-.071.071-.071.143s.071.071.071.071c.071,0,.143,0,.143-.071ZM161.929,98.088c0-.071-.071-.071-.143-.071s-.143,0-.143.071.071.143.143.143.143-.071.143-.143ZM162.072,99.517c0-.071-.071-.143-.143-.143,0,0-.071.071-.071.143l.071.071c.071,0,.143-.071.143-.071ZM199.729,108.234h-1v-1.143l-1.858,1.929,1.858,1.929v-1.072h1v-1.643ZM200.444,109.878h1v1.072l1.858-1.929-1.858-1.929v1.143h-1v1.643ZM210.311,82.33c0-.071-.071-.214-.214-.143-.071,0-.143.071-.143.143l.071,1.143c0,.071.071.071.143.071v-.071l.143-1.143ZM210.311,83.973c0-.143-.071-.214-.214-.214-.071,0-.214.071-.214.214s.143.214.214.214c.143,0,.214-.071.214-.214ZM195.806,82.33c0-.071-.071-.214-.214-.143-.071,0-.143.071-.143.143l.071,1.143c0,.071.071.071.071.071q.071,0,.071-.071l.143-1.143ZM195.806,83.973c0-.143-.071-.214-.214-.214-.071,0-.214.071-.214.214s.143.214.214.214c.143,0,.214-.071.214-.214ZM176.013,82.33c0-.071-.071-.214-.143-.143-.143,0-.214.071-.214.143l.143,1.143q0,.071.071.071s.071,0,.071-.071l.071-1.143ZM176.084,83.973c0-.143-.143-.214-.214-.214-.143,0-.214.071-.214.214s.071.214.214.214c.071,0,.214-.071.214-.214Z" fill="#333" fill-rule="evenodd" stroke-width="0"/><path d="M163.314,96.674l.118-.01c.005.047.019.085.039.116.021.03.052.055.095.073.043.019.091.027.144.027.048,0,.09-.007.126-.021.036-.014.063-.034.081-.058.018-.025.027-.051.027-.081s-.008-.056-.026-.078c-.017-.022-.045-.04-.085-.056-.025-.01-.081-.025-.168-.046s-.147-.04-.182-.058c-.045-.024-.078-.054-.1-.089-.022-.035-.033-.073-.033-.117,0-.047.014-.092.04-.133s.067-.072.118-.094c.052-.022.11-.032.173-.032.069,0,.131.011.185.033.053.023.094.056.123.099.028.044.044.094.046.149l-.119.009c-.007-.059-.028-.104-.066-.134-.037-.031-.092-.046-.164-.046-.075,0-.13.014-.165.042-.034.027-.051.061-.051.099,0,.034.012.062.037.084.024.022.086.044.188.067.101.023.171.044.208.06.055.025.096.058.121.096.026.039.039.083.039.134,0,.05-.014.097-.043.141-.028.045-.07.079-.124.104-.054.024-.114.037-.181.037-.085,0-.157-.013-.214-.037-.058-.025-.103-.062-.136-.113s-.05-.106-.052-.169Z" fill="#231f20" stroke-width="0"/><path d="M163.289,98.557l.362-.942h.134l.385.942h-.142l-.11-.285h-.394l-.103.285h-.133ZM163.562,98.17h.319l-.098-.26c-.03-.08-.052-.145-.067-.196-.012.06-.029.12-.051.179l-.103.277Z" fill="#231f20" stroke-width="0"/><path d="M163.314,99.832l.118-.01c.005.047.019.085.039.116.021.03.052.055.095.073.043.019.091.027.144.027.048,0,.09-.007.126-.021.036-.014.063-.034.081-.058.018-.025.027-.051.027-.081s-.008-.056-.026-.078c-.017-.022-.045-.04-.085-.056-.025-.01-.081-.025-.168-.046s-.147-.04-.182-.058c-.045-.024-.078-.054-.1-.089-.022-.035-.033-.073-.033-.117,0-.047.014-.092.04-.133s.067-.072.118-.094c.052-.022.11-.032.173-.032.069,0,.131.011.185.033.053.023.094.056.123.099.028.044.044.094.046.149l-.119.009c-.007-.059-.028-.104-.066-.134-.037-.031-.092-.046-.164-.046-.075,0-.13.014-.165.042-.034.027-.051.061-.051.099,0,.034.012.062.037.084.024.022.086.044.188.067.101.023.171.044.208.06.055.025.096.058.121.096.026.039.039.083.039.134,0,.05-.014.097-.043.141-.028.045-.07.079-.124.104-.054.024-.114.037-.181.037-.085,0-.157-.013-.214-.037-.058-.025-.103-.062-.136-.113s-.05-.106-.052-.169Z" fill="#231f20" stroke-width="0"/><rect x="10.33" y="99.843" width="4.318" height="4.118" fill="gray" stroke-width="0"/><rect x="277.44" y="99.843" width="4.318" height="4.118" fill="gray" stroke-width="0"/><path d="M269.674,108.036c0-.929-.715-1.715-1.715-1.715-.929,0-1.643.786-1.643,1.715s.715,1.715,1.643,1.715c1,0,1.715-.786,1.715-1.715Z" fill="#38b254" stroke-width="0"/><path d="M269.674,103.034c0-.929-.715-1.715-1.715-1.715-.929,0-1.643.786-1.643,1.715s.715,1.715,1.643,1.715c1,0,1.715-.786,1.715-1.715Z" fill="#3a76ef" stroke-width="0"/><path d="M269.674,93.03c0-.929-.715-1.715-1.715-1.715-.929,0-1.643.786-1.643,1.715s.715,1.715,1.643,1.715c1,0,1.715-.786,1.715-1.715Z" fill="#38b254" stroke-width="0"/><path d="M269.674,98.032c0-.929-.715-1.715-1.715-1.715-.929,0-1.643.786-1.643,1.715s.715,1.715,1.643,1.715c1,0,1.715-.786,1.715-1.715Z" fill="#ceef0f" stroke-width="0"/><path d="M186.743,116.895l.448-.044c.027.151.082.261.165.331.082.071.194.106.335.106.149,0,.26-.031.336-.094.075-.062.114-.137.114-.221,0-.054-.016-.099-.048-.138s-.087-.071-.166-.098c-.054-.02-.177-.052-.37-.101-.247-.061-.421-.137-.52-.226-.141-.126-.211-.279-.211-.459,0-.117.033-.225.099-.327.066-.102.161-.179.285-.232.124-.052.274-.08.449-.08.288,0,.503.063.648.189s.221.293.228.504l-.461.02c-.02-.117-.062-.202-.128-.254-.065-.051-.162-.077-.292-.077-.134,0-.239.027-.315.082-.049.036-.073.083-.073.142,0,.055.023.101.069.139.058.049.199.099.424.153.224.052.39.108.497.164.108.057.192.134.253.233.061.098.092.22.092.364,0,.131-.036.254-.109.368-.073.114-.176.199-.308.255-.133.056-.3.083-.497.083-.29,0-.512-.067-.667-.2-.154-.133-.247-.328-.277-.584Z" fill="#fff" stroke-width="0"/><path d="M188.994,117.639v-2.286h.449l.935,1.526v-1.526h.43v2.286h-.464l-.922-1.491v1.491h-.429Z" fill="#fff" stroke-width="0"/><path d="M191.059,117.678l.566-2.365h.328l-.572,2.365h-.323Z" fill="#fff" stroke-width="0"/><path d="M192.067,116.895l.448-.044c.027.151.082.261.165.331.082.071.194.106.335.106.149,0,.26-.031.336-.094.075-.062.114-.137.114-.221,0-.054-.016-.099-.048-.138s-.087-.071-.166-.098c-.054-.02-.177-.052-.37-.101-.247-.061-.421-.137-.52-.226-.141-.126-.211-.279-.211-.459,0-.117.033-.225.099-.327.066-.102.161-.179.285-.232.124-.052.274-.08.449-.08.288,0,.503.063.648.189s.221.293.228.504l-.461.02c-.02-.117-.062-.202-.128-.254-.065-.051-.162-.077-.292-.077-.134,0-.239.027-.315.082-.049.036-.073.083-.073.142,0,.055.023.101.069.139.058.049.199.099.424.153.224.052.39.108.497.164.108.057.192.134.253.233.061.098.092.22.092.364,0,.131-.036.254-.109.368-.073.114-.176.199-.308.255-.133.056-.3.083-.497.083-.29,0-.512-.067-.667-.2-.154-.133-.247-.328-.277-.584Z" fill="#fff" stroke-width="0"/><path d="M194.197,116.895l.448-.044c.027.151.082.261.165.331.082.071.194.106.335.106.149,0,.26-.031.336-.094.075-.062.114-.137.114-.221,0-.054-.016-.099-.048-.138s-.087-.071-.166-.098c-.054-.02-.177-.052-.37-.101-.247-.061-.421-.137-.52-.226-.141-.126-.211-.279-.211-.459,0-.117.033-.225.099-.327.066-.102.161-.179.285-.232.124-.052.274-.08.449-.08.288,0,.503.063.648.189s.221.293.228.504l-.461.02c-.02-.117-.062-.202-.128-.254-.065-.051-.162-.077-.292-.077-.134,0-.239.027-.315.082-.049.036-.073.083-.073.142,0,.055.023.101.069.139.058.049.199.099.424.153.224.052.39.108.497.164.108.057.192.134.253.233.061.098.092.22.092.364,0,.131-.036.254-.109.368-.073.114-.176.199-.308.255-.133.056-.3.083-.497.083-.29,0-.512-.067-.667-.2-.154-.133-.247-.328-.277-.584Z" fill="#fff" stroke-width="0"/><path d="M196.449,117.639v-2.286h.449l.935,1.526v-1.526h.43v2.286h-.464l-.922-1.491v1.491h-.429Z" fill="#fff" stroke-width="0"/><path d="M161.364,115.598v-.429h-1.358v1.143h1.358v-.429h.5v1.929h.286v-.429h.5v.429h1.358v-1.143h-1.358v.429h-.5v-2.787h.5v.5h1.358v-1.215h-1.358v.5h-.5v-.5h-.286v2.001h-.5Z" fill="#f2f2f2" fill-rule="evenodd" stroke-width="0"/><path d="M21.703,91.595h-3.43c-.286-.715-1.143-1.143-1.858-.857-.214,0-.357.143-.5.214v.214h.786l.572.929-.572.857h-.786v.214c.643.5,1.572.429,2.072-.143.143-.143.214-.286.286-.5h3.43c.286.715,1,1,1.715.786.143-.071.214-.143.357-.214v-.214h-.715l-.5-.786.5-.857h.715v-.143c-.572-.5-1.429-.429-1.858.143-.071.143-.143.214-.214.357Z" fill="#f2f2f2" fill-rule="evenodd" stroke-width="0"/><rect x="88.668" y="90.848" width=".286" height="2.572" fill="#f2f2f2" stroke-width="0"/><path d="M87.954,92.134c0,.572-.429,1-1,1s-1.072-.429-1.072-1,.5-1,1.072-1,1,.429,1,1Z" fill="none" fill-rule="evenodd" stroke="#f2f2f2" stroke-miterlimit="10" stroke-width=".385"/><rect x="84.881" y="90.848" width=".286" height="2.572" fill="#f2f2f2" stroke-width="0"/><path d="M84.167,92.134c0,.572-.5,1-1.072,1s-1-.429-1-1,.429-1,1-1,1.072.429,1.072,1Z" fill="none" fill-rule="evenodd" stroke="#f2f2f2" stroke-miterlimit="10" stroke-width=".385"/><rect x="81.094" y="90.848" width=".286" height="2.572" fill="#f2f2f2" stroke-width="0"/><polygon points="81.42 96.336 84.206 94.764 84.206 97.98 81.42 96.336" fill="#f2f2f2" fill-rule="evenodd" stroke-width="0"/><polygon points="88.565 96.336 85.779 94.764 85.779 97.98 88.565 96.336" fill="#f2f2f2" fill-rule="evenodd" stroke-width="0"/><polyline points="19.289 113.042 19.289 112.613 17.931 112.613 17.931 113.756 19.289 113.756 19.289 113.328 19.789 113.328 19.789 115.257 20.075 115.257 20.075 114.828 20.575 114.828 20.575 115.257 21.933 115.257 21.933 114.114 20.575 114.114 20.575 114.542 20.075 114.542 20.075 111.827 20.575 111.827 20.575 112.256 21.933 112.256 21.933 111.113 20.575 111.113 20.575 111.541 20.075 111.541 20.075 111.113 19.789 111.113 19.789 113.042 19.289 113.042" fill="#f2f2f2" fill-rule="evenodd" stroke-width="0"/><polygon points="33.496 105.821 33.853 104.464 34.568 104.464 34.568 104.321 33.711 104.321 33.496 105.178 33.282 102.963 33.139 102.963 32.782 104.321 32.067 104.321 32.067 104.464 32.853 104.464 33.139 103.606 33.353 105.821 33.496 105.821" fill="#f2f2f2" fill-rule="evenodd" stroke-width="0"/><polygon points="52.482 105.821 52.84 104.464 53.554 104.464 53.554 104.321 52.697 104.321 52.482 105.178 52.268 102.963 52.125 102.963 51.768 104.321 51.053 104.321 51.053 104.464 51.839 104.464 52.125 103.606 52.34 105.821 52.482 105.821" fill="#f2f2f2" fill-rule="evenodd" stroke-width="0"/><polygon points="71.469 105.821 71.826 104.464 72.541 104.464 72.541 104.321 71.683 104.321 71.469 105.178 71.255 102.963 71.112 102.963 70.754 104.321 70.04 104.321 70.04 104.464 70.826 104.464 71.112 103.606 71.326 105.821 71.469 105.821" fill="#f2f2f2" fill-rule="evenodd" stroke-width="0"/><polygon points="90.455 105.821 90.812 104.464 91.527 104.464 91.527 104.321 90.67 104.321 90.455 105.178 90.241 102.963 90.098 102.963 89.741 104.321 89.026 104.321 89.026 104.464 89.812 104.464 90.098 103.606 90.312 105.821 90.455 105.821" fill="#f2f2f2" fill-rule="evenodd" stroke-width="0"/><path d="M40.359,103.416h.239v1.651h.791v.2h-1.03v-1.852Z" fill="#f2f2f2" stroke-width="0"/><path d="M41.654,105.268v-1.852h.261l.593.937c.137.218.244.412.332.602l.006-.002c-.022-.248-.027-.473-.027-.761v-.775h.225v1.852h-.242l-.588-.939c-.129-.206-.253-.417-.346-.618l-.008.003c.014.233.02.456.02.764v.791h-.226Z" fill="#f2f2f2" stroke-width="0"/><path d="M43.461,103.416h.239v.893h.008c.049-.071.099-.137.146-.197l.566-.695h.296l-.67.786.722,1.065h-.283l-.61-.909-.176.203v.706h-.239v-1.852Z" fill="#f2f2f2" stroke-width="0"/><path d="M59.198,103.416h.239v1.651h.791v.2h-1.03v-1.852Z" fill="#f2f2f2" stroke-width="0"/><path d="M60.493,105.268v-1.852h.261l.593.937c.137.218.244.412.332.602l.006-.002c-.022-.248-.027-.473-.027-.761v-.775h.225v1.852h-.242l-.588-.939c-.129-.206-.253-.417-.346-.618l-.008.003c.014.233.02.456.02.764v.791h-.226Z" fill="#f2f2f2" stroke-width="0"/><path d="M62.299,103.416h.239v.893h.008c.049-.071.099-.137.146-.197l.566-.695h.296l-.67.786.722,1.065h-.283l-.61-.909-.176.203v.706h-.239v-1.852Z" fill="#f2f2f2" stroke-width="0"/><path d="M78.037,103.416h.239v1.651h.791v.2h-1.03v-1.852Z" fill="#f2f2f2" stroke-width="0"/><path d="M79.332,105.268v-1.852h.261l.593.937c.137.218.244.412.332.602l.006-.002c-.022-.248-.027-.473-.027-.761v-.775h.225v1.852h-.242l-.588-.939c-.129-.206-.253-.417-.346-.618l-.008.003c.014.233.02.456.02.764v.791h-.226Z" fill="#f2f2f2" stroke-width="0"/><path d="M81.138,103.416h.239v.893h.008c.049-.071.099-.137.146-.197l.566-.695h.296l-.67.786.722,1.065h-.283l-.61-.909-.176.203v.706h-.239v-1.852Z" fill="#f2f2f2" stroke-width="0"/><path d="M96.877,103.416h.239v1.651h.791v.2h-1.03v-1.852Z" fill="#f2f2f2" stroke-width="0"/><path d="M98.171,105.268v-1.852h.261l.593.937c.137.218.244.412.332.602l.006-.002c-.022-.248-.027-.473-.027-.761v-.775h.225v1.852h-.242l-.588-.939c-.129-.206-.253-.417-.346-.618l-.008.003c.014.233.02.456.02.764v.791h-.226Z" fill="#f2f2f2" stroke-width="0"/><path d="M99.978,103.416h.239v.893h.008c.049-.071.099-.137.146-.197l.566-.695h.296l-.67.786.722,1.065h-.283l-.61-.909-.176.203v.706h-.239v-1.852Z" fill="#f2f2f2" stroke-width="0"/><path d="M148.147,91.996v4.787l-1.072-1.072v-.929c.286-.143.429-.429.286-.643-.071-.286-.429-.429-.643-.286-.286.071-.429.429-.286.643.071.143.143.214.286.286v1.143l1.429,1.429v.5c-.429.071-.715.5-.572,1,.143.429.572.643,1,.572.429-.143.643-.572.572-1-.071-.286-.286-.5-.572-.572v-1.858l1.429-1.429v-.929h.357v-1.072h-1.072v1.072h.286v.786l-1,1v-3.43h.357l-.572-1.072-.572,1.072h.357Z" fill="#f2f2f2" fill-rule="evenodd" stroke-width="0"/><path d="M253.865,82.118c0-.071-.071-.214-.214-.143-.071,0-.143.071-.143.143l.071,1.143c0,.071.071.071.071.071q.071,0,.071-.071l.143-1.143Z" fill="#f2f2f2" fill-rule="evenodd" stroke-width="0"/><path d="M253.865,83.761c0-.143-.071-.214-.214-.214-.071,0-.214.071-.214.214s.143.214.214.214c.143,0,.214-.071.214-.214Z" fill="#f2f2f2" fill-rule="evenodd" stroke-width="0"/><path d="M235.072,82.118c0-.071-.071-.214-.143-.143-.143,0-.214.071-.214.143l.143,1.143q0,.071.071.071s.071,0,.071-.071l.071-1.143Z" fill="#f2f2f2" fill-rule="evenodd" stroke-width="0"/><path d="M235.143,83.761c0-.143-.143-.214-.214-.214-.143,0-.214.071-.214.214s.071.214.214.214c.071,0,.214-.071.214-.214Z" fill="#f2f2f2" fill-rule="evenodd" stroke-width="0"/><path d="M265.475,103.134c0-1.072-.857-2.001-2.001-2.001-1.072,0-1.929.929-1.929,2.001s.857,2.001,1.929,2.001c1.143,0,2.001-.929,2.001-2.001ZM265.26,103.134c0,1-.786,1.786-1.786,1.786-.929,0-1.715-.786-1.715-1.786s.786-1.786,1.715-1.786c1,0,1.786.786,1.786,1.786Z" fill="#f2f2f2" fill-rule="evenodd" stroke-width="0"/><path d="M262.759,103.063l.643,1.286h.214l.643-1.286c.214-.357,0-.857-.357-1.072-.429-.214-.929-.071-1.143.357-.071.214-.071.5,0,.715ZM263.831,102.706c0,.214-.143.357-.357.357-.143,0-.357-.143-.357-.357s.214-.357.357-.357c.214,0,.357.143.357.357Z" fill="#f2f2f2" fill-rule="evenodd" stroke-width="0"/><path d="M264.403,106.779h-.429v-.429h-.214v.429h-.5v-.429h-.214v.429h-.429v-.429h-.286v.429c-.071,0-.214.071-.214.214h-.429v.214h.429v.429h-.429v.286h.429v.429h-.429v.214h.429v.5h-.429v.214h.429c0,.143.143.214.214.214v.429h.286v-.429h.429v.429h.214v-.429h.5v.429h.214v-.429h.429v.429h.286v-.429c.071,0,.143-.071.143-.214h.5v-.214h-.5v-.5h.5v-.214h-.5v-.429h.5v-.286h-.5v-.429h.5v-.214h-.5c0-.143-.071-.214-.143-.214v-.429h-.286v.429Z" fill="#f2f2f2" fill-rule="evenodd" stroke-width="0"/><polygon points="263.403 99.062 263.617 99.062 263.76 97.132 263.76 96.346 263.26 96.346 263.26 97.132 263.403 99.062" fill="#f2f2f2" fill-rule="evenodd" stroke-width="0"/><rect x="263.26" y="99.419" width=".5" height=".5" fill="#f2f2f2" stroke-width="0"/><polygon points="263.76 95.06 264.26 93.274 265.26 93.274 265.26 92.988 264.117 92.988 263.76 94.203 263.474 91.201 263.26 91.201 262.759 92.988 261.759 92.988 261.759 93.274 262.902 93.274 263.26 92.059 263.545 95.06 263.76 95.06" fill="#f2f2f2" fill-rule="evenodd" stroke-width="0"/><path d="M223.568,82.076h.238v1.651h.791v.2h-1.029v-1.852Z" fill="#f2f2f2" stroke-width="0"/><path d="M224.864,83.928v-1.852h.261l.593.937c.138.218.245.412.333.602l.005-.002c-.021-.248-.027-.473-.027-.761v-.775h.226v1.852h-.242l-.588-.939c-.129-.206-.252-.417-.346-.618l-.008.003c.014.233.019.456.019.764v.791h-.225Z" fill="#f2f2f2" stroke-width="0"/><path d="M226.67,82.076h.238v.893h.009c.05-.071.099-.137.146-.197l.565-.695h.297l-.67.786.722,1.065h-.282l-.61-.909-.176.203v.706h-.238v-1.852Z" fill="#f2f2f2" stroke-width="0"/><path d="M242.465,82.076h.238v1.651h.791v.2h-1.029v-1.852Z" fill="#f2f2f2" stroke-width="0"/><path d="M243.761,83.928v-1.852h.261l.593.937c.138.218.245.412.333.602l.005-.002c-.021-.248-.027-.473-.027-.761v-.775h.226v1.852h-.242l-.587-.939c-.13-.206-.253-.417-.347-.618l-.008.003c.014.233.019.456.019.764v.791h-.225Z" fill="#f2f2f2" stroke-width="0"/><path d="M245.567,82.076h.238v.893h.009c.049-.071.099-.137.146-.197l.565-.695h.297l-.67.786.723,1.065h-.283l-.61-.909-.176.203v.706h-.238v-1.852Z" fill="#f2f2f2" stroke-width="0"/><path d="M202.162,82.27h.238v1.651h.791v.2h-1.029v-1.852Z" fill="#333" stroke-width="0"/><path d="M203.458,84.121v-1.852h.261l.593.937c.138.218.245.412.333.602l.005-.002c-.021-.248-.027-.473-.027-.761v-.775h.226v1.852h-.242l-.588-.939c-.129-.206-.252-.417-.346-.618l-.008.003c.014.233.019.456.019.764v.791h-.225Z" fill="#333" stroke-width="0"/><path d="M205.263,82.27h.238v.893h.009c.05-.071.099-.137.146-.197l.565-.695h.297l-.67.786.722,1.065h-.282l-.61-.909-.176.203v.706h-.238v-1.852Z" fill="#333" stroke-width="0"/><path d="M187.798,82.27h.238v1.651h.791v.2h-1.029v-1.852Z" fill="#333" stroke-width="0"/><path d="M189.094,84.121v-1.852h.261l.593.937c.138.218.245.412.333.602l.005-.002c-.021-.248-.027-.473-.027-.761v-.775h.226v1.852h-.242l-.588-.939c-.129-.206-.252-.417-.346-.618l-.008.003c.014.233.019.456.019.764v.791h-.225Z" fill="#333" stroke-width="0"/><path d="M190.9,82.27h.238v.893h.009c.05-.071.099-.137.146-.197l.565-.695h.297l-.67.786.722,1.065h-.282l-.61-.909-.176.203v.706h-.238v-1.852Z" fill="#333" stroke-width="0"/><path d="M168.029,82.27h.238v1.651h.791v.2h-1.029v-1.852Z" fill="#333" stroke-width="0"/><path d="M169.325,84.121v-1.852h.261l.593.937c.138.218.245.412.333.602l.005-.002c-.021-.248-.027-.473-.027-.761v-.775h.226v1.852h-.242l-.588-.939c-.129-.206-.252-.417-.346-.618l-.008.003c.014.233.019.456.019.764v.791h-.225Z" fill="#333" stroke-width="0"/><path d="M171.13,82.27h.238v.893h.009c.05-.071.099-.137.146-.197l.565-.695h.297l-.67.786.722,1.065h-.282l-.61-.909-.176.203v.706h-.238v-1.852Z" fill="#333" stroke-width="0"/><path d="M262.521,108.713v-1.079h.212l.441.721v-.721h.202v1.079h-.219l-.435-.704v.704h-.202Z" fill="#333" stroke-width="0"/><path d="M263.882,108.713l-.386-1.079h.236l.273.799.265-.799h.23l-.386,1.079h-.233Z" fill="#333" stroke-width="0"/><path d="M32.738,121.979l.284.036c-.045.166-.128.295-.249.387s-.277.138-.465.138c-.238,0-.426-.073-.565-.22s-.209-.352-.209-.615c0-.273.071-.486.211-.637.141-.151.324-.226.548-.226.217,0,.395.074.532.222s.207.356.207.624c0,.016,0,.04-.002.073h-1.212c.01.179.061.316.152.41.091.095.204.142.339.142.101,0,.187-.026.259-.079.071-.054.128-.138.17-.255ZM31.833,121.534h.907c-.012-.137-.047-.239-.104-.307-.088-.106-.202-.16-.341-.16-.127,0-.233.043-.319.128-.086.084-.134.198-.143.339Z" fill="#fff" stroke-width="0"/><path d="M34.093,122.502h-.275v-1.755c-.067.063-.154.127-.261.189-.107.063-.204.112-.29.143v-.267c.154-.072.289-.16.404-.263.115-.103.197-.202.245-.3h.177v2.252Z" fill="#fff" stroke-width="0"/><path d="M35.7,122.302c-.102.086-.2.148-.294.184-.095.035-.196.054-.304.054-.178,0-.315-.044-.412-.131-.096-.087-.144-.199-.144-.335,0-.08.018-.152.054-.218.037-.066.084-.119.143-.159.058-.039.125-.07.198-.091.054-.014.136-.027.245-.04.222-.027.386-.059.491-.095.001-.038.002-.062.002-.072,0-.113-.026-.191-.078-.237-.07-.062-.175-.093-.313-.093-.13,0-.225.023-.287.068-.062.046-.107.126-.137.241l-.269-.036c.025-.116.065-.209.121-.28.056-.07.137-.125.243-.163s.229-.058.368-.058.251.016.338.049.15.073.191.124c.04.049.069.112.086.187.009.047.014.131.014.254v.367c0,.256.005.419.017.486.011.068.035.132.069.195h-.288c-.028-.057-.047-.124-.055-.2ZM35.678,121.687c-.1.04-.25.075-.449.104-.114.016-.194.035-.241.056-.047.02-.083.05-.109.09-.025.038-.038.082-.038.13,0,.073.028.134.084.184s.137.073.244.073c.106,0,.201-.023.283-.069.083-.047.143-.11.182-.191.03-.062.044-.153.044-.275v-.101Z" fill="#fff" stroke-width="0"/><path d="M52.517,121.979l.284.036c-.045.166-.128.295-.249.387s-.277.138-.465.138c-.238,0-.426-.073-.565-.22s-.209-.352-.209-.615c0-.273.071-.486.211-.637.141-.151.324-.226.548-.226.217,0,.395.074.532.222s.207.356.207.624c0,.016,0,.04-.002.073h-1.212c.01.179.061.316.152.41.091.095.204.142.339.142.101,0,.187-.026.259-.079.071-.054.128-.138.17-.255ZM51.612,121.534h.907c-.012-.137-.047-.239-.104-.307-.088-.106-.202-.16-.341-.16-.127,0-.233.043-.319.128-.086.084-.134.198-.143.339Z" fill="#fff" stroke-width="0"/><path d="M53.872,122.502h-.275v-1.755c-.067.063-.154.127-.261.189-.107.063-.204.112-.29.143v-.267c.154-.072.289-.16.404-.263.115-.103.197-.202.245-.3h.177v2.252Z" fill="#fff" stroke-width="0"/><path d="M54.673,122.502h-.255v-2.242h.275v.799c.116-.145.265-.219.445-.219.1,0,.195.021.284.061.09.039.163.096.22.169.058.073.103.161.136.263.033.104.049.213.049.331,0,.278-.069.493-.207.645s-.303.228-.496.228c-.192,0-.342-.081-.452-.241v.203ZM54.67,121.678c0,.195.026.336.079.422.087.142.204.212.352.212.12,0,.225-.051.312-.156s.132-.26.132-.467c0-.212-.042-.37-.126-.47s-.186-.152-.306-.152-.224.052-.312.157c-.088.104-.132.256-.132.454Z" fill="#fff" stroke-width="0"/><path d="M71.247,121.979l.284.036c-.045.166-.128.295-.249.387s-.277.138-.465.138c-.238,0-.426-.073-.565-.22s-.209-.352-.209-.615c0-.273.071-.486.211-.637.141-.151.324-.226.548-.226.217,0,.395.074.532.222s.207.356.207.624c0,.016,0,.04-.002.073h-1.212c.01.179.061.316.152.41.091.095.204.142.339.142.101,0,.187-.026.259-.079.071-.054.128-.138.17-.255ZM70.343,121.534h.907c-.012-.137-.047-.239-.104-.307-.088-.106-.202-.16-.341-.16-.127,0-.233.043-.319.128-.086.084-.134.198-.143.339Z" fill="#fff" stroke-width="0"/><path d="M72.603,122.502h-.275v-1.755c-.067.063-.154.127-.261.189-.107.063-.204.112-.29.143v-.267c.154-.072.289-.16.404-.263.115-.103.197-.202.245-.3h.177v2.252Z" fill="#fff" stroke-width="0"/><path d="M74.21,121.908l.271.035c-.03.187-.105.332-.227.438-.122.105-.272.159-.449.159-.222,0-.401-.073-.536-.219-.136-.145-.203-.353-.203-.624,0-.176.029-.329.087-.461.058-.131.147-.23.266-.295.119-.067.248-.099.388-.099.177,0,.321.045.433.134.112.089.184.215.215.379l-.268.042c-.025-.109-.071-.191-.135-.246-.065-.055-.143-.083-.235-.083-.139,0-.251.05-.338.15-.087.099-.13.257-.13.472,0,.218.042.376.125.476.084.098.193.148.327.148.108,0,.198-.033.271-.098.073-.067.119-.168.138-.306Z" fill="#fff" stroke-width="0"/><path d="M89.802,121.979l.284.036c-.045.166-.128.295-.249.387s-.277.138-.465.138c-.238,0-.426-.073-.565-.22s-.209-.352-.209-.615c0-.273.071-.486.211-.637.141-.151.324-.226.548-.226.217,0,.395.074.532.222s.207.356.207.624c0,.016,0,.04-.002.073h-1.212c.01.179.061.316.152.41.091.095.204.142.339.142.101,0,.187-.026.259-.079.071-.054.128-.138.17-.255ZM88.898,121.534h.907c-.012-.137-.047-.239-.104-.307-.088-.106-.202-.16-.341-.16-.127,0-.233.043-.319.128-.086.084-.134.198-.143.339Z" fill="#fff" stroke-width="0"/><path d="M91.158,122.502h-.275v-1.755c-.067.063-.154.127-.261.189-.107.063-.204.112-.29.143v-.267c.154-.072.289-.16.404-.263.115-.103.197-.202.245-.3h.177v2.252Z" fill="#fff" stroke-width="0"/><path d="M92.759,122.502v-.206c-.103.162-.254.243-.454.243-.13,0-.249-.036-.357-.107-.108-.072-.192-.172-.252-.3-.06-.128-.09-.275-.09-.442,0-.162.027-.309.081-.441.054-.132.135-.234.243-.304.108-.071.229-.106.363-.106.098,0,.185.021.261.062s.139.095.187.162v-.805h.274v2.242h-.256ZM91.889,121.691c0,.209.044.364.131.467.088.103.191.154.311.154s.222-.049.307-.148.126-.248.126-.45c0-.222-.043-.385-.129-.489-.085-.105-.191-.156-.316-.156-.122,0-.225.05-.307.15s-.123.258-.123.472Z" fill="#fff" stroke-width="0"/><path d="M171.345,108.797c0-.265.027-.479.082-.64.054-.162.136-.286.243-.375.107-.087.243-.131.406-.131.12,0,.226.024.316.073.091.048.166.118.225.209.06.092.106.203.139.333.034.131.05.308.05.53,0,.263-.027.476-.081.637s-.135.286-.242.375c-.108.089-.244.132-.408.132-.216,0-.386-.078-.509-.233-.148-.186-.222-.49-.222-.912ZM171.628,108.797c0,.368.043.613.129.736.086.121.192.183.319.183s.233-.061.319-.184c.086-.122.13-.367.13-.735s-.043-.614-.13-.736c-.086-.121-.194-.181-.322-.181-.126,0-.227.054-.303.161-.095.137-.142.388-.142.757Z" fill="#231f20" stroke-width="0"/><path d="M174.224,109.703c-.102.086-.2.148-.294.184-.095.035-.196.054-.304.054-.178,0-.315-.044-.412-.131-.096-.087-.144-.199-.144-.335,0-.08.018-.152.054-.218.037-.066.084-.119.143-.159.058-.039.125-.07.198-.091.054-.014.136-.027.245-.04.222-.027.386-.059.491-.095.001-.038.002-.062.002-.072,0-.113-.026-.191-.078-.237-.07-.062-.175-.093-.313-.093-.13,0-.225.023-.287.068-.062.046-.107.126-.137.241l-.269-.036c.025-.116.065-.209.121-.28.056-.07.137-.125.243-.163s.229-.058.368-.058.251.016.338.049.15.073.191.124c.04.049.069.112.086.187.009.047.014.131.014.254v.367c0,.256.005.419.017.486.011.068.035.132.069.195h-.288c-.028-.057-.047-.124-.055-.2ZM174.201,109.087c-.1.04-.25.075-.449.104-.114.016-.194.035-.241.056-.047.02-.083.05-.109.09-.025.038-.038.082-.038.13,0,.073.028.134.084.184s.137.073.244.073c.106,0,.201-.023.283-.069.083-.047.143-.11.182-.191.03-.062.044-.153.044-.275v-.101Z" fill="#231f20" stroke-width="0"/><path d="M190.326,108.797c0-.265.027-.479.082-.64.054-.162.136-.286.243-.375.107-.087.243-.131.407-.131.12,0,.225.024.316.073.091.048.166.118.225.209.059.092.106.203.139.333.034.131.05.308.05.53,0,.263-.026.476-.081.637-.054.162-.134.286-.242.375-.108.089-.244.132-.408.132-.216,0-.387-.078-.509-.233-.149-.186-.222-.49-.222-.912ZM190.609,108.797c0,.368.043.613.129.736.086.121.192.183.319.183.126,0,.233-.061.318-.184.086-.122.13-.367.13-.735s-.044-.614-.13-.736c-.085-.121-.194-.181-.321-.181-.127,0-.227.054-.303.161-.095.137-.142.388-.142.757Z" fill="#231f20" stroke-width="0"/><path d="M192.399,109.903h-.256v-2.242h.275v.799c.117-.145.265-.219.445-.219.101,0,.195.021.284.061.09.039.163.096.22.169.058.073.103.161.136.263.033.104.049.213.049.331,0,.278-.069.493-.207.645s-.303.228-.495.228-.342-.081-.452-.241v.203ZM192.396,109.079c0,.195.026.336.08.422.086.142.204.212.352.212.12,0,.224-.051.312-.156s.132-.26.132-.467c0-.212-.043-.37-.127-.47s-.186-.152-.305-.152c-.12,0-.224.052-.312.157-.089.104-.132.256-.132.454Z" fill="#231f20" stroke-width="0"/><path d="M194.848,109.903h-.275v-1.755c-.067.063-.153.127-.261.189-.107.063-.203.112-.29.143v-.267c.154-.072.289-.16.404-.263.115-.103.197-.202.245-.3h.177v2.252Z" fill="#231f20" stroke-width="0"/><path d="M205.016,108.797c0-.265.027-.479.082-.64.054-.162.136-.286.243-.375.107-.087.243-.131.407-.131.12,0,.225.024.316.073.091.048.166.118.225.209.059.092.106.203.139.333.034.131.05.308.05.53,0,.263-.026.476-.081.637-.054.162-.134.286-.242.375-.108.089-.244.132-.408.132-.216,0-.387-.078-.509-.233-.149-.186-.222-.49-.222-.912ZM205.299,108.797c0,.368.043.613.129.736.086.121.192.183.319.183.126,0,.233-.061.318-.184.086-.122.13-.367.13-.735s-.044-.614-.13-.736c-.085-.121-.194-.181-.321-.181-.127,0-.227.054-.303.161-.095.137-.142.388-.142.757Z" fill="#231f20" stroke-width="0"/><path d="M207.089,109.903h-.256v-2.242h.275v.799c.117-.145.265-.219.445-.219.101,0,.195.021.284.061.09.039.163.096.22.169.058.073.103.161.136.263.033.104.049.213.049.331,0,.278-.069.493-.207.645s-.303.228-.495.228-.342-.081-.452-.241v.203ZM207.085,109.079c0,.195.026.336.08.422.086.142.204.212.352.212.12,0,.224-.051.312-.156s.132-.26.132-.467c0-.212-.043-.37-.127-.47s-.186-.152-.305-.152c-.12,0-.224.052-.312.157-.089.104-.132.256-.132.454Z" fill="#231f20" stroke-width="0"/><path d="M209.948,109.638v.265h-1.482c-.002-.067.009-.13.032-.191.038-.101.098-.2.181-.298.083-.097.203-.211.361-.339.244-.2.408-.359.494-.476.085-.117.128-.227.128-.331,0-.109-.038-.201-.117-.277-.078-.074-.179-.112-.305-.112-.132,0-.238.039-.318.119s-.12.189-.121.33l-.282-.03c.019-.211.092-.372.219-.482.126-.11.296-.166.509-.166.215,0,.385.06.511.179s.188.267.188.444c0,.09-.019.177-.055.265-.037.086-.098.178-.183.273-.085.096-.227.227-.425.395-.165.139-.271.233-.318.282-.047.05-.085.099-.116.15h1.1Z" fill="#231f20" stroke-width="0"/><path d="M141.195,120.366v5.788H10.861v2.001h130.334v1.715h132.907v-6.788h-120.188v-3.43h-12.004c-.429,0-.715.357-.715.715Z" fill="#595959" stroke-width="0"/><path d="M148.841,123.081h-28.654c-.357,0-.643.143-.929.357l-4.001,4.001c-.214.214-.572.357-.858.357H17.721c-.357,0-.643-.143-.929-.357l-4.001-4.001c-.214-.214-.572-.357-.857-.357h-6.788v2.215H0v4.573h148.841v-6.788" fill="#595959" fill-rule="evenodd" stroke-width="0"/><path d="M169.563,119.651h-20.722v10.218h43.302v-6.788h-4.645c-.857,0-1.715-.071-2.572-.286l-12.79-2.858c-.858-.143-1.715-.286-2.572-.286Z" fill="#595959" stroke-width="0"/><path d="M187.784,124.153h-4.645c-1.358,0-2.787-.143-4.073-.429l-8.932-2.072c-1.215-.286-2.429-.429-3.644-.429h-5.145v7.074h26.438v-4.144" fill="#fa865a" fill-rule="evenodd" stroke-width="0"/><polyline points="169.063 124.868 165.776 123.367 165.776 126.511 169.063 124.868" fill="#404040" fill-rule="evenodd" stroke-width="0"/><path d="M227.077,109.392v7.217c0,.643.583,1.143,1.238,1.143h30.368c.655,0,1.165-.5,1.165-1.143v-7.217c0-.643-.51-1.143-1.165-1.143h-30.368c-.655,0-1.238.5-1.238,1.143" fill="#6d6e71" fill-rule="evenodd" stroke="#58595b" stroke-miterlimit="10" stroke-width="1.165"/><path d="M232.167,115.023v-3.997h2.748v.472h-2.208v1.238h1.911v.471h-1.911v1.816h-.539Z" fill="#fff" stroke-width="0"/><path d="M234.854,115.023l1.563-3.997h.582l1.667,3.997h-.614l-.476-1.21h-1.702l-.448,1.21h-.572ZM236.028,113.382h1.382l-.426-1.107c-.129-.336-.226-.612-.289-.829-.052.257-.125.511-.219.763l-.448,1.173Z" fill="#fff" stroke-width="0"/><path d="M238.912,113.739l.509-.043c.023.199.08.363.168.492.088.128.224.232.409.31.186.079.394.118.626.118.205,0,.387-.03.544-.09.158-.06.275-.142.352-.247.077-.104.115-.218.115-.341,0-.126-.037-.235-.11-.329-.075-.094-.197-.172-.368-.236-.109-.042-.351-.106-.725-.195-.373-.089-.636-.172-.785-.249-.195-.101-.34-.224-.436-.373-.095-.148-.143-.314-.143-.497,0-.201.058-.39.175-.565.117-.176.287-.308.511-.399.224-.092.474-.137.748-.137.302,0,.568.048.799.143s.408.236.531.421c.125.186.192.396.201.63l-.517.038c-.028-.253-.121-.444-.282-.573s-.397-.194-.71-.194c-.326,0-.564.059-.713.176s-.224.259-.224.424c0,.143.053.261.159.354.104.093.374.188.812.285s.739.181.901.255c.237.107.412.243.525.408.114.164.17.353.17.568,0,.212-.062.412-.187.6-.124.189-.302.335-.535.439-.232.105-.494.156-.784.156-.369,0-.677-.052-.927-.157-.248-.106-.445-.265-.586-.476-.141-.212-.216-.452-.224-.719Z" fill="#fff" stroke-width="0"/><path d="M245.317,114.552v.471h-2.692c-.004-.118.016-.232.058-.341.068-.179.178-.356.329-.531.152-.175.37-.376.655-.606.442-.355.742-.638.897-.846.156-.208.234-.404.234-.59,0-.195-.071-.359-.213-.492s-.326-.2-.555-.2c-.241,0-.433.071-.577.212-.145.142-.218.339-.219.589l-.515-.051c.036-.377.168-.664.398-.86.23-.198.538-.296.925-.296.391,0,.701.107.928.319.228.213.342.477.342.79,0,.161-.033.317-.1.472-.067.154-.177.317-.332.488s-.411.406-.771.703c-.3.247-.492.415-.577.503-.086.089-.156.177-.212.267h1.998Z" fill="#fff" stroke-width="0"/><path d="M246.623,112.857c-.207-.075-.361-.181-.461-.319-.1-.139-.15-.304-.15-.496,0-.291.107-.536.32-.734s.496-.297.85-.297.642.102.859.304c.216.203.324.449.324.74,0,.186-.049.347-.148.484s-.25.243-.451.318c.25.08.44.209.57.387s.196.39.196.637c0,.342-.124.629-.37.861s-.57.349-.973.349-.725-.116-.972-.35-.37-.525-.37-.873c0-.26.067-.478.202-.654.134-.175.325-.294.574-.357ZM246.361,113.87c0,.14.035.275.101.407.068.13.168.232.302.304.134.071.276.107.43.107.24,0,.437-.075.593-.226.155-.151.233-.342.233-.575,0-.236-.08-.432-.241-.586-.159-.154-.36-.232-.602-.232-.235,0-.43.077-.584.228-.155.153-.233.344-.233.573ZM246.523,112.025c0,.189.062.343.186.464s.285.179.484.179c.193,0,.351-.059.474-.178.124-.119.185-.265.185-.437,0-.18-.064-.331-.191-.454-.127-.124-.284-.185-.474-.185-.191,0-.349.06-.475.18-.127.12-.189.263-.189.431Z" fill="#fff" stroke-width="0"/><path d="M249.017,113.052c0-.472.049-.853.148-1.141.099-.288.246-.509.442-.666.195-.156.441-.235.738-.235.218,0,.41.044.575.13s.301.211.409.373c.107.163.192.361.253.595s.091.549.091.945c0,.469-.049.847-.147,1.136-.098.288-.245.511-.44.668-.196.156-.442.235-.741.235-.393,0-.701-.138-.925-.414-.27-.332-.403-.873-.403-1.625ZM249.531,113.052c0,.656.079,1.093.235,1.31.156.218.35.326.579.326s.422-.108.579-.327c.156-.218.235-.654.235-1.309,0-.658-.079-1.095-.235-1.311-.157-.216-.352-.325-.585-.325-.23,0-.413.095-.55.286-.172.243-.258.693-.258,1.349Z" fill="#fff" stroke-width="0"/><path d="M252.183,113.052c0-.472.049-.853.148-1.141.099-.288.246-.509.442-.666.195-.156.441-.235.738-.235.218,0,.41.044.575.13s.301.211.409.373c.107.163.192.361.253.595s.091.549.091.945c0,.469-.049.847-.147,1.136-.098.288-.245.511-.44.668-.196.156-.442.235-.741.235-.393,0-.701-.138-.925-.414-.27-.332-.403-.873-.403-1.625ZM252.696,113.052c0,.656.079,1.093.235,1.31.156.218.35.326.579.326s.422-.108.579-.327c.156-.218.235-.654.235-1.309,0-.658-.079-1.095-.235-1.311-.157-.216-.352-.325-.585-.325-.23,0-.413.095-.55.286-.172.243-.258.693-.258,1.349Z" fill="#fff" stroke-width="0"/><line x1="148.841" y1="119.662" x2="148.841" y2="129.872" fill="#2d2828" stroke="#333132" stroke-miterlimit="10" stroke-width=".387"/></g><g id="b"><polygon points="118.246 68.053 153.432 112.061 217.766 112.442 256.185 68.053 118.246 68.053" fill="#fff" opacity=".3" stroke-width="0"/><polyline points="118.042 67.865 153.559 112.121 217.639 112.443 256.366 67.865" fill="none" stroke="#231f20" stroke-linecap="round" stroke-linejoin="round" stroke-width=".77"/><g clip-path="url(#c)"><path d="M-192.384,1.815v1.505c0,.753.151,1.505.452,2.107l2.86,5.87c.15.15.15.451.15.602v77.809H397.281V11.899c0-.15,0-.451.15-.602l2.86-5.87c.452-.602.602-1.355.602-2.107v-1.505c0-2.709-2.258-4.967-4.967-4.967H-187.417c-2.709,0-4.967,2.258-4.967,4.967Z" fill="#ccc" fill-rule="evenodd" stroke-width="0"/><path d="M126.168,46.988c0,.903.451,1.806,1.204,2.258l.903.452c.903.602,1.355,1.355,1.355,2.408v27.993c0,2.86,2.408,5.268,5.418,5.268h240.501c3.01,0,5.418-2.408,5.418-5.268V6.503c0-2.86-2.408-5.268-5.418-5.268h-244.113c-2.86,0-5.268,2.408-5.268,5.268v40.485" fill="#333" fill-rule="evenodd" stroke-width="0"/><path d="M129.619,66.077h125.518V1.211h-123.712c-2.86,0-5.268,2.408-5.268,5.268v40.485c0,.903.452,1.806,1.204,2.258l.903.452c.903.602,1.355,1.355,1.355,2.408v13.997" fill="#f2f2f2" fill-rule="evenodd" stroke-width="0"/><rect x="255.137" y="1.211" width="90" height="64.866" fill="#095fbd" stroke-width="0"/><rect x="-172.463" y="1.091" width="291.973" height="89.548" rx="5.719" ry="5.719" fill="#333" stroke-width="0"/><path d="M158.202,12.531c0-1.957-1.505-3.462-3.462-3.462-2.107,0-3.612,1.505-3.612,3.462s1.505,3.612,3.612,3.612c1.956,0,3.462-1.656,3.462-3.612ZM170.694,12.531c0-1.957-1.505-3.462-3.462-3.462s-3.612,1.505-3.612,3.462,1.655,3.612,3.612,3.612,3.462-1.656,3.462-3.612ZM199.891,12.531c0-1.957-1.655-3.462-3.612-3.462s-3.612,1.505-3.612,3.462,1.655,3.612,3.612,3.612,3.612-1.656,3.612-3.612ZM212.383,12.531c0-1.957-1.655-3.462-3.612-3.462s-3.462,1.505-3.462,3.462,1.505,3.612,3.462,3.612,3.612-1.656,3.612-3.612ZM230.443,12.531c0-1.957-1.655-3.462-3.612-3.462s-3.462,1.505-3.462,3.462,1.505,3.612,3.462,3.612,3.612-1.656,3.612-3.612ZM242.935,12.531c0-1.957-1.656-3.462-3.612-3.462s-3.462,1.505-3.462,3.462,1.505,3.612,3.462,3.612,3.612-1.656,3.612-3.612Z" fill="#38b254" fill-rule="evenodd" stroke-width="0"/><path d="M146.175,53.956h29.95c1.054,0,1.806-.903,1.806-1.806v-29.95c0-1.054-.752-1.806-1.806-1.806h-29.95c-1.054,0-1.806.753-1.806,1.806v29.95c0,.903.753,1.806,1.806,1.806Z" fill="#1a1a1a" fill-rule="evenodd" stroke-width="0"/><path d="M146.627,52.301h28.896c.451,0,.753-.301.753-.752v-28.896c0-.301-.301-.602-.753-.602h-28.896c-.301,0-.602.301-.602.602v28.896c0,.451.301.752.602.752" fill="none" fill-rule="evenodd" stroke="#e6e6e6" stroke-miterlimit="10" stroke-width=".81"/><rect x="148.583" y="26.114" width="25.134" height="22.425" fill="#595959" stroke-width="0"/><path d="M150.088,44.625h22.124v-3.462h-22.124v3.462ZM150.088,33.338h22.124v-3.311h-22.124v3.311Z" fill="#262626" fill-rule="evenodd" stroke-width="0"/><path d="M167.245,45.378h.452v-1.806h-.452v1.806ZM164.988,45.378h.602v-1.806h-.602v1.806ZM162.881,45.378h.602v-1.806h-.602v1.806ZM160.774,45.378h.602v-1.806h-.602v1.806ZM158.667,45.378h.602v-1.806h-.602v1.806ZM156.56,45.378h.602v-1.806h-.602v1.806ZM154.453,45.378h.602v-1.806h-.602v1.806ZM169.352,45.378h.452v-1.806h-.452v1.806ZM152.346,45.378h.602v-1.806h-.602v1.806ZM167.245,42.217h.452v-1.806h-.452v1.806ZM164.988,42.217h.602v-1.806h-.602v1.806ZM162.881,42.217h.602v-1.806h-.602v1.806ZM160.774,42.217h.602v-1.806h-.602v1.806ZM158.667,42.217h.602v-1.806h-.602v1.806ZM156.56,42.217h.602v-1.806h-.602v1.806ZM154.453,42.217h.602v-1.806h-.602v1.806ZM169.352,42.217h.452v-1.806h-.452v1.806ZM152.346,42.217h.602v-1.806h-.602v1.806ZM167.245,34.241h.452v-1.806h-.452v1.806ZM164.988,34.241h.602v-1.806h-.602v1.806ZM162.881,34.241h.602v-1.806h-.602v1.806ZM160.774,34.241h.602v-1.806h-.602v1.806ZM158.667,34.241h.602v-1.806h-.602v1.806ZM156.56,34.241h.602v-1.806h-.602v1.806ZM154.453,34.241h.602v-1.806h-.602v1.806ZM169.352,34.241h.452v-1.806h-.452v1.806ZM152.346,34.241h.602v-1.806h-.602v1.806ZM167.245,30.93h.452v-1.806h-.452v1.806ZM164.988,30.93h.602v-1.806h-.602v1.806ZM162.881,30.93h.602v-1.806h-.602v1.806ZM160.774,30.93h.602v-1.806h-.602v1.806ZM158.667,30.93h.602v-1.806h-.602v1.806ZM156.56,30.93h.602v-1.806h-.602v1.806ZM154.453,30.93h.602v-1.806h-.602v1.806ZM169.352,30.93h.452v-1.806h-.452v1.806ZM152.346,30.93h.602v-1.806h-.602v1.806Z" fill="#ddd873" fill-rule="evenodd" stroke-width="0"/><path d="M187.757,54.103h60.803c.903,0,1.806-.752,1.806-1.806v-30.401c0-.903-.903-1.806-1.806-1.806h-60.803c-1.054,0-1.806.903-1.806,1.806v30.401c0,1.054.753,1.806,1.806,1.806Z" fill="#1a1a1a" fill-rule="evenodd" stroke-width="0"/><rect x="190.43" y="25.888" width="25.134" height="22.425" fill="#595959" stroke-width="0"/><path d="M191.935,44.399h22.124v-3.462h-22.124v3.462ZM191.935,33.112h22.124v-3.311h-22.124v3.311Z" fill="#262626" fill-rule="evenodd" stroke-width="0"/><path d="M209.092,45.152h.452v-1.806h-.452v1.806ZM206.835,45.152h.602v-1.806h-.602v1.806ZM204.728,45.152h.602v-1.806h-.602v1.806ZM202.621,45.152h.602v-1.806h-.602v1.806ZM200.514,45.152h.602v-1.806h-.602v1.806ZM198.407,45.152h.602v-1.806h-.602v1.806ZM196.3,45.152h.602v-1.806h-.602v1.806ZM211.199,45.152h.452v-1.806h-.452v1.806ZM194.193,45.152h.602v-1.806h-.602v1.806ZM209.092,41.991h.452v-1.806h-.452v1.806ZM206.835,41.991h.602v-1.806h-.602v1.806ZM204.728,41.991h.602v-1.806h-.602v1.806ZM202.621,41.991h.602v-1.806h-.602v1.806ZM200.514,41.991h.602v-1.806h-.602v1.806ZM198.407,41.991h.602v-1.806h-.602v1.806ZM196.3,41.991h.602v-1.806h-.602v1.806ZM211.199,41.991h.452v-1.806h-.452v1.806ZM194.193,41.991h.602v-1.806h-.602v1.806ZM209.092,34.015h.452v-1.806h-.452v1.806ZM206.835,34.015h.602v-1.806h-.602v1.806ZM204.728,34.015h.602v-1.806h-.602v1.806ZM202.621,34.015h.602v-1.806h-.602v1.806ZM200.514,34.015h.602v-1.806h-.602v1.806ZM198.407,34.015h.602v-1.806h-.602v1.806ZM196.3,34.015h.602v-1.806h-.602v1.806ZM211.199,34.015h.452v-1.806h-.452v1.806ZM194.193,34.015h.602v-1.806h-.602v1.806ZM209.092,30.704h.452v-1.806h-.452v1.806ZM206.835,30.704h.602v-1.806h-.602v1.806ZM204.728,30.704h.602v-1.806h-.602v1.806ZM202.621,30.704h.602v-1.806h-.602v1.806ZM200.514,30.704h.602v-1.806h-.602v1.806ZM198.407,30.704h.602v-1.806h-.602v1.806ZM196.3,30.704h.602v-1.806h-.602v1.806ZM211.199,30.704h.452v-1.806h-.452v1.806ZM194.193,30.704h.602v-1.806h-.602v1.806Z" fill="#ddd873" fill-rule="evenodd" stroke-width="0"/><path d="M188.473,52.075h59.211c.451,0,.753-.301.753-.752v-28.896c0-.301-.301-.602-.753-.602h-59.211c-.301,0-.602.301-.602.602v28.896c0,.451.301.752.602.752" fill="none" fill-rule="evenodd" stroke="#e6e6e6" stroke-miterlimit="10" stroke-width=".81"/><rect x="220.745" y="25.888" width="25.134" height="22.425" fill="#595959" stroke-width="0"/><path d="M222.25,44.399h22.124v-3.462h-22.124v3.462ZM222.25,33.112h22.124v-3.311h-22.124v3.311Z" fill="#262626" fill-rule="evenodd" stroke-width="0"/><path d="M239.407,45.152h.452v-1.806h-.452v1.806ZM237.149,45.152h.602v-1.806h-.602v1.806ZM235.042,45.152h.602v-1.806h-.602v1.806ZM232.935,45.152h.602v-1.806h-.602v1.806ZM230.828,45.152h.602v-1.806h-.602v1.806ZM228.721,45.152h.602v-1.806h-.602v1.806ZM226.614,45.152h.602v-1.806h-.602v1.806ZM241.514,45.152h.452v-1.806h-.452v1.806ZM224.507,45.152h.602v-1.806h-.602v1.806ZM239.407,41.991h.452v-1.806h-.452v1.806ZM237.149,41.991h.602v-1.806h-.602v1.806ZM235.042,41.991h.602v-1.806h-.602v1.806ZM232.935,41.991h.602v-1.806h-.602v1.806ZM230.828,41.991h.602v-1.806h-.602v1.806ZM228.721,41.991h.602v-1.806h-.602v1.806ZM226.614,41.991h.602v-1.806h-.602v1.806ZM241.514,41.991h.452v-1.806h-.452v1.806ZM224.507,41.991h.602v-1.806h-.602v1.806ZM239.407,34.015h.452v-1.806h-.452v1.806ZM237.149,34.015h.602v-1.806h-.602v1.806ZM235.042,34.015h.602v-1.806h-.602v1.806ZM232.935,34.015h.602v-1.806h-.602v1.806ZM230.828,34.015h.602v-1.806h-.602v1.806ZM228.721,34.015h.602v-1.806h-.602v1.806ZM226.614,34.015h.602v-1.806h-.602v1.806ZM241.514,34.015h.452v-1.806h-.452v1.806ZM224.507,34.015h.602v-1.806h-.602v1.806ZM239.407,30.704h.452v-1.806h-.452v1.806ZM237.149,30.704h.602v-1.806h-.602v1.806ZM235.042,30.704h.602v-1.806h-.602v1.806ZM232.935,30.704h.602v-1.806h-.602v1.806ZM230.828,30.704h.602v-1.806h-.602v1.806ZM228.721,30.704h.602v-1.806h-.602v1.806ZM226.614,30.704h.602v-1.806h-.602v1.806ZM241.514,30.704h.452v-1.806h-.452v1.806ZM224.507,30.704h.602v-1.806h-.602v1.806Z" fill="#ddd873" fill-rule="evenodd" stroke-width="0"/><line x1="218.098" y1="21.849" x2="218.098" y2="52.139" fill="none" stroke="#e6e6e6" stroke-miterlimit="10" stroke-width=".81"/><path d="M137.278,39.574c0-.15-.15-.301-.301-.301s-.301.151-.301.301.151.301.301.301.301-.151.301-.301M136.375,39.273c0-.15,0-.301-.151-.301s-.301.15-.301.301c0,0,.151.151.301.151s.151-.151.151-.151ZM135.623,38.822c0-.151-.151-.301-.301-.301s-.151.15-.151.301,0,.301.151.301.301-.15.301-.301ZM135.021,37.016c0-.15-.151-.15-.301-.15s-.301,0-.301.15.151.301.301.301.301-.151.301-.301ZM134.87,35.661c0-.15-.15-.301-.301-.301s-.301.151-.301.301.15.15.301.15.301,0,.301-.15ZM134.118,37.016c0-.15-.15-.15-.301-.15s-.15,0-.15.15,0,.301.15.301.301-.151.301-.301ZM133.967,35.962q0-.15-.151-.15c-.15,0-.301,0-.301.15s.151.301.301.301.151-.151.151-.301ZM134.87,38.521c0-.15-.15-.301-.301-.301s-.301.151-.301.301c0,0,.15.15.301.15s.301-.15.301-.15ZM133.967,38.069c0-.15,0-.301-.151-.301s-.301.15-.301.301.151.301.301.301.151-.151.151-.301ZM129.603,36.414v-1.957h3.01v5.117h-3.01v-1.806h1.505v-1.355h-1.505ZM133.064,37.467v-.15s.151-.151.151-.301-.151-.15-.151-.15v-.301s.151-.15.151-.301l-.151-.151v-.602l1.957-1.505.15.301,1.204-1.355-1.806.602.301.15-1.806,1.355v-.903h-3.763v2.258h-1.505v1.355h1.505v2.107h3.763v-.903l1.806,1.355-.301.151,1.806.752-1.204-1.505v.301l-2.107-1.505v-.602s.151-.15.151-.301l-.151-.15ZM137.278,34.457c0-.151-.15-.151-.301-.151s-.301,0-.301.151.151.301.301.301.301-.15.301-.301ZM136.827,37.016c0-.15-.151-.15-.301-.15s-.301,0-.301.15.151.301.301.301.301-.151.301-.301ZM136.375,34.909c0-.15,0-.301-.151-.301s-.301.15-.301.301.151.151.301.151.151,0,.151-.151ZM135.924,37.016c0-.15-.15-.15-.301-.15s-.301,0-.301.15.15.301.301.301.301-.151.301-.301ZM135.623,35.21c0-.15-.151-.15-.301-.15s-.151,0-.151.15,0,.301.151.301.301-.151.301-.301ZM139.385,37.016q0-.15-.15-.15c-.151,0-.301,0-.301.15s.15.301.301.301.15-.151.15-.301ZM138.482,37.016q0-.15-.151-.15c-.15,0-.301,0-.301.15s.151.301.301.301.151-.151.151-.301ZM138.031,34.156c0-.15-.15-.301-.301-.301,0,0-.151.151-.151.301s.151.15.151.15c.151,0,.301,0,.301-.15ZM137.73,37.016c0-.15-.151-.15-.301-.15s-.301,0-.301.15.15.301.301.301.301-.151.301-.301ZM138.031,40.026c0-.15-.15-.301-.301-.301,0,0-.151.151-.151.301l.151.15c.151,0,.301-.15.301-.15ZM217.345,58.387h-2.107v-2.408l-3.913,4.064,3.913,4.064v-2.258h2.107v-3.462ZM218.85,61.848h2.107v2.258l3.913-4.064-3.913-4.064v2.408h-2.107v3.462ZM239.634,3.826c0-.15-.15-.452-.452-.301-.15,0-.301.151-.301.301l.151,2.408c0,.15.15.15.301.15v-.15l.301-2.408ZM239.634,7.287c0-.301-.15-.451-.452-.451-.15,0-.451.15-.451.451s.301.451.451.451c.301,0,.452-.15.452-.451ZM209.082,3.826c0-.15-.15-.452-.451-.301-.151,0-.301.151-.301.301l.151,2.408c0,.15.151.15.151.15q.15,0,.15-.15l.301-2.408ZM209.082,7.287c0-.301-.15-.451-.451-.451-.151,0-.452.15-.452.451s.301.451.452.451c.301,0,.451-.15.451-.451ZM167.393,3.826c0-.15-.15-.452-.301-.301-.301,0-.451.151-.451.301l.301,2.408q0,.15.15.15s.151,0,.151-.15l.15-2.408ZM167.544,7.287c0-.301-.301-.451-.452-.451-.301,0-.451.15-.451.451s.15.451.451.451c.151,0,.452-.15.452-.451Z" fill="#333" fill-rule="evenodd" stroke-width="0"/><path d="M140.646,34.039l.248-.021c.012.099.039.18.082.244.044.062.109.115.2.154.09.039.191.058.304.058.1,0,.189-.014.266-.044.076-.03.134-.071.17-.122.038-.053.056-.108.056-.17s-.017-.117-.054-.163c-.036-.046-.096-.085-.178-.117-.053-.021-.172-.053-.353-.097s-.31-.085-.383-.122c-.094-.051-.165-.113-.211-.187-.047-.074-.07-.154-.07-.246,0-.099.029-.193.085-.281s.14-.152.249-.198c.109-.046.231-.067.365-.067.146,0,.276.023.389.069.112.048.198.117.259.21.06.092.092.198.097.313l-.251.018c-.014-.124-.06-.219-.138-.283-.077-.064-.193-.097-.345-.097-.159,0-.274.03-.348.087-.073.058-.108.129-.108.21,0,.071.025.131.077.177.051.046.182.092.396.14.213.048.359.092.439.127.115.053.201.122.256.203.055.083.083.175.083.283,0,.106-.03.205-.091.297-.06.094-.147.166-.26.219-.113.051-.241.078-.382.078-.18,0-.33-.028-.451-.078-.122-.053-.216-.131-.286-.237s-.106-.223-.109-.357Z" fill="#231f20" stroke-width="0"/><path d="M140.594,38.004l.762-1.985h.283l.812,1.985h-.298l-.231-.601h-.83l-.218.601h-.28ZM141.168,37.189h.672l-.207-.548c-.063-.168-.109-.306-.14-.412-.025.127-.061.253-.107.378l-.218.583Z" fill="#231f20" stroke-width="0"/><path d="M140.646,40.691l.248-.021c.012.099.039.18.082.244.044.062.109.115.2.154.09.039.191.058.304.058.1,0,.189-.014.266-.044.076-.03.134-.071.17-.122.038-.053.056-.108.056-.17s-.017-.117-.054-.163c-.036-.046-.096-.085-.178-.117-.053-.021-.172-.053-.353-.097s-.31-.085-.383-.122c-.094-.051-.165-.113-.211-.187-.047-.074-.07-.154-.07-.246,0-.099.029-.193.085-.281s.14-.152.249-.198c.109-.046.231-.067.365-.067.146,0,.276.023.389.069.112.048.198.117.259.21.06.092.092.198.097.313l-.251.018c-.014-.124-.06-.219-.138-.283-.077-.064-.193-.097-.345-.097-.159,0-.274.03-.348.087-.073.058-.108.129-.108.21,0,.071.025.131.077.177.051.046.182.092.396.14.213.048.359.092.439.127.115.053.201.122.256.203.055.083.083.175.083.283,0,.106-.03.205-.091.297-.06.094-.147.166-.26.219-.113.051-.241.078-.382.078-.18,0-.33-.028-.451-.078-.122-.053-.216-.131-.286-.237s-.106-.223-.109-.357Z" fill="#231f20" stroke-width="0"/><path d="M222.47,3.706h.503v3.476h1.666v.422h-2.169v-3.897Z" fill="#333" stroke-width="0"/><path d="M225.199,7.603v-3.897h.55l1.249,1.972c.289.457.515.867.699,1.267l.012-.006c-.046-.521-.058-.995-.058-1.602v-1.631h.475v3.897h-.51l-1.237-1.978c-.271-.434-.532-.879-.729-1.302l-.018.006c.029.492.041.96.041,1.607v1.666h-.475Z" fill="#333" stroke-width="0"/><path d="M229.003,3.706h.503v1.879h.018c.104-.15.208-.289.307-.416l1.191-1.463h.624l-1.411,1.653,1.521,2.244h-.596l-1.284-1.914-.37.428v1.486h-.503v-3.897Z" fill="#333" stroke-width="0"/><path d="M192.214,3.706h.503v3.476h1.666v.422h-2.169v-3.897Z" fill="#333" stroke-width="0"/><path d="M194.943,7.603v-3.897h.55l1.249,1.972c.289.457.515.867.699,1.267l.012-.006c-.046-.521-.058-.995-.058-1.602v-1.631h.475v3.897h-.51l-1.237-1.978c-.271-.434-.532-.879-.729-1.302l-.018.006c.029.492.041.96.041,1.607v1.666h-.475Z" fill="#333" stroke-width="0"/><path d="M198.748,3.706h.503v1.879h.018c.104-.15.208-.289.307-.416l1.191-1.463h.624l-1.411,1.653,1.521,2.244h-.596l-1.284-1.914-.37.428v1.486h-.503v-3.897Z" fill="#333" stroke-width="0"/><path d="M150.577,3.706h.503v3.476h1.666v.422h-2.169v-3.897Z" fill="#333" stroke-width="0"/><path d="M153.305,7.603v-3.897h.55l1.249,1.972c.289.457.515.867.699,1.267l.012-.006c-.046-.521-.058-.995-.058-1.602v-1.631h.475v3.897h-.51l-1.237-1.978c-.271-.434-.532-.879-.729-1.302l-.018.006c.029.492.041.96.041,1.607v1.666h-.475Z" fill="#333" stroke-width="0"/><path d="M157.11,3.706h.503v1.879h.018c.104-.15.208-.289.307-.416l1.191-1.463h.624l-1.411,1.653,1.521,2.244h-.596l-1.284-1.914-.37.428v1.486h-.503v-3.897Z" fill="#333" stroke-width="0"/><path d="M157.562,59.571c0-.557.058-1.009.173-1.347.114-.341.286-.603.512-.79.226-.184.511-.276.855-.276.253,0,.475.051.667.154.191.101.349.249.473.44.125.193.223.428.294.702.071.276.106.649.106,1.117,0,.555-.056,1.002-.17,1.342s-.284.603-.51.79c-.227.187-.513.279-.859.279-.456,0-.814-.163-1.073-.49-.312-.391-.467-1.032-.467-1.92ZM158.158,59.571c0,.776.09,1.292.272,1.55.182.256.405.385.672.385s.49-.129.671-.387c.182-.258.273-.774.273-1.547s-.091-1.294-.273-1.55c-.181-.256-.408-.382-.678-.382-.266,0-.479.113-.638.338-.2.288-.299.817-.299,1.593Z" fill="#231f20" stroke-width="0"/><path d="M163.626,61.48c-.214.182-.421.311-.619.387-.199.074-.412.113-.64.113-.375,0-.664-.092-.867-.276-.201-.184-.303-.419-.303-.705,0-.168.038-.32.114-.458.077-.138.176-.251.3-.334.123-.083.262-.147.417-.191.114-.03.286-.058.516-.085.469-.058.813-.124,1.034-.2.002-.081.003-.131.003-.152,0-.237-.054-.403-.165-.5-.147-.131-.368-.196-.66-.196-.273,0-.474.048-.604.143-.13.097-.226.265-.289.507l-.566-.076c.052-.244.136-.44.254-.589.119-.147.289-.262.512-.343s.482-.122.776-.122.53.035.713.104.317.154.403.26c.085.104.146.235.181.394.018.099.029.276.029.534v.774c0,.539.012.882.037,1.025.024.143.074.279.146.41h-.606c-.06-.12-.099-.26-.116-.421ZM163.577,60.184c-.211.085-.526.159-.946.219-.239.035-.408.074-.507.117-.099.041-.175.106-.229.189-.053.081-.081.173-.081.274,0,.154.059.283.176.387s.288.154.513.154c.223,0,.423-.048.596-.145.174-.099.302-.233.383-.403.062-.131.093-.322.093-.58v-.212Z" fill="#231f20" stroke-width="0"/><path d="M197.54,59.571c0-.557.058-1.009.173-1.347.113-.341.286-.603.511-.79.226-.184.511-.276.857-.276.253,0,.474.051.665.154.191.101.35.249.474.44.124.193.223.428.292.702.071.276.106.649.106,1.117,0,.555-.055,1.002-.17,1.342-.113.341-.283.603-.509.79-.228.187-.513.279-.859.279-.456,0-.815-.163-1.073-.49-.313-.391-.467-1.032-.467-1.92ZM198.137,59.571c0,.776.09,1.292.272,1.55.182.256.405.385.672.385.265,0,.49-.129.67-.387.182-.258.274-.774.274-1.547s-.092-1.294-.274-1.55c-.18-.256-.408-.382-.677-.382-.267,0-.479.113-.638.338-.2.288-.299.817-.299,1.593Z" fill="#231f20" stroke-width="0"/><path d="M201.906,61.902h-.539v-4.723h.58v1.683c.246-.306.557-.461.937-.461.212,0,.41.044.599.129.189.083.343.203.463.357.122.154.216.338.286.555.069.219.104.449.104.698,0,.585-.145,1.038-.435,1.359s-.638.481-1.043.481-.721-.17-.951-.507v.428ZM201.899,60.165c0,.41.055.707.168.889.182.299.431.447.741.447.253,0,.472-.108.656-.329s.279-.548.279-.983c0-.447-.09-.778-.267-.99s-.391-.32-.642-.32c-.253,0-.472.111-.656.332-.187.219-.279.539-.279.956Z" fill="#231f20" stroke-width="0"/><path d="M207.064,61.902h-.58v-3.696c-.14.134-.322.267-.55.398-.226.134-.428.235-.61.302v-.562c.325-.152.608-.336.852-.555.242-.216.414-.426.516-.631h.373v4.743Z" fill="#231f20" stroke-width="0"/><path d="M228.48,59.571c0-.557.058-1.009.173-1.347.113-.341.286-.603.511-.79.226-.184.511-.276.857-.276.253,0,.474.051.665.154.191.101.35.249.474.44.124.193.223.428.292.702.071.276.106.649.106,1.117,0,.555-.055,1.002-.17,1.342-.113.341-.283.603-.509.79-.228.187-.513.279-.859.279-.456,0-.815-.163-1.073-.49-.313-.391-.467-1.032-.467-1.92ZM229.077,59.571c0,.776.09,1.292.272,1.55.182.256.405.385.672.385.265,0,.49-.129.67-.387.182-.258.274-.774.274-1.547s-.092-1.294-.274-1.55c-.18-.256-.408-.382-.677-.382-.267,0-.479.113-.638.338-.2.288-.299.817-.299,1.593Z" fill="#231f20" stroke-width="0"/><path d="M232.846,61.902h-.539v-4.723h.58v1.683c.246-.306.557-.461.937-.461.212,0,.41.044.599.129.189.083.343.203.463.357.122.154.216.338.286.555.069.219.104.449.104.698,0,.585-.145,1.038-.435,1.359s-.638.481-1.043.481-.721-.17-.951-.507v.428ZM232.839,60.165c0,.41.055.707.168.889.182.299.431.447.741.447.253,0,.472-.108.656-.329s.279-.548.279-.983c0-.447-.09-.778-.267-.99s-.391-.32-.642-.32c-.253,0-.472.111-.656.332-.187.219-.279.539-.279.956Z" fill="#231f20" stroke-width="0"/><path d="M238.867,61.344v.557h-3.122c-.005-.14.018-.274.067-.403.081-.212.207-.421.382-.629.175-.205.428-.444.76-.714.513-.421.859-.755,1.041-1.002.18-.246.269-.479.269-.698,0-.23-.081-.424-.246-.583-.163-.157-.378-.235-.642-.235-.279,0-.502.083-.67.251s-.253.398-.256.695l-.594-.062c.039-.444.193-.783.461-1.015.265-.233.624-.35,1.073-.35.454,0,.811.127,1.075.378s.396.562.396.935c0,.189-.039.373-.115.557-.078.182-.207.375-.385.576-.18.203-.479.479-.896.831-.348.292-.571.49-.67.594-.099.106-.18.21-.244.315h2.316Z" fill="#231f20" stroke-width="0"/></g><rect x="117.292" y=".385" width="139.745" height="66.929" fill="none" stroke="#231f20" stroke-miterlimit="10" stroke-width=".77"/><g opacity=".4"><rect x="219.459" y="22.923" width="27.917" height="28.111" fill="#fff" stroke-width="0"/><path d="M246.572,23.813v26.286h-26.318v-26.286h26.318M248.111,22.274h-29.396v29.364h29.396v-29.364h0Z" fill="#231f20" stroke-width="0"/><line x1="246.534" y1="49.874" x2="220.652" y2="24.208" fill="none" stroke="#231f20" stroke-linecap="round" stroke-linejoin="round" stroke-width="1.539"/><line x1="246.209" y1="24.208" x2="220.435" y2="49.874" fill="none" stroke="#231f20" stroke-linecap="round" stroke-linejoin="round" stroke-width="1.539"/></g><line x1="213.834" y1="104.565" x2="200.892" y2="91.731" fill="none" opacity=".7" stroke="#231f20" stroke-linecap="round" stroke-linejoin="round" stroke-width=".77"/><line x1="213.672" y1="91.731" x2="200.783" y2="104.565" fill="none" opacity=".7" stroke="#231f20" stroke-linecap="round" stroke-linejoin="round" stroke-width=".77"/></g></svg>