<?xml version="1.0" encoding="utf-8"?>
<!-- Generator: Adobe Illustrator 26.0.3, SVG Export Plug-In . SVG Version: 6.00 Build 0)  -->
<svg version="1.1" id="Layer_1" xmlns="http://www.w3.org/2000/svg" xmlns:xlink="http://www.w3.org/1999/xlink" x="0px" y="0px"
	 viewBox="0 0 361.3 293.7" style="enable-background:new 0 0 361.3 293.7;" xml:space="preserve">
<style type="text/css">
	.st0{fill:none;stroke:#1670B8;stroke-width:2.3914;stroke-miterlimit:10;}
	.st1{fill:none;stroke:#BBBDBF;stroke-width:2.3914;stroke-miterlimit:10;}
	.st2{fill:none;stroke:#FFFFFF;stroke-width:5.9784;stroke-miterlimit:10;}
	.st3{fill:none;stroke:#F5A800;stroke-width:2.3914;stroke-miterlimit:10;stroke-dasharray:2.3065;}
	.st4{fill:none;stroke:#FFFFFF;stroke-width:3.5871;stroke-miterlimit:10;}
	.st5{fill:none;stroke:#F5A800;stroke-width:2.3914;stroke-miterlimit:10;}
	.st6{fill:none;stroke:#1670B8;stroke-width:2.3914;stroke-miterlimit:10;stroke-dasharray:2.3065;}
	.st7{fill:#FFFFFF;stroke:#231F20;stroke-width:1.2745;stroke-miterlimit:10;}
	.st8{fill:#FFFFFF;stroke:#231F20;stroke-width:1.4842;stroke-miterlimit:10;}
	.st9{fill:#231F20;}
	.st10{fill:#FFFFFF;stroke:#231F20;stroke-width:1.3045;stroke-miterlimit:10;}
</style>
<line class="st0" x1="146.2" y1="59.4" x2="254" y2="59.4"/>
<path class="st1" d="M144.8,59.5"/>
<polyline class="st2" points="144.8,270.9 198.1,270.9 198.1,82.4 254,82.4 "/>
<polyline class="st3" points="144.8,270.9 198.1,270.9 198.1,82.4 254,82.4 "/>
<polyline class="st4" points="144.8,194.4 221.4,194.4 221.4,111.7 254,111.7 "/>
<polyline class="st5" points="144.8,194.4 221.4,194.4 221.4,111.7 254,111.7 "/>
<polyline class="st2" points="144.8,118.1 180.6,118.1 180.6,199.2 254,199.2 "/>
<polyline class="st0" points="144.8,118.1 180.6,118.1 180.6,199.2 254,199.2 "/>
<line class="st2" x1="144.8" y1="134.1" x2="254" y2="134.1"/>
<line class="st6" x1="144.8" y1="134.1" x2="254" y2="134.1"/>
<polyline class="st2" points="144.8,255.2 173.6,255.2 173.6,248.5 254,248.5 "/>
<polyline class="st5" points="144.8,255.2 173.6,255.2 173.6,248.5 254,248.5 "/>
<polyline class="st2" points="144.8,77.1 210.1,77.1 210.1,270.6 254,270.6 "/>
<polyline class="st6" points="144.8,76.8 210.1,76.8 210.1,270.6 254,270.6 "/>
<polyline class="st2" points="145.2,213 237.9,213 237.9,219.3 254,219.3 "/>
<polyline class="st3" points="145.2,213 237.9,213 237.9,219.3 254,219.3 "/>
<rect x="0.6" y="45" class="st7" width="144.1" height="104.2"/>
<g>
	<rect x="111.4" y="52.6" class="st8" width="33.4" height="15.8"/>
	<g>
		<path class="st9" d="M129,63.4c-0.4,0.3-0.7,0.5-1,0.6c-0.3,0.1-0.7,0.2-1,0.2c-0.6,0-1.1-0.1-1.4-0.4c-0.3-0.3-0.5-0.7-0.5-1.1
			c0-0.3,0.1-0.5,0.2-0.7c0.1-0.2,0.3-0.4,0.5-0.5c0.2-0.1,0.4-0.2,0.7-0.3c0.2,0,0.5-0.1,0.8-0.1c0.8-0.1,1.3-0.2,1.7-0.3
			c0-0.1,0-0.2,0-0.2c0-0.4-0.1-0.7-0.3-0.8c-0.2-0.2-0.6-0.3-1.1-0.3c-0.4,0-0.8,0.1-1,0.2s-0.4,0.4-0.5,0.8l-0.9-0.1
			c0.1-0.4,0.2-0.7,0.4-1c0.2-0.2,0.5-0.4,0.8-0.6s0.8-0.2,1.3-0.2c0.5,0,0.9,0.1,1.2,0.2c0.3,0.1,0.5,0.3,0.7,0.4s0.2,0.4,0.3,0.6
			c0,0.2,0,0.5,0,0.9v1.3c0,0.9,0,1.4,0.1,1.7c0,0.2,0.1,0.5,0.2,0.7h-1C129.1,63.9,129,63.6,129,63.4z M128.9,61.3
			c-0.3,0.1-0.9,0.3-1.5,0.4c-0.4,0.1-0.7,0.1-0.8,0.2c-0.2,0.1-0.3,0.2-0.4,0.3c-0.1,0.1-0.1,0.3-0.1,0.4c0,0.3,0.1,0.5,0.3,0.6
			c0.2,0.2,0.5,0.3,0.8,0.3c0.4,0,0.7-0.1,1-0.2c0.3-0.2,0.5-0.4,0.6-0.7c0.1-0.2,0.2-0.5,0.2-0.9V61.3z"/>
	</g>
	<rect x="97.4" y="52.6" class="st8" width="14.5" height="31.5"/>
</g>
<g>
	<rect x="112.1" y="68.4" class="st8" width="32.7" height="15.8"/>
	<rect x="111.4" y="109.8" class="st8" width="33.4" height="15.8"/>
	<rect x="97.4" y="109.8" class="st8" width="14.5" height="31.5"/>
	<rect x="112.1" y="125.6" class="st8" width="32.7" height="15.8"/>
	<g>
		<path class="st9" d="M126.2,80h-0.9v-7.7h0.9V75c0.4-0.5,0.9-0.8,1.5-0.8c0.3,0,0.7,0.1,1,0.2c0.3,0.1,0.6,0.3,0.8,0.6
			c0.2,0.3,0.4,0.6,0.5,0.9c0.1,0.4,0.2,0.7,0.2,1.1c0,1-0.2,1.7-0.7,2.2c-0.5,0.5-1,0.8-1.7,0.8c-0.7,0-1.2-0.3-1.6-0.8V80z
			 M126.2,77.2c0,0.7,0.1,1.2,0.3,1.5c0.3,0.5,0.7,0.7,1.2,0.7c0.4,0,0.8-0.2,1.1-0.5c0.3-0.4,0.5-0.9,0.5-1.6
			c0-0.7-0.1-1.3-0.4-1.6c-0.3-0.3-0.6-0.5-1-0.5c-0.4,0-0.8,0.2-1.1,0.5S126.2,76.5,126.2,77.2z"/>
	</g>
</g>
<g>
	<g>
		<path class="st9" d="M129,121.1c-0.4,0.3-0.7,0.5-1,0.6c-0.3,0.1-0.7,0.2-1,0.2c-0.6,0-1.1-0.1-1.4-0.4c-0.3-0.3-0.5-0.7-0.5-1.1
			c0-0.3,0.1-0.5,0.2-0.7c0.1-0.2,0.3-0.4,0.5-0.5c0.2-0.1,0.4-0.2,0.7-0.3c0.2,0,0.5-0.1,0.8-0.1c0.8-0.1,1.3-0.2,1.7-0.3
			c0-0.1,0-0.2,0-0.2c0-0.4-0.1-0.7-0.3-0.8c-0.2-0.2-0.6-0.3-1.1-0.3c-0.4,0-0.8,0.1-1,0.2s-0.4,0.4-0.5,0.8l-0.9-0.1
			c0.1-0.4,0.2-0.7,0.4-1c0.2-0.2,0.5-0.4,0.8-0.6s0.8-0.2,1.3-0.2c0.5,0,0.9,0.1,1.2,0.2c0.3,0.1,0.5,0.3,0.7,0.4s0.2,0.4,0.3,0.6
			c0,0.2,0,0.5,0,0.9v1.3c0,0.9,0,1.4,0.1,1.7c0,0.2,0.1,0.5,0.2,0.7h-1C129.1,121.6,129,121.3,129,121.1z M128.9,119
			c-0.3,0.1-0.9,0.3-1.5,0.4c-0.4,0.1-0.7,0.1-0.8,0.2c-0.2,0.1-0.3,0.2-0.4,0.3c-0.1,0.1-0.1,0.3-0.1,0.4c0,0.3,0.1,0.5,0.3,0.6
			c0.2,0.2,0.5,0.3,0.8,0.3c0.4,0,0.7-0.1,1-0.2c0.3-0.2,0.5-0.4,0.6-0.7c0.1-0.2,0.2-0.5,0.2-0.9V119z"/>
	</g>
</g>
<g>
	<g>
		<path class="st9" d="M126.2,137.1h-0.9v-7.7h0.9v2.7c0.4-0.5,0.9-0.8,1.5-0.8c0.3,0,0.7,0.1,1,0.2c0.3,0.1,0.6,0.3,0.8,0.6
			c0.2,0.3,0.4,0.6,0.5,0.9c0.1,0.4,0.2,0.7,0.2,1.1c0,1-0.2,1.7-0.7,2.2c-0.5,0.5-1,0.8-1.7,0.8c-0.7,0-1.2-0.3-1.6-0.8V137.1z
			 M126.2,134.2c0,0.7,0.1,1.2,0.3,1.5c0.3,0.5,0.7,0.7,1.2,0.7c0.4,0,0.8-0.2,1.1-0.5c0.3-0.4,0.5-0.9,0.5-1.6
			c0-0.7-0.1-1.3-0.4-1.6c-0.3-0.3-0.6-0.5-1-0.5c-0.4,0-0.8,0.2-1.1,0.5S126.2,133.6,126.2,134.2z"/>
	</g>
</g>
<g>
	<path class="st9" d="M37.6,97.1l1,0.3c-0.2,0.8-0.6,1.5-1.2,1.9c-0.6,0.4-1.2,0.7-2,0.7c-0.8,0-1.5-0.2-2-0.5
		c-0.5-0.3-0.9-0.8-1.2-1.5s-0.4-1.3-0.4-2.1c0-0.8,0.2-1.5,0.5-2.1s0.7-1.1,1.3-1.4c0.6-0.3,1.2-0.5,1.9-0.5c0.8,0,1.4,0.2,1.9,0.6
		c0.5,0.4,0.9,0.9,1.1,1.7l-1,0.2c-0.2-0.6-0.4-1-0.8-1.2s-0.8-0.4-1.3-0.4c-0.6,0-1.1,0.1-1.5,0.4s-0.7,0.7-0.8,1.1
		c-0.2,0.5-0.2,1-0.2,1.5c0,0.7,0.1,1.2,0.3,1.7c0.2,0.5,0.5,0.9,0.9,1.1s0.8,0.4,1.3,0.4c0.6,0,1.1-0.2,1.5-0.5
		C37.2,98.2,37.5,97.8,37.6,97.1z"/>
	<path class="st9" d="M39.4,97c0-1,0.3-1.8,0.9-2.3c0.5-0.4,1.1-0.6,1.8-0.6c0.8,0,1.4,0.3,1.9,0.8c0.5,0.5,0.7,1.2,0.7,2.1
		c0,0.7-0.1,1.3-0.3,1.7c-0.2,0.4-0.5,0.7-0.9,1s-0.9,0.3-1.3,0.3c-0.8,0-1.4-0.3-1.9-0.8C39.7,98.7,39.4,98,39.4,97z M40.4,97
		c0,0.7,0.2,1.2,0.5,1.6c0.3,0.4,0.7,0.5,1.2,0.5c0.5,0,0.9-0.2,1.2-0.5c0.3-0.4,0.5-0.9,0.5-1.6c0-0.7-0.2-1.2-0.5-1.6
		s-0.7-0.5-1.2-0.5c-0.5,0-0.9,0.2-1.2,0.5C40.5,95.8,40.4,96.3,40.4,97z"/>
	<path class="st9" d="M45.8,99.8v-5.6h0.9V95c0.4-0.6,1-0.9,1.8-0.9c0.3,0,0.6,0.1,0.9,0.2c0.3,0.1,0.5,0.3,0.6,0.5
		c0.1,0.2,0.2,0.4,0.3,0.7c0,0.2,0.1,0.5,0.1,0.9v3.4h-0.9v-3.4c0-0.4,0-0.7-0.1-0.9c-0.1-0.2-0.2-0.3-0.4-0.5s-0.4-0.2-0.7-0.2
		c-0.4,0-0.8,0.1-1,0.4c-0.3,0.3-0.4,0.7-0.4,1.5v3H45.8z"/>
	<path class="st9" d="M53.8,99l0.1,0.8c-0.3,0.1-0.5,0.1-0.7,0.1c-0.3,0-0.6-0.1-0.8-0.2c-0.2-0.1-0.3-0.3-0.4-0.4
		c-0.1-0.2-0.1-0.5-0.1-1.1V95h-0.7v-0.7h0.7v-1.4l0.9-0.6v1.9h1V95h-1v3.3c0,0.3,0,0.4,0,0.5c0,0.1,0.1,0.1,0.2,0.2
		s0.2,0.1,0.3,0.1C53.5,99,53.6,99,53.8,99z"/>
	<path class="st9" d="M54.7,99.8v-5.6h0.9v0.8c0.2-0.4,0.4-0.7,0.6-0.8c0.2-0.1,0.4-0.2,0.6-0.2c0.3,0,0.6,0.1,1,0.3l-0.3,0.9
		c-0.2-0.1-0.5-0.2-0.7-0.2c-0.2,0-0.4,0.1-0.6,0.2s-0.3,0.3-0.4,0.5c-0.1,0.3-0.2,0.7-0.2,1.1v2.9H54.7z"/>
	<path class="st9" d="M58,97c0-1,0.3-1.8,0.9-2.3c0.5-0.4,1.1-0.6,1.8-0.6c0.8,0,1.4,0.3,1.9,0.8c0.5,0.5,0.7,1.2,0.7,2.1
		c0,0.7-0.1,1.3-0.3,1.7c-0.2,0.4-0.5,0.7-0.9,1s-0.9,0.3-1.3,0.3c-0.8,0-1.4-0.3-1.9-0.8C58.2,98.7,58,98,58,97z M58.9,97
		c0,0.7,0.2,1.2,0.5,1.6c0.3,0.4,0.7,0.5,1.2,0.5c0.5,0,0.9-0.2,1.2-0.5c0.3-0.4,0.5-0.9,0.5-1.6c0-0.7-0.2-1.2-0.5-1.6
		s-0.7-0.5-1.2-0.5c-0.5,0-0.9,0.2-1.2,0.5C59.1,95.8,58.9,96.3,58.9,97z"/>
	<path class="st9" d="M64.3,99.8v-7.7h0.9v7.7H64.3z"/>
	<path class="st9" d="M66.7,99.8v-7.7h0.9v7.7H66.7z"/>
	<path class="st9" d="M72.9,98l1,0.1c-0.2,0.6-0.4,1-0.9,1.3c-0.4,0.3-0.9,0.5-1.6,0.5c-0.8,0-1.5-0.3-1.9-0.8
		c-0.5-0.5-0.7-1.2-0.7-2.1c0-0.9,0.2-1.7,0.7-2.2s1.1-0.8,1.9-0.8c0.7,0,1.4,0.3,1.8,0.8c0.5,0.5,0.7,1.2,0.7,2.1
		c0,0.1,0,0.1,0,0.3h-4.2c0,0.6,0.2,1.1,0.5,1.4c0.3,0.3,0.7,0.5,1.2,0.5c0.3,0,0.6-0.1,0.9-0.3C72.6,98.7,72.8,98.4,72.9,98z
		 M69.8,96.5h3.1c0-0.5-0.2-0.8-0.4-1.1c-0.3-0.4-0.7-0.5-1.2-0.5c-0.4,0-0.8,0.1-1.1,0.4C70,95.6,69.8,96,69.8,96.5z"/>
	<path class="st9" d="M75.1,99.8v-5.6h0.9v0.8c0.2-0.4,0.4-0.7,0.6-0.8c0.2-0.1,0.4-0.2,0.6-0.2c0.3,0,0.6,0.1,1,0.3l-0.3,0.9
		c-0.2-0.1-0.5-0.2-0.7-0.2c-0.2,0-0.4,0.1-0.6,0.2s-0.3,0.3-0.4,0.5c-0.1,0.3-0.2,0.7-0.2,1.1v2.9H75.1z"/>
	<path class="st9" d="M80.3,99.8l3-7.7h1.1l3.2,7.7h-1.2l-0.9-2.3h-3.2l-0.8,2.3H80.3z M82.5,96.6h2.6l-0.8-2.1
		c-0.2-0.6-0.4-1.2-0.5-1.6c-0.1,0.5-0.2,1-0.4,1.5L82.5,96.6z"/>
</g>
<g>
	<rect x="0.6" y="181.5" class="st7" width="144.1" height="104.2"/>
	<g>
		<g>
			<g>
				<path class="st9" d="M105.7,77.5l-0.1-0.6c0.3,0,0.5-0.1,0.7-0.2s0.3-0.3,0.4-0.5s0.2-0.5,0.2-0.8c0-0.3,0-0.5-0.1-0.7
					s-0.2-0.3-0.4-0.4c-0.1-0.1-0.3-0.1-0.5-0.1c-0.2,0-0.3,0-0.5,0.1s-0.2,0.2-0.3,0.5c-0.1,0.1-0.2,0.4-0.3,0.9
					c-0.1,0.5-0.2,0.8-0.4,1c-0.1,0.2-0.3,0.4-0.5,0.6c-0.2,0.1-0.5,0.2-0.7,0.2c-0.3,0-0.6-0.1-0.8-0.2c-0.3-0.1-0.4-0.4-0.6-0.6
					s-0.2-0.6-0.2-0.9c0-0.4,0.1-0.7,0.2-1c0.1-0.3,0.3-0.5,0.6-0.7c0.3-0.2,0.6-0.2,0.9-0.3l0.1,0.7c-0.4,0-0.6,0.2-0.8,0.4
					s-0.3,0.5-0.3,0.9c0,0.4,0.1,0.7,0.3,0.9c0.2,0.2,0.4,0.3,0.6,0.3c0.2,0,0.4-0.1,0.5-0.2c0.1-0.1,0.3-0.5,0.4-1
					c0.1-0.6,0.3-0.9,0.4-1.1c0.2-0.3,0.3-0.5,0.6-0.7c0.2-0.1,0.5-0.2,0.8-0.2c0.3,0,0.6,0.1,0.9,0.2c0.3,0.2,0.5,0.4,0.6,0.7
					c0.1,0.3,0.2,0.6,0.2,1c0,0.5-0.1,0.9-0.2,1.2c-0.2,0.3-0.4,0.6-0.7,0.7S106.1,77.5,105.7,77.5z"/>
				<path class="st9" d="M107.5,72.5h-5.7v-0.6h5.7V72.5z"/>
				<path class="st9" d="M105.5,71.1c-0.8,0-1.3-0.2-1.7-0.6c-0.3-0.3-0.5-0.7-0.5-1.2c0-0.5,0.2-0.9,0.6-1.3s0.9-0.5,1.5-0.5
					c0.5,0,1,0.1,1.3,0.2s0.5,0.4,0.7,0.6s0.3,0.6,0.3,0.9c0,0.5-0.2,0.9-0.6,1.3S106.2,71.1,105.5,71.1z M105.5,70.5
					c0.5,0,0.9-0.1,1.2-0.3c0.3-0.2,0.4-0.5,0.4-0.8c0-0.3-0.1-0.6-0.4-0.8s-0.7-0.3-1.2-0.3c-0.5,0-0.9,0.1-1.2,0.3
					c-0.3,0.2-0.4,0.5-0.4,0.8c0,0.3,0.1,0.6,0.4,0.8C104.5,70.4,104.9,70.5,105.5,70.5z"/>
				<path class="st9" d="M106.9,65.5l0.6-0.1c0,0.2,0.1,0.3,0.1,0.5c0,0.2,0,0.4-0.1,0.5s-0.2,0.2-0.3,0.3s-0.4,0.1-0.8,0.1h-2.4
					v0.5h-0.5v-0.5h-1l-0.4-0.6h1.4v-0.6h0.5v0.6h2.4c0.2,0,0.3,0,0.4,0c0.1,0,0.1-0.1,0.1-0.1s0.1-0.1,0.1-0.2
					C106.9,65.7,106.9,65.6,106.9,65.5z"/>
				<path class="st9" d="M107.5,61.1h-1.4v2.2h-0.6l-3.7-2.4v-0.5h3.7v-0.7h0.6v0.7h1.4V61.1z M105.5,61.1h-2.6l2.6,1.6V61.1z"/>
			</g>
		</g>
	</g>
</g>
<g>
	<path class="st9" d="M37,237l1,0.3c-0.2,0.8-0.6,1.5-1.2,1.9s-1.2,0.7-2,0.7c-0.8,0-1.5-0.2-2-0.5c-0.5-0.3-0.9-0.8-1.2-1.5
		c-0.3-0.6-0.4-1.3-0.4-2.1c0-0.8,0.2-1.5,0.5-2.1c0.3-0.6,0.7-1.1,1.3-1.4c0.6-0.3,1.2-0.5,1.9-0.5c0.8,0,1.4,0.2,1.9,0.6
		s0.9,0.9,1.1,1.7l-1,0.2c-0.2-0.6-0.4-1-0.8-1.2c-0.3-0.3-0.8-0.4-1.3-0.4c-0.6,0-1.1,0.1-1.5,0.4c-0.4,0.3-0.7,0.7-0.8,1.1
		c-0.2,0.5-0.2,1-0.2,1.5c0,0.7,0.1,1.2,0.3,1.7c0.2,0.5,0.5,0.9,0.9,1.1c0.4,0.2,0.8,0.4,1.3,0.4c0.6,0,1.1-0.2,1.5-0.5
		C36.6,238.1,36.9,237.6,37,237z"/>
	<path class="st9" d="M38.8,236.9c0-1,0.3-1.8,0.9-2.3c0.5-0.4,1.1-0.6,1.8-0.6c0.8,0,1.4,0.3,1.9,0.8s0.7,1.2,0.7,2.1
		c0,0.7-0.1,1.3-0.3,1.7c-0.2,0.4-0.5,0.7-0.9,1c-0.4,0.2-0.9,0.3-1.3,0.3c-0.8,0-1.4-0.2-1.9-0.8C39.1,238.5,38.8,237.8,38.8,236.9
		z M39.8,236.9c0,0.7,0.2,1.2,0.5,1.6c0.3,0.4,0.7,0.5,1.2,0.5c0.5,0,0.9-0.2,1.2-0.5c0.3-0.4,0.5-0.9,0.5-1.6
		c0-0.7-0.2-1.2-0.5-1.6c-0.3-0.4-0.7-0.5-1.2-0.5c-0.5,0-0.9,0.2-1.2,0.5C40,235.6,39.8,236.1,39.8,236.9z"/>
	<path class="st9" d="M45.2,239.7v-5.6H46v0.8c0.4-0.6,1-0.9,1.8-0.9c0.3,0,0.6,0.1,0.9,0.2c0.3,0.1,0.5,0.3,0.6,0.5
		s0.2,0.4,0.3,0.7c0,0.2,0.1,0.5,0.1,0.9v3.4h-0.9v-3.4c0-0.4,0-0.7-0.1-0.9c-0.1-0.2-0.2-0.3-0.4-0.5s-0.4-0.2-0.7-0.2
		c-0.4,0-0.8,0.1-1,0.4s-0.4,0.7-0.4,1.5v3H45.2z"/>
	<path class="st9" d="M53.2,238.8l0.1,0.8c-0.3,0.1-0.5,0.1-0.7,0.1c-0.3,0-0.6-0.1-0.8-0.2c-0.2-0.1-0.3-0.3-0.4-0.4
		c-0.1-0.2-0.1-0.5-0.1-1.1v-3.2h-0.7v-0.7h0.7v-1.4l0.9-0.6v1.9h1v0.7h-1v3.3c0,0.3,0,0.4,0,0.5s0.1,0.1,0.2,0.2
		c0.1,0,0.2,0.1,0.3,0.1C52.9,238.8,53,238.8,53.2,238.8z"/>
	<path class="st9" d="M54.1,239.7v-5.6H55v0.8c0.2-0.4,0.4-0.7,0.6-0.8c0.2-0.1,0.4-0.2,0.6-0.2c0.3,0,0.6,0.1,1,0.3l-0.3,0.9
		c-0.2-0.1-0.5-0.2-0.7-0.2c-0.2,0-0.4,0.1-0.6,0.2c-0.2,0.1-0.3,0.3-0.4,0.5c-0.1,0.3-0.2,0.7-0.2,1.1v2.9H54.1z"/>
	<path class="st9" d="M57.4,236.9c0-1,0.3-1.8,0.9-2.3c0.5-0.4,1.1-0.6,1.8-0.6c0.8,0,1.4,0.3,1.9,0.8s0.7,1.2,0.7,2.1
		c0,0.7-0.1,1.3-0.3,1.7c-0.2,0.4-0.5,0.7-0.9,1c-0.4,0.2-0.9,0.3-1.3,0.3c-0.8,0-1.4-0.2-1.9-0.8C57.6,238.5,57.4,237.8,57.4,236.9
		z M58.3,236.9c0,0.7,0.2,1.2,0.5,1.6c0.3,0.4,0.7,0.5,1.2,0.5c0.5,0,0.9-0.2,1.2-0.5c0.3-0.4,0.5-0.9,0.5-1.6
		c0-0.7-0.2-1.2-0.5-1.6c-0.3-0.4-0.7-0.5-1.2-0.5c-0.5,0-0.9,0.2-1.2,0.5C58.5,235.6,58.3,236.1,58.3,236.9z"/>
	<path class="st9" d="M63.7,239.7V232h0.9v7.7H63.7z"/>
	<path class="st9" d="M66.1,239.7V232H67v7.7H66.1z"/>
	<path class="st9" d="M72.3,237.9l1,0.1c-0.2,0.6-0.4,1-0.9,1.3c-0.4,0.3-0.9,0.5-1.6,0.5c-0.8,0-1.5-0.3-1.9-0.8s-0.7-1.2-0.7-2.1
		c0-0.9,0.2-1.7,0.7-2.2s1.1-0.8,1.9-0.8c0.7,0,1.4,0.3,1.8,0.8c0.5,0.5,0.7,1.2,0.7,2.1c0,0.1,0,0.1,0,0.3h-4.2
		c0,0.6,0.2,1.1,0.5,1.4c0.3,0.3,0.7,0.5,1.2,0.5c0.3,0,0.6-0.1,0.9-0.3C72,238.5,72.2,238.3,72.3,237.9z M69.2,236.3h3.1
		c0-0.5-0.2-0.8-0.4-1.1c-0.3-0.4-0.7-0.5-1.2-0.5c-0.4,0-0.8,0.1-1.1,0.4C69.4,235.5,69.2,235.8,69.2,236.3z"/>
	<path class="st9" d="M74.5,239.7v-5.6h0.9v0.8c0.2-0.4,0.4-0.7,0.6-0.8c0.2-0.1,0.4-0.2,0.6-0.2c0.3,0,0.6,0.1,1,0.3l-0.3,0.9
		c-0.2-0.1-0.5-0.2-0.7-0.2c-0.2,0-0.4,0.1-0.6,0.2c-0.2,0.1-0.3,0.3-0.4,0.5c-0.1,0.3-0.2,0.7-0.2,1.1v2.9H74.5z"/>
	<path class="st9" d="M81.1,239.7V232H84c0.6,0,1.1,0.1,1.4,0.2c0.4,0.2,0.6,0.4,0.8,0.7c0.2,0.3,0.3,0.7,0.3,1
		c0,0.3-0.1,0.6-0.3,0.9s-0.4,0.5-0.8,0.7c0.5,0.1,0.8,0.4,1.1,0.7s0.4,0.7,0.4,1.2c0,0.4-0.1,0.7-0.2,1c-0.2,0.3-0.3,0.5-0.6,0.7
		s-0.5,0.3-0.8,0.4c-0.3,0.1-0.8,0.1-1.2,0.1H81.1z M82.1,235.2h1.7c0.5,0,0.8,0,1-0.1c0.3-0.1,0.5-0.2,0.6-0.4s0.2-0.4,0.2-0.7
		c0-0.3-0.1-0.5-0.2-0.7s-0.3-0.3-0.5-0.4c-0.2-0.1-0.6-0.1-1.2-0.1h-1.5V235.2z M82.1,238.7h1.9c0.3,0,0.6,0,0.7,0
		c0.2,0,0.4-0.1,0.6-0.2c0.2-0.1,0.3-0.2,0.4-0.4s0.2-0.4,0.2-0.6c0-0.3-0.1-0.5-0.2-0.7s-0.4-0.4-0.6-0.4c-0.3-0.1-0.6-0.1-1.1-0.1
		h-1.8V238.7z"/>
</g>
<g>
	<rect x="254" y="181.8" class="st7" width="106.6" height="104.2"/>
	<g>
		<g>
			<g>
				<rect x="254" y="191.1" class="st10" width="33.4" height="12.2"/>
				<g>
					<path class="st9" d="M266.5,199.1l1,0.1c-0.2,0.6-0.4,1-0.9,1.3s-0.9,0.5-1.6,0.5c-0.8,0-1.5-0.3-1.9-0.8s-0.7-1.2-0.7-2.1
						c0-0.9,0.2-1.7,0.7-2.2s1.1-0.8,1.9-0.8c0.7,0,1.4,0.3,1.8,0.8s0.7,1.2,0.7,2.1c0,0.1,0,0.1,0,0.3h-4.2c0,0.6,0.2,1.1,0.5,1.4
						c0.3,0.3,0.7,0.5,1.2,0.5c0.3,0,0.6-0.1,0.9-0.3C266.2,199.8,266.4,199.5,266.5,199.1z M263.4,197.6h3.1c0-0.5-0.2-0.8-0.4-1.1
						c-0.3-0.4-0.7-0.5-1.2-0.5c-0.4,0-0.8,0.1-1.1,0.4C263.6,196.7,263.5,197.1,263.4,197.6z"/>
					<path class="st9" d="M268.4,197.1c0-0.9,0.1-1.6,0.3-2.2c0.2-0.6,0.5-1,0.8-1.3c0.4-0.3,0.8-0.5,1.4-0.5c0.4,0,0.8,0.1,1.1,0.2
						c0.3,0.2,0.6,0.4,0.8,0.7c0.2,0.3,0.4,0.7,0.5,1.1c0.1,0.5,0.2,1.1,0.2,1.8c0,0.9-0.1,1.6-0.3,2.2c-0.2,0.6-0.5,1-0.8,1.3
						c-0.4,0.3-0.8,0.5-1.4,0.5c-0.7,0-1.3-0.3-1.7-0.8C268.7,199.6,268.4,198.5,268.4,197.1z M269.4,197.1c0,1.3,0.1,2.1,0.4,2.5
						c0.3,0.4,0.7,0.6,1.1,0.6s0.8-0.2,1.1-0.6c0.3-0.4,0.4-1.3,0.4-2.5c0-1.3-0.1-2.1-0.4-2.5s-0.7-0.6-1.1-0.6
						c-0.4,0-0.8,0.2-1,0.6C269.6,195,269.4,195.8,269.4,197.1z"/>
					<path class="st9" d="M278.3,200.2c-0.4,0.3-0.7,0.5-1,0.6c-0.3,0.1-0.7,0.2-1,0.2c-0.6,0-1.1-0.1-1.4-0.4s-0.5-0.7-0.5-1.1
						c0-0.3,0.1-0.5,0.2-0.7c0.1-0.2,0.3-0.4,0.5-0.5c0.2-0.1,0.4-0.2,0.7-0.3c0.2,0,0.5-0.1,0.8-0.1c0.8-0.1,1.3-0.2,1.7-0.3
						c0-0.1,0-0.2,0-0.2c0-0.4-0.1-0.7-0.3-0.8c-0.2-0.2-0.6-0.3-1.1-0.3c-0.4,0-0.8,0.1-1,0.2c-0.2,0.2-0.4,0.4-0.5,0.8l-0.9-0.1
						c0.1-0.4,0.2-0.7,0.4-1c0.2-0.2,0.5-0.4,0.8-0.6c0.4-0.1,0.8-0.2,1.3-0.2c0.5,0,0.9,0.1,1.2,0.2s0.5,0.3,0.7,0.4
						c0.1,0.2,0.2,0.4,0.3,0.6c0,0.2,0,0.5,0,0.9v1.3c0,0.9,0,1.4,0.1,1.7c0,0.2,0.1,0.5,0.2,0.7h-1
						C278.4,200.7,278.4,200.5,278.3,200.2z M278.3,198.1c-0.3,0.1-0.9,0.3-1.5,0.4c-0.4,0.1-0.7,0.1-0.8,0.2s-0.3,0.2-0.4,0.3
						c-0.1,0.1-0.1,0.3-0.1,0.5c0,0.3,0.1,0.5,0.3,0.6c0.2,0.2,0.5,0.3,0.8,0.3c0.4,0,0.7-0.1,1-0.2c0.3-0.2,0.5-0.4,0.6-0.7
						c0.1-0.2,0.2-0.5,0.2-0.9V198.1z"/>
				</g>
			</g>
		</g>
		<g>
			<g>
				<rect x="254" y="213.1" class="st10" width="33.4" height="12.2"/>
				<g>
					<path class="st9" d="M266.5,221.2l1,0.1c-0.2,0.6-0.4,1-0.9,1.3s-0.9,0.5-1.6,0.5c-0.8,0-1.5-0.3-1.9-0.8s-0.7-1.2-0.7-2.1
						c0-0.9,0.2-1.7,0.7-2.2s1.1-0.8,1.9-0.8c0.7,0,1.4,0.3,1.8,0.8s0.7,1.2,0.7,2.1c0,0.1,0,0.1,0,0.3h-4.2c0,0.6,0.2,1.1,0.5,1.4
						c0.3,0.3,0.7,0.5,1.2,0.5c0.3,0,0.6-0.1,0.9-0.3C266.2,221.8,266.4,221.6,266.5,221.2z M263.4,219.6h3.1c0-0.5-0.2-0.8-0.4-1.1
						c-0.3-0.4-0.7-0.5-1.2-0.5c-0.4,0-0.8,0.1-1.1,0.4C263.6,218.8,263.5,219.1,263.4,219.6z"/>
					<path class="st9" d="M268.4,219.2c0-0.9,0.1-1.6,0.3-2.2c0.2-0.6,0.5-1,0.8-1.3c0.4-0.3,0.8-0.5,1.4-0.5c0.4,0,0.8,0.1,1.1,0.2
						c0.3,0.2,0.6,0.4,0.8,0.7c0.2,0.3,0.4,0.7,0.5,1.1c0.1,0.5,0.2,1.1,0.2,1.8c0,0.9-0.1,1.6-0.3,2.2c-0.2,0.6-0.5,1-0.8,1.3
						c-0.4,0.3-0.8,0.5-1.4,0.5c-0.7,0-1.3-0.3-1.7-0.8C268.7,221.6,268.4,220.6,268.4,219.2z M269.4,219.2c0,1.3,0.1,2.1,0.4,2.5
						c0.3,0.4,0.7,0.6,1.1,0.6s0.8-0.2,1.1-0.6c0.3-0.4,0.4-1.3,0.4-2.5c0-1.3-0.1-2.1-0.4-2.5s-0.7-0.6-1.1-0.6
						c-0.4,0-0.8,0.2-1,0.6C269.6,217,269.4,217.9,269.4,219.2z"/>
					<path class="st9" d="M275.6,223h-0.9v-7.7h0.9v2.7c0.4-0.5,0.9-0.8,1.5-0.8c0.3,0,0.7,0.1,1,0.2c0.3,0.1,0.6,0.3,0.8,0.6
						c0.2,0.3,0.4,0.6,0.5,0.9c0.1,0.4,0.2,0.7,0.2,1.1c0,1-0.2,1.7-0.7,2.2c-0.5,0.5-1,0.8-1.7,0.8c-0.7,0-1.2-0.3-1.5-0.8V223z
						 M275.6,220.1c0,0.7,0.1,1.2,0.3,1.5c0.3,0.5,0.7,0.7,1.2,0.7c0.4,0,0.8-0.2,1.1-0.5c0.3-0.4,0.5-0.9,0.5-1.6
						c0-0.7-0.1-1.3-0.4-1.6s-0.6-0.5-1-0.5c-0.4,0-0.8,0.2-1.1,0.5C275.7,218.9,275.6,219.4,275.6,220.1z"/>
				</g>
			</g>
		</g>
		<g>
			<g>
				<rect x="254" y="242.4" class="st10" width="33.4" height="12.2"/>
				<g>
					<path class="st9" d="M266.5,250.4l1,0.1c-0.2,0.6-0.4,1-0.9,1.3s-0.9,0.5-1.6,0.5c-0.8,0-1.5-0.3-1.9-0.8s-0.7-1.2-0.7-2.1
						c0-0.9,0.2-1.7,0.7-2.2s1.1-0.8,1.9-0.8c0.7,0,1.4,0.3,1.8,0.8s0.7,1.2,0.7,2.1c0,0.1,0,0.1,0,0.3h-4.2c0,0.6,0.2,1.1,0.5,1.4
						c0.3,0.3,0.7,0.5,1.2,0.5c0.3,0,0.6-0.1,0.9-0.3C266.2,251.1,266.4,250.8,266.5,250.4z M263.4,248.9h3.1c0-0.5-0.2-0.8-0.4-1.1
						c-0.3-0.4-0.7-0.5-1.2-0.5c-0.4,0-0.8,0.1-1.1,0.4C263.6,248,263.5,248.4,263.4,248.9z"/>
					<path class="st9" d="M268.4,248.4c0-0.9,0.1-1.6,0.3-2.2c0.2-0.6,0.5-1,0.8-1.3c0.4-0.3,0.8-0.5,1.4-0.5c0.4,0,0.8,0.1,1.1,0.2
						c0.3,0.2,0.6,0.4,0.8,0.7c0.2,0.3,0.4,0.7,0.5,1.1c0.1,0.5,0.2,1.1,0.2,1.8c0,0.9-0.1,1.6-0.3,2.2c-0.2,0.6-0.5,1-0.8,1.3
						c-0.4,0.3-0.8,0.5-1.4,0.5c-0.7,0-1.3-0.3-1.7-0.8C268.7,250.9,268.4,249.8,268.4,248.4z M269.4,248.4c0,1.3,0.1,2.1,0.4,2.5
						c0.3,0.4,0.7,0.6,1.1,0.6s0.8-0.2,1.1-0.6c0.3-0.4,0.4-1.3,0.4-2.5c0-1.3-0.1-2.1-0.4-2.5s-0.7-0.6-1.1-0.6
						c-0.4,0-0.8,0.2-1,0.6C269.6,246.3,269.4,247.1,269.4,248.4z"/>
					<path class="st9" d="M278.3,251.5c-0.4,0.3-0.7,0.5-1,0.6c-0.3,0.1-0.7,0.2-1,0.2c-0.6,0-1.1-0.1-1.4-0.4s-0.5-0.7-0.5-1.1
						c0-0.3,0.1-0.5,0.2-0.7c0.1-0.2,0.3-0.4,0.5-0.5c0.2-0.1,0.4-0.2,0.7-0.3c0.2,0,0.5-0.1,0.8-0.1c0.8-0.1,1.3-0.2,1.7-0.3
						c0-0.1,0-0.2,0-0.2c0-0.4-0.1-0.7-0.3-0.8c-0.2-0.2-0.6-0.3-1.1-0.3c-0.4,0-0.8,0.1-1,0.2c-0.2,0.2-0.4,0.4-0.5,0.8l-0.9-0.1
						c0.1-0.4,0.2-0.7,0.4-1c0.2-0.2,0.5-0.4,0.8-0.6c0.4-0.1,0.8-0.2,1.3-0.2c0.5,0,0.9,0.1,1.2,0.2s0.5,0.3,0.7,0.4
						c0.1,0.2,0.2,0.4,0.3,0.6c0,0.2,0,0.5,0,0.9v1.3c0,0.9,0,1.4,0.1,1.7c0,0.2,0.1,0.5,0.2,0.7h-1
						C278.4,252,278.4,251.8,278.3,251.5z M278.3,249.4c-0.3,0.1-0.9,0.3-1.5,0.4c-0.4,0.1-0.7,0.1-0.8,0.2s-0.3,0.2-0.4,0.3
						c-0.1,0.1-0.1,0.3-0.1,0.5c0,0.3,0.1,0.5,0.3,0.6c0.2,0.2,0.5,0.3,0.8,0.3c0.4,0,0.7-0.1,1-0.2c0.3-0.2,0.5-0.4,0.6-0.7
						c0.1-0.2,0.2-0.5,0.2-0.9V249.4z"/>
				</g>
			</g>
		</g>
		<g>
			<g>
				<rect x="254" y="264.4" class="st10" width="33.4" height="12.2"/>
				<g>
					<path class="st9" d="M266.5,272.5l1,0.1c-0.2,0.6-0.4,1-0.9,1.3s-0.9,0.5-1.6,0.5c-0.8,0-1.5-0.3-1.9-0.8s-0.7-1.2-0.7-2.1
						c0-0.9,0.2-1.7,0.7-2.2s1.1-0.8,1.9-0.8c0.7,0,1.4,0.3,1.8,0.8s0.7,1.2,0.7,2.1c0,0.1,0,0.1,0,0.3h-4.2c0,0.6,0.2,1.1,0.5,1.4
						c0.3,0.3,0.7,0.5,1.2,0.5c0.3,0,0.6-0.1,0.9-0.3C266.2,273.2,266.4,272.9,266.5,272.5z M263.4,270.9h3.1c0-0.5-0.2-0.8-0.4-1.1
						c-0.3-0.4-0.7-0.5-1.2-0.5c-0.4,0-0.8,0.1-1.1,0.4C263.6,270.1,263.5,270.4,263.4,270.9z"/>
					<path class="st9" d="M268.4,270.5c0-0.9,0.1-1.6,0.3-2.2c0.2-0.6,0.5-1,0.8-1.3c0.4-0.3,0.8-0.5,1.4-0.5c0.4,0,0.8,0.1,1.1,0.2
						c0.3,0.2,0.6,0.4,0.8,0.7c0.2,0.3,0.4,0.7,0.5,1.1c0.1,0.5,0.2,1.1,0.2,1.8c0,0.9-0.1,1.6-0.3,2.2c-0.2,0.6-0.5,1-0.8,1.3
						c-0.4,0.3-0.8,0.5-1.4,0.5c-0.7,0-1.3-0.3-1.7-0.8C268.7,273,268.4,271.9,268.4,270.5z M269.4,270.5c0,1.3,0.1,2.1,0.4,2.5
						c0.3,0.4,0.7,0.6,1.1,0.6s0.8-0.2,1.1-0.6c0.3-0.4,0.4-1.3,0.4-2.5c0-1.3-0.1-2.1-0.4-2.5s-0.7-0.6-1.1-0.6
						c-0.4,0-0.8,0.2-1,0.6C269.6,268.3,269.4,269.2,269.4,270.5z"/>
					<path class="st9" d="M275.6,274.3h-0.9v-7.7h0.9v2.7c0.4-0.5,0.9-0.8,1.5-0.8c0.3,0,0.7,0.1,1,0.2c0.3,0.1,0.6,0.3,0.8,0.6
						c0.2,0.3,0.4,0.6,0.5,0.9c0.1,0.4,0.2,0.7,0.2,1.1c0,1-0.2,1.7-0.7,2.2c-0.5,0.5-1,0.8-1.7,0.8c-0.7,0-1.2-0.3-1.5-0.8V274.3z
						 M275.6,271.4c0,0.7,0.1,1.2,0.3,1.5c0.3,0.5,0.7,0.7,1.2,0.7c0.4,0,0.8-0.2,1.1-0.5c0.3-0.4,0.5-0.9,0.5-1.6
						c0-0.7-0.1-1.3-0.4-1.6s-0.6-0.5-1-0.5c-0.4,0-0.8,0.2-1.1,0.5C275.7,270.2,275.6,270.7,275.6,271.4z"/>
				</g>
			</g>
		</g>
	</g>
	<line class="st10" x1="254" y1="233.9" x2="360.6" y2="233.9"/>
</g>
<g>
	<path class="st9" d="M291.1,173.1l1-0.1c0,0.4,0.2,0.7,0.3,0.9c0.2,0.2,0.4,0.4,0.8,0.6c0.3,0.2,0.7,0.2,1.2,0.2
		c0.4,0,0.7-0.1,1-0.2c0.3-0.1,0.5-0.3,0.7-0.5s0.2-0.4,0.2-0.7c0-0.2-0.1-0.5-0.2-0.6c-0.1-0.2-0.4-0.3-0.7-0.5
		c-0.2-0.1-0.7-0.2-1.4-0.4c-0.7-0.2-1.2-0.3-1.5-0.5c-0.4-0.2-0.6-0.4-0.8-0.7c-0.2-0.3-0.3-0.6-0.3-1c0-0.4,0.1-0.8,0.3-1.1
		s0.5-0.6,1-0.8c0.4-0.2,0.9-0.3,1.4-0.3c0.6,0,1.1,0.1,1.5,0.3c0.4,0.2,0.8,0.5,1,0.8s0.4,0.8,0.4,1.2l-1,0.1
		c-0.1-0.5-0.2-0.9-0.5-1.1c-0.3-0.2-0.8-0.4-1.3-0.4c-0.6,0-1.1,0.1-1.3,0.3c-0.3,0.2-0.4,0.5-0.4,0.8c0,0.3,0.1,0.5,0.3,0.7
		c0.2,0.2,0.7,0.4,1.5,0.5s1.4,0.4,1.7,0.5c0.4,0.2,0.8,0.5,1,0.8c0.2,0.3,0.3,0.7,0.3,1.1c0,0.4-0.1,0.8-0.4,1.2
		c-0.2,0.4-0.6,0.6-1,0.8s-0.9,0.3-1.5,0.3c-0.7,0-1.3-0.1-1.8-0.3c-0.5-0.2-0.8-0.5-1.1-0.9C291.2,174,291.1,173.6,291.1,173.1z"/>
	<path class="st9" d="M298.5,175.5v-7.7h0.9v2.8c0.4-0.5,1-0.8,1.7-0.8c0.4,0,0.8,0.1,1.1,0.2s0.5,0.4,0.7,0.7
		c0.1,0.3,0.2,0.7,0.2,1.3v3.5h-0.9V172c0-0.5-0.1-0.8-0.3-1c-0.2-0.2-0.5-0.3-0.9-0.3c-0.3,0-0.5,0.1-0.8,0.2s-0.4,0.3-0.5,0.6
		c-0.1,0.2-0.2,0.6-0.2,1v3.1H298.5z"/>
	<path class="st9" d="M308.3,173.8l1,0.1c-0.2,0.6-0.4,1-0.9,1.3s-0.9,0.5-1.6,0.5c-0.8,0-1.5-0.3-1.9-0.8s-0.7-1.2-0.7-2.1
		c0-0.9,0.2-1.7,0.7-2.2s1.1-0.8,1.9-0.8c0.7,0,1.4,0.3,1.8,0.8s0.7,1.2,0.7,2.1c0,0.1,0,0.1,0,0.3h-4.2c0,0.6,0.2,1.1,0.5,1.4
		c0.3,0.3,0.7,0.5,1.2,0.5c0.3,0,0.6-0.1,0.9-0.3C307.9,174.4,308.1,174.1,308.3,173.8z M305.2,172.2h3.1c0-0.5-0.2-0.8-0.4-1.1
		c-0.3-0.4-0.7-0.5-1.2-0.5c-0.4,0-0.8,0.1-1.1,0.4C305.4,171.3,305.2,171.7,305.2,172.2z"/>
	<path class="st9" d="M310.4,175.5v-7.7h0.9v7.7H310.4z"/>
	<path class="st9" d="M313,175.5v-4.8h-0.8V170h0.8v-0.6c0-0.4,0-0.7,0.1-0.8c0.1-0.2,0.3-0.4,0.5-0.6s0.6-0.2,1-0.2
		c0.3,0,0.6,0,0.9,0.1l-0.1,0.8c-0.2,0-0.4-0.1-0.6-0.1c-0.3,0-0.5,0.1-0.6,0.2c-0.1,0.1-0.2,0.4-0.2,0.7v0.5h1.1v0.7H314v4.8H313z"
		/>
	<path class="st9" d="M323.5,174.6v0.9h-5.1c0-0.2,0-0.4,0.1-0.7c0.1-0.3,0.3-0.7,0.6-1c0.3-0.3,0.7-0.7,1.2-1.2
		c0.8-0.7,1.4-1.2,1.7-1.6c0.3-0.4,0.4-0.8,0.4-1.1c0-0.4-0.1-0.7-0.4-0.9c-0.3-0.3-0.6-0.4-1-0.4c-0.5,0-0.8,0.1-1.1,0.4
		s-0.4,0.7-0.4,1.1l-1-0.1c0.1-0.7,0.3-1.3,0.8-1.7c0.4-0.4,1-0.6,1.8-0.6c0.7,0,1.3,0.2,1.8,0.6c0.4,0.4,0.6,0.9,0.6,1.5
		c0,0.3-0.1,0.6-0.2,0.9c-0.1,0.3-0.3,0.6-0.6,0.9c-0.3,0.3-0.8,0.8-1.5,1.4c-0.6,0.5-0.9,0.8-1.1,1s-0.3,0.3-0.4,0.5H323.5z"/>
</g>
<g>
	<path class="st9" d="M307.5,211.1v-7.7h1l4,6v-6h1v7.7h-1l-4-6.1v6.1H307.5z"/>
	<path class="st9" d="M315,208.6l1-0.1c0,0.4,0.2,0.7,0.3,0.9c0.2,0.2,0.4,0.4,0.8,0.6c0.3,0.2,0.7,0.2,1.2,0.2c0.4,0,0.7-0.1,1-0.2
		c0.3-0.1,0.5-0.3,0.7-0.5s0.2-0.4,0.2-0.7c0-0.2-0.1-0.5-0.2-0.6c-0.1-0.2-0.4-0.3-0.7-0.5c-0.2-0.1-0.7-0.2-1.4-0.4
		c-0.7-0.2-1.2-0.3-1.5-0.5c-0.4-0.2-0.6-0.4-0.8-0.7c-0.2-0.3-0.3-0.6-0.3-1c0-0.4,0.1-0.8,0.3-1.1s0.5-0.6,1-0.8
		c0.4-0.2,0.9-0.3,1.4-0.3c0.6,0,1.1,0.1,1.5,0.3c0.4,0.2,0.8,0.5,1,0.8s0.4,0.8,0.4,1.2l-1,0.1c-0.1-0.5-0.2-0.9-0.5-1.1
		c-0.3-0.2-0.8-0.4-1.3-0.4c-0.6,0-1.1,0.1-1.3,0.3c-0.3,0.2-0.4,0.5-0.4,0.8c0,0.3,0.1,0.5,0.3,0.7c0.2,0.2,0.7,0.4,1.5,0.5
		s1.4,0.4,1.7,0.5c0.4,0.2,0.8,0.5,1,0.8c0.2,0.3,0.3,0.7,0.3,1.1c0,0.4-0.1,0.8-0.4,1.2c-0.2,0.4-0.6,0.6-1,0.8s-0.9,0.3-1.5,0.3
		c-0.7,0-1.3-0.1-1.8-0.3c-0.5-0.2-0.8-0.5-1.1-0.9C315.1,209.6,315,209.1,315,208.6z"/>
	<path class="st9" d="M322.5,211.1v-7.7h1.5l1.8,5.5c0.2,0.5,0.3,0.9,0.4,1.1c0.1-0.3,0.2-0.7,0.4-1.2l1.8-5.4h1.4v7.7h-1v-6.4
		l-2.2,6.4h-0.9l-2.2-6.6v6.6H322.5z"/>
	<path class="st9" d="M333,211.1l3-7.7h1.1l3.2,7.7h-1.2l-0.9-2.3H335l-0.8,2.3H333z M335.2,207.9h2.6l-0.8-2.1
		c-0.2-0.6-0.4-1.2-0.5-1.6c-0.1,0.5-0.2,1-0.4,1.5L335.2,207.9z"/>
</g>
<g>
	<path class="st9" d="M307,263.3v-7.7h1l4,6v-6h1v7.7h-1l-4-6.1v6.1H307z"/>
	<path class="st9" d="M314.4,260.8l1-0.1c0,0.4,0.2,0.7,0.3,0.9c0.2,0.2,0.4,0.4,0.8,0.6c0.3,0.2,0.7,0.2,1.2,0.2
		c0.4,0,0.7-0.1,1-0.2c0.3-0.1,0.5-0.3,0.7-0.5s0.2-0.4,0.2-0.7c0-0.2-0.1-0.5-0.2-0.6c-0.1-0.2-0.4-0.3-0.7-0.5
		c-0.2-0.1-0.7-0.2-1.4-0.4c-0.7-0.2-1.2-0.3-1.5-0.5c-0.4-0.2-0.6-0.4-0.8-0.7c-0.2-0.3-0.3-0.6-0.3-1c0-0.4,0.1-0.8,0.3-1.1
		s0.5-0.6,1-0.8c0.4-0.2,0.9-0.3,1.4-0.3c0.6,0,1.1,0.1,1.5,0.3c0.4,0.2,0.8,0.5,1,0.8s0.4,0.8,0.4,1.2l-1,0.1
		c-0.1-0.5-0.2-0.9-0.5-1.1c-0.3-0.2-0.8-0.4-1.3-0.4c-0.6,0-1.1,0.1-1.3,0.3c-0.3,0.2-0.4,0.5-0.4,0.8c0,0.3,0.1,0.5,0.3,0.7
		c0.2,0.2,0.7,0.4,1.5,0.5s1.4,0.4,1.7,0.5c0.4,0.2,0.8,0.5,1,0.8c0.2,0.3,0.3,0.7,0.3,1.1c0,0.4-0.1,0.8-0.4,1.2
		c-0.2,0.4-0.6,0.6-1,0.8s-0.9,0.3-1.5,0.3c-0.7,0-1.3-0.1-1.8-0.3c-0.5-0.2-0.8-0.5-1.1-0.9C314.5,261.8,314.4,261.4,314.4,260.8z"
		/>
	<path class="st9" d="M321.9,263.3v-7.7h1.5l1.8,5.5c0.2,0.5,0.3,0.9,0.4,1.1c0.1-0.3,0.2-0.7,0.4-1.2l1.8-5.4h1.4v7.7h-1v-6.4
		l-2.2,6.4h-0.9l-2.2-6.6v6.6H321.9z"/>
	<path class="st9" d="M333.8,263.3v-7.7h2.9c0.6,0,1.1,0.1,1.4,0.2c0.4,0.2,0.6,0.4,0.8,0.7c0.2,0.3,0.3,0.7,0.3,1
		c0,0.3-0.1,0.6-0.3,0.9s-0.4,0.5-0.8,0.7c0.5,0.1,0.8,0.4,1.1,0.7c0.2,0.3,0.4,0.7,0.4,1.2c0,0.4-0.1,0.7-0.2,1
		c-0.2,0.3-0.3,0.5-0.6,0.7c-0.2,0.2-0.5,0.3-0.8,0.4s-0.8,0.1-1.2,0.1H333.8z M334.8,258.9h1.7c0.5,0,0.8,0,1-0.1
		c0.3-0.1,0.5-0.2,0.6-0.4c0.1-0.2,0.2-0.4,0.2-0.7c0-0.3-0.1-0.5-0.2-0.7c-0.1-0.2-0.3-0.3-0.5-0.4c-0.2-0.1-0.6-0.1-1.2-0.1h-1.5
		V258.9z M334.8,262.4h1.9c0.3,0,0.6,0,0.7,0c0.2,0,0.4-0.1,0.6-0.2c0.2-0.1,0.3-0.2,0.4-0.4s0.2-0.4,0.2-0.6c0-0.3-0.1-0.5-0.2-0.7
		s-0.4-0.4-0.6-0.4s-0.6-0.1-1.1-0.1h-1.8V262.4z"/>
</g>
<g>
	<rect x="254" y="45" class="st7" width="106.6" height="104.2"/>
	<g>
		<g>
			<g>
				<rect x="254" y="54.3" class="st10" width="33.4" height="12.2"/>
				<g>
					<path class="st9" d="M266.5,62.3l1,0.1c-0.2,0.6-0.4,1-0.9,1.3c-0.4,0.3-0.9,0.5-1.6,0.5c-0.8,0-1.5-0.3-1.9-0.8
						c-0.5-0.5-0.7-1.2-0.7-2.1c0-0.9,0.2-1.7,0.7-2.2s1.1-0.8,1.9-0.8c0.7,0,1.4,0.3,1.8,0.8s0.7,1.2,0.7,2.1c0,0.1,0,0.1,0,0.3
						h-4.2c0,0.6,0.2,1.1,0.5,1.4s0.7,0.5,1.2,0.5c0.3,0,0.6-0.1,0.9-0.3S266.4,62.7,266.5,62.3z M263.4,60.7h3.1
						c0-0.5-0.2-0.8-0.4-1.1c-0.3-0.4-0.7-0.5-1.2-0.5c-0.4,0-0.8,0.1-1.1,0.4C263.6,59.9,263.5,60.3,263.4,60.7z"/>
					<path class="st9" d="M268.4,60.3c0-0.9,0.1-1.6,0.3-2.2s0.5-1,0.8-1.3c0.4-0.3,0.8-0.5,1.4-0.5c0.4,0,0.8,0.1,1.1,0.2
						s0.6,0.4,0.8,0.7s0.4,0.7,0.5,1.1c0.1,0.5,0.2,1.1,0.2,1.8c0,0.9-0.1,1.6-0.3,2.2s-0.5,1-0.8,1.3c-0.4,0.3-0.8,0.5-1.4,0.5
						c-0.7,0-1.3-0.3-1.7-0.8C268.7,62.8,268.4,61.7,268.4,60.3z M269.4,60.3c0,1.3,0.1,2.1,0.4,2.5c0.3,0.4,0.7,0.6,1.1,0.6
						s0.8-0.2,1.1-0.6s0.4-1.3,0.4-2.5c0-1.3-0.1-2.1-0.4-2.5c-0.3-0.4-0.7-0.6-1.1-0.6c-0.4,0-0.8,0.2-1,0.6
						C269.6,58.1,269.4,59,269.4,60.3z"/>
					<path class="st9" d="M278.3,63.4c-0.4,0.3-0.7,0.5-1,0.6c-0.3,0.1-0.7,0.2-1,0.2c-0.6,0-1.1-0.1-1.4-0.4
						c-0.3-0.3-0.5-0.7-0.5-1.1c0-0.3,0.1-0.5,0.2-0.7c0.1-0.2,0.3-0.4,0.5-0.5c0.2-0.1,0.4-0.2,0.7-0.3c0.2,0,0.5-0.1,0.8-0.1
						c0.8-0.1,1.3-0.2,1.7-0.3c0-0.1,0-0.2,0-0.2c0-0.4-0.1-0.7-0.3-0.8c-0.2-0.2-0.6-0.3-1.1-0.3c-0.4,0-0.8,0.1-1,0.2
						c-0.2,0.2-0.4,0.4-0.5,0.8l-0.9-0.1c0.1-0.4,0.2-0.7,0.4-1c0.2-0.2,0.5-0.4,0.8-0.6c0.4-0.1,0.8-0.2,1.3-0.2
						c0.5,0,0.9,0.1,1.2,0.2c0.3,0.1,0.5,0.3,0.7,0.4c0.1,0.2,0.2,0.4,0.3,0.6c0,0.2,0,0.5,0,0.9v1.3c0,0.9,0,1.4,0.1,1.7
						c0,0.2,0.1,0.5,0.2,0.7h-1C278.4,63.9,278.4,63.6,278.3,63.4z M278.3,61.3c-0.3,0.1-0.9,0.3-1.5,0.4c-0.4,0.1-0.7,0.1-0.8,0.2
						c-0.2,0.1-0.3,0.2-0.4,0.3c-0.1,0.1-0.1,0.3-0.1,0.4c0,0.3,0.1,0.5,0.3,0.6c0.2,0.2,0.5,0.3,0.8,0.3c0.4,0,0.7-0.1,1-0.2
						c0.3-0.2,0.5-0.4,0.6-0.7c0.1-0.2,0.2-0.5,0.2-0.9V61.3z"/>
				</g>
			</g>
		</g>
		<g>
			<g>
				<rect x="254" y="76.3" class="st10" width="33.4" height="12.2"/>
				<g>
					<path class="st9" d="M266.5,84.3l1,0.1c-0.2,0.6-0.4,1-0.9,1.3c-0.4,0.3-0.9,0.5-1.6,0.5c-0.8,0-1.5-0.3-1.9-0.8
						c-0.5-0.5-0.7-1.2-0.7-2.1c0-0.9,0.2-1.7,0.7-2.2s1.1-0.8,1.9-0.8c0.7,0,1.4,0.3,1.8,0.8s0.7,1.2,0.7,2.1c0,0.1,0,0.1,0,0.3
						h-4.2c0,0.6,0.2,1.1,0.5,1.4s0.7,0.5,1.2,0.5c0.3,0,0.6-0.1,0.9-0.3S266.4,84.7,266.5,84.3z M263.4,82.8h3.1
						c0-0.5-0.2-0.8-0.4-1.1c-0.3-0.4-0.7-0.5-1.2-0.5c-0.4,0-0.8,0.1-1.1,0.4C263.6,81.9,263.5,82.3,263.4,82.8z"/>
					<path class="st9" d="M268.4,82.3c0-0.9,0.1-1.6,0.3-2.2s0.5-1,0.8-1.3c0.4-0.3,0.8-0.5,1.4-0.5c0.4,0,0.8,0.1,1.1,0.2
						s0.6,0.4,0.8,0.7s0.4,0.7,0.5,1.1c0.1,0.5,0.2,1.1,0.2,1.8c0,0.9-0.1,1.6-0.3,2.2s-0.5,1-0.8,1.3c-0.4,0.3-0.8,0.5-1.4,0.5
						c-0.7,0-1.3-0.3-1.7-0.8C268.7,84.8,268.4,83.8,268.4,82.3z M269.4,82.3c0,1.3,0.1,2.1,0.4,2.5c0.3,0.4,0.7,0.6,1.1,0.6
						s0.8-0.2,1.1-0.6s0.4-1.3,0.4-2.5c0-1.3-0.1-2.1-0.4-2.5c-0.3-0.4-0.7-0.6-1.1-0.6c-0.4,0-0.8,0.2-1,0.6
						C269.6,80.2,269.4,81.1,269.4,82.3z"/>
					<path class="st9" d="M275.6,86.1h-0.9v-7.7h0.9v2.7c0.4-0.5,0.9-0.8,1.5-0.8c0.3,0,0.7,0.1,1,0.2c0.3,0.1,0.6,0.3,0.8,0.6
						s0.4,0.6,0.5,0.9c0.1,0.4,0.2,0.7,0.2,1.1c0,1-0.2,1.7-0.7,2.2s-1,0.8-1.7,0.8c-0.7,0-1.2-0.3-1.5-0.8V86.1z M275.6,83.3
						c0,0.7,0.1,1.2,0.3,1.5c0.3,0.5,0.7,0.7,1.2,0.7c0.4,0,0.8-0.2,1.1-0.5c0.3-0.4,0.5-0.9,0.5-1.6c0-0.7-0.1-1.3-0.4-1.6
						c-0.3-0.3-0.6-0.5-1-0.5c-0.4,0-0.8,0.2-1.1,0.5C275.7,82.1,275.6,82.6,275.6,83.3z"/>
				</g>
			</g>
		</g>
		<g>
			<g>
				<rect x="254" y="105.6" class="st10" width="33.4" height="12.2"/>
				<g>
					<path class="st9" d="M266.5,113.6l1,0.1c-0.2,0.6-0.4,1-0.9,1.3c-0.4,0.3-0.9,0.5-1.6,0.5c-0.8,0-1.5-0.3-1.9-0.8
						c-0.5-0.5-0.7-1.2-0.7-2.1c0-0.9,0.2-1.7,0.7-2.2s1.1-0.8,1.9-0.8c0.7,0,1.4,0.3,1.8,0.8s0.7,1.2,0.7,2.1c0,0.1,0,0.1,0,0.3
						h-4.2c0,0.6,0.2,1.1,0.5,1.4s0.7,0.5,1.2,0.5c0.3,0,0.6-0.1,0.9-0.3S266.4,114,266.5,113.6z M263.4,112.1h3.1
						c0-0.5-0.2-0.8-0.4-1.1c-0.3-0.4-0.7-0.5-1.2-0.5c-0.4,0-0.8,0.1-1.1,0.4C263.6,111.2,263.5,111.6,263.4,112.1z"/>
					<path class="st9" d="M268.4,111.6c0-0.9,0.1-1.6,0.3-2.2s0.5-1,0.8-1.3c0.4-0.3,0.8-0.5,1.4-0.5c0.4,0,0.8,0.1,1.1,0.2
						s0.6,0.4,0.8,0.7s0.4,0.7,0.5,1.1c0.1,0.5,0.2,1.1,0.2,1.8c0,0.9-0.1,1.6-0.3,2.2s-0.5,1-0.8,1.3c-0.4,0.3-0.8,0.5-1.4,0.5
						c-0.7,0-1.3-0.3-1.7-0.8C268.7,114.1,268.4,113,268.4,111.6z M269.4,111.6c0,1.3,0.1,2.1,0.4,2.5c0.3,0.4,0.7,0.6,1.1,0.6
						s0.8-0.2,1.1-0.6s0.4-1.3,0.4-2.5c0-1.3-0.1-2.1-0.4-2.5c-0.3-0.4-0.7-0.6-1.1-0.6c-0.4,0-0.8,0.2-1,0.6
						C269.6,109.5,269.4,110.3,269.4,111.6z"/>
					<path class="st9" d="M278.3,114.7c-0.4,0.3-0.7,0.5-1,0.6c-0.3,0.1-0.7,0.2-1,0.2c-0.6,0-1.1-0.1-1.4-0.4
						c-0.3-0.3-0.5-0.7-0.5-1.1c0-0.3,0.1-0.5,0.2-0.7c0.1-0.2,0.3-0.4,0.5-0.5c0.2-0.1,0.4-0.2,0.7-0.3c0.2,0,0.5-0.1,0.8-0.1
						c0.8-0.1,1.3-0.2,1.7-0.3c0-0.1,0-0.2,0-0.2c0-0.4-0.1-0.7-0.3-0.8c-0.2-0.2-0.6-0.3-1.1-0.3c-0.4,0-0.8,0.1-1,0.2
						c-0.2,0.2-0.4,0.4-0.5,0.8l-0.9-0.1c0.1-0.4,0.2-0.7,0.4-1c0.2-0.2,0.5-0.4,0.8-0.6c0.4-0.1,0.8-0.2,1.3-0.2
						c0.5,0,0.9,0.1,1.2,0.2c0.3,0.1,0.5,0.3,0.7,0.4c0.1,0.2,0.2,0.4,0.3,0.6c0,0.2,0,0.5,0,0.9v1.3c0,0.9,0,1.4,0.1,1.7
						c0,0.2,0.1,0.5,0.2,0.7h-1C278.4,115.2,278.4,115,278.3,114.7z M278.3,112.6c-0.3,0.1-0.9,0.3-1.5,0.4
						c-0.4,0.1-0.7,0.1-0.8,0.2c-0.2,0.1-0.3,0.2-0.4,0.3c-0.1,0.1-0.1,0.3-0.1,0.4c0,0.3,0.1,0.5,0.3,0.6c0.2,0.2,0.5,0.3,0.8,0.3
						c0.4,0,0.7-0.1,1-0.2c0.3-0.2,0.5-0.4,0.6-0.7c0.1-0.2,0.2-0.5,0.2-0.9V112.6z"/>
				</g>
			</g>
		</g>
		<g>
			<g>
				<rect x="254" y="127.6" class="st10" width="33.4" height="12.2"/>
				<g>
					<path class="st9" d="M266.5,135.6l1,0.1c-0.2,0.6-0.4,1-0.9,1.3c-0.4,0.3-0.9,0.5-1.6,0.5c-0.8,0-1.5-0.3-1.9-0.8
						c-0.5-0.5-0.7-1.2-0.7-2.1c0-0.9,0.2-1.7,0.7-2.2s1.1-0.8,1.9-0.8c0.7,0,1.4,0.3,1.8,0.8s0.7,1.2,0.7,2.1c0,0.1,0,0.1,0,0.3
						h-4.2c0,0.6,0.2,1.1,0.5,1.4s0.7,0.5,1.2,0.5c0.3,0,0.6-0.1,0.9-0.3S266.4,136,266.5,135.6z M263.4,134.1h3.1
						c0-0.5-0.2-0.8-0.4-1.1c-0.3-0.4-0.7-0.5-1.2-0.5c-0.4,0-0.8,0.1-1.1,0.4C263.6,133.2,263.5,133.6,263.4,134.1z"/>
					<path class="st9" d="M268.4,133.6c0-0.9,0.1-1.6,0.3-2.2s0.5-1,0.8-1.3c0.4-0.3,0.8-0.5,1.4-0.5c0.4,0,0.8,0.1,1.1,0.2
						s0.6,0.4,0.8,0.7s0.4,0.7,0.5,1.1c0.1,0.5,0.2,1.1,0.2,1.8c0,0.9-0.1,1.6-0.3,2.2s-0.5,1-0.8,1.3c-0.4,0.3-0.8,0.5-1.4,0.5
						c-0.7,0-1.3-0.3-1.7-0.8C268.7,136.1,268.4,135.1,268.4,133.6z M269.4,133.6c0,1.3,0.1,2.1,0.4,2.5c0.3,0.4,0.7,0.6,1.1,0.6
						s0.8-0.2,1.1-0.6s0.4-1.3,0.4-2.5c0-1.3-0.1-2.1-0.4-2.5c-0.3-0.4-0.7-0.6-1.1-0.6c-0.4,0-0.8,0.2-1,0.6
						C269.6,131.5,269.4,132.4,269.4,133.6z"/>
					<path class="st9" d="M275.6,137.4h-0.9v-7.7h0.9v2.7c0.4-0.5,0.9-0.8,1.5-0.8c0.3,0,0.7,0.1,1,0.2c0.3,0.1,0.6,0.3,0.8,0.6
						s0.4,0.6,0.5,0.9c0.1,0.4,0.2,0.7,0.2,1.1c0,1-0.2,1.7-0.7,2.2s-1,0.8-1.7,0.8c-0.7,0-1.2-0.3-1.5-0.8V137.4z M275.6,134.6
						c0,0.7,0.1,1.2,0.3,1.5c0.3,0.5,0.7,0.7,1.2,0.7c0.4,0,0.8-0.2,1.1-0.5c0.3-0.4,0.5-0.9,0.5-1.6c0-0.7-0.1-1.3-0.4-1.6
						c-0.3-0.3-0.6-0.5-1-0.5c-0.4,0-0.8,0.2-1.1,0.5C275.7,133.4,275.6,133.9,275.6,134.6z"/>
				</g>
			</g>
		</g>
	</g>
	<line class="st10" x1="254" y1="97.1" x2="360.6" y2="97.1"/>
</g>
<g>
	<path class="st9" d="M291.1,36.3l1-0.1c0,0.4,0.2,0.7,0.3,0.9c0.2,0.2,0.4,0.4,0.8,0.6c0.3,0.2,0.7,0.2,1.2,0.2
		c0.4,0,0.7-0.1,1-0.2c0.3-0.1,0.5-0.3,0.7-0.5c0.1-0.2,0.2-0.4,0.2-0.7c0-0.2-0.1-0.5-0.2-0.6c-0.1-0.2-0.4-0.3-0.7-0.5
		c-0.2-0.1-0.7-0.2-1.4-0.4c-0.7-0.2-1.2-0.3-1.5-0.5c-0.4-0.2-0.6-0.4-0.8-0.7c-0.2-0.3-0.3-0.6-0.3-1c0-0.4,0.1-0.8,0.3-1.1
		c0.2-0.3,0.5-0.6,1-0.8s0.9-0.3,1.4-0.3c0.6,0,1.1,0.1,1.5,0.3c0.4,0.2,0.8,0.5,1,0.8c0.2,0.4,0.4,0.8,0.4,1.2l-1,0.1
		c-0.1-0.5-0.2-0.9-0.5-1.1c-0.3-0.2-0.8-0.4-1.3-0.4c-0.6,0-1.1,0.1-1.3,0.3c-0.3,0.2-0.4,0.5-0.4,0.8c0,0.3,0.1,0.5,0.3,0.7
		c0.2,0.2,0.7,0.4,1.5,0.5s1.4,0.4,1.7,0.5c0.4,0.2,0.8,0.5,1,0.8c0.2,0.3,0.3,0.7,0.3,1.1c0,0.4-0.1,0.8-0.4,1.2
		c-0.2,0.4-0.6,0.6-1,0.8c-0.4,0.2-0.9,0.3-1.5,0.3c-0.7,0-1.3-0.1-1.8-0.3c-0.5-0.2-0.8-0.5-1.1-0.9
		C291.2,37.2,291.1,36.8,291.1,36.3z"/>
	<path class="st9" d="M298.5,38.7V31h0.9v2.8c0.4-0.5,1-0.8,1.7-0.8c0.4,0,0.8,0.1,1.1,0.2c0.3,0.2,0.5,0.4,0.7,0.7
		c0.1,0.3,0.2,0.7,0.2,1.3v3.5h-0.9v-3.5c0-0.5-0.1-0.8-0.3-1s-0.5-0.3-0.9-0.3c-0.3,0-0.5,0.1-0.8,0.2s-0.4,0.3-0.5,0.6
		c-0.1,0.2-0.2,0.6-0.2,1v3.1H298.5z"/>
	<path class="st9" d="M308.3,36.9l1,0.1c-0.2,0.6-0.4,1-0.9,1.3c-0.4,0.3-0.9,0.5-1.6,0.5c-0.8,0-1.5-0.3-1.9-0.8
		c-0.5-0.5-0.7-1.2-0.7-2.1c0-0.9,0.2-1.7,0.7-2.2s1.1-0.8,1.9-0.8c0.7,0,1.4,0.3,1.8,0.8s0.7,1.2,0.7,2.1c0,0.1,0,0.1,0,0.3h-4.2
		c0,0.6,0.2,1.1,0.5,1.4s0.7,0.5,1.2,0.5c0.3,0,0.6-0.1,0.9-0.3S308.1,37.3,308.3,36.9z M305.2,35.4h3.1c0-0.5-0.2-0.8-0.4-1.1
		c-0.3-0.4-0.7-0.5-1.2-0.5c-0.4,0-0.8,0.1-1.1,0.4C305.4,34.5,305.2,34.9,305.2,35.4z"/>
	<path class="st9" d="M310.4,38.7V31h0.9v7.7H310.4z"/>
	<path class="st9" d="M313,38.7v-4.8h-0.8v-0.7h0.8v-0.6c0-0.4,0-0.7,0.1-0.8c0.1-0.2,0.3-0.4,0.5-0.6s0.6-0.2,1-0.2
		c0.3,0,0.6,0,0.9,0.1l-0.1,0.8c-0.2,0-0.4-0.1-0.6-0.1c-0.3,0-0.5,0.1-0.6,0.2c-0.1,0.1-0.2,0.4-0.2,0.7v0.5h1.1v0.7H314v4.8H313z"
		/>
	<path class="st9" d="M322.1,38.7h-0.9v-6c-0.2,0.2-0.5,0.4-0.9,0.7c-0.4,0.2-0.7,0.4-1,0.5v-0.9c0.5-0.2,1-0.6,1.4-0.9
		c0.4-0.4,0.7-0.7,0.8-1h0.6V38.7z"/>
</g>
<g>
	<path class="st9" d="M307.5,74.3v-7.7h1l4,6v-6h1v7.7h-1l-4-6.1v6.1H307.5z"/>
	<path class="st9" d="M315,71.8l1-0.1c0,0.4,0.2,0.7,0.3,0.9c0.2,0.2,0.4,0.4,0.8,0.6c0.3,0.2,0.7,0.2,1.2,0.2c0.4,0,0.7-0.1,1-0.2
		c0.3-0.1,0.5-0.3,0.7-0.5c0.1-0.2,0.2-0.4,0.2-0.7c0-0.2-0.1-0.5-0.2-0.6c-0.1-0.2-0.4-0.3-0.7-0.5c-0.2-0.1-0.7-0.2-1.4-0.4
		c-0.7-0.2-1.2-0.3-1.5-0.5c-0.4-0.2-0.6-0.4-0.8-0.7c-0.2-0.3-0.3-0.6-0.3-1c0-0.4,0.1-0.8,0.3-1.1c0.2-0.3,0.5-0.6,1-0.8
		s0.9-0.3,1.4-0.3c0.6,0,1.1,0.1,1.5,0.3c0.4,0.2,0.8,0.5,1,0.8c0.2,0.4,0.4,0.8,0.4,1.2l-1,0.1c-0.1-0.5-0.2-0.9-0.5-1.1
		c-0.3-0.2-0.8-0.4-1.3-0.4c-0.6,0-1.1,0.1-1.3,0.3c-0.3,0.2-0.4,0.5-0.4,0.8c0,0.3,0.1,0.5,0.3,0.7c0.2,0.2,0.7,0.4,1.5,0.5
		s1.4,0.4,1.7,0.5c0.4,0.2,0.8,0.5,1,0.8c0.2,0.3,0.3,0.7,0.3,1.1c0,0.4-0.1,0.8-0.4,1.2c-0.2,0.4-0.6,0.6-1,0.8
		c-0.4,0.2-0.9,0.3-1.5,0.3c-0.7,0-1.3-0.1-1.8-0.3c-0.5-0.2-0.8-0.5-1.1-0.9C315.1,72.8,315,72.3,315,71.8z"/>
	<path class="st9" d="M322.5,74.3v-7.7h1.5l1.8,5.5c0.2,0.5,0.3,0.9,0.4,1.1c0.1-0.3,0.2-0.7,0.4-1.2l1.8-5.4h1.4v7.7h-1v-6.4
		l-2.2,6.4h-0.9l-2.2-6.6v6.6H322.5z"/>
	<path class="st9" d="M333,74.3l3-7.7h1.1l3.2,7.7h-1.2l-0.9-2.3H335l-0.8,2.3H333z M335.2,71.1h2.6l-0.8-2.1
		c-0.2-0.6-0.4-1.2-0.5-1.6c-0.1,0.5-0.2,1-0.4,1.5L335.2,71.1z"/>
</g>
<g>
	<path class="st9" d="M307,126.5v-7.7h1l4,6v-6h1v7.7h-1l-4-6.1v6.1H307z"/>
	<path class="st9" d="M314.4,124l1-0.1c0,0.4,0.2,0.7,0.3,0.9c0.2,0.2,0.4,0.4,0.8,0.6c0.3,0.2,0.7,0.2,1.2,0.2c0.4,0,0.7-0.1,1-0.2
		c0.3-0.1,0.5-0.3,0.7-0.5c0.1-0.2,0.2-0.4,0.2-0.7c0-0.2-0.1-0.5-0.2-0.6c-0.1-0.2-0.4-0.3-0.7-0.5c-0.2-0.1-0.7-0.2-1.4-0.4
		c-0.7-0.2-1.2-0.3-1.5-0.5c-0.4-0.2-0.6-0.4-0.8-0.7c-0.2-0.3-0.3-0.6-0.3-1c0-0.4,0.1-0.8,0.3-1.1c0.2-0.3,0.5-0.6,1-0.8
		s0.9-0.3,1.4-0.3c0.6,0,1.1,0.1,1.5,0.3c0.4,0.2,0.8,0.5,1,0.8c0.2,0.4,0.4,0.8,0.4,1.2l-1,0.1c-0.1-0.5-0.2-0.9-0.5-1.1
		c-0.3-0.2-0.8-0.4-1.3-0.4c-0.6,0-1.1,0.1-1.3,0.3c-0.3,0.2-0.4,0.5-0.4,0.8c0,0.3,0.1,0.5,0.3,0.7c0.2,0.2,0.7,0.4,1.5,0.5
		s1.4,0.4,1.7,0.5c0.4,0.2,0.8,0.5,1,0.8c0.2,0.3,0.3,0.7,0.3,1.1c0,0.4-0.1,0.8-0.4,1.2c-0.2,0.4-0.6,0.6-1,0.8
		c-0.4,0.2-0.9,0.3-1.5,0.3c-0.7,0-1.3-0.1-1.8-0.3c-0.5-0.2-0.8-0.5-1.1-0.9C314.5,125,314.4,124.5,314.4,124z"/>
	<path class="st9" d="M321.9,126.5v-7.7h1.5l1.8,5.5c0.2,0.5,0.3,0.9,0.4,1.1c0.1-0.3,0.2-0.7,0.4-1.2l1.8-5.4h1.4v7.7h-1v-6.4
		l-2.2,6.4h-0.9l-2.2-6.6v6.6H321.9z"/>
	<path class="st9" d="M333.8,126.5v-7.7h2.9c0.6,0,1.1,0.1,1.4,0.2c0.4,0.2,0.6,0.4,0.8,0.7c0.2,0.3,0.3,0.7,0.3,1
		c0,0.3-0.1,0.6-0.3,0.9c-0.2,0.3-0.4,0.5-0.8,0.7c0.5,0.1,0.8,0.4,1.1,0.7c0.2,0.3,0.4,0.7,0.4,1.2c0,0.4-0.1,0.7-0.2,1
		s-0.3,0.5-0.6,0.7c-0.2,0.2-0.5,0.3-0.8,0.4c-0.3,0.1-0.8,0.1-1.2,0.1H333.8z M334.8,122h1.7c0.5,0,0.8,0,1-0.1
		c0.3-0.1,0.5-0.2,0.6-0.4c0.1-0.2,0.2-0.4,0.2-0.7c0-0.3-0.1-0.5-0.2-0.7c-0.1-0.2-0.3-0.3-0.5-0.4c-0.2-0.1-0.6-0.1-1.2-0.1h-1.5
		V122z M334.8,125.6h1.9c0.3,0,0.6,0,0.7,0c0.2,0,0.4-0.1,0.6-0.2c0.2-0.1,0.3-0.2,0.4-0.4c0.1-0.2,0.2-0.4,0.2-0.6
		c0-0.3-0.1-0.5-0.2-0.7s-0.4-0.4-0.6-0.4c-0.3-0.1-0.6-0.1-1.1-0.1h-1.8V125.6z"/>
</g>
<g>
	<path class="st9" d="M70.6,17.9l3.2-8.3h1.2l3.4,8.3h-1.2l-1-2.5h-3.5l-0.9,2.5H70.6z M73,14.5h2.8l-0.9-2.3
		c-0.3-0.7-0.5-1.3-0.6-1.7c-0.1,0.5-0.3,1.1-0.4,1.6L73,14.5z"/>
	<path class="st9" d="M79.3,17.9V9.6h5.6v1h-4.5v2.6h3.9v1h-3.9v3.8H79.3z"/>
	<path class="st9" d="M86.3,17.9V9.6h5.6v1h-4.5v2.6h3.9v1h-3.9v3.8H86.3z"/>
	<path class="st9" d="M102.5,15l1.1,0.3c-0.2,0.9-0.6,1.6-1.2,2.1c-0.6,0.5-1.3,0.7-2.2,0.7c-0.9,0-1.6-0.2-2.2-0.5
		c-0.6-0.4-1-0.9-1.3-1.6c-0.3-0.7-0.4-1.4-0.4-2.2c0-0.9,0.2-1.6,0.5-2.3c0.3-0.6,0.8-1.1,1.4-1.5c0.6-0.3,1.3-0.5,2-0.5
		c0.8,0,1.5,0.2,2.1,0.6c0.6,0.4,1,1,1.2,1.8l-1.1,0.3c-0.2-0.6-0.5-1-0.8-1.3c-0.4-0.3-0.8-0.4-1.4-0.4c-0.6,0-1.2,0.2-1.6,0.5
		s-0.7,0.7-0.9,1.2c-0.2,0.5-0.3,1-0.3,1.6c0,0.7,0.1,1.3,0.3,1.8c0.2,0.5,0.5,0.9,1,1.2c0.4,0.3,0.9,0.4,1.4,0.4
		c0.6,0,1.1-0.2,1.6-0.5C102.1,16.2,102.3,15.7,102.5,15z"/>
	<path class="st9" d="M107.8,17.9v-2h-3.6V15l3.8-5.4h0.8V15h1.1v0.9h-1.1v2H107.8z M107.8,15v-3.7l-2.6,3.7H107.8z"/>
	<path class="st9" d="M111,13.8c0-1,0.1-1.8,0.3-2.4c0.2-0.6,0.5-1.1,0.9-1.4c0.4-0.3,0.9-0.5,1.5-0.5c0.4,0,0.8,0.1,1.2,0.3
		s0.6,0.4,0.8,0.8c0.2,0.3,0.4,0.7,0.5,1.2c0.1,0.5,0.2,1.1,0.2,2c0,1-0.1,1.8-0.3,2.4c-0.2,0.6-0.5,1.1-0.9,1.4
		c-0.4,0.3-0.9,0.5-1.5,0.5c-0.8,0-1.4-0.3-1.9-0.9C111.2,16.5,111,15.4,111,13.8z M112,13.8c0,1.4,0.2,2.3,0.5,2.7
		c0.3,0.5,0.7,0.7,1.2,0.7s0.9-0.2,1.2-0.7c0.3-0.5,0.5-1.4,0.5-2.7c0-1.4-0.2-2.3-0.5-2.7s-0.7-0.7-1.2-0.7c-0.5,0-0.8,0.2-1.1,0.6
		C112.2,11.5,112,12.5,112,13.8z"/>
	<path class="st9" d="M117.4,13.8c0-1,0.1-1.8,0.3-2.4c0.2-0.6,0.5-1.1,0.9-1.4c0.4-0.3,0.9-0.5,1.5-0.5c0.4,0,0.8,0.1,1.2,0.3
		s0.6,0.4,0.8,0.8c0.2,0.3,0.4,0.7,0.5,1.2c0.1,0.5,0.2,1.1,0.2,2c0,1-0.1,1.8-0.3,2.4c-0.2,0.6-0.5,1.1-0.9,1.4
		c-0.4,0.3-0.9,0.5-1.5,0.5c-0.8,0-1.4-0.3-1.9-0.9C117.7,16.5,117.4,15.4,117.4,13.8z M118.5,13.8c0,1.4,0.2,2.3,0.5,2.7
		c0.3,0.5,0.7,0.7,1.2,0.7s0.9-0.2,1.2-0.7c0.3-0.5,0.5-1.4,0.5-2.7c0-1.4-0.2-2.3-0.5-2.7s-0.7-0.7-1.2-0.7c-0.5,0-0.8,0.2-1.1,0.6
		C118.6,11.5,118.5,12.5,118.5,13.8z"/>
	<path class="st9" d="M127.5,17.9V9.6h1.1V13h4.3V9.6h1.1v8.3h-1.1V14h-4.3v3.9H127.5z"/>
	<path class="st9" d="M134.9,17.9l3.2-8.3h1.2l3.4,8.3h-1.2l-1-2.5H137l-0.9,2.5H134.9z M137.3,14.5h2.8l-0.9-2.3
		c-0.3-0.7-0.5-1.3-0.6-1.7c-0.1,0.5-0.3,1.1-0.4,1.6L137.3,14.5z"/>
	<path class="st9" d="M146,20.2v-8.3h0.9v0.8c0.2-0.3,0.5-0.5,0.7-0.7c0.3-0.2,0.6-0.2,1-0.2c0.5,0,1,0.1,1.4,0.4s0.7,0.6,0.9,1.1
		c0.2,0.5,0.3,1,0.3,1.6c0,0.6-0.1,1.2-0.3,1.7c-0.2,0.5-0.5,0.9-1,1.1c-0.4,0.3-0.9,0.4-1.3,0.4c-0.3,0-0.6-0.1-0.9-0.2
		s-0.5-0.3-0.7-0.5v2.9H146z M146.9,15c0,0.8,0.2,1.3,0.5,1.7c0.3,0.4,0.7,0.6,1.1,0.6c0.5,0,0.8-0.2,1.2-0.6c0.3-0.4,0.5-1,0.5-1.8
		c0-0.8-0.2-1.3-0.5-1.7c-0.3-0.4-0.7-0.6-1.1-0.6c-0.4,0-0.8,0.2-1.2,0.6S146.9,14.2,146.9,15z"/>
	<path class="st9" d="M156.4,17.2c-0.4,0.3-0.7,0.5-1.1,0.7s-0.7,0.2-1.1,0.2c-0.7,0-1.2-0.2-1.5-0.5c-0.4-0.3-0.5-0.7-0.5-1.2
		c0-0.3,0.1-0.6,0.2-0.8s0.3-0.4,0.5-0.6c0.2-0.1,0.5-0.3,0.7-0.3c0.2-0.1,0.5-0.1,0.9-0.2c0.8-0.1,1.4-0.2,1.8-0.4
		c0-0.1,0-0.2,0-0.3c0-0.4-0.1-0.7-0.3-0.9c-0.3-0.2-0.6-0.3-1.2-0.3c-0.5,0-0.8,0.1-1.1,0.3c-0.2,0.2-0.4,0.5-0.5,0.9l-1-0.1
		c0.1-0.4,0.2-0.8,0.4-1c0.2-0.3,0.5-0.5,0.9-0.6c0.4-0.1,0.8-0.2,1.4-0.2c0.5,0,0.9,0.1,1.2,0.2s0.6,0.3,0.7,0.5
		c0.2,0.2,0.3,0.4,0.3,0.7c0,0.2,0.1,0.5,0.1,0.9v1.4c0,0.9,0,1.5,0.1,1.8c0,0.3,0.1,0.5,0.3,0.7h-1.1
		C156.5,17.7,156.4,17.5,156.4,17.2z M156.3,14.9c-0.4,0.2-0.9,0.3-1.7,0.4c-0.4,0.1-0.7,0.1-0.9,0.2c-0.2,0.1-0.3,0.2-0.4,0.3
		s-0.1,0.3-0.1,0.5c0,0.3,0.1,0.5,0.3,0.7c0.2,0.2,0.5,0.3,0.9,0.3c0.4,0,0.7-0.1,1-0.3c0.3-0.2,0.5-0.4,0.7-0.7
		c0.1-0.2,0.2-0.6,0.2-1V14.9z"/>
	<path class="st9" d="M158.9,10.8V9.6h1v1.2H158.9z M158.9,17.9v-6h1v6H158.9z"/>
	<path class="st9" d="M161.4,17.9v-6h0.9v0.9c0.2-0.4,0.4-0.7,0.6-0.8c0.2-0.1,0.4-0.2,0.7-0.2c0.3,0,0.7,0.1,1,0.3l-0.4,0.9
		c-0.2-0.1-0.5-0.2-0.7-0.2c-0.2,0-0.4,0.1-0.6,0.2s-0.3,0.3-0.4,0.6c-0.1,0.4-0.2,0.8-0.2,1.2v3.1H161.4z"/>
	<path class="st9" d="M169.6,17.9l-1.8-6h1.1l1,3.5l0.4,1.3c0-0.1,0.1-0.5,0.3-1.2l1-3.5h1l0.9,3.5l0.3,1.1l0.3-1.2l1-3.5h1l-1.9,6
		h-1.1l-1-3.6l-0.2-1l-1.2,4.6H169.6z"/>
	<path class="st9" d="M176.9,10.8V9.6h1v1.2H176.9z M176.9,17.9v-6h1v6H176.9z"/>
	<path class="st9" d="M181.7,17l0.1,0.9c-0.3,0.1-0.5,0.1-0.8,0.1c-0.4,0-0.7-0.1-0.9-0.2s-0.3-0.3-0.4-0.5
		c-0.1-0.2-0.1-0.6-0.1-1.2v-3.5h-0.7v-0.8h0.7v-1.5l1-0.6v2.1h1v0.8h-1v3.5c0,0.3,0,0.5,0.1,0.6s0.1,0.1,0.2,0.2
		c0.1,0,0.2,0.1,0.3,0.1C181.4,17.1,181.5,17,181.7,17z"/>
	<path class="st9" d="M182.7,17.9V9.6h1v3c0.5-0.6,1.1-0.8,1.8-0.8c0.4,0,0.8,0.1,1.2,0.3c0.3,0.2,0.6,0.4,0.7,0.7
		c0.1,0.3,0.2,0.8,0.2,1.3v3.8h-1v-3.8c0-0.5-0.1-0.9-0.3-1.1c-0.2-0.2-0.5-0.3-0.9-0.3c-0.3,0-0.6,0.1-0.9,0.2
		c-0.3,0.2-0.5,0.4-0.6,0.6c-0.1,0.3-0.2,0.6-0.2,1.1v3.3H182.7z"/>
	<path class="st9" d="M194.6,17l0.1,0.9c-0.3,0.1-0.5,0.1-0.8,0.1c-0.4,0-0.7-0.1-0.9-0.2s-0.3-0.3-0.4-0.5
		c-0.1-0.2-0.1-0.6-0.1-1.2v-3.5h-0.7v-0.8h0.7v-1.5l1-0.6v2.1h1v0.8h-1v3.5c0,0.3,0,0.5,0.1,0.6s0.1,0.1,0.2,0.2
		c0.1,0,0.2,0.1,0.3,0.1C194.2,17.1,194.4,17,194.6,17z"/>
	<path class="st9" d="M196.7,17.9l-1.8-6h1.1l1,3.5l0.4,1.3c0-0.1,0.1-0.5,0.3-1.2l1-3.5h1l0.9,3.5l0.3,1.1l0.3-1.2l1-3.5h1l-1.9,6
		h-1.1l-1-3.6l-0.2-1l-1.2,4.6H196.7z"/>
	<path class="st9" d="M203.5,14.9c0-1.1,0.3-1.9,0.9-2.5c0.5-0.4,1.1-0.7,1.9-0.7c0.8,0,1.5,0.3,2,0.8c0.5,0.5,0.8,1.3,0.8,2.2
		c0,0.8-0.1,1.4-0.3,1.8c-0.2,0.4-0.6,0.8-1,1c-0.4,0.2-0.9,0.4-1.5,0.4c-0.8,0-1.5-0.3-2-0.8C203.8,16.7,203.5,15.9,203.5,14.9z
		 M204.6,14.9c0,0.8,0.2,1.3,0.5,1.7c0.3,0.4,0.8,0.6,1.3,0.6c0.5,0,0.9-0.2,1.3-0.6c0.3-0.4,0.5-1,0.5-1.8c0-0.7-0.2-1.3-0.5-1.7
		c-0.3-0.4-0.8-0.6-1.3-0.6c-0.5,0-0.9,0.2-1.3,0.6C204.8,13.6,204.6,14.2,204.6,14.9z"/>
	<path class="st9" d="M213.7,17.9V9.6h1.1l4.4,6.5V9.6h1.1v8.3h-1.1l-4.4-6.5v6.5H213.7z"/>
	<path class="st9" d="M221.7,15.3l1-0.1c0,0.4,0.2,0.8,0.3,1c0.2,0.3,0.5,0.5,0.8,0.6s0.8,0.2,1.3,0.2c0.4,0,0.8-0.1,1.1-0.2
		c0.3-0.1,0.6-0.3,0.7-0.5s0.2-0.5,0.2-0.7c0-0.3-0.1-0.5-0.2-0.7c-0.2-0.2-0.4-0.4-0.7-0.5c-0.2-0.1-0.7-0.2-1.5-0.4
		c-0.8-0.2-1.3-0.4-1.6-0.5c-0.4-0.2-0.7-0.5-0.9-0.8s-0.3-0.7-0.3-1c0-0.4,0.1-0.8,0.4-1.2c0.2-0.4,0.6-0.6,1-0.8s1-0.3,1.5-0.3
		c0.6,0,1.2,0.1,1.6,0.3c0.5,0.2,0.8,0.5,1.1,0.9c0.3,0.4,0.4,0.8,0.4,1.3l-1.1,0.1c-0.1-0.5-0.2-0.9-0.6-1.2s-0.8-0.4-1.4-0.4
		c-0.7,0-1.1,0.1-1.5,0.4c-0.3,0.2-0.5,0.5-0.5,0.9c0,0.3,0.1,0.5,0.3,0.7c0.2,0.2,0.8,0.4,1.7,0.6c0.9,0.2,1.5,0.4,1.8,0.5
		c0.5,0.2,0.8,0.5,1.1,0.8c0.2,0.3,0.3,0.7,0.3,1.2c0,0.4-0.1,0.9-0.4,1.2c-0.3,0.4-0.6,0.7-1.1,0.9c-0.5,0.2-1,0.3-1.6,0.3
		c-0.8,0-1.4-0.1-1.9-0.3c-0.5-0.2-0.9-0.5-1.2-1C221.9,16.3,221.7,15.8,221.7,15.3z"/>
	<path class="st9" d="M234.7,17v1h-5.5c0-0.2,0-0.5,0.1-0.7c0.1-0.4,0.4-0.7,0.7-1.1c0.3-0.4,0.8-0.8,1.3-1.3
		c0.9-0.7,1.5-1.3,1.8-1.8s0.5-0.8,0.5-1.2c0-0.4-0.1-0.7-0.4-1c-0.3-0.3-0.7-0.4-1.1-0.4c-0.5,0-0.9,0.1-1.2,0.4s-0.4,0.7-0.4,1.2
		l-1-0.1c0.1-0.8,0.3-1.4,0.8-1.8c0.5-0.4,1.1-0.6,1.9-0.6c0.8,0,1.4,0.2,1.9,0.7c0.5,0.4,0.7,1,0.7,1.6c0,0.3-0.1,0.7-0.2,1
		s-0.4,0.7-0.7,1c-0.3,0.4-0.8,0.8-1.6,1.5c-0.6,0.5-1,0.9-1.2,1c-0.2,0.2-0.3,0.4-0.4,0.6H234.7z"/>
	<path class="st9" d="M241.2,17v1h-5.5c0-0.2,0-0.5,0.1-0.7c0.1-0.4,0.4-0.7,0.7-1.1c0.3-0.4,0.8-0.8,1.3-1.3
		c0.9-0.7,1.5-1.3,1.8-1.8s0.5-0.8,0.5-1.2c0-0.4-0.1-0.7-0.4-1c-0.3-0.3-0.7-0.4-1.1-0.4c-0.5,0-0.9,0.1-1.2,0.4s-0.4,0.7-0.4,1.2
		l-1-0.1c0.1-0.8,0.3-1.4,0.8-1.8c0.5-0.4,1.1-0.6,1.9-0.6c0.8,0,1.4,0.2,1.9,0.7c0.5,0.4,0.7,1,0.7,1.6c0,0.3-0.1,0.7-0.2,1
		s-0.4,0.7-0.7,1c-0.3,0.4-0.8,0.8-1.6,1.5c-0.6,0.5-1,0.9-1.2,1c-0.2,0.2-0.3,0.4-0.4,0.6H241.2z"/>
	<path class="st9" d="M245.5,17.9v-2h-3.6V15l3.8-5.4h0.8V15h1.1v0.9h-1.1v2H245.5z M245.5,15v-3.7l-2.6,3.7H245.5z"/>
	<path class="st9" d="M251.8,16.1l1-0.2c0.1,0.4,0.2,0.7,0.5,0.9c0.3,0.2,0.6,0.3,1.1,0.3c0.5,0,0.8-0.1,1-0.3
		c0.2-0.2,0.3-0.4,0.3-0.7c0-0.2-0.1-0.4-0.3-0.5c-0.1-0.1-0.5-0.2-1-0.3c-0.7-0.2-1.3-0.4-1.6-0.5c-0.3-0.1-0.5-0.3-0.7-0.6
		c-0.1-0.2-0.2-0.5-0.2-0.8c0-0.3,0.1-0.5,0.2-0.7c0.1-0.2,0.3-0.4,0.5-0.6c0.2-0.1,0.4-0.2,0.6-0.3s0.6-0.1,0.9-0.1
		c0.5,0,0.9,0.1,1.2,0.2s0.6,0.3,0.8,0.6c0.2,0.2,0.3,0.5,0.3,0.9l-1,0.1c0-0.3-0.2-0.6-0.4-0.7s-0.5-0.3-0.9-0.3
		c-0.5,0-0.8,0.1-1,0.2c-0.2,0.2-0.3,0.3-0.3,0.5c0,0.1,0,0.3,0.1,0.4c0.1,0.1,0.2,0.2,0.4,0.3c0.1,0,0.4,0.1,0.9,0.3
		c0.7,0.2,1.2,0.3,1.5,0.5s0.5,0.3,0.7,0.5c0.2,0.2,0.2,0.5,0.2,0.9c0,0.3-0.1,0.7-0.3,1s-0.5,0.5-0.9,0.7s-0.8,0.2-1.3,0.2
		c-0.8,0-1.4-0.2-1.8-0.5C252.2,17.3,251.9,16.8,251.8,16.1z"/>
	<path class="st9" d="M258,17.9V9.6h1v3c0.5-0.6,1.1-0.8,1.8-0.8c0.4,0,0.8,0.1,1.2,0.3c0.3,0.2,0.6,0.4,0.7,0.7
		c0.1,0.3,0.2,0.8,0.2,1.3v3.8h-1v-3.8c0-0.5-0.1-0.9-0.3-1.1c-0.2-0.2-0.5-0.3-0.9-0.3c-0.3,0-0.6,0.1-0.9,0.2
		c-0.3,0.2-0.5,0.4-0.6,0.6c-0.1,0.3-0.2,0.6-0.2,1.1v3.3H258z"/>
	<path class="st9" d="M268.5,16l1.1,0.1c-0.2,0.6-0.5,1.1-0.9,1.4c-0.4,0.3-1,0.5-1.7,0.5c-0.9,0-1.6-0.3-2.1-0.8
		c-0.5-0.5-0.8-1.3-0.8-2.3c0-1,0.3-1.8,0.8-2.4c0.5-0.6,1.2-0.8,2-0.8c0.8,0,1.5,0.3,2,0.8c0.5,0.5,0.8,1.3,0.8,2.3
		c0,0.1,0,0.2,0,0.3h-4.5c0,0.7,0.2,1.2,0.6,1.5c0.3,0.4,0.8,0.5,1.3,0.5c0.4,0,0.7-0.1,1-0.3C268.2,16.7,268.4,16.4,268.5,16z
		 M265.2,14.4h3.4c0-0.5-0.2-0.9-0.4-1.1c-0.3-0.4-0.7-0.6-1.3-0.6c-0.5,0-0.9,0.2-1.2,0.5S265.2,13.8,265.2,14.4z"/>
	<path class="st9" d="M270.8,17.9V9.6h1v8.3H270.8z"/>
	<path class="st9" d="M275.1,17.9l-2.3-6h1.1l1.3,3.6c0.1,0.4,0.3,0.8,0.4,1.2c0.1-0.3,0.2-0.7,0.4-1.1l1.3-3.7h1l-2.3,6H275.1z"/>
	<path class="st9" d="M283.3,16l1.1,0.1c-0.2,0.6-0.5,1.1-0.9,1.4c-0.4,0.3-1,0.5-1.7,0.5c-0.9,0-1.6-0.3-2.1-0.8
		c-0.5-0.5-0.8-1.3-0.8-2.3c0-1,0.3-1.8,0.8-2.4c0.5-0.6,1.2-0.8,2-0.8c0.8,0,1.5,0.3,2,0.8c0.5,0.5,0.8,1.3,0.8,2.3
		c0,0.1,0,0.2,0,0.3h-4.5c0,0.7,0.2,1.2,0.6,1.5c0.3,0.4,0.8,0.5,1.3,0.5c0.4,0,0.7-0.1,1-0.3C283,16.7,283.2,16.4,283.3,16z
		 M280,14.4h3.4c0-0.5-0.2-0.9-0.4-1.1c-0.3-0.4-0.7-0.6-1.3-0.6c-0.5,0-0.9,0.2-1.2,0.5S280,13.8,280,14.4z"/>
	<path class="st9" d="M285.3,16.1l1-0.2c0.1,0.4,0.2,0.7,0.5,0.9c0.3,0.2,0.6,0.3,1.1,0.3c0.5,0,0.8-0.1,1-0.3
		c0.2-0.2,0.3-0.4,0.3-0.7c0-0.2-0.1-0.4-0.3-0.5c-0.1-0.1-0.5-0.2-1-0.3c-0.7-0.2-1.3-0.4-1.6-0.5c-0.3-0.1-0.5-0.3-0.7-0.6
		c-0.1-0.2-0.2-0.5-0.2-0.8c0-0.3,0.1-0.5,0.2-0.7c0.1-0.2,0.3-0.4,0.5-0.6c0.2-0.1,0.4-0.2,0.6-0.3s0.6-0.1,0.9-0.1
		c0.5,0,0.9,0.1,1.2,0.2s0.6,0.3,0.8,0.6c0.2,0.2,0.3,0.5,0.3,0.9l-1,0.1c0-0.3-0.2-0.6-0.4-0.7s-0.5-0.3-0.9-0.3
		c-0.5,0-0.8,0.1-1,0.2c-0.2,0.2-0.3,0.3-0.3,0.5c0,0.1,0,0.3,0.1,0.4c0.1,0.1,0.2,0.2,0.4,0.3c0.1,0,0.4,0.1,0.9,0.3
		c0.7,0.2,1.2,0.3,1.5,0.5s0.5,0.3,0.7,0.5c0.2,0.2,0.2,0.5,0.2,0.9c0,0.3-0.1,0.7-0.3,1s-0.5,0.5-0.9,0.7s-0.8,0.2-1.3,0.2
		c-0.8,0-1.4-0.2-1.8-0.5C285.6,17.3,285.4,16.8,285.3,16.1z"/>
</g>
<g>
	<g>
		<path class="st9" d="M105.7,134.1l-0.1-0.6c0.3,0,0.5-0.1,0.7-0.2s0.3-0.3,0.4-0.5s0.2-0.5,0.2-0.8c0-0.3,0-0.5-0.1-0.7
			s-0.2-0.3-0.4-0.4c-0.1-0.1-0.3-0.1-0.5-0.1c-0.2,0-0.3,0-0.5,0.1s-0.2,0.2-0.3,0.5c-0.1,0.1-0.2,0.4-0.3,0.9
			c-0.1,0.5-0.2,0.8-0.4,1c-0.1,0.2-0.3,0.4-0.5,0.6c-0.2,0.1-0.5,0.2-0.7,0.2c-0.3,0-0.6-0.1-0.8-0.2c-0.3-0.1-0.4-0.4-0.6-0.6
			s-0.2-0.6-0.2-0.9c0-0.4,0.1-0.7,0.2-1c0.1-0.3,0.3-0.5,0.6-0.7c0.3-0.2,0.6-0.2,0.9-0.3l0.1,0.7c-0.4,0-0.6,0.2-0.8,0.4
			s-0.3,0.5-0.3,0.9c0,0.4,0.1,0.7,0.3,0.9c0.2,0.2,0.4,0.3,0.6,0.3c0.2,0,0.4-0.1,0.5-0.2c0.1-0.1,0.3-0.5,0.4-1
			c0.1-0.6,0.3-0.9,0.4-1.1c0.2-0.3,0.3-0.5,0.6-0.7c0.2-0.1,0.5-0.2,0.8-0.2c0.3,0,0.6,0.1,0.9,0.2c0.3,0.2,0.5,0.4,0.6,0.7
			c0.1,0.3,0.2,0.6,0.2,1c0,0.5-0.1,0.9-0.2,1.2c-0.2,0.3-0.4,0.6-0.7,0.7S106.1,134.1,105.7,134.1z"/>
		<path class="st9" d="M107.6,129.1h-5.7v-0.6h5.7V129.1z"/>
		<path class="st9" d="M105.5,127.8c-0.8,0-1.3-0.2-1.7-0.6c-0.3-0.3-0.5-0.7-0.5-1.2c0-0.5,0.2-0.9,0.6-1.3s0.9-0.5,1.5-0.5
			c0.5,0,1,0.1,1.3,0.2s0.5,0.4,0.7,0.6s0.3,0.6,0.3,0.9c0,0.5-0.2,0.9-0.6,1.3S106.2,127.8,105.5,127.8z M105.5,127.1
			c0.5,0,0.9-0.1,1.2-0.3c0.3-0.2,0.4-0.5,0.4-0.8c0-0.3-0.1-0.6-0.4-0.8s-0.7-0.3-1.2-0.3c-0.5,0-0.9,0.1-1.2,0.3
			c-0.3,0.2-0.4,0.5-0.4,0.8c0,0.3,0.1,0.6,0.4,0.8C104.6,127,105,127.1,105.5,127.1z"/>
		<path class="st9" d="M107,122.1l0.6-0.1c0,0.2,0.1,0.3,0.1,0.5c0,0.2,0,0.4-0.1,0.5s-0.2,0.2-0.3,0.3s-0.4,0.1-0.8,0.1H104v0.5
			h-0.5v-0.5h-1l-0.4-0.6h1.4v-0.6h0.5v0.6h2.4c0.2,0,0.3,0,0.4,0c0.1,0,0.1-0.1,0.1-0.1s0.1-0.1,0.1-0.2
			C107,122.3,107,122.3,107,122.1z"/>
		<path class="st9" d="M106.1,119.7L106,119c0.4,0,0.6-0.2,0.8-0.3s0.3-0.4,0.3-0.6c0-0.3-0.1-0.6-0.4-0.8s-0.6-0.3-1-0.3
			c-0.4,0-0.7,0.1-0.9,0.3c-0.2,0.2-0.3,0.5-0.3,0.8c0,0.2,0.1,0.4,0.2,0.6s0.2,0.3,0.4,0.4l-0.1,0.6l-2.9-0.5v-2.6h0.7v2.1l1.5,0.3
			c-0.2-0.3-0.4-0.6-0.4-1c0-0.5,0.2-0.8,0.5-1.1s0.8-0.5,1.3-0.5c0.5,0,1,0.1,1.3,0.4c0.5,0.3,0.7,0.8,0.7,1.4
			c0,0.5-0.1,0.9-0.4,1.1C107,119.5,106.6,119.7,106.1,119.7z"/>
	</g>
</g>
<g>
	<rect x="111.4" y="189.4" class="st8" width="33.4" height="15.8"/>
	<g>
		<path class="st9" d="M129,200.2c-0.4,0.3-0.7,0.5-1,0.6c-0.3,0.1-0.7,0.2-1,0.2c-0.6,0-1.1-0.1-1.4-0.4c-0.3-0.3-0.5-0.7-0.5-1.1
			c0-0.3,0.1-0.5,0.2-0.7c0.1-0.2,0.3-0.4,0.5-0.5c0.2-0.1,0.4-0.2,0.7-0.3c0.2,0,0.5-0.1,0.8-0.1c0.8-0.1,1.3-0.2,1.7-0.3
			c0-0.1,0-0.2,0-0.2c0-0.4-0.1-0.7-0.3-0.8c-0.2-0.2-0.6-0.3-1.1-0.3c-0.4,0-0.8,0.1-1,0.2c-0.2,0.2-0.4,0.4-0.5,0.8l-0.9-0.1
			c0.1-0.4,0.2-0.7,0.4-1c0.2-0.2,0.5-0.4,0.8-0.6c0.4-0.1,0.8-0.2,1.3-0.2c0.5,0,0.9,0.1,1.2,0.2c0.3,0.1,0.5,0.3,0.7,0.4
			s0.2,0.4,0.3,0.6c0,0.2,0,0.5,0,0.9v1.3c0,0.9,0,1.4,0.1,1.7c0,0.2,0.1,0.5,0.2,0.7h-1C129.1,200.7,129,200.5,129,200.2z
			 M128.9,198.1c-0.3,0.1-0.9,0.3-1.5,0.4c-0.4,0.1-0.7,0.1-0.8,0.2c-0.2,0.1-0.3,0.2-0.4,0.3c-0.1,0.1-0.1,0.3-0.1,0.4
			c0,0.3,0.1,0.5,0.3,0.6c0.2,0.2,0.5,0.3,0.8,0.3c0.4,0,0.7-0.1,1-0.2s0.5-0.4,0.6-0.7c0.1-0.2,0.2-0.5,0.2-0.9V198.1z"/>
	</g>
	<rect x="97.4" y="189.4" class="st8" width="14.5" height="31.5"/>
</g>
<g>
	<rect x="112.1" y="205.3" class="st8" width="32.7" height="15.8"/>
	<rect x="111.4" y="246.6" class="st8" width="33.4" height="15.8"/>
	<rect x="97.4" y="246.6" class="st8" width="14.5" height="31.5"/>
	<rect x="112.1" y="262.4" class="st8" width="32.7" height="15.8"/>
	<g>
		<path class="st9" d="M126.2,216.8h-0.9v-7.7h0.9v2.7c0.4-0.5,0.9-0.8,1.5-0.8c0.3,0,0.7,0.1,1,0.2c0.3,0.1,0.6,0.3,0.8,0.6
			c0.2,0.3,0.4,0.6,0.5,0.9c0.1,0.4,0.2,0.7,0.2,1.1c0,1-0.2,1.7-0.7,2.2c-0.5,0.5-1,0.8-1.7,0.8c-0.7,0-1.2-0.3-1.6-0.8V216.8z
			 M126.2,214c0,0.7,0.1,1.2,0.3,1.5c0.3,0.5,0.7,0.7,1.2,0.7c0.4,0,0.8-0.2,1.1-0.5c0.3-0.4,0.5-0.9,0.5-1.6c0-0.7-0.1-1.3-0.4-1.6
			c-0.3-0.3-0.6-0.5-1-0.5c-0.4,0-0.8,0.2-1.1,0.5C126.4,212.8,126.2,213.3,126.2,214z"/>
	</g>
</g>
<g>
	<g>
		<path class="st9" d="M129,257.9c-0.4,0.3-0.7,0.5-1,0.6c-0.3,0.1-0.7,0.2-1,0.2c-0.6,0-1.1-0.1-1.4-0.4c-0.3-0.3-0.5-0.7-0.5-1.1
			c0-0.3,0.1-0.5,0.2-0.7c0.1-0.2,0.3-0.4,0.5-0.5c0.2-0.1,0.4-0.2,0.7-0.3c0.2,0,0.5-0.1,0.8-0.1c0.8-0.1,1.3-0.2,1.7-0.3
			c0-0.1,0-0.2,0-0.2c0-0.4-0.1-0.7-0.3-0.8c-0.2-0.2-0.6-0.3-1.1-0.3c-0.4,0-0.8,0.1-1,0.2c-0.2,0.2-0.4,0.4-0.5,0.8l-0.9-0.1
			c0.1-0.4,0.2-0.7,0.4-1c0.2-0.2,0.5-0.4,0.8-0.6c0.4-0.1,0.8-0.2,1.3-0.2c0.5,0,0.9,0.1,1.2,0.2c0.3,0.1,0.5,0.3,0.7,0.4
			s0.2,0.4,0.3,0.6c0,0.2,0,0.5,0,0.9v1.3c0,0.9,0,1.4,0.1,1.7c0,0.2,0.1,0.5,0.2,0.7h-1C129.1,258.4,129,258.2,129,257.9z
			 M128.9,255.8c-0.3,0.1-0.9,0.3-1.5,0.4c-0.4,0.1-0.7,0.1-0.8,0.2c-0.2,0.1-0.3,0.2-0.4,0.3c-0.1,0.1-0.1,0.3-0.1,0.4
			c0,0.3,0.1,0.5,0.3,0.6c0.2,0.2,0.5,0.3,0.8,0.3c0.4,0,0.7-0.1,1-0.2s0.5-0.4,0.6-0.7c0.1-0.2,0.2-0.5,0.2-0.9V255.8z"/>
	</g>
</g>
<g>
	<g>
		<path class="st9" d="M126.2,273.9h-0.9v-7.7h0.9v2.7c0.4-0.5,0.9-0.8,1.5-0.8c0.3,0,0.7,0.1,1,0.2c0.3,0.1,0.6,0.3,0.8,0.6
			c0.2,0.2,0.4,0.6,0.5,0.9c0.1,0.4,0.2,0.7,0.2,1.1c0,1-0.2,1.7-0.7,2.2c-0.5,0.5-1,0.8-1.7,0.8c-0.7,0-1.2-0.3-1.6-0.8V273.9z
			 M126.2,271.1c0,0.7,0.1,1.2,0.3,1.5c0.3,0.5,0.7,0.7,1.2,0.7c0.4,0,0.8-0.2,1.1-0.5c0.3-0.4,0.5-0.9,0.5-1.6
			c0-0.7-0.1-1.3-0.4-1.6s-0.6-0.5-1-0.5c-0.4,0-0.8,0.2-1.1,0.5C126.4,269.9,126.2,270.4,126.2,271.1z"/>
	</g>
</g>
<g>
	<g>
		<g>
			<path class="st9" d="M105.7,214.3l-0.1-0.6c0.3,0,0.5-0.1,0.7-0.2s0.3-0.3,0.4-0.5s0.2-0.5,0.2-0.8c0-0.3,0-0.5-0.1-0.7
				s-0.2-0.3-0.4-0.4c-0.1-0.1-0.3-0.1-0.5-0.1c-0.2,0-0.3,0-0.5,0.1s-0.2,0.2-0.3,0.5c-0.1,0.1-0.2,0.4-0.3,0.9
				c-0.1,0.5-0.2,0.8-0.4,1c-0.1,0.2-0.3,0.4-0.5,0.5s-0.5,0.2-0.7,0.2c-0.3,0-0.6-0.1-0.8-0.2s-0.4-0.4-0.6-0.6
				c-0.1-0.3-0.2-0.6-0.2-0.9c0-0.4,0.1-0.7,0.2-1s0.3-0.5,0.6-0.7c0.3-0.2,0.6-0.2,0.9-0.3l0.1,0.7c-0.4,0-0.6,0.2-0.8,0.4
				c-0.2,0.2-0.3,0.5-0.3,0.9c0,0.4,0.1,0.7,0.3,0.9c0.2,0.2,0.4,0.3,0.6,0.3c0.2,0,0.4-0.1,0.5-0.2c0.1-0.1,0.3-0.5,0.4-1
				s0.3-0.9,0.4-1.1c0.2-0.3,0.3-0.5,0.6-0.7s0.5-0.2,0.8-0.2c0.3,0,0.6,0.1,0.9,0.2c0.3,0.2,0.5,0.4,0.6,0.7c0.1,0.3,0.2,0.6,0.2,1
				c0,0.5-0.1,0.9-0.2,1.2c-0.2,0.3-0.4,0.6-0.7,0.7C106.4,214.2,106.1,214.3,105.7,214.3z"/>
			<path class="st9" d="M107.5,209.4h-5.7v-0.6h5.7V209.4z"/>
			<path class="st9" d="M105.5,208c-0.8,0-1.3-0.2-1.7-0.6c-0.3-0.3-0.5-0.7-0.5-1.2c0-0.5,0.2-0.9,0.6-1.3c0.4-0.3,0.9-0.5,1.5-0.5
				c0.5,0,1,0.1,1.3,0.2c0.3,0.1,0.5,0.4,0.7,0.6s0.3,0.6,0.3,0.9c0,0.5-0.2,0.9-0.6,1.3S106.2,208,105.5,208z M105.5,207.4
				c0.5,0,0.9-0.1,1.2-0.3s0.4-0.5,0.4-0.8c0-0.3-0.1-0.6-0.4-0.8c-0.3-0.2-0.7-0.3-1.2-0.3c-0.5,0-0.9,0.1-1.2,0.3
				c-0.3,0.2-0.4,0.5-0.4,0.8c0,0.3,0.1,0.6,0.4,0.8S104.9,207.4,105.5,207.4z"/>
			<path class="st9" d="M106.9,202.4l0.6-0.1c0,0.2,0.1,0.3,0.1,0.5c0,0.2,0,0.4-0.1,0.5s-0.2,0.2-0.3,0.3c-0.1,0.1-0.4,0.1-0.8,0.1
				h-2.4v0.5h-0.5v-0.5h-1l-0.4-0.6h1.4v-0.6h0.5v0.6h2.4c0.2,0,0.3,0,0.4,0s0.1-0.1,0.1-0.1c0-0.1,0.1-0.1,0.1-0.2
				C106.9,202.6,106.9,202.5,106.9,202.4z"/>
			<path class="st9" d="M107.5,197.9h-1.4v2.2h-0.6l-3.7-2.4v-0.5h3.7v-0.7h0.6v0.7h1.4V197.9z M105.5,197.9h-2.6l2.6,1.6V197.9z"/>
		</g>
	</g>
</g>
<g>
	<g>
		<path class="st9" d="M105.7,270.9l-0.1-0.6c0.3,0,0.5-0.1,0.7-0.2s0.3-0.3,0.4-0.5s0.2-0.5,0.2-0.8c0-0.3,0-0.5-0.1-0.7
			s-0.2-0.3-0.4-0.4c-0.1-0.1-0.3-0.1-0.5-0.1c-0.2,0-0.3,0-0.5,0.1s-0.2,0.2-0.3,0.5c-0.1,0.1-0.2,0.4-0.3,0.9
			c-0.1,0.5-0.2,0.8-0.4,1c-0.1,0.2-0.3,0.4-0.5,0.5s-0.5,0.2-0.7,0.2c-0.3,0-0.6-0.1-0.8-0.2s-0.4-0.4-0.6-0.6
			c-0.1-0.3-0.2-0.6-0.2-0.9c0-0.4,0.1-0.7,0.2-1s0.3-0.5,0.6-0.7c0.3-0.2,0.6-0.2,0.9-0.3l0.1,0.7c-0.4,0-0.6,0.2-0.8,0.4
			c-0.2,0.2-0.3,0.5-0.3,0.9c0,0.4,0.1,0.7,0.3,0.9c0.2,0.2,0.4,0.3,0.6,0.3c0.2,0,0.4-0.1,0.5-0.2c0.1-0.1,0.3-0.5,0.4-1
			s0.3-0.9,0.4-1.1c0.2-0.3,0.3-0.5,0.6-0.7s0.5-0.2,0.8-0.2c0.3,0,0.6,0.1,0.9,0.2c0.3,0.2,0.5,0.4,0.6,0.7c0.1,0.3,0.2,0.6,0.2,1
			c0,0.5-0.1,0.9-0.2,1.2c-0.2,0.3-0.4,0.6-0.7,0.7C106.5,270.8,106.1,270.9,105.7,270.9z"/>
		<path class="st9" d="M107.6,266h-5.7v-0.6h5.7V266z"/>
		<path class="st9" d="M105.5,264.6c-0.8,0-1.3-0.2-1.7-0.6c-0.3-0.3-0.5-0.7-0.5-1.2c0-0.5,0.2-0.9,0.6-1.3
			c0.4-0.3,0.9-0.5,1.5-0.5c0.5,0,1,0.1,1.3,0.2c0.3,0.1,0.5,0.4,0.7,0.6s0.3,0.6,0.3,0.9c0,0.5-0.2,0.9-0.6,1.3
			S106.2,264.6,105.5,264.6z M105.5,263.9c0.5,0,0.9-0.1,1.2-0.3s0.4-0.5,0.4-0.8c0-0.3-0.1-0.6-0.4-0.8c-0.3-0.2-0.7-0.3-1.2-0.3
			c-0.5,0-0.9,0.1-1.2,0.3c-0.3,0.2-0.4,0.5-0.4,0.8c0,0.3,0.1,0.6,0.4,0.8S105,263.9,105.5,263.9z"/>
		<path class="st9" d="M107,259l0.6-0.1c0,0.2,0.1,0.3,0.1,0.5c0,0.2,0,0.4-0.1,0.5s-0.2,0.2-0.3,0.3c-0.1,0.1-0.4,0.1-0.8,0.1H104
			v0.5h-0.5v-0.5h-1l-0.4-0.6h1.4V259h0.5v0.6h2.4c0.2,0,0.3,0,0.4,0s0.1-0.1,0.1-0.1c0-0.1,0.1-0.1,0.1-0.2
			C107,259.2,107,259.1,107,259z"/>
		<path class="st9" d="M106.1,256.5l-0.1-0.7c0.4,0,0.6-0.2,0.8-0.3c0.2-0.2,0.3-0.4,0.3-0.6c0-0.3-0.1-0.6-0.4-0.8s-0.6-0.3-1-0.3
			c-0.4,0-0.7,0.1-0.9,0.3s-0.3,0.5-0.3,0.8c0,0.2,0.1,0.4,0.2,0.6s0.2,0.3,0.4,0.4l-0.1,0.6l-2.9-0.5v-2.6h0.7v2.1l1.5,0.3
			c-0.2-0.3-0.4-0.6-0.4-1c0-0.4,0.2-0.8,0.5-1.1s0.8-0.5,1.3-0.5c0.5,0,1,0.1,1.3,0.4c0.5,0.3,0.7,0.8,0.7,1.4
			c0,0.5-0.1,0.9-0.4,1.1S106.6,256.5,106.1,256.5z"/>
	</g>
</g>
</svg>
