<?xml version="1.0" encoding="utf-8"?>
<!-- Generator: Adobe Illustrator 26.0.3, SVG Export Plug-In . SVG Version: 6.00 Build 0)  -->
<svg version="1.1" id="Layer_2" xmlns="http://www.w3.org/2000/svg" xmlns:xlink="http://www.w3.org/1999/xlink" x="0px" y="0px"
	 viewBox="0 0 468 247.232" style="enable-background:new 0 0 468 247.232;" xml:space="preserve">
<style type="text/css">
	.st0{fill:#D2D3D4;}
	.st1{fill:none;stroke:#231F20;stroke-width:0.5;stroke-linecap:round;stroke-linejoin:round;stroke-miterlimit:10;}
	.st2{fill:#FFFFFF;stroke:#231F20;stroke-width:0.5;stroke-linecap:round;stroke-linejoin:round;stroke-miterlimit:10;}
	.st3{fill:none;stroke:#231F20;stroke-width:0.5;stroke-miterlimit:10;}
	.st4{fill:#2D2A26;stroke:#FFFFFF;stroke-width:0.75;stroke-miterlimit:10;}
	.st5{fill:#2D2A26;stroke:#FFFFFF;stroke-width:0.5;stroke-miterlimit:10;}
	.st6{fill:none;stroke:#FFFFFF;stroke-width:3;stroke-linecap:round;stroke-linejoin:round;stroke-miterlimit:10;}
	
		.st7{fill:none;stroke:#231F20;stroke-width:0.6164;stroke-linecap:round;stroke-linejoin:round;stroke-miterlimit:10;stroke-dasharray:2.0546;}
	
		.st8{fill:none;stroke:#FFFFFF;stroke-width:2;stroke-linecap:round;stroke-linejoin:round;stroke-miterlimit:10;stroke-dasharray:2.0546;}
	.st9{fill:#231F20;stroke:#FFFFFF;stroke-width:1.5;stroke-miterlimit:10;}
	.st10{fill:#FFFFFF;}
	.st11{fill:#231F20;}
	.st12{fill:none;stroke:#FFFFFF;stroke-width:2;stroke-linecap:round;stroke-linejoin:round;stroke-miterlimit:10;}
</style>
<g>
	<path class="st0" d="M140.671,195.601l-21.653-4.537c0,0-1.832-1.089-2.476,0.842l-1.882,5.15c0,0-0.495,0.99-1.387,0.792
		c0,0-1.684-0.743-2.03,0.297l-4.903,13.519c0,0,0.099,0.693,0.743,0.743c0,0,0.198,0.198,0,0.941
		c-0.198,0.743-1.337,4.407-1.337,4.407l25.156,5.299l0.05-0.792L140.671,195.601z"/>
	<path class="st0" d="M104.67,220.485l-0.621,1.967l0.052,0.673l2.536,0.569l-0.414,1.035l18.943,4.192c0,0,1.087-0.673,1.501-0.414
		l-0.052-3.468L104.67,220.485z"/>
	<g>
		<ellipse class="st0" cx="281.269" cy="150.887" rx="3.08" ry="2.299"/>
		<path class="st0" d="M278.061,150.752v3.693c0,1.27,1.379,2.299,3.08,2.299c1.701,0,3.08-1.029,3.08-2.299v-3.77"/>
	</g>
	<g>
		<ellipse class="st0" cx="290.33" cy="98.154" rx="11.833" ry="8.654"/>
		<path class="st0" d="M278.648,97.643v13.901c0,4.78,5.298,8.654,11.833,8.654c6.535,0,11.833-3.875,11.833-8.654V97.356"/>
	</g>
	<g>
		<ellipse class="st0" cx="277.524" cy="199.195" rx="3.08" ry="2.299"/>
		<path class="st0" d="M274.316,199.059v3.693c0,1.27,1.379,2.299,3.08,2.299c1.701,0,3.08-1.029,3.08-2.299v-3.77"/>
	</g>
	<g>
		<ellipse class="st0" cx="228.678" cy="200.723" rx="3.08" ry="2.299"/>
		<path class="st0" d="M225.47,200.587v3.693c0,1.27,1.379,2.299,3.08,2.299s3.08-1.029,3.08-2.299v-3.77"/>
	</g>
	<line class="st0" x1="284.424" y1="154.416" x2="284.424" y2="150.599"/>
	<g>
		<polyline class="st1" points="72.802,87.448 59.565,84.746 58.759,86.047 56.443,85.593 55.67,85.82 		"/>
		<line class="st1" x1="97.21" y1="92.431" x2="78.35" y2="88.581"/>
		<line class="st1" x1="103.298" y1="93.674" x2="100.15" y2="93.032"/>
		<line class="st1" x1="129.248" y1="98.972" x2="104.586" y2="93.937"/>
		<line class="st1" x1="155.758" y1="104.384" x2="131.207" y2="99.372"/>
		<line class="st1" x1="164.423" y1="106.153" x2="157.157" y2="104.67"/>
		<polyline class="st1" points="167.641,116.061 168.574,108.482 169.46,107.182 167.198,106.72 		"/>
		<polyline class="st1" points="53.532,89.699 52.893,90.658 40.129,125.164 40.147,127.536 40.18,129.514 40.038,130.102 
			36.852,138.893 36.658,133.902 		"/>
		<polyline class="st1" points="40.162,123.879 40.519,120.753 53.563,86.893 		"/>
		<path class="st1" d="M53.532,89.699"/>
		<path class="st1" d="M37.213,139.062"/>
		<line class="st1" x1="34.747" y1="140.647" x2="36.449" y2="140.939"/>
		<polyline class="st1" points="39.187,160.106 38.896,157.968 43.7,145.554 150.915,167.474 131.034,222.348 131.034,224.778 		"/>
		<path class="st1" d="M175.682,117.93l0.069-3.071c0,0-0.365-0.706-1.037-0.537l-0.227-9.387l-2.22,5.63l-0.051,1.108
			l-12.112,32.779c0,0-1.06,2.952-0.984,5.602c0.076,2.65,0.64,3.201,0.111,4.337c-0.53,1.136-3.448,8.337-3.448,8.337l-0.228-3.795
			c0,0-0.116-0.218-0.303-0.327c-0.264-0.155-0.668-0.092-1.08,1.115l-3.112,7.929"/>
		<polyline class="st1" points="175.544,115.114 173.401,120.659 173.349,118.73 174.056,116.852 174.073,116.111 174.796,114.285 
					"/>
		<polyline class="st1" points="172.29,109.919 171.467,109.764 170.398,112.279 170.109,114.086 		"/>
		<line class="st1" x1="171.094" y1="114.415" x2="170.073" y2="114.159"/>
		<line class="st1" x1="132.959" y1="233.771" x2="175.623" y2="117.689"/>
		<polygon class="st1" points="131.804,228.517 132.473,226.136 132.473,225.091 129.59,224.465 125.455,232.945 125.079,239.921 
			128.546,240.715 129.716,238.501 129.883,233.906 131.22,230.438 		"/>
		<line class="st1" x1="126.119" y1="234.643" x2="128.315" y2="235.079"/>
		<line class="st1" x1="126.088" y1="235.407" x2="128.284" y2="235.843"/>
		<line class="st1" x1="126.057" y1="236.17" x2="128.253" y2="236.606"/>
		<line class="st1" x1="126.025" y1="236.933" x2="128.222" y2="237.369"/>
		<line class="st1" x1="125.994" y1="237.696" x2="128.191" y2="238.133"/>
		<line class="st1" x1="125.963" y1="238.46" x2="128.159" y2="238.896"/>
		<line class="st1" x1="125.932" y1="239.223" x2="128.128" y2="239.659"/>
		<path class="st1" d="M131.804,228.517c0,0,0.796-0.051,0.884,1.379c0.088,1.43,0.286,6.382,0.286,6.382l-2.223,5.854l-1.959-0.418
			l-0.022-1.276"/>
		<g>
			<g id="SPLINE_18_">
				<path class="st1" d="M77.351,172.841c-0.232,0.062-0.473,0.097-0.714,0.104c-0.241,0.007-0.484-0.013-0.719-0.061
					c-0.294-0.06-0.582-0.165-0.841-0.318c-0.121-0.072-0.236-0.154-0.342-0.247c-0.1-0.088-0.192-0.186-0.271-0.293
					c-0.076-0.102-0.14-0.212-0.19-0.329c-0.048-0.112-0.083-0.231-0.102-0.351c-0.019-0.119-0.022-0.241-0.009-0.361
					c0.013-0.122,0.041-0.241,0.083-0.356c0.044-0.119,0.103-0.232,0.173-0.338c0.074-0.111,0.16-0.213,0.256-0.306
					c0.101-0.098,0.211-0.186,0.329-0.263c0.123-0.081,0.254-0.151,0.389-0.21c0.284-0.124,0.588-0.2,0.898-0.231
					c0.314-0.031,0.633-0.016,0.941,0.047c0.208,0.043,0.413,0.107,0.607,0.196c0.183,0.083,0.356,0.188,0.512,0.315
					c0.145,0.118,0.275,0.255,0.379,0.41c0.098,0.145,0.173,0.305,0.217,0.474c0.043,0.163,0.056,0.335,0.039,0.503
					c-0.018,0.171-0.067,0.339-0.142,0.494c-0.079,0.165-0.187,0.315-0.312,0.448c-0.135,0.143-0.292,0.266-0.459,0.368
					c-0.044,0.027-0.088,0.052-0.134,0.076c-0.041,0.022-0.083,0.043-0.126,0.062c-0.13,0.06-0.265,0.11-0.403,0.15
					C77.391,172.83,77.371,172.836,77.351,172.841z"/>
			</g>
			<g id="SPLINE_17_">
				<path class="st1" d="M72.125,174.548c0.325-0.271,0.717-0.448,0.818-0.499c0.1-0.05,0.204-0.093,0.311-0.128
					c0.372-0.115,0.761-0.182,1.152-0.201c0.392-0.019,0.787,0.01,1.171,0.089c0.37,0.076,0.731,0.197,1.068,0.369
					c0.313,0.16,0.605,0.364,0.853,0.611c0.068,0.071,0.131,0.148,0.188,0.229c0.059,0.085,0.111,0.175,0.156,0.268
					c0.018,0.038,0.031,0.079,0.036,0.121c0.006,0.043,0.005,0.088,0.001,0.131v2.112"/>
			</g>
			<path class="st1" d="M77.303,167.651c0.025-0.059,0.047-0.119,0.067-0.18c0.024-0.072,0.045-0.145,0.064-0.219
				c0.041-0.158,0.06-0.228,0.099-0.391c0,0,0.2,0.043,0.237,0.051l3.178,0.65c0.089,0.018,0.176,0.045,0.26,0.081
				c0.079,0.034,0.156,0.076,0.225,0.127c0.066,0.047,0.126,0.102,0.177,0.165c0.048,0.059,0.127,0.189,0.127,0.189l-3.35,9.075
				c-0.039,0.106-0.108,0.201-0.19,0.28c-0.048,0.046-0.1,0.086-0.155,0.122c-0.06,0.039-0.123,0.072-0.188,0.1
				c-0.14,0.06-0.291,0.097-0.444,0.112c-0.156,0.015-0.315,0.007-0.467-0.024l-0.296-0.075l-4.666-1.143l0.001,0l-0.025-0.009
				l-0.038-0.035l-0.024-0.053l-0.015-0.077l-0.006-0.069v0l0.045-1.812"/>
			<g id="LINE_4_">
				<path class="st1" d="M80.824,170.446l-0.063-1.184l-0.045-0.304l0,0.001l-0.008-0.037l-0.056-0.117l-0.098-0.097l-0.131-0.068
					l-0.084-0.024l-5.726-1.171c-0.028-0.006-0.056,0.01-0.065,0.036l0,0l-2.59,6.981"/>
			</g>
		</g>
		<g>
			<g id="SPLINE_16_">
				<path class="st1" d="M41.055,165.447c-0.232,0.062-0.473,0.097-0.714,0.104c-0.241,0.007-0.484-0.013-0.719-0.061
					c-0.294-0.06-0.582-0.165-0.841-0.318c-0.121-0.072-0.236-0.154-0.342-0.247c-0.1-0.088-0.192-0.186-0.271-0.293
					c-0.076-0.102-0.14-0.212-0.19-0.329c-0.048-0.112-0.083-0.231-0.102-0.351c-0.019-0.119-0.022-0.241-0.009-0.361
					c0.013-0.122,0.041-0.241,0.083-0.356c0.044-0.119,0.103-0.232,0.173-0.338c0.074-0.111,0.16-0.213,0.256-0.306
					c0.101-0.098,0.211-0.186,0.329-0.263c0.123-0.081,0.254-0.151,0.389-0.21c0.284-0.124,0.588-0.2,0.898-0.231
					c0.314-0.031,0.633-0.016,0.941,0.047c0.208,0.043,0.413,0.107,0.607,0.196c0.183,0.083,0.356,0.188,0.512,0.315
					c0.145,0.118,0.275,0.255,0.379,0.41c0.098,0.145,0.173,0.305,0.217,0.474c0.043,0.163,0.056,0.335,0.039,0.503
					c-0.018,0.171-0.067,0.339-0.142,0.494c-0.079,0.165-0.187,0.315-0.312,0.448c-0.135,0.143-0.292,0.266-0.459,0.368
					c-0.044,0.027-0.088,0.052-0.134,0.076c-0.041,0.022-0.083,0.043-0.126,0.062c-0.13,0.06-0.265,0.11-0.403,0.15
					C41.095,165.436,41.075,165.442,41.055,165.447z"/>
			</g>
			<g id="SPLINE_15_">
				<path class="st1" d="M35.829,167.154c0.325-0.271,0.717-0.448,0.818-0.499c0.1-0.05,0.204-0.093,0.311-0.128
					c0.372-0.115,0.761-0.182,1.152-0.201c0.392-0.019,0.787,0.01,1.171,0.089c0.37,0.076,0.731,0.197,1.068,0.369
					c0.313,0.16,0.605,0.364,0.853,0.611c0.068,0.071,0.131,0.148,0.188,0.229c0.059,0.085,0.111,0.175,0.156,0.268
					c0.018,0.038,0.031,0.079,0.036,0.121c0.006,0.043,0.005,0.088,0.001,0.131v2.112"/>
			</g>
			<path class="st1" d="M41.007,160.257c0.025-0.059,0.047-0.119,0.067-0.18c0.024-0.072,0.045-0.145,0.064-0.219
				c0.041-0.158,0.06-0.228,0.099-0.391c0,0,0.2,0.043,0.237,0.051l3.178,0.65c0.089,0.018,0.176,0.045,0.26,0.081
				c0.079,0.034,0.156,0.076,0.225,0.127c0.066,0.047,0.126,0.102,0.177,0.165c0.048,0.059,0.127,0.189,0.127,0.189l-3.35,9.075
				c-0.039,0.106-0.108,0.201-0.19,0.28c-0.048,0.046-0.1,0.086-0.155,0.122c-0.06,0.039-0.123,0.072-0.188,0.1
				c-0.14,0.06-0.291,0.097-0.444,0.112c-0.156,0.015-0.315,0.007-0.467-0.024l-0.296-0.075l-4.666-1.143l0.001,0l-0.025-0.009
				l-0.038-0.035l-0.024-0.053l-0.015-0.077l-0.006-0.069l0,0l0.045-1.812"/>
			<g id="LINE_2_">
				<path class="st1" d="M44.529,163.052l-0.063-1.184l-0.045-0.304l0,0.001l-0.008-0.037l-0.056-0.117l-0.098-0.097l-0.131-0.068
					l-0.084-0.024l-5.726-1.171c-0.028-0.006-0.056,0.01-0.065,0.036l0,0l-2.59,6.981l-11.228,30.386l-2.41-0.511
					c0,0-0.887-0.114-1.288,0.859"/>
			</g>
		</g>
		<polyline class="st1" points="80.25,153.138 75.748,165.584 75.857,167.76 		"/>
		<path class="st1" d="M58.724,201.917c0,0,2.72-7.615,3.209-8.648c0.49-1.033-0.326-1.74-0.326-1.74l-2.589-2.138l2.07-5.91
			c0,0,1.329-0.589,3.402-0.818c1.86-0.205,2.012-1.469,2.012-1.469l10.28-28.8l0.402,9.217"/>
		<polygon class="st1" points="52.521,149.228 64.121,151.631 59.68,163.597 48.237,161.141 		"/>
		<polyline class="st1" points="94.186,212.086 98.103,212.862 105.777,191.234 106.786,189.888 111.206,177.863 111.206,176.312 
			117.048,160.794 		"/>
		<path class="st1" d="M94.911,212.266l-1.219,3.454c0,0-1.164,2.108,2.065,3.016"/>
		<line class="st1" x1="129.096" y1="225.454" x2="12.913" y2="201.673"/>
		<path class="st1" d="M113.831,169.436l-0.305-8.822l-3.192-0.658c0,0-0.721-0.219-1.159,0.94
			c-0.439,1.159-1.015,2.838-1.015,2.838s-0.533,1.065,0.345,2.225c0,0,0.971,1.003,0.564,2.131
			c-0.407,1.128-0.627,1.379-0.627,1.379s-0.313,0.815,1.065,1.128l-6.611,18.236c0,0-0.282,0.846-1.943,1.097
			c-1.661,0.251-2.413,0.501-2.413,0.501s-0.595,0-1.159,1.253c-0.564,1.253-1.598,4.167-1.598,4.167s-0.564,0.94,0.313,1.661
			c0.877,0.721,2.099,1.535,2.099,1.535s0.815,0.533,0.219,1.849c-0.595,1.316-1.911,4.857-1.911,4.857s-1.039-0.279-1.48,0.294
			c-0.441,0.573-0.617,1.763-0.617,1.763s-0.265,0.838,0.97,1.234l-2.601,6.304c0,0-1.146,2.381-4.232,1.719"/>
		<path class="st1" d="M12.396,200.461l-0.066-2.59l11.821-31.478l1.063-0.398l1.395-3.652l0.996,0.199l2.191-6.043l-1.992-0.398
			l7.882-21.727l0.698,0.161l0.204-0.487l0.958-2.286c0,0,0.886-0.994,0.929,0.951l0.089,1.399"/>
		<path class="st1" d="M25.109,166.345l-2.404,6.485l-0.056,4.976l6.933,1.454l0.224-0.503c0,0,1.156-0.093,1.707-0.699
			l-5.406-0.858l0.036-1.854L30.579,176"/>
		<line class="st1" x1="15.352" y1="196.26" x2="22.654" y2="176.223"/>
		<path class="st1" d="M20.807,197.494l-6.235-1.299c0,0-0.909,1.429,0.162,1.721s4.838,1.007,4.838,1.007
			S20.45,199.377,20.807,197.494z"/>
		<path class="st1" d="M13.09,200.74l-0.881,2.569l-0.073,2.569l-1.395,3.45l-0.037,4.734l-1.064,2.312l-3.707-0.734l0.697-7.193
			l2.312-4.477l1.692-3.821l7.584,1.631c0,0,0.973,0.401,1.316-0.658c0.343-1.059,1.202-3.32,1.202-3.32"/>
		<polyline class="st1" points="10.953,209.209 12.26,209.521 14.027,205.765 		"/>
		<polyline class="st1" points="12.198,206.159 12.26,217.769 10.237,217.427 10.175,215.373 		"/>
		<polyline class="st1" points="12.413,217.565 14.027,213.109 14.072,201.923 		"/>
		<polyline class="st1" points="14.235,205.393 55.454,213.973 56.583,214.639 56.713,222.529 		"/>
		<path class="st1" d="M19.823,200.298c0,0-0.441,2.325,2.365,3.247"/>
		<path class="st1" d="M51.218,209.431c4.672,0.501,5.478-3.142,5.478-3.142l1.669-4.728l0.834,0.25v0.695l-0.6,1.382l0.073,0.757"
			/>
		<path class="st1" d="M59.082,211.124c0,0-3.081-0.998-2.163-3.445l1.029-2.336c0,0,0.222-0.89,1.418-0.612
			c1.196,0.278,1.724,0.473,1.724,0.473l10.806-28.731"/>
		<polyline class="st1" points="69.368,172.968 69.552,175.902 74.55,163.155 74.687,161.229 76.017,157.927 74.908,157.703 		"/>
		<line class="st1" x1="71.985" y1="165.847" x2="72.134" y2="169.108"/>
		<polyline class="st1" points="76.125,164.486 75.943,160.662 76.229,160.142 76.017,157.927 		"/>
		<polyline class="st1" points="112.602,172.241 112.44,163.608 113.748,159.952 		"/>
		<line class="st1" x1="110.993" y1="163.111" x2="112.341" y2="163.378"/>
		<g id="SPLINE_14_">
			<path class="st1" d="M109.23,165.767l-0.404-0.946c-0.013-0.03-0.02-0.063-0.021-0.096c-0.001-0.033,0.005-0.066,0.016-0.097
				l0.794-2.152c0.016-0.044,0.044-0.083,0.077-0.116c0.037-0.037,0.082-0.065,0.129-0.085c0.051-0.022,0.106-0.036,0.162-0.042
				c0.057-0.006,0.114-0.003,0.17,0.008l0.553,0.113c0.041,0.008,0.081,0.022,0.119,0.04c0.035,0.017,0.069,0.039,0.098,0.065
				c0.027,0.024,0.05,0.053,0.068,0.085c0.016,0.03,0.027,0.063,0.031,0.096c0.004,0.03,0.002,0.061-0.005,0.091
				c-0.002,0.01-0.005,0.02-0.009,0.03l-0.292,0.791c-0.002,0.006-0.003,0.013-0.002,0.02c0.001,0.007,0.004,0.013,0.008,0.019
				c0.009,0.012,0.025,0.02,0.04,0.023l0.055,0.011c0.044,0.009,0.088,0.025,0.127,0.048c0.036,0.021,0.068,0.048,0.092,0.081
				c0.022,0.03,0.038,0.065,0.044,0.102c0.006,0.036,0.001,0.074-0.011,0.108l-0.682,1.847c-0.016,0.044-0.044,0.083-0.077,0.116
				c-0.037,0.037-0.082,0.065-0.129,0.085c-0.051,0.022-0.106,0.036-0.162,0.042c-0.057,0.006-0.114,0.003-0.17-0.008l-0.322-0.066
				c-0.065-0.013-0.129-0.039-0.184-0.078C109.294,165.867,109.253,165.821,109.23,165.767"/>
		</g>
		<ellipse class="st1" cx="110.923" cy="161.242" rx="0.84" ry="0.504"/>
		<g id="SPLINE_13_">
			<path class="st1" d="M50.101,201.401c0.173-0.091,0.335-0.21,0.469-0.353c0.063-0.067,0.119-0.139,0.168-0.217
				c0.047-0.074,0.086-0.153,0.117-0.235l9.376-25.401c0.033-0.089,0.055-0.183,0.065-0.278c0.01-0.094,0.007-0.188-0.007-0.281
				c-0.015-0.094-0.042-0.187-0.079-0.274c-0.039-0.091-0.089-0.177-0.148-0.256c-0.062-0.084-0.134-0.16-0.212-0.229
				c-0.082-0.073-0.172-0.137-0.267-0.192c-0.202-0.119-0.427-0.201-0.656-0.248l-14.747-3.016c-0.24-0.049-0.489-0.061-0.734-0.037
				c-0.241,0.024-0.479,0.084-0.7,0.18c-0.106,0.046-0.207,0.101-0.304,0.164c-0.092,0.06-0.178,0.129-0.256,0.206
				c-0.074,0.073-0.142,0.152-0.199,0.239c-0.055,0.082-0.101,0.171-0.135,0.263l-9.376,25.401
				c-0.027,0.073-0.047,0.149-0.058,0.226c-0.011,0.076-0.015,0.153-0.011,0.229c0.005,0.077,0.017,0.153,0.038,0.227
				c0.021,0.076,0.049,0.149,0.085,0.219c0.075,0.148,0.179,0.28,0.301,0.393c0.133,0.123,0.287,0.222,0.449,0.299
				c0.039,0.018,0.079,0.036,0.119,0.052c0.123,0.049,0.252,0.087,0.382,0.114l14.747,3.016c0.267,0.055,0.544,0.063,0.816,0.027
				C49.607,201.603,49.866,201.525,50.101,201.401"/>
		</g>
		<g id="SPLINE_10_">
			<path class="st1" d="M86.861,208.96c0.173-0.091,0.335-0.21,0.469-0.353c0.063-0.067,0.119-0.139,0.168-0.217
				c0.047-0.074,0.086-0.153,0.117-0.235l9.376-25.401c0.033-0.089,0.055-0.183,0.065-0.278c0.01-0.094,0.007-0.188-0.007-0.281
				c-0.015-0.094-0.042-0.187-0.079-0.274c-0.039-0.091-0.089-0.177-0.148-0.256c-0.062-0.084-0.134-0.16-0.212-0.229
				c-0.082-0.073-0.172-0.137-0.267-0.192c-0.202-0.119-0.427-0.201-0.656-0.248L80.94,177.98c-0.24-0.049-0.489-0.061-0.734-0.037
				c-0.241,0.024-0.479,0.084-0.7,0.18c-0.106,0.046-0.207,0.101-0.304,0.164c-0.092,0.06-0.178,0.129-0.256,0.205
				c-0.074,0.073-0.142,0.152-0.199,0.239c-0.055,0.082-0.101,0.171-0.135,0.264l-9.376,25.401
				c-0.027,0.073-0.047,0.149-0.058,0.226c-0.011,0.076-0.015,0.153-0.011,0.229c0.005,0.077,0.017,0.153,0.038,0.227
				c0.021,0.076,0.049,0.149,0.085,0.219c0.075,0.148,0.179,0.28,0.301,0.393c0.133,0.123,0.287,0.222,0.449,0.299
				c0.039,0.018,0.079,0.036,0.119,0.052c0.123,0.049,0.252,0.087,0.382,0.114l14.747,3.016c0.267,0.055,0.544,0.063,0.816,0.027
				C86.367,209.163,86.627,209.084,86.861,208.96"/>
		</g>
		<path class="st1" d="M97.84,219.096l0.139,4.004c0,0,0.173,1.299,1.515,1.688l25.251,5.278c0,0,1.574,0.44,2.139-0.193
			l-0.216-4.891"/>
		<path class="st1" d="M98.436,219.153l0.143,3.848c0,0,1.14,0.057,0.998,0.57s-0.314,0.998-0.314,0.998l-0.029,1.226l25.884,5.302
			l0.2-1.34c0,0,0.029-1.34,1.397-1.112"/>
		<path class="st1" d="M61.725,211.776l0.103,3.776c0,0,1.098,0.069,0.995,0.652c-0.103,0.584-0.309,0.892-0.309,0.892l0.034,1.167
			l25.847,5.286l0.103-1.304c0,0,0-1.407,1.545-1.064"/>
		<path class="st1" d="M89.872,217.474l0.103,2.918c0,0,0.618,2.609-1.476,1.854"/>
		<path class="st1" d="M60.969,211.673v3.741c0,0-0.24,1.064,1.545,1.682"/>
		<path class="st1" d="M13.835,213.689c0,0-0.58,1.625,1.48,2.031s8.53,1.712,8.53,1.712s0.928,0.609,1.596-1.625l-0.087-8.036"/>
		<polyline class="st1" points="25.304,208.583 32.171,210.01 32.227,215.663 		"/>
		<line class="st1" x1="25.614" y1="215.823" x2="30.522" y2="216.836"/>
		<line class="st1" x1="25.562" y1="214.999" x2="30.87" y2="216.081"/>
		<polyline class="st1" points="32.218,215.643 33.375,215.888 33.601,213.633 33.807,212.834 34.168,212.912 34.245,215.746 
			33.933,216.363 33.985,217.55 33.646,218.514 32.342,218.228 		"/>
		<path class="st1" d="M32.278,218.748l-0.08-3.126l-1.03-0.207l-1.598,4.09l0.139,2.967c0,0,0.697,0.657,1.055,0.1L32.278,218.748z
			"/>
		<path class="st1" d="M31.169,215.415l-0.137-3.854c0,0-0.068-0.707-0.775-0.798c-0.707-0.091-2.304-0.479-2.304-0.479
			l-1.551,0.798l0.068,2.668l1.414,1.574"/>
		<polyline class="st1" points="45.804,218.739 45.222,219.542 45.139,220.872 36.217,219.016 36.244,217.492 36.605,216.743 		"/>
		<path class="st1" d="M35.524,209.955l0.194,6.65l-0.471,0.72l-0.055,1.635c0,0,0.194,0.942,1.136,1.108
			c0.942,0.166,8.978,1.773,8.978,1.773s1.053,0.111,1.469-1.635l-0.083-6.484l1.053-1.385"/>
		<line class="st1" x1="36.383" y1="218.046" x2="45.111" y2="219.764"/>
		<line class="st1" x1="33.985" y1="217.55" x2="35.116" y2="217.771"/>
		<polyline class="st1" points="47.124,213.094 53.484,214.354 53.524,219.713 54.744,219.881 55.002,217.597 55.439,217.121 
			55.479,220.06 55.261,220.774 55.27,222.184 125.105,236.67 		"/>
		<line class="st1" x1="46.769" y1="219.325" x2="52.171" y2="220.408"/>
		<line class="st1" x1="46.779" y1="220.182" x2="51.869" y2="221.2"/>
		<path class="st1" d="M49.645,219.729l-1.885-1.621l-0.057-2.677l1.508-0.792c0,0,1.49,0.377,2.244,0.434
			c0.754,0.057,0.886,0.716,0.886,0.716l0.113,3.978l-1.602,4.106l0.139,3.058c0.894,0.516,1.112,0,1.112,0l1.509-3.912
			l-0.118-3.276c0,0-0.22-0.02-0.895-0.1"/>
		<polyline class="st1" points="53.573,222.601 54.863,222.86 55.221,221.946 		"/>
		<g>
			<polygon class="st1" points="58.521,219.82 70.719,222.327 70.811,224.466 58.613,221.96 			"/>
			<line class="st1" x1="61.548" y1="220.645" x2="61.609" y2="222.449"/>
			<line class="st1" x1="64.574" y1="221.348" x2="64.635" y2="223.152"/>
			<line class="st1" x1="67.601" y1="222.051" x2="67.662" y2="223.591"/>
		</g>
		<g>
			<polygon class="st1" points="72.096,222.636 79.988,224.331 80.08,226.471 72.188,224.776 			"/>
			<line class="st1" x1="76.028" y1="223.679" x2="76.089" y2="225.483"/>
		</g>
		<g>
			<polygon class="st1" points="81.382,224.623 91.851,226.827 91.943,228.906 81.474,226.702 			"/>
			<line class="st1" x1="86.713" y1="225.852" x2="86.774" y2="227.604"/>
		</g>
		<polygon class="st1" points="93.622,224.21 97.118,224.909 97.214,226.911 93.622,226.212 		"/>
		<polygon class="st1" points="93.622,227.016 97.118,227.715 97.214,229.717 93.622,229.018 		"/>
		<path class="st1" d="M22.786,172.67l3.01,0.719l3.545,0.498l0.002,0.93c0.477,0.079,1.51,1.152,1.51,1.152l0.926-2.222"/>
		<path class="st1" d="M29.541,173.544l4.212-10.531c0,0-0.556-2.623,1.868-4.53l-0.079-0.795l2.861-7.272l-5.444-1.152l1.391-3.537
			l1.113,0.199l0.358-0.119l3.656,0.755l-1.351,3.576"/>
		<polyline class="st1" points="30.288,149.261 31.197,149.443 31.669,148.716 33.633,143.517 40.031,144.517 41.485,144.99 
			41.594,146.262 41.085,146.044 39.476,146.562 		"/>
		<path class="st1" d="M38.213,150.661c0,0,2.29,0.727,2.218,3.272"/>
		<path class="st1" d="M39.34,146.88c0,0,2.363,1.091,2.545,3.345"/>
		<polyline class="st1" points="40.031,152.406 37.486,159.604 37.014,159.459 34.251,167.202 34.287,168.22 31.96,174.146 		"/>
		<path class="st1" d="M29.925,172.328c0,0,2.363,0.909,2.363,3.381"/>
		<polyline class="st1" points="27.802,156.1 27.902,157.695 26.364,161.914 26.607,162.343 		"/>
		<polyline class="st1" points="24.15,166.394 25.581,162.788 26.334,162.849 		"/>
		<polyline class="st1" points="36.63,142.206 34.47,141.831 34.506,140.682 35.185,138.645 37.381,139.025 		"/>
		<path class="st1" d="M42.557,143.475l-0.001,0.145l0.192,1.655c0,0-0.114,0.739-1.108,0.71l0.057-0.426l0.811-1.962"/>
		<polyline class="st1" points="40.298,146.379 40.87,147.014 41.876,147.266 41.885,147.913 41.515,148.753 		"/>
		<line class="st1" x1="7.235" y1="210.297" x2="9.222" y2="210.703"/>
		<line class="st1" x1="7.235" y1="211.097" x2="9.222" y2="211.503"/>
		<line class="st1" x1="7.176" y1="211.838" x2="9.163" y2="212.245"/>
		<line class="st1" x1="7.117" y1="212.58" x2="9.105" y2="212.986"/>
		<line class="st1" x1="7.039" y1="213.341" x2="9.027" y2="213.747"/>
		<line class="st1" x1="6.961" y1="214.063" x2="8.949" y2="214.469"/>
		<line class="st1" x1="6.903" y1="214.785" x2="8.89" y2="215.192"/>
		<path class="st1" d="M22.457,208.31c-3.205-2.08-5.851-0.754-5.851-0.754l1.88,1.159c0,0,2.402-0.448,3.377,1.414l0.834-1.132
			L22.457,208.31z"/>
		<path class="st1" d="M16.016,211.7l-0.661-0.504c-0.464-2.46,0.856-3.051,0.856-3.051l1.501,0.898c0,0-1.455,0.276-1.137,1.631
			C16.574,210.674,15.996,211.124,16.016,211.7z"/>
		<polyline class="st1" points="15.042,212.036 14.966,213.312 14.908,214.733 23.873,216.59 23.902,213.999 24.533,213.194 		"/>
		<path class="st1" d="M22.406,213.664c0,0-2.459,0.952-5.662-1.06c0,0-0.3-0.486,0.343-1.341c0,0,1.2,1.347,3.129,1.371
			C20.215,212.634,20.722,213.338,22.406,213.664z"/>
		<line class="st1" x1="14.968" y1="213.535" x2="23.687" y2="215.388"/>
		<path class="st1" d="M21.228,212.411c0,0,1.14-0.136,1.08-1.596l0.658-0.764l0.338-0.533c0,0,0.871,1.91-0.232,3.504
			C23.073,213.022,21.656,212.886,21.228,212.411z"/>
		<g>
			<path class="st1" d="M44.014,212.958c-3.072-1.994-5.608-0.722-5.608-0.722l1.802,1.111c0,0,2.303-0.429,3.237,1.356l0.8-1.086
				L44.014,212.958z"/>
			<path class="st1" d="M37.839,216.208l-0.633-0.483c-0.445-2.358,0.82-2.925,0.82-2.925l1.439,0.861c0,0-1.395,0.265-1.09,1.563
				C38.375,215.224,37.821,215.656,37.839,216.208z"/>
			<path class="st1" d="M43.965,218.091c0,0-2.357,0.912-5.428-1.016c0,0-0.288-0.466,0.329-1.285c0,0,1.15,1.291,3,1.314
				C41.865,217.104,42.351,217.778,43.965,218.091z"/>
			<path class="st1" d="M42.836,216.889c0,0,1.092-0.13,1.035-1.53l0.631-0.732l0.324-0.511c0,0,0.835,1.831-0.222,3.359
				C44.604,217.475,43.246,217.345,42.836,216.889z"/>
		</g>
		<path class="st1" d="M24.277,204.017c0,0-0.274,1.503,1.248,1.741"/>
		<path class="st1" d="M53.119,209.917c0,0,0.402,1.566-1.365,1.265"/>
		<polyline class="st1" points="52.095,209.636 51.593,211.002 51.573,212.347 25.491,206.946 25.531,205.781 26.13,204.411 		"/>
		<polygon class="st1" points="102.091,227.809 103.707,228.155 103.776,230.625 102.13,230.27 		"/>
		<g>
			<polygon class="st1" points="107.832,230.405 111.73,231.208 115.673,232.02 115.673,233.792 107.832,232.176 			"/>
			<line class="st1" x1="111.766" y1="232.932" x2="111.73" y2="231.208"/>
		</g>
		<g>
			<polygon class="st1" points="116.751,232.223 120.65,233.026 124.592,233.838 124.592,235.609 116.751,233.994 			"/>
			<line class="st1" x1="120.685" y1="234.75" x2="120.65" y2="233.026"/>
		</g>
		<g id="SPLINE_4_">
			<path class="st1" d="M98.713,229.323c0.001-0.01,0.003-0.021,0.007-0.031c0.003-0.008,0.007-0.017,0.012-0.024
				c0.011-0.016,0.025-0.029,0.041-0.039c0.044-0.027,0.099-0.035,0.151-0.032c0.02,0.001,0.04,0.004,0.06,0.008l1.802,0.369
				c0.054,0.011,0.107,0.032,0.154,0.063c0.042,0.027,0.08,0.061,0.104,0.104c0.013,0.023,0.022,0.049,0.023,0.076l0.004,0.168
				l-0.006,0.034c-0.007,0.018-0.02,0.034-0.036,0.046c-0.006,0.004-0.012,0.008-0.019,0.011l-0.207,0.102
				c-0.027,0.013-0.057,0.019-0.087,0.019c-0.011,0-0.022,0-0.034-0.001c-0.012-0.001-0.025-0.003-0.037-0.005l-1.492-0.305
				c-0.012-0.003-0.025-0.006-0.037-0.01c-0.03-0.01-0.06-0.023-0.086-0.041c-0.013-0.008-0.025-0.017-0.036-0.027l-0.213-0.188
				c-0.013-0.011-0.025-0.024-0.035-0.038c-0.009-0.012-0.017-0.026-0.022-0.04c-0.005-0.013-0.008-0.026-0.008-0.039l-0.004-0.168
				L98.713,229.323z"/>
		</g>
		<polyline class="st1" points="167.732,114.307 166.619,114.692 60.036,92.972 		"/>
		<polyline class="st1" points="76.524,88.833 73.659,89.52 73.659,90.322 70.565,93.302 70.737,90.38 73.888,86.312 76.868,85.395 
					"/>
		<path class="st1" d="M101.336,83.696l-1.549,11.791l-3.25,4.081c0,0-0.794,0.529-0.68-0.68s0.491-3.779,0.491-3.779l4.497-11.413
			H101.336z"/>
		<path class="st1" d="M80.005,76.582l-0.815,1.086l-2.127,6.924l-0.679,5.249c0,0,0.226,0.679,0.86-0.045s4.525-5.657,4.525-5.657
			l8.221-64.189l-0.532-0.887l-2.041,2.751l-0.266,3.372l-3.017,4.792L82.98,40.894l1.952-2.13l-2.683,20.533h0.74l-0.542,4.439
			l-0.888,0.444L80.005,76.582z"/>
		<polygon class="st1" points="103.686,94.697 106.686,91.256 107.039,87.814 106.245,86.402 104.127,83.755 103.774,81.549 
			104.833,73.959 105.186,65.311 102.009,85.961 103.597,91.256 		"/>
		<polygon class="st1" points="129.756,94.93 129.122,101.512 134.277,95.485 142.604,31.798 139.511,41.633 138.718,48.85 
			138.163,49.723 137.37,55.512 136.841,56.29 134.832,74.309 134.198,75.023 132.611,87.633 132.056,88.426 		"/>
		<polyline class="st1" points="128.932,100.69 128,102.155 127.823,105.172 131.018,101.933 131.207,99.372 		"/>
		<polyline class="st1" points="157.011,89.359 156.481,92.738 156.945,94.792 158.469,96.449 		"/>
		<polyline class="st1" points="159.396,89.823 158.005,101.882 159.227,100.409 160.589,98.768 160.722,97.376 160.192,95.918 
			160.523,95.256 159.804,92.861 160.135,89.945 		"/>
		<polyline class="st1" points="159.21,101.86 156.042,105.539 156.196,102.166 154.561,96.75 155.327,92.458 155.634,91.742 
			160.539,54.39 158.597,56.536 159.262,50.046 160.641,48.156 161.765,38.907 164.576,35.228 89.991,19.951 		"/>
		<path class="st1" d="M181.852,38.745l-16.235-3.338l-0.051,0.961l-3.035,9.458l-0.708,7.182l-0.556,2.175l12.846,2.681
			c0,0,2.377-1.315,0-4.248l-9.963-2.023l0.506-0.759l1.72-12.644l1.696-2.136"/>
		<line class="st1" x1="180.125" y1="60.653" x2="174.487" y2="104.935"/>
		<path class="st1" d="M174.487,104.935"/>
		<polyline class="st1" points="171.477,113.421 169.417,106.237 172.145,83.941 172.744,83.143 174.475,70.564 174.009,70.231 
			176.914,48.543 177.432,48.57 179.56,42.378 183.052,37.659 181.685,48.392 179.255,51.488 177.746,63.17 180.686,59.07 
			181.847,48.741 		"/>
		<polyline class="st1" points="176.379,37.777 174.594,40.091 173.074,53.111 		"/>
		<polyline class="st1" points="177.137,38.024 177.043,39.055 174.419,48.006 175.263,48.139 174.653,50.115 174.114,53.614 		"/>
		<line class="st1" x1="159.967" y1="60.556" x2="174.813" y2="63.766"/>
		<line class="st1" x1="158.683" y1="71.229" x2="173.77" y2="74.279"/>
		<polyline class="st1" points="171,92.106 167.877,91.462 156.073,89.029 		"/>
		<polyline class="st1" points="167.877,91.462 166.426,103.457 168.962,100.92 169.129,99.465 168.089,95.183 168.463,91.649 		"/>
		<polyline class="st1" points="160.896,97.844 166.759,99.091 163.308,109.943 163.017,113.352 166.925,108.862 167.84,102.085 		
			"/>
		<line class="st1" x1="134.387" y1="95.028" x2="155.211" y2="99.25"/>
		<line class="st1" x1="135.389" y1="87.657" x2="155.634" y2="91.742"/>
		<line class="st1" x1="136.248" y1="80.143" x2="156.356" y2="84.437"/>
		<line class="st1" x1="137.464" y1="71.842" x2="157.644" y2="76.136"/>
		<line class="st1" x1="138.537" y1="63.541" x2="158.718" y2="67.835"/>
		<line class="st1" x1="139.539" y1="54.882" x2="159.934" y2="59.319"/>
		<line class="st1" x1="140.756" y1="46.223" x2="159.262" y2="50.046"/>
		<polyline class="st1" points="122.007,26.57 120.183,29.002 118.562,42.445 134.505,45.89 135.721,45.147 136.396,40.013 
			139.166,31.096 139.233,30.15 		"/>
		<line class="st1" x1="142.604" y1="31.798" x2="139.166" y2="31.096"/>
		<polyline class="st1" points="120.994,27.516 112.28,25.692 109.443,35.217 108.455,43.115 105.322,68.182 		"/>
		<line class="st1" x1="138.153" y1="49.132" x2="108.455" y2="43.115"/>
		<line class="st1" x1="107.619" y1="49.808" x2="136.801" y2="55.82"/>
		<line class="st1" x1="135.653" y1="66.494" x2="106.2" y2="60.414"/>
		<line class="st1" x1="104.833" y1="73.959" x2="133.198" y2="80.033"/>
		<line class="st1" x1="88.116" y1="35.753" x2="108.553" y2="39.961"/>
		<line class="st1" x1="87.114" y1="44.268" x2="107.451" y2="48.576"/>
		<line class="st1" x1="85.912" y1="52.684" x2="106.55" y2="57.092"/>
		<line class="st1" x1="84.41" y1="61.099" x2="105.186" y2="65.311"/>
		<line class="st1" x1="83.801" y1="69.557" x2="103.771" y2="73.692"/>
		<line class="st1" x1="82.822" y1="76.63" x2="102.737" y2="80.929"/>
		<line class="st1" x1="100.77" y1="88.474" x2="102.519" y2="88.873"/>
		<line class="st1" x1="81.77" y1="84.14" x2="98.957" y2="88.061"/>
		<line class="st1" x1="104.152" y1="82.126" x2="112.912" y2="83.922"/>
		<line class="st1" x1="114.597" y1="88.287" x2="128.91" y2="91.213"/>
		<line class="st1" x1="106.818" y1="86.697" x2="112.37" y2="87.832"/>
		<polyline class="st1" points="130.841,90.955 130.182,87.495 130.622,82.551 129.853,83.375 128.424,95.679 129.688,94.471 		"/>
		<polyline class="st1" points="113.319,80.409 111.891,92.109 114.473,89.472 114.088,86.78 114.527,86.231 113.594,83.1 
			113.923,80.244 112.989,79.914 113.649,79.145 116.78,79.804 117.219,79.255 119.416,79.75 119.416,80.354 124.909,81.452 
			125.239,80.958 127.436,81.397 127.326,82.057 130.127,82.661 		"/>
		<line class="st1" x1="79.945" y1="73.54" x2="66.573" y2="70.661"/>
		<line class="st1" x1="82.267" y1="55.803" x2="59.051" y2="51.067"/>
		<line class="st1" x1="83.845" y1="45.124" x2="60.537" y2="40.388"/>
		<line class="st1" x1="83.474" y1="35.374" x2="61.466" y2="31.102"/>
		<polyline class="st1" points="62.858,24.509 62.023,27.387 57.38,64.811 		"/>
		<path class="st1" d="M66.347,73.341l0.942-5.654c0,0,1.068-0.942-1.194-1.382c-2.262-0.44-8.105-1.508-8.105-1.508
			s-1.445-0.126-1.571,1.257c-0.126,1.382-0.434,3.773-0.434,3.773l0.129,0.027l9.715,2.016l0.65,1.95l13.525,2.763"/>
		<polyline class="st1" points="56.115,69.852 57.865,76.859 56.923,82.576 55.603,85.529 54.912,90.178 54.158,90.116 		"/>
		<path class="st1" d="M38.969,144.366l13.2-36.122l1.061,0.088l3.803-10.436l-0.973-0.442l0.884-2.476l2.476,0.442
			c0,0,0.177-2.034,0.884-2.83l-1.519-0.344l-1.299,1.263l-3.141-0.565l-0.503-0.754l0.377-3.016l-1.948-7.288l7.162-53.528
			l4.021-5.529l2.262,0.377l1.131-1.319l5.026,1.068"/>
		<path class="st1" d="M75.664,15.561l0.085,2.394l-2.735,9.061l-0.94,1.111c0,0-0.769-0.085-0.513-1.881
			c0.256-1.795,0.855-6.497,0.855-6.497L75.664,15.561z"/>
		<line class="st1" x1="181.172" y1="37.329" x2="182.579" y2="37.624"/>
		<line class="st1" x1="155.475" y1="32.03" x2="178.323" y2="36.746"/>
		<line class="st1" x1="144.456" y1="29.77" x2="151.138" y2="31.135"/>
		<line class="st1" x1="118.721" y1="24.445" x2="141.339" y2="29.113"/>
		<line class="st1" x1="75.672" y1="15.56" x2="114.326" y2="23.538"/>
		<polyline class="st1" points="63.457,22.829 63.682,20.634 64.455,20.273 64.816,17.902 65.435,17.592 66.723,17.798 
			67.033,20.118 66.849,21.886 		"/>
		<polygon class="st1" points="103.789,21.098 104.871,20.273 106.315,20.582 107.139,21.665 106.933,22.644 103.685,21.923 		"/>
		<polygon class="st1" points="115.284,22.438 118.326,23.108 118.687,24.294 118.223,24.964 114.46,24.191 114.46,23.624 		"/>
		<polygon class="st1" points="141.594,28.903 142.694,28.124 143.702,28.261 144.39,29.178 144.235,30.188 141.525,29.636 		"/>
		<polygon class="st1" points="151.277,31.147 152.178,30.03 155.026,30.642 155.423,31.688 155.098,32.625 151.385,31.868 		"/>
		<polygon class="st1" points="178.361,37.223 178.516,36.347 179.546,35.626 180.576,35.806 181.22,36.759 181.014,37.789 		"/>
		<line class="st1" x1="57.865" y1="76.859" x2="78.082" y2="80.876"/>
		<path class="st1" d="M57.399,80.977l2.129,0.406c0,0,0.912,0,0.71,1.115s-1.45,9.747-1.45,9.747"/>
		<polyline class="st1" points="47.688,129.534 46.161,129.273 40.475,144.678 		"/>
		<polyline class="st1" points="46.536,146.056 52.394,130.34 50.144,129.954 		"/>
		<path class="st1" d="M47.902,127.42"/>
		<polyline class="st1" points="61.434,93.532 60.414,96.436 60.427,99.662 69.493,101.44 70.865,97.243 71.113,95.264 		"/>
		<polyline class="st1" points="60.736,96.436 69.291,98.252 70.462,95.185 		"/>
		<line class="st1" x1="69.493" y1="101.44" x2="69.291" y2="98.252"/>
		<line class="st1" x1="150.483" y1="112.699" x2="170.175" y2="116.774"/>
		<line class="st1" x1="92.606" y1="100.934" x2="116.626" y2="105.808"/>
		<path class="st1" d="M71.027,97.526c0,0,0.847,0.565,1.009-0.767l10.876,2.207"/>
		<polyline class="st1" points="141.242,109.551 140.515,111.125 140.673,114.088 148.99,115.846 		"/>
		<polyline class="st1" points="149.595,111.165 148.828,112.9 148.99,115.846 150.806,111.448 		"/>
		<line class="st1" x1="140.515" y1="111.125" x2="148.828" y2="112.9"/>
		<polyline class="st1" points="117.141,104.635 116,107.837 118.834,108.389 120.048,105.261 		"/>
		<polyline class="st1" points="116.011,107.898 116,110.844 118.834,111.396 118.822,108.388 		"/>
		<line class="st1" x1="120.806" y1="106.657" x2="140.637" y2="110.681"/>
		<path class="st1" d="M121.189,105.518"/>
		<line class="st1" x1="118.822" y1="111.428" x2="120.98" y2="105.61"/>
		<polyline class="st1" points="83.347,97.735 82.813,99.202 82.674,99.585 82.606,103.253 90.985,104.936 93.071,99.686 		"/>
		<polyline class="st1" points="91.691,99.417 91.019,101.032 82.943,99.35 		"/>
		<line class="st1" x1="91.119" y1="104.464" x2="91.019" y2="101.032"/>
		<polyline class="st1" points="145.718,160.231 145.015,161.688 144.965,162.543 144.462,164.151 145.367,164.352 145.233,164.976 
					"/>
		<polyline class="st1" points="148.04,165.589 147.883,164.854 147.147,164.644 147.673,163.121 147.62,162.176 148.355,161.073 
			148.202,157.641 158.399,131.075 158.783,130.936 159.197,130.577 161.276,131.004 161.333,132.137 		"/>
		<polyline class="st1" points="164.612,131.69 162.347,131.224 161.64,131.877 160.695,132.612 160.59,133.61 160.695,136.655 
			151.716,161.545 150.928,161.283 150.193,162.701 150.246,163.541 149.668,165.169 150.561,165.379 150.718,166.166 		"/>
		<polyline class="st1" points="145.233,164.976 147.239,165.409 147.466,164.858 		"/>
		<polyline class="st1" points="148.144,165.62 149.974,166.002 150.147,165.36 		"/>
		<line class="st1" x1="151.453" y1="166.324" x2="150.796" y2="166.181"/>
		<polyline class="st1" points="154.082,129.591 153.832,129.9 153.076,130.307 143.134,157.468 143.126,160.027 142.43,161.208 
			142.477,162.089 141.921,163.665 142.755,163.897 142.754,164.502 144.551,164.863 144.794,164.242 		"/>
		<polyline class="st1" points="153.159,129.336 151.754,129.047 151.095,129.68 150.442,132.142 150.693,134.805 141.397,159.528 
			140.543,159.276 139.839,160.683 139.89,161.437 139.337,163.146 140.241,163.347 140.241,163.899 141.944,164.314 
			142.228,163.756 		"/>
		<polyline class="st1" points="156.221,131.407 156.069,129.934 153.952,129.499 		"/>
		<polyline class="st1" points="62.205,110.641 127.14,123.988 127.073,125.274 126.309,125.482 126.24,126.454 126.448,128.745 		
			"/>
		<polyline class="st1" points="158.75,130.431 157.073,130.107 156.775,130.648 156.397,131.027 155.747,132.947 155.558,135.328 
			146.035,160.028 		"/>
		<path class="st1" d="M155.252,158.605l0.91-2.329c0,0,0.645-1.176,0.835,0.228c0.19,1.404,0.228,2.58,0.228,2.58"/>
		<line class="st1" x1="157.023" y1="157.028" x2="159.131" y2="151.691"/>
		<polygon class="st1" points="123.896,128.274 127.8,129.102 128.983,125.967 142.412,128.747 141.347,131.824 145.192,132.652 
			142.767,139.455 138.863,138.508 137.739,141.585 141.702,142.413 139.217,149.157 135.136,148.269 133.952,151.523 
			120.583,148.743 121.766,145.607 117.684,144.838 120.405,138.035 124.192,138.804 125.316,135.787 121.293,134.959 		"/>
		<line class="st1" x1="142.412" y1="128.747" x2="142.555" y2="132.009"/>
		<line class="st1" x1="145.192" y1="132.652" x2="145.471" y2="142.561"/>
		<polyline class="st1" points="142.767,139.455 143.041,148.671 141.93,148.463 		"/>
		<line class="st1" x1="141.702" y1="142.413" x2="141.93" y2="151.864"/>
		<polyline class="st1" points="135.136,148.269 135.543,157.835 139.431,158.599 139.217,149.157 		"/>
		<polyline class="st1" points="133.952,151.523 134.293,160.959 135.543,157.835 		"/>
		<polyline class="st1" points="120.583,148.743 120.825,158.252 116.798,157.349 117.978,154.156 117.684,144.838 		"/>
		<line class="st1" x1="120.709" y1="154.716" x2="117.978" y2="154.156"/>
		<polyline class="st1" points="134.293,160.959 138.246,161.705 139.431,158.599 		"/>
		<polyline class="st1" points="145.477,139.193 146.253,139.348 146.511,140.227 138.338,162.731 116.837,158.255 116.798,157.349 
					"/>
		<line class="st1" x1="160.695" y1="136.655" x2="162.726" y2="137.025"/>
		<polyline class="st1" points="89.316,153.654 87.622,153.286 87.474,152.549 86.627,152.365 87.29,150.708 87.217,149.824 
			87.916,148.461 88.8,148.645 98.119,123.489 98.045,121.095 98.708,119.07 99.371,118.37 		"/>
		<polyline class="st1" points="94.393,154.67 92.699,154.301 92.552,153.565 91.705,153.38 92.368,151.723 92.294,150.839 
			92.994,149.476 93.878,149.661 103.196,124.505 103.122,122.111 103.785,120.085 104.448,119.385 		"/>
		<polyline class="st1" points="99.78,155.693 98.085,155.325 97.938,154.588 97.091,154.404 97.754,152.747 97.68,151.863 
			98.38,150.5 99.264,150.684 108.186,125.529 108.112,123.135 108.775,121.109 109.438,120.409 		"/>
		<polyline class="st1" points="97.124,155.275 95.43,154.906 95.283,154.17 94.436,153.986 94.994,152.537 94.91,151.519 
			95.631,150.5 95.8,147.202 105.897,119.669 		"/>
		<polyline class="st1" points="102.341,156.253 100.647,155.884 100.499,155.148 99.652,154.964 100.211,153.515 100.126,152.497 
			100.847,151.478 101.016,148.18 111.036,120.78 		"/>
		<polyline class="st1" points="104.996,156.802 103.302,156.434 103.155,155.697 102.308,155.513 102.971,153.855 102.897,152.971 
			103.597,151.609 104.481,151.793 113.402,126.637 113.329,124.243 113.992,122.217 114.655,121.518 		"/>
		<polyline class="st1" points="107.558,157.361 105.863,156.993 105.716,156.256 104.869,156.072 105.428,154.623 105.343,153.605 
			106.064,152.587 106.233,149.288 116.33,121.755 		"/>
		<polyline class="st1" points="110.017,157.976 108.323,157.607 108.176,156.871 107.329,156.687 107.992,155.029 107.918,154.145 
			108.618,152.782 109.502,152.967 118.423,127.811 118.35,125.417 119.013,123.391 119.676,122.691 		"/>
		<polyline class="st1" points="117.537,146.128 114.718,154.075 113.834,153.891 113.135,155.254 113.208,156.138 112.545,157.795 
			113.392,157.979 113.54,158.716 115.234,159.084 117.915,152.146 		"/>
		<line class="st1" x1="121.522" y1="134.892" x2="120.218" y2="138.567"/>
		<polyline class="st1" points="124.892,123.8 124.229,124.5 123.566,126.525 123.64,128.919 		"/>
		<polyline class="st1" points="112.579,158.535 110.884,158.167 110.737,157.43 109.89,157.246 110.449,155.797 110.364,154.779 
			111.085,153.761 111.254,150.462 121.351,122.929 		"/>
		<polyline class="st1" points="100.83,118.855 90.627,146.81 90.458,149.345 89.832,150.597 89.869,151.407 89.242,152.881 
			90.09,153.065 90.237,153.801 91.931,154.17 		"/>
		<polyline class="st1" points="52.342,146.131 50.647,145.762 50.5,145.026 49.653,144.842 50.316,143.184 50.242,142.3 
			50.942,140.938 51.826,141.122 61.144,115.966 61.071,113.572 61.734,111.546 62.397,110.846 		"/>
		<polyline class="st1" points="63.855,111.332 53.653,139.286 53.483,141.822 52.857,143.074 52.894,143.884 52.268,145.357 
			53.115,145.541 53.263,146.278 54.957,146.646 		"/>
		<polyline class="st1" points="57.49,147.332 55.796,146.964 55.648,146.227 54.801,146.043 55.464,144.385 55.39,143.502 
			56.09,142.139 56.974,142.323 66.293,117.167 66.219,114.773 66.882,112.747 67.545,112.048 		"/>
		<polyline class="st1" points="72.188,112.919 71.525,113.619 70.863,115.645 71.047,117.605 62.03,143.254 61.266,143.01 
			60.566,144.373 60.639,145.257 59.977,146.914 60.824,147.098 60.971,147.835 62.665,148.203 65.324,141.135 		"/>
		<polyline class="st1" points="74.811,113.217 74.148,113.917 73.485,115.943 73.609,118.022 		"/>
		<polyline class="st1" points="69.004,112.533 58.801,140.488 58.632,143.023 58.006,144.275 58.042,145.085 57.416,146.559 
			58.263,146.743 58.411,147.479 60.105,147.848 		"/>
		<polyline class="st1" points="71.047,117.605 74.98,118.38 76.291,115.162 89.7,118.022 88.687,121.121 92.561,121.956 
			90.237,128.69 86.125,127.796 85.111,130.716 88.926,131.61 86.601,138.464 82.489,137.57 81.357,140.609 67.888,137.868 
			69.08,134.888 65.385,134.113 65.445,143.351 64.134,146.628 64.134,147.522 85.588,151.873 93.872,129.226 93.336,128.452 		"/>
		<polyline class="st1" points="67.769,127.379 71.404,128.094 72.596,124.995 68.901,124.22 69.14,127.319 		"/>
		<line class="st1" x1="89.7" y1="118.022" x2="89.998" y2="121.419"/>
		<line class="st1" x1="92.561" y1="121.956" x2="92.919" y2="131.61"/>
		<polyline class="st1" points="90.237,128.69 90.475,138.166 89.425,137.955 		"/>
		<line class="st1" x1="88.926" y1="131.61" x2="89.283" y2="141.563"/>
		<line class="st1" x1="86.601" y1="138.464" x2="86.84" y2="148.238"/>
		<polyline class="st1" points="82.608,137.629 82.966,146.986 81.714,150.204 81.357,140.609 		"/>
		<line class="st1" x1="82.966" y1="146.986" x2="86.84" y2="147.82"/>
		<line class="st1" x1="81.714" y1="150.204" x2="85.876" y2="151.1"/>
		<polyline class="st1" points="64.134,146.628 68.163,147.379 67.888,137.868 		"/>
		<line class="st1" x1="65.406" y1="143.415" x2="68.06" y2="143.967"/>
		<path class="st1" d="M48.233,127.46c0,0,0.358-1.134,1.617-0.995c0,0,1.202,0.166,0.947,1.507l-0.42,1.259
			c0,0-0.343,1.394-1.637,1.042c0,0-1.067-0.017-0.974-1.182L48.233,127.46z"/>
		<path class="st1" d="M45.406,131.222l0.059-2.274c0,0-0.095-0.634,0.761-0.507c0.856,0.127,1.574,0.27,1.574,0.27"/>
		<path class="st1" d="M50.651,129.253l1.845,0.293c0,0,0.539-0.015,0.539,0.568c0,0.583-0.045,2.679-0.045,2.679l-1.28-0.256"/>
		<polyline class="st1" points="50.889,127.972 51.359,128.036 51.325,129.253 		"/>
		<line class="st1" x1="48.687" y1="128.318" x2="49.924" y2="128.557"/>
		<line class="st1" x1="48.861" y1="127.668" x2="50.097" y2="127.906"/>
		
			<ellipse transform="matrix(0.1987 -0.9801 0.9801 0.1987 -107.9455 149.3131)" class="st1" cx="37.336" cy="140.668" rx="1.756" ry="0.597"/>
		<g>
			<path class="st1" d="M134.145,116.079"/>
		</g>
		<g>
			<path class="st1" d="M140.081,116.378"/>
			<path class="st1" d="M140.399,115.55"/>
			<path class="st1" d="M140.718,114.721"/>
		</g>
		<g>
			<path class="st1" d="M140.476,117.38"/>
		</g>
		<g>
			<path class="st1" d="M146.995,116.06"/>
			<path class="st1" d="M147.314,115.231"/>
		</g>
		<g>
			<path class="st1" d="M147.837,116.201"/>
		</g>
		<path class="st1" d="M160.693,123.37"/>
		<polygon class="st1" points="133.853,115.08 132.837,114.847 131.268,119.524 132.343,119.756 		"/>
		<polyline class="st1" points="131.268,119.727 131.326,121.121 132.452,121.368 132.372,119.814 		"/>
		<path class="st1" d="M132.544,121.276"/>
		<path class="st1" d="M161.436,126.729"/>
		<path class="st1" d="M164.586,122.076c0,0-1.135,0.077-1.368,0.903c0,0-0.335,0.852,0.852,0.723c0,0,1.187,0,1.548-0.877
			C165.618,122.824,165.773,121.895,164.586,122.076z"/>
		<path class="st1" d="M161.44,125.551l0.075,2.133c0,0,1.004,0.427,1.205-0.276l0.427-0.954l-0.025-1.686"/>
		<polyline class="st1" points="163.322,126.58 164.753,126.831 165.657,124.346 165.606,122.941 		"/>
		<polyline class="st1" points="164.251,123.794 164.276,125.978 164.979,126.103 		"/>
		<path class="st1" d="M164.352,121.924c0.108-0.888-0.173-0.953-0.173-0.953l-0.714-0.13l-0.123,1.505"/>
		<path class="st1" d="M163.413,123.738l-0.654,2.042c0,0-0.099,0.694-1.209,0.278"/>
		<path class="st1" d="M97.013,110.097c-1.14-0.534-0.675-1.443-0.675-1.443c0.442-0.885,1.629-0.279,1.629-0.279
			s1.303,0.349,0.954,1.536C98.921,109.91,98.852,110.958,97.013,110.097z"/>
		<polyline class="st1" points="99.096,108.962 99.459,108.019 100.819,108.268 100.717,109.873 99.127,114.825 		"/>
		<polyline class="st1" points="99.19,109.936 99.645,110.044 99.156,111.231 98.295,111.045 97.69,112.93 99.066,113.188 		"/>
		<polyline class="st1" points="98.526,111.236 96.705,110.898 96.721,112.171 96.318,112.091 96.302,112.816 97.511,113.042 		"/>
		<path class="st1" d="M98.091,111.494l-0.371,1.064c0,0-0.338,0.516,1.358,0.703l0.048,1.563l-1.052-0.107
			c0,0-0.435-0.016-0.435-0.435s-0.032-1.434-0.032-1.434"/>
		<polygon class="st1" points="127.888,118.966 129.178,119.325 129.178,120.679 127.888,120.32 		"/>
		<polyline class="st1" points="127.921,118.868 129.651,114.167 130.875,114.477 129.178,119.325 		"/>
		<polyline class="st1" points="129.178,120.679 130.826,115.963 130.891,114.543 		"/>
		<circle class="st1" cx="158.776" cy="107.915" r="0.889"/>
		<circle class="st1" cx="127.264" cy="101.625" r="0.889"/>
		<path class="st1" d="M96.197,96.161c-0.491,0-0.889-0.398-0.889-0.889c0-0.491,0.398-0.889,0.889-0.889
			c0.123,0,0.24,0.025,0.346,0.07"/>
		<line class="st1" x1="28.941" y1="156.26" x2="31.4" y2="149.205"/>
	</g>
	<polyline class="st1" points="110.103,181.187 110.879,181.381 111.49,179.745 110.768,179.578 	"/>
	<path class="st1" d="M109.132,184.515l0.677-1.582l0.731,1.446C110.54,184.379,109.977,185.308,109.132,184.515z"/>
	<path class="st1" d="M109.049,184.709l0.055,4.992c0,0,0.629,0.829,1.414,0.111v-5.464"/>
	<path class="st1" d="M114.24,170.65l0.677-1.582l0.731,1.446C115.648,170.514,115.085,171.443,114.24,170.65z"/>
	<path class="st1" d="M114.157,170.844l0.055,3.613c0,0,0.629,0.829,1.414,0.111v-4.084"/>
	<path class="st1" d="M108.883,187.039l-0.915,2.579c0,0-0.555,1.609,1.304,1.997c1.858,0.388,2.357-0.915,2.357-0.915l5.242-14.588
		c0,0,0.277-1.137-1.082-1.664"/>
	<polyline class="st1" points="116.242,177.467 116.059,175.034 114.843,178.196 112.593,177.71 110.434,183.7 	"/>
	<line class="st1" x1="110.556" y1="187.136" x2="113.627" y2="179.017"/>
	<polyline class="st1" points="114.843,178.196 114.934,179.169 112.471,178.713 112.684,181.45 114.661,181.876 	"/>
	<line class="st1" x1="115.755" y1="179.109" x2="115.086" y2="178.957"/>
	<polyline class="st1" points="110.902,178.936 111.511,179.1 111.699,176.827 112.683,177.038 113.339,174.999 113.011,174.928 
		114.213,174.457 	"/>
	<polyline class="st1" points="113.749,185.117 113.783,186.904 121.703,188.555 121.636,186.23 113.951,184.679 	"/>
	<polyline class="st1" points="121.636,186.23 123.255,181.886 124.299,179.084 124.501,179.523 124.771,180.264 124.265,181.275 
		121.703,188.555 	"/>
	<line class="st1" x1="116.64" y1="180.441" x2="123.222" y2="181.757"/>
	<polyline class="st1" points="114.857,184.689 116.715,179.619 116.822,177.894 116.583,177.496 	"/>
	<polygon class="st1" points="123.378,180.973 117.273,179.699 117.22,178.664 117.671,177.549 123.75,178.876 123.325,180.017 	"/>
	<path class="st2" d="M127.307,174.443"/>
	<path class="st2" d="M121.467,175.478v3.494c-0.587,0.536-1.057-0.083-1.057-0.083l-0.041-3.412l0.514-0.584L121.467,175.478z"/>
	<line class="st2" x1="117.406" y1="178.77" x2="123.325" y2="180.017"/>
	<path class="st1" d="M119.1,191.11v-0.919c0,0,0.136-0.442-0.919-0.646s-2.041-0.408-2.041-0.408l-0.748,2.109l-0.068,0.85
		l-0.987,2.79l-0.34,0.136l-0.578,1.905l0.068,0.919"/>
	<path class="st1" d="M114.949,192.709l-2.347-0.51c0,0-0.987-0.034-1.225,0.714c-0.238,0.748-0.442,1.361-0.442,1.361
		s-0.204,0.816,0.748,1.021s2.143,0.442,2.143,0.442"/>
	<path class="st1" d="M113.418,196.928l-1.735-0.408c0,0-1.089-0.272-0.782-1.803"/>
	<path class="st1" d="M104.762,220.507c-0.488,1.396-0.702,2.014-0.702,2.014l2.4,0.509c0,0,0.545,0.109,0.4,0.618
		s-0.509,1.345-0.509,1.345"/>
	<path class="st1" d="M140.614,195.609l-22.425-4.648c0,0-0.991-0.513-1.405,0.676c-0.414,1.189-2.036,5.549-2.036,5.549
		s-0.018,1.045-1.675,0.613l-0.829-0.198c0,0-0.595-0.144-0.847,0.631c-0.252,0.775-4.972,13.458-4.972,13.458
		s-0.252,0.613,0.558,0.775c0,0,0.649,0.054,0.432,0.558c-0.13,0.303-0.842,2.401-1.678,4.788"/>
	<polygon class="st1" points="109.297,213.77 109.205,211.975 112.764,202.485 122.407,204.431 122.498,206.165 118.939,215.716 	
		"/>
	<polyline class="st1" points="136.764,206.469 127.152,204.523 123.624,214.043 123.654,215.808 132.719,217.694 	"/>
	<path class="st1" d="M114.571,194.144l-1.76-0.387c0,0-0.651-0.158-0.827,0.352c-0.176,0.511-0.158,0.528-0.158,0.528l2.13,0.458"
		/>
	<path class="st1" d="M93.692,215.72"/>
	<line class="st1" x1="99.577" y1="223.571" x2="125.525" y2="229.058"/>
	<polyline class="st1" points="93.9,215.4 96.584,215.957 131.025,223.1 	"/>
	<line class="st1" x1="97.796" y1="212.742" x2="96.65" y2="215.675"/>
	<ellipse class="st1" cx="129.109" cy="219.478" rx="1.292" ry="0.867"/>
	<path class="st1" d="M130.29,221.846c0,0.438-0.529,0.792-1.181,0.792s-1.181-0.355-1.181-0.792"/>
	<path class="st1" d="M130.401,219.478v1.481c0,0.479-0.578,0.867-1.292,0.867s-1.292-0.388-1.292-0.867v-1.481"/>
	<line class="st1" x1="129.24" y1="219.19" x2="129.017" y2="219.725"/>
	<line class="st1" x1="128.66" y1="219.346" x2="129.608" y2="219.558"/>
	<path class="st1" d="M109.865,222.595c0,0.438-0.529,0.792-1.181,0.792c-0.652,0-1.181-0.355-1.181-0.792"/>
	<path class="st1" d="M109.976,221.708c0,0.479-0.578,0.867-1.292,0.867c-0.714,0-1.292-0.388-1.292-0.867v-0.606"/>
	<ellipse class="st1" cx="130.622" cy="199.436" rx="1.356" ry="0.963"/>
	<path class="st1" d="M131.929,201.93c0,0.512-0.585,0.928-1.306,0.928c-0.721,0-1.306-0.415-1.306-0.928"/>
	<path class="st1" d="M129.267,199.252v1.559c0,0.532,0.607,0.963,1.356,0.963s1.356-0.431,1.356-0.963v-1.375"/>
	<g>
		<line class="st1" x1="130.504" y1="199.73" x2="130.762" y2="199.098"/>
		<line class="st1" x1="131.221" y1="199.529" x2="130.073" y2="199.27"/>
	</g>
	<polyline class="st1" points="104.061,222.522 104.061,223.196 106.787,223.79 	"/>
	<path class="st1" d="M104.722,220.542"/>
	<path class="st1" d="M105.699,217.819"/>
	<polyline class="st1" points="133.853,115.08 134.016,116.674 132.544,121.276 	"/>
	<g>
		<path class="st1" d="M210.406,51.753l-10.338,28.416l-2.556-0.551c0,0-0.71,0.189-0.947,0.852
			c-0.237,0.663-0.994,2.604-0.994,2.604s-0.615,2.083,1.988,2.604c2.604,0.521,29.919,6.154,29.919,6.154s3.598,0.568,4.876-3.314
			c1.278-3.882,19.732-53.641,19.732-53.641l-33.008-6.961l-4.384,12.05"/>
		<polyline class="st1" points="214.589,42.202 214.569,40.151 213.653,39.992 213.095,41.963 		"/>
		<path class="st1" d="M211.403,49.269l-0.836,2.11l-0.697-0.139l-0.02-1.573l2.787-7.645l6.032,1.354l-2.688,7.903l0.02,1.035
			c0,0,0.438-0.279,0.876-1.513c0.438-1.234,2.887-7.824,2.887-7.824s0.02-0.637-0.438-0.737c-0.458-0.1-3.783-0.796-3.783-0.796
			l-0.299,0.916"/>
		<path class="st1" d="M215.723,52.295c0,0-0.08,0.219-0.995,0.06s-4.141-0.836-4.141-0.836"/>
		<path class="st1" d="M209.95,49.608c0,0,0.779-1.639,3.749-1.035c2.837,0.577,2.229,2.429,2.229,2.429"/>
		<ellipse class="st1" cx="214.618" cy="45.735" rx="2.379" ry="1.819"/>
		<path class="st1" d="M219.478,52.953l15.039,3.102c0,0,1.695,0.325,1.19,1.767c-0.505,1.443-9.052,24.668-9.052,24.668
			s-0.325,2.128-2.921,1.587c-2.597-0.541-14.39-2.921-14.39-2.921s-1.875-0.325-1.262-2.164c0.613-1.839,9.16-24.56,9.16-24.56
			S217.719,52.724,219.478,52.953z"/>
		<path class="st1" d="M241.604,63.24c0,0-0.722,1.52-2.137,1.611l-1.78,0.411c0,0-1.232-0.046-1.734,1.369
			c-0.502,1.414-1.551,4.243-1.551,4.243s-0.502,0.913,0.502,1.688c1.004,0.776,2.555,1.916,2.555,2.145"/>
		<polyline class="st1" points="199.072,86.07 199.193,91.345 199.726,90.376 200.522,88.929 228.631,94.688 		"/>
		<polyline class="st1" points="200.119,90.459 201.77,90.822 201.166,91.909 201.247,93.157 227.02,98.433 227.061,97.305 
			227.745,96.057 228.833,96.258 		"/>
		<polyline class="st1" points="201.005,86.468 201.086,88.003 228.792,93.761 		"/>
		<line class="st1" x1="200.482" y1="89.009" x2="200.24" y2="86.311"/>
		<path class="st1" d="M228.778,91.842l0.151,4.905c0,0,0.878,0.999,1.847,0.273l-0.151-6.026"/>
		<path class="st1" d="M230.201,97.444c0,0,0.061,0.969,0.757,0.727c0.696-0.242,1.575-0.818,1.575-0.818l-0.212-8.599"/>
		<path class="st1" d="M232.788,96.159c0,0,0.669-1.03,0.669-1.493s-0.154-2.626-0.154-2.626l1.442-3.399l-0.257-3.244l0.412-0.978
			l-0.824-0.772c0,0-1.236-0.206-0.618-1.802s1.493-0.978,1.493-0.978"/>
		<polyline class="st1" points="234.016,94.057 244.685,65.575 245.391,64.782 249.976,52.436 249.8,50.761 251.282,47.019 
			251.243,45.929 250.969,38.229 		"/>
		<polyline class="st1" points="251.439,45.736 252.377,43.14 252.086,34.877 		"/>
		<path class="st1" d="M251.684,35.447l-2.29-0.5c0,0-1.29-0.263-1.527,0.579c-0.237,0.842-1.185,3.37-1.185,3.37
			s-0.263,1.079,0.237,1.764c0.5,0.684,1.106,1.395,0.684,2.501s-1.158,2.132,0.263,2.448"/>
		<ellipse class="st1" cx="249.42" cy="36.513" rx="0.895" ry="0.698"/>
	</g>
	<g>
		<path class="st1" d="M221.102,216.099l2.433-6.713c0,0,0.755-1.259-1.343-1.678c-2.098-0.42-5.118-1.175-5.118-1.175l8.978-23.914
			l-1.93-0.503c0,0-1.51-0.252-0.671-2.433s11.999-32.388,11.999-32.388s0.503-1.007,1.762-0.671s3.608,0.839,3.608,0.839
			s1.846,0.336,2.368-1.75l5.295-14.373c0,0,0.284-1.513,2.175-1.04l62.41,12.86c0,0,2.364,0.095,1.608,2.459
			s-30.259,82.74-30.259,82.74l-1.418-0.473l-2.08,6.241l-7.187-1.702l0.189,6.808l-4.633-1.04"/>
		<path class="st1" d="M280.377,234.016l-0.146-3.876c0.585-1.902-0.878-2.121-0.878-2.121s-54.413-11.19-57.192-11.848
			c-2.779-0.658-2.779,1.755-2.779,1.755l0.219,3.437l6.143,1.316l0.219,4.096c0,0-1.024-0.146-0.731,2.34l1.609,0.293"/>
		<line class="st1" x1="219.674" y1="217.779" x2="280.231" y2="230.139"/>
		<polygon class="st1" points="226.993,226.316 227.101,230.549 246.424,234.566 246.261,230.278 		"/>
		<polyline class="st1" points="236.545,228.704 236.763,232.286 238.228,228.758 		"/>
		<line class="st1" x1="227.644" y1="230.658" x2="229.164" y2="226.804"/>
		<polygon class="st1" points="248.921,230.821 249.084,235.109 268.189,239.017 268.189,234.837 		"/>
		<polyline class="st1" points="258.528,233.263 258.799,236.683 260.211,233.372 		"/>
		<line class="st1" x1="249.464" y1="235.38" x2="250.875" y2="231.635"/>
		<polyline class="st1" points="227.334,226.249 227.194,224.988 227.521,224.287 247.321,228.584 247.601,232.833 246.424,234.566 
					"/>
		<polyline class="st1" points="248.921,230.821 248.815,229.611 249.282,228.817 269.27,233.16 269.55,237.083 268.476,238.951 		
			"/>
		<line class="st1" x1="246.261" y1="230.278" x2="247.274" y2="228.911"/>
		<line class="st1" x1="268.189" y1="234.837" x2="269.176" y2="233.674"/>
		<line class="st1" x1="247.228" y1="233.767" x2="248.769" y2="234.094"/>
		<polygon class="st1" points="230.214,180.884 238.561,158.485 261.556,163.169 261.812,167.427 253.295,189.997 230.385,185.312 
					"/>
		<polygon class="st1" points="272.969,163.51 296.049,168.194 296.219,172.452 287.873,194.936 264.792,190.337 264.367,186.164 		
			"/>
		<g>
			<ellipse class="st1" cx="228.6" cy="200.865" rx="3.187" ry="2.318"/>
			<path class="st1" d="M231.712,206.157c0.049,0.162,0.075,0.33,0.075,0.503c0,1.28-1.427,2.318-3.187,2.318
				c-1.76,0-3.188-1.038-3.188-2.318c0-0.16,0.022-0.316,0.065-0.467"/>
			<path class="st1" d="M225.412,201.386v2.956c0,1.28,1.427,2.318,3.188,2.318c1.76,0,3.187-1.038,3.187-2.318v-3.477"/>
			<g>
				<line class="st1" x1="228.954" y1="199.766" x2="228.284" y2="201.758"/>
				<line class="st1" x1="227.379" y1="200.527" x2="229.914" y2="201.088"/>
			</g>
		</g>
		<g>
			<ellipse class="st1" cx="277.548" cy="199.4" rx="3.187" ry="2.318"/>
			<path class="st1" d="M280.661,204.693c0.049,0.162,0.075,0.33,0.075,0.503c0,1.28-1.427,2.318-3.188,2.318
				s-3.188-1.038-3.188-2.318c0-0.16,0.022-0.316,0.065-0.467"/>
			<path class="st1" d="M274.361,199.922v2.956c0,1.28,1.427,2.318,3.188,2.318s3.188-1.038,3.188-2.318V199.4"/>
			<g>
				<line class="st1" x1="277.903" y1="198.302" x2="277.233" y2="200.294"/>
				<line class="st1" x1="276.328" y1="199.063" x2="278.863" y2="199.624"/>
			</g>
		</g>
		<g>
			<ellipse class="st1" cx="281.237" cy="150.939" rx="3.187" ry="2.318"/>
			<path class="st1" d="M284.349,156.232c0.049,0.162,0.075,0.33,0.075,0.503c0,1.28-1.427,2.318-3.188,2.318
				c-1.76,0-3.187-1.038-3.187-2.318c0-0.16,0.022-0.316,0.065-0.467"/>
			<path class="st1" d="M278.05,151.461v2.956c0,1.28,1.427,2.318,3.187,2.318c1.76,0,3.188-1.038,3.188-2.318v-3.477"/>
			<g>
				<line class="st1" x1="281.592" y1="149.841" x2="280.922" y2="151.833"/>
				<line class="st1" x1="280.016" y1="150.602" x2="282.551" y2="151.163"/>
			</g>
		</g>
	</g>
	<ellipse class="st3" cx="290.348" cy="98.861" rx="12.054" ry="9.356"/>
	<ellipse class="st3" cx="290.212" cy="98.693" rx="8.333" ry="6.343"/>
	<path class="st1" d="M301.287,116.53c0.65,1.124,1.011,2.371,1.011,3.684c0,4.975-5.196,9.008-11.606,9.008
		s-11.606-4.033-11.606-9.008c0-1.071,0.241-2.098,0.682-3.05"/>
	<path class="st1" d="M299.073,119.373c0,3.543-3.701,6.416-8.266,6.416c-4.565,0-8.266-2.872-8.266-6.416"/>
	<path class="st3" d="M278.294,98.861v12.054c0,5.167,5.397,9.356,12.054,9.356s12.054-4.189,12.054-9.356V98.861"/>
	<line class="st1" x1="291.349" y1="95.089" x2="288.905" y2="102.324"/>
	<line class="st1" x1="285.581" y1="97.289" x2="294.869" y2="99.196"/>
	<line class="st1" x1="281.406" y1="106.738" x2="281.406" y2="114.934"/>
	<line class="st1" x1="282.877" y1="108.262" x2="282.877" y2="116.457"/>
	<line class="st1" x1="284.296" y1="109.05" x2="284.296" y2="117.245"/>
	<line class="st1" x1="285.714" y1="109.575" x2="285.714" y2="117.77"/>
	<line class="st1" x1="296.694" y1="108.84" x2="296.694" y2="117.035"/>
	<line class="st1" x1="298.112" y1="107.789" x2="298.112" y2="115.984"/>
	<line class="st1" x1="299.321" y1="107.158" x2="299.321" y2="115.354"/>
	<line class="st1" x1="300.424" y1="106.265" x2="300.424" y2="114.461"/>
	<g>
		<polygon class="st4" points="231.325,10.483 243.855,23.806 237.601,22.698 237.811,43.684 225.478,41.503 225.267,20.515 
			219.013,19.41 		"/>
	</g>
	<g>
		<polygon class="st5" points="255.852,114.33 268.383,127.653 262.128,126.545 262.339,147.531 250.005,145.35 249.795,124.362 
			243.54,123.257 		"/>
	</g>
	<polyline class="st6" points="136.413,185.829 136.413,136.691 210.345,136.691 210.345,98.035 	"/>
	<polyline class="st7" points="136.413,185.829 136.413,136.691 210.345,136.691 210.345,98.035 	"/>
	<g>
		<g>
			<path class="st5" d="M277.319,93.496c0,0,1.627-2.761,4.452-5.586c2.261-2.259,5.171-3.672,5.171-3.672s-1.742-1.079-4.346-4.31
				c-3.684-4.571-5.277-8.881-5.277-8.881v6.072c-3.604-1.685-4.804-4.535-4.804-4.535v9.892c0,3.937,4.804,6.485,4.804,6.485
				V93.496z"/>
			<path class="st5" d="M303.323,65.578c-1.136-1.099-2.677-2.042-4.478-2.789v11.726c1.003,0.409,1.918,0.875,2.721,1.393
				c0.632-0.461,1.228-0.959,1.758-1.489V65.578z"/>
			<path class="st5" d="M304.39,73.166c0.654-0.935,1.067-1.966,1.067-3.114c0-1.14-0.393-2.211-1.067-3.202V73.166z"/>
			<path class="st5" d="M297.777,74.109c-1.834-0.622-3.957-1.043-6.32-1.22V61.063c2.259,0.197,4.414,0.646,6.32,1.316V74.109z"/>
			<path class="st5" d="M290.389,72.829c-0.455-0.016-0.909-0.04-1.38-0.04c-3.576,0-6.694,0.578-9.258,1.541
				c-2.063-3.347-3.038-6.168-3.038-6.168v7.641c-0.056,0.036-0.12,0.068-0.177,0.104c-1.982-1.28-3.979-3.299-3.979-5.855
				c0-5.213,7.607-9.101,16.451-9.101c0.461,0,0.923,0.016,1.38,0.04V72.829z"/>
			<path class="st5" d="M302.059,76.377c-0.668,0.433-1.416,0.843-2.279,1.244v11.718c0.807-0.377,1.577-0.831,2.279-1.332V76.377z"
				/>
			<path class="st5" d="M303.146,87.143c1.621-1.441,2.681-3.158,2.681-4.828V72.099c-0.734,1.485-1.581,2.568-2.681,3.483V87.143z"
				/>
		</g>
	</g>
	<line class="st8" x1="131.933" y1="212.504" x2="219.89" y2="186.679"/>
	<line class="st1" x1="131.559" y1="212.504" x2="219.516" y2="186.679"/>
	<g>
		<g>
			<path class="st9" d="M217.16,18.187c0,7.593-6.246,13.745-13.95,13.745c-7.707,0-13.953-6.152-13.953-13.745
				c0-7.596,6.246-13.755,13.953-13.755C210.914,4.432,217.16,10.591,217.16,18.187"/>
		</g>
		<g>
			<path class="st10" d="M204.807,25.228h-1.846V13.467c-0.444,0.424-1.027,0.848-1.749,1.271s-1.369,0.742-1.943,0.954v-1.784
				c1.032-0.485,1.935-1.073,2.707-1.764s1.319-1.36,1.641-2.01h1.189V25.228z"/>
		</g>
	</g>
	<g>
		<g>
			<path class="st9" d="M332.791,57.175c0,7.593-6.246,13.745-13.95,13.745c-7.707,0-13.953-6.152-13.953-13.745
				c0-7.596,6.246-13.755,13.953-13.755C326.545,43.42,332.791,49.579,332.791,57.175"/>
		</g>
		<g>
			<path class="st10" d="M323.631,62.443v1.774h-9.936c-0.014-0.444,0.058-0.872,0.215-1.282c0.253-0.677,0.658-1.343,1.216-2
				c0.557-0.656,1.361-1.415,2.414-2.276c1.634-1.34,2.738-2.401,3.312-3.184s0.861-1.523,0.861-2.22
				c0-0.731-0.262-1.348-0.784-1.851c-0.523-0.502-1.205-0.753-2.046-0.753c-0.889,0-1.6,0.267-2.133,0.8s-0.804,1.271-0.811,2.215
				l-1.896-0.195c0.13-1.415,0.618-2.493,1.466-3.235c0.848-0.741,1.986-1.112,3.415-1.112c1.442,0,2.584,0.4,3.425,1.2
				s1.261,1.791,1.261,2.974c0,0.602-0.123,1.193-0.369,1.774s-0.654,1.193-1.225,1.835c-0.571,0.643-1.52,1.524-2.846,2.646
				c-1.107,0.93-1.818,1.561-2.133,1.892s-0.574,0.665-0.779,1H323.631z"/>
		</g>
	</g>
	<polygon class="st10" points="67.818,131.815 68.846,130.074 72.006,139.985 	"/>
	<g>
		<g>
			<path class="st9" d="M248.663,149.226c0,7.593-6.246,13.745-13.95,13.745c-7.707,0-13.953-6.152-13.953-13.745
				c0-7.596,6.246-13.755,13.953-13.755C242.417,135.471,248.663,141.63,248.663,149.226"/>
		</g>
		<g>
			<path class="st10" d="M229.968,152.254l1.846-0.246c0.212,1.046,0.572,1.799,1.082,2.261c0.509,0.461,1.129,0.692,1.861,0.692
				c0.868,0,1.601-0.301,2.2-0.902c0.598-0.602,0.897-1.347,0.897-2.235c0-0.848-0.277-1.547-0.831-2.098
				c-0.554-0.55-1.258-0.825-2.112-0.825c-0.349,0-0.783,0.068-1.302,0.205l0.205-1.62c0.123,0.014,0.222,0.021,0.297,0.021
				c0.786,0,1.494-0.205,2.123-0.615s0.943-1.042,0.943-1.896c0-0.677-0.229-1.237-0.687-1.682s-1.049-0.667-1.774-0.667
				c-0.718,0-1.316,0.226-1.794,0.677s-0.786,1.128-0.923,2.03l-1.846-0.328c0.226-1.237,0.738-2.195,1.538-2.876
				c0.8-0.68,1.794-1.021,2.984-1.021c0.82,0,1.576,0.177,2.266,0.528c0.69,0.353,1.219,0.832,1.584,1.44
				c0.366,0.608,0.549,1.255,0.549,1.938c0,0.649-0.174,1.24-0.522,1.773s-0.865,0.957-1.549,1.271
				c0.889,0.205,1.579,0.631,2.071,1.276c0.492,0.646,0.738,1.455,0.738,2.426c0,1.312-0.479,2.425-1.436,3.337
				c-0.957,0.913-2.167,1.369-3.63,1.369c-1.319,0-2.415-0.393-3.286-1.179C230.588,154.523,230.091,153.505,229.968,152.254z"/>
		</g>
	</g>
	<g>
		<path class="st11" d="M307.72,119.278l3.031-4.312l-2.805-3.984h1.758l1.273,1.945c0.239,0.37,0.432,0.68,0.578,0.93
			c0.229-0.344,0.439-0.648,0.633-0.914l1.398-1.961h1.68l-2.867,3.906l3.086,4.391h-1.727l-1.703-2.578l-0.453-0.695l-2.18,3.273
			H307.72z"/>
		<path class="st11" d="M317.52,116.254l1.406-0.188c0.161,0.797,0.436,1.371,0.824,1.723c0.388,0.352,0.86,0.527,1.418,0.527
			c0.661,0,1.22-0.229,1.676-0.688c0.455-0.458,0.684-1.026,0.684-1.703c0-0.646-0.211-1.178-0.633-1.598
			c-0.422-0.419-0.959-0.629-1.609-0.629c-0.266,0-0.597,0.052-0.992,0.156l0.156-1.234c0.094,0.011,0.169,0.016,0.227,0.016
			c0.599,0,1.138-0.156,1.617-0.469c0.479-0.312,0.719-0.794,0.719-1.445c0-0.516-0.175-0.942-0.523-1.281
			c-0.35-0.338-0.8-0.508-1.352-0.508c-0.547,0-1.003,0.172-1.367,0.516c-0.365,0.344-0.6,0.859-0.703,1.547l-1.406-0.25
			c0.172-0.942,0.562-1.673,1.172-2.191c0.609-0.518,1.367-0.777,2.273-0.777c0.625,0,1.2,0.134,1.727,0.402
			c0.525,0.269,0.928,0.634,1.207,1.098c0.278,0.464,0.418,0.956,0.418,1.477c0,0.495-0.133,0.945-0.398,1.352
			s-0.659,0.729-1.18,0.969c0.677,0.156,1.203,0.48,1.578,0.973s0.562,1.108,0.562,1.848c0,1-0.365,1.848-1.094,2.543
			c-0.729,0.695-1.651,1.043-2.766,1.043c-1.006,0-1.84-0.299-2.504-0.898C317.992,117.984,317.613,117.207,317.52,116.254z"/>
	</g>
	<line class="st12" x1="286.939" y1="131.16" x2="281.914" y2="146.235"/>
	<line class="st1" x1="286.939" y1="131.16" x2="281.914" y2="146.235"/>
	<line class="st12" x1="294.231" y1="130.843" x2="279.998" y2="194.488"/>
	<line class="st1" x1="294.231" y1="130.843" x2="279.998" y2="194.488"/>
	<line class="st12" x1="280.535" y1="128.695" x2="232.734" y2="198.248"/>
	<line class="st1" x1="280.535" y1="128.695" x2="232.734" y2="198.248"/>
</g>
</svg>
