<?xml version="1.0" encoding="utf-8"?>
<!-- Generator: Adobe Illustrator 26.5.0, SVG Export Plug-In . SVG Version: 6.00 Build 0)  -->
<svg version="1.1" xmlns="http://www.w3.org/2000/svg" xmlns:xlink="http://www.w3.org/1999/xlink" x="0px" y="0px"
	 viewBox="0 0 382.5 208.3" style="enable-background:new 0 0 382.5 208.3;" xml:space="preserve">
<style type="text/css">
	.st0{fill:none;stroke:#000000;stroke-width:0.5;stroke-linecap:round;stroke-linejoin:round;stroke-miterlimit:10;}
	.st1{fill:none;stroke:#000000;stroke-width:0.5;stroke-linecap:round;stroke-linejoin:round;}
	.st2{font-family:'Arial-BoldMT';}
	.st3{font-size:4.6807px;}
	.st4{fill:none;stroke:#000000;stroke-width:0.5471;stroke-linecap:round;stroke-linejoin:round;stroke-miterlimit:10;}
	.st5{fill:none;stroke:#000000;stroke-width:0.5101;stroke-linecap:round;stroke-linejoin:round;stroke-miterlimit:10;}
	.st6{fill:none;stroke:#000000;stroke-width:0.5507;stroke-linecap:round;stroke-linejoin:round;stroke-miterlimit:10;}
	.st7{fill:#D1D3D4;}
	.st8{font-size:4.5605px;}
	.st9{fill:none;stroke:#000000;stroke-width:0.4229;stroke-linecap:round;stroke-linejoin:round;stroke-miterlimit:10;}
	.st10{fill:none;stroke:#D0CFCD;stroke-width:0.5357;stroke-linecap:round;stroke-linejoin:round;stroke-miterlimit:10;}
	.st11{stroke:#FFFFFF;stroke-width:0.4229;stroke-linecap:round;stroke-linejoin:round;stroke-miterlimit:10;}
	.st12{fill:none;stroke:#000000;stroke-width:0.5;stroke-miterlimit:10;}
	.st13{stroke:#FFFFFF;stroke-width:0.8457;stroke-linecap:round;stroke-linejoin:round;stroke-miterlimit:10;}
	.st14{clip-path:url(#SVGID_00000009583019434796992070000017353827326227372691_);}
	.st15{fill:#FFFFFF;stroke:#000000;stroke-width:0.5;stroke-miterlimit:10;}
	.st16{fill:#FFFFFF;stroke:#000000;stroke-width:0.5;stroke-linecap:round;stroke-linejoin:round;stroke-miterlimit:10;}
	.st17{font-size:13.0325px;}
	.st18{stroke:#FFFFFF;stroke-width:0.5;stroke-linecap:round;stroke-linejoin:round;stroke-miterlimit:10;}
	.st19{stroke:#FFFFFF;stroke-width:3;stroke-linecap:round;stroke-linejoin:round;stroke-miterlimit:10;}
	.st20{stroke:#000000;stroke-width:0.75;stroke-linecap:round;stroke-linejoin:round;stroke-miterlimit:10;}
	.st21{stroke:#FFFFFF;stroke-width:1.5;stroke-linecap:round;stroke-linejoin:round;stroke-miterlimit:10;}
	.st22{fill-rule:evenodd;clip-rule:evenodd;fill:#010101;stroke:#FFFFFF;stroke-miterlimit:10;}
	.st23{fill:#FFFFFF;}
	.st24{font-family:'Helvetica';}
	.st25{font-size:20.8793px;}
</style>
<g id="Unit">
	<g>
		<g>
			<path class="st0" d="M61.8,108.6c0,0,0-0.6,0-1.6c0-1.1,1.2-1.6,1.2-1.6s7-3.7,7.4-3.8s0.6-0.2,1.1-0.1s0.8-0.2,0.9-0.6
				c0.1-0.4,1.2-0.9,1.2-0.9L185.2,44c0,0,0.7-0.5,1.3-0.1c0.6,0.5,2.1,1.4,2.1,1.4s0.3,0.2,0.6-0.1c0.2-0.2,0.6-0.7,0.4-1.2
				l-0.7-0.5c0,0-0.2-0.6,0-1c0.2-0.4,0.5-0.8,0.9-0.8c0.4,0,3.1-0.2,3.1-0.2s0.7,0.2,0.8,0.6l0,3.3c0,0,0.1,0.5-0.4,0.8
				c-0.5,0.2-44.9,22.4-44.9,22.4"/>
			<path class="st0" d="M161,110.8c0,0-0.1-7.2,0-8.8c0.1-1.6,1.6-2.1,1.6-2.1l24.9-12.6l-6.9-3.5l6.1-3.1c0,0-22.9-11.4-23.9-12
				c-1-0.5-2.2,0-2.2,0l-6.1,3l-7.1-3.5L124.1,80c0,0-2.2,0.9-2.2,2.5l0.1,1.1"/>
			<path class="st0" d="M162.1,99.7l-6.6-3.4l-6.8,3.4c0,0-1.1,0.6-1.1,1.8s0,3.1,0,3.1"/>
			<path class="st0" d="M123.1,80.7l6.6,3.3l-5.8,3.1l0,0.5c0,0-0.8,0.7-0.8,1.9c0,1,0.1,6.9,0.1,6.9"/>
			<line class="st0" x1="124.3" y1="87" x2="149.1" y2="99.5"/>
			<polyline class="st0" points="177.3,105.8 188.6,100.1 188.7,98.9 194.9,95.8 			"/>
			<path class="st0" d="M184,85.3c0.5-0.4,1.4-0.6,2.4-0.6c1.7,0,3,0.7,3,1.5c0,0.6-0.6,1.1-1.6,1.3"/>
			<path class="st0" d="M188.3,89.2c0.7-0.3,1.1-0.7,1.1-1.2v-1.6"/>
			<path class="st0" d="M188.2,97.6v-9.1c0,0,0.1-1-0.9-1.1"/>
			<path class="st0" d="M188.7,88.9c0.3,0.2,0.5,0.4,0.5,0.7c0,0.4-0.4,0.8-1.1,1"/>
			<path class="st0" d="M188.7,90.8c0.3,0.2,0.5,0.4,0.5,0.7c0,0.4-0.4,0.8-1.1,1"/>
			<path class="st0" d="M188.7,92.6c0.3,0.2,0.5,0.4,0.5,0.7c0,0.4-0.4,0.8-1.1,1"/>
			<g>
				<ellipse class="st0" cx="153.8" cy="100.3" rx="3" ry="1.5"/>
				<path class="st0" d="M150.8,100.3v1.7c0,0.8,1.4,1.5,3,1.5c1.7,0,3-0.7,3-1.5v-1.6"/>
				<path class="st0" d="M156.4,102.9c0.3,0.3,0.4,0.6,0.4,0.9c-0.1,0.8-1.6,1.3-3.2,1.1c-1.7-0.2-2.9-1.1-2.8-1.9
					c0-0.1,0.1-0.2,0.1-0.4"/>
				<path class="st0" d="M156.8,109.6c0,0.1,0.1,0.2,0.1,0.3c0,0.8-1.4,1.5-3,1.5c-1.7,0-3-0.7-3-1.5c0-0.2,0.1-0.4,0.3-0.6"/>
				<path class="st0" d="M156.2,108.3c0.4,0.3,0.7,0.8,0.6,1.1c-0.1,0.8-1.6,1.3-3.2,1c-1.7-0.3-2.9-1.2-2.7-2
					c0.1-0.3,0.3-0.6,0.7-0.8"/>
				<path class="st0" d="M156.2,106.4c0.4,0.3,0.6,0.7,0.5,1.1c-0.1,0.8-1.6,1.3-3.2,1c-1.7-0.3-2.9-1.2-2.7-2
					c0-0.3,0.2-0.5,0.5-0.7"/>
				<path class="st0" d="M156.2,104.6c0.4,0.3,0.6,0.7,0.6,1.1c-0.1,0.8-1.6,1.3-3.2,1c-1.7-0.3-2.9-1.2-2.7-2
					c0-0.3,0.2-0.5,0.5-0.7"/>
			</g>
			<g>
				<path class="st0" d="M126.8,122.3c-1.1,0-2-0.4-2-1s0.9-1,2-1c1.1,0,2,0.4,2,1"/>
				<path class="st0" d="M124.8,121.4v1.1c0,0.5,0.9,1,2,1"/>
				<path class="st0" d="M126.7,124.1c-0.8-0.1-1.5-0.5-1.4-0.9"/>
				<path class="st0" d="M126.8,126.8c-0.8,0-1.5-0.3-1.5-0.7c0-0.1,0.1-0.2,0.1-0.3"/>
				<path class="st0" d="M126.6,125.9c-0.8-0.1-1.4-0.6-1.4-1c0-0.1,0.1-0.2,0.3-0.3"/>
				<path class="st0" d="M126.6,125c-0.8-0.1-1.4-0.6-1.4-1c0-0.1,0.1-0.2,0.3-0.3"/>
			</g>
			<g>
				<ellipse class="st0" cx="123.5" cy="85.1" rx="3" ry="1.5"/>
				<path class="st0" d="M120.5,85.1v1.7c0,0.8,1.3,1.5,2.8,1.5"/>
				<ellipse class="st0" cx="155.9" cy="68.8" rx="3" ry="1.5"/>
				<line class="st0" x1="152.9" y1="68.8" x2="152.9" y2="70.5"/>
				<path class="st0" d="M123.2,89.6c-1.6-0.3-2.8-1.1-2.7-1.9c0-0.1,0.1-0.2,0.1-0.4"/>
				<path class="st0" d="M123.2,96.2c-1.5-0.1-2.7-0.7-2.7-1.5c0-0.2,0.1-0.4,0.3-0.6"/>
				<path class="st0" d="M123.2,95.2c-1.7-0.3-2.9-1.2-2.7-2c0.1-0.3,0.3-0.6,0.7-0.8"/>
				<path class="st0" d="M123.2,93.3c-1.7-0.3-2.9-1.2-2.7-2c0-0.3,0.2-0.5,0.5-0.7"/>
				<path class="st0" d="M123.2,91.5c-1.7-0.3-2.9-1.2-2.7-2c0-0.3,0.2-0.5,0.5-0.7"/>
			</g>
			<polygon class="st0" points="103.9,106.2 122.5,115.6 126.6,113.6 130.4,115.6 149.8,105.8 131.1,96.6 127.2,98.5 123.3,96.5 			
				"/>
			<line class="st0" x1="103.9" y1="106.2" x2="103.9" y2="114.7"/>
			<line class="st0" x1="149.8" y1="105.8" x2="149.9" y2="111.9"/>
			<line class="st0" x1="122.5" y1="115.6" x2="122.6" y2="125.6"/>
			<line class="st0" x1="130.4" y1="115.6" x2="130.4" y2="120.9"/>
			<line class="st0" x1="126.6" y1="113.6" x2="126.6" y2="120.3"/>
			<polyline class="st0" points="87.3,111 91.5,108.9 105,115.6 100.7,117.7 			"/>
			<line class="st0" x1="105" y1="120" x2="105" y2="115.6"/>
			<line class="st0" x1="155.6" y1="96.4" x2="155.6" y2="98.9"/>
			<line class="st0" x1="156.5" y1="108.6" x2="161" y2="110.9"/>
			<line class="st0" x1="177.4" y1="65.1" x2="189.7" y2="58.9"/>
			<line class="st0" x1="193.1" y1="46.4" x2="193.1" y2="55.5"/>
			<polyline class="st0" points="221.8,59.6 202.9,50.2 197.1,53.1 196.7,53.8 189.7,57.4 189.7,63.9 195.4,66.7 196.1,66.4 			"/>
			<polyline class="st0" points="195.3,66.5 195.3,60.2 202.5,56.5 203.7,56.3 209.3,53.6 			"/>
			<polyline class="st0" points="203.7,56.3 203.3,57 196.2,60.6 196.2,67.2 201.9,70 202.6,69.6 			"/>
			<polyline class="st0" points="216,56.7 210.1,59.8 209.1,59.8 201.9,63.4 201.8,69.9 			"/>
			<line class="st0" x1="196.3" y1="60.6" x2="201.9" y2="63.4"/>
			<line class="st0" x1="189.8" y1="57.3" x2="195.2" y2="60.1"/>
			<polyline class="st0" points="210.1,59.8 209.8,60.3 202.9,63.9 202.8,70.5 208.3,73.1 			"/>
			<line class="st0" x1="202.9" y1="63.9" x2="208.2" y2="66.6"/>
			<polyline class="st0" points="208.4,75.2 208.5,66.7 223,59.4 228,61.9 213.5,69.2 213.5,77.4 			"/>
			<line class="st0" x1="208.5" y1="66.7" x2="213.5" y2="69.2"/>
			<path class="st0" d="M228,61.9c0,0,0.8,0.3-0.8,3.6"/>
			<polyline class="st0" points="235.6,66.5 230.5,64 224.7,66.8 224.4,67.5 217.2,71.1 217.2,75.6 			"/>
			<polyline class="st0" points="243.2,72.7 243.1,68.6 237.4,65.9 223.3,72.9 223.2,77.9 			"/>
			<polyline class="st0" points="228.8,80.9 228.8,75.7 243.1,68.6 			"/>
			<line class="st0" x1="217.4" y1="71.2" x2="223.2" y2="74"/>
			<line class="st0" x1="223.3" y1="72.9" x2="228.8" y2="75.7"/>
			<line class="st0" x1="207.9" y1="75" x2="213.2" y2="77.8"/>
			<polygon class="st0" points="199.7,84.6 217.8,75.5 235.8,84.5 217.7,93.7 			"/>
			<polyline class="st0" points="199.7,84.6 199.7,96.4 209,101.1 			"/>
			<line class="st0" x1="217.7" y1="93.7" x2="217.8" y2="96.9"/>
			<line class="st0" x1="236" y1="84.5" x2="236" y2="89.2"/>
			<polyline class="st0" points="211.6,78.6 186,65.6 181,68.2 			"/>
			<polyline class="st0" points="206.3,80.9 178.4,67.1 169,71.8 			"/>
			<polyline class="st0" points="265.1,85.3 265.1,81.3 245.5,71.5 239.7,74.4 239.4,75.1 232.2,78.7 232.2,82.4 			"/>
			<polyline class="st0" points="236.1,87.2 237.8,87.9 237.8,81.3 232.2,78.7 			"/>
			<polyline class="st0" points="252,74.8 246.4,77.6 245.1,77.7 237.8,81.3 			"/>
			<polyline class="st0" points="246.2,77.6 245.9,78.2 238.8,81.9 238.8,87.9 			"/>
			<polyline class="st0" points="258.5,78 252.8,80.9 251.5,81 244.4,84.7 238.8,81.9 			"/>
			<line class="st0" x1="244.4" y1="86.7" x2="244.4" y2="84.7"/>
			<polyline class="st0" points="245.2,87.4 245.2,85.1 252,81.8 252.8,80.9 			"/>
			<polyline class="st0" points="245.2,85.1 251,87.9 258.1,84.3 259.4,84.1 264.8,81.3 			"/>
			<polyline class="st0" points="279.5,93.1 279.5,91.9 267.3,85.4 261.5,85.5 256.5,87.9 253.8,86.5 			"/>
			<path class="st0" d="M279.5,91.9l-21.2,11l-0.8-0.5l-10.8,5.4l-1.2-0.7c0,0-0.5-0.3-1.4,0.2c-1,0.6-10.8,5.4-10.8,5.4
				s-1.1,0.4-0.2,0.8c0.9,0.4,0.8,0.5,0.8,0.5s0.4,0.1,0.3,1.1l0,0.8"/>
			<path class="st0" d="M251,87.9l-15,7.7c0,0-0.6,0.5-1,1.4c-0.4,0.9-2,3.7-2,3.7s-0.1,0.3-1.2,0.9c-1,0.6-32.8,16.5-32.8,16.5
				l0.1,1.2c0,0,3.5,1.7,4.8,2.6c1.3,0.9,2.7-0.2,2.7-0.2l66.3-33.4"/>
			<line class="st0" x1="20.6" y1="130.5" x2="52.7" y2="114.4"/>
			<line class="st0" x1="29.3" y1="143" x2="53.6" y2="131"/>
			<polygon class="st0" points="107,128.7 114.6,125 71.1,103.2 63.5,106.9 			"/>
			<path class="st0" d="M63.2,108.7c0,0,0.4-0.8,1.3-0.3c0.9,0.5,41.5,20.8,41.5,20.8s1,0.5,1,2.1c0,1.7,0,14.5,0,14.5
				s-0.1,1.6-1.2,1.1c-1.1-0.5-41.5-20.7-41.5-20.7"/>
			<line class="st0" x1="140" y1="165.3" x2="63.7" y2="127.2"/>
			<line class="st0" x1="111" y1="179.8" x2="148.3" y2="161.3"/>
			<line class="st0" x1="148.9" y1="162.4" x2="111.2" y2="181.4"/>
			<line class="st0" x1="148.8" y1="177.6" x2="111.2" y2="196.6"/>
			<polyline class="st0" points="147.1,178.5 149,179.2 158.3,174.5 159.1,174.8 167.8,170.4 168.9,168.5 171.1,167.4 173.6,167.6 
				290.6,109.1 290.6,102.9 288.3,99.6 288.3,95 			"/>
			<path class="st0" d="M168.7,168.7v-4.9c0,0,0.4-2.9,2.4-3.6c0,0,1.7-0.5,1.8,1.1v6"/>
			<path class="st0" d="M149,179v-17.1c0,0-0.5-1.1-2.1-1.3v1.2"/>
			<path class="st0" d="M149,161.9l9.6-4.8c0,0-0.5-1.1-2.1-1.3l-9.6,4.8"/>
			<path class="st0" d="M159.6,174.5l-0.1-17.4l7.7-3.9c0,0,1.3-0.9,2.2-0.2c1,0.8,1.6,1.4,3,0.8s1.4-0.7,1.4-0.7"/>
			<path class="st0" d="M173.2,152.1c0.8,0.4,0.8,1.7,0.8,1.7v2.4c0,0,0.1,2.3,2.6,1.3c2.3-1,2.5-3.8,2.5-3.8s0-2.1,0-3
				c0-0.8-0.6-1.3-0.6-1.3c0-1.1-0.9-0.7-0.9-0.7l-3.6,1.9c0,0-0.6,0.3-0.7,1.4"/>
			<line class="st0" x1="159.6" y1="173.1" x2="159.5" y2="154.2"/>
			<path class="st0" d="M173.4,150.7"/>
			<path class="st0" d="M158.7,157v-2.7l8.6-4.1l0.6-1.1l67.4-33.6c0,0,0.7-0.1,0.8,0.5c0.1,0.6,0.3,4.5,0.3,4.5s0.9,0.6,0.8,1.5
				l11.6-5.7c0,0,0.6-0.7-0.1-1.6l0.1-4.9c0,0,0.2-1.1,1-1.5L282.5,92l2.7,1.8c0,0,1.2-0.1,0.9-1.4l-0.7-0.6c0,0-0.4-1.2,1-1.8
				l2.8-0.1c0,0,0.7,0,0.8,0.6l0,3.5l-41.2,20.7"/>
			<line class="st0" x1="179.3" y1="150.5" x2="236.8" y2="121.7"/>
			<line class="st0" x1="105.1" y1="117" x2="126.7" y2="127.8"/>
			<path class="st0" d="M126.7,128.9"/>
			<path class="st0" d="M105.2,118.3"/>
			<line class="st0" x1="123" y1="125.8" x2="125.2" y2="124.7"/>
			<line class="st0" x1="132.6" y1="131.3" x2="138.2" y2="128.5"/>
			<line class="st0" x1="126.2" y1="134.6" x2="127.8" y2="133.8"/>
			<path class="st0" d="M146.3,156.5"/>
			<polyline class="st0" points="156.5,155.7 156.5,153.3 159,152 161,153 			"/>
			<line class="st0" x1="158.7" y1="154.4" x2="156.5" y2="153.3"/>
			<line class="st0" x1="85.7" y1="110.5" x2="115.6" y2="95.8"/>
			<polyline class="st0" points="186.6,80.7 187.3,81.1 187.3,84.5 			"/>
			<polyline class="st0" points="189.3,91.5 194.9,94.2 174.6,104.5 			"/>
			<path class="st0" d="M195.1,96.2"/>
			<polygon class="st0" points="198.3,94.7 195.1,96.3 195.1,91.1 198.3,89.5 			"/>
			<line class="st0" x1="195.1" y1="91.1" x2="189.7" y2="88.4"/>
			<polyline class="st0" points="187.4,83.2 196.9,88 199.6,86.7 			"/>
			<polyline class="st0" points="187.4,84.5 196.9,89.3 199.6,87.9 			"/>
			<path class="st0" d="M52,114.2v-0.8l10.3-4.9l1.4,0.6c0,0,0.5,0.3,0.5,1c0,0.6,0,2,0,2l-9.2,4.6l-0.9-0.1v-2c0,0-0.1-1-2.2-1.3"
				/>
			<path class="st0" d="M52.9,131.5l1.3,0.6l10-5.1l-0.1-2l-0.9-0.3l-8.3,4.1c0,0-1,0.5-0.9,1.3l0,1.7"/>
			<path class="st0" d="M9.5,131.2l5.5-2.7c0,0,9.3,1.1,13.7,13.5c0,0,3.8,10.4-2.9,16l-6.2,3c0,0-2,0.3-4.5-0.9l-5.4-2.5
				c0,0-0.8-0.9-0.8-1.9c0-1,0.1-3,0.1-3"/>
			<path class="st0" d="M9,137l-0.1-4.9c0,0,0.3-1.1,2.4-0.9c0,0,9.4,3.5,12.1,13.1c0,0,4.9,10.7-2.2,15.9"/>
			<path class="st0" d="M10.7,142.6v-5.5c0,0,0.5-3.5,3.4-2.8c0,0,7.1,2.5,9.4,15.2c0,0,1.5,8.2-4.8,10.1c0,0-1.7,0.6-3.8-0.2
				s-5.8-3-5.8-3l5.4-2.7"/>
			<line class="st0" x1="15.9" y1="135.3" x2="15.9" y2="140.1"/>
			<path class="st0" d="M9.6,143.4l8.2-4.1c0,0,1.2,0.3,1.1,1.6l-1.1,3.8l-5,2.7l-1.7-3.1C11.1,144.4,10.6,143.3,9.6,143.4z"/>
			<path class="st0" d="M9.6,143.4c0,0-1.7,5.1,0.7,9.9l1.3-0.6c0,0,0-3.3,3-4.2c0,0,1.8-0.6,1.7,1.8l1.3-0.5c0,0,1-3.4,1-7"/>
			<path class="st0" d="M10.7,137.9c0,0,0.5,0.3-2.1-0.8c0,0-4.5-0.2-5.9,6.3v8c0,0,0,3,2.9,3.2c0,0,2.5,0.1,4-2.7"/>
			<path class="st0" d="M14.6,148.6l0.2,5.3c0,0,0.4,0.6,0.9,0.8c0.5,0.2,3.8,1.8,3.8,1.8s1.8,0.6,2.6,0.5"/>
			<path class="st0" d="M10.8,140.4c0,0-1.1,0.2-2.4-0.8c0,0-2.8,0.6-3.3,3.8l0,7.6c0,0,0.2,1.6,1.5,1.1s1.5-1.1,1.5-1.1l1-1.3"/>
			<path class="st0" d="M23,132.7l11-5.5c0,0,1.4-0.5,1.5,1s0,7.1,0,7.1s0.1,1.1-1.2,2.1l-5.9,2.9"/>
			<path class="st0" d="M45.8,122.3l-0.9,0.4c0-1.2-1-1-1-1l-6.5,3.2c-1.1,0.8-0.9,2-0.9,2l0,8.8c0,0,0.3,1.1,1.3,0.6
				c1-0.5,6.2-3,6.2-3s1.1-0.7,0.9-2l16.5-8.2v-0.8c0,0,2.9-1,3.2-2.2l0.3-1l0-1.7c0,0-0.2-1.8-1.4-3.3v-1.6"/>
			<path class="st0" d="M59.4,124.2v-0.8c0,0,2.9-1,3.2-2.2l0.3-1l0-1.7c0,0-0.2-1.8-1.4-3.3v-1.6"/>
			<polyline class="st0" points="45.9,130.9 45.9,121.3 55.3,116.8 			"/>
			<line class="st0" x1="52.4" y1="127.5" x2="52.4" y2="118.2"/>
			<polyline class="st0" points="114.1,129.4 118.9,127 118.9,131.2 			"/>
			<polyline class="st0" points="113.5,124.3 113.9,124.1 118.9,126.7 			"/>
			<polyline class="st0" points="119.1,127.7 126.8,131.6 127.9,131 			"/>
			<path class="st0" d="M132.6,130.1c0,0.7-1,1.2-2.3,1.2c-1.3,0-2.3-0.5-2.3-1.2"/>
			<path class="st0" d="M130.3,137.1c1.3,0,2.3-0.5,2.3-1.2v-5.8"/>
			<line class="st0" x1="128" y1="130.1" x2="128" y2="136"/>
			<path class="st0" d="M121.4,97.3"/>
			<line class="st0" x1="120.3" y1="91.9" x2="115.5" y2="94.4"/>
			<polyline class="st0" points="115.5,94.4 115.5,95.9 120,98.2 			"/>
			<path class="st0" d="M59.8,114.9c0,0,3,2.7,0.1,8.2"/>
			<line class="st0" x1="63.2" y1="124.6" x2="63.2" y2="121.5"/>
			<g>
				<polygon class="st0" points="81.6,126.4 68.3,119.9 68.3,125.2 81.7,131.9 				"/>
				<polyline class="st0" points="81.7,131.9 83,131.3 82.9,125.8 69.6,119.2 68.3,119.9 				"/>
				<line class="st0" x1="68.3" y1="125.2" x2="73.5" y2="122.6"/>
				<polyline class="st0" points="74.9,123.3 74.9,128.4 80.1,125.8 				"/>
				<line class="st0" x1="81.6" y1="126.4" x2="82.9" y2="125.8"/>
			</g>
			<g>
				<polygon class="st0" points="93.9,131.9 84.1,126.9 84.1,133.3 94,138.4 				"/>
				<polyline class="st0" points="94,138.4 95.7,137.3 95.6,130.8 85.7,125.9 84.1,126.9 				"/>
				<line class="st0" x1="84.1" y1="133.1" x2="88.7" y2="131"/>
				<polyline class="st0" points="88.9,129.5 88.9,135.7 93.5,133.6 				"/>
				<line class="st0" x1="93.9" y1="131.9" x2="95.2" y2="131.2"/>
			</g>
			<g>
				<polygon class="st0" points="101.8,135.8 96.7,133.3 96.7,139.6 101.9,142.3 				"/>
				<polyline class="st0" points="101.9,142.3 103.5,141.3 103.4,134.8 98.3,132.2 96.7,133.3 				"/>
				<path class="st0" d="M96.5,135"/>
				<line class="st0" x1="96.7" y1="139.6" x2="101.4" y2="137.6"/>
				<line class="st0" x1="101.8" y1="135.8" x2="103.1" y2="135.2"/>
			</g>
			<path class="st0" d="M115,182l14.2-7c0,0,1.3-0.4,1.3,0.8c0,1.3,0.1,7,0.1,7s-0.4,1.6-1.3,2.2c-0.9,0.6-14.4,7.2-14.4,7.2
				s-1.2,0-1.2-1.3s0.1-6.7,0.1-6.7S113.9,182.4,115,182z"/>
			<path class="st0" d="M140.7,169.4l6.3-3.1c0,0,0.8-0.7,0.8,0.2c0.1,0.8,0,8.3,0,8.3s0.1,0.5-0.6,0.9s-6.5,3.3-6.5,3.3
				s-0.7,0-0.7-0.8s0.1-7.9,0.1-7.9S140.3,169.4,140.7,169.4z"/>
			<ellipse transform="matrix(0.498 -0.8672 0.8672 0.498 -83.5276 203.8414)" class="st0" cx="134.3" cy="174.1" rx="2" ry="1.4"/>
			<ellipse transform="matrix(0.498 -0.8672 0.8672 0.498 -56.7418 220.586)" class="st0" cx="162.2" cy="159.3" rx="2" ry="1.4"/>
			<ellipse transform="matrix(0.498 -0.8672 0.8672 0.498 -58.0988 225.2161)" class="st0" cx="165.5" cy="162.8" rx="2" ry="1.4"/>
			<ellipse transform="matrix(0.498 -0.8672 0.8672 0.498 -65.6548 226.0687)" class="st0" cx="162.4" cy="169.7" rx="2" ry="1.4"/>
			<ellipse transform="matrix(0.498 -0.8672 0.8672 0.498 -52.9336 235.0448)" class="st0" cx="176.6" cy="163.2" rx="2" ry="1.4"/>
			
				<ellipse transform="matrix(0.498 -0.8672 0.8672 0.498 -67.7916 218.3219)" class="st0" cx="154.7" cy="167.7" rx="1.3" ry="0.9"/>
			<ellipse transform="matrix(0.498 -0.8672 0.8672 0.498 -89.2534 207.156)" class="st0" cx="134.3" cy="180.7" rx="2" ry="1.4"/>
			<line class="st0" x1="106" y1="180.1" x2="110.9" y2="177.7"/>
			<path class="st0" d="M101.7,172.9c1.7-0.3,3,0.1,3,0.1s3.1,1.2,4.6,2.1c1.7,1,1.7,2.3,1.7,2.3v23.3c0,0,0.3,0.9-0.7,1.4
				c-1.2,0.6-4.7,2.4-4.7,2.4s-1.3,0.4-3.3-0.5c-1.9-0.9-9.4-4.8-12.1-17.3c0,0-1.7-10,5.9-12.4c0,0,4.9-0.5,5-2.1
				c0,0-0.5-0.9-5.3,2"/>
			<path class="st0" d="M105.9,204.1v-22.9c0,0,0.2-2.3-1-3.1l-5.7-2.6c0,0-1.7-0.6-4.4,0.4"/>
			<path class="st0" d="M97.1,198.7c0,0-4.4-3.8-5.8-12.6c0,0-0.9-8.7,5-9.9c0,0,2.1-0.9,8.4,3v24.3c0,0-1.6,0.2-4-1.6"/>
			<path class="st0" d="M104.5,184.9l-1.3-0.6c0,0-3.5-0.4-5.5,4.7c0,0-0.5,2.5-0.5,3.9s0.1,6.6,0.1,6.6s1.3,3.7,4.7,2.1
				c0,0,2.5-1.7,2.7-3.1"/>
			<path class="st0" d="M97.8,176.3c0,0-2.9,5.3-0.1,12.6"/>
			<path class="st0" d="M104.6,186.1l-1.2-0.7c0,0-3.4,0.3-4.7,5.4v8.2c0,0-0.3,3.6,4.1,1.8"/>
			
				<ellipse transform="matrix(0.4022 -0.9156 0.9156 0.4022 -92.2716 112.3406)" class="st0" cx="39.9" cy="126.8" rx="1.6" ry="1.2"/>
			
				<ellipse transform="matrix(0.4022 -0.9156 0.9156 0.4022 -97.6736 115.868)" class="st0" cx="39.9" cy="132.7" rx="1.6" ry="1.2"/>
			<ellipse class="st0" cx="77.5" cy="109.7" rx="2.1" ry="1"/>
			<ellipse class="st0" cx="101.3" cy="121.6" rx="2.1" ry="1"/>
			<path class="st0" d="M79.9,122.4v-2.3c0.1-0.9-0.8-1.5-0.8-1.5l-8.7-4.4c-1-0.4-0.9,0.7-0.9,0.7v2.4c0,0-0.1,0.7,0.7,1.1l9,4.6
				C79.2,122.9,79.8,123.3,79.9,122.4z"/>
			<path class="st0" d="M69.7,114.1l0.9-0.5c0,0,0.4-0.2,0.8,0l8.6,4.3c0,0,0.9,0.6,0.8,1.5v2.3c0,0.6-0.2,0.7-0.2,0.7l-1.2,0.6"/>
			<path class="st0" d="M83.9,122.9"/>
			<path class="st0" d="M233.9,114.1l-10.6,5.4c0,0,1.4,0.2,1.2,1.3"/>
			<polyline class="st0" points="224,120 220.1,122 219.4,121.6 205.1,128.8 205.1,130.5 			"/>
			<path class="st0" d="M205.1,128.8l-14.1-6.8l1.5-2.2l3.7-1.8c0,0,0.4-0.3,1,0c0.6,0.3,1.9,0.9,1.9,0.9"/>
			<line class="st0" x1="122.1" y1="81.4" x2="75.3" y2="104.9"/>
			<path class="st1" d="M281.4,98.4c0,0,1.2,0.9-0.1,2l-0.6,0.3l-12.9,6.4c0,0-0.5,0.4-0.5,1s0.1,3.7,0.1,3.7s-0.1,0.7,0.7,0.4
				c0.8-0.4,13.1-6.5,13.1-6.5s0.9-0.3,0.9,0.6s0,1.6,0,1.6s0.5,0.7,1-0.3c0,0,0.9-0.9-0.8-2.3c-1.7-1.4-1.3-1.4-1.3-1.4l0.1-3.2"/>
			<line class="st1" x1="283.4" y1="106.8" x2="290.5" y2="103.2"/>
			<path class="st1" d="M279.6,101.3l0,1.3c0,0,0.2,0.4-0.5,0.8c-0.2,0.1-0.5,0.2-0.7,0.3c-0.4,0.2-0.7,0.3-0.7,0.3l0,1.5l1.6-0.8"
				/>
			<path class="st1" d="M278.4,103.8l0.7,0.4c0,0,0.6,0.3,0.4,1.2l0,1.1"/>
			<path class="st0" d="M234.8,115.7c0,0,0-1.2,1-1.7c1-0.5,8.9-4.3,8.9-4.3s0.4-0.5,1.5,0.2"/>
			<path class="st0" d="M235.9,115.8c0,0,0-0.9,1.3-1.6s8-3.9,8-3.9s0.9-0.4,1.5-0.1"/>
			<path class="st0" d="M236.4,120.2l10.2-5.1c0,0,0.8-0.3,0.1-1.1l0-6.1"/>
			<line class="st0" x1="191.4" y1="122.2" x2="191.4" y2="127.4"/>
			<path class="st0" d="M191.2,126.2c0,0-0.9,1,0.6,1.6c0.4,0.1,0.9,0.4,1.5,0.7c0.8,0.4,1.7,0.8,2.5,1.2"/>
			<line class="st0" x1="138.4" y1="128.7" x2="138.3" y2="131.7"/>
			<polyline class="st0" points="138.3,131.3 137.6,131.7 140,132.9 			"/>
			<path class="st0" d="M114.6,125c0,0,0.9,0.5,0.9,1c0,0.8,0,0.9,0,0.9s0.1,0.8-0.9,1.4c-0.2,0.1-0.6,0.3-1,0.5"/>
			<path class="st0" d="M107.6,128.5c0,0,0.6,0.2,0.6,0.7"/>
			<polyline class="st0" points="118.9,128 117.5,128.8 117.5,130.5 			"/>
			<path class="st0" d="M143,120.9v-4c0,0-0.1-1.7,1.3-1.6c0,0,0.9,0.4,0.9,2.5"/>
			<path class="st0" d="M147.6,113.9c0,0,1,0.1,1,2.2"/>
			<path class="st0" d="M151.8,114.6c0-2-1-2.2-1-2.2v5.6"/>
			<line class="st0" x1="143.9" y1="115.3" x2="152.4" y2="111.3"/>
			<line class="st0" x1="147.6" y1="113.9" x2="147.6" y2="116.8"/>
			<path class="st0" d="M154.7,111.5c0.2,0.3,0.3,0.8,0.3,1.6"/>
			<line class="st0" x1="154.1" y1="113.6" x2="154.1" y2="111.6"/>
			<path class="st0" d="M191.4,123.9c-1.1-0.1-1.9-0.5-1.9-1v-1.3"/>
			<g>
				<polyline class="st0" points="202.6,106 202.6,104.6 200.5,105.6 200.5,111.9 199.5,111.4 199.5,112.4 				"/>
				<polyline class="st0" points="201,112.3 202.1,112.7 202.1,106.5 204.2,105.4 204.2,106.8 				"/>
				<polyline class="st0" points="202.6,113.1 203.6,113.6 203.6,107.3 205.7,106.3 205.7,107.6 				"/>
				<polyline class="st0" points="204.1,114 205.1,114.4 205.1,108.1 207.2,107.1 207.3,108.5 				"/>
				<polyline class="st0" points="206.7,114.2 206.7,109 208.8,108 208.8,109.4 				"/>
				<polyline class="st0" points="208.2,113.5 208.2,109.8 210.3,108.8 210.3,112.3 				"/>
			</g>
			<g>
				<polyline class="st0" points="203.4,105.8 203.4,104.1 205.5,103.1 205.5,104.5 				"/>
				<polyline class="st0" points="205,106.6 205,105 207.1,103.9 207.1,105.3 				"/>
				<polyline class="st0" points="206.5,107.5 206.5,105.8 208.6,104.8 208.6,106.2 				"/>
				<polyline class="st0" points="208,108.3 208,106.7 210.1,105.6 210.2,107 				"/>
				<polyline class="st0" points="209.6,109.2 209.6,107.5 211.7,106.5 211.7,107.9 				"/>
				<polyline class="st0" points="211.1,112 211.1,108.3 213.2,107.3 213.2,110.8 				"/>
			</g>
			<g>
				<polyline class="st0" points="206.3,104.3 206.3,102.6 208.4,101.6 208.4,103 				"/>
				<polyline class="st0" points="207.9,105.1 207.9,103.5 210,102.5 210,103.8 				"/>
				<polyline class="st0" points="209.4,106 209.4,104.3 211.5,103.3 211.5,104.7 				"/>
				<polyline class="st0" points="211,106.8 211,105.2 213.1,104.1 213.1,105.6 				"/>
				<polyline class="st0" points="212.5,107.7 212.5,106 214.6,105 214.6,106.4 				"/>
				<polyline class="st0" points="214,110.5 214,106.9 216.1,105.8 216.1,109.3 				"/>
			</g>
			<g>
				<polyline class="st0" points="209.2,102.8 209.2,101.1 211.3,100.1 211.3,101.5 				"/>
				<polyline class="st0" points="210.7,103.6 210.7,102 212.8,101 212.8,102.3 				"/>
				<polyline class="st0" points="212.3,104.5 212.3,102.8 214.4,101.8 214.4,103.2 				"/>
				<polyline class="st0" points="213.8,105.3 213.8,103.7 215.9,102.7 215.9,104.1 				"/>
				<polyline class="st0" points="215.4,106.2 215.4,104.5 217.5,103.5 217.5,104.9 				"/>
				<polyline class="st0" points="216.9,109 216.9,105.4 219,104.3 219,107.8 				"/>
			</g>
			<g>
				<polyline class="st0" points="211.9,101.4 211.9,99.8 214,98.8 214,100.1 				"/>
				<polyline class="st0" points="213.4,102.3 213.4,100.6 215.6,99.6 215.6,101 				"/>
				<polyline class="st0" points="215,103.1 215,101.5 217.1,100.5 217.1,101.8 				"/>
				<polyline class="st0" points="216.5,104 216.5,102.3 218.6,101.3 218.6,102.7 				"/>
				<polyline class="st0" points="218.1,104.9 218.1,103.2 220.2,102.2 220.2,103.6 				"/>
				<polyline class="st0" points="219.6,107.7 219.6,104 221.7,103 221.7,106.4 				"/>
			</g>
			<g>
				<polyline class="st0" points="214.7,100.1 214.7,98.4 216.8,97.4 216.8,98.7 				"/>
				<polyline class="st0" points="216.2,100.9 216.2,99.2 218.3,98.2 218.3,99.6 				"/>
				<polyline class="st0" points="217.8,101.8 217.8,100.1 219.9,99.1 219.9,100.4 				"/>
				<polyline class="st0" points="219.3,102.6 219.3,100.9 221.4,99.9 221.4,101.3 				"/>
				<polyline class="st0" points="220.8,103.5 220.8,101.8 223,100.8 223,102.2 				"/>
				<polyline class="st0" points="222.4,106.3 222.4,102.6 224.5,101.6 224.5,105.1 				"/>
			</g>
			<g>
				<polyline class="st0" points="217.5,98.7 217.5,97 219.6,96 219.6,97.4 				"/>
				<polyline class="st0" points="219,99.5 219,97.9 221.1,96.8 221.1,98.2 				"/>
				<polyline class="st0" points="220.6,100.4 220.6,98.7 222.7,97.7 222.7,99 				"/>
				<polyline class="st0" points="222.1,101.2 222.1,99.5 224.2,98.5 224.2,99.9 				"/>
				<polyline class="st0" points="223.6,102.1 223.6,100.4 225.7,99.4 225.7,100.8 				"/>
				<polyline class="st0" points="225.2,104.9 225.2,101.2 227.3,100.2 227.3,103.7 				"/>
			</g>
			<g>
				<polyline class="st0" points="220.3,97.3 220.3,95.6 222.4,94.6 222.4,96 				"/>
				<polyline class="st0" points="221.8,98.1 221.8,96.5 223.9,95.4 223.9,96.8 				"/>
				<polyline class="st0" points="223.3,99 223.3,97.3 225.4,96.3 225.4,97.7 				"/>
				<polyline class="st0" points="224.9,99.8 224.9,98.2 227,97.1 227,98.5 				"/>
				<polyline class="st0" points="226.4,100.7 226.4,99 228.5,98 228.5,99.4 				"/>
				<polyline class="st0" points="228,103.5 228,99.8 230.1,98.8 230.1,102.3 				"/>
			</g>
			<g>
				<polyline class="st0" points="223,95.9 223,94.2 225.1,93.2 225.1,94.6 				"/>
				<polyline class="st0" points="224.6,96.7 224.6,95.1 226.7,94.1 226.7,95.4 				"/>
				<polyline class="st0" points="226.1,97.6 226.1,95.9 228.2,94.9 228.2,96.3 				"/>
				<polyline class="st0" points="227.7,98.4 227.7,96.8 229.8,95.7 229.8,97.2 				"/>
				<polyline class="st0" points="229.2,99.3 229.2,97.6 231.3,96.6 231.3,98 				"/>
				<polyline class="st0" points="230.7,102.1 230.7,98.5 232.8,97.4 232.8,100.9 				"/>
			</g>
			<g>
				<polyline class="st0" points="239.9,87.4 239.9,85.8 242,84.7 242,86.1 				"/>
				<polyline class="st0" points="241.4,88.3 241.4,86.6 243.5,85.6 243.5,86.9 				"/>
				<polyline class="st0" points="242.9,89.1 242.9,87.4 245,86.4 245,87.8 				"/>
				<polyline class="st0" points="244.5,90 244.5,88.3 246.6,87.3 246.6,88.7 				"/>
				<polyline class="st0" points="246,90.2 246,89.1 248.1,88.1 248.1,89.2 				"/>
			</g>
			<g>
				<polyline class="st0" points="230.1,93.8 230.1,92.4 232.2,91.4 232.2,92.7 				"/>
				<polyline class="st0" points="231.6,94.7 231.6,93.2 233.8,92.2 233.8,93.6 				"/>
				<polyline class="st0" points="233.2,95.5 233.2,94.1 235.3,93 235.3,94.5 				"/>
				<polyline class="st0" points="234.7,96.4 234.7,94.9 236.8,93.9 236.8,95.1 				"/>
			</g>
			<g>
				<polyline class="st0" points="232.9,92.4 232.9,90.9 235.1,89.9 235.1,91.3 				"/>
				<polyline class="st0" points="234.5,93.3 234.5,91.8 236.6,90.8 236.6,92.2 				"/>
				<polyline class="st0" points="236,94.1 236,92.6 238.1,91.6 238.1,93.1 				"/>
				<polyline class="st0" points="237.6,94.7 237.6,93.5 239.7,92.5 239.7,93.6 				"/>
			</g>
			<g>
				<polyline class="st0" points="235.8,90.9 235.8,89.5 237.9,88.5 237.9,89.8 				"/>
				<polyline class="st0" points="237.3,91.9 237.3,90.3 239.4,89.3 239.4,90.7 				"/>
				<polyline class="st0" points="238.9,92.7 238.9,91.2 241,90.2 241,91.6 				"/>
				<polyline class="st0" points="240.4,93.3 240.4,92 242.5,91 242.5,92.2 				"/>
			</g>
			<g>
				<polyline class="st0" points="238.6,89.5 238.6,88.1 240.7,87 240.7,88.4 				"/>
				<polyline class="st0" points="240.2,90.4 240.2,88.9 242.3,87.9 242.3,89.3 				"/>
				<polyline class="st0" points="241.7,91.2 241.7,89.7 243.8,88.7 243.8,90.2 				"/>
				<polyline class="st0" points="243.2,91.8 243.2,90.6 245.3,89.6 245.4,90.7 				"/>
			</g>
			<g>
				<polyline class="st0" points="225.8,94.5 225.8,92.8 227.9,91.8 227.9,93.2 				"/>
				<polyline class="st0" points="227.4,95.3 227.4,93.7 229.5,92.7 229.5,94 				"/>
				<polyline class="st0" points="228.9,96.2 228.9,94.5 231,93.5 231,94.9 				"/>
				<polyline class="st0" points="230.4,97 230.4,95.4 232.5,94.4 232.5,95.8 				"/>
				<polyline class="st0" points="232,97.9 232,96.2 234.1,95.2 234.1,96.6 				"/>
				<polyline class="st0" points="233.5,99.5 233.5,97.1 235.6,96 				"/>
			</g>
			<polyline class="st0" points="197,115.4 197.3,115.2 197.9,115.5 201.1,113.8 			"/>
			<line class="st0" x1="199" y1="118" x2="197.4" y2="117.3"/>
			<line class="st0" x1="201.5" y1="116.8" x2="198.5" y2="115.3"/>
			<polyline class="st0" points="199.5,114.6 199.5,112.4 205,115.1 			"/>
			
				<ellipse transform="matrix(0.2857 -0.9583 0.9583 0.2857 42.5749 314.6146)" class="st0" cx="232.3" cy="128.7" rx="1.9" ry="1.4"/>
			
				<ellipse transform="matrix(0.2857 -0.9583 0.9583 0.2857 68.6289 327.4889)" class="st0" cx="254" cy="117.7" rx="1.9" ry="1.4"/>
			<path class="st0" d="M271.5,87.6c0.2-0.8,0.8-1.5,1.7-1.7c1.2-0.2,2.3,0.5,2.6,1.6c0.2,0.8-0.1,1.5-0.7,2"/>
			<path class="st0" d="M269.9,86.6c0.2-0.8,0.8-1.5,1.7-1.7c0.8-0.2,1.7,0.1,2.1,0.7"/>
			<path class="st0" d="M268.2,85.7c0.2-0.8,0.8-1.5,1.7-1.7c0.8-0.2,1.7,0.1,2.1,0.7"/>
			<path class="st0" d="M266.4,84.7c0.2-0.8,0.8-1.5,1.7-1.7c0.8-0.2,1.7,0.1,2.1,0.7"/>
			<line class="st0" x1="258.1" y1="84.3" x2="258.1" y2="87"/>
			<line class="st0" x1="259.4" y1="84.1" x2="259.4" y2="86.3"/>
			<path class="st0" d="M169.6,71c-2.2-0.8-3-4.2-1.7-7.5c1.2-3.3,4-5.3,6.2-4.5c2.2,0.8,3,4.2,1.7,7.5c-0.2,0.5-0.4,1-0.7,1.4"/>
			<path class="st0" d="M167.5,61.7c1.3-2.3,3.5-3.7,5.3-3.2l1.4,0.6"/>
			<path class="st0" d="M168.5,70.5"/>
			<path class="st0" d="M172.6,58.3l0.9-0.5c0,0,3.4,0.7,3.7,4.8v4.7"/>
			<path class="st0" d="M163.7,69.2c0,0-0.3-6.4,1.9-7.4l1.3,0.6c0,0,0.4,0.7,0,1.7c-0.4,1-0.5,5.6-0.4,6.4"/>
			<path class="st0" d="M165.7,61.8l0.6-0.3l1.3,0.6c0,0,0.3,0.5,0.2,1.2c-0.1,0.7-1.5,6,0.7,7.3"/>
			<polyline class="st0" points="175,68.8 174.9,67.5 174.3,67.3 169.6,69.6 170.3,69.8 170.3,70.9 			"/>
			<g>
				<line class="st0" x1="172.1" y1="62.9" x2="172.2" y2="65.6"/>
				<line class="st0" x1="170.9" y1="64.8" x2="173.4" y2="63.8"/>
			</g>
			<ellipse transform="matrix(0.9011 -0.4336 0.4336 0.9011 -10.7583 98.7036)" class="st0" cx="211" cy="72.9" rx="1.4" ry="1.9"/>
			<text transform="matrix(0.7325 -0.3565 6.281000e-02 0.998 237.0473 119.105)" class="st2 st3">PUSH</text>
		</g>
		<g>
			<g>
				<path class="st0" d="M140.4,165l-32.8-16.4c0,0-0.7,0.1-0.7-2.2c0-2.2,0-13.6,0-13.6s0.1-1.6,1.5-1.3l3.2,1.6v-1l42.3,21.1
					c0,0,1,0.5,1,1.5v1.8"/>
				<path class="st0" d="M147.9,159.9l-4.9-2.4c0,0-0.5-0.3-0.5,0.8c0.1,1.4,0,5.5,0,5.5"/>
				<g>
					<polygon class="st0" points="140.7,164.1 132,159.7 132,152 140.7,156.4 					"/>
					<polygon class="st0" points="118.8,150.5 110.1,146.1 110.1,140.5 118.8,144.9 					"/>
					<polygon class="st0" points="129,156 122,152.5 122,147.1 129,150.6 					"/>
					<g>
						<polyline class="st0" points="134.7,158.9 133.1,158.1 133.1,153.6 139.6,156.9 139.6,161.4 138,160.6 						"/>
						<polyline class="st0" points="138,160.6 138,161.5 134.7,159.9 134.7,158.9 						"/>
					</g>
				</g>
				<polygon class="st0" points="117.9,148.5 111.6,145.5 111.6,142.3 117.9,145.4 				"/>
				<path class="st0" d="M123.9,149.1l3.4,1.7c0,0,0.9,0.5,0.8,1.4c-0.1,0.9-0.2,1-0.9,1s-3.2-1.5-3.2-1.5s-0.8-0.8-0.8-1.6
					S123.9,149.1,123.9,149.1z"/>
				<polyline class="st0" points="149.7,159.3 123.6,146.3 123.6,141 150.3,154.2 150.3,159 				"/>
				<polyline class="st0" points="123.7,140.9 124.9,140.3 151.5,153.6 151.5,158.2 				"/>
				<line class="st0" x1="123.6" y1="146.3" x2="128.8" y2="143.7"/>
				<polyline class="st0" points="130.2,144.3 130.2,149.6 135.1,146.9 				"/>
				<polyline class="st0" points="136.9,147.6 136.9,152.9 142,150.2 				"/>
				<polyline class="st0" points="143.5,150.9 143.5,156.1 148.6,153.5 				"/>
				<line class="st0" x1="150.3" y1="154.2" x2="151.5" y2="153.6"/>
				<path class="st0" d="M158.9,151.8c0,0,0.1-0.8-0.7-1.1l-3,1.7L112,131c-1.6,0.3-1.6,1.6-1.6,1.6"/>
				<path class="st0" d="M114.3,129.6c0,0-1.9-0.9-2.7-1.4c-0.6-0.3-1.2-0.1-1.2-0.1s-1.1,0.6-2.1,1c-0.2,0.1-0.4,0.2-0.6,0.3
					c-0.6,0.4-0.6,1.1-0.6,1.1v1.5"/>
				<line class="st0" x1="110.8" y1="131.4" x2="107.5" y2="129.7"/>
				<path class="st0" d="M112.2,131l2.5-1.2c0,0,0.5-0.2,1,0c0.2,0.1,7.2,3.6,15.4,7.7c12,6,27.2,13.3,27.2,13.3l14.3-7.7"/>
				<polyline class="st0" points="131.1,137.5 146,129.8 172.6,143.1 172.7,146.4 				"/>
				<path class="st0" d="M175.8,144.9v-3.6l8.8-4.4c0,0,1-0.5,1.8-0.1c0.8,0.4,2.6,1.4,2.6,1.4"/>
				<g>
					<ellipse class="st0" cx="130.3" cy="123.3" rx="3.7" ry="1.9"/>
					<path class="st0" d="M134,126.9c0,1.1-1.6,1.9-3.7,1.9c-2,0-3.7-0.9-3.7-1.9"/>
					<path class="st0" d="M126.7,123.3v4.9c0,1.1,1.6,1.9,3.7,1.9c2,0,3.7-0.9,3.7-1.9v-4.7"/>
					<line class="st0" x1="129" y1="122.4" x2="131.4" y2="123.7"/>
					<line class="st0" x1="128.7" y1="123.8" x2="131.6" y2="122.3"/>
				</g>
				<g>
					<ellipse class="st0" cx="191.9" cy="110" rx="3.7" ry="1.9"/>
					<path class="st0" d="M195.6,113.6c0,1.1-1.6,1.9-3.7,1.9s-3.7-0.9-3.7-1.9"/>
					<path class="st0" d="M188.3,110v4.9c0,1.1,1.6,1.9,3.7,1.9s3.7-0.9,3.7-1.9v-4.7"/>
					<line class="st0" x1="190.6" y1="109.1" x2="193.1" y2="110.4"/>
					<line class="st0" x1="190.4" y1="110.5" x2="193.2" y2="109"/>
				</g>
				<g>
					<ellipse class="st0" cx="194.6" cy="131.5" rx="3.7" ry="1.9"/>
					<line class="st0" x1="198.3" y1="133.5" x2="198.3" y2="131.7"/>
					<line class="st0" x1="191" y1="131.5" x2="191" y2="137.1"/>
					<line class="st0" x1="193.3" y1="130.6" x2="195.8" y2="132"/>
					<line class="st0" x1="193.1" y1="132" x2="195.9" y2="130.5"/>
				</g>
				<path class="st0" d="M160.8,110.8l11.8-5.9c0,0,1.2-0.8,2.3-0.3c1,0.5,13.3,6.8,13.3,6.8"/>
				<line class="st0" x1="134.3" y1="123.8" x2="142.7" y2="119.7"/>
				<ellipse class="st0" cx="140.3" cy="123.2" rx="2.1" ry="1.1"/>
				<path class="st0" d="M141.7,124.9c0.1,0.1,0.1,0.2,0.2,0.3c0.1,0.4-0.5,0.8-1.4,1s-1.5-0.1-1.6-0.6c0-0.2,0.1-0.4,0.3-0.6"/>
				<path class="st0" d="M141.5,125.9c0.2,0.1,0.3,0.2,0.4,0.4c0.1,0.4-0.5,0.8-1.4,1s-1.5-0.1-1.6-0.6c0-0.2,0.2-0.5,0.5-0.7"/>
				<path class="st0" d="M138.2,123.3v0.8c0,0.6,0.9,1.1,2.1,1.1s2.1-0.5,2.1-1.1v-0.9"/>
				<path class="st0" d="M183.4,123.3l14-7c0,0,0.2-0.5-0.3-0.7c-0.4-0.2-1.3-0.6-1.3-0.6"/>
				<ellipse class="st0" cx="181.9" cy="124.2" rx="1.9" ry="0.9"/>
				<path class="st0" d="M183,127.6c0.2,0.1,0.2,0.2,0.2,0.4c0,0.3-0.6,0.6-1.4,0.6"/>
				<path class="st0" d="M181.9,126.1c1.1,0,1.9-0.4,1.9-0.9v-1.1"/>
				<path class="st0" d="M183.1,125.9c0.1,0.1,0.2,0.2,0.2,0.3c0,0.3-0.6,0.7-1.3,0.8"/>
				<path class="st0" d="M182.9,126.7c0.2,0.1,0.3,0.2,0.4,0.3c0,0.3-0.6,0.7-1.3,0.8"/>
				<line class="st0" x1="184.1" y1="124.4" x2="191.6" y2="120.5"/>
				<line class="st0" x1="197.4" y1="116.3" x2="197.4" y2="117.4"/>
				<polyline class="st0" points="165,139 185.5,128.7 185.5,127.8 183.3,126.7 				"/>
				<line class="st0" x1="182" y1="129.6" x2="185.5" y2="127.8"/>
				<g>
					<polyline class="st0" points="159.3,136.5 159.3,133.8 161.8,132.7 161.8,135 					"/>
					<polyline class="st0" points="156.9,135.4 156.9,132.7 159.3,131.5 159.3,133.9 					"/>
					<polyline class="st0" points="154.3,134.1 154.3,131.4 156.8,130.2 156.8,132.6 					"/>
					<polyline class="st0" points="151.8,132.8 151.8,130.1 154.2,128.9 154.3,131.3 					"/>
					<polyline class="st0" points="149.3,131.6 149.3,128.9 151.7,127.7 151.8,130.1 					"/>
					<polyline class="st0" points="146.7,130.2 146.7,127.6 149.1,126.4 149.2,128.8 					"/>
					<polyline class="st0" points="144.2,130.5 144.2,126.3 146.7,125.1 146.7,127.5 					"/>
					<polyline class="st0" points="144.3,126.1 144.3,123.8 141.9,125 141.9,129.1 141.1,128.7 					"/>
					<polyline class="st0" points="161.8,137.7 161.8,135.2 164.3,134 164.3,138.8 					"/>
					<polyline class="st0" points="167.8,136.6 167.8,132.2 165.3,133.4 165.3,137.4 165.8,137.6 164.5,138.3 					"/>
					<polyline class="st0" points="165.4,133.3 165.3,130.9 162.8,132.1 162.8,134.6 					"/>
					<polyline class="st0" points="168.8,131.5 168.8,129.2 166.3,130.4 166.3,132.9 					"/>
					<polyline class="st0" points="172.3,129.7 172.3,127.4 169.8,128.6 169.8,131.1 					"/>
					<polyline class="st0" points="175.8,128 175.8,125.7 173.3,126.9 173.3,129.4 					"/>
					<polyline class="st0" points="179.3,126.3 179.3,123.9 176.8,125.2 176.8,127.7 					"/>
					<g>
						<polyline class="st0" points="162.8,132 162.8,129.7 160.3,130.9 160.3,133.4 						"/>
						<polyline class="st0" points="166.3,130.3 166.3,127.9 163.8,129.1 163.8,131.6 						"/>
						<polyline class="st0" points="169.8,128.5 169.8,126.1 167.3,127.4 167.3,129.9 						"/>
						<polyline class="st0" points="173.3,126.8 173.3,124.4 170.8,125.6 170.8,128.2 						"/>
						<polyline class="st0" points="176.8,125.1 176.8,122.7 174.3,123.9 174.3,126.4 						"/>
						<polyline class="st0" points="180.3,123.3 180.3,120.9 177.8,122.1 177.8,124.6 						"/>
					</g>
					<polyline class="st0" points="171.3,134.9 171.3,130.5 168.8,131.7 168.8,135.7 169.4,135.9 168.1,136.6 					"/>
					<polyline class="st0" points="174.9,133.1 174.8,128.7 172.3,129.9 172.3,133.9 172.9,134.1 171.6,134.8 					"/>
					<polyline class="st0" points="178.3,131.3 178.3,126.9 175.8,128.1 175.8,132.1 176.4,132.4 175.1,133.1 					"/>
					<polyline class="st0" points="181.8,129.6 181.8,125.2 179.3,126.4 179.3,130.4 179.8,130.7 178.5,131.4 					"/>
				</g>
				<g>
					<polyline class="st0" points="160.4,130.6 160.4,128.3 157.8,129.5 157.8,132 					"/>
					<polyline class="st0" points="163.8,128.9 163.8,126.5 161.3,127.8 161.3,130.3 					"/>
					<polyline class="st0" points="167.4,127.1 167.4,124.8 164.9,126 164.9,128.5 					"/>
					<polyline class="st0" points="170.9,125.4 170.9,123.1 168.4,124.3 168.4,126.8 					"/>
					<polyline class="st0" points="174.4,123.7 174.4,121.3 171.8,122.5 171.8,125 					"/>
					<polyline class="st0" points="177.9,121.9 177.9,119.6 175.4,120.8 175.4,123.3 					"/>
				</g>
				<g>
					<polyline class="st0" points="157.8,129.4 157.8,127 155.3,128.3 155.3,130.8 					"/>
					<polyline class="st0" points="161.3,127.7 161.2,125.3 158.7,126.5 158.7,129 					"/>
					<polyline class="st0" points="164.8,125.9 164.8,123.5 162.3,124.7 162.3,127.2 					"/>
					<polyline class="st0" points="168.3,124.2 168.3,121.8 165.8,123 165.8,125.5 					"/>
					<polyline class="st0" points="171.8,122.4 171.8,120.1 169.3,121.3 169.3,123.8 					"/>
					<polyline class="st0" points="175.3,120.7 175.3,118.3 172.8,119.5 172.8,122 					"/>
				</g>
				<g>
					<polyline class="st0" points="155.3,128.3 155.2,126 152.7,127.2 152.7,129.7 					"/>
					<polyline class="st0" points="158.7,126.6 158.7,124.2 156.2,125.5 156.2,128 					"/>
					<polyline class="st0" points="162.3,124.8 162.3,122.5 159.8,123.7 159.8,126.2 					"/>
					<polyline class="st0" points="165.8,123.1 165.8,120.8 163.2,122 163.2,124.5 					"/>
					<polyline class="st0" points="169.3,121.4 169.2,119 166.7,120.2 166.7,122.7 					"/>
					<polyline class="st0" points="172.8,119.6 172.8,117.2 170.2,118.5 170.2,121 					"/>
				</g>
				<g>
					<polyline class="st0" points="152.8,126.9 152.8,124.6 150.2,125.8 150.2,128.3 					"/>
					<polyline class="st0" points="156.2,125.2 156.2,122.9 153.7,124.1 153.7,126.6 					"/>
					<polyline class="st0" points="159.8,123.4 159.8,121.1 157.3,122.3 157.3,124.8 					"/>
					<polyline class="st0" points="163.3,121.7 163.3,119.4 160.8,120.6 160.8,123.1 					"/>
					<polyline class="st0" points="166.8,120 166.8,117.6 164.2,118.9 164.2,121.4 					"/>
					<polyline class="st0" points="170.3,118.2 170.3,115.9 167.8,117.1 167.8,119.6 					"/>
				</g>
				<g>
					<polyline class="st0" points="150.2,125.7 150.2,123.3 147.7,124.6 147.7,127.1 					"/>
					<polyline class="st0" points="153.7,124 153.6,121.6 151.1,122.8 151.1,125.3 					"/>
					<polyline class="st0" points="157.2,122.2 157.2,119.8 154.7,121 154.7,123.5 					"/>
					<polyline class="st0" points="160.7,120.5 160.7,118.1 158.2,119.3 158.2,121.8 					"/>
					<polyline class="st0" points="164.2,118.8 164.2,116.4 161.7,117.6 161.7,120.1 					"/>
					<polyline class="st0" points="167.7,117 167.7,114.6 165.2,115.8 165.2,118.3 					"/>
				</g>
				<g>
					<polyline class="st0" points="147.7,124.5 147.7,122.1 145.2,123.3 145.2,125.8 					"/>
					<polyline class="st0" points="151.2,122.7 151.2,120.4 148.7,121.6 148.7,124.1 					"/>
					<polyline class="st0" points="154.8,120.9 154.8,118.6 152.2,119.8 152.2,122.3 					"/>
					<polyline class="st0" points="158.3,119.2 158.2,116.9 155.7,118.1 155.7,120.6 					"/>
					<polyline class="st0" points="161.7,117.5 161.7,115.2 159.2,116.4 159.2,118.9 					"/>
					<polyline class="st0" points="165.3,115.7 165.2,113.4 162.7,114.6 162.7,117.1 					"/>
				</g>
				<g>
					<polyline class="st0" points="145.3,123.1 145.2,120.7 142.7,121.9 142.7,124.4 					"/>
					<polyline class="st0" points="148.7,121.3 148.7,119 146.2,120.2 146.2,122.7 					"/>
					<polyline class="st0" points="152.3,119.6 152.3,117.2 149.8,118.4 149.8,120.9 					"/>
					<polyline class="st0" points="155.8,117.9 155.8,115.5 153.2,116.7 153.2,119.2 					"/>
					<polyline class="st0" points="159.3,116.1 159.2,113.8 156.7,115 156.7,117.5 					"/>
					<polyline class="st0" points="162.8,114.4 162.8,112 160.2,113.2 160.2,115.7 					"/>
				</g>
				<g>
					<polyline class="st0" points="146.2,120.1 146.2,117.7 143.6,118.9 143.6,121.4 					"/>
					<polyline class="st0" points="149.7,118.3 149.7,115.9 147.2,117.1 147.2,119.6 					"/>
					<polyline class="st0" points="153.2,116.6 153.2,114.2 150.7,115.4 150.7,117.9 					"/>
					<polyline class="st0" points="156.7,114.8 156.7,112.5 154.2,113.7 154.2,116.2 					"/>
					<polyline class="st0" points="160.2,113.1 160.2,110.7 157.7,111.9 157.7,114.4 					"/>
				</g>
				<polyline class="st0" points="143.5,131 136.4,127.7 136.4,126.6 138.6,125.5 				"/>
				<polyline class="st0" points="136.8,126.8 140.2,128.4 141.9,127.6 				"/>
				<line class="st0" x1="184.6" y1="129.4" x2="190.8" y2="132.5"/>
			</g>
			<ellipse class="st4" cx="115.5" cy="131.2" rx="1.1" ry="0.5"/>
			<ellipse class="st5" cx="155" cy="150.8" rx="1" ry="0.5"/>
		</g>
		<line class="st6" x1="155.6" y1="156.1" x2="155.4" y2="152.5"/>
	</g>
</g>
<g id="Gray">
	<path class="st7" d="M248.9,108.5l11.2-5.6l2.4-1.2l17.8-8.8l0.8-6.3c0,0,0.2-1.1-2-1.6c-1.6-0.4-6.7-2.8-6.7-2.8l-1-1.6l-1.6,0.3
		l-0.9-1.1l-1.5,0.1l-1-1l-1.2,0.1l-1.3-1c0,0-2.2,0.8-2.3,3.2h-3.7c0,0,0.5-3.8-2-3.2L235.8,86l-0.1,2.3l-36.6,15.6l1.5,2.2
		l-3.7-1.7l-4.8,1.8l-0.9,2.8l-0.6,6.6l1.3,0.8l-0.5,3.6l-1.2,0l-1.1,3.4l-0.4,6.7l8.5,4.2l37.9-18.9c0,0,1.3-0.6,1.3,1.2
		c0,0.7,0.2,2.5,0.3,3.8c0,0,0.7,0.5,0.7,1.3l11.2-5.5c0,0,0.6-0.3-0.1-1.4C248.3,114.8,248.3,109.1,248.9,108.5"/>
</g>
<g id="NV_x5F_BatteryTipped">
	<g>
		<path class="st6" d="M257.8,81.9c0,0,0.4-1.7,0.1-3.3c-0.3-1.6-2.4-0.5-2.4-0.5l-1.8,0.7l-18.2,7.4v2l-36.9,15.7l2,2.3l8.9,4.1
			L273,82.4l-5.3-2.1c0,0-1.1-0.1-1.9,0.4l-4.4,2.1c0,0-1.1,0.6-3.7-0.2c-2.6-0.8-3.9-1.6-3.9-1.6s-2.1-1.2-0.4-2"/>
		<path class="st6" d="M200.2,105.9l-3.3-1.6l-4.7,2l-0.9,2.6l20.5,10.1l16.4-7.9l1,0.6l4.6-1.8l-1.3-0.8l10.4-4.8l-3.2-1.5l13-5.7
			l3.2,1.2l8.8-4.5l1.2,0.6l3.6-1.5l-1-0.6l12.6-5.8c0,0,0.3-0.9-1.2-1.4c-1.5-0.6-6.9-2.7-6.9-2.7"/>
		<path class="st6" d="M191.2,108.9l-0.8,6.7l8.4,4.4c0,0,1.2,0.8,1.1,2.1s-1.4,6.2-1.4,6.2l-9.5-4.8l0.9-3.6l1.9,0.7
			c0,0,1.9,1.2,0.9,1.9c-0.9,0.7-0.9,0.7-0.9,0.7l6.9,3.3"/>
		<path class="st6" d="M204.3,130.9l2.2-11l3.1,1.4c0,0,2.3,1.3,2.1-2.3"/>
		<polyline class="st6" points="188.9,124.5 188.4,130.1 196.9,134.5 		"/>
		<line class="st6" x1="264.6" y1="100.8" x2="266" y2="94.4"/>
		<line class="st6" x1="281.2" y1="86.5" x2="280.3" y2="92.8"/>
		<line class="st6" x1="228.1" y1="111.1" x2="226.1" y2="120.1"/>
		<path class="st6" d="M212.5,129.4"/>
		<line class="st6" x1="221.2" y1="114.9" x2="219.3" y2="123.5"/>
		<path class="st6" d="M204.2,131.6"/>
		<path class="st6" d="M208.5,120.8c0,0,2.3,2.6,1.6,7"/>
		<line class="st6" x1="191.8" y1="116.7" x2="191.3" y2="120"/>
		<line class="st6" x1="242.9" y1="104.3" x2="239.1" y2="121.1"/>
		<path class="st6" d="M240.8,120.1l3.3-13.1c0,0,0.5-2.6,1.8-3s7.1-3.3,7.1-3.3s1.1-0.1,1.1,0.6s-1.4,5.5-1.4,5.5"/>
		<path class="st6" d="M242.8,106c0,0,0.6-2.4,1.9-3c1.4-0.7,6.7-3.1,6.7-3.1s1.4-0.7,2.4,0.9"/>
		<path class="st6" d="M261.3,102.1l0.8-3.2c0,0,0.2-1.3-1.1-0.6s-3.5,5.8-3.5,5.8"/>
		<line class="st6" x1="255.9" y1="98.3" x2="253.8" y2="106.3"/>
		<line class="st6" x1="257.9" y1="81.1" x2="264.6" y2="81.1"/>
		<path class="st6" d="M261.5,81.1c0-0.4,0.1-0.8,0.3-1.2c0.6-1.4,1.7-2.2,2.6-1.8c0.3,0.1,0.6,0.4,0.7,0.8"/>
		<path class="st6" d="M263.8,81.2c0-0.2,0.1-0.3,0.2-0.5c0.6-1.4,1.7-2.2,2.6-1.8c0.4,0.2,0.7,0.5,0.8,1"/>
		<path class="st6" d="M267.1,80.2c0.6-0.5,1.2-0.8,1.8-0.6c0.4,0.2,0.7,0.6,0.8,1.1"/>
		<path class="st6" d="M269.7,81.1c0.6-0.5,1.2-0.8,1.8-0.6c0.6,0.2,0.9,0.9,0.9,1.8"/>
		<path class="st6" d="M264,102.5"/>
		<line class="st6" x1="244.4" y1="106.5" x2="253.7" y2="102"/>
		<line class="st6" x1="243.2" y1="111.5" x2="249.1" y2="108.7"/>
		<line class="st6" x1="243" y1="112.7" x2="248.7" y2="109.9"/>
		<path class="st6" d="M248.5,112.9l-2.5,1.3c0,0,0.9-1.3,0.2-1.8l2.4-1.1"/>
		<line class="st6" x1="193.3" y1="120.6" x2="197" y2="122.6"/>
		<path class="st6" d="M236.9,116.7l0.1-2.2l1.7-5.4c2-1.1,1.8,0.2,1.8,0.2l-2.3,11.1c0,0-1.1,0.6-1.2-1
			C236.8,117.8,236.9,116.7,236.9,116.7z"/>
		<polyline class="st6" points="235.7,115.6 235.9,114.4 237.3,109.7 235.5,110.4 234.4,116 		"/>
		<path class="st6" d="M233,116.1c0.2-1.2,1.1-6.1,1.1-6.1"/>
		<line class="st6" x1="229.2" y1="111.7" x2="227.7" y2="118.7"/>
	</g>
	<text transform="matrix(0.6944 -0.3291 -0.2743 0.9616 243.8582 110.3807)" class="st2 st8">PUSH</text>
</g>
<g id="Arrows_x2F_Callouts">
	<g>
		<g>
			<polyline class="st9" points="331.2,62.2 347.7,70.4 349.9,74.8 349.7,87.1 361.2,81.5 359.6,80.9 			"/>
			<polyline class="st9" points="310.4,40.6 310.4,51.9 322.7,58 			"/>
			<polyline class="st9" points="349.8,87.3 349.8,90 347.6,88.7 347.6,85.3 310.5,66.8 310.5,70.2 308,69 308.2,53.8 310.4,51.9 
							"/>
			<line class="st9" x1="310.7" y1="69.4" x2="347.3" y2="87.8"/>
			<polyline class="st9" points="359.6,82.2 359.6,69.7 358,65.3 347.7,70.4 			"/>
			<polyline class="st9" points="321.9,31.8 309.3,38.3 309.3,39.8 324,47.3 324,45.7 325,45.3 332.9,49.1 331.8,49.6 331.8,51.3 
				346.6,58.6 347.6,58.2 347.6,69.7 			"/>
			<polyline class="st9" points="358,65.3 358,53.3 358.9,52.8 358.9,50.9 346.5,56.8 346.5,58.3 			"/>
			<path class="st9" d="M322.8,54.5v16.8l5.7,2.9c0,0-0.2-17.3-0.1-17.4l-5.7-2.8l-1.5-1.2V51"/>
			<polyline class="st9" points="328.8,74.3 329.6,73.8 331.1,71.2 331.2,62 332.3,61.6 332.3,58.9 330.8,58 			"/>
			<polygon class="st9" points="321.1,50.8 326.9,53.8 330.7,52 329.1,51.2 327.8,51.8 325.3,50.5 326.6,49.9 325,49 			"/>
			<line class="st9" x1="326.9" y1="53.8" x2="326.9" y2="55.8"/>
			<polyline class="st9" points="330.7,52 330.7,59.6 332.1,58.9 			"/>
			<polyline class="st9" points="349.8,90 353.1,88.4 353.1,87.5 354,87 354,85.2 			"/>
			<polyline class="st9" points="356.7,83.7 356.7,85.4 359.5,84.2 359.5,85.3 361.2,84.5 361.2,81.6 			"/>
			<polyline class="st9" points="349.9,74.8 353.3,73.1 353.3,79.6 354.1,79.3 354.1,83.2 355.9,82.3 355.9,78.3 356.7,78 
				356.7,71.2 359.5,69.8 			"/>
			<polyline class="st9" points="356.7,71.2 354.5,70.2 356.5,69.3 358.6,70.1 			"/>
			<line class="st9" x1="348.9" y1="69.8" x2="351.1" y2="74.1"/>
			<polyline class="st9" points="358.7,70.2 356.5,66.1 356.5,69 			"/>
			<polyline class="st9" points="350.4,72.3 351.2,71.9 353.2,73 			"/>
			<polyline class="st9" points="316.9,36.1 313.5,37.8 347,54.9 351,53.1 348,51.6 			"/>
			<path class="st9" d="M315.7,38.4l6.4-3.2c0,0-2-6.2,3.9-12.3s10.5-3.3,10.5-3.3l18.4,9.7c0,0,2.3,1,2.9,2.7
				c0.7,1.8,0.9,7.2,0.9,7.2"/>
			<path class="st9" d="M348.9,53.8l-4.7-7.5c0,0-0.4-8.7,5-12.9c5.4-4.1,7.4,4.3,7.4,4.3s2.3,2.6,6.1,1.8"/>
			<path class="st9" d="M353.7,51.9c0,0-0.2-4.2-4.2-6.4l-2.5-1.3c0,0-1.7-7.3,4.6-8.8c0,0,2.3-0.5,1.4,5.5c0,0,5.1,2.8,9.6,2"/>
			<line class="st9" x1="350.2" y1="36.1" x2="350.2" y2="43.8"/>
			<line class="st10" x1="322.1" y1="31.9" x2="321.8" y2="35.3"/>
			<line class="st10" x1="321.7" y1="32" x2="322" y2="32.2"/>
			<line class="st10" x1="321.6" y1="35.3" x2="321.6" y2="35.3"/>
			<line class="st10" x1="321.6" y1="35.3" x2="321.6" y2="35.3"/>
			<polygon class="st11" points="325.7,58.2 312.5,56.4 316.4,58.3 306.3,62.3 314.1,66.2 324.2,62.3 328.1,64.3 			"/>
		</g>
		<circle class="st12" cx="336.7" cy="55" r="42.8"/>
		<polygon class="st13" points="327,6.9 334.8,18.9 330.8,17 330.6,29.3 322.8,25.6 323,13.3 319,11.5 		"/>
		<polygon class="st13" points="326.4,48.6 318.6,36.6 322.6,38.5 322.8,26.2 330.6,29.9 330.4,42.2 334.4,44 		"/>
	</g>
	<g>
		<g>
			<defs>
				<circle id="SVGID_1_" cx="314.4" cy="156.5" r="38.6"/>
			</defs>
			<use xlink:href="#SVGID_1_"  style="overflow:visible;fill:#FFFFFF;"/>
			<clipPath id="SVGID_00000132806634550926948200000016603624663228367760_">
				<use xlink:href="#SVGID_1_"  style="overflow:visible;"/>
			</clipPath>
			<g style="clip-path:url(#SVGID_00000132806634550926948200000016603624663228367760_);">
				<line class="st15" x1="255.2" y1="155" x2="354.9" y2="105.2"/>
				<line class="st16" x1="330.6" y1="162.8" x2="354.9" y2="150.7"/>
				<line class="st16" x1="255.2" y1="200.5" x2="295" y2="180.5"/>
				<line class="st15" x1="255.2" y1="179.1" x2="288.9" y2="162"/>
				<line class="st15" x1="324" y1="139.2" x2="354.9" y2="123.7"/>
				<line class="st15" x1="255.2" y1="173.5" x2="285.8" y2="158.2"/>
				<line class="st15" x1="324.7" y1="141.6" x2="354.9" y2="126.5"/>
				<line class="st15" x1="255.2" y1="176.3" x2="286.9" y2="160.6"/>
				<path class="st0" d="M293.3,176.3l30.4-15.6l0.9-18.3c0.2-2.6-1.4-3.3-1.4-3.3s-1.8-1-3.1-1.7c-1.3-0.7-2.6,0.2-2.6,0.2
					l-35,17.4c0,0-1.2,0.6,0,1.2s3.7,1.8,3.7,1.8s0.8,0.5,0.7,1.4s0.1,1.5,0.1,1.5l1.1,1c0,0,0.9-0.5,1.8-0.1
					c0.8,0.4,2.1,0.5,2.3,2.4s1,13.1,1,13.1s2.3,1.7,2.1,4.5l35.1-17.3c0,0,1-1.4-0.7-3.4c-1.7-2.1-1.2-4.3-1.2-4.3l0.9-12.7
					c0,0,0-1.7,1.4-2.9l24.2-12.1"/>
				<path class="st0" d="M294,178.4l32.1-16.1c0,0,3.1-1.7-0.1-5.6l0.6-12.4c0,0-0.1-3.3,3.9-5.4"/>
				<path class="st0" d="M292,162.9l32.3-16.3c0,0-2.8-1.5-3.9-2.1s-2,0.1-2,0.1s-23.1,11.5-26.2,13.1s-3.7,4.2-3.7,4.2"/>
				<text transform="matrix(0.7225 -0.3514 1.224000e-02 0.9999 296.256 172.4639)" class="st2 st17">PUSH</text>
				<polygon class="st18" points="330.9,175.8 341.1,170.9 325.2,164.6 330.4,162.1 313.2,164.4 309.9,172 315,169.6 				"/>
			</g>
			<use xlink:href="#SVGID_1_"  style="overflow:visible;fill:none;stroke:#000000;stroke-width:0.5;stroke-miterlimit:10;"/>
		</g>
	</g>
	<g>
		<line class="st19" x1="271.4" y1="77.1" x2="301.4" y2="57.3"/>
		<line class="st20" x1="271.4" y1="77.1" x2="301.4" y2="57.3"/>
		<line class="st19" x1="271.4" y1="77.1" x2="301.4" y2="57.3"/>
		<line class="st20" x1="271.4" y1="77.1" x2="301.4" y2="57.3"/>
	</g>
	<g>
		<line class="st19" x1="252.1" y1="110.7" x2="289.5" y2="143.6"/>
		<line class="st20" x1="252.1" y1="110.7" x2="289.5" y2="143.6"/>
		<line class="st19" x1="252.1" y1="110.7" x2="289.5" y2="143.6"/>
		<line class="st20" x1="252.1" y1="110.7" x2="289.5" y2="143.6"/>
	</g>
	<g>
		<polygon class="st21" points="218.5,38.9 205.7,57.6 211.9,54.5 211.1,72.5 223.5,66.5 224.3,48.5 230.6,45.5 		"/>
		<polygon class="st21" points="216.4,100.7 229.2,82 223,85.1 223.7,67.1 211.4,73.1 210.6,91.1 204.3,94.1 		"/>
	</g>
	<g>
		<circle class="st22" cx="344.9" cy="126.6" r="14"/>
		<g>
			<text transform="matrix(1 0 0 1 339.0016 133.4758)" class="st23 st24 st25">1</text>
		</g>
	</g>
	<g>
		<circle class="st22" cx="293.7" cy="32.6" r="14"/>
		<g>
			<text transform="matrix(1 0 0 1 287.8071 39.4303)" class="st23 st24 st25">2</text>
		</g>
	</g>
</g>
</svg>
