<?xml version="1.0" encoding="utf-8"?>
<!-- Generator: Adobe Illustrator 26.5.0, SVG Export Plug-In . SVG Version: 6.00 Build 0)  -->
<svg version="1.1" xmlns="http://www.w3.org/2000/svg" xmlns:xlink="http://www.w3.org/1999/xlink" x="0px" y="0px"
	 viewBox="0 0 358.6 283.5" style="enable-background:new 0 0 358.6 283.5;" xml:space="preserve">
<style type="text/css">
	.st0{fill:#D1D3D4;}
	.st1{fill:none;stroke:#000000;stroke-width:0.5;stroke-linecap:round;stroke-linejoin:round;stroke-miterlimit:10;}
	.st2{fill:none;stroke:#000000;stroke-width:0.5;stroke-linecap:round;stroke-linejoin:round;}
	.st3{fill:none;stroke:#000000;stroke-width:0.25;stroke-linecap:round;stroke-linejoin:round;stroke-miterlimit:10;}
	.st4{stroke:#000000;stroke-width:0.125;stroke-linecap:round;stroke-linejoin:round;stroke-miterlimit:10;}
	.st5{fill:none;stroke:#000000;stroke-width:0.4875;stroke-linecap:round;stroke-linejoin:round;stroke-miterlimit:10;}
	.st6{fill:none;stroke:#000000;stroke-width:0.4505;stroke-linecap:round;stroke-linejoin:round;stroke-miterlimit:10;}
	.st7{fill:none;stroke:#000000;stroke-width:0.4409;stroke-linecap:round;stroke-linejoin:round;stroke-miterlimit:10;}
	.st8{fill:none;stroke:#000000;stroke-width:0.5145;stroke-linecap:round;stroke-linejoin:round;stroke-miterlimit:10;}
	.st9{font-family:'Arial-BoldMT';}
	.st10{font-size:4.6807px;}
	.st11{opacity:0.7;fill:#FFFFFF;}
	.st12{fill:#FFFFFF;}
	.st13{opacity:0.5;}
	.st14{fill:none;stroke:#000000;stroke-width:0.4737;stroke-linecap:round;stroke-linejoin:round;stroke-miterlimit:10;}
	.st15{fill:none;stroke:#000000;stroke-width:0.464;stroke-linecap:round;stroke-linejoin:round;stroke-miterlimit:10;}
	.st16{fill:none;stroke:#000000;stroke-width:0.4068;stroke-linecap:round;stroke-linejoin:round;stroke-miterlimit:10;}
	.st17{fill:none;stroke:#000000;stroke-width:0.4365;stroke-linecap:round;stroke-linejoin:round;stroke-miterlimit:10;}
	.st18{fill:none;stroke:#000000;stroke-width:0.5012;stroke-linecap:round;stroke-linejoin:round;stroke-miterlimit:10;}
	.st19{fill:none;stroke:#000000;stroke-width:0.3156;stroke-linecap:round;stroke-linejoin:round;stroke-miterlimit:10;}
	.st20{fill:none;stroke:#000000;stroke-width:0.5359;stroke-linecap:round;stroke-linejoin:round;stroke-miterlimit:10;}
	.st21{fill:none;stroke:#000000;stroke-width:0.4112;stroke-linecap:round;stroke-linejoin:round;stroke-miterlimit:10;}
	.st22{fill:none;stroke:#000000;stroke-width:0.2051;stroke-linecap:round;stroke-linejoin:round;stroke-miterlimit:10;}
	.st23{fill:none;stroke:#000000;stroke-width:0.259;stroke-linecap:round;stroke-linejoin:round;stroke-miterlimit:10;}
	.st24{fill:none;stroke:#000000;stroke-width:0.3861;stroke-linecap:round;stroke-linejoin:round;stroke-miterlimit:10;}
	.st25{fill:none;stroke:#000000;stroke-width:0.1926;stroke-linecap:round;stroke-linejoin:round;stroke-miterlimit:10;}
	.st26{fill:none;stroke:#000000;stroke-width:0.2432;stroke-linecap:round;stroke-linejoin:round;stroke-miterlimit:10;}
	.st27{fill:none;stroke:#D0CFCD;stroke-width:0.25;stroke-linecap:round;stroke-linejoin:round;stroke-miterlimit:10;}
	.st28{fill:none;stroke:#D0CFCD;stroke-width:0.6349;stroke-linecap:round;stroke-linejoin:round;stroke-miterlimit:10;}
	.st29{fill:#FFFFFF;stroke:#FFFFFF;stroke-width:3;stroke-linecap:round;stroke-linejoin:round;stroke-miterlimit:10;}
	
		.st30{opacity:0.5;fill:#FFFFFF;stroke:#000000;stroke-width:0.75;stroke-linecap:round;stroke-linejoin:round;stroke-miterlimit:10;stroke-dasharray:3;}
	.st31{fill:none;stroke:#000000;stroke-width:0.4194;stroke-linecap:round;stroke-linejoin:round;stroke-miterlimit:10;}
	.st32{fill:#FFFFFF;stroke:#000000;stroke-width:0.4194;stroke-linecap:round;stroke-linejoin:round;stroke-miterlimit:10;}
	.st33{fill:none;stroke:#000000;stroke-width:0.6291;stroke-linecap:round;stroke-linejoin:round;stroke-miterlimit:10;}
	.st34{stroke:#FFFFFF;stroke-width:0.5;stroke-linecap:round;stroke-linejoin:round;stroke-miterlimit:10;}
	.st35{fill-rule:evenodd;clip-rule:evenodd;fill:#010101;stroke:#FFFFFF;stroke-miterlimit:10;}
	.st36{font-family:'Helvetica';}
	.st37{font-size:20.8793px;}
	.st38{fill:#FFFFFF;stroke:#2D2A26;stroke-width:0.75;stroke-linecap:round;stroke-linejoin:round;stroke-miterlimit:10;}
	.st39{clip-path:url(#SVGID_00000066513822741427161350000011259396156539038889_);}
	.st40{fill:#FFFFFF;stroke:#000000;stroke-width:0.5;stroke-linecap:round;stroke-linejoin:round;stroke-miterlimit:10;}
	.st41{fill:none;stroke:#000000;stroke-width:0.75;stroke-linecap:round;stroke-linejoin:round;stroke-miterlimit:10;}
	.st42{fill:#FFFFFF;stroke:#FFFFFF;stroke-width:2.1802;stroke-linecap:round;stroke-linejoin:round;}
	.st43{stroke:#FFFFFF;stroke-width:0.7071;stroke-linecap:round;stroke-linejoin:round;stroke-miterlimit:10;}
	.st44{fill:none;stroke:#000000;stroke-width:0.5;stroke-miterlimit:10;}
</style>
<g id="Gray">
	<polygon class="st0" points="188.3,162 155.5,145.7 154.5,146.1 153.9,145 152.2,144.4 142.2,149.2 142,153.2 145.3,154.8 
		145.5,155.3 144.9,155.6 172.8,169.4 	"/>
</g>
<g id="Base_Unit">
	<g>
		<path class="st1" d="M65.5,129.8c0,0,0-0.6,0-1.6c0-1.1,1.2-1.6,1.2-1.6s7-3.7,7.4-3.8s0.6-0.2,1.1-0.1c0.5,0.1,0.8-0.2,0.9-0.6
			c0.1-0.4,1.2-0.9,1.2-0.9l111.7-55.9c0,0,0.7-0.5,1.3-0.1c0.6,0.5,2.1,1.4,2.1,1.4s0.3,0.2,0.6-0.1c0.2-0.2,0.6-0.7,0.4-1.2
			l-0.7-0.5c0,0-0.2-0.6,0-1s0.5-0.8,0.9-0.8c0.4,0,3.1-0.2,3.1-0.2s0.7,0.2,0.8,0.6l0,3.3c0,0,0.1,0.5-0.4,0.8S152.1,90,152.1,90"
			/>
		<path class="st1" d="M164.7,132c0,0-0.1-7.2,0-8.8c0.1-1.6,1.6-2.1,1.6-2.1l24.9-12.6l-6.9-3.5l6.1-3.1c0,0-22.9-11.4-23.9-12
			c-1-0.5-2.2,0-2.2,0l-6.1,3l-7.1-3.5l-23.3,11.7c0,0-2.2,0.9-2.2,2.5l0.1,1.1"/>
		<path class="st1" d="M165.8,121l-6.6-3.4l-6.8,3.4c0,0-1.1,0.6-1.1,1.8c0,1.1,0,3.1,0,3.1"/>
		<path class="st1" d="M126.8,101.9l6.6,3.3l-5.8,3.1l0,0.5c0,0-0.8,0.7-0.8,1.9c0,1,0.1,6.9,0.1,6.9"/>
		<line class="st1" x1="128" y1="108.2" x2="152.7" y2="120.7"/>
		<path class="st1" d="M158.7,136.6c0,0,0,0.2,0.7-0.2c0.7-0.4,4.8-2.4,4.8-2.4s0.7-0.5,0.5,0.6l0,0.6l-1.2-0.6"/>
		<polyline class="st1" points="164.7,135.2 192.3,121.4 192.4,120.1 198.6,117.1 		"/>
		<path class="st1" d="M187.7,106.6c0.5-0.4,1.4-0.6,2.4-0.6c1.7,0,3,0.7,3,1.5c0,0.6-0.6,1.1-1.6,1.3"/>
		<path class="st1" d="M192,110.5c0.7-0.3,1.1-0.7,1.1-1.2v-1.6"/>
		<path class="st1" d="M191.9,118.9v-9.1c0,0,0.1-1-0.9-1.1"/>
		<path class="st1" d="M192.4,110.2c0.3,0.2,0.5,0.4,0.5,0.7c0,0.4-0.4,0.8-1.1,1"/>
		<path class="st1" d="M192.4,112c0.3,0.2,0.5,0.4,0.5,0.7c0,0.4-0.4,0.8-1.1,1"/>
		<path class="st1" d="M192.4,113.8c0.3,0.2,0.5,0.4,0.5,0.7c0,0.4-0.4,0.8-1.1,1"/>
		<g>
			<ellipse class="st1" cx="157.5" cy="121.5" rx="3" ry="1.5"/>
			<path class="st1" d="M154.5,121.5v1.7c0,0.8,1.4,1.5,3,1.5s3-0.7,3-1.5v-1.6"/>
			<path class="st1" d="M160.1,124.1c0.3,0.3,0.4,0.6,0.4,0.9c-0.1,0.8-1.6,1.3-3.2,1.1c-1.7-0.2-2.9-1.1-2.8-1.9
				c0-0.1,0.1-0.2,0.1-0.4"/>
			<path class="st1" d="M160.5,130.8c0,0.1,0.1,0.2,0.1,0.3c0,0.8-1.4,1.5-3,1.5s-3-0.7-3-1.5c0-0.2,0.1-0.4,0.3-0.6"/>
			<path class="st1" d="M159.8,129.6c0.4,0.3,0.7,0.8,0.6,1.1c-0.1,0.8-1.6,1.3-3.2,1c-1.7-0.3-2.9-1.2-2.7-2
				c0.1-0.3,0.3-0.6,0.7-0.8"/>
			<path class="st1" d="M159.9,127.7c0.4,0.3,0.6,0.7,0.5,1.1c-0.1,0.8-1.6,1.3-3.2,1s-2.9-1.2-2.7-2c0-0.3,0.2-0.5,0.5-0.7"/>
			<path class="st1" d="M159.9,125.8c0.4,0.3,0.6,0.7,0.6,1.1c-0.1,0.8-1.6,1.3-3.2,1c-1.7-0.3-2.9-1.2-2.7-2c0-0.3,0.2-0.5,0.5-0.7
				"/>
		</g>
		<g>
			<ellipse class="st1" cx="130.5" cy="142.6" rx="2" ry="1"/>
			<path class="st1" d="M128.5,142.6v1.1c0,0.5,0.9,1,2,1c1.1,0,2-0.4,2-1v-1"/>
			<path class="st1" d="M131.8,144.5c0.1,0.1,0.1,0.2,0.1,0.4c-0.1,0.4-0.8,0.6-1.6,0.5c-0.8-0.1-1.5-0.5-1.4-0.9"/>
			<path class="st1" d="M132,147.2c0,0.1,0,0.1,0,0.2c0,0.4-0.7,0.7-1.5,0.7s-1.5-0.3-1.5-0.7c0-0.1,0.1-0.2,0.1-0.3"/>
			<path class="st1" d="M131.7,146.1c0.2,0.2,0.3,0.3,0.3,0.5c-0.1,0.4-0.8,0.6-1.6,0.5c-0.8-0.1-1.4-0.6-1.4-1
				c0-0.1,0.1-0.2,0.3-0.3"/>
			<path class="st1" d="M131.7,145.3c0.2,0.2,0.3,0.4,0.3,0.5c-0.1,0.4-0.8,0.6-1.6,0.5c-0.8-0.1-1.4-0.6-1.4-1
				c0-0.1,0.1-0.2,0.3-0.3"/>
		</g>
		<g>
			<ellipse class="st1" cx="127.2" cy="106.3" rx="3" ry="1.5"/>
			<path class="st1" d="M124.2,106.3v1.7c0,0.8,1.3,1.5,2.8,1.5"/>
			<ellipse class="st1" cx="159.6" cy="90.1" rx="3" ry="1.5"/>
			<line class="st1" x1="156.6" y1="90.1" x2="156.6" y2="91.8"/>
			<path class="st1" d="M126.9,110.9c-1.6-0.3-2.8-1.1-2.7-1.9c0-0.1,0.1-0.2,0.1-0.4"/>
			<path class="st1" d="M126.9,117.5c-1.5-0.1-2.7-0.7-2.7-1.5c0-0.2,0.1-0.4,0.3-0.6"/>
			<path class="st1" d="M126.9,116.5c-1.7-0.3-2.9-1.2-2.7-2c0.1-0.3,0.3-0.6,0.7-0.8"/>
			<path class="st1" d="M126.9,114.5c-1.7-0.3-2.9-1.2-2.7-2c0-0.3,0.2-0.5,0.5-0.7"/>
			<path class="st1" d="M126.9,112.7c-1.7-0.3-2.9-1.2-2.7-2c0-0.3,0.2-0.5,0.5-0.7"/>
		</g>
		<polygon class="st1" points="107.6,127.4 126.2,136.9 130.3,134.8 134.1,136.8 153.5,127 134.8,117.8 130.9,119.7 127,117.8 		"/>
		<line class="st1" x1="107.6" y1="127.4" x2="107.5" y2="136"/>
		<line class="st1" x1="153.5" y1="127" x2="153.6" y2="133.1"/>
		<line class="st1" x1="126.2" y1="136.9" x2="126.3" y2="146.9"/>
		<line class="st1" x1="134.1" y1="136.8" x2="134.3" y2="147"/>
		<line class="st1" x1="130.3" y1="134.8" x2="130.3" y2="141.5"/>
		<polyline class="st1" points="91,132.3 95.2,130.2 108.7,136.8 104.3,139 		"/>
		<line class="st1" x1="108.7" y1="141.2" x2="108.7" y2="136.8"/>
		<line class="st1" x1="159.3" y1="117.6" x2="159.3" y2="120.2"/>
		<line class="st1" x1="160.2" y1="129.9" x2="164.7" y2="132.2"/>
		<line class="st1" x1="181.1" y1="86.3" x2="193.4" y2="80.1"/>
		<line class="st1" x1="196.8" y1="67.6" x2="196.8" y2="76.7"/>
		<polyline class="st1" points="225.5,80.8 206.6,71.5 200.8,74.3 200.4,75.1 193.4,78.6 193.4,85.1 199.1,88 199.8,87.6 		"/>
		<polyline class="st1" points="199,87.7 199,81.4 206.2,77.8 207.4,77.6 213,74.8 		"/>
		<polyline class="st1" points="207.4,77.6 207,78.3 199.9,81.8 199.9,88.5 205.6,91.3 206.3,90.8 		"/>
		<polyline class="st1" points="219.7,78 213.8,81 212.8,81.1 205.6,84.6 205.5,91.1 		"/>
		<line class="st1" x1="200" y1="81.8" x2="205.6" y2="84.6"/>
		<line class="st1" x1="193.5" y1="78.6" x2="198.9" y2="81.3"/>
		<polyline class="st1" points="213.8,81 213.5,81.5 206.6,85.1 206.5,91.7 212,94.4 		"/>
		<line class="st1" x1="206.6" y1="85.1" x2="211.9" y2="87.8"/>
		<polyline class="st1" points="212.1,96.4 212.2,87.9 226.7,80.7 231.7,83.1 217.2,90.5 217.2,98.6 		"/>
		<line class="st1" x1="212.2" y1="87.9" x2="217.2" y2="90.5"/>
		<path class="st1" d="M231.7,83.1c0,0,0.8,0.3-0.8,3.6"/>
		<polyline class="st1" points="239.3,87.8 234.2,85.2 228.3,88 228.1,88.7 220.9,92.3 220.9,96.9 		"/>
		<polyline class="st1" points="246.9,93.9 246.8,89.9 241.1,87.1 227,94.1 226.9,99.1 		"/>
		<polyline class="st1" points="232.4,102.1 232.5,96.9 246.8,89.9 		"/>
		<line class="st1" x1="221.1" y1="92.4" x2="226.9" y2="95.3"/>
		<line class="st1" x1="227" y1="94.1" x2="232.5" y2="96.9"/>
		<line class="st1" x1="211.6" y1="96.3" x2="216.9" y2="99"/>
		<polygon class="st1" points="203.4,105.9 221.5,96.7 239.5,105.7 221.4,114.9 		"/>
		<polyline class="st1" points="203.4,105.9 203.4,117.6 212.7,122.3 		"/>
		<line class="st1" x1="221.4" y1="114.9" x2="221.5" y2="118.1"/>
		<line class="st1" x1="239.6" y1="105.7" x2="239.7" y2="110.4"/>
		<polyline class="st1" points="215.3,99.8 189.7,86.9 184.7,89.4 		"/>
		<polyline class="st1" points="210,102.2 182.1,88.3 172.7,93 		"/>
		<polyline class="st1" points="268.8,106.5 268.8,102.5 249.2,92.7 243.4,95.6 243.1,96.3 235.9,99.9 235.9,103.6 		"/>
		<polyline class="st1" points="239.8,108.4 241.5,109.1 241.5,102.5 235.9,99.9 		"/>
		<polyline class="st1" points="255.7,96 250.1,98.8 248.8,99 241.5,102.5 		"/>
		<polyline class="st1" points="249.9,98.8 249.6,99.5 242.5,103.1 242.5,109.1 		"/>
		<polyline class="st1" points="262.2,99.3 256.5,102.1 255.2,102.3 248.1,105.9 242.5,103.1 		"/>
		<line class="st1" x1="248.1" y1="108" x2="248.1" y2="105.9"/>
		<polyline class="st1" points="248.9,108.6 248.9,106.3 255.7,103 256.5,102.1 		"/>
		<polyline class="st1" points="248.9,106.3 254.7,109.1 261.8,105.5 263.1,105.3 268.5,102.5 		"/>
		<polyline class="st1" points="283.2,114.3 283.2,113.1 271,106.6 265.2,106.7 260.2,109.1 257.5,107.7 		"/>
		<path class="st1" d="M283.2,113.1l-21.2,11l-0.8-0.5l-10.8,5.4l-1.2-0.7c0,0-0.5-0.3-1.4,0.2c-1,0.6-10.8,5.4-10.8,5.4
			s-1.1,0.4-0.2,0.8c0.9,0.4,0.8,0.5,0.8,0.5s0.4,0.1,0.3,1.1l0,0.8"/>
		<path class="st1" d="M254.7,109.1l-15,7.7c0,0-0.6,0.5-1,1.4c-0.4,0.9-2,3.7-2,3.7s-0.1,0.3-1.2,0.9c-1,0.6-32.8,16.5-32.8,16.5
			l0.1,1.2c0,0,3.5,1.7,4.8,2.6s2.7-0.2,2.7-0.2l66.3-33.4"/>
		<line class="st1" x1="24.3" y1="151.7" x2="56.4" y2="135.6"/>
		<line class="st1" x1="33" y1="164.3" x2="57.3" y2="152.2"/>
		<polygon class="st1" points="110.7,150 118.3,146.3 74.8,124.4 67.2,128.1 		"/>
		<path class="st1" d="M66.9,130c0,0,0.4-0.8,1.3-0.3s41.5,20.8,41.5,20.8s1,0.5,1,2.1s0,14.5,0,14.5s-0.1,1.6-1.2,1.1
			c-1.1-0.5-41.5-20.7-41.5-20.7"/>
		<line class="st1" x1="143.7" y1="186.5" x2="67.4" y2="148.5"/>
		<line class="st1" x1="114.7" y1="201" x2="152" y2="182.5"/>
		<line class="st1" x1="152.6" y1="183.6" x2="114.9" y2="202.6"/>
		<line class="st1" x1="152.5" y1="198.8" x2="114.9" y2="217.9"/>
		<polyline class="st1" points="150.8,199.7 152.7,200.5 162,195.7 162.8,196.1 171.5,191.7 172.6,189.7 174.8,188.6 177.2,188.9 
			294.3,130.4 294.3,124.2 292,120.8 292,116.2 		"/>
		<path class="st1" d="M172.4,189.9V185c0,0,0.4-2.9,2.4-3.6c0,0,1.7-0.5,1.8,1.1v6"/>
		<path class="st1" d="M152.7,200.2v-17.1c0,0-0.5-1.1-2.1-1.3v1.2"/>
		<path class="st1" d="M152.7,183.1l9.6-4.8c0,0-0.5-1.1-2.1-1.3l-9.6,4.8"/>
		<path class="st1" d="M163.3,195.7l-0.1-17.4l7.7-3.9c0,0,1.3-0.9,2.2-0.2c1,0.8,1.6,1.4,3,0.8c1.4-0.7,1.4-0.7,1.4-0.7"/>
		<path class="st1" d="M176.9,173.3c0.8,0.4,0.8,1.7,0.8,1.7v2.4c0,0,0.1,2.3,2.6,1.3c2.3-1,2.5-3.8,2.5-3.8s0-2.1,0-3
			s-0.6-1.3-0.6-1.3c0-1.1-0.9-0.7-0.9-0.7l-3.6,1.9c0,0-0.6,0.3-0.7,1.4"/>
		<line class="st1" x1="163.3" y1="194.3" x2="163.2" y2="175.4"/>
		<path class="st1" d="M177.1,172"/>
		<path class="st1" d="M162.4,178.3v-2.7l8.6-4.1l0.6-1.1l67.4-33.6c0,0,0.7-0.1,0.8,0.5c0.1,0.6,0.3,4.5,0.3,4.5s0.9,0.6,0.8,1.5
			l11.6-5.7c0,0,0.6-0.7-0.1-1.6l0.1-4.9c0,0,0.2-1.1,1-1.5l32.8-16.3l2.7,1.8c0,0,1.2-0.1,0.9-1.4l-0.7-0.6c0,0-0.4-1.2,1-1.8
			l2.8-0.1c0,0,0.7,0,0.8,0.6l0,3.5L252.5,136"/>
		<line class="st1" x1="183" y1="171.8" x2="240.5" y2="142.9"/>
		<polyline class="st1" points="108.8,138.2 130.4,149.1 146.6,141 		"/>
		<polyline class="st1" points="108.9,139.5 130.4,150.2 146.3,142.4 		"/>
		<line class="st1" x1="126.7" y1="147.1" x2="128.9" y2="145.9"/>
		<line class="st1" x1="134.2" y1="147" x2="132.1" y2="146"/>
		<line class="st1" x1="136.3" y1="152.5" x2="141.9" y2="149.7"/>
		<line class="st1" x1="117.6" y1="162.1" x2="131.5" y2="155"/>
		<path class="st1" d="M110.8,151.8l5.6,2.7c0,0,1.3,0.6,1.3,1.7s-0.2,5.3-0.2,5.3s-0.2,1,0.7,1.4c0.9,0.4,4.4,2,4.4,2l1.1,1.6
			l28.4,14.4"/>
		<polyline class="st1" points="132.9,170.9 134.5,170.1 154.1,179.9 		"/>
		<polyline class="st1" points="139.3,172.5 148.2,167.9 156,171.8 147.1,176.3 		"/>
		<line class="st1" x1="156" y1="171.8" x2="156" y2="174.7"/>
		<polyline class="st1" points="150,177.8 158.5,173.4 160.4,174.3 		"/>
		<polyline class="st1" points="160.2,177 160.2,174.6 162.7,173.3 164.7,174.2 		"/>
		<line class="st1" x1="162.4" y1="175.6" x2="160.2" y2="174.6"/>
		<line class="st1" x1="89.4" y1="131.8" x2="119.3" y2="117.1"/>
		<polyline class="st1" points="190.3,102 191,102.3 191,105.8 		"/>
		<polyline class="st1" points="193,112.8 198.6,115.5 158.9,135.3 		"/>
		<path class="st1" d="M198.8,117.4"/>
		<polygon class="st1" points="201.9,115.9 198.8,117.5 198.8,112.4 201.9,110.8 		"/>
		<line class="st1" x1="198.8" y1="112.4" x2="193.4" y2="109.7"/>
		<line class="st1" x1="198.6" y1="113.4" x2="192.8" y2="110.5"/>
		<polyline class="st1" points="191.1,104.5 200.6,109.3 203.3,107.9 		"/>
		<polyline class="st1" points="191.1,105.7 200.6,110.5 203.3,109.1 		"/>
		<path class="st1" d="M55.7,135.5v-0.8l10.3-4.9l1.4,0.6c0,0,0.5,0.3,0.5,1s0,2,0,2l-9.2,4.6l-0.9-0.1v-2c0,0-0.1-1-2.2-1.3"/>
		<path class="st1" d="M56.6,152.7l1.3,0.6l10-5.1l-0.1-2l-0.9-0.3l-8.3,4.1c0,0-1,0.5-0.9,1.3l0,1.7"/>
		<path class="st1" d="M13.2,152.5l5.5-2.7c0,0,9.3,1.1,13.7,13.5c0,0,3.8,10.4-2.9,16l-6.2,3c0,0-2,0.3-4.5-0.9l-5.4-2.5
			c0,0-0.8-0.9-0.8-1.9c0-1,0.1-3,0.1-3"/>
		<path class="st1" d="M12.7,158.2l-0.1-4.9c0,0,0.3-1.1,2.4-0.9c0,0,9.4,3.5,12.1,13.1c0,0,4.9,10.7-2.2,15.9"/>
		<path class="st1" d="M14.4,163.9v-5.5c0,0,0.5-3.5,3.4-2.8c0,0,7.1,2.5,9.4,15.2c0,0,1.5,8.2-4.8,10.1c0,0-1.7,0.6-3.8-0.2
			s-5.8-3-5.8-3l5.4-2.7"/>
		<line class="st1" x1="19.6" y1="156.6" x2="19.6" y2="161.4"/>
		<path class="st1" d="M13.3,164.7l8.2-4.1c0,0,1.2,0.3,1.1,1.6l-1.1,3.8l-5,2.7l-1.7-3.1C14.8,165.6,14.3,164.5,13.3,164.7z"/>
		<path class="st1" d="M13.3,164.7c0,0-1.7,5.1,0.7,9.9l1.3-0.6c0,0,0-3.3,3-4.2c0,0,1.8-0.6,1.7,1.8l1.3-0.5c0,0,1-3.4,1-7"/>
		<path class="st1" d="M14.4,159.1c0,0,0.5,0.3-2.1-0.8c0,0-4.5-0.2-5.9,6.3v8c0,0,0,3,2.9,3.2c0,0,2.5,0.1,4-2.7"/>
		<path class="st1" d="M18.3,169.8l0.2,5.3c0,0,0.4,0.6,0.9,0.8s3.8,1.8,3.8,1.8s1.8,0.6,2.6,0.5"/>
		<path class="st1" d="M14.5,161.6c0,0-1.1,0.2-2.4-0.8c0,0-2.8,0.6-3.3,3.8l0,7.6c0,0,0.2,1.6,1.5,1.1s1.5-1.1,1.5-1.1l1-1.3"/>
		<path class="st1" d="M26.7,154l11-5.5c0,0,1.4-0.5,1.5,1s0,7.1,0,7.1s0.1,1.1-1.2,2.1l-5.9,2.9"/>
		<path class="st1" d="M49.5,143.5l-0.9,0.4c0-1.2-1-1-1-1l-6.5,3.2c-1.1,0.8-0.9,2-0.9,2l0,8.8c0,0,0.3,1.1,1.3,0.6
			c1-0.5,6.2-3,6.2-3s1.1-0.7,0.9-2l16.5-8.2v-0.8c0,0,2.9-1,3.2-2.2l0.3-1l0-1.7c0,0-0.2-1.8-1.4-3.3v-1.6"/>
		<path class="st1" d="M63.1,145.4v-0.8c0,0,2.9-1,3.2-2.2l0.3-1l0-1.7c0,0-0.2-1.8-1.4-3.3v-1.6"/>
		<polyline class="st1" points="49.6,152.1 49.6,142.5 59,138 		"/>
		<line class="st1" x1="56.1" y1="148.8" x2="56.1" y2="139.5"/>
		<polyline class="st1" points="113.3,152.8 122.6,148.2 122.7,155.1 117.8,157.6 		"/>
		<polyline class="st1" points="117.2,145.5 117.6,145.3 122.6,147.9 		"/>
		<polyline class="st1" points="122.7,148.9 130.5,152.8 131.6,152.3 		"/>
		<ellipse class="st1" cx="134" cy="151.4" rx="2.3" ry="1.2"/>
		<path class="st1" d="M131.7,151.4v5.8c0,0.7,1,1.2,2.3,1.2s2.3-0.5,2.3-1.2v-5.8"/>
		<polyline class="st1" points="124,113.1 119.2,115.6 125,118.5 		"/>
		<polyline class="st1" points="119.2,115.6 119.2,117.1 123.7,119.4 		"/>
		<path class="st1" d="M63.5,136.1c0,0,3,2.7,0.1,8.2"/>
		<line class="st1" x1="66.9" y1="145.8" x2="66.9" y2="142.7"/>
		<g>
			<polygon class="st1" points="85.3,147.7 72,141.1 72,146.5 85.4,153.2 			"/>
			<polyline class="st1" points="85.4,153.2 86.7,152.5 86.6,147 73.3,140.5 72,141.1 			"/>
			<line class="st1" x1="72" y1="146.5" x2="77.2" y2="143.8"/>
			<polyline class="st1" points="78.6,144.5 78.6,149.7 83.8,147.1 			"/>
			<line class="st1" x1="85.3" y1="147.7" x2="86.6" y2="147"/>
		</g>
		<g>
			<polygon class="st1" points="97.6,153.1 87.8,148.2 87.8,154.5 97.7,159.6 			"/>
			<polyline class="st1" points="97.7,159.6 99.4,158.6 99.3,152.1 89.4,147.1 87.8,148.2 			"/>
			<line class="st1" x1="87.8" y1="154.3" x2="92.4" y2="152.3"/>
			<polyline class="st1" points="92.6,150.8 92.6,156.9 97.2,154.9 			"/>
			<line class="st1" x1="97.6" y1="153.1" x2="98.9" y2="152.5"/>
		</g>
		<g>
			<polygon class="st1" points="105.5,157.1 100.4,154.5 100.4,160.8 105.6,163.6 			"/>
			<polyline class="st1" points="105.6,163.6 107.2,162.5 107.1,156 102,153.5 100.4,154.5 			"/>
			<path class="st1" d="M100.2,156.2"/>
			<line class="st1" x1="100.4" y1="160.9" x2="105.1" y2="158.8"/>
			<line class="st1" x1="105.5" y1="157.1" x2="106.8" y2="156.4"/>
		</g>
		<path class="st1" d="M118.7,203.2l14.2-7c0,0,1.3-0.4,1.3,0.8s0.1,7,0.1,7s-0.4,1.6-1.3,2.2s-14.4,7.2-14.4,7.2s-1.2,0-1.2-1.3
			s0.1-6.7,0.1-6.7S117.6,203.6,118.7,203.2z"/>
		<path class="st1" d="M144.4,190.6l6.3-3.1c0,0,0.8-0.7,0.8,0.2s0,8.3,0,8.3s0.1,0.5-0.6,0.9c-0.7,0.4-6.5,3.3-6.5,3.3
			s-0.7,0-0.7-0.8s0.1-7.9,0.1-7.9S144,190.6,144.4,190.6z"/>
		<ellipse transform="matrix(0.498 -0.8672 0.8672 0.498 -100.0866 217.7066)" class="st1" cx="138" cy="195.3" rx="2" ry="1.4"/>
		<ellipse transform="matrix(0.498 -0.8672 0.8672 0.498 -73.3009 234.4512)" class="st1" cx="165.9" cy="180.5" rx="2" ry="1.4"/>
		<ellipse transform="matrix(0.498 -0.8672 0.8672 0.498 -74.6579 239.0812)" class="st1" cx="169.2" cy="184" rx="2" ry="1.4"/>
		<ellipse transform="matrix(0.498 -0.8672 0.8672 0.498 -82.2138 239.9339)" class="st1" cx="166.1" cy="191" rx="2" ry="1.4"/>
		<ellipse transform="matrix(0.498 -0.8672 0.8672 0.498 -69.4927 248.91)" class="st1" cx="180.2" cy="184.5" rx="2" ry="1.4"/>
		<ellipse transform="matrix(0.498 -0.8672 0.8672 0.498 -84.3506 232.1871)" class="st1" cx="158.4" cy="189" rx="1.3" ry="0.9"/>
		<ellipse transform="matrix(0.498 -0.8672 0.8672 0.498 -105.8125 221.0211)" class="st1" cx="138" cy="201.9" rx="2" ry="1.4"/>
		<line class="st1" x1="109.7" y1="201.3" x2="114.6" y2="199"/>
		<path class="st1" d="M105.4,194.1c1.7-0.3,3,0.1,3,0.1s3.1,1.2,4.6,2.1c1.7,1,1.7,2.3,1.7,2.3V222c0,0,0.3,0.9-0.7,1.4
			c-1.2,0.6-4.7,2.4-4.7,2.4s-1.3,0.4-3.3-0.5c-1.9-0.9-9.4-4.8-12.1-17.3c0,0-1.7-10,5.9-12.4c0,0,4.9-0.5,5-2.1c0,0-0.5-0.9-5.3,2
			"/>
		<path class="st1" d="M109.5,225.4v-22.9c0,0,0.2-2.3-1-3.1l-5.7-2.6c0,0-1.7-0.6-4.4,0.4"/>
		<path class="st1" d="M100.8,219.9c0,0-4.4-3.8-5.8-12.6c0,0-0.9-8.7,5-9.9c0,0,2.1-0.9,8.4,3v24.3c0,0-1.6,0.2-4-1.6"/>
		<path class="st1" d="M108.2,206.1l-1.3-0.6c0,0-3.5-0.4-5.5,4.7c0,0-0.5,2.5-0.5,3.9s0.1,6.6,0.1,6.6s1.3,3.7,4.7,2.1
			c0,0,2.5-1.7,2.7-3.1"/>
		<path class="st1" d="M101.5,197.6c0,0-2.9,5.3-0.1,12.6"/>
		<path class="st1" d="M108.3,207.3l-1.2-0.7c0,0-3.4,0.3-4.7,5.4v8.2c0,0-0.3,3.6,4.1,1.8"/>
		
			<ellipse transform="matrix(0.4022 -0.9156 0.9156 0.4022 -109.5042 128.4204)" class="st1" cx="43.6" cy="148.1" rx="1.6" ry="1.2"/>
		
			<ellipse transform="matrix(0.4022 -0.9156 0.9156 0.4022 -114.9062 131.9478)" class="st1" cx="43.6" cy="154" rx="1.6" ry="1.2"/>
		<polygon class="st1" points="144,184.9 136.1,180.9 136.1,174 144,178 		"/>
		<g>
			<polyline class="st1" points="138.5,180.3 137.1,179.5 137.1,175.5 143,178.4 143,182.5 141.5,181.8 			"/>
			<polyline class="st1" points="141.5,181.8 141.5,182.6 138.5,181.1 138.5,180.3 			"/>
		</g>
		<ellipse class="st1" cx="81.2" cy="131" rx="2.1" ry="1"/>
		<ellipse class="st1" cx="105" cy="142.9" rx="2.1" ry="1"/>
		<path class="st1" d="M113.4,153.2v4.5c0,0-0.3,2.1,1.3,2.7l2.8,1.3"/>
		<polygon class="st1" points="121.8,169.7 115.3,166.5 115.3,163.2 121.8,166.5 		"/>
		<ellipse transform="matrix(0.9368 -0.35 0.35 0.9368 -50.3565 49.8217)" class="st1" cx="112.7" cy="164.3" rx="1" ry="1.4"/>
		<line class="st1" x1="146.9" y1="178.3" x2="146.9" y2="184.9"/>
		<path class="st1" d="M83.6,143.6v-2.3c0.1-0.9-0.8-1.5-0.8-1.5l-8.7-4.4c-1-0.4-0.9,0.7-0.9,0.7v2.4c0,0-0.1,0.7,0.7,1.1l9,4.6
			C82.9,144.1,83.5,144.5,83.6,143.6z"/>
		<path class="st1" d="M73.4,135.4l0.9-0.5c0,0,0.4-0.2,0.8,0l8.6,4.3c0,0,0.9,0.6,0.8,1.5v2.3c0,0.6-0.2,0.7-0.2,0.7l-1.2,0.6"/>
		<path class="st1" d="M87.6,144.1"/>
		<path class="st1" d="M237.6,135.3l-10.6,5.4c0,0,1.4,0.2,1.2,1.3"/>
		<polyline class="st1" points="227.7,141.2 223.8,143.2 223,142.8 208.8,150 208.8,151.8 		"/>
		<path class="st1" d="M203.3,154.5l-3.7-1.8c0,0-0.9-0.3-1.3,1.2l-0.1,3"/>
		<path class="st1" d="M208.8,150l-14.1-6.8l1.5-2.2l3.7-1.8c0,0,0.4-0.3,1,0c0.6,0.3,1.9,0.9,1.9,0.9"/>
		<line class="st1" x1="125.8" y1="102.6" x2="79" y2="126.2"/>
		<path class="st2" d="M285.1,119.6c0,0,1.2,0.9-0.1,2l-0.6,0.3l-12.9,6.4c0,0-0.5,0.4-0.5,1s0.1,3.7,0.1,3.7s-0.1,0.7,0.7,0.4
			s13.1-6.5,13.1-6.5s0.9-0.3,0.9,0.6c0,0.9,0,1.6,0,1.6s0.5,0.7,1-0.3c0,0,0.9-0.9-0.8-2.3c-1.7-1.4-1.3-1.4-1.3-1.4l0.1-3.2"/>
		<line class="st2" x1="287.1" y1="128" x2="294.2" y2="124.4"/>
		<path class="st2" d="M283.3,122.6l0,1.3c0,0,0.2,0.4-0.5,0.8c-0.2,0.1-0.5,0.2-0.7,0.3c-0.4,0.2-0.7,0.3-0.7,0.3l0,1.5l1.6-0.8"/>
		<path class="st2" d="M282.1,125l0.7,0.4c0,0,0.6,0.3,0.4,1.2l0,1.1"/>
		<path class="st1" d="M238.5,137c0,0,0-1.2,1-1.7s8.9-4.3,8.9-4.3s0.4-0.5,1.5,0.2"/>
		<path class="st1" d="M239.6,137c0,0,0-0.9,1.3-1.6c1.3-0.6,8-3.9,8-3.9s0.9-0.4,1.5-0.1"/>
		<path class="st1" d="M240.1,141.5l10.2-5.1c0,0,0.8-0.3,0.1-1.1l0-6.1"/>
		<line class="st1" x1="195.1" y1="143.4" x2="195.1" y2="148.6"/>
		<path class="st1" d="M194.9,147.4c0,0-0.9,1,0.6,1.6c0.4,0.1,0.9,0.4,1.5,0.7c1.8,0.8,4.3,2,4.3,2s0.7,0.1,0.2,1.8"/>
		<polyline class="st1" points="195,158.5 195.2,154.4 194.6,154.1 196,151.9 196.9,151.3 197,149.7 		"/>
		<polyline class="st1" points="153.8,145 152.3,144.3 142.1,149.4 142,153 		"/>
		<line class="st1" x1="142.1" y1="149.4" x2="145.3" y2="150.8"/>
		<polyline class="st1" points="142,152.6 141.3,153 145.4,154.9 145.5,153 		"/>
		<polyline class="st1" points="147.6,154.2 145,155.6 172.8,169.5 		"/>
		<polyline class="st1" points="188.2,161.9 155.6,145.6 145.5,150.7 178.1,167 		"/>
		<polyline class="st1" points="176.7,167.6 145.5,151.9 145.5,150.7 		"/>
		<polyline class="st1" points="175.9,168.2 145.5,153 145.5,151.7 		"/>
		<path class="st1" d="M155.2,142.3c0,0,1.5,0.5,0.5,1.9s-2.2,0.1-1.2,1.9"/>
		<path class="st1" d="M118.3,146.3c0,0,0.9,0.5,0.9,1c0,0.8,0,0.9,0,0.9s0.1,1-0.9,1.4c-1.1,0.4-5.6,2.7-5.6,2.7"/>
		<path class="st1" d="M111.2,149.7c0,0,0.7,0.3,0.8,0.8c0,0.5,0.1,1.8,0.1,1.8"/>
		<polyline class="st1" points="122.6,149.3 121.2,150 121.3,155.7 		"/>
		<polyline class="st1" points="123.5,159.1 130,162.3 130.1,166.2 127.1,167.9 		"/>
		<line class="st1" x1="123.4" y1="165.9" x2="130" y2="162.3"/>
		<polyline class="st1" points="129.8,169.5 133.2,167.7 136.5,169.4 134.9,170.3 		"/>
		<polyline class="st1" points="137.4,171.4 137.4,170.4 136.4,170.9 		"/>
		<line class="st1" x1="136.5" y1="169.4" x2="137.4" y2="170.4"/>
		<path class="st1" d="M128,170.5l3.1,1.5c0,0,0.8,0.4,0.7,1.3c-0.1,0.8-0.1,0.9-0.8,0.9c-0.7-0.1-2.9-1.4-2.9-1.4s-0.7-0.7-0.8-1.5
			C127.2,170.5,128,170.5,128,170.5z"/>
		<polyline class="st1" points="167.1,143.3 165.8,143.9 172.2,147.1 187.3,139.5 186.4,139.2 		"/>
		<polyline class="st3" points="168.1,141.3 167.3,141.7 167.2,142.1 172.2,144.5 172.9,144.5 186.4,137.8 186.4,137.4 185.6,137 		
			"/>
		<polyline class="st3" points="170.1,145.4 172.2,146.4 172.8,146.2 172.8,145.6 		"/>
		<polyline class="st3" points="167.2,142.1 167.3,144 168.9,144.8 		"/>
		<polyline class="st3" points="186.4,137.8 186.4,139.3 185.9,139.6 185.2,139.4 		"/>
		<polyline class="st3" points="186.2,138.8 173,145.5 172.3,145.5 		"/>
		<line class="st3" x1="172.9" y1="144.5" x2="172.9" y2="145.4"/>
		<line class="st3" x1="172.2" y1="144.5" x2="172.2" y2="146.4"/>
		<polyline class="st3" points="168.9,143.4 169,145.1 169.7,145.4 170.1,145.3 170.1,143.5 169.7,143.7 169,143.3 169.3,143.1 		
			"/>
		<line class="st3" x1="169.6" y1="143.8" x2="169.7" y2="145.4"/>
		<line class="st3" x1="185.8" y1="139" x2="185.9" y2="139.6"/>
		<g>
			<g>
				<polygon class="st4" points="169.8,140.2 169.3,139.9 169.7,139.7 170.2,140 				"/>
				<polygon class="st4" points="170.8,139.6 170.4,139.8 170,139.6 170.4,139.4 				"/>
				<polygon class="st4" points="171.5,139.3 171.1,139.5 170.7,139.3 171.1,139.1 				"/>
				<polygon class="st4" points="172.2,139 171.8,139.2 171.3,138.9 171.7,138.7 				"/>
				<polygon class="st4" points="172.8,138.6 172.4,138.8 172,138.6 172.4,138.4 				"/>
				<polygon class="st4" points="173.5,138.3 173.1,138.5 172.7,138.3 173.1,138.1 				"/>
				<polygon class="st4" points="174.2,138 173.8,138.2 173.3,137.9 173.7,137.7 				"/>
				<polygon class="st4" points="174.8,137.6 174.4,137.8 174,137.6 174.4,137.4 				"/>
				<polygon class="st4" points="175.5,137.3 175.1,137.5 174.7,137.3 175.1,137.1 				"/>
				<polygon class="st4" points="176.2,137 175.8,137.2 175.3,136.9 175.7,136.7 				"/>
				<polygon class="st4" points="176.8,136.6 176.4,136.8 176,136.6 176.4,136.4 				"/>
				<polygon class="st4" points="177.5,136.3 177.1,136.5 176.7,136.3 177.1,136.1 				"/>
				<polygon class="st4" points="178.2,136 177.8,136.2 177.3,135.9 177.7,135.7 				"/>
				<polygon class="st4" points="178.8,135.6 178.4,135.8 178,135.6 178.4,135.4 				"/>
				<polygon class="st4" points="179.5,135.3 179.1,135.5 178.7,135.3 179.1,135.1 				"/>
				<polygon class="st4" points="180.2,135 179.8,135.2 179.3,134.9 179.7,134.7 				"/>
				<polygon class="st4" points="180.4,134.8 180,134.6 180.4,134.4 180.8,134.6 				"/>
			</g>
		</g>
		<g>
			<g>
				<polygon class="st4" points="171,140.8 170.5,140.5 170.9,140.3 171.3,140.6 				"/>
				<polygon class="st4" points="172,140.2 171.6,140.4 171.2,140.2 171.6,140 				"/>
				<polygon class="st4" points="172.7,139.9 172.3,140.1 171.9,139.9 172.2,139.7 				"/>
				<polygon class="st4" points="173.3,139.6 173,139.8 172.5,139.5 172.9,139.3 				"/>
				<polygon class="st4" points="174,139.2 173.6,139.4 173.2,139.2 173.6,139 				"/>
				<polygon class="st4" points="174.7,138.9 174.3,139.1 173.9,138.9 174.2,138.7 				"/>
				<polygon class="st4" points="175.3,138.6 175,138.8 174.5,138.5 174.9,138.3 				"/>
				<polygon class="st4" points="176,138.2 175.6,138.4 175.2,138.2 175.6,138 				"/>
				<polygon class="st4" points="176.7,137.9 176.3,138.1 175.9,137.9 176.2,137.7 				"/>
				<polygon class="st4" points="177.3,137.6 177,137.8 176.5,137.5 176.9,137.3 				"/>
				<polygon class="st4" points="178,137.2 177.6,137.4 177.2,137.2 177.6,137 				"/>
				<polygon class="st4" points="178.7,136.9 178.3,137.1 177.9,136.9 178.3,136.7 				"/>
				<polygon class="st4" points="179.4,136.6 179,136.8 178.5,136.5 178.9,136.3 				"/>
				<polygon class="st4" points="180,136.2 179.6,136.4 179.2,136.2 179.6,136 				"/>
				<polygon class="st4" points="180.7,135.9 180.3,136.1 179.9,135.9 180.3,135.7 				"/>
				<polygon class="st4" points="181.4,135.6 181,135.8 180.5,135.5 180.9,135.3 				"/>
				<polygon class="st4" points="181.6,135.4 181.2,135.2 181.6,135 182,135.2 				"/>
			</g>
		</g>
		<g>
			<g>
				<polygon class="st4" points="172.1,141.4 171.7,141.1 172.1,140.9 172.5,141.2 				"/>
				<polygon class="st4" points="173.2,140.8 172.8,141 172.4,140.8 172.8,140.6 				"/>
				<polygon class="st4" points="173.9,140.5 173.5,140.7 173,140.4 173.4,140.2 				"/>
				<polygon class="st4" points="174.5,140.2 174.1,140.4 173.7,140.1 174.1,139.9 				"/>
				<polygon class="st4" points="175.2,139.8 174.8,140 174.4,139.8 174.8,139.6 				"/>
				<polygon class="st4" points="175.9,139.5 175.5,139.7 175,139.4 175.4,139.2 				"/>
				<polygon class="st4" points="176.5,139.2 176.1,139.4 175.7,139.1 176.1,138.9 				"/>
				<polygon class="st4" points="177.2,138.8 176.8,139 176.4,138.8 176.8,138.6 				"/>
				<polygon class="st4" points="177.9,138.5 177.5,138.7 177,138.4 177.4,138.2 				"/>
				<polygon class="st4" points="178.5,138.2 178.1,138.4 177.7,138.1 178.1,137.9 				"/>
				<polygon class="st4" points="179.2,137.8 178.8,138 178.4,137.8 178.8,137.6 				"/>
				<polygon class="st4" points="179.9,137.5 179.5,137.7 179,137.4 179.4,137.2 				"/>
				<polygon class="st4" points="180.5,137.2 180.1,137.4 179.7,137.1 180.1,136.9 				"/>
				<polygon class="st4" points="181.2,136.8 180.8,137 180.4,136.8 180.8,136.6 				"/>
				<polygon class="st4" points="181.9,136.5 181.5,136.7 181,136.4 181.4,136.2 				"/>
				<polygon class="st4" points="182.5,136.2 182.1,136.4 181.7,136.1 182.1,135.9 				"/>
				<polygon class="st4" points="182.8,136 182.4,135.8 182.8,135.6 183.2,135.8 				"/>
			</g>
		</g>
		<g>
			<g>
				<polygon class="st4" points="173.3,141.9 172.9,141.7 173.3,141.5 173.7,141.7 				"/>
				<polygon class="st4" points="174.4,141.4 174,141.6 173.5,141.3 173.9,141.1 				"/>
				<polygon class="st4" points="175,141 174.6,141.2 174.2,141 174.6,140.8 				"/>
				<polygon class="st4" points="175.7,140.7 175.3,140.9 174.9,140.7 175.3,140.5 				"/>
				<polygon class="st4" points="176.4,140.4 176,140.6 175.5,140.3 175.9,140.1 				"/>
				<polygon class="st4" points="177,140 176.6,140.2 176.2,140 176.6,139.8 				"/>
				<polygon class="st4" points="177.7,139.7 177.3,139.9 176.9,139.7 177.3,139.5 				"/>
				<polygon class="st4" points="178.4,139.4 178,139.6 177.5,139.3 177.9,139.1 				"/>
				<polygon class="st4" points="179,139 178.6,139.2 178.2,139 178.6,138.8 				"/>
				<polygon class="st4" points="179.7,138.7 179.3,138.9 178.9,138.7 179.3,138.5 				"/>
				<polygon class="st4" points="180.4,138.4 180,138.6 179.6,138.3 179.9,138.1 				"/>
				<polygon class="st4" points="181,138 180.7,138.2 180.2,138 180.6,137.8 				"/>
				<polygon class="st4" points="181.7,137.7 181.3,137.9 180.9,137.7 181.3,137.5 				"/>
				<polygon class="st4" points="182.4,137.4 182,137.6 181.6,137.3 181.9,137.1 				"/>
				<polygon class="st4" points="183,137 182.7,137.2 182.2,137 182.6,136.8 				"/>
				<polygon class="st4" points="183.7,136.7 183.3,136.9 182.9,136.7 183.3,136.5 				"/>
				<polygon class="st4" points="184,136.6 183.6,136.3 183.9,136.1 184.4,136.4 				"/>
			</g>
		</g>
		<polyline class="st3" points="169.3,142.7 168.1,142 168.1,140.6 169.1,140 169.5,140.3 169.2,140.5 169.9,140.8 170.2,140.6 
			170.7,140.9 170.4,141.1 		"/>
		<line class="st3" x1="169.5" y1="141.3" x2="168.1" y2="140.6"/>
		<polygon class="st3" points="171.4,141.2 170.7,141.6 170.6,141.8 170.6,143.2 172.3,144.1 172.2,142.4 173.1,142 172.6,141.8 
			172.3,142 171.6,141.6 171.9,141.5 		"/>
		<line class="st3" x1="170.7" y1="141.9" x2="172.1" y2="142.6"/>
		<polyline class="st3" points="169.4,143.1 169.4,141.4 170.1,140.9 170.7,141.6 		"/>
		<line class="st3" x1="170.1" y1="143.5" x2="170.1" y2="141"/>
		<polyline class="st3" points="169.5,141.5 170,141.7 170.6,141.5 		"/>
		<polygon class="st3" points="185.6,136 184.8,136.4 184.8,137.8 185.6,137.4 		"/>
		<polyline class="st3" points="172.3,144.1 173,143.7 173.1,142.1 		"/>
		<line class="st3" x1="173.2" y1="143.6" x2="184.6" y2="137.8"/>
		<polyline class="st3" points="180.6,134.3 181.4,133.9 185.6,136 		"/>
		<polyline class="st3" points="181.8,134 182.4,133.6 183.1,134.1 183.1,134.7 		"/>
		<polyline class="st3" points="184.2,135.2 184.8,134.8 185.5,135.2 185.5,135.9 		"/>
		<polyline class="st3" points="184.7,134.9 184.9,135.6 185.5,135.2 		"/>
		<polyline class="st3" points="182.4,133.7 182.6,134.4 183.1,134.1 		"/>
		<line class="st3" x1="181.1" y1="134.5" x2="181.8" y2="134.2"/>
		<line class="st3" x1="181.8" y1="134.8" x2="182.5" y2="134.5"/>
		<line class="st3" x1="183.5" y1="135.7" x2="184.2" y2="135.3"/>
		<line class="st3" x1="184.2" y1="136" x2="184.9" y2="135.7"/>
		<path class="st1" d="M146.6,142.6l2.1,1.1c0,0,0.7,0.5,2.1-0.1c1.4-0.6,7.9-4.2,7.9-4.2"/>
		<path class="st1" d="M146.7,142.2v-4c0,0-0.1-1.7,1.3-1.6c0,0,1,0.1,1,2.2v4.9"/>
		<path class="st1" d="M151.2,135.1c0,0,1,0.1,1,2.2v5.3"/>
		<path class="st1" d="M155.5,140.9v-5.1c0-2-1-2.2-1-2.2v5.6"/>
		<line class="st1" x1="147.6" y1="136.5" x2="156.1" y2="132.5"/>
		<line class="st1" x1="151.2" y1="135.1" x2="151.2" y2="141"/>
		<path class="st1" d="M158.4,132.7c0.2,0.3,0.3,0.8,0.3,1.6v4.9"/>
		<polyline class="st1" points="155.6,138.7 157.8,137.5 157.8,132.8 		"/>
		<line class="st1" x1="152.3" y1="140.4" x2="154.5" y2="139.2"/>
		<line class="st1" x1="149.1" y1="142" x2="151.2" y2="140.9"/>
		<path class="st1" d="M158.8,138.1c0,0,3.1-0.6,2.1-2.3"/>
		<ellipse class="st1" cx="195.5" cy="138.3" rx="2.4" ry="1.1"/>
		<path class="st1" d="M195.1,145.1c-1.1-0.1-1.9-0.5-1.9-1v-5.8"/>
		<line class="st1" x1="197.9" y1="138.3" x2="197.9" y2="139.9"/>
		<g>
			<polyline class="st1" points="206.3,127.2 206.3,125.8 204.2,126.8 204.2,133.1 203.2,132.7 203.2,133.6 			"/>
			<polyline class="st1" points="204.7,133.5 205.8,134 205.8,127.7 207.9,126.7 207.9,128 			"/>
			<polyline class="st1" points="206.3,134.3 207.3,134.8 207.3,128.5 209.4,127.5 209.4,128.9 			"/>
			<polyline class="st1" points="207.8,135.2 208.8,135.7 208.8,129.4 210.9,128.4 211,129.8 			"/>
			<polyline class="st1" points="210.4,135.4 210.4,130.2 212.5,129.2 212.5,130.7 			"/>
			<polyline class="st1" points="211.9,134.7 211.9,131.1 214,130.1 214,133.5 			"/>
		</g>
		<g>
			<polyline class="st1" points="207.1,127 207.1,125.4 209.2,124.3 209.2,125.7 			"/>
			<polyline class="st1" points="208.7,127.8 208.7,126.2 210.8,125.2 210.8,126.5 			"/>
			<polyline class="st1" points="210.2,128.7 210.2,127 212.3,126 212.3,127.4 			"/>
			<polyline class="st1" points="211.7,129.6 211.7,127.9 213.8,126.9 213.9,128.3 			"/>
			<polyline class="st1" points="213.3,130.4 213.3,128.7 215.4,127.7 215.4,129.2 			"/>
			<polyline class="st1" points="214.8,133.2 214.8,129.6 216.9,128.6 216.9,132 			"/>
		</g>
		<g>
			<polyline class="st1" points="210,125.5 210,123.9 212.1,122.8 212.1,124.2 			"/>
			<polyline class="st1" points="211.6,126.4 211.6,124.7 213.7,123.7 213.7,125.1 			"/>
			<polyline class="st1" points="213.1,127.2 213.1,125.6 215.2,124.5 215.2,125.9 			"/>
			<polyline class="st1" points="214.7,128.1 214.7,126.4 216.8,125.4 216.8,126.8 			"/>
			<polyline class="st1" points="216.2,128.9 216.2,127.2 218.3,126.2 218.3,127.7 			"/>
			<polyline class="st1" points="217.7,131.7 217.7,128.1 219.8,127.1 219.8,130.5 			"/>
		</g>
		<g>
			<polyline class="st1" points="212.9,124 212.9,122.4 215,121.4 215,122.7 			"/>
			<polyline class="st1" points="214.4,124.9 214.4,123.2 216.5,122.2 216.5,123.6 			"/>
			<polyline class="st1" points="216,125.7 216,124.1 218.1,123 218.1,124.4 			"/>
			<polyline class="st1" points="217.5,126.6 217.5,124.9 219.6,123.9 219.6,125.3 			"/>
			<polyline class="st1" points="219,127.4 219,125.8 221.2,124.7 221.2,126.2 			"/>
			<polyline class="st1" points="220.6,130.2 220.6,126.6 222.7,125.6 222.7,129 			"/>
		</g>
		<g>
			<polyline class="st1" points="215.6,122.7 215.6,121 217.7,120 217.7,121.4 			"/>
			<polyline class="st1" points="217.1,123.5 217.1,121.9 219.2,120.9 219.3,122.2 			"/>
			<polyline class="st1" points="218.7,124.4 218.7,122.7 220.8,121.7 220.8,123.1 			"/>
			<polyline class="st1" points="220.2,125.2 220.2,123.6 222.3,122.5 222.3,123.9 			"/>
			<polyline class="st1" points="221.8,126.1 221.8,124.4 223.9,123.4 223.9,124.8 			"/>
			<polyline class="st1" points="223.3,128.9 223.3,125.3 225.4,124.2 225.4,127.7 			"/>
		</g>
		<g>
			<polyline class="st1" points="218.4,121.3 218.4,119.6 220.5,118.6 220.5,120 			"/>
			<polyline class="st1" points="219.9,122.1 219.9,120.5 222,119.5 222,120.8 			"/>
			<polyline class="st1" points="221.5,123 221.5,121.3 223.6,120.3 223.6,121.7 			"/>
			<polyline class="st1" points="223,123.8 223,122.2 225.1,121.2 225.1,122.6 			"/>
			<polyline class="st1" points="224.5,124.7 224.5,123 226.6,122 226.7,123.4 			"/>
			<polyline class="st1" points="226.1,127.5 226.1,123.9 228.2,122.8 228.2,126.3 			"/>
		</g>
		<g>
			<polyline class="st1" points="221.2,119.9 221.2,118.2 223.3,117.2 223.3,118.6 			"/>
			<polyline class="st1" points="222.7,120.7 222.7,119.1 224.8,118.1 224.8,119.4 			"/>
			<polyline class="st1" points="224.2,121.6 224.2,119.9 226.4,118.9 226.4,120.3 			"/>
			<polyline class="st1" points="225.8,122.5 225.8,120.8 227.9,119.8 227.9,121.2 			"/>
			<polyline class="st1" points="227.3,123.3 227.3,121.6 229.4,120.6 229.4,122.1 			"/>
			<polyline class="st1" points="228.9,126.1 228.9,122.5 231,121.5 231,124.9 			"/>
		</g>
		<g>
			<polyline class="st1" points="223.9,118.5 223.9,116.8 226.1,115.8 226.1,117.2 			"/>
			<polyline class="st1" points="225.5,119.3 225.5,117.7 227.6,116.7 227.6,118 			"/>
			<polyline class="st1" points="227,120.2 227,118.5 229.1,117.5 229.1,118.9 			"/>
			<polyline class="st1" points="228.6,121.1 228.6,119.4 230.7,118.4 230.7,119.8 			"/>
			<polyline class="st1" points="230.1,121.9 230.1,120.2 232.2,119.2 232.2,120.7 			"/>
			<polyline class="st1" points="231.6,124.7 231.6,121.1 233.8,120.1 233.8,123.5 			"/>
		</g>
		<g>
			<polyline class="st1" points="226.7,117.1 226.7,115.5 228.8,114.4 228.8,115.8 			"/>
			<polyline class="st1" points="228.3,118 228.3,116.3 230.4,115.3 230.4,116.7 			"/>
			<polyline class="st1" points="229.8,118.8 229.8,117.2 231.9,116.1 231.9,117.5 			"/>
			<polyline class="st1" points="231.3,119.7 231.3,118 233.5,117 233.5,118.4 			"/>
			<polyline class="st1" points="232.9,120.5 232.9,118.8 235,117.8 235,119.3 			"/>
			<polyline class="st1" points="234.4,123.3 234.4,119.7 236.5,118.7 236.5,122.1 			"/>
		</g>
		<g>
			<polyline class="st1" points="243.5,108.6 243.5,107 245.7,106 245.7,107.3 			"/>
			<polyline class="st1" points="245.1,109.5 245.1,107.8 247.2,106.8 247.2,108.2 			"/>
			<polyline class="st1" points="246.6,110.4 246.6,108.7 248.7,107.7 248.7,109.1 			"/>
			<polyline class="st1" points="248.2,111.2 248.2,109.5 250.3,108.5 250.3,110 			"/>
			<polyline class="st1" points="249.7,111.4 249.7,110.4 251.8,109.4 251.8,110.4 			"/>
		</g>
		<g>
			<polyline class="st1" points="233.8,115.1 233.8,113.6 235.9,112.6 235.9,114 			"/>
			<polyline class="st1" points="235.3,116 235.3,114.4 237.4,113.4 237.5,114.8 			"/>
			<polyline class="st1" points="236.9,116.8 236.9,115.3 239,114.3 239,115.7 			"/>
			<polyline class="st1" points="238.4,117.6 238.4,116.1 240.5,115.1 240.5,116.3 			"/>
		</g>
		<g>
			<polyline class="st1" points="236.6,113.6 236.6,112.2 238.7,111.1 238.8,112.5 			"/>
			<polyline class="st1" points="238.2,114.5 238.2,113 240.3,112 240.3,113.4 			"/>
			<polyline class="st1" points="239.7,115.3 239.7,113.9 241.8,112.8 241.8,114.3 			"/>
			<polyline class="st1" points="241.3,115.9 241.3,114.7 243.4,113.7 243.4,114.9 			"/>
		</g>
		<g>
			<polyline class="st1" points="239.5,112.2 239.5,110.7 241.6,109.7 241.6,111.1 			"/>
			<polyline class="st1" points="241,113.1 241,111.6 243.1,110.6 243.1,112 			"/>
			<polyline class="st1" points="242.6,113.9 242.6,112.4 244.7,111.4 244.7,112.9 			"/>
			<polyline class="st1" points="244.1,114.5 244.1,113.3 246.2,112.3 246.2,113.4 			"/>
		</g>
		<g>
			<polyline class="st1" points="242.3,110.7 242.3,109.3 244.4,108.3 244.4,109.6 			"/>
			<polyline class="st1" points="243.9,111.7 243.9,110.1 246,109.1 246,110.5 			"/>
			<polyline class="st1" points="245.4,112.5 245.4,111 247.5,110 247.5,111.4 			"/>
			<polyline class="st1" points="246.9,113 246.9,111.8 249,110.8 249.1,112 			"/>
		</g>
		<g>
			<polyline class="st1" points="229.5,115.7 229.5,114.1 231.6,113.1 231.6,114.4 			"/>
			<polyline class="st1" points="231.1,116.6 231.1,114.9 233.2,113.9 233.2,115.3 			"/>
			<polyline class="st1" points="232.6,117.4 232.6,115.8 234.7,114.7 234.7,116.1 			"/>
			<polyline class="st1" points="234.1,118.3 234.1,116.6 236.2,115.6 236.2,117 			"/>
			<polyline class="st1" points="235.7,119.1 235.7,117.5 237.8,116.4 237.8,117.9 			"/>
			<polyline class="st1" points="237.2,120.8 237.2,118.3 239.3,117.3 			"/>
		</g>
		<polyline class="st1" points="202.7,139.3 199,137.5 201,136.5 201.6,136.8 204.8,135.1 		"/>
		<line class="st1" x1="205.2" y1="138.1" x2="202.2" y2="136.5"/>
		<polyline class="st1" points="203.2,135.8 203.2,133.6 208.7,136.4 		"/>
		<ellipse transform="matrix(0.2857 -0.9583 0.9583 0.2857 24.8651 333.3247)" class="st1" cx="236" cy="150" rx="1.9" ry="1.4"/>
		
			<ellipse transform="matrix(0.2857 -0.9583 0.9583 0.2857 50.9191 346.1991)" class="st1" cx="257.7" cy="138.9" rx="1.9" ry="1.4"/>
		<path class="st5" d="M275.2,108.9c0.2-0.8,0.8-1.5,1.7-1.7c1.2-0.2,2.3,0.5,2.6,1.6c0.2,0.8-0.1,1.5-0.7,2"/>
		<path class="st5" d="M273.6,107.8c0.2-0.8,0.8-1.5,1.7-1.7c0.8-0.2,1.7,0.1,2.1,0.7"/>
		<path class="st5" d="M271.9,106.9c0.2-0.8,0.8-1.5,1.7-1.7c0.8-0.2,1.7,0.1,2.1,0.7"/>
		<path class="st5" d="M270.1,106c0.2-0.8,0.8-1.5,1.7-1.7c0.8-0.2,1.7,0.1,2.1,0.7"/>
		<line class="st5" x1="261.8" y1="105.5" x2="261.8" y2="108.3"/>
		<line class="st5" x1="263.1" y1="105.3" x2="263.1" y2="107.5"/>
		<path class="st6" d="M173.3,92.3c-2.2-0.8-3-4.2-1.7-7.5c1.2-3.3,4-5.3,6.2-4.5c2.2,0.8,3,4.2,1.7,7.5c-0.2,0.5-0.4,1-0.7,1.4"/>
		<path class="st6" d="M171.2,82.9c1.3-2.3,3.5-3.7,5.3-3.2l1.4,0.6"/>
		<path class="st6" d="M172.2,91.7"/>
		<path class="st7" d="M176.3,79.6l0.9-0.5c0,0,3.4,0.7,3.7,4.8v4.7"/>
		<path class="st7" d="M167.4,90.5c0,0-0.3-6.4,1.9-7.4l1.3,0.6c0,0,0.4,0.7,0,1.7c-0.4,1-0.5,5.6-0.4,6.4"/>
		<path class="st7" d="M169.4,83l0.6-0.3l1.3,0.6c0,0,0.3,0.5,0.2,1.2c-0.1,0.7-1.5,6,0.7,7.3"/>
		<polyline class="st7" points="178.7,90.1 178.6,88.8 178,88.5 173.3,90.8 174,91 174,92.1 		"/>
		<g>
			<line class="st8" x1="175.8" y1="84.1" x2="175.9" y2="86.9"/>
			<line class="st8" x1="174.6" y1="86" x2="177.1" y2="85.1"/>
		</g>
		
			<ellipse transform="matrix(0.9011 -0.4336 0.4336 0.9011 -19.5994 102.4057)" class="st8" cx="214.7" cy="94.2" rx="1.4" ry="1.9"/>
		<text transform="matrix(0.7325 -0.3565 6.281000e-02 0.998 240.7436 140.3402)" class="st9 st10">PUSH</text>
	</g>
</g>
<g id="White_Ghosting">
	<polygon class="st11" points="72.1,156 115.8,154.3 143.3,163.3 166.1,173.5 162.1,175.4 160.9,176.6 153.8,179.8 106.9,191.6 
		105.6,176.8 69.2,160.2 	"/>
	<polygon class="st11" points="118.1,151.4 118.4,41.9 164.1,63.8 211.6,43.2 211,147.6 192.2,159.2 162.1,143 154.4,145.4 
		152.8,143.2 141.6,149.2 139.4,163.3 128.4,162 	"/>
</g>
<g id="Layer_8">
	<g>
		<path class="st12" d="M50.9,162.8l3.2-1.6l2.5,1.3l0.6,0.1l36.4,17.6l0.5,1.1l3.7-1.8l0.4,1.2l-1.1,0.5c0,0-1.6,0.9-1.1,2.5
			c0,0,0.8,1,1.8-0.3l0.4,0.3l0.2,0.9l-6.5,3.6h-0.5l-0.1,7.9c0,0,0,1.3-1.6,0.6s-38.3-19.1-38.3-19.1s-0.7-0.6-0.6-2.1
			c0.1-1.5-0.1-12.1-0.1-12.1L50.9,162.8z"/>
		<g class="st13">
			<path class="st14" d="M51,165.4c0-1.7,1.1-1.1,1.1-1.1l2.6,1.2c-0.1-0.9,0.5-0.7,0.5-0.7s32.6,16.3,34.3,17.1
				c1.7,0.8,1.3,1.8,1.3,1.8s0,10.7,0,12.2c0,1.4-1.6,0.6-1.6,0.6s-36.6-18.2-37.4-18.7c-0.8-0.4-0.8-1.3-0.8-1.3v-13.1
				c0,0-0.1-0.6,0.7-1c0.8-0.4,2.1-1,2.1-1s0.5-0.3,1,0c0.5,0.2,2.1,1.2,2.1,1.2"/>
			<line class="st14" x1="51.3" y1="162.7" x2="54.5" y2="164.3"/>
			<path class="st14" d="M54.5,164.9c0,0-0.1-0.8,0.6-1.2c0,0,0.1,0,0.1-0.1c0.8-0.4,2.1-0.9,2.1-0.9l36.2,17.7c0,0,0.3,0.2,0.4,0.8
				"/>
			<line class="st14" x1="55.1" y1="163.9" x2="91" y2="181.8"/>
			<path class="st14" d="M89.4,196.7l1.2,0.6c0,0,0.7,0,0.7-1.1c0-1.1,0-7.8,0-7.8"/>
			<path class="st14" d="M90.6,182.8c0,0,0.1-0.9,0.7-1.2c0.6-0.3,2.3-1.1,2.3-1.1"/>
			<path class="st14" d="M90.8,182.2c0.4,0.4,1.1,0.2,1.1,0.2l5.8-2.9l0.5,0.1v0.9c0,0,0.3,0.3-0.5,0.6c0,0-1.8,0.1-1.8,2.6
				c0,0,0.5,1.6,1.9,0l0.5,0.1l0.1,0.8c0,0,0.1,0.4-0.6,0.8c-0.7,0.4-5.9,3-5.9,3s-0.8,0-1.1-0.2"/>
			<line class="st14" x1="91.7" y1="187.9" x2="91.7" y2="182.5"/>
			<ellipse transform="matrix(0.5 -0.866 0.866 0.5 -112.2502 172.8938)" class="st15" cx="93.6" cy="183.7" rx="1.5" ry="0.9"/>
			<ellipse class="st16" cx="57.7" cy="164" rx="0.9" ry="0.4"/>
			<ellipse class="st16" cx="90.9" cy="180.4" rx="0.9" ry="0.4"/>
			<polygon class="st17" points="77.5,189.9 70.6,186.4 70.6,180.3 77.5,183.8 			"/>
			<polygon class="st17" points="60.1,179.1 53.2,175.6 53.2,171.2 60.1,174.7 			"/>
			<polygon class="st17" points="68.2,183.5 62.7,180.7 62.7,176.5 68.2,179.2 			"/>
			<path class="st17" d="M79,185.5c0-0.9,0.4-0.7,0.4-0.7l6,3c0,0,0.7,0.3,0.7,1.1c0,0.8,0,4.4,0,4.4s0.2,0.9-0.7,0.5
				c-1-0.5-6-3-6-3c-0.1,0-0.2-0.1-0.2-0.2c-0.1-0.1-0.1-0.2-0.1-0.3L79,185.5z"/>
			<path class="st14" d="M65.2,171l20.5,10.2c0,0,0.7,0.4,0.7,1s0,3.4,0,3.4s0.1,0.9-0.6,0.6s-20.4-10.2-20.4-10.2s-0.7-0.5-0.8-1.3
				c-0.1-1.2,0-3.3,0-3.3S64.7,170.8,65.2,171z"/>
		</g>
	</g>
	<g>
		<g>
			<path class="st12" d="M119.5,39.2L138,30l0.1-3.7l1.4-0.5l-0.4-1.5l-1-1l0.3-1.2c0,0,1.4-1,2.3-1c0.9,0,2.6,0.1,2.6,1
				c0,0.9,0.2,1.6,0.2,1.6l-1,0.7v1.6c0,0,1.4,0.5,1.2,1.2l-0.1,1.9l1.4,1.1h4.1l-1.9-1.3v-1l2.8-1.4c0,0-1.5-2.3-0.3-2.6
				s2.7-0.6,3.1,0l0.9,1.4l0.3-4.6l1.8-0.7l0.2,2.1l1.2-0.5l0.1-2.3l1.8-1.2v1.4l1.6-0.4l-0.3-1.6l2.2-0.9v1.9l0.6-0.1l0.1-2.1
				l2.1-1.4l0.3,2l1.3-0.5l-0.2-2l2-1.2l0.1,1.1l15.6-7.9l23.8,12l0.1,1.2l-18.1,9.6l12.1,6c0,0,0.6-1.4,2-1.3l-0.6-1.3
				c0,0-2.2-2.4,0.5-3.3c0,0,2.4-0.2,2.7,0.5c0.3,0.6,1.6,0.6,0.5,2.3l-0.8,0.7l0.3,1.2c0,0,1,0.1,1,0.9v3.3l3.2,1.4l0.3,1.5
				l-6.9,3.4l-8.6-4.2l-8.6,4.5l-0.4,3.6l-3.1,1.8l2.6,1.8v1.3l-19.4,10.1l-4.1-2l-2.2,0.7l-26.5-13.2l-0.4-1.1l-14.6-7.4
				L119.5,39.2z"/>
			<g class="st13">
				<polyline class="st1" points="208,38.5 211.1,40 204.1,43.6 196.1,39.5 187,44.1 186.9,47.5 183.7,49.1 				"/>
				<polyline class="st1" points="205.1,16.9 208.2,18.5 188.5,28.6 202.3,35.6 				"/>
				<polyline class="st1" points="168.9,14.4 184.7,6.7 199.3,14 				"/>
				<polyline class="st1" points="133.7,46.8 119.5,39.5 138.2,30 				"/>
				<polyline class="st1" points="211.1,40.1 211.1,41.4 204.1,45 196.1,40.9 187,45.5 186.9,48.9 183.7,50.5 				"/>
				<polyline class="st1" points="208.2,18.6 208.2,19.9 189.8,29.3 				"/>
				<polyline class="st1" points="163.2,61.9 166.9,63.7 186.5,53.7 186.5,52.4 				"/>
				<polyline class="st1" points="133.7,48.2 119.5,40.9 119.5,39.5 				"/>
				<line class="st1" x1="166.9" y1="62.3" x2="166.9" y2="63.7"/>
				<line class="st1" x1="196.1" y1="39.5" x2="196.1" y2="40.9"/>
				<line class="st1" x1="204.1" y1="43.6" x2="204.1" y2="45"/>
				<polyline class="st1" points="143.5,29.3 145,30.2 148.9,30.2 				"/>
				<polyline class="st1" points="149.5,26.7 147.1,28 147.1,29.1 155.2,33.1 				"/>
				<path class="st1" d="M133.8,44.1l0.2,5.1l26.7,13.4c0,0,1.7,0.1,3.3-1.6l2.9,1.3l19.6-10l-2.9-1.4l-0.1-5l-26.8-13.4l-17.7,9
					l-0.6-0.1l-1.5,0.7l-1.1,0.2l-2.1,1.5l27,13.4l22.3-11"/>
				<line class="st1" x1="183.6" y1="51" x2="164" y2="61"/>
				<line class="st1" x1="163.6" y1="55.9" x2="163.7" y2="61.1"/>
				<line class="st1" x1="160.8" y1="57.1" x2="160.7" y2="62.6"/>
				<polyline class="st1" points="154,53.8 154,59.1 159.2,56.5 				"/>
				<polyline class="st1" points="147.3,50.6 147.3,55.6 152.5,53.1 				"/>
				<polyline class="st1" points="140.6,47.2 140.6,52.2 145.7,49.8 				"/>
				<line class="st1" x1="134" y1="49.1" x2="139.2" y2="46.5"/>
				<g>
					<ellipse class="st18" cx="140.8" cy="22.5" rx="2.6" ry="1.3"/>
					<path class="st3" d="M142.6,26.3c0.1,0.1,0.2,0.2,0.2,0.4c0,0.5-0.9,0.9-1.9,0.9s-1.9-0.4-1.9-0.9c0-0.1,0.1-0.3,0.2-0.4"/>
					<path class="st19" d="M142.4,24.8c-0.1,0.4-0.8,0.7-1.8,0.6c-0.9-0.1-1.6-0.6-1.5-1"/>
					<path class="st19" d="M142.2,25.2c0.2,0.2,0.2,0.3,0.2,0.5c-0.1,0.4-0.8,0.7-1.8,0.6c-0.9-0.1-1.6-0.6-1.5-1
						c0-0.1,0.1-0.2,0.2-0.3"/>
					<path class="st18" d="M142.4,25.9c0.6,0.2,1,0.6,1,1c0,0.7-1.2,1.3-2.6,1.3c-1.4,0-2.6-0.6-2.6-1.3c0-0.5,0.5-0.9,1.2-1.1"/>
					<path class="st18" d="M138.2,22.5v0.9c0,0.7,1.2,1.3,2.6,1.3c1.4,0,2.6-0.6,2.6-1.3v-0.9"/>
					<path class="st18" d="M138.2,26.7v4.7c0,0.7,1.2,1.3,2.6,1.3c1.4,0,2.6-0.6,2.6-1.3v-4.7"/>
					<path class="st19" d="M142.2,26.1c0.2,0.2,0.2,0.3,0.2,0.5c-0.1,0.4-0.8,0.7-1.8,0.6s-1.6-0.6-1.5-1c0-0.1,0.1-0.3,0.3-0.4"/>
					<line class="st3" x1="139.5" y1="22.9" x2="141.8" y2="21.8"/>
					<line class="st3" x1="141.6" y1="22.7" x2="140" y2="21.9"/>
				</g>
				<g>
					<ellipse class="st18" cx="202.2" cy="9.5" rx="2.6" ry="1.3"/>
					<path class="st3" d="M204,13.4c0.1,0.1,0.2,0.2,0.2,0.4c0,0.5-0.9,0.9-1.9,0.9c-1.1,0-1.9-0.4-1.9-0.9c0-0.1,0.1-0.3,0.2-0.4"
						/>
					<path class="st19" d="M203.9,11.8c-0.1,0.4-0.8,0.7-1.8,0.6c-0.9-0.1-1.6-0.6-1.5-1"/>
					<path class="st19" d="M203.7,12.3c0.2,0.2,0.2,0.3,0.2,0.5c-0.1,0.4-0.8,0.7-1.8,0.6c-0.9-0.1-1.6-0.6-1.5-1
						c0-0.1,0.1-0.2,0.2-0.3"/>
					<path class="st18" d="M203.8,12.9c0.6,0.2,1,0.6,1,1c0,0.7-1.2,1.3-2.6,1.3c-1.4,0-2.6-0.6-2.6-1.3c0-0.5,0.5-0.9,1.2-1.1"/>
					<path class="st18" d="M199.6,9.5v0.9c0,0.7,1.2,1.3,2.6,1.3c1.4,0,2.6-0.6,2.6-1.3V9.5"/>
					<path class="st18" d="M199.6,13.8v4.7c0,0.7,1.2,1.3,2.6,1.3c1.4,0,2.6-0.6,2.6-1.3v-4.7"/>
					<path class="st19" d="M203.7,13.2c0.2,0.2,0.2,0.3,0.2,0.5c-0.1,0.4-0.8,0.7-1.8,0.6c-0.9-0.1-1.6-0.6-1.5-1
						c0-0.1,0.1-0.3,0.3-0.4"/>
					<line class="st3" x1="200.9" y1="10" x2="203.2" y2="8.9"/>
					<line class="st3" x1="203" y1="9.7" x2="201.4" y2="9"/>
				</g>
				<g>
					<ellipse class="st18" cx="205.2" cy="30.8" rx="2.6" ry="1.3"/>
					<path class="st3" d="M206.9,34.6c0.1,0.1,0.2,0.2,0.2,0.4c0,0.5-0.9,0.9-1.9,0.9c-1.1,0-1.9-0.4-1.9-0.9c0-0.1,0.1-0.3,0.2-0.4
						"/>
					<path class="st19" d="M206.8,33.1c-0.1,0.4-0.8,0.7-1.8,0.6c-0.9-0.1-1.6-0.6-1.5-1"/>
					<path class="st19" d="M206.6,33.5c0.2,0.2,0.2,0.3,0.2,0.5c-0.1,0.4-0.8,0.7-1.8,0.6s-1.6-0.6-1.5-1c0-0.1,0.1-0.2,0.2-0.3"/>
					<path class="st18" d="M206.8,34.1c0.6,0.2,1,0.6,1,1c0,0.7-1.2,1.3-2.6,1.3c-1.4,0-2.6-0.6-2.6-1.3c0-0.5,0.5-0.9,1.2-1.1"/>
					<path class="st18" d="M202.5,30.8v0.9c0,0.7,1.2,1.3,2.6,1.3c1.4,0,2.6-0.6,2.6-1.3v-0.9"/>
					<path class="st18" d="M202.5,35v4.7c0,0.7,1.2,1.3,2.6,1.3c1.4,0,2.6-0.6,2.6-1.3V35"/>
					<path class="st19" d="M206.6,34.4c0.2,0.2,0.2,0.3,0.2,0.5c-0.1,0.4-0.8,0.7-1.8,0.6c-0.9-0.1-1.6-0.6-1.5-1
						c0-0.1,0.1-0.3,0.3-0.4"/>
					<line class="st3" x1="203.9" y1="31.2" x2="206.1" y2="30.1"/>
					<line class="st3" x1="205.9" y1="31" x2="204.3" y2="30.2"/>
				</g>
				<g>
					<polyline class="st20" points="168.8,36.7 168.8,32.8 166.6,33.9 166.6,37.3 					"/>
					<polyline class="st20" points="172.1,35.1 172.1,31.2 169.8,32.3 169.8,35.9 170.3,36.1 169.1,36.7 					"/>
					<polyline class="st20" points="175.2,33.5 175.2,29.6 173,30.7 173,34.3 173.4,34.5 172.3,35.1 					"/>
					<polyline class="st20" points="178.4,31.9 178.4,28 176.1,29.1 176.1,32.7 176.6,32.9 175.5,33.5 					"/>
					<polyline class="st20" points="178.7,32 179.8,31.4 179.3,31.1 179.3,27.6 181.6,26.5 181.6,30.4 187.7,27.4 185.8,26.4 					
						"/>
				</g>
				<g>
					<polyline class="st20" points="166.6,33.8 166.6,31.8 164.4,32.9 164.4,36.1 					"/>
					<polyline class="st20" points="169.9,32.2 169.9,30.2 167.6,31.3 167.6,33.3 					"/>
					<polyline class="st20" points="173,30.6 173,28.6 170.8,29.7 170.8,31.8 					"/>
					<polyline class="st20" points="176.2,29 176.2,27 174,28.1 174,30.1 					"/>
					<polyline class="st20" points="179.4,27.5 179.4,25.5 177.2,26.6 177.2,28.5 					"/>
				</g>
				<g>
					<polyline class="st20" points="164.4,32.7 164.4,30.6 162.2,31.7 162.2,35 					"/>
					<polyline class="st20" points="167.7,31 167.7,29 165.4,30.1 165.4,32.2 					"/>
					<polyline class="st20" points="170.8,29.4 170.8,27.4 168.6,28.5 168.6,30.6 					"/>
					<polyline class="st20" points="174,27.9 174,25.8 171.8,26.9 171.8,29 					"/>
					<polyline class="st20" points="177.2,26.3 177.2,24.3 175,25.4 175,27.4 					"/>
					<polyline class="st20" points="180.3,27 180.3,22.8 178,23.9 178,25.9 					"/>
					<polyline class="st20" points="183.4,23.2 183.4,21.2 181.2,22.3 181.2,26.6 					"/>
				</g>
				<g>
					<polyline class="st20" points="162.4,31.5 162.4,29.5 160.1,30.6 160.1,33.9 					"/>
					<polyline class="st20" points="165.6,29.9 165.6,27.9 163.4,29 163.4,31 					"/>
					<polyline class="st20" points="168.8,28.3 168.8,26.3 166.5,27.4 166.5,29.5 					"/>
					<polyline class="st20" points="172,26.8 172,24.7 169.7,25.8 169.7,27.9 					"/>
					<polyline class="st20" points="175.2,25.2 175.2,23.2 172.9,24.3 172.9,26.3 					"/>
					<polyline class="st20" points="178.2,25.9 178.2,21.7 175.9,22.8 175.9,24.7 					"/>
					<polyline class="st20" points="181.4,22.1 181.4,20.1 179.1,21.2 179.1,23.4 					"/>
				</g>
				<g>
					<polyline class="st20" points="160.3,30.3 160.3,28.3 158,29.4 158,32.9 					"/>
					<polyline class="st20" points="163.6,28.7 163.5,26.7 161.3,27.8 161.3,29.8 					"/>
					<polyline class="st20" points="166.7,27.1 166.7,25.1 164.4,26.2 164.4,28.3 					"/>
					<polyline class="st20" points="169.9,25.6 169.9,23.5 167.6,24.6 167.6,26.7 					"/>
					<polyline class="st20" points="173.1,24 173.1,22 170.8,23.1 170.8,25.1 					"/>
					<polyline class="st20" points="176.1,24.7 176.1,20.5 173.9,21.6 173.9,23.5 					"/>
					<polyline class="st20" points="179.3,20.9 179.3,18.9 177,20 177,22.2 					"/>
				</g>
				<g>
					<polyline class="st20" points="158.1,29.2 158.1,27.2 155.9,28.3 155.9,32.2 154.4,31.5 					"/>
					<polyline class="st20" points="161.4,27.6 161.4,25.6 159.1,26.7 159.1,28.7 					"/>
					<polyline class="st20" points="164.5,26 164.5,24 162.3,25.1 162.3,27.2 					"/>
					<polyline class="st20" points="167.7,24.5 167.7,22.4 165.5,23.5 165.5,25.5 					"/>
					<polyline class="st20" points="170.9,22.9 170.9,20.9 168.7,22 168.7,24 					"/>
					<polyline class="st20" points="174,23.5 173.9,19.4 171.7,20.5 171.7,22.4 					"/>
					<polyline class="st20" points="177.1,19.8 177.1,17.8 174.9,18.9 174.9,21 					"/>
				</g>
				<g>
					<polyline class="st20" points="155.9,28.3 155.9,26.3 153.7,27.4 153.6,31.1 152.2,30.4 					"/>
					<polyline class="st20" points="159.2,26.7 159.2,24.7 156.9,25.8 156.9,27.8 					"/>
					<polyline class="st20" points="162.3,25.1 162.3,23.1 160,24.2 160,26.3 					"/>
					<polyline class="st20" points="165.5,23.6 165.5,21.5 163.2,22.6 163.2,24.6 					"/>
					<polyline class="st20" points="168.7,22 168.7,20 166.4,21.1 166.4,23 					"/>
					<polyline class="st20" points="171.7,22.6 171.7,18.4 169.5,19.5 169.5,21.5 					"/>
					<polyline class="st20" points="174.9,18.9 174.9,16.9 172.7,18 172.7,19.9 					"/>
				</g>
				<g>
					<polyline class="st20" points="153.8,27.2 153.8,25.2 151.6,26.3 151.5,30 147.4,28 					"/>
					<polyline class="st20" points="157.1,25.6 157.1,23.6 154.8,24.7 154.8,26.7 					"/>
					<polyline class="st20" points="160.2,24 160.2,22 158,23.1 158,25.2 					"/>
					<polyline class="st20" points="163.4,22.4 163.4,20.4 161.2,21.5 161.2,23.5 					"/>
					<polyline class="st20" points="166.6,20.9 166.6,18.9 164.4,19.9 164.4,21.9 					"/>
					<polyline class="st20" points="169.7,21.5 169.7,17.3 167.4,18.4 167.4,20.4 					"/>
					<polyline class="st20" points="172.8,17.8 172.8,15.8 170.6,16.9 170.6,18.9 					"/>
				</g>
				<g>
					<polyline class="st20" points="158.1,22.9 158,20.9 155.8,22 155.8,24.1 					"/>
					<polyline class="st20" points="161.3,21.4 161.2,19.3 159,20.4 159,22.5 					"/>
					<polyline class="st20" points="164.4,19.8 164.4,17.8 162.2,18.9 162.2,20.9 					"/>
					<polyline class="st20" points="167.5,20.5 167.5,16.3 165.2,17.4 165.2,19.3 					"/>
					<polyline class="st20" points="170.7,16.7 170.6,14.7 168.4,15.8 168.4,17.9 					"/>
				</g>
				<g>
					<polyline class="st20" points="156,21.7 156,19.7 153.7,20.8 153.7,24.9 					"/>
					<polyline class="st20" points="159.2,20.2 159.2,18.1 156.9,19.2 156.9,21.3 					"/>
					<polyline class="st20" points="162.4,18.6 162.4,16.6 160.1,17.7 160.1,19.7 					"/>
					<polyline class="st20" points="165.4,19.3 165.4,15.1 163.1,16.2 163.1,18.2 					"/>
					<polyline class="st20" points="168.6,15.5 168.6,13.5 166.3,14.6 166.3,16.7 					"/>
				</g>
				<polyline class="st20" points="168.4,38.4 187.8,28.6 187.8,27.5 				"/>
				<g>
					<ellipse class="st21" cx="184.2" cy="24.5" rx="2.2" ry="1.1"/>
					<path class="st22" d="M185.7,27.7c0.1,0.1,0.1,0.2,0.1,0.3c0,0.4-0.7,0.8-1.6,0.8c-0.9,0-1.6-0.3-1.6-0.8c0-0.1,0-0.2,0.1-0.3"
						/>
					<path class="st23" d="M185.6,26.4c-0.1,0.4-0.7,0.6-1.4,0.5c-0.7-0.1-1.3-0.5-1.2-0.9"/>
					<path class="st23" d="M185.4,26.8c0.1,0.1,0.2,0.3,0.2,0.4c-0.1,0.4-0.7,0.6-1.4,0.5c-0.7-0.1-1.3-0.5-1.2-0.9
						c0-0.1,0.1-0.2,0.1-0.2"/>
					<path class="st21" d="M182.1,24.5v0.8c0,0.6,1,1.1,2.2,1.1c1.2,0,2.2-0.5,2.2-1.1v-0.8"/>
					<path class="st23" d="M185.4,27.5c0.1,0.1,0.2,0.3,0.2,0.4c-0.1,0.4-0.7,0.6-1.4,0.5c-0.7-0.1-1.3-0.5-1.2-0.9
						c0-0.1,0.1-0.2,0.2-0.3"/>
					<line class="st22" x1="183.2" y1="24.9" x2="185" y2="24"/>
					<line class="st22" x1="184.9" y1="24.7" x2="183.5" y2="24.1"/>
				</g>
				<g>
					<ellipse class="st24" cx="151.1" cy="24.7" rx="2" ry="1"/>
					<path class="st25" d="M151.6,28.7c-0.1,0-0.3,0-0.5,0c-0.8,0-1.5-0.3-1.5-0.7c0-0.1,0-0.2,0.1-0.3"/>
					<path class="st26" d="M151.6,27c-0.2,0-0.4,0-0.6,0c-0.7-0.1-1.2-0.5-1.2-0.8"/>
					<path class="st26" d="M151.5,27.7c-0.2,0-0.3,0-0.5,0c-0.7-0.1-1.2-0.5-1.2-0.8c0-0.1,0.1-0.2,0.1-0.2"/>
					<path class="st24" d="M149.1,24.7v0.7c0,0.5,0.9,1,2,1"/>
					<path class="st26" d="M151.5,28.4c-0.2,0-0.3,0-0.5,0c-0.7-0.1-1.2-0.5-1.2-0.8c0-0.1,0.1-0.2,0.2-0.3"/>
					<line class="st25" x1="150.1" y1="25.1" x2="151.8" y2="24.2"/>
					<line class="st25" x1="151.7" y1="24.9" x2="150.5" y2="24.3"/>
				</g>
				<g>
					<path class="st27" d="M153.4,21.3C153.4,21.3,153.4,21.2,153.4,21.3c0-0.1,0-0.1,0.1-0.1"/>
					<path class="st28" d="M185.1,7c-0.1-0.1-0.3-0.1-0.5-0.1c-0.2,0-0.3,0-0.5,0.1"/>
				</g>
			</g>
		</g>
		<line class="st29" x1="118.5" y1="44.3" x2="118.5" y2="153.2"/>
		<line class="st29" x1="211.4" y1="43.9" x2="211.4" y2="145.9"/>
		<line class="st30" x1="118.5" y1="44.3" x2="118.5" y2="153.2"/>
		<line class="st30" x1="211.4" y1="43.9" x2="211.4" y2="145.9"/>
	</g>
	<g>
		<line class="st29" x1="64.5" y1="163.1" x2="113.2" y2="154.9"/>
		<line class="st30" x1="64.5" y1="163.1" x2="113.2" y2="154.9"/>
	</g>
	<line class="st29" x1="94.6" y1="190.1" x2="150.1" y2="179.1"/>
	<line class="st30" x1="94.6" y1="190.1" x2="150.1" y2="179.1"/>
	<g>
		<g>
			<polyline class="st31" points="179.9,215.9 183.8,217.8 185.3,217 186.6,217.6 206.5,207.8 			"/>
			<polyline class="st31" points="183.8,217.8 183.8,219.1 186.9,220.5 			"/>
			<polyline class="st31" points="207.9,208.5 205.3,207 206.9,206.1 202.7,204.1 179.4,215.7 179.4,224 187.1,227.9 187.2,218.8 
				210.3,207.3 210.2,211.2 			"/>
			<path class="st31" d="M281.8,251.5"/>
			<path class="st31" d="M283.3,253.8"/>
			<g>
				<path class="st31" d="M280.1,260.9l0.1-2.2l-2.6-3.3l-1-0.6l0.2,0.8l0.9,0.6l0,1.2l-0.9,0.5l0,2.1c0,0,3,1.7,4.4,1.5"/>
				<polyline class="st31" points="280.2,258.9 283.7,260.7 284.2,260.4 288,258.4 291.9,256.8 292.6,257.7 292.6,259.4 
					284.9,263.2 279,260.5 				"/>
				<polyline class="st31" points="285.1,263 285.1,261.3 284.2,260.4 				"/>
				<line class="st31" x1="284" y1="262.8" x2="284.1" y2="260.6"/>
				<path class="st31" d="M291.1,257l-2.8-1.3c-0.8-0.5-2.1-0.1-2.1-0.1l-0.8,0.5"/>
				<polyline class="st31" points="280.2,258.7 281.5,258.1 282.7,258.2 				"/>
				<path class="st31" d="M282.9,258.2l-3.4-2.2l-2.9-1.8l-0.4-0.4c-0.9-1,0.8-1.7,0.8-1.7c1.6-0.8,3,0.1,3,0.1l2.9,1.7l1,1.1
					l2.2,1.6L282.9,258.2z"/>
				<polyline class="st31" points="280.3,256.3 280.3,255.8 279.8,254 281,253.4 282.9,254.4 283.7,254.8 				"/>
				<path class="st31" d="M291.1,265.2l0,1.4c-1.3,1.3-3.5,1.9-4.1,1.9c-0.6,0-2.6-0.5-2.6-0.5l-8.4-4.2l-1.2-1.6l0-2.4l1.7-1"/>
				<path class="st31" d="M283,262.3l-1.3,0.4c0,0-0.1,0.3-1,0c-0.9-0.2-2.6-0.9-2.6-0.9l0,1.6l7.4,3.6c0,0,2,0.9,4.4-0.4
					c0,0,1.7-1.1,0.8-1.9l-0.8-0.7l-3.4-1.6"/>
				<path class="st31" d="M276.1,263.8l0,2.8l-0.9,0.5c0,0-0.8,2.3,3.2,2.2l0.9-0.4l1.4-0.3l0.9-0.9l0-1"/>
				<polyline class="st31" points="276,266.6 279.2,267.9 279.3,268.8 				"/>
				<path class="st31" d="M275.2,267.1c0,0,1.1,2,4,0.9"/>
				<g>
					<ellipse class="st31" cx="287.2" cy="264.2" rx="1.6" ry="0.8"/>
					<path class="st31" d="M285.7,264.2v1.7c0,0.4,0.7,0.8,1.6,0.8s1.6-0.3,1.6-0.8v-1.7"/>
				</g>
			</g>
			<line class="st31" x1="187.1" y1="227.9" x2="193.1" y2="225.1"/>
		</g>
		<polyline class="st31" points="192.9,222.5 188.7,224.6 188.8,221.3 208.9,211.2 208.9,212.1 		"/>
		<g>
			<g>
				<path class="st32" d="M276.2,245.3c0.6-0.5,1.4-0.9,2.3-1.2c1.7-0.4,3.3,0,3.9,0.9l9-4.5l0-4.4"/>
				<polyline class="st32" points="192.9,223.1 192.9,224.8 268.5,252 276.1,248.2 				"/>
				<line class="st33" x1="291.5" y1="238.9" x2="282.5" y2="243.4"/>
				<polyline class="st31" points="276.4,243.7 268.5,247.6 192.9,220.3 215.8,208.9 291.5,236.1 282.9,240.4 				"/>
				<path class="st33" d="M282.1,243.2c-0.8-0.3-1.7-0.3-2.8-0.1c-2,0.5-3.4,1.9-3.1,3.1l-0.2,0.4l-7.6,3.7l-75.6-27.3"/>
				<path class="st31" d="M282.5,245l0.2-4.5c-0.6-1-2.2-1.4-4-1c-2,0.5-3.4,1.9-3.1,3.1c0.1,0.4,0.3,0.7,0.7,1l-0.2,4.7"/>
			</g>
			<line class="st31" x1="192.9" y1="220.3" x2="192.9" y2="223"/>
		</g>
	</g>
	<g>
		<g>
			<g>
				<polygon class="st34" points="232.2,228.2 239.5,223.3 224.3,217.8 227.9,215.4 211.4,216.9 213.8,225.2 217.4,222.7 				"/>
			</g>
		</g>
		<g>
			<g>
				<polygon class="st34" points="240.8,223.8 233.5,228.7 248.7,234.1 245,236.5 261.6,235.1 259.2,226.7 255.6,229.2 				"/>
			</g>
		</g>
	</g>
	<g>
		<circle class="st35" cx="310.4" cy="258.7" r="14"/>
		<g>
			<text transform="matrix(1 0 0 1 305.2229 265.6253)" class="st12 st36 st37">1</text>
		</g>
	</g>
	<line class="st29" x1="189.5" y1="205.5" x2="178.7" y2="162"/>
	<line class="st38" x1="189.5" y1="205.5" x2="178.7" y2="162"/>
	<g>
		<circle class="st12" cx="316" cy="207.5" r="33.6"/>
		<g>
			<defs>
				<circle id="SVGID_1_" cx="316" cy="207.5" r="33.6"/>
			</defs>
			<clipPath id="SVGID_00000126293995564204435500000003488909864658205313_">
				<use xlink:href="#SVGID_1_"  style="overflow:visible;"/>
			</clipPath>
			<g style="clip-path:url(#SVGID_00000126293995564204435500000003488909864658205313_);">
				<polyline class="st1" points="200.3,169.1 204.9,171.4 206.7,170.4 208.3,171.2 231.9,159.5 				"/>
				<polyline class="st1" points="204.9,171.4 204.9,173 208.6,174.6 				"/>
				<polyline class="st1" points="233.7,160.2 230.5,158.5 232.4,157.5 227.5,155.1 199.7,168.9 199.7,178.8 208.9,183.4 209,172.5 
					236.5,158.9 236.4,163.6 				"/>
				<path class="st1" d="M321.7,211.5"/>
				<path class="st1" d="M323.6,214.3"/>
				<g>
					<path class="st1" d="M319.8,222.8l0.1-2.6l-3.1-3.9l-1.2-0.7l0.2,1l1,0.8l0,1.4l-1,0.6l0,2.5c0,0,3.5,2,5.2,1.7"/>
					<polyline class="st1" points="319.9,220.4 324,222.5 324.6,222.2 329.2,219.8 333.7,217.8 334.6,218.9 334.6,221 325.4,225.5 
						318.4,222.3 					"/>
					<polyline class="st1" points="325.7,225.2 325.7,223.2 324.6,222.2 					"/>
					<line class="st1" x1="324.4" y1="225" x2="324.5" y2="222.4"/>
					<path class="st1" d="M332.9,218.2l-3.3-1.5c-1-0.6-2.5-0.1-2.5-0.1l-1,0.6"/>
					<polyline class="st1" points="319.9,220.1 321.4,219.4 322.9,219.6 					"/>
					<path class="st1" d="M323.1,219.5l-4.1-2.6l-3.4-2.2l-0.4-0.5c-1.1-1.2,0.9-2.1,0.9-2.1c1.9-0.9,3.5,0.2,3.5,0.2l3.4,2.1
						l1.2,1.3l2.6,2L323.1,219.5z"/>
					<polyline class="st1" points="320,217.3 320,216.7 319.3,214.5 320.7,213.8 323.1,215.1 324,215.4 					"/>
					<path class="st1" d="M332.8,227.9l0,1.6c-1.5,1.5-4.2,2.3-4.9,2.3s-3.1-0.6-3.1-0.6l-10-5l-1.4-1.9l0-2.8l2.1-1.1"/>
					<path class="st1" d="M323.1,224.4l-1.5,0.5c0,0-0.2,0.3-1.2,0s-3.1-1.1-3.1-1.1l0,1.8l8.8,4.3c0,0,2.4,1.1,5.2-0.5
						c0,0,2-1.3,1-2.2l-1-0.8l-4.1-1.9"/>
					<path class="st1" d="M314.9,226.2l0,3.4l-1,0.6c0,0-0.9,2.7,3.8,2.6l1.1-0.5l1.7-0.3l1.1-1.1l0-1.2"/>
					<polyline class="st1" points="314.9,229.5 318.6,231.1 318.7,232.2 					"/>
					<path class="st1" d="M313.8,230.1c0,0,1.3,2.4,4.8,1"/>
					<g>
						<ellipse class="st1" cx="328.2" cy="226.7" rx="1.9" ry="0.9"/>
						<path class="st1" d="M326.3,226.7v2.1c0,0.5,0.8,0.9,1.9,0.9s1.9-0.4,1.9-0.9v-2.1"/>
					</g>
				</g>
				<line class="st1" x1="208.9" y1="183.4" x2="216" y2="180"/>
			</g>
			<g style="clip-path:url(#SVGID_00000126293995564204435500000003488909864658205313_);">
				<g>
					<path class="st40" d="M315,204.2c0.7-0.6,1.6-1.1,2.8-1.4c2-0.5,3.9,0,4.7,1.1l10.8-5.4l0-5.3"/>
					<polyline class="st40" points="215.8,177.6 215.8,179.7 305.9,212.2 314.9,207.6 					"/>
					<line class="st41" x1="333.3" y1="196.5" x2="322.6" y2="201.8"/>
					<polyline class="st1" points="315.2,202.2 305.9,206.9 215.8,174.4 243.1,160.8 333.3,193.2 323,198.3 					"/>
					<path class="st41" d="M322.2,201.7c-0.9-0.3-2.1-0.4-3.3-0.1c-2.4,0.5-4.1,2.2-3.7,3.7l-0.2,0.4l-9.1,4.5l-90.1-32.5"/>
					<path class="st1" d="M322.6,203.8l0.2-5.4c-0.7-1.1-2.6-1.7-4.7-1.2c-2.4,0.5-4.1,2.2-3.7,3.7c0.1,0.5,0.4,0.9,0.8,1.2
						l-0.3,5.6"/>
				</g>
				<line class="st1" x1="215.8" y1="174.4" x2="215.7" y2="177.6"/>
			</g>
			<g style="clip-path:url(#SVGID_00000126293995564204435500000003488909864658205313_);">
				<g>
					<g>
						<g>
							<path class="st42" d="M319.4,194.1c0-4.4-2.7-8.2-6.5-9.7l3.5-1.6l-15.8-0.8l1.1,8.3l3.8-2c3.6,1.7,6.1,5.3,6.1,9.5
								L319.4,194.1z"/>
						</g>
					</g>
				</g>
				<g>
					<g>
						<g>
							<path d="M319.4,194.1c0-4.4-2.7-8.2-6.5-9.7l3.5-1.6l-15.8-0.8l1.1,8.3l3.8-2c3.6,1.7,6.1,5.3,6.1,9.5"/>
						</g>
					</g>
				</g>
			</g>
		</g>
		<polygon class="st43" points="328.8,221.3 334.9,211.7 331.8,213.4 331.8,201.9 325.7,205.5 325.8,217 322.7,218.8 		"/>
		<circle class="st44" cx="316" cy="207.5" r="33.6"/>
	</g>
	<line class="st29" x1="288.6" y1="253" x2="303.8" y2="228"/>
	<line class="st38" x1="288.6" y1="253" x2="303.8" y2="228"/>
</g>
</svg>
