<?xml version="1.0" encoding="utf-8"?>
<!-- Generator: Adobe Illustrator 26.0.3, SVG Export Plug-In . SVG Version: 6.00 Build 0)  -->
<svg version="1.1" id="BOOT_MEDIA" xmlns="http://www.w3.org/2000/svg" xmlns:xlink="http://www.w3.org/1999/xlink" x="0px" y="0px"
	 viewBox="0 0 468 239.079" style="enable-background:new 0 0 468 239.079;" xml:space="preserve">
<style type="text/css">
	.st0{fill:#D2D3D4;}
	.st1{fill:none;stroke:#231F20;stroke-width:0.5;stroke-linecap:round;stroke-linejoin:round;stroke-miterlimit:10;}
	.st2{clip-path:url(#SVGID_00000013915929459062276250000004226334475290520493_);}
	.st3{fill:none;stroke:#231F20;stroke-width:0.5;stroke-miterlimit:10;}
	.st4{fill:#231F20;stroke:#FFFFFF;stroke-width:1.5;stroke-miterlimit:10;}
	.st5{fill:#FFFFFF;}
	.st6{fill:#231F20;stroke:#FFFFFF;stroke-linecap:round;stroke-linejoin:round;stroke-miterlimit:10;}
	.st7{fill:#010101;}
	.st8{fill:none;stroke:#FFFFFF;stroke-width:2;stroke-linecap:round;stroke-linejoin:round;stroke-miterlimit:10;}
	
		.st9{fill:none;stroke:#231F20;stroke-width:0.5;stroke-linecap:round;stroke-linejoin:round;stroke-miterlimit:10;stroke-dasharray:2.0546;}
</style>
<path class="st0" d="M175.546,137.761l5.09-13.605l1.239,0.289l0.083-2.932c0,0-0.165-0.496-1.239-0.496h-0.372l-0.041-1.28
	l-0.578-0.124c0,0,0.083-1.445-1.074-1.487c-1.156-0.041-1.445,0.743-1.445,0.743l-0.454,1.404l-1.61-0.289
	c0,0-0.95-0.33-0.661,2.065l-0.124,0.743l-4.873,13.462l0.991,0.413l0.248,0.454l0.702-1.9l0.289,1.693l-0.206,0.372h1.239
	L175.546,137.761z"/>
<polyline class="st1" points="201.714,79.072 188.477,76.37 187.671,77.671 185.354,77.217 184.582,77.444 "/>
<line class="st1" x1="226.122" y1="84.055" x2="207.262" y2="80.205"/>
<line class="st1" x1="232.21" y1="85.298" x2="229.061" y2="84.655"/>
<line class="st1" x1="258.159" y1="90.596" x2="233.498" y2="85.561"/>
<line class="st1" x1="284.67" y1="96.008" x2="260.119" y2="90.996"/>
<line class="st1" x1="293.335" y1="97.777" x2="286.069" y2="96.294"/>
<polyline class="st1" points="296.553,107.685 297.485,100.105 298.372,98.805 296.109,98.343 "/>
<polyline class="st1" points="182.444,81.323 181.805,82.282 169.041,116.787 169.059,119.16 169.091,121.138 168.95,121.726 
	165.764,130.517 165.57,125.525 "/>
<polyline class="st1" points="169.074,115.503 169.431,112.377 182.475,78.517 "/>
<path class="st1" d="M182.444,81.323"/>
<path class="st1" d="M166.125,130.686"/>
<line class="st1" x1="163.659" y1="132.271" x2="165.361" y2="132.563"/>
<polyline class="st1" points="168.099,151.73 167.808,149.592 172.611,137.178 279.827,159.098 259.946,213.972 259.946,216.402 "/>
<path class="st1" d="M304.594,109.554l0.069-3.071c0,0-0.365-0.706-1.037-0.537l-0.227-9.387l-2.22,5.63l-0.051,1.108
	l-12.112,32.779c0,0-1.06,2.952-0.984,5.602c0.076,2.65,0.64,3.201,0.111,4.337c-0.53,1.136-3.448,8.337-3.448,8.337l-0.228-3.795
	c0,0-0.116-0.218-0.303-0.327c-0.264-0.155-0.668-0.092-1.08,1.115l-3.112,7.929"/>
<polyline class="st1" points="304.455,106.737 302.313,112.283 302.261,110.353 302.967,108.475 302.985,107.735 303.708,105.908 
	"/>
<polyline class="st1" points="301.202,101.543 300.378,101.387 299.31,103.902 299.021,105.71 "/>
<line class="st1" x1="300.005" y1="106.038" x2="298.984" y2="105.783"/>
<line class="st1" x1="261.87" y1="225.395" x2="304.534" y2="109.313"/>
<polygon class="st1" points="260.716,220.14 261.385,217.759 261.385,216.715 258.502,216.088 254.367,224.569 253.991,231.545 
	257.458,232.338 258.628,230.124 258.795,225.529 260.131,222.062 "/>
<line class="st1" x1="255.031" y1="226.267" x2="257.227" y2="226.703"/>
<line class="st1" x1="255" y1="227.03" x2="257.196" y2="227.467"/>
<line class="st1" x1="254.968" y1="227.794" x2="257.165" y2="228.23"/>
<line class="st1" x1="254.937" y1="228.557" x2="257.134" y2="228.993"/>
<line class="st1" x1="254.906" y1="229.32" x2="257.102" y2="229.756"/>
<line class="st1" x1="254.875" y1="230.083" x2="257.071" y2="230.52"/>
<line class="st1" x1="254.844" y1="230.847" x2="257.04" y2="231.283"/>
<path class="st1" d="M260.716,220.14c0,0,0.796-0.051,0.884,1.379c0.088,1.43,0.286,6.382,0.286,6.382l-2.223,5.854l-1.959-0.418
	l-0.022-1.276"/>
<g>
	<g id="SPLINE_00000120531315402509045530000009490754630484289445_">
		<path class="st1" d="M243.559,171.859c-0.232,0.062-0.473,0.097-0.714,0.104c-0.241,0.007-0.484-0.013-0.719-0.061
			c-0.294-0.06-0.582-0.165-0.841-0.318c-0.121-0.072-0.236-0.154-0.342-0.247c-0.1-0.088-0.192-0.186-0.271-0.293
			c-0.076-0.102-0.14-0.212-0.19-0.329c-0.048-0.112-0.083-0.231-0.102-0.351c-0.019-0.119-0.022-0.241-0.009-0.361
			c0.013-0.122,0.041-0.241,0.083-0.356c0.044-0.119,0.103-0.232,0.173-0.338c0.074-0.111,0.16-0.213,0.256-0.306
			c0.101-0.098,0.211-0.186,0.329-0.263c0.123-0.081,0.254-0.151,0.389-0.21c0.284-0.124,0.588-0.2,0.898-0.231
			c0.314-0.031,0.633-0.016,0.941,0.047c0.208,0.043,0.413,0.107,0.607,0.196c0.183,0.083,0.356,0.188,0.512,0.315
			c0.145,0.118,0.275,0.255,0.379,0.41c0.098,0.145,0.173,0.305,0.217,0.474c0.043,0.163,0.056,0.335,0.039,0.503
			c-0.018,0.171-0.067,0.339-0.142,0.494c-0.079,0.165-0.187,0.315-0.312,0.448c-0.135,0.143-0.292,0.266-0.459,0.368
			c-0.044,0.027-0.088,0.052-0.134,0.076c-0.041,0.022-0.083,0.043-0.126,0.062c-0.13,0.06-0.266,0.11-0.403,0.15
			C243.598,171.848,243.578,171.854,243.559,171.859z"/>
	</g>
	<g id="SPLINE_00000132076371734647536990000010428564701582502302_">
		<path class="st1" d="M238.332,173.566c0.325-0.271,0.717-0.448,0.818-0.499c0.1-0.05,0.204-0.093,0.311-0.128
			c0.372-0.115,0.761-0.182,1.152-0.201c0.392-0.019,0.787,0.01,1.171,0.089c0.37,0.076,0.731,0.197,1.068,0.369
			c0.313,0.16,0.605,0.364,0.853,0.611c0.068,0.071,0.131,0.148,0.188,0.229c0.059,0.085,0.111,0.175,0.156,0.268
			c0.018,0.038,0.031,0.079,0.036,0.121c0.006,0.043,0.005,0.088,0.001,0.131v2.112"/>
	</g>
	<path class="st1" d="M243.511,166.669c0.025-0.059,0.047-0.119,0.067-0.18c0.024-0.072,0.045-0.145,0.064-0.219
		c0.041-0.158,0.06-0.228,0.099-0.391c0,0,0.2,0.043,0.237,0.051l3.178,0.65c0.089,0.018,0.176,0.045,0.26,0.081
		c0.079,0.034,0.156,0.076,0.225,0.127c0.066,0.047,0.126,0.102,0.177,0.165c0.048,0.059,0.127,0.189,0.127,0.189l-3.35,9.075
		c-0.039,0.106-0.108,0.201-0.19,0.28c-0.048,0.046-0.1,0.087-0.155,0.122c-0.06,0.039-0.123,0.072-0.188,0.1
		c-0.14,0.06-0.291,0.097-0.444,0.112c-0.156,0.015-0.315,0.007-0.467-0.024l-0.296-0.075l-4.666-1.143l0.001,0l-0.025-0.009
		l-0.038-0.035l-0.024-0.053l-0.015-0.077l-0.005-0.069v0l0.045-1.812"/>
	<g id="LINE_00000132774237556418850920000016231359359849066377_">
		<path class="st1" d="M247.032,169.464l-0.063-1.184l-0.045-0.304l0,0.001l-0.008-0.037l-0.056-0.117l-0.098-0.097l-0.131-0.068
			l-0.084-0.024c0,0-5.726-1.171-5.726-1.171c-0.028-0.006-0.056,0.01-0.065,0.036l0,0l-2.59,6.981"/>
	</g>
</g>
<g>
	<g id="SPLINE_00000047047910864507400030000001323300355525417104_">
		<path class="st1" d="M206.263,164.465c-0.232,0.062-0.473,0.097-0.714,0.104c-0.241,0.007-0.484-0.013-0.719-0.061
			c-0.294-0.06-0.582-0.165-0.841-0.318c-0.121-0.072-0.236-0.154-0.342-0.247c-0.1-0.088-0.192-0.186-0.271-0.293
			c-0.076-0.102-0.14-0.212-0.19-0.329c-0.048-0.112-0.083-0.231-0.102-0.351c-0.019-0.119-0.022-0.241-0.009-0.361
			c0.013-0.122,0.041-0.241,0.083-0.356c0.044-0.119,0.103-0.232,0.173-0.338c0.074-0.111,0.16-0.213,0.256-0.306
			c0.101-0.098,0.211-0.186,0.329-0.263c0.123-0.081,0.254-0.151,0.389-0.21c0.284-0.124,0.588-0.2,0.898-0.231
			c0.314-0.031,0.633-0.016,0.941,0.047c0.208,0.043,0.413,0.107,0.607,0.196c0.183,0.083,0.356,0.188,0.512,0.315
			c0.145,0.118,0.275,0.255,0.379,0.41c0.098,0.145,0.173,0.305,0.217,0.474c0.043,0.163,0.056,0.335,0.039,0.503
			c-0.018,0.171-0.067,0.339-0.142,0.494c-0.079,0.165-0.187,0.315-0.312,0.448c-0.135,0.143-0.292,0.266-0.459,0.368
			c-0.044,0.027-0.088,0.052-0.134,0.076c-0.041,0.022-0.083,0.043-0.126,0.062c-0.13,0.06-0.266,0.11-0.403,0.15
			C206.302,164.454,206.283,164.46,206.263,164.465z"/>
	</g>
	<g id="SPLINE_00000124852494561706229100000001279712946092262316_">
		<path class="st1" d="M201.036,166.172c0.325-0.271,0.717-0.448,0.818-0.499c0.1-0.05,0.204-0.093,0.311-0.128
			c0.372-0.115,0.761-0.182,1.152-0.201c0.392-0.019,0.787,0.01,1.171,0.089c0.37,0.076,0.731,0.197,1.068,0.369
			c0.313,0.16,0.605,0.364,0.853,0.611c0.068,0.071,0.131,0.148,0.188,0.229c0.059,0.085,0.111,0.175,0.156,0.268
			c0.018,0.038,0.031,0.079,0.036,0.121c0.006,0.043,0.005,0.088,0.001,0.131v2.112"/>
	</g>
	<path class="st1" d="M206.215,159.275c0.025-0.059,0.047-0.119,0.067-0.18c0.024-0.072,0.045-0.145,0.064-0.219
		c0.041-0.158,0.06-0.228,0.099-0.391c0,0,0.2,0.043,0.237,0.051l3.178,0.65c0.089,0.018,0.176,0.045,0.26,0.081
		c0.079,0.034,0.156,0.076,0.225,0.127c0.066,0.047,0.126,0.102,0.177,0.165c0.048,0.059,0.127,0.189,0.127,0.189l-3.35,9.075
		c-0.039,0.106-0.108,0.201-0.19,0.28c-0.048,0.046-0.1,0.087-0.155,0.122c-0.06,0.039-0.123,0.072-0.188,0.1
		c-0.141,0.06-0.291,0.097-0.444,0.112c-0.156,0.015-0.315,0.007-0.467-0.024l-0.296-0.075l-4.666-1.143l0.001,0l-0.025-0.009
		l-0.038-0.035l-0.024-0.053l-0.015-0.077l-0.006-0.069v0l0.045-1.812"/>
	<g id="LINE_00000018221716033623663550000012456690497927957182_">
		<path class="st1" d="M209.736,162.07l-0.063-1.184l-0.045-0.304l0,0.001l-0.008-0.037l-0.056-0.117l-0.098-0.097l-0.131-0.068
			l-0.084-0.024l-5.726-1.171c-0.028-0.006-0.056,0.01-0.065,0.036l0,0l-2.59,6.981"/>
	</g>
</g>
<g>
	<g id="SPLINE_00000156554526088811315480000003999315500204260520_">
		<path class="st1" d="M169.967,157.071c-0.232,0.062-0.473,0.097-0.714,0.104c-0.241,0.007-0.484-0.013-0.719-0.061
			c-0.294-0.06-0.582-0.165-0.841-0.318c-0.121-0.072-0.236-0.154-0.342-0.247c-0.1-0.088-0.192-0.186-0.271-0.293
			c-0.076-0.102-0.14-0.212-0.19-0.329c-0.048-0.112-0.083-0.231-0.102-0.351c-0.019-0.119-0.022-0.241-0.009-0.361
			c0.013-0.122,0.041-0.241,0.083-0.356c0.044-0.119,0.103-0.232,0.173-0.338c0.074-0.111,0.16-0.213,0.256-0.306
			c0.101-0.098,0.211-0.186,0.329-0.263c0.123-0.081,0.254-0.151,0.389-0.21c0.284-0.124,0.588-0.2,0.898-0.231
			c0.314-0.031,0.633-0.016,0.941,0.047c0.208,0.043,0.413,0.107,0.607,0.196c0.183,0.083,0.356,0.188,0.512,0.315
			c0.145,0.118,0.275,0.255,0.379,0.41c0.098,0.145,0.173,0.305,0.217,0.474c0.043,0.163,0.056,0.335,0.039,0.503
			c-0.018,0.171-0.067,0.339-0.142,0.494c-0.079,0.165-0.187,0.315-0.312,0.448c-0.135,0.143-0.292,0.266-0.459,0.368
			c-0.044,0.027-0.088,0.052-0.134,0.076c-0.041,0.022-0.083,0.043-0.126,0.062c-0.13,0.06-0.266,0.11-0.403,0.15
			C170.007,157.06,169.987,157.065,169.967,157.071z"/>
	</g>
	<g id="SPLINE_00000007393493700872297450000001108538131417573774_">
		<path class="st1" d="M164.741,158.777c0.325-0.271,0.717-0.448,0.818-0.499c0.1-0.05,0.204-0.093,0.311-0.128
			c0.372-0.115,0.761-0.182,1.152-0.201c0.392-0.019,0.787,0.01,1.171,0.089c0.37,0.076,0.731,0.197,1.068,0.369
			c0.313,0.16,0.605,0.364,0.853,0.611c0.068,0.071,0.131,0.148,0.188,0.229c0.059,0.085,0.111,0.175,0.156,0.268
			c0.018,0.038,0.031,0.079,0.036,0.121c0.006,0.043,0.005,0.088,0.001,0.131v2.112"/>
	</g>
	<path class="st1" d="M169.919,151.88c0.025-0.059,0.047-0.119,0.067-0.18c0.024-0.072,0.045-0.145,0.064-0.219
		c0.041-0.158,0.06-0.228,0.099-0.391c0,0,0.2,0.043,0.237,0.051l3.178,0.65c0.089,0.018,0.176,0.045,0.26,0.081
		c0.079,0.034,0.156,0.076,0.225,0.127c0.066,0.047,0.126,0.102,0.177,0.165c0.048,0.059,0.127,0.189,0.127,0.189l-3.35,9.075
		c-0.039,0.106-0.108,0.201-0.19,0.28c-0.048,0.046-0.1,0.087-0.155,0.122c-0.06,0.039-0.123,0.072-0.188,0.1
		c-0.14,0.06-0.291,0.097-0.444,0.112c-0.156,0.015-0.315,0.007-0.467-0.024l-0.296-0.075l-4.666-1.143l0.001,0l-0.025-0.009
		l-0.038-0.035l-0.024-0.053l-0.015-0.077l-0.005-0.069v0l0.045-1.812"/>
	<g id="LINE_00000126308198014446817810000007175177234484898492_">
		<path class="st1" d="M173.441,154.675l-0.063-1.184l-0.045-0.304l0,0.001l-0.008-0.037l-0.056-0.117l-0.098-0.097l-0.131-0.068
			l-0.084-0.024c0,0-5.726-1.171-5.726-1.171c-0.028-0.006-0.056,0.01-0.065,0.036l0,0l-2.59,6.981l-11.228,30.386l-2.41-0.511
			c0,0-0.887-0.114-1.288,0.859"/>
	</g>
</g>
<polyline class="st1" points="209.162,144.762 204.66,157.208 204.769,159.384 "/>
<path class="st1" d="M187.636,193.541c0,0,2.72-7.615,3.209-8.648c0.49-1.033-0.326-1.74-0.326-1.74l-2.589-2.138l2.07-5.91
	c0,0,1.329-0.589,3.402-0.818c1.86-0.205,2.012-1.469,2.012-1.469l10.28-28.8l0.402,9.217"/>
<polygon class="st1" points="181.433,140.852 193.033,143.255 188.592,155.22 177.149,152.765 "/>
<line class="st1" x1="245.959" y1="152.418" x2="241.642" y2="164.028"/>
<polyline class="st1" points="223.097,203.709 227.015,204.486 238.571,172.386 "/>
<path class="st1" d="M223.823,203.889l-1.219,3.454c0,0-1.164,2.108,2.065,3.016"/>
<line class="st1" x1="258.008" y1="217.077" x2="141.825" y2="193.297"/>
<path class="st1" d="M242.743,161.06l-0.305-8.822l-3.192-0.658c0,0-0.721-0.219-1.159,0.94c-0.439,1.159-1.015,2.838-1.015,2.838
	s-0.533,1.065,0.345,2.225c0,0,0.971,1.003,0.564,2.131c-0.407,1.128-0.627,1.379-0.627,1.379s-0.313,0.815,1.065,1.128
	l-6.611,18.236c0,0-0.282,0.846-1.943,1.097c-1.661,0.251-2.413,0.501-2.413,0.501s-0.595,0-1.159,1.253
	c-0.564,1.253-1.598,4.167-1.598,4.167s-0.564,0.94,0.313,1.661s2.099,1.535,2.099,1.535s0.815,0.533,0.219,1.849
	c-0.595,1.316-1.911,4.857-1.911,4.857s-1.039-0.279-1.48,0.294s-0.617,1.763-0.617,1.763s-0.265,0.838,0.97,1.234l-2.601,6.304
	c0,0-1.146,2.381-4.232,1.719"/>
<path class="st1" d="M141.307,192.085l-0.066-2.59l11.821-31.478l1.063-0.398l1.395-3.652l0.996,0.199l2.191-6.043l-1.992-0.398
	l7.882-21.727l0.698,0.161l0.204-0.487l0.958-2.286c0,0,0.886-0.994,0.929,0.951l0.089,1.399"/>
<path class="st1" d="M154.021,157.969l-2.404,6.485l-0.056,4.976l6.933,1.454l0.224-0.503c0,0,1.156-0.093,1.707-0.699l-5.406-0.858
	l0.036-1.854l4.435,0.654"/>
<line class="st1" x1="144.264" y1="187.884" x2="151.566" y2="167.847"/>
<path class="st1" d="M149.719,189.118l-6.235-1.299c0,0-0.909,1.429,0.162,1.721c1.072,0.292,4.838,1.007,4.838,1.007
	S149.362,191.001,149.719,189.118z"/>
<path class="st1" d="M142.002,192.363l-0.881,2.569l-0.073,2.569l-1.395,3.45l-0.037,4.734l-1.064,2.312l-3.707-0.734l0.697-7.193
	l2.312-4.477l1.692-3.821l7.584,1.631c0,0,0.973,0.401,1.316-0.658s1.202-3.32,1.202-3.32"/>
<polyline class="st1" points="139.865,200.833 141.172,201.144 142.939,197.389 "/>
<polyline class="st1" points="141.11,197.783 141.172,209.393 139.149,209.051 139.086,206.996 "/>
<polyline class="st1" points="141.324,209.189 142.939,204.733 142.984,193.547 "/>
<polyline class="st1" points="143.147,197.017 184.366,205.597 185.495,206.263 185.625,214.153 "/>
<path class="st1" d="M148.735,191.922c0,0-0.441,2.325,2.365,3.247"/>
<path class="st1" d="M180.129,201.055c4.672,0.501,5.478-3.142,5.478-3.142l1.669-4.728l0.834,0.25v0.695l-0.6,1.382l0.073,0.757"/>
<path class="st1" d="M187.993,202.748c0,0-3.081-0.998-2.163-3.445l1.029-2.336c0,0,0.222-0.89,1.418-0.612s1.724,0.473,1.724,0.473
	l10.806-28.731"/>
<polyline class="st1" points="198.28,164.592 198.463,167.526 203.462,154.779 203.599,152.853 204.929,149.551 203.82,149.326 "/>
<line class="st1" x1="200.897" y1="157.471" x2="201.046" y2="160.732"/>
<polyline class="st1" points="205.037,156.109 204.855,152.286 205.141,151.766 204.929,149.551 "/>
<polyline class="st1" points="241.701,166.484 241.352,155.232 242.66,151.575 "/>
<line class="st1" x1="239.904" y1="154.734" x2="241.253" y2="155.002"/>
<g id="SPLINE_00000063617584716396189420000018093919420647651234_">
	<path class="st1" d="M238.142,157.391l-0.404-0.946c-0.013-0.03-0.02-0.063-0.021-0.096s0.005-0.066,0.016-0.097l0.794-2.152
		c0.016-0.044,0.044-0.083,0.077-0.116c0.037-0.037,0.082-0.065,0.129-0.085c0.051-0.022,0.106-0.036,0.162-0.042
		c0.057-0.006,0.114-0.003,0.17,0.008l0.553,0.113c0.041,0.008,0.081,0.022,0.119,0.04c0.035,0.017,0.069,0.039,0.098,0.065
		c0.027,0.024,0.05,0.053,0.068,0.085c0.016,0.03,0.027,0.063,0.031,0.096c0.004,0.03,0.002,0.061-0.005,0.091
		c-0.002,0.01-0.005,0.02-0.009,0.03l-0.292,0.791c-0.002,0.006-0.003,0.013-0.002,0.02c0.001,0.007,0.004,0.013,0.008,0.019
		c0.009,0.012,0.025,0.02,0.04,0.023l0.055,0.011c0.044,0.009,0.088,0.025,0.127,0.048c0.036,0.021,0.068,0.048,0.092,0.081
		c0.022,0.03,0.038,0.065,0.044,0.102c0.006,0.036,0.001,0.074-0.011,0.108l-0.682,1.847c-0.016,0.044-0.044,0.083-0.077,0.116
		c-0.037,0.037-0.082,0.065-0.129,0.085c-0.051,0.022-0.106,0.036-0.162,0.042c-0.057,0.006-0.114,0.003-0.17-0.008l-0.322-0.066
		c-0.065-0.013-0.129-0.039-0.184-0.078C238.206,157.491,238.165,157.445,238.142,157.391"/>
</g>
<ellipse class="st1" cx="239.835" cy="152.866" rx="0.84" ry="0.504"/>
<g id="SPLINE_00000178198129915703622860000015633924950870893699_">
	<path class="st1" d="M179.013,193.025c0.173-0.091,0.335-0.21,0.469-0.353c0.063-0.067,0.119-0.139,0.168-0.217
		c0.047-0.074,0.086-0.153,0.117-0.235l9.376-25.401c0.033-0.089,0.055-0.183,0.065-0.278c0.01-0.094,0.007-0.188-0.007-0.281
		c-0.015-0.094-0.042-0.187-0.079-0.274c-0.039-0.091-0.089-0.177-0.148-0.256c-0.062-0.084-0.134-0.16-0.212-0.229
		c-0.082-0.073-0.172-0.137-0.267-0.192c-0.202-0.119-0.427-0.201-0.656-0.248l-14.747-3.016c-0.24-0.049-0.489-0.061-0.734-0.037
		c-0.241,0.024-0.479,0.084-0.7,0.18c-0.106,0.046-0.207,0.101-0.303,0.164c-0.092,0.06-0.178,0.129-0.256,0.205
		c-0.074,0.073-0.142,0.152-0.199,0.239c-0.055,0.082-0.101,0.171-0.135,0.263l-9.376,25.401c-0.027,0.073-0.047,0.149-0.058,0.226
		c-0.011,0.076-0.015,0.153-0.011,0.229c0.005,0.077,0.017,0.153,0.038,0.227c0.021,0.076,0.049,0.149,0.085,0.219
		c0.075,0.148,0.179,0.28,0.301,0.393c0.133,0.123,0.287,0.222,0.449,0.299c0.039,0.018,0.079,0.036,0.119,0.052
		c0.123,0.049,0.252,0.087,0.382,0.114l14.747,3.016c0.267,0.055,0.544,0.064,0.816,0.027
		C178.519,193.227,178.778,193.148,179.013,193.025"/>
</g>
<g id="SPLINE_00000172409709925994278870000000176666367343955365_">
	<path class="st1" d="M215.773,200.584c0.173-0.091,0.335-0.21,0.469-0.353c0.063-0.067,0.119-0.139,0.168-0.217
		c0.047-0.074,0.086-0.153,0.117-0.235l9.376-25.401c0.033-0.089,0.055-0.183,0.065-0.278c0.01-0.094,0.007-0.188-0.007-0.281
		c-0.015-0.094-0.042-0.187-0.079-0.274c-0.039-0.091-0.089-0.177-0.148-0.256c-0.062-0.084-0.134-0.16-0.212-0.229
		c-0.082-0.073-0.172-0.137-0.267-0.192c-0.202-0.119-0.427-0.201-0.656-0.248l-14.747-3.016c-0.24-0.049-0.489-0.061-0.734-0.037
		c-0.241,0.024-0.479,0.084-0.7,0.18c-0.106,0.046-0.207,0.101-0.304,0.164c-0.092,0.06-0.178,0.129-0.256,0.205
		c-0.074,0.073-0.142,0.152-0.199,0.239c-0.055,0.082-0.101,0.171-0.135,0.263l-9.376,25.401c-0.027,0.073-0.047,0.149-0.058,0.226
		c-0.011,0.076-0.015,0.153-0.011,0.229c0.005,0.077,0.017,0.153,0.038,0.227c0.021,0.076,0.049,0.149,0.085,0.219
		c0.075,0.148,0.179,0.28,0.301,0.393c0.133,0.123,0.287,0.222,0.449,0.299c0.039,0.018,0.079,0.036,0.119,0.052
		c0.123,0.049,0.252,0.087,0.382,0.114l14.747,3.016c0.267,0.055,0.544,0.064,0.816,0.027
		C215.279,200.786,215.538,200.708,215.773,200.584"/>
</g>
<g id="SPLINE_00000023971743145998556320000004770601547179508926_">
	<path class="st1" d="M252.637,208.039c0.173-0.091,0.335-0.21,0.469-0.353c0.063-0.067,0.119-0.139,0.168-0.217
		c0.047-0.074,0.086-0.153,0.117-0.235l9.376-25.401c0.033-0.089,0.055-0.183,0.065-0.278c0.01-0.094,0.007-0.188-0.007-0.281
		c-0.015-0.094-0.042-0.187-0.079-0.274c-0.039-0.091-0.089-0.177-0.148-0.256c-0.062-0.084-0.134-0.16-0.212-0.229
		c-0.082-0.073-0.172-0.137-0.267-0.192c-0.202-0.119-0.427-0.201-0.656-0.248l-14.747-3.016c-0.24-0.049-0.489-0.061-0.734-0.037
		c-0.241,0.024-0.479,0.084-0.7,0.18c-0.106,0.046-0.207,0.101-0.303,0.164c-0.092,0.06-0.178,0.129-0.256,0.205
		c-0.074,0.073-0.142,0.152-0.199,0.239c-0.055,0.082-0.101,0.171-0.135,0.263l-9.376,25.401c-0.027,0.073-0.047,0.149-0.058,0.226
		c-0.011,0.076-0.015,0.153-0.011,0.229c0.005,0.077,0.017,0.153,0.038,0.227c0.021,0.076,0.049,0.149,0.085,0.219
		c0.075,0.148,0.179,0.28,0.301,0.393c0.133,0.123,0.287,0.222,0.449,0.299c0.039,0.018,0.079,0.036,0.119,0.052
		c0.123,0.049,0.252,0.087,0.382,0.114l14.747,3.016c0.267,0.055,0.544,0.064,0.816,0.027
		C252.143,208.242,252.402,208.163,252.637,208.039"/>
</g>
<path class="st1" d="M279.401,159.531l-3.192-0.658c0,0-0.721-0.219-1.159,0.94c-0.439,1.159-1.015,2.838-1.015,2.838
	s-0.533,1.065,0.345,2.225c0,0,0.971,1.003,0.564,2.131c-0.407,1.128-0.627,1.379-0.627,1.379s-0.313,0.815,1.065,1.128
	l-6.611,18.236c0,0-0.282,0.846-1.943,1.097c-1.661,0.251-2.413,0.501-2.413,0.501s-0.595,0-1.159,1.253
	c-0.564,1.253-1.598,4.167-1.598,4.167s-0.564,0.94,0.313,1.661c0.877,0.721,2.099,1.535,2.099,1.535s0.815,0.533,0.219,1.849
	c-0.595,1.316-1.911,4.857-1.911,4.857s-1.039-0.279-1.48,0.294s-0.617,1.763-0.617,1.763s-0.264,0.838,0.97,1.234l-2.601,6.304
	c0,0-1.328,2.682-4.414,2.021"/>
<line class="st1" x1="255.58" y1="216.606" x2="255.796" y2="221.498"/>
<path class="st1" d="M226.752,210.72l0.087,3.852c0,0,0.173,1.299,1.515,1.688"/>
<path class="st1" d="M227.348,210.776l0.143,3.848c0,0,1.14,0.057,0.998,0.57s-0.314,0.998-0.314,0.998l-0.029,1.226l25.884,5.302
	l0.2-1.34c0,0,0.029-1.34,1.397-1.112"/>
<path class="st1" d="M190.636,203.4l0.103,3.776c0,0,1.098,0.069,0.995,0.652c-0.103,0.584-0.309,0.892-0.309,0.892l0.034,1.167
	l25.847,5.286l0.103-1.304c0,0,0-1.407,1.545-1.064"/>
<path class="st1" d="M218.783,209.098l0.103,2.918c0,0,0.618,2.609-1.476,1.854"/>
<path class="st1" d="M189.881,203.297v3.742c0,0-0.24,1.064,1.545,1.682"/>
<path class="st1" d="M142.746,205.313c0,0-0.58,1.625,1.48,2.031s8.53,1.712,8.53,1.712s0.928,0.609,1.596-1.625l-0.087-8.036"/>
<polyline class="st1" points="154.216,200.207 161.083,201.634 161.138,207.287 "/>
<line class="st1" x1="154.526" y1="207.447" x2="159.434" y2="208.46"/>
<line class="st1" x1="154.474" y1="206.622" x2="159.782" y2="207.705"/>
<polyline class="st1" points="161.13,207.267 162.287,207.511 162.513,205.257 162.719,204.458 163.08,204.535 163.157,207.37 
	162.845,207.987 162.897,209.173 162.558,210.138 161.254,209.851 "/>
<path class="st1" d="M161.19,210.372l-0.08-3.126l-1.03-0.207l-1.598,4.09l0.139,2.967c0,0,0.697,0.657,1.055,0.1L161.19,210.372z"
	/>
<path class="st1" d="M160.081,207.039l-0.137-3.854c0,0-0.068-0.707-0.775-0.798c-0.707-0.091-2.304-0.479-2.304-0.479l-1.551,0.798
	l0.068,2.668l1.414,1.574"/>
<polyline class="st1" points="174.716,210.362 174.134,211.166 174.051,212.496 165.129,210.639 165.156,209.115 165.516,208.367 
	"/>
<path class="st1" d="M164.436,201.578l0.194,6.65l-0.471,0.72l-0.055,1.635c0,0,0.194,0.942,1.136,1.108s8.978,1.773,8.978,1.773
	s1.053,0.111,1.469-1.635l-0.083-6.484l1.053-1.385"/>
<line class="st1" x1="165.295" y1="209.67" x2="174.023" y2="211.388"/>
<line class="st1" x1="162.897" y1="209.173" x2="164.028" y2="209.395"/>
<polyline class="st1" points="176.036,204.718 182.396,205.977 182.436,211.337 183.656,211.505 183.914,209.221 184.351,208.744 
	184.391,211.683 184.172,212.398 184.181,213.807 254.017,228.294 "/>
<line class="st1" x1="175.681" y1="210.949" x2="181.083" y2="212.032"/>
<line class="st1" x1="175.691" y1="211.805" x2="180.781" y2="212.823"/>
<path class="st1" d="M178.556,211.353l-1.885-1.621l-0.057-2.677l1.508-0.792c0,0,1.49,0.377,2.244,0.434s0.886,0.716,0.886,0.716
	l0.113,3.978l-1.602,4.106l0.139,3.058c0.894,0.516,1.112,0,1.112,0l1.509-3.912l-0.118-3.276c0,0-0.22-0.02-0.895-0.1"/>
<polyline class="st1" points="182.484,214.225 183.775,214.483 184.133,213.57 "/>
<g>
	<polygon class="st1" points="187.433,211.444 199.631,213.95 199.722,216.09 187.525,213.583 	"/>
	<line class="st1" x1="190.46" y1="212.269" x2="190.521" y2="214.073"/>
	<line class="st1" x1="193.486" y1="212.972" x2="193.547" y2="214.776"/>
	<line class="st1" x1="196.513" y1="213.675" x2="196.574" y2="215.215"/>
</g>
<g>
	<polygon class="st1" points="201.008,214.259 208.9,215.955 208.992,218.095 201.1,216.399 	"/>
	<line class="st1" x1="204.939" y1="215.303" x2="205" y2="217.107"/>
</g>
<g>
	<polygon class="st1" points="210.294,216.247 220.763,218.45 220.855,220.529 210.386,218.326 	"/>
	<line class="st1" x1="215.624" y1="217.475" x2="215.686" y2="219.228"/>
</g>
<polygon class="st1" points="222.534,215.834 226.03,216.533 226.125,218.535 222.534,217.836 "/>
<polygon class="st1" points="222.534,218.64 226.03,219.339 226.125,221.341 222.534,220.642 "/>
<line class="st1" x1="276.814" y1="162.047" x2="278.568" y2="162.416"/>
<g id="SPLINE_00000028291134310630862290000007265494848854084766_">
	<path class="st1" d="M275.051,164.704l-0.404-0.946c-0.013-0.03-0.02-0.063-0.021-0.096c-0.001-0.033,0.005-0.066,0.016-0.097
		l0.794-2.152c0.016-0.044,0.044-0.083,0.077-0.116c0.037-0.037,0.082-0.065,0.129-0.085c0.051-0.022,0.106-0.036,0.162-0.042
		c0.057-0.006,0.114-0.003,0.17,0.008l0.553,0.113c0.041,0.008,0.081,0.022,0.119,0.04c0.035,0.017,0.069,0.039,0.098,0.065
		c0.027,0.024,0.05,0.053,0.068,0.085c0.016,0.03,0.027,0.063,0.031,0.096c0.004,0.03,0.002,0.061-0.005,0.091
		c-0.002,0.01-0.005,0.02-0.009,0.03l-0.292,0.791c-0.002,0.006-0.003,0.013-0.002,0.02c0.001,0.007,0.004,0.013,0.008,0.019
		c0.009,0.013,0.025,0.02,0.04,0.023l0.055,0.011c0.044,0.009,0.088,0.025,0.127,0.048c0.036,0.021,0.068,0.048,0.092,0.081
		c0.022,0.03,0.038,0.065,0.044,0.102c0.006,0.036,0.001,0.074-0.011,0.108l-0.682,1.847c-0.016,0.044-0.044,0.083-0.077,0.116
		c-0.037,0.037-0.082,0.065-0.129,0.085c-0.051,0.022-0.106,0.036-0.162,0.042c-0.057,0.006-0.114,0.003-0.17-0.008l-0.322-0.066
		c-0.065-0.013-0.129-0.039-0.184-0.078C275.116,164.804,275.075,164.758,275.051,164.704"/>
</g>
<ellipse class="st1" cx="276.744" cy="160.179" rx="0.84" ry="0.504"/>
<path class="st1" d="M151.698,164.293l3.01,0.719l3.545,0.498l0.002,0.93c0.477,0.079,1.51,1.152,1.51,1.152l0.926-2.222"/>
<path class="st1" d="M158.453,165.168l4.212-10.531c0,0-0.556-2.623,1.868-4.53l-0.079-0.795l2.861-7.272l-5.444-1.152l1.391-3.537
	l1.113,0.199l0.358-0.119l3.656,0.755l-1.351,3.576"/>
<polyline class="st1" points="159.2,140.885 160.109,141.067 160.581,140.34 162.544,135.141 168.943,136.141 170.397,136.613 
	170.506,137.886 169.997,137.668 168.388,138.185 "/>
<path class="st1" d="M167.125,142.285c0,0,2.29,0.727,2.218,3.272"/>
<path class="st1" d="M168.252,138.504c0,0,2.363,1.091,2.545,3.345"/>
<polyline class="st1" points="168.943,144.03 166.398,151.228 165.925,151.082 163.162,158.826 163.199,159.844 160.872,165.769 "/>
<path class="st1" d="M158.836,163.952c0,0,2.363,0.909,2.363,3.381"/>
<polyline class="st1" points="156.714,147.724 156.813,149.319 155.276,153.538 155.519,153.966 "/>
<polyline class="st1" points="153.062,158.017 154.493,154.412 155.246,154.472 "/>
<polyline class="st1" points="165.542,133.83 163.382,133.455 163.418,132.305 164.097,130.269 166.292,130.648 "/>
<path class="st1" d="M171.469,135.099l-0.001,0.145l0.192,1.655c0,0-0.114,0.739-1.108,0.71l0.057-0.426l0.811-1.962"/>
<polyline class="st1" points="169.21,138.003 169.782,138.638 170.788,138.889 170.797,139.536 170.427,140.376 "/>
<line class="st1" x1="136.146" y1="201.92" x2="138.134" y2="202.327"/>
<line class="st1" x1="136.146" y1="202.72" x2="138.134" y2="203.127"/>
<line class="st1" x1="136.088" y1="203.462" x2="138.075" y2="203.868"/>
<line class="st1" x1="136.029" y1="204.204" x2="138.017" y2="204.61"/>
<line class="st1" x1="135.951" y1="204.965" x2="137.939" y2="205.371"/>
<line class="st1" x1="135.873" y1="205.687" x2="137.861" y2="206.093"/>
<line class="st1" x1="135.815" y1="206.409" x2="137.802" y2="206.815"/>
<path class="st1" d="M151.369,199.933c-3.205-2.08-5.851-0.754-5.851-0.754l1.88,1.159c0,0,2.402-0.448,3.377,1.414l0.834-1.132
	L151.369,199.933z"/>
<path class="st1" d="M144.928,203.324l-0.661-0.504c-0.464-2.46,0.856-3.051,0.856-3.051l1.501,0.898c0,0-1.455,0.276-1.137,1.631
	C145.486,202.297,144.908,202.748,144.928,203.324z"/>
<polyline class="st1" points="143.954,203.659 143.878,204.936 143.82,206.357 152.785,208.214 152.814,205.623 153.445,204.817 "/>
<path class="st1" d="M151.318,205.288c0,0-2.459,0.952-5.662-1.06c0,0-0.3-0.486,0.343-1.341c0,0,1.2,1.347,3.129,1.371
	C149.127,204.258,149.634,204.962,151.318,205.288z"/>
<line class="st1" x1="143.88" y1="205.159" x2="152.598" y2="207.012"/>
<path class="st1" d="M150.14,204.034c0,0,1.14-0.136,1.08-1.596l0.658-0.764l0.338-0.533c0,0,0.871,1.91-0.232,3.504
	C151.984,204.646,150.568,204.509,150.14,204.034z"/>
<g>
	<path class="st1" d="M172.926,204.582c-3.072-1.994-5.608-0.722-5.608-0.722l1.802,1.111c0,0,2.303-0.429,3.237,1.356l0.8-1.086
		L172.926,204.582z"/>
	<path class="st1" d="M166.751,207.832l-0.633-0.483c-0.445-2.358,0.82-2.925,0.82-2.925l1.439,0.861c0,0-1.395,0.265-1.09,1.563
		C167.287,206.848,166.732,207.28,166.751,207.832z"/>
	<path class="st1" d="M172.876,209.715c0,0-2.357,0.912-5.428-1.016c0,0-0.288-0.466,0.329-1.286c0,0,1.15,1.291,2.999,1.314
		C170.777,208.727,171.262,209.402,172.876,209.715z"/>
	<path class="st1" d="M171.748,208.513c0,0,1.092-0.13,1.035-1.53l0.631-0.733l0.324-0.511c0,0,0.835,1.831-0.222,3.359
		C173.516,209.099,172.158,208.968,171.748,208.513z"/>
</g>
<path class="st1" d="M153.189,195.641c0,0-0.274,1.503,1.248,1.741"/>
<path class="st1" d="M182.031,201.541c0,0,0.402,1.566-1.365,1.265"/>
<polyline class="st1" points="181.007,201.26 180.505,202.625 180.485,203.971 154.402,198.569 154.443,197.405 155.041,196.035 "/>
<polygon class="st1" points="231.003,219.432 232.619,219.779 232.688,222.248 231.041,221.893 "/>
<g>
	<polygon class="st1" points="236.744,222.029 240.642,222.832 244.585,223.644 244.585,225.415 236.744,223.8 	"/>
	<line class="st1" x1="240.677" y1="224.556" x2="240.642" y2="222.832"/>
</g>
<g>
	<polygon class="st1" points="245.663,223.846 249.561,224.649 253.504,225.462 253.504,227.233 245.663,225.618 	"/>
	<line class="st1" x1="249.597" y1="226.373" x2="249.561" y2="224.649"/>
</g>
<g id="SPLINE_00000164506109352281748250000003391387992990172036_">
	<path class="st1" d="M227.624,220.947c0.001-0.01,0.003-0.021,0.007-0.031c0.003-0.008,0.007-0.017,0.012-0.024
		c0.011-0.016,0.025-0.029,0.041-0.039c0.044-0.027,0.099-0.035,0.151-0.032c0.02,0.001,0.04,0.004,0.06,0.008l1.802,0.369
		c0.054,0.011,0.107,0.032,0.154,0.063c0.042,0.027,0.08,0.061,0.104,0.104c0.013,0.023,0.022,0.049,0.023,0.076l0.004,0.168
		l-0.006,0.034c-0.007,0.018-0.02,0.034-0.036,0.046c-0.006,0.004-0.012,0.008-0.019,0.011l-0.207,0.102
		c-0.027,0.013-0.057,0.019-0.087,0.019c-0.011,0-0.022,0-0.034-0.001c-0.012-0.001-0.025-0.003-0.037-0.005l-1.492-0.305
		c-0.012-0.003-0.025-0.006-0.037-0.01c-0.03-0.01-0.06-0.023-0.086-0.041c-0.013-0.008-0.025-0.017-0.036-0.027l-0.213-0.188
		c-0.013-0.011-0.025-0.024-0.035-0.038c-0.009-0.012-0.017-0.026-0.022-0.04c-0.005-0.013-0.008-0.026-0.008-0.039l-0.004-0.168
		L227.624,220.947z"/>
</g>
<polyline class="st1" points="296.644,105.931 295.531,106.316 188.948,84.596 "/>
<polyline class="st1" points="205.436,80.456 202.571,81.144 202.571,81.946 199.477,84.925 199.649,82.003 202.8,77.935 
	205.78,77.019 "/>
<path class="st1" d="M230.247,75.32l-1.549,11.791l-3.25,4.081c0,0-0.794,0.529-0.68-0.68c0.113-1.209,0.491-3.779,0.491-3.779
	l4.497-11.413H230.247z"/>
<path class="st1" d="M208.917,68.206l-0.815,1.086l-2.127,6.924l-0.679,5.249c0,0,0.226,0.679,0.86-0.045
	c0.634-0.724,4.525-5.657,4.525-5.657l8.221-64.189l-0.532-0.887l-2.041,2.751l-0.266,3.372l-3.017,4.792l-1.154,10.916l1.952-2.13
	l-2.683,20.533h0.74l-0.542,4.439l-0.888,0.444L208.917,68.206z"/>
<polygon class="st1" points="232.597,86.321 235.598,82.879 235.951,79.438 235.157,78.026 233.039,75.378 232.686,73.172 
	233.745,65.583 234.098,56.935 230.921,77.585 232.509,82.879 "/>
<polygon class="st1" points="258.668,86.553 258.033,93.136 263.189,87.108 271.516,23.422 268.423,33.257 267.63,40.474 
	267.075,41.346 266.282,47.136 265.753,47.914 263.744,65.933 263.109,66.646 261.523,79.257 260.968,80.05 "/>
<polyline class="st1" points="257.844,92.314 256.912,93.778 256.735,96.796 259.93,93.557 260.119,90.996 "/>
<polyline class="st1" points="285.923,80.982 285.393,84.362 285.857,86.416 287.381,88.072 "/>
<polyline class="st1" points="288.308,81.446 286.917,93.506 288.139,92.033 289.501,90.391 289.634,89 289.103,87.542 
	289.435,86.88 288.716,84.485 289.047,81.569 "/>
<polyline class="st1" points="288.122,93.484 284.954,97.163 285.107,93.79 283.472,88.374 284.239,84.081 284.545,83.366 
	289.451,46.013 287.509,48.159 288.173,41.67 289.553,39.779 290.677,30.53 293.488,26.851 218.903,11.574 "/>
<path class="st1" d="M310.764,30.368l-16.235-3.338l-0.051,0.961l-3.035,9.458l-0.708,7.182l-0.556,2.175l12.846,2.681
	c0,0,2.377-1.315,0-4.248l-9.963-2.023l0.506-0.759l1.72-12.644l1.696-2.136"/>
<line class="st1" x1="309.036" y1="52.277" x2="303.399" y2="96.559"/>
<path class="st1" d="M303.399,96.559"/>
<polyline class="st1" points="300.389,105.045 298.328,97.861 301.057,75.565 301.656,74.766 303.386,62.188 302.921,61.855 
	305.826,40.166 306.344,40.194 308.472,34.002 311.964,29.282 310.597,40.016 308.167,43.112 306.658,54.794 309.598,50.693 
	310.759,40.365 "/>
<polyline class="st1" points="305.291,29.401 303.506,31.714 301.986,44.734 "/>
<polyline class="st1" points="306.049,29.647 305.955,30.678 303.331,39.63 304.174,39.762 303.565,41.739 303.026,45.238 "/>
<line class="st1" x1="288.879" y1="52.18" x2="303.725" y2="55.39"/>
<line class="st1" x1="287.595" y1="62.853" x2="302.681" y2="65.902"/>
<polyline class="st1" points="299.912,83.73 296.789,83.086 284.985,80.653 "/>
<polyline class="st1" points="296.789,83.086 295.338,95.08 297.874,92.544 298.041,91.089 297.001,86.806 297.375,83.272 "/>
<polyline class="st1" points="289.808,89.467 295.671,90.715 292.22,101.566 291.929,104.976 295.837,100.485 296.752,93.708 "/>
<line class="st1" x1="263.299" y1="86.651" x2="284.123" y2="90.874"/>
<line class="st1" x1="264.301" y1="79.281" x2="284.545" y2="83.366"/>
<line class="st1" x1="265.159" y1="71.767" x2="285.268" y2="76.06"/>
<line class="st1" x1="266.376" y1="63.466" x2="286.556" y2="67.759"/>
<line class="st1" x1="267.449" y1="55.165" x2="287.629" y2="59.458"/>
<line class="st1" x1="268.451" y1="46.506" x2="288.846" y2="50.943"/>
<line class="st1" x1="269.668" y1="37.847" x2="288.173" y2="41.67"/>
<polyline class="st1" points="250.919,18.194 249.095,20.625 247.474,34.068 263.417,37.514 264.632,36.771 265.308,31.637 
	268.078,22.72 268.145,21.774 "/>
<line class="st1" x1="271.516" y1="23.422" x2="268.078" y2="22.72"/>
<polyline class="st1" points="249.906,19.139 241.192,17.315 238.354,26.84 237.367,34.739 234.234,59.806 "/>
<line class="st1" x1="267.064" y1="40.756" x2="237.367" y2="34.739"/>
<line class="st1" x1="236.53" y1="41.432" x2="265.713" y2="47.444"/>
<line class="st1" x1="264.565" y1="58.117" x2="235.112" y2="52.038"/>
<line class="st1" x1="233.745" y1="65.583" x2="262.11" y2="71.657"/>
<line class="st1" x1="217.028" y1="27.377" x2="237.465" y2="31.584"/>
<line class="st1" x1="216.026" y1="35.892" x2="236.363" y2="40.2"/>
<line class="st1" x1="214.824" y1="44.307" x2="235.462" y2="48.716"/>
<line class="st1" x1="213.321" y1="52.723" x2="234.098" y2="56.935"/>
<line class="st1" x1="212.713" y1="61.18" x2="232.683" y2="65.316"/>
<line class="st1" x1="211.734" y1="68.254" x2="231.649" y2="72.553"/>
<line class="st1" x1="229.682" y1="80.098" x2="231.431" y2="80.497"/>
<line class="st1" x1="210.682" y1="75.763" x2="227.869" y2="79.684"/>
<line class="st1" x1="233.064" y1="73.75" x2="241.824" y2="75.546"/>
<line class="st1" x1="243.509" y1="79.911" x2="257.822" y2="82.837"/>
<line class="st1" x1="235.73" y1="78.321" x2="241.282" y2="79.456"/>
<polyline class="st1" points="259.753,82.579 259.094,79.118 259.533,74.175 258.764,74.999 257.336,87.303 258.6,86.094 "/>
<polyline class="st1" points="242.231,72.032 240.803,83.732 243.384,81.096 243,78.404 243.439,77.855 242.505,74.724 
	242.835,71.868 241.901,71.538 242.56,70.769 245.691,71.428 246.131,70.879 248.328,71.373 248.328,71.977 253.821,73.076 
	254.15,72.582 256.348,73.021 256.238,73.68 259.039,74.285 "/>
<line class="st1" x1="208.857" y1="65.164" x2="195.485" y2="62.285"/>
<line class="st1" x1="211.179" y1="47.427" x2="187.963" y2="42.691"/>
<line class="st1" x1="212.757" y1="36.748" x2="189.449" y2="32.012"/>
<line class="st1" x1="212.386" y1="26.997" x2="190.377" y2="22.726"/>
<polyline class="st1" points="191.77,16.132 190.935,19.011 186.291,56.435 "/>
<path class="st1" d="M195.259,64.965l0.942-5.654c0,0,1.068-0.942-1.194-1.382c-2.262-0.44-8.105-1.508-8.105-1.508
	s-1.445-0.126-1.571,1.257c-0.126,1.382-0.434,3.773-0.434,3.773l0.129,0.027l9.715,2.016l0.65,1.95l13.525,2.763"/>
<polyline class="st1" points="185.027,61.476 186.777,68.483 185.835,74.2 184.515,77.153 183.824,81.802 183.07,81.739 "/>
<path class="st1" d="M167.881,135.99l13.201-36.122l1.061,0.088l3.803-10.436l-0.973-0.442l0.884-2.476l2.476,0.442
	c0,0,0.177-2.034,0.884-2.83l-1.519-0.344l-1.299,1.263l-3.141-0.565l-0.503-0.754l0.377-3.016l-1.948-7.288l7.162-53.528
	l4.021-5.529l2.262,0.377l1.131-1.319l5.026,1.068"/>
<path class="st1" d="M204.576,7.185l0.085,2.394l-2.735,9.061l-0.94,1.111c0,0-0.769-0.085-0.513-1.881
	c0.256-1.795,0.855-6.497,0.855-6.497L204.576,7.185z"/>
<line class="st1" x1="310.084" y1="28.953" x2="311.491" y2="29.248"/>
<line class="st1" x1="284.387" y1="23.654" x2="307.235" y2="28.37"/>
<line class="st1" x1="273.368" y1="21.393" x2="280.05" y2="22.759"/>
<line class="st1" x1="247.633" y1="16.068" x2="270.251" y2="20.737"/>
<line class="st1" x1="204.584" y1="7.183" x2="243.238" y2="15.161"/>
<polyline class="st1" points="192.369,14.453 192.594,12.258 193.367,11.897 193.728,9.525 194.346,9.216 195.635,9.422 
	195.945,11.742 195.761,13.51 "/>
<polygon class="st1" points="232.7,12.721 233.783,11.897 235.226,12.206 236.051,13.289 235.845,14.268 232.597,13.546 "/>
<polygon class="st1" points="244.196,14.062 247.238,14.732 247.599,15.918 247.135,16.588 243.371,15.815 243.371,15.247 "/>
<polygon class="st1" points="270.506,20.526 271.606,19.747 272.614,19.885 273.301,20.801 273.147,21.812 270.436,21.259 "/>
<polygon class="st1" points="280.189,22.771 281.09,21.653 283.938,22.266 284.335,23.312 284.01,24.249 280.297,23.492 "/>
<polygon class="st1" points="307.273,28.846 307.427,27.971 308.458,27.25 309.488,27.43 310.131,28.383 309.925,29.413 "/>
<line class="st1" x1="186.777" y1="68.483" x2="206.993" y2="72.5"/>
<path class="st1" d="M186.311,72.601l2.129,0.406c0,0,0.912,0,0.71,1.115s-1.45,9.747-1.45,9.747"/>
<polyline class="st1" points="176.6,121.158 175.073,120.896 169.387,136.302 "/>
<polyline class="st1" points="175.448,137.68 181.306,121.963 179.056,121.578 "/>
<path class="st1" d="M176.814,119.044"/>
<polyline class="st1" points="190.345,85.155 189.325,88.06 189.339,91.286 198.405,93.064 199.777,88.867 200.025,86.888 "/>
<polyline class="st1" points="189.648,88.06 198.203,89.876 199.373,86.809 "/>
<line class="st1" x1="198.405" y1="93.064" x2="198.203" y2="89.876"/>
<line class="st1" x1="279.395" y1="104.322" x2="299.087" y2="108.398"/>
<line class="st1" x1="221.518" y1="92.557" x2="245.538" y2="97.432"/>
<path class="st1" d="M199.938,89.149c0,0,0.847,0.565,1.009-0.767l10.876,2.207"/>
<polyline class="st1" points="270.154,101.175 269.427,102.749 269.387,105.697 277.902,107.47 "/>
<polyline class="st1" points="278.507,102.789 277.74,104.524 277.902,107.47 279.717,103.071 "/>
<line class="st1" x1="269.427" y1="102.749" x2="277.74" y2="104.524"/>
<polyline class="st1" points="246.053,96.259 244.912,99.46 247.745,100.012 248.96,96.884 "/>
<polyline class="st1" points="244.918,99.479 244.912,102.51 247.745,103.062 247.751,99.991 "/>
<line class="st1" x1="249.718" y1="98.28" x2="269.548" y2="102.305"/>
<line class="st1" x1="247.738" y1="103.068" x2="250.059" y2="97.241"/>
<polyline class="st1" points="212.258,89.358 211.725,90.825 211.585,91.209 211.518,94.877 219.897,96.559 221.983,91.31 "/>
<polyline class="st1" points="220.603,91.041 219.93,92.656 211.855,90.973 "/>
<line class="st1" x1="220.031" y1="96.088" x2="219.93" y2="92.656"/>
<polyline class="st1" points="274.63,151.855 273.927,153.312 273.876,154.166 273.374,155.774 274.278,155.975 274.145,156.6 "/>
<polyline class="st1" points="276.952,157.212 276.794,156.477 276.059,156.267 276.584,154.744 276.532,153.799 277.267,152.697 
	277.114,149.265 287.311,122.699 287.695,122.56 288.109,122.201 290.188,122.628 290.245,123.761 "/>
<polyline class="st1" points="293.524,123.314 291.258,122.848 290.552,123.501 289.607,124.236 289.502,125.233 289.607,128.279 
	280.628,153.169 279.84,152.907 279.105,154.324 279.157,155.165 278.58,156.792 279.473,157.002 279.63,157.79 "/>
<polyline class="st1" points="274.145,156.6 276.15,157.032 276.378,156.482 "/>
<polyline class="st1" points="277.056,157.243 278.886,157.626 279.059,156.983 "/>
<line class="st1" x1="280.365" y1="157.948" x2="279.708" y2="157.805"/>
<polyline class="st1" points="282.994,121.215 282.744,121.524 281.988,121.931 272.046,149.091 272.037,151.65 271.342,152.832 
	271.389,153.713 270.832,155.289 271.667,155.52 271.666,156.126 273.463,156.487 273.706,155.866 "/>
<polyline class="st1" points="282.071,120.96 280.666,120.671 280.007,121.304 279.354,123.766 279.605,126.429 270.309,151.151 
	269.455,150.9 268.751,152.307 268.801,153.061 268.249,154.769 269.153,154.97 269.153,155.523 270.856,155.938 271.14,155.379 "/>
<polyline class="st1" points="285.133,123.031 284.981,121.558 282.864,121.123 "/>
<polyline class="st1" points="191.117,102.265 256.051,115.612 255.985,116.898 255.221,117.106 255.152,118.078 255.36,120.369 "/>
<polyline class="st1" points="287.662,122.055 285.985,121.73 285.687,122.272 285.309,122.65 284.659,124.571 284.47,126.952 
	274.947,151.652 "/>
<path class="st1" d="M284.163,150.229l0.91-2.329c0,0,0.645-1.176,0.835,0.228c0.19,1.404,0.228,2.58,0.228,2.58"/>
<line class="st1" x1="285.935" y1="148.652" x2="288.043" y2="143.315"/>
<polygon class="st1" points="252.808,119.898 256.712,120.726 257.895,117.591 271.324,120.371 270.259,123.447 274.104,124.276 
	271.679,131.079 267.774,130.132 266.65,133.208 270.614,134.036 268.129,140.78 264.047,139.893 262.864,143.147 249.495,140.366 
	250.678,137.231 246.596,136.462 249.317,129.659 253.103,130.428 254.227,127.411 250.205,126.583 "/>
<line class="st1" x1="271.324" y1="120.371" x2="271.467" y2="123.632"/>
<line class="st1" x1="274.104" y1="124.276" x2="274.383" y2="134.185"/>
<polyline class="st1" points="271.679,131.079 271.953,140.295 270.842,140.086 "/>
<line class="st1" x1="270.614" y1="134.036" x2="270.842" y2="143.488"/>
<polyline class="st1" points="264.047,139.893 264.455,149.459 268.343,150.223 268.129,140.78 "/>
<polyline class="st1" points="262.864,143.147 263.205,152.583 264.455,149.459 "/>
<polyline class="st1" points="249.495,140.366 249.736,149.875 245.71,148.973 246.89,145.779 246.596,136.462 "/>
<line class="st1" x1="249.621" y1="146.34" x2="246.89" y2="145.779"/>
<polyline class="st1" points="263.205,152.583 267.158,153.329 268.343,150.223 "/>
<polyline class="st1" points="274.388,130.817 275.164,130.972 275.423,131.851 267.249,154.355 245.749,149.879 245.71,148.973 "/>
<line class="st1" x1="289.607" y1="128.279" x2="291.638" y2="128.648"/>
<polyline class="st1" points="218.228,145.278 216.534,144.91 216.386,144.173 215.539,143.989 216.202,142.331 216.128,141.447 
	216.828,140.085 217.712,140.269 227.031,115.113 226.957,112.719 227.62,110.693 228.283,109.994 "/>
<polyline class="st1" points="223.305,146.293 221.611,145.925 221.464,145.188 220.617,145.004 221.28,143.347 221.206,142.463 
	221.906,141.1 222.79,141.284 232.108,116.129 232.034,113.735 232.697,111.709 233.36,111.009 "/>
<polyline class="st1" points="228.691,147.317 226.997,146.949 226.85,146.212 226.003,146.028 226.666,144.371 226.592,143.487 
	227.292,142.124 228.176,142.308 237.097,117.152 237.024,114.758 237.687,112.733 238.35,112.033 "/>
<polyline class="st1" points="226.036,146.898 224.342,146.53 224.195,145.793 223.347,145.609 223.906,144.16 223.821,143.142 
	224.543,142.124 224.712,138.825 234.808,111.292 "/>
<polyline class="st1" points="231.253,147.877 229.559,147.508 229.411,146.772 228.564,146.587 229.123,145.139 229.038,144.12 
	229.759,143.102 229.928,139.804 239.948,112.404 "/>
<polyline class="st1" points="233.908,148.426 232.214,148.057 232.067,147.321 231.219,147.137 231.882,145.479 231.809,144.595 
	232.508,143.232 233.392,143.417 242.314,118.261 242.24,115.867 242.903,113.841 243.566,113.141 "/>
<polyline class="st1" points="236.469,148.985 234.775,148.617 234.628,147.88 233.781,147.696 234.34,146.247 234.255,145.229 
	234.976,144.211 235.145,140.912 245.242,113.379 "/>
<polyline class="st1" points="238.929,149.599 237.235,149.231 237.088,148.494 236.24,148.31 236.903,146.653 236.83,145.769 
	237.53,144.406 238.413,144.59 247.335,119.435 247.261,117.041 247.924,115.015 248.587,114.315 "/>
<polyline class="st1" points="246.449,137.752 243.63,145.699 242.746,145.515 242.046,146.878 242.12,147.761 241.457,149.419 
	242.304,149.603 242.452,150.34 244.146,150.708 246.827,143.77 "/>
<line class="st1" x1="250.434" y1="126.516" x2="249.13" y2="130.191"/>
<polyline class="st1" points="253.804,115.424 253.141,116.123 252.478,118.149 252.552,120.543 "/>
<polyline class="st1" points="241.49,150.159 239.796,149.791 239.649,149.054 238.802,148.87 239.361,147.421 239.276,146.403 
	239.997,145.385 240.166,142.086 250.263,114.553 "/>
<polyline class="st1" points="229.742,110.479 219.539,138.434 219.37,140.969 218.744,142.221 218.78,143.031 218.154,144.504 
	219.001,144.689 219.149,145.425 220.843,145.793 "/>
<polyline class="st1" points="181.254,137.755 179.559,137.386 179.412,136.65 178.565,136.465 179.228,134.808 179.154,133.924 
	179.854,132.561 180.738,132.745 190.056,107.59 189.983,105.196 190.646,103.17 191.308,102.47 "/>
<polyline class="st1" points="192.767,102.955 182.565,130.91 182.395,133.445 181.769,134.698 181.806,135.508 181.18,136.981 
	182.027,137.165 182.174,137.902 183.869,138.27 "/>
<polyline class="st1" points="186.402,138.956 184.707,138.587 184.56,137.851 183.713,137.667 184.376,136.009 184.302,135.125 
	185.002,133.763 185.886,133.947 195.204,108.791 195.131,106.397 195.794,104.371 196.457,103.671 "/>
<polyline class="st1" points="201.1,104.543 200.437,105.243 199.774,107.268 199.959,109.229 190.942,134.878 190.177,134.634 
	189.478,135.997 189.551,136.881 188.888,138.538 189.735,138.722 189.883,139.459 191.577,139.827 194.236,132.759 "/>
<polyline class="st1" points="203.722,104.841 203.06,105.541 202.397,107.566 202.521,109.646 "/>
<polyline class="st1" points="197.915,104.157 187.713,132.111 187.543,134.646 186.917,135.899 186.954,136.709 186.328,138.182 
	187.175,138.366 187.322,139.103 189.017,139.471 "/>
<polyline class="st1" points="199.959,109.229 203.892,110.004 205.203,106.786 218.612,109.646 217.599,112.745 221.473,113.579 
	219.149,120.314 215.036,119.42 214.023,122.34 217.837,123.234 215.513,130.088 211.401,129.194 210.269,132.233 196.8,129.492 
	197.992,126.512 194.297,125.737 194.357,134.974 193.046,138.252 193.046,139.146 214.5,143.497 222.784,120.85 222.248,120.075 
	"/>
<polyline class="st1" points="196.681,119.003 200.316,119.718 201.508,116.619 197.813,115.844 198.052,118.943 "/>
<line class="st1" x1="218.612" y1="109.646" x2="218.91" y2="113.043"/>
<line class="st1" x1="221.473" y1="113.579" x2="221.83" y2="123.234"/>
<polyline class="st1" points="219.149,120.314 219.387,129.79 218.337,129.579 "/>
<line class="st1" x1="217.837" y1="123.234" x2="218.195" y2="133.187"/>
<line class="st1" x1="215.513" y1="130.088" x2="215.752" y2="139.861"/>
<polyline class="st1" points="211.52,129.253 211.878,138.61 210.626,141.828 210.269,132.233 "/>
<line class="st1" x1="211.878" y1="138.61" x2="215.752" y2="139.444"/>
<line class="st1" x1="210.626" y1="141.828" x2="214.788" y2="142.724"/>
<polyline class="st1" points="193.046,138.252 197.075,139.002 196.8,129.492 "/>
<line class="st1" x1="194.318" y1="135.039" x2="196.971" y2="135.591"/>
<path class="st1" d="M177.145,119.084c0,0,0.358-1.134,1.617-0.995c0,0,1.202,0.166,0.947,1.507l-0.42,1.259
	c0,0-0.343,1.394-1.637,1.042c0,0-1.067-0.017-0.974-1.182L177.145,119.084z"/>
<path class="st1" d="M174.318,122.846l0.059-2.274c0,0-0.095-0.634,0.761-0.507s1.574,0.27,1.574,0.27"/>
<path class="st1" d="M179.563,120.876l1.845,0.293c0,0,0.539-0.015,0.539,0.568c0,0.583-0.045,2.679-0.045,2.679l-1.28-0.256"/>
<polyline class="st1" points="179.801,119.596 180.271,119.659 180.236,120.876 "/>
<line class="st1" x1="177.599" y1="119.942" x2="178.835" y2="120.181"/>
<line class="st1" x1="177.773" y1="119.291" x2="179.009" y2="119.53"/>
<ellipse transform="matrix(0.1987 -0.9801 0.9801 0.1987 3.5652 268.9432)" class="st1" cx="166.247" cy="132.291" rx="1.756" ry="0.597"/>
<circle class="st1" cx="287.687" cy="99.538" r="0.889"/>
<circle class="st1" cx="256.176" cy="93.249" r="0.889"/>
<path class="st1" d="M225.109,87.785c-0.491,0-0.889-0.398-0.889-0.889s0.398-0.889,0.889-0.889c0.123,0,0.24,0.025,0.346,0.07"/>
<line class="st1" x1="157.853" y1="147.884" x2="160.312" y2="140.828"/>
<g>
	<path class="st1" d="M35.486,204.051l28.452-75.469l7.727,1.703c0,0-0.708,2.894,2.758,3.481c3.466,0.588,4.063-1.978,4.063-1.978
		l7.8,1.72L58.112,208.8"/>
	<path class="st1" d="M62.154,133.033l-1.171-3.6l0.911-2.255c0,0,0.564-1.084,2.082-0.954l7.026,1.475l0.477-1.518l-1.258-0.304
		l1.128-3.426"/>
	<polyline class="st1" points="61.46,129.52 62.24,129.607 63.151,130.518 	"/>
	<polyline class="st1" points="81.366,123.796 83.795,124.316 81.583,130.171 82.537,132.686 	"/>
	<polyline class="st1" points="69.179,129.737 68.572,127.395 70.827,121.54 72.074,121.807 	"/>
	<polyline class="st1" points="80.368,132.253 79.544,129.954 70.957,128.133 71.664,130.285 	"/>
	<path class="st1" d="M82.32,131.298l0.26-0.997l5.421,1.171c0,0,1.301,0.347,1.171,1.344c-0.13,0.997-0.824,2.429-0.824,2.429
		l-1.344-0.304l0.651-1.605"/>
	<path class="st1" d="M81.539,129.867l-1.821-0.347l1.128-4.814c0,0,0.911-1.128,0.737-2.559c-0.173-1.431-1.297-4.008-3.899-4.139"
		/>
	<path class="st1" d="M71.717,123.911l0.871-3.289c0,0,1.322-2.999,4.676-2.612c3.354,0.387,3.741,3.999,3.451,5.16l-0.774,2.806
		c0,0-1.516,3.193-4.902,2.419C75.039,128.393,71.846,127.877,71.717,123.911z"/>
	<path class="st1" d="M73.523,120.847c0,0,1.161-2.29,3.773-1.774c0,0,2.483,0.419,2.483,3.354l-0.645,2.773
		c0,0-1.032,2.709-3.805,2.29c0,0-2.548-0.484-2.58-3.16L73.523,120.847z"/>
	<polyline class="st1" points="83.795,124.316 85.249,128.101 85.75,127.022 86.52,129.218 85.904,130.836 	"/>
	<line class="st1" x1="74.808" y1="120.626" x2="78.777" y2="121.435"/>
	<line class="st1" x1="74.539" y1="121.859" x2="78.507" y2="122.668"/>
	<line class="st1" x1="74.269" y1="123.092" x2="78.237" y2="123.901"/>
	<line class="st1" x1="73.999" y1="124.325" x2="77.968" y2="125.134"/>
	<polyline class="st1" points="73.19,128.794 73.576,129.796 76.85,130.528 	"/>
	<path class="st1" d="M77.39,129.642c0,0-0.457,3.056-2.62,2.658c-1.888-0.347-1.194-2.504-1.194-2.504"/>
	<line class="st1" x1="77.968" y1="129.757" x2="78.777" y2="131.722"/>
	<path class="st1" d="M72.497,128.563c0,0-0.771,1.503-0.809,2.504"/>
	<polyline class="st1" points="89.172,132.816 90.951,137.578 89.988,140.313 85.943,139.427 	"/>
	<polyline class="st1" points="86.285,133.508 86.965,134.981 87.753,137.963 89.217,138.233 88.348,135.245 	"/>
	<polyline class="st1" points="58.599,208.958 57.169,212.771 58.729,217.452 61.026,211.905 59.829,208.15 87.028,135.97 	"/>
	<polyline class="st1" points="58.729,217.452 35.366,212.716 33.754,207.878 35.015,204.259 36.355,204.573 36.634,204.044 
		57.186,208.409 57.877,208.736 	"/>
	<line class="st1" x1="34.015" y1="207.9" x2="57.169" y2="212.771"/>
	<path class="st1" d="M36.502,201.695l3.113,0.769c0,0,1.614-0.846,2.498,0.423l15.528,3.421c0,0,0.538-0.384,1.384-0.269"/>
	<polyline class="st1" points="80.194,128.002 81.382,128.218 82.517,125.031 81.22,124.383 	"/>
	<polyline class="st1" points="89.592,140.185 89.001,138.96 89.508,137.692 90.353,139.129 	"/>
	<ellipse class="st1" cx="83.762" cy="129.476" rx="0.507" ry="0.993"/>
	<ellipse class="st1" cx="40.805" cy="203.546" rx="0.694" ry="0.595"/>
</g>
<g>
	<defs>
		<circle id="SVGID_1_" cx="48.097" cy="61.217" r="39.525"/>
	</defs>
	<clipPath id="SVGID_00000168797737435078083470000011504904018672541836_">
		<use xlink:href="#SVGID_1_"  style="overflow:visible;"/>
	</clipPath>
	<g style="clip-path:url(#SVGID_00000168797737435078083470000011504904018672541836_);">
		<path class="st1" d="M-34.674,210.446L23.645,55.754l15.839,3.492c0,0-1.452,5.932,5.653,7.136s8.327-4.054,8.327-4.054
			l15.989,3.525L11.706,220.181"/>
		<path class="st1" d="M19.989,64.878l-2.4-7.378l1.867-4.623c0,0,1.156-2.222,4.267-1.956l14.401,3.022l0.978-3.111l-2.578-0.622
			l2.311-7.023"/>
		<polyline class="st1" points="18.567,57.678 20.167,57.856 22.034,59.722 		"/>
		<polyline class="st1" points="59.369,45.945 64.348,47.01 59.814,59.011 61.77,64.167 		"/>
		<polyline class="st1" points="34.39,58.122 33.146,53.322 37.768,41.321 40.324,41.868 		"/>
		<polyline class="st1" points="57.325,63.278 55.636,58.567 38.035,54.833 39.484,59.246 		"/>
		<path class="st1" d="M61.325,61.323l0.533-2.045l11.112,2.4c0,0,2.667,0.711,2.4,2.756c-0.267,2.045-1.689,4.978-1.689,4.978
			l-2.756-0.622l1.333-3.289"/>
		<path class="st1" d="M59.725,58.389l-3.734-0.711l2.311-9.867c0,0,1.867-2.311,1.511-5.245c-0.356-2.934-2.659-8.216-7.993-8.483"
			/>
		<path class="st1" d="M39.592,46.179l1.785-6.742c0,0,2.71-6.148,9.585-5.354s7.668,8.197,7.073,10.576l-1.586,5.751
			c0,0-3.107,6.544-10.048,4.958C46.401,55.368,39.857,54.31,39.592,46.179z"/>
		<path class="st1" d="M43.294,39.9c0,0,2.38-4.693,7.734-3.636c0,0,5.09,0.859,5.09,6.875l-1.322,5.685c0,0-2.115,5.553-7.8,4.693
			c0,0-5.222-0.992-5.288-6.478L43.294,39.9z"/>
		<polyline class="st1" points="64.348,47.01 67.329,54.768 68.356,52.557 69.935,57.058 68.672,60.375 		"/>
		<line class="st1" x1="45.928" y1="39.448" x2="54.062" y2="41.106"/>
		<line class="st1" x1="45.376" y1="41.975" x2="53.509" y2="43.633"/>
		<line class="st1" x1="44.823" y1="44.502" x2="52.957" y2="46.16"/>
		<line class="st1" x1="44.27" y1="47.029" x2="52.404" y2="48.687"/>
		<polyline class="st1" points="42.612,56.189 43.401,58.242 50.114,59.743 		"/>
		<path class="st1" d="M51.219,57.926c0,0-0.937,6.263-5.37,5.449c-3.87-0.711-2.448-5.133-2.448-5.133"/>
		<line class="st1" x1="52.404" y1="58.163" x2="54.062" y2="62.191"/>
		<path class="st1" d="M41.19,55.715c0,0-1.579,3.08-1.658,5.133"/>
		<polyline class="st1" points="75.371,64.434 79.017,74.194 77.042,79.801 68.751,77.985 		"/>
		<polyline class="st1" points="69.453,65.852 70.847,68.871 72.462,74.984 75.463,75.537 73.682,69.412 		"/>
		<polyline class="st1" points="12.704,220.505 9.772,228.322 12.97,237.915 17.678,226.545 15.225,218.85 70.975,70.899 		"/>
		<polyline class="st1" points="12.97,237.915 -34.918,228.209 -38.224,218.292 -35.638,210.874 -32.892,211.516 -32.32,210.433 
			9.807,219.38 11.224,220.051 		"/>
		<line class="st1" x1="-37.689" y1="218.336" x2="9.772" y2="228.322"/>
		<path class="st1" d="M-32.589,205.618l6.382,1.576c0,0,3.309-1.733,5.121,0.867l31.829,7.012c0,0,1.103-0.788,2.836-0.551"/>
		<polyline class="st1" points="56.967,54.566 59.403,55.009 61.728,48.476 59.071,47.148 		"/>
		<polyline class="st1" points="76.231,79.537 75.019,77.026 76.058,74.428 77.79,77.373 		"/>
		<ellipse class="st1" cx="64.281" cy="57.586" rx="1.039" ry="2.035"/>
		<ellipse class="st1" cx="-23.77" cy="209.412" rx="1.422" ry="1.219"/>
	</g>
</g>
<circle class="st3" cx="48.097" cy="61.217" r="39.525"/>
<g>
	<g>
		<path class="st4" d="M43.643,152.916c0,7.593-6.246,13.745-13.95,13.745c-7.707,0-13.953-6.152-13.953-13.745
			c0-7.596,6.246-13.755,13.953-13.755C37.397,139.161,43.643,145.32,43.643,152.916"/>
	</g>
	<g>
		<path class="st5" d="M34.638,157.584v1.774h-9.936c-0.014-0.444,0.058-0.872,0.215-1.282c0.253-0.677,0.658-1.343,1.215-1.999
			c0.557-0.656,1.362-1.415,2.415-2.276c1.634-1.34,2.738-2.401,3.312-3.184c0.574-0.783,0.861-1.523,0.861-2.221
			c0-0.731-0.262-1.348-0.784-1.851c-0.523-0.502-1.205-0.754-2.046-0.754c-0.889,0-1.6,0.267-2.133,0.8s-0.803,1.271-0.81,2.215
			l-1.897-0.194c0.13-1.415,0.619-2.493,1.466-3.235c0.848-0.741,1.986-1.112,3.415-1.112c1.442,0,2.584,0.399,3.425,1.199
			s1.261,1.791,1.261,2.974c0,0.602-0.123,1.193-0.369,1.774s-0.655,1.192-1.225,1.835c-0.571,0.643-1.52,1.524-2.846,2.646
			c-1.107,0.93-1.818,1.561-2.133,1.893c-0.314,0.331-0.574,0.664-0.779,0.999H34.638z"/>
	</g>
</g>
<g>
	<g>
		<path class="st4" d="M38.752,19.166c0,7.593-6.246,13.745-13.95,13.745c-7.707,0-13.953-6.152-13.953-13.745
			c0-7.596,6.246-13.755,13.953-13.755C32.506,5.411,38.752,11.57,38.752,19.166"/>
	</g>
	<g>
		<path class="st5" d="M26.399,26.208h-1.846V14.446c-0.444,0.424-1.027,0.848-1.749,1.271s-1.369,0.742-1.943,0.954v-1.784
			c1.032-0.485,1.935-1.073,2.707-1.764s1.319-1.36,1.641-2.01h1.189V26.208z"/>
	</g>
</g>
<line class="st3" x1="221.302" y1="133.372" x2="188.016" y2="188.422"/>
<g>
	<path class="st6" d="M64.897,173.316c0,0,0.86,7.461-1.916,15.435c-2.53,7.26-8.699,12.327-8.699,12.327l-15.128-3.319
		c0,0,6.757-5.595,9.286-12.855c2.78-7.976,1.296-15.195,1.296-15.195l-6.967-1.515l12.538-10.088l17.126,16.813L64.897,173.316z"/>
</g>
<g>
	<polygon class="st6" points="49.451,42.042 36.895,28.692 43.162,29.802 42.951,8.774 55.309,10.96 55.521,31.99 61.787,33.097 	
		"/>
</g>
<g>
	<path class="st7" d="M86.854,186.147l1.217-0.191c0.068,0.487,0.259,0.861,0.571,1.121s0.749,0.39,1.309,0.39
		c0.565,0,0.984-0.115,1.258-0.346c0.273-0.229,0.41-0.5,0.41-0.81c0-0.278-0.121-0.497-0.362-0.656
		c-0.168-0.109-0.588-0.249-1.258-0.417c-0.902-0.229-1.528-0.425-1.876-0.592c-0.349-0.166-0.613-0.396-0.793-0.69
		s-0.27-0.618-0.27-0.974c0-0.324,0.074-0.623,0.222-0.899c0.148-0.275,0.35-0.505,0.605-0.687c0.191-0.142,0.452-0.261,0.783-0.359
		c0.331-0.098,0.685-0.146,1.063-0.146c0.57,0,1.07,0.082,1.5,0.246s0.749,0.386,0.954,0.666s0.346,0.655,0.424,1.125l-1.203,0.164
		c-0.055-0.374-0.213-0.666-0.475-0.875c-0.262-0.21-0.632-0.314-1.111-0.314c-0.565,0-0.968,0.093-1.21,0.28
		c-0.242,0.187-0.362,0.405-0.362,0.656c0,0.159,0.05,0.303,0.15,0.431c0.1,0.132,0.257,0.241,0.472,0.328
		c0.123,0.045,0.485,0.15,1.087,0.314c0.871,0.232,1.478,0.423,1.822,0.57c0.344,0.148,0.614,0.363,0.81,0.646
		c0.196,0.282,0.294,0.633,0.294,1.053c0,0.41-0.12,0.796-0.359,1.158s-0.584,0.643-1.036,0.841s-0.961,0.298-1.531,0.298
		c-0.943,0-1.662-0.196-2.157-0.588C87.306,187.498,86.991,186.917,86.854,186.147z"/>
	<path class="st7" d="M94.319,188.314v-10.021h1.23v10.021H94.319z"/>
	<path class="st7" d="M96.999,184.684c0-1.345,0.374-2.341,1.121-2.987c0.625-0.538,1.385-0.807,2.283-0.807
		c0.998,0,1.814,0.327,2.447,0.98c0.633,0.654,0.95,1.558,0.95,2.711c0,0.934-0.14,1.669-0.42,2.204
		c-0.28,0.536-0.688,0.951-1.224,1.248c-0.536,0.296-1.12,0.444-1.753,0.444c-1.016,0-1.838-0.326-2.464-0.978
		C97.312,186.848,96.999,185.91,96.999,184.684z M98.263,184.684c0,0.93,0.203,1.626,0.608,2.088
		c0.406,0.463,0.916,0.694,1.531,0.694c0.611,0,1.119-0.232,1.524-0.697s0.608-1.174,0.608-2.126c0-0.898-0.204-1.578-0.612-2.041
		c-0.408-0.462-0.915-0.693-1.521-0.693c-0.615,0-1.125,0.229-1.531,0.69C98.466,183.059,98.263,183.755,98.263,184.684z"/>
	<path class="st7" d="M107.929,187.214l0.178,1.087c-0.346,0.072-0.656,0.109-0.93,0.109c-0.447,0-0.793-0.071-1.039-0.212
		c-0.246-0.142-0.419-0.327-0.52-0.558c-0.1-0.229-0.15-0.714-0.15-1.452v-4.177h-0.902v-0.957h0.902v-1.798l1.224-0.738v2.536
		h1.237v0.957h-1.237v4.245c0,0.351,0.021,0.576,0.065,0.677c0.043,0.1,0.114,0.18,0.212,0.239c0.098,0.059,0.238,0.089,0.42,0.089
		C107.526,187.261,107.706,187.245,107.929,187.214z"/>
	<path class="st7" d="M112.68,183.372c0-1.186,0.122-2.139,0.366-2.861c0.244-0.722,0.606-1.279,1.087-1.671
		c0.481-0.393,1.086-0.588,1.815-0.588c0.538,0,1.009,0.108,1.415,0.324c0.406,0.217,0.741,0.529,1.005,0.937
		c0.264,0.408,0.472,0.905,0.622,1.49c0.15,0.586,0.226,1.375,0.226,2.369c0,1.176-0.121,2.125-0.362,2.847
		c-0.242,0.723-0.603,1.281-1.083,1.675c-0.481,0.395-1.088,0.592-1.822,0.592c-0.966,0-1.725-0.347-2.276-1.039
		C113.011,186.612,112.68,185.254,112.68,183.372z M113.945,183.372c0,1.645,0.192,2.74,0.578,3.284
		c0.385,0.545,0.86,0.817,1.425,0.817s1.04-0.273,1.425-0.82s0.578-1.641,0.578-3.281c0-1.65-0.192-2.746-0.578-3.288
		c-0.385-0.543-0.865-0.813-1.439-0.813c-0.565,0-1.016,0.239-1.354,0.718C114.157,180.598,113.945,181.726,113.945,183.372z"/>
	<path class="st7" d="M89.698,205.26c-0.679-0.857-1.253-1.859-1.723-3.008s-0.704-2.338-0.704-3.568
		c0-1.085,0.175-2.124,0.526-3.117c0.41-1.153,1.043-2.302,1.9-3.445h0.882c-0.551,0.947-0.916,1.624-1.094,2.03
		c-0.278,0.629-0.497,1.285-0.656,1.969c-0.196,0.852-0.294,1.709-0.294,2.57c0,2.191,0.681,4.382,2.044,6.569H89.698z"/>
	<path class="st7" d="M92.111,202.314v-10.021h3.76c0.766,0,1.38,0.102,1.842,0.304c0.462,0.203,0.825,0.516,1.087,0.937
		c0.262,0.422,0.393,0.862,0.393,1.323c0,0.428-0.116,0.831-0.349,1.21c-0.232,0.378-0.583,0.684-1.053,0.916
		c0.606,0.178,1.072,0.48,1.398,0.909c0.326,0.428,0.489,0.934,0.489,1.518c0,0.469-0.099,0.905-0.297,1.309
		s-0.443,0.715-0.735,0.934s-0.657,0.384-1.097,0.495c-0.44,0.112-0.979,0.168-1.617,0.168H92.111z M93.437,196.504h2.167
		c0.588,0,1.009-0.039,1.265-0.116c0.337-0.101,0.591-0.267,0.762-0.499s0.256-0.524,0.256-0.875c0-0.333-0.08-0.626-0.239-0.879
		s-0.387-0.426-0.684-0.52c-0.296-0.093-0.804-0.14-1.524-0.14h-2.003V196.504z M93.437,201.132h2.495
		c0.428,0,0.729-0.017,0.902-0.048c0.305-0.055,0.561-0.146,0.766-0.273c0.205-0.128,0.374-0.313,0.506-0.558
		c0.132-0.243,0.198-0.525,0.198-0.844c0-0.374-0.096-0.698-0.287-0.975c-0.191-0.275-0.457-0.469-0.796-0.581
		c-0.339-0.111-0.828-0.167-1.466-0.167h-2.317V201.132z"/>
	<path class="st7" d="M100.888,198.684c0-1.345,0.374-2.341,1.121-2.987c0.625-0.538,1.385-0.807,2.283-0.807
		c0.998,0,1.814,0.327,2.447,0.98c0.633,0.654,0.95,1.558,0.95,2.711c0,0.934-0.14,1.669-0.42,2.204
		c-0.28,0.536-0.688,0.951-1.224,1.248c-0.536,0.296-1.12,0.444-1.753,0.444c-1.016,0-1.838-0.326-2.464-0.978
		C101.202,200.848,100.888,199.91,100.888,198.684z M102.153,198.684c0,0.93,0.203,1.626,0.608,2.088
		c0.406,0.463,0.916,0.694,1.531,0.694c0.611,0,1.119-0.232,1.524-0.697s0.608-1.174,0.608-2.126c0-0.898-0.204-1.578-0.612-2.041
		c-0.408-0.462-0.915-0.693-1.521-0.693c-0.615,0-1.125,0.229-1.531,0.69C102.356,197.059,102.153,197.755,102.153,198.684z"/>
	<path class="st7" d="M108.674,198.684c0-1.345,0.374-2.341,1.121-2.987c0.625-0.538,1.385-0.807,2.283-0.807
		c0.998,0,1.814,0.327,2.447,0.98c0.633,0.654,0.95,1.558,0.95,2.711c0,0.934-0.14,1.669-0.42,2.204
		c-0.28,0.536-0.688,0.951-1.224,1.248c-0.536,0.296-1.12,0.444-1.753,0.444c-1.016,0-1.838-0.326-2.464-0.978
		C108.988,200.848,108.674,199.91,108.674,198.684z M109.939,198.684c0,0.93,0.203,1.626,0.608,2.088
		c0.406,0.463,0.916,0.694,1.531,0.694c0.611,0,1.119-0.232,1.524-0.697s0.608-1.174,0.608-2.126c0-0.898-0.204-1.578-0.612-2.041
		c-0.408-0.462-0.915-0.693-1.521-0.693c-0.615,0-1.125,0.229-1.531,0.69C110.142,197.059,109.939,197.755,109.939,198.684z"/>
	<path class="st7" d="M119.605,201.214l0.178,1.087c-0.346,0.072-0.656,0.109-0.93,0.109c-0.447,0-0.793-0.071-1.039-0.212
		c-0.246-0.142-0.419-0.327-0.52-0.558c-0.1-0.229-0.15-0.714-0.15-1.452v-4.177h-0.902v-0.957h0.902v-1.798l1.224-0.738v2.536
		h1.237v0.957h-1.237v4.245c0,0.351,0.021,0.576,0.065,0.677c0.043,0.1,0.114,0.18,0.212,0.239c0.098,0.059,0.238,0.089,0.42,0.089
		C119.202,201.261,119.382,201.245,119.605,201.214z"/>
	<path class="st7" d="M121.615,205.26h-0.882c1.363-2.188,2.044-4.378,2.044-6.569c0-0.857-0.098-1.707-0.294-2.55
		c-0.155-0.684-0.372-1.34-0.649-1.969c-0.178-0.41-0.544-1.094-1.101-2.051h0.882c0.857,1.144,1.49,2.292,1.9,3.445
		c0.351,0.993,0.526,2.032,0.526,3.117c0,1.23-0.236,2.42-0.708,3.568S122.289,204.403,121.615,205.26z"/>
</g>
<line class="st8" x1="83.527" y1="184.728" x2="65.132" y2="184.728"/>
<line class="st9" x1="83.527" y1="184.728" x2="65.132" y2="184.728"/>
<line class="st3" x1="54.414" y1="102.55" x2="70.002" y2="119.086"/>
<line class="st8" x1="85.359" y1="146.789" x2="173.398" y2="129.433"/>
<line class="st3" x1="85.862" y1="146.789" x2="173.901" y2="129.433"/>
<g>
	<path class="st1" d="M250.024,97.139"/>
	<g>
		<path class="st1" d="M262.979,107.699"/>
	</g>
	<g>
		<path class="st1" d="M268.915,107.999"/>
		<path class="st1" d="M269.234,107.17"/>
		<path class="st1" d="M269.553,106.342"/>
	</g>
	<g>
		<path class="st1" d="M269.311,109.001"/>
	</g>
	<path class="st1" d="M289.528,114.99"/>
	<polygon class="st1" points="262.688,106.7 261.672,106.468 260.103,111.144 261.178,111.377 	"/>
	<polyline class="st1" points="260.103,111.348 260.161,112.742 261.287,112.988 261.207,111.435 	"/>
	<path class="st1" d="M261.379,112.896"/>
	<path class="st1" d="M290.271,118.35"/>
	<path class="st1" d="M293.421,113.696c0,0-1.135,0.077-1.368,0.903c0,0-0.335,0.852,0.852,0.723c0,0,1.187,0,1.548-0.877
		C294.453,114.445,294.608,113.516,293.421,113.696z"/>
	<path class="st1" d="M290.275,117.171l0.075,2.133c0,0,1.004,0.427,1.205-0.276l0.427-0.954l-0.025-1.686"/>
	<polyline class="st1" points="292.157,118.2 293.588,118.451 294.491,115.967 294.441,114.561 	"/>
	<polyline class="st1" points="293.086,115.415 293.111,117.598 293.814,117.723 	"/>
	<path class="st1" d="M293.186,113.544c0.108-0.888-0.173-0.953-0.173-0.953l-0.714-0.13l-0.123,1.505"/>
	<path class="st1" d="M292.247,115.358l-0.654,2.042c0,0-0.099,0.694-1.209,0.278"/>
	<path class="st1" d="M225.847,101.717c-1.14-0.534-0.675-1.443-0.675-1.443c0.442-0.885,1.629-0.279,1.629-0.279
		s1.303,0.349,0.954,1.536C227.756,101.531,227.686,102.578,225.847,101.717z"/>
	<polyline class="st1" points="227.931,100.583 228.294,99.639 229.654,99.888 229.552,101.494 227.961,106.445 	"/>
	<polyline class="st1" points="228.025,101.556 228.48,101.664 227.991,102.851 227.13,102.665 226.525,104.55 227.901,104.808 	"/>
	<polyline class="st1" points="227.361,102.857 225.54,102.518 225.556,103.792 225.153,103.711 225.137,104.436 226.346,104.662 	
		"/>
	<path class="st1" d="M226.926,103.115l-0.371,1.064c0,0-0.338,0.516,1.358,0.703l0.048,1.563l-1.052-0.107
		c0,0-0.435-0.016-0.435-0.435s-0.032-1.434-0.032-1.434"/>
	<polygon class="st1" points="256.723,110.586 258.012,110.945 258.012,112.3 256.723,111.941 	"/>
	<polyline class="st1" points="256.756,110.488 258.486,105.788 259.71,106.098 258.012,110.945 	"/>
	<polyline class="st1" points="258.012,112.3 259.661,107.583 259.726,106.163 	"/>
	<polyline class="st1" points="262.688,106.7 262.851,108.295 261.379,112.896 	"/>
</g>
</svg>
