<?xml version="1.0" encoding="utf-8"?>
<!-- Generator: Adobe Illustrator 26.0.3, SVG Export Plug-In . SVG Version: 6.00 Build 0)  -->
<svg version="1.1" id="Layer_1" xmlns="http://www.w3.org/2000/svg" xmlns:xlink="http://www.w3.org/1999/xlink" x="0px" y="0px"
	 viewBox="0 0 299.756 93.238" style="enable-background:new 0 0 299.756 93.238;" xml:space="preserve">
<style type="text/css">
	.st0{fill:none;stroke:#CCCCCC;stroke-width:0.6715;stroke-linecap:round;stroke-linejoin:round;stroke-miterlimit:10;}
	.st1{fill:#E6E6E6;}
	.st2{fill:#CCCCCC;}
	.st3{fill-rule:evenodd;clip-rule:evenodd;fill:#E6E6E6;}
	.st4{fill-rule:evenodd;clip-rule:evenodd;fill:#262626;}
	.st5{fill:#595A5A;}
	.st6{fill:#D9D9D9;}
	.st7{fill:#6A6A6A;}
	.st8{fill-rule:evenodd;clip-rule:evenodd;fill:#FFFFFF;}
	.st9{fill:#292929;}
	.st10{fill-rule:evenodd;clip-rule:evenodd;fill:#B3B3B3;}
	.st11{fill-rule:evenodd;clip-rule:evenodd;fill:#D66927;}
	.st12{fill-rule:evenodd;clip-rule:evenodd;fill:#333333;}
	.st13{fill:#FFFFFF;}
	.st14{fill-rule:evenodd;clip-rule:evenodd;fill:#999999;}
	.st15{fill:#2762AC;}
	.st16{fill:#F5F6F6;}
	.st17{fill-rule:evenodd;clip-rule:evenodd;fill:#F5F6F6;}
	.st18{fill:#231F20;stroke:#2762AC;stroke-width:0.2857;stroke-miterlimit:10;}
	.st19{fill:#262626;}
	.st20{fill-rule:evenodd;clip-rule:evenodd;fill:#1A1A1A;}
	.st21{fill-rule:evenodd;clip-rule:evenodd;fill:#F2F2F2;}
	.st22{fill:#638C1C;stroke:#2762AC;stroke-width:0.2857;stroke-miterlimit:10;}
	.st23{fill:#4D4E4E;}
	.st24{fill:none;stroke:#FFFFFF;stroke-width:0.1222;stroke-miterlimit:10;}
	.st25{fill:none;stroke:#638C1C;stroke-width:1.75;stroke-linecap:round;stroke-linejoin:round;stroke-miterlimit:10;}
	.st26{fill:#638C1C;}
</style>
<g>
	<g>
		<g>
			<g>
				<rect x="7.173" y="26.073" class="st0" width="288" height="60.189"/>
				<rect x="10.101" y="29.058" class="st1" width="282.145" height="54.219"/>
				<g>
					<rect x="14.987" y="57.112" class="st2" width="131.612" height="24.126"/>
					<g>
						<path class="st3" d="M56.824,78.163h20.568c0.293,0,0.549-0.22,0.549-0.549V58.986c0-0.329-0.256-0.549-0.549-0.549H56.824
							c-0.293,0-0.549,0.22-0.549,0.549v18.628C56.275,77.944,56.531,78.163,56.824,78.163"/>
						<path class="st4" d="M70.475,59.462c0-0.146-0.11-0.22-0.22-0.22c-0.11,0-0.22,0.11-0.22,0.22l0.146,1.354
							c0,0.073,0.037,0.073,0.073,0.073c0.037,0,0.073-0.037,0.073-0.073L70.475,59.462 M70.511,61.402
							c0-0.146-0.11-0.256-0.256-0.256c-0.146,0-0.256,0.11-0.256,0.256c0,0.11,0.11,0.22,0.256,0.22
							C70.401,61.621,70.511,61.511,70.511,61.402z"/>
						<path class="st4" d="M65.424,60.194c-0.146-0.586-0.769-0.915-1.354-0.769c-0.622,0.183-0.952,0.805-0.769,1.391
							c0.183,0.586,0.805,0.915,1.391,0.769C65.278,61.402,65.607,60.779,65.424,60.194 M65.278,60.413
							c0.073,0.476-0.293,0.952-0.805,0.988c-0.366,0.073-0.769-0.146-0.915-0.512l0.622-0.622l0.256,0.988L65.278,60.413z
							 M63.448,60.633c-0.037-0.512,0.293-0.988,0.805-1.025c0.403-0.073,0.769,0.146,0.952,0.512l-0.622,0.622l-0.256-0.988
							L63.448,60.633z"/>
					</g>
					<circle class="st4" cx="64.419" cy="63.711" r="1.232"/>
					<circle class="st4" cx="70.293" cy="63.711" r="1.232"/>
					<g>
						<path class="st5" d="M117.136,76.919h9.296c0.403,0,0.732-0.329,0.732-0.695V59.352c0-0.366-0.329-0.695-0.732-0.695h-9.296
							c-0.366,0-0.695,0.329-0.695,0.695v16.871C116.441,76.59,116.77,76.919,117.136,76.919z"/>
						<path class="st6" d="M117.868,74.174h7.868c0.293,0,0.549-0.256,0.549-0.549V61.951c0-0.293-0.256-0.549-0.549-0.549h-7.868
							c-0.329,0-0.549,0.256-0.549,0.549v11.675C117.319,73.918,117.539,74.174,117.868,74.174z"/>
						<path class="st5" d="M125.115,64.878v-1.72c0-0.183-0.146-0.329-0.329-0.329h-5.965c-0.183,0-0.329,0.146-0.329,0.329v1.72
							H125.115z"/>
						<path class="st7" d="M125.115,64.878h-6.624v7.393c0,0.183,0.146,0.329,0.329,0.329h5.965c0.183,0,0.329-0.146,0.329-0.329
							V64.878z"/>
						<path class="st8" d="M121.784,67.77c0.11,0,0.22-0.073,0.22-0.183v-1.574c0-0.11-0.11-0.183-0.22-0.183
							c-0.11,0-0.183,0.073-0.183,0.183v1.574C121.601,67.696,121.675,67.77,121.784,67.77 M122.516,70.478
							c0-0.403-0.329-0.695-0.732-0.695c-0.366,0-0.695,0.293-0.695,0.695c0,0.403,0.329,0.695,0.695,0.695
							C122.187,71.173,122.516,70.88,122.516,70.478z M122.919,70.478c0-0.622-0.512-1.098-1.135-1.098
							c-0.586,0-1.098,0.476-1.098,1.098c0,0.622,0.512,1.098,1.098,1.098C122.406,71.576,122.919,71.1,122.919,70.478z"/>
						<path class="st5" d="M129.653,59.462v16.981c0,0.549,0.439,0.988,0.988,0.988h12.297c0.549,0,0.988-0.439,0.988-0.988V59.462
							c0-0.549-0.439-0.988-0.988-0.988h-12.297C130.092,58.474,129.653,58.913,129.653,59.462z"/>
						<path class="st9" d="M131.08,64.11v7.685c0,0.403,0.183,0.805,0.512,1.135l3.074,2.928c0.293,0.293,0.695,0.439,1.098,0.439
							h5.16c0.878,0,1.574-0.695,1.574-1.574V61.182c0-0.878-0.695-1.574-1.574-1.574h-5.16c-0.403,0-0.805,0.146-1.098,0.439
							l-3.074,2.928C131.263,63.305,131.08,63.707,131.08,64.11z"/>
						<path class="st10" d="M136.899,72.93h3.147v-0.952h-3.147V72.93z M133.532,68.428h3.147v-0.952h-3.147V68.428z
							 M136.899,63.927h3.147v-0.915h-3.147V63.927z"/>
					</g>
					<g>
						<rect x="101.122" y="77.945" class="st5" width="45.199" height="3.293"/>
						<rect x="66.071" y="76.298" class="st5" width="3.293" height="4.939"/>
						<rect x="15.723" y="77.945" class="st5" width="34" height="3.293"/>
						<path class="st7" d="M82.841,77.945c-0.689,0-1.34-0.077-1.991-0.23l-4.671-1.149c-0.651-0.191-1.302-0.268-1.991-0.268
							h-4.977c-0.191,0-0.345,0.153-0.345,0.345v4.288c0,0.153,0.153,0.306,0.345,0.306h31.893v-3.293H82.841z"/>
						<path class="st11" d="M71.508,80.74h27.797v-2.297H82.841c-0.727,0-1.417-0.077-2.106-0.268l-4.671-1.149
							c-0.613-0.153-1.225-0.23-1.876-0.23h-2.68V80.74"/>
						<path class="st7" d="M61.285,77.945H49.684v3.293h16.578c0.153,0,0.306-0.153,0.306-0.306v-4.288
							c0-0.191-0.153-0.345-0.306-0.345h-2.297c-0.191,0-0.345,0.077-0.498,0.191l-1.685,1.302
							C61.63,77.906,61.438,77.945,61.285,77.945z"/>
						<rect x="13.273" y="79.017" class="st5" width="4.939" height="2.221"/>
					</g>
				</g>
				<g>
					<rect x="156.551" y="57.112" class="st2" width="131.612" height="24.126"/>
					<g>
						<path class="st3" d="M198.388,78.163h20.568c0.293,0,0.549-0.22,0.549-0.549V58.986c0-0.329-0.256-0.549-0.549-0.549h-20.568
							c-0.293,0-0.549,0.22-0.549,0.549v18.628C197.839,77.944,198.095,78.163,198.388,78.163"/>
						<path class="st4" d="M212.039,59.462c0-0.146-0.11-0.22-0.22-0.22s-0.22,0.11-0.22,0.22l0.146,1.354
							c0,0.073,0.037,0.073,0.073,0.073s0.073-0.037,0.073-0.073L212.039,59.462 M212.076,61.402c0-0.146-0.11-0.256-0.256-0.256
							s-0.256,0.11-0.256,0.256c0,0.11,0.11,0.22,0.256,0.22S212.076,61.511,212.076,61.402z"/>
						<path class="st4" d="M206.989,60.194c-0.146-0.586-0.769-0.915-1.354-0.769c-0.622,0.183-0.952,0.805-0.769,1.391
							c0.183,0.586,0.805,0.915,1.391,0.769C206.842,61.402,207.172,60.779,206.989,60.194 M206.842,60.413
							c0.073,0.476-0.293,0.952-0.805,0.988c-0.366,0.073-0.769-0.146-0.915-0.512l0.622-0.622l0.256,0.988L206.842,60.413z
							 M205.012,60.633c-0.037-0.512,0.293-0.988,0.805-1.025c0.403-0.073,0.769,0.146,0.952,0.512l-0.622,0.622l-0.256-0.988
							L205.012,60.633z"/>
					</g>
					<circle class="st4" cx="205.983" cy="63.711" r="1.232"/>
					<circle class="st4" cx="211.858" cy="63.711" r="1.232"/>
					<g>
						<path class="st5" d="M258.701,76.919h9.296c0.403,0,0.732-0.329,0.732-0.695V59.352c0-0.366-0.329-0.695-0.732-0.695h-9.296
							c-0.366,0-0.695,0.329-0.695,0.695v16.871C258.006,76.59,258.335,76.919,258.701,76.919z"/>
						<path class="st6" d="M259.433,74.174h7.868c0.293,0,0.549-0.256,0.549-0.549V61.951c0-0.293-0.256-0.549-0.549-0.549h-7.868
							c-0.329,0-0.549,0.256-0.549,0.549v11.675C258.884,73.918,259.103,74.174,259.433,74.174z"/>
						<path class="st5" d="M266.679,64.878v-1.72c0-0.183-0.146-0.329-0.329-0.329h-5.965c-0.183,0-0.329,0.146-0.329,0.329v1.72
							H266.679z"/>
						<path class="st7" d="M266.679,64.878h-6.624v7.393c0,0.183,0.146,0.329,0.329,0.329h5.965c0.183,0,0.329-0.146,0.329-0.329
							V64.878z"/>
						<path class="st8" d="M263.349,67.77c0.11,0,0.22-0.073,0.22-0.183v-1.574c0-0.11-0.11-0.183-0.22-0.183
							c-0.11,0-0.183,0.073-0.183,0.183v1.574C263.166,67.696,263.239,67.77,263.349,67.77 M264.081,70.478
							c0-0.403-0.329-0.695-0.732-0.695c-0.366,0-0.695,0.293-0.695,0.695c0,0.403,0.329,0.695,0.695,0.695
							C263.751,71.173,264.081,70.88,264.081,70.478z M264.483,70.478c0-0.622-0.512-1.098-1.135-1.098
							c-0.586,0-1.098,0.476-1.098,1.098c0,0.622,0.512,1.098,1.098,1.098C263.971,71.576,264.483,71.1,264.483,70.478z"/>
						<path class="st5" d="M271.217,59.462v16.981c0,0.549,0.439,0.988,0.988,0.988h12.297c0.549,0,0.988-0.439,0.988-0.988V59.462
							c0-0.549-0.439-0.988-0.988-0.988h-12.297C271.656,58.474,271.217,58.913,271.217,59.462z"/>
						<path class="st9" d="M272.645,64.11v7.685c0,0.403,0.183,0.805,0.512,1.135l3.074,2.928c0.293,0.293,0.695,0.439,1.098,0.439
							h5.16c0.878,0,1.574-0.695,1.574-1.574V61.182c0-0.878-0.695-1.574-1.574-1.574h-5.16c-0.403,0-0.805,0.146-1.098,0.439
							l-3.074,2.928C272.827,63.305,272.645,63.707,272.645,64.11z"/>
						<path class="st10" d="M278.464,72.93h3.147v-0.952h-3.147V72.93z M275.097,68.428h3.147v-0.952h-3.147V68.428z
							 M278.464,63.927h3.147v-0.915h-3.147V63.927z"/>
					</g>
					<g>
						<rect x="243.806" y="78.02" class="st5" width="44.162" height="3.217"/>
						<rect x="209.56" y="76.412" class="st5" width="3.217" height="4.826"/>
						<rect x="160.368" y="78.02" class="st5" width="33.22" height="3.217"/>
						<path class="st7" d="M225.944,78.02c-0.673,0-1.309-0.075-1.945-0.224l-4.564-1.122c-0.636-0.187-1.272-0.262-1.945-0.262
							h-4.863c-0.187,0-0.337,0.15-0.337,0.337v4.19c0,0.15,0.15,0.299,0.337,0.299h31.161V78.02H225.944z"/>
						<path class="st11" d="M214.872,80.751h27.158v-2.244h-16.086c-0.711,0-1.384-0.075-2.057-0.262l-4.564-1.122
							c-0.599-0.15-1.197-0.224-1.833-0.224h-2.619V80.751"/>
						<path class="st7" d="M204.884,78.02h-11.335v3.217h16.198c0.15,0,0.299-0.15,0.299-0.299v-4.19
							c0-0.187-0.15-0.337-0.299-0.337h-2.244c-0.187,0-0.337,0.075-0.486,0.187l-1.646,1.272
							C205.22,77.983,205.033,78.02,204.884,78.02z"/>
						<rect x="157.974" y="79.068" class="st5" width="4.826" height="2.17"/>
					</g>
				</g>
				<g>
					<path class="st12" d="M150.969,64.484h3.001v-3.623h-3.001l-1.391,1.793L150.969,64.484z M152.579,75.83L153.97,74l-1.391-1.83
						h-3.001v3.66H152.579z"/>
					<path class="st8" d="M151.81,74c0-0.512-0.439-0.952-0.988-0.952c-0.549,0-0.988,0.439-0.988,0.952
						c0,0.549,0.439,0.988,0.988,0.988C151.371,74.988,151.81,74.549,151.81,74 M151.627,74.146
						c-0.073,0.439-0.476,0.732-0.915,0.659c-0.366-0.037-0.622-0.293-0.695-0.622l-0.037-0.037l0.695-0.403v0.915l0.915-0.549
						L151.627,74.146z M150.017,73.89c0.037-0.439,0.476-0.732,0.915-0.695c0.329,0.073,0.622,0.329,0.659,0.659l-0.695,0.403
						v-0.915l-0.915,0.549H150.017z M152.506,62.654c0-0.512-0.439-0.952-0.988-0.952c-0.549,0-0.988,0.439-0.988,0.952
						c0,0.549,0.439,0.988,0.988,0.988C152.067,63.643,152.506,63.203,152.506,62.654z M152.323,62.801
						c-0.037,0.439-0.476,0.732-0.915,0.659c-0.329-0.037-0.622-0.293-0.659-0.622l-0.037-0.037l0.695-0.403v0.915l0.915-0.549
						V62.801z M150.713,62.545c0.073-0.439,0.476-0.732,0.915-0.659c0.366,0.037,0.622,0.293,0.695,0.622l-0.695,0.403v-0.915
						L150.713,62.545z"/>
					<g>
						<path class="st13" d="M153.507,63.458h-0.192v-1.229c-0.047,0.044-0.107,0.088-0.183,0.133
							c-0.076,0.044-0.144,0.077-0.203,0.1v-0.187c0.107-0.051,0.202-0.112,0.282-0.185c0.081-0.072,0.138-0.142,0.172-0.21h0.124
							V63.458z"/>
					</g>
					<g>
						<path class="st13" d="M153.062,74.62v0.186h-1.038c-0.001-0.047,0.006-0.091,0.022-0.134c0.026-0.071,0.068-0.141,0.127-0.209
							s0.143-0.147,0.252-0.238c0.171-0.14,0.286-0.25,0.347-0.332c0.06-0.082,0.09-0.159,0.09-0.232
							c0-0.076-0.027-0.141-0.082-0.193c-0.055-0.052-0.126-0.078-0.214-0.078c-0.093,0-0.167,0.027-0.223,0.083
							s-0.084,0.133-0.085,0.231l-0.198-0.021c0.014-0.147,0.064-0.26,0.153-0.338c0.089-0.077,0.208-0.116,0.356-0.116
							c0.151,0,0.271,0.042,0.358,0.126c0.088,0.083,0.132,0.187,0.132,0.311c0,0.062-0.013,0.124-0.039,0.185
							c-0.025,0.062-0.068,0.125-0.128,0.192s-0.158,0.159-0.297,0.276c-0.116,0.097-0.19,0.163-0.223,0.197
							c-0.033,0.035-0.061,0.069-0.082,0.104H153.062z"/>
					</g>
				</g>
				<rect x="14.987" y="31.188" class="st1" width="131.612" height="24.126"/>
				<g>
					<g>
						<polyline class="st12" points="150.969,39.113 153.97,39.113 153.97,35.49 150.969,35.49 149.578,37.283 150.969,39.113 
													"/>
						<polygon class="st12" points="152.579,50.458 153.97,48.628 152.579,46.835 149.578,46.835 149.578,50.458 						"/>
						<g>
							<path class="st13" d="M153.482,38.27h-0.413l-0.165-0.428h-0.753l-0.156,0.428h-0.403l0.734-1.885h0.402L153.482,38.27z
								 M152.782,37.525l-0.26-0.699l-0.255,0.699H152.782z"/>
						</g>
						<g>
							<path class="st13" d="M150.393,47.732h0.754c0.149,0,0.26,0.007,0.333,0.019c0.074,0.013,0.14,0.039,0.197,0.078
								s0.105,0.092,0.145,0.157c0.038,0.065,0.058,0.14,0.058,0.221c0,0.088-0.023,0.169-0.071,0.243
								c-0.048,0.073-0.112,0.129-0.193,0.166c0.115,0.033,0.203,0.09,0.265,0.171c0.062,0.08,0.093,0.175,0.093,0.284
								c0,0.085-0.02,0.169-0.06,0.25s-0.095,0.146-0.163,0.193c-0.069,0.049-0.154,0.078-0.256,0.09
								c-0.063,0.007-0.216,0.011-0.459,0.013h-0.642V47.732z M150.774,48.046v0.437h0.249c0.148,0,0.241-0.003,0.277-0.007
								c0.064-0.008,0.116-0.03,0.153-0.067s0.056-0.086,0.056-0.147c0-0.058-0.016-0.105-0.048-0.142
								c-0.032-0.037-0.08-0.059-0.144-0.066c-0.038-0.004-0.146-0.007-0.325-0.007H150.774z M150.774,48.796V49.3h0.353
								c0.137,0,0.224-0.004,0.261-0.012c0.057-0.011,0.103-0.035,0.139-0.075c0.035-0.04,0.053-0.093,0.053-0.16
								c0-0.057-0.014-0.104-0.041-0.144c-0.027-0.04-0.067-0.068-0.119-0.087c-0.052-0.018-0.164-0.026-0.337-0.026H150.774z"/>
						</g>
					</g>
				</g>
				<g>
					<rect x="156.551" y="31.188" class="st1" width="131.612" height="24.126"/>
				</g>
			</g>
			<g>
				<rect x="87.235" y="31.336" class="st14" width="59.068" height="19.631"/>
				<rect x="116.769" y="31.336" class="st15" width="21.542" height="15.201"/>
				<rect x="87.203" y="31.336" class="st16" width="29.393" height="15.201"/>
			</g>
			<rect x="15.214" y="31.353" class="st14" width="69.425" height="22.239"/>
			<path class="st17" d="M67.866,41.579h11.451c0.284,0,0.461-0.177,0.461-0.461v-5.353c0-0.284-0.177-0.496-0.461-0.496H67.866
				c-0.248,0-0.461,0.213-0.461,0.496v5.353C67.405,41.402,67.617,41.579,67.866,41.579z"/>
			<path class="st17" d="M53.756,40.888h8.438c0.248,0,0.461-0.213,0.461-0.461v-5.141c0-0.248-0.213-0.461-0.461-0.461h-8.438
				c-0.248,0-0.461,0.213-0.461,0.461v5.141C53.295,40.676,53.508,40.888,53.756,40.888z"/>
			<path class="st17" d="M21.579,41.071h11.522c0.248,0,0.461-0.213,0.461-0.461v-7.835c0-0.248-0.213-0.461-0.461-0.461H21.579
				c-0.248,0-0.461,0.213-0.461,0.461v7.835C21.118,40.858,21.331,41.071,21.579,41.071z"/>
			<path class="st17" d="M36.566,41.071h11.522c0.248,0,0.461-0.213,0.461-0.461v-7.835c0-0.248-0.213-0.461-0.461-0.461H36.566
				c-0.248,0-0.461,0.213-0.461,0.461v7.835C36.105,40.858,36.318,41.071,36.566,41.071z"/>
			<rect x="15.809" y="41.525" class="st15" width="46.673" height="10.806"/>
			<rect x="21.003" y="44.383" class="st18" width="9.139" height="5.927"/>
			<rect x="30.467" y="44.383" class="st18" width="9.139" height="5.927"/>
			<rect x="39.931" y="44.383" class="st18" width="9.139" height="5.927"/>
			<rect x="49.395" y="44.383" class="st18" width="9.139" height="5.927"/>
			<circle class="st19" cx="23.659" cy="42.863" r="0.621"/>
			<circle class="st19" cx="27.617" cy="42.863" r="0.621"/>
			<circle class="st19" cx="33.094" cy="42.863" r="0.621"/>
			<circle class="st19" cx="37.052" cy="42.863" r="0.621"/>
			<circle class="st19" cx="42.529" cy="42.863" r="0.621"/>
			<circle class="st19" cx="46.487" cy="42.863" r="0.621"/>
			<circle class="st19" cx="51.963" cy="42.863" r="0.621"/>
			<circle class="st19" cx="55.921" cy="42.863" r="0.621"/>
			<polygon class="st19" points="23.275,37.926 23.275,39.805 31.358,39.805 31.358,37.926 31.181,37.926 31.181,36.65 
				31.358,36.65 31.358,34.806 29.586,34.806 29.586,33.636 28.806,33.636 28.806,33.069 25.792,33.069 25.792,33.636 
				25.048,33.636 25.048,34.806 23.275,34.806 23.275,36.65 23.417,36.65 23.417,37.926 			"/>
			<polygon class="st19" points="38.236,37.926 38.236,39.805 46.319,39.805 46.319,37.926 46.142,37.926 46.142,36.65 
				46.319,36.65 46.319,34.806 44.547,34.806 44.547,33.636 43.767,33.636 43.767,33.069 40.753,33.069 40.753,33.636 
				40.009,33.636 40.009,34.806 38.236,34.806 38.236,36.65 38.378,36.65 38.378,37.926 			"/>
			<path class="st20" d="M55.822,39.269h4.396c0.603,0,1.099-0.496,1.099-1.099v-0.355c0-0.603-0.496-1.064-1.099-1.064h-4.396
				c-0.603,0-1.064,0.461-1.064,1.064v0.355C54.759,38.773,55.219,39.269,55.822,39.269z"/>
			<path class="st19" d="M77.611,36.63H69.74c-0.106,0-0.213,0.071-0.213,0.177v3.014c0,0.106,0.106,0.177,0.213,0.177h7.871
				c0.106,0,0.213-0.071,0.213-0.177v-3.014C77.823,36.701,77.717,36.63,77.611,36.63z"/>
			<polygon class="st8" points="17.957,47.459 18.408,47.459 18.408,48.88 18.61,48.88 18.61,48.339 19.016,48.339 19.016,48.722 
				19.783,48.722 19.783,47.707 19.016,47.707 19.016,48.068 18.61,48.068 18.61,46.625 19.016,46.625 19.016,46.963 19.783,46.963 
				19.783,45.971 19.016,45.971 19.016,46.354 18.61,46.354 18.61,45.858 18.408,45.858 18.408,47.189 17.957,47.189 17.934,46.783 
				17.145,46.783 17.145,47.843 17.934,47.843 			"/>
			<path class="st21" d="M82.277,36.877v2.375l-0.532-0.532V38.26c0.142-0.071,0.177-0.213,0.142-0.355
				c-0.071-0.106-0.213-0.177-0.355-0.142c-0.106,0.071-0.177,0.213-0.142,0.355c0.035,0.071,0.106,0.106,0.142,0.142v0.567
				l0.745,0.709v0.248c-0.213,0.035-0.355,0.248-0.284,0.461c0.035,0.213,0.248,0.355,0.461,0.284
				c0.213-0.035,0.355-0.248,0.284-0.461c-0.035-0.142-0.142-0.248-0.284-0.284v-0.922l0.709-0.709v-0.461h0.177V37.16h-0.532v0.532
				h0.177v0.355l-0.532,0.532v-1.702h0.177l-0.284-0.532L82.1,36.877H82.277z"/>
			<path class="st21" d="M19.378,36.661H17.64c-0.142-0.39-0.532-0.567-0.922-0.461c-0.071,0.035-0.142,0.071-0.213,0.142v0.106
				h0.39l0.248,0.461l-0.248,0.425h-0.39v0.106c0.319,0.248,0.745,0.213,0.993-0.106c0.071-0.035,0.106-0.142,0.142-0.213h1.737
				c0.106,0.355,0.496,0.496,0.815,0.39c0.071-0.035,0.142-0.071,0.177-0.106v-0.106h-0.355l-0.213-0.39l0.213-0.425h0.355v-0.071
				c-0.284-0.248-0.674-0.213-0.886,0.071C19.413,36.519,19.378,36.59,19.378,36.661z"/>
			<path class="st4" d="M91.153,43.413h6.807c0.071,0,0.142-0.071,0.142-0.142v-6.807c0-0.071-0.071-0.177-0.142-0.177h-6.807
				c-0.106,0-0.177,0.106-0.177,0.177v6.807C90.976,43.342,91.047,43.413,91.153,43.413"/>
			<path class="st4" d="M100.677,43.413h6.807c0.071,0,0.142-0.071,0.142-0.142v-6.807c0-0.071-0.071-0.177-0.142-0.177h-6.807
				c-0.106,0-0.177,0.106-0.177,0.177v6.807C100.5,43.342,100.571,43.413,100.677,43.413"/>
			<path class="st4" d="M108.399,43.413h6.807c0.071,0,0.142-0.071,0.142-0.142v-6.807c0-0.071-0.071-0.177-0.142-0.177h-6.807
				c-0.106,0-0.177,0.106-0.177,0.177v6.807C108.222,43.342,108.293,43.413,108.399,43.413"/>
			<g>
				<rect x="118.09" y="36.179" class="st22" width="9.139" height="5.927"/>
				<rect x="127.55" y="36.179" class="st22" width="9.139" height="5.927"/>
			</g>
			<circle class="st19" cx="93.022" cy="33.562" r="0.804"/>
			<circle class="st19" cx="96.001" cy="33.562" r="0.804"/>
			<circle class="st19" cx="102.811" cy="33.562" r="0.804"/>
			<circle class="st19" cx="105.791" cy="33.562" r="0.804"/>
			<circle class="st19" cx="109.94" cy="33.562" r="0.804"/>
			<circle class="st19" cx="112.92" cy="33.562" r="0.804"/>
			<g>
				<circle class="st19" cx="120.652" cy="33.562" r="0.804"/>
				<circle class="st19" cx="125.228" cy="33.562" r="0.804"/>
			</g>
			<g>
				<circle class="st19" cx="129.98" cy="33.562" r="0.804"/>
				<circle class="st19" cx="134.556" cy="33.562" r="0.804"/>
			</g>
			<g>
				<path class="st23" d="M81.838,50.813v2.707H18.574v0.981h63.264v0.812h64.478v-3.214H88.012v-1.624H82.15
					C81.977,50.475,81.838,50.61,81.838,50.813z"/>
				<path class="st23" d="M85.549,52.099H71.606c-0.139,0-0.312,0.068-0.416,0.169l-1.942,1.895
					c-0.139,0.102-0.277,0.169-0.451,0.169H21.869c-0.139,0-0.312-0.068-0.416-0.169l-1.942-1.895
					c-0.139-0.101-0.277-0.169-0.451-0.169h-3.295v1.015h-2.463v2.199h72.247V52.099z"/>
				<path class="st7" d="M95.607,50.475H85.549v4.839h20.984v-3.214h-2.22c-0.416,0-0.832-0.068-1.249-0.135l-6.243-1.353
					C96.44,50.542,96.024,50.475,95.607,50.475z"/>
				<path class="st11" d="M104.417,52.606h-2.254c-0.659,0-1.318-0.068-1.977-0.203l-4.336-0.981
					c-0.555-0.135-1.145-0.203-1.734-0.203h-2.532v3.35h12.833V52.606"/>
			</g>
			<g>
				<rect x="52.611" y="36.931" class="st13" width="0.116" height="1.157"/>
				<path class="st24" d="M52.264,37.51c0,0.251-0.212,0.463-0.463,0.463c-0.251,0-0.463-0.212-0.463-0.463
					c0-0.251,0.212-0.463,0.463-0.463C52.052,37.047,52.264,37.259,52.264,37.51z"/>
				<rect x="50.875" y="36.931" class="st13" width="0.135" height="1.157"/>
				<path class="st24" d="M50.528,37.51c0,0.251-0.193,0.463-0.463,0.463c-0.251,0-0.463-0.212-0.463-0.463
					c0-0.251,0.212-0.463,0.463-0.463C50.335,37.047,50.528,37.259,50.528,37.51z"/>
				<rect x="49.139" y="36.931" class="st13" width="0.135" height="1.157"/>
			</g>
			<g>
				<rect x="229.1" y="31.336" class="st14" width="59.068" height="19.631"/>
				<rect x="258.633" y="31.336" class="st15" width="21.542" height="15.201"/>
				<rect x="229.067" y="31.336" class="st16" width="29.393" height="15.201"/>
			</g>
			<rect x="157.079" y="31.353" class="st14" width="69.425" height="22.239"/>
			<path class="st17" d="M209.73,41.579h11.451c0.284,0,0.461-0.177,0.461-0.461v-5.353c0-0.284-0.177-0.496-0.461-0.496H209.73
				c-0.248,0-0.461,0.213-0.461,0.496v5.353C209.269,41.402,209.482,41.579,209.73,41.579z"/>
			<path class="st17" d="M195.62,40.888h8.438c0.248,0,0.461-0.213,0.461-0.461v-5.141c0-0.248-0.213-0.461-0.461-0.461h-8.438
				c-0.248,0-0.461,0.213-0.461,0.461v5.141C195.159,40.676,195.372,40.888,195.62,40.888z"/>
			<path class="st17" d="M163.443,41.071h11.522c0.248,0,0.461-0.213,0.461-0.461v-7.835c0-0.248-0.213-0.461-0.461-0.461h-11.522
				c-0.248,0-0.461,0.213-0.461,0.461v7.835C162.982,40.858,163.195,41.071,163.443,41.071z"/>
			<path class="st17" d="M178.43,41.071h11.522c0.248,0,0.461-0.213,0.461-0.461v-7.835c0-0.248-0.213-0.461-0.461-0.461H178.43
				c-0.248,0-0.461,0.213-0.461,0.461v7.835C177.969,40.858,178.182,41.071,178.43,41.071z"/>
			<rect x="157.673" y="41.525" class="st15" width="46.673" height="10.806"/>
			<rect x="162.867" y="44.383" class="st18" width="9.139" height="5.927"/>
			<rect x="172.331" y="44.383" class="st18" width="9.139" height="5.927"/>
			<rect x="181.795" y="44.383" class="st18" width="9.139" height="5.927"/>
			<rect x="191.259" y="44.383" class="st18" width="9.139" height="5.927"/>
			<circle class="st19" cx="169.482" cy="42.863" r="0.621"/>
			<circle class="st19" cx="174.958" cy="42.863" r="0.621"/>
			<circle class="st19" cx="178.916" cy="42.863" r="0.621"/>
			<circle class="st19" cx="184.393" cy="42.863" r="0.621"/>
			<circle class="st19" cx="188.351" cy="42.863" r="0.621"/>
			<circle class="st19" cx="193.827" cy="42.863" r="0.621"/>
			<circle class="st19" cx="197.785" cy="42.863" r="0.621"/>
			<polygon class="st19" points="165.139,37.926 165.139,39.805 173.222,39.805 173.222,37.926 173.045,37.926 173.045,36.65 
				173.222,36.65 173.222,34.806 171.45,34.806 171.45,33.636 170.67,33.636 170.67,33.069 167.656,33.069 167.656,33.636 
				166.912,33.636 166.912,34.806 165.139,34.806 165.139,36.65 165.281,36.65 165.281,37.926 			"/>
			<polygon class="st19" points="180.1,37.926 180.1,39.805 188.183,39.805 188.183,37.926 188.006,37.926 188.006,36.65 
				188.183,36.65 188.183,34.806 186.411,34.806 186.411,33.636 185.631,33.636 185.631,33.069 182.617,33.069 182.617,33.636 
				181.873,33.636 181.873,34.806 180.1,34.806 180.1,36.65 180.242,36.65 180.242,37.926 			"/>
			<path class="st20" d="M197.686,39.269h4.396c0.603,0,1.099-0.496,1.099-1.099v-0.355c0-0.603-0.496-1.064-1.099-1.064h-4.396
				c-0.603,0-1.064,0.461-1.064,1.064v0.355C196.623,38.773,197.084,39.269,197.686,39.269z"/>
			<path class="st19" d="M219.475,36.63h-7.871c-0.106,0-0.213,0.071-0.213,0.177v3.014c0,0.106,0.106,0.177,0.213,0.177h7.871
				c0.106,0,0.213-0.071,0.213-0.177v-3.014C219.688,36.701,219.581,36.63,219.475,36.63z"/>
			<path class="st21" d="M224.142,36.877v2.375l-0.532-0.532V38.26c0.142-0.071,0.177-0.213,0.142-0.355
				c-0.071-0.106-0.213-0.177-0.355-0.142c-0.106,0.071-0.177,0.213-0.142,0.355c0.035,0.071,0.106,0.106,0.142,0.142v0.567
				l0.745,0.709v0.248c-0.213,0.035-0.355,0.248-0.284,0.461c0.035,0.213,0.248,0.355,0.461,0.284
				c0.213-0.035,0.355-0.248,0.284-0.461c-0.035-0.142-0.142-0.248-0.284-0.284v-0.922l0.709-0.709v-0.461h0.177V37.16h-0.532v0.532
				h0.177v0.355l-0.532,0.532v-1.702h0.177l-0.284-0.532l-0.248,0.532H224.142z"/>
			<path class="st4" d="M233.017,43.413h6.807c0.071,0,0.142-0.071,0.142-0.142v-6.807c0-0.071-0.071-0.177-0.142-0.177h-6.807
				c-0.106,0-0.177,0.106-0.177,0.177v6.807C232.84,43.342,232.911,43.413,233.017,43.413"/>
			<path class="st4" d="M242.541,43.413h6.807c0.071,0,0.142-0.071,0.142-0.142v-6.807c0-0.071-0.071-0.177-0.142-0.177h-6.807
				c-0.106,0-0.177,0.106-0.177,0.177v6.807C242.364,43.342,242.435,43.413,242.541,43.413"/>
			<path class="st4" d="M250.263,43.413h6.807c0.071,0,0.142-0.071,0.142-0.142v-6.807c0-0.071-0.071-0.177-0.142-0.177h-6.807
				c-0.106,0-0.177,0.106-0.177,0.177v6.807C250.086,43.342,250.157,43.413,250.263,43.413"/>
			<g>
				<rect x="259.955" y="36.179" class="st22" width="9.139" height="5.927"/>
				<rect x="269.414" y="36.179" class="st22" width="9.139" height="5.927"/>
			</g>
			<circle class="st19" cx="234.886" cy="33.562" r="0.804"/>
			<circle class="st19" cx="237.865" cy="33.562" r="0.804"/>
			<circle class="st19" cx="244.675" cy="33.562" r="0.804"/>
			<circle class="st19" cx="247.655" cy="33.562" r="0.804"/>
			<circle class="st19" cx="251.805" cy="33.562" r="0.804"/>
			<circle class="st19" cx="254.784" cy="33.562" r="0.804"/>
			<g>
				<circle class="st19" cx="262.516" cy="33.562" r="0.804"/>
				<circle class="st19" cx="267.092" cy="33.562" r="0.804"/>
			</g>
			<g>
				<circle class="st19" cx="271.845" cy="33.562" r="0.804"/>
				<circle class="st19" cx="276.42" cy="33.562" r="0.804"/>
			</g>
			<g>
				<path class="st23" d="M223.702,50.813v2.707h-63.264v0.981h63.264v0.812h64.478v-3.214h-58.304v-1.624h-5.862
					C223.841,50.475,223.702,50.61,223.702,50.813z"/>
				<path class="st23" d="M227.413,52.099H213.47c-0.139,0-0.312,0.068-0.416,0.169l-1.942,1.895
					c-0.139,0.102-0.277,0.169-0.451,0.169h-46.928c-0.139,0-0.312-0.068-0.416-0.169l-1.942-1.895
					c-0.139-0.101-0.277-0.169-0.451-0.169h-3.295v1.015h-2.463v2.199h72.247V52.099z"/>
				<path class="st7" d="M237.472,50.475h-10.058v4.839h20.984v-3.214h-2.22c-0.416,0-0.832-0.068-1.249-0.135l-6.243-1.353
					C238.304,50.542,237.888,50.475,237.472,50.475z"/>
				<path class="st11" d="M246.281,52.606h-2.254c-0.659,0-1.318-0.068-1.977-0.203l-4.336-0.981
					c-0.555-0.135-1.145-0.203-1.734-0.203h-2.532v3.35h12.833V52.606"/>
			</g>
			<g>
				<rect x="194.475" y="36.931" class="st13" width="0.116" height="1.157"/>
				<path class="st24" d="M194.128,37.51c0,0.251-0.212,0.463-0.463,0.463c-0.251,0-0.463-0.212-0.463-0.463
					c0-0.251,0.212-0.463,0.463-0.463C193.916,37.047,194.128,37.259,194.128,37.51z"/>
				<rect x="192.739" y="36.931" class="st13" width="0.135" height="1.157"/>
				<path class="st24" d="M192.392,37.51c0,0.251-0.193,0.463-0.463,0.463c-0.251,0-0.463-0.212-0.463-0.463
					c0-0.251,0.212-0.463,0.463-0.463C192.199,37.047,192.392,37.259,192.392,37.51z"/>
				<rect x="191.003" y="36.931" class="st13" width="0.135" height="1.157"/>
			</g>
			<path class="st21" d="M160.761,36.661h-1.737c-0.142-0.39-0.532-0.567-0.922-0.461c-0.071,0.035-0.142,0.071-0.213,0.142v0.106
				h0.39l0.248,0.461l-0.248,0.425h-0.39v0.106c0.319,0.248,0.745,0.213,0.993-0.106c0.071-0.035,0.106-0.142,0.142-0.213h1.737
				c0.106,0.355,0.496,0.496,0.815,0.39c0.071-0.035,0.142-0.071,0.177-0.106v-0.106H161.4l-0.213-0.39l0.213-0.425h0.355v-0.071
				c-0.284-0.248-0.674-0.213-0.886,0.071C160.797,36.519,160.761,36.59,160.761,36.661z"/>
			<polygon class="st8" points="159.778,47.459 160.229,47.459 160.229,48.88 160.432,48.88 160.432,48.339 160.838,48.339 
				160.838,48.722 161.604,48.722 161.604,47.707 160.838,47.707 160.838,48.068 160.432,48.068 160.432,46.625 160.838,46.625 
				160.838,46.963 161.604,46.963 161.604,45.971 160.838,45.971 160.838,46.354 160.432,46.354 160.432,45.858 160.229,45.858 
				160.229,47.189 159.778,47.189 159.755,46.783 158.966,46.783 158.966,47.843 159.755,47.843 			"/>
		</g>
	</g>
	<g>
		<g>
			<path class="st25" d="M122.716,39.308V8.321c0,0,141.73-0.588,141.73,0v30.987"/>
		</g>
	</g>
	<g>
		<path class="st25" d="M132.058,39.308V13.532c0,0,140.546-1.185,141.73,0v25.776"/>
	</g>
	<g>
		<g>
			<g>
				<path class="st26" d="M195.022,16.02h16.347V5.472c0-0.128-0.105-0.226-0.236-0.226h-15.878c-0.129,0-0.234,0.098-0.234,0.226
					V16.02z"/>
			</g>
			<g>
				<path class="st13" d="M202.894,8.758l-1.122,0.276l-0.295-1.159l1.85-0.552h0.966v6.487h-1.398V8.758z"/>
			</g>
		</g>
	</g>
</g>
<g>
	<g>
		<g>
			<g>
				<path class="st13" d="M120.111,40.007c0.085,0.083,0.208,0.124,0.368,0.124c0.115,0,0.213-0.028,0.296-0.086
					c0.083-0.058,0.133-0.118,0.152-0.182h0.5c-0.08,0.248-0.203,0.425-0.368,0.531c-0.166,0.107-0.365,0.16-0.6,0.16
					c-0.163,0-0.309-0.025-0.44-0.078c-0.131-0.052-0.241-0.126-0.332-0.222s-0.161-0.211-0.21-0.344
					c-0.049-0.134-0.074-0.28-0.074-0.44c0-0.154,0.025-0.299,0.076-0.432c0.051-0.134,0.123-0.249,0.216-0.346
					c0.093-0.098,0.205-0.175,0.334-0.23c0.129-0.056,0.272-0.084,0.43-0.084c0.176,0,0.33,0.034,0.46,0.102
					c0.131,0.068,0.238,0.16,0.322,0.274s0.145,0.245,0.182,0.392c0.037,0.147,0.05,0.301,0.04,0.46h-1.492
					C119.978,39.791,120.025,39.924,120.111,40.007z M120.752,38.919c-0.068-0.074-0.171-0.112-0.31-0.112
					c-0.09,0-0.166,0.016-0.226,0.046c-0.06,0.031-0.108,0.069-0.144,0.114c-0.036,0.046-0.062,0.094-0.076,0.145
					c-0.015,0.05-0.023,0.096-0.026,0.136h0.924C120.868,39.103,120.821,38.993,120.752,38.919z"/>
				<path class="st13" d="M121.748,38.406c0.055-0.186,0.128-0.334,0.222-0.446c0.093-0.112,0.202-0.192,0.326-0.24
					s0.255-0.072,0.394-0.072c0.142,0,0.274,0.024,0.398,0.072s0.233,0.128,0.328,0.24s0.169,0.261,0.224,0.446
					c0.055,0.185,0.082,0.414,0.082,0.686c0,0.28-0.027,0.514-0.082,0.702c-0.055,0.188-0.129,0.338-0.224,0.45
					c-0.095,0.111-0.204,0.191-0.328,0.24c-0.124,0.048-0.256,0.071-0.398,0.071c-0.139,0-0.27-0.023-0.394-0.071
					c-0.124-0.049-0.232-0.129-0.326-0.24c-0.094-0.112-0.167-0.263-0.222-0.45c-0.055-0.188-0.082-0.422-0.082-0.702
					C121.666,38.82,121.694,38.59,121.748,38.406z M122.243,39.381c0.005,0.113,0.022,0.223,0.05,0.328s0.073,0.195,0.134,0.27
					c0.061,0.075,0.149,0.112,0.264,0.112c0.117,0,0.208-0.037,0.27-0.112c0.062-0.074,0.108-0.164,0.136-0.27
					c0.028-0.105,0.044-0.215,0.05-0.328s0.008-0.21,0.008-0.29c0-0.048,0-0.105-0.002-0.174c-0.001-0.068-0.006-0.138-0.016-0.21
					c-0.01-0.072-0.023-0.144-0.04-0.214c-0.018-0.071-0.043-0.134-0.078-0.19c-0.035-0.056-0.079-0.102-0.132-0.136
					c-0.054-0.035-0.119-0.052-0.196-0.052c-0.077,0-0.142,0.017-0.194,0.052c-0.052,0.034-0.095,0.08-0.128,0.136
					c-0.034,0.057-0.06,0.119-0.078,0.19c-0.019,0.07-0.032,0.142-0.04,0.214s-0.013,0.142-0.014,0.21
					c-0.001,0.068-0.002,0.126-0.002,0.174C122.234,39.171,122.237,39.268,122.243,39.381z"/>
				<path class="st13" d="M123.998,39.072c0.008-0.134,0.042-0.244,0.1-0.332s0.133-0.159,0.224-0.212
					c0.09-0.054,0.192-0.092,0.306-0.114c0.114-0.022,0.228-0.034,0.342-0.034c0.104,0,0.209,0.008,0.316,0.022
					s0.204,0.043,0.292,0.086c0.088,0.042,0.16,0.102,0.216,0.178c0.056,0.076,0.084,0.177,0.084,0.302v1.076
					c0,0.094,0.005,0.183,0.016,0.268c0.011,0.086,0.029,0.149,0.056,0.192h-0.576c-0.011-0.032-0.019-0.064-0.026-0.098
					s-0.011-0.067-0.014-0.103c-0.09,0.094-0.197,0.159-0.32,0.196s-0.248,0.056-0.376,0.056c-0.099,0-0.191-0.012-0.276-0.036
					c-0.085-0.023-0.16-0.061-0.224-0.111s-0.114-0.115-0.15-0.192c-0.036-0.077-0.054-0.169-0.054-0.276
					c0-0.117,0.021-0.214,0.062-0.289c0.042-0.076,0.095-0.137,0.16-0.183c0.065-0.045,0.14-0.079,0.224-0.102
					s0.168-0.041,0.254-0.055c0.085-0.013,0.169-0.023,0.252-0.031c0.083-0.009,0.156-0.021,0.22-0.036
					c0.064-0.017,0.115-0.039,0.152-0.07c0.037-0.03,0.055-0.075,0.052-0.134c0-0.062-0.01-0.11-0.03-0.146s-0.047-0.063-0.08-0.084
					c-0.033-0.02-0.072-0.033-0.116-0.04c-0.044-0.006-0.091-0.01-0.142-0.01c-0.112,0-0.2,0.024-0.264,0.072
					s-0.102,0.128-0.112,0.24H123.998z M125.31,39.491c-0.024,0.021-0.054,0.038-0.09,0.05s-0.075,0.021-0.116,0.03
					c-0.041,0.008-0.084,0.015-0.13,0.02c-0.045,0.006-0.091,0.012-0.136,0.021c-0.043,0.008-0.085,0.019-0.126,0.031
					c-0.041,0.014-0.077,0.031-0.108,0.055c-0.031,0.022-0.055,0.051-0.074,0.086c-0.019,0.034-0.028,0.078-0.028,0.132
					c0,0.051,0.009,0.094,0.028,0.128c0.019,0.034,0.044,0.062,0.076,0.082c0.032,0.02,0.069,0.034,0.112,0.042
					c0.042,0.008,0.086,0.012,0.132,0.012c0.112,0,0.199-0.019,0.26-0.056c0.061-0.037,0.106-0.082,0.136-0.134
					c0.029-0.053,0.047-0.104,0.054-0.158c0.006-0.054,0.01-0.096,0.01-0.128V39.491z"/>
			</g>
		</g>
	</g>
</g>
<g>
	<g>
		<g>
			<g>
				<path class="st13" d="M129.424,40.007c0.085,0.083,0.208,0.124,0.368,0.124c0.115,0,0.213-0.028,0.296-0.086
					c0.083-0.058,0.133-0.118,0.152-0.182h0.5c-0.08,0.248-0.203,0.425-0.368,0.531c-0.166,0.107-0.365,0.16-0.6,0.16
					c-0.163,0-0.309-0.025-0.44-0.078c-0.131-0.052-0.241-0.126-0.332-0.222s-0.161-0.211-0.21-0.344
					c-0.049-0.134-0.074-0.28-0.074-0.44c0-0.154,0.025-0.299,0.076-0.432c0.051-0.134,0.123-0.249,0.216-0.346
					c0.093-0.098,0.205-0.175,0.334-0.23c0.129-0.056,0.272-0.084,0.43-0.084c0.176,0,0.33,0.034,0.46,0.102
					c0.131,0.068,0.238,0.16,0.322,0.274s0.145,0.245,0.182,0.392c0.037,0.147,0.05,0.301,0.04,0.46h-1.492
					C129.292,39.791,129.339,39.924,129.424,40.007z M130.066,38.919c-0.068-0.074-0.171-0.112-0.31-0.112
					c-0.09,0-0.166,0.016-0.226,0.046c-0.06,0.031-0.108,0.069-0.144,0.114c-0.036,0.046-0.062,0.094-0.076,0.145
					c-0.015,0.05-0.023,0.096-0.026,0.136h0.924C130.182,39.103,130.134,38.993,130.066,38.919z"/>
				<path class="st13" d="M131.062,38.406c0.055-0.186,0.128-0.334,0.222-0.446c0.093-0.112,0.202-0.192,0.326-0.24
					s0.255-0.072,0.394-0.072c0.142,0,0.274,0.024,0.398,0.072s0.233,0.128,0.328,0.24s0.169,0.261,0.224,0.446
					c0.055,0.185,0.082,0.414,0.082,0.686c0,0.28-0.027,0.514-0.082,0.702c-0.055,0.188-0.129,0.338-0.224,0.45
					c-0.095,0.111-0.204,0.191-0.328,0.24c-0.124,0.048-0.256,0.071-0.398,0.071c-0.139,0-0.27-0.023-0.394-0.071
					c-0.124-0.049-0.232-0.129-0.326-0.24c-0.094-0.112-0.167-0.263-0.222-0.45c-0.055-0.188-0.082-0.422-0.082-0.702
					C130.98,38.82,131.007,38.59,131.062,38.406z M131.556,39.381c0.005,0.113,0.022,0.223,0.05,0.328s0.073,0.195,0.134,0.27
					c0.061,0.075,0.149,0.112,0.264,0.112c0.117,0,0.208-0.037,0.27-0.112c0.062-0.074,0.108-0.164,0.136-0.27
					c0.028-0.105,0.044-0.215,0.05-0.328s0.008-0.21,0.008-0.29c0-0.048,0-0.105-0.002-0.174c-0.001-0.068-0.006-0.138-0.016-0.21
					c-0.01-0.072-0.023-0.144-0.04-0.214c-0.018-0.071-0.043-0.134-0.078-0.19c-0.035-0.056-0.079-0.102-0.132-0.136
					c-0.054-0.035-0.119-0.052-0.196-0.052c-0.077,0-0.142,0.017-0.194,0.052c-0.052,0.034-0.095,0.08-0.128,0.136
					c-0.034,0.057-0.06,0.119-0.078,0.19c-0.019,0.07-0.032,0.142-0.04,0.214s-0.013,0.142-0.014,0.21
					c-0.001,0.068-0.002,0.126-0.002,0.174C131.548,39.171,131.551,39.268,131.556,39.381z"/>
				<path class="st13" d="M133.904,37.647v1.04h0.008c0.069-0.106,0.163-0.185,0.283-0.233c0.118-0.05,0.241-0.074,0.369-0.074
					c0.104,0,0.207,0.021,0.309,0.064c0.102,0.042,0.192,0.107,0.273,0.195c0.082,0.088,0.147,0.201,0.198,0.338
					c0.051,0.138,0.076,0.301,0.076,0.49s-0.025,0.353-0.076,0.49s-0.116,0.25-0.198,0.338c-0.081,0.088-0.172,0.153-0.273,0.196
					c-0.102,0.042-0.204,0.063-0.309,0.063c-0.151,0-0.288-0.023-0.408-0.071c-0.12-0.049-0.211-0.13-0.272-0.244h-0.008v0.264
					h-0.54v-2.856H133.904z M134.825,39.219c-0.019-0.08-0.049-0.15-0.088-0.212c-0.04-0.062-0.091-0.11-0.15-0.146
					c-0.061-0.036-0.133-0.055-0.218-0.055c-0.083,0-0.155,0.019-0.216,0.055c-0.062,0.035-0.112,0.084-0.152,0.146
					s-0.069,0.132-0.088,0.212s-0.028,0.164-0.028,0.252c0,0.086,0.009,0.168,0.028,0.248s0.048,0.15,0.088,0.212
					s0.091,0.11,0.152,0.146c0.061,0.036,0.133,0.054,0.216,0.054c0.085,0,0.157-0.018,0.218-0.054
					c0.06-0.036,0.11-0.085,0.15-0.146c0.039-0.062,0.069-0.132,0.088-0.212s0.027-0.162,0.027-0.248
					C134.852,39.383,134.843,39.299,134.825,39.219z"/>
			</g>
		</g>
	</g>
</g>
<g>
	<g>
		<g>
			<g>
				<path class="st13" d="M262.052,40.007c0.084,0.083,0.207,0.124,0.367,0.124c0.115,0,0.213-0.028,0.296-0.086
					s0.134-0.118,0.152-0.182h0.5c-0.08,0.248-0.202,0.425-0.368,0.531c-0.166,0.107-0.365,0.16-0.6,0.16
					c-0.163,0-0.31-0.025-0.44-0.078c-0.131-0.052-0.241-0.126-0.332-0.222s-0.161-0.211-0.21-0.344
					c-0.049-0.134-0.074-0.28-0.074-0.44c0-0.154,0.025-0.299,0.076-0.432c0.051-0.134,0.123-0.249,0.217-0.346
					c0.093-0.098,0.204-0.175,0.334-0.23c0.129-0.056,0.271-0.084,0.43-0.084c0.176,0,0.329,0.034,0.459,0.102
					c0.131,0.068,0.238,0.16,0.322,0.274s0.145,0.245,0.183,0.392c0.037,0.147,0.05,0.301,0.04,0.46h-1.492
					C261.919,39.791,261.966,39.924,262.052,40.007z M262.693,38.919c-0.067-0.074-0.171-0.112-0.31-0.112
					c-0.091,0-0.165,0.016-0.226,0.046c-0.061,0.031-0.108,0.069-0.145,0.114c-0.035,0.046-0.061,0.094-0.076,0.145
					c-0.014,0.05-0.023,0.096-0.025,0.136h0.924C262.809,39.103,262.761,38.993,262.693,38.919z"/>
				<path class="st13" d="M263.689,38.406c0.055-0.186,0.129-0.334,0.223-0.446s0.201-0.192,0.326-0.24
					c0.123-0.048,0.255-0.072,0.394-0.072c0.142,0,0.274,0.024,0.397,0.072c0.125,0.048,0.234,0.128,0.328,0.24
					c0.096,0.112,0.17,0.261,0.225,0.446c0.055,0.185,0.082,0.414,0.082,0.686c0,0.28-0.027,0.514-0.082,0.702
					c-0.055,0.188-0.129,0.338-0.225,0.45c-0.094,0.111-0.203,0.191-0.328,0.24c-0.123,0.048-0.256,0.071-0.397,0.071
					c-0.139,0-0.271-0.023-0.394-0.071c-0.125-0.049-0.232-0.129-0.326-0.24c-0.094-0.112-0.168-0.263-0.223-0.45
					c-0.055-0.188-0.082-0.422-0.082-0.702C263.607,38.82,263.634,38.59,263.689,38.406z M264.183,39.381
					c0.006,0.113,0.022,0.223,0.051,0.328c0.027,0.105,0.072,0.195,0.134,0.27c0.062,0.075,0.149,0.112,0.264,0.112
					c0.117,0,0.208-0.037,0.271-0.112c0.062-0.074,0.107-0.164,0.136-0.27s0.044-0.215,0.05-0.328s0.008-0.21,0.008-0.29
					c0-0.048,0-0.105-0.002-0.174c-0.001-0.068-0.006-0.138-0.016-0.21s-0.023-0.144-0.04-0.214
					c-0.018-0.071-0.044-0.134-0.078-0.19c-0.034-0.056-0.079-0.102-0.132-0.136c-0.054-0.035-0.119-0.052-0.196-0.052
					s-0.142,0.017-0.194,0.052c-0.052,0.034-0.094,0.08-0.127,0.136c-0.034,0.057-0.061,0.119-0.078,0.19
					c-0.02,0.07-0.033,0.142-0.041,0.214s-0.012,0.142-0.014,0.21c-0.001,0.068-0.002,0.126-0.002,0.174
					C264.175,39.171,264.178,39.268,264.183,39.381z"/>
				<path class="st13" d="M265.939,39.072c0.009-0.134,0.042-0.244,0.101-0.332s0.134-0.159,0.224-0.212
					c0.091-0.054,0.193-0.092,0.307-0.114s0.227-0.034,0.342-0.034c0.104,0,0.209,0.008,0.316,0.022
					c0.105,0.015,0.203,0.043,0.291,0.086c0.088,0.042,0.16,0.102,0.217,0.178c0.056,0.076,0.084,0.177,0.084,0.302v1.076
					c0,0.094,0.005,0.183,0.016,0.268c0.011,0.086,0.029,0.149,0.057,0.192h-0.576c-0.012-0.032-0.02-0.064-0.026-0.098
					s-0.011-0.067-0.015-0.103c-0.09,0.094-0.197,0.159-0.319,0.196s-0.248,0.056-0.376,0.056c-0.099,0-0.191-0.012-0.275-0.036
					c-0.086-0.023-0.16-0.061-0.225-0.111s-0.114-0.115-0.15-0.192c-0.035-0.077-0.054-0.169-0.054-0.276
					c0-0.117,0.021-0.214,0.062-0.289c0.042-0.076,0.096-0.137,0.16-0.183c0.066-0.045,0.141-0.079,0.225-0.102
					s0.168-0.041,0.254-0.055c0.085-0.013,0.169-0.023,0.252-0.031c0.082-0.009,0.156-0.021,0.22-0.036
					c0.063-0.017,0.114-0.039,0.152-0.07c0.037-0.03,0.055-0.075,0.052-0.134c0-0.062-0.01-0.11-0.029-0.146
					c-0.021-0.036-0.047-0.063-0.08-0.084c-0.033-0.02-0.072-0.033-0.117-0.04c-0.043-0.006-0.091-0.01-0.141-0.01
					c-0.113,0-0.201,0.024-0.265,0.072s-0.102,0.128-0.112,0.24H265.939z M267.251,39.491c-0.023,0.021-0.054,0.038-0.09,0.05
					s-0.074,0.021-0.116,0.03c-0.041,0.008-0.085,0.015-0.13,0.02c-0.045,0.006-0.091,0.012-0.136,0.021
					c-0.043,0.008-0.085,0.019-0.126,0.031c-0.041,0.014-0.078,0.031-0.108,0.055c-0.03,0.022-0.056,0.051-0.073,0.086
					c-0.02,0.034-0.029,0.078-0.029,0.132c0,0.051,0.01,0.094,0.029,0.128c0.018,0.034,0.043,0.062,0.075,0.082
					c0.032,0.02,0.069,0.034,0.112,0.042s0.086,0.012,0.132,0.012c0.112,0,0.198-0.019,0.261-0.056
					c0.061-0.037,0.105-0.082,0.135-0.134c0.029-0.053,0.048-0.104,0.055-0.158c0.006-0.054,0.01-0.096,0.01-0.128V39.491z"/>
			</g>
		</g>
	</g>
</g>
<g>
	<g>
		<g>
			<g>
				<path class="st13" d="M271.366,40.007c0.085,0.083,0.208,0.124,0.367,0.124c0.115,0,0.214-0.028,0.296-0.086
					c0.083-0.058,0.134-0.118,0.152-0.182h0.5c-0.08,0.248-0.202,0.425-0.368,0.531c-0.165,0.107-0.365,0.16-0.6,0.16
					c-0.163,0-0.31-0.025-0.44-0.078c-0.131-0.052-0.241-0.126-0.332-0.222s-0.16-0.211-0.21-0.344
					c-0.049-0.134-0.073-0.28-0.073-0.44c0-0.154,0.024-0.299,0.075-0.432c0.051-0.134,0.123-0.249,0.217-0.346
					c0.093-0.098,0.204-0.175,0.334-0.23c0.129-0.056,0.272-0.084,0.43-0.084c0.176,0,0.329,0.034,0.46,0.102
					c0.131,0.068,0.238,0.16,0.322,0.274s0.145,0.245,0.182,0.392c0.037,0.147,0.051,0.301,0.04,0.46h-1.492
					C271.233,39.791,271.28,39.924,271.366,40.007z M272.007,38.919c-0.068-0.074-0.172-0.112-0.311-0.112
					c-0.09,0-0.165,0.016-0.226,0.046c-0.06,0.031-0.108,0.069-0.144,0.114c-0.036,0.046-0.062,0.094-0.076,0.145
					c-0.015,0.05-0.023,0.096-0.026,0.136h0.924C272.122,39.103,272.076,38.993,272.007,38.919z"/>
				<path class="st13" d="M273.003,38.406c0.055-0.186,0.128-0.334,0.222-0.446s0.202-0.192,0.326-0.24s0.255-0.072,0.394-0.072
					c0.142,0,0.274,0.024,0.398,0.072s0.233,0.128,0.328,0.24s0.169,0.261,0.224,0.446c0.055,0.185,0.082,0.414,0.082,0.686
					c0,0.28-0.027,0.514-0.082,0.702c-0.055,0.188-0.129,0.338-0.224,0.45c-0.095,0.111-0.204,0.191-0.328,0.24
					c-0.124,0.048-0.257,0.071-0.398,0.071c-0.139,0-0.27-0.023-0.394-0.071c-0.124-0.049-0.232-0.129-0.326-0.24
					c-0.094-0.112-0.167-0.263-0.222-0.45c-0.055-0.188-0.082-0.422-0.082-0.702C272.921,38.82,272.949,38.59,273.003,38.406z
					 M273.497,39.381c0.005,0.113,0.021,0.223,0.05,0.328c0.027,0.105,0.072,0.195,0.134,0.27c0.062,0.075,0.149,0.112,0.264,0.112
					c0.117,0,0.208-0.037,0.271-0.112c0.062-0.074,0.107-0.164,0.136-0.27s0.045-0.215,0.05-0.328
					c0.006-0.113,0.008-0.21,0.008-0.29c0-0.048,0-0.105-0.002-0.174c-0.001-0.068-0.006-0.138-0.016-0.21s-0.022-0.144-0.04-0.214
					c-0.018-0.071-0.043-0.134-0.078-0.19c-0.034-0.056-0.078-0.102-0.132-0.136c-0.054-0.035-0.118-0.052-0.196-0.052
					c-0.077,0-0.142,0.017-0.193,0.052c-0.053,0.034-0.095,0.08-0.128,0.136c-0.034,0.057-0.06,0.119-0.078,0.19
					c-0.019,0.07-0.032,0.142-0.04,0.214s-0.013,0.142-0.015,0.21c-0.001,0.068-0.002,0.126-0.002,0.174
					C273.489,39.171,273.492,39.268,273.497,39.381z"/>
				<path class="st13" d="M275.845,37.647v1.04h0.008c0.069-0.106,0.163-0.185,0.282-0.233c0.118-0.05,0.242-0.074,0.37-0.074
					c0.104,0,0.206,0.021,0.308,0.064c0.102,0.042,0.193,0.107,0.274,0.195s0.147,0.201,0.198,0.338
					c0.05,0.138,0.075,0.301,0.075,0.49s-0.025,0.353-0.075,0.49c-0.051,0.138-0.117,0.25-0.198,0.338s-0.173,0.153-0.274,0.196
					c-0.102,0.042-0.204,0.063-0.308,0.063c-0.152,0-0.288-0.023-0.408-0.071c-0.12-0.049-0.211-0.13-0.271-0.244h-0.009v0.264
					h-0.54v-2.856H275.845z M276.765,39.219c-0.019-0.08-0.048-0.15-0.088-0.212s-0.09-0.11-0.15-0.146
					c-0.06-0.036-0.132-0.055-0.218-0.055c-0.082,0-0.154,0.019-0.216,0.055c-0.062,0.035-0.112,0.084-0.152,0.146
					s-0.069,0.132-0.088,0.212s-0.027,0.164-0.027,0.252c0,0.086,0.009,0.168,0.027,0.248s0.048,0.15,0.088,0.212
					s0.091,0.11,0.152,0.146s0.134,0.054,0.216,0.054c0.086,0,0.158-0.018,0.218-0.054c0.061-0.036,0.11-0.085,0.15-0.146
					s0.069-0.132,0.088-0.212s0.028-0.162,0.028-0.248C276.793,39.383,276.784,39.299,276.765,39.219z"/>
			</g>
		</g>
	</g>
</g>
</svg>
