<?xml version="1.0" encoding="utf-8"?>
<!-- Generator: Adobe Illustrator 26.0.3, SVG Export Plug-In . SVG Version: 6.00 Build 0)  -->
<svg version="1.1" xmlns="http://www.w3.org/2000/svg" xmlns:xlink="http://www.w3.org/1999/xlink" x="0px" y="0px"
	 viewBox="0 0 171.4 155.7" style="enable-background:new 0 0 171.4 155.7;" xml:space="preserve">
<style type="text/css">
	.st0{clip-path:url(#SVGID_00000031169945074553254420000007692735384112831385_);fill:#E6E6E6;}
	.st1{clip-path:url(#SVGID_00000031169945074553254420000007692735384112831385_);fill:#808080;}
	.st2{clip-path:url(#SVGID_00000031169945074553254420000007692735384112831385_);}
	.st3{fill:#B3B3B3;}
	.st4{fill:#E6E6E6;}
	.st5{fill:#272626;}
	.st6{fill:none;stroke:#010101;stroke-width:0.5605;stroke-miterlimit:10;}
	.st7{fill:none;stroke:#E6E6E6;stroke-width:0.5605;stroke-miterlimit:10;}
	
		.st8{clip-path:url(#SVGID_00000031169945074553254420000007692735384112831385_);fill:none;stroke:#FFFFFF;stroke-width:2.242;stroke-linecap:round;stroke-linejoin:round;stroke-miterlimit:10;}
	
		.st9{clip-path:url(#SVGID_00000031169945074553254420000007692735384112831385_);fill:none;stroke:#B3B3B3;stroke-width:0.8407;stroke-linecap:round;stroke-linejoin:round;stroke-miterlimit:10;stroke-dasharray:1.6815;}
	.st10{fill:#404040;}
	.st11{fill:#FFFFFF;}
	.st12{fill-rule:evenodd;clip-rule:evenodd;fill:#FFFFFF;}
	.st13{fill:none;stroke:#4E4F4F;stroke-width:0.2802;stroke-miterlimit:10;}
	.st14{fill:#4E4F4F;}
	
		.st15{clip-path:url(#SVGID_00000031169945074553254420000007692735384112831385_);fill:none;stroke:#231F20;stroke-width:0.5605;stroke-linecap:round;stroke-linejoin:round;stroke-miterlimit:10;}
	.st16{fill:#FFFFFF;stroke:#FFFFFF;stroke-width:1.6815;stroke-linecap:round;stroke-linejoin:round;stroke-miterlimit:10;}
	.st17{fill:#EE7623;}
	.st18{fill-rule:evenodd;clip-rule:evenodd;fill:#DDDDDD;}
	.st19{fill:none;stroke:#8C8C8C;stroke-width:0;stroke-linecap:round;stroke-linejoin:round;stroke-miterlimit:10;}
	.st20{fill-rule:evenodd;clip-rule:evenodd;fill:none;}
	.st21{fill-rule:evenodd;clip-rule:evenodd;fill:#747474;}
	.st22{fill:none;stroke:#272626;stroke-width:0;stroke-linecap:round;stroke-linejoin:round;stroke-miterlimit:10;}
	.st23{fill-rule:evenodd;clip-rule:evenodd;fill:#4E4F4F;}
	.st24{fill:none;stroke:#606060;stroke-width:0;stroke-linecap:round;stroke-linejoin:round;stroke-miterlimit:10;}
	.st25{fill:none;stroke:#595A5A;stroke-width:0;stroke-linecap:round;stroke-linejoin:round;stroke-miterlimit:10;}
	.st26{fill:none;stroke:#333333;stroke-width:4.523504e-02;stroke-linecap:round;stroke-linejoin:round;stroke-miterlimit:10;}
	.st27{fill:none;stroke:#4E4F4F;stroke-width:0.2716;stroke-miterlimit:10;}
	.st28{fill:#99CA3C;}
	.st29{fill:none;stroke:#FFFFFF;stroke-width:1.6815;stroke-linecap:round;stroke-linejoin:round;stroke-miterlimit:10;}
	.st30{fill:none;stroke:#231F20;stroke-width:0.5605;stroke-linecap:round;stroke-linejoin:round;stroke-miterlimit:10;}
	.st31{fill-rule:evenodd;clip-rule:evenodd;fill:#010101;}
	.st32{font-family:'Helvetica';}
	.st33{font-size:11.2748px;}
</style>
<g id="Layer_1_copy">
	<g>
		<g>
			<defs>
				<rect id="SVGID_1_" x="-20" y="-7.4" width="186.9" height="154.6"/>
			</defs>
			<clipPath id="SVGID_00000109022617671569272940000016600246615826348971_">
				<use xlink:href="#SVGID_1_"  style="overflow:visible;"/>
			</clipPath>
			
				<rect x="69.7" y="25.2" style="clip-path:url(#SVGID_00000109022617671569272940000016600246615826348971_);fill:#E6E6E6;" width="494.6" height="96.6"/>
			
				<rect x="71.1" y="29.4" style="clip-path:url(#SVGID_00000109022617671569272940000016600246615826348971_);fill:#808080;" width="488.5" height="88.6"/>
			<g style="clip-path:url(#SVGID_00000109022617671569272940000016600246615826348971_);">
				<rect x="75.1" y="31.2" class="st3" width="15.2" height="5.9"/>
				<path class="st4" d="M75.1,36.5c0,0,7.9-4.3,15.2,0V116H75L75.1,36.5z"/>
				<path class="st5" d="M82.6,89.7L82.6,89.7c-3.2,0-5.8-2.6-5.8-5.8V64.7c0-3.2,2.6-5.8,5.8-5.8h0c3.2,0,5.8,2.6,5.8,5.8v19.2
					C88.5,87.1,85.9,89.7,82.6,89.7z"/>
				<circle class="st5" cx="82.6" cy="44.2" r="2.4"/>
				<line class="st6" x1="75" y1="51.4" x2="90.3" y2="51.4"/>
				<line class="st7" x1="77.1" y1="64.7" x2="88.2" y2="64.7"/>
				<rect x="80.2" y="95.3" class="st3" width="4.9" height="13.3"/>
			</g>
			<g style="clip-path:url(#SVGID_00000109022617671569272940000016600246615826348971_);">
				<rect x="95.3" y="31.2" class="st3" width="15.2" height="5.9"/>
				<path class="st4" d="M95.2,36.5c0,0,7.9-4.3,15.2,0V116H95.2L95.2,36.5z"/>
				<path class="st5" d="M102.8,89.7L102.8,89.7c-3.2,0-5.8-2.6-5.8-5.8V64.7c0-3.2,2.6-5.8,5.8-5.8h0c3.2,0,5.8,2.6,5.8,5.8v19.2
					C108.7,87.1,106,89.7,102.8,89.7z"/>
				<circle class="st5" cx="102.8" cy="44.2" r="2.4"/>
				<line class="st6" x1="95.2" y1="51.4" x2="110.4" y2="51.4"/>
				<line class="st7" x1="97.3" y1="64.7" x2="108.4" y2="64.7"/>
				<rect x="100.4" y="95.3" class="st3" width="4.9" height="13.3"/>
			</g>
			<g style="clip-path:url(#SVGID_00000109022617671569272940000016600246615826348971_);">
				<rect x="115.4" y="31.2" class="st3" width="15.2" height="5.9"/>
				<path class="st4" d="M115.4,36.5c0,0,7.9-4.3,15.2,0V116h-15.3L115.4,36.5z"/>
				<path class="st5" d="M123,89.7L123,89.7c-3.2,0-5.8-2.6-5.8-5.8V64.7c0-3.2,2.6-5.8,5.8-5.8h0c3.2,0,5.8,2.6,5.8,5.8v19.2
					C128.8,87.1,126.2,89.7,123,89.7z"/>
				<circle class="st5" cx="123" cy="44.2" r="2.4"/>
				<line class="st6" x1="115.3" y1="51.4" x2="130.6" y2="51.4"/>
				<line class="st7" x1="117.4" y1="64.7" x2="128.5" y2="64.7"/>
				<rect x="120.5" y="95.3" class="st3" width="4.9" height="13.3"/>
			</g>
			<g style="clip-path:url(#SVGID_00000109022617671569272940000016600246615826348971_);">
				<rect x="135.6" y="31.2" class="st3" width="15.2" height="5.9"/>
				<path class="st4" d="M135.6,36.5c0,0,7.9-4.3,15.2,0V116h-15.3L135.6,36.5z"/>
				<path class="st5" d="M143.1,89.7L143.1,89.7c-3.2,0-5.8-2.6-5.8-5.8V64.7c0-3.2,2.6-5.8,5.8-5.8h0c3.2,0,5.8,2.6,5.8,5.8v19.2
					C149,87.1,146.3,89.7,143.1,89.7z"/>
				<circle class="st5" cx="143.1" cy="44.2" r="2.4"/>
				<line class="st6" x1="135.5" y1="51.4" x2="150.7" y2="51.4"/>
				<line class="st7" x1="137.6" y1="64.7" x2="148.7" y2="64.7"/>
				<rect x="140.7" y="95.3" class="st3" width="4.9" height="13.3"/>
			</g>
			<g style="clip-path:url(#SVGID_00000109022617671569272940000016600246615826348971_);">
				<rect x="155.7" y="31.2" class="st3" width="15.2" height="5.9"/>
				<path class="st4" d="M155.7,36.5c0,0,7.9-4.3,15.2,0V116h-15.3L155.7,36.5z"/>
				<path class="st5" d="M163.3,89.7L163.3,89.7c-3.2,0-5.8-2.6-5.8-5.8V64.7c0-3.2,2.6-5.8,5.8-5.8h0c3.2,0,5.8,2.6,5.8,5.8v19.2
					C169.1,87.1,166.5,89.7,163.3,89.7z"/>
				<circle class="st5" cx="163.3" cy="44.2" r="2.4"/>
				<line class="st6" x1="155.7" y1="51.4" x2="170.9" y2="51.4"/>
				<line class="st7" x1="157.7" y1="64.7" x2="168.8" y2="64.7"/>
				<rect x="160.8" y="95.3" class="st3" width="4.9" height="13.3"/>
			</g>
			<g style="clip-path:url(#SVGID_00000109022617671569272940000016600246615826348971_);">
				<rect x="175.9" y="31.2" class="st3" width="15.2" height="5.9"/>
				<path class="st4" d="M175.9,36.5c0,0,7.9-4.3,15.2,0V116h-15.3L175.9,36.5z"/>
				<path class="st5" d="M183.5,89.7L183.5,89.7c-3.2,0-5.8-2.6-5.8-5.8V64.7c0-3.2,2.6-5.8,5.8-5.8h0c3.2,0,5.8,2.6,5.8,5.8v19.2
					C189.3,87.1,186.7,89.7,183.5,89.7z"/>
				<circle class="st5" cx="183.5" cy="44.2" r="2.4"/>
				<line class="st6" x1="175.8" y1="51.4" x2="191.1" y2="51.4"/>
				<line class="st7" x1="177.9" y1="64.7" x2="189" y2="64.7"/>
				<rect x="181" y="95.3" class="st3" width="4.9" height="13.3"/>
			</g>
			<g style="clip-path:url(#SVGID_00000109022617671569272940000016600246615826348971_);">
				<rect x="196.1" y="31.2" class="st3" width="15.2" height="5.9"/>
				<path class="st4" d="M196,36.5c0,0,7.9-4.3,15.2,0V116H196L196,36.5z"/>
				<path class="st5" d="M203.6,89.7L203.6,89.7c-3.2,0-5.8-2.6-5.8-5.8V64.7c0-3.2,2.6-5.8,5.8-5.8h0c3.2,0,5.8,2.6,5.8,5.8v19.2
					C209.5,87.1,206.8,89.7,203.6,89.7z"/>
				<circle class="st5" cx="203.6" cy="44.2" r="2.4"/>
				<line class="st6" x1="196" y1="51.4" x2="211.2" y2="51.4"/>
				<line class="st7" x1="198.1" y1="64.7" x2="209.2" y2="64.7"/>
				<rect x="201.2" y="95.3" class="st3" width="4.9" height="13.3"/>
			</g>
			
				<path style="clip-path:url(#SVGID_00000109022617671569272940000016600246615826348971_);fill:none;stroke:#FFFFFF;stroke-width:2.242;stroke-linecap:round;stroke-linejoin:round;stroke-miterlimit:10;" d="
				M71.4,123.8h-26V23.3h26C71.4,23.3,76.6,68.1,71.4,123.8z"/>
			
				<path style="clip-path:url(#SVGID_00000109022617671569272940000016600246615826348971_);fill:none;stroke:#B3B3B3;stroke-width:0.8407;stroke-linecap:round;stroke-linejoin:round;stroke-miterlimit:10;stroke-dasharray:1.6815;" d="
				M71.4,123.8h-26V23.3h26C71.4,23.3,76.6,68.1,71.4,123.8z"/>
			<g style="clip-path:url(#SVGID_00000109022617671569272940000016600246615826348971_);">
				<path class="st5" d="M33.5,130.5H8.3V30h25.3C33.5,30,38.7,74.8,33.5,130.5z"/>
				<path class="st10" d="M32.8,130.5l-1.7,1l-23.5-1L5.1,31l2.5-1h25.3c0,0,0.2,1.5,0.4,4.2C34.3,46.5,37,84.9,32.8,130.5z"/>
				<polygon class="st11" points="30.5,90.9 15.5,90.9 15.5,81.8 22.9,81.8 30.5,81.8 				"/>
				<circle class="st11" cx="22.7" cy="56.8" r="2"/>
				<circle class="st11" cx="22.7" cy="63.7" r="2"/>
				<circle class="st11" cx="22.7" cy="70.5" r="2"/>
				<path class="st12" d="M28.8,61.9c0-0.3-0.2-0.4-0.4-0.4c-0.2,0-0.4,0.2-0.4,0.4l0.3,2.4c0,0.1,0.1,0.1,0.1,0.1
					c0.1,0,0.1-0.1,0.1-0.1L28.8,61.9 M28.8,65.3c0-0.3-0.2-0.5-0.5-0.5c-0.3,0-0.5,0.2-0.5,0.5c0,0.2,0.2,0.4,0.5,0.4
					C28.6,65.7,28.8,65.5,28.8,65.3z"/>
				<line class="st13" x1="23.2" y1="91.9" x2="23.2" y2="80.2"/>
				<path class="st12" d="M30.3,56.2c-0.3-1-1.4-1.6-2.4-1.4c-1.1,0.3-1.7,1.4-1.4,2.5c0.3,1,1.4,1.6,2.5,1.4
					C30,58.4,30.6,57.3,30.3,56.2 M30,56.6c0.1,0.8-0.5,1.7-1.4,1.8c-0.7,0.1-1.4-0.3-1.6-0.9l1.1-1.1l0.5,1.8L30,56.6z M26.8,57
					c-0.1-0.9,0.5-1.8,1.4-1.8c0.7-0.1,1.4,0.3,1.7,0.9l-1.1,1.1l-0.5-1.8L26.8,57z"/>
				<path class="st12" d="M30.4,70.4c0-1.1-0.9-2-2-2c-1.1,0-2,0.9-2,2c0,1.2,0.9,2,2,2C29.5,72.5,30.4,71.6,30.4,70.4z M29.9,70.4
					c0,0.9-0.7,1.5-1.5,1.5c-0.8,0-1.5-0.6-1.5-1.5c0-0.8,0.7-1.5,1.5-1.5C29.2,68.9,29.9,69.6,29.9,70.4z M28.7,70
					c0,0.2-0.1,0.3-0.3,0.3c-0.2,0-0.3-0.1-0.3-0.3s0.1-0.3,0.3-0.3C28.5,69.7,28.7,69.8,28.7,70z M27.7,70.4l0.6,1.2
					c0,0,0.1,0.1,0.1,0l0.6-1.2c0.2-0.4,0-0.8-0.3-1c-0.4-0.2-0.8-0.1-1,0.3C27.6,69.9,27.6,70.2,27.7,70.4z"/>
			</g>
			<g style="clip-path:url(#SVGID_00000109022617671569272940000016600246615826348971_);">
				<path class="st5" d="M31.1,131.5H5.8V31h25.3C31.1,31,36.3,75.8,31.1,131.5z"/>
				<path class="st14" d="M30.3,131.5H5.1V31h25.3C30.3,31,35.5,75.8,30.3,131.5z"/>
				<polygon class="st11" points="28.1,91.8 13,91.8 13,82.8 20.4,82.8 28.1,82.8 				"/>
				<circle class="st11" cx="15.9" cy="62.7" r="2"/>
				<circle class="st11" cx="15.9" cy="69.5" r="2"/>
				<circle class="st11" cx="15.9" cy="76.3" r="2"/>
				<path class="st12" d="M22,67.7c0-0.3-0.2-0.4-0.4-0.4c-0.2,0-0.4,0.2-0.4,0.4l0.3,2.4c0,0.1,0.1,0.1,0.1,0.1
					c0.1,0,0.1-0.1,0.1-0.1L22,67.7 M22.1,71.2c0-0.3-0.2-0.5-0.5-0.5c-0.3,0-0.5,0.2-0.5,0.5c0,0.2,0.2,0.4,0.5,0.4
					C21.9,71.6,22.1,71.4,22.1,71.2z"/>
				<line class="st13" x1="20.7" y1="92.9" x2="20.7" y2="81.2"/>
				<path class="st12" d="M23.5,62.1c-0.3-1-1.4-1.6-2.4-1.4c-1.1,0.3-1.7,1.4-1.4,2.5c0.3,1,1.4,1.6,2.5,1.4
					C23.2,64.2,23.8,63.1,23.5,62.1 M23.2,62.5c0.1,0.8-0.5,1.7-1.4,1.8c-0.7,0.1-1.4-0.3-1.6-0.9l1.1-1.1l0.5,1.8L23.2,62.5z
					 M20,62.9c-0.1-0.9,0.5-1.8,1.4-1.8c0.7-0.1,1.4,0.3,1.7,0.9L22,63.1l-0.5-1.8L20,62.9z"/>
				<path class="st12" d="M23.6,76.3c0-1.1-0.9-2-2-2c-1.1,0-2,0.9-2,2c0,1.2,0.9,2,2,2C22.7,78.3,23.6,77.4,23.6,76.3z M23.1,76.3
					c0,0.9-0.7,1.5-1.5,1.5c-0.8,0-1.5-0.6-1.5-1.5c0-0.8,0.7-1.5,1.5-1.5C22.4,74.8,23.1,75.4,23.1,76.3z M21.9,75.9
					c0,0.2-0.1,0.3-0.3,0.3c-0.2,0-0.3-0.1-0.3-0.3c0-0.2,0.1-0.3,0.3-0.3C21.8,75.6,21.9,75.7,21.9,75.9z M20.9,76.3l0.6,1.2
					c0,0,0.1,0.1,0.1,0l0.6-1.2c0.2-0.4,0-0.8-0.3-1c-0.4-0.2-0.8-0.1-1,0.3C20.8,75.8,20.8,76,20.9,76.3z"/>
			</g>
			
				<line style="clip-path:url(#SVGID_00000109022617671569272940000016600246615826348971_);fill:none;stroke:#231F20;stroke-width:0.5605;stroke-linecap:round;stroke-linejoin:round;stroke-miterlimit:10;" x1="13.9" y1="20.4" x2="18.5" y2="28.2"/>
		</g>
	</g>
</g>
<g id="Layer_2">
	<g>
		<polygon class="st16" points="50.2,35.1 42.2,39.2 42.1,42 35.9,39.8 41.6,31.7 41.5,35.3 50.3,30.4 		"/>
		<polygon class="st17" points="50.2,35.1 42.2,39.2 42.1,42 35.9,39.8 41.6,31.7 41.5,35.3 50.3,30.4 		"/>
	</g>
	<g>
		<g>
			<path class="st18" d="M54.8,53c-1.9,0-3.5-1.6-3.5-3.5c0-1.9,1.6-3.5,3.5-3.5h4.3c1.9,0,3.5,1.6,3.5,3.5c0,1.9-1.6,3.5-3.5,3.5
				H54.8z"/>
			<path class="st4" d="M63.2,121.8h6.4V27H67v-0.5c0-0.5-0.4-0.9-0.8-0.9H64c-0.5,0-0.9,0.4-0.9,0.9v2.4h-9.6v-2.4
				c0-0.5-0.4-0.9-0.9-0.9h-4.3c-0.4,0-0.7,0.3-0.7,0.7v94.8c0,0.4,0.3,0.7,0.7,0.7h5.1v-2.1h9.6V121.8z"/>
			<g>
				
					<ellipse transform="matrix(0.2298 -0.9732 0.9732 0.2298 -51.6082 132.3179)" class="st11" cx="57.8" cy="98.8" rx="7.1" ry="7.1"/>
				<path class="st11" d="M54.8,53c-1.9,0-3.5-1.6-3.5-3.5c0-1.9,1.6-3.5,3.5-3.5h4.3c1.9,0,3.5,1.6,3.5,3.5c0,1.9-1.6,3.5-3.5,3.5
					H54.8z"/>
			</g>
			<path d="M56.2,39.1c0-1.3,1.1-2.4,2.5-2.4c1.4,0,2.4,1.1,2.4,2.4c0,1.4-1.1,2.5-2.4,2.5C57.3,41.6,56.2,40.5,56.2,39.1z"/>
			<path d="M56.2,112.1c0-1.4,1.1-2.4,2.5-2.4c1.4,0,2.4,1.1,2.4,2.4c0,1.4-1.1,2.4-2.4,2.4C57.3,114.6,56.2,113.5,56.2,112.1z"/>
			<path class="st19" d="M57.4,54.7C57.4,54.7,57.4,54.7,57.4,54.7C57.4,54.7,57.4,54.7,57.4,54.7"/>
			<path class="st19" d="M52.7,54.7C52.7,54.7,52.7,54.7,52.7,54.7L52.7,54.7"/>
			<path class="st20" d="M64.6,92c0-0.8,0.6-1.4,1.4-1.4c0.8,0,1.4,0.6,1.4,1.4s-0.6,1.4-1.4,1.4C65.3,93.4,64.6,92.7,64.6,92"/>
			<path class="st20" d="M66,91l-0.2,0c-0.3,0.1-0.6,0.4-0.7,0.7v0.5h0v0.1h0v0.1h0l0,0v0.1h0l0.1,0.1l0.3,0.1l0.1,0l0.4,0v0l0.1,0
				l0.3-0.1l0.2-0.2l0.1-0.2l0-0.1l0-0.5h0v-0.1l0,0h0v-0.1l0,0h0v-0.1l0,0l-0.1,0l-0.1-0.1l-0.1,0l-0.1,0l-0.2,0"/>
			<path class="st21" d="M52.5,87.7h14.9c0.2,0,0.4-0.2,0.4-0.4V77.1c0-0.2-0.2-0.4-0.4-0.4H52.5c-0.2,0-0.4,0.2-0.4,0.4v10.2
				C52.1,87.5,52.2,87.7,52.5,87.7"/>
			<path class="st22" d="M52.5,87.7h14.9c0.2,0,0.4-0.2,0.4-0.4V77.1c0-0.2-0.2-0.4-0.4-0.4H52.5c-0.2,0-0.4,0.2-0.4,0.4v10.2
				C52.1,87.5,52.2,87.7,52.5,87.7z"/>
			<path class="st23" d="M68.7,75.7V55.3c0-0.3-0.3-0.5-0.6-0.5H52c-0.4,0-0.6,0.2-0.6,0.5v20.4c0,0.3,0.3,0.5,0.6,0.5h16.1
				C68.5,76.2,68.7,76,68.7,75.7"/>
			<path class="st24" d="M68.7,75.7V55.3c0-0.3-0.3-0.5-0.6-0.5H52c-0.4,0-0.6,0.2-0.6,0.5v20.4c0,0.3,0.3,0.5,0.6,0.5h16.1
				C68.5,76.2,68.7,76,68.7,75.7z"/>
			<path class="st12" d="M62.4,57.2c-0.3-0.9-1.4-1.4-2.3-1.1c-0.9,0.3-1.5,1.4-1.1,2.4c0.3,0.9,1.4,1.4,2.3,1.1
				c0.8-0.3,1.3-1,1.2-1.9C62.5,57.5,62.5,57.4,62.4,57.2 M59.4,58.5l0.9-1l0.5,1.5l1.2-1.4c0.1,0.8-0.4,1.5-1.2,1.6
				C60.3,59.3,59.7,59,59.4,58.5z M62,57.2l-0.9,1l-0.5-1.5L59.3,58c-0.1-0.8,0.4-1.5,1.2-1.6C61.1,56.3,61.6,56.6,62,57.2z
				 M60.8,62.9c0-0.2-0.1-0.4-0.4-0.4c-0.2,0-0.4,0.2-0.4,0.4v0l0.2,2.3c0,0.1,0.1,0.2,0.2,0.1c0.1,0,0.1,0,0.2-0.1L60.8,62.9z
				 M60.9,65.9c0-0.2-0.2-0.4-0.4-0.4c-0.2,0-0.4,0.1-0.4,0.4c0,0.2,0.2,0.4,0.4,0.4C60.7,66.3,60.9,66.1,60.9,65.9z M62.5,71
				c0-1-0.9-1.9-1.9-1.9c-1,0-1.9,0.8-1.9,1.9s0.8,1.9,1.9,1.9C61.7,72.9,62.5,72,62.5,71z M62.3,71c0,0.9-0.7,1.7-1.6,1.7
				c-0.9,0-1.7-0.8-1.7-1.7s0.7-1.6,1.7-1.6C61.6,69.4,62.3,70.1,62.3,71z M60,71l0.6,1.1c0,0,0.1,0.1,0.1,0c0,0,0,0,0,0l0.6-1.1
				c0.2-0.4,0.1-0.8-0.3-1c-0.4-0.2-0.8-0.1-1,0.3C59.9,70.5,59.9,70.7,60,71z M61,70.6c0,0.2-0.1,0.4-0.3,0.4
				c-0.2,0-0.4-0.1-0.4-0.4c0-0.2,0.2-0.3,0.4-0.3C60.9,70.3,61,70.4,61,70.6z"/>
			<path class="st20" d="M57.7,57c0-1.4-1.2-2.6-2.6-2.6c-1.4,0-2.6,1.2-2.6,2.6c0,1.4,1.2,2.6,2.6,2.6C56.5,59.6,57.7,58.5,57.7,57
				"/>
			<path d="M56.9,57.9c0-1-0.8-1.8-1.8-1.8c-1,0-1.9,0.8-1.9,1.8c0,1,0.8,1.9,1.9,1.9C56.1,59.7,56.9,58.9,56.9,57.9z"/>
			<path d="M56.9,64.3c0-1-0.8-1.9-1.8-1.9c-1,0-1.9,0.9-1.9,1.9c0,1,0.8,1.9,1.9,1.9C56.1,66.2,56.9,65.3,56.9,64.3z"/>
			<path d="M56.9,70.7c0-1-0.8-1.9-1.8-1.9c-1,0-1.9,0.9-1.9,1.9c0,1,0.8,1.8,1.9,1.8C56.1,72.5,56.9,71.7,56.9,70.7z"/>
			<polygon class="st25" points="55,82.4 54.2,82 53.8,85.2 54.8,84.5 			"/>
			<polygon class="st25" points="58.3,85.3 57.6,84.5 54.9,84.5 53.9,85.3 			"/>
			<polygon class="st25" points="55.1,82.3 57.7,82.3 58.7,81.9 57.9,81.5 55.2,81.5 54.3,81.9 			"/>
			<polygon class="st25" points="54.6,78.6 55.4,79.4 58.1,79.4 59.1,78.6 			"/>
			<polyline class="st25" points="58.7,82 57.8,82.4 57.6,84.4 58.4,85.2 58.8,82 58.7,82 			"/>
			<polyline class="st25" points="54.2,81.9 55.1,81.5 55.3,79.4 54.5,78.6 54.2,81.8 54.2,81.9 			"/>
			<line class="st25" x1="54.2" y1="82" x2="54.2" y2="82"/>
			<polyline class="st25" points="58.8,81.9 59.1,78.6 58.2,79.4 57.9,81.5 58.7,81.9 58.8,81.9 			"/>
			<line class="st26" x1="54.2" y1="82" x2="54.2" y2="82"/>
		</g>
		<g>
			<line class="st27" x1="60" y1="87.3" x2="60" y2="76.9"/>
			<g>
				<path class="st28" d="M54.6,81.3l-0.5,0.5l-0.4-0.5v-2l0.4-0.5l0.5,0.5V81.3z M54.6,84.4l-0.5,0.5l-0.4-0.5v-2l0.4-0.5l0.5,0.5
					V84.4z M57.2,78.8l-0.5,0.5h-2.1l-0.5-0.5l0.5-0.5h2.1L57.2,78.8z M57.2,84.9l-0.5,0.5h-2.1l-0.5-0.5l0.5-0.5h2.1L57.2,84.9z
					 M57.8,81.3l-0.5,0.5l-0.5-0.5v-2l0.5-0.5l0.5,0.5V81.3z M57.8,84.4l-0.5,0.5l-0.5-0.5v-2l0.5-0.5l0.5,0.5V84.4z"/>
			</g>
			<g>
				<path class="st28" d="M62.9,81.3l-0.5,0.5L62,81.3v-2l0.4-0.5l0.5,0.5V81.3z M62.9,84.4l-0.5,0.5L62,84.4v-2l0.4-0.5l0.5,0.5
					V84.4z M65.5,78.8l-0.5,0.5H63l-0.5-0.5l0.5-0.5h2.1L65.5,78.8z M65.5,84.9l-0.5,0.5H63l-0.5-0.5l0.5-0.5h2.1L65.5,84.9z
					 M66.1,81.3l-0.5,0.5l-0.5-0.5v-2l0.5-0.5l0.5,0.5V81.3z M66.1,84.4l-0.5,0.5l-0.5-0.5v-2l0.5-0.5l0.5,0.5V84.4z"/>
			</g>
		</g>
	</g>
	<path class="st4" d="M65.2,58.4c0-0.5,0.4-1,1-1c0.5,0,0.9,0.5,0.9,1c0,0.5-0.4,1-0.9,1C65.6,59.4,65.2,58.9,65.2,58.4z"/>
</g>
<g id="Layer_5">
	<g>
		<line class="st29" x1="58.5" y1="122.3" x2="63.7" y2="134.9"/>
		<line class="st30" x1="58.5" y1="122.3" x2="63.7" y2="134.9"/>
	</g>
	<g>
		<line class="st29" x1="62.1" y1="89.1" x2="85" y2="135.4"/>
		<line class="st30" x1="62.1" y1="89.1" x2="85" y2="135.4"/>
	</g>
	<g>
		<line class="st29" x1="67.7" y1="61.5" x2="101.3" y2="126.9"/>
		<line class="st30" x1="67.7" y1="61.5" x2="101.3" y2="126.9"/>
	</g>
	<g>
		<circle class="st31" cx="10.4" cy="10.7" r="7.5"/>
		<g>
			<text transform="matrix(1 0 0 1 7.3434 14.3767)" class="st11 st32 st33">1</text>
		</g>
	</g>
	<g>
		<circle class="st31" cx="66" cy="144.5" r="7.5"/>
		<g>
			<text transform="matrix(1 0 0 1 63.0145 148.1846)" class="st11 st32 st33">2</text>
		</g>
	</g>
	<g>
		<circle class="st31" cx="88.8" cy="144.6" r="7.5"/>
		<g>
			<text transform="matrix(1 0 0 1 85.7524 148.2753)" class="st11 st32 st33">3</text>
		</g>
	</g>
	<g>
		<circle class="st31" cx="107.6" cy="134.7" r="7.5"/>
		<g>
			<text transform="matrix(1 0 0 1 104.099 138.3546)" class="st11 st32 st33">4</text>
		</g>
	</g>
</g>
</svg>
