<?xml version="1.0" encoding="utf-8"?>
<!-- Generator: Adobe Illustrator 26.0.3, SVG Export Plug-In . SVG Version: 6.00 Build 0)  -->
<svg version="1.1" id="Layer_1" xmlns="http://www.w3.org/2000/svg" xmlns:xlink="http://www.w3.org/1999/xlink" x="0px" y="0px"
	 viewBox="0 0 299.8 99.2" style="enable-background:new 0 0 299.8 99.2;" xml:space="preserve">
<style type="text/css">
	.st0{fill:none;stroke:#CCCCCC;stroke-width:0.6715;stroke-linecap:round;stroke-linejoin:round;stroke-miterlimit:10;}
	.st1{fill:#E6E6E6;}
	.st2{fill:#CCCCCC;}
	.st3{fill-rule:evenodd;clip-rule:evenodd;fill:#E6E6E6;}
	.st4{fill-rule:evenodd;clip-rule:evenodd;fill:#262626;}
	.st5{fill:#595A5A;}
	.st6{fill:#D9D9D9;}
	.st7{fill:#6A6A6A;}
	.st8{fill-rule:evenodd;clip-rule:evenodd;fill:#FFFFFF;}
	.st9{fill:#292929;}
	.st10{fill-rule:evenodd;clip-rule:evenodd;fill:#B3B3B3;}
	.st11{fill-rule:evenodd;clip-rule:evenodd;fill:#D66927;}
	.st12{fill-rule:evenodd;clip-rule:evenodd;fill:#333333;}
	.st13{fill:#FFFFFF;}
	.st14{fill-rule:evenodd;clip-rule:evenodd;fill:#999999;}
	.st15{fill:#2762AC;}
	.st16{fill:#F5F6F6;}
	.st17{fill-rule:evenodd;clip-rule:evenodd;fill:#F5F6F6;}
	.st18{fill:#EE7623;stroke:#2762AC;stroke-width:0.2857;stroke-miterlimit:10;}
	.st19{fill:#262626;}
	.st20{fill-rule:evenodd;clip-rule:evenodd;fill:#1A1A1A;}
	.st21{fill-rule:evenodd;clip-rule:evenodd;fill:#F2F2F2;}
	.st22{fill:#4D4E4E;}
	.st23{fill:none;stroke:#FFFFFF;stroke-width:0.1222;stroke-miterlimit:10;}
	.st24{fill:none;stroke:#EE7623;stroke-width:1.75;stroke-linecap:round;stroke-linejoin:round;stroke-miterlimit:10;}
	.st25{fill:#EE7623;}
</style>
<g>
	<g>
		<g>
			<g>
				<rect x="6.2" y="5.6" class="st0" width="288" height="60.2"/>
				<rect x="9.1" y="8.6" class="st1" width="282.1" height="54.2"/>
				<g>
					<rect x="14" y="36.7" class="st2" width="131.6" height="24.1"/>
					<g>
						<path class="st3" d="M55.8,57.7h20.6c0.3,0,0.5-0.2,0.5-0.5V38.5c0-0.3-0.3-0.5-0.5-0.5H55.8c-0.3,0-0.5,0.2-0.5,0.5v18.6
							C55.3,57.5,55.5,57.7,55.8,57.7"/>
						<path class="st4" d="M69.5,39c0-0.1-0.1-0.2-0.2-0.2S69,38.9,69,39l0.1,1.4c0,0.1,0,0.1,0.1,0.1c0,0,0.1,0,0.1-0.1L69.5,39
							 M69.5,41c0-0.1-0.1-0.3-0.3-0.3c-0.1,0-0.3,0.1-0.3,0.3c0,0.1,0.1,0.2,0.3,0.2C69.4,41.2,69.5,41.1,69.5,41z"/>
						<path class="st4" d="M64.4,39.7c-0.1-0.6-0.8-0.9-1.4-0.8c-0.6,0.2-1,0.8-0.8,1.4c0.2,0.6,0.8,0.9,1.4,0.8
							C64.3,41,64.6,40.3,64.4,39.7 M64.3,40c0.1,0.5-0.3,1-0.8,1c-0.4,0.1-0.8-0.1-0.9-0.5l0.6-0.6l0.3,1L64.3,40z M62.4,40.2
							c0-0.5,0.3-1,0.8-1c0.4-0.1,0.8,0.1,1,0.5l-0.6,0.6l-0.3-1L62.4,40.2z"/>
					</g>
					<circle class="st4" cx="63.4" cy="43.3" r="1.2"/>
					<circle class="st4" cx="69.3" cy="43.3" r="1.2"/>
					<g>
						<path class="st5" d="M116.1,56.5h9.3c0.4,0,0.7-0.3,0.7-0.7V38.9c0-0.4-0.3-0.7-0.7-0.7h-9.3c-0.4,0-0.7,0.3-0.7,0.7v16.9
							C115.4,56.1,115.8,56.5,116.1,56.5z"/>
						<path class="st6" d="M116.9,53.7h7.9c0.3,0,0.5-0.3,0.5-0.5V41.5c0-0.3-0.3-0.5-0.5-0.5h-7.9c-0.3,0-0.5,0.3-0.5,0.5v11.7
							C116.3,53.5,116.5,53.7,116.9,53.7z"/>
						<path class="st5" d="M124.1,44.4v-1.7c0-0.2-0.1-0.3-0.3-0.3h-6c-0.2,0-0.3,0.1-0.3,0.3v1.7H124.1z"/>
						<path class="st7" d="M124.1,44.4h-6.6v7.4c0,0.2,0.1,0.3,0.3,0.3h6c0.2,0,0.3-0.1,0.3-0.3V44.4z"/>
						<path class="st8" d="M120.8,47.3c0.1,0,0.2-0.1,0.2-0.2v-1.6c0-0.1-0.1-0.2-0.2-0.2c-0.1,0-0.2,0.1-0.2,0.2v1.6
							C120.6,47.2,120.7,47.3,120.8,47.3 M121.5,50c0-0.4-0.3-0.7-0.7-0.7c-0.4,0-0.7,0.3-0.7,0.7c0,0.4,0.3,0.7,0.7,0.7
							C121.2,50.7,121.5,50.4,121.5,50z M121.9,50c0-0.6-0.5-1.1-1.1-1.1c-0.6,0-1.1,0.5-1.1,1.1c0,0.6,0.5,1.1,1.1,1.1
							C121.4,51.1,121.9,50.6,121.9,50z"/>
						<path class="st5" d="M128.7,39v17c0,0.5,0.4,1,1,1h12.3c0.5,0,1-0.4,1-1V39c0-0.5-0.4-1-1-1h-12.3
							C129.1,38,128.7,38.5,128.7,39z"/>
						<path class="st9" d="M130.1,43.7v7.7c0,0.4,0.2,0.8,0.5,1.1l3.1,2.9c0.3,0.3,0.7,0.4,1.1,0.4h5.2c0.9,0,1.6-0.7,1.6-1.6V40.7
							c0-0.9-0.7-1.6-1.6-1.6h-5.2c-0.4,0-0.8,0.1-1.1,0.4l-3.1,2.9C130.3,42.9,130.1,43.3,130.1,43.7z"/>
						<path class="st10" d="M135.9,52.5h3.1v-1h-3.1V52.5z M132.5,48h3.1v-1h-3.1V48z M135.9,43.5h3.1v-0.9h-3.1V43.5z"/>
					</g>
					<g>
						<rect x="100.1" y="57.5" class="st5" width="45.2" height="3.3"/>
						<rect x="65.1" y="55.8" class="st5" width="3.3" height="4.9"/>
						<rect x="14.7" y="57.5" class="st5" width="34" height="3.3"/>
						<path class="st7" d="M81.8,57.5c-0.7,0-1.3-0.1-2-0.2l-4.7-1.1c-0.7-0.2-1.3-0.3-2-0.3h-5c-0.2,0-0.3,0.2-0.3,0.3v4.3
							c0,0.2,0.2,0.3,0.3,0.3h31.9v-3.3H81.8z"/>
						<path class="st11" d="M70.5,60.3h27.8V58H81.8c-0.7,0-1.4-0.1-2.1-0.3l-4.7-1.1c-0.6-0.2-1.2-0.2-1.9-0.2h-2.7V60.3"/>
						<path class="st7" d="M60.3,57.5H48.7v3.3h16.6c0.2,0,0.3-0.2,0.3-0.3v-4.3c0-0.2-0.2-0.3-0.3-0.3H63c-0.2,0-0.3,0.1-0.5,0.2
							l-1.7,1.3C60.6,57.5,60.4,57.5,60.3,57.5z"/>
						<rect x="12.3" y="58.6" class="st5" width="4.9" height="2.2"/>
					</g>
				</g>
				<g>
					<rect x="155.6" y="36.7" class="st2" width="131.6" height="24.1"/>
					<g>
						<path class="st3" d="M197.4,57.7H218c0.3,0,0.5-0.2,0.5-0.5V38.5c0-0.3-0.3-0.5-0.5-0.5h-20.6c-0.3,0-0.5,0.2-0.5,0.5v18.6
							C196.8,57.5,197.1,57.7,197.4,57.7"/>
						<path class="st4" d="M211,39c0-0.1-0.1-0.2-0.2-0.2c-0.1,0-0.2,0.1-0.2,0.2l0.1,1.4c0,0.1,0,0.1,0.1,0.1c0,0,0.1,0,0.1-0.1
							L211,39 M211.1,41c0-0.1-0.1-0.3-0.3-0.3c-0.1,0-0.3,0.1-0.3,0.3c0,0.1,0.1,0.2,0.3,0.2C211,41.2,211.1,41.1,211.1,41z"/>
						<path class="st4" d="M206,39.7c-0.1-0.6-0.8-0.9-1.4-0.8c-0.6,0.2-1,0.8-0.8,1.4c0.2,0.6,0.8,0.9,1.4,0.8
							C205.8,41,206.2,40.3,206,39.7 M205.8,40c0.1,0.5-0.3,1-0.8,1c-0.4,0.1-0.8-0.1-0.9-0.5l0.6-0.6l0.3,1L205.8,40z M204,40.2
							c0-0.5,0.3-1,0.8-1c0.4-0.1,0.8,0.1,1,0.5l-0.6,0.6l-0.3-1L204,40.2z"/>
					</g>
					<circle class="st4" cx="205" cy="43.3" r="1.2"/>
					<circle class="st4" cx="210.9" cy="43.3" r="1.2"/>
					<g>
						<path class="st5" d="M257.7,56.5h9.3c0.4,0,0.7-0.3,0.7-0.7V38.9c0-0.4-0.3-0.7-0.7-0.7h-9.3c-0.4,0-0.7,0.3-0.7,0.7v16.9
							C257,56.1,257.3,56.5,257.7,56.5z"/>
						<path class="st6" d="M258.4,53.7h7.9c0.3,0,0.5-0.3,0.5-0.5V41.5c0-0.3-0.3-0.5-0.5-0.5h-7.9c-0.3,0-0.5,0.3-0.5,0.5v11.7
							C257.9,53.5,258.1,53.7,258.4,53.7z"/>
						<path class="st5" d="M265.7,44.4v-1.7c0-0.2-0.1-0.3-0.3-0.3h-6c-0.2,0-0.3,0.1-0.3,0.3v1.7H265.7z"/>
						<path class="st7" d="M265.7,44.4h-6.6v7.4c0,0.2,0.1,0.3,0.3,0.3h6c0.2,0,0.3-0.1,0.3-0.3V44.4z"/>
						<path class="st8" d="M262.3,47.3c0.1,0,0.2-0.1,0.2-0.2v-1.6c0-0.1-0.1-0.2-0.2-0.2c-0.1,0-0.2,0.1-0.2,0.2v1.6
							C262.2,47.2,262.2,47.3,262.3,47.3 M263.1,50c0-0.4-0.3-0.7-0.7-0.7c-0.4,0-0.7,0.3-0.7,0.7c0,0.4,0.3,0.7,0.7,0.7
							C262.8,50.7,263.1,50.4,263.1,50z M263.5,50c0-0.6-0.5-1.1-1.1-1.1c-0.6,0-1.1,0.5-1.1,1.1c0,0.6,0.5,1.1,1.1,1.1
							C263,51.1,263.5,50.6,263.5,50z"/>
						<path class="st5" d="M270.2,39v17c0,0.5,0.4,1,1,1h12.3c0.5,0,1-0.4,1-1V39c0-0.5-0.4-1-1-1h-12.3
							C270.7,38,270.2,38.5,270.2,39z"/>
						<path class="st9" d="M271.6,43.7v7.7c0,0.4,0.2,0.8,0.5,1.1l3.1,2.9c0.3,0.3,0.7,0.4,1.1,0.4h5.2c0.9,0,1.6-0.7,1.6-1.6V40.7
							c0-0.9-0.7-1.6-1.6-1.6h-5.2c-0.4,0-0.8,0.1-1.1,0.4l-3.1,2.9C271.8,42.9,271.6,43.3,271.6,43.7z"/>
						<path class="st10" d="M277.5,52.5h3.1v-1h-3.1V52.5z M274.1,48h3.1v-1h-3.1V48z M277.5,43.5h3.1v-0.9h-3.1V43.5z"/>
					</g>
					<g>
						<rect x="242.8" y="57.6" class="st5" width="44.2" height="3.2"/>
						<rect x="208.6" y="56" class="st5" width="3.2" height="4.8"/>
						<rect x="159.4" y="57.6" class="st5" width="33.2" height="3.2"/>
						<path class="st7" d="M224.9,57.6c-0.7,0-1.3-0.1-1.9-0.2l-4.6-1.1c-0.6-0.2-1.3-0.3-1.9-0.3h-4.9c-0.2,0-0.3,0.1-0.3,0.3v4.2
							c0,0.1,0.1,0.3,0.3,0.3h31.2v-3.2H224.9z"/>
						<path class="st11" d="M213.9,60.3H241v-2.2h-16.1c-0.7,0-1.4-0.1-2.1-0.3l-4.6-1.1c-0.6-0.1-1.2-0.2-1.8-0.2h-2.6V60.3"/>
						<path class="st7" d="M203.9,57.6h-11.3v3.2h16.2c0.1,0,0.3-0.1,0.3-0.3v-4.2c0-0.2-0.1-0.3-0.3-0.3h-2.2
							c-0.2,0-0.3,0.1-0.5,0.2l-1.6,1.3C204.2,57.5,204,57.6,203.9,57.6z"/>
						<rect x="157" y="58.6" class="st5" width="4.8" height="2.2"/>
					</g>
				</g>
				<g>
					<path class="st12" d="M150,44h3v-3.6h-3l-1.4,1.8L150,44z M151.6,55.4l1.4-1.8l-1.4-1.8h-3v3.7H151.6z"/>
					<path class="st8" d="M150.8,53.5c0-0.5-0.4-1-1-1s-1,0.4-1,1c0,0.5,0.4,1,1,1S150.8,54.1,150.8,53.5 M150.6,53.7
						c-0.1,0.4-0.5,0.7-0.9,0.7c-0.4,0-0.6-0.3-0.7-0.6l0,0l0.7-0.4v0.9L150.6,53.7L150.6,53.7z M149,53.4c0-0.4,0.5-0.7,0.9-0.7
						c0.3,0.1,0.6,0.3,0.7,0.7l-0.7,0.4v-0.9L149,53.4L149,53.4z M151.5,42.2c0-0.5-0.4-1-1-1c-0.5,0-1,0.4-1,1c0,0.5,0.4,1,1,1
						C151.1,43.2,151.5,42.8,151.5,42.2z M151.3,42.4c0,0.4-0.5,0.7-0.9,0.7c-0.3,0-0.6-0.3-0.7-0.6l0,0l0.7-0.4v0.9L151.3,42.4
						L151.3,42.4z M149.7,42.1c0.1-0.4,0.5-0.7,0.9-0.7c0.4,0,0.6,0.3,0.7,0.6l-0.7,0.4v-0.9L149.7,42.1z"/>
					<g>
						<path class="st13" d="M152.5,43h-0.2v-1.2c0,0-0.1,0.1-0.2,0.1c-0.1,0-0.1,0.1-0.2,0.1v-0.2c0.1-0.1,0.2-0.1,0.3-0.2
							c0.1-0.1,0.1-0.1,0.2-0.2h0.1V43z"/>
					</g>
					<g>
						<path class="st13" d="M152.1,54.2v0.2h-1c0,0,0-0.1,0-0.1c0-0.1,0.1-0.1,0.1-0.2s0.1-0.1,0.3-0.2c0.2-0.1,0.3-0.2,0.3-0.3
							c0.1-0.1,0.1-0.2,0.1-0.2c0-0.1,0-0.1-0.1-0.2c-0.1-0.1-0.1-0.1-0.2-0.1c-0.1,0-0.2,0-0.2,0.1s-0.1,0.1-0.1,0.2l-0.2,0
							c0-0.1,0.1-0.3,0.2-0.3c0.1-0.1,0.2-0.1,0.4-0.1c0.2,0,0.3,0,0.4,0.1c0.1,0.1,0.1,0.2,0.1,0.3c0,0.1,0,0.1,0,0.2
							c0,0.1-0.1,0.1-0.1,0.2s-0.2,0.2-0.3,0.3c-0.1,0.1-0.2,0.2-0.2,0.2c0,0-0.1,0.1-0.1,0.1H152.1z"/>
					</g>
				</g>
				<rect x="14" y="10.7" class="st1" width="131.6" height="24.1"/>
				<g>
					<g>
						<polyline class="st12" points="150,18.7 153,18.7 153,15 150,15 148.6,16.8 150,18.7 						"/>
						<polygon class="st12" points="151.6,30 153,28.2 151.6,26.4 148.6,26.4 148.6,30 						"/>
						<g>
							<path class="st13" d="M152.5,17.8h-0.4l-0.2-0.4h-0.8l-0.2,0.4h-0.4l0.7-1.9h0.4L152.5,17.8z M151.8,17.1l-0.3-0.7l-0.3,0.7
								H151.8z"/>
						</g>
						<g>
							<path class="st13" d="M149.4,27.3h0.8c0.1,0,0.3,0,0.3,0c0.1,0,0.1,0,0.2,0.1s0.1,0.1,0.1,0.2c0,0.1,0.1,0.1,0.1,0.2
								c0,0.1,0,0.2-0.1,0.2c0,0.1-0.1,0.1-0.2,0.2c0.1,0,0.2,0.1,0.3,0.2c0.1,0.1,0.1,0.2,0.1,0.3c0,0.1,0,0.2-0.1,0.2
								s-0.1,0.1-0.2,0.2c-0.1,0-0.2,0.1-0.3,0.1c-0.1,0-0.2,0-0.5,0h-0.6V27.3z M149.8,27.6V28h0.2c0.1,0,0.2,0,0.3,0
								c0.1,0,0.1,0,0.2-0.1s0.1-0.1,0.1-0.1c0-0.1,0-0.1,0-0.1c0,0-0.1-0.1-0.1-0.1c0,0-0.1,0-0.3,0H149.8z M149.8,28.3v0.5h0.4
								c0.1,0,0.2,0,0.3,0c0.1,0,0.1,0,0.1-0.1c0,0,0.1-0.1,0.1-0.2c0-0.1,0-0.1,0-0.1c0,0-0.1-0.1-0.1-0.1c-0.1,0-0.2,0-0.3,0
								H149.8z"/>
						</g>
					</g>
				</g>
				<g>
					<rect x="155.6" y="10.7" class="st1" width="131.6" height="24.1"/>
				</g>
			</g>
			<g>
				<rect x="86.2" y="10.9" class="st14" width="59.1" height="19.6"/>
				<rect x="115.8" y="10.9" class="st15" width="21.5" height="15.2"/>
				<rect x="86.2" y="10.9" class="st16" width="29.4" height="15.2"/>
			</g>
			<rect x="14.2" y="10.9" class="st14" width="69.4" height="22.2"/>
			<path class="st17" d="M66.9,21.1h11.5c0.3,0,0.5-0.2,0.5-0.5v-5.4c0-0.3-0.2-0.5-0.5-0.5H66.9c-0.2,0-0.5,0.2-0.5,0.5v5.4
				C66.4,21,66.6,21.1,66.9,21.1z"/>
			<path class="st17" d="M52.8,20.4h8.4c0.2,0,0.5-0.2,0.5-0.5v-5.1c0-0.2-0.2-0.5-0.5-0.5h-8.4c-0.2,0-0.5,0.2-0.5,0.5V20
				C52.3,20.2,52.5,20.4,52.8,20.4z"/>
			<path class="st17" d="M20.6,20.6h11.5c0.2,0,0.5-0.2,0.5-0.5v-7.8c0-0.2-0.2-0.5-0.5-0.5H20.6c-0.2,0-0.5,0.2-0.5,0.5v7.8
				C20.1,20.4,20.3,20.6,20.6,20.6z"/>
			<path class="st17" d="M35.6,20.6h11.5c0.2,0,0.5-0.2,0.5-0.5v-7.8c0-0.2-0.2-0.5-0.5-0.5H35.6c-0.2,0-0.5,0.2-0.5,0.5v7.8
				C35.1,20.4,35.3,20.6,35.6,20.6z"/>
			<rect x="14.8" y="21.1" class="st15" width="46.7" height="10.8"/>
			<rect x="20" y="23.9" class="st18" width="9.1" height="5.9"/>
			<rect x="29.5" y="23.9" class="st18" width="9.1" height="5.9"/>
			<rect x="38.9" y="23.9" class="st18" width="9.1" height="5.9"/>
			<rect x="48.4" y="23.9" class="st18" width="9.1" height="5.9"/>
			<circle class="st19" cx="22.7" cy="22.4" r="0.6"/>
			<circle class="st19" cx="26.6" cy="22.4" r="0.6"/>
			<circle class="st19" cx="32.1" cy="22.4" r="0.6"/>
			<circle class="st19" cx="36.1" cy="22.4" r="0.6"/>
			<circle class="st19" cx="41.5" cy="22.4" r="0.6"/>
			<circle class="st19" cx="45.5" cy="22.4" r="0.6"/>
			<circle class="st19" cx="51" cy="22.4" r="0.6"/>
			<circle class="st19" cx="54.9" cy="22.4" r="0.6"/>
			<polygon class="st19" points="22.3,17.5 22.3,19.4 30.4,19.4 30.4,17.5 30.2,17.5 30.2,16.2 30.4,16.2 30.4,14.4 28.6,14.4 
				28.6,13.2 27.8,13.2 27.8,12.6 24.8,12.6 24.8,13.2 24,13.2 24,14.4 22.3,14.4 22.3,16.2 22.4,16.2 22.4,17.5 			"/>
			<polygon class="st19" points="37.2,17.5 37.2,19.4 45.3,19.4 45.3,17.5 45.1,17.5 45.1,16.2 45.3,16.2 45.3,14.4 43.5,14.4 
				43.5,13.2 42.8,13.2 42.8,12.6 39.8,12.6 39.8,13.2 39,13.2 39,14.4 37.2,14.4 37.2,16.2 37.4,16.2 37.4,17.5 			"/>
			<path class="st20" d="M54.8,18.8h4.4c0.6,0,1.1-0.5,1.1-1.1v-0.4c0-0.6-0.5-1.1-1.1-1.1h-4.4c-0.6,0-1.1,0.5-1.1,1.1v0.4
				C53.8,18.3,54.2,18.8,54.8,18.8z"/>
			<path class="st19" d="M76.6,16.2h-7.9c-0.1,0-0.2,0.1-0.2,0.2v3c0,0.1,0.1,0.2,0.2,0.2h7.9c0.1,0,0.2-0.1,0.2-0.2v-3
				C76.8,16.3,76.7,16.2,76.6,16.2z"/>
			<polygon class="st8" points="17,27 17.4,27 17.4,28.4 17.6,28.4 17.6,27.9 18,27.9 18,28.3 18.8,28.3 18.8,27.3 18,27.3 18,27.6 
				17.6,27.6 17.6,26.2 18,26.2 18,26.5 18.8,26.5 18.8,25.5 18,25.5 18,25.9 17.6,25.9 17.6,25.4 17.4,25.4 17.4,26.7 17,26.7 
				16.9,26.3 16.1,26.3 16.1,27.4 16.9,27.4 			"/>
			<path class="st21" d="M81.3,16.4v2.4l-0.5-0.5v-0.5c0.1-0.1,0.2-0.2,0.1-0.4c-0.1-0.1-0.2-0.2-0.4-0.1c-0.1,0.1-0.2,0.2-0.1,0.4
				c0,0.1,0.1,0.1,0.1,0.1v0.6l0.7,0.7v0.2c-0.2,0-0.4,0.2-0.3,0.5c0,0.2,0.2,0.4,0.5,0.3c0.2,0,0.4-0.2,0.3-0.5
				c0-0.1-0.1-0.2-0.3-0.3v-0.9l0.7-0.7v-0.5h0.2v-0.5h-0.5v0.5H82v0.4l-0.5,0.5v-1.7h0.2l-0.3-0.5l-0.2,0.5H81.3z"/>
			<path class="st21" d="M18.4,16.2h-1.7c-0.1-0.4-0.5-0.6-0.9-0.5c-0.1,0-0.1,0.1-0.2,0.1V16h0.4l0.2,0.5l-0.2,0.4h-0.4V17
				c0.3,0.2,0.7,0.2,1-0.1c0.1,0,0.1-0.1,0.1-0.2h1.7c0.1,0.4,0.5,0.5,0.8,0.4c0.1,0,0.1-0.1,0.2-0.1v-0.1H19l-0.2-0.4L19,16h0.4V16
				c-0.3-0.2-0.7-0.2-0.9,0.1C18.4,16.1,18.4,16.1,18.4,16.2z"/>
			<path class="st4" d="M90.2,23H97c0.1,0,0.1-0.1,0.1-0.1V16c0-0.1-0.1-0.2-0.1-0.2h-6.8C90,15.8,90,15.9,90,16v6.8
				C90,22.9,90,23,90.2,23"/>
			<path class="st4" d="M99.7,23h6.8c0.1,0,0.1-0.1,0.1-0.1V16c0-0.1-0.1-0.2-0.1-0.2h-6.8c-0.1,0-0.2,0.1-0.2,0.2v6.8
				C99.5,22.9,99.6,23,99.7,23"/>
			<path class="st4" d="M107.4,23h6.8c0.1,0,0.1-0.1,0.1-0.1V16c0-0.1-0.1-0.2-0.1-0.2h-6.8c-0.1,0-0.2,0.1-0.2,0.2v6.8
				C107.2,22.9,107.3,23,107.4,23"/>
			<g>
				<rect x="117.1" y="15.7" class="st19" width="9.1" height="5.9"/>
				<rect x="126.5" y="15.7" class="st19" width="9.1" height="5.9"/>
			</g>
			<circle class="st19" cx="92" cy="13.1" r="0.8"/>
			<circle class="st19" cx="95" cy="13.1" r="0.8"/>
			<circle class="st19" cx="101.8" cy="13.1" r="0.8"/>
			<circle class="st19" cx="104.8" cy="13.1" r="0.8"/>
			<circle class="st19" cx="108.9" cy="13.1" r="0.8"/>
			<circle class="st19" cx="111.9" cy="13.1" r="0.8"/>
			<g>
				<circle class="st19" cx="119.7" cy="13.1" r="0.8"/>
				<circle class="st19" cx="124.2" cy="13.1" r="0.8"/>
			</g>
			<g>
				<circle class="st19" cx="129" cy="13.1" r="0.8"/>
				<circle class="st19" cx="133.6" cy="13.1" r="0.8"/>
			</g>
			<g>
				<path class="st22" d="M80.8,30.4v2.7H17.6v1h63.3v0.8h64.5v-3.2H87V30h-5.9C81,30,80.8,30.2,80.8,30.4z"/>
				<path class="st22" d="M84.5,31.6H70.6c-0.1,0-0.3,0.1-0.4,0.2l-1.9,1.9c-0.1,0.1-0.3,0.2-0.5,0.2H20.9c-0.1,0-0.3-0.1-0.4-0.2
					l-1.9-1.9c-0.1-0.1-0.3-0.2-0.5-0.2h-3.3v1h-2.5v2.2h72.2V31.6z"/>
				<path class="st7" d="M94.6,30H84.5v4.8h21v-3.2h-2.2c-0.4,0-0.8-0.1-1.2-0.1l-6.2-1.4C95.4,30.1,95,30,94.6,30z"/>
				<path class="st11" d="M103.4,32.2h-2.3c-0.7,0-1.3-0.1-2-0.2l-4.3-1c-0.6-0.1-1.1-0.2-1.7-0.2h-2.5v3.3h12.8V32.2"/>
			</g>
			<g>
				<rect x="51.6" y="16.5" class="st13" width="0.1" height="1.2"/>
				<path class="st23" d="M51.3,17.1c0,0.3-0.2,0.5-0.5,0.5c-0.3,0-0.5-0.2-0.5-0.5c0-0.3,0.2-0.5,0.5-0.5
					C51.1,16.6,51.3,16.8,51.3,17.1z"/>
				<rect x="49.9" y="16.5" class="st13" width="0.1" height="1.2"/>
				<path class="st23" d="M49.5,17.1c0,0.3-0.2,0.5-0.5,0.5c-0.3,0-0.5-0.2-0.5-0.5c0-0.3,0.2-0.5,0.5-0.5
					C49.3,16.6,49.5,16.8,49.5,17.1z"/>
				<rect x="48.1" y="16.5" class="st13" width="0.1" height="1.2"/>
			</g>
			<g>
				<rect x="228.1" y="10.9" class="st14" width="59.1" height="19.6"/>
				<rect x="257.6" y="10.9" class="st15" width="21.5" height="15.2"/>
				<rect x="228.1" y="10.9" class="st16" width="29.4" height="15.2"/>
			</g>
			<rect x="156.1" y="10.9" class="st14" width="69.4" height="22.2"/>
			<path class="st17" d="M208.7,21.1h11.5c0.3,0,0.5-0.2,0.5-0.5v-5.4c0-0.3-0.2-0.5-0.5-0.5h-11.5c-0.2,0-0.5,0.2-0.5,0.5v5.4
				C208.3,21,208.5,21.1,208.7,21.1z"/>
			<path class="st17" d="M194.6,20.4h8.4c0.2,0,0.5-0.2,0.5-0.5v-5.1c0-0.2-0.2-0.5-0.5-0.5h-8.4c-0.2,0-0.5,0.2-0.5,0.5V20
				C194.2,20.2,194.4,20.4,194.6,20.4z"/>
			<path class="st17" d="M162.4,20.6H174c0.2,0,0.5-0.2,0.5-0.5v-7.8c0-0.2-0.2-0.5-0.5-0.5h-11.5c-0.2,0-0.5,0.2-0.5,0.5v7.8
				C162,20.4,162.2,20.6,162.4,20.6z"/>
			<path class="st17" d="M177.4,20.6H189c0.2,0,0.5-0.2,0.5-0.5v-7.8c0-0.2-0.2-0.5-0.5-0.5h-11.5c-0.2,0-0.5,0.2-0.5,0.5v7.8
				C177,20.4,177.2,20.6,177.4,20.6z"/>
			<rect x="156.7" y="21.1" class="st15" width="46.7" height="10.8"/>
			<rect x="161.9" y="23.9" class="st18" width="9.1" height="5.9"/>
			<rect x="171.3" y="23.9" class="st18" width="9.1" height="5.9"/>
			<rect x="180.8" y="23.9" class="st18" width="9.1" height="5.9"/>
			<rect x="190.3" y="23.9" class="st18" width="9.1" height="5.9"/>
			<circle class="st19" cx="168.5" cy="22.4" r="0.6"/>
			<circle class="st19" cx="174" cy="22.4" r="0.6"/>
			<circle class="st19" cx="177.9" cy="22.4" r="0.6"/>
			<circle class="st19" cx="183.4" cy="22.4" r="0.6"/>
			<circle class="st19" cx="187.3" cy="22.4" r="0.6"/>
			<circle class="st19" cx="192.8" cy="22.4" r="0.6"/>
			<circle class="st19" cx="196.8" cy="22.4" r="0.6"/>
			<polygon class="st19" points="164.1,17.5 164.1,19.4 172.2,19.4 172.2,17.5 172,17.5 172,16.2 172.2,16.2 172.2,14.4 170.4,14.4 
				170.4,13.2 169.7,13.2 169.7,12.6 166.7,12.6 166.7,13.2 165.9,13.2 165.9,14.4 164.1,14.4 164.1,16.2 164.3,16.2 164.3,17.5 			
				"/>
			<polygon class="st19" points="179.1,17.5 179.1,19.4 187.2,19.4 187.2,17.5 187,17.5 187,16.2 187.2,16.2 187.2,14.4 185.4,14.4 
				185.4,13.2 184.6,13.2 184.6,12.6 181.6,12.6 181.6,13.2 180.9,13.2 180.9,14.4 179.1,14.4 179.1,16.2 179.2,16.2 179.2,17.5 			
				"/>
			<path class="st20" d="M196.7,18.8h4.4c0.6,0,1.1-0.5,1.1-1.1v-0.4c0-0.6-0.5-1.1-1.1-1.1h-4.4c-0.6,0-1.1,0.5-1.1,1.1v0.4
				C195.6,18.3,196.1,18.8,196.7,18.8z"/>
			<path class="st19" d="M218.5,16.2h-7.9c-0.1,0-0.2,0.1-0.2,0.2v3c0,0.1,0.1,0.2,0.2,0.2h7.9c0.1,0,0.2-0.1,0.2-0.2v-3
				C218.7,16.3,218.6,16.2,218.5,16.2z"/>
			<path class="st21" d="M223.1,16.4v2.4l-0.5-0.5v-0.5c0.1-0.1,0.2-0.2,0.1-0.4c-0.1-0.1-0.2-0.2-0.4-0.1c-0.1,0.1-0.2,0.2-0.1,0.4
				c0,0.1,0.1,0.1,0.1,0.1v0.6l0.7,0.7v0.2c-0.2,0-0.4,0.2-0.3,0.5c0,0.2,0.2,0.4,0.5,0.3c0.2,0,0.4-0.2,0.3-0.5
				c0-0.1-0.1-0.2-0.3-0.3v-0.9l0.7-0.7v-0.5h0.2v-0.5h-0.5v0.5h0.2v0.4l-0.5,0.5v-1.7h0.2l-0.3-0.5l-0.2,0.5H223.1z"/>
			<path class="st4" d="M232,23h6.8c0.1,0,0.1-0.1,0.1-0.1V16c0-0.1-0.1-0.2-0.1-0.2H232c-0.1,0-0.2,0.1-0.2,0.2v6.8
				C231.8,22.9,231.9,23,232,23"/>
			<path class="st4" d="M241.5,23h6.8c0.1,0,0.1-0.1,0.1-0.1V16c0-0.1-0.1-0.2-0.1-0.2h-6.8c-0.1,0-0.2,0.1-0.2,0.2v6.8
				C241.4,22.9,241.4,23,241.5,23"/>
			<path class="st4" d="M249.3,23h6.8c0.1,0,0.1-0.1,0.1-0.1V16c0-0.1-0.1-0.2-0.1-0.2h-6.8c-0.1,0-0.2,0.1-0.2,0.2v6.8
				C249.1,22.9,249.2,23,249.3,23"/>
			<g>
				<rect x="259" y="15.7" class="st19" width="9.1" height="5.9"/>
				<rect x="268.4" y="15.7" class="st19" width="9.1" height="5.9"/>
			</g>
			<circle class="st19" cx="233.9" cy="13.1" r="0.8"/>
			<circle class="st19" cx="236.9" cy="13.1" r="0.8"/>
			<circle class="st19" cx="243.7" cy="13.1" r="0.8"/>
			<circle class="st19" cx="246.7" cy="13.1" r="0.8"/>
			<circle class="st19" cx="250.8" cy="13.1" r="0.8"/>
			<circle class="st19" cx="253.8" cy="13.1" r="0.8"/>
			<g>
				<circle class="st19" cx="261.5" cy="13.1" r="0.8"/>
				<circle class="st19" cx="266.1" cy="13.1" r="0.8"/>
			</g>
			<g>
				<circle class="st19" cx="270.8" cy="13.1" r="0.8"/>
				<circle class="st19" cx="275.4" cy="13.1" r="0.8"/>
			</g>
			<g>
				<path class="st22" d="M222.7,30.4v2.7h-63.3v1h63.3v0.8h64.5v-3.2h-58.3V30H223C222.8,30,222.7,30.2,222.7,30.4z"/>
				<path class="st22" d="M226.4,31.6h-13.9c-0.1,0-0.3,0.1-0.4,0.2l-1.9,1.9c-0.1,0.1-0.3,0.2-0.5,0.2h-46.9
					c-0.1,0-0.3-0.1-0.4-0.2l-1.9-1.9c-0.1-0.1-0.3-0.2-0.5-0.2h-3.3v1h-2.5v2.2h72.2V31.6z"/>
				<path class="st7" d="M236.5,30h-10.1v4.8h21v-3.2h-2.2c-0.4,0-0.8-0.1-1.2-0.1l-6.2-1.4C237.3,30.1,236.9,30,236.5,30z"/>
				<path class="st11" d="M245.3,32.2H243c-0.7,0-1.3-0.1-2-0.2l-4.3-1c-0.6-0.1-1.1-0.2-1.7-0.2h-2.5v3.3h12.8V32.2"/>
			</g>
			<g>
				<rect x="193.5" y="16.5" class="st13" width="0.1" height="1.2"/>
				<path class="st23" d="M193.1,17.1c0,0.3-0.2,0.5-0.5,0.5s-0.5-0.2-0.5-0.5c0-0.3,0.2-0.5,0.5-0.5S193.1,16.8,193.1,17.1z"/>
				<rect x="191.7" y="16.5" class="st13" width="0.1" height="1.2"/>
				<path class="st23" d="M191.4,17.1c0,0.3-0.2,0.5-0.5,0.5c-0.3,0-0.5-0.2-0.5-0.5c0-0.3,0.2-0.5,0.5-0.5
					C191.2,16.6,191.4,16.8,191.4,17.1z"/>
				<rect x="190" y="16.5" class="st13" width="0.1" height="1.2"/>
			</g>
			<path class="st21" d="M159.8,16.2H158c-0.1-0.4-0.5-0.6-0.9-0.5c-0.1,0-0.1,0.1-0.2,0.1V16h0.4l0.2,0.5l-0.2,0.4h-0.4V17
				c0.3,0.2,0.7,0.2,1-0.1c0.1,0,0.1-0.1,0.1-0.2h1.7c0.1,0.4,0.5,0.5,0.8,0.4c0.1,0,0.1-0.1,0.2-0.1v-0.1h-0.4l-0.2-0.4l0.2-0.4
				h0.4V16c-0.3-0.2-0.7-0.2-0.9,0.1C159.8,16.1,159.8,16.1,159.8,16.2z"/>
			<polygon class="st8" points="158.8,27 159.2,27 159.2,28.4 159.4,28.4 159.4,27.9 159.8,27.9 159.8,28.3 160.6,28.3 160.6,27.3 
				159.8,27.3 159.8,27.6 159.4,27.6 159.4,26.2 159.8,26.2 159.8,26.5 160.6,26.5 160.6,25.5 159.8,25.5 159.8,25.9 159.4,25.9 
				159.4,25.4 159.2,25.4 159.2,26.7 158.8,26.7 158.8,26.3 158,26.3 158,27.4 158.8,27.4 			"/>
		</g>
	</g>
	<g>
		<g>
			<g>
				<polyline class="st24" points="24.6,28.4 24.6,90.9 70.2,90.9 				"/>
			</g>
		</g>
		<g>
			<g>
				<polyline class="st24" points="34.1,28.4 34.1,85.3 70.2,85.3 				"/>
			</g>
		</g>
		<g>
			<g>
				<polyline class="st24" points="43.6,28.4 43.6,79.4 70.2,79.4 				"/>
			</g>
		</g>
		<g>
			<g>
				<polyline class="st24" points="53,28.4 53,73.8 70.2,73.8 				"/>
			</g>
			<circle class="st25" cx="70.2" cy="73.8" r="1.9"/>
			<circle class="st25" cx="70.2" cy="79.4" r="1.9"/>
			<circle class="st25" cx="70.2" cy="85.3" r="1.9"/>
			<circle class="st25" cx="70.2" cy="90.8" r="1.9"/>
		</g>
	</g>
	<g>
		<g>
			<g>
				<polyline class="st24" points="194.9,28.4 194.9,90.9 150,90.9 				"/>
			</g>
		</g>
		<g>
			<g>
				<polyline class="st24" points="185.4,28.4 185.4,85.3 150,85.3 				"/>
			</g>
		</g>
		<g>
			<g>
				<polyline class="st24" points="175.9,28.4 175.9,79.4 150,79.4 				"/>
			</g>
		</g>
		<g>
			<g>
				<polyline class="st24" points="166.5,28.4 166.5,73.8 150,73.8 				"/>
			</g>
			<circle class="st25" cx="149.9" cy="73.8" r="1.9"/>
			<circle class="st25" cx="149.9" cy="79.4" r="1.9"/>
			<circle class="st25" cx="149.9" cy="85.3" r="1.9"/>
			<circle class="st25" cx="149.9" cy="90.8" r="1.9"/>
		</g>
	</g>
	<g>
		<g>
			<g>
				<g>
					<path class="st25" d="M75.7,83.5H92V73c0-0.1-0.1-0.2-0.2-0.2H75.9c-0.1,0-0.2,0.1-0.2,0.2V83.5z"/>
				</g>
				<g>
					<path class="st13" d="M81.3,80.3l1-0.9c0.4,0.5,0.9,0.8,1.6,0.8c0.5,0,0.9-0.3,0.9-0.8v0c0-0.5-0.5-0.8-1.3-0.8h-0.6l-0.2-0.9
						l1.5-1.5h-2.5v-1.2H86v1.1l-1.6,1.6c0.9,0.1,1.7,0.6,1.7,1.8v0c0,1.2-0.9,2.1-2.3,2.1C82.7,81.4,81.9,81,81.3,80.3z"/>
				</g>
			</g>
		</g>
		<g>
			<g>
				<g>
					<g>
						<path class="st25" d="M96.5,74.4v-0.8h3.5v0.8h-1.3v3.5h-0.9v-3.5H96.5z"/>
						<path class="st25" d="M99.8,75.7c0.1-0.2,0.2-0.4,0.3-0.5c0.1-0.1,0.3-0.3,0.5-0.3s0.4-0.1,0.7-0.1c0.2,0,0.5,0,0.7,0.1
							c0.2,0.1,0.4,0.2,0.5,0.3c0.1,0.1,0.2,0.3,0.3,0.5c0.1,0.2,0.1,0.4,0.1,0.7s0,0.5-0.1,0.7c-0.1,0.2-0.2,0.4-0.3,0.5
							c-0.1,0.1-0.3,0.3-0.5,0.3c-0.2,0.1-0.4,0.1-0.7,0.1c-0.2,0-0.5,0-0.7-0.1s-0.4-0.2-0.5-0.3c-0.1-0.1-0.2-0.3-0.3-0.5
							c-0.1-0.2-0.1-0.4-0.1-0.7S99.7,75.9,99.8,75.7z M100.6,76.7c0,0.1,0.1,0.2,0.1,0.3c0.1,0.1,0.1,0.2,0.2,0.2
							c0.1,0.1,0.2,0.1,0.4,0.1s0.3,0,0.4-0.1c0.1-0.1,0.2-0.1,0.2-0.2c0.1-0.1,0.1-0.2,0.1-0.3c0-0.1,0-0.2,0-0.4s0-0.2,0-0.4
							c0-0.1-0.1-0.2-0.1-0.3c-0.1-0.1-0.1-0.2-0.2-0.2s-0.2-0.1-0.4-0.1s-0.3,0-0.4,0.1c-0.1,0.1-0.2,0.1-0.2,0.2
							c-0.1,0.1-0.1,0.2-0.1,0.3c0,0.1,0,0.2,0,0.4S100.5,76.6,100.6,76.7z"/>
						<path class="st25" d="M107.3,77.5c-0.1,0.2-0.2,0.3-0.4,0.4c-0.2,0.1-0.3,0.1-0.5,0.1c-0.2,0-0.4,0-0.6-0.1
							c-0.2-0.1-0.3-0.2-0.4-0.4c-0.1-0.2-0.2-0.3-0.3-0.5c-0.1-0.2-0.1-0.4-0.1-0.6c0-0.2,0-0.4,0.1-0.6c0.1-0.2,0.1-0.4,0.3-0.5
							c0.1-0.1,0.3-0.3,0.4-0.4s0.4-0.1,0.6-0.1c0.2,0,0.4,0,0.5,0.1s0.3,0.2,0.4,0.3h0v-1.6h0.9v4.3h-0.8L107.3,77.5L107.3,77.5z
							 M107.3,76c0-0.1-0.1-0.2-0.1-0.3c-0.1-0.1-0.1-0.2-0.2-0.2c-0.1-0.1-0.2-0.1-0.3-0.1s-0.3,0-0.4,0.1
							c-0.1,0.1-0.2,0.1-0.2,0.2c-0.1,0.1-0.1,0.2-0.1,0.3s0,0.2,0,0.4c0,0.1,0,0.2,0,0.4s0.1,0.2,0.1,0.3s0.1,0.2,0.2,0.2
							c0.1,0.1,0.2,0.1,0.3,0.1c0.1,0,0.3,0,0.4-0.1c0.1-0.1,0.2-0.1,0.2-0.2c0.1-0.1,0.1-0.2,0.1-0.3c0-0.1,0-0.2,0-0.4
							S107.3,76.1,107.3,76z"/>
						<path class="st25" d="M108.7,75.8c0-0.2,0.1-0.4,0.1-0.5c0.1-0.1,0.2-0.2,0.3-0.3c0.1-0.1,0.3-0.1,0.5-0.2s0.3-0.1,0.5-0.1
							c0.2,0,0.3,0,0.5,0c0.2,0,0.3,0.1,0.4,0.1c0.1,0.1,0.2,0.2,0.3,0.3s0.1,0.3,0.1,0.5v1.6c0,0.1,0,0.3,0,0.4
							c0,0.1,0,0.2,0.1,0.3h-0.9c0,0,0-0.1,0-0.1c0,0,0-0.1,0-0.2c-0.1,0.1-0.3,0.2-0.5,0.3s-0.4,0.1-0.6,0.1c-0.1,0-0.3,0-0.4-0.1
							c-0.1,0-0.2-0.1-0.3-0.2c-0.1-0.1-0.2-0.2-0.2-0.3c-0.1-0.1-0.1-0.3-0.1-0.4c0-0.2,0-0.3,0.1-0.4c0.1-0.1,0.1-0.2,0.2-0.3
							c0.1-0.1,0.2-0.1,0.3-0.2s0.3-0.1,0.4-0.1c0.1,0,0.3,0,0.4,0s0.2,0,0.3-0.1c0.1,0,0.2-0.1,0.2-0.1c0.1,0,0.1-0.1,0.1-0.2
							c0-0.1,0-0.2,0-0.2c0-0.1-0.1-0.1-0.1-0.1c0,0-0.1,0-0.2-0.1c-0.1,0-0.1,0-0.2,0c-0.2,0-0.3,0-0.4,0.1
							c-0.1,0.1-0.2,0.2-0.2,0.4H108.7z M110.7,76.4c0,0-0.1,0.1-0.1,0.1c-0.1,0-0.1,0-0.2,0c-0.1,0-0.1,0-0.2,0s-0.1,0-0.2,0
							c-0.1,0-0.1,0-0.2,0c-0.1,0-0.1,0-0.2,0.1c0,0-0.1,0.1-0.1,0.1s0,0.1,0,0.2c0,0.1,0,0.1,0,0.2c0,0.1,0.1,0.1,0.1,0.1
							c0,0,0.1,0.1,0.2,0.1s0.1,0,0.2,0c0.2,0,0.3,0,0.4-0.1c0.1-0.1,0.2-0.1,0.2-0.2c0-0.1,0.1-0.2,0.1-0.2c0-0.1,0-0.1,0-0.2V76.4
							z"/>
						<path class="st25" d="M113.9,74.8v0.6h-0.6v1.5c0,0.1,0,0.2,0.1,0.3s0.1,0.1,0.3,0.1c0,0,0.1,0,0.1,0s0.1,0,0.1,0v0.7
							c-0.1,0-0.2,0-0.2,0c-0.1,0-0.2,0-0.3,0c-0.1,0-0.3,0-0.4,0c-0.1,0-0.2-0.1-0.3-0.1c-0.1-0.1-0.2-0.1-0.2-0.2
							c-0.1-0.1-0.1-0.2-0.1-0.4v-1.8h-0.5v-0.6h0.5v-0.9h0.9v0.9H113.9z"/>
						<path class="st25" d="M114.3,75.8c0-0.2,0.1-0.4,0.1-0.5c0.1-0.1,0.2-0.2,0.3-0.3c0.1-0.1,0.3-0.1,0.5-0.2s0.3-0.1,0.5-0.1
							c0.2,0,0.3,0,0.5,0c0.2,0,0.3,0.1,0.4,0.1c0.1,0.1,0.2,0.2,0.3,0.3s0.1,0.3,0.1,0.5v1.6c0,0.1,0,0.3,0,0.4
							c0,0.1,0,0.2,0.1,0.3h-0.9c0,0,0-0.1,0-0.1c0,0,0-0.1,0-0.2c-0.1,0.1-0.3,0.2-0.5,0.3s-0.4,0.1-0.6,0.1c-0.1,0-0.3,0-0.4-0.1
							c-0.1,0-0.2-0.1-0.3-0.2c-0.1-0.1-0.2-0.2-0.2-0.3c-0.1-0.1-0.1-0.3-0.1-0.4c0-0.2,0-0.3,0.1-0.4c0.1-0.1,0.1-0.2,0.2-0.3
							c0.1-0.1,0.2-0.1,0.3-0.2s0.3-0.1,0.4-0.1c0.1,0,0.3,0,0.4,0s0.2,0,0.3-0.1c0.1,0,0.2-0.1,0.2-0.1c0.1,0,0.1-0.1,0.1-0.2
							c0-0.1,0-0.2,0-0.2c0-0.1-0.1-0.1-0.1-0.1c0,0-0.1,0-0.2-0.1c-0.1,0-0.1,0-0.2,0c-0.2,0-0.3,0-0.4,0.1
							c-0.1,0.1-0.2,0.2-0.2,0.4H114.3z M116.3,76.4c0,0-0.1,0.1-0.1,0.1c-0.1,0-0.1,0-0.2,0c-0.1,0-0.1,0-0.2,0s-0.1,0-0.2,0
							c-0.1,0-0.1,0-0.2,0c-0.1,0-0.1,0-0.2,0.1c0,0-0.1,0.1-0.1,0.1s0,0.1,0,0.2c0,0.1,0,0.1,0,0.2c0,0.1,0.1,0.1,0.1,0.1
							c0,0,0.1,0.1,0.2,0.1s0.1,0,0.2,0c0.2,0,0.3,0,0.4-0.1c0.1-0.1,0.2-0.1,0.2-0.2c0-0.1,0.1-0.2,0.1-0.2c0-0.1,0-0.1,0-0.2V76.4
							z"/>
						<path class="st25" d="M120.3,74.8v0.4h0c0.1-0.2,0.2-0.3,0.4-0.4c0.2-0.1,0.3-0.1,0.5-0.1c0.2,0,0.4,0,0.6,0.1
							c0.1,0.1,0.3,0.1,0.3,0.3s0.1,0.2,0.2,0.4c0,0.2,0.1,0.3,0.1,0.5v1.9h-0.9v-1.8c0-0.3,0-0.4-0.1-0.6c-0.1-0.1-0.2-0.2-0.4-0.2
							c-0.2,0-0.4,0.1-0.5,0.2c-0.1,0.1-0.2,0.4-0.2,0.7v1.6h-0.9v-3.1H120.3z"/>
						<path class="st25" d="M123.9,77.2c0.1,0.1,0.3,0.2,0.6,0.2c0.2,0,0.3,0,0.4-0.1c0.1-0.1,0.2-0.2,0.2-0.3h0.8
							c-0.1,0.4-0.3,0.6-0.6,0.8c-0.2,0.2-0.5,0.2-0.9,0.2c-0.2,0-0.5,0-0.7-0.1c-0.2-0.1-0.4-0.2-0.5-0.3c-0.1-0.1-0.2-0.3-0.3-0.5
							c-0.1-0.2-0.1-0.4-0.1-0.7c0-0.2,0-0.4,0.1-0.6c0.1-0.2,0.2-0.4,0.3-0.5c0.1-0.1,0.3-0.3,0.5-0.3c0.2-0.1,0.4-0.1,0.6-0.1
							c0.3,0,0.5,0.1,0.7,0.2c0.2,0.1,0.4,0.2,0.5,0.4s0.2,0.4,0.3,0.6c0.1,0.2,0.1,0.5,0.1,0.7h-2.2
							C123.7,76.9,123.8,77.1,123.9,77.2z M124.9,75.6c-0.1-0.1-0.3-0.2-0.5-0.2c-0.1,0-0.2,0-0.3,0.1s-0.2,0.1-0.2,0.2
							c-0.1,0.1-0.1,0.1-0.1,0.2s0,0.1,0,0.2h1.4C125.1,75.8,125,75.7,124.9,75.6z"/>
						<path class="st25" d="M128.2,74.8v0.6h-0.6v1.5c0,0.1,0,0.2,0.1,0.3s0.1,0.1,0.3,0.1c0,0,0.1,0,0.1,0c0,0,0.1,0,0.1,0v0.7
							c-0.1,0-0.2,0-0.2,0c-0.1,0-0.2,0-0.3,0c-0.1,0-0.3,0-0.4,0c-0.1,0-0.2-0.1-0.3-0.1c-0.1-0.1-0.2-0.1-0.2-0.2
							c-0.1-0.1-0.1-0.2-0.1-0.4v-1.8h-0.5v-0.6h0.5v-0.9h0.9v0.9H128.2z"/>
						<path class="st25" d="M131.2,77.9l-0.6-2.1h0l-0.5,2.1h-0.9l-1-3.1h0.9l0.6,2.1h0l0.5-2.1h0.8l0.5,2.1h0l0.6-2.1h0.9l-1,3.1
							H131.2z"/>
						<path class="st25" d="M133.5,75.7c0.1-0.2,0.2-0.4,0.3-0.5c0.1-0.1,0.3-0.3,0.5-0.3c0.2-0.1,0.4-0.1,0.7-0.1s0.5,0,0.7,0.1
							s0.4,0.2,0.5,0.3c0.1,0.1,0.2,0.3,0.3,0.5s0.1,0.4,0.1,0.7s0,0.5-0.1,0.7s-0.2,0.4-0.3,0.5c-0.1,0.1-0.3,0.3-0.5,0.3
							S135.2,78,135,78s-0.5,0-0.7-0.1c-0.2-0.1-0.4-0.2-0.5-0.3c-0.1-0.1-0.2-0.3-0.3-0.5s-0.1-0.4-0.1-0.7S133.4,75.9,133.5,75.7z
							 M134.2,76.7c0,0.1,0.1,0.2,0.1,0.3c0.1,0.1,0.1,0.2,0.2,0.2c0.1,0.1,0.2,0.1,0.4,0.1c0.1,0,0.3,0,0.4-0.1
							c0.1-0.1,0.2-0.1,0.2-0.2c0.1-0.1,0.1-0.2,0.1-0.3c0-0.1,0-0.2,0-0.4s0-0.2,0-0.4c0-0.1-0.1-0.2-0.1-0.3
							c-0.1-0.1-0.1-0.2-0.2-0.2c-0.1-0.1-0.2-0.1-0.4-0.1c-0.1,0-0.3,0-0.4,0.1c-0.1,0.1-0.2,0.1-0.2,0.2c-0.1,0.1-0.1,0.2-0.1,0.3
							c0,0.1,0,0.2,0,0.4S134.2,76.6,134.2,76.7z"/>
						<path class="st25" d="M137.9,74.8v0.6h0c0-0.1,0.1-0.2,0.2-0.3c0.1-0.1,0.1-0.2,0.2-0.2s0.2-0.1,0.3-0.1c0.1,0,0.2,0,0.3,0
							c0.1,0,0.1,0,0.2,0v0.8c0,0-0.1,0-0.1,0c-0.1,0-0.1,0-0.2,0c-0.2,0-0.3,0-0.4,0.1c-0.1,0.1-0.2,0.1-0.3,0.2
							c-0.1,0.1-0.1,0.2-0.1,0.3c0,0.1,0,0.2,0,0.4v1.4h-0.9v-3.1H137.9z"/>
						<path class="st25" d="M140.4,73.6v2.3l1.1-1.1h1l-1.2,1.1l1.3,2h-1l-0.9-1.4l-0.3,0.3v1.1h-0.9v-4.3H140.4z"/>
						<path class="st25" d="M143.9,77v0.9c0,0.1,0,0.3-0.1,0.4c-0.1,0.1-0.1,0.2-0.2,0.3s-0.2,0.2-0.3,0.2c-0.1,0.1-0.2,0.1-0.4,0.1
							v-0.4c0.1,0,0.1,0,0.2-0.1s0.1-0.1,0.1-0.1c0-0.1,0.1-0.1,0.1-0.2c0-0.1,0-0.1,0-0.2h-0.4V77H143.9z"/>
						<path class="st25" d="M97.6,80.7v0.4h0c0.1-0.2,0.2-0.3,0.4-0.4c0.2-0.1,0.3-0.1,0.5-0.1c0.2,0,0.4,0,0.5,0.1
							c0.2,0.1,0.3,0.2,0.4,0.4c0.1-0.1,0.2-0.3,0.4-0.4c0.2-0.1,0.3-0.2,0.6-0.2c0.2,0,0.3,0,0.5,0.1c0.1,0,0.3,0.1,0.4,0.2
							s0.2,0.2,0.2,0.3s0.1,0.3,0.1,0.5v2.1h-0.9v-1.8c0-0.1,0-0.2,0-0.3c0-0.1,0-0.2-0.1-0.2c0-0.1-0.1-0.1-0.2-0.2
							s-0.2-0.1-0.3-0.1c-0.1,0-0.2,0-0.3,0.1c-0.1,0-0.1,0.1-0.2,0.2c0,0.1-0.1,0.2-0.1,0.3c0,0.1,0,0.2,0,0.3v1.7h-0.9v-1.7
							c0-0.1,0-0.2,0-0.3c0-0.1,0-0.2-0.1-0.2c0-0.1-0.1-0.1-0.1-0.2s-0.2-0.1-0.3-0.1c0,0-0.1,0-0.2,0c-0.1,0-0.1,0.1-0.2,0.1
							s-0.1,0.1-0.2,0.2s-0.1,0.2-0.1,0.4v1.8h-0.9v-3.1H97.6z"/>
						<path class="st25" d="M103.1,83.1c0.1,0.1,0.3,0.2,0.6,0.2c0.2,0,0.3,0,0.4-0.1c0.1-0.1,0.2-0.2,0.2-0.3h0.8
							c-0.1,0.4-0.3,0.6-0.6,0.8c-0.2,0.2-0.5,0.2-0.9,0.2c-0.2,0-0.5,0-0.7-0.1c-0.2-0.1-0.4-0.2-0.5-0.3c-0.1-0.1-0.2-0.3-0.3-0.5
							c-0.1-0.2-0.1-0.4-0.1-0.7c0-0.2,0-0.4,0.1-0.6c0.1-0.2,0.2-0.4,0.3-0.5c0.1-0.1,0.3-0.3,0.5-0.3c0.2-0.1,0.4-0.1,0.6-0.1
							c0.3,0,0.5,0.1,0.7,0.2c0.2,0.1,0.4,0.2,0.5,0.4s0.2,0.4,0.3,0.6c0.1,0.2,0.1,0.5,0.1,0.7h-2.2C102.9,82.8,103,83,103.1,83.1z
							 M104.1,81.5c-0.1-0.1-0.3-0.2-0.5-0.2c-0.1,0-0.2,0-0.3,0.1s-0.2,0.1-0.2,0.2c-0.1,0.1-0.1,0.1-0.1,0.2s0,0.1,0,0.2h1.4
							C104.3,81.7,104.2,81.6,104.1,81.5z"/>
						<path class="st25" d="M107.1,81.4h-1.5v-0.6h2.6v0.6l-1.6,1.8h1.7v0.6h-2.9v-0.6L107.1,81.4z"/>
						<path class="st25" d="M110.2,81.4h-1.5v-0.6h2.6v0.6l-1.6,1.8h1.7v0.6h-2.9v-0.6L110.2,81.4z"/>
						<path class="st25" d="M111.9,81.7c0-0.2,0.1-0.4,0.1-0.5c0.1-0.1,0.2-0.2,0.3-0.3c0.1-0.1,0.3-0.1,0.5-0.2s0.3-0.1,0.5-0.1
							c0.2,0,0.3,0,0.5,0c0.2,0,0.3,0.1,0.4,0.1c0.1,0.1,0.2,0.2,0.3,0.3s0.1,0.3,0.1,0.5v1.6c0,0.1,0,0.3,0,0.4
							c0,0.1,0,0.2,0.1,0.3h-0.9c0,0,0-0.1,0-0.1c0,0,0-0.1,0-0.2c-0.1,0.1-0.3,0.2-0.5,0.3s-0.4,0.1-0.6,0.1c-0.1,0-0.3,0-0.4-0.1
							c-0.1,0-0.2-0.1-0.3-0.2c-0.1-0.1-0.2-0.2-0.2-0.3c-0.1-0.1-0.1-0.3-0.1-0.4c0-0.2,0-0.3,0.1-0.4c0.1-0.1,0.1-0.2,0.2-0.3
							c0.1-0.1,0.2-0.1,0.3-0.2s0.3-0.1,0.4-0.1c0.1,0,0.3,0,0.4,0s0.2,0,0.3-0.1c0.1,0,0.2-0.1,0.2-0.1c0.1,0,0.1-0.1,0.1-0.2
							c0-0.1,0-0.2,0-0.2c0-0.1-0.1-0.1-0.1-0.1c0,0-0.1,0-0.2-0.1c-0.1,0-0.1,0-0.2,0c-0.2,0-0.3,0-0.4,0.1
							c-0.1,0.1-0.2,0.2-0.2,0.4H111.9z M113.8,82.3c0,0-0.1,0.1-0.1,0.1c-0.1,0-0.1,0-0.2,0c-0.1,0-0.1,0-0.2,0s-0.1,0-0.2,0
							c-0.1,0-0.1,0-0.2,0c-0.1,0-0.1,0-0.2,0.1c0,0-0.1,0.1-0.1,0.1s0,0.1,0,0.2c0,0.1,0,0.1,0,0.2c0,0.1,0.1,0.1,0.1,0.1
							c0,0,0.1,0.1,0.2,0.1s0.1,0,0.2,0c0.2,0,0.3,0,0.4-0.1c0.1-0.1,0.2-0.1,0.2-0.2c0-0.1,0.1-0.2,0.1-0.2c0-0.1,0-0.1,0-0.2V82.3
							z"/>
						<path class="st25" d="M116.1,80.7v0.4h0c0.1-0.2,0.2-0.3,0.4-0.4c0.2-0.1,0.3-0.1,0.5-0.1c0.2,0,0.4,0,0.6,0.1
							c0.1,0.1,0.3,0.1,0.3,0.3s0.1,0.2,0.2,0.4c0,0.2,0.1,0.3,0.1,0.5v1.9h-0.9v-1.8c0-0.3,0-0.4-0.1-0.6c-0.1-0.1-0.2-0.2-0.4-0.2
							c-0.2,0-0.4,0.1-0.5,0.2c-0.1,0.1-0.2,0.4-0.2,0.7v1.6h-0.9v-3.1H116.1z"/>
						<path class="st25" d="M118.9,80.2v-0.7h0.9v0.7H118.9z M119.8,80.7v3.1h-0.9v-3.1H119.8z"/>
						<path class="st25" d="M121.2,80.7v0.4h0c0.1-0.2,0.2-0.3,0.4-0.4c0.2-0.1,0.3-0.1,0.5-0.1c0.2,0,0.4,0,0.6,0.1
							c0.1,0.1,0.3,0.1,0.3,0.3s0.1,0.2,0.2,0.4c0,0.2,0.1,0.3,0.1,0.5v1.9h-0.9v-1.8c0-0.3,0-0.4-0.1-0.6c-0.1-0.1-0.2-0.2-0.4-0.2
							c-0.2,0-0.4,0.1-0.5,0.2c-0.1,0.1-0.2,0.4-0.2,0.7v1.6h-0.9v-3.1H121.2z"/>
						<path class="st25" d="M124.9,83.1c0.1,0.1,0.3,0.2,0.6,0.2c0.2,0,0.3,0,0.4-0.1c0.1-0.1,0.2-0.2,0.2-0.3h0.8
							c-0.1,0.4-0.3,0.6-0.6,0.8c-0.2,0.2-0.5,0.2-0.9,0.2c-0.2,0-0.5,0-0.7-0.1c-0.2-0.1-0.4-0.2-0.5-0.3c-0.1-0.1-0.2-0.3-0.3-0.5
							c-0.1-0.2-0.1-0.4-0.1-0.7c0-0.2,0-0.4,0.1-0.6c0.1-0.2,0.2-0.4,0.3-0.5c0.1-0.1,0.3-0.3,0.5-0.3c0.2-0.1,0.4-0.1,0.6-0.1
							c0.3,0,0.5,0.1,0.7,0.2c0.2,0.1,0.4,0.2,0.5,0.4s0.2,0.4,0.3,0.6c0.1,0.2,0.1,0.5,0.1,0.7h-2.2
							C124.7,82.8,124.8,83,124.9,83.1z M125.9,81.5c-0.1-0.1-0.3-0.2-0.5-0.2c-0.1,0-0.2,0-0.3,0.1s-0.2,0.1-0.2,0.2
							c-0.1,0.1-0.1,0.1-0.1,0.2s0,0.1,0,0.2h1.4C126,81.7,126,81.6,125.9,81.5z"/>
						<path class="st25" d="M130.6,81.3c-0.1,0-0.2,0-0.3,0.1c-0.1,0.1-0.2,0.1-0.2,0.2c-0.1,0.1-0.1,0.2-0.1,0.3c0,0.1,0,0.2,0,0.4
							c0,0.1,0,0.2,0,0.3c0,0.1,0.1,0.2,0.1,0.3c0.1,0.1,0.1,0.2,0.2,0.2c0.1,0.1,0.2,0.1,0.3,0.1c0.2,0,0.4-0.1,0.5-0.2
							c0.1-0.1,0.2-0.3,0.2-0.5h0.8c-0.1,0.4-0.2,0.7-0.5,0.9c-0.3,0.2-0.6,0.3-1,0.3c-0.2,0-0.4,0-0.6-0.1
							c-0.2-0.1-0.4-0.2-0.5-0.3c-0.1-0.1-0.2-0.3-0.3-0.5c-0.1-0.2-0.1-0.4-0.1-0.6c0-0.2,0-0.5,0.1-0.7s0.2-0.4,0.3-0.5
							c0.1-0.2,0.3-0.3,0.5-0.4c0.2-0.1,0.4-0.1,0.7-0.1c0.2,0,0.4,0,0.5,0.1c0.2,0,0.3,0.1,0.5,0.2c0.1,0.1,0.2,0.2,0.3,0.4
							c0.1,0.1,0.1,0.3,0.1,0.5h-0.8C131.2,81.5,131,81.3,130.6,81.3z"/>
						<path class="st25" d="M132.5,81.7c0-0.2,0.1-0.4,0.1-0.5c0.1-0.1,0.2-0.2,0.3-0.3c0.1-0.1,0.3-0.1,0.5-0.2
							c0.2,0,0.3-0.1,0.5-0.1c0.2,0,0.3,0,0.5,0c0.2,0,0.3,0.1,0.4,0.1c0.1,0.1,0.2,0.2,0.3,0.3s0.1,0.3,0.1,0.5v1.6
							c0,0.1,0,0.3,0,0.4s0,0.2,0.1,0.3h-0.9c0,0,0-0.1,0-0.1c0,0,0-0.1,0-0.2c-0.1,0.1-0.3,0.2-0.5,0.3s-0.4,0.1-0.6,0.1
							c-0.1,0-0.3,0-0.4-0.1c-0.1,0-0.2-0.1-0.3-0.2c-0.1-0.1-0.2-0.2-0.2-0.3c-0.1-0.1-0.1-0.3-0.1-0.4c0-0.2,0-0.3,0.1-0.4
							c0.1-0.1,0.1-0.2,0.2-0.3c0.1-0.1,0.2-0.1,0.3-0.2s0.3-0.1,0.4-0.1c0.1,0,0.3,0,0.4,0c0.1,0,0.2,0,0.3-0.1
							c0.1,0,0.2-0.1,0.2-0.1c0.1,0,0.1-0.1,0.1-0.2c0-0.1,0-0.2,0-0.2c0-0.1-0.1-0.1-0.1-0.1c-0.1,0-0.1,0-0.2-0.1
							c-0.1,0-0.1,0-0.2,0c-0.2,0-0.3,0-0.4,0.1s-0.2,0.2-0.2,0.4H132.5z M134.5,82.3c0,0-0.1,0.1-0.1,0.1c-0.1,0-0.1,0-0.2,0
							c-0.1,0-0.1,0-0.2,0s-0.1,0-0.2,0c-0.1,0-0.1,0-0.2,0c-0.1,0-0.1,0-0.2,0.1c0,0-0.1,0.1-0.1,0.1c0,0.1,0,0.1,0,0.2
							c0,0.1,0,0.1,0,0.2c0,0.1,0.1,0.1,0.1,0.1c0,0,0.1,0.1,0.2,0.1c0.1,0,0.1,0,0.2,0c0.2,0,0.3,0,0.4-0.1
							c0.1-0.1,0.2-0.1,0.2-0.2c0-0.1,0.1-0.2,0.1-0.2s0-0.1,0-0.2V82.3z"/>
						<path class="st25" d="M136.8,80.7v0.6h0c0-0.1,0.1-0.2,0.2-0.3c0.1-0.1,0.1-0.2,0.2-0.2s0.2-0.1,0.3-0.1c0.1,0,0.2,0,0.3,0
							c0.1,0,0.1,0,0.2,0v0.8c0,0-0.1,0-0.1,0c-0.1,0-0.1,0-0.2,0c-0.2,0-0.3,0-0.4,0.1c-0.1,0.1-0.2,0.1-0.3,0.2
							c-0.1,0.1-0.1,0.2-0.1,0.3c0,0.1,0,0.2,0,0.4v1.4H136v-3.1H136.8z"/>
						<path class="st25" d="M140.4,83.4c-0.1,0.2-0.2,0.3-0.4,0.4s-0.3,0.1-0.5,0.1c-0.2,0-0.4,0-0.6-0.1c-0.2-0.1-0.3-0.2-0.4-0.4
							s-0.2-0.3-0.3-0.5c-0.1-0.2-0.1-0.4-0.1-0.6c0-0.2,0-0.4,0.1-0.6c0.1-0.2,0.1-0.4,0.3-0.5c0.1-0.1,0.3-0.3,0.4-0.4
							s0.4-0.1,0.6-0.1c0.2,0,0.4,0,0.5,0.1s0.3,0.2,0.4,0.3h0v-1.6h0.9v4.3h-0.8L140.4,83.4L140.4,83.4z M140.4,81.9
							c0-0.1-0.1-0.2-0.1-0.3c-0.1-0.1-0.1-0.2-0.2-0.2c-0.1-0.1-0.2-0.1-0.3-0.1s-0.3,0-0.4,0.1c-0.1,0.1-0.2,0.1-0.2,0.2
							c-0.1,0.1-0.1,0.2-0.1,0.3s0,0.2,0,0.4c0,0.1,0,0.2,0,0.4s0.1,0.2,0.1,0.3c0.1,0.1,0.1,0.2,0.2,0.2c0.1,0.1,0.2,0.1,0.3,0.1
							c0.1,0,0.3,0,0.4-0.1c0.1-0.1,0.2-0.1,0.2-0.2c0.1-0.1,0.1-0.2,0.1-0.3c0-0.1,0-0.2,0-0.4S140.4,82,140.4,81.9z"/>
						<path class="st25" d="M99,89.3c-0.1,0.2-0.2,0.3-0.4,0.4c-0.2,0.1-0.3,0.1-0.5,0.1c-0.2,0-0.4,0-0.6-0.1
							c-0.2-0.1-0.3-0.2-0.4-0.4c-0.1-0.2-0.2-0.3-0.3-0.5c-0.1-0.2-0.1-0.4-0.1-0.6c0-0.2,0-0.4,0.1-0.6c0.1-0.2,0.1-0.4,0.3-0.5
							c0.1-0.1,0.3-0.3,0.4-0.4s0.4-0.1,0.6-0.1c0.2,0,0.4,0,0.5,0.1s0.3,0.2,0.4,0.3h0v-1.6h0.9v4.3H99L99,89.3L99,89.3z
							 M98.9,87.8c0-0.1-0.1-0.2-0.1-0.3c-0.1-0.1-0.1-0.2-0.2-0.2c-0.1-0.1-0.2-0.1-0.3-0.1s-0.3,0-0.4,0.1
							c-0.1,0.1-0.2,0.1-0.2,0.2c-0.1,0.1-0.1,0.2-0.1,0.3s0,0.2,0,0.4c0,0.1,0,0.2,0,0.4s0.1,0.2,0.1,0.3s0.1,0.2,0.2,0.2
							c0.1,0.1,0.2,0.1,0.3,0.1c0.1,0,0.3,0,0.4-0.1c0.1-0.1,0.2-0.1,0.2-0.2c0.1-0.1,0.1-0.2,0.1-0.3c0-0.1,0-0.2,0-0.4
							S99,87.9,98.9,87.8z"/>
						<path class="st25" d="M101.4,89c0.1,0.1,0.3,0.2,0.6,0.2c0.2,0,0.3,0,0.4-0.1c0.1-0.1,0.2-0.2,0.2-0.3h0.8
							c-0.1,0.4-0.3,0.6-0.6,0.8c-0.2,0.2-0.5,0.2-0.9,0.2c-0.2,0-0.5,0-0.7-0.1c-0.2-0.1-0.4-0.2-0.5-0.3c-0.1-0.1-0.2-0.3-0.3-0.5
							c-0.1-0.2-0.1-0.4-0.1-0.7c0-0.2,0-0.4,0.1-0.6c0.1-0.2,0.2-0.4,0.3-0.5c0.1-0.1,0.3-0.3,0.5-0.3c0.2-0.1,0.4-0.1,0.6-0.1
							c0.3,0,0.5,0.1,0.7,0.2c0.2,0.1,0.4,0.2,0.5,0.4s0.2,0.4,0.3,0.6c0.1,0.2,0.1,0.5,0.1,0.7h-2.2
							C101.2,88.7,101.2,88.9,101.4,89z M102.3,87.3c-0.1-0.1-0.3-0.2-0.5-0.2c-0.1,0-0.2,0-0.3,0.1s-0.2,0.1-0.2,0.2
							c-0.1,0.1-0.1,0.1-0.1,0.2s0,0.1,0,0.2h1.4C102.5,87.6,102.4,87.5,102.3,87.3z"/>
						<path class="st25" d="M104.7,86.6V87h0c0.1-0.2,0.2-0.3,0.4-0.4c0.2-0.1,0.3-0.1,0.5-0.1c0.2,0,0.5,0,0.6,0.1
							c0.2,0.1,0.3,0.2,0.4,0.4c0.1,0.2,0.2,0.3,0.3,0.5c0.1,0.2,0.1,0.4,0.1,0.6c0,0.2,0,0.4-0.1,0.6s-0.1,0.4-0.3,0.5
							c-0.1,0.1-0.3,0.3-0.4,0.4s-0.4,0.1-0.6,0.1c-0.2,0-0.4,0-0.5-0.1s-0.3-0.2-0.4-0.3h0v1.5h-0.9v-4.2H104.7z M105.8,89.1
							c0.1-0.1,0.2-0.1,0.2-0.2c0.1-0.1,0.1-0.2,0.1-0.3c0-0.1,0-0.2,0-0.4s0-0.2,0-0.4s-0.1-0.2-0.1-0.3c-0.1-0.1-0.1-0.2-0.2-0.2
							c-0.1-0.1-0.2-0.1-0.3-0.1c-0.1,0-0.3,0-0.4,0.1c-0.1,0.1-0.2,0.1-0.2,0.2c-0.1,0.1-0.1,0.2-0.1,0.3s0,0.2,0,0.4
							c0,0.1,0,0.2,0,0.4s0.1,0.2,0.1,0.3s0.1,0.2,0.2,0.2c0.1,0.1,0.2,0.1,0.3,0.1C105.6,89.2,105.7,89.1,105.8,89.1z"/>
						<path class="st25" d="M108.5,89c0.1,0.1,0.3,0.2,0.6,0.2c0.2,0,0.3,0,0.4-0.1c0.1-0.1,0.2-0.2,0.2-0.3h0.8
							c-0.1,0.4-0.3,0.6-0.6,0.8c-0.2,0.2-0.5,0.2-0.9,0.2c-0.2,0-0.5,0-0.7-0.1c-0.2-0.1-0.4-0.2-0.5-0.3c-0.1-0.1-0.2-0.3-0.3-0.5
							c-0.1-0.2-0.1-0.4-0.1-0.7c0-0.2,0-0.4,0.1-0.6c0.1-0.2,0.2-0.4,0.3-0.5c0.1-0.1,0.3-0.3,0.5-0.3c0.2-0.1,0.4-0.1,0.6-0.1
							c0.3,0,0.5,0.1,0.7,0.2c0.2,0.1,0.4,0.2,0.5,0.4s0.2,0.4,0.3,0.6c0.1,0.2,0.1,0.5,0.1,0.7h-2.2
							C108.3,88.7,108.3,88.9,108.5,89z M109.4,87.3c-0.1-0.1-0.3-0.2-0.5-0.2c-0.1,0-0.2,0-0.3,0.1s-0.2,0.1-0.2,0.2
							c-0.1,0.1-0.1,0.1-0.1,0.2s0,0.1,0,0.2h1.4C109.6,87.6,109.5,87.5,109.4,87.3z"/>
						<path class="st25" d="M111.8,86.6v0.4h0c0.1-0.2,0.2-0.3,0.4-0.4c0.2-0.1,0.3-0.1,0.5-0.1c0.2,0,0.4,0,0.6,0.1
							c0.1,0.1,0.3,0.1,0.3,0.3s0.1,0.2,0.2,0.4c0,0.2,0.1,0.3,0.1,0.5v1.9h-0.9V88c0-0.3,0-0.4-0.1-0.6c-0.1-0.1-0.2-0.2-0.4-0.2
							c-0.2,0-0.4,0.1-0.5,0.2c-0.1,0.1-0.2,0.4-0.2,0.7v1.6H111v-3.1H111.8z"/>
						<path class="st25" d="M116.8,89.3c-0.1,0.2-0.2,0.3-0.4,0.4c-0.2,0.1-0.3,0.1-0.5,0.1c-0.2,0-0.4,0-0.6-0.1
							c-0.2-0.1-0.3-0.2-0.4-0.4c-0.1-0.2-0.2-0.3-0.3-0.5c-0.1-0.2-0.1-0.4-0.1-0.6c0-0.2,0-0.4,0.1-0.6c0.1-0.2,0.1-0.4,0.3-0.5
							c0.1-0.1,0.3-0.3,0.4-0.4s0.4-0.1,0.6-0.1c0.2,0,0.4,0,0.5,0.1s0.3,0.2,0.4,0.3h0v-1.6h0.9v4.3h-0.8L116.8,89.3L116.8,89.3z
							 M116.7,87.8c0-0.1-0.1-0.2-0.1-0.3c-0.1-0.1-0.1-0.2-0.2-0.2c-0.1-0.1-0.2-0.1-0.3-0.1s-0.3,0-0.4,0.1
							c-0.1,0.1-0.2,0.1-0.2,0.2c-0.1,0.1-0.1,0.2-0.1,0.3s0,0.2,0,0.4c0,0.1,0,0.2,0,0.4s0.1,0.2,0.1,0.3s0.1,0.2,0.2,0.2
							c0.1,0.1,0.2,0.1,0.3,0.1c0.1,0,0.3,0,0.4-0.1c0.1-0.1,0.2-0.1,0.2-0.2c0.1-0.1,0.1-0.2,0.1-0.3c0-0.1,0-0.2,0-0.4
							S116.7,87.9,116.7,87.8z"/>
						<path class="st25" d="M119.1,89c0.1,0.1,0.3,0.2,0.6,0.2c0.2,0,0.3,0,0.4-0.1c0.1-0.1,0.2-0.2,0.2-0.3h0.8
							c-0.1,0.4-0.3,0.6-0.6,0.8c-0.2,0.2-0.5,0.2-0.9,0.2c-0.2,0-0.5,0-0.7-0.1c-0.2-0.1-0.4-0.2-0.5-0.3c-0.1-0.1-0.2-0.3-0.3-0.5
							c-0.1-0.2-0.1-0.4-0.1-0.7c0-0.2,0-0.4,0.1-0.6c0.1-0.2,0.2-0.4,0.3-0.5c0.1-0.1,0.3-0.3,0.5-0.3c0.2-0.1,0.4-0.1,0.6-0.1
							c0.3,0,0.5,0.1,0.7,0.2c0.2,0.1,0.4,0.2,0.5,0.4s0.2,0.4,0.3,0.6c0.1,0.2,0.1,0.5,0.1,0.7h-2.2C118.9,88.7,119,88.9,119.1,89z
							 M120.1,87.3c-0.1-0.1-0.3-0.2-0.5-0.2c-0.1,0-0.2,0-0.3,0.1s-0.2,0.1-0.2,0.2c-0.1,0.1-0.1,0.1-0.1,0.2s0,0.1,0,0.2h1.4
							C120.3,87.6,120.2,87.5,120.1,87.3z"/>
						<path class="st25" d="M122.5,86.6v0.4h0c0.1-0.2,0.2-0.3,0.4-0.4c0.2-0.1,0.3-0.1,0.5-0.1c0.2,0,0.4,0,0.6,0.1
							c0.1,0.1,0.3,0.1,0.3,0.3s0.1,0.2,0.2,0.4c0,0.2,0.1,0.3,0.1,0.5v1.9h-0.9V88c0-0.3,0-0.4-0.1-0.6c-0.1-0.1-0.2-0.2-0.4-0.2
							c-0.2,0-0.4,0.1-0.5,0.2c-0.1,0.1-0.2,0.4-0.2,0.7v1.6h-0.9v-3.1H122.5z"/>
						<path class="st25" d="M126.9,86.6v0.6h-0.6v1.5c0,0.1,0,0.2,0.1,0.3s0.1,0.1,0.3,0.1c0,0,0.1,0,0.1,0s0.1,0,0.1,0v0.7
							c-0.1,0-0.2,0-0.2,0c-0.1,0-0.2,0-0.3,0c-0.1,0-0.3,0-0.4,0c-0.1,0-0.2-0.1-0.3-0.1c-0.1-0.1-0.2-0.1-0.2-0.2
							c-0.1-0.1-0.1-0.2-0.1-0.4v-1.8h-0.5v-0.6h0.5v-0.9h0.9v0.9H126.9z"/>
					</g>
				</g>
			</g>
		</g>
	</g>
</g>
<g>
	<g>
		<g>
			<g>
				<path class="st13" d="M163.9,27.6c0.1,0.1,0.2,0.1,0.4,0.1c0.1,0,0.2,0,0.3-0.1c0.1-0.1,0.1-0.1,0.2-0.2h0.5
					c-0.1,0.2-0.2,0.4-0.4,0.5c-0.2,0.1-0.4,0.2-0.6,0.2c-0.2,0-0.3,0-0.4-0.1c-0.1-0.1-0.2-0.1-0.3-0.2s-0.2-0.2-0.2-0.3
					c0-0.1-0.1-0.3-0.1-0.4c0-0.2,0-0.3,0.1-0.4c0.1-0.1,0.1-0.2,0.2-0.3c0.1-0.1,0.2-0.2,0.3-0.2c0.1-0.1,0.3-0.1,0.4-0.1
					c0.2,0,0.3,0,0.5,0.1c0.1,0.1,0.2,0.2,0.3,0.3s0.1,0.2,0.2,0.4c0,0.1,0.1,0.3,0,0.5h-1.5C163.8,27.4,163.8,27.5,163.9,27.6z
					 M164.5,26.5c-0.1-0.1-0.2-0.1-0.3-0.1c-0.1,0-0.2,0-0.2,0c-0.1,0-0.1,0.1-0.1,0.1c0,0-0.1,0.1-0.1,0.1c0,0,0,0.1,0,0.1h0.9
					C164.6,26.7,164.6,26.6,164.5,26.5z"/>
				<path class="st13" d="M166.4,28.1v-1.8h-0.7v-0.4c0.1,0,0.2,0,0.3,0c0.1,0,0.2,0,0.2-0.1s0.1-0.1,0.2-0.2
					c0.1-0.1,0.1-0.2,0.1-0.3h0.5v2.8H166.4z"/>
				<path class="st13" d="M167.8,26.7c0-0.1,0-0.2,0.1-0.3s0.1-0.2,0.2-0.2c0.1-0.1,0.2-0.1,0.3-0.1s0.2,0,0.3,0c0.1,0,0.2,0,0.3,0
					s0.2,0,0.3,0.1c0.1,0,0.2,0.1,0.2,0.2s0.1,0.2,0.1,0.3v1.1c0,0.1,0,0.2,0,0.3c0,0.1,0,0.1,0.1,0.2h-0.6c0,0,0-0.1,0-0.1
					s0-0.1,0-0.1c-0.1,0.1-0.2,0.2-0.3,0.2c-0.1,0-0.2,0.1-0.4,0.1c-0.1,0-0.2,0-0.3,0c-0.1,0-0.2-0.1-0.2-0.1
					c-0.1-0.1-0.1-0.1-0.1-0.2c0-0.1-0.1-0.2-0.1-0.3c0-0.1,0-0.2,0.1-0.3c0-0.1,0.1-0.1,0.2-0.2c0.1,0,0.1-0.1,0.2-0.1
					s0.2,0,0.3-0.1c0.1,0,0.2,0,0.3,0c0.1,0,0.2,0,0.2,0c0.1,0,0.1,0,0.2-0.1c0,0,0.1-0.1,0.1-0.1c0-0.1,0-0.1,0-0.1
					c0,0,0-0.1-0.1-0.1c0,0-0.1,0-0.1,0c0,0-0.1,0-0.1,0c-0.1,0-0.2,0-0.3,0.1c-0.1,0-0.1,0.1-0.1,0.2H167.8z M169.1,27.1
					C169.1,27.1,169,27.1,169.1,27.1c-0.1,0.1-0.2,0.1-0.2,0.1c0,0-0.1,0-0.1,0c0,0-0.1,0-0.1,0c0,0-0.1,0-0.1,0c0,0-0.1,0-0.1,0.1
					c0,0-0.1,0.1-0.1,0.1c0,0,0,0.1,0,0.1c0,0.1,0,0.1,0,0.1c0,0,0,0.1,0.1,0.1c0,0,0.1,0,0.1,0s0.1,0,0.1,0c0.1,0,0.2,0,0.3-0.1
					c0.1,0,0.1-0.1,0.1-0.1c0-0.1,0-0.1,0.1-0.2s0-0.1,0-0.1V27.1z"/>
			</g>
		</g>
	</g>
</g>
<g>
	<g>
		<g>
			<g>
				<path class="st13" d="M173.2,27.6c0.1,0.1,0.2,0.1,0.4,0.1c0.1,0,0.2,0,0.3-0.1c0.1-0.1,0.1-0.1,0.2-0.2h0.5
					c-0.1,0.2-0.2,0.4-0.4,0.5c-0.2,0.1-0.4,0.2-0.6,0.2c-0.2,0-0.3,0-0.4-0.1c-0.1-0.1-0.2-0.1-0.3-0.2s-0.2-0.2-0.2-0.3
					c0-0.1-0.1-0.3-0.1-0.4c0-0.2,0-0.3,0.1-0.4c0.1-0.1,0.1-0.2,0.2-0.3c0.1-0.1,0.2-0.2,0.3-0.2c0.1-0.1,0.3-0.1,0.4-0.1
					c0.2,0,0.3,0,0.5,0.1c0.1,0.1,0.2,0.2,0.3,0.3s0.1,0.2,0.2,0.4c0,0.1,0.1,0.3,0,0.5h-1.5C173.1,27.4,173.1,27.5,173.2,27.6z
					 M173.9,26.5c-0.1-0.1-0.2-0.1-0.3-0.1c-0.1,0-0.2,0-0.2,0c-0.1,0-0.1,0.1-0.1,0.1c0,0-0.1,0.1-0.1,0.1c0,0,0,0.1,0,0.1h0.9
					C174,26.7,173.9,26.6,173.9,26.5z"/>
				<path class="st13" d="M175.7,28.1v-1.8H175v-0.4c0.1,0,0.2,0,0.3,0c0.1,0,0.2,0,0.2-0.1s0.1-0.1,0.2-0.2
					c0.1-0.1,0.1-0.2,0.1-0.3h0.5v2.8H175.7z"/>
				<path class="st13" d="M177.7,25.3v1h0c0.1-0.1,0.2-0.2,0.3-0.2c0.1,0,0.2-0.1,0.4-0.1c0.1,0,0.2,0,0.3,0.1
					c0.1,0,0.2,0.1,0.3,0.2s0.1,0.2,0.2,0.3c0,0.1,0.1,0.3,0.1,0.5s0,0.4-0.1,0.5c-0.1,0.1-0.1,0.2-0.2,0.3s-0.2,0.2-0.3,0.2
					c-0.1,0-0.2,0.1-0.3,0.1c-0.2,0-0.3,0-0.4-0.1c-0.1,0-0.2-0.1-0.3-0.2h0v0.3h-0.5v-2.9H177.7z M178.6,26.8c0-0.1,0-0.2-0.1-0.2
					s-0.1-0.1-0.2-0.1c-0.1,0-0.1-0.1-0.2-0.1c-0.1,0-0.2,0-0.2,0.1c-0.1,0-0.1,0.1-0.2,0.1s-0.1,0.1-0.1,0.2s0,0.2,0,0.3
					c0,0.1,0,0.2,0,0.2s0,0.2,0.1,0.2s0.1,0.1,0.2,0.1s0.1,0.1,0.2,0.1c0.1,0,0.2,0,0.2-0.1c0.1,0,0.1-0.1,0.2-0.1s0.1-0.1,0.1-0.2
					s0-0.2,0-0.2C178.6,27,178.6,26.9,178.6,26.8z"/>
			</g>
		</g>
	</g>
</g>
<g>
	<g>
		<g>
			<g>
				<path class="st13" d="M182.8,27.6c0.1,0.1,0.2,0.1,0.4,0.1c0.1,0,0.2,0,0.3-0.1s0.1-0.1,0.2-0.2h0.5c-0.1,0.2-0.2,0.4-0.4,0.5
					c-0.2,0.1-0.4,0.2-0.6,0.2c-0.2,0-0.3,0-0.4-0.1c-0.1-0.1-0.2-0.1-0.3-0.2s-0.2-0.2-0.2-0.3c0-0.1-0.1-0.3-0.1-0.4
					c0-0.2,0-0.3,0.1-0.4c0.1-0.1,0.1-0.2,0.2-0.3c0.1-0.1,0.2-0.2,0.3-0.2s0.3-0.1,0.4-0.1c0.2,0,0.3,0,0.5,0.1
					c0.1,0.1,0.2,0.2,0.3,0.3s0.1,0.2,0.2,0.4c0,0.1,0,0.3,0,0.5h-1.5C182.7,27.4,182.7,27.5,182.8,27.6z M183.4,26.5
					c-0.1-0.1-0.2-0.1-0.3-0.1c-0.1,0-0.2,0-0.2,0c-0.1,0-0.1,0.1-0.1,0.1c0,0-0.1,0.1-0.1,0.1c0,0,0,0.1,0,0.1h0.9
					C183.5,26.7,183.5,26.6,183.4,26.5z"/>
				<path class="st13" d="M185.3,28.1v-1.8h-0.7v-0.4c0.1,0,0.2,0,0.3,0c0.1,0,0.2,0,0.2-0.1s0.1-0.1,0.2-0.2c0-0.1,0.1-0.2,0.1-0.3
					h0.5v2.8H185.3z"/>
				<path class="st13" d="M187.7,26.4c-0.1,0-0.2,0-0.2,0.1c-0.1,0-0.1,0.1-0.1,0.2c0,0.1-0.1,0.1-0.1,0.2c0,0.1,0,0.2,0,0.2
					c0,0.1,0,0.2,0,0.2c0,0.1,0,0.1,0.1,0.2c0,0.1,0.1,0.1,0.1,0.2s0.1,0.1,0.2,0.1c0.1,0,0.2,0,0.3-0.1c0.1-0.1,0.1-0.2,0.1-0.3
					h0.5c0,0.3-0.1,0.5-0.3,0.6c-0.2,0.1-0.4,0.2-0.7,0.2c-0.2,0-0.3,0-0.4-0.1c-0.1-0.1-0.2-0.1-0.3-0.2c-0.1-0.1-0.2-0.2-0.2-0.3
					c-0.1-0.1-0.1-0.3-0.1-0.4c0-0.2,0-0.3,0.1-0.4c0-0.1,0.1-0.3,0.2-0.4c0.1-0.1,0.2-0.2,0.3-0.2s0.3-0.1,0.4-0.1
					c0.1,0,0.2,0,0.4,0s0.2,0.1,0.3,0.1c0.1,0.1,0.2,0.1,0.2,0.2c0.1,0.1,0.1,0.2,0.1,0.3h-0.6C188.1,26.5,187.9,26.4,187.7,26.4z"
					/>
			</g>
		</g>
	</g>
</g>
<g>
	<g>
		<g>
			<g>
				<path class="st13" d="M192.1,27.6c0.1,0.1,0.2,0.1,0.4,0.1c0.1,0,0.2,0,0.3-0.1c0.1-0.1,0.1-0.1,0.2-0.2h0.5
					c-0.1,0.2-0.2,0.4-0.4,0.5c-0.2,0.1-0.4,0.2-0.6,0.2c-0.2,0-0.3,0-0.4-0.1c-0.1-0.1-0.2-0.1-0.3-0.2s-0.2-0.2-0.2-0.3
					c0-0.1-0.1-0.3-0.1-0.4c0-0.2,0-0.3,0.1-0.4c0.1-0.1,0.1-0.2,0.2-0.3c0.1-0.1,0.2-0.2,0.3-0.2c0.1-0.1,0.3-0.1,0.4-0.1
					c0.2,0,0.3,0,0.5,0.1c0.1,0.1,0.2,0.2,0.3,0.3s0.1,0.2,0.2,0.4c0,0.1,0.1,0.3,0,0.5h-1.5C191.9,27.4,192,27.5,192.1,27.6z
					 M192.7,26.5c-0.1-0.1-0.2-0.1-0.3-0.1c-0.1,0-0.2,0-0.2,0c-0.1,0-0.1,0.1-0.1,0.1c0,0-0.1,0.1-0.1,0.1c0,0,0,0.1,0,0.1h0.9
					C192.8,26.7,192.8,26.6,192.7,26.5z"/>
				<path class="st13" d="M194.5,28.1v-1.8h-0.7v-0.4c0.1,0,0.2,0,0.3,0c0.1,0,0.2,0,0.2-0.1s0.1-0.1,0.2-0.2
					c0.1-0.1,0.1-0.2,0.1-0.3h0.5v2.8H194.5z"/>
				<path class="st13" d="M197.5,27.9c-0.1,0.1-0.2,0.2-0.3,0.2c-0.1,0-0.2,0.1-0.4,0.1c-0.2,0-0.3,0-0.4-0.1
					c-0.1-0.1-0.2-0.1-0.3-0.2s-0.1-0.2-0.2-0.4c0-0.1-0.1-0.3-0.1-0.4c0-0.1,0-0.3,0.1-0.4c0-0.1,0.1-0.2,0.2-0.3s0.2-0.2,0.3-0.2
					c0.1-0.1,0.2-0.1,0.4-0.1c0.1,0,0.2,0,0.4,0.1c0.1,0.1,0.2,0.1,0.3,0.2h0v-1h0.6v2.9h-0.5L197.5,27.9L197.5,27.9z M197.4,26.8
					c0-0.1,0-0.1-0.1-0.2c0-0.1-0.1-0.1-0.1-0.1c-0.1,0-0.1-0.1-0.2-0.1s-0.2,0-0.2,0.1c-0.1,0-0.1,0.1-0.2,0.1
					c0,0.1-0.1,0.1-0.1,0.2c0,0.1,0,0.2,0,0.2c0,0.1,0,0.2,0,0.2c0,0.1,0,0.2,0.1,0.2c0,0.1,0.1,0.1,0.2,0.2c0.1,0,0.1,0.1,0.2,0.1
					c0.1,0,0.2,0,0.2-0.1c0.1,0,0.1-0.1,0.1-0.2s0.1-0.1,0.1-0.2s0-0.2,0-0.2S197.4,26.9,197.4,26.8z"/>
			</g>
		</g>
	</g>
</g>
<g>
	<g>
		<g>
			<g>
				<path class="st13" d="M21.9,27.5c0.1,0.1,0.2,0.1,0.4,0.1c0.1,0,0.2,0,0.3-0.1c0.1-0.1,0.1-0.1,0.2-0.2h0.5
					c-0.1,0.2-0.2,0.4-0.4,0.5c-0.2,0.1-0.4,0.2-0.6,0.2c-0.2,0-0.3,0-0.4-0.1c-0.1-0.1-0.2-0.1-0.3-0.2s-0.2-0.2-0.2-0.3
					c0-0.1-0.1-0.3-0.1-0.4c0-0.2,0-0.3,0.1-0.4c0.1-0.1,0.1-0.2,0.2-0.3c0.1-0.1,0.2-0.2,0.3-0.2c0.1-0.1,0.3-0.1,0.4-0.1
					c0.2,0,0.3,0,0.5,0.1c0.1,0.1,0.2,0.2,0.3,0.3s0.1,0.2,0.2,0.4c0,0.1,0.1,0.3,0,0.5h-1.5C21.8,27.3,21.8,27.4,21.9,27.5z
					 M22.6,26.4c-0.1-0.1-0.2-0.1-0.3-0.1c-0.1,0-0.2,0-0.2,0c-0.1,0-0.1,0.1-0.1,0.1c0,0-0.1,0.1-0.1,0.1c0,0,0,0.1,0,0.1h0.9
					C22.7,26.6,22.6,26.5,22.6,26.4z"/>
				<path class="st13" d="M24.4,28v-1.8h-0.7v-0.4c0.1,0,0.2,0,0.3,0c0.1,0,0.2,0,0.2-0.1s0.1-0.1,0.2-0.2c0.1-0.1,0.1-0.2,0.1-0.3
					H25V28H24.4z"/>
				<path class="st13" d="M25.8,26.6c0-0.1,0-0.2,0.1-0.3s0.1-0.2,0.2-0.2c0.1-0.1,0.2-0.1,0.3-0.1c0.1,0,0.2,0,0.3,0
					c0.1,0,0.2,0,0.3,0s0.2,0,0.3,0.1c0.1,0,0.2,0.1,0.2,0.2c0.1,0.1,0.1,0.2,0.1,0.3v1.1c0,0.1,0,0.2,0,0.3c0,0.1,0,0.1,0.1,0.2
					h-0.6c0,0,0-0.1,0-0.1s0-0.1,0-0.1C27,27.9,26.9,28,26.8,28s-0.2,0.1-0.4,0.1c-0.1,0-0.2,0-0.3,0c-0.1,0-0.2-0.1-0.2-0.1
					s-0.1-0.1-0.1-0.2c0-0.1-0.1-0.2-0.1-0.3c0-0.1,0-0.2,0.1-0.3c0-0.1,0.1-0.1,0.2-0.2c0.1,0,0.1-0.1,0.2-0.1s0.2,0,0.3-0.1
					c0.1,0,0.2,0,0.3,0c0.1,0,0.2,0,0.2,0c0.1,0,0.1,0,0.2-0.1c0,0,0.1-0.1,0.1-0.1c0-0.1,0-0.1,0-0.1s0-0.1-0.1-0.1
					c0,0-0.1,0-0.1,0c0,0-0.1,0-0.1,0c-0.1,0-0.2,0-0.3,0.1s-0.1,0.1-0.1,0.2H25.8z M27.1,27C27.1,27,27.1,27,27.1,27
					c-0.1,0.1-0.2,0.1-0.2,0.1c0,0-0.1,0-0.1,0c0,0-0.1,0-0.1,0c0,0-0.1,0-0.1,0c0,0-0.1,0-0.1,0.1c0,0-0.1,0.1-0.1,0.1
					c0,0,0,0.1,0,0.1c0,0.1,0,0.1,0,0.1c0,0,0,0.1,0.1,0.1c0,0,0.1,0,0.1,0c0,0,0.1,0,0.1,0c0.1,0,0.2,0,0.3-0.1
					c0.1,0,0.1-0.1,0.1-0.1c0-0.1,0-0.1,0.1-0.2c0-0.1,0-0.1,0-0.1V27z"/>
			</g>
		</g>
	</g>
</g>
<g>
	<g>
		<g>
			<g>
				<path class="st13" d="M31.4,27.6c0.1,0.1,0.2,0.1,0.4,0.1c0.1,0,0.2,0,0.3-0.1c0.1-0.1,0.1-0.1,0.2-0.2h0.5
					c-0.1,0.2-0.2,0.4-0.4,0.5c-0.2,0.1-0.4,0.2-0.6,0.2c-0.2,0-0.3,0-0.4-0.1C31.1,28,31,28,30.9,27.9s-0.2-0.2-0.2-0.3
					c0-0.1-0.1-0.3-0.1-0.4c0-0.2,0-0.3,0.1-0.4c0.1-0.1,0.1-0.2,0.2-0.3c0.1-0.1,0.2-0.2,0.3-0.2c0.1-0.1,0.3-0.1,0.4-0.1
					c0.2,0,0.3,0,0.5,0.1c0.1,0.1,0.2,0.2,0.3,0.3s0.1,0.2,0.2,0.4c0,0.1,0.1,0.3,0,0.5h-1.5C31.2,27.4,31.3,27.5,31.4,27.6z
					 M32,26.5c-0.1-0.1-0.2-0.1-0.3-0.1c-0.1,0-0.2,0-0.2,0c-0.1,0-0.1,0.1-0.1,0.1c0,0-0.1,0.1-0.1,0.1c0,0,0,0.1,0,0.1h0.9
					C32.1,26.7,32.1,26.6,32,26.5z"/>
				<path class="st13" d="M33.8,28.1v-1.8h-0.7v-0.4c0.1,0,0.2,0,0.3,0c0.1,0,0.2,0,0.2-0.1s0.1-0.1,0.2-0.2
					c0.1-0.1,0.1-0.2,0.1-0.3h0.5v2.8H33.8z"/>
				<path class="st13" d="M35.8,25.3v1h0c0.1-0.1,0.2-0.2,0.3-0.2c0.1,0,0.2-0.1,0.4-0.1c0.1,0,0.2,0,0.3,0.1c0.1,0,0.2,0.1,0.3,0.2
					c0.1,0.1,0.1,0.2,0.2,0.3c0.1,0.1,0.1,0.3,0.1,0.5s0,0.4-0.1,0.5c-0.1,0.1-0.1,0.2-0.2,0.3c-0.1,0.1-0.2,0.2-0.3,0.2
					c-0.1,0-0.2,0.1-0.3,0.1c-0.2,0-0.3,0-0.4-0.1c-0.1,0-0.2-0.1-0.3-0.2h0v0.3h-0.5v-2.9H35.8z M36.8,26.8c0-0.1,0-0.2-0.1-0.2
					c0-0.1-0.1-0.1-0.2-0.1c-0.1,0-0.1-0.1-0.2-0.1c-0.1,0-0.2,0-0.2,0.1c-0.1,0-0.1,0.1-0.2,0.1s-0.1,0.1-0.1,0.2s0,0.2,0,0.3
					c0,0.1,0,0.2,0,0.2s0,0.2,0.1,0.2s0.1,0.1,0.2,0.1c0.1,0,0.1,0.1,0.2,0.1c0.1,0,0.2,0,0.2-0.1s0.1-0.1,0.2-0.1
					c0-0.1,0.1-0.1,0.1-0.2s0-0.2,0-0.2C36.8,27,36.8,26.9,36.8,26.8z"/>
			</g>
		</g>
	</g>
</g>
<g>
	<g>
		<g>
			<g>
				<path class="st13" d="M40.9,27.6c0.1,0.1,0.2,0.1,0.4,0.1c0.1,0,0.2,0,0.3-0.1c0.1-0.1,0.1-0.1,0.2-0.2h0.5
					c-0.1,0.2-0.2,0.4-0.4,0.5c-0.2,0.1-0.4,0.2-0.6,0.2c-0.2,0-0.3,0-0.4-0.1c-0.1-0.1-0.2-0.1-0.3-0.2s-0.2-0.2-0.2-0.3
					c0-0.1-0.1-0.3-0.1-0.4c0-0.2,0-0.3,0.1-0.4c0.1-0.1,0.1-0.2,0.2-0.3c0.1-0.1,0.2-0.2,0.3-0.2C41,26,41.1,26,41.3,26
					c0.2,0,0.3,0,0.5,0.1c0.1,0.1,0.2,0.2,0.3,0.3s0.1,0.2,0.2,0.4c0,0.1,0.1,0.3,0,0.5h-1.5C40.8,27.4,40.8,27.5,40.9,27.6z
					 M41.6,26.5c-0.1-0.1-0.2-0.1-0.3-0.1c-0.1,0-0.2,0-0.2,0c-0.1,0-0.1,0.1-0.1,0.1c0,0-0.1,0.1-0.1,0.1c0,0,0,0.1,0,0.1h0.9
					C41.7,26.7,41.6,26.6,41.6,26.5z"/>
				<path class="st13" d="M43.4,28.1v-1.8h-0.7v-0.4c0.1,0,0.2,0,0.3,0c0.1,0,0.2,0,0.2-0.1s0.1-0.1,0.2-0.2
					c0.1-0.1,0.1-0.2,0.1-0.3H44v2.8H43.4z"/>
				<path class="st13" d="M45.8,26.4c-0.1,0-0.2,0-0.2,0.1c-0.1,0-0.1,0.1-0.1,0.2c0,0.1-0.1,0.1-0.1,0.2c0,0.1,0,0.2,0,0.2
					c0,0.1,0,0.2,0,0.2c0,0.1,0,0.1,0.1,0.2c0,0.1,0.1,0.1,0.1,0.2c0.1,0,0.1,0.1,0.2,0.1c0.1,0,0.2,0,0.3-0.1
					c0.1-0.1,0.1-0.2,0.1-0.3h0.5c0,0.3-0.1,0.5-0.3,0.6c-0.2,0.1-0.4,0.2-0.7,0.2c-0.2,0-0.3,0-0.4-0.1c-0.1-0.1-0.2-0.1-0.3-0.2
					c-0.1-0.1-0.2-0.2-0.2-0.3c-0.1-0.1-0.1-0.3-0.1-0.4c0-0.2,0-0.3,0.1-0.4c0-0.1,0.1-0.3,0.2-0.4c0.1-0.1,0.2-0.2,0.3-0.2
					c0.1-0.1,0.3-0.1,0.4-0.1c0.1,0,0.2,0,0.4,0s0.2,0.1,0.3,0.1c0.1,0.1,0.2,0.1,0.2,0.2c0.1,0.1,0.1,0.2,0.1,0.3h-0.6
					C46.2,26.5,46.1,26.4,45.8,26.4z"/>
			</g>
		</g>
	</g>
</g>
<g>
	<g>
		<g>
			<g>
				<path class="st13" d="M50.2,27.6c0.1,0.1,0.2,0.1,0.4,0.1c0.1,0,0.2,0,0.3-0.1c0.1-0.1,0.1-0.1,0.2-0.2h0.5
					c-0.1,0.2-0.2,0.4-0.4,0.5c-0.2,0.1-0.4,0.2-0.6,0.2c-0.2,0-0.3,0-0.4-0.1C50,28,49.9,28,49.8,27.9s-0.2-0.2-0.2-0.3
					c0-0.1-0.1-0.3-0.1-0.4c0-0.2,0-0.3,0.1-0.4c0.1-0.1,0.1-0.2,0.2-0.3c0.1-0.1,0.2-0.2,0.3-0.2c0.1-0.1,0.3-0.1,0.4-0.1
					c0.2,0,0.3,0,0.5,0.1c0.1,0.1,0.2,0.2,0.3,0.3s0.1,0.2,0.2,0.4c0,0.1,0.1,0.3,0,0.5h-1.5C50.1,27.4,50.1,27.5,50.2,27.6z
					 M50.9,26.5c-0.1-0.1-0.2-0.1-0.3-0.1c-0.1,0-0.2,0-0.2,0c-0.1,0-0.1,0.1-0.1,0.1c0,0-0.1,0.1-0.1,0.1c0,0,0,0.1,0,0.1H51
					C51,26.7,50.9,26.6,50.9,26.5z"/>
				<path class="st13" d="M52.7,28.1v-1.8H52v-0.4c0.1,0,0.2,0,0.3,0c0.1,0,0.2,0,0.2-0.1s0.1-0.1,0.2-0.2c0.1-0.1,0.1-0.2,0.1-0.3
					h0.5v2.8H52.7z"/>
				<path class="st13" d="M55.6,27.9c-0.1,0.1-0.2,0.2-0.3,0.2c-0.1,0-0.2,0.1-0.4,0.1c-0.2,0-0.3,0-0.4-0.1
					c-0.1-0.1-0.2-0.1-0.3-0.2c-0.1-0.1-0.1-0.2-0.2-0.4c0-0.1-0.1-0.3-0.1-0.4c0-0.1,0-0.3,0.1-0.4c0-0.1,0.1-0.2,0.2-0.3
					c0.1-0.1,0.2-0.2,0.3-0.2C54.7,26,54.8,26,55,26c0.1,0,0.2,0,0.4,0.1c0.1,0.1,0.2,0.1,0.3,0.2h0v-1h0.6v2.9h-0.5L55.6,27.9
					L55.6,27.9z M55.6,26.8c0-0.1,0-0.1-0.1-0.2c0-0.1-0.1-0.1-0.1-0.1c-0.1,0-0.1-0.1-0.2-0.1c-0.1,0-0.2,0-0.2,0.1
					c-0.1,0-0.1,0.1-0.2,0.1c0,0.1-0.1,0.1-0.1,0.2c0,0.1,0,0.2,0,0.2c0,0.1,0,0.2,0,0.2c0,0.1,0,0.2,0.1,0.2s0.1,0.1,0.2,0.2
					c0.1,0,0.1,0.1,0.2,0.1c0.1,0,0.2,0,0.2-0.1c0.1,0,0.1-0.1,0.1-0.2c0-0.1,0.1-0.1,0.1-0.2c0-0.1,0-0.2,0-0.2
					S55.6,26.9,55.6,26.8z"/>
			</g>
		</g>
	</g>
</g>
</svg>
