<?xml version="1.0" encoding="utf-8"?>
<!-- Generator: Adobe Illustrator 26.0.3, SVG Export Plug-In . SVG Version: 6.00 Build 0)  -->
<svg version="1.1" id="Layer_2" xmlns="http://www.w3.org/2000/svg" xmlns:xlink="http://www.w3.org/1999/xlink" x="0px" y="0px"
	 viewBox="0 0 281.684 322.933" style="enable-background:new 0 0 281.684 322.933;" xml:space="preserve">
<style type="text/css">
	.st0{fill:none;stroke:#231F20;stroke-miterlimit:10;}
	.st1{fill:#231F20;}
	.st2{fill:none;stroke:#FFFFFF;stroke-width:4;stroke-miterlimit:10;}
	.st3{fill:none;stroke:#7B29CF;stroke-width:2;stroke-miterlimit:10;}
	.st4{fill:none;stroke:#007FFF;stroke-width:2;stroke-miterlimit:10;}
	.st5{fill:none;stroke:#7B29CF;stroke-width:2;stroke-miterlimit:10;stroke-dasharray:4.1077,4.1077;}
	.st6{fill:none;stroke:#7B29CF;stroke-width:2;stroke-miterlimit:10;stroke-dasharray:4.5839,4.5839;}
	.st7{fill:none;stroke:#7B29CF;stroke-width:2;stroke-miterlimit:10;stroke-dasharray:3.9871,3.9871;}
	.st8{fill:none;stroke:#FFFFFF;stroke-width:4;stroke-linecap:round;stroke-linejoin:round;stroke-miterlimit:10;}
	.st9{fill:none;stroke:#007FFF;stroke-width:2;stroke-linecap:round;stroke-linejoin:round;stroke-miterlimit:10;}
	.st10{fill:none;stroke:#7B29CF;stroke-width:2;stroke-linecap:round;stroke-linejoin:round;stroke-miterlimit:10;}
	.st11{fill:#FFFFFF;}
	.st12{fill:#929497;}
	.st13{fill:none;stroke:#007FFF;stroke-width:2;stroke-miterlimit:10;stroke-dasharray:4.075,4.075;}
	.st14{fill:none;stroke:#007FFF;stroke-width:2;stroke-miterlimit:10;stroke-dasharray:4.5581,4.5581;}
	.st15{fill:none;stroke:#007FFF;stroke-width:2;stroke-miterlimit:10;stroke-dasharray:4.9268,4.9268;}
</style>
<g>
	<rect x="32.667" y="72.198" class="st0" width="230.52" height="37.47"/>
	<line class="st0" x1="147.927" y1="72.175" x2="147.927" y2="109.952"/>
</g>
<g>
	<line class="st0" x1="150.025" y1="155.042" x2="150.025" y2="185.104"/>
	<g>
		<polygon class="st0" points="254.737,185.104 150.166,185.104 45.313,185.104 45.313,155.025 254.737,155.025 		"/>
		<g>
			<g>
				<rect x="56.714" y="167.433" class="st0" width="25.522" height="12.419"/>
				<line class="st0" x1="69.475" y1="179.852" x2="69.475" y2="167.433"/>
			</g>
			<g>
				<path class="st1" d="M78.177,163.294v0.76h-4.258c-0.006-0.19,0.025-0.374,0.092-0.549c0.108-0.29,0.282-0.576,0.521-0.857
					c0.238-0.281,0.583-0.606,1.035-0.976c0.7-0.574,1.173-1.029,1.419-1.364s0.369-0.653,0.369-0.952
					c0-0.313-0.112-0.578-0.336-0.793c-0.225-0.215-0.517-0.323-0.877-0.323c-0.381,0-0.686,0.114-0.914,0.343
					s-0.344,0.545-0.347,0.949l-0.813-0.083c0.056-0.606,0.265-1.068,0.628-1.387c0.363-0.317,0.851-0.477,1.463-0.477
					c0.618,0,1.107,0.171,1.468,0.514s0.541,0.768,0.541,1.274c0,0.258-0.053,0.511-0.158,0.76s-0.281,0.511-0.525,0.787
					c-0.245,0.275-0.651,0.653-1.22,1.134c-0.475,0.398-0.779,0.669-0.914,0.811s-0.246,0.285-0.334,0.428H78.177z"/>
			</g>
		</g>
		<g>
			<g>
				<rect x="110.275" y="167.433" class="st0" width="25.522" height="12.419"/>
				<line class="st0" x1="123.036" y1="179.852" x2="123.036" y2="167.433"/>
			</g>
			<g>
				<path class="st1" d="M113.896,162.354l0.791-0.105c0.091,0.448,0.245,0.771,0.464,0.969c0.218,0.197,0.484,0.296,0.797,0.296
					c0.372,0,0.686-0.129,0.943-0.387c0.256-0.258,0.384-0.577,0.384-0.958c0-0.363-0.119-0.663-0.356-0.899
					c-0.237-0.235-0.539-0.354-0.905-0.354c-0.149,0-0.335,0.029-0.558,0.088l0.088-0.694c0.053,0.006,0.095,0.009,0.127,0.009
					c0.337,0,0.64-0.088,0.91-0.264s0.404-0.447,0.404-0.813c0-0.29-0.098-0.53-0.294-0.721s-0.45-0.286-0.76-0.286
					c-0.308,0-0.564,0.097-0.769,0.29s-0.337,0.483-0.396,0.87l-0.791-0.141c0.097-0.53,0.316-0.941,0.659-1.232
					s0.769-0.438,1.279-0.438c0.352,0,0.675,0.076,0.971,0.227s0.522,0.356,0.679,0.617s0.235,0.538,0.235,0.831
					c0,0.278-0.075,0.532-0.224,0.76s-0.371,0.41-0.664,0.545c0.381,0.088,0.677,0.271,0.888,0.547
					c0.211,0.277,0.316,0.624,0.316,1.04c0,0.562-0.205,1.04-0.615,1.43c-0.41,0.392-0.929,0.587-1.556,0.587
					c-0.565,0-1.035-0.168-1.408-0.505C114.162,163.326,113.949,162.89,113.896,162.354z"/>
			</g>
			<g>
				<path class="st1" d="M130.117,164.054v-1.542h-2.795v-0.725l2.94-4.175h0.646v4.175h0.87v0.725h-0.87v1.542H130.117z
					 M130.117,161.787v-2.905l-2.017,2.905H130.117z"/>
			</g>
		</g>
		<g>
			<g>
				<rect x="161.735" y="167.433" class="st0" width="25.522" height="12.419"/>
				<line class="st0" x1="174.496" y1="179.852" x2="174.496" y2="167.433"/>
			</g>
			<g>
				<path class="st1" d="M183.198,163.294v0.76h-4.259c-0.006-0.19,0.025-0.374,0.093-0.549c0.108-0.29,0.281-0.576,0.521-0.857
					c0.238-0.281,0.584-0.606,1.035-0.976c0.7-0.574,1.173-1.029,1.419-1.364s0.369-0.653,0.369-0.952
					c0-0.313-0.112-0.578-0.336-0.793c-0.225-0.215-0.517-0.323-0.877-0.323c-0.381,0-0.686,0.114-0.914,0.343
					s-0.344,0.545-0.347,0.949l-0.813-0.083c0.056-0.606,0.266-1.068,0.629-1.387c0.363-0.317,0.851-0.477,1.463-0.477
					c0.618,0,1.107,0.171,1.468,0.514s0.541,0.768,0.541,1.274c0,0.258-0.053,0.511-0.158,0.76s-0.281,0.511-0.525,0.787
					c-0.245,0.275-0.651,0.653-1.22,1.134c-0.475,0.398-0.779,0.669-0.914,0.811s-0.246,0.285-0.334,0.428H183.198z"/>
			</g>
		</g>
		<g>
			<g>
				<rect x="215.297" y="167.433" class="st0" width="25.522" height="12.419"/>
				<line class="st0" x1="228.057" y1="179.852" x2="228.057" y2="167.433"/>
			</g>
			<g>
				<path class="st1" d="M218.917,162.354l0.791-0.105c0.091,0.448,0.245,0.771,0.464,0.969c0.218,0.197,0.483,0.296,0.797,0.296
					c0.372,0,0.687-0.129,0.943-0.387c0.256-0.258,0.384-0.577,0.384-0.958c0-0.363-0.118-0.663-0.355-0.899
					c-0.237-0.235-0.539-0.354-0.905-0.354c-0.149,0-0.336,0.029-0.559,0.088l0.088-0.694c0.053,0.006,0.096,0.009,0.128,0.009
					c0.337,0,0.64-0.088,0.909-0.264s0.404-0.447,0.404-0.813c0-0.29-0.098-0.53-0.294-0.721s-0.45-0.286-0.761-0.286
					c-0.308,0-0.563,0.097-0.769,0.29s-0.337,0.483-0.396,0.87l-0.791-0.141c0.097-0.53,0.316-0.941,0.659-1.232
					s0.769-0.438,1.278-0.438c0.352,0,0.676,0.076,0.972,0.227s0.521,0.356,0.679,0.617c0.156,0.261,0.235,0.538,0.235,0.831
					c0,0.278-0.075,0.532-0.225,0.76s-0.37,0.41-0.663,0.545c0.381,0.088,0.677,0.271,0.888,0.547
					c0.211,0.277,0.316,0.624,0.316,1.04c0,0.562-0.205,1.04-0.615,1.43c-0.41,0.392-0.929,0.587-1.556,0.587
					c-0.565,0-1.035-0.168-1.408-0.505C219.183,163.326,218.97,162.89,218.917,162.354z"/>
			</g>
			<g>
				<path class="st1" d="M235.139,164.054v-1.542h-2.795v-0.725l2.939-4.175h0.646v4.175h0.87v0.725h-0.87v1.542H235.139z
					 M235.139,161.787v-2.905l-2.018,2.905H235.139z"/>
			</g>
		</g>
	</g>
</g>
<g>
	<line class="st0" x1="150.025" y1="214.402" x2="150.025" y2="244.463"/>
	<g>
		<polygon class="st0" points="254.737,244.463 150.166,244.463 45.313,244.463 45.313,214.385 254.737,214.385 		"/>
		<g>
			<g>
				<rect x="56.714" y="226.792" class="st0" width="25.522" height="12.419"/>
				<line class="st0" x1="69.475" y1="239.211" x2="69.475" y2="226.792"/>
			</g>
			<g>
				<path class="st1" d="M63.309,224.446h-0.791v-5.041c-0.19,0.182-0.44,0.363-0.75,0.545s-0.586,0.318-0.833,0.409v-0.765
					c0.442-0.208,0.829-0.46,1.16-0.756s0.565-0.583,0.703-0.861h0.51V224.446z"/>
			</g>
			<g>
				<path class="st1" d="M78.177,223.685v0.761h-4.258c-0.006-0.19,0.025-0.374,0.092-0.55c0.108-0.29,0.282-0.575,0.521-0.856
					c0.238-0.281,0.583-0.606,1.035-0.976c0.7-0.574,1.173-1.029,1.419-1.364c0.246-0.336,0.369-0.653,0.369-0.952
					c0-0.313-0.112-0.577-0.336-0.793c-0.225-0.215-0.517-0.323-0.877-0.323c-0.381,0-0.686,0.114-0.914,0.343
					s-0.344,0.545-0.347,0.949l-0.813-0.083c0.056-0.606,0.265-1.068,0.628-1.387c0.363-0.317,0.851-0.477,1.463-0.477
					c0.618,0,1.107,0.171,1.468,0.514s0.541,0.768,0.541,1.274c0,0.258-0.053,0.512-0.158,0.761s-0.281,0.511-0.525,0.786
					c-0.245,0.275-0.651,0.653-1.22,1.134c-0.475,0.398-0.779,0.669-0.914,0.812c-0.135,0.142-0.246,0.284-0.334,0.428H78.177z"/>
			</g>
		</g>
		<g>
			<g>
				<rect x="110.275" y="226.792" class="st0" width="25.522" height="12.419"/>
				<line class="st0" x1="123.036" y1="239.211" x2="123.036" y2="226.792"/>
			</g>
			<g>
				<path class="st1" d="M113.896,222.745l0.791-0.105c0.091,0.448,0.245,0.771,0.464,0.97c0.218,0.197,0.484,0.296,0.797,0.296
					c0.372,0,0.686-0.129,0.943-0.387c0.256-0.258,0.384-0.577,0.384-0.958c0-0.363-0.119-0.662-0.356-0.898
					c-0.237-0.235-0.539-0.354-0.905-0.354c-0.149,0-0.335,0.029-0.558,0.088l0.088-0.694c0.053,0.006,0.095,0.009,0.127,0.009
					c0.337,0,0.64-0.088,0.91-0.264s0.404-0.447,0.404-0.813c0-0.29-0.098-0.53-0.294-0.721s-0.45-0.285-0.76-0.285
					c-0.308,0-0.564,0.097-0.769,0.29s-0.337,0.483-0.396,0.87l-0.791-0.141c0.097-0.53,0.316-0.941,0.659-1.232
					c0.343-0.292,0.769-0.438,1.279-0.438c0.352,0,0.675,0.075,0.971,0.227c0.296,0.15,0.522,0.356,0.679,0.617
					s0.235,0.537,0.235,0.83c0,0.278-0.075,0.532-0.224,0.761s-0.371,0.41-0.664,0.545c0.381,0.088,0.677,0.271,0.888,0.547
					c0.211,0.277,0.316,0.623,0.316,1.039c0,0.562-0.205,1.04-0.615,1.431c-0.41,0.392-0.929,0.587-1.556,0.587
					c-0.565,0-1.035-0.169-1.408-0.506C114.162,223.718,113.949,223.281,113.896,222.745z"/>
			</g>
			<g>
				<path class="st1" d="M130.117,224.446v-1.543h-2.795v-0.725l2.94-4.175h0.646v4.175h0.87v0.725h-0.87v1.543H130.117z
					 M130.117,222.178v-2.905l-2.017,2.905H130.117z"/>
			</g>
		</g>
		<g>
			<g>
				<rect x="161.735" y="226.792" class="st0" width="25.522" height="12.419"/>
				<line class="st0" x1="174.496" y1="239.211" x2="174.496" y2="226.792"/>
			</g>
			<g>
				<path class="st1" d="M168.33,224.446h-0.791v-5.041c-0.19,0.182-0.44,0.363-0.749,0.545c-0.31,0.182-0.587,0.318-0.833,0.409
					v-0.765c0.442-0.208,0.829-0.46,1.16-0.756s0.565-0.583,0.703-0.861h0.51V224.446z"/>
			</g>
			<g>
				<path class="st1" d="M183.198,223.685v0.761h-4.259c-0.006-0.19,0.025-0.374,0.093-0.55c0.108-0.29,0.281-0.575,0.521-0.856
					c0.238-0.281,0.584-0.606,1.035-0.976c0.7-0.574,1.173-1.029,1.419-1.364c0.246-0.336,0.369-0.653,0.369-0.952
					c0-0.313-0.112-0.577-0.336-0.793c-0.225-0.215-0.517-0.323-0.877-0.323c-0.381,0-0.686,0.114-0.914,0.343
					s-0.344,0.545-0.347,0.949l-0.813-0.083c0.056-0.606,0.266-1.068,0.629-1.387c0.363-0.317,0.851-0.477,1.463-0.477
					c0.618,0,1.107,0.171,1.468,0.514s0.541,0.768,0.541,1.274c0,0.258-0.053,0.512-0.158,0.761s-0.281,0.511-0.525,0.786
					c-0.245,0.275-0.651,0.653-1.22,1.134c-0.475,0.398-0.779,0.669-0.914,0.812c-0.135,0.142-0.246,0.284-0.334,0.428H183.198z"/>
			</g>
		</g>
		<g>
			<g>
				<rect x="215.297" y="226.792" class="st0" width="25.522" height="12.419"/>
				<line class="st0" x1="228.057" y1="239.211" x2="228.057" y2="226.792"/>
			</g>
			<g>
				<path class="st1" d="M218.917,222.745l0.791-0.105c0.091,0.448,0.245,0.771,0.464,0.97c0.218,0.197,0.483,0.296,0.797,0.296
					c0.372,0,0.687-0.129,0.943-0.387c0.256-0.258,0.384-0.577,0.384-0.958c0-0.363-0.118-0.662-0.355-0.898
					c-0.237-0.235-0.539-0.354-0.905-0.354c-0.149,0-0.336,0.029-0.559,0.088l0.088-0.694c0.053,0.006,0.096,0.009,0.128,0.009
					c0.337,0,0.64-0.088,0.909-0.264s0.404-0.447,0.404-0.813c0-0.29-0.098-0.53-0.294-0.721s-0.45-0.285-0.761-0.285
					c-0.308,0-0.563,0.097-0.769,0.29s-0.337,0.483-0.396,0.87l-0.791-0.141c0.097-0.53,0.316-0.941,0.659-1.232
					c0.343-0.292,0.769-0.438,1.278-0.438c0.352,0,0.676,0.075,0.972,0.227c0.296,0.15,0.521,0.356,0.679,0.617
					c0.156,0.261,0.235,0.537,0.235,0.83c0,0.278-0.075,0.532-0.225,0.761s-0.37,0.41-0.663,0.545
					c0.381,0.088,0.677,0.271,0.888,0.547c0.211,0.277,0.316,0.623,0.316,1.039c0,0.562-0.205,1.04-0.615,1.431
					c-0.41,0.392-0.929,0.587-1.556,0.587c-0.565,0-1.035-0.169-1.408-0.506C219.183,223.718,218.97,223.281,218.917,222.745z"/>
			</g>
			<g>
				<path class="st1" d="M235.139,224.446v-1.543h-2.795v-0.725l2.939-4.175h0.646v4.175h0.87v0.725h-0.87v1.543H235.139z
					 M235.139,222.178v-2.905l-2.018,2.905H235.139z"/>
			</g>
		</g>
	</g>
</g>
<g>
	<line class="st0" x1="150.025" y1="272.855" x2="150.025" y2="302.916"/>
	<g>
		<polygon class="st0" points="254.737,302.916 150.166,302.916 45.313,302.916 45.313,272.838 254.737,272.838 		"/>
		<g>
			<g>
				<rect x="56.714" y="285.245" class="st0" width="25.522" height="12.419"/>
				<line class="st0" x1="69.475" y1="297.664" x2="69.475" y2="285.245"/>
			</g>
			<g>
				<path class="st1" d="M63.309,282.899h-0.791v-5.041c-0.19,0.182-0.44,0.363-0.75,0.545s-0.586,0.318-0.833,0.409v-0.765
					c0.442-0.208,0.829-0.46,1.16-0.756s0.565-0.583,0.703-0.861h0.51V282.899z"/>
			</g>
			<g>
				<path class="st1" d="M78.177,282.138v0.761h-4.258c-0.006-0.19,0.025-0.374,0.092-0.55c0.108-0.29,0.282-0.575,0.521-0.856
					c0.238-0.281,0.583-0.606,1.035-0.976c0.7-0.574,1.173-1.029,1.419-1.364c0.246-0.336,0.369-0.653,0.369-0.952
					c0-0.313-0.112-0.577-0.336-0.793c-0.225-0.215-0.517-0.323-0.877-0.323c-0.381,0-0.686,0.114-0.914,0.343
					s-0.344,0.545-0.347,0.949l-0.813-0.083c0.056-0.606,0.265-1.068,0.628-1.387c0.363-0.317,0.851-0.477,1.463-0.477
					c0.618,0,1.107,0.171,1.468,0.514s0.541,0.768,0.541,1.274c0,0.258-0.053,0.512-0.158,0.761s-0.281,0.511-0.525,0.786
					c-0.245,0.275-0.651,0.653-1.22,1.134c-0.475,0.398-0.779,0.669-0.914,0.812c-0.135,0.142-0.246,0.284-0.334,0.428H78.177z"/>
			</g>
		</g>
		<g>
			<g>
				<rect x="110.275" y="285.245" class="st0" width="25.522" height="12.419"/>
				<line class="st0" x1="123.036" y1="297.664" x2="123.036" y2="285.245"/>
			</g>
			<g>
				<path class="st1" d="M113.896,281.198l0.791-0.105c0.091,0.448,0.245,0.771,0.464,0.97c0.218,0.197,0.484,0.296,0.797,0.296
					c0.372,0,0.686-0.129,0.943-0.387c0.256-0.258,0.384-0.577,0.384-0.958c0-0.363-0.119-0.662-0.356-0.898
					c-0.237-0.235-0.539-0.354-0.905-0.354c-0.149,0-0.335,0.029-0.558,0.088l0.088-0.694c0.053,0.006,0.095,0.009,0.127,0.009
					c0.337,0,0.64-0.088,0.91-0.264s0.404-0.447,0.404-0.813c0-0.29-0.098-0.53-0.294-0.721s-0.45-0.285-0.76-0.285
					c-0.308,0-0.564,0.097-0.769,0.29s-0.337,0.483-0.396,0.87l-0.791-0.141c0.097-0.53,0.316-0.941,0.659-1.232
					c0.343-0.292,0.769-0.438,1.279-0.438c0.352,0,0.675,0.075,0.971,0.227c0.296,0.15,0.522,0.356,0.679,0.617
					s0.235,0.537,0.235,0.83c0,0.278-0.075,0.532-0.224,0.761s-0.371,0.41-0.664,0.545c0.381,0.088,0.677,0.271,0.888,0.547
					c0.211,0.277,0.316,0.623,0.316,1.039c0,0.562-0.205,1.04-0.615,1.431c-0.41,0.392-0.929,0.587-1.556,0.587
					c-0.565,0-1.035-0.169-1.408-0.506C114.162,282.171,113.949,281.734,113.896,281.198z"/>
			</g>
			<g>
				<path class="st1" d="M130.117,282.899v-1.543h-2.795v-0.725l2.94-4.175h0.646v4.175h0.87v0.725h-0.87v1.543H130.117z
					 M130.117,280.632v-2.905l-2.017,2.905H130.117z"/>
			</g>
		</g>
		<g>
			<g>
				<rect x="161.735" y="285.245" class="st0" width="25.522" height="12.419"/>
				<line class="st0" x1="174.496" y1="297.664" x2="174.496" y2="285.245"/>
			</g>
			<g>
				<path class="st1" d="M168.33,282.899h-0.791v-5.041c-0.19,0.182-0.44,0.363-0.749,0.545c-0.31,0.182-0.587,0.318-0.833,0.409
					v-0.765c0.442-0.208,0.829-0.46,1.16-0.756s0.565-0.583,0.703-0.861h0.51V282.899z"/>
			</g>
			<g>
				<path class="st1" d="M183.198,282.138v0.761h-4.259c-0.006-0.19,0.025-0.374,0.093-0.55c0.108-0.29,0.281-0.575,0.521-0.856
					c0.238-0.281,0.584-0.606,1.035-0.976c0.7-0.574,1.173-1.029,1.419-1.364c0.246-0.336,0.369-0.653,0.369-0.952
					c0-0.313-0.112-0.577-0.336-0.793c-0.225-0.215-0.517-0.323-0.877-0.323c-0.381,0-0.686,0.114-0.914,0.343
					s-0.344,0.545-0.347,0.949l-0.813-0.083c0.056-0.606,0.266-1.068,0.629-1.387c0.363-0.317,0.851-0.477,1.463-0.477
					c0.618,0,1.107,0.171,1.468,0.514s0.541,0.768,0.541,1.274c0,0.258-0.053,0.512-0.158,0.761s-0.281,0.511-0.525,0.786
					c-0.245,0.275-0.651,0.653-1.22,1.134c-0.475,0.398-0.779,0.669-0.914,0.812c-0.135,0.142-0.246,0.284-0.334,0.428H183.198z"/>
			</g>
		</g>
		<g>
			<g>
				<rect x="215.297" y="285.245" class="st0" width="25.522" height="12.419"/>
				<line class="st0" x1="228.057" y1="297.664" x2="228.057" y2="285.245"/>
			</g>
			<g>
				<path class="st1" d="M218.917,281.198l0.791-0.105c0.091,0.448,0.245,0.771,0.464,0.97c0.218,0.197,0.483,0.296,0.797,0.296
					c0.372,0,0.687-0.129,0.943-0.387c0.256-0.258,0.384-0.577,0.384-0.958c0-0.363-0.118-0.662-0.355-0.898
					c-0.237-0.235-0.539-0.354-0.905-0.354c-0.149,0-0.336,0.029-0.559,0.088l0.088-0.694c0.053,0.006,0.096,0.009,0.128,0.009
					c0.337,0,0.64-0.088,0.909-0.264s0.404-0.447,0.404-0.813c0-0.29-0.098-0.53-0.294-0.721s-0.45-0.285-0.761-0.285
					c-0.308,0-0.563,0.097-0.769,0.29s-0.337,0.483-0.396,0.87l-0.791-0.141c0.097-0.53,0.316-0.941,0.659-1.232
					c0.343-0.292,0.769-0.438,1.278-0.438c0.352,0,0.676,0.075,0.972,0.227c0.296,0.15,0.521,0.356,0.679,0.617
					c0.156,0.261,0.235,0.537,0.235,0.83c0,0.278-0.075,0.532-0.225,0.761s-0.37,0.41-0.663,0.545
					c0.381,0.088,0.677,0.271,0.888,0.547c0.211,0.277,0.316,0.623,0.316,1.039c0,0.562-0.205,1.04-0.615,1.431
					c-0.41,0.392-0.929,0.587-1.556,0.587c-0.565,0-1.035-0.169-1.408-0.506C219.183,282.171,218.97,281.734,218.917,281.198z"/>
			</g>
			<g>
				<path class="st1" d="M235.139,282.899v-1.543h-2.795v-0.725l2.939-4.175h0.646v4.175h0.87v0.725h-0.87v1.543H235.139z
					 M235.139,280.632v-2.905l-2.018,2.905H235.139z"/>
			</g>
		</g>
	</g>
</g>
<g>
	<path class="st1" d="M69.848,53.74l1.261,0.4c-0.193,0.703-0.515,1.226-0.965,1.566c-0.45,0.342-1.02,0.512-1.711,0.512
		c-0.855,0-1.559-0.292-2.109-0.876c-0.551-0.585-0.826-1.384-0.826-2.397c0-1.072,0.277-1.905,0.831-2.498
		c0.554-0.594,1.282-0.89,2.184-0.89c0.788,0,1.428,0.233,1.92,0.699c0.293,0.275,0.513,0.671,0.659,1.187l-1.288,0.308
		c-0.076-0.334-0.235-0.598-0.477-0.791c-0.241-0.193-0.535-0.29-0.881-0.29c-0.478,0-0.865,0.171-1.162,0.514
		c-0.298,0.343-0.446,0.898-0.446,1.666c0,0.814,0.146,1.395,0.439,1.74s0.674,0.519,1.143,0.519c0.346,0,0.643-0.11,0.892-0.33
		S69.739,54.212,69.848,53.74z"/>
	<path class="st1" d="M71.931,53.71c0-0.41,0.101-0.807,0.303-1.191s0.488-0.677,0.859-0.879s0.785-0.303,1.242-0.303
		c0.706,0,1.285,0.229,1.736,0.688c0.451,0.459,0.677,1.038,0.677,1.738c0,0.706-0.228,1.292-0.684,1.756s-1.029,0.696-1.72,0.696
		c-0.428,0-0.836-0.097-1.224-0.29s-0.683-0.477-0.885-0.851C72.032,54.701,71.931,54.246,71.931,53.71z M73.196,53.776
		c0,0.463,0.11,0.817,0.33,1.063s0.491,0.369,0.813,0.369s0.592-0.123,0.811-0.369s0.328-0.604,0.328-1.072
		c0-0.457-0.109-0.809-0.328-1.055s-0.488-0.369-0.811-0.369s-0.593,0.123-0.813,0.369S73.196,53.313,73.196,53.776z"/>
	<path class="st1" d="M81.959,56.109h-1.235v-2.382c0-0.504-0.026-0.83-0.079-0.978s-0.139-0.263-0.257-0.345
		c-0.119-0.082-0.262-0.123-0.429-0.123c-0.214,0-0.406,0.059-0.576,0.176s-0.287,0.272-0.349,0.466
		c-0.063,0.193-0.095,0.551-0.095,1.072v2.114h-1.235v-4.667h1.147v0.686c0.407-0.527,0.92-0.791,1.538-0.791
		c0.272,0,0.521,0.049,0.747,0.147s0.396,0.223,0.512,0.375s0.196,0.325,0.242,0.519c0.045,0.193,0.068,0.47,0.068,0.831V56.109z"/>
	<path class="st1" d="M85.352,51.442v0.984h-0.844v1.881c0,0.381,0.008,0.603,0.024,0.666c0.016,0.063,0.053,0.115,0.109,0.156
		c0.058,0.041,0.127,0.062,0.209,0.062c0.114,0,0.28-0.04,0.497-0.119l0.105,0.958c-0.287,0.123-0.612,0.185-0.976,0.185
		c-0.223,0-0.423-0.037-0.602-0.112c-0.179-0.074-0.31-0.171-0.394-0.29c-0.083-0.118-0.141-0.279-0.173-0.481
		c-0.026-0.144-0.04-0.434-0.04-0.87v-2.035h-0.567v-0.984h0.567v-0.927l1.239-0.721v1.648H85.352z"/>
	<path class="st1" d="M87.391,56.109h-1.235v-4.667h1.147v0.664c0.196-0.313,0.373-0.52,0.529-0.62s0.335-0.149,0.534-0.149
		c0.281,0,0.552,0.078,0.813,0.233l-0.382,1.077c-0.208-0.135-0.401-0.202-0.58-0.202c-0.173,0-0.319,0.048-0.439,0.143
		c-0.12,0.096-0.215,0.268-0.283,0.517c-0.069,0.249-0.104,0.771-0.104,1.564V56.109z"/>
	<path class="st1" d="M89.425,53.71c0-0.41,0.101-0.807,0.303-1.191s0.488-0.677,0.859-0.879s0.785-0.303,1.242-0.303
		c0.706,0,1.285,0.229,1.736,0.688c0.451,0.459,0.677,1.038,0.677,1.738c0,0.706-0.228,1.292-0.684,1.756s-1.029,0.696-1.72,0.696
		c-0.428,0-0.836-0.097-1.224-0.29s-0.683-0.477-0.885-0.851C89.526,54.701,89.425,54.246,89.425,53.71z M90.691,53.776
		c0,0.463,0.11,0.817,0.33,1.063s0.491,0.369,0.813,0.369s0.592-0.123,0.811-0.369s0.328-0.604,0.328-1.072
		c0-0.457-0.109-0.809-0.328-1.055s-0.488-0.369-0.811-0.369s-0.593,0.123-0.813,0.369S90.691,53.313,90.691,53.776z"/>
	<path class="st1" d="M95.208,56.109v-6.442h1.235v6.442H95.208z"/>
	<path class="st1" d="M97.709,56.109v-6.442h1.235v6.442H97.709z"/>
	<path class="st1" d="M102.912,54.624l1.23,0.207c-0.158,0.451-0.408,0.795-0.749,1.031c-0.342,0.236-0.769,0.354-1.281,0.354
		c-0.812,0-1.412-0.265-1.802-0.795c-0.308-0.425-0.461-0.961-0.461-1.608c0-0.773,0.202-1.379,0.606-1.817s0.916-0.657,1.534-0.657
		c0.694,0,1.242,0.229,1.644,0.688c0.401,0.459,0.593,1.161,0.576,2.107h-3.094c0.009,0.366,0.108,0.651,0.299,0.854
		c0.19,0.204,0.428,0.306,0.712,0.306c0.193,0,0.356-0.053,0.488-0.158S102.845,54.858,102.912,54.624z M102.982,53.376
		c-0.009-0.357-0.101-0.629-0.277-0.815c-0.176-0.186-0.39-0.279-0.642-0.279c-0.27,0-0.492,0.098-0.668,0.294
		s-0.262,0.463-0.259,0.8H102.982z"/>
	<path class="st1" d="M106.397,56.109h-1.235v-4.667h1.147v0.664c0.196-0.313,0.373-0.52,0.529-0.62s0.335-0.149,0.534-0.149
		c0.281,0,0.552,0.078,0.813,0.233l-0.382,1.077c-0.208-0.135-0.401-0.202-0.58-0.202c-0.173,0-0.319,0.048-0.439,0.143
		c-0.12,0.096-0.215,0.268-0.283,0.517c-0.069,0.249-0.104,0.771-0.104,1.564V56.109z"/>
	<path class="st1" d="M114.114,56.109h-1.235v-4.654c-0.451,0.422-0.983,0.734-1.595,0.936v-1.121c0.322-0.105,0.672-0.305,1.05-0.6
		c0.378-0.294,0.637-0.638,0.778-1.03h1.002V56.109z"/>
</g>
<g>
	<path class="st1" d="M46.953,19.748l2.749-7.158h1.021l2.93,7.158h-1.079l-0.835-2.168h-2.993l-0.786,2.168H46.953z M49.019,16.808
		h2.427l-0.747-1.982c-0.228-0.602-0.397-1.097-0.508-1.484c-0.091,0.459-0.22,0.915-0.386,1.367L49.019,16.808z"/>
	<path class="st1" d="M54.458,19.748V12.59h4.829v0.845h-3.882v2.217h3.359v0.845h-3.359v3.252H54.458z"/>
	<path class="st1" d="M60.566,19.748V12.59h4.829v0.845h-3.882v2.217h3.359v0.845h-3.359v3.252H60.566z"/>
	<path class="st1" d="M72.676,19.108c-0.326,0.277-0.639,0.472-0.94,0.586s-0.624,0.171-0.969,0.171
		c-0.57,0-1.007-0.139-1.313-0.417s-0.459-0.634-0.459-1.067c0-0.254,0.058-0.486,0.173-0.696s0.267-0.378,0.454-0.505
		s0.398-0.223,0.632-0.288c0.172-0.045,0.433-0.089,0.781-0.132c0.709-0.084,1.232-0.186,1.567-0.303
		c0.003-0.121,0.005-0.197,0.005-0.229c0-0.358-0.083-0.61-0.249-0.757c-0.225-0.199-0.558-0.298-1.001-0.298
		c-0.414,0-0.719,0.072-0.916,0.217s-0.343,0.401-0.437,0.769l-0.859-0.117c0.078-0.368,0.207-0.665,0.386-0.891
		s0.438-0.4,0.776-0.522s0.731-0.183,1.177-0.183c0.443,0,0.802,0.052,1.079,0.156s0.48,0.235,0.61,0.393s0.221,0.357,0.273,0.598
		c0.029,0.15,0.044,0.42,0.044,0.811v1.172c0,0.817,0.019,1.334,0.056,1.55s0.111,0.424,0.222,0.623h-0.918
		C72.76,19.566,72.702,19.352,72.676,19.108z M72.603,17.145c-0.319,0.13-0.797,0.241-1.436,0.332
		c-0.361,0.052-0.617,0.111-0.767,0.176s-0.265,0.16-0.347,0.286s-0.122,0.265-0.122,0.417c0,0.234,0.089,0.43,0.266,0.586
		s0.437,0.234,0.779,0.234c0.338,0,0.64-0.074,0.903-0.222s0.458-0.351,0.581-0.608c0.094-0.199,0.142-0.492,0.142-0.879V17.145z"/>
	<path class="st1" d="M74.854,19.748v-5.186h0.791V15.3c0.381-0.57,0.931-0.854,1.65-0.854c0.312,0,0.6,0.056,0.862,0.168
		s0.458,0.26,0.588,0.442s0.221,0.399,0.273,0.649c0.033,0.163,0.049,0.448,0.049,0.854v3.188h-0.879v-3.154
		c0-0.358-0.034-0.626-0.103-0.803s-0.189-0.319-0.364-0.425s-0.378-0.159-0.613-0.159c-0.375,0-0.697,0.119-0.969,0.356
		s-0.408,0.688-0.408,1.353v2.832H74.854z"/>
	<path class="st1" d="M83.779,19.748v-0.654c-0.329,0.514-0.812,0.771-1.45,0.771c-0.414,0-0.793-0.114-1.14-0.342
		s-0.615-0.546-0.806-0.955s-0.286-0.878-0.286-1.409c0-0.518,0.086-0.987,0.259-1.409c0.172-0.421,0.431-0.745,0.776-0.969
		s0.731-0.337,1.157-0.337c0.312,0,0.591,0.066,0.835,0.198s0.443,0.304,0.596,0.515V12.59h0.874v7.158H83.779z M81.001,17.16
		c0,0.664,0.14,1.161,0.42,1.489s0.61,0.493,0.991,0.493c0.384,0,0.71-0.157,0.979-0.471s0.403-0.793,0.403-1.438
		c0-0.709-0.137-1.23-0.41-1.562c-0.273-0.332-0.61-0.498-1.011-0.498c-0.391,0-0.717,0.16-0.979,0.479S81.001,16.473,81.001,17.16z
		"/>
	<path class="st1" d="M88.916,19.748V12.59h4.829v0.845h-3.882v2.217h3.359v0.845h-3.359v3.252H88.916z"/>
	<path class="st1" d="M93.638,19.748l2.749-7.158h1.021l2.93,7.158h-1.079l-0.835-2.168H95.43l-0.786,2.168H93.638z M95.703,16.808
		h2.427l-0.747-1.982c-0.228-0.602-0.397-1.097-0.508-1.484c-0.091,0.459-0.22,0.915-0.386,1.367L95.703,16.808z"/>
	<path class="st1" d="M100.771,17.448l0.894-0.078c0.042,0.358,0.141,0.652,0.295,0.881s0.395,0.415,0.72,0.557
		s0.692,0.212,1.099,0.212c0.361,0,0.68-0.054,0.957-0.161s0.482-0.255,0.618-0.442s0.203-0.392,0.203-0.613
		c0-0.225-0.065-0.421-0.195-0.588s-0.345-0.309-0.645-0.422c-0.192-0.075-0.617-0.191-1.274-0.349s-1.118-0.307-1.382-0.447
		c-0.342-0.179-0.597-0.401-0.764-0.667s-0.251-0.562-0.251-0.891c0-0.361,0.103-0.699,0.308-1.013s0.504-0.553,0.898-0.715
		s0.832-0.244,1.313-0.244c0.531,0,0.999,0.085,1.404,0.256s0.717,0.422,0.935,0.754s0.335,0.708,0.352,1.128l-0.908,0.068
		c-0.049-0.453-0.214-0.794-0.496-1.025s-0.697-0.347-1.248-0.347c-0.573,0-0.99,0.105-1.252,0.315s-0.393,0.463-0.393,0.759
		c0,0.257,0.093,0.469,0.278,0.635c0.182,0.166,0.658,0.336,1.428,0.51s1.298,0.326,1.584,0.457c0.417,0.192,0.724,0.436,0.923,0.73
		s0.298,0.634,0.298,1.018c0,0.381-0.109,0.74-0.327,1.077s-0.531,0.599-0.94,0.786s-0.868,0.281-1.379,0.281
		c-0.648,0-1.19-0.094-1.628-0.283s-0.781-0.473-1.03-0.852S100.785,17.927,100.771,17.448z"/>
	<path class="st1" d="M110.43,21.735v-7.173h0.801v0.674c0.189-0.264,0.402-0.461,0.64-0.593s0.526-0.198,0.864-0.198
		c0.443,0,0.833,0.114,1.172,0.342s0.594,0.549,0.767,0.964c0.172,0.415,0.259,0.87,0.259,1.365c0,0.531-0.095,1.008-0.286,1.433
		s-0.467,0.75-0.83,0.977s-0.745,0.339-1.145,0.339c-0.293,0-0.556-0.062-0.789-0.186s-0.424-0.28-0.574-0.469v2.524H110.43z
		 M111.226,17.184c0,0.667,0.135,1.161,0.405,1.479s0.597,0.479,0.981,0.479c0.391,0,0.725-0.165,1.003-0.496
		s0.417-0.842,0.417-1.536c0-0.661-0.136-1.156-0.408-1.484s-0.597-0.493-0.974-0.493c-0.375,0-0.706,0.175-0.994,0.525
		C111.37,16.009,111.226,16.517,111.226,17.184z"/>
	<path class="st1" d="M115.972,19.748V12.59h0.879v7.158H115.972z"/>
	<path class="st1" d="M121.597,19.108c-0.326,0.277-0.639,0.472-0.94,0.586s-0.624,0.171-0.969,0.171
		c-0.57,0-1.007-0.139-1.313-0.417s-0.459-0.634-0.459-1.067c0-0.254,0.058-0.486,0.173-0.696s0.267-0.378,0.454-0.505
		s0.398-0.223,0.632-0.288c0.172-0.045,0.433-0.089,0.781-0.132c0.709-0.084,1.232-0.186,1.567-0.303
		c0.003-0.121,0.005-0.197,0.005-0.229c0-0.358-0.083-0.61-0.249-0.757c-0.225-0.199-0.558-0.298-1.001-0.298
		c-0.414,0-0.719,0.072-0.916,0.217s-0.343,0.401-0.437,0.769l-0.859-0.117c0.078-0.368,0.207-0.665,0.386-0.891
		s0.438-0.4,0.776-0.522s0.731-0.183,1.177-0.183c0.443,0,0.802,0.052,1.079,0.156s0.48,0.235,0.61,0.393s0.221,0.357,0.273,0.598
		c0.029,0.15,0.044,0.42,0.044,0.811v1.172c0,0.817,0.019,1.334,0.056,1.55s0.111,0.424,0.222,0.623h-0.918
		C121.681,19.566,121.623,19.352,121.597,19.108z M121.523,17.145c-0.319,0.13-0.797,0.241-1.436,0.332
		c-0.361,0.052-0.617,0.111-0.767,0.176s-0.265,0.16-0.347,0.286s-0.122,0.265-0.122,0.417c0,0.234,0.089,0.43,0.266,0.586
		s0.437,0.234,0.779,0.234c0.338,0,0.64-0.074,0.903-0.222s0.458-0.351,0.581-0.608c0.094-0.199,0.142-0.492,0.142-0.879V17.145z"/>
	<path class="st1" d="M125.693,18.962l0.127,0.776c-0.248,0.052-0.469,0.078-0.664,0.078c-0.319,0-0.566-0.05-0.742-0.151
		s-0.299-0.233-0.371-0.398s-0.107-0.51-0.107-1.038v-2.983h-0.645v-0.684h0.645v-1.284l0.874-0.527v1.812h0.884v0.684h-0.884v3.032
		c0,0.25,0.016,0.412,0.046,0.483s0.082,0.128,0.151,0.171s0.17,0.063,0.3,0.063C125.405,18.996,125.534,18.985,125.693,18.962z"/>
	<path class="st1" d="M126.763,19.748v-4.502h-0.776v-0.684h0.776v-0.552c0-0.348,0.031-0.607,0.093-0.776
		c0.084-0.228,0.233-0.413,0.447-0.554s0.512-0.212,0.896-0.212c0.248,0,0.521,0.029,0.82,0.088l-0.132,0.767
		c-0.182-0.033-0.355-0.049-0.518-0.049c-0.267,0-0.456,0.057-0.566,0.171s-0.166,0.327-0.166,0.64v0.479h1.011v0.684h-1.011v4.502
		H126.763z"/>
	<path class="st1" d="M129.004,17.155c0-0.96,0.267-1.671,0.801-2.134c0.446-0.384,0.99-0.576,1.631-0.576
		c0.713,0,1.295,0.233,1.748,0.701s0.679,1.112,0.679,1.936c0,0.667-0.1,1.192-0.3,1.575s-0.492,0.68-0.874,0.891
		s-0.8,0.317-1.252,0.317c-0.726,0-1.312-0.233-1.76-0.698S129.004,18.031,129.004,17.155z M129.907,17.155
		c0,0.664,0.145,1.161,0.435,1.492s0.654,0.496,1.094,0.496c0.436,0,0.799-0.166,1.089-0.498s0.435-0.838,0.435-1.519
		c0-0.641-0.146-1.127-0.437-1.458s-0.653-0.496-1.086-0.496c-0.439,0-0.804,0.165-1.094,0.493S129.907,16.491,129.907,17.155z"/>
	<path class="st1" d="M134.883,19.748v-5.186h0.791v0.786c0.202-0.368,0.388-0.61,0.559-0.728s0.359-0.176,0.564-0.176
		c0.296,0,0.597,0.094,0.903,0.283l-0.303,0.815c-0.215-0.127-0.43-0.19-0.645-0.19c-0.192,0-0.365,0.058-0.518,0.173
		s-0.262,0.276-0.327,0.481c-0.098,0.312-0.146,0.654-0.146,1.025v2.715H134.883z"/>
	<path class="st1" d="M138.223,19.748v-5.186h0.786v0.728c0.163-0.254,0.379-0.458,0.649-0.613s0.578-0.232,0.923-0.232
		c0.384,0,0.699,0.08,0.945,0.239s0.419,0.382,0.52,0.669c0.41-0.605,0.944-0.908,1.602-0.908c0.514,0,0.91,0.143,1.187,0.427
		s0.415,0.724,0.415,1.316v3.56h-0.874v-3.267c0-0.352-0.028-0.604-0.085-0.759c-0.058-0.155-0.16-0.279-0.311-0.374
		c-0.15-0.094-0.326-0.142-0.527-0.142c-0.365,0-0.667,0.121-0.908,0.364s-0.361,0.631-0.361,1.165v3.013h-0.879v-3.369
		c0-0.391-0.072-0.684-0.215-0.879s-0.377-0.293-0.703-0.293c-0.248,0-0.476,0.065-0.686,0.195s-0.362,0.321-0.457,0.571
		c-0.094,0.25-0.142,0.612-0.142,1.084v2.69H138.223z"/>
	<path class="st1" d="M146.201,18.2l0.869-0.137c0.049,0.348,0.185,0.615,0.407,0.801c0.224,0.186,0.535,0.278,0.936,0.278
		c0.403,0,0.703-0.082,0.898-0.247s0.293-0.357,0.293-0.579c0-0.199-0.086-0.355-0.259-0.469c-0.12-0.078-0.42-0.177-0.898-0.298
		c-0.645-0.163-1.091-0.304-1.341-0.422c-0.248-0.119-0.438-0.283-0.566-0.493c-0.128-0.21-0.192-0.442-0.192-0.696
		c0-0.231,0.053-0.445,0.159-0.642c0.105-0.197,0.249-0.36,0.432-0.491c0.137-0.101,0.323-0.187,0.559-0.256
		c0.236-0.07,0.489-0.105,0.76-0.105c0.407,0,0.764,0.059,1.072,0.176c0.307,0.117,0.534,0.276,0.681,0.476s0.247,0.468,0.303,0.803
		l-0.859,0.117c-0.039-0.267-0.152-0.475-0.339-0.625c-0.188-0.15-0.452-0.225-0.794-0.225c-0.403,0-0.691,0.067-0.864,0.2
		s-0.259,0.29-0.259,0.469c0,0.114,0.036,0.216,0.107,0.308c0.071,0.094,0.184,0.172,0.337,0.234
		c0.088,0.033,0.347,0.107,0.776,0.225c0.622,0.166,1.056,0.302,1.302,0.408c0.245,0.106,0.438,0.26,0.578,0.461
		s0.21,0.453,0.21,0.752c0,0.293-0.085,0.569-0.257,0.828c-0.17,0.259-0.417,0.459-0.739,0.601s-0.687,0.212-1.094,0.212
		c-0.674,0-1.188-0.14-1.54-0.42C146.524,19.165,146.299,18.75,146.201,18.2z"/>
	<path class="st1" d="M155.288,19.748l-1.587-5.186h0.908l0.825,2.993l0.308,1.113c0.013-0.055,0.103-0.412,0.269-1.069l0.825-3.037
		h0.903l0.776,3.008l0.259,0.991l0.298-1.001l0.889-2.998h0.854l-1.621,5.186h-0.913l-0.825-3.105l-0.2-0.884l-1.05,3.989H155.288z"
		/>
	<path class="st1" d="M161.558,13.6V12.59h0.879V13.6H161.558z M161.558,19.748v-5.186h0.879v5.186H161.558z"/>
	<path class="st1" d="M165.693,18.962l0.127,0.776c-0.247,0.052-0.469,0.078-0.664,0.078c-0.319,0-0.566-0.05-0.742-0.151
		s-0.3-0.233-0.371-0.398s-0.107-0.51-0.107-1.038v-2.983h-0.645v-0.684h0.645v-1.284l0.874-0.527v1.812h0.884v0.684h-0.884v3.032
		c0,0.25,0.016,0.412,0.046,0.483c0.031,0.072,0.082,0.128,0.152,0.171c0.069,0.042,0.17,0.063,0.3,0.063
		C165.405,18.996,165.534,18.985,165.693,18.962z"/>
	<path class="st1" d="M166.553,19.748V12.59h0.879v2.568c0.41-0.475,0.928-0.713,1.553-0.713c0.384,0,0.718,0.076,1.001,0.227
		s0.486,0.36,0.607,0.627c0.123,0.267,0.184,0.654,0.184,1.162v3.286h-0.879v-3.286c0-0.439-0.096-0.759-0.285-0.959
		c-0.191-0.2-0.46-0.3-0.809-0.3c-0.261,0-0.506,0.067-0.734,0.203c-0.23,0.135-0.394,0.318-0.491,0.549
		c-0.098,0.231-0.146,0.55-0.146,0.957v2.837H166.553z"/>
	<path class="st1" d="M174.565,17.155c0-0.96,0.267-1.671,0.801-2.134c0.446-0.384,0.989-0.576,1.631-0.576
		c0.713,0,1.296,0.233,1.748,0.701s0.679,1.112,0.679,1.936c0,0.667-0.101,1.192-0.3,1.575c-0.201,0.382-0.492,0.68-0.875,0.891
		c-0.382,0.211-0.8,0.317-1.252,0.317c-0.726,0-1.312-0.233-1.76-0.698C174.789,18.701,174.565,18.031,174.565,17.155z
		 M175.469,17.155c0,0.664,0.145,1.161,0.435,1.492s0.654,0.496,1.094,0.496c0.437,0,0.799-0.166,1.089-0.498
		s0.435-0.838,0.435-1.519c0-0.641-0.146-1.127-0.438-1.458c-0.291-0.331-0.653-0.496-1.086-0.496c-0.439,0-0.804,0.165-1.094,0.493
		S175.469,16.491,175.469,17.155z"/>
	<path class="st1" d="M180.454,19.748v-5.186h0.791V15.3c0.381-0.57,0.931-0.854,1.65-0.854c0.312,0,0.6,0.056,0.862,0.168
		c0.262,0.112,0.458,0.26,0.588,0.442s0.222,0.399,0.273,0.649c0.032,0.163,0.049,0.448,0.049,0.854v3.188h-0.879v-3.154
		c0-0.358-0.034-0.626-0.103-0.803s-0.189-0.319-0.364-0.425c-0.174-0.106-0.378-0.159-0.612-0.159c-0.374,0-0.697,0.119-0.97,0.356
		c-0.271,0.238-0.407,0.688-0.407,1.353v2.832H180.454z"/>
	<path class="st1" d="M186.826,19.748h-0.815V12.59h0.879v2.554c0.371-0.465,0.845-0.698,1.421-0.698
		c0.319,0,0.621,0.064,0.905,0.193c0.285,0.128,0.52,0.309,0.703,0.542c0.185,0.233,0.328,0.514,0.433,0.842
		c0.104,0.329,0.156,0.68,0.156,1.055c0,0.889-0.22,1.576-0.659,2.061s-0.967,0.728-1.582,0.728c-0.612,0-1.092-0.255-1.44-0.767
		V19.748z M186.816,17.116c0,0.622,0.085,1.071,0.254,1.348c0.276,0.453,0.651,0.679,1.123,0.679c0.384,0,0.716-0.167,0.996-0.5
		s0.42-0.831,0.42-1.492c0-0.677-0.134-1.177-0.403-1.499c-0.268-0.322-0.593-0.483-0.974-0.483c-0.384,0-0.716,0.167-0.996,0.5
		C186.956,16.002,186.816,16.485,186.816,17.116z"/>
	<path class="st1" d="M191.25,17.155c0-0.96,0.267-1.671,0.801-2.134c0.446-0.384,0.989-0.576,1.631-0.576
		c0.713,0,1.296,0.233,1.748,0.701s0.679,1.112,0.679,1.936c0,0.667-0.101,1.192-0.3,1.575c-0.201,0.382-0.492,0.68-0.875,0.891
		c-0.382,0.211-0.8,0.317-1.252,0.317c-0.726,0-1.312-0.233-1.76-0.698C191.474,18.701,191.25,18.031,191.25,17.155z
		 M192.153,17.155c0,0.664,0.145,1.161,0.435,1.492s0.654,0.496,1.094,0.496c0.437,0,0.799-0.166,1.089-0.498
		s0.435-0.838,0.435-1.519c0-0.641-0.146-1.127-0.438-1.458c-0.291-0.331-0.653-0.496-1.086-0.496c-0.439,0-0.804,0.165-1.094,0.493
		S192.153,16.491,192.153,17.155z"/>
	<path class="st1" d="M200.522,19.108c-0.325,0.277-0.639,0.472-0.939,0.586c-0.302,0.114-0.625,0.171-0.97,0.171
		c-0.569,0-1.008-0.139-1.313-0.417s-0.459-0.634-0.459-1.067c0-0.254,0.058-0.486,0.174-0.696c0.115-0.21,0.267-0.378,0.453-0.505
		c0.188-0.127,0.398-0.223,0.633-0.288c0.173-0.045,0.433-0.089,0.781-0.132c0.71-0.084,1.232-0.186,1.567-0.303
		c0.003-0.121,0.005-0.197,0.005-0.229c0-0.358-0.083-0.61-0.249-0.757c-0.225-0.199-0.559-0.298-1.001-0.298
		c-0.413,0-0.719,0.072-0.916,0.217c-0.196,0.145-0.342,0.401-0.437,0.769l-0.859-0.117c0.078-0.368,0.207-0.665,0.386-0.891
		s0.438-0.4,0.776-0.522s0.73-0.183,1.177-0.183c0.442,0,0.803,0.052,1.079,0.156s0.48,0.235,0.61,0.393s0.222,0.357,0.273,0.598
		c0.029,0.15,0.044,0.42,0.044,0.811v1.172c0,0.817,0.019,1.334,0.056,1.55c0.038,0.216,0.112,0.424,0.223,0.623h-0.918
		C200.607,19.566,200.549,19.352,200.522,19.108z M200.449,17.145c-0.319,0.13-0.798,0.241-1.436,0.332
		c-0.361,0.052-0.617,0.111-0.767,0.176s-0.266,0.16-0.347,0.286s-0.122,0.265-0.122,0.417c0,0.234,0.089,0.43,0.266,0.586
		c0.178,0.156,0.438,0.234,0.779,0.234c0.339,0,0.64-0.074,0.903-0.222s0.457-0.351,0.581-0.608
		c0.095-0.199,0.142-0.492,0.142-0.879V17.145z"/>
	<path class="st1" d="M202.69,19.748v-5.186h0.791v0.786c0.202-0.368,0.388-0.61,0.56-0.728c0.17-0.117,0.358-0.176,0.563-0.176
		c0.296,0,0.598,0.094,0.903,0.283l-0.303,0.815c-0.215-0.127-0.43-0.19-0.645-0.19c-0.192,0-0.364,0.058-0.518,0.173
		s-0.262,0.276-0.327,0.481c-0.098,0.312-0.146,0.654-0.146,1.025v2.715H202.69z"/>
	<path class="st1" d="M209.395,19.748v-0.654c-0.329,0.514-0.812,0.771-1.45,0.771c-0.413,0-0.794-0.114-1.14-0.342
		c-0.348-0.228-0.615-0.546-0.807-0.955c-0.189-0.409-0.285-0.878-0.285-1.409c0-0.518,0.086-0.987,0.259-1.409
		c0.173-0.421,0.432-0.745,0.776-0.969s0.73-0.337,1.157-0.337c0.312,0,0.591,0.066,0.835,0.198s0.442,0.304,0.596,0.515V12.59
		h0.874v7.158H209.395z M206.616,17.16c0,0.664,0.14,1.161,0.42,1.489s0.61,0.493,0.991,0.493c0.384,0,0.711-0.157,0.979-0.471
		c0.27-0.314,0.403-0.793,0.403-1.438c0-0.709-0.137-1.23-0.41-1.562c-0.273-0.332-0.61-0.498-1.011-0.498
		c-0.391,0-0.717,0.16-0.979,0.479C206.747,15.97,206.616,16.473,206.616,17.16z"/>
	<path class="st1" d="M214.019,18.2l0.869-0.137c0.049,0.348,0.185,0.615,0.407,0.801c0.224,0.186,0.535,0.278,0.936,0.278
		c0.403,0,0.703-0.082,0.898-0.247s0.293-0.357,0.293-0.579c0-0.199-0.086-0.355-0.259-0.469c-0.12-0.078-0.42-0.177-0.898-0.298
		c-0.645-0.163-1.091-0.304-1.341-0.422c-0.248-0.119-0.438-0.283-0.566-0.493c-0.128-0.21-0.192-0.442-0.192-0.696
		c0-0.231,0.053-0.445,0.159-0.642c0.105-0.197,0.249-0.36,0.432-0.491c0.137-0.101,0.323-0.187,0.559-0.256
		c0.236-0.07,0.489-0.105,0.76-0.105c0.407,0,0.764,0.059,1.072,0.176c0.307,0.117,0.534,0.276,0.681,0.476s0.247,0.468,0.303,0.803
		l-0.859,0.117c-0.039-0.267-0.152-0.475-0.339-0.625c-0.188-0.15-0.452-0.225-0.794-0.225c-0.403,0-0.691,0.067-0.864,0.2
		s-0.259,0.29-0.259,0.469c0,0.114,0.036,0.216,0.107,0.308c0.071,0.094,0.184,0.172,0.337,0.234
		c0.088,0.033,0.347,0.107,0.776,0.225c0.622,0.166,1.056,0.302,1.302,0.408c0.245,0.106,0.438,0.26,0.578,0.461
		s0.21,0.453,0.21,0.752c0,0.293-0.085,0.569-0.257,0.828c-0.17,0.259-0.417,0.459-0.739,0.601s-0.687,0.212-1.094,0.212
		c-0.674,0-1.188-0.14-1.54-0.42C214.342,19.165,214.116,18.75,214.019,18.2z"/>
	<path class="st1" d="M221.289,18.962l0.127,0.776c-0.247,0.052-0.469,0.078-0.664,0.078c-0.319,0-0.566-0.05-0.742-0.151
		s-0.3-0.233-0.371-0.398s-0.107-0.51-0.107-1.038v-2.983h-0.645v-0.684h0.645v-1.284l0.874-0.527v1.812h0.884v0.684h-0.884v3.032
		c0,0.25,0.016,0.412,0.046,0.483c0.031,0.072,0.082,0.128,0.152,0.171c0.069,0.042,0.17,0.063,0.3,0.063
		C221.001,18.996,221.13,18.985,221.289,18.962z"/>
	<path class="st1" d="M221.821,17.155c0-0.96,0.267-1.671,0.801-2.134c0.446-0.384,0.989-0.576,1.631-0.576
		c0.713,0,1.296,0.233,1.748,0.701s0.679,1.112,0.679,1.936c0,0.667-0.101,1.192-0.3,1.575c-0.201,0.382-0.492,0.68-0.875,0.891
		c-0.382,0.211-0.8,0.317-1.252,0.317c-0.726,0-1.312-0.233-1.76-0.698C222.045,18.701,221.821,18.031,221.821,17.155z
		 M222.725,17.155c0,0.664,0.145,1.161,0.435,1.492s0.654,0.496,1.094,0.496c0.437,0,0.799-0.166,1.089-0.498
		s0.435-0.838,0.435-1.519c0-0.641-0.146-1.127-0.438-1.458c-0.291-0.331-0.653-0.496-1.086-0.496c-0.439,0-0.804,0.165-1.094,0.493
		S222.725,16.491,222.725,17.155z"/>
	<path class="st1" d="M227.7,19.748v-5.186h0.791v0.786c0.202-0.368,0.388-0.61,0.56-0.728c0.17-0.117,0.358-0.176,0.563-0.176
		c0.296,0,0.598,0.094,0.903,0.283l-0.303,0.815c-0.215-0.127-0.43-0.19-0.645-0.19c-0.192,0-0.364,0.058-0.518,0.173
		s-0.262,0.276-0.327,0.481c-0.098,0.312-0.146,0.654-0.146,1.025v2.715H227.7z"/>
	<path class="st1" d="M234.424,19.108c-0.325,0.277-0.639,0.472-0.939,0.586c-0.302,0.114-0.625,0.171-0.97,0.171
		c-0.569,0-1.008-0.139-1.313-0.417s-0.459-0.634-0.459-1.067c0-0.254,0.058-0.486,0.174-0.696c0.115-0.21,0.267-0.378,0.453-0.505
		c0.188-0.127,0.398-0.223,0.633-0.288c0.173-0.045,0.433-0.089,0.781-0.132c0.71-0.084,1.232-0.186,1.567-0.303
		c0.003-0.121,0.005-0.197,0.005-0.229c0-0.358-0.083-0.61-0.249-0.757c-0.225-0.199-0.559-0.298-1.001-0.298
		c-0.413,0-0.719,0.072-0.916,0.217c-0.196,0.145-0.342,0.401-0.437,0.769l-0.859-0.117c0.078-0.368,0.207-0.665,0.386-0.891
		s0.438-0.4,0.776-0.522s0.73-0.183,1.177-0.183c0.442,0,0.803,0.052,1.079,0.156s0.48,0.235,0.61,0.393s0.222,0.357,0.273,0.598
		c0.029,0.15,0.044,0.42,0.044,0.811v1.172c0,0.817,0.019,1.334,0.056,1.55c0.038,0.216,0.112,0.424,0.223,0.623H234.6
		C234.509,19.566,234.45,19.352,234.424,19.108z M234.351,17.145c-0.319,0.13-0.798,0.241-1.436,0.332
		c-0.361,0.052-0.617,0.111-0.767,0.176s-0.266,0.16-0.347,0.286s-0.122,0.265-0.122,0.417c0,0.234,0.089,0.43,0.266,0.586
		c0.178,0.156,0.438,0.234,0.779,0.234c0.339,0,0.64-0.074,0.903-0.222s0.457-0.351,0.581-0.608
		c0.095-0.199,0.142-0.492,0.142-0.879V17.145z"/>
	<path class="st1" d="M236.44,20.178l0.854,0.127c0.036,0.264,0.135,0.456,0.298,0.576c0.218,0.163,0.516,0.244,0.894,0.244
		c0.407,0,0.721-0.082,0.942-0.244s0.371-0.391,0.449-0.684c0.046-0.179,0.066-0.555,0.063-1.128
		c-0.384,0.453-0.862,0.679-1.436,0.679c-0.713,0-1.265-0.257-1.655-0.771s-0.586-1.131-0.586-1.851c0-0.495,0.09-0.951,0.269-1.37
		c0.179-0.418,0.438-0.741,0.778-0.969c0.341-0.228,0.74-0.342,1.199-0.342c0.612,0,1.116,0.248,1.514,0.742v-0.625h0.811v4.482
		c0,0.807-0.082,1.379-0.246,1.716c-0.165,0.337-0.426,0.603-0.781,0.798c-0.357,0.195-0.796,0.293-1.316,0.293
		c-0.618,0-1.118-0.139-1.499-0.417S236.428,20.738,236.44,20.178z M237.168,17.062c0,0.68,0.135,1.177,0.405,1.489
		s0.608,0.469,1.016,0.469c0.403,0,0.742-0.155,1.016-0.466s0.41-0.798,0.41-1.462c0-0.635-0.141-1.113-0.422-1.436
		c-0.282-0.322-0.621-0.483-1.019-0.483c-0.391,0-0.723,0.159-0.996,0.476S237.168,16.437,237.168,17.062z"/>
	<path class="st1" d="M245.713,18.078l0.908,0.112c-0.144,0.531-0.408,0.942-0.796,1.235s-0.882,0.439-1.484,0.439
		c-0.759,0-1.36-0.233-1.804-0.701c-0.445-0.467-0.667-1.122-0.667-1.965c0-0.873,0.225-1.549,0.674-2.031s1.032-0.723,1.748-0.723
		c0.693,0,1.26,0.236,1.699,0.708s0.659,1.136,0.659,1.992c0,0.052-0.002,0.13-0.005,0.234h-3.867
		c0.032,0.57,0.193,1.006,0.483,1.309s0.651,0.454,1.084,0.454c0.322,0,0.598-0.084,0.825-0.254S245.579,18.449,245.713,18.078z
		 M242.827,16.657h2.896c-0.039-0.436-0.149-0.763-0.332-0.981c-0.28-0.338-0.643-0.508-1.089-0.508
		c-0.403,0-0.743,0.135-1.019,0.405C243.009,15.843,242.856,16.204,242.827,16.657z"/>
	<path class="st1" d="M88.281,31.748V24.59h1.426l1.694,5.068c0.156,0.472,0.27,0.825,0.342,1.06
		c0.082-0.26,0.208-0.643,0.381-1.147l1.714-4.98h1.274v7.158h-0.913v-5.991l-2.08,5.991h-0.854l-2.07-6.094v6.094H88.281z"/>
	<path class="st1" d="M99.927,31.748v-0.762c-0.404,0.586-0.952,0.879-1.646,0.879c-0.306,0-0.592-0.059-0.857-0.176
		s-0.462-0.265-0.591-0.442s-0.219-0.395-0.271-0.652c-0.036-0.172-0.054-0.446-0.054-0.82v-3.213h0.879v2.876
		c0,0.459,0.018,0.768,0.054,0.928c0.055,0.231,0.172,0.413,0.352,0.544s0.4,0.198,0.664,0.198s0.511-0.067,0.742-0.203
		s0.395-0.319,0.491-0.552s0.144-0.57,0.144-1.013v-2.778h0.879v5.186H99.927z"/>
	<path class="st1" d="M102.07,31.748V24.59h0.879v7.158H102.07z"/>
	<path class="st1" d="M104.316,25.6V24.59h0.879V25.6H104.316z M104.316,31.748v-5.186h0.879v5.186H104.316z"/>
	<path class="st1" d="M108.452,30.962l0.127,0.776c-0.248,0.052-0.469,0.078-0.664,0.078c-0.319,0-0.566-0.05-0.742-0.151
		s-0.299-0.233-0.371-0.398s-0.107-0.51-0.107-1.038v-2.983h-0.645v-0.684h0.645v-1.284l0.874-0.527v1.812h0.884v0.684h-0.884v3.032
		c0,0.25,0.016,0.412,0.046,0.483s0.082,0.128,0.151,0.171s0.17,0.063,0.3,0.063C108.164,30.996,108.292,30.985,108.452,30.962z"/>
	<path class="st1" d="M109.312,33.735v-7.173h0.801v0.674c0.189-0.264,0.402-0.461,0.64-0.593s0.526-0.198,0.864-0.198
		c0.443,0,0.833,0.114,1.172,0.342s0.594,0.549,0.767,0.964s0.259,0.87,0.259,1.365c0,0.531-0.095,1.008-0.286,1.433
		s-0.467,0.75-0.83,0.977s-0.745,0.339-1.145,0.339c-0.293,0-0.556-0.062-0.789-0.186s-0.424-0.28-0.574-0.469v2.524H109.312z
		 M110.107,29.184c0,0.667,0.135,1.161,0.405,1.479s0.597,0.479,0.981,0.479c0.391,0,0.725-0.165,1.003-0.496
		s0.417-0.842,0.417-1.536c0-0.661-0.136-1.156-0.408-1.484s-0.597-0.493-0.974-0.493c-0.375,0-0.706,0.175-0.994,0.525
		S110.107,28.517,110.107,29.184z"/>
	<path class="st1" d="M118.257,31.108c-0.326,0.277-0.639,0.472-0.94,0.586s-0.624,0.171-0.969,0.171
		c-0.57,0-1.007-0.139-1.313-0.417s-0.459-0.634-0.459-1.067c0-0.254,0.058-0.486,0.173-0.696s0.267-0.378,0.454-0.505
		s0.398-0.223,0.632-0.288c0.172-0.045,0.433-0.089,0.781-0.132c0.709-0.084,1.232-0.186,1.567-0.303
		c0.003-0.121,0.005-0.197,0.005-0.229c0-0.358-0.083-0.61-0.249-0.757c-0.225-0.199-0.558-0.298-1.001-0.298
		c-0.414,0-0.719,0.072-0.916,0.217s-0.343,0.401-0.437,0.769l-0.859-0.117c0.078-0.368,0.207-0.665,0.386-0.891
		s0.438-0.4,0.776-0.522s0.731-0.183,1.177-0.183c0.443,0,0.802,0.052,1.079,0.156s0.48,0.235,0.61,0.393s0.221,0.357,0.273,0.598
		c0.029,0.15,0.044,0.42,0.044,0.811v1.172c0,0.817,0.019,1.334,0.056,1.55s0.111,0.424,0.222,0.623h-0.918
		C118.341,31.566,118.283,31.352,118.257,31.108z M118.184,29.145c-0.319,0.13-0.797,0.241-1.436,0.332
		c-0.361,0.052-0.617,0.111-0.767,0.176s-0.265,0.16-0.347,0.286s-0.122,0.265-0.122,0.417c0,0.234,0.089,0.43,0.266,0.586
		s0.437,0.234,0.779,0.234c0.338,0,0.64-0.074,0.903-0.222s0.458-0.351,0.581-0.608c0.094-0.199,0.142-0.492,0.142-0.879V29.145z"/>
	<path class="st1" d="M122.354,30.962l0.127,0.776c-0.248,0.052-0.469,0.078-0.664,0.078c-0.319,0-0.566-0.05-0.742-0.151
		s-0.299-0.233-0.371-0.398s-0.107-0.51-0.107-1.038v-2.983h-0.645v-0.684h0.645v-1.284l0.874-0.527v1.812h0.884v0.684h-0.884v3.032
		c0,0.25,0.016,0.412,0.046,0.483s0.082,0.128,0.151,0.171s0.17,0.063,0.3,0.063C122.065,30.996,122.194,30.985,122.354,30.962z"/>
	<path class="st1" d="M123.213,31.748V24.59h0.879v2.568c0.41-0.475,0.928-0.713,1.553-0.713c0.384,0,0.718,0.076,1.001,0.227
		s0.486,0.36,0.608,0.627s0.183,0.654,0.183,1.162v3.286h-0.879v-3.286c0-0.439-0.095-0.759-0.286-0.959s-0.46-0.3-0.808-0.3
		c-0.26,0-0.505,0.067-0.735,0.203s-0.393,0.318-0.491,0.549s-0.146,0.55-0.146,0.957v2.837H123.213z"/>
	<path class="st1" d="M131.694,31.748V24.59h0.947v2.939h3.721V24.59h0.947v7.158h-0.947v-3.374h-3.721v3.374H131.694z"/>
	<path class="st1" d="M138.101,31.748l2.749-7.158h1.021l2.93,7.158h-1.079l-0.835-2.168h-2.993l-0.786,2.168H138.101z
		 M140.166,28.808h2.427l-0.747-1.982c-0.228-0.602-0.397-1.097-0.508-1.484c-0.091,0.459-0.22,0.915-0.386,1.367L140.166,28.808z"
		/>
	<path class="st1" d="M152.891,29.238l0.947,0.239c-0.198,0.778-0.556,1.371-1.072,1.78c-0.516,0.409-1.146,0.613-1.892,0.613
		c-0.771,0-1.399-0.157-1.882-0.471c-0.484-0.314-0.852-0.769-1.104-1.365c-0.253-0.596-0.379-1.235-0.379-1.919
		c0-0.746,0.143-1.396,0.428-1.951c0.284-0.555,0.689-0.977,1.215-1.265c0.526-0.288,1.104-0.432,1.736-0.432
		c0.716,0,1.318,0.182,1.807,0.547s0.828,0.877,1.021,1.538l-0.933,0.22c-0.166-0.521-0.407-0.9-0.723-1.138
		s-0.713-0.356-1.191-0.356c-0.55,0-1.01,0.132-1.379,0.396c-0.37,0.264-0.63,0.618-0.779,1.062s-0.225,0.902-0.225,1.375
		c0,0.609,0.089,1.14,0.266,1.594c0.178,0.454,0.454,0.793,0.828,1.018s0.779,0.337,1.216,0.337c0.53,0,0.979-0.153,1.348-0.459
		S152.761,29.84,152.891,29.238z"/>
	<path class="st1" d="M154.565,29.155c0-0.96,0.267-1.671,0.801-2.134c0.446-0.384,0.989-0.576,1.631-0.576
		c0.713,0,1.296,0.233,1.748,0.701s0.679,1.112,0.679,1.936c0,0.667-0.101,1.192-0.3,1.575c-0.201,0.382-0.492,0.68-0.875,0.891
		c-0.382,0.211-0.8,0.317-1.252,0.317c-0.726,0-1.312-0.233-1.76-0.698C154.789,30.701,154.565,30.031,154.565,29.155z
		 M155.469,29.155c0,0.664,0.145,1.161,0.435,1.492s0.654,0.496,1.094,0.496c0.437,0,0.799-0.166,1.089-0.498
		s0.435-0.838,0.435-1.519c0-0.641-0.146-1.127-0.438-1.458c-0.291-0.331-0.653-0.496-1.086-0.496c-0.439,0-0.804,0.165-1.094,0.493
		S155.469,28.491,155.469,29.155z"/>
	<path class="st1" d="M160.454,31.748v-5.186h0.791V27.3c0.381-0.57,0.931-0.854,1.65-0.854c0.312,0,0.6,0.056,0.862,0.168
		c0.262,0.112,0.458,0.26,0.588,0.442s0.222,0.399,0.273,0.649c0.032,0.163,0.049,0.448,0.049,0.854v3.188h-0.879v-3.154
		c0-0.358-0.034-0.626-0.103-0.803s-0.189-0.319-0.364-0.425c-0.174-0.106-0.378-0.159-0.612-0.159c-0.374,0-0.697,0.119-0.97,0.356
		c-0.271,0.238-0.407,0.688-0.407,1.353v2.832H160.454z"/>
	<path class="st1" d="M166.226,31.748v-4.502h-0.776v-0.684h0.776v-0.552c0-0.348,0.031-0.607,0.093-0.776
		c0.085-0.228,0.233-0.413,0.446-0.554c0.214-0.142,0.513-0.212,0.896-0.212c0.247,0,0.521,0.029,0.82,0.088l-0.132,0.767
		c-0.183-0.033-0.354-0.049-0.518-0.049c-0.267,0-0.456,0.057-0.566,0.171s-0.166,0.327-0.166,0.64v0.479h1.011v0.684H167.1v4.502
		H166.226z"/>
	<path class="st1" d="M168.799,25.6V24.59h0.879V25.6H168.799z M168.799,31.748v-5.186h0.879v5.186H168.799z"/>
	<path class="st1" d="M170.854,32.178l0.854,0.127c0.036,0.264,0.135,0.456,0.298,0.576c0.218,0.163,0.516,0.244,0.894,0.244
		c0.407,0,0.721-0.082,0.942-0.244s0.371-0.391,0.449-0.684c0.046-0.179,0.066-0.555,0.063-1.128
		c-0.384,0.453-0.862,0.679-1.436,0.679c-0.713,0-1.265-0.257-1.655-0.771s-0.586-1.131-0.586-1.851c0-0.495,0.09-0.951,0.269-1.37
		s0.438-0.741,0.778-0.969c0.341-0.228,0.74-0.342,1.199-0.342c0.612,0,1.116,0.248,1.514,0.742v-0.625h0.811v4.482
		c0,0.807-0.082,1.379-0.246,1.716c-0.165,0.337-0.426,0.603-0.781,0.798c-0.357,0.195-0.796,0.293-1.316,0.293
		c-0.618,0-1.118-0.139-1.499-0.417S170.842,32.738,170.854,32.178z M171.582,29.062c0,0.68,0.135,1.177,0.405,1.489
		s0.608,0.469,1.016,0.469c0.403,0,0.742-0.155,1.016-0.466s0.41-0.798,0.41-1.462c0-0.635-0.141-1.113-0.422-1.436
		c-0.282-0.322-0.621-0.483-1.019-0.483c-0.391,0-0.723,0.159-0.996,0.476S171.582,28.437,171.582,29.062z"/>
	<path class="st1" d="M179.976,31.748v-0.762c-0.403,0.586-0.952,0.879-1.646,0.879c-0.306,0-0.592-0.059-0.857-0.176
		c-0.265-0.117-0.462-0.265-0.59-0.442c-0.129-0.177-0.22-0.395-0.271-0.652c-0.036-0.172-0.054-0.446-0.054-0.82v-3.213h0.879
		v2.876c0,0.459,0.018,0.768,0.054,0.928c0.056,0.231,0.173,0.413,0.352,0.544s0.4,0.198,0.664,0.198s0.511-0.067,0.742-0.203
		s0.395-0.319,0.49-0.552c0.097-0.233,0.145-0.57,0.145-1.013v-2.778h0.879v5.186H179.976z"/>
	<path class="st1" d="M182.129,31.748v-5.186h0.791v0.786c0.202-0.368,0.388-0.61,0.56-0.728c0.17-0.117,0.358-0.176,0.563-0.176
		c0.296,0,0.598,0.094,0.903,0.283l-0.303,0.815c-0.215-0.127-0.43-0.19-0.645-0.19c-0.192,0-0.364,0.058-0.518,0.173
		s-0.262,0.276-0.327,0.481c-0.098,0.312-0.146,0.654-0.146,1.025v2.715H182.129z"/>
	<path class="st1" d="M188.853,31.108c-0.325,0.277-0.639,0.472-0.939,0.586c-0.302,0.114-0.625,0.171-0.97,0.171
		c-0.569,0-1.008-0.139-1.313-0.417s-0.459-0.634-0.459-1.067c0-0.254,0.058-0.486,0.174-0.696c0.115-0.21,0.267-0.378,0.453-0.505
		c0.188-0.127,0.398-0.223,0.633-0.288c0.173-0.045,0.433-0.089,0.781-0.132c0.71-0.084,1.232-0.186,1.567-0.303
		c0.003-0.121,0.005-0.197,0.005-0.229c0-0.358-0.083-0.61-0.249-0.757c-0.225-0.199-0.559-0.298-1.001-0.298
		c-0.413,0-0.719,0.072-0.916,0.217c-0.196,0.145-0.342,0.401-0.437,0.769l-0.859-0.117c0.078-0.368,0.207-0.665,0.386-0.891
		s0.438-0.4,0.776-0.522s0.73-0.183,1.177-0.183c0.442,0,0.803,0.052,1.079,0.156s0.48,0.235,0.61,0.393s0.222,0.357,0.273,0.598
		c0.029,0.15,0.044,0.42,0.044,0.811v1.172c0,0.817,0.019,1.334,0.056,1.55c0.038,0.216,0.112,0.424,0.223,0.623h-0.918
		C188.938,31.566,188.879,31.352,188.853,31.108z M188.779,29.145c-0.319,0.13-0.798,0.241-1.436,0.332
		c-0.361,0.052-0.617,0.111-0.767,0.176s-0.266,0.16-0.347,0.286s-0.122,0.265-0.122,0.417c0,0.234,0.089,0.43,0.266,0.586
		c0.178,0.156,0.438,0.234,0.779,0.234c0.339,0,0.64-0.074,0.903-0.222s0.457-0.351,0.581-0.608
		c0.095-0.199,0.142-0.492,0.142-0.879V29.145z"/>
	<path class="st1" d="M192.949,30.962l0.127,0.776c-0.247,0.052-0.469,0.078-0.664,0.078c-0.319,0-0.566-0.05-0.742-0.151
		s-0.3-0.233-0.371-0.398s-0.107-0.51-0.107-1.038v-2.983h-0.645v-0.684h0.645v-1.284l0.874-0.527v1.812h0.884v0.684h-0.884v3.032
		c0,0.25,0.016,0.412,0.046,0.483c0.031,0.072,0.082,0.128,0.152,0.171c0.069,0.042,0.17,0.063,0.3,0.063
		C192.661,30.996,192.79,30.985,192.949,30.962z"/>
	<path class="st1" d="M193.813,25.6V24.59h0.879V25.6H193.813z M193.813,31.748v-5.186h0.879v5.186H193.813z"/>
	<path class="st1" d="M195.703,29.155c0-0.96,0.267-1.671,0.801-2.134c0.446-0.384,0.989-0.576,1.631-0.576
		c0.713,0,1.296,0.233,1.748,0.701s0.679,1.112,0.679,1.936c0,0.667-0.101,1.192-0.3,1.575c-0.201,0.382-0.492,0.68-0.875,0.891
		c-0.382,0.211-0.8,0.317-1.252,0.317c-0.726,0-1.312-0.233-1.76-0.698C195.927,30.701,195.703,30.031,195.703,29.155z
		 M196.606,29.155c0,0.664,0.145,1.161,0.435,1.492s0.654,0.496,1.094,0.496c0.437,0,0.799-0.166,1.089-0.498
		s0.435-0.838,0.435-1.519c0-0.641-0.146-1.127-0.438-1.458c-0.291-0.331-0.653-0.496-1.086-0.496c-0.439,0-0.804,0.165-1.094,0.493
		S196.606,28.491,196.606,29.155z"/>
	<path class="st1" d="M201.592,31.748v-5.186h0.791V27.3c0.381-0.57,0.931-0.854,1.65-0.854c0.312,0,0.6,0.056,0.862,0.168
		c0.262,0.112,0.458,0.26,0.588,0.442s0.222,0.399,0.273,0.649c0.032,0.163,0.049,0.448,0.049,0.854v3.188h-0.879v-3.154
		c0-0.358-0.034-0.626-0.103-0.803s-0.189-0.319-0.364-0.425c-0.174-0.106-0.378-0.159-0.612-0.159c-0.374,0-0.697,0.119-0.97,0.356
		c-0.271,0.238-0.407,0.688-0.407,1.353v2.832H201.592z"/>
</g>
<g>
	<path class="st1" d="M185.181,53.74l1.262,0.4c-0.193,0.703-0.516,1.226-0.965,1.566c-0.45,0.342-1.021,0.512-1.712,0.512
		c-0.855,0-1.559-0.292-2.109-0.876c-0.551-0.585-0.826-1.384-0.826-2.397c0-1.072,0.277-1.905,0.831-2.498
		c0.554-0.594,1.281-0.89,2.184-0.89c0.788,0,1.429,0.233,1.921,0.699c0.293,0.275,0.513,0.671,0.659,1.187l-1.288,0.308
		c-0.076-0.334-0.234-0.598-0.477-0.791c-0.241-0.193-0.535-0.29-0.881-0.29c-0.478,0-0.865,0.171-1.162,0.514
		c-0.298,0.343-0.446,0.898-0.446,1.666c0,0.814,0.146,1.395,0.439,1.74s0.674,0.519,1.143,0.519c0.346,0,0.643-0.11,0.892-0.33
		S185.072,54.212,185.181,53.74z"/>
	<path class="st1" d="M187.264,53.71c0-0.41,0.102-0.807,0.304-1.191s0.488-0.677,0.858-0.879c0.371-0.202,0.785-0.303,1.242-0.303
		c0.706,0,1.284,0.229,1.735,0.688c0.451,0.459,0.677,1.038,0.677,1.738c0,0.706-0.228,1.292-0.684,1.756
		c-0.455,0.464-1.028,0.696-1.72,0.696c-0.428,0-0.836-0.097-1.225-0.29c-0.388-0.193-0.683-0.477-0.885-0.851
		C187.365,54.701,187.264,54.246,187.264,53.71z M188.529,53.776c0,0.463,0.11,0.817,0.33,1.063s0.49,0.369,0.812,0.369
		s0.593-0.123,0.811-0.369c0.219-0.246,0.328-0.604,0.328-1.072c0-0.457-0.109-0.809-0.328-1.055
		c-0.218-0.246-0.488-0.369-0.811-0.369s-0.593,0.123-0.812,0.369S188.529,53.313,188.529,53.776z"/>
	<path class="st1" d="M197.292,56.109h-1.234v-2.382c0-0.504-0.026-0.83-0.079-0.978s-0.139-0.263-0.257-0.345
		c-0.119-0.082-0.262-0.123-0.429-0.123c-0.214,0-0.406,0.059-0.576,0.176s-0.286,0.272-0.349,0.466
		c-0.063,0.193-0.095,0.551-0.095,1.072v2.114h-1.235v-4.667h1.147v0.686c0.407-0.527,0.92-0.791,1.538-0.791
		c0.272,0,0.521,0.049,0.747,0.147s0.396,0.223,0.512,0.375c0.115,0.152,0.196,0.325,0.242,0.519
		c0.045,0.193,0.067,0.47,0.067,0.831V56.109z"/>
	<path class="st1" d="M200.685,51.442v0.984h-0.844v1.881c0,0.381,0.008,0.603,0.024,0.666c0.016,0.063,0.053,0.115,0.109,0.156
		c0.058,0.041,0.127,0.062,0.209,0.062c0.114,0,0.28-0.04,0.497-0.119l0.105,0.958c-0.287,0.123-0.612,0.185-0.976,0.185
		c-0.223,0-0.424-0.037-0.603-0.112c-0.179-0.074-0.31-0.171-0.394-0.29c-0.083-0.118-0.141-0.279-0.173-0.481
		c-0.026-0.144-0.04-0.434-0.04-0.87v-2.035h-0.566v-0.984h0.566v-0.927l1.239-0.721v1.648H200.685z"/>
	<path class="st1" d="M202.724,56.109h-1.234v-4.667h1.146v0.664c0.196-0.313,0.373-0.52,0.529-0.62
		c0.157-0.1,0.335-0.149,0.534-0.149c0.281,0,0.553,0.078,0.813,0.233l-0.383,1.077c-0.208-0.135-0.401-0.202-0.58-0.202
		c-0.173,0-0.319,0.048-0.439,0.143c-0.12,0.096-0.215,0.268-0.283,0.517c-0.069,0.249-0.104,0.771-0.104,1.564V56.109z"/>
	<path class="st1" d="M204.759,53.71c0-0.41,0.101-0.807,0.303-1.191s0.488-0.677,0.859-0.879c0.37-0.202,0.784-0.303,1.241-0.303
		c0.706,0,1.285,0.229,1.736,0.688c0.451,0.459,0.677,1.038,0.677,1.738c0,0.706-0.229,1.292-0.684,1.756
		c-0.456,0.464-1.029,0.696-1.721,0.696c-0.428,0-0.836-0.097-1.224-0.29c-0.389-0.193-0.684-0.477-0.886-0.851
		C204.859,54.701,204.759,54.246,204.759,53.71z M206.024,53.776c0,0.463,0.109,0.817,0.329,1.063s0.491,0.369,0.813,0.369
		s0.592-0.123,0.811-0.369c0.218-0.246,0.327-0.604,0.327-1.072c0-0.457-0.109-0.809-0.327-1.055
		c-0.219-0.246-0.488-0.369-0.811-0.369s-0.594,0.123-0.813,0.369S206.024,53.313,206.024,53.776z"/>
	<path class="st1" d="M210.542,56.109v-6.442h1.234v6.442H210.542z"/>
	<path class="st1" d="M213.042,56.109v-6.442h1.235v6.442H213.042z"/>
	<path class="st1" d="M218.245,54.624l1.23,0.207c-0.158,0.451-0.408,0.795-0.749,1.031c-0.342,0.236-0.769,0.354-1.281,0.354
		c-0.812,0-1.412-0.265-1.802-0.795c-0.308-0.425-0.461-0.961-0.461-1.608c0-0.773,0.202-1.379,0.606-1.817s0.915-0.657,1.533-0.657
		c0.694,0,1.242,0.229,1.644,0.688c0.401,0.459,0.594,1.161,0.576,2.107h-3.094c0.009,0.366,0.108,0.651,0.299,0.854
		c0.19,0.204,0.428,0.306,0.712,0.306c0.193,0,0.355-0.053,0.487-0.158S218.178,54.858,218.245,54.624z M218.315,53.376
		c-0.009-0.357-0.101-0.629-0.276-0.815c-0.176-0.186-0.39-0.279-0.642-0.279c-0.27,0-0.492,0.098-0.668,0.294
		s-0.263,0.463-0.26,0.8H218.315z"/>
	<path class="st1" d="M221.73,56.109h-1.235v-4.667h1.147v0.664c0.196-0.313,0.372-0.52,0.529-0.62
		c0.156-0.1,0.335-0.149,0.534-0.149c0.281,0,0.552,0.078,0.812,0.233l-0.382,1.077c-0.208-0.135-0.401-0.202-0.58-0.202
		c-0.173,0-0.319,0.048-0.439,0.143c-0.12,0.096-0.215,0.268-0.283,0.517c-0.069,0.249-0.104,0.771-0.104,1.564V56.109z"/>
	<path class="st1" d="M230.458,54.962v1.147h-4.329c0.047-0.434,0.188-0.844,0.422-1.232s0.697-0.903,1.389-1.545
		c0.557-0.519,0.898-0.87,1.024-1.055c0.17-0.255,0.255-0.507,0.255-0.756c0-0.275-0.074-0.487-0.222-0.635
		c-0.148-0.148-0.353-0.222-0.613-0.222c-0.258,0-0.463,0.078-0.615,0.233s-0.24,0.413-0.264,0.773l-1.23-0.123
		c0.073-0.68,0.303-1.167,0.689-1.463s0.87-0.444,1.45-0.444c0.636,0,1.136,0.171,1.499,0.514s0.545,0.769,0.545,1.279
		c0,0.29-0.053,0.566-0.156,0.828c-0.104,0.263-0.269,0.537-0.494,0.824c-0.149,0.19-0.419,0.464-0.809,0.822
		s-0.637,0.595-0.74,0.712c-0.104,0.117-0.188,0.231-0.253,0.343H230.458z"/>
</g>
<g>
	<path class="st1" d="M229.304,150.42v-6.442h1.301v6.442H229.304z"/>
	<path class="st1" d="M231.58,147.238c0-0.656,0.098-1.207,0.294-1.652c0.146-0.328,0.347-0.623,0.6-0.883
		c0.254-0.261,0.531-0.454,0.833-0.58c0.401-0.17,0.864-0.255,1.389-0.255c0.949,0,1.709,0.294,2.278,0.883
		c0.57,0.589,0.855,1.408,0.855,2.457c0,1.04-0.283,1.854-0.849,2.441c-0.565,0.588-1.321,0.881-2.268,0.881
		c-0.958,0-1.72-0.292-2.285-0.876C231.862,149.068,231.58,148.263,231.58,147.238z M232.92,147.194
		c0,0.729,0.169,1.283,0.506,1.659s0.765,0.564,1.283,0.564s0.943-0.187,1.276-0.561c0.332-0.373,0.499-0.934,0.499-1.681
		c0-0.738-0.162-1.289-0.486-1.652c-0.323-0.363-0.753-0.545-1.289-0.545s-0.969,0.184-1.297,0.552S232.92,146.453,232.92,147.194z"
		/>
	<path class="st1" d="M238.826,150.42v-6.442h1.947l1.169,4.395l1.155-4.395h1.951v6.442h-1.208v-5.071l-1.279,5.071h-1.252
		l-1.274-5.071v5.071H238.826z"/>
	<path class="st1" d="M248.846,143.977h2.575c0.51,0,0.89,0.021,1.141,0.063c0.25,0.043,0.475,0.131,0.672,0.266
		c0.198,0.135,0.363,0.314,0.495,0.539c0.132,0.224,0.197,0.475,0.197,0.753c0,0.302-0.081,0.579-0.244,0.831
		c-0.162,0.252-0.383,0.441-0.661,0.567c0.393,0.114,0.694,0.309,0.905,0.584s0.316,0.599,0.316,0.971
		c0,0.293-0.068,0.578-0.204,0.855c-0.137,0.276-0.322,0.498-0.559,0.663c-0.235,0.166-0.526,0.268-0.872,0.306
		c-0.217,0.023-0.739,0.038-1.568,0.044h-2.193V143.977z M250.146,145.05v1.49h0.853c0.507,0,0.822-0.007,0.945-0.022
		c0.223-0.026,0.397-0.104,0.524-0.23c0.128-0.128,0.191-0.295,0.191-0.503c0-0.199-0.055-0.361-0.165-0.486
		c-0.109-0.124-0.272-0.2-0.489-0.226c-0.129-0.015-0.5-0.022-1.112-0.022H250.146z M250.146,147.612v1.723h1.204
		c0.469,0,0.767-0.013,0.893-0.04c0.193-0.035,0.351-0.121,0.472-0.257c0.122-0.137,0.183-0.319,0.183-0.547
		c0-0.193-0.047-0.357-0.141-0.492s-0.229-0.233-0.406-0.294c-0.178-0.062-0.562-0.092-1.153-0.092H250.146z"/>
</g>
<g>
	<path class="st1" d="M45.095,150.42v-6.442h1.301v6.442H45.095z"/>
	<path class="st1" d="M47.372,147.238c0-0.656,0.098-1.207,0.294-1.652c0.146-0.328,0.346-0.623,0.6-0.883s0.531-0.454,0.833-0.58
		c0.401-0.17,0.864-0.255,1.389-0.255c0.949,0,1.708,0.294,2.278,0.883s0.855,1.408,0.855,2.457c0,1.04-0.283,1.854-0.848,2.441
		c-0.565,0.588-1.321,0.881-2.268,0.881c-0.958,0-1.72-0.292-2.285-0.876C47.654,149.068,47.372,148.263,47.372,147.238z
		 M48.712,147.194c0,0.729,0.168,1.283,0.505,1.659s0.765,0.564,1.283,0.564s0.944-0.187,1.277-0.561
		c0.332-0.373,0.499-0.934,0.499-1.681c0-0.738-0.162-1.289-0.486-1.652s-0.753-0.545-1.29-0.545s-0.968,0.184-1.296,0.552
		S48.712,146.453,48.712,147.194z"/>
	<path class="st1" d="M54.618,150.42v-6.442h1.947l1.169,4.395l1.156-4.395h1.951v6.442h-1.208v-5.071l-1.279,5.071h-1.252
		l-1.274-5.071v5.071H54.618z"/>
	<path class="st1" d="M72.609,150.42h-1.415l-0.562-1.463h-2.575l-0.532,1.463h-1.38l2.509-6.442h1.375L72.609,150.42z
		 M70.214,147.871l-0.888-2.391l-0.87,2.391H70.214z"/>
</g>
<rect x="42.508" y="80.013" class="st0" width="12.485" height="12.485"/>
<rect x="63.259" y="80.013" class="st0" width="12.485" height="12.485"/>
<g>
	<path class="st1" d="M65.044,101.019c0-0.762,0.078-1.375,0.235-1.839c0.157-0.464,0.39-0.822,0.699-1.074
		c0.309-0.252,0.698-0.378,1.167-0.378c0.346,0,0.649,0.07,0.91,0.209s0.476,0.34,0.646,0.602c0.17,0.263,0.303,0.582,0.4,0.958
		c0.097,0.377,0.145,0.884,0.145,1.523c0,0.756-0.078,1.366-0.233,1.831s-0.388,0.823-0.696,1.076c-0.31,0.254-0.7,0.38-1.171,0.38
		c-0.621,0-1.109-0.223-1.463-0.668C65.256,103.102,65.044,102.229,65.044,101.019z M65.857,101.019
		c0,1.058,0.124,1.762,0.371,2.112s0.553,0.525,0.917,0.525s0.668-0.176,0.917-0.527c0.247-0.352,0.371-1.055,0.371-2.109
		c0-1.061-0.124-1.765-0.371-2.114c-0.248-0.349-0.556-0.523-0.925-0.523c-0.363,0-0.653,0.154-0.87,0.461
		C65.993,99.236,65.857,99.961,65.857,101.019z"/>
	<path class="st1" d="M70.999,104.196h-0.734v-6.442h0.791v2.298c0.334-0.419,0.76-0.628,1.279-0.628
		c0.287,0,0.559,0.058,0.815,0.174s0.467,0.278,0.633,0.487c0.166,0.21,0.295,0.462,0.389,0.758s0.141,0.612,0.141,0.949
		c0,0.8-0.198,1.418-0.593,1.854s-0.87,0.655-1.424,0.655c-0.551,0-0.983-0.23-1.296-0.69V104.196z M70.99,101.827
		c0,0.56,0.076,0.964,0.229,1.213c0.249,0.407,0.586,0.611,1.011,0.611c0.346,0,0.645-0.15,0.896-0.45s0.378-0.748,0.378-1.343
		c0-0.609-0.121-1.059-0.363-1.349c-0.241-0.29-0.534-0.435-0.876-0.435c-0.346,0-0.645,0.15-0.896,0.45
		C71.116,100.825,70.99,101.259,70.99,101.827z"/>
</g>
<g>
	<g>
		<polygon class="st1" points="82.207,104.784 85.961,101.031 82.207,97.277 		"/>
		<rect x="81.31" y="99.113" class="st1" width="1.632" height="3.835"/>
	</g>
	<g>
		<polygon class="st1" points="79.596,104.784 75.842,101.031 79.596,97.277 		"/>
		
			<rect x="78.862" y="99.113" transform="matrix(-1 -4.514046e-11 4.514046e-11 -1 159.3553 202.0611)" class="st1" width="1.632" height="3.835"/>
	</g>
</g>
<g>
	<path class="st1" d="M180.44,101.019c0-0.762,0.078-1.375,0.234-1.839c0.157-0.464,0.39-0.822,0.699-1.074
		c0.309-0.252,0.698-0.378,1.167-0.378c0.346,0,0.648,0.07,0.909,0.209s0.477,0.34,0.646,0.602c0.17,0.263,0.303,0.582,0.399,0.958
		c0.097,0.377,0.146,0.884,0.146,1.523c0,0.756-0.078,1.366-0.233,1.831s-0.388,0.823-0.696,1.076
		c-0.31,0.254-0.699,0.38-1.171,0.38c-0.621,0-1.109-0.223-1.464-0.668C180.652,103.102,180.44,102.229,180.44,101.019z
		 M181.253,101.019c0,1.058,0.124,1.762,0.371,2.112c0.248,0.35,0.554,0.525,0.917,0.525s0.668-0.176,0.916-0.527
		c0.247-0.352,0.371-1.055,0.371-2.109c0-1.061-0.124-1.765-0.371-2.114c-0.248-0.349-0.556-0.523-0.925-0.523
		c-0.363,0-0.653,0.154-0.87,0.461C181.39,99.236,181.253,99.961,181.253,101.019z"/>
	<path class="st1" d="M186.395,104.196h-0.733v-6.442h0.791v2.298c0.334-0.419,0.76-0.628,1.278-0.628
		c0.287,0,0.559,0.058,0.815,0.174c0.256,0.116,0.467,0.278,0.633,0.487c0.165,0.21,0.295,0.462,0.389,0.758
		s0.141,0.612,0.141,0.949c0,0.8-0.197,1.418-0.593,1.854s-0.87,0.655-1.424,0.655c-0.551,0-0.983-0.23-1.297-0.69V104.196z
		 M186.386,101.827c0,0.56,0.076,0.964,0.229,1.213c0.249,0.407,0.586,0.611,1.011,0.611c0.346,0,0.645-0.15,0.896-0.45
		s0.378-0.748,0.378-1.343c0-0.609-0.12-1.059-0.362-1.349c-0.241-0.29-0.534-0.435-0.877-0.435c-0.346,0-0.645,0.15-0.896,0.45
		C186.512,100.825,186.386,101.259,186.386,101.827z"/>
</g>
<g>
	<g>
		<polygon class="st1" points="198.604,104.784 202.358,101.031 198.604,97.277 		"/>
		<rect x="197.707" y="99.113" class="st1" width="1.632" height="3.835"/>
	</g>
	<g>
		<polygon class="st1" points="195.993,104.784 192.24,101.031 195.993,97.277 		"/>
		
			<rect x="195.259" y="99.113" transform="matrix(-1 -4.514046e-11 4.514046e-11 -1 392.1494 202.0611)" class="st1" width="1.632" height="3.835"/>
	</g>
</g>
<rect x="157.821" y="80.013" class="st0" width="12.485" height="12.485"/>
<rect x="178.572" y="80.013" class="st0" width="12.485" height="12.485"/>
<g>
	<path class="st1" d="M23.101,168.758v-6.442h4.346v0.76h-3.494v1.995h3.023v0.76h-3.023v2.927H23.101z"/>
	<path class="st1" d="M28.458,163.225v-0.91h0.791v0.91H28.458z M28.458,168.758v-4.667h0.791v4.667H28.458z"/>
	<path class="st1" d="M30.444,168.758v-4.667h0.712v0.708c0.182-0.331,0.349-0.549,0.503-0.655c0.153-0.105,0.323-0.158,0.507-0.158
		c0.267,0,0.538,0.085,0.813,0.255l-0.272,0.734c-0.193-0.114-0.387-0.171-0.58-0.171c-0.173,0-0.328,0.052-0.466,0.156
		s-0.236,0.248-0.294,0.433c-0.088,0.281-0.132,0.589-0.132,0.923v2.443H30.444z"/>
	<path class="st1" d="M33.134,167.365l0.782-0.123c0.044,0.313,0.166,0.554,0.367,0.721s0.481,0.25,0.842,0.25
		c0.363,0,0.633-0.074,0.809-0.222s0.264-0.322,0.264-0.521c0-0.179-0.078-0.319-0.233-0.422c-0.108-0.07-0.378-0.16-0.809-0.268
		c-0.58-0.146-0.982-0.273-1.207-0.38c-0.224-0.107-0.394-0.255-0.51-0.444c-0.116-0.188-0.173-0.397-0.173-0.626
		c0-0.208,0.047-0.4,0.143-0.578c0.095-0.177,0.225-0.324,0.389-0.441c0.123-0.091,0.291-0.167,0.503-0.23s0.44-0.095,0.684-0.095
		c0.366,0,0.688,0.053,0.965,0.158c0.276,0.105,0.481,0.248,0.613,0.429c0.132,0.18,0.223,0.421,0.272,0.723l-0.773,0.105
		c-0.035-0.24-0.137-0.428-0.305-0.562c-0.169-0.135-0.407-0.202-0.714-0.202c-0.363,0-0.623,0.06-0.778,0.18
		s-0.233,0.261-0.233,0.422c0,0.103,0.032,0.195,0.097,0.277c0.064,0.085,0.166,0.155,0.303,0.211
		c0.079,0.029,0.312,0.097,0.699,0.202c0.56,0.149,0.95,0.272,1.171,0.367c0.221,0.095,0.395,0.233,0.521,0.415
		s0.189,0.407,0.189,0.677c0,0.264-0.077,0.512-0.231,0.745c-0.153,0.232-0.375,0.413-0.666,0.54
		c-0.29,0.128-0.618,0.191-0.984,0.191c-0.606,0-1.069-0.126-1.386-0.378C33.424,168.234,33.222,167.86,33.134,167.365z"/>
	<path class="st1" d="M39.677,168.051l0.114,0.699c-0.223,0.047-0.422,0.07-0.598,0.07c-0.287,0-0.51-0.045-0.668-0.136
		s-0.27-0.21-0.334-0.358s-0.097-0.459-0.097-0.934v-2.685h-0.58v-0.615h0.58v-1.156l0.787-0.475v1.63h0.795v0.615h-0.795v2.729
		c0,0.226,0.014,0.371,0.042,0.435s0.073,0.116,0.137,0.154c0.062,0.038,0.153,0.057,0.27,0.057
		C39.418,168.081,39.534,168.071,39.677,168.051z"/>
	<path class="st1" d="M21.124,177.365l0.782-0.123c0.044,0.313,0.166,0.554,0.367,0.721s0.481,0.25,0.842,0.25
		c0.363,0,0.633-0.074,0.809-0.222s0.264-0.322,0.264-0.521c0-0.179-0.078-0.319-0.233-0.422c-0.108-0.07-0.378-0.16-0.809-0.268
		c-0.58-0.146-0.982-0.273-1.207-0.38c-0.224-0.107-0.394-0.255-0.51-0.444c-0.116-0.188-0.173-0.397-0.173-0.626
		c0-0.208,0.047-0.4,0.143-0.578c0.095-0.177,0.225-0.324,0.389-0.441c0.123-0.091,0.291-0.167,0.503-0.23s0.44-0.095,0.684-0.095
		c0.366,0,0.688,0.053,0.965,0.158c0.276,0.105,0.481,0.248,0.613,0.429c0.132,0.18,0.223,0.421,0.272,0.723l-0.773,0.105
		c-0.035-0.24-0.137-0.428-0.305-0.562c-0.169-0.135-0.407-0.202-0.714-0.202c-0.363,0-0.623,0.06-0.778,0.18
		s-0.233,0.261-0.233,0.422c0,0.103,0.032,0.195,0.097,0.277c0.064,0.085,0.166,0.155,0.303,0.211
		c0.079,0.029,0.312,0.097,0.699,0.202c0.56,0.149,0.95,0.272,1.171,0.367c0.221,0.095,0.395,0.233,0.521,0.415
		S25,177.117,25,177.387c0,0.264-0.077,0.512-0.231,0.745c-0.153,0.232-0.375,0.413-0.666,0.54c-0.29,0.128-0.618,0.191-0.984,0.191
		c-0.606,0-1.069-0.126-1.386-0.378C21.414,178.234,21.211,177.86,21.124,177.365z"/>
	<path class="st1" d="M25.94,178.758v-6.442h0.791v2.312c0.369-0.428,0.835-0.642,1.397-0.642c0.346,0,0.646,0.068,0.901,0.204
		c0.255,0.137,0.438,0.325,0.547,0.565c0.11,0.24,0.165,0.589,0.165,1.046v2.958H28.95v-2.958c0-0.396-0.086-0.683-0.257-0.864
		c-0.172-0.18-0.414-0.27-0.728-0.27c-0.234,0-0.455,0.061-0.661,0.182c-0.207,0.122-0.354,0.287-0.442,0.495
		s-0.132,0.495-0.132,0.861v2.553H25.94z"/>
	<path class="st1" d="M34.14,177.255l0.817,0.101c-0.129,0.478-0.368,0.848-0.716,1.112s-0.794,0.396-1.336,0.396
		c-0.683,0-1.224-0.21-1.624-0.631c-0.4-0.42-0.6-1.01-0.6-1.769c0-0.785,0.202-1.395,0.606-1.828s0.929-0.65,1.573-0.65
		c0.624,0,1.134,0.212,1.529,0.637s0.593,1.022,0.593,1.793c0,0.047-0.001,0.117-0.004,0.211h-3.48
		c0.029,0.513,0.174,0.905,0.435,1.178s0.586,0.409,0.976,0.409c0.29,0,0.538-0.076,0.743-0.229S34.02,177.589,34.14,177.255z
		 M31.543,175.976h2.606c-0.035-0.393-0.135-0.687-0.299-0.883c-0.252-0.305-0.579-0.457-0.98-0.457
		c-0.363,0-0.669,0.122-0.917,0.365S31.569,175.569,31.543,175.976z"/>
	<path class="st1" d="M35.933,178.758v-6.442h0.791v6.442H35.933z"/>
	<path class="st1" d="M38.139,178.758v-4.052H37.44v-0.615h0.699v-0.497c0-0.313,0.028-0.546,0.083-0.699
		c0.076-0.205,0.21-0.371,0.402-0.499c0.192-0.127,0.461-0.191,0.807-0.191c0.223,0,0.469,0.026,0.738,0.079l-0.119,0.69
		c-0.164-0.029-0.319-0.044-0.466-0.044c-0.24,0-0.41,0.051-0.51,0.154s-0.149,0.294-0.149,0.576v0.431h0.91v0.615h-0.91v4.052
		H38.139z"/>
</g>
<g>
	<path class="st1" d="M132.818,136.576l1.266-0.123c0.076,0.425,0.23,0.737,0.464,0.936c0.232,0.199,0.547,0.299,0.942,0.299
		c0.419,0,0.734-0.088,0.947-0.266c0.212-0.177,0.318-0.385,0.318-0.622c0-0.152-0.045-0.282-0.134-0.389
		c-0.09-0.107-0.246-0.2-0.468-0.279c-0.152-0.053-0.5-0.146-1.042-0.281c-0.697-0.173-1.187-0.385-1.468-0.637
		c-0.396-0.354-0.593-0.787-0.593-1.296c0-0.328,0.093-0.635,0.279-0.921c0.186-0.285,0.454-0.503,0.805-0.652
		c0.35-0.149,0.772-0.224,1.268-0.224c0.809,0,1.417,0.177,1.826,0.532c0.408,0.354,0.623,0.828,0.644,1.419l-1.301,0.057
		c-0.056-0.331-0.175-0.569-0.358-0.714c-0.183-0.146-0.458-0.218-0.824-0.218c-0.378,0-0.674,0.078-0.888,0.233
		c-0.138,0.1-0.207,0.233-0.207,0.4c0,0.152,0.064,0.283,0.193,0.391c0.164,0.138,0.562,0.281,1.195,0.431s1.101,0.304,1.404,0.463
		c0.303,0.16,0.54,0.378,0.712,0.655c0.171,0.276,0.257,0.619,0.257,1.026c0,0.369-0.103,0.715-0.308,1.037s-0.495,0.562-0.87,0.718
		c-0.375,0.157-0.842,0.235-1.402,0.235c-0.814,0-1.44-0.188-1.876-0.564S132.903,137.297,132.818,136.576z"/>
	<path class="st1" d="M141.282,134.006v0.984h-0.844v1.881c0,0.381,0.008,0.603,0.024,0.666c0.016,0.063,0.053,0.115,0.109,0.156
		c0.058,0.041,0.127,0.062,0.209,0.062c0.114,0,0.28-0.04,0.497-0.119l0.105,0.958c-0.287,0.123-0.612,0.185-0.976,0.185
		c-0.223,0-0.423-0.037-0.602-0.112c-0.179-0.074-0.31-0.171-0.394-0.29c-0.083-0.118-0.141-0.279-0.173-0.481
		c-0.026-0.144-0.04-0.434-0.04-0.87v-2.035h-0.567v-0.984h0.567v-0.927l1.239-0.721v1.648H141.282z"/>
	<path class="st1" d="M143.062,135.429l-1.121-0.202c0.126-0.451,0.343-0.785,0.65-1.002s0.765-0.325,1.371-0.325
		c0.551,0,0.961,0.065,1.23,0.195c0.27,0.131,0.459,0.296,0.569,0.497c0.109,0.201,0.164,0.569,0.164,1.105l-0.013,1.441
		c0,0.41,0.02,0.713,0.06,0.908c0.039,0.195,0.113,0.403,0.222,0.626h-1.222c-0.032-0.082-0.072-0.204-0.119-0.365
		c-0.021-0.073-0.035-0.122-0.044-0.145c-0.211,0.205-0.437,0.359-0.677,0.461s-0.497,0.154-0.769,0.154
		c-0.48,0-0.859-0.13-1.136-0.391c-0.277-0.261-0.416-0.59-0.416-0.989c0-0.264,0.063-0.499,0.189-0.705
		c0.126-0.207,0.302-0.365,0.529-0.475c0.227-0.11,0.555-0.206,0.982-0.288c0.577-0.108,0.977-0.209,1.2-0.303v-0.123
		c0-0.237-0.059-0.407-0.176-0.507c-0.117-0.102-0.338-0.152-0.664-0.152c-0.22,0-0.391,0.043-0.514,0.129
		C143.238,135.061,143.138,135.213,143.062,135.429z M144.714,136.431c-0.158,0.053-0.409,0.116-0.751,0.189
		s-0.567,0.145-0.672,0.215c-0.161,0.114-0.242,0.259-0.242,0.435c0,0.173,0.064,0.322,0.193,0.448s0.293,0.189,0.492,0.189
		c0.223,0,0.435-0.073,0.637-0.22c0.149-0.111,0.248-0.248,0.294-0.409c0.032-0.105,0.048-0.306,0.048-0.602V136.431z"/>
	<path class="st1" d="M151.214,135.386l-1.218,0.22c-0.041-0.243-0.134-0.426-0.279-0.549c-0.145-0.123-0.333-0.185-0.564-0.185
		c-0.308,0-0.553,0.106-0.736,0.319c-0.183,0.212-0.274,0.567-0.274,1.065c0,0.554,0.093,0.945,0.279,1.173
		c0.186,0.229,0.436,0.343,0.749,0.343c0.234,0,0.427-0.066,0.576-0.2s0.255-0.363,0.316-0.688l1.213,0.207
		c-0.126,0.557-0.368,0.977-0.726,1.261s-0.836,0.426-1.437,0.426c-0.683,0-1.228-0.215-1.633-0.646
		c-0.406-0.431-0.608-1.027-0.608-1.789c0-0.771,0.203-1.37,0.61-1.8c0.407-0.429,0.958-0.644,1.652-0.644
		c0.568,0,1.021,0.123,1.355,0.367C150.826,134.512,151.067,134.885,151.214,135.386z"/>
	<path class="st1" d="M152.105,138.673v-6.442h1.235v3.419l1.445-1.644h1.521l-1.595,1.705l1.709,2.962h-1.331l-1.174-2.096
		l-0.575,0.602v1.494H152.105z"/>
	<path class="st1" d="M162.552,138.673h-1.235v-4.654c-0.451,0.422-0.982,0.734-1.595,0.936v-1.121
		c0.322-0.105,0.672-0.305,1.05-0.6c0.378-0.294,0.638-0.638,0.778-1.03h1.002V138.673z"/>
</g>
<g>
	<path class="st1" d="M23.505,286.789v-6.442h0.853v5.682h3.173v0.761H23.505z"/>
	<path class="st1" d="M31.49,286.213c-0.293,0.249-0.575,0.425-0.846,0.527c-0.271,0.103-0.562,0.154-0.873,0.154
		c-0.513,0-0.907-0.125-1.182-0.376c-0.275-0.25-0.413-0.57-0.413-0.96c0-0.229,0.052-0.438,0.156-0.626
		c0.104-0.189,0.24-0.341,0.408-0.455s0.358-0.201,0.569-0.26c0.155-0.041,0.39-0.08,0.703-0.118
		c0.639-0.076,1.109-0.167,1.411-0.272c0.003-0.108,0.004-0.178,0.004-0.207c0-0.322-0.075-0.549-0.224-0.681
		c-0.202-0.179-0.502-0.269-0.901-0.269c-0.372,0-0.647,0.065-0.824,0.196c-0.177,0.13-0.308,0.36-0.393,0.691l-0.773-0.105
		c0.07-0.331,0.186-0.598,0.347-0.802c0.161-0.203,0.394-0.36,0.699-0.47c0.305-0.11,0.658-0.165,1.059-0.165
		c0.398,0,0.722,0.047,0.971,0.141s0.432,0.212,0.549,0.354c0.117,0.143,0.199,0.321,0.246,0.538c0.026,0.135,0.04,0.378,0.04,0.729
		v1.055c0,0.735,0.017,1.201,0.05,1.396c0.034,0.195,0.101,0.382,0.2,0.561h-0.826C31.566,286.625,31.514,286.432,31.49,286.213z
		 M31.424,284.446c-0.287,0.117-0.718,0.217-1.292,0.299c-0.325,0.047-0.555,0.1-0.69,0.158s-0.239,0.145-0.312,0.258
		c-0.073,0.112-0.11,0.237-0.11,0.375c0,0.211,0.08,0.387,0.239,0.527s0.394,0.211,0.701,0.211c0.305,0,0.576-0.066,0.813-0.199
		c0.237-0.134,0.412-0.316,0.523-0.548c0.085-0.179,0.127-0.442,0.127-0.791V284.446z"/>
	<path class="st1" d="M33.134,285.395l0.782-0.123c0.044,0.313,0.166,0.554,0.367,0.721s0.481,0.251,0.842,0.251
		c0.363,0,0.633-0.074,0.809-0.222c0.176-0.148,0.264-0.322,0.264-0.521c0-0.179-0.078-0.319-0.233-0.422
		c-0.108-0.07-0.378-0.159-0.809-0.268c-0.58-0.146-0.982-0.273-1.207-0.38c-0.224-0.107-0.394-0.255-0.51-0.444
		c-0.116-0.188-0.173-0.397-0.173-0.626c0-0.208,0.047-0.4,0.143-0.578c0.095-0.177,0.225-0.324,0.389-0.441
		c0.123-0.091,0.291-0.168,0.503-0.23c0.212-0.063,0.44-0.095,0.684-0.095c0.366,0,0.688,0.053,0.965,0.158
		c0.276,0.105,0.481,0.248,0.613,0.429c0.132,0.18,0.223,0.421,0.272,0.723l-0.773,0.105c-0.035-0.24-0.137-0.428-0.305-0.562
		c-0.169-0.135-0.407-0.202-0.714-0.202c-0.363,0-0.623,0.06-0.778,0.18s-0.233,0.261-0.233,0.422c0,0.103,0.032,0.195,0.097,0.277
		c0.064,0.085,0.166,0.155,0.303,0.211c0.079,0.029,0.312,0.097,0.699,0.202c0.56,0.149,0.95,0.271,1.171,0.367
		c0.221,0.095,0.395,0.233,0.521,0.415s0.189,0.407,0.189,0.677c0,0.264-0.077,0.512-0.231,0.745
		c-0.153,0.232-0.375,0.413-0.666,0.54c-0.29,0.128-0.618,0.191-0.984,0.191c-0.606,0-1.069-0.126-1.386-0.378
		C33.424,286.264,33.222,285.89,33.134,285.395z"/>
	<path class="st1" d="M39.677,286.081l0.114,0.699c-0.223,0.047-0.422,0.07-0.598,0.07c-0.287,0-0.51-0.046-0.668-0.137
		s-0.27-0.21-0.334-0.357c-0.064-0.148-0.097-0.46-0.097-0.935v-2.685h-0.58v-0.615h0.58v-1.156l0.787-0.475v1.631h0.795v0.615
		h-0.795v2.729c0,0.226,0.014,0.371,0.042,0.436s0.073,0.115,0.137,0.153c0.062,0.038,0.153,0.058,0.27,0.058
		C39.418,286.112,39.534,286.101,39.677,286.081z"/>
	<path class="st1" d="M21.124,295.395l0.782-0.123c0.044,0.313,0.166,0.554,0.367,0.721s0.481,0.251,0.842,0.251
		c0.363,0,0.633-0.074,0.809-0.222c0.176-0.148,0.264-0.322,0.264-0.521c0-0.179-0.078-0.319-0.233-0.422
		c-0.108-0.07-0.378-0.159-0.809-0.268c-0.58-0.146-0.982-0.273-1.207-0.38c-0.224-0.107-0.394-0.255-0.51-0.444
		c-0.116-0.188-0.173-0.397-0.173-0.626c0-0.208,0.047-0.4,0.143-0.578c0.095-0.177,0.225-0.324,0.389-0.441
		c0.123-0.091,0.291-0.168,0.503-0.23c0.212-0.063,0.44-0.095,0.684-0.095c0.366,0,0.688,0.053,0.965,0.158
		c0.276,0.105,0.481,0.248,0.613,0.429c0.132,0.18,0.223,0.421,0.272,0.723l-0.773,0.105c-0.035-0.24-0.137-0.428-0.305-0.562
		c-0.169-0.135-0.407-0.202-0.714-0.202c-0.363,0-0.623,0.06-0.778,0.18s-0.233,0.261-0.233,0.422c0,0.103,0.032,0.195,0.097,0.277
		c0.064,0.085,0.166,0.155,0.303,0.211c0.079,0.029,0.312,0.097,0.699,0.202c0.56,0.149,0.95,0.271,1.171,0.367
		c0.221,0.095,0.395,0.233,0.521,0.415S25,295.148,25,295.418c0,0.264-0.077,0.512-0.231,0.745c-0.153,0.232-0.375,0.413-0.666,0.54
		c-0.29,0.128-0.618,0.191-0.984,0.191c-0.606,0-1.069-0.126-1.386-0.378C21.414,296.264,21.211,295.89,21.124,295.395z"/>
	<path class="st1" d="M25.94,296.789v-6.442h0.791v2.312c0.369-0.428,0.835-0.642,1.397-0.642c0.346,0,0.646,0.068,0.901,0.204
		c0.255,0.137,0.438,0.324,0.547,0.564c0.11,0.24,0.165,0.589,0.165,1.046v2.958H28.95v-2.958c0-0.396-0.086-0.683-0.257-0.863
		c-0.172-0.18-0.414-0.271-0.728-0.271c-0.234,0-0.455,0.062-0.661,0.183c-0.207,0.122-0.354,0.286-0.442,0.494
		s-0.132,0.495-0.132,0.861v2.554H25.94z"/>
	<path class="st1" d="M34.14,295.286l0.817,0.101c-0.129,0.478-0.368,0.849-0.716,1.112s-0.794,0.396-1.336,0.396
		c-0.683,0-1.224-0.21-1.624-0.631c-0.4-0.42-0.6-1.01-0.6-1.769c0-0.785,0.202-1.395,0.606-1.828s0.929-0.65,1.573-0.65
		c0.624,0,1.134,0.212,1.529,0.637s0.593,1.022,0.593,1.793c0,0.047-0.001,0.117-0.004,0.211h-3.48
		c0.029,0.513,0.174,0.905,0.435,1.178s0.586,0.409,0.976,0.409c0.29,0,0.538-0.076,0.743-0.229S34.02,295.62,34.14,295.286z
		 M31.543,294.007h2.606c-0.035-0.393-0.135-0.687-0.299-0.883c-0.252-0.305-0.579-0.457-0.98-0.457
		c-0.363,0-0.669,0.121-0.917,0.364S31.569,293.599,31.543,294.007z"/>
	<path class="st1" d="M35.933,296.789v-6.442h0.791v6.442H35.933z"/>
	<path class="st1" d="M38.139,296.789v-4.052H37.44v-0.615h0.699v-0.497c0-0.313,0.028-0.546,0.083-0.698
		c0.076-0.205,0.21-0.371,0.402-0.499c0.192-0.127,0.461-0.191,0.807-0.191c0.223,0,0.469,0.026,0.738,0.079l-0.119,0.69
		c-0.164-0.029-0.319-0.044-0.466-0.044c-0.24,0-0.41,0.051-0.51,0.153s-0.149,0.295-0.149,0.576v0.431h0.91v0.615h-0.91v4.052
		H38.139z"/>
</g>
<g>
	<polyline class="st2" points="185.193,79.337 185.193,64.027 271.601,64.027 271.601,311.639 221.571,311.639 221.571,297.681 	"/>
	<polyline class="st3" points="185.193,79.337 185.193,64.027 271.601,64.027 271.601,311.639 221.571,311.639 221.571,297.681 	"/>
</g>
<g>
	<polyline class="st2" points="69.839,79.337 69.839,64.027 13.215,64.027 13.215,311.639 117.089,311.639 117.089,297.681 	"/>
	<polyline class="st4" points="69.839,79.337 69.839,64.027 13.215,64.027 13.215,311.639 117.089,311.639 117.089,297.681 	"/>
</g>
<polyline class="st2" points="48.782,93.127 48.782,126.381 167.88,126.381 167.88,166.765 "/>
<g>
	<g>
		<line class="st3" x1="48.782" y1="93.127" x2="48.782" y2="95.377"/>
		<line class="st5" x1="48.782" y1="99.485" x2="48.782" y2="122.077"/>
		<polyline class="st3" points="48.782,124.131 48.782,126.381 51.032,126.381 		"/>
		<line class="st6" x1="55.616" y1="126.381" x2="163.339" y2="126.381"/>
		<polyline class="st3" points="165.63,126.381 167.88,126.381 167.88,128.631 		"/>
		<line class="st7" x1="167.88" y1="132.618" x2="167.88" y2="162.521"/>
		<line class="st3" x1="167.88" y1="164.515" x2="167.88" y2="166.765"/>
	</g>
</g>
<g>
	<line class="st8" x1="116.207" y1="173.286" x2="62.86" y2="233.223"/>
	<line class="st9" x1="116.207" y1="173.286" x2="62.86" y2="233.223"/>
</g>
<g>
	<line class="st8" x1="221.645" y1="173.286" x2="168.298" y2="233.223"/>
	<line class="st10" x1="221.645" y1="173.286" x2="168.298" y2="233.223"/>
</g>
<g>
	<line class="st8" x1="116.207" y1="232.281" x2="62.86" y2="292.218"/>
	<line class="st9" x1="116.207" y1="232.281" x2="62.86" y2="292.218"/>
</g>
<g>
	<line class="st8" x1="221.645" y1="232.281" x2="168.298" y2="292.218"/>
	<line class="st10" x1="221.645" y1="232.281" x2="168.298" y2="292.218"/>
</g>
<rect x="41.701" y="97.058" class="st11" width="13.199" height="8.711"/>
<g>
	<path class="st1" d="M44.036,101.019c0-0.762,0.078-1.375,0.235-1.839c0.157-0.464,0.39-0.822,0.699-1.074
		c0.309-0.252,0.698-0.378,1.167-0.378c0.346,0,0.649,0.07,0.91,0.209s0.476,0.34,0.646,0.602c0.17,0.263,0.303,0.582,0.4,0.958
		c0.097,0.377,0.145,0.884,0.145,1.523c0,0.756-0.078,1.366-0.233,1.831s-0.388,0.823-0.696,1.076c-0.31,0.254-0.7,0.38-1.171,0.38
		c-0.621,0-1.109-0.223-1.463-0.668C44.248,103.102,44.036,102.229,44.036,101.019z M44.849,101.019
		c0,1.058,0.124,1.762,0.371,2.112s0.553,0.525,0.917,0.525s0.668-0.176,0.917-0.527c0.247-0.352,0.371-1.055,0.371-2.109
		c0-1.061-0.124-1.765-0.371-2.114c-0.248-0.349-0.556-0.523-0.925-0.523c-0.363,0-0.653,0.154-0.87,0.461
		C44.985,99.236,44.849,99.961,44.849,101.019z"/>
	<path class="st1" d="M52.306,103.62c-0.293,0.249-0.575,0.425-0.846,0.527c-0.271,0.103-0.562,0.154-0.873,0.154
		c-0.513,0-0.907-0.125-1.182-0.376c-0.275-0.25-0.413-0.57-0.413-0.96c0-0.229,0.052-0.438,0.156-0.626
		c0.104-0.189,0.24-0.341,0.408-0.455s0.358-0.201,0.569-0.259c0.155-0.041,0.39-0.081,0.703-0.119
		c0.639-0.076,1.109-0.167,1.411-0.272c0.003-0.108,0.004-0.177,0.004-0.207c0-0.322-0.075-0.549-0.224-0.681
		c-0.202-0.179-0.502-0.268-0.901-0.268c-0.372,0-0.647,0.065-0.824,0.196s-0.308,0.361-0.393,0.692l-0.773-0.105
		c0.07-0.331,0.186-0.598,0.347-0.802c0.161-0.203,0.394-0.36,0.699-0.47c0.305-0.11,0.658-0.165,1.059-0.165
		c0.398,0,0.722,0.047,0.971,0.141s0.432,0.212,0.549,0.354c0.117,0.143,0.199,0.322,0.246,0.539c0.026,0.135,0.04,0.378,0.04,0.729
		v1.055c0,0.735,0.017,1.201,0.05,1.395c0.034,0.195,0.101,0.382,0.2,0.561h-0.826C52.382,104.032,52.33,103.84,52.306,103.62z
		 M52.24,101.854c-0.287,0.117-0.718,0.217-1.292,0.299c-0.325,0.047-0.555,0.1-0.69,0.158s-0.239,0.145-0.312,0.257
		s-0.11,0.238-0.11,0.375c0,0.211,0.08,0.387,0.239,0.527s0.394,0.211,0.701,0.211c0.305,0,0.576-0.066,0.813-0.2
		s0.412-0.316,0.523-0.547c0.085-0.179,0.127-0.442,0.127-0.791V101.854z"/>
</g>
<rect x="164.433" y="155.891" class="st11" width="6.926" height="9.085"/>
<g>
	<path class="st1" d="M168.417,164.055h-0.791v-5.041c-0.19,0.182-0.44,0.363-0.749,0.545c-0.31,0.182-0.587,0.318-0.833,0.409
		v-0.765c0.442-0.208,0.829-0.46,1.16-0.756s0.565-0.583,0.703-0.861h0.51V164.055z"/>
</g>
<rect x="166.889" y="154.959" class="st12" width="1.993" height="1.66"/>
<rect x="59.509" y="123.403" class="st11" width="6.926" height="6.778"/>
<polyline class="st2" points="164.142,93.127 164.142,118.002 63.923,118.002 63.923,166.849 "/>
<g>
	<g>
		<line class="st4" x1="164.142" y1="93.127" x2="164.142" y2="95.377"/>
		<line class="st13" x1="164.142" y1="99.452" x2="164.142" y2="113.715"/>
		<polyline class="st4" points="164.142,115.752 164.142,118.002 161.892,118.002 		"/>
		<line class="st14" x1="157.334" y1="118.002" x2="68.452" y2="118.002"/>
		<polyline class="st4" points="66.173,118.002 63.923,118.002 63.923,120.252 		"/>
		<line class="st15" x1="63.923" y1="125.179" x2="63.923" y2="162.13"/>
		<line class="st4" x1="63.923" y1="164.593" x2="63.923" y2="166.843"/>
	</g>
</g>
<rect x="156.795" y="97.586" class="st11" width="13.727" height="7.919"/>
<g>
	<path class="st1" d="M159.681,101.019c0-0.762,0.078-1.375,0.235-1.839c0.156-0.464,0.39-0.822,0.699-1.074
		c0.309-0.252,0.697-0.378,1.166-0.378c0.346,0,0.649,0.07,0.91,0.209s0.476,0.34,0.646,0.602c0.17,0.263,0.304,0.582,0.4,0.958
		c0.097,0.377,0.145,0.884,0.145,1.523c0,0.756-0.077,1.366-0.232,1.831s-0.388,0.823-0.696,1.076c-0.31,0.254-0.7,0.38-1.172,0.38
		c-0.621,0-1.108-0.223-1.463-0.668C159.894,103.102,159.681,102.229,159.681,101.019z M160.494,101.019
		c0,1.058,0.123,1.762,0.371,2.112c0.247,0.35,0.553,0.525,0.916,0.525s0.669-0.176,0.917-0.527
		c0.247-0.352,0.371-1.055,0.371-2.109c0-1.061-0.124-1.765-0.371-2.114c-0.248-0.349-0.557-0.523-0.926-0.523
		c-0.363,0-0.653,0.154-0.87,0.461C160.63,99.236,160.494,99.961,160.494,101.019z"/>
	<path class="st1" d="M167.951,103.62c-0.293,0.249-0.575,0.425-0.846,0.527c-0.271,0.103-0.562,0.154-0.872,0.154
		c-0.513,0-0.907-0.125-1.183-0.376c-0.275-0.25-0.413-0.57-0.413-0.96c0-0.229,0.052-0.438,0.156-0.626
		c0.104-0.189,0.24-0.341,0.408-0.455c0.169-0.114,0.358-0.201,0.569-0.259c0.155-0.041,0.39-0.081,0.703-0.119
		c0.639-0.076,1.109-0.167,1.411-0.272c0.003-0.108,0.004-0.177,0.004-0.207c0-0.322-0.074-0.549-0.224-0.681
		c-0.202-0.179-0.503-0.268-0.901-0.268c-0.372,0-0.646,0.065-0.824,0.196c-0.177,0.13-0.308,0.361-0.393,0.692l-0.773-0.105
		c0.07-0.331,0.186-0.598,0.347-0.802c0.161-0.203,0.395-0.36,0.699-0.47c0.305-0.11,0.657-0.165,1.059-0.165
		c0.398,0,0.723,0.047,0.972,0.141s0.432,0.212,0.549,0.354c0.117,0.143,0.199,0.322,0.246,0.539c0.026,0.135,0.04,0.378,0.04,0.729
		v1.055c0,0.735,0.017,1.201,0.05,1.395c0.034,0.195,0.101,0.382,0.2,0.561h-0.826C168.027,104.032,167.975,103.84,167.951,103.62z
		 M167.886,101.854c-0.287,0.117-0.718,0.217-1.292,0.299c-0.325,0.047-0.556,0.1-0.69,0.158s-0.238,0.145-0.312,0.257
		s-0.11,0.238-0.11,0.375c0,0.211,0.08,0.387,0.239,0.527c0.16,0.141,0.394,0.211,0.701,0.211c0.305,0,0.576-0.066,0.813-0.2
		s0.411-0.316,0.522-0.547c0.085-0.179,0.128-0.442,0.128-0.791V101.854z"/>
</g>
<rect x="59.514" y="156.619" class="st11" width="6.926" height="6.778"/>
<g>
	<path class="st1" d="M63.396,164.055h-0.791v-5.041c-0.19,0.182-0.44,0.363-0.75,0.545s-0.586,0.318-0.833,0.409v-0.765
		c0.442-0.208,0.829-0.46,1.16-0.756s0.565-0.583,0.703-0.861h0.51V164.055z"/>
</g>
</svg>
