<?xml version="1.0" encoding="utf-8"?>
<!-- Generator: Adobe Illustrator 26.0.3, SVG Export Plug-In . SVG Version: 6.00 Build 0)  -->
<svg version="1.1" id="Layer_1" xmlns="http://www.w3.org/2000/svg" xmlns:xlink="http://www.w3.org/1999/xlink" x="0px" y="0px"
	 viewBox="0 0 299.756 94.934" style="enable-background:new 0 0 299.756 94.934;" xml:space="preserve">
<style type="text/css">
	.st0{fill:none;stroke:#CCCCCC;stroke-width:0.6715;stroke-linecap:round;stroke-linejoin:round;stroke-miterlimit:10;}
	.st1{fill:#E6E6E6;}
	.st2{fill:#CCCCCC;}
	.st3{fill-rule:evenodd;clip-rule:evenodd;fill:#E6E6E6;}
	.st4{fill-rule:evenodd;clip-rule:evenodd;fill:#262626;}
	.st5{fill:#595A5A;}
	.st6{fill:#D9D9D9;}
	.st7{fill:#6A6A6A;}
	.st8{fill-rule:evenodd;clip-rule:evenodd;fill:#FFFFFF;}
	.st9{fill:#292929;}
	.st10{fill-rule:evenodd;clip-rule:evenodd;fill:#B3B3B3;}
	.st11{fill-rule:evenodd;clip-rule:evenodd;fill:#D66927;}
	.st12{fill-rule:evenodd;clip-rule:evenodd;fill:#333333;}
	.st13{fill:#FFFFFF;}
	.st14{fill-rule:evenodd;clip-rule:evenodd;fill:#999999;}
	.st15{fill:#2762AC;}
	.st16{fill:#F5F6F6;}
	.st17{fill-rule:evenodd;clip-rule:evenodd;fill:#F5F6F6;}
	.st18{fill:#231F20;stroke:#2762AC;stroke-width:0.2857;stroke-miterlimit:10;}
	.st19{fill:#262626;}
	.st20{fill-rule:evenodd;clip-rule:evenodd;fill:#1A1A1A;}
	.st21{fill-rule:evenodd;clip-rule:evenodd;fill:#F2F2F2;}
	.st22{fill:#638C1C;stroke:#2762AC;stroke-width:0.2857;stroke-miterlimit:10;}
	.st23{fill:#4D4E4E;}
	.st24{fill:none;stroke:#FFFFFF;stroke-width:0.1222;stroke-miterlimit:10;}
	.st25{fill:none;stroke:#638C1C;stroke-width:1.75;stroke-linecap:round;stroke-linejoin:round;stroke-miterlimit:10;}
	.st26{fill:#638C1C;}
</style>
<g>
	<g>
		<g>
			<g>
				<rect x="7.173" y="29.906" class="st0" width="288" height="60.189"/>
				<rect x="10.101" y="32.891" class="st1" width="282.145" height="54.219"/>
				<g>
					<rect x="14.987" y="60.945" class="st2" width="131.612" height="24.126"/>
					<g>
						<path class="st3" d="M56.824,81.997h20.568c0.293,0,0.549-0.22,0.549-0.549V62.82c0-0.329-0.256-0.549-0.549-0.549H56.824
							c-0.293,0-0.549,0.22-0.549,0.549v18.628C56.275,81.777,56.531,81.997,56.824,81.997"/>
						<path class="st4" d="M70.475,63.296c0-0.146-0.11-0.22-0.22-0.22c-0.11,0-0.22,0.11-0.22,0.22l0.146,1.354
							c0,0.073,0.037,0.073,0.073,0.073c0.037,0,0.073-0.037,0.073-0.073L70.475,63.296 M70.511,65.235
							c0-0.146-0.11-0.256-0.256-0.256c-0.146,0-0.256,0.11-0.256,0.256c0,0.11,0.11,0.22,0.256,0.22
							C70.401,65.455,70.511,65.345,70.511,65.235z"/>
						<path class="st4" d="M65.424,64.027c-0.146-0.586-0.769-0.915-1.354-0.769c-0.622,0.183-0.952,0.805-0.769,1.391
							c0.183,0.586,0.805,0.915,1.391,0.769C65.278,65.235,65.607,64.613,65.424,64.027 M65.278,64.247
							c0.073,0.476-0.293,0.952-0.805,0.988c-0.366,0.073-0.769-0.146-0.915-0.512l0.622-0.622l0.256,0.988L65.278,64.247z
							 M63.448,64.467c-0.037-0.512,0.293-0.988,0.805-1.025c0.403-0.073,0.769,0.146,0.952,0.512l-0.622,0.622l-0.256-0.988
							L63.448,64.467z"/>
					</g>
					<circle class="st4" cx="64.419" cy="67.545" r="1.232"/>
					<circle class="st4" cx="70.293" cy="67.545" r="1.232"/>
					<g>
						<path class="st5" d="M117.136,80.753h9.296c0.403,0,0.732-0.329,0.732-0.695V63.186c0-0.366-0.329-0.695-0.732-0.695h-9.296
							c-0.366,0-0.695,0.329-0.695,0.695v16.871C116.441,80.423,116.77,80.753,117.136,80.753z"/>
						<path class="st6" d="M117.868,78.008h7.868c0.293,0,0.549-0.256,0.549-0.549V65.784c0-0.293-0.256-0.549-0.549-0.549h-7.868
							c-0.329,0-0.549,0.256-0.549,0.549v11.675C117.319,77.752,117.539,78.008,117.868,78.008z"/>
						<path class="st5" d="M125.115,68.712v-1.72c0-0.183-0.146-0.329-0.329-0.329h-5.965c-0.183,0-0.329,0.146-0.329,0.329v1.72
							H125.115z"/>
						<path class="st7" d="M125.115,68.712h-6.624v7.393c0,0.183,0.146,0.329,0.329,0.329h5.965c0.183,0,0.329-0.146,0.329-0.329
							V68.712z"/>
						<path class="st8" d="M121.784,71.603c0.11,0,0.22-0.073,0.22-0.183v-1.574c0-0.11-0.11-0.183-0.22-0.183
							c-0.11,0-0.183,0.073-0.183,0.183v1.574C121.601,71.53,121.675,71.603,121.784,71.603 M122.516,74.311
							c0-0.403-0.329-0.695-0.732-0.695c-0.366,0-0.695,0.293-0.695,0.695c0,0.403,0.329,0.695,0.695,0.695
							C122.187,75.007,122.516,74.714,122.516,74.311z M122.919,74.311c0-0.622-0.512-1.098-1.135-1.098
							c-0.586,0-1.098,0.476-1.098,1.098c0,0.622,0.512,1.098,1.098,1.098C122.406,75.409,122.919,74.934,122.919,74.311z"/>
						<path class="st5" d="M129.653,63.296v16.981c0,0.549,0.439,0.988,0.988,0.988h12.297c0.549,0,0.988-0.439,0.988-0.988V63.296
							c0-0.549-0.439-0.988-0.988-0.988h-12.297C130.092,62.307,129.653,62.747,129.653,63.296z"/>
						<path class="st9" d="M131.08,67.943v7.685c0,0.403,0.183,0.805,0.512,1.135l3.074,2.928c0.293,0.293,0.695,0.439,1.098,0.439
							h5.16c0.878,0,1.574-0.695,1.574-1.574V65.016c0-0.878-0.695-1.574-1.574-1.574h-5.16c-0.403,0-0.805,0.146-1.098,0.439
							l-3.074,2.928C131.263,67.138,131.08,67.541,131.08,67.943z"/>
						<path class="st10" d="M136.899,76.763h3.147v-0.952h-3.147V76.763z M133.532,72.262h3.147V71.31h-3.147V72.262z
							 M136.899,67.76h3.147v-0.915h-3.147V67.76z"/>
					</g>
					<g>
						<rect x="101.122" y="81.778" class="st5" width="45.199" height="3.293"/>
						<rect x="66.071" y="80.132" class="st5" width="3.293" height="4.939"/>
						<rect x="15.723" y="81.778" class="st5" width="34" height="3.293"/>
						<path class="st7" d="M82.841,81.778c-0.689,0-1.34-0.077-1.991-0.23L76.179,80.4c-0.651-0.191-1.302-0.268-1.991-0.268h-4.977
							c-0.191,0-0.345,0.153-0.345,0.345v4.288c0,0.153,0.153,0.306,0.345,0.306h31.893v-3.293H82.841z"/>
						<path class="st11" d="M71.508,84.573h27.797v-2.297H82.841c-0.727,0-1.417-0.077-2.106-0.268l-4.671-1.149
							c-0.613-0.153-1.225-0.23-1.876-0.23h-2.68V84.573"/>
						<path class="st7" d="M61.285,81.778H49.684v3.293h16.578c0.153,0,0.306-0.153,0.306-0.306v-4.288
							c0-0.191-0.153-0.345-0.306-0.345h-2.297c-0.191,0-0.345,0.077-0.498,0.191l-1.685,1.302
							C61.63,81.74,61.438,81.778,61.285,81.778z"/>
						<rect x="13.273" y="82.85" class="st5" width="4.939" height="2.221"/>
					</g>
				</g>
				<g>
					<rect x="156.551" y="60.945" class="st2" width="131.612" height="24.126"/>
					<g>
						<path class="st3" d="M198.388,81.997h20.568c0.293,0,0.549-0.22,0.549-0.549V62.82c0-0.329-0.256-0.549-0.549-0.549h-20.568
							c-0.293,0-0.549,0.22-0.549,0.549v18.628C197.839,81.777,198.095,81.997,198.388,81.997"/>
						<path class="st4" d="M212.039,63.296c0-0.146-0.11-0.22-0.22-0.22s-0.22,0.11-0.22,0.22l0.146,1.354
							c0,0.073,0.037,0.073,0.073,0.073s0.073-0.037,0.073-0.073L212.039,63.296 M212.076,65.235c0-0.146-0.11-0.256-0.256-0.256
							s-0.256,0.11-0.256,0.256c0,0.11,0.11,0.22,0.256,0.22S212.076,65.345,212.076,65.235z"/>
						<path class="st4" d="M206.989,64.027c-0.146-0.586-0.769-0.915-1.354-0.769c-0.622,0.183-0.952,0.805-0.769,1.391
							c0.183,0.586,0.805,0.915,1.391,0.769C206.842,65.235,207.172,64.613,206.989,64.027 M206.842,64.247
							c0.073,0.476-0.293,0.952-0.805,0.988c-0.366,0.073-0.769-0.146-0.915-0.512l0.622-0.622l0.256,0.988L206.842,64.247z
							 M205.012,64.467c-0.037-0.512,0.293-0.988,0.805-1.025c0.403-0.073,0.769,0.146,0.952,0.512l-0.622,0.622l-0.256-0.988
							L205.012,64.467z"/>
					</g>
					<circle class="st4" cx="205.983" cy="67.545" r="1.232"/>
					<circle class="st4" cx="211.858" cy="67.545" r="1.232"/>
					<g>
						<path class="st5" d="M258.701,80.753h9.296c0.403,0,0.732-0.329,0.732-0.695V63.186c0-0.366-0.329-0.695-0.732-0.695h-9.296
							c-0.366,0-0.695,0.329-0.695,0.695v16.871C258.006,80.423,258.335,80.753,258.701,80.753z"/>
						<path class="st6" d="M259.433,78.008h7.868c0.293,0,0.549-0.256,0.549-0.549V65.784c0-0.293-0.256-0.549-0.549-0.549h-7.868
							c-0.329,0-0.549,0.256-0.549,0.549v11.675C258.884,77.752,259.103,78.008,259.433,78.008z"/>
						<path class="st5" d="M266.679,68.712v-1.72c0-0.183-0.146-0.329-0.329-0.329h-5.965c-0.183,0-0.329,0.146-0.329,0.329v1.72
							H266.679z"/>
						<path class="st7" d="M266.679,68.712h-6.624v7.393c0,0.183,0.146,0.329,0.329,0.329h5.965c0.183,0,0.329-0.146,0.329-0.329
							V68.712z"/>
						<path class="st8" d="M263.349,71.603c0.11,0,0.22-0.073,0.22-0.183v-1.574c0-0.11-0.11-0.183-0.22-0.183
							c-0.11,0-0.183,0.073-0.183,0.183v1.574C263.166,71.53,263.239,71.603,263.349,71.603 M264.081,74.311
							c0-0.403-0.329-0.695-0.732-0.695c-0.366,0-0.695,0.293-0.695,0.695c0,0.403,0.329,0.695,0.695,0.695
							C263.751,75.007,264.081,74.714,264.081,74.311z M264.483,74.311c0-0.622-0.512-1.098-1.135-1.098
							c-0.586,0-1.098,0.476-1.098,1.098c0,0.622,0.512,1.098,1.098,1.098C263.971,75.409,264.483,74.934,264.483,74.311z"/>
						<path class="st5" d="M271.217,63.296v16.981c0,0.549,0.439,0.988,0.988,0.988h12.297c0.549,0,0.988-0.439,0.988-0.988V63.296
							c0-0.549-0.439-0.988-0.988-0.988h-12.297C271.656,62.307,271.217,62.747,271.217,63.296z"/>
						<path class="st9" d="M272.645,67.943v7.685c0,0.403,0.183,0.805,0.512,1.135l3.074,2.928c0.293,0.293,0.695,0.439,1.098,0.439
							h5.16c0.878,0,1.574-0.695,1.574-1.574V65.016c0-0.878-0.695-1.574-1.574-1.574h-5.16c-0.403,0-0.805,0.146-1.098,0.439
							l-3.074,2.928C272.827,67.138,272.645,67.541,272.645,67.943z"/>
						<path class="st10" d="M278.464,76.763h3.147v-0.952h-3.147V76.763z M275.097,72.262h3.147V71.31h-3.147V72.262z
							 M278.464,67.76h3.147v-0.915h-3.147V67.76z"/>
					</g>
					<g>
						<rect x="243.806" y="81.854" class="st5" width="44.162" height="3.217"/>
						<rect x="209.56" y="80.245" class="st5" width="3.217" height="4.826"/>
						<rect x="160.368" y="81.854" class="st5" width="33.22" height="3.217"/>
						<path class="st7" d="M225.944,81.854c-0.673,0-1.309-0.075-1.945-0.224l-4.564-1.122c-0.636-0.187-1.272-0.262-1.945-0.262
							h-4.863c-0.187,0-0.337,0.15-0.337,0.337v4.19c0,0.15,0.15,0.299,0.337,0.299h31.161v-3.217H225.944z"/>
						<path class="st11" d="M214.872,84.585h27.158V82.34h-16.086c-0.711,0-1.384-0.075-2.057-0.262l-4.564-1.122
							c-0.599-0.15-1.197-0.224-1.833-0.224h-2.619V84.585"/>
						<path class="st7" d="M204.884,81.854h-11.335v3.217h16.198c0.15,0,0.299-0.15,0.299-0.299v-4.19
							c0-0.187-0.15-0.337-0.299-0.337h-2.244c-0.187,0-0.337,0.075-0.486,0.187l-1.646,1.272
							C205.22,81.817,205.033,81.854,204.884,81.854z"/>
						<rect x="157.974" y="82.901" class="st5" width="4.826" height="2.17"/>
					</g>
				</g>
				<g>
					<path class="st12" d="M150.969,68.318h3.001v-3.623h-3.001l-1.391,1.793L150.969,68.318z M152.579,79.663l1.391-1.83
						l-1.391-1.83h-3.001v3.66H152.579z"/>
					<path class="st8" d="M151.81,77.833c0-0.512-0.439-0.952-0.988-0.952c-0.549,0-0.988,0.439-0.988,0.952
						c0,0.549,0.439,0.988,0.988,0.988C151.371,78.821,151.81,78.382,151.81,77.833 M151.627,77.98
						c-0.073,0.439-0.476,0.732-0.915,0.659c-0.366-0.037-0.622-0.293-0.695-0.622l-0.037-0.037l0.695-0.403v0.915l0.915-0.549
						L151.627,77.98z M150.017,77.724c0.037-0.439,0.476-0.732,0.915-0.695c0.329,0.073,0.622,0.329,0.659,0.659l-0.695,0.403
						v-0.915l-0.915,0.549H150.017z M152.506,66.488c0-0.512-0.439-0.952-0.988-0.952c-0.549,0-0.988,0.439-0.988,0.952
						c0,0.549,0.439,0.988,0.988,0.988C152.067,67.476,152.506,67.037,152.506,66.488z M152.323,66.635
						c-0.037,0.439-0.476,0.732-0.915,0.659c-0.329-0.037-0.622-0.293-0.659-0.622l-0.037-0.037l0.695-0.403v0.915l0.915-0.549
						V66.635z M150.713,66.378c0.073-0.439,0.476-0.732,0.915-0.659c0.366,0.037,0.622,0.293,0.695,0.622l-0.695,0.403v-0.915
						L150.713,66.378z"/>
					<g>
						<path class="st13" d="M153.507,67.291h-0.192v-1.229c-0.047,0.044-0.107,0.088-0.183,0.133
							c-0.076,0.044-0.144,0.077-0.203,0.1v-0.187c0.107-0.051,0.202-0.112,0.282-0.185c0.081-0.072,0.138-0.142,0.172-0.21h0.124
							V67.291z"/>
					</g>
					<g>
						<path class="st13" d="M153.062,78.454v0.186h-1.038c-0.001-0.047,0.006-0.091,0.022-0.134
							c0.026-0.071,0.068-0.141,0.127-0.209s0.143-0.147,0.252-0.238c0.171-0.14,0.286-0.25,0.347-0.332
							c0.06-0.082,0.09-0.159,0.09-0.232c0-0.076-0.027-0.141-0.082-0.193c-0.055-0.052-0.126-0.078-0.214-0.078
							c-0.093,0-0.167,0.027-0.223,0.083s-0.084,0.133-0.085,0.231l-0.198-0.021c0.014-0.147,0.064-0.26,0.153-0.338
							c0.089-0.077,0.208-0.116,0.356-0.116c0.151,0,0.271,0.042,0.358,0.126c0.088,0.083,0.132,0.187,0.132,0.311
							c0,0.062-0.013,0.124-0.039,0.185c-0.025,0.062-0.068,0.125-0.128,0.192s-0.158,0.159-0.297,0.276
							c-0.116,0.097-0.19,0.163-0.223,0.197c-0.033,0.035-0.061,0.069-0.082,0.104H153.062z"/>
					</g>
				</g>
				<rect x="14.987" y="35.021" class="st1" width="131.612" height="24.126"/>
				<g>
					<g>
						<polyline class="st12" points="150.969,42.947 153.97,42.947 153.97,39.324 150.969,39.324 149.578,41.117 150.969,42.947 
													"/>
						<polygon class="st12" points="152.579,54.292 153.97,52.462 152.579,50.669 149.578,50.669 149.578,54.292 						"/>
						<g>
							<path class="st13" d="M153.482,42.104h-0.413l-0.165-0.428h-0.753l-0.156,0.428h-0.403l0.734-1.885h0.402L153.482,42.104z
								 M152.782,41.358l-0.26-0.699l-0.255,0.699H152.782z"/>
						</g>
						<g>
							<path class="st13" d="M150.393,51.566h0.754c0.149,0,0.26,0.007,0.333,0.019c0.074,0.013,0.14,0.039,0.197,0.078
								s0.105,0.092,0.145,0.157c0.038,0.065,0.058,0.14,0.058,0.221c0,0.088-0.023,0.169-0.071,0.243
								c-0.048,0.073-0.112,0.129-0.193,0.166c0.115,0.033,0.203,0.09,0.265,0.171c0.062,0.08,0.093,0.175,0.093,0.284
								c0,0.085-0.02,0.169-0.06,0.25s-0.095,0.146-0.163,0.193c-0.069,0.049-0.154,0.078-0.256,0.09
								c-0.063,0.007-0.216,0.011-0.459,0.013h-0.642V51.566z M150.774,51.879v0.437h0.249c0.148,0,0.241-0.003,0.277-0.007
								c0.064-0.008,0.116-0.03,0.153-0.067s0.056-0.086,0.056-0.147c0-0.058-0.016-0.105-0.048-0.142
								c-0.032-0.037-0.08-0.059-0.144-0.066c-0.038-0.004-0.146-0.007-0.325-0.007H150.774z M150.774,52.629v0.504h0.353
								c0.137,0,0.224-0.004,0.261-0.012c0.057-0.011,0.103-0.035,0.139-0.075c0.035-0.04,0.053-0.093,0.053-0.16
								c0-0.057-0.014-0.104-0.041-0.144c-0.027-0.04-0.067-0.068-0.119-0.087c-0.052-0.018-0.164-0.026-0.337-0.026H150.774z"/>
						</g>
					</g>
				</g>
				<g>
					<rect x="156.551" y="35.021" class="st1" width="131.612" height="24.126"/>
				</g>
			</g>
			<g>
				<rect x="87.235" y="35.169" class="st14" width="59.068" height="19.631"/>
				<rect x="116.769" y="35.169" class="st15" width="21.542" height="15.201"/>
				<rect x="87.203" y="35.169" class="st16" width="29.393" height="15.201"/>
			</g>
			<rect x="15.214" y="35.187" class="st14" width="69.425" height="22.239"/>
			<path class="st17" d="M67.866,45.413h11.451c0.284,0,0.461-0.177,0.461-0.461v-5.353c0-0.284-0.177-0.496-0.461-0.496H67.866
				c-0.248,0-0.461,0.213-0.461,0.496v5.353C67.405,45.236,67.617,45.413,67.866,45.413z"/>
			<path class="st17" d="M53.756,44.722h8.438c0.248,0,0.461-0.213,0.461-0.461V39.12c0-0.248-0.213-0.461-0.461-0.461h-8.438
				c-0.248,0-0.461,0.213-0.461,0.461v5.141C53.295,44.509,53.508,44.722,53.756,44.722z"/>
			<path class="st17" d="M21.579,44.904h11.522c0.248,0,0.461-0.213,0.461-0.461v-7.835c0-0.248-0.213-0.461-0.461-0.461H21.579
				c-0.248,0-0.461,0.213-0.461,0.461v7.835C21.118,44.692,21.331,44.904,21.579,44.904z"/>
			<path class="st17" d="M36.566,44.904h11.522c0.248,0,0.461-0.213,0.461-0.461v-7.835c0-0.248-0.213-0.461-0.461-0.461H36.566
				c-0.248,0-0.461,0.213-0.461,0.461v7.835C36.105,44.692,36.318,44.904,36.566,44.904z"/>
			<rect x="15.809" y="45.359" class="st15" width="46.673" height="10.806"/>
			<rect x="21.003" y="48.216" class="st18" width="9.139" height="5.927"/>
			<rect x="30.467" y="48.216" class="st18" width="9.139" height="5.927"/>
			<rect x="39.931" y="48.216" class="st18" width="9.139" height="5.927"/>
			<rect x="49.395" y="48.216" class="st18" width="9.139" height="5.927"/>
			<circle class="st19" cx="23.659" cy="46.697" r="0.621"/>
			<circle class="st19" cx="27.617" cy="46.697" r="0.621"/>
			<circle class="st19" cx="33.094" cy="46.697" r="0.621"/>
			<circle class="st19" cx="37.052" cy="46.697" r="0.621"/>
			<circle class="st19" cx="42.529" cy="46.697" r="0.621"/>
			<circle class="st19" cx="46.487" cy="46.697" r="0.621"/>
			<circle class="st19" cx="51.963" cy="46.697" r="0.621"/>
			<circle class="st19" cx="55.921" cy="46.697" r="0.621"/>
			<polygon class="st19" points="23.275,41.76 23.275,43.639 31.358,43.639 31.358,41.76 31.181,41.76 31.181,40.484 31.358,40.484 
				31.358,38.64 29.586,38.64 29.586,37.47 28.806,37.47 28.806,36.903 25.792,36.903 25.792,37.47 25.048,37.47 25.048,38.64 
				23.275,38.64 23.275,40.484 23.417,40.484 23.417,41.76 			"/>
			<polygon class="st19" points="38.236,41.76 38.236,43.639 46.319,43.639 46.319,41.76 46.142,41.76 46.142,40.484 46.319,40.484 
				46.319,38.64 44.547,38.64 44.547,37.47 43.767,37.47 43.767,36.903 40.753,36.903 40.753,37.47 40.009,37.47 40.009,38.64 
				38.236,38.64 38.236,40.484 38.378,40.484 38.378,41.76 			"/>
			<path class="st20" d="M55.822,43.103h4.396c0.603,0,1.099-0.496,1.099-1.099v-0.355c0-0.603-0.496-1.064-1.099-1.064h-4.396
				c-0.603,0-1.064,0.461-1.064,1.064v0.355C54.759,42.606,55.219,43.103,55.822,43.103z"/>
			<path class="st19" d="M77.611,40.464H69.74c-0.106,0-0.213,0.071-0.213,0.177v3.014c0,0.106,0.106,0.177,0.213,0.177h7.871
				c0.106,0,0.213-0.071,0.213-0.177v-3.014C77.823,40.535,77.717,40.464,77.611,40.464z"/>
			<polygon class="st8" points="17.957,51.293 18.408,51.293 18.408,52.714 18.61,52.714 18.61,52.173 19.016,52.173 19.016,52.556 
				19.783,52.556 19.783,51.541 19.016,51.541 19.016,51.902 18.61,51.902 18.61,50.459 19.016,50.459 19.016,50.797 19.783,50.797 
				19.783,49.805 19.016,49.805 19.016,50.188 18.61,50.188 18.61,49.692 18.408,49.692 18.408,51.022 17.957,51.022 17.934,50.617 
				17.145,50.617 17.145,51.676 17.934,51.676 			"/>
			<path class="st21" d="M82.277,40.711v2.375l-0.532-0.532v-0.461c0.142-0.071,0.177-0.213,0.142-0.355
				c-0.071-0.106-0.213-0.177-0.355-0.142c-0.106,0.071-0.177,0.213-0.142,0.355c0.035,0.071,0.106,0.106,0.142,0.142v0.567
				l0.745,0.709v0.248c-0.213,0.035-0.355,0.248-0.284,0.461c0.035,0.213,0.248,0.355,0.461,0.284
				c0.213-0.035,0.355-0.248,0.284-0.461c-0.035-0.142-0.142-0.248-0.284-0.284v-0.922l0.709-0.709v-0.461h0.177v-0.532h-0.532
				v0.532h0.177v0.355l-0.532,0.532v-1.702h0.177l-0.284-0.532L82.1,40.711H82.277z"/>
			<path class="st21" d="M19.378,40.494H17.64c-0.142-0.39-0.532-0.567-0.922-0.461c-0.071,0.035-0.142,0.071-0.213,0.142v0.106
				h0.39l0.248,0.461l-0.248,0.425h-0.39v0.106c0.319,0.248,0.745,0.213,0.993-0.106c0.071-0.035,0.106-0.142,0.142-0.213h1.737
				c0.106,0.355,0.496,0.496,0.815,0.39c0.071-0.035,0.142-0.071,0.177-0.106v-0.106h-0.355l-0.213-0.39l0.213-0.425h0.355v-0.071
				c-0.284-0.248-0.674-0.213-0.886,0.071C19.413,40.352,19.378,40.423,19.378,40.494z"/>
			<path class="st4" d="M91.153,47.247h6.807c0.071,0,0.142-0.071,0.142-0.142v-6.807c0-0.071-0.071-0.177-0.142-0.177h-6.807
				c-0.106,0-0.177,0.106-0.177,0.177v6.807C90.976,47.176,91.047,47.247,91.153,47.247"/>
			<path class="st4" d="M100.677,47.247h6.807c0.071,0,0.142-0.071,0.142-0.142v-6.807c0-0.071-0.071-0.177-0.142-0.177h-6.807
				c-0.106,0-0.177,0.106-0.177,0.177v6.807C100.5,47.176,100.571,47.247,100.677,47.247"/>
			<path class="st4" d="M108.399,47.247h6.807c0.071,0,0.142-0.071,0.142-0.142v-6.807c0-0.071-0.071-0.177-0.142-0.177h-6.807
				c-0.106,0-0.177,0.106-0.177,0.177v6.807C108.222,47.176,108.293,47.247,108.399,47.247"/>
			<g>
				<rect x="118.09" y="40.013" class="st22" width="9.139" height="5.927"/>
				<rect x="127.55" y="40.013" class="st22" width="9.139" height="5.927"/>
			</g>
			<circle class="st19" cx="93.022" cy="37.396" r="0.804"/>
			<circle class="st19" cx="96.001" cy="37.396" r="0.804"/>
			<circle class="st19" cx="102.811" cy="37.396" r="0.804"/>
			<circle class="st19" cx="105.791" cy="37.396" r="0.804"/>
			<circle class="st19" cx="109.94" cy="37.396" r="0.804"/>
			<circle class="st19" cx="112.92" cy="37.396" r="0.804"/>
			<g>
				<circle class="st19" cx="120.652" cy="37.396" r="0.804"/>
				<circle class="st19" cx="125.228" cy="37.396" r="0.804"/>
			</g>
			<g>
				<circle class="st19" cx="129.98" cy="37.396" r="0.804"/>
				<circle class="st19" cx="134.556" cy="37.396" r="0.804"/>
			</g>
			<g>
				<path class="st23" d="M81.838,54.647v2.707H18.574v0.981h63.264v0.812h64.478v-3.214H88.012v-1.624H82.15
					C81.977,54.308,81.838,54.444,81.838,54.647z"/>
				<path class="st23" d="M85.549,55.932H71.606c-0.139,0-0.312,0.068-0.416,0.169l-1.942,1.895
					c-0.139,0.102-0.277,0.169-0.451,0.169H21.869c-0.139,0-0.312-0.068-0.416-0.169l-1.942-1.895
					c-0.139-0.101-0.277-0.169-0.451-0.169h-3.295v1.015h-2.463v2.199h72.247V55.932z"/>
				<path class="st7" d="M95.607,54.308H85.549v4.839h20.984v-3.214h-2.22c-0.416,0-0.832-0.068-1.249-0.135l-6.243-1.353
					C96.44,54.376,96.024,54.308,95.607,54.308z"/>
				<path class="st11" d="M104.417,56.44h-2.254c-0.659,0-1.318-0.068-1.977-0.203l-4.336-0.981
					c-0.555-0.135-1.145-0.203-1.734-0.203h-2.532v3.35h12.833V56.44"/>
			</g>
			<g>
				<rect x="52.611" y="40.765" class="st13" width="0.116" height="1.157"/>
				<path class="st24" d="M52.264,41.344c0,0.251-0.212,0.463-0.463,0.463c-0.251,0-0.463-0.212-0.463-0.463
					c0-0.251,0.212-0.463,0.463-0.463C52.052,40.881,52.264,41.093,52.264,41.344z"/>
				<rect x="50.875" y="40.765" class="st13" width="0.135" height="1.157"/>
				<path class="st24" d="M50.528,41.344c0,0.251-0.193,0.463-0.463,0.463c-0.251,0-0.463-0.212-0.463-0.463
					c0-0.251,0.212-0.463,0.463-0.463C50.335,40.881,50.528,41.093,50.528,41.344z"/>
				<rect x="49.139" y="40.765" class="st13" width="0.135" height="1.157"/>
			</g>
			<g>
				<rect x="229.1" y="35.169" class="st14" width="59.068" height="19.631"/>
				<rect x="258.633" y="35.169" class="st15" width="21.542" height="15.201"/>
				<rect x="229.067" y="35.169" class="st16" width="29.393" height="15.201"/>
			</g>
			<rect x="157.079" y="35.187" class="st14" width="69.425" height="22.239"/>
			<path class="st17" d="M209.73,45.413h11.451c0.284,0,0.461-0.177,0.461-0.461v-5.353c0-0.284-0.177-0.496-0.461-0.496H209.73
				c-0.248,0-0.461,0.213-0.461,0.496v5.353C209.269,45.236,209.482,45.413,209.73,45.413z"/>
			<path class="st17" d="M195.62,44.722h8.438c0.248,0,0.461-0.213,0.461-0.461V39.12c0-0.248-0.213-0.461-0.461-0.461h-8.438
				c-0.248,0-0.461,0.213-0.461,0.461v5.141C195.159,44.509,195.372,44.722,195.62,44.722z"/>
			<path class="st17" d="M163.443,44.904h11.522c0.248,0,0.461-0.213,0.461-0.461v-7.835c0-0.248-0.213-0.461-0.461-0.461h-11.522
				c-0.248,0-0.461,0.213-0.461,0.461v7.835C162.982,44.692,163.195,44.904,163.443,44.904z"/>
			<path class="st17" d="M178.43,44.904h11.522c0.248,0,0.461-0.213,0.461-0.461v-7.835c0-0.248-0.213-0.461-0.461-0.461H178.43
				c-0.248,0-0.461,0.213-0.461,0.461v7.835C177.969,44.692,178.182,44.904,178.43,44.904z"/>
			<rect x="157.673" y="45.359" class="st15" width="46.673" height="10.806"/>
			<rect x="162.867" y="48.216" class="st18" width="9.139" height="5.927"/>
			<rect x="172.331" y="48.216" class="st18" width="9.139" height="5.927"/>
			<rect x="181.795" y="48.216" class="st18" width="9.139" height="5.927"/>
			<rect x="191.259" y="48.216" class="st18" width="9.139" height="5.927"/>
			<circle class="st19" cx="169.482" cy="46.697" r="0.621"/>
			<circle class="st19" cx="174.958" cy="46.697" r="0.621"/>
			<circle class="st19" cx="178.916" cy="46.697" r="0.621"/>
			<circle class="st19" cx="184.393" cy="46.697" r="0.621"/>
			<circle class="st19" cx="188.351" cy="46.697" r="0.621"/>
			<circle class="st19" cx="193.827" cy="46.697" r="0.621"/>
			<circle class="st19" cx="197.785" cy="46.697" r="0.621"/>
			<polygon class="st19" points="165.139,41.76 165.139,43.639 173.222,43.639 173.222,41.76 173.045,41.76 173.045,40.484 
				173.222,40.484 173.222,38.64 171.45,38.64 171.45,37.47 170.67,37.47 170.67,36.903 167.656,36.903 167.656,37.47 
				166.912,37.47 166.912,38.64 165.139,38.64 165.139,40.484 165.281,40.484 165.281,41.76 			"/>
			<polygon class="st19" points="180.1,41.76 180.1,43.639 188.183,43.639 188.183,41.76 188.006,41.76 188.006,40.484 
				188.183,40.484 188.183,38.64 186.411,38.64 186.411,37.47 185.631,37.47 185.631,36.903 182.617,36.903 182.617,37.47 
				181.873,37.47 181.873,38.64 180.1,38.64 180.1,40.484 180.242,40.484 180.242,41.76 			"/>
			<path class="st20" d="M197.686,43.103h4.396c0.603,0,1.099-0.496,1.099-1.099v-0.355c0-0.603-0.496-1.064-1.099-1.064h-4.396
				c-0.603,0-1.064,0.461-1.064,1.064v0.355C196.623,42.606,197.084,43.103,197.686,43.103z"/>
			<path class="st19" d="M219.475,40.464h-7.871c-0.106,0-0.213,0.071-0.213,0.177v3.014c0,0.106,0.106,0.177,0.213,0.177h7.871
				c0.106,0,0.213-0.071,0.213-0.177v-3.014C219.688,40.535,219.581,40.464,219.475,40.464z"/>
			<path class="st21" d="M224.142,40.711v2.375l-0.532-0.532v-0.461c0.142-0.071,0.177-0.213,0.142-0.355
				c-0.071-0.106-0.213-0.177-0.355-0.142c-0.106,0.071-0.177,0.213-0.142,0.355c0.035,0.071,0.106,0.106,0.142,0.142v0.567
				l0.745,0.709v0.248c-0.213,0.035-0.355,0.248-0.284,0.461c0.035,0.213,0.248,0.355,0.461,0.284
				c0.213-0.035,0.355-0.248,0.284-0.461c-0.035-0.142-0.142-0.248-0.284-0.284v-0.922l0.709-0.709v-0.461h0.177v-0.532h-0.532
				v0.532h0.177v0.355l-0.532,0.532v-1.702h0.177l-0.284-0.532l-0.248,0.532H224.142z"/>
			<path class="st4" d="M233.017,47.247h6.807c0.071,0,0.142-0.071,0.142-0.142v-6.807c0-0.071-0.071-0.177-0.142-0.177h-6.807
				c-0.106,0-0.177,0.106-0.177,0.177v6.807C232.84,47.176,232.911,47.247,233.017,47.247"/>
			<path class="st4" d="M242.541,47.247h6.807c0.071,0,0.142-0.071,0.142-0.142v-6.807c0-0.071-0.071-0.177-0.142-0.177h-6.807
				c-0.106,0-0.177,0.106-0.177,0.177v6.807C242.364,47.176,242.435,47.247,242.541,47.247"/>
			<path class="st4" d="M250.263,47.247h6.807c0.071,0,0.142-0.071,0.142-0.142v-6.807c0-0.071-0.071-0.177-0.142-0.177h-6.807
				c-0.106,0-0.177,0.106-0.177,0.177v6.807C250.086,47.176,250.157,47.247,250.263,47.247"/>
			<g>
				<rect x="259.955" y="40.013" class="st22" width="9.139" height="5.927"/>
				<rect x="269.414" y="40.013" class="st22" width="9.139" height="5.927"/>
			</g>
			<circle class="st19" cx="234.886" cy="37.396" r="0.804"/>
			<circle class="st19" cx="237.865" cy="37.396" r="0.804"/>
			<circle class="st19" cx="244.675" cy="37.396" r="0.804"/>
			<circle class="st19" cx="247.655" cy="37.396" r="0.804"/>
			<circle class="st19" cx="251.805" cy="37.396" r="0.804"/>
			<circle class="st19" cx="254.784" cy="37.396" r="0.804"/>
			<g>
				<circle class="st19" cx="262.516" cy="37.396" r="0.804"/>
				<circle class="st19" cx="267.092" cy="37.396" r="0.804"/>
			</g>
			<g>
				<circle class="st19" cx="271.845" cy="37.396" r="0.804"/>
				<circle class="st19" cx="276.42" cy="37.396" r="0.804"/>
			</g>
			<g>
				<path class="st23" d="M223.702,54.647v2.707h-63.264v0.981h63.264v0.812h64.478v-3.214h-58.304v-1.624h-5.862
					C223.841,54.308,223.702,54.444,223.702,54.647z"/>
				<path class="st23" d="M227.413,55.932H213.47c-0.139,0-0.312,0.068-0.416,0.169l-1.942,1.895
					c-0.139,0.102-0.277,0.169-0.451,0.169h-46.928c-0.139,0-0.312-0.068-0.416-0.169l-1.942-1.895
					c-0.139-0.101-0.277-0.169-0.451-0.169h-3.295v1.015h-2.463v2.199h72.247V55.932z"/>
				<path class="st7" d="M237.472,54.308h-10.058v4.839h20.984v-3.214h-2.22c-0.416,0-0.832-0.068-1.249-0.135l-6.243-1.353
					C238.304,54.376,237.888,54.308,237.472,54.308z"/>
				<path class="st11" d="M246.281,56.44h-2.254c-0.659,0-1.318-0.068-1.977-0.203l-4.336-0.981
					c-0.555-0.135-1.145-0.203-1.734-0.203h-2.532v3.35h12.833V56.44"/>
			</g>
			<g>
				<rect x="194.475" y="40.765" class="st13" width="0.116" height="1.157"/>
				<path class="st24" d="M194.128,41.344c0,0.251-0.212,0.463-0.463,0.463c-0.251,0-0.463-0.212-0.463-0.463
					c0-0.251,0.212-0.463,0.463-0.463C193.916,40.881,194.128,41.093,194.128,41.344z"/>
				<rect x="192.739" y="40.765" class="st13" width="0.135" height="1.157"/>
				<path class="st24" d="M192.392,41.344c0,0.251-0.193,0.463-0.463,0.463c-0.251,0-0.463-0.212-0.463-0.463
					c0-0.251,0.212-0.463,0.463-0.463C192.199,40.881,192.392,41.093,192.392,41.344z"/>
				<rect x="191.003" y="40.765" class="st13" width="0.135" height="1.157"/>
			</g>
			<path class="st21" d="M160.761,40.494h-1.737c-0.142-0.39-0.532-0.567-0.922-0.461c-0.071,0.035-0.142,0.071-0.213,0.142v0.106
				h0.39l0.248,0.461l-0.248,0.425h-0.39v0.106c0.319,0.248,0.745,0.213,0.993-0.106c0.071-0.035,0.106-0.142,0.142-0.213h1.737
				c0.106,0.355,0.496,0.496,0.815,0.39c0.071-0.035,0.142-0.071,0.177-0.106v-0.106H161.4l-0.213-0.39l0.213-0.425h0.355v-0.071
				c-0.284-0.248-0.674-0.213-0.886,0.071C160.797,40.352,160.761,40.423,160.761,40.494z"/>
			<polygon class="st8" points="159.778,51.293 160.229,51.293 160.229,52.714 160.432,52.714 160.432,52.173 160.838,52.173 
				160.838,52.556 161.604,52.556 161.604,51.541 160.838,51.541 160.838,51.902 160.432,51.902 160.432,50.459 160.838,50.459 
				160.838,50.797 161.604,50.797 161.604,49.805 160.838,49.805 160.838,50.188 160.432,50.188 160.432,49.692 160.229,49.692 
				160.229,51.022 159.778,51.022 159.755,50.617 158.966,50.617 158.966,51.676 159.755,51.676 			"/>
		</g>
	</g>
	<g>
		<g>
			<polyline class="st25" points="264.446,43.141 264.446,10.153 246.243,10.153 			"/>
			<polyline class="st25" points="122.716,43.141 122.716,10.153 176.572,10.153 			"/>
		</g>
	</g>
	<g>
		<circle class="st26" cx="177.612" cy="9.831" r="1.935"/>
		<circle class="st26" cx="177.612" cy="15.28" r="1.935"/>
		<circle class="st26" cx="245.618" cy="9.831" r="1.935"/>
		<circle class="st26" cx="245.618" cy="15.28" r="1.935"/>
	</g>
	<g>
		<polyline class="st25" points="273.789,43.141 273.789,15.364 245.618,15.364 		"/>
		<polyline class="st25" points="132.058,43.141 132.058,15.364 177.612,15.364 		"/>
	</g>
	<g>
		<g>
			<g>
				<path class="st26" d="M183.502,17.852h16.347V7.304c0-0.128-0.105-0.226-0.236-0.226h-15.878c-0.129,0-0.234,0.098-0.234,0.226
					V17.852z"/>
			</g>
			<g>
				<path class="st13" d="M191.373,10.59l-1.122,0.276l-0.295-1.159l1.85-0.552h0.966v6.487h-1.398V10.59z"/>
			</g>
		</g>
	</g>
</g>
<g>
	<g>
		<g>
			<g>
				<path class="st13" d="M120.111,43.841c0.085,0.083,0.208,0.124,0.368,0.124c0.115,0,0.213-0.028,0.296-0.086
					c0.083-0.058,0.133-0.118,0.152-0.182h0.5c-0.08,0.248-0.203,0.425-0.368,0.531c-0.166,0.107-0.365,0.16-0.6,0.16
					c-0.163,0-0.309-0.025-0.44-0.078c-0.131-0.052-0.241-0.126-0.332-0.222s-0.161-0.211-0.21-0.344
					c-0.049-0.134-0.074-0.28-0.074-0.44c0-0.154,0.025-0.299,0.076-0.432c0.051-0.134,0.123-0.249,0.216-0.346
					c0.093-0.098,0.205-0.175,0.334-0.23c0.129-0.056,0.272-0.084,0.43-0.084c0.176,0,0.33,0.034,0.46,0.102
					c0.131,0.068,0.238,0.16,0.322,0.274s0.145,0.245,0.182,0.392c0.037,0.147,0.05,0.301,0.04,0.46h-1.492
					C119.978,43.625,120.025,43.758,120.111,43.841z M120.752,42.753c-0.068-0.074-0.171-0.112-0.31-0.112
					c-0.09,0-0.166,0.016-0.226,0.046c-0.06,0.031-0.108,0.069-0.144,0.114c-0.036,0.046-0.062,0.094-0.076,0.145
					c-0.015,0.05-0.023,0.096-0.026,0.136h0.924C120.868,42.936,120.821,42.827,120.752,42.753z"/>
				<path class="st13" d="M121.748,42.239c0.055-0.186,0.128-0.334,0.222-0.446c0.093-0.112,0.202-0.192,0.326-0.24
					s0.255-0.072,0.394-0.072c0.142,0,0.274,0.024,0.398,0.072s0.233,0.128,0.328,0.24s0.169,0.261,0.224,0.446
					c0.055,0.185,0.082,0.414,0.082,0.686c0,0.28-0.027,0.514-0.082,0.702c-0.055,0.188-0.129,0.338-0.224,0.45
					c-0.095,0.111-0.204,0.191-0.328,0.24c-0.124,0.048-0.256,0.071-0.398,0.071c-0.139,0-0.27-0.023-0.394-0.071
					c-0.124-0.049-0.232-0.129-0.326-0.24c-0.094-0.112-0.167-0.263-0.222-0.45c-0.055-0.188-0.082-0.422-0.082-0.702
					C121.666,42.653,121.694,42.424,121.748,42.239z M122.243,43.215c0.005,0.113,0.022,0.223,0.05,0.328s0.073,0.195,0.134,0.27
					c0.061,0.075,0.149,0.112,0.264,0.112c0.117,0,0.208-0.037,0.27-0.112c0.062-0.074,0.108-0.164,0.136-0.27
					c0.028-0.105,0.044-0.215,0.05-0.328s0.008-0.21,0.008-0.29c0-0.048,0-0.105-0.002-0.174c-0.001-0.068-0.006-0.138-0.016-0.21
					c-0.01-0.072-0.023-0.144-0.04-0.214c-0.018-0.071-0.043-0.134-0.078-0.19c-0.035-0.056-0.079-0.102-0.132-0.136
					c-0.054-0.035-0.119-0.052-0.196-0.052c-0.077,0-0.142,0.017-0.194,0.052c-0.052,0.034-0.095,0.08-0.128,0.136
					c-0.034,0.057-0.06,0.119-0.078,0.19c-0.019,0.07-0.032,0.142-0.04,0.214s-0.013,0.142-0.014,0.21
					c-0.001,0.068-0.002,0.126-0.002,0.174C122.234,43.005,122.237,43.101,122.243,43.215z"/>
				<path class="st13" d="M123.998,42.905c0.008-0.134,0.042-0.244,0.1-0.332s0.133-0.159,0.224-0.212
					c0.09-0.054,0.192-0.092,0.306-0.114c0.114-0.022,0.228-0.034,0.342-0.034c0.104,0,0.209,0.008,0.316,0.022
					s0.204,0.043,0.292,0.086c0.088,0.042,0.16,0.102,0.216,0.178c0.056,0.076,0.084,0.177,0.084,0.302v1.076
					c0,0.094,0.005,0.183,0.016,0.268c0.011,0.086,0.029,0.149,0.056,0.192h-0.576c-0.011-0.032-0.019-0.064-0.026-0.098
					s-0.011-0.067-0.014-0.103c-0.09,0.094-0.197,0.159-0.32,0.196s-0.248,0.056-0.376,0.056c-0.099,0-0.191-0.012-0.276-0.036
					c-0.085-0.023-0.16-0.061-0.224-0.111s-0.114-0.115-0.15-0.192c-0.036-0.077-0.054-0.169-0.054-0.276
					c0-0.117,0.021-0.214,0.062-0.289c0.042-0.076,0.095-0.137,0.16-0.183c0.065-0.045,0.14-0.079,0.224-0.102
					s0.168-0.041,0.254-0.055c0.085-0.013,0.169-0.023,0.252-0.031c0.083-0.009,0.156-0.021,0.22-0.036
					c0.064-0.017,0.115-0.039,0.152-0.07c0.037-0.03,0.055-0.075,0.052-0.134c0-0.062-0.01-0.11-0.03-0.146s-0.047-0.063-0.08-0.084
					c-0.033-0.02-0.072-0.033-0.116-0.04c-0.044-0.006-0.091-0.01-0.142-0.01c-0.112,0-0.2,0.024-0.264,0.072
					s-0.102,0.128-0.112,0.24H123.998z M125.31,43.325c-0.024,0.021-0.054,0.038-0.09,0.05s-0.075,0.021-0.116,0.03
					c-0.041,0.008-0.084,0.015-0.13,0.02c-0.045,0.006-0.091,0.012-0.136,0.021c-0.043,0.008-0.085,0.019-0.126,0.031
					c-0.041,0.014-0.077,0.031-0.108,0.055c-0.031,0.022-0.055,0.051-0.074,0.086c-0.019,0.034-0.028,0.078-0.028,0.132
					c0,0.051,0.009,0.094,0.028,0.128c0.019,0.034,0.044,0.062,0.076,0.082c0.032,0.02,0.069,0.034,0.112,0.042
					c0.042,0.008,0.086,0.012,0.132,0.012c0.112,0,0.199-0.019,0.26-0.056c0.061-0.037,0.106-0.082,0.136-0.134
					c0.029-0.053,0.047-0.104,0.054-0.158c0.006-0.054,0.01-0.096,0.01-0.128V43.325z"/>
			</g>
		</g>
	</g>
</g>
<g>
	<g>
		<g>
			<g>
				<path class="st13" d="M129.424,43.841c0.085,0.083,0.208,0.124,0.368,0.124c0.115,0,0.213-0.028,0.296-0.086
					c0.083-0.058,0.133-0.118,0.152-0.182h0.5c-0.08,0.248-0.203,0.425-0.368,0.531c-0.166,0.107-0.365,0.16-0.6,0.16
					c-0.163,0-0.309-0.025-0.44-0.078c-0.131-0.052-0.241-0.126-0.332-0.222s-0.161-0.211-0.21-0.344
					c-0.049-0.134-0.074-0.28-0.074-0.44c0-0.154,0.025-0.299,0.076-0.432c0.051-0.134,0.123-0.249,0.216-0.346
					c0.093-0.098,0.205-0.175,0.334-0.23c0.129-0.056,0.272-0.084,0.43-0.084c0.176,0,0.33,0.034,0.46,0.102
					c0.131,0.068,0.238,0.16,0.322,0.274s0.145,0.245,0.182,0.392c0.037,0.147,0.05,0.301,0.04,0.46h-1.492
					C129.292,43.625,129.339,43.758,129.424,43.841z M130.066,42.753c-0.068-0.074-0.171-0.112-0.31-0.112
					c-0.09,0-0.166,0.016-0.226,0.046c-0.06,0.031-0.108,0.069-0.144,0.114c-0.036,0.046-0.062,0.094-0.076,0.145
					c-0.015,0.05-0.023,0.096-0.026,0.136h0.924C130.182,42.936,130.134,42.827,130.066,42.753z"/>
				<path class="st13" d="M131.062,42.239c0.055-0.186,0.128-0.334,0.222-0.446c0.093-0.112,0.202-0.192,0.326-0.24
					s0.255-0.072,0.394-0.072c0.142,0,0.274,0.024,0.398,0.072s0.233,0.128,0.328,0.24s0.169,0.261,0.224,0.446
					c0.055,0.185,0.082,0.414,0.082,0.686c0,0.28-0.027,0.514-0.082,0.702c-0.055,0.188-0.129,0.338-0.224,0.45
					c-0.095,0.111-0.204,0.191-0.328,0.24c-0.124,0.048-0.256,0.071-0.398,0.071c-0.139,0-0.27-0.023-0.394-0.071
					c-0.124-0.049-0.232-0.129-0.326-0.24c-0.094-0.112-0.167-0.263-0.222-0.45c-0.055-0.188-0.082-0.422-0.082-0.702
					C130.98,42.653,131.007,42.424,131.062,42.239z M131.556,43.215c0.005,0.113,0.022,0.223,0.05,0.328s0.073,0.195,0.134,0.27
					c0.061,0.075,0.149,0.112,0.264,0.112c0.117,0,0.208-0.037,0.27-0.112c0.062-0.074,0.108-0.164,0.136-0.27
					c0.028-0.105,0.044-0.215,0.05-0.328s0.008-0.21,0.008-0.29c0-0.048,0-0.105-0.002-0.174c-0.001-0.068-0.006-0.138-0.016-0.21
					c-0.01-0.072-0.023-0.144-0.04-0.214c-0.018-0.071-0.043-0.134-0.078-0.19c-0.035-0.056-0.079-0.102-0.132-0.136
					c-0.054-0.035-0.119-0.052-0.196-0.052c-0.077,0-0.142,0.017-0.194,0.052c-0.052,0.034-0.095,0.08-0.128,0.136
					c-0.034,0.057-0.06,0.119-0.078,0.19c-0.019,0.07-0.032,0.142-0.04,0.214s-0.013,0.142-0.014,0.21
					c-0.001,0.068-0.002,0.126-0.002,0.174C131.548,43.005,131.551,43.101,131.556,43.215z"/>
				<path class="st13" d="M133.904,41.48v1.04h0.008c0.069-0.106,0.163-0.185,0.283-0.233c0.118-0.05,0.241-0.074,0.369-0.074
					c0.104,0,0.207,0.021,0.309,0.064c0.102,0.042,0.192,0.107,0.273,0.195c0.082,0.088,0.147,0.201,0.198,0.338
					c0.051,0.138,0.076,0.301,0.076,0.49s-0.025,0.353-0.076,0.49s-0.116,0.25-0.198,0.338c-0.081,0.088-0.172,0.153-0.273,0.196
					c-0.102,0.042-0.204,0.063-0.309,0.063c-0.151,0-0.288-0.023-0.408-0.071c-0.12-0.049-0.211-0.13-0.272-0.244h-0.008v0.264
					h-0.54V41.48H133.904z M134.825,43.053c-0.019-0.08-0.049-0.15-0.088-0.212c-0.04-0.062-0.091-0.11-0.15-0.146
					c-0.061-0.036-0.133-0.055-0.218-0.055c-0.083,0-0.155,0.019-0.216,0.055c-0.062,0.035-0.112,0.084-0.152,0.146
					s-0.069,0.132-0.088,0.212s-0.028,0.164-0.028,0.252c0,0.086,0.009,0.168,0.028,0.248s0.048,0.15,0.088,0.212
					s0.091,0.11,0.152,0.146c0.061,0.036,0.133,0.054,0.216,0.054c0.085,0,0.157-0.018,0.218-0.054
					c0.06-0.036,0.11-0.085,0.15-0.146c0.039-0.062,0.069-0.132,0.088-0.212s0.027-0.162,0.027-0.248
					C134.852,43.217,134.843,43.133,134.825,43.053z"/>
			</g>
		</g>
	</g>
</g>
<g>
	<g>
		<g>
			<g>
				<path class="st13" d="M262.052,43.841c0.084,0.083,0.207,0.124,0.367,0.124c0.115,0,0.213-0.028,0.296-0.086
					s0.134-0.118,0.152-0.182h0.5c-0.08,0.248-0.202,0.425-0.368,0.531c-0.166,0.107-0.365,0.16-0.6,0.16
					c-0.163,0-0.31-0.025-0.44-0.078c-0.131-0.052-0.241-0.126-0.332-0.222s-0.161-0.211-0.21-0.344
					c-0.049-0.134-0.074-0.28-0.074-0.44c0-0.154,0.025-0.299,0.076-0.432c0.051-0.134,0.123-0.249,0.217-0.346
					c0.093-0.098,0.204-0.175,0.334-0.23c0.129-0.056,0.271-0.084,0.43-0.084c0.176,0,0.329,0.034,0.459,0.102
					c0.131,0.068,0.238,0.16,0.322,0.274s0.145,0.245,0.183,0.392c0.037,0.147,0.05,0.301,0.04,0.46h-1.492
					C261.919,43.625,261.966,43.758,262.052,43.841z M262.693,42.753c-0.067-0.074-0.171-0.112-0.31-0.112
					c-0.091,0-0.165,0.016-0.226,0.046c-0.061,0.031-0.108,0.069-0.145,0.114c-0.035,0.046-0.061,0.094-0.076,0.145
					c-0.014,0.05-0.023,0.096-0.025,0.136h0.924C262.809,42.936,262.761,42.827,262.693,42.753z"/>
				<path class="st13" d="M263.689,42.239c0.055-0.186,0.129-0.334,0.223-0.446s0.201-0.192,0.326-0.24
					c0.123-0.048,0.255-0.072,0.394-0.072c0.142,0,0.274,0.024,0.397,0.072c0.125,0.048,0.234,0.128,0.328,0.24
					c0.096,0.112,0.17,0.261,0.225,0.446c0.055,0.185,0.082,0.414,0.082,0.686c0,0.28-0.027,0.514-0.082,0.702
					c-0.055,0.188-0.129,0.338-0.225,0.45c-0.094,0.111-0.203,0.191-0.328,0.24c-0.123,0.048-0.256,0.071-0.397,0.071
					c-0.139,0-0.271-0.023-0.394-0.071c-0.125-0.049-0.232-0.129-0.326-0.24c-0.094-0.112-0.168-0.263-0.223-0.45
					c-0.055-0.188-0.082-0.422-0.082-0.702C263.607,42.653,263.634,42.424,263.689,42.239z M264.183,43.215
					c0.006,0.113,0.022,0.223,0.051,0.328c0.027,0.105,0.072,0.195,0.134,0.27c0.062,0.075,0.149,0.112,0.264,0.112
					c0.117,0,0.208-0.037,0.271-0.112c0.062-0.074,0.107-0.164,0.136-0.27s0.044-0.215,0.05-0.328s0.008-0.21,0.008-0.29
					c0-0.048,0-0.105-0.002-0.174c-0.001-0.068-0.006-0.138-0.016-0.21s-0.023-0.144-0.04-0.214
					c-0.018-0.071-0.044-0.134-0.078-0.19c-0.034-0.056-0.079-0.102-0.132-0.136c-0.054-0.035-0.119-0.052-0.196-0.052
					s-0.142,0.017-0.194,0.052c-0.052,0.034-0.094,0.08-0.127,0.136c-0.034,0.057-0.061,0.119-0.078,0.19
					c-0.02,0.07-0.033,0.142-0.041,0.214s-0.012,0.142-0.014,0.21c-0.001,0.068-0.002,0.126-0.002,0.174
					C264.175,43.005,264.178,43.101,264.183,43.215z"/>
				<path class="st13" d="M265.939,42.905c0.009-0.134,0.042-0.244,0.101-0.332s0.134-0.159,0.224-0.212
					c0.091-0.054,0.193-0.092,0.307-0.114s0.227-0.034,0.342-0.034c0.104,0,0.209,0.008,0.316,0.022
					c0.105,0.015,0.203,0.043,0.291,0.086c0.088,0.042,0.16,0.102,0.217,0.178c0.056,0.076,0.084,0.177,0.084,0.302v1.076
					c0,0.094,0.005,0.183,0.016,0.268c0.011,0.086,0.029,0.149,0.057,0.192h-0.576c-0.012-0.032-0.02-0.064-0.026-0.098
					s-0.011-0.067-0.015-0.103c-0.09,0.094-0.197,0.159-0.319,0.196s-0.248,0.056-0.376,0.056c-0.099,0-0.191-0.012-0.275-0.036
					c-0.086-0.023-0.16-0.061-0.225-0.111s-0.114-0.115-0.15-0.192c-0.035-0.077-0.054-0.169-0.054-0.276
					c0-0.117,0.021-0.214,0.062-0.289c0.042-0.076,0.096-0.137,0.16-0.183c0.066-0.045,0.141-0.079,0.225-0.102
					s0.168-0.041,0.254-0.055c0.085-0.013,0.169-0.023,0.252-0.031c0.082-0.009,0.156-0.021,0.22-0.036
					c0.063-0.017,0.114-0.039,0.152-0.07c0.037-0.03,0.055-0.075,0.052-0.134c0-0.062-0.01-0.11-0.029-0.146
					c-0.021-0.036-0.047-0.063-0.08-0.084c-0.033-0.02-0.072-0.033-0.117-0.04c-0.043-0.006-0.091-0.01-0.141-0.01
					c-0.113,0-0.201,0.024-0.265,0.072s-0.102,0.128-0.112,0.24H265.939z M267.251,43.325c-0.023,0.021-0.054,0.038-0.09,0.05
					s-0.074,0.021-0.116,0.03c-0.041,0.008-0.085,0.015-0.13,0.02c-0.045,0.006-0.091,0.012-0.136,0.021
					c-0.043,0.008-0.085,0.019-0.126,0.031c-0.041,0.014-0.078,0.031-0.108,0.055c-0.03,0.022-0.056,0.051-0.073,0.086
					c-0.02,0.034-0.029,0.078-0.029,0.132c0,0.051,0.01,0.094,0.029,0.128c0.018,0.034,0.043,0.062,0.075,0.082
					c0.032,0.02,0.069,0.034,0.112,0.042s0.086,0.012,0.132,0.012c0.112,0,0.198-0.019,0.261-0.056
					c0.061-0.037,0.105-0.082,0.135-0.134c0.029-0.053,0.048-0.104,0.055-0.158c0.006-0.054,0.01-0.096,0.01-0.128V43.325z"/>
			</g>
		</g>
	</g>
</g>
<g>
	<g>
		<g>
			<g>
				<path class="st13" d="M271.366,43.841c0.085,0.083,0.208,0.124,0.367,0.124c0.115,0,0.214-0.028,0.296-0.086
					c0.083-0.058,0.134-0.118,0.152-0.182h0.5c-0.08,0.248-0.202,0.425-0.368,0.531c-0.165,0.107-0.365,0.16-0.6,0.16
					c-0.163,0-0.31-0.025-0.44-0.078c-0.131-0.052-0.241-0.126-0.332-0.222s-0.16-0.211-0.21-0.344
					c-0.049-0.134-0.073-0.28-0.073-0.44c0-0.154,0.024-0.299,0.075-0.432c0.051-0.134,0.123-0.249,0.217-0.346
					c0.093-0.098,0.204-0.175,0.334-0.23c0.129-0.056,0.272-0.084,0.43-0.084c0.176,0,0.329,0.034,0.46,0.102
					c0.131,0.068,0.238,0.16,0.322,0.274s0.145,0.245,0.182,0.392c0.037,0.147,0.051,0.301,0.04,0.46h-1.492
					C271.233,43.625,271.28,43.758,271.366,43.841z M272.007,42.753c-0.068-0.074-0.172-0.112-0.311-0.112
					c-0.09,0-0.165,0.016-0.226,0.046c-0.06,0.031-0.108,0.069-0.144,0.114c-0.036,0.046-0.062,0.094-0.076,0.145
					c-0.015,0.05-0.023,0.096-0.026,0.136h0.924C272.122,42.936,272.076,42.827,272.007,42.753z"/>
				<path class="st13" d="M273.003,42.239c0.055-0.186,0.128-0.334,0.222-0.446s0.202-0.192,0.326-0.24s0.255-0.072,0.394-0.072
					c0.142,0,0.274,0.024,0.398,0.072s0.233,0.128,0.328,0.24s0.169,0.261,0.224,0.446c0.055,0.185,0.082,0.414,0.082,0.686
					c0,0.28-0.027,0.514-0.082,0.702c-0.055,0.188-0.129,0.338-0.224,0.45c-0.095,0.111-0.204,0.191-0.328,0.24
					c-0.124,0.048-0.257,0.071-0.398,0.071c-0.139,0-0.27-0.023-0.394-0.071c-0.124-0.049-0.232-0.129-0.326-0.24
					c-0.094-0.112-0.167-0.263-0.222-0.45c-0.055-0.188-0.082-0.422-0.082-0.702C272.921,42.653,272.949,42.424,273.003,42.239z
					 M273.497,43.215c0.005,0.113,0.021,0.223,0.05,0.328c0.027,0.105,0.072,0.195,0.134,0.27c0.062,0.075,0.149,0.112,0.264,0.112
					c0.117,0,0.208-0.037,0.271-0.112c0.062-0.074,0.107-0.164,0.136-0.27s0.045-0.215,0.05-0.328
					c0.006-0.113,0.008-0.21,0.008-0.29c0-0.048,0-0.105-0.002-0.174c-0.001-0.068-0.006-0.138-0.016-0.21s-0.022-0.144-0.04-0.214
					c-0.018-0.071-0.043-0.134-0.078-0.19c-0.034-0.056-0.078-0.102-0.132-0.136c-0.054-0.035-0.118-0.052-0.196-0.052
					c-0.077,0-0.142,0.017-0.193,0.052c-0.053,0.034-0.095,0.08-0.128,0.136c-0.034,0.057-0.06,0.119-0.078,0.19
					c-0.019,0.07-0.032,0.142-0.04,0.214s-0.013,0.142-0.015,0.21c-0.001,0.068-0.002,0.126-0.002,0.174
					C273.489,43.005,273.492,43.101,273.497,43.215z"/>
				<path class="st13" d="M275.845,41.48v1.04h0.008c0.069-0.106,0.163-0.185,0.282-0.233c0.118-0.05,0.242-0.074,0.37-0.074
					c0.104,0,0.206,0.021,0.308,0.064c0.102,0.042,0.193,0.107,0.274,0.195s0.147,0.201,0.198,0.338
					c0.05,0.138,0.075,0.301,0.075,0.49s-0.025,0.353-0.075,0.49c-0.051,0.138-0.117,0.25-0.198,0.338s-0.173,0.153-0.274,0.196
					c-0.102,0.042-0.204,0.063-0.308,0.063c-0.152,0-0.288-0.023-0.408-0.071c-0.12-0.049-0.211-0.13-0.271-0.244h-0.009v0.264
					h-0.54V41.48H275.845z M276.765,43.053c-0.019-0.08-0.048-0.15-0.088-0.212s-0.09-0.11-0.15-0.146
					c-0.06-0.036-0.132-0.055-0.218-0.055c-0.082,0-0.154,0.019-0.216,0.055c-0.062,0.035-0.112,0.084-0.152,0.146
					s-0.069,0.132-0.088,0.212s-0.027,0.164-0.027,0.252c0,0.086,0.009,0.168,0.027,0.248s0.048,0.15,0.088,0.212
					s0.091,0.11,0.152,0.146s0.134,0.054,0.216,0.054c0.086,0,0.158-0.018,0.218-0.054c0.061-0.036,0.11-0.085,0.15-0.146
					s0.069-0.132,0.088-0.212s0.028-0.162,0.028-0.248C276.793,43.217,276.784,43.133,276.765,43.053z"/>
			</g>
		</g>
	</g>
</g>
<g>
	<g>
		<g>
			<g>
				<g>
					<path class="st26" d="M203.37,7.699V6.907h3.51v0.792h-1.284v3.492h-0.941V7.699H203.37z"/>
					<path class="st26" d="M206.633,8.968c0.076-0.202,0.185-0.374,0.324-0.516c0.14-0.142,0.308-0.252,0.504-0.33
						c0.196-0.078,0.416-0.117,0.66-0.117s0.465,0.039,0.663,0.117c0.198,0.078,0.367,0.188,0.507,0.33
						c0.14,0.142,0.248,0.314,0.324,0.516c0.076,0.202,0.114,0.427,0.114,0.675s-0.038,0.472-0.114,0.672s-0.185,0.371-0.324,0.513
						c-0.14,0.142-0.309,0.251-0.507,0.327c-0.198,0.076-0.419,0.114-0.663,0.114s-0.464-0.038-0.66-0.114
						c-0.196-0.076-0.364-0.185-0.504-0.327c-0.14-0.142-0.248-0.313-0.324-0.513s-0.114-0.424-0.114-0.672
						S206.557,9.17,206.633,8.968z M207.408,10.006c0.023,0.118,0.064,0.224,0.123,0.318c0.058,0.094,0.135,0.169,0.23,0.225
						c0.097,0.056,0.216,0.084,0.36,0.084c0.144,0,0.265-0.028,0.363-0.084c0.098-0.056,0.176-0.131,0.233-0.225
						c0.059-0.094,0.1-0.2,0.123-0.318c0.024-0.118,0.036-0.239,0.036-0.363s-0.012-0.246-0.036-0.366
						c-0.023-0.12-0.064-0.226-0.123-0.318c-0.058-0.092-0.136-0.167-0.233-0.225c-0.099-0.058-0.22-0.087-0.363-0.087
						c-0.145,0-0.264,0.029-0.36,0.087c-0.096,0.058-0.173,0.133-0.23,0.225c-0.059,0.092-0.1,0.198-0.123,0.318
						c-0.024,0.12-0.036,0.242-0.036,0.366S207.383,9.888,207.408,10.006z"/>
					<path class="st26" d="M213.431,8.647c-0.136,0-0.25,0.031-0.342,0.093s-0.167,0.142-0.225,0.24
						c-0.059,0.098-0.1,0.206-0.123,0.324c-0.024,0.118-0.036,0.235-0.036,0.351c0,0.112,0.012,0.226,0.036,0.342
						c0.023,0.116,0.062,0.221,0.117,0.315c0.054,0.094,0.127,0.171,0.219,0.231s0.204,0.09,0.336,0.09
						c0.204,0,0.361-0.057,0.471-0.171c0.11-0.114,0.179-0.267,0.207-0.459h0.822c-0.056,0.412-0.216,0.726-0.48,0.942
						c-0.264,0.216-0.602,0.324-1.014,0.324c-0.232,0-0.445-0.039-0.639-0.117c-0.194-0.078-0.359-0.187-0.495-0.327
						c-0.136-0.14-0.242-0.307-0.318-0.501c-0.076-0.194-0.114-0.407-0.114-0.639c0-0.24,0.035-0.463,0.105-0.669
						s0.173-0.384,0.309-0.534c0.137-0.15,0.303-0.267,0.498-0.351c0.196-0.084,0.42-0.126,0.672-0.126
						c0.185,0,0.361,0.024,0.531,0.072c0.17,0.048,0.322,0.121,0.456,0.219s0.243,0.22,0.327,0.366s0.132,0.319,0.144,0.519h-0.834
						C214.005,8.825,213.795,8.647,213.431,8.647z"/>
					<path class="st26" d="M216.27,6.907v4.284h-0.853V6.907H216.27z"/>
					<path class="st26" d="M219.041,11.191v-0.432h-0.018c-0.108,0.18-0.248,0.31-0.42,0.39s-0.349,0.12-0.528,0.12
						c-0.228,0-0.415-0.03-0.561-0.09c-0.146-0.06-0.262-0.145-0.346-0.255c-0.084-0.11-0.143-0.244-0.177-0.402
						s-0.051-0.333-0.051-0.525V8.089h0.852v1.752c0,0.256,0.04,0.447,0.12,0.573s0.222,0.189,0.426,0.189
						c0.232,0,0.4-0.069,0.504-0.207c0.104-0.138,0.156-0.365,0.156-0.681V8.089h0.853v3.102H219.041z"/>
					<path class="st26" d="M221.216,10.42c0.038,0.066,0.087,0.12,0.147,0.162c0.06,0.042,0.129,0.073,0.206,0.093
						c0.078,0.02,0.159,0.03,0.243,0.03c0.061,0,0.123-0.007,0.189-0.021c0.065-0.014,0.126-0.036,0.18-0.066
						c0.054-0.03,0.1-0.07,0.135-0.12c0.036-0.05,0.055-0.113,0.055-0.189c0-0.128-0.085-0.224-0.255-0.288
						c-0.171-0.064-0.407-0.128-0.711-0.192c-0.124-0.028-0.245-0.061-0.363-0.099s-0.224-0.088-0.315-0.15s-0.166-0.14-0.222-0.234
						c-0.056-0.094-0.084-0.209-0.084-0.345c0-0.2,0.039-0.364,0.117-0.492c0.078-0.128,0.181-0.229,0.309-0.303
						c0.128-0.074,0.272-0.126,0.432-0.156c0.16-0.03,0.324-0.045,0.492-0.045s0.331,0.016,0.489,0.048
						c0.158,0.032,0.299,0.086,0.423,0.162c0.124,0.076,0.228,0.177,0.31,0.303s0.131,0.285,0.146,0.477h-0.81
						c-0.013-0.164-0.074-0.275-0.187-0.333c-0.111-0.058-0.244-0.087-0.396-0.087c-0.048,0-0.101,0.003-0.156,0.009
						s-0.107,0.019-0.153,0.039s-0.085,0.049-0.116,0.087c-0.032,0.038-0.049,0.089-0.049,0.153c0,0.076,0.028,0.138,0.084,0.186
						c0.057,0.048,0.129,0.087,0.22,0.117c0.09,0.03,0.192,0.057,0.309,0.081s0.234,0.05,0.354,0.078
						c0.123,0.028,0.244,0.062,0.362,0.102c0.118,0.04,0.224,0.093,0.315,0.159s0.166,0.148,0.222,0.246s0.084,0.219,0.084,0.363
						c0,0.204-0.041,0.375-0.123,0.513c-0.082,0.138-0.188,0.249-0.321,0.333c-0.132,0.084-0.282,0.143-0.452,0.177
						c-0.171,0.034-0.344,0.051-0.52,0.051c-0.18,0-0.355-0.018-0.528-0.054c-0.172-0.036-0.324-0.096-0.459-0.18
						c-0.134-0.084-0.243-0.195-0.329-0.333c-0.087-0.138-0.134-0.311-0.142-0.519h0.811
						C221.16,10.275,221.178,10.354,221.216,10.42z"/>
					<path class="st26" d="M225.425,8.089v0.57h-0.624v1.536c0,0.144,0.023,0.24,0.071,0.288c0.049,0.048,0.145,0.072,0.288,0.072
						c0.048,0,0.095-0.002,0.139-0.006s0.086-0.01,0.126-0.018v0.66c-0.072,0.012-0.152,0.02-0.24,0.024s-0.174,0.006-0.258,0.006
						c-0.132,0-0.258-0.009-0.375-0.027c-0.118-0.018-0.223-0.053-0.312-0.105c-0.09-0.052-0.161-0.126-0.213-0.222
						c-0.052-0.096-0.078-0.222-0.078-0.378v-1.83h-0.516v-0.57h0.516v-0.93h0.853v0.93H225.425z"/>
					<path class="st26" d="M226.746,10.447c0.128,0.124,0.312,0.186,0.552,0.186c0.172,0,0.32-0.043,0.444-0.129
						c0.123-0.086,0.199-0.177,0.228-0.273h0.75c-0.12,0.372-0.304,0.638-0.552,0.798c-0.248,0.16-0.548,0.24-0.9,0.24
						c-0.244,0-0.464-0.039-0.66-0.117c-0.195-0.078-0.361-0.189-0.498-0.333c-0.136-0.144-0.24-0.316-0.314-0.516
						c-0.074-0.2-0.111-0.42-0.111-0.66c0-0.232,0.038-0.448,0.114-0.648c0.076-0.2,0.184-0.373,0.324-0.519
						c0.14-0.146,0.307-0.261,0.501-0.345c0.193-0.084,0.408-0.126,0.645-0.126c0.265,0,0.494,0.051,0.69,0.153
						c0.195,0.102,0.356,0.239,0.482,0.411s0.217,0.368,0.273,0.588c0.056,0.22,0.076,0.45,0.06,0.69h-2.237
						C226.547,10.123,226.618,10.323,226.746,10.447z M227.708,8.815c-0.103-0.112-0.257-0.168-0.465-0.168
						c-0.137,0-0.249,0.023-0.34,0.069c-0.09,0.046-0.161,0.103-0.216,0.171c-0.054,0.068-0.092,0.14-0.113,0.216
						c-0.022,0.076-0.035,0.144-0.039,0.204h1.386C227.881,9.091,227.81,8.927,227.708,8.815z"/>
					<path class="st26" d="M230.086,8.089v0.576h0.013c0.039-0.096,0.094-0.185,0.161-0.267c0.068-0.082,0.146-0.152,0.234-0.21
						s0.182-0.103,0.282-0.135c0.1-0.032,0.204-0.048,0.312-0.048c0.057,0,0.118,0.01,0.187,0.03v0.792
						c-0.04-0.008-0.088-0.015-0.145-0.021c-0.056-0.006-0.109-0.009-0.162-0.009c-0.155,0-0.288,0.026-0.396,0.078
						c-0.108,0.052-0.195,0.123-0.261,0.213c-0.066,0.09-0.113,0.195-0.142,0.315c-0.027,0.12-0.042,0.25-0.042,0.39v1.398h-0.852
						V8.089H230.086z"/>
					<path class="st26" d="M203.639,13.859v-0.702h0.853v0.702H203.639z M204.492,14.339v3.102h-0.853v-3.102H204.492z"/>
					<path class="st26" d="M205.973,14.339v0.432h0.019c0.107-0.18,0.248-0.311,0.42-0.393s0.348-0.123,0.527-0.123
						c0.229,0,0.415,0.031,0.562,0.093c0.146,0.062,0.261,0.148,0.345,0.258s0.144,0.244,0.177,0.402
						c0.034,0.158,0.052,0.333,0.052,0.525v1.908h-0.853v-1.752c0-0.256-0.04-0.447-0.12-0.573s-0.222-0.189-0.426-0.189
						c-0.232,0-0.4,0.069-0.504,0.207c-0.104,0.138-0.156,0.365-0.156,0.681v1.626h-0.852v-3.102H205.973z"/>
					<path class="st26" d="M210.425,14.339v0.57h-0.624v1.536c0,0.144,0.023,0.24,0.071,0.288c0.049,0.048,0.145,0.072,0.288,0.072
						c0.048,0,0.095-0.002,0.139-0.006s0.086-0.01,0.126-0.018v0.66c-0.072,0.012-0.152,0.02-0.24,0.024s-0.174,0.006-0.258,0.006
						c-0.132,0-0.258-0.009-0.375-0.027c-0.118-0.018-0.223-0.053-0.312-0.105c-0.09-0.052-0.161-0.126-0.213-0.222
						c-0.052-0.096-0.078-0.222-0.078-0.378v-1.83h-0.516v-0.57h0.516v-0.93h0.853v0.93H210.425z"/>
					<path class="st26" d="M211.746,16.697c0.128,0.124,0.312,0.186,0.552,0.186c0.172,0,0.32-0.043,0.444-0.129
						c0.123-0.086,0.199-0.177,0.228-0.273h0.75c-0.12,0.372-0.304,0.638-0.552,0.798c-0.248,0.16-0.548,0.24-0.9,0.24
						c-0.244,0-0.464-0.039-0.66-0.117c-0.195-0.078-0.361-0.189-0.498-0.333c-0.136-0.144-0.24-0.316-0.314-0.516
						c-0.074-0.2-0.111-0.42-0.111-0.66c0-0.232,0.038-0.448,0.114-0.648c0.076-0.2,0.184-0.373,0.324-0.519
						c0.14-0.146,0.307-0.261,0.501-0.345c0.193-0.084,0.408-0.126,0.645-0.126c0.265,0,0.494,0.051,0.69,0.153
						c0.195,0.102,0.356,0.239,0.482,0.411s0.217,0.368,0.273,0.588c0.056,0.22,0.076,0.45,0.06,0.69h-2.237
						C211.547,16.373,211.618,16.573,211.746,16.697z M212.708,15.065c-0.103-0.112-0.257-0.168-0.465-0.168
						c-0.137,0-0.249,0.023-0.34,0.069c-0.09,0.046-0.161,0.103-0.216,0.171c-0.054,0.068-0.092,0.14-0.113,0.216
						c-0.022,0.076-0.035,0.144-0.039,0.204h1.386C212.881,15.341,212.81,15.177,212.708,15.065z"/>
					<path class="st26" d="M215.087,14.339v0.576h0.013c0.039-0.096,0.094-0.185,0.161-0.267c0.068-0.082,0.146-0.152,0.234-0.21
						s0.182-0.103,0.282-0.135c0.1-0.032,0.204-0.048,0.312-0.048c0.057,0,0.118,0.01,0.187,0.03v0.792
						c-0.04-0.008-0.088-0.015-0.145-0.021c-0.056-0.006-0.109-0.009-0.162-0.009c-0.155,0-0.288,0.026-0.396,0.078
						c-0.108,0.052-0.195,0.123-0.261,0.213c-0.066,0.09-0.113,0.195-0.142,0.315c-0.027,0.12-0.042,0.25-0.042,0.39v1.398h-0.852
						v-3.102H215.087z"/>
					<path class="st26" d="M217.985,14.897c-0.136,0-0.25,0.031-0.342,0.093s-0.167,0.142-0.225,0.24
						c-0.059,0.098-0.1,0.206-0.123,0.324c-0.024,0.118-0.036,0.235-0.036,0.351c0,0.112,0.012,0.226,0.036,0.342
						c0.023,0.116,0.062,0.221,0.117,0.315c0.054,0.094,0.127,0.171,0.219,0.231s0.204,0.09,0.336,0.09
						c0.204,0,0.361-0.057,0.471-0.171c0.11-0.114,0.179-0.267,0.207-0.459h0.822c-0.056,0.412-0.216,0.726-0.48,0.942
						c-0.264,0.216-0.602,0.324-1.014,0.324c-0.232,0-0.445-0.039-0.639-0.117c-0.194-0.078-0.359-0.187-0.495-0.327
						c-0.136-0.14-0.242-0.307-0.318-0.501c-0.076-0.194-0.114-0.407-0.114-0.639c0-0.24,0.035-0.463,0.105-0.669
						s0.173-0.384,0.309-0.534c0.137-0.15,0.303-0.267,0.498-0.351c0.196-0.084,0.42-0.126,0.672-0.126
						c0.185,0,0.361,0.024,0.531,0.072c0.17,0.048,0.322,0.121,0.456,0.219s0.243,0.22,0.327,0.366s0.132,0.319,0.144,0.519h-0.834
						C218.559,15.075,218.349,14.897,217.985,14.897z"/>
					<path class="st26" d="M219.965,15.218c0.076-0.202,0.185-0.374,0.324-0.516c0.14-0.142,0.308-0.252,0.504-0.33
						c0.196-0.078,0.416-0.117,0.66-0.117s0.465,0.039,0.663,0.117c0.198,0.078,0.367,0.188,0.507,0.33
						c0.14,0.142,0.248,0.314,0.324,0.516c0.076,0.202,0.114,0.427,0.114,0.675c0,0.248-0.038,0.472-0.114,0.672
						s-0.185,0.371-0.324,0.513c-0.14,0.142-0.309,0.251-0.507,0.327c-0.198,0.076-0.419,0.114-0.663,0.114s-0.464-0.038-0.66-0.114
						c-0.196-0.076-0.364-0.185-0.504-0.327c-0.14-0.142-0.248-0.313-0.324-0.513s-0.114-0.424-0.114-0.672
						C219.851,15.645,219.889,15.42,219.965,15.218z M220.74,16.256c0.023,0.118,0.064,0.224,0.123,0.318
						c0.058,0.094,0.135,0.169,0.23,0.225c0.097,0.056,0.216,0.084,0.36,0.084c0.144,0,0.265-0.028,0.363-0.084
						c0.098-0.056,0.176-0.131,0.233-0.225c0.059-0.094,0.1-0.2,0.123-0.318c0.024-0.118,0.036-0.239,0.036-0.363
						c0-0.124-0.012-0.246-0.036-0.366c-0.023-0.12-0.064-0.226-0.123-0.318c-0.058-0.092-0.136-0.167-0.233-0.225
						c-0.099-0.058-0.22-0.087-0.363-0.087c-0.145,0-0.264,0.029-0.36,0.087c-0.096,0.058-0.173,0.133-0.23,0.225
						c-0.059,0.092-0.1,0.198-0.123,0.318c-0.024,0.12-0.036,0.242-0.036,0.366C220.704,16.017,220.715,16.138,220.74,16.256z"/>
					<path class="st26" d="M224.423,14.339v0.432h0.019c0.107-0.18,0.248-0.311,0.42-0.393s0.348-0.123,0.527-0.123
						c0.229,0,0.415,0.031,0.562,0.093c0.146,0.062,0.261,0.148,0.345,0.258s0.144,0.244,0.177,0.402
						c0.034,0.158,0.052,0.333,0.052,0.525v1.908h-0.853v-1.752c0-0.256-0.04-0.447-0.12-0.573s-0.222-0.189-0.426-0.189
						c-0.232,0-0.4,0.069-0.504,0.207c-0.104,0.138-0.156,0.365-0.156,0.681v1.626h-0.852v-3.102H224.423z"/>
					<path class="st26" d="M227.981,14.339v0.432h0.019c0.107-0.18,0.248-0.311,0.42-0.393s0.348-0.123,0.527-0.123
						c0.229,0,0.415,0.031,0.562,0.093c0.146,0.062,0.261,0.148,0.345,0.258s0.144,0.244,0.177,0.402
						c0.034,0.158,0.052,0.333,0.052,0.525v1.908h-0.853v-1.752c0-0.256-0.04-0.447-0.12-0.573s-0.222-0.189-0.426-0.189
						c-0.232,0-0.4,0.069-0.504,0.207c-0.104,0.138-0.156,0.365-0.156,0.681v1.626h-0.852v-3.102H227.981z"/>
					<path class="st26" d="M231.641,16.697c0.128,0.124,0.312,0.186,0.552,0.186c0.172,0,0.32-0.043,0.444-0.129
						c0.123-0.086,0.199-0.177,0.228-0.273h0.75c-0.12,0.372-0.304,0.638-0.552,0.798c-0.248,0.16-0.548,0.24-0.9,0.24
						c-0.244,0-0.464-0.039-0.66-0.117c-0.195-0.078-0.361-0.189-0.498-0.333c-0.136-0.144-0.24-0.316-0.314-0.516
						c-0.074-0.2-0.111-0.42-0.111-0.66c0-0.232,0.038-0.448,0.114-0.648c0.076-0.2,0.184-0.373,0.324-0.519
						c0.14-0.146,0.307-0.261,0.501-0.345c0.193-0.084,0.408-0.126,0.645-0.126c0.265,0,0.494,0.051,0.69,0.153
						c0.195,0.102,0.356,0.239,0.482,0.411s0.217,0.368,0.273,0.588c0.056,0.22,0.076,0.45,0.06,0.69h-2.237
						C231.443,16.373,231.513,16.573,231.641,16.697z M232.604,15.065c-0.103-0.112-0.257-0.168-0.465-0.168
						c-0.137,0-0.249,0.023-0.34,0.069c-0.09,0.046-0.161,0.103-0.216,0.171c-0.054,0.068-0.092,0.14-0.113,0.216
						c-0.022,0.076-0.035,0.144-0.039,0.204h1.386C232.777,15.341,232.705,15.177,232.604,15.065z"/>
					<path class="st26" d="M235.655,14.897c-0.136,0-0.25,0.031-0.342,0.093s-0.167,0.142-0.225,0.24
						c-0.059,0.098-0.1,0.206-0.123,0.324c-0.024,0.118-0.036,0.235-0.036,0.351c0,0.112,0.012,0.226,0.036,0.342
						c0.023,0.116,0.062,0.221,0.117,0.315c0.054,0.094,0.127,0.171,0.219,0.231s0.204,0.09,0.336,0.09
						c0.204,0,0.361-0.057,0.471-0.171c0.11-0.114,0.179-0.267,0.207-0.459h0.822c-0.056,0.412-0.216,0.726-0.48,0.942
						c-0.264,0.216-0.602,0.324-1.014,0.324c-0.232,0-0.445-0.039-0.639-0.117c-0.194-0.078-0.359-0.187-0.495-0.327
						c-0.136-0.14-0.242-0.307-0.318-0.501c-0.076-0.194-0.114-0.407-0.114-0.639c0-0.24,0.035-0.463,0.105-0.669
						s0.173-0.384,0.309-0.534c0.137-0.15,0.303-0.267,0.498-0.351c0.196-0.084,0.42-0.126,0.672-0.126
						c0.185,0,0.361,0.024,0.531,0.072c0.17,0.048,0.322,0.121,0.456,0.219s0.243,0.22,0.327,0.366s0.132,0.319,0.144,0.519h-0.834
						C236.229,15.075,236.019,14.897,235.655,14.897z"/>
					<path class="st26" d="M239.321,14.339v0.57h-0.624v1.536c0,0.144,0.023,0.24,0.071,0.288c0.049,0.048,0.145,0.072,0.288,0.072
						c0.048,0,0.095-0.002,0.139-0.006s0.086-0.01,0.126-0.018v0.66c-0.072,0.012-0.152,0.02-0.24,0.024s-0.174,0.006-0.258,0.006
						c-0.132,0-0.258-0.009-0.375-0.027c-0.118-0.018-0.223-0.053-0.312-0.105c-0.09-0.052-0.161-0.126-0.213-0.222
						c-0.052-0.096-0.078-0.222-0.078-0.378v-1.83h-0.516v-0.57h0.516v-0.93h0.853v0.93H239.321z"/>
					<path class="st26" d="M204.332,22.92c0.038,0.066,0.087,0.12,0.147,0.162c0.06,0.042,0.129,0.073,0.206,0.093
						c0.078,0.02,0.159,0.03,0.243,0.03c0.061,0,0.123-0.007,0.189-0.021c0.065-0.014,0.126-0.036,0.18-0.066
						c0.054-0.03,0.1-0.07,0.135-0.12c0.036-0.05,0.055-0.113,0.055-0.189c0-0.128-0.085-0.224-0.255-0.288
						c-0.171-0.064-0.407-0.128-0.711-0.192c-0.124-0.028-0.245-0.061-0.363-0.099s-0.224-0.088-0.315-0.15s-0.166-0.14-0.222-0.234
						c-0.056-0.094-0.084-0.209-0.084-0.345c0-0.2,0.039-0.364,0.117-0.492c0.078-0.128,0.181-0.229,0.309-0.303
						c0.128-0.074,0.272-0.126,0.432-0.156c0.16-0.03,0.324-0.045,0.492-0.045s0.331,0.016,0.489,0.048
						c0.158,0.032,0.299,0.086,0.423,0.162c0.124,0.076,0.228,0.177,0.31,0.303s0.131,0.285,0.146,0.477h-0.81
						c-0.013-0.164-0.074-0.275-0.187-0.333c-0.111-0.058-0.244-0.087-0.396-0.087c-0.048,0-0.101,0.003-0.156,0.009
						s-0.107,0.019-0.153,0.039s-0.085,0.049-0.116,0.087c-0.032,0.038-0.049,0.089-0.049,0.153c0,0.076,0.028,0.138,0.084,0.186
						c0.057,0.048,0.129,0.087,0.22,0.117c0.09,0.03,0.192,0.057,0.309,0.081s0.234,0.05,0.354,0.078
						c0.123,0.028,0.244,0.062,0.362,0.102c0.118,0.04,0.224,0.093,0.315,0.159s0.166,0.148,0.222,0.246s0.084,0.219,0.084,0.363
						c0,0.204-0.041,0.375-0.123,0.513c-0.082,0.138-0.188,0.249-0.321,0.333c-0.132,0.084-0.282,0.143-0.452,0.177
						c-0.171,0.034-0.344,0.051-0.52,0.051c-0.18,0-0.355-0.018-0.528-0.054c-0.172-0.036-0.324-0.096-0.459-0.18
						c-0.134-0.084-0.243-0.195-0.329-0.333c-0.087-0.138-0.134-0.311-0.142-0.519h0.811
						C204.276,22.775,204.294,22.854,204.332,22.92z"/>
					<path class="st26" d="M209.507,23.691l-0.552-2.082h-0.013l-0.527,2.082h-0.883l-0.983-3.102h0.899l0.57,2.106h0.012
						l0.517-2.106h0.828l0.527,2.1h0.013l0.569-2.1h0.876l-0.978,3.102H209.507z"/>
					<path class="st26" d="M211.745,20.109v-0.702h0.853v0.702H211.745z M212.597,20.589v3.102h-0.853v-3.102H212.597z"/>
					<path class="st26" d="M214.974,20.589v0.57h-0.624v1.536c0,0.144,0.023,0.24,0.071,0.288c0.049,0.048,0.145,0.072,0.288,0.072
						c0.048,0,0.095-0.002,0.139-0.006s0.086-0.01,0.126-0.018v0.66c-0.072,0.012-0.152,0.02-0.24,0.024s-0.174,0.006-0.258,0.006
						c-0.132,0-0.258-0.009-0.375-0.027c-0.118-0.018-0.223-0.053-0.312-0.105c-0.09-0.052-0.161-0.126-0.213-0.222
						c-0.052-0.096-0.078-0.222-0.078-0.378v-1.83h-0.516v-0.57h0.516v-0.93h0.853v0.93H214.974z"/>
					<path class="st26" d="M216.863,21.147c-0.136,0-0.25,0.031-0.342,0.093s-0.167,0.142-0.225,0.24
						c-0.059,0.098-0.1,0.206-0.123,0.324c-0.024,0.118-0.036,0.235-0.036,0.351c0,0.112,0.012,0.226,0.036,0.342
						c0.023,0.116,0.062,0.221,0.117,0.315c0.054,0.094,0.127,0.171,0.219,0.231s0.204,0.09,0.336,0.09
						c0.204,0,0.361-0.057,0.471-0.171c0.11-0.114,0.179-0.267,0.207-0.459h0.822c-0.056,0.412-0.216,0.726-0.48,0.942
						c-0.264,0.216-0.602,0.324-1.014,0.324c-0.232,0-0.445-0.039-0.639-0.117c-0.194-0.078-0.359-0.187-0.495-0.327
						c-0.136-0.14-0.242-0.307-0.318-0.501c-0.076-0.194-0.114-0.407-0.114-0.639c0-0.24,0.035-0.463,0.105-0.669
						s0.173-0.384,0.309-0.534c0.137-0.15,0.303-0.267,0.498-0.351c0.196-0.084,0.42-0.126,0.672-0.126
						c0.185,0,0.361,0.024,0.531,0.072c0.17,0.048,0.322,0.121,0.456,0.219s0.243,0.22,0.327,0.366s0.132,0.319,0.144,0.519h-0.834
						C217.437,21.325,217.227,21.147,216.863,21.147z"/>
					<path class="st26" d="M219.677,19.407v1.614h0.019c0.107-0.18,0.246-0.311,0.414-0.393s0.332-0.123,0.491-0.123
						c0.229,0,0.415,0.031,0.562,0.093c0.146,0.062,0.261,0.148,0.345,0.258s0.144,0.244,0.177,0.402
						c0.034,0.158,0.052,0.333,0.052,0.525v1.908h-0.853v-1.752c0-0.256-0.04-0.447-0.12-0.573s-0.222-0.189-0.426-0.189
						c-0.232,0-0.4,0.069-0.504,0.207c-0.104,0.138-0.156,0.365-0.156,0.681v1.626h-0.852v-4.284H219.677z"/>
					<path class="st26" d="M223.295,22.947c0.128,0.124,0.312,0.186,0.552,0.186c0.172,0,0.32-0.043,0.444-0.129
						c0.123-0.086,0.199-0.177,0.228-0.273h0.75c-0.12,0.372-0.304,0.638-0.552,0.798c-0.248,0.16-0.548,0.24-0.9,0.24
						c-0.244,0-0.464-0.039-0.66-0.117c-0.195-0.078-0.361-0.189-0.498-0.333c-0.136-0.144-0.24-0.316-0.314-0.516
						c-0.074-0.2-0.111-0.42-0.111-0.66c0-0.232,0.038-0.448,0.114-0.648c0.076-0.2,0.184-0.373,0.324-0.519
						c0.14-0.146,0.307-0.261,0.501-0.345c0.193-0.084,0.408-0.126,0.645-0.126c0.265,0,0.494,0.051,0.69,0.153
						c0.195,0.102,0.356,0.239,0.482,0.411s0.217,0.368,0.273,0.588c0.056,0.22,0.076,0.45,0.06,0.69h-2.237
						C223.097,22.623,223.167,22.823,223.295,22.947z M224.258,21.315c-0.103-0.112-0.257-0.168-0.465-0.168
						c-0.137,0-0.249,0.023-0.34,0.069c-0.09,0.046-0.161,0.103-0.216,0.171c-0.054,0.068-0.092,0.14-0.113,0.216
						c-0.022,0.076-0.035,0.144-0.039,0.204h1.386C224.431,21.591,224.36,21.427,224.258,21.315z"/>
					<path class="st26" d="M226.544,22.92c0.038,0.066,0.087,0.12,0.147,0.162c0.06,0.042,0.129,0.073,0.206,0.093
						c0.078,0.02,0.159,0.03,0.243,0.03c0.061,0,0.123-0.007,0.189-0.021c0.065-0.014,0.126-0.036,0.18-0.066
						c0.054-0.03,0.1-0.07,0.135-0.12c0.036-0.05,0.055-0.113,0.055-0.189c0-0.128-0.085-0.224-0.255-0.288
						c-0.171-0.064-0.407-0.128-0.711-0.192c-0.124-0.028-0.245-0.061-0.363-0.099s-0.224-0.088-0.315-0.15s-0.166-0.14-0.222-0.234
						c-0.056-0.094-0.084-0.209-0.084-0.345c0-0.2,0.039-0.364,0.117-0.492c0.078-0.128,0.181-0.229,0.309-0.303
						c0.128-0.074,0.272-0.126,0.432-0.156c0.16-0.03,0.324-0.045,0.492-0.045s0.331,0.016,0.489,0.048
						c0.158,0.032,0.299,0.086,0.423,0.162c0.124,0.076,0.228,0.177,0.31,0.303s0.131,0.285,0.146,0.477h-0.81
						c-0.013-0.164-0.074-0.275-0.187-0.333c-0.111-0.058-0.244-0.087-0.396-0.087c-0.048,0-0.101,0.003-0.156,0.009
						s-0.107,0.019-0.153,0.039s-0.085,0.049-0.116,0.087c-0.032,0.038-0.049,0.089-0.049,0.153c0,0.076,0.028,0.138,0.084,0.186
						c0.057,0.048,0.129,0.087,0.22,0.117c0.09,0.03,0.192,0.057,0.309,0.081s0.234,0.05,0.354,0.078
						c0.123,0.028,0.244,0.062,0.362,0.102c0.118,0.04,0.224,0.093,0.315,0.159s0.166,0.148,0.222,0.246s0.084,0.219,0.084,0.363
						c0,0.204-0.041,0.375-0.123,0.513c-0.082,0.138-0.188,0.249-0.321,0.333c-0.132,0.084-0.282,0.143-0.452,0.177
						c-0.171,0.034-0.344,0.051-0.52,0.051c-0.18,0-0.355-0.018-0.528-0.054c-0.172-0.036-0.324-0.096-0.459-0.18
						c-0.134-0.084-0.243-0.195-0.329-0.333c-0.087-0.138-0.134-0.311-0.142-0.519h0.811
						C226.488,22.775,226.506,22.854,226.544,22.92z"/>
				</g>
			</g>
		</g>
	</g>
</g>
</svg>
