<?xml version="1.0" encoding="utf-8"?>
<!-- Generator: Adobe Illustrator 26.0.3, SVG Export Plug-In . SVG Version: 6.00 Build 0)  -->
<svg version="1.1" id="Layer_1" xmlns="http://www.w3.org/2000/svg" xmlns:xlink="http://www.w3.org/1999/xlink" x="0px" y="0px"
	 viewBox="0 0 299.8 135.2" style="enable-background:new 0 0 299.8 135.2;" xml:space="preserve">
<style type="text/css">
	.st0{fill:none;stroke:#CCCCCC;stroke-width:0.6715;stroke-linecap:round;stroke-linejoin:round;stroke-miterlimit:10;}
	.st1{fill:#E6E6E6;}
	.st2{fill:#CCCCCC;}
	.st3{fill-rule:evenodd;clip-rule:evenodd;fill:#E6E6E6;}
	.st4{fill-rule:evenodd;clip-rule:evenodd;fill:#262626;}
	.st5{fill:#595A5A;}
	.st6{fill:#D9D9D9;}
	.st7{fill:#6A6A6A;}
	.st8{fill-rule:evenodd;clip-rule:evenodd;fill:#FFFFFF;}
	.st9{fill:#292929;}
	.st10{fill-rule:evenodd;clip-rule:evenodd;fill:#B3B3B3;}
	.st11{fill-rule:evenodd;clip-rule:evenodd;fill:#D66927;}
	.st12{fill-rule:evenodd;clip-rule:evenodd;fill:#333333;}
	.st13{fill:#FFFFFF;}
	.st14{font-family:'ArialMT';}
	.st15{font-size:2.194px;}
	.st16{font-family:'Arial-BoldMT';}
	.st17{font-size:2.6328px;}
	.st18{fill-rule:evenodd;clip-rule:evenodd;fill:#999999;}
	.st19{fill:#2762AC;}
	.st20{fill:#F5F6F6;}
	.st21{fill-rule:evenodd;clip-rule:evenodd;fill:#F5F6F6;}
	.st22{fill:#EE7623;stroke:#2762AC;stroke-width:0.2857;stroke-miterlimit:10;}
	.st23{fill:#262626;}
	.st24{fill:#A25EB5;}
	.st25{fill-rule:evenodd;clip-rule:evenodd;fill:#1A1A1A;}
	.st26{fill-rule:evenodd;clip-rule:evenodd;fill:#F2F2F2;}
	.st27{fill:#638C1C;stroke:#2762AC;stroke-width:0.2857;stroke-miterlimit:10;}
	.st28{fill:#4D4E4E;}
	.st29{fill:none;stroke:#FFFFFF;stroke-width:0.1222;stroke-miterlimit:10;}
	.st30{fill:none;stroke:#EE7623;stroke-width:1.75;stroke-linecap:round;stroke-linejoin:round;stroke-miterlimit:10;}
	.st31{fill:#EE7623;}
	.st32{fill:none;stroke:#638C1C;stroke-width:1.75;stroke-linecap:round;stroke-linejoin:round;stroke-miterlimit:10;}
	.st33{fill:none;stroke:#A25EB5;stroke-width:1.75;stroke-linecap:round;stroke-linejoin:round;stroke-miterlimit:10;}
	.st34{fill:#638C1C;}
	.st35{font-family:'Gotham-Bold';}
	.st36{font-size:9.198px;}
	.st37{font-family:'HelveticaNeue-Bold';}
	.st38{font-size:6px;}
	.st39{font-size:4px;}
</style>
<g>
	<g>
		<g>
			<g>
				<rect x="7.2" y="41.6" class="st0" width="288" height="60.2"/>
				<rect x="10.1" y="44.6" class="st1" width="282.1" height="54.2"/>
				<g>
					<rect x="15" y="72.6" class="st2" width="131.6" height="24.1"/>
					<g>
						<path class="st3" d="M56.8,93.7h20.6c0.3,0,0.5-0.2,0.5-0.5V74.5c0-0.3-0.3-0.5-0.5-0.5H56.8c-0.3,0-0.5,0.2-0.5,0.5v18.6
							C56.3,93.5,56.5,93.7,56.8,93.7"/>
						<path class="st4" d="M70.5,75c0-0.1-0.1-0.2-0.2-0.2c-0.1,0-0.2,0.1-0.2,0.2l0.1,1.4c0,0.1,0,0.1,0.1,0.1c0,0,0.1,0,0.1-0.1
							L70.5,75 M70.5,76.9c0-0.1-0.1-0.3-0.3-0.3c-0.1,0-0.3,0.1-0.3,0.3c0,0.1,0.1,0.2,0.3,0.2C70.4,77.1,70.5,77,70.5,76.9z"/>
						<path class="st4" d="M65.4,75.7c-0.1-0.6-0.8-0.9-1.4-0.8c-0.6,0.2-1,0.8-0.8,1.4c0.2,0.6,0.8,0.9,1.4,0.8
							C65.3,76.9,65.6,76.3,65.4,75.7 M65.3,75.9c0.1,0.5-0.3,1-0.8,1c-0.4,0.1-0.8-0.1-0.9-0.5l0.6-0.6l0.3,1L65.3,75.9z
							 M63.4,76.2c0-0.5,0.3-1,0.8-1c0.4-0.1,0.8,0.1,1,0.5l-0.6,0.6l-0.3-1L63.4,76.2z"/>
					</g>
					<circle class="st4" cx="64.4" cy="79.2" r="1.2"/>
					<circle class="st4" cx="70.3" cy="79.2" r="1.2"/>
					<g>
						<path class="st5" d="M117.1,92.4h9.3c0.4,0,0.7-0.3,0.7-0.7V74.9c0-0.4-0.3-0.7-0.7-0.7h-9.3c-0.4,0-0.7,0.3-0.7,0.7v16.9
							C116.4,92.1,116.8,92.4,117.1,92.4z"/>
						<path class="st6" d="M117.9,89.7h7.9c0.3,0,0.5-0.3,0.5-0.5V77.5c0-0.3-0.3-0.5-0.5-0.5h-7.9c-0.3,0-0.5,0.3-0.5,0.5v11.7
							C117.3,89.4,117.5,89.7,117.9,89.7z"/>
						<path class="st5" d="M125.1,80.4v-1.7c0-0.2-0.1-0.3-0.3-0.3h-6c-0.2,0-0.3,0.1-0.3,0.3v1.7H125.1z"/>
						<path class="st7" d="M125.1,80.4h-6.6v7.4c0,0.2,0.1,0.3,0.3,0.3h6c0.2,0,0.3-0.1,0.3-0.3V80.4z"/>
						<path class="st8" d="M121.8,83.3c0.1,0,0.2-0.1,0.2-0.2v-1.6c0-0.1-0.1-0.2-0.2-0.2c-0.1,0-0.2,0.1-0.2,0.2v1.6
							C121.6,83.2,121.7,83.3,121.8,83.3 M122.5,86c0-0.4-0.3-0.7-0.7-0.7c-0.4,0-0.7,0.3-0.7,0.7c0,0.4,0.3,0.7,0.7,0.7
							C122.2,86.7,122.5,86.4,122.5,86z M122.9,86c0-0.6-0.5-1.1-1.1-1.1c-0.6,0-1.1,0.5-1.1,1.1c0,0.6,0.5,1.1,1.1,1.1
							C122.4,87.1,122.9,86.6,122.9,86z"/>
						<path class="st5" d="M129.7,75v17c0,0.5,0.4,1,1,1h12.3c0.5,0,1-0.4,1-1V75c0-0.5-0.4-1-1-1h-12.3
							C130.1,74,129.7,74.4,129.7,75z"/>
						<path class="st9" d="M131.1,79.6v7.7c0,0.4,0.2,0.8,0.5,1.1l3.1,2.9c0.3,0.3,0.7,0.4,1.1,0.4h5.2c0.9,0,1.6-0.7,1.6-1.6V76.7
							c0-0.9-0.7-1.6-1.6-1.6h-5.2c-0.4,0-0.8,0.1-1.1,0.4l-3.1,2.9C131.3,78.8,131.1,79.2,131.1,79.6z"/>
						<path class="st10" d="M136.9,88.5h3.1v-1h-3.1V88.5z M133.5,84h3.1v-1h-3.1V84z M136.9,79.5h3.1v-0.9h-3.1V79.5z"/>
					</g>
					<g>
						<rect x="101.1" y="93.5" class="st5" width="45.2" height="3.3"/>
						<rect x="66.1" y="91.8" class="st5" width="3.3" height="4.9"/>
						<rect x="15.7" y="93.5" class="st5" width="34" height="3.3"/>
						<path class="st7" d="M82.8,93.5c-0.7,0-1.3-0.1-2-0.2l-4.7-1.1c-0.7-0.2-1.3-0.3-2-0.3h-5c-0.2,0-0.3,0.2-0.3,0.3v4.3
							c0,0.2,0.2,0.3,0.3,0.3h31.9v-3.3H82.8z"/>
						<path class="st11" d="M71.5,96.3h27.8V94H82.8c-0.7,0-1.4-0.1-2.1-0.3l-4.7-1.1c-0.6-0.2-1.2-0.2-1.9-0.2h-2.7V96.3"/>
						<path class="st7" d="M61.3,93.5H49.7v3.3h16.6c0.2,0,0.3-0.2,0.3-0.3v-4.3c0-0.2-0.2-0.3-0.3-0.3H64c-0.2,0-0.3,0.1-0.5,0.2
							l-1.7,1.3C61.6,93.4,61.4,93.5,61.3,93.5z"/>
						<rect x="13.3" y="94.5" class="st5" width="4.9" height="2.2"/>
					</g>
				</g>
				<g>
					<rect x="156.6" y="72.6" class="st2" width="131.6" height="24.1"/>
					<g>
						<path class="st3" d="M198.4,93.7H219c0.3,0,0.5-0.2,0.5-0.5V74.5c0-0.3-0.3-0.5-0.5-0.5h-20.6c-0.3,0-0.5,0.2-0.5,0.5v18.6
							C197.8,93.5,198.1,93.7,198.4,93.7"/>
						<path class="st4" d="M212,75c0-0.1-0.1-0.2-0.2-0.2s-0.2,0.1-0.2,0.2l0.1,1.4c0,0.1,0,0.1,0.1,0.1s0.1,0,0.1-0.1L212,75
							 M212.1,76.9c0-0.1-0.1-0.3-0.3-0.3s-0.3,0.1-0.3,0.3c0,0.1,0.1,0.2,0.3,0.2S212.1,77,212.1,76.9z"/>
						<path class="st4" d="M207,75.7c-0.1-0.6-0.8-0.9-1.4-0.8c-0.6,0.2-1,0.8-0.8,1.4c0.2,0.6,0.8,0.9,1.4,0.8
							C206.8,76.9,207.2,76.3,207,75.7 M206.8,75.9c0.1,0.5-0.3,1-0.8,1c-0.4,0.1-0.8-0.1-0.9-0.5l0.6-0.6l0.3,1L206.8,75.9z
							 M205,76.2c0-0.5,0.3-1,0.8-1c0.4-0.1,0.8,0.1,1,0.5l-0.6,0.6l-0.3-1L205,76.2z"/>
					</g>
					<circle class="st4" cx="206" cy="79.2" r="1.2"/>
					<circle class="st4" cx="211.9" cy="79.2" r="1.2"/>
					<g>
						<path class="st5" d="M258.7,92.4h9.3c0.4,0,0.7-0.3,0.7-0.7V74.9c0-0.4-0.3-0.7-0.7-0.7h-9.3c-0.4,0-0.7,0.3-0.7,0.7v16.9
							C258,92.1,258.3,92.4,258.7,92.4z"/>
						<path class="st6" d="M259.4,89.7h7.9c0.3,0,0.5-0.3,0.5-0.5V77.5c0-0.3-0.3-0.5-0.5-0.5h-7.9c-0.3,0-0.5,0.3-0.5,0.5v11.7
							C258.9,89.4,259.1,89.7,259.4,89.7z"/>
						<path class="st5" d="M266.7,80.4v-1.7c0-0.2-0.1-0.3-0.3-0.3h-6c-0.2,0-0.3,0.1-0.3,0.3v1.7H266.7z"/>
						<path class="st7" d="M266.7,80.4h-6.6v7.4c0,0.2,0.1,0.3,0.3,0.3h6c0.2,0,0.3-0.1,0.3-0.3V80.4z"/>
						<path class="st8" d="M263.3,83.3c0.1,0,0.2-0.1,0.2-0.2v-1.6c0-0.1-0.1-0.2-0.2-0.2c-0.1,0-0.2,0.1-0.2,0.2v1.6
							C263.2,83.2,263.2,83.3,263.3,83.3 M264.1,86c0-0.4-0.3-0.7-0.7-0.7c-0.4,0-0.7,0.3-0.7,0.7c0,0.4,0.3,0.7,0.7,0.7
							C263.8,86.7,264.1,86.4,264.1,86z M264.5,86c0-0.6-0.5-1.1-1.1-1.1c-0.6,0-1.1,0.5-1.1,1.1c0,0.6,0.5,1.1,1.1,1.1
							C264,87.1,264.5,86.6,264.5,86z"/>
						<path class="st5" d="M271.2,75v17c0,0.5,0.4,1,1,1h12.3c0.5,0,1-0.4,1-1V75c0-0.5-0.4-1-1-1h-12.3
							C271.7,74,271.2,74.4,271.2,75z"/>
						<path class="st9" d="M272.6,79.6v7.7c0,0.4,0.2,0.8,0.5,1.1l3.1,2.9c0.3,0.3,0.7,0.4,1.1,0.4h5.2c0.9,0,1.6-0.7,1.6-1.6V76.7
							c0-0.9-0.7-1.6-1.6-1.6h-5.2c-0.4,0-0.8,0.1-1.1,0.4l-3.1,2.9C272.8,78.8,272.6,79.2,272.6,79.6z"/>
						<path class="st10" d="M278.5,88.5h3.1v-1h-3.1V88.5z M275.1,84h3.1v-1h-3.1V84z M278.5,79.5h3.1v-0.9h-3.1V79.5z"/>
					</g>
					<g>
						<rect x="243.8" y="93.5" class="st5" width="44.2" height="3.2"/>
						<rect x="209.6" y="91.9" class="st5" width="3.2" height="4.8"/>
						<rect x="160.4" y="93.5" class="st5" width="33.2" height="3.2"/>
						<path class="st7" d="M225.9,93.5c-0.7,0-1.3-0.1-1.9-0.2l-4.6-1.1c-0.6-0.2-1.3-0.3-1.9-0.3h-4.9c-0.2,0-0.3,0.1-0.3,0.3v4.2
							c0,0.1,0.1,0.3,0.3,0.3h31.2v-3.2H225.9z"/>
						<path class="st11" d="M214.9,96.3H242V94h-16.1c-0.7,0-1.4-0.1-2.1-0.3l-4.6-1.1c-0.6-0.1-1.2-0.2-1.8-0.2h-2.6V96.3"/>
						<path class="st7" d="M204.9,93.5h-11.3v3.2h16.2c0.1,0,0.3-0.1,0.3-0.3v-4.2c0-0.2-0.1-0.3-0.3-0.3h-2.2
							c-0.2,0-0.3,0.1-0.5,0.2l-1.6,1.3C205.2,93.5,205,93.5,204.9,93.5z"/>
						<rect x="158" y="94.6" class="st5" width="4.8" height="2.2"/>
					</g>
				</g>
				<g>
					<path class="st12" d="M151,80h3v-3.6h-3l-1.4,1.8L151,80z M152.6,91.4l1.4-1.8l-1.4-1.8h-3v3.7H152.6z"/>
					<path class="st8" d="M151.8,89.5c0-0.5-0.4-1-1-1c-0.5,0-1,0.4-1,1c0,0.5,0.4,1,1,1C151.4,90.5,151.8,90.1,151.8,89.5
						 M151.6,89.7c-0.1,0.4-0.5,0.7-0.9,0.7c-0.4,0-0.6-0.3-0.7-0.6l0,0l0.7-0.4v0.9L151.6,89.7L151.6,89.7z M150,89.4
						c0-0.4,0.5-0.7,0.9-0.7c0.3,0.1,0.6,0.3,0.7,0.7l-0.7,0.4v-0.9L150,89.4L150,89.4z M152.5,78.2c0-0.5-0.4-1-1-1
						c-0.5,0-1,0.4-1,1c0,0.5,0.4,1,1,1C152.1,79.2,152.5,78.7,152.5,78.2z M152.3,78.3c0,0.4-0.5,0.7-0.9,0.7
						c-0.3,0-0.6-0.3-0.7-0.6l0,0l0.7-0.4v0.9L152.3,78.3L152.3,78.3z M150.7,78.1c0.1-0.4,0.5-0.7,0.9-0.7c0.4,0,0.6,0.3,0.7,0.6
						l-0.7,0.4v-0.9L150.7,78.1z"/>
					<text transform="matrix(1 0 0 1 152.6899 78.9827)" class="st13 st14 st15">1</text>
					<text transform="matrix(1 0 0 1 151.9574 90.3304)" class="st13 st14 st15">2</text>
				</g>
				<rect x="15" y="46.7" class="st1" width="131.6" height="24.1"/>
				<g>
					<g>
						<polyline class="st12" points="151,54.6 154,54.6 154,51 151,51 149.6,52.8 151,54.6 						"/>
						<polygon class="st12" points="152.6,66 154,64.2 152.6,62.4 149.6,62.4 149.6,66 						"/>
						<text transform="matrix(1 0 0 1 151.5912 53.7952)" class="st13 st16 st17">A</text>
						<text transform="matrix(1 0 0 1 150.2006 65.1419)" class="st13 st16 st17">B</text>
					</g>
				</g>
				<g>
					<rect x="156.6" y="46.7" class="st1" width="131.6" height="24.1"/>
				</g>
			</g>
			<g>
				<rect x="87.2" y="46.9" class="st18" width="59.1" height="19.6"/>
				<rect x="116.8" y="46.9" class="st19" width="21.5" height="15.2"/>
				<rect x="87.2" y="46.9" class="st20" width="29.4" height="15.2"/>
			</g>
			<rect x="15.2" y="46.9" class="st18" width="69.4" height="22.2"/>
			<path class="st21" d="M67.9,57.1h11.5c0.3,0,0.5-0.2,0.5-0.5v-5.4c0-0.3-0.2-0.5-0.5-0.5H67.9c-0.2,0-0.5,0.2-0.5,0.5v5.4
				C67.4,56.9,67.6,57.1,67.9,57.1z"/>
			<path class="st21" d="M53.8,56.4h8.4c0.2,0,0.5-0.2,0.5-0.5v-5.1c0-0.2-0.2-0.5-0.5-0.5h-8.4c-0.2,0-0.5,0.2-0.5,0.5V56
				C53.3,56.2,53.5,56.4,53.8,56.4z"/>
			<path class="st21" d="M21.6,56.6h11.5c0.2,0,0.5-0.2,0.5-0.5v-7.8c0-0.2-0.2-0.5-0.5-0.5H21.6c-0.2,0-0.5,0.2-0.5,0.5v7.8
				C21.1,56.4,21.3,56.6,21.6,56.6z"/>
			<path class="st21" d="M36.6,56.6h11.5c0.2,0,0.5-0.2,0.5-0.5v-7.8c0-0.2-0.2-0.5-0.5-0.5H36.6c-0.2,0-0.5,0.2-0.5,0.5v7.8
				C36.1,56.4,36.3,56.6,36.6,56.6z"/>
			<rect x="15.8" y="57.1" class="st19" width="46.7" height="10.8"/>
			<rect x="21" y="59.9" class="st22" width="9.1" height="5.9"/>
			<rect x="30.5" y="59.9" class="st22" width="9.1" height="5.9"/>
			<rect x="39.9" y="59.9" class="st22" width="9.1" height="5.9"/>
			<rect x="49.4" y="59.9" class="st22" width="9.1" height="5.9"/>
			<circle class="st23" cx="23.7" cy="58.4" r="0.6"/>
			<circle class="st23" cx="27.6" cy="58.4" r="0.6"/>
			<circle class="st23" cx="33.1" cy="58.4" r="0.6"/>
			<circle class="st23" cx="37.1" cy="58.4" r="0.6"/>
			<circle class="st23" cx="42.5" cy="58.4" r="0.6"/>
			<circle class="st23" cx="46.5" cy="58.4" r="0.6"/>
			<circle class="st23" cx="52" cy="58.4" r="0.6"/>
			<circle class="st23" cx="55.9" cy="58.4" r="0.6"/>
			<polygon class="st24" points="23.3,53.5 23.3,55.3 31.4,55.3 31.4,53.5 31.2,53.5 31.2,52.2 31.4,52.2 31.4,50.3 29.6,50.3 
				29.6,49.2 28.8,49.2 28.8,48.6 25.8,48.6 25.8,49.2 25,49.2 25,50.3 23.3,50.3 23.3,52.2 23.4,52.2 23.4,53.5 			"/>
			<polygon class="st23" points="38.2,53.5 38.2,55.3 46.3,55.3 46.3,53.5 46.1,53.5 46.1,52.2 46.3,52.2 46.3,50.3 44.5,50.3 
				44.5,49.2 43.8,49.2 43.8,48.6 40.8,48.6 40.8,49.2 40,49.2 40,50.3 38.2,50.3 38.2,52.2 38.4,52.2 38.4,53.5 			"/>
			<path class="st25" d="M55.8,54.8h4.4c0.6,0,1.1-0.5,1.1-1.1v-0.4c0-0.6-0.5-1.1-1.1-1.1h-4.4c-0.6,0-1.1,0.5-1.1,1.1v0.4
				C54.8,54.3,55.2,54.8,55.8,54.8z"/>
			<path class="st23" d="M77.6,52.2h-7.9c-0.1,0-0.2,0.1-0.2,0.2v3c0,0.1,0.1,0.2,0.2,0.2h7.9c0.1,0,0.2-0.1,0.2-0.2v-3
				C77.8,52.2,77.7,52.2,77.6,52.2z"/>
			<polygon class="st8" points="18,63 18.4,63 18.4,64.4 18.6,64.4 18.6,63.9 19,63.9 19,64.2 19.8,64.2 19.8,63.2 19,63.2 19,63.6 
				18.6,63.6 18.6,62.1 19,62.1 19,62.5 19.8,62.5 19.8,61.5 19,61.5 19,61.9 18.6,61.9 18.6,61.4 18.4,61.4 18.4,62.7 18,62.7 
				17.9,62.3 17.1,62.3 17.1,63.4 17.9,63.4 			"/>
			<path class="st26" d="M82.3,52.4v2.4l-0.5-0.5v-0.5c0.1-0.1,0.2-0.2,0.1-0.4c-0.1-0.1-0.2-0.2-0.4-0.1c-0.1,0.1-0.2,0.2-0.1,0.4
				c0,0.1,0.1,0.1,0.1,0.1v0.6l0.7,0.7v0.2c-0.2,0-0.4,0.2-0.3,0.5c0,0.2,0.2,0.4,0.5,0.3c0.2,0,0.4-0.2,0.3-0.5
				c0-0.1-0.1-0.2-0.3-0.3v-0.9l0.7-0.7v-0.5h0.2v-0.5h-0.5v0.5H83v0.4l-0.5,0.5v-1.7h0.2l-0.3-0.5l-0.2,0.5H82.3z"/>
			<path class="st26" d="M19.4,52.2h-1.7c-0.1-0.4-0.5-0.6-0.9-0.5c-0.1,0-0.1,0.1-0.2,0.1V52h0.4l0.2,0.5l-0.2,0.4h-0.4V53
				c0.3,0.2,0.7,0.2,1-0.1c0.1,0,0.1-0.1,0.1-0.2h1.7c0.1,0.4,0.5,0.5,0.8,0.4c0.1,0,0.1-0.1,0.2-0.1v-0.1H20l-0.2-0.4L20,52h0.4
				v-0.1c-0.3-0.2-0.7-0.2-0.9,0.1C19.4,52,19.4,52.1,19.4,52.2z"/>
			<path class="st4" d="M91.2,58.9H98c0.1,0,0.1-0.1,0.1-0.1V52c0-0.1-0.1-0.2-0.1-0.2h-6.8C91,51.8,91,51.9,91,52v6.8
				C91,58.9,91,58.9,91.2,58.9"/>
			<path class="st4" d="M100.7,58.9h6.8c0.1,0,0.1-0.1,0.1-0.1V52c0-0.1-0.1-0.2-0.1-0.2h-6.8c-0.1,0-0.2,0.1-0.2,0.2v6.8
				C100.5,58.9,100.6,58.9,100.7,58.9"/>
			<path class="st4" d="M108.4,58.9h6.8c0.1,0,0.1-0.1,0.1-0.1V52c0-0.1-0.1-0.2-0.1-0.2h-6.8c-0.1,0-0.2,0.1-0.2,0.2v6.8
				C108.2,58.9,108.3,58.9,108.4,58.9"/>
			<g>
				<rect x="118.1" y="51.7" class="st27" width="9.1" height="5.9"/>
				<rect x="127.5" y="51.7" class="st27" width="9.1" height="5.9"/>
			</g>
			<circle class="st23" cx="93" cy="49.1" r="0.8"/>
			<circle class="st23" cx="96" cy="49.1" r="0.8"/>
			<circle class="st23" cx="102.8" cy="49.1" r="0.8"/>
			<circle class="st23" cx="105.8" cy="49.1" r="0.8"/>
			<circle class="st23" cx="109.9" cy="49.1" r="0.8"/>
			<circle class="st23" cx="112.9" cy="49.1" r="0.8"/>
			<g>
				<circle class="st23" cx="120.7" cy="49.1" r="0.8"/>
				<circle class="st23" cx="125.2" cy="49.1" r="0.8"/>
			</g>
			<g>
				<circle class="st23" cx="130" cy="49.1" r="0.8"/>
				<circle class="st23" cx="134.6" cy="49.1" r="0.8"/>
			</g>
			<g>
				<path class="st28" d="M81.8,66.3V69H18.6v1h63.3v0.8h64.5v-3.2H88V66h-5.9C82,66,81.8,66.1,81.8,66.3z"/>
				<path class="st28" d="M85.5,67.6H71.6c-0.1,0-0.3,0.1-0.4,0.2l-1.9,1.9c-0.1,0.1-0.3,0.2-0.5,0.2H21.9c-0.1,0-0.3-0.1-0.4-0.2
					l-1.9-1.9c-0.1-0.1-0.3-0.2-0.5-0.2h-3.3v1h-2.5v2.2h72.2V67.6z"/>
				<path class="st7" d="M95.6,66H85.5v4.8h21v-3.2h-2.2c-0.4,0-0.8-0.1-1.2-0.1l-6.2-1.4C96.4,66.1,96,66,95.6,66z"/>
				<path class="st11" d="M104.4,68.1h-2.3c-0.7,0-1.3-0.1-2-0.2l-4.3-1c-0.6-0.1-1.1-0.2-1.7-0.2h-2.5v3.3h12.8V68.1"/>
			</g>
			<g>
				<rect x="52.6" y="52.5" class="st13" width="0.1" height="1.2"/>
				<path class="st29" d="M52.3,53c0,0.3-0.2,0.5-0.5,0.5c-0.3,0-0.5-0.2-0.5-0.5c0-0.3,0.2-0.5,0.5-0.5
					C52.1,52.6,52.3,52.8,52.3,53z"/>
				<rect x="50.9" y="52.5" class="st13" width="0.1" height="1.2"/>
				<path class="st29" d="M50.5,53c0,0.3-0.2,0.5-0.5,0.5c-0.3,0-0.5-0.2-0.5-0.5c0-0.3,0.2-0.5,0.5-0.5
					C50.3,52.6,50.5,52.8,50.5,53z"/>
				<rect x="49.1" y="52.5" class="st13" width="0.1" height="1.2"/>
			</g>
			<g>
				<rect x="229.1" y="46.9" class="st18" width="59.1" height="19.6"/>
				<rect x="258.6" y="46.9" class="st19" width="21.5" height="15.2"/>
				<rect x="229.1" y="46.9" class="st20" width="29.4" height="15.2"/>
			</g>
			<rect x="157.1" y="46.9" class="st18" width="69.4" height="22.2"/>
			<path class="st21" d="M209.7,57.1h11.5c0.3,0,0.5-0.2,0.5-0.5v-5.4c0-0.3-0.2-0.5-0.5-0.5h-11.5c-0.2,0-0.5,0.2-0.5,0.5v5.4
				C209.3,56.9,209.5,57.1,209.7,57.1z"/>
			<path class="st21" d="M195.6,56.4h8.4c0.2,0,0.5-0.2,0.5-0.5v-5.1c0-0.2-0.2-0.5-0.5-0.5h-8.4c-0.2,0-0.5,0.2-0.5,0.5V56
				C195.2,56.2,195.4,56.4,195.6,56.4z"/>
			<path class="st21" d="M163.4,56.6H175c0.2,0,0.5-0.2,0.5-0.5v-7.8c0-0.2-0.2-0.5-0.5-0.5h-11.5c-0.2,0-0.5,0.2-0.5,0.5v7.8
				C163,56.4,163.2,56.6,163.4,56.6z"/>
			<path class="st21" d="M178.4,56.6H190c0.2,0,0.5-0.2,0.5-0.5v-7.8c0-0.2-0.2-0.5-0.5-0.5h-11.5c-0.2,0-0.5,0.2-0.5,0.5v7.8
				C178,56.4,178.2,56.6,178.4,56.6z"/>
			<rect x="157.7" y="57.1" class="st19" width="46.7" height="10.8"/>
			<rect x="162.9" y="59.9" class="st22" width="9.1" height="5.9"/>
			<rect x="172.3" y="59.9" class="st22" width="9.1" height="5.9"/>
			<rect x="181.8" y="59.9" class="st22" width="9.1" height="5.9"/>
			<rect x="191.3" y="59.9" class="st22" width="9.1" height="5.9"/>
			<circle class="st23" cx="169.5" cy="58.4" r="0.6"/>
			<circle class="st23" cx="175" cy="58.4" r="0.6"/>
			<circle class="st23" cx="178.9" cy="58.4" r="0.6"/>
			<circle class="st23" cx="184.4" cy="58.4" r="0.6"/>
			<circle class="st23" cx="188.4" cy="58.4" r="0.6"/>
			<circle class="st23" cx="193.8" cy="58.4" r="0.6"/>
			<circle class="st23" cx="197.8" cy="58.4" r="0.6"/>
			<polygon class="st24" points="165.1,53.5 165.1,55.3 173.2,55.3 173.2,53.5 173,53.5 173,52.2 173.2,52.2 173.2,50.3 171.4,50.3 
				171.4,49.2 170.7,49.2 170.7,48.6 167.7,48.6 167.7,49.2 166.9,49.2 166.9,50.3 165.1,50.3 165.1,52.2 165.3,52.2 165.3,53.5 			
				"/>
			<polygon class="st23" points="180.1,53.5 180.1,55.3 188.2,55.3 188.2,53.5 188,53.5 188,52.2 188.2,52.2 188.2,50.3 186.4,50.3 
				186.4,49.2 185.6,49.2 185.6,48.6 182.6,48.6 182.6,49.2 181.9,49.2 181.9,50.3 180.1,50.3 180.1,52.2 180.2,52.2 180.2,53.5 			
				"/>
			<path class="st25" d="M197.7,54.8h4.4c0.6,0,1.1-0.5,1.1-1.1v-0.4c0-0.6-0.5-1.1-1.1-1.1h-4.4c-0.6,0-1.1,0.5-1.1,1.1v0.4
				C196.6,54.3,197.1,54.8,197.7,54.8z"/>
			<path class="st23" d="M219.5,52.2h-7.9c-0.1,0-0.2,0.1-0.2,0.2v3c0,0.1,0.1,0.2,0.2,0.2h7.9c0.1,0,0.2-0.1,0.2-0.2v-3
				C219.7,52.2,219.6,52.2,219.5,52.2z"/>
			<path class="st26" d="M224.1,52.4v2.4l-0.5-0.5v-0.5c0.1-0.1,0.2-0.2,0.1-0.4c-0.1-0.1-0.2-0.2-0.4-0.1c-0.1,0.1-0.2,0.2-0.1,0.4
				c0,0.1,0.1,0.1,0.1,0.1v0.6l0.7,0.7v0.2c-0.2,0-0.4,0.2-0.3,0.5c0,0.2,0.2,0.4,0.5,0.3c0.2,0,0.4-0.2,0.3-0.5
				c0-0.1-0.1-0.2-0.3-0.3v-0.9l0.7-0.7v-0.5h0.2v-0.5h-0.5v0.5h0.2v0.4l-0.5,0.5v-1.7h0.2l-0.3-0.5l-0.2,0.5H224.1z"/>
			<path class="st4" d="M233,58.9h6.8c0.1,0,0.1-0.1,0.1-0.1V52c0-0.1-0.1-0.2-0.1-0.2H233c-0.1,0-0.2,0.1-0.2,0.2v6.8
				C232.8,58.9,232.9,58.9,233,58.9"/>
			<path class="st4" d="M242.5,58.9h6.8c0.1,0,0.1-0.1,0.1-0.1V52c0-0.1-0.1-0.2-0.1-0.2h-6.8c-0.1,0-0.2,0.1-0.2,0.2v6.8
				C242.4,58.9,242.4,58.9,242.5,58.9"/>
			<path class="st4" d="M250.3,58.9h6.8c0.1,0,0.1-0.1,0.1-0.1V52c0-0.1-0.1-0.2-0.1-0.2h-6.8c-0.1,0-0.2,0.1-0.2,0.2v6.8
				C250.1,58.9,250.2,58.9,250.3,58.9"/>
			<g>
				<rect x="260" y="51.7" class="st27" width="9.1" height="5.9"/>
				<rect x="269.4" y="51.7" class="st27" width="9.1" height="5.9"/>
			</g>
			<circle class="st23" cx="234.9" cy="49.1" r="0.8"/>
			<circle class="st23" cx="237.9" cy="49.1" r="0.8"/>
			<circle class="st23" cx="244.7" cy="49.1" r="0.8"/>
			<circle class="st23" cx="247.7" cy="49.1" r="0.8"/>
			<circle class="st23" cx="251.8" cy="49.1" r="0.8"/>
			<circle class="st23" cx="254.8" cy="49.1" r="0.8"/>
			<g>
				<circle class="st23" cx="262.5" cy="49.1" r="0.8"/>
				<circle class="st23" cx="267.1" cy="49.1" r="0.8"/>
			</g>
			<g>
				<circle class="st23" cx="271.8" cy="49.1" r="0.8"/>
				<circle class="st23" cx="276.4" cy="49.1" r="0.8"/>
			</g>
			<g>
				<path class="st28" d="M223.7,66.3V69h-63.3v1h63.3v0.8h64.5v-3.2h-58.3V66H224C223.8,66,223.7,66.1,223.7,66.3z"/>
				<path class="st28" d="M227.4,67.6h-13.9c-0.1,0-0.3,0.1-0.4,0.2l-1.9,1.9c-0.1,0.1-0.3,0.2-0.5,0.2h-46.9
					c-0.1,0-0.3-0.1-0.4-0.2l-1.9-1.9c-0.1-0.1-0.3-0.2-0.5-0.2h-3.3v1h-2.5v2.2h72.2V67.6z"/>
				<path class="st7" d="M237.5,66h-10.1v4.8h21v-3.2h-2.2c-0.4,0-0.8-0.1-1.2-0.1l-6.2-1.4C238.3,66.1,237.9,66,237.5,66z"/>
				<path class="st11" d="M246.3,68.1H244c-0.7,0-1.3-0.1-2-0.2l-4.3-1c-0.6-0.1-1.1-0.2-1.7-0.2h-2.5v3.3h12.8V68.1"/>
			</g>
			<g>
				<rect x="194.5" y="52.5" class="st13" width="0.1" height="1.2"/>
				<path class="st29" d="M194.1,53c0,0.3-0.2,0.5-0.5,0.5c-0.3,0-0.5-0.2-0.5-0.5c0-0.3,0.2-0.5,0.5-0.5
					C193.9,52.6,194.1,52.8,194.1,53z"/>
				<rect x="192.7" y="52.5" class="st13" width="0.1" height="1.2"/>
				<path class="st29" d="M192.4,53c0,0.3-0.2,0.5-0.5,0.5c-0.3,0-0.5-0.2-0.5-0.5c0-0.3,0.2-0.5,0.5-0.5
					C192.2,52.6,192.4,52.8,192.4,53z"/>
				<rect x="191" y="52.5" class="st13" width="0.1" height="1.2"/>
			</g>
			<path class="st26" d="M160.8,52.2H159c-0.1-0.4-0.5-0.6-0.9-0.5c-0.1,0-0.1,0.1-0.2,0.1V52h0.4l0.2,0.5l-0.2,0.4h-0.4V53
				c0.3,0.2,0.7,0.2,1-0.1c0.1,0,0.1-0.1,0.1-0.2h1.7c0.1,0.4,0.5,0.5,0.8,0.4c0.1,0,0.1-0.1,0.2-0.1v-0.1h-0.4l-0.2-0.4l0.2-0.4
				h0.4v-0.1c-0.3-0.2-0.7-0.2-0.9,0.1C160.8,52,160.8,52.1,160.8,52.2z"/>
			<polygon class="st8" points="159.8,63 160.2,63 160.2,64.4 160.4,64.4 160.4,63.9 160.8,63.9 160.8,64.2 161.6,64.2 161.6,63.2 
				160.8,63.2 160.8,63.6 160.4,63.6 160.4,62.1 160.8,62.1 160.8,62.5 161.6,62.5 161.6,61.5 160.8,61.5 160.8,61.9 160.4,61.9 
				160.4,61.4 160.2,61.4 160.2,62.7 159.8,62.7 159.8,62.3 159,62.3 159,63.4 159.8,63.4 			"/>
		</g>
	</g>
	<g>
		<g>
			<g>
				<polyline class="st30" points="25.6,64.4 25.6,126.9 71.2,126.9 				"/>
			</g>
		</g>
		<g>
			<g>
				<polyline class="st30" points="35.1,64.4 35.1,121.3 71.2,121.3 				"/>
			</g>
		</g>
		<g>
			<g>
				<polyline class="st30" points="44.6,64.4 44.6,115.4 71.2,115.4 				"/>
			</g>
		</g>
		<g>
			<g>
				<polyline class="st30" points="54,64.4 54,109.8 71.2,109.8 				"/>
			</g>
			<circle class="st31" cx="71.2" cy="109.7" r="1.9"/>
			<circle class="st31" cx="71.2" cy="115.4" r="1.9"/>
			<circle class="st31" cx="71.2" cy="121.2" r="1.9"/>
			<circle class="st31" cx="71.2" cy="126.8" r="1.9"/>
		</g>
	</g>
	<g>
		<g>
			<g>
				<polyline class="st30" points="195.9,64.4 195.9,126.9 151,126.9 				"/>
			</g>
		</g>
		<g>
			<g>
				<polyline class="st30" points="186.4,64.4 186.4,121.3 151,121.3 				"/>
			</g>
		</g>
		<g>
			<g>
				<polyline class="st30" points="176.9,64.4 176.9,115.4 151,115.4 				"/>
			</g>
		</g>
		<g>
			<g>
				<polyline class="st30" points="167.5,64.4 167.5,109.8 151,109.8 				"/>
			</g>
			<circle class="st31" cx="150.9" cy="109.7" r="1.9"/>
			<circle class="st31" cx="150.9" cy="115.4" r="1.9"/>
			<circle class="st31" cx="150.9" cy="121.2" r="1.9"/>
			<circle class="st31" cx="150.9" cy="126.8" r="1.9"/>
		</g>
	</g>
	<g>
		<g>
			<path class="st32" d="M122.7,54.8v-31c0,0,141.7-0.6,141.7,0v31"/>
		</g>
	</g>
	<g>
		<g>
			<line class="st33" x1="27.3" y1="53.4" x2="27.3" y2="25.1"/>
		</g>
		<circle class="st24" cx="27.3" cy="23.3" r="1.9"/>
		<circle class="st24" cx="35.6" cy="23.3" r="1.9"/>
	</g>
	<g>
		<g>
			<polyline class="st33" points="169.2,53.5 169.2,36.1 35.5,36.1 35.5,23.8 			"/>
		</g>
	</g>
	<g>
		<path class="st32" d="M132.1,54.8V29.1c0,0,140.5-1.2,141.7,0v25.8"/>
	</g>
	<g>
		<g>
			<g>
				<path class="st34" d="M195,31.5h16.3V21c0-0.1-0.1-0.2-0.2-0.2h-15.9c-0.1,0-0.2,0.1-0.2,0.2V31.5z"/>
			</g>
			<text transform="matrix(1 0 0 1 201.2563 29.3343)" class="st13 st35 st36">1</text>
		</g>
	</g>
	<g>
		<g>
			<g>
				<path class="st24" d="M23.6,16.9H40V6.4c0-0.1-0.1-0.2-0.2-0.2H23.9c-0.1,0-0.2,0.1-0.2,0.2V16.9z"/>
			</g>
			<text transform="matrix(1 0 0 1 28.9438 14.7376)" class="st13 st35 st36">2</text>
		</g>
		<g>
			<g>
				<g>
					<g>
						<text transform="matrix(1 0 0 1 43.9897 10.8617)"><tspan x="0" y="0" class="st24 st37 st38">To management </tspan><tspan x="0" y="6.4" class="st24 st37 st38">network switches</tspan></text>
					</g>
				</g>
			</g>
		</g>
	</g>
	<g>
		<g>
			<g>
				<g>
					<path class="st31" d="M76.7,119.5H93V109c0-0.1-0.1-0.2-0.2-0.2H76.9c-0.1,0-0.2,0.1-0.2,0.2V119.5z"/>
				</g>
				<text transform="matrix(1 0 0 1 81.9706 117.2884)" class="st13 st35 st36">3</text>
			</g>
		</g>
		<g>
			<g>
				<g>
					<text transform="matrix(1 0 0 1 97.4574 113.9036)"><tspan x="0" y="0" class="st31 st37 st38">To data network, </tspan><tspan x="0" y="5.9" class="st31 st37 st38">mezzanine card  </tspan><tspan x="0" y="11.8" class="st31 st37 st38">dependent</tspan></text>
				</g>
			</g>
		</g>
	</g>
</g>
<g>
	<g>
		<g>
			<text transform="matrix(1 0 0 1 119.2867 56.0284)" class="st13 st37 st39">e0a</text>
		</g>
	</g>
</g>
<g>
	<g>
		<g>
			<text transform="matrix(1 0 0 1 128.6003 56.0284)" class="st13 st37 st39">e0b</text>
		</g>
	</g>
</g>
<g>
	<g>
		<g>
			<text transform="matrix(1 0 0 1 261.2274 56.0284)" class="st13 st37 st39">e0a</text>
		</g>
	</g>
</g>
<g>
	<g>
		<g>
			<text transform="matrix(1 0 0 1 164.0636 64.0963)" class="st13 st37 st39">e1a</text>
		</g>
	</g>
</g>
<g>
	<g>
		<g>
			<text transform="matrix(1 0 0 1 173.3962 64.0963)" class="st13 st37 st39">e1b</text>
		</g>
	</g>
</g>
<g>
	<g>
		<g>
			<text transform="matrix(1 0 0 1 182.9664 64.0963)" class="st13 st37 st39">e1c</text>
		</g>
	</g>
</g>
<g>
	<g>
		<g>
			<text transform="matrix(1 0 0 1 192.2541 64.0963)" class="st13 st37 st39">e1d</text>
		</g>
	</g>
</g>
<g>
	<g>
		<g>
			<text transform="matrix(1 0 0 1 22.087 63.9865)" class="st13 st37 st39">e1a</text>
		</g>
	</g>
</g>
<g>
	<g>
		<g>
			<text transform="matrix(1 0 0 1 31.5295 64.0963)" class="st13 st37 st39">e1b</text>
		</g>
	</g>
</g>
<g>
	<g>
		<g>
			<text transform="matrix(1 0 0 1 41.0996 64.0963)" class="st13 st37 st39">e1c</text>
		</g>
	</g>
</g>
<g>
	<g>
		<g>
			<text transform="matrix(1 0 0 1 50.3873 64.0963)" class="st13 st37 st39">e1d</text>
		</g>
	</g>
</g>
<g>
	<g>
		<g>
			<text transform="matrix(1 0 0 1 270.541 56.0284)" class="st13 st37 st39">e0b</text>
		</g>
	</g>
</g>
</svg>
