<?xml version="1.0" encoding="utf-8"?>
<!-- Generator: Adobe Illustrator 26.0.3, SVG Export Plug-In . SVG Version: 6.00 Build 0)  -->
<svg version="1.1" id="Layer_1" xmlns="http://www.w3.org/2000/svg" xmlns:xlink="http://www.w3.org/1999/xlink" x="0px" y="0px"
	 viewBox="0 0 87.213 229.547" style="enable-background:new 0 0 87.213 229.547;" xml:space="preserve">
<style type="text/css">
	.st0{fill:#2768B2;}
	.st1{fill:#333334;stroke:#000000;stroke-width:0.8891;stroke-miterlimit:10;}
	.st2{fill:#FFAA00;stroke:#000000;stroke-width:0.2558;stroke-miterlimit:10;}
	.st3{fill:#26E600;stroke:#000000;stroke-width:0.2558;stroke-miterlimit:10;}
	.st4{fill:none;stroke:#000000;stroke-width:0.6643;stroke-linecap:round;stroke-miterlimit:10;}
	.st5{fill:#221F1F;stroke:#FFFFFF;stroke-width:1.5;stroke-miterlimit:10;}
	.st6{fill:#FFFFFF;}
	.st7{fill:none;stroke:#FFFFFF;stroke-width:2;stroke-linecap:round;stroke-linejoin:round;stroke-miterlimit:10;}
	.st8{fill:none;stroke:#221F1F;stroke-width:0.5;stroke-linecap:round;stroke-linejoin:round;stroke-miterlimit:10;}
</style>
<g id="grill">
	<g>
		<g>
			<rect x="8.217" y="60.055" class="st0" width="32.374" height="159.082"/>
			<g>
				<path d="M38.793,61.791v155.767H10.305V61.791H38.793 M42.523,58.374H6.575v162.602h35.948L42.523,58.374L42.523,58.374z"/>
			</g>
			<path class="st1" d="M34.097,208.373H15.001c-1.471,0-2.675-1.103-2.675-2.451v-14.169c0-1.348,1.204-2.451,2.675-2.451h19.096
				c1.471,0,2.675,1.103,2.675,2.451v14.169C36.772,207.27,35.568,208.373,34.097,208.373z"/>
			<path class="st1" d="M36.653,98.462H12.445c-1.397,0-2.534-1.049-2.534-2.322V84.09c0-1.28,1.144-2.322,2.534-2.322H36.66
				c1.397,0,2.534,1.049,2.534,2.322v12.051C39.194,97.414,38.05,98.462,36.653,98.462z"/>
			<g>
				<path class="st2" d="M21.933,69.165h-4.116c-0.267,0-0.483-0.197-0.483-0.443v-2.574c0-0.245,0.215-0.443,0.483-0.443h4.116
					c0.267,0,0.483,0.197,0.483,0.443v2.574C22.416,68.968,22.201,69.165,21.933,69.165z"/>
				<path class="st3" d="M31.273,69.165h-4.116c-0.267,0-0.483-0.197-0.483-0.443v-2.574c0-0.245,0.215-0.443,0.483-0.443h4.116
					c0.267,0,0.483,0.197,0.483,0.443v2.574C31.756,68.968,31.541,69.165,31.273,69.165z"/>
			</g>
			<g>
				<g>
					<polygon points="17.193,121.455 11.524,107.593 17.193,103.201 22.87,107.518 					"/>
					<polygon points="31.905,121.455 26.228,107.593 31.905,103.201 37.574,107.518 					"/>
				</g>
				<g>
					<polygon points="17.193,153.864 11.524,139.995 17.193,135.61 22.87,139.927 					"/>
					<polygon points="31.905,153.864 26.228,139.995 31.905,135.61 37.574,139.927 					"/>
				</g>
				<g>
					<polygon points="17.193,186.055 11.524,172.186 17.193,167.801 22.87,172.118 					"/>
					<polygon points="31.905,186.055 26.228,172.186 31.905,167.801 37.574,172.118 					"/>
				</g>
				<polygon points="24.549,149.901 30.225,163.77 24.549,168.155 18.872,163.838 				"/>
				<polygon points="24.549,117.356 30.225,131.225 24.549,135.61 18.872,131.293 				"/>
			</g>
			<g>
				<line class="st4" x1="13.039" y1="85.186" x2="36.058" y2="85.186"/>
				<line class="st4" x1="13.039" y1="87.079" x2="36.058" y2="87.079"/>
				<line class="st4" x1="13.039" y1="88.978" x2="36.058" y2="88.978"/>
			</g>
		</g>
	</g>
</g>
<g>
	<g>
		<path class="st5" d="M33.409,19.204c0,7.593-6.246,13.745-13.95,13.745c-7.707,0-13.953-6.152-13.953-13.745
			c0-7.596,6.246-13.755,13.953-13.755C27.164,5.449,33.409,11.608,33.409,19.204"/>
	</g>
	<g>
		<path class="st6" d="M21.057,26.245h-1.846V14.484c-0.444,0.424-1.027,0.848-1.749,1.271s-1.369,0.742-1.943,0.954v-1.784
			c1.032-0.485,1.935-1.073,2.707-1.764s1.319-1.36,1.641-2.01h1.189V26.245z"/>
	</g>
</g>
<g>
	<g>
		<path class="st5" d="M83.023,47.668c0,7.593-6.246,13.745-13.95,13.745c-7.707,0-13.953-6.152-13.953-13.745
			c0-7.596,6.246-13.755,13.953-13.755C76.777,33.913,83.023,40.072,83.023,47.668"/>
	</g>
	<g>
		<path class="st6" d="M73.418,52.935v1.774h-9.936c-0.014-0.444,0.058-0.872,0.215-1.282c0.253-0.677,0.658-1.343,1.216-2
			c0.557-0.656,1.361-1.415,2.414-2.276c1.634-1.34,2.738-2.401,3.312-3.184s0.861-1.523,0.861-2.22
			c0-0.731-0.262-1.348-0.784-1.851c-0.523-0.502-1.205-0.753-2.046-0.753c-0.889,0-1.6,0.267-2.133,0.8s-0.804,1.271-0.811,2.215
			l-1.896-0.195c0.13-1.415,0.618-2.493,1.466-3.235c0.848-0.741,1.986-1.112,3.415-1.112c1.442,0,2.584,0.4,3.425,1.2
			s1.261,1.791,1.261,2.974c0,0.602-0.123,1.193-0.369,1.774s-0.654,1.193-1.225,1.835c-0.571,0.643-1.52,1.524-2.846,2.646
			c-1.107,0.93-1.818,1.561-2.133,1.892s-0.574,0.665-0.779,1H73.418z"/>
	</g>
</g>
<g>
	<g>
		<line class="st7" x1="19.842" y1="62.478" x2="19.755" y2="35.145"/>
	</g>
	<g>
		<line class="st8" x1="19.842" y1="62.478" x2="19.755" y2="35.145"/>
	</g>
</g>
<g>
	<g>
		<line class="st7" x1="29.354" y1="62.478" x2="29.267" y2="48.043"/>
	</g>
	<g>
		<polyline class="st8" points="29.354,62.478 29.267,48.043 52.943,48.043 		"/>
	</g>
</g>
</svg>
