<?xml version="1.0" encoding="utf-8"?>
<!-- Generator: Adobe Illustrator 26.0.3, SVG Export Plug-In . SVG Version: 6.00 Build 0)  -->
<svg version="1.1" id="Layer_1" xmlns="http://www.w3.org/2000/svg" xmlns:xlink="http://www.w3.org/1999/xlink" x="0px" y="0px"
	 viewBox="0 0 361.3 293.7" style="enable-background:new 0 0 361.3 293.7;" xml:space="preserve">
<style type="text/css">
	.st0{fill:none;stroke:#1670B9;stroke-width:2.3914;stroke-miterlimit:10;}
	.st1{fill:none;stroke:#BCBEC0;stroke-width:2.3914;stroke-miterlimit:10;}
	.st2{fill:none;stroke:#FFFFFF;stroke-width:3.5871;stroke-miterlimit:10;}
	.st3{fill:none;stroke:#F5A800;stroke-width:2.3914;stroke-miterlimit:10;}
	.st4{fill:none;stroke:#FFFFFF;stroke-width:5.9784;stroke-miterlimit:10;}
	.st5{fill:none;stroke:#1670B9;stroke-width:2.3914;stroke-miterlimit:10;stroke-dasharray:2.3065;}
	.st6{fill:none;stroke:#F5A800;stroke-width:2.3914;stroke-miterlimit:10;stroke-dasharray:2.3065;}
	.st7{fill:#FFFFFF;stroke:#000000;stroke-width:1.2745;stroke-miterlimit:10;}
	.st8{fill:#FFFFFF;stroke:#000000;stroke-width:1.4842;stroke-miterlimit:10;}
	.st9{fill:#FFFFFF;stroke:#000000;stroke-width:1.3045;stroke-miterlimit:10;}
</style>
<line class="st0" x1="146.2" y1="59.4" x2="254" y2="59.4"/>
<path class="st1" d="M144.8,59.5"/>
<polyline class="st2" points="144.8,194.4 221.4,194.4 221.4,111.7 254,111.7 "/>
<polyline class="st3" points="144.8,194.4 221.4,194.4 221.4,111.7 254,111.7 "/>
<polyline class="st4" points="144.8,77.1 210.1,77.1 210.1,134.1 254,134.1 "/>
<polyline class="st5" points="144.8,76.8 210.1,76.8 210.1,134.1 254,134.1 "/>
<polyline class="st4" points="145.2,213 237.9,213 237.9,82.9 254,82.9 "/>
<polyline class="st6" points="145.2,213 237.9,213 237.9,82.9 254,82.9 "/>
<rect x="0.6" y="45" class="st7" width="144.1" height="104.2"/>
<g>
	<rect x="111.4" y="52.6" class="st8" width="33.4" height="15.8"/>
	<rect x="97.4" y="52.6" class="st8" width="14.5" height="31.5"/>
</g>
<g>
	<rect x="112.1" y="68.4" class="st8" width="32.7" height="15.8"/>
</g>
<g>
	<path d="M37.6,97.1l1,0.3c-0.2,0.8-0.6,1.5-1.2,1.9c-0.6,0.4-1.2,0.7-2,0.7c-0.8,0-1.5-0.2-2-0.5c-0.5-0.3-0.9-0.8-1.2-1.5
		s-0.4-1.3-0.4-2.1c0-0.8,0.2-1.5,0.5-2.1s0.7-1.1,1.3-1.4c0.6-0.3,1.2-0.5,1.9-0.5c0.8,0,1.4,0.2,1.9,0.6c0.5,0.4,0.9,0.9,1.1,1.7
		l-1,0.2c-0.2-0.6-0.4-1-0.8-1.2s-0.8-0.4-1.3-0.4c-0.6,0-1.1,0.1-1.5,0.4s-0.7,0.7-0.8,1.1c-0.2,0.5-0.2,1-0.2,1.5
		c0,0.7,0.1,1.2,0.3,1.7c0.2,0.5,0.5,0.9,0.9,1.1s0.8,0.4,1.3,0.4c0.6,0,1.1-0.2,1.5-0.5C37.2,98.2,37.5,97.8,37.6,97.1z"/>
	<path d="M39.4,97c0-1,0.3-1.8,0.9-2.3c0.5-0.4,1.1-0.6,1.8-0.6c0.8,0,1.4,0.3,1.9,0.8c0.5,0.5,0.7,1.2,0.7,2.1
		c0,0.7-0.1,1.3-0.3,1.7c-0.2,0.4-0.5,0.7-0.9,1s-0.9,0.3-1.3,0.3c-0.8,0-1.4-0.3-1.9-0.8C39.7,98.7,39.4,98,39.4,97z M40.4,97
		c0,0.7,0.2,1.2,0.5,1.6c0.3,0.4,0.7,0.5,1.2,0.5c0.5,0,0.9-0.2,1.2-0.5c0.3-0.4,0.5-0.9,0.5-1.6c0-0.7-0.2-1.2-0.5-1.6
		s-0.7-0.5-1.2-0.5c-0.5,0-0.9,0.2-1.2,0.5C40.5,95.8,40.4,96.3,40.4,97z"/>
	<path d="M45.8,99.8v-5.6h0.9V95c0.4-0.6,1-0.9,1.8-0.9c0.3,0,0.6,0.1,0.9,0.2c0.3,0.1,0.5,0.3,0.6,0.5c0.1,0.2,0.2,0.4,0.3,0.7
		c0,0.2,0.1,0.5,0.1,0.9v3.4h-0.9v-3.4c0-0.4,0-0.7-0.1-0.9c-0.1-0.2-0.2-0.3-0.4-0.5s-0.4-0.2-0.7-0.2c-0.4,0-0.8,0.1-1,0.4
		c-0.3,0.3-0.4,0.7-0.4,1.5v3H45.8z"/>
	<path d="M53.8,99l0.1,0.8c-0.3,0.1-0.5,0.1-0.7,0.1c-0.3,0-0.6-0.1-0.8-0.2c-0.2-0.1-0.3-0.3-0.4-0.4c-0.1-0.2-0.1-0.5-0.1-1.1V95
		h-0.7v-0.7h0.7v-1.4l0.9-0.6v1.9h1V95h-1v3.3c0,0.3,0,0.4,0,0.5c0,0.1,0.1,0.1,0.2,0.2s0.2,0.1,0.3,0.1C53.5,99,53.6,99,53.8,99z"
		/>
	<path d="M54.7,99.8v-5.6h0.9v0.8c0.2-0.4,0.4-0.7,0.6-0.8c0.2-0.1,0.4-0.2,0.6-0.2c0.3,0,0.6,0.1,1,0.3l-0.3,0.9
		c-0.2-0.1-0.5-0.2-0.7-0.2c-0.2,0-0.4,0.1-0.6,0.2s-0.3,0.3-0.4,0.5c-0.1,0.3-0.2,0.7-0.2,1.1v2.9H54.7z"/>
	<path d="M58,97c0-1,0.3-1.8,0.9-2.3c0.5-0.4,1.1-0.6,1.8-0.6c0.8,0,1.4,0.3,1.9,0.8c0.5,0.5,0.7,1.2,0.7,2.1c0,0.7-0.1,1.3-0.3,1.7
		c-0.2,0.4-0.5,0.7-0.9,1s-0.9,0.3-1.3,0.3c-0.8,0-1.4-0.3-1.9-0.8C58.2,98.7,58,98,58,97z M58.9,97c0,0.7,0.2,1.2,0.5,1.6
		c0.3,0.4,0.7,0.5,1.2,0.5c0.5,0,0.9-0.2,1.2-0.5c0.3-0.4,0.5-0.9,0.5-1.6c0-0.7-0.2-1.2-0.5-1.6s-0.7-0.5-1.2-0.5
		c-0.5,0-0.9,0.2-1.2,0.5C59.1,95.8,58.9,96.3,58.9,97z"/>
	<path d="M64.3,99.8v-7.7h0.9v7.7H64.3z"/>
	<path d="M66.7,99.8v-7.7h0.9v7.7H66.7z"/>
	<path d="M72.9,98l1,0.1c-0.2,0.6-0.4,1-0.9,1.3c-0.4,0.3-0.9,0.5-1.6,0.5c-0.8,0-1.5-0.3-1.9-0.8c-0.5-0.5-0.7-1.2-0.7-2.1
		c0-0.9,0.2-1.7,0.7-2.2s1.1-0.8,1.9-0.8c0.7,0,1.4,0.3,1.8,0.8c0.5,0.5,0.7,1.2,0.7,2.1c0,0.1,0,0.1,0,0.3h-4.2
		c0,0.6,0.2,1.1,0.5,1.4c0.3,0.3,0.7,0.5,1.2,0.5c0.3,0,0.6-0.1,0.9-0.3C72.6,98.7,72.8,98.4,72.9,98z M69.8,96.5h3.1
		c0-0.5-0.2-0.8-0.4-1.1c-0.3-0.4-0.7-0.5-1.2-0.5c-0.4,0-0.8,0.1-1.1,0.4C70,95.6,69.8,96,69.8,96.5z"/>
	<path d="M75.1,99.8v-5.6h0.9v0.8c0.2-0.4,0.4-0.7,0.6-0.8c0.2-0.1,0.4-0.2,0.6-0.2c0.3,0,0.6,0.1,1,0.3l-0.3,0.9
		c-0.2-0.1-0.5-0.2-0.7-0.2c-0.2,0-0.4,0.1-0.6,0.2s-0.3,0.3-0.4,0.5c-0.1,0.3-0.2,0.7-0.2,1.1v2.9H75.1z"/>
	<path d="M80.3,99.8l3-7.7h1.1l3.2,7.7h-1.2l-0.9-2.3h-3.2l-0.8,2.3H80.3z M82.5,96.6h2.6l-0.8-2.1c-0.2-0.6-0.4-1.2-0.5-1.6
		c-0.1,0.5-0.2,1-0.4,1.5L82.5,96.6z"/>
</g>
<g>
	<rect x="0.6" y="181.5" class="st7" width="144.1" height="104.2"/>
	<g>
		<g>
			<g>
				<path d="M105.7,77.5l-0.1-0.6c0.3,0,0.5-0.1,0.7-0.2s0.3-0.3,0.4-0.5s0.2-0.5,0.2-0.8c0-0.3,0-0.5-0.1-0.7s-0.2-0.3-0.4-0.4
					c-0.1-0.1-0.3-0.1-0.5-0.1c-0.2,0-0.3,0-0.5,0.1s-0.2,0.2-0.3,0.5c-0.1,0.1-0.2,0.4-0.3,0.9c-0.1,0.5-0.2,0.8-0.4,1
					c-0.1,0.2-0.3,0.4-0.5,0.6c-0.2,0.1-0.5,0.2-0.7,0.2c-0.3,0-0.6-0.1-0.8-0.2c-0.3-0.1-0.4-0.4-0.6-0.6s-0.2-0.6-0.2-0.9
					c0-0.4,0.1-0.7,0.2-1c0.1-0.3,0.3-0.5,0.6-0.7c0.3-0.2,0.6-0.2,0.9-0.3l0.1,0.7c-0.4,0-0.6,0.2-0.8,0.4s-0.3,0.5-0.3,0.9
					c0,0.4,0.1,0.7,0.3,0.9c0.2,0.2,0.4,0.3,0.6,0.3c0.2,0,0.4-0.1,0.5-0.2c0.1-0.1,0.3-0.5,0.4-1c0.1-0.6,0.3-0.9,0.4-1.1
					c0.2-0.3,0.3-0.5,0.6-0.7c0.2-0.1,0.5-0.2,0.8-0.2c0.3,0,0.6,0.1,0.9,0.2c0.3,0.2,0.5,0.4,0.6,0.7c0.1,0.3,0.2,0.6,0.2,1
					c0,0.5-0.1,0.9-0.2,1.2c-0.2,0.3-0.4,0.6-0.7,0.7S106.1,77.5,105.7,77.5z"/>
				<path d="M107.5,72.5h-5.7v-0.6h5.7V72.5z"/>
				<path d="M105.5,71.2c-0.8,0-1.3-0.2-1.7-0.6c-0.3-0.3-0.5-0.7-0.5-1.2c0-0.5,0.2-0.9,0.6-1.3s0.9-0.5,1.5-0.5
					c0.5,0,1,0.1,1.3,0.2s0.5,0.4,0.7,0.6s0.3,0.6,0.3,0.9c0,0.5-0.2,0.9-0.6,1.3S106.2,71.2,105.5,71.2z M105.5,70.5
					c0.5,0,0.9-0.1,1.2-0.3c0.3-0.2,0.4-0.5,0.4-0.8c0-0.3-0.1-0.6-0.4-0.8s-0.7-0.3-1.2-0.3c-0.5,0-0.9,0.1-1.2,0.3
					c-0.3,0.2-0.4,0.5-0.4,0.8c0,0.3,0.1,0.6,0.4,0.8C104.5,70.4,104.9,70.5,105.5,70.5z"/>
				<path d="M106.9,65.5l0.6-0.1c0,0.2,0.1,0.3,0.1,0.5c0,0.2,0,0.4-0.1,0.5s-0.2,0.2-0.3,0.3s-0.4,0.1-0.8,0.1h-2.4v0.5h-0.5v-0.5
					h-1l-0.4-0.6h1.4v-0.6h0.5v0.6h2.4c0.2,0,0.3,0,0.4,0c0.1,0,0.1-0.1,0.1-0.1s0.1-0.1,0.1-0.2C106.9,65.8,106.9,65.7,106.9,65.5z
					"/>
				<path d="M106,63.1l-0.1-0.7c0.4,0,0.6-0.2,0.8-0.3s0.3-0.4,0.3-0.6c0-0.3-0.1-0.6-0.4-0.8s-0.6-0.3-1-0.3
					c-0.4,0-0.7,0.1-0.9,0.3c-0.2,0.2-0.3,0.5-0.3,0.8c0,0.2,0.1,0.4,0.2,0.6s0.2,0.3,0.4,0.4l-0.1,0.6l-2.9-0.5v-2.6h0.7V62
					l1.5,0.3c-0.2-0.3-0.4-0.6-0.4-1c0-0.5,0.2-0.8,0.5-1.1s0.8-0.5,1.3-0.5c0.5,0,1,0.1,1.3,0.4c0.5,0.3,0.7,0.8,0.7,1.4
					c0,0.5-0.1,0.9-0.4,1.1C106.9,62.9,106.5,63.1,106,63.1z"/>
			</g>
		</g>
	</g>
</g>
<g>
	<path d="M37,237l1,0.3c-0.2,0.8-0.6,1.5-1.2,1.9s-1.2,0.7-2,0.7c-0.8,0-1.5-0.2-2-0.5c-0.5-0.3-0.9-0.8-1.2-1.5
		c-0.3-0.6-0.4-1.3-0.4-2.1c0-0.8,0.2-1.5,0.5-2.1c0.3-0.6,0.7-1.1,1.3-1.4c0.6-0.3,1.2-0.5,1.9-0.5c0.8,0,1.4,0.2,1.9,0.6
		s0.9,0.9,1.1,1.7l-1,0.2c-0.2-0.6-0.4-1-0.8-1.2c-0.3-0.3-0.8-0.4-1.3-0.4c-0.6,0-1.1,0.1-1.5,0.4c-0.4,0.3-0.7,0.7-0.8,1.1
		c-0.2,0.5-0.2,1-0.2,1.5c0,0.7,0.1,1.2,0.3,1.7c0.2,0.5,0.5,0.9,0.9,1.1c0.4,0.2,0.8,0.4,1.3,0.4c0.6,0,1.1-0.2,1.5-0.5
		C36.6,238.1,36.9,237.6,37,237z"/>
	<path d="M38.8,236.9c0-1,0.3-1.8,0.9-2.3c0.5-0.4,1.1-0.6,1.8-0.6c0.8,0,1.4,0.3,1.9,0.8s0.7,1.2,0.7,2.1c0,0.7-0.1,1.3-0.3,1.7
		c-0.2,0.4-0.5,0.7-0.9,1c-0.4,0.2-0.9,0.3-1.3,0.3c-0.8,0-1.4-0.2-1.9-0.8C39.1,238.5,38.8,237.8,38.8,236.9z M39.8,236.9
		c0,0.7,0.2,1.2,0.5,1.6c0.3,0.4,0.7,0.5,1.2,0.5c0.5,0,0.9-0.2,1.2-0.5c0.3-0.4,0.5-0.9,0.5-1.6c0-0.7-0.2-1.2-0.5-1.6
		c-0.3-0.4-0.7-0.5-1.2-0.5c-0.5,0-0.9,0.2-1.2,0.5C40,235.6,39.8,236.1,39.8,236.9z"/>
	<path d="M45.2,239.7v-5.6H46v0.8c0.4-0.6,1-0.9,1.8-0.9c0.3,0,0.6,0.1,0.9,0.2c0.3,0.1,0.5,0.3,0.6,0.5s0.2,0.4,0.3,0.7
		c0,0.2,0.1,0.5,0.1,0.9v3.4h-0.9v-3.4c0-0.4,0-0.7-0.1-0.9c-0.1-0.2-0.2-0.3-0.4-0.5s-0.4-0.2-0.7-0.2c-0.4,0-0.8,0.1-1,0.4
		s-0.4,0.7-0.4,1.5v3H45.2z"/>
	<path d="M53.2,238.8l0.1,0.8c-0.3,0.1-0.5,0.1-0.7,0.1c-0.3,0-0.6-0.1-0.8-0.2c-0.2-0.1-0.3-0.3-0.4-0.4c-0.1-0.2-0.1-0.5-0.1-1.1
		v-3.2h-0.7v-0.7h0.7v-1.4l0.9-0.6v1.9h1v0.7h-1v3.3c0,0.3,0,0.4,0,0.5s0.1,0.1,0.2,0.2c0.1,0,0.2,0.1,0.3,0.1
		C52.9,238.8,53,238.8,53.2,238.8z"/>
	<path d="M54.1,239.7v-5.6H55v0.8c0.2-0.4,0.4-0.7,0.6-0.8c0.2-0.1,0.4-0.2,0.6-0.2c0.3,0,0.6,0.1,1,0.3l-0.3,0.9
		c-0.2-0.1-0.5-0.2-0.7-0.2c-0.2,0-0.4,0.1-0.6,0.2c-0.2,0.1-0.3,0.3-0.4,0.5c-0.1,0.3-0.2,0.7-0.2,1.1v2.9H54.1z"/>
	<path d="M57.4,236.9c0-1,0.3-1.8,0.9-2.3c0.5-0.4,1.1-0.6,1.8-0.6c0.8,0,1.4,0.3,1.9,0.8s0.7,1.2,0.7,2.1c0,0.7-0.1,1.3-0.3,1.7
		c-0.2,0.4-0.5,0.7-0.9,1c-0.4,0.2-0.9,0.3-1.3,0.3c-0.8,0-1.4-0.2-1.9-0.8C57.6,238.5,57.4,237.8,57.4,236.9z M58.3,236.9
		c0,0.7,0.2,1.2,0.5,1.6c0.3,0.4,0.7,0.5,1.2,0.5c0.5,0,0.9-0.2,1.2-0.5c0.3-0.4,0.5-0.9,0.5-1.6c0-0.7-0.2-1.2-0.5-1.6
		c-0.3-0.4-0.7-0.5-1.2-0.5c-0.5,0-0.9,0.2-1.2,0.5C58.5,235.6,58.3,236.1,58.3,236.9z"/>
	<path d="M63.7,239.7V232h0.9v7.7H63.7z"/>
	<path d="M66.1,239.7V232H67v7.7H66.1z"/>
	<path d="M72.3,237.9l1,0.1c-0.2,0.6-0.4,1-0.9,1.3c-0.4,0.3-0.9,0.5-1.6,0.5c-0.8,0-1.5-0.3-1.9-0.8s-0.7-1.2-0.7-2.1
		c0-0.9,0.2-1.7,0.7-2.2s1.1-0.8,1.9-0.8c0.7,0,1.4,0.3,1.8,0.8c0.5,0.5,0.7,1.2,0.7,2.1c0,0.1,0,0.1,0,0.3h-4.2
		c0,0.6,0.2,1.1,0.5,1.4c0.3,0.3,0.7,0.5,1.2,0.5c0.3,0,0.6-0.1,0.9-0.3C72,238.5,72.2,238.3,72.3,237.9z M69.2,236.3h3.1
		c0-0.5-0.2-0.8-0.4-1.1c-0.3-0.4-0.7-0.5-1.2-0.5c-0.4,0-0.8,0.1-1.1,0.4C69.4,235.5,69.2,235.8,69.2,236.3z"/>
	<path d="M74.5,239.7v-5.6h0.9v0.8c0.2-0.4,0.4-0.7,0.6-0.8c0.2-0.1,0.4-0.2,0.6-0.2c0.3,0,0.6,0.1,1,0.3l-0.3,0.9
		c-0.2-0.1-0.5-0.2-0.7-0.2c-0.2,0-0.4,0.1-0.6,0.2c-0.2,0.1-0.3,0.3-0.4,0.5c-0.1,0.3-0.2,0.7-0.2,1.1v2.9H74.5z"/>
	<path d="M81.1,239.7V232H84c0.6,0,1.1,0.1,1.4,0.2c0.4,0.2,0.6,0.4,0.8,0.7c0.2,0.3,0.3,0.7,0.3,1c0,0.3-0.1,0.6-0.3,0.9
		s-0.4,0.5-0.8,0.7c0.5,0.1,0.8,0.4,1.1,0.7s0.4,0.7,0.4,1.2c0,0.4-0.1,0.7-0.2,1c-0.2,0.3-0.3,0.5-0.6,0.7s-0.5,0.3-0.8,0.4
		c-0.3,0.1-0.8,0.1-1.2,0.1H81.1z M82.1,235.2h1.7c0.5,0,0.8,0,1-0.1c0.3-0.1,0.5-0.2,0.6-0.4s0.2-0.4,0.2-0.7
		c0-0.3-0.1-0.5-0.2-0.7s-0.3-0.3-0.5-0.4c-0.2-0.1-0.6-0.1-1.2-0.1h-1.5V235.2z M82.1,238.7h1.9c0.3,0,0.6,0,0.7,0
		c0.2,0,0.4-0.1,0.6-0.2c0.2-0.1,0.3-0.2,0.4-0.4s0.2-0.4,0.2-0.6c0-0.3-0.1-0.5-0.2-0.7s-0.4-0.4-0.6-0.4c-0.3-0.1-0.6-0.1-1.1-0.1
		h-1.8V238.7z"/>
</g>
<g>
	<rect x="254" y="45" class="st7" width="106.6" height="104.2"/>
	<g>
		<g>
			<g>
				<rect x="254" y="54.3" class="st9" width="33.4" height="12.2"/>
				<g>
					<path d="M266.5,62.3l1,0.1c-0.2,0.6-0.4,1-0.9,1.3c-0.4,0.3-0.9,0.5-1.6,0.5c-0.8,0-1.5-0.3-1.9-0.8c-0.5-0.5-0.7-1.2-0.7-2.1
						c0-0.9,0.2-1.7,0.7-2.2s1.1-0.8,1.9-0.8c0.7,0,1.4,0.3,1.8,0.8s0.7,1.2,0.7,2.1c0,0.1,0,0.1,0,0.3h-4.2c0,0.6,0.2,1.1,0.5,1.4
						s0.7,0.5,1.2,0.5c0.3,0,0.6-0.1,0.9-0.3S266.4,62.7,266.5,62.3z M263.4,60.7h3.1c0-0.5-0.2-0.8-0.4-1.1
						c-0.3-0.4-0.7-0.5-1.2-0.5c-0.4,0-0.8,0.1-1.1,0.4C263.6,59.9,263.5,60.3,263.4,60.7z"/>
					<path d="M268.4,60.3c0-0.9,0.1-1.6,0.3-2.2s0.5-1,0.8-1.3c0.4-0.3,0.8-0.5,1.4-0.5c0.4,0,0.8,0.1,1.1,0.2s0.6,0.4,0.8,0.7
						s0.4,0.7,0.5,1.1c0.1,0.5,0.2,1.1,0.2,1.8c0,0.9-0.1,1.6-0.3,2.2s-0.5,1-0.8,1.3c-0.4,0.3-0.8,0.5-1.4,0.5
						c-0.7,0-1.3-0.3-1.7-0.8C268.7,62.8,268.4,61.7,268.4,60.3z M269.4,60.3c0,1.3,0.1,2.1,0.4,2.5c0.3,0.4,0.7,0.6,1.1,0.6
						s0.8-0.2,1.1-0.6s0.4-1.3,0.4-2.5c0-1.3-0.1-2.1-0.4-2.5c-0.3-0.4-0.7-0.6-1.1-0.6c-0.4,0-0.8,0.2-1,0.6
						C269.6,58.1,269.4,59,269.4,60.3z"/>
					<path d="M278.3,63.4c-0.4,0.3-0.7,0.5-1,0.6c-0.3,0.1-0.7,0.2-1,0.2c-0.6,0-1.1-0.1-1.4-0.4c-0.3-0.3-0.5-0.7-0.5-1.1
						c0-0.3,0.1-0.5,0.2-0.7c0.1-0.2,0.3-0.4,0.5-0.5c0.2-0.1,0.4-0.2,0.7-0.3c0.2,0,0.5-0.1,0.8-0.1c0.8-0.1,1.3-0.2,1.7-0.3
						c0-0.1,0-0.2,0-0.2c0-0.4-0.1-0.7-0.3-0.8c-0.2-0.2-0.6-0.3-1.1-0.3c-0.4,0-0.8,0.1-1,0.2c-0.2,0.2-0.4,0.4-0.5,0.8l-0.9-0.1
						c0.1-0.4,0.2-0.7,0.4-1c0.2-0.2,0.5-0.4,0.8-0.6c0.4-0.1,0.8-0.2,1.3-0.2c0.5,0,0.9,0.1,1.2,0.2c0.3,0.1,0.5,0.3,0.7,0.4
						c0.1,0.2,0.2,0.4,0.3,0.6c0,0.2,0,0.5,0,0.9v1.3c0,0.9,0,1.4,0.1,1.7c0,0.2,0.1,0.5,0.2,0.7h-1
						C278.4,63.9,278.4,63.6,278.3,63.4z M278.3,61.3c-0.3,0.1-0.9,0.3-1.5,0.4c-0.4,0.1-0.7,0.1-0.8,0.2c-0.2,0.1-0.3,0.2-0.4,0.3
						c-0.1,0.1-0.1,0.3-0.1,0.4c0,0.3,0.1,0.5,0.3,0.6c0.2,0.2,0.5,0.3,0.8,0.3c0.4,0,0.7-0.1,1-0.2c0.3-0.2,0.5-0.4,0.6-0.7
						c0.1-0.2,0.2-0.5,0.2-0.9V61.3z"/>
				</g>
			</g>
		</g>
		<g>
			<g>
				<rect x="254" y="76.3" class="st9" width="33.4" height="12.2"/>
				<g>
					<path d="M266.5,84.3l1,0.1c-0.2,0.6-0.4,1-0.9,1.3c-0.4,0.3-0.9,0.5-1.6,0.5c-0.8,0-1.5-0.3-1.9-0.8c-0.5-0.5-0.7-1.2-0.7-2.1
						c0-0.9,0.2-1.7,0.7-2.2s1.1-0.8,1.9-0.8c0.7,0,1.4,0.3,1.8,0.8s0.7,1.2,0.7,2.1c0,0.1,0,0.1,0,0.3h-4.2c0,0.6,0.2,1.1,0.5,1.4
						s0.7,0.5,1.2,0.5c0.3,0,0.6-0.1,0.9-0.3S266.4,84.7,266.5,84.3z M263.4,82.8h3.1c0-0.5-0.2-0.8-0.4-1.1
						c-0.3-0.4-0.7-0.5-1.2-0.5c-0.4,0-0.8,0.1-1.1,0.4C263.6,81.9,263.5,82.3,263.4,82.8z"/>
					<path d="M268.4,82.3c0-0.9,0.1-1.6,0.3-2.2s0.5-1,0.8-1.3c0.4-0.3,0.8-0.5,1.4-0.5c0.4,0,0.8,0.1,1.1,0.2s0.6,0.4,0.8,0.7
						s0.4,0.7,0.5,1.1c0.1,0.5,0.2,1.1,0.2,1.8c0,0.9-0.1,1.6-0.3,2.2s-0.5,1-0.8,1.3c-0.4,0.3-0.8,0.5-1.4,0.5
						c-0.7,0-1.3-0.3-1.7-0.8C268.7,84.8,268.4,83.8,268.4,82.3z M269.4,82.3c0,1.3,0.1,2.1,0.4,2.5c0.3,0.4,0.7,0.6,1.1,0.6
						s0.8-0.2,1.1-0.6s0.4-1.3,0.4-2.5c0-1.3-0.1-2.1-0.4-2.5c-0.3-0.4-0.7-0.6-1.1-0.6c-0.4,0-0.8,0.2-1,0.6
						C269.6,80.2,269.4,81.1,269.4,82.3z"/>
					<path d="M275.6,86.1h-0.9v-7.7h0.9v2.7c0.4-0.5,0.9-0.8,1.5-0.8c0.3,0,0.7,0.1,1,0.2c0.3,0.1,0.6,0.3,0.8,0.6s0.4,0.6,0.5,0.9
						c0.1,0.4,0.2,0.7,0.2,1.1c0,1-0.2,1.7-0.7,2.2s-1,0.8-1.7,0.8c-0.7,0-1.2-0.3-1.5-0.8V86.1z M275.6,83.3c0,0.7,0.1,1.2,0.3,1.5
						c0.3,0.5,0.7,0.7,1.2,0.7c0.4,0,0.8-0.2,1.1-0.5c0.3-0.4,0.5-0.9,0.5-1.6c0-0.7-0.1-1.3-0.4-1.6c-0.3-0.3-0.6-0.5-1-0.5
						c-0.4,0-0.8,0.2-1.1,0.5C275.7,82.1,275.6,82.6,275.6,83.3z"/>
				</g>
			</g>
		</g>
		<g>
			<g>
				<rect x="254" y="105.6" class="st9" width="33.4" height="12.2"/>
				<g>
					<path d="M266.5,113.6l1,0.1c-0.2,0.6-0.4,1-0.9,1.3c-0.4,0.3-0.9,0.5-1.6,0.5c-0.8,0-1.5-0.3-1.9-0.8c-0.5-0.5-0.7-1.2-0.7-2.1
						c0-0.9,0.2-1.7,0.7-2.2s1.1-0.8,1.9-0.8c0.7,0,1.4,0.3,1.8,0.8s0.7,1.2,0.7,2.1c0,0.1,0,0.1,0,0.3h-4.2c0,0.6,0.2,1.1,0.5,1.4
						s0.7,0.5,1.2,0.5c0.3,0,0.6-0.1,0.9-0.3S266.4,114,266.5,113.6z M263.4,112.1h3.1c0-0.5-0.2-0.8-0.4-1.1
						c-0.3-0.4-0.7-0.5-1.2-0.5c-0.4,0-0.8,0.1-1.1,0.4C263.6,111.2,263.5,111.6,263.4,112.1z"/>
					<path d="M268.4,111.6c0-0.9,0.1-1.6,0.3-2.2s0.5-1,0.8-1.3c0.4-0.3,0.8-0.5,1.4-0.5c0.4,0,0.8,0.1,1.1,0.2s0.6,0.4,0.8,0.7
						s0.4,0.7,0.5,1.1c0.1,0.5,0.2,1.1,0.2,1.8c0,0.9-0.1,1.6-0.3,2.2s-0.5,1-0.8,1.3c-0.4,0.3-0.8,0.5-1.4,0.5
						c-0.7,0-1.3-0.3-1.7-0.8C268.7,114.1,268.4,113,268.4,111.6z M269.4,111.6c0,1.3,0.1,2.1,0.4,2.5c0.3,0.4,0.7,0.6,1.1,0.6
						s0.8-0.2,1.1-0.6s0.4-1.3,0.4-2.5c0-1.3-0.1-2.1-0.4-2.5c-0.3-0.4-0.7-0.6-1.1-0.6c-0.4,0-0.8,0.2-1,0.6
						C269.6,109.5,269.4,110.3,269.4,111.6z"/>
					<path d="M278.3,114.7c-0.4,0.3-0.7,0.5-1,0.6c-0.3,0.1-0.7,0.2-1,0.2c-0.6,0-1.1-0.1-1.4-0.4c-0.3-0.3-0.5-0.7-0.5-1.1
						c0-0.3,0.1-0.5,0.2-0.7c0.1-0.2,0.3-0.4,0.5-0.5c0.2-0.1,0.4-0.2,0.7-0.3c0.2,0,0.5-0.1,0.8-0.1c0.8-0.1,1.3-0.2,1.7-0.3
						c0-0.1,0-0.2,0-0.2c0-0.4-0.1-0.7-0.3-0.8c-0.2-0.2-0.6-0.3-1.1-0.3c-0.4,0-0.8,0.1-1,0.2c-0.2,0.2-0.4,0.4-0.5,0.8l-0.9-0.1
						c0.1-0.4,0.2-0.7,0.4-1c0.2-0.2,0.5-0.4,0.8-0.6c0.4-0.1,0.8-0.2,1.3-0.2c0.5,0,0.9,0.1,1.2,0.2c0.3,0.1,0.5,0.3,0.7,0.4
						c0.1,0.2,0.2,0.4,0.3,0.6c0,0.2,0,0.5,0,0.9v1.3c0,0.9,0,1.4,0.1,1.7c0,0.2,0.1,0.5,0.2,0.7h-1
						C278.4,115.2,278.4,115,278.3,114.7z M278.3,112.6c-0.3,0.1-0.9,0.3-1.5,0.4c-0.4,0.1-0.7,0.1-0.8,0.2
						c-0.2,0.1-0.3,0.2-0.4,0.3c-0.1,0.1-0.1,0.3-0.1,0.4c0,0.3,0.1,0.5,0.3,0.6c0.2,0.2,0.5,0.3,0.8,0.3c0.4,0,0.7-0.1,1-0.2
						c0.3-0.2,0.5-0.4,0.6-0.7c0.1-0.2,0.2-0.5,0.2-0.9V112.6z"/>
				</g>
			</g>
		</g>
		<g>
			<g>
				<rect x="254" y="127.6" class="st9" width="33.4" height="12.2"/>
				<g>
					<path d="M266.5,135.6l1,0.1c-0.2,0.6-0.4,1-0.9,1.3c-0.4,0.3-0.9,0.5-1.6,0.5c-0.8,0-1.5-0.3-1.9-0.8c-0.5-0.5-0.7-1.2-0.7-2.1
						c0-0.9,0.2-1.7,0.7-2.2s1.1-0.8,1.9-0.8c0.7,0,1.4,0.3,1.8,0.8s0.7,1.2,0.7,2.1c0,0.1,0,0.1,0,0.3h-4.2c0,0.6,0.2,1.1,0.5,1.4
						s0.7,0.5,1.2,0.5c0.3,0,0.6-0.1,0.9-0.3S266.4,136,266.5,135.6z M263.4,134.1h3.1c0-0.5-0.2-0.8-0.4-1.1
						c-0.3-0.4-0.7-0.5-1.2-0.5c-0.4,0-0.8,0.1-1.1,0.4C263.6,133.2,263.5,133.6,263.4,134.1z"/>
					<path d="M268.4,133.6c0-0.9,0.1-1.6,0.3-2.2s0.5-1,0.8-1.3c0.4-0.3,0.8-0.5,1.4-0.5c0.4,0,0.8,0.1,1.1,0.2s0.6,0.4,0.8,0.7
						s0.4,0.7,0.5,1.1c0.1,0.5,0.2,1.1,0.2,1.8c0,0.9-0.1,1.6-0.3,2.2s-0.5,1-0.8,1.3c-0.4,0.3-0.8,0.5-1.4,0.5
						c-0.7,0-1.3-0.3-1.7-0.8C268.7,136.1,268.4,135.1,268.4,133.6z M269.4,133.6c0,1.3,0.1,2.1,0.4,2.5c0.3,0.4,0.7,0.6,1.1,0.6
						s0.8-0.2,1.1-0.6s0.4-1.3,0.4-2.5c0-1.3-0.1-2.1-0.4-2.5c-0.3-0.4-0.7-0.6-1.1-0.6c-0.4,0-0.8,0.2-1,0.6
						C269.6,131.5,269.4,132.4,269.4,133.6z"/>
					<path d="M275.6,137.4h-0.9v-7.7h0.9v2.7c0.4-0.5,0.9-0.8,1.5-0.8c0.3,0,0.7,0.1,1,0.2c0.3,0.1,0.6,0.3,0.8,0.6s0.4,0.6,0.5,0.9
						c0.1,0.4,0.2,0.7,0.2,1.1c0,1-0.2,1.7-0.7,2.2s-1,0.8-1.7,0.8c-0.7,0-1.2-0.3-1.5-0.8V137.4z M275.6,134.6
						c0,0.7,0.1,1.2,0.3,1.5c0.3,0.5,0.7,0.7,1.2,0.7c0.4,0,0.8-0.2,1.1-0.5c0.3-0.4,0.5-0.9,0.5-1.6c0-0.7-0.1-1.3-0.4-1.6
						c-0.3-0.3-0.6-0.5-1-0.5c-0.4,0-0.8,0.2-1.1,0.5C275.7,133.4,275.6,133.9,275.6,134.6z"/>
				</g>
			</g>
		</g>
	</g>
	<line class="st9" x1="254" y1="97.1" x2="360.6" y2="97.1"/>
</g>
<g>
	<path d="M291.1,36.3l1-0.1c0,0.4,0.2,0.7,0.3,0.9c0.2,0.2,0.4,0.4,0.8,0.6c0.3,0.2,0.7,0.2,1.2,0.2c0.4,0,0.7-0.1,1-0.2
		c0.3-0.1,0.5-0.3,0.7-0.5c0.1-0.2,0.2-0.4,0.2-0.7c0-0.2-0.1-0.5-0.2-0.6c-0.1-0.2-0.4-0.3-0.7-0.5c-0.2-0.1-0.7-0.2-1.4-0.4
		c-0.7-0.2-1.2-0.3-1.5-0.5c-0.4-0.2-0.6-0.4-0.8-0.7c-0.2-0.3-0.3-0.6-0.3-1c0-0.4,0.1-0.8,0.3-1.1c0.2-0.3,0.5-0.6,1-0.8
		s0.9-0.3,1.4-0.3c0.6,0,1.1,0.1,1.5,0.3c0.4,0.2,0.8,0.5,1,0.8c0.2,0.4,0.4,0.8,0.4,1.2l-1,0.1c-0.1-0.5-0.2-0.9-0.5-1.1
		c-0.3-0.2-0.8-0.4-1.3-0.4c-0.6,0-1.1,0.1-1.3,0.3c-0.3,0.2-0.4,0.5-0.4,0.8c0,0.3,0.1,0.5,0.3,0.7c0.2,0.2,0.7,0.4,1.5,0.5
		s1.4,0.4,1.7,0.5c0.4,0.2,0.8,0.5,1,0.8c0.2,0.3,0.3,0.7,0.3,1.1c0,0.4-0.1,0.8-0.4,1.2c-0.2,0.4-0.6,0.6-1,0.8
		c-0.4,0.2-0.9,0.3-1.5,0.3c-0.7,0-1.3-0.1-1.8-0.3c-0.5-0.2-0.8-0.5-1.1-0.9C291.2,37.2,291.1,36.8,291.1,36.3z"/>
	<path d="M298.5,38.7V31h0.9v2.8c0.4-0.5,1-0.8,1.7-0.8c0.4,0,0.8,0.1,1.1,0.2c0.3,0.2,0.5,0.4,0.7,0.7c0.1,0.3,0.2,0.7,0.2,1.3v3.5
		h-0.9v-3.5c0-0.5-0.1-0.8-0.3-1s-0.5-0.3-0.9-0.3c-0.3,0-0.5,0.1-0.8,0.2s-0.4,0.3-0.5,0.6c-0.1,0.2-0.2,0.6-0.2,1v3.1H298.5z"/>
	<path d="M308.3,36.9l1,0.1c-0.2,0.6-0.4,1-0.9,1.3c-0.4,0.3-0.9,0.5-1.6,0.5c-0.8,0-1.5-0.3-1.9-0.8c-0.5-0.5-0.7-1.2-0.7-2.1
		c0-0.9,0.2-1.7,0.7-2.2s1.1-0.8,1.9-0.8c0.7,0,1.4,0.3,1.8,0.8s0.7,1.2,0.7,2.1c0,0.1,0,0.1,0,0.3h-4.2c0,0.6,0.2,1.1,0.5,1.4
		s0.7,0.5,1.2,0.5c0.3,0,0.6-0.1,0.9-0.3S308.1,37.3,308.3,36.9z M305.2,35.4h3.1c0-0.5-0.2-0.8-0.4-1.1c-0.3-0.4-0.7-0.5-1.2-0.5
		c-0.4,0-0.8,0.1-1.1,0.4C305.4,34.5,305.2,34.9,305.2,35.4z"/>
	<path d="M310.4,38.7V31h0.9v7.7H310.4z"/>
	<path d="M313,38.7v-4.8h-0.8v-0.7h0.8v-0.6c0-0.4,0-0.7,0.1-0.8c0.1-0.2,0.3-0.4,0.5-0.6s0.6-0.2,1-0.2c0.3,0,0.6,0,0.9,0.1
		l-0.1,0.8c-0.2,0-0.4-0.1-0.6-0.1c-0.3,0-0.5,0.1-0.6,0.2c-0.1,0.1-0.2,0.4-0.2,0.7v0.5h1.1v0.7H314v4.8H313z"/>
	<path d="M322.1,38.7h-0.9v-6c-0.2,0.2-0.5,0.4-0.9,0.7c-0.4,0.2-0.7,0.4-1,0.5v-0.9c0.5-0.2,1-0.6,1.4-0.9c0.4-0.4,0.7-0.7,0.8-1
		h0.6V38.7z"/>
</g>
<g>
	<path d="M307.5,74.3v-7.7h1l4,6v-6h1v7.7h-1l-4-6.1v6.1H307.5z"/>
	<path d="M315,71.8l1-0.1c0,0.4,0.2,0.7,0.3,0.9c0.2,0.2,0.4,0.4,0.8,0.6c0.3,0.2,0.7,0.2,1.2,0.2c0.4,0,0.7-0.1,1-0.2
		c0.3-0.1,0.5-0.3,0.7-0.5c0.1-0.2,0.2-0.4,0.2-0.7c0-0.2-0.1-0.5-0.2-0.6c-0.1-0.2-0.4-0.3-0.7-0.5c-0.2-0.1-0.7-0.2-1.4-0.4
		c-0.7-0.2-1.2-0.3-1.5-0.5c-0.4-0.2-0.6-0.4-0.8-0.7c-0.2-0.3-0.3-0.6-0.3-1c0-0.4,0.1-0.8,0.3-1.1c0.2-0.3,0.5-0.6,1-0.8
		s0.9-0.3,1.4-0.3c0.6,0,1.1,0.1,1.5,0.3c0.4,0.2,0.8,0.5,1,0.8c0.2,0.4,0.4,0.8,0.4,1.2l-1,0.1c-0.1-0.5-0.2-0.9-0.5-1.1
		c-0.3-0.2-0.8-0.4-1.3-0.4c-0.6,0-1.1,0.1-1.3,0.3c-0.3,0.2-0.4,0.5-0.4,0.8c0,0.3,0.1,0.5,0.3,0.7c0.2,0.2,0.7,0.4,1.5,0.5
		s1.4,0.4,1.7,0.5c0.4,0.2,0.8,0.5,1,0.8c0.2,0.3,0.3,0.7,0.3,1.1c0,0.4-0.1,0.8-0.4,1.2c-0.2,0.4-0.6,0.6-1,0.8
		c-0.4,0.2-0.9,0.3-1.5,0.3c-0.7,0-1.3-0.1-1.8-0.3c-0.5-0.2-0.8-0.5-1.1-0.9C315.1,72.8,315,72.3,315,71.8z"/>
	<path d="M322.5,74.3v-7.7h1.5l1.8,5.5c0.2,0.5,0.3,0.9,0.4,1.1c0.1-0.3,0.2-0.7,0.4-1.2l1.8-5.4h1.4v7.7h-1v-6.4l-2.2,6.4h-0.9
		l-2.2-6.6v6.6H322.5z"/>
	<path d="M333,74.3l3-7.7h1.1l3.2,7.7h-1.2l-0.9-2.3H335l-0.8,2.3H333z M335.2,71.1h2.6l-0.8-2.1c-0.2-0.6-0.4-1.2-0.5-1.6
		c-0.1,0.5-0.2,1-0.4,1.5L335.2,71.1z"/>
</g>
<g>
	<path d="M307,126.5v-7.7h1l4,6v-6h1v7.7h-1l-4-6.1v6.1H307z"/>
	<path d="M314.4,124l1-0.1c0,0.4,0.2,0.7,0.3,0.9c0.2,0.2,0.4,0.4,0.8,0.6c0.3,0.2,0.7,0.2,1.2,0.2c0.4,0,0.7-0.1,1-0.2
		c0.3-0.1,0.5-0.3,0.7-0.5c0.1-0.2,0.2-0.4,0.2-0.7c0-0.2-0.1-0.5-0.2-0.6c-0.1-0.2-0.4-0.3-0.7-0.5c-0.2-0.1-0.7-0.2-1.4-0.4
		c-0.7-0.2-1.2-0.3-1.5-0.5c-0.4-0.2-0.6-0.4-0.8-0.7c-0.2-0.3-0.3-0.6-0.3-1c0-0.4,0.1-0.8,0.3-1.1c0.2-0.3,0.5-0.6,1-0.8
		s0.9-0.3,1.4-0.3c0.6,0,1.1,0.1,1.5,0.3c0.4,0.2,0.8,0.5,1,0.8c0.2,0.4,0.4,0.8,0.4,1.2l-1,0.1c-0.1-0.5-0.2-0.9-0.5-1.1
		c-0.3-0.2-0.8-0.4-1.3-0.4c-0.6,0-1.1,0.1-1.3,0.3c-0.3,0.2-0.4,0.5-0.4,0.8c0,0.3,0.1,0.5,0.3,0.7c0.2,0.2,0.7,0.4,1.5,0.5
		s1.4,0.4,1.7,0.5c0.4,0.2,0.8,0.5,1,0.8c0.2,0.3,0.3,0.7,0.3,1.1c0,0.4-0.1,0.8-0.4,1.2c-0.2,0.4-0.6,0.6-1,0.8
		c-0.4,0.2-0.9,0.3-1.5,0.3c-0.7,0-1.3-0.1-1.8-0.3c-0.5-0.2-0.8-0.5-1.1-0.9C314.5,125,314.4,124.5,314.4,124z"/>
	<path d="M321.9,126.5v-7.7h1.5l1.8,5.5c0.2,0.5,0.3,0.9,0.4,1.1c0.1-0.3,0.2-0.7,0.4-1.2l1.8-5.4h1.4v7.7h-1v-6.4l-2.2,6.4h-0.9
		l-2.2-6.6v6.6H321.9z"/>
	<path d="M333.8,126.5v-7.7h2.9c0.6,0,1.1,0.1,1.4,0.2c0.4,0.2,0.6,0.4,0.8,0.7c0.2,0.3,0.3,0.7,0.3,1c0,0.3-0.1,0.6-0.3,0.9
		c-0.2,0.3-0.4,0.5-0.8,0.7c0.5,0.1,0.8,0.4,1.1,0.7c0.2,0.3,0.4,0.7,0.4,1.2c0,0.4-0.1,0.7-0.2,1s-0.3,0.5-0.6,0.7
		c-0.2,0.2-0.5,0.3-0.8,0.4c-0.3,0.1-0.8,0.1-1.2,0.1H333.8z M334.8,122h1.7c0.5,0,0.8,0,1-0.1c0.3-0.1,0.5-0.2,0.6-0.4
		c0.1-0.2,0.2-0.4,0.2-0.7c0-0.3-0.1-0.5-0.2-0.7c-0.1-0.2-0.3-0.3-0.5-0.4c-0.2-0.1-0.6-0.1-1.2-0.1h-1.5V122z M334.8,125.6h1.9
		c0.3,0,0.6,0,0.7,0c0.2,0,0.4-0.1,0.6-0.2c0.2-0.1,0.3-0.2,0.4-0.4c0.1-0.2,0.2-0.4,0.2-0.6c0-0.3-0.1-0.5-0.2-0.7
		s-0.4-0.4-0.6-0.4c-0.3-0.1-0.6-0.1-1.1-0.1h-1.8V125.6z"/>
</g>
<g>
	<path d="M43.5,17.9l3.2-8.3h1.2l3.4,8.3H50l-1-2.5h-3.5l-0.9,2.5H43.5z M45.9,14.5h2.8l-0.9-2.3c-0.3-0.7-0.5-1.3-0.6-1.7
		c-0.1,0.5-0.3,1.1-0.4,1.6L45.9,14.5z"/>
	<path d="M52.2,17.9V9.6h5.6v1h-4.5v2.6h3.9v1h-3.9v3.8H52.2z"/>
	<path d="M59.3,17.9V9.6h5.6v1h-4.5v2.6h3.9v1h-3.9v3.8H59.3z"/>
	<path d="M68,17.9l3.2-8.3h1.2l3.4,8.3h-1.2l-1-2.5h-3.5l-0.9,2.5H68z M70.4,14.5h2.8l-0.9-2.3c-0.3-0.7-0.5-1.3-0.6-1.7
		c-0.1,0.5-0.3,1.1-0.4,1.6L70.4,14.5z"/>
	<path d="M77.8,13.4c-0.4-0.2-0.7-0.4-0.9-0.7c-0.2-0.3-0.3-0.6-0.3-1c0-0.6,0.2-1.1,0.7-1.5c0.4-0.4,1-0.6,1.7-0.6
		c0.7,0,1.3,0.2,1.7,0.6s0.7,0.9,0.7,1.5c0,0.4-0.1,0.7-0.3,1s-0.5,0.5-0.9,0.7c0.5,0.2,0.9,0.4,1.2,0.8c0.3,0.4,0.4,0.8,0.4,1.3
		c0,0.7-0.3,1.3-0.8,1.8c-0.5,0.5-1.2,0.7-2,0.7s-1.5-0.2-2-0.7s-0.8-1.1-0.8-1.8c0-0.5,0.1-1,0.4-1.4
		C76.9,13.8,77.3,13.6,77.8,13.4z M77.2,15.5c0,0.3,0.1,0.6,0.2,0.8c0.1,0.3,0.3,0.5,0.6,0.6c0.3,0.1,0.6,0.2,0.9,0.2
		c0.5,0,0.9-0.2,1.2-0.5c0.3-0.3,0.5-0.7,0.5-1.2c0-0.5-0.2-0.9-0.5-1.2s-0.7-0.5-1.2-0.5c-0.5,0-0.9,0.2-1.2,0.5
		C77.4,14.7,77.2,15.1,77.2,15.5z M77.6,11.7c0,0.4,0.1,0.7,0.4,1c0.3,0.2,0.6,0.4,1,0.4c0.4,0,0.7-0.1,1-0.4
		c0.3-0.2,0.4-0.5,0.4-0.9c0-0.4-0.1-0.7-0.4-0.9s-0.6-0.4-1-0.4c-0.4,0-0.7,0.1-1,0.4C77.7,11.1,77.6,11.4,77.6,11.7z"/>
	<path d="M82.6,13.8c0-1,0.1-1.8,0.3-2.4c0.2-0.6,0.5-1.1,0.9-1.4c0.4-0.3,0.9-0.5,1.5-0.5c0.4,0,0.8,0.1,1.2,0.3s0.6,0.4,0.8,0.8
		c0.2,0.3,0.4,0.7,0.5,1.2c0.1,0.5,0.2,1.1,0.2,2c0,1-0.1,1.8-0.3,2.4c-0.2,0.6-0.5,1.1-0.9,1.4c-0.4,0.3-0.9,0.5-1.5,0.5
		c-0.8,0-1.4-0.3-1.9-0.9C82.9,16.5,82.6,15.4,82.6,13.8z M83.7,13.8c0,1.4,0.2,2.3,0.5,2.7c0.3,0.5,0.7,0.7,1.2,0.7
		s0.9-0.2,1.2-0.7c0.3-0.5,0.5-1.4,0.5-2.7c0-1.4-0.2-2.3-0.5-2.7s-0.7-0.7-1.2-0.7c-0.5,0-0.8,0.2-1.1,0.6
		C83.9,11.5,83.7,12.5,83.7,13.8z"/>
	<path d="M89.1,13.8c0-1,0.1-1.8,0.3-2.4c0.2-0.6,0.5-1.1,0.9-1.4c0.4-0.3,0.9-0.5,1.5-0.5c0.4,0,0.8,0.1,1.2,0.3s0.6,0.4,0.8,0.8
		c0.2,0.3,0.4,0.7,0.5,1.2c0.1,0.5,0.2,1.1,0.2,2c0,1-0.1,1.8-0.3,2.4c-0.2,0.6-0.5,1.1-0.9,1.4c-0.4,0.3-0.9,0.5-1.5,0.5
		c-0.8,0-1.4-0.3-1.9-0.9C89.4,16.5,89.1,15.4,89.1,13.8z M90.1,13.8c0,1.4,0.2,2.3,0.5,2.7c0.3,0.5,0.7,0.7,1.2,0.7
		s0.9-0.2,1.2-0.7c0.3-0.5,0.5-1.4,0.5-2.7c0-1.4-0.2-2.3-0.5-2.7s-0.7-0.7-1.2-0.7c-0.5,0-0.8,0.2-1.1,0.6
		C90.3,11.5,90.1,12.5,90.1,13.8z"/>
	<path d="M98.6,14.9c0-1.1,0.3-1.9,0.9-2.5c0.5-0.4,1.1-0.7,1.9-0.7c0.8,0,1.5,0.3,2,0.8s0.8,1.3,0.8,2.2c0,0.8-0.1,1.4-0.3,1.8
		c-0.2,0.4-0.6,0.8-1,1c-0.4,0.2-0.9,0.4-1.5,0.4c-0.8,0-1.5-0.3-2-0.8C98.9,16.7,98.6,15.9,98.6,14.9z M99.7,14.9
		c0,0.8,0.2,1.3,0.5,1.7c0.3,0.4,0.8,0.6,1.3,0.6c0.5,0,0.9-0.2,1.3-0.6c0.3-0.4,0.5-1,0.5-1.8c0-0.7-0.2-1.3-0.5-1.7
		c-0.3-0.4-0.8-0.6-1.3-0.6c-0.5,0-0.9,0.2-1.3,0.6S99.7,14.2,99.7,14.9z"/>
	<path d="M105.5,17.9v-6h0.9v0.9c0.2-0.4,0.4-0.7,0.6-0.8c0.2-0.1,0.4-0.2,0.7-0.2c0.3,0,0.7,0.1,1,0.3l-0.4,0.9
		c-0.2-0.1-0.5-0.2-0.7-0.2c-0.2,0-0.4,0.1-0.6,0.2s-0.3,0.3-0.4,0.6c-0.1,0.4-0.2,0.8-0.2,1.2v3.1H105.5z"/>
	<path d="M111.1,17.9l3.2-8.3h1.2l3.4,8.3h-1.2l-1-2.5h-3.5l-0.9,2.5H111.1z M113.5,14.5h2.8l-0.9-2.3c-0.3-0.7-0.5-1.3-0.6-1.7
		c-0.1,0.5-0.3,1.1-0.4,1.6L113.5,14.5z"/>
	<path d="M119.8,17.9V9.6h5.6v1h-4.5v2.6h3.9v1h-3.9v3.8H119.8z"/>
	<path d="M126.9,17.9V9.6h5.6v1H128v2.6h3.9v1H128v3.8H126.9z"/>
	<path d="M143,15l1.1,0.3c-0.2,0.9-0.6,1.6-1.2,2.1c-0.6,0.5-1.3,0.7-2.2,0.7c-0.9,0-1.6-0.2-2.2-0.5c-0.6-0.4-1-0.9-1.3-1.6
		c-0.3-0.7-0.4-1.4-0.4-2.2c0-0.9,0.2-1.6,0.5-2.3c0.3-0.6,0.8-1.1,1.4-1.5c0.6-0.3,1.3-0.5,2-0.5c0.8,0,1.5,0.2,2.1,0.6
		c0.6,0.4,1,1,1.2,1.8l-1.1,0.3c-0.2-0.6-0.5-1-0.8-1.3c-0.4-0.3-0.8-0.4-1.4-0.4c-0.6,0-1.2,0.2-1.6,0.5s-0.7,0.7-0.9,1.2
		c-0.2,0.5-0.3,1-0.3,1.6c0,0.7,0.1,1.3,0.3,1.8c0.2,0.5,0.5,0.9,1,1.2c0.4,0.3,0.9,0.4,1.4,0.4c0.6,0,1.1-0.2,1.6-0.5
		C142.6,16.2,142.9,15.7,143,15z"/>
	<path d="M146.6,13.4c-0.4-0.2-0.7-0.4-0.9-0.7c-0.2-0.3-0.3-0.6-0.3-1c0-0.6,0.2-1.1,0.7-1.5c0.4-0.4,1-0.6,1.7-0.6
		c0.7,0,1.3,0.2,1.7,0.6s0.7,0.9,0.7,1.5c0,0.4-0.1,0.7-0.3,1s-0.5,0.5-0.9,0.7c0.5,0.2,0.9,0.4,1.2,0.8c0.3,0.4,0.4,0.8,0.4,1.3
		c0,0.7-0.3,1.3-0.8,1.8c-0.5,0.5-1.2,0.7-2,0.7s-1.5-0.2-2-0.7s-0.8-1.1-0.8-1.8c0-0.5,0.1-1,0.4-1.4
		C145.7,13.8,146.1,13.6,146.6,13.4z M146.1,15.5c0,0.3,0.1,0.6,0.2,0.8c0.1,0.3,0.3,0.5,0.6,0.6c0.3,0.1,0.6,0.2,0.9,0.2
		c0.5,0,0.9-0.2,1.2-0.5c0.3-0.3,0.5-0.7,0.5-1.2c0-0.5-0.2-0.9-0.5-1.2s-0.7-0.5-1.2-0.5c-0.5,0-0.9,0.2-1.2,0.5
		C146.3,14.7,146.1,15.1,146.1,15.5z M146.4,11.7c0,0.4,0.1,0.7,0.4,1c0.3,0.2,0.6,0.4,1,0.4c0.4,0,0.7-0.1,1-0.4
		c0.3-0.2,0.4-0.5,0.4-0.9c0-0.4-0.1-0.7-0.4-0.9s-0.6-0.4-1-0.4c-0.4,0-0.7,0.1-1,0.4C146.6,11.1,146.4,11.4,146.4,11.7z"/>
	<path d="M151.5,13.8c0-1,0.1-1.8,0.3-2.4c0.2-0.6,0.5-1.1,0.9-1.4c0.4-0.3,0.9-0.5,1.5-0.5c0.4,0,0.8,0.1,1.2,0.3s0.6,0.4,0.8,0.8
		c0.2,0.3,0.4,0.7,0.5,1.2c0.1,0.5,0.2,1.1,0.2,2c0,1-0.1,1.8-0.3,2.4c-0.2,0.6-0.5,1.1-0.9,1.4c-0.4,0.3-0.9,0.5-1.5,0.5
		c-0.8,0-1.4-0.3-1.9-0.9C151.8,16.5,151.5,15.4,151.5,13.8z M152.6,13.8c0,1.4,0.2,2.3,0.5,2.7c0.3,0.5,0.7,0.7,1.2,0.7
		s0.9-0.2,1.2-0.7c0.3-0.5,0.5-1.4,0.5-2.7c0-1.4-0.2-2.3-0.5-2.7s-0.7-0.7-1.2-0.7c-0.5,0-0.8,0.2-1.1,0.6
		C152.7,11.5,152.6,12.5,152.6,13.8z"/>
	<path d="M157.9,13.8c0-1,0.1-1.8,0.3-2.4c0.2-0.6,0.5-1.1,0.9-1.4c0.4-0.3,0.9-0.5,1.5-0.5c0.4,0,0.8,0.1,1.2,0.3s0.6,0.4,0.8,0.8
		c0.2,0.3,0.4,0.7,0.5,1.2c0.1,0.5,0.2,1.1,0.2,2c0,1-0.1,1.8-0.3,2.4c-0.2,0.6-0.5,1.1-0.9,1.4c-0.4,0.3-0.9,0.5-1.5,0.5
		c-0.8,0-1.4-0.3-1.9-0.9C158.2,16.5,157.9,15.4,157.9,13.8z M159,13.8c0,1.4,0.2,2.3,0.5,2.7c0.3,0.5,0.7,0.7,1.2,0.7
		s0.9-0.2,1.2-0.7c0.3-0.5,0.5-1.4,0.5-2.7c0-1.4-0.2-2.3-0.5-2.7s-0.7-0.7-1.2-0.7c-0.5,0-0.8,0.2-1.1,0.6
		C159.2,11.5,159,12.5,159,13.8z"/>
	<path d="M168,17.9V9.6h1.1V13h4.3V9.6h1.1v8.3h-1.1V14h-4.3v3.9H168z"/>
	<path d="M175.5,17.9l3.2-8.3h1.2l3.4,8.3H182l-1-2.5h-3.5l-0.9,2.5H175.5z M177.9,14.5h2.8l-0.9-2.3c-0.3-0.7-0.5-1.3-0.6-1.7
		c-0.1,0.5-0.3,1.1-0.4,1.6L177.9,14.5z"/>
	<path d="M186.5,20.2v-8.3h0.9v0.8c0.2-0.3,0.5-0.5,0.7-0.7c0.3-0.2,0.6-0.2,1-0.2c0.5,0,1,0.1,1.4,0.4c0.4,0.3,0.7,0.6,0.9,1.1
		c0.2,0.5,0.3,1,0.3,1.6c0,0.6-0.1,1.2-0.3,1.7c-0.2,0.5-0.5,0.9-1,1.1c-0.4,0.3-0.9,0.4-1.3,0.4c-0.3,0-0.6-0.1-0.9-0.2
		s-0.5-0.3-0.7-0.5v2.9H186.5z M187.5,15c0,0.8,0.2,1.3,0.5,1.7c0.3,0.4,0.7,0.6,1.1,0.6c0.5,0,0.8-0.2,1.2-0.6
		c0.3-0.4,0.5-1,0.5-1.8c0-0.8-0.2-1.3-0.5-1.7c-0.3-0.4-0.7-0.6-1.1-0.6c-0.4,0-0.8,0.2-1.2,0.6C187.6,13.6,187.5,14.2,187.5,15z"
		/>
	<path d="M196.9,17.2c-0.4,0.3-0.7,0.5-1.1,0.7s-0.7,0.2-1.1,0.2c-0.7,0-1.2-0.2-1.5-0.5c-0.4-0.3-0.5-0.7-0.5-1.2
		c0-0.3,0.1-0.6,0.2-0.8s0.3-0.4,0.5-0.6c0.2-0.1,0.5-0.3,0.7-0.3c0.2-0.1,0.5-0.1,0.9-0.2c0.8-0.1,1.4-0.2,1.8-0.4
		c0-0.1,0-0.2,0-0.3c0-0.4-0.1-0.7-0.3-0.9c-0.3-0.2-0.6-0.3-1.2-0.3c-0.5,0-0.8,0.1-1.1,0.3c-0.2,0.2-0.4,0.5-0.5,0.9l-1-0.1
		c0.1-0.4,0.2-0.8,0.4-1c0.2-0.3,0.5-0.5,0.9-0.6c0.4-0.1,0.8-0.2,1.4-0.2c0.5,0,0.9,0.1,1.2,0.2c0.3,0.1,0.6,0.3,0.7,0.5
		c0.2,0.2,0.3,0.4,0.3,0.7c0,0.2,0.1,0.5,0.1,0.9v1.4c0,0.9,0,1.5,0.1,1.8c0,0.3,0.1,0.5,0.3,0.7h-1.1
		C197,17.7,196.9,17.5,196.9,17.2z M196.8,14.9c-0.4,0.2-0.9,0.3-1.7,0.4c-0.4,0.1-0.7,0.1-0.9,0.2c-0.2,0.1-0.3,0.2-0.4,0.3
		c-0.1,0.1-0.1,0.3-0.1,0.5c0,0.3,0.1,0.5,0.3,0.7c0.2,0.2,0.5,0.3,0.9,0.3c0.4,0,0.7-0.1,1-0.3c0.3-0.2,0.5-0.4,0.7-0.7
		c0.1-0.2,0.2-0.6,0.2-1V14.9z"/>
	<path d="M199.4,10.8V9.6h1v1.2H199.4z M199.4,17.9v-6h1v6H199.4z"/>
	<path d="M202,17.9v-6h0.9v0.9c0.2-0.4,0.4-0.7,0.6-0.8c0.2-0.1,0.4-0.2,0.7-0.2c0.3,0,0.7,0.1,1,0.3l-0.4,0.9
		c-0.2-0.1-0.5-0.2-0.7-0.2c-0.2,0-0.4,0.1-0.6,0.2c-0.2,0.1-0.3,0.3-0.4,0.6c-0.1,0.4-0.2,0.8-0.2,1.2v3.1H202z"/>
	<path d="M210.2,17.9l-1.8-6h1.1l1,3.5l0.4,1.3c0-0.1,0.1-0.5,0.3-1.2l1-3.5h1l0.9,3.5l0.3,1.1l0.3-1.2l1-3.5h1l-1.9,6h-1.1l-1-3.6
		l-0.2-1l-1.2,4.6H210.2z"/>
	<path d="M217.4,10.8V9.6h1v1.2H217.4z M217.4,17.9v-6h1v6H217.4z"/>
	<path d="M222.2,17l0.1,0.9c-0.3,0.1-0.5,0.1-0.8,0.1c-0.4,0-0.7-0.1-0.9-0.2s-0.3-0.3-0.4-0.5c-0.1-0.2-0.1-0.6-0.1-1.2v-3.5h-0.7
		v-0.8h0.7v-1.5l1-0.6v2.1h1v0.8h-1v3.5c0,0.3,0,0.5,0.1,0.6s0.1,0.1,0.2,0.2c0.1,0,0.2,0.1,0.3,0.1C221.9,17.1,222,17,222.2,17z"/>
	<path d="M223.2,17.9V9.6h1v3c0.5-0.6,1.1-0.8,1.8-0.8c0.4,0,0.8,0.1,1.2,0.3c0.3,0.2,0.6,0.4,0.7,0.7c0.1,0.3,0.2,0.8,0.2,1.3v3.8
		h-1v-3.8c0-0.5-0.1-0.9-0.3-1.1c-0.2-0.2-0.5-0.3-0.9-0.3c-0.3,0-0.6,0.1-0.9,0.2c-0.3,0.2-0.5,0.4-0.6,0.6
		c-0.1,0.3-0.2,0.6-0.2,1.1v3.3H223.2z"/>
	<path d="M232.5,14.9c0-1.1,0.3-1.9,0.9-2.5c0.5-0.4,1.1-0.7,1.9-0.7c0.8,0,1.5,0.3,2,0.8c0.5,0.5,0.8,1.3,0.8,2.2
		c0,0.8-0.1,1.4-0.3,1.8c-0.2,0.4-0.6,0.8-1,1c-0.4,0.2-0.9,0.4-1.5,0.4c-0.8,0-1.5-0.3-2-0.8C232.8,16.7,232.5,15.9,232.5,14.9z
		 M233.5,14.9c0,0.8,0.2,1.3,0.5,1.7c0.3,0.4,0.8,0.6,1.3,0.6c0.5,0,0.9-0.2,1.3-0.6c0.3-0.4,0.5-1,0.5-1.8c0-0.7-0.2-1.3-0.5-1.7
		c-0.3-0.4-0.8-0.6-1.3-0.6c-0.5,0-0.9,0.2-1.3,0.6C233.7,13.6,233.5,14.2,233.5,14.9z"/>
	<path d="M239.3,17.9v-6h0.9v0.9c0.4-0.7,1.1-1,1.9-1c0.4,0,0.7,0.1,1,0.2c0.3,0.1,0.5,0.3,0.7,0.5c0.2,0.2,0.3,0.5,0.3,0.8
		c0,0.2,0.1,0.5,0.1,1v3.7h-1v-3.7c0-0.4,0-0.7-0.1-0.9c-0.1-0.2-0.2-0.4-0.4-0.5c-0.2-0.1-0.4-0.2-0.7-0.2c-0.4,0-0.8,0.1-1.1,0.4
		c-0.3,0.3-0.5,0.8-0.5,1.6v3.3H239.3z"/>
	<path d="M249.9,16l1.1,0.1c-0.2,0.6-0.5,1.1-0.9,1.4c-0.4,0.3-1,0.5-1.7,0.5c-0.9,0-1.6-0.3-2.1-0.8c-0.5-0.5-0.8-1.3-0.8-2.3
		c0-1,0.3-1.8,0.8-2.4c0.5-0.6,1.2-0.8,2-0.8c0.8,0,1.5,0.3,2,0.8c0.5,0.5,0.8,1.3,0.8,2.3c0,0.1,0,0.2,0,0.3h-4.5
		c0,0.7,0.2,1.2,0.6,1.5c0.3,0.4,0.8,0.5,1.3,0.5c0.4,0,0.7-0.1,1-0.3C249.5,16.7,249.7,16.4,249.9,16z M246.5,14.4h3.4
		c0-0.5-0.2-0.9-0.4-1.1c-0.3-0.4-0.7-0.6-1.3-0.6c-0.5,0-0.9,0.2-1.2,0.5S246.6,13.8,246.5,14.4z"/>
	<path d="M255.5,17.9V9.6h1.1l4.4,6.5V9.6h1.1v8.3h-1.1l-4.4-6.5v6.5H255.5z"/>
	<path d="M263.5,15.3l1-0.1c0,0.4,0.2,0.8,0.3,1c0.2,0.3,0.5,0.5,0.8,0.6s0.8,0.2,1.3,0.2c0.4,0,0.8-0.1,1.1-0.2
		c0.3-0.1,0.6-0.3,0.7-0.5s0.2-0.5,0.2-0.7c0-0.3-0.1-0.5-0.2-0.7c-0.2-0.2-0.4-0.4-0.7-0.5c-0.2-0.1-0.7-0.2-1.5-0.4
		c-0.8-0.2-1.3-0.4-1.6-0.5c-0.4-0.2-0.7-0.5-0.9-0.8s-0.3-0.7-0.3-1c0-0.4,0.1-0.8,0.4-1.2c0.2-0.4,0.6-0.6,1-0.8s1-0.3,1.5-0.3
		c0.6,0,1.2,0.1,1.6,0.3c0.5,0.2,0.8,0.5,1.1,0.9c0.3,0.4,0.4,0.8,0.4,1.3l-1.1,0.1c-0.1-0.5-0.2-0.9-0.6-1.2s-0.8-0.4-1.4-0.4
		c-0.7,0-1.1,0.1-1.5,0.4c-0.3,0.2-0.5,0.5-0.5,0.9c0,0.3,0.1,0.5,0.3,0.7c0.2,0.2,0.8,0.4,1.7,0.6c0.9,0.2,1.5,0.4,1.8,0.5
		c0.5,0.2,0.8,0.5,1.1,0.8c0.2,0.3,0.3,0.7,0.3,1.2c0,0.4-0.1,0.9-0.4,1.2c-0.3,0.4-0.6,0.7-1.1,0.9c-0.5,0.2-1,0.3-1.6,0.3
		c-0.8,0-1.4-0.1-1.9-0.3c-0.5-0.2-0.9-0.5-1.2-1C263.7,16.3,263.6,15.8,263.5,15.3z"/>
	<path d="M276.6,17v1h-5.5c0-0.2,0-0.5,0.1-0.7c0.1-0.4,0.4-0.7,0.7-1.1c0.3-0.4,0.8-0.8,1.3-1.3c0.9-0.7,1.5-1.3,1.8-1.8
		s0.5-0.8,0.5-1.2c0-0.4-0.1-0.7-0.4-1c-0.3-0.3-0.7-0.4-1.1-0.4c-0.5,0-0.9,0.1-1.2,0.4s-0.4,0.7-0.4,1.2l-1-0.1
		c0.1-0.8,0.3-1.4,0.8-1.8c0.5-0.4,1.1-0.6,1.9-0.6c0.8,0,1.4,0.2,1.9,0.7c0.5,0.4,0.7,1,0.7,1.6c0,0.3-0.1,0.7-0.2,1
		s-0.4,0.7-0.7,1c-0.3,0.4-0.8,0.8-1.6,1.5c-0.6,0.5-1,0.9-1.2,1c-0.2,0.2-0.3,0.4-0.4,0.6H276.6z"/>
	<path d="M283,17v1h-5.5c0-0.2,0-0.5,0.1-0.7c0.1-0.4,0.4-0.7,0.7-1.1c0.3-0.4,0.8-0.8,1.3-1.3c0.9-0.7,1.5-1.3,1.8-1.8
		s0.5-0.8,0.5-1.2c0-0.4-0.1-0.7-0.4-1c-0.3-0.3-0.7-0.4-1.1-0.4c-0.5,0-0.9,0.1-1.2,0.4s-0.4,0.7-0.4,1.2l-1-0.1
		c0.1-0.8,0.3-1.4,0.8-1.8c0.5-0.4,1.1-0.6,1.9-0.6c0.8,0,1.4,0.2,1.9,0.7c0.5,0.4,0.7,1,0.7,1.6c0,0.3-0.1,0.7-0.2,1
		s-0.4,0.7-0.7,1c-0.3,0.4-0.8,0.8-1.6,1.5c-0.6,0.5-1,0.9-1.2,1c-0.2,0.2-0.3,0.4-0.4,0.6H283z"/>
	<path d="M287.4,17.9v-2h-3.6V15l3.8-5.4h0.8V15h1.1v0.9h-1.1v2H287.4z M287.4,15v-3.7l-2.6,3.7H287.4z"/>
	<path d="M293.6,16.1l1-0.2c0.1,0.4,0.2,0.7,0.5,0.9c0.3,0.2,0.6,0.3,1.1,0.3c0.5,0,0.8-0.1,1-0.3c0.2-0.2,0.3-0.4,0.3-0.7
		c0-0.2-0.1-0.4-0.3-0.5c-0.1-0.1-0.5-0.2-1-0.3c-0.7-0.2-1.3-0.4-1.6-0.5c-0.3-0.1-0.5-0.3-0.7-0.6c-0.1-0.2-0.2-0.5-0.2-0.8
		c0-0.3,0.1-0.5,0.2-0.7c0.1-0.2,0.3-0.4,0.5-0.6c0.2-0.1,0.4-0.2,0.6-0.3s0.6-0.1,0.9-0.1c0.5,0,0.9,0.1,1.2,0.2s0.6,0.3,0.8,0.6
		c0.2,0.2,0.3,0.5,0.3,0.9l-1,0.1c0-0.3-0.2-0.6-0.4-0.7s-0.5-0.3-0.9-0.3c-0.5,0-0.8,0.1-1,0.2c-0.2,0.2-0.3,0.3-0.3,0.5
		c0,0.1,0,0.3,0.1,0.4c0.1,0.1,0.2,0.2,0.4,0.3c0.1,0,0.4,0.1,0.9,0.3c0.7,0.2,1.2,0.3,1.5,0.5s0.5,0.3,0.7,0.5
		c0.2,0.2,0.2,0.5,0.2,0.9c0,0.3-0.1,0.7-0.3,1s-0.5,0.5-0.9,0.7s-0.8,0.2-1.3,0.2c-0.8,0-1.4-0.2-1.8-0.5
		C294,17.3,293.7,16.8,293.6,16.1z"/>
	<path d="M299.8,17.9V9.6h1v3c0.5-0.6,1.1-0.8,1.8-0.8c0.4,0,0.8,0.1,1.2,0.3c0.3,0.2,0.6,0.4,0.7,0.7c0.1,0.3,0.2,0.8,0.2,1.3v3.8
		h-1v-3.8c0-0.5-0.1-0.9-0.3-1.1c-0.2-0.2-0.5-0.3-0.9-0.3c-0.3,0-0.6,0.1-0.9,0.2c-0.3,0.2-0.5,0.4-0.6,0.6
		c-0.1,0.3-0.2,0.6-0.2,1.1v3.3H299.8z"/>
	<path d="M310.4,16l1.1,0.1c-0.2,0.6-0.5,1.1-0.9,1.4c-0.4,0.3-1,0.5-1.7,0.5c-0.9,0-1.6-0.3-2.1-0.8c-0.5-0.5-0.8-1.3-0.8-2.3
		c0-1,0.3-1.8,0.8-2.4c0.5-0.6,1.2-0.8,2-0.8c0.8,0,1.5,0.3,2,0.8c0.5,0.5,0.8,1.3,0.8,2.3c0,0.1,0,0.2,0,0.3H307
		c0,0.7,0.2,1.2,0.6,1.5c0.3,0.4,0.8,0.5,1.3,0.5c0.4,0,0.7-0.1,1-0.3C310,16.7,310.2,16.4,310.4,16z M307,14.4h3.4
		c0-0.5-0.2-0.9-0.4-1.1c-0.3-0.4-0.7-0.6-1.3-0.6c-0.5,0-0.9,0.2-1.2,0.5S307.1,13.8,307,14.4z"/>
	<path d="M312.7,17.9V9.6h1v8.3H312.7z"/>
	<path d="M315.5,17.9v-5.2h-0.9v-0.8h0.9v-0.6c0-0.4,0-0.7,0.1-0.9c0.1-0.3,0.3-0.5,0.5-0.6c0.2-0.2,0.6-0.2,1-0.2
		c0.3,0,0.6,0,0.9,0.1l-0.2,0.9c-0.2,0-0.4-0.1-0.6-0.1c-0.3,0-0.5,0.1-0.7,0.2c-0.1,0.1-0.2,0.4-0.2,0.7v0.6h1.2v0.8h-1.2v5.2
		H315.5z"/>
</g>
<g>
	<rect x="111.4" y="189.4" class="st8" width="33.4" height="15.8"/>
	<rect x="97.4" y="189.4" class="st8" width="14.5" height="31.5"/>
</g>
<g>
	<rect x="112.1" y="205.3" class="st8" width="32.7" height="15.8"/>
</g>
<g>
	<g>
		<path d="M129,63.2c-0.4,0.3-0.7,0.5-1,0.6c-0.3,0.1-0.7,0.2-1,0.2c-0.6,0-1.1-0.1-1.4-0.4c-0.3-0.3-0.5-0.7-0.5-1.1
			c0-0.3,0.1-0.5,0.2-0.7c0.1-0.2,0.3-0.4,0.5-0.5c0.2-0.1,0.4-0.2,0.7-0.3c0.2,0,0.5-0.1,0.8-0.1c0.8-0.1,1.3-0.2,1.7-0.3
			c0-0.1,0-0.2,0-0.2c0-0.4-0.1-0.7-0.3-0.8c-0.2-0.2-0.6-0.3-1.1-0.3c-0.4,0-0.8,0.1-1,0.2s-0.4,0.4-0.5,0.8l-0.9-0.1
			c0.1-0.4,0.2-0.7,0.4-1c0.2-0.2,0.5-0.4,0.8-0.6s0.8-0.2,1.3-0.2c0.5,0,0.9,0.1,1.2,0.2c0.3,0.1,0.5,0.3,0.7,0.4s0.2,0.4,0.3,0.6
			c0,0.2,0,0.5,0,0.9v1.3c0,0.9,0,1.4,0.1,1.7c0,0.2,0.1,0.5,0.2,0.7h-1C129.1,63.7,129,63.5,129,63.2z M128.9,61.1
			c-0.3,0.1-0.9,0.3-1.5,0.4c-0.4,0.1-0.7,0.1-0.8,0.2c-0.2,0.1-0.3,0.2-0.4,0.3c-0.1,0.1-0.1,0.3-0.1,0.4c0,0.3,0.1,0.5,0.3,0.6
			c0.2,0.2,0.5,0.3,0.8,0.3c0.4,0,0.7-0.1,1-0.2c0.3-0.2,0.5-0.4,0.6-0.7c0.1-0.2,0.2-0.5,0.2-0.9V61.1z"/>
	</g>
</g>
<g>
	<g>
		<path d="M126.2,80.2h-0.9v-7.7h0.9v2.7c0.4-0.5,0.9-0.8,1.5-0.8c0.3,0,0.7,0.1,1,0.2c0.3,0.1,0.6,0.3,0.8,0.6
			c0.2,0.3,0.4,0.6,0.5,0.9c0.1,0.4,0.2,0.7,0.2,1.1c0,1-0.2,1.7-0.7,2.2c-0.5,0.5-1,0.8-1.7,0.8c-0.7,0-1.2-0.3-1.6-0.8V80.2z
			 M126.2,77.3c0,0.7,0.1,1.2,0.3,1.5c0.3,0.5,0.7,0.7,1.2,0.7c0.4,0,0.8-0.2,1.1-0.5c0.3-0.4,0.5-0.9,0.5-1.6
			c0-0.7-0.1-1.3-0.4-1.6c-0.3-0.3-0.6-0.5-1-0.5c-0.4,0-0.8,0.2-1.1,0.5S126.2,76.7,126.2,77.3z"/>
	</g>
</g>
<g>
	<g>
		<path d="M129,200.1c-0.4,0.3-0.7,0.5-1,0.6c-0.3,0.1-0.7,0.2-1,0.2c-0.6,0-1.1-0.1-1.4-0.4c-0.3-0.3-0.5-0.7-0.5-1.1
			c0-0.3,0.1-0.5,0.2-0.7c0.1-0.2,0.3-0.4,0.5-0.5c0.2-0.1,0.4-0.2,0.7-0.3c0.2,0,0.5-0.1,0.8-0.1c0.8-0.1,1.3-0.2,1.7-0.3
			c0-0.1,0-0.2,0-0.2c0-0.4-0.1-0.7-0.3-0.8c-0.2-0.2-0.6-0.3-1.1-0.3c-0.4,0-0.8,0.1-1,0.2c-0.2,0.2-0.4,0.4-0.5,0.8l-0.9-0.1
			c0.1-0.4,0.2-0.7,0.4-1c0.2-0.2,0.5-0.4,0.8-0.6c0.4-0.1,0.8-0.2,1.3-0.2c0.5,0,0.9,0.1,1.2,0.2c0.3,0.1,0.5,0.3,0.7,0.4
			s0.2,0.4,0.3,0.6c0,0.2,0,0.5,0,0.9v1.3c0,0.9,0,1.4,0.1,1.7c0,0.2,0.1,0.5,0.2,0.7h-1C129.1,200.5,129,200.3,129,200.1z
			 M128.9,197.9c-0.3,0.1-0.9,0.3-1.5,0.4c-0.4,0.1-0.7,0.1-0.8,0.2c-0.2,0.1-0.3,0.2-0.4,0.3c-0.1,0.1-0.1,0.3-0.1,0.4
			c0,0.3,0.1,0.5,0.3,0.6c0.2,0.2,0.5,0.3,0.8,0.3c0.4,0,0.7-0.1,1-0.2s0.5-0.4,0.6-0.7c0.1-0.2,0.2-0.5,0.2-0.9V197.9z"/>
	</g>
</g>
<g>
	<g>
		<path d="M126.2,217h-0.9v-7.7h0.9v2.7c0.4-0.5,0.9-0.8,1.5-0.8c0.3,0,0.7,0.1,1,0.2c0.3,0.1,0.6,0.3,0.8,0.6
			c0.2,0.3,0.4,0.6,0.5,0.9c0.1,0.4,0.2,0.7,0.2,1.1c0,1-0.2,1.7-0.7,2.2c-0.5,0.5-1,0.8-1.7,0.8c-0.7,0-1.2-0.3-1.6-0.8V217z
			 M126.2,214.2c0,0.7,0.1,1.2,0.3,1.5c0.3,0.5,0.7,0.7,1.2,0.7c0.4,0,0.8-0.2,1.1-0.5c0.3-0.4,0.5-0.9,0.5-1.6
			c0-0.7-0.1-1.3-0.4-1.6c-0.3-0.3-0.6-0.5-1-0.5c-0.4,0-0.8,0.2-1.1,0.5C126.4,213,126.2,213.5,126.2,214.2z"/>
	</g>
</g>
<g>
	<g>
		<g>
			<path d="M105.7,214.1l-0.1-0.6c0.3,0,0.5-0.1,0.7-0.2s0.3-0.3,0.4-0.5s0.2-0.5,0.2-0.8c0-0.3,0-0.5-0.1-0.7s-0.2-0.3-0.4-0.4
				c-0.1-0.1-0.3-0.1-0.5-0.1c-0.2,0-0.3,0-0.5,0.1s-0.2,0.2-0.3,0.5c-0.1,0.1-0.2,0.4-0.3,0.9c-0.1,0.5-0.2,0.8-0.4,1
				c-0.1,0.2-0.3,0.4-0.5,0.5s-0.5,0.2-0.7,0.2c-0.3,0-0.6-0.1-0.8-0.2s-0.4-0.4-0.6-0.6c-0.1-0.3-0.2-0.6-0.2-0.9
				c0-0.4,0.1-0.7,0.2-1s0.3-0.5,0.6-0.7c0.3-0.2,0.6-0.2,0.9-0.3l0.1,0.7c-0.4,0-0.6,0.2-0.8,0.4c-0.2,0.2-0.3,0.5-0.3,0.9
				c0,0.4,0.1,0.7,0.3,0.9c0.2,0.2,0.4,0.3,0.6,0.3c0.2,0,0.4-0.1,0.5-0.2c0.1-0.1,0.3-0.5,0.4-1s0.3-0.9,0.4-1.1
				c0.2-0.3,0.3-0.5,0.6-0.7s0.5-0.2,0.8-0.2c0.3,0,0.6,0.1,0.9,0.2c0.3,0.2,0.5,0.4,0.6,0.7c0.1,0.3,0.2,0.6,0.2,1
				c0,0.5-0.1,0.9-0.2,1.2c-0.2,0.3-0.4,0.6-0.7,0.7C106.4,214,106.1,214.1,105.7,214.1z"/>
			<path d="M107.5,209.1h-5.7v-0.6h5.7V209.1z"/>
			<path d="M105.5,207.7c-0.8,0-1.3-0.2-1.7-0.6c-0.3-0.3-0.5-0.7-0.5-1.2c0-0.5,0.2-0.9,0.6-1.3c0.4-0.3,0.9-0.5,1.5-0.5
				c0.5,0,1,0.1,1.3,0.2c0.3,0.1,0.5,0.4,0.7,0.6s0.3,0.6,0.3,0.9c0,0.5-0.2,0.9-0.6,1.3S106.2,207.7,105.5,207.7z M105.5,207.1
				c0.5,0,0.9-0.1,1.2-0.3s0.4-0.5,0.4-0.8c0-0.3-0.1-0.6-0.4-0.8c-0.3-0.2-0.7-0.3-1.2-0.3c-0.5,0-0.9,0.1-1.2,0.3
				c-0.3,0.2-0.4,0.5-0.4,0.8c0,0.3,0.1,0.6,0.4,0.8S104.9,207.1,105.5,207.1z"/>
			<path d="M106.9,202.1l0.6-0.1c0,0.2,0.1,0.3,0.1,0.5c0,0.2,0,0.4-0.1,0.5s-0.2,0.2-0.3,0.3c-0.1,0.1-0.4,0.1-0.8,0.1h-2.4v0.5
				h-0.5v-0.5h-1l-0.4-0.6h1.4v-0.6h0.5v0.6h2.4c0.2,0,0.3,0,0.4,0s0.1-0.1,0.1-0.1c0-0.1,0.1-0.1,0.1-0.2
				C106.9,202.3,106.9,202.2,106.9,202.1z"/>
			<path d="M106,199.7L106,199c0.4,0,0.6-0.2,0.8-0.3s0.3-0.4,0.3-0.6c0-0.3-0.1-0.6-0.4-0.8s-0.6-0.3-1-0.3c-0.4,0-0.7,0.1-0.9,0.3
				c-0.2,0.2-0.3,0.5-0.3,0.8c0,0.2,0.1,0.4,0.2,0.6s0.2,0.3,0.4,0.4l-0.1,0.6l-2.9-0.5v-2.6h0.7v2.1l1.5,0.3
				c-0.2-0.3-0.4-0.6-0.4-1c0-0.5,0.2-0.8,0.5-1.1c0.3-0.3,0.8-0.5,1.3-0.5c0.5,0,1,0.1,1.3,0.4c0.5,0.3,0.7,0.8,0.7,1.4
				c0,0.5-0.1,0.9-0.4,1.1C106.9,199.5,106.5,199.6,106,199.7z"/>
		</g>
	</g>
</g>
</svg>
