<?xml version="1.0" encoding="utf-8"?>
<!-- Generator: Adobe Illustrator 26.0.3, SVG Export Plug-In . SVG Version: 6.00 Build 0)  -->
<svg version="1.1" id="Layer_1" xmlns="http://www.w3.org/2000/svg" xmlns:xlink="http://www.w3.org/1999/xlink" x="0px" y="0px"
	 viewBox="0 0 360 263.75171" style="enable-background:new 0 0 360 263.75171;" xml:space="preserve">
<style type="text/css">
	.st0{fill:none;stroke:#1670B8;stroke-width:2.29152;stroke-miterlimit:10;}
	.st1{fill:none;stroke:#BBBDBF;stroke-width:2.29152;stroke-miterlimit:10;}
	.st2{fill:none;stroke:#FFFFFF;stroke-width:5.72879;stroke-miterlimit:10;}
	.st3{fill:none;stroke:#F5A800;stroke-width:2.29152;stroke-miterlimit:10;stroke-dasharray:2.21017;}
	.st4{fill:none;stroke:#FFFFFF;stroke-width:3.43727;stroke-miterlimit:10;}
	.st5{fill:none;stroke:#F5A800;stroke-width:2.29152;stroke-miterlimit:10;}
	.st6{fill:none;stroke:#1670B8;stroke-width:2.29152;stroke-miterlimit:10;stroke-dasharray:2.21017;}
	.st7{fill:#FFFFFF;stroke:#231F20;stroke-width:1.22131;stroke-miterlimit:10;}
	.st8{fill:#FFFFFF;stroke:#231F20;stroke-width:1.42221;stroke-miterlimit:10;}
	.st9{fill:#231F20;}
	.st10{fill:#FFFFFF;stroke:#231F20;stroke-width:1.24998;stroke-miterlimit:10;}
</style>
<g>
	<line class="st0" x1="146.99529" y1="37.54362" x2="250.31767" y2="37.54362"/>
	<path class="st1" d="M145.65895,37.62861"/>
	<polyline class="st2" points="145.65895,240.22481 196.7081,240.22481 196.7081,59.64574 250.31767,59.64574 	"/>
	<polyline class="st3" points="145.65895,240.22481 196.7081,240.22481 196.7081,59.64574 250.31767,59.64574 	"/>
	<polyline class="st4" points="145.65895,166.93394 219.09592,166.93394 219.09592,87.66422 250.31767,87.66422 	"/>
	<polyline class="st5" points="145.65895,166.90446 219.09592,166.90446 219.09592,87.66422 250.31767,87.66422 	"/>
	<polyline class="st2" points="145.65895,93.84853 180.01746,93.84853 180.01746,171.52061 250.31767,171.52061 	"/>
	<polyline class="st0" points="145.65895,93.84853 180.01746,93.84853 180.01746,171.52061 250.31767,171.52061 	"/>
	<line class="st2" x1="145.65895" y1="109.11133" x2="250.31767" y2="109.11133"/>
	<line class="st6" x1="145.65895" y1="109.11133" x2="250.31767" y2="109.11133"/>
	<polyline class="st2" points="145.65895,225.21288 173.31085,225.21288 173.31085,218.76645 250.31767,218.76645 	"/>
	<polyline class="st5" points="145.65895,225.21288 173.31085,225.21288 173.31085,218.76645 250.31767,218.76645 	"/>
	<polyline class="st2" points="145.65895,54.48519 208.26398,54.48519 208.26398,239.91032 250.31767,239.91032 	"/>
	<polyline class="st6" points="145.65895,54.21447 208.26398,54.21447 208.26398,239.91032 250.31767,239.91032 	"/>
	<polyline class="st2" points="146.03766,184.78436 234.91805,184.78436 234.91805,190.74799 250.31767,190.74799 	"/>
	<polyline class="st3" points="146.03766,184.78436 234.91805,184.78436 234.91805,190.74799 250.31767,190.74799 	"/>
	<rect x="7.53395" y="23.74223" class="st7" width="138.125" height="99.8255"/>
	<g>
		<rect x="113.63782" y="31.05065" class="st8" width="32.02113" height="15.16914"/>
		<rect x="100.29299" y="31.05065" class="st8" width="13.88585" height="30.22987"/>
	</g>
	<g>
		<rect x="114.34725" y="46.2198" class="st8" width="31.3117" height="15.16914"/>
		<rect x="113.63782" y="85.82391" class="st8" width="32.02113" height="15.16914"/>
		<rect x="100.29299" y="85.82391" class="st8" width="13.88585" height="30.22987"/>
		<rect x="114.34725" y="100.99306" class="st8" width="31.3117" height="15.16914"/>
	</g>
	<g>
		<g>
			<path class="st9" d="M130.53662,96.66439c-0.33545,0.28564-0.65869,0.48682-0.96924,0.60449
				c-0.31055,0.11719-0.64355,0.17578-0.99951,0.17578c-0.5874,0-1.03906-0.14307-1.35449-0.43018s-0.47314-0.65381-0.47314-1.1001
				c0-0.26221,0.05957-0.50098,0.17871-0.71777c0.11914-0.21631,0.27539-0.39014,0.46826-0.521s0.41064-0.22998,0.65234-0.29688
				c0.17773-0.04736,0.44629-0.09229,0.80518-0.13623c0.73193-0.0874,1.27051-0.19141,1.6167-0.31201
				c0.00293-0.12402,0.00488-0.20312,0.00488-0.23682c0-0.36914-0.08545-0.62939-0.25684-0.78027
				c-0.23145-0.20459-0.57568-0.30713-1.03223-0.30713c-0.42627,0-0.74121,0.07471-0.94385,0.22412
				c-0.20312,0.14941-0.35352,0.41357-0.45068,0.79297l-0.88623-0.12109c0.08057-0.37891,0.21289-0.68555,0.39746-0.91895
				c0.18457-0.23291,0.45166-0.4126,0.80078-0.53857s0.75342-0.18896,1.21338-0.18896c0.45654,0,0.82764,0.05371,1.11279,0.16113
				s0.49512,0.24268,0.62939,0.40527c0.13428,0.16309,0.22803,0.36865,0.28174,0.61719
				c0.03027,0.1543,0.04541,0.43262,0.04541,0.83545v1.2085c0,0.84277,0.01953,1.37549,0.05811,1.59863
				c0.03857,0.22363,0.11475,0.4375,0.229,0.64209h-0.94678C130.62402,97.13607,130.56348,96.91634,130.53662,96.66439z
				 M130.46143,94.64046c-0.3291,0.13428-0.82275,0.24854-1.48047,0.34229c-0.37256,0.05371-0.63623,0.11426-0.79053,0.18115
				c-0.1543,0.06738-0.27393,0.16553-0.35742,0.29443c-0.08398,0.12939-0.12598,0.27295-0.12598,0.43066
				c0,0.2417,0.09131,0.44336,0.27441,0.60449s0.45068,0.2417,0.80322,0.2417c0.34912,0,0.65967-0.07666,0.93115-0.22949
				c0.27197-0.15234,0.47168-0.36133,0.59912-0.62646c0.09766-0.20508,0.14648-0.50684,0.14648-0.90674V94.64046z"/>
		</g>
	</g>
	<g>
		<g>
			<path class="st9" d="M127.8833,111.99935h-0.84082V104.618h0.90625v2.6333c0.38281-0.47998,0.87109-0.72021,1.46533-0.72021
				c0.32861,0,0.64014,0.06641,0.93359,0.19922c0.29395,0.13232,0.53564,0.31885,0.7251,0.55859
				c0.18994,0.24023,0.33838,0.52979,0.4458,0.86865c0.10742,0.33936,0.16113,0.70166,0.16113,1.0874
				c0,0.9165-0.22656,1.62549-0.67969,2.12549s-0.99707,0.75-1.63135,0.75c-0.63135,0-1.12646-0.26367-1.48535-0.79004V111.99935z
				 M127.87305,109.28548c0,0.6416,0.0874,1.10449,0.26172,1.38965c0.28564,0.4668,0.67139,0.7002,1.1582,0.7002
				c0.396,0,0.73828-0.17188,1.02734-0.5166c0.28857-0.34375,0.43311-0.85645,0.43311-1.53809
				c0-0.69824-0.13867-1.21338-0.41553-1.5459c-0.27686-0.33203-0.61182-0.49805-1.00439-0.49805
				c-0.39648,0-0.73877,0.17188-1.02734,0.51562C128.01758,108.13656,127.87305,108.63412,127.87305,109.28548z"/>
		</g>
	</g>
	<g>
		<path class="st9" d="M42.96826,73.70638l0.97705,0.24658c-0.20459,0.80225-0.57324,1.41406-1.10547,1.83545
			c-0.53174,0.4209-1.18213,0.63184-1.95068,0.63184c-0.7959,0-1.44287-0.16211-1.94141-0.48584
			c-0.49805-0.32422-0.87744-0.79297-1.1377-1.40723s-0.39014-1.27393-0.39014-1.979c0-0.76855,0.14648-1.43896,0.44043-2.01172
			c0.29395-0.57227,0.71143-1.00684,1.25391-1.30371c0.54199-0.29736,1.13867-0.4458,1.79004-0.4458
			c0.73828,0,1.35938,0.18799,1.86279,0.56396s0.854,0.90479,1.05225,1.58594l-0.96143,0.22656
			c-0.17139-0.53711-0.41992-0.92822-0.74561-1.17285c-0.3252-0.24512-0.73486-0.36768-1.22852-0.36768
			c-0.56738,0-1.0415,0.13574-1.42236,0.40771s-0.64844,0.63721-0.80273,1.09521c-0.15479,0.45801-0.23193,0.93066-0.23193,1.41748
			c0,0.62744,0.09131,1.17578,0.27441,1.64404s0.46729,0.81787,0.85352,1.0498c0.38574,0.23145,0.80371,0.34717,1.25391,0.34717
			c0.54688,0,1.01025-0.15771,1.38965-0.47314C42.57715,74.79574,42.83398,74.32748,42.96826,73.70638z"/>
		<path class="st9" d="M44.69531,73.62045c0-0.98975,0.27539-1.72363,0.82568-2.2002c0.45996-0.396,1.02051-0.59424,1.68164-0.59424
			c0.73535,0,1.33643,0.24121,1.80273,0.72266c0.4668,0.48193,0.69971,1.14746,0.69971,1.99658
			c0,0.68799-0.10303,1.22949-0.30957,1.62354c-0.20605,0.39453-0.50684,0.70068-0.90137,0.91895
			c-0.39404,0.21826-0.82471,0.32715-1.2915,0.32715c-0.74854,0-1.35352-0.23975-1.81494-0.71973
			S44.69531,74.52377,44.69531,73.62045z M45.62695,73.62045c0,0.68506,0.14941,1.19775,0.44824,1.53857
			c0.29834,0.34082,0.67432,0.51074,1.12744,0.51074c0.4502,0,0.82422-0.1709,1.12305-0.51318
			c0.29883-0.34277,0.44824-0.86475,0.44824-1.56592c0-0.66162-0.15039-1.1626-0.45068-1.50342
			c-0.30029-0.34033-0.67383-0.51074-1.12061-0.51074c-0.45312,0-0.8291,0.16943-1.12744,0.5083
			C45.77637,72.42416,45.62695,72.93587,45.62695,73.62045z"/>
		<path class="st9" d="M50.76758,76.29427v-5.34717h0.81592v0.76025c0.39258-0.5874,0.95996-0.88135,1.70166-0.88135
			c0.32227,0,0.61865,0.05811,0.88867,0.17383s0.47266,0.26758,0.60693,0.45557c0.13379,0.18799,0.22803,0.41162,0.28174,0.66992
			c0.03369,0.16797,0.05029,0.46143,0.05029,0.88086v3.28809h-0.90625v-3.25244c0-0.36963-0.03516-0.64551-0.10547-0.82861
			c-0.0708-0.18262-0.1958-0.32861-0.37549-0.43799c-0.17969-0.10889-0.39014-0.16357-0.63184-0.16357
			c-0.38574,0-0.71924,0.12256-0.99951,0.36768s-0.42041,0.70996-0.42041,1.39453v2.92041H50.76758z"/>
		<path class="st9" d="M58.48145,75.48373l0.13086,0.80029c-0.25537,0.05371-0.4834,0.08057-0.68506,0.08057
			c-0.32861,0-0.58398-0.05176-0.76514-0.15576s-0.30908-0.24072-0.38281-0.41064c-0.07373-0.16943-0.11084-0.52588-0.11084-1.06982
			v-3.07617h-0.66455v-0.70508h0.66455v-1.32422l0.90137-0.54395v1.86816h0.91162v0.70508h-0.91162v3.12646
			c0,0.25879,0.01611,0.4248,0.04785,0.49854s0.08398,0.13281,0.15625,0.17627s0.17529,0.06543,0.30957,0.06543
			C58.18408,75.51888,58.31689,75.50716,58.48145,75.48373z"/>
		<path class="st9" d="M59.35742,76.29427v-5.34717h0.81592v0.81055c0.20801-0.37939,0.40039-0.62939,0.57666-0.75
			c0.17627-0.12109,0.37012-0.18164,0.58154-0.18164c0.30518,0,0.61572,0.09766,0.93115,0.29199l-0.31201,0.84131
			c-0.22168-0.13135-0.44287-0.19678-0.66455-0.19678c-0.19824,0-0.37598,0.05957-0.53369,0.17871
			c-0.15771,0.11963-0.27051,0.28467-0.3374,0.49609c-0.10059,0.32227-0.15088,0.6748-0.15088,1.05762v2.79932H59.35742z"/>
		<path class="st9" d="M62.46387,73.62045c0-0.98975,0.27539-1.72363,0.82568-2.2002c0.45996-0.396,1.02051-0.59424,1.68164-0.59424
			c0.73535,0,1.33643,0.24121,1.80273,0.72266c0.4668,0.48193,0.69971,1.14746,0.69971,1.99658
			c0,0.68799-0.10303,1.22949-0.30957,1.62354c-0.20605,0.39453-0.50684,0.70068-0.90137,0.91895
			c-0.39404,0.21826-0.82471,0.32715-1.2915,0.32715c-0.74854,0-1.35352-0.23975-1.81494-0.71973
			S62.46387,74.52377,62.46387,73.62045z M63.39551,73.62045c0,0.68506,0.14941,1.19775,0.44824,1.53857
			c0.29834,0.34082,0.67432,0.51074,1.12744,0.51074c0.4502,0,0.82422-0.1709,1.12305-0.51318
			c0.29883-0.34277,0.44824-0.86475,0.44824-1.56592c0-0.66162-0.15039-1.1626-0.45068-1.50342
			c-0.30029-0.34033-0.67383-0.51074-1.12061-0.51074c-0.45312,0-0.8291,0.16943-1.12744,0.5083
			C63.54492,72.42416,63.39551,72.93587,63.39551,73.62045z"/>
		<path class="st9" d="M68.5166,76.29427v-7.38135h0.90625v7.38135H68.5166z"/>
		<path class="st9" d="M70.80713,76.29427v-7.38135h0.90625v7.38135H70.80713z"/>
		<path class="st9" d="M76.77881,74.57211l0.93652,0.11621c-0.14795,0.54688-0.42139,0.97168-0.8208,1.27344
			c-0.39941,0.30225-0.90967,0.45312-1.53076,0.45312c-0.78223,0-1.40234-0.24072-1.86035-0.72217
			c-0.45801-0.48193-0.6875-1.15723-0.6875-2.02686c0-0.89941,0.23193-1.59766,0.69482-2.09424
			c0.46338-0.49707,1.06445-0.74561,1.80273-0.74561c0.71484,0,1.29883,0.24365,1.75244,0.73047
			c0.45312,0.48633,0.67969,1.17139,0.67969,2.0542c0,0.05371-0.00195,0.13428-0.00537,0.2417h-3.98779
			c0.03369,0.5874,0.19971,1.03711,0.49854,1.34912c0.29883,0.3125,0.67139,0.46826,1.11768,0.46826
			c0.33252,0,0.61621-0.08691,0.85107-0.26172C76.45459,75.23373,76.64111,74.95492,76.77881,74.57211z M73.80322,73.10726h2.98535
			c-0.04004-0.4502-0.1543-0.78711-0.34229-1.01221c-0.28857-0.34912-0.66309-0.52344-1.12256-0.52344
			c-0.4165,0-0.76611,0.13916-1.0498,0.41748C73.99023,72.26791,73.83301,72.64046,73.80322,73.10726z"/>
		<path class="st9" d="M78.84277,76.29427v-5.34717h0.81592v0.81055c0.20801-0.37939,0.40039-0.62939,0.57666-0.75
			c0.17627-0.12109,0.37012-0.18164,0.58154-0.18164c0.30518,0,0.61572,0.09766,0.93115,0.29199l-0.31201,0.84131
			c-0.22168-0.13135-0.44287-0.19678-0.66455-0.19678c-0.19824,0-0.37598,0.05957-0.53369,0.17871
			c-0.15771,0.11963-0.27051,0.28467-0.3374,0.49609c-0.10059,0.32227-0.15088,0.6748-0.15088,1.05762v2.79932H78.84277z"/>
		<path class="st9" d="M83.88818,76.29427l2.83496-7.38135h1.05225l3.021,7.38135h-1.11279l-0.86084-2.23535h-3.08643
			l-0.81104,2.23535H83.88818z M86.01807,73.26302h2.50244L87.75,71.21908c-0.23486-0.62109-0.40967-1.13135-0.52344-1.53076
			C87.13232,70.16146,87,70.63168,86.82861,71.09798L86.01807,73.26302z"/>
	</g>
	<g>
		<rect x="7.53395" y="154.52483" class="st7" width="138.125" height="99.8255"/>
		<g>
			<g>
				<g>
					<path class="st9" d="M108.21484,54.90072l-0.05957-0.61621c0.27441-0.0293,0.49951-0.09717,0.67529-0.2041
						c0.17627-0.10645,0.31836-0.27197,0.42676-0.49658c0.10889-0.22461,0.16309-0.47754,0.16309-0.7583
						c0-0.24902-0.0415-0.46924-0.12354-0.66016c-0.08252-0.19092-0.19531-0.33301-0.33887-0.42627s-0.2998-0.13965-0.46973-0.13965
						c-0.17236,0-0.32275,0.04492-0.45117,0.13477s-0.23633,0.23779-0.32373,0.44482
						c-0.05713,0.13232-0.14648,0.42529-0.26758,0.87891s-0.23535,0.77148-0.34229,0.95361
						c-0.13721,0.23584-0.30762,0.41162-0.51123,0.52734c-0.20312,0.11572-0.43115,0.17334-0.68311,0.17334
						c-0.27686,0-0.53564-0.0708-0.77686-0.2124c-0.24072-0.1416-0.42334-0.34814-0.54834-0.61963
						c-0.12451-0.27197-0.18701-0.57373-0.18701-0.90625c0-0.36621,0.06543-0.68896,0.19678-0.96875
						c0.13086-0.2793,0.32373-0.49463,0.57812-0.64502s0.54297-0.23145,0.86475-0.24268l0.05225,0.62695
						c-0.34668,0.03369-0.60889,0.14746-0.78613,0.3418s-0.26562,0.48096-0.26562,0.86084
						c0,0.39502,0.08057,0.68311,0.24121,0.86377c0.16113,0.18115,0.35498,0.27148,0.58203,0.27148
						c0.19727,0,0.35938-0.06396,0.48682-0.19238c0.12744-0.12549,0.25781-0.4541,0.39111-0.98535
						c0.13379-0.53076,0.25049-0.89551,0.3501-1.09277c0.14746-0.2876,0.3335-0.5,0.55957-0.63672
						c0.22607-0.13721,0.48584-0.20557,0.78027-0.20557c0.29199,0,0.56738,0.0752,0.82568,0.22559s0.45898,0.3667,0.60254,0.64844
						s0.21533,0.59912,0.21533,0.95166c0,0.44727-0.07275,0.82178-0.21729,1.12354c-0.14453,0.30225-0.3623,0.53906-0.65332,0.71094
						C108.91064,54.8016,108.58203,54.89193,108.21484,54.90072z"/>
					<path class="st9" d="M109.97803,50.16781h-5.4873v-0.60645h5.4873V50.16781z"/>
					<path class="st9" d="M107.99023,48.84701c-0.73584,0-1.28125-0.18408-1.63574-0.55273
						c-0.29443-0.30762-0.44141-0.68262-0.44141-1.125c0-0.4917,0.1792-0.89404,0.53711-1.20605s0.85254-0.46826,1.48389-0.46826
						c0.51172,0,0.91406,0.06885,1.20752,0.20703c0.29297,0.13818,0.521,0.33936,0.68311,0.60303
						c0.16211,0.26416,0.24316,0.55225,0.24316,0.86426c0,0.50098-0.17822,0.90576-0.53516,1.21436
						C109.17578,48.69271,108.66162,48.84701,107.99023,48.84701z M107.99023,48.22347c0.50928,0,0.89062-0.09961,1.14355-0.2998
						c0.25342-0.19971,0.37988-0.45117,0.37988-0.75439c0-0.30078-0.12695-0.55127-0.38184-0.75146
						c-0.25439-0.19971-0.64209-0.2998-1.16406-0.2998c-0.49121,0-0.86377,0.10059-1.11719,0.30176
						s-0.37988,0.45068-0.37988,0.74951c0,0.30322,0.12598,0.55469,0.37793,0.75439
						C107.10107,48.12386,107.48145,48.22347,107.99023,48.22347z"/>
					<path class="st9" d="M109.37549,43.46029l0.59521-0.0874c0.03955,0.17041,0.05957,0.32324,0.05957,0.45801
						c0,0.22021-0.03857,0.39062-0.11572,0.51221c-0.07764,0.12109-0.1792,0.20654-0.30518,0.25586
						s-0.39111,0.07422-0.79541,0.07422h-2.28711V45.118h-0.52393v-0.44482h-0.98438l-0.4043-0.60303h1.38867v-0.60986h0.52393
						v0.60986h2.32471c0.19189,0,0.31543-0.01074,0.37012-0.03223c0.05518-0.021,0.09863-0.05615,0.13135-0.104
						c0.03223-0.04834,0.04834-0.11768,0.04834-0.20752C109.40137,43.65902,109.39307,43.57064,109.37549,43.46029z"/>
					<path class="st9" d="M109.33057,37.93246h0.64746v3.26416c-0.16211,0.00488-0.31836-0.01904-0.46777-0.0708
						c-0.24707-0.08301-0.49023-0.21582-0.72998-0.39893s-0.5166-0.44775-0.83105-0.79346
						c-0.48926-0.53662-0.87646-0.89941-1.16211-1.08789c-0.28564-0.18896-0.55615-0.2832-0.81055-0.2832
						c-0.26709,0-0.49219,0.08594-0.67578,0.25781c-0.18311,0.17188-0.2749,0.39551-0.2749,0.67188
						c0,0.29199,0.09717,0.52539,0.29199,0.70068s0.46387,0.26416,0.80859,0.26611l-0.07129,0.62354
						c-0.5166-0.04297-0.91016-0.20361-1.18066-0.48193c-0.271-0.27832-0.40625-0.65234-0.40625-1.12158
						c0-0.47412,0.146-0.84912,0.43799-1.12549s0.65381-0.41406,1.08545-0.41406c0.21973,0,0.43555,0.04004,0.64746,0.12109
						s0.43555,0.21484,0.66992,0.40234c0.23486,0.18799,0.55664,0.49951,0.96582,0.93506
						c0.33936,0.36377,0.56982,0.59766,0.69043,0.70068c0.12109,0.10352,0.24268,0.18848,0.36523,0.25586V37.93246z"/>
				</g>
			</g>
		</g>
	</g>
	<g>
		<path class="st9" d="M42.39941,207.70834l0.97705,0.24707c-0.20459,0.80176-0.57324,1.41406-1.10547,1.83496
			c-0.53174,0.4209-1.18213,0.63184-1.95068,0.63184c-0.7959,0-1.44287-0.16211-1.94141-0.48633
			c-0.49805-0.32324-0.87744-0.79297-1.1377-1.40723s-0.39014-1.27344-0.39014-1.97852c0-0.76855,0.14648-1.43945,0.44043-2.01172
			s0.71143-1.00684,1.25391-1.30371c0.54199-0.29688,1.13867-0.44531,1.79004-0.44531c0.73828,0,1.35938,0.1875,1.86279,0.56348
			s0.854,0.9043,1.05225,1.58594l-0.96143,0.22656c-0.17139-0.53711-0.41992-0.92773-0.74561-1.17285
			c-0.3252-0.24512-0.73486-0.36816-1.22852-0.36816c-0.56738,0-1.0415,0.13672-1.42236,0.4082s-0.64844,0.63672-0.80273,1.09473
			c-0.15479,0.45898-0.23193,0.93066-0.23193,1.41797c0,0.62793,0.09131,1.17578,0.27441,1.64355
			c0.18311,0.46875,0.46729,0.81836,0.85352,1.0498c0.38574,0.23145,0.80371,0.34766,1.25391,0.34766
			c0.54688,0,1.01025-0.1582,1.38965-0.47363C42.0083,208.79721,42.26514,208.32944,42.39941,207.70834z"/>
		<path class="st9" d="M44.12646,207.62241c0-0.99023,0.27539-1.72363,0.82568-2.2002
			c0.45996-0.39551,1.02051-0.59375,1.68164-0.59375c0.73535,0,1.33643,0.24023,1.80273,0.72266
			c0.4668,0.48145,0.69971,1.14648,0.69971,1.99609c0,0.68848-0.10303,1.22949-0.30957,1.62402
			c-0.20605,0.39453-0.50684,0.7002-0.90137,0.91895c-0.39404,0.21777-0.82471,0.32715-1.2915,0.32715
			c-0.74854,0-1.35352-0.24023-1.81494-0.7207C44.35742,209.21713,44.12646,208.52573,44.12646,207.62241z M45.05811,207.62241
			c0,0.68457,0.14941,1.19824,0.44824,1.53809c0.29834,0.34082,0.67432,0.51172,1.12744,0.51172
			c0.4502,0,0.82422-0.17188,1.12305-0.51367c0.29883-0.34277,0.44824-0.86426,0.44824-1.56641
			c0-0.66113-0.15039-1.16211-0.45068-1.50293s-0.67383-0.51074-1.12061-0.51074c-0.45312,0-0.8291,0.16992-1.12744,0.50879
			C45.20752,206.42612,45.05811,206.93784,45.05811,207.62241z"/>
		<path class="st9" d="M50.19873,210.29623v-5.34766h0.81592v0.76074c0.39258-0.58789,0.95996-0.88086,1.70166-0.88086
			c0.32227,0,0.61865,0.05762,0.88867,0.17383c0.27002,0.11523,0.47266,0.26758,0.60693,0.45508
			c0.13379,0.18848,0.22803,0.41113,0.28174,0.66992c0.03369,0.16797,0.05029,0.46191,0.05029,0.88086v3.28809H53.6377v-3.25293
			c0-0.36914-0.03516-0.64453-0.10547-0.82812c-0.0708-0.18262-0.1958-0.3291-0.37549-0.4375
			c-0.17969-0.10938-0.39014-0.16406-0.63184-0.16406c-0.38574,0-0.71924,0.12305-0.99951,0.36719
			c-0.28027,0.24512-0.42041,0.70996-0.42041,1.39551v2.91992H50.19873z"/>
		<path class="st9" d="M57.9126,209.48569l0.13086,0.80078c-0.25537,0.05371-0.4834,0.08008-0.68506,0.08008
			c-0.32861,0-0.58398-0.05176-0.76514-0.15625c-0.18115-0.10352-0.30908-0.24023-0.38281-0.41016
			c-0.07373-0.16895-0.11084-0.52637-0.11084-1.06934v-3.07715h-0.66455v-0.70508h0.66455v-1.32422l0.90137-0.54297v1.86719h0.91162
			v0.70508h-0.91162v3.12695c0,0.25879,0.01611,0.4248,0.04785,0.49902c0.03174,0.07324,0.08398,0.13184,0.15625,0.17578
			s0.17529,0.06543,0.30957,0.06543C57.61523,209.52084,57.74805,209.50912,57.9126,209.48569z"/>
		<path class="st9" d="M58.78857,210.29623v-5.34766h0.81592v0.81152c0.20801-0.37988,0.40039-0.62988,0.57666-0.75098
			c0.17627-0.12012,0.37012-0.18066,0.58154-0.18066c0.30518,0,0.61572,0.09668,0.93115,0.29199l-0.31201,0.84082
			c-0.22168-0.13086-0.44287-0.19629-0.66455-0.19629c-0.19824,0-0.37598,0.05957-0.53369,0.17871s-0.27051,0.28418-0.3374,0.49609
			c-0.10059,0.32227-0.15088,0.67383-0.15088,1.05664v2.7998H58.78857z"/>
		<path class="st9" d="M61.89502,207.62241c0-0.99023,0.27539-1.72363,0.82568-2.2002
			c0.45996-0.39551,1.02051-0.59375,1.68164-0.59375c0.73535,0,1.33643,0.24023,1.80273,0.72266
			c0.4668,0.48145,0.69971,1.14648,0.69971,1.99609c0,0.68848-0.10303,1.22949-0.30957,1.62402
			c-0.20605,0.39453-0.50684,0.7002-0.90137,0.91895c-0.39404,0.21777-0.82471,0.32715-1.2915,0.32715
			c-0.74854,0-1.35352-0.24023-1.81494-0.7207C62.12598,209.21713,61.89502,208.52573,61.89502,207.62241z M62.82666,207.62241
			c0,0.68457,0.14941,1.19824,0.44824,1.53809c0.29834,0.34082,0.67432,0.51172,1.12744,0.51172
			c0.4502,0,0.82422-0.17188,1.12305-0.51367c0.29883-0.34277,0.44824-0.86426,0.44824-1.56641
			c0-0.66113-0.15039-1.16211-0.45068-1.50293s-0.67383-0.51074-1.12061-0.51074c-0.45312,0-0.8291,0.16992-1.12744,0.50879
			C62.97607,206.42612,62.82666,206.93784,62.82666,207.62241z"/>
		<path class="st9" d="M67.94775,210.29623v-7.38184H68.854v7.38184H67.94775z"/>
		<path class="st9" d="M70.23828,210.29623v-7.38184h0.90625v7.38184H70.23828z"/>
		<path class="st9" d="M76.20996,208.57455l0.93652,0.11523c-0.14795,0.54785-0.42139,0.97168-0.8208,1.27441
			c-0.39941,0.30176-0.90967,0.45312-1.53076,0.45312c-0.78223,0-1.40234-0.24121-1.86035-0.72266s-0.6875-1.15723-0.6875-2.02637
			c0-0.90039,0.23193-1.59863,0.69482-2.09473c0.46338-0.49707,1.06445-0.74512,1.80273-0.74512
			c0.71484,0,1.29883,0.24316,1.75244,0.72949c0.45312,0.4873,0.67969,1.17188,0.67969,2.05469
			c0,0.05371-0.00195,0.13379-0.00537,0.24121h-3.98779c0.03369,0.58789,0.19971,1.03809,0.49854,1.34961
			c0.29883,0.3125,0.67139,0.46875,1.11768,0.46875c0.33252,0,0.61621-0.08789,0.85107-0.26172
			C75.88574,209.23569,76.07227,208.95737,76.20996,208.57455z M73.23438,207.10873h2.98535
			c-0.04004-0.44922-0.1543-0.78711-0.34229-1.01172c-0.28857-0.34863-0.66309-0.52344-1.12256-0.52344
			c-0.4165,0-0.76611,0.13867-1.0498,0.41797C73.42139,206.26987,73.26416,206.64291,73.23438,207.10873z"/>
		<path class="st9" d="M78.27393,210.29623v-5.34766h0.81592v0.81152c0.20801-0.37988,0.40039-0.62988,0.57666-0.75098
			c0.17627-0.12012,0.37012-0.18066,0.58154-0.18066c0.30518,0,0.61572,0.09668,0.93115,0.29199l-0.31201,0.84082
			c-0.22168-0.13086-0.44287-0.19629-0.66455-0.19629c-0.19824,0-0.37598,0.05957-0.53369,0.17871s-0.27051,0.28418-0.3374,0.49609
			c-0.10059,0.32227-0.15088,0.67383-0.15088,1.05664v2.7998H78.27393z"/>
		<path class="st9" d="M84.65918,210.29623v-7.38184h2.76904c0.56396,0,1.01611,0.0752,1.35693,0.22461
			s0.60742,0.37891,0.80078,0.68945c0.19287,0.31055,0.28955,0.63574,0.28955,0.97461c0,0.31543-0.08545,0.6123-0.25684,0.89062
			c-0.17139,0.2793-0.42969,0.50391-0.77539,0.6748c0.44629,0.13086,0.78955,0.35449,1.02979,0.66992
			c0.23975,0.31543,0.35986,0.68848,0.35986,1.11816c0,0.3457-0.07324,0.66699-0.21924,0.96387s-0.32617,0.52637-0.54102,0.6875
			s-0.48438,0.28223-0.80811,0.36523c-0.32422,0.08203-0.72119,0.12305-1.19092,0.12305H84.65918z M85.63574,206.01596h1.59619
			c0.43311,0,0.74365-0.02832,0.93164-0.08496c0.24805-0.07422,0.43555-0.19629,0.56152-0.36816
			c0.12549-0.1709,0.18848-0.38574,0.18848-0.64453c0-0.24414-0.05859-0.45996-0.17627-0.64648
			c-0.11719-0.18652-0.28516-0.31348-0.50342-0.38281c-0.21826-0.06836-0.59229-0.10352-1.12256-0.10352h-1.47559V206.01596z
			 M85.63574,209.42514h1.83789c0.31543,0,0.53711-0.01172,0.66455-0.03516c0.2251-0.04004,0.41309-0.10742,0.56396-0.20117
			c0.15137-0.09375,0.27539-0.23145,0.37256-0.41113c0.09766-0.17871,0.146-0.38672,0.146-0.62109
			c0-0.27539-0.07031-0.51465-0.21143-0.71777s-0.33643-0.3457-0.58643-0.42773s-0.61035-0.12402-1.08008-0.12402h-1.70703
			V209.42514z"/>
	</g>
	<g>
		<rect x="250.31767" y="154.84447" class="st7" width="102.18329" height="99.8255"/>
		<g>
			<g>
				<g>
					<rect x="250.31767" y="163.74527" class="st10" width="32.02113" height="11.7177"/>
					<g>
						<path class="st9" d="M262.33691,171.431l0.93652,0.11523c-0.14746,0.54785-0.4209,0.97168-0.82031,1.27441
							c-0.39941,0.30176-0.91016,0.45312-1.53027,0.45312c-0.78223,0-1.40234-0.24121-1.86133-0.72266
							c-0.45801-0.48145-0.68652-1.15723-0.68652-2.02637c0-0.90039,0.23145-1.59863,0.69434-2.09473
							c0.46387-0.49707,1.06445-0.74512,1.80273-0.74512c0.71484,0,1.29883,0.24316,1.75195,0.72949
							c0.45312,0.4873,0.67969,1.17188,0.67969,2.05469c0,0.05371-0.00098,0.13379-0.00488,0.24121h-3.9873
							c0.0332,0.58789,0.19922,1.03809,0.49805,1.34961c0.29883,0.3125,0.67188,0.46875,1.11816,0.46875
							c0.33203,0,0.61523-0.08789,0.85059-0.26172C262.01367,172.09213,262.19922,171.81381,262.33691,171.431z
							 M259.36133,169.96518h2.98633c-0.04102-0.44922-0.1543-0.78711-0.34277-1.01172
							c-0.28906-0.34863-0.66309-0.52344-1.12305-0.52344c-0.41602,0-0.76562,0.13867-1.0498,0.41797
							C259.54883,169.12631,259.3916,169.49936,259.36133,169.96518z"/>
						<path class="st9" d="M264.16016,169.51205c0-0.87207,0.08984-1.5752,0.26953-2.10645
							c0.17969-0.53223,0.44629-0.94238,0.80078-1.23145c0.35352-0.28906,0.7998-0.43262,1.33691-0.43262
							c0.39551,0,0.74316,0.0791,1.04199,0.23828c0.29883,0.16016,0.5459,0.38965,0.74023,0.69043
							c0.19434,0.2998,0.34766,0.66602,0.45801,1.09766c0.11133,0.43066,0.16602,1.0127,0.16602,1.74414
							c0,0.86621-0.08887,1.56543-0.2666,2.09766s-0.44434,0.94336-0.79785,1.2334c-0.35449,0.29004-0.80176,0.43555-1.3418,0.43555
							c-0.71191,0-1.27051-0.25488-1.67676-0.76562C264.40332,171.89877,264.16016,170.89877,264.16016,169.51205z
							 M265.0918,169.51205c0,1.21191,0.1416,2.01855,0.42578,2.41992c0.2832,0.40039,0.63379,0.60156,1.0498,0.60156
							s0.76562-0.20117,1.0498-0.60449c0.2832-0.40234,0.4248-1.20801,0.4248-2.41699c0-1.21484-0.1416-2.02246-0.4248-2.42188
							c-0.28418-0.39941-0.63672-0.59863-1.06055-0.59863c-0.41602,0-0.74805,0.17578-0.99609,0.52832
							C265.24805,167.47006,265.0918,168.30014,265.0918,169.51205z"/>
						<path class="st9" d="M273.63574,172.4935c-0.33594,0.28516-0.65918,0.48633-0.96875,0.60352
							c-0.31055,0.11816-0.64453,0.17676-1,0.17676c-0.58691,0-1.03906-0.14355-1.35449-0.43066s-0.47266-0.65332-0.47266-1.10059
							c0-0.26172,0.05957-0.50098,0.17871-0.7168c0.11914-0.2168,0.27441-0.39062,0.46777-0.52148s0.41016-0.22949,0.65234-0.29688
							c0.17773-0.04688,0.44629-0.09277,0.80566-0.13574c0.73145-0.08789,1.27051-0.19141,1.61621-0.3125
							c0.00293-0.12402,0.00488-0.20312,0.00488-0.23633c0-0.36914-0.08594-0.62988-0.25684-0.78125
							c-0.23145-0.2041-0.57617-0.30664-1.03223-0.30664c-0.42676,0-0.74121,0.07422-0.94434,0.22363
							s-0.35352,0.41406-0.4502,0.79297l-0.88672-0.12012c0.08105-0.37988,0.21387-0.68555,0.39844-0.91895
							s0.45117-0.41309,0.7998-0.53906c0.34961-0.12598,0.75391-0.18848,1.21387-0.18848c0.45605,0,0.82715,0.05371,1.11328,0.16113
							c0.28516,0.10742,0.49414,0.24219,0.62891,0.40527c0.13379,0.16211,0.22852,0.36816,0.28223,0.61621
							c0.03027,0.1543,0.04492,0.43359,0.04492,0.83594v1.20898c0,0.8418,0.01953,1.375,0.05762,1.59863
							c0.03906,0.22266,0.11523,0.43652,0.22949,0.6416h-0.94629C273.72266,172.96518,273.66309,172.74448,273.63574,172.4935z
							 M273.56055,170.46909c-0.3291,0.13379-0.82227,0.24805-1.48047,0.34277c-0.37305,0.05371-0.63574,0.11328-0.79102,0.18066
							c-0.1543,0.06738-0.27344,0.16504-0.35742,0.29492c-0.08398,0.12891-0.12598,0.27246-0.12598,0.43066
							c0,0.24121,0.0918,0.44238,0.27441,0.60352c0.18359,0.16113,0.45117,0.24219,0.80371,0.24219
							c0.34863,0,0.65918-0.07617,0.93164-0.22949c0.27148-0.15234,0.47168-0.36133,0.59863-0.62695
							c0.09766-0.2041,0.14648-0.50684,0.14648-0.90625V170.46909z"/>
					</g>
				</g>
			</g>
			<g>
				<g>
					<rect x="250.31767" y="184.88913" class="st10" width="32.02113" height="11.7177"/>
					<g>
						<path class="st9" d="M262.33691,192.57455l0.93652,0.11523c-0.14746,0.54785-0.4209,0.97168-0.82031,1.27441
							c-0.39941,0.30176-0.91016,0.45312-1.53027,0.45312c-0.78223,0-1.40234-0.24121-1.86133-0.72266
							c-0.45801-0.48145-0.68652-1.15723-0.68652-2.02637c0-0.90039,0.23145-1.59863,0.69434-2.09473
							c0.46387-0.49707,1.06445-0.74512,1.80273-0.74512c0.71484,0,1.29883,0.24316,1.75195,0.72949
							c0.45312,0.4873,0.67969,1.17188,0.67969,2.05469c0,0.05371-0.00098,0.13379-0.00488,0.24121h-3.9873
							c0.0332,0.58789,0.19922,1.03809,0.49805,1.34961c0.29883,0.3125,0.67188,0.46875,1.11816,0.46875
							c0.33203,0,0.61523-0.08789,0.85059-0.26172C262.01367,193.23569,262.19922,192.95737,262.33691,192.57455z
							 M259.36133,191.10873h2.98633c-0.04102-0.44922-0.1543-0.78711-0.34277-1.01172
							c-0.28906-0.34863-0.66309-0.52344-1.12305-0.52344c-0.41602,0-0.76562,0.13867-1.0498,0.41797
							C259.54883,190.26987,259.3916,190.64291,259.36133,191.10873z"/>
						<path class="st9" d="M264.16016,190.65561c0-0.87207,0.08984-1.5752,0.26953-2.10645
							c0.17969-0.53223,0.44629-0.94238,0.80078-1.23145c0.35352-0.28906,0.7998-0.43262,1.33691-0.43262
							c0.39551,0,0.74316,0.0791,1.04199,0.23828c0.29883,0.16016,0.5459,0.38965,0.74023,0.69043
							c0.19434,0.2998,0.34766,0.66602,0.45801,1.09766c0.11133,0.43066,0.16602,1.0127,0.16602,1.74414
							c0,0.86621-0.08887,1.56543-0.2666,2.09766s-0.44434,0.94336-0.79785,1.2334c-0.35449,0.29004-0.80176,0.43555-1.3418,0.43555
							c-0.71191,0-1.27051-0.25488-1.67676-0.76562C264.40332,193.04233,264.16016,192.04233,264.16016,190.65561z
							 M265.0918,190.65561c0,1.21191,0.1416,2.01855,0.42578,2.41992c0.2832,0.40039,0.63379,0.60156,1.0498,0.60156
							s0.76562-0.20117,1.0498-0.60449c0.2832-0.40234,0.4248-1.20801,0.4248-2.41699c0-1.21484-0.1416-2.02246-0.4248-2.42188
							c-0.28418-0.39941-0.63672-0.59863-1.06055-0.59863c-0.41602,0-0.74805,0.17578-0.99609,0.52832
							C265.24805,188.61362,265.0918,189.4437,265.0918,190.65561z"/>
						<path class="st9" d="M270.98242,194.29623h-0.84082v-7.38184h0.90625v2.63379
							c0.38281-0.48047,0.87109-0.71973,1.46484-0.71973c0.3291,0,0.64062,0.06641,0.93457,0.19824
							c0.29297,0.13281,0.53516,0.31934,0.72461,0.55957c0.18945,0.23926,0.33789,0.5293,0.44531,0.86816
							s0.16113,0.70117,0.16113,1.08789c0,0.91602-0.22656,1.62402-0.67969,2.125c-0.45312,0.5-0.99609,0.75-1.63086,0.75
							c-0.63086,0-1.12598-0.26367-1.48535-0.79102V194.29623z M270.97266,191.58237c0,0.6416,0.08691,1.10449,0.26172,1.38965
							c0.28516,0.4668,0.6709,0.7002,1.1582,0.7002c0.39551,0,0.73828-0.17188,1.02637-0.5166
							c0.28906-0.34375,0.43359-0.85645,0.43359-1.53809c0-0.69824-0.13867-1.21387-0.41602-1.5459
							c-0.27637-0.33203-0.61133-0.49805-1.00391-0.49805c-0.39648,0-0.73828,0.17188-1.02734,0.51562
							C271.11621,190.43393,270.97266,190.931,270.97266,191.58237z"/>
					</g>
				</g>
			</g>
			<g>
				<g>
					<rect x="250.31767" y="212.90761" class="st10" width="32.02113" height="11.7177"/>
					<g>
						<path class="st9" d="M262.33691,220.59311l0.93652,0.11523c-0.14746,0.54785-0.4209,0.97168-0.82031,1.27441
							c-0.39941,0.30176-0.91016,0.45312-1.53027,0.45312c-0.78223,0-1.40234-0.24121-1.86133-0.72266
							c-0.45801-0.48145-0.68652-1.15723-0.68652-2.02637c0-0.90039,0.23145-1.59863,0.69434-2.09473
							c0.46387-0.49707,1.06445-0.74512,1.80273-0.74512c0.71484,0,1.29883,0.24316,1.75195,0.72949
							c0.45312,0.4873,0.67969,1.17188,0.67969,2.05469c0,0.05371-0.00098,0.13379-0.00488,0.24121h-3.9873
							c0.0332,0.58789,0.19922,1.03809,0.49805,1.34961c0.29883,0.3125,0.67188,0.46875,1.11816,0.46875
							c0.33203,0,0.61523-0.08789,0.85059-0.26172C262.01367,221.25424,262.19922,220.97592,262.33691,220.59311z
							 M259.36133,219.12729h2.98633c-0.04102-0.44922-0.1543-0.78711-0.34277-1.01172
							c-0.28906-0.34863-0.66309-0.52344-1.12305-0.52344c-0.41602,0-0.76562,0.13867-1.0498,0.41797
							C259.54883,218.28842,259.3916,218.66147,259.36133,219.12729z"/>
						<path class="st9" d="M264.16016,218.67416c0-0.87207,0.08984-1.5752,0.26953-2.10645
							c0.17969-0.53223,0.44629-0.94238,0.80078-1.23145c0.35352-0.28906,0.7998-0.43262,1.33691-0.43262
							c0.39551,0,0.74316,0.0791,1.04199,0.23828c0.29883,0.16016,0.5459,0.38965,0.74023,0.69043
							c0.19434,0.2998,0.34766,0.66602,0.45801,1.09766c0.11133,0.43066,0.16602,1.0127,0.16602,1.74414
							c0,0.86621-0.08887,1.56543-0.2666,2.09766s-0.44434,0.94336-0.79785,1.2334c-0.35449,0.29004-0.80176,0.43555-1.3418,0.43555
							c-0.71191,0-1.27051-0.25488-1.67676-0.76562C264.40332,221.06088,264.16016,220.06088,264.16016,218.67416z
							 M265.0918,218.67416c0,1.21191,0.1416,2.01855,0.42578,2.41992c0.2832,0.40039,0.63379,0.60156,1.0498,0.60156
							s0.76562-0.20117,1.0498-0.60449c0.2832-0.40234,0.4248-1.20801,0.4248-2.41699c0-1.21484-0.1416-2.02246-0.4248-2.42188
							c-0.28418-0.39941-0.63672-0.59863-1.06055-0.59863c-0.41602,0-0.74805,0.17578-0.99609,0.52832
							C265.24805,216.63217,265.0918,217.46225,265.0918,218.67416z"/>
						<path class="st9" d="M273.63574,221.65561c-0.33594,0.28516-0.65918,0.48633-0.96875,0.60352
							c-0.31055,0.11816-0.64453,0.17676-1,0.17676c-0.58691,0-1.03906-0.14355-1.35449-0.43066s-0.47266-0.65332-0.47266-1.10059
							c0-0.26172,0.05957-0.50098,0.17871-0.7168c0.11914-0.2168,0.27441-0.39062,0.46777-0.52148s0.41016-0.22949,0.65234-0.29688
							c0.17773-0.04688,0.44629-0.09277,0.80566-0.13574c0.73145-0.08789,1.27051-0.19141,1.61621-0.3125
							c0.00293-0.12402,0.00488-0.20312,0.00488-0.23633c0-0.36914-0.08594-0.62988-0.25684-0.78125
							c-0.23145-0.2041-0.57617-0.30664-1.03223-0.30664c-0.42676,0-0.74121,0.07422-0.94434,0.22363
							s-0.35352,0.41406-0.4502,0.79297l-0.88672-0.12012c0.08105-0.37988,0.21387-0.68555,0.39844-0.91895
							s0.45117-0.41309,0.7998-0.53906c0.34961-0.12598,0.75391-0.18848,1.21387-0.18848c0.45605,0,0.82715,0.05371,1.11328,0.16113
							c0.28516,0.10742,0.49414,0.24219,0.62891,0.40527c0.13379,0.16211,0.22852,0.36816,0.28223,0.61621
							c0.03027,0.1543,0.04492,0.43359,0.04492,0.83594v1.20898c0,0.8418,0.01953,1.375,0.05762,1.59863
							c0.03906,0.22266,0.11523,0.43652,0.22949,0.6416h-0.94629C273.72266,222.12729,273.66309,221.90659,273.63574,221.65561z
							 M273.56055,219.6312c-0.3291,0.13379-0.82227,0.24805-1.48047,0.34277c-0.37305,0.05371-0.63574,0.11328-0.79102,0.18066
							c-0.1543,0.06738-0.27344,0.16504-0.35742,0.29492c-0.08398,0.12891-0.12598,0.27246-0.12598,0.43066
							c0,0.24121,0.0918,0.44238,0.27441,0.60352c0.18359,0.16113,0.45117,0.24219,0.80371,0.24219
							c0.34863,0,0.65918-0.07617,0.93164-0.22949c0.27148-0.15234,0.47168-0.36133,0.59863-0.62695
							c0.09766-0.2041,0.14648-0.50684,0.14648-0.90625V219.6312z"/>
					</g>
				</g>
			</g>
			<g>
				<g>
					<rect x="250.31767" y="234.05147" class="st10" width="32.02113" height="11.7177"/>
					<g>
						<path class="st9" d="M262.33691,241.73666l0.93652,0.11523c-0.14746,0.54785-0.4209,0.97168-0.82031,1.27441
							c-0.39941,0.30176-0.91016,0.45312-1.53027,0.45312c-0.78223,0-1.40234-0.24121-1.86133-0.72266
							c-0.45801-0.48145-0.68652-1.15723-0.68652-2.02637c0-0.90039,0.23145-1.59863,0.69434-2.09473
							c0.46387-0.49707,1.06445-0.74512,1.80273-0.74512c0.71484,0,1.29883,0.24316,1.75195,0.72949
							c0.45312,0.4873,0.67969,1.17188,0.67969,2.05469c0,0.05371-0.00098,0.13379-0.00488,0.24121h-3.9873
							c0.0332,0.58789,0.19922,1.03809,0.49805,1.34961c0.29883,0.3125,0.67188,0.46875,1.11816,0.46875
							c0.33203,0,0.61523-0.08789,0.85059-0.26172C262.01367,242.3978,262.19922,242.11948,262.33691,241.73666z
							 M259.36133,240.27084h2.98633c-0.04102-0.44922-0.1543-0.78711-0.34277-1.01172
							c-0.28906-0.34863-0.66309-0.52344-1.12305-0.52344c-0.41602,0-0.76562,0.13867-1.0498,0.41797
							C259.54883,239.43198,259.3916,239.80502,259.36133,240.27084z"/>
						<path class="st9" d="M264.16016,239.81772c0-0.87207,0.08984-1.5752,0.26953-2.10645
							c0.17969-0.53223,0.44629-0.94238,0.80078-1.23145c0.35352-0.28906,0.7998-0.43262,1.33691-0.43262
							c0.39551,0,0.74316,0.0791,1.04199,0.23828c0.29883,0.16016,0.5459,0.38965,0.74023,0.69043
							c0.19434,0.2998,0.34766,0.66602,0.45801,1.09766c0.11133,0.43066,0.16602,1.0127,0.16602,1.74414
							c0,0.86621-0.08887,1.56543-0.2666,2.09766s-0.44434,0.94336-0.79785,1.2334c-0.35449,0.29004-0.80176,0.43555-1.3418,0.43555
							c-0.71191,0-1.27051-0.25488-1.67676-0.76562C264.40332,242.20444,264.16016,241.20444,264.16016,239.81772z
							 M265.0918,239.81772c0,1.21191,0.1416,2.01855,0.42578,2.41992c0.2832,0.40039,0.63379,0.60156,1.0498,0.60156
							s0.76562-0.20117,1.0498-0.60449c0.2832-0.40234,0.4248-1.20801,0.4248-2.41699c0-1.21484-0.1416-2.02246-0.4248-2.42188
							c-0.28418-0.39941-0.63672-0.59863-1.06055-0.59863c-0.41602,0-0.74805,0.17578-0.99609,0.52832
							C265.24805,237.77573,265.0918,238.6058,265.0918,239.81772z"/>
						<path class="st9" d="M270.98242,243.45834h-0.84082v-7.38184h0.90625v2.63379
							c0.38281-0.48047,0.87109-0.71973,1.46484-0.71973c0.3291,0,0.64062,0.06641,0.93457,0.19824
							c0.29297,0.13281,0.53516,0.31934,0.72461,0.55957c0.18945,0.23926,0.33789,0.5293,0.44531,0.86816
							s0.16113,0.70117,0.16113,1.08789c0,0.91602-0.22656,1.62402-0.67969,2.125c-0.45312,0.5-0.99609,0.75-1.63086,0.75
							c-0.63086,0-1.12598-0.26367-1.48535-0.79102V243.45834z M270.97266,240.74448c0,0.6416,0.08691,1.10449,0.26172,1.38965
							c0.28516,0.4668,0.6709,0.7002,1.1582,0.7002c0.39551,0,0.73828-0.17188,1.02637-0.5166
							c0.28906-0.34375,0.43359-0.85645,0.43359-1.53809c0-0.69824-0.13867-1.21387-0.41602-1.5459
							c-0.27637-0.33203-0.61133-0.49805-1.00391-0.49805c-0.39648,0-0.73828,0.17188-1.02734,0.51562
							C271.11621,239.59604,270.97266,240.09311,270.97266,240.74448z"/>
					</g>
				</g>
			</g>
		</g>
		<line class="st10" x1="250.31767" y1="204.75722" x2="352.50098" y2="204.75722"/>
	</g>
	<g>
		<path class="st9" d="M285.82227,145.53745l0.92188-0.08008c0.04395,0.36914,0.14551,0.67188,0.30469,0.9082
			c0.15918,0.2373,0.40723,0.42871,0.74219,0.57422c0.33594,0.14648,0.71387,0.21973,1.13281,0.21973
			c0.37305,0,0.70215-0.05566,0.9873-0.16699c0.28516-0.11035,0.49707-0.2627,0.63672-0.45508
			c0.13965-0.19336,0.20898-0.4043,0.20898-0.63184c0-0.23145-0.06738-0.43457-0.20117-0.60742
			c-0.13477-0.17285-0.35547-0.31738-0.66504-0.43555c-0.19824-0.07715-0.63574-0.19629-1.31348-0.35938
			c-0.67871-0.16309-1.15332-0.31641-1.4248-0.46094c-0.35254-0.18457-0.61523-0.41406-0.78809-0.6875
			s-0.25977-0.58008-0.25977-0.91895c0-0.37207,0.10547-0.7207,0.31738-1.04492c0.21094-0.32324,0.52051-0.56934,0.92676-0.7373
			c0.40527-0.16797,0.85742-0.25195,1.35449-0.25195c0.54688,0,1.0293,0.08887,1.44727,0.26465s0.73926,0.43555,0.96387,0.77832
			c0.22461,0.3418,0.3457,0.72949,0.3623,1.16309l-0.93652,0.07031c-0.0498-0.4668-0.2207-0.81934-0.51074-1.05762
			s-0.71875-0.35742-1.28613-0.35742c-0.59082,0-1.02148,0.1084-1.29199,0.3252c-0.26953,0.21582-0.40527,0.47754-0.40527,0.78223
			c0,0.26562,0.0957,0.4834,0.28711,0.65527c0.18848,0.1709,0.67871,0.3457,1.47266,0.52539s1.33887,0.33691,1.63379,0.4707
			c0.42969,0.19824,0.74707,0.44922,0.95215,0.75293c0.2041,0.30371,0.30664,0.6543,0.30664,1.0498
			c0,0.39258-0.1123,0.7627-0.33691,1.11035s-0.54785,0.61816-0.96973,0.81055c-0.4209,0.19336-0.89551,0.29004-1.42188,0.29004
			c-0.66797,0-1.22754-0.09766-1.67969-0.29199c-0.45117-0.19531-0.80566-0.48828-1.0625-0.87891
			S285.83594,146.03159,285.82227,145.53745z"/>
		<path class="st9" d="M292.91699,147.90952v-7.38184h0.90625v2.64844c0.42285-0.49023,0.95703-0.73535,1.60156-0.73535
			c0.39551,0,0.74023,0.07812,1.03223,0.23438s0.50098,0.37207,0.62695,0.64746c0.125,0.27539,0.18848,0.6748,0.18848,1.19824
			v3.38867h-0.90625v-3.38867c0-0.45312-0.09863-0.7832-0.29492-0.98926c-0.19629-0.20703-0.47363-0.30957-0.83301-0.30957
			c-0.26855,0-0.52148,0.06934-0.75781,0.20898c-0.23633,0.13867-0.40527,0.32812-0.50586,0.56641s-0.15137,0.56738-0.15137,0.98633
			v2.92578H292.91699z"/>
		<path class="st9" d="M302.3125,146.18686l0.93652,0.11621c-0.14746,0.54688-0.4209,0.97168-0.82031,1.27344
			c-0.39941,0.30273-0.91016,0.45312-1.53027,0.45312c-0.78223,0-1.40234-0.24023-1.86133-0.72168
			c-0.45801-0.48242-0.68652-1.15723-0.68652-2.02734c0-0.89941,0.23145-1.59766,0.69434-2.09375
			c0.46387-0.49707,1.06445-0.74609,1.80273-0.74609c0.71484,0,1.29883,0.24414,1.75195,0.73047s0.67969,1.17188,0.67969,2.05469
			c0,0.05371-0.00098,0.13379-0.00488,0.24121h-3.9873c0.0332,0.58789,0.19922,1.03711,0.49805,1.34961
			s0.67188,0.46777,1.11816,0.46777c0.33203,0,0.61523-0.08691,0.85059-0.26172
			C301.98926,146.84897,302.1748,146.56967,302.3125,146.18686z M299.33691,144.72202h2.98633
			c-0.04102-0.4502-0.1543-0.78711-0.34277-1.01172c-0.28906-0.34961-0.66309-0.52344-1.12305-0.52344
			c-0.41602,0-0.76562,0.13867-1.0498,0.41699C299.52441,143.88315,299.36719,144.25522,299.33691,144.72202z"/>
		<path class="st9" d="M304.36621,147.90952v-7.38184h0.90625v7.38184H304.36621z"/>
		<path class="st9" d="M306.89453,147.90952v-4.64258h-0.80078v-0.70508h0.80078v-0.56836c0-0.35938,0.03125-0.62598,0.0957-0.80078
			c0.08691-0.23535,0.24023-0.42578,0.45996-0.57129c0.2207-0.14648,0.52832-0.21973,0.9248-0.21973
			c0.25488,0,0.53613,0.03027,0.8457,0.09082l-0.13574,0.79102c-0.18848-0.03418-0.36621-0.05078-0.53418-0.05078
			c-0.27539,0-0.46973,0.05859-0.58398,0.17578c-0.11426,0.11816-0.1709,0.33789-0.1709,0.66016v0.49316h1.04199v0.70508h-1.04199
			v4.64258H306.89453z"/>
		<path class="st9" d="M316.91895,147.03842v0.87109h-4.87891c-0.00684-0.21875,0.02832-0.42871,0.10547-0.62988
			c0.12402-0.33203,0.32324-0.65918,0.59668-0.98145s0.66895-0.69531,1.18555-1.11816
			c0.80273-0.65723,1.34473-1.17871,1.62598-1.56348c0.28223-0.38379,0.42383-0.74707,0.42383-1.08984
			c0-0.35938-0.12891-0.66211-0.38574-0.90918c-0.25684-0.24609-0.5918-0.37012-1.00391-0.37012
			c-0.43652,0-0.78613,0.13184-1.04785,0.39355s-0.39453,0.62402-0.39746,1.08691l-0.93164-0.0957
			c0.06348-0.69434,0.30371-1.22363,0.71973-1.58789s0.97559-0.54688,1.67676-0.54688c0.70801,0,1.26855,0.19629,1.68164,0.58887
			c0.41309,0.39355,0.61914,0.87988,0.61914,1.46094c0,0.29492-0.05957,0.58594-0.18066,0.87109s-0.32129,0.58594-0.60156,0.90137
			s-0.74609,0.74805-1.39746,1.29883c-0.54395,0.45605-0.89258,0.76562-1.04785,0.92871
			c-0.1543,0.16309-0.28125,0.32617-0.38184,0.49121H316.91895z"/>
	</g>
	<g>
		<path class="st9" d="M301.62793,182.91928v-7.38184h1.00195l3.87695,5.7959v-5.7959h0.93652v7.38184h-1.00195l-3.87695-5.80078
			v5.80078H301.62793z"/>
		<path class="st9" d="M308.75293,180.54819l0.92188-0.08105c0.04395,0.36914,0.14551,0.67188,0.30469,0.90918
			c0.15918,0.23633,0.40723,0.42773,0.74219,0.57324c0.33594,0.14648,0.71387,0.21973,1.13281,0.21973
			c0.37305,0,0.70215-0.05566,0.9873-0.16602c0.28516-0.11133,0.49707-0.2627,0.63672-0.45605s0.20898-0.40332,0.20898-0.63184
			c0-0.23145-0.06738-0.43359-0.20117-0.60645c-0.13477-0.17285-0.35547-0.31836-0.66504-0.43555
			c-0.19824-0.07715-0.63574-0.19727-1.31348-0.36035c-0.67871-0.16309-1.15332-0.31641-1.4248-0.46094
			c-0.35254-0.18457-0.61523-0.41309-0.78809-0.6875c-0.17285-0.27344-0.25977-0.5791-0.25977-0.91797
			c0-0.37305,0.10547-0.72168,0.31738-1.04492c0.21094-0.32422,0.52051-0.57031,0.92676-0.73828
			c0.40527-0.16797,0.85742-0.25098,1.35449-0.25098c0.54688,0,1.0293,0.08789,1.44727,0.26367
			c0.41797,0.17676,0.73926,0.43555,0.96387,0.77832c0.22461,0.3418,0.3457,0.72949,0.3623,1.16309l-0.93652,0.07031
			c-0.0498-0.4668-0.2207-0.81934-0.51074-1.05762s-0.71875-0.35742-1.28613-0.35742c-0.59082,0-1.02148,0.1084-1.29199,0.3252
			c-0.26953,0.21582-0.40527,0.47754-0.40527,0.78223c0,0.26562,0.0957,0.4834,0.28711,0.65527
			c0.18848,0.1709,0.67871,0.34668,1.47266,0.52637c0.79395,0.17871,1.33887,0.33594,1.63379,0.4707
			c0.42969,0.19727,0.74707,0.44824,0.95215,0.75195c0.2041,0.30469,0.30664,0.6543,0.30664,1.0498
			c0,0.39355-0.1123,0.76367-0.33691,1.11035c-0.22461,0.34766-0.54785,0.61816-0.96973,0.81055
			c-0.4209,0.19336-0.89551,0.29004-1.42188,0.29004c-0.66797,0-1.22754-0.09766-1.67969-0.29199
			c-0.45117-0.19434-0.80566-0.4873-1.0625-0.87891C308.90137,181.48373,308.7666,181.04135,308.75293,180.54819z"/>
		<path class="st9" d="M315.93359,182.91928v-7.38184h1.46973l1.74707,5.22656c0.16113,0.4873,0.2793,0.85156,0.35254,1.09277
			c0.08398-0.26855,0.21484-0.66309,0.39258-1.18359l1.76758-5.13574h1.31445v7.38184h-0.94141v-6.17773l-2.14551,6.17773h-0.88086
			l-2.13477-6.28418v6.28418H315.93359z"/>
		<path class="st9" d="M326.03906,182.91928l2.83398-7.38184h1.05273l3.02051,7.38184h-1.1123l-0.86133-2.23535h-3.08594
			l-0.81055,2.23535H326.03906z M328.16797,179.88803h2.50293l-0.77051-2.04395c-0.23535-0.62109-0.40918-1.13086-0.52344-1.53125
			c-0.09375,0.47363-0.22656,0.94336-0.39746,1.41016L328.16797,179.88803z"/>
	</g>
	<g>
		<path class="st9" d="M301.05859,232.97592v-7.38184h1.00195l3.87695,5.7959v-5.7959h0.93652v7.38184h-1.00195l-3.87695-5.80078
			v5.80078H301.05859z"/>
		<path class="st9" d="M308.18359,230.60483l0.92188-0.08105c0.04395,0.36914,0.14551,0.67188,0.30469,0.90918
			c0.15918,0.23633,0.40723,0.42773,0.74219,0.57324c0.33594,0.14648,0.71387,0.21973,1.13281,0.21973
			c0.37305,0,0.70215-0.05566,0.9873-0.16602c0.28516-0.11133,0.49707-0.2627,0.63672-0.45605s0.20898-0.40332,0.20898-0.63184
			c0-0.23145-0.06738-0.43359-0.20117-0.60645c-0.13477-0.17285-0.35547-0.31836-0.66504-0.43555
			c-0.19824-0.07715-0.63574-0.19727-1.31348-0.36035c-0.67871-0.16309-1.15332-0.31641-1.4248-0.46094
			c-0.35254-0.18457-0.61523-0.41309-0.78809-0.6875c-0.17285-0.27344-0.25977-0.5791-0.25977-0.91797
			c0-0.37305,0.10547-0.72168,0.31738-1.04492c0.21094-0.32422,0.52051-0.57031,0.92676-0.73828
			c0.40527-0.16797,0.85742-0.25098,1.35449-0.25098c0.54688,0,1.0293,0.08789,1.44727,0.26367
			c0.41797,0.17676,0.73926,0.43555,0.96387,0.77832c0.22461,0.3418,0.3457,0.72949,0.3623,1.16309l-0.93652,0.07031
			c-0.0498-0.4668-0.2207-0.81934-0.51074-1.05762s-0.71875-0.35742-1.28613-0.35742c-0.59082,0-1.02148,0.1084-1.29199,0.3252
			c-0.26953,0.21582-0.40527,0.47754-0.40527,0.78223c0,0.26562,0.0957,0.4834,0.28711,0.65527
			c0.18848,0.1709,0.67871,0.34668,1.47266,0.52637c0.79395,0.17871,1.33887,0.33594,1.63379,0.4707
			c0.42969,0.19727,0.74707,0.44824,0.95215,0.75195c0.2041,0.30469,0.30664,0.6543,0.30664,1.0498
			c0,0.39355-0.1123,0.76367-0.33691,1.11035c-0.22461,0.34766-0.54785,0.61816-0.96973,0.81055
			c-0.4209,0.19336-0.89551,0.29004-1.42188,0.29004c-0.66797,0-1.22754-0.09766-1.67969-0.29199
			c-0.45117-0.19434-0.80566-0.4873-1.0625-0.87891C308.33203,231.54037,308.19727,231.09799,308.18359,230.60483z"/>
		<path class="st9" d="M315.36426,232.97592v-7.38184h1.46973l1.74707,5.22656c0.16113,0.4873,0.2793,0.85156,0.35254,1.09277
			c0.08398-0.26855,0.21484-0.66309,0.39258-1.18359l1.76758-5.13574h1.31445v7.38184h-0.94141v-6.17773l-2.14551,6.17773h-0.88086
			l-2.13477-6.28418v6.28418H315.36426z"/>
		<path class="st9" d="M326.80762,232.97592v-7.38184h2.76953c0.56445,0,1.0166,0.0752,1.35742,0.22461
			c0.33984,0.14941,0.60742,0.37891,0.7998,0.68945c0.19336,0.31055,0.29004,0.63574,0.29004,0.97461
			c0,0.31543-0.08594,0.6123-0.25684,0.89062c-0.1709,0.2793-0.42969,0.50391-0.77539,0.6748
			c0.44629,0.13086,0.79004,0.35449,1.0293,0.66992c0.24023,0.31543,0.36035,0.68848,0.36035,1.11816
			c0,0.3457-0.07324,0.66699-0.21875,0.96387c-0.14648,0.29688-0.32715,0.52637-0.54199,0.6875s-0.4834,0.28223-0.80762,0.36523
			c-0.32422,0.08203-0.7207,0.12305-1.19043,0.12305H326.80762z M327.78516,228.69565h1.5957
			c0.43262,0,0.74316-0.02832,0.93164-0.08496c0.24805-0.07422,0.43555-0.19629,0.56152-0.36816
			c0.12598-0.1709,0.18848-0.38574,0.18848-0.64453c0-0.24414-0.05859-0.45996-0.17578-0.64648
			c-0.11816-0.18652-0.28613-0.31348-0.50391-0.38281c-0.21777-0.06836-0.59277-0.10352-1.12305-0.10352h-1.47461V228.69565z
			 M327.78516,232.10483h1.83789c0.31543,0,0.53613-0.01172,0.66406-0.03516c0.22461-0.04004,0.41309-0.10742,0.56445-0.20117
			c0.15039-0.09375,0.27441-0.23145,0.37207-0.41113c0.09766-0.17871,0.14648-0.38672,0.14648-0.62109
			c0-0.27539-0.07129-0.51465-0.21191-0.71777s-0.33691-0.3457-0.58691-0.42773s-0.60938-0.12402-1.08008-0.12402h-1.70605
			V232.10483z"/>
	</g>
	<g>
		<rect x="250.31767" y="23.74223" class="st7" width="102.18329" height="99.8255"/>
		<g>
			<g>
				<g>
					<rect x="250.31767" y="32.64302" class="st10" width="32.02113" height="11.7177"/>
					<g>
						<path class="st9" d="M262.33691,40.32748l0.93652,0.11621c-0.14746,0.54688-0.4209,0.97168-0.82031,1.27344
							c-0.39941,0.30225-0.91016,0.45312-1.53027,0.45312c-0.78223,0-1.40234-0.24072-1.86133-0.72217
							c-0.45801-0.48193-0.68652-1.15723-0.68652-2.02686c0-0.89941,0.23145-1.59766,0.69434-2.09424
							c0.46387-0.49707,1.06445-0.74561,1.80273-0.74561c0.71484,0,1.29883,0.24365,1.75195,0.73047
							c0.45312,0.48633,0.67969,1.17139,0.67969,2.0542c0,0.05371-0.00098,0.13428-0.00488,0.2417h-3.9873
							c0.0332,0.5874,0.19922,1.03711,0.49805,1.34912c0.29883,0.3125,0.67188,0.46826,1.11816,0.46826
							c0.33203,0,0.61523-0.08691,0.85059-0.26172C262.01367,40.9891,262.19922,40.71029,262.33691,40.32748z M259.36133,38.86263
							h2.98633c-0.04102-0.4502-0.1543-0.78711-0.34277-1.01221c-0.28906-0.34912-0.66309-0.52344-1.12305-0.52344
							c-0.41602,0-0.76562,0.13916-1.0498,0.41748C259.54883,38.02328,259.3916,38.39584,259.36133,38.86263z"/>
						<path class="st9" d="M264.16016,38.40951c0-0.87305,0.08984-1.5752,0.26953-2.10742
							c0.17969-0.53174,0.44629-0.94238,0.80078-1.23096c0.35352-0.28857,0.7998-0.43311,1.33691-0.43311
							c0.39551,0,0.74316,0.07959,1.04199,0.23926c0.29883,0.15918,0.5459,0.38916,0.74023,0.68994
							c0.19434,0.30029,0.34766,0.66602,0.45801,1.09766c0.11133,0.43115,0.16602,1.0127,0.16602,1.74463
							c0,0.86572-0.08887,1.56494-0.2666,2.09668c-0.17773,0.53223-0.44434,0.94336-0.79785,1.23389
							c-0.35449,0.29053-0.80176,0.43555-1.3418,0.43555c-0.71191,0-1.27051-0.25537-1.67676-0.76562
							C264.40332,40.79574,264.16016,39.79574,264.16016,38.40951z M265.0918,38.40951c0,1.21143,0.1416,2.01807,0.42578,2.41895
							c0.2832,0.40137,0.63379,0.60205,1.0498,0.60205s0.76562-0.20166,1.0498-0.60449c0.2832-0.40283,0.4248-1.2085,0.4248-2.4165
							c0-1.21533-0.1416-2.02246-0.4248-2.42188c-0.28418-0.39941-0.63672-0.59961-1.06055-0.59961
							c-0.41602,0-0.74805,0.17627-0.99609,0.52881C265.24805,36.36703,265.0918,37.19759,265.0918,38.40951z"/>
						<path class="st9" d="M273.63574,41.38998c-0.33594,0.28564-0.65918,0.48682-0.96875,0.60449
							c-0.31055,0.11719-0.64453,0.17578-1,0.17578c-0.58691,0-1.03906-0.14307-1.35449-0.43018s-0.47266-0.65381-0.47266-1.1001
							c0-0.26221,0.05957-0.50098,0.17871-0.71777c0.11914-0.21631,0.27441-0.39014,0.46777-0.521s0.41016-0.22998,0.65234-0.29688
							c0.17773-0.04736,0.44629-0.09229,0.80566-0.13623c0.73145-0.0874,1.27051-0.19141,1.61621-0.31201
							c0.00293-0.12402,0.00488-0.20312,0.00488-0.23682c0-0.36914-0.08594-0.62939-0.25684-0.78027
							c-0.23145-0.20459-0.57617-0.30713-1.03223-0.30713c-0.42676,0-0.74121,0.07471-0.94434,0.22412
							s-0.35352,0.41357-0.4502,0.79297l-0.88672-0.12109c0.08105-0.37891,0.21387-0.68555,0.39844-0.91895
							c0.18457-0.23291,0.45117-0.4126,0.7998-0.53857c0.34961-0.12598,0.75391-0.18896,1.21387-0.18896
							c0.45605,0,0.82715,0.05371,1.11328,0.16113c0.28516,0.10742,0.49414,0.24268,0.62891,0.40527
							c0.13379,0.16309,0.22852,0.36865,0.28223,0.61719c0.03027,0.1543,0.04492,0.43262,0.04492,0.83545v1.2085
							c0,0.84277,0.01953,1.37549,0.05762,1.59863c0.03906,0.22363,0.11523,0.4375,0.22949,0.64209h-0.94629
							C273.72266,41.86166,273.66309,41.64193,273.63574,41.38998z M273.56055,39.36605
							c-0.3291,0.13428-0.82227,0.24854-1.48047,0.34229c-0.37305,0.05371-0.63574,0.11426-0.79102,0.18115
							c-0.1543,0.06738-0.27344,0.16553-0.35742,0.29443c-0.08398,0.12939-0.12598,0.27295-0.12598,0.43066
							c0,0.2417,0.0918,0.44336,0.27441,0.60449c0.18359,0.16113,0.45117,0.2417,0.80371,0.2417
							c0.34863,0,0.65918-0.07666,0.93164-0.22949c0.27148-0.15234,0.47168-0.36133,0.59863-0.62646
							c0.09766-0.20508,0.14648-0.50684,0.14648-0.90674V39.36605z"/>
					</g>
				</g>
			</g>
			<g>
				<g>
					<rect x="250.31767" y="53.78689" class="st10" width="32.02113" height="11.7177"/>
					<g>
						<path class="st9" d="M262.33691,61.47152l0.93652,0.11621c-0.14746,0.54688-0.4209,0.97168-0.82031,1.27344
							c-0.39941,0.30225-0.91016,0.45312-1.53027,0.45312c-0.78223,0-1.40234-0.24072-1.86133-0.72217
							c-0.45801-0.48193-0.68652-1.15723-0.68652-2.02686c0-0.89941,0.23145-1.59766,0.69434-2.09424
							c0.46387-0.49707,1.06445-0.74561,1.80273-0.74561c0.71484,0,1.29883,0.24365,1.75195,0.73047
							c0.45312,0.48633,0.67969,1.17139,0.67969,2.0542c0,0.05371-0.00098,0.13428-0.00488,0.2417h-3.9873
							c0.0332,0.5874,0.19922,1.03711,0.49805,1.34912c0.29883,0.3125,0.67188,0.46826,1.11816,0.46826
							c0.33203,0,0.61523-0.08691,0.85059-0.26172C262.01367,62.13314,262.19922,61.85433,262.33691,61.47152z M259.36133,60.00668
							h2.98633c-0.04102-0.4502-0.1543-0.78711-0.34277-1.01221c-0.28906-0.34912-0.66309-0.52344-1.12305-0.52344
							c-0.41602,0-0.76562,0.13916-1.0498,0.41748C259.54883,59.16732,259.3916,59.53988,259.36133,60.00668z"/>
						<path class="st9" d="M264.16016,59.55355c0-0.87305,0.08984-1.5752,0.26953-2.10742
							c0.17969-0.53174,0.44629-0.94238,0.80078-1.23096c0.35352-0.28857,0.7998-0.43311,1.33691-0.43311
							c0.39551,0,0.74316,0.07959,1.04199,0.23926c0.29883,0.15918,0.5459,0.38916,0.74023,0.68994
							c0.19434,0.30029,0.34766,0.66602,0.45801,1.09766c0.11133,0.43115,0.16602,1.0127,0.16602,1.74463
							c0,0.86572-0.08887,1.56494-0.2666,2.09668c-0.17773,0.53223-0.44434,0.94336-0.79785,1.23389
							c-0.35449,0.29053-0.80176,0.43555-1.3418,0.43555c-0.71191,0-1.27051-0.25537-1.67676-0.76562
							C264.40332,61.93978,264.16016,60.93978,264.16016,59.55355z M265.0918,59.55355c0,1.21143,0.1416,2.01807,0.42578,2.41895
							c0.2832,0.40137,0.63379,0.60205,1.0498,0.60205s0.76562-0.20166,1.0498-0.60449c0.2832-0.40283,0.4248-1.2085,0.4248-2.4165
							c0-1.21533-0.1416-2.02246-0.4248-2.42188c-0.28418-0.39941-0.63672-0.59961-1.06055-0.59961
							c-0.41602,0-0.74805,0.17627-0.99609,0.52881C265.24805,57.51107,265.0918,58.34164,265.0918,59.55355z"/>
						<path class="st9" d="M270.98242,63.19369h-0.84082v-7.38135h0.90625v2.6333c0.38281-0.47998,0.87109-0.72021,1.46484-0.72021
							c0.3291,0,0.64062,0.06641,0.93457,0.19922c0.29297,0.13232,0.53516,0.31885,0.72461,0.55859
							c0.18945,0.24023,0.33789,0.52979,0.44531,0.86865c0.10742,0.33936,0.16113,0.70166,0.16113,1.0874
							c0,0.9165-0.22656,1.625-0.67969,2.125s-0.99609,0.75-1.63086,0.75c-0.63086,0-1.12598-0.26318-1.48535-0.79004V63.19369z
							 M270.97266,60.47982c0,0.64111,0.08691,1.10449,0.26172,1.38965c0.28516,0.4668,0.6709,0.69971,1.1582,0.69971
							c0.39551,0,0.73828-0.17188,1.02637-0.51611c0.28906-0.34375,0.43359-0.85645,0.43359-1.53809
							c0-0.69824-0.13867-1.21338-0.41602-1.5459c-0.27637-0.33203-0.61133-0.49805-1.00391-0.49805
							c-0.39648,0-0.73828,0.17188-1.02734,0.51562C271.11621,59.33089,270.97266,59.82845,270.97266,60.47982z"/>
					</g>
				</g>
			</g>
			<g>
				<g>
					<rect x="250.31767" y="81.80536" class="st10" width="32.02113" height="11.7177"/>
					<g>
						<path class="st9" d="M262.33691,89.49056l0.93652,0.11621c-0.14746,0.54688-0.4209,0.97168-0.82031,1.27344
							c-0.39941,0.30225-0.91016,0.45312-1.53027,0.45312c-0.78223,0-1.40234-0.24072-1.86133-0.72217
							c-0.45801-0.48193-0.68652-1.15723-0.68652-2.02686c0-0.89941,0.23145-1.59766,0.69434-2.09424
							c0.46387-0.49707,1.06445-0.74561,1.80273-0.74561c0.71484,0,1.29883,0.24365,1.75195,0.73047
							c0.45312,0.48633,0.67969,1.17139,0.67969,2.0542c0,0.05371-0.00098,0.13428-0.00488,0.2417h-3.9873
							c0.0332,0.5874,0.19922,1.03711,0.49805,1.34912c0.29883,0.3125,0.67188,0.46826,1.11816,0.46826
							c0.33203,0,0.61523-0.08691,0.85059-0.26172C262.01367,90.15218,262.19922,89.87337,262.33691,89.49056z M259.36133,88.02572
							h2.98633c-0.04102-0.4502-0.1543-0.78711-0.34277-1.01221c-0.28906-0.34912-0.66309-0.52344-1.12305-0.52344
							c-0.41602,0-0.76562,0.13916-1.0498,0.41748C259.54883,87.18636,259.3916,87.55892,259.36133,88.02572z"/>
						<path class="st9" d="M264.16016,87.57259c0-0.87305,0.08984-1.5752,0.26953-2.10742
							c0.17969-0.53174,0.44629-0.94238,0.80078-1.23096c0.35352-0.28857,0.7998-0.43311,1.33691-0.43311
							c0.39551,0,0.74316,0.07959,1.04199,0.23926c0.29883,0.15918,0.5459,0.38916,0.74023,0.68994
							c0.19434,0.30029,0.34766,0.66602,0.45801,1.09766c0.11133,0.43115,0.16602,1.0127,0.16602,1.74463
							c0,0.86572-0.08887,1.56494-0.2666,2.09668c-0.17773,0.53223-0.44434,0.94336-0.79785,1.23389
							c-0.35449,0.29053-0.80176,0.43555-1.3418,0.43555c-0.71191,0-1.27051-0.25537-1.67676-0.76562
							C264.40332,89.95882,264.16016,88.95882,264.16016,87.57259z M265.0918,87.57259c0,1.21143,0.1416,2.01807,0.42578,2.41895
							c0.2832,0.40137,0.63379,0.60205,1.0498,0.60205s0.76562-0.20166,1.0498-0.60449c0.2832-0.40283,0.4248-1.2085,0.4248-2.4165
							c0-1.21533-0.1416-2.02246-0.4248-2.42188c-0.28418-0.39941-0.63672-0.59961-1.06055-0.59961
							c-0.41602,0-0.74805,0.17627-0.99609,0.52881C265.24805,85.53011,265.0918,86.36068,265.0918,87.57259z"/>
						<path class="st9" d="M273.63574,90.55306c-0.33594,0.28564-0.65918,0.48682-0.96875,0.60449
							c-0.31055,0.11719-0.64453,0.17578-1,0.17578c-0.58691,0-1.03906-0.14307-1.35449-0.43018s-0.47266-0.65381-0.47266-1.1001
							c0-0.26221,0.05957-0.50098,0.17871-0.71777c0.11914-0.21631,0.27441-0.39014,0.46777-0.521s0.41016-0.22998,0.65234-0.29688
							c0.17773-0.04736,0.44629-0.09229,0.80566-0.13623c0.73145-0.0874,1.27051-0.19141,1.61621-0.31201
							c0.00293-0.12402,0.00488-0.20312,0.00488-0.23682c0-0.36914-0.08594-0.62939-0.25684-0.78027
							c-0.23145-0.20459-0.57617-0.30713-1.03223-0.30713c-0.42676,0-0.74121,0.07471-0.94434,0.22412
							s-0.35352,0.41357-0.4502,0.79297l-0.88672-0.12109c0.08105-0.37891,0.21387-0.68555,0.39844-0.91895
							c0.18457-0.23291,0.45117-0.4126,0.7998-0.53857c0.34961-0.12598,0.75391-0.18896,1.21387-0.18896
							c0.45605,0,0.82715,0.05371,1.11328,0.16113c0.28516,0.10742,0.49414,0.24268,0.62891,0.40527
							c0.13379,0.16309,0.22852,0.36865,0.28223,0.61719c0.03027,0.1543,0.04492,0.43262,0.04492,0.83545v1.2085
							c0,0.84277,0.01953,1.37549,0.05762,1.59863c0.03906,0.22363,0.11523,0.4375,0.22949,0.64209h-0.94629
							C273.72266,91.02474,273.66309,90.80502,273.63574,90.55306z M273.56055,88.52914
							c-0.3291,0.13428-0.82227,0.24854-1.48047,0.34229c-0.37305,0.05371-0.63574,0.11426-0.79102,0.18115
							c-0.1543,0.06738-0.27344,0.16553-0.35742,0.29443c-0.08398,0.12939-0.12598,0.27295-0.12598,0.43066
							c0,0.2417,0.0918,0.44336,0.27441,0.60449c0.18359,0.16113,0.45117,0.2417,0.80371,0.2417
							c0.34863,0,0.65918-0.07666,0.93164-0.22949c0.27148-0.15234,0.47168-0.36133,0.59863-0.62646
							c0.09766-0.20508,0.14648-0.50684,0.14648-0.90674V88.52914z"/>
					</g>
				</g>
			</g>
			<g>
				<g>
					<rect x="250.31767" y="102.94923" class="st10" width="32.02113" height="11.7177"/>
					<g>
						<path class="st9" d="M262.33691,110.63412l0.93652,0.11621c-0.14746,0.54688-0.4209,0.97168-0.82031,1.27344
							c-0.39941,0.30273-0.91016,0.45312-1.53027,0.45312c-0.78223,0-1.40234-0.24023-1.86133-0.72168
							c-0.45801-0.48242-0.68652-1.15723-0.68652-2.02734c0-0.89941,0.23145-1.59766,0.69434-2.09424
							c0.46387-0.49707,1.06445-0.74561,1.80273-0.74561c0.71484,0,1.29883,0.24365,1.75195,0.73047
							c0.45312,0.48633,0.67969,1.17139,0.67969,2.05469c0,0.05371-0.00098,0.13379-0.00488,0.24121h-3.9873
							c0.0332,0.58789,0.19922,1.03711,0.49805,1.34961s0.67188,0.46777,1.11816,0.46777c0.33203,0,0.61523-0.08691,0.85059-0.26172
							C262.01367,111.29623,262.19922,111.01693,262.33691,110.63412z M259.36133,109.16927h2.98633
							c-0.04102-0.4502-0.1543-0.78711-0.34277-1.01221c-0.28906-0.34912-0.66309-0.52344-1.12305-0.52344
							c-0.41602,0-0.76562,0.13916-1.0498,0.41748C259.54883,108.32992,259.3916,108.70248,259.36133,109.16927z"/>
						<path class="st9" d="M264.16016,108.71615c0-0.87305,0.08984-1.5752,0.26953-2.10742
							c0.17969-0.53174,0.44629-0.94238,0.80078-1.23096c0.35352-0.28857,0.7998-0.43311,1.33691-0.43311
							c0.39551,0,0.74316,0.07959,1.04199,0.23926c0.29883,0.15918,0.5459,0.38916,0.74023,0.68994
							c0.19434,0.30029,0.34766,0.66602,0.45801,1.09766c0.11133,0.43115,0.16602,1.0127,0.16602,1.74463
							c0,0.86621-0.08887,1.56543-0.2666,2.09668c-0.17773,0.53223-0.44434,0.94336-0.79785,1.23438
							c-0.35449,0.29004-0.80176,0.43555-1.3418,0.43555c-0.71191,0-1.27051-0.25586-1.67676-0.76562
							C264.40332,111.10287,264.16016,110.10287,264.16016,108.71615z M265.0918,108.71615
							c0,1.21191,0.1416,2.01855,0.42578,2.41895c0.2832,0.40137,0.63379,0.60254,1.0498,0.60254s0.76562-0.20215,1.0498-0.60449
							c0.2832-0.40332,0.4248-1.20898,0.4248-2.41699c0-1.21533-0.1416-2.02246-0.4248-2.42188
							c-0.28418-0.39941-0.63672-0.59961-1.06055-0.59961c-0.41602,0-0.74805,0.17627-0.99609,0.52881
							C265.24805,106.67367,265.0918,107.50423,265.0918,108.71615z"/>
						<path class="st9" d="M270.98242,112.35677h-0.84082v-7.38184h0.90625v2.6333c0.38281-0.47998,0.87109-0.72021,1.46484-0.72021
							c0.3291,0,0.64062,0.06641,0.93457,0.19922c0.29297,0.13232,0.53516,0.31885,0.72461,0.55859
							c0.18945,0.24023,0.33789,0.52979,0.44531,0.86865c0.10742,0.33936,0.16113,0.70166,0.16113,1.0874
							c0,0.91699-0.22656,1.625-0.67969,2.125s-0.99609,0.75-1.63086,0.75c-0.63086,0-1.12598-0.2627-1.48535-0.79004V112.35677z
							 M270.97266,109.64291c0,0.64062,0.08691,1.10449,0.26172,1.38965c0.28516,0.4668,0.6709,0.69922,1.1582,0.69922
							c0.39551,0,0.73828-0.17188,1.02637-0.51562c0.28906-0.34375,0.43359-0.85645,0.43359-1.53809
							c0-0.69873-0.13867-1.21387-0.41602-1.54639c-0.27637-0.33203-0.61133-0.49805-1.00391-0.49805
							c-0.39648,0-0.73828,0.17188-1.02734,0.51562C271.11621,108.49349,270.97266,108.99105,270.97266,109.64291z"/>
					</g>
				</g>
			</g>
		</g>
		<line class="st10" x1="250.31767" y1="73.65498" x2="352.50098" y2="73.65498"/>
	</g>
	<g>
		<path class="st9" d="M285.82227,14.43637l0.92188-0.08057c0.04395,0.36914,0.14551,0.67236,0.30469,0.90869
			c0.15918,0.23682,0.40723,0.42822,0.74219,0.57422c0.33594,0.146,0.71387,0.21924,1.13281,0.21924
			c0.37305,0,0.70215-0.05566,0.9873-0.1665s0.49707-0.2627,0.63672-0.45557s0.20898-0.40381,0.20898-0.63184
			c0-0.23145-0.06738-0.43408-0.20117-0.60693c-0.13477-0.17285-0.35547-0.31787-0.66504-0.43555
			c-0.19824-0.07715-0.63574-0.19678-1.31348-0.35986c-0.67871-0.1626-1.15332-0.31641-1.4248-0.46045
			c-0.35254-0.18457-0.61523-0.41406-0.78809-0.6875s-0.25977-0.58008-0.25977-0.91895c0-0.37256,0.10547-0.7207,0.31738-1.04492
			c0.21094-0.32373,0.52051-0.56934,0.92676-0.7373c0.40527-0.16797,0.85742-0.25195,1.35449-0.25195
			c0.54688,0,1.0293,0.08838,1.44727,0.26416c0.41797,0.17627,0.73926,0.43555,0.96387,0.77832
			c0.22461,0.34229,0.3457,0.72998,0.3623,1.16309l-0.93652,0.07031c-0.0498-0.46631-0.2207-0.81885-0.51074-1.05713
			c-0.29004-0.23877-0.71875-0.35791-1.28613-0.35791c-0.59082,0-1.02148,0.1084-1.29199,0.3252
			c-0.26953,0.21631-0.40527,0.47754-0.40527,0.78271c0,0.26514,0.0957,0.4834,0.28711,0.65479
			c0.18848,0.1709,0.67871,0.34619,1.47266,0.52588s1.33887,0.33643,1.63379,0.4707
			c0.42969,0.19824,0.74707,0.44922,0.95215,0.75293c0.2041,0.30371,0.30664,0.65381,0.30664,1.0498
			c0,0.39258-0.1123,0.7627-0.33691,1.11035c-0.22461,0.34717-0.54785,0.61768-0.96973,0.81055
			c-0.4209,0.19287-0.89551,0.28955-1.42188,0.28955c-0.66797,0-1.22754-0.09766-1.67969-0.29199
			c-0.45117-0.19482-0.80566-0.48779-1.0625-0.87891C285.9707,15.3724,285.83594,14.93002,285.82227,14.43637z"/>
		<path class="st9" d="M292.91699,16.80795V9.4266h0.90625v2.64844c0.42285-0.49023,0.95703-0.73535,1.60156-0.73535
			c0.39551,0,0.74023,0.07812,1.03223,0.23438s0.50098,0.37158,0.62695,0.64697c0.125,0.27539,0.18848,0.6748,0.18848,1.19824
			v3.38867h-0.90625v-3.38867c0-0.45312-0.09863-0.78271-0.29492-0.98926s-0.47363-0.30957-0.83301-0.30957
			c-0.26855,0-0.52148,0.06934-0.75781,0.20898c-0.23633,0.13916-0.40527,0.32812-0.50586,0.56641s-0.15137,0.56738-0.15137,0.98682
			v2.92529H292.91699z"/>
		<path class="st9" d="M302.3125,15.08578l0.93652,0.11621c-0.14746,0.54688-0.4209,0.97168-0.82031,1.27344
			c-0.39941,0.30225-0.91016,0.45312-1.53027,0.45312c-0.78223,0-1.40234-0.24072-1.86133-0.72217
			c-0.45801-0.48193-0.68652-1.15723-0.68652-2.02686c0-0.89941,0.23145-1.59766,0.69434-2.09424
			c0.46387-0.49707,1.06445-0.74561,1.80273-0.74561c0.71484,0,1.29883,0.24365,1.75195,0.73047
			c0.45312,0.48633,0.67969,1.17139,0.67969,2.0542c0,0.05371-0.00098,0.13428-0.00488,0.2417h-3.9873
			c0.0332,0.5874,0.19922,1.03711,0.49805,1.34912c0.29883,0.3125,0.67188,0.46826,1.11816,0.46826
			c0.33203,0,0.61523-0.08691,0.85059-0.26172C301.98926,15.7474,302.1748,15.46859,302.3125,15.08578z M299.33691,13.62094h2.98633
			c-0.04102-0.4502-0.1543-0.78711-0.34277-1.01221c-0.28906-0.34912-0.66309-0.52344-1.12305-0.52344
			c-0.41602,0-0.76562,0.13916-1.0498,0.41748C299.52441,12.78158,299.36719,13.15414,299.33691,13.62094z"/>
		<path class="st9" d="M304.36621,16.80795V9.4266h0.90625v7.38135H304.36621z"/>
		<path class="st9" d="M306.89453,16.80795v-4.64209h-0.80078v-0.70508h0.80078v-0.56885c0-0.35938,0.03125-0.62598,0.0957-0.80078
			c0.08691-0.23486,0.24023-0.42529,0.45996-0.57129c0.2207-0.146,0.52832-0.21924,0.9248-0.21924
			c0.25488,0,0.53613,0.03027,0.8457,0.09082l-0.13574,0.79053c-0.18848-0.03369-0.36621-0.05029-0.53418-0.05029
			c-0.27539,0-0.46973,0.05859-0.58398,0.17578c-0.11426,0.11768-0.1709,0.3374-0.1709,0.65967v0.49365h1.04199v0.70508h-1.04199
			v4.64209H306.89453z"/>
		<path class="st9" d="M315.56934,16.80795h-0.90625v-5.77539c-0.21875,0.2085-0.50488,0.4165-0.8584,0.62451
			c-0.35449,0.20801-0.67285,0.36426-0.9541,0.46826v-0.87598c0.50684-0.23828,0.94922-0.52686,1.3291-0.86621
			c0.37891-0.33887,0.64746-0.66797,0.80566-0.98682h0.58398V16.80795z"/>
	</g>
	<g>
		<path class="st9" d="M301.62793,51.81722v-7.38135h1.00195l3.87695,5.79541v-5.79541h0.93652v7.38135h-1.00195l-3.87695-5.80029
			v5.80029H301.62793z"/>
		<path class="st9" d="M308.75293,49.44564l0.92188-0.08057c0.04395,0.36914,0.14551,0.67236,0.30469,0.90869
			c0.15918,0.23682,0.40723,0.42822,0.74219,0.57422c0.33594,0.146,0.71387,0.21924,1.13281,0.21924
			c0.37305,0,0.70215-0.05566,0.9873-0.1665s0.49707-0.2627,0.63672-0.45557s0.20898-0.40381,0.20898-0.63184
			c0-0.23145-0.06738-0.43408-0.20117-0.60693c-0.13477-0.17285-0.35547-0.31787-0.66504-0.43555
			c-0.19824-0.07715-0.63574-0.19678-1.31348-0.35986c-0.67871-0.1626-1.15332-0.31641-1.4248-0.46045
			c-0.35254-0.18457-0.61523-0.41406-0.78809-0.6875s-0.25977-0.58008-0.25977-0.91895c0-0.37256,0.10547-0.7207,0.31738-1.04492
			c0.21094-0.32373,0.52051-0.56934,0.92676-0.7373c0.40527-0.16797,0.85742-0.25195,1.35449-0.25195
			c0.54688,0,1.0293,0.08838,1.44727,0.26416c0.41797,0.17627,0.73926,0.43555,0.96387,0.77832
			c0.22461,0.34229,0.3457,0.72998,0.3623,1.16309l-0.93652,0.07031c-0.0498-0.46631-0.2207-0.81885-0.51074-1.05713
			c-0.29004-0.23877-0.71875-0.35791-1.28613-0.35791c-0.59082,0-1.02148,0.1084-1.29199,0.3252
			c-0.26953,0.21631-0.40527,0.47754-0.40527,0.78271c0,0.26514,0.0957,0.4834,0.28711,0.65479
			c0.18848,0.1709,0.67871,0.34619,1.47266,0.52588s1.33887,0.33643,1.63379,0.4707
			c0.42969,0.19824,0.74707,0.44922,0.95215,0.75293c0.2041,0.30371,0.30664,0.65381,0.30664,1.0498
			c0,0.39258-0.1123,0.7627-0.33691,1.11035c-0.22461,0.34717-0.54785,0.61768-0.96973,0.81055
			c-0.4209,0.19287-0.89551,0.28955-1.42188,0.28955c-0.66797,0-1.22754-0.09766-1.67969-0.29199
			c-0.45117-0.19482-0.80566-0.48779-1.0625-0.87891C308.90137,50.38168,308.7666,49.93929,308.75293,49.44564z"/>
		<path class="st9" d="M315.93359,51.81722v-7.38135h1.46973l1.74707,5.22656c0.16113,0.48633,0.2793,0.85059,0.35254,1.09229
			c0.08398-0.26855,0.21484-0.6626,0.39258-1.18311l1.76758-5.13574h1.31445v7.38135h-0.94141V45.639l-2.14551,6.17822h-0.88086
			l-2.13477-6.28369v6.28369H315.93359z"/>
		<path class="st9" d="M326.03906,51.81722l2.83398-7.38135h1.05273l3.02051,7.38135h-1.1123l-0.86133-2.23535h-3.08594
			l-0.81055,2.23535H326.03906z M328.16797,48.78597h2.50293l-0.77051-2.04395c-0.23535-0.62109-0.40918-1.13135-0.52344-1.53076
			c-0.09375,0.47314-0.22656,0.94336-0.39746,1.40967L328.16797,48.78597z"/>
	</g>
	<g>
		<path class="st9" d="M301.05859,101.87289v-7.38135h1.00195l3.87695,5.79541v-5.79541h0.93652v7.38135h-1.00195l-3.87695-5.80029
			v5.80029H301.05859z"/>
		<path class="st9" d="M308.18359,99.5013l0.92188-0.08057c0.04395,0.36914,0.14551,0.67236,0.30469,0.90869
			c0.15918,0.23682,0.40723,0.42822,0.74219,0.57422c0.33594,0.146,0.71387,0.21924,1.13281,0.21924
			c0.37305,0,0.70215-0.05566,0.9873-0.1665s0.49707-0.2627,0.63672-0.45557s0.20898-0.40381,0.20898-0.63184
			c0-0.23145-0.06738-0.43408-0.20117-0.60693c-0.13477-0.17285-0.35547-0.31787-0.66504-0.43555
			c-0.19824-0.07715-0.63574-0.19678-1.31348-0.35986c-0.67871-0.1626-1.15332-0.31641-1.4248-0.46045
			c-0.35254-0.18457-0.61523-0.41406-0.78809-0.6875s-0.25977-0.58008-0.25977-0.91895c0-0.37256,0.10547-0.7207,0.31738-1.04492
			c0.21094-0.32373,0.52051-0.56934,0.92676-0.7373c0.40527-0.16797,0.85742-0.25195,1.35449-0.25195
			c0.54688,0,1.0293,0.08838,1.44727,0.26416c0.41797,0.17627,0.73926,0.43555,0.96387,0.77832
			c0.22461,0.34229,0.3457,0.72998,0.3623,1.16309l-0.93652,0.07031c-0.0498-0.46631-0.2207-0.81885-0.51074-1.05713
			c-0.29004-0.23877-0.71875-0.35791-1.28613-0.35791c-0.59082,0-1.02148,0.1084-1.29199,0.3252
			c-0.26953,0.21631-0.40527,0.47754-0.40527,0.78271c0,0.26514,0.0957,0.4834,0.28711,0.65479
			c0.18848,0.1709,0.67871,0.34619,1.47266,0.52588s1.33887,0.33643,1.63379,0.4707
			c0.42969,0.19824,0.74707,0.44922,0.95215,0.75293c0.2041,0.30371,0.30664,0.65381,0.30664,1.0498
			c0,0.39258-0.1123,0.7627-0.33691,1.11035c-0.22461,0.34717-0.54785,0.61768-0.96973,0.81055
			c-0.4209,0.19287-0.89551,0.28955-1.42188,0.28955c-0.66797,0-1.22754-0.09766-1.67969-0.29199
			c-0.45117-0.19482-0.80566-0.48779-1.0625-0.87891C308.33203,100.43734,308.19727,99.99496,308.18359,99.5013z"/>
		<path class="st9" d="M315.36426,101.87289v-7.38135h1.46973l1.74707,5.22656c0.16113,0.48633,0.2793,0.85059,0.35254,1.09229
			c0.08398-0.26855,0.21484-0.6626,0.39258-1.18311l1.76758-5.13574h1.31445v7.38135h-0.94141v-6.17822l-2.14551,6.17822h-0.88086
			l-2.13477-6.28369v6.28369H315.36426z"/>
		<path class="st9" d="M326.80762,101.87289v-7.38135h2.76953c0.56445,0,1.0166,0.07471,1.35742,0.22412
			c0.33984,0.14941,0.60742,0.37939,0.7998,0.68945c0.19336,0.31055,0.29004,0.63574,0.29004,0.97461
			c0,0.31543-0.08594,0.6123-0.25684,0.89111s-0.42969,0.50342-0.77539,0.6748c0.44629,0.13086,0.79004,0.354,1.0293,0.66943
			c0.24023,0.31592,0.36035,0.68848,0.36035,1.11768c0,0.34619-0.07324,0.66748-0.21875,0.96436
			c-0.14648,0.29736-0.32715,0.52637-0.54199,0.6875s-0.4834,0.28271-0.80762,0.36475
			c-0.32422,0.08252-0.7207,0.12354-1.19043,0.12354H326.80762z M327.78516,97.5931h1.5957
			c0.43262,0,0.74316-0.02832,0.93164-0.08545c0.24805-0.07373,0.43555-0.19678,0.56152-0.36768
			c0.12598-0.17139,0.18848-0.38623,0.18848-0.64453c0-0.24512-0.05859-0.46094-0.17578-0.64697
			c-0.11816-0.18652-0.28613-0.31396-0.50391-0.38281s-0.59277-0.10303-1.12305-0.10303h-1.47461V97.5931z M327.78516,101.00179
			h1.83789c0.31543,0,0.53613-0.01172,0.66406-0.03516c0.22461-0.04053,0.41309-0.10742,0.56445-0.20166
			c0.15039-0.09375,0.27441-0.23047,0.37207-0.41016s0.14648-0.38672,0.14648-0.62207c0-0.2749-0.07129-0.51416-0.21191-0.71729
			s-0.33691-0.3457-0.58691-0.42773c-0.25-0.08252-0.60938-0.12354-1.08008-0.12354h-1.70605V101.00179z"/>
	</g>
	<g>
		<g>
			<path class="st9" d="M108.25098,111.05209l-0.05957-0.61621c0.27441-0.0293,0.49951-0.09668,0.67529-0.2041
				c0.17627-0.10645,0.31836-0.27148,0.42676-0.49609c0.10889-0.22461,0.16309-0.47803,0.16309-0.75879
				c0-0.24902-0.0415-0.46924-0.12354-0.66016c-0.08252-0.19092-0.19531-0.33301-0.33887-0.42627s-0.2998-0.13965-0.46973-0.13965
				c-0.17236,0-0.32275,0.04492-0.45117,0.13477s-0.23633,0.23779-0.32373,0.44482
				c-0.05713,0.13232-0.14648,0.42529-0.26758,0.87891c-0.12109,0.4541-0.23535,0.77148-0.34229,0.9541
				c-0.13721,0.23535-0.30762,0.41113-0.51123,0.52734c-0.20312,0.11523-0.43115,0.17285-0.68311,0.17285
				c-0.27686,0-0.53564-0.07031-0.77686-0.21191c-0.24072-0.1416-0.42334-0.34863-0.54834-0.62012
				c-0.12451-0.27148-0.18701-0.57324-0.18701-0.90625c0-0.36621,0.06543-0.68896,0.19678-0.96875
				c0.13086-0.2793,0.32373-0.49463,0.57812-0.64502s0.54297-0.23145,0.86475-0.24268l0.05225,0.62695
				c-0.34668,0.03369-0.60889,0.14746-0.78613,0.3418s-0.26562,0.48096-0.26562,0.86084c0,0.39502,0.08057,0.68311,0.24121,0.86377
				c0.16113,0.18164,0.35498,0.27148,0.58203,0.27148c0.19727,0,0.35938-0.06348,0.48682-0.19238
				c0.12744-0.125,0.25781-0.4541,0.39111-0.98535c0.13379-0.53076,0.25049-0.89551,0.3501-1.09277
				c0.14746-0.2876,0.3335-0.5,0.55957-0.63672c0.22607-0.13721,0.48584-0.20557,0.78027-0.20557
				c0.29199,0,0.56738,0.0752,0.82568,0.22559s0.45898,0.3667,0.60254,0.64844s0.21533,0.59912,0.21533,0.95166
				c0,0.44727-0.07275,0.82227-0.21729,1.12402s-0.3623,0.53906-0.65332,0.71094
				C108.94678,110.95345,108.61816,111.0433,108.25098,111.05209z"/>
			<path class="st9" d="M110.01416,106.31918h-5.4873v-0.60645h5.4873V106.31918z"/>
			<path class="st9" d="M108.02637,104.99837c-0.73584,0-1.28125-0.18408-1.63574-0.55273
				c-0.29443-0.30762-0.44141-0.68262-0.44141-1.125c0-0.4917,0.1792-0.89404,0.53711-1.20605s0.85254-0.46826,1.48389-0.46826
				c0.51172,0,0.91406,0.06885,1.20752,0.20703c0.29297,0.13818,0.521,0.33936,0.68311,0.60303
				c0.16211,0.26416,0.24316,0.55225,0.24316,0.86426c0,0.50098-0.17822,0.90576-0.53516,1.21436
				C109.21191,104.84408,108.69775,104.99837,108.02637,104.99837z M108.02637,104.37484c0.50928,0,0.89062-0.09961,1.14355-0.2998
				c0.25342-0.19971,0.37988-0.45117,0.37988-0.75439c0-0.30078-0.12695-0.55127-0.38184-0.75146
				c-0.25439-0.19971-0.64209-0.2998-1.16406-0.2998c-0.49121,0-0.86377,0.10059-1.11719,0.30176s-0.37988,0.45068-0.37988,0.74951
				c0,0.30322,0.12598,0.55469,0.37793,0.75439C107.13721,104.27523,107.51758,104.37484,108.02637,104.37484z"/>
			<path class="st9" d="M109.41162,99.61166l0.59521-0.0874c0.03955,0.17041,0.05957,0.32324,0.05957,0.45801
				c0,0.22021-0.03857,0.39062-0.11572,0.51221c-0.07764,0.12109-0.1792,0.20654-0.30518,0.25586s-0.39111,0.07422-0.79541,0.07422
				h-2.28711v0.44482h-0.52393v-0.44482h-0.98438l-0.4043-0.60303h1.38867v-0.60986h0.52393v0.60986h2.32471
				c0.19189,0,0.31543-0.01074,0.37012-0.03223c0.05518-0.021,0.09863-0.05615,0.13135-0.104
				c0.03223-0.04834,0.04834-0.11768,0.04834-0.20752C109.4375,99.81039,109.4292,99.72201,109.41162,99.61166z"/>
			<path class="st9" d="M110.01416,94.98666v0.60645h-4.29346c0.15479,0.146,0.30957,0.3374,0.46436,0.57422
				s0.27051,0.44971,0.34814,0.63818h-0.65137c-0.17725-0.33887-0.3916-0.63525-0.64404-0.88916
				c-0.25195-0.25391-0.49658-0.43359-0.7334-0.53906v-0.39062H110.01416z"/>
			<path class="st9" d="M107.30811,93.43343c-0.64893,0-1.17139-0.06006-1.56689-0.18066
				c-0.39551-0.12012-0.7002-0.29834-0.91504-0.53564c-0.21436-0.23682-0.32178-0.53467-0.32178-0.89404
				c0-0.26514,0.05908-0.49756,0.17773-0.69727c0.11865-0.2002,0.28955-0.36523,0.5127-0.49561
				c0.22363-0.12988,0.49561-0.23242,0.81592-0.30664c0.3208-0.07373,0.75293-0.11084,1.29736-0.11084
				c0.64355,0,1.16309,0.05957,1.55859,0.17822c0.39551,0.11914,0.70166,0.29736,0.91748,0.53418s0.32373,0.53613,0.32373,0.89795
				c0,0.47607-0.18994,0.8501-0.56934,1.12158C109.08203,93.27035,108.33838,93.43343,107.30811,93.43343z M107.30811,92.8099
				c0.90088,0,1.5-0.09473,1.79834-0.28467c0.29834-0.18945,0.44727-0.42383,0.44727-0.70215
				c0-0.27881-0.1499-0.5127-0.44922-0.70264c-0.29932-0.18945-0.89844-0.28467-1.79639-0.28467
				c-0.90332,0-1.50391,0.09521-1.80078,0.28467c-0.29688,0.18994-0.44531,0.42627-0.44531,0.70898
				c0,0.27881,0.13086,0.50098,0.39307,0.66748C105.78955,92.70541,106.40723,92.8099,107.30811,92.8099z"/>
		</g>
	</g>
	<g>
		<rect x="113.63782" y="162.17207" class="st8" width="32.02113" height="15.16914"/>
		<rect x="100.29299" y="162.17207" class="st8" width="13.88585" height="30.22987"/>
	</g>
	<g>
		<rect x="114.34725" y="177.34122" class="st8" width="31.3117" height="15.16914"/>
		<rect x="113.63782" y="216.94533" class="st8" width="32.02113" height="15.16914"/>
		<rect x="100.29299" y="216.94533" class="st8" width="13.88585" height="30.33829"/>
		<rect x="114.34725" y="232.11447" class="st8" width="31.3117" height="15.16914"/>
	</g>
	<g>
		<g>
			<path class="st9" d="M130.53662,227.78647c-0.33545,0.28516-0.65869,0.48633-0.96924,0.60352
				c-0.31055,0.11816-0.64355,0.17676-0.99951,0.17676c-0.5874,0-1.03906-0.14355-1.35449-0.43066s-0.47314-0.65332-0.47314-1.10059
				c0-0.26172,0.05957-0.50098,0.17871-0.7168c0.11914-0.2168,0.27539-0.39062,0.46826-0.52148s0.41064-0.22949,0.65234-0.29688
				c0.17773-0.04688,0.44629-0.09277,0.80518-0.13574c0.73193-0.08789,1.27051-0.19141,1.6167-0.3125
				c0.00293-0.12402,0.00488-0.20312,0.00488-0.23633c0-0.36914-0.08545-0.62988-0.25684-0.78125
				c-0.23145-0.2041-0.57568-0.30664-1.03223-0.30664c-0.42627,0-0.74121,0.07422-0.94385,0.22363
				c-0.20312,0.14941-0.35352,0.41406-0.45068,0.79297l-0.88623-0.12012c0.08057-0.37988,0.21289-0.68555,0.39746-0.91895
				s0.45166-0.41309,0.80078-0.53906s0.75342-0.18848,1.21338-0.18848c0.45654,0,0.82764,0.05371,1.11279,0.16113
				s0.49512,0.24219,0.62939,0.40527c0.13428,0.16211,0.22803,0.36816,0.28174,0.61621
				c0.03027,0.1543,0.04541,0.43359,0.04541,0.83594v1.20898c0,0.8418,0.01953,1.375,0.05811,1.59863
				c0.03857,0.22266,0.11475,0.43652,0.229,0.6416h-0.94678C130.62402,228.25815,130.56348,228.03745,130.53662,227.78647z
				 M130.46143,225.76205c-0.3291,0.13379-0.82275,0.24805-1.48047,0.34277c-0.37256,0.05371-0.63623,0.11328-0.79053,0.18066
				s-0.27393,0.16504-0.35742,0.29492c-0.08398,0.12891-0.12598,0.27246-0.12598,0.43066c0,0.24121,0.09131,0.44238,0.27441,0.60352
				s0.45068,0.24219,0.80322,0.24219c0.34912,0,0.65967-0.07617,0.93115-0.22949c0.27197-0.15234,0.47168-0.36133,0.59912-0.62695
				c0.09766-0.2041,0.14648-0.50684,0.14648-0.90625V225.76205z"/>
		</g>
	</g>
	<g>
		<g>
			<path class="st9" d="M127.8833,243.12143h-0.84082v-7.38184h0.90625v2.63379c0.38281-0.48047,0.87109-0.71973,1.46533-0.71973
				c0.32861,0,0.64014,0.06641,0.93359,0.19824c0.29395,0.13281,0.53564,0.31934,0.7251,0.55957
				c0.18994,0.23926,0.33838,0.5293,0.4458,0.86816s0.16113,0.70117,0.16113,1.08789c0,0.91602-0.22656,1.62402-0.67969,2.125
				c-0.45312,0.5-0.99707,0.75-1.63135,0.75c-0.63135,0-1.12646-0.26367-1.48535-0.79102V243.12143z M127.87305,240.40756
				c0,0.6416,0.0874,1.10449,0.26172,1.38965c0.28564,0.4668,0.67139,0.7002,1.1582,0.7002c0.396,0,0.73828-0.17188,1.02734-0.5166
				c0.28857-0.34375,0.43311-0.85645,0.43311-1.53809c0-0.69824-0.13867-1.21387-0.41553-1.5459s-0.61182-0.49805-1.00439-0.49805
				c-0.39648,0-0.73877,0.17188-1.02734,0.51562C128.01758,239.25912,127.87305,239.7562,127.87305,240.40756z"/>
		</g>
	</g>
	<g>
		<g>
			<path class="st9" d="M130.53662,41.23226c-0.33545,0.28564-0.65869,0.48682-0.96924,0.60449
				c-0.31055,0.11719-0.64355,0.17578-0.99951,0.17578c-0.5874,0-1.03906-0.14307-1.35449-0.43018s-0.47314-0.65381-0.47314-1.1001
				c0-0.26221,0.05957-0.50098,0.17871-0.71777c0.11914-0.21631,0.27539-0.39014,0.46826-0.521s0.41064-0.22998,0.65234-0.29688
				c0.17773-0.04736,0.44629-0.09229,0.80518-0.13623c0.73193-0.0874,1.27051-0.19141,1.6167-0.31201
				c0.00293-0.12402,0.00488-0.20312,0.00488-0.23682c0-0.36914-0.08545-0.62939-0.25684-0.78027
				c-0.23145-0.20459-0.57568-0.30713-1.03223-0.30713c-0.42627,0-0.74121,0.07471-0.94385,0.22412
				c-0.20312,0.14941-0.35352,0.41357-0.45068,0.79297l-0.88623-0.12109c0.08057-0.37891,0.21289-0.68555,0.39746-0.91895
				c0.18457-0.23291,0.45166-0.4126,0.80078-0.53857s0.75342-0.18896,1.21338-0.18896c0.45654,0,0.82764,0.05371,1.11279,0.16113
				s0.49512,0.24268,0.62939,0.40527c0.13428,0.16309,0.22803,0.36865,0.28174,0.61719
				c0.03027,0.1543,0.04541,0.43262,0.04541,0.83545v1.2085c0,0.84277,0.01953,1.37549,0.05811,1.59863
				c0.03857,0.22363,0.11475,0.4375,0.229,0.64209h-0.94678C130.62402,41.70394,130.56348,41.48421,130.53662,41.23226z
				 M130.46143,39.20834c-0.3291,0.13428-0.82275,0.24854-1.48047,0.34229c-0.37256,0.05371-0.63623,0.11426-0.79053,0.18115
				c-0.1543,0.06738-0.27393,0.16553-0.35742,0.29443c-0.08398,0.12939-0.12598,0.27295-0.12598,0.43066
				c0,0.2417,0.09131,0.44336,0.27441,0.60449s0.45068,0.2417,0.80322,0.2417c0.34912,0,0.65967-0.07666,0.93115-0.22949
				c0.27197-0.15234,0.47168-0.36133,0.59912-0.62646c0.09766-0.20508,0.14648-0.50684,0.14648-0.90674V39.20834z"/>
		</g>
	</g>
	<g>
		<g>
			<path class="st9" d="M127.8833,57.47591h-0.84082v-7.38135h0.90625v2.6333c0.38281-0.47998,0.87109-0.72021,1.46533-0.72021
				c0.32861,0,0.64014,0.06641,0.93359,0.19922c0.29395,0.13232,0.53564,0.31885,0.7251,0.55859
				c0.18994,0.24023,0.33838,0.52979,0.4458,0.86865c0.10742,0.33936,0.16113,0.70166,0.16113,1.0874
				c0,0.9165-0.22656,1.625-0.67969,2.125s-0.99707,0.75-1.63135,0.75c-0.63135,0-1.12646-0.26318-1.48535-0.79004V57.47591z
				 M127.87305,54.76205c0,0.64111,0.0874,1.10449,0.26172,1.38965c0.28564,0.4668,0.67139,0.69971,1.1582,0.69971
				c0.396,0,0.73828-0.17188,1.02734-0.51611c0.28857-0.34375,0.43311-0.85645,0.43311-1.53809
				c0-0.69824-0.13867-1.21338-0.41553-1.5459c-0.27686-0.33203-0.61182-0.49805-1.00439-0.49805
				c-0.39648,0-0.73877,0.17188-1.02734,0.51562C128.01758,53.61312,127.87305,54.11068,127.87305,54.76205z"/>
		</g>
	</g>
	<g>
		<g>
			<path class="st9" d="M130.53662,172.35385c-0.33545,0.28516-0.65869,0.48633-0.96924,0.60352
				c-0.31055,0.11816-0.64355,0.17676-0.99951,0.17676c-0.5874,0-1.03906-0.14355-1.35449-0.43066s-0.47314-0.65332-0.47314-1.10059
				c0-0.26172,0.05957-0.50098,0.17871-0.7168c0.11914-0.2168,0.27539-0.39062,0.46826-0.52148s0.41064-0.22949,0.65234-0.29688
				c0.17773-0.04688,0.44629-0.09277,0.80518-0.13574c0.73193-0.08789,1.27051-0.19141,1.6167-0.3125
				c0.00293-0.12402,0.00488-0.20312,0.00488-0.23633c0-0.36914-0.08545-0.62988-0.25684-0.78125
				c-0.23145-0.2041-0.57568-0.30664-1.03223-0.30664c-0.42627,0-0.74121,0.07422-0.94385,0.22363
				c-0.20312,0.14941-0.35352,0.41406-0.45068,0.79297l-0.88623-0.12012c0.08057-0.37988,0.21289-0.68555,0.39746-0.91895
				s0.45166-0.41309,0.80078-0.53906s0.75342-0.18848,1.21338-0.18848c0.45654,0,0.82764,0.05371,1.11279,0.16113
				s0.49512,0.24219,0.62939,0.40527c0.13428,0.16211,0.22803,0.36816,0.28174,0.61621
				c0.03027,0.1543,0.04541,0.43359,0.04541,0.83594v1.20898c0,0.8418,0.01953,1.375,0.05811,1.59863
				c0.03857,0.22266,0.11475,0.43652,0.229,0.6416h-0.94678C130.62402,172.82553,130.56348,172.60483,130.53662,172.35385z
				 M130.46143,170.32944c-0.3291,0.13379-0.82275,0.24805-1.48047,0.34277c-0.37256,0.05371-0.63623,0.11328-0.79053,0.18066
				s-0.27393,0.16504-0.35742,0.29492c-0.08398,0.12891-0.12598,0.27246-0.12598,0.43066c0,0.24121,0.09131,0.44238,0.27441,0.60352
				s0.45068,0.24219,0.80322,0.24219c0.34912,0,0.65967-0.07617,0.93115-0.22949c0.27197-0.15234,0.47168-0.36133,0.59912-0.62695
				c0.09766-0.2041,0.14648-0.50684,0.14648-0.90625V170.32944z"/>
		</g>
	</g>
	<g>
		<g>
			<path class="st9" d="M127.8833,188.59702h-0.84082v-7.38184h0.90625v2.63379c0.38281-0.48047,0.87109-0.71973,1.46533-0.71973
				c0.32861,0,0.64014,0.06641,0.93359,0.19824c0.29395,0.13281,0.53564,0.31934,0.7251,0.55957
				c0.18994,0.23926,0.33838,0.5293,0.4458,0.86816s0.16113,0.70117,0.16113,1.08789c0,0.91602-0.22656,1.62402-0.67969,2.125
				c-0.45312,0.5-0.99707,0.75-1.63135,0.75c-0.63135,0-1.12646-0.26367-1.48535-0.79102V188.59702z M127.87305,185.88315
				c0,0.6416,0.0874,1.10449,0.26172,1.38965c0.28564,0.4668,0.67139,0.7002,1.1582,0.7002c0.396,0,0.73828-0.17188,1.02734-0.5166
				c0.28857-0.34375,0.43311-0.85645,0.43311-1.53809c0-0.69824-0.13867-1.21387-0.41553-1.5459s-0.61182-0.49805-1.00439-0.49805
				c-0.39648,0-0.73877,0.17188-1.02734,0.51562C128.01758,184.73471,127.87305,185.23178,127.87305,185.88315z"/>
		</g>
	</g>
	<g>
		<g>
			<path class="st9" d="M108.25098,242.17612l-0.05957-0.61719c0.27441-0.0293,0.49951-0.09668,0.67529-0.20312
				c0.17627-0.10742,0.31836-0.27246,0.42676-0.49707c0.10889-0.22461,0.16309-0.47754,0.16309-0.75781
				c0-0.25-0.0415-0.46973-0.12354-0.66113c-0.08252-0.19043-0.19531-0.33203-0.33887-0.42578
				c-0.14355-0.09277-0.2998-0.13965-0.46973-0.13965c-0.17236,0-0.32275,0.04492-0.45117,0.13477s-0.23633,0.23828-0.32373,0.44434
				c-0.05713,0.13281-0.14648,0.42578-0.26758,0.87988c-0.12109,0.45312-0.23535,0.77148-0.34229,0.95312
				c-0.13721,0.23535-0.30762,0.41113-0.51123,0.52734c-0.20312,0.11523-0.43115,0.17285-0.68311,0.17285
				c-0.27686,0-0.53564-0.07031-0.77686-0.21191c-0.24072-0.1416-0.42334-0.34766-0.54834-0.62012
				c-0.12451-0.27148-0.18701-0.57324-0.18701-0.90625c0-0.36523,0.06543-0.68848,0.19678-0.96777
				c0.13086-0.28027,0.32373-0.49512,0.57812-0.64551s0.54297-0.23145,0.86475-0.24219l0.05225,0.62598
				c-0.34668,0.03418-0.60889,0.14844-0.78613,0.3418c-0.17725,0.19434-0.26562,0.48145-0.26562,0.86133
				c0,0.39551,0.08057,0.68359,0.24121,0.86426c0.16113,0.18066,0.35498,0.27051,0.58203,0.27051
				c0.19727,0,0.35938-0.06348,0.48682-0.19141c0.12744-0.12598,0.25781-0.4541,0.39111-0.98535
				c0.13379-0.53125,0.25049-0.89551,0.3501-1.09375c0.14746-0.28711,0.3335-0.49902,0.55957-0.63672
				c0.22607-0.13672,0.48584-0.20508,0.78027-0.20508c0.29199,0,0.56738,0.0752,0.82568,0.22559s0.45898,0.36621,0.60254,0.64844
				s0.21533,0.59961,0.21533,0.95215c0,0.44629-0.07275,0.82129-0.21729,1.12305s-0.3623,0.53906-0.65332,0.71094
				C108.94678,242.07651,108.61816,242.16635,108.25098,242.17612z"/>
			<path class="st9" d="M110.01416,237.44272h-5.4873v-0.60645h5.4873V237.44272z"/>
			<path class="st9" d="M108.02637,236.12143c-0.73584,0-1.28125-0.18359-1.63574-0.55176
				c-0.29443-0.30762-0.44141-0.68262-0.44141-1.12598c0-0.49121,0.1792-0.89355,0.53711-1.20508
				c0.35791-0.3125,0.85254-0.46875,1.48389-0.46875c0.51172,0,0.91406,0.06934,1.20752,0.20703
				c0.29297,0.13867,0.521,0.33887,0.68311,0.60352c0.16211,0.26367,0.24316,0.55176,0.24316,0.86328
				c0,0.50098-0.17822,0.90625-0.53516,1.21484S108.69775,236.12143,108.02637,236.12143z M108.02637,235.49838
				c0.50928,0,0.89062-0.09961,1.14355-0.2998c0.25342-0.19922,0.37988-0.45117,0.37988-0.75488
				c0-0.30078-0.12695-0.55078-0.38184-0.75098c-0.25439-0.19922-0.64209-0.2998-1.16406-0.2998
				c-0.49121,0-0.86377,0.10059-1.11719,0.30176s-0.37988,0.45117-0.37988,0.74902c0,0.30371,0.12598,0.55566,0.37793,0.75488
				C107.13721,235.39877,107.51758,235.49838,108.02637,235.49838z"/>
			<path class="st9" d="M109.41162,230.73569l0.59521-0.08789c0.03955,0.1709,0.05957,0.32324,0.05957,0.45801
				c0,0.21973-0.03857,0.39062-0.11572,0.51172c-0.07764,0.12207-0.1792,0.20703-0.30518,0.25684
				c-0.12598,0.04883-0.39111,0.07324-0.79541,0.07324h-2.28711v0.44531h-0.52393v-0.44531h-0.98438l-0.4043-0.60254h1.38867
				v-0.60938h0.52393v0.60938h2.32471c0.19189,0,0.31543-0.01074,0.37012-0.03223c0.05518-0.02148,0.09863-0.05566,0.13135-0.10449
				c0.03223-0.04785,0.04834-0.11719,0.04834-0.20703C109.4375,230.93393,109.4292,230.84506,109.41162,230.73569z"/>
			<path class="st9" d="M110.01416,226.10971v0.60645h-4.29346c0.15479,0.14551,0.30957,0.33691,0.46436,0.57422
				s0.27051,0.4502,0.34814,0.63867h-0.65137c-0.17725-0.33984-0.3916-0.63574-0.64404-0.88965
				c-0.25195-0.25391-0.49658-0.43359-0.7334-0.53906v-0.39062H110.01416z"/>
			<path class="st9" d="M107.30811,224.55698c-0.64893,0-1.17139-0.06055-1.56689-0.18066s-0.7002-0.29883-0.91504-0.53516
				c-0.21436-0.2373-0.32178-0.53516-0.32178-0.89453c0-0.26562,0.05908-0.49805,0.17773-0.69727
				c0.11865-0.2002,0.28955-0.36523,0.5127-0.49512c0.22363-0.13086,0.49561-0.23242,0.81592-0.30664
				c0.3208-0.07422,0.75293-0.11133,1.29736-0.11133c0.64355,0,1.16309,0.05957,1.55859,0.17871s0.70166,0.29688,0.91748,0.5332
				c0.21582,0.2373,0.32373,0.53711,0.32373,0.89844c0,0.47559-0.18994,0.84961-0.56934,1.12207
				C109.08203,224.39389,108.33838,224.55698,107.30811,224.55698z M107.30811,223.93393c0.90088,0,1.5-0.0957,1.79834-0.28516
				s0.44727-0.42383,0.44727-0.70215s-0.1499-0.5127-0.44922-0.70215c-0.29932-0.19043-0.89844-0.28516-1.79639-0.28516
				c-0.90332,0-1.50391,0.09473-1.80078,0.28516c-0.29688,0.18945-0.44531,0.42578-0.44531,0.70898
				c0,0.27832,0.13086,0.50098,0.39307,0.66699C105.78955,223.82944,106.40723,223.93393,107.30811,223.93393z"/>
		</g>
	</g>
	<g>
		<g>
			<g>
				<path class="st9" d="M108.21484,185.78159l-0.05957-0.61719c0.27441-0.0293,0.49951-0.09668,0.67529-0.20312
					c0.17627-0.10742,0.31836-0.27246,0.42676-0.49707c0.10889-0.22461,0.16309-0.47754,0.16309-0.75781
					c0-0.25-0.0415-0.46973-0.12354-0.66113c-0.08252-0.19043-0.19531-0.33203-0.33887-0.42578
					c-0.14355-0.09277-0.2998-0.13965-0.46973-0.13965c-0.17236,0-0.32275,0.04492-0.45117,0.13477
					s-0.23633,0.23828-0.32373,0.44434c-0.05713,0.13281-0.14648,0.42578-0.26758,0.87988
					c-0.12109,0.45312-0.23535,0.77148-0.34229,0.95312c-0.13721,0.23535-0.30762,0.41113-0.51123,0.52734
					c-0.20312,0.11523-0.43115,0.17285-0.68311,0.17285c-0.27686,0-0.53564-0.07031-0.77686-0.21191
					c-0.24072-0.1416-0.42334-0.34766-0.54834-0.62012c-0.12451-0.27148-0.18701-0.57324-0.18701-0.90625
					c0-0.36523,0.06543-0.68848,0.19678-0.96777c0.13086-0.28027,0.32373-0.49512,0.57812-0.64551s0.54297-0.23145,0.86475-0.24219
					l0.05225,0.62598c-0.34668,0.03418-0.60889,0.14844-0.78613,0.3418c-0.17725,0.19434-0.26562,0.48145-0.26562,0.86133
					c0,0.39551,0.08057,0.68359,0.24121,0.86426c0.16113,0.18066,0.35498,0.27051,0.58203,0.27051
					c0.19727,0,0.35938-0.06348,0.48682-0.19141c0.12744-0.12598,0.25781-0.4541,0.39111-0.98535
					c0.13379-0.53125,0.25049-0.89551,0.3501-1.09375c0.14746-0.28711,0.3335-0.49902,0.55957-0.63672
					c0.22607-0.13672,0.48584-0.20508,0.78027-0.20508c0.29199,0,0.56738,0.0752,0.82568,0.22559s0.45898,0.36621,0.60254,0.64844
					s0.21533,0.59961,0.21533,0.95215c0,0.44629-0.07275,0.82129-0.21729,1.12305s-0.3623,0.53906-0.65332,0.71094
					C108.91064,185.68198,108.58203,185.77182,108.21484,185.78159z"/>
				<path class="st9" d="M109.97803,181.04819h-5.4873v-0.60645h5.4873V181.04819z"/>
				<path class="st9" d="M107.99023,179.7269c-0.73584,0-1.28125-0.18359-1.63574-0.55176
					c-0.29443-0.30762-0.44141-0.68262-0.44141-1.12598c0-0.49121,0.1792-0.89355,0.53711-1.20508
					c0.35791-0.3125,0.85254-0.46875,1.48389-0.46875c0.51172,0,0.91406,0.06934,1.20752,0.20703
					c0.29297,0.13867,0.521,0.33887,0.68311,0.60352c0.16211,0.26367,0.24316,0.55176,0.24316,0.86328
					c0,0.50098-0.17822,0.90625-0.53516,1.21484S108.66162,179.7269,107.99023,179.7269z M107.99023,179.10385
					c0.50928,0,0.89062-0.09961,1.14355-0.2998c0.25342-0.19922,0.37988-0.45117,0.37988-0.75488
					c0-0.30078-0.12695-0.55078-0.38184-0.75098c-0.25439-0.19922-0.64209-0.2998-1.16406-0.2998
					c-0.49121,0-0.86377,0.10059-1.11719,0.30176s-0.37988,0.45117-0.37988,0.74902c0,0.30371,0.12598,0.55566,0.37793,0.75488
					C107.10107,179.00424,107.48145,179.10385,107.99023,179.10385z"/>
				<path class="st9" d="M109.37549,174.34116l0.59521-0.08789c0.03955,0.1709,0.05957,0.32324,0.05957,0.45801
					c0,0.21973-0.03857,0.39062-0.11572,0.51172c-0.07764,0.12207-0.1792,0.20703-0.30518,0.25684
					c-0.12598,0.04883-0.39111,0.07324-0.79541,0.07324h-2.28711v0.44531h-0.52393v-0.44531h-0.98438l-0.4043-0.60254h1.38867
					v-0.60938h0.52393v0.60938h2.32471c0.19189,0,0.31543-0.01074,0.37012-0.03223c0.05518-0.02148,0.09863-0.05566,0.13135-0.10449
					c0.03223-0.04785,0.04834-0.11719,0.04834-0.20703C109.40137,174.5394,109.39307,174.45053,109.37549,174.34116z"/>
				<path class="st9" d="M109.33057,168.81186h0.64746v3.26465c-0.16211,0.00488-0.31836-0.01855-0.46777-0.07031
					c-0.24707-0.08301-0.49023-0.2168-0.72998-0.39941c-0.23975-0.18359-0.5166-0.44727-0.83105-0.79395
					c-0.48926-0.53613-0.87646-0.89941-1.16211-1.08789s-0.55615-0.2832-0.81055-0.2832c-0.26709,0-0.49219,0.08594-0.67578,0.25781
					c-0.18311,0.17188-0.2749,0.39648-0.2749,0.67285c0,0.29199,0.09717,0.52539,0.29199,0.7002
					c0.19482,0.17578,0.46387,0.26367,0.80859,0.2666l-0.07129,0.62305c-0.5166-0.04297-0.91016-0.20312-1.18066-0.48145
					c-0.271-0.2793-0.40625-0.65332-0.40625-1.12207c0-0.47363,0.146-0.84961,0.43799-1.125
					c0.29199-0.27637,0.65381-0.41504,1.08545-0.41504c0.21973,0,0.43555,0.04102,0.64746,0.12109
					c0.21191,0.08105,0.43555,0.21582,0.66992,0.40332c0.23486,0.1875,0.55664,0.49902,0.96582,0.93457
					c0.33936,0.36426,0.56982,0.59766,0.69043,0.70117c0.12109,0.10254,0.24268,0.18848,0.36523,0.25586V168.81186z"/>
			</g>
		</g>
	</g>
</g>
</svg>
