<?xml version="1.0" encoding="utf-8"?>
<!-- Generator: Adobe Illustrator 26.0.3, SVG Export Plug-In . SVG Version: 6.00 Build 0)  -->
<svg version="1.1" id="HIC" xmlns="http://www.w3.org/2000/svg" xmlns:xlink="http://www.w3.org/1999/xlink" x="0px" y="0px"
	 viewBox="0 0 378 262.6" style="enable-background:new 0 0 378 262.6;" xml:space="preserve">
<style type="text/css">
	.st0{fill-rule:evenodd;clip-rule:evenodd;fill:#D0D2D3;}
	.st1{fill:none;stroke:#231F20;stroke-width:0.5;stroke-linecap:round;stroke-linejoin:round;stroke-miterlimit:10;}
	.st2{fill:none;stroke:#231F20;stroke-width:0.5;stroke-linecap:round;stroke-linejoin:round;}
	.st3{fill:none;stroke:#231F20;stroke-width:0.4875;stroke-linecap:round;stroke-linejoin:round;stroke-miterlimit:10;}
	.st4{fill:none;stroke:#231F20;stroke-width:0.4505;stroke-linecap:round;stroke-linejoin:round;stroke-miterlimit:10;}
	.st5{fill:none;stroke:#231F20;stroke-width:0.4409;stroke-linecap:round;stroke-linejoin:round;stroke-miterlimit:10;}
	.st6{fill:none;stroke:#231F20;stroke-width:0.5145;stroke-linecap:round;stroke-linejoin:round;stroke-miterlimit:10;}
	.st7{fill:#231F20;}
	.st8{font-family:'Arial-BoldMT';}
	.st9{font-size:4.6807px;}
	.st10{fill:none;stroke:#231F20;stroke-width:0.479;stroke-linecap:round;stroke-linejoin:round;stroke-miterlimit:10;}
	.st11{fill:none;stroke:#231F20;stroke-width:0.5507;stroke-linecap:round;stroke-linejoin:round;stroke-miterlimit:10;}
	.st12{fill:none;stroke:#231F20;stroke-width:0.5286;stroke-linecap:round;stroke-linejoin:round;stroke-miterlimit:10;}
	.st13{fill:none;stroke:#231F20;stroke-width:0.3566;stroke-linecap:round;stroke-linejoin:round;stroke-miterlimit:10;}
	.st14{fill:none;stroke:#231F20;stroke-width:0.4045;stroke-linecap:round;stroke-linejoin:round;stroke-miterlimit:10;}
	.st15{fill:none;stroke:#231F20;stroke-width:0.4035;stroke-linecap:round;stroke-linejoin:round;stroke-miterlimit:10;}
	.st16{fill:none;stroke:#231F20;stroke-width:0.583;stroke-linecap:round;stroke-linejoin:round;stroke-miterlimit:10;}
	.st17{fill:none;stroke:#231F20;stroke-width:0.5977;stroke-linecap:round;stroke-linejoin:round;stroke-miterlimit:10;}
	.st18{fill:#FFFFFF;}
	.st19{fill:none;stroke:#231F20;stroke-width:0.4737;stroke-linecap:round;stroke-linejoin:round;stroke-miterlimit:10;}
	.st20{fill:none;stroke:#231F20;stroke-width:0.464;stroke-linecap:round;stroke-linejoin:round;stroke-miterlimit:10;}
	.st21{fill:none;stroke:#231F20;stroke-width:0.4068;stroke-linecap:round;stroke-linejoin:round;stroke-miterlimit:10;}
	.st22{fill:none;stroke:#231F20;stroke-width:0.4365;stroke-linecap:round;stroke-linejoin:round;stroke-miterlimit:10;}
	.st23{fill:#FFFFFF;stroke:#FFFFFF;stroke-width:3;stroke-linecap:round;stroke-linejoin:round;stroke-miterlimit:10;}
	
		.st24{fill:#FFFFFF;stroke:#231F20;stroke-width:0.75;stroke-linecap:round;stroke-linejoin:round;stroke-miterlimit:10;stroke-dasharray:2;}
	.st25{fill-rule:evenodd;clip-rule:evenodd;stroke:#FFFFFF;stroke-width:0.8;stroke-miterlimit:10;}
	.st26{font-family:'Helvetica';}
	.st27{font-size:16.7027px;}
	.st28{fill-rule:evenodd;clip-rule:evenodd;fill:#FFFFFF;stroke:#000000;stroke-width:0.5;stroke-miterlimit:10;}
	.st29{font-size:18px;}
	.st30{fill:none;stroke:#231F20;stroke-width:0.5012;stroke-linecap:round;stroke-linejoin:round;stroke-miterlimit:10;}
	.st31{fill:none;stroke:#231F20;stroke-width:0.25;stroke-linecap:round;stroke-linejoin:round;stroke-miterlimit:10;}
	.st32{fill:none;stroke:#231F20;stroke-width:0.3156;stroke-linecap:round;stroke-linejoin:round;stroke-miterlimit:10;}
	.st33{fill:none;stroke:#231F20;stroke-width:0.5359;stroke-linecap:round;stroke-linejoin:round;stroke-miterlimit:10;}
	.st34{fill:none;stroke:#231F20;stroke-width:0.4112;stroke-linecap:round;stroke-linejoin:round;stroke-miterlimit:10;}
	.st35{fill:none;stroke:#231F20;stroke-width:0.2051;stroke-linecap:round;stroke-linejoin:round;stroke-miterlimit:10;}
	.st36{fill:none;stroke:#231F20;stroke-width:0.259;stroke-linecap:round;stroke-linejoin:round;stroke-miterlimit:10;}
	.st37{fill:none;stroke:#231F20;stroke-width:0.3861;stroke-linecap:round;stroke-linejoin:round;stroke-miterlimit:10;}
	.st38{fill:none;stroke:#231F20;stroke-width:0.1926;stroke-linecap:round;stroke-linejoin:round;stroke-miterlimit:10;}
	.st39{fill:none;stroke:#231F20;stroke-width:0.2432;stroke-linecap:round;stroke-linejoin:round;stroke-miterlimit:10;}
	.st40{fill:none;stroke:#D0CFCD;stroke-width:0.6349;stroke-linecap:round;stroke-linejoin:round;stroke-miterlimit:10;}
	.st41{fill:none;stroke:#D0CFCD;stroke-width:0.25;stroke-linecap:round;stroke-linejoin:round;stroke-miterlimit:10;}
	.st42{fill:#231F20;stroke:#FFFFFF;stroke-width:0.7829;stroke-miterlimit:10;}
	.st43{clip-path:url(#SVGID_00000019661983244892388280000013659973822971605931_);}
	.st44{fill:none;stroke:#231F20;stroke-width:0.5;stroke-miterlimit:10;}
	.st45{fill:none;stroke:#231F20;stroke-width:0.25;stroke-miterlimit:10;}
	.st46{fill:#231F20;stroke:#FFFFFF;stroke-width:0.8527;stroke-miterlimit:10;}
	.st47{fill:none;stroke:#A6A8AB;stroke-linecap:round;stroke-linejoin:round;stroke-miterlimit:10;}
	.st48{enable-background:new    ;}
	.st49{font-size:14px;}
	.st50{letter-spacing:-2;}
	.st51{clip-path:url(#SVGID_00000029017819406163346480000013546452011711635896_);}
	.st52{clip-path:url(#SVGID_00000183246796419867025150000011943955806509447581_);fill:#231F20;}
	.st53{fill:#231F20;stroke:#FFFFFF;stroke-width:0.5;stroke-linecap:round;stroke-linejoin:round;stroke-miterlimit:10;}
	.st54{fill:#FFFFFF;stroke:#FFFFFF;stroke-linecap:round;stroke-linejoin:round;stroke-miterlimit:10;}
	.st55{fill:none;stroke:#FFFFFF;stroke-width:5;stroke-linecap:round;stroke-linejoin:round;stroke-miterlimit:10;}
	.st56{fill:none;stroke:#231F20;stroke-linecap:round;stroke-linejoin:round;stroke-dasharray:5,3;}
	.st57{clip-path:url(#SVGID_00000100353784843199204600000001830757190010834331_);}
	.st58{fill:#FFFFFF;stroke:#231F20;stroke-width:0.4175;stroke-miterlimit:10;}
	.st59{fill:#FFFFFF;stroke:#231F20;stroke-width:0.4175;stroke-linecap:round;stroke-linejoin:round;stroke-miterlimit:10;}
	.st60{fill:none;stroke:#231F20;stroke-width:0.4175;stroke-linecap:round;stroke-linejoin:round;stroke-miterlimit:10;}
	.st61{fill:#231F20;stroke:#FFFFFF;stroke-width:0.4175;stroke-linecap:round;stroke-linejoin:round;stroke-miterlimit:10;}
</style>
<path class="st0" d="M199.4,188.1l-9,4.5l-2.9-1.6c0,0-0.6-0.5-2.2,0.1l-8.4,4.3l-0.1,3.8l-3.1,1.5l0-3.5l-7.9-3.8l-18.8-9.3
	l-14.5,7.6l-5.4-2.7l2.1-1l0.1-3.9c0,0-1.6-0.4-1.4-2.7c0.2-2.3,0.1-4,0.1-4s0.8-1.8,3.4-1.7s3.5,1.2,3.7,2.1l-0.1,0.6l8.8-4.4h0.9
	l-0.1-0.6l2.6-1.3l0.1,2.2l0.9-0.4l0.1-2.5l2.3-1.1l0.1,2.2l1-0.5l0.1-2.3l2.3-1.1v2.3l1.1-0.5l0.2-2.6l2.3-1v2.2l1-0.4v-2.6
	l2.2-0.9l12.9-6.1c0,0,1.6-0.6,2.6,0.1c1,0.7,12.9,6.5,12.9,6.5l0.1-1.7c0,0,1.3-1.7,3.9-1.7c0,0,3.5,0.1,3.4,2.6v4.3l1.5,0.8
	l-0.3,1.9l-4.3,2l-1.3,2.3l0.2,0.4l-0.1,1.6c0,0-1.8-0.3-1.9-1.1l0-1.3l-5.6,2.9l-0.1,1.1l-0.6,0.3v0.9l2.1,1l0.1,1l-0.8,0.4
	l6.4,3.3l0-1.2c0,0,0.7-2,3.9-1.8c0,0,3.3,0,3.5,2.1L199.4,188.1z"/>
<g>
	<path class="st1" d="M186.2,98.2c0,0,0.7-0.5,1.3-0.1c0.6,0.5,2.1,1.4,2.1,1.4s0.3,0.2,0.6-0.1c0.2-0.2,0.6-0.7,0.4-1.2l-0.7-0.5
		c0,0-0.2-0.6,0-1c0.2-0.4,0.5-0.8,0.9-0.8c0.4,0,3.1-0.2,3.1-0.2s0.7,0.2,0.8,0.6l0,3.3c0,0,0.1,0.5-0.4,0.8s-44.9,22.4-44.9,22.4"
		/>
	<path class="st1" d="M161.9,165c0,0-0.1-7.2,0-8.8c0.1-1.6,1.6-2.1,1.6-2.1l24.9-12.6l-6.9-3.5l6.1-3.1c0,0-22.9-11.4-23.9-12
		c-1-0.5-2.2,0-2.2,0l-6.1,3l-7.1-3.5L125,134.2c0,0-2.2,0.9-2.2,2.5l0.1,1.1"/>
	<path class="st1" d="M163.1,153.9l-6.6-3.4l-6.8,3.4c0,0-1.1,0.6-1.1,1.8c0,1.1,0,3.1,0,3.1"/>
	<path class="st1" d="M124,134.9l6.6,3.3l-5.8,3.1l0,0.5c0,0-0.8,0.7-0.8,1.9c0,1,0.1,6.9,0.1,6.9"/>
	<line class="st1" x1="125.2" y1="141.2" x2="150" y2="153.6"/>
	<polyline class="st1" points="178.2,160 189.6,154.3 189.6,153.1 195.8,150 	"/>
	<path class="st1" d="M184.9,139.5c0.5-0.4,1.4-0.6,2.4-0.6c1.7,0,3,0.7,3,1.5c0,0.6-0.6,1.1-1.6,1.3"/>
	<path class="st1" d="M189.2,143.4c0.7-0.3,1.1-0.7,1.1-1.2v-1.6"/>
	<path class="st1" d="M189.1,151.8v-9.1c0,0,0.1-1-0.9-1.1"/>
	<path class="st1" d="M189.7,143.1c0.3,0.2,0.5,0.4,0.5,0.7c0,0.4-0.4,0.8-1.1,1"/>
	<path class="st1" d="M189.7,145c0.3,0.2,0.5,0.4,0.5,0.7c0,0.4-0.4,0.8-1.1,1"/>
	<path class="st1" d="M189.7,146.8c0.3,0.2,0.5,0.4,0.5,0.7c0,0.4-0.4,0.8-1.1,1"/>
	<g>
		<ellipse class="st1" cx="154.7" cy="154.5" rx="3" ry="1.5"/>
		<path class="st1" d="M151.7,154.5v1.7c0,0.8,1.4,1.5,3,1.5s3-0.7,3-1.5v-1.6"/>
		<path class="st1" d="M157.3,157c0.3,0.3,0.4,0.6,0.4,0.9c-0.1,0.8-1.6,1.3-3.2,1.1c-1.7-0.2-2.9-1.1-2.8-1.9
			c0-0.1,0.1-0.2,0.1-0.4"/>
		<path class="st1" d="M157.7,163.8c0,0.1,0.1,0.2,0.1,0.3c0,0.8-1.4,1.5-3,1.5s-3-0.7-3-1.5c0-0.2,0.1-0.4,0.3-0.6"/>
		<path class="st1" d="M157.1,162.5c0.4,0.3,0.7,0.8,0.6,1.1c-0.1,0.8-1.6,1.3-3.2,1c-1.7-0.3-2.9-1.2-2.7-2
			c0.1-0.3,0.3-0.6,0.7-0.8"/>
		<path class="st1" d="M157.2,160.6c0.4,0.3,0.6,0.7,0.5,1.1c-0.1,0.8-1.6,1.3-3.2,1c-1.7-0.3-2.9-1.2-2.7-2c0-0.3,0.2-0.5,0.5-0.7"
			/>
		<path class="st1" d="M157.1,158.8c0.4,0.3,0.6,0.7,0.6,1.1c-0.1,0.8-1.6,1.3-3.2,1c-1.7-0.3-2.9-1.2-2.7-2c0-0.3,0.2-0.5,0.5-0.7"
			/>
	</g>
	<g>
		<path class="st1" d="M127.7,176.5c-1.1,0-2-0.4-2-1c0-0.5,0.9-1,2-1s2,0.4,2,1"/>
		<path class="st1" d="M125.7,175.5v1.1c0,0.5,0.9,1,2,1"/>
		<path class="st1" d="M127.6,178.3c-0.8-0.1-1.5-0.5-1.4-0.9"/>
		<path class="st1" d="M127.7,181c-0.8,0-1.5-0.3-1.5-0.7c0-0.1,0.1-0.2,0.1-0.3"/>
		<path class="st1" d="M127.5,180c-0.8-0.1-1.4-0.6-1.4-1c0-0.1,0.1-0.2,0.3-0.3"/>
		<path class="st1" d="M127.5,179.2c-0.8-0.1-1.4-0.6-1.4-1c0-0.1,0.1-0.2,0.3-0.3"/>
	</g>
	<g>
		<ellipse class="st1" cx="124.5" cy="139.3" rx="3" ry="1.5"/>
		<path class="st1" d="M121.4,139.3v1.7c0,0.8,1.3,1.5,2.8,1.5"/>
		<ellipse class="st1" cx="156.8" cy="123" rx="3" ry="1.5"/>
		<line class="st1" x1="153.8" y1="123" x2="153.8" y2="124.7"/>
		<path class="st1" d="M124.1,143.8c-1.6-0.3-2.8-1.1-2.7-1.9c0-0.1,0.1-0.2,0.1-0.4"/>
		<path class="st1" d="M124.1,150.4c-1.5-0.1-2.7-0.7-2.7-1.5c0-0.2,0.1-0.4,0.3-0.6"/>
		<path class="st1" d="M124.2,149.4c-1.7-0.3-2.9-1.2-2.7-2c0.1-0.3,0.3-0.6,0.7-0.8"/>
		<path class="st1" d="M124.2,147.4c-1.7-0.3-2.9-1.2-2.7-2c0-0.3,0.2-0.5,0.5-0.7"/>
		<path class="st1" d="M124.2,145.7c-1.7-0.3-2.9-1.2-2.7-2c0-0.3,0.2-0.5,0.5-0.7"/>
	</g>
	<polygon class="st1" points="104.9,160.4 123.4,169.8 127.5,167.8 131.3,169.7 150.7,160 132,150.7 128.1,152.7 124.2,150.7 	"/>
	<line class="st1" x1="104.9" y1="160.4" x2="104.8" y2="168.9"/>
	<line class="st1" x1="150.7" y1="160" x2="150.8" y2="166.1"/>
	<line class="st1" x1="123.4" y1="169.8" x2="123.5" y2="179.8"/>
	<line class="st1" x1="131.3" y1="169.7" x2="131.3" y2="175.1"/>
	<line class="st1" x1="127.5" y1="167.8" x2="127.5" y2="174.4"/>
	<polyline class="st1" points="88.2,165.2 92.4,163.1 105.9,169.8 101.6,171.9 	"/>
	<line class="st1" x1="105.9" y1="174.1" x2="105.9" y2="169.8"/>
	<line class="st1" x1="156.5" y1="150.6" x2="156.5" y2="153.1"/>
	<line class="st1" x1="157.4" y1="162.8" x2="162" y2="165.1"/>
	<line class="st1" x1="178.3" y1="119.3" x2="190.6" y2="113"/>
	<line class="st1" x1="194.1" y1="100.6" x2="194.1" y2="109.7"/>
	<polyline class="st1" points="222.7,113.8 203.8,104.4 198.1,107.3 197.6,108 190.6,111.6 190.6,118.1 196.3,120.9 197,120.6 	"/>
	<polyline class="st1" points="196.3,120.6 196.3,114.4 203.4,110.7 204.6,110.5 210.2,107.7 	"/>
	<polyline class="st1" points="204.6,110.5 204.3,111.2 197.1,114.8 197.1,121.4 202.8,124.2 203.6,123.8 	"/>
	<polyline class="st1" points="216.9,110.9 211,113.9 210,114 202.8,117.6 202.8,124.1 	"/>
	<line class="st1" x1="197.3" y1="114.8" x2="202.8" y2="117.6"/>
	<line class="st1" x1="190.7" y1="111.5" x2="196.1" y2="114.2"/>
	<polyline class="st1" points="211,113.9 210.8,114.5 203.8,118.1 203.7,124.6 209.2,127.3 	"/>
	<line class="st1" x1="203.8" y1="118.1" x2="209.1" y2="120.8"/>
	<polyline class="st1" points="209.3,129.4 209.4,120.9 223.9,113.6 228.9,116 214.4,123.4 214.4,131.6 	"/>
	<line class="st1" x1="209.4" y1="120.9" x2="214.4" y2="123.4"/>
	<path class="st1" d="M228.9,116c0,0,0.8,0.3-0.8,3.6"/>
	<polyline class="st1" points="236.5,120.7 231.4,118.2 225.6,121 225.4,121.7 218.1,125.3 218.1,129.8 	"/>
	<polyline class="st1" points="244.1,126.9 244,122.8 238.4,120.1 224.2,127.1 224.1,132.1 	"/>
	<polyline class="st1" points="229.7,135.1 229.7,129.9 244,122.8 	"/>
	<line class="st1" x1="218.3" y1="125.4" x2="224.2" y2="128.2"/>
	<line class="st1" x1="224.2" y1="127.1" x2="229.7" y2="129.9"/>
	<line class="st1" x1="208.8" y1="129.2" x2="214.1" y2="131.9"/>
	<polygon class="st1" points="200.6,138.8 218.7,129.6 236.7,138.7 218.7,147.9 	"/>
	<polyline class="st1" points="200.6,138.8 200.7,150.5 210,155.3 	"/>
	<line class="st1" x1="218.7" y1="147.9" x2="218.7" y2="151.1"/>
	<line class="st1" x1="236.9" y1="138.7" x2="236.9" y2="143.3"/>
	<polyline class="st1" points="212.6,132.8 186.9,119.8 181.9,122.4 	"/>
	<polyline class="st1" points="207.2,135.1 179.3,121.3 169.9,126 	"/>
	<polyline class="st1" points="266,139.5 266.1,135.5 246.4,125.7 240.6,128.6 240.3,129.3 233.2,132.8 233.2,136.6 	"/>
	<polyline class="st1" points="237,141.4 238.7,142.1 238.8,135.5 233.2,132.8 	"/>
	<polyline class="st1" points="252.9,129 247.3,131.8 246,131.9 238.8,135.5 	"/>
	<polyline class="st1" points="247.2,131.8 246.9,132.4 239.7,136.1 239.7,142 	"/>
	<polyline class="st1" points="259.4,132.2 253.7,135.1 252.4,135.2 245.3,138.8 239.7,136.1 	"/>
	<line class="st1" x1="245.3" y1="140.9" x2="245.3" y2="138.8"/>
	<polyline class="st1" points="246.1,141.6 246.1,139.3 253,136 253.7,135.1 	"/>
	<polyline class="st1" points="246.1,139.3 251.9,142.1 259,138.5 260.3,138.3 265.7,135.5 	"/>
	<polyline class="st1" points="280.4,147.2 280.4,146 268.2,139.6 262.5,139.6 257.4,142.1 254.7,140.7 	"/>
	<path class="st1" d="M280.4,146l-21.2,11l-0.8-0.5l-10.8,5.4l-1.2-0.7c0,0-0.5-0.3-1.4,0.2c-1,0.6-10.8,5.4-10.8,5.4
		s-1.1,0.4-0.2,0.8c0.9,0.4,0.8,0.5,0.8,0.5s0.4,0.1,0.3,1.1l0,0.8"/>
	<path class="st1" d="M251.9,142.1l-15,7.7c0,0-0.6,0.5-1,1.4c-0.4,0.9-2,3.7-2,3.7s-0.1,0.3-1.2,0.9c-1,0.6-32.8,16.5-32.8,16.5
		l0.1,1.2c0,0,3.5,1.7,4.8,2.6c1.3,0.9,2.7-0.2,2.7-0.2l66.3-33.4"/>
	<path class="st1" d="M140.9,219.5"/>
	<polyline class="st1" points="148,232.7 149.9,233.4 159.3,228.6 160.1,229 168.7,224.6 169.8,222.6 172.1,221.6 174.5,221.8 
		291.5,163.3 291.5,157.1 289.2,153.8 289.2,149.2 	"/>
	<path class="st1" d="M169.6,222.9V218c0,0,0.4-2.9,2.4-3.6c0,0,1.7-0.5,1.8,1.1v6"/>
	<path class="st1" d="M149.9,233.2v-17.1c0,0-0.5-1.1-2.1-1.3v1.2"/>
	<path class="st1" d="M149.9,216.1l9.6-4.8c0,0-0.5-1.1-2.1-1.3l-9.6,4.8"/>
	<path class="st1" d="M160.5,228.7l-0.1-17.4l7.7-3.9c0,0,1.3-0.9,2.2-0.2c1,0.8,1.6,1.4,3,0.8c1.4-0.7,1.4-0.7,1.4-0.7"/>
	<path class="st1" d="M174.1,206.3c0.8,0.4,0.8,1.7,0.8,1.7v2.4c0,0,0.1,2.3,2.6,1.3c2.3-1,2.5-3.8,2.5-3.8s0-2.1,0-3
		c0-0.8-0.6-1.3-0.6-1.3c0-1.1-0.9-0.7-0.9-0.7l-3.6,1.9c0,0-0.6,0.3-0.7,1.4"/>
	<line class="st1" x1="160.5" y1="227.3" x2="160.5" y2="208.6"/>
	<path class="st1" d="M174.3,204.9"/>
	<path class="st1" d="M159.6,211.2v-2.7l8.6-4.1l0.6-1.1l67.4-33.6c0,0,0.7-0.1,0.8,0.5c0.1,0.6,0.3,4.5,0.3,4.5s0.9,0.6,0.8,1.5
		l11.6-5.7c0,0,0.6-0.7-0.1-1.6l0.1-4.9c0,0,0.2-1.1,1-1.5l32.8-16.3l2.7,1.8c0,0,1.2-0.1,0.9-1.4l-0.7-0.6c0,0-0.4-1.2,1-1.8
		l2.8-0.1c0,0,0.7,0,0.8,0.6l0,3.5L249.7,169"/>
	<line class="st1" x1="180.2" y1="204.7" x2="237.7" y2="175.9"/>
	<line class="st1" x1="106" y1="171.2" x2="127.7" y2="182"/>
	<line class="st1" x1="123.9" y1="180" x2="126.1" y2="178.9"/>
	<line class="st1" x1="133.6" y1="185.5" x2="139.1" y2="182.7"/>
	<line class="st1" x1="115" y1="194.9" x2="128.7" y2="188"/>
	<path class="st1" d="M147.2,210.7"/>
	<polyline class="st1" points="157.5,209.9 157.4,207.5 159.9,206.2 161.9,207.2 	"/>
	<line class="st1" x1="159.6" y1="208.6" x2="157.4" y2="207.5"/>
	<line class="st1" x1="86.7" y1="164.7" x2="116.5" y2="150"/>
	<polyline class="st1" points="187.5,134.9 188.2,135.2 188.2,138.7 	"/>
	<polyline class="st1" points="190.2,145.7 195.8,148.4 175.5,158.7 	"/>
	<path class="st1" d="M196.1,150.4"/>
	<polygon class="st1" points="199.2,148.9 196.1,150.5 196.1,145.3 199.2,143.7 	"/>
	<line class="st1" x1="196.1" y1="145.3" x2="190.6" y2="142.6"/>
	<line class="st1" x1="195.8" y1="146.3" x2="190.1" y2="143.4"/>
	<polyline class="st1" points="188.3,137.4 197.8,142.2 200.5,140.9 	"/>
	<polyline class="st1" points="188.3,138.6 197.8,143.4 200.5,142.1 	"/>
	<polyline class="st1" points="120,181.8 127.7,185.8 128.9,185.2 	"/>
	<path class="st1" d="M133.6,184.3c0,0.7-1,1.2-2.3,1.2c-1.3,0-2.3-0.5-2.3-1.2"/>
	<path class="st1" d="M133.6,190.2c0,0.7-1,1.2-2.3,1.2c-1.3,0-2.3-0.5-2.3-1.2"/>
	<line class="st1" x1="133.6" y1="190.1" x2="133.6" y2="184.3"/>
	<path class="st1" d="M131.2,191.3"/>
	<line class="st1" x1="128.9" y1="184.3" x2="128.9" y2="190.1"/>
	<polyline class="st1" points="121.2,146.1 116.4,148.5 122.3,151.5 	"/>
	<polyline class="st1" points="116.4,148.5 116.4,150.1 120.9,152.4 	"/>
	<ellipse transform="matrix(0.498 -0.8672 0.8672 0.498 -103.2682 248.5858)" class="st1" cx="163.1" cy="213.5" rx="2" ry="1.4"/>
	<ellipse transform="matrix(0.498 -0.8672 0.8672 0.498 -104.6252 253.2159)" class="st1" cx="166.4" cy="217" rx="2" ry="1.4"/>
	<ellipse transform="matrix(0.498 -0.8672 0.8672 0.498 -112.1812 254.0685)" class="st1" cx="163.4" cy="223.9" rx="2" ry="1.4"/>
	<ellipse transform="matrix(0.498 -0.8672 0.8672 0.498 -99.46 263.0446)" class="st1" cx="177.5" cy="217.4" rx="2" ry="1.4"/>
	
		<ellipse transform="matrix(0.498 -0.8672 0.8672 0.498 -114.3179 246.3218)" class="st1" cx="155.6" cy="221.9" rx="1.3" ry="0.9"/>
	<path class="st1" d="M234.8,168.3l-10.6,5.4c0,0,1.4,0.2,1.2,1.3"/>
	<polyline class="st1" points="224.9,174.2 221,176.1 220.3,175.7 206,182.9 206,184.7 	"/>
	<path class="st1" d="M206,182.9l-14.1-6.8l1.5-2.2l3.7-1.8c0,0,0.4-0.3,1,0c0.6,0.3,1.9,0.9,1.9,0.9"/>
	<path class="st1" d="M123,135.6"/>
	<path class="st2" d="M282.3,152.6c0,0,1.2,0.9-0.1,2l-0.6,0.3l-12.9,6.4c0,0-0.5,0.4-0.5,1s0.1,3.7,0.1,3.7s-0.1,0.7,0.7,0.4
		s13.1-6.5,13.1-6.5s0.9-0.3,0.9,0.6s0,1.6,0,1.6s0.5,0.7,1-0.3c0,0,0.9-0.9-0.8-2.3c-1.7-1.4-1.3-1.4-1.3-1.4l0.1-3.2"/>
	<line class="st2" x1="284.3" y1="161" x2="291.4" y2="157.3"/>
	<path class="st2" d="M280.5,155.5l0,1.3c0,0,0.2,0.4-0.5,0.8c-0.2,0.1-0.5,0.2-0.7,0.3c-0.4,0.2-0.7,0.3-0.7,0.3l0,1.5l1.6-0.8"/>
	<path class="st2" d="M279.4,158l0.7,0.4c0,0,0.6,0.3,0.4,1.2l0,1.1"/>
	<path class="st1" d="M235.8,169.9c0,0,0-1.2,1-1.7c1-0.5,8.9-4.3,8.9-4.3s0.4-0.5,1.5,0.2"/>
	<path class="st1" d="M236.8,170c0,0,0-0.9,1.3-1.6c1.3-0.6,8-3.9,8-3.9s0.9-0.4,1.5-0.1"/>
	<path class="st1" d="M237.3,174.4l10.2-5.1c0,0,0.8-0.3,0.1-1.1l0-6.1"/>
	<line class="st1" x1="192.3" y1="176.4" x2="192.3" y2="181.5"/>
	<path class="st1" d="M192.1,180.3c0,0-0.9,1,0.6,1.6c0.4,0.1,0.9,0.4,1.5,0.7c0.8,0.4,1.7,0.8,2.5,1.2"/>
	<line class="st1" x1="139.3" y1="182.9" x2="139.2" y2="185.9"/>
	<polyline class="st1" points="139.2,185.5 138.5,185.9 140.9,187.1 	"/>
	<path class="st1" d="M144,175.1v-4c0,0-0.1-1.7,1.3-1.6c0,0,0.9,0.4,0.9,2.5"/>
	<path class="st1" d="M148.5,168.1c0,0,1,0.1,1,2.2"/>
	<path class="st1" d="M152.7,168.8c0-2-1-2.2-1-2.2v5.6"/>
	<line class="st1" x1="144.8" y1="169.5" x2="153.3" y2="165.5"/>
	<line class="st1" x1="148.5" y1="168.1" x2="148.5" y2="171"/>
	<path class="st1" d="M155.7,165.7c0.2,0.3,0.3,0.8,0.3,1.6"/>
	<line class="st1" x1="155" y1="167.8" x2="155" y2="165.8"/>
	<path class="st1" d="M192.3,178.1c-1.1-0.1-1.9-0.5-1.9-1v-1.3"/>
	<g>
		<polyline class="st1" points="203.6,160.1 203.6,158.8 201.4,159.8 201.4,166.1 200.4,165.6 200.4,166.6 		"/>
		<polyline class="st1" points="202,166.5 203,166.9 203,160.6 205.1,159.6 205.1,161 		"/>
		<polyline class="st1" points="203.5,167.3 204.5,167.8 204.5,161.5 206.6,160.5 206.6,161.8 		"/>
		<polyline class="st1" points="205,168.1 206.1,168.6 206.1,162.3 208.2,161.3 208.2,162.7 		"/>
		<polyline class="st1" points="207.6,168.3 207.6,163.2 209.7,162.2 209.7,163.6 		"/>
		<polyline class="st1" points="209.1,167.7 209.1,164 211.2,163 211.3,166.5 		"/>
	</g>
	<g>
		<polyline class="st1" points="204.3,160 204.3,158.3 206.5,157.3 206.5,158.6 		"/>
		<polyline class="st1" points="205.9,160.8 205.9,159.1 208,158.1 208,159.5 		"/>
		<polyline class="st1" points="207.4,161.7 207.4,160 209.5,159 209.5,160.3 		"/>
		<polyline class="st1" points="209,162.5 209,160.8 211.1,159.8 211.1,161.2 		"/>
		<polyline class="st1" points="210.5,163.4 210.5,161.7 212.6,160.7 212.6,162.1 		"/>
		<polyline class="st1" points="212,166.2 212,162.5 214.1,161.5 214.2,165 		"/>
	</g>
	<g>
		<polyline class="st1" points="207.3,158.5 207.3,156.8 209.4,155.8 209.4,157.2 		"/>
		<polyline class="st1" points="208.8,159.3 208.8,157.7 210.9,156.6 210.9,158 		"/>
		<polyline class="st1" points="210.3,160.2 210.3,158.5 212.4,157.5 212.4,158.9 		"/>
		<polyline class="st1" points="211.9,161 211.9,159.3 214,158.3 214,159.7 		"/>
		<polyline class="st1" points="213.4,161.9 213.4,160.2 215.5,159.2 215.5,160.6 		"/>
		<polyline class="st1" points="215,164.7 215,161 217.1,160 217.1,163.5 		"/>
	</g>
	<g>
		<polyline class="st1" points="210.1,157 210.1,155.3 212.2,154.3 212.2,155.7 		"/>
		<polyline class="st1" points="211.7,157.8 211.7,156.2 213.8,155.2 213.8,156.5 		"/>
		<polyline class="st1" points="213.2,158.7 213.2,157 215.3,156 215.3,157.4 		"/>
		<polyline class="st1" points="214.7,159.5 214.7,157.9 216.8,156.8 216.8,158.2 		"/>
		<polyline class="st1" points="216.3,160.4 216.3,158.7 218.4,157.7 218.4,159.1 		"/>
		<polyline class="st1" points="217.8,163.2 217.8,159.6 219.9,158.5 219.9,162 		"/>
	</g>
	<g>
		<polyline class="st1" points="212.8,155.6 212.8,154 214.9,153 214.9,154.3 		"/>
		<polyline class="st1" points="214.4,156.5 214.4,154.8 216.5,153.8 216.5,155.2 		"/>
		<polyline class="st1" points="215.9,157.3 215.9,155.7 218,154.6 218,156 		"/>
		<polyline class="st1" points="217.4,158.2 217.4,156.5 219.6,155.5 219.6,156.9 		"/>
		<polyline class="st1" points="219,159 219,157.4 221.1,156.3 221.1,157.8 		"/>
		<polyline class="st1" points="220.5,161.9 220.5,158.2 222.6,157.2 222.6,160.6 		"/>
	</g>
	<g>
		<polyline class="st1" points="215.6,154.2 215.6,152.6 217.7,151.6 217.7,152.9 		"/>
		<polyline class="st1" points="217.2,155.1 217.2,153.4 219.3,152.4 219.3,153.8 		"/>
		<polyline class="st1" points="218.7,155.9 218.7,154.3 220.8,153.3 220.8,154.6 		"/>
		<polyline class="st1" points="220.2,156.8 220.2,155.1 222.3,154.1 222.3,155.5 		"/>
		<polyline class="st1" points="221.8,157.7 221.8,156 223.9,155 223.9,156.4 		"/>
		<polyline class="st1" points="223.3,160.5 223.3,156.8 225.4,155.8 225.4,159.2 		"/>
	</g>
	<g>
		<polyline class="st1" points="218.4,152.9 218.4,151.2 220.5,150.2 220.5,151.5 		"/>
		<polyline class="st1" points="219.9,153.7 219.9,152 222,151 222,152.4 		"/>
		<polyline class="st1" points="221.5,154.6 221.5,152.9 223.6,151.9 223.6,153.2 		"/>
		<polyline class="st1" points="223,155.4 223,153.7 225.1,152.7 225.1,154.1 		"/>
		<polyline class="st1" points="224.6,156.3 224.6,154.6 226.7,153.6 226.7,155 		"/>
		<polyline class="st1" points="226.1,159.1 226.1,155.4 228.2,154.4 228.2,157.8 		"/>
	</g>
	<g>
		<polyline class="st1" points="221.2,151.5 221.2,149.8 223.3,148.8 223.3,150.1 		"/>
		<polyline class="st1" points="222.7,152.3 222.7,150.6 224.8,149.6 224.8,151 		"/>
		<polyline class="st1" points="224.3,153.2 224.3,151.5 226.4,150.5 226.4,151.8 		"/>
		<polyline class="st1" points="225.8,154 225.8,152.3 227.9,151.3 227.9,152.7 		"/>
		<polyline class="st1" points="227.3,154.9 227.3,153.2 229.4,152.2 229.4,153.6 		"/>
		<polyline class="st1" points="228.9,157.7 228.9,154 231,153 231,156.5 		"/>
	</g>
	<g>
		<polyline class="st1" points="224,150.1 224,148.4 226.1,147.4 226.1,148.8 		"/>
		<polyline class="st1" points="225.5,150.9 225.5,149.3 227.6,148.2 227.6,149.6 		"/>
		<polyline class="st1" points="227,151.8 227,150.1 229.1,149.1 229.1,150.4 		"/>
		<polyline class="st1" points="228.6,152.6 228.6,150.9 230.7,149.9 230.7,151.3 		"/>
		<polyline class="st1" points="230.1,153.5 230.1,151.8 232.2,150.8 232.2,152.2 		"/>
		<polyline class="st1" points="231.7,156.3 231.7,152.6 233.8,151.6 233.8,155.1 		"/>
	</g>
	<g>
		<polyline class="st1" points="240.8,141.6 240.8,139.9 242.9,138.9 242.9,140.3 		"/>
		<polyline class="st1" points="242.3,142.5 242.3,140.8 244.4,139.8 244.4,141.1 		"/>
		<polyline class="st1" points="243.9,143.3 243.9,141.6 246,140.6 246,142 		"/>
		<polyline class="st1" points="245.4,144.2 245.4,142.5 247.5,141.5 247.5,142.9 		"/>
		<polyline class="st1" points="246.9,144.4 246.9,143.3 249,142.3 249,143.4 		"/>
	</g>
	<g>
		<polyline class="st1" points="231,148 231,146.6 233.1,145.5 233.1,146.9 		"/>
		<polyline class="st1" points="232.6,148.9 232.6,147.4 234.7,146.4 234.7,147.8 		"/>
		<polyline class="st1" points="234.1,149.7 234.1,148.2 236.2,147.2 236.2,148.7 		"/>
		<polyline class="st1" points="235.6,150.6 235.6,149.1 237.8,148.1 237.8,149.2 		"/>
	</g>
	<g>
		<polyline class="st1" points="233.9,146.6 233.9,145.1 236,144.1 236,145.5 		"/>
		<polyline class="st1" points="235.4,147.5 235.4,146 237.5,144.9 237.5,146.4 		"/>
		<polyline class="st1" points="236.9,148.3 236.9,146.8 239.1,145.8 239.1,147.2 		"/>
		<polyline class="st1" points="238.5,148.9 238.5,147.7 240.6,146.6 240.6,147.8 		"/>
	</g>
	<g>
		<polyline class="st1" points="236.7,145.1 236.7,143.7 238.8,142.7 238.8,144 		"/>
		<polyline class="st1" points="238.2,146.1 238.2,144.5 240.4,143.5 240.4,144.9 		"/>
		<polyline class="st1" points="239.8,146.8 239.8,145.4 241.9,144.4 241.9,145.8 		"/>
		<polyline class="st1" points="241.3,147.5 241.3,146.2 243.4,145.2 243.4,146.4 		"/>
	</g>
	<g>
		<polyline class="st1" points="239.5,143.7 239.5,142.2 241.7,141.2 241.7,142.6 		"/>
		<polyline class="st1" points="241.1,144.6 241.1,143.1 243.2,142.1 243.2,143.5 		"/>
		<polyline class="st1" points="242.6,145.4 242.6,143.9 244.7,142.9 244.7,144.4 		"/>
		<polyline class="st1" points="244.2,146 244.2,144.8 246.3,143.8 246.3,144.9 		"/>
	</g>
	<g>
		<polyline class="st1" points="226.7,148.7 226.7,147 228.8,146 228.9,147.4 		"/>
		<polyline class="st1" points="228.3,149.5 228.3,147.9 230.4,146.8 230.4,148.2 		"/>
		<polyline class="st1" points="229.8,150.4 229.8,148.7 231.9,147.7 231.9,149.1 		"/>
		<polyline class="st1" points="231.4,151.2 231.4,149.6 233.5,148.5 233.5,149.9 		"/>
		<polyline class="st1" points="232.9,152.1 232.9,150.4 235,149.4 235,150.8 		"/>
		<polyline class="st1" points="234.4,153.7 234.4,151.2 236.5,150.2 		"/>
	</g>
	<polyline class="st1" points="197.9,169.6 198.2,169.4 198.8,169.7 202,168 	"/>
	<line class="st1" x1="199.9" y1="172.2" x2="198.3" y2="171.4"/>
	<line class="st1" x1="202.4" y1="171" x2="199.4" y2="169.4"/>
	<polyline class="st1" points="200.4,168.8 200.4,166.6 205.9,169.3 	"/>
	
		<ellipse transform="matrix(0.2857 -0.9583 0.9583 0.2857 -8.6947 354.2018)" class="st1" cx="233.3" cy="182.9" rx="1.9" ry="1.4"/>
	
		<ellipse transform="matrix(0.2857 -0.9583 0.9583 0.2857 17.3593 367.0762)" class="st1" cx="254.9" cy="171.9" rx="1.9" ry="1.4"/>
	<path class="st3" d="M272.5,141.8c0.2-0.8,0.8-1.5,1.7-1.7c1.2-0.2,2.3,0.5,2.6,1.6c0.2,0.8-0.1,1.5-0.7,2"/>
	<path class="st3" d="M270.9,140.8c0.2-0.8,0.8-1.5,1.7-1.7c0.8-0.2,1.7,0.1,2.1,0.7"/>
	<path class="st3" d="M269.1,139.9c0.2-0.8,0.8-1.5,1.7-1.7c0.8-0.2,1.7,0.1,2.1,0.7"/>
	<path class="st3" d="M267.4,138.9c0.2-0.8,0.8-1.5,1.7-1.7c0.8-0.2,1.7,0.1,2.1,0.7"/>
	<line class="st3" x1="259" y1="138.5" x2="259" y2="141.2"/>
	<line class="st3" x1="260.3" y1="138.3" x2="260.3" y2="140.5"/>
	<path class="st4" d="M170.5,125.2c-2.2-0.8-3-4.2-1.7-7.5c1.2-3.3,4-5.3,6.2-4.5c2.2,0.8,3,4.2,1.7,7.5c-0.2,0.5-0.4,1-0.7,1.4"/>
	<path class="st4" d="M168.4,115.9c1.3-2.3,3.5-3.7,5.3-3.2l1.4,0.6"/>
	<path class="st4" d="M169.5,124.7"/>
	<path class="st5" d="M173.6,112.5l0.9-0.5c0,0,3.4,0.7,3.7,4.8v4.7"/>
	<path class="st5" d="M164.6,123.4c0,0-0.3-6.4,1.9-7.4l1.3,0.6c0,0,0.4,0.7,0,1.7c-0.4,1-0.5,5.6-0.4,6.4"/>
	<path class="st5" d="M166.6,116l0.6-0.3l1.3,0.6c0,0,0.3,0.5,0.2,1.2c-0.1,0.7-1.5,6,0.7,7.3"/>
	<polyline class="st5" points="175.9,123 175.9,121.7 175.2,121.5 170.5,123.8 171.2,124 171.3,125 	"/>
	<g>
		<line class="st6" x1="173" y1="117.1" x2="173.1" y2="119.8"/>
		<line class="st6" x1="171.9" y1="119" x2="174.3" y2="118"/>
	</g>
	
		<ellipse transform="matrix(0.9011 -0.4336 0.4336 0.9011 -34.1599 104.4605)" class="st6" cx="211.9" cy="127.1" rx="1.4" ry="1.9"/>
	<text transform="matrix(0.7325 -0.3565 6.281000e-02 0.998 237.9686 173.2914)" class="st7 st8 st9">PUSH</text>
</g>
<g>
	<g>
		<polyline class="st10" points="150.6,213.5 124.5,200.5 124.5,195.2 151.2,208.4 151.2,213.2 		"/>
		<polyline class="st10" points="124.6,195.1 125.8,194.5 152.5,207.8 152.5,212.4 		"/>
		<line class="st10" x1="124.5" y1="200.5" x2="129.7" y2="197.9"/>
		<polyline class="st10" points="131.1,198.5 131.1,203.8 136.1,201.1 		"/>
		<polyline class="st10" points="137.8,201.8 137.8,207.1 142.9,204.4 		"/>
		<polyline class="st10" points="144.4,205.1 144.4,210.3 149.6,207.7 		"/>
		<line class="st10" x1="151.2" y1="208.4" x2="152.5" y2="207.8"/>
		<line class="st11" x1="152.8" y1="207.9" x2="173.5" y2="197.3"/>
		<polyline class="st11" points="126.3,194.6 146.9,184 173.5,197.3 173.6,200.6 		"/>
		<path class="st11" d="M176.7,199.1v-3.6l8.8-4.4c0,0,1-0.5,1.8-0.1c0.8,0.4,2.6,1.4,2.6,1.4"/>
		<g>
			<ellipse class="st12" cx="131.2" cy="177.5" rx="3.7" ry="1.9"/>
			<path class="st12" d="M134.9,181.1c0,1.1-1.6,1.9-3.7,1.9s-3.7-0.9-3.7-1.9"/>
			<path class="st12" d="M127.6,177.5v4.9c0,1.1,1.6,1.9,3.7,1.9s3.7-0.9,3.7-1.9v-4.7"/>
			<line class="st11" x1="129.9" y1="176.6" x2="132.3" y2="177.9"/>
			<line class="st11" x1="129.7" y1="178" x2="132.5" y2="176.5"/>
		</g>
		<g>
			<ellipse class="st12" cx="192.9" cy="164.2" rx="3.7" ry="1.9"/>
			<path class="st12" d="M196.5,167.8c0,1.1-1.6,1.9-3.7,1.9s-3.7-0.9-3.7-1.9"/>
			<path class="st12" d="M189.2,164.2v4.9c0,1.1,1.6,1.9,3.7,1.9s3.7-0.9,3.7-1.9v-4.7"/>
			<line class="st11" x1="191.5" y1="163.3" x2="194" y2="164.6"/>
			<line class="st11" x1="191.3" y1="164.7" x2="194.1" y2="163.2"/>
		</g>
		<g>
			<ellipse class="st12" cx="195.6" cy="185.7" rx="3.7" ry="1.9"/>
			<line class="st12" x1="199.2" y1="187.7" x2="199.2" y2="185.9"/>
			<line class="st12" x1="191.9" y1="185.7" x2="191.9" y2="191.3"/>
			<line class="st11" x1="194.2" y1="184.8" x2="196.7" y2="186.1"/>
			<line class="st11" x1="194" y1="186.2" x2="196.8" y2="184.7"/>
		</g>
		<path class="st12" d="M161.8,165l11.8-5.9c0,0,1.2-0.8,2.3-0.3c1,0.5,13.3,6.8,13.3,6.8"/>
		<line class="st12" x1="135.2" y1="177.9" x2="143.6" y2="173.8"/>
		<ellipse class="st1" cx="141.2" cy="177.4" rx="2.1" ry="1.1"/>
		<path class="st13" d="M142.6,179c0.1,0.1,0.1,0.2,0.2,0.3c0.1,0.4-0.5,0.8-1.4,1s-1.5-0.1-1.6-0.6c0-0.2,0.1-0.4,0.3-0.6"/>
		<path class="st13" d="M142.4,180.1c0.2,0.1,0.3,0.2,0.4,0.4c0.1,0.4-0.5,0.8-1.4,1s-1.5-0.1-1.6-0.6c0-0.2,0.2-0.5,0.5-0.7"/>
		<path class="st1" d="M139.2,177.5v0.8c0,0.6,0.9,1.1,2.1,1.1s2.1-0.5,2.1-1.1v-0.9"/>
		<path class="st11" d="M184.3,177.5l14-7c0,0,0.2-0.5-0.3-0.7c-0.4-0.2-1.3-0.6-1.3-0.6"/>
		<ellipse class="st11" cx="182.8" cy="178.3" rx="1.9" ry="0.9"/>
		<path class="st14" d="M184,181.8c0.2,0.1,0.2,0.2,0.2,0.4c0,0.3-0.6,0.6-1.4,0.6"/>
		<path class="st11" d="M182.8,180.3c1.1,0,1.9-0.4,1.9-0.9v-1.1"/>
		<path class="st15" d="M184,180.1c0.1,0.1,0.2,0.2,0.2,0.3c0,0.3-0.6,0.7-1.3,0.8"/>
		<path class="st15" d="M183.9,180.9c0.2,0.1,0.3,0.2,0.4,0.3c0,0.3-0.6,0.7-1.3,0.8"/>
		<line class="st15" x1="185" y1="178.6" x2="192.5" y2="174.6"/>
		<line class="st15" x1="198.3" y1="170.4" x2="198.3" y2="171.6"/>
		<polyline class="st15" points="165.9,193.2 186.4,182.9 186.4,182 184.2,180.9 		"/>
		<line class="st15" x1="182.9" y1="183.7" x2="186.4" y2="182"/>
		<g>
			<polyline class="st16" points="160.3,190.7 160.3,188 162.7,186.8 162.7,189.2 			"/>
			<polyline class="st16" points="157.8,189.6 157.8,186.9 160.2,185.7 160.3,188.1 			"/>
			<polyline class="st16" points="155.2,188.3 155.2,185.6 157.7,184.4 157.7,186.8 			"/>
			<polyline class="st16" points="152.7,187 152.7,184.3 155.2,183.1 155.2,185.5 			"/>
			<polyline class="st16" points="150.2,185.7 150.2,183.1 152.7,181.9 152.7,184.3 			"/>
			<polyline class="st16" points="147.6,184.4 147.6,181.8 150.1,180.6 150.1,183 			"/>
			<polyline class="st16" points="145.1,184.7 145.1,180.5 147.6,179.3 147.6,181.7 			"/>
			<polyline class="st16" points="145.2,180.3 145.2,178 142.8,179.1 142.8,183.3 142.1,182.9 			"/>
			<polyline class="st17" points="162.7,191.9 162.7,189.4 165.2,188.1 165.3,193 			"/>
			<polyline class="st17" points="168.7,190.8 168.7,186.4 166.2,187.6 166.2,191.6 166.8,191.8 165.5,192.5 			"/>
			<polyline class="st17" points="166.3,187.4 166.3,185.1 163.8,186.3 163.8,188.8 			"/>
			<polyline class="st17" points="169.8,185.7 169.8,183.4 167.2,184.6 167.2,187.1 			"/>
			<polyline class="st17" points="173.3,183.9 173.2,181.6 170.7,182.8 170.7,185.3 			"/>
			<polyline class="st17" points="176.7,182.2 176.7,179.9 174.2,181.1 174.2,183.6 			"/>
			<polyline class="st17" points="180.2,180.5 180.2,178.1 177.7,179.3 177.7,181.9 			"/>
			<g>
				<polyline class="st17" points="163.7,186.2 163.7,183.8 161.2,185.1 161.2,187.6 				"/>
				<polyline class="st17" points="167.2,184.5 167.2,182.1 164.7,183.3 164.7,185.8 				"/>
				<polyline class="st17" points="170.8,182.7 170.8,180.3 168.2,181.5 168.2,184 				"/>
				<polyline class="st17" points="174.3,181 174.2,178.6 171.7,179.8 171.7,182.3 				"/>
				<polyline class="st17" points="177.7,179.2 177.7,176.9 175.2,178.1 175.2,180.6 				"/>
				<polyline class="st17" points="181.3,177.5 181.2,175.1 178.7,176.3 178.7,178.8 				"/>
			</g>
			<polyline class="st17" points="172.3,189.1 172.3,184.7 169.7,185.9 169.7,189.9 170.3,190.1 169,190.8 			"/>
			<polyline class="st17" points="175.8,187.3 175.8,182.9 173.3,184.1 173.3,188.1 173.8,188.3 172.5,189 			"/>
			<polyline class="st17" points="179.3,185.5 179.3,181.1 176.7,182.3 176.7,186.3 177.3,186.6 176,187.2 			"/>
			<polyline class="st17" points="182.7,183.8 182.7,179.4 180.2,180.6 180.2,184.6 180.7,184.9 179.4,185.5 			"/>
		</g>
		<g>
			<polyline class="st17" points="161.3,184.8 161.3,182.5 158.8,183.7 158.8,186.2 			"/>
			<polyline class="st17" points="164.8,183.1 164.7,180.7 162.2,181.9 162.2,184.5 			"/>
			<polyline class="st17" points="168.3,181.3 168.3,178.9 165.8,180.2 165.8,182.7 			"/>
			<polyline class="st17" points="171.8,179.6 171.8,177.2 169.3,178.5 169.3,181 			"/>
			<polyline class="st17" points="175.3,177.9 175.3,175.5 172.8,176.7 172.8,179.2 			"/>
			<polyline class="st17" points="178.8,176.1 178.8,173.7 176.3,175 176.3,177.5 			"/>
		</g>
		<g>
			<polyline class="st17" points="158.7,183.6 158.7,181.2 156.2,182.4 156.2,184.9 			"/>
			<polyline class="st17" points="162.2,181.8 162.2,179.5 159.7,180.7 159.7,183.2 			"/>
			<polyline class="st17" points="165.7,180.1 165.7,177.7 163.2,178.9 163.2,181.4 			"/>
			<polyline class="st17" points="169.2,178.4 169.2,176 166.7,177.2 166.7,179.7 			"/>
			<polyline class="st17" points="172.7,176.6 172.7,174.3 170.2,175.5 170.2,178 			"/>
			<polyline class="st17" points="176.2,174.9 176.2,172.5 173.7,173.7 173.7,176.2 			"/>
		</g>
		<g>
			<polyline class="st17" points="156.2,182.5 156.2,180.2 153.7,181.4 153.7,183.9 			"/>
			<polyline class="st17" points="159.6,180.8 159.6,178.4 157.1,179.6 157.1,182.1 			"/>
			<polyline class="st17" points="163.2,179 163.2,176.6 160.7,177.9 160.7,180.4 			"/>
			<polyline class="st17" points="166.7,177.3 166.7,174.9 164.2,176.2 164.2,178.7 			"/>
			<polyline class="st17" points="170.2,175.6 170.2,173.2 167.7,174.4 167.7,176.9 			"/>
			<polyline class="st17" points="173.7,173.8 173.7,171.4 171.2,172.6 171.2,175.1 			"/>
		</g>
		<g>
			<polyline class="st17" points="153.7,181.1 153.7,178.8 151.2,180 151.2,182.5 			"/>
			<polyline class="st17" points="157.2,179.4 157.1,177 154.6,178.3 154.6,180.8 			"/>
			<polyline class="st17" points="160.7,177.6 160.7,175.3 158.2,176.5 158.2,179 			"/>
			<polyline class="st17" points="164.2,175.9 164.2,173.6 161.7,174.8 161.7,177.3 			"/>
			<polyline class="st17" points="167.7,174.2 167.7,171.8 165.2,173 165.2,175.5 			"/>
			<polyline class="st17" points="171.2,172.4 171.2,170.1 168.7,171.3 168.7,173.8 			"/>
		</g>
		<g>
			<polyline class="st17" points="151.1,179.9 151.1,177.5 148.6,178.7 148.6,181.3 			"/>
			<polyline class="st17" points="154.6,178.2 154.6,175.8 152.1,177 152.1,179.5 			"/>
			<polyline class="st17" points="158.1,176.4 158.1,174 155.6,175.2 155.6,177.7 			"/>
			<polyline class="st17" points="161.6,174.7 161.6,172.3 159.1,173.5 159.1,176 			"/>
			<polyline class="st17" points="165.1,172.9 165.1,170.6 162.6,171.8 162.6,174.3 			"/>
			<polyline class="st17" points="168.6,171.2 168.6,168.8 166.1,170 166.1,172.5 			"/>
		</g>
		<g>
			<polyline class="st17" points="148.7,178.6 148.7,176.3 146.1,177.5 146.1,180 			"/>
			<polyline class="st17" points="152.1,176.9 152.1,174.6 149.6,175.8 149.6,178.3 			"/>
			<polyline class="st17" points="155.7,175.1 155.7,172.8 153.2,174 153.2,176.5 			"/>
			<polyline class="st17" points="159.2,173.4 159.2,171.1 156.7,172.3 156.7,174.8 			"/>
			<polyline class="st17" points="162.7,171.7 162.7,169.3 160.1,170.6 160.1,173.1 			"/>
			<polyline class="st17" points="166.2,169.9 166.2,167.6 163.7,168.8 163.7,171.3 			"/>
		</g>
		<g>
			<polyline class="st17" points="146.2,177.3 146.2,174.9 143.7,176.1 143.7,178.6 			"/>
			<polyline class="st17" points="149.6,175.5 149.6,173.2 147.1,174.4 147.1,176.9 			"/>
			<polyline class="st17" points="153.2,173.8 153.2,171.4 150.7,172.6 150.7,175.1 			"/>
			<polyline class="st17" points="156.7,172 156.7,169.7 154.2,170.9 154.2,173.4 			"/>
			<polyline class="st17" points="160.2,170.3 160.2,168 157.7,169.2 157.7,171.7 			"/>
			<polyline class="st17" points="163.7,168.5 163.7,166.2 161.2,167.4 161.2,169.9 			"/>
		</g>
		<g>
			<polyline class="st17" points="147.1,174.2 147.1,171.9 144.6,173.1 144.6,175.6 			"/>
			<polyline class="st17" points="150.6,172.5 150.6,170.1 148.1,171.3 148.1,173.8 			"/>
			<polyline class="st17" points="154.1,170.8 154.1,168.4 151.6,169.6 151.6,172.1 			"/>
			<polyline class="st17" points="157.6,169 157.6,166.7 155.1,167.9 155.1,170.4 			"/>
			<polyline class="st17" points="161.1,167.2 161.1,164.9 158.6,166.1 158.6,168.6 			"/>
		</g>
		<polyline class="st17" points="144.4,185.2 137.3,181.8 137.3,180.8 139.5,179.7 		"/>
		<polyline class="st17" points="137.7,181 141.1,182.6 142.8,181.8 		"/>
		<line class="st17" x1="185.5" y1="183.6" x2="191.7" y2="186.7"/>
	</g>
</g>
<line class="st11" x1="156.5" y1="210.3" x2="156.4" y2="206.1"/>
<g>
	<line class="st1" x1="21.5" y1="184.8" x2="53.7" y2="168.7"/>
	<line class="st1" x1="30.2" y1="197.3" x2="54.6" y2="185.3"/>
	<polygon class="st1" points="107.9,183 115.5,179.3 72,157.5 64.5,161.2 	"/>
	<path class="st1" d="M64.2,163c0,0,0.4-0.8,1.3-0.3c0.9,0.5,41.5,20.8,41.5,20.8s1,0.5,1,2.1c0,1.7,0,14.5,0,14.5s-0.1,1.6-1.2,1.1
		s-41.5-20.7-41.5-20.7"/>
	<line class="st1" x1="140.9" y1="219.6" x2="64.7" y2="181.5"/>
	<line class="st1" x1="112" y1="234.1" x2="149.3" y2="215.6"/>
	<line class="st1" x1="149.9" y1="216.7" x2="112.2" y2="235.7"/>
	<line class="st1" x1="149.7" y1="231.8" x2="112.1" y2="250.9"/>
	<path class="st1" d="M150,233.3v-17.1c0,0-0.5-1.1-2.1-1.3v1.2"/>
	<path class="st1" d="M108,184.8l5.6,2.7c0,0,1.3,0.6,1.3,1.7s-0.2,5.3-0.2,5.3s-0.2,1,0.7,1.4c0.9,0.4,4.4,2,4.4,2l1.1,1.6
		l28.4,14.4"/>
	<path class="st1" d="M52.9,168.5v-0.8l10.3-4.9l1.4,0.6c0,0,0.5,0.3,0.5,1c0,0.6,0,2,0,2l-9.2,4.6l-0.9-0.1v-2c0,0-0.1-1-2.2-1.3"
		/>
	<path class="st1" d="M53.8,185.8l1.3,0.6l10-5.1l-0.1-2l-0.9-0.3l-8.3,4.1c0,0-1,0.5-0.9,1.3l0,1.7"/>
	<path class="st1" d="M10.4,185.5l5.5-2.7c0,0,9.3,1.1,13.7,13.5c0,0,3.8,10.4-2.9,16l-6.2,3c0,0-2,0.3-4.5-0.9l-5.4-2.5
		c0,0-0.8-0.9-0.8-1.9c0-1,0.1-3,0.1-3"/>
	<path class="st1" d="M9.9,191.3l-0.1-4.9c0,0,0.3-1.1,2.4-0.9c0,0,9.4,3.5,12.1,13.1c0,0,4.9,10.7-2.2,15.9"/>
	<path class="st1" d="M11.7,196.9v-5.5c0,0,0.5-3.5,3.4-2.8c0,0,7.1,2.5,9.4,15.2c0,0,1.5,8.2-4.8,10.1c0,0-1.7,0.6-3.8-0.2
		c-2.1-0.9-5.8-3-5.8-3l5.4-2.7"/>
	<line class="st1" x1="16.9" y1="189.6" x2="16.9" y2="194.4"/>
	<path class="st1" d="M10.6,197.7l8.2-4.1c0,0,1.2,0.3,1.1,1.6l-1.1,3.8l-5,2.7l-1.7-3.1C12,198.7,11.6,197.5,10.6,197.7z"/>
	<path class="st1" d="M10.6,197.7c0,0-1.7,5.1,0.7,9.9l1.3-0.6c0,0,0-3.3,3-4.2c0,0,1.8-0.6,1.7,1.8l1.3-0.5c0,0,1-3.4,1-7"/>
	<path class="st1" d="M11.6,192.2c0,0,0.5,0.3-2.1-0.8c0,0-4.5-0.2-5.9,6.3v8c0,0,0,3,2.9,3.2c0,0,2.5,0.1,4-2.7"/>
	<path class="st1" d="M15.5,202.9l0.2,5.3c0,0,0.4,0.6,0.9,0.8c0.5,0.2,3.8,1.8,3.8,1.8s1.8,0.6,2.6,0.5"/>
	<path class="st1" d="M11.7,194.7c0,0-1.1,0.2-2.4-0.8c0,0-2.8,0.6-3.3,3.8l0,7.6c0,0,0.2,1.6,1.5,1.1c1.3-0.5,1.5-1.1,1.5-1.1
		l1-1.3"/>
	<path class="st1" d="M24,187l11-5.5c0,0,1.4-0.5,1.5,1s0,7.1,0,7.1s0.1,1.1-1.2,2.1l-5.9,2.9"/>
	<path class="st1" d="M46.7,176.6l-0.9,0.4c0-1.2-1-1-1-1l-6.5,3.2c-1.1,0.8-0.9,2-0.9,2l0,8.8c0,0,0.3,1.1,1.3,0.6
		c1-0.5,6.2-3,6.2-3s1.1-0.7,0.9-2l16.5-8.2v-0.8c0,0,2.9-1,3.2-2.2l0.3-1l0-1.7c0,0-0.2-1.8-1.4-3.3v-1.6"/>
	<path class="st1" d="M60.4,178.4v-0.8c0,0,2.9-1,3.2-2.2l0.3-1l0-1.7c0,0-0.2-1.8-1.4-3.3v-1.6"/>
	<polyline class="st1" points="46.9,185.2 46.9,175.6 56.3,171.1 	"/>
	<line class="st1" x1="53.4" y1="181.8" x2="53.4" y2="172.5"/>
	<polyline class="st1" points="110.5,185.9 119.9,181.3 119.9,188.1 115.1,190.6 	"/>
	<polyline class="st1" points="114.4,178.6 114.9,178.4 119.8,181 	"/>
	<path class="st1" d="M60.8,169.2c0,0,3,2.7,0.1,8.2"/>
	<line class="st1" x1="64.2" y1="178.9" x2="64.2" y2="175.8"/>
	<g>
		<polygon class="st1" points="82.6,180.7 69.2,174.2 69.2,179.5 82.7,186.2 		"/>
		<polyline class="st1" points="82.7,186.2 84,185.6 83.9,180.1 70.5,173.5 69.2,174.2 		"/>
		<line class="st1" x1="69.2" y1="179.5" x2="74.5" y2="176.9"/>
		<polyline class="st1" points="75.9,177.6 75.9,182.7 81,180.1 		"/>
		<line class="st1" x1="82.6" y1="180.7" x2="83.9" y2="180.1"/>
	</g>
	<g>
		<polygon class="st1" points="94.9,186.2 85,181.2 85,187.6 95,192.7 		"/>
		<polyline class="st1" points="95,192.7 96.6,191.6 96.5,185.1 86.7,180.2 85,181.2 		"/>
		<line class="st1" x1="85" y1="187.3" x2="89.6" y2="185.3"/>
		<polyline class="st1" points="89.8,183.8 89.8,190 94.5,187.9 		"/>
		<line class="st1" x1="94.9" y1="186.2" x2="96.2" y2="185.5"/>
	</g>
	<g>
		<polygon class="st1" points="102.7,190.1 97.6,187.6 97.6,193.9 102.8,196.6 		"/>
		<polyline class="st1" points="102.8,196.6 104.5,195.6 104.4,189.1 99.3,186.5 97.6,187.6 		"/>
		<path class="st1" d="M97.5,189.3"/>
		<line class="st1" x1="97.7" y1="193.9" x2="102.3" y2="191.9"/>
		<line class="st1" x1="102.7" y1="190.1" x2="104" y2="189.5"/>
	</g>
	<path class="st1" d="M115.9,236.3l14.2-7c0,0,1.3-0.4,1.3,0.8c0,1.3,0.1,7,0.1,7s-0.4,1.6-1.3,2.2c-0.9,0.6-14.4,7.2-14.4,7.2
		s-1.2,0-1.2-1.3c0-1.3,0.1-6.7,0.1-6.7S114.8,236.7,115.9,236.3z"/>
	<path class="st1" d="M141.7,223.6l6.3-3.1c0,0,0.8-0.7,0.8,0.2c0.1,0.8,0,8.3,0,8.3s0.1,0.5-0.6,0.9c-0.7,0.4-6.5,3.3-6.5,3.3
		s-0.7,0-0.7-0.8s0.1-7.9,0.1-7.9S141.2,223.7,141.7,223.6z"/>
	<ellipse transform="matrix(0.498 -0.8672 0.8672 0.498 -130.1403 231.9102)" class="st1" cx="135.2" cy="228.4" rx="2" ry="1.4"/>
	<ellipse transform="matrix(0.498 -0.8672 0.8672 0.498 -135.8661 235.2248)" class="st1" cx="135.2" cy="235" rx="2" ry="1.4"/>
	<line class="st1" x1="107" y1="234.3" x2="111.8" y2="232"/>
	<path class="st1" d="M102.6,227.2c1.7-0.3,3,0.1,3,0.1s3.1,1.2,4.6,2.1c1.7,1,1.7,2.3,1.7,2.3V255c0,0,0.3,0.9-0.7,1.4
		c-1.2,0.6-4.7,2.4-4.7,2.4s-1.3,0.4-3.3-0.5s-9.4-4.8-12.1-17.3c0,0-1.7-10,5.9-12.4c0,0,4.9-0.5,5-2.1c0,0-0.5-0.9-5.3,2"/>
	<path class="st1" d="M106.8,258.4v-22.9c0,0,0.2-2.3-1-3.1l-5.7-2.6c0,0-1.7-0.6-4.4,0.4"/>
	<path class="st1" d="M98.1,253c0,0-4.4-3.8-5.8-12.6c0,0-0.9-8.7,5-9.9c0,0,2.1-0.9,8.4,3v24.3c0,0-1.6,0.2-4-1.6"/>
	<path class="st1" d="M105.4,239.2l-1.3-0.6c0,0-3.5-0.4-5.5,4.7c0,0-0.5,2.5-0.5,3.9c-0.1,1.5,0.1,6.6,0.1,6.6s1.3,3.7,4.7,2.1
		c0,0,2.5-1.7,2.7-3.1"/>
	<path class="st1" d="M98.7,230.6c0,0-2.9,5.3-0.1,12.6"/>
	<path class="st1" d="M105.5,240.4l-1.2-0.7c0,0-3.4,0.3-4.7,5.4v8.2c0,0-0.3,3.6,4.1,1.8"/>
	
		<ellipse transform="matrix(0.4022 -0.9156 0.9156 0.4022 -141.4225 145.6597)" class="st1" cx="40.8" cy="181.1" rx="1.6" ry="1.2"/>
	<ellipse transform="matrix(0.4022 -0.9156 0.9156 0.4022 -146.8245 149.1871)" class="st1" cx="40.8" cy="187" rx="1.6" ry="1.2"/>
	<polygon class="st1" points="141.3,218 133.4,214 133.4,207 141.3,211 	"/>
	<g>
		<polyline class="st1" points="135.7,213.3 134.3,212.6 134.3,208.5 140.2,211.5 140.2,215.6 138.8,214.9 		"/>
		<polyline class="st1" points="138.8,214.8 138.8,215.7 135.7,214.2 135.7,213.3 		"/>
	</g>
	<ellipse class="st1" cx="78.4" cy="164" rx="2.1" ry="1"/>
	<ellipse class="st1" cx="102.2" cy="175.9" rx="2.1" ry="1"/>
	<path class="st1" d="M110.6,186.3v4.5c0,0-0.3,2.1,1.3,2.7l2.8,1.3"/>
	<polygon class="st1" points="119,202.8 112.5,199.6 112.5,196.3 119,199.5 	"/>
	<ellipse transform="matrix(0.9368 -0.35 0.35 0.9368 -62.1006 50.9468)" class="st1" cx="109.9" cy="197.3" rx="1" ry="1.4"/>
	<line class="st1" x1="144.1" y1="211.3" x2="144.1" y2="217.9"/>
	<path class="st1" d="M80.8,176.7v-2.3c0.1-0.9-0.8-1.5-0.8-1.5l-8.7-4.4c-1-0.4-0.9,0.7-0.9,0.7v2.4c0,0-0.1,0.7,0.7,1.1l9,4.6
		C80.1,177.2,80.8,177.6,80.8,176.7z"/>
	<path class="st1" d="M70.7,168.4l0.9-0.5c0,0,0.4-0.2,0.8,0l8.6,4.3c0,0,0.9,0.6,0.8,1.5v2.3c0,0.6-0.2,0.7-0.2,0.7l-1.2,0.6"/>
	<path class="st1" d="M84.8,177.2"/>
	<path class="st1" d="M115.5,179.3c0,0,0.9,0.5,0.9,1c0,0.8,0,0.9,0,0.9s0.1,1-0.9,1.4c-1.1,0.4-5.6,2.7-5.6,2.7"/>
	<path class="st1" d="M108.4,182.7c0,0,0.7,0.3,0.8,0.8s0.1,1.8,0.1,1.8"/>
	<polyline class="st1" points="119.8,182.3 118.4,183 118.6,188.8 	"/>
	<path class="st1" d="M125.3,203.5l3.1,1.5c0,0,0.8,0.4,0.7,1.3c-0.1,0.8-0.1,0.9-0.8,0.9s-2.9-1.4-2.9-1.4s-0.7-0.7-0.8-1.5
		S125.3,203.5,125.3,203.5z"/>
</g>
<g>
	<path class="st18" d="M48.1,195.9l3.2-1.6l2.5,1.3l0.6,0.1l36.4,17.6l0.5,1.1l3.7-1.8l0.4,1.2l-1.1,0.5c0,0-1.6,0.9-1.1,2.5
		c0,0,0.8,1,1.8-0.3l0.4,0.3l0.2,0.9l-6.5,3.6h-0.5l-0.1,7.9c0,0,0,1.3-1.6,0.6c-1.6-0.8-38.3-19.1-38.3-19.1s-0.7-0.6-0.6-2.1
		c0.1-1.5-0.1-12.1-0.1-12.1L48.1,195.9z"/>
	<g>
		<path class="st19" d="M48.2,198.4c0-1.7,1.1-1.1,1.1-1.1l2.6,1.2c-0.1-0.9,0.5-0.7,0.5-0.7s32.6,16.3,34.3,17.1
			c1.7,0.8,1.3,1.8,1.3,1.8s0,10.7,0,12.2s-1.6,0.6-1.6,0.6s-36.6-18.2-37.4-18.7c-0.8-0.4-0.8-1.3-0.8-1.3v-13.1c0,0-0.1-0.6,0.7-1
			c0.8-0.4,2.1-1,2.1-1s0.5-0.3,1,0c0.5,0.2,2.1,1.2,2.1,1.2"/>
		<line class="st19" x1="48.5" y1="195.8" x2="51.7" y2="197.3"/>
		<path class="st19" d="M51.8,198c0,0-0.1-0.8,0.6-1.2c0,0,0.1,0,0.1-0.1c0.8-0.4,2.1-0.9,2.1-0.9l36.2,17.7c0,0,0.3,0.2,0.4,0.8"/>
		<line class="st19" x1="52.3" y1="196.9" x2="88.2" y2="214.9"/>
		<path class="st19" d="M86.6,229.7l1.2,0.6c0,0,0.7,0,0.7-1.1c0-1.1,0-7.8,0-7.8"/>
		<path class="st19" d="M87.8,215.8c0,0,0.1-0.9,0.7-1.2s2.3-1.1,2.3-1.1"/>
		<path class="st19" d="M88,215.3c0.4,0.4,1.1,0.2,1.1,0.2l5.8-2.9l0.5,0.1v0.9c0,0,0.3,0.3-0.5,0.6c0,0-1.8,0.1-1.8,2.6
			c0,0,0.5,1.6,1.9,0l0.5,0.1l0.1,0.8c0,0,0.1,0.4-0.6,0.8c-0.7,0.4-5.9,3-5.9,3s-0.8,0-1.1-0.2"/>
		<line class="st19" x1="89" y1="221" x2="89" y2="215.5"/>
		<ellipse transform="matrix(0.5 -0.866 0.866 0.5 -142.2606 187.0349)" class="st20" cx="90.8" cy="216.7" rx="1.5" ry="0.9"/>
		<ellipse class="st21" cx="54.9" cy="197" rx="0.9" ry="0.4"/>
		<ellipse class="st21" cx="88.1" cy="213.4" rx="0.9" ry="0.4"/>
		<polygon class="st22" points="74.8,223 67.9,219.5 67.9,213.4 74.8,216.9 		"/>
		<polygon class="st22" points="57.4,212.2 50.4,208.7 50.4,204.2 57.4,207.7 		"/>
		<polygon class="st22" points="65.4,216.5 59.9,213.8 59.9,209.5 65.4,212.3 		"/>
		<path class="st22" d="M76.2,218.6c0-0.9,0.4-0.7,0.4-0.7l6,3c0,0,0.7,0.3,0.7,1.1s0,4.4,0,4.4s0.2,0.9-0.7,0.5c-1-0.5-6-3-6-3
			c-0.1,0-0.2-0.1-0.2-0.2c-0.1-0.1-0.1-0.2-0.1-0.3L76.2,218.6z"/>
		<path class="st19" d="M62.4,204.1L83,214.3c0,0,0.7,0.4,0.7,1c0,0.7,0,3.4,0,3.4s0.1,0.9-0.6,0.6s-20.4-10.2-20.4-10.2
			s-0.7-0.5-0.8-1.3c-0.1-1.2,0-3.3,0-3.3S61.9,203.9,62.4,204.1z"/>
		<g>
			<polygon class="st7" points="68,224.1 58.5,219.2 40.8,230.9 36.2,228.4 37.9,238.2 55.1,237.9 50.3,235.5 			"/>
		</g>
	</g>
</g>
<g>
	<line class="st23" x1="61.7" y1="196.1" x2="110.5" y2="187.9"/>
	<line class="st24" x1="61.7" y1="196.1" x2="110.5" y2="187.9"/>
</g>
<line class="st23" x1="91.8" y1="223.2" x2="147.4" y2="212.2"/>
<line class="st24" x1="91.8" y1="223.2" x2="147.4" y2="212.2"/>
<g>
	<circle class="st25" cx="72.2" cy="241" r="11.2"/>
	<g>
		<text transform="matrix(1 0 0 1 67.6059 246.7257)" class="st18 st26 st27">1</text>
	</g>
</g>
<g>
	<circle class="st25" cx="142.9" cy="31.1" r="11.2"/>
	<g>
		<text transform="matrix(1 0 0 1 138.2776 36.8739)" class="st18 st26 st27">2</text>
	</g>
</g>
<g>
	<path class="st1" d="M62.6,162.8c0,0,0-0.6,0-1.6c0-1.1,1.2-1.6,1.2-1.6s7-3.7,7.4-3.8c0.3-0.2,0.6-0.2,1.1-0.1s0.8-0.2,0.9-0.6
		s1.2-0.9,1.2-0.9L186,98.2c0,0,0.7-0.5,1.3-0.1c0.6,0.5,2.1,1.4,2.1,1.4s0.3,0.2,0.6-0.1c0.2-0.2,0.6-0.7,0.4-1.2l-0.7-0.5
		c0,0-0.2-0.6,0-1s0.5-0.8,0.9-0.8c0.4,0,3.1-0.2,3.1-0.2s0.7,0.2,0.8,0.6l0,3.3c0,0,0.1,0.5-0.4,0.8c-0.5,0.2-44.9,22.4-44.9,22.4"
		/>
</g>
<g>
	<circle class="st28" cx="222" cy="183.4" r="11.3"/>
	<g>
		<text transform="matrix(1 0 0 1 217.2728 187.5028)" class="st7 st26 st29">a</text>
	</g>
</g>
<g>
	<polyline class="st1" points="205.9,63.1 209,64.6 202.1,68.2 194,64.1 185,68.7 184.8,72.1 181.7,73.7 	"/>
	<polyline class="st1" points="203,41.6 206.1,43.1 186.4,53.2 200.2,60.2 	"/>
	<polyline class="st1" points="166.8,39 182.7,31.3 197.2,38.7 	"/>
	<polyline class="st1" points="131.7,71.4 117.4,64.1 136.1,54.6 	"/>
	<polyline class="st1" points="209,64.7 209,66 202.1,69.6 194,65.5 185,70.1 184.8,73.5 181.7,75.1 	"/>
	<polyline class="st1" points="206.2,43.2 206.1,44.5 187.7,53.9 	"/>
	<polyline class="st1" points="161.1,86.5 164.8,88.3 184.5,78.3 184.4,77.1 	"/>
	<polyline class="st1" points="131.7,72.8 117.4,65.5 117.4,64.1 	"/>
	<line class="st1" x1="194" y1="64.1" x2="194" y2="65.5"/>
	<line class="st1" x1="202.1" y1="68.2" x2="202.1" y2="69.6"/>
	<polyline class="st1" points="141.4,53.9 142.9,54.8 146.8,54.8 	"/>
	<polyline class="st1" points="147.4,51.3 145,52.6 145,53.7 153.1,57.7 	"/>
	<path class="st1" d="M131.8,68.7l0.2,5.1l26.7,13.4c0,0,1.7,0.1,3.3-1.6l2.9,1.3l19.6-10l-2.9-1.4l-0.1-5l-26.8-13.4l-17.7,9
		l-0.6-0.1l-1.5,0.7l-1.1,0.2l-2.1,1.5l27,13.4l22.3-11"/>
	<line class="st1" x1="181.5" y1="75.6" x2="161.9" y2="85.6"/>
	<line class="st1" x1="161.5" y1="80.5" x2="161.6" y2="85.8"/>
	<line class="st1" x1="158.7" y1="81.8" x2="158.6" y2="87.2"/>
	<polyline class="st1" points="151.9,78.4 151.9,83.8 157.2,81.1 	"/>
	<polyline class="st1" points="145.3,75.2 145.3,80.2 150.4,77.7 	"/>
	<polyline class="st1" points="138.6,71.8 138.6,76.8 143.6,74.4 	"/>
	<line class="st1" x1="132" y1="73.7" x2="137.1" y2="71.1"/>
	<g>
		<ellipse class="st30" cx="138.7" cy="47.1" rx="2.6" ry="1.3"/>
		<path class="st31" d="M140.5,50.9c0.1,0.1,0.2,0.2,0.2,0.4c0,0.5-0.9,0.9-1.9,0.9c-1.1,0-1.9-0.4-1.9-0.9c0-0.1,0.1-0.3,0.2-0.4"
			/>
		<path class="st32" d="M140.4,49.4c-0.1,0.4-0.8,0.7-1.8,0.6c-0.9-0.1-1.6-0.6-1.5-1"/>
		<path class="st32" d="M140.2,49.8c0.2,0.2,0.2,0.3,0.2,0.5c-0.1,0.4-0.8,0.7-1.8,0.6s-1.6-0.6-1.5-1c0-0.1,0.1-0.2,0.2-0.3"/>
		<path class="st30" d="M140.3,50.5c0.6,0.2,1,0.6,1,1c0,0.7-1.2,1.3-2.6,1.3c-1.4,0-2.6-0.6-2.6-1.3c0-0.5,0.5-0.9,1.2-1.1"/>
		<path class="st30" d="M136.1,47.1V48c0,0.7,1.2,1.3,2.6,1.3c1.4,0,2.6-0.6,2.6-1.3v-0.9"/>
		<path class="st30" d="M136.1,51.3V56c0,0.7,1.2,1.3,2.6,1.3c1.4,0,2.6-0.6,2.6-1.3v-4.7"/>
		<path class="st32" d="M140.2,50.7c0.2,0.2,0.2,0.3,0.2,0.5c-0.1,0.4-0.8,0.7-1.8,0.6c-0.9-0.1-1.6-0.6-1.5-1
			c0-0.1,0.1-0.3,0.3-0.4"/>
		<line class="st31" x1="137.4" y1="47.5" x2="139.7" y2="46.4"/>
		<line class="st31" x1="139.5" y1="47.3" x2="137.9" y2="46.5"/>
	</g>
	<g>
		<ellipse class="st30" cx="200.2" cy="34.2" rx="2.6" ry="1.3"/>
		<path class="st31" d="M201.9,38c0.1,0.1,0.2,0.2,0.2,0.4c0,0.5-0.9,0.9-1.9,0.9c-1.1,0-1.9-0.4-1.9-0.9c0-0.1,0.1-0.3,0.2-0.4"/>
		<path class="st32" d="M201.8,36.5c-0.1,0.4-0.8,0.7-1.8,0.6c-0.9-0.1-1.6-0.6-1.5-1"/>
		<path class="st32" d="M201.6,36.9c0.2,0.2,0.2,0.3,0.2,0.5c-0.1,0.4-0.8,0.7-1.8,0.6c-0.9-0.1-1.6-0.6-1.5-1
			c0-0.1,0.1-0.2,0.2-0.3"/>
		<path class="st30" d="M201.8,37.5c0.6,0.2,1,0.6,1,1c0,0.7-1.2,1.3-2.6,1.3c-1.4,0-2.6-0.6-2.6-1.3c0-0.5,0.5-0.9,1.2-1.1"/>
		<path class="st30" d="M197.5,34.2v0.9c0,0.7,1.2,1.3,2.6,1.3c1.4,0,2.6-0.6,2.6-1.3v-0.9"/>
		<path class="st30" d="M197.5,38.4v4.7c0,0.7,1.2,1.3,2.6,1.3c1.4,0,2.6-0.6,2.6-1.3v-4.7"/>
		<path class="st32" d="M201.6,37.8c0.2,0.2,0.2,0.3,0.2,0.5c-0.1,0.4-0.8,0.7-1.8,0.6s-1.6-0.6-1.5-1c0-0.1,0.1-0.3,0.3-0.4"/>
		<line class="st31" x1="198.9" y1="34.6" x2="201.1" y2="33.5"/>
		<line class="st31" x1="200.9" y1="34.4" x2="199.3" y2="33.6"/>
	</g>
	<g>
		<ellipse class="st30" cx="203.1" cy="55.4" rx="2.6" ry="1.3"/>
		<path class="st31" d="M204.9,59.2c0.1,0.1,0.2,0.2,0.2,0.4c0,0.5-0.9,0.9-1.9,0.9s-1.9-0.4-1.9-0.9c0-0.1,0.1-0.3,0.2-0.4"/>
		<path class="st32" d="M204.7,57.7c-0.1,0.4-0.8,0.7-1.8,0.6c-0.9-0.1-1.6-0.6-1.5-1"/>
		<path class="st32" d="M204.5,58.1c0.2,0.2,0.2,0.3,0.2,0.5c-0.1,0.4-0.8,0.7-1.8,0.6c-0.9-0.1-1.6-0.6-1.5-1
			c0-0.1,0.1-0.2,0.2-0.3"/>
		<path class="st30" d="M204.7,58.8c0.6,0.2,1,0.6,1,1c0,0.7-1.2,1.3-2.6,1.3c-1.4,0-2.6-0.6-2.6-1.3c0-0.5,0.5-0.9,1.2-1.1"/>
		<path class="st30" d="M200.5,55.4v0.9c0,0.7,1.2,1.3,2.6,1.3c1.4,0,2.6-0.6,2.6-1.3v-0.9"/>
		<path class="st30" d="M200.5,59.6v4.7c0,0.7,1.2,1.3,2.6,1.3c1.4,0,2.6-0.6,2.6-1.3v-4.7"/>
		<path class="st32" d="M204.5,59c0.2,0.2,0.2,0.3,0.2,0.5c-0.1,0.4-0.8,0.7-1.8,0.6s-1.6-0.6-1.5-1c0-0.1,0.1-0.3,0.3-0.4"/>
		<line class="st31" x1="201.8" y1="55.8" x2="204.1" y2="54.7"/>
		<line class="st31" x1="203.9" y1="55.6" x2="202.3" y2="54.8"/>
	</g>
	<g>
		<polyline class="st33" points="166.7,61.4 166.7,57.4 164.5,58.5 164.5,61.9 		"/>
		<polyline class="st33" points="170,59.8 170,55.8 167.7,56.9 167.7,60.5 168.2,60.7 167,61.3 		"/>
		<polyline class="st33" points="173.1,58.2 173.1,54.2 170.9,55.3 170.9,58.9 171.4,59.1 170.2,59.7 		"/>
		<polyline class="st33" points="176.3,56.6 176.3,52.6 174.1,53.7 174.1,57.3 174.6,57.5 173.4,58.1 		"/>
		<polyline class="st33" points="176.6,56.6 177.8,56 177.3,55.8 177.3,52.2 179.5,51.1 179.5,55 185.6,52 183.7,51.1 		"/>
	</g>
	<g>
		<polyline class="st33" points="164.6,58.4 164.6,56.4 162.3,57.5 162.3,60.7 		"/>
		<polyline class="st33" points="167.8,56.8 167.8,54.8 165.5,55.9 165.5,57.9 		"/>
		<polyline class="st33" points="171,55.2 171,53.2 168.7,54.3 168.7,56.4 		"/>
		<polyline class="st33" points="174.2,53.7 174.2,51.6 171.9,52.7 171.9,54.7 		"/>
		<polyline class="st33" points="177.4,52.1 177.3,50.1 175.1,51.2 175.1,53.1 		"/>
	</g>
	<g>
		<polyline class="st33" points="162.4,57.3 162.4,55.2 160.1,56.3 160.1,59.6 		"/>
		<polyline class="st33" points="165.6,55.7 165.6,53.6 163.3,54.7 163.3,56.8 		"/>
		<polyline class="st33" points="168.8,54 168.7,52 166.5,53.1 166.5,55.2 		"/>
		<polyline class="st33" points="172,52.5 171.9,50.4 169.7,51.5 169.7,53.6 		"/>
		<polyline class="st33" points="175.2,50.9 175.1,48.9 172.9,50 172.9,52 		"/>
		<polyline class="st33" points="178.2,51.6 178.2,47.4 175.9,48.5 175.9,50.5 		"/>
		<polyline class="st33" points="181.4,47.8 181.3,45.8 179.1,46.9 179.1,51.2 		"/>
	</g>
	<g>
		<polyline class="st33" points="160.3,56.1 160.3,54.1 158,55.2 158,58.5 		"/>
		<polyline class="st33" points="163.6,54.5 163.5,52.5 161.3,53.6 161.3,55.7 		"/>
		<polyline class="st33" points="166.7,52.9 166.7,50.9 164.4,52 164.4,54.1 		"/>
		<polyline class="st33" points="169.9,51.4 169.9,49.3 167.6,50.4 167.6,52.5 		"/>
		<polyline class="st33" points="173.1,49.8 173.1,47.8 170.8,48.9 170.8,50.9 		"/>
		<polyline class="st33" points="176.1,50.5 176.1,46.3 173.9,47.4 173.9,49.3 		"/>
		<polyline class="st33" points="179.3,46.7 179.3,44.7 177,45.8 177,48 		"/>
	</g>
	<g>
		<polyline class="st33" points="158.2,55 158.2,52.9 156,54 156,57.5 		"/>
		<polyline class="st33" points="161.5,53.3 161.5,51.3 159.2,52.4 159.2,54.5 		"/>
		<polyline class="st33" points="164.6,51.7 164.6,49.7 162.4,50.8 162.4,52.9 		"/>
		<polyline class="st33" points="167.8,50.2 167.8,48.1 165.6,49.2 165.6,51.3 		"/>
		<polyline class="st33" points="171,48.6 171,46.6 168.8,47.7 168.8,49.7 		"/>
		<polyline class="st33" points="174.1,49.3 174.1,45.1 171.8,46.2 171.8,48.2 		"/>
		<polyline class="st33" points="177.2,45.5 177.2,43.5 175,44.6 175,46.8 		"/>
	</g>
	<g>
		<polyline class="st33" points="156.1,53.8 156,51.8 153.8,52.9 153.8,56.8 152.3,56.1 		"/>
		<polyline class="st33" points="159.3,52.2 159.3,50.2 157,51.3 157,53.3 		"/>
		<polyline class="st33" points="162.4,50.6 162.4,48.6 160.2,49.7 160.2,51.8 		"/>
		<polyline class="st33" points="165.6,49.1 165.6,47 163.4,48.1 163.4,50.2 		"/>
		<polyline class="st33" points="168.8,47.5 168.8,45.5 166.6,46.6 166.6,48.6 		"/>
		<polyline class="st33" points="171.9,48.2 171.9,44 169.6,45.1 169.6,47 		"/>
		<polyline class="st33" points="175,44.4 175,42.4 172.8,43.5 172.8,45.6 		"/>
	</g>
	<g>
		<polyline class="st33" points="153.8,52.9 153.8,50.9 151.6,52 151.5,55.7 150.1,55 		"/>
		<polyline class="st33" points="157.1,51.3 157.1,49.3 154.8,50.4 154.8,52.4 		"/>
		<polyline class="st33" points="160.2,49.7 160.2,47.7 158,48.8 158,50.9 		"/>
		<polyline class="st33" points="163.4,48.2 163.4,46.1 161.2,47.2 161.2,49.2 		"/>
		<polyline class="st33" points="166.6,46.6 166.6,44.6 164.4,45.7 164.4,47.6 		"/>
		<polyline class="st33" points="169.7,47.2 169.7,43.1 167.4,44.1 167.4,46.1 		"/>
		<polyline class="st33" points="172.8,43.5 172.8,41.5 170.6,42.6 170.6,44.5 		"/>
	</g>
	<g>
		<polyline class="st33" points="151.8,51.8 151.8,49.8 149.5,50.9 149.4,54.6 145.3,52.6 		"/>
		<polyline class="st33" points="155,50.2 155,48.2 152.7,49.3 152.7,51.3 		"/>
		<polyline class="st33" points="158.2,48.6 158.2,46.6 155.9,47.7 155.9,49.8 		"/>
		<polyline class="st33" points="161.4,47 161.3,45 159.1,46.1 159.1,48.1 		"/>
		<polyline class="st33" points="164.6,45.5 164.5,43.5 162.3,44.6 162.3,46.5 		"/>
		<polyline class="st33" points="167.6,46.1 167.6,41.9 165.3,43 165.3,45 		"/>
		<polyline class="st33" points="170.8,42.4 170.8,40.4 168.5,41.5 168.5,43.6 		"/>
	</g>
	<g>
		<polyline class="st33" points="156,47.5 156,45.5 153.7,46.6 153.7,48.7 		"/>
		<polyline class="st33" points="159.2,46 159.2,43.9 156.9,45 156.9,47.1 		"/>
		<polyline class="st33" points="162.4,44.4 162.4,42.4 160.1,43.5 160.1,45.5 		"/>
		<polyline class="st33" points="165.4,45.1 165.4,40.9 163.1,42 163.1,44 		"/>
		<polyline class="st33" points="168.6,41.3 168.6,39.3 166.3,40.4 166.3,42.5 		"/>
	</g>
	<g>
		<polyline class="st33" points="153.9,46.3 153.9,44.3 151.6,45.4 151.6,49.5 		"/>
		<polyline class="st33" points="157.1,44.8 157.1,42.7 154.8,43.8 154.8,45.9 		"/>
		<polyline class="st33" points="160.3,43.2 160.3,41.2 158,42.3 158,44.3 		"/>
		<polyline class="st33" points="163.3,43.9 163.3,39.7 161.1,40.8 161.1,42.8 		"/>
		<polyline class="st33" points="166.5,40.1 166.5,38.1 164.2,39.2 164.2,41.3 		"/>
	</g>
	<polyline class="st33" points="166.3,63 185.7,53.2 185.8,52.1 	"/>
	<g>
		<ellipse class="st34" cx="182.1" cy="49.1" rx="2.2" ry="1.1"/>
		<path class="st35" d="M183.6,52.3c0.1,0.1,0.1,0.2,0.1,0.3c0,0.4-0.7,0.8-1.6,0.8s-1.6-0.3-1.6-0.8c0-0.1,0-0.2,0.1-0.3"/>
		<path class="st36" d="M183.5,51c-0.1,0.4-0.7,0.6-1.4,0.5c-0.7-0.1-1.3-0.5-1.2-0.9"/>
		<path class="st36" d="M183.3,51.4c0.1,0.1,0.2,0.3,0.2,0.4c-0.1,0.4-0.7,0.6-1.4,0.5c-0.7-0.1-1.3-0.5-1.2-0.9
			c0-0.1,0.1-0.2,0.1-0.2"/>
		<path class="st34" d="M180,49.1v0.8c0,0.6,1,1.1,2.2,1.1s2.2-0.5,2.2-1.1v-0.8"/>
		<path class="st36" d="M183.3,52.1c0.1,0.1,0.2,0.3,0.2,0.4c-0.1,0.4-0.7,0.6-1.4,0.5c-0.7-0.1-1.3-0.5-1.2-0.9
			c0-0.1,0.1-0.2,0.2-0.3"/>
		<line class="st35" x1="181.1" y1="49.5" x2="182.9" y2="48.6"/>
		<line class="st35" x1="182.8" y1="49.3" x2="181.5" y2="48.7"/>
	</g>
	<g>
		<ellipse class="st37" cx="149" cy="49.4" rx="2" ry="1"/>
		<path class="st38" d="M149.5,53.3c-0.1,0-0.3,0-0.5,0c-0.8,0-1.5-0.3-1.5-0.7c0-0.1,0-0.2,0.1-0.3"/>
		<path class="st39" d="M149.5,51.6c-0.2,0-0.4,0-0.6,0c-0.7-0.1-1.2-0.5-1.2-0.8"/>
		<path class="st39" d="M149.4,52.3c-0.2,0-0.3,0-0.5,0c-0.7-0.1-1.2-0.5-1.2-0.8c0-0.1,0.1-0.2,0.1-0.2"/>
		<path class="st37" d="M147,49.4v0.7c0,0.5,0.9,1,2,1"/>
		<path class="st39" d="M149.4,53c-0.2,0-0.3,0-0.5,0c-0.7-0.1-1.2-0.5-1.2-0.8c0-0.1,0.1-0.2,0.2-0.3"/>
		<line class="st38" x1="148" y1="49.7" x2="149.8" y2="48.8"/>
		<line class="st38" x1="149.6" y1="49.5" x2="148.4" y2="48.9"/>
	</g>
	<g>
		<line class="st40" x1="208.9" y1="66.1" x2="208.9" y2="64.7"/>
		<path class="st41" d="M151.3,45.9C151.3,45.9,151.3,45.9,151.3,45.9c0-0.1,0-0.1,0.1-0.1"/>
		<path class="st40" d="M208.7,66.3C208.7,66.3,208.7,66.3,208.7,66.3c0.1-0.1,0.2-0.2,0.2-0.2"/>
		<path class="st40" d="M183,31.6c-0.1-0.1-0.3-0.1-0.5-0.1c-0.2,0-0.3,0-0.5,0.1"/>
		<path class="st40" d="M208.9,64.7C208.9,64.7,208.9,64.7,208.9,64.7c0-0.1-0.1-0.2-0.2-0.2"/>
		<path class="st40" d="M208.7,65C208.7,65,208.7,64.9,208.7,65c0.1-0.1,0.2-0.2,0.2-0.2"/>
		<g>
			<polygon class="st42" points="165,4.9 175.7,16.2 170.4,15.3 170.5,26.4 160,24.6 159.8,13.4 154.5,12.5 			"/>
		</g>
		<g>
			<polygon class="st42" points="165.5,47.1 154.8,35.7 160.1,36.7 159.9,25.5 170.5,27.4 170.6,38.6 176,39.5 			"/>
		</g>
	</g>
</g>
<line class="st23" x1="117" y1="68.5" x2="117" y2="181.7"/>
<line class="st23" x1="173" y1="87.7" x2="173" y2="157"/>
<line class="st24" x1="117" y1="68.5" x2="117" y2="181.7"/>
<line class="st24" x1="173" y1="87" x2="173" y2="156.2"/>
<g>
	<g>
		<defs>
			<circle id="SVGID_1_" cx="284.4" cy="59.3" r="56"/>
		</defs>
		<clipPath id="SVGID_00000047041685209239274660000005912925062094626489_">
			<use xlink:href="#SVGID_1_"  style="overflow:visible;"/>
		</clipPath>
		<g style="clip-path:url(#SVGID_00000047041685209239274660000005912925062094626489_);">
			<g>
				<g>
					<path class="st44" d="M224.4,44.2l11.4-1.5l-0.2-1l51-6.7l3.3,7.2c0,0,0.2,0.6-0.4,0.9s-4.6,1.4-4.6,1.4l-1,0.1l-5.2,0.6
						c0,0-1.2,0.3-1.5-0.9l0.2,4.2c0,0,0.6,0.9,1.5,0.8c1-0.1,3.2-0.3,3.2-0.3l0.6,3.8c0,0-0.1,0.7-1.5,0.8
						c-1.4,0.2-20.1,2.5-20.1,2.5s-1.8,0.3-1.5,2.4s1.9,1.8,1.9,1.8l20.7-2.7c0,0,0.6-0.1,0.7-0.5l0.4,4.7l-4.5,0.7l0.3,3
						c0,0,0.2,1.5,2,1.3S287,66,287,66l4.9-1.7l-0.5-6.9l-1.4-3.3l-0.3-4"/>
					<polyline class="st44" points="285.6,65.8 284.3,51.3 283.7,45 					"/>
					<path class="st44" d="M290.1,42.8l0.5,6.7c0,0-1.4,0.6-3.5,1.2c0,0-1.8,0.6-2.8,0.6"/>
					<path class="st44" d="M285.2,59.5c0,0,1.7-0.3,2.5-0.6s3.6-1.2,3.6-1.2"/>
					<path class="st44" d="M290,54.1c0,0-0.1,0.9-1.1,1.1l-1.7,2l-1.3,0.2l-0.6-6.1"/>
					<line class="st44" x1="286.6" y1="50.9" x2="287.2" y2="57.2"/>
					<polyline class="st44" points="224.3,47.1 276.6,40.4 278.2,43.7 277.5,43.6 276,40.7 					"/>
					<polyline class="st44" points="276.9,43.4 274.8,45.7 224.3,52.4 					"/>
					<path class="st44" d="M274.8,45.7l0.4,4.6l6.4-0.8c0,0,0.4-0.1,0.6-0.5"/>
					<path class="st44" d="M278.3,44.1l4.6-0.6c0,0,0.6,0.7,0.1,0.8l-4.3,0.5C278.6,44.8,278.3,44.7,278.3,44.1z"/>
					<line class="st44" x1="279" y1="65.2" x2="224.4" y2="72.4"/>
					<path class="st44" d="M259.7,57.9c0,0,0.1,1.4,1.9,1.2c1.8-0.2,20.1-2.6,20.1-2.6s1.3-0.3,1.2,0.7"/>
					<path class="st44" d="M226.8,55l7.9-1c0,0,1-0.2,1.1,0.6c0.1,0.8,0.3,2.5,0.3,2.5s0.3,0.9-0.9,1.1c-1.2,0.2-7.6,1.1-7.6,1.1
						s-1.1,0.2-1.2-0.9c-0.2-1.1-0.3-2.6-0.3-2.6S225.9,55.3,226.8,55z"/>
					<path class="st44" d="M242.1,52.9l7.9-1c0,0,1-0.2,1.1,0.6c0.1,0.8,0.3,2.5,0.3,2.5s0.3,0.9-0.9,1.1c-1.2,0.2-7.6,1.1-7.6,1.1
						s-1.1,0.2-1.2-0.9c-0.2-1.1-0.3-2.6-0.3-2.6S241.2,53.2,242.1,52.9z"/>
					<path class="st44" d="M227.7,64.4l7.9-1c0,0,1-0.2,1.1,0.6c0.1,0.8,0.3,2.5,0.3,2.5s0.3,0.9-0.9,1.1s-7.6,1.1-7.6,1.1
						s-1.1,0.2-1.2-0.9c-0.2-1.1-0.3-2.6-0.3-2.6S226.8,64.7,227.7,64.4z"/>
					<path class="st44" d="M243,62.3l7.9-1c0,0,1-0.2,1.1,0.6c0.1,0.8,0.3,2.5,0.3,2.5s0.3,0.9-0.9,1.1c-1.2,0.2-7.6,1.1-7.6,1.1
						s-1.1,0.2-1.2-0.9c-0.2-1.1-0.3-2.6-0.3-2.6S242.1,62.6,243,62.3z"/>
				</g>
				<line class="st44" x1="290.4" y1="48.9" x2="284.5" y2="50"/>
				<line class="st44" x1="291.8" y1="63.5" x2="285.8" y2="64.6"/>
			</g>
			<path class="st44" d="M292,61.8l47.8-0.9c0,0,1,0.1,1,1c0,0.9,0.5,1.3,1.1,1.3s3.6-0.1,3.6-0.1"/>
			<polygon class="st44" points="270.1,70.7 267.7,72 267.7,74.7 269.9,75.9 272.4,74.6 272.3,72 			"/>
			<polygon class="st44" points="275.8,70.6 273.4,71.9 273.4,74.6 275.6,75.8 278.1,74.5 278,71.9 			"/>
			<polygon class="st44" points="281.5,70.5 279.1,71.8 279,74.5 281.3,75.7 283.8,74.4 283.7,71.8 			"/>
			<polygon class="st44" points="287.1,70.5 284.8,71.8 284.7,74.4 286.9,75.7 289.4,74.4 289.3,71.8 			"/>
			<polyline class="st44" points="272,83.9 272,81.3 269.8,80 267.4,81.3 267.4,82.4 			"/>
			<polyline class="st44" points="277.8,83.8 277.7,81.2 275.5,79.9 273.1,81.2 273,83.9 			"/>
			<polyline class="st44" points="283.4,83.7 283.3,81.1 281.1,79.8 278.8,81.1 278.7,83.8 			"/>
			<polyline class="st44" points="289.1,83.7 289,81.1 286.8,79.8 284.4,81.1 284.3,83.7 			"/>
			<polygon class="st44" points="267.3,80.3 269.3,79.2 269.3,76.6 267.6,75.6 			"/>
			<polygon class="st44" points="272.8,75.2 270.4,76.5 270.3,79.2 272.6,80.4 275.1,79.1 275,76.5 			"/>
			<polygon class="st44" points="278.4,75.2 276.1,76.5 276,79.1 278.2,80.4 280.7,79.1 280.6,76.5 			"/>
			<polygon class="st44" points="284.1,75.1 281.7,76.4 281.6,79.1 283.9,80.3 286.4,79 286.3,76.4 			"/>
			<polyline class="st44" points="289.6,75.1 287.2,76.4 287.2,79 289.4,80.3 			"/>
			<polygon class="st44" points="293.5,63.7 298.2,63.7 298.2,66.2 295.8,67.7 293.4,66.4 			"/>
			<polyline class="st44" points="291.9,63.9 292.7,63.9 292.6,66.4 290.2,67.9 287.8,66.6 287.9,65.7 			"/>
			<polyline class="st44" points="280.6,66.8 278.9,67.9 276.5,66.6 276.5,65.7 			"/>
			<polyline class="st44" points="275.6,65.6 275.6,66.5 273.2,68 270.8,66.7 270.8,66.2 			"/>
			<polyline class="st44" points="269.9,66.3 269.9,66.7 267.9,67.9 			"/>
			<polyline class="st44" points="287,66 287,66.6 284.6,68.1 282.2,66.7 			"/>
			<polygon class="st44" points="299.1,63.7 303.9,63.7 303.8,66.2 301.4,67.7 299,66.4 			"/>
			<polygon class="st44" points="304.7,63.7 309.5,63.7 309.5,66.2 307.1,67.7 304.7,66.3 			"/>
			<polygon class="st44" points="310.5,63.6 315.3,63.6 315.2,66.2 312.9,67.6 310.5,66.3 			"/>
			<polygon class="st44" points="316.1,63.5 320.9,63.5 320.8,66 318.4,67.5 316,66.2 			"/>
			<polygon class="st44" points="321.8,63.3 326.5,63.3 326.5,65.9 324.1,67.3 321.7,66 			"/>
			<polygon class="st44" points="327.4,63.3 332.1,63.3 332.1,65.8 329.7,67.3 327.3,66 			"/>
			<line class="st44" x1="294.8" y1="75.9" x2="292.1" y2="75.9"/>
			<line class="st44" x1="343.4" y1="75" x2="300.2" y2="75.8"/>
			<path class="st44" d="M301.8,75.6v-2.5c0,0,0.1-1.4-1.4-1.4"/>
			<path class="st1" d="M294.5,71.8l-4.4,0l1.5,3.3c0,0,0.4,0.7,0.3,1.3c0,0,0.7,0.9,0.8,2.2s-0.1,5.4-0.1,5.4h1.5"/>
			<polyline class="st1" points="290,72 289.4,80.7 291.1,84.6 291.3,85.1 294.6,85.1 			"/>
			<line class="st1" x1="291.9" y1="75.8" x2="291.3" y2="85.1"/>
			<path class="st1" d="M264.8,89.7c-1.9,0-3.1,0.1-3.1,0.1l1.3,3.6"/>
			<path class="st1" d="M293,80.5l3.6,8.2c0,0,0.5,0.4-0.3,0.4c-0.5,0-15.4,0.3-25.5,0.5"/>
			<polyline class="st1" points="336,68.8 328.1,68.9 309.8,69.3 			"/>
			<line class="st1" x1="300.5" y1="69.2" x2="304.1" y2="69.1"/>
			<line class="st1" x1="245.4" y1="69.8" x2="294.3" y2="69.2"/>
			<g>
				<g>
					<ellipse class="st44" cx="297.5" cy="69.2" rx="2.7" ry="0.9"/>
					<path class="st44" d="M294.9,71.6v6.2c0,0.5,1.2,0.9,2.7,0.9c1.5,0,2.7-0.4,2.7-0.9v-6.2"/>
					<path class="st44" d="M293.7,85.1v2c0,0.5,1.2,0.9,2.7,0.9"/>
					<path class="st44" d="M300.1,76.8c0.7,0.2,1.1,0.6,1.1,1c0,0.8-1.7,1.4-3.7,1.4s-3.7-0.6-3.7-1.4c0-0.4,0.4-0.7,1-0.9"/>
					<path class="st44" d="M300.6,69.6v1.3c0,0.5-1.4,1-3,1c-1.7,0-3-0.4-3-1v-1.3"/>
				</g>
				<line class="st45" x1="296.2" y1="68.5" x2="299.2" y2="69.9"/>
				<line class="st45" x1="295.5" y1="69.7" x2="299.3" y2="68.6"/>
			</g>
			<g>
				<g>
					<ellipse class="st44" cx="267.8" cy="83.4" rx="2.7" ry="0.9"/>
					<path class="st44" d="M265.2,85.8v6.2c0,0.5,1.2,0.9,2.7,0.9c1.5,0,2.7-0.4,2.7-0.9v-6.2"/>
					<path class="st44" d="M270.4,90.9c0.7,0.2,1.1,0.6,1.1,1c0,0.8-1.7,1.4-3.7,1.4s-3.7-0.6-3.7-1.4c0-0.4,0.4-0.7,1-0.9"/>
					<path class="st44" d="M270.9,83.8V85c0,0.5-1.4,1-3,1c-1.7,0-3-0.4-3-1v-1.3"/>
				</g>
				<line class="st45" x1="267.6" y1="82.5" x2="268.1" y2="84.2"/>
				<line class="st45" x1="265.2" y1="83.4" x2="270.5" y2="83.4"/>
			</g>
			<line class="st1" x1="304.6" y1="70.8" x2="304.6" y2="68.2"/>
			<polygon class="st1" points="300.8,80.3 327,80 328.8,82.1 334.4,82 338.9,90.4 312.2,90.7 311,88.7 304.7,88.8 			"/>
			<polyline class="st1" points="300.9,80.3 300.8,87.1 304.7,95.6 306.9,95.5 			"/>
			<line class="st1" x1="338.5" y1="97.2" x2="338.9" y2="90.4"/>
			<polyline class="st1" points="309.7,95.5 311,95.4 312.2,97.4 			"/>
			<ellipse class="st1" cx="331.1" cy="80.4" rx="2.4" ry="0.7"/>
			<ellipse class="st1" cx="308.4" cy="91.7" rx="2.4" ry="0.7"/>
			<path class="st1" d="M307,93.5v2c0,0.2,0.6,0.4,1.3,0.4s1.3-0.2,1.3-0.4v-2"/>
			<path class="st1" d="M306,91.7v1.1c0,0.4,1.1,0.7,2.4,0.7c1.3,0,2.4-0.3,2.4-0.7v-1.1"/>
			<line class="st1" x1="328.8" y1="82" x2="328.8" y2="80.4"/>
			<line class="st1" x1="333.5" y1="80.4" x2="333.5" y2="82"/>
			<polyline class="st1" points="230.2,72 236.3,72.1 236.1,71 			"/>
			<path class="st1" d="M255.5,70c0,0-0.2,1.3,1,1.4c1.2,0.1,6.2,0,6.2,0s1.7-0.4,1.7,0.8s-0.2,9.5-0.2,9.5"/>
			<g>
				<ellipse class="st1" cx="245.2" cy="76.9" rx="4.5" ry="4.3"/>
				<ellipse class="st1" cx="245.2" cy="76.2" rx="3" ry="2.9"/>
			</g>
			<path class="st1" d="M261.5,75v4.7c0,0,0,1.9-2.3,1.9c-2.3,0-3.2,0-3.2,0s-0.9,0.1-1-1.5"/>
			<path class="st1" d="M257,81.5c0,0-0.1-0.8,0.4-0.9v-1.8c0,0,0-1.3,1.7-1.4l1.1,0c0,0,0.3-0.1,0.6-0.7c0,0,0.1-0.3,0.7-0.2"/>
			<path class="st1" d="M306.4,109.8l-4.8-11.5c-0.3-1-1.7-0.9-1.7-0.9l-10.1,0.1l-1.5-3.5c-0.3-0.9-1.9-0.8-1.9-0.8l-44.8,0.7
				c0,0-2.1,0.1-2,2l0.4,2.2l-8.5,0.1c0,0-2.1,0-2,1.2"/>
			<line class="st1" x1="271.1" y1="83.8" x2="290.6" y2="83.5"/>
			<line class="st1" x1="233.4" y1="84.2" x2="264.4" y2="83.8"/>
			<ellipse class="st44" cx="294.6" cy="96" rx="3.7" ry="1.2"/>
			<line class="st44" x1="290.9" y1="96" x2="290.9" y2="97.3"/>
			<line class="st44" x1="298.3" y1="96" x2="298.3" y2="97.3"/>
			<g>
				<path class="st18" d="M359,43.9c0,0-1.9,0.2-7,0.8c-5.1,0.5-6.5,1.8-6.5,1.8c-3.6,3.8-11,7.4-15.5,8.3
					c-4.4,0.9-10.7,6.1-11.8,7.5s-4.5,4.3-5.7,5c-1.2,0.8-2.7,2-2.7,2s-1.4,1.5-3.1,3l-0.1,0.1c-1.6,1.5-3.3,2.9-3.6,2.9
					c-0.4,0.1-1.2-0.2-1.2-0.2l-0.5-0.2c-1.2-0.8-1.6-2-1.6-2c-0.7-4.5,5.3-11.1,6.5-12s2-1.6,2.9-2.7l0.7-0.8c0,0-2,0.1-4.1-0.7
					c-2.2-0.8-3.5-1.2-3.5-1.2c-2.4,0-4.2-1.5-4.2-1.5l0,0c-0.2,0.9-0.4,1.7-0.5,2.3c-0.4,1.9-1.3,3-1.3,3s1.3,1.2,0.6,6.7
					c0,0-1.1,5.6-4.8,4.8l-0.4,0.1c0,0-1-3.6-0.9-6.7l-0.2-0.4c0,0-1.1-3.6-0.5-5.5c0,0,0.1-4.6,1.1-8.2c0,0-0.9-2.6,0.6-5.4
					c0,0,10.4-10.8,10.9-11.8c0.5-1,2.8-5.1,4.3-5.7s4.1-0.9,6.5-0.5c2.3,0.4,14.3,1.2,16.4,0.9c2.1-0.3,17.4-1.5,25.2-1.8
					c7.8-0.3,13.1-1.1,13.1-1.1"/>
				<path class="st1" d="M290.6,64l1.9,4.5c0,0,0,1.1-0.4,1.8c-0.1,0.2-0.3,0.4-0.6,0.5C291.4,70.8,290.5,67.1,290.6,64z"/>
				<path class="st1" d="M293.7,58.9c0,0,1.6,0.5,2.4,0.3c0,0,1.3,1.2,0.6,6.7c0,0-1.1,5.6-4.8,4.8"/>
				<path class="st1" d="M290.4,63.6c0,0-1.1-3.6-0.5-5.5c0,0,0.1-4.6,1.1-8.2c0,0-0.9-2.6,0.6-5.4c0,0,10.4-10.8,10.9-11.8
					c0.5-1,2.8-5.1,4.3-5.7s4.1-0.9,6.5-0.5c2.3,0.4,14.3,1.2,16.4,0.9c2.1-0.3,17.4-1.5,25.2-1.8c7.8-0.3,13.1-1.1,13.1-1.1"/>
				<path class="st1" d="M296.1,59.2c0,0,0.9-1.1,1.3-3c0.4-1.9,1.4-6.1,2-6.7"/>
				<path class="st1" d="M297.2,48.1c0,0,1.9,1.7,2.8,1c0.9-0.7,5.1-4.4,6.3-6.4c0.1-0.2,0.2-0.4,0.2-0.5c0.5-1.8,0-3-0.6-3.6"/>
				<path class="st1" d="M312.7,40.8c0,0-1.6,3.8-6.4,1.8"/>
				<path class="st1" d="M297.9,54.1c0,0,1.9,1.4,4.3,1.4c0,0,1.3,0.4,3.5,1.2c2.2,0.8,4.1,0.7,4.1,0.7"/>
				<path class="st1" d="M306.4,43.3c0,0,1.5,1.4,1.4,2.8c-0.2,1.3-0.2,2.1-0.3,2.4s-1.5,0.3-3.7,1.3c-2.2,1.1-1.4,0.9-1.4,0.9"/>
				<path class="st1" d="M307.9,48.2c0,0,1.7-0.4,2.9,1.2c0,0-0.1,2.6,0.7,4.5"/>
				<path class="st1" d="M317,39.6c0,0,2.3,4.9-2.3,11.8s-4.6,5.6-5.5,6.7s-1.8,1.8-2.9,2.7s-7.1,7.5-6.5,12c0,0,0.3,1.3,1.5,2.1"/>
				<path class="st1" d="M306.7,68.9c0,0-1.5-1.2-3-0.7c0,0-2.5,1.4-3.4,3.6c0,0-0.5,2.6,1.5,3.2c0,0,0.8,0.4,1.2,0.3
					c0.3,0,2.3-1.4,3.7-3.3c0.3-0.5,0.6-0.9,0.9-1.4C307.7,70.5,308.2,69.3,306.7,68.9z"/>
				<path class="st1" d="M306.7,72.2c1.7-1.5,3.1-3,3.1-3s1.5-1.2,2.7-2c1.2-0.8,4.5-3.7,5.7-5s7.4-6.6,11.8-7.5
					c4.4-0.9,11.8-4.5,15.5-8.3c0,0,1.5-1.3,6.5-1.8c5.1-0.5,7-0.8,7-0.8"/>
				<path class="st1" d="M309.9,35.1c0,0,1.7,2.2,2.1,3.4c0.3,1.3,2.3,5.1,3.5,11"/>
				<path class="st1" d="M313.2,42.1c0,0-1.6,2.1-1.9,4s-0.9,0.7-0.9,0.7s-0.3-1-2.6-0.4"/>
			</g>
		</g>
	</g>
	<polygon class="st46" points="276.3,17 267.7,25.8 272,25.2 271.8,39.6 280.3,38.5 280.5,24 284.8,23.4 	"/>
	<circle class="st47" cx="284.4" cy="59.3" r="56"/>
</g>
<g>
	<polygon class="st18" points="200.4,164.1 206.6,167.5 224.2,158.5 235.2,145.4 217.8,143 199.6,147.4 	"/>
	<g>
		<path class="st18" d="M175.7,142.9c0,5.3,8.4,9.5,18.7,9.5s18.7-4.3,18.7-9.5v-15.4c0-5.3-8.4-9.5-18.7-9.5s-18.7,4.3-18.7,9.5
			V142.9z"/>
		<path class="st18" d="M193.3,176.1c0,1.5,1.1,2.7,2.5,2.7c1.4,0,2.5-1.2,2.5-2.7v-23.4c0-1.5-1.1-2.7-2.5-2.7
			c-1.4,0-2.5,1.2-2.5,2.7V176.1z"/>
	</g>
	<g>
		<text transform="matrix(1 0 0 1 203.1149 159.7169)" class="st48"><tspan x="0" y="0" class="st7 st26 st49">x</tspan><tspan x="7" y="0" class="st7 st26 st49 st50"> </tspan><tspan x="8.2" y="0" class="st7 st26 st49">3</tspan></text>
	</g>
	<g>
		<g>
			<defs>
				<rect id="SVGID_00000155127463905415069750000002572813318966729638_" x="190.3" y="132.3" width="10.4" height="49.5"/>
			</defs>
			<clipPath id="SVGID_00000027567520094293485960000005700883716251373196_">
				<use xlink:href="#SVGID_00000155127463905415069750000002572813318966729638_"  style="overflow:visible;"/>
			</clipPath>
			<g style="clip-path:url(#SVGID_00000027567520094293485960000005700883716251373196_);">
				<defs>
					<rect id="SVGID_00000067953688056373707750000012928190073459837576_" x="190.3" y="132.3" width="10.4" height="49.5"/>
				</defs>
				<clipPath id="SVGID_00000017497609745563594170000000063166981923521425_">
					<use xlink:href="#SVGID_00000067953688056373707750000012928190073459837576_"  style="overflow:visible;"/>
				</clipPath>
				<path style="clip-path:url(#SVGID_00000017497609745563594170000000063166981923521425_);fill:#231F20;" d="M195.9,181.8
					c-0.9,0-0.9,0-0.9-0.9c-0.1-7.5-0.2-14.9-0.3-22.4c0-0.3-0.1-0.4-0.4-0.4c-1,0-2.1,0-3.1,0c-0.8,0-0.9-0.2-0.9-0.9
					c0-0.7,0-1.4,0-2c0-0.6,0.1-0.7,0.7-0.9c0.7-0.2,1.1-0.6,1.1-1.2c0-0.6-0.4-1-1.1-1.2c-0.6-0.1-0.7-0.3-0.7-0.9
					c0-4.4,0-8.8,0-13.3c0-2.1,0.9-3.8,2.8-4.8c2-1.1,4.5-0.7,6.3,1.1c0.9,0.9,1.3,2.2,1.3,3.6c0,4.5,0,8.9,0,13.4
					c0,0.6-0.1,0.7-0.7,0.9c-0.7,0.1-1.1,0.6-1.1,1.2c0,0.6,0.4,1,1.1,1.2c0.6,0.1,0.7,0.3,0.7,0.9c0,0.7,0,1.4,0,2.1
					c0,0.6-0.2,0.8-0.8,0.8c-1.1,0-2.1,0-3.2,0c-0.4,0-0.5,0.1-0.5,0.5c0.1,5.4,0.1,10.8,0.2,16.2c0,2.2,0,4.3,0.1,6.5
					C196.5,181.7,196.4,181.8,195.9,181.8 M191.5,156.5c-0.1,0.3,0.1,0.4,0.4,0.4c2.2,0,4.4,0,6.6,0c0.9,0,0.9,0,0.9-0.9
					c0-0.4-0.1-0.6-0.5-0.8c-0.9-0.4-1.3-1.2-1.3-2.1c0-1,0.5-1.7,1.4-2.2c0.4-0.2,0.5-0.4,0.5-0.8c0-2.1,0-4.2,0-6.4
					c0-2.2,0-4.4-0.1-6.7c-0.1-1.6-1-2.8-2.5-3.4c-1.6-0.6-3-0.2-4.1,0.7c-1,1-1.3,2-1.3,3.2c0,4.2,0,8.3,0,12.5
					c0,0.3,0.1,0.5,0.4,0.6c0.9,0.4,1.4,1.1,1.4,2.1c0,0.9-0.4,1.7-1.2,2.2c-0.5,0.2-0.7,0.5-0.6,1
					C191.5,156.3,191.5,156.4,191.5,156.5"/>
				<path style="clip-path:url(#SVGID_00000017497609745563594170000000063166981923521425_);fill:#231F20;" d="M193.4,150
					c-0.2,0.1-0.4,0-0.6-0.1c-0.2-0.2-0.2-0.4-0.2-0.6c0-3.9,0-7.8,0-11.8c0-0.5,0.2-0.8,0.6-0.7c0.4,0,0.6,0.3,0.6,0.7
					c0,3.9,0,7.9,0,11.8C193.8,149.7,193.7,149.9,193.4,150"/>
				<path style="clip-path:url(#SVGID_00000017497609745563594170000000063166981923521425_);fill:#231F20;" d="M195.3,150.1
					c-0.4,0-0.6-0.3-0.6-0.8c0-3.9,0-7.8,0-11.7c0-0.3,0-0.6,0.4-0.7c0.2-0.1,0.5,0,0.7,0.1c0.2,0.2,0.2,0.4,0.2,0.6
					c0,3.9,0,7.8,0,11.7C195.9,149.8,195.7,150.1,195.3,150.1"/>
				<path style="clip-path:url(#SVGID_00000017497609745563594170000000063166981923521425_);fill:#231F20;" d="M197.8,150.1
					c-0.4,0-0.6-0.3-0.6-0.8c0,0,0-0.1,0-0.1c0-2,0-4.1,0-6.1v-5.3c0-0.3,0-0.5,0.2-0.8c0.1-0.1,0.3-0.2,0.6-0.1
					c0.2,0.1,0.4,0.3,0.4,0.5c0,0.3,0,0.7,0,1c0,3.6,0,7.2,0,10.8C198.4,149.8,198.2,150.1,197.8,150.1"/>
			</g>
		</g>
		<path class="st53" d="M182,152.8c0,0,1.7-2.8,4.6-5.8c2.3-2.3,5.3-3.8,5.3-3.8s-1.8-1.1-4.5-4.4c-3.8-4.7-5.4-9.1-5.4-9.1v6.3
			c-3.7-1.7-4.9-4.7-4.9-4.7v10.2c0,4.1,4.9,6.7,4.9,6.7V152.8z"/>
		<path class="st53" d="M208.8,124.1c-1.2-1.1-2.8-2.1-4.6-2.9v12.1c1,0.4,2,0.9,2.8,1.4c0.6-0.5,1.3-1,1.8-1.5V124.1z"/>
		<path class="st53" d="M209.9,131.9c0.7-1,1.1-2,1.1-3.2c0-1.2-0.4-2.3-1.1-3.3V131.9z"/>
		<path class="st53" d="M203,132.8c-1.9-0.6-4.1-1.1-6.5-1.3v-12.2c2.3,0.2,4.5,0.7,6.5,1.4V132.8z"/>
		<path class="st53" d="M195.4,131.5c-0.5,0-0.9,0-1.4,0c-3.7,0-6.9,0.6-9.5,1.6c-2.1-3.4-3.1-6.4-3.1-6.4v7.9
			c-0.1,0-0.1,0.1-0.2,0.1c-2-1.3-4.1-3.4-4.1-6c0-5.4,7.8-9.4,16.9-9.4c0.5,0,1,0,1.4,0V131.5z"/>
		<path class="st53" d="M207.4,135.2c-0.7,0.4-1.5,0.9-2.3,1.3v12.1c0.8-0.4,1.6-0.9,2.3-1.4V135.2z"/>
		<path class="st53" d="M208.6,146.3c1.7-1.5,2.8-3.3,2.8-5v-10.5c-0.8,1.5-1.6,2.6-2.8,3.6V146.3z"/>
	</g>
</g>
<polygon class="st54" points="201.3,174.6 208,181.2 198.8,183.7 "/>
<polygon class="st54" points="295.1,87.3 289.1,82.7 297.1,80.2 "/>
<line class="st55" x1="295.8" y1="81.4" x2="200" y2="182"/>
<g>
	<g>
		<line class="st56" x1="293.5" y1="83.9" x2="202.1" y2="180"/>
		<g>
			<polygon class="st7" points="291.2,82.7 296,81.3 294.8,86.1 			"/>
		</g>
		<g>
			<polygon class="st7" points="200.8,177.7 199.6,182.6 204.4,181.2 			"/>
		</g>
	</g>
</g>
<g>
	<circle class="st18" cx="289.1" cy="188.2" r="31.7"/>
	<g>
		<defs>
			<circle id="SVGID_00000045601140122279778160000002023008415337959860_" cx="289.1" cy="188.2" r="31.7"/>
		</defs>
		<clipPath id="SVGID_00000016788710957984560030000007654836441379919781_">
			<use xlink:href="#SVGID_00000045601140122279778160000002023008415337959860_"  style="overflow:visible;"/>
		</clipPath>
		<g style="clip-path:url(#SVGID_00000016788710957984560030000007654836441379919781_);">
			<line class="st58" x1="249" y1="190" x2="323.5" y2="152.7"/>
			<line class="st59" x1="305.3" y1="195.8" x2="323.5" y2="186.8"/>
			<line class="st59" x1="249" y1="224" x2="278.7" y2="209"/>
			<line class="st58" x1="249" y1="208" x2="274.1" y2="195.2"/>
			<line class="st58" x1="300.4" y1="178.2" x2="323.5" y2="166.6"/>
			<line class="st58" x1="249" y1="203.8" x2="271.8" y2="192.4"/>
			<line class="st58" x1="300.9" y1="180" x2="323.5" y2="168.7"/>
			<line class="st58" x1="249" y1="205.9" x2="272.7" y2="194.1"/>
			<path class="st60" d="M277.5,205.9l22.8-11.7l0.7-13.7c0.2-2-1.1-2.4-1.1-2.4s-1.4-0.8-2.4-1.2s-2,0.2-2,0.2l-26.2,13
				c0,0-0.9,0.4,0,0.9c0.9,0.5,2.8,1.4,2.8,1.4s0.6,0.4,0.5,1.1c-0.1,0.7,0.1,1.1,0.1,1.1l0.8,0.8c0,0,0.7-0.4,1.3,0
				s1.6,0.4,1.7,1.8c0.1,1.4,0.8,9.8,0.8,9.8s1.7,1.2,1.6,3.3l26.2-12.9c0,0,0.8-1-0.5-2.6c-1.3-1.6-0.9-3.2-0.9-3.2l0.7-9.5
				c0,0,0-1.3,1.1-2.2l18.1-9"/>
			<path class="st60" d="M277.9,207.4l24-12c0,0,2.4-1.3,0-4.2l0.4-9.3c0,0,0-2.5,2.9-4.1"/>
			<path class="st60" d="M276.5,195.9l24.1-12.2c0,0-2.1-1.2-2.9-1.6s-1.5,0-1.5,0s-17.3,8.6-19.6,9.8s-2.8,3.1-2.8,3.1"/>
			<g>
				<path class="st7" d="M280.2,202.8l-0.1-7l1.6-0.8c0.6-0.3,1-0.5,1.2-0.5c0.3,0,0.5,0.1,0.7,0.3c0.2,0.3,0.3,0.7,0.3,1.2
					c0,0.4,0,0.8-0.2,1.2c-0.1,0.3-0.2,0.6-0.4,0.9c-0.2,0.2-0.3,0.4-0.5,0.6c-0.2,0.2-0.6,0.4-1.1,0.6l-0.7,0.3l0,2.6L280.2,202.8z
					 M281.1,196.5l0,2l0.6-0.3c0.4-0.2,0.7-0.4,0.8-0.5c0.1-0.1,0.2-0.3,0.3-0.5c0.1-0.2,0.1-0.4,0.1-0.6c0-0.3-0.1-0.4-0.2-0.5
					c-0.1-0.1-0.2-0.1-0.4-0.1c-0.1,0-0.4,0.1-0.7,0.3L281.1,196.5z"/>
				<path class="st7" d="M284.4,193.7l1-0.5l0,3.8c0,0.6,0,1,0.1,1.1c0,0.3,0.2,0.4,0.3,0.5c0.2,0.1,0.4,0.1,0.7-0.1
					c0.3-0.1,0.5-0.3,0.6-0.6c0.1-0.2,0.2-0.5,0.3-0.7c0-0.3,0-0.7,0-1.2l0-3.9l1-0.5l0,3.7c0,0.8,0,1.4-0.1,1.8s-0.1,0.7-0.3,1
					c-0.1,0.3-0.3,0.6-0.6,0.9c-0.2,0.3-0.6,0.5-1,0.7c-0.5,0.2-0.8,0.3-1.1,0.3c-0.2,0-0.4-0.1-0.6-0.3c-0.1-0.2-0.2-0.4-0.3-0.6
					c-0.1-0.4-0.1-0.9-0.1-1.7L284.4,193.7z"/>
				<path class="st7" d="M289,196.2l1-0.6c0.1,0.4,0.2,0.7,0.4,0.8c0.2,0.1,0.4,0.1,0.7,0c0.3-0.2,0.6-0.4,0.7-0.6
					c0.2-0.3,0.2-0.5,0.2-0.8c0-0.2,0-0.3-0.1-0.4c-0.1-0.1-0.2-0.1-0.4-0.1c-0.1,0-0.4,0-0.8,0.1c-0.5,0.1-0.9,0-1.2-0.1
					c-0.3-0.2-0.5-0.6-0.5-1.2c0-0.4,0.1-0.7,0.2-1.1c0.1-0.4,0.3-0.7,0.6-1c0.3-0.3,0.6-0.5,1-0.7c0.6-0.3,1.1-0.3,1.4-0.1
					c0.3,0.2,0.5,0.7,0.5,1.3l-1,0.6c0-0.3-0.1-0.5-0.3-0.6c-0.1-0.1-0.4-0.1-0.6,0.1c-0.3,0.1-0.5,0.3-0.7,0.6
					c-0.1,0.2-0.2,0.3-0.2,0.5c0,0.2,0.1,0.3,0.2,0.3c0.1,0.1,0.4,0.1,0.9,0c0.5-0.1,0.9-0.1,1.1,0c0.2,0.1,0.4,0.2,0.6,0.4
					c0.1,0.2,0.2,0.6,0.2,1c0,0.4-0.1,0.8-0.2,1.2c-0.2,0.4-0.4,0.8-0.7,1.1c-0.3,0.3-0.7,0.6-1.1,0.8c-0.6,0.3-1.1,0.3-1.5,0.1
					C289.2,197.5,289,197,289,196.2z"/>
				<path class="st7" d="M293.6,196.3l-0.1-7l1-0.5l0,2.7l2-1l0-2.7l1-0.5l0.1,7l-1,0.5l0-3l-2,1l0,3L293.6,196.3z"/>
			</g>
			<polygon class="st61" points="304.4,207.7 309.7,203.5 297.1,198.6 299.8,196.4 289,198.5 289.2,204.9 291.8,202.8 			"/>
		</g>
		
			<use xlink:href="#SVGID_00000045601140122279778160000002023008415337959860_"  style="overflow:visible;fill:none;stroke:#A6A8AB;stroke-linecap:round;stroke-linejoin:round;stroke-miterlimit:10;"/>
	</g>
</g>
<g>
	<circle class="st28" cx="247.1" cy="99.5" r="11.3"/>
	<g>
		<text transform="matrix(1 0 0 1 243.011 105.2036)" class="st7 st26 st29">b</text>
	</g>
</g>
</svg>
