<?xml version="1.0" encoding="UTF-8"?><svg id="uuid-4b776c22-132f-4b3b-bc0e-fc1eb697149f" xmlns="http://www.w3.org/2000/svg" width="167.2167mm" height="169.6975mm" viewBox="0 0 474 481.0324"><defs><style>.uuid-84a8704a-e60a-4caa-8474-ecfcda3027fe,.uuid-9aedd49c-1b2c-457b-b1de-8ae48508335f,.uuid-79937e81-ad98-4684-8bf6-02b857a08eb1{fill:#fff;}.uuid-9aedd49c-1b2c-457b-b1de-8ae48508335f,.uuid-bbcc36d0-a9dc-4745-b23f-5e7408757e9f{stroke-width:.5px;}.uuid-9aedd49c-1b2c-457b-b1de-8ae48508335f,.uuid-bbcc36d0-a9dc-4745-b23f-5e7408757e9f,.uuid-79937e81-ad98-4684-8bf6-02b857a08eb1{stroke-miterlimit:10;}.uuid-9aedd49c-1b2c-457b-b1de-8ae48508335f,.uuid-79937e81-ad98-4684-8bf6-02b857a08eb1{stroke:#000;}.uuid-068d7592-51ba-4de0-89d2-13aa9a8063b7{stroke:#fff;stroke-width:6px;}.uuid-068d7592-51ba-4de0-89d2-13aa9a8063b7,.uuid-5eca1107-2f61-4442-979c-bd1f5c34b250,.uuid-101819a7-64cd-425a-b2a3-9dd221296e9e{fill:none;stroke-linecap:round;stroke-linejoin:round;}.uuid-d3463090-1a39-46e2-bae9-504ebb715127{fill:#9124ff;}.uuid-24bf5198-1650-4c33-9f44-93d792335cbc{fill:#5094d2;}.uuid-bbcc36d0-a9dc-4745-b23f-5e7408757e9f{fill:#d0d3d4;stroke:#101820;}.uuid-5eca1107-2f61-4442-979c-bd1f5c34b250{stroke:#9124ff;}.uuid-5eca1107-2f61-4442-979c-bd1f5c34b250,.uuid-101819a7-64cd-425a-b2a3-9dd221296e9e{stroke-width:2px;}.uuid-101819a7-64cd-425a-b2a3-9dd221296e9e{stroke:#5094d2;}</style></defs><g><rect class="uuid-79937e81-ad98-4684-8bf6-02b857a08eb1" x="61.6561" y="92.5427" width="175.4308" height="47.8052"/><rect class="uuid-9aedd49c-1b2c-457b-b1de-8ae48508335f" x="70.9548" y="108.8496" width="16.206" height="16.206"/><rect class="uuid-9aedd49c-1b2c-457b-b1de-8ae48508335f" x="101.7702" y="108.8496" width="16.206" height="16.206"/><g><polygon points="126.7939 100.8898 121.8281 95.9241 121.8281 98.5978 118.9931 98.5978 118.9931 103.1819 121.8281 103.1819 121.8281 105.8556 126.7939 100.8898"/><polygon points="109.1585 100.8898 114.1242 105.8556 114.1242 103.1819 116.9592 103.1819 116.9592 98.5978 114.1242 98.5978 114.1242 95.9241 109.1585 100.8898"/></g><g><path d="m76.033,127.5161c.7441,0,1.3262.2656,1.7456.7969.5.6289.7495,1.6719.7495,3.1299,0,1.4541-.2515,2.499-.7549,3.1348-.4155.5244-.9961.7861-1.7402.7861-.748,0-1.3511-.2871-1.8086-.8623-.458-.5752-.687-1.5996-.687-3.0742,0-1.4473.252-2.4883.7549-3.125.416-.5244.9961-.7861,1.7407-.7861Zm0,1.2217c-.1782,0-.3374.0566-.4771.1699-.1396.1143-.248.3174-.3252.6113-.1011.3809-.1519,1.0215-.1519,1.9238,0,.9014.0454,1.5205.1362,1.8584.0908.3369.2051.5615.3433.6738.1382.1113.2964.167.4746.167s.3374-.0566.4771-.1699.248-.3174.3252-.6104c.1011-.3779.1519-1.0176.1519-1.9189,0-.9023-.0454-1.5215-.1362-1.8584-.0908-.3379-.2056-.5625-.3433-.6768-.1382-.1133-.2964-.1699-.4746-.1699Z"/><path d="m80.9294,131.3638l-1.3369-.2412c.1504-.5381.4092-.9365.7759-1.1953.3672-.2578.9121-.3877,1.6357-.3877.6567,0,1.146.0781,1.4678.2334s.5479.3525.6787.5928c.1313.2393.1968.6787.1968,1.3184l-.0156,1.7188c0,.4902.0234.8506.0708,1.083.0469.2324.1353.4814.2646.7471h-1.4575c-.0386-.0977-.0854-.2432-.1416-.4355-.0244-.0869-.0415-.1445-.0522-.1729-.2515.2451-.521.4287-.8071.5508-.2866.1221-.5928.1836-.9175.1836-.5732,0-1.0249-.1553-1.3555-.4668-.3301-.3105-.4951-.7041-.4951-1.1797,0-.3145.0752-.5947.2251-.8408.1504-.2471.3608-.4355.6318-.5664s.6616-.2461,1.1719-.3438c.6885-.1289,1.1655-.25,1.4312-.3613v-.1465c0-.2832-.0698-.4854-.21-.6064-.1396-.1201-.4033-.1807-.7915-.1807-.2622,0-.4663.0518-.6133.1553-.147.1025-.2656.2832-.3564.542Zm1.9712,1.1953c-.189.0635-.4878.1387-.8965.2256-.4092.0879-.6763.1729-.8022.2568-.1924.1367-.2881.3096-.2881.5195,0,.2061.0767.3838.2305.5342s.3496.2256.5874.2256c.2651,0,.519-.0869.7598-.2617.1782-.1328.2954-.2959.3516-.4883.0381-.126.0576-.3652.0576-.7178v-.2939Z"/></g><g><path d="m99.0779,127.5161c.7441,0,1.3262.2656,1.7456.7969.5.6289.7495,1.6719.7495,3.1299,0,1.4541-.2515,2.499-.7549,3.1348-.4155.5244-.9961.7861-1.7402.7861-.748,0-1.3511-.2871-1.8086-.8623-.458-.5752-.687-1.5996-.687-3.0742,0-1.4473.252-2.4883.7549-3.125.416-.5244.9961-.7861,1.7407-.7861Zm0,1.2217c-.1782,0-.3374.0566-.4771.1699-.1396.1143-.248.3174-.3252.6113-.1011.3809-.1519,1.0215-.1519,1.9238,0,.9014.0454,1.5205.1362,1.8584.0908.3369.2051.5615.3433.6738.1382.1113.2964.167.4746.167s.3374-.0566.4771-.1699.248-.3174.3252-.6104c.1011-.3779.1519-1.0176.1519-1.9189,0-.9023-.0454-1.5215-.1362-1.8584-.0908-.3379-.2056-.5625-.3433-.6768-.1382-.1133-.2964-.1699-.4746-.1699Z"/><path d="m102.8103,135.2329v-7.6855h1.4731v2.7686c.4546-.5176.9927-.7764,1.6147-.7764.6782,0,1.2393.2461,1.6831.7363.4438.4912.6655,1.1963.6655,2.1152,0,.9512-.2261,1.6836-.6787,2.1973s-1.0024.7705-1.6489.7705c-.3179,0-.6318-.0801-.9409-.2383-.3091-.1592-.5757-.3945-.7993-.7051v.8174h-1.3687Zm1.4629-2.9043c0,.5771.0908,1.0029.2725,1.2793.2554.3916.5942.5869,1.0171.5869.3252,0,.6021-.1387.8311-.417.229-.2773.3433-.7148.3433-1.3125,0-.6367-.1152-1.0947-.3462-1.377-.2305-.2812-.5259-.4219-.8857-.4219-.353,0-.6465.1377-.8809.4121-.2339.2744-.3511.6904-.3511,1.25Z"/><path d="m112.8865,135.2329h-1.4731v-5.5518c-.5386.5029-1.1729.876-1.9033,1.1162v-1.3359c.3848-.126.8022-.3652,1.2529-.7158.4512-.3516.7603-.7607.9282-1.2295h1.1953v7.7168Z"/></g><rect class="uuid-bbcc36d0-a9dc-4745-b23f-5e7408757e9f" x="117.9762" y="108.8496" width="16.206" height="16.206"/><g><path d="m123.7698,127.5161c.7441,0,1.3262.2656,1.7456.7969.5.6289.7495,1.6719.7495,3.1299,0,1.4541-.2515,2.499-.7549,3.1348-.4155.5244-.9961.7861-1.7402.7861-.748,0-1.3511-.2871-1.8086-.8623-.458-.5752-.687-1.5996-.687-3.0742,0-1.4473.252-2.4883.7549-3.125.416-.5244.9961-.7861,1.7407-.7861Zm0,1.2217c-.1782,0-.3374.0566-.4771.1699-.1396.1143-.248.3174-.3252.6113-.1011.3809-.1519,1.0215-.1519,1.9238,0,.9014.0454,1.5205.1362,1.8584.0908.3369.2051.5615.3433.6738.1382.1113.2964.167.4746.167s.3374-.0566.4771-.1699.248-.3174.3252-.6104c.1011-.3779.1519-1.0176.1519-1.9189,0-.9023-.0454-1.5215-.1362-1.8584-.0908-.3379-.2056-.5625-.3433-.6768-.1382-.1133-.2964-.1699-.4746-.1699Z"/><path d="m127.5022,135.2329v-7.6855h1.4731v2.7686c.4546-.5176.9927-.7764,1.6147-.7764.6782,0,1.2393.2461,1.6831.7363.4438.4912.6655,1.1963.6655,2.1152,0,.9512-.2261,1.6836-.6787,2.1973s-1.0024.7705-1.6489.7705c-.3179,0-.6318-.0801-.9409-.2383-.3091-.1592-.5757-.3945-.7993-.7051v.8174h-1.3687Zm1.4629-2.9043c0,.5771.0908,1.0029.2725,1.2793.2554.3916.5942.5869,1.0171.5869.3252,0,.6021-.1387.8311-.417.229-.2773.3433-.7148.3433-1.3125,0-.6367-.1152-1.0947-.3462-1.377-.2305-.2812-.5259-.4219-.8857-.4219-.353,0-.6465.1377-.8809.4121-.2339.2744-.3511.6904-.3511,1.25Z"/><path d="m138.7839,133.8648v1.3682h-5.1636c.0557-.5176.2236-1.0078.5029-1.4707.2798-.4629.832-1.0771,1.6567-1.8428.6641-.6182,1.0713-1.0381,1.2217-1.2578.2026-.3037.3037-.6045.3037-.9014,0-.3291-.0884-.5811-.2646-.7578s-.4204-.2646-.7314-.2646c-.3076,0-.5522.0928-.7339.2773-.1816.1855-.2866.4932-.3145.9229l-1.4678-.1465c.0874-.8105.3618-1.3926.8228-1.7461.4614-.3525,1.0381-.5293,1.7305-.5293.7583,0,1.354.2041,1.7876.6133.4331.4092.6499.917.6499,1.5254,0,.3467-.062.6758-.186.9883s-.3208.6406-.5898.9834c-.1782.2266-.5.5537-.9648.9805-.4648.4258-.7593.709-.8833.8486s-.2246.2764-.3013.4092h2.9253Z"/></g></g><g><rect class="uuid-79937e81-ad98-4684-8bf6-02b857a08eb1" x="237.0869" y="92.5427" width="175.4308" height="47.8052"/><rect class="uuid-9aedd49c-1b2c-457b-b1de-8ae48508335f" x="246.3856" y="108.8496" width="16.206" height="16.206"/><rect class="uuid-9aedd49c-1b2c-457b-b1de-8ae48508335f" x="277.201" y="108.8496" width="16.206" height="16.206"/><g><polygon points="302.2247 100.8898 297.2589 95.9241 297.2589 98.5978 294.4239 98.5978 294.4239 103.1819 297.2589 103.1819 297.2589 105.8556 302.2247 100.8898"/><polygon points="284.5893 100.8898 289.5551 105.8556 289.5551 103.1819 292.39 103.1819 292.39 98.5978 289.5551 98.5978 289.5551 95.9241 284.5893 100.8898"/></g><g><path d="m251.4636,127.5161c.7441,0,1.3262.2656,1.7456.7969.5.6289.7495,1.6719.7495,3.1299,0,1.4541-.2515,2.499-.7549,3.1348-.4155.5244-.9961.7861-1.7402.7861-.748,0-1.3511-.2871-1.8086-.8623-.458-.5752-.687-1.5996-.687-3.0742,0-1.4473.252-2.4883.7549-3.125.416-.5244.9961-.7861,1.7407-.7861Zm0,1.2217c-.1782,0-.3374.0566-.4771.1699-.1396.1143-.248.3174-.3252.6113-.1011.3809-.1519,1.0215-.1519,1.9238,0,.9014.0454,1.5205.1362,1.8584.0908.3369.2051.5615.3433.6738.1382.1113.2964.167.4746.167s.3374-.0566.4771-.1699.248-.3174.3252-.6104c.1011-.3779.1519-1.0176.1519-1.9189,0-.9023-.0454-1.5215-.1362-1.8584-.0908-.3379-.2056-.5625-.3433-.6768-.1382-.1133-.2964-.1699-.4746-.1699Z"/><path d="m256.3601,131.3638l-1.3369-.2412c.1504-.5381.4092-.9365.7759-1.1953.3672-.2578.9121-.3877,1.6357-.3877.6567,0,1.146.0781,1.4678.2334s.5479.3525.6787.5928c.1313.2393.1968.6787.1968,1.3184l-.0156,1.7188c0,.4902.0234.8506.0708,1.083.0469.2324.1353.4814.2646.7471h-1.4575c-.0386-.0977-.0854-.2432-.1416-.4355-.0244-.0869-.0415-.1445-.0522-.1729-.2515.2451-.521.4287-.8071.5508-.2866.1221-.5928.1836-.9175.1836-.5732,0-1.0249-.1553-1.3555-.4668-.3301-.3105-.4951-.7041-.4951-1.1797,0-.3145.0752-.5947.2251-.8408.1504-.2471.3608-.4355.6318-.5664s.6616-.2461,1.1719-.3438c.6885-.1289,1.1655-.25,1.4312-.3613v-.1465c0-.2832-.0698-.4854-.21-.6064-.1396-.1201-.4033-.1807-.7915-.1807-.2622,0-.4663.0518-.6133.1553-.147.1025-.2656.2832-.3564.542Zm1.9712,1.1953c-.189.0635-.4878.1387-.8965.2256-.4092.0879-.6763.1729-.8022.2568-.1924.1367-.2881.3096-.2881.5195,0,.2061.0767.3838.2305.5342s.3496.2256.5874.2256c.2651,0,.519-.0869.7598-.2617.1782-.1328.2954-.2959.3516-.4883.0381-.126.0576-.3652.0576-.7178v-.2939Z"/></g><g><path d="m275.0569,127.5161c.7441,0,1.3262.2656,1.7461.7969.499.6289.749,1.6719.749,3.1299,0,1.4541-.251,2.499-.7549,3.1348-.416.5244-.9961.7861-1.7402.7861-.748,0-1.3506-.2871-1.8086-.8623s-.687-1.5996-.687-3.0742c0-1.4473.252-2.4883.7549-3.125.4155-.5244.9966-.7861,1.7407-.7861Zm0,1.2217c-.1787,0-.3369.0566-.4775.1699-.1396.1143-.248.3174-.3242.6113-.1016.3809-.1523,1.0215-.1523,1.9238,0,.9014.0449,1.5205.1367,1.8584.0908.3369.2051.5615.3428.6738.1377.1113.2959.167.4746.167.1777,0,.3369-.0566.4766-.1699.1406-.1133.249-.3174.3252-.6104.1016-.3779.1523-1.0176.1523-1.9189,0-.9023-.0459-1.5215-.1367-1.8584-.0908-.3379-.2051-.5625-.3428-.6768-.1387-.1133-.2969-.1699-.4746-.1699Z"/><path d="m278.7893,135.2329v-7.6855h1.4727v2.7686c.4541-.5176.9932-.7764,1.6152-.7764.6777,0,1.2383.2461,1.6826.7363.4434.4912.666,1.1963.666,2.1152,0,.9512-.2266,1.6836-.6797,2.1973-.4521.5137-1.002.7705-1.6484.7705-.3184,0-.6318-.0801-.9414-.2383-.3086-.1592-.5752-.3945-.7988-.7051v.8174h-1.3682Zm1.4619-2.9043c0,.5771.0908,1.0029.2734,1.2793.2549.3916.5938.5869,1.0166.5869.3252,0,.6016-.1387.8311-.417.2285-.2773.3438-.7148.3438-1.3125,0-.6367-.1162-1.0947-.3467-1.377-.2305-.2812-.5254-.4219-.8857-.4219-.3535,0-.6465.1377-.8809.4121s-.3516.6904-.3516,1.25Z"/><path d="m288.8655,135.2329h-1.4736v-5.5518c-.5381.5029-1.1719.876-1.9023,1.1162v-1.3359c.3838-.126.8018-.3652,1.2529-.7158.4502-.3516.7598-.7607.9277-1.2295h1.1953v7.7168Z"/></g><rect class="uuid-bbcc36d0-a9dc-4745-b23f-5e7408757e9f" x="293.407" y="108.8496" width="16.206" height="16.206"/><g><path d="m298.8743,127.5161c.7441,0,1.3262.2656,1.7461.7969.499.6289.749,1.6719.749,3.1299,0,1.4541-.251,2.499-.7549,3.1348-.416.5244-.9961.7861-1.7402.7861-.748,0-1.3506-.2871-1.8086-.8623s-.6865-1.5996-.6865-3.0742c0-1.4473.251-2.4883.7549-3.125.416-.5244.9961-.7861,1.7402-.7861Zm0,1.2217c-.1787,0-.3369.0566-.4775.1699-.1396.1143-.248.3174-.3242.6113-.1016.3809-.1523,1.0215-.1523,1.9238,0,.9014.0449,1.5205.1367,1.8584.0908.3369.2051.5615.3428.6738.1377.1113.2959.167.4746.167.1777,0,.3369-.0566.4766-.1699.1406-.1133.249-.3174.3252-.6104.1016-.3779.1523-1.0176.1523-1.9189,0-.9023-.0459-1.5215-.1367-1.8584-.0908-.3379-.2051-.5625-.3428-.6768-.1387-.1133-.2969-.1699-.4746-.1699Z"/><path d="m302.6067,135.2329v-7.6855h1.4727v2.7686c.4541-.5176.9932-.7764,1.6152-.7764.6777,0,1.2383.2461,1.6826.7363.4434.4912.666,1.1963.666,2.1152,0,.9512-.2266,1.6836-.6797,2.1973-.4521.5137-1.002.7705-1.6484.7705-.3184,0-.6318-.0801-.9414-.2383-.3086-.1592-.5752-.3945-.7988-.7051v.8174h-1.3682Zm1.4619-2.9043c0,.5771.0908,1.0029.2734,1.2793.2549.3916.5938.5869,1.0166.5869.3252,0,.6016-.1387.8311-.417.2285-.2773.3438-.7148.3438-1.3125,0-.6367-.1162-1.0947-.3467-1.377-.2305-.2812-.5254-.4219-.8857-.4219-.3535,0-.6465.1377-.8809.4121s-.3516.6904-.3516,1.25Z"/><path d="m313.8879,133.8648v1.3682h-5.1631c.0557-.5176.2236-1.0078.5029-1.4707s.832-1.0771,1.6562-1.8428c.6641-.6182,1.0713-1.0381,1.2217-1.2578.2031-.3037.3047-.6045.3047-.9014,0-.3291-.0889-.5811-.2646-.7578-.1768-.1768-.4209-.2646-.7314-.2646-.3076,0-.5527.0928-.7344.2773-.1816.1855-.2861.4932-.3145.9229l-1.4678-.1465c.0869-.8105.3613-1.3926.8232-1.7461.4609-.3525,1.0381-.5293,1.7295-.5293.7588,0,1.3545.2041,1.7881.6133s.6494.917.6494,1.5254c0,.3467-.0615.6758-.1855.9883s-.3203.6406-.5898.9834c-.1787.2266-.5.5537-.9648.9805-.4648.4258-.7588.709-.8828.8486s-.2246.2764-.3018.4092h2.9248Z"/></g></g><g><path d="m125.7918,73.605l1.1191.2822c-.2349.9189-.6567,1.6201-1.2661,2.1025s-1.354.7236-2.2344.7236c-.9111,0-1.6523-.1855-2.2231-.5566s-1.0054-.9082-1.3032-1.6123c-.2979-.7031-.4468-1.459-.4468-2.2656,0-.8809.168-1.6484.5044-2.3037.3364-.6562.8149-1.1533,1.436-1.4941.6206-.3398,1.3042-.5098,2.0498-.5098.8457,0,1.5571.2148,2.1338.6455s.9785,1.0361,1.2051,1.8164l-1.1011.2598c-.1963-.6152-.481-1.0635-.8535-1.3438-.373-.2803-.8423-.4209-1.4072-.4209-.6499,0-1.1929.1553-1.6289.4668-.4365.3115-.7432.7295-.9199,1.2539-.1768.5254-.2651,1.0664-.2651,1.624,0,.7188.1045,1.3467.314,1.8828s.5356.9365.9775,1.2021.9209.3975,1.436.3975c.6265,0,1.1572-.1807,1.5913-.542.4346-.3613.7285-.8975.8823-1.6084Z"/><path d="m127.7698,73.5064c0-1.1338.3154-1.9736.9458-2.5195.5269-.4541,1.1685-.6807,1.9263-.6807.8418,0,1.5298.2764,2.0645.8271.5342.5518.8013,1.3145.8013,2.2871,0,.7881-.1182,1.4082-.3545,1.8594-.2363.4521-.5806.8027-1.0322,1.0527s-.9448.375-1.479.375c-.8574,0-1.5508-.2754-2.0791-.8252-.5288-.5498-.793-1.3418-.793-2.376Zm1.0669,0c0,.7852.1709,1.3721.5132,1.7617.3423.3906.7729.5859,1.292.5859.5146,0,.9434-.1963,1.2856-.5889.3423-.3916.5132-.9893.5132-1.793,0-.7578-.1719-1.3311-.5161-1.7217-.3438-.3896-.7715-.585-1.2827-.585-.519,0-.9497.1943-1.292.582-.3423.3887-.5132.9746-.5132,1.7588Z"/><path d="m134.7244,76.5689v-6.124h.9346v.8701c.4497-.6719,1.0991-1.0088,1.9487-1.0088.3691,0,.7085.0664,1.0181.1992s.541.3066.6948.5215c.1538.2158.2612.4717.3228.7676.0386.1924.0576.5283.0576,1.0088v3.7656h-1.0376v-3.7256c0-.4229-.0405-.7383-.1211-.9482-.0811-.21-.2241-.377-.4297-.502s-.4468-.1875-.7236-.1875c-.4424,0-.8237.1406-1.145.4209-.3208.2812-.4814.8135-.4814,1.5977v3.3447h-1.0381Z"/><path d="m143.5588,75.6402l.1499.917c-.2925.0615-.5537.0928-.7842.0928-.377,0-.6689-.0596-.877-.1787-.2075-.1191-.3535-.2764-.438-.4707-.0845-.1934-.127-.6025-.127-1.2246v-3.5234h-.7612v-.8076h.7612v-1.5166l1.0322-.623v2.1396h1.0439v.8076h-1.0439v3.5811c0,.2959.0181.4863.0547.5703.0366.085.0962.1523.1787.2021.083.0498.2012.0752.355.0752.1152,0,.2671-.0137.4556-.041Z"/><path d="m144.5623,76.5689v-6.124h.9341v.9287c.2383-.4346.4585-.7217.6602-.8594.2021-.1387.4238-.208.666-.208.3501,0,.7056.1113,1.0669.335l-.3574.9629c-.2539-.1504-.5073-.2256-.7612-.2256-.2271,0-.4307.0684-.6113.2051s-.3096.3262-.3862.5684c-.1152.3691-.1729.7725-.1729,1.2109v3.2061h-1.0381Z"/><path d="m148.1204,73.5064c0-1.1338.3154-1.9736.9458-2.5195.5269-.4541,1.1685-.6807,1.9263-.6807.8418,0,1.5298.2764,2.0645.8271.5342.5518.8013,1.3145.8013,2.2871,0,.7881-.1182,1.4082-.3545,1.8594-.2363.4521-.5806.8027-1.0322,1.0527s-.9448.375-1.479.375c-.8574,0-1.5508-.2754-2.0791-.8252-.5288-.5498-.793-1.3418-.793-2.376Zm1.0669,0c0,.7852.1709,1.3721.5132,1.7617.3423.3906.7729.5859,1.292.5859.5146,0,.9434-.1963,1.2856-.5889.3423-.3916.5132-.9893.5132-1.793,0-.7578-.1719-1.3311-.5161-1.7217-.3438-.3896-.7715-.585-1.2827-.585-.519,0-.9497.1943-1.292.582-.3423.3887-.5132.9746-.5132,1.7588Z"/><path d="m155.052,76.5689v-8.4541h1.0381v8.4541h-1.0381Z"/><path d="m157.6755,76.5689v-8.4541h1.0381v8.4541h-1.0381Z"/><path d="m164.5149,74.5962l1.0728.1328c-.1694.627-.4824,1.1133-.9399,1.459-.4575.3467-1.042.5195-1.7529.5195-.896,0-1.606-.2764-2.1309-.8281s-.7871-1.3252-.7871-2.3203c0-1.0303.2651-1.8301.7959-2.3994.5303-.5693,1.2183-.8535,2.0645-.8535.8188,0,1.4878.2793,2.0063.8359.519.5576.7788,1.3418.7788,2.3535,0,.0615-.002.1533-.0059.2764h-4.5674c.0386.6729.229,1.1875.5713,1.5459.3418.3574.7686.5361,1.2798.5361.3809,0,.7056-.1006.9746-.2998.269-.2002.4824-.5195.6401-.958Zm-3.4077-1.6777h3.4194c-.0464-.5146-.1768-.9014-.3921-1.1592-.3306-.3994-.7593-.5996-1.2861-.5996-.4766,0-.8774.1592-1.2021.4785-.3252.3193-.5049.7461-.5391,1.2803Z"/><path d="m166.8792,76.5689v-6.124h.9341v.9287c.2383-.4346.4585-.7217.6602-.8594.2021-.1387.4238-.208.666-.208.3501,0,.7056.1113,1.0669.335l-.3574.9629c-.2539-.1504-.5073-.2256-.7612-.2256-.2271,0-.4307.0684-.6113.2051s-.3096.3262-.3862.5684c-.1152.3691-.1729.7725-.1729,1.2109v3.2061h-1.0381Z"/><path d="m177.7263,76.5689h-1.0381v-6.6143c-.25.2383-.5776.4766-.9829.7148-.4058.2383-.77.417-1.0928.5361v-1.0029c.5801-.2734,1.0879-.6035,1.5225-.9922.4341-.3877.7417-.7646.9224-1.1299h.6689v8.4883Z"/></g><g><path d="m216.8318,186.8198l1.6606-.1611c.1001.5576.3027.9668.6084,1.2285.3057.2607.7183.3916,1.2368.3916.5498,0,.9644-.1162,1.2432-.3486.2783-.2324.418-.5049.418-.8164,0-.1992-.0586-.3691-.1758-.5098-.1177-.1406-.3223-.2627-.6143-.3662-.2002-.0693-.6558-.1924-1.3667-.3691-.915-.2266-1.5571-.5059-1.9263-.8359-.519-.4658-.7783-1.0322-.7783-1.7012,0-.4307.1221-.834.3662-1.208.2441-.375.5957-.6611,1.0552-.8564.4595-.1963,1.0142-.2939,1.6636-.2939,1.061,0,1.8599.2324,2.396.6973.5366.4648.8179,1.0859.8452,1.8623l-1.707.0752c-.0732-.4346-.23-.7471-.4702-.9365-.2402-.1904-.6006-.2861-1.0811-.2861-.4961,0-.8843.1025-1.165.3057-.1807.1309-.271.3057-.271.5254,0,.1992.0845.3711.2539.5127.2153.1807.7378.3691,1.5684.5654s1.4448.3984,1.8423.6084c.3979.209.7095.4961.9346.8594.2246.3633.3374.8115.3374,1.3467,0,.4844-.1348.9375-.4038,1.3604s-.6499.7373-1.1421.9434c-.4917.2051-1.105.3086-1.8394.3086-1.0688,0-1.8896-.2471-2.4624-.7412s-.915-1.2139-1.0264-2.1602Z"/><path d="m227.9387,183.4468v1.292h-1.1074v2.4678c0,.5.0107.791.0317.874.021.082.0693.1504.144.2041.0752.0537.1665.0811.2739.0811.1499,0,.3672-.0518.6519-.1562l.1382,1.2578c-.3765.1611-.8032.2422-1.2803.2422-.292,0-.5552-.0488-.79-.1475-.2344-.0977-.4062-.2246-.5161-.3809-.1094-.1553-.1855-.3662-.2275-.6309-.0347-.1885-.0518-.5693-.0518-1.1416v-2.6699h-.7441v-1.292h.7441v-1.2168l1.626-.9463v2.1631h1.1074Z"/><path d="m230.2737,185.315l-1.4702-.2656c.165-.5918.4497-1.0303.8535-1.3145.4033-.2842,1.0029-.4268,1.7988-.4268.7227,0,1.2612.0859,1.6147.2568s.6025.3887.7471.6514c.144.2637.2158.7471.2158,1.4502l-.0171,1.8916c0,.5381.0259.9355.0776,1.1914.0522.2549.1489.5293.2915.8213h-1.603c-.0425-.1074-.0942-.2676-.1558-.4785-.0269-.0957-.0464-.1592-.0576-.1904-.2769.2695-.5732.4707-.8882.6055-.3154.1348-.6519.2021-1.0093.2021-.6304,0-1.1274-.1709-1.4907-.5137-.3633-.3418-.5449-.7744-.5449-1.2969,0-.3467.0825-.6553.248-.9258.165-.2715.397-.4785.6948-.623s.7275-.2695,1.2891-.3779c.7573-.1416,1.2817-.2744,1.5742-.3975v-.1621c0-.3105-.0771-.5332-.231-.666-.1538-.1318-.4438-.1982-.8706-.1982-.2881,0-.5132.0566-.6748.1699-.1611.1133-.292.3125-.3921.5967Zm2.1685,1.3145c-.2075.0693-.5366.1523-.9863.248-.4497.0967-.7437.1904-.8823.2832-.2114.1494-.3169.3398-.3169.5703,0,.2275.0845.4229.2534.5889.1694.165.3848.248.646.248.292,0,.5708-.0967.8364-.2891.1958-.1455.3247-.3242.3862-.5361.042-.1387.0635-.4014.0635-.79v-.3232Z"/><path d="m240.971,185.2573l-1.5972.2881c-.0542-.3184-.1758-.5596-.3662-.7207s-.4375-.2422-.7412-.2422c-.4033,0-.7256.1396-.9658.418-.2402.2793-.3604.7451-.3604,1.3984,0,.7266.1221,1.2402.3662,1.54s.5718.4492.9834.4492c.3071,0,.5591-.0869.7554-.2617.1958-.1748.3345-.4756.415-.9023l1.5918.2705c-.1655.7305-.4829,1.2822-.9517,1.6553-.4692.373-1.0977.5596-1.8857.5596-.896,0-1.6099-.2832-2.1421-.8477-.5327-.5654-.7988-1.3477-.7988-2.3477,0-1.0107.2671-1.7979.8013-2.3613.5347-.5625,1.2573-.8447,2.1685-.8447.7456,0,1.3389.1611,1.7788.4814.4404.3213.7563.8105.9487,1.4678Z"/><path d="m242.1414,189.5708v-8.4541h1.6206v4.4863l1.897-2.1562h1.9951l-2.0933,2.2373,2.2437,3.8867h-1.7476l-1.5396-2.751-.7554.79v1.9609h-1.6206Z"/><path d="m255.8489,189.5708h-1.6206v-6.1064c-.5918.5527-1.2896.9629-2.0933,1.2275v-1.4697c.4229-.1387.8823-.4014,1.3784-.7881.4961-.3857.8359-.8369,1.0205-1.3516h1.3149v8.4883Z"/></g><g><path d="m26.1135,223.5825v-8.4541h5.7031v.998h-4.5845v2.6182h3.9678v.9971h-3.9678v3.8408h-1.1187Z"/><path d="m33.1428,216.3228v-1.1943h1.0381v1.1943h-1.0381Zm0,7.2598v-6.124h1.0381v6.124h-1.0381Z"/><path d="m35.7498,223.5825v-6.124h.9341v.9287c.2383-.4346.4585-.7217.6602-.8594.2021-.1387.4238-.208.666-.208.3501,0,.7056.1113,1.0669.335l-.3574.9629c-.2539-.1504-.5073-.2256-.7612-.2256-.2271,0-.4307.0684-.6113.2051s-.3096.3262-.3862.5684c-.1152.3691-.1729.7725-.1729,1.2109v3.2061h-1.0381Z"/><path d="m39.2786,221.7544l1.0264-.1611c.0576.4111.2183.7266.4814.9453.2637.2197.6318.3291,1.1045.3291.4766,0,.8306-.0977,1.061-.291.2305-.1943.3462-.4219.3462-.6836,0-.2344-.1021-.4189-.3057-.5537-.1426-.0928-.4961-.21-1.061-.3516-.7612-.1924-1.2891-.3584-1.583-.499-.2944-.1406-.5171-.335-.6689-.582-.1519-.248-.228-.5225-.228-.8223,0-.2725.0625-.5254.1875-.7578.125-.2334.2949-.4258.5103-.5801.1616-.1191.3818-.2197.6606-.3027.2783-.083.5771-.124.8965-.124.4805,0,.9023.0693,1.2656.208.3633.1377.6318.3252.8047.5615.1729.2373.292.5527.3574.9492l-1.0146.1387c-.0464-.3154-.1802-.5615-.4009-.7383-.2212-.1768-.5337-.2656-.937-.2656-.4771,0-.8174.0791-1.021.2363-.2036.1582-.3057.3428-.3057.5537,0,.1348.0425.2559.127.3633.0845.1113.2173.2041.3979.2773.104.0381.4097.126.917.2646.7344.1963,1.2466.3564,1.5366.4814.2905.125.5181.3066.6836.5449.165.2383.248.5342.248.8887,0,.3457-.1011.6719-.3027.9775-.2021.3047-.4932.542-.874.709-.3804.167-.811.251-1.2915.251-.7959,0-1.4023-.165-1.8193-.4961-.4175-.3311-.6836-.8213-.7988-1.4707Z"/><path d="m47.8655,222.6538l.1499.917c-.2925.0615-.5537.0928-.7842.0928-.377,0-.6689-.0596-.877-.1787-.2075-.1191-.3535-.2764-.438-.4707-.0845-.1934-.127-.6025-.127-1.2246v-3.5234h-.7612v-.8076h.7612v-1.5166l1.0322-.623v2.1396h1.0439v.8076h-1.0439v3.5811c0,.2959.0181.4863.0547.5703.0366.085.0962.1523.1787.2021.083.0498.2012.0752.355.0752.1152,0,.2671-.0137.4556-.041Z"/><path d="m23.6946,235.0386l1.0552-.0928c.0498.4229.166.7705.3486,1.041.1826.2715.4663.4902.8506.6572.3848.168.8169.251,1.2979.251.4268,0,.8032-.0635,1.1299-.1904s.5703-.3008.7295-.5215c.1597-.2207.2393-.4619.2393-.7236,0-.2656-.0767-.4971-.2305-.6953-.1538-.1973-.4077-.3643-.7612-.499-.2271-.0879-.7285-.2256-1.5049-.4121-.7769-.1865-1.3208-.3623-1.6323-.5273-.4033-.2119-.7041-.4736-.9023-.7871-.1978-.3135-.2969-.6641-.2969-1.0527,0-.4268.1211-.8252.3633-1.1963s.5957-.6523,1.061-.8447.9824-.2881,1.5513-.2881c.6265,0,1.1792.1006,1.6577.3027.479.2012.8467.498,1.1045.8906.2573.3916.396.8359.415,1.332l-1.0723.0811c-.0576-.5342-.2529-.9385-.5854-1.2109-.3325-.2734-.8237-.4102-1.4736-.4102-.6763,0-1.1694.124-1.479.3721s-.4644.5469-.4644.8965c0,.3037.1099.5537.3291.75.2148.1963.7773.3975,1.6865.6025.9092.2061,1.5327.3857,1.8711.5391.4922.2275.8555.5146,1.0903.8623.2344.3477.3516.749.3516,1.2021,0,.4502-.1289.874-.3862,1.2715-.2578.3984-.6279.708-1.1104.9287s-1.0254.332-1.6289.332c-.7651,0-1.4062-.1123-1.9233-.335s-.9224-.5586-1.2168-1.0059c-.2939-.4482-.4487-.9551-.4639-1.5195Z"/><path d="m31.8196,237.7544v-8.4541h1.0381v3.0332c.4844-.5605,1.0957-.8418,1.834-.8418.4536,0,.8477.0898,1.1821.2686s.5737.4258.7178.7402c.144.3154.2163.7734.2163,1.373v3.8809h-1.0381v-3.8809c0-.5195-.1123-.8965-.3374-1.1328-.2246-.2373-.543-.3555-.9541-.3555-.3076,0-.5972.0801-.8682.2393-.271.1602-.4639.376-.5796.6494-.1152.2725-.1729.6494-.1729,1.1299v3.3506h-1.0381Z"/><path d="m42.5798,235.7818l1.0728.1328c-.1694.627-.4824,1.1133-.9399,1.459-.4575.3467-1.042.5195-1.7529.5195-.896,0-1.606-.2764-2.1309-.8281s-.7871-1.3252-.7871-2.3203c0-1.0303.2651-1.8301.7959-2.3994.5303-.5693,1.2183-.8535,2.0645-.8535.8188,0,1.4878.2793,2.0063.8359.519.5576.7788,1.3418.7788,2.3535,0,.0615-.002.1533-.0059.2764h-4.5674c.0386.6729.229,1.1875.5713,1.5459.3418.3574.7686.5361,1.2798.5361.3809,0,.7056-.1006.9746-.2998.269-.2002.4824-.5195.6401-.958Zm-3.4077-1.6777h3.4194c-.0464-.5146-.1768-.9014-.3921-1.1592-.3306-.3994-.7593-.5996-1.2861-.5996-.4766,0-.8774.1592-1.2021.4785-.3252.3193-.5049.7461-.5391,1.2803Z"/><path d="m44.9329,237.7544v-8.4541h1.0381v8.4541h-1.0381Z"/><path d="m47.8279,237.7544v-5.3164h-.917v-.8076h.917v-.6514c0-.4121.0366-.7178.1099-.917.0996-.2695.2754-.4873.5273-.6553.252-.167.6045-.25,1.0581-.25.2925,0,.6152.0342.9688.1035l-.1553.9053c-.2153-.0381-.4194-.0576-.6113-.0576-.3154,0-.5386.0674-.6689.2021-.1309.1338-.1963.3857-.1963.7549v.5654h1.1938v.8076h-1.1938v5.3164h-1.0322Z"/></g><g><path d="m134.0564,192.9605v-8.4541h1.1187v8.4541h-1.1187Z"/><path d="m136.8069,188.8433c0-1.4033.377-2.502,1.1304-3.2959s1.7261-1.1904,2.918-1.1904c.7803,0,1.4839.1865,2.1104.5586.627.373,1.1045.8936,1.4331,1.5605s.4932,1.4229.4932,2.2686c0,.8574-.1729,1.625-.519,2.3018-.3462.6758-.8359,1.1885-1.4707,1.5361-.6343.3486-1.3184.5225-2.0527.5225-.7959,0-1.5068-.1924-2.1338-.5771-.6265-.3838-1.1011-.9092-1.4243-1.5742-.3228-.665-.4844-1.3682-.4844-2.1104Zm1.1533.0176c0,1.0186.2739,1.8213.8218,2.4072s1.2349.8789,2.0615.8789c.8423,0,1.5352-.2959,2.0791-.8877s.8159-1.4316.8159-2.5205c0-.6875-.1162-1.2881-.3491-1.8018-.2324-.5127-.5728-.9111-1.0205-1.1934-.4478-.2832-.9507-.4238-1.5078-.4238-.792,0-1.4736.2715-2.0444.8154s-.8564,1.4531-.8564,2.7256Z"/><path d="m146.2986,192.9605v-8.4541h1.6841l2.001,5.9863c.1846.5566.3188.9746.4038,1.251.0957-.3076.2456-.7588.4497-1.3555l2.0239-5.8818h1.5049v8.4541h-1.0781v-7.0762l-2.4565,7.0762h-1.0093l-2.4448-7.1973v7.1973h-1.0786Z"/><path d="m157.8728,192.9605l3.2466-8.4541h1.2051l3.46,8.4541h-1.2744l-.9863-2.5605h-3.5347l-.9287,2.5605h-1.1875Zm2.439-3.4717h2.8662l-.8823-2.3408c-.269-.7119-.4692-1.2959-.5996-1.7529-.1079.542-.2598,1.0801-.4556,1.6143l-.9287,2.4795Z"/></g><g><path d="m309.1721,192.9605v-8.4541h1.1182v8.4541h-1.1182Z"/><path d="m311.9231,188.8433c0-1.4033.376-2.502,1.1299-3.2959s1.7266-1.1904,2.918-1.1904c.7803,0,1.4834.1865,2.1104.5586.627.373,1.1045.8936,1.4336,1.5605.3281.667.4922,1.4229.4922,2.2686,0,.8574-.1729,1.625-.5186,2.3018-.3457.6758-.8359,1.1885-1.4707,1.5361-.6338.3486-1.3184.5225-2.0527.5225-.7959,0-1.5068-.1924-2.1338-.5771-.627-.3838-1.1016-.9092-1.4238-1.5742-.3232-.665-.4844-1.3682-.4844-2.1104Zm1.1533.0176c0,1.0186.2734,1.8213.8213,2.4072s1.2354.8789,2.0615.8789c.8418,0,1.5352-.2959,2.0791-.8877s.8154-1.4316.8154-2.5205c0-.6875-.1162-1.2881-.3486-1.8018-.2324-.5127-.5723-.9111-1.0205-1.1934-.4482-.2832-.9502-.4238-1.5078-.4238-.792,0-1.4736.2715-2.0439.8154-.5713.5439-.8564,1.4531-.8564,2.7256Z"/><path d="m321.4153,192.9605v-8.4541h1.6836l2.001,5.9863c.1846.5566.3193.9746.4033,1.251.0967-.3076.2461-.7588.4502-1.3555l2.0244-5.8818h1.5049v8.4541h-1.0791v-7.0762l-2.4561,7.0762h-1.0088l-2.4453-7.1973v7.1973h-1.0781Z"/><path d="m334.5227,192.9605v-8.4541h3.1719c.6455,0,1.1631.0859,1.5537.2568.3896.1709.6953.4346.917.79.2207.3555.3311.7275.3311,1.1162,0,.3613-.0977.7012-.2939,1.0205s-.4922.5762-.8877.7725c.5107.1504.9043.4053,1.1787.7666.2754.3623.4131.7881.4131,1.2803,0,.3965-.084.7646-.251,1.1045-.167.3408-.374.6025-.6201.7871s-.5547.3242-.9258.418c-.3711.0947-.8252.1416-1.3633.1416h-3.2236Zm1.1182-4.9014h1.8281c.4961,0,.8516-.0332,1.0674-.0986.2842-.084.498-.2246.6426-.4209s.2168-.4414.2168-.7383c0-.2803-.0674-.5273-.2021-.7402-.1348-.2139-.3271-.3594-.5771-.4385s-.6787-.1182-1.2852-.1182h-1.6904v2.5547Zm0,3.9033h2.1055c.3613,0,.6143-.0127.7607-.04.2578-.0459.4727-.123.6465-.2305.1729-.1074.3145-.2646.4258-.4697.1123-.2061.168-.4434.168-.7129,0-.3145-.0811-.5889-.2422-.8213-.1621-.2324-.3857-.3965-.6719-.4902-.2871-.0938-.6992-.1416-1.2373-.1416h-1.9551v2.9062Z"/></g><g><path d="m301.2239,73.605l1.1182.2822c-.2344.9189-.6562,1.6201-1.2656,2.1025s-1.3545.7236-2.2344.7236c-.9111,0-1.6523-.1855-2.2236-.5566-.5703-.3711-1.0049-.9082-1.3027-1.6123-.2979-.7031-.4473-1.459-.4473-2.2656,0-.8809.168-1.6484.5049-2.3037.3359-.6562.8154-1.1533,1.4355-1.4941.6211-.3398,1.3047-.5098,2.0508-.5098.8457,0,1.5566.2148,2.1328.6455.5771.4307.9785,1.0361,1.2061,1.8164l-1.1016.2598c-.1963-.6152-.4805-1.0635-.8535-1.3438s-.8418-.4209-1.4072-.4209c-.6494,0-1.1924.1553-1.6289.4668s-.7432.7295-.9199,1.2539c-.1768.5254-.2656,1.0664-.2656,1.624,0,.7188.1055,1.3467.3145,1.8828.21.5361.5352.9365.9775,1.2021s.9209.3975,1.4355.3975c.627,0,1.1572-.1807,1.5918-.542s.7285-.8975.8828-1.6084Z"/><path d="m303.2024,73.5064c0-1.1338.3145-1.9736.9453-2.5195.5264-.4541,1.1689-.6807,1.9258-.6807.8418,0,1.5303.2764,2.0645.8271.5342.5518.8018,1.3145.8018,2.2871,0,.7881-.1182,1.4082-.3545,1.8594-.2363.4521-.5811.8027-1.0322,1.0527-.4521.25-.9453.375-1.4795.375-.8574,0-1.5498-.2754-2.0791-.8252-.5283-.5498-.792-1.3418-.792-2.376Zm1.0664,0c0,.7852.1709,1.3721.5137,1.7617.3418.3906.7725.5859,1.291.5859.5156,0,.9443-.1963,1.2861-.5889.3418-.3916.5137-.9893.5137-1.793,0-.7578-.1729-1.3311-.5166-1.7217-.3438-.3896-.7715-.585-1.2832-.585-.5186,0-.9492.1943-1.291.582-.3428.3887-.5137.9746-.5137,1.7588Z"/><path d="m310.1555,76.5689v-6.124h.9346v.8701c.4492-.6719,1.0996-1.0088,1.9492-1.0088.3691,0,.708.0664,1.0176.1992s.541.3066.6953.5215c.1533.2158.2607.4717.3223.7676.0391.1924.0576.5283.0576,1.0088v3.7656h-1.0381v-3.7256c0-.4229-.04-.7383-.1211-.9482-.0801-.21-.2236-.377-.4297-.502-.2051-.125-.4463-.1875-.7236-.1875-.4414,0-.8232.1406-1.1445.4209-.3213.2812-.4814.8135-.4814,1.5977v3.3447h-1.0381Z"/><path d="m318.9905,75.6402l.1494.917c-.292.0615-.5527.0928-.7842.0928-.377,0-.6689-.0596-.876-.1787-.208-.1191-.3535-.2764-.4385-.4707-.085-.1934-.127-.6025-.127-1.2246v-3.5234h-.7607v-.8076h.7607v-1.5166l1.0322-.623v2.1396h1.0439v.8076h-1.0439v3.5811c0,.2959.0186.4863.0547.5703.0371.085.0967.1523.1787.2021.083.0498.2012.0752.3545.0752.1152,0,.2676-.0137.4561-.041Z"/><path d="m319.9934,76.5689v-6.124h.9346v.9287c.2383-.4346.458-.7217.6602-.8594.2021-.1387.4238-.208.666-.208.3496,0,.7061.1113,1.0674.335l-.3584.9629c-.2529-.1504-.5068-.2256-.7607-.2256-.2266,0-.4307.0684-.6113.2051s-.3096.3262-.3867.5684c-.1152.3691-.1729.7725-.1729,1.2109v3.2061h-1.0381Z"/><path d="m323.552,73.5064c0-1.1338.3145-1.9736.9453-2.5195.5264-.4541,1.1689-.6807,1.9258-.6807.8418,0,1.5303.2764,2.0645.8271.5342.5518.8018,1.3145.8018,2.2871,0,.7881-.1182,1.4082-.3545,1.8594-.2363.4521-.5811.8027-1.0322,1.0527-.4521.25-.9453.375-1.4795.375-.8574,0-1.5498-.2754-2.0791-.8252-.5283-.5498-.792-1.3418-.792-2.376Zm1.0664,0c0,.7852.1709,1.3721.5137,1.7617.3418.3906.7725.5859,1.291.5859.5156,0,.9443-.1963,1.2861-.5889.3418-.3916.5137-.9893.5137-1.793,0-.7578-.1729-1.3311-.5166-1.7217-.3438-.3896-.7715-.585-1.2832-.585-.5186,0-.9492.1943-1.291.582-.3428.3887-.5137.9746-.5137,1.7588Z"/><path d="m330.4836,76.5689v-8.4541h1.0371v8.4541h-1.0371Z"/><path d="m333.1077,76.5689v-8.4541h1.0371v8.4541h-1.0371Z"/><path d="m339.9465,74.5962l1.0723.1328c-.1689.627-.4824,1.1133-.9395,1.459-.458.3467-1.042.5195-1.7529.5195-.8955,0-1.6064-.2764-2.1309-.8281s-.7871-1.3252-.7871-2.3203c0-1.0303.2656-1.8301.7959-2.3994s1.2188-.8535,2.0645-.8535c.8184,0,1.4873.2793,2.0068.8359.5186.5576.7783,1.3418.7783,2.3535,0,.0615-.002.1533-.0059.2764h-4.5674c.0391.6729.2285,1.1875.5713,1.5459.3418.3574.7686.5361,1.2803.5361.3799,0,.7051-.1006.9746-.2998.2686-.2002.4824-.5195.6396-.958Zm-3.4082-1.6777h3.4199c-.0459-.5146-.1768-.9014-.3926-1.1592-.3301-.3994-.7588-.5996-1.2852-.5996-.4775,0-.8779.1592-1.2031.4785-.3242.3193-.5039.7461-.5391,1.2803Z"/><path d="m342.3108,76.5689v-6.124h.9346v.9287c.2383-.4346.458-.7217.6602-.8594.2021-.1387.4238-.208.666-.208.3496,0,.7061.1113,1.0674.335l-.3584.9629c-.2529-.1504-.5068-.2256-.7607-.2256-.2266,0-.4307.0684-.6113.2051s-.3096.3262-.3867.5684c-.1152.3691-.1729.7725-.1729,1.2109v3.2061h-1.0381Z"/><path d="m354.7034,75.5708v.998h-5.5879c-.0078-.25.0332-.4902.1211-.7207.1426-.3809.3701-.7559.6836-1.125s.7656-.7959,1.3584-1.2803c.918-.7529,1.5391-1.3496,1.8623-1.79s.4844-.8564.4844-1.249c0-.4111-.1475-.7578-.4414-1.04-.2939-.2832-.6777-.4238-1.1504-.4238-.5,0-.8994.1494-1.1992.4492s-.4521.7148-.4561,1.2461l-1.0664-.1094c.0732-.7959.3477-1.4023.8242-1.8203.4766-.417,1.1172-.625,1.9209-.625.8105,0,1.4531.2246,1.9258.6748.4727.4492.709,1.0068.709,1.6719,0,.3389-.0693.6709-.207.998-.1387.3262-.3682.6709-.6895,1.0322s-.8545.8574-1.6006,1.4873c-.6221.5234-1.0225.8779-1.1992,1.0645s-.3232.374-.4385.5615h4.1465Z"/></g><g><path d="m186.5896,21.9546v-9.2227h6.2222v1.0889h-5.0015v2.8555h4.3281v1.0889h-4.3281v4.1895h-1.2207Z"/><path d="m192.6731,21.9546l3.542-9.2227h1.3149l3.7744,9.2227h-1.3901l-1.0762-2.793h-3.856l-1.0132,2.793h-1.2959Zm2.6611-3.7871h3.1265l-.9624-2.5537c-.2935-.7764-.5117-1.4141-.6543-1.9131-.1172.5918-.2827,1.1787-.4971,1.7617l-1.0127,2.7051Z"/><path d="m201.864,18.9917l1.1514-.1006c.0547.4609.1812.8398.3809,1.1357.1987.2949.5083.5342.9277.7168s.8911.2734,1.4155.2734c.4653,0,.8765-.0693,1.2329-.207.3564-.1387.6216-.3281.7959-.5693.1738-.2412.2607-.5049.2607-.79,0-.2891-.084-.542-.2515-.7578-.168-.2158-.4443-.3975-.8306-.5439-.2476-.0967-.7944-.2471-1.6416-.4502s-1.4409-.3955-1.7803-.5752c-.4404-.2305-.7686-.5176-.9849-.8594-.2158-.3418-.3237-.7246-.3237-1.1475,0-.4658.1318-.9014.396-1.3057.2646-.4043.6504-.7119,1.1577-.9219.5073-.209,1.0718-.3145,1.6924-.3145.6836,0,1.2866.1104,1.8086.3301.522.2207.9238.5449,1.2046.9727s.4321.9121.4531,1.4531l-1.1704.0879c-.0625-.583-.2754-1.0234-.6382-1.3213s-.8989-.4463-1.6074-.4463c-.7383,0-1.2764.1348-1.6138.4053s-.5063.5967-.5063.9785c0,.3311.1196.6035.3584.8174.2349.2139.8486.4336,1.8403.6582.9917.2236,1.6724.4199,2.0415.5879.5366.2471.9331.5605,1.189.9404s.3838.8164.3838,1.3115c0,.4912-.1406.9531-.4219,1.3867-.2808.4346-.6846.7725-1.2109,1.0137s-1.1187.3613-1.7769.3613c-.835,0-1.5342-.1221-2.0981-.3652s-1.0063-.6084-1.3276-1.0977c-.3208-.4883-.4893-1.041-.5063-1.6572Z"/><path d="m216.3645,20.8667v1.0879h-6.0957c-.0088-.2725.0356-.5352.1318-.7861.1553-.415.4038-.8242.7456-1.2266.3418-.4033.8354-.8682,1.4814-1.3965,1.0024-.8223,1.6797-1.4736,2.0322-1.9541.3521-.4795.5283-.9336.5283-1.3613,0-.4492-.1606-.8271-.4814-1.1357s-.7393-.4629-1.2549-.4629c-.5454,0-.9814.1641-1.3086.4912s-.4927.7803-.4971,1.3584l-1.1636-.1191c.0796-.8682.3794-1.5293.8994-1.9854.52-.4541,1.2183-.6816,2.0952-.6816.8848,0,1.585.2451,2.1011.7354.5156.4912.7734,1.0986.7734,1.8242,0,.3691-.0752.7324-.2261,1.0889-.1514.3564-.4019.7314-.752,1.126s-.9321.9355-1.7456,1.623c-.6797.5703-1.1157.957-1.3086,1.1602-.1929.2041-.3525.4082-.478.6143h4.5229Z"/><path d="m219.3215,16.9536c-.4697-.1719-.8179-.418-1.0444-.7363s-.3398-.7002-.3398-1.1445c0-.6709.2412-1.2354.7236-1.6924s1.124-.6855,1.9253-.6855c.8052,0,1.4531.2334,1.9438.7012s.7358,1.0371.7358,1.708c0,.4277-.1123.7998-.3364,1.1162-.2246.3174-.5654.5615-1.0225.7334.5664.1846.9971.4824,1.293.8926.2954.4111.4434.9023.4434,1.4727,0,.7881-.2788,1.4512-.8364,1.9873-.5581.5371-1.292.8057-2.2021.8057s-1.644-.2695-2.2017-.8086c-.5581-.5391-.8369-1.2109-.8369-2.0156,0-.5996.1523-1.1025.4561-1.5068.3042-.4053.7373-.6807,1.2993-.8271Zm-.5913,2.3398c0,.3232.0762.6357.2295.9375s.3809.5361.6826.7012c.3018.166.627.249.9751.249.541,0,.9878-.1748,1.3398-.5225.3525-.3477.5283-.79.5283-1.3271,0-.5449-.1812-.9961-.5439-1.3525s-.8169-.5352-1.3618-.5352c-.5327,0-.9741.1768-1.3242.5283-.3506.3525-.5254.793-.5254,1.3213Zm.3647-4.2588c0,.4365.1406.793.4214,1.0693.2812.2764.646.415,1.0947.415.436,0,.7935-.1367,1.0728-.4121.2788-.2744.4185-.6113.4185-1.0098,0-.415-.144-.7637-.4312-1.0469s-.645-.4248-1.0728-.4248c-.4316,0-.7905.1387-1.0757.415-.2852.2773-.4277.6084-.4277.9941Z"/><path d="m224.7439,17.4068c0-1.0908.1123-1.9688.3364-2.6328.2246-.665.5581-1.1777,1.0005-1.5381.4424-.3613.999-.541,1.6704-.541.4946,0,.9287.0996,1.3018.2988.3735.1992.6816.4863.9248.8613s.4341.833.5728,1.3711c.1382.5391.2075,1.2656.2075,2.1807,0,1.082-.1113,1.9551-.3335,2.6201-.2222.6641-.5547,1.1777-.9971,1.541-.4424.3623-1.0015.5439-1.6763.5439-.8892,0-1.5879-.3184-2.0952-.9561-.6079-.7676-.9121-2.0176-.9121-3.749Zm1.1641,0c0,1.5137.1768,2.5215.5312,3.0225s.7915.752,1.312.752c.5195,0,.957-.252,1.3115-.7549.3545-.5039.5312-1.5098.5312-3.0195,0-1.5186-.1768-2.5273-.5312-3.0264s-.7959-.749-1.3242-.749c-.52,0-.9355.2207-1.2456.6611-.3901.5615-.585,1.5996-.585,3.1143Z"/><path d="m231.9094,17.4068c0-1.0908.1123-1.9688.3364-2.6328.2246-.665.5581-1.1777,1.0005-1.5381.4424-.3613.999-.541,1.6704-.541.4946,0,.9287.0996,1.3018.2988.3735.1992.6816.4863.9248.8613s.4341.833.5728,1.3711c.1382.5391.2075,1.2656.2075,2.1807,0,1.082-.1113,1.9551-.3335,2.6201-.2222.6641-.5547,1.1777-.9971,1.541-.4424.3623-1.0015.5439-1.6763.5439-.8892,0-1.5879-.3184-2.0952-.9561-.6079-.7676-.9121-2.0176-.9121-3.749Zm1.1641,0c0,1.5137.1768,2.5215.5312,3.0225s.7915.752,1.312.752c.5195,0,.957-.252,1.3115-.7549.3545-.5039.5312-1.5098.5312-3.0195,0-1.5186-.1768-2.5273-.5312-3.0264s-.7959-.749-1.3242-.749c-.52,0-.9355.2207-1.2456.6611-.3901.5615-.585,1.5996-.585,3.1143Z"/><path d="m242.9685,24.5152v-9.2412h1.0317v.8682c.2432-.3398.5181-.5947.8242-.7646s.6772-.2549,1.1133-.2549c.5703,0,1.0737.1465,1.5103.4404.436.2939.7651.708.9873,1.2422.2222.5352.3335,1.1211.3335,1.7588,0,.6836-.1226,1.2988-.3682,1.8467-.2451.5469-.6016.9658-1.0693,1.2578-.4678.291-.9595.4375-1.4751.4375-.3774,0-.7163-.0801-1.0161-.2393s-.5464-.3604-.7393-.6045v3.2529h-1.1323Zm1.0254-5.8633c0,.8594.1743,1.4951.5225,1.9062s.7695.6162,1.2642.6162c.5034,0,.9346-.2129,1.293-.6387.3584-.4248.5381-1.085.5381-1.9785,0-.8506-.1753-1.4883-.5254-1.9121-.3506-.4238-.7686-.6357-1.2554-.6357-.4819,0-.9087.2256-1.2798.6768-.3716.4512-.5571,1.1064-.5571,1.9658Z"/><path d="m250.1091,21.9546v-9.2227h1.1323v9.2227h-1.1323Z"/><path d="m257.3562,21.1304c-.4194.3564-.8232.6084-1.2109.7549-.3882.1465-.8042.2207-1.249.2207-.7339,0-1.2979-.1797-1.6924-.5381-.394-.3584-.5913-.8174-.5913-1.375,0-.3271.0747-.626.2236-.8965s.3438-.4873.585-.6504c.2412-.1641.5127-.2881.8145-.3711.2227-.0596.5581-.1162,1.0068-.1699.9141-.1094,1.5874-.2393,2.019-.3906.0044-.1553.0063-.2539.0063-.2959,0-.4609-.1069-.7861-.3208-.9746-.2891-.2559-.7192-.3838-1.2896-.3838-.5327,0-.9258.0938-1.1797.2803-.2534.1865-.4414.5166-.563.9902l-1.1069-.1504c.1006-.4746.2661-.8564.4971-1.1484.2305-.291.564-.5156,1-.6729s.9414-.2363,1.5161-.2363c.5703,0,1.0337.0674,1.3901.2012.3564.1348.6187.3037.7866.5068.1675.2031.2852.46.3521.7705.0381.1934.0566.541.0566,1.0439v1.5098c0,1.0527.0244,1.7188.0728,1.998.0479.2783.1436.5459.2861.8018h-1.1826c-.1177-.2344-.1934-.5098-.2266-.8242Zm-.0947-2.5293c-.4106.168-1.0273.3105-1.8491.4287-.4658.0664-.7949.1426-.9878.2256-.1929.084-.3418.207-.4468.3682-.105.1621-.1572.3408-.1572.5381,0,.3018.1143.5537.3428.7549s.563.3018,1.0034.3018c.436,0,.8242-.0947,1.1641-.2861.3394-.1904.5889-.4521.7485-.7832.1216-.2559.1821-.6328.1821-1.1318v-.416Z"/><path d="m262.6345,20.9419l.1636,1c-.3188.0674-.604.1006-.856.1006-.4106,0-.7295-.0645-.9561-.1953-.2266-.1299-.3857-.3008-.478-.5127-.0923-.2109-.1387-.6572-.1387-1.3359v-3.8438h-.8301v-.8809h.8301v-1.6543l1.1265-.6797v2.334h1.1387v.8809h-1.1387v3.9062c0,.3232.0195.5303.0596.623.04.0918.105.165.1948.2197.0903.0547.2192.082.3872.082.1255,0,.2915-.0146.4971-.0439Z"/><path d="m264.0115,21.9546v-5.7998h-1v-.8809h1v-.7109c0-.4492.04-.7822.1196-1,.1089-.2939.3008-.5322.5757-.7148.2744-.1816.6597-.2734,1.1543-.2734.3188,0,.6709.0381,1.0571.1133l-.1699.9873c-.2349-.041-.4575-.0625-.667-.0625-.3438,0-.5874.0732-.7295.2207-.1431.1465-.2139.4209-.2139.8232v.6172h1.3018v.8809h-1.3018v5.7998h-1.1265Z"/><path d="m266.8992,18.6138c0-1.2363.3438-2.1533,1.0317-2.749.5747-.4941,1.2749-.7422,2.1011-.7422.9185,0,1.6694.3008,2.2524.9033.5825.6016.874,1.4326.874,2.4941,0,.8594-.1289,1.5361-.3867,2.0283-.2578.4932-.6333.876-1.126,1.1484s-1.0308.4092-1.6138.4092c-.9351,0-1.6914-.2998-2.2676-.9004-.5767-.5996-.8652-1.4629-.8652-2.5918Zm1.1641,0c0,.8555.1865,1.4971.5596,1.9219.3735.4258.8433.6387,1.4092.6387.562,0,1.0298-.2139,1.4028-.6416.3735-.4277.5601-1.0801.5601-1.9561,0-.8262-.188-1.4521-.563-1.8779-.3755-.4258-.8423-.6387-1.3999-.6387-.5659,0-1.0356.2119-1.4092.6357-.373.4229-.5596,1.0625-.5596,1.918Z"/><path d="m274.4739,21.9546v-6.6807h1.0186v1.0127c.2607-.4736.5-.7861.7207-.9375.2197-.1514.4619-.2266.7266-.2266.3818,0,.7695.1221,1.1641.3652l-.3906,1.0508c-.2764-.1641-.5537-.2461-.8301-.2461-.2471,0-.4697.0752-.667.2236s-.3379.3555-.4209.6201c-.126.4023-.1895.8428-.1895,1.3203v3.498h-1.1318Z"/><path d="m278.7766,21.9546v-6.6807h1.0127v.9375c.209-.3271.4883-.5908.8369-.79.3477-.1992.7441-.2988,1.1885-.2988.4951,0,.9004.1025,1.2178.3086.3164.2051.5391.4922.6699.8613.5283-.7793,1.2158-1.1699,2.0635-1.1699.6621,0,1.1719.1836,1.5283.5508s.5352.9316.5352,1.6953v4.5859h-1.127v-4.209c0-.4521-.0361-.7783-.1094-.9775s-.207-.3604-.3994-.4814c-.1934-.1221-.4199-.1826-.6797-.1826-.4697,0-.8604.1562-1.1699.4688-.3105.3125-.4658.8125-.4658,1.5v3.8818h-1.1328v-4.3408c0-.5029-.0918-.8809-.2764-1.1318-.1846-.252-.4863-.3779-.9062-.3779-.3184,0-.6133.084-.8838.252s-.4658.4131-.5879.7354c-.1221.3232-.1826.7891-.1826,1.3975v3.4658h-1.1318Z"/><path d="m169.4221,37.4155v-8.1338h-3.0386v-1.0889h7.3101v1.0889h-3.0508v8.1338h-1.2207Z"/><path d="m174.3103,37.4155v-6.6807h1.019v1.0127c.2598-.4736.5-.7861.7202-.9375s.4624-.2266.7266-.2266c.3813,0,.7695.1221,1.1636.3652l-.3896,1.0508c-.2769-.1641-.5537-.2461-.8306-.2461-.2476,0-.4697.0752-.667.2236-.1968.1484-.3374.3555-.4214.6201-.126.4023-.1885.8428-.1885,1.3203v3.498h-1.1323Z"/><path d="m178.6194,29.4956v-1.3027h1.1323v1.3027h-1.1323Zm0,7.9199v-6.6807h1.1323v6.6807h-1.1323Z"/><path d="m181.0349,34.648v-1.1387h3.479v1.1387h-3.479Z"/><path d="m185.7659,39.9761v-9.2412h1.0317v.8682c.2432-.3398.5181-.5947.8242-.7646s.6772-.2549,1.1133-.2549c.5703,0,1.0737.1465,1.5103.4404.436.2939.7651.708.9873,1.2422.2222.5352.3335,1.1211.3335,1.7588,0,.6836-.1226,1.2988-.3682,1.8467-.2451.5469-.6016.9658-1.0693,1.2578-.4678.291-.9595.4375-1.4751.4375-.3774,0-.7163-.0801-1.0161-.2393s-.5464-.3604-.7393-.6045v3.2529h-1.1323Zm1.0254-5.8633c0,.8594.1743,1.4951.5225,1.9062s.7695.6162,1.2642.6162c.5034,0,.9346-.2129,1.293-.6387.3584-.4248.5381-1.085.5381-1.9785,0-.8506-.1753-1.4883-.5254-1.9121-.3506-.4238-.7686-.6357-1.2554-.6357-.4819,0-.9087.2256-1.2798.6768-.3716.4512-.5571,1.1064-.5571,1.9658Z"/><path d="m197.2913,36.5913c-.4194.3564-.8232.6084-1.2109.7549-.3882.1465-.8042.2207-1.249.2207-.7339,0-1.2979-.1797-1.6924-.5381-.394-.3584-.5913-.8174-.5913-1.375,0-.3271.0747-.626.2236-.8965s.3438-.4873.585-.6504c.2412-.1641.5127-.2881.8145-.3711.2227-.0596.5581-.1162,1.0068-.1699.9141-.1094,1.5874-.2393,2.019-.3906.0044-.1553.0063-.2539.0063-.2959,0-.4609-.1069-.7861-.3208-.9746-.2891-.2559-.7192-.3838-1.2896-.3838-.5327,0-.9258.0938-1.1797.2803-.2534.1865-.4414.5166-.563.9902l-1.1069-.1504c.1006-.4746.2661-.8564.4971-1.1484.2305-.291.564-.5156,1-.6729s.9414-.2363,1.5161-.2363c.5703,0,1.0337.0674,1.3901.2012.3564.1348.6187.3037.7866.5068.1675.2031.2852.46.3521.7705.0381.1934.0566.541.0566,1.0439v1.5098c0,1.0527.0244,1.7188.0728,1.998.0479.2783.1436.5459.2861.8018h-1.1826c-.1177-.2344-.1934-.5098-.2266-.8242Zm-.0947-2.5293c-.4106.168-1.0273.3105-1.8491.4287-.4658.0664-.7949.1426-.9878.2256-.1929.084-.3418.207-.4468.3682-.105.1621-.1572.3408-.1572.5381,0,.3018.1143.5537.3428.7549s.563.3018,1.0034.3018c.436,0,.8242-.0947,1.1641-.2861.3394-.1904.5889-.4521.7485-.7832.1216-.2559.1821-.6328.1821-1.1318v-.416Z"/><path d="m202.5691,36.4028l.1636,1c-.3188.0674-.604.1006-.856.1006-.4106,0-.7295-.0645-.9561-.1953-.2266-.1299-.3857-.3008-.478-.5127-.0923-.2109-.1387-.6572-.1387-1.3359v-3.8438h-.8301v-.8809h.8301v-1.6543l1.1265-.6797v2.334h1.1387v.8809h-1.1387v3.9062c0,.3232.0195.5303.0596.623.04.0918.105.165.1948.2197.0903.0547.2192.082.3872.082.1255,0,.2915-.0146.4971-.0439Z"/><path d="m203.676,37.4155v-9.2227h1.1323v3.3096c.5288-.6123,1.1953-.9189,2.0005-.9189.4951,0,.9248.0977,1.29.293.3647.1943.626.4639.7832.8076.1572.3447.2358.8438.2358,1.498v4.2334h-1.1323v-4.2334c0-.5664-.123-.9785-.3682-1.2363s-.5923-.3867-1.041-.3867c-.3359,0-.6514.0869-.9468.2607-.2959.1738-.5063.4102-.6323.708s-.189.708-.189,1.2324v3.6553h-1.1323Z"/><path d="m214.6033,37.4155v-9.2227h1.2202v3.7871h4.7939v-3.7871h1.2202v9.2227h-1.2202v-4.3467h-4.7939v4.3467h-1.2202Z"/><path d="m222.8567,37.4155l3.542-9.2227h1.3149l3.7744,9.2227h-1.3901l-1.0762-2.793h-3.856l-1.0132,2.793h-1.2959Zm2.6611-3.7871h3.1265l-.9624-2.5537c-.2935-.7764-.5117-1.4141-.6543-1.9131-.1172.5918-.2827,1.1787-.4971,1.7617l-1.0127,2.7051Z"/><path d="m239.5471,34.9683l1.1133.1445c-.1216.7676-.4331,1.3682-.9341,1.8027-.5015.4336-1.1167.6514-1.8462.6514-.9146,0-1.6494-.2988-2.2051-.8965s-.8335-1.4541-.8335-2.5703c0-.7207.1191-1.3525.3584-1.8936s.603-.9463,1.0913-1.2168c.4888-.2705,1.0205-.4062,1.5947-.4062.7256,0,1.3193.1836,1.7808.5508.4609.3672.7568.8877.8867,1.5635l-1.1011.1699c-.1045-.4492-.29-.7871-.5566-1.0137-.2661-.2266-.5879-.3389-.9653-.3389-.5708,0-1.0342.2041-1.3906.6133-.3564.4082-.5347,1.0557-.5347,1.9404,0,.8975.1719,1.5498.5161,1.9561.3438.4072.7925.6104,1.3462.6104.4443,0,.8154-.1357,1.1133-.4092.2979-.2725.4863-.6914.5664-1.2578Z"/><path d="m241.2078,34.0747c0-1.2363.3438-2.1533,1.0317-2.749.5747-.4941,1.2749-.7422,2.1011-.7422.9185,0,1.6694.3008,2.2524.9033.5825.6016.874,1.4326.874,2.4941,0,.8594-.1289,1.5361-.3867,2.0283-.2578.4932-.6333.876-1.126,1.1484s-1.0308.4092-1.6138.4092c-.9351,0-1.6914-.2998-2.2676-.9004-.5767-.5996-.8652-1.4629-.8652-2.5918Zm1.1641,0c0,.8555.1865,1.4971.5596,1.9219.3735.4258.8433.6387,1.4092.6387.562,0,1.0298-.2139,1.4028-.6416.3735-.4277.5601-1.0801.5601-1.9561,0-.8262-.188-1.4521-.563-1.8779-.3755-.4258-.8423-.6387-1.3999-.6387-.5659,0-1.0356.2119-1.4092.6357-.373.4229-.5596,1.0625-.5596,1.918Z"/><path d="m248.7942,37.4155v-6.6807h1.019v.9492c.4907-.7334,1.1997-1.1006,2.1265-1.1006.4028,0,.7729.0723,1.1104.2168.3374.1455.5903.335.7583.5693.1675.2354.2852.5137.3521.8369.042.21.063.5771.063,1.1006v4.1084h-1.1323v-4.0635c0-.4619-.0439-.8066-.1323-1.0352-.0879-.2285-.2441-.4111-.4683-.5479-.2246-.1357-.4878-.2041-.7896-.2041-.4824,0-.8989.1533-1.249.459-.3501.3066-.5254.8877-.5254,1.7432v3.6484h-1.1323Z"/><path d="m256.2302,37.4155v-5.7998h-1v-.8809h1v-.7109c0-.4492.04-.7822.1196-1,.1089-.2939.3008-.5322.5757-.7148.2744-.1816.6597-.2734,1.1543-.2734.3188,0,.6709.0381,1.0571.1133l-.1699.9873c-.2349-.041-.4575-.0625-.667-.0625-.3438,0-.5874.0732-.7295.2207-.1431.1465-.2139.4209-.2139.8232v.6172h1.3018v.8809h-1.3018v5.7998h-1.1265Z"/><path d="m259.5457,29.4956v-1.3027h1.1323v1.3027h-1.1323Zm0,7.9199v-6.6807h1.1323v6.6807h-1.1323Z"/><path d="m262.1941,37.9693l1.1011.1631c.0459.3398.1738.5879.3838.7432.2808.209.6646.3145,1.1509.3145.5244,0,.9292-.1055,1.2144-.3145.2852-.21.478-.5039.5786-.8809.0586-.2314.0859-.7158.082-1.4531-.4951.583-1.1113.874-1.8496.874-.9185,0-1.6294-.3311-2.1328-.9941-.5029-.6621-.7549-1.457-.7549-2.3838,0-.6377.1152-1.2256.3462-1.7646.2305-.5391.5649-.9551,1.0034-1.249.438-.2939.9531-.4404,1.5444-.4404.7886,0,1.4385.3193,1.9502.9561v-.8047h1.0444v5.7744c0,1.04-.106,1.7773-.3179,2.2119-.2119.4336-.5474.7764-1.0068,1.0283-.459.252-1.0244.377-1.6953.377-.7969,0-1.4404-.1787-1.9312-.5371-.4907-.3594-.7275-.8994-.7109-1.6201Zm.9375-4.0137c0,.877.1738,1.5156.522,1.9189.3481.4023.7842.6035,1.3086.6035.52,0,.9561-.2002,1.3086-.6006.3521-.4004.5283-1.0283.5283-1.8838,0-.8184-.1816-1.4346-.5439-1.8496-.3628-.415-.8003-.623-1.312-.623-.5029,0-.9307.2041-1.2832.6133-.3521.4092-.5283,1.0156-.5283,1.8213Z"/><path d="m273.9446,37.4155v-.9814c-.5195.7549-1.2261,1.1328-2.1191,1.1328-.3945,0-.7627-.0762-1.1045-.2266-.3418-.1514-.5952-.3408-.7607-.5693-.166-.2285-.2822-.5088-.3496-.8398-.0459-.2227-.0688-.5752-.0688-1.0576v-4.1387h1.1323v3.7051c0,.5918.0229.9902.0693,1.1953.0713.2979.2222.5312.4526.7012s.5161.2549.8555.2549c.3398,0,.6587-.0869.9565-.2607.2974-.1738.5083-.4111.6323-.7109.1226-.2998.1851-.7354.1851-1.3057v-3.5791h1.1328v6.6807h-1.0137Z"/><path d="m276.72,37.4155v-6.6807h1.0186v1.0127c.2607-.4736.5-.7861.7207-.9375.2197-.1514.4619-.2266.7266-.2266.3818,0,.7695.1221,1.1641.3652l-.3906,1.0508c-.2764-.1641-.5537-.2461-.8301-.2461-.2471,0-.4697.0752-.667.2236s-.3379.3555-.4209.6201c-.126.4023-.1895.8428-.1895,1.3203v3.498h-1.1318Z"/><path d="m285.3821,36.5913c-.4199.3564-.8232.6084-1.2109.7549s-.8047.2207-1.249.2207c-.7334,0-1.2979-.1797-1.6924-.5381-.3936-.3584-.5908-.8174-.5908-1.375,0-.3271.0742-.626.2227-.8965.1494-.2705.3438-.4873.585-.6504.2412-.1641.5127-.2881.8154-.3711.2217-.0596.5576-.1162,1.0059-.1699.915-.1094,1.5879-.2393,2.0195-.3906.0039-.1553.0068-.2539.0068-.2959,0-.4609-.1074-.7861-.3213-.9746-.2891-.2559-.7188-.3838-1.2891-.3838-.5332,0-.9258.0938-1.1797.2803s-.4414.5166-.5635.9902l-1.1074-.1504c.1006-.4746.2666-.8564.4971-1.1484.2305-.291.5645-.5156,1.001-.6729.4355-.1572.9414-.2363,1.5156-.2363.5703,0,1.0342.0674,1.3906.2012.3564.1348.6182.3037.7861.5068s.2852.46.3525.7705c.0371.1934.0566.541.0566,1.0439v1.5098c0,1.0527.0234,1.7188.0723,1.998.0479.2783.1436.5459.2861.8018h-1.1826c-.1172-.2344-.1934-.5098-.2266-.8242Zm-.0947-2.5293c-.4111.168-1.0273.3105-1.8496.4287-.4648.0664-.7949.1426-.9873.2256-.1934.084-.3418.207-.4463.3682-.1055.1621-.1572.3408-.1572.5381,0,.3018.1143.5537.3428.7549s.5625.3018,1.0029.3018c.4365,0,.8242-.0947,1.1641-.2861.3398-.1904.5889-.4521.748-.7832.1221-.2559.1826-.6328.1826-1.1318v-.416Z"/><path d="m290.6604,36.4028l.1641,1c-.3193.0674-.6045.1006-.8555.1006-.4111,0-.7305-.0645-.9561-.1953-.2266-.1299-.3867-.3008-.4785-.5127-.0928-.2109-.1387-.6572-.1387-1.3359v-3.8438h-.8301v-.8809h.8301v-1.6543l1.126-.6797v2.334h1.1387v.8809h-1.1387v3.9062c0,.3232.0205.5303.0605.623.0391.0918.1045.165.1943.2197.0908.0547.2197.082.3867.082.126,0,.292-.0146.4971-.0439Z"/><path d="m291.7737,29.4956v-1.3027h1.1328v1.3027h-1.1328Zm0,7.9199v-6.6807h1.1328v6.6807h-1.1328Z"/><path d="m294.2083,34.0747c0-1.2363.3438-2.1533,1.0322-2.749.5742-.4941,1.2744-.7422,2.1006-.7422.9189,0,1.6689.3008,2.252.9033.583.6016.875,1.4326.875,2.4941,0,.8594-.1289,1.5361-.3867,2.0283-.2588.4932-.6338.876-1.127,1.1484-.4922.2725-1.0303.4092-1.6133.4092-.9355,0-1.6914-.2998-2.2676-.9004-.5771-.5996-.8652-1.4629-.8652-2.5918Zm1.1641,0c0,.8555.1865,1.4971.5596,1.9219.373.4258.8428.6387,1.4092.6387.5625,0,1.0293-.2139,1.4033-.6416.373-.4277.5596-1.0801.5596-1.9561,0-.8262-.1875-1.4521-.5635-1.8779-.375-.4258-.8418-.6387-1.3994-.6387-.5664,0-1.0361.2119-1.4092.6357-.373.4229-.5596,1.0625-.5596,1.918Z"/><path d="m301.7952,37.4155v-6.6807h1.0186v.9492c.4912-.7334,1.1992-1.1006,2.127-1.1006.4023,0,.7725.0723,1.1104.2168.3369.1455.5898.335.7578.5693.168.2354.2852.5137.3525.8369.041.21.0625.5771.0625,1.1006v4.1084h-1.1328v-4.0635c0-.4619-.0439-.8066-.1318-1.0352s-.2441-.4111-.4688-.5479c-.2246-.1357-.4873-.2041-.7891-.2041-.4824,0-.8984.1533-1.249.459-.3506.3066-.5254.8877-.5254,1.7432v3.6484h-1.1318Z"/></g><g><path d="m125.7918,73.605l1.1191.2822c-.2349.9189-.6567,1.6201-1.2661,2.1025s-1.354.7236-2.2344.7236c-.9111,0-1.6523-.1855-2.2231-.5566s-1.0054-.9082-1.3032-1.6123c-.2979-.7031-.4468-1.459-.4468-2.2656,0-.8809.168-1.6484.5044-2.3037.3364-.6562.8149-1.1533,1.436-1.4941.6206-.3398,1.3042-.5098,2.0498-.5098.8457,0,1.5571.2148,2.1338.6455s.9785,1.0361,1.2051,1.8164l-1.1011.2598c-.1963-.6152-.481-1.0635-.8535-1.3438-.373-.2803-.8423-.4209-1.4072-.4209-.6499,0-1.1929.1553-1.6289.4668-.4365.3115-.7432.7295-.9199,1.2539-.1768.5254-.2651,1.0664-.2651,1.624,0,.7188.1045,1.3467.314,1.8828s.5356.9365.9775,1.2021.9209.3975,1.436.3975c.6265,0,1.1572-.1807,1.5913-.542.4346-.3613.7285-.8975.8823-1.6084Z"/><path d="m127.7698,73.5064c0-1.1338.3154-1.9736.9458-2.5195.5269-.4541,1.1685-.6807,1.9263-.6807.8418,0,1.5298.2764,2.0645.8271.5342.5518.8013,1.3145.8013,2.2871,0,.7881-.1182,1.4082-.3545,1.8594-.2363.4521-.5806.8027-1.0322,1.0527s-.9448.375-1.479.375c-.8574,0-1.5508-.2754-2.0791-.8252-.5288-.5498-.793-1.3418-.793-2.376Zm1.0669,0c0,.7852.1709,1.3721.5132,1.7617.3423.3906.7729.5859,1.292.5859.5146,0,.9434-.1963,1.2856-.5889.3423-.3916.5132-.9893.5132-1.793,0-.7578-.1719-1.3311-.5161-1.7217-.3438-.3896-.7715-.585-1.2827-.585-.519,0-.9497.1943-1.292.582-.3423.3887-.5132.9746-.5132,1.7588Z"/><path d="m134.7244,76.5689v-6.124h.9346v.8701c.4497-.6719,1.0991-1.0088,1.9487-1.0088.3691,0,.7085.0664,1.0181.1992s.541.3066.6948.5215c.1538.2158.2612.4717.3228.7676.0386.1924.0576.5283.0576,1.0088v3.7656h-1.0376v-3.7256c0-.4229-.0405-.7383-.1211-.9482-.0811-.21-.2241-.377-.4297-.502s-.4468-.1875-.7236-.1875c-.4424,0-.8237.1406-1.145.4209-.3208.2812-.4814.8135-.4814,1.5977v3.3447h-1.0381Z"/><path d="m143.5588,75.6402l.1499.917c-.2925.0615-.5537.0928-.7842.0928-.377,0-.6689-.0596-.877-.1787-.2075-.1191-.3535-.2764-.438-.4707-.0845-.1934-.127-.6025-.127-1.2246v-3.5234h-.7612v-.8076h.7612v-1.5166l1.0322-.623v2.1396h1.0439v.8076h-1.0439v3.5811c0,.2959.0181.4863.0547.5703.0366.085.0962.1523.1787.2021.083.0498.2012.0752.355.0752.1152,0,.2671-.0137.4556-.041Z"/><path d="m144.5623,76.5689v-6.124h.9341v.9287c.2383-.4346.4585-.7217.6602-.8594.2021-.1387.4238-.208.666-.208.3501,0,.7056.1113,1.0669.335l-.3574.9629c-.2539-.1504-.5073-.2256-.7612-.2256-.2271,0-.4307.0684-.6113.2051s-.3096.3262-.3862.5684c-.1152.3691-.1729.7725-.1729,1.2109v3.2061h-1.0381Z"/><path d="m148.1204,73.5064c0-1.1338.3154-1.9736.9458-2.5195.5269-.4541,1.1685-.6807,1.9263-.6807.8418,0,1.5298.2764,2.0645.8271.5342.5518.8013,1.3145.8013,2.2871,0,.7881-.1182,1.4082-.3545,1.8594-.2363.4521-.5806.8027-1.0322,1.0527s-.9448.375-1.479.375c-.8574,0-1.5508-.2754-2.0791-.8252-.5288-.5498-.793-1.3418-.793-2.376Zm1.0669,0c0,.7852.1709,1.3721.5132,1.7617.3423.3906.7729.5859,1.292.5859.5146,0,.9434-.1963,1.2856-.5889.3423-.3916.5132-.9893.5132-1.793,0-.7578-.1719-1.3311-.5161-1.7217-.3438-.3896-.7715-.585-1.2827-.585-.519,0-.9497.1943-1.292.582-.3423.3887-.5132.9746-.5132,1.7588Z"/><path d="m155.052,76.5689v-8.4541h1.0381v8.4541h-1.0381Z"/><path d="m157.6755,76.5689v-8.4541h1.0381v8.4541h-1.0381Z"/><path d="m164.5149,74.5962l1.0728.1328c-.1694.627-.4824,1.1133-.9399,1.459-.4575.3467-1.042.5195-1.7529.5195-.896,0-1.606-.2764-2.1309-.8281s-.7871-1.3252-.7871-2.3203c0-1.0303.2651-1.8301.7959-2.3994.5303-.5693,1.2183-.8535,2.0645-.8535.8188,0,1.4878.2793,2.0063.8359.519.5576.7788,1.3418.7788,2.3535,0,.0615-.002.1533-.0059.2764h-4.5674c.0386.6729.229,1.1875.5713,1.5459.3418.3574.7686.5361,1.2798.5361.3809,0,.7056-.1006.9746-.2998.269-.2002.4824-.5195.6401-.958Zm-3.4077-1.6777h3.4194c-.0464-.5146-.1768-.9014-.3921-1.1592-.3306-.3994-.7593-.5996-1.2861-.5996-.4766,0-.8774.1592-1.2021.4785-.3252.3193-.5049.7461-.5391,1.2803Z"/><path d="m166.8792,76.5689v-6.124h.9341v.9287c.2383-.4346.4585-.7217.6602-.8594.2021-.1387.4238-.208.666-.208.3501,0,.7056.1113,1.0669.335l-.3574.9629c-.2539-.1504-.5073-.2256-.7612-.2256-.2271,0-.4307.0684-.6113.2051s-.3096.3262-.3862.5684c-.1152.3691-.1729.7725-.1729,1.2109v3.2061h-1.0381Z"/><path d="m177.7263,76.5689h-1.0381v-6.6143c-.25.2383-.5776.4766-.9829.7148-.4058.2383-.77.417-1.0928.5361v-1.0029c.5801-.2734,1.0879-.6035,1.5225-.9922.4341-.3877.7417-.7646.9224-1.1299h.6689v8.4883Z"/></g><g><path d="m301.2239,73.605l1.1182.2822c-.2344.9189-.6562,1.6201-1.2656,2.1025s-1.3545.7236-2.2344.7236c-.9111,0-1.6523-.1855-2.2236-.5566-.5703-.3711-1.0049-.9082-1.3027-1.6123-.2979-.7031-.4473-1.459-.4473-2.2656,0-.8809.168-1.6484.5049-2.3037.3359-.6562.8154-1.1533,1.4355-1.4941.6211-.3398,1.3047-.5098,2.0508-.5098.8457,0,1.5566.2148,2.1328.6455.5771.4307.9785,1.0361,1.2061,1.8164l-1.1016.2598c-.1963-.6152-.4805-1.0635-.8535-1.3438s-.8418-.4209-1.4072-.4209c-.6494,0-1.1924.1553-1.6289.4668s-.7432.7295-.9199,1.2539c-.1768.5254-.2656,1.0664-.2656,1.624,0,.7188.1055,1.3467.3145,1.8828.21.5361.5352.9365.9775,1.2021s.9209.3975,1.4355.3975c.627,0,1.1572-.1807,1.5918-.542s.7285-.8975.8828-1.6084Z"/><path d="m303.2024,73.5064c0-1.1338.3145-1.9736.9453-2.5195.5264-.4541,1.1689-.6807,1.9258-.6807.8418,0,1.5303.2764,2.0645.8271.5342.5518.8018,1.3145.8018,2.2871,0,.7881-.1182,1.4082-.3545,1.8594-.2363.4521-.5811.8027-1.0322,1.0527-.4521.25-.9453.375-1.4795.375-.8574,0-1.5498-.2754-2.0791-.8252-.5283-.5498-.792-1.3418-.792-2.376Zm1.0664,0c0,.7852.1709,1.3721.5137,1.7617.3418.3906.7725.5859,1.291.5859.5156,0,.9443-.1963,1.2861-.5889.3418-.3916.5137-.9893.5137-1.793,0-.7578-.1729-1.3311-.5166-1.7217-.3438-.3896-.7715-.585-1.2832-.585-.5186,0-.9492.1943-1.291.582-.3428.3887-.5137.9746-.5137,1.7588Z"/><path d="m310.1555,76.5689v-6.124h.9346v.8701c.4492-.6719,1.0996-1.0088,1.9492-1.0088.3691,0,.708.0664,1.0176.1992s.541.3066.6953.5215c.1533.2158.2607.4717.3223.7676.0391.1924.0576.5283.0576,1.0088v3.7656h-1.0381v-3.7256c0-.4229-.04-.7383-.1211-.9482-.0801-.21-.2236-.377-.4297-.502-.2051-.125-.4463-.1875-.7236-.1875-.4414,0-.8232.1406-1.1445.4209-.3213.2812-.4814.8135-.4814,1.5977v3.3447h-1.0381Z"/><path d="m318.9905,75.6402l.1494.917c-.292.0615-.5527.0928-.7842.0928-.377,0-.6689-.0596-.876-.1787-.208-.1191-.3535-.2764-.4385-.4707-.085-.1934-.127-.6025-.127-1.2246v-3.5234h-.7607v-.8076h.7607v-1.5166l1.0322-.623v2.1396h1.0439v.8076h-1.0439v3.5811c0,.2959.0186.4863.0547.5703.0371.085.0967.1523.1787.2021.083.0498.2012.0752.3545.0752.1152,0,.2676-.0137.4561-.041Z"/><path d="m319.9934,76.5689v-6.124h.9346v.9287c.2383-.4346.458-.7217.6602-.8594.2021-.1387.4238-.208.666-.208.3496,0,.7061.1113,1.0674.335l-.3584.9629c-.2529-.1504-.5068-.2256-.7607-.2256-.2266,0-.4307.0684-.6113.2051s-.3096.3262-.3867.5684c-.1152.3691-.1729.7725-.1729,1.2109v3.2061h-1.0381Z"/><path d="m323.552,73.5064c0-1.1338.3145-1.9736.9453-2.5195.5264-.4541,1.1689-.6807,1.9258-.6807.8418,0,1.5303.2764,2.0645.8271.5342.5518.8018,1.3145.8018,2.2871,0,.7881-.1182,1.4082-.3545,1.8594-.2363.4521-.5811.8027-1.0322,1.0527-.4521.25-.9453.375-1.4795.375-.8574,0-1.5498-.2754-2.0791-.8252-.5283-.5498-.792-1.3418-.792-2.376Zm1.0664,0c0,.7852.1709,1.3721.5137,1.7617.3418.3906.7725.5859,1.291.5859.5156,0,.9443-.1963,1.2861-.5889.3418-.3916.5137-.9893.5137-1.793,0-.7578-.1729-1.3311-.5166-1.7217-.3438-.3896-.7715-.585-1.2832-.585-.5186,0-.9492.1943-1.291.582-.3428.3887-.5137.9746-.5137,1.7588Z"/><path d="m330.4836,76.5689v-8.4541h1.0371v8.4541h-1.0371Z"/><path d="m333.1077,76.5689v-8.4541h1.0371v8.4541h-1.0371Z"/><path d="m339.9465,74.5962l1.0723.1328c-.1689.627-.4824,1.1133-.9395,1.459-.458.3467-1.042.5195-1.7529.5195-.8955,0-1.6064-.2764-2.1309-.8281s-.7871-1.3252-.7871-2.3203c0-1.0303.2656-1.8301.7959-2.3994s1.2188-.8535,2.0645-.8535c.8184,0,1.4873.2793,2.0068.8359.5186.5576.7783,1.3418.7783,2.3535,0,.0615-.002.1533-.0059.2764h-4.5674c.0391.6729.2285,1.1875.5713,1.5459.3418.3574.7686.5361,1.2803.5361.3799,0,.7051-.1006.9746-.2998.2686-.2002.4824-.5195.6396-.958Zm-3.4082-1.6777h3.4199c-.0459-.5146-.1768-.9014-.3926-1.1592-.3301-.3994-.7588-.5996-1.2852-.5996-.4775,0-.8779.1592-1.2031.4785-.3242.3193-.5039.7461-.5391,1.2803Z"/><path d="m342.3108,76.5689v-6.124h.9346v.9287c.2383-.4346.458-.7217.6602-.8594.2021-.1387.4238-.208.666-.208.3496,0,.7061.1113,1.0674.335l-.3584.9629c-.2529-.1504-.5068-.2256-.7607-.2256-.2266,0-.4307.0684-.6113.2051s-.3096.3262-.3867.5684c-.1152.3691-.1729.7725-.1729,1.2109v3.2061h-1.0381Z"/><path d="m354.7034,75.5708v.998h-5.5879c-.0078-.25.0332-.4902.1211-.7207.1426-.3809.3701-.7559.6836-1.125s.7656-.7959,1.3584-1.2803c.918-.7529,1.5391-1.3496,1.8623-1.79s.4844-.8564.4844-1.249c0-.4111-.1475-.7578-.4414-1.04-.2939-.2832-.6777-.4238-1.1504-.4238-.5,0-.8994.1494-1.1992.4492s-.4521.7148-.4561,1.2461l-1.0664-.1094c.0732-.7959.3477-1.4023.8242-1.8203.4766-.417,1.1172-.625,1.9209-.625.8105,0,1.4531.2246,1.9258.6748.4727.4492.709,1.0068.709,1.6719,0,.3389-.0693.6709-.207.998-.1387.3262-.3682.6709-.6895,1.0322s-.8545.8574-1.6006,1.4873c-.6221.5234-1.0225.8779-1.1992,1.0645s-.3232.374-.4385.5615h4.1465Z"/></g><g><rect class="uuid-79937e81-ad98-4684-8bf6-02b857a08eb1" x="61.6561" y="203.6151" width="175.4308" height="47.8052"/><rect class="uuid-9aedd49c-1b2c-457b-b1de-8ae48508335f" x="83.1291" y="226.561" width="16.206" height="16.206"/><rect class="uuid-9aedd49c-1b2c-457b-b1de-8ae48508335f" x="99.335" y="226.561" width="16.206" height="16.206"/><rect class="uuid-9aedd49c-1b2c-457b-b1de-8ae48508335f" x="183.2021" y="226.561" width="16.206" height="16.206"/><rect class="uuid-9aedd49c-1b2c-457b-b1de-8ae48508335f" x="199.408" y="226.561" width="16.206" height="16.206"/><path d="m92.4724,222.4038h-1.4731v-5.5518c-.5386.5029-1.1729.876-1.9033,1.1162v-1.3359c.3848-.126.8022-.3652,1.2529-.7158.4512-.3516.7603-.7607.9282-1.2295h1.1953v7.7168Z"/><path d="m109.884,221.0357v1.3682h-5.1636c.0557-.5176.2236-1.0078.5029-1.4707.2798-.4629.832-1.0771,1.6567-1.8428.6641-.6182,1.0713-1.0381,1.2217-1.2578.2026-.3037.3037-.6045.3037-.9014,0-.3291-.0884-.5811-.2646-.7578s-.4204-.2646-.7314-.2646c-.3076,0-.5522.0928-.7339.2773-.1816.1855-.2866.4932-.3145.9229l-1.4678-.1465c.0874-.8105.3618-1.3926.8228-1.7461.4614-.3525,1.0381-.5293,1.7305-.5293.7583,0,1.354.2041,1.7876.6133.4331.4092.6499.917.6499,1.5254,0,.3467-.062.6758-.186.9883s-.3208.6406-.5898.9834c-.1782.2266-.5.5537-.9648.9805-.4648.4258-.7593.709-.8833.8486s-.2246.2764-.3013.4092h2.9253Z"/><path d="m188.7239,220.3648l1.4258-.1729c.0454.3633.168.6406.3672.833s.4399.2881.7231.2881c.3042,0,.5601-.1152.7681-.3457s.312-.542.312-.9326c0-.3711-.0996-.6641-.2988-.8809s-.4424-.3252-.7285-.3252c-.189,0-.4146.0361-.6763.1104l.1621-1.2012c.3984.0107.7026-.0762.9126-.2588.2095-.1836.3145-.4277.3145-.7314,0-.2588-.0771-.4648-.231-.6191-.1538-.1533-.3579-.2305-.6133-.2305-.2515,0-.4663.0879-.6445.2617-.1782.1748-.2866.4307-.3252.7656l-1.3579-.2305c.0942-.4648.2368-.8359.4272-1.1143.1904-.2773.4561-.4961.7969-.6553s.7227-.2383,1.1455-.2383c.7236,0,1.3037.2305,1.7407.6924.3599.377.5396.8037.5396,1.2783,0,.6748-.3687,1.2129-1.106,1.6152.4404.0938.7925.3057,1.0562.6338.2642.3291.396.7256.396,1.1904,0,.6748-.2466,1.249-.7393,1.7246s-1.106.7129-1.8398.7129c-.6958,0-1.2725-.2002-1.73-.5996-.458-.4004-.7236-.9238-.7969-1.5703Z"/><path d="m207.8704,222.4038v-1.5469h-3.1455v-1.2891l3.334-4.8809h1.2373v4.875h.9541v1.2949h-.9541v1.5469h-1.4258Zm0-2.8418v-2.626l-1.7666,2.626h1.7666Z"/></g><g><rect class="uuid-79937e81-ad98-4684-8bf6-02b857a08eb1" x="61.6561" y="299.2256" width="175.4308" height="47.8052"/><rect class="uuid-9aedd49c-1b2c-457b-b1de-8ae48508335f" x="83.1291" y="322.1715" width="16.206" height="16.206"/><rect class="uuid-9aedd49c-1b2c-457b-b1de-8ae48508335f" x="99.335" y="322.1715" width="16.206" height="16.206"/><rect class="uuid-9aedd49c-1b2c-457b-b1de-8ae48508335f" x="183.2021" y="322.1715" width="16.206" height="16.206"/><rect class="uuid-9aedd49c-1b2c-457b-b1de-8ae48508335f" x="199.408" y="322.1715" width="16.206" height="16.206"/><path d="m92.4724,318.0142h-1.4731v-5.5518c-.5386.5029-1.1729.876-1.9033,1.1162v-1.3359c.3848-.126.8022-.3652,1.2529-.7158.4512-.3516.7603-.7607.9282-1.2295h1.1953v7.7168Z"/><path d="m109.884,316.646v1.3682h-5.1636c.0557-.5176.2236-1.0078.5029-1.4707.2798-.4629.832-1.0771,1.6567-1.8428.6641-.6182,1.0713-1.0381,1.2217-1.2578.2026-.3037.3037-.6045.3037-.9014,0-.3291-.0884-.5811-.2646-.7578s-.4204-.2646-.7314-.2646c-.3076,0-.5522.0928-.7339.2773-.1816.1855-.2866.4932-.3145.9229l-1.4678-.1465c.0874-.8105.3618-1.3926.8228-1.7461.4614-.3525,1.0381-.5293,1.7305-.5293.7583,0,1.354.2041,1.7876.6133.4331.4092.6499.917.6499,1.5254,0,.3467-.062.6758-.186.9883s-.3208.6406-.5898.9834c-.1782.2266-.5.5537-.9648.9805-.4648.4258-.7593.709-.8833.8486s-.2246.2764-.3013.4092h2.9253Z"/><path d="m188.7239,315.9751l1.4258-.1729c.0454.3633.168.6406.3672.833s.4399.2881.7231.2881c.3042,0,.5601-.1152.7681-.3457s.312-.542.312-.9326c0-.3711-.0996-.6641-.2988-.8809s-.4424-.3252-.7285-.3252c-.189,0-.4146.0361-.6763.1104l.1621-1.2012c.3984.0107.7026-.0762.9126-.2588.2095-.1836.3145-.4277.3145-.7314,0-.2588-.0771-.4648-.231-.6191-.1538-.1533-.3579-.2305-.6133-.2305-.2515,0-.4663.0879-.6445.2617-.1782.1748-.2866.4307-.3252.7656l-1.3579-.2305c.0942-.4648.2368-.8359.4272-1.1143.1904-.2773.4561-.4961.7969-.6553s.7227-.2383,1.1455-.2383c.7236,0,1.3037.2305,1.7407.6924.3599.377.5396.8037.5396,1.2783,0,.6748-.3687,1.2129-1.106,1.6152.4404.0938.7925.3057,1.0562.6338.2642.3291.396.7256.396,1.1904,0,.6748-.2466,1.249-.7393,1.7246s-1.106.7129-1.8398.7129c-.6958,0-1.2725-.2002-1.73-.5996-.458-.4004-.7236-.9238-.7969-1.5703Z"/><path d="m207.8704,318.0142v-1.5469h-3.1455v-1.2891l3.334-4.8809h1.2373v4.875h.9541v1.2949h-.9541v1.5469h-1.4258Zm0-2.8418v-2.626l-1.7666,2.626h1.7666Z"/></g><g><rect class="uuid-79937e81-ad98-4684-8bf6-02b857a08eb1" x="61.6561" y="394.8361" width="175.4308" height="47.8052"/><rect class="uuid-9aedd49c-1b2c-457b-b1de-8ae48508335f" x="83.1291" y="417.7819" width="16.206" height="16.206"/><rect class="uuid-9aedd49c-1b2c-457b-b1de-8ae48508335f" x="99.335" y="417.7819" width="16.206" height="16.206"/><rect class="uuid-9aedd49c-1b2c-457b-b1de-8ae48508335f" x="183.2021" y="417.7819" width="16.206" height="16.206"/><rect class="uuid-9aedd49c-1b2c-457b-b1de-8ae48508335f" x="199.408" y="417.7819" width="16.206" height="16.206"/><path d="m92.4724,413.6245h-1.4731v-5.5518c-.5386.5029-1.1729.876-1.9033,1.1162v-1.3359c.3848-.126.8022-.3652,1.2529-.7158.4512-.3516.7603-.7607.9282-1.2295h1.1953v7.7168Z"/><path d="m109.884,412.2564v1.3682h-5.1636c.0557-.5176.2236-1.0078.5029-1.4707.2798-.4629.832-1.0771,1.6567-1.8428.6641-.6182,1.0713-1.0381,1.2217-1.2578.2026-.3037.3037-.6045.3037-.9014,0-.3291-.0884-.5811-.2646-.7578s-.4204-.2646-.7314-.2646c-.3076,0-.5522.0928-.7339.2773-.1816.1855-.2866.4932-.3145.9229l-1.4678-.1465c.0874-.8105.3618-1.3926.8228-1.7461.4614-.3525,1.0381-.5293,1.7305-.5293.7583,0,1.354.2041,1.7876.6133.4331.4092.6499.917.6499,1.5254,0,.3467-.062.6758-.186.9883s-.3208.6406-.5898.9834c-.1782.2266-.5.5537-.9648.9805-.4648.4258-.7593.709-.8833.8486s-.2246.2764-.3013.4092h2.9253Z"/><path d="m188.7239,411.5855l1.4258-.1729c.0454.3633.168.6406.3672.833s.4399.2881.7231.2881c.3042,0,.5601-.1152.7681-.3457s.312-.542.312-.9326c0-.3711-.0996-.6641-.2988-.8809s-.4424-.3252-.7285-.3252c-.189,0-.4146.0361-.6763.1104l.1621-1.2012c.3984.0107.7026-.0762.9126-.2588.2095-.1836.3145-.4277.3145-.7314,0-.2588-.0771-.4648-.231-.6191-.1538-.1533-.3579-.2305-.6133-.2305-.2515,0-.4663.0879-.6445.2617-.1782.1748-.2866.4307-.3252.7656l-1.3579-.2305c.0942-.4648.2368-.8359.4272-1.1143.1904-.2773.4561-.4961.7969-.6553s.7227-.2383,1.1455-.2383c.7236,0,1.3037.2305,1.7407.6924.3599.377.5396.8037.5396,1.2783,0,.6748-.3687,1.2129-1.106,1.6152.4404.0938.7925.3057,1.0562.6338.2642.3291.396.7256.396,1.1904,0,.6748-.2466,1.249-.7393,1.7246s-1.106.7129-1.8398.7129c-.6958,0-1.2725-.2002-1.73-.5996-.458-.4004-.7236-.9238-.7969-1.5703Z"/><path d="m207.8704,413.6245v-1.5469h-3.1455v-1.2891l3.334-4.8809h1.2373v4.875h.9541v1.2949h-.9541v1.5469h-1.4258Zm0-2.8418v-2.626l-1.7666,2.626h1.7666Z"/></g><g><rect class="uuid-79937e81-ad98-4684-8bf6-02b857a08eb1" x="237.0869" y="203.6151" width="175.4308" height="47.8052"/><rect class="uuid-9aedd49c-1b2c-457b-b1de-8ae48508335f" x="258.5599" y="226.561" width="16.206" height="16.206"/><rect class="uuid-9aedd49c-1b2c-457b-b1de-8ae48508335f" x="274.7658" y="226.561" width="16.206" height="16.206"/><rect class="uuid-9aedd49c-1b2c-457b-b1de-8ae48508335f" x="358.6329" y="226.561" width="16.206" height="16.206"/><rect class="uuid-9aedd49c-1b2c-457b-b1de-8ae48508335f" x="374.8388" y="226.561" width="16.206" height="16.206"/><path d="m267.9031,222.4038h-1.4731v-5.5518c-.5386.5029-1.1729.876-1.9033,1.1162v-1.3359c.3848-.126.8022-.3652,1.2529-.7158.4512-.3516.7603-.7607.9282-1.2295h1.1953v7.7168Z"/><path d="m285.3137,221.0357v1.3682h-5.1631c.0557-.5176.2236-1.0078.5029-1.4707s.832-1.0771,1.6562-1.8428c.6641-.6182,1.0713-1.0381,1.2217-1.2578.2031-.3037.3047-.6045.3047-.9014,0-.3291-.0889-.5811-.2646-.7578-.1768-.1768-.4209-.2646-.7314-.2646-.3076,0-.5527.0928-.7344.2773-.1816.1855-.2861.4932-.3145.9229l-1.4678-.1465c.0869-.8105.3613-1.3926.8232-1.7461.4609-.3525,1.0381-.5293,1.7295-.5293.7588,0,1.3545.2041,1.7881.6133s.6494.917.6494,1.5254c0,.3467-.0615.6758-.1855.9883s-.3203.6406-.5898.9834c-.1787.2266-.5.5537-.9648.9805-.4648.4258-.7588.709-.8828.8486s-.2246.2764-.3018.4092h2.9248Z"/><path d="m364.1536,220.3648l1.4268-.1729c.0449.3633.167.6406.3662.833s.4404.2881.7236.2881c.3037,0,.5605-.1152.7686-.3457.207-.2305.3115-.542.3115-.9326,0-.3711-.0996-.6641-.2988-.8809s-.4424-.3252-.7285-.3252c-.1885,0-.4141.0361-.6768.1104l.1631-1.2012c.3984.0107.7021-.0762.9121-.2588.21-.1836.3145-.4277.3145-.7314,0-.2588-.0771-.4648-.2305-.6191-.1543-.1533-.3584-.2305-.6133-.2305-.252,0-.4668.0879-.6455.2617-.1777.1748-.2861.4307-.3252.7656l-1.3574-.2305c.0947-.4648.2363-.8359.4277-1.1143.1904-.2773.4561-.4961.7969-.6553s.7217-.2383,1.1455-.2383c.7227,0,1.3027.2305,1.7402.6924.3594.377.54.8037.54,1.2783,0,.6748-.3691,1.2129-1.1064,1.6152.4404.0938.792.3057,1.0566.6338.2637.3291.3955.7256.3955,1.1904,0,.6748-.2461,1.249-.7393,1.7246s-1.1064.7129-1.8398.7129c-.6953,0-1.2725-.2002-1.7305-.5996-.458-.4004-.7227-.9238-.7969-1.5703Z"/><path d="m383.301,222.4038v-1.5469h-3.1455v-1.2891l3.334-4.8809h1.2373v4.875h.9541v1.2949h-.9541v1.5469h-1.4258Zm0-2.8418v-2.626l-1.7666,2.626h1.7666Z"/></g><g><rect class="uuid-79937e81-ad98-4684-8bf6-02b857a08eb1" x="237.0869" y="299.2256" width="175.4308" height="47.8052"/><rect class="uuid-9aedd49c-1b2c-457b-b1de-8ae48508335f" x="258.5599" y="322.1715" width="16.206" height="16.206"/><rect class="uuid-9aedd49c-1b2c-457b-b1de-8ae48508335f" x="274.7658" y="322.1715" width="16.206" height="16.206"/><rect class="uuid-9aedd49c-1b2c-457b-b1de-8ae48508335f" x="358.6329" y="322.1715" width="16.206" height="16.206"/><rect class="uuid-9aedd49c-1b2c-457b-b1de-8ae48508335f" x="374.8388" y="322.1715" width="16.206" height="16.206"/><path d="m267.9031,318.0142h-1.4731v-5.5518c-.5386.5029-1.1729.876-1.9033,1.1162v-1.3359c.3848-.126.8022-.3652,1.2529-.7158.4512-.3516.7603-.7607.9282-1.2295h1.1953v7.7168Z"/><path d="m285.3137,316.646v1.3682h-5.1631c.0557-.5176.2236-1.0078.5029-1.4707s.832-1.0771,1.6562-1.8428c.6641-.6182,1.0713-1.0381,1.2217-1.2578.2031-.3037.3047-.6045.3047-.9014,0-.3291-.0889-.5811-.2646-.7578-.1768-.1768-.4209-.2646-.7314-.2646-.3076,0-.5527.0928-.7344.2773-.1816.1855-.2861.4932-.3145.9229l-1.4678-.1465c.0869-.8105.3613-1.3926.8232-1.7461.4609-.3525,1.0381-.5293,1.7295-.5293.7588,0,1.3545.2041,1.7881.6133s.6494.917.6494,1.5254c0,.3467-.0615.6758-.1855.9883s-.3203.6406-.5898.9834c-.1787.2266-.5.5537-.9648.9805-.4648.4258-.7588.709-.8828.8486s-.2246.2764-.3018.4092h2.9248Z"/><path d="m364.1536,315.9751l1.4268-.1729c.0449.3633.167.6406.3662.833s.4404.2881.7236.2881c.3037,0,.5605-.1152.7686-.3457.207-.2305.3115-.542.3115-.9326,0-.3711-.0996-.6641-.2988-.8809s-.4424-.3252-.7285-.3252c-.1885,0-.4141.0361-.6768.1104l.1631-1.2012c.3984.0107.7021-.0762.9121-.2588.21-.1836.3145-.4277.3145-.7314,0-.2588-.0771-.4648-.2305-.6191-.1543-.1533-.3584-.2305-.6133-.2305-.252,0-.4668.0879-.6455.2617-.1777.1748-.2861.4307-.3252.7656l-1.3574-.2305c.0947-.4648.2363-.8359.4277-1.1143.1904-.2773.4561-.4961.7969-.6553s.7217-.2383,1.1455-.2383c.7227,0,1.3027.2305,1.7402.6924.3594.377.54.8037.54,1.2783,0,.6748-.3691,1.2129-1.1064,1.6152.4404.0938.792.3057,1.0566.6338.2637.3291.3955.7256.3955,1.1904,0,.6748-.2461,1.249-.7393,1.7246s-1.1064.7129-1.8398.7129c-.6953,0-1.2725-.2002-1.7305-.5996-.458-.4004-.7227-.9238-.7969-1.5703Z"/><path d="m383.301,318.0142v-1.5469h-3.1455v-1.2891l3.334-4.8809h1.2373v4.875h.9541v1.2949h-.9541v1.5469h-1.4258Zm0-2.8418v-2.626l-1.7666,2.626h1.7666Z"/></g><g><rect class="uuid-79937e81-ad98-4684-8bf6-02b857a08eb1" x="237.0869" y="394.8361" width="175.4308" height="47.8052"/><rect class="uuid-9aedd49c-1b2c-457b-b1de-8ae48508335f" x="258.5599" y="417.7819" width="16.206" height="16.206"/><rect class="uuid-9aedd49c-1b2c-457b-b1de-8ae48508335f" x="274.7658" y="417.7819" width="16.206" height="16.206"/><rect class="uuid-9aedd49c-1b2c-457b-b1de-8ae48508335f" x="358.6329" y="417.7819" width="16.206" height="16.206"/><rect class="uuid-9aedd49c-1b2c-457b-b1de-8ae48508335f" x="374.8388" y="417.7819" width="16.206" height="16.206"/><path d="m267.9031,413.6245h-1.4731v-5.5518c-.5386.5029-1.1729.876-1.9033,1.1162v-1.3359c.3848-.126.8022-.3652,1.2529-.7158.4512-.3516.7603-.7607.9282-1.2295h1.1953v7.7168Z"/><path d="m285.3137,412.2564v1.3682h-5.1631c.0557-.5176.2236-1.0078.5029-1.4707s.832-1.0771,1.6562-1.8428c.6641-.6182,1.0713-1.0381,1.2217-1.2578.2031-.3037.3047-.6045.3047-.9014,0-.3291-.0889-.5811-.2646-.7578-.1768-.1768-.4209-.2646-.7314-.2646-.3076,0-.5527.0928-.7344.2773-.1816.1855-.2861.4932-.3145.9229l-1.4678-.1465c.0869-.8105.3613-1.3926.8232-1.7461.4609-.3525,1.0381-.5293,1.7295-.5293.7588,0,1.3545.2041,1.7881.6133s.6494.917.6494,1.5254c0,.3467-.0615.6758-.1855.9883s-.3203.6406-.5898.9834c-.1787.2266-.5.5537-.9648.9805-.4648.4258-.7588.709-.8828.8486s-.2246.2764-.3018.4092h2.9248Z"/><path d="m364.1536,411.5855l1.4268-.1729c.0449.3633.167.6406.3662.833s.4404.2881.7236.2881c.3037,0,.5605-.1152.7686-.3457.207-.2305.3115-.542.3115-.9326,0-.3711-.0996-.6641-.2988-.8809s-.4424-.3252-.7285-.3252c-.1885,0-.4141.0361-.6768.1104l.1631-1.2012c.3984.0107.7021-.0762.9121-.2588.21-.1836.3145-.4277.3145-.7314,0-.2588-.0771-.4648-.2305-.6191-.1543-.1533-.3584-.2305-.6133-.2305-.252,0-.4668.0879-.6455.2617-.1777.1748-.2861.4307-.3252.7656l-1.3574-.2305c.0947-.4648.2363-.8359.4277-1.1143.1904-.2773.4561-.4961.7969-.6553s.7217-.2383,1.1455-.2383c.7227,0,1.3027.2305,1.7402.6924.3594.377.54.8037.54,1.2783,0,.6748-.3691,1.2129-1.1064,1.6152.4404.0938.792.3057,1.0566.6338.2637.3291.3955.7256.3955,1.1904,0,.6748-.2461,1.249-.7393,1.7246s-1.1064.7129-1.8398.7129c-.6953,0-1.2725-.2002-1.7305-.5996-.458-.4004-.7227-.9238-.7969-1.5703Z"/><path d="m383.301,413.6245v-1.5469h-3.1455v-1.2891l3.334-4.8809h1.2373v4.875h.9541v1.2949h-.9541v1.5469h-1.4258Zm0-2.8418v-2.626l-1.7666,2.626h1.7666Z"/></g><g><path d="m26.3274,414.8032v-8.4541h1.1187v7.4561h4.1636v.998h-5.2822Z"/><path d="m36.8054,414.0474c-.3848.3271-.7549.5576-1.1104.6924s-.7373.2021-1.1445.2021c-.6729,0-1.1899-.165-1.5513-.4932-.3613-.3291-.542-.749-.542-1.2598,0-.2998.0684-.5742.2046-.8223.1367-.248.3154-.4473.5366-.5967.2207-.1504.4697-.2637.7466-.3398.2036-.0547.5112-.1064.9229-.1562.8379-.0996,1.4551-.2188,1.8511-.3574.0034-.1426.0054-.2324.0054-.2715,0-.4229-.0977-.7207-.2939-.8936-.2651-.2344-.6592-.3516-1.1821-.3516-.4883,0-.8486.0859-1.0811.2568-.2329.1709-.4048.4736-.5161.9082l-1.0151-.1387c.0923-.4346.2441-.7852.4556-1.0527.2114-.2666.5171-.4727.917-.6162.3999-.1445.8628-.2168,1.3896-.2168.5229,0,.9478.0615,1.2744.1846s.5669.2783.7207.4639c.1538.1865.2617.4229.3232.707.0347.1768.0518.4961.0518.957v1.3838c0,.9648.022,1.5752.0664,1.8311.0439.2559.1313.501.2622.7354h-1.084c-.1079-.2148-.1768-.4668-.2075-.7559Zm-.0864-2.3174c-.377.1533-.9419.2842-1.6958.3916-.4268.0615-.7285.1309-.9053.208s-.3135.1895-.4092.3369c-.0962.1484-.1445.3125-.1445.4932,0,.2773.105.5078.3145.6924s.5161.2764.9199.2764c.3999,0,.7554-.0869,1.0669-.2627.311-.1748.54-.4141.686-.7178.1113-.2344.1675-.5801.1675-1.0381v-.3799Z"/><path d="m38.9617,412.9751l1.0264-.1611c.0576.4111.2183.7266.4814.9453.2637.2197.6318.3291,1.1045.3291.4766,0,.8306-.0977,1.061-.291.2305-.1943.3462-.4219.3462-.6836,0-.2344-.1021-.4189-.3057-.5537-.1426-.0928-.4961-.21-1.061-.3516-.7612-.1924-1.2891-.3584-1.583-.499-.2944-.1406-.5171-.335-.6689-.582-.1519-.248-.228-.5225-.228-.8223,0-.2725.0625-.5254.1875-.7578.125-.2334.2949-.4258.5103-.5801.1616-.1191.3818-.2197.6606-.3027.2783-.083.5771-.124.8965-.124.4805,0,.9023.0693,1.2656.208.3633.1377.6318.3252.8047.5615.1729.2373.292.5527.3574.9492l-1.0146.1387c-.0464-.3154-.1802-.5615-.4009-.7383-.2212-.1768-.5337-.2656-.937-.2656-.4771,0-.8174.0791-1.021.2363-.2036.1582-.3057.3428-.3057.5537,0,.1348.0425.2559.127.3633.0845.1113.2173.2041.3979.2773.104.0381.4097.126.917.2646.7344.1963,1.2466.3564,1.5366.4814.2905.125.5181.3066.6836.5449.165.2383.248.5342.248.8887,0,.3457-.1011.6719-.3027.9775-.2021.3047-.4932.542-.874.709-.3804.167-.811.251-1.2915.251-.7959,0-1.4023-.165-1.8193-.4961-.4175-.3311-.6836-.8213-.7988-1.4707Z"/><path d="m47.5486,413.8745l.1499.917c-.2925.0615-.5537.0928-.7842.0928-.377,0-.6689-.0596-.877-.1787-.2075-.1191-.3535-.2764-.438-.4707-.0845-.1934-.127-.6025-.127-1.2246v-3.5234h-.7612v-.8076h.7612v-1.5166l1.0322-.623v2.1396h1.0439v.8076h-1.0439v3.5811c0,.2959.0181.4863.0547.5703.0366.085.0962.1523.1787.2021.083.0498.2012.0752.355.0752.1152,0,.2671-.0137.4556-.041Z"/><path d="m23.6946,426.2593l1.0552-.0928c.0498.4229.166.7705.3486,1.041.1826.2715.4663.4902.8506.6572.3848.168.8169.251,1.2979.251.4268,0,.8032-.0635,1.1299-.1904s.5703-.3008.7295-.5215c.1597-.2207.2393-.4619.2393-.7236,0-.2656-.0767-.4971-.2305-.6953-.1538-.1973-.4077-.3643-.7612-.499-.2271-.0879-.7285-.2256-1.5049-.4121-.7769-.1865-1.3208-.3623-1.6323-.5273-.4033-.2119-.7041-.4736-.9023-.7871-.1978-.3135-.2969-.6641-.2969-1.0527,0-.4268.1211-.8252.3633-1.1963s.5957-.6523,1.061-.8447.9824-.2881,1.5513-.2881c.6265,0,1.1792.1006,1.6577.3027.479.2012.8467.498,1.1045.8906.2573.3916.396.8359.415,1.332l-1.0723.0811c-.0576-.5342-.2529-.9385-.5854-1.2109-.3325-.2734-.8237-.4102-1.4736-.4102-.6763,0-1.1694.124-1.479.3721s-.4644.5469-.4644.8965c0,.3037.1099.5537.3291.75.2148.1963.7773.3975,1.6865.6025.9092.2061,1.5327.3857,1.8711.5391.4922.2275.8555.5146,1.0903.8623.2344.3477.3516.749.3516,1.2021,0,.4502-.1289.874-.3862,1.2715-.2578.3984-.6279.708-1.1104.9287s-1.0254.332-1.6289.332c-.7651,0-1.4062-.1123-1.9233-.335s-.9224-.5586-1.2168-1.0059c-.2939-.4482-.4487-.9551-.4639-1.5195Z"/><path d="m31.8196,428.9751v-8.4541h1.0381v3.0332c.4844-.5605,1.0957-.8418,1.834-.8418.4536,0,.8477.0898,1.1821.2686s.5737.4258.7178.7402c.144.3154.2163.7734.2163,1.373v3.8809h-1.0381v-3.8809c0-.5195-.1123-.8965-.3374-1.1328-.2246-.2373-.543-.3555-.9541-.3555-.3076,0-.5972.0801-.8682.2393-.271.1602-.4639.376-.5796.6494-.1152.2725-.1729.6494-.1729,1.1299v3.3506h-1.0381Z"/><path d="m42.5798,427.0025l1.0728.1328c-.1694.627-.4824,1.1133-.9399,1.459-.4575.3467-1.042.5195-1.7529.5195-.896,0-1.606-.2764-2.1309-.8281s-.7871-1.3252-.7871-2.3203c0-1.0303.2651-1.8301.7959-2.3994.5303-.5693,1.2183-.8535,2.0645-.8535.8188,0,1.4878.2793,2.0063.8359.519.5576.7788,1.3418.7788,2.3535,0,.0615-.002.1533-.0059.2764h-4.5674c.0386.6729.229,1.1875.5713,1.5459.3418.3574.7686.5361,1.2798.5361.3809,0,.7056-.1006.9746-.2998.269-.2002.4824-.5195.6401-.958Zm-3.4077-1.6777h3.4194c-.0464-.5146-.1768-.9014-.3921-1.1592-.3306-.3994-.7593-.5996-1.2861-.5996-.4766,0-.8774.1592-1.2021.4785-.3252.3193-.5049.7461-.5391,1.2803Z"/><path d="m44.9329,428.9751v-8.4541h1.0381v8.4541h-1.0381Z"/><path d="m47.8279,428.9751v-5.3164h-.917v-.8076h.917v-.6514c0-.4121.0366-.7178.1099-.917.0996-.2695.2754-.4873.5273-.6553.252-.167.6045-.25,1.0581-.25.2925,0,.6152.0342.9688.1035l-.1553.9053c-.2153-.0381-.4194-.0576-.6113-.0576-.3154,0-.5386.0674-.6689.2021-.1309.1338-.1963.3857-.1963.7549v.5654h1.1938v.8076h-1.1938v5.3164h-1.0322Z"/></g><g><g><polyline class="uuid-068d7592-51ba-4de0-89d2-13aa9a8063b7" points="109.8732 116.9526 109.8732 83.8123 10.4881 83.8123 10.4881 470.134 191.3051 470.134 191.3051 425.8849"/><polyline class="uuid-101819a7-64cd-425a-b2a3-9dd221296e9e" points="109.8732 116.9526 109.8732 83.8123 10.4881 83.8123 10.4881 470.134 191.3051 470.134 191.3051 425.8849"/></g><g><polyline class="uuid-068d7592-51ba-4de0-89d2-13aa9a8063b7" points="285.304 109.9443 285.304 83.8123 464.2911 83.8123 464.2911 470.134 366.7359 470.134 366.7359 425.8849"/><polyline class="uuid-5eca1107-2f61-4442-979c-bd1f5c34b250" points="285.304 109.9443 285.304 83.8123 464.2911 83.8123 464.2911 470.134 366.7359 470.134 366.7359 425.8849"/></g><g><line class="uuid-068d7592-51ba-4de0-89d2-13aa9a8063b7" x1="266.6628" y1="330.2744" x2="366.7359" y2="234.6638"/><line class="uuid-5eca1107-2f61-4442-979c-bd1f5c34b250" x1="266.6628" y1="330.2744" x2="366.7359" y2="234.6638"/></g><g><line class="uuid-068d7592-51ba-4de0-89d2-13aa9a8063b7" x1="266.6628" y1="425.8849" x2="366.7359" y2="330.2744"/><line class="uuid-5eca1107-2f61-4442-979c-bd1f5c34b250" x1="266.6628" y1="425.8849" x2="366.7359" y2="330.2744"/></g><g><line class="uuid-068d7592-51ba-4de0-89d2-13aa9a8063b7" x1="91.232" y1="425.8849" x2="191.3051" y2="330.2744"/><line class="uuid-101819a7-64cd-425a-b2a3-9dd221296e9e" x1="91.232" y1="425.8849" x2="191.3051" y2="330.2744"/></g><g><path class="uuid-84a8704a-e60a-4caa-8474-ecfcda3027fe" d="m266.6628,237.6636c-1.6567,0-3-1.3428-3-3v-59.3096H42.5325c-1.6567,0-3-1.3428-3-3v-55.4014c0-1.6572,1.3433-3,3-3h36.5254c1.6567,0,3,1.3428,3,3s-1.3433,3-3,3h-33.5254v49.4014h221.1304c1.6567,0,3,1.3428,3,3v62.3096c0,1.6572-1.3433,3-3,3Z"/><g><path class="uuid-d3463090-1a39-46e2-bae9-504ebb715127" d="m266.6628,235.6636c-.5522,0-1-.4473-1-1v-3c0-.5527.4478-1,1-1s1,.4473,1,1v3c0,.5527-.4478,1-1,1Z"/><path class="uuid-d3463090-1a39-46e2-bae9-504ebb715127" d="m266.6628,226.4068c-.5522,0-1-.4473-1-1v-6.2568c0-.5527.4478-1,1-1s1,.4473,1,1v6.2568c0,.5527-.4478,1-1,1Zm0-12.5137c-.5522,0-1-.4473-1-1v-6.2559c0-.5527.4478-1,1-1s1,.4473,1,1v6.2559c0,.5527-.4478,1-1,1Zm0-12.5127c-.5522,0-1-.4473-1-1v-6.2568c0-.5527.4478-1,1-1s1,.4473,1,1v6.2568c0,.5527-.4478,1-1,1Zm0-12.5137c-.5522,0-1-.4473-1-1v-6.2568c0-.5527.4478-1,1-1s1,.4473,1,1v6.2568c0,.5527-.4478,1-1,1Z"/><path class="uuid-d3463090-1a39-46e2-bae9-504ebb715127" d="m266.6628,176.354c-.5522,0-1-.4473-1-1v-2h-2c-.5522,0-1-.4473-1-1s.4478-1,1-1h3c.5522,0,1,.4473,1,1v3c0,.5527-.4478,1-1,1Z"/><path class="uuid-d3463090-1a39-46e2-bae9-504ebb715127" d="m257.7673,173.354h-5.8955c-.5522,0-1-.4473-1-1s.4478-1,1-1h5.8955c.5522,0,1,.4473,1,1s-.4478,1-1,1Zm-11.791,0h-5.895c-.5522,0-1-.4473-1-1s.4478-1,1-1h5.895c.5522,0,1,.4473,1,1s-.4478,1-1,1Zm-11.7905,0h-5.8955c-.5522,0-1-.4473-1-1s.4478-1,1-1h5.8955c.5522,0,1,.4473,1,1s-.4478,1-1,1Zm-11.791,0h-5.8955c-.5522,0-1-.4473-1-1s.4478-1,1-1h5.8955c.5522,0,1,.4473,1,1s-.4478,1-1,1Zm-11.7905,0h-5.8955c-.5522,0-1-.4473-1-1s.4478-1,1-1h5.8955c.5522,0,1,.4473,1,1s-.4478,1-1,1Zm-11.791,0h-5.8955c-.5522,0-1-.4473-1-1s.4478-1,1-1h5.8955c.5522,0,1,.4473,1,1s-.4478,1-1,1Zm-11.791,0h-5.895c-.5522,0-1-.4473-1-1s.4478-1,1-1h5.895c.5522,0,1,.4473,1,1s-.4478,1-1,1Zm-11.7905,0h-5.8955c-.5522,0-1-.4473-1-1s.4478-1,1-1h5.8955c.5522,0,1,.4473,1,1s-.4478,1-1,1Zm-11.791,0h-5.8955c-.5522,0-1-.4473-1-1s.4478-1,1-1h5.8955c.5522,0,1,.4473,1,1s-.4478,1-1,1Zm-11.7905,0h-5.8955c-.5522,0-1-.4473-1-1s.4478-1,1-1h5.8955c.5522,0,1,.4473,1,1s-.4478,1-1,1Zm-11.791,0h-5.8955c-.5522,0-1-.4473-1-1s.4478-1,1-1h5.8955c.5522,0,1,.4473,1,1s-.4478,1-1,1Zm-11.791,0h-5.895c-.5522,0-1-.4473-1-1s.4478-1,1-1h5.895c.5522,0,1,.4473,1,1s-.4478,1-1,1Zm-11.7905,0h-5.8955c-.5522,0-1-.4473-1-1s.4478-1,1-1h5.8955c.5522,0,1,.4473,1,1s-.4478,1-1,1Zm-11.791,0h-5.8955c-.5522,0-1-.4473-1-1s.4478-1,1-1h5.8955c.5522,0,1,.4473,1,1s-.4478,1-1,1Zm-11.7905,0h-5.8955c-.5522,0-1-.4473-1-1s.4478-1,1-1h5.8955c.5522,0,1,.4473,1,1s-.4478,1-1,1Zm-11.791,0h-5.8955c-.5522,0-1-.4473-1-1s.4478-1,1-1h5.8955c.5522,0,1,.4473,1,1s-.4478,1-1,1Zm-11.791,0h-5.895c-.5522,0-1-.4473-1-1s.4478-1,1-1h5.895c.5522,0,1,.4473,1,1s-.4478,1-1,1Zm-11.7905,0h-5.8955c-.5522,0-1-.4473-1-1s.4478-1,1-1h5.8955c.5522,0,1,.4473,1,1s-.4478,1-1,1Z"/><path class="uuid-d3463090-1a39-46e2-bae9-504ebb715127" d="m45.5325,173.354h-3c-.5522,0-1-.4473-1-1v-3c0-.5527.4478-1,1-1s1,.4473,1,1v2h2c.5522,0,1,.4473,1,1s-.4478,1-1,1Z"/><path class="uuid-d3463090-1a39-46e2-bae9-504ebb715127" d="m42.5325,164.8648c-.5522,0-1-.4473-1-1v-5.4893c0-.5527.4478-1,1-1s1,.4473,1,1v5.4893c0,.5527-.4478,1-1,1Zm0-10.9785c-.5522,0-1-.4473-1-1v-5.4883c0-.5527.4478-1,1-1s1,.4473,1,1v5.4883c0,.5527-.4478,1-1,1Zm0-10.9775c-.5522,0-1-.4473-1-1v-5.4893c0-.5527.4478-1,1-1s1,.4473,1,1v5.4893c0,.5527-.4478,1-1,1Zm0-10.9785c-.5522,0-1-.4473-1-1v-5.4883c0-.5527.4478-1,1-1s1,.4473,1,1v5.4883c0,.5527-.4478,1-1,1Z"/><path class="uuid-d3463090-1a39-46e2-bae9-504ebb715127" d="m42.5325,120.9527c-.5522,0-1-.4473-1-1v-3c0-.5527.4478-1,1-1h3c.5522,0,1,.4473,1,1s-.4478,1-1,1h-2v2c0,.5527-.4478,1-1,1Z"/><path class="uuid-d3463090-1a39-46e2-bae9-504ebb715127" d="m69.9529,117.9527h-6.105c-.5522,0-1-.4473-1-1s.4478-1,1-1h6.105c.5522,0,1,.4473,1,1s-.4478,1-1,1Zm-12.21,0h-6.105c-.5522,0-1-.4473-1-1s.4478-1,1-1h6.105c.5522,0,1,.4473,1,1s-.4478,1-1,1Z"/><path class="uuid-d3463090-1a39-46e2-bae9-504ebb715127" d="m79.0579,117.9527h-3c-.5522,0-1-.4473-1-1s.4478-1,1-1h3c.5522,0,1,.4473,1,1s-.4478,1-1,1Z"/></g></g><g><path class="uuid-84a8704a-e60a-4caa-8474-ecfcda3027fe" d="m254.3875,272.3433H90.8879c-.8008,0-1.5684-.3203-2.1318-.8896-.5635-.5684-.876-1.3398-.8682-2.1396l.3442-34.6797c.0166-1.6475,1.3564-2.9707,2.9995-2.9707h.0303c1.6567.0166,2.9863,1.373,2.9702,3.0293l-.3145,31.6504h157.4766l.3374-149.3975c.0039-1.6543,1.3462-2.9932,3-2.9932h.0068c1.6567.0039,2.9971,1.3496,2.9932,3.0068l-.3442,152.3906c-.0039,1.6543-1.3457,2.9932-3,2.9932Z"/><g><path class="uuid-24bf5198-1650-4c33-9f44-93d792335cbc" d="m254.7249,120.9527h-.0024c-.5522-.001-.999-.4502-.9976-1.002l.0068-3c.002-.5527.4424-1.0186,1.0024-.998.5522.001.999.4502.9976,1.002l-.0068,3c-.0015.5518-.4487.998-1,.998Z"/><path class="uuid-24bf5198-1650-4c33-9f44-93d792335cbc" d="m254.408,261.4868h-.0024c-.5522-.001-.999-.4502-.9976-1.002l.0132-5.8555c.0015-.5518.4487-.998,1-.998h.0024c.5522.001.999.4502.9976,1.002l-.0132,5.8555c-.0015.5518-.4487.998-1,.998Zm.0264-11.7109c-.5122-.0059-1.001-.4492-1-1.002l.0132-5.8555c.0015-.5518.4487-.998,1-.998h.0024c.5522.001.999.4502.9976,1.002l-.0132,5.8555c-.0015.5518-.4487.998-1,.998Zm.0264-11.7109h-.0024c-.5522-.001-.999-.4502-.9976-1.002l.0132-5.8555c.0015-.5518.4487-.998,1-.998h.0024c.5522.001.999.4502.9976,1.002l-.0132,5.8555c-.0015.5518-.4487.998-1,.998Zm.0264-11.7119h-.0024c-.5522-.001-.999-.4502-.9976-1.002l.0132-5.8555c.0015-.5518.4487-.998,1-.998h.0024c.5522.001.999.4502.9976,1.002l-.0132,5.8555c-.0015.5518-.4487.998-1,.998Zm.0264-11.7109h-.0024c-.5522-.001-.999-.4502-.9976-1.002l.0132-5.8555c.0015-.5518.4487-.998,1-.998h.0024c.5522.001.999.4502.9976,1.002l-.0132,5.8555c-.0015.5518-.4487.998-1,.998Zm.0264-11.7109h-.0024c-.5522-.001-.999-.4502-.9976-1.002l.0132-5.8555c.0015-.5518.4487-.998,1-.998h.0024c.5522.001.999.4502.9976,1.002l-.0132,5.8555c-.0015.5518-.4487.998-1,.998Zm.0264-11.7109h-.0024c-.5522-.001-.999-.4502-.9976-1.002l.0132-5.8564c.0015-.5518.4487-.998,1-.998h.0024c.5522.001.999.4502.9976,1.002l-.0132,5.8564c-.0015.5518-.4487.998-1,.998Zm.0264-11.7119h-.0024c-.5522-.001-.999-.4502-.9976-1.002l.0132-5.8555c.0015-.5518.4487-.998,1-.998h.0024c.5522.001.999.4502.9976,1.002l-.0132,5.8555c-.0015.5518-.4487.998-1,.998Zm.0269-11.7109h-.0024c-.5522-.001-.999-.4502-.9976-1.002l.0132-5.8555c.0015-.5518.4487-.998,1-.998h.0024c.5522.001.999.4502.9976,1.002l-.0132,5.8555c-.0015.5518-.4487.998-1,.998Zm.0264-11.7109h-.0024c-.5522-.001-.999-.4502-.9976-1.002l.0132-5.8555c.0015-.5518.4487-.998,1-.998h.0024c.5522.001.999.4502.9976,1.002l-.0132,5.8555c-.0015.5518-.4487.998-1,.998Zm.0264-11.7119h-.0024c-.5522-.001-.999-.4502-.9976-1.002l.0132-5.8555c.0015-.5518.4487-.998,1-.998h.0024c.5522.001.999.4502.9976,1.002l-.0132,5.8555c-.0015.5518-.4487.998-1,.998Zm.0264-11.7109h-.0024c-.5522-.001-.999-.4502-.9976-1.002l.0132-5.8555c.002-.5527.4624-1.0381,1.0024-.998.5522.001.999.4502.9976,1.002l-.0132,5.8555c-.0015.5518-.4487.998-1,.998Z"/><path class="uuid-24bf5198-1650-4c33-9f44-93d792335cbc" d="m254.3875,270.3433h-3c-.5522,0-1-.4473-1-1s.4478-1,1-1h2.0024l.0044-2.002c.0015-.5518.4487-.998,1-.998h.0024c.5522.001.999.4502.9976,1.002l-.0068,3c-.0015.5518-.4487.998-1,.998Z"/><path class="uuid-24bf5198-1650-4c33-9f44-93d792335cbc" d="m245.5544,270.3433h-5.8335c-.5522,0-1-.4473-1-1s.4478-1,1-1h5.8335c.5522,0,1,.4473,1,1s-.4478,1-1,1Zm-11.6665,0h-5.8335c-.5522,0-1-.4473-1-1s.4478-1,1-1h5.8335c.5522,0,1,.4473,1,1s-.4478,1-1,1Zm-11.667,0h-5.833c-.5522,0-1-.4473-1-1s.4478-1,1-1h5.833c.5522,0,1,.4473,1,1s-.4478,1-1,1Zm-11.6665,0h-5.8335c-.5522,0-1-.4473-1-1s.4478-1,1-1h5.8335c.5522,0,1,.4473,1,1s-.4478,1-1,1Zm-11.6665,0h-5.8335c-.5522,0-1-.4473-1-1s.4478-1,1-1h5.8335c.5522,0,1,.4473,1,1s-.4478,1-1,1Zm-11.667,0h-5.833c-.5522,0-1-.4473-1-1s.4478-1,1-1h5.833c.5522,0,1,.4473,1,1s-.4478,1-1,1Zm-11.6665,0h-5.8335c-.5522,0-1-.4473-1-1s.4478-1,1-1h5.8335c.5522,0,1,.4473,1,1s-.4478,1-1,1Zm-11.6665,0h-5.8335c-.5522,0-1-.4473-1-1s.4478-1,1-1h5.8335c.5522,0,1,.4473,1,1s-.4478,1-1,1Zm-11.6665,0h-5.8335c-.5522,0-1-.4473-1-1s.4478-1,1-1h5.8335c.5522,0,1,.4473,1,1s-.4478,1-1,1Zm-11.667,0h-5.833c-.5522,0-1-.4473-1-1s.4478-1,1-1h5.833c.5522,0,1,.4473,1,1s-.4478,1-1,1Zm-11.6665,0h-5.8335c-.5522,0-1-.4473-1-1s.4478-1,1-1h5.8335c.5522,0,1,.4473,1,1s-.4478,1-1,1Zm-11.6665,0h-5.8335c-.5522,0-1-.4473-1-1s.4478-1,1-1h5.8335c.5522,0,1,.4473,1,1s-.4478,1-1,1Zm-11.667,0h-5.833c-.5522,0-1-.4473-1-1s.4478-1,1-1h5.833c.5522,0,1,.4473,1,1s-.4478,1-1,1Z"/><path class="uuid-24bf5198-1650-4c33-9f44-93d792335cbc" d="m93.8879,270.3433h-3c-.2671,0-.5229-.1064-.7104-.2969-.188-.1895-.292-.4463-.2896-.7129l.0298-3c.0054-.5488.4521-.9902,1-.9902h.0098c.5522.0059.9956.458.9902,1.0098l-.02,1.9902h1.9902c.5522,0,1,.4473,1,1s-.4478,1-1,1Z"/><path class="uuid-24bf5198-1650-4c33-9f44-93d792335cbc" d="m90.9744,261.6069h-.0098c-.5522-.0059-.9956-.458-.9902-1.0098l.0571-5.7363c.0054-.5488.4521-.9902,1-.9902h.0098c.5522.0059.9956.458.9902,1.0098l-.0571,5.7363c-.0054.5488-.4521.9902-1,.9902Zm.1138-11.4717h-.0098c-.5522-.0059-.9956-.458-.9902-1.0098l.0571-5.7363c.0054-.5488.4521-.9902,1-.9902h.0098c.5522.0059.9956.458.9902,1.0098l-.0571,5.7363c-.0054.5488-.4521.9902-1,.9902Z"/><path class="uuid-24bf5198-1650-4c33-9f44-93d792335cbc" d="m91.2024,238.6636h-.0098c-.5522-.0059-.9956-.458-.9902-1.0098l.0298-3c.0049-.5518.4126-1.0059,1.0098-.9902.5522.0059.9956.458.9902,1.0098l-.0298,3c-.0054.5488-.4521.9902-1,.9902Z"/></g></g><g><line class="uuid-068d7592-51ba-4de0-89d2-13aa9a8063b7" x1="91.232" y1="330.2744" x2="191.3051" y2="234.6638"/><line class="uuid-101819a7-64cd-425a-b2a3-9dd221296e9e" x1="91.232" y1="330.2744" x2="191.3051" y2="234.6638"/></g></g></svg>