<?xml version="1.0" encoding="utf-8"?>
<!-- Generator: Adobe Illustrator 26.0.3, SVG Export Plug-In . SVG Version: 6.00 Build 0)  -->
<svg version="1.1" xmlns="http://www.w3.org/2000/svg" xmlns:xlink="http://www.w3.org/1999/xlink" x="0px" y="0px"
	 viewBox="0 0 342 234" style="enable-background:new 0 0 342 234;" xml:space="preserve">
<style type="text/css">
	.st0{fill:#D2D3D4;}
	.st1{fill:none;stroke:#231F20;stroke-width:0.5;stroke-linecap:round;stroke-linejoin:round;stroke-miterlimit:10;}
	.st2{fill:none;stroke:#231F20;stroke-width:0.4;stroke-linecap:round;stroke-linejoin:round;stroke-miterlimit:10;}
	.st3{fill:#D2D3D4;stroke:#231F20;stroke-width:0.4;stroke-miterlimit:10;}
	.st4{fill:#231F20;stroke:#231F20;stroke-width:0.5219;stroke-linecap:round;stroke-linejoin:round;stroke-miterlimit:10;}
	.st5{fill:#FFFFFF;stroke:#231F20;stroke-width:0.38;stroke-linecap:round;stroke-linejoin:round;stroke-miterlimit:10;}
	.st6{fill:#FFFFFF;stroke:#231F20;stroke-width:0.5182;stroke-linecap:round;stroke-linejoin:round;stroke-miterlimit:10;}
	.st7{fill:#FFFFFF;stroke:#231F20;stroke-width:0.4642;stroke-linecap:round;stroke-linejoin:round;stroke-miterlimit:10;}
	.st8{fill:none;stroke:#231F20;stroke-width:0.4642;stroke-linecap:round;stroke-linejoin:round;stroke-miterlimit:10;}
	.st9{fill:#FFFFFF;stroke:#231F20;stroke-width:0.75;stroke-linecap:round;stroke-linejoin:round;stroke-miterlimit:10;}
	.st10{fill:none;stroke:#FFFFFF;stroke-width:2;stroke-linecap:round;stroke-linejoin:round;stroke-miterlimit:10;}
	
		.st11{fill:none;stroke:#231F20;stroke-width:0.5;stroke-linecap:round;stroke-linejoin:round;stroke-miterlimit:10;stroke-dasharray:2.0562;}
	.st12{fill:#FFFFFF;stroke:#231F20;stroke-width:0.5;stroke-miterlimit:10;}
	.st13{fill:#231F20;stroke:#FFFFFF;stroke-width:1.5;stroke-miterlimit:10;}
	.st14{fill:#FFFFFF;}
	.st15{fill:#231F20;stroke:#FFFFFF;stroke-linecap:round;stroke-linejoin:round;stroke-miterlimit:10;}
	.st16{fill:#231F20;}
	.st17{fill:#231F20;stroke:#FFFFFF;stroke-width:0.5;stroke-linecap:round;stroke-linejoin:round;stroke-miterlimit:10;}
	.st18{fill:#231F20;stroke:#FFFFFF;stroke-width:0.7495;stroke-linecap:round;stroke-linejoin:round;stroke-miterlimit:10;}
	.st19{fill:none;stroke:#231F20;stroke-width:0.6906;stroke-miterlimit:10;}
</style>
<g id="RTC_x5F_BATTERY">
	<path class="st0" d="M120.154,149.717l0.16,3.325l1.722,0.24l2.203-5.287c0,0,0.721-3.164-1.642-3.204l-0.32,1.081
		c0,0-1.122,0.801-1.081,2.924C121.195,148.796,120.674,148.635,120.154,149.717z"/>
	<polyline class="st1" points="113.102,76.629 99.865,73.927 99.059,75.228 96.743,74.774 95.971,75.001 	"/>
	<line class="st1" x1="137.51" y1="81.612" x2="118.651" y2="77.762"/>
	<line class="st1" x1="143.599" y1="82.855" x2="140.45" y2="82.213"/>
	<line class="st1" x1="169.548" y1="88.153" x2="144.886" y2="83.118"/>
	<line class="st1" x1="196.058" y1="93.565" x2="171.508" y2="88.553"/>
	<line class="st1" x1="204.723" y1="95.334" x2="197.457" y2="93.851"/>
	<polyline class="st1" points="207.941,105.242 208.874,97.663 209.76,96.363 207.498,95.901 	"/>
	<polyline class="st1" points="93.833,78.88 93.193,79.839 80.429,114.345 80.448,116.717 80.48,118.695 80.338,119.283 
		77.153,128.074 76.958,123.082 	"/>
	<polyline class="st1" points="80.462,113.06 80.819,109.934 93.863,76.074 	"/>
	<path class="st1" d="M93.833,78.88"/>
	<path class="st1" d="M77.513,128.243"/>
	<line class="st1" x1="75.047" y1="129.828" x2="76.749" y2="130.12"/>
	<polyline class="st1" points="79.488,149.287 79.196,147.149 84,134.735 191.215,156.655 171.334,211.529 171.334,213.959 	"/>
	<path class="st1" d="M215.982,107.111l0.069-3.071c0,0-0.365-0.706-1.037-0.537l-0.227-9.387l-2.22,5.63l-0.051,1.108
		l-12.112,32.779c0,0-1.06,2.952-0.984,5.602c0.076,2.65,0.64,3.201,0.111,4.337c-0.53,1.136-3.448,8.337-3.448,8.337l-0.228-3.795
		c0,0-0.116-0.218-0.303-0.327c-0.264-0.155-0.668-0.092-1.08,1.115l-3.112,7.929"/>
	<polyline class="st1" points="215.844,104.295 213.701,109.84 213.649,107.911 214.356,106.033 214.373,105.292 215.097,103.465 	
		"/>
	<polyline class="st1" points="212.59,99.1 211.767,98.945 210.698,101.46 210.409,103.267 	"/>
	<line class="st1" x1="211.394" y1="103.596" x2="210.373" y2="103.34"/>
	<line class="st1" x1="173.259" y1="222.952" x2="215.923" y2="106.87"/>
	<polygon class="st1" points="172.105,217.698 172.773,215.317 172.773,214.272 169.891,213.646 165.755,222.126 165.379,229.102 
		168.846,229.896 170.016,227.682 170.183,223.087 171.52,219.619 	"/>
	<line class="st1" x1="166.419" y1="223.824" x2="168.615" y2="224.26"/>
	<line class="st1" x1="166.388" y1="224.588" x2="168.584" y2="225.024"/>
	<line class="st1" x1="166.357" y1="225.351" x2="168.553" y2="225.787"/>
	<line class="st1" x1="166.326" y1="226.114" x2="168.522" y2="226.55"/>
	<line class="st1" x1="166.295" y1="226.877" x2="168.491" y2="227.313"/>
	<line class="st1" x1="166.263" y1="227.641" x2="168.46" y2="228.077"/>
	<line class="st1" x1="166.232" y1="228.404" x2="168.429" y2="228.84"/>
	<path class="st1" d="M172.105,217.698c0,0,0.796-0.051,0.884,1.379s0.286,6.382,0.286,6.382l-2.223,5.854l-1.959-0.418
		l-0.022-1.276"/>
	<g>
		<g id="SPLINE_00000166649589365213189610000009356520820659864235_">
			<path class="st1" d="M154.947,169.416c-0.232,0.062-0.473,0.097-0.714,0.104c-0.241,0.007-0.484-0.013-0.719-0.061
				c-0.294-0.06-0.582-0.165-0.841-0.318c-0.121-0.072-0.236-0.154-0.342-0.247c-0.1-0.088-0.192-0.186-0.271-0.293
				c-0.076-0.102-0.14-0.212-0.19-0.329c-0.048-0.112-0.083-0.231-0.102-0.351c-0.019-0.119-0.022-0.241-0.009-0.361
				c0.013-0.122,0.041-0.241,0.083-0.356c0.044-0.119,0.103-0.232,0.173-0.338c0.074-0.111,0.16-0.213,0.256-0.306
				c0.101-0.098,0.211-0.186,0.329-0.263c0.123-0.081,0.254-0.151,0.389-0.21c0.284-0.124,0.588-0.2,0.898-0.231
				c0.314-0.031,0.633-0.016,0.941,0.047c0.208,0.043,0.413,0.107,0.607,0.196c0.183,0.083,0.356,0.188,0.512,0.315
				c0.145,0.118,0.275,0.255,0.379,0.41c0.098,0.145,0.173,0.305,0.217,0.474c0.043,0.163,0.056,0.335,0.039,0.503
				c-0.018,0.171-0.067,0.339-0.142,0.494c-0.079,0.165-0.187,0.315-0.312,0.448c-0.135,0.143-0.292,0.266-0.459,0.368
				c-0.044,0.027-0.088,0.052-0.134,0.076c-0.041,0.022-0.083,0.043-0.126,0.062c-0.13,0.06-0.265,0.11-0.403,0.15
				C154.986,169.406,154.967,169.411,154.947,169.416z"/>
		</g>
		<g id="SPLINE_00000136394596850340750290000000117965243930414267_">
			<path class="st1" d="M149.721,171.123c0.325-0.271,0.717-0.448,0.818-0.499c0.1-0.05,0.204-0.093,0.311-0.128
				c0.372-0.115,0.761-0.182,1.152-0.201c0.392-0.019,0.787,0.01,1.171,0.089c0.37,0.076,0.731,0.197,1.068,0.369
				c0.313,0.16,0.605,0.364,0.853,0.611c0.068,0.071,0.131,0.148,0.188,0.229c0.059,0.085,0.111,0.175,0.156,0.268
				c0.018,0.038,0.031,0.079,0.036,0.121c0.006,0.043,0.005,0.088,0.001,0.131v2.112"/>
		</g>
		<path class="st1" d="M154.899,164.226c0.025-0.059,0.047-0.119,0.067-0.18c0.024-0.072,0.045-0.145,0.064-0.219
			c0.041-0.158,0.06-0.228,0.099-0.391c0,0,0.2,0.043,0.237,0.051l3.178,0.65c0.089,0.018,0.176,0.045,0.26,0.081
			c0.079,0.034,0.156,0.076,0.225,0.127c0.066,0.047,0.126,0.102,0.177,0.165c0.048,0.059,0.127,0.189,0.127,0.189l-3.35,9.075
			c-0.039,0.106-0.108,0.201-0.19,0.28c-0.048,0.046-0.1,0.087-0.155,0.122c-0.06,0.039-0.123,0.072-0.188,0.1
			c-0.141,0.06-0.291,0.097-0.444,0.112c-0.156,0.015-0.315,0.007-0.467-0.024l-0.296-0.075l-4.666-1.143l0.001,0l-0.025-0.009
			l-0.038-0.035l-0.024-0.053l-0.015-0.077l-0.006-0.069l0,0l0.045-1.812"/>
		<g id="LINE_00000106837602081338163520000017296948775960650124_">
			<path class="st1" d="M158.42,167.021l-0.063-1.184c0,0-0.045-0.304-0.045-0.304l0,0.001l-0.008-0.037l-0.056-0.117l-0.098-0.097
				l-0.131-0.068l-0.084-0.024c0,0-5.726-1.171-5.726-1.171c-0.028-0.006-0.056,0.01-0.065,0.036l0,0l-2.59,6.981"/>
		</g>
	</g>
	<g>
		<g id="SPLINE_00000084488628877599611130000000714008362729558152_">
			<path class="st1" d="M81.356,154.628c-0.232,0.062-0.473,0.097-0.714,0.104c-0.241,0.007-0.484-0.013-0.719-0.061
				c-0.294-0.06-0.582-0.165-0.841-0.318c-0.121-0.072-0.236-0.154-0.342-0.247c-0.1-0.088-0.192-0.186-0.271-0.293
				c-0.076-0.102-0.14-0.212-0.19-0.329c-0.048-0.112-0.083-0.231-0.102-0.351c-0.019-0.119-0.022-0.241-0.009-0.361
				c0.013-0.122,0.041-0.241,0.083-0.356c0.044-0.119,0.103-0.232,0.173-0.338c0.074-0.111,0.16-0.213,0.256-0.306
				c0.101-0.098,0.211-0.186,0.329-0.263c0.123-0.081,0.254-0.151,0.389-0.21c0.284-0.124,0.588-0.2,0.898-0.231
				c0.314-0.031,0.633-0.016,0.941,0.047c0.208,0.043,0.413,0.107,0.607,0.196c0.183,0.083,0.356,0.188,0.512,0.315
				c0.145,0.118,0.275,0.255,0.379,0.41c0.098,0.145,0.173,0.305,0.217,0.474c0.043,0.163,0.056,0.335,0.039,0.503
				c-0.018,0.171-0.067,0.339-0.142,0.494c-0.079,0.165-0.187,0.315-0.312,0.448c-0.135,0.143-0.292,0.266-0.459,0.368
				c-0.044,0.027-0.088,0.052-0.134,0.076c-0.041,0.022-0.083,0.043-0.126,0.062c-0.13,0.06-0.265,0.11-0.403,0.15
				C81.395,154.617,81.375,154.623,81.356,154.628z"/>
		</g>
		<g id="SPLINE_00000106836396543227072530000002127444573203988898_">
			<path class="st1" d="M76.129,156.335c0.325-0.271,0.717-0.448,0.818-0.499c0.1-0.05,0.204-0.093,0.311-0.128
				c0.372-0.115,0.761-0.182,1.152-0.201c0.392-0.019,0.787,0.01,1.171,0.089c0.37,0.076,0.731,0.197,1.068,0.369
				c0.313,0.16,0.605,0.364,0.853,0.611c0.068,0.071,0.131,0.148,0.188,0.229c0.059,0.085,0.111,0.175,0.156,0.268
				c0.018,0.038,0.031,0.079,0.036,0.121c0.006,0.043,0.005,0.088,0.001,0.131v2.112"/>
		</g>
		<path class="st1" d="M81.308,149.438c0.025-0.059,0.047-0.119,0.067-0.18c0.024-0.072,0.045-0.145,0.064-0.219
			c0.041-0.158,0.06-0.228,0.099-0.391c0,0,0.2,0.043,0.237,0.051l3.178,0.65c0.089,0.018,0.176,0.045,0.26,0.081
			c0.079,0.034,0.156,0.076,0.225,0.127c0.066,0.047,0.126,0.102,0.177,0.165c0.048,0.059,0.127,0.189,0.127,0.189l-3.35,9.075
			c-0.039,0.106-0.108,0.201-0.19,0.28c-0.048,0.046-0.1,0.087-0.155,0.122c-0.06,0.039-0.123,0.072-0.188,0.1
			c-0.14,0.06-0.291,0.097-0.444,0.112c-0.156,0.015-0.315,0.007-0.467-0.024l-0.296-0.075l-4.666-1.143l0.001,0l-0.025-0.009
			l-0.038-0.035L75.9,158.26l-0.015-0.077l-0.005-0.069v0l0.045-1.812"/>
		<g id="LINE_00000150088402332993702460000016710744440380007815_">
			<path class="st1" d="M84.829,152.232l-0.063-1.184l-0.045-0.304l0,0.001l-0.008-0.037l-0.056-0.117l-0.098-0.097l-0.131-0.068
				l-0.084-0.024l-5.726-1.171c-0.028-0.006-0.056,0.01-0.065,0.036l0,0l-2.59,6.981l-11.228,30.386l-2.41-0.511
				c0,0-0.887-0.114-1.288,0.859"/>
		</g>
	</g>
	<path class="st1" d="M116.317,147.108l0.365,2.293l-0.142,0.638c0.284,1.064,1.511,0.114,1.511,0.114l-0.164-8.41l-0.806-0.169
		l-10.28,28.8c0,0-0.153,1.264-2.012,1.469c-2.072,0.228-3.402,0.818-3.402,0.818l-2.07,5.91l2.589,2.138
		c0,0,0.735,0.672,0.326,1.74c-0.425,1.113-5.051,13.487-5.051,13.487s-0.993,3.176-5.665,2.675"/>
	<polygon class="st1" points="92.822,138.409 104.421,140.812 99.98,152.778 88.537,150.322 	"/>
	<polyline class="st1" points="157.348,149.975 153.03,161.585 153.45,164.074 	"/>
	<polyline class="st1" points="134.486,201.267 138.403,202.043 149.959,169.943 	"/>
	<path class="st1" d="M135.211,201.447l-1.219,3.454c0,0-1.164,2.108,2.065,3.016"/>
	<polyline class="st1" points="169.397,214.635 100.46,200.525 53.213,190.854 	"/>
	<path class="st1" d="M52.696,189.642l-0.066-2.59l11.821-31.478l1.063-0.398l1.395-3.652l0.996,0.199l2.191-6.043l-1.992-0.398
		l7.882-21.727l0.698,0.161l0.204-0.487l0.958-2.286c0,0,0.886-0.994,0.929,0.951l0.089,1.399"/>
	<path class="st1" d="M65.41,155.526l-2.404,6.485l-0.056,4.976l6.933,1.454l0.224-0.503c0,0,1.156-0.093,1.707-0.699l-5.406-0.858
		l0.036-1.854l4.435,0.654"/>
	<line class="st1" x1="55.652" y1="185.441" x2="62.954" y2="165.404"/>
	<path class="st1" d="M61.107,186.675l-6.235-1.299c0,0-0.909,1.429,0.162,1.721c1.072,0.292,4.838,1.007,4.838,1.007
		S60.75,188.558,61.107,186.675z"/>
	<path class="st1" d="M53.39,189.921l-0.881,2.569l-0.073,2.569l-1.395,3.45l-0.037,4.734l-1.064,2.312l-3.707-0.734l0.697-7.193
		l2.312-4.477l1.692-3.821l7.584,1.631c0,0,0.973,0.401,1.316-0.658s1.202-3.32,1.202-3.32"/>
	<polyline class="st1" points="51.253,198.39 52.56,198.702 54.327,194.946 	"/>
	<polyline class="st1" points="52.498,195.34 52.56,206.95 50.537,206.608 50.475,204.554 	"/>
	<polyline class="st1" points="52.713,206.746 54.327,202.29 54.373,191.104 	"/>
	<polyline class="st1" points="54.535,194.574 95.755,203.154 96.884,203.82 97.013,211.71 	"/>
	<path class="st1" d="M60.123,189.479c0,0-0.441,2.325,2.365,3.247"/>
	<path class="st1" d="M99.382,200.305c0,0-3.081-0.998-2.163-3.445"/>
	<polyline class="st1" points="109.668,162.149 109.852,165.083 114.85,152.336 114.988,150.41 116.317,147.108 115.209,146.884 	
		"/>
	<line class="st1" x1="112.286" y1="155.028" x2="112.434" y2="158.289"/>
	<g id="SPLINE_00000135689268625351075460000007567284869151352231_">
		<path class="st1" d="M90.401,190.582c0.173-0.091,0.335-0.21,0.469-0.353c0.063-0.067,0.119-0.139,0.168-0.217
			c0.047-0.074,0.086-0.153,0.117-0.235l9.376-25.401c0.033-0.089,0.055-0.183,0.065-0.278c0.01-0.094,0.007-0.188-0.007-0.281
			c-0.015-0.094-0.042-0.187-0.079-0.274c-0.039-0.091-0.089-0.177-0.148-0.256c-0.062-0.084-0.134-0.16-0.212-0.229
			c-0.082-0.073-0.172-0.137-0.267-0.192c-0.202-0.119-0.427-0.201-0.656-0.248l-14.747-3.016c-0.24-0.049-0.489-0.061-0.734-0.037
			c-0.241,0.024-0.479,0.084-0.7,0.18c-0.106,0.046-0.207,0.101-0.304,0.164c-0.092,0.06-0.178,0.129-0.256,0.205
			c-0.074,0.073-0.142,0.152-0.199,0.239c-0.055,0.082-0.101,0.171-0.135,0.264l-9.376,25.401c-0.027,0.073-0.047,0.149-0.058,0.226
			c-0.011,0.076-0.015,0.153-0.011,0.229c0.005,0.077,0.017,0.153,0.038,0.227c0.021,0.076,0.049,0.149,0.085,0.219
			c0.075,0.148,0.179,0.28,0.301,0.393c0.133,0.123,0.287,0.222,0.449,0.299c0.039,0.018,0.079,0.036,0.119,0.052
			c0.123,0.049,0.252,0.087,0.382,0.114l14.747,3.016c0.267,0.055,0.544,0.063,0.816,0.027
			C89.907,190.784,90.167,190.706,90.401,190.582"/>
	</g>
	<g id="SPLINE_00000071529450039146648890000014729464777888435376_">
		<path class="st1" d="M164.025,205.597c0.173-0.091,0.335-0.21,0.469-0.353c0.063-0.067,0.119-0.139,0.168-0.217
			c0.047-0.074,0.086-0.153,0.117-0.235l9.376-25.401c0.033-0.089,0.055-0.183,0.065-0.278c0.01-0.094,0.007-0.188-0.007-0.281
			c-0.015-0.094-0.042-0.187-0.079-0.274c-0.039-0.091-0.089-0.177-0.148-0.256c-0.062-0.084-0.134-0.16-0.212-0.229
			c-0.082-0.073-0.172-0.137-0.267-0.192c-0.202-0.119-0.427-0.201-0.656-0.248l-14.747-3.016c-0.24-0.049-0.489-0.061-0.734-0.037
			c-0.241,0.024-0.479,0.084-0.7,0.18c-0.106,0.046-0.207,0.101-0.304,0.164c-0.092,0.06-0.178,0.129-0.256,0.205
			c-0.074,0.073-0.142,0.152-0.199,0.239c-0.055,0.082-0.101,0.171-0.135,0.263l-9.376,25.401c-0.027,0.073-0.047,0.149-0.058,0.226
			c-0.011,0.076-0.015,0.153-0.011,0.229c0.005,0.077,0.017,0.153,0.038,0.227c0.021,0.076,0.049,0.149,0.085,0.219
			c0.075,0.148,0.179,0.28,0.301,0.393c0.133,0.123,0.287,0.222,0.449,0.299c0.039,0.018,0.079,0.036,0.119,0.052
			c0.123,0.049,0.252,0.087,0.382,0.114l14.747,3.016c0.267,0.055,0.544,0.064,0.816,0.027
			C163.531,205.799,163.791,205.72,164.025,205.597"/>
	</g>
	<path class="st1" d="M190.789,157.089l-3.192-0.658c0,0-0.721-0.219-1.159,0.94s-1.015,2.838-1.015,2.838s-0.533,1.065,0.345,2.225
		c0,0,0.971,1.003,0.564,2.131c-0.407,1.128-0.627,1.379-0.627,1.379s-0.313,0.815,1.065,1.128l-6.611,18.236
		c0,0-0.282,0.846-1.943,1.097s-2.413,0.501-2.413,0.501s-0.595,0-1.159,1.253c-0.564,1.253-1.598,4.167-1.598,4.167
		s-0.564,0.94,0.313,1.661c0.877,0.721,2.099,1.535,2.099,1.535s0.815,0.533,0.219,1.849c-0.595,1.316-1.911,4.857-1.911,4.857
		s-1.039-0.279-1.48,0.294c-0.441,0.573-0.617,1.763-0.617,1.763s-0.265,0.838,0.97,1.234l-2.601,6.304c0,0-1.328,2.682-4.414,2.021
		"/>
	<line class="st1" x1="166.968" y1="214.164" x2="167.185" y2="219.055"/>
	<path class="st1" d="M138.14,208.277l0.087,3.852c0,0,0.173,1.299,1.515,1.688"/>
	<path class="st1" d="M138.737,208.334l0.143,3.848c0,0,1.14,0.057,0.998,0.57c-0.143,0.513-0.314,0.998-0.314,0.998l-0.029,1.226
		l25.884,5.302l0.2-1.34c0,0,0.029-1.34,1.397-1.112"/>
	<path class="st1" d="M102.025,200.957l0.103,3.776c0,0,1.098,0.069,0.995,0.652c-0.103,0.584-0.309,0.892-0.309,0.892l0.034,1.167
		l25.847,5.286l0.103-1.304c0,0,0-1.407,1.545-1.064"/>
	<path class="st1" d="M101.27,200.854v3.741c0,0-0.24,1.064,1.545,1.682l25.984,5.149c2.094,0.755,1.476-1.854,1.476-1.854
		l-0.103-2.918"/>
	<path class="st1" d="M54.135,202.87c0,0-0.58,1.625,1.48,2.031s8.53,1.712,8.53,1.712s0.928,0.609,1.596-1.625l-0.087-8.036"/>
	<polyline class="st1" points="65.605,197.764 72.471,199.191 72.527,204.844 	"/>
	<line class="st1" x1="65.914" y1="205.004" x2="70.822" y2="206.017"/>
	<line class="st1" x1="65.862" y1="204.18" x2="71.17" y2="205.262"/>
	<polyline class="st1" points="72.518,204.824 73.675,205.069 73.901,202.814 74.108,202.015 74.468,202.093 74.546,204.927 
		74.233,205.544 74.285,206.731 73.946,207.695 72.642,207.408 	"/>
	<path class="st1" d="M72.579,207.929l-0.08-3.126l-1.03-0.207l-1.598,4.09l0.139,2.967c0,0,0.697,0.657,1.055,0.1L72.579,207.929z"
		/>
	<path class="st1" d="M71.469,204.596l-0.137-3.854c0,0-0.068-0.707-0.775-0.798c-0.707-0.091-2.304-0.479-2.304-0.479l-1.551,0.798
		l0.068,2.668l1.414,1.574"/>
	<polyline class="st1" points="86.104,207.919 85.523,208.723 85.439,210.053 76.517,208.197 76.545,206.673 76.905,205.924 	"/>
	<path class="st1" d="M75.824,199.136l0.194,6.65l-0.471,0.72l-0.055,1.635c0,0,0.194,0.942,1.136,1.108s8.978,1.773,8.978,1.773
		s1.053,0.111,1.469-1.635l-0.083-6.484l1.053-1.385"/>
	<line class="st1" x1="76.683" y1="207.227" x2="85.412" y2="208.945"/>
	<line class="st1" x1="74.285" y1="206.731" x2="75.417" y2="206.952"/>
	<polyline class="st1" points="87.424,202.275 93.784,203.534 93.824,208.894 95.044,209.062 95.303,206.778 95.739,206.302 
		95.779,209.241 95.561,209.955 95.57,211.365 165.406,225.851 	"/>
	<line class="st1" x1="87.069" y1="208.506" x2="92.471" y2="209.589"/>
	<line class="st1" x1="87.079" y1="209.362" x2="92.17" y2="210.381"/>
	<path class="st1" d="M89.945,208.91l-1.885-1.621l-0.057-2.677l1.508-0.792c0,0,1.49,0.377,2.244,0.434s0.886,0.716,0.886,0.716
		l0.113,3.978l-1.602,4.106l0.139,3.058c0.894,0.516,1.112,0,1.112,0l1.509-3.912l-0.118-3.276c0,0-0.22-0.02-0.895-0.1"/>
	<polyline class="st1" points="93.873,211.782 95.164,212.04 95.521,211.127 	"/>
	<g>
		<polygon class="st1" points="112.396,211.817 120.288,213.512 120.38,215.652 112.488,213.956 		"/>
		<line class="st1" x1="116.328" y1="212.86" x2="116.389" y2="214.664"/>
	</g>
	<g>
		<polygon class="st1" points="121.683,213.804 132.152,216.008 132.243,218.086 121.774,215.883 		"/>
		<line class="st1" x1="127.013" y1="215.033" x2="127.074" y2="216.785"/>
	</g>
	<polygon class="st1" points="133.922,213.391 137.418,214.09 137.514,216.092 133.922,215.393 	"/>
	<polygon class="st1" points="133.922,216.197 137.418,216.896 137.514,218.898 133.922,218.199 	"/>
	<line class="st1" x1="188.202" y1="159.605" x2="189.956" y2="159.973"/>
	<g id="SPLINE_00000039856657052725330450000012417618900523967394_">
		<path class="st1" d="M186.44,162.261l-0.404-0.946c-0.013-0.03-0.02-0.063-0.021-0.096c-0.001-0.033,0.005-0.066,0.016-0.097
			l0.794-2.152c0.016-0.044,0.044-0.083,0.077-0.116c0.037-0.037,0.082-0.065,0.129-0.085c0.051-0.022,0.106-0.036,0.162-0.042
			c0.057-0.006,0.114-0.003,0.17,0.008l0.553,0.113c0.041,0.008,0.081,0.022,0.119,0.04c0.035,0.017,0.069,0.039,0.098,0.065
			c0.027,0.024,0.05,0.053,0.068,0.085c0.016,0.03,0.027,0.063,0.031,0.096c0.004,0.03,0.002,0.061-0.005,0.091
			c-0.002,0.01-0.005,0.02-0.009,0.03l-0.292,0.791c-0.002,0.006-0.003,0.013-0.002,0.02c0.001,0.007,0.004,0.013,0.008,0.019
			c0.009,0.013,0.025,0.02,0.04,0.023l0.055,0.011c0.044,0.009,0.088,0.025,0.127,0.048c0.036,0.021,0.068,0.048,0.092,0.081
			c0.022,0.03,0.038,0.065,0.044,0.102c0.006,0.036,0.001,0.074-0.011,0.108l-0.682,1.847c-0.016,0.044-0.044,0.083-0.077,0.116
			c-0.037,0.037-0.082,0.065-0.129,0.085c-0.051,0.022-0.106,0.036-0.162,0.042c-0.057,0.006-0.114,0.003-0.17-0.008l-0.322-0.066
			c-0.065-0.013-0.129-0.039-0.184-0.078C186.504,162.361,186.463,162.315,186.44,162.261"/>
	</g>
	<ellipse class="st1" cx="188.133" cy="157.736" rx="0.84" ry="0.504"/>
	<path class="st1" d="M63.086,161.851l3.01,0.719l3.545,0.498l0.002,0.93c0.477,0.079,1.51,1.152,1.51,1.152l0.926-2.222"/>
	<path class="st1" d="M69.842,162.725l4.212-10.531c0,0-0.556-2.623,1.868-4.53l-0.079-0.795l2.861-7.272l-5.444-1.152l1.391-3.537
		l1.113,0.199l0.358-0.119l3.656,0.755l-1.351,3.576"/>
	<polyline class="st1" points="70.588,138.442 71.497,138.624 71.97,137.897 73.933,132.698 80.331,133.698 81.785,134.171 
		81.894,135.443 81.385,135.225 79.776,135.742 	"/>
	<path class="st1" d="M78.513,139.842c0,0,2.29,0.727,2.218,3.272"/>
	<path class="st1" d="M79.64,136.061c0,0,2.363,1.091,2.545,3.345"/>
	<polyline class="st1" points="80.331,141.587 77.786,148.785 77.314,148.64 74.551,156.383 74.587,157.401 72.261,163.327 	"/>
	<path class="st1" d="M70.225,161.509c0,0,2.363,0.909,2.363,3.381"/>
	<polyline class="st1" points="68.103,145.281 68.202,146.876 66.665,151.095 66.907,151.524 	"/>
	<polyline class="st1" points="64.45,155.574 65.881,151.969 66.634,152.03 	"/>
	<polyline class="st1" points="76.93,131.387 74.77,131.012 74.806,129.863 75.485,127.826 77.681,128.206 	"/>
	<path class="st1" d="M82.857,132.656l-0.001,0.145l0.192,1.655c0,0-0.114,0.739-1.108,0.71l0.057-0.426l0.811-1.962"/>
	<polyline class="st1" points="80.598,135.56 81.17,136.195 82.177,136.447 82.186,137.094 81.815,137.934 	"/>
	<line class="st1" x1="47.535" y1="199.478" x2="49.522" y2="199.884"/>
	<line class="st1" x1="47.535" y1="200.278" x2="49.522" y2="200.684"/>
	<line class="st1" x1="47.476" y1="201.019" x2="49.464" y2="201.426"/>
	<line class="st1" x1="47.418" y1="201.761" x2="49.405" y2="202.167"/>
	<line class="st1" x1="47.34" y1="202.522" x2="49.327" y2="202.928"/>
	<line class="st1" x1="47.262" y1="203.244" x2="49.249" y2="203.65"/>
	<line class="st1" x1="47.203" y1="203.966" x2="49.19" y2="204.372"/>
	<path class="st1" d="M62.757,197.49c-3.205-2.08-5.851-0.754-5.851-0.754l1.88,1.159c0,0,2.402-0.448,3.377,1.414l0.834-1.132
		L62.757,197.49z"/>
	<path class="st1" d="M56.316,200.881l-0.661-0.504c-0.464-2.46,0.856-3.051,0.856-3.051l1.501,0.898c0,0-1.455,0.276-1.137,1.631
		C56.875,199.855,56.296,200.305,56.316,200.881z"/>
	<polyline class="st1" points="55.343,201.217 55.266,202.493 55.208,203.914 64.173,205.771 64.202,203.18 64.833,202.374 	"/>
	<path class="st1" d="M62.706,202.845c0,0-2.459,0.952-5.662-1.06c0,0-0.3-0.486,0.343-1.341c0,0,1.2,1.347,3.129,1.371
		C60.515,201.815,61.022,202.519,62.706,202.845z"/>
	<line class="st1" x1="55.268" y1="202.716" x2="63.987" y2="204.569"/>
	<path class="st1" d="M61.529,201.591c0,0,1.14-0.136,1.08-1.596l0.658-0.764l0.338-0.533c0,0,0.871,1.91-0.232,3.504
		C63.373,202.203,61.956,202.067,61.529,201.591z"/>
	<g>
		<path class="st1" d="M84.314,202.139c-3.072-1.994-5.608-0.722-5.608-0.722l1.802,1.111c0,0,2.303-0.429,3.237,1.356l0.8-1.086
			L84.314,202.139z"/>
		<path class="st1" d="M78.14,205.389l-0.633-0.483c-0.445-2.358,0.82-2.925,0.82-2.925l1.439,0.861c0,0-1.395,0.265-1.09,1.563
			C78.675,204.405,78.121,204.837,78.14,205.389z"/>
		<path class="st1" d="M84.265,207.272c0,0-2.357,0.912-5.428-1.016c0,0-0.288-0.466,0.329-1.286c0,0,1.15,1.291,3,1.314
			C82.165,206.285,82.651,206.959,84.265,207.272z"/>
		<path class="st1" d="M83.136,206.07c0,0,1.092-0.13,1.035-1.53l0.631-0.733l0.324-0.511c0,0,0.835,1.831-0.222,3.359
			C84.904,206.656,83.546,206.526,83.136,206.07z"/>
	</g>
	<path class="st1" d="M64.577,193.198c0,0-0.274,1.503,1.248,1.741"/>
	<path class="st1" d="M93.419,199.098c0,0,0.402,1.566-1.365,1.265"/>
	<polyline class="st1" points="92.395,198.817 91.893,200.182 91.873,201.528 65.791,196.127 65.831,194.962 66.43,193.592 	"/>
	<polygon class="st1" points="142.391,216.99 144.007,217.336 144.076,219.806 142.43,219.451 	"/>
	<g>
		<polygon class="st1" points="148.132,219.586 152.031,220.389 155.973,221.201 155.973,222.972 148.132,221.357 		"/>
		<line class="st1" x1="152.066" y1="222.113" x2="152.031" y2="220.389"/>
	</g>
	<g>
		<polygon class="st1" points="157.051,221.404 160.95,222.207 164.892,223.019 164.892,224.79 157.051,223.175 		"/>
		<line class="st1" x1="160.985" y1="223.93" x2="160.95" y2="222.207"/>
	</g>
	<g id="SPLINE_00000162328647985575507090000018112420147184351896_">
		<path class="st1" d="M139.013,218.504c0.001-0.01,0.003-0.021,0.007-0.031c0.003-0.008,0.007-0.017,0.012-0.024
			c0.011-0.016,0.025-0.029,0.042-0.039c0.044-0.027,0.099-0.035,0.151-0.032c0.02,0.001,0.04,0.004,0.06,0.008l1.802,0.369
			c0.054,0.011,0.107,0.032,0.154,0.063c0.042,0.027,0.08,0.061,0.104,0.104c0.013,0.023,0.022,0.049,0.023,0.076l0.004,0.168
			l-0.006,0.034c-0.007,0.018-0.02,0.034-0.036,0.046c-0.006,0.004-0.012,0.008-0.019,0.011l-0.207,0.102
			c-0.027,0.013-0.057,0.019-0.087,0.019c-0.011,0-0.022,0-0.034-0.001c-0.012-0.001-0.025-0.003-0.037-0.005l-1.492-0.305
			c-0.012-0.003-0.025-0.006-0.037-0.01c-0.03-0.01-0.06-0.023-0.086-0.041c-0.013-0.008-0.025-0.017-0.036-0.027l-0.213-0.188
			c-0.013-0.011-0.025-0.024-0.035-0.038c-0.009-0.012-0.017-0.026-0.022-0.04c-0.005-0.013-0.008-0.026-0.008-0.039l-0.004-0.168
			L139.013,218.504z"/>
	</g>
	<polyline class="st1" points="208.032,103.488 206.919,103.873 100.336,82.153 	"/>
	<polyline class="st1" points="116.824,78.014 113.96,78.701 113.96,79.503 110.866,82.483 111.038,79.56 114.189,75.493 
		117.168,74.576 	"/>
	<path class="st1" d="M141.636,72.877l-1.549,11.791l-3.25,4.081c0,0-0.794,0.529-0.68-0.68s0.491-3.779,0.491-3.779l4.497-11.413
		H141.636z"/>
	<path class="st1" d="M120.305,65.763l-0.815,1.086l-2.127,6.924l-0.679,5.249c0,0,0.226,0.679,0.86-0.045
		c0.634-0.724,4.525-5.657,4.525-5.657l8.221-64.189l-0.532-0.887l-2.041,2.751l-0.266,3.372l-3.017,4.792l-1.154,10.916l1.952-2.13
		l-2.683,20.533h0.74l-0.543,4.439l-0.888,0.444L120.305,65.763z"/>
	<polygon class="st1" points="143.986,83.878 146.986,80.437 147.339,76.995 146.545,75.583 144.427,72.936 144.074,70.73 
		145.133,63.14 145.486,54.492 142.309,75.142 143.898,80.437 	"/>
	<polygon class="st1" points="170.056,84.11 169.422,90.693 174.577,84.666 182.905,20.979 179.812,30.814 179.018,38.031 
		178.463,38.903 177.67,44.693 177.142,45.471 175.132,63.49 174.498,64.204 172.912,76.814 172.356,77.607 	"/>
	<polyline class="st1" points="169.233,89.871 168.301,91.336 168.123,94.353 171.318,91.114 171.508,88.553 	"/>
	<polyline class="st1" points="197.311,78.54 196.781,81.919 197.245,83.973 198.769,85.63 	"/>
	<polyline class="st1" points="199.697,79.003 198.305,91.063 199.527,89.59 200.889,87.949 201.022,86.557 200.492,85.099 
		200.823,84.437 200.104,82.042 200.436,79.126 	"/>
	<polyline class="st1" points="199.511,91.041 196.343,94.72 196.496,91.347 194.861,85.931 195.627,81.639 195.934,80.923 
		200.839,43.57 198.898,45.717 199.562,39.227 200.941,37.336 202.066,28.088 204.876,24.409 130.291,9.132 	"/>
	<path class="st1" d="M222.153,27.925l-16.235-3.338l-0.051,0.961l-3.035,9.458l-0.708,7.182l-0.556,2.175l12.846,2.681
		c0,0,2.377-1.315,0-4.248l-9.963-2.023l0.506-0.759l1.72-12.644l1.696-2.136"/>
	<line class="st1" x1="220.425" y1="49.834" x2="214.788" y2="94.116"/>
	<path class="st1" d="M214.788,94.116"/>
	<polyline class="st1" points="211.777,102.602 209.717,95.418 212.446,73.122 213.045,72.324 214.775,59.745 214.309,59.412 
		217.214,37.724 217.733,37.751 219.86,31.559 223.352,26.84 221.986,37.573 219.555,40.669 218.047,52.351 220.986,48.251 
		222.147,37.922 	"/>
	<polyline class="st1" points="216.679,26.958 214.895,29.272 213.375,42.292 	"/>
	<polyline class="st1" points="217.437,27.205 217.344,28.236 214.719,37.187 215.563,37.32 214.953,39.296 214.415,42.795 	"/>
	<line class="st1" x1="200.267" y1="49.737" x2="215.113" y2="52.947"/>
	<line class="st1" x1="198.983" y1="60.41" x2="214.07" y2="63.46"/>
	<polyline class="st1" points="211.3,81.287 208.177,80.643 196.374,78.21 	"/>
	<polyline class="st1" points="208.177,80.643 206.726,92.638 209.263,90.101 209.429,88.646 208.39,84.364 208.764,80.829 	"/>
	<polyline class="st1" points="201.197,87.025 207.059,88.272 203.608,99.124 203.317,102.533 207.225,98.043 208.14,91.265 	"/>
	<line class="st1" x1="174.687" y1="84.209" x2="195.511" y2="88.431"/>
	<line class="st1" x1="175.689" y1="76.838" x2="195.934" y2="80.923"/>
	<line class="st1" x1="176.548" y1="69.324" x2="196.656" y2="73.618"/>
	<line class="st1" x1="177.764" y1="61.023" x2="197.945" y2="65.317"/>
	<line class="st1" x1="178.838" y1="52.722" x2="199.018" y2="57.015"/>
	<line class="st1" x1="179.84" y1="44.063" x2="200.234" y2="48.5"/>
	<line class="st1" x1="181.056" y1="35.404" x2="199.562" y2="39.227"/>
	<polyline class="st1" points="162.308,15.751 160.484,18.183 158.862,31.626 174.805,35.071 176.021,34.328 176.696,29.194 
		179.466,20.277 179.534,19.331 	"/>
	<line class="st1" x1="182.905" y1="20.979" x2="179.466" y2="20.277"/>
	<polyline class="st1" points="161.294,16.696 152.58,14.873 149.743,24.397 148.756,32.296 145.622,57.363 	"/>
	<line class="st1" x1="178.453" y1="38.313" x2="148.756" y2="32.296"/>
	<line class="st1" x1="147.919" y1="38.989" x2="177.102" y2="45.001"/>
	<line class="st1" x1="175.953" y1="55.674" x2="146.5" y2="49.595"/>
	<line class="st1" x1="145.133" y1="63.14" x2="173.498" y2="69.214"/>
	<line class="st1" x1="128.417" y1="24.934" x2="148.854" y2="29.142"/>
	<line class="st1" x1="127.415" y1="33.449" x2="147.752" y2="37.757"/>
	<line class="st1" x1="126.212" y1="41.865" x2="146.85" y2="46.273"/>
	<line class="st1" x1="124.71" y1="50.28" x2="145.486" y2="54.492"/>
	<line class="st1" x1="124.101" y1="58.738" x2="144.071" y2="62.873"/>
	<line class="st1" x1="123.122" y1="65.811" x2="143.037" y2="70.11"/>
	<line class="st1" x1="141.07" y1="77.655" x2="142.82" y2="78.054"/>
	<line class="st1" x1="122.07" y1="73.32" x2="139.257" y2="77.242"/>
	<line class="st1" x1="144.452" y1="71.307" x2="153.213" y2="73.103"/>
	<line class="st1" x1="154.897" y1="77.468" x2="169.21" y2="80.394"/>
	<line class="st1" x1="147.118" y1="75.878" x2="152.67" y2="77.013"/>
	<polyline class="st1" points="171.142,80.136 170.482,76.675 170.922,71.732 170.153,72.556 168.725,84.86 169.988,83.651 	"/>
	<polyline class="st1" points="153.619,69.59 152.191,81.29 154.773,78.653 154.388,75.961 154.828,75.412 153.894,72.281 
		154.223,69.425 153.29,69.095 153.949,68.326 157.08,68.985 157.519,68.436 159.716,68.93 159.716,69.535 165.209,70.633 
		165.539,70.139 167.736,70.578 167.626,71.237 170.428,71.842 	"/>
	<line class="st1" x1="120.245" y1="62.721" x2="106.873" y2="59.842"/>
	<line class="st1" x1="122.567" y1="44.984" x2="99.351" y2="40.248"/>
	<line class="st1" x1="124.146" y1="34.305" x2="100.837" y2="29.569"/>
	<line class="st1" x1="123.774" y1="24.555" x2="101.766" y2="20.283"/>
	<polyline class="st1" points="103.159,13.69 102.323,16.568 97.68,53.992 	"/>
	<path class="st1" d="M106.647,62.522l0.942-5.654c0,0,1.068-0.942-1.194-1.382c-2.262-0.44-8.105-1.508-8.105-1.508
		s-1.445-0.126-1.571,1.257c-0.126,1.382-0.434,3.773-0.434,3.773l0.129,0.027l9.715,2.016l0.65,1.95l13.525,2.763"/>
	<polyline class="st1" points="96.416,59.033 98.165,66.04 97.223,71.757 95.904,74.71 95.213,79.359 94.459,79.297 	"/>
	<path class="st1" d="M79.27,133.547l13.2-36.122l1.061,0.088l3.803-10.436l-0.973-0.442l0.884-2.476l2.476,0.442
		c0,0,0.177-2.034,0.884-2.83l-1.519-0.344l-1.299,1.263l-3.141-0.565l-0.503-0.754l0.377-3.016l-1.948-7.288l7.162-53.528
		l4.021-5.529l2.262,0.377l1.131-1.319l5.026,1.068"/>
	<path class="st1" d="M115.964,4.742l0.085,2.394l-2.735,9.061l-0.94,1.111c0,0-0.769-0.085-0.513-1.881s0.855-6.497,0.855-6.497
		L115.964,4.742z"/>
	<line class="st1" x1="221.473" y1="26.51" x2="222.88" y2="26.805"/>
	<line class="st1" x1="195.775" y1="21.211" x2="218.623" y2="25.927"/>
	<line class="st1" x1="184.757" y1="18.951" x2="191.438" y2="20.316"/>
	<line class="st1" x1="159.021" y1="13.625" x2="181.64" y2="18.294"/>
	<line class="st1" x1="115.973" y1="4.741" x2="154.627" y2="12.718"/>
	<polyline class="st1" points="103.757,12.01 103.982,9.815 104.755,9.454 105.116,7.083 105.735,6.773 107.024,6.979 
		107.333,9.299 107.15,11.067 	"/>
	<polygon class="st1" points="144.089,10.279 145.171,9.454 146.615,9.763 147.44,10.846 147.233,11.825 143.986,11.103 	"/>
	<polygon class="st1" points="155.585,11.619 158.626,12.289 158.987,13.475 158.523,14.145 154.76,13.372 154.76,12.805 	"/>
	<polygon class="st1" points="181.894,18.084 182.994,17.305 184.002,17.442 184.69,18.359 184.535,19.369 181.825,18.817 	"/>
	<polygon class="st1" points="191.578,20.328 192.479,19.211 195.327,19.823 195.723,20.869 195.399,21.806 191.686,21.049 	"/>
	<polygon class="st1" points="218.661,26.404 218.816,25.528 219.846,24.807 220.876,24.987 221.52,25.94 221.314,26.97 	"/>
	<line class="st1" x1="98.165" y1="66.04" x2="118.382" y2="70.057"/>
	<path class="st1" d="M97.699,70.158l2.129,0.406c0,0,0.912,0,0.71,1.115c-0.203,1.115-1.45,9.747-1.45,9.747"/>
	<polyline class="st1" points="87.988,118.715 86.462,118.454 80.775,133.859 	"/>
	<polyline class="st1" points="86.836,135.237 92.694,119.521 90.444,119.135 	"/>
	<path class="st1" d="M88.202,116.601"/>
	<polyline class="st1" points="101.734,82.713 100.714,85.617 100.727,88.843 109.793,90.621 111.165,86.424 111.413,84.445 	"/>
	<polyline class="st1" points="101.037,85.617 109.592,87.433 110.762,84.366 	"/>
	<line class="st1" x1="109.793" y1="90.621" x2="109.592" y2="87.433"/>
	<line class="st1" x1="190.783" y1="101.88" x2="210.476" y2="105.955"/>
	<line class="st1" x1="132.907" y1="90.115" x2="156.927" y2="94.989"/>
	<path class="st1" d="M111.327,86.707c0,0,0.847,0.565,1.009-0.767l10.876,2.207"/>
	<polyline class="st1" points="181.542,98.732 180.816,100.306 180.775,103.226 189.29,105.027 	"/>
	<polyline class="st1" points="189.895,100.346 189.129,102.081 189.29,105.027 191.106,100.629 	"/>
	<line class="st1" x1="180.816" y1="100.306" x2="189.129" y2="102.081"/>
	<polyline class="st1" points="157.441,93.816 156.3,97.018 159.134,97.57 160.348,94.442 	"/>
	<polyline class="st1" points="156.305,97.048 156.3,99.995 159.134,100.547 159.136,97.567 	"/>
	<line class="st1" x1="161.107" y1="95.838" x2="180.937" y2="99.862"/>
	<line class="st1" x1="159.165" y1="100.528" x2="161.331" y2="94.78"/>
	<polyline class="st1" points="123.647,86.916 123.113,88.383 122.974,88.766 122.906,92.434 131.285,94.116 133.371,88.867 	"/>
	<polyline class="st1" points="131.992,88.598 131.319,90.213 123.243,88.531 	"/>
	<line class="st1" x1="131.42" y1="93.645" x2="131.319" y2="90.213"/>
	<polyline class="st1" points="186.019,149.412 185.315,150.869 185.265,151.724 184.762,153.332 185.667,153.533 185.533,154.157 	
		"/>
	<polyline class="st1" points="188.34,154.77 188.183,154.035 187.448,153.824 187.973,152.302 187.92,151.356 188.656,150.254 
		188.503,146.822 198.7,120.256 199.083,120.117 199.497,119.758 201.576,120.185 201.633,121.318 	"/>
	<polyline class="st1" points="204.912,120.871 202.647,120.405 201.941,121.058 200.996,121.793 200.891,122.791 200.996,125.836 
		192.016,150.726 191.229,150.464 190.493,151.882 190.546,152.722 189.968,154.35 190.861,154.56 191.018,155.347 	"/>
	<polyline class="st1" points="185.533,154.157 187.539,154.589 187.766,154.039 	"/>
	<polyline class="st1" points="188.444,154.801 190.274,155.183 190.448,154.541 	"/>
	<line class="st1" x1="191.754" y1="155.505" x2="191.096" y2="155.362"/>
	<polyline class="st1" points="194.382,118.772 194.132,119.081 193.376,119.488 183.434,146.649 183.426,149.208 182.731,150.389 
		182.777,151.27 182.221,152.846 183.055,153.078 183.054,153.683 184.851,154.044 185.095,153.423 	"/>
	<polyline class="st1" points="193.459,118.517 192.055,118.228 191.395,118.861 190.742,121.323 190.993,123.986 181.697,148.709 
		180.843,148.457 180.14,149.864 180.19,150.618 179.637,152.327 180.542,152.528 180.542,153.08 182.244,153.495 182.528,152.937 	
		"/>
	<polyline class="st1" points="196.521,120.588 196.369,119.115 194.252,118.68 	"/>
	<polyline class="st1" points="102.505,99.822 167.44,113.169 167.373,114.455 166.609,114.663 166.54,115.635 166.748,117.926 	"/>
	<polyline class="st1" points="199.051,119.612 197.373,119.288 197.076,119.829 196.697,120.208 196.048,122.128 195.858,124.509 
		186.336,149.209 	"/>
	<path class="st1" d="M195.552,147.786l0.91-2.329c0,0,0.645-1.176,0.835,0.228c0.19,1.404,0.228,2.58,0.228,2.58"/>
	<line class="st1" x1="197.323" y1="146.209" x2="199.431" y2="140.872"/>
	<polygon class="st1" points="164.196,117.455 168.1,118.283 169.284,115.148 182.712,117.928 181.647,121.005 185.493,121.833 
		183.067,128.636 179.163,127.689 178.039,130.765 182.002,131.594 179.518,138.338 175.436,137.45 174.253,140.704 
		160.883,137.923 162.066,134.788 157.984,134.019 160.706,127.216 164.492,127.985 165.616,124.968 161.593,124.14 	"/>
	<line class="st1" x1="182.712" y1="117.928" x2="182.855" y2="121.189"/>
	<line class="st1" x1="185.493" y1="121.833" x2="185.771" y2="131.742"/>
	<polyline class="st1" points="183.067,128.636 183.341,137.852 182.23,137.644 	"/>
	<line class="st1" x1="182.002" y1="131.594" x2="182.23" y2="141.045"/>
	<polyline class="st1" points="175.436,137.45 175.843,147.016 179.731,147.78 179.518,138.338 	"/>
	<polyline class="st1" points="174.253,140.704 174.594,150.14 175.843,147.016 	"/>
	<polyline class="st1" points="160.883,137.923 161.125,147.433 157.098,146.53 158.278,143.337 157.984,134.019 	"/>
	<line class="st1" x1="161.009" y1="143.897" x2="158.278" y2="143.337"/>
	<polyline class="st1" points="174.594,150.14 178.547,150.886 179.731,147.78 	"/>
	<polyline class="st1" points="185.777,128.374 186.553,128.529 186.811,129.408 178.638,151.912 157.137,147.436 157.098,146.53 	
		"/>
	<line class="st1" x1="200.996" y1="125.836" x2="203.026" y2="126.206"/>
	<polyline class="st1" points="129.616,142.835 127.922,142.467 127.775,141.73 126.928,141.546 127.591,139.889 127.517,139.005 
		128.217,137.642 129.101,137.826 138.419,112.67 138.345,110.276 139.008,108.251 139.671,107.551 	"/>
	<polyline class="st1" points="134.694,143.851 132.999,143.482 132.852,142.746 132.005,142.561 132.668,140.904 132.594,140.02 
		133.294,138.657 134.178,138.841 143.496,113.686 143.423,111.292 144.086,109.266 144.749,108.566 	"/>
	<polyline class="st1" points="140.08,144.874 138.386,144.506 138.238,143.769 137.391,143.585 138.054,141.928 137.98,141.044 
		138.68,139.681 139.564,139.865 148.486,114.71 148.412,112.316 149.075,110.29 149.738,109.59 	"/>
	<polyline class="st1" points="137.425,144.456 135.73,144.087 135.583,143.351 134.736,143.167 135.295,141.718 135.21,140.699 
		135.931,139.681 136.1,136.383 146.197,108.85 	"/>
	<polyline class="st1" points="142.641,145.434 140.947,145.065 140.8,144.329 139.953,144.145 140.511,142.696 140.427,141.678 
		141.148,140.659 141.317,137.361 151.337,109.961 	"/>
	<polyline class="st1" points="145.297,145.983 143.602,145.615 143.455,144.878 142.608,144.694 143.271,143.036 143.197,142.152 
		143.897,140.79 144.781,140.974 153.703,115.818 153.629,113.424 154.292,111.398 154.955,110.699 	"/>
	<polyline class="st1" points="147.858,146.542 146.164,146.174 146.016,145.437 145.169,145.253 145.728,143.804 145.643,142.786 
		146.364,141.768 146.533,138.469 156.63,110.936 	"/>
	<polyline class="st1" points="150.318,147.157 148.623,146.788 148.476,146.052 147.629,145.868 148.292,144.21 148.218,143.326 
		148.918,141.963 149.802,142.148 158.724,116.992 158.65,114.598 159.313,112.572 159.976,111.872 	"/>
	<polyline class="st1" points="157.837,135.309 155.019,143.256 154.135,143.072 153.435,144.435 153.508,145.319 152.846,146.976 
		153.693,147.16 153.84,147.897 155.534,148.265 158.215,141.327 	"/>
	<line class="st1" x1="161.822" y1="124.073" x2="160.519" y2="127.748"/>
	<polyline class="st1" points="165.192,112.981 164.53,113.681 163.867,115.706 163.94,118.1 	"/>
	<polyline class="st1" points="152.879,147.716 151.185,147.348 151.037,146.611 150.19,146.427 150.749,144.978 150.664,143.96 
		151.385,142.942 151.554,139.643 161.651,112.11 	"/>
	<polyline class="st1" points="141.13,108.036 130.928,135.991 130.758,138.526 130.132,139.778 130.169,140.588 129.543,142.062 
		130.39,142.246 130.537,142.982 132.231,143.351 	"/>
	<polyline class="st1" points="92.642,135.312 90.948,134.943 90.8,134.207 89.953,134.023 90.616,132.365 90.543,131.481 
		91.242,130.118 92.126,130.303 101.445,105.147 101.371,102.753 102.034,100.727 102.697,100.027 	"/>
	<polyline class="st1" points="104.156,100.513 93.953,128.467 93.784,131.002 93.158,132.255 93.194,133.065 92.568,134.538 
		93.415,134.722 93.563,135.459 95.257,135.827 	"/>
	<polyline class="st1" points="97.79,136.513 96.096,136.145 95.949,135.408 95.101,135.224 95.764,133.566 95.691,132.682 
		96.391,131.32 97.274,131.504 106.593,106.348 106.519,103.954 107.182,101.928 107.845,101.229 	"/>
	<polyline class="st1" points="112.489,102.1 111.826,102.8 111.163,104.826 111.347,106.786 102.331,132.435 101.566,132.191 
		100.866,133.554 100.94,134.438 100.277,136.095 101.124,136.279 101.271,137.016 102.965,137.384 105.625,130.316 	"/>
	<polyline class="st1" points="115.111,102.398 114.448,103.098 113.785,105.124 113.91,107.203 	"/>
	<polyline class="st1" points="109.304,101.714 99.102,129.669 98.932,132.204 98.306,133.456 98.343,134.266 97.716,135.739 
		98.564,135.924 98.711,136.66 100.405,137.029 	"/>
	<polyline class="st1" points="111.347,106.786 115.28,107.561 116.592,104.343 130.001,107.203 128.987,110.302 132.861,111.137 
		130.537,117.871 126.425,116.977 125.412,119.897 129.226,120.791 126.902,127.645 122.789,126.751 121.657,129.79 
		108.188,127.049 109.38,124.069 105.685,123.294 105.745,132.532 104.434,135.809 104.434,136.703 125.888,141.054 
		134.172,118.407 133.636,117.633 	"/>
	<polyline class="st1" points="108.069,116.56 111.705,117.275 112.897,114.176 109.202,113.401 109.44,116.5 	"/>
	<line class="st1" x1="130.001" y1="107.203" x2="130.299" y2="110.6"/>
	<line class="st1" x1="132.861" y1="111.137" x2="133.219" y2="120.791"/>
	<polyline class="st1" points="130.537,117.871 130.775,127.347 129.726,127.136 	"/>
	<line class="st1" x1="129.226" y1="120.791" x2="129.583" y2="130.744"/>
	<line class="st1" x1="126.902" y1="127.645" x2="127.14" y2="137.418"/>
	<polyline class="st1" points="122.909,126.81 123.266,136.167 122.015,139.385 121.657,129.79 	"/>
	<line class="st1" x1="123.266" y1="136.167" x2="127.14" y2="137.001"/>
	<line class="st1" x1="122.015" y1="139.385" x2="126.177" y2="140.281"/>
	<polyline class="st1" points="104.434,135.809 108.463,136.559 108.188,127.049 	"/>
	<line class="st1" x1="105.706" y1="132.596" x2="108.36" y2="133.148"/>
	<path class="st1" d="M88.534,116.641c0,0,0.358-1.134,1.617-0.995c0,0,1.202,0.166,0.947,1.507l-0.42,1.259
		c0,0-0.343,1.394-1.637,1.042c0,0-1.067-0.017-0.974-1.182L88.534,116.641z"/>
	<path class="st1" d="M85.706,120.403l0.059-2.274c0,0-0.095-0.634,0.761-0.507c0.856,0.127,1.574,0.27,1.574,0.27"/>
	<path class="st1" d="M90.952,118.434l1.845,0.293c0,0,0.539-0.015,0.539,0.568c0,0.583-0.045,2.679-0.045,2.679l-1.28-0.256"/>
	<polyline class="st1" points="91.189,117.153 91.659,117.217 91.625,118.434 	"/>
	<line class="st1" x1="88.988" y1="117.499" x2="90.224" y2="117.738"/>
	<line class="st1" x1="89.161" y1="116.848" x2="90.397" y2="117.087"/>
	
		<ellipse transform="matrix(0.1987 -0.9801 0.9801 0.1987 -65.0481 180.1404)" class="st1" cx="77.636" cy="129.849" rx="1.756" ry="0.597"/>
	<circle class="st1" cx="199.076" cy="97.096" r="0.889"/>
	<circle class="st1" cx="167.564" cy="90.806" r="0.889"/>
	<path class="st1" d="M136.497,85.342c-0.491,0-0.889-0.398-0.889-0.889s0.398-0.889,0.889-0.889c0.123,0,0.24,0.025,0.346,0.07"/>
	<line class="st1" x1="69.241" y1="145.441" x2="71.7" y2="138.385"/>
	<polyline class="st1" points="117.178,150.962 117.178,154.79 116.611,155.996 116.611,156.775 112.428,165.922 112.02,162.523 
		110.709,165.529 110.453,163.866 	"/>
	<path class="st2" d="M121.95,153.284l-1.687-0.303v-2.824c0,0-0.022-1.557,0.973-1.406c0,0,0.67,0.022,0.67,1.384L121.95,153.284z"
		/>
	<path class="st2" d="M121.193,148.579c0,0,0.281-3.568,1.925-2.833"/>
	
		<ellipse transform="matrix(0.1793 -0.9838 0.9838 0.1793 -45.0672 242.3045)" class="st3" cx="122.695" cy="148.164" rx="2.465" ry="0.613"/>
	<path class="st4" d="M122.055,153.252l2.012-5.171v-0.542c0.339-2.415-0.903-2.505-0.903-2.505c-0.7-0.158-1.261,0.231-1.261,0.231
		l0.194-0.708l1.609,0.342c0,0,0.844,0.719,0.396,3.088"/>
	<path class="st2" d="M120.052,156.075c0,0,1.281,0.5,1,1.656l-5.123,14.213c0,0-0.25,1.531-2.343,1.249
		c0,0-1.905-0.469-1.406-1.937c0.5-1.468,4.717-11.964,4.717-11.964l2.249,0.469l1.238-3.289l0.114,2.465l0.477,0.375l0.102,0.386
		l-0.193,1.295l0.25,0.114l-1.922,5.413"/>
	<polygon class="st2" points="118.027,166.36 125.906,168.058 125.906,170.204 118.027,168.506 	"/>
	<polyline class="st2" points="125.938,167.769 128.596,160.755 128.834,162.316 125.906,170.204 	"/>
	<line class="st2" x1="120.974" y1="162.106" x2="127.442" y2="163.46"/>
	<polyline class="st2" points="123.263,160.808 127.556,161.667 127.556,162.544 121.432,161.285 121.432,160.408 122.275,160.581 	
		"/>
	<polyline class="st2" points="127.556,161.667 128.014,160.446 121.851,159.186 121.432,160.408 	"/>
	<ellipse class="st5" cx="122.939" cy="160.293" rx="0.668" ry="0.439"/>
	<path class="st5" d="M124.678,159.949l-0.09-3.177l0.496-0.451l0.518,0.383l0.135,3.447c0,0,0.045,0.519-0.563,0.518
		C124.664,160.67,124.678,159.949,124.678,159.949z"/>
	<path class="st6" d="M113.433,170.752l-0.112-4.745l0.617-1.47l0.645,1.369l0.168,5.149c0,0,0.056,0.775-0.701,0.774
		C113.415,171.829,113.433,170.752,113.433,170.752z"/>
	<path class="st6" d="M118.52,155.703l0.004-3.491l0.617-1.47l0.645,1.369l0.052,3.594c0,0,0.056,0.775-0.701,0.774
		C118.502,156.479,118.52,155.703,118.52,155.703z"/>
	<path class="st6" d="M118.62,156.593l-1.458-0.3l0.343,0.429l-0.515,1.544c0,0-0.021,0.515-1.008,0.15"/>
	<polyline class="st6" points="114.76,168.881 116.969,163.091 117.004,160.929 117.24,160.479 119.071,160.818 119.054,159.765 	
		"/>
	<line class="st6" x1="118.781" y1="163.525" x2="117.171" y2="163.195"/>
	<line class="st6" x1="119.832" y1="160.624" x2="119.191" y2="160.484"/>
	<line class="st6" x1="115.161" y1="163.322" x2="113.96" y2="163.051"/>
	<line class="st6" x1="116.026" y1="161.12" x2="114.845" y2="160.869"/>
	<line class="st1" x1="97.409" y1="196.738" x2="134.089" y2="204.216"/>
	<path class="st1" d="M99.231,190.812l0.921,0.149c0,0,0.505,0.089,0.297,0.683s-0.624,1.723-0.624,1.723s-0.178,0.416-0.802,0.327
		c-0.624-0.089-0.624-0.089-0.624-0.089"/>
	<polyline class="st1" points="98.755,193.782 98.785,196.931 99.914,193.931 99.897,193.262 	"/>
	<polyline class="st1" points="126.815,202.763 127.238,201.704 134.648,203.257 	"/>
	<polyline class="st1" points="103.123,205.385 103.879,205.515 104.232,204.951 106.138,205.303 106.984,205.021 127.873,209.467 
		129.144,210.243 	"/>
	<line class="st1" x1="115.414" y1="206.809" x2="116.514" y2="203.924"/>
	<line class="st1" x1="123.2" y1="208.504" x2="124.3" y2="205.527"/>
	<line class="st1" x1="124.391" y1="208.733" x2="125.674" y2="205.801"/>
	<polyline class="st1" points="114.773,206.58 114.727,204.565 102.728,202.092 102.774,204.748 	"/>
	<path class="st1" d="M24.725,76.656l4.741-12.233l32.887,6.93l-20.084,54.38c0,0-0.47,3.289-5.638,2.349
		c-5.168-0.94-28.071-5.638-28.071-5.638s-4.253-0.836-2.936-3.993c1.133-2.717,1.403-2.508,1.403-2.508l3.061,0.629l11.69-31.567"
		/>
	<path class="st1" d="M27.473,90.926l-9.267,24.803c0,0-0.545,1.545,1.545,1.999c2.09,0.454,14.537,2.907,14.537,2.907
		s1.454,0.545,2.271-1.272c0.818-1.817,9.267-24.985,9.267-24.985s1.181-1.635-1.817-2.18s-14.264-2.816-14.264-2.816
		S27.745,89.29,27.473,90.926z"/>
	<path class="st1" d="M51.992,99.272c0,0-0.299,1.709-1.709,2.008c-1.41,0.299-3.034,0.598-3.034,0.598s-0.812-0.085-1.196,1.111
		c-0.385,1.196-1.624,4.529-1.624,4.529s-0.342,0.855,0.214,1.239s2.222,1.709,2.222,1.709s0.812,0.427,0.513,1.367"/>
	<path class="st1" d="M22.735,78.503l5.578,1.208c0,0,0.782-0.107,0.497,0.782c-0.284,0.888-2.593,7.887-2.593,7.887
		s0.604-2.949-2.736-3.624c-3.339-0.675-3.624,2.345-3.624,2.345l0.071-1.599L22.735,78.503z"/>
	<path class="st1" d="M19.858,87.1c0,0,0.036,0.888,0.959,0.853l5.649,1.172c0,0,3.517-9.45,3.517-9.912
		c0-0.462-1.03-0.711-1.03-0.711l-3.268-0.639l-0.355,0.995"/>
	<ellipse class="st1" cx="24.742" cy="82.215" rx="2.327" ry="1.865"/>
	<polyline class="st1" points="23.162,78.574 23.872,76.585 24.618,76.727 24.76,78.787 	"/>
	<path class="st1" d="M7.765,122.211c0,0,0.132,1.453,1.409,0.352l0.044,4.756l0.528,0.044l0.881-2.026l-0.044-2.466"/>
	<line class="st1" x1="10.627" y1="125.338" x2="38.897" y2="131.106"/>
	<path class="st1" d="M9.923,127.011l1.189,0.22c0,0,0.705-0.132,0.572,0.528c-0.132,0.661-0.352,0.749-0.352,0.749l0.044,1.233
		l26.024,5.328l-0.132-1.189l0.616-1.277l0.793,0.088"/>
	<path class="st1" d="M38.853,128.2l0.264,5.02c0,0,0.088,1.057,1.849,0.396l-0.176-5.812"/>
	<line class="st1" x1="13.842" y1="123.576" x2="13.93" y2="126.086"/>
	<path class="st1" d="M42.464,125.205l0.176,8.719l-1.277,0.661c0,0-1.233,0.44-1.233-0.705"/>
	<polyline class="st1" points="42.816,132.999 43.52,131.37 43.476,128.684 44.841,125.382 44.665,119.877 43.036,119.481 
		44.005,117.059 45.194,117.323 	"/>
	<polyline class="st1" points="43.52,131.37 54.689,101.992 55.501,101.089 60.102,88.729 60.012,86.834 61.546,83.225 
		61.275,74.654 	"/>
	<polyline class="st1" points="62.352,71.352 62.594,79.452 61.605,82.418 	"/>
	<path class="st1" d="M58.181,82.027c-1.554-0.278-0.694-1.693-0.694-1.693s1.027-1.027,0.056-2.415s-0.805-2.276-0.805-2.276
		l1.138-3.192c0,0,0.416-1.083,1.277-1.055c0.861,0.028,1.221,0.305,1.221,0.305s0.833,0.583,0.472,1.527s-0.638,1.693-0.638,1.693
		l0.749,0.139"/>
	<ellipse class="st1" cx="59.444" cy="72.881" rx="0.736" ry="0.541"/>
	<g>
		<path class="st0" d="M292.025,175.903c6.224,3.08,14.922-1.805,19.427-10.91c4.505-9.105,3.111-18.983-3.113-22.062l-1.516-1.348
			c0,0-6.216-4.645-16.189,4.235c0,0-8.265,7.65-7.514,17.008c0,0-0.068,3.757,0.82,6.557l1.025,0.546l0.615,2.186
			c0,0,3.055,3.017,5.854,3.901L292.025,175.903z"/>
		<polygon class="st1" points="277.211,167.78 282.943,171.184 283.122,189.545 284.734,193.396 284.555,211.13 277.121,206.741 		
			"/>
		<path class="st1" d="M284.555,211.13l3.672-1.523l-0.09-1.791l26.78-11.196l0.179,1.881l3.762-1.612l-0.179-39.05
			c0,0-5.016,1.791-3.762,7.165c0,0,4.837,8.24-2.239,19.704l0.09,6.18l-22.033,9.404l-0.09-5.822l-4.568-6.001l-2.956,1.075
			l1.497-1.878"/>
		<line class="st1" x1="284.734" y1="193.396" x2="288.585" y2="191.873"/>
		<path class="st1" d="M277.211,167.78c0,0,1.523-0.806,2.776-0.358l4.766,2.617"/>
		<path class="st1" d="M282.943,171.184c0,0,0.922-1.76,1.913-1.111c0,0,1.196,1.299,0.068,5.297c0,0-1.215,7.827-0.305,12.296
			l1.458,0.803"/>
		<line class="st1" x1="318.679" y1="157.839" x2="314.416" y2="155.162"/>
		<polyline class="st1" points="312.678,184.708 310.571,183.525 310.63,189.753 312.768,190.888 		"/>
		<polyline class="st1" points="290.764,198.15 292.673,197.339 292.558,194.504 289.606,192.999 		"/>
		<line class="st1" x1="312.464" y1="163.747" x2="315.046" y2="165.377"/>
		<path class="st1" d="M309.347,143.335l-2.6-1.841c-2.523-1.166-5.768-1.738-9.403-0.18c-7.839,3.359-12.153,11.806-12.153,11.806
			s-4.179,8.326-1.251,16.454"/>
		<polygon class="st7" points="294.568,197.179 296.587,180.209 296.852,178.965 297.629,177.799 301.03,176.439 300.642,178.091 
			306.228,192.417 		"/>
		<line class="st8" x1="296.999" y1="179.153" x2="300.598" y2="177.724"/>
		<line class="st8" x1="291.668" y1="193.859" x2="304.651" y2="188.41"/>
		<line class="st7" x1="315.097" y1="198.501" x2="313.443" y2="197.418"/>
		<g>
			
				<ellipse transform="matrix(0.4435 -0.8963 0.8963 0.4435 24.3159 357.8558)" class="st8" cx="300.319" cy="159.348" rx="18.394" ry="12.574"/>
			<line class="st9" x1="300.666" y1="143.976" x2="300.312" y2="157.409"/>
			<line class="st9" x1="294.446" y1="153.158" x2="306.305" y2="148.679"/>
		</g>
		<path class="st1" d="M285.607,172.077c0,0,3.884,4.441,9.872,4.707"/>
		<polyline class="st8" points="295.894,186.193 294.326,186.89 293.498,178.788 298.856,176.523 		"/>
		<polyline class="st8" points="291.799,193.206 286.877,181.793 286.746,175.347 285.222,174.432 		"/>
		<line class="st8" x1="284.917" y1="176.392" x2="288.663" y2="174.824"/>
		<line class="st8" x1="285.134" y1="174.606" x2="287.269" y2="173.735"/>
		<polyline class="st8" points="304.606,173.561 304.562,174.345 302.21,182.011 		"/>
		<path class="st8" d="M302.776,183.623c0,0,5.184-5.162,5.881-13.808"/>
		<path class="st8" d="M311.009,166.264l0.653,0.392c0,0,1.742,10.541-7.405,20.473"/>
		<path class="st1" d="M310.571,183.525c0,0-2.211,3.665-3.936,5.421l0.04,2.421l3.955-1.614"/>
		<line class="st1" x1="304.344" y1="187.478" x2="306.635" y2="188.946"/>
	</g>
	<polyline class="st10" points="24.683,133.989 25.466,155.125 121.231,171.825 121.492,186.699 	"/>
	<polyline class="st11" points="24.683,133.989 25.466,155.125 121.231,171.825 121.492,186.699 	"/>
	<polyline class="st12" points="220.626,128.563 126.098,148.007 214.658,139.536 	"/>
	<g>
		<g>
			<path class="st13" d="M54.944,46.467c0,7.593-6.246,13.745-13.95,13.745c-7.707,0-13.953-6.152-13.953-13.745
				c0-7.596,6.246-13.755,13.953-13.755C48.698,32.712,54.944,38.871,54.944,46.467"/>
		</g>
		<g>
			<path class="st14" d="M42.591,53.508h-1.846V41.747c-0.444,0.424-1.027,0.848-1.749,1.271s-1.369,0.742-1.943,0.954v-1.784
				c1.032-0.485,1.935-1.073,2.707-1.764s1.319-1.36,1.641-2.01h1.189V53.508z"/>
		</g>
	</g>
	<g>
		<polygon class="st15" points="41.463,60.962 54.038,74.332 47.761,73.22 47.973,94.28 35.596,92.091 35.384,71.03 29.108,69.92 		
			"/>
	</g>
	<polygon class="st14" points="76.073,123.173 77.102,121.433 80.262,131.343 	"/>
	<g>
		<path class="st0" d="M239.668,175.009c6.224,3.08,14.922-1.805,19.427-10.91c3.747-7.572,3.413-15.679-0.385-19.965
			c0,0-1.387-2.346-4.383-3.544c0,0-5.393-3.521-13.707,2.547c0,0-5.019,3.97-7.565,9.138c0,0-0.113,3.091-0.709,4.283
			c0,0-1.009,9.401-0.183,12.152l1.422,0.871l3.393,4.586L239.668,175.009z"/>
		<polygon class="st1" points="224.673,148.874 230.406,152.277 230.585,170.638 232.197,174.489 232.018,192.223 224.584,187.834 
					"/>
		<path class="st1" d="M232.018,192.223l3.672-1.523l-0.09-1.791l26.78-11.196l0.179,1.881l3.762-1.612l-0.179-39.05
			c0,0-5.016,1.791-3.762,7.165c0,0,4.837,8.24-2.239,19.704l0.09,6.18l-22.033,9.404l-0.09-5.822l-4.568-6.001l-2.956,1.075
			l1.497-1.878"/>
		<line class="st1" x1="232.197" y1="174.489" x2="236.048" y2="172.967"/>
		<path class="st1" d="M224.673,148.874c0,0,1.523-0.806,2.777-0.358l4.766,2.617"/>
		<path class="st1" d="M230.406,152.277c0,0,0.922-1.76,1.913-1.111c0,0,1.196,1.299,0.068,5.297c0,0-1.215,7.827-0.304,12.296
			l1.458,0.803"/>
		<path class="st1" d="M266.142,138.932l-7.11-4.464c0,0-4.701,1.94-4.253,6.343"/>
		<polyline class="st1" points="260.141,165.801 258.034,164.619 258.093,170.846 260.231,171.981 		"/>
		<polyline class="st1" points="254.098,170.039 254.139,172.461 258.093,170.846 		"/>
		<polyline class="st1" points="238.227,179.243 240.136,178.433 240.021,175.597 237.069,174.092 		"/>
		<path class="st1" d="M232.902,152.274c0,0,4.314-8.447,12.153-11.806c8.507-3.646,14.872,4.372,14.872,4.372l2.581,1.63"/>
		
			<ellipse transform="matrix(0.4435 -0.8963 0.8963 0.4435 -4.2543 310.6361)" class="st8" cx="248.011" cy="158.744" rx="18.394" ry="12.574"/>
		<polygon class="st7" points="242.031,178.272 245.653,161.247 245.917,160.004 246.695,158.838 250.096,157.477 249.707,159.129 
			253.691,173.511 		"/>
		<line class="st8" x1="245.943" y1="160.334" x2="249.542" y2="158.905"/>
		<line class="st8" x1="243.19" y1="173.725" x2="252.506" y2="169.808"/>
		<line class="st7" x1="262.559" y1="179.594" x2="260.906" y2="178.512"/>
		<line class="st9" x1="248.357" y1="143.372" x2="248.003" y2="156.806"/>
		<line class="st9" x1="242.138" y1="152.554" x2="253.997" y2="148.075"/>
		<g>
			<polygon class="st16" points="243.231,128.871 236.496,129.738 230.429,133.205 230.162,134.872 239.497,132.771 
				243.364,129.871 			"/>
			<g>
				<path class="st17" d="M242.322,130.541c-2.296,2.87-2.915,4.807-2.856,6.633l-12.988,4.702c0,0-1.845-8.519,10.143-12.881
					l3.998-1.47l6.455-2.35c8.797-2.949,13.975,2.957,13.975,2.957l6.763-2.461l-5.141,13.847l-22.456-3.744l7.651-2.783
					c0,0-7.733-6.137-16.922,0.372"/>
			</g>
		</g>
	</g>
	<g>
		<polygon class="st18" points="297.257,111.365 287.342,125.994 292.191,123.396 291.651,141.249 301.213,136.126 301.754,118.27 
			306.601,115.672 		"/>
	</g>
	<circle class="st19" cx="274.25" cy="162.735" r="63.455"/>
	<g>
		<g>
			<path class="st13" d="M267.902,107.918c0,7.593-6.246,13.745-13.95,13.745c-7.707,0-13.953-6.152-13.953-13.745
				c0-7.596,6.246-13.755,13.953-13.755C261.657,94.163,267.902,100.322,267.902,107.918"/>
		</g>
		<g>
			<path class="st14" d="M258.897,112.586v1.774h-9.937c-0.014-0.444,0.059-0.872,0.216-1.282c0.253-0.677,0.657-1.343,1.215-2
				c0.557-0.656,1.362-1.415,2.415-2.276c1.634-1.34,2.737-2.401,3.312-3.184c0.574-0.783,0.861-1.523,0.861-2.22
				c0-0.731-0.262-1.348-0.784-1.851c-0.523-0.502-1.205-0.753-2.046-0.753c-0.889,0-1.6,0.267-2.133,0.8s-0.803,1.271-0.81,2.215
				l-1.897-0.195c0.13-1.415,0.619-2.493,1.467-3.235c0.848-0.741,1.985-1.112,3.414-1.112c1.442,0,2.584,0.4,3.425,1.2
				s1.262,1.791,1.262,2.974c0,0.602-0.123,1.193-0.369,1.774s-0.655,1.193-1.226,1.835c-0.571,0.643-1.52,1.524-2.846,2.646
				c-1.107,0.93-1.818,1.561-2.133,1.892s-0.574,0.665-0.779,1H258.897z"/>
		</g>
	</g>
	<g>
		<g>
			<path class="st13" d="M333.158,127.711c0,7.593-6.246,13.745-13.95,13.745c-7.707,0-13.953-6.152-13.953-13.745
				c0-7.596,6.246-13.755,13.953-13.755C326.912,113.956,333.158,120.115,333.158,127.711"/>
		</g>
		<g>
			<path class="st14" d="M314.463,130.184l1.846-0.246c0.212,1.046,0.572,1.799,1.082,2.261c0.509,0.461,1.13,0.692,1.861,0.692
				c0.868,0,1.601-0.301,2.199-0.902c0.598-0.602,0.897-1.347,0.897-2.235c0-0.848-0.277-1.547-0.831-2.098
				c-0.554-0.55-1.258-0.825-2.112-0.825c-0.349,0-0.782,0.068-1.302,0.205l0.205-1.62c0.123,0.014,0.222,0.021,0.297,0.021
				c0.786,0,1.494-0.205,2.123-0.615s0.943-1.042,0.943-1.896c0-0.677-0.229-1.237-0.688-1.682s-1.049-0.667-1.773-0.667
				c-0.718,0-1.316,0.226-1.795,0.677s-0.786,1.127-0.923,2.03l-1.846-0.328c0.226-1.237,0.738-2.195,1.538-2.875
				s1.795-1.021,2.984-1.021c0.82,0,1.575,0.176,2.266,0.528s1.219,0.832,1.584,1.44c0.366,0.608,0.549,1.254,0.549,1.938
				c0,0.649-0.174,1.24-0.522,1.773s-0.865,0.957-1.549,1.271c0.889,0.205,1.579,0.631,2.071,1.276
				c0.492,0.646,0.738,1.455,0.738,2.426c0,1.312-0.479,2.425-1.436,3.337c-0.957,0.913-2.167,1.369-3.63,1.369
				c-1.319,0-2.415-0.393-3.286-1.179C315.083,132.454,314.586,131.435,314.463,130.184z"/>
		</g>
	</g>
</g>
<g id="Layer_2">
	<g>
		<path class="st1" d="M161.471,94.705"/>
		<g>
			<path class="st1" d="M174.426,105.266"/>
		</g>
		<g>
			<path class="st1" d="M180.362,105.565"/>
			<path class="st1" d="M180.681,104.737"/>
			<path class="st1" d="M181,103.908"/>
		</g>
		<g>
			<path class="st1" d="M180.758,106.567"/>
		</g>
		<path class="st1" d="M200.975,112.556"/>
		<polygon class="st1" points="174.135,104.267 173.119,104.034 171.55,108.711 172.625,108.943 		"/>
		<polyline class="st1" points="171.55,108.914 171.608,110.308 172.734,110.555 172.654,109.001 		"/>
		<path class="st1" d="M172.826,110.462"/>
		<path class="st1" d="M201.718,115.916"/>
		<path class="st1" d="M204.868,111.263c0,0-1.135,0.077-1.368,0.903c0,0-0.335,0.852,0.852,0.723c0,0,1.187,0,1.548-0.877
			C205.9,112.011,206.055,111.082,204.868,111.263z"/>
		<path class="st1" d="M201.722,114.738l0.075,2.133c0,0,1.004,0.427,1.205-0.276l0.427-0.954l-0.025-1.686"/>
		<polyline class="st1" points="203.604,115.767 205.035,116.018 205.938,113.533 205.888,112.128 		"/>
		<polyline class="st1" points="204.533,112.981 204.558,115.164 205.261,115.29 		"/>
		<path class="st1" d="M204.633,111.111c0.108-0.888-0.173-0.953-0.173-0.953l-0.714-0.13l-0.123,1.505"/>
		<path class="st1" d="M203.694,112.925l-0.654,2.042c0,0-0.099,0.694-1.209,0.278"/>
		<path class="st1" d="M137.294,99.284c-1.14-0.534-0.675-1.443-0.675-1.443c0.442-0.885,1.629-0.279,1.629-0.279
			s1.304,0.349,0.954,1.536C139.203,99.097,139.133,100.145,137.294,99.284z"/>
		<polyline class="st1" points="139.378,98.149 139.741,97.205 141.101,97.454 140.999,99.06 139.408,104.012 		"/>
		<polyline class="st1" points="139.472,99.123 139.927,99.23 139.438,100.418 138.577,100.231 137.972,102.117 139.348,102.375 		
			"/>
		<polyline class="st1" points="138.808,100.423 136.987,100.085 137.003,101.358 136.6,101.277 136.584,102.003 137.793,102.228 		
			"/>
		<path class="st1" d="M138.373,100.681l-0.371,1.064c0,0-0.338,0.516,1.358,0.703l0.048,1.563l-1.052-0.107
			c0,0-0.435-0.016-0.435-0.435c0-0.419-0.032-1.434-0.032-1.434"/>
		<polygon class="st1" points="168.17,108.152 169.459,108.512 169.459,109.866 168.17,109.507 		"/>
		<polyline class="st1" points="168.203,108.055 169.933,103.354 171.157,103.664 169.459,108.512 		"/>
		<polyline class="st1" points="169.459,109.866 171.108,105.149 171.173,103.729 		"/>
		<polyline class="st1" points="174.135,104.267 174.298,105.861 172.826,110.462 		"/>
	</g>
</g>
</svg>
