<?xml version="1.0" encoding="utf-8"?>
<!-- Generator: Adobe Illustrator 26.0.3, SVG Export Plug-In . SVG Version: 6.00 Build 0)  -->
<svg version="1.1" id="Layer_1" xmlns="http://www.w3.org/2000/svg" xmlns:xlink="http://www.w3.org/1999/xlink" x="0px" y="0px"
	 viewBox="0 0 396 199.4" style="enable-background:new 0 0 396 199.4;" xml:space="preserve">
<style type="text/css">
	.st0{fill:none;stroke:#000000;stroke-width:0.5245;stroke-miterlimit:10;}
	.st1{fill:none;stroke:#000000;stroke-width:0.5245;stroke-linecap:round;stroke-linejoin:round;stroke-miterlimit:10;}
	.st2{fill:none;stroke:#FFFFFF;stroke-width:0.5245;stroke-linecap:round;stroke-linejoin:round;stroke-miterlimit:10;}
	
		.st3{fill:none;stroke:#000000;stroke-width:0.5245;stroke-linecap:round;stroke-linejoin:round;stroke-miterlimit:10;stroke-dasharray:2.6224,1.5734;}
	.st4{fill:#FFFFFF;stroke:#000000;stroke-width:0.5245;stroke-linecap:round;stroke-linejoin:round;stroke-miterlimit:10;}
	.st5{fill:none;stroke:#000000;stroke-width:0.4714;stroke-linecap:round;stroke-linejoin:round;stroke-miterlimit:10;}
	.st6{fill:none;stroke:#000000;stroke-width:0.3192;stroke-linecap:round;stroke-linejoin:round;stroke-miterlimit:10;}
	.st7{fill:none;stroke:#000000;stroke-width:0.3707;stroke-linecap:round;stroke-linejoin:round;stroke-miterlimit:10;}
	.st8{fill:none;stroke:#000000;stroke-width:0.3934;stroke-linecap:round;stroke-linejoin:round;stroke-miterlimit:10;}
	.st9{fill:#FFFFFF;}
	.st10{fill:none;stroke:#FFFFFF;stroke-width:2.6224;stroke-linecap:round;stroke-linejoin:round;stroke-miterlimit:10;}
	.st11{fill:#FFFFFF;stroke:#FFFFFF;stroke-width:4.239;stroke-linecap:round;stroke-linejoin:round;}
	.st12{fill:none;stroke:#FFFFFF;stroke-width:2.0979;stroke-linecap:round;stroke-linejoin:round;stroke-miterlimit:10;}
	
		.st13{fill:none;stroke:#FFFFFF;stroke-width:2.6224;stroke-linecap:round;stroke-linejoin:round;stroke-miterlimit:10;stroke-dasharray:2.6224,1.5734;}
	.st14{fill-rule:evenodd;clip-rule:evenodd;fill:#010101;stroke:#FFFFFF;stroke-width:0.81;stroke-miterlimit:10;}
	.st15{font-family:'Helvetica';}
	.st16{font-size:16.9122px;}
	.st17{fill:none;stroke:#FFFFFF;stroke-width:3;stroke-miterlimit:10;}
	.st18{fill:none;stroke:#000000;stroke-width:0.5;stroke-miterlimit:10;}
	.st19{fill:none;stroke:#000000;stroke-width:0.6419;stroke-linecap:round;stroke-linejoin:round;stroke-miterlimit:10;}
	.st20{fill:none;stroke:#000000;stroke-width:0.3801;stroke-linecap:round;stroke-linejoin:round;stroke-miterlimit:10;}
</style>
<g>
	<path class="st0" d="M335.5,59.8l0.2,55.3l-24.9,14.4l-0.9,0.5l-59.9-4.1v-10.4l-6.9-1.1l0.1-55.9l7.3-0.3V47.3l58.8-3.9L334,55.8
		C334,55.8,335.8,56.7,335.5,59.8z"/>
	<polyline class="st0" points="309.9,130.1 334.4,126.7 358.9,114.3 335.7,115.2 	"/>
	<path class="st1" d="M249.2,128.5l0-9.8l-5.8-0.9c-2.8,0-3.3-3.1-3.3-3.1s0.4-49.8,0.2-55.7c-0.2-4.4,1.7-4.3,1.7-4.3l7.2-0.4
		c0,0,0.4-15.2,0.2-19.7c-0.2-4.6,1.7-5.2,1.7-5.2l13.2-1.5c0,0-1.8,0.7-1.8,2.4c0,1.7,0.2,16.5,0.2,16.5"/>
	<path class="st1" d="M250.8,141.5c-1.8-0.3-1.6-2.9-1.6-2.9l0-0.9"/>
	<g>
		<line class="st2" x1="242" y1="54.6" x2="249.2" y2="54.2"/>
		<line class="st3" x1="242" y1="54.6" x2="249.2" y2="54.2"/>
	</g>
	<g>
		<path class="st2" d="M240.3,59c-0.2-4.4,1.7-4.3,1.7-4.3"/>
		<path class="st3" d="M240.3,59c-0.2-4.4,1.7-4.3,1.7-4.3"/>
	</g>
	<g>
		<path class="st2" d="M240.1,114.6c0,0,0.4-49.8,0.2-55.7"/>
		<path class="st3" d="M240.1,114.6c0,0,0.4-49.8,0.2-55.7"/>
	</g>
	<g>
		<path class="st2" d="M243.3,117.8c-2.8,0-3.3-3.1-3.3-3.1"/>
		<path class="st3" d="M243.3,117.8c-2.8,0-3.3-3.1-3.3-3.1"/>
	</g>
	<g>
		<line class="st2" x1="249.1" y1="118.6" x2="243.3" y2="117.8"/>
		<line class="st3" x1="249.1" y1="118.6" x2="243.3" y2="117.8"/>
	</g>
	<path class="st1" d="M250.5,126.1l0.1,13.8c0,0,0,3.4,1.4,3.8c1.1,0.4,12.5,1.2,12.5,1.2s-1.9-1.3-1.9-3.1s-0.2-14.9-0.2-14.9"/>
	<polyline class="st1" points="264.8,127.1 264.9,145 274.8,144.8 279.6,144 	"/>
	<line class="st1" x1="274.8" y1="127.9" x2="274.8" y2="144.8"/>
	<path class="st0" d="M284.2,44.6"/>
	<polyline class="st0" points="265.4,46.1 264.8,27.7 274.8,27.9 283.9,29.3 	"/>
	<line class="st0" x1="274.6" y1="28" x2="274.9" y2="45.5"/>
	<path class="st1" d="M359,100.7c0,7.8-0.1,13.6-0.1,13.6"/>
	<path class="st1" d="M309.3,43.4l23.3,1.4l23,12.1c0,0,3.3,1.2,3.5,4.3c0,0.9,0.1,5.5,0.1,11.6"/>
	<line class="st1" x1="339" y1="56.5" x2="355.5" y2="58.4"/>
	<polyline class="st1" points="191.4,103.9 177.1,103.8 177.2,70.8 191.9,70.9 	"/>
	<path class="st1" d="M192,107.9v-39c0,0-0.4-1.6,2.5-1.7c2.9-0.1,30.4-0.4,30.4-0.4s3.2-0.1,3.5,3s0.1,35.9,0.1,35.9
		s0.6,4.3-4.4,4.2C219,109.6,192,107.9,192,107.9z"/>
	<path class="st1" d="M225.4,66.7c2.9-0.1,5,0,5,0s3.2-0.1,3.5,3s0.1,35.9,0.1,35.9s0.6,4.3-4.4,4.2c-5.1-0.2-4.5,0.4-4.5,0.4"/>
	<polygon class="st1" points="197.2,78.7 205.8,78.7 205.8,97.6 197,97.4 	"/>
	<polyline class="st1" points="205.6,79.9 198.7,79.9 197.2,78.7 	"/>
	<polyline class="st1" points="197,97.4 198.6,96.2 205.6,96.3 	"/>
	<line class="st1" x1="198.7" y1="79.9" x2="198.6" y2="96.2"/>
	<polyline class="st4" points="186.8,103.9 177.1,103.8 177.1,70.8 187.1,70.9 	"/>
	<path class="st1" d="M173.4,55.7l-6.4-0.4c-1.1-0.3-1.8,0-1.8,0s-9,1.5-11.4,2.1c-2.4,0.6-2,3-2,3v48.9c0,0-0.2,4.7,3.3,5l10.9,2.1
		l1.1-1.1l5.6-0.1"/>
	<path class="st3" d="M161.8,58.2l10.6-2.1c0,0,2.5-0.8,2.9,2.3l0.1,54c0,0-0.5,3.4-2.6,3l-11.6-2.3c0,0-1.7-0.7-1.6-3.8
		s0.3-48.2,0.3-48.2S159.3,58.5,161.8,58.2z"/>
	<ellipse class="st1" cx="159.8" cy="47.3" rx="2.7" ry="4.2"/>
	<ellipse class="st1" cx="159.8" cy="123.4" rx="2.7" ry="4.2"/>
	<path class="st1" d="M188.7,67.3l-0.2-21.4c-0.2-2.7-2.6-2.7-2.6-2.7L138.2,39c0,0-1.1-2.9-5.6-3.1l-74.5-7.3c0,0-9-0.3-8.6,12.3
		H46l0,94l3.7-0.1l0.1,3l-3.9,0.2v4.5l12.9-1.4"/>
	<path class="st1" d="M151.4,131.1l33.9-3.7c2.9-0.1,3.7-3,3.7-3V108"/>
	<path class="st1" d="M51.4,30.7L44.1,30c0,0-2.8,2.6-2.2,5.6l1.9,0.2v105.5"/>
	<line class="st1" x1="0.1" y1="34.6" x2="44.1" y2="30"/>
	<line class="st1" x1="45.8" y1="142.5" x2="0" y2="137.3"/>
	<ellipse transform="matrix(0.5481 -0.8364 0.8364 0.5481 -4.678 69.7141)" class="st1" cx="62.2" cy="39.2" rx="7.6" ry="7.8"/>
	<line class="st1" x1="63.2" y1="33.9" x2="63.2" y2="44.4"/>
	<line class="st1" x1="58.3" y1="38.5" x2="68.1" y2="39.5"/>
	<ellipse transform="matrix(0.5481 -0.8364 0.8364 0.5481 22.3954 130.9737)" class="st1" cx="132.4" cy="44.8" rx="6.8" ry="7"/>
	<line class="st1" x1="133.3" y1="40" x2="133.3" y2="49.4"/>
	<line class="st1" x1="128.9" y1="44.2" x2="137.7" y2="45.1"/>
	<path class="st1" d="M111.3,64.2l11.5-14.4c-8-12.7-25.5-13.8-25.5-13.8c-20.7,0.2-27.1,10.3-27.1,10.3L85,63.8"/>
	<path class="st1" d="M53.5,98.3c9.7-0.4,9.3-14.4,9.3-14.4C62.3,70.2,53.5,70,53.5,70V68h2.7c0,0,3.2-13.4,9.6-16.7l15.2,15.4"/>
	<path class="st1" d="M114.8,68.4l11-14c0,0,5.2,6.3,7.5,16"/>
	<path class="st1" d="M114.7,99.8l10.8,13.8c0,0,5.5-7.6,7.4-15.6"/>
	<path class="st1" d="M80.2,100.8c0,0-7.3,9.5-9.7,11.9"/>
	<line class="st1" x1="83.9" y1="105.5" x2="72.9" y2="117.6"/>
	<path class="st1" d="M111.8,104.1l9.7,12.4c0,0,1.9,3.1-10,10.4"/>
	<path class="st1" d="M72.7,123.8c0,0,6.4,5.7,8.3,5.9"/>
	<ellipse class="st1" cx="97.8" cy="84.5" rx="21.3" ry="24.8"/>
	<path class="st1" d="M134,72.1c0,0,13.4-3.3,10.9,15.6l-0.6,2.7"/>
	<path class="st1" d="M145.9,107.7l-1.4-7.5l-1.7-2.1l-1.1-5l1-3c0,0-0.5-4-1.8-8.1c-1.8-5.7-6.7-3.6-6.7-3.6s-5.8,3.4-3.7,10.9
		l1,5.9l1.8,3.5l0.6,2l2.4,3.1l1.3,7.5"/>
	<path class="st1" d="M148.1,107.4l-1.4-7.5l-1.7-2.1l-1.1-5l1-3c0,0-0.5-4-1.8-8.1c-1.8-5.7-6.7-3.6-6.7-3.6"/>
	<path class="st3" d="M143.8,110.3l3.1,14c0,0-67.2,6.2-69.9,6.2s-3.6-2.6-3.6-2.6L71,114.3c-2.6-2.8-6.8,0.3-6.8,0.3l3.1,17.1
		c2,6.8,9.6,6.4,9.6,6.4l71.1-7.5c7.1,0,5.9-9,5.9-9l-3.6-12.4c-1.4-1.2-4.3,0.2-4.3,0.2l-6.5,1.4c-5.1,1.2-3.7,6.2-3.7,6.2l1.2,7.8
		"/>
	<path class="st3" d="M65.3,112.9l-9.2,3.3c0,0-2.9,0.8-2.2,4.5c0.8,3.7,1.6,12.6,1.6,12.6s1.4,11,10.4,10.6s72.7-7.8,72.7-7.8
		l10.7-5.1"/>
	<path class="st3" d="M56.1,116.2l-1.4-8.8c0,0-0.8-3.7,2.3-5s8-3.4,8-3.4s-1.9,2.9-1.9,4.8s1.3,8.8,1.3,8.8"/>
	<path class="st1" d="M67.9,112.9l-1.5-9.7c0,0,2.1-2.6,2.1-4.5s-0.3-3.8-0.3-3.8l0.9-3.5c0,0-0.5-8.6-3.5-13.1"/>
	<polyline class="st1" points="65,98.9 64.2,94.9 68.1,94.9 	"/>
	<path class="st1" d="M57,102.3l-0.2-4c9.7-0.4,9.3-14.4,9.3-14.4C65.6,70.2,56.8,70,56.8,70"/>
	<line class="st1" x1="65.5" y1="91.4" x2="69" y2="91.4"/>
	<line class="st1" x1="53.6" y1="72.8" x2="53.6" y2="95.3"/>
	<ellipse class="st1" cx="58.1" cy="83.9" rx="2.2" ry="4.2"/>
	<ellipse class="st1" cx="136.1" cy="86.8" rx="2.3" ry="3.6"/>
	<polygon class="st1" points="291.9,56.7 297.8,52.6 305.3,56.5 305.2,66.5 298.1,70.6 291.9,66.5 	"/>
	<ellipse class="st1" cx="298.4" cy="111.5" rx="7.5" ry="8.1"/>
	<path class="st1" d="M272.4,110.3c-4.7,0-5.3-5.6-5.3-5.6l-0.3-38.2c0,0,0-4.5,6.7-4.3"/>
	<path class="st5" d="M358.3,100.1c-1.5,3.5-3.5,5.7-5.7,5.7c-4.5,0-8.1-8.7-8.1-19.3s3.6-19.3,8.1-19.3c2.2,0,4.2,2.1,5.7,5.6"/>
	<path class="st6" d="M356.7,99.2c-3,0-5.5-5.9-5.5-13.1c0-7.2,2.4-13.1,5.5-13.1"/>
	<path class="st5" d="M352.5,105.8h-3.4c-4.5,0-8.1-8.7-8.1-19.3s3.6-19.3,8.1-19.3h3.4"/>
	<line class="st7" x1="356.3" y1="73.2" x2="396" y2="72.5"/>
	<line class="st7" x1="356.9" y1="99.5" x2="395.9" y2="100.4"/>
	<ellipse class="st1" cx="166.3" cy="69.3" rx="3.3" ry="3.8"/>
	<ellipse class="st1" cx="167.5" cy="69.3" rx="1.3" ry="1.4"/>
	<line class="st1" x1="166.4" y1="65.4" x2="160.1" y2="65.7"/>
	<line class="st1" x1="165.9" y1="73.1" x2="160" y2="73"/>
	<ellipse class="st1" cx="166.3" cy="101.5" rx="3.3" ry="3.8"/>
	<ellipse class="st1" cx="167.5" cy="101.5" rx="1.3" ry="1.4"/>
	<line class="st1" x1="166.4" y1="97.6" x2="160.1" y2="97.9"/>
	<line class="st1" x1="165.9" y1="105.3" x2="160" y2="105.2"/>
	<ellipse class="st1" cx="167.5" cy="85.7" rx="3.2" ry="4.1"/>
	<line class="st1" x1="165.6" y1="106.4" x2="165.6" y2="113.5"/>
	<path class="st1" d="M165.6,96.9"/>
	<path class="st1" d="M165.6,74"/>
	<line class="st1" x1="165.6" y1="57.9" x2="165.6" y2="64.3"/>
	<polygon class="st1" points="161.7,79.3 172.5,75.3 172.7,96.2 161.4,91.6 	"/>
	<polyline class="st1" points="165.6,73.7 165.6,74.7 160.1,77.1 	"/>
	<polyline class="st1" points="172.5,96 165.4,96 165.6,96.9 	"/>
	<polyline class="st1" points="192.9,38.9 43.3,23.2 0.2,28.6 	"/>
	<polyline class="st1" points="0,143 45.9,148.9 193.6,132.5 	"/>
	<ellipse class="st8" cx="182.3" cy="57.8" rx="4.9" ry="6.6"/>
	<ellipse class="st8" cx="182.3" cy="57.8" rx="2.3" ry="3.1"/>
	<g>
		<polygon points="335.1,98 298.2,98.4 306.8,86.2 298.2,73.7 335.1,73.9 335.1,63.7 352.2,86 335.1,108.4 		"/>
		<path class="st9" d="M335.6,65.2L351.6,86l-15.9,20.8v-9.4l-36.4,0.4l8.3-11.7l-8.3-12l36.4,0.2V65.2 M334.6,62.2v3.1v8.1
			l-35.4-0.2l-2,0l1.1,1.7l7.9,11.4l-7.8,11.1l-1.2,1.7l2.1,0l35.4-0.4v8.3v3.1l1.9-2.5l15.9-20.8l0.5-0.6l-0.5-0.6l-15.9-20.8
			L334.6,62.2L334.6,62.2z"/>
	</g>
	<path class="st9" d="M67.2,104.5l-3.7-3.7l0.7-2.5l-1.4-1.1c0,0-1.8,0.7-3.7-0.3l4.4-7.3l0.4-6.6l-1.2-8.6c0,0,3.4,0.7,5.9,4.2
		l0.8,4c0,0,3.4,1.8,1.8,4l2.3,2.2"/>
	<path class="st10" d="M151.5,95.5l2.1-5.6c1.6-3.7,6.2-2.2,6.2-2.2s5.6,4.1,8.7,6.5s2.3,5.3,2.3,5.3s-3.5,9.8-4.8,13.4
		c-1.3,3.6-4.3,3-4.3,3s-63.2,4.3-72,5s-14.4-4.5-14.4-4.5s-4.8-4.5-7-6.6c-2.1-2.1-1.4-3.6-1.4-3.6l4-15.3c3.9-4.4,8.8-2.1,8.8-2.1
		s4,3.8,6.5,6.1c2.5,2.4,6.4,2.3,6.4,2.3L151.5,95.5z"/>
	<path class="st9" d="M154.7,88.4l-3.2-2.5c0,0-0.2-0.3-1.5-0.7c-1.3-0.4-2.9-0.8-2.9-0.8l-1.5-1.3l-0.8-3.4l-5.3-3.5l-2.9,0.3
		c0,0-4.6,0.3-5.3,6.1c0,0-1.6,5.5,1.3,9.2l4.1,3.4c0,0,2.4-0.2,2.7-0.2l1.8,1l2.9,1.4l8.7-0.3L154.7,88.4L154.7,88.4z"/>
	<path class="st10" d="M171,98.6"/>
	<path class="st10" d="M71,90.9l8.7,8.4c0,0,4.2,4.8,14.6,4.3"/>
	<path class="st9" d="M151.5,95.5l2.1-5.6c1.6-3.7,6.2-2.2,6.2-2.2s5.6,4.1,8.7,6.5s2.3,5.3,2.3,5.3s-3.5,9.8-4.8,13.4
		c-1.3,3.6-4.3,3-4.3,3s-63.2,4.3-72,5s-14.4-4.5-14.4-4.5s-4.8-4.5-7-6.6c-2.1-2.1-1.4-3.6-1.4-3.6l4-15.3c3.9-4.4,8.8-2.1,8.8-2.1
		s4,3.8,6.5,6.1c2.5,2.4,6.4,2.3,6.4,2.3L151.5,95.5z"/>
	<path class="st1" d="M171,98.6"/>
	<path class="st10" d="M62.7,74.5c0,0,3.4,0.7,5.9,4.2l0.8,4c0,0,3.4,1.8,1.8,4l2.3,2.2"/>
	<path class="st10" d="M63.5,76.5c1,0.7,2,1.5,2.2,2.3l0.8,4c0,0,3.4,1.8,1.8,4l3.4,3.1"/>
	<path class="st10" d="M67.2,104.5l-3.7-3.7l0.7-2.5l-1.4-1.1c0,0-1.1,1.2-3,0.3"/>
	<line class="st10" x1="65.7" y1="78.8" x2="68.6" y2="78.8"/>
	<line class="st10" x1="66.6" y1="82.8" x2="69.5" y2="82.8"/>
	<line class="st10" x1="68.4" y1="86.7" x2="71.3" y2="86.7"/>
	<path class="st10" d="M163.4,95.5l-70.6,1.8c0,0-3.9,0.1-6.4-2.3c-2.5-2.4-6.5-6.1-6.5-6.1s-5-2.2-8.8,2.1l-4,15.3
		c0,0-0.7,1.6,1.4,3.6c2.1,2.1,7,6.6,7,6.6s5.6,5.2,14.4,4.5s72-5,72-5s3,0.5,4.3-3c1.3-3.6,4.8-13.4,4.8-13.4s0.9-2.9-2.3-5.3
		s-8.7-6.5-8.7-6.5s-4.6-1.5-6.2,2.2l-2.1,5.6"/>
	<path class="st10" d="M154.7,88.4l-3.2-2.5c0,0-0.2-0.3-1.5-0.7c-1.3-0.4-2.9-0.8-2.9-0.8l-1.5-1.3l-0.8-3.4l-5.3-3.5l-2.1,0.3
		l5.3,3.5l0.8,3.4l1.5,1.3c0,0,1.6,0.4,2.9,0.8c1.3,0.4,1.5,0.7,1.5,0.7l4.4,3.4"/>
	<line class="st10" x1="146" y1="95.6" x2="149.3" y2="86.3"/>
	<path class="st10" d="M136.6,76.3c0,0-4.6,0.3-5.3,6.1c0,0-1.6,5.5,1.3,9.2l4.1,3.4c0,0,2.4-0.2,2.7-0.2l1.8,1"/>
	<ellipse class="st10" cx="136.7" cy="84.8" rx="2.4" ry="3"/>
	<line class="st10" x1="142.7" y1="79.8" x2="144.8" y2="79.5"/>
	<line class="st10" x1="143.6" y1="83.2" x2="145.7" y2="83"/>
	<line class="st10" x1="145" y1="84.6" x2="147.1" y2="84.3"/>
	<line class="st10" x1="147.1" y1="85.5" x2="143.8" y2="95.5"/>
	<path class="st10" d="M71,90.9l8.7,8.4c0,0,4.2,4.8,14.6,4.3s71.9-2.7,71.9-2.7s3.6,0.1,4.9-2.4"/>
	<path class="st1" d="M62.7,74.5c0,0,3.4,0.7,5.9,4.2l0.8,4c0,0,3.4,1.8,1.8,4l2.3,2.2"/>
	<path class="st1" d="M63.5,76.5c1,0.7,2,1.5,2.2,2.3l0.8,4c0,0,3.4,1.8,1.8,4l3.4,3.1"/>
	<path class="st1" d="M67.2,104.5l-3.7-3.7l0.7-2.5l-1.4-1.1c0,0-1.1,1.2-3,0.3"/>
	<line class="st1" x1="65.7" y1="78.8" x2="68.6" y2="78.8"/>
	<line class="st1" x1="66.6" y1="82.8" x2="69.5" y2="82.8"/>
	<line class="st1" x1="68.4" y1="86.7" x2="71.3" y2="86.7"/>
	<path class="st1" d="M163.4,95.5l-70.6,1.8c0,0-3.9,0.1-6.4-2.3c-2.5-2.4-6.5-6.1-6.5-6.1s-5-2.2-8.8,2.1l-4,15.3
		c0,0-0.7,1.6,1.4,3.6c2.1,2.1,7,6.6,7,6.6s5.6,5.2,14.4,4.5s72-5,72-5s3,0.5,4.3-3c1.3-3.6,4.8-13.4,4.8-13.4s0.9-2.9-2.3-5.3
		s-8.7-6.5-8.7-6.5s-4.6-1.5-6.2,2.2l-2.1,5.6"/>
	<path class="st1" d="M154.7,88.4l-3.2-2.5c0,0-0.2-0.3-1.5-0.7c-1.3-0.4-2.9-0.8-2.9-0.8l-1.5-1.3l-0.8-3.4l-5.3-3.5l-2.1,0.3
		l5.3,3.5l0.8,3.4l1.5,1.3c0,0,1.6,0.4,2.9,0.8c1.3,0.4,1.5,0.7,1.5,0.7l4.4,3.4"/>
	<line class="st1" x1="146" y1="95.6" x2="149.3" y2="86.3"/>
	<path class="st1" d="M136.6,76.3c0,0-4.6,0.3-5.3,6.1c0,0-1.6,5.5,1.3,9.2l4.1,3.4c0,0,2.4-0.2,2.7-0.2l1.8,1"/>
	<ellipse class="st1" cx="136.7" cy="84.8" rx="2.4" ry="3"/>
	<line class="st1" x1="142.7" y1="79.8" x2="144.8" y2="79.5"/>
	<line class="st1" x1="143.6" y1="83.2" x2="145.7" y2="83"/>
	<line class="st1" x1="145" y1="84.6" x2="147.1" y2="84.3"/>
	<line class="st1" x1="147.1" y1="85.5" x2="143.8" y2="95.5"/>
	<path class="st1" d="M71,90.9l8.7,8.4c0,0,4.2,4.8,14.6,4.3s71.9-2.7,71.9-2.7s3.6,0.1,4.9-2.4"/>
	<path class="st11" d="M140.4,118.6c-11.8,17.8-23.5,16.8-23.5,16.8l-24.2,1.8c0,0,12.7,0.7,24.4-17l-7.7,0.6l22.8-13.4l17.1,9.9
		L140.4,118.6z"/>
	<path d="M140.4,118.6c-11.8,17.8-23.9,17.5-23.9,17.5l-23.8,2.7c0,0,12.7-0.9,24.4-18.6l-7.7,0.6l22.8-13.4l17.1,9.9L140.4,118.6z"
		/>
	<line class="st12" x1="159.7" y1="47.2" x2="240.4" y2="40.4"/>
	<line class="st3" x1="159.7" y1="47.2" x2="240.4" y2="40.4"/>
	<line class="st13" x1="159.7" y1="124.1" x2="241.3" y2="131.7"/>
	<line class="st3" x1="159.7" y1="124.1" x2="241" y2="131.7"/>
	<g>
		<path d="M198.3,107.4l16-8.8l-2.9,6.8c0.3,0,0.6,0,1.1,0c5.7,0,18.9-2.2,18.9-22.4v-0.4h1V96c0,19.6-13.5,22.5-21.6,22.5
			c-2.1,0-3.7-0.2-4.5-0.3l-4.1,8.7L198.3,107.4z"/>
		<path class="st9" d="M231.9,82.6c0,0,0,4.6,0,13.3c0,19.3-13.6,22-21.1,22c-2.8,0-4.8-0.4-4.8-0.4l-3.6,7.6l-3.5-17.4l14.3-7.9
			l-2.6,6.1c0,0,0.7,0.1,1.8,0.1c5.1,0,19.4-1.9,19.4-23C231.9,82.7,231.9,82.6,231.9,82.6 M232.9,82.6h-2.1V83
			c0,19.8-12.9,21.9-18.4,21.9c-0.1,0-0.2,0-0.3,0l2-4.7l1.2-2.8l-2.7,1.5l-14.3,7.9l-0.7,0.4l0.2,0.8l3.5,17.4l0.6,3.1l1.4-2.8
			l3.3-6.9c0.9,0.1,2.3,0.3,4.2,0.3c3.8,0,9.4-0.7,13.9-3.9c5.4-3.9,8.2-10.3,8.2-19.1V82.6L232.9,82.6z"/>
	</g>
	<polygon points="136.9,139.3 70.7,146.6 96.7,148.4 162.9,141 	"/>
	<polygon points="176.8,142.6 113.7,149.7 135,151.2 137.9,151.2 200.5,144 	"/>
	<polygon points="216.3,146 155.2,153.2 242.8,155.3 	"/>
</g>
<g>
	<circle class="st14" cx="29" cy="167.3" r="11.3"/>
	<g>
		<text transform="matrix(1 0 0 1 24.2736 172.8348)" class="st9 st15 st16">3</text>
	</g>
</g>
<g>
	<circle class="st14" cx="213.3" cy="62.9" r="11.3"/>
	<g>
		<text transform="matrix(1 0 0 1 208.516 68.4546)" class="st9 st15 st16">4</text>
	</g>
</g>
<g>
	<circle class="st14" cx="376.3" cy="23.7" r="11.3"/>
	<g>
		<text transform="matrix(1 0 0 1 371.5482 29.2323)" class="st9 st15 st16">2</text>
	</g>
</g>
<g>
	<circle class="st14" cx="321.7" cy="168.7" r="11.3"/>
	<g>
		<text transform="matrix(1 0 0 1 316.962 174.2094)" class="st9 st15 st16">1</text>
	</g>
</g>
<g>
	<line class="st17" x1="367.6" y1="34.2" x2="340.6" y2="53.1"/>
	<line class="st18" x1="367.6" y1="34.2" x2="340.6" y2="53.1"/>
</g>
<g>
	<line class="st17" x1="295" y1="142.7" x2="312.2" y2="158.4"/>
	<line class="st18" x1="295" y1="142.7" x2="312.2" y2="158.4"/>
</g>
<g>
	<line class="st17" x1="67.5" y1="140.5" x2="40.6" y2="159.4"/>
	<line class="st18" x1="67.5" y1="140.5" x2="40.6" y2="159.4"/>
</g>
<g>
	<g>
		<g>
			<path class="st1" d="M248.2,43.1c-1.1,0-2-1.8-2-4.1c0-2.2,0.9-4,2-4"/>
			<path class="st1" d="M246,43.3c-1.1,0-2-1.8-2-4.1c0-2.2,0.9-4,2-4"/>
			<path class="st1" d="M249.4,34.9l-5.6,0.6c-1.1,0-2,1.8-2,4c0,2.2,0.9,4,2,4.1l5.6-0.4"/>
		</g>
		<g>
			
				<ellipse transform="matrix(0.9995 -3.177129e-02 3.177129e-02 0.9995 -1.0264 9.222)" class="st19" cx="289.7" cy="36.9" rx="4.2" ry="7.7"/>
			<path class="st19" d="M289.3,29.3l-9.9,0c-2.3,0.1-4.1,3.6-3.9,7.8c0.1,4.2,2.1,7.6,4.4,7.5l10,0"/>
		</g>
		
			<ellipse transform="matrix(0.9995 -3.177129e-02 3.177129e-02 0.9995 -1.0263 9.2329)" class="st20" cx="290" cy="36.9" rx="2.5" ry="4.5"/>
		<line class="st20" x1="288.7" y1="33.2" x2="291.9" y2="40.2"/>
		<line class="st20" x1="288.4" y1="40.3" x2="291.9" y2="34.2"/>
	</g>
	<line class="st20" x1="277.6" y1="30.4" x2="286.9" y2="30.4"/>
	<line class="st20" x1="276.8" y1="31.5" x2="286.2" y2="31.5"/>
	<line class="st20" x1="276.3" y1="32.6" x2="285.6" y2="32.6"/>
	<line class="st20" x1="276" y1="33.7" x2="285.4" y2="33.7"/>
	<line class="st20" x1="275.9" y1="34.8" x2="285.2" y2="34.8"/>
	<line class="st20" x1="275.8" y1="35.9" x2="285.2" y2="35.9"/>
	<line class="st20" x1="275.7" y1="37" x2="285.1" y2="37"/>
	<line class="st20" x1="275.8" y1="38.1" x2="285.2" y2="38.1"/>
	<line class="st20" x1="276.1" y1="39.2" x2="285.4" y2="39.2"/>
	<line class="st20" x1="276.2" y1="40.3" x2="285.6" y2="40.3"/>
	<line class="st20" x1="276.6" y1="41.4" x2="286" y2="41.4"/>
	<line class="st20" x1="277.1" y1="42.5" x2="286.5" y2="42.5"/>
	<line class="st20" x1="278.2" y1="43.6" x2="287.6" y2="43.6"/>
</g>
<g>
	<g>
		<path class="st1" d="M249.8,137.1c-1.1-0.2-1.7-2.1-1.4-4.4c0.3-1.8,1.1-3.2,1.9-3.6"/>
		<path class="st1" d="M247.6,136.9c-1.1-0.2-1.7-2.1-1.4-4.4c0.3-2.2,1.5-3.9,2.5-3.7"/>
		<path class="st1" d="M245.4,136.8c-1.1-0.2-1.7-2.1-1.4-4.4c0.3-2.2,1.5-3.9,2.5-3.7"/>
		<path class="st1" d="M250.6,137.3l-7.4-0.7c-1.1-0.2-1.7-2.1-1.4-4.4c0.3-2.2,1.5-3.9,2.5-3.7l6.2,0.5"/>
	</g>
	<path class="st1" d="M281.1,129.2"/>
	<path class="st1" d="M271.2,128.2"/>
	<g>
		<g>
			
				<ellipse transform="matrix(4.948759e-02 -0.9988 0.9988 4.948759e-02 137.9356 418.4823)" class="st19" cx="288.8" cy="136.8" rx="7.7" ry="4.2"/>
			<path class="st19" d="M289.1,129.1l-9.9-0.8c-2.3-0.1-4.4,3.2-4.6,7.4c-0.2,4.2,1.5,7.7,3.8,7.8l10,0.8"/>
		</g>
		
			<ellipse transform="matrix(4.948759e-02 -0.9988 0.9988 4.948759e-02 138.2338 418.8531)" class="st20" cx="289.2" cy="136.8" rx="4.5" ry="2.5"/>
		<line class="st20" x1="288.2" y1="133" x2="290.8" y2="140.2"/>
		<line class="st20" x1="287.3" y1="140.1" x2="291.3" y2="134.2"/>
		<line class="st20" x1="277.3" y1="129.3" x2="286.6" y2="130.1"/>
		<line class="st20" x1="276.5" y1="130.4" x2="285.8" y2="131.1"/>
		<line class="st20" x1="275.8" y1="131.4" x2="285.2" y2="132.2"/>
		<line class="st20" x1="275.5" y1="132.5" x2="284.8" y2="133.3"/>
		<line class="st20" x1="275.2" y1="133.6" x2="284.5" y2="134.3"/>
		<line class="st20" x1="275.1" y1="134.7" x2="284.4" y2="135.4"/>
		<line class="st20" x1="274.9" y1="135.8" x2="284.3" y2="136.5"/>
		<line class="st20" x1="274.9" y1="136.9" x2="284.2" y2="137.6"/>
		<line class="st20" x1="275.1" y1="138" x2="284.4" y2="138.7"/>
		<line class="st20" x1="275.2" y1="139.1" x2="284.5" y2="139.8"/>
		<line class="st20" x1="275.5" y1="140.2" x2="284.8" y2="141"/>
		<line class="st20" x1="275.9" y1="141.3" x2="285.2" y2="142.1"/>
		<line class="st20" x1="276.9" y1="142.5" x2="286.2" y2="143.3"/>
	</g>
</g>
</svg>
