<?xml version="1.0" encoding="utf-8"?>
<!-- Generator: Adobe Illustrator 26.0.3, SVG Export Plug-In . SVG Version: 6.00 Build 0)  -->
<svg version="1.1" id="Layer_1" xmlns="http://www.w3.org/2000/svg" xmlns:xlink="http://www.w3.org/1999/xlink" x="0px" y="0px"
	 viewBox="0 0 171.4 155.7" style="enable-background:new 0 0 171.4 155.7;" xml:space="preserve">
<style type="text/css">
	.st0{clip-path:url(#SVGID_00000170255580137699861570000005565644526512421012_);fill:#E6E6E6;}
	.st1{clip-path:url(#SVGID_00000003094159410961079270000003829621859641061542_);fill:#808080;}
	.st2{clip-path:url(#SVGID_00000137100903123713854950000010056908807486920123_);}
	.st3{fill:#B3B3B3;}
	.st4{fill:#E6E6E6;}
	.st5{fill:#272626;}
	.st6{fill:none;stroke:#010101;stroke-width:0.5605;stroke-miterlimit:10;}
	.st7{fill:none;stroke:#E6E6E6;stroke-width:0.5605;stroke-miterlimit:10;}
	.st8{clip-path:url(#SVGID_00000001627129936077234040000015528361170164424586_);}
	.st9{clip-path:url(#SVGID_00000084496784246996562630000002049214432251721140_);}
	.st10{clip-path:url(#SVGID_00000095309950195445945030000011804818967384252076_);}
	.st11{clip-path:url(#SVGID_00000147187433796862758470000001237585649043447210_);}
	.st12{clip-path:url(#SVGID_00000182500331485437923380000001080780358783904151_);}
	.st13{clip-path:url(#SVGID_00000010270497889544092370000009256553713085601687_);}
	
		.st14{clip-path:url(#SVGID_00000088090551476489650650000003930639260975633811_);fill:none;stroke:#FFFFFF;stroke-width:2.242;stroke-linecap:round;stroke-linejoin:round;stroke-miterlimit:10;}
	
		.st15{clip-path:url(#SVGID_00000113329761048585327050000003319525692482914713_);fill:none;stroke:#B3B3B3;stroke-width:0.8407;stroke-linecap:round;stroke-linejoin:round;stroke-miterlimit:10;stroke-dasharray:1.6815;}
	.st16{clip-path:url(#SVGID_00000007430258022456500470000007146415844476176544_);}
	.st17{fill:#404040;}
	.st18{fill:#FFFFFF;}
	.st19{fill-rule:evenodd;clip-rule:evenodd;fill:#FFFFFF;}
	.st20{fill:none;stroke:#4E4F4F;stroke-width:0.2802;stroke-miterlimit:10;}
	.st21{clip-path:url(#SVGID_00000103250914249109579180000005804948461961659540_);}
	.st22{fill:#4E4F4F;}
	
		.st23{clip-path:url(#SVGID_00000023269152567672719710000001640450664797445019_);fill:none;stroke:#231F20;stroke-width:0.5605;stroke-linecap:round;stroke-linejoin:round;stroke-miterlimit:10;}
	.st24{fill:#FFFFFF;stroke:#FFFFFF;stroke-width:1.6815;stroke-linecap:round;stroke-linejoin:round;stroke-miterlimit:10;}
	.st25{fill:#EE7623;}
	.st26{fill-rule:evenodd;clip-rule:evenodd;fill:#DDDDDD;}
	.st27{fill:none;}
	.st28{fill-rule:evenodd;clip-rule:evenodd;fill:#747474;}
	.st29{fill-rule:evenodd;clip-rule:evenodd;fill:#4E4F4F;}
	.st30{fill:none;stroke:#333333;stroke-width:4.523504e-02;stroke-linecap:round;stroke-linejoin:round;stroke-miterlimit:10;}
	.st31{fill:none;stroke:#4E4F4F;stroke-width:0.2716;stroke-miterlimit:10;}
	.st32{fill:#99CA3C;}
	.st33{fill:none;stroke:#FFFFFF;stroke-width:1.6815;stroke-linecap:round;stroke-linejoin:round;stroke-miterlimit:10;}
	.st34{fill:none;stroke:#231F20;stroke-width:0.5605;stroke-linecap:round;stroke-linejoin:round;stroke-miterlimit:10;}
	.st35{fill-rule:evenodd;clip-rule:evenodd;fill:#010101;}
	.st36{enable-background:new    ;}
</style>
<g id="Layer_1_copy">
	<g>
		<g>
			<g>
				<defs>
					<rect id="SVGID_1_" x="-20" y="-7.4" width="186.9" height="154.6"/>
				</defs>
				<clipPath id="SVGID_00000151511000352077854010000010819261667011113362_">
					<use xlink:href="#SVGID_1_"  style="overflow:visible;"/>
				</clipPath>
				
					<rect x="69.7" y="25.2" style="clip-path:url(#SVGID_00000151511000352077854010000010819261667011113362_);fill:#E6E6E6;" width="494.6" height="96.6"/>
			</g>
			<g>
				<defs>
					<rect id="SVGID_00000127032894094627788470000008389088437425252507_" x="-20" y="-7.4" width="186.9" height="154.6"/>
				</defs>
				<clipPath id="SVGID_00000085959517931652704340000011061282414297619337_">
					<use xlink:href="#SVGID_00000127032894094627788470000008389088437425252507_"  style="overflow:visible;"/>
				</clipPath>
				
					<rect x="71.1" y="29.4" style="clip-path:url(#SVGID_00000085959517931652704340000011061282414297619337_);fill:#808080;" width="488.5" height="88.6"/>
			</g>
			<g>
				<defs>
					<rect id="SVGID_00000123424920246095275210000008785558181783429762_" x="-20" y="-7.4" width="186.9" height="154.6"/>
				</defs>
				<clipPath id="SVGID_00000182485927383236922700000008145770730809486471_">
					<use xlink:href="#SVGID_00000123424920246095275210000008785558181783429762_"  style="overflow:visible;"/>
				</clipPath>
				<g style="clip-path:url(#SVGID_00000182485927383236922700000008145770730809486471_);">
					<rect x="75.1" y="31.2" class="st3" width="15.2" height="5.9"/>
					<path class="st4" d="M75.1,36.5c0,0,7.9-4.3,15.2,0V116H75L75.1,36.5z"/>
					<path class="st5" d="M82.6,89.7L82.6,89.7c-3.2,0-5.8-2.6-5.8-5.8V64.7c0-3.2,2.6-5.8,5.8-5.8l0,0c3.2,0,5.8,2.6,5.8,5.8v19.2
						C88.5,87.1,85.9,89.7,82.6,89.7z"/>
					<circle class="st5" cx="82.6" cy="44.2" r="2.4"/>
					<line class="st6" x1="75" y1="51.4" x2="90.3" y2="51.4"/>
					<line class="st7" x1="77.1" y1="64.7" x2="88.2" y2="64.7"/>
					<rect x="80.2" y="95.3" class="st3" width="4.9" height="13.3"/>
				</g>
			</g>
			<g>
				<defs>
					<rect id="SVGID_00000151544281356965298140000008237284957872099464_" x="-20" y="-7.4" width="186.9" height="154.6"/>
				</defs>
				<clipPath id="SVGID_00000154427499017441219150000018231733955682947765_">
					<use xlink:href="#SVGID_00000151544281356965298140000008237284957872099464_"  style="overflow:visible;"/>
				</clipPath>
				<g style="clip-path:url(#SVGID_00000154427499017441219150000018231733955682947765_);">
					<rect x="95.3" y="31.2" class="st3" width="15.2" height="5.9"/>
					<path class="st4" d="M95.2,36.5c0,0,7.9-4.3,15.2,0V116H95.2V36.5z"/>
					<path class="st5" d="M102.8,89.7L102.8,89.7c-3.2,0-5.8-2.6-5.8-5.8V64.7c0-3.2,2.6-5.8,5.8-5.8l0,0c3.2,0,5.8,2.6,5.8,5.8
						v19.2C108.7,87.1,106,89.7,102.8,89.7z"/>
					<circle class="st5" cx="102.8" cy="44.2" r="2.4"/>
					<line class="st6" x1="95.2" y1="51.4" x2="110.4" y2="51.4"/>
					<line class="st7" x1="97.3" y1="64.7" x2="108.4" y2="64.7"/>
					<rect x="100.4" y="95.3" class="st3" width="4.9" height="13.3"/>
				</g>
			</g>
			<g>
				<defs>
					<rect id="SVGID_00000088853590455945118910000005828074924024884353_" x="-20" y="-7.4" width="186.9" height="154.6"/>
				</defs>
				<clipPath id="SVGID_00000046324898262421908610000018394509561990760095_">
					<use xlink:href="#SVGID_00000088853590455945118910000005828074924024884353_"  style="overflow:visible;"/>
				</clipPath>
				<g style="clip-path:url(#SVGID_00000046324898262421908610000018394509561990760095_);">
					<rect x="115.4" y="31.2" class="st3" width="15.2" height="5.9"/>
					<path class="st4" d="M115.4,36.5c0,0,7.9-4.3,15.2,0V116h-15.3L115.4,36.5z"/>
					<path class="st5" d="M123,89.7L123,89.7c-3.2,0-5.8-2.6-5.8-5.8V64.7c0-3.2,2.6-5.8,5.8-5.8l0,0c3.2,0,5.8,2.6,5.8,5.8v19.2
						C128.8,87.1,126.2,89.7,123,89.7z"/>
					<circle class="st5" cx="123" cy="44.2" r="2.4"/>
					<line class="st6" x1="115.3" y1="51.4" x2="130.6" y2="51.4"/>
					<line class="st7" x1="117.4" y1="64.7" x2="128.5" y2="64.7"/>
					<rect x="120.5" y="95.3" class="st3" width="4.9" height="13.3"/>
				</g>
			</g>
			<g>
				<defs>
					<rect id="SVGID_00000043449078690072083540000008415931065109318529_" x="-20" y="-7.4" width="186.9" height="154.6"/>
				</defs>
				<clipPath id="SVGID_00000044178137293734139300000010922076653203025078_">
					<use xlink:href="#SVGID_00000043449078690072083540000008415931065109318529_"  style="overflow:visible;"/>
				</clipPath>
				<g style="clip-path:url(#SVGID_00000044178137293734139300000010922076653203025078_);">
					<rect x="135.6" y="31.2" class="st3" width="15.2" height="5.9"/>
					<path class="st4" d="M135.6,36.5c0,0,7.9-4.3,15.2,0V116h-15.3L135.6,36.5z"/>
					<path class="st5" d="M143.1,89.7L143.1,89.7c-3.2,0-5.8-2.6-5.8-5.8V64.7c0-3.2,2.6-5.8,5.8-5.8l0,0c3.2,0,5.8,2.6,5.8,5.8
						v19.2C149,87.1,146.3,89.7,143.1,89.7z"/>
					<circle class="st5" cx="143.1" cy="44.2" r="2.4"/>
					<line class="st6" x1="135.5" y1="51.4" x2="150.7" y2="51.4"/>
					<line class="st7" x1="137.6" y1="64.7" x2="148.7" y2="64.7"/>
					<rect x="140.7" y="95.3" class="st3" width="4.9" height="13.3"/>
				</g>
			</g>
			<g>
				<defs>
					<rect id="SVGID_00000176011619831810397860000011312386757194137778_" x="-20" y="-7.4" width="186.9" height="154.6"/>
				</defs>
				<clipPath id="SVGID_00000107548506978389580900000004719329904761479078_">
					<use xlink:href="#SVGID_00000176011619831810397860000011312386757194137778_"  style="overflow:visible;"/>
				</clipPath>
				<g style="clip-path:url(#SVGID_00000107548506978389580900000004719329904761479078_);">
					<rect x="155.7" y="31.2" class="st3" width="15.2" height="5.9"/>
					<path class="st4" d="M155.7,36.5c0,0,7.9-4.3,15.2,0V116h-15.3L155.7,36.5z"/>
					<path class="st5" d="M163.3,89.7L163.3,89.7c-3.2,0-5.8-2.6-5.8-5.8V64.7c0-3.2,2.6-5.8,5.8-5.8l0,0c3.2,0,5.8,2.6,5.8,5.8
						v19.2C169.1,87.1,166.5,89.7,163.3,89.7z"/>
					<circle class="st5" cx="163.3" cy="44.2" r="2.4"/>
					<line class="st6" x1="155.7" y1="51.4" x2="170.9" y2="51.4"/>
					<line class="st7" x1="157.7" y1="64.7" x2="168.8" y2="64.7"/>
					<rect x="160.8" y="95.3" class="st3" width="4.9" height="13.3"/>
				</g>
			</g>
			<g>
				<defs>
					<rect id="SVGID_00000038375779106738572810000009712444588326544524_" x="-20" y="-7.4" width="186.9" height="154.6"/>
				</defs>
				<clipPath id="SVGID_00000127003211343950562980000001613827905461803175_">
					<use xlink:href="#SVGID_00000038375779106738572810000009712444588326544524_"  style="overflow:visible;"/>
				</clipPath>
				<g style="clip-path:url(#SVGID_00000127003211343950562980000001613827905461803175_);">
					<rect x="175.9" y="31.2" class="st3" width="15.2" height="5.9"/>
					<path class="st4" d="M175.9,36.5c0,0,7.9-4.3,15.2,0V116h-15.3L175.9,36.5z"/>
					<path class="st5" d="M183.5,89.7L183.5,89.7c-3.2,0-5.8-2.6-5.8-5.8V64.7c0-3.2,2.6-5.8,5.8-5.8l0,0c3.2,0,5.8,2.6,5.8,5.8
						v19.2C189.3,87.1,186.7,89.7,183.5,89.7z"/>
					<circle class="st5" cx="183.5" cy="44.2" r="2.4"/>
					<line class="st6" x1="175.8" y1="51.4" x2="191.1" y2="51.4"/>
					<line class="st7" x1="177.9" y1="64.7" x2="189" y2="64.7"/>
					<rect x="181" y="95.3" class="st3" width="4.9" height="13.3"/>
				</g>
			</g>
			<g>
				<defs>
					<rect id="SVGID_00000152257410166177890660000005857391054901793703_" x="-20" y="-7.4" width="186.9" height="154.6"/>
				</defs>
				<clipPath id="SVGID_00000071539975339701142600000016847669758224311467_">
					<use xlink:href="#SVGID_00000152257410166177890660000005857391054901793703_"  style="overflow:visible;"/>
				</clipPath>
				<g style="clip-path:url(#SVGID_00000071539975339701142600000016847669758224311467_);">
					<rect x="196.1" y="31.2" class="st3" width="15.2" height="5.9"/>
					<path class="st4" d="M196,36.5c0,0,7.9-4.3,15.2,0V116H196V36.5z"/>
					<path class="st5" d="M203.6,89.7L203.6,89.7c-3.2,0-5.8-2.6-5.8-5.8V64.7c0-3.2,2.6-5.8,5.8-5.8l0,0c3.2,0,5.8,2.6,5.8,5.8
						v19.2C209.5,87.1,206.8,89.7,203.6,89.7z"/>
					<circle class="st5" cx="203.6" cy="44.2" r="2.4"/>
					<line class="st6" x1="196" y1="51.4" x2="211.2" y2="51.4"/>
					<line class="st7" x1="198.1" y1="64.7" x2="209.2" y2="64.7"/>
					<rect x="201.2" y="95.3" class="st3" width="4.9" height="13.3"/>
				</g>
			</g>
			<g>
				<defs>
					<rect id="SVGID_00000069368943670986553500000003702354339358126726_" x="-20" y="-7.4" width="186.9" height="154.6"/>
				</defs>
				<clipPath id="SVGID_00000033347039115737660440000005327569509973257361_">
					<use xlink:href="#SVGID_00000069368943670986553500000003702354339358126726_"  style="overflow:visible;"/>
				</clipPath>
				
					<path style="clip-path:url(#SVGID_00000033347039115737660440000005327569509973257361_);fill:none;stroke:#FFFFFF;stroke-width:2.242;stroke-linecap:round;stroke-linejoin:round;stroke-miterlimit:10;" d="
					M71.4,123.8h-26V23.3h26C71.4,23.3,76.6,68.1,71.4,123.8z"/>
			</g>
			<g>
				<defs>
					<rect id="SVGID_00000181071200662023127550000009386645843901755533_" x="-20" y="-7.4" width="186.9" height="154.6"/>
				</defs>
				<clipPath id="SVGID_00000026134157551869173100000001154219724612731048_">
					<use xlink:href="#SVGID_00000181071200662023127550000009386645843901755533_"  style="overflow:visible;"/>
				</clipPath>
				
					<path style="clip-path:url(#SVGID_00000026134157551869173100000001154219724612731048_);fill:none;stroke:#B3B3B3;stroke-width:0.8407;stroke-linecap:round;stroke-linejoin:round;stroke-miterlimit:10;stroke-dasharray:1.6815;" d="
					M71.4,123.8h-26V23.3h26C71.4,23.3,76.6,68.1,71.4,123.8z"/>
			</g>
			<g>
				<defs>
					<rect id="SVGID_00000112611031868846241180000011120575064833192377_" x="-20" y="-7.4" width="186.9" height="154.6"/>
				</defs>
				<clipPath id="SVGID_00000094594479345832493100000004131925064049281439_">
					<use xlink:href="#SVGID_00000112611031868846241180000011120575064833192377_"  style="overflow:visible;"/>
				</clipPath>
				<g style="clip-path:url(#SVGID_00000094594479345832493100000004131925064049281439_);">
					<path class="st5" d="M33.5,130.5H8.3V30h25.3C33.5,30,38.7,74.8,33.5,130.5z"/>
					<path class="st17" d="M32.8,130.5l-1.7,1l-23.5-1L5.1,31l2.5-1h25.3c0,0,0.2,1.5,0.4,4.2C34.3,46.5,37,84.9,32.8,130.5z"/>
					<polygon class="st18" points="30.5,90.9 15.5,90.9 15.5,81.8 22.9,81.8 30.5,81.8 					"/>
					<circle class="st18" cx="22.7" cy="56.8" r="2"/>
					<circle class="st18" cx="22.7" cy="63.7" r="2"/>
					<circle class="st18" cx="22.7" cy="70.5" r="2"/>
					<path class="st19" d="M28.8,61.9c0-0.3-0.2-0.4-0.4-0.4c-0.2,0-0.4,0.2-0.4,0.4l0.3,2.4c0,0.1,0.1,0.1,0.1,0.1
						c0.1,0,0.1-0.1,0.1-0.1L28.8,61.9 M28.8,65.3c0-0.3-0.2-0.5-0.5-0.5s-0.5,0.2-0.5,0.5c0,0.2,0.2,0.4,0.5,0.4
						C28.6,65.7,28.8,65.5,28.8,65.3z"/>
					<line class="st20" x1="23.2" y1="91.9" x2="23.2" y2="80.2"/>
					<path class="st19" d="M30.3,56.2c-0.3-1-1.4-1.6-2.4-1.4c-1.1,0.3-1.7,1.4-1.4,2.5c0.3,1,1.4,1.6,2.5,1.4
						C30,58.4,30.6,57.3,30.3,56.2 M30,56.6c0.1,0.8-0.5,1.7-1.4,1.8c-0.7,0.1-1.4-0.3-1.6-0.9l1.1-1.1l0.5,1.8L30,56.6z M26.8,57
						c-0.1-0.9,0.5-1.8,1.4-1.8c0.7-0.1,1.4,0.3,1.7,0.9l-1.1,1.1l-0.5-1.8L26.8,57z"/>
					<path class="st19" d="M30.4,70.4c0-1.1-0.9-2-2-2s-2,0.9-2,2c0,1.2,0.9,2,2,2C29.5,72.5,30.4,71.6,30.4,70.4z M29.9,70.4
						c0,0.9-0.7,1.5-1.5,1.5s-1.5-0.6-1.5-1.5c0-0.8,0.7-1.5,1.5-1.5C29.2,68.9,29.9,69.6,29.9,70.4z M28.7,70
						c0,0.2-0.1,0.3-0.3,0.3c-0.2,0-0.3-0.1-0.3-0.3s0.1-0.3,0.3-0.3C28.5,69.7,28.7,69.8,28.7,70z M27.7,70.4l0.6,1.2
						c0,0,0.1,0.1,0.1,0l0.6-1.2c0.2-0.4,0-0.8-0.3-1c-0.4-0.2-0.8-0.1-1,0.3C27.6,69.9,27.6,70.2,27.7,70.4z"/>
				</g>
			</g>
			<g>
				<defs>
					<rect id="SVGID_00000091014390623998003330000002671752007263403454_" x="-20" y="-7.4" width="186.9" height="154.6"/>
				</defs>
				<clipPath id="SVGID_00000183936552815296801980000002975399380865570951_">
					<use xlink:href="#SVGID_00000091014390623998003330000002671752007263403454_"  style="overflow:visible;"/>
				</clipPath>
				<g style="clip-path:url(#SVGID_00000183936552815296801980000002975399380865570951_);">
					<path class="st5" d="M31.1,131.5H5.8V31h25.3C31.1,31,36.3,75.8,31.1,131.5z"/>
					<path class="st22" d="M30.3,131.5H5.1V31h25.3C30.3,31,35.5,75.8,30.3,131.5z"/>
					<polygon class="st18" points="28.1,91.8 13,91.8 13,82.8 20.4,82.8 28.1,82.8 					"/>
					<circle class="st18" cx="15.9" cy="62.7" r="2"/>
					<circle class="st18" cx="15.9" cy="69.5" r="2"/>
					<circle class="st18" cx="15.9" cy="76.3" r="2"/>
					<path class="st19" d="M22,67.7c0-0.3-0.2-0.4-0.4-0.4c-0.2,0-0.4,0.2-0.4,0.4l0.3,2.4c0,0.1,0.1,0.1,0.1,0.1
						c0.1,0,0.1-0.1,0.1-0.1L22,67.7 M22.1,71.2c0-0.3-0.2-0.5-0.5-0.5s-0.5,0.2-0.5,0.5c0,0.2,0.2,0.4,0.5,0.4S22.1,71.4,22.1,71.2
						z"/>
					<line class="st20" x1="20.7" y1="92.9" x2="20.7" y2="81.2"/>
					<path class="st19" d="M23.5,62.1c-0.3-1-1.4-1.6-2.4-1.4c-1.1,0.3-1.7,1.4-1.4,2.5c0.3,1,1.4,1.6,2.5,1.4
						C23.2,64.2,23.8,63.1,23.5,62.1 M23.2,62.5c0.1,0.8-0.5,1.7-1.4,1.8c-0.7,0.1-1.4-0.3-1.6-0.9l1.1-1.1l0.5,1.8L23.2,62.5z
						 M20,62.9c-0.1-0.9,0.5-1.8,1.4-1.8c0.7-0.1,1.4,0.3,1.7,0.9L22,63.1l-0.5-1.8L20,62.9z"/>
					<path class="st19" d="M23.6,76.3c0-1.1-0.9-2-2-2s-2,0.9-2,2c0,1.2,0.9,2,2,2S23.6,77.4,23.6,76.3z M23.1,76.3
						c0,0.9-0.7,1.5-1.5,1.5s-1.5-0.6-1.5-1.5c0-0.8,0.7-1.5,1.5-1.5S23.1,75.4,23.1,76.3z M21.9,75.9c0,0.2-0.1,0.3-0.3,0.3
						c-0.2,0-0.3-0.1-0.3-0.3c0-0.2,0.1-0.3,0.3-0.3S21.9,75.7,21.9,75.9z M20.9,76.3l0.6,1.2c0,0,0.1,0.1,0.1,0l0.6-1.2
						c0.2-0.4,0-0.8-0.3-1c-0.4-0.2-0.8-0.1-1,0.3C20.8,75.8,20.8,76,20.9,76.3z"/>
				</g>
			</g>
			<g>
				<defs>
					<rect id="SVGID_00000016760418913925268040000010781456182479800967_" x="-20" y="-7.4" width="186.9" height="154.6"/>
				</defs>
				<clipPath id="SVGID_00000160878142895616465310000014082641353319746227_">
					<use xlink:href="#SVGID_00000016760418913925268040000010781456182479800967_"  style="overflow:visible;"/>
				</clipPath>
				
					<line style="clip-path:url(#SVGID_00000160878142895616465310000014082641353319746227_);fill:none;stroke:#231F20;stroke-width:0.5605;stroke-linecap:round;stroke-linejoin:round;stroke-miterlimit:10;" x1="13.9" y1="20.4" x2="18.5" y2="28.2"/>
			</g>
		</g>
	</g>
</g>
<g id="Layer_2_00000148648040545917627620000002768414305392224938_">
	<g>
		<polygon class="st24" points="50.2,35.1 42.2,39.2 42.1,42 35.9,39.8 41.6,31.7 41.5,35.3 50.3,30.4 		"/>
		<polygon class="st25" points="50.2,35.1 42.2,39.2 42.1,42 35.9,39.8 41.6,31.7 41.5,35.3 50.3,30.4 		"/>
	</g>
	<g>
		<g>
			<path class="st26" d="M54.8,53c-1.9,0-3.5-1.6-3.5-3.5s1.6-3.5,3.5-3.5h4.3c1.9,0,3.5,1.6,3.5,3.5S61,53,59.1,53H54.8z"/>
			<path class="st4" d="M63.2,121.8h6.4V27H67v-0.5c0-0.5-0.4-0.9-0.8-0.9H64c-0.5,0-0.9,0.4-0.9,0.9v2.4h-9.6v-2.4
				c0-0.5-0.4-0.9-0.9-0.9h-4.3c-0.4,0-0.7,0.3-0.7,0.7v94.8c0,0.4,0.3,0.7,0.7,0.7h5.1v-2.1H63v2.1H63.2z"/>
			<g>
				<ellipse class="st18" cx="57.8" cy="98.8" rx="7.1" ry="7.1"/>
				<path class="st18" d="M54.8,53c-1.9,0-3.5-1.6-3.5-3.5s1.6-3.5,3.5-3.5h4.3c1.9,0,3.5,1.6,3.5,3.5S61,53,59.1,53H54.8z"/>
			</g>
			<path d="M56.2,39.1c0-1.3,1.1-2.4,2.5-2.4s2.4,1.1,2.4,2.4c0,1.4-1.1,2.5-2.4,2.5C57.3,41.6,56.2,40.5,56.2,39.1z"/>
			<path d="M56.2,112.1c0-1.4,1.1-2.4,2.5-2.4s2.4,1.1,2.4,2.4c0,1.4-1.1,2.4-2.4,2.4C57.3,114.6,56.2,113.5,56.2,112.1z"/>
			<path class="st27" d="M57.4,54.7L57.4,54.7L57.4,54.7"/>
			<path class="st27" d="M52.7,54.7L52.7,54.7L52.7,54.7"/>
			<path class="st27" d="M64.6,92c0-0.8,0.6-1.4,1.4-1.4s1.4,0.6,1.4,1.4s-0.6,1.4-1.4,1.4C65.3,93.4,64.6,92.7,64.6,92"/>
			<path class="st27" d="M66,91h-0.2c-0.3,0.1-0.6,0.4-0.7,0.7v0.5l0,0v0.1l0,0v0.1l0,0l0,0v0.1l0,0l0.1,0.1l0.3,0.1h0.1H66l0,0h0.1
				l0.3-0.1l0.2-0.2l0.1-0.2v-0.1v-0.5l0,0v-0.1l0,0l0,0v-0.1l0,0l0,0v-0.1l0,0h-0.1l-0.1-0.1h-0.1h-0.1h-0.2"/>
			<path class="st28" d="M52.5,87.7h14.9c0.2,0,0.4-0.2,0.4-0.4V77.1c0-0.2-0.2-0.4-0.4-0.4H52.5c-0.2,0-0.4,0.2-0.4,0.4v10.2
				C52.1,87.5,52.2,87.7,52.5,87.7"/>
			<path class="st27" d="M52.5,87.7h14.9c0.2,0,0.4-0.2,0.4-0.4V77.1c0-0.2-0.2-0.4-0.4-0.4H52.5c-0.2,0-0.4,0.2-0.4,0.4v10.2
				C52.1,87.5,52.2,87.7,52.5,87.7z"/>
			<path class="st29" d="M68.7,75.7V55.3c0-0.3-0.3-0.5-0.6-0.5H52c-0.4,0-0.6,0.2-0.6,0.5v20.4c0,0.3,0.3,0.5,0.6,0.5h16.1
				C68.5,76.2,68.7,76,68.7,75.7"/>
			<path class="st27" d="M68.7,75.7V55.3c0-0.3-0.3-0.5-0.6-0.5H52c-0.4,0-0.6,0.2-0.6,0.5v20.4c0,0.3,0.3,0.5,0.6,0.5h16.1
				C68.5,76.2,68.7,76,68.7,75.7z"/>
			<path class="st19" d="M62.4,57.2c-0.3-0.9-1.4-1.4-2.3-1.1c-0.9,0.3-1.5,1.4-1.1,2.4c0.3,0.9,1.4,1.4,2.3,1.1
				c0.8-0.3,1.3-1,1.2-1.9C62.5,57.5,62.5,57.4,62.4,57.2 M59.4,58.5l0.9-1l0.5,1.5l1.2-1.4c0.1,0.8-0.4,1.5-1.2,1.6
				C60.3,59.3,59.7,59,59.4,58.5z M62,57.2l-0.9,1l-0.5-1.5L59.3,58c-0.1-0.8,0.4-1.5,1.2-1.6C61.1,56.3,61.6,56.6,62,57.2z
				 M60.8,62.9c0-0.2-0.1-0.4-0.4-0.4c-0.2,0-0.4,0.2-0.4,0.4l0,0l0.2,2.3c0,0.1,0.1,0.2,0.2,0.1c0.1,0,0.1,0,0.2-0.1L60.8,62.9z
				 M60.9,65.9c0-0.2-0.2-0.4-0.4-0.4s-0.4,0.1-0.4,0.4c0,0.2,0.2,0.4,0.4,0.4S60.9,66.1,60.9,65.9z M62.5,71c0-1-0.9-1.9-1.9-1.9
				s-1.9,0.8-1.9,1.9s0.8,1.9,1.9,1.9S62.5,72,62.5,71z M62.3,71c0,0.9-0.7,1.7-1.6,1.7c-0.9,0-1.7-0.8-1.7-1.7s0.7-1.6,1.7-1.6
				C61.6,69.4,62.3,70.1,62.3,71z M60,71l0.6,1.1c0,0,0.1,0.1,0.1,0l0,0l0.6-1.1c0.2-0.4,0.1-0.8-0.3-1c-0.4-0.2-0.8-0.1-1,0.3
				C59.9,70.5,59.9,70.7,60,71z M61,70.6c0,0.2-0.1,0.4-0.3,0.4s-0.4-0.1-0.4-0.4c0-0.2,0.2-0.3,0.4-0.3C60.9,70.3,61,70.4,61,70.6z
				"/>
			<path class="st27" d="M57.7,57c0-1.4-1.2-2.6-2.6-2.6c-1.4,0-2.6,1.2-2.6,2.6c0,1.4,1.2,2.6,2.6,2.6S57.7,58.5,57.7,57"/>
			<path d="M56.9,57.9c0-1-0.8-1.8-1.8-1.8s-1.9,0.8-1.9,1.8s0.8,1.9,1.9,1.9C56.1,59.7,56.9,58.9,56.9,57.9z"/>
			<path d="M56.9,64.3c0-1-0.8-1.9-1.8-1.9s-1.9,0.9-1.9,1.9s0.8,1.9,1.9,1.9C56.1,66.2,56.9,65.3,56.9,64.3z"/>
			<path d="M56.9,70.7c0-1-0.8-1.9-1.8-1.9s-1.9,0.9-1.9,1.9s0.8,1.8,1.9,1.8C56.1,72.5,56.9,71.7,56.9,70.7z"/>
			<polygon class="st27" points="55,82.4 54.2,82 53.8,85.2 54.8,84.5 			"/>
			<polygon class="st27" points="58.3,85.3 57.6,84.5 54.9,84.5 53.9,85.3 			"/>
			<polygon class="st27" points="55.1,82.3 57.7,82.3 58.7,81.9 57.9,81.5 55.2,81.5 54.3,81.9 			"/>
			<polygon class="st27" points="54.6,78.6 55.4,79.4 58.1,79.4 59.1,78.6 			"/>
			<polyline class="st27" points="58.7,82 57.8,82.4 57.6,84.4 58.4,85.2 58.8,82 58.7,82 			"/>
			<polyline class="st27" points="54.2,81.9 55.1,81.5 55.3,79.4 54.5,78.6 54.2,81.8 54.2,81.9 			"/>
			<line class="st27" x1="54.2" y1="82" x2="54.2" y2="82"/>
			<polyline class="st27" points="58.8,81.9 59.1,78.6 58.2,79.4 57.9,81.5 58.7,81.9 58.8,81.9 			"/>
			<line class="st30" x1="54.2" y1="82" x2="54.2" y2="82"/>
		</g>
		<g>
			<line class="st31" x1="60" y1="87.3" x2="60" y2="76.9"/>
			<g>
				<path class="st32" d="M54.6,81.3l-0.5,0.5l-0.4-0.5v-2l0.4-0.5l0.5,0.5V81.3z M54.6,84.4l-0.5,0.5l-0.4-0.5v-2l0.4-0.5l0.5,0.5
					V84.4z M57.2,78.8l-0.5,0.5h-2.1l-0.5-0.5l0.5-0.5h2.1L57.2,78.8z M57.2,84.9l-0.5,0.5h-2.1l-0.5-0.5l0.5-0.5h2.1L57.2,84.9z
					 M57.8,81.3l-0.5,0.5l-0.5-0.5v-2l0.5-0.5l0.5,0.5V81.3z M57.8,84.4l-0.5,0.5l-0.5-0.5v-2l0.5-0.5l0.5,0.5V84.4z"/>
			</g>
			<g>
				<path class="st32" d="M62.9,81.3l-0.5,0.5L62,81.3v-2l0.4-0.5l0.5,0.5V81.3z M62.9,84.4l-0.5,0.5L62,84.4v-2l0.4-0.5l0.5,0.5
					V84.4z M65.5,78.8L65,79.3h-2l-0.5-0.5l0.5-0.5h2.1L65.5,78.8z M65.5,84.9L65,85.4h-2l-0.5-0.5l0.5-0.5h2.1L65.5,84.9z
					 M66.1,81.3l-0.5,0.5l-0.5-0.5v-2l0.5-0.5l0.5,0.5V81.3z M66.1,84.4l-0.5,0.5l-0.5-0.5v-2l0.5-0.5l0.5,0.5V84.4z"/>
			</g>
		</g>
	</g>
	<path class="st4" d="M65.2,58.4c0-0.5,0.4-1,1-1c0.5,0,0.9,0.5,0.9,1s-0.4,1-0.9,1C65.6,59.4,65.2,58.9,65.2,58.4z"/>
</g>
<g id="Layer_5">
	<g>
		<line class="st33" x1="58.5" y1="122.3" x2="63.7" y2="134.9"/>
		<line class="st34" x1="58.5" y1="122.3" x2="63.7" y2="134.9"/>
	</g>
	<g>
		<line class="st33" x1="62.1" y1="89.1" x2="85" y2="135.4"/>
		<line class="st34" x1="62.1" y1="89.1" x2="85" y2="135.4"/>
	</g>
	<g>
		<line class="st33" x1="67.7" y1="61.5" x2="101.3" y2="126.9"/>
		<line class="st34" x1="67.7" y1="61.5" x2="101.3" y2="126.9"/>
	</g>
	<g>
		<circle class="st35" cx="10.4" cy="10.7" r="7.5"/>
		<g>
			<g class="st36">
				<path class="st18" d="M8.4,8.8V8C9.1,8,9.6,7.8,9.9,7.7c0.3-0.2,0.5-0.5,0.6-1.2h0.8v7.9h-1.1V8.8H8.4z"/>
			</g>
		</g>
	</g>
	<g>
		<circle class="st35" cx="66" cy="144.5" r="7.5"/>
		<g>
			<g class="st36">
				<path class="st18" d="M63.8,146.4c0.2-0.5,0.7-1,1.4-1.4l1.1-0.6c0.5-0.3,0.8-0.5,1-0.7c0.3-0.3,0.5-0.7,0.5-1
					c0-0.5-0.1-0.8-0.4-1.1c-0.3-0.3-0.6-0.4-1.1-0.4c-0.7,0-1.1,0.3-1.4,0.8c-0.1,0.3-0.2,0.7-0.2,1.1h-1c0-0.7,0.1-1.2,0.4-1.7
					c0.4-0.8,1.2-1.1,2.3-1.1c0.9,0,1.6,0.2,2,0.7s0.6,1,0.6,1.6c0,0.6-0.2,1.2-0.7,1.6c-0.3,0.3-0.7,0.6-1.4,0.9l-0.8,0.4
					c-0.4,0.2-0.6,0.4-0.8,0.6c-0.4,0.3-0.6,0.7-0.7,1.1h4.3v0.9h-5.4C63.4,147.5,63.5,146.9,63.8,146.4z"/>
			</g>
		</g>
	</g>
	<g>
		<circle class="st35" cx="88.8" cy="144.6" r="7.5"/>
		<g>
			<g class="st36">
				<path class="st18" d="M86.7,147.7c-0.4-0.5-0.6-1.1-0.6-1.9h1c0,0.5,0.1,0.9,0.3,1.1c0.3,0.4,0.7,0.6,1.4,0.6
					c0.5,0,0.9-0.1,1.3-0.4s0.5-0.6,0.5-1.1c0-0.5-0.2-0.9-0.5-1.1c-0.3-0.2-0.8-0.3-1.4-0.3c-0.1,0-0.1,0-0.2,0c-0.1,0-0.1,0-0.2,0
					v-0.9c0.1,0,0.2,0,0.3,0c0.1,0,0.1,0,0.2,0c0.4,0,0.7-0.1,0.9-0.2c0.4-0.2,0.6-0.6,0.6-1.1c0-0.4-0.1-0.7-0.4-0.9
					c-0.3-0.2-0.6-0.3-1-0.3c-0.7,0-1.1,0.2-1.4,0.7c-0.1,0.2-0.2,0.6-0.2,1h-1c0-0.6,0.1-1.1,0.4-1.5c0.4-0.7,1.1-1.1,2.1-1.1
					c0.8,0,1.4,0.2,1.9,0.5c0.4,0.4,0.7,0.9,0.7,1.6c0,0.5-0.1,0.9-0.4,1.2c-0.2,0.2-0.4,0.3-0.6,0.4c0.4,0.1,0.7,0.3,1,0.7
					c0.2,0.3,0.3,0.7,0.3,1.2c0,0.8-0.2,1.4-0.7,1.8c-0.5,0.5-1.2,0.7-2.1,0.7C87.7,148.5,87.1,148.2,86.7,147.7z"/>
			</g>
		</g>
	</g>
	<g>
		<circle class="st35" cx="107.6" cy="134.7" r="7.5"/>
		<g>
			<g class="st36">
				<path class="st18" d="M107.8,138.4v-1.9h-3.5v-1l3.6-5h0.8v5.1h1.2v0.9h-1.2v1.9H107.8z M107.8,135.6V132l-2.5,3.6H107.8z"/>
			</g>
		</g>
	</g>
</g>
</svg>
