<?xml version="1.0" encoding="iso-8859-1"?>
<!-- Generator: Adobe Illustrator 26.0.3, SVG Export Plug-In . SVG Version: 6.00 Build 0)  -->
<svg version="1.1" id="Layer_1" xmlns="http://www.w3.org/2000/svg" xmlns:xlink="http://www.w3.org/1999/xlink" x="0px" y="0px"
	 viewBox="0 0 352.359 137.945" style="enable-background:new 0 0 352.359 137.945;" xml:space="preserve">
<g>
	<g>
		<rect x="12.782" y="84.732" style="fill:#FFFFFF;stroke:#000000;stroke-miterlimit:10;" width="163.397" height="44.526"/>
		
			<rect x="21.443" y="99.92" style="fill:#FFFFFF;stroke:#000000;stroke-width:0.5;stroke-miterlimit:10;" width="15.094" height="15.094"/>
		
			<rect x="50.145" y="99.92" style="fill:#FFFFFF;stroke:#000000;stroke-width:0.5;stroke-miterlimit:10;" width="15.094" height="15.094"/>
		<g>
			<polygon points="73.452,92.506 68.827,87.881 68.827,90.371 66.186,90.371 66.186,94.641 68.827,94.641 68.827,97.131 			"/>
			<polygon points="57.026,92.506 61.651,97.131 61.651,94.641 64.292,94.641 64.292,90.371 61.651,90.371 61.651,87.881 			"/>
		</g>
		<g>
			<g>
				<path d="M26.173,117.307c0.693,0,1.235,0.247,1.626,0.742c0.466,0.586,0.698,1.557,0.698,2.914c0,1.354-0.234,2.328-0.703,2.92
					c-0.387,0.488-0.928,0.732-1.621,0.732c-0.697,0-1.258-0.268-1.685-0.803s-0.64-1.49-0.64-2.863c0-1.348,0.234-2.318,0.703-2.91
					C24.939,117.551,25.48,117.307,26.173,117.307z M26.173,118.443c-0.166,0-0.314,0.053-0.444,0.159s-0.231,0.296-0.303,0.569
					c-0.095,0.354-0.142,0.951-0.142,1.791s0.043,1.418,0.127,1.731s0.191,0.523,0.32,0.628c0.128,0.104,0.275,0.156,0.441,0.156
					s0.314-0.053,0.444-0.159s0.231-0.296,0.303-0.569c0.095-0.352,0.142-0.947,0.142-1.787s-0.043-1.416-0.127-1.73
					s-0.191-0.523-0.32-0.63C26.486,118.496,26.339,118.443,26.173,118.443z"/>
				<path d="M30.734,120.891l-1.245-0.225c0.14-0.502,0.381-0.873,0.723-1.113c0.342-0.241,0.85-0.361,1.523-0.361
					c0.612,0,1.067,0.072,1.367,0.217s0.511,0.328,0.632,0.552c0.123,0.224,0.184,0.632,0.184,1.228l-0.015,1.602
					c0,0.456,0.022,0.793,0.065,1.009c0.045,0.216,0.127,0.448,0.247,0.696h-1.357c-0.036-0.092-0.079-0.227-0.132-0.406
					c-0.023-0.081-0.039-0.135-0.049-0.16c-0.234,0.228-0.484,0.398-0.752,0.512c-0.268,0.114-0.552,0.172-0.854,0.172
					c-0.534,0-0.954-0.146-1.263-0.436c-0.307-0.289-0.461-0.655-0.461-1.098c0-0.293,0.07-0.555,0.21-0.784
					s0.336-0.405,0.589-0.527c0.252-0.122,0.615-0.229,1.091-0.319c0.642-0.121,1.085-0.233,1.333-0.338v-0.137
					c0-0.264-0.064-0.451-0.195-0.563s-0.376-0.169-0.737-0.169c-0.244,0-0.435,0.049-0.571,0.145S30.818,120.649,30.734,120.891z
					 M32.569,122.004c-0.176,0.059-0.454,0.128-0.835,0.209c-0.381,0.082-0.63,0.162-0.747,0.24
					c-0.18,0.127-0.269,0.287-0.269,0.482c0,0.192,0.071,0.358,0.215,0.498c0.144,0.141,0.325,0.211,0.547,0.211
					c0.247,0,0.483-0.082,0.708-0.244c0.166-0.124,0.275-0.275,0.327-0.455c0.036-0.117,0.054-0.34,0.054-0.668V122.004z"/>
			</g>
		</g>
		<g>
			<g>
				<path d="M48.985,117.307c0.693,0,1.235,0.247,1.626,0.742c0.466,0.586,0.698,1.557,0.698,2.914c0,1.354-0.234,2.328-0.703,2.92
					c-0.387,0.488-0.928,0.732-1.621,0.732c-0.696,0-1.258-0.268-1.685-0.803c-0.426-0.535-0.64-1.49-0.64-2.863
					c0-1.348,0.234-2.318,0.703-2.91C47.752,117.551,48.292,117.307,48.985,117.307z M48.985,118.443
					c-0.166,0-0.313,0.053-0.444,0.159c-0.13,0.106-0.23,0.296-0.303,0.569c-0.094,0.354-0.142,0.951-0.142,1.791
					s0.043,1.418,0.127,1.731c0.085,0.313,0.191,0.523,0.32,0.628c0.128,0.104,0.275,0.156,0.441,0.156s0.314-0.053,0.444-0.159
					c0.131-0.106,0.231-0.296,0.303-0.569c0.095-0.352,0.142-0.947,0.142-1.787s-0.042-1.416-0.127-1.73
					c-0.084-0.314-0.191-0.523-0.319-0.63C49.299,118.496,49.151,118.443,48.985,118.443z"/>
				<path d="M52.462,124.494v-7.158h1.372v2.578c0.424-0.482,0.925-0.723,1.504-0.723c0.632,0,1.154,0.229,1.567,0.686
					c0.414,0.457,0.62,1.114,0.62,1.971c0,0.885-0.211,1.566-0.632,2.045c-0.422,0.479-0.934,0.719-1.536,0.719
					c-0.296,0-0.588-0.074-0.876-0.223s-0.536-0.367-0.745-0.656v0.762H52.462z M53.824,121.789c0,0.537,0.085,0.934,0.254,1.191
					c0.238,0.364,0.554,0.547,0.947,0.547c0.303,0,0.561-0.13,0.774-0.389c0.213-0.259,0.319-0.666,0.319-1.223
					c0-0.593-0.107-1.02-0.322-1.282s-0.489-0.394-0.825-0.394c-0.328,0-0.602,0.129-0.82,0.384
					C53.934,120.879,53.824,121.267,53.824,121.789z"/>
				<path d="M61.847,124.494h-1.372v-5.172c-0.501,0.469-1.092,0.816-1.772,1.041v-1.246c0.358-0.117,0.747-0.339,1.167-0.666
					s0.708-0.709,0.864-1.145h1.113V124.494z"/>
			</g>
		</g>
		
			<rect x="65.239" y="99.92" style="fill:#D0D3D4;stroke:#101820;stroke-width:0.5;stroke-miterlimit:10;" width="15.094" height="15.094"/>
		<g>
			<g>
				<path d="M70.415,117.307c0.693,0,1.235,0.247,1.626,0.742c0.465,0.586,0.698,1.558,0.698,2.915c0,1.354-0.234,2.327-0.703,2.92
					c-0.388,0.488-0.928,0.732-1.621,0.732c-0.697,0-1.259-0.268-1.685-0.804c-0.427-0.535-0.64-1.49-0.64-2.863
					c0-1.348,0.234-2.318,0.703-2.91C69.181,117.551,69.722,117.307,70.415,117.307z M70.415,118.444
					c-0.166,0-0.314,0.053-0.444,0.158c-0.131,0.106-0.231,0.296-0.303,0.569c-0.095,0.354-0.142,0.952-0.142,1.792
					s0.042,1.417,0.127,1.73c0.084,0.314,0.191,0.523,0.319,0.628c0.129,0.104,0.276,0.156,0.442,0.156s0.313-0.053,0.444-0.159
					c0.13-0.105,0.23-0.295,0.303-0.568c0.094-0.352,0.142-0.947,0.142-1.787s-0.043-1.417-0.127-1.731
					c-0.085-0.313-0.191-0.523-0.32-0.63C70.729,118.497,70.581,118.444,70.415,118.444z"/>
				<path d="M73.892,124.494v-7.158h1.372v2.578c0.423-0.482,0.924-0.723,1.504-0.723c0.631,0,1.153,0.229,1.567,0.686
					c0.413,0.458,0.62,1.114,0.62,1.971c0,0.885-0.211,1.567-0.633,2.046c-0.421,0.479-0.934,0.718-1.535,0.718
					c-0.297,0-0.589-0.074-0.877-0.223c-0.288-0.147-0.536-0.367-0.744-0.656v0.762H73.892z M75.254,121.789
					c0,0.537,0.084,0.934,0.254,1.191c0.237,0.364,0.553,0.547,0.947,0.547c0.303,0,0.561-0.13,0.773-0.389
					c0.214-0.259,0.32-0.666,0.32-1.223c0-0.593-0.107-1.02-0.322-1.282c-0.215-0.262-0.49-0.393-0.825-0.393
					c-0.329,0-0.603,0.128-0.82,0.383C75.362,120.88,75.254,121.267,75.254,121.789z"/>
				<path d="M84.4,123.22v1.274h-4.81c0.052-0.482,0.208-0.938,0.469-1.37c0.26-0.431,0.774-1.003,1.543-1.716
					c0.618-0.576,0.997-0.967,1.138-1.172c0.188-0.283,0.283-0.563,0.283-0.84c0-0.307-0.082-0.541-0.247-0.706
					c-0.164-0.164-0.392-0.246-0.681-0.246c-0.287,0-0.515,0.086-0.684,0.259c-0.17,0.172-0.268,0.459-0.293,0.859l-1.367-0.137
					c0.081-0.756,0.337-1.298,0.767-1.626c0.43-0.329,0.967-0.493,1.611-0.493c0.706,0,1.261,0.19,1.665,0.571
					c0.403,0.381,0.605,0.854,0.605,1.421c0,0.322-0.058,0.629-0.174,0.92c-0.115,0.292-0.299,0.597-0.549,0.916
					c-0.166,0.211-0.466,0.516-0.898,0.913c-0.434,0.396-0.707,0.66-0.823,0.791c-0.115,0.13-0.209,0.257-0.28,0.381H84.4z"/>
			</g>
		</g>
	</g>
	<g>
		<rect x="176.18" y="84.732" style="fill:#FFFFFF;stroke:#000000;stroke-miterlimit:10;" width="163.397" height="44.526"/>
		
			<rect x="184.84" y="99.92" style="fill:#FFFFFF;stroke:#000000;stroke-width:0.5;stroke-miterlimit:10;" width="15.094" height="15.094"/>
		
			<rect x="213.542" y="99.92" style="fill:#FFFFFF;stroke:#000000;stroke-width:0.5;stroke-miterlimit:10;" width="15.094" height="15.094"/>
		<g>
			<polygon points="236.849,92.506 232.224,87.881 232.224,90.371 229.584,90.371 229.584,94.641 232.224,94.641 232.224,97.131 			
				"/>
			<polygon points="220.423,92.506 225.049,97.131 225.049,94.641 227.689,94.641 227.689,90.371 225.049,90.371 225.049,87.881 			
				"/>
		</g>
		<g>
			<g>
				<path d="M189.57,117.307c0.693,0,1.235,0.247,1.626,0.742c0.465,0.586,0.698,1.557,0.698,2.914c0,1.354-0.234,2.328-0.703,2.92
					c-0.388,0.488-0.928,0.732-1.621,0.732c-0.697,0-1.259-0.268-1.685-0.803c-0.427-0.535-0.64-1.49-0.64-2.863
					c0-1.348,0.234-2.318,0.703-2.91C188.336,117.551,188.877,117.307,189.57,117.307z M189.57,118.443
					c-0.166,0-0.314,0.053-0.444,0.159c-0.131,0.106-0.231,0.296-0.303,0.569c-0.095,0.354-0.142,0.951-0.142,1.791
					s0.042,1.418,0.127,1.731c0.084,0.313,0.191,0.523,0.319,0.628c0.129,0.104,0.276,0.156,0.442,0.156s0.313-0.053,0.444-0.159
					c0.13-0.106,0.23-0.296,0.303-0.569c0.094-0.352,0.142-0.947,0.142-1.787s-0.043-1.416-0.127-1.73
					c-0.085-0.314-0.191-0.523-0.32-0.63C189.884,118.496,189.736,118.443,189.57,118.443z"/>
				<path d="M194.131,120.891l-1.245-0.225c0.14-0.502,0.381-0.873,0.723-1.113c0.342-0.241,0.85-0.361,1.523-0.361
					c0.611,0,1.067,0.072,1.367,0.217c0.299,0.145,0.51,0.328,0.632,0.552s0.184,0.632,0.184,1.228l-0.015,1.602
					c0,0.456,0.021,0.793,0.065,1.009s0.126,0.448,0.247,0.696h-1.357c-0.036-0.092-0.08-0.227-0.132-0.406
					c-0.023-0.081-0.039-0.135-0.049-0.16c-0.234,0.228-0.485,0.398-0.752,0.512c-0.268,0.114-0.552,0.172-0.854,0.172
					c-0.534,0-0.955-0.146-1.263-0.436c-0.308-0.289-0.461-0.655-0.461-1.098c0-0.293,0.069-0.555,0.21-0.784
					c0.14-0.229,0.336-0.405,0.588-0.527c0.253-0.122,0.616-0.229,1.092-0.319c0.641-0.121,1.085-0.233,1.333-0.338v-0.137
					c0-0.264-0.065-0.451-0.195-0.563c-0.131-0.112-0.376-0.169-0.737-0.169c-0.244,0-0.435,0.049-0.571,0.145
					S194.215,120.649,194.131,120.891z M195.967,122.004c-0.176,0.059-0.454,0.128-0.835,0.209c-0.381,0.082-0.63,0.162-0.747,0.24
					c-0.18,0.127-0.269,0.287-0.269,0.482c0,0.192,0.071,0.358,0.215,0.498c0.143,0.141,0.325,0.211,0.547,0.211
					c0.247,0,0.483-0.082,0.708-0.244c0.166-0.124,0.274-0.275,0.327-0.455c0.035-0.117,0.054-0.34,0.054-0.668V122.004z"/>
			</g>
		</g>
		<g>
			<g>
				<path d="M212.383,117.307c0.693,0,1.235,0.247,1.626,0.742c0.465,0.586,0.698,1.557,0.698,2.914c0,1.354-0.234,2.328-0.703,2.92
					c-0.388,0.488-0.928,0.732-1.621,0.732c-0.696,0-1.259-0.268-1.685-0.803s-0.64-1.49-0.64-2.863c0-1.348,0.234-2.318,0.703-2.91
					C211.15,117.551,211.69,117.307,212.383,117.307z M212.383,118.443c-0.166,0-0.313,0.053-0.444,0.159s-0.23,0.296-0.303,0.569
					c-0.094,0.354-0.142,0.951-0.142,1.791s0.042,1.418,0.127,1.731s0.191,0.523,0.319,0.628c0.129,0.104,0.276,0.156,0.442,0.156
					s0.313-0.053,0.444-0.159s0.23-0.296,0.303-0.569c0.094-0.352,0.142-0.947,0.142-1.787s-0.042-1.416-0.127-1.73
					s-0.191-0.523-0.319-0.63C212.696,118.496,212.549,118.443,212.383,118.443z"/>
				<path d="M215.859,124.494v-7.158h1.372v2.578c0.424-0.482,0.924-0.723,1.504-0.723c0.631,0,1.154,0.229,1.567,0.686
					s0.62,1.114,0.62,1.971c0,0.885-0.211,1.566-0.633,2.045c-0.421,0.479-0.934,0.719-1.535,0.719
					c-0.297,0-0.588-0.074-0.877-0.223c-0.287-0.148-0.535-0.367-0.744-0.656v0.762H215.859z M217.222,121.789
					c0,0.537,0.084,0.934,0.254,1.191c0.238,0.364,0.553,0.547,0.947,0.547c0.303,0,0.561-0.13,0.773-0.389
					c0.214-0.259,0.32-0.666,0.32-1.223c0-0.593-0.107-1.02-0.322-1.282s-0.49-0.394-0.825-0.394c-0.329,0-0.603,0.129-0.82,0.384
					S217.222,121.267,217.222,121.789z"/>
				<path d="M225.244,124.494h-1.372v-5.172c-0.502,0.469-1.092,0.816-1.772,1.041v-1.246c0.358-0.117,0.747-0.339,1.167-0.666
					s0.708-0.709,0.864-1.145h1.113V124.494z"/>
			</g>
		</g>
		
			<rect x="228.636" y="99.92" style="fill:#D0D3D4;stroke:#101820;stroke-width:0.5;stroke-miterlimit:10;" width="15.094" height="15.094"/>
		<g>
			<g>
				<path d="M233.812,117.307c0.693,0,1.235,0.247,1.626,0.742c0.466,0.586,0.698,1.558,0.698,2.915c0,1.354-0.234,2.327-0.703,2.92
					c-0.387,0.488-0.928,0.732-1.621,0.732c-0.696,0-1.258-0.268-1.685-0.804c-0.426-0.535-0.64-1.49-0.64-2.863
					c0-1.348,0.234-2.318,0.703-2.91C232.578,117.551,233.118,117.307,233.812,117.307z M233.812,118.444
					c-0.166,0-0.313,0.053-0.444,0.158c-0.13,0.106-0.23,0.296-0.303,0.569c-0.094,0.354-0.142,0.952-0.142,1.792
					s0.043,1.417,0.127,1.73c0.085,0.314,0.191,0.523,0.32,0.628c0.128,0.104,0.275,0.156,0.441,0.156s0.314-0.053,0.444-0.159
					c0.131-0.105,0.231-0.295,0.303-0.568c0.095-0.352,0.142-0.947,0.142-1.787s-0.042-1.417-0.127-1.731
					c-0.084-0.313-0.191-0.523-0.319-0.63C234.125,118.497,233.978,118.444,233.812,118.444z"/>
				<path d="M237.288,124.494v-7.158h1.372v2.578c0.424-0.482,0.925-0.723,1.504-0.723c0.632,0,1.154,0.229,1.567,0.686
					c0.414,0.458,0.62,1.114,0.62,1.971c0,0.885-0.211,1.567-0.632,2.046c-0.422,0.479-0.934,0.718-1.536,0.718
					c-0.296,0-0.588-0.074-0.876-0.223c-0.288-0.147-0.536-0.367-0.745-0.656v0.762H237.288z M238.651,121.789
					c0,0.537,0.085,0.934,0.254,1.191c0.238,0.364,0.554,0.547,0.947,0.547c0.303,0,0.561-0.13,0.774-0.389
					c0.213-0.259,0.319-0.666,0.319-1.223c0-0.593-0.107-1.02-0.322-1.282c-0.215-0.262-0.489-0.393-0.825-0.393
					c-0.328,0-0.602,0.128-0.82,0.383C238.76,120.88,238.651,121.267,238.651,121.789z"/>
				<path d="M247.796,123.22v1.274h-4.81c0.053-0.482,0.209-0.938,0.469-1.37c0.261-0.431,0.775-1.003,1.543-1.716
					c0.619-0.576,0.998-0.967,1.138-1.172c0.189-0.283,0.283-0.563,0.283-0.84c0-0.307-0.082-0.541-0.246-0.706
					c-0.165-0.164-0.392-0.246-0.682-0.246c-0.286,0-0.514,0.086-0.684,0.259c-0.169,0.172-0.267,0.459-0.293,0.859l-1.367-0.137
					c0.082-0.756,0.337-1.298,0.767-1.626c0.43-0.329,0.967-0.493,1.611-0.493c0.707,0,1.262,0.19,1.665,0.571
					c0.404,0.381,0.605,0.854,0.605,1.421c0,0.322-0.058,0.629-0.173,0.92c-0.116,0.292-0.299,0.597-0.55,0.916
					c-0.166,0.211-0.465,0.516-0.898,0.913c-0.433,0.396-0.707,0.66-0.822,0.791c-0.116,0.13-0.209,0.257-0.281,0.381H247.796z"/>
			</g>
		</g>
	</g>
	<g>
		<path d="M86.786,18.986v-8.59h5.795v1.014h-4.658v2.66h4.031v1.014h-4.031v3.902H86.786z"/>
		<path d="M92.452,18.986l3.299-8.59h1.225l3.516,8.59h-1.295l-1.002-2.602h-3.592l-0.943,2.602H92.452z M94.931,15.459h2.912
			l-0.896-2.379c-0.273-0.723-0.477-1.316-0.609-1.781c-0.109,0.551-0.264,1.098-0.463,1.641L94.931,15.459z"/>
		<path d="M101.013,16.226l1.072-0.094c0.051,0.43,0.169,0.782,0.354,1.058s0.474,0.498,0.864,0.668s0.83,0.255,1.318,0.255
			c0.434,0,0.816-0.064,1.148-0.193s0.579-0.306,0.741-0.53s0.243-0.47,0.243-0.735c0-0.27-0.078-0.505-0.234-0.706
			c-0.156-0.201-0.414-0.37-0.773-0.507c-0.23-0.09-0.74-0.229-1.529-0.419s-1.342-0.368-1.658-0.536
			c-0.41-0.215-0.716-0.481-0.917-0.8s-0.302-0.675-0.302-1.069c0-0.434,0.123-0.839,0.369-1.216s0.605-0.663,1.078-0.858
			s0.998-0.293,1.576-0.293c0.637,0,1.198,0.103,1.685,0.308s0.86,0.507,1.122,0.905s0.402,0.85,0.422,1.354l-1.09,0.082
			c-0.059-0.543-0.257-0.953-0.595-1.23s-0.837-0.416-1.497-0.416c-0.688,0-1.188,0.126-1.503,0.378s-0.472,0.556-0.472,0.911
			c0,0.309,0.111,0.562,0.334,0.762c0.219,0.199,0.79,0.403,1.714,0.612s1.558,0.392,1.901,0.548c0.5,0.23,0.869,0.522,1.107,0.876
			s0.357,0.761,0.357,1.222c0,0.457-0.131,0.888-0.393,1.292s-0.638,0.719-1.128,0.943s-1.042,0.337-1.655,0.337
			c-0.777,0-1.429-0.113-1.954-0.34s-0.938-0.567-1.236-1.022S101.028,16.801,101.013,16.226z"/>
		<path d="M114.519,17.973v1.014h-5.678c-0.008-0.254,0.033-0.498,0.123-0.732c0.145-0.387,0.376-0.768,0.694-1.143
			s0.778-0.809,1.38-1.301c0.934-0.766,1.564-1.372,1.893-1.819s0.492-0.87,0.492-1.269c0-0.418-0.149-0.771-0.448-1.058
			s-0.688-0.431-1.169-0.431c-0.508,0-0.914,0.152-1.219,0.457s-0.459,0.727-0.463,1.266l-1.084-0.111
			c0.074-0.809,0.354-1.425,0.838-1.849s1.135-0.636,1.951-0.636c0.824,0,1.477,0.229,1.957,0.686s0.721,1.023,0.721,1.699
			c0,0.344-0.07,0.682-0.211,1.014s-0.374,0.682-0.7,1.049s-0.868,0.871-1.626,1.512c-0.633,0.531-1.039,0.892-1.219,1.081
			s-0.328,0.38-0.445,0.571H114.519z"/>
		<path d="M117.273,14.328c-0.438-0.16-0.762-0.389-0.973-0.686s-0.316-0.652-0.316-1.066c0-0.625,0.225-1.15,0.674-1.576
			s1.047-0.639,1.793-0.639c0.75,0,1.354,0.218,1.811,0.653s0.686,0.966,0.686,1.591c0,0.398-0.104,0.745-0.313,1.04
			s-0.526,0.522-0.952,0.683c0.527,0.172,0.929,0.449,1.204,0.832s0.413,0.84,0.413,1.371c0,0.734-0.26,1.352-0.779,1.852
			s-1.203,0.75-2.051,0.75s-1.531-0.251-2.051-0.753s-0.779-1.128-0.779-1.878c0-0.559,0.142-1.026,0.425-1.403
			S116.749,14.465,117.273,14.328z M116.722,16.508c0,0.301,0.071,0.592,0.214,0.873s0.354,0.499,0.636,0.653
			s0.584,0.231,0.908,0.231c0.504,0,0.92-0.162,1.248-0.486s0.492-0.736,0.492-1.236c0-0.508-0.169-0.928-0.507-1.26
			s-0.761-0.498-1.269-0.498c-0.496,0-0.907,0.164-1.233,0.492S116.722,16.016,116.722,16.508z M117.062,12.541
			c0,0.406,0.131,0.738,0.393,0.996s0.602,0.387,1.02,0.387c0.406,0,0.739-0.128,0.999-0.384s0.39-0.569,0.39-0.94
			c0-0.387-0.134-0.712-0.401-0.976s-0.601-0.396-0.999-0.396c-0.402,0-0.736,0.129-1.002,0.387S117.062,12.182,117.062,12.541z"/>
		<path d="M122.323,14.75c0-1.016,0.104-1.833,0.313-2.452s0.52-1.097,0.932-1.433s0.931-0.504,1.556-0.504
			c0.461,0,0.865,0.093,1.213,0.278s0.635,0.453,0.861,0.803s0.404,0.775,0.533,1.277s0.193,1.179,0.193,2.03
			c0,1.008-0.104,1.821-0.311,2.44s-0.517,1.098-0.929,1.436s-0.933,0.507-1.562,0.507c-0.828,0-1.479-0.297-1.951-0.891
			C122.607,17.527,122.323,16.363,122.323,14.75z M123.407,14.75c0,1.41,0.165,2.349,0.495,2.815s0.737,0.7,1.222,0.7
			s0.892-0.234,1.222-0.703s0.495-1.406,0.495-2.812c0-1.414-0.165-2.354-0.495-2.818s-0.741-0.697-1.233-0.697
			c-0.484,0-0.871,0.205-1.16,0.615C123.589,12.373,123.407,13.34,123.407,14.75z"/>
		<path d="M128.997,14.75c0-1.016,0.104-1.833,0.313-2.452s0.52-1.097,0.932-1.433s0.931-0.504,1.556-0.504
			c0.461,0,0.865,0.093,1.213,0.278s0.635,0.453,0.861,0.803s0.404,0.775,0.533,1.277s0.193,1.179,0.193,2.03
			c0,1.008-0.104,1.821-0.311,2.44s-0.517,1.098-0.929,1.436s-0.933,0.507-1.562,0.507c-0.828,0-1.479-0.297-1.951-0.891
			C129.28,17.527,128.997,16.363,128.997,14.75z M130.081,14.75c0,1.41,0.165,2.349,0.495,2.815s0.737,0.7,1.222,0.7
			s0.892-0.234,1.222-0.703s0.495-1.406,0.495-2.812c0-1.414-0.165-2.354-0.495-2.818s-0.741-0.697-1.233-0.697
			c-0.484,0-0.871,0.205-1.16,0.615C130.263,12.373,130.081,13.34,130.081,14.75z"/>
		<path d="M140.446,18.986l-1.904-6.223h1.09l0.99,3.592l0.369,1.336c0.016-0.066,0.123-0.494,0.322-1.283l0.99-3.645h1.084
			l0.932,3.609l0.311,1.189l0.357-1.201l1.066-3.598h1.025l-1.945,6.223h-1.096l-0.99-3.727l-0.24-1.061l-1.26,4.787H140.446z"/>
		<path d="M147.97,11.609v-1.213h1.055v1.213H147.97z M147.97,18.986v-6.223h1.055v6.223H147.97z"/>
		<path d="M152.933,18.043l0.152,0.932c-0.297,0.062-0.562,0.094-0.797,0.094c-0.383,0-0.68-0.061-0.891-0.182
			s-0.359-0.28-0.445-0.478s-0.129-0.612-0.129-1.245v-3.58h-0.773v-0.82h0.773v-1.541l1.049-0.633v2.174h1.061v0.82h-1.061v3.639
			c0,0.301,0.019,0.494,0.056,0.58s0.098,0.154,0.182,0.205s0.204,0.076,0.36,0.076C152.587,18.084,152.741,18.07,152.933,18.043z"
			/>
		<path d="M153.964,18.986v-8.59h1.055v3.082c0.492-0.57,1.113-0.855,1.863-0.855c0.461,0,0.861,0.091,1.201,0.272
			s0.583,0.433,0.729,0.753s0.22,0.785,0.22,1.395v3.943h-1.055v-3.943c0-0.527-0.114-0.911-0.343-1.151s-0.552-0.36-0.97-0.36
			c-0.312,0-0.606,0.081-0.882,0.243s-0.472,0.382-0.589,0.659s-0.176,0.66-0.176,1.148v3.404H153.964z"/>
		<path d="M163.972,18.986v-6.223h0.949v0.885c0.457-0.684,1.117-1.025,1.98-1.025c0.375,0,0.72,0.067,1.034,0.202
			s0.55,0.312,0.706,0.53s0.266,0.479,0.328,0.779c0.039,0.195,0.059,0.537,0.059,1.025v3.826h-1.055v-3.785
			c0-0.43-0.041-0.751-0.123-0.964s-0.228-0.383-0.437-0.51s-0.454-0.19-0.735-0.19c-0.449,0-0.837,0.143-1.163,0.428
			s-0.489,0.826-0.489,1.623v3.398H163.972z"/>
		<path d="M170.253,15.875c0-1.152,0.32-2.006,0.961-2.561c0.535-0.461,1.188-0.691,1.957-0.691c0.855,0,1.555,0.28,2.098,0.841
			s0.814,1.335,0.814,2.323c0,0.801-0.12,1.431-0.36,1.89s-0.59,0.815-1.049,1.069s-0.96,0.381-1.503,0.381
			c-0.871,0-1.575-0.279-2.112-0.838S170.253,16.926,170.253,15.875z M171.337,15.875c0,0.797,0.174,1.394,0.521,1.79
			s0.785,0.595,1.312,0.595c0.523,0,0.959-0.199,1.307-0.598s0.521-1.006,0.521-1.822c0-0.77-0.175-1.353-0.524-1.749
			s-0.784-0.595-1.304-0.595c-0.527,0-0.965,0.197-1.312,0.592S171.337,15.078,171.337,15.875z"/>
		<path d="M184.913,16.982l1.09,0.135c-0.172,0.637-0.49,1.131-0.955,1.482s-1.059,0.527-1.781,0.527
			c-0.91,0-1.632-0.28-2.165-0.841s-0.8-1.347-0.8-2.358c0-1.047,0.27-1.859,0.809-2.438s1.238-0.867,2.098-0.867
			c0.832,0,1.512,0.283,2.039,0.85s0.791,1.363,0.791,2.391c0,0.062-0.002,0.156-0.006,0.281h-4.641
			c0.039,0.684,0.232,1.207,0.58,1.57s0.781,0.545,1.301,0.545c0.387,0,0.717-0.102,0.99-0.305S184.753,17.428,184.913,16.982z
			 M181.45,15.277h3.475c-0.047-0.523-0.18-0.916-0.398-1.178c-0.336-0.406-0.771-0.609-1.307-0.609
			c-0.484,0-0.892,0.162-1.222,0.486S181.485,14.734,181.45,15.277z"/>
		<path d="M186.624,18.986l2.273-3.234l-2.104-2.988h1.318l0.955,1.459c0.18,0.277,0.324,0.51,0.434,0.697
			c0.172-0.258,0.33-0.486,0.475-0.686l1.049-1.471h1.26l-2.15,2.93l2.314,3.293h-1.295l-1.277-1.934l-0.34-0.521l-1.635,2.455
			H186.624z"/>
		<path d="M195.63,18.043l0.152,0.932c-0.297,0.062-0.562,0.094-0.797,0.094c-0.383,0-0.68-0.061-0.891-0.182
			s-0.359-0.28-0.445-0.478s-0.129-0.612-0.129-1.245v-3.58h-0.773v-0.82h0.773v-1.541l1.049-0.633v2.174h1.061v0.82h-1.061v3.639
			c0,0.301,0.019,0.494,0.056,0.58s0.098,0.154,0.182,0.205s0.204,0.076,0.36,0.076C195.284,18.084,195.439,18.07,195.63,18.043z"/>
		<path d="M200.921,16.982l1.09,0.135c-0.172,0.637-0.49,1.131-0.955,1.482s-1.059,0.527-1.781,0.527
			c-0.91,0-1.632-0.28-2.165-0.841s-0.8-1.347-0.8-2.358c0-1.047,0.27-1.859,0.809-2.438s1.238-0.867,2.098-0.867
			c0.832,0,1.512,0.283,2.039,0.85s0.791,1.363,0.791,2.391c0,0.062-0.002,0.156-0.006,0.281H197.4
			c0.039,0.684,0.232,1.207,0.58,1.57s0.781,0.545,1.301,0.545c0.387,0,0.717-0.102,0.99-0.305S200.761,17.428,200.921,16.982z
			 M197.458,15.277h3.475c-0.047-0.523-0.18-0.916-0.398-1.178c-0.336-0.406-0.771-0.609-1.307-0.609
			c-0.484,0-0.892,0.162-1.222,0.486S197.493,14.734,197.458,15.277z"/>
		<path d="M203.323,18.986v-6.223h0.949v0.943c0.242-0.441,0.466-0.732,0.671-0.873s0.431-0.211,0.677-0.211
			c0.355,0,0.717,0.113,1.084,0.34l-0.363,0.979c-0.258-0.152-0.516-0.229-0.773-0.229c-0.23,0-0.438,0.069-0.621,0.208
			s-0.314,0.331-0.393,0.577c-0.117,0.375-0.176,0.785-0.176,1.23v3.258H203.323z"/>
		<path d="M207.331,18.986v-6.223h0.949v0.885c0.457-0.684,1.117-1.025,1.98-1.025c0.375,0,0.72,0.067,1.034,0.202
			s0.55,0.312,0.706,0.53s0.266,0.479,0.328,0.779c0.039,0.195,0.059,0.537,0.059,1.025v3.826h-1.055v-3.785
			c0-0.43-0.041-0.751-0.123-0.964s-0.228-0.383-0.437-0.51s-0.454-0.19-0.735-0.19c-0.449,0-0.837,0.143-1.163,0.428
			s-0.489,0.826-0.489,1.623v3.398H207.331z"/>
		<path d="M218.066,18.219c-0.391,0.332-0.767,0.566-1.128,0.703s-0.749,0.205-1.163,0.205c-0.684,0-1.209-0.167-1.576-0.501
			s-0.551-0.761-0.551-1.28c0-0.305,0.069-0.583,0.208-0.835s0.32-0.454,0.545-0.606c0.225-0.152,0.478-0.268,0.759-0.346
			c0.207-0.055,0.52-0.107,0.938-0.158c0.852-0.102,1.479-0.223,1.881-0.363c0.004-0.145,0.006-0.236,0.006-0.275
			c0-0.43-0.1-0.732-0.299-0.908c-0.27-0.238-0.67-0.357-1.201-0.357c-0.496,0-0.862,0.087-1.099,0.261s-0.411,0.481-0.524,0.923
			l-1.031-0.141c0.094-0.441,0.248-0.798,0.463-1.069s0.525-0.48,0.932-0.627s0.877-0.22,1.412-0.22
			c0.531,0,0.963,0.062,1.295,0.188s0.576,0.282,0.732,0.472s0.266,0.429,0.328,0.718c0.035,0.18,0.053,0.504,0.053,0.973v1.406
			c0,0.98,0.022,1.601,0.067,1.86s0.134,0.509,0.267,0.747h-1.102C218.167,18.767,218.097,18.512,218.066,18.219z M217.978,15.863
			c-0.383,0.156-0.957,0.289-1.723,0.398c-0.434,0.062-0.74,0.133-0.92,0.211s-0.318,0.192-0.416,0.343s-0.146,0.317-0.146,0.501
			c0,0.281,0.106,0.516,0.319,0.703s0.524,0.281,0.935,0.281c0.406,0,0.768-0.089,1.084-0.267s0.549-0.421,0.697-0.729
			c0.113-0.238,0.17-0.59,0.17-1.055V15.863z"/>
		<path d="M220.655,18.986v-8.59h1.055v8.59H220.655z"/>
		<path d="M226.257,17.129l1.043-0.164c0.059,0.418,0.222,0.738,0.489,0.961s0.642,0.334,1.122,0.334
			c0.484,0,0.844-0.099,1.078-0.296s0.352-0.429,0.352-0.694c0-0.238-0.104-0.426-0.311-0.562c-0.145-0.094-0.504-0.213-1.078-0.357
			c-0.773-0.195-1.31-0.364-1.608-0.507s-0.525-0.34-0.68-0.592s-0.231-0.53-0.231-0.835c0-0.277,0.063-0.534,0.19-0.771
			s0.3-0.433,0.519-0.589c0.164-0.121,0.388-0.224,0.671-0.308s0.587-0.126,0.911-0.126c0.488,0,0.917,0.07,1.286,0.211
			s0.642,0.331,0.817,0.571s0.297,0.562,0.363,0.964l-1.031,0.141c-0.047-0.32-0.183-0.57-0.407-0.75s-0.542-0.27-0.952-0.27
			c-0.484,0-0.83,0.08-1.037,0.24s-0.311,0.348-0.311,0.562c0,0.137,0.043,0.26,0.129,0.369c0.086,0.113,0.221,0.207,0.404,0.281
			c0.105,0.039,0.416,0.129,0.932,0.27c0.746,0.199,1.267,0.362,1.562,0.489s0.526,0.312,0.694,0.554s0.252,0.543,0.252,0.902
			c0,0.352-0.103,0.683-0.308,0.993s-0.501,0.551-0.888,0.721s-0.824,0.255-1.312,0.255c-0.809,0-1.425-0.168-1.849-0.504
			S226.374,17.789,226.257,17.129z"/>
		<path d="M232.679,18.986v-8.59h1.055v3.082c0.492-0.57,1.113-0.855,1.863-0.855c0.461,0,0.861,0.091,1.201,0.272
			s0.583,0.433,0.729,0.753s0.22,0.785,0.22,1.395v3.943h-1.055v-3.943c0-0.527-0.114-0.911-0.343-1.151s-0.552-0.36-0.97-0.36
			c-0.312,0-0.606,0.081-0.882,0.243s-0.472,0.382-0.589,0.659s-0.176,0.66-0.176,1.148v3.404H232.679z"/>
		<path d="M243.612,16.982l1.09,0.135c-0.172,0.637-0.49,1.131-0.955,1.482s-1.059,0.527-1.781,0.527
			c-0.91,0-1.632-0.28-2.165-0.841s-0.8-1.347-0.8-2.358c0-1.047,0.27-1.859,0.809-2.438s1.238-0.867,2.098-0.867
			c0.832,0,1.512,0.283,2.039,0.85s0.791,1.363,0.791,2.391c0,0.062-0.002,0.156-0.006,0.281h-4.641
			c0.039,0.684,0.232,1.207,0.58,1.57s0.781,0.545,1.301,0.545c0.387,0,0.717-0.102,0.99-0.305S243.452,17.428,243.612,16.982z
			 M240.15,15.277h3.475c-0.047-0.523-0.18-0.916-0.398-1.178c-0.336-0.406-0.771-0.609-1.307-0.609
			c-0.484,0-0.892,0.162-1.222,0.486S240.185,14.734,240.15,15.277z"/>
		<path d="M246.003,18.986v-8.59h1.055v8.59H246.003z"/>
		<path d="M250.421,18.986l-2.367-6.223h1.113l1.336,3.727c0.145,0.402,0.277,0.82,0.398,1.254c0.094-0.328,0.225-0.723,0.393-1.184
			l1.383-3.797h1.084l-2.355,6.223H250.421z"/>
		<path d="M258.952,16.982l1.09,0.135c-0.172,0.637-0.49,1.131-0.955,1.482s-1.059,0.527-1.781,0.527
			c-0.91,0-1.632-0.28-2.165-0.841s-0.8-1.347-0.8-2.358c0-1.047,0.27-1.859,0.809-2.438s1.238-0.867,2.098-0.867
			c0.832,0,1.512,0.283,2.039,0.85s0.791,1.363,0.791,2.391c0,0.062-0.002,0.156-0.006,0.281h-4.641
			c0.039,0.684,0.232,1.207,0.58,1.57s0.781,0.545,1.301,0.545c0.387,0,0.717-0.102,0.99-0.305S258.792,17.428,258.952,16.982z
			 M255.489,15.277h3.475c-0.047-0.523-0.18-0.916-0.398-1.178c-0.336-0.406-0.771-0.609-1.307-0.609
			c-0.484,0-0.892,0.162-1.222,0.486S255.525,14.734,255.489,15.277z"/>
		<path d="M260.944,17.129l1.043-0.164c0.059,0.418,0.222,0.738,0.489,0.961s0.642,0.334,1.122,0.334
			c0.484,0,0.844-0.099,1.078-0.296s0.352-0.429,0.352-0.694c0-0.238-0.104-0.426-0.311-0.562c-0.145-0.094-0.504-0.213-1.078-0.357
			c-0.773-0.195-1.31-0.364-1.608-0.507s-0.525-0.34-0.68-0.592s-0.231-0.53-0.231-0.835c0-0.277,0.063-0.534,0.19-0.771
			s0.3-0.433,0.519-0.589c0.164-0.121,0.388-0.224,0.671-0.308s0.587-0.126,0.911-0.126c0.488,0,0.917,0.07,1.286,0.211
			s0.642,0.331,0.817,0.571s0.297,0.562,0.363,0.964l-1.031,0.141c-0.047-0.32-0.183-0.57-0.407-0.75s-0.542-0.27-0.952-0.27
			c-0.484,0-0.83,0.08-1.037,0.24s-0.311,0.348-0.311,0.562c0,0.137,0.043,0.26,0.129,0.369c0.086,0.113,0.221,0.207,0.404,0.281
			c0.105,0.039,0.416,0.129,0.932,0.27c0.746,0.199,1.267,0.362,1.562,0.489s0.526,0.312,0.694,0.554s0.252,0.543,0.252,0.902
			c0,0.352-0.103,0.683-0.308,0.993s-0.501,0.551-0.888,0.721s-0.824,0.255-1.312,0.255c-0.809,0-1.425-0.168-1.849-0.504
			S261.062,17.789,260.944,17.129z"/>
		<path d="M149.18,33.386v-7.576h-2.83v-1.014h6.809v1.014h-2.842v7.576H149.18z"/>
		<path d="M153.733,33.386v-6.223h0.949v0.943c0.242-0.441,0.466-0.732,0.671-0.873s0.431-0.211,0.677-0.211
			c0.355,0,0.717,0.113,1.084,0.34l-0.363,0.979c-0.258-0.152-0.516-0.229-0.773-0.229c-0.23,0-0.438,0.069-0.621,0.208
			s-0.314,0.331-0.393,0.577c-0.117,0.375-0.176,0.785-0.176,1.23v3.258H153.733z"/>
		<path d="M157.746,26.009v-1.213h1.055v1.213H157.746z M157.746,33.386v-6.223h1.055v6.223H157.746z"/>
		<path d="M159.996,30.807v-1.061h3.24v1.061H159.996z"/>
		<path d="M164.402,35.77v-8.607h0.961v0.809c0.227-0.316,0.482-0.554,0.768-0.712s0.631-0.237,1.037-0.237
			c0.531,0,1,0.137,1.406,0.41s0.713,0.659,0.92,1.157s0.311,1.044,0.311,1.638c0,0.637-0.114,1.21-0.343,1.72
			s-0.561,0.9-0.996,1.172s-0.894,0.407-1.374,0.407c-0.352,0-0.667-0.074-0.946-0.223s-0.509-0.336-0.688-0.562v3.029H164.402z
			 M165.358,30.309c0,0.801,0.162,1.393,0.486,1.775s0.717,0.574,1.178,0.574c0.469,0,0.87-0.198,1.204-0.595
			s0.501-1.011,0.501-1.843c0-0.793-0.163-1.387-0.489-1.781s-0.716-0.592-1.169-0.592c-0.449,0-0.847,0.21-1.192,0.63
			S165.358,29.509,165.358,30.309z"/>
		<path d="M175.137,32.618c-0.391,0.332-0.767,0.566-1.128,0.703s-0.749,0.205-1.163,0.205c-0.684,0-1.209-0.167-1.576-0.501
			s-0.551-0.761-0.551-1.28c0-0.305,0.069-0.583,0.208-0.835s0.32-0.454,0.545-0.606s0.478-0.268,0.759-0.346
			c0.207-0.055,0.52-0.107,0.938-0.158c0.852-0.102,1.479-0.223,1.881-0.363c0.004-0.145,0.006-0.236,0.006-0.275
			c0-0.43-0.1-0.732-0.299-0.908c-0.27-0.238-0.67-0.357-1.201-0.357c-0.496,0-0.862,0.087-1.099,0.261s-0.411,0.481-0.524,0.923
			l-1.031-0.141c0.094-0.441,0.248-0.798,0.463-1.069s0.525-0.48,0.932-0.627s0.877-0.22,1.412-0.22
			c0.531,0,0.963,0.062,1.295,0.188s0.576,0.282,0.732,0.472s0.266,0.429,0.328,0.718c0.035,0.18,0.053,0.504,0.053,0.973v1.406
			c0,0.98,0.022,1.601,0.067,1.86s0.134,0.509,0.267,0.747h-1.102C175.238,33.167,175.168,32.911,175.137,32.618z M175.049,30.263
			c-0.383,0.156-0.957,0.289-1.723,0.398c-0.434,0.062-0.74,0.133-0.92,0.211s-0.318,0.192-0.416,0.343s-0.146,0.317-0.146,0.501
			c0,0.281,0.106,0.516,0.319,0.703s0.524,0.281,0.935,0.281c0.406,0,0.768-0.089,1.084-0.267s0.549-0.421,0.697-0.729
			c0.113-0.238,0.17-0.59,0.17-1.055V30.263z"/>
		<path d="M180.053,32.442l0.152,0.932c-0.297,0.062-0.562,0.094-0.797,0.094c-0.383,0-0.68-0.061-0.891-0.182
			s-0.359-0.28-0.445-0.478s-0.129-0.612-0.129-1.245v-3.58h-0.773v-0.82h0.773v-1.541l1.049-0.633v2.174h1.061v0.82h-1.061v3.639
			c0,0.301,0.019,0.494,0.056,0.58s0.098,0.154,0.182,0.205s0.204,0.076,0.36,0.076C179.707,32.483,179.861,32.47,180.053,32.442z"
			/>
		<path d="M181.084,33.386v-8.59h1.055v3.082c0.492-0.57,1.113-0.855,1.863-0.855c0.461,0,0.861,0.091,1.201,0.272
			s0.583,0.433,0.729,0.753s0.22,0.785,0.22,1.395v3.943h-1.055v-3.943c0-0.527-0.114-0.911-0.343-1.151s-0.552-0.36-0.97-0.36
			c-0.312,0-0.606,0.081-0.882,0.243s-0.472,0.382-0.589,0.659s-0.176,0.66-0.176,1.148v3.404H181.084z"/>
		<path d="M191.262,33.386v-8.59h1.137v3.527h4.465v-3.527H198v8.59h-1.137v-4.049h-4.465v4.049H191.262z"/>
		<path d="M198.949,33.386l3.299-8.59h1.225l3.516,8.59h-1.295l-1.002-2.602H201.1l-0.943,2.602H198.949z M201.428,29.858h2.912
			l-0.896-2.379c-0.273-0.723-0.477-1.316-0.609-1.781c-0.109,0.551-0.264,1.098-0.463,1.641L201.428,29.858z"/>
	</g>
	<g>
		<g>
			<path d="M72.519,67.093l1.042,0.264c-0.219,0.855-0.611,1.508-1.179,1.957c-0.568,0.45-1.262,0.675-2.082,0.675
				c-0.849,0-1.538-0.173-2.07-0.519c-0.531-0.346-0.937-0.846-1.214-1.501S66.6,66.609,66.6,65.857c0-0.819,0.156-1.535,0.47-2.146
				c0.313-0.61,0.759-1.074,1.338-1.392c0.578-0.316,1.214-0.475,1.909-0.475c0.787,0,1.45,0.2,1.987,0.602
				c0.537,0.4,0.911,0.965,1.122,1.691l-1.025,0.242c-0.183-0.573-0.448-0.99-0.795-1.252c-0.348-0.261-0.784-0.392-1.311-0.392
				c-0.605,0-1.111,0.145-1.518,0.435s-0.692,0.68-0.856,1.168c-0.165,0.489-0.247,0.993-0.247,1.513
				c0,0.669,0.098,1.254,0.293,1.753c0.194,0.5,0.498,0.873,0.91,1.12c0.411,0.247,0.857,0.371,1.337,0.371
				c0.584,0,1.078-0.169,1.482-0.505C72.102,68.255,72.375,67.756,72.519,67.093z"/>
			<path d="M74.36,67.002c0-1.057,0.294-1.839,0.881-2.348c0.491-0.422,1.089-0.634,1.794-0.634c0.784,0,1.426,0.257,1.923,0.771
				c0.498,0.515,0.747,1.225,0.747,2.13c0,0.734-0.11,1.312-0.331,1.732c-0.22,0.421-0.54,0.747-0.961,0.98
				c-0.421,0.232-0.88,0.349-1.378,0.349c-0.798,0-1.443-0.256-1.937-0.768C74.607,68.702,74.36,67.965,74.36,67.002z
				 M75.355,67.002c0,0.73,0.159,1.277,0.478,1.641c0.319,0.363,0.72,0.545,1.203,0.545c0.48,0,0.879-0.183,1.198-0.548
				c0.318-0.365,0.478-0.922,0.478-1.67c0-0.706-0.16-1.24-0.48-1.604s-0.719-0.545-1.195-0.545c-0.483,0-0.884,0.181-1.203,0.542
				C75.514,65.725,75.355,66.271,75.355,67.002z"/>
			<path d="M80.838,69.853v-5.704h0.87v0.812c0.419-0.627,1.024-0.94,1.815-0.94c0.344,0,0.66,0.062,0.948,0.186
				c0.288,0.123,0.504,0.285,0.647,0.486c0.143,0.2,0.243,0.438,0.301,0.714c0.035,0.18,0.054,0.492,0.054,0.94v3.507h-0.967v-3.47
				c0-0.394-0.038-0.688-0.113-0.884c-0.075-0.194-0.208-0.351-0.399-0.467c-0.192-0.116-0.417-0.175-0.675-0.175
				c-0.411,0-0.767,0.131-1.065,0.393c-0.3,0.261-0.449,0.757-0.449,1.487v3.115H80.838z"/>
			<path d="M89.067,68.989l0.14,0.854c-0.271,0.058-0.516,0.086-0.73,0.086c-0.351,0-0.623-0.056-0.816-0.166
				c-0.193-0.111-0.329-0.257-0.408-0.438c-0.078-0.181-0.118-0.561-0.118-1.141v-3.282h-0.709v-0.752h0.709v-1.412l0.962-0.58
				v1.992h0.972v0.752h-0.972v3.336c0,0.275,0.017,0.453,0.051,0.531c0.034,0.079,0.09,0.142,0.166,0.188
				c0.077,0.046,0.188,0.069,0.331,0.069C88.75,69.026,88.892,69.014,89.067,68.989z"/>
			<path d="M90.001,69.853v-5.704h0.87v0.865c0.223-0.405,0.428-0.672,0.615-0.801c0.188-0.129,0.395-0.193,0.62-0.193
				c0.326,0,0.657,0.104,0.994,0.312l-0.333,0.897c-0.236-0.14-0.473-0.21-0.709-0.21c-0.212,0-0.401,0.063-0.569,0.19
				c-0.169,0.128-0.288,0.304-0.36,0.529c-0.107,0.344-0.161,0.72-0.161,1.128v2.986H90.001z"/>
			<path d="M93.316,67.002c0-1.057,0.293-1.839,0.881-2.348c0.49-0.422,1.088-0.634,1.794-0.634c0.784,0,1.425,0.257,1.923,0.771
				c0.497,0.515,0.746,1.225,0.746,2.13c0,0.734-0.109,1.312-0.33,1.732c-0.22,0.421-0.541,0.747-0.961,0.98
				c-0.421,0.232-0.881,0.349-1.378,0.349c-0.799,0-1.444-0.256-1.937-0.768C93.562,68.702,93.316,67.965,93.316,67.002z
				 M94.309,67.002c0,0.73,0.159,1.277,0.479,1.641c0.318,0.363,0.72,0.545,1.203,0.545c0.479,0,0.879-0.183,1.197-0.548
				c0.319-0.365,0.479-0.922,0.479-1.67c0-0.706-0.16-1.24-0.48-1.604c-0.321-0.363-0.72-0.545-1.195-0.545
				c-0.483,0-0.885,0.181-1.203,0.542C94.468,65.725,94.309,66.271,94.309,67.002z"/>
			<path d="M99.772,69.853v-7.874h0.967v7.874H99.772z"/>
			<path d="M102.215,69.853v-7.874h0.967v7.874H102.215z"/>
			<path d="M108.585,68.016l0.999,0.124c-0.157,0.583-0.449,1.036-0.875,1.358c-0.427,0.322-0.971,0.483-1.633,0.483
				c-0.835,0-1.496-0.257-1.985-0.771c-0.488-0.514-0.732-1.234-0.732-2.162c0-0.959,0.247-1.704,0.741-2.234
				c0.494-0.529,1.135-0.795,1.923-0.795c0.763,0,1.386,0.26,1.869,0.779c0.483,0.519,0.725,1.249,0.725,2.191
				c0,0.057-0.002,0.143-0.005,0.258h-4.254c0.035,0.626,0.213,1.106,0.531,1.439c0.319,0.333,0.717,0.499,1.192,0.499
				c0.354,0,0.657-0.093,0.908-0.279C108.239,68.723,108.439,68.425,108.585,68.016z M105.411,66.454h3.185
				c-0.043-0.48-0.164-0.84-0.365-1.08c-0.308-0.372-0.707-0.559-1.197-0.559c-0.444,0-0.817,0.148-1.12,0.446
				C105.61,65.558,105.443,65.956,105.411,66.454z"/>
			<path d="M110.787,69.853v-5.704h0.87v0.865c0.223-0.405,0.428-0.672,0.615-0.801c0.188-0.129,0.395-0.193,0.62-0.193
				c0.326,0,0.657,0.104,0.994,0.312l-0.333,0.897c-0.236-0.14-0.473-0.21-0.709-0.21c-0.212,0-0.401,0.063-0.569,0.19
				c-0.169,0.128-0.288,0.304-0.36,0.529c-0.107,0.344-0.161,0.72-0.161,1.128v2.986H110.787z"/>
			<path d="M120.891,69.853h-0.967v-6.16c-0.233,0.222-0.538,0.443-0.916,0.666c-0.378,0.222-0.717,0.389-1.018,0.499v-0.935
				c0.54-0.254,1.013-0.562,1.418-0.924c0.404-0.361,0.69-0.712,0.859-1.053h0.623V69.853z"/>
		</g>
	</g>
	<g>
		<g>
			<path d="M235.916,67.093l1.042,0.264c-0.219,0.855-0.611,1.508-1.179,1.957c-0.568,0.45-1.262,0.675-2.082,0.675
				c-0.849,0-1.538-0.173-2.07-0.519c-0.531-0.346-0.937-0.846-1.214-1.501s-0.416-1.359-0.416-2.111
				c0-0.819,0.156-1.535,0.47-2.146c0.313-0.61,0.759-1.074,1.338-1.392c0.578-0.316,1.214-0.475,1.909-0.475
				c0.787,0,1.45,0.2,1.987,0.602c0.537,0.4,0.911,0.965,1.122,1.691l-1.025,0.242c-0.183-0.573-0.448-0.99-0.795-1.252
				c-0.348-0.261-0.784-0.392-1.311-0.392c-0.605,0-1.111,0.145-1.518,0.435s-0.692,0.68-0.856,1.168
				c-0.165,0.489-0.247,0.993-0.247,1.513c0,0.669,0.098,1.254,0.293,1.753c0.194,0.5,0.498,0.873,0.91,1.12
				c0.411,0.247,0.857,0.371,1.337,0.371c0.584,0,1.078-0.169,1.482-0.505C235.499,68.255,235.773,67.756,235.916,67.093z"/>
			<path d="M237.758,67.002c0-1.057,0.294-1.839,0.881-2.348c0.491-0.422,1.089-0.634,1.794-0.634c0.784,0,1.426,0.257,1.923,0.771
				c0.498,0.515,0.747,1.225,0.747,2.13c0,0.734-0.11,1.312-0.331,1.732c-0.22,0.421-0.54,0.747-0.961,0.98
				c-0.421,0.232-0.88,0.349-1.378,0.349c-0.798,0-1.443-0.256-1.937-0.768C238.004,68.702,237.758,67.965,237.758,67.002z
				 M238.752,67.002c0,0.73,0.159,1.277,0.478,1.641c0.319,0.363,0.72,0.545,1.203,0.545c0.48,0,0.879-0.183,1.198-0.548
				c0.318-0.365,0.478-0.922,0.478-1.67c0-0.706-0.16-1.24-0.48-1.604s-0.719-0.545-1.195-0.545c-0.483,0-0.884,0.181-1.203,0.542
				C238.911,65.725,238.752,66.271,238.752,67.002z"/>
			<path d="M244.235,69.853v-5.704h0.87v0.812c0.419-0.627,1.024-0.94,1.815-0.94c0.344,0,0.66,0.062,0.948,0.186
				c0.288,0.123,0.504,0.285,0.647,0.486c0.143,0.2,0.243,0.438,0.301,0.714c0.035,0.18,0.054,0.492,0.054,0.94v3.507h-0.967v-3.47
				c0-0.394-0.038-0.688-0.113-0.884c-0.075-0.194-0.208-0.351-0.399-0.467c-0.192-0.116-0.417-0.175-0.675-0.175
				c-0.411,0-0.767,0.131-1.065,0.393c-0.3,0.261-0.449,0.757-0.449,1.487v3.115H244.235z"/>
			<path d="M252.464,68.989l0.14,0.854c-0.271,0.058-0.516,0.086-0.73,0.086c-0.351,0-0.623-0.056-0.816-0.166
				c-0.193-0.111-0.329-0.257-0.408-0.438c-0.078-0.181-0.118-0.561-0.118-1.141v-3.282h-0.709v-0.752h0.709v-1.412l0.962-0.58
				v1.992h0.972v0.752h-0.972v3.336c0,0.275,0.017,0.453,0.051,0.531c0.034,0.079,0.09,0.142,0.166,0.188
				c0.077,0.046,0.188,0.069,0.331,0.069C252.148,69.026,252.289,69.014,252.464,68.989z"/>
			<path d="M253.399,69.853v-5.704h0.87v0.865c0.223-0.405,0.428-0.672,0.615-0.801c0.188-0.129,0.395-0.193,0.62-0.193
				c0.326,0,0.657,0.104,0.994,0.312l-0.333,0.897c-0.236-0.14-0.473-0.21-0.709-0.21c-0.212,0-0.401,0.063-0.569,0.19
				c-0.169,0.128-0.288,0.304-0.36,0.529c-0.107,0.344-0.161,0.72-0.161,1.128v2.986H253.399z"/>
			<path d="M256.713,67.002c0-1.057,0.293-1.839,0.881-2.348c0.49-0.422,1.088-0.634,1.794-0.634c0.784,0,1.425,0.257,1.923,0.771
				c0.497,0.515,0.746,1.225,0.746,2.13c0,0.734-0.109,1.312-0.33,1.732c-0.22,0.421-0.541,0.747-0.961,0.98
				c-0.421,0.232-0.881,0.349-1.378,0.349c-0.799,0-1.444-0.256-1.937-0.768C256.959,68.702,256.713,67.965,256.713,67.002z
				 M257.706,67.002c0,0.73,0.159,1.277,0.479,1.641c0.318,0.363,0.72,0.545,1.203,0.545c0.479,0,0.879-0.183,1.197-0.548
				c0.319-0.365,0.479-0.922,0.479-1.67c0-0.706-0.16-1.24-0.48-1.604c-0.321-0.363-0.72-0.545-1.195-0.545
				c-0.483,0-0.885,0.181-1.203,0.542C257.865,65.725,257.706,66.271,257.706,67.002z"/>
			<path d="M263.169,69.853v-7.874h0.967v7.874H263.169z"/>
			<path d="M265.612,69.853v-7.874h0.967v7.874H265.612z"/>
			<path d="M271.983,68.016l0.999,0.124c-0.157,0.583-0.449,1.036-0.875,1.358c-0.427,0.322-0.971,0.483-1.633,0.483
				c-0.835,0-1.496-0.257-1.985-0.771c-0.488-0.514-0.732-1.234-0.732-2.162c0-0.959,0.247-1.704,0.741-2.234
				c0.494-0.529,1.135-0.795,1.923-0.795c0.763,0,1.386,0.26,1.869,0.779c0.483,0.519,0.725,1.249,0.725,2.191
				c0,0.057-0.002,0.143-0.005,0.258h-4.254c0.035,0.626,0.213,1.106,0.531,1.439c0.319,0.333,0.717,0.499,1.192,0.499
				c0.354,0,0.657-0.093,0.908-0.279C271.637,68.723,271.836,68.425,271.983,68.016z M268.809,66.454h3.185
				c-0.043-0.48-0.164-0.84-0.365-1.08c-0.308-0.372-0.707-0.559-1.197-0.559c-0.444,0-0.817,0.148-1.12,0.446
				C269.008,65.558,268.841,65.956,268.809,66.454z"/>
			<path d="M274.185,69.853v-5.704h0.87v0.865c0.223-0.405,0.428-0.672,0.615-0.801c0.188-0.129,0.395-0.193,0.62-0.193
				c0.326,0,0.657,0.104,0.994,0.312l-0.333,0.897c-0.236-0.14-0.473-0.21-0.709-0.21c-0.212,0-0.401,0.063-0.569,0.19
				c-0.169,0.128-0.288,0.304-0.36,0.529c-0.107,0.344-0.161,0.72-0.161,1.128v2.986H274.185z"/>
			<path d="M285.728,68.925v0.929h-5.205c-0.007-0.232,0.03-0.456,0.113-0.671c0.132-0.354,0.345-0.704,0.636-1.048
				c0.292-0.344,0.714-0.741,1.266-1.192c0.855-0.701,1.434-1.258,1.734-1.668c0.301-0.409,0.451-0.797,0.451-1.162
				c0-0.384-0.137-0.707-0.411-0.97c-0.273-0.264-0.631-0.395-1.071-0.395c-0.465,0-0.838,0.14-1.117,0.419s-0.421,0.666-0.424,1.16
				l-0.994-0.103c0.068-0.741,0.324-1.306,0.769-1.694c0.443-0.389,1.04-0.583,1.788-0.583c0.756,0,1.354,0.21,1.794,0.629
				s0.661,0.938,0.661,1.558c0,0.314-0.064,0.625-0.193,0.929c-0.129,0.305-0.343,0.625-0.643,0.962
				c-0.299,0.336-0.795,0.798-1.49,1.386c-0.58,0.486-0.952,0.817-1.117,0.99c-0.164,0.174-0.301,0.349-0.408,0.524H285.728z"/>
		</g>
	</g>
	<g>
		
			<polyline style="fill:none;stroke:#FFFFFF;stroke-width:6;stroke-linecap:round;stroke-linejoin:round;stroke-miterlimit:10;" points="
			28.99,107.467 28.99,55.101 221.089,55.101 221.089,107.467 		"/>
		
			<polyline style="fill:none;stroke:#9124FF;stroke-width:2;stroke-linecap:round;stroke-linejoin:round;stroke-miterlimit:10;" points="
			28.99,107.467 28.99,55.101 221.089,55.101 221.089,107.467 		"/>
	</g>
	<g>
		
			<polyline style="fill:none;stroke:#FFFFFF;stroke-width:6;stroke-linecap:round;stroke-linejoin:round;stroke-miterlimit:10;" points="
			192.388,107.467 192.067,76.929 57.721,76.926 57.576,107.464 		"/>
		
			<polyline style="fill:none;stroke:#5094D2;stroke-width:2;stroke-linecap:round;stroke-linejoin:round;stroke-miterlimit:10;" points="
			192.388,107.467 192.067,76.929 57.721,76.926 57.576,107.464 		"/>
	</g>
</g>
<g>
</g>
<g>
</g>
<g>
</g>
<g>
</g>
<g>
</g>
<g>
</g>
<g>
</g>
<g>
</g>
<g>
</g>
<g>
</g>
<g>
</g>
<g>
</g>
<g>
</g>
<g>
</g>
<g>
</g>
</svg>
