<?xml version="1.0" encoding="utf-8"?>
<!-- Generator: Adobe Illustrator 26.5.0, SVG Export Plug-In . SVG Version: 6.00 Build 0)  -->
<svg version="1.1" id="Layer_1" xmlns="http://www.w3.org/2000/svg" xmlns:xlink="http://www.w3.org/1999/xlink" x="0px" y="0px"
	 viewBox="0 0 396 199.4" style="enable-background:new 0 0 396 199.4;" xml:space="preserve">
<style type="text/css">
	
		.st0{clip-path:url(#SVGID_00000018194774057204524650000000152015939068463495_);fill:none;stroke:#000000;stroke-width:0.5245;stroke-miterlimit:10;}
	
		.st1{clip-path:url(#SVGID_00000018194774057204524650000000152015939068463495_);fill:none;stroke:#000000;stroke-width:0.5245;stroke-linecap:round;stroke-linejoin:round;stroke-miterlimit:10;}
	.st2{clip-path:url(#SVGID_00000018194774057204524650000000152015939068463495_);}
	.st3{fill:none;stroke:#FFFFFF;stroke-width:0.5245;stroke-linecap:round;stroke-linejoin:round;stroke-miterlimit:10;}
	
		.st4{fill:none;stroke:#000000;stroke-width:0.5245;stroke-linecap:round;stroke-linejoin:round;stroke-miterlimit:10;stroke-dasharray:2.6224,1.5734;}
	
		.st5{clip-path:url(#SVGID_00000018194774057204524650000000152015939068463495_);fill:none;stroke:#000000;stroke-width:0.5;stroke-linecap:round;stroke-linejoin:round;stroke-miterlimit:10;}
	.st6{fill:none;stroke:#000000;stroke-width:0.5245;stroke-linecap:round;stroke-linejoin:round;stroke-miterlimit:10;}
	
		.st7{clip-path:url(#SVGID_00000018194774057204524650000000152015939068463495_);fill:#FFFFFF;stroke:#000000;stroke-width:0.5245;stroke-linecap:round;stroke-linejoin:round;stroke-miterlimit:10;}
	
		.st8{clip-path:url(#SVGID_00000018194774057204524650000000152015939068463495_);fill:none;stroke:#000000;stroke-width:0.5245;stroke-linecap:round;stroke-linejoin:round;stroke-miterlimit:10;stroke-dasharray:2.6224,1.5734;}
	
		.st9{clip-path:url(#SVGID_00000018194774057204524650000000152015939068463495_);fill:none;stroke:#000000;stroke-width:0.4714;stroke-linecap:round;stroke-linejoin:round;stroke-miterlimit:10;}
	
		.st10{clip-path:url(#SVGID_00000018194774057204524650000000152015939068463495_);fill:none;stroke:#000000;stroke-width:0.3192;stroke-linecap:round;stroke-linejoin:round;stroke-miterlimit:10;}
	
		.st11{clip-path:url(#SVGID_00000018194774057204524650000000152015939068463495_);fill:none;stroke:#000000;stroke-width:0.3707;stroke-linecap:round;stroke-linejoin:round;stroke-miterlimit:10;}
	
		.st12{clip-path:url(#SVGID_00000018194774057204524650000000152015939068463495_);fill:none;stroke:#000000;stroke-width:0.3934;stroke-linecap:round;stroke-linejoin:round;stroke-miterlimit:10;}
	.st13{fill:#FFFFFF;}
	.st14{fill:none;stroke:#FFFFFF;stroke-width:2.6224;stroke-linecap:round;stroke-linejoin:round;stroke-miterlimit:10;}
	.st15{fill:#FFFFFF;stroke:#FFFFFF;stroke-width:4.239;stroke-linecap:round;stroke-linejoin:round;}
	.st16{fill:none;stroke:#FFFFFF;stroke-width:2.0979;stroke-linecap:round;stroke-linejoin:round;stroke-miterlimit:10;}
	.st17{fill:none;stroke:#FFFFFF;stroke-width:2.0979;}
	.st18{fill:none;stroke:#000000;stroke-width:0.5245;stroke-linecap:round;stroke-linejoin:round;stroke-dasharray:2.6224,1.5734;}
	
		.st19{fill:none;stroke:#FFFFFF;stroke-width:2.6224;stroke-linecap:round;stroke-linejoin:round;stroke-miterlimit:10;stroke-dasharray:2.6224,1.5734;}
	.st20{fill:none;stroke:#FFFFFF;stroke-width:2.6224;}
	.st21{fill-rule:evenodd;clip-rule:evenodd;fill:#010101;stroke:#FFFFFF;stroke-width:0.81;stroke-miterlimit:10;}
	.st22{font-family:'Helvetica';}
	.st23{font-size:16.9122px;}
	.st24{fill:none;stroke:#FFFFFF;stroke-width:3;stroke-miterlimit:10;}
	.st25{fill:none;stroke:#000000;stroke-width:0.5;stroke-miterlimit:10;}
</style>
<g>
	<g>
		<defs>
			<rect id="SVGID_1_" y="19.8" width="396" height="141.3"/>
		</defs>
		<clipPath id="SVGID_00000018200337880042834140000016740160312413099165_">
			<use xlink:href="#SVGID_1_"  style="overflow:visible;"/>
		</clipPath>
		
			<path style="clip-path:url(#SVGID_00000018200337880042834140000016740160312413099165_);fill:none;stroke:#000000;stroke-width:0.5245;stroke-miterlimit:10;" d="
			M335.5,59.8l0.2,55.3l-24.9,14.4l-0.9,0.5l-59.9-4.1v-10.4l-6.9-1.1l0.1-55.9l7.3-0.3V47.3l58.8-3.9L334,55.8
			C334,55.8,335.8,56.7,335.5,59.8z"/>
		
			<polyline style="clip-path:url(#SVGID_00000018200337880042834140000016740160312413099165_);fill:none;stroke:#000000;stroke-width:0.5245;stroke-miterlimit:10;" points="
			309.9,130.1 334.4,126.7 358.9,114.3 335.7,115.2 		"/>
		
			<path style="clip-path:url(#SVGID_00000018200337880042834140000016740160312413099165_);fill:none;stroke:#000000;stroke-width:0.5245;stroke-linecap:round;stroke-linejoin:round;stroke-miterlimit:10;" d="
			M250.8,141.5c-1.8-0.3-1.6-2.9-1.6-2.9l-0.1-20l-5.8-0.9c-2.8,0-3.3-3.1-3.3-3.1s0.4-49.8,0.2-55.7c-0.2-4.4,1.7-4.3,1.7-4.3
			l7.2-0.4c0,0,0.4-15.2,0.2-19.7c-0.2-4.6,1.7-5.2,1.7-5.2l13.2-1.5c0,0-1.8,0.7-1.8,2.4c0,1.7,0.2,16.5,0.2,16.5"/>
		<g style="clip-path:url(#SVGID_00000018200337880042834140000016740160312413099165_);">
			<line class="st3" x1="242" y1="54.6" x2="249.2" y2="54.2"/>
			<line class="st4" x1="242" y1="54.6" x2="249.2" y2="54.2"/>
		</g>
		<g style="clip-path:url(#SVGID_00000018200337880042834140000016740160312413099165_);">
			<path class="st3" d="M240.3,59c-0.2-4.4,1.7-4.3,1.7-4.3"/>
			<path class="st4" d="M240.3,59c-0.2-4.4,1.7-4.3,1.7-4.3"/>
		</g>
		<g style="clip-path:url(#SVGID_00000018200337880042834140000016740160312413099165_);">
			<path class="st3" d="M240.1,114.6c0,0,0.4-49.8,0.2-55.7"/>
			<path class="st4" d="M240.1,114.6c0,0,0.4-49.8,0.2-55.7"/>
		</g>
		<g style="clip-path:url(#SVGID_00000018200337880042834140000016740160312413099165_);">
			<path class="st3" d="M243.3,117.8c-2.8,0-3.3-3.1-3.3-3.1"/>
			<path class="st4" d="M243.3,117.8c-2.8,0-3.3-3.1-3.3-3.1"/>
		</g>
		<g style="clip-path:url(#SVGID_00000018200337880042834140000016740160312413099165_);">
			<line class="st3" x1="249.1" y1="118.6" x2="243.3" y2="117.8"/>
			<line class="st4" x1="249.1" y1="118.6" x2="243.3" y2="117.8"/>
		</g>
		
			<path style="clip-path:url(#SVGID_00000018200337880042834140000016740160312413099165_);fill:none;stroke:#000000;stroke-width:0.5245;stroke-linecap:round;stroke-linejoin:round;stroke-miterlimit:10;" d="
			M250.5,126.1l0.1,13.8c0,0,0,3.4,1.4,3.8c1.1,0.4,12.5,1.2,12.5,1.2s-1.9-1.3-1.9-3.1s-0.2-14.9-0.2-14.9"/>
		
			<polyline style="clip-path:url(#SVGID_00000018200337880042834140000016740160312413099165_);fill:none;stroke:#000000;stroke-width:0.5245;stroke-linecap:round;stroke-linejoin:round;stroke-miterlimit:10;" points="
			264.8,127.1 264.9,145 274.8,144.8 284,143.2 284,128.7 		"/>
		
			<line style="clip-path:url(#SVGID_00000018200337880042834140000016740160312413099165_);fill:none;stroke:#000000;stroke-width:0.5245;stroke-linecap:round;stroke-linejoin:round;stroke-miterlimit:10;" x1="274.8" y1="127.9" x2="274.8" y2="144.8"/>
		
			<polyline style="clip-path:url(#SVGID_00000018200337880042834140000016740160312413099165_);fill:none;stroke:#000000;stroke-width:0.5245;stroke-miterlimit:10;" points="
			265.4,46.1 264.8,27.7 274.8,27.9 283.9,29.3 284.2,44.6 		"/>
		
			<line style="clip-path:url(#SVGID_00000018200337880042834140000016740160312413099165_);fill:none;stroke:#000000;stroke-width:0.5245;stroke-miterlimit:10;" x1="274.6" y1="28" x2="274.9" y2="45.5"/>
		
			<path style="clip-path:url(#SVGID_00000018200337880042834140000016740160312413099165_);fill:none;stroke:#000000;stroke-width:0.5245;stroke-linecap:round;stroke-linejoin:round;stroke-miterlimit:10;" d="
			M359,100.7c0,7.8-0.1,13.6-0.1,13.6"/>
		
			<path style="clip-path:url(#SVGID_00000018200337880042834140000016740160312413099165_);fill:none;stroke:#000000;stroke-width:0.5245;stroke-linecap:round;stroke-linejoin:round;stroke-miterlimit:10;" d="
			M309.3,43.4l23.3,1.4l23,12.1c0,0,3.3,1.2,3.5,4.3c0,0.9,0.1,5.5,0.1,11.6"/>
		
			<line style="clip-path:url(#SVGID_00000018200337880042834140000016740160312413099165_);fill:none;stroke:#000000;stroke-width:0.5245;stroke-linecap:round;stroke-linejoin:round;stroke-miterlimit:10;" x1="339" y1="56.5" x2="355.5" y2="58.4"/>
		
			<ellipse style="clip-path:url(#SVGID_00000018200337880042834140000016740160312413099165_);fill:none;stroke:#000000;stroke-width:0.5;stroke-linecap:round;stroke-linejoin:round;stroke-miterlimit:10;" cx="279.6" cy="36.9" rx="3.1" ry="4.5"/>
		
			<ellipse style="clip-path:url(#SVGID_00000018200337880042834140000016740160312413099165_);fill:none;stroke:#000000;stroke-width:0.5;stroke-linecap:round;stroke-linejoin:round;stroke-miterlimit:10;" cx="279.6" cy="136" rx="2.9" ry="4.1"/>
		
			<polyline style="clip-path:url(#SVGID_00000018200337880042834140000016740160312413099165_);fill:none;stroke:#000000;stroke-width:0.5245;stroke-linecap:round;stroke-linejoin:round;stroke-miterlimit:10;" points="
			337.3,39.9 337.3,41.7 327.5,40.6 319.1,41.5 319,25.6 327.5,25 335.2,26.4 		"/>
		
			<line style="clip-path:url(#SVGID_00000018200337880042834140000016740160312413099165_);fill:none;stroke:#000000;stroke-width:0.5245;stroke-linecap:round;stroke-linejoin:round;stroke-miterlimit:10;" x1="327.6" y1="40.5" x2="327.5" y2="25"/>
		
			<polyline style="clip-path:url(#SVGID_00000018200337880042834140000016740160312413099165_);fill:none;stroke:#000000;stroke-width:0.5245;stroke-linecap:round;stroke-linejoin:round;stroke-miterlimit:10;" points="
			326,133.5 317.2,133.7 317.8,148.8 326.4,149.4 326,133.5 335.9,132.3 335.9,134.1 		"/>
		
			<line style="clip-path:url(#SVGID_00000018200337880042834140000016740160312413099165_);fill:none;stroke:#000000;stroke-width:0.5245;stroke-linecap:round;stroke-linejoin:round;stroke-miterlimit:10;" x1="326.5" y1="149.4" x2="335" y2="147.5"/>
		<g style="clip-path:url(#SVGID_00000018200337880042834140000016740160312413099165_);">
			<path class="st6" d="M312.7,141.7c-0.4,0.4-0.8,0.7-1.2,0.6c-1.1-0.1-1.8-2-1.7-4.3s1.2-4,2.3-3.9c0.5,0.1,1,0.5,1.3,1.2"/>
			<path class="st6" d="M309,142.2c-1.1-0.2-1.7-2.1-1.4-4.4c0.3-2.2,1.5-3.9,2.5-3.7"/>
			<path class="st6" d="M306.8,142c-1.1-0.2-1.7-2.1-1.4-4.4c0.3-2.2,1.5-3.9,2.5-3.7"/>
			<path class="st6" d="M304.6,141.8c-1.1-0.2-1.7-2.1-1.4-4.4c0.3-2.2,1.5-3.9,2.5-3.7"/>
			<path class="st6" d="M302.4,141.7c-1.1-0.2-1.7-2.1-1.4-4.4s1.5-3.9,2.5-3.7"/>
			<path class="st6" d="M300.2,141.5c-1.1-0.2-1.7-2.1-1.4-4.4c0.3-2.2,1.5-3.9,2.5-3.7"/>
			<path class="st6" d="M312.2,134.2l-13-1c-1.1-0.2-2.2,1.5-2.5,3.7c-0.3,2.2,0.3,4.2,1.4,4.4l13.5,1"/>
		</g>
		
			<ellipse transform="matrix(7.355207e-02 -0.9973 0.9973 7.355207e-02 171.5222 466.2044)" style="clip-path:url(#SVGID_00000018200337880042834140000016740160312413099165_);fill:none;stroke:#000000;stroke-width:0.5245;stroke-linecap:round;stroke-linejoin:round;stroke-miterlimit:10;" cx="336.7" cy="140.8" rx="6.3" ry="3.4"/>
		
			<line style="clip-path:url(#SVGID_00000018200337880042834140000016740160312413099165_);fill:none;stroke:#000000;stroke-width:0.5245;stroke-linecap:round;stroke-linejoin:round;stroke-miterlimit:10;" x1="311.6" y1="141.3" x2="316" y2="141.7"/>
		
			<line style="clip-path:url(#SVGID_00000018200337880042834140000016740160312413099165_);fill:none;stroke:#000000;stroke-width:0.5245;stroke-linecap:round;stroke-linejoin:round;stroke-miterlimit:10;" x1="335.7" y1="135.1" x2="339" y2="145.1"/>
		
			<line style="clip-path:url(#SVGID_00000018200337880042834140000016740160312413099165_);fill:none;stroke:#000000;stroke-width:0.5245;stroke-linecap:round;stroke-linejoin:round;stroke-miterlimit:10;" x1="334.2" y1="145.6" x2="339.9" y2="137.7"/>
		<g style="clip-path:url(#SVGID_00000018200337880042834140000016740160312413099165_);">
			<g>
				<path class="st6" d="M315.1,37.7c-0.3,0.5-0.7,0.8-1.1,0.8c-1.1,0.1-2.1-1.7-2.2-3.9s0.6-4.1,1.7-4.1c0.5,0,1,0.3,1.4,1"/>
				<path class="st6" d="M311.5,38.7c-1.1,0-2-1.8-2-4.1c0-2.2,0.9-4,2-4"/>
				<path class="st6" d="M309.3,38.9c-1.1,0-2-1.8-2-4.1c0-2.2,0.9-4,2-4"/>
				<path class="st6" d="M307,39.1c-1.1,0-2-1.8-2-4.1c0-2.2,0.9-4,2-4"/>
				<path class="st6" d="M304.8,39.3c-1.1,0-2-1.8-2-4.1c0-2.2,0.9-4,2-4"/>
				<path class="st6" d="M302.6,39.5c-1.1,0-2-1.8-2-4.1s0.9-4,2-4"/>
				<path class="st6" d="M313.5,30.5l-13.1,1.1c-1.1,0-2,1.8-2,4c0,2.2,0.9,4,2,4.1l13.7-1.2"/>
			</g>
			
				<ellipse transform="matrix(0.9995 -3.177129e-02 3.177129e-02 0.9995 -0.8883 10.7766)" class="st6" cx="338.7" cy="33.3" rx="3.4" ry="6.3"/>
			<path class="st6" d="M338.5,27.1l-4,0c-1.9,0.1-3.3,2.9-3.2,6.4c0.1,3.5,1.7,6.2,3.6,6.1l4.1,0"/>
			<line class="st6" x1="313.5" y1="31.8" x2="318.4" y2="31.3"/>
			<line class="st6" x1="313.9" y1="37.5" x2="319.4" y2="37"/>
			<line class="st6" x1="337" y1="27.8" x2="341.4" y2="37.4"/>
			<line class="st6" x1="336.7" y1="38.4" x2="341.5" y2="29.9"/>
		</g>
		
			<polyline style="clip-path:url(#SVGID_00000018200337880042834140000016740160312413099165_);fill:none;stroke:#000000;stroke-width:0.5245;stroke-linecap:round;stroke-linejoin:round;stroke-miterlimit:10;" points="
			191.4,103.9 177.1,103.8 177.2,70.8 191.9,70.9 		"/>
		
			<path style="clip-path:url(#SVGID_00000018200337880042834140000016740160312413099165_);fill:none;stroke:#000000;stroke-width:0.5245;stroke-linecap:round;stroke-linejoin:round;stroke-miterlimit:10;" d="
			M192,107.9v-39c0,0-0.4-1.6,2.5-1.7c2.9-0.1,30.4-0.4,30.4-0.4s3.2-0.1,3.5,3s0.1,35.9,0.1,35.9s0.6,4.3-4.4,4.2
			C219,109.6,192,107.9,192,107.9z"/>
		
			<path style="clip-path:url(#SVGID_00000018200337880042834140000016740160312413099165_);fill:none;stroke:#000000;stroke-width:0.5245;stroke-linecap:round;stroke-linejoin:round;stroke-miterlimit:10;" d="
			M225.4,66.7c2.9-0.1,5,0,5,0s3.2-0.1,3.5,3s0.1,35.9,0.1,35.9s0.6,4.3-4.4,4.2c-5.1-0.2-4.5,0.4-4.5,0.4"/>
		
			<polygon style="clip-path:url(#SVGID_00000018200337880042834140000016740160312413099165_);fill:none;stroke:#000000;stroke-width:0.5245;stroke-linecap:round;stroke-linejoin:round;stroke-miterlimit:10;" points="
			197.2,78.7 205.8,78.7 205.8,97.6 197,97.4 		"/>
		
			<polyline style="clip-path:url(#SVGID_00000018200337880042834140000016740160312413099165_);fill:none;stroke:#000000;stroke-width:0.5245;stroke-linecap:round;stroke-linejoin:round;stroke-miterlimit:10;" points="
			205.6,79.9 198.7,79.9 197.2,78.7 		"/>
		
			<polyline style="clip-path:url(#SVGID_00000018200337880042834140000016740160312413099165_);fill:none;stroke:#000000;stroke-width:0.5245;stroke-linecap:round;stroke-linejoin:round;stroke-miterlimit:10;" points="
			197,97.4 198.6,96.2 205.6,96.3 		"/>
		
			<line style="clip-path:url(#SVGID_00000018200337880042834140000016740160312413099165_);fill:none;stroke:#000000;stroke-width:0.5245;stroke-linecap:round;stroke-linejoin:round;stroke-miterlimit:10;" x1="198.7" y1="79.9" x2="198.6" y2="96.2"/>
		
			<polyline style="clip-path:url(#SVGID_00000018200337880042834140000016740160312413099165_);fill:#FFFFFF;stroke:#000000;stroke-width:0.5245;stroke-linecap:round;stroke-linejoin:round;stroke-miterlimit:10;" points="
			186.8,103.9 177.1,103.8 177.1,70.8 187.1,70.9 		"/>
		
			<path style="clip-path:url(#SVGID_00000018200337880042834140000016740160312413099165_);fill:none;stroke:#000000;stroke-width:0.5245;stroke-linecap:round;stroke-linejoin:round;stroke-miterlimit:10;" d="
			M173.4,55.7l-6.4-0.4c-1.1-0.3-1.8,0-1.8,0s-9,1.5-11.4,2.1c-2.4,0.6-2,3-2,3v48.9c0,0-0.2,4.7,3.3,5l10.9,2.1l1.1-1.1l5.6-0.1"/>
		
			<path style="clip-path:url(#SVGID_00000018200337880042834140000016740160312413099165_);fill:none;stroke:#000000;stroke-width:0.5245;stroke-linecap:round;stroke-linejoin:round;stroke-miterlimit:10;stroke-dasharray:2.6224,1.5734;" d="
			M161.8,58.2l10.6-2.1c0,0,2.5-0.8,2.9,2.3l0.1,54c0,0-0.5,3.4-2.6,3l-11.6-2.3c0,0-1.7-0.7-1.6-3.8s0.3-48.2,0.3-48.2
			S159.3,58.5,161.8,58.2z"/>
		
			<ellipse style="clip-path:url(#SVGID_00000018200337880042834140000016740160312413099165_);fill:none;stroke:#000000;stroke-width:0.5245;stroke-linecap:round;stroke-linejoin:round;stroke-miterlimit:10;" cx="159.8" cy="47.3" rx="2.7" ry="4.2"/>
		
			<ellipse style="clip-path:url(#SVGID_00000018200337880042834140000016740160312413099165_);fill:none;stroke:#000000;stroke-width:0.5245;stroke-linecap:round;stroke-linejoin:round;stroke-miterlimit:10;" cx="159.8" cy="123.4" rx="2.7" ry="4.2"/>
		
			<path style="clip-path:url(#SVGID_00000018200337880042834140000016740160312413099165_);fill:none;stroke:#000000;stroke-width:0.5245;stroke-linecap:round;stroke-linejoin:round;stroke-miterlimit:10;" d="
			M188.7,67.3l-0.2-21.4c-0.2-2.7-2.6-2.7-2.6-2.7L138.2,39c0,0-1.1-2.9-5.6-3.1l-74.5-7.3c0,0-9-0.3-8.6,12.3H46l0,94l3.7-0.1
			l0.1,3l-3.9,0.2v4.5l12.9-1.4"/>
		
			<path style="clip-path:url(#SVGID_00000018200337880042834140000016740160312413099165_);fill:none;stroke:#000000;stroke-width:0.5245;stroke-linecap:round;stroke-linejoin:round;stroke-miterlimit:10;" d="
			M151.4,131.1l33.9-3.7c2.9-0.1,3.7-3,3.7-3V108"/>
		
			<path style="clip-path:url(#SVGID_00000018200337880042834140000016740160312413099165_);fill:none;stroke:#000000;stroke-width:0.5245;stroke-linecap:round;stroke-linejoin:round;stroke-miterlimit:10;" d="
			M51.4,30.7L44.1,30c0,0-2.8,2.6-2.2,5.6l1.9,0.2v105.5"/>
		
			<line style="clip-path:url(#SVGID_00000018200337880042834140000016740160312413099165_);fill:none;stroke:#000000;stroke-width:0.5245;stroke-linecap:round;stroke-linejoin:round;stroke-miterlimit:10;" x1="-9.6" y1="35.7" x2="44.1" y2="30"/>
		
			<line style="clip-path:url(#SVGID_00000018200337880042834140000016740160312413099165_);fill:none;stroke:#000000;stroke-width:0.5245;stroke-linecap:round;stroke-linejoin:round;stroke-miterlimit:10;" x1="45.8" y1="142.5" x2="-14.3" y2="135.6"/>
		<g style="clip-path:url(#SVGID_00000018200337880042834140000016740160312413099165_);">
			<ellipse transform="matrix(0.5481 -0.8364 0.8364 0.5481 -4.678 69.7141)" class="st6" cx="62.2" cy="39.2" rx="7.6" ry="7.8"/>
			<line class="st6" x1="63.2" y1="33.9" x2="63.2" y2="44.4"/>
			<line class="st6" x1="58.3" y1="38.5" x2="68.1" y2="39.5"/>
		</g>
		<g style="clip-path:url(#SVGID_00000018200337880042834140000016740160312413099165_);">
			<ellipse transform="matrix(0.5481 -0.8364 0.8364 0.5481 22.3954 130.9737)" class="st6" cx="132.4" cy="44.8" rx="6.8" ry="7"/>
			<line class="st6" x1="133.3" y1="40" x2="133.3" y2="49.4"/>
			<line class="st6" x1="128.9" y1="44.2" x2="137.7" y2="45.1"/>
		</g>
		
			<path style="clip-path:url(#SVGID_00000018200337880042834140000016740160312413099165_);fill:none;stroke:#000000;stroke-width:0.5245;stroke-linecap:round;stroke-linejoin:round;stroke-miterlimit:10;" d="
			M111.3,64.2l11.5-14.4c-8-12.7-25.5-13.8-25.5-13.8c-20.7,0.2-27.1,10.3-27.1,10.3L85,63.8"/>
		
			<path style="clip-path:url(#SVGID_00000018200337880042834140000016740160312413099165_);fill:none;stroke:#000000;stroke-width:0.5245;stroke-linecap:round;stroke-linejoin:round;stroke-miterlimit:10;" d="
			M53.5,98.3c9.7-0.4,9.3-14.4,9.3-14.4C62.3,70.2,53.5,70,53.5,70V68h2.7c0,0,3.2-13.4,9.6-16.7l15.2,15.4"/>
		
			<path style="clip-path:url(#SVGID_00000018200337880042834140000016740160312413099165_);fill:none;stroke:#000000;stroke-width:0.5245;stroke-linecap:round;stroke-linejoin:round;stroke-miterlimit:10;" d="
			M114.8,68.4l11-14c0,0,5.2,6.3,7.5,16"/>
		
			<path style="clip-path:url(#SVGID_00000018200337880042834140000016740160312413099165_);fill:none;stroke:#000000;stroke-width:0.5245;stroke-linecap:round;stroke-linejoin:round;stroke-miterlimit:10;" d="
			M114.7,99.8l10.8,13.8c0,0,5.5-7.6,7.4-15.6"/>
		
			<path style="clip-path:url(#SVGID_00000018200337880042834140000016740160312413099165_);fill:none;stroke:#000000;stroke-width:0.5245;stroke-linecap:round;stroke-linejoin:round;stroke-miterlimit:10;" d="
			M80.2,100.8c0,0-7.3,9.5-9.7,11.9"/>
		
			<line style="clip-path:url(#SVGID_00000018200337880042834140000016740160312413099165_);fill:none;stroke:#000000;stroke-width:0.5245;stroke-linecap:round;stroke-linejoin:round;stroke-miterlimit:10;" x1="83.9" y1="105.5" x2="72.9" y2="117.6"/>
		
			<path style="clip-path:url(#SVGID_00000018200337880042834140000016740160312413099165_);fill:none;stroke:#000000;stroke-width:0.5245;stroke-linecap:round;stroke-linejoin:round;stroke-miterlimit:10;" d="
			M111.8,104.1l9.7,12.4c0,0,1.9,3.1-10,10.4"/>
		
			<path style="clip-path:url(#SVGID_00000018200337880042834140000016740160312413099165_);fill:none;stroke:#000000;stroke-width:0.5245;stroke-linecap:round;stroke-linejoin:round;stroke-miterlimit:10;" d="
			M72.7,123.8c0,0,6.4,5.7,8.3,5.9"/>
		
			<ellipse style="clip-path:url(#SVGID_00000018200337880042834140000016740160312413099165_);fill:none;stroke:#000000;stroke-width:0.5245;stroke-linecap:round;stroke-linejoin:round;stroke-miterlimit:10;" cx="97.8" cy="84.5" rx="21.3" ry="24.8"/>
		
			<path style="clip-path:url(#SVGID_00000018200337880042834140000016740160312413099165_);fill:none;stroke:#000000;stroke-width:0.5245;stroke-linecap:round;stroke-linejoin:round;stroke-miterlimit:10;" d="
			M134,72.1c0,0,13.4-3.3,10.9,15.6l-0.6,2.7"/>
		
			<path style="clip-path:url(#SVGID_00000018200337880042834140000016740160312413099165_);fill:none;stroke:#000000;stroke-width:0.5245;stroke-linecap:round;stroke-linejoin:round;stroke-miterlimit:10;" d="
			M145.9,107.7l-1.4-7.5l-1.7-2.1l-1.1-5l1-3c0,0-0.5-4-1.8-8.1c-1.8-5.7-6.7-3.6-6.7-3.6s-5.8,3.4-3.7,10.9l1,5.9l1.8,3.5l0.6,2
			l2.4,3.1l1.3,7.5"/>
		
			<path style="clip-path:url(#SVGID_00000018200337880042834140000016740160312413099165_);fill:none;stroke:#000000;stroke-width:0.5245;stroke-linecap:round;stroke-linejoin:round;stroke-miterlimit:10;" d="
			M148.1,107.4l-1.4-7.5l-1.7-2.1l-1.1-5l1-3c0,0-0.5-4-1.8-8.1c-1.8-5.7-6.7-3.6-6.7-3.6"/>
		
			<path style="clip-path:url(#SVGID_00000018200337880042834140000016740160312413099165_);fill:none;stroke:#000000;stroke-width:0.5245;stroke-linecap:round;stroke-linejoin:round;stroke-miterlimit:10;stroke-dasharray:2.6224,1.5734;" d="
			M143.8,110.3l3.1,14c0,0-67.2,6.2-69.9,6.2s-3.6-2.6-3.6-2.6L71,114.3c-2.6-2.8-6.8,0.3-6.8,0.3l3.1,17.1c2,6.8,9.6,6.4,9.6,6.4
			l71.1-7.5c7.1,0,5.9-9,5.9-9l-3.6-12.4c-1.4-1.2-4.3,0.2-4.3,0.2l-6.5,1.4c-5.1,1.2-3.7,6.2-3.7,6.2l1.2,7.8"/>
		
			<path style="clip-path:url(#SVGID_00000018200337880042834140000016740160312413099165_);fill:none;stroke:#000000;stroke-width:0.5245;stroke-linecap:round;stroke-linejoin:round;stroke-miterlimit:10;stroke-dasharray:2.6224,1.5734;" d="
			M65.3,112.9l-9.2,3.3c0,0-2.9,0.8-2.2,4.5c0.8,3.7,1.6,12.6,1.6,12.6s1.4,11,10.4,10.6s72.7-7.8,72.7-7.8l10.7-5.1"/>
		
			<path style="clip-path:url(#SVGID_00000018200337880042834140000016740160312413099165_);fill:none;stroke:#000000;stroke-width:0.5245;stroke-linecap:round;stroke-linejoin:round;stroke-miterlimit:10;stroke-dasharray:2.6224,1.5734;" d="
			M56.1,116.2l-1.4-8.8c0,0-0.8-3.7,2.3-5s8-3.4,8-3.4s-1.9,2.9-1.9,4.8s1.3,8.8,1.3,8.8"/>
		
			<path style="clip-path:url(#SVGID_00000018200337880042834140000016740160312413099165_);fill:none;stroke:#000000;stroke-width:0.5245;stroke-linecap:round;stroke-linejoin:round;stroke-miterlimit:10;" d="
			M67.9,112.9l-1.5-9.7c0,0,2.1-2.6,2.1-4.5s-0.3-3.8-0.3-3.8l0.9-3.5c0,0-0.5-8.6-3.5-13.1"/>
		
			<polyline style="clip-path:url(#SVGID_00000018200337880042834140000016740160312413099165_);fill:none;stroke:#000000;stroke-width:0.5245;stroke-linecap:round;stroke-linejoin:round;stroke-miterlimit:10;" points="
			65,98.9 64.2,94.9 68.1,94.9 		"/>
		
			<path style="clip-path:url(#SVGID_00000018200337880042834140000016740160312413099165_);fill:none;stroke:#000000;stroke-width:0.5245;stroke-linecap:round;stroke-linejoin:round;stroke-miterlimit:10;" d="
			M57,102.3l-0.2-4c9.7-0.4,9.3-14.4,9.3-14.4C65.6,70.2,56.8,70,56.8,70"/>
		
			<line style="clip-path:url(#SVGID_00000018200337880042834140000016740160312413099165_);fill:none;stroke:#000000;stroke-width:0.5245;stroke-linecap:round;stroke-linejoin:round;stroke-miterlimit:10;" x1="65.5" y1="91.4" x2="69" y2="91.4"/>
		
			<line style="clip-path:url(#SVGID_00000018200337880042834140000016740160312413099165_);fill:none;stroke:#000000;stroke-width:0.5245;stroke-linecap:round;stroke-linejoin:round;stroke-miterlimit:10;" x1="53.6" y1="72.8" x2="53.6" y2="95.3"/>
		
			<ellipse style="clip-path:url(#SVGID_00000018200337880042834140000016740160312413099165_);fill:none;stroke:#000000;stroke-width:0.5245;stroke-linecap:round;stroke-linejoin:round;stroke-miterlimit:10;" cx="58.1" cy="83.9" rx="2.2" ry="4.2"/>
		
			<ellipse style="clip-path:url(#SVGID_00000018200337880042834140000016740160312413099165_);fill:none;stroke:#000000;stroke-width:0.5245;stroke-linecap:round;stroke-linejoin:round;stroke-miterlimit:10;" cx="136.1" cy="86.8" rx="2.3" ry="3.6"/>
		
			<polygon style="clip-path:url(#SVGID_00000018200337880042834140000016740160312413099165_);fill:none;stroke:#000000;stroke-width:0.5245;stroke-linecap:round;stroke-linejoin:round;stroke-miterlimit:10;" points="
			291.9,56.7 297.8,52.6 305.3,56.5 305.2,66.5 298.1,70.6 291.9,66.5 		"/>
		
			<ellipse style="clip-path:url(#SVGID_00000018200337880042834140000016740160312413099165_);fill:none;stroke:#000000;stroke-width:0.5245;stroke-linecap:round;stroke-linejoin:round;stroke-miterlimit:10;" cx="298.4" cy="111.5" rx="7.5" ry="8.1"/>
		
			<path style="clip-path:url(#SVGID_00000018200337880042834140000016740160312413099165_);fill:none;stroke:#000000;stroke-width:0.5245;stroke-linecap:round;stroke-linejoin:round;stroke-miterlimit:10;" d="
			M272.4,110.3c-4.7,0-5.3-5.6-5.3-5.6l-0.3-38.2c0,0,0-4.5,6.7-4.3"/>
		
			<path style="clip-path:url(#SVGID_00000018200337880042834140000016740160312413099165_);fill:none;stroke:#000000;stroke-width:0.4714;stroke-linecap:round;stroke-linejoin:round;stroke-miterlimit:10;" d="
			M358.3,100.1c-1.5,3.5-3.5,5.7-5.7,5.7c-4.5,0-8.1-8.7-8.1-19.3s3.6-19.3,8.1-19.3c2.2,0,4.2,2.1,5.7,5.6"/>
		
			<path style="clip-path:url(#SVGID_00000018200337880042834140000016740160312413099165_);fill:none;stroke:#000000;stroke-width:0.3192;stroke-linecap:round;stroke-linejoin:round;stroke-miterlimit:10;" d="
			M356.7,99.2c-3,0-5.5-5.9-5.5-13.1c0-7.2,2.4-13.1,5.5-13.1"/>
		
			<path style="clip-path:url(#SVGID_00000018200337880042834140000016740160312413099165_);fill:none;stroke:#000000;stroke-width:0.4714;stroke-linecap:round;stroke-linejoin:round;stroke-miterlimit:10;" d="
			M352.5,105.8h-3.4c-4.5,0-8.1-8.7-8.1-19.3s3.6-19.3,8.1-19.3h3.4"/>
		
			<line style="clip-path:url(#SVGID_00000018200337880042834140000016740160312413099165_);fill:none;stroke:#000000;stroke-width:0.3707;stroke-linecap:round;stroke-linejoin:round;stroke-miterlimit:10;" x1="356.3" y1="73.2" x2="429" y2="71.8"/>
		
			<line style="clip-path:url(#SVGID_00000018200337880042834140000016740160312413099165_);fill:none;stroke:#000000;stroke-width:0.3707;stroke-linecap:round;stroke-linejoin:round;stroke-miterlimit:10;" x1="356.9" y1="99.5" x2="429" y2="101.1"/>
		<g style="clip-path:url(#SVGID_00000018200337880042834140000016740160312413099165_);">
			<ellipse class="st6" cx="166.3" cy="69.3" rx="3.3" ry="3.8"/>
			<ellipse class="st6" cx="167.5" cy="69.3" rx="1.3" ry="1.4"/>
			<line class="st6" x1="166.4" y1="65.4" x2="160.1" y2="65.7"/>
			<line class="st6" x1="165.9" y1="73.1" x2="160" y2="73"/>
		</g>
		<g style="clip-path:url(#SVGID_00000018200337880042834140000016740160312413099165_);">
			<ellipse class="st6" cx="166.3" cy="101.5" rx="3.3" ry="3.8"/>
			<ellipse class="st6" cx="167.5" cy="101.5" rx="1.3" ry="1.4"/>
			<line class="st6" x1="166.4" y1="97.6" x2="160.1" y2="97.9"/>
			<line class="st6" x1="165.9" y1="105.3" x2="160" y2="105.2"/>
		</g>
		
			<ellipse style="clip-path:url(#SVGID_00000018200337880042834140000016740160312413099165_);fill:none;stroke:#000000;stroke-width:0.5245;stroke-linecap:round;stroke-linejoin:round;stroke-miterlimit:10;" cx="167.5" cy="85.7" rx="3.2" ry="4.1"/>
		
			<line style="clip-path:url(#SVGID_00000018200337880042834140000016740160312413099165_);fill:none;stroke:#000000;stroke-width:0.5245;stroke-linecap:round;stroke-linejoin:round;stroke-miterlimit:10;" x1="165.6" y1="106.4" x2="165.6" y2="113.5"/>
		
			<path style="clip-path:url(#SVGID_00000018200337880042834140000016740160312413099165_);fill:none;stroke:#000000;stroke-width:0.5245;stroke-linecap:round;stroke-linejoin:round;stroke-miterlimit:10;" d="
			M165.6,96.9"/>
		
			<path style="clip-path:url(#SVGID_00000018200337880042834140000016740160312413099165_);fill:none;stroke:#000000;stroke-width:0.5245;stroke-linecap:round;stroke-linejoin:round;stroke-miterlimit:10;" d="
			M165.6,74"/>
		
			<line style="clip-path:url(#SVGID_00000018200337880042834140000016740160312413099165_);fill:none;stroke:#000000;stroke-width:0.5245;stroke-linecap:round;stroke-linejoin:round;stroke-miterlimit:10;" x1="165.6" y1="57.9" x2="165.6" y2="64.3"/>
		
			<polygon style="clip-path:url(#SVGID_00000018200337880042834140000016740160312413099165_);fill:none;stroke:#000000;stroke-width:0.5245;stroke-linecap:round;stroke-linejoin:round;stroke-miterlimit:10;" points="
			161.7,79.3 172.5,75.3 172.7,96.2 161.4,91.6 		"/>
		
			<polyline style="clip-path:url(#SVGID_00000018200337880042834140000016740160312413099165_);fill:none;stroke:#000000;stroke-width:0.5245;stroke-linecap:round;stroke-linejoin:round;stroke-miterlimit:10;" points="
			165.6,73.7 165.6,74.7 160.1,77.1 		"/>
		
			<polyline style="clip-path:url(#SVGID_00000018200337880042834140000016740160312413099165_);fill:none;stroke:#000000;stroke-width:0.5245;stroke-linecap:round;stroke-linejoin:round;stroke-miterlimit:10;" points="
			172.5,96 165.4,96 165.6,96.9 		"/>
		
			<path style="clip-path:url(#SVGID_00000018200337880042834140000016740160312413099165_);fill:none;stroke:#000000;stroke-width:0.5245;stroke-linecap:round;stroke-linejoin:round;stroke-miterlimit:10;" d="
			M336.3,147l-4.1-0.4c-1.9-0.1-3.2-3-3-6.5c0.3-3.4,2-6.1,3.9-6l4,0.4l-0.1-4l-1.2,1.7"/>
		
			<path style="clip-path:url(#SVGID_00000018200337880042834140000016740160312413099165_);fill:none;stroke:#000000;stroke-width:0.5245;stroke-linecap:round;stroke-linejoin:round;stroke-miterlimit:10;" d="
			M334.5,133.6"/>
		
			<path style="clip-path:url(#SVGID_00000018200337880042834140000016740160312413099165_);fill:none;stroke:#000000;stroke-width:0.5245;stroke-linecap:round;stroke-linejoin:round;stroke-miterlimit:10;" d="
			M324.6,132.7"/>
		
			<polyline style="clip-path:url(#SVGID_00000018200337880042834140000016740160312413099165_);fill:none;stroke:#000000;stroke-width:0.5245;stroke-linecap:round;stroke-linejoin:round;stroke-miterlimit:10;" points="
			317.8,148.8 316.4,148.3 315.8,132.8 324.6,132.7 334.5,131.4 335.2,130.7 337.1,130.6 		"/>
		
			<line style="clip-path:url(#SVGID_00000018200337880042834140000016740160312413099165_);fill:none;stroke:#000000;stroke-width:0.5245;stroke-linecap:round;stroke-linejoin:round;stroke-miterlimit:10;" x1="311.8" y1="135.6" x2="315.8" y2="135.8"/>
		
			<polyline style="clip-path:url(#SVGID_00000018200337880042834140000016740160312413099165_);fill:none;stroke:#000000;stroke-width:0.5245;stroke-linecap:round;stroke-linejoin:round;stroke-miterlimit:10;" points="
			192.9,38.9 43.3,23.2 -24.7,31.6 		"/>
		
			<polyline style="clip-path:url(#SVGID_00000018200337880042834140000016740160312413099165_);fill:none;stroke:#000000;stroke-width:0.5245;stroke-linecap:round;stroke-linejoin:round;stroke-miterlimit:10;" points="
			-29.8,139.3 45.9,148.9 193.6,132.5 		"/>
		
			<ellipse style="clip-path:url(#SVGID_00000018200337880042834140000016740160312413099165_);fill:none;stroke:#000000;stroke-width:0.3934;stroke-linecap:round;stroke-linejoin:round;stroke-miterlimit:10;" cx="182.3" cy="57.8" rx="4.9" ry="6.6"/>
		
			<ellipse style="clip-path:url(#SVGID_00000018200337880042834140000016740160312413099165_);fill:none;stroke:#000000;stroke-width:0.3934;stroke-linecap:round;stroke-linejoin:round;stroke-miterlimit:10;" cx="182.3" cy="57.8" rx="2.3" ry="3.1"/>
		
			<line style="clip-path:url(#SVGID_00000018200337880042834140000016740160312413099165_);fill:none;stroke:#000000;stroke-width:0.5245;stroke-linecap:round;stroke-linejoin:round;stroke-miterlimit:10;" x1="317.2" y1="133.7" x2="315.8" y2="132.8"/>
		<g style="clip-path:url(#SVGID_00000018200337880042834140000016740160312413099165_);">
			<polygon points="298.5,86 315.7,63.7 315.7,73.9 352.6,72.6 343.9,86.2 352.6,99.4 315.7,98 315.7,108.4 			"/>
			<path class="st13" d="M315.2,65.2v9.1l36.4-1.2l-8.3,13l8.3,12.7l-36.4-1.4v9.4L299.2,86L315.2,65.2 M316.2,62.2l-1.9,2.5
				l-15.9,20.8l-0.5,0.6l0.5,0.6l15.9,20.8l1.9,2.5v-3.1v-8.3l35.3,1.4l2,0.1l-1.1-1.7l-7.9-12.1l7.9-12.4l1.1-1.7l-2,0.1l-35.3,1.2
				v-8.1V62.2L316.2,62.2z"/>
		</g>
		<g style="clip-path:url(#SVGID_00000018200337880042834140000016740160312413099165_);">
			<path class="st13" d="M67.2,104.5l-3.7-3.7l0.7-2.5l-1.4-1.1c0,0-1.8,0.7-3.7-0.3l4.4-7.3l0.4-6.6l-1.2-8.6c0,0,3.4,0.7,5.9,4.2
				l0.8,4c0,0,3.4,1.8,1.8,4l2.3,2.2"/>
			<path class="st14" d="M151.5,95.5l2.1-5.6c1.6-3.7,6.2-2.2,6.2-2.2s5.6,4.1,8.7,6.5s2.3,5.3,2.3,5.3s-3.5,9.8-4.8,13.4
				c-1.3,3.6-4.3,3-4.3,3s-63.2,4.3-72,5s-14.4-4.5-14.4-4.5s-4.8-4.5-7-6.6c-2.1-2.1-1.4-3.6-1.4-3.6l4-15.3
				c3.9-4.4,8.8-2.1,8.8-2.1s4,3.8,6.5,6.1c2.5,2.4,6.4,2.3,6.4,2.3L151.5,95.5z"/>
			<path class="st13" d="M154.7,88.4l-3.2-2.5c0,0-0.2-0.3-1.5-0.7c-1.3-0.4-2.9-0.8-2.9-0.8l-1.5-1.3l-0.8-3.4l-5.3-3.5l-2.9,0.3
				c0,0-4.6,0.3-5.3,6.1c0,0-1.6,5.5,1.3,9.2l4.1,3.4c0,0,2.4-0.2,2.7-0.2l1.8,1l2.9,1.4l8.7-0.3L154.7,88.4L154.7,88.4z"/>
			<path class="st14" d="M171,98.6"/>
			<path class="st14" d="M71,90.9l8.7,8.4c0,0,4.2,4.8,14.6,4.3"/>
		</g>
		<g style="clip-path:url(#SVGID_00000018200337880042834140000016740160312413099165_);">
			<path class="st13" d="M151.5,95.5l2.1-5.6c1.6-3.7,6.2-2.2,6.2-2.2s5.6,4.1,8.7,6.5s2.3,5.3,2.3,5.3s-3.5,9.8-4.8,13.4
				c-1.3,3.6-4.3,3-4.3,3s-63.2,4.3-72,5s-14.4-4.5-14.4-4.5s-4.8-4.5-7-6.6c-2.1-2.1-1.4-3.6-1.4-3.6l4-15.3
				c3.9-4.4,8.8-2.1,8.8-2.1s4,3.8,6.5,6.1c2.5,2.4,6.4,2.3,6.4,2.3L151.5,95.5z"/>
			<path class="st6" d="M171,98.6"/>
		</g>
		<g style="clip-path:url(#SVGID_00000018200337880042834140000016740160312413099165_);">
			<path class="st14" d="M62.7,74.5c0,0,3.4,0.7,5.9,4.2l0.8,4c0,0,3.4,1.8,1.8,4l2.3,2.2"/>
			<path class="st14" d="M63.5,76.5c1,0.7,2,1.5,2.2,2.3l0.8,4c0,0,3.4,1.8,1.8,4l3.4,3.1"/>
			<path class="st14" d="M67.2,104.5l-3.7-3.7l0.7-2.5l-1.4-1.1c0,0-1.1,1.2-3,0.3"/>
			<line class="st14" x1="65.7" y1="78.8" x2="68.6" y2="78.8"/>
			<line class="st14" x1="66.6" y1="82.8" x2="69.5" y2="82.8"/>
			<line class="st14" x1="68.4" y1="86.7" x2="71.3" y2="86.7"/>
			<path class="st14" d="M163.4,95.5l-70.6,1.8c0,0-3.9,0.1-6.4-2.3c-2.5-2.4-6.5-6.1-6.5-6.1s-5-2.2-8.8,2.1l-4,15.3
				c0,0-0.7,1.6,1.4,3.6c2.1,2.1,7,6.6,7,6.6s5.6,5.2,14.4,4.5s72-5,72-5s3,0.5,4.3-3c1.3-3.6,4.8-13.4,4.8-13.4s0.9-2.9-2.3-5.3
				s-8.7-6.5-8.7-6.5s-4.6-1.5-6.2,2.2l-2.1,5.6"/>
			<path class="st14" d="M154.7,88.4l-3.2-2.5c0,0-0.2-0.3-1.5-0.7c-1.3-0.4-2.9-0.8-2.9-0.8l-1.5-1.3l-0.8-3.4l-5.3-3.5l-2.1,0.3
				l5.3,3.5l0.8,3.4l1.5,1.3c0,0,1.6,0.4,2.9,0.8c1.3,0.4,1.5,0.7,1.5,0.7l4.4,3.4"/>
			<line class="st14" x1="146" y1="95.6" x2="149.3" y2="86.3"/>
			<path class="st14" d="M136.6,76.3c0,0-4.6,0.3-5.3,6.1c0,0-1.6,5.5,1.3,9.2l4.1,3.4c0,0,2.4-0.2,2.7-0.2l1.8,1"/>
			<ellipse class="st14" cx="136.7" cy="84.8" rx="2.4" ry="3"/>
			<line class="st14" x1="142.7" y1="79.8" x2="144.8" y2="79.5"/>
			<line class="st14" x1="143.6" y1="83.2" x2="145.7" y2="83"/>
			<line class="st14" x1="145" y1="84.6" x2="147.1" y2="84.3"/>
			<line class="st14" x1="147.1" y1="85.5" x2="143.8" y2="95.5"/>
			<path class="st14" d="M71,90.9l8.7,8.4c0,0,4.2,4.8,14.6,4.3s71.9-2.7,71.9-2.7s3.6,0.1,4.9-2.4"/>
		</g>
		<g style="clip-path:url(#SVGID_00000018200337880042834140000016740160312413099165_);">
			<path class="st6" d="M62.7,74.5c0,0,3.4,0.7,5.9,4.2l0.8,4c0,0,3.4,1.8,1.8,4l2.3,2.2"/>
			<path class="st6" d="M63.5,76.5c1,0.7,2,1.5,2.2,2.3l0.8,4c0,0,3.4,1.8,1.8,4l3.4,3.1"/>
			<path class="st6" d="M67.2,104.5l-3.7-3.7l0.7-2.5l-1.4-1.1c0,0-1.1,1.2-3,0.3"/>
			<line class="st6" x1="65.7" y1="78.8" x2="68.6" y2="78.8"/>
			<line class="st6" x1="66.6" y1="82.8" x2="69.5" y2="82.8"/>
			<line class="st6" x1="68.4" y1="86.7" x2="71.3" y2="86.7"/>
			<path class="st6" d="M163.4,95.5l-70.6,1.8c0,0-3.9,0.1-6.4-2.3c-2.5-2.4-6.5-6.1-6.5-6.1s-5-2.2-8.8,2.1l-4,15.3
				c0,0-0.7,1.6,1.4,3.6c2.1,2.1,7,6.6,7,6.6s5.6,5.2,14.4,4.5s72-5,72-5s3,0.5,4.3-3c1.3-3.6,4.8-13.4,4.8-13.4s0.9-2.9-2.3-5.3
				s-8.7-6.5-8.7-6.5s-4.6-1.5-6.2,2.2l-2.1,5.6"/>
			<path class="st6" d="M154.7,88.4l-3.2-2.5c0,0-0.2-0.3-1.5-0.7c-1.3-0.4-2.9-0.8-2.9-0.8l-1.5-1.3l-0.8-3.4l-5.3-3.5l-2.1,0.3
				l5.3,3.5l0.8,3.4l1.5,1.3c0,0,1.6,0.4,2.9,0.8c1.3,0.4,1.5,0.7,1.5,0.7l4.4,3.4"/>
			<line class="st6" x1="146" y1="95.6" x2="149.3" y2="86.3"/>
			<path class="st6" d="M136.6,76.3c0,0-4.6,0.3-5.3,6.1c0,0-1.6,5.5,1.3,9.2l4.1,3.4c0,0,2.4-0.2,2.7-0.2l1.8,1"/>
			<ellipse class="st6" cx="136.7" cy="84.8" rx="2.4" ry="3"/>
			<line class="st6" x1="142.7" y1="79.8" x2="144.8" y2="79.5"/>
			<line class="st6" x1="143.6" y1="83.2" x2="145.7" y2="83"/>
			<line class="st6" x1="145" y1="84.6" x2="147.1" y2="84.3"/>
			<line class="st6" x1="147.1" y1="85.5" x2="143.8" y2="95.5"/>
			<path class="st6" d="M71,90.9l8.7,8.4c0,0,4.2,4.8,14.6,4.3s71.9-2.7,71.9-2.7s3.6,0.1,4.9-2.4"/>
		</g>
		<g style="clip-path:url(#SVGID_00000018200337880042834140000016740160312413099165_);">
			<path class="st15" d="M140.4,118.6c-11.8,17.8-23.5,16.8-23.5,16.8l-24.2,1.8c0,0,12.7,0.7,24.4-17l-7.7,0.6l22.8-13.4l17.1,9.9
				L140.4,118.6z"/>
			<path d="M140.4,118.6c-11.8,17.8-23.9,17.5-23.9,17.5l-23.8,2.7c0,0,12.7-0.9,24.4-18.6l-7.7,0.6l22.8-13.4l17.1,9.9L140.4,118.6
				z"/>
		</g>
		<g style="clip-path:url(#SVGID_00000018200337880042834140000016740160312413099165_);">
			<line class="st16" x1="278.8" y1="37.3" x2="295.8" y2="35.8"/>
			<line class="st16" x1="159.7" y1="47.2" x2="248.4" y2="39.8"/>
		</g>
		<g style="clip-path:url(#SVGID_00000018200337880042834140000016740160312413099165_);">
			<g>
				<line class="st17" x1="278.8" y1="37.3" x2="295.8" y2="35.8"/>
				<g>
					<line class="st17" x1="159.7" y1="47.2" x2="248.4" y2="39.8"/>
					<g>
						<line class="st17" x1="167.1" y1="46.6" x2="248.4" y2="39.8"/>
						<g>
							<polygon class="st17" points="159.7,47.2 170.5,50.6 167.6,46.6 169.8,42.1 							"/>
						</g>
					</g>
				</g>
			</g>
			<g>
				<line class="st4" x1="278.8" y1="37.3" x2="295.8" y2="35.8"/>
				<g>
					<g>
						<line class="st18" x1="167.1" y1="46.6" x2="248.4" y2="39.8"/>
						<g>
							<polygon points="159.7,47.2 170.5,50.6 167.6,46.6 169.8,42.1 							"/>
						</g>
					</g>
				</g>
			</g>
		</g>
		<g style="clip-path:url(#SVGID_00000018200337880042834140000016740160312413099165_);">
			<line class="st19" x1="279.3" y1="135.4" x2="294.8" y2="136.4"/>
			<line class="st19" x1="159.7" y1="124.1" x2="247.5" y2="132.2"/>
		</g>
		<g style="clip-path:url(#SVGID_00000018200337880042834140000016740160312413099165_);">
			<g>
				<line class="st17" x1="279.9" y1="135.4" x2="294.8" y2="136.4"/>
				<g>
					<line class="st17" x1="159.7" y1="124.1" x2="247.5" y2="132.2"/>
					<g>
						<line class="st17" x1="167.1" y1="124.8" x2="247.5" y2="132.2"/>
						<g>
							<polygon class="st17" points="159.7,124.1 169.7,129.3 167.6,124.8 170.5,120.8 							"/>
						</g>
					</g>
				</g>
			</g>
			<g>
				<line class="st4" x1="279.9" y1="135.4" x2="294.8" y2="136.4"/>
				<g>
					<g>
						<line class="st18" x1="167.1" y1="124.8" x2="247.5" y2="132.2"/>
						<g>
							<polygon points="159.7,124.1 169.7,129.3 167.6,124.8 170.5,120.8 							"/>
						</g>
					</g>
				</g>
			</g>
		</g>
		<g style="clip-path:url(#SVGID_00000018200337880042834140000016740160312413099165_);">
			<path d="M198.3,107.4l16-8.8l-2.9,6.8c0.3,0,0.6,0,1.1,0c5.7,0,18.9-2.2,18.9-22.4v-0.4h1V96c0,19.6-13.5,22.5-21.6,22.5
				c-2.1,0-3.7-0.2-4.5-0.3l-4.1,8.7L198.3,107.4z"/>
			<path class="st13" d="M231.9,82.6c0,0,0,4.6,0,13.3c0,19.3-13.6,22-21.1,22c-2.8,0-4.8-0.4-4.8-0.4l-3.6,7.6l-3.5-17.4l14.3-7.9
				l-2.6,6.1c0,0,0.7,0.1,1.8,0.1c5.1,0,19.4-1.9,19.4-23C231.9,82.7,231.9,82.6,231.9,82.6 M232.9,82.6h-2.1V83
				c0,19.8-12.9,21.9-18.4,21.9c-0.1,0-0.2,0-0.3,0l2-4.7l1.2-2.8l-2.7,1.5l-14.3,7.9l-0.7,0.4l0.2,0.8l3.5,17.4l0.6,3.1l1.4-2.8
				l3.3-6.9c0.9,0.1,2.3,0.3,4.2,0.3c3.8,0,9.4-0.7,13.9-3.9c5.4-3.9,8.2-10.3,8.2-19.1V82.6L232.9,82.6z"/>
		</g>
		<g style="clip-path:url(#SVGID_00000018200337880042834140000016740160312413099165_);">
			<g>
				<polygon class="st20" points="136.9,139.3 70.7,146.6 96.7,148.4 162.9,141 				"/>
				<polygon class="st20" points="176.8,142.6 113.7,149.7 135,151.2 137.9,151.2 200.5,144 				"/>
				<polygon class="st20" points="216.3,146 155.2,153.2 242.8,155.3 				"/>
			</g>
			<g>
				<polygon points="136.9,139.3 70.7,146.6 96.7,148.4 162.9,141 				"/>
				<polygon points="176.8,142.6 113.7,149.7 135,151.2 137.9,151.2 200.5,144 				"/>
				<polygon points="216.3,146 155.2,153.2 242.8,155.3 				"/>
			</g>
		</g>
	</g>
</g>
<g>
	<circle class="st21" cx="29" cy="167.3" r="11.3"/>
	<g>
		<text transform="matrix(1 0 0 1 24.2736 172.8348)" class="st13 st22 st23">3</text>
	</g>
</g>
<g>
	<circle class="st21" cx="213.3" cy="62.9" r="11.3"/>
	<g>
		<text transform="matrix(1 0 0 1 208.516 68.4546)" class="st13 st22 st23">4</text>
	</g>
</g>
<g>
	<circle class="st21" cx="376.3" cy="23.7" r="11.3"/>
	<g>
		<text transform="matrix(1 0 0 1 371.5482 29.2323)" class="st13 st22 st23">2</text>
	</g>
</g>
<g>
	<circle class="st21" cx="360.8" cy="178.8" r="11.3"/>
	<g>
		<text transform="matrix(1 0 0 1 356.0087 184.2859)" class="st13 st22 st23">1</text>
	</g>
</g>
<g>
	<line class="st24" x1="367.6" y1="34.2" x2="340.6" y2="53.1"/>
	<line class="st25" x1="367.6" y1="34.2" x2="340.6" y2="53.1"/>
</g>
<g>
	<line class="st24" x1="334.1" y1="152.7" x2="351.3" y2="168.5"/>
	<line class="st25" x1="334.1" y1="152.7" x2="351.3" y2="168.5"/>
</g>
<g>
	<line class="st24" x1="67.5" y1="140.5" x2="40.6" y2="159.4"/>
	<line class="st25" x1="67.5" y1="140.5" x2="40.6" y2="159.4"/>
</g>
</svg>
