<?xml version="1.0" encoding="utf-8"?>
<!-- Generator: Adobe Illustrator 26.0.3, SVG Export Plug-In . SVG Version: 6.00 Build 0)  -->
<svg version="1.1" id="Layer_1" xmlns="http://www.w3.org/2000/svg" xmlns:xlink="http://www.w3.org/1999/xlink" x="0px" y="0px"
	 viewBox="0 0 342 90.602" style="enable-background:new 0 0 342 90.602;" xml:space="preserve">
<style type="text/css">
	.st0{fill:none;stroke:#FFFFFF;stroke-width:6.1482;stroke-linecap:round;stroke-linejoin:round;stroke-miterlimit:10;}
	.st1{fill:none;stroke:#A25EB5;stroke-width:2.5911;stroke-miterlimit:10;}
	.st2{fill:#58595B;}
	.st3{fill-rule:evenodd;clip-rule:evenodd;fill:#58595B;}
	.st4{fill-rule:evenodd;clip-rule:evenodd;fill:#FFFFFF;}
	.st5{fill:#FFFFFF;}
</style>
<g>
	<g>
		<polyline class="st0" points="143.804,59.768 143.804,79.432 222.424,79.432 		"/>
		<polyline class="st1" points="143.804,59.768 143.804,79.432 222.424,79.432 		"/>
	</g>
	<g>
		<g>
			<g>
				<path class="st2" d="M9.138,70.46h1.283l2.086,3.242l2.086-3.242h1.284v6.857h-1.205V72.4l-2.165,3.233h-0.039l-2.146-3.214
					v4.898H9.138V70.46z"/>
				<path class="st2" d="M17.157,75.828v-0.02c0-1.116,0.882-1.665,2.146-1.665c0.578,0,0.989,0.088,1.391,0.216v-0.128
					c0-0.734-0.451-1.126-1.283-1.126c-0.578,0-1.009,0.127-1.479,0.323l-0.323-0.931c0.578-0.255,1.137-0.422,1.959-0.422
					c0.774,0,1.352,0.206,1.714,0.578c0.382,0.372,0.558,0.921,0.558,1.597v3.066h-1.156v-0.646
					c-0.353,0.421-0.892,0.754-1.685,0.754C18.029,77.425,17.157,76.867,17.157,75.828z M20.713,75.456v-0.353
					c-0.304-0.117-0.705-0.206-1.175-0.206c-0.764,0-1.215,0.323-1.215,0.862v0.02c0,0.5,0.441,0.784,1.009,0.784
					C20.116,76.564,20.713,76.112,20.713,75.456z"/>
				<path class="st2" d="M23.255,72.145h1.195v0.794c0.333-0.479,0.813-0.901,1.617-0.901c1.166,0,1.841,0.784,1.841,1.979v3.302
					h-1.185v-2.938c0-0.804-0.402-1.264-1.107-1.264c-0.686,0-1.166,0.479-1.166,1.283v2.919h-1.195V72.145z"/>
				<path class="st2" d="M28.99,75.828v-0.02c0-1.116,0.882-1.665,2.146-1.665c0.578,0,0.989,0.088,1.391,0.216v-0.128
					c0-0.734-0.451-1.126-1.283-1.126c-0.578,0-1.009,0.127-1.479,0.323l-0.323-0.931c0.578-0.255,1.137-0.422,1.959-0.422
					c0.774,0,1.352,0.206,1.714,0.578c0.382,0.372,0.558,0.921,0.558,1.597v3.066h-1.156v-0.646
					c-0.353,0.421-0.892,0.754-1.685,0.754C29.862,77.425,28.99,76.867,28.99,75.828z M32.546,75.456v-0.353
					c-0.304-0.117-0.705-0.206-1.175-0.206c-0.764,0-1.215,0.323-1.215,0.862v0.02c0,0.5,0.441,0.784,1.009,0.784
					C31.949,76.564,32.546,76.112,32.546,75.456z"/>
				<path class="st2" d="M35.088,78.287l0.44-0.892c0.559,0.343,1.137,0.539,1.842,0.539c1.058,0,1.636-0.539,1.636-1.577v-0.392
					c-0.431,0.548-0.97,0.94-1.822,0.94c-1.225,0-2.351-0.901-2.351-2.42v-0.02c0-1.528,1.146-2.43,2.351-2.43
					c0.872,0,1.411,0.401,1.812,0.882v-0.774h1.185v4.115c0,0.871-0.225,1.518-0.656,1.949c-0.47,0.47-1.195,0.695-2.126,0.695
					C36.547,78.904,35.754,78.689,35.088,78.287z M39.016,74.477v-0.02c0-0.843-0.696-1.411-1.519-1.411s-1.469,0.559-1.469,1.411
					v0.02c0,0.843,0.656,1.42,1.469,1.42C38.32,75.897,39.016,75.319,39.016,74.477z"/>
				<path class="st2" d="M41.392,74.751v-0.02c0-1.479,1.048-2.694,2.527-2.694c1.646,0,2.479,1.293,2.479,2.782
					c0,0.107-0.01,0.216-0.02,0.333h-3.801c0.127,0.843,0.725,1.312,1.489,1.312c0.578,0,0.989-0.215,1.401-0.617l0.695,0.617
					c-0.49,0.588-1.166,0.97-2.116,0.97C42.547,77.435,41.392,76.348,41.392,74.751z M45.222,74.369
					c-0.078-0.765-0.529-1.362-1.312-1.362c-0.725,0-1.234,0.559-1.342,1.362H45.222z"/>
				<path class="st2" d="M47.587,72.145h1.195v0.784c0.333-0.46,0.784-0.892,1.577-0.892c0.745,0,1.273,0.362,1.548,0.911
					c0.412-0.549,0.96-0.911,1.744-0.911c1.127,0,1.812,0.715,1.812,1.979v3.302h-1.186v-2.938c0-0.823-0.382-1.264-1.048-1.264
					c-0.646,0-1.107,0.45-1.107,1.283v2.919h-1.186v-2.948c0-0.804-0.392-1.254-1.048-1.254c-0.656,0-1.107,0.489-1.107,1.283v2.919
					h-1.195V72.145z"/>
				<path class="st2" d="M56.616,74.751v-0.02c0-1.479,1.048-2.694,2.527-2.694c1.646,0,2.479,1.293,2.479,2.782
					c0,0.107-0.01,0.216-0.02,0.333h-3.801c0.127,0.843,0.725,1.312,1.489,1.312c0.578,0,0.989-0.215,1.401-0.617l0.695,0.617
					c-0.49,0.588-1.166,0.97-2.116,0.97C57.772,77.435,56.616,76.348,56.616,74.751z M60.446,74.369
					c-0.078-0.765-0.529-1.362-1.312-1.362c-0.725,0-1.234,0.559-1.342,1.362H60.446z"/>
				<path class="st2" d="M62.812,72.145h1.195v0.794c0.333-0.479,0.813-0.901,1.617-0.901c1.166,0,1.841,0.784,1.841,1.979v3.302
					H66.28v-2.938c0-0.804-0.402-1.264-1.107-1.264c-0.686,0-1.166,0.479-1.166,1.283v2.919h-1.195V72.145z"/>
				<path class="st2" d="M69.145,75.887v-2.723h-0.656v-1.02h0.656v-1.42h1.186v1.42h1.391v1.02H70.33v2.537
					c0,0.46,0.235,0.646,0.637,0.646c0.265,0,0.5-0.059,0.735-0.177v0.97c-0.294,0.167-0.617,0.265-1.068,0.265
					C69.762,77.405,69.145,77.024,69.145,75.887z"/>
				<path class="st2" d="M75.449,76.642l0.529-0.804c0.568,0.422,1.166,0.637,1.695,0.637c0.509,0,0.803-0.215,0.803-0.558v-0.021
					c0-0.401-0.548-0.538-1.156-0.725c-0.764-0.216-1.616-0.529-1.616-1.509v-0.02c0-0.989,0.813-1.587,1.841-1.587
					c0.647,0,1.352,0.226,1.901,0.588l-0.47,0.843c-0.5-0.304-1.029-0.49-1.46-0.49c-0.46,0-0.725,0.226-0.725,0.51v0.02
					c0,0.382,0.558,0.539,1.166,0.734c0.754,0.235,1.606,0.578,1.606,1.509v0.02c0,1.088-0.842,1.626-1.92,1.626
					C76.908,77.415,76.095,77.16,75.449,76.642z"/>
				<path class="st2" d="M80.193,72.145h1.225l1.038,3.547l1.146-3.566h1.019l1.146,3.566l1.058-3.547h1.195l-1.695,5.212h-1.068
					l-1.156-3.536l-1.166,3.536h-1.058L80.193,72.145z"/>
				<path class="st2" d="M89.095,70.225h1.273v1.127h-1.273V70.225z M89.134,72.145h1.195v5.173h-1.195V72.145z"/>
				<path class="st2" d="M92.124,75.887v-2.723h-0.656v-1.02h0.656v-1.42h1.186v1.42H94.7v1.02h-1.391v2.537
					c0,0.46,0.235,0.646,0.637,0.646c0.265,0,0.5-0.059,0.735-0.177v0.97c-0.294,0.167-0.617,0.265-1.068,0.265
					C92.741,77.405,92.124,77.024,92.124,75.887z"/>
				<path class="st2" d="M95.477,74.761v-0.02c0-1.47,1.136-2.704,2.694-2.704c0.97,0,1.577,0.362,2.067,0.892l-0.744,0.794
					c-0.363-0.373-0.745-0.647-1.333-0.647c-0.862,0-1.499,0.745-1.499,1.646v0.02c0,0.921,0.637,1.655,1.548,1.655
					c0.559,0,0.96-0.255,1.342-0.637l0.715,0.705c-0.51,0.568-1.107,0.97-2.116,0.97C96.613,77.435,95.477,76.231,95.477,74.761z"/>
				<path class="st2" d="M101.349,70.166h1.195v2.772c0.333-0.479,0.813-0.901,1.617-0.901c1.166,0,1.841,0.784,1.841,1.979v3.302
					h-1.185v-2.938c0-0.804-0.402-1.264-1.107-1.264c-0.686,0-1.166,0.479-1.166,1.283v2.919h-1.195V70.166z"/>
			</g>
		</g>
	</g>
	<g>
		<polygon class="st3" points="156.524,48.359 8.776,48.359 16.735,41.521 149.062,41.521 156.524,48.359 156.524,48.359 		"/>
		<polygon class="st3" points="8.776,50.602 156.524,50.602 156.524,64.508 8.776,64.508 8.776,50.602 		"/>
		<path class="st4" d="M114.574,61.801h-4.851v-3.028h4.851V61.801L114.574,61.801L114.574,61.801z M114.574,56.585h-4.851v-3.026
			h4.851V56.585L114.574,56.585L114.574,56.585z M120.247,61.801h-4.853v-3.028h4.853V61.801L120.247,61.801L120.247,61.801z
			 M120.247,56.585h-4.853v-3.026h4.853V56.585L120.247,56.585L120.247,56.585z M125.918,61.801h-4.852v-3.028h4.852V61.801
			L125.918,61.801L125.918,61.801z M125.918,56.585h-4.852v-3.026h4.852V56.585L125.918,56.585L125.918,56.585z M131.588,61.801
			h-4.851v-3.028h4.851V61.801L131.588,61.801L131.588,61.801z M131.588,56.585h-4.851v-3.026h4.851V56.585L131.588,56.585
			L131.588,56.585z M108.904,56.585h-4.852v-3.026h4.852V56.585L108.904,56.585L108.904,56.585z M103.234,61.801h-4.852v-3.028
			h4.852V61.801L103.234,61.801L103.234,61.801z M103.234,56.585h-4.852v-3.026h4.852V56.585L103.234,56.585L103.234,56.585z
			 M108.904,61.801h-4.852v-3.028h4.852V61.801L108.904,61.801L108.904,61.801z"/>
		<path class="st4" d="M76.767,61.801h-4.852v-3.028h4.852V61.801L76.767,61.801L76.767,61.801z M76.767,56.585h-4.852v-3.026h4.852
			V56.585L76.767,56.585L76.767,56.585z M82.438,61.801h-4.852v-3.028h4.852V61.801L82.438,61.801L82.438,61.801z M82.438,56.585
			h-4.852v-3.026h4.852V56.585L82.438,56.585L82.438,56.585z M88.111,61.801h-4.853v-3.028h4.853V61.801L88.111,61.801
			L88.111,61.801z M88.111,56.585h-4.853v-3.026h4.853V56.585L88.111,56.585L88.111,56.585z M93.781,61.801h-4.852v-3.028h4.852
			V61.801L93.781,61.801L93.781,61.801z M93.781,56.585h-4.852v-3.026h4.852V56.585L93.781,56.585L93.781,56.585z M71.096,56.585
			h-4.852v-3.026h4.852V56.585L71.096,56.585L71.096,56.585z M65.426,61.801h-4.852v-3.028h4.852V61.801L65.426,61.801
			L65.426,61.801z M65.426,56.585h-4.852v-3.026h4.852V56.585L65.426,56.585L65.426,56.585z M71.096,61.801h-4.852v-3.028h4.852
			V61.801L71.096,61.801L71.096,61.801z"/>
		<path class="st4" d="M26.089,61.541H13.351v-4h12.738V61.541L26.089,61.541L26.089,61.541z M42.256,61.541H29.519v-4h12.737
			V61.541L42.256,61.541L42.256,61.541z"/>
	</g>
	<g>
		<g>
			<rect x="232.99" y="16.355" class="st5" width="84.152" height="50.391"/>
			<g>
				<g>
					<rect x="234.386" y="18.554" class="st5" width="81.295" height="45.658"/>
				</g>
			</g>
			<g>
				<g>
					<path class="st2" d="M325.045,14.39c0-3.899-3.158-7.057-7.055-7.057h-85.844c-3.897,0-7.053,3.158-7.053,7.057v55.124h99.952
						V14.39z M275.068,9.836c1.369,0,2.482,1.111,2.482,2.482c0,1.371-1.113,2.482-2.482,2.482c-1.373,0-2.484-1.111-2.484-2.482
						C272.584,10.947,273.695,9.836,275.068,9.836z M317.142,66.747H232.99V16.355h84.152V66.747z M214.812,73.479v0.317
						c0,4.696,3.812,8.506,8.506,8.506h103.5c4.696,0,8.506-3.81,8.506-8.506v-0.317H214.812z"/>
				</g>
			</g>
		</g>
		<g>
			<g>
				<g>
					<g>
						<g>
							<g>
								<path class="st2" d="M258.72,37.536h1.205v5.76h3.604v1.097h-4.81V37.536z"/>
								<path class="st2" d="M264.288,42.904v-0.02c0-1.117,0.882-1.665,2.146-1.665c0.578,0,0.989,0.088,1.392,0.215v-0.127
									c0-0.734-0.451-1.126-1.284-1.126c-0.577,0-1.009,0.127-1.479,0.323l-0.323-0.931c0.578-0.254,1.136-0.421,1.959-0.421
									c0.773,0,1.352,0.206,1.714,0.578c0.383,0.373,0.559,0.921,0.559,1.597v3.066h-1.156v-0.646
									c-0.353,0.421-0.891,0.754-1.685,0.754C265.16,44.502,264.288,43.943,264.288,42.904z M267.845,42.532V42.18
									c-0.304-0.118-0.706-0.206-1.176-0.206c-0.765,0-1.215,0.323-1.215,0.862v0.02c0,0.5,0.44,0.784,1.009,0.784
									C267.247,43.639,267.845,43.189,267.845,42.532z"/>
								<path class="st2" d="M270.386,39.221h1.195v0.862c0.382-0.539,0.921-0.97,1.764-0.97c1.215,0,2.399,0.96,2.399,2.684v0.02
									c0,1.714-1.175,2.684-2.399,2.684c-0.862,0-1.401-0.431-1.764-0.911v2.371h-1.195V39.221z M274.54,41.818v-0.02
									c0-0.999-0.687-1.655-1.479-1.655c-0.804,0-1.509,0.666-1.509,1.655v0.02c0,0.989,0.705,1.655,1.509,1.655
									C273.873,43.473,274.54,42.836,274.54,41.818z"/>
								<path class="st2" d="M277.219,42.964V40.24h-0.656v-1.019h0.656v-1.42h1.186v1.42h1.391v1.019h-1.391v2.537
									c0,0.46,0.235,0.646,0.637,0.646c0.265,0,0.5-0.059,0.734-0.176v0.97c-0.294,0.167-0.617,0.265-1.067,0.265
									C277.836,44.482,277.219,44.1,277.219,42.964z"/>
								<path class="st2" d="M280.571,41.837v-0.02c0-1.479,1.176-2.704,2.763-2.704s2.753,1.205,2.753,2.684v0.02
									c0,1.469-1.176,2.694-2.772,2.694C281.737,44.511,280.571,43.306,280.571,41.837z M284.901,41.837v-0.02
									c0-0.911-0.656-1.666-1.587-1.666c-0.95,0-1.558,0.745-1.558,1.646v0.02c0,0.901,0.656,1.655,1.577,1.655
									C284.294,43.473,284.901,42.728,284.901,41.837z"/>
								<path class="st2" d="M287.286,39.221h1.195v0.862c0.382-0.539,0.921-0.97,1.764-0.97c1.215,0,2.399,0.96,2.399,2.684v0.02
									c0,1.714-1.175,2.684-2.399,2.684c-0.862,0-1.401-0.431-1.764-0.911v2.371h-1.195V39.221z M291.44,41.818v-0.02
									c0-0.999-0.687-1.655-1.479-1.655c-0.804,0-1.509,0.666-1.509,1.655v0.02c0,0.989,0.705,1.655,1.509,1.655
									C290.773,43.473,291.44,42.836,291.44,41.818z"/>
							</g>
						</g>
					</g>
				</g>
			</g>
		</g>
	</g>
</g>
</svg>
