<?xml version="1.0" encoding="utf-8"?>
<!-- Generator: Adobe Illustrator 26.0.3, SVG Export Plug-In . SVG Version: 6.00 Build 0)  -->
<svg version="1.1" id="Layer_3" xmlns="http://www.w3.org/2000/svg" xmlns:xlink="http://www.w3.org/1999/xlink" x="0px" y="0px"
	 viewBox="0 0 294.7 94.9" style="enable-background:new 0 0 294.7 94.9;" xml:space="preserve">
<style type="text/css">
	.st0{fill:none;stroke:#CCCCCC;stroke-width:0.75;stroke-linecap:round;stroke-linejoin:round;stroke-miterlimit:10;}
	.st1{fill:#E6E6E6;}
	.st2{fill:#CCCCCC;}
	.st3{fill-rule:evenodd;clip-rule:evenodd;fill:#E6E6E6;}
	.st4{fill-rule:evenodd;clip-rule:evenodd;fill:#262626;}
	.st5{fill:#595A5A;}
	.st6{fill:#D9D9D9;}
	.st7{fill:#6A6A6A;}
	.st8{fill-rule:evenodd;clip-rule:evenodd;fill:#FFFFFF;}
	.st9{fill:#808184;}
	.st10{fill-rule:evenodd;clip-rule:evenodd;fill:#D66927;}
	.st11{fill-rule:evenodd;clip-rule:evenodd;fill:#333333;}
	.st12{fill:#FFFFFF;}
	.st13{font-family:'ArialMT';}
	.st14{font-size:2.194px;}
	.st15{font-family:'Arial-BoldMT';}
	.st16{font-size:2.6328px;}
	.st17{fill-rule:evenodd;clip-rule:evenodd;fill:#999999;}
	.st18{fill:#2762AC;}
	.st19{fill:#F5F6F6;}
	.st20{fill-rule:evenodd;clip-rule:evenodd;fill:#F5F6F6;}
	.st21{fill:#FFBA90;stroke:#2762AC;stroke-width:0.2857;stroke-miterlimit:10;}
	.st22{fill:#EE7623;stroke:#2762AC;stroke-width:0.2857;stroke-miterlimit:10;}
	.st23{fill:#262626;}
	.st24{fill:#A25EB5;}
	.st25{fill-rule:evenodd;clip-rule:evenodd;fill:#1A1A1A;}
	.st26{fill-rule:evenodd;clip-rule:evenodd;fill:#F2F2F2;}
	.st27{fill-rule:evenodd;clip-rule:evenodd;fill:#7DA9DC;}
	.st28{fill:#B1C38D;stroke:#2762AC;stroke-width:0.2857;stroke-miterlimit:10;}
	.st29{fill:#4D4E4E;}
	.st30{fill:none;stroke:#FFFFFF;stroke-width:0.1222;stroke-miterlimit:10;}
	.st31{fill:#D1ACD9;}
	.st32{fill-rule:evenodd;clip-rule:evenodd;fill:#A6D5DD;}
	.st33{fill:none;stroke:#FFFFFF;stroke-width:2.75;stroke-miterlimit:10;}
	.st34{fill:none;stroke:#005CB9;stroke-miterlimit:10;}
	.st35{opacity:0.8;fill:#FFFFFF;}
	.st36{clip-path:url(#SVGID_00000035494365163714872800000016615833029282791586_);}
	.st37{fill:none;stroke:#FFFFFF;stroke-width:4;stroke-miterlimit:10;}
	.st38{fill:none;stroke:#005CB9;stroke-width:2.25;stroke-miterlimit:10;}
	.st39{fill:#005CB9;stroke:#FFFFFF;stroke-width:1.0201;stroke-linecap:round;stroke-linejoin:round;stroke-miterlimit:10;}
</style>
<g>
	<g>
		<g>
			<g>
				<g>
					<g>
						<rect x="3.3" y="31" class="st0" width="288" height="60.2"/>
						<rect x="6.2" y="34" class="st1" width="282.1" height="54.2"/>
						<g>
							<rect x="11.1" y="62" class="st2" width="131.6" height="24.1"/>
							<g>
								<path class="st3" d="M53,83.1h20.6c0.3,0,0.5-0.2,0.5-0.5V63.9c0-0.3-0.3-0.5-0.5-0.5H53c-0.3,0-0.5,0.2-0.5,0.5v18.6
									C52.4,82.9,52.7,83.1,53,83.1"/>
								<path class="st4" d="M66.6,64.4c0-0.1-0.1-0.2-0.2-0.2s-0.2,0.1-0.2,0.2l0.1,1.4c0,0.1,0,0.1,0.1,0.1s0.1,0,0.1-0.1
									L66.6,64.4 M66.7,66.3c0-0.1-0.1-0.3-0.3-0.3c-0.1,0-0.3,0.1-0.3,0.3c0,0.1,0.1,0.2,0.3,0.2C66.6,66.5,66.7,66.4,66.7,66.3z
									"/>
								<path class="st4" d="M61.6,65.1c-0.1-0.6-0.8-0.9-1.4-0.8c-0.6,0.2-1,0.8-0.8,1.4c0.2,0.6,0.8,0.9,1.4,0.8
									C61.4,66.3,61.8,65.7,61.6,65.1 M61.4,65.3c0.1,0.5-0.3,1-0.8,1c-0.4,0.1-0.8-0.1-0.9-0.5l0.6-0.6l0.3,1L61.4,65.3z
									 M59.6,65.5c0-0.5,0.3-1,0.8-1c0.4-0.1,0.8,0.1,1,0.5l-0.6,0.6l-0.3-1L59.6,65.5z"/>
							</g>
							<circle class="st4" cx="60.6" cy="68.6" r="1.2"/>
							<circle class="st4" cx="66.4" cy="68.6" r="1.2"/>
							<g>
								<path class="st5" d="M113.3,81.8h9.3c0.4,0,0.7-0.3,0.7-0.7V64.3c0-0.4-0.3-0.7-0.7-0.7h-9.3c-0.4,0-0.7,0.3-0.7,0.7v16.9
									C112.6,81.5,112.9,81.8,113.3,81.8z"/>
								<path class="st6" d="M114,79.1h7.9c0.3,0,0.5-0.3,0.5-0.5V66.9c0-0.3-0.3-0.5-0.5-0.5H114c-0.3,0-0.5,0.3-0.5,0.5v11.7
									C113.5,78.8,113.7,79.1,114,79.1z"/>
								<path class="st5" d="M121.3,69.8v-1.7c0-0.2-0.1-0.3-0.3-0.3h-6c-0.2,0-0.3,0.1-0.3,0.3v1.7H121.3z"/>
								<path class="st7" d="M121.3,69.8h-6.6v7.4c0,0.2,0.1,0.3,0.3,0.3h6c0.2,0,0.3-0.1,0.3-0.3V69.8z"/>
								<path class="st8" d="M117.9,72.7c0.1,0,0.2-0.1,0.2-0.2v-1.6c0-0.1-0.1-0.2-0.2-0.2c-0.1,0-0.2,0.1-0.2,0.2v1.6
									C117.8,72.6,117.8,72.7,117.9,72.7 M118.7,75.4c0-0.4-0.3-0.7-0.7-0.7c-0.4,0-0.7,0.3-0.7,0.7c0,0.4,0.3,0.7,0.7,0.7
									C118.3,76.1,118.7,75.8,118.7,75.4z M119.1,75.4c0-0.6-0.5-1.1-1.1-1.1c-0.6,0-1.1,0.5-1.1,1.1c0,0.6,0.5,1.1,1.1,1.1
									C118.6,76.5,119.1,76,119.1,75.4z"/>
								<path class="st5" d="M125.8,64.4v17c0,0.5,0.4,1,1,1h12.3c0.5,0,1-0.4,1-1v-17c0-0.5-0.4-1-1-1h-12.3
									C126.2,63.4,125.8,63.8,125.8,64.4z"/>
								<path class="st9" d="M127.2,69v7.7c0,0.4,0.2,0.8,0.5,1.1l3.1,2.9c0.3,0.3,0.7,0.4,1.1,0.4h5.2c0.9,0,1.6-0.7,1.6-1.6V66.1
									c0-0.9-0.7-1.6-1.6-1.6h-5.2c-0.4,0-0.8,0.1-1.1,0.4l-3.1,2.9C127.4,68.2,127.2,68.6,127.2,69z"/>
							</g>
							<g>
								<rect x="93.4" y="83" class="st5" width="43.2" height="3.1"/>
								<rect x="59.9" y="81.4" class="st5" width="3.1" height="4.7"/>
								<rect x="11.8" y="83" class="st5" width="32.5" height="3.1"/>
								<path class="st7" d="M75.9,83c-0.7,0-1.3-0.1-1.9-0.2l-4.5-1.1c-0.6-0.2-1.2-0.3-1.9-0.3h-4.8c-0.2,0-0.3,0.1-0.3,0.3v4.1
									c0,0.1,0.1,0.3,0.3,0.3h30.5V83H75.9z"/>
								<path class="st10" d="M65.1,85.7h26.6v-2.2H75.9c-0.7,0-1.4-0.1-2-0.3l-4.5-1.1c-0.6-0.1-1.2-0.2-1.8-0.2h-2.6V85.7"/>
								<path class="st7" d="M55.3,83H44.2v3.1h15.8c0.1,0,0.3-0.1,0.3-0.3v-4.1c0-0.2-0.1-0.3-0.3-0.3h-2.2c-0.2,0-0.3,0.1-0.5,0.2
									l-1.6,1.2C55.6,83,55.5,83,55.3,83z"/>
								<rect x="9.4" y="84" class="st5" width="4.7" height="2.1"/>
							</g>
						</g>
						<g>
							<rect x="152.7" y="62" class="st2" width="131.6" height="24.1"/>
							<g>
								<path class="st3" d="M194.5,83.1h20.6c0.3,0,0.5-0.2,0.5-0.5V63.9c0-0.3-0.3-0.5-0.5-0.5h-20.6c-0.3,0-0.5,0.2-0.5,0.5v18.6
									C194,82.9,194.2,83.1,194.5,83.1"/>
								<path class="st4" d="M208.2,64.4c0-0.1-0.1-0.2-0.2-0.2c-0.1,0-0.2,0.1-0.2,0.2l0.1,1.4c0,0.1,0,0.1,0.1,0.1s0.1,0,0.1-0.1
									L208.2,64.4 M208.2,66.3c0-0.1-0.1-0.3-0.3-0.3s-0.3,0.1-0.3,0.3c0,0.1,0.1,0.2,0.3,0.2S208.2,66.4,208.2,66.3z"/>
								<path class="st4" d="M203.1,65.1c-0.1-0.6-0.8-0.9-1.4-0.8c-0.6,0.2-1,0.8-0.8,1.4c0.2,0.6,0.8,0.9,1.4,0.8
									C203,66.3,203.3,65.7,203.1,65.1 M203,65.3c0.1,0.5-0.3,1-0.8,1c-0.4,0.1-0.8-0.1-0.9-0.5l0.6-0.6l0.3,1L203,65.3z
									 M201.2,65.5c0-0.5,0.3-1,0.8-1c0.4-0.1,0.8,0.1,1,0.5l-0.6,0.6l-0.3-1L201.2,65.5z"/>
							</g>
							<circle class="st4" cx="202.1" cy="68.6" r="1.2"/>
							<circle class="st4" cx="208" cy="68.6" r="1.2"/>
							<g>
								<path class="st5" d="M254.8,81.8h9.3c0.4,0,0.7-0.3,0.7-0.7V64.3c0-0.4-0.3-0.7-0.7-0.7h-9.3c-0.4,0-0.7,0.3-0.7,0.7v16.9
									C254.2,81.5,254.5,81.8,254.8,81.8z"/>
								<path class="st6" d="M255.6,79.1h7.9c0.3,0,0.5-0.3,0.5-0.5V66.9c0-0.3-0.3-0.5-0.5-0.5h-7.9c-0.3,0-0.5,0.3-0.5,0.5v11.7
									C255,78.8,255.3,79.1,255.6,79.1z"/>
								<path class="st5" d="M262.8,69.8v-1.7c0-0.2-0.1-0.3-0.3-0.3h-6c-0.2,0-0.3,0.1-0.3,0.3v1.7H262.8z"/>
								<path class="st7" d="M262.8,69.8h-6.6v7.4c0,0.2,0.1,0.3,0.3,0.3h6c0.2,0,0.3-0.1,0.3-0.3V69.8z"/>
								<path class="st8" d="M259.5,72.7c0.1,0,0.2-0.1,0.2-0.2v-1.6c0-0.1-0.1-0.2-0.2-0.2c-0.1,0-0.2,0.1-0.2,0.2v1.6
									C259.3,72.6,259.4,72.7,259.5,72.7 M260.2,75.4c0-0.4-0.3-0.7-0.7-0.7c-0.4,0-0.7,0.3-0.7,0.7c0,0.4,0.3,0.7,0.7,0.7
									C259.9,76.1,260.2,75.8,260.2,75.4z M260.6,75.4c0-0.6-0.5-1.1-1.1-1.1c-0.6,0-1.1,0.5-1.1,1.1c0,0.6,0.5,1.1,1.1,1.1
									C260.1,76.5,260.6,76,260.6,75.4z"/>
								<path class="st5" d="M267.4,64.4v17c0,0.5,0.4,1,1,1h12.3c0.5,0,1-0.4,1-1v-17c0-0.5-0.4-1-1-1h-12.3
									C267.8,63.4,267.4,63.8,267.4,64.4z"/>
								<path class="st9" d="M268.8,69v7.7c0,0.4,0.2,0.8,0.5,1.1l3.1,2.9c0.3,0.3,0.7,0.4,1.1,0.4h5.2c0.9,0,1.6-0.7,1.6-1.6V66.1
									c0-0.9-0.7-1.6-1.6-1.6h-5.2c-0.4,0-0.8,0.1-1.1,0.4l-3.1,2.9C269,68.2,268.8,68.6,268.8,69z"/>
							</g>
							<g>
								<rect x="235" y="83" class="st5" width="43.2" height="3.1"/>
								<rect x="201.5" y="81.4" class="st5" width="3.1" height="4.7"/>
								<rect x="153.3" y="83" class="st5" width="32.5" height="3.1"/>
								<path class="st7" d="M217.5,83c-0.7,0-1.3-0.1-1.9-0.2l-4.5-1.1c-0.6-0.2-1.2-0.3-1.9-0.3h-4.8c-0.2,0-0.3,0.1-0.3,0.3v4.1
									c0,0.1,0.1,0.3,0.3,0.3h30.5V83H217.5z"/>
								<path class="st10" d="M206.7,85.7h26.6v-2.2h-15.7c-0.7,0-1.4-0.1-2-0.3l-4.5-1.1c-0.6-0.1-1.2-0.2-1.8-0.2h-2.6V85.7"/>
								<path class="st7" d="M196.9,83h-11.1v3.1h15.8c0.1,0,0.3-0.1,0.3-0.3v-4.1c0-0.2-0.1-0.3-0.3-0.3h-2.2
									c-0.2,0-0.3,0.1-0.5,0.2l-1.6,1.2C197.2,83,197,83,196.9,83z"/>
								<rect x="151" y="84" class="st5" width="4.7" height="2.1"/>
							</g>
						</g>
						<g>
							<path class="st11" d="M147.1,69.4h3v-3.6h-3l-1.4,1.8L147.1,69.4z M148.7,80.7l1.4-1.8l-1.4-1.8h-3v3.7H148.7z"/>
							<path class="st8" d="M148,78.9c0-0.5-0.4-1-1-1c-0.5,0-1,0.4-1,1c0,0.5,0.4,1,1,1C147.5,79.9,148,79.5,148,78.9 M147.8,79.1
								c-0.1,0.4-0.5,0.7-0.9,0.7c-0.4,0-0.6-0.3-0.7-0.6l0,0l0.7-0.4v0.9L147.8,79.1L147.8,79.1z M146.2,78.8
								c0-0.4,0.5-0.7,0.9-0.7c0.3,0.1,0.6,0.3,0.7,0.7l-0.7,0.4v-0.9L146.2,78.8L146.2,78.8z M148.7,67.6c0-0.5-0.4-1-1-1
								s-1,0.4-1,1c0,0.5,0.4,1,1,1S148.7,68.1,148.7,67.6z M148.5,67.7c0,0.4-0.5,0.7-0.9,0.7c-0.3,0-0.6-0.3-0.7-0.6l0,0l0.7-0.4
								v0.9L148.5,67.7L148.5,67.7z M146.9,67.5c0.1-0.4,0.5-0.7,0.9-0.7c0.4,0,0.6,0.3,0.7,0.6l-0.7,0.4v-0.9L146.9,67.5z"/>
							<text transform="matrix(1 0 0 1 148.8382 68.3725)" class="st12 st13 st14">1</text>
							<text transform="matrix(1 0 0 1 148.1058 79.7192)" class="st12 st13 st14">2</text>
						</g>
						<rect x="11.1" y="36.1" class="st1" width="131.6" height="24.1"/>
						<g>
							<g>
								<polyline class="st11" points="147.1,44 150.1,44 150.1,40.4 147.1,40.4 145.7,42.2 147.1,44 								"/>
								<polygon class="st11" points="148.7,55.4 150.1,53.5 148.7,51.8 145.7,51.8 145.7,55.4 								"/>
								<text transform="matrix(1 0 0 1 147.616 43.185)" class="st12 st15 st16">A</text>
								<text transform="matrix(1 0 0 1 146.4726 54.5317)" class="st12 st15 st16">B</text>
							</g>
						</g>
						<g>
							<rect x="152.7" y="36.1" class="st1" width="131.6" height="24.1"/>
						</g>
					</g>
					<g>
						<rect x="83.4" y="36.3" class="st17" width="59.1" height="19.6"/>
						<rect x="112.9" y="36.3" class="st18" width="21.5" height="15.2"/>
						<rect x="83.4" y="36.3" class="st19" width="29.4" height="15.2"/>
					</g>
					<rect x="11.4" y="36.3" class="st17" width="69.4" height="22.2"/>
					<path class="st20" d="M64,46.5h11.5c0.3,0,0.5-0.2,0.5-0.5v-5.4c0-0.3-0.2-0.5-0.5-0.5H64c-0.2,0-0.5,0.2-0.5,0.5V46
						C63.6,46.3,63.8,46.5,64,46.5z"/>
					<path class="st20" d="M49.9,45.8h8.4c0.2,0,0.5-0.2,0.5-0.5v-5.1c0-0.2-0.2-0.5-0.5-0.5h-8.4c-0.2,0-0.5,0.2-0.5,0.5v5.1
						C49.4,45.6,49.7,45.8,49.9,45.8z"/>
					<path class="st20" d="M17.7,46h11.5c0.2,0,0.5-0.2,0.5-0.5v-7.8c0-0.2-0.2-0.5-0.5-0.5H17.7c-0.2,0-0.5,0.2-0.5,0.5v7.8
						C17.3,45.8,17.5,46,17.7,46z"/>
					<path class="st20" d="M32.7,46h11.5c0.2,0,0.5-0.2,0.5-0.5v-7.8c0-0.2-0.2-0.5-0.5-0.5H32.7c-0.2,0-0.5,0.2-0.5,0.5v7.8
						C32.3,45.8,32.5,46,32.7,46z"/>
					<rect x="12" y="46.4" class="st18" width="46.7" height="10.8"/>
					<rect x="17.2" y="49.3" class="st21" width="9.1" height="5.9"/>
					<rect x="26.6" y="49.3" class="st22" width="9.1" height="5.9"/>
					<rect x="36.1" y="49.3" class="st22" width="9.1" height="5.9"/>
					<rect x="45.5" y="49.3" class="st22" width="9.1" height="5.9"/>
					<circle class="st23" cx="19.8" cy="47.8" r="0.6"/>
					<circle class="st23" cx="23.8" cy="47.8" r="0.6"/>
					<circle class="st23" cx="29.2" cy="47.8" r="0.6"/>
					<circle class="st23" cx="33.2" cy="47.8" r="0.6"/>
					<circle class="st23" cx="38.7" cy="47.8" r="0.6"/>
					<circle class="st23" cx="42.6" cy="47.8" r="0.6"/>
					<circle class="st23" cx="48.1" cy="47.8" r="0.6"/>
					<circle class="st23" cx="52.1" cy="47.8" r="0.6"/>
					<polygon class="st24" points="19.4,42.8 19.4,44.7 27.5,44.7 27.5,42.8 27.3,42.8 27.3,41.6 27.5,41.6 27.5,39.7 25.7,39.7 
						25.7,38.6 25,38.6 25,38 21.9,38 21.9,38.6 21.2,38.6 21.2,39.7 19.4,39.7 19.4,41.6 19.6,41.6 19.6,42.8 					"/>
					<polygon class="st23" points="34.4,42.8 34.4,44.7 42.5,44.7 42.5,42.8 42.3,42.8 42.3,41.6 42.5,41.6 42.5,39.7 40.7,39.7 
						40.7,38.6 39.9,38.6 39.9,38 36.9,38 36.9,38.6 36.2,38.6 36.2,39.7 34.4,39.7 34.4,41.6 34.5,41.6 34.5,42.8 					"/>
					<path class="st25" d="M52,44.2h4.4c0.6,0,1.1-0.5,1.1-1.1v-0.4c0-0.6-0.5-1.1-1.1-1.1H52c-0.6,0-1.1,0.5-1.1,1.1v0.4
						C50.9,43.7,51.4,44.2,52,44.2z"/>
					<path class="st23" d="M73.8,41.5h-7.9c-0.1,0-0.2,0.1-0.2,0.2v3c0,0.1,0.1,0.2,0.2,0.2h7.9c0.1,0,0.2-0.1,0.2-0.2v-3
						C74,41.6,73.9,41.5,73.8,41.5z"/>
					<polygon class="st8" points="14.1,52.4 14.6,52.4 14.6,53.8 14.8,53.8 14.8,53.3 15.2,53.3 15.2,53.6 15.9,53.6 15.9,52.6 
						15.2,52.6 15.2,53 14.8,53 14.8,51.5 15.2,51.5 15.2,51.9 15.9,51.9 15.9,50.9 15.2,50.9 15.2,51.3 14.8,51.3 14.8,50.8 
						14.6,50.8 14.6,52.1 14.1,52.1 14.1,51.7 13.3,51.7 13.3,52.8 14.1,52.8 					"/>
					<path class="st26" d="M78.4,41.8v2.4l-0.5-0.5v-0.5c0.1-0.1,0.2-0.2,0.1-0.4c-0.1-0.1-0.2-0.2-0.4-0.1
						c-0.1,0.1-0.2,0.2-0.1,0.4c0,0.1,0.1,0.1,0.1,0.1v0.6l0.7,0.7v0.2c-0.2,0-0.4,0.2-0.3,0.5c0,0.2,0.2,0.4,0.5,0.3
						c0.2,0,0.4-0.2,0.3-0.5c0-0.1-0.1-0.2-0.3-0.3v-0.9l0.7-0.7v-0.5h0.2v-0.5H79v0.5h0.2V43l-0.5,0.5v-1.7h0.2l-0.3-0.5l-0.2,0.5
						H78.4z"/>
					<path class="st26" d="M15.5,41.6h-1.7c-0.1-0.4-0.5-0.6-0.9-0.5c-0.1,0-0.1,0.1-0.2,0.1v0.1H13l0.2,0.5L13,42.2h-0.4v0.1
						c0.3,0.2,0.7,0.2,1-0.1c0.1,0,0.1-0.1,0.1-0.2h1.7c0.1,0.4,0.5,0.5,0.8,0.4c0.1,0,0.1-0.1,0.2-0.1v-0.1h-0.4L16,41.8l0.2-0.4
						h0.4v-0.1c-0.3-0.2-0.7-0.2-0.9,0.1C15.6,41.4,15.5,41.5,15.5,41.6z"/>
					<path class="st27" d="M87.3,48.3h6.8c0.1,0,0.1-0.1,0.1-0.1v-6.8c0-0.1-0.1-0.2-0.1-0.2h-6.8c-0.1,0-0.2,0.1-0.2,0.2v6.8
						C87.1,48.3,87.2,48.3,87.3,48.3"/>
					<path class="st27" d="M96.8,48.3h6.8c0.1,0,0.1-0.1,0.1-0.1v-6.8c0-0.1-0.1-0.2-0.1-0.2h-6.8c-0.1,0-0.2,0.1-0.2,0.2v6.8
						C96.6,48.3,96.7,48.3,96.8,48.3"/>
					<path class="st4" d="M104.5,48.3h6.8c0.1,0,0.1-0.1,0.1-0.1v-6.8c0-0.1-0.1-0.2-0.1-0.2h-6.8c-0.1,0-0.2,0.1-0.2,0.2v6.8
						C104.4,48.3,104.4,48.3,104.5,48.3"/>
					<g>
						<rect x="114.2" y="41.1" class="st28" width="9.1" height="5.9"/>
						<rect x="123.7" y="41.1" class="st28" width="9.1" height="5.9"/>
					</g>
					<circle class="st23" cx="89.2" cy="38.5" r="0.8"/>
					<circle class="st23" cx="92.2" cy="38.5" r="0.8"/>
					<circle class="st23" cx="99" cy="38.5" r="0.8"/>
					<circle class="st23" cx="101.9" cy="38.5" r="0.8"/>
					<circle class="st23" cx="106.1" cy="38.5" r="0.8"/>
					<circle class="st23" cx="109.1" cy="38.5" r="0.8"/>
					<g>
						<circle class="st23" cx="116.8" cy="38.5" r="0.8"/>
						<circle class="st23" cx="121.4" cy="38.5" r="0.8"/>
					</g>
					<g>
						<circle class="st23" cx="126.1" cy="38.5" r="0.8"/>
						<circle class="st23" cx="130.7" cy="38.5" r="0.8"/>
					</g>
					<g>
						<path class="st29" d="M78,55.7v2.7H14.7v1H78v0.8h64.5V57H84.2v-1.6h-5.9C78.1,55.4,78,55.5,78,55.7z"/>
						<path class="st29" d="M81.7,57H67.8c-0.1,0-0.3,0.1-0.4,0.2l-1.9,1.9c-0.1,0.1-0.3,0.2-0.5,0.2H18c-0.1,0-0.3-0.1-0.4-0.2
							l-1.9-1.9c-0.1-0.1-0.3-0.2-0.5-0.2h-3.3v1H9.5v2.2h72.2V57z"/>
						<path class="st7" d="M91.8,55.4H81.7v4.8h21V57h-2.2c-0.4,0-0.8-0.1-1.2-0.1L93,55.5C92.6,55.5,92.2,55.4,91.8,55.4z"/>
						<path class="st10" d="M100.6,57.5h-2.3c-0.7,0-1.3-0.1-2-0.2l-4.3-1c-0.6-0.1-1.1-0.2-1.7-0.2h-2.5v3.3h12.8V57.5"/>
					</g>
					<g>
						<rect x="48.8" y="41.8" class="st12" width="0.1" height="1.2"/>
						<path class="st30" d="M48.4,42.4c0,0.3-0.2,0.5-0.5,0.5c-0.3,0-0.5-0.2-0.5-0.5s0.2-0.5,0.5-0.5C48.2,42,48.4,42.2,48.4,42.4z
							"/>
						<rect x="47" y="41.8" class="st12" width="0.1" height="1.2"/>
						<path class="st30" d="M46.7,42.4c0,0.3-0.2,0.5-0.5,0.5c-0.3,0-0.5-0.2-0.5-0.5S46,42,46.2,42C46.5,42,46.7,42.2,46.7,42.4z"
							/>
						<rect x="45.3" y="41.8" class="st12" width="0.1" height="1.2"/>
					</g>
					<g>
						<rect x="225.2" y="36.3" class="st17" width="59.1" height="19.6"/>
						<rect x="254.8" y="36.3" class="st18" width="21.5" height="15.2"/>
						<rect x="225.2" y="36.3" class="st19" width="29.4" height="15.2"/>
					</g>
					<rect x="153.2" y="36.3" class="st17" width="69.4" height="22.2"/>
					<path class="st20" d="M205.9,46.5h11.5c0.3,0,0.5-0.2,0.5-0.5v-5.4c0-0.3-0.2-0.5-0.5-0.5h-11.5c-0.2,0-0.5,0.2-0.5,0.5V46
						C205.4,46.3,205.6,46.5,205.9,46.5z"/>
					<path class="st20" d="M191.8,45.8h8.4c0.2,0,0.5-0.2,0.5-0.5v-5.1c0-0.2-0.2-0.5-0.5-0.5h-8.4c-0.2,0-0.5,0.2-0.5,0.5v5.1
						C191.3,45.6,191.5,45.8,191.8,45.8z"/>
					<path class="st20" d="M159.6,46h11.5c0.2,0,0.5-0.2,0.5-0.5v-7.8c0-0.2-0.2-0.5-0.5-0.5h-11.5c-0.2,0-0.5,0.2-0.5,0.5v7.8
						C159.1,45.8,159.3,46,159.6,46z"/>
					<path class="st20" d="M174.6,46h11.5c0.2,0,0.5-0.2,0.5-0.5v-7.8c0-0.2-0.2-0.5-0.5-0.5h-11.5c-0.2,0-0.5,0.2-0.5,0.5v7.8
						C174.1,45.8,174.3,46,174.6,46z"/>
					<rect x="153.8" y="46.4" class="st18" width="46.7" height="10.8"/>
					<rect x="159" y="49.3" class="st21" width="9.1" height="5.9"/>
					<rect x="168.5" y="49.3" class="st21" width="9.1" height="5.9"/>
					<rect x="177.9" y="49.3" class="st21" width="9.1" height="5.9"/>
					<rect x="187.4" y="49.3" class="st21" width="9.1" height="5.9"/>
					<circle class="st23" cx="165.6" cy="47.8" r="0.6"/>
					<circle class="st23" cx="171.1" cy="47.8" r="0.6"/>
					<circle class="st23" cx="175.1" cy="47.8" r="0.6"/>
					<circle class="st23" cx="180.5" cy="47.8" r="0.6"/>
					<circle class="st23" cx="184.5" cy="47.8" r="0.6"/>
					<circle class="st23" cx="190" cy="47.8" r="0.6"/>
					<circle class="st23" cx="193.9" cy="47.8" r="0.6"/>
					<polygon class="st31" points="161.3,42.8 161.3,44.7 169.4,44.7 169.4,42.8 169.2,42.8 169.2,41.6 169.4,41.6 169.4,39.7 
						167.6,39.7 167.6,38.6 166.8,38.6 166.8,38 163.8,38 163.8,38.6 163.1,38.6 163.1,39.7 161.3,39.7 161.3,41.6 161.4,41.6 
						161.4,42.8 					"/>
					<polygon class="st23" points="176.2,42.8 176.2,44.7 184.3,44.7 184.3,42.8 184.2,42.8 184.2,41.6 184.3,41.6 184.3,39.7 
						182.6,39.7 182.6,38.6 181.8,38.6 181.8,38 178.8,38 178.8,38.6 178,38.6 178,39.7 176.2,39.7 176.2,41.6 176.4,41.6 
						176.4,42.8 					"/>
					<path class="st25" d="M193.8,44.2h4.4c0.6,0,1.1-0.5,1.1-1.1v-0.4c0-0.6-0.5-1.1-1.1-1.1h-4.4c-0.6,0-1.1,0.5-1.1,1.1v0.4
						C192.8,43.7,193.2,44.2,193.8,44.2z"/>
					<path class="st23" d="M215.6,41.5h-7.9c-0.1,0-0.2,0.1-0.2,0.2v3c0,0.1,0.1,0.2,0.2,0.2h7.9c0.1,0,0.2-0.1,0.2-0.2v-3
						C215.8,41.6,215.7,41.5,215.6,41.5z"/>
					<path class="st26" d="M220.3,41.8v2.4l-0.5-0.5v-0.5c0.1-0.1,0.2-0.2,0.1-0.4c-0.1-0.1-0.2-0.2-0.4-0.1
						c-0.1,0.1-0.2,0.2-0.1,0.4c0,0.1,0.1,0.1,0.1,0.1v0.6l0.7,0.7v0.2c-0.2,0-0.4,0.2-0.3,0.5c0,0.2,0.2,0.4,0.5,0.3
						c0.2,0,0.4-0.2,0.3-0.5c0-0.1-0.1-0.2-0.3-0.3v-0.9l0.7-0.7v-0.5h0.2v-0.5h-0.5v0.5h0.2V43l-0.5,0.5v-1.7h0.2l-0.3-0.5
						l-0.2,0.5H220.3z"/>
					<path class="st32" d="M229.2,48.3h6.8c0.1,0,0.1-0.1,0.1-0.1v-6.8c0-0.1-0.1-0.2-0.1-0.2h-6.8c-0.1,0-0.2,0.1-0.2,0.2v6.8
						C229,48.3,229.1,48.3,229.2,48.3"/>
					<path class="st32" d="M238.7,48.3h6.8c0.1,0,0.1-0.1,0.1-0.1v-6.8c0-0.1-0.1-0.2-0.1-0.2h-6.8c-0.1,0-0.2,0.1-0.2,0.2v6.8
						C238.5,48.3,238.6,48.3,238.7,48.3"/>
					<path class="st4" d="M246.4,48.3h6.8c0.1,0,0.1-0.1,0.1-0.1v-6.8c0-0.1-0.1-0.2-0.1-0.2h-6.8c-0.1,0-0.2,0.1-0.2,0.2v6.8
						C246.2,48.3,246.3,48.3,246.4,48.3"/>
					<g>
						<rect x="256.1" y="41.1" class="st28" width="9.1" height="5.9"/>
						<rect x="265.6" y="41.1" class="st28" width="9.1" height="5.9"/>
					</g>
					<circle class="st23" cx="231" cy="38.5" r="0.8"/>
					<circle class="st23" cx="234" cy="38.5" r="0.8"/>
					<circle class="st23" cx="240.8" cy="38.5" r="0.8"/>
					<circle class="st23" cx="243.8" cy="38.5" r="0.8"/>
					<circle class="st23" cx="248" cy="38.5" r="0.8"/>
					<circle class="st23" cx="250.9" cy="38.5" r="0.8"/>
					<g>
						<circle class="st23" cx="258.7" cy="38.5" r="0.8"/>
						<circle class="st23" cx="263.2" cy="38.5" r="0.8"/>
					</g>
					<g>
						<circle class="st23" cx="268" cy="38.5" r="0.8"/>
						<circle class="st23" cx="272.6" cy="38.5" r="0.8"/>
					</g>
					<g>
						<path class="st29" d="M219.9,55.7v2.7h-63.3v1h63.3v0.8h64.5V57H226v-1.6h-5.9C220,55.4,219.9,55.5,219.9,55.7z"/>
						<path class="st29" d="M223.6,57h-13.9c-0.1,0-0.3,0.1-0.4,0.2l-1.9,1.9c-0.1,0.1-0.3,0.2-0.5,0.2h-46.9
							c-0.1,0-0.3-0.1-0.4-0.2l-1.9-1.9c-0.1-0.1-0.3-0.2-0.5-0.2h-3.3v1h-2.5v2.2h72.2V57z"/>
						<path class="st7" d="M233.6,55.4h-10.1v4.8h21V57h-2.2c-0.4,0-0.8-0.1-1.2-0.1l-6.2-1.4C234.5,55.5,234,55.4,233.6,55.4z"/>
						<path class="st10" d="M242.4,57.5h-2.3c-0.7,0-1.3-0.1-2-0.2l-4.3-1c-0.6-0.1-1.1-0.2-1.7-0.2h-2.5v3.3h12.8V57.5"/>
					</g>
					<g>
						<rect x="190.6" y="41.8" class="st12" width="0.1" height="1.2"/>
						<path class="st30" d="M190.3,42.4c0,0.3-0.2,0.5-0.5,0.5s-0.5-0.2-0.5-0.5s0.2-0.5,0.5-0.5S190.3,42.2,190.3,42.4z"/>
						<rect x="188.9" y="41.8" class="st12" width="0.1" height="1.2"/>
						<path class="st30" d="M188.5,42.4c0,0.3-0.2,0.5-0.5,0.5c-0.3,0-0.5-0.2-0.5-0.5s0.2-0.5,0.5-0.5
							C188.3,42,188.5,42.2,188.5,42.4z"/>
						<rect x="187.2" y="41.8" class="st12" width="0.1" height="1.2"/>
					</g>
					<path class="st26" d="M156.9,41.6h-1.7c-0.1-0.4-0.5-0.6-0.9-0.5c-0.1,0-0.1,0.1-0.2,0.1v0.1h0.4l0.2,0.5l-0.2,0.4H154v0.1
						c0.3,0.2,0.7,0.2,1-0.1c0.1,0,0.1-0.1,0.1-0.2h1.7c0.1,0.4,0.5,0.5,0.8,0.4c0.1,0,0.1-0.1,0.2-0.1v-0.1h-0.4l-0.2-0.4l0.2-0.4
						h0.4v-0.1c-0.3-0.2-0.7-0.2-0.9,0.1C156.9,41.4,156.9,41.5,156.9,41.6z"/>
					<polygon class="st8" points="155.9,52.4 156.4,52.4 156.4,53.8 156.6,53.8 156.6,53.3 157,53.3 157,53.6 157.8,53.6 
						157.8,52.6 157,52.6 157,53 156.6,53 156.6,51.5 157,51.5 157,51.9 157.8,51.9 157.8,50.9 157,50.9 157,51.3 156.6,51.3 
						156.6,50.8 156.4,50.8 156.4,52.1 155.9,52.1 155.9,51.7 155.1,51.7 155.1,52.8 155.9,52.8 					"/>
				</g>
			</g>
		</g>
	</g>
	<g>
		<circle class="st33" cx="259.5" cy="72.7" r="11.6"/>
		<circle class="st34" cx="259.5" cy="72.7" r="11.6"/>
	</g>
	<g>
		<path class="st35" d="M68,9.2l-19.7,63l62.4,11.2c2.9,0.8-10.8-7.6-3.7-17c9.7-13,17.5-3,19.1-2.8L68,9.2z"/>
		<g>
			<circle class="st33" cx="117.8" cy="72.7" r="11.6"/>
			<circle class="st34" cx="117.8" cy="72.7" r="11.6"/>
		</g>
		<g>
			<defs>
				<circle id="SVGID_1_" cx="49.8" cy="38" r="32.9"/>
			</defs>
			<clipPath id="SVGID_00000018952234941677928220000011899278568387364259_">
				<use xlink:href="#SVGID_1_"  style="overflow:visible;"/>
			</clipPath>
			<g style="clip-path:url(#SVGID_00000018952234941677928220000011899278568387364259_);">
				<g>
					<g>
						<g>
							<g>
								<rect x="-266.9" y="-72.1" class="st1" width="801.1" height="153.9"/>
								<g>
									<rect x="-253" y="7.6" class="st2" width="373.7" height="68.5"/>
									<g>
										<path class="st3" d="M-134.2,67.3h58.4c0.8,0,1.6-0.6,1.6-1.6V12.9c0-0.9-0.7-1.6-1.6-1.6h-58.4c-0.8,0-1.6,0.6-1.6,1.6
											v52.9C-135.8,66.7-135,67.3-134.2,67.3"/>
										<path class="st4" d="M-95.5,14.3c0-0.4-0.3-0.6-0.6-0.6c-0.3,0-0.6,0.3-0.6,0.6l0.4,3.8c0,0.2,0.1,0.2,0.2,0.2
											c0.1,0,0.2-0.1,0.2-0.2L-95.5,14.3 M-95.3,19.8c0-0.4-0.3-0.7-0.7-0.7c-0.4,0-0.7,0.3-0.7,0.7c0,0.3,0.3,0.6,0.7,0.6
											C-95.7,20.4-95.3,20.1-95.3,19.8z"/>
										<path class="st4" d="M-109.8,16.3c-0.4-1.7-2.2-2.6-3.8-2.2c-1.8,0.5-2.7,2.3-2.2,3.9c0.5,1.7,2.3,2.6,3.9,2.2
											C-110.2,19.8-109.3,18-109.8,16.3 M-110.2,17c0.2,1.4-0.8,2.7-2.3,2.8c-1,0.2-2.2-0.4-2.6-1.5l1.8-1.8l0.7,2.8L-110.2,17z
											 M-115.4,17.6c-0.1-1.5,0.8-2.8,2.3-2.9c1.1-0.2,2.2,0.4,2.7,1.5l-1.8,1.8l-0.7-2.8L-115.4,17.6z"/>
									</g>
									<circle class="st4" cx="-112.6" cy="26.3" r="3.5"/>
									<circle class="st4" cx="-96" cy="26.3" r="3.5"/>
									<g>
										<path class="st5" d="M37,63.8h26.4c1.1,0,2.1-0.9,2.1-2V13.9c0-1-0.9-2-2.1-2H37c-1,0-2,0.9-2,2v47.9
											C35.1,62.9,36,63.8,37,63.8z"/>
										<path class="st6" d="M39.1,56h22.3c0.8,0,1.6-0.7,1.6-1.6V21.3c0-0.8-0.7-1.6-1.6-1.6H39.1c-0.9,0-1.6,0.7-1.6,1.6v33.1
											C37.6,55.3,38.2,56,39.1,56z"/>
										<path class="st5" d="M59.7,29.6v-4.9c0-0.5-0.4-0.9-0.9-0.9H41.8c-0.5,0-0.9,0.4-0.9,0.9v4.9H59.7z"/>
										<path class="st7" d="M59.7,29.6H40.9v21c0,0.5,0.4,0.9,0.9,0.9h16.9c0.5,0,0.9-0.4,0.9-0.9V29.6z"/>
										<path class="st8" d="M50.2,37.8c0.3,0,0.6-0.2,0.6-0.5v-4.5c0-0.3-0.3-0.5-0.6-0.5c-0.3,0-0.5,0.2-0.5,0.5v4.5
											C49.7,37.6,49.9,37.8,50.2,37.8 M52.3,45.5c0-1.1-0.9-2-2.1-2c-1,0-2,0.8-2,2c0,1.1,0.9,2,2,2
											C51.4,47.5,52.3,46.7,52.3,45.5z M53.4,45.5c0-1.8-1.5-3.1-3.2-3.1c-1.7,0-3.1,1.4-3.1,3.1c0,1.8,1.5,3.1,3.1,3.1
											C52,48.6,53.4,47.3,53.4,45.5z"/>
										<path class="st5" d="M72.6,14.3v48.2c0,1.6,1.2,2.8,2.8,2.8h34.9c1.6,0,2.8-1.2,2.8-2.8V14.3c0-1.6-1.2-2.8-2.8-2.8H75.4
											C73.8,11.4,72.6,12.7,72.6,14.3z"/>
										<path class="st9" d="M76.6,27.4v21.8c0,1.1,0.5,2.3,1.5,3.2l8.7,8.3c0.8,0.8,2,1.2,3.1,1.2h14.7c2.5,0,4.5-2,4.5-4.5V19.1
											c0-2.5-2-4.5-4.5-4.5H89.9c-1.1,0-2.3,0.4-3.1,1.2l-8.7,8.3C77.1,25.2,76.6,26.3,76.6,27.4z"/>
									</g>
									<g>
										<rect x="-19.4" y="67.1" class="st5" width="122.7" height="8.9"/>
										<rect x="-114.6" y="62.7" class="st5" width="8.9" height="13.4"/>
										<rect x="-251.2" y="67.1" class="st5" width="92.3" height="8.9"/>
										<path class="st7" d="M-69.1,67.1c-1.9,0-3.6-0.2-5.4-0.6l-12.7-3.1c-1.8-0.5-3.5-0.7-5.4-0.7H-106c-0.5,0-0.9,0.4-0.9,0.9
											v11.6c0,0.4,0.4,0.8,0.9,0.8h86.6v-8.9H-69.1z"/>
										<path class="st10" d="M-99.8,74.7h75.4v-6.2h-44.7c-2,0-3.8-0.2-5.7-0.7l-12.7-3.1c-1.7-0.4-3.3-0.6-5.1-0.6h-7.3V74.7"/>
										<path class="st7" d="M-127.6,67.1H-159v8.9h45c0.4,0,0.8-0.4,0.8-0.8V63.6c0-0.5-0.4-0.9-0.8-0.9h-6.2
											c-0.5,0-0.9,0.2-1.4,0.5l-4.6,3.5C-126.6,67-127.1,67.1-127.6,67.1z"/>
										<rect x="-257.9" y="70.1" class="st5" width="13.4" height="6"/>
									</g>
								</g>
							</g>
							<g>
								<path class="st29" d="M-63.2-10.3v7.7h-179.6v2.8h179.6v2.3h183.1v-9.1H-45.7v-4.6h-16.6C-62.8-11.3-63.2-10.9-63.2-10.3z"
									/>
								<path class="st29" d="M-52.7-6.7h-39.6c-0.4,0-0.9,0.2-1.2,0.5l-5.5,5.4c-0.4,0.3-0.8,0.5-1.3,0.5h-133.2
									c-0.4,0-0.9-0.2-1.2-0.5l-5.5-5.4c-0.4-0.3-0.8-0.5-1.3-0.5h-9.4v2.9h-7v6.2h205.1V-6.7z"/>
								<path class="st7" d="M-24.1-11.3h-28.6V2.5H6.9v-9.1H0.6c-1.2,0-2.4-0.2-3.5-0.4l-17.7-3.8C-21.7-11.1-22.9-11.3-24.1-11.3z
									"/>
								<path class="st10" d="M0.9-5.2h-6.4c-1.9,0-3.7-0.2-5.6-0.6l-12.3-2.8C-25-9-26.7-9.2-28.3-9.2h-7.2v9.5H0.9V-5.2"/>
							</g>
						</g>
					</g>
				</g>
			</g>
		</g>
		<g>
			<g>
				<defs>
					<circle id="SVGID_00000124138378526520628380000015210912677439715763_" cx="49.8" cy="38" r="33"/>
				</defs>
				<clipPath id="SVGID_00000086658104794856771920000018245891897280293308_">
					<use xlink:href="#SVGID_00000124138378526520628380000015210912677439715763_"  style="overflow:visible;"/>
				</clipPath>
			</g>
			<circle class="st37" cx="49.8" cy="38" r="33"/>
			<circle class="st38" cx="49.8" cy="38" r="33"/>
		</g>
		<g>
			<path class="st39" d="M88.8,7.3l5.1-2.8c0.5-0.3,1.2-0.1,1.5,0.4l6.6,11.9c0.3,0.5,0.1,1.2-0.4,1.5l-5.1,2.8
				c-0.5,0.3-1.2,0.1-1.5-0.4L88.3,8.9C88,8.3,88.2,7.6,88.8,7.3z"/>
			<path class="st39" d="M67.8,21.6c-0.6,2.2,0.1,3.9,2.8,4.3c-0.1,1-0.1,1.9,0.7,2.7c0.7,0.8,1.7,1,2.5,1c0.3,0.7,0.4,1.5,0.8,2
				c0.9,1.1,2.3,1.3,3.8,0.6c1.9-1,3.8-1.9,5.6-2.9c0.9-0.5,1.7-1,2.5-1.5c1-0.7,2.1-1.4,3.1-2.1c0.6-0.5,1.2-1,1.7-1.7
				c0.4-0.5,0.8-0.8,1.3-1.1c0.3-0.1,0.5-0.3,0.7-0.4c0.6-0.3,0.9-1.1,0.5-1.8l-6-10.9c-0.3-0.6-1.1-0.9-1.8-0.5
				c-0.2,0.1-0.4,0.2-0.6,0.3l-0.1,0.1c-0.4,0.2-0.9,0.2-1.3,0c-1.3-0.8-2.5-1.6-3.7-2.3c-1.5-0.9-6.1-0.5-8.6,2.1
				c-1.2,1.2,0.9,2.4-0.5,3.4c-0.1,0.1-0.2,0.1-0.3,0.2c-1.3,0.8-2.6,1.5-3.9,2.3c-0.6,0.4-11.7,7.3-11.7,7.3s-2.1,1.4-0.9,3.2
				c0,0,0.6,1.6,3,0.4c2.4-1.1,10.2-5.4,10.2-5.4S68.3,21,67.8,21.6z"/>
		</g>
	</g>
</g>
</svg>
