<?xml version="1.0" encoding="UTF-8"?><svg id="uuid-ca27ffad-0695-4890-8d8d-bd9fee86856a" xmlns="http://www.w3.org/2000/svg" width="125mm" height="50mm" viewBox="0 0 354.3307 141.7323"><defs><style>.uuid-9295bd99-5292-4e68-a181-8d4ceb765dd4,.uuid-d9adf719-7bbd-47d7-9880-c0c1f53fd6f1{stroke-width:.5px;}.uuid-9295bd99-5292-4e68-a181-8d4ceb765dd4,.uuid-d9adf719-7bbd-47d7-9880-c0c1f53fd6f1,.uuid-ab4c46dc-cc55-49a4-a8a8-cc5b837bb62d{stroke-miterlimit:10;}.uuid-9295bd99-5292-4e68-a181-8d4ceb765dd4,.uuid-ab4c46dc-cc55-49a4-a8a8-cc5b837bb62d{fill:#fff;stroke:#000;}.uuid-d9adf719-7bbd-47d7-9880-c0c1f53fd6f1{fill:#d0d3d4;stroke:#101820;}</style></defs><rect class="uuid-ab4c46dc-cc55-49a4-a8a8-cc5b837bb62d" x="14.0707" y="86.6251" width="163.3972" height="44.5261"/><rect class="uuid-9295bd99-5292-4e68-a181-8d4ceb765dd4" x="22.7316" y="101.8135" width="15.0943" height="15.0943"/><rect class="uuid-9295bd99-5292-4e68-a181-8d4ceb765dd4" x="51.4332" y="101.8135" width="15.0943" height="15.0943"/><polygon points="74.7403 94.3997 70.1152 89.7745 70.1152 92.2648 67.4747 92.2648 67.4747 96.5346 70.1152 96.5346 70.1152 99.0248 74.7403 94.3997"/><polygon points="58.3147 94.3997 62.9398 99.0248 62.9398 96.5346 65.5803 96.5346 65.5803 92.2648 62.9398 92.2648 62.9398 89.7745 58.3147 94.3997"/><path d="m27.4614,119.1997c.6934,0,1.2354.2476,1.626.7422.4653.5859.6982,1.5576.6982,2.915,0,1.354-.2344,2.3276-.7031,2.9199-.3872.4883-.9277.7324-1.6211.7324-.6968,0-1.2583-.2676-1.6846-.8032s-.6396-1.4902-.6396-2.8638c0-1.3477.2344-2.3179.7031-2.9102.3872-.4883.9277-.7324,1.6211-.7324Zm0,1.1377c-.166,0-.314.0527-.4443.1587s-.231.2954-.3027.5688c-.0942.355-.1416.9521-.1416,1.792s.0425,1.417.127,1.731.1914.5234.3198.6274.2759.1562.4419.1562.314-.0527.4443-.1587.231-.2954.3027-.5688c.0942-.3516.1416-.9473.1416-1.7871s-.0425-1.417-.127-1.731-.1914-.5239-.3198-.6299-.2759-.1587-.4419-.1587Z"/><path d="m32.022,122.7836l-1.2451-.2246c.1401-.5015.3809-.8726.7227-1.1133s.8496-.3613,1.5234-.3613c.6118,0,1.0679.0723,1.3672.2173s.5103.3286.6323.5518.1831.6323.1831,1.228l-.0146,1.6016c0,.4556.022.792.0659,1.0083s.126.4482.2466.6958h-1.3574c-.0356-.0913-.0796-.2261-.1318-.4053-.0229-.0815-.0391-.1353-.0488-.1611-.2344.228-.4849.3989-.752.5127s-.5518.1709-.8545.1709c-.5337,0-.9546-.145-1.2622-.4346s-.4614-.6558-.4614-1.0986c0-.293.0698-.5542.21-.7837s.3359-.4053.5884-.5273.6162-.2285,1.0913-.3198c.6411-.1206,1.0854-.2329,1.333-.3369v-.1367c0-.2637-.0649-.4517-.1953-.564s-.376-.1685-.7373-.1685c-.2441,0-.4346.0479-.5713.144s-.2476.2646-.332.5054Zm1.8359,1.1133c-.1758.0586-.4541.1284-.835.21s-.6299.1611-.7471.2393c-.1792.127-.2686.2881-.2686.4834,0,.1919.0718.3579.2148.498s.3257.21.5469.21c.2476,0,.4834-.0815.708-.2441.166-.1235.2749-.2749.3271-.4541.0356-.1172.0537-.3403.0537-.6689v-.2734Z"/><path d="m50.2739,119.1997c.6934,0,1.2354.2476,1.626.7422.4653.5859.6982,1.5576.6982,2.915,0,1.354-.2344,2.3276-.7031,2.9199-.3872.4883-.9277.7324-1.6211.7324-.6968,0-1.2583-.2676-1.6846-.8032s-.6396-1.4902-.6396-2.8638c0-1.3477.2344-2.3179.7031-2.9102.3872-.4883.9277-.7324,1.6211-.7324Zm0,1.1377c-.166,0-.314.0527-.4443.1587s-.231.2954-.3027.5688c-.0942.355-.1416.9521-.1416,1.792s.0425,1.417.127,1.731.1914.5234.3198.6274.2759.1562.4419.1562.314-.0527.4443-.1587.231-.2954.3027-.5688c.0942-.3516.1416-.9473.1416-1.7871s-.0425-1.417-.127-1.731-.1914-.5239-.3198-.6299-.2759-.1587-.4419-.1587Z"/><path d="m53.7505,126.3872v-7.1582h1.3721v2.5781c.4233-.4819.9243-.7227,1.5039-.7227.6313,0,1.1538.2285,1.5674.686s.6201,1.1143.6201,1.9702c0,.8853-.2109,1.5674-.6323,2.0459s-.9336.7178-1.5356.7178c-.2964,0-.5884-.0742-.8765-.2222s-.5361-.3672-.7446-.6567v.7617h-1.2744Zm1.3623-2.7051c0,.5371.0845.9341.2539,1.1914.2378.3647.5532.5469.9473.5469.3027,0,.5605-.1294.7739-.3882s.3198-.6665.3198-1.2231c0-.5923-.1074-1.0195-.3223-1.2817s-.4897-.3931-.8252-.3931c-.3286,0-.6021.1279-.8203.3833s-.3271.6436-.3271,1.1646Z"/><path d="m63.1352,126.3872h-1.3721v-5.1709c-.5015.4688-1.0923.8154-1.7725,1.04v-1.2451c.3579-.1172.7471-.3394,1.167-.6665s.708-.709.8643-1.145h1.1133v7.1875Z"/><rect class="uuid-d9adf719-7bbd-47d7-9880-c0c1f53fd6f1" x="66.5275" y="101.8135" width="15.0943" height="15.0943"/><path d="m71.7031,119.1997c.6934,0,1.2354.2476,1.626.7422.4653.5859.6982,1.5576.6982,2.915,0,1.354-.2344,2.3276-.7031,2.9199-.3872.4883-.9277.7324-1.6211.7324-.6968,0-1.2583-.2676-1.6846-.8032s-.6396-1.4902-.6396-2.8638c0-1.3477.2344-2.3179.7031-2.9102.3872-.4883.9277-.7324,1.6211-.7324Zm0,1.1377c-.166,0-.314.0527-.4443.1587s-.231.2954-.3027.5688c-.0942.355-.1416.9521-.1416,1.792s.0425,1.417.127,1.731.1914.5234.3198.6274.2759.1562.4419.1562.314-.0527.4443-.1587.231-.2954.3027-.5688c.0942-.3516.1416-.9473.1416-1.7871s-.0425-1.417-.127-1.731-.1914-.5239-.3198-.6299-.2759-.1587-.4419-.1587Z"/><path d="m75.1797,126.3872v-7.1582h1.3721v2.5781c.4233-.4819.9243-.7227,1.5039-.7227.6313,0,1.1538.2285,1.5674.686s.6201,1.1143.6201,1.9702c0,.8853-.2109,1.5674-.6323,2.0459s-.9336.7178-1.5356.7178c-.2964,0-.5884-.0742-.8765-.2222s-.5361-.3672-.7446-.6567v.7617h-1.2744Zm1.3623-2.7051c0,.5371.0845.9341.2539,1.1914.2378.3647.5532.5469.9473.5469.3027,0,.5605-.1294.7739-.3882s.3198-.6665.3198-1.2231c0-.5923-.1074-1.0195-.3223-1.2817s-.4897-.3931-.8252-.3931c-.3286,0-.6021.1279-.8203.3833s-.3271.6436-.3271,1.1646Z"/><path d="m85.6875,125.1127v1.2744h-4.8096c.0522-.4819.2085-.9385.4688-1.3696s.7749-1.0034,1.543-1.7163c.6187-.5762.9976-.9668,1.1377-1.1719.189-.2832.2832-.563.2832-.8398,0-.3062-.082-.541-.2466-.7056s-.3916-.2466-.6812-.2466c-.2866,0-.5142.0864-.6836.2588s-.2671.459-.293.8594l-1.3672-.1367c.0815-.7554.3369-1.2974.7666-1.626s.9668-.4932,1.6113-.4932c.7065,0,1.2612.1904,1.665.5713s.6055.8545.6055,1.4209c0,.3223-.0576.6289-.1733.9204s-.2988.5967-.5493.9155c-.166.2114-.4653.5161-.8984.9131s-.707.6606-.8228.791-.209.2573-.2808.3809h2.7246Z"/><rect class="uuid-ab4c46dc-cc55-49a4-a8a8-cc5b837bb62d" x="177.4679" y="86.6251" width="163.3972" height="44.5261"/><rect class="uuid-9295bd99-5292-4e68-a181-8d4ceb765dd4" x="186.1288" y="101.8135" width="15.0943" height="15.0943"/><rect class="uuid-9295bd99-5292-4e68-a181-8d4ceb765dd4" x="214.8304" y="101.8135" width="15.0943" height="15.0943"/><polygon points="238.1375 94.3997 233.5124 89.7745 233.5124 92.2648 230.8719 92.2648 230.8719 96.5346 233.5124 96.5346 233.5124 99.0248 238.1375 94.3997"/><polygon points="221.7118 94.3997 226.337 99.0248 226.337 96.5346 228.9775 96.5346 228.9775 92.2648 226.337 92.2648 226.337 89.7745 221.7118 94.3997"/><path d="m190.8584,119.1997c.6934,0,1.2354.2476,1.626.7422.4658.5859.6982,1.5576.6982,2.915,0,1.354-.2344,2.3276-.7031,2.9199-.3867.4883-.9277.7324-1.6211.7324-.6963,0-1.2578-.2676-1.6846-.8032-.4258-.5356-.6396-1.4902-.6396-2.8638,0-1.3477.2344-2.3179.7031-2.9102.3877-.4883.9277-.7324,1.6211-.7324Zm0,1.1377c-.166,0-.3135.0527-.4443.1587-.1299.106-.2305.2954-.3027.5688-.0938.355-.1416.9521-.1416,1.792s.043,1.417.127,1.731c.085.314.1914.5234.3203.6274.1279.104.2754.1562.4414.1562s.3145-.0527.4443-.1587c.1309-.106.2314-.2954.3027-.5688.0947-.3516.1416-.9473.1416-1.7871s-.042-1.417-.127-1.731c-.084-.314-.1914-.5239-.3193-.6299-.1289-.106-.2764-.1587-.4424-.1587Z"/><path d="m195.4189,122.7836l-1.2451-.2246c.1406-.5015.3809-.8726.7227-1.1133s.8496-.3613,1.5234-.3613c.6123,0,1.0684.0723,1.3672.2173.2998.145.5107.3286.6328.5518s.1826.6323.1826,1.228l-.0146,1.6016c0,.4556.0225.792.0664,1.0083s.126.4482.2461.6958h-1.3574c-.0352-.0913-.0791-.2261-.1318-.4053-.0225-.0815-.0391-.1353-.0488-.1611-.2344.228-.4844.3989-.752.5127-.2666.1138-.5518.1709-.8545.1709-.5332,0-.9541-.145-1.2617-.4346s-.4619-.6558-.4619-1.0986c0-.293.0703-.5542.21-.7837.1406-.2295.3359-.4053.5889-.5273.252-.1221.6162-.2285,1.0908-.3198.6416-.1206,1.0859-.2329,1.333-.3369v-.1367c0-.2637-.0645-.4517-.1953-.564-.1299-.1123-.376-.1685-.7373-.1685-.2441,0-.4346.0479-.5713.144s-.2471.2646-.332.5054Zm1.8359,1.1133c-.1758.0586-.4541.1284-.835.21s-.6299.1611-.7471.2393c-.1787.127-.2686.2881-.2686.4834,0,.1919.0723.3579.2148.498.1436.1401.3262.21.5469.21.248,0,.4834-.0815.708-.2441.166-.1235.2754-.2749.3271-.4541.0361-.1172.0537-.3403.0537-.6689v-.2734Z"/><path d="m213.6709,119.1997c.6934,0,1.2354.2476,1.626.7422.4658.5859.6982,1.5576.6982,2.915,0,1.354-.2344,2.3276-.7031,2.9199-.3867.4883-.9277.7324-1.6211.7324-.6963,0-1.2578-.2676-1.6846-.8032-.4258-.5356-.6396-1.4902-.6396-2.8638,0-1.3477.2344-2.3179.7031-2.9102.3877-.4883.9277-.7324,1.6211-.7324Zm0,1.1377c-.166,0-.3135.0527-.4443.1587-.1299.106-.2305.2954-.3027.5688-.0938.355-.1416.9521-.1416,1.792s.043,1.417.127,1.731c.085.314.1914.5234.3203.6274.1279.104.2754.1562.4414.1562s.3145-.0527.4443-.1587c.1309-.106.2314-.2954.3027-.5688.0947-.3516.1416-.9473.1416-1.7871s-.042-1.417-.127-1.731c-.084-.314-.1914-.5239-.3193-.6299-.1289-.106-.2764-.1587-.4424-.1587Z"/><path d="m217.1475,126.3872v-7.1582h1.3721v2.5781c.4238-.4819.9248-.7227,1.5039-.7227.6318,0,1.1543.2285,1.5674.686.4141.4575.6201,1.1143.6201,1.9702,0,.8853-.2109,1.5674-.6318,2.0459-.4219.4785-.9336.7178-1.5361.7178-.2959,0-.5879-.0742-.876-.2222s-.5361-.3672-.7451-.6567v.7617h-1.2744Zm1.3623-2.7051c0,.5371.085.9341.2539,1.1914.2383.3647.5537.5469.9473.5469.3027,0,.5605-.1294.7744-.3882.2129-.2588.3193-.6665.3193-1.2231,0-.5923-.1074-1.0195-.3223-1.2817s-.4893-.3931-.8252-.3931c-.3281,0-.6016.1279-.8203.3833-.2178.2554-.3271.6436-.3271,1.1646Z"/><path d="m226.5322,126.3872h-1.3721v-5.1709c-.501.4688-1.0918.8154-1.7725,1.04v-1.2451c.3584-.1172.7471-.3394,1.167-.6665s.708-.709.8643-1.145h1.1133v7.1875Z"/><rect class="uuid-d9adf719-7bbd-47d7-9880-c0c1f53fd6f1" x="229.9247" y="101.8135" width="15.0943" height="15.0943"/><path d="m235.1006,119.1997c.6934,0,1.2354.2476,1.626.7422.4648.5859.6982,1.5576.6982,2.915,0,1.354-.2344,2.3276-.7031,2.9199-.3877.4883-.9277.7324-1.6211.7324-.6973,0-1.2588-.2676-1.6846-.8032-.4268-.5356-.6396-1.4902-.6396-2.8638,0-1.3477.2344-2.3179.7031-2.9102.3867-.4883.9277-.7324,1.6211-.7324Zm0,1.1377c-.166,0-.3145.0527-.4443.1587-.1309.106-.2314.2954-.3027.5688-.0947.355-.1416.9521-.1416,1.792s.042,1.417.127,1.731c.084.314.1914.5234.3193.6274.1289.104.2764.1562.4424.1562s.3135-.0527.4443-.1587c.1299-.106.2305-.2954.3027-.5688.0938-.3516.1416-.9473.1416-1.7871s-.043-1.417-.127-1.731c-.085-.314-.1914-.5239-.3203-.6299-.1279-.106-.2754-.1587-.4414-.1587Z"/><path d="m238.5771,126.3872v-7.1582h1.3721v2.5781c.4229-.4819.9238-.7227,1.5039-.7227.6309,0,1.1533.2285,1.5674.686.4131.4575.6201,1.1143.6201,1.9702,0,.8853-.2109,1.5674-.6328,2.0459-.4209.4785-.9336.7178-1.5352.7178-.2969,0-.5889-.0742-.877-.2222s-.5361-.3672-.7441-.6567v.7617h-1.2744Zm1.3623-2.7051c0,.5371.084.9341.2539,1.1914.2373.3647.5527.5469.9473.5469.3027,0,.5605-.1294.7734-.3882.2139-.2588.3203-.6665.3203-1.2231,0-.5923-.1074-1.0195-.3223-1.2817s-.4902-.3931-.8252-.3931c-.3291,0-.6025.1279-.8203.3833-.2188.2554-.3271.6436-.3271,1.1646Z"/><path d="m249.085,125.1127v1.2744h-4.8096c.0518-.4819.208-.9385.4688-1.3696.2598-.4312.7744-1.0034,1.543-1.7163.6182-.5762.9971-.9668,1.1377-1.1719.1885-.2832.2832-.563.2832-.8398,0-.3062-.082-.541-.2471-.7056-.1641-.1646-.3916-.2466-.6807-.2466-.2871,0-.5146.0864-.6836.2588-.1699.1724-.2676.459-.293.8594l-1.3672-.1367c.0811-.7554.3369-1.2974.7666-1.626s.9668-.4932,1.6113-.4932c.7061,0,1.2607.1904,1.665.5713.4033.3809.6055.8545.6055,1.4209,0,.3223-.0576.6289-.1738.9204-.1152.2915-.2988.5967-.5488.9155-.166.2114-.4658.5161-.8984.9131-.4336.397-.707.6606-.8232.791-.1152.1304-.209.2573-.2803.3809h2.7246Z"/><path d="m88.0742,20.8793v-8.5898h5.7949v1.0137h-4.6582v2.6602h4.0312v1.0137h-4.0312v3.9023h-1.1367Z"/><path d="m93.7402,20.8793l3.2988-8.5898h1.2246l3.5156,8.5898h-1.2949l-1.002-2.6016h-3.5918l-.9434,2.6016h-1.207Zm2.4785-3.5273h2.9121l-.8965-2.3789c-.2734-.7227-.4766-1.3164-.6094-1.7812-.1094.5508-.2637,1.0977-.4629,1.6406l-.9434,2.5195Z"/><path d="m102.3008,18.1196l1.0723-.0938c.0508.4297.1689.7822.3545,1.0576s.4736.498.8643.668.8301.2549,1.3184.2549c.4336,0,.8164-.0645,1.1484-.1934s.5791-.3057.7412-.5303.2432-.4697.2432-.7354c0-.2695-.0781-.5049-.2344-.7061s-.4141-.3701-.7734-.5068c-.2305-.0898-.7402-.2295-1.5293-.4189s-1.3418-.3682-1.6582-.5361c-.4102-.2148-.7158-.4814-.917-.7998s-.3018-.6748-.3018-1.0693c0-.4336.123-.8389.3691-1.2158s.6055-.6631,1.0781-.8584.998-.293,1.5762-.293c.6367,0,1.1982.1025,1.6846.3076s.8604.5068,1.1221.9053.4023.8496.4219,1.3535l-1.0898.082c-.0586-.543-.2568-.9531-.5947-1.2305s-.8369-.416-1.4971-.416c-.6875,0-1.1885.126-1.5029.3779s-.4717.5557-.4717.9111c0,.3086.1113.5625.334.7617.2188.1992.79.4033,1.7139.6123s1.5576.3916,1.9014.5479c.5.2305.8691.5225,1.1074.876s.3574.7607.3574,1.2217c0,.457-.1309.8877-.3926,1.292s-.6377.7188-1.1279.9434-1.042.3369-1.6553.3369c-.7773,0-1.4287-.1133-1.9541-.3398s-.9375-.5674-1.2363-1.0225-.4561-.9697-.4717-1.5439Z"/><path d="m115.8066,19.8657v1.0137h-5.6777c-.0078-.2539.0332-.498.123-.7324.1445-.3867.376-.7676.6943-1.1426s.7783-.8086,1.3799-1.3008c.9336-.7656,1.5645-1.3721,1.8926-1.8193s.4922-.8701.4922-1.2686c0-.418-.1494-.7705-.4482-1.0576s-.6885-.4307-1.1689-.4307c-.5078,0-.9141.1523-1.2188.457s-.459.7266-.4629,1.2656l-1.084-.1113c.0742-.8086.3535-1.4248.8379-1.8486s1.1348-.6357,1.9512-.6357c.8242,0,1.4766.2285,1.957.6855s.7207,1.0234.7207,1.6992c0,.3438-.0703.6816-.2109,1.0137s-.374.6816-.7002,1.0488-.8682.8711-1.626,1.5117c-.6328.5312-1.0391.8916-1.2188,1.0811s-.3281.3799-.4453.5713h4.2129Z"/><path d="m118.5605,16.2211c-.4375-.1602-.7617-.3887-.9727-.6855s-.3164-.6523-.3164-1.0664c0-.625.2246-1.1504.6738-1.5762s1.0469-.6387,1.793-.6387c.75,0,1.3535.2178,1.8105.6533s.6855.9658.6855,1.5908c0,.3984-.1045.7451-.3135,1.04s-.5264.5225-.9521.6826c.5273.1719.9287.4492,1.2041.832s.4131.8398.4131,1.3711c0,.7344-.2598,1.3516-.7793,1.8516s-1.2031.75-2.0508.75-1.5312-.251-2.0508-.7529-.7793-1.1279-.7793-1.8779c0-.5586.1416-1.0264.4248-1.4033s.6865-.6338,1.21-.7705Zm-.5508,2.1797c0,.3008.0713.5918.2139.873s.3545.499.6357.6533.584.2314.9082.2314c.5039,0,.9199-.1621,1.248-.4863s.4922-.7363.4922-1.2363c0-.5078-.1689-.9277-.5068-1.2598s-.7607-.498-1.2686-.498c-.4961,0-.9072.1641-1.2334.4922s-.4893.7383-.4893,1.2305Zm.3398-3.9668c0,.4062.1309.7383.3926.9961s.6016.3867,1.0195.3867c.4062,0,.7393-.1279.999-.3838s.3896-.5693.3896-.9404c0-.3867-.1338-.7119-.4014-.9756s-.6006-.3955-.999-.3955c-.4023,0-.7363.1289-1.002.3867s-.3984.5664-.3984.9258Z"/><path d="m123.6113,16.643c0-1.0156.1045-1.833.3135-2.4521s.5195-1.0967.9316-1.4326.9307-.5039,1.5557-.5039c.4609,0,.8652.0928,1.2129.2783s.6348.4531.8613.8027.4043.7754.5332,1.2773.1934,1.1787.1934,2.0303c0,1.0078-.1035,1.8213-.3105,2.4404s-.5166,1.0977-.9287,1.4355-.9326.5068-1.5615.5068c-.8281,0-1.4785-.2969-1.9512-.8906-.5664-.7148-.8496-1.8789-.8496-3.4922Zm1.084,0c0,1.4102.165,2.3486.4951,2.8154s.7373.7002,1.2217.7002.8916-.2344,1.2217-.7031.4951-1.4062.4951-2.8125c0-1.4141-.165-2.3535-.4951-2.8184s-.7412-.6973-1.2334-.6973c-.4844,0-.8711.2051-1.1602.6152-.3633.5234-.5449,1.4902-.5449,2.9004Z"/><path d="m130.2852,16.643c0-1.0156.1045-1.833.3135-2.4521s.5195-1.0967.9316-1.4326.9307-.5039,1.5557-.5039c.4609,0,.8652.0928,1.2129.2783s.6348.4531.8613.8027.4043.7754.5332,1.2773.1934,1.1787.1934,2.0303c0,1.0078-.1035,1.8213-.3105,2.4404s-.5166,1.0977-.9287,1.4355-.9326.5068-1.5615.5068c-.8281,0-1.4785-.2969-1.9512-.8906-.5664-.7148-.8496-1.8789-.8496-3.4922Zm1.084,0c0,1.4102.165,2.3486.4951,2.8154s.7373.7002,1.2217.7002.8916-.2344,1.2217-.7031.4951-1.4062.4951-2.8125c0-1.4141-.165-2.3535-.4951-2.8184s-.7412-.6973-1.2334-.6973c-.4844,0-.8711.2051-1.1602.6152-.3633.5234-.5449,1.4902-.5449,2.9004Z"/><path d="m141.7344,20.8793l-1.9043-6.2227h1.0898l.9902,3.5918.3691,1.3359c.0156-.0664.123-.4941.3223-1.2832l.9902-3.6445h1.084l.9316,3.6094.3105,1.1895.3574-1.2012,1.0664-3.5977h1.0254l-1.9453,6.2227h-1.0957l-.9902-3.7266-.2402-1.0605-1.2598,4.7871h-1.1016Z"/><path d="m149.2578,13.5024v-1.2129h1.0547v1.2129h-1.0547Zm0,7.377v-6.2227h1.0547v6.2227h-1.0547Z"/><path d="m154.2207,19.936l.1523.9316c-.2969.0625-.5625.0938-.7969.0938-.3828,0-.6797-.0605-.8906-.1816s-.3594-.2803-.4453-.4775-.1289-.6123-.1289-1.2451v-3.5801h-.7734v-.8203h.7734v-1.541l1.0488-.6328v2.1738h1.0605v.8203h-1.0605v3.6387c0,.3008.0186.4941.0557.5801s.0977.1543.1816.2051.2041.0762.3604.0762c.1172,0,.2715-.0137.4629-.041Z"/><path d="m155.2519,20.8793v-8.5898h1.0547v3.082c.4922-.5703,1.1133-.8555,1.8633-.8555.4609,0,.8613.0908,1.2012.2725s.583.4326.7295.7529.2197.7852.2197,1.3945v3.9434h-1.0547v-3.9434c0-.5273-.1143-.9111-.3428-1.1514s-.5518-.3604-.9697-.3604c-.3125,0-.6064.0811-.8818.2432s-.4717.3818-.5889.6592-.1758.6602-.1758,1.1484v3.4043h-1.0547Z"/><path d="m165.2598,20.8793v-6.2227h.9492v.8848c.457-.6836,1.1172-1.0254,1.9805-1.0254.375,0,.7197.0674,1.0342.2021s.5498.3115.7061.5303.2656.4785.3281.7793c.0391.1953.0586.5371.0586,1.0254v3.8262h-1.0547v-3.7852c0-.4297-.041-.751-.123-.9639s-.2275-.3828-.4365-.5098-.4541-.1904-.7354-.1904c-.4492,0-.8369.1426-1.1631.4277s-.4893.8262-.4893,1.623v3.3984h-1.0547Z"/><path d="m171.541,17.768c0-1.1523.3203-2.0059.9609-2.5605.5352-.4609,1.1875-.6914,1.957-.6914.8555,0,1.5547.2803,2.0977.8408s.8145,1.335.8145,2.3232c0,.8008-.1201,1.4307-.3604,1.8896s-.5898.8154-1.0488,1.0693-.96.3809-1.5029.3809c-.8711,0-1.5752-.2793-2.1123-.8379s-.8057-1.3633-.8057-2.4141Zm1.084,0c0,.7969.1738,1.3936.5215,1.79s.7852.5947,1.3125.5947c.5234,0,.959-.1992,1.3066-.5977s.5215-1.0059.5215-1.8223c0-.7695-.1748-1.3525-.5244-1.749s-.7842-.5947-1.3037-.5947c-.5273,0-.9648.1973-1.3125.5918s-.5215.9902-.5215,1.7871Z"/><path d="m186.2012,18.8754l1.0898.1348c-.1719.6367-.4902,1.1309-.9551,1.4824s-1.0586.5273-1.7812.5273c-.9102,0-1.6318-.2803-2.165-.8408s-.7998-1.3467-.7998-2.3584c0-1.0469.2695-1.8594.8086-2.4375s1.2383-.8672,2.0977-.8672c.832,0,1.5117.2832,2.0391.8496s.791,1.3633.791,2.3906c0,.0625-.002.1562-.0059.2812h-4.6406c.0391.6836.2324,1.207.5801,1.5703s.7812.5449,1.3008.5449c.3867,0,.7168-.1016.9902-.3047s.4902-.5273.6504-.9727Zm-3.4629-1.7051h3.4746c-.0469-.5234-.1797-.916-.3984-1.1777-.3359-.4062-.7715-.6094-1.3066-.6094-.4844,0-.8916.1621-1.2217.4863s-.5127.7578-.5479,1.3008Z"/><path d="m187.9121,20.8793l2.2734-3.2344-2.1035-2.9883h1.3184l.9551,1.459c.1797.2773.3242.5098.4336.6973.1719-.2578.3301-.4863.4746-.6855l1.0488-1.4707h1.2598l-2.1504,2.9297,2.3145,3.293h-1.2949l-1.2773-1.9336-.3398-.5215-1.6348,2.4551h-1.2773Z"/><path d="m196.918,19.936l.1523.9316c-.2969.0625-.5625.0938-.7969.0938-.3828,0-.6797-.0605-.8906-.1816s-.3594-.2803-.4453-.4775-.1289-.6123-.1289-1.2451v-3.5801h-.7734v-.8203h.7734v-1.541l1.0488-.6328v2.1738h1.0605v.8203h-1.0605v3.6387c0,.3008.0186.4941.0557.5801s.0977.1543.1816.2051.2041.0762.3604.0762c.1172,0,.2715-.0137.4629-.041Z"/><path d="m202.209,18.8754l1.0898.1348c-.1719.6367-.4902,1.1309-.9551,1.4824s-1.0586.5273-1.7812.5273c-.9102,0-1.6318-.2803-2.165-.8408s-.7998-1.3467-.7998-2.3584c0-1.0469.2695-1.8594.8086-2.4375s1.2383-.8672,2.0977-.8672c.832,0,1.5117.2832,2.0391.8496s.791,1.3633.791,2.3906c0,.0625-.002.1562-.0059.2812h-4.6406c.0391.6836.2324,1.207.5801,1.5703s.7812.5449,1.3008.5449c.3867,0,.7168-.1016.9902-.3047s.4902-.5273.6504-.9727Zm-3.4629-1.7051h3.4746c-.0469-.5234-.1797-.916-.3984-1.1777-.3359-.4062-.7715-.6094-1.3066-.6094-.4844,0-.8916.1621-1.2217.4863s-.5127.7578-.5479,1.3008Z"/><path d="m204.6113,20.8793v-6.2227h.9492v.9434c.2422-.4414.4658-.7324.6709-.873s.4307-.2109.6768-.2109c.3555,0,.7168.1133,1.084.3398l-.3633.9785c-.2578-.1523-.5156-.2285-.7734-.2285-.2305,0-.4375.0693-.6211.208s-.3145.3311-.3926.5771c-.1172.375-.1758.7852-.1758,1.2305v3.2578h-1.0547Z"/><path d="m208.6191,20.8793v-6.2227h.9492v.8848c.457-.6836,1.1172-1.0254,1.9805-1.0254.375,0,.7197.0674,1.0342.2021s.5498.3115.7061.5303.2656.4785.3281.7793c.0391.1953.0586.5371.0586,1.0254v3.8262h-1.0547v-3.7852c0-.4297-.041-.751-.123-.9639s-.2275-.3828-.4365-.5098-.4541-.1904-.7354-.1904c-.4492,0-.8369.1426-1.1631.4277s-.4893.8262-.4893,1.623v3.3984h-1.0547Z"/><path d="m219.3535,20.1118c-.3906.332-.7666.5664-1.1279.7031s-.749.2051-1.1631.2051c-.6836,0-1.209-.167-1.5762-.501s-.5508-.7607-.5508-1.2803c0-.3047.0693-.583.208-.835s.3203-.4541.5449-.6064.4775-.2676.7588-.3457c.207-.0547.5195-.1074.9375-.1582.8516-.1016,1.4785-.2227,1.8809-.3633.0039-.1445.0059-.2363.0059-.2754,0-.4297-.0996-.7324-.2988-.9082-.2695-.2383-.6699-.3574-1.2012-.3574-.4961,0-.8623.0869-1.0986.2607s-.4111.4814-.5244.9229l-1.0312-.1406c.0938-.4414.248-.7979.4629-1.0693s.5254-.4805.9316-.627.877-.2197,1.4121-.2197c.5312,0,.9629.0625,1.2949.1875s.5762.2822.7324.4717.2656.4287.3281.7178c.0352.1797.0527.5039.0527.9727v1.4062c0,.9805.0225,1.6006.0674,1.8604s.1338.5088.2666.7471h-1.1016c-.1094-.2188-.1797-.4746-.2109-.7676Zm-.0879-2.3555c-.3828.1562-.957.2891-1.7227.3984-.4336.0625-.7402.1328-.9199.2109s-.3184.1924-.416.3428-.1465.3174-.1465.501c0,.2812.1064.5156.3193.7031s.5244.2812.9346.2812c.4062,0,.7676-.0889,1.084-.2666s.5488-.4209.6973-.7295c.1133-.2383.1699-.5898.1699-1.0547v-.3867Z"/><path d="m221.9434,20.8793v-8.5898h1.0547v8.5898h-1.0547Z"/><path d="m227.5449,19.0219l1.043-.1641c.0586.418.2217.7383.4893.9609s.6416.334,1.1221.334c.4844,0,.8438-.0986,1.0781-.2959s.3516-.4287.3516-.6943c0-.2383-.1035-.4258-.3105-.5625-.1445-.0938-.5039-.2129-1.0781-.3574-.7734-.1953-1.3096-.3643-1.6084-.5068s-.5254-.3398-.6797-.5918-.2314-.5303-.2314-.835c0-.2773.0635-.5342.1904-.7705s.2998-.4326.5186-.5889c.1641-.1211.3877-.2236.6709-.3076s.5869-.126.9111-.126c.4883,0,.917.0703,1.2861.2109s.6416.3311.8174.5713.2969.5615.3633.9639l-1.0312.1406c-.0469-.3203-.1826-.5703-.4072-.75s-.542-.2695-.9521-.2695c-.4844,0-.8301.0801-1.0371.2402s-.3105.3477-.3105.5625c0,.1367.043.2598.1289.3691.0859.1133.2207.207.4043.2812.1055.0391.416.1289.9316.2695.7461.1992,1.2666.3623,1.5615.4893s.5264.3115.6943.5537.252.543.252.9023c0,.3516-.1025.6826-.3076.9932s-.501.5508-.8877.7207-.8242.2549-1.3125.2549c-.8086,0-1.4248-.168-1.8486-.5039s-.6943-.834-.8115-1.4941Z"/><path d="m233.9668,20.8793v-8.5898h1.0547v3.082c.4922-.5703,1.1133-.8555,1.8633-.8555.4609,0,.8613.0908,1.2012.2725s.583.4326.7295.7529.2197.7852.2197,1.3945v3.9434h-1.0547v-3.9434c0-.5273-.1143-.9111-.3428-1.1514s-.5518-.3604-.9697-.3604c-.3125,0-.6064.0811-.8818.2432s-.4717.3818-.5889.6592-.1758.6602-.1758,1.1484v3.4043h-1.0547Z"/><path d="m244.9004,18.8754l1.0898.1348c-.1719.6367-.4902,1.1309-.9551,1.4824s-1.0586.5273-1.7812.5273c-.9102,0-1.6318-.2803-2.165-.8408s-.7998-1.3467-.7998-2.3584c0-1.0469.2695-1.8594.8086-2.4375s1.2383-.8672,2.0977-.8672c.832,0,1.5117.2832,2.0391.8496s.791,1.3633.791,2.3906c0,.0625-.002.1562-.0059.2812h-4.6406c.0391.6836.2324,1.207.5801,1.5703s.7812.5449,1.3008.5449c.3867,0,.7168-.1016.9902-.3047s.4902-.5273.6504-.9727Zm-3.4629-1.7051h3.4746c-.0469-.5234-.1797-.916-.3984-1.1777-.3359-.4062-.7715-.6094-1.3066-.6094-.4844,0-.8916.1621-1.2217.4863s-.5127.7578-.5479,1.3008Z"/><path d="m247.291,20.8793v-8.5898h1.0547v8.5898h-1.0547Z"/><path d="m251.709,20.8793l-2.3672-6.2227h1.1133l1.3359,3.7266c.1445.4023.2773.8203.3984,1.2539.0938-.3281.2246-.7227.3926-1.1836l1.3828-3.7969h1.084l-2.3555,6.2227h-.9844Z"/><path d="m260.2402,18.8754l1.0898.1348c-.1719.6367-.4902,1.1309-.9551,1.4824s-1.0586.5273-1.7812.5273c-.9102,0-1.6318-.2803-2.165-.8408s-.7998-1.3467-.7998-2.3584c0-1.0469.2695-1.8594.8086-2.4375s1.2383-.8672,2.0977-.8672c.832,0,1.5117.2832,2.0391.8496s.791,1.3633.791,2.3906c0,.0625-.002.1562-.0059.2812h-4.6406c.0391.6836.2324,1.207.5801,1.5703s.7812.5449,1.3008.5449c.3867,0,.7168-.1016.9902-.3047s.4902-.5273.6504-.9727Zm-3.4629-1.7051h3.4746c-.0469-.5234-.1797-.916-.3984-1.1777-.3359-.4062-.7715-.6094-1.3066-.6094-.4844,0-.8916.1621-1.2217.4863s-.5127.7578-.5479,1.3008Z"/><path d="m262.2324,19.0219l1.043-.1641c.0586.418.2217.7383.4893.9609s.6416.334,1.1221.334c.4844,0,.8438-.0986,1.0781-.2959s.3516-.4287.3516-.6943c0-.2383-.1035-.4258-.3105-.5625-.1445-.0938-.5039-.2129-1.0781-.3574-.7734-.1953-1.3096-.3643-1.6084-.5068s-.5254-.3398-.6797-.5918-.2314-.5303-.2314-.835c0-.2773.0635-.5342.1904-.7705s.2998-.4326.5186-.5889c.1641-.1211.3877-.2236.6709-.3076s.5869-.126.9111-.126c.4883,0,.917.0703,1.2861.2109s.6416.3311.8174.5713.2969.5615.3633.9639l-1.0312.1406c-.0469-.3203-.1826-.5703-.4072-.75s-.542-.2695-.9521-.2695c-.4844,0-.8301.0801-1.0371.2402s-.3105.3477-.3105.5625c0,.1367.043.2598.1289.3691.0859.1133.2207.207.4043.2812.1055.0391.416.1289.9316.2695.7461.1992,1.2666.3623,1.5615.4893s.5264.3115.6943.5537.252.543.252.9023c0,.3516-.1025.6826-.3076.9932s-.501.5508-.8877.7207-.8242.2549-1.3125.2549c-.8086,0-1.4248-.168-1.8486-.5039s-.6943-.834-.8115-1.4941Z"/><path d="m144.3506,35.2792v-8.5898h1.7109l2.0332,6.082c.1875.5664.3242.9902.4102,1.2715.0977-.3125.25-.7715.457-1.377l2.0566-5.9766h1.5293v8.5898h-1.0957v-7.1895l-2.4961,7.1895h-1.0254l-2.4844-7.3125v7.3125h-1.0957Z"/><path d="m158.3252,35.2792v-.9141c-.4844.7031-1.1426,1.0547-1.9746,1.0547-.3672,0-.71-.0703-1.0283-.2109s-.5547-.3174-.709-.5303-.2627-.4736-.3252-.7822c-.043-.207-.0645-.5352-.0645-.9844v-3.8555h1.0547v3.4512c0,.5508.0215.9219.0645,1.1133.0664.2773.207.4951.4219.6533s.4805.2373.7969.2373.6133-.0811.8906-.2432.4736-.3828.5889-.6621.1729-.6846.1729-1.2158v-3.334h1.0547v6.2227h-.9434Z"/><path d="m160.8975,35.2792v-8.5898h1.0547v8.5898h-1.0547Z"/><path d="m165.8896,34.3359l.1523.9316c-.2969.0625-.5625.0938-.7969.0938-.3828,0-.6797-.0605-.8906-.1816s-.3594-.2803-.4453-.4775-.1289-.6123-.1289-1.2451v-3.5801h-.7734v-.8203h.7734v-1.541l1.0488-.6328v2.1738h1.0605v.8203h-1.0605v3.6387c0,.3008.0186.4941.0557.5801s.0977.1543.1816.2051.2041.0762.3604.0762c.1172,0,.2715-.0137.4629-.041Z"/><path d="m166.9268,27.9023v-1.2129h1.0547v1.2129h-1.0547Zm0,7.377v-6.2227h1.0547v6.2227h-1.0547Z"/><path d="m169.5869,37.664v-8.6074h.9609v.8086c.2266-.3164.4824-.5537.7676-.7119s.6309-.2373,1.0371-.2373c.5312,0,1,.1367,1.4062.4102s.7129.6592.9199,1.1572.3105,1.0439.3105,1.6377c0,.6367-.1143,1.21-.3428,1.7197s-.5605.9004-.9961,1.1719-.8936.4072-1.374.4072c-.3516,0-.667-.0742-.9463-.2227s-.5088-.3359-.6885-.5625v3.0293h-1.0547Zm.9551-5.4609c0,.8008.1621,1.3926.4863,1.7754s.7168.5742,1.1777.5742c.4688,0,.8701-.1982,1.2041-.5947s.501-1.0107.501-1.8428c0-.793-.1631-1.3867-.4893-1.7812s-.7158-.5918-1.1689-.5918c-.4492,0-.8467.21-1.1924.6299s-.5186,1.0303-.5186,1.8311Z"/><path d="m180.3213,34.5117c-.3906.332-.7666.5664-1.1279.7031s-.749.2051-1.1631.2051c-.6836,0-1.209-.167-1.5762-.501s-.5508-.7607-.5508-1.2803c0-.3047.0693-.583.208-.835s.3203-.4541.5449-.6064.4775-.2676.7588-.3457c.207-.0547.5195-.1074.9375-.1582.8516-.1016,1.4785-.2227,1.8809-.3633.0039-.1445.0059-.2363.0059-.2754,0-.4297-.0996-.7324-.2988-.9082-.2695-.2383-.6699-.3574-1.2012-.3574-.4961,0-.8623.0869-1.0986.2607s-.4111.4814-.5244.9229l-1.0312-.1406c.0938-.4414.248-.7979.4629-1.0693s.5254-.4805.9316-.627.877-.2197,1.4121-.2197c.5312,0,.9629.0625,1.2949.1875s.5762.2822.7324.4717.2656.4287.3281.7178c.0352.1797.0527.5039.0527.9727v1.4062c0,.9805.0225,1.6006.0674,1.8604s.1338.5088.2666.7471h-1.1016c-.1094-.2188-.1797-.4746-.2109-.7676Zm-.0879-2.3555c-.3828.1562-.957.2891-1.7227.3984-.4336.0625-.7402.1328-.9199.2109s-.3184.1924-.416.3428-.1465.3174-.1465.501c0,.2812.1064.5156.3193.7031s.5244.2812.9346.2812c.4062,0,.7676-.0889,1.084-.2666s.5488-.4209.6973-.7295c.1133-.2383.1699-.5898.1699-1.0547v-.3867Z"/><path d="m185.2373,34.3359l.1523.9316c-.2969.0625-.5625.0938-.7969.0938-.3828,0-.6797-.0605-.8906-.1816s-.3594-.2803-.4453-.4775-.1289-.6123-.1289-1.2451v-3.5801h-.7734v-.8203h.7734v-1.541l1.0488-.6328v2.1738h1.0605v.8203h-1.0605v3.6387c0,.3008.0186.4941.0557.5801s.0977.1543.1816.2051.2041.0762.3604.0762c.1172,0,.2715-.0137.4629-.041Z"/><path d="m186.2686,35.2792v-8.5898h1.0547v3.082c.4922-.5703,1.1133-.8555,1.8633-.8555.4609,0,.8613.0908,1.2012.2725s.583.4326.7295.7529.2197.7852.2197,1.3945v3.9434h-1.0547v-3.9434c0-.5273-.1143-.9111-.3428-1.1514s-.5518-.3604-.9697-.3604c-.3125,0-.6064.0811-.8818.2432s-.4717.3818-.5889.6592-.1758.6602-.1758,1.1484v3.4043h-1.0547Z"/><path d="m196.4463,35.2792v-8.5898h1.1367v3.5273h4.4648v-3.5273h1.1367v8.5898h-1.1367v-4.0488h-4.4648v4.0488h-1.1367Z"/><path d="m204.1338,35.2792l3.2988-8.5898h1.2246l3.5156,8.5898h-1.2949l-1.002-2.6016h-3.5918l-.9434,2.6016h-1.207Zm2.4785-3.5273h2.9121l-.8965-2.3789c-.2734-.7227-.4766-1.3164-.6094-1.7812-.1094.5508-.2637,1.0977-.4629,1.6406l-.9434,2.5195Z"/><path d="m73.8066,68.9863l1.042.2632c-.2178.856-.6113,1.5083-1.1787,1.9575-.5674.4497-1.2617.6743-2.0811.6743-.8486,0-1.5391-.1729-2.0713-.5181-.5312-.3457-.9355-.8462-1.2139-1.5015-.2773-.6553-.416-1.3589-.416-2.1108,0-.8198.1572-1.5352.4697-2.1455.3135-.6108.7598-1.0742,1.3379-1.3916.5781-.3164,1.2148-.4751,1.9092-.4751.7881,0,1.4502.2007,1.9873.6016s.9111.9648,1.123,1.6919l-1.0264.2417c-.1826-.5728-.4473-.9902-.7949-1.2515-.3467-.2612-.7842-.3921-1.3105-.3921-.6045,0-1.1104.145-1.5176.4351-.4062.29-.6914.6797-.8564,1.168-.1641.4893-.2471.9932-.2471,1.5122,0,.6694.0977,1.2544.293,1.7534.1953.5.499.873.9102,1.1201.4121.2471.8574.3706,1.3379.3706.583,0,1.0771-.1685,1.4824-.5049.4043-.3364.6787-.8359.8213-1.4985Z"/><path d="m75.6494,68.895c0-1.0562.293-1.8389.8809-2.3472.4902-.4224,1.0879-.6338,1.7939-.6338.7842,0,1.4248.2568,1.9229.7705.4971.5142.7461,1.2241.7461,2.1299,0,.7339-.1094,1.3115-.3301,1.7324-.2197.4204-.541.7471-.9609.98-.4209.2329-.8809.3491-1.3779.3491-.7988,0-1.4443-.2559-1.9365-.7681s-.7383-1.2495-.7383-2.2129Zm.9932,0c0,.7305.1592,1.2773.4785,1.6411.3184.3633.7197.5449,1.2031.5449.4795,0,.8789-.1826,1.1973-.5479.3193-.3652.4785-.9219.4785-1.6704,0-.7056-.1602-1.2397-.4805-1.603-.3213-.3638-.7197-.5454-1.1953-.5454-.4834,0-.8848.1807-1.2031.5425-.3193.3618-.4785.9077-.4785,1.6382Z"/><path d="m82.1269,71.747v-5.7041h.8701v.811c.4189-.6265,1.0234-.9399,1.8154-.9399.3438,0,.6592.0615.9473.1855.2891.123.5049.2852.6475.4858.1436.2007.2441.4385.3008.7144.0361.1792.0537.4922.0537.9399v3.5073h-.9668v-3.4697c0-.394-.0371-.6885-.1123-.8838-.0752-.1948-.209-.3506-.4004-.4668-.1914-.1167-.416-.1748-.6738-.1748-.4121,0-.7676.1309-1.0664.3921s-.4482.7573-.4482,1.4878v3.1152h-.9668Z"/><path d="m90.3555,70.8823l.1396.854c-.2725.0571-.5156.0859-.7305.0859-.3516,0-.623-.0557-.8164-.1665s-.3301-.2568-.4082-.438c-.0791-.1807-.1182-.561-.1182-1.1411v-3.2817h-.709v-.752h.709v-1.4126l.9609-.5801v1.9927h.9727v.752h-.9727v3.3354c0,.2759.0176.4531.0518.5317.0332.0786.0889.1416.166.188s.1875.0698.3301.0698c.1074,0,.249-.0127.4248-.0376Z"/><path d="m91.29,71.747v-5.7041h.8701v.8647c.2217-.4048.4268-.6714.6143-.8003.1885-.1289.3955-.1934.6211-.1934.3252,0,.6572.104.9932.3115l-.333.897c-.2363-.1396-.4727-.2095-.709-.2095-.2109,0-.4004.0635-.5693.1904-.168.1274-.2881.3037-.3594.5293-.1074.3438-.1611.7197-.1611,1.1279v2.9863h-.9668Z"/><path d="m94.6035,68.895c0-1.0562.2939-1.8389.8809-2.3472.4912-.4224,1.0889-.6338,1.7939-.6338.7842,0,1.4258.2568,1.9229.7705.498.5142.7471,1.2241.7471,2.1299,0,.7339-.1104,1.3115-.3311,1.7324-.2197.4204-.54.7471-.9609.98s-.8799.3491-1.3779.3491c-.7979,0-1.4434-.2559-1.9365-.7681-.4922-.5122-.7383-1.2495-.7383-2.2129Zm.9941,0c0,.7305.1592,1.2773.4775,1.6411.3193.3633.7197.5449,1.2031.5449.4805,0,.8789-.1826,1.1982-.5479.3184-.3652.4775-.9219.4775-1.6704,0-.7056-.1602-1.2397-.4805-1.603-.3203-.3638-.7188-.5454-1.1953-.5454-.4834,0-.8838.1807-1.2031.5425-.3184.3618-.4775.9077-.4775,1.6382Z"/><path d="m101.0596,71.747v-7.874h.9668v7.874h-.9668Z"/><path d="m103.5039,71.747v-7.874h.9668v7.874h-.9668Z"/><path d="m109.874,69.9101l.999.1235c-.1582.5835-.4492,1.0366-.876,1.3589-.4258.3223-.9697.4834-1.6328.4834-.834,0-1.4951-.2568-1.9844-.7705-.4883-.5142-.7334-1.2349-.7334-2.1621,0-.9595.2471-1.7046.7412-2.2344s1.1357-.7949,1.9229-.7949c.7627,0,1.3857.2598,1.8691.7788s.7256,1.2495.7256,2.1914c0,.0571-.002.1431-.0059.2578h-4.2539c.0361.6265.2129,1.1064.5322,1.4395.3184.333.7158.4995,1.1924.4995.3545,0,.6572-.0933.9072-.2793.251-.186.4492-.4834.5967-.8916Zm-3.1748-1.563h3.1855c-.043-.48-.165-.8398-.3652-1.0796-.3086-.3726-.707-.5586-1.1982-.5586-.4434,0-.8174.1484-1.1191.4458-.3027.2974-.4707.6948-.5029,1.1924Z"/><path d="m112.0762,71.747v-5.7041h.8701v.8647c.2217-.4048.4268-.6714.6143-.8003.1885-.1289.3955-.1934.6211-.1934.3252,0,.6572.104.9932.3115l-.333.897c-.2363-.1396-.4727-.2095-.709-.2095-.2109,0-.4004.0635-.5693.1904-.168.1274-.2881.3037-.3594.5293-.1074.3438-.1611.7197-.1611,1.1279v2.9863h-.9668Z"/><path d="m122.1787,71.747h-.9668v-6.1606c-.2324.2222-.5381.4438-.915.666-.3779.2222-.7178.3887-1.0186.4995v-.9346c.541-.2544,1.0137-.562,1.418-.9238.4053-.3618.6914-.7124.8594-1.0527h.623v7.9062Z"/><path d="m237.2041,68.9863l1.042.2632c-.2188.856-.6113,1.5083-1.1787,1.9575-.5674.4497-1.2617.6743-2.0811.6743-.8496,0-1.5391-.1729-2.0713-.5181-.5312-.3457-.9365-.8462-1.2139-1.5015s-.416-1.3589-.416-2.1108c0-.8198.1562-1.5352.4697-2.1455.3135-.6108.7588-1.0742,1.3379-1.3916.5781-.3164,1.2139-.4751,1.9092-.4751.7871,0,1.4502.2007,1.9873.6016s.9111.9648,1.1221,1.6919l-1.0254.2417c-.1826-.5728-.4473-.9902-.7949-1.2515s-.7842-.3921-1.3105-.3921c-.6055,0-1.1113.145-1.5176.4351s-.6914.6797-.8564,1.168c-.165.4893-.2471.9932-.2471,1.5122,0,.6694.0977,1.2544.293,1.7534.1953.5.498.873.9102,1.1201s.8574.3706,1.3379.3706c.583,0,1.0771-.1685,1.4824-.5049.4043-.3364.6777-.8359.8213-1.4985Z"/><path d="m239.0469,68.895c0-1.0562.293-1.8389.8809-2.3472.4902-.4224,1.0879-.6338,1.793-.6338.7852,0,1.4258.2568,1.9238.7705.4971.5142.7461,1.2241.7461,2.1299,0,.7339-.1094,1.3115-.3301,1.7324-.2207.4204-.541.7471-.9609.98-.4219.2329-.8809.3491-1.3789.3491-.7979,0-1.4434-.2559-1.9355-.7681s-.7383-1.2495-.7383-2.2129Zm.9932,0c0,.7305.1592,1.2773.4775,1.6411.3193.3633.7207.5449,1.2031.5449.4805,0,.8789-.1826,1.1982-.5479s.4775-.9219.4775-1.6704c0-.7056-.1602-1.2397-.4805-1.603-.3203-.3638-.7188-.5454-1.1953-.5454-.4824,0-.8838.1807-1.2031.5425-.3184.3618-.4775.9077-.4775,1.6382Z"/><path d="m245.5234,71.747v-5.7041h.8711v.811c.418-.6265,1.0234-.9399,1.8145-.9399.3438,0,.6602.0615.9482.1855.2881.123.5049.2852.6475.4858s.2441.4385.3008.7144c.0352.1792.0537.4922.0537.9399v3.5073h-.9668v-3.4697c0-.394-.0381-.6885-.1123-.8838-.0762-.1948-.209-.3506-.4004-.4668-.1914-.1167-.416-.1748-.6738-.1748-.4121,0-.7676.1309-1.0664.3921s-.4492.7573-.4492,1.4878v3.1152h-.9668Z"/><path d="m253.7519,70.8823l.1406.854c-.2725.0571-.5156.0859-.7305.0859-.3516,0-.623-.0557-.8164-.1665s-.3301-.2568-.4082-.438c-.0791-.1807-.1191-.561-.1191-1.1411v-3.2817h-.709v-.752h.709v-1.4126l.9619-.5801v1.9927h.9717v.752h-.9717v3.3354c0,.2759.0166.4531.0518.5317.0332.0786.0889.1416.166.188.0762.0464.1875.0698.3301.0698.1074,0,.249-.0127.4238-.0376Z"/><path d="m254.6875,71.747v-5.7041h.8691v.8647c.2227-.4048.4277-.6714.6152-.8003.1885-.1289.3945-.1934.6211-.1934.3252,0,.6562.104.9932.3115l-.333.897c-.2363-.1396-.4727-.2095-.709-.2095-.2109,0-.4004.0635-.5693.1904-.1689.1274-.2881.3037-.3604.5293-.1074.3438-.1602.7197-.1602,1.1279v2.9863h-.9668Z"/><path d="m258.001,68.895c0-1.0562.2939-1.8389.8809-2.3472.4912-.4224,1.0889-.6338,1.7939-.6338.7842,0,1.4258.2568,1.9229.7705.4971.5142.7471,1.2241.7471,2.1299,0,.7339-.1104,1.3115-.3311,1.7324-.2197.4204-.54.7471-.9609.98s-.8799.3491-1.3779.3491c-.7988,0-1.4434-.2559-1.9365-.7681-.4922-.5122-.7383-1.2495-.7383-2.2129Zm.9932,0c0,.7305.1602,1.2773.4785,1.6411.3184.3633.7197.5449,1.2031.5449.4805,0,.8789-.1826,1.1973-.5479.3193-.3652.4785-.9219.4785-1.6704,0-.7056-.1602-1.2397-.4805-1.603-.3203-.3638-.7188-.5454-1.1953-.5454-.4834,0-.8848.1807-1.2031.5425s-.4785.9077-.4785,1.6382Z"/><path d="m264.457,71.747v-7.874h.9668v7.874h-.9668Z"/><path d="m266.9004,71.747v-7.874h.9668v7.874h-.9668Z"/><path d="m273.2715,69.9101l.998.1235c-.1572.5835-.4492,1.0366-.875,1.3589s-.9707.4834-1.6328.4834c-.834,0-1.4961-.2568-1.9844-.7705-.4883-.5142-.7334-1.2349-.7334-2.1621,0-.9595.2471-1.7046.7412-2.2344s1.1348-.7949,1.9229-.7949c.7627,0,1.3857.2598,1.8691.7788s.7256,1.2495.7256,2.1914c0,.0571-.002.1431-.0059.2578h-4.2539c.0352.6265.2129,1.1064.5312,1.4395.3193.333.7168.4995,1.1934.4995.3535,0,.6562-.0933.9072-.2793s.4492-.4834.5967-.8916Zm-3.1748-1.563h3.1846c-.043-.48-.1641-.8398-.3652-1.0796-.3076-.3726-.707-.5586-1.1973-.5586-.4434,0-.8174.1484-1.1191.4458-.3027.2974-.4707.6948-.5029,1.1924Z"/><path d="m275.4727,71.747v-5.7041h.8711v.8647c.2217-.4048.4268-.6714.6143-.8003.1885-.1289.3955-.1934.6201-.1934.3262,0,.6582.104.9941.3115l-.333.897c-.2363-.1396-.4727-.2095-.709-.2095-.2119,0-.4014.0635-.5693.1904-.168.1274-.2881.3037-.3594.5293-.1074.3438-.1621.7197-.1621,1.1279v2.9863h-.9668Z"/><path d="m287.0156,70.8178v.9292h-5.2051c-.0068-.2329.0312-.4565.1133-.6714.1328-.3545.3447-.7036.6367-1.0474.291-.3438.7129-.7412,1.2646-1.1924.8564-.7017,1.4346-1.2578,1.7354-1.668.3008-.4097.4512-.7974.4512-1.1626,0-.3833-.1367-.7065-.4121-.9692-.2734-.2637-.6309-.395-1.0703-.395-.4658,0-.8379.1396-1.1172.4189s-.4219.666-.4248,1.1602l-.9932-.1021c.0674-.7412.3242-1.3062.7676-1.6943.4434-.3887,1.04-.583,1.7891-.583.7549,0,1.3535.2095,1.793.6284.4414.4189.6611.938.6611,1.5576,0,.3149-.0645.625-.1934.9292s-.3428.625-.6416.9614-.7959.7983-1.4902,1.3857c-.5801.4868-.9531.8174-1.1172.9907-.165.1738-.3008.3486-.4082.5239h3.8613Z"/></svg>