<?xml version="1.0" encoding="UTF-8"?><svg id="uuid-9f5c55be-3f0e-4b4e-ade4-065d6667dc75" xmlns="http://www.w3.org/2000/svg" width="167.2167mm" height="48.664mm" viewBox="0 0 474 137.9453"><defs><style>.uuid-3ecc7743-429a-4294-80cb-8d4edbc25db6,.uuid-4343f2ad-b5b9-4641-92e8-29916642a3ce{stroke-width:.5px;}.uuid-3ecc7743-429a-4294-80cb-8d4edbc25db6,.uuid-4343f2ad-b5b9-4641-92e8-29916642a3ce,.uuid-1d8b8dd8-41f1-4e7b-85b0-1d488b8a40fc{stroke-miterlimit:10;}.uuid-3ecc7743-429a-4294-80cb-8d4edbc25db6,.uuid-1d8b8dd8-41f1-4e7b-85b0-1d488b8a40fc{fill:#fff;stroke:#000;}.uuid-4343f2ad-b5b9-4641-92e8-29916642a3ce{fill:#d0d3d4;stroke:#101820;}</style></defs><g><rect class="uuid-1d8b8dd8-41f1-4e7b-85b0-1d488b8a40fc" x="73.6028" y="84.7316" width="163.3972" height="44.5261"/><rect class="uuid-3ecc7743-429a-4294-80cb-8d4edbc25db6" x="82.2637" y="99.92" width="15.0943" height="15.0943"/><rect class="uuid-3ecc7743-429a-4294-80cb-8d4edbc25db6" x="110.9653" y="99.92" width="15.0943" height="15.0943"/><g><polygon points="134.2724 92.5062 129.6473 87.881 129.6473 90.3713 127.0068 90.3713 127.0068 94.6411 129.6473 94.6411 129.6473 97.1313 134.2724 92.5062"/><polygon points="117.8468 92.5062 122.4719 97.1313 122.4719 94.6411 125.1124 94.6411 125.1124 90.3713 122.4719 90.3713 122.4719 87.881 117.8468 92.5062"/></g><g><path d="m86.993,117.3065c.6934,0,1.2354.2471,1.626.7422.4658.5859.6982,1.5566.6982,2.9141,0,1.3545-.2344,2.3281-.7031,2.9199-.3867.4883-.9277.7324-1.6211.7324-.6963,0-1.2578-.2676-1.6846-.8027-.4258-.5352-.6396-1.4902-.6396-2.8633,0-1.3477.2344-2.3184.7031-2.9102.3877-.4883.9277-.7324,1.6211-.7324Zm0,1.1367c-.166,0-.3135.0527-.4443.1592-.1299.1064-.2305.2959-.3027.5693-.0938.3545-.1416.9512-.1416,1.791s.043,1.418.127,1.7314c.085.3135.1914.5234.3203.6279.1279.1035.2754.1562.4414.1562s.3145-.0527.4443-.1592c.1309-.1064.2314-.2959.3027-.5693.0947-.3516.1416-.9473.1416-1.7871s-.042-1.416-.127-1.7305c-.084-.3145-.1914-.5234-.3193-.6299-.1289-.1064-.2764-.1592-.4424-.1592Z"/><path d="m91.5536,120.8905l-1.2451-.2246c.1406-.502.3809-.873.7227-1.1133.3418-.2412.8496-.3613,1.5234-.3613.6123,0,1.0684.0723,1.3672.2168.2998.1445.5107.3281.6328.5518s.1826.6318.1826,1.2275l-.0146,1.6016c0,.4561.0225.793.0664,1.0088s.126.4482.2461.6963h-1.3574c-.0352-.0918-.0791-.2266-.1318-.4062-.0225-.0811-.0391-.1348-.0488-.1602-.2344.2275-.4844.3984-.752.5117-.2666.1143-.5518.1719-.8545.1719-.5332,0-.9541-.1455-1.2617-.4355-.3076-.2891-.4619-.6553-.4619-1.0977,0-.293.0703-.5547.21-.7842.1406-.2295.3359-.4053.5889-.5273.252-.1221.6162-.2285,1.0908-.3193.6416-.1211,1.0859-.2334,1.333-.3379v-.1367c0-.2637-.0645-.4512-.1953-.5635-.1299-.1123-.376-.1689-.7373-.1689-.2441,0-.4346.0488-.5713.1445s-.2471.2646-.332.5059Zm1.8359,1.1133c-.1758.0586-.4541.1279-.835.209-.3809.082-.6299.1621-.7471.2402-.1787.127-.2686.2871-.2686.4824,0,.1924.0723.3584.2148.498.1436.1406.3262.2109.5469.2109.248,0,.4834-.082.708-.2441.166-.124.2754-.2754.3271-.4551.0361-.1172.0537-.3398.0537-.668v-.2734Z"/></g><g><path d="m109.8065,117.3065c.6934,0,1.2354.2471,1.626.7422.4648.5859.6982,1.5566.6982,2.9141,0,1.3545-.2344,2.3281-.7031,2.9199-.3877.4883-.9277.7324-1.6211.7324-.6973,0-1.2588-.2676-1.6846-.8027-.4268-.5352-.6396-1.4902-.6396-2.8633,0-1.3477.2344-2.3184.7031-2.9102.3867-.4883.9277-.7324,1.6211-.7324Zm0,1.1367c-.166,0-.3145.0527-.4443.1592-.1309.1064-.2314.2959-.3027.5693-.0947.3545-.1416.9512-.1416,1.791s.042,1.418.127,1.7314c.084.3135.1914.5234.3193.6279.1289.1035.2764.1562.4424.1562s.3135-.0527.4443-.1592c.1299-.1064.2305-.2959.3027-.5693.0938-.3516.1416-.9473.1416-1.7871s-.043-1.416-.127-1.7305c-.085-.3145-.1914-.5234-.3203-.6299-.1279-.1064-.2754-.1592-.4414-.1592Z"/><path d="m113.2831,124.494v-7.1582h1.3721v2.5781c.4229-.4824.9238-.7227,1.5039-.7227.6309,0,1.1533.2285,1.5674.6855.4131.457.6201,1.1143.6201,1.9707,0,.8848-.2109,1.5664-.6328,2.0449-.4209.4785-.9336.7188-1.5352.7188-.2969,0-.5889-.0742-.877-.2227s-.5361-.3672-.7441-.6562v.7617h-1.2744Zm1.3623-2.7051c0,.5371.084.9336.2539,1.1914.2373.3643.5527.5469.9473.5469.3027,0,.5605-.1299.7734-.3887.2139-.2588.3203-.666.3203-1.2227,0-.5928-.1074-1.0195-.3223-1.2822s-.4902-.3936-.8252-.3936c-.3291,0-.6025.1289-.8203.3838-.2188.2549-.3271.6436-.3271,1.165Z"/><path d="m122.6678,124.494h-1.3721v-5.1719c-.502.4688-1.0928.8164-1.7725,1.041v-1.2461c.3574-.1172.7471-.3389,1.167-.666s.708-.709.8643-1.1445h1.1133v7.1875Z"/></g><rect class="uuid-4343f2ad-b5b9-4641-92e8-29916642a3ce" x="126.0596" y="99.92" width="15.0943" height="15.0943"/><g><path d="m131.2352,117.3065c.6934,0,1.2354.2471,1.626.7422.4658.5859.6982,1.5576.6982,2.915,0,1.3535-.2344,2.3271-.7031,2.9199-.3867.4883-.9277.7324-1.6211.7324-.6963,0-1.2578-.2676-1.6846-.8037-.4258-.5352-.6396-1.4902-.6396-2.8633,0-1.3477.2344-2.3184.7031-2.9102.3877-.4883.9277-.7324,1.6211-.7324Zm0,1.1377c-.166,0-.3135.0527-.4443.1582-.1299.1064-.2305.2959-.3027.5693-.0938.3545-.1416.9521-.1416,1.792s.043,1.417.127,1.7305c.085.3145.1914.5234.3203.6279.1279.1035.2754.1562.4414.1562s.3145-.0527.4443-.1592c.1309-.1055.2314-.2949.3027-.5684.0947-.3516.1416-.9473.1416-1.7871s-.042-1.417-.127-1.7314c-.084-.3135-.1914-.5234-.3193-.6299-.1289-.1055-.2764-.1582-.4424-.1582Z"/><path d="m134.7118,124.494v-7.1582h1.3721v2.5781c.4238-.4824.9248-.7227,1.5039-.7227.6318,0,1.1543.2285,1.5674.6855.4141.458.6201,1.1143.6201,1.9707,0,.8848-.2109,1.5674-.6318,2.0459-.4219.4785-.9336.7178-1.5361.7178-.2959,0-.5879-.0742-.876-.2227-.2881-.1475-.5361-.3672-.7451-.6562v.7617h-1.2744Zm1.3623-2.7051c0,.5371.085.9336.2539,1.1914.2383.3643.5537.5469.9473.5469.3027,0,.5605-.1299.7744-.3887.2129-.2588.3193-.666.3193-1.2227,0-.5928-.1074-1.0195-.3223-1.2822-.2148-.2617-.4893-.3926-.8252-.3926-.3281,0-.6016.1279-.8203.3828-.2178.2559-.3271.6436-.3271,1.165Z"/><path d="m145.2196,123.2196v1.2744h-4.8096c.0527-.4824.209-.9385.4688-1.3701.2607-.4307.7754-1.0029,1.543-1.7158.6191-.5762.998-.9668,1.1377-1.1719.1895-.2832.2832-.5635.2832-.8398,0-.3066-.082-.541-.2461-.7061-.165-.1641-.3916-.2461-.6816-.2461-.2861,0-.5137.0859-.6836.2588-.1689.1719-.2666.459-.293.8594l-1.3672-.1367c.082-.7559.3369-1.2979.7666-1.626.4297-.3291.9668-.4932,1.6113-.4932.707,0,1.2617.1904,1.665.5713.4043.3809.6055.8545.6055,1.4209,0,.3223-.0576.6289-.1729.9199-.1162.292-.2988.5967-.5498.916-.166.2109-.4648.5156-.8984.9131-.4326.3965-.707.6602-.8223.791-.1162.1299-.209.2568-.2812.3809h2.7246Z"/></g></g><g><rect class="uuid-1d8b8dd8-41f1-4e7b-85b0-1d488b8a40fc" x="237" y="84.7316" width="163.3972" height="44.5261"/><rect class="uuid-3ecc7743-429a-4294-80cb-8d4edbc25db6" x="245.6609" y="99.92" width="15.0943" height="15.0943"/><rect class="uuid-3ecc7743-429a-4294-80cb-8d4edbc25db6" x="274.3625" y="99.92" width="15.0943" height="15.0943"/><g><polygon points="297.6696 92.5062 293.0445 87.881 293.0445 90.3713 290.404 90.3713 290.404 94.6411 293.0445 94.6411 293.0445 97.1313 297.6696 92.5062"/><polygon points="281.2439 92.5062 285.8691 97.1313 285.8691 94.6411 288.5096 94.6411 288.5096 90.3713 285.8691 90.3713 285.8691 87.881 281.2439 92.5062"/></g><g><path d="m250.3905,117.3065c.6934,0,1.2354.2471,1.626.7422.4658.5859.6982,1.5566.6982,2.9141,0,1.3545-.2344,2.3281-.7031,2.9199-.3867.4883-.9277.7324-1.6211.7324-.6963,0-1.2578-.2676-1.6846-.8027-.4258-.5352-.6396-1.4902-.6396-2.8633,0-1.3477.2344-2.3184.7031-2.9102.3877-.4883.9277-.7324,1.6211-.7324Zm0,1.1367c-.166,0-.3135.0527-.4443.1592-.1299.1064-.2305.2959-.3027.5693-.0938.3545-.1416.9512-.1416,1.791s.043,1.418.127,1.7314c.085.3135.1914.5234.3203.6279.1279.1035.2754.1562.4414.1562s.3145-.0527.4443-.1592c.1309-.1064.2314-.2959.3027-.5693.0947-.3516.1416-.9473.1416-1.7871s-.042-1.416-.127-1.7305c-.084-.3145-.1914-.5234-.3193-.6299-.1289-.1064-.2764-.1592-.4424-.1592Z"/><path d="m254.9511,120.8905l-1.2451-.2246c.1406-.502.3809-.873.7227-1.1133.3418-.2412.8496-.3613,1.5234-.3613.6123,0,1.0684.0723,1.3672.2168.2998.1445.5107.3281.6328.5518s.1826.6318.1826,1.2275l-.0146,1.6016c0,.4561.0225.793.0664,1.0088s.126.4482.2461.6963h-1.3574c-.0352-.0918-.0791-.2266-.1318-.4062-.0225-.0811-.0391-.1348-.0488-.1602-.2344.2275-.4844.3984-.752.5117-.2666.1143-.5518.1719-.8545.1719-.5332,0-.9541-.1455-1.2617-.4355-.3076-.2891-.4619-.6553-.4619-1.0977,0-.293.0703-.5547.21-.7842.1406-.2295.3359-.4053.5889-.5273.252-.1221.6162-.2285,1.0908-.3193.6416-.1211,1.0859-.2334,1.333-.3379v-.1367c0-.2637-.0645-.4512-.1953-.5635-.1299-.1123-.376-.1689-.7373-.1689-.2441,0-.4346.0488-.5713.1445s-.2471.2646-.332.5059Zm1.8359,1.1133c-.1758.0586-.4541.1279-.835.209-.3809.082-.6299.1621-.7471.2402-.1787.127-.2686.2871-.2686.4824,0,.1924.0723.3584.2148.498.1436.1406.3262.2109.5469.2109.248,0,.4834-.082.708-.2441.166-.124.2754-.2754.3271-.4551.0361-.1172.0537-.3398.0537-.668v-.2734Z"/></g><g><path d="m273.203,117.3065c.6934,0,1.2354.2471,1.626.7422.4658.5859.6982,1.5566.6982,2.9141,0,1.3545-.2344,2.3281-.7031,2.9199-.3867.4883-.9277.7324-1.6211.7324-.6963,0-1.2578-.2676-1.6846-.8027-.4258-.5352-.6396-1.4902-.6396-2.8633,0-1.3477.2344-2.3184.7031-2.9102.3877-.4883.9277-.7324,1.6211-.7324Zm0,1.1367c-.166,0-.3135.0527-.4443.1592-.1299.1064-.2305.2959-.3027.5693-.0938.3545-.1416.9512-.1416,1.791s.043,1.418.127,1.7314c.085.3135.1914.5234.3203.6279.1279.1035.2754.1562.4414.1562s.3145-.0527.4443-.1592c.1309-.1064.2314-.2959.3027-.5693.0947-.3516.1416-.9473.1416-1.7871s-.042-1.416-.127-1.7305c-.084-.3145-.1914-.5234-.3193-.6299-.1289-.1064-.2764-.1592-.4424-.1592Z"/><path d="m276.6796,124.494v-7.1582h1.3721v2.5781c.4238-.4824.9248-.7227,1.5039-.7227.6318,0,1.1543.2285,1.5674.6855.4141.457.6201,1.1143.6201,1.9707,0,.8848-.2109,1.5664-.6318,2.0449-.4219.4785-.9336.7188-1.5361.7188-.2959,0-.5879-.0742-.876-.2227s-.5361-.3672-.7451-.6562v.7617h-1.2744Zm1.3623-2.7051c0,.5371.085.9336.2539,1.1914.2383.3643.5537.5469.9473.5469.3027,0,.5605-.1299.7744-.3887.2129-.2588.3193-.666.3193-1.2227,0-.5928-.1074-1.0195-.3223-1.2822s-.4893-.3936-.8252-.3936c-.3281,0-.6016.1289-.8203.3838-.2178.2549-.3271.6436-.3271,1.165Z"/><path d="m286.0643,124.494h-1.3721v-5.1719c-.501.4688-1.0918.8164-1.7725,1.041v-1.2461c.3584-.1172.7471-.3389,1.167-.666s.708-.709.8643-1.1445h1.1133v7.1875Z"/></g><rect class="uuid-4343f2ad-b5b9-4641-92e8-29916642a3ce" x="289.4568" y="99.92" width="15.0943" height="15.0943"/><g><path d="m294.6327,117.3065c.6934,0,1.2354.2471,1.626.7422.4648.5859.6982,1.5576.6982,2.915,0,1.3535-.2344,2.3271-.7031,2.9199-.3877.4883-.9277.7324-1.6211.7324-.6973,0-1.2588-.2676-1.6846-.8037-.4268-.5352-.6396-1.4902-.6396-2.8633,0-1.3477.2344-2.3184.7031-2.9102.3867-.4883.9277-.7324,1.6211-.7324Zm0,1.1377c-.166,0-.3145.0527-.4443.1582-.1309.1064-.2314.2959-.3027.5693-.0947.3545-.1416.9521-.1416,1.792s.042,1.417.127,1.7305c.084.3145.1914.5234.3193.6279.1289.1035.2764.1562.4424.1562s.3135-.0527.4443-.1592c.1299-.1055.2305-.2949.3027-.5684.0938-.3516.1416-.9473.1416-1.7871s-.043-1.417-.127-1.7314c-.085-.3135-.1914-.5234-.3203-.6299-.1279-.1055-.2754-.1582-.4414-.1582Z"/><path d="m298.1093,124.494v-7.1582h1.3721v2.5781c.4229-.4824.9238-.7227,1.5039-.7227.6309,0,1.1533.2285,1.5674.6855.4131.458.6201,1.1143.6201,1.9707,0,.8848-.2109,1.5674-.6328,2.0459-.4209.4785-.9336.7178-1.5352.7178-.2969,0-.5889-.0742-.877-.2227-.2881-.1475-.5361-.3672-.7441-.6562v.7617h-1.2744Zm1.3623-2.7051c0,.5371.084.9336.2539,1.1914.2373.3643.5527.5469.9473.5469.3027,0,.5605-.1299.7734-.3887.2139-.2588.3203-.666.3203-1.2227,0-.5928-.1074-1.0195-.3223-1.2822-.2148-.2617-.4902-.3926-.8252-.3926-.3291,0-.6025.1279-.8203.3828-.2188.2559-.3271.6436-.3271,1.165Z"/><path d="m308.6171,123.2196v1.2744h-4.8096c.0518-.4824.208-.9385.4688-1.3701.2598-.4307.7744-1.0029,1.543-1.7158.6182-.5762.9971-.9668,1.1377-1.1719.1885-.2832.2832-.5635.2832-.8398,0-.3066-.082-.541-.2471-.7061-.1641-.1641-.3916-.2461-.6807-.2461-.2871,0-.5146.0859-.6836.2588-.1699.1719-.2676.459-.293.8594l-1.3672-.1367c.0811-.7559.3369-1.2979.7666-1.626.4297-.3291.9668-.4932,1.6113-.4932.7061,0,1.2607.1904,1.665.5713.4033.3809.6055.8545.6055,1.4209,0,.3223-.0576.6289-.1738.9199-.1152.292-.2988.5967-.5488.916-.166.2109-.4658.5156-.8984.9131-.4336.3965-.707.6602-.8232.791-.1152.1299-.209.2568-.2803.3809h2.7246Z"/></g></g><g><path d="m147.6063,18.9862v-8.5898h5.7949v1.0137h-4.6582v2.6602h4.0312v1.0137h-4.0312v3.9023h-1.1367Z"/><path d="m153.2723,18.9862l3.2988-8.5898h1.2246l3.5156,8.5898h-1.2949l-1.002-2.6016h-3.5918l-.9434,2.6016h-1.207Zm2.4785-3.5273h2.9121l-.8965-2.3789c-.2734-.7227-.4766-1.3164-.6094-1.7812-.1094.5508-.2637,1.0977-.4629,1.6406l-.9434,2.5195Z"/><path d="m161.8329,16.2264l1.0723-.0938c.0508.4297.1689.7822.3545,1.0576s.4736.498.8643.668.8301.2549,1.3184.2549c.4336,0,.8164-.0645,1.1484-.1934s.5791-.3057.7412-.5303.2432-.4697.2432-.7354c0-.2695-.0781-.5049-.2344-.7061s-.4141-.3701-.7734-.5068c-.2305-.0898-.7402-.2295-1.5293-.4189s-1.3418-.3682-1.6582-.5361c-.4102-.2148-.7158-.4814-.917-.7998s-.3018-.6748-.3018-1.0693c0-.4336.123-.8389.3691-1.2158s.6055-.6631,1.0781-.8584.998-.293,1.5762-.293c.6367,0,1.1982.1025,1.6846.3076s.8604.5068,1.1221.9053.4023.8496.4219,1.3535l-1.0898.082c-.0586-.543-.2568-.9531-.5947-1.2305s-.8369-.416-1.4971-.416c-.6875,0-1.1885.126-1.5029.3779s-.4717.5557-.4717.9111c0,.3086.1113.5625.334.7617.2188.1992.79.4033,1.7139.6123s1.5576.3916,1.9014.5479c.5.2305.8691.5225,1.1074.876s.3574.7607.3574,1.2217c0,.457-.1309.8877-.3926,1.292s-.6377.7188-1.1279.9434-1.042.3369-1.6553.3369c-.7773,0-1.4287-.1133-1.9541-.3398s-.9375-.5674-1.2363-1.0225-.4561-.9697-.4717-1.5439Z"/><path d="m175.3387,17.9725v1.0137h-5.6777c-.0078-.2539.0332-.498.123-.7324.1445-.3867.376-.7676.6943-1.1426s.7783-.8086,1.3799-1.3008c.9336-.7656,1.5645-1.3721,1.8926-1.8193s.4922-.8701.4922-1.2686c0-.418-.1494-.7705-.4482-1.0576s-.6885-.4307-1.1689-.4307c-.5078,0-.9141.1523-1.2188.457s-.459.7266-.4629,1.2656l-1.084-.1113c.0742-.8086.3535-1.4248.8379-1.8486s1.1348-.6357,1.9512-.6357c.8242,0,1.4766.2285,1.957.6855s.7207,1.0234.7207,1.6992c0,.3438-.0703.6816-.2109,1.0137s-.374.6816-.7002,1.0488-.8682.8711-1.626,1.5117c-.6328.5312-1.0391.8916-1.2188,1.0811s-.3281.3799-.4453.5713h4.2129Z"/><path d="m178.0927,14.328c-.4375-.1602-.7617-.3887-.9727-.6855s-.3164-.6523-.3164-1.0664c0-.625.2246-1.1504.6738-1.5762s1.0469-.6387,1.793-.6387c.75,0,1.3535.2178,1.8105.6533s.6855.9658.6855,1.5908c0,.3984-.1045.7451-.3135,1.04s-.5264.5225-.9521.6826c.5273.1719.9287.4492,1.2041.832s.4131.8398.4131,1.3711c0,.7344-.2598,1.3516-.7793,1.8516s-1.2031.75-2.0508.75-1.5312-.251-2.0508-.7529-.7793-1.1279-.7793-1.8779c0-.5586.1416-1.0264.4248-1.4033s.6865-.6338,1.21-.7705Zm-.5508,2.1797c0,.3008.0713.5918.2139.873s.3545.499.6357.6533.584.2314.9082.2314c.5039,0,.9199-.1621,1.248-.4863s.4922-.7363.4922-1.2363c0-.5078-.1689-.9277-.5068-1.2598s-.7607-.498-1.2686-.498c-.4961,0-.9072.1641-1.2334.4922s-.4893.7383-.4893,1.2305Zm.3398-3.9668c0,.4062.1309.7383.3926.9961s.6016.3867,1.0195.3867c.4062,0,.7393-.1279.999-.3838s.3896-.5693.3896-.9404c0-.3867-.1338-.7119-.4014-.9756s-.6006-.3955-.999-.3955c-.4023,0-.7363.1289-1.002.3867s-.3984.5664-.3984.9258Z"/><path d="m183.1434,14.7499c0-1.0156.1045-1.833.3135-2.4521s.5195-1.0967.9316-1.4326.9307-.5039,1.5557-.5039c.4609,0,.8652.0928,1.2129.2783s.6348.4531.8613.8027.4043.7754.5332,1.2773.1934,1.1787.1934,2.0303c0,1.0078-.1035,1.8213-.3105,2.4404s-.5166,1.0977-.9287,1.4355-.9326.5068-1.5615.5068c-.8281,0-1.4785-.2969-1.9512-.8906-.5664-.7148-.8496-1.8789-.8496-3.4922Zm1.084,0c0,1.4102.165,2.3486.4951,2.8154s.7373.7002,1.2217.7002.8916-.2344,1.2217-.7031.4951-1.4062.4951-2.8125c0-1.4141-.165-2.3535-.4951-2.8184s-.7412-.6973-1.2334-.6973c-.4844,0-.8711.2051-1.1602.6152-.3633.5234-.5449,1.4902-.5449,2.9004Z"/><path d="m189.8173,14.7499c0-1.0156.1045-1.833.3135-2.4521s.5195-1.0967.9316-1.4326.9307-.5039,1.5557-.5039c.4609,0,.8652.0928,1.2129.2783s.6348.4531.8613.8027.4043.7754.5332,1.2773.1934,1.1787.1934,2.0303c0,1.0078-.1035,1.8213-.3105,2.4404s-.5166,1.0977-.9287,1.4355-.9326.5068-1.5615.5068c-.8281,0-1.4785-.2969-1.9512-.8906-.5664-.7148-.8496-1.8789-.8496-3.4922Zm1.084,0c0,1.4102.165,2.3486.4951,2.8154s.7373.7002,1.2217.7002.8916-.2344,1.2217-.7031.4951-1.4062.4951-2.8125c0-1.4141-.165-2.3535-.4951-2.8184s-.7412-.6973-1.2334-.6973c-.4844,0-.8711.2051-1.1602.6152-.3633.5234-.5449,1.4902-.5449,2.9004Z"/><path d="m201.2665,18.9862l-1.9043-6.2227h1.0898l.9902,3.5918.3691,1.3359c.0156-.0664.123-.4941.3223-1.2832l.9902-3.6445h1.084l.9316,3.6094.3105,1.1895.3574-1.2012,1.0664-3.5977h1.0254l-1.9453,6.2227h-1.0957l-.9902-3.7266-.2402-1.0605-1.2598,4.7871h-1.1016Z"/><path d="m208.7899,11.6093v-1.2129h1.0547v1.2129h-1.0547Zm0,7.377v-6.2227h1.0547v6.2227h-1.0547Z"/><path d="m213.7528,18.0429l.1523.9316c-.2969.0625-.5625.0938-.7969.0938-.3828,0-.6797-.0605-.8906-.1816s-.3594-.2803-.4453-.4775-.1289-.6123-.1289-1.2451v-3.5801h-.7734v-.8203h.7734v-1.541l1.0488-.6328v2.1738h1.0605v.8203h-1.0605v3.6387c0,.3008.0186.4941.0557.5801s.0977.1543.1816.2051.2041.0762.3604.0762c.1172,0,.2715-.0137.4629-.041Z"/><path d="m214.7841,18.9862v-8.5898h1.0547v3.082c.4922-.5703,1.1133-.8555,1.8633-.8555.4609,0,.8613.0908,1.2012.2725s.583.4326.7295.7529.2197.7852.2197,1.3945v3.9434h-1.0547v-3.9434c0-.5273-.1143-.9111-.3428-1.1514s-.5518-.3604-.9697-.3604c-.3125,0-.6064.0811-.8818.2432s-.4717.3818-.5889.6592-.1758.6602-.1758,1.1484v3.4043h-1.0547Z"/><path d="m224.7919,18.9862v-6.2227h.9492v.8848c.457-.6836,1.1172-1.0254,1.9805-1.0254.375,0,.7197.0674,1.0342.2021s.5498.3115.7061.5303.2656.4785.3281.7793c.0391.1953.0586.5371.0586,1.0254v3.8262h-1.0547v-3.7852c0-.4297-.041-.751-.123-.9639s-.2275-.3828-.4365-.5098-.4541-.1904-.7354-.1904c-.4492,0-.8369.1426-1.1631.4277s-.4893.8262-.4893,1.623v3.3984h-1.0547Z"/><path d="m231.0731,15.8749c0-1.1523.3203-2.0059.9609-2.5605.5352-.4609,1.1875-.6914,1.957-.6914.8555,0,1.5547.2803,2.0977.8408s.8145,1.335.8145,2.3232c0,.8008-.1201,1.4307-.3604,1.8896s-.5898.8154-1.0488,1.0693-.96.3809-1.5029.3809c-.8711,0-1.5752-.2793-2.1123-.8379s-.8057-1.3633-.8057-2.4141Zm1.084,0c0,.7969.1738,1.3936.5215,1.79s.7852.5947,1.3125.5947c.5234,0,.959-.1992,1.3066-.5977s.5215-1.0059.5215-1.8223c0-.7695-.1748-1.3525-.5244-1.749s-.7842-.5947-1.3037-.5947c-.5273,0-.9648.1973-1.3125.5918s-.5215.9902-.5215,1.7871Z"/><path d="m245.7333,16.9823l1.0898.1348c-.1719.6367-.4902,1.1309-.9551,1.4824s-1.0586.5273-1.7812.5273c-.9102,0-1.6318-.2803-2.165-.8408s-.7998-1.3467-.7998-2.3584c0-1.0469.2695-1.8594.8086-2.4375s1.2383-.8672,2.0977-.8672c.832,0,1.5117.2832,2.0391.8496s.791,1.3633.791,2.3906c0,.0625-.002.1562-.0059.2812h-4.6406c.0391.6836.2324,1.207.5801,1.5703s.7812.5449,1.3008.5449c.3867,0,.7168-.1016.9902-.3047s.4902-.5273.6504-.9727Zm-3.4629-1.7051h3.4746c-.0469-.5234-.1797-.916-.3984-1.1777-.3359-.4062-.7715-.6094-1.3066-.6094-.4844,0-.8916.1621-1.2217.4863s-.5127.7578-.5479,1.3008Z"/><path d="m247.4442,18.9862l2.2734-3.2344-2.1035-2.9883h1.3184l.9551,1.459c.1797.2773.3242.5098.4336.6973.1719-.2578.3301-.4863.4746-.6855l1.0488-1.4707h1.2598l-2.1504,2.9297,2.3145,3.293h-1.2949l-1.2773-1.9336-.3398-.5215-1.6348,2.4551h-1.2773Z"/><path d="m256.4501,18.0429l.1523.9316c-.2969.0625-.5625.0938-.7969.0938-.3828,0-.6797-.0605-.8906-.1816s-.3594-.2803-.4453-.4775-.1289-.6123-.1289-1.2451v-3.5801h-.7734v-.8203h.7734v-1.541l1.0488-.6328v2.1738h1.0605v.8203h-1.0605v3.6387c0,.3008.0186.4941.0557.5801s.0977.1543.1816.2051.2041.0762.3604.0762c.1172,0,.2715-.0137.4629-.041Z"/><path d="m261.7411,16.9823l1.0898.1348c-.1719.6367-.4902,1.1309-.9551,1.4824s-1.0586.5273-1.7812.5273c-.9102,0-1.6318-.2803-2.165-.8408s-.7998-1.3467-.7998-2.3584c0-1.0469.2695-1.8594.8086-2.4375s1.2383-.8672,2.0977-.8672c.832,0,1.5117.2832,2.0391.8496s.791,1.3633.791,2.3906c0,.0625-.002.1562-.0059.2812h-4.6406c.0391.6836.2324,1.207.5801,1.5703s.7812.5449,1.3008.5449c.3867,0,.7168-.1016.9902-.3047s.4902-.5273.6504-.9727Zm-3.4629-1.7051h3.4746c-.0469-.5234-.1797-.916-.3984-1.1777-.3359-.4062-.7715-.6094-1.3066-.6094-.4844,0-.8916.1621-1.2217.4863s-.5127.7578-.5479,1.3008Z"/><path d="m264.1434,18.9862v-6.2227h.9492v.9434c.2422-.4414.4658-.7324.6709-.873s.4307-.2109.6768-.2109c.3555,0,.7168.1133,1.084.3398l-.3633.9785c-.2578-.1523-.5156-.2285-.7734-.2285-.2305,0-.4375.0693-.6211.208s-.3145.3311-.3926.5771c-.1172.375-.1758.7852-.1758,1.2305v3.2578h-1.0547Z"/><path d="m268.1512,18.9862v-6.2227h.9492v.8848c.457-.6836,1.1172-1.0254,1.9805-1.0254.375,0,.7197.0674,1.0342.2021s.5498.3115.7061.5303.2656.4785.3281.7793c.0391.1953.0586.5371.0586,1.0254v3.8262h-1.0547v-3.7852c0-.4297-.041-.751-.123-.9639s-.2275-.3828-.4365-.5098-.4541-.1904-.7354-.1904c-.4492,0-.8369.1426-1.1631.4277s-.4893.8262-.4893,1.623v3.3984h-1.0547Z"/><path d="m278.8856,18.2186c-.3906.332-.7666.5664-1.1279.7031s-.749.2051-1.1631.2051c-.6836,0-1.209-.167-1.5762-.501s-.5508-.7607-.5508-1.2803c0-.3047.0693-.583.208-.835s.3203-.4541.5449-.6064.4775-.2676.7588-.3457c.207-.0547.5195-.1074.9375-.1582.8516-.1016,1.4785-.2227,1.8809-.3633.0039-.1445.0059-.2363.0059-.2754,0-.4297-.0996-.7324-.2988-.9082-.2695-.2383-.6699-.3574-1.2012-.3574-.4961,0-.8623.0869-1.0986.2607s-.4111.4814-.5244.9229l-1.0312-.1406c.0938-.4414.248-.7979.4629-1.0693s.5254-.4805.9316-.627.877-.2197,1.4121-.2197c.5312,0,.9629.0625,1.2949.1875s.5762.2822.7324.4717.2656.4287.3281.7178c.0352.1797.0527.5039.0527.9727v1.4062c0,.9805.0225,1.6006.0674,1.8604s.1338.5088.2666.7471h-1.1016c-.1094-.2188-.1797-.4746-.2109-.7676Zm-.0879-2.3555c-.3828.1562-.957.2891-1.7227.3984-.4336.0625-.7402.1328-.9199.2109s-.3184.1924-.416.3428-.1465.3174-.1465.501c0,.2812.1064.5156.3193.7031s.5244.2812.9346.2812c.4062,0,.7676-.0889,1.084-.2666s.5488-.4209.6973-.7295c.1133-.2383.1699-.5898.1699-1.0547v-.3867Z"/><path d="m281.4755,18.9862v-8.5898h1.0547v8.5898h-1.0547Z"/><path d="m287.077,17.1288l1.043-.1641c.0586.418.2217.7383.4893.9609s.6416.334,1.1221.334c.4844,0,.8438-.0986,1.0781-.2959s.3516-.4287.3516-.6943c0-.2383-.1035-.4258-.3105-.5625-.1445-.0938-.5039-.2129-1.0781-.3574-.7734-.1953-1.3096-.3643-1.6084-.5068s-.5254-.3398-.6797-.5918-.2314-.5303-.2314-.835c0-.2773.0635-.5342.1904-.7705s.2998-.4326.5186-.5889c.1641-.1211.3877-.2236.6709-.3076s.5869-.126.9111-.126c.4883,0,.917.0703,1.2861.2109s.6416.3311.8174.5713.2969.5615.3633.9639l-1.0312.1406c-.0469-.3203-.1826-.5703-.4072-.75s-.542-.2695-.9521-.2695c-.4844,0-.8301.0801-1.0371.2402s-.3105.3477-.3105.5625c0,.1367.043.2598.1289.3691.0859.1133.2207.207.4043.2812.1055.0391.416.1289.9316.2695.7461.1992,1.2666.3623,1.5615.4893s.5264.3115.6943.5537.252.543.252.9023c0,.3516-.1025.6826-.3076.9932s-.501.5508-.8877.7207-.8242.2549-1.3125.2549c-.8086,0-1.4248-.168-1.8486-.5039s-.6943-.834-.8115-1.4941Z"/><path d="m293.4989,18.9862v-8.5898h1.0547v3.082c.4922-.5703,1.1133-.8555,1.8633-.8555.4609,0,.8613.0908,1.2012.2725s.583.4326.7295.7529.2197.7852.2197,1.3945v3.9434h-1.0547v-3.9434c0-.5273-.1143-.9111-.3428-1.1514s-.5518-.3604-.9697-.3604c-.3125,0-.6064.0811-.8818.2432s-.4717.3818-.5889.6592-.1758.6602-.1758,1.1484v3.4043h-1.0547Z"/><path d="m304.4325,16.9823l1.0898.1348c-.1719.6367-.4902,1.1309-.9551,1.4824s-1.0586.5273-1.7812.5273c-.9102,0-1.6318-.2803-2.165-.8408s-.7998-1.3467-.7998-2.3584c0-1.0469.2695-1.8594.8086-2.4375s1.2383-.8672,2.0977-.8672c.832,0,1.5117.2832,2.0391.8496s.791,1.3633.791,2.3906c0,.0625-.002.1562-.0059.2812h-4.6406c.0391.6836.2324,1.207.5801,1.5703s.7812.5449,1.3008.5449c.3867,0,.7168-.1016.9902-.3047s.4902-.5273.6504-.9727Zm-3.4629-1.7051h3.4746c-.0469-.5234-.1797-.916-.3984-1.1777-.3359-.4062-.7715-.6094-1.3066-.6094-.4844,0-.8916.1621-1.2217.4863s-.5127.7578-.5479,1.3008Z"/><path d="m306.8231,18.9862v-8.5898h1.0547v8.5898h-1.0547Z"/><path d="m311.2411,18.9862l-2.3672-6.2227h1.1133l1.3359,3.7266c.1445.4023.2773.8203.3984,1.2539.0938-.3281.2246-.7227.3926-1.1836l1.3828-3.7969h1.084l-2.3555,6.2227h-.9844Z"/><path d="m319.7723,16.9823l1.0898.1348c-.1719.6367-.4902,1.1309-.9551,1.4824s-1.0586.5273-1.7812.5273c-.9102,0-1.6318-.2803-2.165-.8408s-.7998-1.3467-.7998-2.3584c0-1.0469.2695-1.8594.8086-2.4375s1.2383-.8672,2.0977-.8672c.832,0,1.5117.2832,2.0391.8496s.791,1.3633.791,2.3906c0,.0625-.002.1562-.0059.2812h-4.6406c.0391.6836.2324,1.207.5801,1.5703s.7812.5449,1.3008.5449c.3867,0,.7168-.1016.9902-.3047s.4902-.5273.6504-.9727Zm-3.4629-1.7051h3.4746c-.0469-.5234-.1797-.916-.3984-1.1777-.3359-.4062-.7715-.6094-1.3066-.6094-.4844,0-.8916.1621-1.2217.4863s-.5127.7578-.5479,1.3008Z"/><path d="m321.7645,17.1288l1.043-.1641c.0586.418.2217.7383.4893.9609s.6416.334,1.1221.334c.4844,0,.8438-.0986,1.0781-.2959s.3516-.4287.3516-.6943c0-.2383-.1035-.4258-.3105-.5625-.1445-.0938-.5039-.2129-1.0781-.3574-.7734-.1953-1.3096-.3643-1.6084-.5068s-.5254-.3398-.6797-.5918-.2314-.5303-.2314-.835c0-.2773.0635-.5342.1904-.7705s.2998-.4326.5186-.5889c.1641-.1211.3877-.2236.6709-.3076s.5869-.126.9111-.126c.4883,0,.917.0703,1.2861.2109s.6416.3311.8174.5713.2969.5615.3633.9639l-1.0312.1406c-.0469-.3203-.1826-.5703-.4072-.75s-.542-.2695-.9521-.2695c-.4844,0-.8301.0801-1.0371.2402s-.3105.3477-.3105.5625c0,.1367.043.2598.1289.3691.0859.1133.2207.207.4043.2812.1055.0391.416.1289.9316.2695.7461.1992,1.2666.3623,1.5615.4893s.5264.3115.6943.5537.252.543.252.9023c0,.3516-.1025.6826-.3076.9932s-.501.5508-.8877.7207-.8242.2549-1.3125.2549c-.8086,0-1.4248-.168-1.8486-.5039s-.6943-.834-.8115-1.4941Z"/><path d="m203.8827,33.3856v-8.5898h1.7109l2.0332,6.082c.1875.5664.3242.9902.4102,1.2715.0977-.3125.25-.7715.457-1.377l2.0566-5.9766h1.5293v8.5898h-1.0957v-7.1895l-2.4961,7.1895h-1.0254l-2.4844-7.3125v7.3125h-1.0957Z"/><path d="m217.8573,33.3856v-.9141c-.4844.7031-1.1426,1.0547-1.9746,1.0547-.3672,0-.71-.0703-1.0283-.2109s-.5547-.3174-.709-.5303-.2627-.4736-.3252-.7822c-.043-.207-.0645-.5352-.0645-.9844v-3.8555h1.0547v3.4512c0,.5508.0215.9219.0645,1.1133.0664.2773.207.4951.4219.6533s.4805.2373.7969.2373.6133-.0811.8906-.2432.4736-.3828.5889-.6621.1729-.6846.1729-1.2158v-3.334h1.0547v6.2227h-.9434Z"/><path d="m220.4296,33.3856v-8.5898h1.0547v8.5898h-1.0547Z"/><path d="m225.4218,32.4423l.1523.9316c-.2969.0625-.5625.0938-.7969.0938-.3828,0-.6797-.0605-.8906-.1816s-.3594-.2803-.4453-.4775-.1289-.6123-.1289-1.2451v-3.5801h-.7734v-.8203h.7734v-1.541l1.0488-.6328v2.1738h1.0605v.8203h-1.0605v3.6387c0,.3008.0186.4941.0557.5801s.0977.1543.1816.2051.2041.0762.3604.0762c.1172,0,.2715-.0137.4629-.041Z"/><path d="m226.4589,26.0087v-1.2129h1.0547v1.2129h-1.0547Zm0,7.377v-6.2227h1.0547v6.2227h-1.0547Z"/><path d="m229.119,35.7704v-8.6074h.9609v.8086c.2266-.3164.4824-.5537.7676-.7119s.6309-.2373,1.0371-.2373c.5312,0,1,.1367,1.4062.4102s.7129.6592.9199,1.1572.3105,1.0439.3105,1.6377c0,.6367-.1143,1.21-.3428,1.7197s-.5605.9004-.9961,1.1719-.8936.4072-1.374.4072c-.3516,0-.667-.0742-.9463-.2227s-.5088-.3359-.6885-.5625v3.0293h-1.0547Zm.9551-5.4609c0,.8008.1621,1.3926.4863,1.7754s.7168.5742,1.1777.5742c.4688,0,.8701-.1982,1.2041-.5947s.501-1.0107.501-1.8428c0-.793-.1631-1.3867-.4893-1.7812s-.7158-.5918-1.1689-.5918c-.4492,0-.8467.21-1.1924.6299s-.5186,1.0303-.5186,1.8311Z"/><path d="m239.8534,32.618c-.3906.332-.7666.5664-1.1279.7031s-.749.2051-1.1631.2051c-.6836,0-1.209-.167-1.5762-.501s-.5508-.7607-.5508-1.2803c0-.3047.0693-.583.208-.835s.3203-.4541.5449-.6064.4775-.2676.7588-.3457c.207-.0547.5195-.1074.9375-.1582.8516-.1016,1.4785-.2227,1.8809-.3633.0039-.1445.0059-.2363.0059-.2754,0-.4297-.0996-.7324-.2988-.9082-.2695-.2383-.6699-.3574-1.2012-.3574-.4961,0-.8623.0869-1.0986.2607s-.4111.4814-.5244.9229l-1.0312-.1406c.0938-.4414.248-.7979.4629-1.0693s.5254-.4805.9316-.627.877-.2197,1.4121-.2197c.5312,0,.9629.0625,1.2949.1875s.5762.2822.7324.4717.2656.4287.3281.7178c.0352.1797.0527.5039.0527.9727v1.4062c0,.9805.0225,1.6006.0674,1.8604s.1338.5088.2666.7471h-1.1016c-.1094-.2188-.1797-.4746-.2109-.7676Zm-.0879-2.3555c-.3828.1562-.957.2891-1.7227.3984-.4336.0625-.7402.1328-.9199.2109s-.3184.1924-.416.3428-.1465.3174-.1465.501c0,.2812.1064.5156.3193.7031s.5244.2812.9346.2812c.4062,0,.7676-.0889,1.084-.2666s.5488-.4209.6973-.7295c.1133-.2383.1699-.5898.1699-1.0547v-.3867Z"/><path d="m244.7694,32.4423l.1523.9316c-.2969.0625-.5625.0938-.7969.0938-.3828,0-.6797-.0605-.8906-.1816s-.3594-.2803-.4453-.4775-.1289-.6123-.1289-1.2451v-3.5801h-.7734v-.8203h.7734v-1.541l1.0488-.6328v2.1738h1.0605v.8203h-1.0605v3.6387c0,.3008.0186.4941.0557.5801s.0977.1543.1816.2051.2041.0762.3604.0762c.1172,0,.2715-.0137.4629-.041Z"/><path d="m245.8007,33.3856v-8.5898h1.0547v3.082c.4922-.5703,1.1133-.8555,1.8633-.8555.4609,0,.8613.0908,1.2012.2725s.583.4326.7295.7529.2197.7852.2197,1.3945v3.9434h-1.0547v-3.9434c0-.5273-.1143-.9111-.3428-1.1514s-.5518-.3604-.9697-.3604c-.3125,0-.6064.0811-.8818.2432s-.4717.3818-.5889.6592-.1758.6602-.1758,1.1484v3.4043h-1.0547Z"/><path d="m255.9784,33.3856v-8.5898h1.1367v3.5273h4.4648v-3.5273h1.1367v8.5898h-1.1367v-4.0488h-4.4648v4.0488h-1.1367Z"/><path d="m263.6659,33.3856l3.2988-8.5898h1.2246l3.5156,8.5898h-1.2949l-1.002-2.6016h-3.5918l-.9434,2.6016h-1.207Zm2.4785-3.5273h2.9121l-.8965-2.3789c-.2734-.7227-.4766-1.3164-.6094-1.7812-.1094.5508-.2637,1.0977-.4629,1.6406l-.9434,2.5195Z"/></g><g><path d="m133.3387,67.0927l1.042.2637c-.2178.8555-.6113,1.5078-1.1787,1.957-.5674.4502-1.2617.6748-2.0811.6748-.8486,0-1.5391-.1729-2.0713-.5186-.5312-.3457-.9355-.8457-1.2139-1.501-.2773-.6553-.416-1.3594-.416-2.1113,0-.8193.1572-1.5352.4697-2.1455.3135-.6104.7598-1.0742,1.3379-1.3916.5781-.3164,1.2148-.4746,1.9092-.4746.7881,0,1.4502.2002,1.9873.6016.5371.4004.9111.9648,1.123,1.6914l-1.0264.2422c-.1826-.5732-.4473-.9902-.7949-1.252-.3467-.2607-.7842-.3916-1.3105-.3916-.6045,0-1.1104.1445-1.5176.4346-.4062.29-.6914.6797-.8564,1.168-.1641.4893-.2471.9932-.2471,1.5127,0,.6689.0977,1.2539.293,1.7529.1953.5.499.873.9102,1.1201.4121.2471.8574.3711,1.3379.3711.583,0,1.0771-.1689,1.4824-.5049.4043-.3369.6787-.8359.8213-1.499Z"/><path d="m135.1815,67.0018c0-1.0566.293-1.8389.8809-2.3477.4902-.4219,1.0879-.6338,1.7939-.6338.7842,0,1.4248.2568,1.9229.7705.4971.5146.7461,1.2246.7461,2.1299,0,.7344-.1094,1.3115-.3301,1.7324-.2197.4209-.541.7471-.9609.9805-.4209.2324-.8809.3486-1.3779.3486-.7988,0-1.4443-.2559-1.9365-.7676-.4922-.5127-.7383-1.25-.7383-2.2129Zm.9932,0c0,.7305.1592,1.2773.4785,1.6406.3184.3633.7197.5449,1.2031.5449.4795,0,.8789-.1826,1.1973-.5479.3193-.3652.4785-.9219.4785-1.6699,0-.7061-.1602-1.2402-.4805-1.6035-.3213-.3633-.7197-.5449-1.1953-.5449-.4834,0-.8848.1807-1.2031.542-.3193.3623-.4785.9082-.4785,1.6387Z"/><path d="m141.6591,69.8534v-5.7041h.8701v.8115c.4189-.627,1.0234-.9404,1.8154-.9404.3438,0,.6592.0615.9473.1855.2891.123.5049.2852.6475.4863.1436.2002.2441.4385.3008.7139.0361.1797.0537.4922.0537.9404v3.5068h-.9668v-3.4697c0-.3936-.0371-.6885-.1123-.8838-.0752-.1943-.209-.3506-.4004-.4668s-.416-.1748-.6738-.1748c-.4121,0-.7676.1309-1.0664.3926-.2988.2607-.4482.7568-.4482,1.4873v3.1152h-.9668Z"/><path d="m149.8876,68.9891l.1396.8535c-.2725.0576-.5156.0859-.7305.0859-.3516,0-.623-.0557-.8164-.166-.1934-.1113-.3301-.2568-.4082-.4385-.0791-.1807-.1182-.5605-.1182-1.1406v-3.2822h-.709v-.752h.709v-1.4121l.9609-.5801v1.9922h.9727v.752h-.9727v3.3359c0,.2754.0176.4531.0518.5312.0332.0791.0889.1416.166.1885.0771.0459.1875.0693.3301.0693.1074,0,.249-.0127.4248-.0371Z"/><path d="m150.8221,69.8534v-5.7041h.8701v.8652c.2217-.4053.4268-.6719.6143-.8008.1885-.1289.3955-.1934.6211-.1934.3252,0,.6572.1045.9932.3115l-.333.8975c-.2363-.1396-.4727-.21-.709-.21-.2109,0-.4004.0635-.5693.1904-.168.1279-.2881.3037-.3594.5293-.1074.3438-.1611.7197-.1611,1.1279v2.9863h-.9668Z"/><path d="m154.1356,67.0018c0-1.0566.2939-1.8389.8809-2.3477.4912-.4219,1.0889-.6338,1.7939-.6338.7842,0,1.4258.2568,1.9229.7705.498.5146.7471,1.2246.7471,2.1299,0,.7344-.1104,1.3115-.3311,1.7324-.2197.4209-.54.7471-.9609.9805-.4209.2324-.8799.3486-1.3779.3486-.7979,0-1.4434-.2559-1.9365-.7676-.4922-.5127-.7383-1.25-.7383-2.2129Zm.9941,0c0,.7305.1592,1.2773.4775,1.6406.3193.3633.7197.5449,1.2031.5449.4805,0,.8789-.1826,1.1982-.5479.3184-.3652.4775-.9219.4775-1.6699,0-.7061-.1602-1.2402-.4805-1.6035s-.7188-.5449-1.1953-.5449c-.4834,0-.8838.1807-1.2031.542-.3184.3623-.4775.9082-.4775,1.6387Z"/><path d="m160.5917,69.8534v-7.874h.9668v7.874h-.9668Z"/><path d="m163.036,69.8534v-7.874h.9668v7.874h-.9668Z"/><path d="m169.4061,68.0165l.999.124c-.1582.583-.4492,1.0361-.876,1.3584-.4258.3223-.9697.4834-1.6328.4834-.834,0-1.4951-.2568-1.9844-.7705-.4883-.5137-.7334-1.2344-.7334-2.1621,0-.959.2471-1.7041.7412-2.2344.4941-.5293,1.1357-.7949,1.9229-.7949.7627,0,1.3857.2598,1.8691.7793.4834.5186.7256,1.249.7256,2.1914,0,.0566-.002.1426-.0059.2578h-4.2539c.0361.626.2129,1.1064.5322,1.4395.3184.333.7158.499,1.1924.499.3545,0,.6572-.0928.9072-.2793.251-.1855.4492-.4834.5967-.8916Zm-3.1748-1.5625h3.1855c-.043-.4805-.165-.8398-.3652-1.0801-.3086-.3721-.707-.5586-1.1982-.5586-.4434,0-.8174.1484-1.1191.4463-.3027.2969-.4707.6943-.5029,1.1924Z"/><path d="m171.6083,69.8534v-5.7041h.8701v.8652c.2217-.4053.4268-.6719.6143-.8008.1885-.1289.3955-.1934.6211-.1934.3252,0,.6572.1045.9932.3115l-.333.8975c-.2363-.1396-.4727-.21-.709-.21-.2109,0-.4004.0635-.5693.1904-.168.1279-.2881.3037-.3594.5293-.1074.3438-.1611.7197-.1611,1.1279v2.9863h-.9668Z"/><path d="m181.7108,69.8534h-.9668v-6.1602c-.2324.2217-.5381.4434-.915.666-.3779.2217-.7178.3887-1.0186.499v-.9346c.541-.2539,1.0137-.5615,1.418-.9238.4053-.3613.6914-.7119.8594-1.0527h.623v7.9062Z"/></g><g><path d="m296.7362,67.0927l1.042.2637c-.2188.8555-.6113,1.5078-1.1787,1.957-.5674.4502-1.2617.6748-2.0811.6748-.8496,0-1.5391-.1729-2.0713-.5186-.5312-.3457-.9365-.8457-1.2139-1.501s-.416-1.3594-.416-2.1113c0-.8193.1562-1.5352.4697-2.1455s.7588-1.0742,1.3379-1.3916c.5781-.3164,1.2139-.4746,1.9092-.4746.7871,0,1.4502.2002,1.9873.6016.5371.4004.9111.9648,1.1221,1.6914l-1.0254.2422c-.1826-.5732-.4473-.9902-.7949-1.252-.3477-.2607-.7842-.3916-1.3105-.3916-.6055,0-1.1113.1445-1.5176.4346s-.6914.6797-.8564,1.168c-.165.4893-.2471.9932-.2471,1.5127,0,.6689.0977,1.2539.293,1.7529.1953.5.498.873.9102,1.1201s.8574.3711,1.3379.3711c.583,0,1.0771-.1689,1.4824-.5049.4043-.3369.6777-.8359.8213-1.499Z"/><path d="m298.579,67.0018c0-1.0566.293-1.8389.8809-2.3477.4902-.4219,1.0879-.6338,1.793-.6338.7852,0,1.4258.2568,1.9238.7705.4971.5146.7461,1.2246.7461,2.1299,0,.7344-.1094,1.3115-.3301,1.7324s-.541.7471-.9609.9805c-.4219.2324-.8809.3486-1.3789.3486-.7979,0-1.4434-.2559-1.9355-.7676-.4922-.5127-.7383-1.25-.7383-2.2129Zm.9932,0c0,.7305.1592,1.2773.4775,1.6406.3193.3633.7207.5449,1.2031.5449.4805,0,.8789-.1826,1.1982-.5479s.4775-.9219.4775-1.6699c0-.7061-.1602-1.2402-.4805-1.6035s-.7188-.5449-1.1953-.5449c-.4824,0-.8838.1807-1.2031.542-.3184.3623-.4775.9082-.4775,1.6387Z"/><path d="m305.0555,69.8534v-5.7041h.8711v.8115c.418-.627,1.0234-.9404,1.8145-.9404.3438,0,.6602.0615.9482.1855.2881.123.5049.2852.6475.4863.1426.2002.2441.4385.3008.7139.0352.1797.0537.4922.0537.9404v3.5068h-.9668v-3.4697c0-.3936-.0381-.6885-.1123-.8838-.0762-.1943-.209-.3506-.4004-.4668s-.416-.1748-.6738-.1748c-.4121,0-.7676.1309-1.0664.3926-.2988.2607-.4492.7568-.4492,1.4873v3.1152h-.9668Z"/><path d="m313.2841,68.9891l.1406.8535c-.2725.0576-.5156.0859-.7305.0859-.3516,0-.623-.0557-.8164-.166-.1934-.1113-.3301-.2568-.4082-.4385-.0791-.1807-.1191-.5605-.1191-1.1406v-3.2822h-.709v-.752h.709v-1.4121l.9619-.5801v1.9922h.9717v.752h-.9717v3.3359c0,.2754.0166.4531.0518.5312.0332.0791.0889.1416.166.1885.0762.0459.1875.0693.3301.0693.1074,0,.249-.0127.4238-.0371Z"/><path d="m314.2196,69.8534v-5.7041h.8691v.8652c.2227-.4053.4277-.6719.6152-.8008.1885-.1289.3945-.1934.6211-.1934.3252,0,.6562.1045.9932.3115l-.333.8975c-.2363-.1396-.4727-.21-.709-.21-.2109,0-.4004.0635-.5693.1904-.1689.1279-.2881.3037-.3604.5293-.1074.3438-.1602.7197-.1602,1.1279v2.9863h-.9668Z"/><path d="m317.5331,67.0018c0-1.0566.2939-1.8389.8809-2.3477.4912-.4219,1.0889-.6338,1.7939-.6338.7842,0,1.4258.2568,1.9229.7705.4971.5146.7471,1.2246.7471,2.1299,0,.7344-.1104,1.3115-.3311,1.7324-.2197.4209-.54.7471-.9609.9805-.4209.2324-.8799.3486-1.3779.3486-.7988,0-1.4434-.2559-1.9365-.7676-.4922-.5127-.7383-1.25-.7383-2.2129Zm.9932,0c0,.7305.1602,1.2773.4785,1.6406s.7197.5449,1.2031.5449c.4805,0,.8789-.1826,1.1973-.5479.3193-.3652.4785-.9219.4785-1.6699,0-.7061-.1602-1.2402-.4805-1.6035s-.7188-.5449-1.1953-.5449c-.4834,0-.8848.1807-1.2031.542-.3184.3623-.4785.9082-.4785,1.6387Z"/><path d="m323.9891,69.8534v-7.874h.9668v7.874h-.9668Z"/><path d="m326.4325,69.8534v-7.874h.9668v7.874h-.9668Z"/><path d="m332.8036,68.0165l.998.124c-.1572.583-.4492,1.0361-.875,1.3584s-.9707.4834-1.6328.4834c-.834,0-1.4961-.2568-1.9844-.7705s-.7334-1.2344-.7334-2.1621c0-.959.2471-1.7041.7412-2.2344.4941-.5293,1.1348-.7949,1.9229-.7949.7627,0,1.3857.2598,1.8691.7793.4834.5186.7256,1.249.7256,2.1914,0,.0566-.002.1426-.0059.2578h-4.2539c.0352.626.2129,1.1064.5312,1.4395.3193.333.7168.499,1.1934.499.3535,0,.6562-.0928.9072-.2793.251-.1855.4492-.4834.5967-.8916Zm-3.1748-1.5625h3.1846c-.043-.4805-.1641-.8398-.3652-1.0801-.3076-.3721-.707-.5586-1.1973-.5586-.4434,0-.8174.1484-1.1191.4463-.3027.2969-.4707.6943-.5029,1.1924Z"/><path d="m335.0048,69.8534v-5.7041h.8711v.8652c.2217-.4053.4268-.6719.6143-.8008.1885-.1289.3955-.1934.6201-.1934.3262,0,.6582.1045.9941.3115l-.333.8975c-.2363-.1396-.4727-.21-.709-.21-.2119,0-.4014.0635-.5693.1904-.168.1279-.2881.3037-.3594.5293-.1074.3438-.1621.7197-.1621,1.1279v2.9863h-.9668Z"/><path d="m346.5477,68.9247v.9287h-5.2051c-.0068-.2324.0312-.4561.1133-.6709.1328-.3545.3447-.7041.6367-1.0479.291-.3438.7129-.7412,1.2646-1.1924.8564-.7012,1.4346-1.2578,1.7354-1.668.3008-.4092.4512-.7969.4512-1.1621,0-.3838-.1367-.707-.4121-.9697-.2734-.2637-.6309-.3945-1.0703-.3945-.4658,0-.8379.1396-1.1172.4189s-.4219.666-.4248,1.1602l-.9932-.1025c.0674-.7412.3242-1.3057.7676-1.6943s1.04-.583,1.7891-.583c.7549,0,1.3535.21,1.793.6289.4414.4189.6611.9375.6611,1.5576,0,.3145-.0645.625-.1934.9287-.1289.3047-.3428.625-.6416.9619-.2988.3359-.7959.7979-1.4902,1.3857-.5801.4863-.9531.8174-1.1172.9902-.165.1738-.3008.3486-.4082.5244h3.8613Z"/></g></svg>