<?xml version="1.0" encoding="UTF-8"?><svg id="uuid-588d27fa-1f14-45d1-990c-569ef2822cdf" xmlns="http://www.w3.org/2000/svg" width="156.5101mm" height="157.2622mm" viewBox="0 0 443.6506 445.7827"><defs><style>.uuid-e9d2d25d-62ae-4555-bfce-b9b1b46e92ef,.uuid-ddd23e52-62d2-4b65-b1b6-e247f631ce34,.uuid-37f36622-20b9-496d-a9f7-5e33d69cc43b{fill:#fff;}.uuid-ddd23e52-62d2-4b65-b1b6-e247f631ce34,.uuid-b28eb9cd-f7de-4795-8ee5-283492fcbb5b{stroke-width:.5px;}.uuid-ddd23e52-62d2-4b65-b1b6-e247f631ce34,.uuid-b28eb9cd-f7de-4795-8ee5-283492fcbb5b,.uuid-37f36622-20b9-496d-a9f7-5e33d69cc43b{stroke-miterlimit:10;}.uuid-ddd23e52-62d2-4b65-b1b6-e247f631ce34,.uuid-37f36622-20b9-496d-a9f7-5e33d69cc43b{stroke:#000;}.uuid-1ed00222-418c-4f8d-b202-05b3deeb0c6f{stroke:#fff;stroke-width:6px;}.uuid-1ed00222-418c-4f8d-b202-05b3deeb0c6f,.uuid-e5a3e59e-e7fa-4baf-ad48-e81cc40c14ac,.uuid-e0ec8ccf-b20e-4d62-ba45-b71cad8b29ce{fill:none;stroke-linecap:round;stroke-linejoin:round;}.uuid-992e0653-fe3c-47fd-9146-1c870ac57e3d{fill:#9124ff;}.uuid-75a0699a-f81a-4a10-81ff-b781afa0638e{fill:#5094d2;}.uuid-b28eb9cd-f7de-4795-8ee5-283492fcbb5b{fill:#d0d3d4;stroke:#101820;}.uuid-e5a3e59e-e7fa-4baf-ad48-e81cc40c14ac{stroke:#9124ff;}.uuid-e5a3e59e-e7fa-4baf-ad48-e81cc40c14ac,.uuid-e0ec8ccf-b20e-4d62-ba45-b71cad8b29ce{stroke-width:2px;}.uuid-e0ec8ccf-b20e-4d62-ba45-b71cad8b29ce{stroke:#5094d2;}</style></defs><g><g><path d="m161.8015,22.5831v-7.5762h-2.8301v-1.0137h6.8086v1.0137h-2.8418v7.5762h-1.1367Z"/><path d="m166.3542,22.5831v-6.2227h.9492v.9434c.2422-.4414.4658-.7324.6709-.873s.4307-.2109.6768-.2109c.3555,0,.7168.1133,1.084.3398l-.3633.9785c-.2578-.1523-.5156-.2285-.7734-.2285-.2305,0-.4375.0693-.6211.208s-.3145.3311-.3926.5771c-.1172.375-.1758.7852-.1758,1.2305v3.2578h-1.0547Z"/><path d="m170.3679,15.2061v-1.2129h1.0547v1.2129h-1.0547Zm0,7.377v-6.2227h1.0547v6.2227h-1.0547Z"/><path d="m172.6179,20.005v-1.0605h3.2402v1.0605h-3.2402Z"/><path d="m177.0242,24.9678v-8.6074h.9609v.8086c.2266-.3164.4824-.5537.7676-.7119s.6309-.2373,1.0371-.2373c.5312,0,1,.1367,1.4062.4102s.7129.6592.9199,1.1572.3105,1.0439.3105,1.6377c0,.6367-.1143,1.21-.3428,1.7197s-.5605.9004-.9961,1.1719-.8936.4072-1.374.4072c-.3516,0-.667-.0742-.9463-.2227s-.5088-.3359-.6885-.5625v3.0293h-1.0547Zm.9551-5.4609c0,.8008.1621,1.3926.4863,1.7754s.7168.5742,1.1777.5742c.4688,0,.8701-.1982,1.2041-.5947s.501-1.0107.501-1.8428c0-.793-.1631-1.3867-.4893-1.7812s-.7158-.5918-1.1689-.5918c-.4492,0-.8467.21-1.1924.6299s-.5186,1.0303-.5186,1.8311Z"/><path d="m187.7585,21.8155c-.3906.332-.7666.5664-1.1279.7031s-.749.2051-1.1631.2051c-.6836,0-1.209-.167-1.5762-.501s-.5508-.7607-.5508-1.2803c0-.3047.0693-.583.208-.835s.3203-.4541.5449-.6064.4775-.2676.7588-.3457c.207-.0547.5195-.1074.9375-.1582.8516-.1016,1.4785-.2227,1.8809-.3633.0039-.1445.0059-.2363.0059-.2754,0-.4297-.0996-.7324-.2988-.9082-.2695-.2383-.6699-.3574-1.2012-.3574-.4961,0-.8623.0869-1.0986.2607s-.4111.4814-.5244.9229l-1.0312-.1406c.0938-.4414.248-.7979.4629-1.0693s.5254-.4805.9316-.627.877-.2197,1.4121-.2197c.5312,0,.9629.0625,1.2949.1875s.5762.2822.7324.4717.2656.4287.3281.7178c.0352.1797.0527.5039.0527.9727v1.4062c0,.9805.0225,1.6006.0674,1.8604s.1338.5088.2666.7471h-1.1016c-.1094-.2188-.1797-.4746-.2109-.7676Zm-.0879-2.3555c-.3828.1562-.957.2891-1.7227.3984-.4336.0625-.7402.1328-.9199.2109s-.3184.1924-.416.3428-.1465.3174-.1465.501c0,.2812.1064.5156.3193.7031s.5244.2812.9346.2812c.4062,0,.7676-.0889,1.084-.2666s.5488-.4209.6973-.7295c.1133-.2383.1699-.5898.1699-1.0547v-.3867Z"/><path d="m192.6746,21.6397l.1523.9316c-.2969.0625-.5625.0938-.7969.0938-.3828,0-.6797-.0605-.8906-.1816s-.3594-.2803-.4453-.4775-.1289-.6123-.1289-1.2451v-3.5801h-.7734v-.8203h.7734v-1.541l1.0488-.6328v2.1738h1.0605v.8203h-1.0605v3.6387c0,.3008.0186.4941.0557.5801s.0977.1543.1816.2051.2041.0762.3604.0762c.1172,0,.2715-.0137.4629-.041Z"/><path d="m193.7058,22.5831v-8.5898h1.0547v3.082c.4922-.5703,1.1133-.8555,1.8633-.8555.4609,0,.8613.0908,1.2012.2725s.583.4326.7295.7529.2197.7852.2197,1.3945v3.9434h-1.0547v-3.9434c0-.5273-.1143-.9111-.3428-1.1514s-.5518-.3604-.9697-.3604c-.3125,0-.6064.0811-.8818.2432s-.4717.3818-.5889.6592-.1758.6602-.1758,1.1484v3.4043h-1.0547Z"/><path d="m203.8835,22.5831v-8.5898h1.1367v3.5273h4.4648v-3.5273h1.1367v8.5898h-1.1367v-4.0488h-4.4648v4.0488h-1.1367Z"/><path d="m211.571,22.5831l3.2988-8.5898h1.2246l3.5156,8.5898h-1.2949l-1.002-2.6016h-3.5918l-.9434,2.6016h-1.207Zm2.4785-3.5273h2.9121l-.8965-2.3789c-.2734-.7227-.4766-1.3164-.6094-1.7812-.1094.5508-.2637,1.0977-.4629,1.6406l-.9434,2.5195Z"/><path d="m227.116,20.3038l1.0371.1348c-.1133.7148-.4033,1.2744-.8701,1.6787s-1.04.6064-1.7197.6064c-.8516,0-1.5361-.2783-2.0537-.835s-.7764-1.3545-.7764-2.3936c0-.6719.1113-1.2598.334-1.7637s.5615-.8818,1.0166-1.1338.9502-.3779,1.4854-.3779c.6758,0,1.2285.1709,1.6582.5127s.7051.8271.8262,1.4561l-1.0254.1582c-.0977-.418-.2705-.7324-.5186-.9434s-.5479-.3164-.8994-.3164c-.5312,0-.9629.1904-1.2949.5713s-.498.9834-.498,1.8076c0,.8359.1602,1.4434.4805,1.8223s.7383.5684,1.2539.5684c.4141,0,.7598-.127,1.0371-.3809s.4531-.6445.5273-1.1719Z"/><path d="m228.6628,19.4718c0-1.1523.3203-2.0059.9609-2.5605.5352-.4609,1.1875-.6914,1.957-.6914.8555,0,1.5547.2803,2.0977.8408s.8145,1.335.8145,2.3232c0,.8008-.1201,1.4307-.3604,1.8896s-.5898.8154-1.0488,1.0693-.96.3809-1.5029.3809c-.8711,0-1.5752-.2793-2.1123-.8379s-.8057-1.3633-.8057-2.4141Zm1.084,0c0,.7969.1738,1.3936.5215,1.79s.7852.5947,1.3125.5947c.5234,0,.959-.1992,1.3066-.5977s.5215-1.0059.5215-1.8223c0-.7695-.1748-1.3525-.5244-1.749s-.7842-.5947-1.3037-.5947c-.5273,0-.9648.1973-1.3125.5918s-.5215.9902-.5215,1.7871Z"/><path d="m235.7292,22.5831v-6.2227h.9492v.8848c.457-.6836,1.1172-1.0254,1.9805-1.0254.375,0,.7197.0674,1.0342.2021s.5498.3115.7061.5303.2656.4785.3281.7793c.0391.1953.0586.5371.0586,1.0254v3.8262h-1.0547v-3.7852c0-.4297-.041-.751-.123-.9639s-.2275-.3828-.4365-.5098-.4541-.1904-.7354-.1904c-.4492,0-.8369.1426-1.1631.4277s-.4893.8262-.4893,1.623v3.3984h-1.0547Z"/><path d="m242.4031,22.5831v-6.2227h.9492v.8848c.457-.6836,1.1172-1.0254,1.9805-1.0254.375,0,.7197.0674,1.0342.2021s.5498.3115.7061.5303.2656.4785.3281.7793c.0391.1953.0586.5371.0586,1.0254v3.8262h-1.0547v-3.7852c0-.4297-.041-.751-.123-.9639s-.2275-.3828-.4365-.5098-.4541-.1904-.7354-.1904c-.4492,0-.8369.1426-1.1631.4277s-.4893.8262-.4893,1.623v3.3984h-1.0547Z"/><path d="m253.3367,20.5792l1.0898.1348c-.1719.6367-.4902,1.1309-.9551,1.4824s-1.0586.5273-1.7812.5273c-.9102,0-1.6318-.2803-2.165-.8408s-.7998-1.3467-.7998-2.3584c0-1.0469.2695-1.8594.8086-2.4375s1.2383-.8672,2.0977-.8672c.832,0,1.5117.2832,2.0391.8496s.791,1.3633.791,2.3906c0,.0625-.002.1562-.0059.2812h-4.6406c.0391.6836.2324,1.207.5801,1.5703s.7812.5449,1.3008.5449c.3867,0,.7168-.1016.9902-.3047s.4902-.5273.6504-.9727Zm-3.4629-1.7051h3.4746c-.0469-.5234-.1797-.916-.3984-1.1777-.3359-.4062-.7715-.6094-1.3066-.6094-.4844,0-.8916.1621-1.2217.4863s-.5127.7578-.5479,1.3008Z"/><path d="m259.8113,20.3038l1.0371.1348c-.1133.7148-.4033,1.2744-.8701,1.6787s-1.04.6064-1.7197.6064c-.8516,0-1.5361-.2783-2.0537-.835s-.7764-1.3545-.7764-2.3936c0-.6719.1113-1.2598.334-1.7637s.5615-.8818,1.0166-1.1338.9502-.3779,1.4854-.3779c.6758,0,1.2285.1709,1.6582.5127s.7051.8271.8262,1.4561l-1.0254.1582c-.0977-.418-.2705-.7324-.5186-.9434s-.5479-.3164-.8994-.3164c-.5312,0-.9629.1904-1.2949.5713s-.498.9834-.498,1.8076c0,.8359.1602,1.4434.4805,1.8223s.7383.5684,1.2539.5684c.4141,0,.7598-.127,1.0371-.3809s.4531-.6445.5273-1.1719Z"/><path d="m264.0535,21.6397l.1523.9316c-.2969.0625-.5625.0938-.7969.0938-.3828,0-.6797-.0605-.8906-.1816s-.3594-.2803-.4453-.4775-.1289-.6123-.1289-1.2451v-3.5801h-.7734v-.8203h.7734v-1.541l1.0488-.6328v2.1738h1.0605v.8203h-1.0605v3.6387c0,.3008.0186.4941.0557.5801s.0977.1543.1816.2051.2041.0762.3604.0762c.1172,0,.2715-.0137.4629-.041Z"/><path d="m265.0906,15.2061v-1.2129h1.0547v1.2129h-1.0547Zm0,7.377v-6.2227h1.0547v6.2227h-1.0547Z"/><path d="m269.4792,22.5831l-2.3672-6.2227h1.1133l1.3359,3.7266c.1445.4023.2773.8203.3984,1.2539.0938-.3281.2246-.7227.3926-1.1836l1.3828-3.7969h1.084l-2.3555,6.2227h-.9844Z"/><path d="m273.7566,15.2061v-1.2129h1.0547v1.2129h-1.0547Zm0,7.377v-6.2227h1.0547v6.2227h-1.0547Z"/><path d="m278.7195,21.6397l.1523.9316c-.2969.0625-.5625.0938-.7969.0938-.3828,0-.6797-.0605-.8906-.1816s-.3594-.2803-.4453-.4775-.1289-.6123-.1289-1.2451v-3.5801h-.7734v-.8203h.7734v-1.541l1.0488-.6328v2.1738h1.0605v.8203h-1.0605v3.6387c0,.3008.0186.4941.0557.5801s.0977.1543.1816.2051.2041.0762.3604.0762c.1172,0,.2715-.0137.4629-.041Z"/><path d="m279.7038,24.9796l-.1172-.9902c.2305.0625.4316.0938.6035.0938.2344,0,.4219-.0391.5625-.1172s.2559-.1875.3457-.3281c.0664-.1055.1738-.3672.3223-.7852.0195-.0586.0508-.1445.0938-.2578l-2.3613-6.2344h1.1367l1.2949,3.6035c.168.457.3184.9375.4512,1.4414.1211-.4844.2656-.957.4336-1.418l1.3301-3.627h1.0547l-2.3672,6.3281c-.2539.6836-.4512,1.1543-.5918,1.4121-.1875.3477-.4023.6025-.6445.7646s-.5312.2432-.8672.2432c-.2031,0-.4297-.043-.6797-.1289Z"/><path d="m65.2068,36.9825v-8.5898h1.1367v8.5898h-1.1367Z"/><path d="m68.2126,36.9825v-6.2227h.9492v.8848c.457-.6836,1.1172-1.0254,1.9805-1.0254.375,0,.7197.0674,1.0342.2021s.5498.3115.7061.5303.2656.4785.3281.7793c.0391.1953.0586.5371.0586,1.0254v3.8262h-1.0547v-3.7852c0-.4297-.041-.751-.123-.9639s-.2275-.3828-.4365-.5098-.4541-.1904-.7354-.1904c-.4492,0-.8369.1426-1.1631.4277s-.4893.8262-.4893,1.623v3.3984h-1.0547Z"/><path d="m77.1892,36.0391l.1523.9316c-.2969.0625-.5625.0938-.7969.0938-.3828,0-.6797-.0605-.8906-.1816s-.3594-.2803-.4453-.4775-.1289-.6123-.1289-1.2451v-3.5801h-.7734v-.8203h.7734v-1.541l1.0488-.6328v2.1738h1.0605v.8203h-1.0605v3.6387c0,.3008.0186.4941.0557.5801s.0977.1543.1816.2051.2041.0762.3604.0762c.1172,0,.2715-.0137.4629-.041Z"/><path d="m82.4802,34.9786l1.0898.1348c-.1719.6367-.4902,1.1309-.9551,1.4824s-1.0586.5273-1.7812.5273c-.9102,0-1.6318-.2803-2.165-.8408s-.7998-1.3467-.7998-2.3584c0-1.0469.2695-1.8594.8086-2.4375s1.2383-.8672,2.0977-.8672c.832,0,1.5117.2832,2.0391.8496s.791,1.3633.791,2.3906c0,.0625-.002.1562-.0059.2812h-4.6406c.0391.6836.2324,1.207.5801,1.5703s.7812.5449,1.3008.5449c.3867,0,.7168-.1016.9902-.3047s.4902-.5273.6504-.9727Zm-3.4629-1.7051h3.4746c-.0469-.5234-.1797-.916-.3984-1.1777-.3359-.4062-.7715-.6094-1.3066-.6094-.4844,0-.8916.1621-1.2217.4863s-.5127.7578-.5479,1.3008Z"/><path d="m84.8826,36.9825v-6.2227h.9492v.9434c.2422-.4414.4658-.7324.6709-.873s.4307-.2109.6768-.2109c.3555,0,.7168.1133,1.084.3398l-.3633.9785c-.2578-.1523-.5156-.2285-.7734-.2285-.2305,0-.4375.0693-.6211.208s-.3145.3311-.3926.5771c-.1172.375-.1758.7852-.1758,1.2305v3.2578h-1.0547Z"/><path d="m88.8904,36.9825v-6.2227h.9492v.8848c.457-.6836,1.1172-1.0254,1.9805-1.0254.375,0,.7197.0674,1.0342.2021s.5498.3115.7061.5303.2656.4785.3281.7793c.0391.1953.0586.5371.0586,1.0254v3.8262h-1.0547v-3.7852c0-.4297-.041-.751-.123-.9639s-.2275-.3828-.4365-.5098-.4541-.1904-.7354-.1904c-.4492,0-.8369.1426-1.1631.4277s-.4893.8262-.4893,1.623v3.3984h-1.0547Z"/><path d="m99.6247,36.2149c-.3906.332-.7666.5664-1.1279.7031s-.749.2051-1.1631.2051c-.6836,0-1.209-.167-1.5762-.501s-.5508-.7607-.5508-1.2803c0-.3047.0693-.583.208-.835s.3203-.4541.5449-.6064.4775-.2676.7588-.3457c.207-.0547.5195-.1074.9375-.1582.8516-.1016,1.4785-.2227,1.8809-.3633.0039-.1445.0059-.2363.0059-.2754,0-.4297-.0996-.7324-.2988-.9082-.2695-.2383-.6699-.3574-1.2012-.3574-.4961,0-.8623.0869-1.0986.2607s-.4111.4814-.5244.9229l-1.0312-.1406c.0938-.4414.248-.7979.4629-1.0693s.5254-.4805.9316-.627.877-.2197,1.4121-.2197c.5312,0,.9629.0625,1.2949.1875s.5762.2822.7324.4717.2656.4287.3281.7178c.0352.1797.0527.5039.0527.9727v1.4062c0,.9805.0225,1.6006.0674,1.8604s.1338.5088.2666.7471h-1.1016c-.1094-.2188-.1797-.4746-.2109-.7676Zm-.0879-2.3555c-.3828.1562-.957.2891-1.7227.3984-.4336.0625-.7402.1328-.9199.2109s-.3184.1924-.416.3428-.1465.3174-.1465.501c0,.2812.1064.5156.3193.7031s.5244.2812.9346.2812c.4062,0,.7676-.0889,1.084-.2666s.5488-.4209.6973-.7295c.1133-.2383.1699-.5898.1699-1.0547v-.3867Z"/><path d="m102.2146,36.9825v-8.5898h1.0547v8.5898h-1.0547Z"/><path d="m108.238,39.3673v-8.6074h.9609v.8086c.2266-.3164.4824-.5537.7676-.7119s.6309-.2373,1.0371-.2373c.5312,0,1,.1367,1.4062.4102s.7129.6592.9199,1.1572.3105,1.0439.3105,1.6377c0,.6367-.1143,1.21-.3428,1.7197s-.5605.9004-.9961,1.1719-.8936.4072-1.374.4072c-.3516,0-.667-.0742-.9463-.2227s-.5088-.3359-.6885-.5625v3.0293h-1.0547Zm.9551-5.4609c0,.8008.1621,1.3926.4863,1.7754s.7168.5742,1.1777.5742c.4688,0,.8701-.1982,1.2041-.5947s.501-1.0107.501-1.8428c0-.793-.1631-1.3867-.4893-1.7812s-.7158-.5918-1.1689-.5918c-.4492,0-.8467.21-1.1924.6299s-.5186,1.0303-.5186,1.8311Z"/><path d="m114.5193,33.8712c0-1.1523.3203-2.0059.9609-2.5605.5352-.4609,1.1875-.6914,1.957-.6914.8555,0,1.5547.2803,2.0977.8408s.8145,1.335.8145,2.3232c0,.8008-.1201,1.4307-.3604,1.8896s-.5898.8154-1.0488,1.0693-.96.3809-1.5029.3809c-.8711,0-1.5752-.2793-2.1123-.8379s-.8057-1.3633-.8057-2.4141Zm1.084,0c0,.7969.1738,1.3936.5215,1.79s.7852.5947,1.3125.5947c.5234,0,.959-.1992,1.3066-.5977s.5215-1.0059.5215-1.8223c0-.7695-.1748-1.3525-.5244-1.749s-.7842-.5947-1.3037-.5947c-.5273,0-.9648.1973-1.3125.5918s-.5215.9902-.5215,1.7871Z"/><path d="m121.574,36.9825v-6.2227h.9492v.9434c.2422-.4414.4658-.7324.6709-.873s.4307-.2109.6768-.2109c.3555,0,.7168.1133,1.084.3398l-.3633.9785c-.2578-.1523-.5156-.2285-.7734-.2285-.2305,0-.4375.0693-.6211.208s-.3145.3311-.3926.5771c-.1172.375-.1758.7852-.1758,1.2305v3.2578h-1.0547Z"/><path d="m127.8845,36.0391l.1523.9316c-.2969.0625-.5625.0938-.7969.0938-.3828,0-.6797-.0605-.8906-.1816s-.3594-.2803-.4453-.4775-.1289-.6123-.1289-1.2451v-3.5801h-.7734v-.8203h.7734v-1.541l1.0488-.6328v2.1738h1.0605v.8203h-1.0605v3.6387c0,.3008.0186.4941.0557.5801s.0977.1543.1816.2051.2041.0762.3604.0762c.1172,0,.2715-.0137.4629-.041Z"/><path d="m128.4939,35.1251l1.043-.1641c.0586.418.2217.7383.4893.9609s.6416.334,1.1221.334c.4844,0,.8438-.0986,1.0781-.2959s.3516-.4287.3516-.6943c0-.2383-.1035-.4258-.3105-.5625-.1445-.0938-.5039-.2129-1.0781-.3574-.7734-.1953-1.3096-.3643-1.6084-.5068s-.5254-.3398-.6797-.5918-.2314-.5303-.2314-.835c0-.2773.0635-.5342.1904-.7705s.2998-.4326.5186-.5889c.1641-.1211.3877-.2236.6709-.3076s.5869-.126.9111-.126c.4883,0,.917.0703,1.2861.2109s.6416.3311.8174.5713.2969.5615.3633.9639l-1.0312.1406c-.0469-.3203-.1826-.5703-.4072-.75s-.542-.2695-.9521-.2695c-.4844,0-.8301.0801-1.0371.2402s-.3105.3477-.3105.5625c0,.1367.043.2598.1289.3691.0859.1133.2207.207.4043.2812.1055.0391.416.1289.9316.2695.7461.1992,1.2666.3623,1.5615.4893s.5264.3115.6943.5537.252.543.252.9023c0,.3516-.1025.6826-.3076.9932s-.501.5508-.8877.7207-.8242.2549-1.3125.2549c-.8086,0-1.4248-.168-1.8486-.5039s-.6943-.834-.8115-1.4941Z"/><path d="m142.3103,36.2149c-.3906.332-.7666.5664-1.1279.7031s-.749.2051-1.1631.2051c-.6836,0-1.209-.167-1.5762-.501s-.5508-.7607-.5508-1.2803c0-.3047.0693-.583.208-.835s.3203-.4541.5449-.6064.4775-.2676.7588-.3457c.207-.0547.5195-.1074.9375-.1582.8516-.1016,1.4785-.2227,1.8809-.3633.0039-.1445.0059-.2363.0059-.2754,0-.4297-.0996-.7324-.2988-.9082-.2695-.2383-.6699-.3574-1.2012-.3574-.4961,0-.8623.0869-1.0986.2607s-.4111.4814-.5244.9229l-1.0312-.1406c.0938-.4414.248-.7979.4629-1.0693s.5254-.4805.9316-.627.877-.2197,1.4121-.2197c.5312,0,.9629.0625,1.2949.1875s.5762.2822.7324.4717.2656.4287.3281.7178c.0352.1797.0527.5039.0527.9727v1.4062c0,.9805.0225,1.6006.0674,1.8604s.1338.5088.2666.7471h-1.1016c-.1094-.2188-.1797-.4746-.2109-.7676Zm-.0879-2.3555c-.3828.1562-.957.2891-1.7227.3984-.4336.0625-.7402.1328-.9199.2109s-.3184.1924-.416.3428-.1465.3174-.1465.501c0,.2812.1064.5156.3193.7031s.5244.2812.9346.2812c.4062,0,.7676-.0889,1.084-.2666s.5488-.4209.6973-.7295c.1133-.2383.1699-.5898.1699-1.0547v-.3867Z"/><path d="m144.9236,36.9825v-6.2227h.9492v.8848c.457-.6836,1.1172-1.0254,1.9805-1.0254.375,0,.7197.0674,1.0342.2021s.5498.3115.7061.5303.2656.4785.3281.7793c.0391.1953.0586.5371.0586,1.0254v3.8262h-1.0547v-3.7852c0-.4297-.041-.751-.123-.9639s-.2275-.3828-.4365-.5098-.4541-.1904-.7354-.1904c-.4492,0-.8369.1426-1.1631.4277s-.4893.8262-.4893,1.623v3.3984h-1.0547Z"/><path d="m155.6345,36.9825v-.7852c-.3945.6172-.9746.9258-1.7402.9258-.4961,0-.9521-.1367-1.3682-.4102s-.7383-.6553-.9668-1.1455-.3428-1.0537-.3428-1.6904c0-.6211.1035-1.1846.3105-1.6904s.5176-.8936.9316-1.1631.877-.4043,1.3887-.4043c.375,0,.709.0791,1.002.2373s.5312.3643.7148.6182v-3.082h1.0488v8.5898h-.9785Zm-3.334-3.1055c0,.7969.168,1.3926.5039,1.7871s.7324.5918,1.1895.5918c.4609,0,.8525-.1885,1.1748-.5654s.4834-.9521.4834-1.7256c0-.8516-.1641-1.4766-.4922-1.875s-.7324-.5977-1.2129-.5977c-.4688,0-.8604.1914-1.1748.5742s-.4717.9863-.4717,1.8105Z"/><path d="m161.1833,35.1251l1.043-.1641c.0586.418.2217.7383.4893.9609s.6416.334,1.1221.334c.4844,0,.8438-.0986,1.0781-.2959s.3516-.4287.3516-.6943c0-.2383-.1035-.4258-.3105-.5625-.1445-.0938-.5039-.2129-1.0781-.3574-.7734-.1953-1.3096-.3643-1.6084-.5068s-.5254-.3398-.6797-.5918-.2314-.5303-.2314-.835c0-.2773.0635-.5342.1904-.7705s.2998-.4326.5186-.5889c.1641-.1211.3877-.2236.6709-.3076s.5869-.126.9111-.126c.4883,0,.917.0703,1.2861.2109s.6416.3311.8174.5713.2969.5615.3633.9639l-1.0312.1406c-.0469-.3203-.1826-.5703-.4072-.75s-.542-.2695-.9521-.2695c-.4844,0-.8301.0801-1.0371.2402s-.3105.3477-.3105.5625c0,.1367.043.2598.1289.3691.0859.1133.2207.207.4043.2812.1055.0391.416.1289.9316.2695.7461.1992,1.2666.3623,1.5615.4893s.5264.3115.6943.5537.252.543.252.9023c0,.3516-.1025.6826-.3076.9932s-.501.5508-.8877.7207-.8242.2549-1.3125.2549c-.8086,0-1.4248-.168-1.8486-.5039s-.6943-.834-.8115-1.4941Z"/><path d="m167.6052,36.9825v-8.5898h1.0547v3.082c.4922-.5703,1.1133-.8555,1.8633-.8555.4609,0,.8613.0908,1.2012.2725s.583.4326.7295.7529.2197.7852.2197,1.3945v3.9434h-1.0547v-3.9434c0-.5273-.1143-.9111-.3428-1.1514s-.5518-.3604-.9697-.3604c-.3125,0-.6064.0811-.8818.2432s-.4717.3818-.5889.6592-.1758.6602-.1758,1.1484v3.4043h-1.0547Z"/><path d="m178.5388,34.9786l1.0898.1348c-.1719.6367-.4902,1.1309-.9551,1.4824s-1.0586.5273-1.7812.5273c-.9102,0-1.6318-.2803-2.165-.8408s-.7998-1.3467-.7998-2.3584c0-1.0469.2695-1.8594.8086-2.4375s1.2383-.8672,2.0977-.8672c.832,0,1.5117.2832,2.0391.8496s.791,1.3633.791,2.3906c0,.0625-.002.1562-.0059.2812h-4.6406c.0391.6836.2324,1.207.5801,1.5703s.7812.5449,1.3008.5449c.3867,0,.7168-.1016.9902-.3047s.4902-.5273.6504-.9727Zm-3.4629-1.7051h3.4746c-.0469-.5234-.1797-.916-.3984-1.1777-.3359-.4062-.7715-.6094-1.3066-.6094-.4844,0-.8916.1621-1.2217.4863s-.5127.7578-.5479,1.3008Z"/><path d="m180.9294,36.9825v-8.5898h1.0547v8.5898h-1.0547Z"/><path d="m183.8708,36.9825v-5.4023h-.9316v-.8203h.9316v-.6621c0-.418.0371-.7285.1113-.9316.1016-.2734.2803-.4951.5361-.665s.6143-.2549,1.0752-.2549c.2969,0,.625.0352.9844.1055l-.1582.9199c-.2188-.0391-.4258-.0586-.6211-.0586-.3203,0-.5469.0684-.6797.2051s-.1992.3926-.1992.7676v.5742h1.2129v.8203h-1.2129v5.4023h-1.0488Z"/><path d="m192.3025,39.5079c-.582-.7344-1.0742-1.5938-1.4766-2.5781s-.6035-2.0039-.6035-3.0586c0-.9297.1504-1.8203.4512-2.6719.3516-.9883.8945-1.9727,1.6289-2.9531h.7559c-.4727.8125-.7852,1.3926-.9375,1.7402-.2383.5391-.4258,1.1016-.5625,1.6875-.168.7305-.252,1.4648-.252,2.2031,0,1.8789.584,3.7559,1.752,5.6309h-.7559Z"/><path d="m194.6111,36.9825v-8.5898h1.1367v8.5898h-1.1367Z"/><path d="m197.406,32.7989c0-1.4258.3828-2.542,1.1484-3.3486s1.7539-1.21,2.9648-1.21c.793,0,1.5078.1895,2.1445.5684s1.1221.9072,1.4561,1.585.501,1.4463.501,2.3057c0,.8711-.1758,1.6504-.5273,2.3379s-.8496,1.208-1.4941,1.5615-1.3398.5303-2.0859.5303c-.8086,0-1.5312-.1953-2.168-.5859s-1.1191-.9238-1.4473-1.5996-.4922-1.3906-.4922-2.1445Zm1.1719.0176c0,1.0352.2783,1.8506.835,2.4463s1.2549.8936,2.0947.8936c.8555,0,1.5596-.3008,2.1123-.9023s.8291-1.4551.8291-2.5605c0-.6992-.1182-1.3096-.3545-1.8311s-.582-.9258-1.0371-1.2129-.9658-.4307-1.5322-.4307c-.8047,0-1.4971.2764-2.0771.8291s-.8701,1.4756-.8701,2.7686Z"/><path d="m207.0505,36.9825v-8.5898h1.7109l2.0332,6.082c.1875.5664.3242.9902.4102,1.2715.0977-.3125.25-.7715.457-1.377l2.0566-5.9766h1.5293v8.5898h-1.0957v-7.1895l-2.4961,7.1895h-1.0254l-2.4844-7.3125v7.3125h-1.0957Z"/><path d="m220.6267,36.9825h-1.0547v-6.7207c-.2539.2422-.5869.4844-.999.7266s-.7822.4238-1.1104.5449v-1.0195c.5898-.2773,1.1055-.6133,1.5469-1.0078s.7539-.7773.9375-1.1484h.6797v8.625Z"/><path d="m228.8708,35.9688v1.0137h-5.6777c-.0078-.2539.0332-.498.123-.7324.1445-.3867.376-.7676.6943-1.1426s.7783-.8086,1.3799-1.3008c.9336-.7656,1.5645-1.3721,1.8926-1.8193s.4922-.8701.4922-1.2686c0-.418-.1494-.7705-.4482-1.0576s-.6885-.4307-1.1689-.4307c-.5078,0-.9141.1523-1.2188.457s-.459.7266-.4629,1.2656l-1.084-.1113c.0742-.8086.3535-1.4248.8379-1.8486s1.1348-.6357,1.9512-.6357c.8242,0,1.4766.2285,1.957.6855s.7207,1.0234.7207,1.6992c0,.3438-.0703.6816-.2109,1.0137s-.374.6816-.7002,1.0488-.8682.8711-1.626,1.5117c-.6328.5312-1.0391.8916-1.2188,1.0811s-.3281.3799-.4453.5713h4.2129Z"/><path d="m234.449,33.6134v-1.0078l3.6387-.0059v3.1875c-.5586.4453-1.1348.7803-1.7285,1.0049s-1.2031.3369-1.8281.3369c-.8438,0-1.6104-.1807-2.2998-.542s-1.21-.8838-1.5615-1.5674-.5273-1.4473-.5273-2.291c0-.8359.1748-1.6162.5244-2.3408s.8525-1.2627,1.5088-1.6143,1.4121-.5273,2.2676-.5273c.6211,0,1.1826.1006,1.6846.3018s.8955.4814,1.1807.8408.502.8281.6504,1.4062l-1.0254.2812c-.1289-.4375-.2891-.7812-.4805-1.0312s-.4648-.4502-.8203-.6006-.75-.2256-1.1836-.2256c-.5195,0-.9688.0791-1.3477.2373s-.6846.3662-.917.624-.4131.541-.542.8496c-.2188.5312-.3281,1.1074-.3281,1.7285,0,.7656.1318,1.4062.3955,1.9219s.6475.8984,1.1514,1.1484,1.0391.375,1.6055.375c.4922,0,.9727-.0947,1.4414-.2842s.8242-.3916,1.0664-.6064v-1.5996h-2.5254Z"/><path d="m240.3201,39.5079h-.7559c1.168-1.875,1.752-3.752,1.752-5.6309,0-.7344-.084-1.4629-.252-2.1855-.1328-.5859-.3184-1.1484-.5566-1.6875-.1523-.3516-.4668-.9375-.9434-1.7578h.7559c.7344.9805,1.2773,1.9648,1.6289,2.9531.3008.8516.4512,1.7422.4512,2.6719,0,1.0547-.2021,2.0742-.6064,3.0586s-.8955,1.8438-1.4736,2.5781Z"/><path d="m248.1072,36.9825l-1.9043-6.2227h1.0898l.9902,3.5918.3691,1.3359c.0156-.0664.123-.4941.3223-1.2832l.9902-3.6445h1.084l.9316,3.6094.3105,1.1895.3574-1.2012,1.0664-3.5977h1.0254l-1.9453,6.2227h-1.0957l-.9902-3.7266-.2402-1.0605-1.2598,4.7871h-1.1016Z"/><path d="m255.6306,29.6055v-1.2129h1.0547v1.2129h-1.0547Zm0,7.377v-6.2227h1.0547v6.2227h-1.0547Z"/><path d="m260.5935,36.0391l.1523.9316c-.2969.0625-.5625.0938-.7969.0938-.3828,0-.6797-.0605-.8906-.1816s-.3594-.2803-.4453-.4775-.1289-.6123-.1289-1.2451v-3.5801h-.7734v-.8203h.7734v-1.541l1.0488-.6328v2.1738h1.0605v.8203h-1.0605v3.6387c0,.3008.0186.4941.0557.5801s.0977.1543.1816.2051.2041.0762.3604.0762c.1172,0,.2715-.0137.4629-.041Z"/><path d="m261.6247,36.9825v-8.5898h1.0547v3.082c.4922-.5703,1.1133-.8555,1.8633-.8555.4609,0,.8613.0908,1.2012.2725s.583.4326.7295.7529.2197.7852.2197,1.3945v3.9434h-1.0547v-3.9434c0-.5273-.1143-.9111-.3428-1.1514s-.5518-.3604-.9697-.3604c-.3125,0-.6064.0811-.8818.2432s-.4717.3818-.5889.6592-.1758.6602-.1758,1.1484v3.4043h-1.0547Z"/><path d="m273.9353,36.0391l.1523.9316c-.2969.0625-.5625.0938-.7969.0938-.3828,0-.6797-.0605-.8906-.1816s-.3594-.2803-.4453-.4775-.1289-.6123-.1289-1.2451v-3.5801h-.7734v-.8203h.7734v-1.541l1.0488-.6328v2.1738h1.0605v.8203h-1.0605v3.6387c0,.3008.0186.4941.0557.5801s.0977.1543.1816.2051.2041.0762.3604.0762c.1172,0,.2715-.0137.4629-.041Z"/><path d="m276.115,36.9825l-1.9043-6.2227h1.0898l.9902,3.5918.3691,1.3359c.0156-.0664.123-.4941.3223-1.2832l.9902-3.6445h1.084l.9316,3.6094.3105,1.1895.3574-1.2012,1.0664-3.5977h1.0254l-1.9453,6.2227h-1.0957l-.9902-3.7266-.2402-1.0605-1.2598,4.7871h-1.1016Z"/><path d="m283.24,33.8712c0-1.1523.3203-2.0059.9609-2.5605.5352-.4609,1.1875-.6914,1.957-.6914.8555,0,1.5547.2803,2.0977.8408s.8145,1.335.8145,2.3232c0,.8008-.1201,1.4307-.3604,1.8896s-.5898.8154-1.0488,1.0693-.96.3809-1.5029.3809c-.8711,0-1.5752-.2793-2.1123-.8379s-.8057-1.3633-.8057-2.4141Zm1.084,0c0,.7969.1738,1.3936.5215,1.79s.7852.5947,1.3125.5947c.5234,0,.959-.1992,1.3066-.5977s.5215-1.0059.5215-1.8223c0-.7695-.1748-1.3525-.5244-1.749s-.7842-.5947-1.3037-.5947c-.5273,0-.9648.1973-1.3125.5918s-.5215.9902-.5215,1.7871Z"/><path d="m297.9001,34.9786l1.0898.1348c-.1719.6367-.4902,1.1309-.9551,1.4824s-1.0586.5273-1.7812.5273c-.9102,0-1.6318-.2803-2.165-.8408s-.7998-1.3467-.7998-2.3584c0-1.0469.2695-1.8594.8086-2.4375s1.2383-.8672,2.0977-.8672c.832,0,1.5117.2832,2.0391.8496s.791,1.3633.791,2.3906c0,.0625-.002.1562-.0059.2812h-4.6406c.0391.6836.2324,1.207.5801,1.5703s.7812.5449,1.3008.5449c.3867,0,.7168-.1016.9902-.3047s.4902-.5273.6504-.9727Zm-3.4629-1.7051h3.4746c-.0469-.5234-.1797-.916-.3984-1.1777-.3359-.4062-.7715-.6094-1.3066-.6094-.4844,0-.8916.1621-1.2217.4863s-.5127.7578-.5479,1.3008Z"/><path d="m299.6111,36.9825l2.2734-3.2344-2.1035-2.9883h1.3184l.9551,1.459c.1797.2773.3242.5098.4336.6973.1719-.2578.3301-.4863.4746-.6855l1.0488-1.4707h1.2598l-2.1504,2.9297,2.3145,3.293h-1.2949l-1.2773-1.9336-.3398-.5215-1.6348,2.4551h-1.2773Z"/><path d="m308.6169,36.0391l.1523.9316c-.2969.0625-.5625.0938-.7969.0938-.3828,0-.6797-.0605-.8906-.1816s-.3594-.2803-.4453-.4775-.1289-.6123-.1289-1.2451v-3.5801h-.7734v-.8203h.7734v-1.541l1.0488-.6328v2.1738h1.0605v.8203h-1.0605v3.6387c0,.3008.0186.4941.0557.5801s.0977.1543.1816.2051.2041.0762.3604.0762c.1172,0,.2715-.0137.4629-.041Z"/><path d="m313.908,34.9786l1.0898.1348c-.1719.6367-.4902,1.1309-.9551,1.4824s-1.0586.5273-1.7812.5273c-.9102,0-1.6318-.2803-2.165-.8408s-.7998-1.3467-.7998-2.3584c0-1.0469.2695-1.8594.8086-2.4375s1.2383-.8672,2.0977-.8672c.832,0,1.5117.2832,2.0391.8496s.791,1.3633.791,2.3906c0,.0625-.002.1562-.0059.2812h-4.6406c.0391.6836.2324,1.207.5801,1.5703s.7812.5449,1.3008.5449c.3867,0,.7168-.1016.9902-.3047s.4902-.5273.6504-.9727Zm-3.4629-1.7051h3.4746c-.0469-.5234-.1797-.916-.3984-1.1777-.3359-.4062-.7715-.6094-1.3066-.6094-.4844,0-.8916.1621-1.2217.4863s-.5127.7578-.5479,1.3008Z"/><path d="m316.3103,36.9825v-6.2227h.9492v.9434c.2422-.4414.4658-.7324.6709-.873s.4307-.2109.6768-.2109c.3555,0,.7168.1133,1.084.3398l-.3633.9785c-.2578-.1523-.5156-.2285-.7734-.2285-.2305,0-.4375.0693-.6211.208s-.3145.3311-.3926.5771c-.1172.375-.1758.7852-.1758,1.2305v3.2578h-1.0547Z"/><path d="m320.3181,36.9825v-6.2227h.9492v.8848c.457-.6836,1.1172-1.0254,1.9805-1.0254.375,0,.7197.0674,1.0342.2021s.5498.3115.7061.5303.2656.4785.3281.7793c.0391.1953.0586.5371.0586,1.0254v3.8262h-1.0547v-3.7852c0-.4297-.041-.751-.123-.9639s-.2275-.3828-.4365-.5098-.4541-.1904-.7354-.1904c-.4492,0-.8369.1426-1.1631.4277s-.4893.8262-.4893,1.623v3.3984h-1.0547Z"/><path d="m331.0525,36.2149c-.3906.332-.7666.5664-1.1279.7031s-.749.2051-1.1631.2051c-.6836,0-1.209-.167-1.5762-.501s-.5508-.7607-.5508-1.2803c0-.3047.0693-.583.208-.835s.3203-.4541.5449-.6064.4775-.2676.7588-.3457c.207-.0547.5195-.1074.9375-.1582.8516-.1016,1.4785-.2227,1.8809-.3633.0039-.1445.0059-.2363.0059-.2754,0-.4297-.0996-.7324-.2988-.9082-.2695-.2383-.6699-.3574-1.2012-.3574-.4961,0-.8623.0869-1.0986.2607s-.4111.4814-.5244.9229l-1.0312-.1406c.0938-.4414.248-.7979.4629-1.0693s.5254-.4805.9316-.627.877-.2197,1.4121-.2197c.5312,0,.9629.0625,1.2949.1875s.5762.2822.7324.4717.2656.4287.3281.7178c.0352.1797.0527.5039.0527.9727v1.4062c0,.9805.0225,1.6006.0674,1.8604s.1338.5088.2666.7471h-1.1016c-.1094-.2188-.1797-.4746-.2109-.7676Zm-.0879-2.3555c-.3828.1562-.957.2891-1.7227.3984-.4336.0625-.7402.1328-.9199.2109s-.3184.1924-.416.3428-.1465.3174-.1465.501c0,.2812.1064.5156.3193.7031s.5244.2812.9346.2812c.4062,0,.7676-.0889,1.084-.2666s.5488-.4209.6973-.7295c.1133-.2383.1699-.5898.1699-1.0547v-.3867Z"/><path d="m333.6423,36.9825v-8.5898h1.0547v8.5898h-1.0547Z"/><path d="m339.2439,35.1251l1.043-.1641c.0586.418.2217.7383.4893.9609s.6416.334,1.1221.334c.4844,0,.8438-.0986,1.0781-.2959s.3516-.4287.3516-.6943c0-.2383-.1035-.4258-.3105-.5625-.1445-.0938-.5039-.2129-1.0781-.3574-.7734-.1953-1.3096-.3643-1.6084-.5068s-.5254-.3398-.6797-.5918-.2314-.5303-.2314-.835c0-.2773.0635-.5342.1904-.7705s.2998-.4326.5186-.5889c.1641-.1211.3877-.2236.6709-.3076s.5869-.126.9111-.126c.4883,0,.917.0703,1.2861.2109s.6416.3311.8174.5713.2969.5615.3633.9639l-1.0312.1406c-.0469-.3203-.1826-.5703-.4072-.75s-.542-.2695-.9521-.2695c-.4844,0-.8301.0801-1.0371.2402s-.3105.3477-.3105.5625c0,.1367.043.2598.1289.3691.0859.1133.2207.207.4043.2812.1055.0391.416.1289.9316.2695.7461.1992,1.2666.3623,1.5615.4893s.5264.3115.6943.5537.252.543.252.9023c0,.3516-.1025.6826-.3076.9932s-.501.5508-.8877.7207-.8242.2549-1.3125.2549c-.8086,0-1.4248-.168-1.8486-.5039s-.6943-.834-.8115-1.4941Z"/><path d="m345.6658,36.9825v-8.5898h1.0547v3.082c.4922-.5703,1.1133-.8555,1.8633-.8555.4609,0,.8613.0908,1.2012.2725s.583.4326.7295.7529.2197.7852.2197,1.3945v3.9434h-1.0547v-3.9434c0-.5273-.1143-.9111-.3428-1.1514s-.5518-.3604-.9697-.3604c-.3125,0-.6064.0811-.8818.2432s-.4717.3818-.5889.6592-.1758.6602-.1758,1.1484v3.4043h-1.0547Z"/><path d="m356.5994,34.9786l1.0898.1348c-.1719.6367-.4902,1.1309-.9551,1.4824s-1.0586.5273-1.7812.5273c-.9102,0-1.6318-.2803-2.165-.8408s-.7998-1.3467-.7998-2.3584c0-1.0469.2695-1.8594.8086-2.4375s1.2383-.8672,2.0977-.8672c.832,0,1.5117.2832,2.0391.8496s.791,1.3633.791,2.3906c0,.0625-.002.1562-.0059.2812h-4.6406c.0391.6836.2324,1.207.5801,1.5703s.7812.5449,1.3008.5449c.3867,0,.7168-.1016.9902-.3047s.4902-.5273.6504-.9727Zm-3.4629-1.7051h3.4746c-.0469-.5234-.1797-.916-.3984-1.1777-.3359-.4062-.7715-.6094-1.3066-.6094-.4844,0-.8916.1621-1.2217.4863s-.5127.7578-.5479,1.3008Z"/><path d="m358.99,36.9825v-8.5898h1.0547v8.5898h-1.0547Z"/><path d="m363.408,36.9825l-2.3672-6.2227h1.1133l1.3359,3.7266c.1445.4023.2773.8203.3984,1.2539.0938-.3281.2246-.7227.3926-1.1836l1.3828-3.7969h1.084l-2.3555,6.2227h-.9844Z"/><path d="m371.9392,34.9786l1.0898.1348c-.1719.6367-.4902,1.1309-.9551,1.4824s-1.0586.5273-1.7812.5273c-.9102,0-1.6318-.2803-2.165-.8408s-.7998-1.3467-.7998-2.3584c0-1.0469.2695-1.8594.8086-2.4375s1.2383-.8672,2.0977-.8672c.832,0,1.5117.2832,2.0391.8496s.791,1.3633.791,2.3906c0,.0625-.002.1562-.0059.2812h-4.6406c.0391.6836.2324,1.207.5801,1.5703s.7812.5449,1.3008.5449c.3867,0,.7168-.1016.9902-.3047s.4902-.5273.6504-.9727Zm-3.4629-1.7051h3.4746c-.0469-.5234-.1797-.916-.3984-1.1777-.3359-.4062-.7715-.6094-1.3066-.6094-.4844,0-.8916.1621-1.2217.4863s-.5127.7578-.5479,1.3008Z"/><path d="m373.9314,35.1251l1.043-.1641c.0586.418.2217.7383.4893.9609s.6416.334,1.1221.334c.4844,0,.8438-.0986,1.0781-.2959s.3516-.4287.3516-.6943c0-.2383-.1035-.4258-.3105-.5625-.1445-.0938-.5039-.2129-1.0781-.3574-.7734-.1953-1.3096-.3643-1.6084-.5068s-.5254-.3398-.6797-.5918-.2314-.5303-.2314-.835c0-.2773.0635-.5342.1904-.7705s.2998-.4326.5186-.5889c.1641-.1211.3877-.2236.6709-.3076s.5869-.126.9111-.126c.4883,0,.917.0703,1.2861.2109s.6416.3311.8174.5713.2969.5615.3633.9639l-1.0312.1406c-.0469-.3203-.1826-.5703-.4072-.75s-.542-.2695-.9521-.2695c-.4844,0-.8301.0801-1.0371.2402s-.3105.3477-.3105.5625c0,.1367.043.2598.1289.3691.0859.1133.2207.207.4043.2812.1055.0391.416.1289.9316.2695.7461.1992,1.2666.3623,1.5615.4893s.5264.3115.6943.5537.252.543.252.9023c0,.3516-.1025.6826-.3076.9932s-.501.5508-.8877.7207-.8242.2549-1.3125.2549c-.8086,0-1.4248-.168-1.8486-.5039s-.6943-.834-.8115-1.4941Z"/></g><g><rect class="uuid-37f36622-20b9-496d-a9f7-5e33d69cc43b" x="58.4278" y="90.4916" width="163.3975" height="130.5001"/><g><rect class="uuid-ddd23e52-62d2-4b65-b1b6-e247f631ce34" x="74.7346" y="135.5869" width="130.1564" height="40.1218"/><rect class="uuid-ddd23e52-62d2-4b65-b1b6-e247f631ce34" x="105.2719" y="148.1006" width="15.0943" height="15.0943"/><rect class="uuid-ddd23e52-62d2-4b65-b1b6-e247f631ce34" x="120.3662" y="148.1006" width="15.0943" height="15.0943"/><rect class="uuid-ddd23e52-62d2-4b65-b1b6-e247f631ce34" x="158.5199" y="148.1006" width="15.0943" height="15.0943"/><rect class="uuid-ddd23e52-62d2-4b65-b1b6-e247f631ce34" x="173.6142" y="148.1006" width="15.0943" height="15.0943"/><path d="m93.2063,159.5352h-1.5723l-.625-1.626h-2.8613l-.5908,1.626h-1.5332l2.7881-7.1582h1.5283l2.8662,7.1582Zm-2.6611-2.832l-.9863-2.6562-.9668,2.6562h1.9531Z"/><path d="m114.074,159.5352h-1.3721v-5.1709c-.5015.4688-1.0923.8154-1.7725,1.04v-1.2451c.3579-.1172.7471-.3389,1.167-.666s.708-.709.8643-1.1455h1.1133v7.1875Z"/><path d="m130.1912,158.2608v1.2744h-4.8096c.0522-.4814.2085-.9385.4688-1.3691.2603-.4316.7749-1.0039,1.543-1.7168.6187-.5762.9976-.9668,1.1377-1.1719.189-.2832.2832-.5625.2832-.8398,0-.3057-.082-.541-.2466-.7051-.1646-.165-.3916-.2471-.6812-.2471-.2866,0-.5142.0869-.6836.2588-.1694.1729-.2671.459-.293.8594l-1.3672-.1367c.0815-.7549.3369-1.2969.7666-1.626.4297-.3281.9668-.4932,1.6113-.4932.7065,0,1.2612.1904,1.665.5713s.6055.8545.6055,1.4209c0,.3223-.0576.6289-.1733.9209-.1157.291-.2988.5967-.5493.915-.166.2119-.4653.5166-.8984.9131-.4331.3975-.707.6611-.8228.791-.1157.1309-.209.2578-.2808.3809h2.7246Z"/><path d="m163.7126,157.6358l1.3281-.1611c.0425.3389.1562.5977.3418.7764.1855.1797.4102.2686.6738.2686.2832,0,.5215-.1074.7153-.3223s.2905-.5039.2905-.8691c0-.3447-.0928-.6182-.2783-.8203-.1855-.2012-.4116-.3027-.6787-.3027-.1758,0-.3857.0342-.6299.1025l.1514-1.1182c.3711.0098.6543-.0703.8496-.2412s.293-.3984.293-.6816c0-.2402-.0718-.4326-.2148-.5762-.1431-.1426-.3335-.2148-.5713-.2148-.2344,0-.4346.082-.6006.2441-.166.1631-.2671.4004-.3027.7129l-1.2646-.2148c.0879-.4326.2207-.7783.3979-1.0371s.4248-.4629.7422-.6104c.3174-.1484.6729-.2227,1.0669-.2227.6738,0,1.2144.2148,1.6211.6445.3354.3516.5029.749.5029,1.1914,0,.6289-.3433,1.1299-1.0303,1.5039.4102.0879.7383.2852.9839.5908.2456.3066.3687.6758.3687,1.1084,0,.6289-.2295,1.1641-.6885,1.6064-.459.4434-1.0303.6641-1.7139.6641-.6479,0-1.1851-.1865-1.6113-.5586-.4263-.373-.6738-.8604-.7422-1.4629Z"/><path d="m181.446,159.5352v-1.4404h-2.9297v-1.2012l3.1055-4.5459h1.1523v4.541h.8887v1.2061h-.8887v1.4404h-1.3281Zm0-2.6465v-2.4463l-1.6455,2.4463h1.6455Z"/><g><rect class="uuid-ddd23e52-62d2-4b65-b1b6-e247f631ce34" x="139.8128" y="105.3982" width="31.0695" height="15.0943"/><rect class="uuid-ddd23e52-62d2-4b65-b1b6-e247f631ce34" x="108.7433" y="105.3982" width="31.0695" height="15.0943"/><g><path d="m121.1872,109.3604c.6934,0,1.2354.2471,1.626.7422.4653.5859.6982,1.5576.6982,2.915,0,1.3535-.2344,2.3271-.7031,2.9199-.3872.4883-.9277.7324-1.6211.7324-.6968,0-1.2583-.2676-1.6846-.8037-.4263-.5352-.6396-1.4902-.6396-2.8633,0-1.3477.2344-2.3184.7031-2.9102.3872-.4883.9277-.7324,1.6211-.7324Zm0,1.1377c-.166,0-.314.0527-.4443.1582-.1304.1064-.231.2959-.3027.5693-.0942.3545-.1416.9521-.1416,1.792s.0425,1.417.127,1.7305c.0845.3145.1914.5234.3198.6279.1284.1035.2759.1562.4419.1562s.314-.0527.4443-.1592c.1304-.1055.231-.2949.3027-.5684.0942-.3516.1416-.9473.1416-1.7871s-.0425-1.417-.127-1.7314c-.0845-.3135-.1914-.5234-.3198-.6299-.1284-.1055-.2759-.1582-.4419-.1582Z"/><path d="m124.6638,116.5479v-7.1582h1.3721v2.5781c.4233-.4824.9243-.7227,1.5039-.7227.6313,0,1.1538.2285,1.5674.6855.4136.458.6201,1.1143.6201,1.9707,0,.8848-.2109,1.5674-.6323,2.0459s-.9336.7178-1.5356.7178c-.2964,0-.5884-.0742-.8765-.2227-.2881-.1475-.5361-.3672-.7446-.6562v.7617h-1.2744Zm1.3623-2.7051c0,.5371.0845.9336.2539,1.1914.2378.3643.5532.5469.9473.5469.3027,0,.5605-.1299.7739-.3887s.3198-.666.3198-1.2227c0-.5928-.1074-1.0195-.3223-1.2822-.2148-.2617-.4897-.3926-.8252-.3926-.3286,0-.6021.1279-.8203.3828-.2183.2559-.3271.6436-.3271,1.165Z"/></g><g><path d="m152.53,109.3604c.6934,0,1.2354.2471,1.626.7422.4653.5859.6982,1.5576.6982,2.915,0,1.3535-.2344,2.3271-.7031,2.9199-.3872.4883-.9277.7324-1.6211.7324-.6968,0-1.2583-.2676-1.6846-.8037-.4263-.5352-.6396-1.4902-.6396-2.8633,0-1.3477.2344-2.3184.7031-2.9102.3872-.4883.9277-.7324,1.6211-.7324Zm0,1.1377c-.166,0-.314.0527-.4443.1582-.1304.1064-.231.2959-.3027.5693-.0942.3545-.1416.9521-.1416,1.792s.0425,1.417.127,1.7305c.0845.3145.1914.5234.3198.6279.1284.1035.2759.1562.4419.1562s.314-.0527.4443-.1592c.1304-.1055.231-.2949.3027-.5684.0942-.3516.1416-.9473.1416-1.7871s-.0425-1.417-.127-1.7314c-.0845-.3135-.1914-.5234-.3198-.6299-.1284-.1055-.2759-.1582-.4419-.1582Z"/><path d="m160.5867,112.8956l-1.3525.2441c-.0454-.2705-.1489-.4736-.3101-.6104s-.3701-.2051-.6274-.2051c-.3418,0-.6143.1182-.8179.3535-.2036.2363-.3052.6309-.3052,1.1846,0,.6152.1035,1.0498.3101,1.3037s.4844.3809.8325.3809c.2603,0,.4736-.0742.6396-.2227.166-.1475.2832-.4023.3516-.7637l1.3477.2295c-.1401.6182-.4087,1.085-.8057,1.4014-.397.3154-.9292.4736-1.5967.4736-.7583,0-1.3633-.2393-1.814-.7178s-.6763-1.1416-.6763-1.9873c0-.8564.2261-1.5225.6787-2,.4526-.4766,1.0645-.7148,1.8359-.7148.6313,0,1.1338.1357,1.5063.4072.3726.2725.6406.6865.8032,1.2432Z"/></g></g><g><rect class="uuid-ddd23e52-62d2-4b65-b1b6-e247f631ce34" x="124.278" y="190.803" width="31.0695" height="15.0943"/><rect class="uuid-ddd23e52-62d2-4b65-b1b6-e247f631ce34" x="93.2085" y="190.803" width="31.0695" height="15.0943"/><rect class="uuid-b28eb9cd-f7de-4795-8ee5-283492fcbb5b" x="155.3476" y="190.803" width="31.0695" height="15.0943"/><g><path d="m105.926,194.7647c.6934,0,1.2354.248,1.626.7422.4653.5859.6982,1.5576.6982,2.915,0,1.3545-.2344,2.3281-.7031,2.9199-.3872.4883-.9277.7324-1.6211.7324-.6968,0-1.2583-.2676-1.6846-.8027-.4263-.5361-.6396-1.4902-.6396-2.8643,0-1.3477.2344-2.3174.7031-2.9102.3872-.4883.9277-.7324,1.6211-.7324Zm0,1.1377c-.166,0-.314.0527-.4443.1592-.1304.1055-.231.2949-.3027.5684-.0942.3555-.1416.9521-.1416,1.792s.0425,1.417.127,1.7314c.0845.3135.1914.5234.3198.627.1284.1045.2759.1562.4419.1562s.314-.0527.4443-.1582c.1304-.1064.231-.2959.3027-.5693.0942-.3516.1416-.9473.1416-1.7871s-.0425-1.417-.127-1.7305c-.0845-.3145-.1914-.5244-.3198-.6299-.1284-.1064-.2759-.1592-.4419-.1592Z"/><path d="m110.4866,198.3487l-1.2451-.2246c.1401-.501.3809-.8721.7227-1.1133.3418-.2402.8496-.3613,1.5234-.3613.6118,0,1.0679.0723,1.3672.2178.2993.1445.5103.3281.6323.5518.1221.2227.1831.6318.1831,1.2275l-.0146,1.6016c0,.4561.022.792.0659,1.0088.0439.2158.126.4482.2466.6953h-1.3574c-.0356-.0908-.0796-.2256-.1318-.4053-.0229-.0811-.0391-.1348-.0488-.1611-.2344.2285-.4849.3994-.752.5127-.2671.1143-.5518.1709-.8545.1709-.5337,0-.9546-.1445-1.2622-.4346-.3076-.2891-.4614-.6553-.4614-1.0986,0-.293.0698-.5537.21-.7832s.3359-.4053.5884-.5273.6162-.2285,1.0913-.3203c.6411-.1201,1.0854-.2324,1.333-.3369v-.1367c0-.2637-.0649-.4512-.1953-.5635s-.376-.1689-.7373-.1689c-.2441,0-.4346.0479-.5713.1445-.1367.0957-.2476.2646-.332.5049Zm1.8359,1.1133c-.1758.0586-.4541.1289-.835.21-.3809.082-.6299.1611-.7471.2393-.1792.127-.2686.2881-.2686.4834,0,.1924.0718.3584.2148.498.1431.1406.3257.21.5469.21.2476,0,.4834-.0811.708-.2441.166-.123.2749-.2744.3271-.4541.0356-.1172.0537-.3398.0537-.6689v-.2734Z"/></g><g><path d="m133.9412,194.7647c.6934,0,1.2354.248,1.626.7422.4653.5859.6982,1.5576.6982,2.915,0,1.3545-.2344,2.3281-.7031,2.9199-.3872.4883-.9277.7324-1.6211.7324-.6968,0-1.2583-.2676-1.6846-.8027-.4263-.5361-.6396-1.4902-.6396-2.8643,0-1.3477.2344-2.3174.7031-2.9102.3872-.4883.9277-.7324,1.6211-.7324Zm0,1.1377c-.166,0-.314.0527-.4443.1592-.1304.1055-.231.2949-.3027.5684-.0942.3555-.1416.9521-.1416,1.792s.0425,1.417.127,1.7314c.0845.3135.1914.5234.3198.627.1284.1045.2759.1562.4419.1562s.314-.0527.4443-.1582c.1304-.1064.231-.2959.3027-.5693.0942-.3516.1416-.9473.1416-1.7871s-.0425-1.417-.127-1.7305c-.0845-.3145-.1914-.5244-.3198-.6299-.1284-.1064-.2759-.1592-.4419-.1592Z"/><path d="m137.4177,201.9522v-7.1582h1.3721v2.5781c.4233-.4814.9243-.7227,1.5039-.7227.6313,0,1.1538.2285,1.5674.6865.4136.457.6201,1.1143.6201,1.9697,0,.8857-.2109,1.5674-.6323,2.0459s-.9336.7178-1.5356.7178c-.2964,0-.5884-.0742-.8765-.2217-.2881-.1484-.5361-.3672-.7446-.6572v.7617h-1.2744Zm1.3623-2.7051c0,.5371.0845.9346.2539,1.1914.2378.3652.5532.5469.9473.5469.3027,0,.5605-.1289.7739-.3877s.3198-.667.3198-1.2236c0-.5918-.1074-1.0195-.3223-1.2812-.2148-.2627-.4897-.3936-.8252-.3936-.3286,0-.6021.1279-.8203.3838-.2183.2549-.3271.6436-.3271,1.1641Z"/><path d="m146.8025,201.9522h-1.3721v-5.1709c-.5015.4688-1.0923.8154-1.7725,1.04v-1.2451c.3579-.1172.7471-.3389,1.167-.666s.708-.709.8643-1.1455h1.1133v7.1875Z"/></g><g><path d="m165.011,194.7647c.6934,0,1.2354.248,1.626.7422.4653.5859.6982,1.5576.6982,2.915,0,1.3545-.2344,2.3281-.7031,2.9199-.3872.4883-.9277.7324-1.6211.7324-.6968,0-1.2583-.2676-1.6846-.8027-.4263-.5361-.6396-1.4902-.6396-2.8643,0-1.3477.2344-2.3174.7031-2.9102.3872-.4883.9277-.7324,1.6211-.7324Zm0,1.1377c-.166,0-.314.0527-.4443.1592-.1304.1055-.231.2949-.3027.5684-.0942.3555-.1416.9521-.1416,1.792s.0425,1.417.127,1.7314c.0845.3135.1914.5234.3198.627.1284.1045.2759.1562.4419.1562s.314-.0527.4443-.1582c.1304-.1064.231-.2959.3027-.5693.0942-.3516.1416-.9473.1416-1.7871s-.0425-1.417-.127-1.7305c-.0845-.3145-.1914-.5244-.3198-.6299-.1284-.1064-.2759-.1592-.4419-.1592Z"/><path d="m168.4875,201.9522v-7.1582h1.3721v2.5781c.4233-.4814.9243-.7227,1.5039-.7227.6313,0,1.1538.2285,1.5674.6865.4136.457.6201,1.1143.6201,1.9697,0,.8857-.2109,1.5674-.6323,2.0459s-.9336.7178-1.5356.7178c-.2964,0-.5884-.0742-.8765-.2217-.2881-.1484-.5361-.3672-.7446-.6572v.7617h-1.2744Zm1.3623-2.7051c0,.5371.0845.9346.2539,1.1914.2378.3652.5532.5469.9473.5469.3027,0,.5605-.1289.7739-.3877s.3198-.667.3198-1.2236c0-.5918-.1074-1.0195-.3223-1.2812-.2148-.2627-.4897-.3936-.8252-.3936-.3286,0-.6021.1279-.8203.3838-.2183.2549-.3271.6436-.3271,1.1641Z"/><path d="m178.9954,200.6778v1.2744h-4.8096c.0522-.4814.2085-.9385.4688-1.3691.2603-.4316.7749-1.0039,1.543-1.7168.6187-.5762.9976-.9668,1.1377-1.1719.189-.2832.2832-.5625.2832-.8398,0-.3057-.082-.541-.2466-.7051-.1646-.165-.3916-.2471-.6812-.2471-.2866,0-.5142.0869-.6836.2588-.1694.1729-.2671.459-.293.8594l-1.3672-.1367c.0815-.7549.3369-1.2969.7666-1.626.4297-.3281.9668-.4932,1.6113-.4932.7065,0,1.2612.1904,1.665.5713s.6055.8545.6055,1.4209c0,.3223-.0576.6289-.1733.9209-.1157.291-.2988.5967-.5493.915-.166.2119-.4653.5166-.8984.9131-.4331.3975-.707.6611-.8228.791-.1157.1309-.209.2578-.2808.3809h2.7246Z"/></g></g></g></g><g><rect class="uuid-37f36622-20b9-496d-a9f7-5e33d69cc43b" x="221.8253" y="90.4916" width="163.3975" height="130.5001"/><g><rect class="uuid-ddd23e52-62d2-4b65-b1b6-e247f631ce34" x="238.1321" y="135.5869" width="130.1564" height="40.1218"/><rect class="uuid-ddd23e52-62d2-4b65-b1b6-e247f631ce34" x="268.6694" y="148.1006" width="15.0943" height="15.0943"/><rect class="uuid-ddd23e52-62d2-4b65-b1b6-e247f631ce34" x="283.7637" y="148.1006" width="15.0943" height="15.0943"/><rect class="uuid-ddd23e52-62d2-4b65-b1b6-e247f631ce34" x="321.9174" y="148.1006" width="15.0943" height="15.0943"/><rect class="uuid-ddd23e52-62d2-4b65-b1b6-e247f631ce34" x="337.0117" y="148.1006" width="15.0943" height="15.0943"/><path d="m249.968,151.3282h2.8613c.5664,0,.9888.0234,1.2671.0703.2783.0479.5273.1455.7471.2959.2197.1494.4028.3486.5493.5977s.2197.5283.2197.8379c0,.335-.0903.6426-.271.9229-.1807.2793-.4258.4893-.7349.6299.436.127.7715.3428,1.0059.6494.2344.3057.3516.665.3516,1.0791,0,.3252-.0757.6416-.2271.9492s-.3579.5537-.6201.7373c-.2622.1846-.585.2969-.9692.3398-.2407.0254-.8218.042-1.7432.0488h-2.4365v-7.1582Zm1.4453,1.1914v1.6553h.9473c.563,0,.9131-.0088,1.0498-.0244.2476-.0293.4419-.1152.5835-.2568s.2124-.3281.2124-.5586c0-.2217-.061-.4014-.1831-.54-.1221-.1377-.3037-.2217-.5444-.251-.1431-.0166-.5552-.0244-1.2354-.0244h-.8301Zm0,2.8467v1.9141h1.3379c.521,0,.8511-.0146.9912-.0439.2148-.0391.3896-.1348.5249-.2861s.2026-.3535.2026-.6074c0-.2148-.0522-.3975-.1562-.5469-.104-.1504-.2549-.2588-.4517-.3271s-.624-.1025-1.2817-.1025h-1.167Z"/><path d="m277.4714,159.5352h-1.3721v-5.1709c-.5015.4688-1.0923.8154-1.7725,1.04v-1.2451c.3579-.1172.7471-.3389,1.167-.666s.708-.709.8643-1.1455h1.1133v7.1875Z"/><path d="m293.5886,158.2608v1.2744h-4.8096c.0527-.4814.209-.9385.4688-1.3691.2607-.4316.7754-1.0039,1.543-1.7168.6191-.5762.998-.9668,1.1377-1.1719.1895-.2832.2832-.5625.2832-.8398,0-.3057-.082-.541-.2461-.7051-.165-.165-.3916-.2471-.6816-.2471-.2861,0-.5137.0869-.6836.2588-.1689.1729-.2666.459-.293.8594l-1.3672-.1367c.082-.7549.3369-1.2969.7666-1.626.4297-.3281.9668-.4932,1.6113-.4932.707,0,1.2617.1904,1.665.5713.4043.3809.6055.8545.6055,1.4209,0,.3223-.0576.6289-.1729.9209-.1162.291-.2988.5967-.5498.915-.166.2119-.4648.5166-.8984.9131-.4326.3975-.707.6611-.8223.791-.1162.1309-.209.2578-.2812.3809h2.7246Z"/><path d="m327.1101,157.6358l1.3281-.1611c.042.3389.1562.5977.3418.7764.1855.1797.4102.2686.6738.2686.2832,0,.5215-.1074.7148-.3223.1943-.2148.291-.5039.291-.8691,0-.3447-.0928-.6182-.2783-.8203-.1855-.2012-.4121-.3027-.6787-.3027-.1758,0-.3857.0342-.6299.1025l.1514-1.1182c.3711.0098.6543-.0703.8496-.2412s.293-.3984.293-.6816c0-.2402-.0723-.4326-.2148-.5762-.1436-.1426-.334-.2148-.5713-.2148-.2344,0-.4346.082-.6006.2441-.166.1631-.2676.4004-.3027.7129l-1.2646-.2148c.0879-.4326.2207-.7783.3975-1.0371.1777-.2588.4248-.4629.7422-.6104.3174-.1484.6729-.2227,1.0674-.2227.6738,0,1.2139.2148,1.6211.6445.335.3516.5029.749.5029,1.1914,0,.6289-.3438,1.1299-1.0303,1.5039.4102.0879.7383.2852.9834.5908.2461.3066.3691.6758.3691,1.1084,0,.6289-.2295,1.1641-.6885,1.6064-.459.4434-1.0303.6641-1.7139.6641-.6484,0-1.1855-.1865-1.6113-.5586-.4268-.373-.6738-.8604-.7422-1.4629Z"/><path d="m344.8435,159.5352v-1.4404h-2.9297v-1.2012l3.1055-4.5459h1.1523v4.541h.8887v1.2061h-.8887v1.4404h-1.3281Zm0-2.6465v-2.4463l-1.6455,2.4463h1.6455Z"/><g><rect class="uuid-ddd23e52-62d2-4b65-b1b6-e247f631ce34" x="303.2103" y="105.3982" width="31.0695" height="15.0943"/><rect class="uuid-ddd23e52-62d2-4b65-b1b6-e247f631ce34" x="272.1408" y="105.3982" width="31.0695" height="15.0943"/><g><path d="m284.5847,109.3604c.6934,0,1.2354.2471,1.626.7422.4658.5859.6982,1.5576.6982,2.915,0,1.3535-.2344,2.3271-.7031,2.9199-.3867.4883-.9277.7324-1.6211.7324-.6963,0-1.2578-.2676-1.6846-.8037-.4258-.5352-.6396-1.4902-.6396-2.8633,0-1.3477.2344-2.3184.7031-2.9102.3877-.4883.9277-.7324,1.6211-.7324Zm0,1.1377c-.166,0-.3135.0527-.4443.1582-.1299.1064-.2305.2959-.3027.5693-.0938.3545-.1416.9521-.1416,1.792s.043,1.417.127,1.7305c.085.3145.1914.5234.3203.6279.1279.1035.2754.1562.4414.1562s.3145-.0527.4443-.1592c.1309-.1055.2314-.2949.3027-.5684.0947-.3516.1416-.9473.1416-1.7871s-.042-1.417-.127-1.7314c-.084-.3135-.1914-.5234-.3193-.6299-.1289-.1055-.2764-.1582-.4424-.1582Z"/><path d="m288.0613,116.5479v-7.1582h1.3721v2.5781c.4238-.4824.9248-.7227,1.5039-.7227.6318,0,1.1543.2285,1.5674.6855.4141.458.6201,1.1143.6201,1.9707,0,.8848-.2109,1.5674-.6318,2.0459-.4219.4785-.9336.7178-1.5361.7178-.2959,0-.5879-.0742-.876-.2227-.2881-.1475-.5361-.3672-.7451-.6562v.7617h-1.2744Zm1.3623-2.7051c0,.5371.085.9336.2539,1.1914.2383.3643.5537.5469.9473.5469.3027,0,.5605-.1299.7744-.3887.2129-.2588.3193-.666.3193-1.2227,0-.5928-.1074-1.0195-.3223-1.2822-.2148-.2617-.4893-.3926-.8252-.3926-.3281,0-.6016.1279-.8203.3828-.2178.2559-.3271.6436-.3271,1.165Z"/></g><g><path d="m315.9275,109.3604c.6934,0,1.2354.2471,1.626.7422.4658.5859.6982,1.5576.6982,2.915,0,1.3535-.2344,2.3271-.7031,2.9199-.3867.4883-.9277.7324-1.6211.7324-.6963,0-1.2578-.2676-1.6846-.8037-.4258-.5352-.6396-1.4902-.6396-2.8633,0-1.3477.2344-2.3184.7031-2.9102.3877-.4883.9277-.7324,1.6211-.7324Zm0,1.1377c-.166,0-.3135.0527-.4443.1582-.1299.1064-.2305.2959-.3027.5693-.0938.3545-.1416.9521-.1416,1.792s.043,1.417.127,1.7305c.085.3145.1914.5234.3203.6279.1279.1035.2754.1562.4414.1562s.3145-.0527.4443-.1592c.1309-.1055.2314-.2949.3027-.5684.0947-.3516.1416-.9473.1416-1.7871s-.042-1.417-.127-1.7314c-.084-.3135-.1914-.5234-.3193-.6299-.1289-.1055-.2764-.1582-.4424-.1582Z"/><path d="m323.9841,112.8956l-1.3525.2441c-.0449-.2705-.1484-.4736-.3096-.6104s-.3701-.2051-.6279-.2051c-.3418,0-.6143.1182-.8174.3535-.2041.2363-.3057.6309-.3057,1.1846,0,.6152.1035,1.0498.3105,1.3037.2061.2539.4844.3809.832.3809.2607,0,.4736-.0742.6396-.2227.166-.1475.2832-.4023.3516-.7637l1.3477.2295c-.1396.6182-.4082,1.085-.8057,1.4014-.3965.3154-.9287.4736-1.5967.4736-.7578,0-1.3633-.2393-1.8135-.7178-.4512-.4785-.6768-1.1416-.6768-1.9873,0-.8564.2266-1.5225.6787-2,.4531-.4766,1.0645-.7148,1.8359-.7148.6318,0,1.1338.1357,1.5068.4072.3721.2725.6406.6865.8027,1.2432Z"/></g></g><g><rect class="uuid-ddd23e52-62d2-4b65-b1b6-e247f631ce34" x="287.6755" y="190.803" width="31.0695" height="15.0943"/><rect class="uuid-ddd23e52-62d2-4b65-b1b6-e247f631ce34" x="256.606" y="190.803" width="31.0695" height="15.0943"/><rect class="uuid-b28eb9cd-f7de-4795-8ee5-283492fcbb5b" x="318.7451" y="190.803" width="31.0695" height="15.0943"/><g><path d="m269.3235,194.7647c.6934,0,1.2354.248,1.626.7422.4653.5859.6982,1.5576.6982,2.915,0,1.3545-.2344,2.3281-.7031,2.9199-.3872.4883-.9277.7324-1.6211.7324-.6968,0-1.2583-.2676-1.6846-.8027-.4263-.5361-.6396-1.4902-.6396-2.8643,0-1.3477.2344-2.3174.7031-2.9102.3872-.4883.9277-.7324,1.6211-.7324Zm0,1.1377c-.166,0-.314.0527-.4443.1592-.1304.1055-.231.2949-.3027.5684-.0942.3555-.1416.9521-.1416,1.792s.0425,1.417.127,1.7314c.0845.3135.1914.5234.3198.627.1284.1045.2759.1562.4419.1562s.314-.0527.4443-.1582c.1304-.1064.231-.2959.3027-.5693.0942-.3516.1416-.9473.1416-1.7871s-.0425-1.417-.127-1.7305c-.0845-.3145-.1914-.5244-.3198-.6299-.1284-.1064-.2759-.1592-.4419-.1592Z"/><path d="m273.884,198.3487l-1.2451-.2246c.1401-.501.3809-.8721.7227-1.1133.3418-.2402.8496-.3613,1.5234-.3613.6118,0,1.0679.0723,1.3672.2178.2993.1445.5103.3281.6323.5518.1221.2227.1831.6318.1831,1.2275l-.0146,1.6016c0,.4561.022.792.0659,1.0088.0439.2158.126.4482.2466.6953h-1.3574c-.0356-.0908-.0796-.2256-.1318-.4053-.0229-.0811-.0391-.1348-.0488-.1611-.2344.2285-.4849.3994-.752.5127-.2671.1143-.5518.1709-.8545.1709-.5337,0-.9546-.1445-1.2622-.4346-.3076-.2891-.4614-.6553-.4614-1.0986,0-.293.0698-.5537.21-.7832s.3359-.4053.5884-.5273.6162-.2285,1.0913-.3203c.6411-.1201,1.0854-.2324,1.333-.3369v-.1367c0-.2637-.0649-.4512-.1953-.5635s-.376-.1689-.7373-.1689c-.2441,0-.4346.0479-.5713.1445-.1367.0957-.2476.2646-.332.5049Zm1.8359,1.1133c-.1758.0586-.4541.1289-.835.21-.3809.082-.6299.1611-.7471.2393-.1792.127-.2686.2881-.2686.4834,0,.1924.0718.3584.2148.498.1431.1406.3257.21.5469.21.2476,0,.4834-.0811.708-.2441.166-.123.2749-.2744.3271-.4541.0356-.1172.0537-.3398.0537-.6689v-.2734Z"/></g><g><path d="m297.3386,194.7647c.6934,0,1.2354.248,1.626.7422.4658.5859.6982,1.5576.6982,2.915,0,1.3545-.2344,2.3281-.7031,2.9199-.3867.4883-.9277.7324-1.6211.7324-.6963,0-1.2578-.2676-1.6846-.8027-.4258-.5361-.6396-1.4902-.6396-2.8643,0-1.3477.2344-2.3174.7031-2.9102.3877-.4883.9277-.7324,1.6211-.7324Zm0,1.1377c-.166,0-.3135.0527-.4443.1592-.1299.1055-.2305.2949-.3027.5684-.0938.3555-.1416.9521-.1416,1.792s.043,1.417.127,1.7314c.085.3135.1914.5234.3203.627.1279.1045.2754.1562.4414.1562s.3145-.0527.4443-.1582c.1309-.1064.2314-.2959.3027-.5693.0947-.3516.1416-.9473.1416-1.7871s-.042-1.417-.127-1.7305c-.084-.3145-.1914-.5244-.3193-.6299-.1289-.1064-.2764-.1592-.4424-.1592Z"/><path d="m300.8152,201.9522v-7.1582h1.3721v2.5781c.4238-.4814.9248-.7227,1.5039-.7227.6318,0,1.1543.2285,1.5674.6865.4141.457.6201,1.1143.6201,1.9697,0,.8857-.2109,1.5674-.6318,2.0459-.4219.4785-.9336.7178-1.5361.7178-.2959,0-.5879-.0742-.876-.2217-.2881-.1484-.5361-.3672-.7451-.6572v.7617h-1.2744Zm1.3623-2.7051c0,.5371.085.9346.2539,1.1914.2383.3652.5537.5469.9473.5469.3027,0,.5605-.1289.7744-.3877.2129-.2588.3193-.667.3193-1.2236,0-.5918-.1074-1.0195-.3223-1.2812-.2148-.2627-.4893-.3936-.8252-.3936-.3281,0-.6016.1279-.8203.3838-.2178.2549-.3271.6436-.3271,1.1641Z"/><path d="m310.1999,201.9522h-1.3721v-5.1709c-.501.4688-1.0918.8154-1.7725,1.04v-1.2451c.3584-.1172.7471-.3389,1.167-.666s.708-.709.8643-1.1455h1.1133v7.1875Z"/></g><g><path d="m328.408,194.7647c.6934,0,1.2354.248,1.626.7422.4658.5859.6982,1.5576.6982,2.915,0,1.3545-.2344,2.3281-.7031,2.9199-.3867.4883-.9277.7324-1.6211.7324-.6963,0-1.2578-.2676-1.6846-.8027-.4258-.5361-.6396-1.4902-.6396-2.8643,0-1.3477.2344-2.3174.7031-2.9102.3877-.4883.9277-.7324,1.6211-.7324Zm0,1.1377c-.166,0-.3135.0527-.4443.1592-.1299.1055-.2305.2949-.3027.5684-.0938.3555-.1416.9521-.1416,1.792s.043,1.417.127,1.7314c.085.3135.1914.5234.3203.627.1279.1045.2754.1562.4414.1562s.3145-.0527.4443-.1582c.1309-.1064.2314-.2959.3027-.5693.0947-.3516.1416-.9473.1416-1.7871s-.042-1.417-.127-1.7305c-.084-.3145-.1914-.5244-.3193-.6299-.1289-.1064-.2764-.1592-.4424-.1592Z"/><path d="m331.8845,201.9522v-7.1582h1.3721v2.5781c.4238-.4814.9248-.7227,1.5039-.7227.6318,0,1.1543.2285,1.5674.6865.4141.457.6201,1.1143.6201,1.9697,0,.8857-.2109,1.5674-.6318,2.0459-.4219.4785-.9336.7178-1.5361.7178-.2959,0-.5879-.0742-.876-.2217-.2881-.1484-.5361-.3672-.7451-.6572v.7617h-1.2744Zm1.3623-2.7051c0,.5371.085.9346.2539,1.1914.2383.3652.5537.5469.9473.5469.3027,0,.5605-.1289.7744-.3877.2129-.2588.3193-.667.3193-1.2236,0-.5918-.1074-1.0195-.3223-1.2812-.2148-.2627-.4893-.3936-.8252-.3936-.3281,0-.6016.1279-.8203.3838-.2178.2549-.3271.6436-.3271,1.1641Z"/><path d="m342.3923,200.6778v1.2744h-4.8096c.0527-.4814.209-.9385.4688-1.3691.2607-.4316.7754-1.0039,1.543-1.7168.6191-.5762.998-.9668,1.1377-1.1719.1895-.2832.2832-.5625.2832-.8398,0-.3057-.082-.541-.2461-.7051-.165-.165-.3916-.2471-.6816-.2471-.2861,0-.5137.0869-.6836.2588-.1689.1729-.2666.459-.293.8594l-1.3672-.1367c.082-.7549.3369-1.2969.7666-1.626.4297-.3281.9668-.4932,1.6113-.4932.707,0,1.2617.1904,1.665.5713.4043.3809.6055.8545.6055,1.4209,0,.3223-.0576.6289-.1729.9209-.1162.291-.2988.5967-.5498.915-.166.2119-.4648.5166-.8984.9131-.4326.3975-.707.6611-.8223.791-.1162.1309-.209.2578-.2812.3809h2.7246Z"/></g></g></g></g><g><path d="m118.1638,59.5938l1.042.2627c-.2183.8564-.6113,1.5088-1.1787,1.958-.5679.4492-1.2617.6738-2.0815.6738-.8486,0-1.5386-.1729-2.0708-.5176-.5312-.3457-.936-.8467-1.2139-1.502-.2773-.6553-.416-1.3584-.416-2.1104,0-.8203.1567-1.5352.4697-2.1455.3135-.6113.7593-1.0742,1.3379-1.3916.5781-.3164,1.2144-.4756,1.9092-.4756.7876,0,1.4502.2012,1.9873.6016.5371.4014.9111.9648,1.1226,1.6924l-1.0259.2412c-.1826-.5723-.4478-.9902-.7949-1.251-.3472-.2617-.7842-.3926-1.3105-.3926-.605,0-1.1108.1455-1.5176.4355-.4062.29-.6919.6797-.8564,1.168-.1646.4893-.2471.9932-.2471,1.5117,0,.6699.0977,1.2549.293,1.7539.1948.5.4985.873.9102,1.1201s.8574.3701,1.3374.3701c.5835,0,1.0776-.168,1.4824-.5049.4048-.3359.6787-.8359.8218-1.498Z"/><path d="m120.0061,59.502c0-1.0557.2935-1.8389.8809-2.3467.4907-.4229,1.0884-.6338,1.7939-.6338.7842,0,1.4253.2568,1.9229.7705s.7466,1.2236.7466,2.1299c0,.7334-.1099,1.3115-.3306,1.7324-.2197.4199-.5405.7471-.9609.9795-.4209.2334-.8804.3496-1.3779.3496-.7983,0-1.4438-.2559-1.9365-.7686-.4922-.5117-.7383-1.249-.7383-2.2129Zm.9937,0c0,.7305.1592,1.2773.478,1.6416.3188.3633.7197.5449,1.2031.5449.48,0,.8789-.1826,1.1978-.5479s.478-.9219.478-1.6709c0-.7051-.1602-1.2393-.4805-1.6025-.3208-.3643-.7192-.5459-1.1953-.5459-.4834,0-.8843.1807-1.2031.543-.3188.3613-.478.9072-.478,1.6377Z"/><path d="m126.4836,62.3546v-5.7041h.8701v.8105c.4189-.626,1.0239-.9395,1.8154-.9395.3438,0,.6597.0615.9478.1855.2886.123.5044.2852.6475.4854.1431.2012.2437.4385.3008.7148.0356.1787.0537.4922.0537.9395v3.5078h-.9668v-3.4697c0-.3945-.0376-.6885-.1128-.8838s-.2085-.3506-.3999-.4668c-.1919-.1172-.4165-.1748-.6743-.1748-.4116,0-.7671.1309-1.0659.3916-.2993.2617-.4487.7578-.4487,1.4883v3.1152h-.9668Z"/><path d="m134.7121,61.4893l.1396.8545c-.272.0566-.5156.0859-.7305.0859-.3511,0-.623-.0557-.8164-.167-.1934-.1104-.3296-.2568-.4082-.4375s-.1182-.5615-.1182-1.1416v-3.2812h-.709v-.752h.709v-1.4131l.9614-.5801v1.9932h.9722v.752h-.9722v3.335c0,.2764.0171.4531.0513.5322.0337.0781.0894.1416.166.1875.0771.0469.1875.0703.3306.0703.1074,0,.249-.0127.4243-.0381Z"/><path d="m135.6467,62.3546v-5.7041h.8701v.8643c.2222-.4043.4272-.6709.6147-.7998.1885-.1289.395-.1934.6206-.1934.3257,0,.6572.1035.9937.3115l-.333.8965c-.2363-.1396-.4727-.209-.709-.209-.2114,0-.4009.0635-.5693.1904s-.2881.3037-.3599.5293c-.1074.3438-.1611.7197-.1611,1.1279v2.9863h-.9668Z"/><path d="m138.9607,59.502c0-1.0557.2935-1.8389.8809-2.3467.4907-.4229,1.0884-.6338,1.7939-.6338.7842,0,1.4253.2568,1.9229.7705s.7466,1.2236.7466,2.1299c0,.7334-.1099,1.3115-.3306,1.7324-.2197.4199-.5405.7471-.9609.9795-.4209.2334-.8804.3496-1.3779.3496-.7983,0-1.4438-.2559-1.9365-.7686-.4922-.5117-.7383-1.249-.7383-2.2129Zm.9937,0c0,.7305.1592,1.2773.478,1.6416.3188.3633.7197.5449,1.2031.5449.48,0,.8789-.1826,1.1978-.5479s.478-.9219.478-1.6709c0-.7051-.1602-1.2393-.4805-1.6025-.3208-.3643-.7192-.5459-1.1953-.5459-.4834,0-.8843.1807-1.2031.543-.3188.3613-.478.9072-.478,1.6377Z"/><path d="m145.4167,62.3546v-7.874h.9668v7.874h-.9668Z"/><path d="m147.8606,62.3546v-7.874h.9668v7.874h-.9668Z"/><path d="m154.2307,60.5177l.999.123c-.1577.584-.4492,1.0371-.8755,1.3594s-.9702.4834-1.6328.4834c-.8345,0-1.4956-.2568-1.9849-.7705-.4883-.5146-.7329-1.2354-.7329-2.1621,0-.96.2471-1.7051.7412-2.2344.4941-.5303,1.1353-.7949,1.9229-.7949.7627,0,1.3857.2598,1.8691.7783.4834.5195.7251,1.25.7251,2.1914,0,.0576-.002.1436-.0054.2578h-4.2539c.0356.627.2129,1.1064.5317,1.4395s.7163.5,1.1924.5c.3545,0,.6572-.0938.9077-.2793.2505-.1865.4492-.4834.5962-.8916Zm-3.1743-1.5635h3.1851c-.043-.4795-.1646-.8398-.3652-1.0791-.3081-.373-.707-.5586-1.1978-.5586-.4438,0-.8174.1484-1.1196.4453-.3027.2979-.4702.6953-.5024,1.1924Z"/><path d="m156.4329,62.3546v-5.7041h.8701v.8643c.2222-.4043.4272-.6709.6147-.7998.1885-.1289.395-.1934.6206-.1934.3257,0,.6572.1035.9937.3115l-.333.8965c-.2363-.1396-.4727-.209-.709-.209-.2114,0-.4009.0635-.5693.1904s-.2881.3037-.3599.5293c-.1074.3438-.1611.7197-.1611,1.1279v2.9863h-.9668Z"/><path d="m166.5359,62.3546h-.9668v-6.1611c-.2329.2227-.5381.4443-.9155.666-.3779.2227-.7173.3887-1.0181.5v-.9346c.5405-.2549,1.0132-.5625,1.418-.9238.4048-.3623.6909-.7129.8594-1.0527h.623v7.9062Z"/></g><g><path d="m120.3694,77.2589v-7.874h1.042v7.874h-1.042Z"/><path d="m122.9314,73.4239c0-1.3066.3511-2.3301,1.0527-3.0693s1.6079-1.1094,2.7178-1.1094c.7271,0,1.3823.1738,1.9658.5215.5835.3467,1.0288.8311,1.3345,1.4521.3066.6221.4595,1.3262.4595,2.1143,0,.7979-.1611,1.5127-.4834,2.1426-.3223.6309-.7788,1.1074-1.3696,1.4316s-1.228.4863-1.9121.4863c-.7412,0-1.4038-.1797-1.9873-.5371-.5835-.3584-1.0259-.8467-1.3267-1.4668-.3008-.6191-.4512-1.2744-.4512-1.9658Zm1.0742.0166c0,.9482.2554,1.6963.7651,2.2422.5107.5459,1.1504.8193,1.9204.8193.7842,0,1.4297-.2764,1.936-.8271.5068-.5518.7603-1.334.7603-2.3477,0-.6406-.1084-1.2002-.3247-1.6787-.2168-.4775-.5337-.8486-.9512-1.1113-.417-.2637-.8853-.3945-1.4043-.3945-.7378,0-1.3721.2529-1.9043.7598-.5312.5068-.7974,1.3525-.7974,2.5381Z"/><path d="m131.7722,77.2589v-7.874h1.5684l1.8638,5.5752c.1719.5195.2974.9082.376,1.166.0894-.2871.229-.707.4189-1.2627l1.8853-5.4785h1.4019v7.874h-1.0044v-6.5898l-2.2881,6.5898h-.9399l-2.2773-6.7031v6.7031h-1.0044Z"/><path d="m144.217,77.2589h-.9668v-6.1602c-.2329.2217-.5381.4434-.9155.666-.3779.2217-.7173.3887-1.0181.499v-.9346c.5405-.2539,1.0132-.5615,1.418-.9238.4048-.3613.6909-.7119.8594-1.0527h.623v7.9062Z"/><path d="m151.7742,76.3302v.9287h-5.2046c-.0073-.2324.0303-.4561.1128-.6709.1323-.3545.3447-.7041.6362-1.0479.292-.3438.7139-.7412,1.2651-1.1924.856-.7012,1.4341-1.2578,1.7349-1.668.3008-.4092.4512-.7969.4512-1.1621,0-.3838-.1367-.707-.4111-.9697-.2734-.2637-.6309-.3945-1.0713-.3945-.4653,0-.8379.1396-1.1172.4189s-.4209.666-.4243,1.1602l-.9937-.1025c.0679-.7412.3242-1.3057.7681-1.6943s1.04-.583,1.7886-.583c.7554,0,1.3535.21,1.7939.6289s.6606.9375.6606,1.5576c0,.3145-.0645.625-.1934.9287-.1289.3047-.3428.625-.6421.9619-.2988.3359-.7954.7979-1.4902,1.3857-.5801.4863-.9526.8174-1.1172.9902-.1646.1738-.3008.3486-.4082.5244h3.8618Z"/><path d="m156.8874,74.171v-.9238l3.3354-.0059v2.9219c-.5122.4082-1.04.7158-1.5845.9209-.5444.2061-1.103.3096-1.6758.3096-.7734,0-1.4761-.166-2.1084-.4971-.6318-.3311-1.1089-.8105-1.4312-1.4365-.3223-.627-.4834-1.3271-.4834-2.1006,0-.7656.1602-1.4814.481-2.1455.3203-.6641.7812-1.1572,1.3828-1.4795s1.2944-.4834,2.0786-.4834c.5693,0,1.084.0918,1.5444.2764.46.1846.8208.4414,1.082.7705.2612.3301.46.7598.5962,1.2891l-.9399.2578c-.1182-.4004-.2651-.7158-.4404-.9453-.1753-.2285-.4263-.4121-.752-.5508-.3257-.1377-.6875-.2061-1.085-.2061-.4761,0-.8882.0723-1.2354.2168-.3472.1455-.6274.3359-.8408.5723-.2129.2363-.3784.4961-.4966.7793-.2007.4863-.3008,1.0146-.3008,1.584,0,.7021.1206,1.2891.3628,1.7617.2412.4727.5933.8242,1.0552,1.0527.4619.2295.9526.3438,1.4717.3438.4512,0,.8916-.0869,1.3213-.2607.4297-.1729.7554-.3584.9775-.5557v-1.4658h-2.3149Z"/></g><g><path d="m283.7663,77.2589v-7.874h1.042v7.874h-1.042Z"/><path d="m286.3279,73.4239c0-1.3066.3516-2.3301,1.0527-3.0693.7021-.7393,1.6084-1.1094,2.7178-1.1094.7275,0,1.3828.1738,1.9658.5215.584.3467,1.0293.8311,1.335,1.4521.3066.6221.459,1.3262.459,2.1143,0,.7979-.1611,1.5127-.4834,2.1426-.3223.6309-.7783,1.1074-1.3691,1.4316s-1.2285.4863-1.9121.4863c-.7412,0-1.4043-.1797-1.9873-.5371-.584-.3584-1.0264-.8467-1.3271-1.4668-.3008-.6191-.4512-1.2744-.4512-1.9658Zm1.0742.0166c0,.9482.2559,1.6963.7656,2.2422.5107.5459,1.1504.8193,1.9199.8193.7842,0,1.4297-.2764,1.9365-.8271.5068-.5518.7598-1.334.7598-2.3477,0-.6406-.1084-1.2002-.3242-1.6787-.2168-.4775-.5342-.8486-.9512-1.1113-.417-.2637-.8857-.3945-1.4043-.3945-.7383,0-1.3721.2529-1.9043.7598-.5312.5068-.7979,1.3525-.7979,2.5381Z"/><path d="m295.1687,77.2589v-7.874h1.5684l1.8643,5.5752c.1719.5195.2969.9082.376,1.166.0889-.2871.2285-.707.4189-1.2627l1.8848-5.4785h1.4023v7.874h-1.0049v-6.5898l-2.2881,6.5898h-.9395l-2.2773-6.7031v6.7031h-1.0049Z"/><path d="m307.614,77.2589h-.9668v-6.1602c-.2334.2217-.5381.4434-.916.666-.3779.2217-.7168.3887-1.0176.499v-.9346c.54-.2539,1.0127-.5615,1.418-.9238.4043-.3613.6904-.7119.8594-1.0527h.623v7.9062Z"/><path d="m315.1706,76.3302v.9287h-5.2041c-.0078-.2324.0303-.4561.1123-.6709.1328-.3545.3447-.7041.6367-1.0479s.7139-.7412,1.2646-1.1924c.8564-.7012,1.4346-1.2578,1.7354-1.668.3008-.4092.4512-.7969.4512-1.1621,0-.3838-.1367-.707-.4111-.9697-.2734-.2637-.6309-.3945-1.0713-.3945-.4658,0-.8379.1396-1.1172.4189s-.4209.666-.4248,1.1602l-.9932-.1025c.0674-.7412.3242-1.3057.7676-1.6943.4443-.3887,1.04-.583,1.7891-.583.7549,0,1.3535.21,1.7939.6289s.6602.9375.6602,1.5576c0,.3145-.0645.625-.1934.9287-.1289.3047-.3428.625-.6416.9619-.2988.3359-.7959.7979-1.4902,1.3857-.5801.4863-.9531.8174-1.1172.9902-.165.1738-.3008.3486-.4082.5244h3.8613Z"/><path d="m320.2839,74.171v-.9238l3.3359-.0059v2.9219c-.5127.4082-1.04.7158-1.585.9209-.5439.2061-1.1025.3096-1.6758.3096-.7734,0-1.4756-.166-2.1084-.4971-.6318-.3311-1.1084-.8105-1.4307-1.4365-.3223-.627-.4834-1.3271-.4834-2.1006,0-.7656.1602-1.4814.4805-2.1455s.7812-1.1572,1.3828-1.4795,1.2949-.4834,2.0791-.4834c.5693,0,1.084.0918,1.5439.2764s.8213.4414,1.082.7705c.2617.3301.46.7598.5967,1.2891l-.9404.2578c-.1182-.4004-.2646-.7158-.4404-.9453-.1748-.2285-.4258-.4121-.752-.5508-.3252-.1377-.6875-.2061-1.085-.2061-.4756,0-.8877.0723-1.2354.2168-.3467.1455-.627.3359-.8408.5723-.2129.2363-.3779.4961-.4961.7793-.2012.4863-.3008,1.0146-.3008,1.584,0,.7021.1201,1.2891.3623,1.7617.2412.4727.5938.8242,1.0557,1.0527.4619.2295.9521.3438,1.4717.3438.4512,0,.8916-.0869,1.3213-.2607.4297-.1729.7549-.3584.9775-.5557v-1.4658h-2.3154Z"/></g><g><path d="m281.5613,59.5938l1.042.2627c-.2178.8564-.6113,1.5088-1.1787,1.958s-1.2617.6738-2.0815.6738c-.8486,0-1.5386-.1729-2.0708-.5176-.5312-.3457-.936-.8467-1.2139-1.502-.2773-.6553-.416-1.3584-.416-2.1104,0-.8203.1567-1.5352.4697-2.1455.3135-.6113.7593-1.0742,1.3379-1.3916.5781-.3164,1.2144-.4756,1.9092-.4756.7876,0,1.4502.2012,1.9873.6016.5371.4014.9111.9648,1.123,1.6924l-1.0264.2412c-.1826-.5723-.4473-.9902-.7949-1.251-.3472-.2617-.7842-.3926-1.3105-.3926-.605,0-1.1108.1455-1.5176.4355-.4062.29-.6919.6797-.8564,1.168-.1646.4893-.2471.9932-.2471,1.5117,0,.6699.0977,1.2549.293,1.7539.1948.5.4985.873.9102,1.1201s.8574.3701,1.3374.3701c.5835,0,1.0776-.168,1.4829-.5049.4043-.3359.6787-.8359.8213-1.498Z"/><path d="m283.404,59.502c0-1.0557.293-1.8389.8809-2.3467.4902-.4229,1.0879-.6338,1.7939-.6338.7842,0,1.4248.2568,1.9229.7705.4971.5137.7461,1.2236.7461,2.1299,0,.7334-.1094,1.3115-.3301,1.7324-.2197.4199-.541.7471-.9609.9795-.4209.2334-.8809.3496-1.3779.3496-.7988,0-1.4443-.2559-1.9365-.7686-.4922-.5117-.7383-1.249-.7383-2.2129Zm.9932,0c0,.7305.1592,1.2773.4785,1.6416.3184.3633.7197.5449,1.2031.5449.4795,0,.8789-.1826,1.1973-.5479.3193-.3652.4785-.9219.4785-1.6709,0-.7051-.1602-1.2393-.4805-1.6025-.3213-.3643-.7197-.5459-1.1953-.5459-.4834,0-.8848.1807-1.2031.543-.3193.3613-.4785.9072-.4785,1.6377Z"/><path d="m289.8816,62.3546v-5.7041h.8701v.8105c.4189-.626,1.0234-.9395,1.8154-.9395.3438,0,.6592.0615.9473.1855.2891.123.5049.2852.6475.4854.1436.2012.2441.4385.3008.7148.0361.1787.0537.4922.0537.9395v3.5078h-.9668v-3.4697c0-.3945-.0371-.6885-.1123-.8838s-.209-.3506-.4004-.4668c-.1914-.1172-.416-.1748-.6738-.1748-.4121,0-.7676.1309-1.0664.3916-.2988.2617-.4482.7578-.4482,1.4883v3.1152h-.9668Z"/><path d="m298.1101,61.4893l.1396.8545c-.2725.0566-.5156.0859-.7305.0859-.3516,0-.623-.0557-.8164-.167-.1934-.1104-.3301-.2568-.4082-.4375-.0791-.1807-.1182-.5615-.1182-1.1416v-3.2812h-.709v-.752h.709v-1.4131l.9609-.5801v1.9932h.9727v.752h-.9727v3.335c0,.2764.0176.4531.0518.5322.0332.0781.0889.1416.166.1875.0771.0469.1875.0703.3301.0703.1074,0,.249-.0127.4248-.0381Z"/><path d="m299.0447,62.3546v-5.7041h.8701v.8643c.2217-.4043.4268-.6709.6143-.7998.1885-.1289.3955-.1934.6211-.1934.3252,0,.6572.1035.9932.3115l-.333.8965c-.2363-.1396-.4727-.209-.709-.209-.2109,0-.4004.0635-.5693.1904-.168.127-.2881.3037-.3594.5293-.1074.3438-.1611.7197-.1611,1.1279v2.9863h-.9668Z"/><path d="m302.3581,59.502c0-1.0557.2939-1.8389.8809-2.3467.4912-.4229,1.0889-.6338,1.7939-.6338.7842,0,1.4258.2568,1.9229.7705.498.5137.7471,1.2236.7471,2.1299,0,.7334-.1104,1.3115-.3311,1.7324-.2197.4199-.54.7471-.9609.9795-.4209.2334-.8799.3496-1.3779.3496-.7979,0-1.4434-.2559-1.9365-.7686-.4922-.5117-.7383-1.249-.7383-2.2129Zm.9941,0c0,.7305.1592,1.2773.4775,1.6416.3193.3633.7197.5449,1.2031.5449.4805,0,.8789-.1826,1.1982-.5479.3184-.3652.4775-.9219.4775-1.6709,0-.7051-.1602-1.2393-.4805-1.6025-.3203-.3643-.7188-.5459-1.1953-.5459-.4834,0-.8838.1807-1.2031.543-.3184.3613-.4775.9072-.4775,1.6377Z"/><path d="m308.8142,62.3546v-7.874h.9668v7.874h-.9668Z"/><path d="m311.2585,62.3546v-7.874h.9668v7.874h-.9668Z"/><path d="m317.6287,60.5177l.999.123c-.1582.584-.4492,1.0371-.876,1.3594-.4258.3223-.9697.4834-1.6328.4834-.834,0-1.4951-.2568-1.9844-.7705-.4883-.5146-.7334-1.2354-.7334-2.1621,0-.96.2471-1.7051.7412-2.2344.4941-.5303,1.1357-.7949,1.9229-.7949.7627,0,1.3857.2598,1.8691.7783.4834.5195.7256,1.25.7256,2.1914,0,.0576-.002.1436-.0059.2578h-4.2539c.0361.627.2129,1.1064.5322,1.4395.3184.333.7158.5,1.1924.5.3545,0,.6572-.0938.9072-.2793.251-.1865.4492-.4834.5967-.8916Zm-3.1748-1.5635h3.1855c-.043-.4795-.165-.8398-.3652-1.0791-.3086-.373-.707-.5586-1.1982-.5586-.4434,0-.8174.1484-1.1191.4453-.3027.2979-.4707.6953-.5029,1.1924Z"/><path d="m319.8308,62.3546v-5.7041h.8701v.8643c.2217-.4043.4268-.6709.6143-.7998.1885-.1289.3955-.1934.6211-.1934.3252,0,.6572.1035.9932.3115l-.333.8965c-.2363-.1396-.4727-.209-.709-.209-.2109,0-.4004.0635-.5693.1904-.168.127-.2881.3037-.3594.5293-.1074.3438-.1611.7197-.1611,1.1279v2.9863h-.9668Z"/><path d="m331.3728,61.4249v.9297h-5.2041c-.0078-.2334.0303-.457.1123-.6719.1328-.3545.3447-.7031.6367-1.0469s.7139-.7412,1.2646-1.1924c.8564-.7021,1.4346-1.2578,1.7354-1.668s.4512-.7979.4512-1.1631c0-.3828-.1367-.7061-.4111-.9688-.2734-.2637-.6309-.3955-1.0713-.3955-.4658,0-.8379.1396-1.1172.4189s-.4209.666-.4248,1.1602l-.9932-.1016c.0674-.7412.3242-1.3066.7676-1.6943.4443-.3887,1.04-.583,1.7891-.583.7549,0,1.3535.209,1.7939.6279s.6602.9385.6602,1.5576c0,.3154-.0645.625-.1934.9297-.1289.3037-.3428.625-.6416.9609-.2988.3369-.7959.7988-1.4902,1.3857-.5801.4873-.9531.8174-1.1172.9912-.165.1738-.3008.3486-.4082.5234h3.8613Z"/></g><g><polyline class="uuid-1ed00222-418c-4f8d-b202-05b3deeb0c6f" points="318.8407 105.3982 318.8406 94.6424 132.6765 94.6424 132.9971 148.1006"/><polyline class="uuid-e0ec8ccf-b20e-4d62-ba45-b71cad8b29ce" points="318.8407 105.3982 318.8406 94.6424 132.6765 94.6424 132.9971 148.1006"/></g><g><line class="uuid-1ed00222-418c-4f8d-b202-05b3deeb0c6f" x1="117.0628" y1="120.4926" x2="112.9192" y2="148.1006"/><line class="uuid-e0ec8ccf-b20e-4d62-ba45-b71cad8b29ce" x1="117.0628" y1="120.4926" x2="112.9192" y2="148.1006"/></g><g><line class="uuid-1ed00222-418c-4f8d-b202-05b3deeb0c6f" x1="280.4603" y1="120.4926" x2="276.3167" y2="148.1006"/><line class="uuid-e5a3e59e-e7fa-4baf-ad48-e81cc40c14ac" x1="280.4603" y1="120.4926" x2="276.3167" y2="148.1006"/></g><g><line class="uuid-1ed00222-418c-4f8d-b202-05b3deeb0c6f" x1="329.6656" y1="162.94" x2="303.2103" y2="190.803"/><line class="uuid-e5a3e59e-e7fa-4baf-ad48-e81cc40c14ac" x1="329.6656" y1="162.94" x2="303.2103" y2="190.803"/></g><g><line class="uuid-1ed00222-418c-4f8d-b202-05b3deeb0c6f" x1="164.462" y1="162.94" x2="140.1264" y2="190.803"/><line class="uuid-e0ec8ccf-b20e-4d62-ba45-b71cad8b29ce" x1="164.462" y1="162.94" x2="140.1264" y2="190.803"/></g><g><polyline class="uuid-1ed00222-418c-4f8d-b202-05b3deeb0c6f" points="166.0671 105.3982 166.0671 101.1671 296.8557 101.1671 296.8557 148.1006"/><polyline class="uuid-e5a3e59e-e7fa-4baf-ad48-e81cc40c14ac" points="166.0671 105.3982 166.0671 101.1671 296.8557 101.1671 296.8557 148.1006"/></g></g><g><g><path d="m25.2561,304.5489v-7.874h5.312v.9297h-4.27v2.4375h3.6953v.9297h-3.6953v3.5771h-1.042Z"/><path d="m31.8035,297.7862v-1.1113h.9668v1.1113h-.9668Zm0,6.7627v-5.7041h.9668v5.7041h-.9668Z"/><path d="m34.2312,304.5489v-5.7041h.8701v.8652c.2222-.4053.4272-.6719.6147-.8008.1885-.1289.395-.1934.6206-.1934.3257,0,.6572.1035.9937.3115l-.333.8975c-.2363-.1406-.4727-.21-.709-.21-.2114,0-.4009.0635-.5693.1904s-.2881.3037-.3599.5293c-.1074.3438-.1611.7197-.1611,1.1279v2.9863h-.9668Z"/><path d="m37.5183,302.8468l.9561-.1504c.0537.3828.2031.6758.4487.8809.2451.2031.5879.3057,1.0283.3057.4438,0,.7734-.0908.9883-.2715s.3223-.3926.3223-.6357c0-.2188-.0947-.3906-.2847-.5156-.1323-.0859-.4619-.1953-.9883-.3281-.709-.1797-1.2007-.334-1.4741-.4648-.2744-.1309-.4819-.3115-.623-.542-.1416-.2314-.2124-.4863-.2124-.7656,0-.2549.0581-.4893.1743-.7061.1167-.2168.2749-.3965.4756-.54.1504-.1104.3555-.2051.6152-.2822.2593-.0762.5376-.1152.835-.1152.4478,0,.8408.0645,1.1787.1934.3389.1289.5884.3037.7495.5234.1611.2207.272.5156.333.8838l-.9453.1289c-.043-.2939-.1675-.5225-.3735-.6875-.2056-.165-.4966-.2471-.8726-.2471-.4438,0-.7607.0732-.9507.2207-.1899.1465-.2847.3184-.2847.5156,0,.125.0396.2383.1182.3379.0786.1035.2021.1895.3706.2578.0967.0352.3813.1182.854.2471.6841.1826,1.1611.332,1.4312.4482.2705.1172.4829.2852.6367.5078s.231.498.231.8271c0,.3223-.0942.626-.2817.9102-.1885.2852-.4595.5049-.814.6611-.3545.1553-.7554.2334-1.2031.2334-.7412,0-1.3062-.1533-1.6948-.4619-.3882-.3086-.6362-.7646-.7437-1.3691Z"/><path d="m45.5159,303.6846l.1396.8535c-.272.0566-.5156.0859-.7305.0859-.3511,0-.623-.0557-.8164-.166-.1934-.1113-.3296-.2578-.4082-.4385s-.1182-.5615-.1182-1.1416v-3.2812h-.709v-.752h.709v-1.4121l.9614-.5801v1.9922h.9722v.752h-.9722v3.3359c0,.2754.0171.4531.0513.5312.0337.0781.0894.1416.166.1875.0771.0469.1875.0703.3306.0703.1074,0,.249-.0127.4243-.0371Z"/><path d="m23.0032,315.2198l.9829-.0859c.0464.3936.1548.7168.3247.9688.1704.2529.4346.457.7925.6123.3579.1562.7607.2334,1.2085.2334.3975,0,.7485-.0586,1.0527-.1768s.5308-.2803.6797-.4863c.1484-.2061.2227-.4307.2227-.6738,0-.2471-.0718-.4629-.2148-.6475-.1431-.1836-.3794-.3389-.709-.4648-.2114-.082-.6787-.21-1.4019-.3838-.7231-.1729-1.23-.3369-1.52-.4912-.376-.1973-.6562-.4414-.8408-.7334-.1841-.292-.2764-.6182-.2764-.9795,0-.3984.1128-.7695.3384-1.1152s.5552-.6074.9883-.7871c.4331-.1787.915-.2676,1.4448-.2676.5835,0,1.0986.0938,1.5439.2812.4463.1885.7891.4648,1.0288.8301s.3687.7793.3867,1.2402l-.999.0762c-.0537-.498-.2354-.874-.5454-1.1289-.3096-.2539-.7671-.3809-1.3721-.3809-.6304,0-1.0894.1152-1.3779.3467-.2881.2305-.4321.5088-.4321.835,0,.2832.1021.5156.3062.6982.2007.1826.7241.3701,1.5713.5615.8467.1914,1.4277.3594,1.7427.502.4585.2109.7969.4785,1.0151.8027s.3276.6973.3276,1.1201c0,.4189-.1201.8135-.3599,1.1846-.2397.3701-.5845.6582-1.0342.8643-.4492.2061-.9551.3096-1.5171.3096-.7124,0-1.3096-.1045-1.7915-.3125-.4814-.207-.8594-.5195-1.1328-.9365-.2744-.417-.4185-.8896-.4326-1.415Z"/><path d="m30.571,317.7491v-7.874h.9668v2.8252c.4512-.5234,1.0205-.7842,1.708-.7842.4224,0,.7896.083,1.1011.25.3115.166.5342.3965.6689.6904.1338.293.2012.7188.2012,1.2773v3.6152h-.9668v-3.6152c0-.4824-.1045-.835-.3145-1.0547-.209-.2207-.5054-.3301-.8887-.3301-.2866,0-.5557.0742-.8086.2227-.252.1484-.4321.3496-.5396.6035-.1074.2549-.1611.6055-.1611,1.0527v3.1211h-.9668Z"/><path d="m40.5935,315.9122l.999.124c-.1577.583-.4492,1.0361-.8755,1.3584s-.9702.4834-1.6328.4834c-.8345,0-1.4956-.2568-1.9849-.7705-.4883-.5146-.7329-1.2354-.7329-2.1621,0-.96.2471-1.7041.7412-2.2344s1.1353-.7949,1.9229-.7949c.7627,0,1.3857.2598,1.8691.7783.4834.5195.7251,1.25.7251,2.1914,0,.0576-.002.1436-.0054.2578h-4.2539c.0356.627.2129,1.1074.5317,1.4395.3188.334.7163.5,1.1924.5.3545,0,.6572-.0938.9077-.2793s.4492-.4834.5962-.8916Zm-3.1743-1.5635h3.1851c-.043-.4795-.1646-.8398-.3652-1.0791-.3081-.3721-.707-.5586-1.1978-.5586-.4438,0-.8174.1484-1.1196.4463-.3027.2969-.4702.6943-.5024,1.1914Z"/><path d="m42.7849,317.7491v-7.874h.9668v7.874h-.9668Z"/><path d="m45.4812,317.7491v-4.9521h-.854v-.752h.854v-.6064c0-.3838.0342-.668.1021-.8545.0933-.251.2568-.4541.4917-.6094.2344-.1562.563-.2334.9854-.2334.272,0,.5728.0312.9023.0957l-.145.8438c-.2007-.0352-.3901-.0537-.5693-.0537-.2935,0-.5015.0625-.623.1885-.1216.125-.1826.3594-.1826.7031v.5264h1.1118v.752h-1.1118v4.9521h-.9614Z"/></g><g><path d="m125.7942,276.0284v-7.874h1.042v7.874h-1.042Z"/><path d="m128.3562,272.1934c0-1.3076.3511-2.3301,1.0527-3.0693.7017-.7402,1.6079-1.1094,2.7178-1.1094.7271,0,1.3823.1738,1.9658.5205.5835.3477,1.0288.832,1.3345,1.4531.3066.6211.4595,1.3262.4595,2.1133,0,.7988-.1611,1.5127-.4834,2.1436-.3223.6299-.7788,1.1074-1.3696,1.4316-.5908.3232-1.228.4854-1.9121.4854-.7412,0-1.4038-.1787-1.9873-.5371-.5835-.3574-1.0259-.8467-1.3267-1.4658-.3008-.6201-.4512-1.2754-.4512-1.9658Zm1.0742.0156c0,.9492.2554,1.6963.7651,2.2432.5107.5459,1.1504.8184,1.9204.8184.7842,0,1.4297-.2754,1.936-.8271.5068-.5508.7603-1.334.7603-2.3467,0-.6416-.1084-1.2002-.3247-1.6787-.2168-.4775-.5337-.8486-.9512-1.1113-.417-.2637-.8853-.3955-1.4043-.3955-.7378,0-1.3721.2539-1.9043.7607-.5312.5059-.7974,1.3525-.7974,2.5371Z"/><path d="m137.197,276.0284v-7.874h1.5684l1.8638,5.5752c.1719.5186.2974.9072.376,1.165.0894-.2861.229-.707.4189-1.2617l1.8853-5.4785h1.4019v7.874h-1.0044v-6.5908l-2.2881,6.5908h-.9399l-2.2773-6.7031v6.7031h-1.0044Z"/><path d="m147.9768,276.0284l3.0239-7.874h1.1226l3.2227,7.874h-1.187l-.9185-2.3848h-3.2925l-.8647,2.3848h-1.1064Zm2.272-3.2334h2.6694l-.8218-2.1807c-.2505-.6631-.437-1.207-.5586-1.6328-.1001.5049-.2417,1.0059-.4243,1.5039l-.8647,2.3096Z"/></g><g><path d="m288.8982,276.0284v-7.874h1.042v7.874h-1.042Z"/><path d="m291.4607,272.1934c0-1.3076.3506-2.3301,1.0527-3.0693.7012-.7402,1.6074-1.1094,2.7178-1.1094.7266,0,1.3818.1738,1.9658.5205.583.3477,1.0283.832,1.334,1.4531.3066.6211.46,1.3262.46,2.1133,0,.7988-.1611,1.5127-.4834,2.1436-.3223.6299-.7793,1.1074-1.3701,1.4316-.5908.3232-1.2275.4854-1.9121.4854-.7412,0-1.4033-.1787-1.9873-.5371-.583-.3574-1.0254-.8467-1.3262-1.4658-.3008-.6201-.4512-1.2754-.4512-1.9658Zm1.0742.0156c0,.9492.2549,1.6963.7646,2.2432.5107.5459,1.1504.8184,1.9209.8184.7842,0,1.4297-.2754,1.9355-.8271.5068-.5508.7607-1.334.7607-2.3467,0-.6416-.1084-1.2002-.3252-1.6787-.2168-.4775-.5332-.8486-.9512-1.1113-.417-.2637-.8848-.3955-1.4043-.3955-.7373,0-1.3721.2539-1.9043.7607-.5312.5059-.7969,1.3525-.7969,2.5371Z"/><path d="m300.3015,276.0284v-7.874h1.5684l1.8633,5.5752c.1719.5186.2979.9072.376,1.165.0898-.2861.2295-.707.4189-1.2617l1.8857-5.4785h1.4014v7.874h-1.0039v-6.5908l-2.2881,6.5908h-.9404l-2.2773-6.7031v6.7031h-1.0039Z"/><path d="m312.5095,276.0284v-7.874h2.9541c.6016,0,1.084.0791,1.4473.2393.3643.1592.6484.4043.8545.7354s.3086.6777.3086,1.0391c0,.3369-.0908.6533-.2734.9512-.1826.2969-.459.5371-.8271.7197.4756.1396.8418.3779,1.0977.7139.2568.3369.3848.7344.3848,1.1924,0,.3691-.0781.7119-.2344,1.0293-.1553.3164-.3477.5605-.5771.7324-.2285.1719-.5166.3018-.8623.3896-.3447.0879-.7686.1318-1.2695.1318h-3.0029Zm1.042-4.5654h1.7031c.4619,0,.793-.0303.9932-.0918.2656-.0781.4648-.209.5986-.3916.1348-.1826.2021-.4121.2021-.6875,0-.2617-.0625-.4912-.1885-.6904-.125-.1982-.3037-.335-.5371-.4082-.2324-.0732-.6318-.1104-1.1973-.1104h-1.5742v2.3799Zm0,3.6357h1.9609c.3359,0,.5723-.0127.709-.0371.2393-.043.4404-.1152.6016-.2148.1611-.1006.293-.2461.3975-.4375.1035-.1924.1553-.4131.1553-.6641,0-.293-.0752-.5488-.2256-.7646-.1504-.2168-.3584-.3691-.626-.457-.2666-.0879-.6504-.1318-1.1514-.1318h-1.8213v2.707Z"/></g><g><rect class="uuid-37f36622-20b9-496d-a9f7-5e33d69cc43b" x="58.3609" y="285.9516" width="163.3972" height="44.5261"/><rect class="uuid-ddd23e52-62d2-4b65-b1b6-e247f631ce34" x="78.3609" y="307.3235" width="15.0943" height="15.0943"/><rect class="uuid-ddd23e52-62d2-4b65-b1b6-e247f631ce34" x="93.4552" y="307.3235" width="15.0943" height="15.0943"/><rect class="uuid-ddd23e52-62d2-4b65-b1b6-e247f631ce34" x="171.5695" y="307.3235" width="15.0943" height="15.0943"/><rect class="uuid-ddd23e52-62d2-4b65-b1b6-e247f631ce34" x="186.6638" y="307.3235" width="15.0943" height="15.0943"/><path d="m87.0627,303.4512h-1.3721v-5.1709c-.5015.4688-1.0923.8154-1.7725,1.04v-1.2451c.3579-.1172.7471-.3389,1.167-.666s.708-.709.8643-1.1455h1.1133v7.1875Z"/><path d="m103.28,302.1768v1.2744h-4.8096c.0522-.4814.2085-.9385.4688-1.3691.2603-.4316.7749-1.0039,1.543-1.7168.6187-.5762.9976-.9668,1.1377-1.1719.189-.2832.2832-.5625.2832-.8398,0-.3057-.082-.541-.2466-.7051-.1646-.165-.3916-.2471-.6812-.2471-.2866,0-.5142.0869-.6836.2588-.1694.1729-.2671.459-.293.8594l-1.3672-.1367c.0815-.7549.3369-1.2969.7666-1.626.4297-.3281.9668-.4932,1.6113-.4932.7065,0,1.2612.1904,1.665.5713s.6055.8545.6055,1.4209c0,.3223-.0576.6289-.1733.9209-.1157.291-.2988.5967-.5493.915-.166.2119-.4653.5166-.8984.9131-.4331.3975-.707.6611-.8228.791-.1157.1309-.209.2578-.2808.3809h2.7246Z"/><path d="m176.7117,301.5518l1.3281-.1611c.0425.3389.1562.5977.3418.7764.1855.1797.4102.2686.6738.2686.2832,0,.5215-.1074.7153-.3223s.2905-.5039.2905-.8691c0-.3447-.0928-.6182-.2783-.8203-.1855-.2012-.4116-.3027-.6787-.3027-.1758,0-.3857.0342-.6299.1025l.1514-1.1182c.3711.0098.6543-.0703.8496-.2412s.293-.3984.293-.6816c0-.2402-.0718-.4326-.2148-.5762-.1431-.1426-.3335-.2148-.5713-.2148-.2344,0-.4346.082-.6006.2441-.166.1631-.2671.4004-.3027.7129l-1.2646-.2148c.0879-.4326.2207-.7783.3979-1.0371s.4248-.4629.7422-.6104c.3174-.1484.6729-.2227,1.0669-.2227.6738,0,1.2144.2148,1.6211.6445.3354.3516.5029.749.5029,1.1914,0,.6289-.3433,1.1299-1.0303,1.5039.4102.0879.7383.2852.9839.5908.2456.3066.3687.6758.3687,1.1084,0,.6289-.2295,1.1641-.6885,1.6064-.459.4434-1.0303.6641-1.7139.6641-.6479,0-1.1851-.1865-1.6113-.5586-.4263-.373-.6738-.8604-.7422-1.4629Z"/><path d="m194.5456,303.4512v-1.4404h-2.9297v-1.2012l3.1055-4.5459h1.1523v4.541h.8887v1.2061h-.8887v1.4404h-1.3281Zm0-2.6465v-2.4463l-1.6455,2.4463h1.6455Z"/></g><g><rect class="uuid-37f36622-20b9-496d-a9f7-5e33d69cc43b" x="221.7581" y="285.9516" width="163.3972" height="44.5261"/><rect class="uuid-ddd23e52-62d2-4b65-b1b6-e247f631ce34" x="241.7581" y="307.3235" width="15.0943" height="15.0943"/><rect class="uuid-ddd23e52-62d2-4b65-b1b6-e247f631ce34" x="256.8524" y="307.3235" width="15.0943" height="15.0943"/><rect class="uuid-ddd23e52-62d2-4b65-b1b6-e247f631ce34" x="334.9666" y="307.3235" width="15.0943" height="15.0943"/><rect class="uuid-ddd23e52-62d2-4b65-b1b6-e247f631ce34" x="350.0609" y="307.3235" width="15.0943" height="15.0943"/><path d="m250.4597,303.4512h-1.3721v-5.1709c-.5015.4688-1.0923.8154-1.7725,1.04v-1.2451c.3579-.1172.7471-.3389,1.167-.666s.708-.709.8643-1.1455h1.1133v7.1875Z"/><path d="m266.6775,302.1768v1.2744h-4.8096c.0522-.4814.2085-.9385.4688-1.3691.2603-.4316.7749-1.0039,1.543-1.7168.6187-.5762.9976-.9668,1.1377-1.1719.189-.2832.2832-.5625.2832-.8398,0-.3057-.082-.541-.2466-.7051-.1646-.165-.3916-.2471-.6812-.2471-.2866,0-.5142.0869-.6836.2588-.1694.1729-.2671.459-.293.8594l-1.3672-.1367c.0815-.7549.3369-1.2969.7666-1.626.4297-.3281.9668-.4932,1.6113-.4932.7065,0,1.2612.1904,1.665.5713s.6055.8545.6055,1.4209c0,.3223-.0576.6289-.1733.9209-.1157.291-.2988.5967-.5493.915-.166.2119-.4653.5166-.8984.9131-.4331.3975-.707.6611-.8228.791-.1157.1309-.209.2578-.2808.3809h2.7246Z"/><path d="m340.1091,301.5518l1.3281-.1611c.042.3389.1562.5977.3418.7764.1855.1797.4102.2686.6738.2686.2832,0,.5215-.1074.7148-.3223.1943-.2148.291-.5039.291-.8691,0-.3447-.0928-.6182-.2783-.8203-.1855-.2012-.4121-.3027-.6787-.3027-.1758,0-.3857.0342-.6299.1025l.1514-1.1182c.3711.0098.6543-.0703.8496-.2412s.293-.3984.293-.6816c0-.2402-.0723-.4326-.2148-.5762-.1436-.1426-.334-.2148-.5713-.2148-.2344,0-.4346.082-.6006.2441-.166.1631-.2676.4004-.3027.7129l-1.2646-.2148c.0879-.4326.2207-.7783.3975-1.0371.1777-.2588.4248-.4629.7422-.6104.3174-.1484.6729-.2227,1.0674-.2227.6738,0,1.2139.2148,1.6211.6445.335.3516.5029.749.5029,1.1914,0,.6289-.3438,1.1299-1.0303,1.5039.4102.0879.7383.2852.9834.5908.2461.3066.3691.6758.3691,1.1084,0,.6289-.2295,1.1641-.6885,1.6064-.459.4434-1.0303.6641-1.7139.6641-.6484,0-1.1855-.1865-1.6113-.5586-.4268-.373-.6738-.8604-.7422-1.4629Z"/><path d="m357.9421,303.4512v-1.4404h-2.9297v-1.2012l3.1055-4.5459h1.1523v4.541h.8887v1.2061h-.8887v1.4404h-1.3281Zm0-2.6465v-2.4463l-1.6455,2.4463h1.6455Z"/></g><g><rect class="uuid-37f36622-20b9-496d-a9f7-5e33d69cc43b" x="58.3609" y="375.0037" width="163.3972" height="44.5261"/><rect class="uuid-ddd23e52-62d2-4b65-b1b6-e247f631ce34" x="78.3609" y="396.3756" width="15.0943" height="15.0943"/><rect class="uuid-ddd23e52-62d2-4b65-b1b6-e247f631ce34" x="93.4552" y="396.3756" width="15.0943" height="15.0943"/><rect class="uuid-ddd23e52-62d2-4b65-b1b6-e247f631ce34" x="171.5695" y="396.3756" width="15.0943" height="15.0943"/><rect class="uuid-ddd23e52-62d2-4b65-b1b6-e247f631ce34" x="186.6638" y="396.3756" width="15.0943" height="15.0943"/><path d="m87.0627,392.503h-1.3721v-5.1709c-.5015.4688-1.0923.8154-1.7725,1.04v-1.2451c.3579-.1172.7471-.3389,1.167-.666s.708-.709.8643-1.1455h1.1133v7.1875Z"/><path d="m103.28,391.2296v1.2734h-4.8096c.0522-.4814.2085-.9375.4688-1.3691s.7749-1.0039,1.543-1.7168c.6187-.5762.9976-.9668,1.1377-1.1719.189-.2832.2832-.5625.2832-.8398,0-.3057-.082-.541-.2466-.7051s-.3916-.2461-.6812-.2461c-.2866,0-.5142.0859-.6836.2578-.1694.1729-.2671.459-.293.8594l-1.3672-.1367c.0815-.7549.3369-1.2969.7666-1.625.4297-.3291.9668-.4941,1.6113-.4941.7065,0,1.2612.1914,1.665.5723s.6055.8535.6055,1.4199c0,.3223-.0576.6289-.1733.9209s-.2988.5967-.5493.915c-.166.2119-.4653.5166-.8984.9141-.4331.3965-.707.6602-.8228.791-.1157.1299-.209.2568-.2808.3809h2.7246Z"/><path d="m176.7117,390.6046l1.3281-.1621c.0425.3389.1562.5977.3418.7773.1855.1787.4102.2676.6738.2676.2832,0,.5215-.1074.7153-.3223s.2905-.5039.2905-.8691c0-.3447-.0928-.6182-.2783-.8203-.1855-.2012-.4116-.3027-.6787-.3027-.1758,0-.3857.0352-.6299.1035l.1514-1.1191c.3711.0098.6543-.0703.8496-.2412s.293-.3975.293-.6807c0-.2412-.0718-.4336-.2148-.5762-.1431-.1436-.3335-.2148-.5713-.2148-.2344,0-.4346.0811-.6006.2441-.166.1621-.2671.4004-.3027.7129l-1.2646-.2148c.0879-.4336.2207-.7793.3979-1.0381s.4248-.4619.7422-.6104.6729-.2227,1.0669-.2227c.6738,0,1.2144.2148,1.6211.6445.3354.3516.5029.749.5029,1.1914,0,.6289-.3433,1.1299-1.0303,1.5039.4102.0879.7383.2852.9839.5918.2456.3057.3687.6748.3687,1.1074,0,.6289-.2295,1.1641-.6885,1.6074-.459.4424-1.0303.6641-1.7139.6641-.6479,0-1.1851-.1875-1.6113-.5596s-.6738-.8604-.7422-1.4619Z"/><path d="m194.5456,392.503v-1.4395h-2.9297v-1.2012l3.1055-4.5469h1.1523v4.541h.8887v1.207h-.8887v1.4395h-1.3281Zm0-2.6465v-2.4453l-1.6455,2.4453h1.6455Z"/></g><g><rect class="uuid-37f36622-20b9-496d-a9f7-5e33d69cc43b" x="221.7581" y="375.0037" width="163.3972" height="44.5261"/><rect class="uuid-ddd23e52-62d2-4b65-b1b6-e247f631ce34" x="241.7581" y="396.3756" width="15.0943" height="15.0943"/><rect class="uuid-ddd23e52-62d2-4b65-b1b6-e247f631ce34" x="256.8524" y="396.3756" width="15.0943" height="15.0943"/><rect class="uuid-ddd23e52-62d2-4b65-b1b6-e247f631ce34" x="334.9666" y="396.3756" width="15.0943" height="15.0943"/><rect class="uuid-ddd23e52-62d2-4b65-b1b6-e247f631ce34" x="350.0609" y="396.3756" width="15.0943" height="15.0943"/><path d="m250.4597,392.503h-1.3721v-5.1709c-.5015.4688-1.0923.8154-1.7725,1.04v-1.2451c.3579-.1172.7471-.3389,1.167-.666s.708-.709.8643-1.1455h1.1133v7.1875Z"/><path d="m266.6775,391.2296v1.2734h-4.8096c.0522-.4814.2085-.9375.4688-1.3691s.7749-1.0039,1.543-1.7168c.6187-.5762.9976-.9668,1.1377-1.1719.189-.2832.2832-.5625.2832-.8398,0-.3057-.082-.541-.2466-.7051s-.3916-.2461-.6812-.2461c-.2866,0-.5142.0859-.6836.2578-.1694.1729-.2671.459-.293.8594l-1.3672-.1367c.0815-.7549.3369-1.2969.7666-1.625.4297-.3291.9668-.4941,1.6113-.4941.7065,0,1.2612.1914,1.665.5723s.6055.8535.6055,1.4199c0,.3223-.0576.6289-.1733.9209s-.2988.5967-.5493.915c-.166.2119-.4653.5166-.8984.9141-.4331.3965-.707.6602-.8228.791-.1157.1299-.209.2568-.2808.3809h2.7246Z"/><path d="m340.1091,390.6046l1.3281-.1621c.042.3389.1562.5977.3418.7773.1855.1787.4102.2676.6738.2676.2832,0,.5215-.1074.7148-.3223.1943-.2148.291-.5039.291-.8691,0-.3447-.0928-.6182-.2783-.8203-.1855-.2012-.4121-.3027-.6787-.3027-.1758,0-.3857.0352-.6299.1035l.1514-1.1191c.3711.0098.6543-.0703.8496-.2412s.293-.3975.293-.6807c0-.2412-.0723-.4336-.2148-.5762-.1436-.1436-.334-.2148-.5713-.2148-.2344,0-.4346.0811-.6006.2441-.166.1621-.2676.4004-.3027.7129l-1.2646-.2148c.0879-.4336.2207-.7793.3975-1.0381.1777-.2588.4248-.4619.7422-.6104s.6729-.2227,1.0674-.2227c.6738,0,1.2139.2148,1.6211.6445.335.3516.5029.749.5029,1.1914,0,.6289-.3438,1.1299-1.0303,1.5039.4102.0879.7383.2852.9834.5918.2461.3057.3691.6748.3691,1.1074,0,.6289-.2295,1.1641-.6885,1.6074-.459.4424-1.0303.6641-1.7139.6641-.6484,0-1.1855-.1875-1.6113-.5596-.4268-.3721-.6738-.8604-.7422-1.4619Z"/><path d="m357.9421,392.503v-1.4395h-2.9297v-1.2012l3.1055-4.5469h1.1523v4.541h.8887v1.207h-.8887v1.4395h-1.3281Zm0-2.6465v-2.4453l-1.6455,2.4453h1.6455Z"/></g><g><g><line class="uuid-1ed00222-418c-4f8d-b202-05b3deeb0c6f" x1="179.1166" y1="314.8707" x2="85.9081" y2="403.9228"/><line class="uuid-e0ec8ccf-b20e-4d62-ba45-b71cad8b29ce" x1="179.1166" y1="314.8707" x2="85.9081" y2="403.9228"/></g><g><line class="uuid-1ed00222-418c-4f8d-b202-05b3deeb0c6f" x1="342.5138" y1="314.8707" x2="249.3052" y2="403.9228"/><line class="uuid-e5a3e59e-e7fa-4baf-ad48-e81cc40c14ac" x1="342.5138" y1="314.8707" x2="249.3052" y2="403.9228"/></g><g><polyline class="uuid-1ed00222-418c-4f8d-b202-05b3deeb0c6f" points="140.1266 206.7899 140.1266 239.5865 10.4881 239.5865 10.4881 433.4976 178.902 433.4976 178.902 403.9228"/><polyline class="uuid-e0ec8ccf-b20e-4d62-ba45-b71cad8b29ce" points="140.1266 206.7899 140.1266 239.5865 10.4881 239.5865 10.4881 433.4976 178.902 433.4976 178.902 403.9228"/></g><g><path class="uuid-e9d2d25d-62ae-4555-bfce-b9b1b46e92ef" d="m243.4558,317.8712c-1.6567,0-3-1.3428-3-3v-52.9434H108.7434c-1.6567,0-3-1.3428-3-3v-52.1377c0-1.6572,1.3433-3,3-3s3,1.3428,3,3v49.1377h131.7124c1.6567,0,3,1.3428,3,3v55.9434c0,1.6572-1.3433,3-3,3Z"/><g><path class="uuid-992e0653-fe3c-47fd-9146-1c870ac57e3d" d="m108.7434,210.7901c-.5522,0-1-.4473-1-1v-3c0-.5527.4478-1,1-1s1,.4473,1,1v3c0,.5527-.4478,1-1,1Z"/><path class="uuid-992e0653-fe3c-47fd-9146-1c870ac57e3d" d="m108.7434,250.337c-.5522,0-1-.4473-1-1v-6.5918c0-.5527.4478-1,1-1s1,.4473,1,1v6.5918c0,.5527-.4478,1-1,1Zm0-13.1826c-.5522,0-1-.4473-1-1v-6.5908c0-.5527.4478-1,1-1s1,.4473,1,1v6.5908c0,.5527-.4478,1-1,1Zm0-13.1826c-.5522,0-1-.4473-1-1v-6.5908c0-.5527.4478-1,1-1s1,.4473,1,1v6.5908c0,.5527-.4478,1-1,1Z"/><path class="uuid-992e0653-fe3c-47fd-9146-1c870ac57e3d" d="m111.7434,259.9278h-3c-.5522,0-1-.4473-1-1v-3c0-.5527.4478-1,1-1s1,.4473,1,1v2h2c.5522,0,1,.4473,1,1s-.4478,1-1,1Z"/><path class="uuid-992e0653-fe3c-47fd-9146-1c870ac57e3d" d="m234.3264,259.9278h-6.1289c-.5522,0-1-.4473-1-1s.4478-1,1-1h6.1289c.5522,0,1,.4473,1,1s-.4478,1-1,1Zm-12.2583,0h-6.1289c-.5522,0-1-.4473-1-1s.4478-1,1-1h6.1289c.5522,0,1,.4473,1,1s-.4478,1-1,1Zm-12.2583,0h-6.1289c-.5522,0-1-.4473-1-1s.4478-1,1-1h6.1289c.5522,0,1,.4473,1,1s-.4478,1-1,1Zm-12.2583,0h-6.1289c-.5522,0-1-.4473-1-1s.4478-1,1-1h6.1289c.5522,0,1,.4473,1,1s-.4478,1-1,1Zm-12.2583,0h-6.1294c-.5522,0-1-.4473-1-1s.4478-1,1-1h6.1294c.5522,0,1,.4473,1,1s-.4478,1-1,1Zm-12.2583,0h-6.1294c-.5522,0-1-.4473-1-1s.4478-1,1-1h6.1294c.5522,0,1,.4473,1,1s-.4478,1-1,1Zm-12.2583,0h-6.1294c-.5522,0-1-.4473-1-1s.4478-1,1-1h6.1294c.5522,0,1,.4473,1,1s-.4478,1-1,1Zm-12.2583,0h-6.1294c-.5522,0-1-.4473-1-1s.4478-1,1-1h6.1294c.5522,0,1,.4473,1,1s-.4478,1-1,1Zm-12.2583,0h-6.1294c-.5522,0-1-.4473-1-1s.4478-1,1-1h6.1294c.5522,0,1,.4473,1,1s-.4478,1-1,1Zm-12.2583,0h-6.1294c-.5522,0-1-.4473-1-1s.4478-1,1-1h6.1294c.5522,0,1,.4473,1,1s-.4478,1-1,1Z"/><path class="uuid-992e0653-fe3c-47fd-9146-1c870ac57e3d" d="m243.4558,262.9278c-.5522,0-1-.4473-1-1v-2h-2c-.5522,0-1-.4473-1-1s.4478-1,1-1h3c.5522,0,1,.4473,1,1v3c0,.5527-.4478,1-1,1Z"/><path class="uuid-992e0653-fe3c-47fd-9146-1c870ac57e3d" d="m243.4558,307.3223c-.5522,0-1-.4473-1-1v-5.5498c0-.5527.4478-1,1-1s1,.4473,1,1v5.5498c0,.5527-.4478,1-1,1Zm0-11.0986c-.5522,0-1-.4473-1-1v-5.5498c0-.5527.4478-1,1-1s1,.4473,1,1v5.5498c0,.5527-.4478,1-1,1Zm0-11.0986c-.5522,0-1-.4473-1-1v-5.5488c0-.5527.4478-1,1-1s1,.4473,1,1v5.5488c0,.5527-.4478,1-1,1Zm0-11.0986c-.5522,0-1-.4473-1-1v-5.5488c0-.5527.4478-1,1-1s1,.4473,1,1v5.5488c0,.5527-.4478,1-1,1Z"/><path class="uuid-992e0653-fe3c-47fd-9146-1c870ac57e3d" d="m243.4558,315.8702c-.5522,0-1-.4473-1-1v-3c0-.5527.4478-1,1-1s1,.4473,1,1v3c0,.5527-.4478,1-1,1Z"/></g></g><g><path class="uuid-e9d2d25d-62ae-4555-bfce-b9b1b46e92ef" d="m80.925,317.8712c-1.6567,0-3-1.3428-3-3v-65.6143c0-1.6572,1.3433-3,3-3h188.2158v-39.4668c0-1.6572,1.3433-3,3-3s3,1.3428,3,3v42.4668c0,1.6572-1.3433,3-3,3H83.925v62.6143c0,1.6572-1.3433,3-3,3Z"/><g><path class="uuid-75a0699a-f81a-4a10-81ff-b781afa0638e" d="m272.1409,210.7901c-.5522,0-1-.4473-1-1v-3c0-.5527.4478-1,1-1s1,.4473,1,1v3c0,.5527-.4478,1-1,1Z"/><path class="uuid-75a0699a-f81a-4a10-81ff-b781afa0638e" d="m272.1409,242.0469c-.5522,0-1-.4473-1-1v-5.209c0-.5527.4478-1,1-1s1,.4473,1,1v5.209c0,.5527-.4478,1-1,1Zm0-10.4189c-.5522,0-1-.4473-1-1v-5.21c0-.5527.4478-1,1-1s1,.4473,1,1v5.21c0,.5527-.4478,1-1,1Zm0-10.4189c-.5522,0-1-.4473-1-1v-5.21c0-.5527.4478-1,1-1s1,.4473,1,1v5.21c0,.5527-.4478,1-1,1Z"/><path class="uuid-75a0699a-f81a-4a10-81ff-b781afa0638e" d="m272.1409,250.2569h-3c-.5522,0-1-.4473-1-1s.4478-1,1-1h2v-2c0-.5527.4478-1,1-1s1,.4473,1,1v3c0,.5527-.4478,1-1,1Z"/><path class="uuid-75a0699a-f81a-4a10-81ff-b781afa0638e" d="m263.1663,250.2569h-5.9746c-.5522,0-1-.4473-1-1s.4478-1,1-1h5.9746c.5522,0,1,.4473,1,1s-.4478,1-1,1Zm-11.9492,0h-5.9751c-.5522,0-1-.4473-1-1s.4478-1,1-1h5.9751c.5522,0,1,.4473,1,1s-.4478,1-1,1Zm-11.9497,0h-5.9746c-.5522,0-1-.4473-1-1s.4478-1,1-1h5.9746c.5522,0,1,.4473,1,1s-.4478,1-1,1Zm-11.9492,0h-5.9746c-.5522,0-1-.4473-1-1s.4478-1,1-1h5.9746c.5522,0,1,.4473,1,1s-.4478,1-1,1Zm-11.9492,0h-5.9751c-.5522,0-1-.4473-1-1s.4478-1,1-1h5.9751c.5522,0,1,.4473,1,1s-.4478,1-1,1Zm-11.9497,0h-5.9746c-.5522,0-1-.4473-1-1s.4478-1,1-1h5.9746c.5522,0,1,.4473,1,1s-.4478,1-1,1Zm-11.9492,0h-5.9746c-.5522,0-1-.4473-1-1s.4478-1,1-1h5.9746c.5522,0,1,.4473,1,1s-.4478,1-1,1Zm-11.9497,0h-5.9746c-.5522,0-1-.4473-1-1s.4478-1,1-1h5.9746c.5522,0,1,.4473,1,1s-.4478,1-1,1Zm-11.9492,0h-5.9746c-.5522,0-1-.4473-1-1s.4478-1,1-1h5.9746c.5522,0,1,.4473,1,1s-.4478,1-1,1Zm-11.9492,0h-5.9746c-.5522,0-1-.4473-1-1s.4478-1,1-1h5.9746c.5522,0,1,.4473,1,1s-.4478,1-1,1Zm-11.9497,0h-5.9746c-.5522,0-1-.4473-1-1s.4478-1,1-1h5.9746c.5522,0,1,.4473,1,1s-.4478,1-1,1Zm-11.9492,0h-5.9746c-.5522,0-1-.4473-1-1s.4478-1,1-1h5.9746c.5522,0,1,.4473,1,1s-.4478,1-1,1Zm-11.9492,0h-5.9751c-.5522,0-1-.4473-1-1s.4478-1,1-1h5.9751c.5522,0,1,.4473,1,1s-.4478,1-1,1Zm-11.9497,0h-5.9746c-.5522,0-1-.4473-1-1s.4478-1,1-1h5.9746c.5522,0,1,.4473,1,1s-.4478,1-1,1Zm-11.9492,0h-5.9746c-.5522,0-1-.4473-1-1s.4478-1,1-1h5.9746c.5522,0,1,.4473,1,1s-.4478,1-1,1Z"/><path class="uuid-75a0699a-f81a-4a10-81ff-b781afa0638e" d="m80.925,253.2569c-.5522,0-1-.4473-1-1v-3c0-.5527.4478-1,1-1h3c.5522,0,1,.4473,1,1s-.4478,1-1,1h-2v2c0,.5527-.4478,1-1,1Z"/><path class="uuid-75a0699a-f81a-4a10-81ff-b781afa0638e" d="m80.925,306.2471c-.5522,0-1-.4473-1-1v-6.624c0-.5527.4478-1,1-1s1,.4473,1,1v6.624c0,.5527-.4478,1-1,1Zm0-13.248c-.5522,0-1-.4473-1-1v-6.623c0-.5527.4478-1,1-1s1,.4473,1,1v6.623c0,.5527-.4478,1-1,1Zm0-13.2471c-.5522,0-1-.4473-1-1v-6.624c0-.5527.4478-1,1-1s1,.4473,1,1v6.624c0,.5527-.4478,1-1,1Zm0-13.2471c-.5522,0-1-.4473-1-1v-6.624c0-.5527.4478-1,1-1s1,.4473,1,1v6.624c0,.5527-.4478,1-1,1Z"/><path class="uuid-75a0699a-f81a-4a10-81ff-b781afa0638e" d="m80.925,315.8702c-.5522,0-1-.4473-1-1v-3c0-.5527.4478-1,1-1s1,.4473,1,1v3c0,.5527-.4478,1-1,1Z"/></g></g><g><polyline class="uuid-1ed00222-418c-4f8d-b202-05b3deeb0c6f" points="303.2103 205.8974 303.2103 239.5865 433.1625 239.5865 433.1625 433.4976 342.6325 432.6087 342.6325 403.9228"/><polyline class="uuid-e5a3e59e-e7fa-4baf-ad48-e81cc40c14ac" points="303.2103 205.8974 303.2103 239.5865 433.1625 239.5865 433.1625 433.4976 342.6325 432.6087 342.6325 403.9228"/></g></g></g></svg>