<?xml version="1.0" encoding="utf-8"?>
<!-- Generator: Adobe Illustrator 26.0.3, SVG Export Plug-In . SVG Version: 6.00 Build 0)  -->
<svg version="1.1" id="Layer_1" xmlns="http://www.w3.org/2000/svg" xmlns:xlink="http://www.w3.org/1999/xlink" x="0px" y="0px"
	 viewBox="0 0 99.943 18.259" style="enable-background:new 0 0 99.943 18.259;" xml:space="preserve">
<style type="text/css">
	
		.st0{clip-path:url(#SVGID_00000162315409036914826130000012788425906680448181_);fill-rule:evenodd;clip-rule:evenodd;fill:#2868B1;stroke:#999999;stroke-width:0.1828;stroke-miterlimit:10;}
	
		.st1{clip-path:url(#SVGID_00000162315409036914826130000012788425906680448181_);fill:none;stroke:#749DD2;stroke-width:0.0087;stroke-linecap:round;stroke-linejoin:round;stroke-miterlimit:10;}
	
		.st2{clip-path:url(#SVGID_00000162315409036914826130000012788425906680448181_);fill-rule:evenodd;clip-rule:evenodd;fill:#D9D9D9;stroke:#999999;stroke-width:0.1828;stroke-miterlimit:10;}
	
		.st3{clip-path:url(#SVGID_00000162315409036914826130000012788425906680448181_);fill:none;stroke:#999999;stroke-width:0.0087;stroke-linecap:round;stroke-linejoin:round;stroke-miterlimit:10;}
	
		.st4{clip-path:url(#SVGID_00000162315409036914826130000012788425906680448181_);fill-rule:evenodd;clip-rule:evenodd;fill:#A6A6A6;}
</style>
<g>
	<g>
		<defs>
			<rect id="SVGID_1_" width="99.943" height="18.259"/>
		</defs>
		<clipPath id="SVGID_00000100345204815688853100000010494077878076531614_">
			<use xlink:href="#SVGID_1_"  style="overflow:visible;"/>
		</clipPath>
		
			<path style="clip-path:url(#SVGID_00000100345204815688853100000010494077878076531614_);fill-rule:evenodd;clip-rule:evenodd;fill:#2868B1;stroke:#999999;stroke-width:0.1828;stroke-miterlimit:10;" d="
			M18.457,10.316v0.26l9.356,0.312c0.376-1.221,0.376-2.525,0-3.746l-9.356,0.312V10.316z M47.123,6.498L32.561,6.984
			c-0.695,1.266-0.695,2.796,0,4.063l17.091,0.57V6.414L47.123,6.498z M1.2,10.316c0.526,0,0.498-0.422-0.152-1.066
			C0.972,9.174,0.905,9.096,0.847,9.015c-0.175,0.243-0.264,0.5-0.264,0.721C0.583,10.067,0.783,10.316,1.2,10.316z M0.583,8.294
			c0,0.221,0.09,0.478,0.264,0.721c0.058,0.08,0.125,0.159,0.201,0.234c0.65,0.644,0.678,1.066,0.152,1.066h11.66
			c-0.131-0.862-0.131-1.739,0-2.601H1.2C0.783,7.715,0.583,7.964,0.583,8.294z M18.457,10.316V7.715h-3.195
			c-0.179,0.858-0.179,1.744,0,2.601H18.457z M15.04,9.015c0-3.592,2.942-6.503,6.572-6.503c3.63,0,6.572,2.912,6.572,6.503
			c0,3.592-2.942,6.503-6.572,6.503C17.983,15.519,15.04,12.607,15.04,9.015z M42.604,11.469L38.994,13
			c-0.547,0.232-1.134,0.351-1.728,0.351h-0.933c-2.42,0-4.38-1.941-4.38-4.336c0-2.394,1.96-4.336,4.38-4.336l0,0h0.933
			c0.594,0,1.181,0.119,1.728,0.351l3.61,1.532l4.123-0.137l-7.375-3.128c-0.544-0.232-1.131-0.351-1.725-0.351h-3.842
			c-0.791,0-1.567-0.213-2.247-0.615l-1.277-0.756c-1.36-0.805-2.915-1.23-4.499-1.23h-4.15c-4.839,0-8.762,3.882-8.762,8.671
			c0,4.789,3.923,8.671,8.762,8.671l0,0h4.15c1.585,0,3.14-0.425,4.499-1.231l1.277-0.756c0.68-0.403,1.456-0.615,2.247-0.615h3.842
			c0.593,0,1.181-0.119,1.725-0.351l7.375-3.128L42.604,11.469z"/>
		
			<path style="clip-path:url(#SVGID_00000100345204815688853100000010494077878076531614_);fill:none;stroke:#749DD2;stroke-width:0.0087;stroke-linecap:round;stroke-linejoin:round;stroke-miterlimit:10;" d="
			M18.457,10.316v0.26l9.356,0.312c0.376-1.221,0.376-2.525,0-3.746l-9.356,0.312V10.316z M47.123,6.498L32.561,6.984
			c-0.695,1.266-0.695,2.796,0,4.063l17.091,0.57V6.414L47.123,6.498z M1.2,10.316c0.526,0,0.498-0.422-0.152-1.066
			C0.972,9.174,0.905,9.096,0.847,9.015c-0.175,0.243-0.264,0.5-0.264,0.721C0.583,10.067,0.783,10.316,1.2,10.316z M0.583,8.294
			c0,0.221,0.09,0.478,0.264,0.721c0.058,0.08,0.125,0.159,0.201,0.234c0.65,0.644,0.678,1.066,0.152,1.066h11.66
			c-0.131-0.862-0.131-1.739,0-2.601H1.2C0.783,7.715,0.583,7.964,0.583,8.294z M18.457,10.316V7.715h-3.195
			c-0.179,0.858-0.179,1.744,0,2.601H18.457z M15.04,9.015c0-3.592,2.942-6.503,6.572-6.503c3.63,0,6.572,2.912,6.572,6.503
			c0,3.592-2.942,6.503-6.572,6.503C17.983,15.519,15.04,12.607,15.04,9.015z M42.604,11.469L38.994,13
			c-0.547,0.232-1.134,0.351-1.728,0.351h-0.933c-2.42,0-4.38-1.941-4.38-4.336c0-2.394,1.96-4.336,4.38-4.336l0,0h0.933
			c0.594,0,1.181,0.119,1.728,0.351l3.61,1.532l4.123-0.137l-7.375-3.128c-0.544-0.232-1.131-0.351-1.725-0.351h-3.842
			c-0.791,0-1.567-0.213-2.247-0.615l-1.277-0.756c-1.36-0.805-2.915-1.23-4.499-1.23h-4.15c-4.839,0-8.762,3.882-8.762,8.671
			c0,4.789,3.923,8.671,8.762,8.671l0,0h4.15c1.585,0,3.14-0.425,4.499-1.231l1.277-0.756c0.68-0.403,1.456-0.615,2.247-0.615h3.842
			c0.593,0,1.181-0.119,1.725-0.351l7.375-3.128L42.604,11.469z"/>
		
			<path style="clip-path:url(#SVGID_00000100345204815688853100000010494077878076531614_);fill-rule:evenodd;clip-rule:evenodd;fill:#D9D9D9;stroke:#999999;stroke-width:0.1828;stroke-miterlimit:10;" d="
			M52.366,13.048c0-0.671,0.55-1.214,1.227-1.214s1.227,0.544,1.227,1.214c0,0.67-0.55,1.214-1.227,1.214
			S52.366,13.718,52.366,13.048z M52.366,4.983c0-0.67,0.55-1.214,1.227-1.214s1.227,0.544,1.227,1.214
			c0,0.671-0.55,1.214-1.227,1.214S52.366,5.654,52.366,4.983z M49.652,14.955h8.321V3.076h-8.321V14.955z M52.366,13.048
			c0,0.67,0.55,1.214,1.227,1.214s1.227-0.544,1.227-1.214c0-0.671-0.55-1.214-1.227-1.214S52.366,12.377,52.366,13.048z
			 M52.366,4.983c0,0.671,0.55,1.214,1.227,1.214s1.227-0.544,1.227-1.214c0-0.67-0.55-1.214-1.227-1.214S52.366,4.313,52.366,4.983
			z M57.973,3.206v11.62h7.1v-0.607h4.204V3.813h-4.204V3.206H57.973z M71.555,4.94c0-0.24,0.198-0.434,0.439-0.434h22.342
			c0.244,0,0.439,0.194,0.439,0.434v8.151c0,0.24-0.195,0.434-0.439,0.434l0,0H71.994c-0.241,0-0.439-0.194-0.439-0.434V4.94z
			 M98.769,14.825c0.275,0,0.507-0.214,0.522-0.489l0.303-4.888V8.582l-0.303-4.888c-0.016-0.274-0.247-0.489-0.522-0.489H65.073
			v0.607h4.204v10.405h-4.204v0.607H98.769z M71.555,4.94v8.151c0,0.24,0.198,0.434,0.439,0.434l0,0h22.342
			c0.244,0,0.439-0.194,0.439-0.434l0,0V4.94c0-0.24-0.195-0.434-0.439-0.434H71.994C71.753,4.506,71.555,4.7,71.555,4.94z"/>
		
			<path style="clip-path:url(#SVGID_00000100345204815688853100000010494077878076531614_);fill:none;stroke:#999999;stroke-width:0.0087;stroke-linecap:round;stroke-linejoin:round;stroke-miterlimit:10;" d="
			M52.366,13.048c0-0.671,0.55-1.214,1.227-1.214s1.227,0.544,1.227,1.214c0,0.67-0.55,1.214-1.227,1.214
			S52.366,13.718,52.366,13.048z M52.366,4.983c0-0.67,0.55-1.214,1.227-1.214s1.227,0.544,1.227,1.214
			c0,0.671-0.55,1.214-1.227,1.214S52.366,5.654,52.366,4.983z M49.652,14.955h8.321V3.076h-8.321V14.955z M52.366,13.048
			c0,0.67,0.55,1.214,1.227,1.214s1.227-0.544,1.227-1.214c0-0.671-0.55-1.214-1.227-1.214S52.366,12.377,52.366,13.048z
			 M52.366,4.983c0,0.671,0.55,1.214,1.227,1.214s1.227-0.544,1.227-1.214c0-0.67-0.55-1.214-1.227-1.214S52.366,4.313,52.366,4.983
			z M57.973,3.206v11.62h7.1v-0.607h4.204V3.813h-4.204V3.206H57.973z M71.555,4.94c0-0.24,0.198-0.434,0.439-0.434h22.342
			c0.244,0,0.439,0.194,0.439,0.434v8.151c0,0.24-0.195,0.434-0.439,0.434l0,0H71.994c-0.241,0-0.439-0.194-0.439-0.434V4.94z
			 M98.769,14.825c0.275,0,0.507-0.214,0.522-0.489l0.303-4.888V8.582l-0.303-4.888c-0.016-0.274-0.247-0.489-0.522-0.489H65.073
			v0.607h4.204v10.405h-4.204v0.607H98.769z M71.555,4.94v8.151c0,0.24,0.198,0.434,0.439,0.434l0,0h22.342
			c0.244,0,0.439-0.194,0.439-0.434l0,0V4.94c0-0.24-0.195-0.434-0.439-0.434H71.994C71.753,4.506,71.555,4.7,71.555,4.94z"/>
		
			<path style="clip-path:url(#SVGID_00000100345204815688853100000010494077878076531614_);fill-rule:evenodd;clip-rule:evenodd;fill:#A6A6A6;" d="
			M58.764,12.18h3.984c0.124,0,0.22-0.097,0.22-0.217v-0.087c0-0.12-0.096-0.217-0.22-0.217h-3.11c-0.241,0-0.439-0.194-0.439-0.433
			l0,0v-0.434c0-0.239,0.198-0.434,0.439-0.434h3.11c0.124,0,0.22-0.097,0.22-0.217v-0.087c0-0.12-0.096-0.217-0.22-0.217h-3.984
			V12.18z M58.764,8.192h3.984c0.124,0,0.22-0.097,0.22-0.217V7.888c0-0.12-0.096-0.217-0.22-0.217h-3.11
			c-0.241,0-0.439-0.194-0.439-0.434l0,0V6.804c0-0.239,0.198-0.433,0.439-0.433h3.11c0.124,0,0.22-0.097,0.22-0.217V6.067
			c0-0.12-0.096-0.217-0.22-0.217h-3.984V8.192z"/>
		
			<path style="clip-path:url(#SVGID_00000100345204815688853100000010494077878076531614_);fill:none;stroke:#999999;stroke-width:0.0087;stroke-linecap:round;stroke-linejoin:round;stroke-miterlimit:10;" d="
			M58.764,12.18h3.984c0.124,0,0.22-0.097,0.22-0.217v-0.087c0-0.12-0.096-0.217-0.22-0.217h-3.11c-0.241,0-0.439-0.194-0.439-0.433
			l0,0v-0.434c0-0.239,0.198-0.434,0.439-0.434h3.11c0.124,0,0.22-0.097,0.22-0.217v-0.087c0-0.12-0.096-0.217-0.22-0.217h-3.984
			V12.18z M58.764,8.192h3.984c0.124,0,0.22-0.097,0.22-0.217V7.888c0-0.12-0.096-0.217-0.22-0.217h-3.11
			c-0.241,0-0.439-0.194-0.439-0.434l0,0V6.804c0-0.239,0.198-0.433,0.439-0.433h3.11c0.124,0,0.22-0.097,0.22-0.217V6.067
			c0-0.12-0.096-0.217-0.22-0.217h-3.984V8.192z"/>
	</g>
</g>
</svg>
