<?xml version="1.0" encoding="utf-8"?>
<!-- Generator: Adobe Illustrator 26.0.3, SVG Export Plug-In . SVG Version: 6.00 Build 0)  -->
<svg version="1.1" id="Layer_1" xmlns="http://www.w3.org/2000/svg" xmlns:xlink="http://www.w3.org/1999/xlink" x="0px" y="0px"
	 viewBox="0 0 121.013 72.712" style="enable-background:new 0 0 121.013 72.712;" xml:space="preserve">
<style type="text/css">
	.st0{fill:#FFFFFF;}
	.st1{fill:none;stroke:#929497;stroke-width:1.8209;}
	.st2{fill:#929497;stroke:#929497;stroke-width:1.8209;}
	.st3{fill-rule:evenodd;clip-rule:evenodd;fill:#F69220;}
	.st4{fill:#221F1F;}
	.st5{fill-rule:evenodd;clip-rule:evenodd;fill:#FFFFFF;}
	.st6{fill-rule:evenodd;clip-rule:evenodd;fill:#221F1F;}
	.st7{fill:#FFFFFF;stroke:#221F1F;stroke-width:0.5437;stroke-linejoin:round;}
	.st8{fill:#FFFFFF;stroke:#221F1F;stroke-width:0.5437;stroke-linecap:round;stroke-linejoin:round;}
</style>
<g>
	<g>
		<g>
			<rect x="3.153" y="1.911" class="st0" width="113.629" height="67.497"/>
			<g>
				<rect x="2.8" y="2.677" class="st1" width="115.063" height="67.196"/>
				<polygon class="st2" points="117.863,2.677 59.016,2.677 59.016,18.606 99.353,18.606 117.863,18.606 				"/>
				<rect x="2.8" y="2.677" class="st1" width="55.058" height="15.929"/>
				<g>
					<path class="st0" d="M61.423,9.385h0.929v3.38h2.107v0.845h-3.036V9.385z"/>
					<path class="st0" d="M65.2,9.385h0.93v4.225H65.2V9.385z"/>
					<path class="st0" d="M67.184,9.385h3.217v0.845h-2.288v0.9h2.016v0.845h-2.016v1.636h-0.929V9.385z"/>
					<path class="st0" d="M72.126,10.242H70.84V9.385h3.501v0.857h-1.285v3.368h-0.93V10.242z"/>
					<path class="st0" d="M75.093,9.385h0.93v4.225h-0.93V9.385z"/>
					<path class="st0" d="M77.078,9.385h0.857l1.98,2.602V9.385h0.918v4.225h-0.791l-2.046-2.686v2.686h-0.917V9.385z"/>
					<path class="st0" d="M81.657,11.51v-0.012c0-1.202,0.936-2.185,2.215-2.185c0.761,0,1.219,0.205,1.66,0.579l-0.585,0.706
						c-0.326-0.272-0.616-0.428-1.105-0.428c-0.676,0-1.213,0.598-1.213,1.316v0.012c0,0.773,0.531,1.34,1.279,1.34
						c0.338,0,0.64-0.084,0.875-0.254v-0.603h-0.936v-0.803h1.835v1.834c-0.435,0.368-1.032,0.67-1.805,0.67
						C82.562,13.682,81.657,12.759,81.657,11.51z"/>
					<path class="st0" d="M88.383,9.385h0.929v1.672h1.714V9.385h0.93v4.225h-0.93v-1.696h-1.714v1.696h-0.929V9.385z"/>
					<path class="st0" d="M94.416,9.355h0.857l1.811,4.255h-0.972l-0.386-0.947H93.94l-0.386,0.947h-0.948L94.416,9.355z
						 M95.394,11.841l-0.561-1.37l-0.562,1.37H95.394z"/>
					<path class="st0" d="M97.606,12.904L99.93,10.2h-2.252V9.385h3.447v0.706l-2.324,2.704h2.324v0.815h-3.519V12.904z"/>
					<path class="st0" d="M103.453,9.355h0.858l1.81,4.255h-0.971l-0.386-0.947h-1.787l-0.386,0.947h-0.947L103.453,9.355z
						 M104.431,11.841l-0.562-1.37l-0.561,1.37H104.431z"/>
					<path class="st0" d="M106.771,9.385h1.932c0.537,0,0.953,0.151,1.231,0.428c0.235,0.236,0.362,0.568,0.362,0.966v0.012
						c0,0.682-0.368,1.111-0.906,1.31l1.032,1.509h-1.087l-0.905-1.352h-0.73v1.352h-0.929V9.385z M108.641,11.437
						c0.453,0,0.712-0.241,0.712-0.597v-0.012c0-0.398-0.277-0.604-0.73-0.604H107.7v1.213H108.641z"/>
					<path class="st0" d="M111.132,9.385h1.648c1.328,0,2.246,0.911,2.246,2.101v0.012c0,1.189-0.918,2.112-2.246,2.112h-1.648
						V9.385z M112.062,10.224v2.548h0.718c0.761,0,1.273-0.513,1.273-1.261v-0.012c0-0.749-0.513-1.274-1.273-1.274H112.062z"/>
				</g>
				<g>
					<path class="st3" d="M8.356,14.945h8.904c0.188,0,0.177-0.201,0.094-0.344c0,0-4.314-8.652-4.427-8.881
						c-0.023-0.025-0.055-0.056-0.118-0.056c-0.062,0-0.095,0.031-0.118,0.056C12.576,5.949,8.263,14.6,8.263,14.6
						C8.181,14.743,8.168,14.945,8.356,14.945z"/>
					<g>
						<path class="st4" d="M20.51,11.532v-0.014c0-1.337,1.008-2.432,2.452-2.432c0.887,0,1.418,0.295,1.854,0.725l-0.659,0.759
							c-0.363-0.329-0.732-0.53-1.203-0.53c-0.793,0-1.364,0.658-1.364,1.465v0.013c0,0.807,0.558,1.478,1.364,1.478
							c0.537,0,0.867-0.215,1.236-0.55l0.659,0.665c-0.484,0.517-1.021,0.84-1.928,0.84C21.538,13.95,20.51,12.882,20.51,11.532z"/>
						<path class="st4" d="M27.227,9.133h0.954l2.016,4.737h-1.082l-0.43-1.055h-1.988l-0.43,1.055h-1.055L27.227,9.133z
							 M28.316,11.901l-0.625-1.525l-0.625,1.525H28.316z"/>
						<path class="st4" d="M30.788,11.854V9.167h1.035v2.66c0,0.766,0.383,1.162,1.014,1.162c0.631,0,1.014-0.383,1.014-1.129V9.167
							h1.035v2.654c0,1.424-0.799,2.123-2.063,2.123C31.56,13.944,30.788,13.238,30.788,11.854z"/>
						<path class="st4" d="M36.974,10.121h-1.431V9.167h3.897v0.954h-1.431v3.749h-1.035V10.121z"/>
						<path class="st4" d="M40.219,9.167h1.035v4.703h-1.035V9.167z"/>
						<path class="st4" d="M42.161,11.532v-0.014c0-1.337,1.055-2.432,2.506-2.432c1.451,0,2.493,1.081,2.493,2.419v0.013
							c0,1.337-1.055,2.432-2.506,2.432C43.202,13.95,42.161,12.869,42.161,11.532z M46.078,11.532v-0.014
							c0-0.806-0.592-1.477-1.424-1.477c-0.833,0-1.411,0.658-1.411,1.465v0.013c0,0.807,0.591,1.478,1.424,1.478
							C45.5,12.996,46.078,12.338,46.078,11.532z"/>
						<path class="st4" d="M48.018,9.167h0.954l2.203,2.895V9.167h1.022v4.703h-0.88l-2.278-2.99v2.99h-1.021V9.167z"/>
					</g>
					<g>
						<path class="st3" d="M8.635,15.376c-0.491,0-0.887-0.397-0.887-0.886c0-0.207,0.106-0.38,0.186-0.545l4.175-8.371
							c0.161-0.208,0.414-0.341,0.699-0.341c0.285,0,0.539,0.133,0.7,0.341l4.174,8.371c0.095,0.165,0.185,0.338,0.185,0.545
							c0,0.489-0.396,0.886-0.886,0.886H8.635z M8.635,14.658h8.346c0.177,0,0.168-0.194,0.09-0.327c0,0-4.046-8.111-4.151-8.324
							c-0.024-0.022-0.051-0.054-0.111-0.054c-0.06,0-0.09,0.032-0.11,0.054c-0.107,0.213-4.152,8.324-4.152,8.324
							C8.469,14.464,8.457,14.658,8.635,14.658z"/>
						<path class="st5" d="M13.437,13.43c0,0.347-0.281,0.628-0.628,0.628c-0.347,0-0.628-0.281-0.628-0.628
							c0-0.348,0.281-0.628,0.628-0.628C13.156,12.801,13.437,13.082,13.437,13.43z"/>
						<path class="st5" d="M12.808,8.18c-0.322,0-0.583,0.262-0.583,0.582l0.193,3.144c0,0.215,0.175,0.387,0.39,0.387
							c0.214,0,0.387-0.172,0.387-0.387l0.196-3.144C13.391,8.441,13.13,8.18,12.808,8.18z"/>
					</g>
				</g>
				<rect x="81.692" y="39.973" class="st5" width="15.648" height="6.737"/>
				<path class="st6" d="M97.339,46.71H81.692v-6.737h15.648V46.71z M98.137,47.509H80.893v-8.334h17.244V47.509"/>
				<g>
					<path class="st6" d="M80.739,30.532c0,1.34-1.086,2.423-2.426,2.423c-1.338,0-2.423-1.083-2.423-2.423
						c0-1.339,1.085-2.424,2.423-2.424C79.653,28.108,80.739,29.194,80.739,30.532z"/>
					<path class="st6" d="M74.245,33.591c0.554-0.97,1.923-1.468,2.718-0.876l2.07,1.409l1.86,4.518l3.618,3.405
						c0.473,0.474,0.473,1.24,0,1.712c-0.472,0.474-1.239,0.474-1.714,0l-4.563-3.786l-0.532-1.861l-1.594,3.458l3.989,5.05
						c0.572,0.724,0.417,1.764,0.264,2.131l-2.75,6.922c-0.306,0.735-1.153,1.085-1.89,0.777c-0.736-0.307-1.086-1.151-0.778-1.889
						l2.178-5.658c0.155-0.414-0.077-1.027-0.367-1.351l-4.902-5.716c-0.728-0.728-0.81-1.885-0.291-2.924L74.245,33.591"/>
				</g>
				<g>
					<path class="st6" d="M98.294,30.532c0,1.34,1.085,2.423,2.423,2.423c1.338,0,2.424-1.083,2.424-2.423
						c0-1.339-1.087-2.424-2.424-2.424C99.379,28.108,98.294,29.194,98.294,30.532z"/>
					<path class="st6" d="M104.788,33.591c-0.555-0.97-1.922-1.468-2.72-0.876l-2.07,1.409l-1.86,4.518l-3.619,3.405
						c-0.472,0.474-0.472,1.24,0,1.712c0.474,0.474,1.242,0.474,1.714,0l4.565-3.786l0.532-1.861l1.595,3.458l-3.988,5.05
						c-0.573,0.724-0.418,1.764-0.267,2.131l2.752,6.922c0.307,0.735,1.153,1.085,1.891,0.777c0.736-0.307,1.084-1.151,0.778-1.889
						l-2.176-5.658c-0.158-0.414,0.074-1.027,0.362-1.351l4.904-5.716c0.728-0.728,0.811-1.885,0.293-2.924L104.788,33.591"/>
				</g>
				<g>
					<path class="st4" d="M10.849,59.907v-0.343l1.951-0.786v-0.011l-1.951-0.791V57.64l2.369,0.98v0.301L10.849,59.907z
						 M10.849,60.412v-0.296h2.359v0.296H10.849z"/>
					<path class="st4" d="M17.347,59.565h-1.884l-0.102-0.291l2.022-2.462h0.352v2.416h0.556v0.337h-0.556v0.848h-0.388V59.565z
						 M17.347,59.228v-1.843l-1.501,1.843H17.347z"/>
					<path class="st4" d="M19.509,57.231l-0.674,0.209l-0.097-0.327l0.873-0.301h0.296v3.6h-0.398V57.231z"/>
					<path class="st4" d="M20.838,59.876h0.47v0.536h-0.47V59.876z"/>
					<path class="st4" d="M21.967,60.101l1.297-1.144c0.546-0.49,0.746-0.766,0.746-1.124c0-0.419-0.332-0.684-0.72-0.684
						c-0.409,0-0.674,0.215-0.96,0.613l-0.296-0.215c0.322-0.48,0.659-0.761,1.287-0.761c0.643,0,1.108,0.429,1.108,1.011v0.011
						c0,0.52-0.276,0.842-0.904,1.389l-0.955,0.848h1.895v0.367h-2.497V60.101z"/>
					<path class="st4" d="M25.063,59.836l0.291-0.261c0.276,0.337,0.608,0.531,1.047,0.531c0.434,0,0.781-0.276,0.781-0.694v-0.011
						c0-0.444-0.414-0.689-1.001-0.689h-0.23l-0.082-0.24l1.128-1.271h-1.746v-0.363h2.282v0.296l-1.123,1.246
						c0.623,0.051,1.18,0.352,1.18,1.006v0.011c0,0.638-0.531,1.077-1.195,1.077C25.798,60.473,25.354,60.214,25.063,59.836z"/>
					<path class="st4" d="M29.999,56.685h0.393v3.728h-0.393V56.685z"/>
					<path class="st4" d="M31.726,59.907v0.505h-0.393v-3.728h0.393v1.618c0.214-0.316,0.526-0.587,1.011-0.587
						c0.633,0,1.261,0.5,1.261,1.368v0.01c0,0.863-0.623,1.374-1.261,1.374C32.246,60.469,31.93,60.203,31.726,59.907z M33.595,59.1
						v-0.01c0-0.624-0.429-1.022-0.93-1.022c-0.49,0-0.955,0.414-0.955,1.017v0.01c0,0.613,0.465,1.022,0.955,1.022
						C33.176,60.116,33.595,59.738,33.595,59.1z"/>
					<path class="st4" d="M34.531,60.075l0.199-0.281c0.286,0.215,0.602,0.337,0.914,0.337c0.317,0,0.546-0.163,0.546-0.419v-0.011
						c0-0.265-0.311-0.367-0.659-0.465c-0.413-0.117-0.873-0.261-0.873-0.746v-0.01c0-0.455,0.378-0.756,0.899-0.756
						c0.322,0,0.679,0.112,0.95,0.291l-0.179,0.296c-0.245-0.158-0.526-0.255-0.781-0.255c-0.311,0-0.511,0.163-0.511,0.383v0.011
						c0,0.25,0.327,0.347,0.679,0.455c0.409,0.122,0.848,0.28,0.848,0.755v0.011c0,0.5-0.414,0.791-0.939,0.791
						C35.246,60.464,34.827,60.315,34.531,60.075z"/>
					<path class="st4" d="M38.787,58.947c0-0.94,0.506-1.675,1.415-2.186l0.169,0.261c-0.776,0.495-1.185,1.108-1.185,1.926
						c0,0.817,0.409,1.43,1.185,1.925l-0.169,0.261C39.292,60.622,38.787,59.887,38.787,58.947z"/>
					<path class="st4" d="M41.02,59.907v-0.343l1.951-0.786v-0.011l-1.951-0.791V57.64l2.369,0.98v0.301L41.02,59.907z
						 M41.02,60.412v-0.296h2.359v0.296H41.02z"/>
					<path class="st4" d="M46.226,57.231l-0.674,0.209l-0.097-0.327l0.873-0.301h0.296v3.6h-0.398V57.231z"/>
					<path class="st4" d="M47.432,59.452v-0.01c0-0.424,0.306-0.725,0.735-0.879c-0.332-0.153-0.613-0.408-0.613-0.822v-0.01
						c0-0.552,0.567-0.945,1.22-0.945s1.221,0.393,1.221,0.945v0.01c0,0.414-0.281,0.669-0.613,0.822
						c0.424,0.158,0.735,0.45,0.735,0.874v0.01c0,0.608-0.582,1.017-1.343,1.017C48.014,60.464,47.432,60.05,47.432,59.452z
						 M49.709,59.443v-0.011c0-0.398-0.413-0.679-0.935-0.679c-0.521,0-0.935,0.281-0.935,0.679v0.011
						c0,0.362,0.347,0.669,0.935,0.669C49.362,60.111,49.709,59.805,49.709,59.443z M49.592,57.767v-0.01
						c0-0.352-0.352-0.618-0.817-0.618s-0.817,0.261-0.817,0.618v0.01c0,0.389,0.363,0.654,0.817,0.654S49.592,58.156,49.592,57.767
						z"/>
					<path class="st4" d="M50.799,59.876h0.47v0.536h-0.47V59.876z"/>
					<path class="st4" d="M53.997,57.205H52.03v-0.367h2.426v0.301l-1.624,3.273h-0.45L53.997,57.205z"/>
					<path class="st4" d="M56.751,56.685h0.393v2.573l1.425-1.486h0.49l-1.108,1.134l1.144,1.506h-0.47l-0.945-1.23l-0.536,0.541
						v0.689h-0.393V56.685z"/>
					<path class="st4" d="M59.653,60.872l0.179-0.306c0.301,0.22,0.638,0.337,1.016,0.337c0.582,0,0.96-0.322,0.96-0.94v-0.311
						c-0.23,0.306-0.551,0.556-1.037,0.556c-0.633,0-1.241-0.475-1.241-1.236v-0.011c0-0.771,0.613-1.246,1.241-1.246
						c0.496,0,0.817,0.245,1.032,0.531v-0.475h0.393v2.181c0,0.408-0.122,0.72-0.337,0.935c-0.235,0.235-0.587,0.352-1.006,0.352
						C60.414,61.24,60.006,61.117,59.653,60.872z M61.818,58.967v-0.011c0-0.541-0.47-0.893-0.97-0.893
						c-0.501,0-0.914,0.347-0.914,0.889v0.01c0,0.531,0.424,0.899,0.914,0.899C61.349,59.861,61.818,59.498,61.818,58.967z"/>
					<path class="st4" d="M62.949,60.872c0.776-0.495,1.185-1.108,1.185-1.925c0-0.817-0.409-1.43-1.185-1.926l0.169-0.261
						c0.909,0.511,1.415,1.246,1.415,2.186c0,0.94-0.506,1.675-1.415,2.185L62.949,60.872z"/>
				</g>
				<line class="st7" x1="21.32" y1="38.023" x2="21.32" y2="44.307"/>
				<line class="st7" x1="36.343" y1="52.873" x2="53.932" y2="42.775"/>
				<polyline class="st7" points="20.754,37.667 38.342,27.528 53.922,36.534 36.343,46.667 				"/>
				<polyline class="st7" points="20.733,43.931 20.756,37.67 36.34,46.671 36.34,52.791 				"/>
				<line class="st7" x1="25.744" y1="46.734" x2="21.326" y2="44.184"/>
				<line class="st7" x1="21.171" y1="44.216" x2="21.171" y2="38.112"/>
				<line class="st7" x1="35.353" y1="49.279" x2="20.796" y2="40.755"/>
				<line class="st7" x1="30.753" y1="49.626" x2="26.316" y2="47.067"/>
				<line class="st7" x1="35.749" y1="52.512" x2="31.327" y2="49.96"/>
				<line class="st7" x1="35.767" y1="52.51" x2="35.765" y2="46.357"/>
				<line class="st7" x1="36.335" y1="52.887" x2="20.781" y2="43.835"/>
				<polyline class="st8" points="36.35,52.809 36.34,46.671 53.922,36.534 53.922,42.754 				"/>
			</g>
		</g>
	</g>
</g>
</svg>
